<svg width="48" height="48" viewBox="0 0 48 48" fill="none" xmlns="http://www.w3.org/2000/svg">
<g clip-path="url(#clip0_451_784)">
<path d="M6.18538 3.96516C8.1303 3.60074 10.1289 3.8231 12.0973 3.76442C14.1629 3.8231 16.4265 3.46177 18.2775 4.52723C20.0414 5.55564 21.2016 7.22641 22.7776 8.46172C23.3578 8.87557 24.109 9.03 24.8366 9.01763C31.8887 9.01763 38.9407 9.02692 45.9928 9.06705C47.2067 8.97127 48.2563 10.1294 47.9445 11.2103C47.7734 12.0472 46.8915 12.668 45.9727 12.6125C38.81 12.6217 31.6472 12.5877 24.4845 12.5816C22.8448 12.5723 21.2083 12.0133 19.991 10.9972C18.5022 9.88237 17.5129 8.17147 15.7525 7.40863C13.3112 7.2295 10.8465 7.38392 8.39858 7.33141C6.7152 7.2295 5.03183 8.1189 4.31421 9.52717C3.82127 10.4197 3.90846 11.4451 3.90176 12.4117C3.91852 20.5494 3.89504 28.6871 3.91181 36.8279C3.88499 38.3535 4.96811 39.8111 6.50059 40.3794C7.41269 40.7377 8.42543 40.6697 9.3945 40.6759C19.582 40.6604 29.7694 40.6821 39.9535 40.6635C41.5295 40.6697 43.0385 39.7618 43.6958 38.4492C44.2223 37.4641 44.0714 36.3399 44.0915 35.2806C44.0982 30.7593 44.068 26.2381 44.1049 21.7168C44.0781 20.7007 45.1545 19.8452 46.2409 19.978C47.3074 20.0429 48.1054 21.0065 47.9847 21.9731C47.9847 27.0256 48.0082 32.078 47.9747 37.1336C47.9277 40.8735 44.3262 44.1688 40.272 44.2305C29.538 44.2676 18.8006 44.2398 8.06662 44.2429C4.96141 44.2738 1.95347 42.4887 0.709375 39.8668C0.122542 38.7272 -0.0182981 37.4517 0.00182187 36.204C0.0286486 27.7575 -0.0182983 19.3048 0.0252951 10.8583C0.0856553 7.6248 2.77503 4.67239 6.18538 3.96516Z" fill="url(#paint0_linear_451_784)"/>
<path d="M16.9234 20.3522C16.9234 19.9349 17.2616 19.5966 17.6789 19.5966H18.0911C18.5084 19.5966 18.8466 19.9349 18.8466 20.3522V21.726C18.8466 22.1434 19.1849 22.4816 19.6022 22.4816H27.7076C28.125 22.4816 28.4632 22.1434 28.4632 21.726V20.3522C28.4632 19.9349 28.8015 19.5966 29.2188 19.5966H29.6309C30.0482 19.5966 30.3865 19.9349 30.3865 20.3522V23.6493C30.3865 24.0666 30.7249 24.4049 31.1421 24.4049H31.5543C31.9716 24.4049 32.3098 24.0666 32.3098 23.6493V18.4289C32.3098 18.0116 31.9716 17.6734 31.5543 17.6734H26.8968C26.5787 17.6734 26.3026 17.4687 26.1425 17.1938C25.6413 16.3337 24.7175 15.75 23.6549 15.75C22.5923 15.75 21.6686 16.3337 21.1673 17.1938C21.0073 17.4687 20.7311 17.6734 20.413 17.6734H15.7556C15.3382 17.6734 15 18.0116 15 18.4289V34.2275C15 34.6449 15.3382 34.9832 15.7556 34.9832H20.976C21.3934 34.9832 21.7316 34.6449 21.7316 34.2275V33.8155C21.7316 33.3982 21.3934 33.0599 20.976 33.0599H17.6789C17.2616 33.0599 16.9234 32.7216 16.9234 32.3043V20.3522ZM23.6549 17.6734C24.1838 17.6734 24.6166 18.1061 24.6166 18.635C24.6166 19.1639 24.1838 19.5966 23.6549 19.5966C23.1259 19.5966 22.6933 19.1639 22.6933 18.635C22.6933 18.1061 23.1259 17.6734 23.6549 17.6734Z" fill="url(#paint1_linear_451_784)" stroke="url(#paint2_linear_451_784)"/>
<path d="M31.6366 32.9636C32.0213 32.2904 32.3097 31.5211 32.3097 30.6556C32.3097 28.2515 30.3864 26.3281 27.9823 26.3281C25.5781 26.3281 23.6548 28.2515 23.6548 30.6556C23.6548 33.0597 25.5781 34.983 27.9823 34.983C28.8478 34.983 29.6171 34.6946 30.2903 34.3099L32.6196 36.6392C32.7671 36.7868 33.0064 36.7868 33.1538 36.6392L33.9659 35.8272C34.1135 35.6797 34.1135 35.4405 33.9659 35.2929L31.6366 32.9636ZM27.9823 33.0597C26.6359 33.0597 25.5781 32.0019 25.5781 30.6556C25.5781 29.3093 26.6359 28.2515 27.9823 28.2515C29.3286 28.2515 30.3864 29.3093 30.3864 30.6556C30.3864 32.0019 29.3286 33.0597 27.9823 33.0597Z" fill="url(#paint3_linear_451_784)" stroke="url(#paint4_linear_451_784)"/>
</g>
<defs>
<linearGradient id="paint0_linear_451_784" x1="39.3135" y1="3.75" x2="7.66515" y2="49.5472" gradientUnits="userSpaceOnUse">
<stop stop-color="#DE00C0"/>
<stop offset="1" stop-color="#8720FF"/>
</linearGradient>
<linearGradient id="paint1_linear_451_784" x1="29.1773" y1="15.75" x2="13.1809" y2="33.3278" gradientUnits="userSpaceOnUse">
<stop stop-color="#DE00C0"/>
<stop offset="1" stop-color="#8720FF"/>
</linearGradient>
<linearGradient id="paint2_linear_451_784" x1="29.1773" y1="15.75" x2="13.1809" y2="33.3278" gradientUnits="userSpaceOnUse">
<stop stop-color="#DE00C0"/>
<stop offset="1" stop-color="#8720FF"/>
</linearGradient>
<linearGradient id="paint3_linear_451_784" x1="32.1905" y1="26.3281" x2="23.6548" y2="36.75" gradientUnits="userSpaceOnUse">
<stop stop-color="#DE00C0"/>
<stop offset="1" stop-color="#8720FF"/>
</linearGradient>
<linearGradient id="paint4_linear_451_784" x1="32.1905" y1="26.3281" x2="23.6548" y2="36.75" gradientUnits="userSpaceOnUse">
<stop stop-color="#DE00C0"/>
<stop offset="1" stop-color="#8720FF"/>
</linearGradient>
<clipPath id="clip0_451_784">
<rect width="48" height="48" fill="white"/>
</clipPath>
</defs>
</svg>
