<svg width="48" height="48" viewBox="0 0 48 48" fill="none" xmlns="http://www.w3.org/2000/svg">
<g clip-path="url(#clip0_451_777)">
<path d="M6.18538 3.96516C8.1303 3.60074 10.1289 3.8231 12.0973 3.76442C14.1629 3.8231 16.4265 3.46177 18.2775 4.52723C20.0414 5.55564 21.2016 7.22641 22.7776 8.46172C23.3578 8.87557 24.109 9.03 24.8366 9.01763C31.8887 9.01763 38.9407 9.02692 45.9928 9.06705C47.2067 8.97127 48.2563 10.1294 47.9445 11.2103C47.7734 12.0472 46.8915 12.668 45.9727 12.6125C38.81 12.6217 31.6472 12.5877 24.4845 12.5816C22.8448 12.5723 21.2083 12.0133 19.991 10.9972C18.5022 9.88237 17.5129 8.17147 15.7525 7.40863C13.3112 7.2295 10.8465 7.38392 8.39858 7.33141C6.7152 7.2295 5.03183 8.1189 4.31421 9.52717C3.82127 10.4197 3.90846 11.4451 3.90176 12.4117C3.91852 20.5494 3.89504 28.6871 3.91181 36.8279C3.88499 38.3535 4.96811 39.8111 6.50059 40.3794C7.41269 40.7377 8.42543 40.6697 9.3945 40.6759C19.582 40.6604 29.7694 40.6821 39.9535 40.6635C41.5295 40.6697 43.0385 39.7618 43.6958 38.4492C44.2223 37.4641 44.0714 36.3399 44.0915 35.2806C44.0982 30.7593 44.068 26.2381 44.1049 21.7168C44.0781 20.7007 45.1545 19.8452 46.2409 19.978C47.3074 20.0429 48.1054 21.0065 47.9847 21.9731C47.9847 27.0256 48.0082 32.078 47.9747 37.1336C47.9277 40.8735 44.3262 44.1688 40.272 44.2305C29.538 44.2676 18.8006 44.2398 8.06662 44.2429C4.96141 44.2738 1.95347 42.4887 0.709375 39.8668C0.122542 38.7272 -0.0182981 37.4517 0.00182187 36.204C0.0286486 27.7575 -0.0182983 19.3048 0.0252951 10.8583C0.0856553 7.6248 2.77503 4.67239 6.18538 3.96516Z" fill="url(#paint0_linear_451_777)"/>
<path d="M24 17.25C22.124 17.25 20.6015 18.755 20.5262 20.6135C18.9577 21.2837 17.621 22.4008 16.6827 23.8254C15.7445 25.25 15.2462 26.9192 15.25 28.625C15.25 28.7737 15.243 28.94 15.25 29.1176C14.2131 29.7266 13.5 30.8432 13.5 32.125C13.5 34.0474 15.0776 35.625 17 35.625C17.5031 35.625 17.9888 35.5183 18.4219 35.324C19.9382 36.598 21.9157 37.375 24 37.375C26.0843 37.375 28.0618 36.598 29.5781 35.324C30.0257 35.5232 30.5102 35.6258 31 35.625C32.9224 35.625 34.5 34.0474 34.5 32.125C34.5 30.83 33.7781 29.6951 32.7238 29.0888C32.7369 28.9487 32.75 28.8088 32.75 28.625C32.754 26.9191 32.2558 25.2499 31.3175 23.8252C30.3793 22.4005 29.0425 21.2836 27.4738 20.6135C27.3976 18.755 25.8752 17.25 24 17.25ZM24 19C24.9765 19 25.75 19.7735 25.75 20.75C25.75 21.7265 24.9765 22.5 24 22.5C23.0235 22.5 22.25 21.7265 22.25 20.75C22.25 19.7735 23.0235 19 24 19ZM20.9113 22.3635C21.4975 23.4782 22.6613 24.25 24 24.25C25.3387 24.25 26.5025 23.4782 27.0887 22.3635C28.2635 22.9339 29.2535 23.824 29.9453 24.9315C30.6371 26.039 31.0027 27.3191 31 28.625C29.0777 28.625 27.5 30.2027 27.5 32.125C27.5 32.9081 27.7712 33.6178 28.2114 34.2032C26.9969 35.1176 25.5202 35.6162 24 35.625C22.4798 35.6163 21.0029 35.1177 19.7886 34.2032C20.2465 33.6068 20.4964 32.8769 20.5 32.125C20.5 30.2027 18.9224 28.625 17 28.625C17 25.895 18.5663 23.501 20.9113 22.3635ZM17 30.375C17.9765 30.375 18.75 31.1485 18.75 32.125C18.75 33.1015 17.9765 33.875 17 33.875C16.0235 33.875 15.25 33.1015 15.25 32.125C15.25 31.1485 16.0235 30.375 17 30.375ZM31 30.375C31.9765 30.375 32.75 31.1485 32.75 32.125C32.75 33.1015 31.9765 33.875 31 33.875C30.0235 33.875 29.25 33.1015 29.25 32.125C29.25 31.1485 30.0235 30.375 31 30.375Z" fill="url(#paint1_linear_451_777)" stroke="url(#paint2_linear_451_777)" stroke-width="2"/>
</g>
<defs>
<linearGradient id="paint0_linear_451_777" x1="24" y1="44.25" x2="24" y2="3.75" gradientUnits="userSpaceOnUse">
<stop stop-color="#5570FF"/>
<stop offset="1" stop-color="#4DD3FF"/>
</linearGradient>
<linearGradient id="paint1_linear_451_777" x1="24" y1="37.375" x2="24" y2="17.25" gradientUnits="userSpaceOnUse">
<stop stop-color="#5570FF"/>
<stop offset="1" stop-color="#4DD3FF"/>
</linearGradient>
<linearGradient id="paint2_linear_451_777" x1="24" y1="37.375" x2="24" y2="17.25" gradientUnits="userSpaceOnUse">
<stop stop-color="#5570FF"/>
<stop offset="1" stop-color="#4DD3FF"/>
</linearGradient>
<clipPath id="clip0_451_777">
<rect width="48" height="48" fill="white"/>
</clipPath>
</defs>
</svg>
