<svg width="48" height="48" viewBox="0 0 48 48" fill="none" xmlns="http://www.w3.org/2000/svg">
<g clip-path="url(#clip0_164_83)">
<path d="M6.20354 3.95905C8.13488 3.60079 10.1198 3.82625 12.0746 3.76448C14.0864 3.83551 16.2625 3.45872 18.0965 4.43468C19.9675 5.44153 21.151 7.1927 22.7773 8.46825C23.3607 8.8605 24.0917 9.0396 24.8126 9.018C31.7432 9.018 38.6738 9.018 45.6044 9.04582C46.5465 8.9439 47.606 9.3732 47.8843 10.2626C48.3672 11.4023 47.264 12.7242 45.953 12.6192C38.8078 12.6253 31.6593 12.5944 24.5141 12.5821C22.784 12.5852 21.0605 11.9644 19.8133 10.8556C18.7269 9.88897 17.7377 8.83267 16.6514 7.87215C16.1552 7.43669 15.4511 7.29771 14.7838 7.32859C12.4803 7.34713 10.1735 7.31315 7.86998 7.34404C5.70395 7.39345 3.83634 9.21877 3.90004 11.2139C3.90004 19.7536 3.89334 28.2932 3.89669 36.836C3.84305 38.8806 5.83806 40.7182 8.06108 40.6719C18.6833 40.678 29.3055 40.6781 39.9277 40.6688C42.1507 40.709 44.1491 38.8589 44.0753 36.8051C44.0821 31.9716 44.0787 27.1412 44.072 22.3078C44.0821 21.7426 44.062 21.1094 44.4911 20.6523C45.1852 19.7814 46.751 19.732 47.4988 20.5689C47.9883 21.026 47.9883 21.7024 47.9849 22.3015C47.9615 27.2555 48.0017 32.2094 47.9648 37.1634C47.9011 40.8974 44.3 44.1712 40.2597 44.2329C29.5268 44.2607 18.794 44.2484 8.06108 44.2391C4.95959 44.27 1.95197 42.4879 0.711367 39.8658C0.11789 38.723 -0.009522 37.4383 0.000536896 36.1905C0.0273607 27.7466 -0.0262871 19.3027 0.0206546 10.8618C0.0843608 7.61887 2.78015 4.66014 6.20354 3.95905Z" fill="url(#paint0_linear_164_83)"/>
<path fill-rule="evenodd" clip-rule="evenodd" d="M33.5 33.5H14.5C13.672 33.5 13 34.172 13 35C13 35.828 13.672 36.5 14.5 36.5H33.5C34.328 36.5 35 35.828 35 35C35 34.172 34.328 33.5 33.5 33.5Z" fill="url(#paint1_linear_164_83)"/>
<path fill-rule="evenodd" clip-rule="evenodd" d="M33.5 36.5V33.5C33.5 32.672 32.828 32 32 32C31.172 32 30.5 32.672 30.5 33.5V36.5C30.5 37.328 31.172 38 32 38C32.828 38 33.5 37.328 33.5 36.5Z" fill="url(#paint2_linear_164_83)"/>
<path d="M29.4551 24C29.4551 22.5215 27.9373 21.5246 24.9046 19.5309C21.8318 17.512 20.2939 16.5011 19.1484 17.2432C18 17.9852 18 19.9873 18 24C18 28.0098 18 30.0148 19.1456 30.7568C20.2911 31.4989 21.8318 30.488 24.9046 28.4691C27.9401 26.4754 29.4551 25.4785 29.4551 24Z" fill="url(#paint3_linear_164_83)"/>
</g>
<defs>
<linearGradient id="paint0_linear_164_83" x1="47.8578" y1="4.00674" x2="8.19539" y2="50.6227" gradientUnits="userSpaceOnUse">
<stop stop-color="#FE7970"/>
<stop offset="1" stop-color="#DC3282"/>
</linearGradient>
<linearGradient id="paint1_linear_164_83" x1="34.9348" y1="33.519" x2="34.1314" y2="39.3613" gradientUnits="userSpaceOnUse">
<stop stop-color="#FE7970"/>
<stop offset="1" stop-color="#DC3282"/>
</linearGradient>
<linearGradient id="paint2_linear_164_83" x1="33.4911" y1="32.038" x2="28.7528" y2="34.3874" gradientUnits="userSpaceOnUse">
<stop stop-color="#FE7970"/>
<stop offset="1" stop-color="#DC3282"/>
</linearGradient>
<linearGradient id="paint3_linear_164_83" x1="29.4211" y1="17.0887" x2="15.8292" y2="28.1173" gradientUnits="userSpaceOnUse">
<stop stop-color="#FE7970"/>
<stop offset="1" stop-color="#DC3282"/>
</linearGradient>
<clipPath id="clip0_164_83">
<rect width="48" height="48" fill="white"/>
</clipPath>
</defs>
</svg>
