<svg width="48" height="48" viewBox="0 0 48 48" fill="none" xmlns="http://www.w3.org/2000/svg">
<g clip-path="url(#clip0_451_914)">
<path d="M6.19485 3.96387C8.12955 3.60548 10.1145 3.82175 12.0727 3.76614C14.0744 3.82793 16.2304 3.47263 18.0644 4.41803C19.9522 5.41286 21.1257 7.18625 22.7687 8.45295C23.342 8.88547 24.0964 9.02145 24.8207 9.01837C31.7513 9.01522 38.6819 9.0369 45.6126 9.05542C46.5547 8.96272 47.611 9.37672 47.8859 10.2696C48.362 11.4034 47.2757 12.7196 45.9713 12.6207C38.92 12.6331 31.8687 12.5867 24.8174 12.5929C23.5466 12.6052 22.259 12.3674 21.1525 11.7742C19.1307 10.7114 17.9806 8.68777 16.0627 7.5168C14.3326 7.12137 12.5018 7.43341 10.7281 7.33764C9.03817 7.39325 7.12698 7.04413 5.67178 8.05132C4.5653 8.76502 3.888 9.98227 3.90812 11.2304C3.90812 19.7699 3.89806 28.3125 3.90812 36.8519C3.85782 38.9002 5.85285 40.7293 8.07255 40.6829C18.6881 40.6922 29.307 40.6922 39.9259 40.6829C42.1456 40.7231 44.144 38.891 44.0803 36.8365C44.0936 31.9921 44.0836 27.1477 44.0769 22.3002C44.0769 21.673 44.1071 20.9532 44.6536 20.5021C45.398 19.7761 46.7995 19.807 47.497 20.5732C48.067 21.1108 47.9664 21.914 47.9932 22.603C47.9596 27.4504 48.0133 32.3011 47.9664 37.1485C47.9261 40.8868 44.325 44.1834 40.278 44.2452C29.8736 44.2946 19.466 44.2421 9.06165 44.2699C7.77413 44.2761 6.45638 44.2328 5.24596 43.791C2.61051 42.9043 0.561835 40.6613 0.129299 38.1001C-0.051762 36.9601 0.0119445 35.8076 0.00859154 34.6615C0.00859154 27.4567 0.00859207 20.2519 0.00523909 13.0471C0.00859207 11.5549 -0.0987038 9.99772 0.514893 8.57962C1.4202 6.29647 3.62982 4.51381 6.19485 3.96387Z" fill="url(#paint0_linear_451_914)"/>
<path d="M12.7287 19.3139C17.2397 19.1475 21.7625 19.18 26.2814 19.1041C28.0167 19.0101 29.7598 19.8746 30.5842 21.2927C31.2203 22.2875 31.1457 23.4813 31.1614 24.592C32.5473 23.6116 33.8704 22.5372 35.3662 21.7051C36.1318 21.2275 36.8424 22.0451 36.7246 22.7289C36.7403 25.7278 36.7835 28.7304 36.7011 31.7257C36.7443 32.3769 36.0179 32.9376 35.3623 32.5288C33.8665 31.6859 32.5395 30.6115 31.1497 29.6311C31.4048 31.5882 30.6745 33.8311 28.5859 34.6957C26.7604 35.4698 24.6796 35.0176 22.744 35.1334C20.3963 35.1153 18.0446 35.166 15.6968 35.1189C13.3529 35.1117 11.2564 33.1836 11.284 31.0167C11.2642 29.5696 11.1937 28.119 11.3428 26.6792C11.6647 25.2069 14.1499 25.0513 14.7152 26.4441C15.1039 28.043 14.6603 29.7071 14.9744 31.3169C15.3277 31.9572 16.2268 31.8053 16.8629 31.8451C20.0114 31.8089 23.1641 31.8631 26.3127 31.8234C27.0469 31.9102 27.6359 31.3531 27.5338 30.6802C27.5692 28.3831 27.5377 26.086 27.5495 23.7889C27.5966 23.2389 27.4003 22.4069 26.6386 22.4431C21.9352 22.3454 17.2201 22.6565 12.5245 22.4901C10.7815 22.0994 10.9423 19.4839 12.7287 19.3139Z" fill="url(#paint1_linear_451_914)"/>
</g>
<defs>
<linearGradient id="paint0_linear_451_914" x1="-0.00703078" y1="23.4098" x2="47.9895" y2="23.4098" gradientUnits="userSpaceOnUse">
<stop stop-color="#FD3A84"/>
<stop offset="1" stop-color="#FFA68D"/>
</linearGradient>
<linearGradient id="paint1_linear_451_914" x1="11.2462" y1="26.8912" x2="36.7444" y2="26.8912" gradientUnits="userSpaceOnUse">
<stop stop-color="#FD3A84"/>
<stop offset="1" stop-color="#FFA68D"/>
</linearGradient>
<clipPath id="clip0_451_914">
<rect width="48" height="48" fill="white"/>
</clipPath>
</defs>
</svg>
