<svg width="48" height="48" viewBox="0 0 48 48" fill="none" xmlns="http://www.w3.org/2000/svg">
<g clip-path="url(#clip0_451_891)">
<path d="M6.18538 3.96516C8.1303 3.60074 10.1289 3.8231 12.0973 3.76442C14.1629 3.8231 16.4265 3.46177 18.2775 4.52723C20.0414 5.55564 21.2016 7.22641 22.7776 8.46172C23.3578 8.87557 24.109 9.03 24.8366 9.01763C31.8887 9.01763 38.9407 9.02692 45.9928 9.06705C47.2067 8.97127 48.2563 10.1294 47.9445 11.2103C47.7734 12.0472 46.8915 12.668 45.9727 12.6125C38.81 12.6217 31.6472 12.5877 24.4845 12.5816C22.8448 12.5723 21.2083 12.0133 19.991 10.9972C18.5022 9.88237 17.5129 8.17147 15.7525 7.40863C13.3112 7.2295 10.8465 7.38392 8.39858 7.33141C6.7152 7.2295 5.03183 8.1189 4.31421 9.52717C3.82127 10.4197 3.90846 11.4451 3.90176 12.4117C3.91852 20.5494 3.89504 28.6871 3.91181 36.8279C3.88499 38.3535 4.96811 39.8111 6.50059 40.3794C7.41269 40.7377 8.42543 40.6697 9.3945 40.6759C19.582 40.6604 29.7694 40.6821 39.9535 40.6635C41.5295 40.6697 43.0385 39.7618 43.6958 38.4492C44.2223 37.4641 44.0714 36.3399 44.0915 35.2806C44.0982 30.7593 44.068 26.2381 44.1049 21.7168C44.0781 20.7007 45.1545 19.8452 46.2409 19.978C47.3074 20.0429 48.1054 21.0065 47.9847 21.9731C47.9847 27.0256 48.0082 32.078 47.9747 37.1336C47.9277 40.8735 44.3262 44.1688 40.272 44.2305C29.538 44.2676 18.8006 44.2398 8.06662 44.2429C4.96141 44.2738 1.95347 42.4887 0.709375 39.8668C0.122542 38.7272 -0.0182981 37.4517 0.00182187 36.204C0.0286486 27.7575 -0.0182983 19.3048 0.0252951 10.8583C0.0856553 7.6248 2.77503 4.67239 6.18538 3.96516Z" fill="url(#paint0_linear_451_891)"/>
<path d="M21.6579 16.2109C23.9549 15.76 26.4263 15.9639 28.5557 16.8965C29.5751 17.3042 29.6724 18.7464 28.7502 19.2961C28.1097 19.7718 27.2982 19.4475 26.6242 19.2313C23.8476 18.2616 20.5178 18.9811 18.4555 20.9391C16.2892 22.9156 15.5951 26.8682 16.8325 29.4469C18.1369 32.3932 21.7518 34.2709 25.1688 33.7366C28.7536 33.295 31.7213 30.287 31.7783 26.9424C31.8923 25.7595 31.4329 24.6447 31.0841 23.5297C30.732 22.4736 32.1371 21.4884 33.1766 21.9825C33.9244 22.2543 34.1222 23.048 34.367 23.6718C35.6011 27.177 34.5079 31.2598 31.6106 33.8076C28.0561 37.0874 21.9866 37.5785 17.872 34.904C13.8346 32.4766 12.0707 26.6586 13.7977 22.5141C15.0284 19.361 18.1 16.9027 21.6579 16.2109Z" fill="url(#paint1_linear_451_891)"/>
<path d="M22.56 21.9481C22.7881 20.6757 24.9409 20.4997 25.4338 21.6949C25.7423 22.7943 25.5176 23.9586 25.588 25.0827C25.5244 25.9104 25.7893 26.8585 25.2326 27.5812C24.2032 28.3471 22.9591 28.8134 21.8424 29.465C21.1214 29.8202 20.3401 30.3946 19.4749 30.0858C18.469 29.7461 18.1705 28.3718 19.0088 27.7418C20.0953 27.0284 21.3126 26.5034 22.4628 25.8857C22.5634 24.5762 22.4326 23.2575 22.56 21.9481Z" fill="url(#paint2_linear_451_891)"/>
</g>
<defs>
<linearGradient id="paint0_linear_451_891" x1="24" y1="44.25" x2="24" y2="3.75" gradientUnits="userSpaceOnUse">
<stop stop-color="#FDA700"/>
<stop offset="1" stop-color="#FFDE00"/>
</linearGradient>
<linearGradient id="paint1_linear_451_891" x1="24.0026" y1="36.6282" x2="24.0026" y2="15.981" gradientUnits="userSpaceOnUse">
<stop stop-color="#FDA700"/>
<stop offset="1" stop-color="#FFDE00"/>
</linearGradient>
<linearGradient id="paint2_linear_451_891" x1="22.0614" y1="30.1739" x2="22.0614" y2="20.8892" gradientUnits="userSpaceOnUse">
<stop stop-color="#FDA700"/>
<stop offset="1" stop-color="#FFDE00"/>
</linearGradient>
<clipPath id="clip0_451_891">
<rect width="48" height="48" fill="white"/>
</clipPath>
</defs>
</svg>
