<svg width="48" height="48" viewBox="0 0 48 48" fill="none" xmlns="http://www.w3.org/2000/svg">
<g clip-path="url(#clip0_164_76)">
<path fill-rule="evenodd" clip-rule="evenodd" d="M10.2049 3.76154C8.8599 3.7409 7.51448 3.72025 6.19378 3.96389C2.65583 4.68645 -0.0705605 7.8237 0.00656997 11.1741C0.00656997 13.6452 0.00492762 16.1165 0.0032852 18.5879C-0.000821129 24.7669 -0.00492792 30.9466 0.0166307 37.1247C0.0535192 40.9845 3.87316 44.3256 8.04825 44.2454C12.0085 44.2419 15.9692 44.2444 19.9301 44.2469C26.712 44.2511 33.4943 44.2553 40.2754 44.2299C44.3264 44.165 47.9247 40.8764 47.9717 37.137C48.0023 33.3009 47.996 29.4647 47.9898 25.6286C47.9879 24.4191 47.9859 23.2097 47.9851 22.0002C48.0991 21.0461 47.358 20.0765 46.2949 19.9838C45.1916 19.814 44.0782 20.6848 44.1084 21.7193C44.082 24.6827 44.0859 27.6461 44.0899 30.6087C44.0919 32.1593 44.094 33.7097 44.0917 35.2596C44.0893 35.4537 44.0919 35.6504 44.0944 35.8483C44.1066 36.8089 44.1192 37.7975 43.5853 38.6501C42.8274 39.9624 41.2177 40.7529 39.6148 40.6696C34.8295 40.664 30.0435 40.6647 25.2575 40.6655C19.5185 40.6664 13.7795 40.6673 8.04158 40.6572C5.8316 40.6881 3.84968 38.857 3.9134 36.8159C3.90669 28.2779 3.90669 19.7368 3.91004 11.1957C3.84297 9.1392 5.85172 7.28954 8.08515 7.34203C8.9937 7.35517 9.90473 7.34463 10.8161 7.33407C12.4748 7.31487 14.1344 7.29567 15.7814 7.41923C16.749 7.81545 17.4506 8.54828 18.1502 9.27908C18.5248 9.67035 18.8987 10.061 19.3127 10.3991C20.6205 11.7454 22.5186 12.5976 24.4938 12.5822C29.2288 12.5925 33.9638 12.6002 38.6978 12.6077C41.0114 12.6115 43.3247 12.6152 45.6377 12.6192C46.5565 12.7088 47.576 12.3043 47.8677 11.4489C48.3842 10.328 47.3111 8.9601 45.9931 9.07125C38.934 9.0342 31.8748 9.01568 24.8158 9.01568C24.0914 9.0249 23.3369 8.8767 22.76 8.44748C22.1236 7.9491 21.555 7.37913 20.9865 6.80921C20.153 5.97375 19.3197 5.13841 18.2731 4.52897C16.8366 3.70558 15.1488 3.73318 13.4996 3.76015C13.0274 3.76788 12.5584 3.77555 12.0993 3.76317C11.4697 3.78095 10.8373 3.77124 10.2049 3.76154Z" fill="url(#paint0_linear_164_76)"/>
<path d="M27.1171 17.4625C27.4132 17.7586 27.5796 18.1602 27.5796 18.579C27.5796 20.0317 28.7586 21.2108 30.2113 21.2108C30.6301 21.2108 31.0317 21.3771 31.3278 21.6732C31.624 21.9694 31.7903 22.371 31.7903 22.7898C31.7903 23.2086 31.624 23.6102 31.3278 23.9063C31.0317 24.2025 30.6301 24.3688 30.2113 24.3688C29.2639 24.3688 28.3691 24.1414 27.5796 23.7372V31.2113C27.5793 32.473 27.167 33.7 26.4053 34.7058C25.6435 35.7116 24.5741 36.441 23.3597 36.7831C22.1453 37.1252 20.8524 37.0613 19.6777 36.601C18.503 36.1408 17.5108 35.3094 16.852 34.2334C16.1932 33.1574 15.9039 31.8956 16.0281 30.6401C16.1524 29.3845 16.6833 28.204 17.5402 27.2779C18.3971 26.3519 19.5331 25.7311 20.7752 25.51C22.0174 25.2889 23.2977 25.4796 24.4215 26.0531V18.579C24.4215 18.1602 24.5879 17.7586 24.884 17.4625C25.1801 17.1664 25.5818 17 26.0005 17C26.4193 17 26.821 17.1664 27.1171 17.4625Z" fill="url(#paint1_linear_164_76)"/>
</g>
<defs>
<linearGradient id="paint0_linear_164_76" x1="5.625" y1="17.625" x2="46.5" y2="24" gradientUnits="userSpaceOnUse">
<stop stop-color="#A93AFF"/>
<stop offset="1" stop-color="#FF81FF"/>
</linearGradient>
<linearGradient id="paint1_linear_164_76" x1="17.8504" y1="23.8518" x2="31.4769" y2="25.2676" gradientUnits="userSpaceOnUse">
<stop stop-color="#A93AFF"/>
<stop offset="1" stop-color="#FF81FF"/>
</linearGradient>
<clipPath id="clip0_164_76">
<rect width="48" height="48" fill="white"/>
</clipPath>
</defs>
</svg>
