<svg width="48" height="48" viewBox="0 0 48 48" fill="none" xmlns="http://www.w3.org/2000/svg">
<g clip-path="url(#clip0_451_818)">
<path d="M6.20354 3.95905C8.13488 3.60079 10.1198 3.82625 12.0746 3.76448C14.0864 3.83551 16.2625 3.45872 18.0965 4.43468C19.9675 5.44153 21.151 7.1927 22.7773 8.46825C23.3607 8.8605 24.0917 9.0396 24.8126 9.018C31.7432 9.018 38.6738 9.018 45.6044 9.04582C46.5465 8.9439 47.606 9.3732 47.8843 10.2626C48.3672 11.4023 47.264 12.7242 45.953 12.6192C38.8078 12.6253 31.6593 12.5944 24.5141 12.5821C22.784 12.5852 21.0605 11.9644 19.8133 10.8556C18.7269 9.88897 17.7377 8.83267 16.6514 7.87215C16.1552 7.43669 15.4511 7.29771 14.7838 7.32859C12.4803 7.34713 10.1735 7.31315 7.86998 7.34404C5.70395 7.39345 3.83634 9.21877 3.90004 11.2139C3.90004 19.7536 3.89334 28.2932 3.89669 36.836C3.84305 38.8806 5.83806 40.7182 8.06108 40.6719C18.6833 40.678 29.3055 40.6781 39.9277 40.6688C42.1507 40.709 44.1491 38.8589 44.0753 36.8051C44.0821 31.9716 44.0787 27.1412 44.072 22.3078C44.0821 21.7426 44.062 21.1094 44.4911 20.6523C45.1852 19.7814 46.751 19.732 47.4988 20.5689C47.9883 21.026 47.9883 21.7024 47.9849 22.3015C47.9615 27.2555 48.0017 32.2094 47.9648 37.1634C47.9011 40.8974 44.3 44.1712 40.2597 44.2329C29.5268 44.2607 18.794 44.2484 8.06108 44.2391C4.95959 44.27 1.95197 42.4879 0.711367 39.8658C0.11789 38.723 -0.009522 37.4383 0.000536895 36.1905C0.0273607 27.7466 -0.0262871 19.3027 0.0206546 10.8618C0.0843608 7.61887 2.78015 4.66014 6.20354 3.95905Z" fill="url(#paint0_linear_451_818)"/>
<path d="M15 36.75C15 37.1642 15.3358 37.5 15.75 37.5H31.5441C31.9583 37.5 32.2941 37.1642 32.2941 36.75V35.7794C32.2941 35.3652 31.9583 35.0294 31.5441 35.0294H15.75C15.3358 35.0294 15 35.3652 15 35.7794V36.75ZM31.0138 25.1921C31.4863 24.7196 31.1516 23.9118 30.4834 23.9118H28.103C27.6887 23.9118 27.353 23.576 27.353 23.1618V17.25C27.353 16.8358 27.0172 16.5 26.603 16.5H20.6911C20.2769 16.5 19.9411 16.8358 19.9411 17.25V23.1618C19.9411 23.576 19.6054 23.9118 19.1911 23.9118H16.8106C16.1425 23.9118 15.8078 24.7196 16.2803 25.1921L23.1167 32.0285C23.4096 32.3214 23.8845 32.3214 24.1774 32.0285L31.0138 25.1921Z" fill="url(#paint1_linear_451_818)"/>
</g>
<defs>
<linearGradient id="paint0_linear_451_818" x1="24" y1="44.25" x2="24" y2="3.75" gradientUnits="userSpaceOnUse">
<stop stop-color="#02AA93"/>
<stop offset="1" stop-color="#67FF80"/>
</linearGradient>
<linearGradient id="paint1_linear_451_818" x1="23.647" y1="37.5" x2="23.647" y2="16.5" gradientUnits="userSpaceOnUse">
<stop stop-color="#02AA93"/>
<stop offset="0.485147" stop-color="#33D38A"/>
<stop offset="1" stop-color="#67FF80"/>
</linearGradient>
<clipPath id="clip0_451_818">
<rect width="48" height="48" fill="white"/>
</clipPath>
</defs>
</svg>
