<svg width="48" height="48" viewBox="0 0 48 48" fill="none" xmlns="http://www.w3.org/2000/svg">
<g clip-path="url(#clip0_451_882)">
<path d="M6.18538 3.96516C8.1303 3.60074 10.1289 3.8231 12.0973 3.76442C14.1629 3.8231 16.4265 3.46177 18.2775 4.52723C20.0414 5.55564 21.2016 7.22641 22.7776 8.46172C23.3578 8.87557 24.109 9.03 24.8366 9.01763C31.8887 9.01763 38.9407 9.02692 45.9928 9.06705C47.2067 8.97127 48.2563 10.1294 47.9445 11.2103C47.7734 12.0472 46.8915 12.668 45.9727 12.6125C38.81 12.6217 31.6472 12.5877 24.4845 12.5816C22.8448 12.5723 21.2083 12.0133 19.991 10.9972C18.5022 9.88237 17.5129 8.17147 15.7525 7.40863C13.3112 7.2295 10.8465 7.38392 8.39858 7.33141C6.7152 7.2295 5.03183 8.1189 4.31421 9.52717C3.82127 10.4197 3.90846 11.4451 3.90176 12.4117C3.91852 20.5494 3.89504 28.6871 3.91181 36.8279C3.88499 38.3535 4.96811 39.8111 6.50059 40.3794C7.41269 40.7377 8.42543 40.6697 9.3945 40.6759C19.582 40.6604 29.7694 40.6821 39.9535 40.6635C41.5295 40.6697 43.0385 39.7618 43.6958 38.4492C44.2223 37.4641 44.0714 36.3399 44.0915 35.2806C44.0982 30.7593 44.068 26.2381 44.1049 21.7168C44.0781 20.7007 45.1545 19.8452 46.2409 19.978C47.3074 20.0429 48.1054 21.0065 47.9847 21.9731C47.9847 27.0256 48.0082 32.078 47.9747 37.1336C47.9277 40.8735 44.3262 44.1688 40.272 44.2305C29.538 44.2676 18.8006 44.2398 8.06662 44.2429C4.96141 44.2738 1.95347 42.4887 0.709375 39.8668C0.122542 38.7272 -0.0182981 37.4517 0.00182187 36.204C0.0286486 27.7575 -0.0182983 19.3048 0.0252951 10.8583C0.0856553 7.6248 2.77503 4.67239 6.18538 3.96516Z" fill="url(#paint0_linear_451_882)"/>
<path d="M24 16.5C18.201 16.5 13.5 21.201 13.5 27C13.5 32.799 18.201 37.5 24 37.5C29.799 37.5 34.5 32.799 34.5 27C34.5 21.201 29.799 16.5 24 16.5ZM24 18.25C28.8325 18.25 32.7499 22.1675 32.7499 27C32.7499 31.8325 28.8325 35.7499 24 35.7499C19.1675 35.7499 15.25 31.8325 15.25 27C15.25 22.1675 19.1675 18.25 24 18.25ZM23 20.75C22.5858 20.75 22.25 21.0858 22.25 21.5V27V28C22.25 28.4142 22.5858 28.75 23 28.75H29.5001C29.9142 28.75 30.2501 28.4142 30.2501 28V27.75C30.2501 27.3358 29.9142 27 29.5001 27H24.75C24.3358 27 24 26.6642 24 26.25V21.5C24 21.0858 23.6642 20.75 23.25 20.75H23Z" fill="url(#paint1_linear_451_882)" stroke="url(#paint2_linear_451_882)" stroke-width="2"/>
</g>
<defs>
<linearGradient id="paint0_linear_451_882" x1="24" y1="44.25" x2="24" y2="3.75" gradientUnits="userSpaceOnUse">
<stop stop-color="#FDA700"/>
<stop offset="1" stop-color="#FFDE00"/>
</linearGradient>
<linearGradient id="paint1_linear_451_882" x1="24" y1="37.5" x2="24" y2="16.5" gradientUnits="userSpaceOnUse">
<stop stop-color="#FDA700"/>
<stop offset="1" stop-color="#FFDE00"/>
</linearGradient>
<linearGradient id="paint2_linear_451_882" x1="24" y1="37.5" x2="24" y2="16.5" gradientUnits="userSpaceOnUse">
<stop stop-color="#FDA700"/>
<stop offset="1" stop-color="#FFDE00"/>
</linearGradient>
<clipPath id="clip0_451_882">
<rect width="48" height="48" fill="white"/>
</clipPath>
</defs>
</svg>
