<svg width="48" height="48" viewBox="0 0 48 48" fill="none" xmlns="http://www.w3.org/2000/svg">
<path fill-rule="evenodd" clip-rule="evenodd" d="M5.20095 2.2503C2.67873 2.25027 0 2.25074 0 4.96005V11.1536C0 13.8629 4.25805 13.8629 4.25805 11.1351V7.26409C4.25805 6.50805 5.01679 6.50805 5.40386 6.50805C6.55406 6.50805 7.73381 6.50767 8.92777 6.50726C11.1058 6.50655 13.3312 6.5058 15.5108 6.50741C15.9741 6.50775 16.4125 6.71595 16.7081 7.07269C17.0931 7.53727 17.4847 8.0049 17.8767 8.47305C18.5259 9.24836 19.1763 10.0251 19.7996 10.7916C20.3824 11.5095 21.1184 12.355 22.049 12.3145C28.8877 12.3148 35.7264 12.3149 42.5651 12.3146C43.4201 12.3145 44.1135 13.0078 44.1139 13.863C44.1154 16.4342 44.1206 19.0002 44.1259 21.5661C44.1379 27.7486 44.1503 33.9311 44.1135 40.1854C44.109 40.9601 43.7111 41.3471 43.1456 41.3471H5.78655C4.93313 41.3471 4.24061 40.6567 4.23863 39.8029C4.23233 37.0813 4.22947 34.2822 4.2282 31.5003C4.22801 31.0859 4.56382 30.75 4.97816 30.75H23.25C24.2855 30.75 25.125 29.9105 25.125 28.875V28.5C25.125 27.4645 24.2855 26.625 23.25 26.625H4.97711C4.56292 26.625 4.22715 26.2892 4.22715 25.875C4.22715 25.4822 4.22715 25.0911 4.22715 24.702C4.22715 23.6173 4.72444 22.3886 6.68576 22.3886C11.922 22.3683 16.8126 22.3715 21.7393 22.3748C25.737 22.3774 29.7584 22.3801 34.0073 22.3702C35.2342 22.3702 36.0084 21.4113 36.0084 20.25C36.0084 19.0887 35.2741 18.1188 34.0336 18.1213C27.7121 18.1342 19.9949 18.1296 12.7847 18.1253C9.36311 18.1233 6.05569 18.1213 3.06583 18.1213C1.90453 18.1213 3.87623e-06 18.5085 3.87623e-06 20.831L7.75245e-06 25.0891L3.87623e-06 43.2825C3.87623e-06 44.6374 1.35485 45.5861 2.54155 45.5865C13.1884 45.5865 31.6265 45.5977 39.9034 45.6026C42.2895 45.6041 43.8311 45.6052 44.0981 45.6052C45.2906 45.6052 47.9993 45.6052 47.9993 41.7341C47.9993 41.2162 47.9993 41.0557 47.9996 40.9301C47.9996 40.7467 47.9996 40.6387 47.9993 39.6049C48 30.702 48 21.6638 48 12.702C48 9.99195 46.8386 8.05646 44.0258 8.05646H23.5131C23.074 8.05646 22.6549 7.87069 22.3648 7.54106C21.6157 6.68985 20.8638 5.79484 20.1213 4.91096C19.6832 4.38952 19.2483 3.87191 18.8193 3.36948C18.2827 2.74729 17.5707 2.2245 16.7659 2.25764C14.6454 2.24751 12.5248 2.24965 10.4043 2.25178C8.66989 2.25352 6.9354 2.25527 5.20095 2.2503Z" fill="url(#paint0_linear_451_807)"/>
<defs>
<linearGradient id="paint0_linear_451_807" x1="8.03959e-07" y1="45.6052" x2="55.9035" y2="18.6289" gradientUnits="userSpaceOnUse">
<stop stop-color="#0357D1"/>
<stop offset="1" stop-color="#27CDFC"/>
</linearGradient>
</defs>
</svg>
