<svg width="48" height="48" viewBox="0 0 48 48" fill="none" xmlns="http://www.w3.org/2000/svg">
<g clip-path="url(#clip0_451_899)">
<path d="M6.19378 3.96389C8.13548 3.60569 10.1308 3.81875 12.0993 3.76317C14.1617 3.81875 16.4253 3.46982 18.2731 4.52897C20.0337 5.55414 21.1907 7.21851 22.76 8.44748C23.3369 8.8767 24.0914 9.0249 24.8158 9.01568C31.8748 9.01568 38.934 9.0342 45.9931 9.07125C47.3111 8.9601 48.3842 10.328 47.8677 11.4489C47.576 12.3043 46.5565 12.7088 45.6377 12.6192C38.5919 12.6069 31.5429 12.5976 24.4938 12.5822C22.5186 12.5976 20.6205 11.7454 19.3127 10.3991C18.1256 9.42945 17.267 8.02755 15.7814 7.41923C13.2294 7.22777 10.6472 7.37909 8.08515 7.34203C5.85172 7.28954 3.84297 9.1392 3.91004 11.1957C3.90669 19.7368 3.90669 28.2778 3.9134 36.8158C3.84968 38.857 5.8316 40.6881 8.04158 40.6572C18.5648 40.6757 29.0914 40.6572 39.6148 40.6696C41.2177 40.7529 42.8274 39.9624 43.5853 38.6501C44.2292 37.6218 44.0782 36.3959 44.0917 35.2596C44.0983 30.7482 44.0682 26.2337 44.1084 21.7192C44.0782 20.6848 45.1916 19.814 46.2949 19.9838C47.358 20.0764 48.0991 21.046 47.9851 22.0002C47.9884 27.0458 48.0119 32.0914 47.9717 37.137C47.9247 40.8764 44.3264 44.165 40.2754 44.2299C29.5341 44.27 18.7895 44.2361 8.04825 44.2454C3.87316 44.3256 0.0535192 40.9845 0.0166307 37.1247C-0.0135508 28.4755 0.00656997 19.8233 0.00656997 11.1741C-0.0705605 7.8237 2.65583 4.68645 6.19378 3.96389Z" fill="url(#paint0_linear_451_899)"/>
<path fill-rule="evenodd" clip-rule="evenodd" d="M28.3351 20.3499C27.8833 19.7388 27.0539 19.2968 26.2491 19.5959C25.2326 19.8949 24.8372 21.1916 25.5608 21.9261C28.5398 25.3517 31.547 28.7576 34.5683 32.1506C35.2495 33.0704 36.9932 32.8852 37.3708 31.8094C37.7203 31.1627 37.2967 30.4964 36.8449 30.0089C35.9251 28.9649 35.0048 27.9216 34.0847 26.8784C32.1662 24.7034 30.2483 22.5288 28.3351 20.3499ZM19.8344 20.6379C18.9413 20.4848 18.2226 21.0662 17.7657 21.6974C17.0318 22.6333 16.2989 23.57 15.5659 24.5067C14.1001 26.38 12.6342 28.2533 11.161 30.1199C10.6043 30.7395 10.2346 31.6421 10.7373 32.3918C11.3064 33.4475 13.0884 33.6311 13.8568 32.6596C14.7699 31.5851 15.6268 30.4709 16.484 29.3564C17.5063 28.027 18.5289 26.6972 19.6475 25.4343C20.473 26.4982 21.3044 27.5585 22.1359 28.6192C23.0324 29.7626 23.9291 30.9063 24.8191 32.0552C25.301 32.6901 25.9739 33.4245 26.9252 33.2906C28.2876 33.2754 29.2305 31.6574 28.3873 30.6286C27.1981 29.0319 25.961 27.4661 24.7236 25.9002C23.7438 24.6602 22.7639 23.42 21.8075 22.1641C21.7291 22.07 21.6512 21.971 21.5722 21.8705C21.1274 21.3053 20.6456 20.6931 19.8344 20.6379Z" fill="url(#paint1_linear_451_899)"/>
<path d="M26.2493 19.5958L26.4187 20.1714L26.4388 20.1655L26.4583 20.1582L26.2493 19.5958ZM28.3353 20.3499L27.8528 20.7065L27.8678 20.7267L27.8844 20.7457L28.3353 20.3499ZM25.561 21.9261L26.0137 21.5323L26.0015 21.5183L25.9885 21.505L25.561 21.9261ZM34.5685 32.1506L35.0507 31.7935L35.0347 31.7718L35.0167 31.7516L34.5685 32.1506ZM37.371 31.8093L36.8431 31.5241L36.8206 31.5659L36.8049 31.6106L37.371 31.8093ZM36.8452 30.0089L36.3949 30.4055L36.4 30.4112L36.4051 30.4167L36.8452 30.0089ZM17.7659 21.6974L18.238 22.0676L18.2452 22.0585L18.252 22.0492L17.7659 21.6974ZM19.8346 20.6379L19.7332 21.2292L19.7633 21.2343L19.7938 21.2364L19.8346 20.6379ZM11.1612 30.1198L11.6076 30.5208L11.6203 30.5065L11.6322 30.4915L11.1612 30.1198ZM10.7375 32.3918L11.2657 32.1071L11.2519 32.0817L11.2358 32.0577L10.7375 32.3918ZM13.857 32.6595L13.3998 32.271L13.393 32.2791L13.3864 32.2873L13.857 32.6595ZM19.6477 25.4343L20.1217 25.0664L19.6781 24.4948L19.1985 25.0365L19.6477 25.4343ZM24.8193 32.0552L25.2972 31.6924L25.2936 31.6878L24.8193 32.0552ZM26.9254 33.2906L26.9186 32.6907L26.88 32.691L26.8417 32.6964L26.9254 33.2906ZM28.3875 30.6285L27.9063 30.9869L27.9146 30.9981L27.9235 31.0089L28.3875 30.6285ZM21.8077 22.164L22.285 21.8005L22.2771 21.7901L22.2688 21.78L21.8077 22.164ZM26.4583 20.1582C26.9249 19.9848 27.4966 20.2246 27.8528 20.7065L28.8178 19.9932C28.2705 19.2529 27.1831 18.6087 26.0404 19.0334L26.4583 20.1582ZM25.9885 21.505C25.623 21.134 25.7814 20.3589 26.4187 20.1714L26.08 19.0202C24.6842 19.4307 24.0519 21.2491 25.1335 22.3471L25.9885 21.505ZM35.0167 31.7516C31.9964 28.3598 28.9908 24.9556 26.0137 21.5323L25.1083 22.3198C28.0891 25.7475 31.098 29.1554 34.1205 32.5496L35.0167 31.7516ZM36.8049 31.6106C36.7149 31.867 36.4321 32.0839 36.0146 32.1323C35.5972 32.1807 35.2301 32.0358 35.0507 31.7935L34.0864 32.5077C34.5882 33.1852 35.4336 33.4076 36.1527 33.3243C36.8716 33.2411 37.6495 32.8275 37.9372 32.0081L36.8049 31.6106ZM36.4051 30.4167C36.6094 30.6372 36.7697 30.8599 36.8486 31.065C36.9207 31.2523 36.9151 31.3911 36.8431 31.5241L37.8989 32.0946C38.1765 31.5809 38.1337 31.0632 37.9685 30.6339C37.81 30.2222 37.5327 29.868 37.2853 29.601L36.4051 30.4167ZM33.6349 27.2753C34.5551 28.3185 35.4752 29.3616 36.3949 30.4055L37.2953 29.6122C36.3754 28.5681 35.455 27.5247 34.5349 26.4815L33.6349 27.2753ZM27.8844 20.7457C29.7981 22.9253 31.7165 25.1003 33.6349 27.2753L34.5349 26.4815C32.6164 24.3063 30.6988 22.1323 28.7862 19.9539L27.8844 20.7457ZM18.252 22.0492C18.6637 21.4803 19.184 21.1351 19.7332 21.2292L19.9359 20.0464C18.699 19.8345 17.7819 20.6521 17.2799 21.3456L18.252 22.0492ZM16.0387 24.8764C16.7716 23.9397 17.5044 23.0032 18.238 22.0676L17.2938 21.3271C16.5597 22.2633 15.8265 23.2002 15.0936 24.1369L16.0387 24.8764ZM11.6322 30.4915C13.1063 28.6239 14.5729 26.7495 16.0387 24.8764L15.0936 24.1369C13.6276 26.0103 12.1625 27.8827 10.6903 29.748L11.6322 30.4915ZM11.2358 32.0577C10.9729 31.6656 11.1037 31.0816 11.6076 30.5208L10.7149 29.7188C10.1053 30.3973 9.49664 31.6185 10.2391 32.7259L11.2358 32.0577ZM13.3864 32.2873C13.1587 32.5753 12.7428 32.7312 12.2776 32.6884C11.8099 32.6453 11.4312 32.4142 11.2657 32.1071L10.2094 32.6765C10.6129 33.425 11.4098 33.8136 12.1675 33.8833C12.9276 33.9534 13.787 33.7153 14.3276 33.0317L13.3864 32.2873ZM16.0085 28.9905C15.1499 30.1069 14.3018 31.2095 13.3998 32.271L14.3143 33.048C15.2383 31.9605 16.1041 30.8346 16.9597 29.7221L16.0085 28.9905ZM19.1985 25.0365C18.0639 26.3175 17.0288 27.6639 16.0085 28.9905L16.9597 29.7221C17.9842 28.39 18.9943 27.0768 20.0968 25.832L19.1985 25.0365ZM22.6083 28.2489C21.7765 27.1881 20.9461 26.1289 20.1217 25.0664L19.1736 25.8021C20.0002 26.8674 20.8325 27.9289 21.6639 28.9893L22.6083 28.2489ZM25.2936 31.6878C24.4024 30.5373 23.5045 29.3921 22.6083 28.2489L21.6639 28.9893C22.5605 30.1329 23.4562 31.2753 24.3449 32.4226L25.2936 31.6878ZM26.8417 32.6964C26.2716 32.7767 25.7974 32.3514 25.2972 31.6924L24.3413 32.418C24.8049 33.0287 25.6765 34.0722 27.009 33.8847L26.8417 32.6964ZM27.9235 31.0089C28.1547 31.291 28.1683 31.6758 27.9604 32.0457C27.75 32.4203 27.3567 32.6857 26.9186 32.6907L26.932 33.8906C27.8565 33.8802 28.6158 33.3291 29.0066 32.6336C29.4 31.9335 29.4635 30.9949 28.8516 30.2482L27.9235 31.0089ZM24.253 26.2722C25.4913 27.8392 26.723 29.3982 27.9063 30.9869L28.8687 30.2701C27.6735 28.6654 26.431 27.093 25.1946 25.5282L24.253 26.2722ZM21.3304 22.5275C22.2905 23.7884 23.2738 25.0328 24.253 26.2722L25.1946 25.5282C24.2143 24.2874 23.2376 23.0514 22.285 21.8005L21.3304 22.5275ZM21.1009 22.2415C21.1789 22.3407 21.262 22.4464 21.3466 22.548L22.2688 21.78C22.1966 21.6934 22.1239 21.6011 22.0438 21.4994L21.1009 22.2415ZM19.7938 21.2364C20.298 21.2708 20.6234 21.6348 21.1009 22.2415L22.0438 21.4994C21.6318 20.9757 20.9935 20.1153 19.8753 20.0392L19.7938 21.2364Z" fill="url(#paint2_linear_451_899)"/>
</g>
<defs>
<linearGradient id="paint0_linear_451_899" x1="0.00703138" y1="23.3999" x2="48.008" y2="23.3999" gradientUnits="userSpaceOnUse">
<stop stop-color="#A93AFF"/>
<stop offset="1" stop-color="#FF81FF"/>
</linearGradient>
<linearGradient id="paint1_linear_451_899" x1="10.5027" y1="26.7718" x2="28.7099" y2="26.7718" gradientUnits="userSpaceOnUse">
<stop stop-color="#A93AFF"/>
<stop offset="1" stop-color="#FF81FF"/>
</linearGradient>
<linearGradient id="paint2_linear_451_899" x1="10.5029" y1="26.7717" x2="28.7101" y2="26.7717" gradientUnits="userSpaceOnUse">
<stop stop-color="#A93AFF"/>
<stop offset="1" stop-color="#FF81FF"/>
</linearGradient>
<clipPath id="clip0_451_899">
<rect width="48" height="48" fill="white"/>
</clipPath>
</defs>
</svg>
