<svg width="48" height="48" viewBox="0 0 48 48" fill="none" xmlns="http://www.w3.org/2000/svg">
<g clip-path="url(#clip0_451_825)">
<path d="M6.18538 3.96516C8.1303 3.60074 10.1289 3.8231 12.0973 3.76442C14.1629 3.8231 16.4265 3.46177 18.2775 4.52723C20.0414 5.55564 21.2016 7.22641 22.7776 8.46172C23.3578 8.87557 24.109 9.03 24.8366 9.01763C31.8887 9.01763 38.9407 9.02692 45.9928 9.06705C47.2067 8.97127 48.2563 10.1294 47.9445 11.2103C47.7734 12.0472 46.8915 12.668 45.9727 12.6125C38.81 12.6217 31.6472 12.5877 24.4845 12.5816C22.8448 12.5723 21.2083 12.0133 19.991 10.9972C18.5022 9.88237 17.5129 8.17147 15.7525 7.40863C13.3112 7.2295 10.8465 7.38392 8.39858 7.33141C6.7152 7.2295 5.03183 8.1189 4.31421 9.52717C3.82127 10.4197 3.90846 11.4451 3.90176 12.4117C3.91852 20.5494 3.89504 28.6871 3.91181 36.8279C3.88499 38.3535 4.96811 39.8111 6.50059 40.3794C7.41269 40.7377 8.42543 40.6697 9.3945 40.6759C19.582 40.6604 29.7694 40.6821 39.9535 40.6635C41.5295 40.6697 43.0385 39.7618 43.6958 38.4492C44.2223 37.4641 44.0714 36.3399 44.0915 35.2806C44.0982 30.7593 44.068 26.2381 44.1049 21.7168C44.0781 20.7007 45.1545 19.8452 46.2409 19.978C47.3074 20.0429 48.1054 21.0065 47.9847 21.9731C47.9847 27.0256 48.0082 32.078 47.9747 37.1336C47.9277 40.8735 44.3262 44.1688 40.272 44.2305C29.538 44.2676 18.8006 44.2398 8.06662 44.2429C4.96141 44.2738 1.95347 42.4887 0.709375 39.8668C0.122542 38.7272 -0.0182981 37.4517 0.00182187 36.204C0.0286486 27.7575 -0.0182983 19.3048 0.0252951 10.8583C0.0856553 7.6248 2.77503 4.67239 6.18538 3.96516Z" fill="url(#paint0_linear_451_825)"/>
<path fill-rule="evenodd" clip-rule="evenodd" d="M22.3994 16.2367C22.9169 14.5878 25.0831 14.5878 25.6006 16.2367L27.6594 22.7963H34.3074C35.96 22.7963 36.6298 25.0875 35.2749 26.1065L33.9144 27.1297C33.2985 27.593 32.4189 27.4373 31.9993 26.7907L31.5277 26.0638C31.4129 25.887 31.4546 25.6515 31.623 25.5248H27.0532C26.3285 25.5248 25.6846 25.0273 25.4526 24.2881L24 19.66L22.5474 24.2881C22.3154 25.0273 21.6715 25.5248 20.9468 25.5248H16.377L20.0163 28.2622C20.6318 28.7251 20.8898 29.5698 20.6494 30.3356L19.2348 34.8427L23.0324 31.9862C23.6136 31.5491 24.3864 31.5491 24.9676 31.9862L28.7652 34.8427L27.6146 31.1768C27.4103 30.5255 27.7545 29.8288 28.3959 29.5954C29.0793 29.3467 29.8321 29.7186 30.0498 30.4125L31.9888 36.5904C32.511 38.2539 30.7576 39.6694 29.4207 38.664L24 34.5868L18.5794 38.664C17.2424 39.6694 15.4891 38.2539 16.0112 36.5904L18.0457 30.1083L12.7251 26.1065C11.3703 25.0875 12.0401 22.7963 13.6927 22.7963H20.3406L22.3994 16.2367Z" fill="url(#paint1_linear_451_825)"/>
</g>
<defs>
<linearGradient id="paint0_linear_451_825" x1="24" y1="3.75" x2="24" y2="44.25" gradientUnits="userSpaceOnUse">
<stop stop-color="#FC1878"/>
<stop offset="1" stop-color="#FF1E1E"/>
</linearGradient>
<linearGradient id="paint1_linear_451_825" x1="24" y1="15" x2="24" y2="39" gradientUnits="userSpaceOnUse">
<stop stop-color="#FC1878"/>
<stop offset="1" stop-color="#FF1E1E"/>
</linearGradient>
<clipPath id="clip0_451_825">
<rect width="48" height="48" fill="white"/>
</clipPath>
</defs>
</svg>
