<svg width="48" height="48" viewBox="0 0 48 48" fill="none" xmlns="http://www.w3.org/2000/svg">
<g clip-path="url(#clip0_451_809)">
<path d="M6.20354 3.95905C8.13488 3.60079 10.1198 3.82625 12.0746 3.76448C14.0864 3.83551 16.2625 3.45872 18.0965 4.43468C19.9675 5.44153 21.151 7.1927 22.7773 8.46825C23.3607 8.8605 24.0917 9.0396 24.8126 9.018C31.7432 9.018 38.6738 9.018 45.6044 9.04582C46.5465 8.9439 47.606 9.3732 47.8843 10.2626C48.3672 11.4023 47.264 12.7242 45.953 12.6192C38.8078 12.6253 31.6593 12.5944 24.5141 12.5821C22.784 12.5852 21.0605 11.9644 19.8133 10.8556C18.7269 9.88897 17.7377 8.83267 16.6514 7.87215C16.1552 7.43669 15.4511 7.29771 14.7838 7.32859C12.4803 7.34713 10.1735 7.31315 7.86998 7.34404C5.70395 7.39345 3.83634 9.21877 3.90004 11.2139C3.90004 19.7536 3.89334 28.2932 3.89669 36.836C3.84305 38.8806 5.83806 40.7182 8.06108 40.6719C18.6833 40.678 29.3055 40.6781 39.9277 40.6688C42.1507 40.709 44.1491 38.8589 44.0753 36.8051C44.0821 31.9716 44.0787 27.1412 44.072 22.3078C44.0821 21.7426 44.062 21.1094 44.4911 20.6523C45.1852 19.7814 46.751 19.732 47.4988 20.5689C47.9883 21.026 47.9883 21.7024 47.9849 22.3015C47.9615 27.2555 48.0017 32.2094 47.9648 37.1634C47.9011 40.8974 44.3 44.1712 40.2597 44.2329C29.5268 44.2607 18.794 44.2484 8.06108 44.2391C4.95959 44.27 1.95197 42.4879 0.711367 39.8658C0.11789 38.723 -0.009522 37.4383 0.000536895 36.1905C0.0273607 27.7466 -0.0262871 19.3027 0.0206546 10.8618C0.0843608 7.61887 2.78015 4.66014 6.20354 3.95905Z" fill="url(#paint0_linear_451_809)"/>
<path d="M19.0928 21.375C19.0928 18.6742 21.3292 16.5 24.1072 16.5C26.5932 16.5 28.6456 18.2414 29.0494 20.5432C29.1291 20.9977 28.7473 21.375 28.2857 21.375C27.8242 21.375 27.4612 20.998 27.3895 20.5421C27.1155 18.8002 25.9249 18.125 24.1072 18.125C22.0237 18.125 20.7643 19.0119 20.7643 21.375V24.75C20.7643 25.5784 21.4358 26.25 22.2643 26.25H27.45H29.1215H30.9643C31.7927 26.25 32.4643 26.9216 32.4643 27.75V34.5C32.4643 35.3284 31.7931 36 30.9646 36H17.2499C16.4215 36 15.75 35.3284 15.75 34.5V27.4688C15.75 26.7956 16.2956 26.25 16.9687 26.25H17.5928C18.4213 26.25 19.0928 25.5784 19.0928 24.75V21.375Z" fill="url(#paint1_linear_451_809)" stroke="url(#paint2_linear_451_809)" stroke-width="2"/>
</g>
<defs>
<linearGradient id="paint0_linear_451_809" x1="24" y1="44.25" x2="24" y2="3.75" gradientUnits="userSpaceOnUse">
<stop stop-color="#02AA93"/>
<stop offset="1" stop-color="#67FF80"/>
</linearGradient>
<linearGradient id="paint1_linear_451_809" x1="24.1072" y1="36" x2="24.1072" y2="16.5" gradientUnits="userSpaceOnUse">
<stop stop-color="#02AA93"/>
<stop offset="1" stop-color="#67FF80"/>
</linearGradient>
<linearGradient id="paint2_linear_451_809" x1="24.1072" y1="36" x2="24.1072" y2="16.5" gradientUnits="userSpaceOnUse">
<stop stop-color="#02AA93"/>
<stop offset="1" stop-color="#67FF80"/>
</linearGradient>
<clipPath id="clip0_451_809">
<rect width="48" height="48" fill="white"/>
</clipPath>
</defs>
</svg>
