<svg width="48" height="48" viewBox="0 0 48 48" fill="none" xmlns="http://www.w3.org/2000/svg">
<path fill-rule="evenodd" clip-rule="evenodd" d="M13.2197 16.8984C13.4997 16.8984 13.7797 16.8984 14.0597 16.7584V15.9184C14.0597 15.2184 14.0597 14.5183 14.1998 13.9584C13.9197 14.0983 13.4997 14.0983 13.2197 14.0983C11.3997 14.0983 9.85965 12.5584 9.85965 10.7384C9.85965 8.9184 11.3997 7.37842 13.2197 7.37842C14.6198 7.37842 15.8797 8.21842 16.4397 9.47842C16.9997 8.77845 17.8397 8.0784 18.5397 7.51845C16.7198 4.57843 12.9398 3.59842 9.99968 5.41843C7.05967 7.23843 6.07968 11.0184 7.89967 13.9584C9.01965 15.7783 10.9797 16.8984 13.2197 16.8984ZM31.56 9.47865C32.26 7.79865 34.22 6.95861 36.04 7.65862C37.72 8.3586 38.56 10.3186 37.86 12.1386C37.3 13.3985 36.04 14.2385 34.78 14.2385C34.5 14.2385 34.08 14.2385 33.8 14.0986C33.94 14.7985 33.94 15.4985 33.94 16.0585V16.8986C34.08 16.8986 34.22 16.9336 34.36 16.9685C34.5 17.0036 34.64 17.0386 34.78 17.0386C38.28 17.0386 41.08 14.2385 41.08 10.8786C41.08 7.37861 38.28 4.57861 34.92 4.57861C32.68 4.57861 30.72 5.69861 29.6 7.65862C30.3 8.07862 31 8.63865 31.56 9.47865ZM30.58 15.9184C30.58 19.6984 27.64 22.7784 23.86 22.7784C20.08 22.7784 17 19.6984 17 15.9184C17 12.2783 19.94 9.19837 23.72 9.19837C27.5 9.19837 30.58 12.1384 30.58 15.9184ZM27.78 16.0584C27.78 13.8184 25.96 11.9983 23.72 11.9983C21.62 11.9983 19.8 13.8184 19.8 16.0584C19.8 18.1584 21.48 19.9784 23.72 19.9784C25.96 19.9784 27.78 18.2983 27.78 16.0584ZM34.78 18.4381C38.42 18.2981 41.92 19.558 44.58 21.9381L45 22.3581V33.5581H42.2V23.4781C40.1 21.9381 37.44 21.0981 34.78 21.238C33.94 21.238 33.24 21.2381 32.4 21.3781C32.96 20.5381 33.38 19.5581 33.66 18.4381H34.78ZM14.34 18.5782C14.62 19.6982 15.04 20.6782 15.6 21.5182C14.9 21.3782 14.06 21.2382 13.22 21.2382C10.56 21.0983 8.04 21.9383 5.8 23.4782V33.5582H3V22.3583L3.42 21.9382C6.08 19.6982 9.57997 18.4382 13.22 18.5782H14.34ZM35.06 29.9182L35.34 30.3383H35.48V40.9782C35.48 42.2382 34.36 43.3583 33.1 43.3583H15.18C13.78 43.3583 12.8 42.2382 12.8 40.9782V30.3383L13.08 29.9182C15.88 26.8382 19.94 25.0182 24.14 25.1582C28.34 25.0182 32.26 26.8382 35.06 29.9182ZM15.6 40.5582H32.54V31.3182C30.3 29.0782 27.22 27.8182 24.14 27.9582C20.92 27.9582 17.84 29.0782 15.6 31.3182V40.5582Z" fill="url(#paint0_linear_451_868)"/>
<path d="M14.0597 16.7583L14.2274 17.0937L14.4347 16.99V16.7583H14.0597ZM14.1998 13.9583L14.5635 14.0492L14.7613 13.2582L14.032 13.6228L14.1998 13.9583ZM16.4397 9.4783L16.097 9.63063L16.3475 10.194L16.7326 9.71253L16.4397 9.4783ZM18.5397 7.51833L18.774 7.81113L19.0335 7.60353L18.8586 7.32092L18.5397 7.51833ZM7.89967 13.9583L8.21903 13.7617L8.2185 13.7609L7.89967 13.9583ZM36.04 7.6585L36.1843 7.31221L36.1746 7.30849L36.04 7.6585ZM31.56 9.47853L31.248 9.6865L31.6367 10.2696L31.9061 9.62275L31.56 9.47853ZM37.86 12.1385L38.2027 12.2908L38.2066 12.282L38.21 12.2731L37.86 12.1385ZM33.8 14.0985L33.9677 13.763L33.2819 13.4202L33.4323 14.172L33.8 14.0985ZM33.94 16.8984H33.565V17.2734H33.94V16.8984ZM29.6 7.6585L29.2744 7.47244L29.0923 7.79118L29.4071 7.98003L29.6 7.6585ZM44.58 21.938L44.8452 21.6728L44.8378 21.6654L44.83 21.6585L44.58 21.938ZM34.78 18.438V18.813H34.7872L34.7945 18.8127L34.78 18.438ZM45 22.358H45.375V22.2027L45.2652 22.0928L45 22.358ZM45 33.558V33.933H45.375V33.558H45ZM42.2 33.558H41.825V33.933H42.2V33.558ZM42.2 23.478H42.575V23.2879L42.4217 23.1756L42.2 23.478ZM34.78 21.2379V21.6129H34.7899L34.7997 21.6124L34.78 21.2379ZM32.4 21.378L32.088 21.1699L31.6078 21.8901L32.4616 21.7479L32.4 21.378ZM33.66 18.438V18.063H33.3672L33.2962 18.347L33.66 18.438ZM15.6 21.5181L15.5264 21.8859L16.4142 22.0634L15.912 21.3101L15.6 21.5181ZM14.34 18.5781L14.7038 18.4872L14.6328 18.2031H14.34V18.5781ZM13.22 21.2381L13.2003 21.6126L13.2101 21.6131H13.22V21.2381ZM5.8 23.4781L5.58755 23.1691L5.425 23.2809V23.4781H5.8ZM5.8 33.5581V33.9331H6.175V33.5581H5.8ZM3 33.5581H2.625V33.9331H3V33.5581ZM3 22.3581L2.73484 22.0929L2.625 22.2028V22.3581H3ZM3.42 21.9381L3.17845 21.6513L3.16618 21.6616L3.15484 21.6729L3.42 21.9381ZM13.22 18.5781L13.2056 18.9528L13.2128 18.9531H13.22V18.5781ZM35.34 30.3381L35.028 30.5461L35.1393 30.7131H35.34V30.3381ZM35.06 29.9181L35.372 29.7101L35.3564 29.6867L35.3375 29.6658L35.06 29.9181ZM35.48 30.3381H35.855V29.9631H35.48V30.3381ZM12.8 30.3381L12.488 30.1301L12.425 30.2246V30.3381H12.8ZM13.08 29.9181L12.8025 29.6658L12.7836 29.6867L12.768 29.7101L13.08 29.9181ZM24.14 25.1581L24.1275 25.5329L24.14 25.5333L24.1525 25.5329L24.14 25.1581ZM32.54 40.5581V40.9331H32.915V40.5581H32.54ZM15.6 40.5581H15.225V40.9331H15.6V40.5581ZM32.54 31.3181H32.915V31.1628L32.8052 31.053L32.54 31.3181ZM24.14 27.9581V28.3331H24.1485L24.1571 28.3327L24.14 27.9581ZM15.6 31.3181L15.3348 31.053L15.225 31.1628V31.3181H15.6ZM13.892 16.4229C13.7021 16.5178 13.5092 16.5233 13.2197 16.5233V17.2733C13.4903 17.2733 13.8573 17.2788 14.2274 17.0937L13.892 16.4229ZM13.6847 15.9183V16.7583H14.4347V15.9183H13.6847ZM13.8359 13.8673C13.6824 14.4815 13.6847 15.2328 13.6847 15.9183H14.4347C14.4347 15.2037 14.437 14.555 14.5635 14.0492L13.8359 13.8673ZM13.2197 14.4732C13.3577 14.4732 13.5507 14.4735 13.747 14.4539C13.9393 14.4347 14.1673 14.3937 14.3675 14.2937L14.032 13.6228C13.9522 13.6628 13.8302 13.6918 13.6724 13.7076C13.5188 13.723 13.3618 13.7232 13.2197 13.7232V14.4732ZM9.48465 10.7383C9.48465 12.7653 11.1926 14.4732 13.2197 14.4732V13.7232C11.6068 13.7232 10.2347 12.3511 10.2347 10.7383H9.48465ZM13.2197 7.0033C11.1926 7.0033 9.48465 8.7112 9.48465 10.7383H10.2347C10.2347 9.12543 11.6068 7.7533 13.2197 7.7533V7.0033ZM16.7824 9.32598C16.1633 7.933 14.7706 7.0033 13.2197 7.0033V7.7533C14.4689 7.7533 15.5962 8.5036 16.097 9.63063L16.7824 9.32598ZM18.3055 7.22548C17.6078 7.78353 16.7363 8.5072 16.1469 9.24408L16.7326 9.71253C17.2631 9.04938 18.0715 8.37303 18.774 7.81113L18.3055 7.22548ZM10.1971 5.73715C12.9527 4.03129 16.5047 4.94338 18.2209 7.71565L18.8586 7.32092C16.9348 4.21324 12.9267 3.16531 9.80228 5.09945L10.1971 5.73715ZM8.2185 13.7609C6.51267 11.0053 7.42474 7.45335 10.1971 5.73715L9.80228 5.09945C6.69461 7.02325 5.64668 11.0313 7.58085 14.1556L8.2185 13.7609ZM13.2197 16.5233C11.1095 16.5233 9.27053 15.4704 8.21903 13.7617L7.58032 14.1548C8.76877 16.0861 10.85 17.2733 13.2197 17.2733V16.5233ZM36.1746 7.30849C34.1734 6.53879 31.9954 7.45867 31.2139 9.33423L31.9061 9.62275C32.5247 8.13828 34.2666 7.37819 35.9053 8.00853L36.1746 7.30849ZM38.21 12.2731C38.9797 10.2719 38.0599 8.09367 36.1843 7.31221L35.8958 8.00463C37.3802 8.62315 38.1403 10.3651 37.51 12.0039L38.21 12.2731ZM34.78 14.6134C36.1994 14.6134 37.5872 13.6756 38.2027 12.2908L37.5173 11.9862C37.0128 13.1213 35.8806 13.8634 34.78 13.8634V14.6134ZM33.6323 14.4339C33.8324 14.5339 34.0604 14.5749 34.2527 14.5941C34.4491 14.6137 34.6421 14.6134 34.78 14.6134V13.8634C34.6379 13.8634 34.4809 13.8632 34.3273 13.8478C34.1695 13.832 34.0475 13.803 33.9677 13.763L33.6323 14.4339ZM34.315 16.0584C34.315 15.5023 34.316 14.7665 34.1677 14.0249L33.4323 14.172C33.5639 14.8303 33.565 15.4946 33.565 16.0584H34.315ZM34.315 16.8984V16.0584H33.565V16.8984H34.315ZM34.451 16.6047C34.3198 16.5718 34.1342 16.5234 33.94 16.5234V17.2734C34.0258 17.2734 34.1203 17.295 34.2691 17.3322L34.451 16.6047ZM34.78 16.6635C34.6942 16.6635 34.5998 16.6419 34.451 16.6047L34.2691 17.3322C34.4003 17.365 34.5858 17.4135 34.78 17.4135V16.6635ZM40.705 10.8785C40.705 14.0259 38.0784 16.6635 34.78 16.6635V17.4135C38.4816 17.4135 41.455 14.451 41.455 10.8785H40.705ZM34.92 4.95349C38.0675 4.95349 40.705 7.58013 40.705 10.8785H41.455C41.455 7.17688 38.4926 4.20349 34.92 4.20349V4.95349ZM29.9256 7.84458C30.9781 6.00266 32.8131 4.95349 34.92 4.95349V4.20349C32.5469 4.20349 30.4619 5.39432 29.2744 7.47244L29.9256 7.84458ZM31.872 9.27048C31.2728 8.37175 30.5256 7.77655 29.7929 7.33693L29.4071 7.98003C30.0744 8.38045 30.7271 8.9053 31.248 9.6865L31.872 9.27048ZM23.86 23.1533C27.8571 23.1533 30.955 19.8952 30.955 15.9183H30.205C30.205 19.5013 27.4228 22.4033 23.86 22.4033V23.1533ZM16.625 15.9183C16.625 19.9053 19.8729 23.1533 23.86 23.1533V22.4033C20.2871 22.4033 17.375 19.4911 17.375 15.9183H16.625ZM23.72 8.82325C19.7278 8.82325 16.625 12.0762 16.625 15.9183H17.375C17.375 12.4803 20.1522 9.57325 23.72 9.57325V8.82325ZM30.955 15.9183C30.955 11.9211 27.6969 8.82325 23.72 8.82325V9.57325C27.3031 9.57325 30.205 12.3554 30.205 15.9183H30.955ZM23.72 12.3732C25.7529 12.3732 27.405 14.0253 27.405 16.0583H28.155C28.155 13.6112 26.1671 11.6232 23.72 11.6232V12.3732ZM20.175 16.0583C20.175 14.0168 21.8356 12.3732 23.72 12.3732V11.6232C21.4044 11.6232 19.425 13.6197 19.425 16.0583H20.175ZM23.72 19.6032C21.6958 19.6032 20.175 17.9599 20.175 16.0583H19.425C19.425 18.3566 21.2642 20.3532 23.72 20.3532V19.6032ZM27.405 16.0583C27.405 18.0741 25.7704 19.6032 23.72 19.6032V20.3532C26.1496 20.3532 28.155 18.5224 28.155 16.0583H27.405ZM44.83 21.6585C42.0967 19.2129 38.5016 17.9196 34.7656 18.0633L34.7945 18.8127C38.3384 18.6764 41.7433 19.903 44.33 22.2174L44.83 21.6585ZM45.2652 22.0928L44.8452 21.6728L44.3148 22.2031L44.7348 22.6231L45.2652 22.0928ZM45.375 33.558V22.358H44.625V33.558H45.375ZM42.2 33.933H45V33.183H42.2V33.933ZM41.825 23.478V33.558H42.575V23.478H41.825ZM34.7997 21.6124C37.37 21.4772 39.9452 22.2895 41.9783 23.7804L42.4217 23.1756C40.2548 21.5865 37.51 20.7188 34.7603 20.8635L34.7997 21.6124ZM32.4616 21.7479C33.267 21.6136 33.9378 21.6129 34.78 21.6129V20.8629C33.9421 20.8629 33.2129 20.8623 32.3384 21.0081L32.4616 21.7479ZM33.2962 18.347C33.0251 19.4312 32.621 20.3704 32.088 21.1699L32.712 21.5859C33.299 20.7055 33.7349 19.6847 34.0238 18.5289L33.2962 18.347ZM34.78 18.063H33.66V18.813H34.78V18.063ZM15.912 21.3101C15.379 20.5106 14.9749 19.5714 14.7038 18.4872L13.9762 18.669C14.2651 19.8249 14.701 20.8456 15.288 21.7261L15.912 21.3101ZM13.22 21.6131C14.0221 21.6131 14.833 21.7471 15.5264 21.8859L15.6736 21.1504C14.967 21.0091 14.0978 20.8631 13.22 20.8631V21.6131ZM6.01245 23.7871C8.19592 22.286 10.6358 21.4776 13.2003 21.6126L13.2397 20.8636C10.4843 20.7186 7.88407 21.5903 5.58755 23.1691L6.01245 23.7871ZM6.175 33.5581V23.4781H5.425V33.5581H6.175ZM3 33.9331H5.8V33.1831H3V33.9331ZM2.625 22.3581V33.5581H3.375V22.3581H2.625ZM3.15484 21.6729L2.73484 22.0929L3.26516 22.6233L3.68516 22.2033L3.15484 21.6729ZM13.2344 18.2034C9.4992 18.0597 5.90837 19.3524 3.17845 21.6513L3.66155 22.2249C6.25163 20.0439 9.66083 18.8165 13.2056 18.9528L13.2344 18.2034ZM14.34 18.2031H13.22V18.9531H14.34V18.2031ZM35.652 30.1301L35.372 29.7101L34.748 30.1261L35.028 30.5461L35.652 30.1301ZM35.48 29.9631H35.34V30.7131H35.48V29.9631ZM35.855 40.9781V30.3381H35.105V40.9781H35.855ZM33.1 43.7331C34.5671 43.7331 35.855 42.4452 35.855 40.9781H35.105C35.105 42.031 34.1529 42.9831 33.1 42.9831V43.7331ZM15.18 43.7331H33.1V42.9831H15.18V43.7331ZM12.425 40.9781C12.425 42.4306 13.5586 43.7331 15.18 43.7331V42.9831C14.0014 42.9831 13.175 42.0456 13.175 40.9781H12.425ZM12.425 30.3381V40.9781H13.175V30.3381H12.425ZM12.768 29.7101L12.488 30.1301L13.112 30.5461L13.392 30.1261L12.768 29.7101ZM24.1525 24.7833C19.8368 24.6395 15.6725 26.5089 12.8025 29.6658L13.3575 30.1704C16.0874 27.1674 20.0432 25.3968 24.1275 25.5329L24.1525 24.7833ZM35.3375 29.6658C32.4701 26.5117 28.4469 24.6393 24.1275 24.7833L24.1525 25.5329C28.2331 25.3968 32.0499 27.1645 34.7825 30.1704L35.3375 29.6658ZM32.54 40.1831H15.6V40.9331H32.54V40.1831ZM32.165 31.3181V40.5581H32.915V31.3181H32.165ZM24.1571 28.3327C27.125 28.1978 30.1044 29.4129 32.2748 31.5833L32.8052 31.053C30.4956 28.7433 27.315 27.4384 24.123 27.5835L24.1571 28.3327ZM15.8652 31.5833C18.0257 29.4228 21.0057 28.3331 24.14 28.3331V27.5831C20.8343 27.5831 17.6543 28.7334 15.3348 31.053L15.8652 31.5833ZM15.975 40.5581V31.3181H15.225V40.5581H15.975Z" fill="url(#paint1_linear_451_868)"/>
<defs>
<linearGradient id="paint0_linear_451_868" x1="14.42" y1="34.2545" x2="32.7035" y2="31.7377" gradientUnits="userSpaceOnUse">
<stop stop-color="#8D01A2"/>
<stop offset="1" stop-color="#FF00D2"/>
</linearGradient>
<linearGradient id="paint1_linear_451_868" x1="14.4199" y1="34.2543" x2="32.7035" y2="31.7376" gradientUnits="userSpaceOnUse">
<stop stop-color="#8D01A2"/>
<stop offset="1" stop-color="#FF00D2"/>
</linearGradient>
</defs>
</svg>
