<svg width="48" height="48" viewBox="0 0 48 48" fill="none" xmlns="http://www.w3.org/2000/svg">
<path d="M6.19242 3.96043C8.12715 3.60219 10.1121 3.82454 12.0703 3.76586C14.0721 3.83072 16.2247 3.4694 18.0555 4.4144C19.95 5.4119 21.1303 7.18763 22.7766 8.46C23.35 8.87693 24.0977 9.02513 24.8152 9.01898C31.8667 9.0282 38.9182 9.00353 45.9697 9.0591C47.3176 8.94488 48.4039 10.3469 47.854 11.4865C47.5389 12.3234 46.5397 12.7094 45.6343 12.6291C39.2535 12.6137 32.876 12.6044 26.4985 12.589C24.775 12.6044 22.9442 12.6847 21.3884 11.888C19.1284 10.8689 18.0019 8.53103 15.8392 7.43778C13.274 7.19999 10.6687 7.39455 8.08687 7.33896C5.84035 7.28646 3.83187 9.1425 3.89893 11.2116C3.89223 19.2349 3.90229 27.255 3.89223 35.2783C3.90564 36.3993 3.7514 37.6068 4.38177 38.6228C5.12615 39.9569 6.75573 40.7629 8.36857 40.6796C18.8971 40.6672 29.4257 40.6827 39.9543 40.6642C42.174 40.6919 44.1556 38.8452 44.0752 36.7946C44.0986 31.7669 44.045 26.7393 44.0953 21.7148C44.0651 20.674 45.185 19.8093 46.2916 19.9822C47.3477 20.0718 48.0955 21.0384 47.9781 21.9896C47.968 27.045 47.9983 32.1004 47.9614 37.159C47.9077 40.8803 44.32 44.1569 40.2862 44.2249C29.9923 44.2743 19.6951 44.2249 9.39795 44.2496C8.0031 44.2527 6.5579 44.2496 5.24015 43.7678C2.69519 42.9124 0.700123 40.7969 0.177048 38.3449C-0.0442535 37.2238 0.0060421 36.0812 0.00268905 34.9509C0.00939517 27.0296 -0.00401698 19.1051 0.00604217 11.1839C-0.077784 7.83 2.6516 4.68616 6.19242 3.96043Z" fill="url(#paint0_linear_451_871)"/>
<path fill-rule="evenodd" clip-rule="evenodd" d="M18.2249 23.142C18.3749 23.142 18.5248 23.142 18.6748 23.067V22.617C18.6748 22.242 18.6748 21.867 18.7498 21.567C18.5998 21.642 18.3749 21.642 18.2249 21.642C17.2499 21.642 16.4248 20.817 16.4248 19.842C16.4248 18.867 17.2499 18.042 18.2249 18.042C18.9749 18.042 19.6499 18.492 19.9499 19.167C20.2499 18.792 20.6999 18.417 21.0749 18.117C20.0999 16.542 18.0748 16.017 16.4998 16.992C14.9248 17.967 14.3998 19.992 15.3748 21.567C15.9748 22.542 17.0249 23.142 18.2249 23.142ZM28.05 19.1672C28.425 18.2672 29.475 17.8172 30.45 18.1922C31.35 18.5672 31.8 19.6172 31.425 20.5922C31.125 21.2671 30.45 21.7171 29.775 21.7171C29.625 21.7171 29.4 21.7171 29.25 21.6421C29.325 22.0171 29.325 22.3921 29.325 22.6921V23.1421C29.4 23.1421 29.475 23.1608 29.55 23.1796C29.625 23.1983 29.7 23.2171 29.775 23.2171C31.65 23.2171 33.15 21.7171 33.15 19.9172C33.15 18.0422 31.65 16.5422 29.85 16.5422C28.65 16.5422 27.6 17.1422 27 18.1922C27.375 18.4172 27.75 18.7172 28.05 19.1672ZM27.525 22.617C27.525 24.642 25.95 26.292 23.925 26.292C21.9 26.292 20.25 24.642 20.25 22.617C20.25 20.667 21.825 19.017 23.85 19.017C25.875 19.017 27.525 20.592 27.525 22.617ZM26.025 22.692C26.025 21.492 25.05 20.517 23.85 20.517C22.725 20.517 21.75 21.492 21.75 22.692C21.75 23.817 22.65 24.792 23.85 24.792C25.05 24.792 26.025 23.892 26.025 22.692ZM29.775 23.9669C31.725 23.8919 33.6 24.5669 35.025 25.8419L35.25 26.0669V32.0669H33.75V26.6669C32.625 25.8419 31.2 25.3919 29.775 25.4669C29.325 25.4669 28.95 25.4669 28.5 25.5419C28.8 25.0919 29.025 24.5669 29.175 23.9669H29.775ZM18.825 24.0419C18.975 24.6419 19.2 25.1669 19.5 25.6169C19.125 25.5419 18.675 25.4669 18.225 25.4669C16.8 25.3919 15.45 25.8419 14.25 26.6669V32.0669H12.75V26.0669L12.975 25.8419C14.4 24.6419 16.275 23.9669 18.225 24.0419H18.825ZM29.925 30.1169L30.075 30.3419H30.15V36.0419C30.15 36.7169 29.55 37.3169 28.875 37.3169H19.275C18.525 37.3169 18 36.7169 18 36.0419V30.3419L18.15 30.1169C19.65 28.4669 21.825 27.4919 24.075 27.5669C26.325 27.4919 28.425 28.4669 29.925 30.1169ZM19.5 35.8169H28.575V30.8669C27.375 29.6669 25.725 28.9919 24.075 29.0669C22.35 29.0669 20.7 29.6669 19.5 30.8669V35.8169Z" fill="url(#paint1_linear_451_871)"/>
<path d="M18.6748 23.0669L18.8425 23.4023L19.0498 23.2986V23.0669H18.6748ZM18.7498 21.5669L19.1137 21.6578L19.3114 20.8668L18.5821 21.2315L18.7498 21.5669ZM19.9499 19.1669L19.6072 19.3192L19.8575 19.8825L20.2427 19.4012L19.9499 19.1669ZM21.0749 18.1169L21.3091 18.4097L21.5686 18.2021L21.3937 17.9195L21.0749 18.1169ZM15.3748 21.5669L15.6942 21.3703L15.6937 21.3695L15.3748 21.5669ZM30.45 18.192L30.5943 17.8457L30.5846 17.842L30.45 18.192ZM28.05 19.167L27.738 19.375L28.1267 19.958L28.3961 19.3112L28.05 19.167ZM31.425 20.592L31.7677 20.7443L31.7716 20.7356L31.775 20.7266L31.425 20.592ZM29.25 21.6419L29.4177 21.3065L28.7319 20.9636L28.8823 21.7155L29.25 21.6419ZM29.325 23.1419H28.95V23.5169H29.325V23.1419ZM27 18.192L26.6744 18.0059L26.4923 18.3247L26.8071 18.5135L27 18.192ZM35.025 25.8417L35.2902 25.5765L35.2828 25.5692L35.2751 25.5622L35.025 25.8417ZM29.775 23.9667V24.3417H29.7822L29.7894 24.3414L29.775 23.9667ZM35.25 26.0667H35.625V25.9114L35.5152 25.8015L35.25 26.0667ZM35.25 32.0667V32.4417H35.625V32.0667H35.25ZM33.75 32.0667H33.375V32.4417H33.75V32.0667ZM33.75 26.6667H34.125V26.4767L33.9718 26.3643L33.75 26.6667ZM29.775 25.4667V25.8417H29.7848L29.7947 25.8412L29.775 25.4667ZM28.5 25.5417L28.188 25.3337L27.7079 26.0539L28.5616 25.9116L28.5 25.5417ZM29.175 23.9667V23.5917H28.8822L28.8112 23.8757L29.175 23.9667ZM19.5 25.6168L19.4264 25.9845L20.3142 26.162L19.812 25.4087L19.5 25.6168ZM18.825 24.0418L19.1888 23.9508L19.1178 23.6668H18.825V24.0418ZM18.225 25.4668L18.2053 25.8413L18.2152 25.8418H18.225V25.4668ZM14.25 26.6668L14.0375 26.3578L13.875 26.4695V26.6668H14.25ZM14.25 32.0668V32.4418H14.625V32.0668H14.25ZM12.75 32.0668H12.375V32.4418H12.75V32.0668ZM12.75 26.0668L12.4848 25.8016L12.375 25.9115V26.0668H12.75ZM12.975 25.8418L12.7334 25.5549L12.7212 25.5653L12.7098 25.5766L12.975 25.8418ZM18.225 24.0418L18.2106 24.4165L18.2178 24.4168H18.225V24.0418ZM30.075 30.3418L29.763 30.5498L29.8743 30.7168H30.075V30.3418ZM29.925 30.1168L30.237 29.9087L30.2214 29.8853L30.2025 29.8645L29.925 30.1168ZM30.15 30.3418H30.525V29.9668H30.15V30.3418ZM18 30.3418L17.688 30.1337L17.625 30.2282V30.3418H18ZM18.15 30.1168L17.8725 29.8645L17.8536 29.8853L17.838 29.9087L18.15 30.1168ZM24.075 27.5668L24.0625 27.9416L24.075 27.9419L24.0875 27.9416L24.075 27.5668ZM28.575 35.8168V36.1918H28.95V35.8168H28.575ZM19.5 35.8168H19.125V36.1918H19.5V35.8168ZM28.575 30.8668H28.95V30.7115L28.8402 30.6016L28.575 30.8668ZM24.075 29.0668V29.4418H24.0836L24.092 29.4414L24.075 29.0668ZM19.5 30.8668L19.2348 30.6016L19.125 30.7115V30.8668H19.5ZM18.5072 22.7315C18.4473 22.7614 18.3843 22.7669 18.2249 22.7669V23.5169C18.3654 23.5169 18.6024 23.5223 18.8425 23.4023L18.5072 22.7315ZM18.2998 22.6169V23.0669H19.0498V22.6169H18.2998ZM18.386 21.4759C18.2975 21.8301 18.2998 22.2563 18.2998 22.6169H19.0498C19.0498 22.2273 19.0522 21.9036 19.1137 21.6578L18.386 21.4759ZM18.2249 22.0169C18.2978 22.0169 18.4096 22.0171 18.5247 22.0056C18.6357 21.9945 18.7824 21.9698 18.9176 21.9023L18.5821 21.2315C18.5673 21.2389 18.5265 21.2517 18.45 21.2594C18.3776 21.2666 18.302 21.2669 18.2249 21.2669V22.0169ZM16.0498 19.8419C16.0498 21.0239 17.0427 22.0169 18.2249 22.0169V21.2669C17.4569 21.2669 16.7998 20.6097 16.7998 19.8419H16.0498ZM18.2249 17.6669C17.0427 17.6669 16.0498 18.6598 16.0498 19.8419H16.7998C16.7998 19.074 17.4569 18.4169 18.2249 18.4169V17.6669ZM20.2925 19.0146C19.9334 18.2066 19.1257 17.6669 18.2249 17.6669V18.4169C18.824 18.4169 19.3663 18.7772 19.6072 19.3192L20.2925 19.0146ZM20.8406 17.8241C20.468 18.1221 19.9865 18.5208 19.6571 18.9326L20.2427 19.4012C20.5132 19.063 20.9317 18.7116 21.3091 18.4097L20.8406 17.8241ZM16.6972 17.3108C18.0878 16.4498 19.8848 16.907 20.756 18.3143L21.3937 17.9195C20.3149 16.1768 18.0619 15.5839 16.3025 16.673L16.6972 17.3108ZM15.6937 21.3695C14.8328 19.9789 15.2899 18.1819 16.6972 17.3108L16.3025 16.673C14.5598 17.7518 13.9668 20.0048 15.056 21.7643L15.6937 21.3695ZM18.2249 22.7669C17.1546 22.7669 16.2257 22.234 15.6942 21.3703L15.0554 21.7634C15.724 22.8497 16.8951 23.5169 18.2249 23.5169V22.7669ZM30.5846 17.842C29.4284 17.3973 28.1603 17.9272 27.7039 19.0227L28.3961 19.3112C28.6897 18.6068 29.5216 18.2367 30.3154 18.542L30.5846 17.842ZM31.775 20.7266C32.2197 19.5704 31.6899 18.3022 30.5943 17.8457L30.3058 18.5381C31.0102 18.8316 31.3803 19.6636 31.075 20.4574L31.775 20.7266ZM29.775 22.0919C30.6095 22.0919 31.4122 21.5441 31.7677 20.7443L31.0823 20.4397C30.8378 20.9898 30.2906 21.3419 29.775 21.3419V22.0919ZM29.0823 21.9773C29.2175 22.0449 29.3642 22.0696 29.4752 22.0807C29.5903 22.0922 29.7021 22.0919 29.775 22.0919V21.3419C29.6979 21.3419 29.6222 21.3416 29.5498 21.3344C29.4733 21.3268 29.4325 21.314 29.4177 21.3065L29.0823 21.9773ZM29.7 22.6919C29.7 22.3958 29.701 21.9851 29.6177 21.5684L28.8823 21.7155C28.949 22.0488 28.95 22.3881 28.95 22.6919H29.7ZM29.7 23.1419V22.6919H28.95V23.1419H29.7ZM29.641 22.8156C29.5748 22.7991 29.4542 22.7669 29.325 22.7669V23.5169C29.3458 23.5169 29.3753 23.5223 29.459 23.5433L29.641 22.8156ZM29.775 22.8419C29.7542 22.8419 29.7248 22.8366 29.641 22.8156L29.459 23.5433C29.5253 23.5598 29.6458 23.5919 29.775 23.5919V22.8419ZM32.775 19.917C32.775 21.5044 31.4484 22.8419 29.775 22.8419V23.5919C31.8516 23.5919 33.525 21.9295 33.525 19.917H32.775ZM29.85 16.917C31.4374 16.917 32.775 18.2436 32.775 19.917H33.525C33.525 17.8403 31.8625 16.167 29.85 16.167V16.917ZM27.3256 18.378C27.8581 17.4461 28.7831 16.917 29.85 16.917V16.167C28.5169 16.167 27.3419 16.8378 26.6744 18.0059L27.3256 18.378ZM28.362 18.959C28.0229 18.4502 27.6006 18.1151 27.1929 17.8704L26.8071 18.5135C27.1494 18.7189 27.4772 18.9838 27.738 19.375L28.362 18.959ZM23.925 26.6669C26.1671 26.6669 27.9 24.8388 27.9 22.6169H27.15C27.15 24.4449 25.7329 25.9169 23.925 25.9169V26.6669ZM19.875 22.6169C19.875 24.8489 21.6929 26.6669 23.925 26.6669V25.9169C22.1071 25.9169 20.625 24.4347 20.625 22.6169H19.875ZM23.85 18.6419C21.6128 18.6419 19.875 20.4648 19.875 22.6169H20.625C20.625 20.8688 22.0372 19.3919 23.85 19.3919V18.6419ZM27.9 22.6169C27.9 20.3747 26.0719 18.6419 23.85 18.6419V19.3919C25.678 19.3919 27.15 20.809 27.15 22.6169H27.9ZM23.85 20.8919C24.8429 20.8919 25.65 21.6989 25.65 22.6919H26.4C26.4 21.2847 25.2571 20.1419 23.85 20.1419V20.8919ZM22.125 22.6919C22.125 21.6904 22.9405 20.8919 23.85 20.8919V20.1419C22.5094 20.1419 21.375 21.2933 21.375 22.6919H22.125ZM23.85 24.4169C22.8658 24.4169 22.125 23.6185 22.125 22.6919H21.375C21.375 24.0152 22.4342 25.1669 23.85 25.1669V24.4169ZM25.65 22.6919C25.65 23.6677 24.8603 24.4169 23.85 24.4169V25.1669C25.2397 25.1669 26.4 24.116 26.4 22.6919H25.65ZM35.2751 25.5622C33.7768 24.2216 31.8067 23.5133 29.7606 23.5919L29.7894 24.3414C31.6433 24.2701 33.4232 24.9117 34.775 26.1212L35.2751 25.5622ZM35.5152 25.8015L35.2902 25.5765L34.7598 26.1068L34.9848 26.3318L35.5152 25.8015ZM35.625 32.0667V26.0667H34.875V32.0667H35.625ZM33.75 32.4417H35.25V31.6917H33.75V32.4417ZM33.375 26.6667V32.0667H34.125V26.6667H33.375ZM29.7947 25.8412C31.1299 25.7709 32.4702 26.1932 33.5282 26.9691L33.9718 26.3643C32.7798 25.4902 31.27 25.0125 29.7553 25.0922L29.7947 25.8412ZM28.5616 25.9116C28.977 25.8424 29.3228 25.8417 29.775 25.8417V25.0917C29.3272 25.0917 28.923 25.091 28.4384 25.1718L28.5616 25.9116ZM28.8112 23.8757C28.6702 24.44 28.461 24.9242 28.188 25.3337L28.812 25.7497C29.139 25.2592 29.3798 24.6935 29.5388 24.0576L28.8112 23.8757ZM29.775 23.5919L29.175 23.5917V24.3417H29.775V23.5919ZM19.812 25.4087C19.539 24.9992 19.3298 24.515 19.1888 23.9508L18.4612 24.1327C18.6202 24.7685 18.861 25.3343 19.188 25.8248L19.812 25.4087ZM18.225 25.8418C18.6372 25.8418 19.058 25.9108 19.4264 25.9845L19.5736 25.2491C19.192 25.1727 18.7128 25.0918 18.225 25.0918V25.8418ZM14.4625 26.9758C15.6059 26.1896 16.8758 25.7713 18.2053 25.8413L18.2447 25.0923C16.7242 25.0123 15.2941 25.4939 14.0375 26.3578L14.4625 26.9758ZM14.625 32.0668V26.6668H13.875V32.0668H14.625ZM12.75 32.4418H14.25V31.6918H12.75V32.4418ZM12.375 26.0668V32.0668H13.125V26.0668H12.375ZM12.7098 25.5766L12.4848 25.8016L13.0152 26.3319L13.2402 26.1069L12.7098 25.5766ZM18.2394 23.667C16.1942 23.5884 14.2284 24.296 12.7334 25.5549L13.2166 26.1286C14.5716 24.9875 16.3558 24.3452 18.2106 24.4165L18.2394 23.667ZM18.825 23.6668H18.225V24.4168H18.825V23.6668ZM30.387 30.1337L30.237 29.9087L29.613 30.3248L29.763 30.5498L30.387 30.1337ZM30.15 29.9668H30.075V30.7168H30.15V29.9668ZM30.525 36.0418V30.3418H29.775V36.0418H30.525ZM28.875 37.6918C29.7571 37.6918 30.525 36.9239 30.525 36.0418H29.775C29.775 36.5096 29.3429 36.9418 28.875 36.9418V37.6918ZM19.275 37.6918H28.875V36.9418H19.275V37.6918ZM17.625 36.0418C17.625 36.9093 18.3036 37.6918 19.275 37.6918V36.9418C18.7464 36.9418 18.375 36.5243 18.375 36.0418H17.625ZM17.625 30.3418V36.0418H18.375V30.3418H17.625ZM17.838 29.9087L17.688 30.1337L18.312 30.5498L18.462 30.3248L17.838 29.9087ZM24.0875 27.1919C21.7217 27.1131 19.4425 28.1375 17.8725 29.8645L18.4275 30.369C19.8574 28.796 21.9283 27.8704 24.0625 27.9416L24.0875 27.1919ZM30.2025 29.8645C28.6351 28.1404 26.432 27.113 24.0625 27.1919L24.0875 27.9416C26.218 27.8705 28.2149 28.7931 29.6475 30.369L30.2025 29.8645ZM28.575 35.4418H19.5V36.1918H28.575V35.4418ZM28.2 30.8668V35.8168H28.95V30.8668H28.2ZM24.092 29.4414C25.63 29.3714 27.1794 30.0015 28.3098 31.1319L28.8402 30.6016C27.5706 29.3321 25.82 28.6121 24.058 28.6922L24.092 29.4414ZM19.7652 31.1319C20.8857 30.0114 22.4356 29.4418 24.075 29.4418V28.6918C22.2643 28.6918 20.5143 29.3221 19.2348 30.6016L19.7652 31.1319ZM19.875 35.8168V30.8668H19.125V35.8168H19.875Z" fill="url(#paint2_linear_451_871)"/>
<defs>
<linearGradient id="paint0_linear_451_871" x1="13.0513" y1="34.7616" x2="33.8685" y2="31.6195" gradientUnits="userSpaceOnUse">
<stop stop-color="#8D01A2"/>
<stop offset="1" stop-color="#FF00D2"/>
</linearGradient>
<linearGradient id="paint1_linear_451_871" x1="18.8678" y1="32.4399" x2="28.6626" y2="31.0916" gradientUnits="userSpaceOnUse">
<stop stop-color="#8D01A2"/>
<stop offset="1" stop-color="#FF00D2"/>
</linearGradient>
<linearGradient id="paint2_linear_451_871" x1="18.8678" y1="32.4398" x2="28.6626" y2="31.0915" gradientUnits="userSpaceOnUse">
<stop stop-color="#8D01A2"/>
<stop offset="1" stop-color="#FF00D2"/>
</linearGradient>
</defs>
</svg>
