<svg width="48" height="48" viewBox="0 0 48 48" fill="none" xmlns="http://www.w3.org/2000/svg">
<path d="M0.75 5.62538C0.75 3.00072 3.34502 3.00026 5.78842 3.00029C9.52294 3.01098 13.2575 2.98956 16.992 3.0074C17.7716 2.9753 18.4614 3.48175 18.9812 4.0845C20.1014 5.39621 21.262 6.81458 22.416 8.12573C22.697 8.44504 23.1029 8.625 23.5283 8.625C30.2314 8.625 36.7677 8.625 43.3999 8.625C46.125 8.625 47.25 10.5 47.25 13.1254C47.25 21.8071 47.25 30.5629 47.2493 39.1875C47.25 40.8754 47.2493 40.0162 47.2493 41.2504C47.2493 45.0007 44.625 45.0004 43.47 45.0004C42.315 45.0004 16.5 44.982 3.21213 44.9824C2.06251 44.982 0.750004 44.0629 0.750004 42.7504C0.750004 37.1254 0.75 30.7504 0.750008 25.1254C0.750004 24.0004 0.750004 22.3129 0.750004 21.0004C0.750004 18.7504 2.59502 18.3754 3.72003 18.3754C12.72 18.3754 11.19 18.3937 20.22 18.3754C21.4218 18.3729 22.1331 19.3125 22.1331 20.4375C22.1331 21.5625 21.3831 22.4915 20.1946 22.4915C11.0059 22.5129 15.314 22.4736 6.12529 22.5093C4.5885 22.5093 4.47004 23.6996 4.47004 24.7504C4.47004 29.5049 4.47004 34.5671 4.48117 39.3795C4.48309 40.2064 5.15396 40.8754 5.98072 40.8754C18.2202 40.8754 30.4912 40.8754 42.5475 40.8754C43.095 40.8754 43.4805 40.5004 43.485 39.75C43.5352 31.1763 43.4906 22.7423 43.4854 14.2501C43.485 13.4217 42.8134 12.75 41.985 12.7501C35.3599 12.7504 28.735 12.7503 22.11 12.75C21.2085 12.7893 20.4955 11.9701 19.9308 11.2746C18.9624 10.0837 17.9265 8.86736 16.936 7.67198C16.6496 7.32638 16.2249 7.1247 15.7761 7.12436C12.5071 7.12196 9.13196 7.125 5.985 7.125C5.61 7.125 4.875 7.125 4.875 7.85741C4.875 9.35741 4.875 9.33983 4.875 11.2324C4.875 13.125 0.75 13.1254 0.75 11.2504C0.75 9.39296 0.75 7.50038 0.75 5.62538Z" fill="url(#paint0_linear_451_923)"/>
<defs>
<linearGradient id="paint0_linear_451_923" x1="24" y1="45.0004" x2="24" y2="3" gradientUnits="userSpaceOnUse">
<stop stop-color="#00B59C"/>
<stop offset="1" stop-color="#9CFFAC"/>
</linearGradient>
</defs>
</svg>
