<svg width="48" height="48" viewBox="0 0 48 48" fill="none" xmlns="http://www.w3.org/2000/svg">
<g clip-path="url(#clip0_451_861)">
<path d="M6.19933 3.95928C8.13773 3.60414 10.1264 3.8234 12.0849 3.76472C13.9428 3.83575 15.908 3.50532 17.6619 4.23721C19.2918 4.88882 20.3482 6.26614 21.5789 7.38406C22.3368 8.17462 23.2456 9.02392 24.4831 9.00532C31.6498 9.03007 38.8198 9.01462 45.9864 9.06097C47.2139 8.96827 48.2702 10.1449 47.9382 11.2381C47.7604 12.0534 46.8885 12.6586 45.9898 12.6154C38.8198 12.6247 31.6531 12.5907 24.4831 12.5815C23.0109 12.5753 21.5387 12.1275 20.3717 11.2937C18.6915 10.1572 17.6518 8.26725 15.7672 7.41804C13.2184 7.22348 10.6395 7.37789 8.08072 7.33774C5.83378 7.28524 3.82498 9.15667 3.89875 11.2227C3.90211 19.7584 3.8954 28.2911 3.90211 36.8267C3.87864 38.3585 4.9652 39.8223 6.50786 40.3843C7.42674 40.7518 8.4462 40.6622 9.4221 40.6746C19.5902 40.6622 29.7584 40.6777 39.9231 40.6653C42.1566 40.7055 44.1587 38.8557 44.0849 36.799C44.0883 31.9691 44.0883 27.1391 44.0782 22.3092C44.0883 21.7348 44.0749 21.0894 44.5209 20.6293C45.2184 19.7862 46.7444 19.7398 47.4888 20.5551C48.0791 21.0986 47.9717 21.9201 47.9918 22.6211C47.9684 27.4541 48.0086 32.2871 47.9717 37.1201C47.9315 40.863 44.3398 44.155 40.2853 44.2291C29.4263 44.2538 18.5674 44.26 7.70842 44.2291C3.52651 44.1611 -0.118851 40.6653 0.00523174 36.8113C-0.00147546 28.2694 0.00187806 19.7275 0.00187806 11.1887C-0.0819615 7.83187 2.65122 4.68191 6.19933 3.95928Z" fill="url(#paint0_linear_451_861)"/>
<path d="M24 31.725C25.3125 31.725 26.4283 31.2658 27.3474 30.3474C28.2658 29.4283 28.725 28.3125 28.725 27C28.725 25.6875 28.2658 24.5717 27.3474 23.6526C26.4283 22.7342 25.3125 22.275 24 22.275C22.6875 22.275 21.5717 22.7342 20.6526 23.6526C19.7342 24.5717 19.275 25.6875 19.275 27C19.275 28.3125 19.7342 29.4283 20.6526 30.3474C21.5717 31.2658 22.6875 31.725 24 31.725ZM24 29.625C23.265 29.625 22.6438 29.3713 22.1362 28.8638C21.6287 28.3562 21.375 27.735 21.375 27C21.375 26.265 21.6287 25.6438 22.1362 25.1363C22.6438 24.6287 23.265 24.375 24 24.375C24.735 24.375 25.3562 24.6287 25.8638 25.1363C26.3713 25.6438 26.625 26.265 26.625 27C26.625 27.735 26.3713 28.3562 25.8638 28.8638C25.3562 29.3713 24.735 29.625 24 29.625ZM15.6 35.4C15.0225 35.4 14.5283 35.1946 14.1174 34.7837C13.7058 34.3721 13.5 33.8775 13.5 33.3V20.7C13.5 20.1225 13.7058 19.6283 14.1174 19.2174C14.5283 18.8058 15.0225 18.6 15.6 18.6H18.5796C18.7886 18.6 18.9882 18.5128 19.1302 18.3593L20.6273 16.7407C20.7693 16.5872 20.9689 16.5 21.1779 16.5H26.8221C27.0311 16.5 27.2307 16.5872 27.3727 16.7407L28.8698 18.3593C29.0118 18.5128 29.2114 18.6 29.4204 18.6H32.4C32.9775 18.6 33.472 18.8058 33.8836 19.2174C34.2946 19.6283 34.5 20.1225 34.5 20.7V33.3C34.5 33.8775 34.2946 34.3721 33.8836 34.7837C33.472 35.1946 32.9775 35.4 32.4 35.4H15.6ZM31.65 33.3C32.0642 33.3 32.4 32.9642 32.4 32.55V21.45C32.4 21.0358 32.0642 20.7 31.65 20.7H28.4785C28.2676 20.7 28.0665 20.6113 27.9245 20.4556L26.4543 18.8444C26.3122 18.6887 26.1111 18.6 25.9003 18.6H22.0997C21.8889 18.6 21.6878 18.6887 21.5457 18.8444L20.0756 20.4556C19.9335 20.6113 19.7323 20.7 19.5215 20.7H16.35C15.9358 20.7 15.6 21.0358 15.6 21.45V32.55C15.6 32.9642 15.9358 33.3 16.35 33.3H31.65Z" fill="url(#paint1_linear_451_861)" stroke="url(#paint2_linear_451_861)"/>
</g>
<defs>
<linearGradient id="paint0_linear_451_861" x1="24" y1="44.25" x2="24" y2="3.75" gradientUnits="userSpaceOnUse">
<stop stop-color="#FD2E00"/>
<stop offset="1" stop-color="#FF9900"/>
</linearGradient>
<linearGradient id="paint1_linear_451_861" x1="24" y1="35.4" x2="24" y2="16.5" gradientUnits="userSpaceOnUse">
<stop stop-color="#FD2E00"/>
<stop offset="1" stop-color="#FF9900"/>
</linearGradient>
<linearGradient id="paint2_linear_451_861" x1="24" y1="35.4" x2="24" y2="16.5" gradientUnits="userSpaceOnUse">
<stop stop-color="#FD2E00"/>
<stop offset="1" stop-color="#FF9900"/>
</linearGradient>
<clipPath id="clip0_451_861">
<rect width="48" height="48" fill="white"/>
</clipPath>
</defs>
</svg>
