<svg width="48" height="48" viewBox="0 0 48 48" fill="none" xmlns="http://www.w3.org/2000/svg">
<g clip-path="url(#clip0_451_837)">
<path d="M6.19009 3.9634C8.13172 3.60208 10.1271 3.82443 12.0922 3.76576C14.0909 3.82752 16.2472 3.47239 18.0782 4.42352C19.9561 5.42716 21.1365 7.18737 22.7696 8.4597C23.3565 8.87655 24.1077 9.03097 24.8354 9.0186C31.7737 9.00937 38.7087 9.0402 45.647 9.05565C46.5793 8.95995 47.6155 9.39225 47.8871 10.2724C48.3633 11.4026 47.26 12.7367 45.9455 12.6132C38.7892 12.6224 31.6328 12.5915 24.4765 12.5823C23.001 12.573 21.5255 12.1252 20.3618 11.2852C18.8863 10.1921 17.7864 8.72835 16.3142 7.63822C15.0198 7.04532 13.5007 7.44677 12.1123 7.3356C10.2545 7.44677 8.30947 7.06076 6.51203 7.6197C4.97614 8.18482 3.88291 9.64245 3.90638 11.1741C3.89968 19.722 3.89968 28.2729 3.90638 36.8239C3.87955 38.3556 4.97279 39.8255 6.51538 40.3876C7.43088 40.7427 8.44365 40.6655 9.4128 40.6747C19.5872 40.6593 29.7616 40.6809 39.9327 40.6624C41.5826 40.6778 43.1587 39.6835 43.7758 38.2783C44.2084 37.3273 44.0675 36.2742 44.0876 35.2705C44.0943 30.7527 44.0641 26.2348 44.101 21.7169C44.0709 20.6731 45.2043 19.8053 46.3143 19.9845C47.3606 20.0863 48.0984 21.0468 47.981 21.9886C47.9877 26.9327 47.9877 31.8736 47.9843 36.8146C48.1051 40.6655 44.4599 44.1612 40.2848 44.2291C29.423 44.257 18.5577 44.257 7.69913 44.2291C3.65488 44.155 0.0666661 40.8724 0.0197175 37.1389C-0.0171706 28.486 0.00965683 19.8331 0.00630331 11.1803C-0.0775335 7.8297 2.64883 4.6891 6.19009 3.9634Z" fill="url(#paint0_linear_451_837)"/>
<path fill-rule="evenodd" clip-rule="evenodd" d="M22.9787 24.6582C21.7905 24.5561 20.6313 24.2767 19.5391 23.8309C19.4165 24.5418 19.3373 25.2587 19.3006 25.9787H22.9787V24.6582ZM25.0213 24.6587C26.2085 24.5566 27.3682 24.2783 28.4625 23.834C28.584 24.5438 28.6626 25.2602 28.6994 25.9787H25.0213V24.6587ZM22.9787 29.8524C21.8196 29.9515 20.688 30.2196 19.6193 30.646C19.4513 29.78 19.3451 28.9021 19.3006 28.0213H22.9787V29.8524ZM25.0213 29.852C26.1804 29.9515 27.312 30.2196 28.3807 30.646C28.5487 29.7794 28.6549 28.9021 28.6994 28.0213H25.0213V29.852ZM22.9787 31.9037C21.9983 32.0048 21.0434 32.2509 20.1437 32.6308C20.3362 33.2017 20.5731 33.7578 20.8493 34.2971C21.0638 34.7107 21.314 35.1089 21.6 35.4817C21.84 35.7932 22.1107 36.0791 22.412 36.3293C22.5876 36.4723 22.7765 36.5938 22.9787 36.6965V31.9037ZM25.0213 31.9037C26.0017 32.0053 26.9566 32.2524 27.8558 32.6329C27.6633 33.2027 27.4269 33.7583 27.1507 34.2971C26.9362 34.7107 26.686 35.1089 26.4 35.4817C26.16 35.7932 25.8893 36.0791 25.5881 36.3293C25.4124 36.4723 25.2235 36.5938 25.0213 36.6965V31.9037ZM22.9787 22.6069C21.9442 22.4998 20.9377 22.2307 19.996 21.814C20.2162 21.0873 20.5016 20.3816 20.8493 19.7029C21.0638 19.2893 21.314 18.8911 21.6 18.5183C21.84 18.2068 22.1107 17.9209 22.412 17.6707C22.5876 17.5276 22.7765 17.4062 22.9787 17.3035V22.6069ZM25.0213 22.6069C26.0548 22.5002 27.0618 22.2332 28.0054 21.8191C27.7853 21.0914 27.4994 20.3836 27.1507 19.7029C26.9362 19.2893 26.686 18.8911 26.4 18.5183C26.16 18.2068 25.8893 17.9209 25.5881 17.6707C25.4124 17.5276 25.2235 17.4062 25.0213 17.3035V22.6069ZM33.9049 25.9787C33.7358 24.3437 33.1639 22.7791 32.2483 21.4233L31.966 21.674C31.4645 22.1198 30.9293 22.5197 30.3641 22.8659C30.5699 23.8918 30.6965 24.9335 30.7445 25.9787H33.9049ZM33.9049 28.0213C33.7226 29.784 33.0725 31.465 32.0298 32.8912C31.4824 32.398 30.8936 31.9593 30.2686 31.586C30.2768 31.5518 30.2839 31.5176 30.2911 31.4834C30.5402 30.3452 30.6909 29.1855 30.7445 28.0213H33.9049ZM14.0951 28.0213C14.2775 29.785 14.928 31.466 15.9713 32.8927C16.5182 32.3995 17.1064 31.9604 17.7319 31.5871C17.7232 31.5524 17.7161 31.5182 17.7089 31.4834C17.4598 30.3452 17.3091 29.1855 17.2555 28.0213H14.0951ZM19.3588 35.806C18.6358 35.4286 17.9581 34.9593 17.3428 34.4083C17.6569 34.1249 17.9867 33.8635 18.332 33.6255C18.5321 34.1719 18.7669 34.706 19.0315 35.2264C19.1331 35.424 19.2413 35.618 19.3588 35.806ZM29.668 33.626C30.0133 33.864 30.3442 34.1249 30.6582 34.4073C30.0424 34.9588 29.3648 35.4286 28.6412 35.806C28.7587 35.618 28.8669 35.424 28.9685 35.2264C29.233 34.7065 29.4679 34.1724 29.668 33.626ZM19.3491 18.2104C18.5193 18.6429 17.756 19.1995 17.0813 19.8587C17.4286 20.1953 17.7988 20.5042 18.1853 20.7871C18.4157 20.0967 18.7006 19.4247 19.0315 18.7736C19.13 18.5816 19.2352 18.3932 19.3491 18.2104ZM29.8111 20.7784C30.0889 20.5859 30.3533 20.3735 30.6076 20.1473L30.9371 19.8551C30.2513 19.1913 29.4802 18.6347 28.6463 18.2027C28.7622 18.388 28.8684 18.5791 28.9685 18.7736C29.2978 19.4211 29.5818 20.0906 29.8111 20.7784ZM14.3847 24.406C14.2325 24.9473 13.6682 25.2628 13.126 25.1107C12.5837 24.9585 12.2666 24.3932 12.4187 23.8493L12.4749 23.6451C12.6301 23.1013 13.1964 22.7842 13.7387 22.9378C14.2811 23.0916 14.596 23.6553 14.4409 24.1966L14.3847 24.406ZM14.0426 25.9787C12.9151 25.9787 12 26.4362 12 27C12 30.1813 13.2664 33.2349 15.5132 35.4868C17.7651 37.7336 20.8187 39 24 39C27.1813 39 30.2349 37.7336 32.4868 35.4868C34.7336 33.2349 36 30.1813 36 27C36 23.8187 34.7336 20.7651 32.4868 18.5132C30.2349 16.2664 27.1813 15 24 15C19.8689 15.0051 16.0187 17.1345 13.8281 20.6374C13.5293 21.1138 13.6749 21.743 14.1524 22.0417C14.6298 22.3404 15.2604 22.1964 15.5591 21.72C15.6225 21.6189 15.6878 21.5188 15.7552 21.4208C16.3348 21.9687 16.964 22.4533 17.6354 22.8638C17.4302 23.8918 17.3035 24.932 17.2555 25.9787H14.0426Z" fill="url(#paint1_linear_451_837)"/>
</g>
<defs>
<linearGradient id="paint0_linear_451_837" x1="24" y1="44.25" x2="24" y2="3.75" gradientUnits="userSpaceOnUse">
<stop stop-color="#5570FF"/>
<stop offset="1" stop-color="#4DD3FF"/>
</linearGradient>
<linearGradient id="paint1_linear_451_837" x1="24" y1="39" x2="24" y2="15" gradientUnits="userSpaceOnUse">
<stop stop-color="#5570FF"/>
<stop offset="1" stop-color="#4DD3FF"/>
</linearGradient>
<clipPath id="clip0_451_837">
<rect width="48" height="48" fill="white"/>
</clipPath>
</defs>
</svg>
