<svg width="48" height="48" viewBox="0 0 48 48" fill="none" xmlns="http://www.w3.org/2000/svg">
<g clip-path="url(#clip0_451_929)">
<path d="M6.19009 3.9634C8.13172 3.60208 10.1271 3.82443 12.0922 3.76576C14.0909 3.82752 16.2472 3.47239 18.0782 4.42352C19.9561 5.42716 21.1365 7.18737 22.7696 8.4597C23.3565 8.87655 24.1077 9.03097 24.8354 9.0186C31.7737 9.00937 38.7087 9.0402 45.647 9.05565C46.5793 8.95995 47.6155 9.39225 47.8871 10.2724C48.3633 11.4026 47.26 12.7367 45.9455 12.6132C38.7892 12.6224 31.6328 12.5915 24.4765 12.5823C23.001 12.573 21.5255 12.1252 20.3618 11.2852C18.8863 10.1921 17.7864 8.72835 16.3142 7.63822C15.0198 7.04532 13.5007 7.44677 12.1123 7.3356C10.2545 7.44677 8.30947 7.06076 6.51203 7.6197C4.97614 8.18482 3.88291 9.64245 3.90638 11.1741C3.89968 19.722 3.89968 28.2729 3.90638 36.8239C3.87955 38.3556 4.97279 39.8255 6.51538 40.3876C7.43088 40.7427 8.44365 40.6655 9.4128 40.6747C19.5872 40.6593 29.7616 40.6809 39.9327 40.6624C41.5826 40.6778 43.1587 39.6835 43.7758 38.2783C44.2084 37.3273 44.0675 36.2742 44.0876 35.2705C44.0943 30.7527 44.0641 26.2348 44.101 21.7169C44.0709 20.6731 45.2043 19.8053 46.3143 19.9845C47.3606 20.0863 48.0984 21.0468 47.981 21.9886C47.9877 26.9327 47.9877 31.8736 47.9843 36.8146C48.1051 40.6655 44.4599 44.1612 40.2848 44.2291C29.423 44.257 18.5577 44.257 7.69913 44.2291C3.65488 44.155 0.0666661 40.8724 0.0197175 37.1389C-0.0171706 28.486 0.00965683 19.8331 0.0063033 11.1803C-0.0775335 7.8297 2.64883 4.6891 6.19009 3.9634Z" fill="url(#paint0_linear_451_929)"/>
<path fill-rule="evenodd" clip-rule="evenodd" d="M23.0426 24.8046C21.9286 24.7088 20.8418 24.4469 19.8178 24.029C19.703 24.6954 19.6288 25.3676 19.5943 26.0426H23.0426V24.8046ZM24.9574 24.805C26.0705 24.7093 27.1576 24.4484 28.1836 24.0319C28.2975 24.6973 28.3711 25.369 28.4057 26.0426H24.9574V24.805ZM23.0426 29.6741C21.9559 29.767 20.895 30.0184 19.8931 30.4181C19.7356 29.6062 19.636 28.7833 19.5943 27.9574H23.0426V29.6741ZM24.9574 29.6737C26.0441 29.767 27.105 30.0184 28.1069 30.4181C28.2644 29.6057 28.364 28.7833 28.4057 27.9574H24.9574V29.6737ZM23.0426 31.5972C22.1234 31.6919 21.2282 31.9227 20.3847 32.2789C20.5651 32.8141 20.7873 33.3355 21.0463 33.841C21.2474 34.2287 21.4819 34.6022 21.75 34.9516C21.975 35.2436 22.2287 35.5117 22.5112 35.7463C22.6759 35.8803 22.853 35.9942 23.0426 36.0905V31.5972ZM24.9574 31.5972C25.8766 31.6925 26.7718 31.9241 27.6149 32.2808C27.4343 32.815 27.2127 33.3359 26.9537 33.841C26.7527 34.2287 26.5181 34.6022 26.25 34.9516C26.025 35.2436 25.7713 35.5117 25.4888 35.7463C25.3241 35.8803 25.147 35.9942 24.9574 36.0905V31.5972ZM23.0426 22.8815C22.0727 22.781 21.1291 22.5287 20.2463 22.1381C20.4527 21.4568 20.7203 20.7953 21.0463 20.159C21.2474 19.7713 21.4819 19.3978 21.75 19.0484C21.975 18.7564 22.2287 18.4883 22.5112 18.2537C22.6759 18.1197 22.853 18.0058 23.0426 17.9095V22.8815ZM24.9574 22.8815C25.9264 22.7815 26.8704 22.5311 27.7551 22.1428C27.5488 21.4607 27.2807 20.7972 26.9537 20.159C26.7527 19.7713 26.5181 19.3978 26.25 19.0484C26.025 18.7564 25.7713 18.4883 25.4888 18.2537C25.3241 18.1197 25.147 18.0058 24.9574 17.9095V22.8815ZM33.2858 26.0426C33.1273 24.5097 32.5912 23.0429 31.7328 21.7718L31.4681 22.0069C30.998 22.4249 30.4963 22.7997 29.9663 23.1242C30.1592 24.086 30.278 25.0626 30.323 26.0426H33.2858ZM33.2858 27.9574C33.1149 29.61 32.5055 31.186 31.528 32.5231C31.0148 32.0606 30.4628 31.6493 29.8768 31.2994C29.8844 31.2673 29.8912 31.2353 29.8979 31.2032C30.1315 30.1361 30.2727 29.0489 30.323 27.9574H33.2858ZM14.7142 27.9574C14.8851 29.611 15.495 31.1869 16.4731 32.5244C16.9858 32.062 17.5372 31.6503 18.1237 31.3003C18.1156 31.2678 18.1088 31.2358 18.1021 31.2032C17.8685 30.1361 17.7273 29.0489 17.677 27.9574H14.7142ZM19.6489 35.2556C18.971 34.9018 18.3358 34.4618 17.7589 33.9453C18.0533 33.6796 18.3625 33.4345 18.6862 33.2114C18.8738 33.7237 19.094 34.2244 19.342 34.7123C19.4373 34.8975 19.5388 35.0794 19.6489 35.2556ZM29.3138 33.2119C29.6374 33.435 29.9476 33.6797 30.2421 33.9443C29.6647 34.4614 29.0294 34.9018 28.3511 35.2556C28.4612 35.0794 28.5627 34.8975 28.658 34.7123C28.906 34.2249 29.1262 33.7241 29.3138 33.2119ZM19.6398 18.7598C18.8618 19.1652 18.1462 19.687 17.5138 20.3051C17.8393 20.6206 18.1864 20.9102 18.5488 21.1754C18.7647 20.5282 19.0318 19.8982 19.342 19.2877C19.4344 19.1077 19.5331 18.9311 19.6398 18.7598ZM29.4479 21.1672C29.7083 20.9867 29.9563 20.7876 30.1947 20.5756L30.5035 20.3017C29.8606 19.6793 29.1376 19.1576 28.3559 18.7526C28.4645 18.9263 28.5641 19.1053 28.658 19.2877C28.9667 19.8948 29.233 20.5224 29.4479 21.1672ZM14.9857 24.5681C14.843 25.0756 14.314 25.3714 13.8056 25.2287C13.2972 25.0861 12.9999 24.5561 13.1425 24.0463L13.1952 23.8548C13.3408 23.345 13.8716 23.0477 14.3801 23.1917C14.8885 23.3359 15.1838 23.8643 15.0383 24.3718L14.9857 24.5681ZM14.6649 26.0426C13.6078 26.0426 12.75 26.4715 12.75 27C12.75 29.9824 13.9373 32.8452 16.0436 34.9564C18.1548 37.0628 21.0176 38.25 24 38.25C26.9824 38.25 29.8452 37.0628 31.9564 34.9564C34.0628 32.8452 35.25 29.9824 35.25 27C35.25 24.0176 34.0628 21.1548 31.9564 19.0436C29.8452 16.9373 26.9824 15.75 24 15.75C20.1272 15.7548 16.5176 17.7511 14.4638 21.0351C14.1838 21.4817 14.3202 22.0715 14.7678 22.3516C15.2155 22.6316 15.8066 22.4966 16.0867 22.05C16.1461 21.9552 16.2073 21.8614 16.2706 21.7694C16.8139 22.2832 17.4037 22.7374 18.0332 23.1223C17.8408 24.086 17.722 25.0612 17.677 26.0426H14.6649Z" fill="url(#paint1_linear_451_929)"/>
</g>
<defs>
<linearGradient id="paint0_linear_451_929" x1="24" y1="3.75" x2="24" y2="44.25" gradientUnits="userSpaceOnUse">
<stop stop-color="#DC18FC"/>
<stop offset="1" stop-color="#8E1EFF"/>
</linearGradient>
<linearGradient id="paint1_linear_451_929" x1="24" y1="15.75" x2="24" y2="38.25" gradientUnits="userSpaceOnUse">
<stop stop-color="#DC18FC"/>
<stop offset="1" stop-color="#8E1EFF"/>
</linearGradient>
<clipPath id="clip0_451_929">
<rect width="48" height="48" fill="white"/>
</clipPath>
</defs>
</svg>
