<svg width="48" height="48" viewBox="0 0 48 48" fill="none" xmlns="http://www.w3.org/2000/svg">
<g clip-path="url(#clip0_451_936)">
<path d="M6.19378 3.96389C8.13548 3.60569 10.1308 3.81875 12.0993 3.76317C14.1617 3.81875 16.4253 3.46982 18.2731 4.52897C20.0337 5.55414 21.1907 7.21851 22.76 8.44748C23.3369 8.8767 24.0914 9.0249 24.8158 9.01568C31.8748 9.01568 38.934 9.0342 45.9931 9.07125C47.3111 8.9601 48.3842 10.328 47.8677 11.4489C47.576 12.3043 46.5565 12.7088 45.6377 12.6192C38.5919 12.6069 31.5429 12.5976 24.4938 12.5822C22.5186 12.5976 20.6205 11.7454 19.3127 10.3991C18.1256 9.42945 17.267 8.02755 15.7814 7.41923C13.2294 7.22777 10.6472 7.37909 8.08515 7.34203C5.85172 7.28954 3.84297 9.1392 3.91004 11.1957C3.90669 19.7368 3.90669 28.2778 3.9134 36.8158C3.84968 38.857 5.8316 40.6881 8.04158 40.6572C18.5648 40.6757 29.0914 40.6572 39.6148 40.6696C41.2177 40.7529 42.8274 39.9624 43.5853 38.6501C44.2292 37.6218 44.0782 36.3959 44.0917 35.2596C44.0983 30.7482 44.0682 26.2337 44.1084 21.7192C44.0782 20.6848 45.1916 19.814 46.2949 19.9838C47.358 20.0764 48.0991 21.046 47.9851 22.0002C47.9884 27.0458 48.0119 32.0914 47.9717 37.137C47.9247 40.8764 44.3264 44.165 40.2754 44.2299C29.5341 44.27 18.7895 44.2361 8.04825 44.2454C3.87316 44.3256 0.0535192 40.9845 0.0166307 37.1247C-0.0135508 28.4755 0.00656997 19.8233 0.00656997 11.1741C-0.0705605 7.8237 2.65583 4.68645 6.19378 3.96389Z" fill="url(#paint0_linear_451_936)"/>
<path fill-rule="evenodd" clip-rule="evenodd" d="M32.1818 32.5909H15.8182C14.6932 32.5909 13.7727 31.6705 13.7727 30.5455V19.2955C13.7727 18.1705 14.6932 17.25 15.8182 17.25H32.1818C33.3068 17.25 34.2273 18.1705 34.2273 19.2955L34.217 30.5455C34.217 31.6705 33.3068 32.5909 32.1818 32.5909ZM16.1182 19.2955C15.9525 19.2955 15.8182 19.4298 15.8182 19.5955V30.2455C15.8182 30.4111 15.9525 30.5455 16.1182 30.5455H31.8818C32.0475 30.5455 32.1818 30.4111 32.1818 30.2455V19.5955C32.1818 19.4298 32.0475 19.2955 31.8818 19.2955H16.1182ZM12.9 34.6363H35.1C35.1829 34.6363 35.25 34.7035 35.25 34.7863V36.5318C35.25 36.6146 35.1829 36.6818 35.1 36.6818H12.9C12.8171 36.6818 12.75 36.6146 12.75 36.5318V34.7863C12.75 34.7035 12.8171 34.6363 12.9 34.6363Z" fill="url(#paint1_linear_451_936)"/>
<path d="M15.8182 32.9659H32.1818V32.2159H15.8182V32.9659ZM13.3977 30.5455C13.3977 31.8775 14.4861 32.9659 15.8182 32.9659V32.2159C14.9003 32.2159 14.1477 31.4633 14.1477 30.5455H13.3977ZM13.3977 19.2955V30.5455H14.1477V19.2955H13.3977ZM15.8182 16.875C14.4861 16.875 13.3977 17.9633 13.3977 19.2955H14.1477C14.1477 18.3776 14.9003 17.625 15.8182 17.625V16.875ZM32.1818 16.875H15.8182V17.625H32.1818V16.875ZM34.6023 19.2958C34.6023 17.9636 33.5139 16.875 32.1818 16.875V17.625C33.0997 17.625 33.8523 18.3776 33.8523 19.2955L34.6023 19.2958ZM34.592 30.5458L34.6023 19.2958L33.8523 19.2955L33.842 30.5451L34.592 30.5458ZM32.1818 32.9659C33.5164 32.9659 34.592 31.8754 34.592 30.5458L33.842 30.5451C33.842 31.4654 33.0973 32.2159 32.1818 32.2159V32.9659ZM16.1932 19.5955C16.1932 19.6369 16.1596 19.6705 16.1182 19.6705V18.9205C15.7454 18.9205 15.4432 19.2227 15.4432 19.5955H16.1932ZM16.1932 30.2455V19.5955H15.4432V30.2455H16.1932ZM16.1182 30.1705C16.1596 30.1705 16.1932 30.204 16.1932 30.2455H15.4432C15.4432 30.6182 15.7454 30.9205 16.1182 30.9205V30.1705ZM31.8818 30.1705H16.1182V30.9205H31.8818V30.1705ZM31.8068 30.2455C31.8068 30.204 31.8404 30.1705 31.8818 30.1705V30.9205C32.2546 30.9205 32.5568 30.6182 32.5568 30.2455H31.8068ZM31.8068 19.5955V30.2455H32.5568V19.5955H31.8068ZM31.8818 19.6705C31.8404 19.6705 31.8068 19.6369 31.8068 19.5955H32.5568C32.5568 19.2227 32.2546 18.9205 31.8818 18.9205V19.6705ZM16.1182 19.6705H31.8818V18.9205H16.1182V19.6705ZM35.1 34.2613H12.9V35.0113H35.1V34.2613ZM35.625 34.7863C35.625 34.4964 35.3899 34.2613 35.1 34.2613V35.0113C34.9757 35.0113 34.875 34.9106 34.875 34.7863H35.625ZM35.625 36.5318V34.7863H34.875V36.5318H35.625ZM35.1 37.0568C35.3899 37.0568 35.625 36.8218 35.625 36.5318H34.875C34.875 36.4075 34.9757 36.3068 35.1 36.3068V37.0568ZM12.9 37.0568H35.1V36.3068H12.9V37.0568ZM12.375 36.5318C12.375 36.8218 12.6101 37.0568 12.9 37.0568V36.3068C13.0243 36.3068 13.125 36.4075 13.125 36.5318H12.375ZM12.375 34.7863V36.5318H13.125V34.7863H12.375ZM12.9 34.2613C12.6101 34.2613 12.375 34.4964 12.375 34.7863H13.125C13.125 34.9106 13.0243 35.0113 12.9 35.0113V34.2613Z" fill="url(#paint2_linear_451_936)"/>
</g>
<defs>
<linearGradient id="paint0_linear_451_936" x1="39.3135" y1="3.75" x2="7.66508" y2="49.5472" gradientUnits="userSpaceOnUse">
<stop stop-color="#DE00C0"/>
<stop offset="1" stop-color="#8720FF"/>
</linearGradient>
<linearGradient id="paint1_linear_451_936" x1="31.1782" y1="17.25" x2="15.8714" y2="38.8898" gradientUnits="userSpaceOnUse">
<stop stop-color="#DE00C0"/>
<stop offset="1" stop-color="#8720FF"/>
</linearGradient>
<linearGradient id="paint2_linear_451_936" x1="31.1782" y1="17.25" x2="15.8714" y2="38.8898" gradientUnits="userSpaceOnUse">
<stop stop-color="#DE00C0"/>
<stop offset="1" stop-color="#8720FF"/>
</linearGradient>
<clipPath id="clip0_451_936">
<rect width="48" height="48" fill="white"/>
</clipPath>
</defs>
</svg>
