<svg width="48" height="48" viewBox="0 0 48 48" fill="none" xmlns="http://www.w3.org/2000/svg">
<g clip-path="url(#clip0_451_944)">
<path d="M6.19378 3.96389C8.13548 3.60569 10.1308 3.81875 12.0993 3.76317C14.1617 3.81875 16.4253 3.46982 18.2731 4.52897C20.0337 5.55414 21.1907 7.21851 22.76 8.44748C23.3369 8.8767 24.0914 9.0249 24.8158 9.01568C31.8748 9.01568 38.934 9.0342 45.9931 9.07125C47.3111 8.9601 48.3842 10.328 47.8677 11.4489C47.576 12.3043 46.5565 12.7088 45.6377 12.6192C38.5919 12.6069 31.5429 12.5976 24.4938 12.5822C22.5186 12.5976 20.6205 11.7454 19.3127 10.3991C18.1256 9.42945 17.267 8.02755 15.7814 7.41923C13.2294 7.22777 10.6472 7.37909 8.08515 7.34203C5.85172 7.28954 3.84297 9.1392 3.91004 11.1957C3.90669 19.7368 3.90669 28.2778 3.9134 36.8158C3.84968 38.857 5.8316 40.6881 8.04158 40.6572C18.5648 40.6757 29.0914 40.6572 39.6148 40.6696C41.2177 40.7529 42.8274 39.9624 43.5853 38.6501C44.2292 37.6218 44.0782 36.3959 44.0917 35.2596C44.0983 30.7482 44.0682 26.2337 44.1084 21.7192C44.0782 20.6848 45.1916 19.814 46.2949 19.9838C47.358 20.0764 48.0991 21.046 47.9851 22.0002C47.9884 27.0458 48.0119 32.0914 47.9717 37.137C47.9247 40.8764 44.3264 44.165 40.2754 44.2299C29.5341 44.27 18.7895 44.2361 8.04825 44.2454C3.87316 44.3256 0.0535192 40.9845 0.0166307 37.1247C-0.0135508 28.4755 0.00656997 19.8233 0.00656997 11.1741C-0.0705605 7.8237 2.65583 4.68645 6.19378 3.96389Z" fill="url(#paint0_linear_451_944)"/>
<path d="M24.5274 16.7167C24.2352 16.4278 23.7648 16.4278 23.4726 16.7167L22.7662 17.4154C22.7642 17.4173 22.7642 17.4203 22.7661 17.4223C22.768 17.4241 22.768 17.4271 22.7661 17.429L13.5024 26.6893C13.5009 26.6909 13.5 26.693 13.5 26.6952V27.6952C13.5 28.1094 13.8358 28.4452 14.25 28.4452H14.5137C14.9279 28.4452 15.2637 28.7809 15.2637 29.1952V35.4384C15.2637 35.4421 15.2606 35.4451 15.2568 35.4451C15.253 35.4451 15.25 35.4483 15.25 35.452V36.4452C15.25 36.8593 15.5857 37.1952 16 37.1952H31.9999C32.4142 37.1952 32.7499 36.8593 32.7499 36.4452V35.4451V29.1952C32.7499 28.7809 33.0858 28.4452 33.4999 28.4452H33.75C34.1642 28.4452 34.5 28.1094 34.5 27.6952V26.6952C34.5 26.693 34.4991 26.6909 34.4976 26.6893L33.0308 25.2226C32.738 24.9297 32.2631 24.9297 31.9701 25.2226L31.5007 25.6921C31.3752 25.8175 31.3752 26.021 31.5007 26.1466L31.5246 26.1705C31.7182 26.3641 31.5811 26.6952 31.3074 26.6952C31.1376 26.6952 31.0001 26.8327 31.0001 27.0025V34.6951C31.0001 35.1094 30.6642 35.4451 30.2501 35.4451H26.5C26.0858 35.4451 25.75 35.1094 25.75 34.6951V30.9451C25.75 30.531 25.4142 30.1951 25 30.1951H23C22.5858 30.1951 22.25 30.531 22.25 30.9451V34.6951C22.25 35.1094 21.9143 35.4451 21.5 35.4451H17.75C17.3358 35.4451 17 35.1094 17 34.6951V28.4452V27.0025C17 26.8327 16.8624 26.6952 16.6927 26.6952C16.4189 26.6952 16.2819 26.3641 16.4755 26.1706L23.9949 18.6544H23.9983H24.0017L24.0051 18.6544L25.9955 20.6421C26.2885 20.9347 26.7631 20.9345 27.0558 20.6418L27.2223 20.4754C27.5152 20.1823 27.5151 19.7072 27.2218 19.4143L25.2339 17.429C25.232 17.4271 25.232 17.4241 25.2339 17.4223C25.2358 17.4203 25.2358 17.4173 25.2338 17.4154L24.5274 16.7167ZM30 17.9452C29.5858 17.9452 29.25 18.2809 29.25 18.6952V22.4452C29.25 22.8594 29.5858 23.1952 30 23.1952H30.2637C30.6779 23.1952 31.0137 22.8594 31.0137 22.4452V18.6952C31.0137 18.2809 30.6779 17.9452 30.2637 17.9452H30Z" fill="url(#paint1_linear_451_944)" stroke="url(#paint2_linear_451_944)" stroke-width="2"/>
</g>
<defs>
<linearGradient id="paint0_linear_451_944" x1="24" y1="44.25" x2="24" y2="3.75" gradientUnits="userSpaceOnUse">
<stop stop-color="#02AA93"/>
<stop offset="1" stop-color="#67FF80"/>
</linearGradient>
<linearGradient id="paint1_linear_451_944" x1="24" y1="37.1952" x2="24" y2="16.5" gradientUnits="userSpaceOnUse">
<stop stop-color="#02AA93"/>
<stop offset="1" stop-color="#67FF80"/>
</linearGradient>
<linearGradient id="paint2_linear_451_944" x1="24" y1="37.1952" x2="24" y2="16.5" gradientUnits="userSpaceOnUse">
<stop stop-color="#02AA93"/>
<stop offset="1" stop-color="#67FF80"/>
</linearGradient>
<clipPath id="clip0_451_944">
<rect width="48" height="48" fill="white"/>
</clipPath>
</defs>
</svg>
