<svg width="128" height="128" viewBox="0 0 128 128" fill="none" xmlns="http://www.w3.org/2000/svg">
<path d="M103.905 7.03342C107.743 7.01886 111.426 8.41177 114.586 10.5048C118.373 13.429 121.085 17.6806 121.866 22.399C122.036 25.6334 122.007 28.8752 121.977 32.1166C121.964 33.4716 121.951 34.8277 121.955 36.1821L121.953 72.7482C121.999 83.2322 122.003 93.7162 121.961 104.201C121.902 110.633 117.983 116.773 112.245 119.742C109.262 121.36 105.813 121.915 102.44 121.885C98.8087 121.879 95.1776 121.877 91.546 121.877C87.0436 121.876 83.4773 121.885 83.4194 121.885C83.3605 121.885 59.4427 121.881 50.2164 121.874L45.597 121.871C42.9395 121.865 40.281 121.872 37.6223 121.879C33.1909 121.89 28.7584 121.901 24.329 121.856C20.4173 121.892 16.6898 120.471 13.4337 118.421L13.1021 118.229C12.9798 118.158 12.8652 118.075 12.7612 117.979C9.32644 114.809 6.54085 110.648 6.19245 105.907C6.05245 104.361 5.99332 102.815 6.0006 101.269C6.01674 90.1056 6.01311 78.9423 6.00947 67.7783V67.7094C6.0048 53.3789 6.00025 39.0485 6.03744 24.7181C6.01538 15.4564 14.2514 7.18661 23.5998 7.04809C34.4142 6.98236 45.236 6.98975 56.0504 7.0407C57.951 6.8949 60.0728 8.14713 60.0728 9.49C60.0728 9.82515 60.0947 10.1811 60.117 10.5449C60.2063 12.0019 60.3038 13.5954 59.0486 14.5813C58.0393 15.5074 56.5955 15.5658 55.2916 15.6096C51.1644 15.6213 47.0359 15.612 42.9068 15.6026H42.9043C36.7089 15.5885 30.5114 15.5745 24.3144 15.6314C19.0766 15.5147 14.4356 20.1893 14.7081 25.3889C14.6705 38.8165 14.6771 52.245 14.6836 65.6735V65.7345V65.8011C14.69 78.6432 14.6963 91.4858 14.664 104.33L14.6642 104.332C14.8483 106.206 15.5998 107.986 16.7122 109.51C17.0566 109.957 17.4271 110.387 17.797 110.816L17.7977 110.817L17.7984 110.818L17.802 110.822C17.8393 110.865 17.8767 110.909 17.914 110.952C18.0601 111.122 18.2322 111.267 18.4262 111.379C20.2543 112.431 22.2422 113.334 24.4027 113.272C28.6081 113.307 32.8117 113.3 37.0146 113.293H37.2128C41.8228 113.286 46.4319 113.279 51.041 113.323C61.8333 113.272 72.6264 113.272 83.4186 113.316C86.6481 113.279 89.8797 113.287 93.1112 113.295H93.1131C96.691 113.303 100.27 113.312 103.846 113.258C108.76 113.295 113.202 109.057 113.291 104.179C113.384 100.719 113.359 97.2567 113.335 93.7944V93.7357C113.305 89.54 113.275 85.3444 113.452 81.1562V46.1224C113.452 46.1053 113.432 46.0961 113.419 46.1075C113.406 46.1188 113.386 46.1099 113.386 46.0929C113.316 42.2091 113.327 38.3231 113.339 34.4374V34.4352C113.348 31.4265 113.356 28.4179 113.327 25.4109C113.372 22.9313 112.421 20.4956 110.726 18.6797L109.81 17.6984C109.695 17.5752 109.565 17.4669 109.423 17.3771C107.562 16.2057 105.592 15.1618 103.379 15.197C100.095 15.1775 96.8835 15.1839 93.6236 15.1904H93.6125C92.5988 15.1924 91.5808 15.1944 90.5544 15.1957C89.471 15.197 88.5872 16.0595 88.5814 17.1429C88.5741 18.5086 88.5812 20.0767 88.5899 21.2825C88.5978 22.3763 89.4848 25.2555 90.5786 25.2569C92.5251 25.2594 95.5586 25.2621 98.0142 25.2587C99.1218 25.2572 100.022 26.154 100.022 27.2617V31.9821C100.022 33.0866 99.1264 33.9821 98.0219 33.9821H90.6079C89.5034 33.9821 88.6079 36.8775 88.6079 37.9821V40.6962C88.6079 43.8008 89.5034 44.6962 90.6079 44.6962H98.0123C99.1206 44.6962 100.018 45.5958 100.014 46.7041C100.01 48.0574 100.007 49.8686 100.01 51.4016C100.013 52.5154 99.112 53.4245 97.9983 53.4245H90.6079C89.5034 53.4245 88.6079 54.3199 88.6079 55.4245V60.8099C88.6079 61.9145 89.5034 62.8099 90.6079 62.8099H98.0219C99.1264 62.8099 100.022 63.7054 100.022 64.8099V96.7518C100.022 98.8895 97.6343 98.8002 96.8481 98.7707C96.7696 98.7681 96.7078 98.7653 96.6648 98.766C90.9632 98.8317 83.5743 98.868 77.8654 98.766C75.7868 98.7291 75.8096 97.1815 75.8425 94.9659C75.8471 94.6764 75.8512 94.3763 75.8512 94.0662V73.5383C75.8512 72.4337 76.7467 71.5383 77.8512 71.5383H85.2651C86.3696 71.5383 87.2651 70.6428 87.2651 69.5383V65.4814C87.2651 64.3768 86.3696 63.4814 85.2651 61.4814H77.8512C76.7467 61.4814 75.8509 60.586 75.8421 59.4814C75.836 58.7088 75.8275 57.9116 75.8189 57.1143C75.8101 56.3192 75.8015 55.5238 75.7953 54.753C75.7864 53.6485 76.6815 52.7531 77.7861 52.7531H85.2638C86.3684 52.7531 87.2638 51.8576 87.2638 50.7531V47.3676C87.2638 46.263 86.3684 43.3676 85.2638 43.3676H77.8512C76.7467 43.3676 75.8512 42.4722 75.8512 41.3676V37.3565C75.8512 36.2519 76.7467 35.3565 77.8512 35.3565H85.2638C86.3684 35.3565 87.2638 34.461 87.2638 33.3565V27.9252C87.2638 26.8206 86.3684 23.9252 85.2638 23.9252H77.79C76.6841 23.9252 75.7883 23.0278 75.7967 21.922C75.8014 21.3075 75.8071 20.6923 75.8129 20.0772V20.0753C75.8384 17.3109 75.864 14.5449 75.7935 11.8399C75.7572 9.39686 77.8493 6.99703 80.3094 7.05537C86.8584 6.97633 93.4122 6.99862 99.9673 7.02091H99.9708C101.282 7.02534 102.594 7.02978 103.905 7.03342Z" fill="url(#paint0_linear_1013_883)" stroke="url(#paint1_linear_1013_883)" stroke-width="5"/>
<defs>
<linearGradient id="paint0_linear_1013_883" x1="64" y1="121.889" x2="64" y2="7" gradientUnits="userSpaceOnUse">
<stop stop-color="#00B59C"/>
<stop offset="1" stop-color="#9CFFAC"/>
</linearGradient>
<linearGradient id="paint1_linear_1013_883" x1="64" y1="121.889" x2="64" y2="7" gradientUnits="userSpaceOnUse">
<stop stop-color="#00B59C"/>
<stop offset="1" stop-color="#9CFFAC"/>
</linearGradient>
</defs>
</svg>
