<svg width="128" height="128" viewBox="0 0 128 128" fill="none" xmlns="http://www.w3.org/2000/svg">
<path d="M71.8637 10C70.0259 10 68.5361 11.4201 68.5361 13.1717V57.7868C68.5361 59.5384 70.0259 60.9584 71.8637 60.9584H118.673C120.511 60.9584 122.001 59.5384 122.001 57.7868C122.001 31.4876 99.4543 10 71.8637 10ZM75.1913 54.6152V16.4635C96.5203 18.0092 113.598 34.2864 115.219 54.6152H75.1913Z" fill="url(#paint0_linear_681_98)" stroke="url(#paint1_linear_681_98)" stroke-width="2"/>
<path fill-rule="evenodd" clip-rule="evenodd" d="M104.724 68.1931H61.4646V26.9612C61.4646 25.2096 59.9748 23.7896 58.137 23.7896C30.6078 23.7896 8 45.0879 8 71.3647C8 97.6276 30.5874 119.152 58.137 119.152C85.6694 119.152 108.052 97.6418 108.052 71.3647C108.052 69.6133 106.562 68.1931 104.724 68.1931ZM58.1372 112.809C34.1612 112.809 14.6556 94.2171 14.6556 71.3651C14.6556 49.6911 32.3822 31.8698 54.8094 30.2526V71.3651C54.8094 73.1167 56.2994 74.5367 58.1372 74.5345H101.272C99.575 95.9128 80.877 112.809 58.1372 112.809Z" fill="url(#paint2_linear_681_98)"/>
<path d="M61.4646 68.1931H59.4646V70.1931H61.4646V68.1931ZM54.8094 30.2526H56.8094V28.1032L54.6656 28.2577L54.8094 30.2526ZM58.1372 74.5345V72.5345H58.1348L58.1372 74.5345ZM101.272 74.5345L103.265 74.693L103.437 72.5345H101.272V74.5345ZM61.4646 70.1931H104.724V66.1931H61.4646V70.1931ZM59.4646 26.9612V68.1931H63.4646V26.9612H59.4646ZM58.137 25.7896C58.9618 25.7896 59.4646 26.4036 59.4646 26.9612H63.4646C63.4646 24.0156 60.9878 21.7896 58.137 21.7896V25.7896ZM10 71.3647C10 46.2941 31.6078 25.7896 58.137 25.7896V21.7896C29.6076 21.7896 6 43.8818 6 71.3647H10ZM58.137 117.152C31.6002 117.152 10 96.4333 10 71.3647H6C6 98.8216 29.5744 121.152 58.137 121.152V117.152ZM106.052 71.3647C106.052 96.4581 84.6456 117.152 58.137 117.152V121.152C86.6932 121.152 110.052 98.8253 110.052 71.3647H106.052ZM104.724 70.1931C105.549 70.1931 106.052 70.8071 106.052 71.3647H110.052C110.052 68.4193 107.575 66.1931 104.724 66.1931V70.1931ZM12.6556 71.3651C12.6556 95.4109 33.1482 114.809 58.1372 114.809V110.809C35.1742 110.809 16.6556 93.0231 16.6556 71.3651H12.6556ZM54.6656 28.2577C31.2918 29.9431 12.6556 48.5455 12.6556 71.3651H16.6556C16.6556 50.8367 33.4726 33.7963 54.9534 32.2473L54.6656 28.2577ZM56.8094 71.3651V30.2526H52.8094V71.3651H56.8094ZM58.1348 72.5345C57.3122 72.5355 56.8094 71.9231 56.8094 71.3651H52.8094C52.8094 74.3105 55.2866 76.5379 58.1394 76.5345L58.1348 72.5345ZM101.272 72.5345H58.1372V76.5345H101.272V72.5345ZM58.1372 114.809C81.8568 114.809 101.481 97.1728 103.265 74.693L99.278 74.3764C97.6686 94.6526 79.8972 110.809 58.1372 110.809V114.809Z" fill="url(#paint3_linear_681_98)"/>
<defs>
<linearGradient id="paint0_linear_681_98" x1="95.4256" y1="71.3391" x2="95.4256" y2="14.8675" gradientUnits="userSpaceOnUse">
<stop stop-color="#FDA700"/>
<stop offset="1" stop-color="#FFDE00"/>
</linearGradient>
<linearGradient id="paint1_linear_681_98" x1="95.4256" y1="71.3391" x2="95.4256" y2="14.8675" gradientUnits="userSpaceOnUse">
<stop stop-color="#FDA700"/>
<stop offset="1" stop-color="#FFDE00"/>
</linearGradient>
<linearGradient id="paint2_linear_681_98" x1="58.026" y1="119.152" x2="58.026" y2="29.3991" gradientUnits="userSpaceOnUse">
<stop stop-color="#18AEFA"/>
<stop offset="1" stop-color="#83E1FF"/>
</linearGradient>
<linearGradient id="paint3_linear_681_98" x1="58.026" y1="121.152" x2="58.026" y2="27.6344" gradientUnits="userSpaceOnUse">
<stop stop-color="#18AEFA"/>
<stop offset="1" stop-color="#83E1FF"/>
</linearGradient>
</defs>
</svg>
