<svg width="64" height="64" viewBox="0 0 64 64" fill="none" xmlns="http://www.w3.org/2000/svg">
<path d="M45.1534 6H18.8457C13.3229 6 8.8457 10.4772 8.8457 16V48C8.8457 53.5228 13.3229 58 18.8457 58H45.1534C50.6763 58 55.1534 53.5228 55.1534 48V16C55.1534 10.4772 50.6763 6 45.1534 6Z" stroke="url(#paint0_linear_678_209)" stroke-width="6"/>
<path d="M44.3836 22.7915C45.1475 22.0277 45.5766 20.9917 45.5766 19.9115C45.5766 18.8312 45.1475 17.7952 44.3836 17.0313C43.6197 16.2675 42.5837 15.8384 41.5035 15.8384H22.4959C21.4157 15.8384 20.3797 16.2675 19.6159 17.0313C18.8521 17.7952 18.4229 18.8312 18.4229 19.9115C18.4229 20.9917 18.8521 22.0277 19.6159 22.7915C20.3797 23.5553 21.4157 23.9845 22.4959 23.9845H41.5035C42.5837 23.9845 43.6197 23.5553 44.3836 22.7915Z" fill="url(#paint1_linear_678_209)"/>
<path d="M34.8798 36.3687C35.6436 35.6048 36.0728 34.5688 36.0728 33.4886C36.0728 32.4083 35.6436 31.3724 34.8798 30.6084C34.116 29.8446 33.08 29.4155 31.9998 29.4155H22.4959C21.4157 29.4155 20.3797 29.8446 19.6159 30.6084C18.8521 31.3724 18.4229 32.4083 18.4229 33.4886C18.4229 34.5688 18.8521 35.6048 19.6159 36.3687C20.3797 37.1325 21.4157 37.5616 22.4959 37.5616H31.9998C33.08 37.5616 34.116 37.1325 34.8798 36.3687Z" fill="url(#paint2_linear_678_209)"/>
<defs>
<linearGradient id="paint0_linear_678_209" x1="31.9996" y1="62" x2="31.9996" y2="2" gradientUnits="userSpaceOnUse">
<stop stop-color="#5570FF"/>
<stop offset="1" stop-color="#4DD3FF"/>
</linearGradient>
<linearGradient id="paint1_linear_678_209" x1="31.9994" y1="61.9997" x2="31.9994" y2="-3.16908" gradientUnits="userSpaceOnUse">
<stop stop-color="#5570FF"/>
<stop offset="1" stop-color="#4DD3FF"/>
</linearGradient>
<linearGradient id="paint2_linear_678_209" x1="31.9994" y1="62" x2="31.9994" y2="-3.16874" gradientUnits="userSpaceOnUse">
<stop stop-color="#5570FF"/>
<stop offset="1" stop-color="#4DD3FF"/>
</linearGradient>
</defs>
</svg>
