<svg width="48" height="48" viewBox="0 0 48 48" fill="none" xmlns="http://www.w3.org/2000/svg">
<path d="M24 41.8852C23.8008 41.8852 21.4595 29.9101 20.1838 28.7408C19.9036 28.4832 19.4295 28.5904 19.0573 28.7662C18.6579 28.9549 18.3471 29.3893 18.0989 29.7546C17.7563 30.2587 17.4053 30.8252 17.4005 30.8338C17.3173 30.9689 17.1877 31.0507 17.0485 31.0589C16.908 31.0589 16.7742 30.9962 16.6801 30.8706C16.6596 30.842 13.6362 28.1337 11.6988 28.1132H11.666C11.0316 28.1132 10.565 28.3247 10.2771 28.7436C9.78455 29.4599 9.9087 30.5855 9.95919 30.9129C10.1475 32.1559 10.5636 34.6677 10.378 34.5831C10.0779 34.4453 3.02954 29.7682 2.09222 23.02C1.45096 18.4071 4.17016 12.9359 9.74771 9.82512C11.7274 8.72134 15.0865 7.62165 15.2284 7.57663C15.4276 7.50977 15.6391 7.61347 15.7469 7.82767C15.8547 8.04188 15.8328 8.31612 15.6937 8.50168C15.5859 8.6463 13.0631 12.0954 15.1616 14.8651C15.7987 15.7083 16.5969 16.1531 17.4674 16.1531C19.1728 16.1531 20.705 14.5063 20.8838 13.0901C21.2085 10.5141 21.2508 7.05271 21.2508 7.0186C21.2536 6.84123 22.2343 7.97325 22.8324 8.68041C23.1096 9.00813 23.5829 9.12151 24.0123 9.11715C24.4641 9.11251 24.9046 8.99094 25.1967 8.64603C25.7967 7.93723 26.7459 6.84409 26.7478 7.0186C26.7492 7.05407 26.7915 10.5141 27.1162 13.0901C27.295 14.5063 28.8258 16.1531 30.5313 16.1531C31.4031 16.1531 32.2013 15.7083 32.8384 14.8651C34.9437 12.0845 32.4155 8.64766 32.3063 8.50168C32.1671 8.31612 32.1453 8.04188 32.2531 7.82767C32.3609 7.61347 32.5724 7.51114 32.7716 7.57663C32.9135 7.62302 36.2726 8.72134 38.2509 9.82512C43.8298 12.9359 46.549 18.4071 45.9078 23.02C44.9691 29.7682 37.9207 34.4467 37.6219 34.5831C37.4364 34.6691 37.8525 32.1518 38.0408 30.9129C38.0899 30.5855 38.2141 29.4599 37.7215 28.7422C37.435 28.3247 36.9684 28.1132 36.334 28.1132H36.3026C34.3638 28.1337 31.5968 30.8638 31.5764 30.8925C31.4836 31.018 31.3499 31.0876 31.208 31.0807C31.113 31.0807 31.0226 31.0382 30.9482 30.9687C30.8771 30.9023 30.8295 30.8144 30.7752 30.7338C30.5564 30.4093 29.9554 29.5296 29.7439 29.22C29.6939 29.147 29.6545 29.0676 29.6053 28.9941C29.2693 28.4925 28.2746 28.2544 27.8162 28.7395C26.6264 29.9988 24.2006 41.8852 24 41.8852Z" stroke="url(#paint0_linear_678_218)" stroke-width="4"/>
<defs>
<linearGradient id="paint0_linear_678_218" x1="42.6084" y1="7.62798" x2="11.9219" y2="47.7422" gradientUnits="userSpaceOnUse">
<stop stop-color="#FFC700"/>
<stop offset="0.551952" stop-color="#FF49AB"/>
<stop offset="1" stop-color="#BA49FF"/>
</linearGradient>
</defs>
</svg>
