<svg width="64" height="64" viewBox="0 0 64 64" fill="none" xmlns="http://www.w3.org/2000/svg">
<path d="M32 6H8.6C7.1596 6 6 7.1596 6 8.6V32" stroke="url(#paint0_linear_1012_585)" stroke-width="10"/>
<path d="M32 6H55.4C56.8404 6 58 7.1596 58 8.6V32" stroke="url(#paint1_linear_1012_585)" stroke-width="10" stroke-linejoin="round"/>
<path d="M32 58H8.6C7.1596 58 6 56.8404 6 55.4V32" stroke="url(#paint2_linear_1012_585)" stroke-width="10"/>
<path d="M32 58H55.4C56.8404 58 58 56.8404 58 55.4V32" stroke="url(#paint3_linear_1012_585)" stroke-width="10"/>
<path fill-rule="evenodd" clip-rule="evenodd" d="M27.3546 20.5076C28.3584 22.0489 28.9304 24.0076 28.9546 26.4159C28.979 28.8326 28.433 30.8071 27.43 32.3641C26.4287 33.9184 25.0855 34.8801 23.804 35.4616C22.5412 36.0346 21.3127 36.2523 20.4295 36.3343C19.9808 36.376 19.6014 36.3844 19.3243 36.3817C19.1852 36.3803 19.0704 36.3762 18.9837 36.3718C18.9404 36.3696 18.904 36.3673 18.875 36.3653L18.837 36.3625L18.8223 36.3613L18.816 36.3608L18.8131 36.3606C18.8129 36.3605 18.8127 36.3605 18.8134 36.3508L18.8113 36.3507L18.8105 36.3603L18.8009 36.3499C17.5132 36.2484 16.5 35.1714 16.5 33.8577V19.0006C16.5 17.6199 17.6193 16.5006 19 16.5006C19.045 16.5006 19.0898 16.5018 19.1343 16.5042C19.1893 16.5025 19.2504 16.5011 19.3171 16.5005C19.5917 16.4977 19.9669 16.5062 20.4108 16.5482C21.2855 16.6309 22.4998 16.8503 23.7524 17.4248C25.0237 18.0081 26.3514 18.9673 27.3546 20.5076ZM21.5262 30.998C21.5972 30.97 21.6678 30.9402 21.738 30.9084C22.3237 30.6426 22.8428 30.2521 23.2267 29.6562C23.609 29.0629 23.9712 28.089 23.9549 26.4663C23.9385 24.8351 23.5615 23.8455 23.1649 23.2364C22.7676 22.6264 22.2432 22.2335 21.6676 21.9695C21.6206 21.9479 21.5735 21.9273 21.5262 21.9076V30.998ZM16.5 45.0009C16.5 43.6202 17.6193 42.5009 19 42.5009H33.8571C35.2379 42.5009 36.3571 43.6202 36.3571 45.0009C36.3571 46.3816 35.2379 47.5009 33.8571 47.5009H19C17.6193 47.5009 16.5 46.3816 16.5 45.0009ZM36.3571 26.429C36.3571 24.4301 36.3851 23.0364 36.6931 22.1125C36.8233 21.7219 36.9424 21.6251 36.959 21.6122C36.9704 21.6033 37.0007 21.5812 37.0772 21.5578C37.1595 21.5326 37.3145 21.5005 37.5714 21.5005C38.2815 21.5005 38.6891 21.5857 38.9012 21.6541C39.2315 22.6375 40.1571 23.3492 41.2526 23.3575C42.6333 23.368 43.761 22.2573 43.7715 20.8766L41.2716 20.8576C43.7715 20.8766 43.7715 20.8741 43.7716 20.8717L43.7716 20.8667L43.7716 20.8566L43.7715 20.8356C43.7714 20.8212 43.7712 20.8063 43.7708 20.7906C43.77 20.7594 43.7686 20.7256 43.7665 20.6893C43.7622 20.6169 43.7548 20.5342 43.7424 20.4427C43.7177 20.2602 43.6729 20.039 43.5928 19.7931C43.4298 19.2925 43.1259 18.7092 42.5889 18.168C41.4914 17.0621 39.8123 16.5005 37.5714 16.5005C36.2106 16.5005 34.9389 16.8491 33.8893 17.6655C32.8612 18.4651 32.2838 19.529 31.9497 20.5313C31.3545 22.317 31.3559 24.5249 31.357 26.2159L31.3571 26.429L31.357 26.6421C31.3559 28.3332 31.3545 30.541 31.9497 32.3267C32.2838 33.329 32.8612 34.393 33.8893 35.1926C34.9389 36.009 36.2106 36.3576 37.5714 36.3576C39.2707 36.3576 40.7137 35.8274 41.8003 34.8229C42.8377 33.864 43.3398 32.6679 43.5878 31.6817C43.6718 31.3478 43.7314 31.0196 43.7729 30.7061C44.8486 30.4268 45.6429 29.4493 45.6429 28.2862C45.6429 26.9055 44.5236 25.7862 43.1429 25.7862H41.3323C41.3034 25.7857 41.2743 25.7857 41.2451 25.7862H39.4286C38.0479 25.7862 36.9286 26.9055 36.9286 28.2862C36.9286 29.4052 37.6637 30.3524 38.6774 30.6714C38.5861 30.9393 38.4816 31.0817 38.4064 31.1512L38.406 31.1516C38.3618 31.1924 38.1832 31.3576 37.5714 31.3576C37.3145 31.3576 37.1595 31.3255 37.0772 31.3002C37.0007 31.2768 36.9704 31.2547 36.959 31.2458C36.9424 31.2329 36.8233 31.1362 36.6931 30.7456C36.3851 29.8216 36.3571 28.4279 36.3571 26.429ZM39.0962 21.7384C39.096 21.7386 39.0925 21.7365 39.0862 21.7316C39.0932 21.7359 39.0963 21.7383 39.0962 21.7384ZM38.8185 28.6899L38.8182 28.688C38.8183 28.6886 38.8184 28.6892 39.4286 28.5897C39.787 28.5313 40.3559 28.4383 41.259 28.2905L39.4286 28.5901L38.8185 28.6899Z" fill="url(#paint4_linear_1012_585)"/>
<defs>
<linearGradient id="paint0_linear_1012_585" x1="19" y1="32" x2="19" y2="6" gradientUnits="userSpaceOnUse">
<stop stop-color="#5570FF"/>
<stop offset="1" stop-color="#4DD3FF"/>
</linearGradient>
<linearGradient id="paint1_linear_1012_585" x1="45" y1="32" x2="45" y2="6" gradientUnits="userSpaceOnUse">
<stop stop-color="#FD5900"/>
<stop offset="1" stop-color="#FFDE00"/>
</linearGradient>
<linearGradient id="paint2_linear_1012_585" x1="19" y1="58" x2="19" y2="32" gradientUnits="userSpaceOnUse">
<stop stop-color="#02AA93"/>
<stop offset="1" stop-color="#67FF80"/>
</linearGradient>
<linearGradient id="paint3_linear_1012_585" x1="45" y1="58" x2="45" y2="32" gradientUnits="userSpaceOnUse">
<stop stop-color="#A93AFF"/>
<stop offset="1" stop-color="#FF81FF"/>
</linearGradient>
<linearGradient id="paint4_linear_1012_585" x1="16.5044" y1="31.5413" x2="45.6478" y2="31.5413" gradientUnits="userSpaceOnUse">
<stop stop-color="#A93AFF"/>
<stop offset="1" stop-color="#FF81FF"/>
</linearGradient>
</defs>
</svg>
