<svg width="33" height="32" viewBox="0 0 33 32" fill="none" xmlns="http://www.w3.org/2000/svg">
<path d="M13.167 17.1667V17.3333C13.167 18.2174 13.5182 19.0652 14.1433 19.6903C14.7684 20.3155 15.6163 20.6667 16.5003 20.6667C17.3844 20.6667 18.2322 20.3155 18.8574 19.6903C19.4825 19.0652 19.8337 18.2174 19.8337 17.3333V17.1667C19.8337 16.5227 19.311 16 18.667 16H14.3337C13.6897 16 13.167 16.5227 13.167 17.1667Z" fill="url(#paint0_linear_678_235)"/>
<path fill-rule="evenodd" clip-rule="evenodd" d="M28.1392 3.02738C26.99 1.87749 25.5524 1.39796 23.9117 1.1773C22.3458 0.966693 20.3651 0.966741 17.9539 0.966799H16.4998L13.1644 0.970802L13.1543 0.970844C11.3002 0.984117 9.71426 1.0363 8.39981 1.28796C7.03774 1.54873 5.84176 2.04531 4.86038 3.02739C3.7105 4.17658 3.23097 5.61424 3.01031 7.25486C2.7997 8.82079 2.79975 10.8014 2.79981 13.2127V18.7875C2.79975 21.1987 2.7997 23.1794 3.01031 24.7454C3.23097 26.386 3.71051 27.8236 4.86039 28.9728C6.00958 30.1227 7.44725 30.6023 9.08787 30.8229C10.6538 31.0335 12.6345 31.0335 15.0457 31.0334H17.9539C20.3651 31.0335 22.3458 31.0335 23.9117 30.8229C25.5521 30.6023 26.9896 30.1229 28.1387 28.9733L26.9371 27.7708L28.1397 28.9723C29.2893 27.8232 29.7687 26.3857 29.9893 24.7454C30.1999 23.1794 30.1999 21.1987 30.1998 18.7875V13.2127C30.1999 10.8015 30.1999 8.82079 29.9893 7.25486C29.7686 5.61423 29.2891 4.17657 28.1392 3.02738ZM17.8331 4.3668C20.3952 4.3668 22.1459 4.37041 23.4585 4.54696C24.7223 4.71694 25.3225 5.01862 25.7345 5.43103L25.7356 5.43206C26.148 5.84411 26.4497 6.44427 26.6196 7.70807C26.7962 9.02074 26.7998 10.7713 26.7998 13.3334V18.6668C26.7998 21.2288 26.7962 22.9795 26.6196 24.2922C26.4497 25.5559 26.148 26.1561 25.7356 26.5682L25.7345 26.5692C25.3225 26.9816 24.7223 27.2833 23.4585 27.4533C22.1459 27.6298 20.3952 27.6334 17.8331 27.6334H15.1665C12.6044 27.6334 10.8538 27.6298 9.54108 27.4533C8.27728 27.2833 7.67713 26.9816 7.26507 26.5692L7.26404 26.5682C6.85163 26.1561 6.54995 25.5559 6.37997 24.2922C6.20342 22.9795 6.19981 21.2288 6.19981 18.6668V13.3334C6.19981 10.7713 6.20342 9.02074 6.37997 7.70807C6.54995 6.44427 6.85163 5.84411 7.26404 5.43206L7.26515 5.43095C7.62233 5.07342 8.11548 4.80414 9.03914 4.6273C9.86169 4.46982 10.9174 4.40471 12.3574 4.38031C12.8069 4.37269 13.0446 4.81979 13.3615 5.1388C13.5575 5.33346 13.8735 5.33346 14.5001 5.33346H16.5001V8.00013H14.5001C13.8721 8.00013 13.5575 8.00013 13.3615 8.1948C13.1668 8.3908 13.1668 8.7068 13.1668 9.33346C13.1668 9.96013 13.1668 10.2761 13.3615 10.4721C13.5575 10.6668 13.8735 10.6668 14.5001 10.6668H16.5001V12.0001C16.5001 12.6281 16.5001 12.9428 16.6948 13.1388C16.8908 13.3334 17.2055 13.3334 17.8335 13.3334H18.5001C19.1281 13.3334 19.4428 13.3334 19.6388 13.1388C19.8335 12.9428 19.8335 12.6281 19.8335 12.0001C19.8335 11.3721 19.8335 11.0574 19.6388 10.8614C19.4428 10.6668 19.1268 10.6668 18.5001 10.6668H16.5001V8.00013H18.5001C19.1281 8.00013 19.4428 8.00013 19.6388 7.80546C19.8335 7.60946 19.8335 7.2948 19.8335 6.6668C19.8335 6.0388 19.8335 5.72413 19.6388 5.52813C19.4428 5.33346 19.1268 5.33346 18.5001 5.33346H16.5001C16.5001 4.79959 16.9329 4.3668 17.4668 4.3668H17.8331Z" fill="url(#paint1_linear_678_235)"/>
<defs>
<linearGradient id="paint0_linear_678_235" x1="30.2" y1="31.0333" x2="5.26348" y2="8.05385" gradientUnits="userSpaceOnUse">
<stop stop-color="#731FFF"/>
<stop offset="0.905415" stop-color="#EB1AFF"/>
</linearGradient>
<linearGradient id="paint1_linear_678_235" x1="30.1998" y1="31.0334" x2="5.26328" y2="8.05399" gradientUnits="userSpaceOnUse">
<stop stop-color="#731FFF"/>
<stop offset="0.905415" stop-color="#EB1AFF"/>
</linearGradient>
</defs>
</svg>
