<svg width="24" height="24" viewBox="0 0 24 24" fill="none" xmlns="http://www.w3.org/2000/svg">
<path fill-rule="evenodd" clip-rule="evenodd" d="M4.59565 5.3819C4.5977 5.67688 4.47208 5.95705 4.26121 6.16332C2.64992 7.7395 1.6499 9.93799 1.6499 12.3701C1.6499 12.3871 1.65116 12.4037 1.65241 12.4204C1.65356 12.4358 1.65472 12.4512 1.65489 12.4668C1.6547 12.4831 1.65355 12.4992 1.65241 12.5153C1.65116 12.5329 1.6499 12.5506 1.6499 12.5686C1.6499 13.0263 1.68689 13.4757 1.75663 13.9141C1.77206 13.9874 1.79404 14.0531 1.81603 14.1189C1.82602 14.1488 1.83602 14.1788 1.84541 14.2094C2.1945 15.3487 3.00573 15.9263 3.27945 16.0938C3.34001 16.1309 3.39923 16.1691 3.45497 16.2131C3.59976 16.3274 3.75524 16.4426 3.92865 16.5578C4.17386 16.7207 4.35472 16.966 4.42108 17.2528C4.67588 18.3542 5.42706 21.0848 6.60632 21.0557C7.12369 21.043 7.58947 20.5662 8.08157 20.0625C8.65182 19.4788 9.25743 18.8589 10.0196 18.8829C10.7264 18.9051 11.2239 19.4407 11.7198 19.9745C12.2195 20.5123 12.7175 21.0483 13.426 21.0557C14.1838 21.0636 14.8612 20.1629 15.3124 19.1223C15.3746 18.9789 15.5141 18.8829 15.6703 18.8829V18.8829C15.7665 18.8829 15.8583 18.9195 15.9308 18.9826C17.3058 20.1789 20.174 21.2892 21.4856 21.7212C21.5187 21.7321 21.5577 21.7324 21.5791 21.7049V21.7049C21.6298 21.6398 21.6165 21.4924 21.5532 21.283C21.4692 21.0049 21.4691 20.7059 21.587 20.4404C21.8114 19.9347 22.0114 19.3722 21.8964 19.1761C21.7809 18.9792 21.1173 18.9246 20.5807 18.9134C20.4588 18.9109 20.3471 18.8469 20.2859 18.7415V18.7415C20.216 18.6213 20.2246 18.4702 20.3076 18.3586C20.7442 17.7709 21.3301 16.8966 21.1723 16.6276C20.9821 16.3032 19.3088 16.0911 18.6115 16.0161C18.5918 16.0139 18.5746 16.0031 18.5635 15.9866V15.9866C18.539 15.9501 18.5551 15.9007 18.5965 15.8861C19.3249 15.6289 21.1875 14.9364 21.2534 14.5582C21.3174 14.1919 19.8714 13.1144 19.1235 12.5845C19.054 12.5352 19.0138 12.4553 19.0138 12.3701V12.3701C19.0138 12.2697 19.0121 12.1697 19.0087 12.0701C19.002 11.8712 19.0463 11.6738 19.1447 11.5009C19.7138 10.5016 20.5992 8.86491 20.4727 8.56478C20.3159 8.19323 18.9835 8.07438 18.1376 8.03637C17.9588 8.02833 17.7967 7.93067 17.7019 7.77886V7.77886C17.6212 7.64966 17.5967 7.49319 17.6385 7.34673C17.9662 6.19907 18.5473 3.96075 18.1692 3.72139C17.902 3.55228 15.9588 4.05989 14.5298 4.46724C14.2899 4.5356 14.0346 4.51103 13.806 4.41114C13.5446 4.29684 13.2764 4.19504 13.0022 4.10651C12.7229 4.01632 12.4867 3.82297 12.3546 3.56085C11.8733 2.60596 11.2186 1.5 10.7678 1.5C10.3405 1.5 9.65872 2.48274 9.11733 3.39606C8.96342 3.65571 8.70493 3.83493 8.41051 3.90144C8.21807 3.94492 8.02805 3.99478 7.84069 4.05081C7.52246 4.14596 7.17623 4.10087 6.90268 3.91248C6.08845 3.35174 5.16545 2.79731 4.89296 2.95219C4.63651 3.09794 4.58835 4.32737 4.59565 5.3819ZM6.35777 10.9157C6.95778 10.9157 7.4442 10.4293 7.4442 9.8293C7.4442 9.22928 6.95778 8.74287 6.35777 8.74287C5.75775 8.74287 5.27134 9.22928 5.27134 9.8293C5.27134 10.4293 5.75775 10.9157 6.35777 10.9157Z" stroke="url(#paint0_linear_674_128)" stroke-width="1.8"/>
<defs>
<linearGradient id="paint0_linear_674_128" x1="11.7899" y1="21.7378" x2="11.7899" y2="1.5" gradientUnits="userSpaceOnUse">
<stop stop-color="#00B59C"/>
<stop offset="1" stop-color="#9CFFAC"/>
</linearGradient>
</defs>
</svg>
