<svg width="128" height="128" viewBox="0 0 128 128" fill="none" xmlns="http://www.w3.org/2000/svg">
<path fill-rule="evenodd" clip-rule="evenodd" d="M115.899 19.1005C113.274 16.475 109.713 15 106 15H22C18.287 15 14.726 16.475 12.1005 19.1005C9.475 21.726 8 25.287 8 29V99C8 102.713 9.475 106.274 12.1005 108.899C14.726 111.525 18.287 113 22 113H106C109.713 113 113.274 111.525 115.899 108.899C118.525 106.274 120 102.713 120 99V29C120 25.287 118.525 21.726 115.899 19.1005ZM106 106H22C20.1435 106 18.363 105.262 17.0503 103.95C15.7375 102.637 15 100.857 15 99V47C15 44.7909 16.7909 43 19 43H109C111.209 43 113 44.7909 113 47V99C113 100.857 112.262 102.637 110.95 103.95C109.637 105.262 107.857 106 106 106ZM17.0503 24.0503C18.363 22.7375 20.1435 22 22 22H106C107.857 22 109.637 22.7375 110.95 24.0503C112.262 25.363 113 27.1435 113 29V32C113 34.2091 111.209 36 109 36H19C16.7909 36 15 34.2091 15 32V29C15 27.1435 15.7375 25.363 17.0503 24.0503ZM30.0251 85.0251C30.6815 84.3687 31.5717 84 32.5 84H39.5C40.4283 84 41.3185 84.3687 41.9749 85.0251C42.6312 85.6815 43 86.5717 43 87.5V94.5C43 95.4283 42.6312 96.3185 41.9749 96.9749C41.3185 97.6313 40.4283 98 39.5 98H32.5C31.5717 98 30.6815 97.6313 30.0251 96.9749C29.3687 96.3185 29 95.4283 29 94.5V87.5C29 86.5717 29.3687 85.6815 30.0251 85.0251ZM58.0251 85.0251C57.3688 85.6815 57 86.5717 57 87.5V94.5C57 95.4283 57.3688 96.3185 58.0251 96.9749C58.6815 97.6313 59.5717 98 60.5 98H67.5C68.4283 98 69.3185 97.6313 69.9749 96.9749C70.6313 96.3185 71 95.4283 71 94.5V87.5C71 86.5717 70.6313 85.6815 69.9749 85.0251C69.3185 84.3687 68.4283 84 67.5 84H60.5C59.5717 84 58.6815 84.3687 58.0251 85.0251ZM86.0251 85.0251C86.6815 84.3687 87.5717 84 88.5 84H95.5C96.4283 84 97.3185 84.3687 97.9749 85.0251C98.6313 85.6815 99 86.5717 99 87.5V94.5C99 95.4283 98.6313 96.3185 97.9749 96.9749C97.3185 97.6313 96.4283 98 95.5 98H88.5C87.5717 98 86.6815 97.6313 86.0251 96.9749C85.3687 96.3185 85 95.4283 85 94.5V87.5C85 86.5717 85.3687 85.6815 86.0251 85.0251Z" fill="url(#paint0_linear_1005_167)" stroke="url(#paint1_linear_1005_167)" stroke-width="5"/>
<defs>
<linearGradient id="paint0_linear_1005_167" x1="28.3" y1="101.431" x2="117.495" y2="12.4882" gradientUnits="userSpaceOnUse">
<stop stop-color="#FE0844"/>
<stop offset="1" stop-color="#FEB302"/>
</linearGradient>
<linearGradient id="paint1_linear_1005_167" x1="28.3" y1="101.431" x2="117.495" y2="12.4882" gradientUnits="userSpaceOnUse">
<stop stop-color="#FE0844"/>
<stop offset="1" stop-color="#FEB302"/>
</linearGradient>
</defs>
</svg>
