<svg width="129" height="128" viewBox="0 0 129 128" fill="none" xmlns="http://www.w3.org/2000/svg">
<path d="M117.162 44.9339C119.301 50.8226 120.478 57.1735 120.5 63.8046V63.9987C120.5 70.7005 119.321 77.1183 117.161 83.0645C115.659 87.1987 113.682 91.1097 111.291 94.7293L111.287 94.7357C110.287 96.2545 109.21 97.7244 108.065 99.1389C104.402 103.664 100.045 107.606 95.1526 110.808L95.1515 110.809C93.349 111.989 91.4777 113.067 89.5436 114.032L89.5383 114.034C82.0137 117.8 73.5128 119.923 64.5 119.923C55.4872 119.923 46.9863 117.8 39.4615 114.034L39.4566 114.032C37.5207 113.066 35.6473 111.988 33.8458 110.809C28.8898 107.563 24.4811 103.558 20.788 98.9576L20.7856 98.9549C19.642 97.5335 18.5677 96.0512 17.5654 94.5147L17.5629 94.5109C15.2361 90.9522 13.3094 87.1143 11.8365 83.0586L11.8363 83.0575C9.6771 77.1146 8.5 70.7 8.5 63.9998C8.5 33.1869 33.4997 8.07666 64.5 8.07666C80.0511 8.07666 94.1013 14.4004 104.245 24.6026L104.246 24.6031C107.167 27.5413 109.763 30.8019 111.971 34.3232L111.974 34.3298C114.061 37.6457 115.805 41.1976 117.161 44.9331L117.162 44.9339Z" stroke="url(#paint0_linear_1005_501)" stroke-width="14"/>
<path d="M74.7058 50.2397C73.88 50.2397 73.2106 50.9211 73.2106 51.7617V96.1276C73.2106 97.8089 71.8717 99.1713 70.2201 99.1713H59.0796C57.4281 99.1713 56.0895 97.8089 56.0895 96.1276V51.7617C56.0895 50.9211 55.4201 50.2397 54.5944 50.2397H41.4374C39.7859 50.2397 38.4473 48.8769 38.4473 47.1956V37.6388C38.4473 35.9577 39.7859 34.5947 41.4374 34.5947H87.785C89.4366 34.5947 90.7749 35.9577 90.7749 37.6388V47.1956C90.7749 48.8769 89.4366 50.2397 87.785 50.2397H74.7058Z" fill="url(#paint1_linear_1005_501)"/>
<defs>
<linearGradient id="paint0_linear_1005_501" x1="120.168" y1="8.78571" x2="9.20542" y2="118.976" gradientUnits="userSpaceOnUse">
<stop stop-color="#FE7970"/>
<stop offset="1" stop-color="#DC3282"/>
</linearGradient>
<linearGradient id="paint1_linear_1005_501" x1="90.6197" y1="35.0041" x2="28.0539" y2="85.2807" gradientUnits="userSpaceOnUse">
<stop stop-color="#FE7970"/>
<stop offset="1" stop-color="#DC3282"/>
</linearGradient>
</defs>
</svg>
