<svg width="32" height="32" viewBox="0 0 32 32" fill="none" xmlns="http://www.w3.org/2000/svg">
<path d="M25.7681 14.3487C25.6838 14.3219 25.5924 14.3297 25.5139 14.3703C25.4353 14.4109 25.3762 14.4811 25.3494 14.5653C25.3226 14.6496 25.3304 14.741 25.371 14.8196C25.4117 14.8981 25.4818 14.9572 25.5661 14.984C28.1714 15.814 29.3334 17.052 29.3334 19C29.3334 20.7327 27.7527 22.0773 26.8114 22.7253C26.7668 22.756 26.7303 22.797 26.7051 22.8448C26.6799 22.8927 26.6667 22.9459 26.6667 23V25.5487C25.8663 25.2451 25.1512 24.7521 24.5827 24.112C24.5442 24.0691 24.4952 24.0368 24.4406 24.0182C24.3859 23.9997 24.3275 23.9955 24.2707 24.006C24.0807 24.0427 23.8867 24.0947 23.6901 24.1473C23.3501 24.2387 22.9994 24.3333 22.6667 24.3333C20.9547 24.3333 19.7561 23.9653 18.5307 23.0647C18.4595 23.0123 18.3703 22.9903 18.2829 23.0036C18.1954 23.0169 18.1168 23.0644 18.0644 23.1357C18.012 23.2069 17.99 23.2961 18.0033 23.3835C18.0166 23.471 18.0641 23.5496 18.1354 23.602C19.4867 24.5953 20.7994 25 22.6667 25C23.0874 25 23.4821 24.894 23.8634 24.7913C23.9821 24.7587 24.1001 24.7267 24.2167 24.6993C25.4627 26.0153 26.8721 26.3147 26.9334 26.3267C26.9818 26.3367 27.0319 26.3358 27.0799 26.3239C27.1279 26.312 27.1726 26.2895 27.2107 26.258C27.2491 26.2268 27.28 26.1875 27.3012 26.1429C27.3225 26.0982 27.3334 26.0494 27.3334 26V23.174C29.0547 21.9467 30.0001 20.4693 30.0001 19C30.0001 16.746 28.6554 15.268 25.7681 14.3487Z" fill="url(#paint0_linear_678_230)" stroke="url(#paint1_linear_678_230)" stroke-width="1.8"/>
<path d="M24 14C24 8.86933 19.3213 5 13.118 5C6.88333 5 2 8.954 2 14.0013C2 17.0273 4.14067 19.1953 6 20.5073V24.9313C6.00035 24.9869 6.0145 25.0414 6.04119 25.0901C6.06789 25.1388 6.10628 25.1801 6.1529 25.2103C6.19953 25.2404 6.25293 25.2585 6.30828 25.2629C6.36364 25.2673 6.41921 25.2578 6.47 25.2353C6.56733 25.192 8.84267 24.158 10.7893 22.0293C11.6327 22.186 12.5867 22.3367 13.452 22.3367C19.7607 22.3367 24 18.986 24 14ZM13.4513 21.67C12.578 21.67 11.5853 21.5027 10.7293 21.3393C10.6726 21.3289 10.6142 21.3332 10.5595 21.3517C10.5049 21.3703 10.456 21.4025 10.4173 21.4453C9.05067 22.9867 7.44467 23.966 6.66667 24.388V20.3333C6.66665 20.2793 6.65346 20.226 6.62826 20.1781C6.60306 20.1303 6.56659 20.0893 6.522 20.0587C4.76333 18.8487 2.66667 16.8167 2.66667 14.0013C2.66667 9.32733 7.25733 5.66667 13.118 5.66667C18.942 5.66667 23.3333 9.24933 23.3333 14C23.3333 18.588 19.362 21.67 13.4513 21.67Z" fill="url(#paint2_linear_678_230)" stroke="url(#paint3_linear_678_230)" stroke-width="1.8"/>
<path d="M13 12.6665C12.2647 12.6665 11.6667 13.2645 11.6667 13.9998C11.6667 14.7352 12.2647 15.3332 13 15.3332C13.7353 15.3332 14.3333 14.7352 14.3333 13.9998C14.3333 13.2645 13.7353 12.6665 13 12.6665ZM13 14.6665C12.8283 14.6588 12.6663 14.5852 12.5475 14.461C12.4288 14.3369 12.3625 14.1717 12.3625 13.9998C12.3625 13.828 12.4288 13.6628 12.5475 13.5386C12.6663 13.4144 12.8283 13.3408 13 13.3332C13.1717 13.3408 13.3337 13.4144 13.4525 13.5386C13.5712 13.6628 13.6375 13.828 13.6375 13.9998C13.6375 14.1717 13.5712 14.3369 13.4525 14.461C13.3337 14.5852 13.1717 14.6588 13 14.6665ZM17.6667 12.6665C16.9313 12.6665 16.3333 13.2645 16.3333 13.9998C16.3333 14.7352 16.9313 15.3332 17.6667 15.3332C18.402 15.3332 19 14.7352 19 13.9998C19 13.2645 18.402 12.6665 17.6667 12.6665ZM17.6667 14.6665C17.495 14.6588 17.3329 14.5852 17.2142 14.461C17.0954 14.3369 17.0292 14.1717 17.0292 13.9998C17.0292 13.828 17.0954 13.6628 17.2142 13.5386C17.3329 13.4144 17.495 13.3408 17.6667 13.3332C17.8383 13.3408 18.0004 13.4144 18.1191 13.5386C18.2379 13.6628 18.3042 13.828 18.3042 13.9998C18.3042 14.1717 18.2379 14.3369 18.1191 14.461C18.0004 14.5852 17.8383 14.6588 17.6667 14.6665ZM8.33333 12.7298C7.598 12.7298 7 13.3278 7 14.0632C7 14.7985 7.598 15.3965 8.33333 15.3965C9.06867 15.3965 9.66667 14.7985 9.66667 14.0632C9.66667 13.3278 9.06867 12.7298 8.33333 12.7298ZM8.33333 14.7298C8.16168 14.7222 7.9996 14.6486 7.88085 14.5244C7.7621 14.4002 7.69582 14.235 7.69582 14.0632C7.69582 13.8913 7.7621 13.7261 7.88085 13.602C7.9996 13.4778 8.16168 13.4042 8.33333 13.3965C8.50499 13.4042 8.66706 13.4778 8.78582 13.602C8.90457 13.7261 8.97084 13.8913 8.97084 14.0632C8.97084 14.235 8.90457 14.4002 8.78582 14.5244C8.66706 14.6486 8.50499 14.7222 8.33333 14.7298Z" fill="url(#paint4_linear_678_230)" stroke="url(#paint5_linear_678_230)" stroke-width="1.8"/>
<defs>
<linearGradient id="paint0_linear_678_230" x1="20.587" y1="11.2686" x2="33.6854" y2="20.2657" gradientUnits="userSpaceOnUse">
<stop stop-color="#ABDAFB"/>
<stop offset="1" stop-color="#638FFF"/>
</linearGradient>
<linearGradient id="paint1_linear_678_230" x1="20.587" y1="11.2686" x2="33.6854" y2="20.2657" gradientUnits="userSpaceOnUse">
<stop stop-color="#ABDAFB"/>
<stop offset="1" stop-color="#638FFF"/>
</linearGradient>
<linearGradient id="paint2_linear_678_230" x1="6.74343" y1="-0.174424" x2="29.4552" y2="16.7625" gradientUnits="userSpaceOnUse">
<stop stop-color="#ABDAFB"/>
<stop offset="1" stop-color="#638FFF"/>
</linearGradient>
<linearGradient id="paint3_linear_678_230" x1="6.74343" y1="-0.174424" x2="29.4552" y2="16.7625" gradientUnits="userSpaceOnUse">
<stop stop-color="#ABDAFB"/>
<stop offset="1" stop-color="#638FFF"/>
</linearGradient>
<linearGradient id="paint4_linear_678_230" x1="9.58732" y1="11.9694" x2="11.493" y2="17.7231" gradientUnits="userSpaceOnUse">
<stop stop-color="#ABDAFB"/>
<stop offset="1" stop-color="#638FFF"/>
</linearGradient>
<linearGradient id="paint5_linear_678_230" x1="9.58732" y1="11.9694" x2="11.493" y2="17.7231" gradientUnits="userSpaceOnUse">
<stop stop-color="#ABDAFB"/>
<stop offset="1" stop-color="#638FFF"/>
</linearGradient>
</defs>
</svg>
