<svg width="17" height="16" viewBox="0 0 17 16" fill="none" xmlns="http://www.w3.org/2000/svg">
<path d="M10.25 6.05C10.25 6.16046 10.3395 6.25 10.45 6.25H11.8C11.9105 6.25 12 6.33954 12 6.45V9.55C12 9.66046 11.9105 9.75 11.8 9.75H10.45C10.3395 9.75 10.25 9.83954 10.25 9.95V10.45C10.25 10.5429 10.2869 10.6319 10.3525 10.6975C10.4182 10.7631 10.5072 10.8 10.6 10.8H11.1C11.2105 10.8 11.3 10.8895 11.3 11V11.3C11.3 11.4105 11.2105 11.5 11.1 11.5H10.425C10.2325 11.5 9.9 11.3425 9.9 11.15C9.9 11.3425 9.5675 11.5 9.375 11.5H8.7C8.58954 11.5 8.5 11.4105 8.5 11.3V11C8.5 10.8895 8.58954 10.8 8.7 10.8H9.2C9.29282 10.8 9.38185 10.7631 9.44749 10.6975C9.51313 10.6319 9.55 10.5429 9.55 10.45V5.55C9.55 5.45718 9.51313 5.36815 9.44749 5.30251C9.38185 5.23688 9.29282 5.2 9.2 5.2H8.7C8.58954 5.2 8.5 5.11046 8.5 5V4.7C8.5 4.58954 8.58954 4.5 8.7 4.5H9.375C9.5675 4.5 9.9 4.6575 9.9 4.85C9.9 4.6575 10.2325 4.5 10.425 4.5H11.1C11.2105 4.5 11.3 4.58954 11.3 4.7V5C11.3 5.11046 11.2105 5.2 11.1 5.2H10.6C10.5072 5.2 10.4182 5.23688 10.3525 5.30251C10.2869 5.36815 10.25 5.45718 10.25 5.55V6.05ZM5 6.45C5 6.33954 5.08954 6.25 5.2 6.25H8.65C8.76046 6.25 8.85 6.33954 8.85 6.45V6.75C8.85 6.86046 8.76046 6.95 8.65 6.95H5.9C5.78954 6.95 5.7 7.03954 5.7 7.15V8.85C5.7 8.96046 5.78954 9.05 5.9 9.05H8.65C8.76046 9.05 8.85 9.13954 8.85 9.25V9.55C8.85 9.66046 8.76046 9.75 8.65 9.75H5.2C5.08954 9.75 5 9.66046 5 9.55V6.45ZM11.1 9.05C11.2105 9.05 11.3 8.96046 11.3 8.85V7.15C11.3 7.03954 11.2105 6.95 11.1 6.95H10.45C10.3395 6.95 10.25 7.03954 10.25 7.15V8.85C10.25 8.96046 10.3395 9.05 10.45 9.05H11.1ZM7.275 8C7.275 7.86076 7.21969 7.72722 7.12122 7.62877C7.02278 7.53031 6.88924 7.475 6.75 7.475C6.61076 7.475 6.47723 7.53031 6.37878 7.62877C6.28031 7.72722 6.225 7.86076 6.225 8C6.225 8.13924 6.28031 8.27278 6.37878 8.37124C6.47723 8.46969 6.61076 8.525 6.75 8.525C6.88924 8.525 7.02278 8.46969 7.12122 8.37124C7.21969 8.27278 7.275 8.13924 7.275 8ZM8.85 7.69939C8.85 7.64338 8.82759 7.58816 8.78056 7.55774C8.56949 7.42122 8.28382 7.45534 8.108 7.65C7.912 7.86 7.9295 8.1925 8.15 8.3885C8.32119 8.55036 8.58374 8.56827 8.78008 8.44224C8.82739 8.41187 8.85 8.35646 8.85 8.30023V7.69939Z" fill="url(#paint0_linear_1005_170)" stroke="url(#paint1_linear_1005_170)" stroke-width="0.3"/>
<rect x="1.94941" y="2.55098" width="13.0406" height="10.961" rx="1.2" stroke="url(#paint2_linear_1005_170)" stroke-width="1.6"/>
<defs>
<linearGradient id="paint0_linear_1005_170" x1="12" y1="11.5" x2="6.17534" y2="5.61008" gradientUnits="userSpaceOnUse">
<stop stop-color="#731FFF"/>
<stop offset="0.905415" stop-color="#EB1AFF"/>
</linearGradient>
<linearGradient id="paint1_linear_1005_170" x1="12" y1="11.5" x2="6.17534" y2="5.61008" gradientUnits="userSpaceOnUse">
<stop stop-color="#731FFF"/>
<stop offset="0.905415" stop-color="#EB1AFF"/>
</linearGradient>
<linearGradient id="paint2_linear_1005_170" x1="15.79" y1="14.312" x2="5.477" y2="2.15689" gradientUnits="userSpaceOnUse">
<stop stop-color="#731FFF"/>
<stop offset="0.905415" stop-color="#EB1AFF"/>
</linearGradient>
</defs>
</svg>
