<svg width="128" height="128" viewBox="0 0 128 128" fill="none" xmlns="http://www.w3.org/2000/svg">
<path fill-rule="evenodd" clip-rule="evenodd" d="M38.2091 8.39209C30.044 8.39209 23.4248 15.0111 23.4248 23.1764V105.163C23.4248 113.328 30.0436 119.948 38.2091 119.948H109.216C117.381 119.948 124 113.328 124 105.163V23.1764C124 15.0112 117.381 8.39209 109.216 8.39209H38.2091ZM35.4248 23.1764C35.4248 21.6386 36.6714 20.3921 38.2091 20.3921H109.216C110.753 20.3921 112 21.6386 112 23.1764V105.163C112 106.702 110.753 107.948 109.216 107.948H38.2091C36.6718 107.948 35.4248 106.702 35.4248 105.163V23.1764ZM12.5882 10C16.2268 10 19.1765 11.9598 19.1765 14.3774V114.328C19.1765 116.746 16.2268 118.706 12.5882 118.706C8.94966 118.706 6 116.746 6 114.328V14.3774C6 11.9598 8.94966 10 12.5882 10Z" fill="url(#paint0_linear_1005_268)"/>
<path fill-rule="evenodd" clip-rule="evenodd" d="M86.5319 43.3772C86.5319 50.9018 80.6795 57.0329 73.1553 57.0329C65.6307 57.0329 59.4996 50.9018 59.4996 43.3772C59.4996 36.1312 65.352 30 72.8767 30C80.4016 30 86.5319 35.8526 86.5319 43.3772ZM80.9585 43.6559C80.9585 39.1968 77.3357 35.5737 72.8767 35.5737C68.6963 35.5737 65.0733 39.1968 65.0733 43.6559C65.0733 47.8362 68.4176 51.4592 72.8767 51.4592C77.3357 51.4592 80.9585 48.1149 80.9585 43.6559ZM95.4508 71.2458L96.0077 72.082L96.2868 93.2616C96.2868 95.7699 94.0565 98 91.5484 98H55.8765C53.0896 98 51.1387 95.7699 51.1387 93.2616V72.082L51.6962 71.2458C57.2699 65.1143 65.3519 61.4912 73.7125 61.77C82.0736 61.4912 89.8762 65.1143 95.4508 71.2458ZM56.7125 92.4256H90.4343V74.032C85.975 69.5737 79.8435 67.0655 73.7125 67.3434C67.3028 67.3434 61.1716 69.5737 56.7125 74.032V92.4256Z" fill="url(#paint1_linear_1005_268)" stroke="url(#paint2_linear_1005_268)" stroke-width="4"/>
<defs>
<linearGradient id="paint0_linear_1005_268" x1="18.7127" y1="64.1708" x2="102.472" y2="64.1708" gradientUnits="userSpaceOnUse">
<stop stop-color="#5570FF"/>
<stop offset="1" stop-color="#4DD3FF"/>
</linearGradient>
<linearGradient id="paint1_linear_1005_268" x1="39.4085" y1="59.3233" x2="100.98" y2="59.3233" gradientUnits="userSpaceOnUse">
<stop stop-color="#5570FF"/>
<stop offset="1" stop-color="#4DD3FF"/>
</linearGradient>
<linearGradient id="paint2_linear_1005_268" x1="39.4085" y1="59.3233" x2="100.98" y2="59.3233" gradientUnits="userSpaceOnUse">
<stop stop-color="#5570FF"/>
<stop offset="1" stop-color="#4DD3FF"/>
</linearGradient>
</defs>
</svg>
