<svg width="24" height="24" viewBox="0 0 24 24" fill="none" xmlns="http://www.w3.org/2000/svg">
<path fill-rule="evenodd" clip-rule="evenodd" d="M3.464 3.464C2 4.93 2 7.286 2 12C2 16.714 2 19.071 3.464 20.535C4.93 22 7.286 22 12 22C16.714 22 19.071 22 20.535 20.535C22 19.072 22 16.714 22 12C22 7.286 22 4.929 20.535 3.464C19.072 2 16.714 2 12 2C7.286 2 4.929 2 3.464 3.464ZM16 10C16.5304 10 17.0391 9.78933 17.4142 9.41422C17.7893 9.03911 18 8.53043 18 8C18 7.46957 17.7893 6.96086 17.4142 6.58579C17.0391 6.21071 16.5304 6 16 6C15.4696 6 14.9609 6.21071 14.5858 6.58579C14.2107 6.96086 14 7.46957 14 8C14 8.53043 14.2107 9.03911 14.5858 9.41422C14.9609 9.78933 15.4696 10 16 10Z" stroke="url(#paint0_linear_678_153)" stroke-width="2"/>
<path d="M7.42712 12.6902C7.01793 12.6765 6.61994 12.8253 6.32006 13.1041L5.51006 13.8561C5.36419 13.9913 5.17056 14.0631 4.97177 14.0557C4.77298 14.0481 4.58532 13.962 4.45006 13.8161C4.3148 13.6702 4.24303 13.4767 4.25053 13.2778C4.25803 13.079 4.34419 12.8913 4.49006 12.7561L5.30006 12.0041C5.88998 11.456 6.67273 11.1634 7.47753 11.1902C8.28228 11.217 9.04384 11.561 9.59606 12.1471L12.2431 14.9571C12.3768 15.0992 12.558 15.1872 12.7524 15.2044C12.9468 15.2215 13.1407 15.1667 13.2971 15.0501C13.8781 14.6164 14.5939 14.4027 15.3175 14.4465C16.0412 14.4905 16.7259 14.7893 17.2501 15.2901L19.5181 17.4581C19.6557 17.5969 19.7337 17.7839 19.7354 17.9792C19.7372 18.1747 19.6627 18.363 19.5277 18.5042C19.3927 18.6455 19.2078 18.7285 19.0125 18.7355C18.8173 18.7427 18.627 18.6732 18.4821 18.5421L16.2141 16.3761C15.9463 16.1201 15.5964 15.9673 15.2267 15.9448C14.8568 15.9222 14.491 16.0315 14.1941 16.2531C13.7428 16.5899 13.1833 16.7489 12.6224 16.6998C12.0614 16.6508 11.5381 16.3971 11.1521 15.9871L8.50406 13.1771C8.2235 12.879 7.83628 12.704 7.42712 12.6902Z" fill="url(#paint1_linear_678_153)" stroke="url(#paint2_linear_678_153)"/>
<defs>
<linearGradient id="paint0_linear_678_153" x1="12" y1="22" x2="12" y2="2" gradientUnits="userSpaceOnUse">
<stop stop-color="#5558FF"/>
<stop offset="1" stop-color="#00C0FF"/>
</linearGradient>
<linearGradient id="paint1_linear_678_153" x1="12" y1="22" x2="12" y2="2" gradientUnits="userSpaceOnUse">
<stop stop-color="#5558FF"/>
<stop offset="1" stop-color="#00C0FF"/>
</linearGradient>
<linearGradient id="paint2_linear_678_153" x1="12" y1="22" x2="12" y2="2" gradientUnits="userSpaceOnUse">
<stop stop-color="#5558FF"/>
<stop offset="1" stop-color="#00C0FF"/>
</linearGradient>
</defs>
</svg>
