<svg width="128" height="128" viewBox="0 0 128 128" fill="none" xmlns="http://www.w3.org/2000/svg">
<path d="M21.2712 17.2711C20.8311 17.7114 20.5837 18.3085 20.5837 18.931V103.906C20.5837 104.528 20.8307 105.125 21.2709 105.565C21.7115 106.007 22.3089 106.253 22.931 106.253H46.3546C47.6917 106.253 48.9741 106.784 49.9195 107.73L49.9197 107.731C50.8652 108.676 51.3964 109.959 51.3964 111.295C51.3964 112.632 50.8651 113.915 49.9197 114.86C48.9742 115.806 47.6917 116.337 46.3546 116.337H22.931C16.0692 116.337 10.5 110.768 10.5 103.906V18.931C10.5 15.6341 11.8096 12.4722 14.1409 10.141C16.4721 7.80968 19.6341 6.5 22.931 6.5H85.7387C89.0354 6.5 92.1971 7.80967 94.5285 10.141C96.8598 12.4722 98.1696 15.6341 98.1696 18.931V76.0934C98.1696 77.4305 97.6385 78.713 96.6928 79.6581C95.7477 80.6038 94.465 81.1352 93.1278 81.1352C91.7906 81.1352 90.508 80.6041 89.563 79.6584C88.6172 78.7133 88.0859 77.4305 88.0859 76.0934V18.931C88.0859 18.3087 87.8391 17.7116 87.3987 17.2711C86.9583 16.8311 86.3612 16.5837 85.7387 16.5837H22.931C22.3085 16.5837 21.7115 16.831 21.2712 17.2711Z" fill="url(#paint0_linear_678_163)"/>
<path d="M49.9197 114.86C50.8651 113.915 51.3964 112.632 51.3964 111.295C51.3964 109.959 50.8652 108.676 49.9197 107.731L49.9195 107.73C48.9741 106.784 47.6917 106.253 46.3546 106.253H22.931C22.3089 106.253 21.7115 106.007 21.2709 105.565C20.8307 105.125 20.5837 104.528 20.5837 103.906V18.931C20.5837 18.3085 20.8311 17.7114 21.2712 17.2711C21.7115 16.831 22.3085 16.5837 22.931 16.5837H85.7387C86.3612 16.5837 86.9583 16.8311 87.3987 17.2711C87.8391 17.7116 88.0859 18.3087 88.0859 18.931V76.0934C88.0859 77.4305 88.6172 78.7133 89.563 79.6584C90.508 80.6041 91.7906 81.1352 93.1278 81.1352C94.465 81.1352 95.7477 80.6038 96.6928 79.6581C97.6385 78.713 98.1696 77.4305 98.1696 76.0934V18.931C98.1696 15.6341 96.8598 12.4722 94.5285 10.141C92.1971 7.80967 89.0354 6.5 85.7387 6.5H22.931C19.6341 6.5 16.4721 7.80968 14.1409 10.141C11.8096 12.4722 10.5 15.6341 10.5 18.931V103.906C10.5 110.768 16.0692 116.337 22.931 116.337H46.3546C47.6917 116.337 48.9742 115.806 49.9197 114.86ZM49.9197 114.86L50.2732 115.214" stroke="url(#paint1_linear_678_163)"/>
<path fill-rule="evenodd" clip-rule="evenodd" d="M21.0837 18.931C21.0837 18.4411 21.2783 17.9712 21.6247 17.6247C21.9712 17.2783 22.4411 17.0837 22.931 17.0837H85.7387C86.2286 17.0837 86.6985 17.2783 87.0451 17.6247C87.3916 17.9712 87.5859 18.4411 87.5859 18.931V76.0934C87.5859 77.5631 88.1697 78.9728 89.2093 80.0118C90.2482 81.0515 91.6581 81.6352 93.1278 81.6352C94.5975 81.6352 96.0073 81.0515 97.0463 80.0118C98.0859 78.9728 98.6696 77.5631 98.6696 76.0934V18.931C98.6696 15.5015 97.3071 12.2124 94.882 9.7874C92.4569 7.36236 89.168 6 85.7387 6H22.931C19.5015 6 16.2124 7.36236 13.7874 9.7874C11.3623 12.2124 10 15.5015 10 18.931V103.906C10 111.044 15.7931 116.837 22.931 116.837H46.3546C47.8243 116.837 49.234 116.253 50.2732 115.214C51.3125 114.175 51.8964 112.765 51.8964 111.295C51.8964 109.826 51.3125 108.416 50.2732 107.377C49.234 106.337 47.8243 105.753 46.3546 105.753H22.931C22.4411 105.753 21.9712 105.559 21.6247 105.212C21.2783 104.866 21.0837 104.396 21.0837 103.906V18.931Z" fill="url(#paint2_linear_678_163)" stroke="url(#paint3_linear_678_163)"/>
<path fill-rule="evenodd" clip-rule="evenodd" d="M37.7088 35.5566C36.2391 35.5566 34.8294 36.1405 33.7902 37.1798C32.7509 38.2191 32.167 39.6287 32.167 41.0985C32.167 42.5683 32.7509 43.9779 33.7902 45.0172C34.8294 46.0565 36.2391 46.6403 37.7088 46.6403H70.96C72.4297 46.6403 73.8394 46.0565 74.8786 45.0172C75.9179 43.9779 76.5018 42.5683 76.5018 41.0985C76.5018 39.6287 75.9179 38.2191 74.8786 37.1798C73.8394 36.1405 72.4297 35.5566 70.96 35.5566H37.7088ZM32.167 63.2659C32.167 61.7961 32.7509 60.3865 33.7902 59.3472C34.8294 58.3079 36.2391 57.7241 37.7088 57.7241H52.4871C53.9569 57.7241 55.3665 58.3079 56.4058 59.3472C57.4451 60.3865 58.029 61.7961 58.029 63.2659C58.029 64.7357 57.4451 66.1453 56.4058 67.1846C55.3665 68.2239 53.9569 68.8078 52.4871 68.8078H37.7088C36.2391 68.8078 34.8294 68.2239 33.7902 67.1846C32.7509 66.1453 32.167 64.7357 32.167 63.2659Z" fill="url(#paint4_linear_678_163)" stroke="url(#paint5_linear_678_163)" stroke-width="3"/>
<path d="M117.62 85.7687C117.333 86.4382 116.918 87.0441 116.396 87.5525L82.7237 120.427C81.6788 121.446 80.2734 122.011 78.8141 122C77.3547 121.989 75.9582 121.402 74.9281 120.368L60.5713 105.959C59.5943 104.907 59.0639 103.516 59.0919 102.08C59.1199 100.645 59.7041 99.2761 60.7214 98.2623C61.7387 97.2485 63.1097 96.6699 64.5455 96.647C65.9813 96.6248 67.3699 97.1598 68.4185 98.1411L76.1083 105.864C77.6564 107.418 80.1679 107.436 81.7375 105.903L108.652 79.6165C109.173 79.1082 109.789 78.7069 110.465 78.4372C111.142 78.1668 111.864 78.032 112.592 78.0409C113.32 78.05 114.04 78.2022 114.708 78.4889C115.378 78.7756 115.984 79.1917 116.492 79.7126C117 80.2335 117.402 80.8498 117.672 81.5259C117.943 82.202 118.077 82.9246 118.068 83.6525C118.059 84.3803 117.907 85.0993 117.62 85.7687Z" fill="url(#paint6_linear_678_163)" stroke="url(#paint7_linear_678_163)" stroke-width="2"/>
<defs>
<linearGradient id="paint0_linear_678_163" x1="8.71834" y1="7.09062" x2="120.937" y2="99.6122" gradientUnits="userSpaceOnUse">
<stop stop-color="#F9D423"/>
<stop offset="0.515624" stop-color="#FF4E50"/>
<stop offset="0.991304" stop-color="#8A2387"/>
</linearGradient>
<linearGradient id="paint1_linear_678_163" x1="8.71834" y1="7.09062" x2="120.937" y2="99.6122" gradientUnits="userSpaceOnUse">
<stop stop-color="#F9D423"/>
<stop offset="0.515624" stop-color="#FF4E50"/>
<stop offset="0.991304" stop-color="#8A2387"/>
</linearGradient>
<linearGradient id="paint2_linear_678_163" x1="8.71834" y1="7.09062" x2="120.937" y2="99.6122" gradientUnits="userSpaceOnUse">
<stop stop-color="#F9D423"/>
<stop offset="0.515624" stop-color="#FF4E50"/>
<stop offset="0.991304" stop-color="#8A2387"/>
</linearGradient>
<linearGradient id="paint3_linear_678_163" x1="8.71834" y1="7.09062" x2="120.937" y2="99.6122" gradientUnits="userSpaceOnUse">
<stop stop-color="#F9D423"/>
<stop offset="0.515624" stop-color="#FF4E50"/>
<stop offset="0.991304" stop-color="#8A2387"/>
</linearGradient>
<linearGradient id="paint4_linear_678_163" x1="74.4932" y1="36.1281" x2="45.7178" y2="76.4628" gradientUnits="userSpaceOnUse">
<stop stop-color="#D800BD"/>
<stop offset="0.408098" stop-color="#F92D7A"/>
<stop offset="0.590073" stop-color="#FF4A52"/>
<stop offset="1" stop-color="#FFB243"/>
</linearGradient>
<linearGradient id="paint5_linear_678_163" x1="74.4932" y1="36.1281" x2="45.7178" y2="76.4628" gradientUnits="userSpaceOnUse">
<stop stop-color="#D800BD"/>
<stop offset="0.408098" stop-color="#F92D7A"/>
<stop offset="0.590073" stop-color="#FF4A52"/>
<stop offset="1" stop-color="#FFB243"/>
</linearGradient>
<linearGradient id="paint6_linear_678_163" x1="115.396" y1="78.7961" x2="77.4313" y2="132.343" gradientUnits="userSpaceOnUse">
<stop stop-color="#D800BD"/>
<stop offset="0.408098" stop-color="#F92D7A"/>
<stop offset="0.590073" stop-color="#FF4A52"/>
<stop offset="1" stop-color="#FFB243"/>
</linearGradient>
<linearGradient id="paint7_linear_678_163" x1="115.396" y1="78.7961" x2="77.4313" y2="132.343" gradientUnits="userSpaceOnUse">
<stop stop-color="#D800BD"/>
<stop offset="0.408098" stop-color="#F92D7A"/>
<stop offset="0.590073" stop-color="#FF4A52"/>
<stop offset="1" stop-color="#FFB243"/>
</linearGradient>
</defs>
</svg>
