<svg width="64" height="64" viewBox="0 0 64 64" fill="none" xmlns="http://www.w3.org/2000/svg">
<path fill-rule="evenodd" clip-rule="evenodd" d="M26.6244 6.07026C25.9001 4.55546 24.1089 3.58625 22.4341 4.00025C20.4845 4.37895 19.23 6.50993 19.6697 8.397C20.3572 12.1533 21.0614 15.907 21.7656 19.6607C22.6113 24.1685 23.457 28.6763 24.2738 33.1889C24.3155 33.3907 24.3564 33.594 24.3975 33.7982C24.8352 35.9716 25.2939 38.2496 26.8604 39.9188C28.6937 42.0049 31.6294 42.8746 34.3518 42.4928C37.1939 41.8605 39.5994 39.7071 40.4368 36.9277C41.0641 34.7679 40.6211 32.4251 39.5768 30.4642C35.3964 22.5039 31.1637 14.5742 26.9297 6.64216L26.6244 6.07026ZM26.2686 22.779C25.3742 18.0705 24.4797 13.3618 23.7177 8.63128C24.068 9.53495 24.5355 10.3812 25.0031 11.2276C25.2346 11.6467 25.4662 12.0659 25.6835 12.4921C26.8026 14.6059 27.9266 16.7172 29.0505 18.8283C31.4724 23.3776 33.8941 27.9263 36.2659 32.499C37.0193 33.9206 37.1421 35.7852 36.0525 37.0754C34.756 39.0107 31.7782 39.1647 30.084 37.6723C28.9669 36.7386 28.6642 35.3099 28.3733 33.9367C28.3013 33.5967 28.23 33.2602 28.1472 32.9354C27.5538 29.5447 26.9112 26.1619 26.2686 22.779ZM31.8039 4.23607C31.6828 4.27003 31.5557 4.30569 31.4743 4.32726C29.7315 5.00764 30.2198 7.89923 32.0982 7.94095C38.8396 8.02439 45.5292 10.9288 49.9749 15.9931C53.3569 19.7544 55.5232 24.5844 56.0308 29.6038C56.5934 35.0949 55.2355 40.7722 52.1768 45.3872C48.8465 50.4483 43.531 54.1903 37.6045 55.596C32.1015 56.9215 26.1361 56.2026 21.0922 53.6576C17.2253 51.7192 13.9177 48.7056 11.6189 45.063C8.2304 39.8735 7.09553 33.3587 8.32094 27.3156C9.33941 22.1935 12.078 17.4212 16.0484 13.9905C16.6659 13.477 17.3546 12.8351 17.2771 11.9558C17.2641 10.5918 15.5505 9.62904 14.393 10.4121C7.04056 16.1696 3.15096 25.82 4.1565 35.0307C4.90986 42.4795 8.82532 49.5465 14.7615 54.1615C19.3075 57.727 24.9884 59.7937 30.7694 60.0762C35.5029 60.2495 40.3075 59.2835 44.5333 57.1269C50.0428 54.3829 54.5984 49.7871 57.2271 44.2479C60.095 38.3331 60.7805 31.4042 59.0862 25.0562C57.4114 18.4771 53.1855 12.5849 47.5015 8.8203C42.962 5.81639 37.5172 4.12508 32.053 4.1668C31.9904 4.18374 31.899 4.20938 31.8039 4.23607Z" fill="url(#paint0_linear_1005_229)"/>
<path d="M22.4341 4.00025L22.7201 5.47273L22.7573 5.46551L22.7941 5.45642L22.4341 4.00025ZM26.6244 6.07026L25.2712 6.71734L25.2855 6.7473L25.3011 6.7766L26.6244 6.07026ZM19.6697 8.397L21.1452 8.12695L21.1387 8.0916L21.1305 8.0566L19.6697 8.397ZM21.7656 19.6607L23.2399 19.3841L23.2399 19.3841L21.7656 19.6607ZM24.2738 33.1889L22.7978 33.4561L22.8011 33.4742L22.8048 33.4922L24.2738 33.1889ZM24.3975 33.7982L22.9271 34.0943L22.9271 34.0943L24.3975 33.7982ZM26.8604 39.9188L27.9871 38.9286L27.9709 38.9102L27.9542 38.8924L26.8604 39.9188ZM34.3518 42.4928L34.5602 43.9782L34.6193 43.9699L34.6776 43.957L34.3518 42.4928ZM40.4368 36.9277L41.873 37.3605L41.8752 37.3533L41.8773 37.3461L40.4368 36.9277ZM39.5768 30.4642L38.2488 31.1616L38.2529 31.1693L39.5768 30.4642ZM26.9297 6.64216L25.6064 7.34851L25.6064 7.34851L26.9297 6.64216ZM23.7177 8.63128L25.1163 8.08907L22.2368 8.86983L23.7177 8.63128ZM26.2686 22.779L24.7949 23.059L24.7949 23.059L26.2686 22.779ZM25.0031 11.2276L23.6901 11.9529L23.6901 11.9529L25.0031 11.2276ZM25.6835 12.4921L24.3473 13.1736L24.3525 13.1838L24.3579 13.1939L25.6835 12.4921ZM29.0505 18.8283L27.7265 19.5332L27.7265 19.5332L29.0505 18.8283ZM36.2659 32.499L34.9343 33.1897L34.9405 33.2013L36.2659 32.499ZM36.0525 37.0754L34.9065 36.1075L34.8527 36.1712L34.8063 36.2405L36.0525 37.0754ZM30.084 37.6723L31.0754 36.5467L31.0609 36.5339L31.046 36.5215L30.084 37.6723ZM28.3733 33.9367L26.9059 34.2476L26.9059 34.2476L28.3733 33.9367ZM28.1472 32.9354L26.6697 33.194L26.6795 33.2503L26.6937 33.3057L28.1472 32.9354ZM31.4743 4.32726L31.0903 2.87723L31.0081 2.89902L30.9288 2.92997L31.4743 4.32726ZM31.8039 4.23607L31.3987 2.79184L31.3987 2.79184L31.8039 4.23607ZM32.0982 7.94095L32.0649 9.44058L32.0723 9.44074L32.0797 9.44083L32.0982 7.94095ZM49.9749 15.9931L48.8477 16.9827L48.8536 16.9894L48.8595 16.996L49.9749 15.9931ZM56.0308 29.6038L54.5384 29.7547L54.5386 29.7567L56.0308 29.6038ZM52.1768 45.3872L50.9264 44.5585L50.9237 44.5627L52.1768 45.3872ZM37.6045 55.596L37.2583 54.1364L37.2532 54.1377L37.6045 55.596ZM21.0922 53.6576L21.768 52.3184L21.7644 52.3166L21.0922 53.6576ZM11.6189 45.063L12.8874 44.2625L12.8812 44.2527L12.8748 44.243L11.6189 45.063ZM8.32094 27.3156L9.79103 27.6137L9.79213 27.6081L8.32094 27.3156ZM16.0484 13.9905L15.0894 12.8371L15.0784 12.8462L15.0677 12.8555L16.0484 13.9905ZM17.2771 11.9558L15.7771 11.9701L15.7777 12.0289L15.7829 12.0876L17.2771 11.9558ZM14.393 10.4121L13.5525 9.16972L13.5093 9.19896L13.4682 9.23112L14.393 10.4121ZM4.1565 35.0307L5.64894 34.8798L5.64764 34.8679L4.1565 35.0307ZM14.7615 54.1615L15.6873 52.9812L15.6822 52.9773L14.7615 54.1615ZM30.7694 60.0762L30.6962 61.5744L30.7054 61.5749L30.7145 61.5752L30.7694 60.0762ZM44.5333 57.1269L43.8646 55.7842L43.858 55.7875L43.8515 55.7908L44.5333 57.1269ZM57.2271 44.2479L55.8773 43.5934L55.8719 43.6048L57.2271 44.2479ZM59.0862 25.0562L57.6325 25.4262L57.6347 25.4346L57.6369 25.443L59.0862 25.0562ZM47.5015 8.8203L48.3298 7.56972L48.3293 7.56938L47.5015 8.8203ZM32.053 4.1668L32.0415 2.66684L31.848 2.66832L31.6612 2.71888L32.053 4.1668ZM22.7941 5.45642C23.7071 5.23072 24.821 5.77598 25.2712 6.71734L27.9777 5.42317C26.9791 3.33494 24.5107 1.94177 22.0741 2.54408L22.7941 5.45642ZM21.1305 8.0566C20.8685 6.93188 21.6699 5.67673 22.7201 5.47273L22.1481 2.52777C19.2991 3.08117 17.5915 6.08798 18.2088 8.73741L21.1305 8.0566ZM23.2399 19.3841C22.5356 15.6299 21.832 11.8794 21.1452 8.12695L18.1942 8.66706C18.8824 12.4272 19.5872 16.1841 20.2913 19.9373L23.2399 19.3841ZM25.7499 32.9218C24.932 28.4036 24.0854 23.8911 23.2399 19.3841L20.2913 19.9373C21.1372 24.4458 21.982 28.949 22.7978 33.4561L25.7499 32.9218ZM25.868 33.5021C25.827 33.2985 25.7854 33.0916 25.7429 32.8857L22.8048 33.4922C22.8456 33.6898 22.8858 33.8895 22.9271 34.0943L25.868 33.5021ZM27.9542 38.8924C26.7295 37.5873 26.3228 35.7605 25.868 33.5021L22.9271 34.0943C23.3476 36.1827 23.8583 38.9118 25.7666 40.9453L27.9542 38.8924ZM34.1435 41.0073C31.8368 41.3309 29.4346 40.5757 27.9871 38.9286L25.7337 40.909C27.9528 43.4341 31.422 44.4184 34.5602 43.9782L34.1435 41.0073ZM39.0006 36.495C38.3267 38.7315 36.3632 40.5086 34.0261 41.0286L34.6776 43.957C38.0246 43.2123 40.872 40.6827 41.873 37.3605L39.0006 36.495ZM38.2529 31.1693C39.16 32.8725 39.4898 34.8103 38.9963 36.5094L41.8773 37.3461C42.6383 34.7255 42.0823 31.9776 40.9007 29.7591L38.2529 31.1693ZM25.6064 7.34851C29.8408 15.2813 34.0711 23.2065 38.2488 31.1616L40.9048 29.7668C36.7217 21.8012 32.4865 13.8671 28.253 5.93582L25.6064 7.34851ZM25.3011 6.7766L25.6064 7.34851L28.253 5.93582L27.9477 5.36391L25.3011 6.7766ZM22.2368 8.86983C23.0027 13.6245 23.9012 18.3539 24.7949 23.059L27.7422 22.4991C26.8472 17.7872 25.9567 13.099 25.1986 8.39273L22.2368 8.86983ZM26.3161 10.5023C25.8403 9.64107 25.4239 8.8826 25.1163 8.08907L22.3191 9.17349C22.7122 10.1873 23.2307 11.1213 23.6901 11.9529L26.3161 10.5023ZM27.0198 11.8106C26.7893 11.3586 26.5456 10.9178 26.3161 10.5023L23.6901 11.9529C23.9236 12.3757 24.1431 12.7732 24.3473 13.1736L27.0198 11.8106ZM30.3746 18.1234C29.2505 16.012 28.1274 13.9023 27.0092 11.7902L24.3579 13.1939C25.4779 15.3095 26.6027 17.4223 27.7265 19.5332L30.3746 18.1234ZM37.5974 31.8083C35.2213 27.2273 32.7959 22.6715 30.3746 18.1234L27.7265 19.5332C30.149 24.0837 32.5668 28.6253 34.9344 33.1896L37.5974 31.8083ZM37.1985 38.0433C38.8179 36.1258 38.5193 33.5478 37.5913 31.7966L34.9405 33.2013C35.5192 34.2935 35.4663 35.4447 34.9065 36.1075L37.1985 38.0433ZM29.0925 38.7979C30.2797 39.8437 31.8644 40.278 33.3428 40.154C34.8297 40.0291 36.3522 39.323 37.2987 37.9103L34.8063 36.2405C34.4563 36.763 33.8416 37.1015 33.0919 37.1645C32.3337 37.2281 31.5824 36.9933 31.0754 36.5467L29.0925 38.7979ZM26.9059 34.2476C27.174 35.5131 27.5402 37.5009 29.1219 38.8232L31.046 36.5215C30.3937 35.9762 30.1545 35.1066 29.8407 33.6258L26.9059 34.2476ZM26.6937 33.3057C26.7676 33.5958 26.8327 33.902 26.9059 34.2476L29.8407 33.6258C29.7699 33.2915 29.6924 32.9245 29.6008 32.565L26.6937 33.3057ZM24.7949 23.059C25.4379 26.4437 26.0784 29.8158 26.6697 33.194L29.6248 32.6768C29.0292 29.2737 28.3845 25.8802 27.7422 22.4991L24.7949 23.059ZM31.8582 5.77729C31.953 5.7522 32.093 5.71287 32.2091 5.6803L31.3987 2.79184C31.2727 2.8272 31.1585 2.85919 31.0903 2.87723L31.8582 5.77729ZM32.1315 6.44132C32.0748 6.44006 32.0577 6.42807 32.0329 6.40285C31.9909 6.36008 31.9314 6.26452 31.9069 6.12082C31.8823 5.97725 31.9059 5.8631 31.9338 5.8028C31.952 5.76357 31.9683 5.74464 32.0198 5.72455L30.9288 2.92997C29.2086 3.60154 28.7279 5.32857 28.9498 6.62639C29.1722 7.92752 30.2055 9.39929 32.0649 9.44058L32.1315 6.44132ZM51.1022 15.0035C46.3591 9.60046 39.2571 6.52944 32.1168 6.44106L32.0797 9.44083C38.4221 9.51933 44.6993 12.2572 48.8477 16.9827L51.1022 15.0035ZM57.5232 29.4529C56.9829 24.1107 54.6812 18.9838 51.0903 14.9902L48.8595 16.996C52.0326 20.525 54.0634 25.0581 54.5384 29.7547L57.5232 29.4529ZM53.4271 46.2159C56.6815 41.3057 58.1202 35.2802 57.523 29.4509L54.5386 29.7567C55.0666 34.9096 53.7894 40.2388 50.9264 44.5585L53.4271 46.2159ZM37.9506 57.0555C44.2512 55.5611 49.8904 51.5908 53.4298 46.2117L50.9237 44.5627C47.8027 49.3058 42.8108 52.8195 37.2583 54.1365L37.9506 57.0555ZM20.4165 54.9967C25.7736 57.6998 32.1026 58.4641 37.9557 57.0543L37.2532 54.1377C32.1005 55.3788 26.4987 54.7054 21.768 52.3184L20.4165 54.9967ZM10.3503 45.8636C12.7938 49.7353 16.3068 52.9367 20.4201 54.9985L21.7644 52.3166C18.1438 50.5017 15.0415 47.6759 12.8874 44.2625L10.3503 45.8636ZM6.85085 27.0175C5.55078 33.4288 6.74897 40.3483 10.3629 45.8831L12.8748 44.243C9.71183 39.3988 8.64028 33.2886 9.79102 27.6137L6.85085 27.0175ZM15.0677 12.8555C10.8399 16.5086 7.93215 21.5794 6.84974 27.023L9.79213 27.6081C10.7467 22.8076 13.3161 18.3338 17.0291 15.1255L15.0677 12.8555ZM15.7829 12.0876C15.7831 12.0905 15.784 12.0909 15.7802 12.1024C15.7745 12.1198 15.7563 12.1638 15.704 12.2368C15.5859 12.4016 15.3918 12.5856 15.0894 12.8371L17.0074 15.1439C17.3225 14.8819 17.7815 14.4882 18.1428 13.9839C18.5223 13.454 18.8506 12.7233 18.7713 11.824L15.7829 12.0876ZM15.2335 11.6545C15.2505 11.643 15.352 11.5899 15.5463 11.6958C15.7476 11.8056 15.7769 11.9411 15.7771 11.9701L18.777 11.9415C18.7643 10.6065 17.9303 9.57867 16.9822 9.06181C16.0271 8.54111 14.693 8.39815 13.5525 9.16972L15.2335 11.6545ZM5.64764 34.8679C4.69644 26.1549 8.38791 17.0197 15.3178 11.5931L13.4682 9.23112C5.69322 15.3195 1.60549 25.4851 2.66536 35.1935L5.64764 34.8679ZM15.6822 52.9773C10.0686 48.613 6.36081 41.9189 5.64889 34.8798L2.66412 35.1817C3.45891 43.0402 7.58208 50.4799 13.8409 55.3457L15.6822 52.9773ZM30.8426 58.578C25.3627 58.3102 19.9817 56.3494 15.6873 52.9812L13.8358 55.3418C18.6333 59.1045 24.6141 61.2772 30.6962 61.5744L30.8426 58.578ZM43.8515 55.7908C39.871 57.8222 35.323 58.7419 30.8243 58.5772L30.7145 61.5752C35.6828 61.7571 40.7439 60.7448 45.2152 58.463L43.8515 55.7908ZM55.8719 43.6048C53.39 48.8348 49.0791 53.1871 43.8646 55.7842L45.2021 58.4696C51.0065 55.5787 55.8069 50.7394 58.5822 44.891L55.8719 43.6048ZM57.6369 25.443C59.2374 31.4396 58.5899 37.9992 55.8774 43.5935L58.5768 44.9023C61.6001 38.6671 62.3236 31.3688 60.5354 24.6694L57.6369 25.443ZM46.6732 10.0709C52.0518 13.6331 56.0511 19.2141 57.6325 25.4262L60.5398 24.6861C58.7716 17.7402 54.3192 11.5366 48.3298 7.56972L46.6732 10.0709ZM32.0645 5.66676C37.2172 5.62741 42.3718 7.2245 46.6737 10.0712L48.3293 7.56938C43.5522 4.40827 37.8171 2.62274 32.0415 2.66684L32.0645 5.66676ZM32.2091 5.6803C32.3072 5.65278 32.3906 5.62941 32.4448 5.61472L31.6612 2.71888C31.5902 2.73808 31.4908 2.76598 31.3987 2.79184L32.2091 5.6803Z" fill="url(#paint1_linear_1005_229)"/>
<defs>
<linearGradient id="paint0_linear_1005_229" x1="32" y1="60.096" x2="32" y2="3.9043" gradientUnits="userSpaceOnUse">
<stop stop-color="#5570FF"/>
<stop offset="1" stop-color="#4DD3FF"/>
</linearGradient>
<linearGradient id="paint1_linear_1005_229" x1="32" y1="60.096" x2="32" y2="3.9043" gradientUnits="userSpaceOnUse">
<stop stop-color="#5570FF"/>
<stop offset="1" stop-color="#4DD3FF"/>
</linearGradient>
</defs>
</svg>
