<svg width="128" height="128" viewBox="0 0 128 128" fill="none" xmlns="http://www.w3.org/2000/svg">
<path d="M34.7867 22.6132C35.3485 14.9742 42.0641 8.38122 49.729 8.06481C53.5957 7.98046 57.4624 7.99683 61.3291 8.0132C63.0866 8.02064 64.8443 8.02808 66.6019 8.02606C64.9166 10.5896 63.1538 13.1015 61.3392 15.5747C59.9176 15.6009 58.4941 15.5814 57.0706 15.5619C54.634 15.5286 52.197 15.4953 49.7677 15.6909C46.9663 15.9017 44.5754 17.7839 43.2572 20.2015C43.1471 20.4036 43.063 20.6187 43.0019 20.8405C42.1003 24.1095 42.2311 27.5309 42.3614 30.9378C42.4222 32.526 42.4828 34.1112 42.4386 35.6764C39.8686 35.6118 37.2986 35.5989 34.7221 35.6312C34.7162 34.6377 34.7045 33.6438 34.6928 32.6499L34.6922 32.5995C34.6527 29.2689 34.6133 25.9373 34.7867 22.6132Z" fill="url(#paint0_linear_1005_246)"/>
<path d="M24.4759 53.7465L24.4779 53.7463C25.4514 53.6686 26.4336 53.5903 27.4064 53.6211C28.6809 53.6614 29.7176 54.5722 30.1032 55.7877C30.7052 57.6858 31.1104 59.6475 31.5157 61.6106V61.6106C31.8895 63.4205 33.9894 63.4649 34.3828 61.659V61.659L34.383 61.6579C34.8127 59.6854 35.2421 57.7142 35.8526 55.8014C36.2223 54.6432 37.1719 53.7357 38.3813 53.6104C39.1335 53.5324 39.8977 53.5389 40.6449 53.6379C41.7055 53.7786 42.5565 54.5514 42.8856 55.5696C43.2025 56.5501 43.4213 57.5636 43.6399 58.5762C43.7817 59.2335 43.9235 59.8904 44.0921 60.5376C44.1818 60.9211 44.2707 61.3048 44.3595 61.6884V61.6884C44.7658 63.4428 46.8688 63.397 47.2311 61.633V61.633C47.6363 59.6605 48.041 57.6899 48.651 55.7883C49.046 54.5568 50.1125 53.6501 51.4053 53.6159C52.436 53.5886 53.4746 53.674 54.5021 53.7585L54.5269 53.7606V53.7606C54.8511 53.7872 55.0858 54.0832 55.0323 54.4041C54.4632 57.8115 53.5286 61.1458 52.5944 64.4789L52.5925 64.4855L52.592 64.4873C52.0309 66.4893 51.47 68.4905 50.9885 70.5076C50.7363 71.2689 50.5545 72.0618 50.3727 72.8555C50.1344 73.8952 49.8958 74.936 49.4981 75.908C49.1392 76.7851 48.3312 77.3909 47.3932 77.5264C46.5254 77.6518 45.636 77.6634 44.7675 77.5482C43.6204 77.3961 42.7494 76.5037 42.4037 75.3994C41.7877 73.431 41.3591 71.404 40.9304 69.3762C40.5778 67.7082 40.2251 66.0402 39.7679 64.4043C39.6951 64.1435 39.5964 63.8242 39.3422 63.7311V63.7311C38.9213 63.577 38.681 64.1641 38.563 64.5965C38.119 66.2228 37.8059 67.9921 37.4906 69.774L37.4904 69.775C37.1477 71.7116 36.8023 73.6627 36.2835 75.4606C35.9822 76.5048 35.1904 77.3673 34.1169 77.5371C33.2059 77.6812 32.2616 77.6614 31.3456 77.5173C30.443 77.3753 29.6555 76.8048 29.3049 75.9611C28.9326 75.0648 28.714 74.0991 28.4961 73.1361C28.3344 72.421 28.1728 71.7069 27.9488 71.0241C27.449 68.9456 26.8724 66.8837 26.2956 64.8211L26.2921 64.8083C25.3468 61.4282 24.4015 58.0478 23.7935 54.5954C23.7191 54.1733 24.0291 53.782 24.4563 53.748V53.748L24.4573 53.7479L24.4759 53.7465Z" fill="url(#paint1_linear_1005_246)"/>
<path fill-rule="evenodd" clip-rule="evenodd" d="M47.686 35.65L47.6872 35.65C51.2966 35.5573 54.9098 35.4645 58.4208 36.3161C61.346 37.4784 63.9483 39.5835 65.3689 42.4312C66.9562 45.4455 66.8625 48.8442 66.7702 52.1786L66.7687 52.2327C66.7427 53.1802 66.7169 54.1224 66.7315 55.0488C66.7987 58.4072 66.791 61.7678 66.7833 65.1271L66.7831 65.2127V65.2142C66.7747 68.6007 66.767 71.9869 66.8348 75.3699C66.9252 79.0635 66.9962 83.0348 64.975 86.2893C62.9022 89.8085 59.0084 92.1719 54.9145 92.3075C52.0116 92.4108 49.1083 92.3863 46.2055 92.3618C45.7272 92.3577 45.2488 92.3536 44.7704 92.35C43.4413 92.3402 42.3528 93.4001 42.3422 94.7291V94.7291C42.3677 95.9948 42.3523 97.2622 42.3368 98.5294C42.3093 100.779 42.2818 103.029 42.4842 105.267C42.8092 108.253 45.0318 110.593 47.6434 111.856C47.9197 111.989 48.2156 112.077 48.5188 112.125C50.6466 112.456 52.8023 112.432 54.955 112.409C55.7969 112.4 56.6383 112.391 57.4774 112.403C61.2328 112.403 64.9888 112.395 68.7451 112.387H68.7465L69.051 112.386C77.09 112.371 85.1301 112.355 93.1672 112.416C94.4447 112.374 95.7243 112.388 97.0039 112.402C98.8871 112.423 100.77 112.444 102.647 112.287C106.256 111.925 109.227 108.871 109.846 105.358V105.358C109.847 105.355 109.847 105.353 109.847 105.35C110.014 78.0061 109.971 50.6557 109.913 23.3179C109.912 22.9195 109.854 22.5229 109.73 22.1441C109.468 21.3382 109.172 20.5437 108.775 19.7916C107.342 17.4282 104.817 15.7105 102.001 15.633C99.0677 15.5226 96.1318 15.5447 93.1963 15.5668H93.1941C91.1551 15.5822 89.1162 15.5976 87.0785 15.5685C81.9299 15.5801 76.7837 15.5778 71.6369 15.5755L71.1887 15.5753C67.9061 15.5738 64.623 15.5722 61.3392 15.5747C63.1538 13.1015 64.9166 10.5896 66.6019 8.02606C68.5142 8.02463 70.427 8.02283 72.3394 8.02076L72.3431 8.02075L72.3498 8.02074C79.0419 8.0135 85.7347 8.00625 92.4316 8.02633C93.7598 8.0476 95.0899 8.03341 96.4204 8.0192C98.7249 7.9946 101.031 7.96999 103.332 8.12965C109.091 8.67208 114.096 12.7079 116.421 17.9254C117.685 21.3598 117.649 25.0111 117.613 28.6268L117.613 28.6321V28.6334L117.613 28.6354C117.605 29.4289 117.597 30.2207 117.602 31.0081C117.6 33.4533 117.602 35.8985 117.604 38.3437L117.605 39.8197C117.61 45.206 117.615 50.5923 117.589 55.9786C117.607 64.6273 117.605 73.2767 117.603 81.9254C117.601 88.8451 117.6 95.7648 117.608 102.685C117.673 105.958 117.059 109.297 115.387 112.145C112.416 116.891 107.044 120.119 101.381 119.997C94.9199 119.966 88.4571 119.977 81.9939 119.988L81.8377 119.988C70.8479 120.007 59.8558 120.026 48.8698 119.835C46.952 119.687 45.1375 118.996 43.394 118.227C40.3593 116.587 37.9316 113.985 36.2593 110.989C35.5425 109.42 35.0906 107.747 34.8129 106.049C34.6927 103.393 34.7123 100.734 34.732 98.0753C34.7389 97.1411 34.7458 96.2068 34.7467 95.2724C34.7482 93.6448 33.4175 92.3449 31.7899 92.3565V92.3565L31.7661 92.3566L31.4004 92.3592H31.3985L31.3276 92.3597H31.3256C28.399 92.3802 25.4745 92.4007 22.5503 92.3398C20.1805 92.3204 17.8688 91.6166 15.8153 90.4543C14.2462 89.3307 12.9031 87.9165 11.773 86.3539C9.83963 82.976 9.9436 79.1307 10.0463 75.3331V75.3312C10.0832 73.9674 10.1199 72.6101 10.0618 71.2824L10.0576 69.6042C10.0392 62.331 10.0208 55.0576 10.0748 47.7843C10.107 41.6111 15.3698 36.0514 21.5365 35.722C24.0303 35.623 26.5283 35.6365 29.0257 35.65L29.0323 35.65C30.93 35.6604 32.8271 35.6702 34.7221 35.6312C37.2986 35.5989 39.8686 35.6118 42.4386 35.6764C44.1782 35.7397 45.9312 35.6951 47.6849 35.6501L47.686 35.65ZM58.1496 82.6861C57.3231 83.9194 55.8766 84.5652 54.4237 84.675C50.6591 84.6826 46.8955 84.6821 43.1322 84.6815L42.9325 84.6814C37.2345 84.6808 31.537 84.6802 25.8371 84.7072C24.1455 84.725 22.4594 84.6236 20.7786 84.4278C20.4789 84.3929 20.2012 84.2542 19.9884 84.0403V84.0403L19.9876 84.0395L19.9465 83.9982L19.9452 83.997C19.3492 83.3994 18.7445 82.793 18.2944 82.0825C18.0235 81.6549 17.9242 81.1477 17.9087 80.6417C17.7126 74.25 17.7414 67.8514 17.7703 61.4516L17.7703 61.4373C17.7889 57.3061 17.8075 53.1743 17.7654 49.0435C17.5973 47.0506 18.417 44.9739 20.157 43.934C20.4223 43.7755 20.7204 43.6827 21.0243 43.6272C23.6221 43.1525 26.2659 43.211 28.9092 43.2694C30.417 43.3028 31.9255 43.3362 33.4245 43.2707C40.1466 43.2771 46.8751 43.2771 53.6036 43.2707C54.338 43.3442 55.0682 43.4602 55.7871 43.6154C56.1176 43.6867 56.4385 43.8035 56.7206 43.9897C57.6748 44.6195 58.4337 45.5431 58.8222 46.6192C58.9251 46.9042 58.9608 47.2077 58.968 47.5105C59.1067 53.2962 59.0838 59.084 59.0609 64.8727V64.8802C59.0441 69.0934 59.0275 73.3068 59.073 77.5202C59.0624 77.8337 59.0619 78.1549 59.0614 78.4798L59.0614 78.4888C59.0593 79.9508 59.057 81.4779 58.1496 82.6861Z" fill="url(#paint2_linear_1005_246)"/>
<path d="M66.9116 51.5646C66.9311 50.2482 68.0006 49.1874 69.3172 49.1828C73.1513 49.1694 76.9884 49.1641 80.8212 49.1856C82.1293 49.2053 83.4384 49.1911 84.7479 49.1767L84.7528 49.1767C86.8601 49.1537 88.9668 49.1307 91.0688 49.2501C93.0191 49.4051 94.3621 51.6587 93.7099 53.4797C93.3289 54.9068 91.889 55.856 90.4361 55.7914C87.8376 55.8375 85.2417 55.8265 82.6453 55.8154L82.6262 55.8153C80.8671 55.8078 79.1073 55.8004 77.347 55.8108C75.1854 55.8188 73.0237 55.8218 70.8605 55.8184C68.6513 55.8149 66.8739 54.0134 66.9079 51.8044C66.9086 51.759 66.9093 51.7136 66.91 51.6682L66.9101 51.6644L66.9116 51.5658L66.9116 51.5646V51.5646Z" fill="url(#paint3_linear_1005_246)"/>
<path d="M73.9805 62.142L74.0034 62.142C79.4817 62.1253 84.9624 62.1086 90.4428 62.1583C92.8449 61.971 94.6917 64.8122 93.5358 66.9236C92.9159 68.3765 91.2629 68.9254 89.797 68.8092C87.6219 68.8072 85.4454 68.8066 83.2695 68.806L83.1579 68.806C78.8521 68.8044 74.5451 68.8028 70.2398 68.7929C68.4093 68.7886 66.9268 67.3056 66.9268 65.4751V65.4751C66.9268 63.6413 68.4145 62.1571 70.2484 62.1526C71.4884 62.1496 72.7285 62.1458 73.9688 62.142H73.9805Z" fill="url(#paint4_linear_1005_246)"/>
<path d="M66.9574 79.1004C67.0458 76.9992 68.7768 75.3641 70.8798 75.3591C77.1874 75.3441 83.4967 75.344 89.8033 75.344H89.8098C92.6704 75.2407 93.639 77.1779 93.639 78.7922C93.639 80.4066 92.0311 81.924 89.7646 82.021C86.5345 82.1139 83.8515 82.0618 80.9977 82.0061C79.4899 81.9769 77.9345 81.9466 76.2255 81.9363H76.2239L76.2027 81.9362C73.9192 81.9226 71.6358 81.909 69.3531 81.9124C67.9844 81.9145 66.8865 80.7692 66.9447 79.4017V79.4017V79.4005L66.9515 79.2423V79.241C66.9535 79.1941 66.9555 79.1473 66.9574 79.1004Z" fill="url(#paint5_linear_1005_246)"/>
<path d="M66.6019 8.02606C64.8443 8.02808 63.0866 8.02064 61.3291 8.0132C57.4624 7.99683 53.5957 7.98046 49.729 8.06481C42.0641 8.38122 35.3485 14.9742 34.7867 22.6132C34.6133 25.9373 34.6527 29.2689 34.6922 32.5995L34.6928 32.6499C34.7045 33.6438 34.7162 34.6377 34.7221 35.6312M66.6019 8.02606C64.9166 10.5896 63.1538 13.1015 61.3392 15.5747M66.6019 8.02606C68.5142 8.02463 70.427 8.02283 72.3394 8.02076L72.3431 8.02075L72.3498 8.02074C79.0419 8.0135 85.7347 8.00625 92.4316 8.02633C93.7598 8.0476 95.0899 8.03341 96.4204 8.0192C98.7249 7.9946 101.031 7.96999 103.332 8.12965C109.091 8.67208 114.096 12.7079 116.421 17.9254C117.685 21.3598 117.649 25.0111 117.613 28.6268L117.613 28.6321V28.6334L117.613 28.6354C117.605 29.4289 117.597 30.2207 117.602 31.0081C117.6 33.4533 117.602 35.8985 117.604 38.3437L117.605 39.8197C117.61 45.206 117.615 50.5923 117.589 55.9786C117.607 64.6273 117.605 73.2767 117.603 81.9254C117.601 88.8451 117.6 95.7648 117.608 102.685C117.673 105.958 117.059 109.297 115.387 112.145C112.416 116.891 107.044 120.119 101.381 119.997C94.9199 119.966 88.4571 119.977 81.9939 119.988L81.8377 119.988C70.8479 120.007 59.8558 120.026 48.8698 119.835C46.952 119.687 45.1375 118.996 43.394 118.227C40.3593 116.587 37.9316 113.985 36.2593 110.989C35.5425 109.42 35.0906 107.747 34.8129 106.049C34.6927 103.393 34.7123 100.734 34.732 98.0753C34.7389 97.1411 34.7458 96.2068 34.7467 95.2724C34.7482 93.6448 33.4175 92.3449 31.7899 92.3565V92.3565L31.7661 92.3566L31.4004 92.3592H31.3985L31.3276 92.3597H31.3256C28.399 92.3802 25.4745 92.4007 22.5503 92.3398C20.1805 92.3204 17.8688 91.6166 15.8153 90.4543C14.2462 89.3307 12.9031 87.9165 11.773 86.3539C9.83963 82.976 9.9436 79.1307 10.0463 75.3331V75.3312C10.0832 73.9674 10.1199 72.6101 10.0618 71.2824L10.0576 69.6042C10.0392 62.331 10.0208 55.0576 10.0748 47.7843C10.107 41.6111 15.3698 36.0514 21.5365 35.722C24.0303 35.623 26.5283 35.6365 29.0257 35.65L29.0323 35.65C30.93 35.6604 32.8271 35.6702 34.7221 35.6312M61.3392 15.5747C59.9176 15.6009 58.4941 15.5814 57.0706 15.5619C54.634 15.5286 52.197 15.4953 49.7677 15.6909C46.9663 15.9017 44.5754 17.7839 43.2572 20.2015C43.1471 20.4036 43.063 20.6187 43.0019 20.8405C42.1003 24.1095 42.2311 27.5309 42.3614 30.9378C42.4222 32.526 42.4828 34.1112 42.4386 35.6764M61.3392 15.5747C64.623 15.5722 67.9061 15.5738 71.1887 15.5753L71.6369 15.5755C76.7837 15.5778 81.9299 15.5801 87.0785 15.5685C89.1162 15.5976 91.1551 15.5822 93.1941 15.5668H93.1963C96.1318 15.5447 99.0677 15.5226 102.001 15.633C104.817 15.7105 107.342 17.4282 108.775 19.7916C109.172 20.5437 109.468 21.3382 109.73 22.1441C109.854 22.5229 109.912 22.9195 109.913 23.3179C109.971 50.6557 110.014 78.0061 109.847 105.35C109.847 105.353 109.847 105.355 109.846 105.358V105.358C109.227 108.871 106.256 111.925 102.647 112.287C100.77 112.444 98.8871 112.423 97.0039 112.402C95.7243 112.388 94.4447 112.374 93.1672 112.416C85.1301 112.355 77.09 112.371 69.051 112.386L68.7465 112.387H68.7451C64.9888 112.395 61.2328 112.403 57.4774 112.403C56.6383 112.391 55.7969 112.4 54.955 112.409C52.8023 112.432 50.6466 112.456 48.5188 112.125C48.2156 112.077 47.9197 111.989 47.6434 111.856C45.0318 110.593 42.8092 108.253 42.4842 105.267C42.2818 103.029 42.3093 100.779 42.3368 98.5294C42.3523 97.2622 42.3677 95.9948 42.3422 94.7291V94.7291C42.3528 93.4001 43.4413 92.3402 44.7704 92.35C45.2488 92.3536 45.7272 92.3577 46.2055 92.3618C49.1083 92.3863 52.0116 92.4108 54.9145 92.3075C59.0084 92.1719 62.9022 89.8085 64.975 86.2893C66.9962 83.0348 66.9252 79.0635 66.8348 75.3699C66.767 71.9869 66.7747 68.6007 66.7831 65.2142V65.2127L66.7833 65.1271C66.791 61.7678 66.7987 58.4072 66.7315 55.0488C66.7169 54.1224 66.7427 53.1802 66.7687 52.2327L66.7702 52.1786C66.8625 48.8442 66.9562 45.4455 65.3689 42.4312C63.9483 39.5835 61.346 37.4784 58.4208 36.3161C54.9098 35.4645 51.2966 35.5573 47.6872 35.65L47.686 35.65L47.6849 35.6501C45.9312 35.6951 44.1782 35.7397 42.4386 35.6764M42.4386 35.6764C39.8686 35.6118 37.2986 35.5989 34.7221 35.6312M24.4779 53.7463L24.4759 53.7465L24.4573 53.7479L24.4563 53.748V53.748C24.0291 53.782 23.7191 54.1733 23.7935 54.5954C24.4015 58.0478 25.3468 61.4282 26.2921 64.8083L26.2956 64.8211C26.8724 66.8837 27.449 68.9456 27.9488 71.0241C28.1728 71.7069 28.3344 72.421 28.4961 73.1361C28.714 74.0991 28.9326 75.0648 29.3049 75.9611C29.6555 76.8048 30.443 77.3753 31.3456 77.5173C32.2616 77.6614 33.2059 77.6812 34.1169 77.5371C35.1904 77.3673 35.9822 76.5048 36.2835 75.4606C36.8023 73.6627 37.1477 71.7116 37.4904 69.775L37.4906 69.774C37.8059 67.9921 38.119 66.2228 38.563 64.5965C38.681 64.1641 38.9213 63.577 39.3422 63.7311V63.7311C39.5964 63.8242 39.6951 64.1435 39.7679 64.4043C40.2251 66.0402 40.5778 67.7082 40.9304 69.3762C41.3591 71.404 41.7877 73.431 42.4037 75.3994C42.7494 76.5037 43.6204 77.3961 44.7675 77.5482C45.636 77.6634 46.5254 77.6518 47.3932 77.5264C48.3312 77.3909 49.1392 76.7851 49.4981 75.908C49.8958 74.936 50.1344 73.8952 50.3727 72.8555C50.5545 72.0618 50.7363 71.2689 50.9885 70.5076C51.47 68.4905 52.0309 66.4893 52.592 64.4873L52.5925 64.4855L52.5944 64.4789C53.5286 61.1458 54.4632 57.8115 55.0323 54.4041C55.0858 54.0832 54.8511 53.7872 54.5269 53.7606V53.7606L54.5021 53.7585C53.4746 53.674 52.436 53.5886 51.4053 53.6159C50.1125 53.6501 49.046 54.5568 48.651 55.7883C48.041 57.6899 47.6363 59.6605 47.2311 61.633V61.633C46.8688 63.397 44.7658 63.4428 44.3595 61.6884V61.6884C44.2707 61.3048 44.1818 60.9211 44.0921 60.5376C43.9235 59.8904 43.7817 59.2335 43.6399 58.5762C43.4213 57.5636 43.2025 56.5501 42.8856 55.5696C42.5565 54.5514 41.7055 53.7786 40.6449 53.6379C39.8977 53.5389 39.1335 53.5324 38.3813 53.6104C37.1719 53.7357 36.2223 54.6432 35.8526 55.8014C35.2421 57.7142 34.8127 59.6854 34.383 61.6579L34.3828 61.659V61.659C33.9894 63.4649 31.8895 63.4205 31.5157 61.6106V61.6106C31.1104 59.6475 30.7052 57.6858 30.1032 55.7877C29.7176 54.5722 28.6809 53.6614 27.4064 53.6211C26.4336 53.5903 25.4514 53.6686 24.4779 53.7463ZM54.4237 84.675C55.8766 84.5652 57.3231 83.9194 58.1496 82.6861C59.057 81.4779 59.0593 79.9508 59.0614 78.4888L59.0614 78.4798C59.0619 78.1549 59.0624 77.8337 59.073 77.5202C59.0275 73.3068 59.0441 69.0934 59.0609 64.8802V64.8727C59.0838 59.084 59.1067 53.2962 58.968 47.5105C58.9608 47.2077 58.9251 46.9042 58.8222 46.6192C58.4337 45.5431 57.6748 44.6195 56.7206 43.9897C56.4385 43.8035 56.1176 43.6867 55.7871 43.6154C55.0682 43.4602 54.338 43.3442 53.6036 43.2707C46.8751 43.2771 40.1466 43.2771 33.4245 43.2707C31.9255 43.3362 30.417 43.3028 28.9092 43.2694C26.2659 43.211 23.6221 43.1525 21.0243 43.6272C20.7204 43.6827 20.4223 43.7755 20.157 43.934C18.417 44.9739 17.5973 47.0506 17.7654 49.0435C17.8075 53.1743 17.7889 57.3061 17.7703 61.4373L17.7703 61.4516C17.7414 67.8514 17.7126 74.25 17.9087 80.6417C17.9242 81.1477 18.0235 81.6549 18.2944 82.0825C18.7445 82.793 19.3492 83.3994 19.9452 83.997L19.9465 83.9982L19.9876 84.0395L19.9884 84.0403V84.0403C20.2012 84.2542 20.4789 84.3929 20.7786 84.4278C22.4594 84.6236 24.1455 84.725 25.8371 84.7072C31.537 84.6802 37.2345 84.6808 42.9325 84.6814L43.1322 84.6815C46.8955 84.6821 50.6591 84.6826 54.4237 84.675ZM80.8212 49.1856C76.9884 49.1641 73.1513 49.1694 69.3172 49.1828C68.0006 49.1874 66.9311 50.2482 66.9116 51.5646V51.5646L66.9116 51.5658L66.9101 51.6644L66.91 51.6682C66.9093 51.7136 66.9086 51.759 66.9079 51.8044C66.8739 54.0134 68.6513 55.8149 70.8605 55.8184C73.0237 55.8218 75.1854 55.8188 77.347 55.8108C79.1073 55.8004 80.8671 55.8078 82.6262 55.8153L82.6453 55.8154C85.2417 55.8265 87.8376 55.8375 90.4361 55.7914C91.889 55.856 93.3289 54.9068 93.7099 53.4797C94.3621 51.6587 93.0191 49.4051 91.0688 49.2501C88.9668 49.1307 86.8601 49.1537 84.7528 49.1767L84.7479 49.1767C83.4384 49.1911 82.1293 49.2053 80.8212 49.1856ZM73.9805 62.142L74.0034 62.142C79.4817 62.1253 84.9624 62.1086 90.4428 62.1583C92.8449 61.971 94.6917 64.8122 93.5358 66.9236C92.9159 68.3765 91.2629 68.9254 89.797 68.8092C87.6219 68.8072 85.4454 68.8066 83.2695 68.806L83.1579 68.806C78.8521 68.8044 74.5451 68.8028 70.2398 68.7929C68.4093 68.7886 66.9268 67.3056 66.9268 65.4751V65.4751C66.9268 63.6413 68.4145 62.1571 70.2484 62.1526C71.4884 62.1496 72.7285 62.1458 73.9688 62.142H73.9805ZM89.8033 75.344C83.4967 75.344 77.1874 75.3441 70.8798 75.3591C68.7768 75.3641 67.0458 76.9992 66.9574 79.1004C66.9555 79.1473 66.9535 79.1941 66.9515 79.241V79.2423L66.9447 79.4005V79.4017V79.4017C66.8865 80.7692 67.9844 81.9145 69.3531 81.9124C71.6358 81.909 73.9192 81.9226 76.2027 81.9362L76.2239 81.9363H76.2255C77.9345 81.9466 79.4899 81.9769 80.9977 82.0061C83.8515 82.0618 86.5345 82.1139 89.7646 82.021C92.0311 81.924 93.639 80.4066 93.639 78.7922C93.639 77.1779 92.6704 75.2407 89.8098 75.344H89.8033Z" stroke="url(#paint6_linear_1005_246)" stroke-width="4"/>
<defs>
<linearGradient id="paint0_linear_1005_246" x1="97.6399" y1="99.877" x2="34.312" y2="29.8792" gradientUnits="userSpaceOnUse">
<stop stop-color="#248EFE"/>
<stop offset="1" stop-color="#1DF4FF"/>
</linearGradient>
<linearGradient id="paint1_linear_1005_246" x1="97.6399" y1="99.877" x2="34.312" y2="29.8792" gradientUnits="userSpaceOnUse">
<stop stop-color="#248EFE"/>
<stop offset="1" stop-color="#1DF4FF"/>
</linearGradient>
<linearGradient id="paint2_linear_1005_246" x1="97.6399" y1="99.877" x2="34.312" y2="29.8792" gradientUnits="userSpaceOnUse">
<stop stop-color="#248EFE"/>
<stop offset="1" stop-color="#1DF4FF"/>
</linearGradient>
<linearGradient id="paint3_linear_1005_246" x1="97.6399" y1="99.877" x2="34.312" y2="29.8792" gradientUnits="userSpaceOnUse">
<stop stop-color="#248EFE"/>
<stop offset="1" stop-color="#1DF4FF"/>
</linearGradient>
<linearGradient id="paint4_linear_1005_246" x1="97.6399" y1="99.877" x2="34.312" y2="29.8792" gradientUnits="userSpaceOnUse">
<stop stop-color="#248EFE"/>
<stop offset="1" stop-color="#1DF4FF"/>
</linearGradient>
<linearGradient id="paint5_linear_1005_246" x1="97.6399" y1="99.877" x2="34.312" y2="29.8792" gradientUnits="userSpaceOnUse">
<stop stop-color="#248EFE"/>
<stop offset="1" stop-color="#1DF4FF"/>
</linearGradient>
<linearGradient id="paint6_linear_1005_246" x1="97.6399" y1="99.877" x2="34.312" y2="29.8792" gradientUnits="userSpaceOnUse">
<stop stop-color="#248EFE"/>
<stop offset="1" stop-color="#1DF4FF"/>
</linearGradient>
</defs>
</svg>
