<svg width="64" height="64" viewBox="0 0 64 64" fill="none" xmlns="http://www.w3.org/2000/svg">
<path d="M5 5.9298C5 5.41629 5.41684 5 5.93103 5H26.9087C27.185 5 27.447 5.12257 27.6239 5.33456L31.7207 10.2443C31.8976 10.4562 32.1596 10.5788 32.4359 10.5788L58.069 10.5791C58.5831 10.5791 59 12.8551 59 13.3686C58.9962 13.4799 58.6642 13.5747 58.5702 13.5146C58.4255 13.4222 58.2535 13.3685 58.069 13.3685L32.3857 13.3682C32.1387 13.3682 31.9019 13.4662 31.7273 13.6406L26.6865 18.6748C26.5119 18.8492 26.2751 18.9472 26.0281 18.9472L5.93103 18.9471C5.41684 18.9471 5 19.3634 5 19.8769V5.9298Z" stroke="url(#paint0_linear_1005_201)" stroke-width="5"/>
<path d="M5 20.8057V20.8175L5.0009 20.8122L5.0018 20.8076L5.00092 20.8066L5 20.8057Z" stroke="url(#paint1_linear_1005_201)" stroke-width="5"/>
<path d="M32.415 13.3682C32.1493 13.3682 31.8946 13.4739 31.707 13.662L26.7068 18.6746C26.5192 18.8626 26.2645 18.9683 25.9988 18.9683H5.93333C5.41787 18.9683 5 19.3862 5 19.9016V20.8341L5.00092 20.835L5.0018 20.8359C5.00151 20.8393 5 20.8427 5 20.8459V54.4349C5 54.9491 5.41684 55.3682 5.93103 55.3682H58.069C58.5832 55.3682 59 54.9491 59 54.4349V20.8459V20.835V14.3685C59 13.8163 58.5523 13.3685 58 13.3685L32.415 13.3682Z" stroke="url(#paint2_linear_1005_201)" stroke-width="6"/>
<path d="M13 31C12.4477 31 12 31.4477 12 32V56.0344C12 56.5867 12.4477 57.0344 13 57.0344H22.1724C22.7247 57.0344 23.1724 56.5867 23.1724 56.0344V43.1576C23.1724 42.6053 23.6201 42.1576 24.1724 42.1576H40.7931C41.3454 42.1576 41.7931 42.6053 41.7931 43.1576V56.0344C41.7931 56.5867 42.2408 57.0344 42.7931 57.0344H51.9655C52.5178 57.0344 52.9655 56.5867 52.9655 56.0344V32C52.9655 31.4477 52.5178 31 51.9655 31H13Z" fill="url(#paint3_linear_1005_201)"/>
<defs>
<linearGradient id="paint0_linear_1005_201" x1="5.00791" y1="12.6744" x2="59.009" y2="12.6744" gradientUnits="userSpaceOnUse">
<stop stop-color="#A93AFF"/>
<stop offset="1" stop-color="#FF81FF"/>
</linearGradient>
<linearGradient id="paint1_linear_1005_201" x1="5.00791" y1="12.6737" x2="59.0108" y2="12.6737" gradientUnits="userSpaceOnUse">
<stop stop-color="#A93AFF"/>
<stop offset="1" stop-color="#FF81FF"/>
</linearGradient>
<linearGradient id="paint2_linear_1005_201" x1="32" y1="55.3682" x2="32" y2="13.3682" gradientUnits="userSpaceOnUse">
<stop stop-color="#A93AFF"/>
<stop offset="1" stop-color="#FF81FF"/>
</linearGradient>
<linearGradient id="paint3_linear_1005_201" x1="32.4828" y1="57.0344" x2="32.4828" y2="31" gradientUnits="userSpaceOnUse">
<stop stop-color="#A93AFF"/>
<stop offset="1" stop-color="#FF81FF"/>
</linearGradient>
</defs>
</svg>
