<svg width="64" height="64" viewBox="0 0 64 64" fill="none" xmlns="http://www.w3.org/2000/svg">
<path d="M50.622 8.02478C50.2949 7.8397 50.0826 7.49819 50.0826 7.12237V4.875C50.0826 3.84729 49.6744 2.86167 48.9477 2.13496C48.221 1.40826 47.2354 1 46.2076 1C45.1799 1 44.1944 1.40826 43.4677 2.13496C42.741 2.86167 42.3326 3.84729 42.3326 4.875V5.16666C42.3326 5.71895 41.8849 6.16666 41.3326 6.16666H36.8744C36.3221 6.16666 35.8744 5.71895 35.8744 5.16666V4.875C35.8744 3.84729 35.466 2.86167 34.7394 2.13496C34.0127 1.40826 33.0271 1 31.9994 1C30.9717 1 29.986 1.40826 29.2593 2.13496C28.5326 2.86167 28.1244 3.84729 28.1244 4.875V5.16666C28.1244 5.71895 27.6767 6.16666 27.1244 6.16666H22.666C22.1137 6.16666 21.666 5.71895 21.666 5.16666V4.875C21.666 3.84729 21.2578 2.86167 20.5311 2.13496C19.8043 1.40826 18.8187 1 17.791 1C16.7633 1 15.7777 1.40826 15.0509 2.13496C14.3243 2.86167 13.916 3.84729 13.916 4.875V7.12237C13.916 7.49819 13.7038 7.8397 13.3767 8.02478C11.2835 9.20928 9.52208 10.9077 8.26148 12.9638C6.89399 15.1942 6.16886 17.7588 6.16602 20.375V48.7916C6.17012 52.5587 7.66838 56.1703 10.3321 58.8339C12.9957 61.4977 16.6074 62.9959 20.3744 63H43.6244C47.3912 62.9952 51.0023 61.4967 53.6658 58.8332C56.3294 56.1696 57.8279 52.5585 57.8327 48.7916V20.375C57.8299 17.7588 57.1047 15.1942 55.7373 12.9638C54.4766 10.9077 52.7152 9.20928 50.622 8.02478ZM50.0826 48.7916C50.0826 50.5045 49.4023 52.1472 48.1911 53.3584C46.9799 54.5696 45.3372 55.25 43.6244 55.25H20.3744C18.6615 55.25 17.0188 54.5696 15.8077 53.3584C14.5964 52.1472 13.916 50.5045 13.916 48.7916V20.375C13.916 18.6622 14.5964 17.0194 15.8077 15.8083C17.0188 14.5971 18.6615 13.9166 20.3744 13.9166H43.6244C45.3372 13.9166 46.9799 14.5971 48.1911 15.8083C49.4023 17.0194 50.0826 18.6622 50.0826 20.375V48.7916ZM44.916 22.9584C44.916 23.9861 44.5078 24.9717 43.7811 25.6983C43.0543 26.425 42.0687 26.8334 41.041 26.8334H22.9576C21.9299 26.8334 20.9444 26.425 20.2177 25.6983C19.491 24.9717 19.0826 23.9861 19.0826 22.9584C19.0826 21.9307 19.491 20.945 20.2177 20.2183C20.9444 19.4916 21.9299 19.0834 22.9576 19.0834H41.041C42.0687 19.0834 43.0543 19.4916 43.7811 20.2183C44.5078 20.945 44.916 21.9307 44.916 22.9584ZM35.8744 35.875C35.8744 36.9027 35.466 37.8883 34.7394 38.6151C34.0127 39.3418 33.0271 39.75 31.9994 39.75H22.9576C21.9299 39.75 20.9444 39.3418 20.2177 38.6151C19.491 37.8883 19.0826 36.9027 19.0826 35.875C19.0826 34.8473 19.491 33.8617 20.2177 33.1349C20.9444 32.4082 21.9299 32 22.9576 32H31.9994C33.0271 32 34.0127 32.4082 34.7394 33.1349C35.466 33.8617 35.8744 34.8473 35.8744 35.875Z" fill="url(#paint0_linear_1013_872)"/>
<defs>
<linearGradient id="paint0_linear_1013_872" x1="31.9994" y1="63" x2="31.9994" y2="1" gradientUnits="userSpaceOnUse">
<stop stop-color="#5570FF"/>
<stop offset="1" stop-color="#4DD3FF"/>
</linearGradient>
</defs>
</svg>
