<svg width="64" height="64" viewBox="0 0 64 64" fill="none" xmlns="http://www.w3.org/2000/svg">
<path fill-rule="evenodd" clip-rule="evenodd" d="M14.5003 2.02213C10.7142 2.09963 7.35365 5.50948 7.30146 9.36391C7.27927 17.4761 7.28283 25.5883 7.28639 33.7012C7.28927 40.269 7.29216 46.8374 7.28138 53.4065C7.27736 54.8218 7.3657 56.2943 8.0121 57.579C9.21659 60.2548 12.0311 62.0371 14.9258 61.9882C20.8656 62.003 26.8076 62.0006 32.7485 61.9982H32.752H32.7524H32.7528C34.9825 61.9973 37.212 61.9963 39.4412 61.9963C41.4366 62.0331 43.3919 61.1031 44.6325 59.5165C45.9344 57.9138 47.2343 56.3091 48.5342 54.7044L48.5367 54.7013L48.5415 54.6953L48.5423 54.6944C49.8334 53.1006 51.1244 51.5068 52.4175 49.9151C53.6943 48.414 54.4209 46.4521 54.3688 44.4658C54.3608 43.6992 54.3643 42.9327 54.3678 42.1663V42.1658V42.1653C54.3731 41.0156 54.3784 39.8665 54.3447 38.7188C54.3206 37.6094 53.3409 36.6468 52.2649 36.5693C51.0364 36.4143 49.7676 37.4381 49.7435 38.7106C49.699 39.74 49.7096 40.7694 49.7202 41.7983V41.7983V41.7984C49.7307 42.8079 49.7411 43.8168 49.6994 44.8247C49.6472 45.6283 49.2778 46.3706 48.7598 46.9661C46.7656 49.4228 44.7762 51.8845 42.786 54.3472L41.1234 56.4043C40.7259 56.9306 40.1036 57.3139 39.4331 57.2772C37.6029 57.2782 35.7726 57.2795 33.9425 57.2808H33.942H33.9416C27.5978 57.2853 21.2546 57.2899 14.9138 57.2772C13.3199 57.3343 11.8946 55.8741 11.9388 54.259C11.9179 46.1105 11.9224 37.9633 11.9269 29.816C11.9302 23.8079 11.9335 17.7997 11.9267 11.7908C11.9287 11.5639 11.9268 11.3367 11.9248 11.1095C11.9193 10.4587 11.9137 9.80803 12.003 9.16406C12.2358 7.78543 13.5246 6.70864 14.8978 6.73311C26.1396 6.7168 37.3855 6.72495 48.6273 6.73311C49.0176 6.6871 49.3141 6.92055 49.6033 7.14833L49.6034 7.14837C49.6475 7.18309 49.6914 7.21767 49.7355 7.25112C49.7476 7.48558 49.7472 7.73093 49.7468 7.98029C49.7453 8.97156 49.7437 10.0264 50.5264 10.714C51.6708 11.8479 53.8267 11.3258 54.3166 9.76363C54.6096 7.97713 54.5093 5.97038 53.4453 4.44492C52.3934 2.87052 50.5264 1.91608 48.6555 2.00582C43.6339 2.01481 38.6116 2.0119 33.5889 2.00899C27.2265 2.00531 20.8634 2.00162 14.5003 2.02213ZM18.9967 12.4849C18.4741 12.4872 17.9397 12.4895 17.4794 12.7615C15.3956 13.7444 16.2307 17.3093 18.5393 17.191C23.1675 17.2145 27.7973 17.2113 32.4266 17.208C35.0301 17.2062 37.6334 17.2044 40.2362 17.2073C41.2158 17.2889 42.2556 16.7954 42.6531 15.849C43.408 14.4174 42.2517 12.4433 40.6376 12.5004C36.7173 12.4778 32.7969 12.4815 28.8765 12.4851C25.7025 12.488 22.5284 12.491 19.3544 12.48C19.2365 12.4838 19.1169 12.4844 18.9967 12.4849H18.9967H18.9967ZM18.6796 22.9991C21.1819 22.9147 23.687 22.9273 26.1925 22.9398C27.9241 22.9485 29.6559 22.9572 31.387 22.9339C31.5677 22.9391 31.754 22.9372 31.9428 22.9353C32.7816 22.9266 33.6675 22.9175 34.3098 23.5334C35.3337 24.3982 35.3537 26.1602 34.346 27.0412C33.7568 27.6543 32.8945 27.664 32.1008 27.673L32.1005 27.673C32.0019 27.6741 31.9044 27.6752 31.8086 27.6774C29.8017 27.6656 27.7939 27.6671 25.7861 27.6686C23.6364 27.6702 21.4867 27.6718 19.3381 27.6571C18.0814 27.7794 16.8689 26.7597 16.8127 25.4708C16.7123 24.3288 17.5555 23.1745 18.6796 22.9991ZM19.4384 33.4119C18.7796 33.4016 18.1124 33.3912 17.5075 33.6776C15.6366 34.5423 16.0019 37.6993 18.0456 38.0542C19.3454 38.1599 20.6525 38.1441 21.9599 38.1282C22.8211 38.1178 23.6824 38.1074 24.5418 38.1317C24.7001 38.1306 24.8639 38.1334 25.0305 38.1363C26.0719 38.1543 27.2268 38.1742 27.8982 37.2425C28.9702 36.0025 28.2435 33.7959 26.6376 33.4859C25.3465 33.3856 24.0497 33.3998 22.7522 33.4139C21.887 33.4234 21.0216 33.4329 20.1574 33.4084C19.9212 33.4194 19.6804 33.4156 19.4384 33.4119Z" fill="url(#paint0_linear_1005_211)"/>
<path d="M7.30146 9.36391L6.30149 9.35037L6.30146 9.36118L7.30146 9.36391ZM14.5003 2.02213L14.4971 1.02214L14.4884 1.02217L14.4798 1.02234L14.5003 2.02213ZM7.28639 33.7012L8.28639 33.7007L7.28639 33.7012ZM7.28138 53.4065L8.28137 53.4093L8.28137 53.4081L7.28138 53.4065ZM8.0121 57.579L8.92397 57.1686L8.91511 57.1489L8.9054 57.1296L8.0121 57.579ZM14.9258 61.9882L14.9283 60.9882L14.9186 60.9882L14.9089 60.9883L14.9258 61.9882ZM32.7485 61.9982L32.7485 60.9982L32.7481 60.9982L32.7485 61.9982ZM32.7528 61.9982L32.7528 62.9982L32.7532 62.9982L32.7528 61.9982ZM39.4412 61.9963L39.4596 60.9965L39.4504 60.9963H39.4412V61.9963ZM44.6325 59.5165L43.8563 58.8859L43.8504 58.8932L43.8447 58.9005L44.6325 59.5165ZM48.5342 54.7044L49.3113 55.3338L49.3114 55.3337L48.5342 54.7044ZM48.5367 54.7013L47.7596 54.0719L47.7595 54.072L48.5367 54.7013ZM48.5415 54.6953L47.768 54.0616L47.7645 54.0659L48.5415 54.6953ZM48.5423 54.6944L49.3159 55.3282L49.3194 55.3238L48.5423 54.6944ZM52.4175 49.9151L51.6558 49.2672L51.6484 49.2758L51.6413 49.2846L52.4175 49.9151ZM54.3688 44.4658L53.3688 44.4763L53.3689 44.4842L53.3691 44.4921L54.3688 44.4658ZM54.3678 42.1663L55.3678 42.1709V42.1663H54.3678ZM54.3678 42.1653L53.3678 42.1607V42.1653H54.3678ZM54.3447 38.7188L53.3449 38.7405L53.3451 38.7481L54.3447 38.7188ZM52.2649 36.5693L52.1398 37.5614L52.1664 37.5648L52.1931 37.5667L52.2649 36.5693ZM49.7435 38.7106L50.7426 38.7539L50.7431 38.7417L50.7434 38.7296L49.7435 38.7106ZM49.7202 41.7983L50.7203 41.7983L50.7202 41.7879L49.7202 41.7983ZM49.7202 41.7984L48.7202 41.7984L48.7203 41.8088L49.7202 41.7984ZM49.6994 44.8247L50.6973 44.8896L50.698 44.8778L50.6985 44.8661L49.6994 44.8247ZM48.7598 46.9661L48.0053 46.3098L47.9941 46.3226L47.9834 46.3358L48.7598 46.9661ZM42.786 54.3472L43.5638 54.9758L43.5638 54.9758L42.786 54.3472ZM41.1234 56.4043L40.3457 55.7758L40.3354 55.7885L40.3255 55.8016L41.1234 56.4043ZM39.4331 57.2772L39.4877 56.2787L39.4602 56.2772L39.4326 56.2772L39.4331 57.2772ZM33.9425 57.2808L33.9425 58.2808L33.9432 58.2808L33.9425 57.2808ZM33.9416 57.2808L33.9416 56.2808L33.9409 56.2808L33.9416 57.2808ZM14.9138 57.2772L14.9158 56.2773L14.8969 56.2772L14.878 56.2779L14.9138 57.2772ZM11.9388 54.259L12.9384 54.2863L12.9388 54.2714L12.9388 54.2564L11.9388 54.259ZM11.9269 29.816L12.9269 29.8165L11.9269 29.816ZM11.9267 11.7908L10.9266 11.7816L10.9267 11.7919L11.9267 11.7908ZM11.9248 11.1095L12.9248 11.1009L12.9248 11.1009L11.9248 11.1095ZM12.003 9.16406L11.0169 8.9975L11.0145 9.01207L11.0125 9.02671L12.003 9.16406ZM14.8978 6.73311L14.88 7.73295L14.8896 7.73312L14.8992 7.73311L14.8978 6.73311ZM48.6273 6.73311L48.6266 7.73311L48.6857 7.73315L48.7444 7.72623L48.6273 6.73311ZM49.6033 7.14833L50.2281 6.36744L50.222 6.36265L49.6033 7.14833ZM49.6034 7.14837L48.9787 7.92927L48.9848 7.93405L49.6034 7.14837ZM49.7355 7.25112L50.7341 7.19951L50.7102 6.73547L50.34 6.45455L49.7355 7.25112ZM49.7468 7.98029L48.7468 7.97875L48.7468 7.97875L49.7468 7.98029ZM50.5264 10.714L51.2303 10.0037L51.209 9.98252L51.1864 9.9627L50.5264 10.714ZM54.3166 9.76363L55.2708 10.0628L55.2919 9.99533L55.3034 9.92551L54.3166 9.76363ZM53.4453 4.44492L52.6139 5.00049L52.6194 5.0088L52.6251 5.017L53.4453 4.44492ZM48.6555 2.00582L48.6573 3.00582L48.6803 3.00577L48.7034 3.00467L48.6555 2.00582ZM33.5889 2.00899L33.5883 3.00899L33.5889 2.00899ZM17.4794 12.7615L17.906 13.6659L17.9481 13.6461L17.9881 13.6224L17.4794 12.7615ZM18.9967 12.4849L18.9967 11.4849L18.9923 11.4849L18.9967 12.4849ZM18.5393 17.191L18.5444 16.191L18.5163 16.1908L18.4881 16.1923L18.5393 17.191ZM32.4266 17.208L32.4273 18.208L32.4273 18.208L32.4266 17.208ZM40.2362 17.2073L40.3191 16.2107L40.2783 16.2073L40.2373 16.2073L40.2362 17.2073ZM42.6531 15.849L41.7686 15.3826L41.7481 15.4214L41.7312 15.4618L42.6531 15.849ZM40.6376 12.5004L40.6319 13.5004L40.6524 13.5005L40.673 13.4998L40.6376 12.5004ZM28.8765 12.4851L28.8775 13.4851L28.8775 13.4851L28.8765 12.4851ZM19.3544 12.48L19.3578 11.48L19.34 11.48L19.3221 11.4806L19.3544 12.48ZM18.9967 12.4849L18.9967 13.4849L19.0011 13.4849L18.9967 12.4849ZM26.1925 22.9398L26.1975 21.9398L26.1975 21.9398L26.1925 22.9398ZM18.6796 22.9991L18.6459 21.9997L18.5853 22.0017L18.5255 22.0111L18.6796 22.9991ZM31.387 22.9339L31.4159 21.9343L31.3947 21.9337L31.3735 21.934L31.387 22.9339ZM31.9428 22.9353L31.9531 23.9352L31.9531 23.9352L31.9428 22.9353ZM34.3098 23.5334L33.6177 24.2552L33.6405 24.277L33.6646 24.2974L34.3098 23.5334ZM34.346 27.0412L33.6878 26.2883L33.6551 26.3169L33.625 26.3483L34.346 27.0412ZM32.1008 27.673L32.0895 26.673L32.0836 26.6731L32.1008 27.673ZM32.1005 27.673L32.1118 28.6729L32.1177 28.6728L32.1005 27.673ZM31.8086 27.6774L31.8027 28.6774L31.8173 28.6775L31.832 28.6772L31.8086 27.6774ZM25.7861 27.6686L25.7853 26.6686L25.7853 26.6686L25.7861 27.6686ZM19.3381 27.6571L19.345 26.6571L19.293 26.6568L19.2412 26.6618L19.3381 27.6571ZM16.8127 25.4708L17.8117 25.4272L17.8108 25.4052L17.8088 25.3833L16.8127 25.4708ZM17.5075 33.6776L17.9271 34.5854L17.9355 34.5814L17.5075 33.6776ZM19.4384 33.4119L19.4229 34.4117L19.4229 34.4117L19.4384 33.4119ZM18.0456 38.0542L17.8745 39.0394L17.9192 39.0472L17.9645 39.0509L18.0456 38.0542ZM21.9599 38.1282L21.9478 37.1283L21.9478 37.1283L21.9599 38.1282ZM24.5418 38.1317L24.5135 39.1313L24.5312 39.1318L24.5489 39.1317L24.5418 38.1317ZM25.0305 38.1363L25.0132 39.1361L25.0132 39.1361L25.0305 38.1363ZM27.8982 37.2425L27.1418 36.5884L27.1128 36.6219L27.0869 36.6578L27.8982 37.2425ZM26.6376 33.4859L26.8271 32.504L26.7715 32.4933L26.715 32.4889L26.6376 33.4859ZM22.7522 33.4139L22.7632 34.4139L22.7632 34.4139L22.7522 33.4139ZM20.1574 33.4084L20.1857 32.4088L20.1483 32.4077L20.1109 32.4095L20.1574 33.4084ZM8.30137 9.37745C8.3464 6.05169 11.2839 3.08818 14.5208 3.02192L14.4798 1.02234C10.1445 1.11108 6.3609 4.96728 6.30155 9.35037L8.30137 9.37745ZM8.28639 33.7007C8.28283 25.5876 8.27927 17.477 8.30145 9.36665L6.30146 9.36118C6.27927 17.4752 6.28283 25.589 6.28639 33.7016L8.28639 33.7007ZM8.28137 53.4081C8.29216 46.8378 8.28927 40.2684 8.28639 33.7007L6.28639 33.7016C6.28927 40.2697 6.29215 46.8369 6.28138 53.4049L8.28137 53.4081ZM8.9054 57.1296C8.37359 56.0726 8.2774 54.8095 8.28137 53.4093L6.28138 53.4037C6.27732 54.8342 6.3578 56.516 7.1188 58.0285L8.9054 57.1296ZM14.9089 60.9883C12.4159 61.0305 9.96531 59.4818 8.92397 57.1686L7.10023 57.9895C8.46787 61.0277 11.6463 63.0438 14.9427 62.988L14.9089 60.9883ZM32.7481 60.9982C26.8069 61.0006 20.8664 61.003 14.9283 60.9882L14.9233 62.9882C20.8648 63.003 26.8082 63.0006 32.7489 62.9982L32.7481 60.9982ZM32.752 60.9982H32.7485V62.9982H32.752V60.9982ZM32.7524 60.9982H32.752V62.9982H32.7524V60.9982ZM32.7528 60.9982H32.7524V62.9982H32.7528V60.9982ZM39.4412 60.9963C37.2117 60.9963 34.982 60.9973 32.7524 60.9982L32.7532 62.9982C34.9829 62.9973 37.2122 62.9963 39.4412 62.9963V60.9963ZM43.8447 58.9005C42.7969 60.2406 41.1397 61.0275 39.4596 60.9965L39.4227 62.9962C41.7335 63.0387 43.9869 61.9656 45.4202 60.1324L43.8447 58.9005ZM47.7572 54.0749C46.4572 55.6797 45.1577 57.2839 43.8563 58.8859L45.4086 60.147C46.7111 58.5437 48.0114 56.9385 49.3113 55.3338L47.7572 54.0749ZM47.7595 54.072L47.7571 54.0751L49.3114 55.3337L49.3139 55.3306L47.7595 54.072ZM47.7645 54.0659L47.7596 54.0719L49.3138 55.3307L49.3186 55.3248L47.7645 54.0659ZM47.7688 54.0607L47.768 54.0616L49.3151 55.3291L49.3159 55.3281L47.7688 54.0607ZM51.6413 49.2846C50.3478 50.8769 49.0563 52.4712 47.7653 54.0649L49.3194 55.3238C50.6105 53.73 51.9011 52.1367 53.1936 50.5456L51.6413 49.2846ZM53.3691 44.4921C53.4145 46.2215 52.7798 47.9457 51.6558 49.2672L53.1792 50.563C54.6087 48.8824 55.4273 46.6828 55.3684 44.4396L53.3691 44.4921ZM53.3678 42.1617C53.3643 42.9268 53.3607 43.7009 53.3688 44.4763L55.3687 44.4554C55.3608 43.6976 55.3643 42.9385 55.3678 42.1709L53.3678 42.1617ZM53.3678 42.1658V42.1663H55.3678V42.1658H53.3678ZM53.3678 42.1653V42.1658H55.3678V42.1653H53.3678ZM53.3451 38.7481C53.3782 39.876 53.3731 41.0081 53.3678 42.1607L55.3678 42.1699C55.3731 41.023 55.3785 39.8569 55.3443 38.6894L53.3451 38.7481ZM52.1931 37.5667C52.7844 37.6093 53.3327 38.1767 53.3449 38.7405L55.3445 38.6971C55.3085 37.0422 53.8974 35.6843 52.3368 35.5719L52.1931 37.5667ZM50.7434 38.7296C50.7555 38.0857 51.4662 37.4765 52.1398 37.5614L52.3901 35.5771C50.6065 35.3522 48.7797 36.7904 48.7437 38.6917L50.7434 38.7296ZM50.7202 41.7879C50.7095 40.7546 50.6994 39.752 50.7426 38.7539L48.7445 38.6674C48.6985 39.728 48.7097 40.7842 48.7203 41.8086L50.7202 41.7879ZM50.7202 41.7983V41.7983H48.7202V41.7983H50.7202ZM50.7202 41.7984V41.7983H48.7202V41.7984H50.7202ZM50.6985 44.8661C50.7415 43.828 50.7306 42.7932 50.7202 41.7881L48.7203 41.8088C48.7308 42.8225 48.7407 43.8056 48.7002 44.7833L50.6985 44.8661ZM49.5143 47.6223C50.1413 46.9016 50.6278 45.9591 50.6973 44.8896L48.7015 44.7599C48.6665 45.2974 48.4143 45.8395 48.0053 46.3098L49.5143 47.6223ZM43.5638 54.9758C45.5541 52.5129 47.5428 50.0521 49.5362 47.5963L47.9834 46.3358C45.9884 48.7936 43.9983 51.2561 42.0082 53.7187L43.5638 54.9758ZM41.9011 57.0329L43.5638 54.9758L42.0083 53.7186L40.3457 55.7758L41.9011 57.0329ZM39.3785 58.2758C40.4707 58.3355 41.3839 57.7185 41.9213 57.0071L40.3255 55.8016C40.0679 56.1426 39.7365 56.2923 39.4877 56.2787L39.3785 58.2758ZM33.9432 58.2808C35.7734 58.2795 37.6035 58.2782 39.4336 58.2772L39.4326 56.2772C37.6022 56.2782 35.7719 56.2795 33.9417 56.2808L33.9432 58.2808ZM33.942 58.2808H33.9425V56.2808H33.942V58.2808ZM33.9416 58.2808H33.942V56.2808H33.9416V58.2808ZM14.9118 58.2772C21.2542 58.2899 27.5988 58.2853 33.9423 58.2808L33.9409 56.2808C27.5969 56.2853 21.255 56.2899 14.9158 56.2773L14.9118 58.2772ZM10.9391 54.2316C10.8799 56.3981 12.7537 58.3553 14.9496 58.2766L14.878 56.2779C13.8861 56.3134 12.9093 55.3501 12.9384 54.2863L10.9391 54.2316ZM10.9269 29.8154C10.9224 37.9625 10.9179 46.1112 10.9388 54.2615L12.9388 54.2564C12.9179 46.1097 12.9224 37.9641 12.9269 29.8165L10.9269 29.8154ZM10.9267 11.7919C10.9335 17.7999 10.9302 23.8072 10.9269 29.8154L12.9269 29.8165C12.9302 23.8086 12.9335 17.7995 12.9267 11.7896L10.9267 11.7919ZM10.9249 11.1181C10.9268 11.3468 10.9287 11.565 10.9267 11.7816L12.9266 11.8C12.9288 11.5627 12.9267 11.3266 12.9248 11.1009L10.9249 11.1181ZM11.0125 9.02671C10.9114 9.75544 10.9194 10.4798 10.9249 11.1181L12.9248 11.1009C12.9191 10.4377 12.916 9.86063 12.9935 9.30141L11.0125 9.02671ZM14.9156 5.73327C13.0391 5.69983 11.3308 7.13961 11.0169 8.9975L12.989 9.33062C13.1409 8.43126 14.0101 7.71745 14.88 7.73295L14.9156 5.73327ZM48.6281 5.73311C37.3864 5.72495 26.1394 5.7168 14.8963 5.73311L14.8992 7.73311C26.1398 7.7168 37.3846 7.72495 48.6266 7.73311L48.6281 5.73311ZM50.222 6.36265C49.9989 6.18697 49.3767 5.63783 48.5103 5.73999L48.7444 7.72623C48.7264 7.72836 48.7066 7.72704 48.6911 7.72367C48.6781 7.72083 48.6794 7.71897 48.699 7.72897C48.72 7.73965 48.7527 7.75912 48.8029 7.79497C48.855 7.83209 48.9092 7.87452 48.9847 7.93401L50.222 6.36265ZM50.2281 6.3675L50.228 6.36746L48.9786 7.9292L48.9787 7.92924L50.2281 6.3675ZM50.34 6.45455C50.3043 6.4274 50.2673 6.39838 50.222 6.36269L48.9848 7.93405C49.0276 7.9678 49.0786 8.00794 49.1309 8.04768L50.34 6.45455ZM50.7468 7.98184C50.7472 7.73789 50.7479 7.46528 50.7341 7.19951L48.7368 7.30272C48.7473 7.50589 48.7472 7.72397 48.7468 7.97875L50.7468 7.98184ZM51.1864 9.9627C50.8027 9.6256 50.7451 9.08581 50.7468 7.98184L48.7468 7.97875C48.7455 8.85732 48.6847 10.4271 49.8665 11.4653L51.1864 9.9627ZM53.3624 9.46443C53.2394 9.85659 52.892 10.1639 52.4266 10.2792C51.9591 10.3949 51.512 10.2827 51.2303 10.0037L49.8226 11.4243C50.6852 12.2791 51.8882 12.4729 52.9073 12.2205C53.9284 11.9677 54.9039 11.2329 55.2708 10.0628L53.3624 9.46443ZM52.6251 5.017C53.4735 6.23326 53.6043 7.92812 53.3298 9.60175L55.3034 9.92551C55.615 8.02615 55.5452 5.7075 54.2655 3.87285L52.6251 5.017ZM48.7034 3.00467C50.2168 2.93208 51.753 3.71215 52.6139 5.00049L54.2768 3.88936C53.0337 2.02889 50.836 0.900086 48.6076 1.00697L48.7034 3.00467ZM33.5883 3.00899C38.6109 3.0119 43.6344 3.01482 48.6573 3.00582L48.6537 1.00582C43.6335 1.01481 38.6124 1.0119 33.5895 1.00899L33.5883 3.00899ZM14.5035 3.02213C20.8644 3.00162 27.2256 3.00531 33.5883 3.00899L33.5895 1.00899C27.2274 1.00531 20.8624 1.00162 14.4971 1.02214L14.5035 3.02213ZM17.9881 13.6224C18.1761 13.5114 18.4259 13.4874 19.0011 13.4849L18.9923 11.4849C18.5224 11.487 17.7033 11.4677 16.9707 11.9005L17.9881 13.6224ZM18.4881 16.1923C17.9613 16.2193 17.4982 15.8459 17.3353 15.1586C17.1717 14.4685 17.4176 13.8963 17.906 13.6659L17.0528 11.8571C15.4574 12.6096 15.079 14.3113 15.3892 15.6199C15.7 16.9311 16.8087 18.281 18.5905 18.1897L18.4881 16.1923ZM32.4259 16.208C27.7961 16.2113 23.1692 16.2145 18.5444 16.191L18.5342 18.191C23.1658 18.2145 27.7985 18.2113 32.4273 18.208L32.4259 16.208ZM40.2373 16.2073C37.6334 16.2044 35.0292 16.2062 32.4259 16.208L32.4273 18.208C35.0309 18.2062 37.6333 18.2044 40.235 18.2073L40.2373 16.2073ZM41.7312 15.4618C41.5341 15.9309 40.9578 16.2639 40.3191 16.2107L40.1532 18.2038C41.4738 18.3138 42.9772 17.6598 43.5751 16.2363L41.7312 15.4618ZM40.673 13.4998C41.0365 13.4869 41.4209 13.7025 41.6747 14.1283C41.9294 14.5558 41.9526 15.0335 41.7686 15.3826L43.5377 16.3155C44.1085 15.2329 43.931 14.0077 43.3928 13.1045C42.8536 12.1997 41.8528 11.4568 40.6023 11.501L40.673 13.4998ZM28.8775 13.4851C32.7984 13.4815 36.7154 13.4779 40.6319 13.5004L40.6434 11.5004C36.7191 11.4778 32.7954 11.4815 28.8756 11.4851L28.8775 13.4851ZM19.3509 13.48C22.5275 13.491 25.7038 13.488 28.8775 13.4851L28.8756 11.4851C25.7012 11.4881 22.5293 11.491 19.3578 11.48L19.3509 13.48ZM19.0011 13.4849C19.1188 13.4844 19.2524 13.4839 19.3867 13.4795L19.3221 11.4806C19.2205 11.4838 19.115 11.4844 18.9923 11.4849L19.0011 13.4849ZM18.9967 13.4849H18.9967V11.4849H18.9967V13.4849ZM18.9967 13.4849H18.9967V11.4849H18.9967V13.4849ZM26.1975 21.9398C23.6953 21.9273 21.1708 21.9145 18.6459 21.9997L18.7133 23.9986C21.1931 23.9149 23.6788 23.9272 26.1875 23.9398L26.1975 21.9398ZM31.3735 21.934C29.6532 21.9572 27.9306 21.9485 26.1975 21.9398L26.1875 23.9398C27.9175 23.9485 29.6585 23.9573 31.4004 23.9338L31.3735 21.934ZM31.9325 21.9353C31.74 21.9373 31.5736 21.9389 31.4159 21.9343L31.358 23.9335C31.5617 23.9394 31.7681 23.9371 31.9531 23.9352L31.9325 21.9353ZM35.0019 22.8116C34.0162 21.8664 32.6808 21.9276 31.9325 21.9353L31.9531 23.9352C32.8825 23.9256 33.3188 23.9686 33.6177 24.2552L35.0019 22.8116ZM35.0042 27.794C35.7626 27.131 36.0993 26.1722 36.0897 25.2705C36.0801 24.3689 35.7232 23.4182 34.9551 22.7694L33.6646 24.2974C33.9203 24.5134 34.0854 24.8761 34.0898 25.2919C34.0942 25.7076 33.9371 26.0704 33.6878 26.2883L35.0042 27.794ZM32.1121 28.6729C32.8081 28.665 34.1383 28.7005 35.067 27.7341L33.625 26.3483C33.3754 26.608 32.9809 26.663 32.0895 26.673L32.1121 28.6729ZM32.1177 28.6728L32.118 28.6728L32.0836 26.6731L32.0832 26.6731L32.1177 28.6728ZM31.832 28.6772C31.9207 28.6751 32.0121 28.674 32.1118 28.6729L32.0892 26.673C31.9917 26.6741 31.888 26.6753 31.7851 26.6777L31.832 28.6772ZM25.7868 28.6686C27.7952 28.6671 29.7997 28.6656 31.8027 28.6774L31.8144 26.6775C29.8037 26.6656 27.7926 26.6671 25.7853 26.6686L25.7868 28.6686ZM19.3313 28.6571C21.4843 28.6718 23.6378 28.6702 25.7868 28.6686L25.7853 26.6686C23.635 26.6702 21.4891 26.6718 19.345 26.6571L19.3313 28.6571ZM15.8136 25.5144C15.8954 27.3879 17.6196 28.8291 19.435 28.6524L19.2412 26.6618C18.5432 26.7298 17.8425 26.1316 17.8117 25.4272L15.8136 25.5144ZM18.5255 22.0111C16.8416 22.2738 15.6736 23.9332 15.8165 25.5584L17.8088 25.3833C17.7509 24.7244 18.2694 24.0752 18.8338 23.9872L18.5255 22.0111ZM17.9355 34.5814C18.2947 34.4113 18.7207 34.4008 19.4229 34.4117L19.454 32.412C18.8385 32.4024 17.9301 32.3711 17.0796 32.7738L17.9355 34.5814ZM18.2166 37.0689C17.7481 36.9876 17.3776 36.5731 17.3014 35.938C17.225 35.3001 17.4896 34.7876 17.927 34.5854L17.088 32.7699C15.6545 33.4324 15.1663 34.9307 15.3157 36.1761C15.4654 37.4245 16.2993 38.7659 17.8745 39.0394L18.2166 37.0689ZM21.9478 37.1283C20.6325 37.1443 19.3721 37.1588 18.1266 37.0575L17.9645 39.0509C19.3186 39.161 20.6725 39.1439 21.972 39.1282L21.9478 37.1283ZM24.5701 37.1321C23.6871 37.1071 22.8056 37.1179 21.9478 37.1283L21.972 39.1282C22.8366 39.1177 23.6777 39.1077 24.5135 39.1313L24.5701 37.1321ZM25.0478 37.1364C24.8835 37.1336 24.7074 37.1305 24.5347 37.1317L24.5489 39.1317C24.6929 39.1306 24.8442 39.1332 25.0132 39.1361L25.0478 37.1364ZM27.0869 36.6578C26.9332 36.8711 26.7237 36.996 26.3908 37.0683C26.0217 37.1485 25.5927 37.1458 25.0478 37.1364L25.0132 39.1361C25.5097 39.1447 26.1788 39.161 26.8154 39.0228C27.4881 38.8766 28.1918 38.5456 28.7095 37.8271L27.0869 36.6578ZM26.448 34.4678C26.8209 34.5398 27.1627 34.8494 27.3234 35.3317C27.4844 35.8147 27.4012 36.2883 27.1418 36.5884L28.6547 37.8965C29.4672 36.9567 29.5567 35.7071 29.2208 34.6993C28.8847 33.6907 28.0601 32.7421 26.8271 32.504L26.448 34.4678ZM22.7632 34.4139C24.0681 34.3996 25.3205 34.3866 26.5601 34.4829L26.715 32.4889C25.3725 32.3846 24.0312 32.3999 22.7413 32.414L22.7632 34.4139ZM20.129 34.408C21.0161 34.4331 21.9012 34.4233 22.7632 34.4139L22.7413 32.414C21.8728 32.4235 21.027 32.4326 20.1857 32.4088L20.129 34.408ZM19.4229 34.4117C19.6592 34.4154 19.9313 34.42 20.2038 34.4073L20.1109 32.4095C19.9111 32.4188 19.7016 32.4158 19.454 32.412L19.4229 34.4117Z" fill="url(#paint1_linear_1005_211)"/>
<path d="M52.4377 15.3518C54.0076 14.638 55.9709 14.9684 57.2235 16.1675C58.1189 16.9996 59.0704 17.7828 59.8694 18.7168C61.1782 20.3523 60.9374 22.9546 59.4037 24.3577C52.9115 30.953 46.4233 37.5484 39.907 44.1194C37.2291 46.8073 33.3948 47.4762 30.0102 48.8099C29.0546 49.2301 27.822 49.2953 27.0472 48.4795C26.1357 47.6598 26.204 46.2689 26.7501 45.2614C28.2958 41.8434 29.2875 37.9971 32.0137 35.2929C38.289 29.0197 44.5925 22.7833 50.8718 16.5142C51.3376 16.0615 51.8355 15.6168 52.4377 15.3518ZM35.5267 38.4335C34.2862 39.6327 33.455 41.1785 32.8488 42.7896C34.4106 42.3288 35.9081 41.5538 37.0363 40.3465C43.3077 34.004 49.563 27.637 55.8142 21.2742C55.2883 20.7929 54.7624 20.3116 54.2364 19.8303C47.9812 26.0096 41.7579 32.2256 35.5267 38.4335Z" fill="url(#paint2_linear_1005_211)" stroke="url(#paint3_linear_1005_211)"/>
<defs>
<linearGradient id="paint0_linear_1005_211" x1="14.1902" y1="53.2131" x2="55.4192" y2="20.7956" gradientUnits="userSpaceOnUse">
<stop stop-color="#0072FF"/>
<stop offset="1" stop-color="#00E5A1"/>
</linearGradient>
<linearGradient id="paint1_linear_1005_211" x1="14.1902" y1="53.2131" x2="55.4192" y2="20.7956" gradientUnits="userSpaceOnUse">
<stop stop-color="#0072FF"/>
<stop offset="1" stop-color="#00E5A1"/>
</linearGradient>
<linearGradient id="paint2_linear_1005_211" x1="31.382" y1="44.1146" x2="55.5187" y2="19.812" gradientUnits="userSpaceOnUse">
<stop stop-color="#0072FF"/>
<stop offset="1" stop-color="#00E5A1"/>
</linearGradient>
<linearGradient id="paint3_linear_1005_211" x1="31.382" y1="44.1146" x2="55.5187" y2="19.812" gradientUnits="userSpaceOnUse">
<stop stop-color="#0072FF"/>
<stop offset="1" stop-color="#00E5A1"/>
</linearGradient>
</defs>
</svg>
