<svg width="32" height="32" viewBox="0 0 32 32" fill="none" xmlns="http://www.w3.org/2000/svg">
<path d="M12.6668 17.1668V17.3335C12.6668 18.2175 13.018 19.0654 13.6431 19.6905C14.2682 20.3156 15.1161 20.6668 16.0001 20.6668C16.8842 20.6668 17.732 20.3156 18.3572 19.6905C18.9823 19.0654 19.3335 18.2175 19.3335 17.3335V17.1668C19.3335 16.5228 18.8108 16.0001 18.1668 16.0001H13.8335C13.1895 16.0001 12.6668 16.5228 12.6668 17.1668Z" fill="url(#paint0_linear_1005_157)"/>
<path fill-rule="evenodd" clip-rule="evenodd" d="M27.6392 3.02739C26.49 1.8775 25.0524 1.39796 23.4117 1.1773C21.8458 0.966693 19.8651 0.966741 17.4539 0.966799L15.9998 0.9668L12.6644 0.970802L12.6543 0.970844C10.8002 0.984117 9.21426 1.0363 7.89981 1.28796C6.53774 1.54873 5.34176 2.04532 4.36038 3.0274C3.2105 4.17659 2.73097 5.61424 2.51031 7.25486C2.2997 8.82079 2.29975 10.8015 2.29981 13.2127V18.7876C2.29975 21.1988 2.2997 23.1795 2.51031 24.7454C2.73097 26.386 3.21051 27.8237 4.36039 28.9729C5.50958 30.1228 6.94725 30.6023 8.58787 30.823C10.1538 31.0336 12.1345 31.0335 14.5457 31.0335H17.4539C19.8651 31.0335 21.8458 31.0336 23.4117 30.823C25.0521 30.6023 26.4896 30.1229 27.6387 28.9734L26.4371 27.7708L27.6397 28.9724C28.7893 27.8233 29.2687 26.3858 29.4893 24.7454C29.6999 23.1795 29.6999 21.1988 29.6998 18.7876V13.2127C29.6999 10.8015 29.6999 8.82079 29.4893 7.25486C29.2686 5.61424 28.7891 4.17658 27.6392 3.02739ZM17.3331 4.3668C19.8952 4.3668 21.6459 4.37041 22.9585 4.54696C24.2223 4.71694 24.8225 5.01863 25.2345 5.43104L25.2356 5.43206C25.648 5.84412 25.9497 6.44427 26.1196 7.70807C26.2962 9.02075 26.2998 10.7714 26.2998 13.3335V18.6668C26.2998 21.2289 26.2962 22.9795 26.1196 24.2922C25.9497 25.556 25.648 26.1561 25.2356 26.5682L25.2345 26.5692C24.8225 26.9816 24.2223 27.2833 22.9585 27.4533C21.6459 27.6299 19.8952 27.6335 17.3331 27.6335H14.6665C12.1044 27.6335 10.3538 27.6299 9.04108 27.4533C7.77728 27.2833 7.17713 26.9816 6.76507 26.5692L6.76404 26.5682C6.35163 26.1561 6.04995 25.556 5.87997 24.2922C5.70342 22.9795 5.69981 21.2289 5.69981 18.6668V13.3335C5.69981 10.7714 5.70342 9.02075 5.87997 7.70807C6.04995 6.44427 6.35163 5.84412 6.76404 5.43206L6.76515 5.43095C7.12233 5.07342 7.61548 4.80415 8.53914 4.62731C9.36169 4.46983 10.4174 4.40471 11.8574 4.38031C12.3069 4.3727 12.5446 4.81979 12.8615 5.1388V5.1388C13.0575 5.33347 13.3735 5.33347 14.0001 5.33347H16.0001V8.00013H14.0001C13.3721 8.00013 13.0575 8.00013 12.8615 8.1948C12.6668 8.3908 12.6668 8.7068 12.6668 9.33347C12.6668 9.96013 12.6668 10.2761 12.8615 10.4721C13.0575 10.6668 13.3735 10.6668 14.0001 10.6668H16.0001V12.0001C16.0001 12.6281 16.0001 12.9428 16.1948 13.1388C16.3908 13.3335 16.7055 13.3335 17.3335 13.3335H18.0001C18.6281 13.3335 18.9428 13.3335 19.1388 13.1388C19.3335 12.9428 19.3335 12.6281 19.3335 12.0001C19.3335 11.3721 19.3335 11.0575 19.1388 10.8615C18.9428 10.6668 18.6268 10.6668 18.0001 10.6668H16.0001V8.00013H18.0001C18.6281 8.00013 18.9428 8.00013 19.1388 7.80547C19.3335 7.60947 19.3335 7.2948 19.3335 6.6668C19.3335 6.0388 19.3335 5.72413 19.1388 5.52813C18.9428 5.33347 18.6268 5.33347 18.0001 5.33347H16.0001V5.33347C16.0001 4.79959 16.4329 4.3668 16.9668 4.3668H17.3331Z" fill="url(#paint1_linear_1005_157)"/>
<defs>
<linearGradient id="paint0_linear_1005_157" x1="5.46485" y1="28.64" x2="27.8674" y2="23.7026" gradientUnits="userSpaceOnUse">
<stop stop-color="#FE0844"/>
<stop offset="1" stop-color="#FEB302"/>
</linearGradient>
<linearGradient id="paint1_linear_1005_157" x1="5.46485" y1="28.64" x2="27.8674" y2="23.7026" gradientUnits="userSpaceOnUse">
<stop stop-color="#FE0844"/>
<stop offset="1" stop-color="#FEB302"/>
</linearGradient>
</defs>
</svg>
