<svg width="48" height="48" viewBox="0 0 48 48" fill="none" xmlns="http://www.w3.org/2000/svg">
<path fill-rule="evenodd" clip-rule="evenodd" d="M37.3095 14.1389C37.6293 14.5548 38.2491 14.5763 38.5969 14.1834L42.5395 9.72953C43.049 9.15393 43.9999 9.51433 43.9999 10.2831V10.3571V10.8098V25.4271V25.8797V25.3555C43.9999 25.5249 43.9485 25.6902 43.8523 25.8296L37.0568 35.6845C36.8079 36.0436 36.3319 36.1747 35.9352 35.9918L28.8927 32.7665C28.6359 32.6488 28.337 32.669 28.0984 32.8201L20.3011 37.7548C20.1675 37.8393 20.0126 37.8842 19.8545 37.8842H17.1688H13.0106C10.1395 37.8842 4 38.4114 4 35.5403V28.9142V28.4615V28.4068C4 27.5947 8.85131 27.2605 9.32383 27.921L11.5918 31.0912C11.9205 31.5506 12.6009 31.558 12.9395 31.1058L18.9674 23.0558C19.1378 22.8279 19.4067 22.6934 19.6915 22.6934C19.9437 22.6934 20.185 22.7986 20.3562 22.9832L22.1971 24.9702C22.5662 25.3685 23.2112 25.3142 23.5085 24.8599L32.9464 10.4373C33.1134 10.1818 33.399 10.0281 33.7038 10.0281C33.9844 10.0281 34.2491 10.1584 34.4203 10.3805L37.3095 14.1389Z" stroke="url(#paint0_linear_678_160)" stroke-width="5"/>
<path d="M39.9999 4H8C5.79086 4 4 5.79086 4 8V39.9999C4 42.209 5.79086 43.9999 8 43.9999H39.9999C42.209 43.9999 43.9999 42.209 43.9999 39.9999V8C43.9999 5.79086 42.209 4 39.9999 4Z" stroke="url(#paint1_linear_678_160)" stroke-width="5"/>
<defs>
<linearGradient id="paint0_linear_678_160" x1="25.9047" y1="40.8842" x2="25.9047" y2="10.4463" gradientUnits="userSpaceOnUse">
<stop stop-color="#FD5900"/>
<stop offset="1" stop-color="#FFDE00"/>
</linearGradient>
<linearGradient id="paint1_linear_678_160" x1="24" y1="43.9999" x2="24" y2="4" gradientUnits="userSpaceOnUse">
<stop stop-color="#FD5900"/>
<stop offset="1" stop-color="#FFDE00"/>
</linearGradient>
</defs>
</svg>
