<svg width="128" height="128" viewBox="0 0 128 128" fill="none" xmlns="http://www.w3.org/2000/svg">
<path d="M73.8438 90.4698C73.8444 92.2785 75.3162 93.75 77.125 93.75C78.9343 93.75 80.4062 92.278 80.4062 90.4688C80.4062 88.6595 78.9343 87.1875 77.125 87.1875C75.3159 87.1875 73.8444 88.6588 73.8438 90.4677V90.4698ZM119.77 97.8699L112.852 66.6727C110.877 55.7396 101.383 47.8125 90.25 47.8125C86.6118 47.8125 83.1306 48.6394 79.9033 50.2702C77.1426 51.6652 74.3925 52.7064 71.6727 53.3908C69.3615 53.9723 67.2812 52.1047 67.2812 49.7214V44.5312C67.2812 42.722 68.7532 41.25 70.5625 41.25H83.6875C89.1153 41.25 93.5312 36.8341 93.5312 31.4062C93.5312 25.9784 89.1153 21.5625 83.6875 21.5625H44.3125C42.5032 21.5625 41.0312 20.0905 41.0312 18.2812C41.0312 16.4691 39.5621 15 37.75 15C35.9379 15 34.4688 16.4691 34.4688 18.2812C34.4688 23.7091 38.8847 28.125 44.3125 28.125H83.6875C85.4968 28.125 86.9688 29.597 86.9688 31.4062C86.9688 33.2155 85.4968 34.6875 83.6875 34.6875H70.5625C65.1347 34.6875 60.7188 39.1034 60.7188 44.5312V49.7212C60.7188 52.1045 58.6385 53.9721 56.3272 53.3906C53.6073 52.7062 50.857 51.6649 48.096 50.2697C44.8688 48.6394 41.3878 47.8125 37.75 47.8125C26.6172 47.8125 17.1234 55.7396 15.1483 66.6727L8.22969 97.8699C8.1225 98.3508 8 99.3408 8 100.312C8 107.55 13.8879 113.438 21.125 113.438C26.5435 113.438 27.557 112.266 41.3232 100.027C42.8778 98.6448 45.2223 98.7859 47.1461 99.5774C48.2966 100.051 49.5556 100.312 50.875 100.312C54.1479 100.312 57.0517 98.7062 58.842 96.2414C59.8373 94.871 61.2862 93.75 62.9798 93.75H65.0204C66.714 93.75 68.1629 94.871 69.1582 96.2414C70.9485 98.7062 73.8524 100.312 77.1252 100.312C78.4446 100.312 79.7037 100.051 80.8541 99.5774C82.7779 98.7859 85.1224 98.6448 86.677 100.027C100.438 112.264 101.437 113.438 106.875 113.438C114.112 113.438 120 107.55 120 100.312C120 99.3824 119.884 98.3781 119.77 97.8699ZM54.1562 90.4698C54.1556 92.2787 52.6841 93.75 50.875 93.75C49.0657 93.75 47.5938 92.278 47.5938 90.4688C47.5938 88.6595 49.0657 87.1875 50.875 87.1875C52.6838 87.1875 54.1556 88.659 54.1562 90.4677V90.4698ZM106.875 106.875C103.879 106.875 104.211 106.766 87.6829 92.1475C87.2107 91.7299 86.9688 91.0992 86.9688 90.4688V90.4688C86.9688 85.0409 82.5528 80.625 77.125 80.625C73.8521 80.625 70.9482 82.2311 69.158 84.6961C68.1627 86.0665 66.7138 87.1875 65.0202 87.1875H62.9798C61.2862 87.1875 59.8373 86.0665 58.842 84.6961C57.0518 82.2311 54.1479 80.625 50.875 80.625C45.4472 80.625 41.0312 85.0409 41.0312 90.4688V90.4688C41.0312 91.0991 40.7894 91.7295 40.3173 92.1471C23.8689 106.694 24.129 106.875 21.125 106.875C17.5064 106.875 14.5625 103.931 14.5625 100.312C14.5625 99.9791 14.5875 99.6459 14.6368 99.3191C14.6473 99.2499 14.66 99.1852 14.6751 99.117C15.1003 97.1995 21.5893 67.9349 21.5971 67.8905C22.9872 60.059 29.7805 54.375 37.75 54.375C40.3503 54.375 42.8355 54.9645 45.1365 56.1272C51.4536 59.3192 57.8002 60.9375 64 60.9375C70.2001 60.9375 76.5466 59.3192 82.8632 56.1274C85.1641 54.9645 87.6495 54.375 90.25 54.375C98.2195 54.375 105.013 60.059 106.403 67.8907C106.411 67.9364 106.42 67.9821 106.43 68.0276L113.347 99.2157C113.407 99.5753 113.438 99.9439 113.438 100.312C113.438 103.931 110.494 106.875 106.875 106.875ZM44.3125 67.5V67.5C42.5003 67.5 41.0312 66.031 41.0312 64.2188V64.2188C41.0312 62.4066 39.5621 60.9375 37.75 60.9375C35.9379 60.9375 34.4688 62.4066 34.4688 64.2188V64.2188C34.4688 66.031 32.9997 67.5 31.1875 67.5V67.5C29.3754 67.5 27.9062 68.9691 27.9062 70.7812C27.9062 72.5934 29.3754 74.0625 31.1875 74.0625V74.0625C32.9997 74.0625 34.4688 75.5316 34.4688 77.3438V77.3438C34.4688 79.1559 35.9379 80.625 37.75 80.625C39.5621 80.625 41.0312 79.1559 41.0312 77.3438V77.3438C41.0312 75.5316 42.5003 74.0625 44.3125 74.0625V74.0625C46.1246 74.0625 47.5938 72.5934 47.5938 70.7812C47.5938 68.9691 46.1246 67.5 44.3125 67.5ZM96.8125 67.5V67.5C95.0003 67.5 93.5312 66.031 93.5312 64.2188V64.2188C93.5312 62.4066 92.0621 60.9375 90.25 60.9375C88.4379 60.9375 86.9688 62.4066 86.9688 64.2188V64.2188C86.9688 66.031 85.4997 67.5 83.6875 67.5V67.5C81.8754 67.5 80.4062 68.9691 80.4062 70.7812C80.4062 72.5934 81.8754 74.0625 83.6875 74.0625V74.0625C85.4997 74.0625 86.9688 75.5316 86.9688 77.3438V77.3438C86.9688 79.1559 88.4379 80.625 90.25 80.625C92.0621 80.625 93.5312 79.1559 93.5312 77.3438V77.3438C93.5312 75.5316 95.0003 74.0625 96.8125 74.0625V74.0625C98.6246 74.0625 100.094 72.5934 100.094 70.7812C100.094 68.9691 98.6246 67.5 96.8125 67.5ZM57.4375 67.5C55.6254 67.5 54.1562 68.9691 54.1562 70.7812C54.1562 72.5934 55.6254 74.0625 57.4375 74.0625C59.2496 74.0625 60.7188 72.5934 60.7188 70.7812C60.7188 68.9691 59.2496 67.5 57.4375 67.5ZM70.5625 67.5C68.7504 67.5 67.2812 68.9691 67.2812 70.7812C67.2812 72.5934 68.7504 74.0625 70.5625 74.0625C72.3746 74.0625 73.8438 72.5934 73.8438 70.7812C73.8438 68.9691 72.3746 67.5 70.5625 67.5Z" fill="url(#paint0_linear_1005_486)" stroke="url(#paint1_linear_1005_486)" stroke-width="4"/>
<defs>
<linearGradient id="paint0_linear_1005_486" x1="63.9999" y1="113.438" x2="63.9999" y2="15" gradientUnits="userSpaceOnUse">
<stop stop-color="#9000FF"/>
<stop offset="1" stop-color="#FF07FF"/>
</linearGradient>
<linearGradient id="paint1_linear_1005_486" x1="63.9999" y1="113.438" x2="63.9999" y2="15" gradientUnits="userSpaceOnUse">
<stop stop-color="#9000FF"/>
<stop offset="1" stop-color="#FF07FF"/>
</linearGradient>
</defs>
</svg>
