<svg width="129" height="128" viewBox="0 0 129 128" fill="none" xmlns="http://www.w3.org/2000/svg">
<path d="M118.943 57.8652C117.978 57.2627 116.77 57.2116 115.751 57.7211L98.5917 66.3009C96.5969 67.2982 94.25 65.8477 94.25 63.6176V54.0938C94.25 52.2801 92.7824 50.8125 90.9688 50.8125H89.0934C86.4947 50.8125 84.9512 47.548 85.9599 45.153C86.9277 42.8552 87.4688 40.3382 87.4688 37.6875C87.4688 26.8311 78.6376 18 67.7812 18C56.9249 18 48.0938 26.8311 48.0938 37.6875C48.0938 41.1442 49.014 44.3736 50.6006 47.186C51.4486 48.689 50.4608 50.8125 48.7352 50.8125V50.8125C47.0895 50.8125 46.0946 48.8741 46.7529 47.3658C47.6094 45.4034 48.0938 43.2468 48.0938 40.9688C48.0938 31.9227 40.7335 24.5625 31.6875 24.5625C22.6415 24.5625 15.2812 31.9227 15.2812 40.9688C15.2812 42.5317 15.5092 44.0374 15.929 45.4625C16.6292 47.8398 15.0912 50.8125 12.6129 50.8125H11.7812C9.96759 50.8125 8.5 52.2801 8.5 54.0938V106.594C8.5 108.408 9.96759 109.875 11.7812 109.875H90.9688C92.7824 109.875 94.25 108.408 94.25 106.594V97.0698C94.25 94.8397 96.5969 93.3892 98.5916 94.3865L115.751 102.966C116.787 103.48 117.993 103.413 118.943 102.823C119.91 102.223 120.5 101.169 120.5 100.031V60.6562C120.5 59.5188 119.91 58.4644 118.943 57.8652ZM67.7812 24.5625C75.0199 24.5625 80.9062 30.4489 80.9062 37.6875C80.9062 44.9261 75.0199 50.8125 67.7812 50.8125C60.5426 50.8125 54.6562 44.9261 54.6562 37.6875C54.6562 30.4489 60.5426 24.5625 67.7812 24.5625ZM31.6875 31.125C37.1156 31.125 41.5312 35.5407 41.5312 40.9688C41.5312 46.3968 37.1156 50.8125 31.6875 50.8125C26.2594 50.8125 21.8438 46.3968 21.8438 40.9688C21.8438 35.5407 26.2594 31.125 31.6875 31.125ZM87.6875 100.312C87.6875 101.969 86.3444 103.312 84.6875 103.312H18.0625C16.4056 103.312 15.0625 101.969 15.0625 100.312V60.375C15.0625 58.7181 16.4056 57.375 18.0625 57.375H84.6875C86.3444 57.375 87.6875 58.7181 87.6875 60.375V100.312ZM113.938 89.8677C113.938 92.0978 111.591 93.5483 109.596 92.551L95.9084 85.7072C94.892 85.199 94.25 84.1602 94.25 83.0239V77.6639C94.25 76.5276 94.892 75.4888 95.9084 74.9806L109.596 68.1368C111.591 67.1394 113.938 68.5899 113.938 70.8201V89.8677ZM25.125 96.75H64.5C66.3137 96.75 67.7812 95.2824 67.7812 93.4688V67.2188C67.7812 65.4051 66.3137 63.9375 64.5 63.9375H25.125C23.3113 63.9375 21.8438 65.4051 21.8438 67.2188V93.4688C21.8438 95.2824 23.3113 96.75 25.125 96.75ZM28.4062 73.5C28.4062 71.8431 29.7493 70.5 31.4062 70.5H58.2188C59.8757 70.5 61.2188 71.8431 61.2188 73.5V87.1875C61.2188 88.8444 59.8757 90.1875 58.2188 90.1875H31.4062C29.7493 90.1875 28.4062 88.8444 28.4062 87.1875V73.5ZM77.625 70.5C79.4371 70.5 80.9062 69.0309 80.9062 67.2188C80.9062 65.4066 79.4371 63.9375 77.625 63.9375C75.8129 63.9375 74.3438 65.4066 74.3438 67.2188C74.3438 69.0309 75.8129 70.5 77.625 70.5Z" fill="url(#paint0_linear_1005_180)" stroke="url(#paint1_linear_1005_180)" stroke-width="3"/>
<defs>
<linearGradient id="paint0_linear_1005_180" x1="64.5006" y1="17.9999" x2="64.5006" y2="109.875" gradientUnits="userSpaceOnUse">
<stop stop-color="#DCFF4F"/>
<stop offset="1" stop-color="#00BF58"/>
</linearGradient>
<linearGradient id="paint1_linear_1005_180" x1="64.5006" y1="17.9999" x2="64.5006" y2="109.875" gradientUnits="userSpaceOnUse">
<stop stop-color="#DCFF4F"/>
<stop offset="1" stop-color="#00BF58"/>
</linearGradient>
</defs>
</svg>
