<svg width="24" height="24" viewBox="0 0 24 24" fill="none" xmlns="http://www.w3.org/2000/svg">
<g clip-path="url(#clip0_678_194)">
<path d="M2.52764 2.83355C1.2998 4.3694 1.2998 6.83766 1.2998 11.7762C1.2998 16.7148 1.2998 19.1841 2.52764 20.7179C3.75443 22.2527 5.73029 22.2527 9.68096 22.2527H12.9079C13.0532 22.2527 13.1506 22.1023 13.1001 21.9661C12.8859 21.3882 12.7937 20.7709 12.8306 20.1533C12.8737 19.4325 13.0915 18.733 13.4651 18.1151C13.8388 17.4971 14.3571 16.9794 14.9755 16.6064C15.5399 16.2659 16.1722 16.0554 16.8265 15.9892C16.9319 15.9786 17.0145 15.8915 17.0145 15.7856V12.0382C17.0145 11.413 17.2628 10.8134 17.7049 10.3714C18.1469 9.9293 18.7465 9.68096 19.3717 9.68096C19.9968 9.68096 20.5964 9.9293 21.0385 10.3714C21.4805 10.8134 21.7289 11.413 21.7289 12.0382C21.7289 12.2006 21.7793 12.3591 21.8731 12.4917C21.912 12.5468 21.9576 12.5963 22.0086 12.6392C22.1142 12.7281 22.2527 12.6341 22.2527 12.4961V11.7762C22.2527 6.83766 22.2527 4.36835 21.0248 2.83355C19.7981 1.2998 17.8222 1.2998 13.8715 1.2998H9.68096C5.73029 1.2998 3.75443 1.2998 2.52764 2.83355Z" stroke="url(#paint0_linear_678_194)" stroke-width="2"/>
<path fill-rule="evenodd" clip-rule="evenodd" d="M7.84766 11.7763C7.84766 10.7343 8.26157 9.73511 8.99834 8.99834C9.73511 8.26157 10.7343 7.84766 11.7763 7.84766C12.8182 7.84766 13.8175 8.26157 14.5543 8.99834C15.2911 9.73511 15.705 10.7343 15.705 11.7763C15.705 12.8182 15.2911 13.8175 14.5543 14.5543C13.8175 15.2911 12.8182 15.705 11.7763 15.705C10.7343 15.705 9.73511 15.2911 8.99834 14.5543C8.26157 13.8175 7.84766 12.8182 7.84766 11.7763ZM11.7763 9.41913C11.1511 9.41913 10.5516 9.66747 10.1095 10.1095C9.66747 10.5516 9.41913 11.1511 9.41913 11.7763C9.41913 12.4015 9.66747 13.001 10.1095 13.4431C10.5516 13.8851 11.1511 14.1335 11.7763 14.1335C12.4015 14.1335 13.001 13.8851 13.4431 13.4431C13.8851 13.001 14.1335 12.4015 14.1335 11.7763C14.1335 11.1511 13.8851 10.5516 13.4431 10.1095C13.001 9.66747 12.4015 9.41913 11.7763 9.41913ZM19.3717 11.2525C19.5801 11.2525 19.78 11.3353 19.9273 11.4826C20.0747 11.63 20.1575 11.8298 20.1575 12.0382C20.1575 12.6634 20.4058 13.2629 20.8479 13.705C21.2899 14.1471 21.8895 14.3954 22.5147 14.3954C22.723 14.3954 22.9229 14.4782 23.0703 14.6255C23.2176 14.7729 23.3004 14.9728 23.3004 15.1811C23.3004 15.3895 23.2176 15.5894 23.0703 15.7367C22.9229 15.8841 22.723 15.9669 22.5147 15.9669C21.6644 15.9681 20.8369 15.6923 20.1575 15.1811V20.4194C20.1573 21.0472 19.9521 21.6578 19.5731 22.1582C19.1941 22.6587 18.6619 23.0217 18.0576 23.1919C17.4533 23.3622 16.81 23.3303 16.2254 23.1013C15.6409 22.8723 15.1472 22.4586 14.8193 21.9232C14.4915 21.3877 14.3476 20.7599 14.4094 20.1351C14.4712 19.5104 14.7354 18.9229 15.1618 18.4621C15.5882 18.0013 16.1535 17.6924 16.7716 17.5824C17.3897 17.4724 18.0268 17.5673 18.586 17.8526V12.0382C18.586 11.8298 18.6688 11.63 18.8161 11.4826C18.9635 11.3353 19.1633 11.2525 19.3717 11.2525ZM18.586 20.4194C18.586 20.072 18.448 19.739 18.2024 19.4934C17.9568 19.2478 17.6237 19.1098 17.2764 19.1098C16.9291 19.1098 16.596 19.2478 16.3504 19.4934C16.1048 19.739 15.9669 20.072 15.9669 20.4194C15.9669 20.7667 16.1048 21.0998 16.3504 21.3454C16.596 21.591 16.9291 21.7289 17.2764 21.7289C17.6237 21.7289 17.9568 21.591 18.2024 21.3454C18.448 21.0998 18.586 20.7667 18.586 20.4194Z" fill="url(#paint1_linear_678_194)"/>
</g>
<defs>
<linearGradient id="paint0_linear_678_194" x1="11.7762" y1="1.2998" x2="11.7762" y2="22.2528" gradientUnits="userSpaceOnUse">
<stop stop-color="#DC18FC"/>
<stop offset="1" stop-color="#8E1EFF"/>
</linearGradient>
<linearGradient id="paint1_linear_678_194" x1="15.574" y1="7.84766" x2="15.574" y2="23.2999" gradientUnits="userSpaceOnUse">
<stop stop-color="#DC18FC"/>
<stop offset="1" stop-color="#8E1EFF"/>
</linearGradient>
<clipPath id="clip0_678_194">
<rect width="24" height="24" fill="white"/>
</clipPath>
</defs>
</svg>
