<svg width="64" height="64" viewBox="0 0 64 64" fill="none" xmlns="http://www.w3.org/2000/svg">
<path fill-rule="evenodd" clip-rule="evenodd" d="M24.7586 7.09309C24.4054 7.76711 23.6991 8.22696 22.8853 8.22696C22.847 8.22696 22.809 8.22594 22.7712 8.22393L21.6821 13.1772L39.715 11.076C40.0212 10.6853 40.438 10.3856 40.9183 10.2238L41.345 8.19068C41.189 8.03802 41.0631 7.85478 40.9769 7.65066L24.7586 7.09309ZM20.6743 13.2946L21.5097 9.49517L17.9592 13.611L20.6743 13.2946ZM19.8028 17.2585L19.6262 18.0613L18.9993 17.3521L19.8028 17.2585ZM20.4267 18.8872L20.8106 17.1411L33.2411 15.6927L29.4041 17.1196C29.1015 16.7933 28.6691 16.5891 28.1891 16.5891C27.2881 16.5891 26.5551 17.3084 26.5329 18.2041L20.4267 18.8872ZM18.6063 22.7001L16.4794 20.294L14.9438 20.4658L11.8749 36.4968L16.926 28.7463C16.6174 28.4454 16.4258 28.0251 16.4258 27.5601C16.4258 26.7068 17.0708 26.0042 17.8998 25.9133L18.6063 22.7001ZM18.8434 26.088L19.3927 23.5898L31.2657 37.0216L11.3652 39.1595L11.3988 38.9839L17.7819 29.1896C17.8794 29.2075 17.9799 29.2168 18.0826 29.2168C18.9976 29.2168 19.7393 28.4751 19.7393 27.5601C19.7393 26.9194 19.3756 26.3636 18.8434 26.088ZM44.3093 12.6602C44.3093 11.6399 43.7147 10.7584 42.8532 10.3434L43.1802 8.78533L53.3746 21.2761C53.325 21.4335 53.2982 21.601 53.2982 21.7748C53.2982 22.2072 53.4639 22.601 53.7352 22.896L53.042 24.8427L44.1713 13.4933C44.2607 13.2321 44.3093 12.9518 44.3093 12.6602ZM53.7414 25.7376L54.456 23.7308L55.8706 28.4618L53.7414 25.7376ZM42.5855 16.1368L51.8989 28.0526L50.105 33.09L37.6047 35.9993C37.5777 35.9631 37.55 35.9275 37.5216 35.8925L42.5855 16.1368ZM52.5983 28.9475L51.2151 32.8316L54.954 31.9614L52.5983 28.9475ZM38.1005 38.8381L48.9579 36.3111L48.782 36.8052C48.0062 36.8902 47.4027 37.5477 47.4027 38.3461C47.4027 38.9994 47.8068 39.5583 48.3788 39.7865L48.2281 50.0429L48.0904 50.346C47.8011 50.4706 47.5453 50.6579 47.3399 50.8908L46.8258 51.0409L37.8787 49.1106C37.8105 48.2583 37.0972 47.5879 36.2273 47.5879C35.3818 47.5879 34.6843 48.2213 34.5832 49.0394L32.7615 49.4857L35.4757 41.083C36.7247 40.9107 37.7439 40.0182 38.1005 38.8381ZM49.2193 47.8614L55.1193 34.8771L50.068 36.0528L49.7293 37.004C50.1919 37.2722 50.5031 37.7728 50.5031 38.3461C50.5031 39.0696 50.0074 39.6774 49.3371 39.8483L49.2193 47.8614ZM56.2001 22.8677C56.4563 22.576 56.6117 22.1936 56.6117 21.7748C56.6117 20.8598 55.8699 20.118 54.9549 20.118C54.9385 20.118 54.9222 20.1183 54.9059 20.1187L44.1596 6.95164C44.1306 6.06207 43.4003 5.34981 42.5037 5.34981C42.093 5.34981 41.7171 5.49929 41.4276 5.74683L24.7793 5.17448C24.4335 4.4784 23.7153 4 22.8853 4C21.7181 4 20.7719 4.94625 20.7719 6.1135C20.7719 6.47755 20.8639 6.82011 21.026 7.11916L15.7066 13.2856C15.5559 13.2581 15.4007 13.2438 15.2421 13.2438C13.8411 13.2438 12.702 14.3646 12.6725 15.7585L7.88792 18.9084C7.59103 18.7493 7.25173 18.6592 6.89138 18.6592C5.72413 18.6592 4.77791 19.6054 4.77791 20.7727C4.77791 21.4027 5.05357 21.9683 5.49085 22.3555L4.63854 38.433C4.24991 38.7362 4 39.209 4 39.7401C4 40.6255 4.6945 41.3486 5.56847 41.3945L17.3763 53.5099C17.4839 54.321 18.1781 54.9468 19.0186 54.9468C19.2538 54.9468 19.4776 54.8978 19.6803 54.8094L25.667 58.0288L26.147 58.4803C26.242 59.5596 27.1483 60.406 28.2522 60.406C29.2202 60.406 30.0362 59.7553 30.2866 58.8675L47.4946 53.8431C47.8711 54.1897 48.3737 54.4014 48.9258 54.4014C50.093 54.4014 51.0393 53.4552 51.0393 52.2879C51.0393 51.9404 50.9554 51.6124 50.8068 51.3232L58.2902 34.8538C59.2642 34.6653 59.9997 33.808 59.9997 32.7789C59.9997 31.8491 59.3992 31.0595 58.5649 30.7768L56.2001 22.8677ZM6.56365 38.3534L7.3867 22.8278C8.20035 22.6324 8.83084 21.9663 8.97416 21.1337L12.948 20.6891L9.45135 38.9549C9.04948 39.0912 8.7019 39.3451 8.44959 39.6756L7.28895 39.4545C7.20903 38.9945 6.93942 38.5996 6.56365 38.3534ZM13.1368 19.7029L9.56199 20.1028L13.3821 17.5879C13.4253 17.6332 13.4702 17.6769 13.5166 17.719L13.1368 19.7029ZM15.1326 19.4796L15.7031 19.4157L15.2442 18.8965L15.1326 19.4796ZM21.1389 19.7726L26.794 19.1399C27.0886 19.5987 27.6034 19.9026 28.1891 19.9026C29.1041 19.9026 29.8458 19.1609 29.8458 18.2459C29.8458 18.1575 29.8389 18.0707 29.8256 17.9861L37.2484 15.2257L38.9082 15.0323L33.9718 34.2905L21.1389 19.7726ZM18.3589 51.7699C18.519 51.7003 18.6922 51.6553 18.8738 51.6396L11.1717 44.3954L18.3589 51.7699ZM44.8934 51.6052L37.6766 50.0481C37.3938 50.557 36.8508 50.9014 36.2273 50.9014C35.5792 50.9014 35.018 50.5293 34.7458 49.987L32.4152 50.5581L30.7424 55.737L44.8934 51.6052ZM32.7511 40.1568L29.478 50.2902L23.2589 51.8139L12.7259 41.9072L32.44 39.7893C32.5345 39.9195 32.6385 40.0424 32.7511 40.1568ZM24.0918 52.5973L29.1317 51.3625L27.6514 55.9453L24.0918 52.5973Z" fill="url(#paint0_linear_449_713)"/>
<path d="M24.7586 7.09309L24.7758 6.59339L24.4616 6.58258L24.3157 6.86101L24.7586 7.09309ZM22.7712 8.22393L22.7978 7.72464L22.374 7.70208L22.2828 8.11656L22.7712 8.22393ZM21.6821 13.1772L21.1938 13.0698L21.0431 13.755L21.74 13.6738L21.6821 13.1772ZM39.715 11.076L39.7728 11.5726L39.9799 11.5485L40.1085 11.3844L39.715 11.076ZM40.9183 10.2238L41.0778 10.6977L41.3489 10.6064L41.4076 10.3265L40.9183 10.2238ZM41.345 8.19068L41.8343 8.29339L41.8907 8.02509L41.6947 7.83333L41.345 8.19068ZM40.9769 7.65066L41.4375 7.45612L41.3132 7.16193L40.994 7.15096L40.9769 7.65066ZM20.6743 13.2946L20.7322 13.7913L21.0861 13.75L21.1626 13.402L20.6743 13.2946ZM21.5097 9.49517L21.998 9.60254L21.1311 9.16857L21.5097 9.49517ZM17.9592 13.611L17.5806 13.2844L16.7424 14.2562L18.0171 14.1076L17.9592 13.611ZM19.6262 18.0613L19.2516 18.3925L19.9033 19.1297L20.1146 18.1687L19.6262 18.0613ZM19.8028 17.2585L20.2911 17.3659L20.4417 16.6807L19.7449 16.7619L19.8028 17.2585ZM18.9993 17.3521L18.9415 16.8555L17.9909 16.9662L18.6247 17.6833L18.9993 17.3521ZM20.8106 17.1411L20.7527 16.6444L20.3988 16.6857L20.3222 17.0337L20.8106 17.1411ZM20.4267 18.8872L19.9383 18.7799L19.7884 19.4618L20.4823 19.3841L20.4267 18.8872ZM33.2411 15.6927L33.4154 16.1613L33.1833 15.196L33.2411 15.6927ZM29.4041 17.1196L29.0375 17.4596L29.2649 17.7048L29.5783 17.5882L29.4041 17.1196ZM26.5329 18.2041L26.5885 18.701L27.0219 18.6525L27.0327 18.2164L26.5329 18.2041ZM18.6063 22.7001L19.0947 22.8075L19.1492 22.5593L18.9809 22.369L18.6063 22.7001ZM16.4794 20.294L16.854 19.9628L16.682 19.7682L16.4238 19.7971L16.4794 20.294ZM14.9438 20.4658L14.8882 19.9689L14.522 20.0098L14.4527 20.3718L14.9438 20.4658ZM11.8749 36.4968L11.3839 36.4027L12.2938 36.7698L11.8749 36.4968ZM16.926 28.7463L17.3449 29.0193L17.5692 28.6752L17.2751 28.3883L16.926 28.7463ZM17.8998 25.9133L17.9544 26.4103L18.3111 26.3712L18.3882 26.0207L17.8998 25.9133ZM19.3927 23.5898L19.7673 23.2586L19.1157 22.5214L18.9044 23.4824L19.3927 23.5898ZM18.8434 26.088L18.3551 25.9806L18.2727 26.3555L18.6135 26.532L18.8434 26.088ZM31.2657 37.0216L31.3191 37.5188L32.2811 37.4154L31.6403 36.6905L31.2657 37.0216ZM11.3652 39.1595L10.8741 39.0655L10.7471 39.7288L11.4186 39.6566L11.3652 39.1595ZM11.3988 38.9839L10.9799 38.7109L10.9262 38.7933L10.9077 38.8899L11.3988 38.9839ZM17.7819 29.1896L17.8721 28.6978L17.5447 28.6378L17.363 28.9166L17.7819 29.1896ZM42.8532 10.3434L42.3638 10.2407L42.2834 10.6239L42.6362 10.7938L42.8532 10.3434ZM43.1802 8.78533L43.5676 8.46919L42.9058 7.6584L42.6909 8.68262L43.1802 8.78533ZM53.3746 21.2761L53.8514 21.4265L53.9326 21.1691L53.7619 20.96L53.3746 21.2761ZM53.7352 22.896L54.2063 23.0637L54.3075 22.7796L54.1033 22.5575L53.7352 22.896ZM53.042 24.8427L52.648 25.1507L53.208 25.8671L53.513 25.0105L53.042 24.8427ZM44.1713 13.4933L43.6982 13.3313L43.6104 13.5877L43.7773 13.8012L44.1713 13.4933ZM54.456 23.7308L54.9351 23.5876L54.4975 22.1241L53.985 23.5631L54.456 23.7308ZM53.7414 25.7376L53.2704 25.5699L53.1781 25.8289L53.3474 26.0455L53.7414 25.7376ZM55.8706 28.4618L55.4766 28.7697L56.3496 28.3185L55.8706 28.4618ZM51.8989 28.0526L52.3699 28.2203L52.4622 27.9613L52.2928 27.7447L51.8989 28.0526ZM42.5855 16.1368L42.9795 15.8289L42.3536 15.0281L42.1012 16.0127L42.5855 16.1368ZM50.105 33.09L50.2184 33.5769L50.4844 33.515L50.576 33.2577L50.105 33.09ZM37.6047 35.9993L37.2036 36.298L37.3992 36.5605L37.718 36.4863L37.6047 35.9993ZM37.5216 35.8925L37.0373 35.7684L36.9747 36.0123L37.1335 36.2078L37.5216 35.8925ZM51.2151 32.8316L50.7441 32.6638L50.4371 33.526L51.3285 33.3186L51.2151 32.8316ZM52.5983 28.9475L52.9923 28.6395L52.4323 27.9232L52.1273 28.7797L52.5983 28.9475ZM54.954 31.9614L55.0673 32.4484L55.8304 32.2708L55.3479 31.6535L54.954 31.9614ZM48.9579 36.3111L49.4289 36.4789L49.736 35.6167L48.8446 35.8242L48.9579 36.3111ZM38.1005 38.8381L37.9872 38.3512L37.7055 38.4167L37.6219 38.6935L38.1005 38.8381ZM48.782 36.8052L48.8365 37.3022L49.1479 37.268L49.253 36.9729L48.782 36.8052ZM48.3788 39.7865L48.8787 39.7938L48.8838 39.4496L48.564 39.3221L48.3788 39.7865ZM48.2281 50.0429L48.6833 50.2497L48.7265 50.1547L48.728 50.0502L48.2281 50.0429ZM48.0904 50.346L48.2882 50.8052L48.4657 50.7287L48.5456 50.5528L48.0904 50.346ZM47.3399 50.8908L47.4801 51.3708L47.6192 51.3302L47.715 51.2215L47.3399 50.8908ZM46.8258 51.0409L46.7204 51.5297L46.8443 51.5564L46.9659 51.5209L46.8258 51.0409ZM37.8787 49.1106L37.3803 49.1505L37.41 49.521L37.7733 49.5993L37.8787 49.1106ZM34.5832 49.0394L34.7022 49.5251L35.0371 49.443L35.0794 49.1007L34.5832 49.0394ZM32.7615 49.4857L32.2857 49.3321L32.0104 50.1846L32.8805 49.9714L32.7615 49.4857ZM35.4757 41.083L35.4074 40.5877L35.0964 40.6305L34.9999 40.9293L35.4757 41.083ZM55.1193 34.8771L55.5745 35.0839L55.9943 34.1601L55.0059 34.3901L55.1193 34.8771ZM49.2193 47.8614L48.7194 47.8541L49.6746 48.0682L49.2193 47.8614ZM50.068 36.0528L49.9547 35.5658L49.6886 35.6277L49.597 35.885L50.068 36.0528ZM49.7293 37.004L49.2583 36.8362L49.1188 37.228L49.4785 37.4365L49.7293 37.004ZM49.3371 39.8483L49.2135 39.3638L48.8427 39.4583L48.8371 39.8409L49.3371 39.8483ZM56.2001 22.8677L55.8244 22.5377L55.6417 22.7457L55.721 23.011L56.2001 22.8677ZM54.9059 20.1187L54.5186 20.4349L54.6743 20.6257L54.9204 20.6185L54.9059 20.1187ZM44.1596 6.95164L43.6598 6.96791L43.6653 7.13684L43.7722 7.26779L44.1596 6.95164ZM41.4276 5.74683L41.4104 6.24654L41.6048 6.25322L41.7526 6.12685L41.4276 5.74683ZM24.7793 5.17448L24.3315 5.39692L24.4641 5.66394L24.7621 5.67418L24.7793 5.17448ZM21.026 7.11916L21.4046 7.44575L21.6301 7.18438L21.4656 6.8809L21.026 7.11916ZM15.7066 13.2856L15.6168 13.7775L15.8983 13.8289L16.0852 13.6122L15.7066 13.2856ZM12.6725 15.7585L12.9474 16.1761L13.1668 16.0317L13.1724 15.7691L12.6725 15.7585ZM7.88792 18.9084L7.65182 19.3491L7.91422 19.4897L8.16286 19.326L7.88792 18.9084ZM5.49085 22.3555L5.99015 22.382L6.00292 22.1411L5.82232 21.9812L5.49085 22.3555ZM4.63854 38.433L4.94609 38.8273L5.12578 38.6871L5.13784 38.4595L4.63854 38.433ZM5.56847 41.3945L5.92653 41.0455L5.79001 40.9054L5.59467 40.8952L5.56847 41.3945ZM17.3763 53.5099L17.872 53.4442L17.8502 53.2798L17.7344 53.161L17.3763 53.5099ZM19.6803 54.8094L19.9171 54.369L19.7031 54.2539L19.4804 54.3511L19.6803 54.8094ZM25.667 58.0288L26.0095 57.6646L25.9617 57.6196L25.9038 57.5884L25.667 58.0288ZM26.147 58.4803L26.6451 58.4364L26.6284 58.2466L26.4896 58.1161L26.147 58.4803ZM30.2866 58.8675L30.1465 58.3875L29.8806 58.4652L29.8054 58.7318L30.2866 58.8675ZM47.4946 53.8431L47.8333 53.4753L47.6255 53.284L47.3545 53.3631L47.4946 53.8431ZM50.8068 51.3232L50.3515 51.1163L50.2515 51.3366L50.362 51.5517L50.8068 51.3232ZM58.2902 34.8538L58.1952 34.363L57.9418 34.412L57.835 34.647L58.2902 34.8538ZM58.5649 30.7768L58.0858 30.92L58.1598 31.1674L58.4044 31.2503L58.5649 30.7768ZM7.3867 22.8278L7.26995 22.3416L6.90715 22.4287L6.8874 22.8013L7.3867 22.8278ZM6.56365 38.3534L6.06435 38.3269L6.04913 38.614L6.28958 38.7716L6.56365 38.3534ZM8.97416 21.1337L8.91857 20.6368L8.54514 20.6786L8.48141 21.0489L8.97416 21.1337ZM12.948 20.6891L13.4391 20.7831L13.5667 20.1167L12.8924 20.1922L12.948 20.6891ZM9.45135 38.9549L9.61195 39.4284L9.88769 39.3348L9.94243 39.0489L9.45135 38.9549ZM8.44959 39.6756L8.35602 40.1668L8.65955 40.2246L8.84703 39.979L8.44959 39.6756ZM7.28895 39.4545L6.79633 39.5401L6.85555 39.8809L7.19537 39.9456L7.28895 39.4545ZM9.56199 20.1028L9.28705 19.6852L9.61759 20.5997L9.56199 20.1028ZM13.1368 19.7029L13.1924 20.1998L13.5586 20.1588L13.6279 19.7969L13.1368 19.7029ZM13.3821 17.5879L13.7439 17.2427L13.4558 16.9407L13.1072 17.1702L13.3821 17.5879ZM13.5166 17.719L14.0077 17.813L14.0605 17.5371L13.8524 17.3485L13.5166 17.719ZM15.7031 19.4157L15.7587 19.9126L16.7151 19.8056L16.0777 19.0846L15.7031 19.4157ZM15.1326 19.4796L14.6415 19.3856L14.5139 20.0519L15.1882 19.9765L15.1326 19.4796ZM15.2442 18.8965L15.6188 18.5654L14.9445 17.8026L14.7531 18.8025L15.2442 18.8965ZM26.794 19.1399L27.2147 18.8697L27.047 18.6085L26.7384 18.643L26.794 19.1399ZM21.1389 19.7726L21.0833 19.2757L20.1269 19.3827L20.7643 20.1038L21.1389 19.7726ZM29.8256 17.9861L29.6513 17.5174L29.268 17.66L29.3317 18.0639L29.8256 17.9861ZM37.2484 15.2257L37.1905 14.7291L37.1306 14.7361L37.0741 14.7571L37.2484 15.2257ZM38.9082 15.0323L39.3926 15.1565L39.5733 14.4515L38.8503 14.5357L38.9082 15.0323ZM33.9718 34.2905L33.5972 34.6217L34.222 35.3284L34.4562 34.4147L33.9718 34.2905ZM18.8738 51.6396L18.917 52.1377L20.0307 52.0413L19.2164 51.2753L18.8738 51.6396ZM18.3589 51.7699L18.0009 52.1188L18.2417 52.366L18.5582 52.2284L18.3589 51.7699ZM11.1717 44.3954L11.5142 44.0312L10.8136 44.7444L11.1717 44.3954ZM37.6766 50.0481L37.782 49.5594L37.4196 49.4812L37.2395 49.8053L37.6766 50.0481ZM44.8934 51.6052L45.0335 52.0851L44.9988 51.1164L44.8934 51.6052ZM34.7458 49.987L35.1927 49.7627L35.0139 49.4066L34.6268 49.5014L34.7458 49.987ZM32.4152 50.5581L32.2962 50.0724L32.0251 50.1388L31.9394 50.4044L32.4152 50.5581ZM30.7424 55.737L30.2666 55.5833L29.9764 56.4815L30.8825 56.217L30.7424 55.737ZM29.478 50.2902L29.597 50.7759L29.868 50.7094L29.9538 50.4439L29.478 50.2902ZM32.7511 40.1568L33.2269 40.3105L33.3201 40.0221L33.1075 39.8061L32.7511 40.1568ZM23.2589 51.8139L22.9163 52.1781L23.1141 52.3642L23.3779 52.2996L23.2589 51.8139ZM12.7259 41.9072L12.6725 41.41L11.591 41.5262L12.3833 42.2714L12.7259 41.9072ZM32.44 39.7893L32.8447 39.4957L32.6745 39.2612L32.3866 39.2922L32.44 39.7893ZM29.1317 51.3625L29.6075 51.5162L29.8828 50.6637L29.0127 50.8769L29.1317 51.3625ZM24.0918 52.5973L23.9728 52.1117L23.0786 52.3308L23.7493 52.9615L24.0918 52.5973ZM27.6514 55.9453L27.3089 56.3095L27.8844 56.8508L28.1272 56.099L27.6514 55.9453ZM22.8853 8.72696C23.8923 8.72696 24.7654 8.15739 25.2015 7.32517L24.3157 6.86101C24.0454 7.37683 23.5059 7.72696 22.8853 7.72696V8.72696ZM22.7446 8.72322C22.7912 8.72571 22.8382 8.72696 22.8853 8.72696V7.72696C22.8559 7.72696 22.8267 7.72618 22.7978 7.72464L22.7446 8.72322ZM22.2828 8.11656L21.1938 13.0698L22.1704 13.2846L23.2595 8.3313L22.2828 8.11656ZM39.6571 10.5793L21.6242 12.6805L21.74 13.6738L39.7728 11.5726L39.6571 10.5793ZM40.7587 9.74998C40.1842 9.94344 39.6867 10.3016 39.3215 10.7675L40.1085 11.3844C40.3557 11.0691 40.6917 10.8277 41.0778 10.6977L40.7587 9.74998ZM40.8557 8.08797L40.4289 10.1211L41.4076 10.3265L41.8343 8.29339L40.8557 8.08797ZM40.5163 7.8452C40.6286 8.11129 40.7926 8.34966 40.9953 8.54802L41.6947 7.83333C41.5854 7.72637 41.4975 7.59827 41.4375 7.45612L40.5163 7.8452ZM24.7414 7.59279L40.9597 8.15036L40.994 7.15096L24.7758 6.59339L24.7414 7.59279ZM21.1626 13.402L21.998 9.60254L21.0213 9.3878L20.186 13.1873L21.1626 13.402ZM18.3378 13.9376L21.8883 9.82176L21.1311 9.16857L17.5806 13.2844L18.3378 13.9376ZM20.6164 12.798L17.9014 13.1143L18.0171 14.1076L20.7322 13.7913L20.6164 12.798ZM20.1146 18.1687L20.2911 17.3659L19.3144 17.1511L19.1379 17.954L20.1146 18.1687ZM18.6247 17.6833L19.2516 18.3925L20.0009 17.7302L19.374 17.021L18.6247 17.6833ZM19.7449 16.7619L18.9415 16.8555L19.0572 17.8488L19.8606 17.7552L19.7449 16.7619ZM20.3222 17.0337L19.9383 18.7799L20.915 18.9946L21.2989 17.2484L20.3222 17.0337ZM33.1833 15.196L20.7527 16.6444L20.8684 17.6377L33.299 16.1893L33.1833 15.196ZM29.5783 17.5882L33.4154 16.1613L33.0669 15.224L29.2298 16.6509L29.5783 17.5882ZM28.1891 17.0891C28.5243 17.0891 28.8255 17.2311 29.0375 17.4596L29.7707 16.7796C29.3774 16.3556 28.814 16.0891 28.1891 16.0891V17.0891ZM27.0327 18.2164C27.0482 17.5913 27.5601 17.0891 28.1891 17.0891V16.0891C27.0161 16.0891 26.0619 17.0255 26.033 18.1917L27.0327 18.2164ZM20.4823 19.3841L26.5885 18.701L26.4773 17.7072L20.3711 18.3903L20.4823 19.3841ZM18.9809 22.369L16.854 19.9628L16.1048 20.6251L18.2317 23.0313L18.9809 22.369ZM16.4238 19.7971L14.8882 19.9689L14.9994 20.9627L16.535 20.7909L16.4238 19.7971ZM14.4527 20.3718L11.3839 36.4027L12.366 36.5908L15.4349 20.5598L14.4527 20.3718ZM12.2938 36.7698L17.3449 29.0193L16.5071 28.4733L11.456 36.2238L12.2938 36.7698ZM17.2751 28.3883C17.059 28.1777 16.9258 27.8849 16.9258 27.5601H15.9258C15.9258 28.1654 16.1758 28.7132 16.577 29.1043L17.2751 28.3883ZM16.9258 27.5601C16.9258 26.9647 17.3761 26.4738 17.9544 26.4103L17.8453 25.4163C16.7656 25.5347 15.9258 26.449 15.9258 27.5601H16.9258ZM18.3882 26.0207L19.0947 22.8075L18.118 22.5927L17.4115 25.8059L18.3882 26.0207ZM18.9044 23.4824L18.3551 25.9806L19.3318 26.1954L19.8811 23.6971L18.9044 23.4824ZM31.6403 36.6905L19.7673 23.2586L19.0181 23.9209L30.891 37.3528L31.6403 36.6905ZM11.4186 39.6566L31.3191 37.5188L31.2122 36.5245L11.3118 38.6624L11.4186 39.6566ZM10.9077 38.8899L10.8741 39.0655L11.8563 39.2535L11.8899 39.0779L10.9077 38.8899ZM17.363 28.9166L10.9799 38.7109L11.8177 39.2569L18.2008 29.4626L17.363 28.9166ZM18.0826 28.7168C18.0103 28.7168 17.94 28.7102 17.8721 28.6978L17.6918 29.6814C17.8189 29.7047 17.9495 29.7168 18.0826 29.7168V28.7168ZM19.2393 27.5601C19.2393 28.1989 18.7214 28.7168 18.0826 28.7168V29.7168C19.2737 29.7168 20.2393 28.7512 20.2393 27.5601H19.2393ZM18.6135 26.532C18.9863 26.7251 19.2393 27.1135 19.2393 27.5601H20.2393C20.2393 26.7253 19.7649 26.0022 19.0734 25.644L18.6135 26.532ZM42.6362 10.7938C43.3313 11.1287 43.8093 11.8391 43.8093 12.6602H44.8093C44.8093 11.4407 44.0982 10.3882 43.0702 9.89292L42.6362 10.7938ZM42.6909 8.68262L42.3638 10.2407L43.3425 10.4461L43.6695 8.88804L42.6909 8.68262ZM53.7619 20.96L43.5676 8.46919L42.7928 9.10148L52.9872 21.5923L53.7619 20.96ZM53.7982 21.7748C53.7982 21.6526 53.817 21.5358 53.8514 21.4265L52.8977 21.1258C52.8329 21.3313 52.7982 21.5494 52.7982 21.7748H53.7982ZM54.1033 22.5575C53.9134 22.3511 53.7982 22.077 53.7982 21.7748H52.7982C52.7982 22.3375 53.0143 22.8508 53.3672 23.2345L54.1033 22.5575ZM53.513 25.0105L54.2063 23.0637L53.2642 22.7283L52.5709 24.675L53.513 25.0105ZM43.7773 13.8012L52.648 25.1507L53.4359 24.5348L44.5652 13.1854L43.7773 13.8012ZM43.8093 12.6602C43.8093 12.896 43.7701 13.1215 43.6982 13.3313L44.6443 13.6553C44.7514 13.3426 44.8093 13.0077 44.8093 12.6602H43.8093ZM53.985 23.5631L53.2704 25.5699L54.2124 25.9053L54.9271 23.8986L53.985 23.5631ZM56.3496 28.3185L54.9351 23.5876L53.977 23.8741L55.3915 28.605L56.3496 28.3185ZM53.3474 26.0455L55.4766 28.7697L56.2645 28.1538L54.1353 25.4297L53.3474 26.0455ZM52.2928 27.7447L42.9795 15.8289L42.1916 16.4447L51.505 28.3605L52.2928 27.7447ZM50.576 33.2577L52.3699 28.2203L51.4279 27.8849L49.634 32.9222L50.576 33.2577ZM37.718 36.4863L50.2184 33.5769L49.9917 32.603L37.4913 35.5124L37.718 36.4863ZM37.1335 36.2078C37.1575 36.2373 37.1809 36.2674 37.2036 36.298L38.0057 35.7007C37.9746 35.6589 37.9426 35.6178 37.9097 35.5773L37.1335 36.2078ZM42.1012 16.0127L37.0373 35.7684L38.0059 36.0167L43.0699 16.261L42.1012 16.0127ZM51.6862 32.9993L53.0693 29.1152L52.1273 28.7797L50.7441 32.6638L51.6862 32.9993ZM54.8407 31.4744L51.1018 32.3446L51.3285 33.3186L55.0673 32.4484L54.8407 31.4744ZM52.2044 29.2554L54.5601 32.2693L55.3479 31.6535L52.9923 28.6395L52.2044 29.2554ZM48.8446 35.8242L37.9872 38.3512L38.2138 39.3251L49.0713 36.7981L48.8446 35.8242ZM49.253 36.9729L49.4289 36.4789L48.4869 36.1434L48.311 36.6374L49.253 36.9729ZM47.9027 38.3461C47.9027 37.8055 48.3115 37.3598 48.8365 37.3022L48.7275 36.3081C47.701 36.4207 46.9027 37.2898 46.9027 38.3461H47.9027ZM48.564 39.3221C48.1757 39.1671 47.9027 38.7879 47.9027 38.3461H46.9027C46.9027 39.2109 47.438 39.9495 48.1935 40.2509L48.564 39.3221ZM48.728 50.0502L48.8787 39.7938L47.8788 39.7791L47.7282 50.0355L48.728 50.0502ZM48.5456 50.5528L48.6833 50.2497L47.7729 49.8361L47.6352 50.1391L48.5456 50.5528ZM47.715 51.2215C47.8722 51.0432 48.0678 50.9002 48.2882 50.8052L47.8926 49.8868C47.5345 50.041 47.2184 50.2726 46.9649 50.5602L47.715 51.2215ZM46.9659 51.5209L47.4801 51.3708L47.1998 50.4109L46.6857 50.561L46.9659 51.5209ZM37.7733 49.5993L46.7204 51.5297L46.9313 50.5522L37.9842 48.6218L37.7733 49.5993ZM36.2273 48.0879C36.8344 48.0879 37.3327 48.556 37.3803 49.1505L38.3771 49.0707C38.2882 47.9607 37.3599 47.0879 36.2273 47.0879V48.0879ZM35.0794 49.1007C35.1499 48.53 35.6374 48.0879 36.2273 48.0879V47.0879C35.1263 47.0879 34.2186 47.9126 34.087 48.9781L35.0794 49.1007ZM32.8805 49.9714L34.7022 49.5251L34.4642 48.5538L32.6425 49.0001L32.8805 49.9714ZM34.9999 40.9293L32.2857 49.3321L33.2373 49.6394L35.9515 41.2366L34.9999 40.9293ZM37.6219 38.6935C37.321 39.6893 36.46 40.4425 35.4074 40.5877L35.544 41.5783C36.9894 41.3789 38.1668 40.3471 38.5791 38.9828L37.6219 38.6935ZM54.6641 34.6703L48.7641 47.6546L49.6746 48.0682L55.5745 35.0839L54.6641 34.6703ZM50.1814 36.5397L55.2326 35.3641L55.0059 34.3901L49.9547 35.5658L50.1814 36.5397ZM50.2003 37.1717L50.539 36.2205L49.597 35.885L49.2583 36.8362L50.2003 37.1717ZM51.0031 38.3461C51.0031 37.5873 50.5906 36.9254 49.9801 36.5714L49.4785 37.4365C49.7932 37.619 50.0031 37.9583 50.0031 38.3461H51.0031ZM49.4606 40.3328C50.347 40.1068 51.0031 39.3037 51.0031 38.3461H50.0031C50.0031 38.8355 49.6678 39.248 49.2135 39.3638L49.4606 40.3328ZM49.7193 47.8687L49.837 39.8556L48.8371 39.8409L48.7194 47.8541L49.7193 47.8687ZM56.1117 21.7748C56.1117 22.0675 56.0036 22.3338 55.8244 22.5377L56.5757 23.1977C56.909 22.8183 57.1117 22.3196 57.1117 21.7748H56.1117ZM54.9549 20.618C55.5938 20.618 56.1117 21.1359 56.1117 21.7748H57.1117C57.1117 20.5837 56.1461 19.618 54.9549 19.618V20.618ZM54.9204 20.6185C54.9319 20.6182 54.9434 20.618 54.9549 20.618V19.618C54.9337 19.618 54.9125 19.6183 54.8914 19.619L54.9204 20.6185ZM43.7722 7.26779L54.5186 20.4349L55.2933 19.8026L44.5469 6.63549L43.7722 7.26779ZM42.5037 5.84981C43.1296 5.84981 43.6396 6.34712 43.6598 6.96791L44.6593 6.93536C44.6216 5.77701 43.671 4.84981 42.5037 4.84981V5.84981ZM41.7526 6.12685C41.9549 5.95382 42.2165 5.84981 42.5037 5.84981V4.84981C41.9694 4.84981 41.4793 5.04477 41.1027 5.36681L41.7526 6.12685ZM24.7621 5.67418L41.4104 6.24654L41.4448 5.24713L24.7965 4.67477L24.7621 5.67418ZM22.8853 4.5C23.5182 4.5 24.0669 4.8643 24.3315 5.39692L25.2271 4.95203C24.8001 4.09249 23.9124 3.5 22.8853 3.5V4.5ZM21.2719 6.1135C21.2719 5.22238 21.9942 4.5 22.8853 4.5V3.5C21.4419 3.5 20.2719 4.67012 20.2719 6.1135H21.2719ZM21.4656 6.8809C21.3422 6.65318 21.2719 6.3923 21.2719 6.1135H20.2719C20.2719 6.56281 20.3857 6.98704 20.5864 7.35742L21.4656 6.8809ZM16.0852 13.6122L21.4046 7.44575L20.6474 6.79257L15.328 12.9591L16.0852 13.6122ZM15.2421 13.7438C15.3704 13.7438 15.4956 13.7554 15.6168 13.7775L15.7964 12.7938C15.6162 12.7609 15.4309 12.7438 15.2421 12.7438V13.7438ZM13.1724 15.7691C13.1961 14.6466 14.1137 13.7438 15.2421 13.7438V12.7438C13.5685 12.7438 12.2079 14.0827 12.1726 15.7479L13.1724 15.7691ZM8.16286 19.326L12.9474 16.1761L12.3975 15.3409L7.61298 18.4908L8.16286 19.326ZM6.89138 19.1592C7.16735 19.1592 7.42576 19.228 7.65182 19.3491L8.12401 18.4676C7.75629 18.2707 7.33611 18.1592 6.89138 18.1592V19.1592ZM5.27791 20.7727C5.27791 19.8815 6.00028 19.1592 6.89138 19.1592V18.1592C5.44798 18.1592 4.27791 19.3293 4.27791 20.7727H5.27791ZM5.82232 21.9812C5.48767 21.6848 5.27791 21.2536 5.27791 20.7727H4.27791C4.27791 21.5518 4.61947 22.2518 5.15938 22.7298L5.82232 21.9812ZM5.13784 38.4595L5.99015 22.382L4.99155 22.329L4.13924 38.4066L5.13784 38.4595ZM4.5 39.7401C4.5 39.3695 4.67368 39.0398 4.94609 38.8273L4.33099 38.0388C3.82613 38.4327 3.5 39.0484 3.5 39.7401H4.5ZM5.59467 40.8952C4.9849 40.8632 4.5 40.3581 4.5 39.7401H3.5C3.5 40.8928 4.40411 41.8341 5.54226 41.8938L5.59467 40.8952ZM17.7344 53.161L5.92653 41.0455L5.2104 41.7435L17.0183 53.8589L17.7344 53.161ZM19.0186 54.4468C18.4322 54.4468 17.947 54.01 17.872 53.4442L16.8807 53.5757C17.0207 54.632 17.9241 55.4468 19.0186 55.4468V54.4468ZM19.4804 54.3511C19.3396 54.4125 19.1838 54.4468 19.0186 54.4468V55.4468C19.3239 55.4468 19.6157 55.3831 19.8802 55.2677L19.4804 54.3511ZM25.9038 57.5884L19.9171 54.369L19.4435 55.2497L25.4302 58.4692L25.9038 57.5884ZM26.4896 58.1161L26.0095 57.6646L25.3244 58.393L25.8044 58.8445L26.4896 58.1161ZM28.2522 59.906C27.4097 59.906 26.7176 59.2599 26.6451 58.4364L25.6489 58.5241C25.7665 59.8593 26.8868 60.906 28.2522 60.906V59.906ZM29.8054 58.7318C29.6141 59.4098 28.9905 59.906 28.2522 59.906V60.906C29.4499 60.906 30.4582 60.1008 30.7678 59.0032L29.8054 58.7318ZM47.3545 53.3631L30.1465 58.3875L30.4267 59.3475L47.6347 54.3231L47.3545 53.3631ZM48.9258 53.9014C48.504 53.9014 48.1211 53.7403 47.8333 53.4753L47.1559 54.2109C47.6211 54.6392 48.2434 54.9014 48.9258 54.9014V53.9014ZM50.5393 52.2879C50.5393 53.179 49.8169 53.9014 48.9258 53.9014V54.9014C50.3692 54.9014 51.5393 53.7313 51.5393 52.2879H50.5393ZM50.362 51.5517C50.4752 51.7719 50.5393 52.0217 50.5393 52.2879H51.5393C51.5393 51.859 51.4356 51.4529 51.2515 51.0946L50.362 51.5517ZM57.835 34.647L50.3515 51.1163L51.262 51.53L58.7455 35.0607L57.835 34.647ZM59.4997 32.7789C59.4997 33.564 58.9385 34.2191 58.1952 34.363L58.3853 35.3447C59.5899 35.1115 60.4997 34.052 60.4997 32.7789H59.4997ZM58.4044 31.2503C59.042 31.4664 59.4997 32.0698 59.4997 32.7789H60.4997C60.4997 31.6283 59.7565 30.6526 58.7253 30.3032L58.4044 31.2503ZM55.721 23.011L58.0858 30.92L59.0439 30.6335L56.6791 22.7245L55.721 23.011ZM6.8874 22.8013L6.06435 38.3269L7.06295 38.3799L7.886 22.8542L6.8874 22.8013ZM8.48141 21.0489C8.37219 21.6834 7.89055 22.1925 7.26995 22.3416L7.50345 23.3139C8.51014 23.0722 9.2895 22.2493 9.46691 21.2185L8.48141 21.0489ZM12.8924 20.1922L8.91857 20.6368L9.02976 21.6306L13.0036 21.186L12.8924 20.1922ZM9.94243 39.0489L13.4391 20.7831L12.4569 20.5951L8.96027 38.8608L9.94243 39.0489ZM8.84703 39.979C9.04017 39.726 9.30592 39.5322 9.61195 39.4284L9.29075 38.4814C8.79305 38.6502 8.36362 38.9642 8.05215 39.3722L8.84703 39.979ZM7.19537 39.9456L8.35602 40.1668L8.54316 39.1844L7.38252 38.9633L7.19537 39.9456ZM6.28958 38.7716C6.553 38.9442 6.74078 39.2204 6.79633 39.5401L7.78157 39.3689C7.67727 38.7687 7.32584 38.2551 6.83772 37.9352L6.28958 38.7716ZM9.61759 20.5997L13.1924 20.1998L13.0812 19.206L9.5064 19.6059L9.61759 20.5997ZM13.1072 17.1702L9.28705 19.6852L9.83693 20.5204L13.6571 18.0055L13.1072 17.1702ZM13.8524 17.3485C13.815 17.3146 13.7788 17.2793 13.7439 17.2427L13.0203 17.933C13.0719 17.9871 13.1254 18.0392 13.1808 18.0894L13.8524 17.3485ZM13.6279 19.7969L14.0077 17.813L13.0255 17.625L12.6457 19.6088L13.6279 19.7969ZM15.6475 18.9188L15.077 18.9827L15.1882 19.9765L15.7587 19.9126L15.6475 18.9188ZM14.8696 19.2277L15.3285 19.7469L16.0777 19.0846L15.6188 18.5654L14.8696 19.2277ZM15.6237 19.5736L15.7353 18.9906L14.7531 18.8025L14.6415 19.3856L15.6237 19.5736ZM26.7384 18.643L21.0833 19.2757L21.1945 20.2695L26.8496 19.6368L26.7384 18.643ZM28.1891 19.4026C27.7806 19.4026 27.4213 19.1913 27.2147 18.8697L26.3733 19.4101C26.756 20.006 27.4261 20.4026 28.1891 20.4026V19.4026ZM29.3458 18.2459C29.3458 18.8847 28.8279 19.4026 28.1891 19.4026V20.4026C29.3802 20.4026 30.3458 19.437 30.3458 18.2459H29.3458ZM29.3317 18.0639C29.341 18.1229 29.3458 18.1837 29.3458 18.2459H30.3458C30.3458 18.1314 30.3369 18.0186 30.3195 17.9083L29.3317 18.0639ZM37.0741 14.7571L29.6513 17.5174L29.9998 18.4547L37.4227 15.6944L37.0741 14.7571ZM38.8503 14.5357L37.1905 14.7291L37.3063 15.7224L38.9661 15.529L38.8503 14.5357ZM34.4562 34.4147L39.3926 15.1565L38.4239 14.9082L33.4875 34.1664L34.4562 34.4147ZM20.7643 20.1038L33.5972 34.6217L34.3465 33.9594L21.5135 19.4415L20.7643 20.1038ZM18.8307 51.1414C18.5944 51.1619 18.3685 51.2205 18.1597 51.3113L18.5582 52.2284C18.6695 52.1801 18.7901 52.1487 18.917 52.1377L18.8307 51.1414ZM10.8291 44.7596L18.5313 52.0038L19.2164 51.2753L11.5142 44.0312L10.8291 44.7596ZM18.717 51.4209L11.5298 44.0464L10.8136 44.7444L18.0009 52.1188L18.717 51.4209ZM37.5711 50.5369L44.7879 52.0939L44.9988 51.1164L37.782 49.5594L37.5711 50.5369ZM36.2273 51.4014C37.0396 51.4014 37.7463 50.9522 38.1136 50.291L37.2395 49.8053C37.0414 50.1619 36.662 50.4014 36.2273 50.4014V51.4014ZM34.299 50.2114C34.6528 50.9161 35.3829 51.4014 36.2273 51.4014V50.4014C35.7755 50.4014 35.3833 50.1425 35.1927 49.7627L34.299 50.2114ZM32.5342 51.0437L34.8648 50.4727L34.6268 49.5014L32.2962 50.0724L32.5342 51.0437ZM31.2182 55.8907L32.891 50.7117L31.9394 50.4044L30.2666 55.5833L31.2182 55.8907ZM44.7532 51.1252L30.6022 55.257L30.8825 56.217L45.0335 52.0851L44.7532 51.1252ZM29.9538 50.4439L33.2269 40.3105L32.2754 40.0031L29.0022 50.1365L29.9538 50.4439ZM23.3779 52.2996L29.597 50.7759L29.359 49.8046L23.1399 51.3283L23.3779 52.2996ZM12.3833 42.2714L22.9163 52.1781L23.6015 51.4497L13.0684 41.543L12.3833 42.2714ZM32.3866 39.2922L12.6725 41.41L12.7793 42.4043L32.4934 40.2864L32.3866 39.2922ZM33.1075 39.8061C33.0124 39.7094 32.9245 39.6056 32.8447 39.4957L32.0353 40.083C32.1445 40.2335 32.2647 40.3754 32.3948 40.5075L33.1075 39.8061ZM29.0127 50.8769L23.9728 52.1117L24.2108 53.083L29.2506 51.8482L29.0127 50.8769ZM28.1272 56.099L29.6075 51.5162L28.6559 51.2089L27.1756 55.7916L28.1272 56.099ZM23.7493 52.9615L27.3089 56.3095L27.994 55.5811L24.4344 52.2331L23.7493 52.9615Z" fill="url(#paint1_linear_449_713)"/>
<defs>
<linearGradient id="paint0_linear_449_713" x1="31.9999" y1="60.406" x2="31.9999" y2="4" gradientUnits="userSpaceOnUse">
<stop stop-color="#A93AFF"/>
<stop offset="1" stop-color="#FF81FF"/>
</linearGradient>
<linearGradient id="paint1_linear_449_713" x1="31.9999" y1="60.406" x2="31.9999" y2="4" gradientUnits="userSpaceOnUse">
<stop stop-color="#A93AFF"/>
<stop offset="1" stop-color="#FF81FF"/>
</linearGradient>
</defs>
</svg>
