<svg width="64" height="64" viewBox="0 0 64 64" fill="none" xmlns="http://www.w3.org/2000/svg">
<path d="M53.9583 15.9832H48.0167C47.7313 15.9832 47.5 15.7518 47.5 15.4665C47.5 13.4224 45.8669 9.47985 42.9602 6.57304C40.0534 3.66624 36.1108 2.0332 32 2.0332C27.8892 2.0332 23.9466 3.66624 21.0398 6.57304C18.1331 9.47985 16.5 13.4224 16.5 15.4665C16.5 15.7518 16.2687 15.9832 15.9833 15.9832H10.0417C7.6526 16.012 5.36955 16.9739 3.68012 18.6633C1.99069 20.3528 1.02882 22.6358 1 25.0249V47.7582C1.03304 51.5162 2.5406 55.111 5.19804 57.7685C7.85554 60.4259 11.4503 61.9336 15.2083 61.9665H48.7917C52.5497 61.9336 56.1445 60.4259 58.802 57.7685C61.4594 55.111 62.967 51.5162 63 47.7582V25.0249C62.9712 22.6358 62.0093 20.3528 60.3199 18.6633C58.6304 16.9739 56.3474 16.012 53.9583 15.9832ZM24.25 15.4665C24.25 14.4445 25.0665 13.5065 26.5199 12.0531C27.9733 10.5997 29.9446 9.7832 32 9.7832C34.0554 9.7832 36.0267 10.5997 37.48 12.0531C38.9335 13.5065 39.75 14.4445 39.75 15.4665C39.75 15.7518 39.5187 15.9832 39.2333 15.9832H24.7667C24.4813 15.9832 24.25 15.7518 24.25 15.4665ZM56.25 48.7582C56.2583 49.6086 56.0969 50.4521 55.7753 51.2394C55.4536 52.0267 54.9783 52.7421 54.3769 53.3434C53.7756 53.9448 53.0602 54.4201 52.2729 54.7418C51.4856 55.0634 50.6421 55.2248 49.7917 55.2165H14.2083C13.3579 55.2248 12.5144 55.0634 11.7271 54.7418C10.9398 54.4201 10.2244 53.9448 9.6231 53.3434C9.0217 52.7421 8.54639 52.0267 8.22474 51.2394C7.90312 50.4521 7.74169 49.6086 7.75 48.7582V24.0249C7.73948 23.8524 7.76561 23.6798 7.82672 23.5183C7.88795 23.3568 7.98272 23.2102 8.10484 23.088C8.22696 22.966 8.37362 22.8712 8.53523 22.81C8.69664 22.7488 8.86931 22.7226 9.0417 22.7332H14.3929C15.0043 22.7332 15.5 23.2289 15.5 23.8404V26.0915C15.5 27.1193 15.9082 28.1049 16.6349 28.8316C17.3617 29.5583 18.3472 29.9665 19.375 29.9665C20.4028 29.9665 21.3883 29.5583 22.1151 28.8316C22.8417 28.1049 23.25 27.1193 23.25 26.0915V23.8404C23.25 23.2289 23.7457 22.7332 24.3571 22.7332H39.6429C40.2543 22.7332 40.75 23.2289 40.75 23.8404V26.0915C40.75 27.1193 41.1582 28.1049 41.8849 28.8316C42.6117 29.5583 43.5972 29.9665 44.625 29.9665C45.6528 29.9665 46.6383 29.5583 47.3651 28.8316C48.0917 28.1049 48.5 27.1193 48.5 26.0915V23.8404C48.5 23.2289 48.9957 22.7332 49.6071 22.7332H54.9583C55.1307 22.7226 55.3034 22.7488 55.4648 22.81C55.6264 22.8712 55.773 22.966 55.8952 23.088C56.0173 23.2102 56.112 23.3568 56.1732 23.5183C56.2344 23.6798 56.2605 23.8524 56.25 24.0249V48.7582Z" fill="url(#paint0_linear_1013_865)"/>
<defs>
<linearGradient id="paint0_linear_1013_865" x1="32" y1="61.9665" x2="32" y2="-0.0334565" gradientUnits="userSpaceOnUse">
<stop stop-color="#9000FF"/>
<stop offset="1" stop-color="#FF00FF"/>
</linearGradient>
</defs>
</svg>
