<svg width="128" height="128" viewBox="0 0 128 128" fill="none" xmlns="http://www.w3.org/2000/svg">
<path d="M8.05767 18.3631C9.95612 14.1345 14.3932 12.2048 18.5666 12.2758C27.7499 12.2758 27.7499 12.2758 46.4346 11.8117C48.381 11.7318 50.1033 12.9907 51.401 14.489C53.8051 17.2915 56.1487 20.1558 58.5629 22.9486C60.0032 24.6148 62.112 25.5365 64.3145 25.5259C80.2956 25.4491 96.2825 25.469 112.262 25.5352C117.629 25.6061 121.9 31.0405 121.979 36.8208C122.002 58.3991 121.956 79.9684 121.995 101.547C122.09 105.767 120.857 110.351 117.783 113.062C116.147 114.498 113.783 115.709 112.216 116.059C78.8279 116.165 45.4253 116.149 12.0308 116.149C9.11502 116.572 5.86287 113.851 6.01506 110.465C6.02307 95.9792 5.95899 81.4932 6.0471 67.0072C6.03108 63.6738 6.01489 61.0923 6.01525 57.1046C6.01506 49.9326 14.6821 49.8883 19.2479 49.9238C42.1972 49.9238 65.1545 49.9149 88.1038 49.9326C91.3719 49.4982 94.5359 53.7536 92.8778 57.1046C92.1249 59.1969 90.0663 60.243 88.1357 60.243C65.1946 60.2962 46.3414 60.243 23.4 60.243C17.2588 60.243 15.4973 63.0256 15.4672 66.298C15.365 77.3831 15.5115 88.4747 15.4253 99.5617C15.4003 102.802 18.0099 105.457 21.2502 105.46C49.2534 105.483 78.5526 105.608 106.546 105.569C109.744 105.565 112.333 102.956 112.333 99.7589C112.318 79.1819 112.54 61.5885 112.412 41.5241C112.392 38.3518 109.818 35.7907 106.646 35.7835C90.8339 35.7478 75.0233 35.8132 59.219 35.7658C56.968 35.8632 55.1819 34.0902 53.7719 32.3615C51.7528 29.889 49.6831 27.4633 47.63 25.0199C46.1452 23.2528 43.9557 22.2095 41.6476 22.2352C36.749 22.2896 36.437 22.4626 29.1999 22.4257C28.6001 22.4583 24.2386 22.6471 20.9587 22.7881C18.8893 22.8769 17.2572 24.5793 17.1212 26.6463C16.9071 29.9008 16.3595 34.3239 14.96 35.6682C12.2925 38.2303 6.84813 36.2889 6.32746 32.4235C6.11117 27.7072 6.03108 22.6718 8.05767 18.3631Z" fill="url(#paint0_linear_678_187)" stroke="url(#paint1_linear_678_187)" stroke-width="4"/>
<defs>
<linearGradient id="paint0_linear_678_187" x1="101.761" y1="58.1622" x2="58.0073" y2="114.661" gradientUnits="userSpaceOnUse">
<stop stop-color="#FD2E00"/>
<stop offset="1" stop-color="#FF9900"/>
</linearGradient>
<linearGradient id="paint1_linear_678_187" x1="101.761" y1="58.1622" x2="58.0073" y2="114.661" gradientUnits="userSpaceOnUse">
<stop stop-color="#FD2E00"/>
<stop offset="1" stop-color="#FF9900"/>
</linearGradient>
</defs>
</svg>
