<svg width="128" height="128" viewBox="0 0 128 128" fill="none" xmlns="http://www.w3.org/2000/svg">
<path fill-rule="evenodd" clip-rule="evenodd" d="M48.927 56.5587C47.744 55.2228 45.275 54.6805 43.3777 55.4353C40.9317 56.2854 40.2688 58.927 41.989 60.4581C44.6929 63.2281 47.4121 65.9904 50.1312 68.7528C51.4868 70.1299 52.8424 71.507 54.1961 72.885C54.8706 73.4619 55.1563 74.3772 54.3847 74.9887C51.847 77.6197 49.273 80.2317 46.6984 82.8443C45.2574 84.3066 43.8162 85.769 42.3811 87.2351C42.2379 87.3813 42.0807 87.5131 41.9281 87.6493C39.6359 89.6956 41.8783 93.278 45.5037 93.0848C46.9953 93.0588 48.2697 92.3128 49.1041 91.4279C50.5405 89.9654 51.9754 88.5025 53.4101 87.0398C56.856 83.5267 60.301 80.0147 63.763 76.5112C63.8884 76.3806 64.0153 76.2507 64.1422 76.1209C64.5277 75.7264 64.9133 75.3319 65.2546 74.9164C65.5511 74.5554 65.7946 74.0848 65.5873 73.6661C65.4399 73.3687 65.1751 73.0969 64.9172 72.8323C64.784 72.6956 64.6526 72.5608 64.5403 72.4253C62.5847 70.4393 60.6315 68.4514 58.6784 66.4636C55.4316 63.1591 52.1849 59.8547 48.927 56.5587ZM65.3204 84.1026C64.7548 84.1088 64.1789 84.1151 63.6585 84.4106C62.6793 84.9132 62.0118 86.1919 62.0029 87.5151C61.9272 89.408 63.3514 91.2506 64.8824 91.0607C69.3439 91.0764 73.8075 91.0729 78.2704 91.0694C80.0683 91.068 81.866 91.0666 83.6634 91.0664C83.8827 91.0664 84.1018 91.0939 84.3211 91.0922C85.8066 91.0811 87.1087 89.3429 86.9928 87.4592C86.9703 85.5496 85.5325 83.9583 84.0241 84.109C80.8717 84.0917 77.7181 84.0953 74.5645 84.099C71.632 84.1024 68.6995 84.1058 65.768 84.0923C65.6203 84.0994 65.4707 84.101 65.3204 84.1026Z" fill="url(#paint0_linear_1014_886)"/>
<path fill-rule="evenodd" clip-rule="evenodd" d="M107.532 16H21C12.1635 16 5 23.1634 5 32V96.4264C5 105.263 12.1634 112.426 21 112.426H107.532C116.369 112.426 123.532 105.263 123.532 96.4264V32C123.532 23.1634 116.369 16 107.532 16ZM17 32C17 29.7909 18.7909 28 21 28H107.532C109.742 28 111.532 29.7909 111.532 32V96.4264C111.532 98.6356 109.742 100.426 107.532 100.426H21C18.7909 100.426 17 98.6356 17 96.4264V32ZM25.9514 30.8755H36.0714C37.3416 30.8755 38.3714 31.9052 38.3714 33.1755V43.2955C38.3714 44.5657 37.3416 45.5955 36.0714 45.5955H25.9514C24.6811 45.5955 23.6514 44.5657 23.6514 43.2955V33.1755C23.6514 31.9052 24.6811 30.8755 25.9514 30.8755ZM47.9436 30.8755H58.0636C59.3338 30.8755 60.3636 31.9052 60.3636 33.1755V43.2955C60.3636 44.5657 59.3338 45.5955 58.0636 45.5955H47.9436C46.6733 45.5955 45.6436 44.5657 45.6436 43.2955V33.1755C45.6436 31.9052 46.6733 30.8755 47.9436 30.8755ZM80.0567 30.8755H69.9367C68.6665 30.8755 67.6367 31.9052 67.6367 33.1755V43.2955C67.6367 44.5657 68.6665 45.5955 69.9367 45.5955H80.0567C81.327 45.5955 82.3567 44.5657 82.3567 43.2955V33.1755C82.3567 31.9052 81.327 30.8755 80.0567 30.8755ZM91.9289 30.8755H102.049C103.319 30.8755 104.349 31.9052 104.349 33.1755V43.2955C104.349 44.5657 103.319 45.5955 102.049 45.5955H91.9289C90.6587 45.5955 89.6289 44.5657 89.6289 43.2955V33.1755C89.6289 31.9052 90.6587 30.8755 91.9289 30.8755Z" fill="url(#paint1_linear_1014_886)"/>
<defs>
<linearGradient id="paint0_linear_1014_886" x1="64" y1="55.0923" x2="64" y2="93.0923" gradientUnits="userSpaceOnUse">
<stop stop-color="#00FFE0"/>
<stop offset="1" stop-color="#078AA7"/>
</linearGradient>
<linearGradient id="paint1_linear_1014_886" x1="66.6333" y1="5.39036" x2="64.2661" y2="112.426" gradientUnits="userSpaceOnUse">
<stop stop-color="#00FFE0"/>
<stop offset="1" stop-color="#078AA7"/>
</linearGradient>
</defs>
</svg>
