<svg width="16" height="16" viewBox="0 0 16 16" fill="none" xmlns="http://www.w3.org/2000/svg">
<path d="M1 8C1 4.9359 1 3.40385 2.0248 2.4516C3.051 1.5 4.7002 1.5 8 1.5C11.2998 1.5 12.9497 1.5 13.9745 2.4516C15 3.4045 15 4.9359 15 8C15 11.0641 15 12.5961 13.9745 13.5477C12.9504 14.5 11.2998 14.5 8 14.5C4.7002 14.5 3.0503 14.5 2.0248 13.5477C1 12.5968 1 11.0641 1 8Z" stroke="url(#paint0_linear_475_191)" stroke-width="1.6"/>
<path d="M4.13441 3.19299C4.22553 3.08371 4.35631 3.01509 4.49802 3.00221C4.63971 2.98932 4.78073 3.03324 4.89006 3.1243L5.08828 3.28888C5.5212 3.64953 5.88973 3.95651 6.14448 4.23917C6.41568 4.53971 6.62678 4.88392 6.62678 5.3254C6.62678 5.76693 6.41568 6.11186 6.14448 6.41166C5.88973 6.69431 5.5212 7.0013 5.08828 7.36196L4.89006 7.52654C4.8362 7.57365 4.77346 7.60952 4.70553 7.63207C4.6376 7.65456 4.56586 7.66325 4.49452 7.65765C4.42317 7.65201 4.35368 7.63221 4.29012 7.59929C4.22655 7.56641 4.17021 7.52118 4.12439 7.46619C4.07858 7.41121 4.04423 7.34763 4.02335 7.27917C4.00247 7.21076 3.99549 7.13879 4.00283 7.06763C4.01016 6.99642 4.03166 6.92743 4.06605 6.86467C4.10044 6.80192 4.14704 6.74669 4.2031 6.70218L4.37055 6.56266C4.84212 6.16912 5.15053 5.91147 5.34803 5.69254C5.53552 5.485 5.55341 5.38695 5.55341 5.3254C5.55341 5.2639 5.53552 5.16657 5.34803 4.95831C5.14982 4.73938 4.84212 4.48106 4.37055 4.08818L4.2031 3.94864C4.09383 3.85752 4.0252 3.72674 4.01232 3.58504C3.99944 3.44334 4.04335 3.30232 4.13441 3.19299ZM11 7.11436C11 7.25672 10.9435 7.3932 10.8428 7.49385C10.7422 7.59451 10.6056 7.65104 10.4633 7.65104H7.60954C7.46722 7.65104 7.3307 7.59451 7.23004 7.49385C7.12939 7.3932 7.07286 7.25672 7.07286 7.11436C7.07286 6.97204 7.12939 6.83552 7.23004 6.73486C7.3307 6.63425 7.46722 6.57768 7.60954 6.57768H10.4633C10.6056 6.57768 10.7422 6.63425 10.8428 6.73486C10.9435 6.83552 11 6.97204 11 7.11436Z" fill="url(#paint1_linear_475_191)"/>
<path d="M4.13441 8.19299C4.22553 8.08371 4.35631 8.01509 4.49802 8.00221C4.63971 7.98932 4.78073 8.03324 4.89006 8.1243L5.08828 8.28888C5.5212 8.64953 5.88973 8.95651 6.14448 9.23917C6.41568 9.53971 6.62678 9.88392 6.62678 10.3254C6.62678 10.7669 6.41568 11.1119 6.14448 11.4117C5.88973 11.6943 5.5212 12.0013 5.08828 12.362L4.89006 12.5265C4.8362 12.5737 4.77346 12.6095 4.70553 12.6321C4.6376 12.6546 4.56586 12.6633 4.49452 12.6577C4.42317 12.652 4.35368 12.6322 4.29012 12.5993C4.22655 12.5664 4.17021 12.5212 4.12439 12.4662C4.07858 12.4112 4.04423 12.3476 4.02335 12.2792C4.00247 12.2108 3.99549 12.1388 4.00283 12.0676C4.01016 11.9964 4.03166 11.9274 4.06605 11.8647C4.10044 11.8019 4.14704 11.7467 4.2031 11.7022L4.37055 11.5627C4.84212 11.1691 5.15053 10.9115 5.34803 10.6925C5.53552 10.485 5.55341 10.387 5.55341 10.3254C5.55341 10.2639 5.53552 10.1666 5.34803 9.95831C5.14982 9.73938 4.84212 9.48106 4.37055 9.08818L4.2031 8.94864C4.09383 8.85752 4.0252 8.72674 4.01232 8.58504C3.99944 8.44334 4.04335 8.30232 4.13441 8.19299ZM11 12.1144C11 12.2567 10.9435 12.3932 10.8428 12.4939C10.7422 12.5945 10.6056 12.651 10.4633 12.651H7.60954C7.46722 12.651 7.3307 12.5945 7.23004 12.4939C7.12939 12.3932 7.07286 12.2567 7.07286 12.1144C7.07286 11.972 7.12939 11.8355 7.23004 11.7349C7.3307 11.6343 7.46722 11.5777 7.60954 11.5777H10.4633C10.6056 11.5777 10.7422 11.6343 10.8428 11.7349C10.9435 11.8355 11 11.972 11 12.1144Z" fill="url(#paint2_linear_475_191)"/>
<defs>
<linearGradient id="paint0_linear_475_191" x1="1" y1="8" x2="15" y2="8" gradientUnits="userSpaceOnUse">
<stop stop-color="#2FFFFF"/>
<stop offset="0.27" stop-color="#2AE7FF"/>
<stop offset="0.82" stop-color="#1EAAFF"/>
<stop offset="1" stop-color="#1A95FF"/>
</linearGradient>
<linearGradient id="paint1_linear_475_191" x1="4" y1="5.32965" x2="11" y2="5.32965" gradientUnits="userSpaceOnUse">
<stop stop-color="#2FFFFF"/>
<stop offset="0.27" stop-color="#2AE7FF"/>
<stop offset="0.82" stop-color="#1EAAFF"/>
<stop offset="1" stop-color="#1A95FF"/>
</linearGradient>
<linearGradient id="paint2_linear_475_191" x1="4" y1="10.3297" x2="11" y2="10.3297" gradientUnits="userSpaceOnUse">
<stop stop-color="#2FFFFF"/>
<stop offset="0.27" stop-color="#2AE7FF"/>
<stop offset="0.82" stop-color="#1EAAFF"/>
<stop offset="1" stop-color="#1A95FF"/>
</linearGradient>
</defs>
</svg>
