<svg width="128" height="128" viewBox="0 0 128 128" fill="none" xmlns="http://www.w3.org/2000/svg">
<path d="M63.9458 26.8582C63.1689 25.5635 61.2926 25.5635 60.5158 26.8582L52.0625 40.9469C51.6626 41.6135 52.1427 42.4614 52.92 42.4614H57.5385C58.0907 42.4614 58.5385 42.9092 58.5385 43.4614V80.9764C58.5385 83.8374 55.5651 85.8835 52.7496 85.3755C51.7791 85.2004 50.8199 85.0584 49.8837 84.923C46.6529 84.4614 43.7102 83.9999 42.152 83.1913C40.6012 82.3864 40.0769 81.995 40.0769 79.3845V73.2626C40.0769 71.8385 40.901 70.5766 41.8619 69.5255C43.0475 68.2286 43.7692 66.518 43.7692 64.6153C43.7692 62.6568 42.9912 60.7785 41.6063 59.3936C40.2214 58.0087 38.3431 57.2307 36.3846 57.2307C34.4261 57.2307 32.5478 58.0087 31.1629 59.3936C29.778 60.7785 29 62.6568 29 64.6153C29 66.5156 29.7219 68.2273 30.9076 69.5251C31.8682 70.5765 32.6923 71.8385 32.6923 73.2626V79.3845C32.6923 84.1587 35.4025 87.9248 38.6923 89.6528C41.9785 91.3845 45.5009 91.8461 48.7317 92.3076C51.9625 92.7691 54.9052 93.2307 56.4634 94.0393C58.0178 94.8442 58.5385 95.2356 58.5385 97.8461V97.8461C58.5385 98.2602 58.2764 98.6258 57.8958 98.789C53.9486 100.482 51.1538 104.363 51.1538 108.923C51.1538 111.861 52.3209 114.678 54.3982 116.756C56.4755 118.833 59.293 120 62.2308 120C65.1686 120 67.986 118.833 70.0633 116.756C72.1407 114.678 73.3077 111.861 73.3077 108.923C73.3077 104.367 70.5138 100.483 66.5674 98.7898C66.1957 98.6303 65.9734 98.2475 65.9231 97.8461V97.8461V91.0374C65.9378 90.8528 65.9378 90.6497 65.9231 90.4614C65.9231 87.995 66.6283 87.275 68.6923 86.075C70.7563 84.8787 74.2308 83.8854 77.9231 82.9624C81.6154 82.0393 85.5255 81.1901 89 79.1519C92.4745 77.1211 95.4615 73.2257 95.4615 68.3076V62.7691C95.4615 61.7495 96.2881 60.923 97.3077 60.923C98.3273 60.923 99.1538 60.0964 99.1538 59.0768V48.1537C99.1538 47.0492 98.2584 46.1537 97.1538 46.1537H86.3846C85.28 46.1537 84.3846 47.0492 84.3846 48.1537V59.0768C84.3846 60.0964 85.2112 60.923 86.2308 60.923C87.2504 60.923 88.0769 61.7495 88.0769 62.7691V68.3076C88.0769 70.7741 87.3717 71.4941 85.3077 72.6941C83.2437 73.8904 79.7692 74.8836 76.0769 75.8067C74.7583 76.1342 73.4132 76.4611 72.0709 76.8379C69.1828 77.6486 65.9231 75.5735 65.9231 72.5738V43.4614C65.9231 42.9092 66.3708 42.4614 66.9231 42.4614H71.5415C72.3188 42.4614 72.7989 41.6135 72.399 40.9469L63.9458 26.8582Z" fill="url(#paint0_linear_1005_258)" stroke="url(#paint1_linear_1005_258)" stroke-width="2"/>
<path d="M41.25 109H24C20.6863 109 18 106.314 18 103V20C18 16.6863 20.6863 14 24 14H105C108.314 14 111 16.6863 111 20V103C111 106.314 108.314 109 105 109H87.75" stroke="url(#paint2_linear_1005_258)" stroke-width="12" stroke-linecap="round" stroke-linejoin="round"/>
<defs>
<linearGradient id="paint0_linear_1005_258" x1="72.3522" y1="88.3384" x2="18.0193" y2="63.0295" gradientUnits="userSpaceOnUse">
<stop stop-color="#2AD454"/>
<stop offset="1" stop-color="#B3FF5A"/>
</linearGradient>
<linearGradient id="paint1_linear_1005_258" x1="72.3522" y1="88.3384" x2="18.0193" y2="63.0295" gradientUnits="userSpaceOnUse">
<stop stop-color="#2AD454"/>
<stop offset="1" stop-color="#B3FF5A"/>
</linearGradient>
<linearGradient id="paint2_linear_1005_258" x1="75.4702" y1="77.04" x2="11.685" y2="38.0199" gradientUnits="userSpaceOnUse">
<stop stop-color="#2AD454"/>
<stop offset="1" stop-color="#B3FF5A"/>
</linearGradient>
</defs>
</svg>
