<svg width="128" height="128" viewBox="0 0 128 128" fill="none" xmlns="http://www.w3.org/2000/svg">
<path d="M63.9779 60.4215C73.5779 60.4215 81.0446 52.5993 81.0446 42.9993C81.0446 33.3992 73.2223 25.9326 63.6223 25.9326C54.0223 25.9326 46.5557 33.7548 46.5557 42.9993C46.5557 52.5993 54.3779 60.4215 63.9779 60.4215ZM63.6223 33.0437C63.9779 33.0437 63.9779 33.0437 63.6223 33.0437C69.3112 33.0437 73.9334 37.666 73.9334 43.3549C73.9334 49.0438 69.3112 53.3104 63.6223 53.3104C57.9334 53.3104 53.6668 48.6882 53.6668 43.3549C53.6668 37.666 58.289 33.0437 63.6223 33.0437Z" fill="url(#paint0_linear_1005_236)"/>
<path d="M63.6223 33.0437C63.9779 33.0437 63.9779 33.0437 63.6223 33.0437ZM63.6223 33.0437C69.3112 33.0437 73.9334 37.666 73.9334 43.3549C73.9334 49.0438 69.3112 53.3104 63.6223 53.3104C57.9334 53.3104 53.6668 48.6882 53.6668 43.3549C53.6668 37.666 58.289 33.0437 63.6223 33.0437ZM63.9779 60.4215C73.5779 60.4215 81.0446 52.5993 81.0446 42.9993C81.0446 33.3992 73.2223 25.9326 63.6223 25.9326C54.0223 25.9326 46.5557 33.7548 46.5557 42.9993C46.5557 52.5993 54.3779 60.4215 63.9779 60.4215Z" stroke="url(#paint1_linear_1005_236)" stroke-width="4"/>
<path d="M116.599 66.2882C109.844 60.2437 100.955 57.0437 91.71 57.3993H90.9289C89.7163 57.3993 88.64 58.3473 88.255 59.4973C87.5252 61.6778 89.4105 64.5104 91.71 64.5104C97.7764 64.1911 103.843 65.8788 108.88 69.0586C109.957 69.7388 110.555 70.952 110.555 72.2262V92.2437C110.555 94.2074 112.147 95.7993 114.11 95.7993C116.074 95.7993 117.666 94.2074 117.666 92.2437V68.8633C117.666 67.8974 117.282 66.9711 116.599 66.2882Z" fill="url(#paint2_linear_1005_236)" stroke="url(#paint3_linear_1005_236)" stroke-width="3"/>
<path d="M80.3746 25.2621C81.8901 26.4436 84.7263 26.2915 86.2647 25.1399C88.6072 23.3864 91.8377 22.8394 94.911 24.0214C99.1777 25.7992 101.311 30.777 99.5332 35.3992C98.111 38.599 94.911 40.7324 91.711 40.7324C90.6792 40.7324 89.4687 41.8616 89.5274 42.8918C89.5777 43.7757 89.5777 44.6134 89.5777 45.3546C89.5777 46.5328 90.4979 47.8241 91.6759 47.8432C91.6876 47.8434 91.6993 47.8435 91.711 47.8435C100.6 47.8435 107.711 40.7324 107.711 32.1992C107.711 23.3103 100.6 16.1992 92.0666 16.1992C87.1707 16.1992 82.8016 18.3059 79.8656 22.066C79.0601 23.0976 79.3424 24.4574 80.3746 25.2621Z" fill="url(#paint4_linear_1005_236)" stroke="url(#paint5_linear_1005_236)" stroke-width="3"/>
<path d="M36.9364 58.2545L36.946 58.2548H36.9556H37.805C38.7148 58.2548 39.5985 58.9946 39.9164 59.9516C40.2086 60.8315 39.9733 61.8441 39.379 62.6579C38.7872 63.4681 37.8945 64.0055 36.9681 64.0103C30.7945 63.6884 24.9225 65.4083 19.6182 68.6289C18.3297 69.4113 17.6111 70.8277 17.6111 72.3033V92.2437C17.6111 93.9312 16.2431 95.2992 14.5556 95.2992C12.868 95.2992 11.5 93.9313 11.5 92.2437V68.8633C11.5 68.0369 11.8256 67.2442 12.4057 66.6564C19.0659 61.0549 27.8265 57.904 36.9364 58.2545Z" fill="url(#paint6_linear_1005_236)" stroke="url(#paint7_linear_1005_236)"/>
<path d="M36.9556 64.5103C39.2052 64.5103 41.0999 61.9289 40.3909 59.794C40.0213 58.6813 38.9775 57.7548 37.805 57.7548H36.9556C27.7111 57.3992 18.8222 60.5992 12.0667 66.2881C11.3837 66.9711 11 67.8974 11 68.8633V92.2437C11 94.2074 12.5919 95.7992 14.5556 95.7992C16.5192 95.7992 18.1111 94.2073 18.1111 92.2437V72.3033C18.1111 70.9862 18.7518 69.7399 19.8777 69.0563C25.1122 65.878 30.8906 64.1911 36.9556 64.5103Z" stroke="url(#paint8_linear_1005_236)" stroke-width="3"/>
<path d="M36.9541 47.4879C36.9713 47.4879 36.9885 47.4879 37.0057 47.4879C38.3131 47.4875 39.0874 46.3065 39.0874 44.999C39.0874 44.1646 39.0874 43.3301 39.1242 42.5324C39.1701 41.5372 37.9503 40.3768 36.9541 40.3768C32.3318 40.3768 28.4206 36.4657 28.4206 31.8436C28.4206 27.2214 32.3318 23.3103 36.9541 23.3103C38.87 23.3103 40.6827 23.9297 42.1696 25.0017C43.9261 26.2681 46.869 26.6864 48.5121 25.2759C49.6208 24.3241 49.9066 22.7097 48.9558 21.6C43.9663 15.7767 35.5051 14.1671 28.7762 18.3325C21.3095 22.9547 18.8206 32.5547 23.4429 40.0213C26.2873 44.6435 31.2651 47.4879 36.9541 47.4879Z" fill="url(#paint9_linear_1005_236)" stroke="url(#paint10_linear_1005_236)" stroke-width="3"/>
<path d="M93.1466 80.6437C93.1378 79.9765 92.9362 79.326 92.566 78.7707C92.4701 78.6269 92.3637 78.4902 92.2466 78.3631C85.1477 70.6571 75.2679 66.1132 64.6887 66.4659C54.1077 66.1132 43.8766 70.6586 36.7718 78.3668C36.6569 78.4915 36.5526 78.6256 36.4585 78.7666C36.087 79.324 35.8887 79.9789 35.8887 80.6488V106.643C35.8887 109.843 38.3776 112.688 41.9331 112.688H87.4442C90.6442 112.688 93.4887 109.843 93.4887 106.643L93.1466 80.6437ZM86.022 101.577C86.022 103.786 84.2311 105.577 82.022 105.577H46.9998C44.7906 105.577 42.9998 103.786 42.9998 101.577V83.7672C42.9998 82.7063 43.4122 81.6782 44.206 80.9745C49.7687 76.0428 57.0746 73.577 64.6887 73.577C71.9728 73.2459 79.2568 75.9979 84.8183 80.9719C85.609 81.6791 86.022 82.7063 86.022 83.7672V101.577Z" fill="url(#paint11_linear_1005_236)" stroke="url(#paint12_linear_1005_236)" stroke-width="4"/>
<defs>
<linearGradient id="paint0_linear_1005_236" x1="63.8001" y1="60.4215" x2="63.8001" y2="25.9326" gradientUnits="userSpaceOnUse">
<stop stop-color="#A93AFF"/>
<stop offset="1" stop-color="#FF81FF"/>
</linearGradient>
<linearGradient id="paint1_linear_1005_236" x1="63.8001" y1="60.4215" x2="63.8001" y2="25.9326" gradientUnits="userSpaceOnUse">
<stop stop-color="#A93AFF"/>
<stop offset="1" stop-color="#FF81FF"/>
</linearGradient>
<linearGradient id="paint2_linear_1005_236" x1="102.881" y1="95.7993" x2="102.881" y2="57.3726" gradientUnits="userSpaceOnUse">
<stop stop-color="#A93AFF"/>
<stop offset="1" stop-color="#FF81FF"/>
</linearGradient>
<linearGradient id="paint3_linear_1005_236" x1="102.881" y1="95.7993" x2="102.881" y2="57.3726" gradientUnits="userSpaceOnUse">
<stop stop-color="#A93AFF"/>
<stop offset="1" stop-color="#FF81FF"/>
</linearGradient>
<linearGradient id="paint4_linear_1005_236" x1="93.5551" y1="47.8435" x2="93.5551" y2="16.1992" gradientUnits="userSpaceOnUse">
<stop stop-color="#A93AFF"/>
<stop offset="1" stop-color="#FF81FF"/>
</linearGradient>
<linearGradient id="paint5_linear_1005_236" x1="93.5551" y1="47.8435" x2="93.5551" y2="16.1992" gradientUnits="userSpaceOnUse">
<stop stop-color="#A93AFF"/>
<stop offset="1" stop-color="#FF81FF"/>
</linearGradient>
<linearGradient id="paint6_linear_1005_236" x1="25.771" y1="95.7992" x2="25.771" y2="57.728" gradientUnits="userSpaceOnUse">
<stop stop-color="#A93AFF"/>
<stop offset="1" stop-color="#FF81FF"/>
</linearGradient>
<linearGradient id="paint7_linear_1005_236" x1="25.771" y1="95.7992" x2="25.771" y2="57.728" gradientUnits="userSpaceOnUse">
<stop stop-color="#A93AFF"/>
<stop offset="1" stop-color="#FF81FF"/>
</linearGradient>
<linearGradient id="paint8_linear_1005_236" x1="25.771" y1="95.7992" x2="25.771" y2="57.728" gradientUnits="userSpaceOnUse">
<stop stop-color="#A93AFF"/>
<stop offset="1" stop-color="#FF81FF"/>
</linearGradient>
<linearGradient id="paint9_linear_1005_236" x1="35.3203" y1="47.4879" x2="35.3203" y2="16" gradientUnits="userSpaceOnUse">
<stop stop-color="#A93AFF"/>
<stop offset="1" stop-color="#FF81FF"/>
</linearGradient>
<linearGradient id="paint10_linear_1005_236" x1="35.3203" y1="47.4879" x2="35.3203" y2="16" gradientUnits="userSpaceOnUse">
<stop stop-color="#A93AFF"/>
<stop offset="1" stop-color="#FF81FF"/>
</linearGradient>
<linearGradient id="paint11_linear_1005_236" x1="64.6887" y1="112.688" x2="64.6887" y2="66.4468" gradientUnits="userSpaceOnUse">
<stop stop-color="#A93AFF"/>
<stop offset="1" stop-color="#FF81FF"/>
</linearGradient>
<linearGradient id="paint12_linear_1005_236" x1="64.6887" y1="112.688" x2="64.6887" y2="66.4468" gradientUnits="userSpaceOnUse">
<stop stop-color="#A93AFF"/>
<stop offset="1" stop-color="#FF81FF"/>
</linearGradient>
</defs>
</svg>
