<svg width="22" height="22" viewBox="0 0 22 22" fill="none" xmlns="http://www.w3.org/2000/svg">
<path d="M3.97768 2.0625L3.29939 3.29939L2.0625 3.97768L3.29939 4.65597L3.97768 5.89286L4.65597 4.65597L5.89286 3.97768L4.65597 3.29939L3.97768 2.0625ZM9.08483 2.0625L8.40654 3.29939L7.16966 3.97768L8.40654 4.65597L9.08483 5.89286L9.76312 4.65597L11 3.97768L9.76312 3.29939L9.08483 2.0625ZM16.5472 2.30557C16.413 2.17132 16.1953 2.17132 16.0611 2.30557L2.30557 16.0611C2.17132 16.1953 2.17132 16.413 2.30557 16.5472L5.45278 19.6944C5.58703 19.8287 5.80468 19.8287 5.93892 19.6944L19.6944 5.93892C19.8287 5.80468 19.8287 5.58703 19.6944 5.45278L16.5472 2.30557ZM16.0609 4.12131C16.1952 3.98693 16.413 3.98698 16.5473 4.1214L17.877 5.45293C18.011 5.58714 18.011 5.80456 17.877 5.93876L14.1158 9.70427C13.9816 9.83868 13.7639 9.83874 13.6296 9.70441L12.2979 8.37272C12.1636 8.23852 12.1636 8.02093 12.2978 7.88666L16.0609 4.12131ZM6.53125 5.89286L5.85296 7.12972L4.61607 7.80801L5.85296 8.48636L6.53125 9.72324L7.20954 8.48636L8.44642 7.80801L7.20954 7.12972L6.53125 5.89286Z" fill="url(#paint0_linear_451_3393)"/>
<defs>
<linearGradient id="paint0_linear_451_3393" x1="11" y1="19.9375" x2="11" y2="2.0625" gradientUnits="userSpaceOnUse">
<stop stop-color="#FFA800"/>
<stop offset="1" stop-color="#FFF737"/>
</linearGradient>
</defs>
</svg>
