<svg width="22" height="22" viewBox="0 0 22 22" fill="none" xmlns="http://www.w3.org/2000/svg">
<path d="M10.1839 21.0833C10.0776 21.0832 9.97214 21.0646 9.87222 21.0283C9.67954 20.9577 9.51609 20.8245 9.40802 20.6499C9.29994 20.4754 9.25365 20.2697 9.27639 20.0658L9.98222 13.5666H4.58309C4.41656 13.5669 4.25311 13.5218 4.11029 13.4361C3.96746 13.3504 3.85067 13.2275 3.77245 13.0805C3.69423 12.9334 3.65754 12.7679 3.66631 12.6016C3.67509 12.4353 3.729 12.2745 3.82226 12.1366L11.0547 1.31993C11.1691 1.15065 11.3368 1.02444 11.5311 0.961331C11.7254 0.898226 11.9353 0.901837 12.1272 0.971597C12.3118 1.04013 12.4695 1.16628 12.5768 1.33138C12.6841 1.49647 12.7354 1.69174 12.7231 1.88826L12.0172 8.43326H17.4164C17.5829 8.43301 17.7464 8.47812 17.8892 8.56377C18.032 8.64941 18.1488 8.77235 18.2271 8.91936C18.3053 9.06638 18.3419 9.23195 18.3332 9.39823C18.3244 9.56451 18.2705 9.7253 18.1772 9.86325L10.9447 20.6799C10.8607 20.8043 10.7474 20.9062 10.6146 20.9765C10.482 21.0469 10.334 21.0835 10.1839 21.0833ZM6.29726 11.7333H10.9997C11.1277 11.7335 11.2541 11.7607 11.371 11.8127C11.4878 11.8648 11.5923 11.9408 11.6781 12.0358C11.7646 12.132 11.8298 12.2455 11.8693 12.3687C11.9088 12.492 11.9217 12.6221 11.9072 12.7508L11.4947 16.5549L15.7022 10.2666H10.9997C10.8704 10.2674 10.7423 10.2407 10.624 10.1886C10.5056 10.1363 10.3998 10.0596 10.3131 9.96354C10.2266 9.86738 10.1613 9.75408 10.1216 9.63088C10.082 9.50777 10.0688 9.3777 10.0831 9.24909L10.4956 5.44493L6.29726 11.7333Z" fill="url(#paint0_linear_451_3377)"/>
<defs>
<linearGradient id="paint0_linear_451_3377" x1="10.9997" y1="21.0833" x2="10.9997" y2="0.916504" gradientUnits="userSpaceOnUse">
<stop stop-color="#FDA700"/>
<stop offset="1" stop-color="#FFDE00"/>
</linearGradient>
</defs>
</svg>
