<svg width="22" height="22" viewBox="0 0 22 22" fill="none" xmlns="http://www.w3.org/2000/svg">
<path d="M1.03368 6.22517C1.03323 6.22563 1.03323 6.22637 1.03368 6.22682L5.4653 10.7615C5.59585 10.8951 5.59584 11.1085 5.46523 11.242L1.26769 15.535C1.13713 15.6685 1.13705 15.8818 1.26752 16.0154L2.50193 17.2796C2.63673 17.4178 2.85876 17.4178 2.99367 17.2798L8.89891 11.2404C9.02954 11.1068 9.02954 10.8934 8.89893 10.7598L2.99447 4.72046C2.85957 4.58247 2.63754 4.58254 2.50272 4.72061L1.03368 6.22517ZM9.30457 17.0702C9.30457 17.26 9.45847 17.414 9.64832 17.414H20.625C20.8149 17.414 20.9688 17.26 20.9688 17.0702V15.2759C20.9688 15.086 20.8149 14.9321 20.625 14.9321H9.64832C9.45847 14.9321 9.30457 15.086 9.30457 15.2759V17.0702ZM12.8111 11.8998C12.8111 12.0896 12.965 12.2435 13.1548 12.2435H20.6243C20.8141 12.2435 20.9681 12.0896 20.9681 11.8998V10.1055C20.9681 9.91562 20.8141 9.7617 20.6243 9.7617H13.1548C12.965 9.7617 12.8111 9.91562 12.8111 10.1055V11.8998ZM9.64832 4.59131C9.45847 4.59131 9.30457 4.74522 9.30457 4.93506V6.72937C9.30457 6.9192 9.45847 7.07312 9.64832 7.07312H20.625C20.8149 7.07312 20.9688 6.9192 20.9688 6.72937V4.93506C20.9688 4.74522 20.8149 4.59131 20.625 4.59131H9.64832Z" fill="url(#paint0_linear_451_3331)"/>
<defs>
<linearGradient id="paint0_linear_451_3331" x1="20.9687" y1="11.1147" x2="6.21687" y2="13.6312" gradientUnits="userSpaceOnUse">
<stop stop-color="#BE41B4"/>
<stop offset="1" stop-color="#FE1FE8"/>
</linearGradient>
</defs>
</svg>
