<svg width="22" height="22" viewBox="0 0 22 22" fill="none" xmlns="http://www.w3.org/2000/svg">
<path d="M8.52983 4.125C8.36605 4.125 8.20897 4.19007 8.09316 4.30588L1.73671 10.6623C1.25443 11.1446 1.25443 11.9265 1.73671 12.4088L8.09316 18.7653C8.20897 18.8811 8.36605 18.9461 8.52983 18.9461H19.3898H20.0075C20.3485 18.9461 20.625 18.6696 20.625 18.3286V4.74255C20.625 4.40149 20.3485 4.125 20.0075 4.125H19.3898H8.52983ZM10.31 8.26695C10.5511 8.02579 10.9421 8.02579 11.1833 8.26695L12.7922 9.87587C13.0334 10.117 13.4244 10.117 13.6656 9.87587L15.2745 8.26695C15.5156 8.02579 15.9067 8.02579 16.1477 8.26695L16.4975 8.61664C16.7387 8.85782 16.7387 9.24883 16.4975 9.49L14.8886 11.0989C14.6473 11.3401 14.6473 11.7311 14.8886 11.9722L16.4975 13.5812C16.7387 13.8223 16.7387 14.2134 16.4975 14.4544L16.1477 14.8041C15.9067 15.0454 15.5156 15.0454 15.2745 14.8041L13.6656 13.1953C13.4244 12.9541 13.0334 12.9541 12.7922 13.1953L11.1833 14.8041C10.9421 15.0454 10.5511 15.0454 10.31 14.8041L9.96027 14.4544C9.71911 14.2134 9.71911 13.8223 9.96027 13.5812L11.5692 11.9722C11.8103 11.7311 11.8103 11.3401 11.5692 11.0989L9.96027 9.49C9.71911 9.24883 9.71911 8.85782 9.96027 8.61664L10.31 8.26695Z" fill="url(#paint0_linear_451_3111)"/>
<defs>
<linearGradient id="paint0_linear_451_3111" x1="19.9748" y1="4.54862" x2="15.261" y2="19.9214" gradientUnits="userSpaceOnUse">
<stop stop-color="#FE0F7C"/>
<stop offset="1" stop-color="#DF0066"/>
</linearGradient>
</defs>
</svg>
