<svg width="22" height="22" viewBox="0 0 22 22" fill="none" xmlns="http://www.w3.org/2000/svg">
<path d="M10.999 1.38281C8.6598 1.38752 6.39861 2.23491 4.5996 3.7732C4.43614 3.91305 4.424 4.16178 4.57349 4.31669L5.48913 5.26626C5.62442 5.40667 5.8452 5.41932 5.99583 5.29511C7.41573 4.12405 9.17858 3.48077 10.9997 3.47572C13.1407 3.47572 15.1938 4.35769 16.7078 5.92746C18.14 7.41293 18.9787 9.39879 19.0648 11.4889C19.0729 11.6894 19.2381 11.8471 19.4383 11.8471H20.7102C20.9214 11.8471 21.0911 11.6718 21.0834 11.4602C20.9896 8.8256 19.9392 6.31884 18.135 4.44782C16.2426 2.48539 13.675 1.3829 10.999 1.38281Z" fill="url(#paint0_linear_451_2984)"/>
<path d="M2.26121 7.8367C2.07193 7.64025 1.74294 7.70625 1.64394 7.96037C1.20997 9.07396 0.964039 10.2576 0.91728 11.4587C0.909045 11.6704 1.07864 11.8466 1.29074 11.8466H2.56225C2.76228 11.8466 2.92685 11.6895 2.93563 11.4895C2.9693 10.723 3.10447 9.9645 3.33741 9.23603C3.37927 9.10488 3.34588 8.9617 3.25048 8.86259L2.26121 7.8367Z" fill="url(#paint1_linear_451_2984)"/>
<path d="M10.999 1.38281C8.6598 1.38752 6.39861 2.23491 4.5996 3.7732C4.43614 3.91305 4.424 4.16178 4.57349 4.31669L5.48913 5.26626C5.62442 5.40667 5.8452 5.41932 5.99583 5.29511C7.41573 4.12405 9.17858 3.48077 10.9997 3.47572C13.1407 3.47572 15.1938 4.35769 16.7078 5.92746C18.14 7.41293 18.9787 9.39879 19.0648 11.4889C19.0729 11.6894 19.2381 11.8471 19.4383 11.8471H20.7102C20.9214 11.8471 21.0911 11.6718 21.0834 11.4602C20.9896 8.8256 19.9392 6.31884 18.135 4.44782C16.2426 2.48539 13.675 1.3829 10.999 1.38281Z" fill="url(#paint2_linear_451_2984)"/>
<path d="M3.25048 8.86259C3.34588 8.9617 3.37927 9.10488 3.33741 9.23603C3.10447 9.9645 2.9693 10.723 2.93563 11.4895C2.92685 11.6895 2.76228 11.8466 2.56225 11.8466H1.29074C1.07864 11.8466 0.909045 11.6704 0.91728 11.4587C0.964039 10.2576 1.20997 9.07396 1.64394 7.96037C1.74294 7.70625 2.07193 7.64025 2.26121 7.8367L3.25048 8.86259Z" fill="url(#paint3_linear_451_2984)"/>
<path fill-rule="evenodd" clip-rule="evenodd" d="M13.2002 7.4786C12.7349 7.35848 12.2506 7.59233 12.0558 8.03247L13.2002 7.4786ZM12.0558 8.03247L8.54749 15.9403C8.22905 16.3172 8.00737 16.7641 7.90256 17.2442L7.90213 17.2461L7.90015 17.2555C7.89838 17.2636 7.89681 17.272 7.89543 17.2802L7.87596 17.3971C7.64226 18.817 8.45017 20.205 9.82716 20.5439C11.1937 20.8789 12.5625 20.0425 13.0544 18.7086L13.0731 18.6581C13.0865 18.6226 13.0953 18.5887 13.1011 18.5572L13.1354 18.4537C13.1402 18.439 13.1445 18.4241 13.1482 18.409L13.1512 18.396C13.2221 18.1025 13.2506 17.7993 13.2331 17.4993C13.229 17.4287 13.2247 17.3637 13.2206 17.303C13.2069 17.1029 13.1964 16.9479 13.2106 16.786L13.9343 8.5163C13.9759 8.03821 13.6658 7.59877 13.2002 7.4786M10.8998 16.4216C10.6198 16.3541 10.3354 16.4567 10.1996 16.7626C10.1455 16.884 10.0714 17.0007 9.9797 17.1029C9.8444 17.2537 9.75245 17.4311 9.70818 17.618L9.69507 17.6967C9.59974 18.2776 9.93066 18.6705 10.2674 18.7532C10.6007 18.8348 11.0777 18.6497 11.2994 18.1341L11.3664 17.9306C11.4046 17.7542 11.4025 17.5811 11.367 17.4261M10.8998 16.4216C11.1767 16.4883 11.3673 16.6993 11.3389 17.0231L10.8998 16.4216Z" fill="url(#paint4_linear_451_2984)"/>
<defs>
<linearGradient id="paint0_linear_451_2984" x1="20.5149" y1="11.0004" x2="3.87844" y2="4.69091" gradientUnits="userSpaceOnUse">
<stop stop-color="#FE7970"/>
<stop offset="1" stop-color="#DC3282"/>
</linearGradient>
<linearGradient id="paint1_linear_451_2984" x1="20.5152" y1="11" x2="3.87876" y2="4.69042" gradientUnits="userSpaceOnUse">
<stop stop-color="#FE7970"/>
<stop offset="1" stop-color="#DC3282"/>
</linearGradient>
<linearGradient id="paint2_linear_451_2984" x1="20.5149" y1="11.0004" x2="3.87844" y2="4.69091" gradientUnits="userSpaceOnUse">
<stop stop-color="#FE7970"/>
<stop offset="1" stop-color="#DC3282"/>
</linearGradient>
<linearGradient id="paint3_linear_451_2984" x1="20.5152" y1="11" x2="3.87876" y2="4.69042" gradientUnits="userSpaceOnUse">
<stop stop-color="#FE7970"/>
<stop offset="1" stop-color="#DC3282"/>
</linearGradient>
<linearGradient id="paint4_linear_451_2984" x1="20.515" y1="11.0003" x2="3.87861" y2="4.69081" gradientUnits="userSpaceOnUse">
<stop stop-color="#FE7970"/>
<stop offset="1" stop-color="#DC3282"/>
</linearGradient>
</defs>
</svg>
