<svg width="16" height="16" viewBox="0 0 16 16" fill="none" xmlns="http://www.w3.org/2000/svg">
<path d="M15 5.20834V11.625C14.9991 12.4756 14.6608 13.2912 14.0593 13.8927C13.4578 14.4941 12.6423 14.8324 11.7916 14.8334H4.20835C3.35772 14.8324 2.5422 14.4941 1.94072 13.8927C1.33924 13.2912 1.00093 12.4756 1 11.625V5.20834C1.00093 4.35772 1.33924 3.5422 1.94072 2.94072C2.5422 2.33925 3.35772 2.00093 4.20835 2H11.7916C12.6423 2.00093 13.4578 2.33925 14.0593 2.94072C14.6608 3.5422 14.9991 4.35772 15 5.20834Z" stroke="url(#paint0_linear_169_302)" stroke-width="1.5"/>
<path d="M11.5019 5.55558C11.392 5.39111 11.3333 5.19779 11.3333 4.99999C11.3333 4.73478 11.4387 4.48044 11.6262 4.2929C11.8138 4.10537 12.0681 4 12.3333 4C12.5311 4 12.7244 4.05864 12.8889 4.16855C13.0533 4.27842 13.1815 4.43459 13.2572 4.61732C13.3329 4.80005 13.3527 5.00113 13.3141 5.19508C13.2755 5.38907 13.1803 5.56725 13.0404 5.70711C12.9006 5.84697 12.7224 5.9422 12.5284 5.98079C12.3345 6.01939 12.1334 5.99958 11.9507 5.92388C11.7679 5.84819 11.6118 5.72002 11.5019 5.55558Z" fill="url(#paint1_linear_169_302)"/>
<path d="M8.16852 5.55558C8.05865 5.39111 8 5.19779 8 4.99999C8 4.73478 8.10535 4.48044 8.29288 4.2929C8.48044 4.10537 8.73479 4 9 4C9.19779 4 9.39112 4.05864 9.55556 4.16855C9.72003 4.27842 9.84819 4.43459 9.92389 4.61732C9.99956 4.80005 10.0194 5.00113 9.98077 5.19508C9.94221 5.38907 9.84695 5.56725 9.70712 5.70711C9.56725 5.84697 9.38908 5.9422 9.19509 5.98079C9.0011 6.01939 8.80006 5.99958 8.61732 5.92388C8.43459 5.84819 8.2784 5.72002 8.16852 5.55558Z" fill="url(#paint2_linear_169_302)"/>
<path d="M3.87909 7.93061C3.69156 8.11817 3.58618 8.37251 3.58618 8.63773C3.58618 8.90294 3.69156 9.15729 3.87909 9.34485C4.06662 9.53238 4.32097 9.63773 4.58618 9.63773H11.9195C12.1847 9.63773 12.4391 9.53238 12.6266 9.34485C12.8141 9.15729 12.9195 8.90294 12.9195 8.63773C12.9195 8.37251 12.8141 8.11817 12.6266 7.93061C12.4391 7.74308 12.1847 7.63773 11.9195 7.63773H4.58618C4.32097 7.63773 4.06662 7.74308 3.87909 7.93061Z" fill="url(#paint3_linear_169_302)"/>
<path d="M11.6667 13H7C6.73479 13 6.48044 12.8946 6.29291 12.7071C6.10538 12.5195 6 12.2652 6 12C6 11.7347 6.10538 11.4804 6.29291 11.2929C6.48044 11.1053 6.73479 11 7 11H11.6667C11.9319 11 12.1862 11.1053 12.3738 11.2929C12.5613 11.4804 12.6667 11.7347 12.6667 12C12.6667 12.2652 12.5613 12.5195 12.3738 12.7071C12.1862 12.8946 11.9319 13 11.6667 13Z" fill="url(#paint4_linear_169_302)"/>
<defs>
<linearGradient id="paint0_linear_169_302" x1="4.5" y1="13.9167" x2="12.8498" y2="3.28972" gradientUnits="userSpaceOnUse">
<stop stop-color="#A056FF"/>
<stop offset="1" stop-color="#C59AFD"/>
</linearGradient>
<linearGradient id="paint1_linear_169_302" x1="9.33334" y1="5.85716" x2="10.1137" y2="3.4294" gradientUnits="userSpaceOnUse">
<stop stop-color="#A056FF"/>
<stop offset="1" stop-color="#C59AFD"/>
</linearGradient>
<linearGradient id="paint2_linear_169_302" x1="9.33334" y1="5.85716" x2="10.1137" y2="3.4294" gradientUnits="userSpaceOnUse">
<stop stop-color="#A056FF"/>
<stop offset="1" stop-color="#C59AFD"/>
</linearGradient>
<linearGradient id="paint3_linear_169_302" x1="5.91951" y1="9.49484" x2="6.39544" y2="6.90368" gradientUnits="userSpaceOnUse">
<stop stop-color="#A056FF"/>
<stop offset="1" stop-color="#C59AFD"/>
</linearGradient>
<linearGradient id="paint4_linear_169_302" x1="7.66668" y1="12.8571" x2="8.31273" y2="10.3447" gradientUnits="userSpaceOnUse">
<stop stop-color="#A056FF"/>
<stop offset="1" stop-color="#C59AFD"/>
</linearGradient>
</defs>
</svg>
