<svg width="22" height="22" viewBox="0 0 22 22" fill="none" xmlns="http://www.w3.org/2000/svg">
<path d="M0.822876 5.97021C0.456215 5.7607 0 6.02544 0 6.44775V15.5522C0 15.9746 0.456215 16.2393 0.822877 16.0297L9.625 11L0.822876 5.97021ZM9.625 11V15.5522C9.625 15.9746 10.0812 16.2393 10.4479 16.0297L19.25 11L10.4479 5.97021C10.0812 5.7607 9.625 6.02544 9.625 6.44775V11ZM19.25 11V15.95C19.25 16.2537 19.4963 16.5 19.8 16.5H21.45C21.7537 16.5 22 16.2537 22 15.95V6.05C22 5.74625 21.7537 5.5 21.45 5.5H19.8C19.4963 5.5 19.25 5.74625 19.25 6.05V11Z" fill="url(#paint0_linear_451_2643)"/>
<path d="M0 15.5523V6.44778C0 6.02548 0.456215 5.76074 0.822876 5.97025L9.625 11V6.44778C9.625 6.02548 10.0812 5.76074 10.4479 5.97025L18.4143 10.5225C18.7839 10.7336 18.7839 11.2664 18.4143 11.4776L10.4479 16.0298C10.0812 16.2393 9.625 15.9747 9.625 15.5523V11L0.822877 16.0298C0.456215 16.2393 0 15.9747 0 15.5523Z" fill="url(#paint1_linear_451_2643)"/>
<defs>
<linearGradient id="paint0_linear_451_2643" x1="21.2568" y1="5.81441" x2="18.8661" y2="17.8204" gradientUnits="userSpaceOnUse">
<stop stop-color="#FE0F7C"/>
<stop offset="1" stop-color="#DF0066"/>
</linearGradient>
<linearGradient id="paint1_linear_451_2643" x1="1.375" y1="11" x2="16.6174" y2="8.05234" gradientUnits="userSpaceOnUse">
<stop stop-color="#8D01A2"/>
<stop offset="1" stop-color="#FF00D2"/>
</linearGradient>
</defs>
</svg>
