<svg width="22" height="22" viewBox="0 0 22 22" fill="none" xmlns="http://www.w3.org/2000/svg">
<path d="M4.125 2.75C3.36561 2.75 2.75 3.36561 2.75 4.125V17.875C2.75 18.6344 3.36561 19.25 4.125 19.25H6.875C7.63439 19.25 8.25 18.6344 8.25 17.875V4.125C8.25 3.36561 7.63439 2.75 6.875 2.75H4.125ZM15.125 2.75C14.3656 2.75 13.75 3.36561 13.75 4.125V17.875C13.75 18.6344 14.3656 19.25 15.125 19.25H17.875C18.6344 19.25 19.25 18.6344 19.25 17.875V4.125C19.25 3.36561 18.6344 2.75 17.875 2.75H15.125Z" fill="url(#paint0_linear_451_2704)"/>
<defs>
<linearGradient id="paint0_linear_451_2704" x1="11" y1="19.25" x2="11" y2="2.75" gradientUnits="userSpaceOnUse">
<stop stop-color="#02AA93"/>
<stop offset="1" stop-color="#67FF80"/>
</linearGradient>
</defs>
</svg>
