<svg width="22" height="22" viewBox="0 0 22 22" fill="none" xmlns="http://www.w3.org/2000/svg">
<path d="M19.5317 10.0767C18.9751 10.0767 18.588 10.4956 18.5089 10.9318C18.2793 12.1984 17.1126 13.1567 15.6982 13.1567H6.4413C6.36384 13.1567 6.30104 13.0977 6.30104 13.0247V12.2293C6.30104 11.4913 5.42712 11.0511 4.77467 11.4605L1.43816 13.5539C0.855248 13.9197 0.85525 14.7259 1.43816 15.0916L4.77467 17.1851C5.42712 17.5946 6.30104 17.1543 6.30104 16.4163V15.6208C6.30104 15.548 6.36384 15.4888 6.4413 15.4888H15.6982C18.4443 15.4888 20.6937 13.5521 20.9939 11.0442C21.0602 10.4898 20.574 10.0767 20.0461 10.0767H19.5317Z" fill="url(#paint0_linear_451_2678)"/>
<path d="M15.6985 5.32435V4.52891C15.6985 4.10718 16.198 3.85563 16.5708 4.08957L19.9073 6.18307C20.2404 6.39207 20.2404 6.85274 19.9073 7.06174L16.5708 9.15523C16.198 9.38915 15.6985 9.13762 15.6985 8.71589V7.92045C15.6985 7.62882 15.4473 7.39243 15.1375 7.39243H5.88077C4.25827 7.39243 2.91883 8.49259 2.65523 9.94679C2.60313 10.2343 2.35698 10.4725 2.04714 10.4725H1.53287C1.22303 10.4725 0.968496 10.2351 1.00317 9.94536C1.27949 7.63585 3.3507 5.85237 5.88077 5.85237H15.1375C15.4473 5.85237 15.6985 5.61597 15.6985 5.32435Z" fill="url(#paint1_linear_451_2678)" stroke="url(#paint2_linear_451_2678)" stroke-width="0.6"/>
<defs>
<linearGradient id="paint0_linear_451_2678" x1="4.65305" y1="11.2577" x2="7.26361" y2="19.1582" gradientUnits="userSpaceOnUse">
<stop stop-color="#8F0CFF"/>
<stop offset="0.516064" stop-color="#AA1DFF"/>
<stop offset="1" stop-color="#B826FF"/>
</linearGradient>
<linearGradient id="paint1_linear_451_2678" x1="4.65354" y1="4.32736" x2="7.26409" y2="12.2277" gradientUnits="userSpaceOnUse">
<stop stop-color="#8F0CFF"/>
<stop offset="0.516064" stop-color="#AA1DFF"/>
<stop offset="1" stop-color="#B826FF"/>
</linearGradient>
<linearGradient id="paint2_linear_451_2678" x1="4.65354" y1="4.32736" x2="7.26409" y2="12.2277" gradientUnits="userSpaceOnUse">
<stop stop-color="#8F0CFF"/>
<stop offset="0.516064" stop-color="#AA1DFF"/>
<stop offset="1" stop-color="#B826FF"/>
</linearGradient>
</defs>
</svg>
