<svg width="22" height="22" viewBox="0 0 22 22" fill="none" xmlns="http://www.w3.org/2000/svg">
<path d="M1.58252 3.33115C1.26081 3.33115 1 3.59196 1 3.91368V5.66125C1 5.98296 1.26081 6.24377 1.58252 6.24377H7.19338C7.41402 6.24377 7.61572 6.36843 7.7144 6.56577L8.48868 8.11434C8.70335 8.54369 9.31605 8.54369 9.53072 8.11434L10.3358 6.50429C10.4177 6.34028 10.4177 6.14726 10.3358 5.98325L9.17071 3.65316C9.07203 3.45581 8.87033 3.33115 8.64968 3.33115H1.58252ZM16.4951 12.768C16.1111 12.48 15.5631 12.754 15.5631 13.2341V14.5316C15.5631 14.7801 15.3615 14.9816 15.1131 14.9816C14.9426 14.9816 14.7867 14.8854 14.7106 14.7329L13.8996 13.1111C13.685 12.6817 13.0723 12.6817 12.8576 13.1111L12.0526 14.7211C11.9706 14.8851 11.9706 15.0782 12.0526 15.2422L13.2176 17.5723C13.3163 17.7696 13.518 17.8942 13.7386 17.8942H14.9806C15.3023 17.8942 15.5631 18.1551 15.5631 18.4768V19.6418C15.5631 20.1218 16.1111 20.3959 16.4951 20.1078L20.7669 16.9039C21.0777 16.6709 21.0777 16.2049 20.7669 15.9719L16.4951 12.768ZM16.4951 1.11756C16.1111 0.829548 15.5631 1.10355 15.5631 1.58358V2.74863C15.5631 3.07034 15.3023 3.33115 14.9806 3.33115H13.7386C13.518 3.33115 13.3163 3.45581 13.2176 3.65316L7.7144 14.6596C7.61572 14.857 7.41402 14.9816 7.19338 14.9816H1.58252C1.26081 14.9816 1 15.2424 1 15.5641V17.3117C1 17.6334 1.26081 17.8942 1.58252 17.8942H8.64968C8.87033 17.8942 9.07203 17.7696 9.17071 17.5723L14.7106 6.49254C14.7867 6.34008 14.9426 6.24377 15.1131 6.24377C15.3615 6.24377 15.5631 6.44525 15.5631 6.6938V7.99134C15.5631 8.47137 16.1111 8.74537 16.4951 8.45736L20.7669 5.25348C21.0777 5.02047 21.0777 4.55445 20.7669 4.32144L16.4951 1.11756Z" fill="url(#paint0_linear_451_2676)"/>
<defs>
<linearGradient id="paint0_linear_451_2676" x1="4.69538" y1="18.3999" x2="23.0808" y2="2.35828" gradientUnits="userSpaceOnUse">
<stop stop-color="#FE0844"/>
<stop offset="1" stop-color="#FEB302"/>
</linearGradient>
</defs>
</svg>
