<svg width="22" height="22" viewBox="0 0 22 22" fill="none" xmlns="http://www.w3.org/2000/svg">
<path d="M21.1771 5.97021C21.5438 5.7607 22 6.02544 22 6.44775V15.5522C22 15.9746 21.5438 16.2393 21.1771 16.0297L12.375 11L21.1771 5.97021ZM12.375 11V15.5522C12.375 15.9746 11.9188 16.2393 11.5521 16.0297L2.75 11L11.5521 5.97021C11.9188 5.7607 12.375 6.02544 12.375 6.44775V11ZM2.75 11V15.95C2.75 16.2537 2.50375 16.5 2.2 16.5H0.55C0.246243 16.5 0 16.2537 0 15.95V6.05C0 5.74625 0.246243 5.5 0.55 5.5H2.2C2.50375 5.5 2.75 5.74625 2.75 6.05V11Z" fill="url(#paint0_linear_451_2646)"/>
<path d="M22 15.5523V6.44778C22 6.02548 21.5438 5.76074 21.1771 5.97025L12.375 11V6.44778C12.375 6.02548 11.9188 5.76074 11.5522 5.97025L3.58572 10.5225C3.21622 10.7336 3.21622 11.2664 3.58572 11.4776L11.5522 16.0298C11.9188 16.2393 12.375 15.9747 12.375 15.5523V11L21.1771 16.0298C21.5438 16.2393 22 15.9747 22 15.5523Z" fill="url(#paint1_linear_451_2646)"/>
<defs>
<linearGradient id="paint0_linear_451_2646" x1="0.743244" y1="5.81441" x2="3.13396" y2="17.8204" gradientUnits="userSpaceOnUse">
<stop stop-color="#FE0F7C"/>
<stop offset="1" stop-color="#DF0066"/>
</linearGradient>
<linearGradient id="paint1_linear_451_2646" x1="20.625" y1="11" x2="5.38259" y2="8.05234" gradientUnits="userSpaceOnUse">
<stop stop-color="#8D01A2"/>
<stop offset="1" stop-color="#FF00D2"/>
</linearGradient>
</defs>
</svg>
