<svg width="16" height="16" viewBox="0 0 16 16" fill="none" xmlns="http://www.w3.org/2000/svg">
<path fill-rule="evenodd" clip-rule="evenodd" d="M4.5335 0.583496H4.50306C3.96891 0.583485 3.52306 0.583476 3.15883 0.613235C2.77894 0.644273 2.42229 0.711384 2.08502 0.883228C1.56758 1.14688 1.14688 1.56758 0.88323 2.08502C0.711386 2.42228 0.644274 2.77894 0.613237 3.15883C0.583478 3.52305 0.583486 3.96889 0.583496 4.50303V4.50306V4.5335L0.583496 11.4668V11.4973C0.583485 12.0314 0.583476 12.4773 0.613235 12.8415C0.644273 13.2214 0.711384 13.578 0.883228 13.9153C1.14688 14.4327 1.56758 14.8534 2.08502 15.1171C2.42228 15.2889 2.77894 15.3561 3.15883 15.3871C3.52306 15.4168 3.9689 15.4168 4.50305 15.4168H4.50309H4.5335L6.13346 15.4168H6.16386H6.16391C6.69806 15.4168 7.14391 15.4168 7.50814 15.3871C7.88803 15.3561 8.24469 15.2889 8.58196 15.1171C9.0994 14.8534 9.5201 14.4327 9.78375 13.9153C9.95559 13.578 10.0227 13.2214 10.0537 12.8415C10.0835 12.4772 10.0835 12.0314 10.0835 11.4973V11.4972V11.4668L10.0835 10.9999V10.9998L10.0835 10.6669C10.0835 10.2527 9.7478 9.91688 9.33358 9.91683C8.91937 9.91678 8.58354 10.2525 8.5835 10.6667L8.58346 10.9997V10.9998L8.58346 11.4668C8.58347 12.0392 8.58289 12.4235 8.55872 12.7193C8.53526 13.0065 8.49338 13.1437 8.44724 13.2343C8.32739 13.4695 8.13617 13.6607 7.90097 13.7806C7.8104 13.8267 7.67312 13.8686 7.38599 13.8921C7.09011 13.9162 6.70589 13.9168 6.13346 13.9168L4.5335 13.9168C3.96107 13.9168 3.57685 13.9162 3.28097 13.8921C2.99385 13.8686 2.85657 13.8267 2.76601 13.7806C2.5308 13.6607 2.33958 13.4695 2.21974 13.2343C2.17359 13.1438 2.13171 13.0065 2.10825 12.7194C2.08408 12.4235 2.0835 12.0393 2.0835 11.4668L2.0835 4.5335C2.0835 3.96107 2.08408 3.57685 2.10825 3.28097C2.13171 2.99385 2.1736 2.85657 2.21974 2.76601C2.33958 2.53081 2.53081 2.33958 2.76601 2.21974C2.85657 2.17359 2.99385 2.13171 3.28098 2.10825C3.57685 2.08408 3.96107 2.0835 4.5335 2.0835H6.1335C6.70592 2.0835 7.09014 2.08408 7.38602 2.10825C7.67314 2.13171 7.81042 2.17359 7.90098 2.21974C8.13619 2.33958 8.32741 2.53081 8.44725 2.76601C8.4934 2.85657 8.53528 2.99385 8.55874 3.28097C8.58291 3.57685 8.5835 3.96107 8.5835 4.53349V4.99984V5.3335C8.5835 5.74771 8.91928 6.0835 9.3335 6.0835C9.74771 6.0835 10.0835 5.74771 10.0835 5.3335V4.99984V4.53349V4.50304V4.503C10.0835 3.96887 10.0835 3.52305 10.0538 3.15883C10.0227 2.77894 9.95561 2.42228 9.78376 2.08502C9.52011 1.56758 9.09941 1.14688 8.58197 0.883228C8.24471 0.711384 7.88805 0.644273 7.50817 0.613235C7.14393 0.583476 6.69808 0.583485 6.16393 0.583496H6.1335L4.5335 0.583496ZM12.5305 4.80284C12.2376 4.50995 11.7627 4.50995 11.4698 4.80284C11.1769 5.09573 11.1769 5.57061 11.4698 5.8635L11.4905 5.88415C12.0717 6.46537 12.3623 6.75598 12.26 7.00291C12.1578 7.24984 11.7468 7.24984 10.9248 7.24984L6.00016 7.24984C5.58595 7.24984 5.25016 7.58562 5.25016 7.99984C5.25016 8.41405 5.58595 8.74984 6.00016 8.74984L10.9248 8.74984C11.7468 8.74984 12.1578 8.74984 12.26 8.99676C12.3623 9.24369 12.0717 9.5343 11.4905 10.1155L11.4698 10.1362C11.1769 10.4291 11.1769 10.9039 11.4698 11.1968C11.7627 11.4897 12.2376 11.4897 12.5305 11.1968L15.1972 8.53017C15.4901 8.23727 15.4901 7.7624 15.1972 7.46951L12.5305 4.80284Z" fill="url(#paint0_linear_488_441)"/>
<defs>
<linearGradient id="paint0_linear_488_441" x1="0.369091" y1="0.729454" x2="15.661" y2="16.4892" gradientUnits="userSpaceOnUse">
<stop stop-color="#F9D423"/>
<stop offset="0.515624" stop-color="#FF4E50"/>
<stop offset="0.991304" stop-color="#8A2387"/>
</linearGradient>
</defs>
</svg>
