<svg width="22" height="22" viewBox="0 0 22 22" fill="none" xmlns="http://www.w3.org/2000/svg">
<path d="M18.0804 1.4997L18.0789 1.49997C16.8987 1.73095 15.7176 1.9584 14.5359 2.18591C12.6277 2.55333 10.7187 2.92091 8.81281 3.30367C8.5081 3.32197 8.26644 3.49773 8.10775 3.72683C7.949 3.956 7.86665 4.24691 7.88297 4.51506C7.88499 5.78094 7.88466 7.04711 7.88433 8.31337C7.88403 9.47411 7.88374 10.6349 7.88524 11.7957C7.88661 12.8475 6.65182 13.5864 5.61551 13.7665C5.48661 13.7889 5.35894 13.8188 5.23332 13.8562C3.91292 14.2326 2.88942 15.4513 2.77141 16.8174C2.63188 18.0089 3.18369 19.2401 4.15515 19.947C5.03126 20.6 6.22888 20.8049 7.27177 20.4584C8.32411 20.134 9.17092 19.2717 9.51084 18.2358C9.66519 17.8787 9.69739 17.5066 9.69358 17.1413C9.69185 16.974 9.68246 16.8057 9.67326 16.6408C9.67239 16.6251 9.67153 16.6096 9.67066 16.5939C9.66064 16.413 9.65171 16.236 9.65331 16.0621C9.6538 15.1982 9.65373 14.3334 9.65367 13.4697C9.6536 12.4288 9.65353 11.3882 9.65441 10.3478C9.65496 9.69992 10.1085 9.14147 10.7483 9.03959C10.8803 9.01857 11.0127 8.99803 11.1453 8.97744L11.15 8.97672C11.6794 8.89456 12.2128 8.81167 12.7411 8.69468C13.0859 8.61711 13.4357 8.56259 13.789 8.50752C13.8304 8.50108 13.8718 8.49461 13.9133 8.48811C14.3076 8.4263 14.7058 8.36041 15.0976 8.2577L15.0998 8.25714L15.1019 8.25646C15.3125 8.19149 15.5059 8.04706 15.6304 7.86224C15.7554 7.67643 15.8151 7.44277 15.7418 7.20565C15.74 7.19956 15.7376 7.19359 15.7345 7.18796C15.6397 7.00611 15.4916 6.82639 15.3081 6.70698C15.1244 6.58739 14.8999 6.52553 14.6611 6.59299C14.5161 6.62178 14.3718 6.65132 14.2277 6.6808C13.6349 6.80203 13.0476 6.92218 12.4503 6.98521L12.4473 6.98551L12.4443 6.98598C12.0544 7.04932 11.6665 7.12513 11.2806 7.20052C11.1822 7.21975 11.0839 7.23896 10.9858 7.25791C10.9504 7.26476 10.915 7.27156 10.8796 7.27833C10.2336 7.40198 9.65552 6.89695 9.65482 6.23915L9.65477 6.19014C9.65453 5.97112 9.65435 5.75222 9.65467 5.53337C9.65523 5.14517 9.93268 4.81346 10.3142 4.74148C12.313 4.36436 14.3137 3.98688 16.31 3.58647C17.1618 3.4156 17.9612 4.06203 17.963 4.93081C17.9652 6.02488 17.9644 7.11822 17.9634 8.21167C17.9627 8.92044 17.9622 9.62926 17.9624 10.3384C17.9627 11.3442 16.8271 12.0594 15.8586 12.3308C15.5302 12.4228 15.2177 12.5716 14.9399 12.778C13.9439 13.4747 13.4737 14.8086 13.8104 15.971C14.0899 17.0321 15.0084 17.8916 16.0911 18.1008C17.0551 18.3037 18.1034 17.9838 18.7924 17.2854C19.4913 16.5953 19.7659 15.5766 19.6948 14.6308C19.6899 12.3653 19.6911 10.0999 19.6923 7.8345C19.6936 5.99407 19.6945 4.15355 19.6922 2.31274C19.7249 1.92236 19.4314 1.62685 19.1647 1.45625C19.1605 1.45357 19.1561 1.45118 19.1515 1.44911C18.9614 1.36248 18.7683 1.36438 18.5886 1.39165C18.499 1.40526 18.4103 1.42561 18.3257 1.44554C18.3162 1.44777 18.3069 1.44999 18.2975 1.45221C18.2222 1.47004 18.1507 1.48697 18.0804 1.4997ZM16.206 13.9901L16.2074 13.9895C16.569 13.8274 16.9896 13.8794 17.3295 14.0785C17.6694 14.2776 17.9175 14.6156 17.947 15.0087L17.9475 15.0151L17.9487 15.0215C18.0261 15.4124 17.875 15.8056 17.5972 16.0874C17.3192 16.3692 16.9247 16.5293 16.5294 16.4656L16.5261 16.4651L16.5228 16.4648C15.7982 16.3943 15.25 15.6247 15.4213 14.9221L15.4217 14.9203L15.4221 14.9185C15.5072 14.5072 15.8147 14.1527 16.206 13.9901ZM5.65845 15.4828L5.66009 15.4822C6.48268 15.1977 7.49042 15.6287 7.81321 16.4251C7.84133 16.4945 7.85721 16.5681 7.86578 16.6425C7.90395 16.974 7.90182 17.3132 7.87642 17.6505C7.8683 17.7583 7.84726 17.8655 7.80121 17.9633C7.45349 18.7021 6.53084 19.1195 5.73431 18.8799L5.73247 18.8792L5.73063 18.8788C4.8722 18.6541 4.28451 17.7165 4.4659 16.851L4.4662 16.8495L4.46646 16.8482C4.57956 16.2234 5.05319 15.6809 5.65845 15.4828Z" fill="url(#paint0_linear_451_2401)" stroke="url(#paint1_linear_451_2401)" stroke-width="0.5"/>
<defs>
<linearGradient id="paint0_linear_451_2401" x1="11.2278" y1="1.375" x2="11.2278" y2="20.625" gradientUnits="userSpaceOnUse">
<stop stop-color="#DC18FC"/>
<stop offset="1" stop-color="#8E1EFF"/>
</linearGradient>
<linearGradient id="paint1_linear_451_2401" x1="11.2278" y1="1.375" x2="11.2278" y2="20.625" gradientUnits="userSpaceOnUse">
<stop stop-color="#DC18FC"/>
<stop offset="1" stop-color="#8E1EFF"/>
</linearGradient>
</defs>
</svg>
