<svg width="24" height="24" viewBox="0 0 24 24" fill="none" xmlns="http://www.w3.org/2000/svg">
<path opacity="0.4" d="M23 12C23 18.0753 18.0753 23 12 23C5.9247 23 1 18.0753 1 12C1 5.9247 5.9247 1 12 1C18.0753 1 23 5.9247 23 12Z" fill="url(#paint0_linear_299_395)"/>
<path d="M11.8187 6.9534C11.0099 6.9534 10.3535 7.60977 10.3535 8.41852C10.3535 8.67757 10.2506 8.92601 10.0674 9.10919C9.88427 9.29237 9.63583 9.39527 9.37678 9.39527C9.11773 9.39527 8.86929 9.29237 8.68611 9.10919C8.50293 8.92601 8.40002 8.67757 8.40002 8.41852C8.40004 7.85844 8.53767 7.30693 8.80081 6.81251C9.06394 6.31808 9.44453 5.89588 9.90909 5.58303C10.3737 5.27018 10.908 5.07627 11.4651 5.01834C12.0221 4.96041 12.5849 5.04023 13.1039 5.2508C13.6229 5.46137 14.0822 5.79623 14.4415 6.22593C14.8007 6.65564 15.0489 7.16702 15.1641 7.71512C15.2794 8.26322 15.2582 8.83124 15.1025 9.36924C14.9467 9.90723 14.6612 10.3987 14.271 10.8005C14.1511 10.9242 14.0365 11.0388 13.9271 11.1482C13.6626 11.4002 13.4142 11.6685 13.1835 11.9518C12.897 12.319 12.7954 12.5886 12.7954 12.8139V13.7907C12.7954 14.0497 12.6925 14.2981 12.5093 14.4813C12.3261 14.6645 12.0777 14.7674 11.8187 14.7674C11.5596 14.7674 11.3112 14.6645 11.128 14.4813C10.9448 14.2981 10.8419 14.0497 10.8419 13.7907V12.8139C10.8419 11.9609 11.2391 11.2693 11.6415 10.7523C11.9398 10.3694 12.3135 9.99695 12.6183 9.69221C12.7095 9.60104 12.7954 9.51639 12.8696 9.43955C13.0703 9.233 13.2057 8.97188 13.2589 8.68882C13.312 8.40576 13.2805 8.11332 13.1684 7.84804C13.0562 7.58277 12.8684 7.35643 12.6283 7.19731C12.3883 7.03819 12.1067 6.95335 11.8187 6.9534ZM11.8187 19C12.1641 19 12.4953 18.8628 12.7395 18.6186C12.9838 18.3743 13.121 18.0431 13.121 17.6977C13.121 17.3523 12.9838 17.021 12.7395 16.7768C12.4953 16.5325 12.1641 16.3953 11.8187 16.3953C11.4733 16.3953 11.142 16.5325 10.8978 16.7768C10.6535 17.021 10.5163 17.3523 10.5163 17.6977C10.5163 18.0431 10.6535 18.3743 10.8978 18.6186C11.142 18.8628 11.4733 19 11.8187 19Z" fill="url(#paint1_linear_299_395)"/>
<defs>
<linearGradient id="paint0_linear_299_395" x1="0.682006" y1="1.21648" x2="23.3621" y2="24.5905" gradientUnits="userSpaceOnUse">
<stop stop-color="#F9D423"/>
<stop offset="0.515624" stop-color="#FF4E50"/>
<stop offset="0.991304" stop-color="#8A2387"/>
</linearGradient>
<linearGradient id="paint1_linear_299_395" x1="8.3012" y1="5.13776" x2="19.8985" y2="10.9749" gradientUnits="userSpaceOnUse">
<stop stop-color="#F9D423"/>
<stop offset="0.515624" stop-color="#FF4E50"/>
<stop offset="0.991304" stop-color="#8A2387"/>
</linearGradient>
</defs>
</svg>
