<svg width="24" height="24" viewBox="0 0 24 24" fill="none" xmlns="http://www.w3.org/2000/svg">
<path opacity="0.4" d="M1 12C1 5.9247 5.9247 1 12 1C18.0753 1 23 5.9247 23 12C23 18.0753 18.0753 23 12 23C5.9247 23 1 18.0753 1 12Z" fill="url(#paint0_linear_8_622)"/>
<path fill-rule="evenodd" clip-rule="evenodd" d="M12.0001 6.22501C10.4684 6.22501 8.99953 6.83345 7.91651 7.91647C6.83349 8.99949 6.22505 10.4684 6.22505 12C6.22505 13.5316 6.83349 15.0005 7.91651 16.0836C8.99953 17.1666 10.4684 17.775 12.0001 17.775C12.2189 17.775 12.4287 17.8619 12.5834 18.0166C12.7381 18.1714 12.8251 18.3812 12.8251 18.6C12.8251 18.8188 12.7381 19.0287 12.5834 19.1834C12.4287 19.3381 12.2189 19.425 12.0001 19.425C10.421 19.4246 8.88315 18.9209 7.60993 17.9869C6.33671 17.0528 5.39442 15.7372 4.91992 14.2311C4.44543 12.725 4.46345 11.1069 4.97137 9.61174C5.47928 8.11658 6.45064 6.82228 7.74434 5.91686C9.03804 5.01143 10.5867 4.54202 12.1654 4.57682C13.7441 4.61161 15.2706 5.1488 16.5231 6.11036C17.7757 7.07191 18.6891 8.40775 19.1306 9.92383C19.5721 11.4399 19.5188 13.0573 18.9785 14.541C18.8369 14.9176 18.6072 15.2548 18.3086 15.5244L18.2206 15.6058C17.9169 15.886 17.5514 16.0906 17.1538 16.203C16.7563 16.3153 16.3377 16.3323 15.9324 16.2524C15.527 16.1725 15.1462 15.9982 14.8209 15.7434C14.4956 15.4887 14.235 15.1607 14.0604 14.7863C13.4336 15.2498 12.6688 15.4885 11.8897 15.4636C11.1105 15.4388 10.3625 15.152 9.76654 14.6495C9.17056 14.147 8.76143 13.4582 8.60528 12.6945C8.44913 11.9307 8.55508 11.1366 8.90601 10.4405C9.25694 9.74445 9.83234 9.18704 10.5392 8.85838C11.2461 8.52973 12.0431 8.44904 12.8015 8.62936C13.56 8.80968 14.2354 9.24046 14.7187 9.85209C15.202 10.4637 15.465 11.2205 15.4651 12V13.6764C15.4646 13.8662 15.5196 14.0519 15.6233 14.2109C15.7269 14.3698 15.8747 14.495 16.0485 14.5712C16.2223 14.6474 16.4146 14.6711 16.6017 14.6396C16.7888 14.608 16.9626 14.5225 17.1019 14.3936L17.1899 14.3111C17.2944 14.22 17.3759 14.1054 17.4275 13.9767C17.7453 13.1042 17.8481 12.1678 17.727 11.2471C17.6059 10.3264 17.2646 9.44848 16.732 8.68777C16.1994 7.92706 15.4912 7.30601 14.6674 6.87729C13.8437 6.44856 12.9287 6.22481 12.0001 6.22501ZM12.0001 10.185C12.2384 10.185 12.4744 10.232 12.6946 10.3232C12.9148 10.4144 13.1149 10.5481 13.2835 10.7166C13.452 10.8852 13.5857 11.0852 13.6769 11.3054C13.7681 11.5256 13.8151 11.7617 13.8151 12C13.8151 12.2384 13.7681 12.4744 13.6769 12.6946C13.5857 12.9148 13.452 13.1149 13.2835 13.2834C13.1149 13.4519 12.9148 13.5856 12.6946 13.6769C12.4744 13.7681 12.2384 13.815 12.0001 13.815C11.5187 13.815 11.057 13.6238 10.7167 13.2834C10.3763 12.943 10.1851 12.4814 10.1851 12C10.1851 11.5186 10.3763 11.057 10.7167 10.7166C11.057 10.3762 11.5187 10.185 12.0001 10.185Z" fill="url(#paint1_linear_8_622)"/>
<defs>
<linearGradient id="paint0_linear_8_622" x1="12" y1="23" x2="12" y2="1" gradientUnits="userSpaceOnUse">
<stop stop-color="#00B59C"/>
<stop offset="1" stop-color="#9CFFAC"/>
</linearGradient>
<linearGradient id="paint1_linear_8_622" x1="12.0018" y1="19.425" x2="12.0018" y2="4.57501" gradientUnits="userSpaceOnUse">
<stop stop-color="#00B59C"/>
<stop offset="1" stop-color="#9CFFAC"/>
</linearGradient>
</defs>
</svg>
