<svg width="24" height="24" viewBox="0 0 24 24" fill="none" xmlns="http://www.w3.org/2000/svg">
<path opacity="0.45" d="M4.36277 2.82118C3.37283 3.64355 3.11257 5.03398 2.59087 7.81602L1.69957 12.5696C0.966328 16.4818 0.599113 18.4379 1.66867 19.7261C2.73823 21.0144 4.72642 21.0144 8.70755 21.0144H15.2913C19.2724 21.0144 21.2618 21.0144 22.3313 19.7261C23.4009 18.4379 23.0337 16.4818 22.3004 12.5696L21.4091 7.81602C20.8874 5.03517 20.6272 3.64355 19.6372 2.82118C18.6461 2 17.2319 2 14.4 2H9.59884C6.76808 2 5.35389 2 4.36277 2.82118Z" fill="url(#paint0_linear_8_114)"/>
<path d="M11.9992 9.43634C11.22 9.43633 10.46 9.18993 9.82373 8.73104C9.18748 8.27216 8.70626 7.62336 8.44631 6.87393C8.39334 6.71273 8.30945 6.5639 8.19954 6.43611C8.08962 6.30833 7.95588 6.20414 7.8061 6.12962C7.65633 6.0551 7.49351 6.01174 7.32715 6.00207C7.16078 5.9924 6.99419 6.01661 6.83709 6.07329C6.67999 6.12997 6.53551 6.21799 6.41209 6.33221C6.28866 6.44644 6.18875 6.58458 6.11818 6.7386C6.0476 6.89261 6.00778 7.05942 6.00103 7.2293C5.99428 7.39918 6.02073 7.56872 6.07885 7.72806C6.51175 8.97739 7.31361 10.0591 8.37403 10.8241C9.43444 11.5892 10.7013 12 12 12C13.2987 12 14.5656 11.5892 15.626 10.8241C16.6864 10.0591 17.4883 8.97739 17.9211 7.72806C17.9793 7.56872 18.0057 7.39918 17.999 7.2293C17.9922 7.05942 17.9524 6.89261 17.8818 6.7386C17.8113 6.58458 17.7113 6.44644 17.5879 6.33221C17.4645 6.21799 17.32 6.12997 17.1629 6.07329C17.0058 6.01661 16.8392 5.9924 16.6729 6.00207C16.5065 6.01174 16.3437 6.0551 16.1939 6.12962C16.0441 6.20414 15.9104 6.30833 15.8005 6.43611C15.6905 6.5639 15.6067 6.71273 15.5537 6.87393C15.2936 7.62363 14.8122 8.27263 14.1756 8.73154C13.539 9.19044 12.7786 9.43668 11.9992 9.43634Z" fill="url(#paint1_linear_8_114)"/>
<defs>
<linearGradient id="paint0_linear_8_114" x1="1" y1="11.5072" x2="23" y2="11.5072" gradientUnits="userSpaceOnUse">
<stop stop-color="#02AA93"/>
<stop offset="1" stop-color="#67FF80"/>
</linearGradient>
<linearGradient id="paint1_linear_8_114" x1="6" y1="9" x2="18" y2="9" gradientUnits="userSpaceOnUse">
<stop stop-color="#02AA93"/>
<stop offset="1" stop-color="#67FF80"/>
</linearGradient>
</defs>
</svg>
