<svg width="16" height="16" viewBox="0 0 16 16" fill="none" xmlns="http://www.w3.org/2000/svg">
<path opacity="0.4" d="M1.5 1C1.22386 1 1 1.22386 1 1.5V14.5C1 14.7761 1.22386 15 1.5 15H14.5C14.7761 15 15 14.7761 15 14.5V1.5C15 1.22386 14.7761 1 14.5 1H1.5ZM2.16667 5C2.16667 4.72386 2.39053 4.5 2.66667 4.5H13.3333C13.6094 4.5 13.8333 4.72386 13.8333 5V13.3333C13.8333 13.6094 13.6094 13.8333 13.3333 13.8333H2.66667C2.39053 13.8333 2.16667 13.6094 2.16667 13.3333V5Z" fill="url(#paint0_linear_23_116)"/>
<path d="M5 8.64286C5 8.28782 5.28782 8 5.64286 8H10.3571C10.7121 8 11 8.28782 11 8.64286V10.3571C11 10.7121 10.7121 11 10.3571 11H5.64286C5.28782 11 5 10.7121 5 10.3571V8.64286Z" fill="url(#paint1_linear_23_116)"/>
<defs>
<linearGradient id="paint0_linear_23_116" x1="0.997949" y1="7.79256" x2="14.9969" y2="7.79256" gradientUnits="userSpaceOnUse">
<stop stop-color="#FD3A84"/>
<stop offset="1" stop-color="#FFA68D"/>
</linearGradient>
<linearGradient id="paint1_linear_23_116" x1="-1.00263" y1="7.73329" x2="16.9962" y2="7.73329" gradientUnits="userSpaceOnUse">
<stop stop-color="#FD3A84"/>
<stop offset="1" stop-color="#FFA68D"/>
</linearGradient>
</defs>
</svg>
