<svg width="32" height="32" viewBox="0 0 32 32" fill="none" xmlns="http://www.w3.org/2000/svg">
<path opacity="0.4" d="M4.6408 3.6408C3 5.2802 3 7.9206 3 13.2V18.8C3 24.0794 3 26.7198 4.6408 28.3592C6.2802 30 8.9206 30 14.2 30H17C22.2794 30 24.9198 30 26.5592 28.3592C28.2 26.7198 28.2 24.0794 28.2 18.8V13.2C28.2 7.9206 28.2 5.2802 26.5592 3.6408C24.9198 2 22.2794 2 17 2H15.6L12.1 2.0042C8.1884 2.0322 6.0464 2.2338 4.6408 3.6408Z" fill="url(#paint0_linear_8_1060)"/>
<path d="M18.5185 11.7778H16.0741V13.4074C16.0741 14.175 16.0741 14.5596 16.312 14.7991C16.5516 15.037 16.9361 15.037 17.7037 15.037H18.5185C19.2861 15.037 19.6707 15.037 19.9102 14.7991C20.1481 14.5596 20.1481 14.175 20.1481 13.4074C20.1481 12.6399 20.1481 12.2553 19.9102 12.0157C19.6707 11.7778 19.2844 11.7778 18.5185 11.7778ZM12.2379 8.75644C12 8.996 12 9.38222 12 10.1481C12 10.9141 12 11.3003 12.2379 11.5399C12.4775 11.7778 12.8637 11.7778 13.6296 11.7778H16.0741V8.51852H13.6296C12.8621 8.51852 12.4775 8.51852 12.2379 8.75644ZM18.5185 5.25926H16.0741V8.51852H18.5185C19.2861 8.51852 19.6707 8.51852 19.9102 8.28059C20.1481 8.04104 20.1481 7.65644 20.1481 6.88889C20.1481 6.12133 20.1481 5.73674 19.9102 5.49718C19.6707 5.25926 19.2844 5.25926 18.5185 5.25926ZM16.0741 5.25926V2L12 2.00489V3.62963C12 4.39719 12 4.78178 12.2379 5.02133C12.4775 5.25926 12.8637 5.25926 13.6296 5.25926H16.0741ZM12 19.9259V19.7222C12 18.9351 12.6388 18.2963 13.4259 18.2963H18.7222C19.5093 18.2963 20.1481 18.9351 20.1481 19.7222V19.9259C20.1481 21.0064 19.7189 22.0427 18.9549 22.8067C18.1908 23.5708 17.1546 24 16.0741 24C14.9936 24 13.9573 23.5708 13.1933 22.8067C12.4292 22.0427 12 21.0064 12 19.9259Z" fill="url(#paint1_linear_8_1060)"/>
<defs>
<linearGradient id="paint0_linear_8_1060" x1="15.6001" y1="1.99997" x2="15.6001" y2="30.0001" gradientUnits="userSpaceOnUse">
<stop stop-color="#DCFF4F"/>
<stop offset="1" stop-color="#00BF58"/>
</linearGradient>
<linearGradient id="paint1_linear_8_1060" x1="16.0741" y1="1.99997" x2="16.0741" y2="24" gradientUnits="userSpaceOnUse">
<stop stop-color="#DCFF4F"/>
<stop offset="1" stop-color="#00BF58"/>
</linearGradient>
</defs>
</svg>
