<svg width="24" height="24" viewBox="0 0 24 24" fill="none" xmlns="http://www.w3.org/2000/svg">
<path d="M18.3571 6.45056C18.3068 5.96422 18.2543 5.45963 18.1254 4.95611C17.7741 3.75153 16.801 3.00001 15.7576 3.00001C15.1757 2.99786 14.4395 3.35644 14.0222 3.71932L10.5629 6.61697H8.75194C7.41918 6.61697 6.34751 7.6444 6.14513 9.12705C5.97316 10.5506 5.93122 13.2379 6.14513 14.8042C6.33073 16.3706 7.35416 17.383 8.75194 17.383H10.5629L14.0893 20.3236C14.4511 20.6382 15.0897 20.9989 15.6769 20.9989C15.7146 21 15.7482 21 15.7817 21C16.845 21 17.7814 20.2206 18.1327 19.0192C18.2659 18.5082 18.312 18.0293 18.3571 17.5666L18.4043 17.1082C18.5846 15.6213 18.5846 8.36908 18.4043 6.89288L18.3571 6.45056Z" fill="url(#paint0_linear_19_69)"/>
<defs>
<linearGradient id="paint0_linear_19_69" x1="18.5024" y1="3.11411" x2="1.79957" y2="14.6531" gradientUnits="userSpaceOnUse">
<stop stop-color="#FE7970"/>
<stop offset="1" stop-color="#DC3282"/>
</linearGradient>
</defs>
</svg>
