<svg width="24" height="24" viewBox="0 0 24 24" fill="none" xmlns="http://www.w3.org/2000/svg">
<path d="M15.3571 6.45056C15.3068 5.96422 15.2543 5.45963 15.1254 4.95611C14.7741 3.75153 13.801 3.00001 12.7576 3.00001C12.1757 2.99786 11.4395 3.35644 11.0222 3.71932L7.56287 6.61697H5.75194C4.41918 6.61697 3.34751 7.6444 3.14513 9.12705C2.97316 10.5506 2.93122 13.2379 3.14513 14.8042C3.33073 16.3706 4.35416 17.383 5.75194 17.383H7.56287L11.0893 20.3236C11.4511 20.6382 12.0897 20.9989 12.6769 20.9989C12.7146 21 12.7482 21 12.7817 21C13.845 21 14.7814 20.2206 15.1327 19.0192C15.2659 18.5082 15.312 18.0293 15.3571 17.5666L15.4043 17.1082C15.5846 15.6213 15.5846 8.36908 15.4043 6.89288L15.3571 6.45056Z" fill="url(#paint0_linear_19_69)"/>
<path opacity="0.4" d="M19.4065 6.49459C19.1182 6.06944 18.5467 5.96315 18.1283 6.25839C17.7141 6.55578 17.6113 7.14197 17.8997 7.56604C18.7019 8.74807 19.1433 10.322 19.1433 12C19.1433 13.677 18.7019 15.2519 17.8997 16.434C17.6113 16.858 17.7141 17.4442 18.1294 17.7416C18.2845 17.8511 18.466 17.9091 18.6526 17.9091C18.9535 17.9091 19.2346 17.7577 19.4065 17.5054C20.4195 16.0131 20.9784 14.0581 20.9784 12C20.9784 9.94192 20.4195 7.98689 19.4065 6.49459Z" fill="url(#paint1_linear_19_69)"/>
<defs>
<linearGradient id="paint0_linear_19_69" x1="9.26976" y1="21" x2="9.26976" y2="3" gradientUnits="userSpaceOnUse">
<stop stop-color="#FD5900"/>
<stop offset="1" stop-color="#FFDE00"/>
</linearGradient>
<linearGradient id="paint1_linear_19_69" x1="19.3572" y1="17.9091" x2="19.3572" y2="6.09122" gradientUnits="userSpaceOnUse">
<stop stop-color="#FD5900"/>
<stop offset="1" stop-color="#FFDE00"/>
</linearGradient>
</defs>
</svg>
