<svg width="64" height="64" viewBox="0 0 64 64" fill="none" xmlns="http://www.w3.org/2000/svg">
<path opacity="0.4" fill-rule="evenodd" clip-rule="evenodd" d="M47.1667 4H16.8333C13.431 4.00432 10.1694 5.35779 7.76357 7.76357C5.35779 10.1694 4.00432 13.431 4 16.8333V37.8333C4.00432 41.2356 5.35779 44.4973 7.76357 46.9031C10.1694 49.3089 13.431 50.6623 16.8333 50.6667H20.1887L29.7553 58.6653C30.3849 59.1916 31.1794 59.4799 32 59.4799C32.8206 59.4799 33.6151 59.1916 34.2447 58.6653L43.8113 50.6667H47.1667C50.569 50.6623 53.8306 49.3089 56.2364 46.9031C58.6422 44.4973 59.9957 41.2356 60 37.8333V16.8333C59.9957 13.431 58.6422 10.1694 56.2364 7.76357C53.8306 5.35779 50.569 4.00432 47.1667 4Z" fill="url(#paint0_linear_26_79)"/>
<path fill-rule="evenodd" clip-rule="evenodd" d="M21.5 27H28.5C29.4283 27 30.3185 26.6313 30.9749 25.9749C31.6313 25.3185 32 24.4283 32 23.5C32 22.5717 31.6313 21.6815 30.9749 21.0251C30.3185 20.3687 29.4283 20 28.5 20H21.5C20.5717 20 19.6815 20.3687 19.0251 21.0251C18.3687 21.6815 18 22.5717 18 23.5C18 24.4283 18.3687 25.3185 19.0251 25.9749C19.6815 26.6313 20.5717 27 21.5 27ZM19.0251 32.6916C19.6815 32.0353 20.5717 31.6665 21.5 31.6665H42.5C43.4283 31.6665 44.3185 32.0353 44.9749 32.6916C45.6312 33.348 46 34.2382 46 35.1665C46 36.0948 45.6312 36.985 44.9749 37.6414C44.3185 38.2978 43.4283 38.6665 42.5 38.6665H21.5C20.5717 38.6665 19.6815 38.2978 19.0251 37.6414C18.3687 36.985 18 36.0948 18 35.1665C18 34.2382 18.3687 33.348 19.0251 32.6916Z" fill="url(#paint1_linear_26_79)"/>
<defs>
<linearGradient id="paint0_linear_26_79" x1="32" y1="25" x2="33" y2="57.5" gradientUnits="userSpaceOnUse">
<stop stop-color="#FFE600"/>
<stop offset="0.81623" stop-color="#FCF39F"/>
</linearGradient>
<linearGradient id="paint1_linear_26_79" x1="32" y1="38.6665" x2="32" y2="20" gradientUnits="userSpaceOnUse">
<stop stop-color="#FDA700"/>
<stop offset="1" stop-color="#FFDE00"/>
</linearGradient>
</defs>
</svg>
