<svg width="24" height="24" viewBox="0 0 24 24" fill="none" xmlns="http://www.w3.org/2000/svg">
<path opacity="0.4" d="M1 12C1 6.8146 1 4.2219 2.6104 2.6104C4.223 1 6.8146 1 12 1C17.1854 1 19.7781 1 21.3885 2.6104C23 4.223 23 6.8146 23 12C23 17.1854 23 19.7781 21.3885 21.3885C19.7792 23 17.1854 23 12 23C6.8146 23 4.2219 23 2.6104 21.3885C1 19.7792 1 17.1854 1 12Z" fill="url(#paint0_linear_8_348)"/>
<path d="M13.6368 5.89059C13.8479 5.94731 14.0279 6.08552 14.1372 6.27485C14.2466 6.46419 14.2762 6.68918 14.2198 6.90039L11.373 17.5264C11.3449 17.6311 11.2965 17.7292 11.2305 17.8151C11.1644 17.901 11.0822 17.9731 10.9883 18.0273C10.7987 18.1366 10.5735 18.1661 10.3621 18.1094C10.1507 18.0527 9.97056 17.9143 9.86123 17.7247C9.75189 17.5351 9.72235 17.3099 9.77909 17.0985L12.6259 6.47359C12.654 6.36881 12.7024 6.27058 12.7685 6.18455C12.8346 6.09851 12.917 6.02635 13.011 5.9722C13.105 5.91805 13.2087 5.88297 13.3163 5.86896C13.4239 5.85496 13.5332 5.86231 13.6379 5.89059H13.6368ZM15.267 8.11699C15.4217 7.9625 15.6314 7.87572 15.85 7.87572C16.0686 7.87572 16.2783 7.9625 16.433 8.11699L16.6629 8.34579C17.3614 9.04429 17.9444 9.62729 18.3448 10.152C18.7672 10.7064 19.0642 11.2916 19.0642 12C19.0642 12.7084 18.7672 13.2936 18.3448 13.848C17.9444 14.3727 17.3614 14.9557 16.6618 15.6542L16.433 15.883C16.3575 15.964 16.2664 16.0291 16.1652 16.0742C16.064 16.1192 15.9547 16.1435 15.844 16.1454C15.7332 16.1474 15.6232 16.127 15.5204 16.0855C15.4177 16.044 15.3244 15.9823 15.246 15.9039C15.1677 15.8256 15.1059 15.7323 15.0645 15.6296C15.023 15.5268 15.0026 15.4168 15.0045 15.306C15.0065 15.1952 15.0307 15.086 15.0758 14.9848C15.1209 14.8836 15.1859 14.7925 15.267 14.717L15.4551 14.5278C16.2053 13.7776 16.708 13.2738 17.0325 12.847C17.3438 12.44 17.4142 12.2024 17.4142 12C17.4142 11.7976 17.3438 11.56 17.0325 11.153C16.708 10.7273 16.2053 10.2224 15.4551 9.47219L15.267 9.28299C15.1125 9.12831 15.0257 8.91862 15.0257 8.69999C15.0257 8.48137 15.1125 8.27168 15.267 8.11699ZM7.56699 8.11699C7.72338 7.97127 7.93023 7.89193 8.14396 7.8957C8.3577 7.89947 8.56162 7.98606 8.71277 8.13721C8.86393 8.28836 8.95051 8.49229 8.95428 8.70602C8.95805 8.91975 8.87872 9.1266 8.73299 9.28299L8.54489 9.47219C7.79469 10.2224 7.29309 10.7262 6.96749 11.153C6.65619 11.56 6.58689 11.7976 6.58689 12C6.58689 12.2024 6.65619 12.44 6.96749 12.847C7.29309 13.2727 7.79469 13.7776 8.54489 14.5278L8.73409 14.717C8.81285 14.7931 8.87566 14.8842 8.91885 14.9849C8.96203 15.0855 8.98474 15.1938 8.98564 15.3034C8.98654 15.4129 8.96562 15.5215 8.92409 15.6229C8.88256 15.7243 8.82125 15.8163 8.74376 15.8938C8.66626 15.9712 8.57412 16.0324 8.47271 16.0738C8.3713 16.1153 8.26266 16.1361 8.15311 16.1351C8.04357 16.1341 7.93533 16.1113 7.83469 16.068C7.73406 16.0247 7.64306 15.9618 7.56699 15.883L7.33819 15.6542C6.63859 14.9557 6.05559 14.3727 5.65519 13.848C5.23279 13.2936 4.93689 12.7084 4.93689 12C4.93689 11.2916 5.23389 10.7064 5.65519 10.152C6.05559 9.62729 6.63859 9.04429 7.33819 8.34579L7.56699 8.11699Z" fill="url(#paint1_linear_8_348)"/>
<defs>
<linearGradient id="paint0_linear_8_348" x1="12" y1="1" x2="12" y2="23" gradientUnits="userSpaceOnUse">
<stop stop-color="#00FFE0"/>
<stop offset="1" stop-color="#078AA7"/>
</linearGradient>
<linearGradient id="paint1_linear_8_348" x1="12.0005" y1="5.86206" x2="12.0005" y2="18.1376" gradientUnits="userSpaceOnUse">
<stop stop-color="#00FFE0"/>
<stop offset="1" stop-color="#078AA7"/>
</linearGradient>
</defs>
</svg>
