<svg width="16" height="16" viewBox="0 0 16 16" fill="none" xmlns="http://www.w3.org/2000/svg">
<path d="M7.5625 6.6875C6.83538 6.6875 6.25 7.27288 6.25 8V11.5C6.25 12.2271 6.83538 12.8125 7.5625 12.8125H11.0625C11.7896 12.8125 12.375 12.2271 12.375 11.5V11.2025C12.375 11.0548 12.5295 10.9581 12.6623 11.0226L14.4343 11.8828C14.6856 12.038 15.0002 11.8426 15 11.5325V7.96582C15.0003 7.73885 14.8244 7.55614 14.6121 7.5625C14.5494 7.56444 14.4885 7.58362 14.4343 7.61719L12.6623 8.47744C12.5295 8.54193 12.375 8.44518 12.375 8.29752V8C12.375 7.27288 11.7896 6.6875 11.0625 6.6875H7.5625Z" fill="#FF007F"/>
<path opacity="0.4" d="M4.9375 3.1875C4.21038 3.1875 3.625 3.77288 3.625 4.5V4.79752C3.625 4.94518 3.47048 5.04193 3.33765 4.97744L1.56567 4.11719C1.51147 4.08362 1.45056 4.06444 1.38794 4.0625C1.1756 4.05614 0.999749 4.23885 1 4.46582V8.03247C0.999817 8.34262 1.31437 8.53802 1.56567 8.38281L3.33765 7.52256C3.47048 7.45807 3.625 7.55482 3.625 7.70248V8C3.625 8.72712 4.21038 9.3125 4.9375 9.3125H5.175C5.28546 9.3125 5.375 9.22296 5.375 9.1125V8C5.375 6.80326 6.36576 5.8125 7.5625 5.8125H9.55C9.66046 5.8125 9.75 5.72296 9.75 5.6125V4.5C9.75 3.77288 9.16462 3.1875 8.4375 3.1875H4.9375Z" fill="#FF007F"/>
</svg>
