<svg width="24" height="24" viewBox="0 0 24 24" fill="none" xmlns="http://www.w3.org/2000/svg">
<path opacity="0.4" d="M11.8997 23C17.2193 23 21.5312 18.7276 21.5312 13.4576C21.5312 8.18858 17.2193 3.9151 11.8997 3.9151C6.58011 3.9151 2.26703 8.18748 2.26703 13.4576C2.26703 18.7265 6.57901 23 11.8997 23Z" fill="url(#paint0_linear_8_72)"/>
<path d="M11.9467 8C12.468 8 12.8921 8.42018 12.8921 8.93762V13.5492L15.7698 16.3997C15.8576 16.4863 15.9272 16.5895 15.9748 16.7033C16.0224 16.817 16.0468 16.9391 16.0468 17.0624C16.0468 17.1857 16.0224 17.3078 15.9748 17.4215C15.9272 17.5353 15.8576 17.6385 15.7698 17.7251C15.5916 17.9012 15.3512 18 15.1006 18C14.8501 18 14.6097 17.9012 14.4315 17.7251L11.2762 14.5997C11.1889 14.5131 11.1195 14.41 11.0721 14.2965C11.0247 14.183 11.0002 14.0613 11 13.9383V8.93762C11 8.41888 11.4228 8 11.9467 8Z" fill="url(#paint1_linear_8_72)"/>
<path fill-rule="evenodd" clip-rule="evenodd" d="M7.76365 1.3741C7.81943 1.46262 7.8571 1.56133 7.87446 1.66451C7.89183 1.76769 7.88854 1.87329 7.86481 1.97519C7.84107 2.07709 7.79735 2.17327 7.73618 2.25815C7.67501 2.34304 7.59761 2.41494 7.50845 2.4697L3.22837 5.12069C3.04774 5.23263 2.83027 5.26884 2.62311 5.22148C2.41595 5.17412 2.23582 5.047 2.12178 4.86769C2.066 4.77917 2.02833 4.68046 2.01097 4.57728C1.9936 4.47411 1.99688 4.36851 2.02062 4.26661C2.04436 4.1647 2.08808 4.06853 2.14925 3.98364C2.21042 3.89876 2.28782 3.82685 2.37698 3.77209L6.65816 1.12111C6.83878 1.00917 7.05626 0.97295 7.26342 1.02031C7.47058 1.06767 7.65071 1.1948 7.76475 1.3741H7.76365ZM16.0356 1.3741C16.1496 1.1951 16.3296 1.06819 16.5365 1.02084C16.7434 0.97349 16.9606 1.00951 17.1411 1.12111L21.4223 3.77209C21.5114 3.82685 21.5888 3.89876 21.65 3.98364C21.7112 4.06853 21.7549 4.1647 21.7786 4.26661C21.8024 4.36851 21.8057 4.47411 21.7883 4.57728C21.7709 4.68046 21.7333 4.77917 21.6775 4.86769C21.5634 5.047 21.3833 5.17412 21.1762 5.22148C20.969 5.26884 20.7515 5.23263 20.5709 5.12069L16.2908 2.4697C16.2016 2.41503 16.1241 2.34319 16.0628 2.25835C16.0015 2.1735 15.9577 2.07734 15.9338 1.97543C15.91 1.87353 15.9066 1.7679 15.9239 1.66468C15.9412 1.56146 15.9788 1.46269 16.0345 1.3741H16.0356Z" fill="url(#paint2_linear_8_72)"/>
<defs>
<linearGradient id="paint0_linear_8_72" x1="11.8991" y1="23" x2="11.8991" y2="3.9151" gradientUnits="userSpaceOnUse">
<stop stop-color="#FD4C00"/>
<stop offset="1" stop-color="#FFB800"/>
</linearGradient>
<linearGradient id="paint1_linear_8_72" x1="13.5234" y1="18" x2="13.5234" y2="8" gradientUnits="userSpaceOnUse">
<stop stop-color="#FD4C00"/>
<stop offset="1" stop-color="#FFB800"/>
</linearGradient>
<linearGradient id="paint2_linear_8_72" x1="11.8996" y1="5.24179" x2="11.8996" y2="1" gradientUnits="userSpaceOnUse">
<stop stop-color="#FD4C00"/>
<stop offset="1" stop-color="#FFB800"/>
</linearGradient>
</defs>
</svg>
