<svg width="24" height="24" viewBox="0 0 24 24" fill="none" xmlns="http://www.w3.org/2000/svg">
<path opacity="0.5" d="M12 23.0001C13.3001 23.0001 14.5875 22.744 15.7886 22.2465C16.9897 21.749 18.0811 21.0198 19.0004 20.1005C19.9197 19.1812 20.6489 18.0898 21.1464 16.8887C21.6439 15.6876 21.9 14.4002 21.9 13.1001C21.9 11.8001 21.6439 10.5127 21.1464 9.3116C20.6489 8.11048 19.9197 7.01912 19.0004 6.09982C18.0811 5.18053 16.9897 4.4513 15.7886 3.95378C14.5875 3.45627 13.3001 3.2002 12 3.2002C9.37442 3.2002 6.85633 4.24322 4.99973 6.09982C3.14313 7.95642 2.1001 10.4745 2.1001 13.1001C2.1001 15.7258 3.14313 18.2439 4.99973 20.1005C6.85633 21.9571 9.37442 23.0001 12 23.0001Z" fill="url(#paint0_linear_345_628)"/>
<path d="M13.1286 10.1027C12.8472 9.90726 12.5596 9.7209 12.2662 9.54395C11.0859 8.82675 10.4963 8.46815 9.9672 8.86525C9.4392 9.26125 9.3908 10.0928 9.294 11.756C9.2676 12.2257 9.25 12.6866 9.25 13.1002C9.25 13.5138 9.2676 13.9747 9.294 14.4444C9.3908 16.1076 9.4392 16.9381 9.9672 17.3352C10.4963 17.7323 11.087 17.3737 12.2662 16.6565C12.572 16.4706 12.8679 16.2814 13.1286 16.0977C13.4256 15.8887 13.7501 15.6379 14.0768 15.3717C15.2593 14.407 15.85 13.9252 15.85 13.1002C15.85 12.2752 15.2593 11.7934 14.0768 10.8287C13.7501 10.5625 13.4267 10.3117 13.1286 10.1027Z" fill="url(#paint1_linear_345_628)"/>
<path fill-rule="evenodd" clip-rule="evenodd" d="M7.86399 1.3741C7.91977 1.46262 7.95744 1.56133 7.9748 1.66451C7.99217 1.76769 7.98889 1.87329 7.96515 1.97519C7.94141 2.07709 7.89769 2.17327 7.83652 2.25815C7.77535 2.34304 7.69795 2.41494 7.60879 2.4697L3.32871 5.12069C3.14809 5.23263 2.93061 5.26884 2.72345 5.22148C2.51629 5.17412 2.33616 5.047 2.22212 4.86769C2.16634 4.77917 2.12867 4.68046 2.11131 4.57728C2.09395 4.47411 2.09723 4.36851 2.12096 4.26661C2.1447 4.1647 2.18842 4.06853 2.24959 3.98364C2.31076 3.89876 2.38816 3.82685 2.47732 3.77209L6.7585 1.12111C6.93913 1.00917 7.1566 0.97295 7.36376 1.02031C7.57092 1.06767 7.75105 1.1948 7.86509 1.3741H7.86399ZM16.136 1.3741C16.25 1.1951 16.4299 1.06819 16.6368 1.02084C16.8437 0.97349 17.0609 1.00951 17.2414 1.12111L21.5226 3.77209C21.6118 3.82685 21.6892 3.89876 21.7504 3.98364C21.8115 4.06853 21.8552 4.1647 21.879 4.26661C21.9027 4.36851 21.906 4.47411 21.8886 4.57728C21.8713 4.68046 21.8336 4.77917 21.7778 4.86769C21.6638 5.047 21.4837 5.17412 21.2765 5.22148C21.0693 5.26884 20.8519 5.23263 20.6712 5.12069L16.3912 2.4697C16.3019 2.41503 16.2244 2.34319 16.1631 2.25835C16.1018 2.1735 16.058 2.07734 16.0342 1.97543C16.0103 1.87353 16.007 1.7679 16.0242 1.66468C16.0415 1.56146 16.0791 1.46269 16.1349 1.3741H16.136Z" fill="url(#paint2_linear_345_628)"/>
<defs>
<linearGradient id="paint0_linear_345_628" x1="21.9" y1="23.0001" x2="5.4246" y2="6.34012" gradientUnits="userSpaceOnUse">
<stop stop-color="#731FFF"/>
<stop offset="0.905415" stop-color="#EB1AFF"/>
</linearGradient>
<linearGradient id="paint1_linear_345_628" x1="15.85" y1="17.4998" x2="8.79897" y2="12.1518" gradientUnits="userSpaceOnUse">
<stop stop-color="#731FFF"/>
<stop offset="0.905415" stop-color="#EB1AFF"/>
</linearGradient>
<linearGradient id="paint2_linear_345_628" x1="21.8996" y1="5.24179" x2="20.4682" y2="-1.51452" gradientUnits="userSpaceOnUse">
<stop stop-color="#731FFF"/>
<stop offset="0.905415" stop-color="#EB1AFF"/>
</linearGradient>
</defs>
</svg>
