<svg width="64" height="64" viewBox="0 0 64 64" fill="none" xmlns="http://www.w3.org/2000/svg">
<path opacity="0.4" d="M44.858 53C54.326 53 62 45.416 62 36.059C62 28.643 57.179 22.34 50.465 20.045C49.511 11.582 42.245 5 33.428 5C23.96 5 16.286 12.584 16.286 21.941C16.286 24.011 16.661 25.991 17.348 27.827C16.5276 27.6676 15.6938 27.5872 14.858 27.587C7.757 27.59 2 33.278 2 40.295C2 47.312 7.757 53 14.858 53H44.858Z" fill="url(#paint0_linear_202_110)"/>
<path d="M38.6585 32.1873V43.7887C38.6585 44.9722 39.6179 45.9315 40.8014 45.9315H42.8143C43.3084 45.9316 43.7914 46.0782 44.2023 46.3528C44.6132 46.6274 44.9333 47.0176 45.1224 47.4742C45.3115 47.9307 45.361 48.4331 45.2646 48.9178C45.1683 49.4025 44.9303 49.8477 44.5809 50.1972L36.6769 58.1013C36.2083 58.5698 35.5727 58.833 34.9101 58.833C34.2474 58.833 33.612 58.5698 33.1433 58.1013L25.2392 50.1972C24.8898 49.8477 24.6519 49.4025 24.5555 48.9178C24.4592 48.4331 24.5087 47.9307 24.6978 47.4742C24.8868 47.0176 25.207 46.6274 25.6179 46.3528C26.0287 46.0782 26.5118 45.9316 27.006 45.9315H29.0189C30.2024 45.9315 31.1617 44.9722 31.1617 43.7887V32.1873C31.1617 31.1932 31.5567 30.2397 32.2596 29.5367C32.9626 28.8338 33.9159 28.4389 34.9101 28.4389C35.9042 28.4389 36.8577 28.8338 37.5606 29.5367C38.2636 30.2397 38.6585 31.1932 38.6585 32.1873Z" fill="url(#paint1_linear_202_110)"/>
<defs>
<linearGradient id="paint0_linear_202_110" x1="32" y1="53" x2="32" y2="5" gradientUnits="userSpaceOnUse">
<stop stop-color="#00B59C"/>
<stop offset="1" stop-color="#9CFFAC"/>
</linearGradient>
<linearGradient id="paint1_linear_202_110" x1="24.5076" y1="43.636" x2="45.3127" y2="43.636" gradientUnits="userSpaceOnUse">
<stop stop-color="#02AA93"/>
<stop offset="1" stop-color="#67FF80"/>
</linearGradient>
</defs>
</svg>
