<svg width="32" height="32" viewBox="0 0 32 32" fill="none" xmlns="http://www.w3.org/2000/svg">
<path fill-rule="evenodd" clip-rule="evenodd" d="M16.062 27.5813C17.593 29.1122 19.6686 29.9735 21.8337 29.9763C23.9987 29.9735 26.0744 29.1122 27.6053 27.5813C29.1362 26.0503 29.9975 23.9747 30.0003 21.8096C30.0003 19.5615 28.2807 16.4663 24.8903 12.6105C24.5058 12.18 24.0347 11.8356 23.5078 11.5999C22.981 11.3641 22.4103 11.2422 21.8331 11.2422C21.2559 11.2422 20.6852 11.3641 20.1583 11.5999C19.6315 11.8356 19.1604 12.18 18.7758 12.6105C15.3867 16.4663 13.667 19.5615 13.667 21.8096C13.6698 23.9747 14.5311 26.0503 16.062 27.5813Z" fill="url(#paint0_linear_54_631)"/>
<path opacity="0.4" d="M8.41667 16.5397C6.71543 16.5378 5.0844 15.8612 3.88144 14.6582C2.67849 13.4553 2.00185 11.8242 2 10.123C2 9.18032 2.287 7.50615 4.77083 3.89182C5.18226 3.30734 5.72821 2.83037 6.36262 2.50112C6.99704 2.17187 7.70132 2 8.41608 2C9.13085 2 9.83513 2.17187 10.4695 2.50112C11.104 2.83037 11.6499 3.30734 12.0613 3.89182C14.5463 7.50615 14.8333 9.18032 14.8333 10.123C14.8315 11.8242 14.1548 13.4553 12.9519 14.6582C11.7489 15.8612 10.1179 16.5378 8.41667 16.5397Z" fill="url(#paint1_linear_54_631)"/>
<defs>
<linearGradient id="paint0_linear_54_631" x1="16.0002" y1="29.9763" x2="16.0002" y2="2" gradientUnits="userSpaceOnUse">
<stop stop-color="#5570FF"/>
<stop offset="1" stop-color="#4DD3FF"/>
</linearGradient>
<linearGradient id="paint1_linear_54_631" x1="16.0002" y1="29.9763" x2="16.0002" y2="2" gradientUnits="userSpaceOnUse">
<stop stop-color="#5570FF"/>
<stop offset="1" stop-color="#4DD3FF"/>
</linearGradient>
</defs>
</svg>
