<svg width="24" height="24" viewBox="0 0 24 24" fill="none" xmlns="http://www.w3.org/2000/svg">
<path opacity="0.5" d="M3.98208 13.6257C3.48142 14.1264 3.23109 14.3767 3.07189 14.6764C2.96614 14.8763 2.89101 15.091 2.849 15.3132C2.78532 15.647 2.82485 15.9983 2.9028 16.7021L2.96099 17.2247C2.98295 17.4169 2.99284 17.5124 2.99503 17.6046C3.01131 18.1628 2.82045 18.7072 2.45923 19.133C2.37459 19.2278 2.28633 19.3194 2.19463 19.4075L1.50402 20.0992C1.34497 20.2562 1.21856 20.4432 1.13206 20.6494C1.04556 20.8555 1.00068 21.0767 1.00001 21.3002C0.999336 21.5238 1.04288 21.7452 1.12814 21.9519C1.2134 22.1585 1.33869 22.3463 1.49679 22.5043C1.6549 22.6623 1.8427 22.7875 2.04938 22.8727C2.25607 22.9579 2.47756 23.0013 2.7011 23.0005C2.92464 22.9998 3.14582 22.9548 3.35191 22.8682C3.558 22.7816 3.74493 22.6551 3.90193 22.496L4.59144 21.8054C4.72868 21.6692 4.79676 21.6001 4.86593 21.5419C5.29303 21.1795 5.83761 20.9885 6.39536 21.0039C6.48759 21.0072 6.58311 21.0181 6.77525 21.039L7.29787 21.0972C8.00056 21.1752 8.353 21.2147 8.68677 21.1521C8.90876 21.1086 9.12326 21.0332 9.32358 20.9281C9.62332 20.7689 9.87365 20.5186 10.3743 20.0179L11.9543 18.438L13.1181 17.2742L14.1501 16.2421L15.314 15.0783L17.6471 12.7451L11.2549 6.35291L3.98208 13.6257Z" fill="url(#paint0_linear_19_81)"/>
<path d="M10.0559 5.15395L11.2549 6.3529L17.6471 12.7451L18.846 13.9441C19.1647 14.2585 19.5949 14.4341 20.0426 14.4326C20.4903 14.431 20.9192 14.2525 21.2357 13.9358C21.5522 13.6192 21.7306 13.1902 21.7319 12.7425C21.7333 12.2948 21.5574 11.8647 21.2429 11.5462L20.7519 11.0552C20.3614 10.6648 20.3613 10.0318 20.7516 9.64122L21.6425 8.74972C22.0694 8.3316 22.4092 7.83298 22.6422 7.2827C22.8752 6.73242 22.9968 6.1414 22.9999 5.54383C23.003 4.94626 22.8877 4.354 22.6604 3.80132C22.4332 3.24864 22.0986 2.7465 21.676 2.32395C21.2535 1.9014 20.7514 1.56682 20.1987 1.33958C19.646 1.11234 19.0537 0.996943 18.4562 1.00006C17.8586 1.00318 17.2676 1.12476 16.7173 1.35775C16.167 1.59075 15.6684 1.93055 15.2503 2.35749L14.3585 3.24809C13.968 3.63803 13.3354 3.63795 12.945 3.24792L12.4538 2.75714C12.2968 2.59801 12.1099 2.47151 11.9038 2.38492C11.6977 2.29833 11.4765 2.25335 11.253 2.25257C11.0294 2.2518 10.8079 2.29524 10.6013 2.38041C10.3946 2.46557 10.2068 2.59078 10.0487 2.74881C9.89057 2.90684 9.76528 3.09458 9.68002 3.30123C9.59476 3.50787 9.55122 3.72934 9.55189 3.95288C9.55256 4.17642 9.59744 4.39763 9.68394 4.60376C9.77044 4.80988 9.89685 4.99687 10.0559 5.15395Z" fill="url(#paint1_linear_19_81)"/>
<defs>
<linearGradient id="paint0_linear_19_81" x1="9.32355" y1="23.0006" x2="9.32355" y2="6.35291" gradientUnits="userSpaceOnUse">
<stop stop-color="#A5A5A5"/>
<stop offset="0.9973" stop-color="#DCDCDC"/>
</linearGradient>
<linearGradient id="paint1_linear_19_81" x1="16.2759" y1="14.4326" x2="16.2759" y2="1" gradientUnits="userSpaceOnUse">
<stop stop-color="#A5A5A5"/>
<stop offset="0.9973" stop-color="#DCDCDC"/>
</linearGradient>
</defs>
</svg>
