<svg width="24" height="24" viewBox="0 0 24 24" fill="none" xmlns="http://www.w3.org/2000/svg">
<path opacity="0.4" d="M21.802 16.3993V9.79866C21.802 6.68754 21.802 5.13199 20.835 4.16499C19.9901 3.32011 18.6942 3.2134 16.3014 3.2002H7.50055C5.10781 3.2134 3.81188 3.32011 2.967 4.16499C2 5.13199 2 6.68754 2 9.79866V16.3993C2 19.5115 2 21.0671 2.967 22.0341C3.93289 23 5.48955 23 8.60066 23H15.2013C18.3124 23 19.8691 23 20.835 22.0341C21.802 21.066 21.802 19.5115 21.802 16.3993Z" fill="url(#paint0_linear_9_72)"/>
<path d="M7.50055 2.65017C7.50055 2.21251 7.67441 1.79279 7.98387 1.48332C8.29334 1.17386 8.71306 1 9.15071 1H14.6513C15.0889 1 15.5086 1.17386 15.8181 1.48332C16.1276 1.79279 16.3014 2.21251 16.3014 2.65017V3.75028C16.3014 4.18793 16.1276 4.60765 15.8181 4.91712C15.5086 5.22658 15.0889 5.40044 14.6513 5.40044H9.15071C8.71306 5.40044 8.29334 5.22658 7.98387 4.91712C7.67441 4.60765 7.50055 4.18793 7.50055 3.75028V2.65017Z" fill="url(#paint1_linear_9_72)"/>
<path d="M6.40045 12.8262C6.40045 12.6074 6.48738 12.3975 6.64211 12.2428C6.79685 12.088 7.00671 12.0011 7.22553 12.0011H16.0264C16.2452 12.0011 16.4551 12.088 16.6098 12.2428C16.7646 12.3975 16.8515 12.6074 16.8515 12.8262C16.8515 13.045 16.7646 13.2549 16.6098 13.4096C16.4551 13.5643 16.2452 13.6513 16.0264 13.6513H7.22553C7.00671 13.6513 6.79685 13.5643 6.64211 13.4096C6.48738 13.2549 6.40045 13.045 6.40045 12.8262ZM6.40045 16.6766C6.40045 16.4577 6.48738 16.2479 6.64211 16.0931C6.79685 15.9384 7.00671 15.8515 7.22553 15.8515H13.2761C13.495 15.8515 13.7048 15.9384 13.8596 16.0931C14.0143 16.2479 14.1012 16.4577 14.1012 16.6766C14.1012 16.8954 14.0143 17.1053 13.8596 17.26C13.7048 17.4147 13.495 17.5016 13.2761 17.5016H7.22553C7.00671 17.5016 6.79685 17.4147 6.64211 17.26C6.48738 17.1053 6.40045 16.8954 6.40045 16.6766Z" fill="url(#paint2_linear_9_72)" stroke="url(#paint3_linear_9_72)"/>
<defs>
<linearGradient id="paint0_linear_9_72" x1="2.0029" y1="12.8067" x2="21.8053" y2="12.8067" gradientUnits="userSpaceOnUse">
<stop stop-color="#A93AFF"/>
<stop offset="1" stop-color="#FF81FF"/>
</linearGradient>
<linearGradient id="paint1_linear_9_72" x1="7.50184" y1="3.13502" x2="16.3029" y2="3.13502" gradientUnits="userSpaceOnUse">
<stop stop-color="#A93AFF"/>
<stop offset="1" stop-color="#FF81FF"/>
</linearGradient>
<linearGradient id="paint2_linear_9_72" x1="6.40198" y1="14.6699" x2="16.8532" y2="14.6699" gradientUnits="userSpaceOnUse">
<stop stop-color="#A93AFF"/>
<stop offset="1" stop-color="#FF81FF"/>
</linearGradient>
<linearGradient id="paint3_linear_9_72" x1="6.40198" y1="14.6699" x2="16.8532" y2="14.6699" gradientUnits="userSpaceOnUse">
<stop stop-color="#A93AFF"/>
<stop offset="1" stop-color="#FF81FF"/>
</linearGradient>
</defs>
</svg>
