<svg width="64" height="64" viewBox="0 0 64 64" fill="none" xmlns="http://www.w3.org/2000/svg">
<path opacity="0.4" d="M4 54C4 50.6875 6.68731 48 9.99958 48H53.9965C57.3088 48 59.9961 50.6875 59.9961 54C59.9961 57.3125 57.3088 60 53.9965 60H9.99958C6.68731 60 4 57.3125 4 54Z" fill="url(#paint0_linear_101_76)"/>
<path d="M36.4227 5.95C35.2853 4.7 33.6854 4 31.998 4C30.3106 4 28.7107 4.7 27.5858 5.9375L5.58733 29.9375C3.97495 31.7 3.56247 34.225 4.51241 36.4125C5.46234 38.6 7.62469 40 9.99953 40H53.9965C56.3713 40 58.5461 38.6125 59.4961 36.425C60.446 34.2375 60.0335 31.7 58.4212 29.95L36.4227 5.95Z" fill="url(#paint1_linear_101_76)"/>
<defs>
<linearGradient id="paint0_linear_101_76" x1="-15.5" y1="23" x2="-16.8171" y2="57.9369" gradientUnits="userSpaceOnUse">
<stop stop-color="#F9D423"/>
<stop offset="0.515624" stop-color="#FF4E50"/>
<stop offset="0.991304" stop-color="#8A2387"/>
</linearGradient>
<linearGradient id="paint1_linear_101_76" x1="3.19923" y1="4.35424" x2="36.5478" y2="57.8087" gradientUnits="userSpaceOnUse">
<stop stop-color="#F9D423"/>
<stop offset="0.515624" stop-color="#FF4E50"/>
<stop offset="0.991304" stop-color="#8A2387"/>
</linearGradient>
</defs>
</svg>
