<svg width="24" height="24" viewBox="0 0 24 24" fill="none" xmlns="http://www.w3.org/2000/svg">
<path opacity="0.4" d="M12 1C5.92 1 1 5.92 1 12C1 18.08 5.92 23 12 23C18.08 23 23 18.08 23 12C23 5.92 18.08 1 12 1Z" fill="url(#paint0_linear_23_97)"/>
<path d="M14 15.6195C14 15.1945 13.7023 14.8363 13.4103 14.5276C13.1525 14.255 13 13.8889 13 13.5C13 13.1111 13.1525 12.745 13.4103 12.4724C13.7023 12.1637 14 11.8055 14 11.3805V7C14 6.44772 13.5523 6 13 6H11C10.4477 6 10 6.44772 10 7V8.41709C10 8.81928 10.2813 9.15763 10.5688 9.43891V9.43891C10.7298 9.59645 10.8533 9.78822 10.93 10C11.112 10.56 10.9657 11.1396 10.594 11.5295C10.3 11.8381 10 12.1959 10 12.6221V17C10 17.5523 10.4477 18 11 18H13C13.5523 18 14 17.5523 14 17V15.6195Z" fill="url(#paint1_linear_23_97)"/>
<defs>
<linearGradient id="paint0_linear_23_97" x1="12" y1="23" x2="12" y2="1" gradientUnits="userSpaceOnUse">
<stop stop-color="#00B59C"/>
<stop offset="1" stop-color="#9CFFAC"/>
</linearGradient>
<linearGradient id="paint1_linear_23_97" x1="12" y1="18" x2="12" y2="6" gradientUnits="userSpaceOnUse">
<stop stop-color="#00B59C"/>
<stop offset="1" stop-color="#9CFFAC"/>
</linearGradient>
</defs>
</svg>
