<svg width="16" height="16" viewBox="0 0 16 16" fill="none" xmlns="http://www.w3.org/2000/svg">
<path opacity="0.4" d="M12.6667 1H3.33333C2.04467 1 1 2.04467 1 3.33333V12.6667C1 13.9553 2.04467 15 3.33333 15H12.6667C13.9553 15 15 13.9553 15 12.6667V3.33333C15 2.04467 13.9553 1 12.6667 1Z" fill="url(#paint0_linear_23_113)"/>
<path d="M5.33652 3.68697C5.14126 3.49171 4.82468 3.49171 4.62942 3.68697L3.68686 4.62953C3.4916 4.82479 3.49159 5.14137 3.68686 5.33663L5.99675 7.64653C6.19201 7.84179 6.19201 8.15837 5.99675 8.35363L3.68686 10.6635C3.49159 10.8587 3.49159 11.1753 3.68686 11.3706L4.62942 12.3132C4.82468 12.5084 5.14126 12.5084 5.33652 12.3132L7.64642 10.0033C7.84168 9.80804 8.15826 9.80804 8.35352 10.0033L10.6635 12.3132C10.8587 12.5084 11.1753 12.5084 11.3706 12.3132L12.3131 11.3706C12.5084 11.1753 12.5084 10.8587 12.3131 10.6635L10.0032 8.35363C9.80793 8.15837 9.80793 7.84179 10.0032 7.64653L12.3131 5.33663C12.5084 5.14137 12.5084 4.82479 12.3131 4.62953L11.3706 3.68697C11.1753 3.49171 10.8587 3.49171 10.6635 3.68697L8.35352 5.99686C8.15826 6.19212 7.84168 6.19212 7.64642 5.99686L5.33652 3.68697Z" fill="url(#paint1_linear_23_113)"/>
<defs>
<linearGradient id="paint0_linear_23_113" x1="8" y1="15" x2="8" y2="1" gradientUnits="userSpaceOnUse">
<stop stop-color="#FF1B71"/>
<stop offset="0.9998" stop-color="#FF867E"/>
<stop offset="0.9999" stop-color="#FF6678"/>
</linearGradient>
<linearGradient id="paint1_linear_23_113" x1="7.99997" y1="12.4596" x2="7.99997" y2="3.54053" gradientUnits="userSpaceOnUse">
<stop stop-color="#FF1B71"/>
<stop offset="0.9998" stop-color="#FF867E"/>
<stop offset="0.9999" stop-color="#FF6678"/>
</linearGradient>
</defs>
</svg>
