<svg width="64" height="64" viewBox="0 0 64 64" fill="none" xmlns="http://www.w3.org/2000/svg">
<g opacity="0.4">
<rect x="4" y="4" width="56" height="56" rx="12" fill="#D9D9D9"/>
<rect x="4" y="4" width="56" height="56" rx="12" fill="url(#paint0_linear_69_446)"/>
</g>
<path d="M16.723 14.1521C17.3847 13.9732 18.0822 14.0135 18.7619 14C27.9905 14.0358 37.2236 13.9777 46.4522 14.0313C47.7846 13.9911 49.0008 15.1716 48.9471 16.513C48.9695 19.5983 49.0008 22.6881 48.9337 25.7734C48.965 26.4397 48.1647 26.9002 47.5745 26.6632C46.9038 26.5559 46.8949 25.7063 46.64 25.2189C45.7547 22.147 43.1211 19.3613 39.8035 19.1601C38.3101 19.1109 36.772 18.9455 35.3054 19.2719C34.5543 19.4731 34.5632 20.354 34.5498 20.9711C34.5587 28.1299 34.5319 35.2931 34.5632 42.4564C34.5408 45.269 36.9777 47.6836 39.7498 47.8311C40.8721 47.5494 41.4444 49.3693 40.2193 49.5213C34.8494 49.6331 29.466 49.5571 24.0916 49.5616C23.1839 49.7762 22.6071 48.5645 23.3315 48.0279C24.4001 47.7149 25.576 47.7283 26.5597 47.1604C28.2588 46.2393 29.4123 44.3836 29.4123 42.443C29.4392 35.2931 29.4168 28.1478 29.4258 21.0024C29.5107 20.202 29.2335 19.1646 28.2498 19.1556C25.7459 19.0662 22.9604 18.8158 20.7918 20.345C18.8155 21.6731 17.6888 23.8551 17.027 26.0775C16.7543 27.1461 14.9077 26.8108 15.0284 25.6974C14.9792 22.6613 15.006 19.6162 15.0195 16.5801C14.9926 15.5114 15.6991 14.4785 16.723 14.1521Z" fill="url(#paint1_linear_69_446)"/>
<defs>
<linearGradient id="paint0_linear_69_446" x1="31.9985" y1="60" x2="31.9985" y2="37.1082" gradientUnits="userSpaceOnUse">
<stop stop-color="#A93AFF"/>
<stop offset="1" stop-color="#FF81FF"/>
</linearGradient>
<linearGradient id="paint1_linear_69_446" x1="31.9872" y1="49.5868" x2="31.9872" y2="14" gradientUnits="userSpaceOnUse">
<stop stop-color="#A93AFF"/>
<stop offset="1" stop-color="#FF81FF"/>
</linearGradient>
</defs>
</svg>
