<svg width="24" height="24" viewBox="0 0 24 24" fill="none" xmlns="http://www.w3.org/2000/svg">
<path opacity="0.4" d="M5.3138 19.8211C5.30292 20.1293 5.30512 20.412 5.32832 20.6627C5.37253 21.1407 5.51684 21.8007 6.11296 22.2005C6.48574 22.4508 6.89331 22.4919 7.23482 22.4597C7.5635 22.4288 7.8965 22.3251 8.21028 22.2032C8.82133 21.966 9.60829 21.5575 10.5567 21.0652L10.6196 21.0326C11.8129 20.4134 13.0035 20 14 20H14.0724C15.896 20 17.3662 20.0001 18.5223 19.8446C19.7224 19.6832 20.7331 19.3378 21.5354 18.5348C22.3384 17.7325 22.6832 16.7224 22.8446 15.5223C23.0001 14.3662 23 12.896 23 11.0724V10.9276C23 9.10394 23.0001 7.63385 22.8446 6.4777C22.6832 5.27755 22.3384 4.26753 21.5354 3.4652C20.7331 2.66218 19.7224 2.31684 18.5223 2.15542C17.3664 1.99995 15.8966 1.99997 14.0733 2H9.92666C8.10341 1.99997 6.63365 1.99995 5.4777 2.15542C4.27755 2.31684 3.26752 2.66158 2.46519 3.46459C1.66218 4.26692 1.31684 5.27755 1.15542 6.4777C0.999951 7.63369 0.999973 9.10352 1 10.9269V11.0731C0.999973 12.8965 0.999951 14.3663 1.15542 15.5223C1.31679 16.722 1.66194 17.7324 2.46438 18.5346C3.23008 19.3014 4.18526 19.6511 5.3138 19.8211Z" fill="url(#paint0_linear_20_79)"/>
<path d="M11.362 10.1849C11.5317 10.1849 11.6807 10.0767 11.7507 9.92212C12.0364 9.29111 12.5163 8.76457 13.1239 8.42192C13.8141 8.0327 14.622 7.90719 15.3977 8.06868C16.6468 8.31957 17.6613 9.31771 17.9231 10.5667C18.0286 11.0451 18.0255 11.5411 17.914 12.0182C17.8025 12.4952 17.5854 12.9412 17.2787 13.3232C16.9721 13.7052 16.5836 14.0136 16.142 14.2257C15.7003 14.4377 15.2168 14.548 14.7269 14.5484C14.0506 14.5484 13.3909 14.3385 12.8389 13.9478C12.3643 13.6117 11.9893 13.1561 11.7507 12.6294C11.6807 12.4748 11.5317 12.3667 11.362 12.3667H9.67257C9.45166 12.3667 9.27257 12.5458 9.27257 12.7667V13.4575C9.27257 14.0575 8.78168 14.5484 8.18171 14.5484C7.58174 14.5484 7.09086 14.0575 7.09086 13.4575V12.7667C7.09086 12.5458 6.90582 12.3736 6.6998 12.2938C6.29151 12.1357 6 11.7382 6 11.2758C6 10.6758 6.49089 10.1849 7.09086 10.1849H11.362ZM14.7269 12.3667C15.3268 12.3667 15.8177 11.8758 15.8177 11.2758C15.8177 10.6758 15.3268 10.1849 14.7269 10.1849C14.1269 10.1849 13.636 10.6758 13.636 11.2758C13.636 11.8758 14.1269 12.3667 14.7269 12.3667Z" fill="url(#paint1_linear_20_79)"/>
<defs>
<linearGradient id="paint0_linear_20_79" x1="12" y1="22.4692" x2="12" y2="2" gradientUnits="userSpaceOnUse">
<stop stop-color="#02AA93"/>
<stop offset="1" stop-color="#67FF80"/>
</linearGradient>
<linearGradient id="paint1_linear_20_79" x1="12" y1="14.5484" x2="12" y2="8" gradientUnits="userSpaceOnUse">
<stop stop-color="#02AA93"/>
<stop offset="1" stop-color="#67FF80"/>
</linearGradient>
</defs>
</svg>
