<svg width="24" height="24" viewBox="0 0 24 24" fill="none" xmlns="http://www.w3.org/2000/svg">
<path opacity="0.4" d="M5.3138 19.8211C5.30292 20.1293 5.30512 20.412 5.32832 20.6627C5.37253 21.1407 5.51684 21.8007 6.11296 22.2005C6.48574 22.4508 6.89331 22.4919 7.23482 22.4597C7.5635 22.4288 7.8965 22.3251 8.21028 22.2032C8.82133 21.966 9.60829 21.5575 10.5567 21.0652L10.6196 21.0326C11.8129 20.4134 13.0035 20 14 20H14.0724C15.896 20 17.3662 20.0001 18.5223 19.8446C19.7224 19.6832 20.7331 19.3378 21.5354 18.5348C22.3384 17.7325 22.6832 16.7224 22.8446 15.5223C23.0001 14.3662 23 12.896 23 11.0724V10.9276C23 9.10394 23.0001 7.63385 22.8446 6.4777C22.6832 5.27755 22.3384 4.26753 21.5354 3.4652C20.7331 2.66218 19.7224 2.31684 18.5223 2.15542C17.3664 1.99995 15.8966 1.99997 14.0733 2H9.92666C8.10341 1.99997 6.63365 1.99995 5.4777 2.15542C4.27755 2.31684 3.26752 2.66158 2.46519 3.46459C1.66218 4.26692 1.31684 5.27755 1.15542 6.4777C0.999951 7.63369 0.999973 9.1035 1 10.9268V11.0732C0.999973 12.8965 0.999951 14.3663 1.15542 15.5223C1.31679 16.722 1.66194 17.7324 2.46438 18.5346C3.23008 19.3014 4.18526 19.6511 5.3138 19.8211Z" fill="url(#paint0_linear_23_93)"/>
<path d="M11 6C10.7239 6 10.5 6.22386 10.5 6.5V11.2143C10.5 11.4904 10.7239 11.7143 11 11.7143H13C13.2761 11.7143 13.5 11.4904 13.5 11.2143V6.5C13.5 6.22386 13.2761 6 13 6H11ZM11 13.1429C10.7239 13.1429 10.5 13.3667 10.5 13.6429V15.5C10.5 15.7761 10.7239 16 11 16H13C13.2761 16 13.5 15.7761 13.5 15.5V13.6429C13.5 13.3667 13.2761 13.1429 13 13.1429H11Z" fill="url(#paint1_linear_23_93)"/>
<defs>
<linearGradient id="paint0_linear_23_93" x1="12" y1="21.4693" x2="12" y2="3" gradientUnits="userSpaceOnUse">
<stop stop-color="#5570FF"/>
<stop offset="1" stop-color="#4DD3FF"/>
</linearGradient>
<linearGradient id="paint1_linear_23_93" x1="12" y1="15.5115" x2="12" y2="6.48854" gradientUnits="userSpaceOnUse">
<stop stop-color="#5570FF"/>
<stop offset="1" stop-color="#4DD3FF"/>
</linearGradient>
</defs>
</svg>
