<svg width="24" height="24" viewBox="0 0 24 24" fill="none" xmlns="http://www.w3.org/2000/svg">
<path opacity="0.4" d="M5.3138 19.8211C4.18526 19.6511 3.23005 19.3015 2.46435 18.5346C1.66192 17.7324 1.31678 16.722 1.15542 15.5223C0.999949 14.3663 0.999971 12.8965 0.999999 11.0731V10.9269C0.999971 9.10352 0.999949 7.63369 1.15542 6.4777C1.31684 5.27755 1.66218 4.26692 2.46519 3.46459C3.26752 2.66158 4.27755 2.31684 5.4777 2.15542C6.63365 1.99995 8.10341 1.99997 9.92666 2H14.0733C15.8966 1.99997 17.3664 1.99995 18.5223 2.15542C19.7224 2.31684 20.7331 2.66218 21.5354 3.4652C22.3384 4.26753 22.6832 5.27755 22.8446 6.4777C23 7.63385 23 9.10394 23 10.9276V11.0724C23 12.896 23 14.3662 22.8446 15.5223C22.6832 16.7224 22.3384 17.7325 21.5354 18.5348C20.7331 19.3378 19.7224 19.6832 18.5223 19.8446C17.3662 20.0001 15.896 20 14.0724 20H14C13.0035 20 11.8129 20.4134 10.6196 21.0326L10.5567 21.0652C9.60829 21.5575 8.82133 21.966 8.21028 22.2032C7.8965 22.3251 7.5635 22.4288 7.23482 22.4597C6.89331 22.4919 6.48575 22.4508 6.11297 22.2005C5.51685 21.8007 5.37253 21.1407 5.32832 20.6627C5.30512 20.412 5.30292 20.1293 5.3138 19.8211Z" fill="url(#paint0_linear_19_144)"/>
<path d="M11 6C10.7239 6 10.5 6.22386 10.5 6.5V11.2143C10.5 11.4904 10.7239 11.7143 11 11.7143H13C13.2761 11.7143 13.5 11.4904 13.5 11.2143V6.5C13.5 6.22386 13.2761 6 13 6H11ZM11 13.1429C10.7239 13.1429 10.5 13.3667 10.5 13.6429V15.5C10.5 15.7761 10.7239 16 11 16H13C13.2761 16 13.5 15.7761 13.5 15.5V13.6429C13.5 13.3667 13.2761 13.1429 13 13.1429H11Z" fill="white"/>
<path d="M11 6C10.7239 6 10.5 6.22386 10.5 6.5V11.2143C10.5 11.4904 10.7239 11.7143 11 11.7143H13C13.2761 11.7143 13.5 11.4904 13.5 11.2143V6.5C13.5 6.22386 13.2761 6 13 6H11ZM11 13.1429C10.7239 13.1429 10.5 13.3667 10.5 13.6429V15.5C10.5 15.7761 10.7239 16 11 16H13C13.2761 16 13.5 15.7761 13.5 15.5V13.6429C13.5 13.3667 13.2761 13.1429 13 13.1429H11Z" fill="url(#paint1_linear_19_144)"/>
<defs>
<linearGradient id="paint0_linear_19_144" x1="12" y1="22.4692" x2="12" y2="2" gradientUnits="userSpaceOnUse">
<stop stop-color="#FD5900"/>
<stop offset="1" stop-color="#FFDE00"/>
</linearGradient>
<linearGradient id="paint1_linear_19_144" x1="12" y1="16" x2="12" y2="6" gradientUnits="userSpaceOnUse">
<stop stop-color="#FD5900"/>
<stop offset="1" stop-color="#FFDE00"/>
</linearGradient>
</defs>
</svg>
