<svg width="24" height="24" viewBox="0 0 24 24" fill="none" xmlns="http://www.w3.org/2000/svg">
<path d="M7.60804 3.61956C7.7837 3.45019 7.88676 3.21923 7.89549 2.97536C7.90422 2.73149 7.81794 2.49375 7.65483 2.31225C7.49172 2.13075 7.26452 2.01965 7.0211 2.00237C6.77769 1.98508 6.53708 2.06297 6.34996 2.21961L4.16528 4.18331C3.24118 5.01575 2.47403 5.70506 1.94795 6.33033C1.39425 6.9895 1 7.69638 1 8.57025C1 9.44287 1.39425 10.1498 1.94795 10.8077C2.47529 11.4342 3.24118 12.1248 4.16528 12.9559L6.34996 14.9196C6.44142 15.005 6.54899 15.0713 6.66637 15.1147C6.78375 15.158 6.90859 15.1775 7.03359 15.1721C7.1586 15.1666 7.28126 15.1363 7.39442 15.0829C7.50758 15.0295 7.60896 14.9541 7.69264 14.8611C7.77632 14.768 7.84062 14.6593 7.88179 14.5411C7.92296 14.4229 7.94016 14.2978 7.9324 14.1729C7.92464 14.048 7.89207 13.9259 7.83659 13.8138C7.78112 13.7016 7.70384 13.6016 7.60929 13.5197L5.47985 11.6024C4.49047 10.7122 3.82251 10.1083 3.39185 9.59605C2.97751 9.10261 2.88586 8.81509 2.88586 8.57025C2.88586 8.32416 2.97626 8.03664 3.39185 7.5432C3.82376 7.02968 4.49047 6.42701 5.47985 5.53681L7.60929 3.61956H7.60804ZM16.3229 10.0368C16.4057 9.94475 16.5058 9.86998 16.6176 9.81671C16.7293 9.76344 16.8504 9.73272 16.974 9.72631C17.0977 9.71989 17.2213 9.73791 17.338 9.77933C17.4546 9.82075 17.5619 9.88476 17.6538 9.9677L19.8347 11.9301C20.7588 12.7626 21.526 13.4531 22.052 14.0784C22.6058 14.7363 23 15.4445 23 16.3171C23 17.1897 22.6058 17.8978 22.052 18.5558C21.5247 19.181 20.7588 19.8716 19.8347 20.7028L17.6526 22.6677C17.5605 22.7504 17.4532 22.8142 17.3365 22.8554C17.2199 22.8966 17.0963 22.9144 16.9727 22.9078C16.8492 22.9012 16.7282 22.8703 16.6166 22.817C16.505 22.7636 16.405 22.6888 16.3223 22.5968C16.2396 22.5048 16.1758 22.3974 16.1346 22.2808C16.0935 22.1641 16.0757 22.0405 16.0822 21.917C16.0888 21.7934 16.1197 21.6724 16.173 21.5608C16.2264 21.4492 16.3012 21.3492 16.3932 21.2665L18.5227 19.3505C19.512 18.4591 20.18 17.8564 20.6107 17.3429C21.025 16.8507 21.1167 16.5619 21.1167 16.3171C21.1167 16.0723 21.0263 15.7835 20.6107 15.2913C20.1787 14.7765 19.512 14.1738 18.5227 13.2836L16.3945 11.3664C16.2089 11.1994 16.0972 10.9655 16.084 10.7161C16.0708 10.4668 16.1572 10.2224 16.3242 10.0368H16.3229Z" fill="url(#paint0_linear_8_340)"/>
<path opacity="0.5" d="M14.7371 2.22336C14.8567 2.25515 14.9688 2.31018 15.0671 2.38532C15.1654 2.46045 15.2479 2.55422 15.3099 2.66126C15.372 2.7683 15.4123 2.88651 15.4286 3.00915C15.4449 3.13178 15.4369 3.25643 15.4051 3.37597L10.3991 22.2094C10.3349 22.4509 10.1773 22.6569 9.96118 22.7821C9.74503 22.9074 9.48796 22.9417 9.24654 22.8774C9.00512 22.8131 8.79911 22.6556 8.67385 22.4394C8.54858 22.2233 8.51431 21.9662 8.57858 21.7248L13.5845 2.89132C13.6163 2.77176 13.6713 2.65963 13.7465 2.56135C13.8216 2.46306 13.9154 2.38055 14.0224 2.31852C14.1295 2.25648 14.2477 2.21615 14.3703 2.19983C14.4929 2.1835 14.6176 2.1915 14.7371 2.22336Z" fill="url(#paint1_linear_8_340)"/>
<defs>
<linearGradient id="paint0_linear_8_340" x1="12" y1="2" x2="12" y2="22.9091" gradientUnits="userSpaceOnUse">
<stop stop-color="#DC18FC"/>
<stop offset="1" stop-color="#8E1EFF"/>
</linearGradient>
<linearGradient id="paint1_linear_8_340" x1="11.9919" y1="2.19159" x2="11.9919" y2="22.9091" gradientUnits="userSpaceOnUse">
<stop stop-color="#DC18FC"/>
<stop offset="1" stop-color="#8E1EFF"/>
</linearGradient>
</defs>
</svg>
