<svg width="24" height="24" viewBox="0 0 24 24" fill="none" xmlns="http://www.w3.org/2000/svg">
<path opacity="0.5" d="M23 12C23 18.0753 18.0753 23 12 23C5.9247 23 1 18.0753 1 12C1 5.9247 5.9247 1 12 1C18.0753 1 23 5.9247 23 12Z" fill="url(#paint0_linear_80_121)"/>
<path d="M7.2 10.5C6.88174 10.5 6.57652 10.658 6.35147 10.9393C6.12643 11.2206 6 11.6022 6 12C6 12.3978 6.12643 12.7794 6.35147 13.0607C6.57652 13.342 6.88174 13.5 7.2 13.5H16.8C17.1183 13.5 17.4235 13.342 17.6485 13.0607C17.8736 12.7794 18 12.3978 18 12C18 11.6022 17.8736 11.2206 17.6485 10.9393C17.4235 10.658 17.1183 10.5 16.8 10.5H7.2Z" fill="url(#paint1_linear_80_121)" stroke="url(#paint2_linear_80_121)" stroke-width="2"/>
<defs>
<linearGradient id="paint0_linear_80_121" x1="22.3795" y1="12" x2="4.02257" y2="5.35964" gradientUnits="userSpaceOnUse">
<stop stop-color="#FE7970"/>
<stop offset="1" stop-color="#DC3282"/>
</linearGradient>
<linearGradient id="paint1_linear_80_121" x1="17.6615" y1="12" x2="14.0014" y2="6.70403" gradientUnits="userSpaceOnUse">
<stop stop-color="#FE7970"/>
<stop offset="1" stop-color="#DC3282"/>
</linearGradient>
<linearGradient id="paint2_linear_80_121" x1="17.6615" y1="12" x2="14.0014" y2="6.70403" gradientUnits="userSpaceOnUse">
<stop stop-color="#FE7970"/>
<stop offset="1" stop-color="#DC3282"/>
</linearGradient>
</defs>
</svg>
