<svg width="24" height="24" viewBox="0 0 24 24" fill="none" xmlns="http://www.w3.org/2000/svg">
<path fill-rule="evenodd" clip-rule="evenodd" d="M2.8592 8.51757C1.99281 9.38378 1.39567 10.4823 1.13987 11.6804C0.884071 12.8785 0.980549 14.1251 1.41766 15.2696C1.85476 16.4141 2.61381 17.4077 3.60317 18.1303C4.59253 18.8528 5.7699 19.2736 6.99314 19.3418C7.1799 19.3521 7.36313 19.2878 7.5025 19.1631C7.64188 19.0384 7.726 18.8634 7.73634 18.6766C7.74669 18.4898 7.68243 18.3066 7.55768 18.1672C7.43294 18.0279 7.25794 17.9437 7.07117 17.9334C6.11986 17.8803 5.20424 17.553 4.43483 16.9911C3.66542 16.4291 3.0751 15.6564 2.73514 14.7663C2.39517 13.8763 2.32008 12.9068 2.51894 11.975C2.71779 11.0432 3.18209 10.1888 3.85578 9.51509L6.51553 6.85534C7.44124 5.92963 8.69677 5.40957 10.0059 5.40957C11.3151 5.40957 12.5706 5.92963 13.4963 6.85534C14.422 7.78105 14.9421 9.03658 14.9421 10.3457C14.9421 11.6549 14.422 12.9104 13.4963 13.8361L12.166 15.1655C12.0986 15.2306 12.045 15.3084 12.0081 15.3945C11.9711 15.4805 11.9517 15.5731 11.951 15.6667C11.9502 15.7603 11.9681 15.8532 12.0036 15.9398C12.0391 16.0264 12.0915 16.1051 12.1577 16.1713C12.2239 16.2375 12.3027 16.2898 12.3894 16.3252C12.476 16.3606 12.5689 16.3784 12.6625 16.3776C12.7562 16.3767 12.8487 16.3572 12.9347 16.3202C13.0207 16.2832 13.0985 16.2295 13.1635 16.1621L14.4929 14.8336C15.683 13.6435 16.3517 12.0293 16.3517 10.3462C16.3517 8.66308 15.683 7.0489 14.4929 5.85876C13.3027 4.66862 11.6886 4 10.0055 4C8.32233 4 6.70815 4.66862 5.51801 5.85876L2.8592 8.51757Z" fill="url(#paint0_linear_8_544)" stroke="url(#paint1_linear_8_544)"/>
<path opacity="0.5" d="M10.5047 17.8252C10.0463 17.3669 9.68267 16.8227 9.43458 16.2239C9.1865 15.625 9.05881 14.9831 9.05881 14.3348C9.05881 13.6866 9.1865 13.0447 9.43458 12.4458C9.68267 11.847 10.0463 11.3028 10.5047 10.8445L11.8341 9.51506C11.9034 9.4505 11.9589 9.37266 11.9975 9.28616C12.036 9.19967 12.0567 9.10629 12.0584 9.01162C12.0601 8.91694 12.0427 8.82289 12.0072 8.73509C11.9717 8.64729 11.9189 8.56753 11.852 8.50058C11.785 8.43362 11.7053 8.38083 11.6175 8.34537C11.5297 8.3099 11.4356 8.29249 11.3409 8.29416C11.2463 8.29583 11.1529 8.31655 11.0664 8.35509C10.9799 8.39363 10.9021 8.4492 10.8375 8.51847L9.50622 9.846C8.31608 11.0361 7.64746 12.6503 7.64746 14.3334C7.64746 16.0166 8.31608 17.6307 9.50622 18.8209C10.6964 20.011 12.3105 20.6796 13.9937 20.6796C15.6768 20.6796 17.291 20.011 18.4811 18.8209L21.1409 16.1621C22.0073 15.2958 22.6044 14.1972 22.8602 12.999C23.116 11.8008 23.0194 10.5542 22.5822 9.40961C22.145 8.26507 21.3858 7.27156 20.3963 6.54903C19.4068 5.82651 18.2293 5.40586 17.006 5.33787C16.9135 5.33275 16.8209 5.34589 16.7335 5.37654C16.6461 5.4072 16.5656 5.45477 16.4966 5.51653C16.3572 5.64128 16.2731 5.81628 16.2628 6.00304C16.2524 6.18981 16.3167 6.37303 16.4414 6.51241C16.5662 6.65179 16.7412 6.7359 16.9279 6.74625C17.8793 6.79933 18.7949 7.12661 19.5643 7.68859C20.3337 8.25057 20.924 9.02323 21.264 9.9133C21.6039 10.8034 21.679 11.7728 21.4802 12.7046C21.2813 13.6365 20.817 14.4908 20.1433 15.1646L17.4836 17.8243C16.5579 18.7498 15.3026 19.2697 13.9937 19.2697C12.6847 19.2697 11.4294 18.7498 10.5037 17.8243L10.5047 17.8252Z" fill="url(#paint2_linear_8_544)" stroke="url(#paint3_linear_8_544)"/>
<defs>
<linearGradient id="paint0_linear_8_544" x1="8.67583" y1="19.3428" x2="8.67583" y2="4" gradientUnits="userSpaceOnUse">
<stop stop-color="#5558FF"/>
<stop offset="1" stop-color="#00C0FF"/>
</linearGradient>
<linearGradient id="paint1_linear_8_544" x1="8.67583" y1="19.3428" x2="8.67583" y2="4" gradientUnits="userSpaceOnUse">
<stop stop-color="#5558FF"/>
<stop offset="1" stop-color="#00C0FF"/>
</linearGradient>
<linearGradient id="paint2_linear_8_544" x1="15.3237" y1="20.6796" x2="15.3237" y2="5.33679" gradientUnits="userSpaceOnUse">
<stop stop-color="#5558FF"/>
<stop offset="1" stop-color="#00C0FF"/>
</linearGradient>
<linearGradient id="paint3_linear_8_544" x1="15.3237" y1="20.6796" x2="15.3237" y2="5.33679" gradientUnits="userSpaceOnUse">
<stop stop-color="#5558FF"/>
<stop offset="1" stop-color="#00C0FF"/>
</linearGradient>
</defs>
</svg>
