<svg width="64" height="64" viewBox="0 0 64 64" fill="none" xmlns="http://www.w3.org/2000/svg">
<path opacity="0.4" d="M57 22.3925V48.25C56.996 51.8955 55.5461 55.3906 52.9683 57.9683C50.3905 60.5461 46.8955 61.996 43.25 62H20.75C17.1045 61.996 13.6094 60.5461 11.0317 57.9683C8.4539 55.3906 7.00397 51.8955 7 48.25V15.75C7.00397 12.1045 8.4539 8.60948 11.0317 6.03171C13.6094 3.45395 17.1045 2.00402 20.75 2.00005H36.6075C38.4139 1.99517 40.2033 2.34863 41.8721 3.03995C43.541 3.73127 45.0562 4.74673 46.33 6.02755L52.9725 12.67C54.2533 13.9438 55.2687 15.459 55.9601 17.1279C56.6514 18.7967 57.0048 20.5862 57 22.3925Z" fill="url(#paint0_linear_201_95)"/>
<path d="M27.9781 24.6998V35.5386C27.9781 37.0447 26.7571 38.2658 25.2509 38.2658H23.6202C23.1017 38.2658 22.5953 38.4105 22.1645 38.6815C21.7335 38.9527 21.3977 39.3377 21.1995 39.7884C21.0012 40.239 20.9492 40.7349 21.0503 41.2133C21.1514 41.6918 21.401 42.1312 21.7673 42.4762L30.0563 50.2778C30.5477 50.7403 31.2142 51 31.9092 51C32.604 51 33.2705 50.7403 33.7619 50.2778L42.051 42.4762C42.4175 42.1312 42.6668 41.6918 42.7679 41.2133C42.869 40.7349 42.8169 40.239 42.6187 39.7884C42.4206 39.3377 42.0847 38.9527 41.6537 38.6815C41.223 38.4105 40.7164 38.2658 40.1982 38.2658H38.5673C37.0611 38.2658 35.8401 37.0447 35.8401 35.5386V24.6998C35.8401 23.7186 35.4257 22.7774 34.6887 22.0836C33.9515 21.3898 32.9518 21 31.9092 21C30.8667 21 29.8666 21.3898 29.1294 22.0836C28.3922 22.7774 27.9781 23.7186 27.9781 24.6998Z" fill="url(#paint1_linear_201_95)"/>
<defs>
<linearGradient id="paint0_linear_201_95" x1="32" y1="62" x2="32" y2="2" gradientUnits="userSpaceOnUse">
<stop stop-color="#00B59C"/>
<stop offset="1" stop-color="#9CFFAC"/>
</linearGradient>
<linearGradient id="paint1_linear_201_95" x1="31.9092" y1="51" x2="31.9092" y2="21" gradientUnits="userSpaceOnUse">
<stop stop-color="#00B59C"/>
<stop offset="1" stop-color="#9CFFAC"/>
</linearGradient>
</defs>
</svg>
