<svg width="24" height="24" viewBox="0 0 24 24" fill="none" xmlns="http://www.w3.org/2000/svg">
<path d="M5.95996 11.3365C5.95996 8.3378 5.95996 6.8385 6.88726 5.9068C7.81566 4.9751 9.30836 4.9751 12.296 4.9751H15.464C18.4505 4.9751 19.9432 4.9751 20.8716 5.9068C21.8 6.8385 21.8 8.3378 21.8 11.3365V16.6385C21.8 19.6371 21.8 21.1364 20.8716 22.0681C19.9443 22.9998 18.4505 22.9998 15.464 22.9998H12.296C9.30836 22.9998 7.81566 22.9998 6.88726 22.0681C5.95996 21.1364 5.95996 19.6371 5.95996 16.6385V11.3365Z" fill="url(#paint0_linear_304_158)"/>
<path opacity="0.4" d="M3.2892 2.2892C2 3.5773 2 5.6519 2 9.8V12C2 16.1481 2 18.2227 3.2892 19.5108C3.9679 20.1906 4.8655 20.5118 6.1712 20.6636C5.96 19.7396 5.96 18.468 5.96 16.6376V11.3367C5.96 8.3381 5.96 6.8388 6.8873 5.9071C7.8157 4.9754 9.3084 4.9754 12.296 4.9754H15.464C17.2812 4.9754 18.544 4.9754 19.4658 5.1844C19.314 3.8721 18.9928 2.9712 18.3108 2.2892C17.0227 1 14.9481 1 10.8 1C6.6519 1 4.5773 1 3.2892 2.2892Z" fill="url(#paint1_linear_304_158)"/>
<defs>
<linearGradient id="paint0_linear_304_158" x1="21.3532" y1="13.9874" x2="7.77854" y2="9.67213" gradientUnits="userSpaceOnUse">
<stop stop-color="#FE7970"/>
<stop offset="1" stop-color="#DC3282"/>
</linearGradient>
<linearGradient id="paint1_linear_304_158" x1="18.9732" y1="10.8318" x2="4.03481" y2="6.03203" gradientUnits="userSpaceOnUse">
<stop stop-color="#FE7970"/>
<stop offset="1" stop-color="#DC3282"/>
</linearGradient>
</defs>
</svg>
