<svg width="24" height="24" viewBox="0 0 24 24" fill="none" xmlns="http://www.w3.org/2000/svg">
<path opacity="0.5" d="M23 14.2V11.7778C23 8.8826 23 7.4339 22.153 6.4934C22.0753 6.40659 21.9931 6.32397 21.9066 6.2459C20.9661 5.4 19.5174 5.4 16.6222 5.4H16.2108C14.9425 5.4 14.3078 5.4 13.716 5.2317C13.3912 5.13887 13.0782 5.00894 12.7832 4.8445C12.2464 4.5464 11.7976 4.0965 10.9 3.2L10.295 2.595C9.9936 2.2936 9.844 2.144 9.6856 2.012C9.00433 1.4473 8.16863 1.10114 7.2876 1.0187C7.083 1 6.8696 1 6.445 1C5.4737 1 4.9886 1 4.5838 1.077C3.71462 1.24115 2.9151 1.66345 2.28954 2.28882C1.66397 2.91418 1.24142 3.71358 1.077 4.5827C1 4.9886 1 5.4748 1 6.445V14.2C1 18.3481 1 20.4227 2.2892 21.7108C3.5773 23 5.6519 23 9.8 23H14.2C18.3481 23 20.4227 23 21.7108 21.7108C23 20.4227 23 18.3481 23 14.2Z" fill="url(#paint0_linear_16_85)"/>
<path d="M11.8 17C11.5878 17 11.3843 17.1054 11.2343 17.2929C11.0843 17.4804 11 17.7348 11 18C11 18.2652 11.0843 18.5196 11.2343 18.7071C11.3843 18.8946 11.5878 19 11.8 19H18.2C18.4122 19 18.6157 18.8946 18.7657 18.7071C18.9157 18.5196 19 18.2652 19 18C19 17.7348 18.9157 17.4804 18.7657 17.2929C18.6157 17.1054 18.4122 17 18.2 17H11.8Z" fill="url(#paint1_linear_16_85)"/>
<defs>
<linearGradient id="paint0_linear_16_85" x1="12" y1="23" x2="12" y2="1" gradientUnits="userSpaceOnUse">
<stop stop-color="#00B59C"/>
<stop offset="1" stop-color="#9CFFAC"/>
</linearGradient>
<linearGradient id="paint1_linear_16_85" x1="15" y1="19" x2="15" y2="17" gradientUnits="userSpaceOnUse">
<stop stop-color="#00B59C"/>
<stop offset="1" stop-color="#9CFFAC"/>
</linearGradient>
</defs>
</svg>
