<svg width="64" height="64" viewBox="0 0 64 64" fill="none" xmlns="http://www.w3.org/2000/svg">
<path opacity="0.4" d="M57 22.3925V48.25C56.996 51.8955 55.5461 55.3906 52.9683 57.9683C50.3905 60.5461 46.8955 61.996 43.25 62H20.75C17.1045 61.996 13.6094 60.5461 11.0317 57.9683C8.4539 55.3906 7.00397 51.8955 7 48.25V15.75C7.00397 12.1045 8.4539 8.60948 11.0317 6.03171C13.6094 3.45395 17.1045 2.00402 20.75 2.00005H36.6075C38.4139 1.99517 40.2033 2.34863 41.8721 3.03995C43.541 3.73127 45.0562 4.74673 46.33 6.02755L52.9725 12.67C54.2533 13.9438 55.2687 15.459 55.9601 17.1279C56.6514 18.7967 57.0048 20.5862 57 22.3925Z" fill="url(#paint0_linear_201_104)"/>
<path d="M36.1698 31.7179L36.1714 27.1713C36.1714 26.6235 36.0634 26.0811 35.8538 25.575C35.6442 25.0689 35.337 24.6091 34.9497 24.2217C34.5623 23.8343 34.1024 23.5271 33.5964 23.3175C33.0903 23.1079 32.5479 23 32.0001 23C31.4523 23 30.9099 23.1079 30.4037 23.3175C29.8977 23.5271 29.4379 23.8343 29.0505 24.2217C28.6631 24.6091 28.3559 25.0689 28.1463 25.575C27.9367 26.0811 27.8288 26.6235 27.8288 27.1713L27.8304 31.7179C27.8306 32.3323 27.3324 32.8305 26.7179 32.8302L22.1713 32.8287C21.0651 32.8287 20.004 33.2681 19.2217 34.0504C18.4396 34.8327 18 35.8937 18 37C18 38.1063 18.4396 39.1673 19.2217 39.9496C20.004 40.7319 21.0651 41.1713 22.1713 41.1713L26.7179 41.1698C27.3324 41.1695 27.8306 41.6677 27.8304 42.2821L27.8288 46.8287C27.8288 47.935 28.2683 48.996 29.0505 49.7783C29.8328 50.5605 30.8938 51 32.0001 51C33.1063 51 34.1674 50.5605 34.9497 49.7783C35.732 48.996 36.1714 47.935 36.1714 46.8287L36.1698 42.2821C36.1696 41.6677 36.6677 41.1695 37.2822 41.1698L41.8288 41.1713C42.9351 41.1713 43.9961 40.7319 44.7784 39.9496C45.5607 39.1673 46.0001 38.1063 46.0001 37C46.0001 35.8937 45.5607 34.8327 44.7784 34.0504C43.9961 33.2681 42.9351 32.8287 41.8288 32.8287L37.2822 32.8302C36.6677 32.8305 36.1696 32.3323 36.1698 31.7179Z" fill="url(#paint1_linear_201_104)"/>
<defs>
<linearGradient id="paint0_linear_201_104" x1="32" y1="62" x2="32" y2="2" gradientUnits="userSpaceOnUse">
<stop stop-color="#FD5900"/>
<stop offset="1" stop-color="#FFDE00"/>
</linearGradient>
<linearGradient id="paint1_linear_201_104" x1="32.0001" y1="51" x2="32.0001" y2="23" gradientUnits="userSpaceOnUse">
<stop stop-color="#FD5900"/>
<stop offset="1" stop-color="#FFDE00"/>
</linearGradient>
</defs>
</svg>
