<svg width="64" height="64" viewBox="0 0 64 64" fill="none" xmlns="http://www.w3.org/2000/svg">
<g opacity="0.4">
<rect x="4" y="2" width="50" height="60" rx="14" fill="#D9D9D9"/>
<rect x="4" y="2" width="50" height="60" rx="14" fill="url(#paint0_linear_23_120)"/>
</g>
<path d="M55.6813 60.6809C55.2633 61.0991 54.7671 61.4308 54.221 61.6571C53.6749 61.8835 53.0895 62 52.4983 62C51.9072 62 51.3218 61.8835 50.7757 61.6571C50.2296 61.4308 49.7334 61.0991 49.3154 60.6809L43.2827 54.6452C41.481 55.5254 39.5041 55.9879 37.4989 55.9981C34.8289 55.9981 32.2189 55.2065 29.999 53.723C27.779 52.2397 26.0487 50.1314 25.027 47.6647C24.0052 45.198 23.7379 42.4837 24.2588 39.8651C24.7797 37.2464 26.0654 34.841 27.9533 32.953C29.8413 31.0651 32.2467 29.7794 34.8653 29.2585C37.4839 28.7377 40.1983 29.0049 42.665 30.0267C45.1317 31.0485 47.2399 32.7788 48.7234 34.9988C50.2067 37.2188 50.9984 39.8287 50.9984 42.4987C50.9881 44.5038 50.5256 46.4807 49.6454 48.2824L55.6813 54.3152C56.0993 54.7331 56.4311 55.2293 56.6574 55.7754C56.8838 56.3215 57.0002 56.907 57.0002 57.4981C57.0002 58.0893 56.8838 58.6747 56.6574 59.2208C56.4311 59.7669 56.0993 60.2631 55.6813 60.6809ZM37.4989 46.9985C38.3889 46.9985 39.2589 46.7345 39.9988 46.2402C40.7389 45.7456 41.3156 45.0429 41.6562 44.2207C41.9968 43.3985 42.0858 42.4937 41.9122 41.6208C41.7387 40.7479 41.31 39.9461 40.6808 39.3168C40.0514 38.6875 39.2497 38.2589 38.3768 38.0853C37.5039 37.9116 36.5991 38.0008 35.7769 38.3413C34.9547 38.6819 34.2518 39.2587 33.7574 39.9987C33.2629 40.7387 32.999 41.6087 32.999 42.4987C32.999 43.6921 33.4732 44.8366 34.317 45.6805C35.1609 46.5244 36.3055 46.9985 37.4989 46.9985Z" fill="url(#paint1_linear_23_120)"/>
<path opacity="0.4" d="M42.6809 14.3179C41.8371 13.4741 40.6926 13 39.4991 13H18.4998C17.3065 13 16.1619 13.4741 15.3181 14.3179C14.4741 15.1618 14 16.3063 14 17.4998C14 18.6932 14.4741 19.8378 15.3181 20.6816C16.1619 21.5256 17.3065 21.9997 18.4998 21.9997H39.4991C40.6926 21.9997 41.8371 21.5256 42.6809 20.6816C43.5249 19.8378 43.9989 18.6932 43.9989 17.4998C43.9989 16.3063 43.5249 15.1618 42.6809 14.3179Z" fill="url(#paint2_linear_23_120)"/>
<defs>
<linearGradient id="paint0_linear_23_120" x1="-11.6406" y1="-17.2122" x2="69.5208" y2="50.4415" gradientUnits="userSpaceOnUse">
<stop stop-color="#F9D423"/>
<stop offset="0.515624" stop-color="#FF4E50"/>
<stop offset="0.991304" stop-color="#8A2387"/>
</linearGradient>
<linearGradient id="paint1_linear_23_120" x1="-9.9534" y1="-9.29094" x2="64.1855" y2="60.7492" gradientUnits="userSpaceOnUse">
<stop stop-color="#F9D423"/>
<stop offset="0.515624" stop-color="#FF4E50"/>
<stop offset="0.991304" stop-color="#8A2387"/>
</linearGradient>
<linearGradient id="paint2_linear_23_120" x1="-9.23721" y1="-9.29131" x2="64.9017" y2="60.7488" gradientUnits="userSpaceOnUse">
<stop stop-color="#F9D423"/>
<stop offset="0.515624" stop-color="#FF4E50"/>
<stop offset="0.991304" stop-color="#8A2387"/>
</linearGradient>
</defs>
</svg>
