<svg width="24" height="24" viewBox="0 0 24 24" fill="none" xmlns="http://www.w3.org/2000/svg">
<path opacity="0.5" d="M21.3885 21.3885C23 19.7792 23 17.1854 23 12C23 11.6249 23 11.4368 22.9835 11.2454C22.9021 10.346 22.5487 9.49265 21.9704 8.799C21.8012 8.60682 21.6239 8.42185 21.4391 8.2446L15.7554 2.5609C15.578 2.37624 15.393 2.19899 15.201 2.0296C14.5072 1.45174 13.6539 1.09876 12.7546 1.0176C12.5632 1 12.374 1 12 1C6.8146 1 4.2219 1 2.6104 2.6104C1 4.223 1 6.8146 1 12C1 17.1854 1 19.7781 2.6104 21.3885C3.3639 22.142 4.3297 22.5435 5.675 22.7558L7.325 22.9241C8.5966 23 10.13 23 12 23C13.87 23 15.4034 23 16.675 22.9241L18.325 22.7558C19.6703 22.5424 20.6372 22.1409 21.3885 21.3885Z" fill="url(#paint0_linear_345_679)"/>
<path fill-rule="evenodd" clip-rule="evenodd" d="M5.91669 7.01654C6.0714 6.86182 6.28125 6.7749 6.50005 6.7749H13.1C13.3189 6.7749 13.5287 6.86182 13.6834 7.01654C13.8381 7.17126 13.925 7.3811 13.925 7.5999C13.925 7.81871 13.8381 8.02855 13.6834 8.18327C13.5287 8.33798 13.3189 8.4249 13.1 8.4249H6.50005C6.28125 8.4249 6.0714 8.33798 5.91669 8.18327C5.76197 8.02855 5.67505 7.81871 5.67505 7.5999C5.67505 7.3811 5.76197 7.17126 5.91669 7.01654ZM18.325 22.0962C18.325 22.3257 18.2993 22.5493 18.2505 22.7637L16.675 22.9243C15.4033 23 13.8701 23 12 23C10.1299 23 8.59668 23 7.32495 22.9243L5.74951 22.7637C5.70068 22.5493 5.67505 22.3257 5.67505 22.0962V19.6406C5.67505 17.9839 7.01831 16.6406 8.67505 16.6406H15.325C16.9817 16.6406 18.325 17.9839 18.325 19.6406V22.0962Z" fill="url(#paint1_linear_345_679)"/>
<defs>
<linearGradient id="paint0_linear_345_679" x1="18.9147" y1="19.0473" x2="6.53462" y2="4.80647" gradientUnits="userSpaceOnUse">
<stop stop-color="#248EFE"/>
<stop offset="1" stop-color="#1DF4FF"/>
</linearGradient>
<linearGradient id="paint1_linear_345_679" x1="15.9759" y1="20.0849" x2="6.81029" y2="11.8648" gradientUnits="userSpaceOnUse">
<stop stop-color="#248EFE"/>
<stop offset="1" stop-color="#1DF4FF"/>
</linearGradient>
</defs>
</svg>
