<svg width="64" height="64" viewBox="0 0 64 64" fill="none" xmlns="http://www.w3.org/2000/svg">
<path opacity="0.4" d="M57 22.3925V48.25C56.996 51.8955 55.5461 55.3906 52.9683 57.9683C50.3905 60.5461 46.8955 61.996 43.25 62H20.75C17.1045 61.996 13.6094 60.5461 11.0317 57.9683C8.4539 55.3906 7.00397 51.8955 7 48.25V15.75C7.00397 12.1045 8.4539 8.60948 11.0317 6.03171C13.6094 3.45395 17.1045 2.00402 20.75 2.00005H36.6075C38.4139 1.99517 40.2033 2.34863 41.8721 3.03995C43.541 3.73127 45.0562 4.74673 46.33 6.02755L52.9725 12.67C54.2533 13.9438 55.2687 15.459 55.9601 17.1279C56.6514 18.7967 57.0048 20.5862 57 22.3925Z" fill="url(#paint0_linear_201_92)"/>
<path d="M35.8401 47.3001V36.4615C35.8401 34.9554 37.0611 33.7341 38.5673 33.7341H40.1981C40.7165 33.7341 41.2229 33.5895 41.6537 33.3184C42.0847 33.0474 42.4205 32.6622 42.6187 32.2115C42.8171 31.761 42.869 31.265 42.7679 30.7866C42.6668 30.3081 42.4172 29.8689 42.0509 29.5239L33.7619 21.7221C33.2705 21.2598 32.604 21 31.9091 21C31.2142 21 30.5477 21.2598 30.0563 21.7221L21.7672 29.5239C21.401 29.8689 21.1514 30.3081 21.0503 30.7866C20.9492 31.265 21.0012 31.761 21.1995 32.2115C21.3976 32.6622 21.7335 33.0474 22.1645 33.3184C22.5952 33.5895 23.102 33.7341 23.6201 33.7341H25.2509C26.7571 33.7341 27.9781 34.9554 27.9781 36.4615V47.3001C27.9781 48.2815 28.3925 49.2226 29.1296 49.9165C29.8667 50.6103 30.8665 51 31.9091 51C32.9516 51 33.9516 50.6103 34.6887 49.9165C35.426 49.2226 35.8401 48.2815 35.8401 47.3001Z" fill="url(#paint1_linear_201_92)"/>
<defs>
<linearGradient id="paint0_linear_201_92" x1="32" y1="62" x2="32" y2="2" gradientUnits="userSpaceOnUse">
<stop stop-color="#A93AFF"/>
<stop offset="1" stop-color="#FF81FF"/>
</linearGradient>
<linearGradient id="paint1_linear_201_92" x1="31.9091" y1="51" x2="31.9091" y2="21" gradientUnits="userSpaceOnUse">
<stop stop-color="#A93AFF"/>
<stop offset="1" stop-color="#FF81FF"/>
</linearGradient>
</defs>
</svg>
