<svg width="32" height="32" viewBox="0 0 32 32" fill="none" xmlns="http://www.w3.org/2000/svg">
<path d="M13.6808 10.8808C13.0889 10.2889 12.9658 9.39518 13.1139 8.5714C13.1704 8.25732 13.2 7.93322 13.2 7.6C13.2 4.506 10.694 2 7.6 2C4.506 2 2 4.506 2 7.6C2 10.694 4.506 13.2 7.6 13.2C7.93322 13.2 8.25732 13.1704 8.5714 13.1139C9.39517 12.9658 10.2889 13.0889 10.8808 13.6808L11.7858 14.5858C12.5668 15.3668 12.5668 16.6332 11.7858 17.4142L10.8808 18.3192C10.2889 18.9111 9.39517 19.0342 8.5714 18.8861C8.25732 18.8296 7.93322 18.8 7.6 18.8C4.506 18.8 2 21.306 2 24.4C2 27.494 4.506 30 7.6 30C10.694 30 13.2 27.494 13.2 24.4C13.2 24.0668 13.1704 23.7427 13.1139 23.4286C12.9658 22.6048 13.0889 21.7111 13.6808 21.1192L14.5858 20.2142C15.3668 19.4332 16.6332 19.4332 17.4142 20.2142L25.2142 28.0142C25.5893 28.3893 26.098 28.6 26.6284 28.6H29.01C29.5568 28.6 30 28.1568 30 27.6101C30 27.3475 29.8957 27.0957 29.7101 26.9101L13.6808 10.8808ZM7.6 10.4C6.06 10.4 4.8 9.154 4.8 7.6C4.8 6.046 6.06 4.8 7.6 4.8C9.14 4.8 10.4 6.046 10.4 7.6C10.4 9.154 9.14 10.4 7.6 10.4ZM7.6 27.2C6.06 27.2 4.8 25.954 4.8 24.4C4.8 22.846 6.06 21.6 7.6 21.6C9.14 21.6 10.4 22.846 10.4 24.4C10.4 25.954 9.14 27.2 7.6 27.2ZM16 16.7C15.608 16.7 15.3 16.392 15.3 16C15.3 15.608 15.608 15.3 16 15.3C16.392 15.3 16.7 15.608 16.7 16C16.7 16.392 16.392 16.7 16 16.7Z" fill="url(#paint0_linear_36_169)" stroke="url(#paint1_linear_36_169)"/>
<path opacity="0.4" d="M26.6284 2.90002C25.9654 2.90002 25.3295 3.16342 24.8606 3.63225L18.4464 10.0465C17.478 11.0149 17.478 12.5851 18.4464 13.5536C19.4149 14.522 20.9851 14.522 21.9535 13.5536L30.0636 5.44353C30.343 5.16413 30.5 4.78513 30.5 4.38997C30.5 3.56712 29.833 2.90002 29.0101 2.90002H26.6284Z" fill="url(#paint2_linear_36_169)"/>
<defs>
<linearGradient id="paint0_linear_36_169" x1="16" y1="30" x2="16" y2="2" gradientUnits="userSpaceOnUse">
<stop stop-color="#FD2E00"/>
<stop offset="1" stop-color="#FF9900"/>
</linearGradient>
<linearGradient id="paint1_linear_36_169" x1="16" y1="30" x2="16" y2="2" gradientUnits="userSpaceOnUse">
<stop stop-color="#FD2E00"/>
<stop offset="1" stop-color="#FF9900"/>
</linearGradient>
<linearGradient id="paint2_linear_36_169" x1="16" y1="30" x2="16" y2="2" gradientUnits="userSpaceOnUse">
<stop stop-color="#FD2E00"/>
<stop offset="1" stop-color="#FF9900"/>
</linearGradient>
</defs>
</svg>
