<svg width="24" height="24" viewBox="0 0 24 24" fill="none" xmlns="http://www.w3.org/2000/svg">
<path d="M5.95996 11.3368C5.95996 8.33816 5.95996 6.83886 6.88726 5.90716C7.81566 4.97546 9.30836 4.97546 12.296 4.97546H15.464C18.4505 4.97546 19.9432 4.97546 20.8716 5.90716C21.8 6.83886 21.8 8.33816 21.8 11.3368V16.6388C21.8 19.6374 21.8 21.1367 20.8716 22.0684C19.9443 23.0001 18.4505 23.0001 15.464 23.0001H12.296C9.30836 23.0001 7.81566 23.0001 6.88726 22.0684C5.95996 21.1367 5.95996 19.6374 5.95996 16.6388V11.3368Z" fill="url(#paint0_linear_8_356)"/>
<path opacity="0.4" d="M3.2892 2.2892C2 3.5773 2 5.6519 2 9.8V12C2 16.1481 2 18.2227 3.2892 19.5108C3.9679 20.1906 4.8655 20.5118 6.1712 20.6636C5.96 19.7396 5.96 18.468 5.96 16.6376V11.3367C5.96 8.3381 5.96 6.8388 6.8873 5.9071C7.8157 4.9754 9.3084 4.9754 12.296 4.9754H15.464C17.2812 4.9754 18.544 4.9754 19.4658 5.1844C19.314 3.8721 18.9928 2.9712 18.3108 2.2892C17.0227 1 14.9481 1 10.8 1C6.6519 1 4.5773 1 3.2892 2.2892Z" fill="url(#paint1_linear_8_356)"/>
<defs>
<linearGradient id="paint0_linear_8_356" x1="13.88" y1="23.0001" x2="13.88" y2="4.97546" gradientUnits="userSpaceOnUse">
<stop stop-color="#5558FF"/>
<stop offset="1" stop-color="#00C0FF"/>
</linearGradient>
<linearGradient id="paint1_linear_8_356" x1="10.7329" y1="20.6636" x2="10.7329" y2="1" gradientUnits="userSpaceOnUse">
<stop stop-color="#5558FF"/>
<stop offset="1" stop-color="#00C0FF"/>
</linearGradient>
</defs>
</svg>
