<svg width="32" height="32" viewBox="0 0 32 32" fill="none" xmlns="http://www.w3.org/2000/svg">
<path opacity="0.5" d="M27.6429 31.0001H8.35719C8.07305 31.0001 7.80048 30.8872 7.59959 30.6863C7.39869 30.4854 7.28577 30.2128 7.28577 29.9287V6.35719C7.28577 6.07305 7.39869 5.80048 7.59959 5.59959C7.80048 5.39869 8.07305 5.28577 8.35719 5.28577H27.6429C27.9271 5.28577 28.1997 5.39869 28.4006 5.59959C28.6014 5.80048 28.7144 6.07305 28.7144 6.35719V29.9287C28.7144 30.2128 28.6014 30.4854 28.4006 30.6863C28.1997 30.8872 27.9271 31.0001 27.6429 31.0001Z" fill="url(#paint0_linear_81_266)"/>
<path fill-rule="evenodd" clip-rule="evenodd" d="M11.5715 12.7144C11.5715 12.1621 12.0192 11.7144 12.5715 11.7144H23.4286C23.9809 11.7144 24.4286 12.1621 24.4286 12.7144V13.2858C24.4286 13.8381 23.9809 14.2858 23.4286 14.2858H12.5715C12.0192 14.2858 11.5715 13.8381 11.5715 13.2858V12.7144ZM11.5714 17.8572C11.5714 17.3049 12.0192 16.8572 12.5714 16.8572H23.4286C23.9809 16.8572 24.4286 17.3049 24.4286 17.8572V18.4287C24.4286 18.9809 23.9809 19.4287 23.4286 19.4287H12.5714C12.0192 19.4287 11.5714 18.9809 11.5714 18.4287V17.8572ZM24.4286 23C24.4286 22.4477 23.9809 22 23.4286 22H12.5714C12.0192 22 11.5714 22.4477 11.5714 23V23.5714C11.5714 24.1237 12.0192 24.5714 12.5714 24.5714H23.4286C23.9809 24.5714 24.4286 24.1237 24.4286 23.5714V23Z" fill="url(#paint1_linear_81_266)"/>
<path opacity="0.5" d="M5.14286 24.5714V4.14286C5.14286 3.59057 5.59057 3.14286 6.14286 3.14286H23.4286C23.9809 3.14286 24.4286 2.69514 24.4286 2.14286V2.07143C24.4286 1.78726 24.3156 1.51475 24.1147 1.31381C23.9139 1.11289 23.6413 1 23.3571 1H4.07143C3.78726 1 3.51475 1.11289 3.31381 1.31381C3.11289 1.51475 3 1.78726 3 2.07143V25.6429C3 25.927 3.11289 26.1996 3.31381 26.4005C3.51475 26.6014 3.78726 26.7143 4.07143 26.7143H4.14286C4.69514 26.7143 5.14286 26.2666 5.14286 25.7143V24.5714Z" fill="url(#paint2_linear_81_266)"/>
<defs>
<linearGradient id="paint0_linear_81_266" x1="18.0001" y1="31.0001" x2="18.0001" y2="5.28577" gradientUnits="userSpaceOnUse">
<stop stop-color="#FD5900"/>
<stop offset="1" stop-color="#FFDE00"/>
</linearGradient>
<linearGradient id="paint1_linear_81_266" x1="18" y1="24.5715" x2="18" y2="11.7144" gradientUnits="userSpaceOnUse">
<stop stop-color="#FD5900"/>
<stop offset="1" stop-color="#FFDE00"/>
</linearGradient>
<linearGradient id="paint2_linear_81_266" x1="13.7143" y1="26.7143" x2="13.7143" y2="1" gradientUnits="userSpaceOnUse">
<stop stop-color="#FD5900"/>
<stop offset="1" stop-color="#FFDE00"/>
</linearGradient>
</defs>
</svg>
