<svg width="24" height="24" viewBox="0 0 24 24" fill="none" xmlns="http://www.w3.org/2000/svg">
<path d="M11.9236 4.52349L17.2146 9.22772C18.2033 10.1069 18.6987 10.546 18.8816 11.0669C19.0414 11.5225 19.0414 12.0189 18.8816 12.4744C18.6987 12.9943 18.2044 13.4333 17.2146 14.3136L11.9225 19.0168C11.4739 19.4165 11.2496 19.6153 11.0593 19.6227C10.9775 19.6258 10.896 19.61 10.8213 19.5764C10.7467 19.5428 10.6807 19.4925 10.6287 19.4292C10.5075 19.2825 10.5075 18.9827 10.5075 18.381V16.415C10.5075 15.8627 10.0591 15.4112 9.50863 15.4555C7.23869 15.6383 4.94411 16.4331 3.20934 17.7166C2.17281 18.482 1.65402 18.8647 1.45735 18.8509C1.37175 18.8493 1.28816 18.8247 1.21525 18.7799C1.14234 18.735 1.08277 18.6714 1.04274 18.5958C0.940678 18.4257 1.03104 17.8962 1.21177 16.8385C2.27492 10.6164 6.25072 8.51901 9.50943 8.17673C10.0587 8.11904 10.5075 7.6765 10.5075 7.12422V5.15817C10.5075 4.55751 10.5075 4.25772 10.6287 4.10995C10.6808 4.04691 10.7468 3.99675 10.8215 3.96337C10.8962 3.93 10.9775 3.91431 11.0593 3.91753C11.2506 3.9239 11.4739 4.12377 11.9236 4.52349Z" fill="url(#paint0_linear_8_674)"/>
<path opacity="0.4" fill-rule="evenodd" clip-rule="evenodd" d="M14.7493 3.25524C14.8205 3.17845 14.9061 3.11644 15.0013 3.07274C15.0965 3.02904 15.1993 3.00452 15.3039 3.00057C15.4086 2.99662 15.513 3.01332 15.6112 3.04972C15.7094 3.08612 15.7994 3.14151 15.8762 3.21272L21.4213 8.36238C21.9325 8.83702 22.3373 9.41452 22.6092 10.0569C22.8811 10.6992 23.0139 11.3919 22.9989 12.0893C22.9838 12.7866 22.8212 13.4729 22.5218 14.1029C22.2224 14.733 21.793 15.2924 21.2619 15.7446L15.8507 20.351C15.771 20.4189 15.6786 20.4705 15.579 20.5027C15.4794 20.5349 15.3744 20.5472 15.27 20.5389C15.1656 20.5306 15.0638 20.5017 14.9706 20.4541C14.8773 20.4064 14.7944 20.3409 14.7264 20.2611C14.6585 20.1814 14.607 20.0891 14.5747 19.9895C14.5425 19.8898 14.5302 19.7848 14.5385 19.6804C14.5469 19.576 14.5757 19.4743 14.6233 19.381C14.671 19.2878 14.7366 19.2048 14.8163 19.1369L20.2275 14.5305C20.5873 14.2243 20.8782 13.8455 21.081 13.4188C21.2839 12.9921 21.394 12.5273 21.4043 12.055C21.4145 11.5826 21.3246 11.1135 21.1405 10.6784C20.9563 10.2433 20.6821 9.85219 20.3359 9.53073L14.7908 4.38213C14.714 4.31094 14.652 4.22531 14.6083 4.13015C14.5646 4.03498 14.54 3.93214 14.5361 3.8275C14.5321 3.72285 14.5488 3.61846 14.5852 3.52027C14.6216 3.42208 14.6781 3.33202 14.7493 3.25524Z" fill="url(#paint1_linear_8_674)"/>
<defs>
<linearGradient id="paint0_linear_8_674" x1="901.072" y1="3.91711" x2="901.072" y2="1574.52" gradientUnits="userSpaceOnUse">
<stop stop-color="#00D479"/>
<stop offset="1" stop-color="#02A5CB"/>
</linearGradient>
<linearGradient id="paint1_linear_8_674" x1="437.76" y1="3" x2="437.76" y2="1757.14" gradientUnits="userSpaceOnUse">
<stop stop-color="#00D479"/>
<stop offset="1" stop-color="#02A5CB"/>
</linearGradient>
</defs>
</svg>
