<svg width="32" height="32" viewBox="0 0 32 32" fill="none" xmlns="http://www.w3.org/2000/svg">
<path opacity="0.5" d="M14.685 27.6371C16.3795 27.6549 18.0608 27.3364 19.6315 26.7001C21.2023 26.0639 22.6312 25.1225 23.8358 23.9305C25.0403 22.7385 25.9966 21.3194 26.6492 19.7554C27.3018 18.1915 27.6378 16.5136 27.6378 14.8189C27.6378 13.1242 27.3018 11.4464 26.6492 9.88241C25.9966 8.31843 25.0403 6.89938 23.8358 5.70734C22.6312 4.5153 21.2023 3.57393 19.6315 2.9377C18.0608 2.30146 16.3795 1.98299 14.685 2.0007C11.3086 2.03599 8.08244 3.40201 5.70734 5.80206C3.33224 8.20211 2 11.4423 2 14.8189C2 18.1955 3.33224 21.4357 5.70734 23.8358C8.08244 26.2358 11.3086 27.6019 14.685 27.6371Z" fill="url(#paint0_linear_5_77)"/>
<path fill-rule="evenodd" clip-rule="evenodd" d="M25.439 25.5737C25.6288 25.3841 25.8861 25.2776 26.1544 25.2776C26.4226 25.2776 26.6799 25.3841 26.8697 25.5737L29.5687 28.2713C29.7586 28.4612 29.8653 28.7188 29.8653 28.9874C29.8653 29.2559 29.7586 29.5135 29.5687 29.7034C29.3788 29.8933 29.1212 30 28.8527 30C28.5841 30 28.3265 29.8933 28.1366 29.7034L25.4404 27.003C25.2508 26.8132 25.1443 26.5559 25.1443 26.2877C25.1443 26.0194 25.2508 25.7621 25.4404 25.5723L25.439 25.5737Z" fill="url(#paint1_linear_5_77)"/>
<path d="M7.01593 17.8711C5.34867 17.8711 4 16.5722 4 14.9407C4 13.3093 5.34867 12 7.01593 12C8.68319 12 10 13.3093 10 14.9407C10 16.5722 8.68319 17.8711 7.01593 17.8711" fill="url(#paint2_linear_5_77)"/>
<path d="M15.0159 17.8711C13.3487 17.8711 12 16.5722 12 14.9407C12 13.3093 13.3487 12 15.0159 12C16.6832 12 18 13.3093 18 14.9407C18 16.5722 16.6832 17.8711 15.0159 17.8711" fill="url(#paint3_linear_5_77)"/>
<path d="M23.0159 17.8711C21.3487 17.8711 20 16.5722 20 14.9407C20 13.3093 21.3487 12 23.0159 12C24.6832 12 26 13.3093 26 14.9407C26 16.5722 24.6832 17.8711 23.0159 17.8711" fill="url(#paint4_linear_5_77)"/>
<defs>
<linearGradient id="paint0_linear_5_77" x1="14.8189" y1="2" x2="14.8189" y2="27.6378" gradientUnits="userSpaceOnUse">
<stop stop-color="#DC18FC"/>
<stop offset="1" stop-color="#8E1EFF"/>
</linearGradient>
<linearGradient id="paint1_linear_5_77" x1="27.5048" y1="25.2776" x2="27.5048" y2="30" gradientUnits="userSpaceOnUse">
<stop stop-color="#DC18FC"/>
<stop offset="1" stop-color="#8E1EFF"/>
</linearGradient>
<linearGradient id="paint2_linear_5_77" x1="7" y1="12" x2="7" y2="17.8711" gradientUnits="userSpaceOnUse">
<stop stop-color="#DC18FC"/>
<stop offset="1" stop-color="#8E1EFF"/>
</linearGradient>
<linearGradient id="paint3_linear_5_77" x1="15" y1="12" x2="15" y2="17.8711" gradientUnits="userSpaceOnUse">
<stop stop-color="#DC18FC"/>
<stop offset="1" stop-color="#8E1EFF"/>
</linearGradient>
<linearGradient id="paint4_linear_5_77" x1="23" y1="12" x2="23" y2="17.8711" gradientUnits="userSpaceOnUse">
<stop stop-color="#DC18FC"/>
<stop offset="1" stop-color="#8E1EFF"/>
</linearGradient>
</defs>
</svg>
