<svg width="24" height="24" viewBox="0 0 24 24" fill="none" xmlns="http://www.w3.org/2000/svg">
<path fill-rule="evenodd" clip-rule="evenodd" d="M21.7157 10.5875L21.1459 12.7129C20.4803 15.1937 20.148 16.4346 19.3945 17.2388C18.7998 17.8738 18.0304 18.3182 17.1832 18.5161C17.0765 18.5414 16.9687 18.5601 16.8587 18.5733C15.8521 18.6976 14.6233 18.3686 12.3878 17.7702C9.90705 17.1046 8.66612 16.7724 7.86194 16.0188C7.2268 15.4239 6.78232 14.654 6.5847 13.8065C6.33387 12.7327 6.66611 11.4929 7.33168 9.01215L7.90044 6.88672L8.16887 5.89111C8.66942 4.05832 9.00606 3.04951 9.65183 2.35974C10.2466 1.72519 11.0161 1.28112 11.8631 1.0836C12.9368 0.832775 14.1777 1.16501 16.6596 1.83058C19.1392 2.49505 20.3802 2.82729 21.1844 3.57977C21.8197 4.17499 22.2642 4.94529 22.4616 5.7932C22.7124 6.86692 22.3802 8.10675 21.7157 10.5875ZM10.9588 9.58641C10.9868 9.48173 11.0353 9.38361 11.1013 9.29765C11.1673 9.21169 11.2496 9.13958 11.3435 9.08543C11.4374 9.03128 11.541 8.99617 11.6485 8.98208C11.7559 8.968 11.8651 8.97522 11.9698 9.00334L17.2833 10.428C17.3908 10.4535 17.492 10.5002 17.581 10.5656C17.67 10.6309 17.7451 10.7134 17.8016 10.8082C17.8582 10.903 17.8951 11.0082 17.9103 11.1176C17.9254 11.227 17.9185 11.3383 17.8898 11.4449C17.8612 11.5515 17.8114 11.6513 17.7435 11.7384C17.6756 11.8254 17.5909 11.8979 17.4944 11.9517C17.398 12.0054 17.2917 12.0392 17.1819 12.0511C17.0722 12.063 16.9611 12.0528 16.8554 12.021L11.5418 10.5974C11.3307 10.5407 11.1506 10.4025 11.0413 10.2131C10.932 10.0238 10.9023 9.79764 10.9588 9.58641ZM10.1051 12.7745C10.1618 12.5634 10.3 12.3834 10.4894 12.274C10.6787 12.1647 10.9037 12.135 11.115 12.1915L14.3031 13.0463C14.4111 13.0712 14.5129 13.1176 14.6025 13.1827C14.6921 13.2478 14.7677 13.3303 14.8248 13.4253C14.8819 13.5202 14.9192 13.6257 14.9346 13.7354C14.95 13.8451 14.9432 13.9568 14.9145 14.0638C14.8859 14.1708 14.8359 14.2709 14.7677 14.3582C14.6995 14.4455 14.6144 14.5182 14.5176 14.5719C14.4207 14.6256 14.3139 14.6592 14.2038 14.6708C14.0936 14.6824 13.9822 14.6716 13.8763 14.6392L10.6881 13.7856C10.5835 13.7575 10.4853 13.709 10.3994 13.643C10.3134 13.577 10.2413 13.4947 10.1872 13.4008C10.133 13.307 10.0979 13.2033 10.0838 13.0959C10.0697 12.9884 10.077 12.8792 10.1051 12.7745Z" fill="url(#paint0_linear_8_703)"/>
<path opacity="0.4" d="M16.8587 18.5733C16.6287 19.2777 16.2246 19.9127 15.6838 20.4193C14.8796 21.1728 13.6386 21.5051 11.1579 22.1695C8.67712 22.834 7.43619 23.1674 6.36357 22.9165C5.51606 22.7189 4.74617 22.2744 4.15124 21.6393C3.39766 20.8351 3.06432 19.5942 2.39985 17.1134L1.83109 14.988C1.16552 12.5072 0.833286 11.2663 1.08301 10.1937C1.28094 9.34603 1.72581 8.57612 2.36135 7.98134C3.16553 7.22776 4.40647 6.89552 6.88723 6.22995C7.35588 6.10454 7.78163 5.99013 8.16887 5.89001L7.90044 6.88672L7.33168 9.01215C6.66611 11.4929 6.33387 12.7327 6.5836 13.8065C6.78152 14.6541 7.22639 15.424 7.86194 16.0188C8.66612 16.7724 9.90705 17.1046 12.3878 17.7702C14.6233 18.3686 15.8521 18.6976 16.8587 18.5733Z" fill="url(#paint1_linear_8_703)"/>
<defs>
<linearGradient id="paint0_linear_8_703" x1="14.5231" y1="18.5993" x2="14.5231" y2="1" gradientUnits="userSpaceOnUse">
<stop stop-color="#5558FF"/>
<stop offset="1" stop-color="#00C0FF"/>
</linearGradient>
<linearGradient id="paint1_linear_8_703" x1="8.92935" y1="23" x2="8.92935" y2="5.89001" gradientUnits="userSpaceOnUse">
<stop stop-color="#5558FF"/>
<stop offset="1" stop-color="#00C0FF"/>
</linearGradient>
</defs>
</svg>
