<svg width="24" height="24" viewBox="0 0 24 24" fill="none" xmlns="http://www.w3.org/2000/svg">
<path d="M12.0764 4.52349L6.78537 9.22772C5.79668 10.1069 5.30128 10.546 5.11842 11.0669C4.95862 11.5225 4.95862 12.0189 5.11842 12.4744C5.30128 12.9943 5.79562 13.4333 6.78537 14.3136L12.0775 19.0168C12.5261 19.4165 12.7504 19.6153 12.9407 19.6227C13.0225 19.6258 13.104 19.61 13.1787 19.5764C13.2533 19.5428 13.3193 19.4925 13.3713 19.4292C13.4925 19.2825 13.4925 18.9827 13.4925 18.381V16.415C13.4925 15.8627 13.9409 15.4112 14.4914 15.4555C16.7613 15.6383 19.0559 16.4331 20.7907 17.7166C21.8272 18.482 22.346 18.8647 22.5427 18.8509C22.6282 18.8493 22.7118 18.8247 22.7848 18.7799C22.8577 18.735 22.9172 18.6714 22.9573 18.5958C23.0593 18.4257 22.969 17.8962 22.7882 16.8385C21.7251 10.6164 17.7493 8.51901 14.4906 8.17673C13.9413 8.11904 13.4925 7.6765 13.4925 7.12422V5.15817C13.4925 4.55751 13.4925 4.25772 13.3713 4.10995C13.3192 4.04691 13.2532 3.99675 13.1785 3.96337C13.1038 3.93 13.0225 3.91431 12.9407 3.91753C12.7494 3.9239 12.5261 4.12377 12.0764 4.52349Z" fill="url(#paint0_linear_8_674)"/>
<path opacity="0.4" fill-rule="evenodd" clip-rule="evenodd" d="M9.25069 3.25524C9.1795 3.17845 9.09387 3.11644 8.99871 3.07274C8.90354 3.02904 8.8007 3.00452 8.69606 3.00057C8.59141 2.99662 8.48702 3.01332 8.38883 3.04972C8.29064 3.08612 8.20059 3.14151 8.12381 3.21272L2.57867 8.36238C2.06752 8.83702 1.66267 9.41452 1.39077 10.0569C1.11887 10.6992 0.986084 11.3919 1.00115 12.0893C1.01621 12.7866 1.17879 13.4729 1.47817 14.1029C1.77755 14.733 2.20696 15.2924 2.73814 15.7446L8.14932 20.351C8.22904 20.4189 8.32135 20.4705 8.42099 20.5027C8.52063 20.5349 8.62565 20.5472 8.73004 20.5389C8.83443 20.5306 8.93616 20.5017 9.02942 20.4541C9.12268 20.4064 9.20563 20.3409 9.27355 20.2611C9.34147 20.1814 9.39302 20.0891 9.42527 19.9895C9.45751 19.8898 9.46981 19.7848 9.46147 19.6804C9.45313 19.576 9.42431 19.4743 9.37665 19.381C9.32899 19.2878 9.26343 19.2048 9.18372 19.1369L3.77253 14.5305C3.41271 14.2243 3.12181 13.8455 2.91897 13.4188C2.71614 12.9921 2.60598 12.5273 2.59573 12.055C2.58549 11.5826 2.6754 11.1135 2.85954 10.6784C3.04368 10.2433 3.31788 9.85219 3.6641 9.53073L9.20923 4.38213C9.28603 4.31094 9.34804 4.22531 9.39174 4.13015C9.43544 4.03498 9.45996 3.93214 9.46391 3.8275C9.46786 3.72285 9.45116 3.61846 9.41475 3.52027C9.37835 3.42208 9.3219 3.33202 9.25069 3.25524Z" fill="url(#paint1_linear_8_674)"/>
<defs>
<linearGradient id="paint0_linear_8_674" x1="13.9993" y1="19.6231" x2="13.9993" y2="3.91711" gradientUnits="userSpaceOnUse">
<stop stop-color="#5558FF"/>
<stop offset="1" stop-color="#00C0FF"/>
</linearGradient>
<linearGradient id="paint1_linear_8_674" x1="5.23224" y1="20.5414" x2="5.23224" y2="3" gradientUnits="userSpaceOnUse">
<stop stop-color="#5558FF"/>
<stop offset="1" stop-color="#00C0FF"/>
</linearGradient>
</defs>
</svg>
