<svg width="16" height="16" viewBox="0 0 16 16" fill="none" xmlns="http://www.w3.org/2000/svg">
<path opacity="0.4" d="M1.5 1C1.22386 1 1 1.22386 1 1.5V13.7929C1 14.2383 1.53857 14.4614 1.85355 14.1464L4.68229 11.3177C3.83779 10.4732 3.33333 9.28866 3.33333 8C3.33333 5.42267 5.42267 3.33333 8 3.33333C9.28866 3.33333 10.4732 3.83779 11.3177 4.68229L14.1464 1.85355C14.4614 1.53857 14.2383 1 13.7929 1H1.5ZM11.3177 4.68229L4.68229 11.3177C5.52679 12.1622 6.71134 12.6667 8 12.6667C10.5773 12.6667 12.6667 10.5773 12.6667 8C12.6667 6.71134 12.1622 5.52679 11.3177 4.68229Z" fill="url(#paint0_linear_54_564)"/>
<path d="M5.03594 10.9641L10.9642 5.03582C11.1595 4.84056 11.4785 4.83905 11.6509 5.05484C12.2932 5.85923 12.6667 6.89105 12.6667 7.99998C12.6667 10.5773 10.5774 12.6666 8.00009 12.6666C6.89116 12.6666 5.85934 12.2931 5.05495 11.6507C4.83917 11.4784 4.84067 11.1594 5.03594 10.9641Z" fill="url(#paint1_linear_54_564)"/>
<defs>
<linearGradient id="paint0_linear_54_564" x1="8" y1="15" x2="8" y2="1" gradientUnits="userSpaceOnUse">
<stop stop-color="#5570FF"/>
<stop offset="1" stop-color="#4DD3FF"/>
</linearGradient>
<linearGradient id="paint1_linear_54_564" x1="8.77897" y1="9.49881" x2="8.77897" y2="4.89111" gradientUnits="userSpaceOnUse">
<stop stop-color="#5558FF"/>
<stop offset="1" stop-color="#00C0FF"/>
</linearGradient>
</defs>
</svg>
