<svg width="16" height="16" viewBox="0 0 16 16" fill="none" xmlns="http://www.w3.org/2000/svg">
<path d="M9.33331 1C9.05717 1 8.83331 1.22386 8.83331 1.5V6.33333C8.83331 6.60948 8.60946 6.83333 8.33331 6.83333H5.83331C5.55717 6.83333 5.33331 7.05719 5.33331 7.33333V7.5C5.33331 7.77614 5.55717 8 5.83331 8H13C13.2761 8 13.5 7.77614 13.5 7.5V7.33333C13.5 7.05719 13.2761 6.83333 13 6.83333H10.5C10.2239 6.83333 9.99998 6.60948 9.99998 6.33333V1.5C9.99998 1.22386 9.77612 1 9.49998 1H9.33331Z" fill="url(#paint0_linear_36_91)" stroke="url(#paint1_linear_36_91)" stroke-width="0.5"/>
<path opacity="0.4" d="M5.32487 9.66703C5.33425 9.39105 5.55719 9.16669 5.83333 9.16669H7.66667H8.83333H11.1667H13C13.2761 9.16669 13.5009 9.39105 13.4915 9.66703C13.39 12.6544 12.3879 15 11.1667 15H8.83333H7.66667H3C4.22125 15 5.22336 12.6544 5.32487 9.66703Z" fill="url(#paint2_linear_36_91)"/>
<defs>
<linearGradient id="paint0_linear_36_91" x1="8.25" y1="15" x2="8.25" y2="1" gradientUnits="userSpaceOnUse">
<stop stop-color="#FFA800"/>
<stop offset="1" stop-color="#FFF737"/>
</linearGradient>
<linearGradient id="paint1_linear_36_91" x1="8.25" y1="15" x2="8.25" y2="1" gradientUnits="userSpaceOnUse">
<stop stop-color="#FFA800"/>
<stop offset="1" stop-color="#FFF737"/>
</linearGradient>
<linearGradient id="paint2_linear_36_91" x1="8.25" y1="15" x2="8.25" y2="1" gradientUnits="userSpaceOnUse">
<stop stop-color="#FFA800"/>
<stop offset="1" stop-color="#FFF737"/>
</linearGradient>
</defs>
</svg>
