<svg width="24" height="24" viewBox="0 0 24 24" fill="none" xmlns="http://www.w3.org/2000/svg">
<path opacity="0.4" fill-rule="evenodd" clip-rule="evenodd" d="M2.6104 21.3885C4.223 23 6.8146 23 12 23C17.1854 23 19.7781 23 21.3885 21.3885C23 19.7792 23 17.1854 23 12C23 6.8146 23 4.2219 21.3885 2.6104C19.7792 1 17.1854 1 12 1C6.8146 1 4.2219 1 2.6104 2.6104C1 4.223 1 6.8146 1 12C1 17.1854 1 19.7781 2.6104 21.3885Z" fill="url(#paint0_linear_8_584)"/>
<path d="M13.5653 17.8982L17.4285 7.81561C17.5018 7.64163 17.5215 7.44975 17.4852 7.2645C17.4489 7.07925 17.3581 6.90904 17.2246 6.77561C17.091 6.64218 16.9208 6.5516 16.7355 6.51544C16.5502 6.47928 16.3583 6.49918 16.1844 6.57261L6.10181 10.4347C5.18881 10.7856 5.15912 12.066 6.05782 12.3388L9.88251 13.5015C10.1795 13.5917 10.4083 13.8205 10.4985 14.1175L11.6612 17.9422C11.934 18.8409 13.2144 18.8112 13.5642 17.8982H13.5653Z" fill="url(#paint1_linear_8_584)"/>
<defs>
<linearGradient id="paint0_linear_8_584" x1="12" y1="23" x2="12" y2="1" gradientUnits="userSpaceOnUse">
<stop stop-color="#A93AFF"/>
<stop offset="1" stop-color="#FF81FF"/>
</linearGradient>
<linearGradient id="paint1_linear_8_584" x1="11.4515" y1="18.5999" x2="11.4515" y2="6.49786" gradientUnits="userSpaceOnUse">
<stop stop-color="#A93AFF"/>
<stop offset="1" stop-color="#FF81FF"/>
</linearGradient>
</defs>
</svg>
