<svg width="24" height="24" viewBox="0 0 24 24" fill="none" xmlns="http://www.w3.org/2000/svg">
<path opacity="0.5" d="M6.3581 20.0489C7.3811 20.6 8.6065 20.6 11.0562 20.6H13.9569C18.2194 20.6 20.3512 20.6 21.6756 19.3108C23 18.0227 23 15.9481 23 11.8C23 7.6519 23 5.5773 21.6756 4.2892C20.3512 3 18.2194 3 13.958 3H11.0573C8.6076 3 7.3822 3 6.3603 3.5511C5.3373 4.1033 4.6883 5.1131 3.3892 7.136L2.639 8.302C1.5467 10.0026 1 10.854 1 11.8C1 12.746 1.5467 13.5974 2.639 15.298L3.387 16.464C4.6861 18.4858 5.3351 19.4967 6.3581 20.0489Z" fill="url(#paint0_linear_8_118)"/>
<path d="M10.4583 7.7232C10.3653 7.62344 10.2532 7.54342 10.1287 7.48793C10.0041 7.43243 9.86965 7.40259 9.73331 7.40018C9.59697 7.39778 9.46155 7.42286 9.33512 7.47393C9.20868 7.52499 9.09383 7.60101 8.99741 7.69742C8.90099 7.79384 8.82498 7.9087 8.77391 8.03513C8.72284 8.16156 8.69776 8.29699 8.70017 8.43332C8.70258 8.56966 8.73242 8.70411 8.78791 8.82867C8.84341 8.95322 8.92343 9.06532 9.02319 9.15828L11.6903 11.8254L9.02319 14.4924C8.92343 14.5854 8.84341 14.6975 8.78791 14.822C8.73242 14.9466 8.70258 15.081 8.70017 15.2174C8.69776 15.3537 8.72284 15.4891 8.77391 15.6156C8.82498 15.742 8.90099 15.8569 8.99741 15.9533C9.09383 16.0497 9.20868 16.1257 9.33512 16.1768C9.46155 16.2278 9.59697 16.2529 9.73331 16.2505C9.86965 16.2481 10.0041 16.2183 10.1287 16.1628C10.2532 16.1073 10.3653 16.0273 10.4583 15.9275L13.1253 13.2604L15.7924 15.9275C15.9849 16.1069 16.2395 16.2045 16.5025 16.1999C16.7656 16.1952 17.0166 16.0887 17.2026 15.9026C17.3886 15.7166 17.4952 15.4656 17.4999 15.2026C17.5045 14.9395 17.4069 14.6849 17.2275 14.4924L14.5604 11.8254L17.2275 9.15828C17.4069 8.96579 17.5045 8.71121 17.4999 8.44815C17.4952 8.1851 17.3886 7.93412 17.2026 7.74808C17.0166 7.56204 16.7656 7.45548 16.5025 7.45084C16.2395 7.4462 15.9849 7.54384 15.7924 7.7232L13.1253 10.3903L10.4583 7.7232Z" fill="url(#paint1_linear_8_118)"/>
<defs>
<linearGradient id="paint0_linear_8_118" x1="22.2568" y1="3.50306" x2="16.4802" y2="21.634" gradientUnits="userSpaceOnUse">
<stop stop-color="#FE0F7C"/>
<stop offset="1" stop-color="#DF0066"/>
</linearGradient>
<linearGradient id="paint1_linear_8_118" x1="17.2027" y1="7.653" x2="13.7362" y2="16.3076" gradientUnits="userSpaceOnUse">
<stop stop-color="#FE0F7C"/>
<stop offset="1" stop-color="#DF0066"/>
</linearGradient>
</defs>
</svg>
