<svg width="24" height="24" viewBox="0 0 24 24" fill="none" xmlns="http://www.w3.org/2000/svg">
<path opacity="0.4" d="M23 12C23 17.1854 23 19.7781 21.3885 21.3885C19.7792 23 17.1854 23 12 23C6.8146 23 4.2219 23 2.6104 21.3885C1 19.7792 1 17.1854 1 12C1 6.8146 1 4.2219 2.6104 2.6104C4.223 1 6.8146 1 12 1C17.1854 1 19.7781 1 21.3885 2.6104C23 4.223 23 6.8146 23 12Z" fill="url(#paint0_linear_8_699)"/>
<path d="M6.50005 17.225C6.28125 17.225 6.0714 17.3119 5.91669 17.4666C5.76197 17.6214 5.67505 17.8312 5.67505 18.05C5.67505 18.2688 5.76197 18.4786 5.91669 18.6334C6.0714 18.7881 6.28125 18.875 6.50005 18.875H13.1C13.3189 18.875 13.5287 18.7881 13.6834 18.6334C13.8381 18.4786 13.925 18.2688 13.925 18.05C13.925 17.8312 13.8381 17.6214 13.6834 17.4666C13.5287 17.3119 13.3189 17.225 13.1 17.225H6.50005ZM6.50005 13.375C6.28125 13.375 6.0714 13.4619 5.91669 13.6166C5.76197 13.7714 5.67505 13.9812 5.67505 14.2C5.67505 14.4188 5.76197 14.6286 5.91669 14.7834C6.0714 14.9381 6.28125 15.025 6.50005 15.025H16.4C16.6189 15.025 16.8287 14.9381 16.9834 14.7834C17.1381 14.6286 17.225 14.4188 17.225 14.2C17.225 13.9812 17.1381 13.7714 16.9834 13.6166C16.8287 13.4619 16.6189 13.375 16.4 13.375H6.50005ZM23 4.3C23 5.17521 22.6524 6.01458 22.0335 6.63345C21.4146 7.25232 20.5753 7.6 19.7 7.6C18.8248 7.6 17.9855 7.25232 17.3666 6.63345C16.7477 6.01458 16.4 5.17521 16.4 4.3C16.4 3.42479 16.7477 2.58542 17.3666 1.96655C17.9855 1.34768 18.8248 1 19.7 1C20.5753 1 21.4146 1.34768 22.0335 1.96655C22.6524 2.58542 23 3.42479 23 4.3Z" fill="url(#paint1_linear_8_699)"/>
<defs>
<linearGradient id="paint0_linear_8_699" x1="12" y1="23" x2="12" y2="1" gradientUnits="userSpaceOnUse">
<stop stop-color="#A93AFF"/>
<stop offset="1" stop-color="#FF81FF"/>
</linearGradient>
<linearGradient id="paint1_linear_8_699" x1="14.3375" y1="18.875" x2="14.3375" y2="1" gradientUnits="userSpaceOnUse">
<stop stop-color="#A93AFF"/>
<stop offset="1" stop-color="#FF81FF"/>
</linearGradient>
</defs>
</svg>
