<svg width="16" height="16" viewBox="0 0 16 16" fill="none" xmlns="http://www.w3.org/2000/svg">
<path opacity="0.4" d="M12.6667 1H3.33333C2.04467 1 1 2.04467 1 3.33333V12.6667C1 13.9553 2.04467 15 3.33333 15H12.6667C13.9553 15 15 13.9553 15 12.6667V3.33333C15 2.04467 13.9553 1 12.6667 1Z" fill="url(#paint0_linear_87_108)"/>
<path d="M8.03751 3.5C6.73273 3.5 5.67501 4.50735 5.67501 5.75V7.67858C5.67501 7.85609 5.5281 8 5.34688 8H4.42813C4.24691 8 4.10001 8.14391 4.10001 8.32142V12.1786C4.10001 12.3561 4.24691 12.5 4.42813 12.5H11.6468C11.8281 12.5 11.975 12.3561 11.975 12.1786V8.32142C11.975 8.14391 11.8281 8 11.6468 8H10.7282C10.5469 8 10.4 7.85609 10.4 7.67858V5.75C10.4 4.50735 9.34229 3.5 8.03751 3.5ZM8.03751 4.25C8.90736 4.25 9.61251 4.92157 9.61251 5.75V7.67858C9.61251 7.85609 9.46557 8 9.28438 8H6.79064C6.60941 8 6.46251 7.85609 6.46251 7.67858V5.75C6.46251 4.92157 7.16766 4.25 8.03751 4.25Z" fill="white"/>
<defs>
<linearGradient id="paint0_linear_87_108" x1="8" y1="15" x2="8" y2="1" gradientUnits="userSpaceOnUse">
<stop stop-color="#A5A5A5"/>
<stop offset="0.9973" stop-color="#DCDCDC"/>
</linearGradient>
</defs>
</svg>
