<svg width="24" height="24" viewBox="0 0 24 24" fill="none" xmlns="http://www.w3.org/2000/svg">
<path opacity="0.4" d="M16.4 4H7.6C4.4892 4 2.9327 4 1.9669 4.9669C1 5.9327 1 7.4892 1 10.6V12.8C1 15.9108 1 17.4673 1.9669 18.4331C2.9327 19.4 4.4892 19.4 7.6 19.4H16.4C19.5108 19.4 21.0673 19.4 22.0331 18.4331C23 17.4673 23 15.9108 23 12.8V10.6C23 7.4892 23 5.9327 22.0331 4.9669C21.0673 4 19.5108 4 16.4 4Z" fill="url(#paint0_linear_299_364)"/>
<path d="M5.40005 9.50005C5.69179 9.50005 5.97158 9.38416 6.17787 9.17787C6.38416 8.97158 6.50005 8.69179 6.50005 8.40005C6.50005 8.10831 6.38416 7.82852 6.17787 7.62223C5.97158 7.41594 5.69179 7.30005 5.40005 7.30005C5.10831 7.30005 4.82852 7.41594 4.62223 7.62223C4.41594 7.82852 4.30005 8.10831 4.30005 8.40005C4.30005 8.69179 4.41594 8.97158 4.62223 9.17787C4.82852 9.38416 5.10831 9.50005 5.40005 9.50005ZM5.40005 12.8001C5.69179 12.8001 5.97158 12.6842 6.17787 12.4779C6.38416 12.2716 6.50005 11.9918 6.50005 11.7001C6.50005 11.4083 6.38416 11.1286 6.17787 10.9223C5.97158 10.716 5.69179 10.6001 5.40005 10.6001C5.10831 10.6001 4.82852 10.716 4.62223 10.9223C4.41594 11.1286 4.30005 11.4083 4.30005 11.7001C4.30005 11.9918 4.41594 12.2716 4.62223 12.4779C4.82852 12.6842 5.10831 12.8001 5.40005 12.8001ZM8.70005 12.8001C8.99179 12.8001 9.27158 12.6842 9.47787 12.4779C9.68416 12.2716 9.80005 11.9918 9.80005 11.7001C9.80005 11.4083 9.68416 11.1286 9.47787 10.9223C9.27158 10.716 8.99179 10.6001 8.70005 10.6001C8.40831 10.6001 8.12852 10.716 7.92223 10.9223C7.71594 11.1286 7.60005 11.4083 7.60005 11.7001C7.60005 11.9918 7.71594 12.2716 7.92223 12.4779C8.12852 12.6842 8.40831 12.8001 8.70005 12.8001ZM8.70005 9.50005C8.99179 9.50005 9.27158 9.38416 9.47787 9.17787C9.68416 8.97158 9.80005 8.69179 9.80005 8.40005C9.80005 8.10831 9.68416 7.82852 9.47787 7.62223C9.27158 7.41594 8.99179 7.30005 8.70005 7.30005C8.40831 7.30005 8.12852 7.41594 7.92223 7.62223C7.71594 7.82852 7.60005 8.10831 7.60005 8.40005C7.60005 8.69179 7.71594 8.97158 7.92223 9.17787C8.12852 9.38416 8.40831 9.50005 8.70005 9.50005ZM12.0001 9.50005C12.2918 9.50005 12.5716 9.38416 12.7779 9.17787C12.9842 8.97158 13.1001 8.69179 13.1001 8.40005C13.1001 8.10831 12.9842 7.82852 12.7779 7.62223C12.5716 7.41594 12.2918 7.30005 12.0001 7.30005C11.7083 7.30005 11.4286 7.41594 11.2223 7.62223C11.016 7.82852 10.9001 8.10831 10.9001 8.40005C10.9001 8.69179 11.016 8.97158 11.2223 9.17787C11.4286 9.38416 11.7083 9.50005 12.0001 9.50005ZM12.0001 12.8001C12.2918 12.8001 12.5716 12.6842 12.7779 12.4779C12.9842 12.2716 13.1001 11.9918 13.1001 11.7001C13.1001 11.4083 12.9842 11.1286 12.7779 10.9223C12.5716 10.716 12.2918 10.6001 12.0001 10.6001C11.7083 10.6001 11.4286 10.716 11.2223 10.9223C11.016 11.1286 10.9001 11.4083 10.9001 11.7001C10.9001 11.9918 11.016 12.2716 11.2223 12.4779C11.4286 12.6842 11.7083 12.8001 12.0001 12.8001ZM15.3001 9.50005C15.5918 9.50005 15.8716 9.38416 16.0779 9.17787C16.2842 8.97158 16.4001 8.69179 16.4001 8.40005C16.4001 8.10831 16.2842 7.82852 16.0779 7.62223C15.8716 7.41594 15.5918 7.30005 15.3001 7.30005C15.0084 7.30005 14.7286 7.41594 14.5223 7.62223C14.316 7.82852 14.2001 8.10831 14.2001 8.40005C14.2001 8.69179 14.316 8.97158 14.5223 9.17787C14.7286 9.38416 15.0084 9.50005 15.3001 9.50005ZM15.3001 12.8001C15.5918 12.8001 15.8716 12.6842 16.0779 12.4779C16.2842 12.2716 16.4001 11.9918 16.4001 11.7001C16.4001 11.4083 16.2842 11.1286 16.0779 10.9223C15.8716 10.716 15.5918 10.6001 15.3001 10.6001C15.0084 10.6001 14.7286 10.716 14.5223 10.9223C14.316 11.1286 14.2001 11.4083 14.2001 11.7001C14.2001 11.9918 14.316 12.2716 14.5223 12.4779C14.7286 12.6842 15.0084 12.8001 15.3001 12.8001ZM18.6001 9.50005C18.8918 9.50005 19.1716 9.38416 19.3779 9.17787C19.5842 8.97158 19.7001 8.69179 19.7001 8.40005C19.7001 8.10831 19.5842 7.82852 19.3779 7.62223C19.1716 7.41594 18.8918 7.30005 18.6001 7.30005C18.3083 7.30005 18.0286 7.41594 17.8223 7.62223C17.616 7.82852 17.5001 8.10831 17.5001 8.40005C17.5001 8.69179 17.616 8.97158 17.8223 9.17787C18.0286 9.38416 18.3083 9.50005 18.6001 9.50005ZM18.6001 12.8001C18.8918 12.8001 19.1716 12.6842 19.3779 12.4779C19.5842 12.2716 19.7001 11.9918 19.7001 11.7001C19.7001 11.4083 19.5842 11.1286 19.3779 10.9223C19.1716 10.716 18.8918 10.6001 18.6001 10.6001C18.3083 10.6001 18.0286 10.716 17.8223 10.9223C17.616 11.1286 17.5001 11.4083 17.5001 11.7001C17.5001 11.9918 17.616 12.2716 17.8223 12.4779C18.0286 12.6842 18.3083 12.8001 18.6001 12.8001ZM18.3251 16.1001C18.3251 16.3189 18.2382 16.5287 18.0835 16.6835C17.9287 16.8382 17.7189 16.9251 17.5001 16.9251H6.50005C6.28124 16.9251 6.0714 16.8382 5.91668 16.6835C5.76197 16.5287 5.67505 16.3189 5.67505 16.1001C5.67505 15.8813 5.76197 15.6714 5.91668 15.5167C6.0714 15.362 6.28124 15.2751 6.50005 15.2751H17.5001C17.7189 15.2751 17.9287 15.362 18.0835 15.5167C18.2382 15.6714 18.3251 15.8813 18.3251 16.1001Z" fill="url(#paint1_linear_299_364)"/>
<defs>
<linearGradient id="paint0_linear_299_364" x1="22.3795" y1="11.7" x2="5.99574" y2="3.23344" gradientUnits="userSpaceOnUse">
<stop stop-color="#FE7970"/>
<stop offset="1" stop-color="#DC3282"/>
</linearGradient>
<linearGradient id="paint1_linear_299_364" x1="19.2657" y1="12.1126" x2="8.3807" y2="5.81256" gradientUnits="userSpaceOnUse">
<stop stop-color="#FE7970"/>
<stop offset="1" stop-color="#DC3282"/>
</linearGradient>
</defs>
</svg>
