<svg width="32" height="32" viewBox="0 0 32 32" fill="none" xmlns="http://www.w3.org/2000/svg">
<path d="M29.6698 10.004C29.5828 9.89863 29.4081 9.77045 29.2825 9.685C29.1871 9.62014 29.0817 9.57223 28.9704 9.54184C28.8132 9.49897 28.5811 9.44294 28.4407 9.44294H26.1949C25.3079 9.44294 24.6443 8.62905 24.8228 7.76019L25.576 4.0946C25.6308 3.85815 25.6313 3.61239 25.5778 3.37565C25.5244 3.13889 25.4183 2.91727 25.2671 2.72727L25.2695 2.73073C25.1239 2.55542 24.9417 2.41434 24.7353 2.31758C24.529 2.2208 24.304 2.17073 24.0761 2.1709H24.0381H24.0404C23.0038 2.20431 22.1479 2.93693 21.9267 3.91031L21.9232 3.92527L21.6249 5.379C21.6155 5.41586 21.5994 5.45042 21.5914 5.48727L21.0063 8.32605C20.8721 8.97702 20.299 9.4442 19.6343 9.4442H15.8207C14.9337 9.4442 14.27 8.63017 14.4486 7.76134L15.2017 4.09576C15.2566 3.8593 15.2571 3.61354 15.2036 3.3768C15.1502 3.14006 15.0441 2.91841 14.893 2.72843L14.8953 2.73188C14.7499 2.55656 14.5675 2.41549 14.3611 2.31873C14.1549 2.22195 13.9297 2.17188 13.7019 2.17205H13.664H13.6662C12.6294 2.20546 11.7735 2.93808 11.5525 3.91146L11.549 3.92643L11.2482 5.389C11.2413 5.42218 11.2301 5.45417 11.223 5.48727L10.6433 8.32381C10.5101 8.9759 9.93632 9.4442 9.27078 9.4442H6.0981C5.06138 9.47754 4.2055 10.2091 3.98317 11.1824L3.97972 11.1973C3.92463 11.4338 3.92367 11.6798 3.97692 11.9167C4.03019 12.1538 4.13627 12.3756 4.28728 12.5658L4.28498 12.5623C4.57065 12.9057 4.99802 13.1234 5.47722 13.1234H5.51637H5.51408H7.93928C8.82643 13.1234 9.49015 13.9374 9.3114 14.8063L8.7103 17.7297C8.57638 18.381 8.00316 18.8485 7.33818 18.8485H4.15942C3.12269 18.8818 2.2668 19.6144 2.04449 20.5879L2.04103 20.6027C1.98682 20.8388 1.98633 21.0841 2.03956 21.3202C2.09279 21.5567 2.1984 21.7779 2.3486 21.9678L2.3463 21.9643C2.63312 22.3077 3.06049 22.5254 3.53968 22.5254H3.57884H3.57655H6.00176C6.88886 22.5254 7.55258 23.3394 7.37389 24.2083L6.61415 27.9025C6.55941 28.139 6.55874 28.3847 6.61219 28.6214C6.66565 28.8583 6.77185 29.0799 6.92287 29.2699L6.92058 29.2664C7.2074 29.6097 7.63474 29.8274 8.11396 29.8274H8.15193H8.14969C8.64474 29.8117 9.12089 29.6325 9.50346 29.3179C9.88603 29.0033 10.1537 28.5707 10.2645 28.088L10.268 28.073L11.1784 23.6463C11.3124 22.9951 11.8856 22.5276 12.5506 22.5276H16.3667C17.2537 22.5276 17.9175 23.3418 17.7389 24.2106L16.979 27.9049C16.9244 28.1413 16.9237 28.387 16.9772 28.6238C17.0306 28.8607 17.1368 29.0823 17.2879 29.2721L17.2855 29.2686C17.5723 29.6119 17.9997 29.8285 18.4789 29.8285H18.5169H18.5146C19.0097 29.813 19.4856 29.6339 19.868 29.3192C20.2506 29.0044 20.518 28.572 20.6284 28.0891L20.6319 28.0741L21.5423 23.6474C21.6762 22.9962 22.2494 22.5289 22.9144 22.5289H25.9192C26.4141 22.5132 26.89 22.3342 27.2727 22.0198C27.6553 21.7053 27.923 21.273 28.0342 20.7906L28.0375 20.7756C28.0944 20.5394 28.0965 20.2934 28.044 20.0564C27.9916 19.8192 27.8857 19.5972 27.7347 19.4071L27.7369 19.4106C27.5914 19.2351 27.4087 19.0937 27.2022 18.9969C26.9957 18.9 26.7705 18.8496 26.5424 18.8496H26.501H26.5032H24.2508C23.3636 18.8496 22.6999 18.0355 22.8787 17.1666L23.4798 14.2432C23.6137 13.5918 24.1871 13.1245 24.8519 13.1245H27.8567C28.3519 13.1088 28.8279 12.9298 29.2105 12.615C29.5932 12.3005 29.8607 11.8679 29.9717 11.3851L29.975 11.3701C30.0098 11.2203 30.0014 10.9715 29.9906 10.8093C29.9836 10.7037 29.9602 10.6002 29.9213 10.5017C29.8613 10.3505 29.7621 10.1222 29.6664 10.0016C29.5419 9.84498 29.6241 9.94878 29.6569 9.99024C29.6648 10.0002 29.6727 10.01 29.681 10.0197C29.7128 10.0576 29.7879 10.1469 29.6698 10.004ZM13.8892 18.845C13.0022 18.845 12.3385 18.0309 12.5171 17.162L13.1183 14.2386C13.2522 13.5873 13.8255 13.1199 14.4904 13.1199H18.3066C19.1936 13.1199 19.8573 13.934 19.6787 14.8028L19.0775 17.7264C18.9436 18.3776 18.3703 18.845 17.7054 18.845H13.8892Z" fill="url(#paint0_linear_273_78)" stroke="url(#paint1_linear_273_78)"/>
<defs>
<linearGradient id="paint0_linear_273_78" x1="16" y1="29.8285" x2="16" y2="2.1709" gradientUnits="userSpaceOnUse">
<stop stop-color="#A93AFF"/>
<stop offset="1" stop-color="#FF81FF"/>
</linearGradient>
<linearGradient id="paint1_linear_273_78" x1="16" y1="29.8285" x2="16" y2="2.1709" gradientUnits="userSpaceOnUse">
<stop stop-color="#A93AFF"/>
<stop offset="1" stop-color="#FF81FF"/>
</linearGradient>
</defs>
</svg>
