<svg width="24" height="24" viewBox="0 0 24 24" fill="none" xmlns="http://www.w3.org/2000/svg">
<path opacity="0.5" d="M12 23C18.0753 23 23 18.0753 23 12C23 5.9247 18.0753 1 12 1C5.9247 1 1 5.9247 1 12C1 18.0753 5.9247 23 12 23Z" fill="url(#paint0_linear_94_67)"/>
<path d="M11.9989 3.20001C9.95745 3.20411 7.98409 3.94364 6.41408 5.28613C6.27142 5.40817 6.26082 5.62524 6.39129 5.76043L7.19038 6.58913C7.30844 6.71167 7.50113 6.72271 7.63258 6.61431C8.87174 5.59231 10.4102 5.03092 11.9995 5.02651C13.868 5.02651 15.6598 5.79621 16.981 7.16617C18.2309 8.46255 18.9628 10.1956 19.038 12.0197C19.0451 12.1946 19.1892 12.3323 19.3639 12.3323H20.4739C20.6583 12.3323 20.8064 12.1793 20.7997 11.9946C20.7178 9.6954 19.8011 7.50773 18.2265 5.87487C16.575 4.16224 14.3343 3.20009 11.9989 3.20001Z" fill="url(#paint1_linear_94_67)"/>
<path d="M4.37306 8.83281C4.20787 8.66136 3.92076 8.71896 3.83436 8.94073C3.45563 9.91258 3.241 10.9455 3.2002 11.9937C3.19301 12.1785 3.34102 12.3323 3.52612 12.3323H4.63578C4.81035 12.3323 4.95397 12.1952 4.96163 12.0206C4.99102 11.3517 5.10898 10.6898 5.31227 10.054C5.3488 9.93956 5.31966 9.81461 5.2364 9.72812L4.37306 8.83281Z" fill="url(#paint2_linear_94_67)"/>
<path d="M11.9989 3.20001C9.95745 3.20411 7.98409 3.94364 6.41408 5.28613C6.27142 5.40817 6.26082 5.62524 6.39129 5.76043L7.19038 6.58913C7.30844 6.71167 7.50113 6.72271 7.63258 6.61431C8.87174 5.59231 10.4102 5.03092 11.9995 5.02651C13.868 5.02651 15.6598 5.79621 16.981 7.16617C18.2309 8.46255 18.9628 10.1956 19.038 12.0197C19.0451 12.1946 19.1892 12.3323 19.3639 12.3323H20.4739C20.6583 12.3323 20.8064 12.1793 20.7997 11.9946C20.7178 9.6954 19.8011 7.50773 18.2265 5.87487C16.575 4.16224 14.3343 3.20009 11.9989 3.20001Z" fill="url(#paint3_linear_94_67)"/>
<path d="M5.2364 9.72812C5.31966 9.81461 5.3488 9.93956 5.31227 10.054C5.10898 10.6898 4.99102 11.3517 4.96163 12.0206C4.95397 12.1952 4.81035 12.3323 4.63578 12.3323H3.52612C3.34102 12.3323 3.19301 12.1785 3.2002 11.9937C3.241 10.9455 3.45563 9.91258 3.83436 8.94073C3.92076 8.71896 4.20787 8.66136 4.37306 8.83281L5.2364 9.72812Z" fill="url(#paint4_linear_94_67)"/>
<path fill-rule="evenodd" clip-rule="evenodd" d="M13.9198 8.51995C13.5137 8.41512 13.091 8.61921 12.921 9.00332ZM12.921 9.00332L9.85928 15.9046C9.58138 16.2335 9.38792 16.6235 9.29645 17.0425L9.29607 17.0442L9.29434 17.0523C9.2928 17.0594 9.29143 17.0667 9.29022 17.0739L9.27323 17.1759C9.06928 18.4151 9.77435 19.6264 10.9761 19.9222C12.1687 20.2145 13.3632 19.4846 13.7925 18.3205L13.8088 18.2764C13.8205 18.2454 13.8282 18.2158 13.8333 18.1884L13.8632 18.098C13.8674 18.0852 13.8711 18.0722 13.8743 18.059L13.877 18.0477C13.9389 17.7915 13.9638 17.527 13.9485 17.2651C13.9449 17.2035 13.9411 17.1468 13.9375 17.0938C13.9256 16.9191 13.9164 16.7839 13.9288 16.6426L14.5604 9.42557C14.5967 9.00833 14.3261 8.62482 13.9198 8.51995M11.9122 16.3246C11.6678 16.2657 11.4196 16.3552 11.3011 16.6222C11.2539 16.7281 11.1892 16.83 11.1092 16.9192C10.9911 17.0508 10.9109 17.2056 10.8722 17.3687L10.8608 17.4374C10.7776 17.9443 11.0664 18.2872 11.3603 18.3594C11.6512 18.4306 12.0674 18.2691 12.2609 17.8191L12.3194 17.6415C12.3527 17.4876 12.3509 17.3365 12.3199 17.2012M11.9122 16.3246C12.1538 16.3828 12.3201 16.567 12.2954 16.8495Z" fill="url(#paint5_linear_94_67)"/>
<defs>
<linearGradient id="paint0_linear_94_67" x1="12" y1="23" x2="12" y2="1" gradientUnits="userSpaceOnUse">
<stop stop-color="#FD3A84"/>
<stop offset="1" stop-color="#FFA68D"/>
</linearGradient>
<linearGradient id="paint1_linear_94_67" x1="20.3035" y1="11.5934" x2="5.78471" y2="6.08702" gradientUnits="userSpaceOnUse">
<stop stop-color="#FE7970"/>
<stop offset="1" stop-color="#DC3282"/>
</linearGradient>
<linearGradient id="paint2_linear_94_67" x1="20.3035" y1="11.5934" x2="5.78471" y2="6.08702" gradientUnits="userSpaceOnUse">
<stop stop-color="#FE7970"/>
<stop offset="1" stop-color="#DC3282"/>
</linearGradient>
<linearGradient id="paint3_linear_94_67" x1="20.3035" y1="11.5934" x2="5.78471" y2="6.08702" gradientUnits="userSpaceOnUse">
<stop stop-color="#FE7970"/>
<stop offset="1" stop-color="#DC3282"/>
</linearGradient>
<linearGradient id="paint4_linear_94_67" x1="20.3035" y1="11.5934" x2="5.78471" y2="6.08702" gradientUnits="userSpaceOnUse">
<stop stop-color="#FE7970"/>
<stop offset="1" stop-color="#DC3282"/>
</linearGradient>
<linearGradient id="paint5_linear_94_67" x1="20.3035" y1="11.5934" x2="5.78471" y2="6.08702" gradientUnits="userSpaceOnUse">
<stop stop-color="#FE7970"/>
<stop offset="1" stop-color="#DC3282"/>
</linearGradient>
</defs>
</svg>
