<svg width="32" height="32" viewBox="0 0 32 32" fill="none" xmlns="http://www.w3.org/2000/svg">
<path opacity="0.4" d="M25.3036 3.85701H20.2398C20.0893 2.48581 19.4391 4.43238 18.4133 3.51011C17.3875 2.58785 16.058 2.07565 14.6785 2.07129H6.55358C5.06225 2.07294 5.77532 2.6661 4.72078 3.72064C3.66625 4.77518 3.07308 2.99067 3.07143 4.482V26.982C3.07143 27.4793 3.26897 27.9561 3.62061 28.3078C3.97224 28.6594 2.3063 28.857 2.80358 28.857C3.30086 28.857 3.77777 28.6594 4.12941 28.3078C4.48104 27.9561 4.67858 27.4793 4.67858 26.982V16.357H12.8673C13.0178 17.7282 13.6681 18.9959 14.6939 19.9182C15.7196 20.8405 17.0492 21.3526 18.4285 21.357H25.3036C26.7949 21.3554 28.2247 20.7621 29.2792 19.7076C30.3337 18.6531 30.927 17.2233 30.9286 15.732V9.48204C30.927 7.99072 30.3337 6.56089 29.2792 5.50635C28.2247 4.45182 26.7949 3.85866 25.3036 3.85701ZM4.67858 4.482C4.67858 3.98472 4.87612 3.50781 5.22775 3.15617C5.57938 2.80454 6.0563 2.607 6.55358 2.607H14.6785C15.1759 2.607 15.6528 2.80454 16.0044 3.15617C16.3561 3.50781 16.5535 3.98472 16.5535 4.482V10.732C16.5535 11.2293 16.3561 11.7062 16.0044 12.0579C15.6528 12.4095 15.1759 12.607 14.6785 12.607H4.67858V4.482Z" fill="url(#paint0_linear_76_67)"/>
<path d="M19.4847 2.43882C20.5105 3.36109 21.1607 4.62881 21.3112 6L21.375 9.75004V12.875C21.3716 14.0297 21.0125 15.1554 20.3464 16.0987C19.7044 17.0078 18.8072 17.7049 17.7698 18.1028C17.6922 18.1325 17.6107 18.1503 17.5279 18.1581L13.9387 18.5H6.75C6.19772 18.5 5.75 18.9477 5.75 19.5V29.125C5.75 29.6222 5.55246 30.0991 5.20083 30.4508C4.8492 30.8024 4.37228 31 3.875 31C3.37772 31 2.9008 30.8024 2.54917 30.4508C2.19754 30.0991 2 29.6222 2 29.125V6.625C2.00165 5.13367 2.59481 3.70389 3.64935 2.64935C4.70389 1.59481 6.13367 1.00165 7.625 1H15.75C17.1294 1.00436 18.459 1.51656 19.4847 2.43882Z" fill="#D9D9D9"/>
<path d="M19.4847 2.43882C20.5105 3.36109 21.1607 4.62881 21.3112 6L21.375 9.75004V12.875C21.3716 14.0297 21.0125 15.1554 20.3464 16.0987C19.7044 17.0078 18.8072 17.7049 17.7698 18.1028C17.6922 18.1325 17.6107 18.1503 17.5279 18.1581L13.9387 18.5H6.75C6.19772 18.5 5.75 18.9477 5.75 19.5V29.125C5.75 29.6222 5.55246 30.0991 5.20083 30.4508C4.8492 30.8024 4.37228 31 3.875 31C3.37772 31 2.9008 30.8024 2.54917 30.4508C2.19754 30.0991 2 29.6222 2 29.125V6.625C2.00165 5.13367 2.59481 3.70389 3.64935 2.64935C4.70389 1.59481 6.13367 1.00165 7.625 1H15.75C17.1294 1.00436 18.459 1.51656 19.4847 2.43882Z" fill="url(#paint1_linear_76_67)"/>
<defs>
<linearGradient id="paint0_linear_76_67" x1="0.494936" y1="-0.847799" x2="31.4224" y2="31.0259" gradientUnits="userSpaceOnUse">
<stop stop-color="#F9D423"/>
<stop offset="0.515624" stop-color="#FF4E50"/>
<stop offset="0.991304" stop-color="#8A2387"/>
</linearGradient>
<linearGradient id="paint1_linear_76_67" x1="1.71995" y1="1.2952" x2="30.2636" y2="20.2936" gradientUnits="userSpaceOnUse">
<stop stop-color="#F9D423"/>
<stop offset="0.515624" stop-color="#FF4E50"/>
<stop offset="0.991304" stop-color="#8A2387"/>
</linearGradient>
</defs>
</svg>
