<svg width="24" height="24" viewBox="0 0 24 24" fill="none" xmlns="http://www.w3.org/2000/svg">
<path opacity="0.5" d="M19 12.8V10.8182C19 8.4494 19 7.2641 18.307 6.4946C18.2435 6.42357 18.1761 6.35597 18.1054 6.2921C17.3359 5.6 16.1506 5.6 13.7818 5.6H13.4452C12.4075 5.6 11.8882 5.6 11.404 5.4623C11.1383 5.38634 10.8822 5.28004 10.6408 5.1455C10.2016 4.9016 9.8344 4.5335 9.1 3.8L8.605 3.305C8.3584 3.0584 8.236 2.936 8.1064 2.828C7.549 2.36598 6.86525 2.08275 6.1444 2.0153C5.977 2 5.8024 2 5.455 2C4.6603 2 4.2634 2 3.9322 2.063C3.22106 2.1973 2.5669 2.54283 2.05508 3.05448C1.54325 3.56615 1.19752 4.2202 1.063 4.9313C1 5.2634 1 5.6612 1 6.455V12.8C1 16.1939 1 17.8913 2.0548 18.9452C3.1087 20 4.8061 20 8.2 20H11.8C15.1939 20 16.8913 20 17.9452 18.9452C19 17.8913 19 16.1939 19 12.8Z" fill="url(#paint0_linear_309_402)"/>
<path d="M23 14.8V12.8182C23 10.4494 23 9.2641 22.307 8.4946C22.2435 8.42357 22.1761 8.35597 22.1054 8.2921C21.3359 7.6 20.1506 7.6 17.7818 7.6H17.4452C16.4075 7.6 15.8882 7.6 15.404 7.4623C15.1383 7.38634 14.8822 7.28004 14.6408 7.1455C14.2016 6.9016 13.8344 6.5335 13.1 5.8L12.605 5.305C12.3584 5.0584 12.236 4.936 12.1064 4.828C11.549 4.36598 10.8652 4.08275 10.1444 4.0153C9.977 4 9.8024 4 9.455 4C8.6603 4 8.2634 4 7.9322 4.063C7.22106 4.1973 6.5669 4.54283 6.05508 5.05448C5.54325 5.56615 5.19752 6.2202 5.063 6.9313C5 7.2634 5 7.6612 5 8.455V14.8C5 18.1939 5 19.8913 6.0548 20.9452C7.1087 22 8.8061 22 12.2 22H15.8C19.1939 22 20.8913 22 21.9452 20.9452C23 19.8913 23 18.1939 23 14.8Z" fill="url(#paint1_linear_309_402)"/>
<defs>
<linearGradient id="paint0_linear_309_402" x1="18.4923" y1="11" x2="3.47301" y2="5.56698" gradientUnits="userSpaceOnUse">
<stop stop-color="#FE7970"/>
<stop offset="1" stop-color="#DC3282"/>
</linearGradient>
<linearGradient id="paint1_linear_309_402" x1="22.4923" y1="13" x2="7.47301" y2="7.56698" gradientUnits="userSpaceOnUse">
<stop stop-color="#FE7970"/>
<stop offset="1" stop-color="#DC3282"/>
</linearGradient>
</defs>
</svg>
