<svg width="64" height="64" viewBox="0 0 64 64" fill="none" xmlns="http://www.w3.org/2000/svg">
<path opacity="0.4" d="M61 23.125V44.875C60.9962 48.399 59.5946 51.7776 57.1027 54.2694C54.6109 56.7612 51.2323 58.1628 47.7083 58.1667H16.2917C12.7677 58.1628 9.38912 56.7612 6.89728 54.2694C4.40544 51.7776 3.00384 48.399 3 44.875V18.2917C3.00384 14.7677 4.40544 11.3891 6.89728 8.89728C9.38912 6.40544 12.7677 5.00384 16.2917 5H22.3333C22.8962 4.99966 23.4514 5.13039 23.9549 5.38183L32.0108 9.41085C32.5663 9.68869 33.1789 9.83333 33.8 9.83333H47.7083C51.2323 9.83717 54.6109 11.2388 57.1027 13.7306C59.5946 16.2225 60.9962 19.601 61 23.125Z" fill="url(#paint0_linear_54_640)"/>
<path d="M44.6332 38.2999C45.5084 37.4246 46 36.2377 46 35C46 33.7623 45.5084 32.5754 44.6332 31.7001C43.7579 30.825 42.571 30.3333 41.3333 30.3333H37.954C37.243 30.3333 36.6667 29.757 36.6667 29.046V25.6667C36.6667 24.429 36.175 23.2421 35.2999 22.3668C34.4246 21.4916 33.2377 21 32 21C30.7623 21 29.5754 21.4916 28.7001 22.3668C27.825 23.2421 27.3333 24.429 27.3333 25.6667V29.046C27.3333 29.757 26.757 30.3333 26.046 30.3333H22.6667C21.429 30.3333 20.2421 30.825 19.3668 31.7001C18.4916 32.5754 18 33.7623 18 35C18 36.2377 18.4916 37.4246 19.3668 38.2999C20.2421 39.175 21.429 39.6667 22.6667 39.6667H26.046C26.757 39.6667 27.3333 40.243 27.3333 40.954V44.3333C27.3333 45.571 27.825 46.7579 28.7001 47.6332C29.5754 48.5084 30.7623 49 32 49C33.2377 49 34.4246 48.5084 35.2999 47.6332C36.175 46.7579 36.6667 45.571 36.6667 44.3333V40.954C36.6667 40.243 37.243 39.6667 37.954 39.6667H41.3333C42.571 39.6667 43.7579 39.175 44.6332 38.2999Z" fill="url(#paint1_linear_54_640)"/>
<defs>
<linearGradient id="paint0_linear_54_640" x1="32" y1="58.1667" x2="32" y2="5" gradientUnits="userSpaceOnUse">
<stop stop-color="#00B59C"/>
<stop offset="1" stop-color="#9CFFAC"/>
</linearGradient>
<linearGradient id="paint1_linear_54_640" x1="32" y1="49" x2="32" y2="21" gradientUnits="userSpaceOnUse">
<stop stop-color="#02AA93"/>
<stop offset="1" stop-color="#67FF80"/>
</linearGradient>
</defs>
</svg>
