<svg width="16" height="16" viewBox="0 0 16 16" fill="none" xmlns="http://www.w3.org/2000/svg">
<path d="M1.4 1C1.17909 1 1 1.17909 1 1.4V2.6C1 2.82091 1.17909 3 1.4 3H14.6C14.8209 3 15 2.82091 15 2.6V1.4C15 1.17909 14.8209 1 14.6 1H1.4ZM7.4 5C7.17909 5 7 5.17909 7 5.4V6.6C7 6.82091 7.17909 7 7.4 7H14.6C14.8209 7 15 6.82091 15 6.6V5.4C15 5.17909 14.8209 5 14.6 5H7.4Z" fill="url(#paint0_linear_99_174)"/>
<path opacity="0.6" d="M7 9.4C7 9.17909 7.17909 9 7.4 9H14.6C14.8209 9 15 9.17909 15 9.4V10.6C15 10.8209 14.8209 11 14.6 11H7.4C7.17909 11 7 10.8209 7 10.6V9.4Z" fill="url(#paint1_linear_99_174)"/>
<path opacity="0.4" d="M1 13.4C1 13.1791 1.17909 13 1.4 13H14.6C14.8209 13 15 13.1791 15 13.4V14.6C15 14.8209 14.8209 15 14.6 15H1.4C1.17909 15 1 14.8209 1 14.6V13.4Z" fill="url(#paint2_linear_99_174)"/>
<defs>
<linearGradient id="paint0_linear_99_174" x1="1.00205" y1="3.9111" x2="15.0023" y2="3.9111" gradientUnits="userSpaceOnUse">
<stop stop-color="#A93AFF"/>
<stop offset="1" stop-color="#FF81FF"/>
</linearGradient>
<linearGradient id="paint1_linear_99_174" x1="7.00117" y1="9.97037" x2="15.0013" y2="9.97037" gradientUnits="userSpaceOnUse">
<stop stop-color="#A93AFF"/>
<stop offset="1" stop-color="#FF81FF"/>
</linearGradient>
<linearGradient id="paint2_linear_99_174" x1="1.00205" y1="13.9704" x2="15.0023" y2="13.9704" gradientUnits="userSpaceOnUse">
<stop stop-color="#A93AFF"/>
<stop offset="1" stop-color="#FF81FF"/>
</linearGradient>
</defs>
</svg>
