<svg width="16" height="16" viewBox="0 0 16 16" fill="none" xmlns="http://www.w3.org/2000/svg">
<path d="M4.82186 2.8667C4.65116 2.8667 4.49926 2.97503 4.44367 3.13643L1.18278 12.6031C1.09331 12.8628 1.28626 13.1334 1.56097 13.1334H2.49276C2.66407 13.1334 2.81636 13.0243 2.87148 12.8621L3.32146 11.538C3.37659 11.3758 3.52888 11.2667 3.70019 11.2667H6.70293C6.87373 11.2667 7.02568 11.3751 7.0812 11.5367L7.53727 12.8634C7.59279 13.0249 7.74474 13.1334 7.91554 13.1334H8.83927C9.11397 13.1334 9.30693 12.8628 9.21746 12.6031L5.95657 3.13643C5.90098 2.97503 5.74908 2.8667 5.57838 2.8667H4.82186ZM4.81901 7.21664C4.94031 6.85156 5.45667 6.85143 5.57815 7.21646L6.12966 8.87373C6.21584 9.1327 6.02307 9.40003 5.75013 9.40003H4.648C4.37515 9.40003 4.18238 9.13286 4.2684 8.87392L4.81901 7.21664Z" fill="url(#paint0_linear_673_81)"/>
<path opacity="0.4" fill-rule="evenodd" clip-rule="evenodd" d="M11.2002 8.4668C10.9793 8.4668 10.8002 8.64588 10.8002 8.8668V9.00013C10.8002 9.22104 10.9793 9.40013 11.2002 9.40013H13.6002C13.8008 9.40013 14.0668 9.6848 14.0668 9.8668V9.93346C14.0668 10.1544 13.8878 10.3335 13.6668 10.3335H11.7335C11.3042 10.3335 10.9215 10.5102 10.6835 10.7855C10.4455 11.0562 10.3335 11.3975 10.3335 11.7335C10.3335 12.0695 10.4601 12.4107 10.6981 12.6814C10.9361 12.952 11.3088 13.1335 11.7335 13.1335H14.6002C14.8211 13.1335 15.0002 12.9544 15.0002 12.7335V9.8668C15.0002 9.10613 14.3842 8.4668 13.6002 8.4668H11.2002ZM11.7335 11.2668H13.6669C13.8878 11.2668 14.0669 11.4459 14.0669 11.6668V11.8002C14.0669 12.0211 13.8878 12.2002 13.6669 12.2002H11.7335C11.5469 12.2002 11.4681 12.1483 11.3981 12.0689C11.3281 11.9896 11.2669 11.8642 11.2669 11.7335C11.2669 11.6028 11.3135 11.4774 11.3835 11.3981C11.4535 11.3234 11.5375 11.2668 11.7335 11.2668Z" fill="url(#paint1_linear_673_81)"/>
<defs>
<linearGradient id="paint0_linear_673_81" x1="1.16064" y1="8.00005" x2="9.23959" y2="8.00005" gradientUnits="userSpaceOnUse">
<stop stop-color="#CDF97D"/>
<stop offset="1" stop-color="#A2EA99"/>
</linearGradient>
<linearGradient id="paint1_linear_673_81" x1="10.3335" y1="10.8001" x2="15.0002" y2="10.8001" gradientUnits="userSpaceOnUse">
<stop stop-color="#CDF97D"/>
<stop offset="1" stop-color="#A2EA99"/>
</linearGradient>
</defs>
</svg>
