<svg width="32" height="32" viewBox="0 0 32 32" fill="none" xmlns="http://www.w3.org/2000/svg">
<path fill-rule="evenodd" clip-rule="evenodd" d="M12.1761 8.51088C12.939 5.84083 15.3794 4 18.1563 4H24.561C25.935 4 27.0488 5.11383 27.0488 6.4878C27.0488 7.86178 25.935 8.97561 24.561 8.97561H18.1563C17.6009 8.97561 17.1128 9.34378 16.9603 9.87779L14.422 18.7615C13.1045 23.3728 6.80731 23.958 4.66258 19.6686C4.61467 19.5727 4.51673 19.5122 4.40959 19.5122H3.4878C2.11383 19.5122 1 18.3984 1 17.0244C1 15.6504 2.11383 14.5366 3.4878 14.5366H4.40959C6.40135 14.5366 8.22216 15.6619 9.1129 17.4434C9.15892 17.5354 9.19997 17.5598 9.22144 17.571C9.25633 17.5892 9.31587 17.6056 9.39208 17.5985C9.46829 17.5915 9.52379 17.5643 9.55472 17.54C9.57375 17.525 9.60961 17.4936 9.63788 17.3946L12.1761 8.51088ZM18.8506 15.0823C19.8222 14.1108 21.3974 14.1108 22.3689 15.0823L23.8539 16.5673C24.2444 16.9578 24.8776 16.9578 25.2681 16.5673L26.7531 15.0823C27.7246 14.1108 29.2998 14.1108 30.2713 15.0823C31.2429 16.0539 31.2429 17.6291 30.2713 18.6006L28.7864 20.0856C28.3958 20.4761 28.3958 21.1093 28.7864 21.4998L30.2713 22.9848C31.2429 23.9563 31.2429 25.5315 30.2713 26.503C29.2998 27.4746 27.7246 27.4746 26.7531 26.503L25.2681 25.0181C24.8776 24.6276 24.2444 24.6276 23.8539 25.0181L22.3689 26.503C21.3974 27.4746 19.8222 27.4746 18.8506 26.503C17.8791 25.5315 17.8791 23.9563 18.8506 22.9848L20.3356 21.4998C20.7261 21.1093 20.7261 20.4761 20.3356 20.0856L18.8506 18.6006C17.8791 17.6291 17.8791 16.0539 18.8506 15.0823Z" fill="url(#paint0_linear_96_113)"/>
<defs>
<linearGradient id="paint0_linear_96_113" x1="16" y1="4" x2="16" y2="27.2317" gradientUnits="userSpaceOnUse">
<stop stop-color="#00FFE0"/>
<stop offset="1" stop-color="#078AA7"/>
</linearGradient>
</defs>
</svg>
