<svg width="16" height="16" viewBox="0 0 16 16" fill="none" xmlns="http://www.w3.org/2000/svg">
<path d="M1.4 1C1.17909 1 1 1.17909 1 1.4V2.6C1 2.82091 1.17909 3 1.4 3H14.6C14.8209 3 15 2.82091 15 2.6V1.4C15 1.17909 14.8209 1 14.6 1H1.4ZM4.4 5C4.17909 5 4 5.17909 4 5.4V6.6C4 6.82091 4.17909 7 4.4 7H11.6C11.8209 7 12 6.82091 12 6.6V5.4C12 5.17909 11.8209 5 11.6 5H4.4Z" fill="url(#paint0_linear_99_180)"/>
<path opacity="0.6" d="M4 9.4C4 9.17909 4.17909 9 4.4 9H11.6C11.8209 9 12 9.17909 12 9.4V10.6C12 10.8209 11.8209 11 11.6 11H4.4C4.17909 11 4 10.8209 4 10.6V9.4Z" fill="url(#paint1_linear_99_180)"/>
<path opacity="0.4" d="M1 13.4C1 13.1791 1.17909 13 1.4 13H14.6C14.8209 13 15 13.1791 15 13.4V14.6C15 14.8209 14.8209 15 14.6 15H1.4C1.17909 15 1 14.8209 1 14.6V13.4Z" fill="url(#paint2_linear_99_180)"/>
<defs>
<linearGradient id="paint0_linear_99_180" x1="3.625" y1="1.67969" x2="6.247" y2="8.21438" gradientUnits="userSpaceOnUse">
<stop stop-color="#8F0CFF"/>
<stop offset="0.516064" stop-color="#AA1DFF"/>
<stop offset="1" stop-color="#B826FF"/>
</linearGradient>
<linearGradient id="paint1_linear_99_180" x1="5.5" y1="9.22656" x2="6.06117" y2="11.6241" gradientUnits="userSpaceOnUse">
<stop stop-color="#8F0CFF"/>
<stop offset="0.516064" stop-color="#AA1DFF"/>
<stop offset="1" stop-color="#B826FF"/>
</linearGradient>
<linearGradient id="paint2_linear_99_180" x1="3.625" y1="13.2266" x2="3.95729" y2="15.711" gradientUnits="userSpaceOnUse">
<stop stop-color="#8F0CFF"/>
<stop offset="0.516064" stop-color="#AA1DFF"/>
<stop offset="1" stop-color="#B826FF"/>
</linearGradient>
</defs>
</svg>
