<svg width="24" height="24" viewBox="0 0 24 24" fill="none" xmlns="http://www.w3.org/2000/svg">
<path opacity="0.4" d="M5.03806 1.00287C5.03648 1.00128 5.03391 1.00129 5.03233 1.00287L4.5167 1.51993C4.23116 1.80626 4.23132 2.2697 4.51706 2.55584L5.48992 3.53005C5.8247 3.86529 5.86354 4.3857 5.69692 4.82921C5.54315 5.23854 5.46298 5.67413 5.46246 6.11575C5.46255 6.96171 5.75486 7.78167 6.28993 8.43692C6.65154 8.87976 7.10903 9.22899 7.6235 9.46111C8.05665 9.65653 8.39885 10.053 8.39885 10.5282V14.9228C8.39885 15.398 8.05665 15.7945 7.6235 15.9899C7.1099 16.2216 6.65308 16.5701 6.29174 17.0118C5.75678 17.6659 5.46387 18.4845 5.46246 19.3295C5.46246 20.303 5.84917 21.2366 6.53752 21.9249C6.87836 22.2658 7.28299 22.5361 7.72832 22.7206C8.17364 22.9051 8.65094 23 9.13295 23C10.1064 23 11.04 22.6133 11.7284 21.9249C12.4167 21.2366 12.8034 20.303 12.8034 19.3295C12.8033 18.4835 12.511 17.6636 11.976 17.0083C11.6144 16.5655 11.1569 16.2163 10.6424 15.9841C10.2093 15.7887 9.86705 15.3923 9.86705 14.9171V10.4034C9.86705 9.99783 10.1584 9.65838 10.5338 9.50513V9.50513C10.9055 9.35342 11.346 9.3898 11.6299 9.67367L12.8309 10.8747C13.1657 11.2095 13.2051 11.7295 13.0391 12.173C12.8859 12.5825 12.8063 13.0181 12.8063 13.4596C12.8063 14.4331 13.193 15.3667 13.8814 16.055C14.5697 16.7434 15.5033 17.1301 16.4768 17.1301C17.4503 17.1301 18.3839 16.7434 19.0722 16.055C19.7606 15.3667 20.1473 14.4331 20.1473 13.4596C20.1473 12.4861 19.7606 11.5525 19.0722 10.8642C18.3839 10.1758 17.4503 9.7891 16.4768 9.7891C16.0274 9.78965 15.5844 9.87267 15.169 10.0317C14.723 10.2024 14.1977 10.165 13.8603 9.82721L12.7687 8.73429C12.4321 8.39717 12.3948 7.87313 12.5647 7.42803C12.7236 7.01204 12.8063 6.56845 12.8063 6.11861C12.8063 5.6366 12.7114 5.1593 12.5269 4.71398C12.3425 4.26865 12.0721 3.86402 11.7312 3.52318C11.3904 3.18235 10.9858 2.91198 10.5405 2.72752C10.0951 2.54306 9.61783 2.44812 9.13582 2.44812C8.68723 2.44902 8.24502 2.5321 7.83034 2.69092C7.38469 2.8616 6.85962 2.82442 6.52217 2.48697L5.03806 1.00287V1.00287Z" fill="url(#paint0_linear_69_71)"/>
<path d="M4.28187 1.75541L5.03233 1.00287C5.03391 1.00129 5.03648 1.00128 5.03806 1.00287L6.87049 2.8353C7.00547 2.97028 7.21598 2.98891 7.3835 2.8974C7.91945 2.60462 8.52166 2.44935 9.13582 2.44812C9.61783 2.44812 10.0951 2.54306 10.5405 2.72752C10.9858 2.91198 11.3904 3.18235 11.7312 3.52318C12.0721 3.86402 12.3425 4.26865 12.5269 4.71398C12.7114 5.1593 12.8063 5.6366 12.8063 6.11861C12.8063 6.73368 12.6517 7.33706 12.3592 7.87416C12.268 8.04152 12.2867 8.25162 12.4214 8.38647L14.4408 10.4085L13.4056 11.4494L11.372 9.41575C11.2385 9.2823 11.0309 9.26243 10.8641 9.35074C10.6476 9.46536 10.4202 9.55802 10.1853 9.62733C10.0024 9.68128 9.86705 9.84317 9.86705 10.0338V15.407C9.86705 15.5971 10.0016 15.7586 10.1837 15.813C10.8849 16.0225 11.51 16.4377 11.976 17.0083C12.511 17.6636 12.8033 18.4835 12.8034 19.3295C12.8034 20.303 12.4167 21.2366 11.7284 21.9249C11.04 22.6133 10.1064 23 9.13295 23C8.65094 23 8.17364 22.9051 7.72832 22.7206C7.28299 22.5361 6.87836 22.2658 6.53752 21.9249C5.84917 21.2366 5.46246 20.303 5.46246 19.3295C5.46387 18.4845 5.75678 17.6659 6.29174 17.0118C6.75753 16.4423 7.38198 16.028 8.08217 15.8188C8.26429 15.7644 8.39885 15.6028 8.39885 15.4127V10.0383C8.39885 9.8482 8.26429 9.68663 8.08217 9.63222C7.38105 9.42275 6.75589 9.00755 6.28993 8.43692C5.75486 7.78167 5.46255 6.96171 5.46246 6.11575C5.46317 5.51013 5.61368 4.91586 5.89837 4.3851C5.98794 4.2181 5.96867 4.00946 5.83476 3.87537L4.28206 2.32051C4.12619 2.16442 4.1261 1.91161 4.28187 1.75541Z" fill="url(#paint1_linear_69_71)"/>
<defs>
<linearGradient id="paint0_linear_69_71" x1="12.0736" y1="23" x2="12.0736" y2="1" gradientUnits="userSpaceOnUse">
<stop stop-color="#A93AFF"/>
<stop offset="1" stop-color="#FF81FF"/>
</linearGradient>
<linearGradient id="paint1_linear_69_71" x1="9.22041" y1="23" x2="9.22041" y2="1" gradientUnits="userSpaceOnUse">
<stop stop-color="#A93AFF"/>
<stop offset="1" stop-color="#FF81FF"/>
</linearGradient>
</defs>
</svg>
