<svg width="24" height="24" viewBox="0 0 24 24" fill="none" xmlns="http://www.w3.org/2000/svg">
<path opacity="0.4" d="M11.8002 1C6.94029 1 3 5.4034 3 10.3502C3 15.2585 5.80836 20.5936 10.1909 22.6419C10.6946 22.8777 11.244 23 11.8002 23C12.3564 23 12.9058 22.8777 13.4095 22.6419C17.792 20.5936 20.6004 15.2585 20.6004 10.3502C20.6004 5.4034 16.6601 1 11.8002 1Z" fill="url(#paint0_linear_8_588)"/>
<path d="M11.8002 12.5502C12.5295 12.5502 13.229 12.2605 13.7448 11.7448C14.2605 11.229 14.5502 10.5295 14.5502 9.80017C14.5502 9.07081 14.2605 8.37132 13.7448 7.85558C13.229 7.33985 12.5295 7.05011 11.8002 7.05011C11.0708 7.05011 10.3713 7.33985 9.85558 7.85558C9.33985 8.37132 9.05011 9.07081 9.05011 9.80017C9.05011 10.5295 9.33985 11.229 9.85558 11.7448C10.3713 12.2605 11.0708 12.5502 11.8002 12.5502Z" fill="url(#paint1_linear_8_588)"/>
<defs>
<linearGradient id="paint0_linear_8_588" x1="2.7456" y1="1.21648" x2="25.0199" y2="19.5815" gradientUnits="userSpaceOnUse">
<stop stop-color="#F9D423"/>
<stop offset="0.515624" stop-color="#FF4E50"/>
<stop offset="0.991304" stop-color="#8A2387"/>
</linearGradient>
<linearGradient id="paint1_linear_8_588" x1="8.97061" y1="7.10423" x2="14.6408" y2="12.9479" gradientUnits="userSpaceOnUse">
<stop stop-color="#F9D423"/>
<stop offset="0.515624" stop-color="#FF4E50"/>
<stop offset="0.991304" stop-color="#8A2387"/>
</linearGradient>
</defs>
</svg>
