<svg width="32" height="32" viewBox="0 0 32 32" fill="none" xmlns="http://www.w3.org/2000/svg">
<path opacity="0.4" d="M17.8516 10.7594L18.3605 5.00505C18.3605 3.71367 17.3033 2.66666 15.9993 2.66666C14.6954 2.66666 13.6382 3.71367 13.6382 5.00505L14.1471 10.7594C14.1471 11.7725 14.9764 12.5938 15.9993 12.5938C17.024 12.5938 17.8516 11.7725 17.8516 10.7594" fill="url(#paint0_linear_8_990)"/>
<path d="M17.758 30.0829C17.8489 29.993 18.2327 29.657 18.5514 29.3413C20.5476 27.5002 23.8118 22.6927 24.8107 20.1778C24.9701 19.796 25.3094 18.8304 25.3333 18.3129C25.3333 17.8191 25.2185 17.3473 24.9924 16.8976C24.6754 16.3359 24.175 15.8879 23.5856 15.6402C23.1778 15.4824 21.9526 15.2346 21.9304 15.2346C20.5921 14.9886 18.416 14.8545 16.0103 14.8545C13.7211 14.8545 11.6341 14.9886 10.2736 15.1905C10.2496 15.2125 8.72971 15.4603 8.20881 15.7301C7.25612 16.2239 6.66668 17.1895 6.66668 18.2229V18.3129C6.68895 18.9866 7.2801 20.4018 7.30067 20.4018C8.29963 22.7826 11.4062 27.4764 13.4709 29.3634C13.4709 29.3634 14.0021 29.8962 14.3328 30.127C14.8091 30.4868 15.3986 30.6667 15.988 30.6667C16.646 30.6667 17.2577 30.4647 17.758 30.0829" fill="url(#paint1_linear_8_990)"/>
<defs>
<linearGradient id="paint0_linear_8_990" x1="14.4928" y1="2.66666" x2="21.6963" y2="6.85055" gradientUnits="userSpaceOnUse">
<stop stop-color="#DE00C0"/>
<stop offset="1" stop-color="#8720FF"/>
</linearGradient>
<linearGradient id="paint1_linear_8_990" x1="10.0448" y1="14.8545" x2="22.4182" y2="32.6892" gradientUnits="userSpaceOnUse">
<stop stop-color="#DE00C0"/>
<stop offset="1" stop-color="#8720FF"/>
</linearGradient>
</defs>
</svg>
