<svg width="24" height="24" viewBox="0 0 24 24" fill="none" xmlns="http://www.w3.org/2000/svg">
<path d="M9.30811 21.6603V18.2868C9.30809 17.4319 10.0032 16.7374 10.8643 16.732H14.0259C14.8908 16.732 15.5919 17.4281 15.5919 18.2868V18.2868V21.6505C15.5919 22.392 16.1944 22.9946 16.9412 23H19.0982C20.1056 23.0026 21.0726 22.6071 21.7859 21.9008C22.4991 21.1945 22.9 20.2354 22.9 19.2353V9.65243C22.9 8.84453 22.5393 8.07818 21.9151 7.55985L14.5873 1.7417C13.3064 0.724035 11.4769 0.756909 10.2339 1.81992L3.06371 7.55985C2.41001 8.0629 2.01931 8.83152 2 9.65243V19.2255C2 21.3101 3.70212 23 5.80179 23H7.90952C8.26909 23.0026 8.61484 22.8626 8.87002 22.6111C9.1252 22.3596 9.26872 22.0173 9.26871 21.6603H9.30811Z" fill="url(#paint0_linear_8_312)"/>
<defs>
<linearGradient id="paint0_linear_8_312" x1="12.45" y1="23" x2="12.45" y2="1" gradientUnits="userSpaceOnUse">
<stop stop-color="#A93AFF"/>
<stop offset="1" stop-color="#FF81FF"/>
</linearGradient>
</defs>
</svg>
