<svg width="16" height="16" viewBox="0 0 16 16" fill="none" xmlns="http://www.w3.org/2000/svg">
<path d="M1.29287 2.29287C1.68337 1.90238 2.31648 1.90238 2.70698 2.29287L7.64637 7.23227C8.23216 7.81805 8.23216 8.7678 7.64637 9.35359L2.70698 14.293C2.31648 14.6835 1.68337 14.6835 1.29287 14.293C0.902377 13.9025 0.902377 13.2694 1.29287 12.8789L5.52527 8.64648C5.72053 8.45122 5.72053 8.13464 5.52527 7.93937L1.29287 3.70698C0.902377 3.31649 0.902377 2.68337 1.29287 2.29287Z" fill="url(#paint0_linear_20_95)" stroke="url(#paint1_linear_20_95)"/>
<path opacity="0.4" d="M12.5 5.5C11.837 5.5 11.2011 5.76339 10.7323 6.23225C10.2634 6.70109 10 7.33698 10 8.00003C10 8.66308 10.2634 9.29897 10.7323 9.76782C11.2011 10.2366 11.837 10.5 12.5 10.5C13.163 10.5 13.7989 10.2366 14.2678 9.76782C14.7367 9.29897 15.0001 8.66308 15.0001 8.00003C15.0001 7.33698 14.7367 6.70109 14.2678 6.23225C13.7989 5.76339 13.163 5.5 12.5 5.5Z" fill="url(#paint2_linear_20_95)"/>
<defs>
<linearGradient id="paint0_linear_20_95" x1="7.14649" y1="2" x2="7.14649" y2="14.5858" gradientUnits="userSpaceOnUse">
<stop stop-color="#DC18FC"/>
<stop offset="1" stop-color="#8E1EFF"/>
</linearGradient>
<linearGradient id="paint1_linear_20_95" x1="7.14649" y1="2" x2="7.14649" y2="14.5858" gradientUnits="userSpaceOnUse">
<stop stop-color="#DC18FC"/>
<stop offset="1" stop-color="#8E1EFF"/>
</linearGradient>
<linearGradient id="paint2_linear_20_95" x1="7.31683" y1="0.133795" x2="7.31683" y2="15.8662" gradientUnits="userSpaceOnUse">
<stop stop-color="#DC18FC"/>
<stop offset="1" stop-color="#8E1EFF"/>
</linearGradient>
</defs>
</svg>
