<svg width="32" height="32" viewBox="0 0 32 32" fill="none" xmlns="http://www.w3.org/2000/svg">
<path opacity="0.4" d="M21.9072 18.5183L27.6616 19.0272C28.953 19.0272 30 17.9699 30 16.666C30 15.362 28.953 14.3048 27.6616 14.3048L21.9072 14.8137C20.8942 14.8137 20.0728 15.643 20.0728 16.666C20.0728 17.6906 20.8942 18.5183 21.9072 18.5183" fill="url(#paint0_linear_8_990)"/>
<path d="M2.58374 18.4247C2.67368 18.5155 3.00968 18.8993 3.32531 19.218C5.1665 21.2142 9.97396 24.4784 12.4888 25.4774C12.8706 25.6367 13.8362 25.976 14.3538 26C14.8476 26 15.3193 25.8852 15.769 25.659C16.3307 25.342 16.7787 24.8417 17.0265 24.2522C17.1843 23.8444 17.432 22.6193 17.432 22.597C17.6781 21.2588 17.8122 19.0827 17.8122 16.6769C17.8122 14.3877 17.6781 12.3007 17.4762 10.9402C17.4541 10.9162 17.2064 9.39637 16.9365 8.87547C16.4427 7.92277 15.4772 7.33333 14.4437 7.33333H14.3538C13.6801 7.35561 12.2648 7.94676 12.2648 7.96732C9.88402 8.96628 5.19026 12.0728 3.30325 14.1376C3.30325 14.1376 2.77041 14.6687 2.53962 14.9994C2.17987 15.4758 1.99999 16.0652 1.99999 16.6547C1.99999 17.3127 2.20193 17.9244 2.58374 18.4247" fill="url(#paint1_linear_8_990)"/>
<defs>
<linearGradient id="paint0_linear_8_990" x1="29.9023" y1="19.0954" x2="25.9343" y2="11.0016" gradientUnits="userSpaceOnUse">
<stop stop-color="#F9D423"/>
<stop offset="0.515624" stop-color="#FF4E50"/>
<stop offset="0.991304" stop-color="#8A2387"/>
</linearGradient>
<linearGradient id="paint1_linear_8_990" x1="17.6566" y1="26.2698" x2="-1.80945" y2="10.27" gradientUnits="userSpaceOnUse">
<stop stop-color="#F9D423"/>
<stop offset="0.515624" stop-color="#FF4E50"/>
<stop offset="0.991304" stop-color="#8A2387"/>
</linearGradient>
</defs>
</svg>
