<svg width="32" height="32" viewBox="0 0 32 32" fill="none" xmlns="http://www.w3.org/2000/svg">
<path opacity="0.4" d="M14.1484 22.5739L13.6395 28.3283C13.6395 29.6196 14.6967 30.6667 16.0007 30.6667C17.3046 30.6667 18.3619 29.6196 18.3619 28.3283L17.8529 22.5739C17.8529 21.5608 17.0236 20.7395 16.0007 20.7395C14.976 20.7395 14.1484 21.5608 14.1484 22.5739" fill="url(#paint0_linear_8_990)"/>
<path d="M14.242 3.2504C14.1512 3.34034 13.7673 3.67633 13.4486 3.99197C11.4524 5.83316 8.18824 10.6406 7.18928 13.1555C7.02993 13.5373 6.69066 14.5029 6.66667 15.0204C6.66667 15.5143 6.78148 15.986 7.00765 16.4357C7.32465 16.9974 7.82499 17.4454 8.41442 17.6931C8.82223 17.8509 10.0474 18.0987 10.0696 18.0987C11.4079 18.3448 13.584 18.4788 15.9897 18.4788C18.2789 18.4788 20.366 18.3448 21.7265 18.1428C21.7504 18.1208 23.2703 17.873 23.7912 17.6032C24.7439 17.1094 25.3333 16.1438 25.3333 15.1104V15.0204C25.3111 14.3467 24.7199 12.9315 24.6993 12.9315C23.7004 10.5507 20.5938 5.85691 18.5291 3.96991C18.5291 3.96991 17.9979 3.43706 17.6672 3.20628C17.1909 2.84653 16.6014 2.66665 16.012 2.66665C15.354 2.66665 14.7423 2.86859 14.242 3.2504" fill="url(#paint1_linear_8_990)"/>
<defs>
<linearGradient id="paint0_linear_8_990" x1="17.5073" y1="30.6667" x2="10.3037" y2="26.4828" gradientUnits="userSpaceOnUse">
<stop stop-color="#DE00C0"/>
<stop offset="1" stop-color="#8720FF"/>
</linearGradient>
<linearGradient id="paint1_linear_8_990" x1="21.9552" y1="18.4788" x2="9.58182" y2="0.644095" gradientUnits="userSpaceOnUse">
<stop stop-color="#DE00C0"/>
<stop offset="1" stop-color="#8720FF"/>
</linearGradient>
</defs>
</svg>
