<svg width="24" height="24" viewBox="0 0 24 24" fill="none" xmlns="http://www.w3.org/2000/svg">
<path opacity="0.4" d="M23 12C23 18.0764 18.0753 23 12 23C5.9247 23 1 18.0764 1 12C1 5.9258 5.9247 1 12 1C18.0753 1 23 5.9258 23 12" fill="url(#paint0_linear_8_108)"/>
<path fill-rule="evenodd" clip-rule="evenodd" d="M14 13.2982C14 14.2357 13.1017 15 12 15C10.8983 15 10 14.2357 10 13.2982V4.70178C10 3.76434 10.8983 3 12 3C13.1017 3 14 3.76434 14 4.70178V13.2982ZM10 19.0172C10 17.906 10.8886 17 11.9773 17C13.0977 17 13.9886 17.906 13.9886 19.0172C13.9886 20.1284 13.0977 21.0344 12 21.0344C10.8977 21.0344 10 20.1284 10 19.0172Z" fill="url(#paint1_linear_8_108)"/>
<defs>
<linearGradient id="paint0_linear_8_108" x1="12" y1="23" x2="12" y2="0.999999" gradientUnits="userSpaceOnUse">
<stop stop-color="#02AA93"/>
<stop offset="1" stop-color="#67FF80"/>
</linearGradient>
<linearGradient id="paint1_linear_8_108" x1="12" y1="21.0344" x2="12" y2="3" gradientUnits="userSpaceOnUse">
<stop stop-color="#02AA93"/>
<stop offset="1" stop-color="#67FF80"/>
</linearGradient>
</defs>
</svg>
