<svg width="24" height="24" viewBox="0 0 24 24" fill="none" xmlns="http://www.w3.org/2000/svg">
<path opacity="0.4" d="M16.5101 1H7.291C3.947 1 2 2.958 2 6.313V17.676C2 21.086 3.947 23 7.291 23H16.5101C19.908 23 21.8 21.086 21.8 17.676V6.313C21.8 2.958 19.908 1 16.5101 1" fill="url(#paint0_linear_8_851)"/>
<path fill-rule="evenodd" clip-rule="evenodd" d="M15.882 7.11709H7.25802C6.78392 7.11709 6.40002 6.73209 6.40002 6.25909C6.40002 5.78609 6.78392 5.39999 7.25802 5.39999H15.882C16.355 5.39999 16.74 5.78609 16.74 6.25909C16.74 6.73209 16.355 7.11709 15.882 7.11709ZM15.882 12.6171H7.258C6.7839 12.6171 6.4 12.2321 6.4 11.7591C6.4 11.2861 6.7839 10.9 7.258 10.9H15.882C16.355 10.9 16.74 11.2861 16.74 11.7591C16.74 12.2321 16.355 12.6171 15.882 12.6171ZM7.58802 17.841H16.212C16.6509 17.797 16.982 17.4219 16.982 16.983C16.982 16.532 16.6509 16.158 16.212 16.114H7.58802C7.25802 16.081 6.93902 16.235 6.76302 16.521C6.58702 16.796 6.58702 17.159 6.76302 17.445C6.93902 17.72 7.25802 17.885 7.58802 17.841Z" fill="url(#paint1_linear_8_851)"/>
<defs>
<linearGradient id="paint0_linear_8_851" x1="21.7413" y1="1.13947" x2="0.0549798" y2="20.4947" gradientUnits="userSpaceOnUse">
<stop stop-color="#FE7970"/>
<stop offset="1" stop-color="#DC3282"/>
</linearGradient>
<linearGradient id="paint1_linear_8_851" x1="16.9507" y1="5.47891" x2="4.77858" y2="15.7402" gradientUnits="userSpaceOnUse">
<stop stop-color="#FE7970"/>
<stop offset="1" stop-color="#DC3282"/>
</linearGradient>
</defs>
</svg>
