<svg width="24" height="24" viewBox="0 0 24 24" fill="none" xmlns="http://www.w3.org/2000/svg">
<path opacity="0.5" d="M12 2C16.713 2 19.07 2 20.535 3.464C21.292 4.222 21.658 5.218 21.835 6.656V10L12 7.5L2.164 10V6.656C2.34 5.218 2.705 4.222 3.463 3.464C4.928 2 7.285 2 11.999 2H12Z" fill="url(#paint0_linear_8_108)"/>
<path fill-rule="evenodd" clip-rule="evenodd" d="M2.545 8.73C2 9.8 2 11.2 2 14C2 16.8 2 18.2 2.545 19.27C3.02436 20.2108 3.78923 20.9756 4.73 21.455C5.8 22 7.2 22 10 22H14C16.8 22 18.2 22 19.27 21.455C20.2108 20.9756 20.9756 20.2108 21.455 19.27C22 18.2 22 16.8 22 14C22 11.2 22 9.8 21.455 8.73C20.9756 7.78923 20.2108 7.02436 19.27 6.545C18.2 6 16.8 6 14 6H10C7.2 6 5.8 6 4.73 6.545C3.78923 7.02436 3.02436 7.78923 2.545 8.73ZM11.8308 15.9848C12.5639 15.9848 13.1616 15.4762 13.1616 14.8524V9.13236C13.1616 8.50859 12.5639 8 11.8308 8C11.0977 8 10.5 8.50859 10.5 9.13236V14.8524C10.5 15.4762 11.0977 15.9848 11.8308 15.9848ZM11.8157 17.3156C11.0913 17.3156 10.5 17.9184 10.5 18.6578C10.5 19.3972 11.0973 20 11.8308 20C12.5612 20 13.154 19.3972 13.154 18.6578C13.154 17.9184 12.5612 17.3156 11.8157 17.3156Z" fill="url(#paint1_linear_8_108)"/>
<defs>
<linearGradient id="paint0_linear_8_108" x1="11.9995" y1="10" x2="11.9995" y2="2" gradientUnits="userSpaceOnUse">
<stop stop-color="#00B59C"/>
<stop offset="1" stop-color="#9CFFAC"/>
</linearGradient>
<linearGradient id="paint1_linear_8_108" x1="12" y1="22" x2="12" y2="6" gradientUnits="userSpaceOnUse">
<stop stop-color="#00B59C"/>
<stop offset="1" stop-color="#9CFFAC"/>
</linearGradient>
</defs>
</svg>
