<svg width="24" height="24" viewBox="0 0 24 24" fill="none" xmlns="http://www.w3.org/2000/svg">
<g opacity="0.4">
<path fill-rule="evenodd" clip-rule="evenodd" d="M5.30271 15.7538C7.12693 14.1431 9.47593 13.2529 11.9094 13.25C12.2108 13.2522 12.5119 13.2681 12.8117 13.2976C13.0111 13.3172 13.1594 13.4875 13.1594 13.688V14.1343C13.1594 14.3793 12.9411 14.5661 12.6973 14.542C12.4355 14.5161 12.1727 14.5021 11.9094 14.5C9.80726 14.5024 7.77618 15.2617 6.18785 16.6389C4.68692 17.9403 3.67617 19.7112 3.31605 21.658C3.27988 21.8535 3.11221 21.9998 2.91337 21.9998H2.45361C2.21285 21.9998 2.02604 21.7885 2.06692 21.5512C2.45297 19.3112 3.59205 17.2643 5.30271 15.7538Z" fill="url(#paint0_linear_201_134)"/>
<path d="M11.9095 13.25L11.9132 12.75H11.909L11.9095 13.25ZM11.9095 14.5L11.9135 14H11.909L11.9095 14.5ZM11.909 12.75C9.35377 12.7531 6.88732 13.6878 4.97189 15.379L5.63376 16.1287C7.36677 14.5985 9.59832 13.7528 11.9101 13.75L11.909 12.75ZM12.8608 12.8C12.546 12.7691 12.2297 12.7523 11.9132 12.75L11.9059 13.75C12.1921 13.7521 12.4781 13.7672 12.7629 13.7952L12.8608 12.8ZM13.6595 13.688C13.6595 13.2414 13.3269 12.8459 12.8608 12.8L12.7629 13.7952C12.6956 13.7886 12.6595 13.7337 12.6595 13.688H13.6595ZM13.6595 14.1343V13.688H12.6595V14.1343H13.6595ZM12.6482 15.0396C13.1682 15.091 13.6595 14.6927 13.6595 14.1343H12.6595C12.6595 14.1028 12.6749 14.0766 12.6909 14.0626C12.7059 14.0495 12.7261 14.0424 12.7466 14.0445L12.6482 15.0396ZM11.9056 15C12.1538 15.002 12.4015 15.0152 12.6482 15.0396L12.7466 14.0445C12.4697 14.0171 12.1919 14.0022 11.9135 14L11.9056 15ZM6.51552 17.0167C8.01309 15.7182 9.9281 15.0023 11.9101 15L11.909 14C9.68666 14.0026 7.53951 14.8053 5.86041 16.2612L6.51552 17.0167ZM3.80782 21.749C4.14736 19.9134 5.10036 18.2437 6.51552 17.0167L5.86041 16.2612C4.2737 17.6369 3.20521 19.509 2.82451 21.5671L3.80782 21.749ZM2.91349 22.4998C3.36536 22.4998 3.73001 22.1696 3.80782 21.749L2.82451 21.5671C2.82998 21.5375 2.85929 21.4998 2.91349 21.4998V22.4998ZM2.45373 22.4998H2.91349V21.4998H2.45373V22.4998ZM1.5743 21.4663C1.4781 22.0247 1.91889 22.4998 2.45373 22.4998V21.4998C2.50704 21.4998 2.57422 21.5523 2.55978 21.6361L1.5743 21.4663ZM4.97189 15.379C3.17569 16.9651 1.97966 19.1143 1.5743 21.4663L2.55978 21.6361C2.92653 19.5081 4.00864 17.5637 5.63376 16.1287L4.97189 15.379Z" fill="url(#paint1_linear_201_134)"/>
</g>
<path fill-rule="evenodd" clip-rule="evenodd" d="M21.7841 12.4376C21.832 12.2703 21.6581 12.1259 21.5024 12.2038L12.2671 16.8214C12.1196 16.8951 12.1196 17.1055 12.2671 17.1792L14.3351 18.2133C14.3826 18.237 14.4186 18.2786 14.4354 18.3289L15.5065 21.5422C15.5629 21.7112 15.7954 21.7277 15.8751 21.5683L16.8197 19.6792C16.8691 19.5804 16.9893 19.5403 17.0881 19.5897L19.1936 20.6425C19.3056 20.6985 19.4409 20.6389 19.4753 20.5185L21.7841 12.4376Z" fill="url(#paint2_linear_201_134)" stroke="url(#paint3_linear_201_134)"/>
<circle opacity="0.4" cx="11.5" cy="6.5" r="5.5" fill="url(#paint4_linear_201_134)"/>
<defs>
<linearGradient id="paint0_linear_201_134" x1="7.57976" y1="22" x2="7.57976" y2="13.2502" gradientUnits="userSpaceOnUse">
<stop stop-color="#FDA700"/>
<stop offset="1" stop-color="#FFDE00"/>
</linearGradient>
<linearGradient id="paint1_linear_201_134" x1="7.57989" y1="22" x2="7.57989" y2="13.2502" gradientUnits="userSpaceOnUse">
<stop stop-color="#FDA700"/>
<stop offset="1" stop-color="#FFDE00"/>
</linearGradient>
<linearGradient id="paint2_linear_201_134" x1="16.9092" y1="22.0002" x2="16.9092" y2="12.0004" gradientUnits="userSpaceOnUse">
<stop stop-color="#FDA700"/>
<stop offset="1" stop-color="#FFDE00"/>
</linearGradient>
<linearGradient id="paint3_linear_201_134" x1="16.9092" y1="22.0002" x2="16.9092" y2="12.0004" gradientUnits="userSpaceOnUse">
<stop stop-color="#FDA700"/>
<stop offset="1" stop-color="#FFDE00"/>
</linearGradient>
<linearGradient id="paint4_linear_201_134" x1="11.4724" y1="11.4361" x2="11.4724" y2="1.56434" gradientUnits="userSpaceOnUse">
<stop stop-color="#FDA700"/>
<stop offset="1" stop-color="#FFDE00"/>
</linearGradient>
</defs>
</svg>
