<svg width="24" height="24" viewBox="0 0 24 24" fill="none" xmlns="http://www.w3.org/2000/svg">
<path d="M11.8 9.8C14.23 9.8 16.2 7.83005 16.2 5.4C16.2 2.96995 14.23 1 11.8 1C9.36994 1 7.39999 2.96995 7.39999 5.4C7.39999 7.83005 9.36994 9.8 11.8 9.8Z" fill="url(#paint0_linear_20_101)"/>
<path opacity="0.5" d="M20.6 18.05C20.6 20.7835 20.6 23 11.8 23C3 23 3 20.7835 3 18.05C3 15.3165 6.9402 13.1 11.8 13.1C16.6598 13.1 20.6 15.3165 20.6 18.05Z" fill="url(#paint1_linear_20_101)"/>
<defs>
<linearGradient id="paint0_linear_20_101" x1="11.8" y1="9.8" x2="11.8" y2="1" gradientUnits="userSpaceOnUse">
<stop stop-color="#FDA700"/>
<stop offset="1" stop-color="#FFDE00"/>
</linearGradient>
<linearGradient id="paint1_linear_20_101" x1="11.8" y1="23" x2="11.8" y2="13.1" gradientUnits="userSpaceOnUse">
<stop stop-color="#FDA700"/>
<stop offset="1" stop-color="#FFDE00"/>
</linearGradient>
</defs>
</svg>
