<svg width="24" height="24" viewBox="0 0 24 24" fill="none" xmlns="http://www.w3.org/2000/svg">
<path d="M13.3768 23C16.0499 23 18.3221 22.0644 20.1933 20.1932C22.0645 18.322 23.0001 16.0498 23.0001 13.3767C23.0001 12.0401 22.746 10.788 22.2377 9.62036C21.7295 8.45273 21.0391 7.43694 20.1666 6.57297C19.2934 5.70901 18.2729 5.02326 17.1053 4.51572C15.9377 4.00818 14.6859 3.75405 13.3501 3.75334V3.75334C13.281 3.75334 13.2464 3.66985 13.2953 3.62103L14.1253 2.79101C14.2322 2.68408 14.3081 2.56825 14.353 2.4435C14.3979 2.31875 14.42 2.18509 14.4193 2.04253C14.4193 1.89996 14.3969 1.7663 14.352 1.64156C14.3071 1.51681 14.2315 1.40097 14.1253 1.29405C13.9292 1.09802 13.6798 1 13.3768 1C13.0738 1 12.8243 1.09802 12.6283 1.29405L9.84824 4.07412C9.74132 4.18104 9.66576 4.29688 9.62156 4.42163C9.57736 4.54637 9.55491 4.68003 9.5542 4.8226C9.5542 4.96517 9.57665 5.09882 9.62156 5.22357C9.66647 5.34832 9.74203 5.46415 9.84824 5.57108L12.6283 8.35115C12.8243 8.54718 13.0738 8.6452 13.3768 8.6452C13.6798 8.6452 13.9292 8.54718 14.1253 8.35115C14.2322 8.24423 14.3078 8.12839 14.352 8.00364C14.3962 7.8789 14.4186 7.74524 14.4193 7.60267C14.4193 7.4601 14.3969 7.32645 14.352 7.2017C14.3071 7.07695 14.2315 6.96112 14.1253 6.85419L13.2953 6.02417C13.2464 5.97534 13.281 5.89186 13.3501 5.89186V5.89186C15.4173 5.89186 17.1859 6.62252 18.6557 8.08384C20.1256 9.54516 20.8609 11.3094 20.8616 13.3767C20.8616 15.4439 20.1309 17.2082 18.6696 18.6695C17.2083 20.1308 15.444 20.8615 13.3768 20.8615C12.86 20.8615 12.3564 20.8123 11.8659 20.7139C11.3755 20.6155 10.899 20.4687 10.4363 20.2734C10.2403 20.1843 10.0396 20.1575 9.83434 20.1932C9.62905 20.2288 9.45547 20.3179 9.31361 20.4605C9.01066 20.7635 8.88591 21.0931 8.93937 21.4496C8.99284 21.806 9.20669 22.0644 9.58093 22.2248C10.169 22.4743 10.7796 22.666 11.4126 22.8C12.0456 22.9341 12.7003 23.0007 13.3768 23Z" fill="url(#paint0_linear_85_77)"/>
<path opacity="0.4" d="M7.36222 19.2704C7.23747 19.3153 7.10382 19.3378 6.96125 19.3378C6.81868 19.3385 6.68502 19.3164 6.56028 19.2715C6.43553 19.2266 6.31969 19.1506 6.21277 19.0437L1.29418 14.1251C1.18797 14.0182 1.1124 13.9024 1.0675 13.7776C1.02259 13.6529 1.00013 13.5192 1.00013 13.3766C0.999418 13.2341 1.02152 13.1004 1.06643 12.9757C1.11133 12.8509 1.18725 12.7351 1.29418 12.6282L6.21277 7.70957C6.31969 7.60336 6.43553 7.5278 6.56028 7.48289C6.68502 7.43798 6.81868 7.41553 6.96125 7.41553C7.10382 7.41624 7.23747 7.43869 7.36222 7.48289C7.48697 7.52709 7.6028 7.60265 7.70973 7.70957L12.6283 12.6282C12.7345 12.7351 12.8101 12.8509 12.855 12.9757C12.8999 13.1004 12.9224 13.2341 12.9224 13.3766C12.9217 13.5192 12.8992 13.6529 12.855 13.7776C12.8108 13.9024 12.7352 14.0182 12.6283 14.1251L7.70973 19.0437C7.6028 19.1499 7.48697 19.2255 7.36222 19.2704Z" fill="url(#paint1_linear_85_77)"/>
<defs>
<linearGradient id="paint0_linear_85_77" x1="20.3615" y1="3.49219" x2="7.40387" y2="12.3454" gradientUnits="userSpaceOnUse">
<stop stop-color="#8F0CFF"/>
<stop offset="0.516064" stop-color="#AA1DFF"/>
<stop offset="1" stop-color="#B826FF"/>
</linearGradient>
<linearGradient id="paint1_linear_85_77" x1="10.6869" y1="8.76609" x2="3.16568" y2="16.7996" gradientUnits="userSpaceOnUse">
<stop stop-color="#8F0CFF"/>
<stop offset="0.516064" stop-color="#AA1DFF"/>
<stop offset="1" stop-color="#B826FF"/>
</linearGradient>
</defs>
</svg>
