<svg width="128" height="128" viewBox="0 0 128 128" fill="none" xmlns="http://www.w3.org/2000/svg">
<path opacity="0.4" d="M64 8C49.1479 8 34.9041 13.9 24.402 24.402C13.9 34.904 8 49.1479 8 64.0001C8.00038 71.3541 9.44925 78.636 12.2639 85.4301C15.0785 92.2242 19.2037 98.3971 24.4041 103.597C29.6045 108.797 35.7781 112.921 42.5724 115.736C49.3668 118.549 56.6489 119.998 64.0029 119.997C71.3569 119.997 78.6389 118.548 85.4329 115.733C92.227 112.918 98.4003 108.793 103.6 103.593C108.8 98.3926 112.924 92.2191 115.738 85.4247C118.553 78.6303 120 71.3482 120 63.9941C120 33.0716 94.9225 8 64 8Z" fill="url(#paint0_linear_8_894)"/>
<path d="M57.602 51.1994C57.602 57.3882 53.3076 62.3995 48.0084 62.3995C42.7028 62.3995 38.402 57.3882 38.402 51.1994C38.402 45.0106 42.7028 39.9994 48.002 39.9994C53.3012 39.9994 57.602 45.0106 57.602 51.1994Z" fill="url(#paint1_linear_8_894)"/>
<path d="M89.602 51.1994C89.602 57.3882 85.3076 62.3995 80.002 62.3995C74.7028 62.3995 70.402 57.3818 70.402 51.1994C70.402 45.017 74.7028 39.9994 80.002 39.9994C85.3012 39.9994 89.602 45.0106 89.602 51.1994Z" fill="url(#paint2_linear_8_894)"/>
<path d="M88.1411 72.2581C89.347 71.8752 90.6548 71.98 91.7844 72.5499C92.9094 73.119 93.7631 74.1105 94.1589 75.3075C94.5547 76.5045 94.4603 77.8095 93.8964 78.937C93.5828 79.5706 85.9284 94.393 64.0084 94.393C42.0948 94.393 34.4276 79.5771 34.1076 78.9435C33.5322 77.8071 33.4318 76.4886 33.8285 75.2782C34.2251 74.0677 35.0864 73.0645 36.2228 72.4891C37.3592 71.9136 38.6776 71.8132 39.8881 72.2099C41.0985 72.6066 42.1018 73.4678 42.6772 74.6042C42.946 75.1098 48.322 84.793 64.0084 84.793C79.7716 84.793 85.1156 75.0203 85.3332 74.5979C85.9273 73.4808 86.9352 72.6409 88.1411 72.2581Z" fill="url(#paint3_linear_8_894)"/>
<defs>
<linearGradient id="paint0_linear_8_894" x1="64" y1="119.997" x2="64" y2="8" gradientUnits="userSpaceOnUse">
<stop stop-color="#FD5900"/>
<stop offset="1" stop-color="#FFDE00"/>
</linearGradient>
<linearGradient id="paint1_linear_8_894" x1="64.002" y1="125.436" x2="64.002" y2="2.55945" gradientUnits="userSpaceOnUse">
<stop stop-color="#FD5900"/>
<stop offset="1" stop-color="#FFDE00"/>
</linearGradient>
<linearGradient id="paint2_linear_8_894" x1="64.002" y1="125.436" x2="64.002" y2="2.55945" gradientUnits="userSpaceOnUse">
<stop stop-color="#FD5900"/>
<stop offset="1" stop-color="#FFDE00"/>
</linearGradient>
<linearGradient id="paint3_linear_8_894" x1="64.002" y1="125.436" x2="64.002" y2="2.55945" gradientUnits="userSpaceOnUse">
<stop stop-color="#FD5900"/>
<stop offset="1" stop-color="#FFDE00"/>
</linearGradient>
</defs>
</svg>
