<svg width="16" height="16" viewBox="0 0 16 16" fill="none" xmlns="http://www.w3.org/2000/svg">
<path d="M6.83009 1C5.54113 1 4.49714 2.044 4.49714 3.33295V5.83238C4.49714 6.38467 4.04942 6.83238 3.49714 6.83238H2.74742C2.42531 6.83238 2.16418 7.09351 2.16418 7.41562V7.41562C2.16418 7.73774 2.42531 7.99886 2.74742 7.99886H3.49714C4.04942 7.99886 4.49714 8.44658 4.49714 8.99886V14.4145C4.49714 14.7366 4.75826 14.9977 5.08038 14.9977V14.9977C5.40249 14.9977 5.66362 14.7366 5.66362 14.4145V8.99886C5.66362 8.44658 6.11133 7.99886 6.66362 7.99886H7.41333C7.73544 7.99886 7.99657 7.73774 7.99657 7.41562V7.41562C7.99657 7.09351 7.73544 6.83238 7.41333 6.83238H6.66361C6.11133 6.83238 5.66362 6.38467 5.66362 5.83238V3.33295C5.66362 2.68906 6.1862 2.16648 6.83009 2.16648H8.57981C8.90192 2.16648 9.16305 1.90535 9.16305 1.58324V1.58324C9.16305 1.26112 8.90192 1 8.57981 1H7.99657H6.83009Z" fill="url(#paint0_linear_295_91)" stroke="url(#paint1_linear_295_91)"/>
<path opacity="0.4" d="M13.7769 10.1103C13.3539 9.68734 12.6681 9.68734 12.2451 10.1103L11.7151 10.6403C11.5198 10.8356 11.2033 10.8356 11.008 10.6403L10.478 10.1103C10.055 9.68734 9.36917 9.68734 8.94616 10.1103C8.52315 10.5334 8.52315 11.2192 8.94616 11.6422L9.47616 12.1722C9.67142 12.3674 9.67142 12.684 9.47616 12.8793L8.94616 13.4093C8.52316 13.8323 8.52315 14.5181 8.94616 14.9411C9.36917 15.3641 10.055 15.3641 10.478 14.9411L11.008 14.4111C11.2033 14.2159 11.5198 14.2159 11.7151 14.4111L12.2451 14.9411C12.6681 15.3641 13.3539 15.3641 13.7769 14.9411C14.2 14.5181 14.2 13.8323 13.7769 13.4093L13.2469 12.8793C13.0517 12.684 13.0517 12.3674 13.2469 12.1722L13.7769 11.6422C14.2 11.2192 14.2 10.5334 13.7769 10.1103Z" fill="url(#paint2_linear_295_91)"/>
<defs>
<linearGradient id="paint0_linear_295_91" x1="5.66361" y1="14.9977" x2="5.66361" y2="1" gradientUnits="userSpaceOnUse">
<stop stop-color="#A93AFF"/>
<stop offset="1" stop-color="#FF81FF"/>
</linearGradient>
<linearGradient id="paint1_linear_295_91" x1="5.66361" y1="14.9977" x2="5.66361" y2="1" gradientUnits="userSpaceOnUse">
<stop stop-color="#A93AFF"/>
<stop offset="1" stop-color="#FF81FF"/>
</linearGradient>
<linearGradient id="paint2_linear_295_91" x1="11.3616" y1="15.2584" x2="11.3616" y2="9.79309" gradientUnits="userSpaceOnUse">
<stop stop-color="#A93AFF"/>
<stop offset="1" stop-color="#FF81FF"/>
</linearGradient>
</defs>
</svg>
