<svg width="24" height="24" viewBox="0 0 24 24" fill="none" xmlns="http://www.w3.org/2000/svg">
<path opacity="0.5" d="M23 14.2V11.7778C23 8.8826 23 7.4339 22.153 6.4934C22.0753 6.40659 21.9931 6.32397 21.9066 6.2459C20.9661 5.4 19.5174 5.4 16.6222 5.4H16.2108C14.9425 5.4 14.3078 5.4 13.716 5.2317C13.3912 5.13887 13.0782 5.00894 12.7832 4.8445C12.2464 4.5464 11.7976 4.0965 10.9 3.2L10.295 2.595C9.9936 2.2936 9.844 2.144 9.6856 2.012C9.00433 1.4473 8.16863 1.10114 7.2876 1.0187C7.083 1 6.8696 1 6.445 1C5.4737 1 4.9886 1 4.5838 1.077C3.71462 1.24115 2.9151 1.66345 2.28954 2.28882C1.66397 2.91418 1.24142 3.71358 1.077 4.5827C1 4.9886 1 5.4748 1 6.445V14.2C1 18.3481 1 20.4227 2.2892 21.7108C3.5773 23 5.6519 23 9.8 23H14.2C18.3481 23 20.4227 23 21.7108 21.7108C23 20.4227 23 18.3481 23 14.2Z" fill="url(#paint0_linear_295_104)"/>
<path fill-rule="evenodd" clip-rule="evenodd" d="M13.7746 18.7923C15.976 17.6929 16.8693 15.0172 15.77 12.8158C15.598 12.4857 15.6954 12.0793 15.9983 11.863C16.029 11.8422 16.0612 11.8236 16.0947 11.8075C16.4662 11.629 16.9121 11.7854 17.0906 12.1569C17.6097 13.1941 17.8131 14.3607 17.6757 15.5124C17.2878 18.7631 14.338 21.0838 11.0873 20.6959L10.9285 21.5881C10.9056 21.7168 10.8325 21.8311 10.7253 21.9059C10.5021 22.0617 10.1948 22.0071 10.039 21.7839L8.74527 19.93C8.58946 19.7067 8.64407 19.3995 8.8674 19.2436L10.7213 17.9499C10.8285 17.8752 10.9609 17.846 11.0896 17.8689C11.3576 17.9166 11.5363 18.1725 11.4886 18.4406L11.3463 19.2401C12.1818 19.3226 13.0235 19.1674 13.7746 18.7923Z" fill="url(#paint1_linear_295_104)"/>
<path d="M8.00214 18.2183C8.30505 18.002 8.40242 17.5956 8.23047 17.2655C7.13109 15.0642 8.02449 12.3884 10.2258 11.289C10.9769 10.914 11.8186 10.7587 12.6541 10.8412L12.5118 11.6408C12.4641 11.9088 12.6427 12.1648 12.9108 12.2124C13.0395 12.2353 13.172 12.2061 13.2791 12.1314L15.133 10.8377C15.3563 10.6819 15.4109 10.3746 15.2552 10.1514L13.9614 8.29743C13.8056 8.07422 13.4983 8.01964 13.2751 8.17545C13.1679 8.25023 13.0948 8.36454 13.0719 8.49314L12.9131 9.38544C9.66271 8.99693 6.71282 11.317 6.32441 14.5674C6.18674 15.7194 6.39014 16.8865 6.9095 17.924C7.0878 18.2956 7.53363 18.4523 7.90521 18.2741C7.93883 18.258 7.97129 18.2393 8.00214 18.2183Z" fill="url(#paint2_linear_295_104)"/>
<defs>
<linearGradient id="paint0_linear_295_104" x1="0.682006" y1="1.21648" x2="23.3621" y2="24.5905" gradientUnits="userSpaceOnUse">
<stop stop-color="#F9D423"/>
<stop offset="0.515624" stop-color="#FF4E50"/>
<stop offset="0.991304" stop-color="#8A2387"/>
</linearGradient>
<linearGradient id="paint1_linear_295_104" x1="20.1005" y1="16.1676" x2="10.4757" y2="11.0313" gradientUnits="userSpaceOnUse">
<stop stop-color="#F9D423"/>
<stop offset="0.515624" stop-color="#FF4E50"/>
<stop offset="0.991304" stop-color="#8A2387"/>
</linearGradient>
<linearGradient id="paint2_linear_295_104" x1="16.7662" y1="12.0312" x2="7.14043" y2="6.89491" gradientUnits="userSpaceOnUse">
<stop stop-color="#F9D423"/>
<stop offset="0.515624" stop-color="#FF4E50"/>
<stop offset="0.991304" stop-color="#8A2387"/>
</linearGradient>
</defs>
</svg>
