<svg width="24" height="24" viewBox="0 0 24 24" fill="none" xmlns="http://www.w3.org/2000/svg">
<path opacity="0.3" d="M2.6104 21.3885C4.223 23 6.8146 23 12 23C17.1854 23 19.7781 23 21.3885 21.3885C23 19.7792 23 17.1854 23 12C23 6.8146 23 4.2219 21.3885 2.6104C19.7792 1 17.1854 1 12 1C6.8146 1 4.2219 1 2.6104 2.6104C1 4.223 1 6.8146 1 12C1 17.1854 1 19.7781 2.6104 21.3885Z" fill="url(#paint0_linear_38_71)"/>
<path d="M9 7.89474C8.18806 7.89474 7.39435 8.13551 6.71924 8.5866C6.04413 9.03769 5.51795 9.67884 5.20723 10.429C4.89652 11.1791 4.81522 12.0046 4.97362 12.8009C5.13202 13.5972 5.52301 14.3287 6.09714 14.9029C6.67127 15.477 7.40276 15.868 8.1991 16.0264C8.99545 16.1848 9.82088 16.1035 10.571 15.7928C11.3212 15.482 11.9623 14.9559 12.4134 14.2808C12.8645 13.6057 13.1053 12.8119 13.1053 12C13.1053 11.7487 13.2051 11.5078 13.3827 11.3301C13.5604 11.1524 13.8014 11.0526 14.0526 11.0526C14.3039 11.0526 14.5449 11.1524 14.7225 11.3301C14.9002 11.5078 15 11.7487 15 12C15 13.1867 14.6481 14.3467 13.9888 15.3334C13.3295 16.3201 12.3925 17.0891 11.2961 17.5433C10.1997 17.9974 8.99335 18.1162 7.82946 17.8847C6.66557 17.6532 5.59648 17.0818 4.75736 16.2426C3.91825 15.4035 3.3468 14.3344 3.11529 13.1705C2.88378 12.0067 3.0026 10.8003 3.45673 9.7039C3.91085 8.60754 4.67989 7.67047 5.66658 7.01118C6.65328 6.35189 7.81331 6 9 6C9.25126 6 9.49223 6.09981 9.66989 6.27748C9.84756 6.45514 9.94737 6.69611 9.94737 6.94737C9.94737 7.19863 9.84756 7.43959 9.66989 7.61726C9.49223 7.79492 9.25126 7.89474 9 7.89474Z" fill="url(#paint1_linear_38_71)" stroke="url(#paint2_linear_38_71)"/>
<path d="M19.0802 12.225C19.0802 13.3138 18.6477 14.3579 17.8778 15.1278C17.1079 15.8977 16.0638 16.3302 14.975 16.3302C14.7237 16.3302 14.4828 16.4301 14.3051 16.6077C14.1274 16.7854 14.0276 17.0263 14.0276 17.2776C14.0276 17.5289 14.1274 17.7698 14.3051 17.9475C14.4828 18.1252 14.7237 18.225 14.975 18.225C16.1617 18.225 17.3217 17.8731 18.3084 17.2138C19.2951 16.5545 20.0641 15.6174 20.5183 14.5211C20.9724 13.4247 21.0912 12.2183 20.8597 11.0544C20.6282 9.89055 20.0567 8.82145 19.2176 7.98234C18.3785 7.14322 17.3094 6.57178 16.1455 6.34027C14.9816 6.10876 13.7752 6.22758 12.6789 6.6817C11.5825 7.13583 10.6454 7.90486 9.98616 8.89156C9.32687 9.87825 8.97498 11.0383 8.97498 12.225C8.97498 12.4762 9.07479 12.7172 9.25245 12.8949C9.43012 13.0725 9.67109 13.1723 9.92234 13.1723C10.1736 13.1723 10.4146 13.0725 10.5922 12.8949C10.7699 12.7172 10.8697 12.4762 10.8697 12.225C10.8697 11.1362 11.3022 10.092 12.0721 9.32212C12.842 8.55223 13.8862 8.11971 14.975 8.11971C16.0638 8.11971 17.1079 8.55223 17.8778 9.32212C18.6477 10.092 19.0802 11.1362 19.0802 12.225Z" fill="url(#paint3_linear_38_71)" stroke="url(#paint4_linear_38_71)"/>
<defs>
<linearGradient id="paint0_linear_38_71" x1="12" y1="23" x2="12" y2="1" gradientUnits="userSpaceOnUse">
<stop stop-color="#7D92FF"/>
<stop offset="1" stop-color="#8AE2FF"/>
</linearGradient>
<linearGradient id="paint1_linear_38_71" x1="9" y1="18" x2="9" y2="6" gradientUnits="userSpaceOnUse">
<stop stop-color="#5558FF"/>
<stop offset="1" stop-color="#00C0FF"/>
</linearGradient>
<linearGradient id="paint2_linear_38_71" x1="9" y1="18" x2="9" y2="6" gradientUnits="userSpaceOnUse">
<stop stop-color="#5558FF"/>
<stop offset="1" stop-color="#00C0FF"/>
</linearGradient>
<linearGradient id="paint3_linear_38_71" x1="14.975" y1="18.225" x2="14.975" y2="6.22498" gradientUnits="userSpaceOnUse">
<stop stop-color="#5558FF"/>
<stop offset="1" stop-color="#00C0FF"/>
</linearGradient>
<linearGradient id="paint4_linear_38_71" x1="14.975" y1="18.225" x2="14.975" y2="6.22498" gradientUnits="userSpaceOnUse">
<stop stop-color="#5558FF"/>
<stop offset="1" stop-color="#00C0FF"/>
</linearGradient>
</defs>
</svg>
