<svg width="24" height="24" viewBox="0 0 24 24" fill="none" xmlns="http://www.w3.org/2000/svg">
<path opacity="0.4" d="M11.8002 1C6.94029 1 3 5.4034 3 10.3502C3 15.2585 5.80836 20.5936 10.1909 22.6419C10.6946 22.8777 11.244 23 11.8002 23C12.3564 23 12.9058 22.8777 13.4095 22.6419C17.792 20.5936 20.6004 15.2585 20.6004 10.3502C20.6004 5.4034 16.6601 1 11.8002 1Z" fill="url(#paint0_linear_314_85)"/>
<path d="M11.8001 12.5504C12.5294 12.5504 13.2289 12.2607 13.7447 11.745C14.2604 11.2292 14.5501 10.5297 14.5501 9.80035C14.5501 9.07099 14.2604 8.3715 13.7447 7.85576C13.2289 7.34003 12.5294 7.05029 11.8001 7.05029C11.0707 7.05029 10.3712 7.34003 9.85552 7.85576C9.33979 8.3715 9.05005 9.07099 9.05005 9.80035C9.05005 10.5297 9.33979 11.2292 9.85552 11.745C10.3712 12.2607 11.0707 12.5504 11.8001 12.5504Z" fill="url(#paint1_linear_314_85)"/>
<defs>
<linearGradient id="paint0_linear_314_85" x1="20.104" y1="12" x2="4.77982" y2="7.56525" gradientUnits="userSpaceOnUse">
<stop stop-color="#FE7970"/>
<stop offset="1" stop-color="#DC3282"/>
</linearGradient>
<linearGradient id="paint1_linear_314_85" x1="14.395" y1="9.80034" x2="9.8057" y2="8.14022" gradientUnits="userSpaceOnUse">
<stop stop-color="#FE7970"/>
<stop offset="1" stop-color="#DC3282"/>
</linearGradient>
</defs>
</svg>
