<svg width="24" height="24" viewBox="0 0 24 24" fill="none" xmlns="http://www.w3.org/2000/svg">
<path opacity="0.5" d="M1.3806 11.0746C1.13666 10.3702 1.00814 9.63097 1 8.88557C1 2.38457 7.05 -0.57113 12 4.74957C16.95 -0.57113 23 2.38347 23 8.88557C22.9917 9.63096 22.8632 10.3701 22.6194 11.0746H19.1764C18.5758 11.0746 18.0434 11.0724 17.5583 11.2891C17.0732 11.5047 16.7168 11.9018 16.3153 12.3484L16.2328 12.4408L15.1009 13.6981C15.0745 13.7276 15.0421 13.7511 15.0058 13.7669C14.9695 13.7828 14.9303 13.7906 14.8907 13.7899C14.8511 13.7891 14.8121 13.7799 14.7765 13.7627C14.7408 13.7455 14.7093 13.7209 14.684 13.6904L10.779 8.95487C10.625 8.76787 10.4611 8.56987 10.3005 8.42137C10.0716 8.19582 9.77052 8.05831 9.4502 8.03307C9.12904 8.01973 8.81348 8.12024 8.5592 8.31687C8.3832 8.44447 8.1962 8.62267 8.0202 8.78987L6.3372 10.3915C5.8191 10.8865 5.7102 10.9701 5.598 11.0152C5.4847 11.0614 5.3472 11.0746 4.6311 11.0746H1.3806Z" fill="url(#paint0_linear_8_488)"/>
<path d="M22.6194 11.0746H19.1764C18.5758 11.0735 18.0434 11.0724 17.5572 11.288C17.0732 11.5047 16.7168 11.9018 16.3153 12.3484L16.2328 12.4408L15.1009 13.6981C15.0745 13.7278 15.0419 13.7513 15.0055 13.7672C14.969 13.7831 14.9296 13.7909 14.8899 13.79C14.8502 13.7892 14.8111 13.7797 14.7754 13.7624C14.7396 13.745 14.7081 13.7201 14.6829 13.6893L10.7779 8.95491C10.6239 8.76791 10.4589 8.56991 10.2994 8.42141C10.0707 8.19546 9.76958 8.05755 9.44912 8.03201C9.12768 8.0193 8.8121 8.12059 8.55812 8.31801C8.38102 8.44451 8.19402 8.62271 8.01912 8.78881L6.33612 10.3915C5.81802 10.8865 5.70912 10.9701 5.59582 11.0152C5.48252 11.0603 5.34612 11.0746 4.63002 11.0746H1.38062C2.52022 14.4901 5.99072 17.833 8.65712 20.0066C10.1223 21.2023 10.856 21.7996 12 21.7996C13.144 21.7996 13.8766 21.2023 15.3418 20.0066C18.0082 17.833 21.4798 14.4901 22.6194 11.0746Z" fill="url(#paint1_linear_8_488)"/>
<defs>
<linearGradient id="paint0_linear_8_488" x1="22.9348" y1="2.07474" x2="13.15" y2="20.1811" gradientUnits="userSpaceOnUse">
<stop stop-color="#FE7970"/>
<stop offset="1" stop-color="#DC3282"/>
</linearGradient>
<linearGradient id="paint1_linear_8_488" x1="22.5565" y1="8.11823" x2="10.0438" y2="27.2589" gradientUnits="userSpaceOnUse">
<stop stop-color="#FE7970"/>
<stop offset="1" stop-color="#DC3282"/>
</linearGradient>
</defs>
</svg>
