<svg width="24" height="24" viewBox="0 0 24 24" fill="none" xmlns="http://www.w3.org/2000/svg">
<path d="M15.7582 9.05818L14.3609 10.2218C13.4282 11 12.7809 11.5373 12.2336 11.8891C11.7046 12.23 11.3455 12.3436 11 12.3436C10.6546 12.3436 10.2964 12.23 9.76637 11.8891C9.22 11.5382 8.57182 11 7.6391 10.2218L5.48 8.42273C5.32714 8.29542 5.12997 8.23406 4.93186 8.25213C4.73376 8.2702 4.55094 8.36623 4.42364 8.51909C4.29634 8.67195 4.23497 8.86912 4.25304 9.06723C4.27111 9.26533 4.36714 9.44815 4.52 9.57545L6.71637 11.4064C7.60273 12.1445 8.32091 12.7427 8.95546 13.1518C9.61546 13.5755 10.2591 13.8445 11.0009 13.8445C11.7409 13.8445 12.3845 13.5755 13.0445 13.1509C13.6791 12.7436 14.3973 12.1445 15.2836 11.4055L16.7982 10.1436C16.3878 9.84878 16.0352 9.48082 15.7582 9.05818Z" fill="url(#paint0_linear_8_530)"/>
<path opacity="0.5" d="M15.5073 5.01909C14.7782 5 13.9491 5 13 5H9C5.22909 5 3.34273 5 2.17182 6.19818C1 7.39636 1 9.32545 1 13.1818C1 17.0391 1 18.9673 2.17182 20.1655C3.34273 21.3636 5.22909 21.3636 9 21.3636H13C16.7709 21.3636 18.6573 21.3636 19.8282 20.1655C21 18.9673 21 17.0382 21 13.1818C21 12.2118 21 11.3636 20.9818 10.6182C20.4233 10.8987 19.8068 11.0444 19.1818 11.0436C16.9227 11.0436 15.0909 9.17091 15.0909 6.85909C15.0909 6.19909 15.2409 5.57455 15.5073 5.01909Z" fill="url(#paint1_linear_8_530)"/>
<path d="M17.3308 3.02297C17.1282 2.92297 16.9273 3.16826 17.0259 3.39532L18.1041 5.87813C18.1374 5.95486 18.1374 6.04515 18.1041 6.12188L17.0259 8.60467C16.9273 8.83172 17.1282 9.07703 17.3308 8.97702L22.8566 6.25047C23.0478 6.1561 23.0478 5.84391 22.8566 5.74953L17.3308 3.02297ZM18.0272 4.48316C17.9285 4.2561 18.1294 4.01083 18.3321 4.11082L21.6537 5.74953C21.8449 5.8439 21.8449 6.15611 21.6537 6.25048L18.3321 7.88918C18.1294 7.98919 17.9285 7.74388 18.0272 7.51682L18.633 6.12188C18.6663 6.04515 18.6663 5.95486 18.633 5.87813L18.0272 4.48316Z" fill="url(#paint2_linear_8_530)" stroke="url(#paint3_linear_8_530)"/>
<defs>
<linearGradient id="paint0_linear_8_530" x1="6.0876" y1="13.0251" x2="9.03099" y2="6.42437" gradientUnits="userSpaceOnUse">
<stop stop-color="#0072FF"/>
<stop offset="1" stop-color="#00E5A1"/>
</linearGradient>
<linearGradient id="paint1_linear_8_530" x1="3.92895" y1="18.9672" x2="15.2706" y2="5.10516" gradientUnits="userSpaceOnUse">
<stop stop-color="#0072FF"/>
<stop offset="1" stop-color="#00E5A1"/>
</linearGradient>
<linearGradient id="paint2_linear_8_530" x1="20" y1="9" x2="20" y2="3" gradientUnits="userSpaceOnUse">
<stop stop-color="#02AA93"/>
<stop offset="1" stop-color="#67FF80"/>
</linearGradient>
<linearGradient id="paint3_linear_8_530" x1="20" y1="9" x2="20" y2="3" gradientUnits="userSpaceOnUse">
<stop stop-color="#02AA93"/>
<stop offset="1" stop-color="#67FF80"/>
</linearGradient>
</defs>
</svg>
