<svg width="24" height="24" viewBox="0 0 24 24" fill="none" xmlns="http://www.w3.org/2000/svg">
<path d="M14.0593 7.64161C14.0883 7.57523 14.1053 7.50281 14.1092 7.42873C14.1131 7.35465 14.1039 7.28043 14.082 7.21054C14.0602 7.14065 14.0263 7.07654 13.9822 7.02207C13.9382 6.96759 13.8849 6.92388 13.8257 6.89357L4.78841 2.28106C3.35043 1.54733 1.85959 3.1765 2.57184 4.70337L5.60159 11.1981C5.8371 11.703 5.8371 12.2981 5.60159 12.8019L2.57184 19.2966C1.85959 20.8235 3.35043 22.4538 4.78841 21.719L8.17573 19.9897C8.58243 19.7824 8.91367 19.4201 9.11291 18.9644L14.0593 7.64161Z" fill="url(#paint0_linear_348_162)"/>
<path opacity="0.5" d="M15.3963 8.27096C15.4516 8.14448 15.5475 8.04728 15.6638 7.99955C15.7802 7.95182 15.9081 7.95722 16.0211 8.01464L20.657 10.3798C21.9296 11.0288 21.9296 12.9704 20.657 13.6194L12.1051 17.9844C12.0146 18.0306 11.9139 18.0436 11.8167 18.0218C11.7196 18 11.6306 17.9443 11.5622 17.8624C11.4937 17.7806 11.449 17.6765 11.4341 17.5644C11.4193 17.4523 11.4351 17.3378 11.4794 17.2364L15.3963 8.27096Z" fill="url(#paint1_linear_348_162)"/>
<defs>
<linearGradient id="paint0_linear_348_162" x1="13.6992" y1="12.0002" x2="3.11045" y2="12.7021" gradientUnits="userSpaceOnUse">
<stop stop-color="#8D01A2"/>
<stop offset="1" stop-color="#FF00D2"/>
</linearGradient>
<linearGradient id="paint1_linear_348_162" x1="21.2546" y1="12.9997" x2="12.1328" y2="14.0331" gradientUnits="userSpaceOnUse">
<stop stop-color="#8D01A2"/>
<stop offset="1" stop-color="#FF00D2"/>
</linearGradient>
</defs>
</svg>
