<svg width="24" height="24" viewBox="0 0 24 24" fill="none" xmlns="http://www.w3.org/2000/svg">
<path d="M24 5C24 5.79565 23.6839 6.55871 23.1213 7.12132C22.5587 7.68393 21.7956 8 21 8C20.2043 8 19.4413 7.68393 18.8787 7.12132C18.3161 6.55871 18 5.79565 18 5C18 4.20435 18.3161 3.44129 18.8787 2.87868C19.4413 2.31607 20.2043 2 21 2C21.7956 2 22.5587 2.31607 23.1213 2.87868C23.6839 3.44129 24 4.20435 24 5ZM17.234 7.464L15.697 8.744C14.671 9.6 13.959 10.191 13.357 10.578C12.775 10.953 12.38 11.078 12 11.078C11.62 11.078 11.226 10.953 10.643 10.578C10.042 10.192 9.32899 9.6 8.30299 8.744L5.92799 6.765C5.75985 6.62497 5.54296 6.55746 5.32504 6.57734C5.10712 6.59722 4.90603 6.70285 4.76599 6.871C4.62596 7.03915 4.55846 7.25604 4.57833 7.47395C4.59821 7.69187 4.70385 7.89297 4.87199 8.033L7.28799 10.047C8.26299 10.859 9.05299 11.517 9.75099 11.967C10.477 12.433 11.185 12.729 12.001 12.729C12.815 12.729 13.523 12.433 14.249 11.966C14.947 11.518 15.737 10.859 16.712 10.046L18.378 8.658C17.9265 8.33366 17.5387 7.9289 17.234 7.464Z" fill="url(#paint0_linear_8_530)"/>
<path d="M18.454 6.58703C18.5851 6.56343 18.72 6.57191 18.8471 6.61177C18.9742 6.65163 19.0897 6.72167 19.1839 6.81592C19.278 6.91016 19.348 7.02579 19.3877 7.15294C19.4274 7.28009 19.4358 7.41496 19.412 7.54603C19.024 7.30323 18.6964 6.97527 18.454 6.58703Z" fill="url(#paint1_linear_8_530)"/>
<path opacity="0.5" d="M16.958 3.021C16.156 3 15.244 3 14.2 3H9.8C5.652 3 3.577 3 2.289 4.318C1 5.636 1 7.758 1 12C1 16.243 1 18.364 2.289 19.682C3.577 21 5.652 21 9.8 21H14.2C18.348 21 20.423 21 21.711 19.682C23 18.364 23 16.242 23 12C23 10.933 23 10 22.98 9.18C22.3656 9.48855 21.6875 9.64883 21 9.648C18.515 9.648 16.5 7.588 16.5 5.045C16.5 4.319 16.665 3.632 16.958 3.021Z" fill="url(#paint2_linear_8_530)"/>
<defs>
<linearGradient id="paint0_linear_8_530" x1="23.9424" y1="2.06802" x2="14.8926" y2="18.3166" gradientUnits="userSpaceOnUse">
<stop stop-color="#FE7970"/>
<stop offset="1" stop-color="#DC3282"/>
</linearGradient>
<linearGradient id="paint1_linear_8_530" x1="19.4223" y1="6.58014" x2="18.458" y2="7.53564" gradientUnits="userSpaceOnUse">
<stop stop-color="#FE7970"/>
<stop offset="1" stop-color="#DC3282"/>
</linearGradient>
<linearGradient id="paint2_linear_8_530" x1="22.9348" y1="3.11411" x2="5.4018" y2="24.365" gradientUnits="userSpaceOnUse">
<stop stop-color="#FE7970"/>
<stop offset="1" stop-color="#DC3282"/>
</linearGradient>
</defs>
</svg>
