<svg width="33" height="33" viewBox="0 0 33 33" fill="none" xmlns="http://www.w3.org/2000/svg">
<path d="M15.6273 8.09944L24.6204 15.3663C24.8373 15.5401 24.8744 15.859 24.7051 16.0812L14.0435 29.9734C13.3733 30.8316 12.3856 31.3171 11.3274 31.335L5.50722 31.4067C5.19681 31.4103 4.9252 31.1953 4.85465 30.8871L3.53188 25.136C3.30259 24.079 3.53188 22.9861 4.20208 22.144L14.9165 8.18544C15.0894 7.96149 15.4086 7.92207 15.6273 8.09944Z" fill="url(#paint0_linear_310_430)"/>
<path opacity="0.4" d="M28.6466 11.0352L26.9128 13.1995C26.7382 13.4198 26.4243 13.4557 26.2074 13.2801C24.0997 11.5745 18.7028 7.19751 17.2054 5.98459C16.9867 5.80542 16.9568 5.48652 17.1331 5.26435L18.8051 3.18787C20.3219 1.235 22.9674 1.05584 25.1015 2.75788L27.5531 4.71074C28.5584 5.49906 29.2286 6.5382 29.4579 7.63109C29.7224 8.83326 29.4402 10.0139 28.6466 11.0352Z" fill="url(#paint1_linear_310_430)"/>
<defs>
<linearGradient id="paint0_linear_310_430" x1="14.1284" y1="31.4067" x2="14.1284" y2="7.98828" gradientUnits="userSpaceOnUse">
<stop stop-color="#FD5900"/>
<stop offset="1" stop-color="#FFDE00"/>
</linearGradient>
<linearGradient id="paint1_linear_310_430" x1="23.2865" y1="13.3914" x2="23.2865" y2="1.59277" gradientUnits="userSpaceOnUse">
<stop stop-color="#FD5900"/>
<stop offset="1" stop-color="#FFDE00"/>
</linearGradient>
</defs>
</svg>
