<svg width="32" height="32" viewBox="0 0 32 32" fill="none" xmlns="http://www.w3.org/2000/svg">
<path opacity="0.4" d="M30 21.117C30 25.023 26.864 28.187 22.958 28.201H22.944H9.07C5.178 28.201 2 25.051 2 21.145V21.131C2 21.131 2.0084 14.9346 2.0196 11.8182C2.021 11.233 2.693 10.9054 3.1508 11.2694C6.4772 13.9084 12.4258 18.7202 12.5 18.7832C13.494 19.5798 14.754 20.0292 16.042 20.0292C17.33 20.0292 18.59 19.5798 19.584 18.7678C19.6582 18.7188 25.4738 14.0512 28.8506 11.3688C29.3098 11.0034 29.9846 11.331 29.986 11.9148C30 15.0074 30 21.117 30 21.117Z" fill="url(#paint0_linear_26_123)"/>
<path d="M29.2666 6.7436C28.0542 4.4588 25.6686 3 23.0422 3H9.0702C6.4438 3 4.0582 4.4588 2.8458 6.7436C2.5742 7.2546 2.703 7.8916 3.1552 8.2528L13.5502 16.5674C14.2782 17.1554 15.1602 17.448 16.0422 17.448C16.0478 17.448 16.052 17.448 16.0562 17.448C16.0604 17.448 16.066 17.448 16.0702 17.448C16.9522 17.448 17.8342 17.1554 18.5622 16.5674L28.9572 8.2528C29.4094 7.8916 29.5382 7.2546 29.2666 6.7436Z" fill="url(#paint1_linear_26_123)"/>
<defs>
<linearGradient id="paint0_linear_26_123" x1="1.59528" y1="11.2847" x2="17.0444" y2="37.3792" gradientUnits="userSpaceOnUse">
<stop stop-color="#F9D423"/>
<stop offset="0.515624" stop-color="#FF4E50"/>
<stop offset="0.991304" stop-color="#8A2387"/>
</linearGradient>
<linearGradient id="paint1_linear_26_123" x1="2.31849" y1="3.14217" x2="14.5841" y2="26.5056" gradientUnits="userSpaceOnUse">
<stop stop-color="#F9D423"/>
<stop offset="0.515624" stop-color="#FF4E50"/>
<stop offset="0.991304" stop-color="#8A2387"/>
</linearGradient>
</defs>
</svg>
