<svg width="24" height="24" viewBox="0 0 24 24" fill="none" xmlns="http://www.w3.org/2000/svg">
<path d="M16.234 9.46405L14.697 10.744C13.671 11.6 12.959 12.191 12.357 12.578C11.775 12.953 11.38 13.078 11 13.078C10.62 13.078 10.226 12.953 9.64299 12.578C9.04199 12.192 8.32899 11.6 7.30299 10.744L4.92799 8.76505C4.75985 8.62501 4.54296 8.55751 4.32504 8.57739C4.10712 8.59727 3.90603 8.7029 3.76599 8.87105C3.62596 9.03919 3.55846 9.25608 3.57833 9.474C3.59821 9.69192 3.70385 9.89301 3.87199 10.033L6.28799 12.047C7.26299 12.859 8.05299 13.517 8.75099 13.967C9.47699 14.433 10.185 14.729 11.001 14.729C11.815 14.729 12.523 14.433 13.249 13.966C13.947 13.518 14.737 12.859 15.712 12.046L17.378 10.658C16.9265 10.3337 16.5387 9.92895 16.234 9.46405Z" fill="url(#paint0_linear_8_530)"/>
<path opacity="0.5" d="M15.958 5.021C15.156 5 14.244 5 13.2 5H8.8C4.652 5 2.577 5 1.289 6.318C0 7.636 0 9.758 0 14C0 18.243 0 20.364 1.289 21.682C2.577 23 4.652 23 8.8 23H13.2C17.348 23 19.423 23 20.711 21.682C22 20.364 22 18.242 22 14C22 12.933 22 12 21.98 11.18C21.3656 11.4885 20.6875 11.6488 20 11.648C17.515 11.648 15.5 9.588 15.5 7.045C15.5 6.319 15.665 5.632 15.958 5.021Z" fill="url(#paint1_linear_8_530)"/>
<path d="M18.4062 2H21.9218C22.2947 2 22.6524 2.14815 22.916 2.41187C23.1798 2.67558 23.3279 3.03326 23.3279 3.4062V9.05112C23.3279 9.22987 23.2773 9.40495 23.1822 9.55625C23.087 9.70755 22.951 9.8289 22.7899 9.90632C22.6289 9.98375 22.4491 10.0141 22.2715 9.99392C22.094 9.97373 21.9257 9.90381 21.786 9.79219L20.164 8.49497L18.5419 9.79219C18.4023 9.90381 18.234 9.97373 18.0564 9.99392C17.8788 10.0141 17.6991 9.98375 17.538 9.90632C17.3769 9.8289 17.2409 9.70755 17.1458 9.55625C17.0506 9.40495 17.0001 9.22987 17 9.05112V3.4062C17 3.03326 17.1481 2.67558 17.4119 2.41187C17.6756 2.14815 18.0333 2 18.4062 2Z" fill="url(#paint2_linear_8_530)"/>
<defs>
<linearGradient id="paint0_linear_8_530" x1="3.37541" y1="8.63454" x2="8.00266" y2="19.3289" gradientUnits="userSpaceOnUse">
<stop stop-color="#F9D423"/>
<stop offset="0.515624" stop-color="#FF4E50"/>
<stop offset="0.991304" stop-color="#8A2387"/>
</linearGradient>
<linearGradient id="paint1_linear_8_530" x1="-0.317994" y1="5.17712" x2="17.7631" y2="27.9524" gradientUnits="userSpaceOnUse">
<stop stop-color="#F9D423"/>
<stop offset="0.515624" stop-color="#FF4E50"/>
<stop offset="0.991304" stop-color="#8A2387"/>
</linearGradient>
<linearGradient id="paint2_linear_8_530" x1="6.20953" y1="1.02319" x2="23.6058" y2="18.9516" gradientUnits="userSpaceOnUse">
<stop stop-color="#F9D423"/>
<stop offset="0.515624" stop-color="#FF4E50"/>
<stop offset="0.991304" stop-color="#8A2387"/>
</linearGradient>
</defs>
</svg>
