<svg width="24" height="24" viewBox="0 0 24 24" fill="none" xmlns="http://www.w3.org/2000/svg">
<path d="M15.7582 9.05818L14.3609 10.2218C13.4282 11 12.7809 11.5373 12.2336 11.8891C11.7046 12.23 11.3455 12.3436 11 12.3436C10.6546 12.3436 10.2964 12.23 9.76637 11.8891C9.22 11.5382 8.57182 11 7.6391 10.2218L5.48 8.42273C5.32714 8.29542 5.12997 8.23406 4.93186 8.25213C4.73376 8.2702 4.55094 8.36623 4.42364 8.51909C4.29634 8.67195 4.23497 8.86912 4.25304 9.06723C4.27111 9.26533 4.36714 9.44815 4.52 9.57545L6.71637 11.4064C7.60273 12.1445 8.32091 12.7427 8.95546 13.1518C9.61546 13.5755 10.2591 13.8445 11.0009 13.8445C11.7409 13.8445 12.3845 13.5755 13.0445 13.1509C13.6791 12.7436 14.3973 12.1445 15.2836 11.4055L16.7982 10.1436C16.3878 9.84878 16.0352 9.48082 15.7582 9.05818Z" fill="url(#paint0_linear_8_530)"/>
<path opacity="0.5" d="M15.5073 5.01909C14.7782 5 13.9491 5 13 5H9C5.22909 5 3.34273 5 2.17182 6.19818C1 7.39636 1 9.32545 1 13.1818C1 17.0391 1 18.9673 2.17182 20.1655C3.34273 21.3636 5.22909 21.3636 9 21.3636H13C16.7709 21.3636 18.6573 21.3636 19.8282 20.1655C21 18.9673 21 17.0382 21 13.1818C21 12.2118 21 11.3636 20.9818 10.6182C20.4233 10.8987 19.8068 11.0444 19.1818 11.0436C16.9227 11.0436 15.0909 9.17091 15.0909 6.85909C15.0909 6.19909 15.2409 5.57455 15.5073 5.01909Z" fill="url(#paint1_linear_8_530)"/>
<path d="M17.3574 4.99418C17.4896 4.90618 17.6449 4.8594 17.8037 4.85977H19.3052V2.03508C19.3052 1.76056 19.4143 1.49728 19.6084 1.30317C19.8025 1.10905 20.0658 1 20.3403 1C20.6148 1 20.8781 1.10905 21.0722 1.30317C21.2664 1.49728 21.3754 1.76056 21.3754 2.03508V4.85977H22.877C23.0358 4.8594 23.191 4.90618 23.3232 4.99418C23.4554 5.08218 23.5585 5.20742 23.6193 5.35406C23.6802 5.50069 23.6962 5.6621 23.6653 5.81784C23.6344 5.97357 23.5579 6.11662 23.4455 6.22884L20.9062 8.76548C20.7556 8.91565 20.5516 9 20.339 9C20.1263 9 19.9223 8.91565 19.7717 8.76548L17.2351 6.22884C17.1228 6.11662 17.0463 5.97357 17.0154 5.81784C16.9844 5.6621 17.0004 5.50069 17.0613 5.35406C17.1222 5.20742 17.2253 5.08218 17.3574 4.99418Z" fill="url(#paint2_linear_8_530)"/>
<defs>
<linearGradient id="paint0_linear_8_530" x1="10.5241" y1="13.8445" x2="10.5241" y2="8.24902" gradientUnits="userSpaceOnUse">
<stop stop-color="#00B59C"/>
<stop offset="1" stop-color="#9CFFAC"/>
</linearGradient>
<linearGradient id="paint1_linear_8_530" x1="11" y1="21.3636" x2="11" y2="5" gradientUnits="userSpaceOnUse">
<stop stop-color="#00B59C"/>
<stop offset="1" stop-color="#9CFFAC"/>
</linearGradient>
<linearGradient id="paint2_linear_8_530" x1="20.3403" y1="9" x2="20.3403" y2="1" gradientUnits="userSpaceOnUse">
<stop stop-color="#02AA93"/>
<stop offset="1" stop-color="#67FF80"/>
</linearGradient>
</defs>
</svg>
