<svg width="24" height="24" viewBox="0 0 24 24" fill="none" xmlns="http://www.w3.org/2000/svg">
<path opacity="0.4" d="M1 15.9776C1 16.9093 1.7502 17.6595 3.2495 19.1588L4.8412 20.7505C6.3405 22.2498 7.0907 23 8.0224 23C8.9541 23 9.7054 22.2498 11.2047 20.7505L20.7505 11.2047C22.2498 9.7043 23 8.953 23 8.0224C23 7.0918 22.2498 6.3405 20.7505 4.8412L19.1588 3.2495C17.6595 1.7502 16.9093 1 15.9776 1C15.1482 1 14.464 1.594 13.2672 2.7798L12.1122 3.9326L10.933 5.1129L9.778 6.2657L8.601 7.446L7.446 8.5999L6.2668 9.778L5.114 10.933L3.9337 12.1133L2.7809 13.2672C1.5929 14.464 1 15.1482 1 15.9776Z" fill="url(#paint0_linear_54_921)"/>
<path d="M15.1009 1.30398C15.0627 1.26633 15.0218 1.23157 14.9785 1.20001L13.4845 2.69258C13.5158 2.73531 13.5514 2.77661 13.5898 2.81507L15.6037 4.8289C15.8062 5.01758 16.074 5.1203 16.3507 5.11542C16.6274 5.11053 16.8915 4.99843 17.0872 4.80273C17.2829 4.60702 17.395 4.34299 17.3999 4.06627C17.4047 3.78954 17.302 3.52172 17.1133 3.31924L15.1024 1.30256L15.1009 1.30398ZM12.0788 4.32616C12.0406 4.28802 11.9997 4.25279 11.9563 4.22076L10.4637 5.71334C10.4953 5.75711 10.5305 5.79809 10.5691 5.83582L13.5898 8.85799C13.7914 9.05247 14.0613 9.16001 14.3413 9.15745C14.6214 9.15488 14.8893 9.04242 15.0872 8.84428C15.2852 8.64614 15.3974 8.37818 15.3997 8.09811C15.402 7.81804 15.2942 7.54827 15.0995 7.34691L12.0788 4.32616ZM9.05801 7.34691C9.01988 7.30876 8.97893 7.27353 8.93552 7.24151L7.44153 8.73409C7.47286 8.77681 7.50846 8.81954 7.54692 8.85799L9.56218 10.8718C9.65997 10.9768 9.77789 11.0609 9.90892 11.1193C10.0399 11.1777 10.1814 11.2091 10.3248 11.2116C10.4682 11.2142 10.6107 11.1878 10.7437 11.1341C10.8767 11.0803 10.9975 11.0004 11.099 10.8989C11.2004 10.7975 11.2803 10.6767 11.3341 10.5437C11.3878 10.4107 11.4142 10.2682 11.4116 10.1248C11.4091 9.98138 11.3777 9.83993 11.3193 9.7089C11.261 9.57788 11.1768 9.45995 11.0718 9.36216L9.05801 7.34691ZM6.03725 10.3677C5.99912 10.3295 5.95818 10.2943 5.91477 10.2623L4.42078 11.7563C4.45211 11.799 4.48771 11.8403 4.52617 11.8787L7.54692 14.8995C7.6454 15.0016 7.76323 15.083 7.89352 15.139C8.02382 15.1951 8.16397 15.2246 8.30579 15.2259C8.44762 15.2272 8.58829 15.2002 8.71959 15.1466C8.85088 15.093 8.97018 15.0137 9.07052 14.9134C9.17086 14.8132 9.25023 14.694 9.304 14.5627C9.35777 14.4315 9.38486 14.2908 9.3837 14.149C9.38253 14.0072 9.35313 13.867 9.29721 13.7367C9.2413 13.6063 9.15998 13.4884 9.05801 13.3898L6.03725 10.3677ZM3.01508 13.3898C2.97702 13.3512 2.93607 13.3155 2.8926 13.283L1.40002 14.7784C1.43136 14.8212 1.46696 14.861 1.50542 14.8995L3.51925 16.9133C3.61704 17.0183 3.73496 17.1024 3.86599 17.1608C3.99702 17.2192 4.13846 17.2506 4.28188 17.2531C4.42531 17.2557 4.56777 17.2293 4.70077 17.1756C4.83378 17.1218 4.9546 17.0419 5.05603 16.9404C5.15746 16.839 5.23742 16.7182 5.29114 16.5852C5.34487 16.4522 5.37125 16.3097 5.36872 16.1663C5.36619 16.0229 5.3348 15.8814 5.27641 15.7504C5.21803 15.6194 5.13386 15.5015 5.02891 15.4037L3.01508 13.3898Z" fill="url(#paint1_linear_54_921)"/>
<defs>
<linearGradient id="paint0_linear_54_921" x1="22.9348" y1="1.13947" x2="1.10885" y2="22.7838" gradientUnits="userSpaceOnUse">
<stop stop-color="#FE7970"/>
<stop offset="1" stop-color="#DC3282"/>
</linearGradient>
<linearGradient id="paint1_linear_54_921" x1="17.3526" y1="1.30178" x2="1.42685" y2="17.0426" gradientUnits="userSpaceOnUse">
<stop stop-color="#FE7970"/>
<stop offset="1" stop-color="#DC3282"/>
</linearGradient>
</defs>
</svg>
