<svg width="16" height="17" viewBox="0 0 16 17" fill="none" xmlns="http://www.w3.org/2000/svg">
<path opacity="0.4" d="M10.6167 10.167H4.89999C4.84476 10.167 4.79999 10.1222 4.79999 10.067V9.46442C4.79999 8.90533 4.17689 8.57186 3.7117 8.88199L1.33281 10.4679C0.917199 10.745 0.9172 11.3557 1.33281 11.6328L3.7117 13.2187C4.17689 13.5288 4.79999 13.1954 4.79999 12.6363V12.0337C4.79999 11.9785 4.84476 11.9337 4.89999 11.9337H10.6167C11.1045 11.9337 11.5 11.5382 11.5 11.0503C11.5 10.5625 11.1045 10.167 10.6167 10.167Z" fill="url(#paint0_linear_291_115)"/>
<path d="M11.5 4.23367V3.63107C11.5 3.3116 11.8561 3.12104 12.1219 3.29825L14.5008 4.88418C14.7383 5.04251 14.7383 5.39149 14.5008 5.54982L12.1219 7.13575C11.8561 7.31296 11.5 7.1224 11.5 6.80293V6.20033C11.5 5.97942 11.3209 5.80033 11.1 5.80033H4.5C3.34318 5.80033 2.38817 6.63377 2.20023 7.7354C2.16308 7.95317 1.98758 8.13367 1.76667 8.13367H1.4C1.17909 8.13367 0.99761 7.95384 1.02233 7.73431C1.21934 5.98474 2.69609 4.63367 4.5 4.63367H11.1C11.3209 4.63367 11.5 4.45458 11.5 4.23367Z" fill="url(#paint1_linear_291_115)" stroke="url(#paint2_linear_291_115)" stroke-width="0.6"/>
<path d="M15.3052 12.8556C15.0563 13.1045 14.6517 13.1045 14.4028 12.8556L13.5003 11.9531L12.5972 12.8556C12.3521 13.109 11.9481 13.116 11.6948 12.8715C11.4414 12.6265 11.4344 12.2225 11.6788 11.9691C11.6839 11.964 11.689 11.9582 11.6948 11.9531L12.5972 11.0507L11.6948 10.1476C11.4414 9.90249 11.4344 9.49849 11.6788 9.24511C11.9239 8.99174 12.3279 8.98472 12.5813 9.22916C12.5864 9.23426 12.5921 9.23937 12.5972 9.24511L13.5003 10.1476L14.4028 9.24511C14.6479 8.99174 15.0519 8.98472 15.3052 9.22916C15.5586 9.47424 15.5656 9.87824 15.3212 10.1316C15.3161 10.1367 15.311 10.1425 15.3052 10.1476L14.4028 11.0507L15.3052 11.9531C15.5554 12.2014 15.5586 12.6035 15.3103 12.8537C15.3091 12.855 15.3084 12.8562 15.3052 12.8556Z" fill="url(#paint3_linear_291_115)"/>
<defs>
<linearGradient id="paint0_linear_291_115" x1="11.146" y1="8.89399" x2="10.2701" y2="13.9322" gradientUnits="userSpaceOnUse">
<stop stop-color="#FE0F7C"/>
<stop offset="1" stop-color="#DF0066"/>
</linearGradient>
<linearGradient id="paint1_linear_291_115" x1="14.527" y1="3.03373" x2="13.6567" y2="8.86111" gradientUnits="userSpaceOnUse">
<stop stop-color="#FE0F7C"/>
<stop offset="1" stop-color="#DF0066"/>
</linearGradient>
<linearGradient id="paint2_linear_291_115" x1="14.527" y1="3.03373" x2="13.6567" y2="8.86111" gradientUnits="userSpaceOnUse">
<stop stop-color="#FE0F7C"/>
<stop offset="1" stop-color="#DF0066"/>
</linearGradient>
<linearGradient id="paint3_linear_291_115" x1="15.3649" y1="9.16469" x2="13.8047" y2="13.0823" gradientUnits="userSpaceOnUse">
<stop stop-color="#FE0F7C"/>
<stop offset="1" stop-color="#DF0066"/>
</linearGradient>
</defs>
</svg>
