<svg width="16" height="16" viewBox="0 0 16 16" fill="none" xmlns="http://www.w3.org/2000/svg">
<path opacity="0.4" d="M10.6167 10.0333H4.89999C4.84476 10.0333 4.79999 9.98858 4.79999 9.93335V9.33075C4.79999 8.77167 4.17689 8.43819 3.7117 8.74832L1.33281 10.3342C0.917199 10.6113 0.9172 11.222 1.33281 11.4991L3.7117 13.085C4.17689 13.3952 4.79999 13.0617 4.79999 12.5026V11.9C4.79999 11.8448 4.84476 11.8 4.89999 11.8H10.6167C11.1045 11.8 11.5 11.4045 11.5 10.9167C11.5 10.4288 11.1045 10.0333 10.6167 10.0333Z" fill="url(#paint0_linear_291_110)"/>
<path d="M11.5 4.1V3.49741C11.5 3.17793 11.8561 2.98737 12.1219 3.16459L14.5008 4.75051C14.7383 4.90884 14.7383 5.25782 14.5008 5.41615L12.1219 7.00208C11.8561 7.17929 11.5 6.98874 11.5 6.66926V6.06667C11.5 5.84575 11.3209 5.66667 11.1 5.66667H4.5C3.34318 5.66667 2.38817 6.5001 2.20023 7.60173C2.16308 7.8195 1.98758 8 1.76667 8H1.4C1.17909 8 0.99761 7.82017 1.02233 7.60064C1.21934 5.85107 2.69609 4.5 4.5 4.5H11.1C11.3209 4.5 11.5 4.32091 11.5 4.1Z" fill="url(#paint1_linear_291_110)" stroke="url(#paint2_linear_291_110)" stroke-width="0.6"/>
<path d="M11.5435 7.87048C11.3226 7.87048 11.1435 8.04957 11.1435 8.27048V12.8038C11.1435 13.0247 11.3226 13.2038 11.5435 13.2038H12.0768C12.2978 13.2038 12.4768 13.0247 12.4768 12.8038V12.2705C12.4768 12.0496 12.6559 11.8705 12.8768 11.8705H13.4102C13.6311 11.8705 13.8102 12.0496 13.8102 12.2705V12.8038C13.8102 13.0247 13.9893 13.2038 14.2102 13.2038H14.7435C14.9644 13.2038 15.1435 13.0247 15.1435 12.8038V8.27048C15.1435 8.04957 14.9644 7.87048 14.7435 7.87048H11.5435ZM12.4768 9.60382C12.4768 9.3829 12.6559 9.20382 12.8768 9.20382H13.4102C13.6311 9.20382 13.8102 9.3829 13.8102 9.60382V10.1371C13.8102 10.3581 13.6311 10.5372 13.4102 10.5372H12.8768C12.6559 10.5372 12.4768 10.3581 12.4768 10.1372V9.60382Z" fill="url(#paint3_linear_291_110)"/>
<defs>
<linearGradient id="paint0_linear_291_110" x1="0.869638" y1="8.67459" x2="4.25821" y2="16.6748" gradientUnits="userSpaceOnUse">
<stop stop-color="#F9D423"/>
<stop offset="0.515624" stop-color="#FF4E50"/>
<stop offset="0.991304" stop-color="#8A2387"/>
</linearGradient>
<linearGradient id="paint1_linear_291_110" x1="0.79764" y1="2.80166" x2="4.27743" y2="12.365" gradientUnits="userSpaceOnUse">
<stop stop-color="#F9D423"/>
<stop offset="0.515624" stop-color="#FF4E50"/>
<stop offset="0.991304" stop-color="#8A2387"/>
</linearGradient>
<linearGradient id="paint2_linear_291_110" x1="0.79764" y1="2.80166" x2="4.27743" y2="12.365" gradientUnits="userSpaceOnUse">
<stop stop-color="#F9D423"/>
<stop offset="0.515624" stop-color="#FF4E50"/>
<stop offset="0.991304" stop-color="#8A2387"/>
</linearGradient>
<linearGradient id="paint3_linear_291_110" x1="11.0857" y1="7.92296" x2="16.4089" y2="12.0375" gradientUnits="userSpaceOnUse">
<stop stop-color="#F9D423"/>
<stop offset="0.515624" stop-color="#FF4E50"/>
<stop offset="0.991304" stop-color="#8A2387"/>
</linearGradient>
</defs>
</svg>
