<svg width="24" height="24" viewBox="0 0 24 24" fill="none" xmlns="http://www.w3.org/2000/svg">
<path d="M4.35722 13.8879L15.7707 6.85591C16.0264 6.69924 16.3536 6.71424 16.593 6.89924C17.6773 7.73429 18.6461 8.581 19.2925 9.2927C19.2925 9.2927 19.8493 9.86273 20.0903 10.2244C20.4794 10.7178 20.6667 11.3628 20.6667 11.9895C20.6667 12.6929 20.4615 13.3579 20.0528 13.8896C19.96 13.9846 19.6067 14.403 19.2729 14.7446C17.3256 16.8714 12.2425 20.3849 9.56902 21.45C9.17988 21.6216 8.14111 21.98 7.60218 22C7.08279 22 6.58131 21.8867 6.09937 21.6383C5.50672 21.2966 5.04269 20.7666 4.78218 20.1382C4.61448 19.7016 4.3556 18.3915 4.3556 18.3532C4.18789 17.4181 4.06252 16.1047 4.00065 14.5713C3.98926 14.2963 4.12765 14.0296 4.35722 13.8879" fill="url(#paint0_linear_18_102)"/>
<path opacity="0.4" d="M5.12054 10.1005C4.61744 10.4121 3.98408 10.0138 4.0085 9.41543C4.06874 8.01202 4.17294 6.77529 4.29994 5.85525C4.31948 5.83525 4.57836 4.2035 4.87632 3.6518C5.3957 2.62675 6.41494 2.00006 7.51071 2.00006H7.60188C8.30851 2.01839 9.81132 2.64509 9.81132 2.68342C10.5684 2.99844 11.5567 3.5318 12.6199 4.1735C13.0986 4.46351 13.11 5.17521 12.6313 5.47023L5.12054 10.1005Z" fill="url(#paint1_linear_18_102)"/>
<defs>
<linearGradient id="paint0_linear_18_102" x1="4.10566" y1="6.79371" x2="19.0406" y2="23.2515" gradientUnits="userSpaceOnUse">
<stop stop-color="#FE7970"/>
<stop offset="1" stop-color="#DC3282"/>
</linearGradient>
<linearGradient id="paint1_linear_18_102" x1="4.06472" y1="2.02438" x2="12.103" y2="10.8882" gradientUnits="userSpaceOnUse">
<stop stop-color="#FE7970"/>
<stop offset="1" stop-color="#DC3282"/>
</linearGradient>
</defs>
</svg>
