<svg width="16" height="17" viewBox="0 0 16 17" fill="none" xmlns="http://www.w3.org/2000/svg">
<path opacity="0.4" d="M8.61666 10.167H4.89999C4.84476 10.167 4.79999 10.1222 4.79999 10.067V9.46442C4.79999 8.90533 4.17689 8.57186 3.7117 8.88199L1.33281 10.4679C0.917199 10.745 0.9172 11.3557 1.33281 11.6328L3.7117 13.2187C4.17689 13.5288 4.79999 13.1954 4.79999 12.6363V12.0337C4.79999 11.9785 4.84476 11.9337 4.89999 11.9337H8.61666C9.10451 11.9337 9.49999 11.5382 9.49999 11.0503C9.49999 10.5625 9.10451 10.167 8.61666 10.167Z" fill="url(#paint0_linear_291_119)"/>
<path d="M11.5 4.23367V3.63107C11.5 3.3116 11.8561 3.12104 12.1219 3.29825L14.5008 4.88418C14.7383 5.04251 14.7383 5.39149 14.5008 5.54982L12.1219 7.13575C11.8561 7.31296 11.5 7.1224 11.5 6.80293V6.20033C11.5 5.97942 11.3209 5.80033 11.1 5.80033H4.5C3.34318 5.80033 2.38817 6.63377 2.20023 7.7354C2.16308 7.95317 1.98758 8.13367 1.76667 8.13367H1.4C1.17909 8.13367 0.99761 7.95384 1.02233 7.73431C1.21934 5.98474 2.69609 4.63367 4.5 4.63367H11.1C11.3209 4.63367 11.5 4.45458 11.5 4.23367Z" fill="url(#paint1_linear_291_119)" stroke="url(#paint2_linear_291_119)" stroke-width="0.6"/>
<path d="M10.0417 8.73708C10.0417 8.40571 10.3104 8.13708 10.6417 8.13708H14.4C14.7314 8.13708 15 8.40571 15 8.73708V8.79508C15 9.12645 14.7314 9.39508 14.4 9.39508H10.6417C10.3104 9.39508 10.0417 9.12645 10.0417 8.79508V8.73708Z" fill="url(#paint3_linear_291_119)"/>
<path d="M10.0417 10.7085C10.0417 10.3771 10.3104 10.1085 10.6417 10.1085H14.4C14.7314 10.1085 15 10.3771 15 10.7085V10.7665C15 11.0978 14.7314 11.3665 14.4 11.3665H10.6417C10.3104 11.3665 10.0417 11.0978 10.0417 10.7665V10.7085Z" fill="url(#paint4_linear_291_119)"/>
<path d="M10.0417 12.6795C10.0417 12.3481 10.3104 12.0795 10.6417 12.0795H14.4C14.7314 12.0795 15 12.3481 15 12.6795V12.7375C15 13.0688 14.7314 13.3375 14.4 13.3375H10.6417C10.3104 13.3375 10.0417 13.0688 10.0417 12.7375V12.6795Z" fill="url(#paint5_linear_291_119)"/>
<defs>
<linearGradient id="paint0_linear_291_119" x1="2.5579" y1="12.7974" x2="6.28236" y2="6.77377" gradientUnits="userSpaceOnUse">
<stop stop-color="#FE0844"/>
<stop offset="1" stop-color="#FEB302"/>
</linearGradient>
<linearGradient id="paint1_linear_291_119" x1="3.5375" y1="7.51388" x2="7.00445" y2="-0.55274" gradientUnits="userSpaceOnUse">
<stop stop-color="#FE0844"/>
<stop offset="1" stop-color="#FEB302"/>
</linearGradient>
<linearGradient id="paint2_linear_291_119" x1="3.5375" y1="7.51388" x2="7.00445" y2="-0.55274" gradientUnits="userSpaceOnUse">
<stop stop-color="#FE0844"/>
<stop offset="1" stop-color="#FEB302"/>
</linearGradient>
<linearGradient id="paint3_linear_291_119" x1="10.9404" y1="12.7235" x2="15.5946" y2="8.85179" gradientUnits="userSpaceOnUse">
<stop stop-color="#FE0844"/>
<stop offset="1" stop-color="#FEB302"/>
</linearGradient>
<linearGradient id="paint4_linear_291_119" x1="10.9404" y1="12.7235" x2="15.5946" y2="8.85179" gradientUnits="userSpaceOnUse">
<stop stop-color="#FE0844"/>
<stop offset="1" stop-color="#FEB302"/>
</linearGradient>
<linearGradient id="paint5_linear_291_119" x1="10.9404" y1="12.7235" x2="15.5946" y2="8.85179" gradientUnits="userSpaceOnUse">
<stop stop-color="#FE0844"/>
<stop offset="1" stop-color="#FEB302"/>
</linearGradient>
</defs>
</svg>
