<svg width="24" height="24" viewBox="0 0 24 24" fill="none" xmlns="http://www.w3.org/2000/svg">
<path opacity="0.5" d="M1.50529 3.96029C1.50529 3.7183 1.67089 3.48621 1.96559 3.3151C2.26029 3.14398 2.65999 3.04785 3.07679 3.04785C3.49349 3.04785 3.89319 3.14398 4.18789 3.3151C4.48259 3.48621 4.64819 3.7183 4.64819 3.96029V20.9925C4.64819 21.2345 4.48259 21.4666 4.18789 21.6377C3.89319 21.8088 3.49349 21.905 3.07679 21.905C2.65999 21.905 2.26029 21.8088 1.96559 21.6377C1.67089 21.4666 1.50529 21.2345 1.50529 20.9925V3.96029Z" fill="url(#paint0_linear_348_98)"/>
<path d="M13.7433 5.34618C14.4149 4.87963 15.1013 4.43485 15.8015 4.01255C18.6184 2.30088 20.0256 1.44504 21.2883 2.39276C22.5485 3.33785 22.664 5.32255 22.895 9.29194C22.958 10.4129 23 11.5129 23 12.5C23 13.4871 22.958 14.5871 22.895 15.7081C22.664 19.6775 22.5485 21.6595 21.2883 22.6072C20.0256 23.555 18.6158 22.6991 15.8015 20.9875C15.0717 20.5438 14.3655 20.0922 13.7433 19.6538C13.0345 19.155 12.2601 18.5565 11.4804 17.9212C8.65823 15.6188 7.24846 14.4689 7.24846 12.5C7.24846 10.5311 8.65823 9.3812 11.4804 7.07885C12.2601 6.44353 13.0319 5.84497 13.7433 5.34618Z" fill="url(#paint1_linear_348_98)"/>
<defs>
<linearGradient id="paint0_linear_348_98" x1="3.07679" y1="3.04785" x2="3.07679" y2="21.905" gradientUnits="userSpaceOnUse">
<stop stop-color="#DC18FC"/>
<stop offset="1" stop-color="#8E1EFF"/>
</linearGradient>
<linearGradient id="paint1_linear_348_98" x1="7.24846" y1="23" x2="24.0764" y2="10.2364" gradientUnits="userSpaceOnUse">
<stop stop-color="#731FFF"/>
<stop offset="0.905415" stop-color="#EB1AFF"/>
</linearGradient>
</defs>
</svg>
