<svg width="32" height="32" viewBox="0 0 32 32" fill="none" xmlns="http://www.w3.org/2000/svg">
<path opacity="0.4" d="M2.00098 25.979C2.00098 24.3228 3.34463 22.979 5.00077 22.979H26.9992C28.6554 22.979 29.999 24.3228 29.999 25.979C29.999 27.6353 28.6554 28.979 26.9992 28.979H5.00077C3.34463 28.979 2.00098 27.6353 2.00098 25.979Z" fill="url(#paint0_linear_348_200)"/>
<path d="M6.84284 9.83088C6.2652 10.6623 5.71453 11.5122 5.19168 12.3791C3.07247 15.8667 2.01286 17.6089 3.18623 19.1723C4.35634 20.7324 6.81358 20.8755 11.7281 21.1615C13.1159 21.2395 14.4778 21.2915 15.7 21.2915C16.9221 21.2915 18.284 21.2395 19.6718 21.1615C24.5863 20.8755 27.0403 20.7324 28.2137 19.1723C29.387 17.6089 28.3274 15.8635 26.2082 12.3791C25.6589 11.4755 25.0999 10.6012 24.5571 9.83088C23.9395 8.9533 23.1984 7.99446 22.4119 7.02911C19.5613 3.53502 18.1377 1.7896 15.7 1.7896C13.2622 1.7896 11.8386 3.53502 8.98805 7.02911C8.20147 7.99446 7.4604 8.95005 6.84284 9.83088Z" fill="url(#paint1_linear_348_200)"/>
<defs>
<linearGradient id="paint0_linear_348_200" x1="0.896298" y1="27.428" x2="4.30629" y2="35.7595" gradientUnits="userSpaceOnUse">
<stop offset="0.106984" stop-color="#E02767"/>
<stop offset="0.871403" stop-color="#FA5D51"/>
</linearGradient>
<linearGradient id="paint1_linear_348_200" x1="21.9791" y1="22.061" x2="27.6116" y2="7.71911" gradientUnits="userSpaceOnUse">
<stop offset="0.106984" stop-color="#E02767"/>
<stop offset="0.871403" stop-color="#FA5D51"/>
</linearGradient>
</defs>
</svg>
