<svg width="24" height="24" viewBox="0 0 24 24" fill="none" xmlns="http://www.w3.org/2000/svg">
<path opacity="0.5" d="M15.9227 6.54947C16.4343 6.194 16.9573 5.85513 17.4908 5.53337C19.637 4.22924 20.7091 3.57718 21.6712 4.29925C22.6313 5.01932 22.7193 6.53147 22.8953 9.55576C22.9433 10.4098 22.9753 11.2479 22.9753 12C22.9753 12.7521 22.9433 13.5902 22.8953 14.4442C22.7193 17.4685 22.6313 18.9787 21.6712 19.7008C20.7091 20.4228 19.635 19.7708 17.4908 18.4666C16.9348 18.1286 16.3967 17.7846 15.9227 17.4505C15.3826 17.0705 14.7925 16.6144 14.1985 16.1304C12.0483 14.3762 10.9742 13.5001 10.9742 12C10.9742 10.4999 12.0483 9.62377 14.1985 7.8696C14.7925 7.38555 15.3806 6.9295 15.9227 6.54947Z" fill="url(#paint0_linear_348_109)"/>
<path d="M5.97319 6.54947C6.48485 6.194 7.00784 5.85513 7.54134 5.53337C9.68755 4.22924 10.7597 3.57718 11.7218 4.29925C12.6818 5.01932 12.7699 6.53147 12.9459 9.55576C12.9939 10.4098 13.0259 11.2479 13.0259 12C13.0259 12.7521 12.9939 13.5902 12.9459 14.4442C12.7699 17.4685 12.6818 18.9787 11.7218 19.7008C10.7597 20.4228 9.68555 19.7708 7.54134 18.4666C6.98529 18.1286 6.44724 17.7846 5.97319 17.4505C5.43314 17.0705 4.84308 16.6144 4.24902 16.1304C2.09881 14.3762 1.02471 13.5001 1.02471 12C1.02471 10.4999 2.09881 9.62377 4.24902 7.8696C4.84308 7.38555 5.43114 6.9295 5.97319 6.54947Z" fill="url(#paint1_linear_348_109)"/>
<defs>
<linearGradient id="paint0_linear_348_109" x1="10.9742" y1="20" x2="23.7955" y2="10.2753" gradientUnits="userSpaceOnUse">
<stop stop-color="#FF4000"/>
<stop offset="0.905415" stop-color="#FFA200"/>
</linearGradient>
<linearGradient id="paint1_linear_348_109" x1="1.02471" y1="20" x2="13.846" y2="10.2753" gradientUnits="userSpaceOnUse">
<stop stop-color="#FF4000"/>
<stop offset="0.905415" stop-color="#FFA200"/>
</linearGradient>
</defs>
</svg>
