<svg width="24" height="24" viewBox="0 0 24 24" fill="none" xmlns="http://www.w3.org/2000/svg">
<path opacity="0.5" d="M8.07735 6.54947C7.56569 6.194 7.0427 5.85513 6.50919 5.53337C4.36298 4.22924 3.29088 3.57718 2.32879 4.29925C1.36869 5.01932 1.28068 6.53147 1.10467 9.55576C1.05666 10.4098 1.02466 11.2479 1.02466 12C1.02466 12.7521 1.05666 13.5902 1.10467 14.4442C1.28068 17.4685 1.36869 18.9787 2.32879 19.7008C3.29088 20.4228 4.36498 19.7708 6.50919 18.4666C7.06525 18.1286 7.6033 17.7846 8.07735 17.4505C8.6174 17.0705 9.20746 16.6144 9.80152 16.1304C11.9517 14.3762 13.0258 13.5001 13.0258 12C13.0258 10.4999 11.9517 9.62377 9.80152 7.8696C9.20746 7.38555 8.6194 6.9295 8.07735 6.54947Z" fill="url(#paint0_linear_348_109)"/>
<path d="M18.0268 6.54947C17.5151 6.194 16.9922 5.85513 16.4587 5.53337C14.3124 4.22924 13.2403 3.57718 12.2782 4.29925C11.3182 5.01932 11.2301 6.53147 11.0541 9.55576C11.0061 10.4098 10.9741 11.2479 10.9741 12C10.9741 12.7521 11.0061 13.5902 11.0541 14.4442C11.2301 17.4685 11.3182 18.9787 12.2782 19.7008C13.2403 20.4228 14.3144 19.7708 16.4587 18.4666C17.0147 18.1286 17.5528 17.7846 18.0268 17.4505C18.5669 17.0705 19.1569 16.6144 19.751 16.1304C21.9012 14.3762 22.9753 13.5001 22.9753 12C22.9753 10.4999 21.9012 9.62377 19.751 7.8696C19.1569 7.38555 18.5689 6.9295 18.0268 6.54947Z" fill="url(#paint1_linear_348_109)"/>
<defs>
<linearGradient id="paint0_linear_348_109" x1="13.0258" y1="20" x2="0.204525" y2="10.2753" gradientUnits="userSpaceOnUse">
<stop stop-color="#FF4000"/>
<stop offset="0.905415" stop-color="#FFA200"/>
</linearGradient>
<linearGradient id="paint1_linear_348_109" x1="22.9753" y1="20" x2="10.154" y2="10.2753" gradientUnits="userSpaceOnUse">
<stop stop-color="#FF4000"/>
<stop offset="0.905415" stop-color="#FFA200"/>
</linearGradient>
</defs>
</svg>
