<svg width="24" height="24" viewBox="0 0 24 24" fill="none" xmlns="http://www.w3.org/2000/svg">
<path d="M10.921 10.907C11.1283 10.6924 11.243 10.405 11.2404 10.1067C11.2378 9.80836 11.1181 9.52298 10.9072 9.31202C10.6962 9.10106 10.4108 8.9814 10.1125 8.9788C9.81415 8.97621 9.52673 9.0909 9.31214 9.29816L7.63953 10.9708L7.30615 10.6374C7.14615 10.4776 6.92925 10.3878 6.7031 10.3878C6.47696 10.3878 6.26006 10.4776 6.10006 10.6374L4.08042 12.657C3.30855 13.429 2.82046 14.4394 2.69549 15.5239C2.57051 16.6084 2.81599 17.7033 3.39204 18.6306L1.34736 20.6764C1.23869 20.7814 1.15201 20.9069 1.09238 21.0457C1.03274 21.1846 1.00136 21.3339 1.00004 21.4849C0.998733 21.636 1.02752 21.7858 1.08473 21.9257C1.14194 22.0655 1.22643 22.1926 1.33326 22.2994C1.44009 22.4062 1.56713 22.4907 1.70697 22.5479C1.8468 22.6051 1.99663 22.6339 2.14771 22.6326C2.29879 22.6313 2.4481 22.5999 2.58692 22.5403C2.72573 22.4806 2.85129 22.394 2.95625 22.2853L5.00206 20.2406C5.92939 20.8167 7.02428 21.0621 8.10878 20.9372C9.19328 20.8122 10.2036 20.3241 10.9756 19.5522L12.9953 17.5326C13.1551 17.3726 13.2448 17.1557 13.2448 16.9296C13.2448 16.7034 13.1551 16.4865 12.9953 16.3265L12.6619 15.9931L14.3345 14.3205C14.5418 14.1059 14.6564 13.8185 14.6539 13.5202C14.6513 13.2218 14.5316 12.9365 14.3206 12.7255C14.1097 12.5145 13.8243 12.3949 13.526 12.3923C13.2276 12.3897 12.9402 12.5044 12.7256 12.7116L11.053 14.3842L9.24842 12.5796L10.921 10.907Z" fill="url(#paint0_linear_299_367)"/>
<path opacity="0.4" d="M23 2.12794C23.0026 2.42627 22.8879 2.71369 22.6806 2.92828L20.6359 4.97409C21.212 5.90142 21.4575 6.99631 21.3325 8.08082C21.2075 9.16532 20.7194 10.1757 19.9476 10.9477L18.7324 12.1629C18.5475 12.3478 18.3279 12.4945 18.0863 12.5946C17.8447 12.6946 17.5858 12.7461 17.3243 12.7461C17.0628 12.7461 16.8038 12.6946 16.5623 12.5946C16.3207 12.4945 16.1011 12.3478 15.9162 12.1629L11.8371 8.08263C11.464 7.70925 11.2544 7.203 11.2544 6.67514C11.2544 6.14729 11.464 5.64103 11.8371 5.26765L13.0523 4.05132C13.8245 3.27935 14.8352 2.79131 15.9199 2.66654C17.0047 2.54176 18.0997 2.7876 19.0271 3.36407L21.0717 1.3194C21.2863 1.11214 21.5737 0.997454 21.8721 1.00004C22.1704 1.00264 22.4558 1.1223 22.6667 1.33326C22.8777 1.54422 22.9974 1.8296 23 2.12794Z" fill="url(#paint1_linear_299_367)"/>
<defs>
<linearGradient id="paint0_linear_299_367" x1="7.82697" y1="22.6326" x2="7.82697" y2="8.97876" gradientUnits="userSpaceOnUse">
<stop stop-color="#FD5900"/>
<stop offset="1" stop-color="#FFDE00"/>
</linearGradient>
<linearGradient id="paint1_linear_299_367" x1="17.1272" y1="12.7461" x2="17.1272" y2="1" gradientUnits="userSpaceOnUse">
<stop stop-color="#FD5900"/>
<stop offset="1" stop-color="#FFDE00"/>
</linearGradient>
</defs>
</svg>
