<svg width="24" height="24" viewBox="0 0 24 24" fill="none" xmlns="http://www.w3.org/2000/svg">
<path d="M12.921 9.907C13.1283 9.6924 13.243 9.405 13.2404 9.1067C13.2378 8.80836 13.1181 8.52298 12.9072 8.31202C12.6962 8.10106 12.4108 7.9814 12.1125 7.9788C11.8142 7.97621 11.5267 8.0909 11.3121 8.29816L9.63953 9.9708L9.30615 9.6374C9.14615 9.4776 8.92925 9.3878 8.7031 9.3878C8.47696 9.3878 8.26006 9.4776 8.10006 9.6374L6.08042 11.657C5.30855 12.429 4.82046 13.4394 4.69549 14.5239C4.57051 15.6084 4.81599 16.7033 5.39204 17.6306L3.34736 19.6764C3.23869 19.7814 3.15201 19.9069 3.09238 20.0457C3.03274 20.1846 3.00136 20.3339 3.00004 20.4849C2.99873 20.636 3.02752 20.7858 3.08473 20.9257C3.14194 21.0655 3.22643 21.1926 3.33326 21.2994C3.44009 21.4062 3.56713 21.4907 3.70697 21.5479C3.8468 21.6051 3.99663 21.6339 4.14771 21.6326C4.29879 21.6313 4.4481 21.5999 4.58692 21.5403C4.72573 21.4806 4.85129 21.394 4.95625 21.2853L7.00206 19.2406C7.92939 19.8167 9.02428 20.0621 10.1088 19.9372C11.1933 19.8122 12.2036 19.3241 12.9756 18.5522L14.9953 16.5326C15.1551 16.3726 15.2448 16.1557 15.2448 15.9296C15.2448 15.7034 15.1551 15.4865 14.9953 15.3265L14.6619 14.9931L16.3345 13.3205C16.5418 13.1059 16.6564 12.8185 16.6539 12.5202C16.6513 12.2218 16.5316 11.9365 16.3206 11.7255C16.1097 11.5145 15.8243 11.3949 15.526 11.3923C15.2276 11.3897 14.9402 11.5044 14.7256 11.7116L13.053 13.3842L11.2484 11.5796L12.921 9.907Z" fill="url(#paint0_linear_54_521)"/>
<path opacity="0.4" d="M21.3995 4.12794C21.4021 4.42627 21.2874 4.71369 21.0801 4.92828L19.0354 6.97409C19.6115 7.90142 19.857 8.99631 19.732 10.0808C19.607 11.1653 19.1189 12.1757 18.3471 12.9477L17.1319 14.1629C16.947 14.3478 16.7274 14.4945 16.4858 14.5946C16.2442 14.6946 15.9853 14.7461 15.7238 14.7461C15.4623 14.7461 15.2033 14.6946 14.9618 14.5946C14.7202 14.4945 14.5006 14.3478 14.3157 14.1629L10.2366 10.0826C9.86353 9.70925 9.65393 9.203 9.65393 8.67514C9.65393 8.14729 9.86353 7.64103 10.2366 7.26765L11.4518 6.05132C12.224 5.27935 13.2347 4.79131 14.3194 4.66654C15.4042 4.54176 16.4992 4.7876 17.4266 5.36407L19.4712 3.3194C19.6858 3.11214 19.9732 2.99745 20.2716 3.00004C20.5699 3.00264 20.8553 3.1223 21.0662 3.33326C21.2772 3.54422 21.3969 3.8296 21.3995 4.12794Z" fill="url(#paint1_linear_54_521)"/>
<defs>
<linearGradient id="paint0_linear_54_521" x1="685.697" y1="7.97876" x2="685.697" y2="1373.37" gradientUnits="userSpaceOnUse">
<stop stop-color="#00D479"/>
<stop offset="1" stop-color="#02A5CB"/>
</linearGradient>
<linearGradient id="paint1_linear_54_521" x1="15.5268" y1="14.7461" x2="15.5268" y2="3" gradientUnits="userSpaceOnUse">
<stop stop-color="#00B59C"/>
<stop offset="1" stop-color="#9CFFAC"/>
</linearGradient>
</defs>
</svg>
