<svg width="32" height="32" viewBox="0 0 32 32" fill="none" xmlns="http://www.w3.org/2000/svg">
<path opacity="0.4" d="M16.0211 30C15.8477 30 15.6744 29.9602 15.5179 29.8792L10.4764 27.2695C9.04582 26.5281 7.92673 25.6962 7.05288 24.727C5.14028 22.6073 4.07616 19.8864 4.05925 17.0639L4.00005 7.77397C3.99301 6.70179 4.68504 5.73944 5.71956 5.37701L14.9767 2.1495C15.5264 1.95319 16.1395 1.95044 16.699 2.13989L25.9914 5.25758C27.0316 5.6049 27.7349 6.56039 27.7405 7.63119L27.7997 16.928C27.818 19.7464 26.7906 22.4783 24.9076 24.6213C24.0436 25.6042 22.9344 26.4485 21.5179 27.2036L16.5214 29.8723C16.3664 29.9561 16.1945 29.9986 16.0211 30Z" fill="url(#paint0_linear_276_182)"/>
<path d="M10.0103 17.0126C9.54772 17.3557 9.43209 18.0355 9.75329 18.5332C10.0768 19.026 10.7146 19.1482 11.1759 18.8052C12.4619 17.8509 14.1742 17.3257 15.9998 17.3257C17.8243 17.3257 19.5377 17.8509 20.8237 18.8052C21.2851 19.1482 21.9228 19.026 22.2463 18.532C22.3655 18.3474 22.4286 18.1316 22.4286 17.9095C22.4286 17.5515 22.2639 17.2172 21.9894 17.0126C20.3658 15.8076 18.2389 15.1428 15.9998 15.1428C13.7607 15.1428 11.6338 15.8076 10.0103 17.0126Z" fill="url(#paint1_linear_276_182)"/>
<path d="M7.40595 13.0497C6.97935 13.4086 6.87027 14.1276 7.16835 14.6508C7.46751 15.17 8.05718 15.2988 8.48377 14.9387C10.4947 13.2377 13.1644 12.3004 15.9994 12.3004C18.8354 12.3004 21.5052 13.2377 23.5161 14.9387C23.9438 15.2988 24.5324 15.17 24.8315 14.6495C24.9417 14.4549 25 14.2288 25 13.9948C25 13.6176 24.8477 13.264 24.5939 13.0497C22.2709 11.0832 19.2188 10 15.9994 10C12.7821 10 9.729 11.0832 7.40595 13.0497Z" fill="url(#paint2_linear_276_182)"/>
<defs>
<linearGradient id="paint0_linear_276_182" x1="27.1287" y1="16" x2="6.61104" y2="9.69134" gradientUnits="userSpaceOnUse">
<stop stop-color="#FE7970"/>
<stop offset="1" stop-color="#DC3282"/>
</linearGradient>
<linearGradient id="paint1_linear_276_182" x1="22.066" y1="17.0714" x2="17.1222" y2="11.1101" gradientUnits="userSpaceOnUse">
<stop stop-color="#FE7970"/>
<stop offset="1" stop-color="#DC3282"/>
</linearGradient>
<linearGradient id="paint2_linear_276_182" x1="24.4923" y1="12.5714" x2="17.9672" y2="4.3101" gradientUnits="userSpaceOnUse">
<stop stop-color="#FE7970"/>
<stop offset="1" stop-color="#DC3282"/>
</linearGradient>
</defs>
</svg>
