<svg width="24" height="24" viewBox="0 0 24 24" fill="none" xmlns="http://www.w3.org/2000/svg">
<path fill-rule="evenodd" clip-rule="evenodd" d="M16.0659 6.05493C16.0659 5.01713 16.9072 4.17582 17.945 4.17582C18.9828 4.17582 19.8242 5.01713 19.8242 6.05493C19.8242 7.09275 18.9828 7.93406 17.945 7.93406C16.9072 7.93406 16.0659 7.09275 16.0659 6.05493ZM17.945 2C15.7056 2 13.8901 3.81546 13.8901 6.05493C13.8901 8.29442 15.7056 10.1099 17.945 10.1099C20.1845 10.1099 22 8.29442 22 6.05493C22 3.81546 20.1845 2 17.945 2ZM12.5055 10.9011C11.9046 10.9011 11.4176 11.3881 11.4176 11.989C11.4176 12.5409 11.8285 12.9968 12.361 13.0674L11.022 14.4065L9.52342 12.9079C9.13394 12.5186 8.60567 12.2998 8.05493 12.2998C7.50421 12.2998 6.97603 12.5185 6.58656 12.9078L4.31864 15.1758C3.89379 15.6006 3.89379 16.2895 4.31864 16.7143C4.7435 17.1391 5.43232 17.1391 5.85718 16.7143L8.05493 14.5165L9.55344 16.0151C9.94291 16.4045 10.4712 16.6232 11.022 16.6232C11.5727 16.6232 12.1009 16.4046 12.4904 16.0152L13.8996 14.6059C13.9702 15.1385 14.4261 15.5494 14.978 15.5494C15.5788 15.5494 16.0659 15.0623 16.0659 14.4615V11.989C16.0659 11.3881 15.5788 10.9011 14.978 10.9011H12.5055Z" fill="url(#paint0_linear_201_128)"/>
<path opacity="0.4" d="M7 3C3.68629 3 1 5.68629 1 9V17C1 20.3137 3.68629 23 7 23H15C18.3137 23 21 20.3137 21 17V9C21 7.75155 20.6187 6.59215 19.9662 5.63192C19.9884 5.75123 20 5.87426 20 6C20 7.10457 19.1046 8 18 8C16.8954 8 16 7.10457 16 6C16 4.89543 16.8954 4 18 4C18.1257 4 18.2488 4.01161 18.3681 4.0338C17.4078 3.3813 16.2485 3 15 3H7Z" fill="url(#paint1_linear_201_128)"/>
<defs>
<linearGradient id="paint0_linear_201_128" x1="20.1999" y1="1.24835" x2="7.59679" y2="18.247" gradientUnits="userSpaceOnUse">
<stop stop-color="#FB457A"/>
<stop offset="1" stop-color="#A500FF"/>
</linearGradient>
<linearGradient id="paint1_linear_201_128" x1="19" y1="2" x2="1.60003" y2="21.6" gradientUnits="userSpaceOnUse">
<stop stop-color="#FB457A"/>
<stop offset="1" stop-color="#A500FF"/>
</linearGradient>
</defs>
</svg>
