<svg width="16" height="16" viewBox="0 0 16 16" fill="none" xmlns="http://www.w3.org/2000/svg">
<path opacity="0.4" d="M12.6667 1H3.33333C2.04467 1 1 2.04467 1 3.33333V12.6667C1 13.9553 2.04467 15 3.33333 15H12.6667C13.9553 15 15 13.9553 15 12.6667V3.33333C15 2.04467 13.9553 1 12.6667 1Z" fill="url(#paint0_linear_70_105)"/>
<path fill-rule="evenodd" clip-rule="evenodd" d="M4.69805 5.08154C5.43447 4.34512 6.40338 3.89464 7.43226 3.80155C7.65228 3.78164 7.83175 3.9626 7.83175 4.18352V5.15621C7.83175 5.37712 7.65167 5.55312 7.43325 5.58623C6.87552 5.67077 6.35529 5.93127 5.95153 6.33502C5.45286 6.83369 5.17272 7.51003 5.17272 8.21525C5.17272 8.92047 5.45286 9.59681 5.95153 10.0955C6.4502 10.5941 7.12653 10.8743 7.83175 10.8743C8.53697 10.8743 9.21331 10.5941 9.71198 10.0955C10.1157 9.69172 10.3762 9.17149 10.4608 8.61376C10.4939 8.39534 10.6699 8.21525 10.8908 8.21525H11.8635C12.0844 8.21525 12.2654 8.39472 12.2455 8.61474C12.1524 9.64363 11.7019 10.6125 10.9655 11.349C10.1343 12.1801 9.00712 12.647 7.83175 12.647C6.65639 12.647 5.52916 12.1801 4.69805 11.349C3.86694 10.5178 3.40002 9.39062 3.40002 8.21525C3.40002 7.03988 3.86694 5.91265 4.69805 5.08154ZM13.0705 8.21511C13.4268 8.21511 13.6053 7.78425 13.3533 7.53227L11.66 5.83891C11.5038 5.6827 11.2505 5.6827 11.0943 5.83891L9.40094 7.53227C9.14895 7.78425 9.32742 8.21511 9.68378 8.21511H13.0705Z" fill="url(#paint1_linear_70_105)"/>
<defs>
<linearGradient id="paint0_linear_70_105" x1="8" y1="15" x2="8" y2="1" gradientUnits="userSpaceOnUse">
<stop stop-color="#00B59C"/>
<stop offset="1" stop-color="#9CFFAC"/>
</linearGradient>
<linearGradient id="paint1_linear_70_105" x1="8.43565" y1="12.647" x2="8.43565" y2="3.80005" gradientUnits="userSpaceOnUse">
<stop stop-color="#02AA93"/>
<stop offset="1" stop-color="#67FF80"/>
</linearGradient>
</defs>
</svg>
