<svg width="24" height="24" viewBox="0 0 24 24" fill="none" xmlns="http://www.w3.org/2000/svg">
<path opacity="0.5" d="M2.72798 9.92628C2.62741 9.92232 2.53203 9.8806 2.46087 9.80943L1.8248 9.17337C0.940231 8.28877 0.940237 6.85936 1.82481 5.97476C2.70926 5.0903 4.1388 5.09059 5.02343 5.97476L6.32037 7.26992L8.5129 9.45946C8.77056 9.71676 8.57838 10.1565 8.21453 10.1422L2.72798 9.92628Z" fill="url(#paint0_linear_348_127)"/>
<path d="M9.79032 11.059C9.71917 10.9879 9.62387 10.9463 9.5234 10.9423L4.03458 10.7263C3.67086 10.712 3.47862 11.1515 3.73601 11.4089L10.4323 18.1052C10.6169 18.2901 10.8362 18.4369 11.0778 18.537C11.3191 18.6371 11.5777 18.6886 11.8388 18.6886C12.1001 18.6886 12.3587 18.6371 12.6001 18.5369C12.8411 18.437 13.0604 18.2904 13.2452 18.1053L22.1746 9.17591C22.3851 8.96594 22.5523 8.71622 22.6661 8.44202C22.7798 8.16757 22.8386 7.87277 22.8386 7.57564C22.8386 7.27851 22.7801 6.98428 22.6663 6.70984C22.5531 6.43683 22.3872 6.18837 22.1785 5.97925C21.3038 5.09058 19.8614 5.09188 18.9876 5.9656L17.6861 7.26717L13.2569 11.6963C12.4763 12.477 11.2107 12.4774 10.4295 11.6973L9.79032 11.059Z" fill="url(#paint1_linear_348_127)"/>
<defs>
<linearGradient id="paint0_linear_348_127" x1="7.24409" y1="9.27456" x2="4.89857" y2="5.10277" gradientUnits="userSpaceOnUse">
<stop stop-color="#248EFE"/>
<stop offset="1" stop-color="#1DF4FF"/>
</linearGradient>
<linearGradient id="paint1_linear_348_127" x1="19.2695" y1="16.2852" x2="12.5359" y2="5.15596" gradientUnits="userSpaceOnUse">
<stop stop-color="#248EFE"/>
<stop offset="1" stop-color="#1DF4FF"/>
</linearGradient>
</defs>
</svg>
