<svg width="24" height="24" viewBox="0 0 24 24" fill="none" xmlns="http://www.w3.org/2000/svg">
<path opacity="0.5" fill-rule="evenodd" clip-rule="evenodd" d="M1.73999 5.23092C1.73999 5.00651 1.82914 4.79129 1.98782 4.6326C2.14651 4.47392 2.36173 4.38477 2.58614 4.38477H16.1246C16.349 4.38477 16.5642 4.47392 16.7229 4.6326C16.8816 4.79129 16.9708 5.00651 16.9708 5.23092C16.9708 5.45534 16.8816 5.67056 16.7229 5.82924C16.5642 5.98793 16.349 6.07708 16.1246 6.07708H2.58614C2.36173 6.07708 2.14651 5.98793 1.98782 5.82924C1.82914 5.67056 1.73999 5.45534 1.73999 5.23092ZM1.73999 9.74374C1.73999 9.51933 1.82914 9.30411 1.98782 9.14542C2.14651 8.98674 2.36173 8.89759 2.58614 8.89759H13.8682C14.0926 8.89759 14.3078 8.98674 14.4665 9.14542C14.6252 9.30411 14.7144 9.51933 14.7144 9.74374C14.7144 9.96816 14.6252 10.1834 14.4665 10.3421C14.3078 10.5007 14.0926 10.5899 13.8682 10.5899H2.58614C2.36173 10.5899 2.14651 10.5007 1.98782 10.3421C1.82914 10.1834 1.73999 9.96816 1.73999 9.74374ZM1.73999 14.2566C1.73999 14.0322 1.82914 13.817 1.98782 13.6583C2.14651 13.4996 2.36173 13.4104 2.58614 13.4104H9.35537C9.57979 13.4104 9.79501 13.4996 9.95369 13.6583C10.1124 13.817 10.2015 14.0322 10.2015 14.2566C10.2015 14.481 10.1124 14.6962 9.95369 14.8549C9.79501 15.0136 9.57979 15.1027 9.35537 15.1027H2.58614C2.36173 15.1027 2.14651 15.0136 1.98782 14.8549C1.82914 14.6962 1.73999 14.481 1.73999 14.2566ZM1.73999 18.7694C1.73999 18.545 1.82914 18.3298 1.98782 18.1711C2.14651 18.0124 2.36173 17.9233 2.58614 17.9233H8.22717C8.45158 17.9233 8.6668 18.0124 8.82549 18.1711C8.98417 18.3298 9.07332 18.545 9.07332 18.7694C9.07332 18.9938 8.98417 19.2091 8.82549 19.3677C8.6668 19.5264 8.45158 19.6156 8.22717 19.6156H2.58614C2.36173 19.6156 2.14651 19.5264 1.98782 19.3677C1.82914 19.2091 1.73999 18.9938 1.73999 18.7694Z" fill="url(#paint0_linear_310_434)"/>
<path d="M19.004 18.3817C18.8961 17.9321 18.494 17.6151 18.0316 17.6151H16.9524C16.49 17.6151 16.0879 17.9321 15.98 18.3817L15.868 18.8485C15.7601 19.2981 15.358 19.6151 14.8956 19.6151H14.1136C13.435 19.6151 12.9535 18.9537 13.162 18.3079L15.4603 11.1879C15.5937 10.775 15.9781 10.4951 16.412 10.4951H18.7062C19.1448 10.4951 19.5323 10.781 19.6617 11.2001L21.8601 18.3201C22.0587 18.9633 21.5779 19.6151 20.9046 19.6151H20.0884C19.626 19.6151 19.2239 19.2981 19.116 18.8485L19.004 18.3817ZM17.5078 12.4631C17.489 12.4631 17.4725 12.4756 17.4674 12.4937L16.7901 14.916C16.6605 15.3797 17.009 15.8391 17.4905 15.8391V15.8391C17.968 15.8391 18.3159 15.3868 18.1935 14.9253L17.5483 12.4943C17.5434 12.4759 17.5268 12.4631 17.5078 12.4631V12.4631Z" fill="url(#paint1_linear_310_434)"/>
<defs>
<linearGradient id="paint0_linear_310_434" x1="1.74222" y1="11.7745" x2="16.9733" y2="11.7745" gradientUnits="userSpaceOnUse">
<stop stop-color="#A93AFF"/>
<stop offset="1" stop-color="#FF81FF"/>
</linearGradient>
<linearGradient id="paint1_linear_310_434" x1="12.7414" y1="14.92" x2="22.2616" y2="14.92" gradientUnits="userSpaceOnUse">
<stop stop-color="#A93AFF"/>
<stop offset="1" stop-color="#FF81FF"/>
</linearGradient>
</defs>
</svg>
