<svg width="64" height="64" viewBox="0 0 64 64" fill="none" xmlns="http://www.w3.org/2000/svg">
<g opacity="0.4">
<path d="M25.125 10.5625C25.125 6.94319 28.0681 4 31.6875 4C35.3069 4 38.25 6.94319 38.25 10.5625C38.25 11.3815 38.0961 12.5513 37.8286 13.8437L47.4375 13.8438C49.6121 13.8438 51.375 15.6066 51.375 17.7812V24.9869C51.375 27.6052 48.9571 29.3225 46.6189 28.9201C45.7831 28.7761 45.1621 28.7188 44.8125 28.7188C43.0036 28.7188 41.5312 30.1911 41.5312 32C41.5312 33.8089 43.0036 35.2812 44.8125 35.2812C45.1621 35.2812 45.7829 35.2239 46.6187 35.08C48.957 34.6775 51.375 36.3948 51.375 39.0131V46.2188C51.375 48.3934 49.6121 50.1562 47.4375 50.1562H37.8286C38.096 51.4486 38.25 52.6185 38.25 53.4375C38.25 57.0569 35.3069 60 31.6875 60C28.0681 60 25.125 57.0569 25.125 53.4375C25.125 52.6185 25.2789 51.4487 25.5464 50.1563L15.9375 50.1562C13.7629 50.1562 12 48.3934 12 46.2188V39.0131C12 36.3948 14.4179 34.6775 16.7561 35.0799C17.5919 35.2239 18.2129 35.2812 18.5625 35.2812C20.3714 35.2812 21.8438 33.8089 21.8438 32C21.8438 30.1911 20.3714 28.7188 18.5625 28.7188C18.2129 28.7188 17.5921 28.7761 16.7563 28.92C14.418 29.3225 12 27.6052 12 24.9869V17.7812C12 15.6066 13.7629 13.8438 15.9375 13.8438H25.5464C25.2789 12.5514 25.125 11.3815 25.125 10.5625Z" fill="#D9D9D9"/>
<path d="M25.125 10.5625C25.125 6.94319 28.0681 4 31.6875 4C35.3069 4 38.25 6.94319 38.25 10.5625C38.25 11.3815 38.0961 12.5513 37.8286 13.8437L47.4375 13.8438C49.6121 13.8438 51.375 15.6066 51.375 17.7812V24.9869C51.375 27.6052 48.9571 29.3225 46.6189 28.9201C45.7831 28.7761 45.1621 28.7188 44.8125 28.7188C43.0036 28.7188 41.5312 30.1911 41.5312 32C41.5312 33.8089 43.0036 35.2812 44.8125 35.2812C45.1621 35.2812 45.7829 35.2239 46.6187 35.08C48.957 34.6775 51.375 36.3948 51.375 39.0131V46.2188C51.375 48.3934 49.6121 50.1562 47.4375 50.1562H37.8286C38.096 51.4486 38.25 52.6185 38.25 53.4375C38.25 57.0569 35.3069 60 31.6875 60C28.0681 60 25.125 57.0569 25.125 53.4375C25.125 52.6185 25.2789 51.4487 25.5464 50.1563L15.9375 50.1562C13.7629 50.1562 12 48.3934 12 46.2188V39.0131C12 36.3948 14.4179 34.6775 16.7561 35.0799C17.5919 35.2239 18.2129 35.2812 18.5625 35.2812C20.3714 35.2812 21.8438 33.8089 21.8438 32C21.8438 30.1911 20.3714 28.7188 18.5625 28.7188C18.2129 28.7188 17.5921 28.7761 16.7563 28.92C14.418 29.3225 12 27.6052 12 24.9869V17.7812C12 15.6066 13.7629 13.8438 15.9375 13.8438H25.5464C25.2789 12.5514 25.125 11.3815 25.125 10.5625Z" fill="url(#paint0_linear_99_213)"/>
</g>
<path fill-rule="evenodd" clip-rule="evenodd" d="M23.6219 33.9761L38.1198 48.4741H47.5074C48.4836 48.4741 49.2749 47.6828 49.2749 46.7066V39.4289C49.2749 38.277 48.1906 37.4383 47.0554 37.6337C46.1553 37.7888 45.3889 37.8691 44.8562 37.8691C41.809 37.8691 39.3327 35.3928 39.3327 32.3456C39.3327 29.2985 41.809 26.8222 44.8562 26.8222C45.3889 26.8222 46.1553 26.9025 47.0554 27.0576C48.1906 27.253 49.2749 26.4143 49.2749 25.2624V17.9847C49.2749 17.0085 48.4836 16.2172 47.5074 16.2172H37.8024H37.2597C36.1395 16.2172 35.3019 15.1884 35.5289 14.0914L35.6389 13.56C35.8966 12.3148 36.0187 11.302 36.0187 10.6938C36.0187 8.25846 34.0353 6.27502 31.5999 6.27502C29.1646 6.27502 27.1812 8.25846 27.1812 10.6938C27.1812 11.302 27.3032 12.3148 27.5609 13.56L27.671 14.0914C27.898 15.1884 27.0604 16.2172 25.9401 16.2172H25.3974H15.6924C14.7162 16.2172 13.9249 17.0085 13.9249 17.9847V25.2624C13.9249 26.4143 15.0093 27.253 16.1445 27.0576C17.0446 26.9025 17.811 26.8222 18.3437 26.8222C21.3908 26.8222 23.8671 29.2985 23.8671 32.3456C23.8671 32.913 23.7813 33.4606 23.6219 33.9761Z" fill="url(#paint1_linear_99_213)"/>
<path d="M23.6219 33.9761L21.2334 33.2376L20.7881 34.6779L21.8541 35.7439L23.6219 33.9761ZM38.1198 48.4741L36.352 50.2419L37.0843 50.9741H38.1198V48.4741ZM47.0554 37.6337L46.6313 35.17L46.6311 35.17L47.0554 37.6337ZM47.0554 27.0576L46.6311 29.5213L46.6313 29.5213L47.0554 27.0576ZM35.5289 14.0914L33.0808 13.5846L33.0808 13.5848L35.5289 14.0914ZM35.6389 13.56L38.087 14.0668L38.087 14.0666L35.6389 13.56ZM27.5609 13.56L25.1128 14.0666L25.1128 14.0667L27.5609 13.56ZM27.671 14.0914L30.1191 13.5848L30.119 13.5846L27.671 14.0914ZM16.1445 27.0576L16.5686 29.5213L16.5688 29.5213L16.1445 27.0576ZM21.8541 35.7439L36.352 50.2419L39.8876 46.7063L25.3896 32.2084L21.8541 35.7439ZM47.5074 45.9741H38.1198V50.9741H47.5074V45.9741ZM46.7749 46.7066C46.7749 46.3021 47.1029 45.9741 47.5074 45.9741V50.9741C49.8643 50.9741 51.7749 49.0635 51.7749 46.7066H46.7749ZM46.7749 39.4289V46.7066H51.7749V39.4289H46.7749ZM47.4795 40.0975C47.3174 40.1254 47.156 40.0795 47.0325 39.9809C46.9 39.8753 46.7749 39.6751 46.7749 39.4289H51.7749C51.7749 36.588 49.1543 34.7357 46.6313 35.17L47.4795 40.0975ZM44.8562 40.3691C45.5922 40.3691 46.5163 40.2634 47.4797 40.0975L46.6311 35.17C45.7943 35.3141 45.1856 35.3691 44.8562 35.3691V40.3691ZM36.8327 32.3456C36.8327 36.7735 40.4283 40.3691 44.8562 40.3691V35.3691C43.1897 35.3691 41.8327 34.0121 41.8327 32.3456H36.8327ZM44.8562 24.3222C40.4283 24.3222 36.8327 27.9178 36.8327 32.3456H41.8327C41.8327 30.6792 43.1897 29.3222 44.8562 29.3222V24.3222ZM47.4797 24.5938C46.5163 24.4279 45.5922 24.3222 44.8562 24.3222V29.3222C45.1856 29.3222 45.7943 29.3772 46.6311 29.5213L47.4797 24.5938ZM46.7749 25.2624C46.7749 25.0162 46.9 24.816 47.0325 24.7104C47.156 24.6118 47.3174 24.5659 47.4795 24.5938L46.6313 29.5213C49.1543 29.9556 51.7749 28.1033 51.7749 25.2624H46.7749ZM46.7749 17.9847V25.2624H51.7749V17.9847H46.7749ZM47.5074 18.7172C47.1029 18.7172 46.7749 18.3892 46.7749 17.9847H51.7749C51.7749 15.6278 49.8643 13.7172 47.5074 13.7172V18.7172ZM37.8024 18.7172H47.5074V13.7172H37.8024V18.7172ZM37.2597 18.7172H37.8024V13.7172H37.2597V18.7172ZM33.0808 13.5848C32.5327 16.2332 34.555 18.7172 37.2597 18.7172V13.7172C37.724 13.7172 38.0711 14.1436 37.977 14.5981L33.0808 13.5848ZM33.1908 13.0532L33.0808 13.5846L37.977 14.5982L38.087 14.0668L33.1908 13.0532ZM33.5187 10.6938C33.5187 11.0542 33.4344 11.8762 33.1908 13.0533L38.087 14.0666C38.3588 12.7534 38.5187 11.5497 38.5187 10.6938H33.5187ZM31.5999 8.77502C32.6546 8.77502 33.5187 9.63916 33.5187 10.6938H38.5187C38.5187 6.87776 35.416 3.77502 31.5999 3.77502V8.77502ZM29.6812 10.6938C29.6812 9.63916 30.5453 8.77502 31.5999 8.77502V3.77502C27.7839 3.77502 24.6812 6.87776 24.6812 10.6938H29.6812ZM30.009 13.0533C29.7654 11.8762 29.6812 11.0542 29.6812 10.6938H24.6812C24.6812 11.5497 24.841 12.7534 25.1128 14.0666L30.009 13.0533ZM30.119 13.5846L30.009 13.0532L25.1128 14.0667L25.2229 14.5982L30.119 13.5846ZM25.9401 18.7172C28.6449 18.7172 30.6672 16.2332 30.1191 13.5848L25.2228 14.5981C25.1288 14.1436 25.4758 13.7172 25.9401 13.7172V18.7172ZM25.3974 18.7172H25.9401V13.7172H25.3974V18.7172ZM15.6924 18.7172H25.3974V13.7172H15.6924V18.7172ZM16.4249 17.9847C16.4249 18.3892 16.0969 18.7172 15.6924 18.7172V13.7172C13.3355 13.7172 11.4249 15.6278 11.4249 17.9847H16.4249ZM16.4249 25.2624V17.9847H11.4249V25.2624H16.4249ZM15.7204 24.5938C15.8825 24.5659 16.0438 24.6118 16.1674 24.7104C16.2999 24.816 16.4249 25.0162 16.4249 25.2624H11.4249C11.4249 28.1033 14.0456 29.9556 16.5686 29.5213L15.7204 24.5938ZM18.3437 24.3222C17.6077 24.3222 16.6836 24.4279 15.7202 24.5938L16.5688 29.5213C17.4055 29.3772 18.0142 29.3222 18.3437 29.3222V24.3222ZM26.3671 32.3456C26.3671 27.9178 22.7716 24.3222 18.3437 24.3222V29.3222C20.0101 29.3222 21.3671 30.6792 21.3671 32.3456H26.3671ZM26.0103 34.7147C26.2427 33.9629 26.3671 33.1665 26.3671 32.3456H21.3671C21.3671 32.6596 21.3198 32.9583 21.2334 33.2376L26.0103 34.7147Z" fill="url(#paint2_linear_99_213)"/>
<defs>
<linearGradient id="paint0_linear_99_213" x1="31.6875" y1="73.1937" x2="31.6875" y2="4" gradientUnits="userSpaceOnUse">
<stop stop-color="#02AA93"/>
<stop offset="1" stop-color="#67FF80"/>
</linearGradient>
<linearGradient id="paint1_linear_99_213" x1="31.5999" y1="58.4163" x2="31.5999" y2="6.27502" gradientUnits="userSpaceOnUse">
<stop stop-color="#02AA93"/>
<stop offset="1" stop-color="#67FF80"/>
</linearGradient>
<linearGradient id="paint2_linear_99_213" x1="31.5999" y1="60.6256" x2="31.5999" y2="4.06565" gradientUnits="userSpaceOnUse">
<stop stop-color="#02AA93"/>
<stop offset="1" stop-color="#67FF80"/>
</linearGradient>
</defs>
</svg>
