<svg width="24" height="24" viewBox="0 0 24 24" fill="none" xmlns="http://www.w3.org/2000/svg">
<path d="M17.6331 1.9669C16.6662 1 15.1108 1 12 1C8.88814 1 7.33274 1 6.36584 1.9669C6.03592 2.29683 5.81882 2.69585 5.67567 3.20208C5.51203 3.7808 6.01239 4.3038 6.6138 4.30124C6.90523 4.3 7.20826 4.3 7.52304 4.3H16.4792C16.7935 4.3 17.0962 4.3 17.3874 4.30124C17.9884 4.3038 18.4886 3.78142 18.3248 3.20314C18.1813 2.6964 17.9633 2.29706 17.6331 1.9669ZM17.6 15.85C18.1523 15.85 18.601 16.2985 18.5987 16.8507C18.5881 19.4154 18.4925 21.1747 17.6331 22.0331C16.6673 23 15.1108 23 12 23C8.88924 23 7.33274 23 6.36694 22.0331C5.50761 21.1747 5.41201 19.4154 5.40138 16.8507C5.39909 16.2985 5.84776 15.85 6.40004 15.85H17.6Z" fill="url(#paint0_linear_306_227)"/>
<path opacity="0.5" d="M16.4 5.3999H7.6C4.4892 5.3999 2.9327 5.3999 1.9669 6.3668C1 7.3326 1 8.8891 1 11.9999C1 15.1107 1 16.6672 1.9669 17.633C2.29737 17.9642 2.69701 18.1818 3.20466 18.325C3.78739 18.4894 4.31149 17.9813 4.30516 17.3758C4.30144 17.0206 4.3004 16.6529 4.30011 16.2819C4.29993 16.0433 4.07978 15.8575 3.91109 15.6888C3.80795 15.5857 3.75 15.4458 3.75 15.2999C3.75 15.1541 3.80795 15.0142 3.91109 14.911C4.01424 14.8079 4.15413 14.7499 4.3 14.7499H19.7C19.8459 14.7499 19.9858 14.8079 20.0889 14.911C20.1921 15.0142 20.25 15.1541 20.25 15.2999C20.25 15.4458 20.1921 15.5857 20.0889 15.6888C19.9202 15.8575 19.7001 16.0433 19.6999 16.2819C19.6996 16.6529 19.6986 17.0205 19.6948 17.3757C19.6885 17.9812 20.2127 18.4893 20.7954 18.3249C21.303 18.1817 21.7032 17.9641 22.0342 17.633C23 16.6672 23 15.1107 23 11.9999C23 8.8891 23 7.3326 22.0331 6.3668C21.0673 5.3999 19.5108 5.3999 16.4 5.3999Z" fill="url(#paint1_linear_306_227)"/>
<path d="M8.69995 10.6252C8.91875 10.6252 9.1286 10.5383 9.28331 10.3836C9.43803 10.2289 9.52495 10.019 9.52495 9.80019C9.52495 9.58139 9.43803 9.37156 9.28331 9.21684C9.1286 9.06212 8.91875 8.97519 8.69995 8.97519H5.39995C5.18115 8.97519 4.97131 9.06212 4.81659 9.21684C4.66187 9.37156 4.57495 9.58139 4.57495 9.80019C4.57495 10.019 4.66187 10.2289 4.81659 10.3836C4.97131 10.5383 5.18115 10.6252 5.39995 10.6252H8.69995ZM18.6 9.80019C18.6 10.092 18.4841 10.3717 18.2778 10.578C18.0715 10.7843 17.7917 10.9002 17.5 10.9002C17.2082 10.9002 16.9284 10.7843 16.7221 10.578C16.5158 10.3717 16.4 10.092 16.4 9.80019C16.4 9.50845 16.5158 9.22867 16.7221 9.02238C16.9284 8.81609 17.2082 8.7002 17.5 8.7002C17.7917 8.7002 18.0715 8.81609 18.2778 9.02238C18.4841 9.22867 18.6 9.50845 18.6 9.80019Z" fill="url(#paint2_linear_306_227)"/>
<defs>
<linearGradient id="paint0_linear_306_227" x1="18.2265" y1="12" x2="6.33361" y2="9.41927" gradientUnits="userSpaceOnUse">
<stop stop-color="#FE7970"/>
<stop offset="1" stop-color="#DC3282"/>
</linearGradient>
<linearGradient id="paint1_linear_306_227" x1="22.3795" y1="11.8781" x2="7.30704" y2="2.62012" gradientUnits="userSpaceOnUse">
<stop stop-color="#FE7970"/>
<stop offset="1" stop-color="#DC3282"/>
</linearGradient>
<linearGradient id="paint2_linear_306_227" x1="18.2044" y1="9.80019" x2="16.1098" y2="4.96981" gradientUnits="userSpaceOnUse">
<stop stop-color="#FE7970"/>
<stop offset="1" stop-color="#DC3282"/>
</linearGradient>
</defs>
</svg>
