<svg width="32" height="32" viewBox="0 0 32 32" fill="none" xmlns="http://www.w3.org/2000/svg">
<path opacity="0.4" d="M3.75 2.875C2.7805 2.875 2 3.6555 2 4.625V6.86665C2 7.64128 2.88873 8.14703 3.66308 8.12617C3.69196 8.12539 3.72094 8.125 3.75 8.125H9.61113C9.87634 8.125 10.1307 8.01965 10.3182 7.83213L13.0128 5.13775C13.3409 4.80956 13.7859 4.62512 14.25 4.625H15C15.5523 4.625 16.0219 4.14271 15.7235 3.67802C15.4128 3.19425 14.8701 2.875 14.25 2.875H3.75ZM14.6642 6.375C14.399 6.375 14.1446 6.48036 13.9571 6.66789L11.0429 9.58211C10.8554 9.76964 10.601 9.875 10.3358 9.875H3.75C2.7805 9.875 2 10.6555 2 11.625V25.625C2 27.564 3.561 29.125 5.5 29.125H26.5C28.439 29.125 30 27.564 30 25.625V8.125C30 7.1555 29.2195 6.375 28.25 6.375H14.6642Z" fill="url(#paint0_linear_302_218)"/>
<path d="M24.3172 18.0801L17.6828 11.4458C17.4309 11.1938 17 11.3723 17 11.7286V22.3629C17 22.5839 17.1791 22.7629 17.4 22.7629H20.6C20.8209 22.7629 21 22.5839 21 22.3629V19.1629C21 18.942 21.1791 18.7629 21.4 18.7629H24.0343C24.3907 18.7629 24.5691 18.3321 24.3172 18.0801Z" fill="url(#paint1_linear_302_218)"/>
<path d="M14.6 14.7629H11.4C11.1791 14.7629 11 14.942 11 15.1629V18.3629C11 18.5839 10.8209 18.7629 10.6 18.7629H7.96569C7.60932 18.7629 7.43086 19.1938 7.68284 19.4458L14.3172 26.0801C14.5691 26.3321 15 26.1536 15 25.7973V15.1629C15 14.942 14.8209 14.7629 14.6 14.7629Z" fill="url(#paint2_linear_302_218)"/>
<defs>
<linearGradient id="paint0_linear_302_218" x1="16" y1="29.125" x2="16" y2="2.875" gradientUnits="userSpaceOnUse">
<stop stop-color="#02AA93"/>
<stop offset="1" stop-color="#67FF80"/>
</linearGradient>
<linearGradient id="paint1_linear_302_218" x1="16" y1="26.7629" x2="16" y2="10.7629" gradientUnits="userSpaceOnUse">
<stop stop-color="#02AA93"/>
<stop offset="1" stop-color="#67FF80"/>
</linearGradient>
<linearGradient id="paint2_linear_302_218" x1="16" y1="26.7629" x2="16" y2="10.7629" gradientUnits="userSpaceOnUse">
<stop stop-color="#02AA93"/>
<stop offset="1" stop-color="#67FF80"/>
</linearGradient>
</defs>
</svg>
