<svg width="24" height="24" viewBox="0 0 24 24" fill="none" xmlns="http://www.w3.org/2000/svg">
<path opacity="0.45" d="M1 12C1 6.8146 1 4.2219 2.6104 2.6104C4.223 1 6.8146 1 12 1C17.1854 1 19.7781 1 21.3885 2.6104C23 4.223 23 6.8146 23 12C23 17.1854 23 19.7781 21.3885 21.3885C19.7792 23 17.1854 23 12 23C6.8146 23 4.2219 23 2.6104 21.3885C1 19.7792 1 17.1854 1 12Z" fill="url(#paint0_linear_8_278)"/>
<path d="M10.2826 6.51649C10.3665 6.43276 10.4328 6.33308 10.4775 6.22335C10.5223 6.11361 10.5446 5.99602 10.5432 5.87751C10.5418 5.75901 10.5167 5.64198 10.4693 5.53333C10.422 5.42468 10.3534 5.32661 10.2676 5.24489C10.1817 5.16317 10.0804 5.09945 9.96958 5.0575C9.85874 5.01555 9.74063 4.99621 9.6222 5.00061C9.50377 5.00502 9.38742 5.03309 9.28 5.08317C9.17259 5.13325 9.07628 5.20432 8.99677 5.2922L6.25691 8.1694L5.54649 7.42346C5.46697 7.33558 5.37067 7.26451 5.26326 7.21443C5.15584 7.16436 5.03949 7.13629 4.92106 7.13188C4.80263 7.12747 4.68451 7.14681 4.57367 7.18876C4.46283 7.23072 4.36151 7.29443 4.27568 7.37615C4.18985 7.45787 4.12125 7.55595 4.07391 7.6646C4.02657 7.77325 4.00147 7.89027 4.00006 8.00878C3.99866 8.12728 4.02099 8.24487 4.06574 8.35461C4.11049 8.46435 4.17676 8.56402 4.26063 8.64775L5.61398 10.0686C5.69692 10.1556 5.79667 10.2249 5.90718 10.2723C6.0177 10.3196 6.13668 10.3441 6.25691 10.3441C6.37714 10.3441 6.49612 10.3196 6.60664 10.2723C6.71716 10.2249 6.81691 10.1556 6.89984 10.0686L10.2826 6.51649ZM13.1918 7.38438C12.9563 7.38438 12.7304 7.47794 12.5639 7.64448C12.3973 7.81102 12.3038 8.03689 12.3038 8.27241C12.3038 8.50793 12.3973 8.7338 12.5639 8.90034C12.7304 9.06688 12.9563 9.16044 13.1918 9.16044H19.112C19.3475 9.16044 19.5734 9.06688 19.7399 8.90034C19.9064 8.7338 20 8.50793 20 8.27241C20 8.03689 19.9064 7.81102 19.7399 7.64448C19.5734 7.47794 19.3475 7.38438 19.112 7.38438H13.1918ZM10.2826 14.8047C10.3665 14.721 10.4328 14.6213 10.4775 14.5116C10.5223 14.4018 10.5446 14.2843 10.5432 14.1658C10.5418 14.0473 10.5167 13.9302 10.4693 13.8216C10.422 13.7129 10.3534 13.6149 10.2676 13.5331C10.1817 13.4514 10.0804 13.3877 9.96958 13.3457C9.85874 13.3038 9.74063 13.2844 9.6222 13.2889C9.50377 13.2933 9.38742 13.3213 9.28 13.3714C9.17259 13.4215 9.07628 13.4926 8.99677 13.5804L6.25691 16.4576L5.54649 15.7117C5.46697 15.6238 5.37067 15.5528 5.26326 15.5027C5.15584 15.4526 5.03949 15.4245 4.92106 15.4201C4.80263 15.4157 4.68451 15.4351 4.57367 15.477C4.46283 15.519 4.36151 15.5827 4.27568 15.6644C4.18985 15.7461 4.12125 15.8442 4.07391 15.9528C4.02657 16.0615 4.00147 16.1785 4.00006 16.297C3.99866 16.4155 4.02099 16.5331 4.06574 16.6429C4.11049 16.7526 4.17676 16.8523 4.26063 16.936L5.61398 18.3568C5.69692 18.4439 5.79667 18.5132 5.90718 18.5605C6.0177 18.6079 6.13668 18.6323 6.25691 18.6323C6.37714 18.6323 6.49612 18.6079 6.60664 18.5605C6.71716 18.5132 6.81691 18.4439 6.89984 18.3568L10.2826 14.8047ZM13.1918 15.6726C12.9563 15.6726 12.7304 15.7662 12.5639 15.9327C12.3973 16.0993 12.3038 16.3251 12.3038 16.5607C12.3038 16.7962 12.3973 17.022 12.5639 17.1886C12.7304 17.3551 12.9563 17.4487 13.1918 17.4487H19.112C19.3475 17.4487 19.5734 17.3551 19.7399 17.1886C19.9064 17.022 20 16.7962 20 16.5607C20 16.3251 19.9064 16.0993 19.7399 15.9327C19.5734 15.7662 19.3475 15.6726 19.112 15.6726H13.1918Z" fill="url(#paint1_linear_8_278)"/>
<defs>
<linearGradient id="paint0_linear_8_278" x1="1" y1="12" x2="23" y2="12" gradientUnits="userSpaceOnUse">
<stop stop-color="#02AA93"/>
<stop offset="1" stop-color="#67FF80"/>
</linearGradient>
<linearGradient id="paint1_linear_8_278" x1="4" y1="11.8161" x2="20" y2="11.8161" gradientUnits="userSpaceOnUse">
<stop stop-color="#02AA93"/>
<stop offset="1" stop-color="#67FF80"/>
</linearGradient>
</defs>
</svg>
