<svg width="64" height="64" viewBox="0 0 64 64" fill="none" xmlns="http://www.w3.org/2000/svg">
<path opacity="0.4" d="M57 22.3925V48.25C56.996 51.8955 55.5461 55.3906 52.9683 57.9683C50.3905 60.5461 46.8955 61.996 43.25 62H20.75C17.1045 61.996 13.6094 60.5461 11.0317 57.9683C8.4539 55.3906 7.00397 51.8955 7 48.25V15.75C7.00397 12.1045 8.4539 8.60948 11.0317 6.03171C13.6094 3.45395 17.1045 2.00402 20.75 2.00005H36.6075C38.4139 1.99517 40.2033 2.34863 41.8721 3.03995C43.541 3.73127 45.0562 4.74673 46.33 6.02755L52.9725 12.67C54.2533 13.9438 55.2687 15.459 55.9601 17.1279C56.6514 18.7967 57.0048 20.5862 57 22.3925Z" fill="url(#paint0_linear_201_110)"/>
<path d="M31.1513 28.7885L27.6836 25.3183C27.2657 24.9004 26.7695 24.5689 26.2234 24.3427C25.6772 24.1164 25.0921 24 24.501 24C23.9098 24 23.3246 24.1164 22.7785 24.3426C22.2325 24.5687 21.7363 24.9004 21.3184 25.3183C20.9005 25.7362 20.569 26.2323 20.3427 26.7785C20.1165 27.3246 20 27.9097 20.0001 28.5009C20 29.0919 20.1165 29.6772 20.3427 30.2233C20.569 30.7693 20.9005 31.2656 21.3184 31.6835L24.7885 35.1512C25.2575 35.6199 25.2575 36.38 24.7885 36.8487L21.3183 40.3165C20.4743 41.1605 20 42.3054 20 43.4991C20.0001 44.6927 20.4742 45.8376 21.3183 46.6817C22.1624 47.5258 23.3073 47.9999 24.5009 48C25.6946 48 26.8395 47.5257 27.6835 46.6817L31.1513 43.2116C31.62 42.7426 32.3802 42.7426 32.8488 43.2115L36.3166 46.6816C37.1607 47.5257 38.3055 47.9999 39.4992 47.9999C40.693 47.9999 41.8377 47.5257 42.6818 46.6816C43.5258 45.8376 44.0001 44.6927 44.0001 43.499C44.0001 42.3052 43.5259 41.1605 42.6818 40.3164L39.2116 36.8487C38.7427 36.38 38.7426 35.6199 39.2116 35.1512L42.6818 31.6835C43.5259 30.8394 44.0001 29.6946 44.0001 28.5009C44.0001 27.3072 43.5259 26.1624 42.6818 25.3183C41.8377 24.4742 40.693 24 39.4992 24C38.3055 24 37.1607 24.4742 36.3166 25.3183L32.8488 28.7884C32.3801 29.2574 31.62 29.2573 31.1513 28.7885Z" fill="url(#paint1_linear_201_110)"/>
<defs>
<linearGradient id="paint0_linear_201_110" x1="56.8519" y1="2.38037" x2="-1.60953" y2="50.6927" gradientUnits="userSpaceOnUse">
<stop stop-color="#FE7970"/>
<stop offset="1" stop-color="#DC3282"/>
</linearGradient>
<linearGradient id="paint1_linear_201_110" x1="32.0722" y1="14.8353" x2="31.8958" y2="57.0478" gradientUnits="userSpaceOnUse">
<stop stop-color="#FE7970"/>
<stop offset="1" stop-color="#DC3282"/>
</linearGradient>
</defs>
</svg>
