<svg width="24" height="24" viewBox="0 0 24 24" fill="none" xmlns="http://www.w3.org/2000/svg">
<path d="M13.2726 17.5139L17.514 13.2726C19.1133 11.6733 19.9129 10.8737 19.9129 9.87933C19.9129 9.21387 19.5543 8.63531 18.835 7.84446C18.4048 7.3822 17.9644 6.92965 17.514 6.48714C16.986 5.95918 16.546 5.51811 16.1555 5.16393C15.3658 4.44677 14.7861 4.0871 14.1207 4.0871C13.1274 4.0871 12.3278 4.88675 10.7285 6.48714L6.48715 10.7274C4.88785 12.3267 4.0882 13.1263 4.0882 14.1207C4.0882 14.7861 4.44678 15.3647 5.16503 16.1555C5.51811 16.5449 5.95918 16.986 6.48715 17.5139C7.01512 18.0419 7.45509 18.4819 7.84447 18.8361C8.63532 19.5532 9.21388 19.9129 9.87934 19.9129C10.8737 19.9129 11.6722 19.1132 13.2726 17.5139Z" fill="url(#paint0_linear_54_540)"/>
<path opacity="0.4" d="M22.1788 1.82124C22.071 1.71345 22.0171 1.65955 21.972 1.61886C21.7287 1.39907 21.4429 1.23148 21.1323 1.12644C20.8218 1.0214 20.4929 0.981146 20.1662 1.00815C19.8394 1.03516 19.5217 1.12885 19.2326 1.28346C18.9435 1.43806 18.6891 1.65029 18.4852 1.90704C18.4266 1.98384 18.3698 2.06196 18.3147 2.14132L16.1555 5.16393C16.5449 5.51811 16.986 5.95918 17.5129 6.48605C18.0408 7.01401 18.4819 7.45509 18.8361 7.84446L21.8587 5.6853C21.983 5.5973 22.0446 5.55331 22.093 5.51371C22.3495 5.30982 22.5616 5.05551 22.7161 4.76648C22.8706 4.47746 22.9643 4.15984 22.9913 3.83323C23.0183 3.50661 22.9781 3.17793 22.8731 2.86745C22.7682 2.55698 22.6008 2.27129 22.3811 2.02803C22.3153 1.95757 22.2478 1.88862 22.1788 1.82124ZM1.61886 21.972C1.65955 22.0171 1.71345 22.071 1.82124 22.1788C1.92904 22.2865 1.98293 22.3404 2.02803 22.3811C2.27132 22.6009 2.55707 22.7685 2.86765 22.8736C3.17824 22.9786 3.50705 23.0189 3.8338 22.9918C4.16055 22.9648 4.4783 22.8711 4.76742 22.7165C5.05655 22.5619 5.31091 22.3497 5.51481 22.093C5.55221 22.0446 5.59621 21.983 5.6853 21.8587L7.84446 18.8361C7.38215 18.4052 6.9296 17.9641 6.48715 17.5128C5.95918 16.9849 5.51811 16.5449 5.16393 16.1555L2.14132 18.3147C2.06196 18.3698 1.98384 18.4266 1.90704 18.4852C1.65029 18.6891 1.43806 18.9435 1.28346 19.2326C1.12885 19.5217 1.03516 19.8394 1.00815 20.1662C0.981146 20.4929 1.0214 20.8218 1.12644 21.1323C1.23148 21.4429 1.39907 21.7287 1.61886 21.972Z" fill="url(#paint1_linear_54_540)"/>
<defs>
<linearGradient id="paint0_linear_54_540" x1="4.0882" y1="12" x2="19.9129" y2="12" gradientUnits="userSpaceOnUse">
<stop stop-color="#02AA93"/>
<stop offset="1" stop-color="#67FF80"/>
</linearGradient>
<linearGradient id="paint1_linear_54_540" x1="1" y1="12" x2="22.9994" y2="12" gradientUnits="userSpaceOnUse">
<stop stop-color="#02AA93"/>
<stop offset="1" stop-color="#67FF80"/>
</linearGradient>
</defs>
</svg>
