<svg width="24" height="24" viewBox="0 0 24 24" fill="none" xmlns="http://www.w3.org/2000/svg">
<path opacity="0.5" d="M9.66779 15.1126C9.89332 15.657 10.2239 16.1517 10.6406 16.5684L10.6397 16.5675C11.4813 17.4089 12.6224 17.8815 13.8124 17.8815C15.0023 17.8815 16.1435 17.4089 16.9851 16.5675L19.403 14.1496C20.0154 13.5371 20.4375 12.7605 20.6183 11.9133C20.7991 11.0662 20.7308 10.1849 20.4218 9.37573C20.1127 8.56657 19.5761 7.86416 18.8766 7.35327C18.1772 6.84238 17.3448 6.54485 16.4799 6.4966C16.3102 6.48719 16.1511 6.41072 16.0376 6.28401C15.9243 6.15731 15.8658 5.99074 15.8753 5.82095C15.8846 5.65117 15.9611 5.49208 16.0878 5.37867C16.1505 5.32252 16.2237 5.27928 16.3032 5.25141C16.3826 5.22354 16.4668 5.2116 16.5509 5.21625C17.663 5.27806 18.7334 5.66047 19.633 6.3173C20.5325 6.97415 21.2227 7.87734 21.6202 8.91783C22.0176 9.95836 22.1054 11.0916 21.8729 12.1809C21.6403 13.2702 21.0975 14.2689 20.3099 15.0564L17.8919 17.4735C16.81 18.5554 15.3425 19.1633 13.8124 19.1633C12.2823 19.1633 10.8149 18.5554 9.73292 17.4735C8.65097 16.3915 8.04314 14.9242 8.04314 13.394C8.04314 11.8639 8.65097 10.3965 9.73292 9.31455L10.9432 8.1077C11.0019 8.04473 11.0726 7.99421 11.1513 7.95918C11.2299 7.92414 11.3148 7.9053 11.4008 7.90378C11.4869 7.90227 11.5724 7.91809 11.6523 7.95034C11.7321 7.98258 11.8045 8.03057 11.8654 8.09144C11.9263 8.1523 11.9743 8.22481 12.0065 8.30463C12.0388 8.38445 12.0546 8.46995 12.0531 8.55602C12.0515 8.64208 12.0327 8.72697 11.9977 8.8056C11.9626 8.88424 11.9122 8.955 11.8492 9.01369L10.6406 10.2223C10.2239 10.6389 9.89332 11.1336 9.66779 11.678C9.44226 12.2225 9.32618 12.806 9.32618 13.3953C9.32618 13.9846 9.44226 14.5682 9.66779 15.1126Z" stroke="url(#paint0_linear_55_77)" stroke-width="2"/>
<path fill-rule="evenodd" clip-rule="evenodd" d="M3.69018 8.10688C2.90255 8.89434 2.3597 9.89299 2.12715 10.9822C1.89461 12.0714 1.98232 13.2046 2.37969 14.2451C2.77705 15.2855 3.4671 16.1888 4.36651 16.8457C5.26593 17.5025 6.33627 17.8851 7.4483 17.9471C7.61808 17.9564 7.78466 17.898 7.91136 17.7846C8.03806 17.6713 8.11454 17.5122 8.12394 17.3423C8.13335 17.1725 8.07493 17.006 7.96152 16.8793C7.84812 16.7526 7.68903 16.6761 7.51924 16.6667C6.65441 16.6184 5.82203 16.3209 5.12257 15.8101C4.42311 15.2992 3.88645 14.5967 3.5774 13.7875C3.26833 12.9784 3.20007 12.0971 3.38085 11.25C3.56163 10.4029 3.98372 9.62617 4.59616 9.01371L7.01411 6.59576C7.85566 5.75421 8.99705 5.28143 10.1872 5.28143C11.3774 5.28143 12.5187 5.75421 13.3603 6.59576C14.2018 7.43731 14.6746 8.5787 14.6746 9.76881C14.6746 10.959 14.2018 12.1004 13.3603 12.9419L12.1509 14.1504C12.0896 14.2096 12.0409 14.2803 12.0073 14.3586C11.9737 14.4368 11.9561 14.521 11.9554 14.6061C11.9547 14.6912 11.971 14.7756 12.0033 14.8543C12.0355 14.9331 12.0832 15.0046 12.1433 15.0648C12.2035 15.125 12.2752 15.1725 12.354 15.2047C12.4327 15.2369 12.5172 15.2531 12.6023 15.2523C12.6874 15.2515 12.7715 15.2338 12.8497 15.2002C12.9279 15.1665 12.9986 15.1177 13.0577 15.0564L14.2663 13.8487C15.3482 12.7668 15.9561 11.2994 15.9561 9.76926C15.9561 8.23916 15.3482 6.77172 14.2663 5.68978C13.1843 4.60784 11.7169 4 10.1868 4C8.65665 4 7.18922 4.60784 6.10728 5.68978L3.69018 8.10688Z" fill="url(#paint1_linear_55_77)" stroke="url(#paint2_linear_55_77)" stroke-width="2"/>
<defs>
<linearGradient id="paint0_linear_55_77" x1="21.9586" y1="5.30369" x2="8.12092" y2="19.035" gradientUnits="userSpaceOnUse">
<stop stop-color="#FE7970"/>
<stop offset="1" stop-color="#DC3282"/>
</linearGradient>
<linearGradient id="paint1_linear_55_77" x1="15.9147" y1="4.08842" x2="2.07695" y2="17.8189" gradientUnits="userSpaceOnUse">
<stop stop-color="#FE7970"/>
<stop offset="1" stop-color="#DC3282"/>
</linearGradient>
<linearGradient id="paint2_linear_55_77" x1="15.9147" y1="4.08842" x2="2.07695" y2="17.8189" gradientUnits="userSpaceOnUse">
<stop stop-color="#FE7970"/>
<stop offset="1" stop-color="#DC3282"/>
</linearGradient>
</defs>
</svg>
