<svg width="24" height="24" viewBox="0 0 24 24" fill="none" xmlns="http://www.w3.org/2000/svg">
<path d="M6.43431 1C6.89191 1 7.26261 1.3564 7.26261 1.7964V3.4024C7.99741 3.3892 8.82131 3.3892 9.74861 3.3892H14.1651C15.0913 3.3892 15.9152 3.3892 16.65 3.4035V1.7975C16.65 1.3575 17.0207 1 17.4783 1C17.9359 1 18.3066 1.3564 18.3066 1.7964V3.475C19.8961 3.5971 20.94 3.8974 21.7056 4.6355C22.4734 5.3725 22.7858 6.3757 22.9123 7.9047L23.0003 8.7H1.00031V7.9036C1.12791 6.3746 1.44031 5.3714 2.20701 4.6344C2.97371 3.8974 4.0165 3.596 5.60601 3.4739V1.7964C5.60601 1.3564 5.97671 1 6.43431 1Z" fill="url(#paint0_linear_8_192)"/>
<path opacity="0.45" d="M23.0003 14.2V12C23.0003 11.0771 22.9959 9.43151 22.9816 8.70001H1.01133C0.997029 9.43151 1.00033 11.0771 1.00033 12V14.2C1.00033 18.3481 1.00033 20.4227 2.28953 21.7108C3.57763 23 5.65113 23 9.80033 23H14.2003C18.3473 23 20.4219 23 21.7111 21.7108C23.0003 20.4227 23.0003 18.3481 23.0003 14.2Z" fill="url(#paint1_linear_8_192)"/>
<path d="M8 16.0318C7.99986 15.8457 8.07359 15.6674 8.20499 15.536C8.3364 15.4046 8.51473 15.3308 8.70083 15.331L10.5455 15.3335C10.967 15.3341 11.3089 14.9922 11.3083 14.5707L11.3058 12.726C11.3023 12.6318 11.3179 12.5379 11.3515 12.4499C11.3852 12.3618 11.4362 12.2816 11.5016 12.2138C11.567 12.1461 11.6454 12.0922 11.7322 12.0555C11.819 12.0187 11.9123 11.9999 12.0066 12C12.1009 12.0001 12.1942 12.0193 12.2811 12.0562C12.3679 12.0932 12.4465 12.1473 12.5121 12.2152C12.5777 12.2832 12.629 12.3636 12.6629 12.4517C12.6968 12.5398 12.7126 12.6337 12.7094 12.728L12.7119 14.5769C12.7125 14.9968 13.0528 15.337 13.4727 15.3376L15.3216 15.3402C15.5034 15.3468 15.6758 15.4238 15.8023 15.5549C15.9289 15.686 15.9997 15.861 16 16.0429C16.0003 16.2249 15.9299 16.3996 15.8037 16.5304C15.6775 16.6611 15.5053 16.7376 15.3235 16.7438L13.4789 16.7412C13.0573 16.7406 12.7154 17.0825 12.716 17.5041L12.7186 19.3487C12.7124 19.5306 12.6359 19.7027 12.5051 19.8289C12.3744 19.9551 12.1997 20.0255 12.0177 20.0252C11.8357 20.025 11.6608 19.9541 11.5297 19.8275C11.3986 19.701 11.3216 19.5286 11.315 19.3468L11.3124 17.4979C11.3118 17.078 10.9716 16.7377 10.5516 16.7371L8.70277 16.7346C8.51668 16.7342 8.33814 16.66 8.20637 16.5282C8.0746 16.3964 8.00037 16.2179 8 16.0318Z" fill="url(#paint2_linear_8_192)" stroke="url(#paint3_linear_8_192)"/>
<defs>
<linearGradient id="paint0_linear_8_192" x1="12.0003" y1="1" x2="12.0003" y2="8.7" gradientUnits="userSpaceOnUse">
<stop stop-color="#DC18FC"/>
<stop offset="1" stop-color="#8E1EFF"/>
</linearGradient>
<linearGradient id="paint1_linear_8_192" x1="12.0002" y1="8.70001" x2="12.0002" y2="23" gradientUnits="userSpaceOnUse">
<stop stop-color="#DC18FC"/>
<stop offset="1" stop-color="#8E1EFF"/>
</linearGradient>
<linearGradient id="paint2_linear_8_192" x1="12" y1="12" x2="12" y2="20.0252" gradientUnits="userSpaceOnUse">
<stop stop-color="#DC18FC"/>
<stop offset="1" stop-color="#8E1EFF"/>
</linearGradient>
<linearGradient id="paint3_linear_8_192" x1="12" y1="12" x2="12" y2="20.0252" gradientUnits="userSpaceOnUse">
<stop stop-color="#DC18FC"/>
<stop offset="1" stop-color="#8E1EFF"/>
</linearGradient>
</defs>
</svg>
