<svg width="24" height="24" viewBox="0 0 24 24" fill="none" xmlns="http://www.w3.org/2000/svg">
<path opacity="0.4" d="M22.6031 14.607C22.3896 14.277 22.086 13.947 21.6926 13.738C21.3778 13.584 21.1755 13.331 20.9956 13.034C20.4223 12.088 20.7595 10.845 21.7151 10.284C22.8392 9.657 23.1989 8.26 22.5469 7.171L21.7938 5.873C21.153 4.784 19.7478 4.399 18.6349 5.037C17.6456 5.565 16.3753 5.213 15.802 4.278C15.6222 3.97 15.521 3.64 15.5435 3.31C15.5772 2.881 15.4423 2.474 15.2399 2.144C14.824 1.462 14.0708 1 13.2389 1H11.6539C10.8333 1.022 10.0801 1.462 9.66414 2.144C9.45055 2.474 9.3269 2.881 9.34938 3.31C9.37186 3.64 9.27069 3.97 9.09082 4.278C8.51751 5.213 7.24721 5.565 6.2692 5.037C5.14505 4.399 3.7511 4.784 3.09909 5.873L2.3459 7.171C1.70514 8.26 2.06487 9.657 3.17778 10.284C4.13331 10.845 4.47055 12.088 3.90848 13.034C3.71737 13.331 3.51502 13.584 3.20026 13.738C2.81805 13.947 2.4808 14.277 2.30094 14.607C1.885 15.289 1.90749 16.147 2.32342 16.862L3.09909 18.182C3.51502 18.886 4.29069 19.326 5.10008 19.326C5.48229 19.326 5.93195 19.216 6.29168 18.996C6.57272 18.809 6.90997 18.743 7.28094 18.743C8.39385 18.743 9.3269 19.656 9.34938 20.745C9.34938 22.01 10.3836 23 11.6876 23H13.2165C14.5092 23 15.5435 22.01 15.5435 20.745C15.5772 19.656 16.5102 18.743 17.6231 18.743C17.9829 18.743 18.3201 18.809 18.6124 18.996C18.9721 19.216 19.4106 19.326 19.804 19.326C20.6022 19.326 21.3778 18.886 21.7938 18.182L22.5807 16.862C22.9854 16.125 23.0191 15.289 22.6031 14.607Z" fill="url(#paint0_linear_11_152)"/>
<path d="M15.6667 12.0049C15.6667 12.2576 15.5909 12.5113 15.4394 12.7145C15.411 12.7543 15.2784 12.9186 15.1742 13.0255L15.1174 13.0838C14.322 13.9694 12.3428 15.3011 11.339 15.7278C11.339 15.7375 10.7424 15.9913 10.4583 16H10.4205C9.98485 16 9.57765 15.7482 9.36932 15.34C9.25568 15.1154 9.15152 14.4642 9.14205 14.4554C9.05682 13.8712 9 12.9769 9 11.9951C9 10.9657 9.05682 10.0316 9.16098 9.45808C9.16098 9.44836 9.26515 8.92345 9.33144 8.74848C9.43561 8.49672 9.625 8.2819 9.86174 8.14581C10.0511 8.04957 10.25 8 10.4583 8C10.6761 8.01069 11.0833 8.15553 11.2443 8.22357C12.3049 8.65128 14.3314 10.051 15.108 10.9064C15.2405 11.0425 15.3826 11.2087 15.4205 11.2467C15.5814 11.4605 15.6667 11.723 15.6667 12.0049" fill="url(#paint1_linear_11_152)"/>
<defs>
<linearGradient id="paint0_linear_11_152" x1="22.1939" y1="1.62882" x2="13.2929" y2="22.8616" gradientUnits="userSpaceOnUse">
<stop stop-color="#FE0F7C"/>
<stop offset="1" stop-color="#DF0066"/>
</linearGradient>
<linearGradient id="paint1_linear_11_152" x1="15.4414" y1="8.22866" x2="11.9097" y2="15.6187" gradientUnits="userSpaceOnUse">
<stop stop-color="#FE0F7C"/>
<stop offset="1" stop-color="#DF0066"/>
</linearGradient>
</defs>
</svg>
