<svg width="16" height="16" viewBox="0 0 16 16" fill="none" xmlns="http://www.w3.org/2000/svg">
<path opacity="0.4" d="M3 2C2.44772 2 2 2.44772 2 3V13C2 13.5523 2.44772 14 3 14H13C13.5523 14 14 13.5523 14 13V3C14 2.44772 13.5523 2 13 2H3ZM6 4C6 3.44772 6.44772 3 7 3H12C12.5523 3 13 3.44772 13 4V12C13 12.5523 12.5523 13 12 13H7C6.44772 13 6 12.5523 6 12V4Z" fill="url(#paint0_linear_95_88)"/>
<path d="M11 5C10.8048 4.80476 10.4882 4.80476 10.293 5L8.00008 7.29289C7.60955 7.68342 7.60955 8.31658 8.00008 8.70711L10.293 11C10.4882 11.1952 10.8048 11.1952 11 11V11C11.1952 10.8048 11.1952 10.4882 11 10.293L9.41414 8.70711C9.02361 8.31658 9.02361 7.68342 9.41414 7.29289L11 5.70703C11.1952 5.51179 11.1952 5.19524 11 5V5Z" fill="url(#paint1_linear_95_88)" stroke="url(#paint2_linear_95_88)" stroke-width="0.6"/>
<defs>
<linearGradient id="paint0_linear_95_88" x1="14" y1="8" x2="1.99999" y2="8" gradientUnits="userSpaceOnUse">
<stop stop-color="#02AA93"/>
<stop offset="1" stop-color="#67FF80"/>
</linearGradient>
<linearGradient id="paint1_linear_95_88" x1="11.3535" y1="8" x2="7.29297" y2="8" gradientUnits="userSpaceOnUse">
<stop stop-color="#02AA93"/>
<stop offset="1" stop-color="#67FF80"/>
</linearGradient>
<linearGradient id="paint2_linear_95_88" x1="11.3535" y1="8" x2="7.29297" y2="8" gradientUnits="userSpaceOnUse">
<stop stop-color="#02AA93"/>
<stop offset="1" stop-color="#67FF80"/>
</linearGradient>
</defs>
</svg>
