<svg width="16" height="16" viewBox="0 0 16 16" fill="none" xmlns="http://www.w3.org/2000/svg">
<path opacity="0.4" fill-rule="evenodd" clip-rule="evenodd" d="M1 1.5C1 1.22386 1.22386 1 1.5 1H6.83066L6.83333 1.00267C6.83333 1.00505 6.83621 1.00624 6.83789 1.00456L6.83978 1.00267C6.84125 1.0012 6.84364 1.0012 6.84512 1.00267L9.02933 3.18689C9.1231 3.28065 9.25028 3.33333 9.38289 3.33333H14.5C14.7761 3.33333 15 3.55719 15 3.83333V13.8333V14.5C15 14.7761 14.7761 15 14.5 15H14H13.1667H2.83333H2H1.5C1.22386 15 1 14.7761 1 14.5V1.5ZM2.66667 2.16667C2.39052 2.16667 2.16667 2.39052 2.16667 2.66667V5.16667C2.16667 5.44281 2.39052 5.66667 2.66667 5.66667H7.31665C7.44926 5.66667 7.57644 5.61399 7.67021 5.52022L8.33687 4.85355C8.53213 4.65829 8.53213 4.34171 8.33687 4.14645L6.36354 2.17311C6.35941 2.16898 6.35382 2.16667 6.34798 2.16667H2.66667ZM3.33333 3.83333C3.33333 3.55719 3.55719 3.33333 3.83333 3.33333H5.45956C5.59217 3.33333 5.71934 3.38601 5.81311 3.47978L5.97978 3.64645C6.29476 3.96143 6.07168 4.5 5.62623 4.5H3.83333C3.55719 4.5 3.33333 4.27614 3.33333 4V3.83333Z" fill="url(#paint0_linear_54_576)"/>
<path d="M3.5 9.64286C3.5 9.28787 3.78782 9 4.14286 9H11.8571C12.2121 9 12.5 9.28787 12.5 9.64286V14.3572C12.5 14.7122 12.2121 15 11.8571 15H11.6428C11.2878 15 11 14.7122 11 14.3572V11.1429C11 10.7879 10.7122 10.5 10.3571 10.5H5.64286C5.28781 10.5 5 10.7879 5 11.1429V14.3572C5 14.7122 4.71218 15 4.35715 15H4.14286C3.78782 15 3.5 14.7122 3.5 14.3572V9.64286Z" fill="url(#paint1_linear_54_576)"/>
<defs>
<linearGradient id="paint0_linear_54_576" x1="8" y1="15" x2="8" y2="1" gradientUnits="userSpaceOnUse">
<stop stop-color="#A93AFF"/>
<stop offset="1" stop-color="#FF81FF"/>
</linearGradient>
<linearGradient id="paint1_linear_54_576" x1="8" y1="15" x2="8" y2="9" gradientUnits="userSpaceOnUse">
<stop stop-color="#A93AFF"/>
<stop offset="1" stop-color="#FF81FF"/>
</linearGradient>
</defs>
</svg>
