<svg width="24" height="24" viewBox="0 0 24 24" fill="none" xmlns="http://www.w3.org/2000/svg">
<path opacity="0.4" d="M2 5.8917C2 3.1956 4.23326 1 6.97699 1H12.4342C15.1723 1 17.4 3.189 17.4 5.8807V18.1083C17.4 20.8055 15.1667 23 12.4219 23H6.96691C4.22767 23 2 20.811 2 18.1193V17.0853V5.8917Z" fill="url(#paint0_linear_19_69)"/>
<path d="M22.5663 11.2307L18.2703 6.83928C17.8263 6.3864 17.1118 6.3864 16.6692 6.8423C16.2282 7.2982 16.2296 8.03336 16.6722 8.48624L19.026 10.891H16.7692H8.63207C8.00722 10.891 7.5 11.4118 7.5 12.0534C7.5 12.6965 8.00722 13.2158 8.63207 13.2158H19.026L16.6722 15.6205C16.2296 16.0734 16.2282 16.8086 16.6692 17.2645C16.8912 17.4924 17.1809 17.6072 17.472 17.6072C17.7601 17.6072 18.0498 17.4924 18.2703 17.2675L22.5663 12.8776C22.7794 12.6587 22.9 12.3629 22.9 12.0534C22.9 11.7454 22.7794 11.4496 22.5663 11.2307Z" fill="url(#paint1_linear_19_69)"/>
<defs>
<linearGradient id="paint0_linear_19_69" x1="9.7" y1="1" x2="9.7" y2="23" gradientUnits="userSpaceOnUse">
<stop stop-color="#FFA355"/>
<stop offset="1" stop-color="#FF5555"/>
</linearGradient>
<linearGradient id="paint1_linear_19_69" x1="15.2" y1="6.5" x2="15.2" y2="17.6072" gradientUnits="userSpaceOnUse">
<stop stop-color="#FFA355"/>
<stop offset="1" stop-color="#FF5555"/>
</linearGradient>
</defs>
</svg>
