<svg width="32" height="32" viewBox="0 0 32 32" fill="none" xmlns="http://www.w3.org/2000/svg">
<path opacity="0.4" fill-rule="evenodd" clip-rule="evenodd" d="M19.1748 1H26.766C27.889 1 28.9658 1.44606 29.7598 2.24006C30.5539 3.03406 30.9999 4.11095 30.9999 5.23382V12.8251C30.9998 13.3865 30.7766 13.9248 30.3797 14.3217L14.9411 29.7604C14.147 30.554 13.0703 31 11.9477 31C10.825 31 9.74834 30.554 8.95443 29.7604L2.23961 23.0456C1.44588 22.2515 1 21.1748 1 20.0523C1 18.9295 1.44588 17.8528 2.23961 17.0589L17.6781 1.62025C18.0751 1.22323 18.6135 1.00013 19.1748 1Z" fill="url(#paint0_linear_19_105)"/>
<path d="M16.4472 10.3829C16.4474 10.1084 16.5565 9.84529 16.7505 9.65124C16.9446 9.45719 17.2077 9.34809 17.4822 9.34792L20.329 9.34792C20.8813 9.34792 21.329 8.90021 21.329 8.34792L21.329 5.50106C21.3241 5.36208 21.3473 5.22353 21.3971 5.09368C21.4469 4.96384 21.5223 4.84535 21.6189 4.74529C21.7155 4.64524 21.8312 4.56566 21.9592 4.51131C22.0872 4.45696 22.2249 4.42895 22.364 4.42895C22.503 4.42895 22.6407 4.45696 22.7687 4.51131C22.8967 4.56566 23.0124 4.64524 23.109 4.74529C23.2056 4.84535 23.2811 4.96384 23.3309 5.09368C23.3807 5.22353 23.4038 5.36208 23.3989 5.50106L23.3989 8.34792C23.3989 8.90021 23.8466 9.34792 24.3989 9.34792L27.2458 9.34792C27.5139 9.35739 27.7679 9.47057 27.9543 9.66362C28.1407 9.85668 28.2448 10.1145 28.2448 10.3829C28.2448 10.6512 28.1407 10.909 27.9543 11.1021C27.7679 11.2952 27.5139 11.4083 27.2458 11.4178L24.3989 11.4178C23.8466 11.4178 23.3989 11.8655 23.3989 12.4178L23.3989 15.2647C23.3894 15.5328 23.2763 15.7868 23.0832 15.9732C22.8901 16.1596 22.6323 16.2637 22.364 16.2637C22.0956 16.2637 21.8378 16.1596 21.6447 15.9732C21.4517 15.7868 21.3385 15.5328 21.329 15.2647L21.329 12.4178C21.329 11.8655 20.8813 11.4178 20.329 11.4178L17.4822 11.4178C17.2077 11.4176 16.9446 11.3085 16.7505 11.1145C16.5565 10.9204 16.4474 10.6573 16.4472 10.3829Z" fill="url(#paint1_linear_19_105)" stroke="url(#paint2_linear_19_105)"/>
<defs>
<linearGradient id="paint0_linear_19_105" x1="15.9999" y1="31" x2="15.9999" y2="1" gradientUnits="userSpaceOnUse">
<stop stop-color="#00B59C"/>
<stop offset="1" stop-color="#9CFFAC"/>
</linearGradient>
<linearGradient id="paint1_linear_19_105" x1="25.5283" y1="13.5283" x2="19.182" y2="7.18197" gradientUnits="userSpaceOnUse">
<stop stop-color="#00B59C"/>
<stop offset="1" stop-color="#9CFFAC"/>
</linearGradient>
<linearGradient id="paint2_linear_19_105" x1="25.5283" y1="13.5283" x2="19.182" y2="7.18197" gradientUnits="userSpaceOnUse">
<stop stop-color="#00B59C"/>
<stop offset="1" stop-color="#9CFFAC"/>
</linearGradient>
</defs>
</svg>
