<svg width="64" height="64" viewBox="0 0 64 64" fill="none" xmlns="http://www.w3.org/2000/svg">
<path opacity="0.4" d="M57 22.3925V48.25C56.996 51.8955 55.5461 55.3906 52.9683 57.9683C50.3905 60.5461 46.8955 61.996 43.25 62H20.75C17.1045 61.996 13.6094 60.5461 11.0317 57.9683C8.4539 55.3906 7.00397 51.8955 7 48.25V15.75C7.00397 12.1045 8.4539 8.60948 11.0317 6.03171C13.6094 3.45395 17.1045 2.00402 20.75 2.00005H36.6075C38.4139 1.99517 40.2033 2.34863 41.8721 3.03995C43.541 3.73127 45.0562 4.74673 46.33 6.02755L52.9725 12.67C54.2533 13.9438 55.2687 15.459 55.9601 17.1279C56.6514 18.7967 57.0048 20.5862 57 22.3925Z" fill="url(#paint0_linear_348_145)"/>
<path fill-rule="evenodd" clip-rule="evenodd" d="M22.6667 27H41.3333C43.9107 27 46 29.0893 46 31.6667C46 34.244 43.9107 36.3333 41.3333 36.3333H22.6667C20.0893 36.3333 18 34.244 18 31.6667C18 29.0893 20.0893 27 22.6667 27ZM22.6667 41.6665H41.3333C43.9107 41.6665 46 43.7558 46 46.3332C46 48.9105 43.9107 50.9998 41.3333 50.9998H22.6667C20.0893 50.9998 18 48.9105 18 46.3332C18 43.7558 20.0893 41.6665 22.6667 41.6665Z" fill="url(#paint1_linear_348_145)"/>
<defs>
<linearGradient id="paint0_linear_348_145" x1="19.926" y1="64.3678" x2="-3.01666" y2="27.8527" gradientUnits="userSpaceOnUse">
<stop offset="0.106984" stop-color="#E02767"/>
<stop offset="0.871403" stop-color="#FA5D51"/>
</linearGradient>
<linearGradient id="paint1_linear_348_145" x1="25.2385" y1="36.7016" x2="23.8967" y2="29.0134" gradientUnits="userSpaceOnUse">
<stop offset="0.106984" stop-color="#E02767"/>
<stop offset="0.871403" stop-color="#FA5D51"/>
</linearGradient>
</defs>
</svg>
