<svg width="32" height="32" viewBox="0 0 32 32" fill="none" xmlns="http://www.w3.org/2000/svg">
<path opacity="0.4" d="M18.8125 19.9376C18.8125 20.1862 18.7137 20.4247 18.5379 20.6005C18.3621 20.7763 18.1236 20.8751 17.875 20.8751H14.125C13.8764 20.8751 13.6379 20.7763 13.4621 20.6005C13.2863 20.4247 13.1875 20.1862 13.1875 19.9376V19.0626C13.1875 18.5103 12.7398 18.0626 12.1875 18.0626H2C1.44771 18.0626 1 18.5103 1 19.0626V26.5001C1 26.9973 1.19754 27.4743 1.54917 27.8259C1.9008 28.1775 2.37772 28.3751 2.875 28.3751H29.125C29.6223 28.3751 30.0992 28.1775 30.4508 27.8259C30.8024 27.4743 31 26.9973 31 26.5001V19.0626C31 18.5103 30.5523 18.0626 30 18.0626H19.8125C19.2602 18.0626 18.8125 18.5103 18.8125 19.0626V19.9376Z" fill="url(#paint0_linear_96_104)"/>
<path fill-rule="evenodd" clip-rule="evenodd" d="M26.8938 8.02187L30.7281 11.8562C30.9013 12.0309 30.999 12.2666 31 12.5125V15.1875C31 15.7398 30.5523 16.1875 30 16.1875H19.8125C19.2602 16.1875 18.8125 15.7398 18.8125 15.1875V14.3125C18.8125 14.0639 18.7137 13.8254 18.5379 13.6496C18.3621 13.4738 18.1236 13.375 17.875 13.375H14.125C13.8764 13.375 13.6379 13.4738 13.4621 13.6496C13.2863 13.8254 13.1875 14.0639 13.1875 14.3125V15.1875C13.1875 15.7398 12.7398 16.1875 12.1875 16.1875H2.00002C1.44773 16.1875 1.00002 15.7398 1.00002 15.1875V12.5219C0.999302 12.3985 1.02295 12.2762 1.06961 12.162C1.11626 12.0477 1.185 11.9438 1.27189 11.8562L5.09689 8.02187C5.18449 7.93498 5.28838 7.86624 5.4026 7.81959C5.51682 7.77293 5.63913 7.74928 5.76251 7.75H9.37501C9.9273 7.75 10.375 7.30228 10.375 6.75V5.92187C10.3585 5.68164 10.3904 5.44053 10.4688 5.21284C10.5471 4.98514 10.6704 4.77548 10.8312 4.59628C10.9921 4.41707 11.1873 4.27196 11.4052 4.16954C11.6231 4.06712 11.8594 4.00947 12.1 4H19.75C20.2424 4.01955 20.7073 4.23214 21.0441 4.5918C21.381 4.95146 21.5627 5.42927 21.55 5.92187V6.75C21.55 7.30228 21.9977 7.75 22.55 7.75H26.2375C26.4834 7.75103 26.7191 7.84868 26.8938 8.02187ZM12.25 6.8125C12.25 7.33027 12.6697 7.75 13.1875 7.75H18.8125C19.3303 7.75 19.75 7.33027 19.75 6.8125V6.8125C19.75 6.29473 19.3303 5.875 18.8125 5.875H13.1875C12.6697 5.875 12.25 6.29473 12.25 6.8125V6.8125ZM17.5 15.6875C17.5 15.1352 17.0523 14.6875 16.5 14.6875H15.5C14.9478 14.6875 14.5 15.1352 14.5 15.6875V18.5625C14.5 19.1148 14.9478 19.5625 15.5 19.5625H16.5C17.0523 19.5625 17.5 19.1148 17.5 18.5625V15.6875Z" fill="url(#paint1_linear_96_104)"/>
<defs>
<linearGradient id="paint0_linear_96_104" x1="16" y1="28.3751" x2="16" y2="18.0626" gradientUnits="userSpaceOnUse">
<stop stop-color="#A93AFF"/>
<stop offset="1" stop-color="#FF81FF"/>
</linearGradient>
<linearGradient id="paint1_linear_96_104" x1="16" y1="19.5625" x2="16" y2="4" gradientUnits="userSpaceOnUse">
<stop stop-color="#A93AFF"/>
<stop offset="1" stop-color="#FF81FF"/>
</linearGradient>
</defs>
</svg>
