<svg width="32" height="32" viewBox="0 0 32 32" fill="none" xmlns="http://www.w3.org/2000/svg">
<path opacity="0.4" d="M26.3006 12.4838C26.3006 12.579 25.5544 22.0161 25.1283 25.9877C24.8614 28.4251 23.2901 29.9034 20.9332 29.9454C19.1224 29.986 17.3496 30 15.6054 30C13.7537 30 11.9428 29.986 10.185 29.9454C7.90708 29.8908 6.33446 28.3831 6.08121 25.9877C5.64278 22.0021 4.91025 12.579 4.89664 12.4838C4.88302 12.1968 4.97561 11.9238 5.16351 11.7026C5.34868 11.4983 5.61555 11.3751 5.89603 11.3751H25.3148C25.5939 11.3751 25.8472 11.4983 26.0473 11.7026C26.2339 11.9238 26.3278 12.1968 26.3006 12.4838" fill="url(#paint0_linear_5_77)"/>
<path d="M28.2 7.5676C28.2 6.99223 27.7466 6.54144 27.202 6.54144H23.12C22.2894 6.54144 21.5678 5.95066 21.3826 5.11769L21.1539 4.09713C20.8339 2.86377 19.7297 2 18.4906 2H12.7107C11.4581 2 10.3648 2.86377 10.0325 4.16432L9.81876 5.11909C9.63222 5.95066 8.91059 6.54144 8.08139 6.54144H3.99939C3.4534 6.54144 3 6.99223 3 7.5676V8.09959C3 8.66097 3.4534 9.12575 3.99939 9.12575H27.202C27.7466 9.12575 28.2 8.66097 28.2 8.09959V7.5676Z" fill="url(#paint1_linear_5_77)"/>
<defs>
<linearGradient id="paint0_linear_5_77" x1="15.6003" y1="30" x2="15.6003" y2="11.3751" gradientUnits="userSpaceOnUse">
<stop stop-color="#02AA93"/>
<stop offset="1" stop-color="#67FF80"/>
</linearGradient>
<linearGradient id="paint1_linear_5_77" x1="15.6" y1="9.12575" x2="15.6" y2="2" gradientUnits="userSpaceOnUse">
<stop stop-color="#02AA93"/>
<stop offset="1" stop-color="#67FF80"/>
</linearGradient>
</defs>
</svg>
