<svg width="128" height="128" viewBox="0 0 128 128" fill="none" xmlns="http://www.w3.org/2000/svg">
<path opacity="0.4" fill-rule="evenodd" clip-rule="evenodd" d="M87.334 8H94.334C101.139 8.00741 107.663 10.714 112.475 15.5258C117.287 20.3376 119.993 26.8617 120.001 33.6667V40.6667C120.001 42.5232 119.263 44.3037 117.95 45.6164C116.638 46.9292 114.857 47.6667 113.001 47.6667C111.144 47.6667 109.364 46.9292 108.051 45.6164C106.738 44.3037 106.001 42.5232 106.001 40.6667V33.6667C106.001 30.5725 104.772 27.605 102.584 25.4171C100.396 23.2292 97.4282 22 94.334 22H87.334C85.4775 22 83.6971 21.2625 82.3843 19.9497C81.0715 18.637 80.334 16.8565 80.334 15C80.334 13.1435 81.0715 11.363 82.3843 10.0503C83.6971 8.7375 85.4775 8 87.334 8ZM19.9498 45.6165C18.637 46.9292 16.8566 47.6667 15 47.6667C13.1435 47.6667 11.363 46.9292 10.0503 45.6165C8.73753 44.3037 8.00004 42.5232 8.00004 40.6667V33.6667C8.00745 26.8618 10.714 20.3376 15.5258 15.5258C20.3376 10.714 26.8618 8.00745 33.6667 8.00004H40.6667C42.5232 8.00004 44.3037 8.73753 45.6165 10.0503C46.9292 11.363 47.6667 13.1435 47.6667 15C47.6667 16.8566 46.9292 18.637 45.6165 19.9498C44.3037 21.2625 42.5232 22 40.6667 22H33.6667C30.5725 22 27.605 23.2292 25.4171 25.4171C23.2292 27.605 22 30.5725 22 33.6667V40.6667C22 42.5232 21.2625 44.3037 19.9498 45.6165ZM108.051 82.3821C109.364 81.0694 111.144 80.3319 113.001 80.3319C114.857 80.3319 116.638 81.0694 117.95 82.3821C119.263 83.6949 120.001 85.4753 120.001 87.3318V94.3318C119.993 101.137 117.287 107.661 112.475 112.473C107.663 117.284 101.139 119.991 94.334 119.998H87.334C85.4775 119.998 83.6971 119.261 82.3843 117.948C81.0715 116.635 80.334 114.855 80.334 112.998C80.334 111.142 81.0715 109.361 82.3843 108.049C83.6971 106.736 85.4775 105.998 87.334 105.998H94.334C97.4282 105.998 100.396 104.769 102.584 102.581C104.772 100.393 106.001 97.426 106.001 94.3318V87.3318C106.001 85.4753 106.738 83.6949 108.051 82.3821ZM40.6667 105.998H33.6667C30.5725 105.998 27.605 104.769 25.4171 102.581C23.2292 100.393 22 97.426 22 94.3318V87.3318C22 85.4753 21.2625 83.6949 19.9497 82.3821C18.637 81.0694 16.8565 80.3319 15 80.3319C13.1435 80.3319 11.363 81.0694 10.0503 82.3821C8.7375 83.6949 8 85.4753 8 87.3318V94.3318C8.00741 101.137 10.714 107.661 15.5258 112.473C20.3376 117.284 26.8617 119.991 33.6667 119.998H40.6667C42.5232 119.998 44.3037 119.261 45.6164 117.948C46.9292 116.635 47.6667 114.855 47.6667 112.998C47.6667 111.142 46.9292 109.361 45.6164 108.049C44.3037 106.736 42.5232 105.998 40.6667 105.998ZM63.9993 59.3348C73.0199 59.3348 80.3326 52.0221 80.3326 43.0015C80.3326 33.9808 73.0199 26.6681 63.9993 26.6681C54.9786 26.6681 47.666 33.9808 47.666 43.0015C47.666 52.0221 54.9786 59.3348 63.9993 59.3348ZM36.6267 93.2873C36.4437 92.6374 36.4049 91.9554 36.513 91.2889H36.5224C37.7613 84.9081 41.1815 79.1572 46.1966 75.0222C51.2117 70.8873 57.5091 68.6259 64.009 68.6259C70.5089 68.6259 76.8063 70.8873 81.8214 75.0222C86.8365 79.1572 90.2567 84.9081 91.4956 91.2889C91.6039 91.9561 91.5649 92.639 91.3813 93.2896C91.1978 93.9402 90.8741 94.5428 90.433 95.055C89.9919 95.5672 89.444 95.9768 88.8279 96.2549C88.2118 96.533 87.5422 96.6729 86.8663 96.6649H41.133C40.4579 96.6716 39.7894 96.5306 39.1744 96.2519C38.5594 95.9732 38.0128 95.5635 37.5727 95.0514C37.1326 94.5393 36.8098 93.9372 36.6267 93.2873Z" fill="url(#paint0_linear_37_184)"/>
<path d="M80.3326 43.0015C80.3326 52.0221 73.0199 59.3348 63.9993 59.3348C54.9786 59.3348 47.666 52.0221 47.666 43.0015C47.666 33.9808 54.9786 26.6681 63.9993 26.6681C73.0199 26.6681 80.3326 33.9808 80.3326 43.0015Z" fill="url(#paint1_linear_37_184)"/>
<path d="M36.513 91.2889C36.4049 91.9554 36.4437 92.6374 36.6267 93.2873C36.8098 93.9372 37.1326 94.5393 37.5727 95.0514C38.0128 95.5635 38.5594 95.9732 39.1744 96.2519C39.7894 96.5306 40.4579 96.6716 41.133 96.6649H86.8663C87.5422 96.6729 88.2118 96.533 88.8279 96.2549C89.444 95.9768 89.9919 95.5672 90.433 95.055C90.8741 94.5428 91.1978 93.9402 91.3813 93.2896C91.5649 92.639 91.6039 91.9561 91.4956 91.2889C90.2567 84.9081 86.8365 79.1572 81.8214 75.0222C76.8063 70.8873 70.5089 68.6259 64.009 68.6259C57.5091 68.6259 51.2117 70.8873 46.1966 75.0222C41.1815 79.1572 37.7613 84.9081 36.5224 91.2889H36.513Z" fill="url(#paint2_linear_37_184)"/>
<defs>
<linearGradient id="paint0_linear_37_184" x1="8.01641" y1="62.3398" x2="120.019" y2="62.3398" gradientUnits="userSpaceOnUse">
<stop stop-color="#A93AFF"/>
<stop offset="1" stop-color="#FF81FF"/>
</linearGradient>
<linearGradient id="paint1_linear_37_184" x1="8.01641" y1="62.3398" x2="120.019" y2="62.3398" gradientUnits="userSpaceOnUse">
<stop stop-color="#A93AFF"/>
<stop offset="1" stop-color="#FF81FF"/>
</linearGradient>
<linearGradient id="paint2_linear_37_184" x1="8.01641" y1="62.3398" x2="120.019" y2="62.3398" gradientUnits="userSpaceOnUse">
<stop stop-color="#A93AFF"/>
<stop offset="1" stop-color="#FF81FF"/>
</linearGradient>
</defs>
</svg>
