<svg width="24" height="24" viewBox="0 0 24 24" fill="none" xmlns="http://www.w3.org/2000/svg">
<path d="M6.43431 1C6.89191 1 7.26261 1.3564 7.26261 1.7964V3.4024C7.99741 3.3892 8.82131 3.3892 9.74861 3.3892H14.1651C15.0913 3.3892 15.9152 3.3892 16.65 3.4035V1.7975C16.65 1.3575 17.0207 1 17.4783 1C17.9359 1 18.3066 1.3564 18.3066 1.7964V3.475C19.8961 3.5971 20.94 3.8974 21.7056 4.6355C22.4734 5.3725 22.7858 6.3757 22.9123 7.9047L23.0003 8.7H1.00031V7.9036C1.12791 6.3746 1.44031 5.3714 2.20701 4.6344C2.97371 3.8974 4.0165 3.596 5.60601 3.4739V1.7964C5.60601 1.3564 5.97671 1 6.43431 1Z" fill="url(#paint0_linear_8_192)"/>
<path opacity="0.45" d="M23.0003 14.2V12C23.0003 11.0771 22.9959 9.43151 22.9816 8.70001H1.01133C0.997029 9.43151 1.00033 11.0771 1.00033 12V14.2C1.00033 18.3481 1.00033 20.4227 2.28953 21.7108C3.57763 23 5.65113 23 9.80033 23H14.2003C18.3473 23 20.4219 23 21.7111 21.7108C23.0003 20.4227 23.0003 18.3481 23.0003 14.2Z" fill="url(#paint1_linear_8_192)"/>
<path d="M18.6003 17.5C18.6003 17.7917 18.4844 18.0715 18.2781 18.2778C18.0719 18.4841 17.7921 18.6 17.5003 18.6C17.2086 18.6 16.9288 18.4841 16.7225 18.2778C16.5162 18.0715 16.4003 17.7917 16.4003 17.5C16.4003 17.2083 16.5162 16.9285 16.7225 16.7222C16.9288 16.5159 17.2086 16.4 17.5003 16.4C17.7921 16.4 18.0719 16.5159 18.2781 16.7222C18.4844 16.9285 18.6003 17.2083 18.6003 17.5ZM18.6003 13.1C18.6003 13.3917 18.4844 13.6715 18.2781 13.8778C18.0719 14.0841 17.7921 14.2 17.5003 14.2C17.2086 14.2 16.9288 14.0841 16.7225 13.8778C16.5162 13.6715 16.4003 13.3917 16.4003 13.1C16.4003 12.8083 16.5162 12.5285 16.7225 12.3222C16.9288 12.1159 17.2086 12 17.5003 12C17.7921 12 18.0719 12.1159 18.2781 12.3222C18.4844 12.5285 18.6003 12.8083 18.6003 13.1ZM13.1003 17.5C13.1003 17.7917 12.9844 18.0715 12.7781 18.2778C12.5719 18.4841 12.2921 18.6 12.0003 18.6C11.7086 18.6 11.4288 18.4841 11.2225 18.2778C11.0162 18.0715 10.9003 17.7917 10.9003 17.5C10.9003 17.2083 11.0162 16.9285 11.2225 16.7222C11.4288 16.5159 11.7086 16.4 12.0003 16.4C12.2921 16.4 12.5719 16.5159 12.7781 16.7222C12.9844 16.9285 13.1003 17.2083 13.1003 17.5ZM13.1003 13.1C13.1003 13.3917 12.9844 13.6715 12.7781 13.8778C12.5719 14.0841 12.2921 14.2 12.0003 14.2C11.7086 14.2 11.4288 14.0841 11.2225 13.8778C11.0162 13.6715 10.9003 13.3917 10.9003 13.1C10.9003 12.8083 11.0162 12.5285 11.2225 12.3222C11.4288 12.1159 11.7086 12 12.0003 12C12.2921 12 12.5719 12.1159 12.7781 12.3222C12.9844 12.5285 13.1003 12.8083 13.1003 13.1ZM7.60033 17.5C7.60033 17.7917 7.48444 18.0715 7.27815 18.2778C7.07186 18.4841 6.79207 18.6 6.50033 18.6C6.20859 18.6 5.9288 18.4841 5.72251 18.2778C5.51622 18.0715 5.40033 17.7917 5.40033 17.5C5.40033 17.2083 5.51622 16.9285 5.72251 16.7222C5.9288 16.5159 6.20859 16.4 6.50033 16.4C6.79207 16.4 7.07186 16.5159 7.27815 16.7222C7.48444 16.9285 7.60033 17.2083 7.60033 17.5ZM7.60033 13.1C7.60033 13.3917 7.48444 13.6715 7.27815 13.8778C7.07186 14.0841 6.79207 14.2 6.50033 14.2C6.20859 14.2 5.9288 14.0841 5.72251 13.8778C5.51622 13.6715 5.40033 13.3917 5.40033 13.1C5.40033 12.8083 5.51622 12.5285 5.72251 12.3222C5.9288 12.1159 6.20859 12 6.50033 12C6.79207 12 7.07186 12.1159 7.27815 12.3222C7.48444 12.5285 7.60033 12.8083 7.60033 13.1Z" fill="url(#paint2_linear_8_192)"/>
<defs>
<linearGradient id="paint0_linear_8_192" x1="12.0003" y1="1" x2="12.0003" y2="8.7" gradientUnits="userSpaceOnUse">
<stop stop-color="#DC18FC"/>
<stop offset="1" stop-color="#8E1EFF"/>
</linearGradient>
<linearGradient id="paint1_linear_8_192" x1="12.0002" y1="8.70001" x2="12.0002" y2="23" gradientUnits="userSpaceOnUse">
<stop stop-color="#DC18FC"/>
<stop offset="1" stop-color="#8E1EFF"/>
</linearGradient>
<linearGradient id="paint2_linear_8_192" x1="12.0003" y1="12" x2="12.0003" y2="18.6" gradientUnits="userSpaceOnUse">
<stop stop-color="#DC18FC"/>
<stop offset="1" stop-color="#8E1EFF"/>
</linearGradient>
</defs>
</svg>
