<svg width="128" height="128" viewBox="0 0 128 128" fill="none" xmlns="http://www.w3.org/2000/svg">
<path d="M33.3333 29.6667C33.3333 37.2146 27.2146 43.3333 19.6667 43.3333C12.1188 43.3333 6 37.2146 6 29.6667C6 22.1188 12.1188 16 19.6667 16C27.2146 16 33.3333 22.1188 33.3333 29.6667Z" fill="url(#paint0_linear_19_113)"/>
<path d="M33.3333 63.9987C33.3333 71.5465 27.2146 77.6653 19.6667 77.6653C12.1188 77.6653 6 71.5465 6 63.9987C6 56.4508 12.1188 50.332 19.6667 50.332C27.2146 50.332 33.3333 56.4508 33.3333 63.9987Z" fill="url(#paint1_linear_19_113)"/>
<path d="M33.3333 98.6666C33.3333 106.215 27.2146 112.333 19.6667 112.333C12.1188 112.333 6 106.215 6 98.6666C6 91.1188 12.1188 85 19.6667 85C27.2146 85 33.3333 91.1188 33.3333 98.6666Z" fill="url(#paint2_linear_19_113)"/>
<g opacity="0.45">
<path d="M113.001 38.668H45.334C42.947 38.668 40.6579 37.7198 38.97 36.0319C37.2822 34.3441 36.334 32.0549 36.334 29.668C36.334 27.281 37.2822 24.9918 38.97 23.304C40.6579 21.6162 42.947 20.668 45.334 20.668H113.001C115.388 20.668 117.677 21.6162 119.365 23.304C121.052 24.9918 122.001 27.281 122.001 29.668C122.001 32.0549 121.052 34.3441 119.365 36.0319C117.677 37.7198 115.388 38.668 113.001 38.668Z" fill="url(#paint3_linear_19_113)"/>
<path d="M45.334 57.332H113.001C115.388 57.332 117.677 58.2802 119.365 59.9681C121.052 61.6559 122.001 63.9451 122.001 66.332C122.001 68.719 121.052 71.0082 119.365 72.696C117.677 74.3838 115.388 75.332 113.001 75.332H45.334C42.947 75.332 40.6579 74.3838 38.97 72.696C37.2822 71.0082 36.334 68.719 36.334 66.332C36.334 63.9451 37.2822 61.6559 38.97 59.9681C40.6579 58.2802 42.947 57.332 45.334 57.332Z" fill="url(#paint4_linear_19_113)"/>
<path d="M45.334 92H113.001C115.388 92 117.677 92.9482 119.365 94.636C121.052 96.3239 122.001 98.613 122.001 101C122.001 103.387 121.052 105.676 119.365 107.364C117.677 109.052 115.388 110 113.001 110H45.334C42.947 110 40.6578 109.052 38.97 107.364C37.2822 105.676 36.334 103.387 36.334 101C36.334 98.6131 37.2822 96.3239 38.97 94.636C40.6578 92.9482 42.947 92 45.334 92Z" fill="url(#paint5_linear_19_113)"/>
</g>
<defs>
<linearGradient id="paint0_linear_19_113" x1="120.001" y1="65.9239" x2="36.4751" y2="78.0346" gradientUnits="userSpaceOnUse">
<stop stop-color="#BE41B4"/>
<stop offset="1" stop-color="#FE1FE8"/>
</linearGradient>
<linearGradient id="paint1_linear_19_113" x1="120.001" y1="65.9239" x2="36.4751" y2="78.0346" gradientUnits="userSpaceOnUse">
<stop stop-color="#BE41B4"/>
<stop offset="1" stop-color="#FE1FE8"/>
</linearGradient>
<linearGradient id="paint2_linear_19_113" x1="120.001" y1="65.9239" x2="36.4751" y2="78.0346" gradientUnits="userSpaceOnUse">
<stop stop-color="#BE41B4"/>
<stop offset="1" stop-color="#FE1FE8"/>
</linearGradient>
<linearGradient id="paint3_linear_19_113" x1="120.001" y1="65.9239" x2="36.4751" y2="78.0346" gradientUnits="userSpaceOnUse">
<stop stop-color="#BE41B4"/>
<stop offset="1" stop-color="#FE1FE8"/>
</linearGradient>
<linearGradient id="paint4_linear_19_113" x1="120.001" y1="65.9239" x2="36.4751" y2="78.0346" gradientUnits="userSpaceOnUse">
<stop stop-color="#BE41B4"/>
<stop offset="1" stop-color="#FE1FE8"/>
</linearGradient>
<linearGradient id="paint5_linear_19_113" x1="120.001" y1="65.9239" x2="36.4751" y2="78.0346" gradientUnits="userSpaceOnUse">
<stop stop-color="#BE41B4"/>
<stop offset="1" stop-color="#FE1FE8"/>
</linearGradient>
</defs>
</svg>
