<svg width="16" height="16" viewBox="0 0 16 16" fill="none" xmlns="http://www.w3.org/2000/svg">
<g clip-path="url(#clip0_76_78)">
<path opacity="0.4" fill-rule="evenodd" clip-rule="evenodd" d="M2.00001 0.699707C1.28205 0.699707 0.700012 1.28175 0.700012 1.99971V13.9998C0.700012 14.7177 1.28205 15.2998 2.00001 15.2998H14C14.718 15.2998 15.3 14.7177 15.3 13.9998V1.99971C15.3 1.28175 14.718 0.699707 14 0.699707H2.00001ZM2.46668 4.33304C2.46668 3.94644 2.78008 3.63304 3.16668 3.63304H3.50001C3.88661 3.63304 4.20001 3.94645 4.20001 4.33304V12.8331C4.20001 13.2197 3.88661 13.5331 3.50001 13.5331H3.16668C2.78008 13.5331 2.46668 13.2197 2.46668 12.8331V4.33304Z" fill="url(#paint0_linear_76_78)"/>
<path d="M8.44097 7.53231L7.19374 6.28508C6.93543 6.02677 6.93543 5.60796 7.19374 5.34965L7.34964 5.19375C7.60793 4.93545 8.02677 4.93541 8.28509 5.19372L9.53231 6.44095C9.79062 6.69926 10.2095 6.69922 10.4677 6.44095L11.7149 5.19376C11.9733 4.93539 12.392 4.93544 12.6504 5.19376L12.8063 5.34966C13.0646 5.60797 13.0647 6.02672 12.8063 6.28509L11.5591 7.53228C11.3007 7.79055 11.3007 8.2094 11.5591 8.46771L12.8063 9.71491C13.0646 9.97321 13.0646 10.392 12.8062 10.6504L12.6504 10.8062C12.392 11.0646 11.9732 11.0646 11.7149 10.8062L10.4677 9.55905C10.2094 9.30074 9.7906 9.30074 9.5323 9.55905L8.28506 10.8062C8.02674 11.0646 7.60796 11.0646 7.34965 10.8062L7.19374 10.6504C6.93543 10.392 6.93541 9.97321 7.19374 9.71495L8.44097 8.46772C8.69927 8.20941 8.69927 7.79062 8.44097 7.53231Z" fill="url(#paint1_linear_76_78)" stroke="url(#paint2_linear_76_78)" stroke-width="0.6"/>
</g>
<defs>
<linearGradient id="paint0_linear_76_78" x1="15.2568" y1="0.792264" x2="0.772248" y2="15.1562" gradientUnits="userSpaceOnUse">
<stop stop-color="#FE7970"/>
<stop offset="1" stop-color="#DC3282"/>
</linearGradient>
<linearGradient id="paint1_linear_76_78" x1="10.0184" y1="2.59415" x2="9.97337" y2="13.3759" gradientUnits="userSpaceOnUse">
<stop stop-color="#FE7970"/>
<stop offset="1" stop-color="#DC3282"/>
</linearGradient>
<linearGradient id="paint2_linear_76_78" x1="10.0184" y1="2.59415" x2="9.97337" y2="13.3759" gradientUnits="userSpaceOnUse">
<stop stop-color="#FE7970"/>
<stop offset="1" stop-color="#DC3282"/>
</linearGradient>
<clipPath id="clip0_76_78">
<rect width="16" height="16" fill="white"/>
</clipPath>
</defs>
</svg>
