<svg width="64" height="64" viewBox="0 0 64 64" fill="none" xmlns="http://www.w3.org/2000/svg">
<path opacity="0.4" d="M61 18.2917V44.875C60.9962 48.399 59.5946 51.7776 57.1027 54.2694C54.6109 56.7612 51.2323 58.1628 47.7083 58.1667H16.2917C12.7677 58.1628 9.38912 56.7612 6.89728 54.2694C4.40544 51.7776 3.00384 48.399 3 44.875V18.2917C3.00384 14.7677 4.40544 11.3891 6.89728 8.89728C9.38912 6.40544 12.7677 5.00384 16.2917 5H47.7083C51.2323 5.00384 54.6109 6.40544 57.1027 8.89728C59.5946 11.3891 60.9962 14.7677 61 18.2917ZM22.3333 13.4583C22.3333 14.1753 22.5459 14.8761 22.9443 15.4723C23.3426 16.0684 23.9087 16.533 24.5711 16.8074C25.2335 17.0818 25.9624 17.1536 26.6655 17.0137C27.3687 16.8738 28.0146 16.5286 28.5216 16.0216C29.0286 15.5146 29.3738 14.8687 29.5137 14.1655C29.6536 13.4624 29.5818 12.7335 29.3074 12.0711C29.033 11.4087 28.5684 10.8426 27.9723 10.4443C27.3761 10.0459 26.6753 9.83333 25.9583 9.83333C24.9969 9.83333 24.0749 10.2153 23.3951 10.8951C22.7153 11.5749 22.3333 12.4969 22.3333 13.4583ZM10.25 13.4583C10.25 14.1753 10.4626 14.8761 10.8609 15.4723C11.2592 16.0684 11.8254 16.533 12.4878 16.8074C13.1502 17.0818 13.879 17.1536 14.5822 17.0137C15.2854 16.8738 15.9313 16.5286 16.4383 16.0216C16.9452 15.5146 17.2905 14.8687 17.4303 14.1655C17.5702 13.4624 17.4984 12.7335 17.2241 12.0711C16.9497 11.4087 16.4851 10.8426 15.8889 10.4443C15.2928 10.0459 14.592 9.83333 13.875 9.83333C12.9136 9.83333 11.9916 10.2153 11.3117 10.8951C10.6319 11.5749 10.25 12.4969 10.25 13.4583Z" fill="url(#paint0_linear_54_637)"/>
<path d="M16.1451 27.8117C15.4653 28.4916 15.0833 29.4136 15.0833 30.375C15.0833 31.3364 15.4653 32.2584 16.1451 32.9383C16.8249 33.6181 17.7469 34 18.7083 34H45.2917C46.253 34 47.1751 33.6181 47.8549 32.9383C48.5346 32.2584 48.9166 31.3364 48.9166 30.375C48.9166 29.4136 48.5346 28.4916 47.8549 27.8117C47.1751 27.1319 46.253 26.75 45.2917 26.75H18.7083C17.7469 26.75 16.8249 27.1319 16.1451 27.8117Z" fill="url(#paint1_linear_54_637)"/>
<path d="M35.625 46.0833H18.7083C17.7469 46.0833 16.8249 45.7014 16.1451 45.0216C15.4653 44.3418 15.0833 43.4197 15.0833 42.4583C15.0833 41.4969 15.4653 40.5749 16.1451 39.8951C16.8249 39.2153 17.7469 38.8333 18.7083 38.8333H35.625C36.5864 38.8333 37.5084 39.2153 38.1883 39.8951C38.8681 40.5749 39.25 41.4969 39.25 42.4583C39.25 43.4197 38.8681 44.3418 38.1883 45.0216C37.5084 45.7014 36.5864 46.0833 35.625 46.0833Z" fill="url(#paint2_linear_54_637)"/>
<defs>
<linearGradient id="paint0_linear_54_637" x1="32" y1="58.1667" x2="32" y2="5" gradientUnits="userSpaceOnUse">
<stop stop-color="#A93AFF"/>
<stop offset="1" stop-color="#FF81FF"/>
</linearGradient>
<linearGradient id="paint1_linear_54_637" x1="32" y1="58.1667" x2="32" y2="5" gradientUnits="userSpaceOnUse">
<stop stop-color="#A93AFF"/>
<stop offset="1" stop-color="#FF81FF"/>
</linearGradient>
<linearGradient id="paint2_linear_54_637" x1="32" y1="58.1667" x2="32" y2="5" gradientUnits="userSpaceOnUse">
<stop stop-color="#A93AFF"/>
<stop offset="1" stop-color="#FF81FF"/>
</linearGradient>
</defs>
</svg>
