<svg width="16" height="16" viewBox="0 0 16 16" fill="none" xmlns="http://www.w3.org/2000/svg">
<path d="M2.99121 1.01611C1.88664 1.01611 0.991211 1.91154 0.991211 3.01611V12.9844C0.991211 14.0889 1.88664 14.9844 2.99121 14.9844H6C7.10457 14.9844 8 14.0889 8 12.9844V3.01611C8 1.91154 7.10457 1.01611 6 1.01611H2.99121Z" fill="url(#paint0_linear_347_86)"/>
<path opacity="0.4" d="M11.1582 1.01611C10.0536 1.01611 9.1582 1.91154 9.1582 3.01611V12.9844C9.1582 14.0889 10.0536 14.9844 11.1582 14.9844H13.0088C14.1134 14.9844 15.0088 14.0889 15.0088 12.9844V3.01611C15.0088 1.91154 14.1134 1.01611 13.0088 1.01611H11.1582Z" fill="url(#paint1_linear_347_86)"/>
<defs>
<linearGradient id="paint0_linear_347_86" x1="0.991211" y1="14.9844" x2="10.3717" y2="10.2249" gradientUnits="userSpaceOnUse">
<stop stop-color="#731FFF"/>
<stop offset="0.905415" stop-color="#EB1AFF"/>
</linearGradient>
<linearGradient id="paint1_linear_347_86" x1="9.1582" y1="14.9844" x2="17.5068" y2="11.4484" gradientUnits="userSpaceOnUse">
<stop stop-color="#731FFF"/>
<stop offset="0.905415" stop-color="#EB1AFF"/>
</linearGradient>
</defs>
</svg>
