<svg width="16" height="16" viewBox="0 0 16 16" fill="none" xmlns="http://www.w3.org/2000/svg">
<g clip-path="url(#clip0_36_180)">
<g opacity="0.4">
<path d="M6 0.699951C5.55817 0.699951 5.2 1.05813 5.2 1.49995V1.66662C5.2 2.10845 5.55817 2.46662 6 2.46662H14.3333C14.7752 2.46662 15.1333 2.10842 15.1333 1.66662V1.49995C15.1333 1.05815 14.7752 0.699951 14.3333 0.699951H6Z" fill="url(#paint0_linear_36_180)"/>
<path d="M6 3.03328C5.55817 3.03328 5.2 3.39146 5.2 3.83328V3.99995C5.2 4.44178 5.55817 4.79995 6 4.79995H12C12.4418 4.79995 12.8 4.44179 12.8 3.99995V3.83328C12.8 3.39144 12.4418 3.03328 12 3.03328H6Z" fill="url(#paint1_linear_36_180)"/>
<path d="M6 7.69995C5.55817 7.69995 5.2 8.05813 5.2 8.49995V8.66662C5.2 9.10845 5.55817 9.46662 6 9.46662H14.3333C14.7752 9.46662 15.1333 9.10842 15.1333 8.66662V8.49995C15.1333 8.05815 14.7752 7.69995 14.3333 7.69995H6Z" fill="url(#paint2_linear_36_180)"/>
<path d="M6 10.0333C5.55816 10.0333 5.2 10.3915 5.2 10.8333V11C5.2 11.4417 5.55816 11.8 6 11.8H9.66667C10.1085 11.8 10.4667 11.4417 10.4667 11V10.8333C10.4667 10.3915 10.1085 10.0333 9.66667 10.0333H6Z" fill="url(#paint3_linear_36_180)"/>
<path d="M11.8333 10.0333C11.3915 10.0333 11.0333 10.3915 11.0333 10.8333V11C11.0333 11.4417 11.3915 11.8 11.8333 11.8H14.3333C14.7752 11.8 15.1333 11.4417 15.1333 11V10.8333C15.1333 10.3915 14.7752 10.0333 14.3333 10.0333H11.8333Z" fill="url(#paint4_linear_36_180)"/>
<path d="M13 13.5333C12.5582 13.5333 12.2 13.8915 12.2 14.3333V14.5C12.2 14.9417 12.5582 15.3 13 15.3H14.3333C14.7752 15.3 15.1333 14.9417 15.1333 14.5V14.3333C15.1333 13.8915 14.7752 13.5333 14.3333 13.5333H13Z" fill="url(#paint5_linear_36_180)"/>
</g>
<path d="M0.58579 1.58579C0.960859 1.21072 1.46957 1 2.00001 1C2.53044 1 3.03914 1.21072 3.41421 1.58579C3.7893 1.96086 4 2.46957 4 3.00001C4 3.53044 3.7893 4.03914 3.41421 4.41421C3.03914 4.7893 2.53044 5 2.00001 5C1.46957 5 0.960859 4.7893 0.58579 4.41421C0.21072 4.03914 0 3.53044 0 3.00001C0 2.46957 0.21072 1.96086 0.58579 1.58579Z" fill="url(#paint6_linear_36_180)"/>
<path d="M0.585797 8.5858C0.960871 8.21072 1.46959 8 2.00003 8C2.53048 8 3.03918 8.21072 3.41426 8.5858C3.78935 8.96087 4.00005 9.46959 4.00005 10C4.00005 10.5305 3.78935 11.0392 3.41426 11.4143C3.03918 11.7893 2.53048 12 2.00003 12C1.46959 12 0.960871 11.7893 0.585797 11.4143C0.210723 11.0392 0 10.5305 0 10C0 9.46959 0.210723 8.96087 0.585797 8.5858Z" fill="url(#paint7_linear_36_180)"/>
</g>
<defs>
<linearGradient id="paint0_linear_36_180" x1="5.5" y1="15" x2="17.8579" y2="11.4091" gradientUnits="userSpaceOnUse">
<stop stop-color="#0357D1"/>
<stop offset="1" stop-color="#27CDFC"/>
</linearGradient>
<linearGradient id="paint1_linear_36_180" x1="5.5" y1="15" x2="17.8579" y2="11.4091" gradientUnits="userSpaceOnUse">
<stop stop-color="#0357D1"/>
<stop offset="1" stop-color="#27CDFC"/>
</linearGradient>
<linearGradient id="paint2_linear_36_180" x1="5.5" y1="15" x2="17.8579" y2="11.4091" gradientUnits="userSpaceOnUse">
<stop stop-color="#0357D1"/>
<stop offset="1" stop-color="#27CDFC"/>
</linearGradient>
<linearGradient id="paint3_linear_36_180" x1="5.5" y1="15" x2="17.8579" y2="11.4091" gradientUnits="userSpaceOnUse">
<stop stop-color="#0357D1"/>
<stop offset="1" stop-color="#27CDFC"/>
</linearGradient>
<linearGradient id="paint4_linear_36_180" x1="5.5" y1="15" x2="17.8579" y2="11.4091" gradientUnits="userSpaceOnUse">
<stop stop-color="#0357D1"/>
<stop offset="1" stop-color="#27CDFC"/>
</linearGradient>
<linearGradient id="paint5_linear_36_180" x1="5.5" y1="15" x2="17.8579" y2="11.4091" gradientUnits="userSpaceOnUse">
<stop stop-color="#0357D1"/>
<stop offset="1" stop-color="#27CDFC"/>
</linearGradient>
<linearGradient id="paint6_linear_36_180" x1="-9.17293e-08" y1="5" x2="4.82652" y2="2.89629" gradientUnits="userSpaceOnUse">
<stop stop-color="#0357D1"/>
<stop offset="1" stop-color="#27CDFC"/>
</linearGradient>
<linearGradient id="paint7_linear_36_180" x1="-9.17305e-08" y1="12" x2="4.82656" y2="9.89625" gradientUnits="userSpaceOnUse">
<stop stop-color="#0357D1"/>
<stop offset="1" stop-color="#27CDFC"/>
</linearGradient>
<clipPath id="clip0_36_180">
<rect width="16" height="16" fill="white"/>
</clipPath>
</defs>
</svg>
