<svg width="24" height="24" viewBox="0 0 24 24" fill="none" xmlns="http://www.w3.org/2000/svg">
<path opacity="0.4" fill-rule="evenodd" clip-rule="evenodd" d="M11.9893 3.42007H12C13.5346 3.42007 15.0263 3.78828 16.4 4.48029L12.8156 8.09846C12.558 8.05514 12.279 8.02265 12 8.02265C9.62829 8.02265 7.70732 9.96115 7.70732 12.3545C7.70732 12.6361 7.73951 12.9176 7.78244 13.1775L3.81171 17.1845C2.73854 15.9283 1.80488 14.411 1.06439 12.6685C0.978537 12.4736 0.978537 12.2354 1.06439 12.0296C3.36098 6.63646 7.44976 3.42007 11.9893 3.42007ZM19.0722 6.35492C20.6283 7.78443 21.9483 9.71209 22.9356 12.0296C23.0215 12.2354 23.0215 12.4736 22.9356 12.6686C20.639 18.0617 16.5502 21.2889 12 21.2889H11.9893C9.91804 21.2889 7.93268 20.6067 6.18341 19.3613L9.58536 15.9283C10.2722 16.3929 11.1093 16.6755 12 16.6755C14.361 16.6755 16.2819 14.737 16.2819 12.3545C16.2819 11.4557 16.0029 10.6109 15.5415 9.91786L19.0722 6.35492Z" fill="url(#paint0_linear_11_173)"/>
<path fill-rule="evenodd" clip-rule="evenodd" d="M19.0724 6.35447L21.0256 4.38348C21.3475 4.06942 21.3475 3.5496 21.0256 3.23554C20.7144 2.92149 20.21 2.92149 19.888 3.23554L18.8792 4.25353C18.8685 4.27518 18.847 4.29684 18.8256 4.3185C18.8148 4.34016 18.7934 4.36182 18.7719 4.38348L17.8168 5.3484L14.4148 8.78138L2.89972 20.4004L2.86753 20.4438C2.65289 20.7578 2.69582 21.1921 2.96411 21.4628C3.11436 21.6242 3.32899 21.7 3.53289 21.7C3.7368 21.7 3.9407 21.6242 4.10167 21.4628L15.5417 9.9174L19.0724 6.35447ZM12.0003 15.0511C13.4706 15.0511 14.6725 13.8382 14.6725 12.3545C14.6725 11.8997 14.5652 11.4665 14.372 11.0983L10.7555 14.7478C11.1203 14.9428 11.5496 15.0511 12.0003 15.0511Z" fill="url(#paint1_linear_11_173)"/>
<defs>
<linearGradient id="paint0_linear_11_173" x1="22.9348" y1="3.53335" x2="5.55418" y2="24.7542" gradientUnits="userSpaceOnUse">
<stop stop-color="#FE7970"/>
<stop offset="1" stop-color="#DC3282"/>
</linearGradient>
<linearGradient id="paint1_linear_11_173" x1="21.2121" y1="3.11855" x2="2.66213" y2="21.3529" gradientUnits="userSpaceOnUse">
<stop stop-color="#FE7970"/>
<stop offset="1" stop-color="#DC3282"/>
</linearGradient>
</defs>
</svg>
