<svg width="24" height="24" viewBox="0 0 24 24" fill="none" xmlns="http://www.w3.org/2000/svg">
<path fill-rule="evenodd" clip-rule="evenodd" d="M7.51355 2.74474C7.75795 2.50034 8.08941 2.36304 8.43504 2.36304C8.78065 2.36304 9.11211 2.50034 9.35651 2.74474C9.60091 2.98912 9.73819 3.32058 9.73819 3.6662V4.96936C9.73677 6.23622 9.23295 7.45078 8.33715 8.34658C7.44136 9.24236 6.22679 9.74628 4.95996 9.74759H3.6568C3.31118 9.74759 2.97972 9.61031 2.73531 9.36592C2.49094 9.12154 2.35364 8.79008 2.35364 8.44445C2.35364 8.09884 2.49094 7.76738 2.73531 7.52298C2.97972 7.2786 3.31118 7.1413 3.6568 7.1413H4.95996C5.53598 7.1413 6.08842 6.91246 6.49574 6.50515C6.90305 6.09784 7.13188 5.54539 7.13188 4.96936V3.6662C7.13188 3.32058 7.26917 2.98912 7.51355 2.74474ZM20.1015 7.1413H18.7984C18.2224 7.1413 17.6699 6.91246 17.2625 6.50515C16.8552 6.09784 16.6264 5.54539 16.6264 4.96936V3.6662C16.6264 3.32058 16.4891 2.98912 16.2447 2.74474C16.0003 2.50034 15.6689 2.36304 15.3233 2.36304C14.9776 2.36304 14.6461 2.50034 14.4018 2.74474C14.1573 2.98912 14.02 3.32058 14.02 3.6662V4.96936C14.0215 6.23622 14.5254 7.45078 15.4211 8.34658C16.3169 9.24236 17.5315 9.74628 18.7984 9.74759H20.1015C20.447 9.74759 20.7787 9.61031 21.0229 9.36592C21.2673 9.12154 21.4047 8.79008 21.4047 8.44445C21.4047 8.09884 21.2673 7.76738 21.0229 7.52298C20.7787 7.2786 20.447 7.1413 20.1015 7.1413Z" fill="url(#paint0_linear_302_146)" stroke="url(#paint1_linear_302_146)"/>
<path d="M20.1015 13.0618H18.7984C17.3738 13.0632 16.0074 13.6299 15.0001 14.6371C13.9929 15.6444 13.4263 17.0108 13.4247 18.4352V19.7385C13.4247 20.242 13.6247 20.7247 13.9807 21.0808C14.3368 21.4371 14.8199 21.6369 15.3232 21.6369C15.8267 21.6369 16.3096 21.437 16.6658 21.0808C17.0217 20.7248 17.2217 20.242 17.2217 19.7385V18.4352C17.2217 18.0173 17.3878 17.6162 17.6834 17.3205C17.9791 17.0249 18.3802 16.8588 18.7984 16.8588H20.1015C20.6048 16.8588 21.088 16.6587 21.444 16.3025C21.8 15.9465 22.0001 15.4637 22.0001 14.9602C22.0001 14.4565 21.7998 13.9738 21.4439 13.6179C21.0879 13.2617 20.6048 13.0618 20.1015 13.0618Z" fill="url(#paint2_linear_302_146)"/>
<path opacity="0.4" d="M3.89857 13.0618H5.20166C6.62625 13.0632 7.99267 13.6299 8.99992 14.6371C10.0072 15.6444 10.5738 17.0108 10.5754 18.4352V19.7385C10.5754 20.242 10.3754 20.7247 10.0194 21.0808C9.66322 21.4371 9.18019 21.6369 8.67682 21.6369C8.17336 21.6369 7.69043 21.437 7.33427 21.0808C6.97841 20.7248 6.77838 20.242 6.77838 19.7385V18.4352C6.77838 18.0173 6.61229 17.6162 6.31663 17.3205C6.02092 17.0249 5.61983 16.8588 5.20166 16.8588H3.89857C3.3953 16.8588 2.91203 16.6587 2.55603 16.3025C2.2001 15.9465 2.00001 15.4637 2.00001 14.9602C2.00001 14.4565 2.20023 13.9738 2.55613 13.6179C2.91211 13.2617 3.39524 13.0618 3.89857 13.0618Z" fill="url(#paint3_linear_302_146)"/>
<defs>
<linearGradient id="paint0_linear_302_146" x1="5.80663" y1="18.8365" x2="22.6922" y2="3.80983" gradientUnits="userSpaceOnUse">
<stop stop-color="#FE0844"/>
<stop offset="1" stop-color="#FEB302"/>
</linearGradient>
<linearGradient id="paint1_linear_302_146" x1="5.80663" y1="18.8365" x2="22.6922" y2="3.80983" gradientUnits="userSpaceOnUse">
<stop stop-color="#FE0844"/>
<stop offset="1" stop-color="#FEB302"/>
</linearGradient>
<linearGradient id="paint2_linear_302_146" x1="5.80665" y1="18.8364" x2="22.6922" y2="3.80976" gradientUnits="userSpaceOnUse">
<stop stop-color="#FE0844"/>
<stop offset="1" stop-color="#FEB302"/>
</linearGradient>
<linearGradient id="paint3_linear_302_146" x1="18.1934" y1="18.8364" x2="1.30783" y2="3.80976" gradientUnits="userSpaceOnUse">
<stop stop-color="#FE0844"/>
<stop offset="1" stop-color="#FEB302"/>
</linearGradient>
</defs>
</svg>
