<svg width="24" height="24" viewBox="0 0 24 24" fill="none" xmlns="http://www.w3.org/2000/svg">
<path opacity="0.5" d="M1 12.35C1 7.94241 1 5.73862 2.6104 4.36884C4.223 3 6.8146 3 12 3C17.1854 3 19.7781 3 21.3885 4.36884C23 5.73955 23 7.94241 23 12.35C23 16.7576 23 18.9614 21.3885 20.3302C19.7792 21.7 17.1854 21.7 12 21.7C6.8146 21.7 4.2219 21.7 2.6104 20.3302C1 18.9623 1 16.7576 1 12.35Z" fill="url(#paint0_linear_11_152)"/>
<path d="M17.1667 12.5067C17.1667 12.8542 17.0625 13.203 16.8542 13.4824C16.8151 13.5372 16.6328 13.7631 16.4896 13.9101L16.4115 13.9903C15.3177 15.2079 12.5964 17.039 11.2161 17.6258C11.2161 17.6391 10.3958 17.988 10.0052 18H9.95312C9.35417 18 8.79427 17.6538 8.50781 17.0925C8.35156 16.7837 8.20833 15.8882 8.19531 15.8762C8.07813 15.0729 8 13.8433 8 12.4933C8 11.0779 8.07812 9.79344 8.22135 9.00486C8.22135 8.99149 8.36458 8.26974 8.45573 8.02916C8.59896 7.68299 8.85937 7.38761 9.1849 7.20049C9.44531 7.06817 9.71875 7 10.0052 7C10.3047 7.0147 10.8646 7.21385 11.0859 7.30741C12.5443 7.8955 15.3307 9.82017 16.3984 10.9964C16.5807 11.1835 16.776 11.412 16.8281 11.4642C17.0495 11.7582 17.1667 12.1191 17.1667 12.5067Z" fill="url(#paint1_linear_11_152)"/>
<defs>
<linearGradient id="paint0_linear_11_152" x1="12" y1="3" x2="12" y2="21.7" gradientUnits="userSpaceOnUse">
<stop stop-color="#FCBC18"/>
<stop offset="1" stop-color="#FF6F1E"/>
</linearGradient>
<linearGradient id="paint1_linear_11_152" x1="12.5833" y1="7" x2="12.5833" y2="18" gradientUnits="userSpaceOnUse">
<stop stop-color="#FCBC18"/>
<stop offset="1" stop-color="#FF6F1E"/>
</linearGradient>
</defs>
</svg>
