<svg width="24" height="24" viewBox="0 0 24 24" fill="none" xmlns="http://www.w3.org/2000/svg">
<path opacity="0.4" d="M2.6104 21.3885C4.223 23 6.8146 23 12 23C17.1854 23 19.7781 23 21.3885 21.3885C23 19.7792 23 17.1854 23 12C23 6.8146 23 4.2219 21.3885 2.6104C19.7792 1 17.1854 1 12 1C6.8146 1 4.2219 1 2.6104 2.6104C1 4.223 1 6.8146 1 12C1 17.1854 1 19.7781 2.6104 21.3885Z" fill="url(#paint0_linear_37_243)"/>
<path d="M19.2279 12.6447C19.4142 12.4399 19.6742 12.3176 19.9508 12.3045C20.2274 12.2915 20.4978 12.3888 20.7026 12.5751C20.9073 12.7615 21.0297 13.0215 21.0428 13.2981C21.0558 13.5746 20.9584 13.8451 20.7721 14.0498L17.2941 17.8757C17.1963 17.9833 17.0771 18.0692 16.9441 18.1281C16.8111 18.1869 16.6674 18.2173 16.522 18.2173C16.3766 18.2173 16.2328 18.1869 16.0998 18.1281C15.9668 18.0692 15.8476 17.9833 15.7498 17.8757L12.2718 14.0498C12.0855 13.8451 11.9881 13.5746 12.0012 13.2981C12.0142 13.0215 12.1366 12.7615 12.3414 12.5751C12.5461 12.3888 12.8165 12.2915 13.0931 12.3045C13.3697 12.3176 13.6297 12.4399 13.816 12.6447L15.4785 14.4742L15.4785 6.04339C15.4785 5.76666 15.5885 5.50126 15.7842 5.30559C15.9798 5.10991 16.2452 4.99998 16.522 4.99998C16.7987 4.99998 17.0641 5.10991 17.2598 5.30559C17.4554 5.50126 17.5654 5.76666 17.5654 6.04339V14.4742L19.2279 12.6447Z" fill="url(#paint1_linear_37_243)"/>
<path d="M8.3252 14.7354V10.9277C8.3252 10.6361 8.26595 10.3831 8.14746 10.1689C8.03353 9.9502 7.86035 9.78158 7.62793 9.66309C7.39551 9.5446 7.1084 9.48535 6.7666 9.48535C6.44759 9.48535 6.16732 9.54004 5.92578 9.64941C5.6888 9.75879 5.50195 9.90234 5.36523 10.0801C5.23307 10.2578 5.16699 10.4492 5.16699 10.6543H3.90234C3.90234 10.39 3.9707 10.1279 4.10742 9.86816C4.24414 9.6084 4.4401 9.3737 4.69531 9.16406C4.95508 8.94987 5.26497 8.78125 5.625 8.6582C5.98958 8.5306 6.39518 8.4668 6.8418 8.4668C7.37956 8.4668 7.85352 8.55794 8.26367 8.74023C8.67839 8.92253 9.00195 9.19824 9.23438 9.56738C9.47135 9.93197 9.58984 10.39 9.58984 10.9414V14.3867C9.58984 14.6328 9.61035 14.8949 9.65137 15.1729C9.69694 15.4508 9.76302 15.6901 9.84961 15.8906V16H8.53027C8.46647 15.8542 8.41634 15.6605 8.37988 15.4189C8.34342 15.1729 8.3252 14.945 8.3252 14.7354ZM8.54395 11.5156L8.55762 12.4043H7.2793C6.91927 12.4043 6.59798 12.4339 6.31543 12.4932C6.03288 12.5479 5.7959 12.6322 5.60449 12.7461C5.41309 12.86 5.26725 13.0036 5.16699 13.1768C5.06673 13.3454 5.0166 13.5436 5.0166 13.7715C5.0166 14.0039 5.06901 14.2158 5.17383 14.4072C5.27865 14.5986 5.43587 14.7513 5.64551 14.8652C5.8597 14.9746 6.12174 15.0293 6.43164 15.0293C6.81901 15.0293 7.16081 14.9473 7.45703 14.7832C7.75326 14.6191 7.98796 14.4186 8.16113 14.1816C8.33887 13.9447 8.43457 13.7145 8.44824 13.4912L8.98828 14.0996C8.95638 14.291 8.86979 14.5029 8.72852 14.7354C8.58724 14.9678 8.39811 15.1911 8.16113 15.4053C7.92871 15.6149 7.65072 15.7904 7.32715 15.9316C7.00814 16.0684 6.64811 16.1367 6.24707 16.1367C5.74577 16.1367 5.30599 16.0387 4.92773 15.8428C4.55404 15.6468 4.26237 15.3848 4.05273 15.0566C3.84766 14.724 3.74512 14.3525 3.74512 13.9424C3.74512 13.5459 3.82259 13.1973 3.97754 12.8965C4.13249 12.5911 4.35579 12.3382 4.64746 12.1377C4.93913 11.9326 5.29004 11.7777 5.7002 11.6729C6.11035 11.568 6.56836 11.5156 7.07422 11.5156H8.54395Z" fill="url(#paint2_linear_37_243)"/>
<path d="M8.14746 10.1689L7.79258 10.3538L7.79745 10.3626L8.14746 10.1689ZM5.92578 9.64941L5.76077 9.28502L5.75816 9.28623L5.92578 9.64941ZM5.36523 10.0801L5.04814 9.83616L5.04425 9.8414L5.36523 10.0801ZM5.16699 10.6543V11.0543H5.56699V10.6543H5.16699ZM3.90234 10.6543H3.50234V11.0543H3.90234V10.6543ZM4.69531 9.16406L4.94921 9.47315L4.94979 9.47268L4.69531 9.16406ZM5.625 8.6582L5.75437 9.03672L5.75714 9.03575L5.625 8.6582ZM8.26367 8.74023L8.10122 9.10576L8.10271 9.10642L8.26367 8.74023ZM9.23438 9.56738L8.89585 9.78053L8.899 9.78538L9.23438 9.56738ZM9.65137 15.1729L9.2556 15.2312L9.25664 15.2376L9.65137 15.1729ZM9.84961 15.8906H10.2496V15.808L10.2168 15.7321L9.84961 15.8906ZM9.84961 16V16.4H10.2496V16H9.84961ZM8.53027 16L8.16381 16.1603L8.26867 16.4H8.53027V16ZM8.37988 15.4189L7.9842 15.4776L7.98436 15.4786L8.37988 15.4189ZM8.54395 11.5156L8.9439 11.5095L8.93784 11.1156H8.54395V11.5156ZM8.55762 12.4043V12.8043H8.96382L8.95757 12.3981L8.55762 12.4043ZM6.31543 12.4932L6.39145 12.8859L6.39752 12.8847L6.31543 12.4932ZM5.16699 13.1768L5.51083 13.3812L5.51316 13.3772L5.16699 13.1768ZM5.64551 14.8652L5.45444 15.2168L5.4636 15.2215L5.64551 14.8652ZM8.16113 14.1816L7.84111 13.9416L7.83818 13.9456L8.16113 14.1816ZM8.44824 13.4912L8.74739 13.2257L8.10786 12.5052L8.04899 13.4668L8.44824 13.4912ZM8.98828 14.0996L9.38284 14.1654L9.41424 13.9769L9.28743 13.8341L8.98828 14.0996ZM8.16113 15.4053L8.42904 15.7023L8.42935 15.702L8.16113 15.4053ZM7.32715 15.9316L7.48472 16.2993L7.48721 16.2982L7.32715 15.9316ZM4.92773 15.8428L4.74197 16.197L4.74373 16.1979L4.92773 15.8428ZM4.05273 15.0566L3.71219 15.2666L3.71566 15.272L4.05273 15.0566ZM3.97754 12.8965L4.33314 13.0797L4.33424 13.0775L3.97754 12.8965ZM4.64746 12.1377L4.87409 12.4673L4.87753 12.4649L4.64746 12.1377ZM8.7252 14.7354V10.9277H7.9252V14.7354H8.7252ZM8.7252 10.9277C8.7252 10.5813 8.6545 10.2592 8.49747 9.97532L7.79745 10.3626C7.8774 10.5071 7.9252 10.6908 7.9252 10.9277H8.7252ZM8.50223 9.98417C8.34756 9.68722 8.11163 9.4607 7.8096 9.30672L7.44625 10.0194C7.60907 10.1025 7.71949 10.2132 7.7927 10.3537L8.50223 9.98417ZM7.8096 9.30672C7.50623 9.15206 7.15269 9.08535 6.7666 9.08535V9.88535C7.06411 9.88535 7.28479 9.93713 7.44625 10.0194L7.8096 9.30672ZM6.7666 9.08535C6.40204 9.08535 6.06359 9.14791 5.76078 9.28503L6.09078 10.0138C6.27104 9.93217 6.49314 9.88535 6.7666 9.88535V9.08535ZM5.75816 9.28623C5.47211 9.41825 5.23034 9.59939 5.04818 9.83619L5.68228 10.324C5.77356 10.2053 5.90549 10.0993 6.0934 10.0126L5.75816 9.28623ZM5.04425 9.8414C4.86513 10.0823 4.76699 10.3562 4.76699 10.6543H5.56699C5.56699 10.5422 5.60101 10.4333 5.68622 10.3188L5.04425 9.8414ZM5.16699 10.2543H3.90234V11.0543H5.16699V10.2543ZM4.30234 10.6543C4.30234 10.4618 4.35151 10.2632 4.46139 10.0545L3.75345 9.68187C3.5899 9.99262 3.50234 10.3181 3.50234 10.6543H4.30234ZM4.46139 10.0545C4.57035 9.84745 4.73006 9.65317 4.94921 9.47315L4.44142 8.85497C4.15015 9.09423 3.91794 9.36935 3.75345 9.68187L4.46139 10.0545ZM4.94979 9.47268C5.16789 9.29284 5.43403 9.14619 5.75436 9.03671L5.49564 8.2797C5.09592 8.41631 4.74227 8.6069 4.44084 8.85545L4.94979 9.47268ZM5.75714 9.03575C6.07319 8.92513 6.43328 8.8668 6.8418 8.8668V8.0668C6.35709 8.0668 5.90597 8.13607 5.49286 8.28066L5.75714 9.03575ZM6.8418 8.8668C7.33449 8.8668 7.7513 8.95024 8.10122 9.10576L8.42613 8.37471C7.95573 8.16564 7.42463 8.0668 6.8418 8.0668V8.8668ZM8.10271 9.10642C8.44727 9.25788 8.70773 9.48168 8.89588 9.78051L9.57287 9.35426C9.29618 8.91481 8.9095 8.58718 8.42463 8.37405L8.10271 9.10642ZM8.899 9.78538C9.08381 10.0697 9.18984 10.4467 9.18984 10.9414H9.98984C9.98984 10.3332 9.8589 9.79423 9.56975 9.34939L8.899 9.78538ZM9.18984 10.9414V14.3867H9.98984V10.9414H9.18984ZM9.18984 14.3867C9.18984 14.6549 9.21218 14.9366 9.25565 15.2312L10.0471 15.1145C10.0085 14.8531 9.98984 14.6108 9.98984 14.3867H9.18984ZM9.25664 15.2376C9.30606 15.5391 9.37971 15.8114 9.48238 16.0492L10.2168 15.7321C10.1463 15.5688 10.0878 15.3626 10.0461 15.1081L9.25664 15.2376ZM9.44961 15.8906V16H10.2496V15.8906H9.44961ZM9.84961 15.6H8.53027V16.4H9.84961V15.6ZM8.89674 15.8397C8.85236 15.7382 8.8091 15.5825 8.7754 15.3592L7.98436 15.4786C8.02358 15.7385 8.08058 15.9701 8.16381 16.1603L8.89674 15.8397ZM8.77556 15.3603C8.74147 15.1302 8.7252 14.9221 8.7252 14.7354H7.9252C7.9252 14.9678 7.94538 15.2155 7.9842 15.4776L8.77556 15.3603ZM8.14399 11.5218L8.15766 12.4104L8.95757 12.3981L8.9439 11.5095L8.14399 11.5218ZM8.55762 12.0043H7.2793V12.8043H8.55762V12.0043ZM7.2793 12.0043C6.89814 12.0043 6.54855 12.0356 6.23334 12.1017L6.39752 12.8847C6.64742 12.8323 6.9404 12.8043 7.2793 12.8043V12.0043ZM6.23942 12.1005C5.92407 12.1615 5.6407 12.259 5.3999 12.4024L5.80909 13.0898C5.95109 13.0053 6.14168 12.9342 6.39144 12.8859L6.23942 12.1005ZM5.3999 12.4024C5.15662 12.5472 4.95902 12.7376 4.82082 12.9763L5.51316 13.3772C5.57549 13.2695 5.66955 13.1729 5.80909 13.0898L5.3999 12.4024ZM4.82318 12.9723C4.68055 13.2122 4.6166 13.4834 4.6166 13.7715H5.4166C5.4166 13.6038 5.45291 13.4786 5.51081 13.3812L4.82318 12.9723ZM4.6166 13.7715C4.6166 14.0666 4.68382 14.3452 4.82299 14.5994L5.52467 14.2151C5.4542 14.0864 5.4166 13.9413 5.4166 13.7715H4.6166ZM4.82299 14.5994C4.96811 14.8644 5.18395 15.0696 5.4545 15.2167L5.83651 14.5138C5.6878 14.433 5.58918 14.3329 5.52467 14.2151L4.82299 14.5994ZM5.4636 15.2215C5.74799 15.3667 6.07618 15.4293 6.43164 15.4293V14.6293C6.16731 14.6293 5.97141 14.5825 5.82742 14.509L5.4636 15.2215ZM6.43164 15.4293C6.87693 15.4293 7.28722 15.3345 7.65083 15.1331L7.26323 14.4333C7.0344 14.56 6.76109 14.6293 6.43164 14.6293V15.4293ZM7.65083 15.1331C7.99008 14.9452 8.27175 14.7082 8.48409 14.4176L7.83818 13.9456C7.70416 14.129 7.51643 14.2931 7.26323 14.4333L7.65083 15.1331ZM8.48113 14.4216C8.69087 14.142 8.82772 13.8386 8.84749 13.5157L8.04899 13.4668C8.04142 13.5904 7.98687 13.7473 7.84113 13.9416L8.48113 14.4216ZM8.14909 13.7567L8.68913 14.3651L9.28743 13.8341L8.74739 13.2257L8.14909 13.7567ZM8.59372 14.0338C8.57284 14.1592 8.51137 14.3225 8.38671 14.5276L9.07032 14.9431C9.22821 14.6834 9.33992 14.4229 9.38284 14.1654L8.59372 14.0338ZM8.38671 14.5276C8.26867 14.7218 8.10606 14.9159 7.89292 15.1085L8.42935 15.702C8.69017 15.4663 8.90581 15.2138 9.07032 14.9431L8.38671 14.5276ZM7.89323 15.1082C7.69658 15.2856 7.45619 15.4388 7.16709 15.5651L7.48721 16.2982C7.84525 16.1419 8.16084 15.9442 8.42904 15.7023L7.89323 15.1082ZM7.16958 15.564C6.9075 15.6763 6.60229 15.7367 6.24707 15.7367V16.5367C6.69393 16.5367 7.10877 16.4604 7.48472 16.2993L7.16958 15.564ZM6.24707 15.7367C5.79851 15.7367 5.42388 15.6493 5.11174 15.4876L4.74373 16.1979C5.1881 16.4282 5.69303 16.5367 6.24707 16.5367V15.7367ZM5.1135 15.4885C4.79615 15.3221 4.55885 15.1059 4.38981 14.8413L3.71566 15.272C3.96589 15.6637 4.31192 15.9715 4.74197 16.197L5.1135 15.4885ZM4.39324 14.8467C4.22902 14.5804 4.14512 14.2823 4.14512 13.9424H3.34512C3.34512 14.4228 3.46629 14.8676 3.71223 15.2665L4.39324 14.8467ZM4.14512 13.9424C4.14512 13.5987 4.21199 13.3148 4.33313 13.0797L3.62195 12.7133C3.43319 13.0797 3.34512 13.4931 3.34512 13.9424H4.14512ZM4.33424 13.0775C4.45788 12.8338 4.63558 12.6313 4.87407 12.4673L4.42085 11.8081C4.07601 12.0452 3.80709 12.3484 3.62084 12.7155L4.33424 13.0775ZM4.87753 12.4649C5.12287 12.2924 5.42745 12.1554 5.79923 12.0604L5.60116 11.2853C5.15263 11.3999 4.75538 11.5728 4.41739 11.8105L4.87753 12.4649ZM5.79923 12.0604C6.17147 11.9653 6.59549 11.9156 7.07422 11.9156V11.1156C6.54123 11.1156 6.04923 11.1708 5.60116 11.2853L5.79923 12.0604ZM7.07422 11.9156H8.54395V11.1156H7.07422V11.9156Z" fill="url(#paint3_linear_37_243)"/>
<defs>
<linearGradient id="paint0_linear_37_243" x1="22.9348" y1="1.13947" x2="1.10885" y2="22.7838" gradientUnits="userSpaceOnUse">
<stop stop-color="#FE7970"/>
<stop offset="1" stop-color="#DC3282"/>
</linearGradient>
<linearGradient id="paint1_linear_37_243" x1="12.0268" y1="18.1335" x2="24.2122" y2="9.86504" gradientUnits="userSpaceOnUse">
<stop stop-color="#FE7970"/>
<stop offset="1" stop-color="#DC3282"/>
</linearGradient>
<linearGradient id="paint2_linear_37_243" x1="10.9763" y1="3.12045" x2="-2.42848" y2="8.71759" gradientUnits="userSpaceOnUse">
<stop stop-color="#FE7970"/>
<stop offset="1" stop-color="#DC3282"/>
</linearGradient>
<linearGradient id="paint3_linear_37_243" x1="10.9763" y1="3.12045" x2="-2.42848" y2="8.71759" gradientUnits="userSpaceOnUse">
<stop stop-color="#FE7970"/>
<stop offset="1" stop-color="#DC3282"/>
</linearGradient>
</defs>
</svg>
