<svg width="24" height="24" viewBox="0 0 24 24" fill="none" xmlns="http://www.w3.org/2000/svg">
<path opacity="0.4" d="M23.0001 17.3925V7.54738C23.0001 6.56822 22.5213 5.62917 21.6692 4.9368C20.817 4.24444 19.6613 3.85547 18.4562 3.85547C18.2553 3.85547 18.0627 3.9203 17.9207 4.03569C17.7786 4.15108 17.6989 4.30759 17.6989 4.47079V20.4691C17.6989 20.6323 17.7786 20.7888 17.9207 20.9042C18.0627 21.0196 18.2553 21.0844 18.4562 21.0844C19.6613 21.0844 20.817 20.6955 21.6692 20.0031C22.5213 19.3107 23.0001 18.3717 23.0001 17.3925Z" fill="url(#paint0_linear_101_67)"/>
<path opacity="0.4" d="M1 17.3925V7.54738C1 6.56822 1.47873 5.62917 2.33088 4.9368C3.18302 4.24444 4.33878 3.85547 5.54389 3.85547C5.74474 3.85547 5.93737 3.9203 6.07939 4.03569C6.22142 4.15108 6.3012 4.30759 6.3012 4.47079V20.4691C6.3012 20.6323 6.22142 20.7888 6.07939 20.9042C5.93737 21.0196 5.74474 21.0844 5.54389 21.0844C4.33878 21.0844 3.18302 20.6955 2.33088 20.0031C1.47873 19.3107 1 18.3717 1 17.3925Z" fill="url(#paint1_linear_101_67)"/>
<path d="M11.4036 22.4096C8.65412 22.4096 7.28084 22.4096 6.42656 21.5553C5.57227 20.7011 5.57227 19.3278 5.57227 16.5783V7.83133C5.57227 5.08186 5.57227 3.70858 6.42656 2.85429C7.28084 2 8.65412 2 11.4036 2H12.8614C15.6109 2 16.9842 2 17.8385 2.85429C18.6927 3.70858 18.6927 5.08186 18.6927 7.83133V16.5783C18.6927 19.3278 18.6927 20.7011 17.8385 21.5553C16.9842 22.4096 15.6109 22.4096 12.8614 22.4096H11.4036Z" fill="url(#paint2_linear_101_67)"/>
<defs>
<linearGradient id="paint0_linear_101_67" x1="20.3495" y1="21.0844" x2="20.3495" y2="3.85547" gradientUnits="userSpaceOnUse">
<stop stop-color="#5570FF"/>
<stop offset="1" stop-color="#4DD3FF"/>
</linearGradient>
<linearGradient id="paint1_linear_101_67" x1="3.6506" y1="21.0844" x2="3.6506" y2="3.85547" gradientUnits="userSpaceOnUse">
<stop stop-color="#5570FF"/>
<stop offset="1" stop-color="#4DD3FF"/>
</linearGradient>
<linearGradient id="paint2_linear_101_67" x1="12.1325" y1="22.4096" x2="12.1325" y2="2" gradientUnits="userSpaceOnUse">
<stop stop-color="#5570FF"/>
<stop offset="1" stop-color="#4DD3FF"/>
</linearGradient>
</defs>
</svg>
