<svg width="64" height="64" viewBox="0 0 64 64" fill="none" xmlns="http://www.w3.org/2000/svg">
<path fill-rule="evenodd" clip-rule="evenodd" d="M35.0509 11.1983C23.5685 9.5086 12.8905 17.4472 11.2008 28.9295C10.975 30.6707 9.5013 31.9797 7.7457 31.9987C7.57055 31.9965 7.3959 31.9814 7.22305 31.9533C5.3042 31.6411 4.00163 29.8324 4.31378 27.9134C5.1055 22.5005 7.46775 17.4388 11.1079 13.3552C21.383 1.82837 39.0571 0.81366 50.584 11.0888L53.6065 8.0661C54.0425 7.63035 54.6335 7.38545 55.25 7.38535C56.534 7.38515 57.5755 8.4259 57.5755 9.71V20.3731C57.5755 21.6573 56.535 22.6982 55.2505 22.6982H44.5876C43.9712 22.6981 43.3801 22.4532 42.9442 22.0175C42.036 21.1096 42.0358 19.6373 42.9437 18.7292L45.6524 16.0205C42.6434 13.4463 38.9684 11.7748 35.0509 11.1983Z" fill="url(#paint0_linear_18_86)"/>
<path d="M11.2008 28.9295L10.7061 28.8568L10.7055 28.861L10.7049 28.8652L11.2008 28.9295ZM7.7457 31.9987L7.73945 32.4987L7.74525 32.4988L7.7511 32.4987L7.7457 31.9987ZM4.31378 27.9134L4.8073 27.9937L4.80794 27.9897L4.80852 27.9858L4.31378 27.9134ZM50.584 11.0888L50.251 11.462L50.6035 11.7761L50.9375 11.4423L50.584 11.0888ZM45.6523 16.0205L46.0059 16.374L46.3881 15.9919L45.9774 15.6405L45.6523 16.0205ZM11.6954 29.0023C13.3449 17.7932 23.7689 10.0435 34.978 11.693L35.1236 10.7036C23.3681 8.97376 12.436 17.1012 10.7061 28.8568L11.6954 29.0023ZM7.7511 32.4987C9.7559 32.477 11.4387 30.9821 11.6966 28.9939L10.7049 28.8652C10.5111 30.3592 9.24665 31.4825 7.7403 31.4987L7.7511 32.4987ZM7.1428 32.4468C7.34025 32.4789 7.5396 32.4962 7.73945 32.4987L7.7519 31.4988C7.60145 31.4969 7.4516 31.4839 7.30335 31.4598L7.1428 32.4468ZM3.82027 27.8331C3.46379 30.0247 4.95132 32.0903 7.1428 32.4468L7.30335 31.4598C5.65705 31.1919 4.53948 29.6402 4.8073 27.9937L3.82027 27.8331ZM10.7347 13.0225C7.0294 17.1791 4.62491 22.3314 3.81905 27.8411L4.80852 27.9858C5.58605 22.6697 7.9061 17.6985 11.4811 13.6879L10.7347 13.0225ZM50.9165 10.7155C39.1836 0.256683 21.1935 1.28953 10.7347 13.0225L11.4811 13.6879C21.5725 2.36721 38.9304 1.37065 50.251 11.462L50.9165 10.7155ZM53.253 7.71251L50.2305 10.7352L50.9375 11.4423L53.9605 8.41971L53.253 7.71251ZM55.25 6.88536C54.501 6.88551 53.783 7.18306 53.253 7.71251L53.9605 8.41971C54.303 8.07771 54.7665 7.88546 55.25 7.88536V6.88536ZM58.0755 9.71001C58.0755 8.14976 56.81 6.88511 55.25 6.88536V7.88536C56.258 7.88521 57.0755 8.70216 57.0755 9.71016L58.0755 9.71001ZM58.0755 20.3731V9.71001L57.0755 9.71016V20.3731H58.0755ZM55.2505 23.1982C56.811 23.1982 58.0755 21.9334 58.0755 20.3731H57.0755C57.0755 21.3811 56.2585 22.1982 55.2505 22.1982V23.1982ZM44.5874 23.1982H55.2505V22.1982H44.5875L44.5874 23.1982ZM42.5906 22.3711C43.1202 22.9005 43.8385 23.1981 44.5874 23.1982L44.5875 22.1982C44.1038 22.1981 43.6398 22.0059 43.2977 21.6639L42.5906 22.3711ZM42.5901 18.3757C41.4869 19.4791 41.4871 21.268 42.5906 22.3711L43.2977 21.6639C42.5848 20.9512 42.5846 19.7955 43.2972 19.0827L42.5901 18.3757ZM45.2988 15.6669L42.5901 18.3757L43.2972 19.0827L46.0059 16.374L45.2988 15.6669ZM34.978 11.693C38.8024 12.2557 42.3899 13.8875 45.3273 16.4004L45.9774 15.6405C42.8968 13.0052 39.1344 11.2938 35.1236 10.7036L34.978 11.693Z" fill="url(#paint1_linear_18_86)"/>
<path opacity="0.4" d="M55.8297 29C54.0742 29.019 52.6007 30.328 52.3747 32.0691C50.6852 43.5515 40.007 51.4899 28.5247 49.8004C24.6071 49.2239 20.9322 47.5524 17.9231 44.9783L20.6319 42.2696C21.5398 41.3615 21.5396 39.8892 20.6313 38.9813C20.1955 38.5456 19.6043 38.3007 18.988 38.3006H8.3251C7.04095 38.3006 6 39.3415 6 40.6256V51.2888C6.0003 52.5728 7.0415 53.6133 8.32565 53.6133C8.942 53.6133 9.53315 53.3683 9.969 52.9328L12.9917 49.9099C24.5158 60.1864 42.1885 59.1748 52.4647 47.6503C56.1067 43.566 58.4702 38.5026 59.2617 33.0877C59.5752 31.1689 58.2737 29.3593 56.3552 29.0459C56.1817 29.0174 56.0057 29.0021 55.8297 29Z" fill="url(#paint2_linear_18_86)"/>
<defs>
<linearGradient id="paint0_linear_18_86" x1="3.4659" y1="4.55103" x2="61.2105" y2="63.4925" gradientUnits="userSpaceOnUse">
<stop stop-color="#F9D423"/>
<stop offset="0.515624" stop-color="#FF4E50"/>
<stop offset="0.991304" stop-color="#8A2387"/>
</linearGradient>
<linearGradient id="paint1_linear_18_86" x1="3.4659" y1="4.55104" x2="61.2105" y2="63.4925" gradientUnits="userSpaceOnUse">
<stop stop-color="#F9D423"/>
<stop offset="0.515624" stop-color="#FF4E50"/>
<stop offset="0.991304" stop-color="#8A2387"/>
</linearGradient>
<linearGradient id="paint2_linear_18_86" x1="3.04355" y1="1.55286" x2="60.7882" y2="60.4943" gradientUnits="userSpaceOnUse">
<stop stop-color="#F9D423"/>
<stop offset="0.515624" stop-color="#FF4E50"/>
<stop offset="0.991304" stop-color="#8A2387"/>
</linearGradient>
</defs>
</svg>
