<svg width="32" height="32" viewBox="0 0 32 32" fill="none" xmlns="http://www.w3.org/2000/svg">
<path d="M9.38284 7H2.82032C2.3669 7 2 7.3669 2 7.82032V14.3828C2 14.8363 2.3669 15.2032 2.82032 15.2032H9.38284C9.83626 15.2032 10.2032 14.8363 10.2032 14.3828V7.82032C10.2032 7.3669 9.83626 7 9.38284 7ZM19.2812 7H12.7187C12.2653 7 11.8984 7.3669 11.8984 7.82032V14.3828C11.8984 14.8363 12.2653 15.2032 12.7187 15.2032H19.2812C19.7347 15.2032 20.1015 14.8363 20.1015 14.3828V7.82032C20.1015 7.3669 19.7347 7 19.2812 7ZM29.1797 7H22.6172C22.1638 7 21.7968 7.3669 21.7968 7.82032V14.3828C21.7968 14.8363 22.1638 15.2032 22.6172 15.2032H29.1797C29.6332 15.2032 30 14.8363 30 14.3828V7.82032C30 7.3669 29.6332 7 29.1797 7Z" fill="url(#paint0_linear_54_618)"/>
<path opacity="0.4" d="M9.38284 16.8438H2.82032C2.3669 16.8438 2 17.2106 2 17.6641V24.2266C2 24.6801 2.3669 25.0469 2.82032 25.0469H9.38284C9.83626 25.0469 10.2032 24.6801 10.2032 24.2266V17.6641C10.2032 17.2106 9.83626 16.8438 9.38284 16.8438ZM19.2812 16.8438H12.7187C12.2653 16.8438 11.8984 17.2106 11.8984 17.6641V24.2266C11.8984 24.6801 12.2653 25.0469 12.7187 25.0469H19.2812C19.7347 25.0469 20.1015 24.6801 20.1015 24.2266V17.6641C20.1015 17.2106 19.7347 16.8438 19.2812 16.8438ZM29.1797 16.8438H22.6172C22.1638 16.8438 21.7968 17.2106 21.7968 17.6641V24.2266C21.7968 24.6801 22.1638 25.0469 22.6172 25.0469H29.1797C29.6332 25.0469 30 24.6801 30 24.2266V17.6641C30 17.2106 29.6332 16.8438 29.1797 16.8438Z" fill="url(#paint1_linear_54_618)"/>
<defs>
<linearGradient id="paint0_linear_54_618" x1="2.0041" y1="10.98" x2="30.0047" y2="10.98" gradientUnits="userSpaceOnUse">
<stop stop-color="#A93AFF"/>
<stop offset="1" stop-color="#FF81FF"/>
</linearGradient>
<linearGradient id="paint1_linear_54_618" x1="2.0041" y1="20.8238" x2="30.0047" y2="20.8238" gradientUnits="userSpaceOnUse">
<stop stop-color="#A93AFF"/>
<stop offset="1" stop-color="#FF81FF"/>
</linearGradient>
</defs>
</svg>
