<svg width="24" height="24" viewBox="0 0 24 24" fill="none" xmlns="http://www.w3.org/2000/svg">
<path opacity="0.4" d="M12 23C6.8146 23 4.2219 23 2.6104 21.3885C1 19.7792 1 17.1854 1 12C1 6.8146 1 4.2219 2.6104 2.6104C4.223 1 6.8146 1 12 1C17.1854 1 19.7781 1 21.3885 2.6104C23 4.223 23 6.8146 23 12C23 17.1854 23 19.7781 21.3885 21.3885C19.7792 23 17.1854 23 12 23Z" fill="url(#paint0_linear_8_241)"/>
<path d="M12.5 5C12.7595 5 13.0083 5.0878 13.1917 5.24408C13.3752 5.40036 13.4783 5.61232 13.4783 5.83333V19.1667C13.4783 19.3877 13.3752 19.5996 13.1917 19.7559C13.0083 19.9122 12.7595 20 12.5 20C12.2405 20 11.9917 19.9122 11.8083 19.7559C11.6248 19.5996 11.5217 19.3877 11.5217 19.1667V5.83333C11.5217 5.61232 11.6248 5.40036 11.8083 5.24408C11.9917 5.0878 12.2405 5 12.5 5ZM5.97826 8.33333C6.23771 8.33333 6.48654 8.42113 6.67 8.57741C6.85346 8.73369 6.95652 8.94565 6.95652 9.16667V19.1667C6.95652 19.3877 6.85346 19.5996 6.67 19.7559C6.48654 19.9122 6.23771 20 5.97826 20C5.71881 20 5.46999 19.9122 5.28653 19.7559C5.10307 19.5996 5 19.3877 5 19.1667V9.16667C5 8.94565 5.10307 8.73369 5.28653 8.57741C5.46999 8.42113 5.71881 8.33333 5.97826 8.33333ZM19.0217 12.7778C19.2812 12.7778 19.53 12.8656 19.7135 13.0219C19.8969 13.1781 20 13.3901 20 13.6111V19.1667C20 19.3877 19.8969 19.5996 19.7135 19.7559C19.53 19.9122 19.2812 20 19.0217 20C18.7623 20 18.5135 19.9122 18.33 19.7559C18.1465 19.5996 18.0435 19.3877 18.0435 19.1667V13.6111C18.0435 13.3901 18.1465 13.1781 18.33 13.0219C18.5135 12.8656 18.7623 12.7778 19.0217 12.7778Z" fill="url(#paint1_linear_8_241)"/>
<defs>
<linearGradient id="paint0_linear_8_241" x1="0.682006" y1="1.21648" x2="23.3621" y2="24.5905" gradientUnits="userSpaceOnUse">
<stop stop-color="#F9D423"/>
<stop offset="0.515624" stop-color="#FF4E50"/>
<stop offset="0.991304" stop-color="#8A2387"/>
</linearGradient>
<linearGradient id="paint1_linear_8_241" x1="4.78319" y1="5.1476" x2="20.2469" y2="21.0844" gradientUnits="userSpaceOnUse">
<stop stop-color="#F9D423"/>
<stop offset="0.515624" stop-color="#FF4E50"/>
<stop offset="0.991304" stop-color="#8A2387"/>
</linearGradient>
</defs>
</svg>
