<svg width="24" height="24" viewBox="0 0 24 24" fill="none" xmlns="http://www.w3.org/2000/svg">
<path d="M23 14.9725V16.4944C23 16.7469 22.989 17.0017 22.967 17.2542C22.6583 20.7292 20.2445 22.9999 16.7615 22.9999H7.23846C5.47493 22.9999 3.98696 22.4275 2.91782 21.3898C2.49898 21.0049 2.14628 20.5528 1.87073 20.0344C2.23445 19.5922 2.64227 19.1081 3.03906 18.6228C3.71141 17.8178 4.36171 17.0226 4.76952 16.5054C5.37574 15.7555 6.97393 13.7815 9.18936 14.7078C9.64127 14.8953 10.0381 15.16 10.4018 15.3916C11.2946 15.9871 11.6694 16.1635 12.2976 15.8217C12.992 15.4467 13.4439 14.7078 13.9179 13.9359C14.1714 13.5267 14.4249 13.1308 14.7004 12.7669C15.9018 11.2009 17.7535 10.7818 19.2966 11.7082C20.0682 12.1713 20.7295 12.7558 21.3467 13.3503C21.479 13.4826 21.6112 13.605 21.7325 13.7263C21.8978 13.8917 22.4489 14.4431 23 14.9725Z" fill="url(#paint0_linear_295_67)"/>
<path opacity="0.4" d="M16.7725 1H7.23848C3.502 1 1 3.61368 1 7.50552V16.4946C1 17.85 1.30862 19.0531 1.87074 20.0346C2.23447 19.5924 2.64228 19.1083 3.03908 18.6219C3.71142 17.818 4.36172 17.0228 4.76954 16.5056C5.37575 15.7557 6.97395 13.7817 9.18938 14.708C9.64128 14.8955 10.0381 15.1602 10.4018 15.3918C11.2946 15.9873 11.6693 16.1637 12.2976 15.8208C12.992 15.4469 13.4439 14.708 13.9178 13.9349C14.1713 13.5269 14.4249 13.131 14.7004 12.7671C15.9018 11.2011 17.7535 10.782 19.2966 11.7084C20.0681 12.1715 20.7295 12.756 21.3467 13.3505C21.479 13.4828 21.6112 13.6052 21.7325 13.7265C21.8978 13.8908 22.4489 14.4422 23 14.9727V7.50552C23 3.61368 20.498 1 16.7725 1Z" fill="url(#paint1_linear_295_67)"/>
<path d="M11.3999 8.47622C11.3999 10.0257 10.1092 11.316 8.56059 11.316C7.01309 11.316 5.72241 10.0257 5.72241 8.47622C5.72241 6.92787 7.01309 5.63647 8.56059 5.63647C10.1092 5.63647 11.3999 6.92787 11.3999 8.47622Z" fill="url(#paint2_linear_295_67)"/>
<defs>
<linearGradient id="paint0_linear_295_67" x1="1.56532" y1="11.3373" x2="11.7326" y2="30.1342" gradientUnits="userSpaceOnUse">
<stop stop-color="#F9D423"/>
<stop offset="0.515624" stop-color="#FF4E50"/>
<stop offset="0.991304" stop-color="#8A2387"/>
</linearGradient>
<linearGradient id="paint1_linear_295_67" x1="0.682006" y1="1.1873" x2="20.0174" y2="24.2187" gradientUnits="userSpaceOnUse">
<stop stop-color="#F9D423"/>
<stop offset="0.515624" stop-color="#FF4E50"/>
<stop offset="0.991304" stop-color="#8A2387"/>
</linearGradient>
<linearGradient id="paint2_linear_295_67" x1="5.64035" y1="5.69236" x2="11.4955" y2="11.7245" gradientUnits="userSpaceOnUse">
<stop stop-color="#F9D423"/>
<stop offset="0.515624" stop-color="#FF4E50"/>
<stop offset="0.991304" stop-color="#8A2387"/>
</linearGradient>
</defs>
</svg>
