<svg width="16" height="16" viewBox="0 0 16 16" fill="none" xmlns="http://www.w3.org/2000/svg">
<path opacity="0.4" d="M2.5 13.5C2.10218 13.5 1.72064 13.342 1.43934 13.0607C1.15804 12.7794 1 12.3978 1 12C1 11.6022 1.15804 11.2206 1.43934 10.9393C1.72064 10.658 2.10218 10.5 2.5 10.5C2.89782 10.5 3.27936 10.658 3.56066 10.9393C3.84196 11.2206 4 11.6022 4 12C4 12.3978 3.84196 12.7794 3.56066 13.0607C3.27936 13.342 2.89782 13.5 2.5 13.5ZM2.5 9.5C2.10218 9.5 1.72064 9.34196 1.43934 9.06066C1.15804 8.77936 1 8.39782 1 8C1 7.60218 1.15804 7.22064 1.43934 6.93934C1.72064 6.65804 2.10218 6.5 2.5 6.5C2.89782 6.5 3.27936 6.65804 3.56066 6.93934C3.84196 7.22064 4 7.60218 4 8C4 8.39782 3.84196 8.77936 3.56066 9.06066C3.27936 9.34196 2.89782 9.5 2.5 9.5ZM2.5 5.5C2.10218 5.5 1.72064 5.34196 1.43934 5.06066C1.15804 4.77936 1 4.39782 1 4C1 3.60218 1.15804 3.22064 1.43934 2.93934C1.72064 2.65804 2.10218 2.5 2.5 2.5C2.89782 2.5 3.27936 2.65804 3.56066 2.93934C3.84196 3.22064 4 3.60218 4 4C4 4.39782 3.84196 4.77936 3.56066 5.06066C3.27936 5.34196 2.89782 5.5 2.5 5.5Z" fill="url(#paint0_linear_302_140)"/>
<path d="M6.12946 8.08124L9.18627 12.3608C9.58509 12.9191 10.4149 12.9191 10.8137 12.3608L13.8705 8.08124C14.3433 7.41937 13.8702 6.5 13.0568 6.5H13C12.4477 6.5 12 6.05228 12 5.5V3.5C12 2.94771 11.5523 2.5 11 2.5H9C8.44772 2.5 8 2.94771 8 3.5V5.5C8 6.05228 7.55228 6.5 7 6.5H6.94319C6.12982 6.5 5.65669 7.41937 6.12946 8.08124Z" fill="url(#paint1_linear_302_140)"/>
<defs>
<linearGradient id="paint0_linear_302_140" x1="2.54445" y1="13.4984" x2="2.54445" y2="2.49817" gradientUnits="userSpaceOnUse">
<stop stop-color="#A93AFF"/>
<stop offset="1" stop-color="#FF81FF"/>
</linearGradient>
<linearGradient id="paint1_linear_302_140" x1="10.1482" y1="13.4984" x2="10.1482" y2="2.49817" gradientUnits="userSpaceOnUse">
<stop stop-color="#A93AFF"/>
<stop offset="1" stop-color="#FF81FF"/>
</linearGradient>
</defs>
</svg>
