<svg width="16" height="17" viewBox="0 0 16 17" fill="none" xmlns="http://www.w3.org/2000/svg">
<path opacity="0.5" d="M3.91667 1.5C3.14312 1.5 2.40125 1.80729 1.85427 2.35427C1.30729 2.90125 1 3.64312 1 4.41667V6.91667C1 7.46895 1.44772 7.91667 2 7.91667H6.41667C6.96895 7.91667 7.41667 7.46895 7.41667 6.91667V2.5C7.41667 1.94771 6.96895 1.5 6.41667 1.5H3.91667ZM7.41667 10.0833C7.41667 9.53105 6.96895 9.08333 6.41667 9.08333H2C1.44771 9.08333 1 9.53105 1 10.0833V12.5833C1 13.3569 1.30729 14.0987 1.85427 14.6457C2.40125 15.1927 3.14312 15.5 3.91667 15.5H6.41667C6.96895 15.5 7.41667 15.0523 7.41667 14.5V10.0833ZM8.58333 10.0833C8.58333 9.53105 9.03105 9.08333 9.58333 9.08333H14C14.5523 9.08333 15 9.53105 15 10.0833V12.5833C15 13.3569 14.6927 14.0987 14.1457 14.6457C13.5987 15.1927 12.8569 15.5 12.0833 15.5H9.58333C9.03105 15.5 8.58333 15.0523 8.58333 14.5V10.0833Z" fill="url(#paint0_linear_345_675)"/>
<path d="M14.9999 4.41667V6.91667C14.9999 7.46895 14.5522 7.91667 13.9999 7.91667H9.58325C9.03097 7.91667 8.58325 7.46895 8.58325 6.91667V2.5C8.58325 1.94772 9.03097 1.5 9.58325 1.5H12.0833C12.8568 1.5 13.5987 1.80729 14.1456 2.35427C14.6926 2.90125 14.9999 3.64312 14.9999 4.41667Z" fill="url(#paint1_linear_345_675)"/>
<defs>
<linearGradient id="paint0_linear_345_675" x1="11.8181" y1="15.5" x2="0.694332" y2="1.89982" gradientUnits="userSpaceOnUse">
<stop stop-color="#2AD454"/>
<stop offset="1" stop-color="#B3FF5A"/>
</linearGradient>
<linearGradient id="paint1_linear_345_675" x1="14.6581" y1="7.9165" x2="9.34237" y2="1.81124" gradientUnits="userSpaceOnUse">
<stop offset="0.455521" stop-color="#2AD454"/>
<stop offset="1" stop-color="#B3FF5A"/>
</linearGradient>
</defs>
</svg>
