<svg width="24" height="24" viewBox="0 0 24 24" fill="none" xmlns="http://www.w3.org/2000/svg">
<path opacity="0.4" d="M1 12C1 6.8146 1 4.2219 2.6104 2.6104C4.223 1 6.8146 1 12 1C17.1854 1 19.7781 1 21.3885 2.6104C23 4.223 23 6.8146 23 12C23 17.1854 23 19.7781 21.3885 21.3885C19.7792 23 17.1854 23 12 23C6.8146 23 4.2219 23 2.6104 21.3885C1 19.7792 1 17.1854 1 12Z" fill="url(#paint0_linear_8_618)"/>
<path fill-rule="evenodd" clip-rule="evenodd" d="M14.4348 6.82609C14.1926 6.82609 13.9604 6.72989 13.7892 6.55866C13.6179 6.38743 13.5217 6.1552 13.5217 5.91304C13.5217 5.67089 13.6179 5.43865 13.7892 5.26742C13.9604 5.0962 14.1926 5 14.4348 5H18.087C18.3291 5 18.5613 5.0962 18.7326 5.26742C18.9038 5.43865 19 5.67089 19 5.91304V9.56522C19 9.80737 18.9038 10.0396 18.7326 10.2108C18.5613 10.3821 18.3291 10.4783 18.087 10.4783C17.8448 10.4783 17.6126 10.3821 17.4413 10.2108C17.2701 10.0396 17.1739 9.80737 17.1739 9.56522V8.11652L14.4713 10.8191C14.3877 10.9088 14.2869 10.9808 14.1749 11.0307C14.0629 11.0806 13.942 11.1074 13.8194 11.1096C13.6968 11.1118 13.575 11.0892 13.4614 11.0433C13.3477 10.9974 13.2444 10.929 13.1577 10.8423C13.071 10.7556 13.0026 10.6523 12.9567 10.5386C12.9108 10.425 12.8882 10.3032 12.8904 10.1806C12.8926 10.058 12.9194 9.93708 12.9693 9.82508C13.0192 9.71308 13.0912 9.61228 13.1809 9.5287L15.8835 6.82609H14.4348ZM10.8191 13.1809C10.9901 13.3521 11.0862 13.5841 11.0862 13.8261C11.0862 14.068 10.9901 14.3001 10.8191 14.4713L8.11652 17.1739H9.56522C9.80737 17.1739 10.0396 17.2701 10.2108 17.4413C10.3821 17.6126 10.4783 17.8448 10.4783 18.087C10.4783 18.3291 10.3821 18.5613 10.2108 18.7326C10.0396 18.9038 9.80737 19 9.56522 19H5.91304C5.67089 19 5.43865 18.9038 5.26742 18.7326C5.0962 18.5613 5 18.3291 5 18.087V14.4348C5 14.1926 5.0962 13.9604 5.26742 13.7892C5.43865 13.6179 5.67089 13.5217 5.91304 13.5217C6.1552 13.5217 6.38743 13.6179 6.55866 13.7892C6.72989 13.9604 6.82609 14.1926 6.82609 14.4348V15.8835L9.5287 13.1809C9.69989 13.0099 9.93196 12.9138 10.1739 12.9138C10.4159 12.9138 10.6479 13.0099 10.8191 13.1809Z" fill="url(#paint1_linear_8_618)"/>
<defs>
<linearGradient id="paint0_linear_8_618" x1="12" y1="23" x2="12" y2="1" gradientUnits="userSpaceOnUse">
<stop stop-color="#5570FF"/>
<stop offset="1" stop-color="#4DD3FF"/>
</linearGradient>
<linearGradient id="paint1_linear_8_618" x1="12" y1="19" x2="12" y2="5" gradientUnits="userSpaceOnUse">
<stop stop-color="#5570FF"/>
<stop offset="1" stop-color="#4DD3FF"/>
</linearGradient>
</defs>
</svg>
