<svg width="32" height="32" viewBox="0 0 32 32" fill="none" xmlns="http://www.w3.org/2000/svg">
<ellipse opacity="0.45" cx="14.0389" cy="14.1145" rx="12.0389" ry="12.1145" fill="url(#paint0_linear_5_77)"/>
<path opacity="0.4" d="M28.1445 29.9374C27.6768 29.9222 27.2321 29.7298 26.8995 29.3987L24.0485 26.0662C23.4373 25.5072 23.3873 24.5572 23.9365 23.9365V23.9365C24.1935 23.6763 24.543 23.5301 24.9076 23.5301C25.2721 23.5301 25.6216 23.6763 25.8786 23.9365L29.4642 26.8054C29.9806 27.334 30.14 28.1188 29.8711 28.8089C29.6021 29.499 28.9551 29.9656 28.2192 30L28.1445 29.9374Z" fill="url(#paint1_linear_5_77)"/>
<path d="M8.61538 12.5C8.18696 12.5 7.77608 12.6844 7.47314 13.0126C7.17019 13.3408 7 13.7859 7 14.25C7 14.7141 7.17019 15.1592 7.47314 15.4874C7.77608 15.8156 8.18696 16 8.61538 16H19.3846C19.813 16 20.2239 15.8156 20.5269 15.4874C20.8298 15.1592 21 14.7141 21 14.25C21 13.7859 20.8298 13.3408 20.5269 13.0126C20.2239 12.6844 19.813 12.5 19.3846 12.5H8.61538Z" fill="url(#paint2_linear_5_77)"/>
<defs>
<linearGradient id="paint0_linear_5_77" x1="26.0065" y1="2.1536" x2="1.97078" y2="25.8404" gradientUnits="userSpaceOnUse">
<stop stop-color="#FE7970"/>
<stop offset="1" stop-color="#DC3282"/>
</linearGradient>
<linearGradient id="paint1_linear_5_77" x1="29.9809" y1="23.5711" x2="23.5625" y2="29.9114" gradientUnits="userSpaceOnUse">
<stop stop-color="#FE7970"/>
<stop offset="1" stop-color="#DC3282"/>
</linearGradient>
<linearGradient id="paint2_linear_5_77" x1="20.9585" y1="12.5222" x2="19.3123" y2="19.0521" gradientUnits="userSpaceOnUse">
<stop stop-color="#FE7970"/>
<stop offset="1" stop-color="#DC3282"/>
</linearGradient>
</defs>
</svg>
