<?xml version="1.0" encoding="UTF-8" standalone="no"?>
<svg
   viewBox="0 0 16 16"
   version="1.1"
   id="svg1"
   sodipodi:docname="user-trash.svg"
   inkscape:version="1.3.1 (91b66b0783, 2023-11-16)"
   xmlns:inkscape="http://www.inkscape.org/namespaces/inkscape"
   xmlns:sodipodi="http://sodipodi.sourceforge.net/DTD/sodipodi-0.dtd"
   xmlns:xlink="http://www.w3.org/1999/xlink"
   xmlns="http://www.w3.org/2000/svg"
   xmlns:svg="http://www.w3.org/2000/svg">
  <sodipodi:namedview
     id="namedview1"
     pagecolor="#ffffff"
     bordercolor="#000000"
     borderopacity="0.25"
     inkscape:showpageshadow="2"
     inkscape:pageopacity="0.0"
     inkscape:pagecheckerboard="0"
     inkscape:deskcolor="#d1d1d1"
     inkscape:zoom="47.9375"
     inkscape:cx="7.9895698"
     inkscape:cy="8"
     inkscape:window-width="1920"
     inkscape:window-height="994"
     inkscape:window-x="0"
     inkscape:window-y="0"
     inkscape:window-maximized="1"
     inkscape:current-layer="svg1" />
  <defs
     id="defs3051">
    <linearGradient
       id="linearGradient1"
       inkscape:collect="always">
      <stop
         style="stop-color:#00b3b3;stop-opacity:1;"
         offset="0"
         id="stop1" />
      <stop
         style="stop-color:#3cffff;stop-opacity:1;"
         offset="1"
         id="stop2" />
    </linearGradient>
    <style
       type="text/css"
       id="current-color-scheme">
      .ColorScheme-Text {
        color:#eff0f1;
      }
      </style>
    <linearGradient
       inkscape:collect="always"
       xlink:href="#linearGradient1"
       id="linearGradient2"
       x1="2"
       y1="14"
       x2="14"
       y2="2"
       gradientUnits="userSpaceOnUse" />
  </defs>
  <path
     style="fill:url(#linearGradient2);fill-opacity:1;stroke:none"
     d="M 6 2 L 6 3 L 2 3 L 2 4 L 3 4 L 3 8 L 3 11.134766 C 3 12.722459 4.2775407 14 5.8652344 14 L 10.134766 14 C 11.722459 14 13 12.722459 13 11.134766 L 13 8 L 13 4 L 14 4 L 14 3 L 10 3 L 10 2 L 6 2 z M 7 3 L 9 3 L 9 4 L 10 4 L 12 4 L 12 8 L 12 11 C 12 12.108 11.108 13 10 13 L 6 13 C 4.892 13 4 12.108 4 11 L 4 8 L 4 4 L 7 4 L 7 3 z M 6 6 L 6 8 L 6 11 L 7 11 L 7 8 L 7 6 L 6 6 z M 9 6 L 9 8 L 9 11 L 10 11 L 10 8 L 10 6 L 9 6 z "
     class="ColorScheme-Text"
     id="path1" />
</svg>
