<?xml version="1.0" encoding="UTF-8" standalone="no"?>
<svg
   viewBox="0 0 32 32"
   id="svg2"
   version="1.1"
   sodipodi:docname="start-here-kde.svg"
   inkscape:version="1.3.2 (091e20ef0f, 2023-11-25)"
   width="32"
   height="32"
   xmlns:inkscape="http://www.inkscape.org/namespaces/inkscape"
   xmlns:sodipodi="http://sodipodi.sourceforge.net/DTD/sodipodi-0.dtd"
   xmlns="http://www.w3.org/2000/svg"
   xmlns:svg="http://www.w3.org/2000/svg"
   xmlns:rdf="http://www.w3.org/1999/02/22-rdf-syntax-ns#"
   xmlns:cc="http://creativecommons.org/ns#"
   xmlns:dc="http://purl.org/dc/elements/1.1/">
  <sodipodi:namedview
     pagecolor="#ffffff"
     bordercolor="#000000"
     borderopacity="1"
     objecttolerance="10"
     gridtolerance="10"
     guidetolerance="10"
     inkscape:pageopacity="0"
     inkscape:pageshadow="2"
     inkscape:window-width="1920"
     inkscape:window-height="996"
     id="namedview17"
     showgrid="false"
     inkscape:zoom="8"
     inkscape:cx="2.125"
     inkscape:cy="14.375"
     inkscape:window-x="0"
     inkscape:window-y="0"
     inkscape:window-maximized="1"
     inkscape:current-layer="svg2"
     inkscape:lockguides="false"
     inkscape:document-rotation="0"
     inkscape:showpageshadow="false"
     inkscape:pagecheckerboard="0"
     inkscape:deskcolor="#d1d1d1">
    <inkscape:grid
       type="xygrid"
       id="grid842"
       originx="-22"
       originy="0"
       spacingy="1"
       spacingx="1"
       units="px"
       visible="false" />
  </sodipodi:namedview>
  <metadata
     id="metadata21">
    <rdf:RDF>
      <cc:Work
         rdf:about="">
        <dc:format>image/svg+xml</dc:format>
        <dc:type
           rdf:resource="http://purl.org/dc/dcmitype/StillImage" />
      </cc:Work>
    </rdf:RDF>
  </metadata>
  <defs
     id="defs3051">
    <style
       type="text/css"
       id="current-color-scheme">.ColorScheme-Highlight { color:#6f59b2; }
.ColorScheme-Text { color:#31363b; }
</style>
  </defs>
  <g
     transform="translate(-68,-1)"
     id="start-here-kde">
    <rect
       style="fill:none;fill-rule:evenodd;stroke:none;stroke-width:1px;stroke-linecap:butt;stroke-linejoin:miter;stroke-opacity:1"
       id="rect3343"
       width="32"
       height="32"
       x="68"
       y="1" />
    <path
       id="path20"
       style="stroke-opacity:1;stroke-dasharray:none;stroke-width:1.5;stroke:currentColor;fill-opacity:0.3019608;fill:currentColor"
       transform="translate(46,1)"
       d="M 32,4 C 31.171573,4 30.5,4.6715729 30.5,5.5 30.5,6.3284271 31.171573,7 32,7 32.828427,7 33.5,6.3284271 33.5,5.5 33.5,4.6715729 32.828427,4 32,4 Z m 10.5,0 c -1.828155,-1.0147093 -3.99599,1.1343363 -3,3 L 44,11.5 39.5,16 c -1.235766,2.063949 1.209297,4.043086 3,3 L 50,11.5 Z m -14,9 C 27.119288,13 26,14.119288 26,15.5 26,16.880712 27.119288,18 28.5,18 29.880712,18 31,16.880712 31,15.5 31,14.119288 29.880712,13 28.5,13 Z m 6.5,9 c -1.656854,0 -3,1.343146 -3,3 0,1.656854 1.343146,3 3,3 1.656854,0 3,-1.343146 3,-3 0,-1.656854 -1.343146,-3 -3,-3 z"
       class="ColorScheme-Highlight "
       sodipodi:nodetypes="ssssscccccccssssssssss" />
  </g>
</svg>
