<svg width="128" height="128" viewBox="0 0 128 128" fill="none" xmlns="http://www.w3.org/2000/svg">
<path opacity="0.4" d="M107.251 55.8587C104.599 55.0868 102.316 52.9193 102.316 50.1579V37.4737C102.316 30.9718 97.0282 25.6842 90.5263 25.6842H77.8421C75.0807 25.6842 72.9132 23.4007 72.1413 20.7493C69.9998 13.3926 63.1958 8 55.1579 8C47.12 8 40.316 13.3926 38.1744 20.7493C37.4026 23.4007 35.2351 25.6842 32.4737 25.6842H19.7895C13.2876 25.6842 8 30.9718 8 37.4737V56.0526C8 58.814 10.2386 61.0526 13 61.0526H13.8947C17.0215 61.0526 20.0202 62.2947 22.2312 64.5057C24.4421 66.7166 25.6842 69.7153 25.6842 72.8421C25.6842 75.9689 24.4421 78.9676 22.2312 81.1785C20.0202 83.3895 17.0215 84.6316 13.8947 84.6316H13C10.2386 84.6316 8 86.8702 8 89.6316V108.211C8 114.712 13.2876 120 19.7895 120H38.3684C41.1298 120 43.3684 117.761 43.3684 115V114.105C43.3684 110.978 44.6105 107.98 46.8215 105.769C49.0324 103.558 52.0311 102.316 55.1579 102.316C58.2847 102.316 61.2834 103.558 63.4943 105.769C65.7053 107.98 66.9474 110.978 66.9474 114.105V115C66.9474 117.761 69.1859 120 71.9474 120H90.5263C97.0282 120 102.316 114.712 102.316 108.211V95.5263C102.316 92.7649 104.599 90.5974 107.251 89.8256C114.607 87.684 120 80.88 120 72.8421C120 64.8042 114.607 58.0002 107.251 55.8587Z" fill="url(#paint0_linear_8_859)"/>
<path fill-rule="evenodd" clip-rule="evenodd" d="M116.288 93.056C117.432 93.664 118.315 94.624 118.936 95.584C120.146 97.568 120.048 100 118.871 102.144L116.582 105.984C115.372 108.032 113.115 109.312 110.793 109.312C109.649 109.312 108.373 108.992 107.327 108.352C106.477 107.808 105.496 107.616 104.449 107.616C101.212 107.616 98.4973 110.272 98.3992 113.44C98.3992 117.12 95.3905 120 91.6297 120H87.1822C83.3887 120 80.38 117.12 80.38 113.44C80.3146 110.272 77.6003 107.616 74.3627 107.616C73.2835 107.616 72.3025 107.808 71.4849 108.352C70.4384 108.992 69.1303 109.312 68.0184 109.312C65.6638 109.312 63.4073 108.032 62.1973 105.984L59.9409 102.144C58.7309 100.064 58.6655 97.568 59.8755 95.584C60.3987 94.624 61.3798 93.664 62.4917 93.056C63.4073 92.608 63.996 91.872 64.5519 91.008C66.1871 88.256 65.206 84.64 62.4263 83.008C59.1887 81.184 58.1422 77.12 60.0063 73.952L62.1973 70.176C64.0941 67.008 68.1492 65.888 71.4195 67.744C74.2646 69.28 77.96 68.256 79.6278 65.536C80.1511 64.64 80.4454 63.68 80.38 62.72C80.3146 61.472 80.6743 60.288 81.2957 59.328C82.5057 57.344 84.6968 56.064 87.0841 56H91.6951C94.1151 56 96.3062 57.344 97.5162 59.328C98.1048 60.288 98.4973 61.472 98.3992 62.72C98.3338 63.68 98.6281 64.64 99.1513 65.536C100.819 68.256 104.515 69.28 107.392 67.744C110.63 65.888 114.718 67.008 116.582 70.176L118.773 73.952C120.67 77.12 119.623 81.184 116.353 83.008C113.573 84.64 112.592 88.256 114.26 91.008C114.783 91.872 115.372 92.608 116.288 93.056ZM80.1512 88.032C80.1512 93.056 84.3045 97.056 89.4388 97.056C94.5731 97.056 98.6282 93.056 98.6282 88.032C98.6282 83.008 94.5731 78.976 89.4388 78.976C84.3045 78.976 80.1512 83.008 80.1512 88.032Z" fill="url(#paint1_linear_8_859)"/>
<defs>
<linearGradient id="paint0_linear_8_859" x1="63.9999" y1="120" x2="63.9999" y2="7.99999" gradientUnits="userSpaceOnUse">
<stop stop-color="#02AA93"/>
<stop offset="1" stop-color="#67FF80"/>
</linearGradient>
<linearGradient id="paint1_linear_8_859" x1="89.4" y1="120" x2="89.4" y2="56" gradientUnits="userSpaceOnUse">
<stop stop-color="#02AA93"/>
<stop offset="1" stop-color="#67FF80"/>
</linearGradient>
</defs>
</svg>
