<svg width="64" height="64" viewBox="0 0 64 64" fill="none" xmlns="http://www.w3.org/2000/svg">
<circle opacity="0.4" cx="32" cy="32" r="28" fill="url(#paint0_linear_54_864)"/>
<path fill-rule="evenodd" clip-rule="evenodd" d="M11.382 20.1095C9.0801 19.6301 6.68144 20.7711 5.31078 22.6145C4.24068 23.9399 4.00302 25.6208 4 27.267C3.99906 27.7788 4.40601 28.1941 4.91752 28.2101C5.79294 28.2374 6.66876 28.2267 7.54614 28.2159V28.2159C7.74362 28.2135 7.90417 28.0559 7.90322 27.8584C7.90262 27.7325 7.90044 27.6056 7.89825 27.4782V27.4782V27.4782C7.88304 26.5913 7.86742 25.6808 8.37987 24.9225C9.11929 23.6295 11.1969 23.5319 12.0461 24.7565C12.0758 24.7994 12.1074 24.8417 12.1404 24.8821C12.9095 25.8233 12.7405 27.2353 12.004 28.1484C11.2283 29.2188 10.4527 30.2898 9.67691 31.3611L9.67663 31.3614L9.67646 31.3617C7.88876 33.8302 6.10004 36.3001 4.30796 38.7667C4.18503 38.9359 4.11818 39.1393 4.11706 39.3485C4.11279 40.1443 4.11119 40.9414 4.12038 41.7377C4.12663 42.2791 4.56858 42.7116 5.11 42.7133C8.55095 42.7237 11.9895 42.7238 15.4278 42.7134C15.9776 42.7117 16.4227 42.2663 16.4234 41.7165C16.4242 41.0752 16.4238 40.4343 16.4219 39.793C16.4203 39.2435 15.9743 38.7995 15.4248 38.799C14.7829 38.7985 14.141 38.7983 13.4991 38.7981H13.4944C12.6879 38.7978 11.8814 38.7976 11.0748 38.7967C10.2573 38.7957 9.78755 37.8668 10.2689 37.206C10.9428 36.2811 11.6151 35.3548 12.2873 34.4287L12.2876 34.4283C13.2334 33.1251 14.1791 31.8222 15.1289 30.5234C16.3804 28.877 16.8721 26.6545 16.3208 24.655C15.6541 22.4065 13.7136 20.5406 11.382 20.1095ZM30.3478 21.7931C28.519 20.0872 25.7516 19.6337 23.3864 20.2916C20.8053 20.9494 18.6934 23.276 18.5779 25.9742C18.5628 27.0799 18.5661 28.1855 18.5694 29.2912C18.5742 30.9135 18.579 32.5358 18.5258 34.1582C18.53 34.4965 18.5242 34.8401 18.5184 35.1857V35.1857C18.4929 36.6963 18.4668 38.2467 19.267 39.5805C21.1666 43.2599 26.5151 44.1669 29.7667 41.7771C31.4801 40.5804 32.523 38.499 32.441 36.4103C32.3891 33.8054 32.3908 31.2027 32.3925 28.5988V28.5987V28.5986C32.393 27.8404 32.3934 27.0821 32.3926 26.3236C32.4075 24.6139 31.629 22.9229 30.3478 21.7931ZM22.459 26.305C22.4627 25.1231 23.4609 24.2237 24.5485 23.9561C26.2023 23.5659 28.4408 24.3538 28.5078 26.3013C28.5413 29.8952 28.5674 33.4966 28.4966 37.0905C28.1502 39.2759 25.1594 39.7479 23.5466 38.6887C22.5745 38.1721 22.3994 36.9939 22.4255 36.0053C22.4378 34.6709 22.4336 33.3365 22.4294 32.0021V32.0019C22.4234 30.1029 22.4174 28.204 22.459 26.305ZM49.794 22.7928C51.4925 19.8604 55.8726 19.0688 58.4464 21.3099C60.8871 23.1585 61.3457 26.7889 59.7944 29.3307C59.5248 29.7724 59.5439 30.3492 59.8428 30.7717C61.2875 32.8146 61.2387 35.5389 60.9493 37.949C60.4502 40.413 58.4128 42.524 55.921 42.9923C53.392 43.5127 50.714 42.1338 49.4216 39.9559C48.3248 38.2552 48.426 36.1424 48.5187 34.2067L48.5202 34.1766C48.578 32.9139 49.1004 31.748 49.8235 30.7313C50.1045 30.3362 50.1041 29.8022 49.8483 29.3903C48.6229 27.4173 48.5139 24.7704 49.794 22.7928ZM54.2673 23.9412C52.6732 24.3872 52.2225 26.6878 53.5261 27.7061C54.5192 28.7372 56.4037 28.0611 56.7091 26.7209C56.7214 26.6671 56.7355 26.6132 56.7515 26.5604C57.1831 25.1364 55.7629 23.5107 54.2673 23.9412ZM54.2673 32.1251C53.2133 32.3815 52.3938 33.4408 52.4385 34.526C52.4519 34.8426 52.4389 35.1746 52.4256 35.511C52.3838 36.5726 52.3403 37.6771 53.1239 38.473C53.9321 39.391 55.5411 39.4876 56.3829 38.5622C57.2606 37.7072 57.2146 36.4725 57.1714 35.3117V35.3117C57.1607 35.0244 57.1502 34.7416 57.1539 34.4702C57.1427 33.0319 55.7274 31.7088 54.2673 32.1251ZM44.6364 21.3845C44.6361 20.8395 44.199 20.3952 43.6541 20.3903C42.8998 20.3835 42.1449 20.3833 41.3908 20.3875C41.0082 20.3897 40.6611 20.6112 40.4965 20.9565C38.7582 24.6021 37.0036 28.2395 35.2489 31.8769C34.8044 32.7984 34.3599 33.7199 33.9156 34.6415C33.8812 34.713 33.8549 34.7883 33.84 34.8662C33.6905 35.6493 33.716 36.4558 33.7415 37.2621C33.7465 37.4195 33.7515 37.577 33.7552 37.7342C33.7687 38.3129 34.2356 38.7991 34.8145 38.7961C36.1308 38.7892 37.4469 38.7916 38.7622 38.794C39.0999 38.7946 39.4374 38.7952 39.7749 38.7957C40.325 38.7964 40.7719 39.2407 40.7736 39.7908C40.7756 40.4344 40.7763 41.0778 40.7765 41.7205C40.7767 42.2672 41.2157 42.7132 41.7624 42.7176C42.4136 42.7228 43.0656 42.7226 43.7177 42.7117C44.2522 42.7029 44.6777 42.267 44.6812 41.7326C44.6854 41.0867 44.6868 40.4413 44.6873 39.7955C44.6877 39.245 45.1325 38.7979 45.6829 38.7941C45.749 38.7937 45.8151 38.7932 45.8812 38.7927C45.9483 38.7923 46.0154 38.7918 46.0825 38.7913C46.6319 38.7875 47.0765 38.3422 47.0771 37.7928C47.0777 37.1529 47.077 36.5134 47.074 35.8735C47.0715 35.3264 46.6279 34.8846 46.0808 34.8804C45.6348 34.8769 45.1896 34.8728 44.7444 34.8686V34.8686C44.7107 34.8683 44.6835 34.8412 44.6829 34.8075C44.6299 31.3338 44.6326 27.86 44.6353 24.3849C44.6361 23.3849 44.6369 22.3847 44.6364 21.3845ZM37.5474 34.8718V34.8718C37.5388 34.8718 37.5331 34.8627 37.5368 34.8549C37.8867 34.122 38.2389 33.3898 38.5911 32.6576C38.6666 32.5006 38.7421 32.3437 38.8176 32.1867C39.2827 31.2194 40.7742 31.556 40.7752 32.6293C40.7753 32.7267 40.7754 32.8242 40.7755 32.9217C40.7758 33.2405 40.7761 33.5594 40.7763 33.8783C40.7767 34.4266 40.3352 34.8728 39.787 34.8745C39.0395 34.8769 38.2926 34.8744 37.5474 34.8718Z" fill="url(#paint1_linear_54_864)"/>
<defs>
<linearGradient id="paint0_linear_54_864" x1="32" y1="60" x2="32" y2="4" gradientUnits="userSpaceOnUse">
<stop stop-color="#FD5900"/>
<stop offset="1" stop-color="#FFDE00"/>
</linearGradient>
<linearGradient id="paint1_linear_54_864" x1="40.3997" y1="42.7208" x2="40.3997" y2="20.3847" gradientUnits="userSpaceOnUse">
<stop stop-color="#FD2E00"/>
<stop offset="1" stop-color="#FF9900"/>
</linearGradient>
</defs>
</svg>
