<svg width="128" height="128" viewBox="0 0 128 128" fill="none" xmlns="http://www.w3.org/2000/svg">
<path opacity="0.4" d="M94.6846 14C91.2368 14 87.9302 15.3696 85.4922 17.8076C83.0542 20.2456 81.6846 23.5522 81.6846 27C81.6846 30.4478 83.0542 33.7544 85.4922 36.1924C87.9302 38.6304 91.2368 40 94.6846 40C98.1324 40 101.439 38.6304 103.877 36.1924C106.315 33.7544 107.685 30.4478 107.685 27C107.685 23.5522 106.315 20.2456 103.877 17.8076C101.439 15.3696 98.1324 14 94.6846 14Z" fill="url(#paint0_linear_114_276)"/>
<path d="M41.6904 45.76C42.4019 44.96 43.4163 44.5552 44.4536 44.5265C45.4907 44.498 46.5534 44.8458 47.3831 45.5318L74.1877 70.9116C75.8184 72.2835 78.2436 72.2835 79.8743 70.9116L90.3161 58.706C91.9755 57.1058 94.3493 57.3338 96.0088 58.706L122.801 87.8357C123.57 88.5551 124.005 89.5468 123.998 90.5803V100.64C123.998 102.698 122.098 104.525 119.964 104.525H8.02742C5.65428 104.525 4 102.926 4 100.64V86.6885C4 85.7744 4.4708 84.8644 4.94365 84.1782L41.6904 45.76Z" fill="url(#paint1_linear_114_276)"/>
<defs>
<linearGradient id="paint0_linear_114_276" x1="71" y1="55.5" x2="109.558" y2="42.6267" gradientUnits="userSpaceOnUse">
<stop stop-color="#F502A3"/>
<stop offset="1" stop-color="#FFBB37"/>
</linearGradient>
<linearGradient id="paint1_linear_114_276" x1="22.0639" y1="91.0252" x2="59.3077" y2="48.091" gradientUnits="userSpaceOnUse">
<stop stop-color="#F502A3"/>
<stop offset="1" stop-color="#FFBB37"/>
</linearGradient>
</defs>
</svg>
