<svg width="24" height="24" viewBox="0 0 24 24" fill="none" xmlns="http://www.w3.org/2000/svg">
<path opacity="0.5" d="M23 12C23 18.0753 18.0753 23 12 23C5.9247 23 1 18.0753 1 12C1 5.9247 5.9247 1 12 1C18.0753 1 23 5.9247 23 12Z" fill="url(#paint0_linear_6_89)"/>
<path d="M12 8.69999C12.5835 8.69999 13.143 8.4682 13.5556 8.05562C13.9682 7.64304 14.2 7.08346 14.2 6.49999C14.2 5.91651 13.9682 5.35693 13.5556 4.94435C13.143 4.53177 12.5835 4.29999 12 4.29999C11.4165 4.29999 10.8569 4.53177 10.4444 4.94435C10.0318 5.35693 9.79999 5.91651 9.79999 6.49999C9.79999 7.08346 10.0318 7.64304 10.4444 8.05562C10.8569 8.4682 11.4165 8.69999 12 8.69999ZM5.72229 9.04099C5.52248 8.96343 5.30033 8.96668 5.10288 9.05004C4.90542 9.1334 4.74816 9.29034 4.66438 9.48762C4.58061 9.6849 4.5769 9.90705 4.65404 10.107C4.73119 10.307 4.88312 10.4691 5.07769 10.559L5.07989 10.5601L5.08209 10.5612L5.09309 10.5656L5.12829 10.581C5.33631 10.6678 5.54609 10.7503 5.75749 10.8285C6.17549 10.988 6.76289 11.2003 7.43719 11.4115C8.27097 11.6748 9.27307 11.9484 10.2717 12.1152C10.781 12.2003 11.175 12.6292 11.175 13.1457V13.5983C11.175 14.0713 11.0386 14.5366 10.7823 14.9359L8.00589 19.2534C7.94724 19.3445 7.90712 19.4463 7.88782 19.553C7.86851 19.6597 7.87041 19.7691 7.89339 19.875C7.91637 19.9809 7.95999 20.0813 8.02176 20.1703C8.08353 20.2594 8.16224 20.3354 8.25339 20.3941C8.34454 20.4527 8.44635 20.4929 8.553 20.5122C8.65966 20.5315 8.76907 20.5296 8.875 20.5066C8.98092 20.4836 9.08128 20.44 9.17035 20.3782C9.25941 20.3164 9.33544 20.2377 9.39409 20.1466L11.1596 17.4007C11.5533 16.7884 12.4486 16.7885 12.8421 17.4011L14.6059 20.1466C14.6645 20.2377 14.7406 20.3164 14.8296 20.3782C14.9187 20.44 15.0191 20.4836 15.125 20.5066C15.2309 20.5296 15.3403 20.5315 15.447 20.5122C15.5536 20.4929 15.6554 20.4527 15.7466 20.3941C15.8377 20.3354 15.9164 20.2594 15.9782 20.1703C16.04 20.0813 16.0836 19.9809 16.1066 19.875C16.1296 19.7691 16.1315 19.6597 16.1122 19.553C16.0929 19.4463 16.0527 19.3445 15.9941 19.2534L13.2177 14.9359C12.9611 14.5365 12.8248 14.0718 12.825 13.5972V13.1457C12.825 12.6292 13.2189 12.2003 13.7283 12.1152C14.727 11.9484 15.7293 11.6748 16.5639 11.4115C17.3439 11.1654 18.1137 10.8883 18.8717 10.581L18.908 10.5656L18.919 10.5612L18.9212 10.5601C19.1191 10.4724 19.2746 10.3104 19.3541 10.1091C19.4337 9.90785 19.431 9.68336 19.3465 9.48406C19.2621 9.28476 19.1028 9.12662 18.9028 9.04374C18.7029 8.96085 18.4784 8.95987 18.2777 9.04099L18.27 9.04429L18.2403 9.05639L18.1193 9.10589C17.4452 9.37547 16.7612 9.61983 16.0689 9.83849C14.7731 10.2455 13.2221 10.625 12 10.625C10.7779 10.625 9.22799 10.2455 7.93219 9.83849C7.19838 9.60647 6.47401 9.34557 5.76079 9.05639L5.72999 9.04429L5.72229 9.04099Z" fill="url(#paint1_linear_6_89)"/>
<defs>
<linearGradient id="paint0_linear_6_89" x1="12" y1="23" x2="12" y2="1" gradientUnits="userSpaceOnUse">
<stop stop-color="#5558FF"/>
<stop offset="1" stop-color="#00C0FF"/>
</linearGradient>
<linearGradient id="paint1_linear_6_89" x1="12.0053" y1="20.5254" x2="12.0053" y2="4.29999" gradientUnits="userSpaceOnUse">
<stop stop-color="#5558FF"/>
<stop offset="1" stop-color="#00C0FF"/>
</linearGradient>
</defs>
</svg>
