<svg width="32" height="32" viewBox="0 0 32 32" fill="none" xmlns="http://www.w3.org/2000/svg">
<path opacity="0.4" d="M22.5301 29.9856H9.46883C7.4437 30.1114 5.45493 29.4094 3.95846 28.0416C2.59066 26.5437 1.88858 24.555 2.01445 22.5313V9.46875C1.88858 7.44504 2.58926 5.45629 3.95706 3.95844C5.45493 2.59065 7.4437 1.88858 9.46883 2.01445H22.5301C24.5524 1.88858 26.5398 2.58925 28.0362 3.95704C29.4026 5.45629 30.1061 7.44364 29.9858 9.46875V22.5313C30.1103 24.555 29.4096 26.5437 28.0418 28.0416C26.544 29.4094 24.5552 30.1114 22.5301 29.9856Z" fill="url(#paint0_linear_303_228)"/>
<path d="M24.2711 13.3778L13.5484 24.1539C12.9907 24.6967 12.2578 25 11.493 25H7.74884C7.54171 25 7.35052 24.9202 7.20713 24.7765C7.06373 24.6328 7 24.4412 7 24.2337L7.0956 20.4501C7.11153 19.6998 7.41425 18.9973 7.94003 18.4705L15.5399 10.8554C15.6674 10.7277 15.8905 10.7277 16.0179 10.8554L18.6835 13.5103C18.8587 13.6843 19.1137 13.7977 19.3845 13.7977C19.974 13.7977 20.4361 13.3188 20.4361 12.744C20.4361 12.4567 20.3245 12.2012 20.1493 12.0097C20.1015 11.9458 17.5634 9.41863 17.5634 9.41863C17.4041 9.25898 17.4041 8.98758 17.5634 8.82794L18.6309 7.74235C19.6187 6.75255 21.212 6.75255 22.1998 7.74235L24.2711 9.81774C25.243 10.7916 25.243 12.388 24.2711 13.3778Z" fill="url(#paint1_linear_303_228)"/>
<defs>
<linearGradient id="paint0_linear_303_228" x1="1.59528" y1="2.27552" x2="30.4609" y2="32.0242" gradientUnits="userSpaceOnUse">
<stop stop-color="#F9D423"/>
<stop offset="0.515624" stop-color="#FF4E50"/>
<stop offset="0.991304" stop-color="#8A2387"/>
</linearGradient>
<linearGradient id="paint1_linear_303_228" x1="6.73982" y1="7.17712" x2="25.2963" y2="26.3013" gradientUnits="userSpaceOnUse">
<stop stop-color="#F9D423"/>
<stop offset="0.515624" stop-color="#FF4E50"/>
<stop offset="0.991304" stop-color="#8A2387"/>
</linearGradient>
</defs>
</svg>
