<svg width="24" height="24" viewBox="0 0 24 24" fill="none" xmlns="http://www.w3.org/2000/svg">
<path opacity="0.4" d="M2.6104 21.3885C4.223 23 6.8146 23 12 23C17.1854 23 19.7781 23 21.3885 21.3885C23 19.7792 23 17.1854 23 12C23 6.8146 23 4.2219 21.3885 2.6104C19.7792 1 17.1854 1 12 1C6.8146 1 4.2219 1 2.6104 2.6104C1 4.223 1 6.8146 1 12C1 17.1854 1 19.7781 2.6104 21.3885Z" fill="url(#paint0_linear_8_188)"/>
<path fill-rule="evenodd" clip-rule="evenodd" d="M7.25926 4C7.49501 4 7.7211 4.09365 7.8878 4.26035C8.0545 4.42705 8.14815 4.65314 8.14815 4.88889V6.37037H9.62963C9.86538 6.37037 10.0915 6.46402 10.2582 6.63072C10.4249 6.79742 10.5185 7.02351 10.5185 7.25926C10.5185 7.49501 10.4249 7.7211 10.2582 7.8878C10.0915 8.0545 9.86538 8.14815 9.62963 8.14815H8.14815V9.62963C8.14815 9.86538 8.0545 10.0915 7.8878 10.2582C7.7211 10.4249 7.49501 10.5185 7.25926 10.5185C7.02351 10.5185 6.79742 10.4249 6.63072 10.2582C6.46402 10.0915 6.37037 9.86538 6.37037 9.62963V8.14815H4.88889C4.65314 8.14815 4.42705 8.0545 4.26035 7.8878C4.09365 7.7211 4 7.49501 4 7.25926C4 7.02351 4.09365 6.79742 4.26035 6.63072C4.42705 6.46402 4.65314 6.37037 4.88889 6.37037H6.37037V4.88889C6.37037 4.65314 6.46402 4.42705 6.63072 4.26035C6.79742 4.09365 7.02351 4 7.25926 4ZM13.4815 7.25926C13.4815 7.02351 13.5751 6.79742 13.7418 6.63072C13.9085 6.46402 14.1346 6.37037 14.3704 6.37037H19.1111C19.3469 6.37037 19.573 6.46402 19.7397 6.63072C19.9064 6.79742 20 7.02351 20 7.25926C20 7.49501 19.9064 7.7211 19.7397 7.8878C19.573 8.0545 19.3469 8.14815 19.1111 8.14815H14.3704C14.1346 8.14815 13.9085 8.0545 13.7418 7.8878C13.5751 7.7211 13.4815 7.49501 13.4815 7.25926ZM13.4815 14.3704C13.4815 14.1346 13.5751 13.9085 13.7418 13.7418C13.9085 13.5751 14.1346 13.4815 14.3704 13.4815H19.1111C19.3469 13.4815 19.573 13.5751 19.7397 13.7418C19.9064 13.9085 20 14.1346 20 14.3704C20 14.6061 19.9064 14.8322 19.7397 14.9989C19.573 15.1656 19.3469 15.2593 19.1111 15.2593H14.3704C14.1346 15.2593 13.9085 15.1656 13.7418 14.9989C13.5751 14.8322 13.4815 14.6061 13.4815 14.3704ZM4.85333 13.7422C5.02 13.5758 5.24593 13.4823 5.48148 13.4823C5.71704 13.4823 5.94296 13.5758 6.10963 13.7422L7.25926 14.8919L8.40889 13.7422C8.49027 13.6549 8.5884 13.5848 8.69744 13.5363C8.80647 13.4877 8.92418 13.4616 9.04353 13.4594C9.16288 13.4573 9.28143 13.4793 9.39212 13.524C9.5028 13.5687 9.60334 13.6353 9.68775 13.7197C9.77216 13.8041 9.8387 13.9046 9.8834 14.0153C9.92811 14.126 9.95007 14.2445 9.94796 14.3639C9.94585 14.4832 9.91973 14.6009 9.87115 14.71C9.82256 14.819 9.75252 14.9171 9.66518 14.9985L8.51556 16.1481L9.66518 17.2978C9.75252 17.3792 9.82256 17.4773 9.87115 17.5863C9.91973 17.6954 9.94585 17.8131 9.94796 17.9324C9.95007 18.0518 9.92811 18.1703 9.8834 18.281C9.8387 18.3917 9.77216 18.4922 9.68775 18.5766C9.60334 18.661 9.5028 18.7276 9.39212 18.7723C9.28143 18.817 9.16288 18.839 9.04353 18.8368C8.92418 18.8347 8.80647 18.8086 8.69744 18.76C8.5884 18.7115 8.49027 18.6414 8.40889 18.5541L7.25926 17.4044L6.10963 18.5541C5.94113 18.7111 5.71826 18.7966 5.48797 18.7925C5.25769 18.7884 5.03797 18.6952 4.87511 18.5323C4.71225 18.3694 4.61897 18.1497 4.6149 17.9194C4.61084 17.6892 4.69632 17.4663 4.85333 17.2978L6.00296 16.1481L4.85333 14.9985C4.68687 14.8319 4.59337 14.6059 4.59337 14.3704C4.59337 14.1348 4.68687 13.9089 4.85333 13.7422ZM13.4815 17.9259C13.4815 17.6902 13.5751 17.4641 13.7418 17.2974C13.9085 17.1307 14.1346 17.037 14.3704 17.037H19.1111C19.3469 17.037 19.573 17.1307 19.7397 17.2974C19.9064 17.4641 20 17.6902 20 17.9259C20 18.1617 19.9064 18.3878 19.7397 18.5545C19.573 18.7212 19.3469 18.8148 19.1111 18.8148H14.3704C14.1346 18.8148 13.9085 18.7212 13.7418 18.5545C13.5751 18.3878 13.4815 18.1617 13.4815 17.9259Z" fill="url(#paint1_linear_8_188)"/>
<defs>
<linearGradient id="paint0_linear_8_188" x1="12" y1="23" x2="12" y2="1" gradientUnits="userSpaceOnUse">
<stop stop-color="#FD2E00"/>
<stop offset="1" stop-color="#FF9900"/>
</linearGradient>
<linearGradient id="paint1_linear_8_188" x1="12" y1="18.837" x2="12" y2="4" gradientUnits="userSpaceOnUse">
<stop stop-color="#FD2E00"/>
<stop offset="1" stop-color="#FF9900"/>
</linearGradient>
</defs>
</svg>
