<svg width="192" height="192" viewBox="0 0 192 192" fill="none" xmlns="http://www.w3.org/2000/svg">
<path fill-rule="evenodd" clip-rule="evenodd" d="M144.035 22.7801C130.05 12.4804 113.126 6.94836 95.7575 7.00036C78.3894 7.05236 61.4979 12.6856 47.5753 23.0689C33.6526 33.4523 23.4361 48.0358 18.4332 64.6678C13.4303 81.2999 13.9058 99.0996 19.7897 115.441C25.6736 131.782 36.6542 145.799 51.1115 155.424C55.249 158.179 60.8361 157.058 63.5907 152.92C66.3452 148.783 65.2242 143.196 61.0867 140.441C49.8422 132.955 41.3017 122.053 36.7253 109.343C32.149 96.633 31.7791 82.7888 35.6703 69.8528C39.5614 56.9167 47.5076 45.574 58.3363 37.4981C69.165 29.4221 82.3028 25.0407 95.8114 25.0003C109.32 24.9598 122.484 29.2625 133.361 37.2734C144.238 45.2844 152.251 56.5793 156.22 69.4918C160.189 82.4043 159.902 96.2505 155.401 108.987C150.901 121.724 142.426 132.678 131.227 140.231C127.106 143.01 126.018 148.604 128.798 152.725C131.577 156.846 137.171 157.933 141.291 155.154C155.691 145.443 166.587 131.36 172.373 114.984C178.159 98.6078 178.528 80.8056 173.426 64.2038C168.323 47.602 158.02 33.0799 144.035 22.7801ZM94.7845 38.9695C103.901 38.7408 112.9 41.0604 120.769 45.6673C128.639 50.2743 135.067 56.9859 139.33 65.047C143.593 73.108 145.522 82.1988 144.9 91.2964C144.278 100.394 141.129 109.138 135.809 116.544C132.909 120.58 127.285 121.502 123.248 118.602C119.212 115.702 118.29 110.078 121.19 106.041C124.556 101.356 126.548 95.8243 126.942 90.0686C127.335 84.313 126.115 78.5617 123.418 73.4618C120.721 68.362 116.654 64.1159 111.675 61.2012C106.697 58.2866 101.003 56.8191 95.236 56.9639C89.4687 57.1086 83.8563 58.8598 79.03 62.0205C74.2038 65.1811 70.3552 69.6258 67.9174 74.8546C65.4796 80.0833 64.5492 85.8885 65.2309 91.6172C65.9126 97.3459 68.1793 102.771 71.7761 107.281C74.8751 111.168 74.2368 116.83 70.3505 119.929C66.4643 123.028 60.8017 122.39 57.7027 118.504C52.0175 111.374 48.4345 102.799 47.357 93.7442C46.2795 84.6892 47.7501 75.5131 51.6034 67.2484C55.4568 58.9836 61.5399 51.9581 69.1685 46.9622C76.7971 41.9663 85.6684 39.1983 94.7845 38.9695Z" fill="url(#paint0_linear_54_1461)"/>
<g opacity="0.4">
<path d="M82.0195 88.0156C82.0195 80.2836 88.2875 74.0156 96.0195 74.0156C103.752 74.0156 110.02 80.2836 110.02 88.0156C110.02 95.7476 103.752 102.016 96.0195 102.016C88.2875 102.016 82.0195 95.7476 82.0195 88.0156Z" fill="url(#paint1_linear_54_1461)"/>
<path d="M80.0072 137.402L79.9993 137.35C79.6528 135.045 79.8078 132.693 80.4538 130.453C81.0997 128.213 82.2214 126.139 83.7423 124.373C85.2631 122.606 87.1472 121.189 89.266 120.217C91.3849 119.245 93.6884 118.742 96.0193 118.742C98.3503 118.742 100.654 119.245 102.773 120.217C104.891 121.189 106.776 122.606 108.296 124.373C109.817 126.139 110.939 128.213 111.585 130.453C112.212 132.626 112.376 134.906 112.069 137.146L107.961 174.039C107.798 176.968 106.562 179.744 104.476 181.83C102.233 184.072 99.1914 185.333 96.0193 185.333C92.8473 185.333 89.8052 184.072 87.5623 181.83C85.4766 179.744 84.2408 176.967 84.0778 174.037L80.0072 137.402Z" fill="url(#paint2_linear_54_1461)"/>
</g>
<defs>
<linearGradient id="paint0_linear_54_1461" x1="96" y1="182.333" x2="96" y2="10" gradientUnits="userSpaceOnUse">
<stop stop-color="#8200E7"/>
<stop offset="1" stop-color="#FF81FF"/>
</linearGradient>
<linearGradient id="paint1_linear_54_1461" x1="96" y1="182.333" x2="96" y2="9.99999" gradientUnits="userSpaceOnUse">
<stop stop-color="#8200E7"/>
<stop offset="1" stop-color="#FF81FF"/>
</linearGradient>
<linearGradient id="paint2_linear_54_1461" x1="96" y1="182.333" x2="96" y2="9.99999" gradientUnits="userSpaceOnUse">
<stop stop-color="#8200E7"/>
<stop offset="1" stop-color="#FF81FF"/>
</linearGradient>
</defs>
</svg>
