<svg width="128" height="128" viewBox="0 0 128 128" fill="none" xmlns="http://www.w3.org/2000/svg">
<path opacity="0.4" fill-rule="evenodd" clip-rule="evenodd" d="M14.6825 14C10.9927 14 8 16.9927 8 20.6824V38.5565V42.1694V45.7823V106.63C8 110.32 10.9927 113.312 14.6825 113.312H113.318C117.008 113.312 120 110.32 120 106.63V45.7823V42.1694V38.5565V20.6824C120 16.9927 117.008 14 113.318 14H104.109H101.582H100.496H97.9694H91.8306H89.3044H88.2177H85.6915H79.5525H77.0262H75.9396H73.4133H14.6825ZM110.968 38.5565C111.966 38.5565 112.774 37.7477 112.774 36.75V23.0323C112.774 22.0346 111.966 21.2258 110.968 21.2258H109.528C108.53 21.2258 107.722 22.0346 107.722 23.0323V26.8216C107.722 30.5113 104.729 33.5041 101.039 33.5041C99.7894 33.5041 98.6188 33.1605 97.6181 32.5626C96.258 31.7502 93.5423 31.7502 92.1823 32.5626C91.1814 33.1605 90.0113 33.5041 88.7611 33.5041C87.5109 33.5041 86.3407 33.1605 85.3399 32.5626C83.9798 31.7502 81.2642 31.7502 79.9041 32.5626C78.9032 33.1605 77.7331 33.5041 76.4828 33.5041C72.7931 33.5041 69.8004 30.5113 69.8004 26.8216V23.0323C69.8004 22.0346 68.9917 21.2258 67.994 21.2258H17.0323C16.0346 21.2258 15.2258 22.0346 15.2258 23.0323V36.75C15.2258 37.7477 16.0346 38.5565 17.0323 38.5565H60.3871H110.968Z" fill="url(#paint0_linear_60_222)"/>
<path d="M57.5366 98.776L86.8916 81.1631C88.6599 80.1021 89.7422 78.1912 89.7422 76.129C89.7422 74.0666 88.6599 72.1559 86.8916 71.0948L57.5366 53.4818C55.7234 52.3938 53.4646 52.3648 51.6234 53.4071C49.7831 54.4489 48.6453 56.4009 48.6453 58.5161V93.7419C48.6453 95.857 49.7831 97.809 51.6237 98.8508C52.5217 99.3593 53.5193 99.6129 54.5162 99.6129C55.5624 99.6129 56.6079 99.3334 57.5366 98.776Z" stroke="url(#paint1_linear_60_222)" stroke-width="12" stroke-linejoin="round"/>
<defs>
<linearGradient id="paint0_linear_60_222" x1="8" y1="47.2361" x2="101.022" y2="108.229" gradientUnits="userSpaceOnUse">
<stop stop-color="#FD5900"/>
<stop offset="1" stop-color="#FFDE00"/>
</linearGradient>
<linearGradient id="paint1_linear_60_222" x1="48.6453" y1="68.3635" x2="87.4183" y2="88.0884" gradientUnits="userSpaceOnUse">
<stop stop-color="#FD5900"/>
<stop offset="1" stop-color="#FFDE00"/>
</linearGradient>
</defs>
</svg>
