<svg width="64" height="64" viewBox="0 0 64 64" fill="none" xmlns="http://www.w3.org/2000/svg">
<g opacity="0.5">
<path fill-rule="evenodd" clip-rule="evenodd" d="M3.8396 32C3.8396 16.1667 16.5865 3.41992 32.4197 3.41992C48.2529 3.41992 60.9999 16.1667 60.9999 32C60.9999 47.8334 48.2529 60.5802 32.4197 60.5802C16.5865 60.5802 3.8396 47.8334 3.8396 32ZM32.4198 26.8037C35.2986 26.8037 37.6162 29.1211 37.6162 31.9997C37.6162 34.8783 35.2986 37.1957 32.4198 37.1957C29.541 37.1957 27.2234 34.8783 27.2234 31.9997C27.2234 29.1211 29.541 26.8037 32.4198 26.8037Z" fill="url(#paint0_linear_339_378)"/>
</g>
<path fill-rule="evenodd" clip-rule="evenodd" d="M6.36415 20.9773C9.41216 13.7004 15.3947 7.9799 22.8482 5.2793C18.0958 5.82304 16.9692 6.55249 15.9811 7.19229C15.8408 7.28311 15.7033 7.37213 15.5586 7.45855C11.885 9.65305 10.9026 7.47449 12.5885 5.3424C10.9609 5.50994 9.26544 8.55595 9.45374 10.3708C9.63183 12.087 9.02325 13.7373 8.07736 13.1511C6.50963 12.1796 3.17451 12.7612 3 15.1941C4.13657 14.5994 6.19723 14.2802 5.89629 16.1739C5.72368 17.26 5.52151 19.2296 6.36415 20.9773ZM47.3263 9.38281C46.611 8.10147 45.4545 6.91574 44.5621 6.09363C54.2803 10.639 60.9999 20.4864 60.9999 31.9884C60.9999 47.8282 48.2866 60.5801 32.4947 60.5801C17.2455 60.5801 4.8695 48.6874 4.03677 33.6078C7.27836 32.6617 7.6204 34.1456 7.91028 35.4032C8.06128 36.0583 8.19812 36.652 8.72324 36.8089C12.0328 37.7977 14.0338 37.1543 16.6881 36.3008C17.4974 36.0406 18.3673 35.7609 19.3537 35.5019C19.3537 35.5019 15.7924 36.5005 16.4605 39.8511C16.7956 41.5318 18.1394 41.9996 19.3796 42.4312C20.6117 42.8601 21.7416 43.2534 21.678 44.7653C20.016 42.1768 15.1432 46.6168 17.9303 48.2052C20.0265 49.4 20.6692 49.5622 21.9134 48.1158C24.6234 44.9653 28.4257 43.9733 29.5551 46.3735C27.7449 46.4059 26.7046 46.6862 26.2592 48.7859C25.8138 50.8857 27.7735 53.1641 31.3366 53.8789C34.8998 54.5937 35.9293 53.2187 37.4131 50.6623C38.3856 48.9869 37.3826 47.6971 36.3534 46.3735C35.8853 45.7715 35.4118 45.1626 35.1162 44.5073C33.9215 41.8592 34.284 35.7871 37.4208 35.7266C34.9317 37.4892 37.1781 42.9108 41.1354 44.6758C43.2495 44.7173 44.9398 43.631 45.4557 41.906C46.1238 39.6723 43.6088 38.6702 41.8925 38.0194C43.0832 37.2248 45.8675 36.969 47.3013 38.0388C48.7351 39.1086 49.7538 42.1293 48.5735 43.961C47.1251 46.2087 49.1235 47.8934 51.9584 47.0435C54.2462 46.3577 58.2429 39.6658 49.9096 31.0054C48.8424 29.8963 49.104 27.5556 51.2458 26.7166C51.0717 27.7539 52.0921 29.6651 54.7644 28.5929C57.4368 27.5207 56.7687 20.5515 51.0676 20.9089C49.8301 20.9865 48.8087 21.0725 47.937 21.1459C44.7929 21.4106 43.5957 21.5114 41.2244 20.4621C37.654 18.8821 38.5647 14.3548 40.6009 14.0736C40.5881 15.6241 40.7344 16.9328 44.5649 16.218C48.3953 15.5032 48.5734 11.6165 47.3263 9.38281Z" fill="url(#paint1_linear_339_378)"/>
<defs>
<linearGradient id="paint0_linear_339_378" x1="39.1623" y1="41.3503" x2="0.416921" y2="17.1384" gradientUnits="userSpaceOnUse">
<stop stop-color="#2AD454"/>
<stop offset="1" stop-color="#B3FF5A"/>
</linearGradient>
<linearGradient id="paint1_linear_339_378" x1="38.8416" y1="41.9757" x2="0.600944" y2="16.9129" gradientUnits="userSpaceOnUse">
<stop stop-color="#2AD454"/>
<stop offset="1" stop-color="#B3FF5A"/>
</linearGradient>
</defs>
</svg>
