<svg width="32" height="32" viewBox="0 0 32 32" fill="none" xmlns="http://www.w3.org/2000/svg">
<path opacity="0.4" fill-rule="evenodd" clip-rule="evenodd" d="M8.07407 1H24.3704C25.4509 1 26.4871 1.39509 27.2512 2.09835C28.0152 2.80161 28.4444 3.75544 28.4444 4.75V27.25C28.4444 28.2446 28.0152 29.1984 27.2512 29.9016C26.4871 30.6049 25.4509 31 24.3704 31H8.07407C6.99356 31 5.95731 30.6049 5.19327 29.9016C4.42923 29.1984 4 28.2446 4 27.25V4.75C4 3.75544 4.42923 2.80161 5.19327 2.09835C5.95731 1.39509 6.99356 1 8.07407 1Z" fill="url(#paint0_radial_12_135)"/>
<path fill-rule="evenodd" clip-rule="evenodd" d="M7.27224 24.9243C7.48225 25.3443 7.80893 25.7247 8.29429 25.902C8.77731 26.077 9.25567 25.9953 9.64768 25.832C10.3897 25.5286 11.1294 24.8146 11.8084 23.9979C12.5855 23.0622 13.4022 21.8348 14.1909 20.4744C15.7135 20.023 17.2728 19.706 18.8508 19.527C19.5508 20.4207 20.2742 21.1908 20.9742 21.7438C21.6276 22.2572 22.3813 22.6842 23.1536 22.7169C23.5743 22.7377 23.9909 22.625 24.3437 22.3948C24.7054 22.1592 24.9737 21.8185 25.1697 21.4241C25.3797 21.0018 25.5081 20.5608 25.4917 20.1104C25.477 19.6664 25.3125 19.2404 25.0251 18.9017C24.4977 18.2716 23.6343 17.9683 22.7849 17.8166C21.7546 17.657 20.7092 17.6179 19.6698 17.7C18.7921 16.4592 18.0268 15.1425 17.383 13.7658C17.9664 12.2257 18.4027 10.7696 18.5964 9.57959C18.6804 9.0709 18.7248 8.58554 18.7084 8.14686C18.7055 7.7114 18.6042 7.28224 18.4121 6.89146C18.3014 6.6758 18.1441 6.48748 17.9515 6.34017C17.759 6.19285 17.5361 6.09023 17.299 6.03976C16.8277 5.93942 16.3423 6.03976 15.8966 6.21943C15.0169 6.56945 14.5526 7.31615 14.3776 8.13985C14.2072 8.93322 14.2842 9.85727 14.4849 10.7906C14.6902 11.738 15.0403 12.7694 15.4883 13.8124C14.7716 15.5947 13.9439 17.3303 13.0102 19.009C11.8076 19.3874 10.6484 19.8919 9.55201 20.5141C8.68864 21.0274 7.92094 21.6341 7.45892 22.3505C6.9689 23.1112 6.81722 24.0166 7.27224 24.9243ZM11.5121 21.4662C11.1247 21.6435 10.7677 21.8302 10.441 22.0215C9.67566 22.4742 9.17863 22.9152 8.93129 23.3003C8.71195 23.6363 8.70728 23.8836 8.83795 24.1403C8.85502 24.1763 8.87533 24.2106 8.89862 24.243C8.92646 24.2355 8.95375 24.2262 8.98029 24.215C9.29997 24.0843 9.80866 23.6666 10.462 22.8802C10.8344 22.4259 11.1849 21.954 11.5121 21.4662ZM15.3389 18.3604C15.6166 18.295 15.8919 18.2367 16.1696 18.1784C16.6783 18.0757 17.1893 17.987 17.6957 17.9123C17.2713 17.2618 16.8743 16.5939 16.5056 15.9103C16.1394 16.7376 15.7503 17.5546 15.3389 18.3604ZM21.0465 19.4127C21.3598 19.7572 21.6992 20.0771 22.0616 20.3695C22.6216 20.8128 23.0136 20.9598 23.2236 20.9668C23.2797 20.9737 23.3365 20.9614 23.3846 20.9318C23.4814 20.8558 23.5569 20.7562 23.604 20.6425C23.6877 20.5005 23.7358 20.3404 23.744 20.1758C23.7432 20.1202 23.7215 20.0668 23.6833 20.0264C23.562 19.8818 23.2143 19.6718 22.4746 19.5388C22.0592 19.4641 21.5785 19.4244 21.0465 19.4127ZM16.403 11.2294C16.6176 10.5177 16.7763 9.86431 16.8696 9.29495V9.29729C16.942 8.8586 16.97 8.49692 16.9583 8.21224C16.949 7.96489 16.914 7.82022 16.8837 7.75022C16.7669 7.76467 16.6529 7.79611 16.5453 7.84355C16.3446 7.92522 16.1766 8.0909 16.0879 8.50392C15.9923 8.95194 16.0179 9.5983 16.1953 10.422C16.2546 10.6936 16.3239 10.9629 16.403 11.2294Z" fill="url(#paint1_linear_12_135)"/>
<defs>
<radialGradient id="paint0_radial_12_135" cx="0" cy="0" r="1" gradientUnits="userSpaceOnUse" gradientTransform="translate(7 -2.5) rotate(66.0872) scale(36.9003 41.2899)">
<stop stop-color="#FFF44F"/>
<stop offset="0.06" stop-color="#FFE847"/>
<stop offset="0.168" stop-color="#FFC830"/>
<stop offset="0.304" stop-color="#FF980E"/>
<stop offset="0.356" stop-color="#FF8B16"/>
<stop offset="0.455" stop-color="#FF672A"/>
<stop offset="0.57" stop-color="#FF3647"/>
<stop offset="0.737" stop-color="#E31587"/>
</radialGradient>
<linearGradient id="paint1_linear_12_135" x1="6.73269" y1="6.1968" x2="27.3364" y2="25.8311" gradientUnits="userSpaceOnUse">
<stop stop-color="#F9D423"/>
<stop offset="0.515624" stop-color="#FF4E50"/>
<stop offset="0.991304" stop-color="#8A2387"/>
</linearGradient>
</defs>
</svg>
