<svg width="16" height="16" viewBox="0 0 16 16" fill="none" xmlns="http://www.w3.org/2000/svg">
<rect opacity="0.4" x="1" y="1" width="14" height="14" rx="3" fill="url(#paint0_linear_218_99)"/>
<path d="M3.00012 4.62325C3.00012 4.51493 3.08586 4.42635 3.19416 4.42377C3.53774 4.41556 4.27716 4.3999 4.91542 4.3999C6.11542 4.3999 7.50002 4.7999 7.50002 6.8999C7.50002 8.9999 6.11542 9.3999 4.91532 9.3927C4.82992 9.39643 4.7565 9.39924 4.69618 9.40134C4.58723 9.40514 4.5 9.49437 4.5 9.60339V11.1999C4.5 11.3104 4.41046 11.3999 4.3 11.3999H3.2C3.08955 11.3999 3 11.3104 3 11.1999L3.00012 4.62325ZM4.50002 8.21658C4.50002 8.31923 4.57777 8.40823 4.68041 8.40658C4.72428 8.40587 4.77977 8.40377 4.87817 8.40254C5.63117 8.39314 5.99997 7.57044 5.99997 6.84994C5.99997 6.20274 5.71277 5.42744 4.98977 5.39994C4.87277 5.39548 4.77004 5.39464 4.68928 5.39521C4.58306 5.39597 4.49997 5.4831 4.49997 5.58933L4.50002 8.21658Z" fill="url(#paint1_linear_218_99)"/>
<path d="M9.00016 10.2645C9.00009 10.1067 9.17621 10.0084 9.31691 10.08C9.63612 10.2425 10.0495 10.3999 10.413 10.3999C10.927 10.3999 11.5 9.9931 11.5 9.6999C11.5 9.4063 11.19 9.0584 10.553 8.8354C9.42471 8.4363 8.98901 7.9585 9.00021 7.2898C9.00021 6.2097 9.87161 5.3999 11.224 5.3999C11.724 5.3999 12.2302 5.71186 12.4209 5.84295C12.4718 5.87792 12.5 5.93601 12.5 5.99773V6.55474C12.5 6.70843 12.3368 6.79978 12.2041 6.72236C11.9432 6.57026 11.6031 6.3999 11.28 6.3999C10.866 6.3999 10.5 6.6067 10.5 6.8999C10.5 7.27716 10.8438 7.51273 11.5142 7.75937C12.5532 8.13492 12.9889 8.68643 13 9.53157C13 10.5998 12.2072 11.4493 10.6314 11.3977C10.134 11.3811 9.51972 11.171 9.10283 10.9551C9.03885 10.9219 9.00041 10.8551 9.0004 10.783C9.00036 10.5724 9.00023 10.4319 9.00016 10.2645Z" fill="url(#paint2_linear_218_99)"/>
<defs>
<linearGradient id="paint0_linear_218_99" x1="8" y1="15" x2="8" y2="1" gradientUnits="userSpaceOnUse">
<stop stop-color="#5570FF"/>
<stop offset="1" stop-color="#4DD3FF"/>
</linearGradient>
<linearGradient id="paint1_linear_218_99" x1="5.25001" y1="11.3999" x2="5.25001" y2="4.3999" gradientUnits="userSpaceOnUse">
<stop stop-color="#5558FF"/>
<stop offset="1" stop-color="#00C0FF"/>
</linearGradient>
<linearGradient id="paint2_linear_218_99" x1="11" y1="11.3999" x2="11" y2="5.3999" gradientUnits="userSpaceOnUse">
<stop stop-color="#5558FF"/>
<stop offset="1" stop-color="#00C0FF"/>
</linearGradient>
</defs>
</svg>
