<svg width="16" height="16" viewBox="0 0 16 16" fill="none" xmlns="http://www.w3.org/2000/svg">
<rect opacity="0.4" x="1" y="1" width="14" height="14" rx="3" fill="url(#paint0_linear_218_80)"/>
<path d="M3.2 4C3.08954 4 3 4.08954 3 4.2V10.7707C3 10.8812 3.08954 10.9707 3.2 10.9707H3.48535C3.49344 10.9707 3.5 10.9773 3.5 10.9854V10.9854C3.5 10.9934 3.50656 11 3.51465 11H7.3C7.41046 11 7.5 10.9105 7.5 10.8V10.2C7.5 10.0895 7.41046 10 7.3 10H4.7C4.58954 10 4.5 9.91046 4.5 9.8V8.2C4.5 8.08954 4.58954 8 4.7 8H7.3C7.41046 8 7.5 7.91046 7.5 7.8V7.2C7.5 7.08954 7.41046 7 7.3 7H4.7C4.58954 7 4.5 6.91046 4.5 6.8V5.2C4.5 5.08954 4.58954 5 4.7 5H7.3C7.41046 5 7.5 4.91046 7.5 4.8V4.2C7.5 4.08954 7.41046 4 7.3 4H3.2Z" fill="url(#paint1_linear_218_80)"/>
<path d="M12.8 11C12.9105 11 13 10.9105 13 10.8V8C13 8 13 8 13 8C13 8 13 6 11 6C9 6 9 6.62712 9 6.62712C9 6.62712 9 6.62712 9 6.62712V10.8C9 10.9105 9.08954 11 9.2 11H9.8C9.91046 11 10 10.9105 10 10.8V7.2C10 7.08954 10.0895 7 10.2 7H11C11 7 11 7 11 7C11 7 12 7 12 8V10.8C12 10.9105 12.0895 11 12.2 11H12.8Z" fill="url(#paint2_linear_218_80)"/>
<defs>
<linearGradient id="paint0_linear_218_80" x1="8" y1="15" x2="8" y2="1" gradientUnits="userSpaceOnUse">
<stop stop-color="#5558FF"/>
<stop offset="1" stop-color="#00C0FF"/>
</linearGradient>
<linearGradient id="paint1_linear_218_80" x1="5.25" y1="11" x2="5.25" y2="4" gradientUnits="userSpaceOnUse">
<stop stop-color="#5558FF"/>
<stop offset="1" stop-color="#00C0FF"/>
</linearGradient>
<linearGradient id="paint2_linear_218_80" x1="11" y1="11" x2="11" y2="6" gradientUnits="userSpaceOnUse">
<stop stop-color="#5558FF"/>
<stop offset="1" stop-color="#00C0FF"/>
</linearGradient>
</defs>
</svg>
