<svg width="16" height="16" viewBox="0 0 16 16" fill="none" xmlns="http://www.w3.org/2000/svg">
<rect opacity="0.4" x="1" y="1" width="14" height="14" rx="3" fill="url(#paint0_linear_218_99)"/>
<path d="M9.2 5.97119C9.08954 5.97119 9 6.06073 9 6.17119V11.7712C9 11.8816 9.08954 11.9712 9.2 11.9712H10.8C10.9105 11.9712 11 11.8816 11 11.7712V8.05403C11 8.00099 11.0212 7.94962 11.0595 7.91286C11.7698 7.23014 12.4702 7.0424 12.8016 6.99077C12.9108 6.97377 13 6.88165 13 6.77119V6.17119C13 6.06073 12.9108 5.97377 12.8016 5.99077C12.5173 6.03506 11.9616 6.17949 11.3609 6.65057C11.2207 6.76053 11 6.66653 11 6.48835V6.17119C11 6.06073 10.9105 5.97119 10.8 5.97119H9.2Z" fill="url(#paint1_linear_218_99)"/>
<path d="M3.2 5C3.08954 5 3 5.08954 3 5.2V11V11.9707V11.9707C3 11.9869 3.01312 12 3.0293 12H7.3C7.41046 12 7.5 11.9105 7.5 11.8V11.2C7.5 11.0895 7.41046 11 7.3 11H4.7C4.58954 11 4.5 10.9105 4.5 10.8V5.2C4.5 5.08954 4.41046 5 4.3 5H3.2Z" fill="url(#paint2_linear_218_99)"/>
<defs>
<linearGradient id="paint0_linear_218_99" x1="8" y1="1" x2="8" y2="15" gradientUnits="userSpaceOnUse">
<stop stop-color="#0EEBB6"/>
<stop offset="1" stop-color="#04B6CE"/>
</linearGradient>
<linearGradient id="paint1_linear_218_99" x1="11" y1="5.97119" x2="11" y2="11.9712" gradientUnits="userSpaceOnUse">
<stop stop-color="#0EEBB6"/>
<stop offset="1" stop-color="#04B6CE"/>
</linearGradient>
<linearGradient id="paint2_linear_218_99" x1="5.25" y1="5" x2="5.25" y2="12" gradientUnits="userSpaceOnUse">
<stop stop-color="#0EEBB6"/>
<stop offset="1" stop-color="#04B6CE"/>
</linearGradient>
</defs>
</svg>
