<svg width="48" height="48" viewBox="0 0 48 48" fill="none" xmlns="http://www.w3.org/2000/svg">
<path fill-rule="evenodd" clip-rule="evenodd" d="M15.3835 5.92183C14.9837 5.44207 14.2469 5.44207 13.8471 5.92182L1.36675 20.8983C0.823975 21.5496 1.28713 22.5385 2.13497 22.5385H6.30762C6.8599 22.5385 7.30762 22.9862 7.30762 23.5385V42C7.30762 42.5523 7.75534 43 8.30762 43H20.923C21.4753 43 21.923 42.5523 21.923 42V23.5385C21.923 22.9862 22.3707 22.5385 22.923 22.5385H27.0956C27.9435 22.5385 28.4066 21.5496 27.8639 20.8983L15.3835 5.92183Z" fill="url(#paint0_linear_80_384)"/>
<path fill-rule="evenodd" clip-rule="evenodd" d="M15.3835 5.92183C14.9837 5.44207 14.2469 5.44207 13.8471 5.92182L1.36675 20.8983C0.823975 21.5496 1.28713 22.5385 2.13497 22.5385H6.30762C6.8599 22.5385 7.30762 22.9862 7.30762 23.5385V42C7.30762 42.5523 7.75534 43 8.30762 43H20.923C21.4753 43 21.923 42.5523 21.923 42V23.5385C21.923 22.9862 22.3707 22.5385 22.923 22.5385H27.0956C27.9435 22.5385 28.4066 21.5496 27.8639 20.8983L15.3835 5.92183Z" fill="url(#paint1_linear_80_384)"/>
<path opacity="0.4" fill-rule="evenodd" clip-rule="evenodd" d="M32.1177 28.7646V16C32.1177 15.4477 32.5655 15 33.1177 15H40.2942C40.8465 15 41.2942 15.4477 41.2942 16V28.7646H45.2081C46.0673 28.7646 46.5264 29.7765 45.9607 30.4231L37.4586 40.1398C37.0601 40.5951 36.3518 40.5951 35.9534 40.1398L27.4513 30.4231C26.8855 29.7765 27.3447 28.7646 28.2039 28.7646H32.1177Z" fill="url(#paint2_linear_80_384)"/>
<defs>
<linearGradient id="paint0_linear_80_384" x1="14.6153" y1="43" x2="14.6153" y2="4.99996" gradientUnits="userSpaceOnUse">
<stop stop-color="#ADDCFF"/>
<stop offset="0.5028" stop-color="#EAF6FF"/>
<stop offset="1" stop-color="#EAF6FF"/>
</linearGradient>
<linearGradient id="paint1_linear_80_384" x1="14.6154" y1="43.7619" x2="14.6154" y2="5.56194" gradientUnits="userSpaceOnUse">
<stop stop-color="#5570FF"/>
<stop offset="1" stop-color="#4DD3FF"/>
</linearGradient>
<linearGradient id="paint2_linear_80_384" x1="36.706" y1="40.9999" x2="36.706" y2="14.9999" gradientUnits="userSpaceOnUse">
<stop stop-color="#5570FF"/>
<stop offset="1" stop-color="#4DD3FF"/>
</linearGradient>
</defs>
</svg>
