<svg width="24" height="24" viewBox="0 0 24 24" fill="none" xmlns="http://www.w3.org/2000/svg">
<path d="M3.375 3.75C3.375 2.7215 3.375 2.2078 3.5961 1.825C3.74091 1.57419 3.94919 1.36591 4.2 1.2211C4.5828 1 5.0965 1 6.125 1H13.825C14.8535 1 15.3672 1 15.75 1.2211C16.0008 1.36591 16.2091 1.57419 16.3539 1.825C16.575 2.2078 16.575 2.7215 16.575 3.75C16.575 4.7785 16.575 5.2922 16.3539 5.675C16.2091 5.92581 16.0008 6.13409 15.75 6.2789C15.3672 6.5 14.8535 6.5 13.825 6.5H6.125C5.0965 6.5 4.5828 6.5 4.2 6.2789C3.94919 6.13409 3.74091 5.92581 3.5961 5.675C3.375 5.2922 3.375 4.7785 3.375 3.75ZM7.775 16.4V20.8C7.775 21.8373 7.775 22.3554 8.0973 22.6777C8.4196 23 8.9377 23 9.975 23C11.0123 23 11.5304 23 11.8527 22.6777C12.175 22.3554 12.175 21.8373 12.175 20.8V16.4C12.175 15.3627 12.175 14.8446 11.8527 14.5223C11.5304 14.2 11.0123 14.2 9.975 14.2C8.9377 14.2 8.4196 14.2 8.0973 14.5223C7.775 14.8446 7.775 15.3627 7.775 16.4Z" fill="url(#paint0_linear_443_74)"/>
<path opacity="0.4" d="M17.7247 4.57497C18.2252 4.57497 18.5607 4.57497 18.8203 4.59257C19.0733 4.60907 19.1976 4.63877 19.279 4.66957C19.6343 4.81037 19.9148 5.09087 20.0545 5.44617C20.0875 5.52757 20.1161 5.65187 20.1326 5.90487C20.1502 6.16447 20.1502 6.49997 20.1502 7.00047C20.1502 7.92117 20.1392 8.17417 20.0721 8.36337C19.9573 8.68791 19.7249 8.95757 19.4209 9.11907C19.2438 9.21367 18.9952 9.26207 18.0844 9.39957L13.5491 10.0794C12.6988 10.207 11.986 10.3137 11.4217 10.4732C10.8244 10.6404 10.2953 10.8912 9.88286 11.3708C9.24486 12.1122 9.17446 13.0758 9.15576 14.1868V14.2088C9.38676 14.2 9.65626 14.2 9.97526 14.2C10.2997 14.2 10.5725 14.2 10.8057 14.2099C10.8255 13.0406 10.9344 12.6787 11.1335 12.4477C11.2545 12.308 11.4382 12.1815 11.8683 12.0616C12.3204 11.934 12.9298 11.8416 13.845 11.7041L18.4606 11.0111C19.1756 10.9044 19.7344 10.8219 20.1953 10.5766C20.8643 10.2208 21.3754 9.62683 21.6275 8.91227C21.8013 8.42057 21.8013 7.85627 21.8002 7.13357V6.97297C21.8002 6.50657 21.8002 6.11607 21.7793 5.79597C21.7668 5.46974 21.7029 5.14752 21.5901 4.84117C21.4381 4.45475 21.2082 4.10376 20.9147 3.81005C20.6212 3.51634 20.2703 3.2862 19.884 3.13397C19.5773 3.02105 19.2547 2.95719 18.9281 2.94477C18.5361 2.92596 18.1436 2.91899 17.7511 2.92387H16.5752V4.57387L17.7247 4.57497Z" fill="url(#paint1_linear_443_74)"/>
<path opacity="0.4" fill-rule="evenodd" clip-rule="evenodd" d="M2 3.7498C2 3.53099 2.08692 3.32115 2.24164 3.16643C2.39635 3.01172 2.6062 2.9248 2.825 2.9248H3.375V4.5748H2.825C2.6062 4.5748 2.39635 4.48788 2.24164 4.33316C2.08692 4.17844 2 3.9686 2 3.7498Z" fill="url(#paint2_linear_443_74)"/>
<defs>
<linearGradient id="paint0_linear_443_74" x1="9.975" y1="1" x2="9.975" y2="23" gradientUnits="userSpaceOnUse">
<stop stop-color="#44BCFF"/>
<stop offset="1" stop-color="#0F6596"/>
</linearGradient>
<linearGradient id="paint1_linear_443_74" x1="15.4781" y1="2.92236" x2="15.4781" y2="14.2099" gradientUnits="userSpaceOnUse">
<stop stop-color="#44BCFF"/>
<stop offset="1" stop-color="#0F6596"/>
</linearGradient>
<linearGradient id="paint2_linear_443_74" x1="2.6875" y1="2.9248" x2="2.6875" y2="4.5748" gradientUnits="userSpaceOnUse">
<stop stop-color="#44BCFF"/>
<stop offset="1" stop-color="#0F6596"/>
</linearGradient>
</defs>
</svg>
