<svg width="24" height="24" viewBox="0 0 24 24" fill="none" xmlns="http://www.w3.org/2000/svg">
<path opacity="0.4" d="M1 12C1 6.8146 1 4.2219 2.6104 2.6104C4.223 1 6.8146 1 12 1C17.1854 1 19.7781 1 21.3885 2.6104C23 4.223 23 6.8146 23 12C23 17.1854 23 19.7781 21.3885 21.3885C19.7792 23 17.1854 23 12 23C6.8146 23 4.2219 23 2.6104 21.3885C1 19.7792 1 17.1854 1 12Z" fill="url(#paint0_linear_301_85)"/>
<path d="M13.1845 17.1011C12.7377 16.943 12.0088 16.5652 11.5647 16.2615C10.4666 15.5107 9.75131 15.2555 8.74581 15.2555C7.66351 15.2555 7.12761 15.4295 6.14857 16.0989C5.7154 16.3951 5.29444 16.6374 5.21311 16.6374C4.94292 16.6374 3.91848 14.9834 4.00519 14.6872C4.11482 14.3127 5.51228 13.3371 6.52065 12.9312C7.15757 12.6748 7.65641 12.6 8.7295 12.6C10.3247 12.6 11.1219 12.8565 12.6045 13.847C13.1089 14.184 13.8386 14.544 14.2261 14.6469C15.5252 14.9922 16.9937 14.63 18.07 13.6989C18.2518 13.5416 18.5154 13.4129 18.6558 13.4129C18.9668 13.4129 20.0555 14.8949 19.9978 15.2396C19.9326 15.6289 18.2975 16.7536 17.3011 17.0945C16.1182 17.4993 14.3177 17.5024 13.1845 17.1011Z" fill="url(#paint1_linear_301_85)"/>
<path d="M13.8645 11.2463C13.3769 11.1253 12.3435 10.6487 11.5204 10.1653C10.2623 9.42643 9.91602 9.29058 9.13689 9.23021C8.01918 9.14361 7.35387 9.32984 6.30092 10.0241C5.85509 10.318 5.40582 10.5585 5.30253 10.5585C5.08255 10.5585 4 9.10802 4 8.81328C4 8.55929 4.84817 7.82306 5.66243 7.37025C7.74159 6.21403 10.4159 6.36952 12.52 7.76897C13.6549 8.52384 14.2715 8.73832 15.3066 8.73832C16.2994 8.73832 17.2893 8.38686 18.0235 7.77377C18.2873 7.55346 18.6043 7.3732 18.728 7.3732C18.8517 7.3732 19.216 7.75475 19.5376 8.22109C20.2219 9.2134 20.2043 9.28962 19.0943 10.1448C17.7146 11.2077 15.5472 11.6642 13.8645 11.2463Z" fill="url(#paint2_linear_301_85)"/>
<defs>
<linearGradient id="paint0_linear_301_85" x1="12" y1="23" x2="12" y2="1" gradientUnits="userSpaceOnUse">
<stop stop-color="#5570FF"/>
<stop offset="1" stop-color="#4DD3FF"/>
</linearGradient>
<linearGradient id="paint1_linear_301_85" x1="12" y1="17.4" x2="12" y2="12.6" gradientUnits="userSpaceOnUse">
<stop stop-color="#5570FF"/>
<stop offset="1" stop-color="#4DD3FF"/>
</linearGradient>
<linearGradient id="paint2_linear_301_85" x1="12" y1="11.4" x2="12" y2="6.59998" gradientUnits="userSpaceOnUse">
<stop stop-color="#5570FF"/>
<stop offset="1" stop-color="#4DD3FF"/>
</linearGradient>
</defs>
</svg>
