<svg width="32" height="32" viewBox="0 0 32 32" fill="none" xmlns="http://www.w3.org/2000/svg">
<path opacity="0.4" d="M16 10.7823C16.4125 10.7823 16.8082 10.9462 17.0999 11.238C17.3917 11.5297 17.5555 11.9253 17.5555 12.3379V17.5601C17.5555 18.1124 18.0033 18.5601 18.5555 18.5601H26.8889C27.714 18.5601 28.5053 18.8879 29.0888 19.4713C29.6722 20.0548 30 20.8461 30 21.6712V26.3379C30 27.163 29.6722 27.9543 29.0888 28.5378C28.5053 29.1212 27.714 29.449 26.8889 29.449H5.11111C4.28599 29.449 3.49467 29.1212 2.91122 28.5378C2.32778 27.9543 2 27.163 2 26.3379V21.6712C2 20.8461 2.32778 20.0548 2.91122 19.4713C3.49467 18.8879 4.28599 18.5601 5.11111 18.5601H13.4444C13.9967 18.5601 14.4444 18.1124 14.4444 17.5601V12.3379C14.4444 11.9253 14.6083 11.5297 14.9 11.238C15.1918 10.9462 15.5874 10.7823 16 10.7823Z" fill="url(#paint0_linear_280_124)"/>
<path d="M8.21926 4.00986C8.19359 3.59828 8.00554 3.21374 7.69645 2.94076C7.54328 2.80545 7.36494 2.70166 7.17164 2.63531C6.97833 2.56896 6.77384 2.54135 6.56986 2.55406C6.36588 2.56678 6.16641 2.61956 5.98284 2.7094C5.79927 2.79924 5.6352 2.92437 5.50001 3.07764C3.24077 5.63286 1.99568 8.92709 2.00001 12.3379C2.00009 12.9224 2.03646 13.5063 2.1089 14.0863C2.1688 14.488 2.38347 14.8504 2.70702 15.096C3.03057 15.3415 3.43734 15.4508 3.84039 15.4004C4.24343 15.35 4.61079 15.144 4.86394 14.8264C5.11709 14.5087 5.23595 14.1047 5.19512 13.7005C5.13912 13.2556 5.11112 12.7999 5.11112 12.3379C5.10683 9.68493 6.07535 7.12249 7.83334 5.13564C8.10612 4.82637 8.24493 4.42144 8.21926 4.00986Z" fill="url(#paint1_linear_280_124)"/>
<path d="M30 12.3379C30.0043 8.92709 28.7592 5.63286 26.5 3.07764C26.2271 2.76823 25.8424 2.57989 25.4307 2.55407C25.2268 2.54129 25.0224 2.56879 24.8291 2.635C24.6359 2.70122 24.4575 2.80485 24.3043 2.93998C23.9949 3.21289 23.8066 3.59753 23.7808 4.0093C23.768 4.21319 23.7955 4.41759 23.8617 4.61085C23.9279 4.80411 24.0315 4.98243 24.1667 5.13564C25.9246 7.12249 26.8932 9.68493 26.8889 12.3379C26.8889 12.7999 26.8593 13.2556 26.8049 13.7005C26.7743 13.9056 26.785 14.1148 26.8365 14.3157C26.8879 14.5166 26.979 14.7052 27.1043 14.8704C27.2297 15.0355 27.3868 15.174 27.5665 15.2776C27.7462 15.3812 27.9447 15.4478 28.1505 15.4735C28.3563 15.4992 28.5651 15.4835 28.7647 15.4274C28.9643 15.3712 29.1507 15.2757 29.3129 15.1464C29.4751 15.0172 29.6098 14.8568 29.7091 14.6748C29.8084 14.4927 29.8703 14.2926 29.8911 14.0863C29.9627 13.5123 30 12.929 30 12.3379Z" fill="url(#paint2_linear_280_124)"/>
<path d="M12.7314 7.53803C12.6415 7.35445 12.5164 7.19039 12.3631 7.0552H12.36C12.0506 6.78309 11.6459 6.64485 11.2347 6.6708C10.8235 6.69676 10.4394 6.88479 10.1667 7.19364C9.4357 8.02019 8.88954 8.99323 8.56468 10.0477C8.23983 11.1022 8.14376 12.2139 8.2829 13.3085C8.3428 13.7103 8.55747 14.0726 8.88102 14.3182C9.20457 14.5638 9.61133 14.673 10.0144 14.6227C10.4174 14.5723 10.7848 14.3662 11.0379 14.0486C11.2911 13.7309 11.4099 13.3269 11.3691 12.9227C11.2848 12.2656 11.3421 11.598 11.5371 10.9648C11.7322 10.3316 12.0605 9.74744 12.5 9.25164C12.6353 9.09846 12.7391 8.92013 12.8054 8.72682C12.8718 8.53352 12.8994 8.32903 12.8867 8.12505C12.874 7.92107 12.8212 7.7216 12.7314 7.53803Z" fill="url(#paint3_linear_280_124)"/>
<path d="M23.4358 10.0469C23.1109 8.99205 22.5646 8.01876 21.8333 7.19209C21.6983 7.03842 21.5342 6.91291 21.3505 6.82274C21.1669 6.73257 20.9673 6.67951 20.7631 6.66661C20.5589 6.65371 20.3542 6.68121 20.1606 6.74754C19.9671 6.81387 19.7885 6.91774 19.6352 7.05318C19.4818 7.18862 19.3567 7.35298 19.267 7.53684C19.1773 7.72071 19.1247 7.92047 19.1123 8.12468C19.0999 8.3289 19.1279 8.53356 19.1947 8.72694C19.2615 8.92032 19.3657 9.09862 19.5016 9.25164C19.9408 9.74757 20.2688 10.3318 20.4636 10.9649C20.6584 11.5981 20.7154 12.2657 20.6309 12.9227C20.5901 13.3269 20.7089 13.7309 20.9621 14.0486C21.2152 14.3662 21.5826 14.5723 21.9856 14.6227C22.3887 14.673 22.7954 14.5638 23.119 14.3182C23.4425 14.0726 23.6572 13.7103 23.7171 13.3085C23.8566 12.2137 23.7607 11.1017 23.4358 10.0469Z" fill="url(#paint4_linear_280_124)"/>
<defs>
<linearGradient id="paint0_linear_280_124" x1="1.9959" y1="19.8391" x2="29.9939" y2="19.8391" gradientUnits="userSpaceOnUse">
<stop stop-color="#FD3A84"/>
<stop offset="1" stop-color="#FFA68D"/>
</linearGradient>
<linearGradient id="paint1_linear_280_124" x1="1.9959" y1="8.82661" x2="29.9939" y2="8.82661" gradientUnits="userSpaceOnUse">
<stop stop-color="#FD3A84"/>
<stop offset="1" stop-color="#FFA68D"/>
</linearGradient>
<linearGradient id="paint2_linear_280_124" x1="1.9959" y1="8.82661" x2="29.9939" y2="8.82661" gradientUnits="userSpaceOnUse">
<stop stop-color="#FD3A84"/>
<stop offset="1" stop-color="#FFA68D"/>
</linearGradient>
<linearGradient id="paint3_linear_280_124" x1="1.9959" y1="8.82661" x2="29.9939" y2="8.82661" gradientUnits="userSpaceOnUse">
<stop stop-color="#FD3A84"/>
<stop offset="1" stop-color="#FFA68D"/>
</linearGradient>
<linearGradient id="paint4_linear_280_124" x1="1.9959" y1="8.82661" x2="29.9939" y2="8.82661" gradientUnits="userSpaceOnUse">
<stop stop-color="#FD3A84"/>
<stop offset="1" stop-color="#FFA68D"/>
</linearGradient>
</defs>
</svg>
