<svg width="128" height="128" viewBox="0 0 128 128" fill="none" xmlns="http://www.w3.org/2000/svg">
<path opacity="0.4" d="M103.031 21.125H95.1875C94.0829 21.125 93.1875 20.2296 93.1875 19.125V11.2812C93.1875 9.46912 91.7184 8 89.9062 8H24.2812C22.4691 8 21 9.46912 21 11.2812V103.594C21 105.406 22.4691 106.875 24.2812 106.875H32.125C33.2296 106.875 34.125 107.77 34.125 108.875V116.719C34.125 118.531 35.5941 120 37.4062 120H103.031C104.843 120 106.312 118.531 106.312 116.719V24.4062C106.312 22.5941 104.843 21.125 103.031 21.125ZM99.75 111.438C99.75 112.542 98.8546 113.438 97.75 113.438H42.6875C41.5829 113.438 40.6875 112.542 40.6875 111.437V108.875C40.6875 107.77 41.5829 106.875 42.6875 106.875H89.9062C91.7184 106.875 93.1875 105.406 93.1875 103.594V29.6875C93.1875 28.5829 94.0829 27.6875 95.1875 27.6875H97.75C98.8546 27.6875 99.75 28.5829 99.75 29.6875V111.438Z" fill="url(#paint0_linear_228_319)"/>
<path fill-rule="evenodd" clip-rule="evenodd" d="M33.8855 14C36.0314 14 37.7711 15.7397 37.7711 17.8855V25.9157C37.7711 28.0615 36.0314 29.8012 33.8855 29.8012C31.7397 29.8012 30 28.0615 30 25.9157V17.8855C30 15.7397 31.7397 14 33.8855 14ZM76.6265 88.0843C76.6265 85.9385 78.3662 84.1988 80.5121 84.1988C82.6579 84.1988 84.3976 85.9385 84.3976 88.0843V96.1145C84.3976 98.2603 82.6579 100 80.5121 100C78.3662 100 76.6265 98.2603 76.6265 96.1145V88.0843ZM73.7305 42.2731C71.5409 39.2418 68.4296 37.5723 64.9699 37.5723C62.4263 37.5723 60.2511 38.3568 58.4903 39.447C57.7032 39.9343 56.6943 39.9344 55.9073 39.4471C54.1465 38.357 51.9713 37.5723 49.4277 37.5723C45.968 37.5723 42.8567 39.2417 40.6673 42.2728C38.7997 44.8585 37.7711 48.249 37.7711 51.8193C37.7711 56.9536 40.0379 66.9076 55.2208 75.8866C55.8308 76.2474 56.5146 76.4277 57.1988 76.4277C57.883 76.4277 58.5668 76.2474 59.1768 75.8866C74.3597 66.9076 76.6265 56.9536 76.6265 51.8193C76.6265 48.2487 75.5979 44.8585 73.7305 42.2731Z" fill="url(#paint1_linear_228_319)"/>
<defs>
<linearGradient id="paint0_linear_228_319" x1="63.6562" y1="120" x2="63.6562" y2="8" gradientUnits="userSpaceOnUse">
<stop stop-color="#5570FF"/>
<stop offset="1" stop-color="#4DD3FF"/>
</linearGradient>
<linearGradient id="paint1_linear_228_319" x1="57.1988" y1="100" x2="57.1988" y2="14" gradientUnits="userSpaceOnUse">
<stop stop-color="#5558FF"/>
<stop offset="1" stop-color="#00C0FF"/>
</linearGradient>
</defs>
</svg>
