<svg width="48" height="48" viewBox="0 0 48 48" fill="none" xmlns="http://www.w3.org/2000/svg">
<circle opacity="0.4" cx="23.4616" cy="23.3846" r="19.3846" fill="url(#paint0_linear_60_385)"/>
<path fill-rule="evenodd" clip-rule="evenodd" d="M5.61809 19.3863C6.80353 14.8731 9.66431 10.7995 13.9308 8.17299C15.9252 8.33136 17.9342 9.48146 19.9433 11.6301C21.2585 13.0366 22.5031 14.7991 23.6635 16.8035C23.3922 16.7764 23.1214 16.751 22.8511 16.7274C18.7066 16.3658 14.5419 16.4169 10.9487 17.2473C9.04463 17.6873 7.21096 18.3691 5.61809 19.3863ZM10.6718 42.7645C8.0471 40.9205 5.77244 38.4914 4.06178 35.5345C-2.19357 24.723 1.44298 10.9245 12.1625 4.56809C12.6202 4.29668 13.1649 4.14189 13.7357 4.15801C17.3123 4.25897 20.3644 6.22381 22.865 8.89816C25.0393 11.2235 26.9349 14.2265 28.5599 17.4643C34.9824 18.5392 41.1606 20.3413 45.2519 21.8808C46.6428 22.4042 47.5361 23.7488 47.4875 25.2278C47.0825 37.5549 36.963 47.4232 24.5385 47.4232C19.329 47.4232 14.5247 45.6882 10.6718 42.7645ZM31.0236 23.0149C35.333 23.9134 39.3686 25.0876 42.42 26.1695C41.9453 31.2047 39.391 35.6356 35.6251 38.5939C34.7202 34.1525 33.1702 28.4616 31.0236 23.0149ZM26.3475 22.1764C29.1482 28.608 31.0704 35.8263 31.9805 40.8135C29.713 41.8472 27.1929 42.4232 24.5385 42.4232C14.8578 42.4232 6.96484 34.7632 6.59083 25.1746C7.62023 23.7776 9.41288 22.7339 12.0745 22.1189C14.9542 21.4534 18.537 21.37 22.4164 21.7085C23.7161 21.8219 25.0327 21.9811 26.3475 22.1764Z" fill="url(#paint1_linear_60_385)"/>
<defs>
<linearGradient id="paint0_linear_60_385" x1="23.4616" y1="42.7692" x2="23.4616" y2="4" gradientUnits="userSpaceOnUse">
<stop stop-color="#5570FF"/>
<stop offset="1" stop-color="#4DD3FF"/>
</linearGradient>
<linearGradient id="paint1_linear_60_385" x1="13.6376" y1="21.3008" x2="45.4428" y2="16.7408" gradientUnits="userSpaceOnUse">
<stop stop-color="#0357D1"/>
<stop offset="1" stop-color="#27CDFC"/>
</linearGradient>
</defs>
</svg>
