<svg width="24" height="24" viewBox="0 0 24 24" fill="none" xmlns="http://www.w3.org/2000/svg">
<path opacity="0.4" d="M1 12C1 6.8146 1 4.2219 2.6104 2.6104C4.223 1 6.8146 1 12 1C17.1854 1 19.7781 1 21.3885 2.6104C23 4.223 23 6.8146 23 12C23 17.1854 23 19.7781 21.3885 21.3885C19.7792 23 17.1854 23 12 23C6.8146 23 4.2219 23 2.6104 21.3885C1 19.7792 1 17.1854 1 12Z" fill="url(#paint0_linear_8_1050)"/>
<path d="M4.27841 7.39977C4.46716 7.1734 4.73807 7.03125 5.0316 7.00457C5.32512 6.97788 5.61722 7.06885 5.8437 7.25747L6.25429 7.59839C7.15106 8.34546 7.91444 8.98135 8.44213 9.56685C9.00391 10.1894 9.44118 10.9024 9.44118 11.8169C9.44118 12.7315 9.00391 13.446 8.44213 14.067C7.91444 14.6525 7.15106 15.2884 6.25429 16.0355L5.8437 16.3764C5.73213 16.474 5.60217 16.5483 5.46146 16.595C5.32075 16.6416 5.17213 16.6596 5.02435 16.648C4.87657 16.6363 4.73262 16.5953 4.60095 16.5271C4.46928 16.459 4.35257 16.3653 4.25767 16.2514C4.16277 16.1375 4.09161 16.0058 4.04836 15.864C4.00511 15.7223 3.99066 15.5732 4.00585 15.4258C4.02104 15.2783 4.06557 15.1354 4.13682 15.0054C4.20806 14.8754 4.30459 14.761 4.42071 14.6688L4.76756 14.3798C5.74438 13.5646 6.38324 13.0309 6.79235 12.5774C7.18071 12.1475 7.21777 11.9444 7.21777 11.8169C7.21777 11.6895 7.18071 11.4879 6.79235 11.0565C6.38176 10.603 5.74438 10.0679 4.76756 9.25409L4.42071 8.96505C4.19435 8.7763 4.0522 8.50539 4.02551 8.21187C3.99883 7.91834 4.08979 7.62624 4.27841 7.39977ZM20 15.5226C20 15.8175 19.8829 16.1002 19.6744 16.3087C19.4659 16.5172 19.1831 16.6343 18.8883 16.6343H11.4769C11.1821 16.6343 10.8993 16.5172 10.6908 16.3087C10.4823 16.1002 10.3652 15.8175 10.3652 15.5226C10.3652 15.2278 10.4823 14.945 10.6908 14.7365C10.8993 14.5281 11.1821 14.4109 11.4769 14.4109H18.8883C19.1831 14.4109 19.4659 14.5281 19.6744 14.7365C19.8829 14.945 20 15.2278 20 15.5226Z" fill="url(#paint1_linear_8_1050)"/>
<defs>
<linearGradient id="paint0_linear_8_1050" x1="12" y1="23" x2="12" y2="1" gradientUnits="userSpaceOnUse">
<stop stop-color="#FD5900"/>
<stop offset="1" stop-color="#FFDE00"/>
</linearGradient>
<linearGradient id="paint1_linear_8_1050" x1="12" y1="16.6514" x2="12" y2="7" gradientUnits="userSpaceOnUse">
<stop stop-color="#FD5900"/>
<stop offset="1" stop-color="#FFDE00"/>
</linearGradient>
</defs>
</svg>
