<svg width="32" height="32" viewBox="0 0 32 32" fill="none" xmlns="http://www.w3.org/2000/svg">
<path opacity="0.4" d="M24.3191 24.1797C25.6425 22.6518 26.5184 20.7883 26.8505 18.7945C27.1825 16.8006 26.9577 14.7538 26.2009 12.8795C25.444 11.0053 24.1845 9.3763 22.5611 8.17208C20.9376 6.96787 19.0133 6.23515 17.0001 6.05466V5.00366C17.0001 4.73845 16.8947 4.48409 16.7072 4.29656C16.5196 4.10902 16.2653 4.00366 16.0001 4.00366C15.7348 4.00366 15.4805 4.10902 15.2929 4.29656C15.1054 4.48409 15.0001 4.73845 15.0001 5.00366V6.05466C12.9868 6.23515 11.0625 6.96787 9.43904 8.17208C7.8156 9.3763 6.55608 11.0053 5.79924 12.8795C5.0424 14.7538 4.81761 16.8006 5.14965 18.7945C5.48169 20.7883 6.35766 22.6518 7.68105 24.1797C7.15842 24.4382 6.72168 24.8423 6.42344 25.3434C6.12519 25.8444 5.97816 26.421 6.00005 27.0037C6.00005 27.2689 6.10541 27.5232 6.29295 27.7108C6.48048 27.8983 6.73484 28.0037 7.00005 28.0037C7.26527 28.0037 7.51962 27.8983 7.70716 27.7108C7.8947 27.5232 8.00005 27.2689 8.00005 27.0037C7.99174 26.6954 8.1024 26.3958 8.30907 26.167C8.51574 25.9382 8.80257 25.7977 9.11005 25.7747C9.17884 25.7616 9.24593 25.7408 9.31005 25.7127C11.2256 27.1984 13.5809 28.0047 16.0051 28.0047C18.4292 28.0047 20.7845 27.1984 22.7001 25.7127C22.7586 25.7396 22.8195 25.7611 22.8821 25.7767C23.1906 25.7977 23.4791 25.9371 23.6874 26.1657C23.8957 26.3943 24.0077 26.6945 24.0001 27.0037C24.0001 27.2689 24.1054 27.5232 24.2929 27.7108C24.4805 27.8983 24.7348 28.0037 25.0001 28.0037C25.2653 28.0037 25.5196 27.8983 25.7072 27.7108C25.8947 27.5232 26.0001 27.2689 26.0001 27.0037C26.0219 26.421 25.8749 25.8444 25.5767 25.3434C25.2784 24.8423 24.8417 24.4382 24.3191 24.1797Z" fill="url(#paint0_linear_5_77)"/>
<path fill-rule="evenodd" clip-rule="evenodd" d="M6 8.50376C6.01115 8.15423 6.09296 7.81057 6.24052 7.49351C6.38807 7.17645 6.59831 6.89255 6.85855 6.65894C7.11879 6.42533 7.42365 6.24685 7.75474 6.13424C8.08583 6.02164 8.43629 5.97725 8.785 6.00376C9.05022 6.00376 9.30457 5.89841 9.49211 5.71087C9.67964 5.52333 9.785 5.26898 9.785 5.00376C9.785 4.73855 9.67964 4.48419 9.49211 4.29666C9.30457 4.10912 9.05022 4.00376 8.785 4.00376C8.17386 3.97903 7.56393 4.07642 6.99088 4.29025C6.41784 4.50407 5.89319 4.83003 5.44763 5.24905C5.00207 5.66807 4.64455 6.17174 4.39598 6.73059C4.14742 7.28945 4.0128 7.89226 4 8.50376C4 8.76898 4.10536 9.02333 4.29289 9.21087C4.48043 9.39841 4.73478 9.50376 5 9.50376C5.26522 9.50376 5.51957 9.39841 5.70711 9.21087C5.89464 9.02333 6 8.76898 6 8.50376ZM28 8.50376C28 8.76898 27.8946 9.02333 27.7071 9.21087C27.5195 9.39841 27.2652 9.50376 27 9.50376C26.7347 9.50376 26.4804 9.39841 26.2929 9.21087C26.1053 9.02333 26 8.76898 26 8.50376C25.9888 8.15423 25.907 7.81057 25.7594 7.49351C25.6119 7.17645 25.4017 6.89255 25.1414 6.65894C24.8812 6.42533 24.5763 6.24685 24.2452 6.13424C23.9141 6.02164 23.5637 5.97725 23.215 6.00376C22.9497 6.00376 22.6954 5.89841 22.5079 5.71087C22.3203 5.52333 22.215 5.26898 22.215 5.00376C22.215 4.73855 22.3203 4.48419 22.5079 4.29666C22.6954 4.10912 22.9497 4.00376 23.215 4.00376C23.8261 3.97903 24.436 4.07642 25.0091 4.29025C25.5821 4.50407 26.1068 4.83003 26.5523 5.24905C26.9979 5.66807 27.3554 6.17174 27.604 6.73059C27.8526 7.28945 27.9872 7.89226 28 8.50376ZM18.707 20.707C18.5195 20.8945 18.2652 20.9998 18 20.9998C17.7348 20.9998 17.4805 20.8945 17.293 20.707L14.293 17.707C14.1055 17.5195 14.0001 17.2652 14 17V12C14 11.7348 14.1054 11.4804 14.2929 11.2929C14.4804 11.1054 14.7348 11 15 11C15.2652 11 15.5196 11.1054 15.7071 11.2929C15.8946 11.4804 16 11.7348 16 12V16.586L18.707 19.293C18.8945 19.4805 18.9998 19.7348 18.9998 20C18.9998 20.2652 18.8945 20.5195 18.707 20.707Z" fill="url(#paint1_linear_5_77)"/>
<defs>
<linearGradient id="paint0_linear_5_77" x1="4.68251" y1="4.23983" x2="29.3967" y2="27.5856" gradientUnits="userSpaceOnUse">
<stop stop-color="#F9D423"/>
<stop offset="0.515624" stop-color="#FF4E50"/>
<stop offset="0.991304" stop-color="#8A2387"/>
</linearGradient>
<linearGradient id="paint1_linear_5_77" x1="3.6531" y1="4.16728" x2="20.022" y2="27.9836" gradientUnits="userSpaceOnUse">
<stop stop-color="#F9D423"/>
<stop offset="0.515624" stop-color="#FF4E50"/>
<stop offset="0.991304" stop-color="#8A2387"/>
</linearGradient>
</defs>
</svg>
