<svg width="512" height="512" viewBox="0 0 512 512" fill="none" xmlns="http://www.w3.org/2000/svg">
<path opacity="0.4" d="M472.523 107.758H106.859V39.4766C106.859 32.0329 100.827 26 93.3828 26H39.4766C32.0329 26 26 32.0329 26 39.4766C26 46.9203 32.0329 52.9531 39.4766 52.9531H79.9062V472.523C79.9062 479.967 85.9391 486 93.3828 486C100.827 486 106.859 479.967 106.859 472.523V404.242H148.188C151.763 404.242 155.189 402.821 157.715 400.294L180.724 377.289H223.463L246.472 400.294C248.998 402.821 252.424 404.242 256 404.242H472.523C479.967 404.242 486 398.209 486 390.766V121.234C486 113.791 479.967 107.758 472.523 107.758ZM106.859 215.57H134.711V296.43H106.859V215.57Z" fill="url(#paint0_linear_38_106)"/>
<path d="M198.578 299.066H247.674C249.197 299.066 250.657 299.671 251.734 300.748L303.273 352.282C307.384 356.394 313.561 357.614 318.913 355.396C324.278 353.172 327.777 347.938 327.777 342.133V169.867C327.777 164.062 324.282 158.828 318.913 156.604C313.553 154.382 307.377 155.612 303.273 159.717L251.734 211.252C250.657 212.329 249.197 212.934 247.674 212.934H198.578C190.649 212.934 184.223 219.36 184.223 227.289V284.711C184.223 292.64 190.649 299.066 198.578 299.066ZM299.066 293.611C299.066 298.727 292.881 301.289 289.264 297.671L272.037 280.445C270.96 279.368 270.355 277.907 270.355 276.384V235.615C270.355 234.093 270.96 232.632 272.037 231.555L289.264 214.329C292.881 210.711 299.066 213.273 299.066 218.389V293.611ZM212.934 247.387C212.934 244.215 215.504 241.645 218.676 241.645H235.902C239.074 241.645 241.645 244.215 241.645 247.387V264.613C241.645 267.785 239.074 270.355 235.902 270.355H218.676C215.504 270.355 212.934 267.785 212.934 264.613V247.387Z" fill="url(#paint1_linear_38_106)"/>
<path d="M370.844 299.066C378.773 299.066 385.199 292.64 385.199 284.711V227.289C385.199 219.36 378.773 212.934 370.844 212.934C362.915 212.934 356.488 219.36 356.488 227.289V284.711C356.488 292.64 362.915 299.066 370.844 299.066Z" fill="url(#paint2_linear_38_106)"/>
<path d="M428.266 327.777C436.195 327.777 442.621 321.351 442.621 313.422V198.578C442.621 190.649 436.195 184.223 428.266 184.223C420.337 184.223 413.91 190.649 413.91 198.578V313.422C413.91 321.351 420.337 327.777 428.266 327.777Z" fill="url(#paint3_linear_38_106)"/>
<defs>
<linearGradient id="paint0_linear_38_106" x1="256" y1="486" x2="256" y2="26" gradientUnits="userSpaceOnUse">
<stop stop-color="#FD5900"/>
<stop offset="1" stop-color="#FFDE00"/>
</linearGradient>
<linearGradient id="paint1_linear_38_106" x1="313.422" y1="356.488" x2="313.422" y2="155.511" gradientUnits="userSpaceOnUse">
<stop stop-color="#E34E2B"/>
<stop offset="1" stop-color="#FAA21E"/>
</linearGradient>
<linearGradient id="paint2_linear_38_106" x1="313.422" y1="356.488" x2="313.422" y2="155.511" gradientUnits="userSpaceOnUse">
<stop stop-color="#E34E2B"/>
<stop offset="1" stop-color="#FAA21E"/>
</linearGradient>
<linearGradient id="paint3_linear_38_106" x1="313.422" y1="356.488" x2="313.422" y2="155.511" gradientUnits="userSpaceOnUse">
<stop stop-color="#E34E2B"/>
<stop offset="1" stop-color="#FAA21E"/>
</linearGradient>
</defs>
</svg>
