<svg width="128" height="128" viewBox="0 0 128 128" fill="none" xmlns="http://www.w3.org/2000/svg">
<path opacity="0.4" d="M60.2161 9.13057C91.1284 7.03989 117.776 30.3025 119.868 61.2164C121.742 88.9296 103.51 111.863 77.3833 118.098C78.074 115.719 78.4929 112.171 78.2384 111.869C77.5427 111.043 81.0434 102.409 82.7086 100.843C84.915 98.7693 85.9537 94.1139 85.332 89.1085C84.8704 85.3922 85.1104 83.4597 86.704 78.0412C87.9377 73.846 89.2032 70.8554 90.213 69.7439C91.0819 68.7876 92.7246 66.1288 93.8537 63.8399C96.0185 59.4517 100.249 54.7006 102.877 53.7124C105.51 52.722 107.919 48.6895 107.671 45.6799C107.377 42.1334 106.373 40.6574 104.759 41.4146C103.823 41.8541 103.187 41.6889 102.303 40.7667C101.259 39.6768 101.074 39.728 100.804 41.1896C100.635 42.1079 100.024 42.907 99.446 42.9497C98.6297 43.0104 98.6804 42.3674 99.6853 40.0996C100.397 38.494 100.957 35.9739 100.934 34.4976C100.895 31.8835 98.6067 25.8619 97.5251 25.5426C97.2281 25.4549 94.9951 27.1585 92.5745 29.3143C86.0568 35.1191 75.8126 42.4653 74.0369 42.6077C73.1826 42.6765 71.567 42.5437 70.4497 42.3178C68.3945 41.9023 65.2979 43.3025 57.9764 47.945C54.8132 49.9508 52.9158 50.5009 48.4346 50.7009C44.9902 50.8546 41.8172 51.55 40.1756 52.5157C37.735 53.9515 37.5567 54.2449 38.0112 56.0287C38.2843 57.1005 39.9911 59.4499 41.8012 61.2496L45.0879 64.5247L43.0821 67.7054C41.975 69.4568 40.7482 71.9347 40.3687 73.2053C39.989 74.4758 38.514 76.7721 37.0859 78.3115C34.3323 81.2804 29.1217 89.905 27.4508 94.2491C27.0367 95.3252 22.8042 98.1239 19.879 99.535C13.196 91.0011 8.91886 80.4303 8.13057 68.773C6.03989 37.8607 29.3029 11.2227 60.2161 9.13057Z" fill="url(#paint0_linear_38_253)"/>
<path d="M78.2384 111.869C78.4929 112.171 78.074 115.719 77.3833 118.098C53.7071 119.7 32.4423 113.877 19.879 99.5349C22.8042 98.1238 27.0367 95.3251 27.4508 94.249C29.1217 89.9049 34.3323 81.2803 37.0859 78.3114C38.514 76.772 39.989 74.4757 40.3687 73.2052C40.7482 71.9346 41.975 69.4568 43.0821 67.7053L45.0879 64.5246L41.8013 61.2495C39.9911 59.4498 38.2843 57.1004 38.0112 56.0287C37.5567 54.2448 37.735 53.9514 40.1756 52.5156C41.8172 51.5499 44.9902 50.8545 48.4346 50.7008C52.9158 50.5009 54.8132 49.9507 57.9764 47.945C65.2979 43.3024 68.3945 41.9022 70.4497 42.3177C71.567 42.5436 73.1826 42.6764 74.0369 42.6076C75.8126 42.4652 86.0568 35.1191 92.5745 29.3142C94.9951 27.1584 97.2281 25.4548 97.5251 25.5426C98.6067 25.8618 100.895 31.8834 100.934 34.4975C100.957 35.9738 100.397 38.494 99.6853 40.0995C98.6805 42.3673 98.6297 43.0103 99.446 42.9496C100.024 42.9069 100.635 42.1078 100.804 41.1895C101.074 39.7279 101.259 39.6767 102.303 40.7666C103.187 41.6889 103.823 41.854 104.759 41.4145C106.373 40.6573 107.377 42.1333 107.671 45.6798C107.919 48.6894 105.51 52.722 102.877 53.7123C100.249 54.7005 96.0185 59.4516 93.8538 63.8398C92.7246 66.1287 91.0819 68.7875 90.213 69.7439C89.2032 70.8553 87.9377 73.8459 86.704 78.0411C85.1104 83.4596 84.8704 85.3921 85.332 89.1084C85.9537 94.1138 84.915 98.7693 82.7086 100.843C81.0435 102.409 77.5427 111.043 78.2384 111.869Z" fill="url(#paint1_linear_38_253)"/>
<defs>
<linearGradient id="paint0_linear_38_253" x1="65.3248" y1="130.623" x2="65.3248" y2="-0.624921" gradientUnits="userSpaceOnUse">
<stop stop-color="#5570FF"/>
<stop offset="1" stop-color="#4DD3FF"/>
</linearGradient>
<linearGradient id="paint1_linear_38_253" x1="65.3249" y1="130.623" x2="65.3249" y2="-0.624967" gradientUnits="userSpaceOnUse">
<stop stop-color="#5570FF"/>
<stop offset="1" stop-color="#4DD3FF"/>
</linearGradient>
</defs>
</svg>
