<svg width="48" height="48" viewBox="0 0 48 48" fill="none" xmlns="http://www.w3.org/2000/svg">
<path opacity="0.4" d="M45 24C45 12.402 35.598 3 24 3C12.402 3 3 12.402 3 24C3 35.598 12.402 45 24 45C35.598 45 45 35.598 45 24Z" fill="url(#paint0_linear_54_710)"/>
<path d="M21.5733 36.5891C18.6742 36.2993 17.1789 35.4916 15.6864 34.0237C15.0835 33.4309 14.6739 32.8853 14.3335 32.2225C13.613 30.8195 13.3871 29.2408 13.7398 28.0727C14.0905 26.9117 14.8883 25.6316 16.0112 24.428C16.6347 23.7597 17.0734 23.1767 17.3618 22.6316C17.7098 21.9742 17.7979 21.6237 17.7686 21.0135C17.7402 20.4216 17.6204 20.346 17.287 20.0766C16.971 19.8212 16.1315 19.7703 15.1537 19.8156C14.1991 19.86 13.731 19.8034 13.2751 19.5888C12.9215 19.4223 12.7962 19.2343 12.9055 19.0341C13.0041 18.8534 13.5056 18.3893 14.1264 18.2047C14.4034 18.1223 14.6223 18.0348 14.6126 18.0102C14.6029 17.9855 14.3847 17.8105 14.1277 17.6211C13.0781 16.8483 12.45 15.9764 12.45 15.1167C12.45 14.8781 12.4761 14.7999 12.5909 14.6942C12.717 14.578 12.7695 14.5677 13.0915 14.5965C13.2892 14.6142 13.6467 14.7051 13.8859 14.7985C14.4678 15.0258 15.1965 15.0139 15.7843 14.9363C16.0295 14.9038 16.2879 14.8402 16.3586 14.7948C16.4293 14.7494 16.6221 14.4801 16.7869 14.1965C17.4295 13.0908 18.1099 12.377 18.8722 12.009C19.7506 11.5849 20.9933 11.358 22.1729 11.4064C23.591 11.4647 24.7956 11.9423 25.7792 12.8365C26.4554 13.4512 26.9028 13.6049 27.546 13.4433C27.9984 13.3297 28.0086 13.3303 28.0086 13.4685C28.0086 13.6501 27.8598 13.8855 27.6313 14.0651L27.4209 14.2306L27.6331 14.3533C27.9254 14.5224 27.8908 14.6584 27.543 14.7071C27.2533 14.7477 27.0362 14.8413 27.0362 14.9256C27.0362 14.9553 27.0778 15.2131 27.1286 15.4984C27.2533 16.1982 27.2089 17.3446 27.0393 18.0138C26.7765 19.0516 26.3788 19.7824 25.6993 20.4762C25.1784 21.008 24.5719 21.4244 23.9948 21.6464C23.6042 21.7966 23.4993 21.8911 23.723 21.8911C23.7884 21.8911 24.1552 21.9181 24.5381 21.9511C25.9398 22.0722 26.9361 22.6563 28.3437 23.2952C29.6731 23.8987 30.2381 24.1736 30.9738 23.8081C31.4434 23.5747 32.2316 22.2214 32.7338 21.5622C33.1636 20.9982 33.3582 20.8656 33.7573 20.8656C34.1482 20.8656 34.3737 21.0101 34.6695 21.45C35.0884 22.0728 35.317 22.744 35.4796 23.8289C35.5958 24.6043 35.5631 26.739 35.4192 27.512C34.5587 32.1318 31.5317 35.2421 26.9106 36.2545C25.6634 36.5279 25.1609 36.577 23.4326 36.5946C22.536 36.6038 21.699 36.6016 21.5733 36.5891Z" fill="url(#paint1_linear_54_710)"/>
<defs>
<linearGradient id="paint0_linear_54_710" x1="24" y1="45" x2="24" y2="3" gradientUnits="userSpaceOnUse">
<stop stop-color="#5570FF"/>
<stop offset="1" stop-color="#4DD3FF"/>
</linearGradient>
<linearGradient id="paint1_linear_54_710" x1="24" y1="36.6" x2="24" y2="11.4" gradientUnits="userSpaceOnUse">
<stop stop-color="#5570FF"/>
<stop offset="1" stop-color="#4DD3FF"/>
</linearGradient>
</defs>
</svg>
