<svg width="16" height="16" viewBox="0 0 16 16" fill="none" xmlns="http://www.w3.org/2000/svg">
<path opacity="0.4" fill-rule="evenodd" clip-rule="evenodd" d="M8.66211 6.48624C9.01208 6.49894 9.3299 5.6938 9.5 5.99991L13.9492 13.4709C13.9659 13.4989 13.9755 13.5306 13.9771 13.5632L14.0772 15.5535C14.0858 15.7261 13.8863 15.8277 13.7518 15.7191L12.2519 14.5083C12.2338 14.4937 12.2185 14.4761 12.2065 14.4563L8.65396 8.59458C8.63502 8.56332 8.625 8.52747 8.625 8.49092V6.52751C8.625 6.50688 8.64148 6.48624 8.66211 6.48624Z" fill="url(#paint0_linear_60_377)"/>
<path opacity="0.7" d="M6.9998 5.5C6.64983 5.5127 6.33201 5.70756 6.16191 6.01367L2.04749 13.4733C2.03282 13.4999 2.0244 13.5295 2.02287 13.5598L1.92264 15.5536C1.91396 15.7262 2.11353 15.8278 2.24801 15.7192L3.74495 14.5108C3.76492 14.4946 3.78161 14.4748 3.79409 14.4524L4.38704 13.3867C4.43836 13.2945 4.55242 13.2583 4.64875 13.3014C5.67101 13.7592 6.77871 13.9975 7.90019 14C12.2514 14 15.8883 10.5262 15.9977 6.2006C16.0004 6.09018 15.9106 6.00003 15.8002 6.00003H14.2002C14.0897 6.00003 14.0005 6.09001 13.9968 6.2004C13.8872 9.42135 11.1468 12 7.90019 12C7.12788 11.9967 6.36416 11.8444 5.65076 11.5521C5.54314 11.508 5.50036 11.3798 5.55602 11.2777L7.01252 8.6053C7.02852 8.57594 7.03691 8.54303 7.03691 8.50959V5.54127C7.03691 5.52064 7.02043 5.5 6.9998 5.5Z" fill="url(#paint1_linear_60_377)"/>
<path fill-rule="evenodd" clip-rule="evenodd" d="M6.6 2C6.82091 2 7 1.82091 7 1.6V0.4C7 0.179086 7.17909 0 7.4 0H8.6C8.82091 0 9 0.179086 9 0.4V1.6C9 1.82091 9.17909 2 9.4 2H10C10.554 2 11 2.446 11 3V4V5V6.81502C11 6.93237 10.9485 7.0438 10.8591 7.1198L9 8.7C8.50698 9.19966 7.53146 9.12952 7 8.7L5.14094 7.1198C5.05153 7.0438 5 6.93237 5 6.81502V5V4V3C5 2.446 5.446 2 6 2H6.6ZM9 5C9 5.55228 8.55228 6 8 6C7.44772 6 7 5.55228 7 5C7 4.44772 7.44772 4 8 4C8.55228 4 9 4.44772 9 5Z" fill="url(#paint2_linear_60_377)"/>
<defs>
<linearGradient id="paint0_linear_60_377" x1="11.3623" y1="15.9999" x2="11.3623" y2="5.93042" gradientUnits="userSpaceOnUse">
<stop stop-color="#FD5900"/>
<stop offset="1" stop-color="#FFDE00"/>
</linearGradient>
<linearGradient id="paint1_linear_60_377" x1="8.95018" y1="16" x2="8.95018" y2="5.5" gradientUnits="userSpaceOnUse">
<stop stop-color="#02AA93"/>
<stop offset="1" stop-color="#67FF80"/>
</linearGradient>
<linearGradient id="paint2_linear_60_377" x1="5" y1="9.04894" x2="12.9511" y2="6.75108" gradientUnits="userSpaceOnUse">
<stop stop-color="#0357D1"/>
<stop offset="1" stop-color="#27CDFC"/>
</linearGradient>
</defs>
</svg>
