<svg width="64" height="64" viewBox="0 0 64 64" fill="none" xmlns="http://www.w3.org/2000/svg">
<path opacity="0.4" d="M59.999 31.9995C59.999 16.5358 47.4632 4 31.9995 4C16.5358 4 4 16.5358 4 31.9995C4 47.4632 16.5358 59.999 31.9995 59.999C47.4632 59.999 59.999 47.4632 59.999 31.9995Z" fill="url(#paint0_linear_37_368)"/>
<path fill-rule="evenodd" clip-rule="evenodd" d="M15.39 19.2378C16.1793 18.7642 17.2032 19.0201 17.6768 19.8095L20.7848 24.9896C23.9888 22.8388 27.8493 21.5833 32.0046 21.5833C36.1565 21.5833 40.014 22.8365 43.2163 24.9837L46.3208 19.8095C46.7945 19.0201 47.8183 18.7642 48.6077 19.2378C49.397 19.7114 49.653 20.7352 49.1794 21.5246L45.8441 27.0835C49.2357 30.2919 51.5028 34.6672 51.9964 39.5632C52.0978 41.5844 50.009 41.5849 50.009 41.5849H13.9417C13.9417 41.5849 11.9111 41.586 12.003 39.6609C12.4762 34.7294 14.748 30.3201 18.158 27.0909L14.8183 21.5246C14.3446 20.7352 14.6006 19.7114 15.39 19.2378ZM21.9991 31.5842C22.3274 31.5842 22.6525 31.6489 22.9559 31.7745C23.2592 31.9002 23.5348 32.0843 23.767 32.3165C23.9991 32.5486 24.1833 32.8243 24.309 33.1276C24.4346 33.4309 24.4993 33.7561 24.4993 34.0844C24.4993 34.4127 24.4346 34.7378 24.309 35.0412C24.1833 35.3445 23.9991 35.6201 23.767 35.8523C23.5348 36.0845 23.2592 36.2686 22.9559 36.3943C22.6525 36.5199 22.3274 36.5846 21.9991 36.5846C21.6707 36.5846 21.3456 36.5199 21.0423 36.3943C20.7389 36.2686 20.4633 36.0845 20.2312 35.8523C19.999 35.6201 19.8148 35.3445 19.6892 35.0412C19.5635 34.7378 19.4989 34.4127 19.4989 34.0844C19.4989 33.7561 19.5635 33.4309 19.6892 33.1276C19.8148 32.8243 19.999 32.5486 20.2312 32.3165C20.4633 32.0843 20.7389 31.9002 21.0423 31.7745C21.3456 31.6489 21.6707 31.5842 21.9991 31.5842ZM42.9574 31.7745C42.6541 31.6489 42.329 31.5842 42.0006 31.5842C41.6723 31.5842 41.3472 31.6489 41.0438 31.7745C40.7405 31.9002 40.4649 32.0843 40.2327 32.3165C40.0006 32.5486 39.8164 32.8243 39.6908 33.1276C39.5651 33.4309 39.5004 33.7561 39.5004 34.0844C39.5004 34.4127 39.5651 34.7378 39.6908 35.0412C39.8164 35.3445 40.0006 35.6201 40.2327 35.8523C40.4649 36.0845 40.7405 36.2686 41.0438 36.3943C41.3472 36.5199 41.6723 36.5846 42.0006 36.5846C42.329 36.5846 42.6541 36.5199 42.9574 36.3943C43.2608 36.2686 43.5364 36.0845 43.7685 35.8523C44.0007 35.6201 44.1849 35.3445 44.3105 35.0412C44.4362 34.7378 44.5008 34.4127 44.5008 34.0844C44.5008 33.7561 44.4362 33.4309 44.3105 33.1276C44.1849 32.8243 44.0007 32.5486 43.7685 32.3165C43.5364 32.0843 43.2608 31.9002 42.9574 31.7745Z" fill="url(#paint1_linear_37_368)"/>
<defs>
<linearGradient id="paint0_linear_37_368" x1="31.9995" y1="59.999" x2="31.9995" y2="4" gradientUnits="userSpaceOnUse">
<stop stop-color="#00B59C"/>
<stop offset="1" stop-color="#9CFFAC"/>
</linearGradient>
<linearGradient id="paint1_linear_37_368" x1="32" y1="41.5849" x2="32" y2="19" gradientUnits="userSpaceOnUse">
<stop stop-color="#02AA93"/>
<stop offset="1" stop-color="#67FF80"/>
</linearGradient>
</defs>
</svg>
