<svg width="16" height="16" viewBox="0 0 16 16" fill="none" xmlns="http://www.w3.org/2000/svg">
<path opacity="0.4" d="M9.11084 14.9102C12.9273 14.2967 15.5237 10.7056 14.9102 6.88916C14.2967 3.07274 10.7056 0.47626 6.88916 1.08976C3.07274 1.70326 0.47626 5.29442 1.08976 9.11084C1.70326 12.9273 5.29442 15.5237 9.11084 14.9102Z" fill="#E9375F"/>
<path d="M8.37289 3.32843C8.23884 2.99315 7.76426 2.99309 7.63011 3.32833L4.21953 11.8513C4.11439 12.114 4.30789 12.3999 4.5909 12.3999H5.67262C5.84218 12.3999 5.99331 12.293 6.04978 12.1331L6.50358 10.8485C6.56005 10.6886 6.71118 10.5817 6.88074 10.5817H9.12066C9.29033 10.5817 9.44154 10.6888 9.49793 10.8488L9.95035 12.1328C10.0067 12.2929 10.1579 12.3999 10.3276 12.3999H11.4093C11.6922 12.3999 11.8857 12.1141 11.7807 11.8514L8.37289 3.32843ZM7.62388 7.72025C7.74925 7.36371 8.25353 7.36388 8.37867 7.7205L8.57474 8.27928C8.66601 8.53941 8.47297 8.81172 8.1973 8.81172H7.80474C7.52895 8.81172 7.3359 8.5392 7.42739 8.27903L7.62388 7.72025Z" fill="white"/>
<path d="M8.37289 3.32843C8.23884 2.99315 7.76426 2.99309 7.63011 3.32833L4.21953 11.8513C4.11439 12.114 4.30789 12.3999 4.5909 12.3999H5.67262C5.84218 12.3999 5.99331 12.293 6.04978 12.1331L6.50358 10.8485C6.56005 10.6886 6.71118 10.5817 6.88074 10.5817H9.12066C9.29033 10.5817 9.44154 10.6888 9.49793 10.8488L9.95035 12.1328C10.0067 12.2929 10.1579 12.3999 10.3276 12.3999H11.4093C11.6922 12.3999 11.8857 12.1141 11.7807 11.8514L8.37289 3.32843ZM7.62388 7.72025C7.74925 7.36371 8.25353 7.36388 8.37867 7.7205L8.57474 8.27928C8.66601 8.53941 8.47297 8.81172 8.1973 8.81172H7.80474C7.52895 8.81172 7.3359 8.5392 7.42739 8.27903L7.62388 7.72025Z" fill="#E9375F"/>
</svg>
