<svg width="32" height="32" viewBox="0 0 32 32" fill="none" xmlns="http://www.w3.org/2000/svg">
<path opacity="0.4" d="M16.204 1.001C15.5931 0.985856 14.9899 1.14328 14.4605 1.45602L4.66472 7.25049C3.63453 7.85981 2.99992 8.98599 3 10.2047V21.7944C3 23.013 3.63453 24.1391 4.66457 24.7484L14.7382 27.9136C15.7683 28.5229 17.0373 28.5229 18.0674 27.9136L24.473 24.0052C25.5032 23.3959 26.1378 22.2697 26.1377 21.051L29.25 10.2044C29.2501 8.98569 28.6155 7.85951 27.5853 7.25019L17.7895 1.45572C17.3064 1.17035 16.7615 1.01418 16.204 1.001Z" fill="url(#paint0_linear_128_130)"/>
<path d="M28.9652 8.82959L3.67651 23.8471C3.94383 24.2121 4.27992 24.5184 4.66487 24.748L14.4602 30.5429C14.9664 30.8423 15.5405 31 16.125 31C16.7095 31 17.2837 30.8423 17.7899 30.5429L27.5852 24.748C28.0912 24.4487 28.5115 24.0183 28.8037 23.4999C29.0959 22.9815 29.2499 22.3935 29.25 21.7949V10.2051C29.2494 9.73129 29.1524 9.26284 28.9652 8.82959Z" fill="url(#paint1_linear_128_130)"/>
<defs>
<linearGradient id="paint0_linear_128_130" x1="16.125" y1="1" x2="16.125" y2="28.3706" gradientUnits="userSpaceOnUse">
<stop stop-color="#00FFE0"/>
<stop offset="1" stop-color="#078AA7"/>
</linearGradient>
<linearGradient id="paint1_linear_128_130" x1="16.4633" y1="31" x2="16.4633" y2="8.82959" gradientUnits="userSpaceOnUse">
<stop stop-color="#5570FF"/>
<stop offset="1" stop-color="#4DD3FF"/>
</linearGradient>
</defs>
</svg>
