<svg width="16" height="16" viewBox="0 0 16 16" fill="none" xmlns="http://www.w3.org/2000/svg">
<path d="M4.73756 1.64805C4.82492 1.48993 4.65723 1.29299 4.50476 1.38988C4.19151 1.58896 3.89103 1.81337 3.61379 2.0582C2.40385 3.12411 1.55223 4.58925 1.19128 6.22813C1.06371 6.80916 0.999382 7.40294 0.999887 8C0.998288 9.07213 1.20614 10.1314 1.6071 11.1078C1.67748 11.2792 1.93514 11.2391 1.98175 11.0598V11.0598C2.02452 10.8953 2.2449 10.8923 2.31571 11.0469C2.74649 11.9869 3.35989 12.8176 4.11689 13.4824C4.8532 14.1291 5.70527 14.6013 6.61752 14.8705C6.80036 14.9244 6.94592 14.7158 6.85737 14.5469V14.5469C6.77416 14.3883 6.93027 14.2184 7.10333 14.2647C7.55745 14.3863 8.02311 14.4544 8.49163 14.4668H8.65568C9.55246 14.4682 10.4379 14.2681 11.2561 13.8782C11.3621 13.8277 11.3679 13.6805 11.2726 13.612V13.612C11.1798 13.5454 11.1998 13.4048 11.3033 13.3567C12.1897 12.9453 12.9753 12.3127 13.5937 11.5109C13.6897 11.3866 13.7813 11.2586 13.8684 11.1272C14.0829 10.8036 13.735 10.4012 13.3476 10.4254V10.4254C13.2723 10.431 13.1963 10.4336 13.1207 10.4336V10.4336C13.0816 10.4336 13.0528 10.3971 13.0612 10.359C13.0989 10.1883 13.1265 10.0148 13.1425 9.84024C13.1543 9.71106 13.1589 9.58187 13.1589 9.44922V9.44922C13.159 9.23743 12.9315 9.11472 12.7334 9.18971C12.4968 9.2793 12.2517 9.3422 12.0024 9.37813V9.37813C11.8327 9.40302 11.6989 9.24966 11.7162 9.07907C11.7247 8.99478 11.7307 8.91022 11.7344 8.82578C11.7374 8.76068 11.7399 8.69743 11.7399 8.63164V8.63164C11.7402 8.22474 11.2838 8.02709 10.8985 8.15785C10.8548 8.17268 10.8108 8.18661 10.7665 8.19961C10.6549 8.23233 10.5391 8.25929 10.4234 8.28087C10.421 8.28133 10.4185 8.2801 10.4174 8.27785V8.27785C10.4168 8.27676 10.4166 8.27552 10.4169 8.27432C10.4508 8.09122 10.473 7.90754 10.4821 7.72109C10.4861 7.65106 10.4876 7.57861 10.4876 7.50507V7.50507C10.4876 7.21928 10.1362 7.10871 9.91359 7.2879C9.65207 7.49838 9.36752 7.67503 9.06581 7.81406C8.55265 8.05056 8.00249 8.17304 7.44443 8.17227C6.9473 8.17308 6.45489 8.07667 5.99171 7.88915C5.80734 7.81452 5.81483 7.55916 5.98586 7.45763V7.45763C6.13728 7.36774 6.12261 7.14947 5.97559 7.05254C5.49454 6.73539 5.0861 6.30291 4.78404 5.78516C4.41533 5.1532 4.22063 4.42079 4.22079 3.67422C4.22067 3.43498 4.24106 3.19589 4.28094 2.96055C4.32007 2.72728 4.3782 2.4987 4.45593 2.27695C4.53252 2.05823 4.62596 1.84851 4.73756 1.64805V1.64805Z" fill="url(#paint0_linear_311_465)"/>
<path opacity="0.4" d="M11.5403 3.18203C11.4563 2.43131 11.276 1.71735 10.8731 1.10714C10.8505 1.07282 10.8676 1.05633 10.906 1.07109C11.3886 1.25527 11.8457 1.51017 12.2621 1.83125C12.8622 2.29201 13.3693 2.87726 13.755 3.55391C14.1006 4.16025 14.3421 4.83003 14.468 5.52771C14.4823 5.60721 14.5859 5.62605 14.6192 5.55245C14.6533 5.47705 14.7676 5.4809 14.7879 5.56113C14.8892 5.9608 14.9562 6.36962 14.9856 6.78322C14.9977 6.95216 15.0021 7.12434 14.9993 7.29728C15 7.98352 14.9012 8.66458 14.7067 9.31659C14.6517 9.50104 14.5119 9.64947 14.3274 9.70432L14.3081 9.71001C13.9068 9.82673 13.5805 9.44608 13.5802 9.02814C13.5802 8.92779 13.5762 8.82858 13.5693 8.73009C13.5559 8.53515 13.3379 8.43553 13.1603 8.51696C13.1274 8.53205 13.0942 8.54659 13.0607 8.56056C12.9429 8.60986 12.8227 8.65222 12.7007 8.68768C12.4109 8.77196 12.1613 8.51239 12.1612 8.21056C12.1616 7.96003 12.1392 7.71016 12.0956 7.46408C12.0661 7.29261 11.8674 7.21956 11.7154 7.30425C11.6615 7.33433 11.6068 7.36297 11.5515 7.39025C11.5014 7.41513 11.4507 7.43871 11.3995 7.46101C11.1538 7.56802 10.9091 7.35203 10.9089 7.084C10.9089 6.94247 10.902 6.8011 10.8882 6.66052C10.8629 6.40261 10.9128 6.14167 11.0335 5.91231C11.384 5.24612 11.5689 4.49153 11.5679 3.72072V3.65509V3.61681C11.5676 3.61135 11.5676 3.60588 11.5671 3.60043C11.5656 3.58243 11.5651 3.56332 11.5651 3.54572C11.5641 3.51701 11.5639 3.48965 11.5623 3.46095C11.5607 3.43225 11.5589 3.40215 11.5568 3.37345V3.35977C11.555 3.33256 11.5515 3.30473 11.549 3.27773C11.5487 3.2741 11.5488 3.27043 11.5485 3.2668C11.5459 3.2388 11.5436 3.20968 11.5403 3.18203Z" fill="url(#paint1_linear_311_465)"/>
<defs>
<linearGradient id="paint0_linear_311_465" x1="13.7775" y1="1.24062" x2="0.964735" y2="14.1177" gradientUnits="userSpaceOnUse">
<stop stop-color="#D800BD"/>
<stop offset="0.408098" stop-color="#F92D7A"/>
<stop offset="0.590073" stop-color="#FF4A52"/>
<stop offset="1" stop-color="#FFB243"/>
</linearGradient>
<linearGradient id="paint1_linear_311_465" x1="14.8098" y1="1.15199" x2="8.3399" y2="4.38307" gradientUnits="userSpaceOnUse">
<stop stop-color="#D800BD"/>
<stop offset="0.408098" stop-color="#F92D7A"/>
<stop offset="0.590073" stop-color="#FF4A52"/>
<stop offset="1" stop-color="#FFB243"/>
</linearGradient>
</defs>
</svg>
