<svg width="64" height="64" viewBox="0 0 64 64" fill="none" xmlns="http://www.w3.org/2000/svg">
<path opacity="0.4" d="M32.2156 59.9999L32.2184 59.9943C47.6282 59.8769 60 47.4391 60 32C60 16.488 47.512 4 32 4C17.048 4 4.9086 15.6046 4.0518 30.3354L4 30.3844V54.4C4 57.5024 6.4976 60 9.6 60L32.2156 59.9999Z" fill="url(#paint0_linear_231_184)"/>
<path d="M16.403 16.3547C15.9452 15.6108 16.5942 14.6787 17.4508 14.8501L30.7561 17.5111C31.0383 17.5676 31.2824 17.7428 31.4262 17.992L36.9114 27.4997C37.09 27.8093 37.4203 28 37.7776 28H45.951C46.3382 28 46.6906 28.2236 46.8556 28.5739L48.797 32.6953C49.1387 33.4207 48.5305 34.2331 47.7382 34.1095L45.5899 33.7743C45.105 33.6986 44.6368 33.9861 44.4849 34.4528L43.2 38.3999L28 35.1999L16.403 16.3547Z" fill="url(#paint1_linear_231_184)"/>
<path d="M30.682 51.5767C30.9977 51.3471 31.1509 50.9547 31.0744 50.5718L28 35.1999L30.1049 45.7131C30.2459 46.417 31.0606 46.7475 31.6521 46.3408L43.2 38.3999L28 35.1999L23.0675 54.9299C22.8409 55.8362 23.8703 56.5306 24.6258 55.9812L30.682 51.5767Z" fill="url(#paint2_linear_231_184)"/>
<defs>
<linearGradient id="paint0_linear_231_184" x1="32" y1="60" x2="32" y2="4" gradientUnits="userSpaceOnUse">
<stop stop-color="#5570FF"/>
<stop offset="1" stop-color="#4DD3FF"/>
</linearGradient>
<linearGradient id="paint1_linear_231_184" x1="32.4" y1="57.5999" x2="32.4" y2="14.3999" gradientUnits="userSpaceOnUse">
<stop stop-color="#5570FF"/>
<stop offset="1" stop-color="#4DD3FF"/>
</linearGradient>
<linearGradient id="paint2_linear_231_184" x1="32.4" y1="57.5999" x2="32.4" y2="14.3999" gradientUnits="userSpaceOnUse">
<stop stop-color="#5570FF"/>
<stop offset="1" stop-color="#4DD3FF"/>
</linearGradient>
</defs>
</svg>
