<svg width="16" height="16" viewBox="0 0 16 16" fill="none" xmlns="http://www.w3.org/2000/svg">
<path d="M8.00009 1C7.66544 1.00171 7.33136 1.02741 7.00044 1.07691C6.96134 1.08275 6.92781 1.09778 6.89899 1.12484C6.1124 1.86331 1.62578 6.31893 1.10425 6.88148C1.09865 6.88752 1.09643 6.89353 1.09515 6.90166V6.90166C1.08924 6.93926 1.13253 6.96372 1.16173 6.9393C1.29763 6.82567 1.47731 6.67004 1.67749 6.48861C1.79769 6.37967 1.94593 6.25095 2.00699 6.20218C2.06805 6.15341 2.18088 6.05587 2.25718 5.98548C2.46911 5.78999 2.9703 5.34585 3.11715 5.22327C3.18919 5.16313 3.46913 4.91693 3.73923 4.67639C4.00932 4.43585 4.35847 4.12826 4.51511 3.99279C4.67174 3.85733 4.9966 3.56189 5.23699 3.33654C5.70065 2.90189 7.13279 1.63179 7.29188 1.51407C7.34385 1.47561 7.39217 1.4496 7.39921 1.45664C7.41476 1.4722 7.32452 1.62358 7.00614 2.11495C6.87254 2.32113 6.35094 3.12968 5.84676 3.91144C5.34258 4.6932 4.71688 5.66306 4.45632 6.06683C4.19576 6.47059 3.61992 7.36337 3.17662 8.05063C2.73333 8.73789 2.15492 9.63371 1.89146 10.0419C1.7591 10.247 1.65345 10.4168 1.57185 10.5522C1.53956 10.6057 1.53472 10.6716 1.55916 10.7292C2.58407 13.1432 4.8749 14.7848 7.49616 14.9748C7.57793 14.9757 7.57403 14.9736 7.56222 14.9719C7.46879 14.9584 7.7131 14.9134 7.73679 14.8221C8.59384 11.5162 9.33022 5.96276 11.2256 2.00036C11.2611 1.92626 11.2241 1.87741 11.1746 1.83877C11.0892 1.77224 10.9703 1.67018 10.8717 1.62546C9.97023 1.21642 8.99151 1.00293 8.00009 1Z" fill="url(#paint0_linear_297_111)"/>
<g opacity="0.4">
<path d="M6.93636 1.09033C5.47615 1.31671 4.12503 1.99937 3.0765 3.04054C2.02796 4.08171 1.33579 5.42798 1.09912 6.88656C1.59876 6.34437 6.27421 1.70266 6.93636 1.09033Z" fill="url(#paint1_linear_297_111)"/>
<path d="M1.09711 6.88955L1.09912 6.88656C1.09293 6.9216 1.08705 6.95695 1.08139 6.99209C1.08638 6.95787 1.09162 6.92369 1.09711 6.88955Z" fill="url(#paint2_linear_297_111)"/>
<path d="M10.2709 1.39197V1.39334C10.3299 1.41193 10.3887 1.4313 10.4472 1.45144C10.3887 1.43084 10.3299 1.41101 10.2709 1.39197Z" fill="url(#paint3_linear_297_111)"/>
<path d="M10.9818 1.68036C11.0035 1.68982 11.0252 1.69939 11.0468 1.70907C11.0398 1.72443 11.0334 1.73901 11.0268 1.75373C10.9968 1.82043 10.9662 1.88836 10.9 2.02686C8.9746 6.05188 7.7609 10.3879 7.56058 13.9543C7.54224 14.2807 7.51757 14.6818 7.50589 14.845L7.49632 14.9722C7.66386 14.9875 7.83191 14.9969 8.00013 15.0002C8.2408 14.9998 8.48129 14.987 8.72064 14.9619L14.9544 8.72817C14.9823 8.48646 14.9976 8.24345 15.0002 8.00014C14.9959 5.31907 13.4606 2.87602 11.0468 1.70907L11.0475 1.70839C11.0256 1.69894 11.0037 1.68959 10.9818 1.68036Z" fill="url(#paint4_linear_297_111)"/>
<path d="M7.29184 1.5142C7.34381 1.47575 7.39213 1.44974 7.39916 1.45678C7.41471 1.47234 7.32447 1.62372 7.00609 2.11509C6.8725 2.32126 6.35089 3.12982 5.84671 3.91158C5.34253 4.69334 4.71683 5.6632 4.45627 6.06697L3.17658 8.05077C2.86941 8.52699 2.49736 9.10334 2.21018 9.54823L1.89141 10.0421C1.72962 10.2928 1.60773 10.4907 1.5209 10.6375C1.57735 10.7681 1.63776 10.8969 1.70206 11.0237C1.74446 11.117 1.7889 11.2093 1.83536 11.3006C1.85601 11.3361 1.87697 11.3714 1.89825 11.4065V11.423C1.31063 10.3778 1.00133 9.19921 1 8.00018C1.00284 7.66786 1.02934 7.33616 1.0793 7.0076C1.22023 6.89241 1.43363 6.70973 1.67745 6.48875C1.79764 6.37981 1.94588 6.25108 2.00694 6.20232C2.068 6.15355 2.18083 6.056 2.25714 5.98562C2.46907 5.79013 2.97025 5.34599 3.1171 5.22341C3.18914 5.16327 3.46908 4.91707 3.73918 4.67653C4.00927 4.43599 4.35843 4.12839 4.51506 3.99293C4.6717 3.85747 4.99655 3.56203 5.23694 3.33668C5.7006 2.90202 7.13275 1.63192 7.29184 1.5142Z" fill="url(#paint5_linear_297_111)"/>
<path d="M14.9544 8.72817L8.72064 14.9619C10.3169 14.7949 11.8072 14.0846 12.9421 12.9497C14.0769 11.8149 14.7874 10.3244 14.9544 8.72817Z" fill="url(#paint6_linear_297_111)"/>
</g>
<defs>
<linearGradient id="paint0_linear_297_111" x1="10.8964" y1="1.3995" x2="4.21324" y2="13.5984" gradientUnits="userSpaceOnUse">
<stop stop-color="#FE0F7C"/>
<stop offset="1" stop-color="#DF0066"/>
</linearGradient>
<linearGradient id="paint1_linear_297_111" x1="14.5272" y1="1.42483" x2="9.08356" y2="15.1185" gradientUnits="userSpaceOnUse">
<stop stop-color="#FE0F7C"/>
<stop offset="1" stop-color="#DF0066"/>
</linearGradient>
<linearGradient id="paint2_linear_297_111" x1="14.5272" y1="1.42483" x2="9.08356" y2="15.1185" gradientUnits="userSpaceOnUse">
<stop stop-color="#FE0F7C"/>
<stop offset="1" stop-color="#DF0066"/>
</linearGradient>
<linearGradient id="paint3_linear_297_111" x1="14.5272" y1="1.42483" x2="9.08356" y2="15.1185" gradientUnits="userSpaceOnUse">
<stop stop-color="#FE0F7C"/>
<stop offset="1" stop-color="#DF0066"/>
</linearGradient>
<linearGradient id="paint4_linear_297_111" x1="14.5272" y1="1.42483" x2="9.08356" y2="15.1185" gradientUnits="userSpaceOnUse">
<stop stop-color="#FE0F7C"/>
<stop offset="1" stop-color="#DF0066"/>
</linearGradient>
<linearGradient id="paint5_linear_297_111" x1="14.5272" y1="1.42483" x2="9.08356" y2="15.1185" gradientUnits="userSpaceOnUse">
<stop stop-color="#FE0F7C"/>
<stop offset="1" stop-color="#DF0066"/>
</linearGradient>
<linearGradient id="paint6_linear_297_111" x1="14.5272" y1="1.42483" x2="9.08356" y2="15.1185" gradientUnits="userSpaceOnUse">
<stop stop-color="#FE0F7C"/>
<stop offset="1" stop-color="#DF0066"/>
</linearGradient>
</defs>
</svg>
