<svg width="64" height="64" viewBox="0 0 64 64" fill="none" xmlns="http://www.w3.org/2000/svg">
<path opacity="0.4" d="M47.4062 3H16.5938C9.08613 3 3 9.08613 3 16.5938V47.4062C3 54.9139 9.08613 61 16.5938 61H47.4062C54.9139 61 61 54.9139 61 47.4062V16.5938C61 9.08613 54.9139 3 47.4062 3Z" fill="url(#paint0_linear_297_138)"/>
<path d="M12.4797 26.1097C12.5729 25.6421 12.9835 25.3053 13.4604 25.3053H19.4621C21.4644 25.3221 22.9154 25.8994 23.815 27.0363C24.7145 28.1731 25.0114 29.7259 24.7059 31.6946C24.5873 32.5942 24.3241 33.4765 23.9168 34.3419C23.5263 35.2074 22.9836 35.9879 22.2876 36.6838C21.439 37.5661 20.5312 38.1261 19.5639 38.3639C18.5966 38.6016 17.5952 38.7202 16.5602 38.7202H14.3254C13.8487 38.7202 13.4383 39.0567 13.3448 39.5241L12.6991 42.7528C12.6056 43.2203 12.1952 43.5567 11.7185 43.5567H10.2191C9.58831 43.5567 9.11507 42.9798 9.23845 42.3611L12.4797 26.1097ZM15.6037 28.2219C15.6081 28.2175 15.6155 28.2215 15.6143 28.2276L14.1512 35.5429C14.1183 35.7074 14.2287 35.8692 14.3965 35.8692V35.8692H14.7529C16.382 35.8861 17.7398 35.7252 18.8257 35.3856C19.9117 35.0292 20.6417 33.7906 21.0149 31.6691C21.3203 29.8873 21.0149 28.8604 20.0985 28.589C19.1989 28.3177 18.0707 28.1904 16.7129 28.2072C16.5093 28.224 16.3143 28.2327 16.1275 28.2327H15.6081C15.6025 28.2327 15.5997 28.2259 15.6037 28.2219V28.2219ZM28.5753 21.2467C28.669 20.7795 29.0793 20.4434 29.5558 20.4434H31.0245C31.6572 20.4434 32.1308 21.0235 32.0043 21.6434L31.5016 24.1053C31.375 24.7252 31.8487 25.3053 32.4814 25.3053H34.413C36.1439 25.3394 37.4335 25.6958 38.2822 26.3744C39.1477 27.0531 39.4022 28.3431 39.0458 30.2436L37.5019 37.9175C37.4079 38.3844 36.9978 38.7202 36.5215 38.7202H34.9979C34.3664 38.7202 33.893 38.1421 34.0176 37.5229L35.4057 30.6255C35.5753 29.7768 35.5244 29.1745 35.253 28.8181C34.9817 28.4618 34.3962 28.2836 33.4966 28.2836L31.4988 28.2656C31.0186 28.2613 30.6031 28.5989 30.5091 29.0699L28.7442 37.9159C28.6509 38.3835 28.2404 38.7202 27.7635 38.7202H26.2914C25.6601 38.7202 25.1868 38.1425 25.3109 37.5236L28.5753 21.2467ZM42.6576 26.1097C42.7509 25.6421 43.1614 25.3053 43.6383 25.3053H49.64C51.6424 25.3221 53.0933 25.8994 53.9929 27.0363C54.8925 28.1731 55.1893 29.7259 54.8838 31.6946C54.7652 32.5942 54.502 33.4765 54.0947 34.3419C53.7042 35.2074 53.1615 35.9879 52.4656 36.6838C51.6169 37.5661 50.7092 38.1261 49.7419 38.3639C48.7746 38.6016 47.7732 38.7202 46.7381 38.7202H44.5033C44.0266 38.7202 43.6162 39.0567 43.5227 39.5241L42.877 42.7528C42.7835 43.2203 42.3731 43.5567 41.8964 43.5567H40.3971C39.7662 43.5567 39.293 42.9798 39.4164 42.3611L42.6576 26.1097ZM45.7816 28.2219C45.786 28.2175 45.7934 28.2215 45.7922 28.2276L44.3292 35.5429C44.2963 35.7074 44.4067 35.8692 44.5744 35.8692V35.8692H44.9308C46.5599 35.8861 47.9177 35.7252 49.0037 35.3856C50.0896 35.0292 50.8196 33.7906 51.1928 31.6691C51.4983 29.8873 51.1928 28.8604 50.2764 28.589C49.3768 28.3177 48.2486 28.1904 46.8909 28.2072C46.6872 28.224 46.4922 28.2327 46.3054 28.2327H45.786C45.7804 28.2327 45.7776 28.2259 45.7816 28.2219V28.2219Z" fill="url(#paint1_linear_297_138)"/>
<defs>
<linearGradient id="paint0_linear_297_138" x1="13.875" y1="9.57031" x2="50.4648" y2="48.6523" gradientUnits="userSpaceOnUse">
<stop stop-color="#8F0CFF"/>
<stop offset="0.516064" stop-color="#AA1DFF"/>
<stop offset="1" stop-color="#B826FF"/>
</linearGradient>
<linearGradient id="paint1_linear_297_138" x1="17.625" y1="23.0617" x2="28.8823" y2="46.9919" gradientUnits="userSpaceOnUse">
<stop stop-color="#8F0CFF"/>
<stop offset="0.516064" stop-color="#AA1DFF"/>
<stop offset="1" stop-color="#B826FF"/>
</linearGradient>
</defs>
</svg>
