<svg width="24" height="24" viewBox="0 0 24 24" fill="none" xmlns="http://www.w3.org/2000/svg">
<path d="M14.8464 3.52326C14.1206 3.17874 13.3272 3 12.5238 3C11.7204 3 10.927 3.17874 10.2012 3.52326L5.70276 5.63107C6.22141 5.68625 6.70712 5.91189 7.0838 6.27266C7.46048 6.63343 7.70687 7.10895 7.78437 7.62474C7.86187 8.14053 7.7661 8.66746 7.51208 9.123C7.25805 9.57854 6.8601 9.93695 6.38057 10.1421L5.25333 10.6251C4.6939 10.866 4.37647 11.0043 4.16171 11.1143C4.16056 11.1318 4.15952 11.1492 4.15857 11.1667L10.2012 13.9995C10.927 14.344 11.7204 14.5227 12.5238 14.5227C13.3272 14.5227 14.1206 14.344 14.8464 13.9995L21.856 10.7131C23.3813 9.99859 23.3813 7.52412 21.856 6.80964L14.8464 3.52326Z" fill="url(#paint0_linear_36_208)"/>
<path d="M5.76143 8.69846C5.95314 8.6165 6.10444 8.46173 6.18205 8.26821C6.25965 8.07469 6.2572 7.85827 6.17524 7.66656C6.09327 7.47484 5.93851 7.32354 5.74499 7.24594C5.55147 7.16833 5.33505 7.17078 5.14333 7.25275L3.97838 7.75246C3.39486 8.00284 2.89933 8.21446 2.51171 8.43341C2.0979 8.66599 1.74276 8.93837 1.47562 9.34275C1.20952 9.74713 1.09848 10.1808 1.04819 10.6523C1 11.0965 1 11.6339 1 12.2708V15.31C1 15.5184 1.08278 15.7182 1.23013 15.8656C1.37748 16.0129 1.57733 16.0957 1.78571 16.0957C1.9941 16.0957 2.19395 16.0129 2.3413 15.8656C2.48865 15.7182 2.57143 15.5184 2.57143 15.31V12.3117C2.57143 11.6245 2.57248 11.1719 2.61019 10.823C2.64581 10.493 2.70762 10.3307 2.78829 10.2091C2.86686 10.0887 2.99257 9.96713 3.28171 9.8037C3.58762 9.63189 4.00352 9.45275 4.63524 9.18246L5.76143 8.69951V8.69846Z" fill="url(#paint1_linear_36_208)"/>
<path opacity="0.4" d="M5.19048 11.6506L10.2012 13.9994C10.927 14.3439 11.7204 14.5227 12.5238 14.5227C13.3272 14.5227 14.1206 14.3439 14.8464 13.9994L19.8571 11.6506V17.2732C19.8571 18.3292 19.3302 19.3182 18.4062 19.8294C16.8672 20.6832 14.4053 21.8565 12.5238 21.8565C10.6423 21.8565 8.18038 20.6822 6.64143 19.8294C5.71848 19.3182 5.19048 18.3292 5.19048 17.2732V11.6506Z" fill="url(#paint2_linear_36_208)"/>
<defs>
<linearGradient id="paint0_linear_36_208" x1="13.5793" y1="14.5227" x2="13.5793" y2="3" gradientUnits="userSpaceOnUse">
<stop stop-color="#A93AFF"/>
<stop offset="1" stop-color="#FF81FF"/>
</linearGradient>
<linearGradient id="paint1_linear_36_208" x1="3.61927" y1="16.0957" x2="3.61927" y2="7.18945" gradientUnits="userSpaceOnUse">
<stop stop-color="#A93AFF"/>
<stop offset="1" stop-color="#FF81FF"/>
</linearGradient>
<linearGradient id="paint2_linear_36_208" x1="12.5238" y1="21.8565" x2="12.5238" y2="11.6506" gradientUnits="userSpaceOnUse">
<stop stop-color="#A93AFF"/>
<stop offset="1" stop-color="#FF81FF"/>
</linearGradient>
</defs>
</svg>
