<svg width="32" height="32" viewBox="0 0 32 32" fill="none" xmlns="http://www.w3.org/2000/svg">
<path d="M2.80998 4.99815C2.33969 5.08918 2 5.50091 2 5.97993V25.7701C2 26.2433 2.33166 26.6517 2.79478 26.7488L17.0953 29.7473C17.7166 29.8776 18.3005 29.4034 18.3005 28.7686V3.21211C18.3005 2.58359 17.7275 2.11089 17.1105 2.23033L2.80998 4.99815ZM10.2123 20.8518C5.0304 20.5176 5.56409 11.1772 10.3332 11.103C15.4423 11.4407 14.9411 20.7772 10.2123 20.8518ZM10.287 12.9318C7.55702 13.1214 7.67924 18.9697 10.2449 19.0166C12.963 18.8415 12.8034 12.9773 10.287 12.9318Z" fill="url(#paint0_linear_41_142)"/>
<g opacity="0.4">
<path d="M29.6888 11.2821C29.492 11.4129 23.7908 15.2 22.0884 16.3396C22.0879 16.34 21.0784 16.6571 21.0779 16.6567L20.8966 16.5322C20.2331 16.0765 19.3305 16.5515 19.3305 17.3564L19.3302 21.9003C19.3301 22.4526 19.7778 22.9003 20.3302 22.9003H28.2038C28.9926 22.9003 29.6941 22.4407 29.6941 21.345V11.292C29.6941 11.2863 29.6936 11.2789 29.6888 11.2821Z" fill="url(#paint1_linear_41_142)"/>
<path d="M19.3311 12.8614V8.93652C19.3311 8.38424 19.7788 7.93652 20.3311 7.93652H28.7338C28.9811 7.93652 29.3648 8.17714 29.5636 8.55434C29.7187 8.84848 29.5276 9.17632 29.2519 9.3622L21.5453 14.558C21.4857 14.5982 21.4195 14.6306 21.3476 14.6301C21.2787 14.6296 21.2155 14.6 21.1573 14.5633L19.7982 13.7076C19.5075 13.5246 19.3311 13.205 19.3311 12.8614Z" fill="url(#paint2_linear_41_142)"/>
</g>
<defs>
<linearGradient id="paint0_linear_41_142" x1="10.1502" y1="30" x2="10.1502" y2="2" gradientUnits="userSpaceOnUse">
<stop stop-color="#5558FF"/>
<stop offset="1" stop-color="#00C0FF"/>
</linearGradient>
<linearGradient id="paint1_linear_41_142" x1="24.5121" y1="22.9003" x2="24.5121" y2="7.93652" gradientUnits="userSpaceOnUse">
<stop stop-color="#5558FF"/>
<stop offset="1" stop-color="#00C0FF"/>
</linearGradient>
<linearGradient id="paint2_linear_41_142" x1="24.5121" y1="22.9003" x2="24.5121" y2="7.93652" gradientUnits="userSpaceOnUse">
<stop stop-color="#5558FF"/>
<stop offset="1" stop-color="#00C0FF"/>
</linearGradient>
</defs>
</svg>
