<svg width="24" height="24" viewBox="0 0 24 24" fill="none" xmlns="http://www.w3.org/2000/svg">
<path opacity="0.5" d="M12 23C6.8146 23 4.2219 23 2.6104 21.3885C1 19.7792 1 17.1854 1 12C1 6.8146 1 4.2219 2.6104 2.6104C4.223 1 6.8146 1 12 1C17.1854 1 19.7781 1 21.3885 2.6104C23 4.223 23 6.8146 23 12C23 17.1854 23 19.7781 21.3885 21.3885C19.7792 23 17.1854 23 12 23Z" fill="url(#paint0_linear_8_207)"/>
<path fill-rule="evenodd" clip-rule="evenodd" d="M12 6.77502C10.6143 6.77502 9.28527 7.32551 8.30539 8.30539C7.32551 9.28527 6.77502 10.6143 6.77502 12C6.77502 13.3858 7.32551 14.7148 8.30539 15.6947C9.28527 16.6745 10.6143 17.225 12 17.225C13.3858 17.225 14.7148 16.6745 15.6947 15.6947C16.6745 14.7148 17.225 13.3858 17.225 12C17.225 10.6143 16.6745 9.28527 15.6947 8.30539C14.7148 7.32551 13.3858 6.77502 12 6.77502ZM12 8.42502C11.0519 8.42502 10.1426 8.80168 9.47212 9.47212C8.80168 10.1426 8.42502 11.0519 8.42502 12C8.42502 12.9482 8.80168 13.8575 9.47212 14.5279C10.1426 15.1984 11.0519 15.575 12 15.575C12.9482 15.575 13.8575 15.1984 14.5279 14.5279C15.1984 13.8575 15.575 12.9482 15.575 12C15.575 11.0519 15.1984 10.1426 14.5279 9.47212C13.8575 8.80168 12.9482 8.42502 12 8.42502Z" fill="url(#paint1_linear_8_207)" stroke="url(#paint2_linear_8_207)"/>
<defs>
<linearGradient id="paint0_linear_8_207" x1="22.0033" y1="1.37812" x2="1.89384" y2="22.5188" gradientUnits="userSpaceOnUse">
<stop stop-color="#D800BD"/>
<stop offset="0.408098" stop-color="#F92D7A"/>
<stop offset="0.590073" stop-color="#FF4A52"/>
<stop offset="1" stop-color="#FFB243"/>
</linearGradient>
<linearGradient id="paint1_linear_8_207" x1="16.7516" y1="6.95463" x2="7.1996" y2="16.9964" gradientUnits="userSpaceOnUse">
<stop stop-color="#D800BD"/>
<stop offset="0.408098" stop-color="#F92D7A"/>
<stop offset="0.590073" stop-color="#FF4A52"/>
<stop offset="1" stop-color="#FFB243"/>
</linearGradient>
<linearGradient id="paint2_linear_8_207" x1="16.7516" y1="6.95463" x2="7.1996" y2="16.9964" gradientUnits="userSpaceOnUse">
<stop stop-color="#D800BD"/>
<stop offset="0.408098" stop-color="#F92D7A"/>
<stop offset="0.590073" stop-color="#FF4A52"/>
<stop offset="1" stop-color="#FFB243"/>
</linearGradient>
</defs>
</svg>
