<svg width="24" height="24" viewBox="0 0 24 24" fill="none" xmlns="http://www.w3.org/2000/svg">
<path opacity="0.4" d="M22.6031 14.607C22.3896 14.277 22.086 13.947 21.6926 13.738C21.3778 13.584 21.1755 13.331 20.9956 13.034C20.4223 12.088 20.7595 10.845 21.7151 10.284C22.8392 9.657 23.1989 8.26 22.5469 7.171L21.7938 5.873C21.153 4.784 19.7478 4.399 18.6349 5.037C17.6456 5.565 16.3753 5.213 15.802 4.278C15.6222 3.97 15.521 3.64 15.5435 3.31C15.5772 2.881 15.4423 2.474 15.2399 2.144C14.824 1.462 14.0708 1 13.2389 1H11.6539C10.8333 1.022 10.0801 1.462 9.66414 2.144C9.45055 2.474 9.3269 2.881 9.34938 3.31C9.37186 3.64 9.27069 3.97 9.09082 4.278C8.51751 5.213 7.24721 5.565 6.2692 5.037C5.14505 4.399 3.7511 4.784 3.09909 5.873L2.3459 7.171C1.70514 8.26 2.06487 9.657 3.17778 10.284C4.13331 10.845 4.47055 12.088 3.90848 13.034C3.71737 13.331 3.51502 13.584 3.20026 13.738C2.81805 13.947 2.4808 14.277 2.30094 14.607C1.885 15.289 1.90749 16.147 2.32342 16.862L3.09909 18.182C3.51502 18.886 4.29069 19.326 5.10008 19.326C5.48229 19.326 5.93195 19.216 6.29168 18.996C6.57272 18.809 6.90997 18.743 7.28094 18.743C8.39385 18.743 9.3269 19.656 9.34938 20.745C9.34938 22.01 10.3836 23 11.6876 23H13.2165C14.5092 23 15.5435 22.01 15.5435 20.745C15.5772 19.656 16.5102 18.743 17.6231 18.743C17.9829 18.743 18.3201 18.809 18.6124 18.996C18.9721 19.216 19.4106 19.326 19.804 19.326C20.6022 19.326 21.3778 18.886 21.7938 18.182L22.5807 16.862C22.9854 16.125 23.0191 15.289 22.6031 14.607Z" fill="url(#paint0_linear_127_89)"/>
<path d="M12.4633 15.113C10.6984 15.113 9.27069 13.738 9.27069 12.011C9.27069 10.284 10.6984 8.89801 12.4633 8.89801C14.2282 8.89801 15.6222 10.284 15.6222 12.011C15.6222 13.738 14.2282 15.113 12.4633 15.113Z" fill="url(#paint1_linear_127_89)"/>
<defs>
<linearGradient id="paint0_linear_127_89" x1="12.45" y1="23" x2="12.45" y2="1" gradientUnits="userSpaceOnUse">
<stop stop-color="#FD2E00"/>
<stop offset="1" stop-color="#FF9900"/>
</linearGradient>
<linearGradient id="paint1_linear_127_89" x1="12.4464" y1="15.113" x2="12.4464" y2="8.89801" gradientUnits="userSpaceOnUse">
<stop stop-color="#FD2E00"/>
<stop offset="1" stop-color="#FF9900"/>
</linearGradient>
</defs>
</svg>
