<svg width="128" height="128" viewBox="0 0 128 128" fill="none" xmlns="http://www.w3.org/2000/svg">
<path opacity="0.4" d="M63 5C31.143 5 5 31.143 5 63C5 94.857 31.143 121 63 121C94.857 121 121 94.857 121 63C121 31.143 94.857 5 63 5Z" fill="url(#paint0_linear_60_288)"/>
<path fill-rule="evenodd" clip-rule="evenodd" d="M109.66 45.7278C107.069 39.6061 103.359 34.104 98.6273 29.3723C93.8957 24.6407 88.3936 20.931 82.2719 18.3389C80.1028 17.4219 77.5738 18.4269 76.6527 20.6168C75.7314 22.7984 76.749 25.315 78.9306 26.236C84.0307 28.3968 88.6198 31.491 92.5642 35.4355C96.5086 39.3799 99.6029 43.9692 101.764 49.069C102.687 51.2578 105.21 52.266 107.383 51.347C109.564 50.426 110.582 47.9094 109.66 45.7278ZM49.0696 99.4792C43.9695 97.3184 39.3805 94.2241 35.436 90.2796C31.4917 86.3353 28.3973 81.7459 26.2366 76.6461C25.3153 74.4605 22.7778 73.4429 20.6174 74.3681C18.4358 75.2895 17.4184 77.8058 18.3394 79.9874C20.9313 86.1091 24.6412 91.6111 29.3729 96.3428C34.1045 101.074 39.6066 104.784 45.7283 107.376C47.9065 108.297 50.4263 107.282 51.3475 105.098C52.2685 102.917 51.2509 100.4 49.0696 99.4792Z" fill="url(#paint1_linear_60_288)"/>
<path fill-rule="evenodd" clip-rule="evenodd" d="M97 64C97 82.2256 82.2256 97 64 97C45.7747 97 31 82.2256 31 64C31 45.7747 45.7747 31 64 31C82.2256 31 97 45.7747 97 64ZM42.4231 65.0917C42.4231 65.0902 42.4235 65.0888 42.4243 65.0877C42.4252 65.0865 42.4256 65.0851 42.4256 65.0836C42.4268 53.4041 51.6308 43.8743 63.1812 43.3516C63.7329 43.3266 64.1816 42.8813 64.1816 42.329V38.0774C64.1816 37.2533 65.1225 36.7829 65.7817 37.2776L77.618 46.1585C78.1511 46.5586 78.1511 47.3584 77.6178 47.7584L65.7798 56.6372C65.1205 57.1316 64.1798 56.6612 64.1798 55.8372V51.5848C64.1798 51.0325 63.7306 50.5812 63.1796 50.6188C55.6357 51.1326 49.6755 57.4154 49.6755 65.0895C49.6755 73.0996 56.1699 79.5939 64.1798 79.5939C72.1917 79.5939 78.6842 73.0996 78.6842 65.0895C78.6842 64.1285 79.0668 63.2057 79.7467 62.5258C80.4266 61.8459 81.3494 61.4633 82.3103 61.4633C83.2731 61.4633 84.1941 61.8459 84.8758 62.5258C85.5557 63.2057 85.9365 64.1285 85.9365 65.0895C85.9365 65.2109 85.9292 65.3306 85.9147 65.4503C85.7207 77.2986 76.0734 86.8462 64.1798 86.8462C52.1648 86.8462 42.4243 77.1076 42.4231 65.0917Z" fill="url(#paint2_linear_60_288)"/>
<path fill-rule="evenodd" clip-rule="evenodd" d="M97 64C97 82.2256 82.2256 97 64 97C45.7747 97 31 82.2256 31 64C31 45.7747 45.7747 31 64 31C82.2256 31 97 45.7747 97 64ZM42.4231 65.0917C42.4231 65.0902 42.4235 65.0888 42.4243 65.0877C42.4252 65.0865 42.4256 65.0851 42.4256 65.0836C42.4268 53.4041 51.6308 43.8743 63.1812 43.3516C63.7329 43.3266 64.1816 42.8813 64.1816 42.329V38.0774C64.1816 37.2533 65.1225 36.7829 65.7817 37.2776L77.618 46.1585C78.1511 46.5586 78.1511 47.3584 77.6178 47.7584L65.7798 56.6372C65.1205 57.1316 64.1798 56.6612 64.1798 55.8372V51.5848C64.1798 51.0325 63.7306 50.5812 63.1796 50.6188C55.6357 51.1326 49.6755 57.4154 49.6755 65.0895C49.6755 73.0996 56.1699 79.5939 64.1798 79.5939C72.1917 79.5939 78.6842 73.0996 78.6842 65.0895C78.6842 64.1285 79.0668 63.2057 79.7467 62.5258C80.4266 61.8459 81.3494 61.4633 82.3103 61.4633C83.2731 61.4633 84.1941 61.8459 84.8758 62.5258C85.5557 63.2057 85.9365 64.1285 85.9365 65.0895C85.9365 65.2109 85.9292 65.3306 85.9147 65.4503C85.7207 77.2986 76.0734 86.8462 64.1798 86.8462C52.1648 86.8462 42.4243 77.1076 42.4231 65.0917Z" fill="url(#paint3_linear_60_288)"/>
<defs>
<linearGradient id="paint0_linear_60_288" x1="13.2857" y1="63" x2="107.422" y2="52.5973" gradientUnits="userSpaceOnUse">
<stop stop-color="#8D01A2"/>
<stop offset="1" stop-color="#FF00D2"/>
</linearGradient>
<linearGradient id="paint1_linear_60_288" x1="24.5714" y1="62.8579" x2="99.1848" y2="54.4027" gradientUnits="userSpaceOnUse">
<stop stop-color="#8D01A2"/>
<stop offset="1" stop-color="#FF00D2"/>
</linearGradient>
<linearGradient id="paint2_linear_60_288" x1="64" y1="97" x2="64" y2="31" gradientUnits="userSpaceOnUse">
<stop stop-color="#A93AFF"/>
<stop offset="1" stop-color="#FF81FF"/>
</linearGradient>
<linearGradient id="paint3_linear_60_288" x1="35.7143" y1="64" x2="89.2746" y2="58.0812" gradientUnits="userSpaceOnUse">
<stop stop-color="#8D01A2"/>
<stop offset="1" stop-color="#FF00D2"/>
</linearGradient>
</defs>
</svg>
