<svg width="64" height="64" viewBox="0 0 64 64" fill="none" xmlns="http://www.w3.org/2000/svg">
<path opacity="0.4" fill-rule="evenodd" clip-rule="evenodd" d="M32.9138 41.2009C32.4341 40.5388 31.4319 40.5893 31.0212 41.2963V41.2963C31.0198 41.2987 31.0184 41.3011 31.0171 41.3035C28.5009 45.6697 23.8226 48.1868 19.7097 48.9301L19.7002 48.9318C17.0934 49.3965 14.5476 48.9307 12.4176 48.0929L12.4077 48.089L12.3977 48.085C10.1954 47.2052 8.22339 45.8338 6.6321 44.0755C3.48473 40.6123 2 35.9706 2 31.5416C2 27.1159 3.48275 22.4692 6.63286 19.0101C8.22186 17.2524 10.1912 15.8807 12.3909 14.9995L12.3976 14.9968L12.4043 14.9942C14.6724 14.0951 17.1346 13.7989 19.5511 14.1339L19.5604 14.1352L19.5697 14.1365C24.0516 14.7795 27.6604 17.5701 30.1154 20.5456C30.2558 20.7151 30.3936 20.8862 30.5289 21.0587C31.3311 22.082 32.9492 22.0482 33.6023 20.9238V20.9238C33.65 20.8416 33.7044 20.7635 33.7649 20.6903L33.8838 20.5464C36.3409 17.5722 39.95 14.7797 44.4337 14.1365L44.4448 14.1349L44.4559 14.1334C46.8711 13.8008 49.3316 14.0985 51.598 14.9985L51.6091 15.0029C53.8088 15.8841 55.7781 17.2558 57.3671 19.0135C60.5173 22.4725 62 27.1194 62 31.545C62 35.9726 60.516 40.6151 57.3676 44.0758C55.7777 45.8332 53.8075 47.204 51.6077 48.0842L51.5981 48.088C49.3305 48.9886 46.8684 49.2866 44.4515 48.953L44.4405 48.9515L44.4296 48.95C39.9503 48.3066 36.3421 45.5151 33.8854 42.5422" fill="url(#paint0_linear_223_85)"/>
<path d="M46.6851 26V38.6252M40.37 32.3149H53M10 32.5488H22.63" stroke="url(#paint1_linear_223_85)" stroke-width="6" stroke-linecap="round" stroke-linejoin="round"/>
<defs>
<linearGradient id="paint0_linear_223_85" x1="32" y1="45.1155" x2="32" y2="18" gradientUnits="userSpaceOnUse">
<stop stop-color="#02AA93"/>
<stop offset="1" stop-color="#67FF80"/>
</linearGradient>
<linearGradient id="paint1_linear_223_85" x1="31.5" y1="38.6252" x2="31.5" y2="26" gradientUnits="userSpaceOnUse">
<stop stop-color="#02AA93"/>
<stop offset="1" stop-color="#67FF80"/>
</linearGradient>
</defs>
</svg>
