<svg width="64" height="64" viewBox="0 0 64 64" fill="none" xmlns="http://www.w3.org/2000/svg">
<path opacity="0.4" fill-rule="evenodd" clip-rule="evenodd" d="M41.9091 56.175C45.5844 54.248 48.6975 51.4015 50.945 47.9129L41.7893 42.0148C40.5613 43.9211 38.8602 45.4765 36.852 46.5294C34.8437 47.5823 32.5969 48.0968 30.3306 48.0226C29.2362 47.9868 28.1554 47.8144 27.1123 47.5125C26.8054 49.8976 24.597 51.675 22.0238 51.5375C19.3333 51.3935 17.2628 49.2105 17.3992 46.6616C17.4939 44.8906 18.6293 43.4088 20.2159 42.7177C19.877 42.2601 19.5673 41.7795 19.2891 41.2785C18.1883 39.2961 17.6202 37.0622 17.64 34.7947C17.6598 32.5273 18.267 30.3037 19.4022 28.3408C20.5375 26.3779 22.1621 24.7427 24.1176 23.5948C26.0731 22.4469 28.2927 21.8253 30.56 21.7908L30.3943 10.9012C26.245 10.9644 22.1828 12.1019 18.6041 14.2027C15.0254 16.3035 12.0522 19.296 9.97463 22.8882C7.89703 26.4805 6.78588 30.5498 6.74958 34.6995C6.71328 38.8491 7.75308 42.9373 9.76753 46.5653C11.782 50.1935 14.7023 53.2375 18.2438 55.4005C21.7852 57.5635 25.8268 58.772 29.9743 58.9075C34.1219 59.0435 38.2338 58.102 41.9091 56.175Z" fill="url(#paint0_linear_54_203)"/>
<path d="M54.123 4.34L54.121 4.34037L54.119 4.34076C50.901 4.97054 47.6802 5.59075 44.4584 6.2111C39.2551 7.21295 34.0498 8.21525 28.8528 9.25895C28.022 9.30885 27.363 9.7881 26.9303 10.4127C26.4974 11.0376 26.2729 11.8309 26.3174 12.562C26.3229 16.0138 26.322 19.4661 26.3211 22.9189C26.3198 28.2215 26.3184 33.5245 26.3401 38.8271C24.1592 37.6112 21.4888 37.3193 19.0925 38.0323C15.4922 39.0588 12.7014 42.3818 12.3796 46.1068C11.9992 49.3559 13.5038 52.713 16.1527 54.6405C18.5417 56.421 21.8072 56.9795 24.6508 56.035C27.5202 55.1505 29.8293 52.799 30.7561 49.9745C31.177 49.0006 31.2648 47.986 31.2544 46.9902C31.2496 46.5335 31.2241 46.0751 31.1991 45.6254C31.1966 45.5825 31.1943 45.5404 31.1919 45.4977C31.1646 45.0041 31.1402 44.5217 31.1446 44.0475V44.0448C31.1459 41.689 31.1457 39.3338 31.1455 36.9787C31.1453 33.1309 31.1451 29.2842 31.1513 25.4384C32.4918 25.152 33.8474 24.9416 35.2128 24.7297L35.2257 24.7276C36.6692 24.5036 38.1235 24.2777 39.564 23.9587L39.5653 23.9585C40.5053 23.747 41.4581 23.5985 42.4217 23.4484C42.5344 23.4308 42.6472 23.4131 42.7605 23.3954C43.8357 23.2268 44.9212 23.0472 45.9895 22.7672L45.9958 22.7656L46.0014 22.7638C46.5758 22.5866 47.1031 22.1928 47.4425 21.6888C47.7837 21.1822 47.9462 20.5451 47.7464 19.8985L47.7386 19.8734L47.7264 19.8503C47.4678 19.3544 47.064 18.8644 46.5636 18.5387C46.0628 18.2127 45.4506 18.044 44.7993 18.228C44.4041 18.3065 44.0104 18.387 43.6176 18.4674C42.0015 18.7979 40.3997 19.1255 38.771 19.2974L38.763 19.2982L38.7549 19.2995C37.6918 19.4722 36.634 19.6789 35.5818 19.8845C35.3134 19.937 35.0455 19.9893 34.7779 20.041C33.5661 20.2752 32.3588 20.4966 31.1435 20.6548C31.1511 19.5233 31.1499 18.3925 31.1487 17.2631L31.1486 17.1294C31.1473 15.9245 31.1465 14.7211 31.1567 13.5172C31.7532 13.4046 32.3498 13.292 32.9465 13.1795C39.8965 11.8681 46.8549 10.5553 53.7855 9.11325C53.8115 13.6273 53.807 18.1341 53.8035 22.6416C53.8 26.5341 53.797 30.4271 53.813 34.3256C51.183 33.1124 47.9128 33.3439 45.5594 35.0927C42.8437 36.9924 41.5619 40.6294 42.4799 43.7993C43.2419 46.6924 45.7465 49.0364 48.6987 49.6063C51.3275 50.1595 54.1855 49.2874 56.064 47.383C57.9705 45.501 58.7185 42.7233 58.525 40.1447C58.511 33.9674 58.5145 27.7903 58.5185 21.6131C58.5215 16.5948 58.524 11.5762 58.518 6.5569C58.607 5.4925 57.8065 4.68671 57.0795 4.22155L57.062 4.21055L57.0435 4.20209C56.5255 3.96585 55.9985 3.97104 55.5085 4.04542C55.2645 4.08252 55.0225 4.13799 54.792 4.19234C54.766 4.19843 54.7405 4.2045 54.715 4.21053C54.5095 4.25916 54.3145 4.30531 54.123 4.34ZM49.0121 38.3977L49.016 38.3962L49.0192 38.3947C50.005 37.9527 51.1485 38.0959 52.0755 38.6386C53.0025 39.1814 53.6785 40.103 53.759 41.1752L53.7605 41.1927L53.7635 41.2098C53.975 42.276 53.563 43.348 52.805 44.1163C52.0475 44.8849 50.9715 45.3215 49.8937 45.1476L49.8848 45.1461L49.8758 45.1452C47.8997 44.9534 46.4052 42.8548 46.8723 40.9389L46.8735 40.9339L46.8744 40.9291C47.1064 39.8077 47.9451 38.8412 49.0121 38.3977ZM20.2518 42.4677L20.254 42.4668L20.2562 42.4662C22.5966 41.6568 25.4867 42.9714 26.2311 45.3256C26.3958 46.4695 26.374 47.6533 26.2615 48.8208C25.4807 51.087 22.7742 52.4275 20.4586 51.7305L20.4536 51.7285L20.4485 51.7275C18.1079 51.115 16.5055 48.5587 17 46.1986L17.0009 46.1944L17.0016 46.1908C17.3099 44.487 18.6014 43.0081 20.2518 42.4677Z" fill="url(#paint1_linear_54_203)" stroke="url(#paint2_linear_54_203)" stroke-width="2"/>
<defs>
<linearGradient id="paint0_linear_54_203" x1="28.8468" y1="58.9204" x2="28.8468" y2="10.9012" gradientUnits="userSpaceOnUse">
<stop stop-color="#5570FF"/>
<stop offset="1" stop-color="#4DD3FF"/>
</linearGradient>
<linearGradient id="paint1_linear_54_203" x1="35.4379" y1="56.4895" x2="35.4379" y2="4" gradientUnits="userSpaceOnUse">
<stop stop-color="#0028FF"/>
<stop offset="1" stop-color="#00C0FF"/>
</linearGradient>
<linearGradient id="paint2_linear_54_203" x1="35.4379" y1="56.4895" x2="35.4379" y2="4" gradientUnits="userSpaceOnUse">
<stop stop-color="#0028FF"/>
<stop offset="1" stop-color="#00C0FF"/>
</linearGradient>
</defs>
</svg>
