<svg width="64" height="64" viewBox="0 0 64 64" fill="none" xmlns="http://www.w3.org/2000/svg">
<path opacity="0.4" d="M32 60.5C47.464 60.5 60 47.7401 60 32C60 16.2599 47.464 3.5 32 3.5C16.536 3.5 4 16.2599 4 32C4 47.7401 16.536 60.5 32 60.5Z" fill="url(#paint0_linear_344_576)"/>
<path opacity="0.4" d="M32.1491 52C43.001 52 51.7982 43.0457 51.7982 32C51.7982 20.9543 43.001 12 32.1491 12C21.2972 12 12.5 20.9543 12.5 32C12.5 43.0457 21.2972 52 32.1491 52Z" fill="url(#paint1_linear_344_576)"/>
<path d="M31.7894 44C38.3006 44 43.5789 38.6274 43.5789 32C43.5789 25.3726 38.3006 20 31.7894 20C25.2783 20 20 25.3726 20 32C20 38.6274 25.2783 44 31.7894 44Z" fill="url(#paint2_linear_344_576)"/>
<defs>
<linearGradient id="paint0_linear_344_576" x1="32" y1="60.5" x2="32" y2="3.5" gradientUnits="userSpaceOnUse">
<stop stop-color="#FDA700"/>
<stop offset="1" stop-color="#FFDE00"/>
</linearGradient>
<linearGradient id="paint1_linear_344_576" x1="32.1491" y1="52" x2="32.1491" y2="12" gradientUnits="userSpaceOnUse">
<stop stop-color="#FDA700"/>
<stop offset="1" stop-color="#FFDE00"/>
</linearGradient>
<linearGradient id="paint2_linear_344_576" x1="31.7894" y1="44" x2="31.7894" y2="20" gradientUnits="userSpaceOnUse">
<stop stop-color="#FDA700"/>
<stop offset="1" stop-color="#FFDE00"/>
</linearGradient>
</defs>
</svg>
