<svg width="24" height="24" viewBox="0 0 24 24" fill="none" xmlns="http://www.w3.org/2000/svg">
<path d="M7.52208 4.22679C9.44257 3.45838 10.5885 3 11.9995 3C13.4115 3 14.5564 3.45838 16.4769 4.22679L19.5157 5.44232C20.4918 5.83317 21.2827 6.14831 21.826 6.43377C22.1003 6.57702 22.3663 6.74072 22.5719 6.9382C22.7827 7.14078 22.9986 7.44774 22.9986 7.86008C22.9986 8.27242 22.7837 8.57937 22.5719 8.78196C22.3673 8.97943 22.1013 9.14211 21.825 9.28638C21.2827 9.57082 20.4918 9.88698 19.5147 10.2789L16.4759 11.4934C14.5574 12.2618 13.4115 12.7202 11.9995 12.7202C10.5875 12.7202 9.44257 12.2618 7.52208 11.4934L4.48427 10.2778C3.50714 9.88698 2.71623 9.57185 2.17292 9.28638C1.90231 9.15328 1.65132 8.98354 1.42703 8.78196C1.21626 8.57937 1.00037 8.27242 1.00037 7.86008C1.00037 7.44774 1.21523 7.14078 1.42703 6.9382C1.63166 6.74072 1.89769 6.57804 2.17395 6.43377C2.71623 6.14933 3.50714 5.83317 4.48427 5.44129L7.52208 4.22679Z" fill="url(#paint0_linear_8_512)"/>
<path opacity="0.7" d="M2.28138 11.3829L2.27934 11.3798C2.20416 11.3127 2.11648 11.2609 2.02132 11.2276C1.92616 11.1943 1.82536 11.1801 1.7247 11.1858C1.62404 11.1914 1.52547 11.2168 1.43464 11.2606C1.3438 11.3043 1.26247 11.3655 1.19528 11.4407C1.1281 11.5159 1.07638 11.6036 1.04308 11.6987C1.00978 11.7939 0.995555 11.8947 1.00121 11.9954C1.01262 12.1987 1.10433 12.3891 1.25616 12.5248L1.25821 12.5268L1.26332 12.5309L1.27765 12.5432C1.28788 12.5534 1.30425 12.5667 1.32369 12.5831C1.57617 12.787 1.83914 12.9776 2.11154 13.154C2.65791 13.508 3.46315 13.9623 4.53032 14.389L7.40441 15.539L7.52208 15.5861C9.44258 16.3545 10.5885 16.8129 11.9995 16.8129C13.4115 16.8129 14.5564 16.3545 16.4759 15.5861L16.5946 15.539L19.4687 14.388C20.3126 14.0554 21.1223 13.6418 21.8864 13.153C22.1592 12.9766 22.4225 12.786 22.6753 12.5821L22.7213 12.5422L22.7357 12.5299L22.7408 12.5258L22.7418 12.5237H22.7438C22.8957 12.3881 22.9874 12.1976 22.9988 11.9943C23.0102 11.791 22.9404 11.5915 22.8047 11.4397C22.669 11.2879 22.4786 11.1962 22.2753 11.1847C22.072 11.1733 21.8725 11.2431 21.7207 11.3788L21.7186 11.3809L21.7166 11.3819L21.692 11.4034L21.5713 11.4996C21.4031 11.6284 21.2297 11.7502 21.0515 11.8648C20.5808 12.1708 19.8636 12.578 18.8977 12.9637L16.0247 14.1127C13.9527 14.9415 13.0841 15.2771 11.9995 15.2771C10.9149 15.2771 10.0452 14.9415 7.97432 14.1127L5.10023 12.9658C4.34885 12.6698 3.6279 12.3018 2.94747 11.8669C2.71739 11.7178 2.49539 11.5566 2.28241 11.3839L2.28138 11.3829Z" fill="url(#paint1_linear_8_512)"/>
<path opacity="0.4" d="M2.27833 15.5339C2.12643 15.3996 1.92756 15.3309 1.72515 15.3427C1.52275 15.3546 1.33327 15.4461 1.1981 15.5972C1.06293 15.7483 0.993064 15.9468 1.00375 16.1492C1.01444 16.3517 1.10483 16.5417 1.25516 16.6778H1.25618L1.25823 16.6798L1.26334 16.6839L1.27767 16.6962C1.2879 16.7064 1.30427 16.7197 1.32371 16.7361L1.48844 16.8691C1.63168 16.9786 1.83939 17.13 2.11258 17.307C2.65793 17.661 3.46317 18.1153 4.53034 18.542L7.40443 19.692L7.5221 19.7391C9.44259 20.5075 10.5885 20.9669 11.9995 20.9669C13.4115 20.9669 14.5564 20.5075 16.4759 19.7391L16.5946 19.692L19.4687 18.542C20.3126 18.2091 21.1223 17.7951 21.8864 17.306C22.1592 17.1296 22.4225 16.939 22.6753 16.7351C22.6908 16.7219 22.7061 16.7086 22.7213 16.6952L22.7357 16.6829L22.7408 16.6788L22.7418 16.6778L22.7439 16.6757C22.8942 16.5397 22.9846 16.3497 22.9953 16.1472C23.0059 15.9447 22.9361 15.7463 22.8009 15.5951C22.6657 15.444 22.4763 15.3525 22.2739 15.3407C22.0715 15.3288 21.8726 15.3975 21.7207 15.5318L21.7186 15.5339L21.7166 15.5349L21.692 15.5564L21.5713 15.6525C21.4031 15.7813 21.2297 15.9032 21.0515 16.0178C20.5809 16.3237 19.8636 16.731 18.8977 17.1167L16.0247 18.2657C13.9527 19.0945 13.0841 19.4301 11.9995 19.4301C10.9149 19.4301 10.0452 19.0945 7.97434 18.2657L5.10024 17.1167C4.34892 16.8211 3.62798 16.4534 2.94749 16.0188C2.72625 15.8757 2.51247 15.7213 2.30698 15.5564L2.2814 15.5359L2.27833 15.5318V15.5339Z" fill="url(#paint2_linear_8_512)"/>
<defs>
<linearGradient id="paint0_linear_8_512" x1="11.9995" y1="3" x2="11.5473" y2="12.6991" gradientUnits="userSpaceOnUse">
<stop stop-color="#A6FF70"/>
<stop offset="0.752309" stop-color="#FF913B"/>
<stop offset="1" stop-color="#FE3E02"/>
</linearGradient>
<linearGradient id="paint1_linear_8_512" x1="12" y1="11.1835" x2="11.8481" y2="16.8088" gradientUnits="userSpaceOnUse">
<stop stop-color="#A6FF70"/>
<stop offset="0.752309" stop-color="#FF913B"/>
<stop offset="1" stop-color="#FE3E02"/>
</linearGradient>
<linearGradient id="paint2_linear_8_512" x1="11.9995" y1="15.3394" x2="11.8477" y2="20.9628" gradientUnits="userSpaceOnUse">
<stop stop-color="#A6FF70"/>
<stop offset="0.752309" stop-color="#FF913B"/>
<stop offset="1" stop-color="#FE3E02"/>
</linearGradient>
</defs>
</svg>
