<svg width="16" height="16" viewBox="0 0 16 16" fill="none" xmlns="http://www.w3.org/2000/svg">
<g clip-path="url(#clip0_311_506)">
<path opacity="0.4" d="M8.49703 0.286481L11.0647 1.76649L12.037 2.351L15 4.03202L15 11.3902C15 11.7478 14.809 12.0782 14.4991 12.2567L8.49695 15.7139C8.18916 15.8912 7.81043 15.8919 7.50197 15.7158L1.50414 12.2911C1.19241 12.1131 1 11.7816 1 11.4226V4.57725C1 4.21826 1.19242 3.88682 1.50417 3.70883L7.50182 0.284443C7.81037 0.108279 8.18921 0.109055 8.49703 0.286481Z" fill="url(#paint0_linear_311_506)"/>
<path d="M3.09971 4.17043C2.83263 4.01842 2.50103 4.21184 2.50185 4.51914L2.51966 11.1678C2.51999 11.2922 2.57817 11.4094 2.67707 11.4848L3.35363 12.0008C3.6169 12.2016 3.99622 12.0139 3.99622 11.6828V10.683C3.99622 10.379 4.32197 10.1861 4.58854 10.3323L6.80788 11.5493C6.93595 11.6195 7.01556 11.7539 7.01556 11.9V13.9641C7.01556 14.0838 7.06917 14.1972 7.16167 14.2732L7.86127 14.8479C8.12231 15.0623 8.51516 14.8766 8.51516 14.5388V7.48525C8.51516 7.34147 8.43799 7.20874 8.31302 7.13762L3.09971 4.17043ZM7.00211 9.27725C7.00211 9.58167 6.67557 9.77452 6.40898 9.62754L4.23001 8.42623C4.10239 8.35587 4.02313 8.22167 4.02313 8.07593V7.10479C4.02313 6.8028 4.34498 6.60972 4.61142 6.75188L6.7904 7.91444C6.92071 7.98397 7.00211 8.11965 7.00211 8.26735V9.27725Z" fill="url(#paint1_linear_311_506)"/>
<path d="M13.5 4.59924C13.5 4.29413 13.1721 4.10136 12.9055 4.2497L7.71389 7.13819C7.58702 7.20877 7.50836 7.34255 7.50836 7.48773V8.49738C7.50836 8.80056 7.83249 8.99353 8.09902 8.84902L9.91688 7.86338C10.1834 7.71887 10.5075 7.91184 10.5075 8.21502V13.0755C10.5075 13.3961 10.8658 13.5865 11.1315 13.407L11.8311 12.9343C11.9412 12.8599 12.0071 12.7357 12.0071 12.6029V6.93785C12.0071 6.78923 12.0895 6.65286 12.2211 6.58374L13.286 6.0243C13.4176 5.95518 13.5 5.81881 13.5 5.67019V4.59924Z" fill="url(#paint2_linear_311_506)"/>
</g>
<defs>
<linearGradient id="paint0_linear_311_506" x1="8" y1="0" x2="8" y2="16.0002" gradientUnits="userSpaceOnUse">
<stop stop-color="#97EB0E"/>
<stop offset="1" stop-color="#19B90B"/>
</linearGradient>
<linearGradient id="paint1_linear_311_506" x1="5.50758" y1="3.8291" x2="5.50758" y2="15.385" gradientUnits="userSpaceOnUse">
<stop stop-color="#97EB0E"/>
<stop offset="1" stop-color="#19B90B"/>
</linearGradient>
<linearGradient id="paint2_linear_311_506" x1="10.5042" y1="3.91895" x2="10.5042" y2="13.8286" gradientUnits="userSpaceOnUse">
<stop stop-color="#97EB0E"/>
<stop offset="1" stop-color="#19B90B"/>
</linearGradient>
<clipPath id="clip0_311_506">
<rect width="16" height="16" fill="white"/>
</clipPath>
</defs>
</svg>
