<svg width="24" height="24" viewBox="0 0 24 24" fill="none" xmlns="http://www.w3.org/2000/svg">
<path d="M20.9428 3.05766C23.4129 5.52675 21.4108 11.532 16.4726 16.4712C11.5324 21.4104 5.52722 23.4114 3.05812 20.9423C0.588027 18.4722 2.5901 12.467 7.52929 7.52883C12.4685 2.58964 18.4737 0.588564 20.9428 3.05766ZM3.05812 3.05766C0.588027 5.52775 2.5901 11.533 7.52829 16.4712C12.4685 21.4104 18.4737 23.4114 20.9428 20.9423C23.4129 18.4732 21.4108 12.468 16.4716 7.52883C11.5324 2.58964 5.52722 0.588564 3.05812 3.05766Z" stroke="url(#paint0_linear_8_104)" stroke-width="2"/>
<path opacity="0.5" d="M14.5005 12C14.5005 12.6631 14.2371 13.299 13.7682 13.7679C13.2994 14.2367 12.6635 14.5001 12.0004 14.5001C11.3373 14.5001 10.7014 14.2367 10.2326 13.7679C9.76371 13.299 9.50031 12.6631 9.50031 12C9.50031 11.337 9.76371 10.7011 10.2326 10.2322C10.7014 9.76334 11.3373 9.49994 12.0004 9.49994C12.6635 9.49994 13.2994 9.76334 13.7682 10.2322C14.2371 10.7011 14.5005 11.337 14.5005 12Z" stroke="url(#paint1_linear_8_104)" stroke-width="2"/>
<defs>
<linearGradient id="paint0_linear_8_104" x1="2.00293" y1="11.7037" x2="22.0042" y2="11.7037" gradientUnits="userSpaceOnUse">
<stop stop-color="#A93AFF"/>
<stop offset="1" stop-color="#FF81FF"/>
</linearGradient>
<linearGradient id="paint1_linear_8_104" x1="9.50104" y1="11.9259" x2="14.5013" y2="11.9259" gradientUnits="userSpaceOnUse">
<stop stop-color="#A93AFF"/>
<stop offset="1" stop-color="#FF81FF"/>
</linearGradient>
</defs>
</svg>
