<svg width="24" height="24" viewBox="0 0 24 24" fill="none" xmlns="http://www.w3.org/2000/svg">
<path opacity="0.3" d="M16.9176 16.9181C22.3504 11.4852 24.5515 4.87976 21.8356 2.16388C19.1197 -0.553098 12.5143 1.64908 7.08143 7.08084C1.64857 12.5148 -0.552508 19.1202 2.16337 21.8361C4.88035 24.5531 11.4858 22.3498 16.9176 16.9181Z" fill="url(#paint0_linear_8_99)"/>
<path opacity="0.3" d="M7.08143 16.9181C1.64857 11.4863 -0.552508 4.87976 2.16337 2.16388C4.87925 -0.553098 11.4847 1.64908 16.9176 7.08084C22.3504 12.5148 24.5515 19.1202 21.8356 21.8361C19.1186 24.5531 12.5132 22.3498 7.08143 16.9181Z" fill="url(#paint1_linear_8_99)"/>
<path d="M14.7495 12C14.7495 12.7293 14.4597 13.4288 13.944 13.9445C13.4283 14.4602 12.7288 14.75 11.9995 14.75C11.2701 14.75 10.5707 14.4602 10.055 13.9445C9.53924 13.4288 9.24951 12.7293 9.24951 12C9.24951 11.2706 9.53924 10.5712 10.055 10.0554C10.5707 9.53973 11.2701 9.25 11.9995 9.25C12.7288 9.25 13.4283 9.53973 13.944 10.0554C14.4597 10.5712 14.7495 11.2706 14.7495 12Z" fill="url(#paint2_linear_8_99)"/>
<defs>
<linearGradient id="paint0_linear_8_99" x1="11.9995" y1="23" x2="11.9995" y2="1" gradientUnits="userSpaceOnUse">
<stop stop-color="#FF1B71"/>
<stop offset="0.9998" stop-color="#FF867E"/>
<stop offset="0.9999" stop-color="#FF6678"/>
</linearGradient>
<linearGradient id="paint1_linear_8_99" x1="11.9995" y1="23" x2="11.9995" y2="1" gradientUnits="userSpaceOnUse">
<stop stop-color="#FF1B71"/>
<stop offset="0.9998" stop-color="#FF867E"/>
<stop offset="0.9999" stop-color="#FF6678"/>
</linearGradient>
<linearGradient id="paint2_linear_8_99" x1="11.9995" y1="14.75" x2="11.9995" y2="9.25" gradientUnits="userSpaceOnUse">
<stop stop-color="#FF1B71"/>
<stop offset="0.9998" stop-color="#FF867E"/>
<stop offset="0.9999" stop-color="#FF6678"/>
</linearGradient>
</defs>
</svg>
