<svg width="64" height="64" viewBox="0 0 64 64" fill="none" xmlns="http://www.w3.org/2000/svg">
<path opacity="0.5" fill-rule="evenodd" clip-rule="evenodd" d="M35.9984 58.5684H10.6071C6.30769 57.9477 3 54.2433 3 49.7726V14.2699C3 9.36403 6.98121 5.38281 11.8871 5.38281H35.997L35.9984 58.5684Z" fill="url(#paint0_linear_342_437)"/>
<path opacity="0.8" fill-rule="evenodd" clip-rule="evenodd" d="M60.8003 55.0594C60.7433 58.8294 59.0566 60.8043 55.7318 60.9427L35.989 58.5612V5.38045L56.0386 3.09386C59.1907 2.77565 60.9758 4.50798 61.0001 7.897L60.8003 55.0594Z" fill="url(#paint1_linear_342_437)"/>
<path d="M37.2171 14.3589L21.6918 18.5584C20.526 18.8866 19.5856 20.188 19.5856 21.4523V41.4939C18.4027 40.8447 16.8858 40.5835 15.3105 41.0116C12.4694 41.785 10.6886 44.2836 11.2979 46.591C11.9058 48.8984 14.7069 50.1898 17.548 49.4164C19.814 48.7999 21.3751 47.0519 21.6233 45.2126L21.6918 26.274L35.6104 22.367V36.7336C34.5787 36.3669 33.3843 36.267 32.1486 36.6037C29.3075 37.3757 27.5295 39.8743 28.1388 42.1831C28.7481 44.4905 31.545 45.7805 34.3861 45.0071C36.4038 44.4591 37.8564 43.0151 38.3287 41.4069C38.8367 40.4679 39.0679 39.4106 39.0679 38.9882C39.0679 38.8555 39.085 38.5401 39.0865 38.4003V37.8752C39.1564 37.3572 39.4104 36.9391 40.0896 36.9391C40.7788 36.9391 41.0457 37.36 41.147 37.8752H41.1712V40.2154C41.1712 40.9916 41.6379 41.6181 42.2143 41.6181C42.7894 41.6181 43.2575 40.9916 43.2575 40.2154V35.0669C43.2575 34.6545 43.6427 33.1962 43.9524 33.1962C44.2606 33.1962 44.6473 34.6545 44.6473 35.0669V35.5364C44.6473 36.3126 45.1168 36.9391 45.6933 36.9391C46.2683 36.9391 46.7349 36.3126 46.7349 35.5364V31.324C46.7349 30.9102 47.1217 30.3879 47.4313 30.3879C47.7395 30.3879 48.1262 30.9102 48.1262 31.324V31.7935C48.1262 32.5683 48.5929 33.1962 49.1679 33.1962C49.7444 33.1962 50.211 32.5683 50.211 31.7935V30.3879H53.3389C53.9154 30.3879 54.382 29.7615 54.382 28.9866C54.382 28.2104 53.9154 27.5811 53.3389 27.5811H50.211V26.1784C50.211 25.4035 49.7444 24.7743 49.1679 24.7743C48.5929 24.7743 48.1262 25.4035 48.1262 26.1784V26.645C48.1262 27.0588 47.7395 27.5811 47.4313 27.5811C47.1217 27.5811 46.7349 27.0588 46.7349 26.645V22.4355C46.7349 21.6606 46.2683 21.0299 45.6933 21.0299C45.1168 21.0299 44.6473 21.6606 44.6473 22.4355V22.9021C44.6473 23.3159 44.2606 24.7743 43.9524 24.7743C43.6427 24.7743 43.2575 23.3159 43.2575 22.9021V17.7565C43.2575 16.9816 42.7894 16.3509 42.2143 16.3509C41.6379 16.3509 41.1712 16.9816 41.1712 17.7565V20.0953C41.0999 20.6118 40.8359 21.0299 40.0896 21.0299C39.4104 21.0299 39.1892 20.6118 39.1178 20.0953L38.9109 19.1435C38.9095 19.0051 38.7426 17.0187 38.6997 16.8917C38.5884 16.5664 38.5585 16.2196 38.4943 15.8943C38.4001 15.0809 37.9007 14.4788 37.2171 14.3589Z" fill="url(#paint2_linear_342_437)"/>
<defs>
<linearGradient id="paint0_linear_342_437" x1="19.4992" y1="58.5684" x2="19.4992" y2="5.38281" gradientUnits="userSpaceOnUse">
<stop stop-color="#FD3A84"/>
<stop offset="1" stop-color="#FFA68D"/>
</linearGradient>
<linearGradient id="paint1_linear_342_437" x1="48.4946" y1="60.9427" x2="48.4946" y2="3.05664" gradientUnits="userSpaceOnUse">
<stop stop-color="#FD3A84"/>
<stop offset="1" stop-color="#FFA68D"/>
</linearGradient>
<linearGradient id="paint2_linear_342_437" x1="53.1635" y1="32" x2="19.0837" y2="16.9043" gradientUnits="userSpaceOnUse">
<stop stop-color="#FE7970"/>
<stop offset="1" stop-color="#DC3282"/>
</linearGradient>
</defs>
</svg>
