<svg width="16" height="16" viewBox="0 0 16 16" fill="none" xmlns="http://www.w3.org/2000/svg">
<g clip-path="url(#clip0_19_163)">
<path d="M8.00002 3.00018C5.80202 3.00018 4.00002 4.80288 4.00002 6.99994V7.0058V7.01166V8.00965C4.00002 8.27415 4.10538 8.52782 4.29291 8.71485C4.48045 8.90188 4.7348 9.00695 5.00002 9.00695C5.26524 9.00695 5.51959 8.90188 5.70713 8.71485C5.89466 8.52782 6.00002 8.27415 6.00002 8.00965V7.01166C6.00004 7.00775 6.00004 7.00384 6.00002 6.99994C6.00002 5.88391 6.88302 5.00006 8.00002 5.00006C9.11602 5.00006 10 5.88391 10 6.99994V7.0058V7.01166V11.9977C10 11.9977 10.0098 12.4374 10.1758 12.9371C10.4067 13.6019 10.7891 14.2043 11.293 14.6967C11.3852 14.7922 11.4955 14.8683 11.6176 14.9207C11.7396 14.9731 11.8709 15.0007 12.0038 15.002C12.1366 15.0032 12.2684 14.978 12.3914 14.9279C12.5144 14.8777 12.6261 14.8036 12.7201 14.71C12.8141 14.6163 12.8884 14.5048 12.9387 14.3822C12.9889 14.2595 13.0142 14.1281 13.013 13.9956C13.0118 13.8631 12.9841 13.7321 12.9316 13.6104C12.879 13.4887 12.8027 13.3786 12.707 13.2867C12.324 12.9057 12.1572 12.5536 12.0742 12.3062C11.9902 12.0579 12 11.9977 12 11.9977V7.01166C12 7.00775 12 7.00384 12 6.99994C12 4.80288 10.197 3.00018 8.00002 3.00018ZM7.9844 6C7.71938 6.0041 7.46685 6.11296 7.28227 6.30265C7.09769 6.49235 6.99617 6.74736 7.00002 7.01166V11.9977C7.00002 11.9977 6.99955 12.591 7.14455 13.314C7.28955 14.038 7.55699 14.9607 8.29299 15.6947C8.38519 15.7901 8.49553 15.8663 8.61758 15.9187C8.73962 15.9711 8.87091 15.9987 9.00378 15.9999C9.13664 16.0012 9.26843 15.976 9.39142 15.9258C9.51442 15.8757 9.62616 15.8016 9.72013 15.7079C9.81409 15.6142 9.88838 15.5028 9.93867 15.3801C9.98896 15.2575 10.0142 15.1261 10.013 14.9936C10.0118 14.861 9.98412 14.7301 9.93158 14.6084C9.87905 14.4867 9.80272 14.3766 9.70705 14.2846C9.44205 14.0214 9.21049 13.4479 9.10549 12.9254C9.00049 12.4018 9.00002 11.9977 9.00002 11.9977V7.01166C9.00196 6.87816 8.97701 6.74564 8.92664 6.62195C8.87628 6.49825 8.80152 6.3859 8.7068 6.29155C8.61209 6.19721 8.49934 6.12279 8.37525 6.0727C8.25116 6.02262 8.11825 5.9979 7.9844 6ZM4.9844 9.98999C4.71973 9.9941 4.46749 10.1027 4.28297 10.2919C4.09845 10.4812 3.9967 10.7357 4.00002 10.9997V13.9917C4.00002 14.2562 4.10538 14.5099 4.29291 14.6969C4.48045 14.8839 4.7348 14.989 5.00002 14.989C5.26524 14.989 5.51959 14.8839 5.70713 14.6969C5.89466 14.5099 6.00002 14.2562 6.00002 13.9917V10.9997C6.0017 10.8664 5.97655 10.734 5.92607 10.6106C5.87558 10.4871 5.80078 10.375 5.70609 10.2809C5.6114 10.1867 5.49875 10.1125 5.37479 10.0625C5.25083 10.0126 5.11808 9.9879 4.9844 9.98999ZM14 9.99976C13.8687 9.99976 13.7386 10.0256 13.6173 10.0759C13.496 10.1261 13.3858 10.1998 13.2929 10.2926C13.2 10.3855 13.1264 10.4957 13.0761 10.617C13.0259 10.7383 13 10.8684 13 10.9997C13 11.2649 13.1054 11.5192 13.2929 11.7067C13.4804 11.8943 13.7348 11.9996 14 11.9996C14.2652 11.9996 14.5196 11.8943 14.7071 11.7067C14.8946 11.5192 15 11.2649 15 10.9997C15 10.8684 14.9741 10.7383 14.9239 10.617C14.8736 10.4957 14.8 10.3855 14.7071 10.2926C14.6142 10.1998 14.504 10.1261 14.3827 10.0759C14.2614 10.0256 14.1313 9.99976 14 9.99976Z" fill="url(#paint0_linear_19_163)"/>
<g opacity="0.4">
<path d="M4.58398 0.890926C5.64907 0.295092 6.85166 -0.0119324 8.07227 0.00035483C9.29196 0.0130742 10.4871 0.34433 11.5391 0.961234C12.592 1.5784 13.4652 2.45973 14.0723 3.51791C14.6793 4.57609 14.9991 5.77438 15 6.99407V7.01165V8.00964C15 8.27414 14.8946 8.52781 14.7071 8.71484C14.5196 8.90187 14.2652 9.00694 14 9.00694C13.7348 9.00694 13.4804 8.90187 13.2929 8.71484C13.1054 8.52781 13 8.27414 13 8.00964V7.01165L13.002 7.00188L13 6.99407C13 6.12279 12.7718 5.26668 12.338 4.51085C11.9042 3.75502 11.28 3.1258 10.5273 2.68574C9.77551 2.245 8.92137 2.00843 8.04973 1.99953C7.1781 1.99062 6.31929 2.20968 5.55859 2.63496C5.44372 2.70388 5.31617 2.74903 5.18349 2.76774C5.05082 2.78644 4.91574 2.77832 4.78627 2.74385C4.6568 2.70938 4.53558 2.64927 4.42981 2.56709C4.32404 2.4849 4.23588 2.38232 4.17056 2.26544C4.10524 2.14855 4.06409 2.01974 4.04957 1.88665C4.03504 1.75357 4.04742 1.61893 4.08598 1.49072C4.12455 1.36251 4.1885 1.24335 4.27405 1.14031C4.3596 1.03728 4.465 0.952472 4.58398 0.890926Z" fill="url(#paint1_linear_19_163)"/>
<path d="M2.43949 3.10883C2.59758 3.0267 2.77568 2.98714 2.95508 2.99431C3.13121 3.0011 3.30235 3.05268 3.45116 3.14383C3.59998 3.23497 3.72117 3.36244 3.80246 3.51332C3.88376 3.6642 3.92226 3.83312 3.91408 4.00298C3.90589 4.17284 3.85131 4.3376 3.75586 4.48055C3.26286 5.24552 3 6.12824 3 7.02922V11.9996C3 12.2646 2.89464 12.5188 2.70711 12.7061C2.51957 12.8935 2.26522 12.9988 2 12.9988C1.73478 12.9988 1.48043 12.8935 1.29289 12.7061C1.10536 12.5188 1 12.2646 1 11.9996V6.94134C1.0013 6.92045 1.00325 6.89961 1.00586 6.87884C1.03262 5.66939 1.39551 4.48905 2.05664 3.46108C2.14916 3.31264 2.28141 3.19096 2.43949 3.10883Z" fill="url(#paint2_linear_19_163)"/>
</g>
</g>
<defs>
<linearGradient id="paint0_linear_19_163" x1="0.797639" y1="0.157438" x2="17.2119" y2="14.9594" gradientUnits="userSpaceOnUse">
<stop stop-color="#F9D423"/>
<stop offset="0.515624" stop-color="#FF4E50"/>
<stop offset="0.991304" stop-color="#8A2387"/>
</linearGradient>
<linearGradient id="paint1_linear_19_163" x1="0.797639" y1="0.157438" x2="17.2119" y2="14.9594" gradientUnits="userSpaceOnUse">
<stop stop-color="#F9D423"/>
<stop offset="0.515624" stop-color="#FF4E50"/>
<stop offset="0.991304" stop-color="#8A2387"/>
</linearGradient>
<linearGradient id="paint2_linear_19_163" x1="0.797639" y1="0.157438" x2="17.2119" y2="14.9594" gradientUnits="userSpaceOnUse">
<stop stop-color="#F9D423"/>
<stop offset="0.515624" stop-color="#FF4E50"/>
<stop offset="0.991304" stop-color="#8A2387"/>
</linearGradient>
<clipPath id="clip0_19_163">
<rect width="16" height="16" fill="white"/>
</clipPath>
</defs>
</svg>
