<svg width="64" height="64" viewBox="0 0 64 64" fill="none" xmlns="http://www.w3.org/2000/svg">
<path opacity="0.4" d="M47.2969 2.89062H16.4844C8.97675 2.89062 2.89062 8.97675 2.89062 16.4844V47.2969C2.89062 54.8045 8.97675 60.8906 16.4844 60.8906H47.2969C54.8045 60.8906 60.8906 54.8045 60.8906 47.2969V16.4844C60.8906 8.97675 54.8045 2.89062 47.2969 2.89062Z" fill="url(#paint0_linear_343_443)"/>
<path fill-rule="evenodd" clip-rule="evenodd" d="M17.0478 41.6849C17.1857 41.2795 17.5664 41.0069 17.9946 41.0069H28.6855C29.1149 41.0069 29.4964 41.281 29.6333 41.688L31.2008 46.3477C31.2084 46.3702 31.2122 46.3938 31.2122 46.4175V46.5506C31.2122 46.5979 31.2506 46.6363 31.2979 46.6363V46.6363H39.0935H54.9817C55.534 46.6363 55.9817 46.1886 55.9817 45.6363V42.0069C55.9817 41.4546 55.534 41.0069 54.9817 41.0069H42.8227C41.9845 41.0069 41.5182 40.0376 42.0414 39.3827L55.763 22.2059C55.9046 22.0287 55.9817 21.8086 55.9817 21.5817V18.3633C55.9817 17.811 55.534 17.3633 54.9817 17.3633H32.2122C31.6599 17.3633 31.2122 17.811 31.2122 18.3633V21.9927C31.2122 22.545 31.6599 22.9927 32.2122 22.9927H44.3825C45.2209 22.9927 45.6871 23.9623 45.1636 24.6172L36.4671 35.4947C35.9838 36.0991 35.0266 35.9492 34.7514 35.2259L28.1992 18.0076C28.0516 17.6197 27.6796 17.3633 27.2646 17.3633H19.3977C18.9826 17.3633 18.6107 17.6197 18.463 18.0076L8.08462 45.2806C7.83556 45.9351 8.31897 46.6363 9.01923 46.6363H14.6481C15.0764 46.6363 15.4571 46.3636 15.5949 45.9582L17.0478 41.6849ZM26.9548 34.0317C27.1954 34.6845 26.7123 35.3774 26.0165 35.3774H20.6482C19.9517 35.3774 19.4686 34.6833 19.7104 34.0302L22.4012 26.7641C22.7237 25.8931 23.9561 25.894 24.2773 26.7656L26.9548 34.0317Z" fill="url(#paint1_linear_343_443)"/>
<defs>
<linearGradient id="paint0_linear_343_443" x1="6.05425" y1="60.8906" x2="60.086" y2="2.15054" gradientUnits="userSpaceOnUse">
<stop offset="0.106984" stop-color="#E02767"/>
<stop offset="0.871403" stop-color="#FA5D51"/>
</linearGradient>
<linearGradient id="paint1_linear_343_443" x1="10.6345" y1="46.6363" x2="33.9972" y2="5.02119" gradientUnits="userSpaceOnUse">
<stop offset="0.106984" stop-color="#E02767"/>
<stop offset="0.871403" stop-color="#FA5D51"/>
</linearGradient>
</defs>
</svg>
