<svg width="32" height="32" viewBox="0 0 32 32" fill="none" xmlns="http://www.w3.org/2000/svg">
<path opacity="0.4" d="M30 16.0068C30 23.7192 23.7162 30 16 30C8.28378 30 2 23.7192 2 16.0068C2 8.28075 8.28378 2 16 2C23.7162 2 30 8.28075 30 16.0068" fill="url(#paint0_linear_5_77)"/>
<path fill-rule="evenodd" clip-rule="evenodd" d="M24.8446 17.58C25.2211 17.77 25.5115 18.07 25.7159 18.37C26.114 18.99 26.0817 19.75 25.6944 20.42L24.9414 21.62C24.5434 22.26 23.8011 22.66 23.0373 22.66C22.6608 22.66 22.2413 22.56 21.897 22.36C21.6173 22.19 21.2946 22.13 20.9504 22.13C19.8854 22.13 18.9925 22.96 18.9603 23.95C18.9603 25.1 17.9706 26 16.7335 26H15.2704C14.0226 26 13.0329 25.1 13.0329 23.95C13.0114 22.96 12.1185 22.13 11.0535 22.13C10.6985 22.13 10.3758 22.19 10.1069 22.36C9.76263 22.56 9.33234 22.66 8.96658 22.66C8.19205 22.66 7.44978 22.26 7.05176 21.62L6.30949 20.42C5.91147 19.77 5.88995 18.99 6.28798 18.37C6.4601 18.07 6.78282 17.77 7.14858 17.58C7.44978 17.44 7.64342 17.21 7.82629 16.94C8.36417 16.08 8.04144 14.95 7.12706 14.44C6.06207 13.87 5.71784 12.6 6.33101 11.61L7.05176 10.43C7.67569 9.44 9.00961 9.09 10.0854 9.67C11.0213 10.15 12.2368 9.83 12.7855 8.98C12.9576 8.7 13.0544 8.4 13.0329 8.1C13.0114 7.71 13.1297 7.34 13.3341 7.04C13.7321 6.42 14.4529 6.02 15.2382 6H16.755C17.551 6 18.2718 6.42 18.6698 7.04C18.8634 7.34 18.9925 7.71 18.9603 8.1C18.9387 8.4 19.0356 8.7 19.2077 8.98C19.7563 9.83 20.9719 10.15 21.9185 9.67C22.9835 9.09 24.3282 9.44 24.9414 10.43L25.6621 11.61C26.2861 12.6 25.9418 13.87 24.8661 14.44C23.9517 14.95 23.629 16.08 24.1776 16.94C24.3497 17.21 24.5434 17.44 24.8446 17.58ZM16 19C17.6569 19 19 17.6569 19 16C19 14.3431 17.6569 13 16 13C14.3431 13 13 14.3431 13 16C13 17.6569 14.3431 19 16 19Z" fill="url(#paint1_linear_5_77)"/>
<defs>
<linearGradient id="paint0_linear_5_77" x1="16" y1="2" x2="16" y2="30" gradientUnits="userSpaceOnUse">
<stop stop-color="#00FFE0"/>
<stop offset="1" stop-color="#078AA7"/>
</linearGradient>
<linearGradient id="paint1_linear_5_77" x1="16" y1="6" x2="16" y2="26" gradientUnits="userSpaceOnUse">
<stop stop-color="#00FFE0"/>
<stop offset="1" stop-color="#078AA7"/>
</linearGradient>
</defs>
</svg>
