<svg width="128" height="128" viewBox="0 0 128 128" fill="none" xmlns="http://www.w3.org/2000/svg">
<path fill-rule="evenodd" clip-rule="evenodd" d="M44 20C44 17.2386 46.2386 15 49 15H71C73.7614 15 76 17.2386 76 20V28C76 30.7614 73.7614 33 71 33H49C46.2386 33 44 30.7614 44 28V20ZM4 104C4 101.791 5.79086 100 8 100H121C123.209 100 125 101.791 125 104V108C125 110.209 123.209 112 121 112H8C5.79086 112 4 110.209 4 108V104ZM44 70C44 67.2386 46.2386 65 49 65H71C73.7614 65 76 67.2386 76 70V78C76 80.7614 73.7614 83 71 83H49C46.2386 83 44 80.7614 44 78V70ZM49 40C46.2386 40 44 42.2386 44 45V53C44 55.7614 46.2386 58 49 58H71C73.7614 58 76 55.7614 76 53V45C76 42.2386 73.7614 40 71 40H49Z" fill="url(#paint0_linear_80_201)"/>
<g opacity="0.4">
<path d="M5 45C5 42.2386 7.23858 40 10 40H32C34.7614 40 37 42.2386 37 45V53C37 55.7614 34.7614 58 32 58H10C7.23858 58 5 55.7614 5 53V45Z" fill="url(#paint1_linear_80_201)"/>
<path d="M10 65C7.23858 65 5 67.2386 5 70V78C5 80.7614 7.23858 83 10 83H32C34.7614 83 37 80.7614 37 78V70C37 67.2386 34.7614 65 32 65H10Z" fill="url(#paint2_linear_80_201)"/>
<path d="M83 70C83 67.2386 85.2386 65 88 65H110C112.761 65 115 67.2386 115 70V78C115 80.7614 112.761 83 110 83H88C85.2386 83 83 80.7614 83 78V70Z" fill="url(#paint3_linear_80_201)"/>
</g>
<defs>
<linearGradient id="paint0_linear_80_201" x1="119.518" y1="16.6672" x2="33.9078" y2="128.936" gradientUnits="userSpaceOnUse">
<stop stop-color="#D800BD"/>
<stop offset="0.408098" stop-color="#F92D7A"/>
<stop offset="0.590073" stop-color="#FF4A52"/>
<stop offset="1" stop-color="#FFB243"/>
</linearGradient>
<linearGradient id="paint1_linear_80_201" x1="110.016" y1="40.739" x2="84.3047" y2="109.886" gradientUnits="userSpaceOnUse">
<stop stop-color="#D800BD"/>
<stop offset="0.408098" stop-color="#F92D7A"/>
<stop offset="0.590073" stop-color="#FF4A52"/>
<stop offset="1" stop-color="#FFB243"/>
</linearGradient>
<linearGradient id="paint2_linear_80_201" x1="110.016" y1="40.739" x2="84.3047" y2="109.886" gradientUnits="userSpaceOnUse">
<stop stop-color="#D800BD"/>
<stop offset="0.408098" stop-color="#F92D7A"/>
<stop offset="0.590073" stop-color="#FF4A52"/>
<stop offset="1" stop-color="#FFB243"/>
</linearGradient>
<linearGradient id="paint3_linear_80_201" x1="110.016" y1="40.739" x2="84.3047" y2="109.886" gradientUnits="userSpaceOnUse">
<stop stop-color="#D800BD"/>
<stop offset="0.408098" stop-color="#F92D7A"/>
<stop offset="0.590073" stop-color="#FF4A52"/>
<stop offset="1" stop-color="#FFB243"/>
</linearGradient>
</defs>
</svg>
