<svg width="32" height="32" viewBox="0 0 32 32" fill="none" xmlns="http://www.w3.org/2000/svg">
<path opacity="0.4" d="M13.2291 6.33329C13.3055 6.48879 13.356 6.65531 13.3786 6.82651L13.7962 13.0364V13.0364L14.0035 16.1576C14.0057 16.4786 14.0561 16.7975 14.153 17.1041C14.4034 17.6988 15.0057 18.0769 15.6611 18.0505L25.647 17.3973C26.0794 17.3902 26.497 17.5519 26.8079 17.8469C27.0669 18.0928 27.2342 18.4143 27.2868 18.7602L27.3045 18.9703C26.8913 24.6923 22.6887 29.465 16.9785 30.697C11.2683 31.929 5.4128 29.3264 2.59106 24.3023C1.77758 22.8427 1.26948 21.2384 1.09657 19.5835C1.02434 19.0936 0.992538 18.5987 1.00147 18.1038C0.992551 11.9691 5.36121 6.66543 11.4765 5.38685C12.2125 5.27225 12.934 5.66188 13.2291 6.33329Z" fill="url(#paint0_linear_5_77)"/>
<path d="M17.305 1.00123C24.1448 1.17524 29.8934 6.09368 31 12.7184L30.9894 12.7673V12.7673L30.9592 12.8384L30.9634 13.0335C30.9477 13.2921 30.8479 13.5408 30.6759 13.7417C30.4967 13.951 30.2519 14.0935 29.9824 14.1489L29.818 14.1714L18.2968 14.9179C17.9136 14.9557 17.532 14.8321 17.247 14.5779C17.0095 14.3661 16.8577 14.0801 16.8148 13.772L16.0415 2.26759C16.028 2.22869 16.028 2.18652 16.0415 2.14762C16.052 1.83051 16.1916 1.53076 16.429 1.31534C16.6665 1.09993 16.9819 0.986799 17.305 1.00123Z" fill="url(#paint1_linear_5_77)"/>
<defs>
<linearGradient id="paint0_linear_5_77" x1="14.1523" y1="31" x2="14.1523" y2="5.36697" gradientUnits="userSpaceOnUse">
<stop stop-color="#FD2E00"/>
<stop offset="1" stop-color="#FFBB55"/>
</linearGradient>
<linearGradient id="paint1_linear_5_77" x1="23.5157" y1="14.9246" x2="23.5157" y2="1" gradientUnits="userSpaceOnUse">
<stop stop-color="#FD2E00"/>
<stop offset="1" stop-color="#FFBB55"/>
</linearGradient>
</defs>
</svg>
