<svg width="24" height="24" viewBox="0 0 24 24" fill="none" xmlns="http://www.w3.org/2000/svg">
<path d="M6.54291 12.4709L5.87709 13.0598C5.95642 13.1492 6.05299 13.2218 6.16101 13.273C6.26903 13.3243 6.38629 13.3532 6.50576 13.3581C6.62523 13.3629 6.74445 13.3436 6.85628 13.3013C6.96812 13.259 7.07026 13.1946 7.15661 13.1119L6.54291 12.4709ZM9.07943 11.2684C9.24168 11.1036 9.33329 10.8821 9.33479 10.6508C9.33629 10.4195 9.24756 10.1968 9.08746 10.0299C8.92736 9.86303 8.70849 9.76514 8.47737 9.75704C8.24624 9.74895 8.02106 9.83128 7.84968 9.98656L9.07943 11.2684ZM5.57499 10.0387C5.49914 9.9464 5.40546 9.87036 5.29955 9.81511C5.19365 9.75985 5.07768 9.72652 4.9586 9.71711C4.83952 9.70769 4.71976 9.72238 4.60649 9.7603C4.49321 9.79822 4.38875 9.85859 4.29933 9.9378C4.20992 10.017 4.1374 10.1134 4.0861 10.2213C4.0348 10.3292 4.00579 10.4463 4.00078 10.5657C3.99578 10.685 4.01489 10.8041 4.05697 10.9159C4.09905 11.0277 4.16325 11.1299 4.24572 11.2163L5.57499 10.0387ZM15.4912 8.26869C15.5704 8.35442 15.6657 8.4237 15.7717 8.4726C15.8776 8.52149 15.9922 8.54904 16.1088 8.55366C16.2254 8.55828 16.3418 8.53989 16.4513 8.49953C16.5608 8.45917 16.6613 8.39764 16.747 8.31845C16.8328 8.23926 16.902 8.14396 16.9509 8.03799C16.9998 7.93202 17.0274 7.81746 17.032 7.70085C17.0366 7.58423 17.0182 7.46785 16.9779 7.35835C16.9375 7.24884 16.876 7.14836 16.7968 7.06263L15.4924 8.26869H15.4912ZM12.0721 5.00001C8.53445 5.00001 5.65555 7.84693 5.65555 11.3739H7.43265C7.43265 8.8421 9.50238 6.77711 12.0721 6.77711V5.00001ZM5.65555 11.3739V12.4709H7.43265V11.3739H5.65555ZM7.15898 13.1119L9.08061 11.2684L7.85086 9.98656L5.92922 11.8288L7.15898 13.1119ZM7.20873 11.8809L5.57499 10.0387L4.24572 11.2163L5.87709 13.0598L7.20873 11.8809ZM16.7968 7.06263C16.1942 6.41075 15.4642 5.89089 14.6506 5.53587C13.837 5.18086 12.9586 4.99839 12.0709 5.00001V6.77711C12.7136 6.77553 13.3497 6.9074 13.9389 7.16435C14.528 7.4213 15.0574 7.79775 15.4936 8.26988L16.7968 7.06145V7.06263ZM17.491 11.1535L18.1545 10.5635C18.0751 10.4741 17.9785 10.4017 17.8704 10.3505C17.7623 10.2994 17.645 10.2706 17.5256 10.2658C17.4061 10.2611 17.2869 10.2805 17.1751 10.3229C17.0633 10.3653 16.9612 10.4298 16.875 10.5126L17.491 11.1535ZM14.9569 12.3548C14.7869 12.5182 14.6888 12.7425 14.6841 12.9782C14.6795 13.2139 14.7686 13.4419 14.932 13.6118C15.0954 13.7818 15.3196 13.8799 15.5554 13.8846C15.7911 13.8893 16.019 13.8001 16.189 13.6367L14.9569 12.3548ZM18.4637 13.587C18.6222 13.7558 18.8404 13.856 19.0717 13.8664C19.303 13.8767 19.5293 13.7964 19.7022 13.6424C19.8752 13.4884 19.9812 13.273 19.9977 13.0421C20.0142 12.8111 19.9399 12.5828 19.7906 12.4058L18.4637 13.5858V13.587ZM8.52023 15.3724C8.35809 15.2045 8.1364 15.1072 7.90308 15.1014C7.66976 15.0956 7.44354 15.1819 7.2733 15.3415C7.10306 15.5012 7.00248 15.7214 6.99328 15.9546C6.98408 16.1879 7.067 16.4153 7.22414 16.5879L8.52023 15.3724ZM11.9417 18.6244C15.4877 18.6244 18.3796 15.7811 18.3796 12.2506H16.6025C16.6025 14.78 14.5257 16.8473 11.9417 16.8473V18.6244ZM18.3796 12.2506V11.1535H16.6025V12.2506H18.3796ZM16.875 10.5126L14.9569 12.3548L16.189 13.6367L18.1059 11.7945L16.875 10.5126ZM16.8276 11.7447L18.4625 13.5858L19.7918 12.4058L18.1545 10.5635L16.8276 11.7447ZM7.22295 16.5867C7.8279 17.2312 8.5588 17.7445 9.37031 18.0948C10.1818 18.4451 11.0567 18.625 11.9406 18.6233V16.8462C10.5864 16.8462 9.36969 16.2775 8.51905 15.3712L7.22414 16.5879L7.22295 16.5867Z" fill="url(#paint0_linear_8_820)"/>
<path opacity="0.5" d="M12 23C18.0751 23 23 18.0751 23 12C23 5.92487 18.0751 1 12 1C5.92487 1 1 5.92487 1 12C1 18.0751 5.92487 23 12 23Z" fill="url(#paint1_linear_8_820)"/>
<defs>
<linearGradient id="paint0_linear_8_820" x1="12" y1="18.6244" x2="12" y2="5" gradientUnits="userSpaceOnUse">
<stop stop-color="#5558FF"/>
<stop offset="1" stop-color="#00C0FF"/>
</linearGradient>
<linearGradient id="paint1_linear_8_820" x1="12" y1="23" x2="12" y2="1" gradientUnits="userSpaceOnUse">
<stop stop-color="#5570FF"/>
<stop offset="1" stop-color="#4DD3FF"/>
</linearGradient>
</defs>
</svg>
