<svg width="64" height="64" viewBox="0 0 64 64" fill="none" xmlns="http://www.w3.org/2000/svg">
<path opacity="0.4" fill-rule="evenodd" clip-rule="evenodd" d="M31.9485 1C29.9364 1 27.9298 1.53398 26.1424 2.59691L21.8634 5.11619L17.2012 7.83056L17.1896 7.83736L9.7722 12.2005L9.77086 12.2012C6.15996 14.3227 4 18.192 4 22.3699V41.6312C4 45.7642 6.15407 49.6757 9.7722 51.8006L9.77606 51.8029L26.1893 61.4094L26.1904 61.4101C29.7912 63.5242 34.2304 63.5371 37.8164 61.4061L54.2239 51.8029L54.2278 51.8006C57.8398 49.6793 60 45.8098 60 41.6312V22.3699V22.3519L59.9998 22.3339C59.9498 18.1627 57.7497 14.321 54.2059 12.2099L54.1959 12.204L54.186 12.1982L37.7727 2.59167L37.7707 2.59049C35.9725 1.5349 33.9626 1 31.9485 1Z" fill="url(#paint0_linear_54_1486)"/>
<path d="M13 17.6508V10.9637C13 10.6086 13.1883 10.2801 13.4948 10.1007L18.9941 6.88121C19.6607 6.49093 20.4993 6.97171 20.4993 7.7442V13.3884V16.7475V29.2512V30.0032V30.5401C20.4993 34.2508 25.4988 39.2503 30.4984 39.2503C36.0208 39.2503 40.4975 34.7736 40.4975 29.2512C40.4975 24.0659 36.5505 19.8025 31.497 19.3014C30.9474 19.2469 30.4984 18.8044 30.4984 18.2522V12.8847C30.4984 12.3324 30.9469 11.8801 31.4971 11.9289C33.1098 12.072 34.72 12.5644 36.1619 13.4373L42.3283 17.0502C45.858 19.1067 47.9968 22.8731 47.9968 26.9858V32.9038C47.9968 36.9664 45.858 40.778 42.3283 42.8345L36.1619 46.4474C34.422 47.4506 32.4323 48 30.4935 48C28.5547 48 26.5699 47.5007 24.8299 46.4474L18.6685 42.8345C15.1388 40.778 13 37.0165 13 32.9038V29.2907V26.9321V17.6508Z" fill="url(#paint1_linear_54_1486)"/>
<path d="M29.2485 18.4609V13.0413C29.2485 12.5928 28.8191 12.2473 28.3773 12.3244C28.0445 12.3825 27.6852 12.4453 27.3707 12.5172C26.9851 12.6053 26.7487 12.9599 26.7487 13.3555V18.5105C26.7487 19.2184 27.4682 19.7058 28.1568 19.5418C28.2301 19.5243 28.3035 19.5077 28.3771 19.4919C28.8707 19.386 29.2485 18.9657 29.2485 18.4609Z" fill="url(#paint2_linear_54_1486)"/>
<path d="M24.1272 13.9913L23.6274 14.1914C23.2479 14.3434 22.9991 14.711 22.9991 15.1198V20.0038C22.9991 20.9259 24.2349 21.4173 25.0049 20.9099C25.3029 20.7135 25.4988 20.3848 25.4988 20.0279V14.9197C25.4988 14.2121 24.7841 13.7283 24.1272 13.9913Z" fill="url(#paint3_linear_54_1486)"/>
<defs>
<linearGradient id="paint0_linear_54_1486" x1="32" y1="62" x2="32" y2="2" gradientUnits="userSpaceOnUse">
<stop stop-color="#FDA700"/>
<stop offset="1" stop-color="#FFDE00"/>
</linearGradient>
<linearGradient id="paint1_linear_54_1486" x1="31.7483" y1="69.2475" x2="31.7483" y2="-5.74555" gradientUnits="userSpaceOnUse">
<stop stop-color="#FDA700"/>
<stop offset="1" stop-color="#FFDE00"/>
</linearGradient>
<linearGradient id="paint2_linear_54_1486" x1="31.7483" y1="69.2475" x2="31.7483" y2="-5.74555" gradientUnits="userSpaceOnUse">
<stop stop-color="#FDA700"/>
<stop offset="1" stop-color="#FFDE00"/>
</linearGradient>
<linearGradient id="paint3_linear_54_1486" x1="31.7483" y1="69.2475" x2="31.7483" y2="-5.74555" gradientUnits="userSpaceOnUse">
<stop stop-color="#FDA700"/>
<stop offset="1" stop-color="#FFDE00"/>
</linearGradient>
</defs>
</svg>
