<svg width="128" height="128" viewBox="0 0 128 128" fill="none" xmlns="http://www.w3.org/2000/svg">
<path opacity="0.4" d="M19.9037 10.0001C21.7571 8.44891 24.2604 8.08546 26.5901 8.07896C32.9139 8.08332 39.2377 8.08187 45.5616 8.08041L46.3521 8.08028C49.2505 8.07958 52.1489 8.07896 55.0473 8.07896C56.3164 8.09714 57.5866 8.08836 58.8565 8.07952C60.7613 8.06624 62.6656 8.05304 64.5653 8.13088L82.1957 8.1958C85.1886 8.02808 88.1925 8.05373 91.1951 8.07938C91.733 8.08401 91.8837 8.08857 91.8844 8.0921C91.9888 8.0903 92.1326 8.08816 92.3276 8.08546C93.8845 8.22408 95.5244 8.15384 97.176 8.08304C101.169 7.91186 105.232 7.73778 108.364 10.5063C108.464 10.6512 108.565 10.7954 108.666 10.9397L108.669 10.9435C109.115 11.5799 109.561 12.2169 109.896 12.9142C110.796 16.1813 110.698 19.5679 110.601 22.9516L110.6 22.9791C110.551 24.6948 110.503 26.4098 110.584 28.1078C110.589 29.6728 110.595 31.238 110.601 32.8033L110.602 32.9727C110.632 41.5358 110.662 50.1021 110.591 58.6638C110.597 59.2546 110.604 59.847 110.612 60.4405V60.4488C110.703 67.8605 110.796 75.4585 107.753 82.3659C105.417 88.0191 101.877 93.1006 97.7015 97.5205C89.5926 106.335 79.5209 113.065 68.9092 118.42C66.5474 119.698 63.7544 120.568 61.1287 119.561C55.9097 117.076 50.8321 114.298 46.0056 111.105C42.0671 108.476 38.2638 105.634 34.7758 102.415C32.1502 99.9291 29.6404 97.3193 27.2786 94.5739C27.1068 94.361 26.9229 94.1473 26.7378 93.933L26.7375 93.9323C26.2917 93.4166 25.8393 92.8918 25.5347 92.3415C22.761 88.7976 20.6502 84.7483 19.1443 80.4965C17.7736 76.4859 16.9756 72.2541 17.0013 67.9967C16.9981 59.5501 17.0013 51.1019 17.0046 42.6528L17.0046 42.3858C17.0078 34.0249 17.011 25.6633 17.0077 17.3016C16.9434 14.6276 17.7929 11.7524 19.9037 10.0001Z" fill="url(#paint0_linear_127_115)"/>
<path fill-rule="evenodd" clip-rule="evenodd" d="M19.9055 9.9319C21.7601 8.37974 24.265 8.0161 26.5961 8.00955C32.9238 8.01392 39.2515 8.01246 45.5792 8.011L46.3704 8.01086C49.2705 8.0102 52.1707 8.00955 55.0709 8.00955C56.3408 8.02774 57.6117 8.01901 58.8825 8.01013C60.7884 7.99681 62.6938 7.98364 64.5947 8.06151C67.0998 8.23689 68.3234 10.919 68.0142 13.179C68.0018 16.4192 68.004 19.6594 68.0062 22.8989V22.9024V23.2369C68.0076 27.0139 68.0091 30.7902 67.988 34.5645C68.0076 42.5655 68.0142 50.5599 67.988 58.5543C68.0062 63.0172 68.004 67.4805 68.0018 71.9429C68.0003 75.5131 67.9989 79.0833 68.0076 82.6543C67.9756 86.4574 67.9872 90.2626 67.9996 94.0672L68.0003 94.1559C68.0163 99.5476 68.0331 104.938 67.9239 110.32L67.9996 118.893C65.8549 119.892 63.4421 120.437 61.1561 119.561C55.9338 117.073 50.8531 114.294 46.0236 111.1C42.0827 108.47 38.277 105.625 34.7869 102.404C32.1596 99.9166 29.6483 97.3055 27.285 94.5584C27.1132 94.3452 26.9292 94.1319 26.744 93.9165C26.2979 93.3998 25.8448 92.8751 25.54 92.3243C22.7646 88.7781 20.6525 84.7268 19.1456 80.4718C17.774 76.4592 16.9756 72.2245 17.0013 67.9644C16.9981 59.5127 17.0013 51.0592 17.0046 42.6049L17.0047 42.3377C17.0078 33.9716 17.011 25.6048 17.0077 17.238C16.9433 14.5623 17.7934 11.6853 19.9055 9.9319Z" fill="url(#paint1_linear_127_115)"/>
<defs>
<linearGradient id="paint0_linear_127_115" x1="63.8308" y1="120" x2="63.8308" y2="8.00001" gradientUnits="userSpaceOnUse">
<stop stop-color="#5570FF"/>
<stop offset="1" stop-color="#4DD3FF"/>
</linearGradient>
<linearGradient id="paint1_linear_127_115" x1="42.9706" y1="120" x2="42.9706" y2="8.00001" gradientUnits="userSpaceOnUse">
<stop stop-color="#5570FF"/>
<stop offset="1" stop-color="#4DD3FF"/>
</linearGradient>
</defs>
</svg>
