<svg width="64" height="64" viewBox="0 0 64 64" fill="none" xmlns="http://www.w3.org/2000/svg">
<path opacity="0.5" d="M32 62C48.5685 62 62 48.5685 62 32C62 15.4315 48.5685 2 32 2C15.4315 2 2 15.4315 2 32C2 48.5685 15.4315 62 32 62Z" fill="url(#paint0_linear_343_450)"/>
<path fill-rule="evenodd" clip-rule="evenodd" d="M30.1251 33.504V30.4969C30.1251 29.667 29.4515 28.9934 28.6215 28.9934H25.6145C24.7845 28.9934 24.1109 29.667 24.1109 30.4969V33.504C24.1109 34.3339 24.7845 35.0075 25.6145 35.0075H28.6215C29.4515 35.0075 30.1251 34.3339 30.1251 33.504ZM30.1251 44.0287V41.0216C30.1251 40.1917 29.4515 39.5181 28.6215 39.5181H25.6145C24.7845 39.5181 24.1109 40.1917 24.1109 41.0216V44.0287C24.1109 44.8586 24.7845 45.5322 25.6145 45.5322H28.6215C29.4515 45.5322 30.1251 44.8586 30.1251 44.0287ZM30.1251 22.9792V19.9722C30.1251 19.1422 29.4515 18.4687 28.6215 18.4687H25.6145C24.7845 18.4687 24.1109 19.1422 24.1109 19.9722V22.9792C24.1109 23.8092 24.7845 24.4828 25.6145 24.4828H28.6215C29.4515 24.4828 30.1251 23.8092 30.1251 22.9792ZM48.3362 35.0369C49.012 34.1736 49.3503 33.095 49.3503 32.0211C49.3503 30.8229 48.97 29.7077 48.2517 28.7987C48.1878 28.7378 48.0577 28.5992 47.8885 28.4191C47.6099 28.1223 47.2253 27.7127 46.8572 27.3527C43.3918 23.7171 34.3483 17.7686 29.6155 15.9507C28.8972 15.6614 27.0801 15.046 26.1079 15.0005C25.1785 15.0005 24.2911 15.2112 23.4457 15.6201C22.3893 16.1984 21.5442 17.1115 21.0793 18.1817C20.7835 18.9251 20.3185 21.1559 20.3185 21.1972C19.8539 23.6348 19.6003 27.6048 19.6003 31.9798C19.6003 36.1524 19.8539 39.9531 20.2342 42.4361C20.2448 42.4453 20.2818 42.6257 20.3394 42.9059C20.5118 43.7451 20.8682 45.48 21.2484 46.1955C22.178 47.9305 23.9951 49.0005 25.9392 49.0005H26.1079C27.3759 48.9631 30.0381 47.8853 30.0381 47.8435C34.5176 46.0301 43.3496 40.3703 46.8992 36.607L47.1527 36.3588C47.6176 35.9044 48.2092 35.2062 48.3362 35.0369Z" fill="url(#paint1_linear_343_450)"/>
<defs>
<linearGradient id="paint0_linear_343_450" x1="32" y1="62" x2="32" y2="2" gradientUnits="userSpaceOnUse">
<stop stop-color="#FDA700"/>
<stop offset="1" stop-color="#FFDE00"/>
</linearGradient>
<linearGradient id="paint1_linear_343_450" x1="34.4753" y1="49.0005" x2="34.4753" y2="15.0005" gradientUnits="userSpaceOnUse">
<stop stop-color="#FDA700"/>
<stop offset="1" stop-color="#FFDE00"/>
</linearGradient>
</defs>
</svg>
