<svg width="48" height="48" viewBox="0 0 48 48" fill="none" xmlns="http://www.w3.org/2000/svg">
<path opacity="0.4" d="M22.8751 3.97452C22.253 3.99337 21.6521 4.20523 21.1558 4.58075C20.6594 4.95627 20.2921 5.47686 20.1048 6.07041C19.9175 6.66395 19.9194 7.30106 20.1102 7.89348C20.3011 8.4859 20.6715 9.0043 21.17 9.37686L23.648 11.2829C23.9507 11.5157 23.786 11.9999 23.4041 11.9999H8.00012C7.60258 11.9943 7.20789 12.0677 6.83899 12.216C6.47008 12.3642 6.13432 12.5843 5.85121 12.8634C5.5681 13.1426 5.34329 13.4752 5.18985 13.842C5.03641 14.2087 4.95739 14.6023 4.95739 14.9999C4.95739 15.3975 5.03641 15.7911 5.18985 16.1579C5.34329 16.5246 5.5681 16.8573 5.85121 17.1364C6.13432 17.4155 6.47008 17.6356 6.83899 17.7839C7.20789 17.9321 7.60258 18.0055 8.00012 17.9999H14.2885C14.676 17.9999 14.8371 18.4958 14.5236 18.7235L3.23645 26.9237C2.90683 27.1509 2.626 27.4416 2.41048 27.7789C2.19496 28.1163 2.04912 28.4933 1.98154 28.8878C1.91396 29.2824 1.92602 29.6864 2.01699 30.0762C2.10797 30.4661 2.27603 30.8337 2.51127 31.1576C2.74651 31.4815 3.04418 31.755 3.38675 31.962C3.72932 32.1691 4.10986 32.3055 4.50595 32.3633C4.90205 32.421 5.3057 32.3989 5.69313 32.2983C6.08055 32.1976 6.44392 32.0205 6.76184 31.7773L12.4047 27.6777C12.6551 27.4957 13.0079 27.6904 13.0001 27.9999V27.9999C13.0001 30.1011 13.4139 32.1816 14.218 34.1229C15.0221 36.0641 16.2006 37.8279 17.6864 39.3136C19.1721 40.7994 20.9359 41.9779 22.8771 42.782C24.8184 43.5861 26.8989 43.9999 29.0001 43.9999C31.1012 43.9999 33.1818 43.5861 35.123 42.782C37.0642 41.9779 38.8281 40.7994 40.3138 39.3136C41.7995 37.8279 42.9781 36.0641 43.7822 34.1229C44.5862 32.1816 45.0001 30.1011 45.0001 27.9999C45 25.4007 44.3666 22.8406 43.1547 20.5411C41.9474 18.2501 40.202 16.2866 38.0687 14.819C38.053 14.8081 38.038 14.7961 38.0237 14.7832C37.9609 14.7264 37.8956 14.6723 37.8282 14.621L24.8282 4.621C24.2737 4.18205 23.582 3.95309 22.8751 3.97452Z" fill="url(#paint0_linear_205_67)"/>
<path d="M28.9995 38C34.5224 38 38.9995 33.5228 38.9995 28C38.9995 22.4772 34.5224 18 28.9995 18C23.4767 18 18.9995 22.4772 18.9995 28C18.9995 33.5228 23.4767 38 28.9995 38Z" fill="url(#paint1_linear_205_67)"/>
<defs>
<linearGradient id="paint0_linear_205_67" x1="2.36883" y1="33.8186" x2="31.429" y2="1.91606" gradientUnits="userSpaceOnUse">
<stop stop-color="#FF5508"/>
<stop offset="1" stop-color="#FFA208"/>
</linearGradient>
<linearGradient id="paint1_linear_205_67" x1="19.1994" y1="32.9128" x2="33.78" y2="18.0341" gradientUnits="userSpaceOnUse">
<stop stop-color="#FF5508"/>
<stop offset="1" stop-color="#FFA208"/>
</linearGradient>
</defs>
</svg>
