<svg width="24" height="24" viewBox="0 0 24 24" fill="none" xmlns="http://www.w3.org/2000/svg">
<path opacity="0.5" d="M2.6104 2.6104C1 4.223 1 6.8146 1 12C1 17.1854 1 19.7781 2.6104 21.3885C4.223 23 6.8146 23 12 23C17.1854 23 19.7781 23 21.3885 21.3885C23 19.7792 23 17.1854 23 12C23 6.8146 23 4.2219 21.3885 2.6104C19.7792 1 17.1854 1 12 1C6.8146 1 4.2219 1 2.6104 2.6104Z" fill="url(#paint0_linear_70_67)"/>
<path fill-rule="evenodd" clip-rule="evenodd" d="M12.3847 4.26103C12.722 4.44103 13.114 4.72903 13.5234 5.0317L15.3607 6.38637C15.642 6.59303 15.9314 6.80637 16.1434 7.01437C16.382 7.25037 16.6674 7.62104 16.6674 8.15037C16.6674 8.6797 16.382 9.04904 16.1434 9.28637C15.8969 9.51309 15.6354 9.7229 15.3607 9.91437L12.5314 11.9997L15.3607 14.085C15.642 14.2917 15.9314 14.505 16.1434 14.713C16.382 14.9504 16.6674 15.3197 16.6674 15.849C16.6674 16.3784 16.382 16.749 16.1434 16.985C15.8967 17.2115 15.6352 17.4213 15.3607 17.613L13.5234 18.9677C13.114 19.2704 12.7234 19.5584 12.3847 19.7384C12.0407 19.9224 11.45 20.1597 10.822 19.8504C10.1927 19.541 10.0314 18.9357 9.974 18.5544C9.9194 18.181 9.9194 17.701 9.9194 17.197V14.053L7.60737 15.9464C7.40665 16.1099 7.14997 16.1884 6.89214 16.1652C6.6343 16.1421 6.39574 16.019 6.22737 15.8224C6.14501 15.7258 6.08281 15.6137 6.04446 15.4927C6.0061 15.3718 5.99235 15.2443 6.00403 15.1179C6.01572 14.9916 6.05259 14.8688 6.11247 14.7569C6.17235 14.645 6.25404 14.5462 6.35271 14.4664L9.3687 11.9997L6.35271 9.5317C6.25404 9.45187 6.17235 9.35309 6.11247 9.24119C6.05259 9.12928 6.01572 9.00652 6.00403 8.88014C5.99235 8.75376 6.0061 8.62632 6.04446 8.50533C6.08281 8.38435 6.14501 8.27227 6.22737 8.1757C6.39592 7.97925 6.63458 7.85647 6.89241 7.83355C7.15024 7.81063 7.40682 7.8894 7.60737 8.05304L9.9194 9.94504V6.80237C9.9194 6.29837 9.9194 5.81837 9.974 5.44503C10.0314 5.0637 10.1927 4.45837 10.822 4.14903C11.45 3.84103 12.0407 4.07703 12.3847 4.26103ZM11.878 17.133V13.925L14.142 15.5917C14.2794 15.693 14.3914 15.7757 14.4874 15.849C14.373 15.9358 14.2579 16.0216 14.142 16.1064L12.4007 17.389C12.1927 17.5424 12.0234 17.6664 11.8807 17.7664C11.878 17.5553 11.8771 17.3442 11.878 17.133ZM11.878 6.86637V10.0744L14.142 8.4077C14.2794 8.30637 14.3914 8.2237 14.4874 8.15037C14.373 8.06362 14.2579 7.97784 14.142 7.89304L12.4007 6.61037C12.2284 6.48312 12.0551 6.35734 11.8807 6.23303C11.878 6.44413 11.8771 6.65525 11.878 6.86637Z" fill="url(#paint1_linear_70_67)"/>
<defs>
<linearGradient id="paint0_linear_70_67" x1="22.3795" y1="12" x2="4.02257" y2="5.35964" gradientUnits="userSpaceOnUse">
<stop stop-color="#FE7970"/>
<stop offset="1" stop-color="#DC3282"/>
</linearGradient>
<linearGradient id="paint1_linear_70_67" x1="16.3665" y1="12" x2="6.85416" y2="9.70587" gradientUnits="userSpaceOnUse">
<stop stop-color="#FE7970"/>
<stop offset="1" stop-color="#DC3282"/>
</linearGradient>
</defs>
</svg>
