<svg width="128" height="128" viewBox="0 0 128 128" fill="none" xmlns="http://www.w3.org/2000/svg">
<path d="M101.76 54.0293H13.3985C11.52 54.0293 10 55.5494 10 57.4279V77.819C10 102.18 29.8202 122 54.1808 122C65.328 122 75.493 117.815 83.2739 110.979C83.4071 110.862 83.5367 110.771 83.6949 110.691C87.608 108.717 118.753 92.3363 118.753 71.022C118.753 61.653 111.129 54.0293 101.76 54.0293ZM98.5702 91.3227C96.9512 92.603 94.4642 90.7063 94.9797 88.7076C95.8778 85.2252 96.3616 81.5795 96.3616 77.8193V62.8267C96.3616 61.7221 97.257 60.8267 98.3616 60.8267H99.76C105.382 60.8267 111.955 66.4002 111.955 72.0223C111.955 79.4705 105.425 85.9019 98.5702 91.3227Z" fill="url(#paint0_linear_343_471)"/>
<g opacity="0.4">
<path d="M50.0189 46.748L50.0128 46.7556C48.1539 49.0748 44.7728 49.4515 42.4426 47.6021C40.1076 45.7478 39.7287 42.3589 41.5644 40.0288C41.8511 39.6649 42.4398 38.806 42.9477 37.7693C43.4725 36.6979 43.7971 35.665 43.7971 34.8843C43.7971 34.0937 43.4641 33.0453 42.9338 31.9677C42.4198 30.9231 41.8344 30.0781 41.5825 29.7644L41.5752 29.7553C41.3192 29.4327 40.1966 27.9837 39.1311 25.8937C38.0763 23.8246 37 20.9775 37 17.8917C37 14.8059 38.0763 11.9589 39.1311 9.88972C40.1966 7.79974 41.3192 6.3508 41.5752 6.02819L41.5829 6.01853C43.4363 3.71222 46.8116 3.3145 49.1515 5.17407C51.4864 7.02828 51.8653 10.4172 50.0297 12.7474C49.743 13.1112 49.1543 13.9701 48.6464 15.0068C48.1216 16.0782 47.7971 17.111 47.7971 17.8917C47.7971 18.6825 48.13 19.7309 48.6603 20.8084C49.1742 21.853 49.7596 22.6979 50.0116 23.0117L50.0189 23.0208C50.2749 23.3434 51.3975 24.7924 52.463 26.8823C53.5179 28.9515 54.5941 31.7985 54.5941 34.8843C54.5941 37.9701 53.5179 40.8172 52.463 42.8864C51.3975 44.9764 50.2749 46.4253 50.0189 46.748Z" fill="url(#paint1_linear_343_471)"/>
<path d="M70.4095 46.7481L70.4034 46.7557C68.5445 49.0749 65.1635 49.4516 62.8332 47.6022C60.4982 45.7479 60.1193 42.359 61.955 40.0289C62.2418 39.665 62.8305 38.8061 63.3383 37.7694C63.8632 36.698 64.1877 35.6651 64.1877 34.8844C64.1877 34.0938 63.8547 33.0454 63.3244 31.9678C62.8105 30.9232 62.2251 30.0783 61.9731 29.7646L61.9658 29.7554C61.7098 29.4328 60.5871 27.9838 59.5217 25.8938C58.4669 23.8246 57.3906 20.9776 57.3906 17.8918C57.3906 14.806 58.4669 11.959 59.5217 9.88981C60.5871 7.79983 61.7098 6.35089 61.9658 6.02825L61.9705 6.0223L61.9753 6.01639C63.8303 3.7147 67.2054 3.31208 69.5448 5.17624C71.8773 7.03092 72.2554 10.4181 70.4203 12.7474C70.1336 13.1113 69.5449 13.9702 69.037 15.0069C68.5122 16.0783 68.1877 17.1111 68.1877 17.8918C68.1877 18.6826 68.5207 19.731 69.0509 20.8085C69.5648 21.8531 70.1502 22.698 70.4022 23.0118L70.4095 23.0209C70.6655 23.3435 71.7882 24.7925 72.8536 26.8824C73.9085 28.9516 74.9847 31.7986 74.9847 34.8844C74.9847 37.9702 73.9085 40.8173 72.8536 42.8865C71.7882 44.9765 70.6655 46.4254 70.4095 46.7481Z" fill="url(#paint2_linear_343_471)"/>
</g>
<defs>
<linearGradient id="paint0_linear_343_471" x1="98.5582" y1="109.788" x2="66.1524" y2="50.1454" gradientUnits="userSpaceOnUse">
<stop stop-color="#248EFE"/>
<stop offset="1" stop-color="#1DF4FF"/>
</linearGradient>
<linearGradient id="paint1_linear_343_471" x1="51.327" y1="40.7308" x2="32.2276" y2="32.098" gradientUnits="userSpaceOnUse">
<stop stop-color="#248EFE"/>
<stop offset="1" stop-color="#1DF4FF"/>
</linearGradient>
<linearGradient id="paint2_linear_343_471" x1="71.7176" y1="40.7309" x2="52.6182" y2="32.0981" gradientUnits="userSpaceOnUse">
<stop stop-color="#248EFE"/>
<stop offset="1" stop-color="#1DF4FF"/>
</linearGradient>
</defs>
</svg>
