<svg width="32" height="32" viewBox="0 0 32 32" fill="none" xmlns="http://www.w3.org/2000/svg">
<path opacity="0.4" d="M30.9432 20.2279C31.0431 19.585 31.011 18.9285 30.8487 18.2984C30.7509 17.9188 30.6071 17.5537 30.4212 17.2108C30.2041 16.8103 30.2041 16.3164 30.4212 15.916C30.6071 15.5731 30.7509 15.2079 30.8487 14.8284C31.011 14.1983 31.0431 13.5418 30.9432 12.8989C30.8961 12.565 30.7569 12.2509 30.5413 11.9917C30.3258 11.7325 30.0423 11.5384 29.7226 11.4312C29.403 11.3239 29.0598 11.3078 28.7315 11.3846C28.4032 11.4614 28.1028 11.6281 27.8639 11.866L24.621 15.1089C24.2305 15.4994 23.5964 15.497 23.1992 15.1133C18.466 10.5402 14.6732 8.53673 10.8464 8.96651C10.1853 9.04075 9.87639 9.77988 10.1588 10.3822C11.0638 12.3119 11.5359 14.4224 11.5346 16.5646C11.5332 18.7066 11.0588 20.8162 10.1516 22.7447C9.86838 23.3468 10.1768 24.0866 10.838 24.1613C14.667 24.5938 18.462 22.5904 23.1992 18.0135C23.5964 17.6298 24.2305 17.6274 24.621 18.0179L27.8639 21.2608C28.1028 21.4987 28.4032 21.6654 28.7315 21.7421C29.0598 21.8189 29.403 21.8028 29.7226 21.6956C30.0423 21.5884 30.3258 21.3943 30.5413 21.1351C30.7569 20.8758 30.8961 20.5617 30.9432 20.2279Z" fill="url(#paint0_linear_304_144)"/>
<path d="M16.088 6.06809C15.1925 6.22336 15.3059 7.34162 16.1581 7.65746C17.8133 8.27088 19.3689 9.13332 20.7699 10.2176C21.175 10.5312 21.7772 10.5249 21.9889 10.0583C22.0086 10.0148 22.027 9.97072 22.044 9.92601C22.1686 9.59915 22.2179 9.24838 22.1882 8.89984C22.1584 8.55129 22.0505 8.21395 21.8722 7.91293C21.694 7.61191 21.4502 7.35497 21.1589 7.16126C20.0672 6.4202 18.7864 6.00658 17.4674 5.9691C17.0033 5.95592 16.5413 5.98949 16.088 6.06809Z" fill="url(#paint1_linear_304_144)"/>
<path d="M21.0708 22.6467C21.2977 22.4729 21.619 22.4902 21.8211 22.6923V22.6923C23.8302 24.8867 20.2785 27.244 18.4773 25.3276V25.3276C18.1739 25.0242 18.2485 24.5142 18.6184 24.2969C19.4688 23.7976 20.2878 23.2465 21.0708 22.6467Z" fill="url(#paint2_linear_304_144)"/>
<path fill-rule="evenodd" clip-rule="evenodd" d="M6.9484 22.8844C4.58523 21.597 1.01244 19.6507 1 16.5636C0.999097 15.9624 1.12697 15.368 1.37501 14.8203C1.62305 14.2726 1.98551 13.7845 2.43801 13.3886C3.73602 12.209 5.16949 11.1894 6.70755 10.3508C7.15669 10.106 7.71766 10.2626 7.9589 10.7137C8.91893 12.5089 9.42414 14.5175 9.42333 16.5625C9.42249 18.6977 8.86999 20.7929 7.82428 22.6465C7.65048 22.9545 7.25901 23.0536 6.9484 22.8844V22.8844ZM5.97623 17.311C6.17446 17.1128 6.28582 16.8439 6.28582 16.5636C6.28582 16.2833 6.17446 16.0144 5.97623 15.8162C5.77801 15.618 5.50916 15.5066 5.22883 15.5066C4.9485 15.5066 4.67965 15.618 4.48143 15.8162C4.28321 16.0144 4.17184 16.2833 4.17184 16.5636C4.17184 16.8439 4.28321 17.1128 4.48143 17.311C4.67965 17.5092 4.9485 17.6206 5.22883 17.6206C5.50916 17.6206 5.77801 17.5092 5.97623 17.311Z" fill="url(#paint3_linear_304_144)"/>
<defs>
<linearGradient id="paint0_linear_304_144" x1="20.2658" y1="24.2188" x2="20.2658" y2="8.90967" gradientUnits="userSpaceOnUse">
<stop stop-color="#5570FF"/>
<stop offset="1" stop-color="#4DD3FF"/>
</linearGradient>
<linearGradient id="paint1_linear_304_144" x1="11.7094" y1="26.0337" x2="11.7094" y2="5.96631" gradientUnits="userSpaceOnUse">
<stop stop-color="#5570FF"/>
<stop offset="1" stop-color="#4DD3FF"/>
</linearGradient>
<linearGradient id="paint2_linear_304_144" x1="11.7094" y1="26.0337" x2="11.7094" y2="5.96631" gradientUnits="userSpaceOnUse">
<stop stop-color="#5570FF"/>
<stop offset="1" stop-color="#4DD3FF"/>
</linearGradient>
<linearGradient id="paint3_linear_304_144" x1="11.7094" y1="26.0337" x2="11.7094" y2="5.96631" gradientUnits="userSpaceOnUse">
<stop stop-color="#5570FF"/>
<stop offset="1" stop-color="#4DD3FF"/>
</linearGradient>
</defs>
</svg>
