<svg width="24" height="24" viewBox="0 0 24 24" fill="none" xmlns="http://www.w3.org/2000/svg">
<path opacity="0.4" d="M12 1C5.906 1 1 5.906 1 12C1 18.094 5.906 23 12 23C18.094 23 23 18.094 23 12C23 5.906 18.094 1 12 1Z" fill="url(#paint0_linear_129_110)"/>
<path fill-rule="evenodd" clip-rule="evenodd" d="M16.7631 5.95105L17.8722 4.02963C18.1681 3.51707 18.845 3.36981 19.2878 3.76248C19.3905 3.85353 19.4914 3.94648 19.5906 4.04128C19.9062 4.343 19.9554 4.82254 19.7371 5.20069L18.652 7.0801C18.4588 7.41465 18.4807 7.82778 18.6734 8.16258C19.3435 9.32671 19.6993 10.6495 19.7 12C19.6992 12.5931 19.63 13.1828 19.4944 13.7576C19.3547 14.3501 18.675 14.5839 18.1479 14.2795L17.9211 14.1486C17.5087 13.9104 17.3315 13.4155 17.4149 12.9467C17.4704 12.6347 17.499 12.3179 17.5 12C17.499 11.2224 17.3332 10.4538 17.0134 9.74497C16.8059 9.28513 16.5368 8.85722 16.2142 8.47264C15.9088 8.10837 15.8156 7.59207 16.0533 7.18037L16.7631 5.95105ZM4.02963 6.12777C3.51707 5.8319 3.36981 5.15495 3.76248 4.71216C3.85353 4.60949 3.94648 4.50855 4.04128 4.40937C4.343 4.09372 4.82254 4.04458 5.20069 4.2629L7.0801 5.34796C7.41465 5.54111 7.82778 5.51923 8.16258 5.32651C9.32671 4.65643 10.6495 4.30065 12 4.29998C12.5931 4.30072 13.1828 4.36998 13.7576 4.50552C14.3501 4.64522 14.5839 5.32496 14.2795 5.8521L14.1486 6.07886C13.9104 6.49124 13.4155 6.66849 12.9467 6.58505C12.6347 6.52952 12.3179 6.50096 12 6.49998C11.2224 6.50094 10.4538 6.66678 9.74497 6.98657C9.28513 7.19402 8.85722 7.46321 8.47264 7.78572C8.10837 8.0912 7.59207 8.18437 7.18037 7.94666L5.95105 7.23689L4.02963 6.12777ZM4.29998 12C4.30072 11.4069 4.36998 10.8171 4.50552 10.2423C4.64522 9.64988 5.32496 9.41605 5.8521 9.72045L6.07886 9.8514C6.49124 10.0895 6.66849 10.5844 6.58505 11.0533C6.52952 11.3653 6.50096 11.682 6.49998 12C6.50094 12.7776 6.66678 13.5462 6.98657 14.255C7.19402 14.7148 7.46321 15.1427 7.78572 15.5273C8.0912 15.8916 8.18437 16.4079 7.94666 16.8196L7.23689 18.0489L6.12777 19.9703C5.8319 20.4829 5.15495 20.6302 4.71216 20.2375C4.60949 20.1464 4.50855 20.0535 4.40937 19.9587C4.09372 19.657 4.04458 19.1774 4.2629 18.7993L5.34797 16.9199C5.54111 16.5853 5.51923 16.1722 5.32651 15.8374C4.65643 14.6733 4.30065 13.3505 4.29998 12ZM14.255 17.0134C14.7148 16.8059 15.1427 16.5368 15.5273 16.2142C15.8916 15.9088 16.4079 15.8156 16.8196 16.0533L18.0489 16.7631L19.9703 17.8722C20.4829 18.1681 20.6301 18.845 20.2375 19.2878C20.1464 19.3905 20.0535 19.4914 19.9587 19.5906C19.657 19.9062 19.1774 19.9554 18.7993 19.7371L16.9199 18.652C16.5853 18.4588 16.1722 18.4807 15.8374 18.6734C14.6733 19.3435 13.3505 19.6993 12 19.7C11.4069 19.6992 10.8171 19.63 10.2423 19.4944C9.64988 19.3547 9.41605 18.675 9.72045 18.1479L9.8514 17.9211C10.0895 17.5087 10.5844 17.3315 11.0533 17.4149C11.3653 17.4704 11.682 17.499 12 17.5C12.7776 17.499 13.5462 17.3332 14.255 17.0134ZM15.3 11.9999C15.3 13.8225 13.8225 15.2999 12 15.2999C10.1775 15.2999 8.69999 13.8225 8.69999 11.9999C8.69999 10.1774 10.1775 8.69993 12 8.69993C13.8225 8.69993 15.3 10.1774 15.3 11.9999Z" fill="url(#paint1_linear_129_110)"/>
<defs>
<linearGradient id="paint0_linear_129_110" x1="12" y1="23" x2="12" y2="1" gradientUnits="userSpaceOnUse">
<stop stop-color="#5570FF"/>
<stop offset="1" stop-color="#4DD3FF"/>
</linearGradient>
<linearGradient id="paint1_linear_129_110" x1="12" y1="20.4609" x2="12" y2="3.53906" gradientUnits="userSpaceOnUse">
<stop stop-color="#5570FF"/>
<stop offset="1" stop-color="#4DD3FF"/>
</linearGradient>
</defs>
</svg>
