<svg width="24" height="24" viewBox="0 0 24 24" fill="none" xmlns="http://www.w3.org/2000/svg">
<path opacity="0.4" d="M2.6104 2.6104C1 4.223 1 6.8146 1 12C1 17.1854 1 19.7781 2.6104 21.3885C4.223 23 6.8146 23 12 23C17.1854 23 19.7781 23 21.3885 21.3885C23 19.7792 23 17.1854 23 12C23 6.8146 23 4.2219 21.3885 2.6104C19.7792 1 17.1854 1 12 1C6.8146 1 4.2219 1 2.6104 2.6104Z" fill="url(#paint0_linear_8_153)"/>
<path d="M17.1667 12.5067C17.1667 12.8542 17.0625 13.203 16.8542 13.4824C16.8151 13.5372 16.6328 13.7631 16.4896 13.9101L16.4115 13.9903C15.3177 15.2079 12.5964 17.039 11.2161 17.6258C11.2161 17.6391 10.3958 17.988 10.0052 18H9.95312C9.35417 18 8.79427 17.6538 8.50781 17.0925C8.35156 16.7837 8.20833 15.8882 8.19531 15.8762C8.07813 15.0729 8 13.8433 8 12.4933C8 11.0779 8.07812 9.79344 8.22135 9.00486C8.22135 8.99149 8.36458 8.26974 8.45573 8.02916C8.59896 7.68299 8.85937 7.38761 9.1849 7.20049C9.44531 7.06817 9.71875 7 10.0052 7C10.3047 7.0147 10.8646 7.21385 11.0859 7.30741C12.5443 7.8955 15.3307 9.82017 16.3984 10.9964C16.5807 11.1835 16.776 11.412 16.8281 11.4642C17.0495 11.7582 17.1667 12.1191 17.1667 12.5067" fill="url(#paint1_linear_8_153)"/>
<defs>
<linearGradient id="paint0_linear_8_153" x1="12" y1="23" x2="12" y2="1" gradientUnits="userSpaceOnUse">
<stop stop-color="#FD2E00"/>
<stop offset="1" stop-color="#FFBB55"/>
</linearGradient>
<linearGradient id="paint1_linear_8_153" x1="12.5833" y1="18" x2="12.5833" y2="7" gradientUnits="userSpaceOnUse">
<stop stop-color="#FD2E00"/>
<stop offset="1" stop-color="#FFBB55"/>
</linearGradient>
</defs>
</svg>
