<svg width="24" height="24" viewBox="0 0 24 24" fill="none" xmlns="http://www.w3.org/2000/svg">
<path d="M20.6842 1H6.78942C5.51574 1 4.47363 2.04211 4.47363 3.31579V17.2105C4.47363 18.4842 5.51574 19.5263 6.78942 19.5263H20.6842C21.9578 19.5263 22.9999 18.4842 22.9999 17.2105V3.31579C22.9999 2.04211 21.9578 1 20.6842 1ZM20.6842 16.2105C20.6842 16.7628 20.2364 17.2105 19.6842 17.2105H7.78942C7.23714 17.2105 6.78942 16.7628 6.78942 16.2105V4.31579C6.78942 3.7635 7.23714 3.31579 7.78942 3.31579H11.5789C12.1312 3.31579 12.5789 3.7635 12.5789 4.31579V12.5789C12.5789 13.056 13.1236 13.3283 13.5052 13.0421L15.4526 11.5816C15.8081 11.3149 16.297 11.3149 16.6526 11.5816L18.5999 13.0421C18.9816 13.3283 19.5263 13.056 19.5263 12.5789V3.89474C19.5263 3.57499 19.7855 3.31579 20.1052 3.31579V3.31579C20.425 3.31579 20.6842 3.57499 20.6842 3.89474V16.2105Z" fill="url(#paint0_linear_60_321)"/>
<path opacity="0.4" d="M2.73684 4.47363C3.05658 4.47363 3.31579 4.73284 3.31579 5.05258V19.5263C3.31579 20.1658 3.8342 20.6842 4.47368 20.6842H18.9474C19.2671 20.6842 19.5263 20.9434 19.5263 21.2631V22.421C19.5263 22.7407 19.2671 22.9999 18.9474 22.9999H3.31579C2.04211 22.9999 1 21.9578 1 20.6842V5.05258C1 4.73284 1.25921 4.47363 1.57895 4.47363H2.73684Z" fill="url(#paint1_linear_60_321)"/>
<defs>
<linearGradient id="paint0_linear_60_321" x1="11.421" y1="1" x2="11.421" y2="24.1579" gradientUnits="userSpaceOnUse">
<stop stop-color="#BAFA52"/>
<stop offset="1" stop-color="#3F8F5B"/>
</linearGradient>
<linearGradient id="paint1_linear_60_321" x1="12.5789" y1="-0.157946" x2="12.5789" y2="22.9999" gradientUnits="userSpaceOnUse">
<stop stop-color="#BAFA52"/>
<stop offset="1" stop-color="#3F8F5B"/>
</linearGradient>
</defs>
</svg>
