<svg width="24" height="24" viewBox="0 0 24 24" fill="none" xmlns="http://www.w3.org/2000/svg">
<path fill-rule="evenodd" clip-rule="evenodd" d="M16.6677 7.33619L22.3571 1.64786L22.3538 1.64456C21.0481 0.338804 18.5741 1.16274 13.625 2.81281L7.96083 4.70048C3.96767 6.03154 1.97109 6.69816 1.40457 7.6739C1.13958 8.12996 1 8.64802 1 9.17547C1 9.70292 1.13958 10.221 1.40457 10.677C1.97109 11.6539 3.96767 12.3194 7.96083 13.6515C8.45585 13.8166 9.01358 13.6977 9.38429 13.3314L15.4411 7.33069C15.6048 7.16886 15.8259 7.07855 16.0561 7.07958C16.2863 7.08061 16.5055 7.1729 16.6677 7.33619Z" fill="url(#paint0_linear_216_291)"/>
<path opacity="0.4" d="M19.2969 16.0377L21.1857 10.3725C22.8335 5.42782 23.6586 2.95382 22.3561 1.64697L16.6667 7.3353C16.8289 7.49899 16.9194 7.72039 16.9184 7.95081C16.9173 8.18124 16.8248 8.40182 16.6612 8.56405L10.7033 14.468C10.5048 14.671 10.3664 14.925 10.3035 15.2019C10.2406 15.4788 10.2556 15.7677 10.3469 16.0366C11.678 20.0309 12.3435 22.0275 13.3204 22.5951C13.7763 22.8604 14.2944 23.0002 14.8219 23.0002C15.3494 23.0002 15.8675 22.8604 16.3235 22.5951C17.3003 22.0275 17.9658 20.032 19.2969 16.0366V16.0377Z" fill="url(#paint1_linear_216_291)"/>
<defs>
<linearGradient id="paint0_linear_216_291" x1="11.6785" y1="13.7244" x2="11.6785" y2="1" gradientUnits="userSpaceOnUse">
<stop stop-color="#00B59C"/>
<stop offset="1" stop-color="#9CFFAC"/>
</linearGradient>
<linearGradient id="paint1_linear_216_291" x1="16.6317" y1="23.0002" x2="16.6317" y2="1.64697" gradientUnits="userSpaceOnUse">
<stop stop-color="#00B59C"/>
<stop offset="1" stop-color="#9CFFAC"/>
</linearGradient>
</defs>
</svg>
