<svg width="48" height="48" viewBox="0 0 48 48" fill="none" xmlns="http://www.w3.org/2000/svg">
<path opacity="0.4" fill-rule="evenodd" clip-rule="evenodd" d="M42.654 9.87311L41.612 12.4331L42.938 16.2261C42.938 16.2261 39.039 31.0111 38.582 32.8171C37.683 36.3721 37.067 37.7471 34.511 39.5481C31.954 41.3501 27.314 44.4781 26.557 44.9521C26.3932 45.0545 26.2206 45.1725 26.0421 45.2946C25.3942 45.7375 24.6679 46.2341 24 46.2341C23.3321 46.2341 22.6058 45.7375 21.9579 45.2946C21.7794 45.1725 21.6068 45.0545 21.443 44.9521C20.686 44.4781 16.046 41.3501 13.489 39.5481C10.933 37.7471 10.317 36.3721 9.41801 32.8171C8.96101 31.0111 5.06201 16.2261 5.06201 16.2261L6.38801 12.4331L5.34601 9.87411C5.34601 9.87411 6.67201 8.45211 8.28201 6.84011C9.02212 6.09863 10.1431 5.89879 11.1379 5.89919C12.2971 5.89962 13.2851 6.17192 13.3001 6.17607L17.182 1.76611H17.1822H30.818H30.8182L34.7002 6.17606C34.7141 6.17222 35.5609 5.93882 36.6056 5.90361C36.951 5.89197 37.318 5.902 37.6836 5.94913C38.4333 6.04574 39.1774 6.29832 39.7182 6.84011C39.7182 6.84011 39.7182 6.84013 39.718 6.84011C41.328 8.45111 42.654 9.87311 42.654 9.87311Z" fill="url(#paint0_linear_452_3525)"/>
<path fill-rule="evenodd" clip-rule="evenodd" d="M33.8716 10.4417C33.8716 10.4417 39 16.6495 39 17.9766C39 19.3026 38.355 19.6528 37.7069 20.3431L33.8613 24.432C33.4967 24.8182 32.7397 25.4047 33.1855 26.4606C33.6302 27.5164 34.2876 28.8599 33.5573 30.2229C32.826 31.5848 31.574 32.4938 30.7718 32.3439C29.9696 32.1939 28.0848 31.2079 27.3915 30.757C26.6993 30.3061 24.5023 28.4932 24.5023 27.7989C24.5023 27.1056 26.7732 25.8597 27.1923 25.5762C27.6124 25.2938 29.5249 24.1978 29.5639 23.7675C29.6029 23.3381 29.5885 23.2118 29.0236 22.1487C28.4587 21.0867 27.4429 19.6682 27.6113 18.7243C27.7808 17.7814 29.4211 17.2905 30.591 16.8488C31.7609 16.4061 34.0134 15.57 34.2948 15.4406C34.5762 15.3102 34.5043 15.1869 33.6518 15.1058C32.7993 15.0247 30.3794 14.7032 29.2886 15.0082C28.1978 15.3122 26.3346 15.7755 26.1836 16.021C26.0327 16.2664 25.8991 16.2747 26.0542 17.122C26.2093 17.9694 27.0074 22.0347 27.0855 22.7568C27.1625 23.4788 27.3135 23.9554 26.537 24.1341C25.7584 24.3118 24.4499 24.621 24 24.621C23.5501 24.621 22.2416 24.3118 21.4641 24.1341C20.6855 23.9554 20.8375 23.4788 20.9145 22.7568C20.9926 22.0347 21.7907 17.9694 21.9458 17.122C22.1009 16.2747 21.9673 16.2664 21.8164 16.021C21.6654 15.7755 19.8022 15.3122 18.7114 15.0082C17.6206 14.7032 15.2007 15.0247 14.3482 15.1058C13.4957 15.1869 13.4238 15.3102 13.7052 15.4406C13.9866 15.57 16.2391 16.4061 17.409 16.8488C18.5789 17.2905 20.2192 17.7814 20.3887 18.7243C20.5571 19.6682 19.5413 21.0867 18.9764 22.1487C18.4115 23.2118 18.3971 23.3381 18.4361 23.7675C18.4751 24.1978 20.3887 25.2938 20.8077 25.5762C21.2268 25.8597 23.4977 27.1056 23.4977 27.7989C23.4977 28.4932 21.3007 30.3071 20.6085 30.757C19.9152 31.2079 18.0304 32.1939 17.2282 32.3439C16.426 32.4938 15.174 31.5848 14.4427 30.2229C13.7124 28.8599 14.3698 27.5164 14.8145 26.4606C15.2603 25.4047 14.5033 24.8182 14.1387 24.432L10.2931 20.3431C9.64503 19.6528 9 19.3026 9 17.9766C9 16.6495 14.1284 10.4417 14.1284 10.4417C14.1284 10.4417 18.4567 11.2695 19.0401 11.2695C19.6235 11.2695 20.8878 10.7827 22.0546 10.3934C23.2214 10.0031 24 10 24 10C24 10 24.7786 10.0031 25.9454 10.3934C27.1122 10.7827 28.3765 11.2695 28.9599 11.2695C29.5433 11.2695 33.8716 10.4417 33.8716 10.4417ZM30.0271 34.1876C30.3445 34.3868 30.1504 34.7617 29.8618 34.9671C29.5721 35.1715 25.6855 38.1851 25.3085 38.5179C24.9316 38.8507 24.377 39.4012 24 39.4012C23.623 39.4012 23.0684 38.8507 22.6915 38.5179C22.3145 38.1851 18.4279 35.1715 18.1382 34.9671C17.8496 34.7617 17.6555 34.3868 17.9729 34.1876C18.2913 33.9893 19.2845 33.4871 20.6547 32.7763C22.0249 32.0666 23.7329 31.4626 24 31.4626C24.267 31.4626 25.9751 32.0666 27.3453 32.7763C28.7155 33.4871 29.7087 33.9893 30.0271 34.1876Z" fill="url(#paint1_linear_452_3525)"/>
<defs>
<linearGradient id="paint0_linear_452_3525" x1="5.06201" y1="24.0001" x2="42.938" y2="24.0001" gradientUnits="userSpaceOnUse">
<stop stop-color="#FFC152"/>
<stop offset="1" stop-color="#FF5F5F"/>
</linearGradient>
<linearGradient id="paint1_linear_452_3525" x1="9" y1="24.7006" x2="39" y2="24.7006" gradientUnits="userSpaceOnUse">
<stop stop-color="#FFC152"/>
<stop offset="1" stop-color="#FF5F5F"/>
</linearGradient>
</defs>
</svg>
