<svg width="64" height="64" viewBox="0 0 64 64" fill="none" xmlns="http://www.w3.org/2000/svg">
<path opacity="0.4" d="M49.0821 61C51.893 61 54.1795 58.713 54.1795 55.9025V8.21095C54.1795 5.3944 51.903 3 49.0821 3H15.0976C13.7281 3 12.4386 3.56021 11.4664 4.57709C10.5208 5.5661 10 6.85685 10 8.21095V55.9025C10 58.713 12.2869 61 15.0976 61H49.0821ZM18.7239 48.255C18.9191 47.9165 18.7324 48.2098 24.4421 42.3116C21.652 50.0565 21.803 49.719 21.6667 49.9547C21.1972 50.768 20.159 51.046 19.3457 50.5765C18.5346 50.108 18.2553 49.0665 18.7239 48.255ZM29.5919 34.0709C28.9135 33.647 28.0316 33.7536 27.4741 34.3262L26.1904 35.6449C22.5145 33.5351 20.1953 29.5556 20.1953 25.2031C20.1953 18.6443 25.5311 13.3086 32.0899 13.3086C38.6487 13.3086 43.9844 18.6443 43.9844 25.2031C43.9844 31.8243 38.6487 37.2109 32.0899 37.2109C31.3695 37.2109 30.6561 37.1446 29.9557 37.018L30.2906 36.0866C30.561 35.3338 30.2703 34.4944 29.5919 34.0709ZM13.3984 55.9025V47.5261C14.0219 47.6147 14.634 47.7523 15.2331 47.9386C14.7335 50.07 15.6552 52.37 17.6465 53.5195C19.1103 54.365 20.8003 54.4005 22.2353 53.7775C22.8645 54.973 23.2809 56.2615 23.472 57.6015H15.0976C14.1608 57.6015 13.3984 56.839 13.3984 55.9025Z" fill="url(#paint0_linear_343_486)"/>
<path fill-rule="evenodd" clip-rule="evenodd" d="M49.2568 47.0806H42.4599C41.5214 47.0806 40.7607 47.8412 40.7607 48.7798C40.7607 49.7183 41.5214 50.479 42.4599 50.479H49.2568C50.1954 50.479 50.956 49.7183 50.956 48.7798C50.956 47.8412 50.1954 47.0806 49.2568 47.0806ZM42.4599 53.8774H49.2568C50.1954 53.8774 50.956 54.6382 50.956 55.5765C50.956 56.515 50.1954 57.276 49.2568 57.276H42.4599C41.5214 57.276 40.7607 56.515 40.7607 55.5765C40.7607 54.6382 41.5214 53.8774 42.4599 53.8774Z" fill="url(#paint1_linear_343_486)"/>
<path fill-rule="evenodd" clip-rule="evenodd" d="M32.0898 40.6094C40.5985 40.6094 47.4961 33.7117 47.4961 25.2031C47.4961 16.6945 40.5985 9.79688 32.0898 9.79688C23.5812 9.79688 16.6836 16.6945 16.6836 25.2031C16.6836 33.7117 23.5812 40.6094 32.0898 40.6094ZM32.0898 30.6406C35.0929 30.6406 37.5273 28.2061 37.5273 25.2031C37.5273 22.2001 35.0929 19.7656 32.0898 19.7656C29.0868 19.7656 26.6523 22.2001 26.6523 25.2031C26.6523 28.2061 29.0868 30.6406 32.0898 30.6406Z" fill="url(#paint2_linear_343_486)"/>
<path fill-rule="evenodd" clip-rule="evenodd" d="M32.0898 40.6094C40.5985 40.6094 47.4961 33.7117 47.4961 25.2031C47.4961 16.6945 40.5985 9.79688 32.0898 9.79688C23.5812 9.79688 16.6836 16.6945 16.6836 25.2031C16.6836 33.7117 23.5812 40.6094 32.0898 40.6094ZM32.0898 30.6406C35.0929 30.6406 37.5273 28.2061 37.5273 25.2031C37.5273 22.2001 35.0929 19.7656 32.0898 19.7656C29.0868 19.7656 26.6523 22.2001 26.6523 25.2031C26.6523 28.2061 29.0868 30.6406 32.0898 30.6406Z" fill="url(#paint3_linear_343_486)"/>
<defs>
<linearGradient id="paint0_linear_343_486" x1="54.1795" y1="61" x2="7.51401" y2="25.0559" gradientUnits="userSpaceOnUse">
<stop stop-color="#FF4000"/>
<stop offset="0.905415" stop-color="#FFA200"/>
</linearGradient>
<linearGradient id="paint1_linear_343_486" x1="50.956" y1="57.276" x2="42.4725" y2="48.6975" gradientUnits="userSpaceOnUse">
<stop stop-color="#FF4000"/>
<stop offset="0.905415" stop-color="#FFA200"/>
</linearGradient>
<linearGradient id="paint2_linear_343_486" x1="47.4961" y1="40.6094" x2="21.8572" y2="14.6832" gradientUnits="userSpaceOnUse">
<stop stop-color="#FF4000"/>
<stop offset="0.905415" stop-color="#FFA200"/>
</linearGradient>
<linearGradient id="paint3_linear_343_486" x1="47.4961" y1="40.6094" x2="21.8572" y2="14.6832" gradientUnits="userSpaceOnUse">
<stop stop-color="#FF4000"/>
<stop offset="0.905415" stop-color="#FFA200"/>
</linearGradient>
</defs>
</svg>
