<svg width="24" height="24" viewBox="0 0 24 24" fill="none" xmlns="http://www.w3.org/2000/svg">
<path opacity="0.4" d="M2 9.8C2 5.6519 2 3.5773 3.2892 2.2892C4.5773 1 6.6519 1 10.8 1H13C17.1481 1 19.2227 1 20.5108 2.2892C21.8 3.5773 21.8 5.6519 21.8 9.8V14.2C21.8 18.3481 21.8 20.4227 20.5108 21.7108C19.2227 23 17.1481 23 13 23H10.8C6.6519 23 4.5773 23 3.2892 21.7108C2 20.4227 2 18.3481 2 14.2V9.8Z" fill="url(#paint0_linear_218_67)"/>
<path fill-rule="evenodd" clip-rule="evenodd" d="M5.30029 10.0172C5.30029 9.74082 5.41008 9.47575 5.60551 9.28032C5.80095 9.08489 6.06601 8.9751 6.34239 8.9751H17.4582C17.7346 8.9751 17.9996 9.08489 18.1951 9.28032C18.3905 9.47575 18.5003 9.74082 18.5003 10.0172C18.5003 10.2936 18.3905 10.5586 18.1951 10.7541C17.9996 10.9495 17.7346 11.0593 17.4582 11.0593H6.34239C6.06601 11.0593 5.80095 10.9495 5.60551 10.7541C5.41008 10.5586 5.30029 10.2936 5.30029 10.0172ZM5.30029 15.5751C5.30029 15.2987 5.41008 15.0336 5.60551 14.8382C5.80095 14.6428 6.06601 14.533 6.34239 14.533H13.2898C13.5661 14.533 13.8312 14.6428 14.0266 14.8382C14.2221 15.0336 14.3319 15.2987 14.3319 15.5751C14.3319 15.8515 14.2221 16.1165 14.0266 16.312C13.8312 16.5074 13.5661 16.6172 13.2898 16.6172H6.34239C6.06601 16.6172 5.80095 16.5074 5.60551 16.312C5.41008 16.1165 5.30029 15.8515 5.30029 15.5751Z" fill="url(#paint1_linear_218_67)" stroke="url(#paint2_linear_218_67)"/>
<defs>
<linearGradient id="paint0_linear_218_67" x1="11.9581" y1="27.4816" x2="11.9581" y2="3.10142" gradientUnits="userSpaceOnUse">
<stop stop-color="#FDA700"/>
<stop offset="1" stop-color="#FFDE00"/>
</linearGradient>
<linearGradient id="paint1_linear_218_67" x1="11.9391" y1="18.174" x2="11.9391" y2="9.70507" gradientUnits="userSpaceOnUse">
<stop stop-color="#FDA700"/>
<stop offset="1" stop-color="#FFDE00"/>
</linearGradient>
<linearGradient id="paint2_linear_218_67" x1="11.9391" y1="18.174" x2="11.9391" y2="9.70507" gradientUnits="userSpaceOnUse">
<stop stop-color="#FDA700"/>
<stop offset="1" stop-color="#FFDE00"/>
</linearGradient>
</defs>
</svg>
