<svg width="24" height="24" viewBox="0 0 24 24" fill="none" xmlns="http://www.w3.org/2000/svg">
<path opacity="0.4" d="M17.3728 4.42633H14.1354C13.3289 4.43166 12.5632 4.07291 12.0521 3.45026L10.986 1.97639C10.4835 1.34827 9.71783 0.987839 8.91253 1.00031H6.62387C2.51601 1.00031 1.00001 3.41121 1.00001 7.51072V11.9421C0.9949 12.4294 22.9952 12.4288 22.9966 11.9421V10.6537C23.0162 6.55417 21.5393 4.42633 17.3728 4.42633Z" fill="url(#paint0_linear_8_312)"/>
<path fill-rule="evenodd" clip-rule="evenodd" d="M21.7153 5.99783C22.0673 6.40932 22.3392 6.88266 22.5174 7.39361C22.8678 8.44376 23.03 9.54734 22.9966 10.6537V16.432C22.9952 16.9188 22.9592 17.4048 22.889 17.8864C22.7553 18.7364 22.4563 19.5521 22.0088 20.2875C21.8031 20.6428 21.5533 20.9707 21.2654 21.2636C19.9621 22.4598 18.2315 23.0824 16.4632 22.9913H7.52367C5.75254 23.0817 4.01908 22.4594 2.71161 21.2636C2.42714 20.9702 2.1807 20.6422 1.97806 20.2875C1.53322 19.5526 1.24056 18.7361 1.11737 17.8864C1.03904 17.4056 0.999787 16.9192 1 16.432V10.6537C0.999809 10.1711 1.02593 9.68886 1.07825 9.20911C1.08925 9.12494 1.10575 9.04214 1.12208 8.96019C1.1493 8.82359 1.17605 8.68936 1.17605 8.55514C1.27534 7.97618 1.45645 7.41422 1.71399 6.88605C2.47687 5.25601 4.04177 4.42635 6.60429 4.42635H17.363C18.7982 4.31535 20.2228 4.74742 21.3535 5.63668C21.4837 5.7471 21.6047 5.86788 21.7153 5.99783ZM6.46737 15.8952H17.539H17.5586C17.8015 15.9057 18.0386 15.8188 18.2168 15.6537C18.3951 15.4887 18.4997 15.2593 18.5073 15.0167C18.5211 14.8035 18.4509 14.5934 18.3117 14.4311C18.1516 14.2129 17.898 14.0827 17.6271 14.0797H6.46737C5.96502 14.0797 5.55778 14.4861 5.55778 14.9874C5.55778 15.4888 5.96502 15.8952 6.46737 15.8952Z" fill="url(#paint1_linear_8_312)"/>
<defs>
<linearGradient id="paint0_linear_8_312" x1="11.9985" y1="12.3074" x2="11.9985" y2="1" gradientUnits="userSpaceOnUse">
<stop stop-color="#5570FF"/>
<stop offset="1" stop-color="#4DD3FF"/>
</linearGradient>
<linearGradient id="paint1_linear_8_312" x1="12.0004" y1="23" x2="12.0004" y2="4.40924" gradientUnits="userSpaceOnUse">
<stop stop-color="#5570FF"/>
<stop offset="1" stop-color="#4DD3FF"/>
</linearGradient>
</defs>
</svg>
