<svg width="128" height="128" viewBox="0 0 128 128" fill="none" xmlns="http://www.w3.org/2000/svg">
<rect opacity="0.4" x="8" y="8" width="112" height="112" rx="24" fill="url(#paint0_linear_69_479)"/>
<path fill-rule="evenodd" clip-rule="evenodd" d="M53.1638 46.1265C53.1638 37.7724 59.9362 31 68.2903 31C76.6444 31 83.4168 37.7724 83.4168 46.1265C83.4168 48.8663 82.6884 51.436 81.4147 53.6524L92.1646 63.7908L87.0525 69.0823L76.3124 58.953C73.987 60.4105 71.2371 61.2531 68.2903 61.2531C66.0235 61.2531 63.8731 60.7545 61.9429 59.861L53.9846 67.8881C55.4864 70.7099 56.3375 73.9307 56.3375 77.3503C56.3375 88.4892 47.3076 97.5186 36.1687 97.5186C25.0299 97.5186 16 88.4892 16 77.3503C16 66.2114 25.0299 57.1816 36.1687 57.1816C40.9054 57.1816 45.2607 58.8144 48.7024 61.5479L55.6905 54.4995C54.0941 52.1019 53.1638 49.2229 53.1638 46.1265ZM63.248 46.1268C63.248 43.342 65.5054 41.0845 68.2901 41.0845C71.0748 41.0845 73.3323 43.342 73.3323 46.1268C73.3323 48.9114 71.0748 51.1689 68.2901 51.1689C65.5054 51.1689 63.248 48.9114 63.248 46.1268ZM36.1685 67.2661C30.5991 67.2661 26.0842 71.781 26.0842 77.3505C26.0842 82.9199 30.5991 87.4348 36.1685 87.4348C41.738 87.4348 46.2529 82.9199 46.2529 77.3505C46.2529 71.781 41.738 67.2661 36.1685 67.2661Z" fill="url(#paint1_linear_69_479)"/>
<mask id="mask0_69_479" style="mask-type:luminance" maskUnits="userSpaceOnUse" x="16" y="31" width="77" height="67">
<path fill-rule="evenodd" clip-rule="evenodd" d="M53.1638 46.1265C53.1638 37.7724 59.9362 31 68.2903 31C76.6444 31 83.4168 37.7724 83.4168 46.1265C83.4168 48.8663 82.6884 51.436 81.4147 53.6524L92.1646 63.7908L87.0525 69.0823L76.3124 58.953C73.987 60.4105 71.2371 61.2531 68.2903 61.2531C66.0235 61.2531 63.8731 60.7545 61.9429 59.861L53.9846 67.8881C55.4864 70.7099 56.3375 73.9307 56.3375 77.3503C56.3375 88.4892 47.3076 97.5186 36.1687 97.5186C25.0299 97.5186 16 88.4892 16 77.3503C16 66.2114 25.0299 57.1816 36.1687 57.1816C40.9054 57.1816 45.2607 58.8144 48.7024 61.5479L55.6905 54.4995C54.0941 52.1019 53.1638 49.2229 53.1638 46.1265ZM63.248 46.1268C63.248 43.342 65.5054 41.0845 68.2901 41.0845C71.0748 41.0845 73.3323 43.342 73.3323 46.1268C73.3323 48.9114 71.0748 51.1689 68.2901 51.1689C65.5054 51.1689 63.248 48.9114 63.248 46.1268ZM36.1685 67.2661C30.5991 67.2661 26.0842 71.781 26.0842 77.3505C26.0842 82.9199 30.5991 87.4348 36.1685 87.4348C41.738 87.4348 46.2529 82.9199 46.2529 77.3505C46.2529 71.781 41.738 67.2661 36.1685 67.2661Z" fill="url(#paint2_linear_69_479)"/>
</mask>
<g mask="url(#mask0_69_479)">
<path d="M81.4148 53.6524L80.7269 53.2571L80.4149 53.8L80.8704 54.2296L81.4148 53.6524ZM92.1646 63.7908L92.7352 64.3421L93.2928 63.7646L92.7089 63.2136L92.1646 63.7908ZM87.0525 69.0823L86.5082 69.6595L87.0785 70.1973L87.6231 69.6335L87.0525 69.0823ZM76.3124 58.953L76.8568 58.3758L76.4107 57.9551L75.8911 58.2808L76.3124 58.953ZM61.943 59.861L62.2763 59.141L61.7714 58.9072L61.3796 59.3023L61.943 59.861ZM53.9847 67.8881L53.4212 67.3295L53.0096 67.7447L53.2843 68.2608L53.9847 67.8881ZM48.7025 61.5479L48.209 62.1692L48.7656 62.6111L49.2659 62.1065L48.7025 61.5479ZM55.6905 54.4995L56.254 55.0581L56.7096 54.5985L56.3509 54.0598L55.6905 54.4995ZM68.2903 30.2066C59.498 30.2066 52.3704 37.3342 52.3704 46.1265H53.9572C53.9572 38.2106 60.3743 31.7934 68.2903 31.7934V30.2066ZM84.2102 46.1265C84.2102 37.3342 77.0827 30.2066 68.2903 30.2066V31.7934C76.2063 31.7934 82.6235 38.2106 82.6235 46.1265H84.2102ZM82.1026 54.0477C83.4436 51.7142 84.2102 49.0087 84.2102 46.1265H82.6235C82.6235 48.724 81.9333 51.1577 80.7269 53.2571L82.1026 54.0477ZM80.8704 54.2296L91.6203 64.368L92.7089 63.2136L81.9591 53.0753L80.8704 54.2296ZM91.594 63.2396L86.4819 68.531L87.6231 69.6335L92.7352 64.3421L91.594 63.2396ZM87.5969 68.5051L76.8568 58.3758L75.768 59.5302L86.5082 69.6595L87.5969 68.5051ZM68.2903 62.0465C71.3904 62.0465 74.2858 61.1596 76.7337 59.6253L75.8911 58.2808C73.6883 59.6614 71.0838 60.4597 68.2903 60.4597V62.0465ZM61.6098 60.581C63.6422 61.5218 65.9061 62.0465 68.2903 62.0465V60.4597C66.141 60.4597 64.1041 59.9871 62.2763 59.141L61.6098 60.581ZM61.3796 59.3023L53.4212 67.3295L54.548 68.4466L62.5064 60.4195L61.3796 59.3023ZM53.2843 68.2608C54.7265 70.9707 55.5441 74.0638 55.5441 77.3503H57.1309C57.1309 73.7976 56.2464 70.4491 54.685 67.5153L53.2843 68.2608ZM55.5441 77.3503C55.5441 88.051 46.8695 96.7252 36.1687 96.7252V98.312C47.7458 98.312 57.1309 88.9273 57.1309 77.3503H55.5441ZM36.1687 96.7252C25.4681 96.7252 16.7934 88.051 16.7934 77.3503H15.2067C15.2067 88.9273 24.5917 98.312 36.1687 98.312V96.7252ZM16.7934 77.3503C16.7934 66.6496 25.4681 57.9749 36.1687 57.9749V56.3882C24.5917 56.3882 15.2067 65.7732 15.2067 77.3503H16.7934ZM36.1687 57.9749C40.7199 57.9749 44.9026 59.5431 48.209 62.1692L49.1959 60.9266C45.6189 58.0857 41.0909 56.3882 36.1687 56.3882V57.9749ZM49.2659 62.1065L56.254 55.0581L55.1271 53.9409L48.139 60.9893L49.2659 62.1065ZM52.3704 46.1265C52.3704 49.3842 53.3497 52.4155 55.0302 54.9392L56.3509 54.0598C54.8386 51.7885 53.9572 49.0616 53.9572 46.1265H52.3704ZM68.2902 40.2911C65.0672 40.2911 62.4546 42.9038 62.4546 46.1268H64.0414C64.0414 43.7802 65.9436 41.8779 68.2902 41.8779V40.2911ZM74.1257 46.1268C74.1257 42.9038 71.513 40.2911 68.2902 40.2911V41.8779C70.6367 41.8779 72.539 43.7802 72.539 46.1268H74.1257ZM68.2902 51.9623C71.513 51.9623 74.1257 49.3496 74.1257 46.1268H72.539C72.539 48.4733 70.6367 50.3755 68.2902 50.3755V51.9623ZM62.4546 46.1268C62.4546 49.3496 65.0672 51.9623 68.2902 51.9623V50.3755C65.9436 50.3755 64.0414 48.4733 64.0414 46.1268H62.4546ZM26.8776 77.3505C26.8776 72.2192 31.0373 68.0594 36.1686 68.0594V66.4727C30.161 66.4727 25.2909 71.3429 25.2909 77.3505H26.8776ZM36.1686 86.6415C31.0373 86.6415 26.8776 82.4818 26.8776 77.3505H25.2909C25.2909 83.3581 30.161 88.2282 36.1686 88.2282V86.6415ZM45.4595 77.3505C45.4595 82.4818 41.2998 86.6415 36.1686 86.6415V88.2282C42.1762 88.2282 47.0463 83.3581 47.0463 77.3505H45.4595ZM36.1686 68.0594C41.2998 68.0594 45.4595 72.2192 45.4595 77.3505H47.0463C47.0463 71.3429 42.1762 66.4727 36.1686 66.4727V68.0594Z" fill="url(#paint3_linear_69_479)"/>
</g>
<path fill-rule="evenodd" clip-rule="evenodd" d="M93.2531 61.2846C93.8481 60.6894 94.655 60.3551 95.4968 60.3551H104.383C105.585 60.3551 106.683 61.0342 107.221 62.1093L111.664 70.9952C112.448 72.5629 111.813 74.4692 110.245 75.253C108.677 76.0368 106.771 75.4014 105.987 73.8338L102.421 66.7021H96.8114L89.7844 73.729V79.339L96.9161 82.9048C98.4838 83.6886 99.1193 85.5948 98.3355 87.1626C97.5516 88.7302 95.6451 89.3656 94.0774 88.5817L85.1916 84.1388C84.1165 83.6012 83.4374 82.5024 83.4374 81.3003V72.4145C83.4374 71.5728 83.7717 70.7656 84.3669 70.1705L93.2531 61.2846Z" fill="url(#paint4_linear_69_479)" stroke="url(#paint5_linear_69_479)" stroke-width="2" stroke-linecap="round" stroke-linejoin="round"/>
<defs>
<linearGradient id="paint0_linear_69_479" x1="64" y1="120" x2="64" y2="8" gradientUnits="userSpaceOnUse">
<stop stop-color="#FDA700"/>
<stop offset="1" stop-color="#FFDE00"/>
</linearGradient>
<linearGradient id="paint1_linear_69_479" x1="54.0823" y1="97.5186" x2="54.0823" y2="31" gradientUnits="userSpaceOnUse">
<stop stop-color="#FD5900"/>
<stop offset="1" stop-color="#FFDE00"/>
</linearGradient>
<linearGradient id="paint2_linear_69_479" x1="54.0823" y1="97.5186" x2="54.0823" y2="31" gradientUnits="userSpaceOnUse">
<stop stop-color="#FD5900"/>
<stop offset="1" stop-color="#FFDE00"/>
</linearGradient>
<linearGradient id="paint3_linear_69_479" x1="54.0823" y1="97.5186" x2="54.0823" y2="31" gradientUnits="userSpaceOnUse">
<stop stop-color="#FD5900"/>
<stop offset="1" stop-color="#FFDE00"/>
</linearGradient>
<linearGradient id="paint4_linear_69_479" x1="96.5789" y1="60.9293" x2="100.115" y2="87.718" gradientUnits="userSpaceOnUse">
<stop stop-color="#F70FA8"/>
<stop offset="1" stop-color="#F40631"/>
</linearGradient>
<linearGradient id="paint5_linear_69_479" x1="96.5789" y1="60.9293" x2="100.115" y2="87.718" gradientUnits="userSpaceOnUse">
<stop stop-color="#F70FA8"/>
<stop offset="1" stop-color="#F40631"/>
</linearGradient>
</defs>
</svg>
