<svg width="24" height="24" viewBox="0 0 24 24" fill="none" xmlns="http://www.w3.org/2000/svg">
<path opacity="0.4" fill-rule="evenodd" clip-rule="evenodd" d="M1 16.4399V4.17926C1 2.97146 1.9746 1.99026 3.1802 2.06396C4.2549 2.12996 5.5243 2.26086 6.5 2.51826C7.655 2.82186 9.0256 3.47086 10.1102 4.04506C10.692 4.3513 11.3428 4.50246 12 4.48396V21.204C11.3755 21.2043 10.7605 21.0509 10.2092 20.7574C9.1092 20.1722 7.6902 19.4924 6.5 19.1789C5.5353 18.9237 4.2824 18.7939 3.2165 18.7268C1.9966 18.6498 1 17.6631 1 16.4399Z" fill="url(#paint0_linear_8_691)"/>
<path d="M23 16.4398V4.10884C23 2.92854 22.0694 1.96054 20.8902 2.00124C19.6483 2.04524 18.1017 2.17284 16.95 2.51824C15.9512 2.81634 14.7885 3.41584 13.8414 3.96474C13.2805 4.28872 12.6475 4.46721 12 4.48394V21.2039C12.616 21.2039 13.2331 21.0543 13.7908 20.7573C14.8908 20.1721 16.3098 19.4923 17.5 19.1788C18.4647 18.9236 19.7176 18.7938 20.7835 18.7267C22.0034 18.6497 23 17.663 23 16.4398Z" fill="url(#paint1_linear_8_691)"/>
<defs>
<linearGradient id="paint0_linear_8_691" x1="10.0093" y1="2.06006" x2="-5.029" y2="12.6103" gradientUnits="userSpaceOnUse">
<stop stop-color="#DE00C0"/>
<stop offset="1" stop-color="#8720FF"/>
</linearGradient>
<linearGradient id="paint1_linear_8_691" x1="21.0093" y1="2" x2="5.93997" y2="12.539" gradientUnits="userSpaceOnUse">
<stop stop-color="#DE00C0"/>
<stop offset="1" stop-color="#8720FF"/>
</linearGradient>
</defs>
</svg>
