<svg width="32" height="32" viewBox="0 0 32 32" fill="none" xmlns="http://www.w3.org/2000/svg">
<path opacity="0.4" d="M4.223 15.0818C4.11219 14.7989 4.15902 14.4847 4.3525 14.2504C5.18464 13.2428 7.79139 10.5584 12.1728 10.2233V8.7748C7.24654 9.1689 2.86482 12.6705 1.46507 13.9007C1.17448 14.156 1.08118 14.5568 1.23542 14.9116C2.07613 16.8454 5.25611 22.9393 12.1728 23.5933V22.0512C7.08505 21.4116 4.8145 16.5921 4.223 15.0818ZM12.1728 18.9894V20.3986C8.53112 19.7494 6.98665 16.5983 6.51044 15.3486C6.38982 15.0321 6.47471 14.6852 6.72721 14.4594C7.50831 13.7609 9.42873 12.3099 12.1728 12.0125V13.5621H12.1653C10.8234 13.4004 9.68634 14.2319 9.12827 14.7414C8.88478 14.9636 8.81173 15.3054 8.93531 15.611C9.29563 16.5022 10.2502 18.3425 12.1728 18.9894ZM13.2142 5C12.6677 5 12.2224 5.4387 12.2143 5.98513L12.1728 8.7748C12.3485 8.76045 12.5244 8.74984 12.7006 8.74298C18.1502 8.55868 22.0798 12.2481 23.4301 13.7265C23.7431 14.0692 23.7336 14.5767 23.4187 14.9177C21.9882 16.4667 17.8346 20.5203 13.5427 20.5203C13.0561 20.5203 12.5995 20.4754 12.1728 20.3986V22.0512C12.5377 22.0979 12.9177 22.126 13.3144 22.126C17.9509 22.126 21.3824 19.901 24.6476 17.1577C25.0167 16.8476 25.5643 16.8235 25.9823 17.0636C26.5202 17.3725 27.2238 17.7456 27.7898 18.0763C28.2942 18.371 28.3024 19.0053 27.8181 19.332C24.1948 21.7758 17.3864 23.6569 13.3893 23.6569C12.983 23.655 12.5771 23.6338 12.1728 23.5933V26.4579C12.1728 27.0102 12.6205 27.4579 13.1728 27.4579H29.9463C30.4977 27.4579 30.945 27.0117 30.9463 26.4604L30.9975 6.0025C30.9989 5.44924 30.5508 5 29.9975 5H13.2142ZM12.1728 12.0125V10.2233C12.3485 10.2101 12.5245 10.2007 12.7006 10.1953C16.4993 10.0762 19.284 12.6748 20.3413 13.8453C20.6322 14.1675 20.6354 14.6396 20.359 14.9743C19.3049 16.2505 16.5389 19.2196 13.6195 19.2196C13.0842 19.2196 12.6051 19.1335 12.1728 18.9894V13.5621C13.7029 13.7469 14.2516 14.3254 15.0017 15.5358C15.3262 16.0595 16.0342 16.1833 16.5052 15.7863L17.4279 15.0085C17.8357 14.6649 17.8945 14.0658 17.4987 13.7085C16.6991 12.9867 15.199 11.9545 13.1591 11.9545C12.8295 11.9561 12.5003 11.9754 12.1728 12.0125Z" fill="url(#paint0_linear_314_82)"/>
<path fill-rule="evenodd" clip-rule="evenodd" d="M12.2096 10.2661V8.7998C7.21601 9.19929 2.77516 12.7532 1.36479 13.9937C1.0743 14.2492 0.981354 14.6502 1.1354 15.005C1.98197 16.9552 5.20025 23.137 12.2096 23.7997V22.2387C6.09067 21.4696 3.99735 14.7274 3.99735 14.7274C3.99735 14.7274 6.73478 10.6848 12.2096 10.2661V12.0771C8.5212 12.4768 6.30285 14.9358 6.30285 14.9358C6.30285 14.9358 7.58726 19.7419 12.2096 20.5659" fill="url(#paint1_linear_314_82)"/>
<defs>
<linearGradient id="paint0_linear_314_82" x1="30.1559" y1="16.2289" x2="7.28526" y2="5.23791" gradientUnits="userSpaceOnUse">
<stop stop-color="#FE7970"/>
<stop offset="1" stop-color="#DC3282"/>
</linearGradient>
<linearGradient id="paint1_linear_314_82" x1="11.8952" y1="16.2998" x2="2.0852" y2="13.6625" gradientUnits="userSpaceOnUse">
<stop stop-color="#FE7970"/>
<stop offset="1" stop-color="#DC3282"/>
</linearGradient>
</defs>
</svg>
