<svg width="64" height="64" viewBox="0 0 64 64" fill="none" xmlns="http://www.w3.org/2000/svg">
<path opacity="0.4" d="M43.2 4H20.8C11.5216 4 4 11.5216 4 20.8V43.2C4 52.4784 11.5216 60 20.8 60H43.2C52.4784 60 60 52.4784 60 43.2V20.8C60 11.5216 52.4784 4 43.2 4Z" fill="url(#paint0_linear_216_304)"/>
<path d="M32.5557 17C32.1158 17 31.7276 17.2875 31.5992 17.7083L25.7663 36.8317C25.4943 37.7237 24.2572 37.7907 23.8904 36.9333L20.1404 28.1664C19.983 27.7984 19.6213 27.5597 19.221 27.5597H11C10.4477 27.5597 10 28.0074 10 28.5597V30.6753C10 31.2275 10.4477 31.6753 11 31.6753H16.3412C16.7422 31.6753 17.1044 31.9148 17.2614 32.2839L23.5916 47.1682C23.7485 47.5372 24.1108 47.7768 24.5118 47.7768H26.152C26.5917 47.7768 26.9798 47.4896 27.1083 47.0692L34.821 21.8404C34.9495 21.42 35.3376 21.1328 35.7773 21.1328H48.0939C48.6462 21.1328 49.0939 20.6851 49.0939 20.1328V18C49.0939 17.4477 48.6462 17 48.0939 17H32.5557ZM37.2175 29.3124C36.3751 29.3124 35.9102 30.2902 36.4418 30.9436L41.7678 37.4893C42.0665 37.8564 42.067 38.3826 41.769 38.7502L35.7656 46.1557C35.2357 46.8094 35.7009 47.7854 36.5424 47.7854H37.8767C38.1785 47.7854 38.4641 47.6491 38.654 47.4145L43.4449 41.4943C43.8451 40.9997 44.5993 40.9997 44.9996 41.4943L49.7904 47.4145C49.9803 47.6491 50.266 47.7854 50.5678 47.7854H51.9049C52.7459 47.7854 53.2113 46.8104 52.6824 46.1565L46.8368 38.9297C46.5398 38.5625 46.5402 38.0374 46.8379 37.6706L52.2988 30.9426C52.8293 30.289 52.3641 29.3124 51.5223 29.3124H50.1887C49.8875 29.3124 49.6023 29.4482 49.4124 29.6821L45.144 34.9387C44.744 35.4313 43.9922 35.4316 43.5919 34.9393L39.3156 29.6815C39.1257 29.448 38.8407 29.3124 38.5398 29.3124H37.2175Z" fill="url(#paint1_linear_216_304)" stroke="url(#paint2_linear_216_304)" stroke-width="2"/>
<defs>
<linearGradient id="paint0_linear_216_304" x1="32" y1="60" x2="32" y2="4" gradientUnits="userSpaceOnUse">
<stop stop-color="#FF7111"/>
<stop offset="1" stop-color="#FF7111"/>
</linearGradient>
<linearGradient id="paint1_linear_216_304" x1="32" y1="47.7854" x2="32" y2="17" gradientUnits="userSpaceOnUse">
<stop stop-color="#FF7111"/>
<stop offset="1" stop-color="#FF7111"/>
</linearGradient>
<linearGradient id="paint2_linear_216_304" x1="32" y1="47.7854" x2="32" y2="17" gradientUnits="userSpaceOnUse">
<stop stop-color="#FF7111"/>
<stop offset="1" stop-color="#FF7111"/>
</linearGradient>
</defs>
</svg>
