<svg width="128" height="128" viewBox="0 0 128 128" fill="none" xmlns="http://www.w3.org/2000/svg">
<path d="M32.3911 57.7823C45.862 57.7823 56.7823 46.862 56.7823 33.3911C56.7823 19.9203 45.862 9 32.3911 9C18.9203 9 8 19.9203 8 33.3911C8 46.862 18.9203 57.7823 32.3911 57.7823Z" fill="url(#paint0_linear_111_189)"/>
<path opacity="0.4" d="M32.3911 118.967C45.862 118.967 56.7823 108.047 56.7823 94.5763C56.7823 81.1054 45.862 70.1852 32.3911 70.1852C18.9203 70.1852 8 81.1054 8 94.5763C8 108.047 18.9203 118.967 32.3911 118.967Z" fill="url(#paint1_linear_111_189)"/>
<path opacity="0.4" fill-rule="evenodd" clip-rule="evenodd" d="M72.2962 73.4882C71.1507 73.4882 70.2222 74.4168 70.2222 75.5622V79.5445C70.2222 80.69 71.1507 81.6185 72.2962 81.6185H98.8473C99.9928 81.6185 100.921 80.69 100.921 79.5445V75.5622C100.921 74.4167 99.9928 73.4882 98.8473 73.4882H72.2962ZM72.2962 89.7496C71.1507 89.7496 70.2222 90.6782 70.2222 91.8237V95.8059C70.2222 96.9514 71.1507 97.88 72.2962 97.88H109.08C110.226 97.88 111.154 96.9514 111.154 95.8059V91.8237C111.154 90.6782 110.226 89.7496 109.08 89.7496H72.2962ZM72.2963 106.523H117.926C119.072 106.523 120 107.451 120 108.597V111.708C120 112.854 119.072 113.782 117.926 113.782H72.2963C71.1508 113.782 70.2222 112.854 70.2222 111.708V108.597C70.2222 107.451 71.1508 106.523 72.2963 106.523Z" fill="url(#paint2_linear_111_189)"/>
<path fill-rule="evenodd" clip-rule="evenodd" d="M72.2962 12.5568C71.1507 12.5568 70.2222 13.4853 70.2222 14.6308V18.6131C70.2222 19.7586 71.1507 20.6871 72.2962 20.6871H98.8473C99.9928 20.6871 100.921 19.7586 100.921 18.6131V14.6308C100.921 13.4853 99.9928 12.5568 98.8473 12.5568H72.2962ZM72.2962 28.8177C71.1507 28.8177 70.2222 29.7463 70.2222 30.8918V34.874C70.2222 36.0194 71.1507 36.9481 72.2962 36.9481H109.08C110.226 36.9481 111.154 36.0194 111.154 34.874V30.8918C111.154 29.7463 110.226 28.8177 109.08 28.8177H72.2962ZM72.2963 45.2963H117.926C119.072 45.2963 120 46.2249 120 47.3704V51.5185C120 52.664 119.072 53.5926 117.926 53.5926H72.2963C71.1508 53.5926 70.2222 52.664 70.2222 51.5185V47.3704C70.2222 46.2249 71.1508 45.2963 72.2963 45.2963Z" fill="url(#paint3_linear_111_189)"/>
<defs>
<linearGradient id="paint0_linear_111_189" x1="55.1343" y1="10.3943" x2="36.1069" y2="58.1716" gradientUnits="userSpaceOnUse">
<stop stop-color="#FE0F7C"/>
<stop offset="1" stop-color="#DF0066"/>
</linearGradient>
<linearGradient id="paint1_linear_111_189" x1="55.1343" y1="71.5795" x2="36.1069" y2="119.356" gradientUnits="userSpaceOnUse">
<stop stop-color="#FE0F7C"/>
<stop offset="1" stop-color="#DF0066"/>
</linearGradient>
<linearGradient id="paint2_linear_111_189" x1="95.1111" y1="113.782" x2="95.1111" y2="73.4882" gradientUnits="userSpaceOnUse">
<stop stop-color="#FF7111"/>
<stop offset="1" stop-color="#FF7111"/>
</linearGradient>
<linearGradient id="paint3_linear_111_189" x1="95.1111" y1="53.5926" x2="95.1111" y2="12.5568" gradientUnits="userSpaceOnUse">
<stop stop-color="#FF7111"/>
<stop offset="1" stop-color="#FF7111"/>
</linearGradient>
</defs>
</svg>
