<svg width="64" height="64" viewBox="0 0 64 64" fill="none" xmlns="http://www.w3.org/2000/svg">
<path opacity="0.5" d="M29.0068 54.5403C32.3474 54.5752 35.6619 53.9474 38.7583 52.6932C41.8548 51.4389 44.6718 49.5831 47.0464 47.2332C49.4211 44.8832 51.3062 42.0857 52.5927 39.0026C53.8793 35.9194 54.5417 32.6117 54.5417 29.2709C54.5417 25.93 53.8793 22.6223 52.5927 19.5392C51.3062 16.456 49.4211 13.6585 47.0464 11.3085C44.6718 8.95858 41.8548 7.1028 38.7583 5.84855C35.6619 4.5943 32.3474 3.96647 29.0068 4.00138C22.3506 4.07094 15.9907 6.76389 11.3085 11.4953C6.62634 16.2267 4 22.6143 4 29.2709C4 35.9274 6.62634 42.315 11.3085 47.0464C15.9907 51.7778 22.3506 54.4708 29.0068 54.5403Z" fill="url(#paint0_linear_69_204)"/>
<path fill-rule="evenodd" clip-rule="evenodd" d="M51.2741 50.4724C51.6482 50.0986 52.1555 49.8886 52.6843 49.8886C53.2132 49.8886 53.7204 50.0986 54.0945 50.4724L59.4153 55.7904C59.7897 56.1647 60 56.6725 60 57.202C60 57.7314 59.7897 58.2392 59.4153 58.6136C59.0409 58.9879 58.5332 59.1983 58.0037 59.1983C57.4743 59.1983 56.9665 58.9879 56.5921 58.6136L51.2769 53.29C50.9031 52.9159 50.6931 52.4087 50.6931 51.8798C50.6931 51.351 50.9031 50.8437 51.2769 50.4696L51.2741 50.4724Z" fill="url(#paint1_linear_69_204)"/>
<path d="M18.9364 44H37.4964C39.3904 44 40.9264 42.464 40.9264 40.568V25.348C44.1464 25.22 46.0724 21.648 44.3524 18.872L43.3484 17.252C42.9684 16.6381 42.4378 16.1315 41.807 15.7801C41.1764 15.4287 40.4664 15.2441 39.7444 15.244H36.8744V13.972C36.8744 13.7131 36.8234 13.4567 36.7242 13.2173C36.6252 12.9781 36.48 12.7607 36.2968 12.5776C36.1137 12.3945 35.8964 12.2492 35.657 12.1501C35.4178 12.0511 35.1614 12 34.9024 12C34.2602 12.0003 33.6244 12.1271 33.0312 12.3729C32.4381 12.6189 31.8992 12.9793 31.4453 13.4336C30.9913 13.8879 30.6314 14.4272 30.3858 15.0205C30.1404 15.6139 30.0141 16.2499 30.0144 16.892V23.804C27.4584 24.056 25.5284 25.264 24.1104 26.968C22.5464 28.848 21.6244 31.298 21.0764 33.652C20.5244 36.016 20.3304 38.368 20.2704 40.116C20.2464 40.864 20.2464 41.508 20.2544 42H18.9364C18.168 42 17.4164 41.7756 16.7738 41.3541C16.1314 40.9327 15.6261 40.3327 15.3201 39.6277C15.0141 38.9229 14.9208 38.1441 15.0516 37.3869C15.1824 36.6297 15.5317 35.9273 16.0564 35.366L17.8964 33.392C19.1645 32.0319 19.8553 30.2327 19.8232 28.3733C19.7912 26.5139 19.0388 24.7396 17.7244 23.424L15.9184 21.618C15.8261 21.5225 15.7158 21.4463 15.5938 21.3939C15.4718 21.3415 15.3406 21.3139 15.2078 21.3128C15.075 21.3116 14.9433 21.3369 14.8205 21.3872C14.6976 21.4375 14.5858 21.5117 14.492 21.6056C14.3981 21.6995 14.3238 21.8112 14.2736 21.934C14.2233 22.0569 14.198 22.1887 14.1992 22.3215C14.2004 22.4541 14.2278 22.5855 14.2804 22.7075C14.3328 22.8295 14.4089 22.9397 14.5044 23.032L16.3104 24.838C17.2592 25.7865 17.8025 27.0665 17.8257 28.408C17.8488 29.7493 17.35 31.0473 16.4344 32.028L14.5944 34.002C13.8058 34.8488 13.2816 35.9075 13.0857 37.0479C12.89 38.1884 13.0312 39.3612 13.4921 40.4225C13.953 41.484 14.7137 42.3877 15.6808 43.0232C16.6478 43.6587 17.7793 43.9981 18.9364 44ZM34.8764 14V16.244C34.8764 16.5092 34.9817 16.7636 35.1693 16.9511C35.3568 17.1387 35.6112 17.244 35.8764 17.244H39.7444C40.5204 17.244 41.2404 17.644 41.6484 18.304L42.6544 19.926C42.8649 20.2657 42.9809 20.6556 42.9904 21.0552C42.9997 21.4548 42.9022 21.8496 42.708 22.1989C42.5136 22.5483 42.2294 22.8393 41.885 23.042C41.5405 23.2447 41.1481 23.3517 40.7484 23.352H39.9284C39.6632 23.352 39.4088 23.4573 39.2213 23.6449C39.0337 23.8324 38.9284 24.0868 38.9284 24.352V40.568C38.9284 41.358 38.2884 42 37.4964 42H36.0644V40.568C36.0649 39.0131 35.448 37.5217 34.349 36.4216C33.2501 35.3216 31.7593 34.7031 30.2044 34.702H28.1764C27.9112 34.702 27.6568 34.8073 27.4693 34.9949C27.2817 35.1824 27.1764 35.4368 27.1764 35.702C27.1764 35.9672 27.2817 36.2216 27.4693 36.4091C27.6568 36.5967 27.9112 36.702 28.1764 36.702H30.2024C32.3364 36.702 34.0664 38.432 34.0664 40.568V42H22.2544C22.2444 41.532 22.2444 40.912 22.2684 40.182C22.3244 38.51 22.5084 36.302 23.0224 34.106C23.5364 31.898 24.3624 29.788 25.6464 28.246C26.9004 26.744 28.6024 25.756 31.0144 25.756C31.2796 25.756 31.534 25.6507 31.7216 25.4631C31.909 25.2756 32.0144 25.0212 32.0144 24.756V16.892C32.0144 15.304 33.2924 14.014 34.8744 14H34.8764Z" fill="url(#paint2_linear_69_204)" stroke="url(#paint3_linear_69_204)" stroke-width="2"/>
<defs>
<linearGradient id="paint0_linear_69_204" x1="29.2709" y1="54.5417" x2="29.2709" y2="4" gradientUnits="userSpaceOnUse">
<stop stop-color="#FD5900"/>
<stop offset="1" stop-color="#FFDE00"/>
</linearGradient>
<linearGradient id="paint1_linear_69_204" x1="55.3466" y1="59.1983" x2="55.3466" y2="49.8886" gradientUnits="userSpaceOnUse">
<stop stop-color="#FD5900"/>
<stop offset="1" stop-color="#FFDE00"/>
</linearGradient>
<linearGradient id="paint2_linear_69_204" x1="28.998" y1="44" x2="28.998" y2="12" gradientUnits="userSpaceOnUse">
<stop stop-color="#FD4C00"/>
<stop offset="1" stop-color="#FFB800"/>
</linearGradient>
<linearGradient id="paint3_linear_69_204" x1="28.998" y1="44" x2="28.998" y2="12" gradientUnits="userSpaceOnUse">
<stop stop-color="#FD4C00"/>
<stop offset="1" stop-color="#FFB800"/>
</linearGradient>
</defs>
</svg>
