<svg width="32" height="32" viewBox="0 0 32 32" fill="none" xmlns="http://www.w3.org/2000/svg">
<path opacity="0.4" d="M21.6 2H10.4C5.76081 2 2 5.76081 2 10.4V21.6C2 26.2392 5.76081 30 10.4 30H21.6C26.2392 30 30 26.2392 30 21.6V10.4C30 5.76081 26.2392 2 21.6 2Z" fill="url(#paint0_linear_107_74)"/>
<path d="M11.7994 15.9145C11.935 19.8921 14.4186 23.9442 18.2921 22.6807C19.9358 22.0716 20.9721 21.2695 21.6455 19.9681C21.7415 19.7827 21.9574 19.688 22.1542 19.7575L23.9899 20.4055C24.2107 20.4834 24.3182 20.7338 24.2137 20.9433C23.2502 22.8747 21.6375 24.6709 19.2806 25.3956C17.254 26.0019 14.9636 25.9037 12.9665 25.2525C10.5389 24.4194 8.89646 22.424 8.23645 20.2947C7.44168 17.7127 7.43287 14.9686 7.98017 12.3486C8.44725 10.1467 9.79806 7.91124 12.2512 6.93596C14.3135 6.10454 16.7439 6.00038 18.927 6.50824C21.1467 7.04606 22.8186 8.61559 23.7103 10.4041C23.731 10.4455 23.759 10.483 23.7904 10.5171C24.2059 10.9665 23.6065 11.0473 23.1827 11.186L21.5924 11.7173C21.3848 11.7866 21.162 11.6749 21.0691 11.4768C20.3505 9.94448 18.6882 9.08423 16.6131 9.03826C12.9323 9.26383 11.8573 13.0633 11.7994 15.9145Z" fill="url(#paint1_linear_107_74)"/>
<defs>
<linearGradient id="paint0_linear_107_74" x1="16" y1="30" x2="16" y2="2" gradientUnits="userSpaceOnUse">
<stop stop-color="#5570FF"/>
<stop offset="1" stop-color="#4DD3FF"/>
</linearGradient>
<linearGradient id="paint1_linear_107_74" x1="16.0001" y1="25.8" x2="16.0001" y2="6.19995" gradientUnits="userSpaceOnUse">
<stop stop-color="#5570FF"/>
<stop offset="1" stop-color="#4DD3FF"/>
</linearGradient>
</defs>
</svg>
