<svg width="96" height="96" viewBox="0 0 96 96" fill="none" xmlns="http://www.w3.org/2000/svg">
<path d="M41.8 7H13.6857C11.0979 7 9 9.09787 9 11.6857V28.0857C9 30.6736 11.0979 32.7714 13.6857 32.7714H41.8C44.3878 32.7714 46.4857 30.6736 46.4857 28.0857V11.6857C46.4857 9.09787 44.3878 7 41.8 7Z" fill="url(#paint0_linear_54_424)"/>
<path d="M60.5429 35.1143H32.4286C29.8407 35.1143 27.7429 37.2122 27.7429 39.8V56.2C27.7429 58.7879 29.8407 60.8857 32.4286 60.8857H60.5429C63.1307 60.8857 65.2286 58.7879 65.2286 56.2V39.8C65.2286 37.2122 63.1307 35.1143 60.5429 35.1143Z" fill="url(#paint1_linear_54_424)"/>
<path opacity="0.4" fill-rule="evenodd" clip-rule="evenodd" d="M53.5143 7H81.6286C84.2164 7 86.3143 9.09787 86.3143 11.6857V28.0857C86.3143 30.6736 84.2164 32.7714 81.6286 32.7714H53.5143C50.9264 32.7714 48.8286 30.6736 48.8286 28.0857V11.6857C48.8286 9.09787 50.9264 7 53.5143 7ZM72.2571 35.1143H81.6286C84.2164 35.1143 86.3143 37.2122 86.3143 39.8V56.2C86.3143 58.7878 84.2164 60.8857 81.6286 60.8857H72.2571C69.6693 60.8857 67.5714 58.7878 67.5714 56.2V39.8C67.5714 37.2122 69.6693 35.1143 72.2571 35.1143ZM53.5143 63.2286C50.9264 63.2286 48.8286 65.3264 48.8286 67.9143V84.3143C48.8286 86.9021 50.9264 89 53.5143 89H81.6286C84.2164 89 86.3143 86.9021 86.3143 84.3143V67.9143C86.3143 65.3264 84.2164 63.2286 81.6286 63.2286H53.5143ZM13.6857 63.2286H41.8C44.3878 63.2286 46.4857 65.3264 46.4857 67.9143V84.3143C46.4857 86.9021 44.3878 89 41.8 89H13.6857C11.0979 89 9 86.9021 9 84.3143V67.9143C9 65.3264 11.0979 63.2286 13.6857 63.2286Z" fill="url(#paint2_linear_54_424)"/>
<defs>
<linearGradient id="paint0_linear_54_424" x1="46.3746" y1="7.16338" x2="22.4309" y2="41.7008" gradientUnits="userSpaceOnUse">
<stop stop-color="#FE7970"/>
<stop offset="1" stop-color="#DC3282"/>
</linearGradient>
<linearGradient id="paint1_linear_54_424" x1="65.1175" y1="35.2777" x2="41.1737" y2="69.8151" gradientUnits="userSpaceOnUse">
<stop stop-color="#FE7970"/>
<stop offset="1" stop-color="#DC3282"/>
</linearGradient>
<linearGradient id="paint2_linear_54_424" x1="84.1336" y1="48" x2="18.7827" y2="25.711" gradientUnits="userSpaceOnUse">
<stop stop-color="#FE7970"/>
<stop offset="1" stop-color="#DC3282"/>
</linearGradient>
</defs>
</svg>
