<svg width="32" height="32" viewBox="0 0 32 32" fill="none" xmlns="http://www.w3.org/2000/svg">
<path opacity="0.4" d="M29.5214 28.3452C29.7383 29.0814 29.0764 29.7586 28.3367 29.5538C26.29 28.9872 24.2169 28.3874 22.8049 28.3874L5.57109 28.3831C4.62385 28.3827 3.71553 28.0061 3.04586 27.3362C2.37619 26.6663 2 25.7578 2 24.8106V5.57253C2 4.62504 2.37639 3.71636 3.04637 3.04638C3.71635 2.3764 4.62503 2.00001 5.57252 2.00001H24.5426C25.0472 1.99879 25.5471 2.09726 26.0136 2.28979C26.48 2.48231 26.9039 2.76508 27.2607 3.12187C27.6176 3.47866 27.9004 3.90243 28.093 4.36885C28.2856 4.83527 28.3842 5.33514 28.3831 5.83976L28.4009 23.1965C28.4009 24.5279 28.9625 26.4481 29.5214 28.3452Z" fill="url(#paint0_linear_280_120)"/>
<path d="M8.31479 12.3269C8.31479 10.1178 10.1057 8.3269 12.3148 8.3269H18.0476C20.2567 8.3269 22.0476 10.1178 22.0476 12.3269V18.0597C22.0476 20.2688 20.2567 22.0597 18.0476 22.0597H12.3148C10.1056 22.0597 8.31479 20.2688 8.31479 18.0597V12.3269Z" fill="url(#paint1_linear_280_120)"/>
<defs>
<linearGradient id="paint0_linear_280_120" x1="16" y1="30" x2="16" y2="2" gradientUnits="userSpaceOnUse">
<stop stop-color="#FD5900"/>
<stop offset="1" stop-color="#FFDE00"/>
</linearGradient>
<linearGradient id="paint1_linear_280_120" x1="15.1812" y1="22.0597" x2="15.1812" y2="8.3269" gradientUnits="userSpaceOnUse">
<stop stop-color="#FD2E00"/>
<stop offset="1" stop-color="#FF9900"/>
</linearGradient>
</defs>
</svg>
