<svg width="24" height="24" viewBox="0 0 24 24" fill="none" xmlns="http://www.w3.org/2000/svg">
<path d="M14.7204 6.41353C14.7306 6.46967 14.7358 6.52669 14.734 6.58372C14.7123 7.26513 14.4327 7.91409 13.9502 8.39768C13.4475 8.90152 12.7656 9.18457 12.0547 9.18457C11.3437 9.18457 10.6619 8.90152 10.1591 8.39768C9.67662 7.91409 9.39704 7.26513 9.37535 6.58372C9.37354 6.52669 9.37875 6.46967 9.38895 6.41353C9.63555 5.05526 10.1594 3.76232 10.9279 2.61583C11.0493 2.42692 11.2161 2.27155 11.413 2.16396C11.6098 2.05638 11.8305 2 12.0547 2C12.2789 2 12.4995 2.05638 12.6964 2.16396C12.8933 2.27155 13.06 2.42692 13.1815 2.61583C13.95 3.76232 14.4738 5.05526 14.7204 6.41353ZM6.89256 17.6689C6.71966 17.8431 6.85572 18.1166 7.10119 18.1166H17.0093C17.2552 18.1166 17.392 17.8433 17.2186 17.6689V17.6689C15.6681 16.1667 14.9456 14.448 14.7811 11.8339C14.7507 11.3502 15.1442 10.9524 15.6289 10.9524V10.9524C15.8659 10.9524 16.0932 10.858 16.2608 10.6901C16.4283 10.5221 16.5225 10.2943 16.5225 10.0568C16.5225 9.81931 16.4283 9.59153 16.2608 9.42358C16.0932 9.25564 15.8659 9.16129 15.6289 9.16129H8.48042C8.24344 9.16129 8.01616 9.25564 7.84858 9.42358C7.68101 9.59153 7.58686 9.81931 7.58686 10.0568C7.58686 10.2943 7.68101 10.5221 7.84858 10.6901C8.01616 10.858 8.24344 10.9524 8.48042 10.9524V10.9524C8.96611 10.9524 9.36046 11.351 9.32994 11.8357C9.16531 14.4504 8.44274 16.1686 6.89256 17.6689V17.6689Z" fill="url(#paint0_linear_309_387)"/>
<path opacity="0.4" d="M17.9313 18.9536V19.4816C17.9313 19.9453 18.3072 20.3211 18.7709 20.3211C18.9935 20.3211 19.2071 20.4096 19.3645 20.567C19.5219 20.7245 19.6104 20.938 19.6104 21.1607C19.6104 21.3833 19.5219 21.5969 19.3645 21.7543C19.2071 21.9117 18.9935 22.0002 18.7709 22.0002H5.33849C5.11583 22.0002 4.90229 21.9117 4.74485 21.7543C4.58741 21.5969 4.49896 21.3833 4.49896 21.1607C4.49896 20.938 4.58741 20.7245 4.74485 20.567C4.90229 20.4096 5.11583 20.3211 5.33849 20.3211C5.80214 20.3211 6.17801 19.9453 6.17801 19.4816V18.9536C6.17801 18.7758 6.34551 18.6421 6.52322 18.6421H17.5861C17.7638 18.6421 17.9313 18.7758 17.9313 18.9536Z" fill="url(#paint1_linear_309_387)"/>
<defs>
<linearGradient id="paint0_linear_309_387" x1="12.0547" y1="18.1166" x2="12.0547" y2="2" gradientUnits="userSpaceOnUse">
<stop stop-color="#FD5900"/>
<stop offset="1" stop-color="#FFDE00"/>
</linearGradient>
<linearGradient id="paint1_linear_309_387" x1="12.0547" y1="22.0002" x2="12.0547" y2="18.6421" gradientUnits="userSpaceOnUse">
<stop stop-color="#FD5900"/>
<stop offset="1" stop-color="#FFDE00"/>
</linearGradient>
</defs>
</svg>
