<svg width="48" height="48" viewBox="0 0 48 48" fill="none" xmlns="http://www.w3.org/2000/svg">
<path opacity="0.5" fill-rule="evenodd" clip-rule="evenodd" d="M24.873 44.0424C24.9678 43.9523 25.0542 43.8534 25.1301 43.7469L28.5138 39.0009C28.8891 38.4745 29.4958 38.162 30.1423 38.162H39.4744C39.4854 38.162 39.496 38.1621 39.507 38.162C39.8227 38.1597 44.696 38.0075 44.696 30.823V7.471C44.3937 2.78906 40.4557 2.0902 39.839 2.0093C39.7832 2.00198 39.7298 2 39.6735 2H9.12552C9.08649 2 9.04897 2.001 9.01009 2.00447C8.41691 2.05732 3.38112 2.65938 3.30396 7.872V30.823C3.31363 37.8157 8.69542 38.1472 9.04876 38.1614C9.06138 38.1619 9.07327 38.162 9.0859 38.162H18.5801C19.2595 38.162 19.8925 38.5069 20.2607 39.0779L23.361 43.884C24.1157 44.7646 24.1717 44.709 24.873 44.0424Z" fill="url(#paint0_linear_343_562)"/>
<path d="M36.1817 12.6002C36.4391 12.3038 36.1235 11.8784 35.7475 11.9914V11.9914C35.3424 12.1131 35.054 11.501 35.3226 11.1742C35.5248 10.9282 35.7055 10.6639 35.8617 10.3842C36.0411 10.0629 35.6832 9.75524 35.3496 9.91086C34.6413 10.2414 33.8918 10.497 33.1102 10.6682C32.9755 10.6977 32.8366 10.6515 32.7382 10.5549C31.7752 9.61035 30.4557 9.0293 29.0003 9.0293C26.054 9.0293 23.6655 11.4178 23.6655 14.3617C23.6655 14.596 23.6805 14.8274 23.7097 15.0544C23.7436 15.3181 23.5389 15.5633 23.274 15.5408C19.2621 15.1998 15.6963 13.2977 13.1843 10.4441C13 10.2346 12.6622 10.2619 12.5485 10.5167C12.2533 11.1782 12.0896 11.9119 12.0896 12.6847C12.0896 14.0285 12.5869 15.2571 13.4068 16.1953C13.672 16.4989 13.4615 17.009 13.0761 16.8911C12.7368 16.7873 12.4118 16.6511 12.105 16.4858C12.0784 16.4715 12.0459 16.4906 12.0459 16.5208V16.5208C12.0459 18.6042 13.2425 20.4093 14.9843 21.2873C15.2997 21.4463 15.2721 21.9371 14.9189 21.9371V21.9371C14.8062 21.9371 14.6948 21.9333 14.5845 21.926C14.281 21.9058 14.0324 22.1916 14.1614 22.4671C14.8459 23.9296 16.174 25.0302 17.7799 25.4046C18.1466 25.4901 18.2934 25.9896 17.9743 26.1895C16.3219 27.2243 14.3669 27.8214 12.2716 27.8214V27.8214C11.9571 27.8214 11.8218 28.2441 12.0997 28.3914C14.2123 29.5114 16.6187 30.1484 19.1758 30.1484C28.9873 30.1484 34.3504 22.021 34.3504 14.9738L34.3381 14.4949C34.3347 14.3621 34.3978 14.2367 34.5044 14.1573C35.1178 13.7007 35.6808 13.1771 36.1817 12.6002Z" fill="url(#paint1_linear_343_562)"/>
<defs>
<linearGradient id="paint0_linear_343_562" x1="28.8825" y1="30.2313" x2="0.3981" y2="12.9135" gradientUnits="userSpaceOnUse">
<stop stop-color="#2AD454"/>
<stop offset="1" stop-color="#B3FF5A"/>
</linearGradient>
<linearGradient id="paint1_linear_343_562" x1="27.0669" y1="23.0435" x2="11.6724" y2="11.2002" gradientUnits="userSpaceOnUse">
<stop stop-color="#2AD454"/>
<stop offset="1" stop-color="#B3FF5A"/>
</linearGradient>
</defs>
</svg>
