<svg width="24" height="24" viewBox="0 0 24 24" fill="none" xmlns="http://www.w3.org/2000/svg">
<path opacity="0.4" d="M1 12C1 6.8146 1 4.2219 2.6104 2.6104C4.223 1 6.8146 1 12 1C17.1854 1 19.7781 1 21.3885 2.6104C23 4.223 23 6.8146 23 12C23 17.1854 23 19.7781 21.3885 21.3885C19.7792 23 17.1854 23 12 23C6.8146 23 4.2219 23 2.6104 21.3885C1 19.7792 1 17.1854 1 12Z" fill="url(#paint0_linear_39_167)"/>
<path fill-rule="evenodd" clip-rule="evenodd" d="M7.24051 6.20253C7.24051 6.09067 7.33118 6 7.44304 6H8.65823C8.77009 6 8.86076 6.09067 8.86076 6.20253V7.41772C8.86076 7.52958 8.95143 7.62025 9.06329 7.62025H9.67089C10.6291 7.62025 11.4466 8.17377 11.8414 8.97655C11.9031 9.10202 11.8058 9.24051 11.666 9.24051H9.67089H9.06329C8.95143 9.24051 8.86076 9.33118 8.86076 9.44304V10.6582C8.86076 10.7701 8.95143 10.8608 9.06329 10.8608H9.67089C11.0173 10.8608 12.1013 11.9447 12.1013 13.2911C12.1013 14.6376 11.0173 15.7215 9.67089 15.7215H9.06329C8.95143 15.7215 8.86076 15.8122 8.86076 15.9241V17.1392C8.86076 17.2511 8.77009 17.3418 8.65823 17.3418H7.44304C7.33118 17.3418 7.24051 17.2511 7.24051 17.1392V15.9241C7.24051 15.8122 7.14983 15.7215 7.03797 15.7215H6.43038C5.47216 15.7215 4.65464 15.168 4.25991 14.3652C4.1982 14.2398 4.29545 14.1013 4.43528 14.1013H6.43038H7.03797C7.14983 14.1013 7.24051 14.0106 7.24051 13.8987V12.6835C7.24051 12.5717 7.14983 12.481 7.03797 12.481H6.43038C5.08395 12.481 4 11.3971 4 10.0506C4 8.7042 5.08395 7.62025 6.43038 7.62025H7.03797C7.14983 7.62025 7.24051 7.52958 7.24051 7.41772V6.20253ZM7.03797 9.24051H6.43038C5.95354 9.24051 5.62025 9.57379 5.62025 10.0506C5.62025 10.5275 5.95354 10.8608 6.43038 10.8608H7.03797C7.14983 10.8608 7.24051 10.7701 7.24051 10.6582V9.44304C7.24051 9.33118 7.14983 9.24051 7.03797 9.24051ZM9.06329 12.481C8.95143 12.481 8.86076 12.5717 8.86076 12.6835V13.8987C8.86076 14.0106 8.95143 14.1013 9.06329 14.1013H9.67089C10.1477 14.1013 10.481 13.768 10.481 13.2911C10.481 12.8143 10.1477 12.481 9.67089 12.481H9.06329ZM13.9241 14.9114H19.5949C19.8187 14.9114 20 15.0927 20 15.3165V16.1266C20 16.3503 19.8187 16.5316 19.5949 16.5316H13.9241C13.7003 16.5316 13.519 16.3503 13.519 16.1266V15.3165C13.519 15.0927 13.7003 14.9114 13.9241 14.9114Z" fill="url(#paint1_linear_39_167)"/>
<defs>
<linearGradient id="paint0_linear_39_167" x1="0.682006" y1="1.21648" x2="23.3621" y2="24.5905" gradientUnits="userSpaceOnUse">
<stop stop-color="#F9D423"/>
<stop offset="0.515624" stop-color="#FF4E50"/>
<stop offset="0.991304" stop-color="#8A2387"/>
</linearGradient>
<linearGradient id="paint1_linear_39_167" x1="3.76873" y1="6.11159" x2="14.6925" y2="21.9935" gradientUnits="userSpaceOnUse">
<stop stop-color="#F9D423"/>
<stop offset="0.515624" stop-color="#FF4E50"/>
<stop offset="0.991304" stop-color="#8A2387"/>
</linearGradient>
</defs>
</svg>
