<svg width="64" height="64" viewBox="0 0 64 64" fill="none" xmlns="http://www.w3.org/2000/svg">
<path opacity="0.4" fill-rule="evenodd" clip-rule="evenodd" d="M24.7266 7C24.1082 7 23.5146 7.24554 23.0768 7.68341L19.6167 11.1434C19.1791 11.581 18.9333 12.1745 18.9333 12.7933V16.3333H6.33333C5.04457 16.3333 4 17.3781 4 18.6667V52.7333C4 55.3155 6.08453 57.4 8.66667 57.4H55.3333C57.9155 57.4 60 55.3155 60 52.7333V18.6667C60 17.378 58.9553 16.3333 57.6667 16.3333H45.0667V12.7933C45.0667 12.1745 44.8209 11.581 44.3833 11.1434L40.9237 7.68391C40.4859 7.24604 39.8918 7 39.2734 7H24.7266ZM26.4 16.3333V14.4667H37.6V16.3333H26.4Z" fill="url(#paint0_linear_54_1489)"/>
<path fill-rule="evenodd" clip-rule="evenodd" d="M22.0656 28.1682C21.8497 28.3875 21.7905 28.7144 21.9029 29.001C22.5536 30.6599 23.2171 32.3138 23.8807 33.9677C24.6414 35.8635 25.402 37.7593 26.1432 39.6628L26.1448 39.5043C25.7908 37.9781 26.0058 36.3322 26.8239 34.9887C26.7702 35.0009 26.6829 35.0213 26.6044 35.0396L26.4828 35.0679C26.1638 34.1841 25.8065 33.3139 25.4493 32.444C24.9792 31.2992 24.5093 30.1548 24.1271 28.9807C25.8942 27.4658 28.0882 26.4068 30.4148 26.1562C32.1787 25.9363 34.0121 25.8911 35.7259 26.4359C37.4979 26.9986 39.0128 28.1546 40.3176 29.4496C40.3452 29.4764 40.373 29.504 40.4013 29.532C40.6757 29.8041 40.9844 30.1101 41.4008 30.0559C42.1995 30.1028 42.6764 29.005 42.1607 28.4213C39.3006 25.2977 34.9353 23.6502 30.7236 24.0625C27.4681 24.3439 24.353 25.8437 22.0656 28.1682ZM40.1916 32.0337C37.8094 32.0301 35.427 32.0264 33.0454 32.0553C34.3663 32.3382 35.65 32.9914 36.5134 34.0488C37.5305 34.0597 38.5473 34.0572 39.5639 34.0546H39.564H39.5642C40.805 34.0516 42.0456 34.0485 43.2861 34.0698C43.8261 35.6041 44.0411 37.2484 43.9667 38.8716C43.8471 41.2823 42.8786 43.604 41.3961 45.494C40.5618 46.5271 39.6742 47.5457 38.5732 48.3055C37.4495 49.1042 36.1108 49.5537 34.756 49.7623C34.6676 49.7811 34.5754 49.7964 34.4821 49.8118C34.0875 49.8771 33.6733 49.9456 33.4431 50.3039C33.026 50.8342 33.3332 51.6959 33.9702 51.8786C34.3481 51.9602 34.7219 51.8654 35.0904 51.772L35.0905 51.772L35.0905 51.772C35.1967 51.7451 35.3023 51.7183 35.4075 51.6959C40.1705 50.5205 44.1333 46.6548 45.4606 41.9371C46.3452 38.8472 46.14 35.4468 44.8565 32.4963C44.7323 32.2106 44.4456 32.0335 44.1341 32.0343C42.8201 32.0377 41.5059 32.0357 40.1917 32.0337H40.1916H40.1916ZM21.0572 32.221C20.7387 31.487 19.5488 31.4935 19.2577 32.2485C18.0775 34.8046 17.7283 37.7261 18.2085 40.4973C18.7291 43.5207 20.299 46.3355 22.5479 48.4163C24.5302 50.2195 27.023 51.4901 29.6763 51.9122C29.6996 51.9159 29.7228 51.9215 29.7459 51.9272C29.7823 51.936 29.8186 51.9448 29.8558 51.9463C29.9965 51.9517 30.0799 51.8182 30.1552 51.6976C30.1774 51.662 30.199 51.6276 30.2211 51.5981C31.1162 50.2309 32.0263 48.8729 32.9365 47.5148L32.9365 47.5148C34.1554 45.6962 35.3743 43.8774 36.5572 42.0365C35.5451 43.0615 34.2582 43.8392 32.8128 44.0332C32.3357 44.758 31.8542 45.4803 31.3726 46.2027C30.5942 47.3703 29.8155 48.5382 29.0554 49.7178C27.0862 49.2117 25.2479 48.1996 23.7508 46.8254C20.4833 43.7066 19.1413 38.6946 20.5884 34.3891C20.6377 34.1449 20.7465 33.904 20.8554 33.6626C21.0676 33.1925 21.2804 32.7209 21.0572 32.221ZM33.0456 32.0558C31.9494 32.0024 30.816 32.0267 29.7845 32.447C28.538 32.9208 27.5501 33.8908 26.8242 34.9886C26.0061 36.3322 25.7911 37.978 26.1452 39.5043C26.5995 40.8996 27.4143 42.2269 28.6431 43.066C29.8395 43.9084 31.3722 44.222 32.8128 44.0329C34.2582 43.8389 35.5451 43.0612 36.5572 42.0361C37.4659 40.8624 38.0738 39.3992 37.9994 37.894C38.0026 36.4777 37.3705 35.1471 36.5136 34.0493C35.6502 32.9919 34.3665 32.3387 33.0456 32.0558ZM28.4539 36.2352C28.9713 35.1665 30.006 34.3904 31.1604 34.143C33.2574 33.6305 35.5144 35.1535 35.9105 37.2537C36.347 39.2052 35.0746 41.3361 33.1539 41.8826C31.7457 42.3433 30.116 41.8987 29.1136 40.8171C27.9576 39.6336 27.6649 37.6951 28.4539 36.2352Z" fill="url(#paint1_linear_54_1489)"/>
<path d="M21.9029 29.001L20.972 29.3661L20.972 29.3661L21.9029 29.001ZM22.0656 28.1682L22.7782 28.8698L22.7784 28.8696L22.0656 28.1682ZM23.8807 33.9677L24.8088 33.5954L24.8088 33.5954L23.8807 33.9677ZM26.1432 39.6628L25.2114 40.0256L27.1432 39.6729L26.1432 39.6628ZM26.1448 39.5043L27.1448 39.5144L27.146 39.3948L27.119 39.2783L26.1448 39.5043ZM26.8239 34.9887L27.678 35.5088L28.9061 33.4921L26.6031 34.0134L26.8239 34.9887ZM26.6044 35.0396L26.8313 36.0135L26.8319 36.0134L26.6044 35.0396ZM26.4828 35.0679L25.5422 35.4074L25.844 36.2434L26.7096 36.0418L26.4828 35.0679ZM25.4493 32.444L26.3743 32.0641L25.4493 32.444ZM24.1271 28.9807L23.4763 28.2215L22.9697 28.6558L23.1762 29.2902L24.1271 28.9807ZM30.4148 26.1562L30.5219 27.1504L30.5302 27.1495L30.5385 27.1485L30.4148 26.1562ZM35.7259 26.4359L35.423 27.3889L35.4233 27.389L35.7259 26.4359ZM40.3176 29.4496L39.6131 30.1594L39.6203 30.1663L40.3176 29.4496ZM40.4013 29.532L41.1053 28.8218L41.1053 28.8218L40.4013 29.532ZM41.4008 30.0559L41.4594 29.0576L41.3652 29.0521L41.2717 29.0643L41.4008 30.0559ZM42.1607 28.4213L42.9101 27.7592L42.9043 27.7525L42.8983 27.746L42.1607 28.4213ZM30.7236 24.0625L30.8097 25.0588L30.821 25.0577L30.7236 24.0625ZM33.0454 32.0553L33.0333 31.0554L32.836 33.0331L33.0454 32.0553ZM40.1916 32.0337L40.19 33.0337H40.1916V32.0337ZM36.5134 34.0488L35.7388 34.6813L36.0348 35.0437L36.5027 35.0487L36.5134 34.0488ZM39.5639 34.0546L39.5639 33.0546L39.5614 33.0546L39.5639 34.0546ZM39.5642 34.0546L39.5642 35.0546L39.5666 35.0546L39.5642 34.0546ZM43.2861 34.0698L44.2294 33.7378L43.9985 33.0819L43.3033 33.0699L43.2861 34.0698ZM43.9667 38.8716L44.9655 38.9211L44.9657 38.9174L43.9667 38.8716ZM41.3961 45.494L42.1741 46.1223L42.1786 46.1168L42.1829 46.1112L41.3961 45.494ZM38.5732 48.3055L38.0052 47.4824L37.9939 47.4904L38.5732 48.3055ZM34.756 49.7623L34.6038 48.7739L34.5755 48.7783L34.5475 48.7843L34.756 49.7623ZM34.4821 49.8118L34.6453 50.7984L34.6453 50.7984L34.4821 49.8118ZM33.4431 50.3039L34.2291 50.9221L34.2586 50.8846L34.2845 50.8444L33.4431 50.3039ZM33.9702 51.8786L33.6945 52.8398L33.7266 52.849L33.7591 52.8561L33.9702 51.8786ZM35.0904 51.772L34.8479 50.8019L34.8447 50.8027L35.0904 51.772ZM35.0905 51.772L35.3331 52.7421L35.3362 52.7413L35.0905 51.772ZM35.4075 51.6959L35.616 52.6739L35.6316 52.6706L35.6471 52.6668L35.4075 51.6959ZM45.4606 41.9371L44.4992 41.6619L44.498 41.6663L45.4606 41.9371ZM44.8565 32.4963L43.9394 32.895L43.9395 32.8952L44.8565 32.4963ZM44.1341 32.0343L44.1315 31.0343L44.1315 31.0343L44.1341 32.0343ZM40.1917 32.0337L40.1932 31.0337H40.1917V32.0337ZM19.2577 32.2485L20.1656 32.6677L20.1791 32.6384L20.1907 32.6082L19.2577 32.2485ZM21.0572 32.221L20.1398 32.6191L20.1441 32.6288L21.0572 32.221ZM18.2085 40.4973L19.194 40.3276L19.1938 40.3266L18.2085 40.4973ZM22.5479 48.4163L21.8687 49.1503L21.875 49.156L22.5479 48.4163ZM29.6763 51.9122L29.834 50.9247L29.8334 50.9246L29.6763 51.9122ZM29.7459 51.9272L29.982 50.9554L29.9819 50.9554L29.7459 51.9272ZM29.8558 51.9463L29.8163 52.9455L29.8174 52.9456L29.8558 51.9463ZM30.1552 51.6976L31.0034 52.2273L31.0034 52.2273L30.1552 51.6976ZM30.2211 51.5981L31.021 52.1982L31.0402 52.1726L31.0577 52.1458L30.2211 51.5981ZM32.9365 47.5148L33.7672 48.0716L33.7725 48.0636L33.7777 48.0556L32.9365 47.5148ZM32.9365 47.5148L32.1058 46.958L32.1005 46.966L32.0954 46.974L32.9365 47.5148ZM36.5572 42.0365L37.3985 42.5771L35.8456 41.3339L36.5572 42.0365ZM32.8128 44.0332L32.6798 43.0421L32.228 43.1027L31.9774 43.4835L32.8128 44.0332ZM31.3726 46.2027L32.2047 46.7574L32.2047 46.7574L31.3726 46.2027ZM29.0554 49.7178L28.8065 50.6863L29.5052 50.8659L29.896 50.2595L29.0554 49.7178ZM23.7508 46.8254L23.0603 47.5488L23.0674 47.5555L23.0746 47.5621L23.7508 46.8254ZM20.5884 34.3891L21.5363 34.7077L21.5562 34.6485L21.5685 34.5873L20.5884 34.3891ZM20.8554 33.6626L21.7669 34.0739L20.8554 33.6626ZM29.7845 32.447L30.1398 33.3817L30.1509 33.3775L30.1618 33.3731L29.7845 32.447ZM33.0456 32.0558L33.255 31.078L33.1755 31.0609L33.0942 31.057L33.0456 32.0558ZM26.8242 34.9886L25.9901 34.437L25.9798 34.4526L25.9701 34.4685L26.8242 34.9886ZM26.1452 39.5043L25.1711 39.7303L25.1809 39.7726L25.1943 39.8139L26.1452 39.5043ZM28.6431 43.066L29.2188 42.2483L29.2129 42.2442L29.207 42.2402L28.6431 43.066ZM32.8128 44.0329L32.9429 45.0244L32.9458 45.024L32.8128 44.0329ZM36.5572 42.0361L37.2688 42.7387L37.3111 42.6959L37.3479 42.6483L36.5572 42.0361ZM37.9994 37.894L36.9994 37.8917L36.9993 37.9176L37.0006 37.9434L37.9994 37.894ZM36.5136 34.0493L37.3019 33.434L37.2951 33.4253L37.2882 33.4168L36.5136 34.0493ZM31.1604 34.143L31.3699 35.1208L31.3839 35.1178L31.3978 35.1144L31.1604 34.143ZM28.4539 36.2352L29.3336 36.7106L29.3442 36.691L29.354 36.671L28.4539 36.2352ZM35.9105 37.2537L34.9278 37.439L34.9309 37.4556L34.9346 37.472L35.9105 37.2537ZM33.1539 41.8826L32.8802 40.9208L32.8615 40.9261L32.843 40.9322L33.1539 41.8826ZM29.1136 40.8171L29.847 40.1374L29.8381 40.1277L29.829 40.1183L29.1136 40.8171ZM22.8339 28.6359C22.8581 28.6976 22.8535 28.7933 22.7782 28.8698L21.353 27.4666C20.846 27.9817 20.723 28.7312 20.972 29.3661L22.8339 28.6359ZM24.8088 33.5954C24.145 31.9408 23.4828 30.2905 22.8339 28.6359L20.972 29.3661C21.6243 31.0293 22.2893 32.6868 22.9527 34.3401L24.8088 33.5954ZM27.0751 39.2999C26.3317 37.3909 25.5692 35.4903 24.8088 33.5954L22.9527 34.3401C23.7136 36.2367 24.4724 38.1277 25.2114 40.0256L27.0751 39.2999ZM25.1449 39.4942L25.1433 39.6527L27.1432 39.6729L27.1448 39.5144L25.1449 39.4942ZM25.9698 34.4686C25.0043 36.0541 24.7627 37.9713 25.1707 39.7302L27.119 39.2783C26.819 37.9849 27.0073 36.6103 27.678 35.5088L25.9698 34.4686ZM26.8319 36.0134C26.9119 35.9947 26.9952 35.9752 27.0447 35.964L26.6031 34.0134C26.5453 34.0265 26.4538 34.0478 26.377 34.0658L26.8319 36.0134ZM26.7096 36.0418L26.8313 36.0135L26.3776 34.0656L26.256 34.094L26.7096 36.0418ZM24.5242 32.8238C24.8828 33.6971 25.2317 34.5474 25.5422 35.4074L27.4234 34.7283C27.0958 33.8209 26.7301 32.9307 26.3743 32.0641L24.5242 32.8238ZM23.1762 29.2902C23.572 30.5059 24.0565 31.6848 24.5242 32.8238L26.3743 32.0641C25.9018 30.9135 25.4467 29.8037 25.078 28.6712L23.1762 29.2902ZM30.3077 25.1619C27.7517 25.4373 25.3733 26.5952 23.4763 28.2215L24.778 29.7399C26.4152 28.3364 28.4248 27.3763 30.5219 27.1504L30.3077 25.1619ZM36.0289 25.4829C34.1109 24.8732 32.1077 24.9374 30.2911 25.1639L30.5385 27.1485C32.2498 26.9352 33.9133 26.909 35.423 27.3889L36.0289 25.4829ZM41.0221 28.7398C39.6636 27.3916 38.0152 26.1136 36.0286 25.4828L35.4233 27.389C36.9807 27.8836 38.362 28.9176 39.6132 30.1594L41.0221 28.7398ZM41.1053 28.8218C41.0777 28.7945 41.0465 28.7635 41.015 28.7329L39.6203 30.1663C39.6439 30.1893 39.6684 30.2136 39.6972 30.2422L41.1053 28.8218ZM41.2717 29.0643C41.3078 29.0596 41.3447 29.0632 41.3734 29.0712C41.3981 29.078 41.4025 29.0839 41.3835 29.0719C41.3634 29.0592 41.3307 29.035 41.2807 28.9903C41.2293 28.9445 41.1769 28.8928 41.1053 28.8218L39.6972 30.2422C39.819 30.3629 40.041 30.5888 40.3121 30.7607C40.6076 30.9482 41.0229 31.1136 41.53 31.0475L41.2717 29.0643ZM41.4113 29.0834C41.398 29.0683 41.3882 29.0516 41.3821 29.0365C41.3763 29.0222 41.3754 29.0134 41.3753 29.0125C41.3753 29.0118 41.3757 29.0171 41.3738 29.0277C41.3718 29.0383 41.3682 29.0505 41.3627 29.0627C41.3571 29.0749 41.3514 29.0835 41.3476 29.0882C41.3438 29.093 41.3441 29.0912 41.3513 29.0861C41.3589 29.0808 41.3736 29.0722 41.3953 29.0656C41.4179 29.0588 41.4406 29.0565 41.4594 29.0576L41.3422 31.0542C42.2656 31.1084 42.9102 30.4939 43.1847 29.8874C43.4561 29.2879 43.4948 28.4209 42.9101 27.7592L41.4113 29.0834ZM30.821 25.0577C34.7236 24.6757 38.7783 26.208 41.4232 29.0966L42.8983 27.746C39.823 24.3874 35.147 22.6247 30.6262 23.0673L30.821 25.0577ZM22.7784 28.8696C24.9032 26.7103 27.798 25.3191 30.8097 25.0588L30.6375 23.0662C27.1383 23.3687 23.8028 24.9771 21.3528 27.4668L22.7784 28.8696ZM33.0575 33.0552C35.4312 33.0264 37.8067 33.0301 40.19 33.0337L40.1931 31.0337C37.812 31.0301 35.4229 31.0264 33.0333 31.0554L33.0575 33.0552ZM37.288 33.4163C36.247 32.1414 34.739 31.3953 33.2548 31.0775L32.836 33.0331C33.9936 33.2811 35.0531 33.8414 35.7388 34.6813L37.288 33.4163ZM39.5614 33.0546C38.5437 33.0572 37.5335 33.0597 36.5241 33.0489L36.5027 35.0487C37.5275 35.0597 38.5509 35.0572 39.5664 35.0546L39.5614 33.0546ZM39.564 33.0546H39.5639V35.0546H39.564V33.0546ZM39.5642 33.0546H39.564V35.0546H39.5642V33.0546ZM43.3033 33.0699C42.0513 33.0484 40.8009 33.0516 39.5617 33.0546L39.5666 35.0546C40.8091 35.0515 42.0399 35.0485 43.2689 35.0696L43.3033 33.0699ZM44.9657 38.9174C45.0454 37.1773 44.8157 35.4036 44.2294 33.7378L42.3428 34.4018C42.8365 35.8046 43.0368 37.3195 42.9678 38.8258L44.9657 38.9174ZM42.1829 46.1112C43.7758 44.0805 44.8343 41.5647 44.9655 38.9211L42.9679 38.822C42.8599 40.9999 41.9814 43.1275 40.6093 44.8768L42.1829 46.1112ZM39.1412 49.1285C40.3695 48.2809 41.3331 47.1636 42.1741 46.1223L40.6181 44.8657C39.7905 45.8906 38.9789 46.8105 38.0052 47.4825L39.1412 49.1285ZM34.9082 50.7506C36.3719 50.5253 37.8694 50.0326 39.1526 49.1206L37.9939 47.4904C37.0297 48.1757 35.8497 48.5821 34.6038 48.7739L34.9082 50.7506ZM34.6453 50.7984C34.7342 50.7837 34.8496 50.7648 34.9646 50.7403L34.5475 48.7843C34.4856 48.7975 34.4167 48.8091 34.319 48.8252L34.6453 50.7984ZM34.2845 50.8444C34.274 50.8607 34.2591 50.8761 34.2458 50.886C34.2349 50.8941 34.2358 50.8906 34.2609 50.881C34.2873 50.8708 34.3295 50.8579 34.3973 50.8432C34.467 50.8281 34.5425 50.8154 34.6453 50.7984L34.319 48.8252C34.0243 48.874 33.1116 48.9698 32.6018 49.7634L34.2845 50.8444ZM34.2459 50.9173C34.2567 50.9204 34.2651 50.9246 34.2708 50.928C34.2761 50.9313 34.2777 50.9332 34.2766 50.932C34.2753 50.9308 34.2721 50.9271 34.2681 50.9205C34.2641 50.914 34.2603 50.9061 34.2574 50.8976C34.2545 50.8891 34.2531 50.8819 34.2525 50.8767C34.252 50.8716 34.2524 50.8703 34.2521 50.8728C34.2518 50.8755 34.2506 50.8823 34.2466 50.892C34.2425 50.9021 34.2366 50.9126 34.2291 50.9221L32.6571 49.6857C32.2 50.2668 32.1732 50.9845 32.3653 51.5456C32.5562 52.1031 33.0088 52.6432 33.6945 52.8398L34.2459 50.9173ZM34.8447 50.8027C34.4338 50.9068 34.2916 50.9249 34.1813 50.9011L33.7591 52.8561C34.4045 52.9954 35.0101 52.824 35.3361 52.7414L34.8447 50.8027ZM34.848 50.8019L34.8479 50.8019L35.333 52.7422L35.333 52.7422L34.848 50.8019ZM34.848 50.8019L34.848 50.8019L35.333 52.7422L35.3331 52.7421L34.848 50.8019ZM35.199 50.7179C35.072 50.745 34.9476 50.7766 34.8448 50.8027L35.3362 52.7413C35.4457 52.7136 35.5327 52.6917 35.616 52.6739L35.199 50.7179ZM44.498 41.6663C43.2673 46.0405 39.5785 49.6366 35.1679 50.725L35.6471 52.6668C40.7625 51.4044 44.9993 47.2691 46.4232 42.2079L44.498 41.6663ZM43.9395 32.8952C45.1289 35.6293 45.3211 38.7912 44.4992 41.6619L46.422 42.2123C47.3694 38.9032 47.1511 35.2643 45.7735 32.0974L43.9395 32.8952ZM44.1367 33.0343C44.0725 33.0345 43.9834 32.9962 43.9394 32.895L45.7736 32.0976C45.4812 31.4249 44.8187 31.0325 44.1315 31.0343L44.1367 33.0343ZM40.1901 33.0337C41.504 33.0357 42.8203 33.0377 44.1367 33.0343L44.1315 31.0343C42.8199 31.0377 41.5078 31.0357 40.1932 31.0337L40.1901 33.0337ZM40.1916 33.0337H40.1917V31.0337H40.1916V33.0337ZM40.1916 33.0337H40.1916V31.0337H40.1916V33.0337ZM20.1907 32.6082C20.1855 32.6218 20.1764 32.6377 20.1639 32.6522C20.1519 32.6662 20.1409 32.6742 20.1347 32.678C20.1289 32.6814 20.128 32.6809 20.1334 32.6794C20.1388 32.678 20.1475 32.6764 20.1585 32.6763C20.1695 32.6762 20.1792 32.6775 20.1862 32.6792C20.1932 32.681 20.1945 32.6823 20.191 32.6803C20.1872 32.6782 20.178 32.6722 20.167 32.6603C20.1555 32.6479 20.146 32.6332 20.1398 32.6191L21.9745 31.8229C21.6179 31.0011 20.8096 30.6688 20.1358 30.6764C19.4586 30.6841 18.6521 31.0394 18.3246 31.8887L20.1907 32.6082ZM19.1938 40.3266C18.7468 37.747 19.0739 35.0321 20.1656 32.6677L18.3498 31.8293C17.0811 34.5771 16.7097 37.7051 17.2232 40.668L19.1938 40.3266ZM23.227 47.6823C21.1334 45.7451 19.6759 43.1262 19.194 40.3276L17.223 40.667C17.7823 43.9152 19.4646 46.9259 21.8687 49.1503L23.227 47.6823ZM29.8334 50.9246C27.3887 50.5357 25.0716 49.3602 23.2208 47.6766L21.875 49.156C23.9888 51.0788 26.6573 52.4445 29.5192 52.8998L29.8334 50.9246ZM29.9819 50.9554C29.9655 50.9514 29.9035 50.9358 29.834 50.9247L29.5186 52.8997C29.5044 52.8974 29.4953 52.8954 29.4945 52.8952C29.4939 52.8951 29.4946 52.8952 29.4973 52.8959C29.5003 52.8966 29.5037 52.8974 29.5098 52.8989L29.9819 50.9554ZM29.8953 50.9471C29.9418 50.9489 29.9755 50.9548 29.9884 50.9573C29.9951 50.9586 29.9987 50.9594 29.9973 50.9591C29.9952 50.9586 29.992 50.9579 29.982 50.9554L29.5098 52.8989C29.5292 52.9036 29.6627 52.9394 29.8163 52.9455L29.8953 50.9471ZM29.307 51.1679C29.2971 51.1839 29.291 51.1936 29.2854 51.2023C29.2829 51.2062 29.281 51.2091 29.2796 51.2111C29.279 51.2121 29.2785 51.2128 29.2781 51.2133C29.2778 51.2138 29.2776 51.214 29.2777 51.214C29.2777 51.214 29.2779 51.2137 29.2783 51.2132C29.2786 51.2127 29.2792 51.2118 29.28 51.2108C29.2816 51.2087 29.2842 51.2053 29.2877 51.201C29.2944 51.1927 29.3063 51.1787 29.3235 51.1615C29.3566 51.1285 29.422 51.0709 29.5232 51.023C29.6315 50.9717 29.7593 50.9419 29.8942 50.947L29.8174 52.9456C30.2585 52.9625 30.5688 52.7444 30.7365 52.5769C30.8806 52.4331 30.9801 52.2647 31.0034 52.2273L29.307 51.1679ZM29.4212 50.998C29.3685 51.0682 29.3236 51.1413 29.307 51.1679L31.0034 52.2273C31.0092 52.218 31.0134 52.2113 31.0174 52.2049C31.0213 52.1988 31.0239 52.1947 31.0258 52.1918C31.0277 52.1889 31.0282 52.1882 31.0276 52.1891C31.027 52.1899 31.0248 52.1932 31.021 52.1982L29.4212 50.998ZM32.1058 46.9581C31.1961 48.3154 30.283 49.6779 29.3844 51.0503L31.0577 52.1458C31.9494 50.7839 32.8565 49.4304 33.7672 48.0716L32.1058 46.9581ZM32.0954 46.974L32.0953 46.9741L33.7777 48.0556L33.7777 48.0555L32.0954 46.974ZM35.7159 41.4959C34.5391 43.3274 33.3256 45.1381 32.1058 46.958L33.7672 48.0715C34.9852 46.2542 36.2095 44.4275 37.3985 42.5771L35.7159 41.4959ZM32.9458 45.0243C34.6649 44.7936 36.1445 43.8777 37.2688 42.7391L35.8456 41.3339C34.9457 42.2453 33.8514 42.8848 32.6798 43.0421L32.9458 45.0243ZM32.2047 46.7574C32.686 46.0354 33.1692 45.3107 33.6481 44.5829L31.9774 43.4835C31.5023 44.2054 31.0225 44.9252 30.5406 45.6479L32.2047 46.7574ZM29.896 50.2595C30.6512 49.0875 31.4255 47.9261 32.2047 46.7574L30.5406 45.6479C29.7628 46.8145 28.9799 47.9889 28.2148 49.1761L29.896 50.2595ZM23.0746 47.5621C24.6896 49.0446 26.6737 50.1382 28.8065 50.6863L29.3043 48.7493C27.4986 48.2852 25.8061 47.3546 24.427 46.0887L23.0746 47.5621ZM19.6405 34.0705C18.0645 38.7593 19.5241 44.1735 23.0603 47.5488L24.4412 46.102C21.4424 43.2397 20.218 38.6298 21.5363 34.7077L19.6405 34.0705ZM19.944 33.2512C19.8451 33.4703 19.684 33.8163 19.6082 34.1909L21.5685 34.5873C21.5915 34.4736 21.6479 34.3376 21.7669 34.0739L19.944 33.2512ZM20.1441 32.6288C20.1491 32.6399 20.1605 32.6569 20.1423 32.7412C20.1168 32.8585 20.0592 32.9958 19.944 33.2512L21.7669 34.0739C21.9405 33.6893 22.4055 32.7877 21.9703 31.8132L20.1441 32.6288ZM30.1618 33.3731C30.9798 33.0398 31.9271 33.0025 32.9969 33.0546L33.0942 31.057C31.9717 31.0023 30.6522 31.0136 29.4071 31.5209L30.1618 33.3731ZM27.6583 35.5402C28.3121 34.5514 29.1517 33.7573 30.1398 33.3817L29.4292 31.5122C27.9243 32.0843 26.7881 33.2302 25.9901 34.437L27.6583 35.5402ZM27.1193 39.2783C26.8192 37.9848 27.0076 36.6103 27.6783 35.5087L25.9701 34.4685C25.0046 36.0541 24.763 37.9712 25.1711 39.7303L27.1193 39.2783ZM29.207 42.2402C28.2123 41.5609 27.5042 40.4482 27.0961 39.1947L25.1943 39.8139C25.6948 41.351 26.6163 42.8929 28.0792 43.8918L29.207 42.2402ZM32.6826 43.0414C31.4608 43.2018 30.1866 42.9298 29.2188 42.2483L28.0674 43.8836C29.4924 44.887 31.2836 45.2422 32.9429 45.0244L32.6826 43.0414ZM35.8456 41.3335C34.9457 42.245 33.8514 42.8845 32.6798 43.0418L32.9458 45.024C34.6649 44.7933 36.1445 43.8774 37.2688 42.7387L35.8456 41.3335ZM37.0006 37.9434C37.0602 39.1492 36.5716 40.3841 35.7665 41.4239L37.3479 42.6483C38.3602 41.3407 39.0874 39.6492 38.9982 37.8446L37.0006 37.9434ZM35.7253 34.6646C36.4993 35.6561 37.0019 36.7743 36.9994 37.8917L38.9994 37.8963C39.0033 36.1811 38.2417 34.6381 37.3019 33.434L35.7253 34.6646ZM32.8362 33.0336C33.9938 33.2816 35.0532 33.8419 35.739 34.6818L37.2882 33.4168C36.2471 32.1419 34.7392 31.3958 33.255 31.078L32.8362 33.0336ZM30.9508 33.1652C29.5118 33.4736 28.2129 34.4382 27.5538 35.7994L29.354 36.671C29.7297 35.8948 30.5002 35.3072 31.3699 35.1208L30.9508 33.1652ZM36.8932 37.0684C36.3951 34.4277 33.5991 32.5175 30.923 33.1716L31.3978 35.1144C32.9157 34.7434 34.6336 35.8793 34.9278 37.439L36.8932 37.0684ZM33.4276 42.8444C35.8568 42.1532 37.4389 39.5055 36.8864 37.0354L34.9346 37.472C35.2551 38.9049 34.2923 40.519 32.8802 40.9208L33.4276 42.8444ZM28.3801 41.4968C29.6407 42.857 31.6755 43.4184 33.4648 42.833L32.843 40.9322C31.8159 41.2682 30.5913 40.9404 29.847 40.1374L28.3801 41.4968ZM27.5741 35.7597C26.5723 37.6135 26.9432 40.0262 28.3982 41.5158L29.829 40.1183C28.972 39.241 28.7575 37.7767 29.3336 36.7106L27.5741 35.7597Z" fill="url(#paint2_linear_54_1489)"/>
<defs>
<linearGradient id="paint0_linear_54_1489" x1="32" y1="55.5333" x2="32" y2="8.86666" gradientUnits="userSpaceOnUse">
<stop stop-color="#FDA700"/>
<stop offset="1" stop-color="#FFDE00"/>
</linearGradient>
<linearGradient id="paint1_linear_54_1489" x1="32" y1="51.9465" x2="32" y2="24" gradientUnits="userSpaceOnUse">
<stop stop-color="#FDA700"/>
<stop offset="1" stop-color="#FFDE00"/>
</linearGradient>
<linearGradient id="paint2_linear_54_1489" x1="32" y1="51.9465" x2="32" y2="24" gradientUnits="userSpaceOnUse">
<stop stop-color="#FDA700"/>
<stop offset="1" stop-color="#FFDE00"/>
</linearGradient>
</defs>
</svg>
