<svg width="16" height="16" viewBox="0 0 16 16" fill="none" xmlns="http://www.w3.org/2000/svg">
<path opacity="0.4" d="M9.57852 14.8267C11.7329 14.1089 13.4207 12.8794 14.3864 10.8907C14.8173 9.98367 14.9997 9.10194 15 7.92435C15.0003 6.73702 14.8244 5.97956 14.2977 4.89963C12.8125 2.18161 10.2394 0.912434 7.62736 1.00468C6.26861 1.05267 5.55935 1.24285 4.36504 1.85819C3.24566 2.43491 2.10821 3.5864 1.5941 4.66333C0.330427 7.31038 1.13579 9.91152 3.5051 10.8354C3.87246 10.9787 4.31984 11.0372 5.38989 11.0819C6.10056 11.0973 6.63899 10.9725 7.11562 11.4924C7.54749 11.9634 7.55986 12.4664 7.15454 13.0758C6.72988 13.7144 6.76599 14.5204 7.36416 14.8188C7.93037 15.1012 8.78565 15.0137 9.57852 14.8267Z" fill="url(#paint0_linear_81_123)"/>
<path fill-rule="evenodd" clip-rule="evenodd" d="M5.55 4.5C6.1299 4.5 6.6 4.0299 6.6 3.45C6.6 2.8701 6.1299 2.4 5.55 2.4C4.9701 2.4 4.5 2.8701 4.5 3.45C4.5 4.0299 4.9701 4.5 5.55 4.5ZM4.5 6.25C4.5 6.8299 4.0299 7.3 3.45 7.3C2.8701 7.3 2.4 6.8299 2.4 6.25C2.4 5.6701 2.8701 5.2 3.45 5.2C4.0299 5.2 4.5 5.6701 4.5 6.25ZM12.9 6.25C12.9 6.8299 12.4299 7.3 11.85 7.3C11.2701 7.3 10.8 6.8299 10.8 6.25C10.8 5.6701 11.2701 5.2 11.85 5.2C12.4299 5.2 12.9 5.6701 12.9 6.25ZM10.1 3.45C10.1 4.0299 9.6299 4.5 9.05 4.5C8.4701 4.5 8 4.0299 8 3.45C8 2.8701 8.4701 2.4 9.05 2.4C9.6299 2.4 10.1 2.8701 10.1 3.45ZM6.6 6.17754C6.97554 6.58321 7.38967 6.61566 7.76845 6.64533C8.10013 6.67132 8.4047 6.69518 8.63251 6.96564C8.86361 7.24001 8.8438 7.94418 8.8358 8.10798C8.9434 8.10109 9.02556 8.14975 9.12317 8.20757C9.15137 8.22427 9.18085 8.24173 9.2126 8.25884C10.5494 9.04456 12.2626 10.9914 14.3702 13.6607C14.7808 14.2492 14.54 14.6845 13.9559 14.287C11.9366 12.6873 10.0225 10.9866 8.38982 9.01514C8.38716 9.01162 8.38449 9.00811 8.38183 9.00459C8.28801 8.88079 8.19419 8.75699 8.24181 8.54906L8.25721 8.53539C6.68115 8.27623 6.64958 7.4112 6.61801 6.54617C6.6135 6.42271 6.609 6.29924 6.6 6.17754Z" fill="url(#paint1_linear_81_123)"/>
<defs>
<linearGradient id="paint0_linear_81_123" x1="13.9673" y1="-1.9331" x2="1.58744" y2="11.351" gradientUnits="userSpaceOnUse">
<stop stop-color="#FE7970"/>
<stop offset="1" stop-color="#D92B1A"/>
</linearGradient>
<linearGradient id="paint1_linear_81_123" x1="13.677" y1="-0.122607" x2="3.03917" y2="11.4202" gradientUnits="userSpaceOnUse">
<stop stop-color="#FE7970"/>
<stop offset="1" stop-color="#D92B1A"/>
</linearGradient>
</defs>
</svg>
