<svg width="128" height="128" viewBox="0 0 128 128" fill="none" xmlns="http://www.w3.org/2000/svg">
<path opacity="0.4" d="M64 8C33.2415 8 8 33.2415 8 64C8 94.7585 33.2415 120 64 120C94.7585 120 120 94.7585 120 64C120 33.2415 94.7585 8 64 8Z" fill="url(#paint0_linear_228_274)"/>
<path d="M99.5229 38.6523C99.5193 38.6523 99.516 38.6545 99.5149 38.6578L99.2919 39.2792C94.3773 52.9148 89.6805 65.8058 78.977 77.0279C78.7788 77.2357 78.6533 77.5044 78.6195 77.7897C77.7232 85.3592 74.2474 92.3947 68.7695 97.7082C67.2392 99.1648 65.2096 99.9805 63.097 99.988C60.949 99.988 58.8889 99.1347 57.37 97.6158C55.851 96.0968 54.9977 94.0367 54.9977 91.8887V87.8938C54.9977 87.3546 54.659 86.8772 54.1642 86.663C53.0835 86.195 52.0589 85.6077 51.1096 84.9121C50.5679 84.5152 49.8107 84.5399 49.336 85.015L44.6816 89.6719C43.8374 90.5161 42.6926 90.9902 41.4988 90.9902C40.3051 90.9902 39.1603 90.5161 38.3162 89.6719C37.472 88.8278 36.9978 87.6829 36.9978 86.4892C36.9978 85.2954 37.472 84.1505 38.3162 83.3064L42.994 78.6286C43.4615 78.1611 43.4932 77.4184 43.1128 76.8778C41.8882 75.138 41.0262 73.1691 40.5789 71.0887C40.4443 70.4629 39.9074 69.9905 39.2672 69.9905H36.0994C33.9512 69.9905 31.8911 69.1372 30.3722 67.6183C28.8533 66.0994 28 64.0393 28 61.8913C28.0083 59.7796 28.824 57.7512 30.2798 56.2217C33.4033 53.0304 37.1272 50.4886 41.2369 48.7423C45.2057 47.056 49.4587 46.1437 53.7671 46.0531C54.0643 46.0469 54.3523 45.9415 54.582 45.753C64.9201 37.2726 76.5228 33.0972 88.7239 28.6961L89.3477 28.4711C90.7683 27.9592 92.3053 27.8622 93.7789 28.1913C95.2526 28.5205 96.6022 29.2623 97.6699 30.3301C98.7377 31.3978 99.4794 32.7473 99.8087 34.221C100.137 35.6928 100.041 37.2276 99.531 38.6466C99.5297 38.65 99.5265 38.6523 99.5229 38.6523Z" fill="url(#paint1_linear_228_274)"/>
<defs>
<linearGradient id="paint0_linear_228_274" x1="6.38112" y1="9.10207" x2="121.844" y2="128.097" gradientUnits="userSpaceOnUse">
<stop stop-color="#F9D423"/>
<stop offset="0.515624" stop-color="#FF4E50"/>
<stop offset="0.991304" stop-color="#8A2387"/>
</linearGradient>
<linearGradient id="paint1_linear_228_274" x1="26.9593" y1="28.7084" x2="101.172" y2="105.205" gradientUnits="userSpaceOnUse">
<stop stop-color="#F9D423"/>
<stop offset="0.515624" stop-color="#FF4E50"/>
<stop offset="0.991304" stop-color="#8A2387"/>
</linearGradient>
</defs>
</svg>
