<svg width="16" height="16" viewBox="0 0 16 16" fill="none" xmlns="http://www.w3.org/2000/svg">
<g clip-path="url(#clip0_81_134)">
<path opacity="0.4" d="M16 8C16 3.58172 12.4183 0 8 0C3.58172 0 0 3.58172 0 8C0 12.4183 3.58172 16 8 16C12.4183 16 16 12.4183 16 8Z" fill="url(#paint0_linear_81_134)"/>
<path d="M8 1.4C8 1.17909 7.82072 0.998808 7.60017 1.01142C5.88942 1.10922 4.26845 1.83205 3.05025 3.05025C1.7375 4.36301 1 6.14348 1 8C1 9.85652 1.7375 11.637 3.05025 12.9497C4.36301 14.2625 6.14348 15 8 15C9.85652 15 11.637 14.2625 12.9497 12.9497C14.1679 11.7315 14.8908 10.1106 14.9886 8.39983C15.0012 8.17928 14.8209 8 14.6 8H14.2333C14.0124 8 13.8348 8.17933 13.8196 8.39972C13.7235 9.80079 13.1242 11.1254 12.1248 12.1248C11.0308 13.2188 9.5471 13.8333 8 13.8333C6.4529 13.8333 4.96917 13.2188 3.87521 12.1248C2.78125 11.0308 2.16667 9.5471 2.16667 8C2.16667 6.4529 2.78125 4.96917 3.87521 3.87521C4.87457 2.87585 6.19921 2.27654 7.60028 2.18037C7.82067 2.16524 8 1.98758 8 1.76667V1.4ZM8 3.73333C8 3.51242 7.82056 3.33155 7.60045 3.35046C6.50917 3.44419 5.48067 3.91967 4.70017 4.70017C3.825 5.57534 3.33333 6.76232 3.33333 8C3.33333 9.23768 3.825 10.4247 4.70017 11.2998C5.57534 12.175 6.76232 12.6667 8 12.6667C9.23768 12.6667 10.4247 12.175 11.2998 11.2998C12.0803 10.5193 12.5558 9.49083 12.6495 8.39955C12.6684 8.17945 12.4876 8 12.2667 8H11.9C11.6791 8 11.5024 8.17968 11.4772 8.39916C11.3875 9.18049 11.0365 9.91328 10.4749 10.4749C9.8185 11.1313 8.92826 11.5 8 11.5C7.07174 11.5 6.1815 11.1313 5.52513 10.4749C4.86875 9.8185 4.5 8.92826 4.5 8C4.5 7.07174 4.86875 6.1815 5.52513 5.52513C6.08672 4.96353 6.81951 4.61249 7.60084 4.52282C7.82032 4.49763 8 4.32091 8 4.1V3.73333ZM8 6.83333C7.69058 6.83333 7.39383 6.95625 7.17504 7.17504C6.95625 7.39383 6.83333 7.69058 6.83333 8C6.83333 8.30942 6.95625 8.60616 7.17504 8.82496C7.39383 9.04375 7.69058 9.16667 8 9.16667C8.30942 9.16667 8.60616 9.04375 8.82496 8.82496C9.04375 8.60616 9.16667 8.30942 9.16667 8C9.16667 7.69058 9.04375 7.39383 8.82496 7.17504C8.60616 6.95625 8.30942 6.83333 8 6.83333Z" fill="url(#paint1_linear_81_134)"/>
</g>
<defs>
<linearGradient id="paint0_linear_81_134" x1="8" y1="16" x2="8" y2="0" gradientUnits="userSpaceOnUse">
<stop stop-color="#5570FF"/>
<stop offset="1" stop-color="#4DD3FF"/>
</linearGradient>
<linearGradient id="paint1_linear_81_134" x1="8" y1="15" x2="8" y2="1" gradientUnits="userSpaceOnUse">
<stop stop-color="#5570FF"/>
<stop offset="1" stop-color="#4DD3FF"/>
</linearGradient>
<clipPath id="clip0_81_134">
<rect width="16" height="16" fill="white"/>
</clipPath>
</defs>
</svg>
