<svg width="128" height="128" viewBox="0 0 128 128" fill="none" xmlns="http://www.w3.org/2000/svg">
<circle opacity="0.4" cx="55" cy="55" r="42" fill="url(#paint0_linear_54_1409)"/>
<path d="M89.9927 12.6569L12.6569 89.9927C11.596 91.0536 11 92.4925 11 93.9928C11 95.4932 11.596 96.932 12.6569 97.9929L13.9903 99.3263C25.3065 110.643 40.6547 117 56.6583 117C72.6619 117 88.0101 110.643 99.3263 99.3263C110.643 88.0101 117 72.6619 117 56.6583C117 40.6547 110.643 25.3065 99.3263 13.9903L97.993 12.6569C96.9321 11.596 95.4932 11 93.9928 11C92.4925 11 91.0536 11.596 89.9927 12.6569ZM40.0062 81.8077C39.0026 81.1431 38.9166 79.7335 39.7678 78.8823L49.9456 68.7045C51.0342 67.6159 52.893 68.1139 53.2916 69.6009L57.252 84.375C57.5835 85.6117 56.6822 86.8398 55.4029 86.7877C49.9144 86.564 44.5885 84.8421 40.0062 81.8077ZM64.2216 66.671C63.8232 65.1839 65.1839 63.8232 66.671 64.2216L81.9573 68.3169C83.1436 68.6347 83.7694 69.94 83.1859 71.0207C80.4032 76.1738 76.1738 80.4032 71.0207 83.1859C69.94 83.7694 68.6347 83.1436 68.3169 81.9573L64.2216 66.671ZM86.7877 55.4029C86.8398 56.6822 85.6117 57.5835 84.375 57.252L69.6009 53.2916C68.1139 52.893 67.6159 51.0342 68.7045 49.9456L78.8823 39.7678C79.7335 38.9166 81.1431 39.0026 81.8077 40.0062C84.8421 44.5885 86.564 49.9144 86.7877 55.4029ZM91.3261 91.3261C82.5852 100.045 70.8804 105.151 58.5436 105.627C46.9288 106.074 35.5566 102.387 26.4324 95.2615C25.5132 94.5436 25.4622 93.1879 26.2869 92.3632L28.824 89.8261C29.5549 89.0952 30.7192 89.0461 31.5422 89.6714C39.2634 95.5375 48.8151 98.5256 58.54 98.0792C68.8737 97.6049 78.6574 93.2869 85.9722 85.9722C93.2869 78.6574 97.6049 68.8737 98.0792 58.54C98.5256 48.8151 95.5375 39.2634 89.6714 31.5422C89.0461 30.7192 89.0952 29.5549 89.8261 28.824L92.3632 26.2869C93.1879 25.4622 94.5436 25.5132 95.2615 26.4324C102.387 35.5566 106.074 46.9288 105.627 58.5436C105.151 70.8804 100.045 82.5852 91.3261 91.3261Z" fill="url(#paint1_linear_54_1409)"/>
<defs>
<linearGradient id="paint0_linear_54_1409" x1="93.1946" y1="14.4437" x2="16.4129" y2="95.1623" gradientUnits="userSpaceOnUse">
<stop stop-color="#D800BD"/>
<stop offset="0.408098" stop-color="#F92D7A"/>
<stop offset="0.590073" stop-color="#FF4A52"/>
<stop offset="1" stop-color="#FFB243"/>
</linearGradient>
<linearGradient id="paint1_linear_54_1409" x1="112.198" y1="12.8218" x2="15.3067" y2="114.681" gradientUnits="userSpaceOnUse">
<stop stop-color="#D800BD"/>
<stop offset="0.408098" stop-color="#F92D7A"/>
<stop offset="0.590073" stop-color="#FF4A52"/>
<stop offset="1" stop-color="#FFB243"/>
</linearGradient>
</defs>
</svg>
