<svg width="64" height="64" viewBox="0 0 64 64" fill="none" xmlns="http://www.w3.org/2000/svg">
<path d="M33.5819 20.2289C32.7112 19.4723 31.4171 19.4697 30.5433 20.2226L16.0302 32.729C15.059 33.5659 13.5933 33.4572 12.7561 32.4863L7.56349 26.464C6.7259 25.4926 6.83456 24.0262 7.80624 23.189L30.5808 3.56297C31.4547 2.80988 32.749 2.81265 33.6197 3.56949L56.2013 23.1986C57.1692 24.0399 57.2717 25.5063 56.4305 26.4742L51.2139 32.4754C50.3727 33.443 48.9065 33.5457 47.9386 32.7046L33.5819 20.2289Z" fill="url(#paint0_linear_80_369)"/>
<path opacity="0.4" d="M4.968 42.6897C3.87804 43.5246 3.66681 45.0895 4.54813 46.1424C12.3295 55.4388 21.6231 60.3309 32.1514 60.3309C42.7075 60.3309 51.9158 55.4129 59.4775 46.0711C60.3416 45.0035 60.1016 43.4418 58.996 42.6268L52.1425 37.5753C51.0375 36.761 49.4887 37.003 48.6105 38.058C43.6091 44.0655 38.2166 46.8448 32.1514 46.8448C26.0397 46.8448 20.4925 44.0194 15.263 37.9334C14.3683 36.8921 12.8145 36.6787 11.7247 37.5136L4.968 42.6897Z" fill="url(#paint1_linear_80_369)"/>
<defs>
<linearGradient id="paint0_linear_80_369" x1="31.954" y1="2.25116" x2="31.954" y2="67.2617" gradientUnits="userSpaceOnUse">
<stop stop-color="#DC18FC"/>
<stop offset="0.490205" stop-color="#765FFC"/>
</linearGradient>
<linearGradient id="paint1_linear_80_369" x1="31.9963" y1="-9.27553" x2="31.9963" y2="60.3309" gradientUnits="userSpaceOnUse">
<stop stop-color="#DC18FC"/>
<stop offset="0.490205" stop-color="#765FFC"/>
</linearGradient>
</defs>
</svg>
