<svg width="24" height="24" viewBox="0 0 24 24" fill="none" xmlns="http://www.w3.org/2000/svg">
<path opacity="0.5" d="M11.9 23C13.2 23 14.4874 22.744 15.6885 22.2465C16.8896 21.7489 17.981 21.0197 18.9003 20.1004C19.8196 19.1811 20.5488 18.0898 21.0463 16.8886C21.5438 15.6875 21.7999 14.4002 21.7999 13.1001C21.7999 11.8 21.5438 10.5127 21.0463 9.31154C20.5488 8.11042 19.8196 7.01906 18.9003 6.09976C17.981 5.18047 16.8896 4.45124 15.6885 3.95372C14.4874 3.4562 13.2 3.20013 11.9 3.20013C9.27432 3.20013 6.75623 4.24316 4.89963 6.09976C3.04303 7.95636 2 10.4745 2 13.1001C2 15.7257 3.04303 18.2438 4.89963 20.1004C6.75623 21.957 9.27432 23 11.9 23Z" fill="url(#paint0_linear_8_82)"/>
<path d="M8.59996 10.6251C8.38116 10.6251 8.17132 10.5382 8.0166 10.3835C7.86188 10.2287 7.77496 10.0189 7.77496 9.80009C7.77496 9.58129 7.86188 9.37145 8.0166 9.21673C8.17132 9.06202 8.38116 8.9751 8.59996 8.9751H15.1999C15.363 8.97524 15.5224 9.0237 15.6579 9.11437C15.7934 9.20503 15.8991 9.33382 15.9614 9.48448C16.0238 9.63514 16.0402 9.8009 16.0084 9.96084C15.9766 10.1208 15.8982 10.2677 15.7829 10.3831L10.591 15.5751H15.1999C15.4187 15.5751 15.6286 15.662 15.7833 15.8167C15.938 15.9714 16.0249 16.1813 16.0249 16.4001C16.0249 16.6189 15.938 16.8287 15.7833 16.9834C15.6286 17.1381 15.4187 17.2251 15.1999 17.2251H8.59996C8.4369 17.2249 8.27753 17.1765 8.142 17.0858C8.00646 16.9951 7.90083 16.8663 7.83845 16.7157C7.77606 16.565 7.75973 16.3993 7.7915 16.2393C7.82327 16.0794 7.90173 15.9324 8.01696 15.8171L13.2089 10.6251H8.59996Z" fill="url(#paint1_linear_8_82)"/>
<path fill-rule="evenodd" clip-rule="evenodd" d="M7.76396 1.3741C7.81974 1.46262 7.8574 1.56133 7.87477 1.66451C7.89213 1.76769 7.88885 1.87329 7.86511 1.97519C7.84138 2.07709 7.79766 2.17327 7.73649 2.25815C7.67532 2.34304 7.59791 2.41494 7.50876 2.4697L3.22868 5.12069C3.04805 5.23263 2.83057 5.26884 2.62341 5.22148C2.41626 5.17412 2.23612 5.047 2.12208 4.86769C2.0663 4.77917 2.02864 4.68046 2.01127 4.57728C1.99391 4.47411 1.99719 4.36851 2.02093 4.26661C2.04466 4.1647 2.08838 4.06853 2.14955 3.98364C2.21072 3.89876 2.28813 3.82685 2.37728 3.77209L6.65846 1.12111C6.83909 1.00917 7.05657 0.97295 7.26372 1.02031C7.47088 1.06767 7.65102 1.1948 7.76506 1.3741H7.76396ZM16.0359 1.3741C16.1499 1.1951 16.3299 1.06819 16.5368 1.02084C16.7437 0.97349 16.9609 1.00951 17.1414 1.12111L21.4226 3.77209C21.5117 3.82685 21.5892 3.89876 21.6503 3.98364C21.7115 4.06853 21.7552 4.1647 21.7789 4.26661C21.8027 4.36851 21.806 4.47411 21.7886 4.57728C21.7712 4.68046 21.7336 4.77917 21.6778 4.86769C21.5637 5.047 21.3836 5.17412 21.1765 5.22148C20.9693 5.26884 20.7518 5.23263 20.5712 5.12069L16.2911 2.4697C16.2019 2.41503 16.1244 2.34319 16.0631 2.25835C16.0018 2.1735 15.958 2.07734 15.9341 1.97543C15.9103 1.87353 15.9069 1.7679 15.9242 1.66468C15.9415 1.56146 15.9791 1.46269 16.0348 1.3741H16.0359Z" fill="url(#paint2_linear_8_82)"/>
<defs>
<linearGradient id="paint0_linear_8_82" x1="11.9" y1="23" x2="11.9" y2="3.20013" gradientUnits="userSpaceOnUse">
<stop stop-color="#5558FF"/>
<stop offset="1" stop-color="#00C0FF"/>
</linearGradient>
<linearGradient id="paint1_linear_8_82" x1="11.8999" y1="17.2251" x2="11.8999" y2="8.9751" gradientUnits="userSpaceOnUse">
<stop stop-color="#5558FF"/>
<stop offset="1" stop-color="#00C0FF"/>
</linearGradient>
<linearGradient id="paint2_linear_8_82" x1="11.8999" y1="5.24179" x2="11.8999" y2="1" gradientUnits="userSpaceOnUse">
<stop stop-color="#5558FF"/>
<stop offset="1" stop-color="#00C0FF"/>
</linearGradient>
</defs>
</svg>
