<svg width="128" height="128" viewBox="0 0 128 128" fill="none" xmlns="http://www.w3.org/2000/svg">
<path d="M8.0295 14.2761C7.65956 10.8943 10.8279 7.67317 14.2295 8.02664C27.6587 8.0346 41.0959 8.0346 54.5251 8.02664C57.5487 7.73747 60.8377 10.3481 60.6125 13.497C60.5964 22.084 60.6206 30.679 60.5963 39.2661C60.8778 41.2261 59.1328 42.5274 57.6372 43.3868C54.887 44.5596 51.4694 42.1257 51.5739 39.1696C51.5498 31.8519 51.5336 24.5339 51.598 17.2161C40.1229 17.184 28.6477 17.192 17.1726 17.2161C17.2208 28.6628 17.2289 40.1175 17.1646 51.5722C24.4662 51.6446 31.7759 51.508 39.0775 51.6285C41.9805 51.5964 44.3607 54.9782 43.1787 57.6772C42.3343 59.0829 41.128 60.7858 39.2625 60.5931C30.6581 60.6573 22.0538 60.6091 13.4495 60.6091C10.3053 60.8341 7.74005 57.5165 8.03759 54.5283C8.06168 41.1056 8.06168 27.6909 8.0295 14.2761Z" fill="url(#paint0_linear_69_345)"/>
<path opacity="0.4" d="M70.1641 8.37797C71.3083 7.93563 72.5727 8.04824 73.773 8C87.2413 8.0643 100.702 7.96782 114.162 8.05627C116.989 8.04824 119.397 10.6779 119.293 13.4684C119.325 27.421 119.35 41.3736 119.285 55.326C119.325 58.4061 116.321 60.9473 113.283 60.5935C99.5978 60.5854 85.9122 60.6337 72.2266 60.5774C69.3666 60.7302 66.7332 58.1809 66.7568 55.326C66.684 41.6228 66.7568 27.9196 66.7251 14.2163C66.4917 11.7796 67.8363 9.27862 70.1641 8.37797Z" fill="url(#paint1_linear_69_345)"/>
<path d="M87.3128 67.5091C96.5197 67.2871 105.743 67.3903 114.959 67.4538C116.599 68.984 119.365 70.1343 119.268 72.7285C119.325 86.7049 119.285 100.698 119.293 114.675C119.623 117.031 117.331 118.347 115.915 119.846C100.661 120.044 85.3899 120.061 70.1275 119.838C68.656 118.403 66.6373 116.959 66.7176 114.691C66.6859 106.21 66.7014 97.7308 66.7095 89.2512C66.6933 86.5781 69.4683 84.3097 72.1455 84.9446C74.3329 85.0715 75.853 87.2285 75.8449 89.2674C75.8847 96.4624 75.8449 103.649 75.853 110.843C87.3128 110.843 98.7631 110.851 110.222 110.836C110.222 99.564 110.174 88.2837 110.246 77.0122C103.17 76.9643 96.0933 77.0122 89.0164 76.996C85.9694 77.2821 83.0817 74.0219 84.1437 71.0951C84.7712 69.5797 86.267 68.7073 87.3128 67.5091Z" fill="url(#paint2_linear_69_345)"/>
<path opacity="0.4" d="M11.3071 67.8714C12.4834 67.3735 13.7967 67.4052 15.0457 67.3735C28.2111 67.4052 41.3766 67.3573 54.5421 67.3971C57.7569 67.0921 60.8186 69.8328 60.6011 73.0875C60.6253 86.7569 60.6091 100.427 60.6091 114.088C60.8589 117.078 58.3773 119.995 55.3156 119.963C41.3686 120.019 27.4135 120.003 13.4665 119.97C10.3563 120.075 7.74585 117.15 8.01977 114.104C8.01977 100.411 7.99562 86.7164 8.0359 73.0227C7.93922 70.8455 9.27667 68.7074 11.3071 67.8714Z" fill="url(#paint3_linear_69_345)"/>
<defs>
<linearGradient id="paint0_linear_69_345" x1="34.3133" y1="60.6265" x2="34.3133" y2="7.99999" gradientUnits="userSpaceOnUse">
<stop stop-color="#FD3A84"/>
<stop offset="1" stop-color="#FFA68D"/>
</linearGradient>
<linearGradient id="paint1_linear_69_345" x1="93.0114" y1="60.6265" x2="93.0114" y2="8" gradientUnits="userSpaceOnUse">
<stop stop-color="#02AA93"/>
<stop offset="1" stop-color="#67FF80"/>
</linearGradient>
<linearGradient id="paint2_linear_69_345" x1="93.0119" y1="120" x2="93.0119" y2="67.3735" gradientUnits="userSpaceOnUse">
<stop stop-color="#5570FF"/>
<stop offset="1" stop-color="#4DD3FF"/>
</linearGradient>
<linearGradient id="paint3_linear_69_345" x1="34.3132" y1="120" x2="34.3132" y2="67.3735" gradientUnits="userSpaceOnUse">
<stop stop-color="#FDA700"/>
<stop offset="1" stop-color="#FFDE00"/>
</linearGradient>
</defs>
</svg>
