<svg width="64" height="64" viewBox="0 0 64 64" fill="none" xmlns="http://www.w3.org/2000/svg">
<path opacity="0.4" d="M9.65608 34.4616L9.65755 34.4808V34.5C9.65755 46.9368 19.5176 57 31.6576 57C43.7868 57 52.8073 47.4478 52.8073 35C52.8073 29.1664 50.4321 23.6038 46.8487 18.3925C43.2655 13.1815 38.4987 8.35701 33.7698 4.00604C32.8138 3.1264 31.5494 2.98685 30.586 3.71978C27.587 6.00143 22.1198 10.9595 17.5152 16.7394C15.2138 19.6283 13.1384 22.7094 11.6935 25.7528C10.2464 28.801 9.44934 31.7745 9.65608 34.4616Z" fill="url(#paint0_linear_69_104)" stroke="url(#paint1_linear_69_104)"/>
<path fill-rule="evenodd" clip-rule="evenodd" d="M30.1555 5.83696C30.34 4.20882 32.477 3.40655 33.6533 4.50771C38.5388 9.33707 43.3705 14.2333 48.0831 19.2435C51.3313 22.3819 53.7413 26.4797 54.687 30.963C56.2053 37.0784 54.8638 43.7719 51.4543 48.9867C48.0372 54.052 42.8901 58.0516 36.936 59.3336C34.2068 60.2106 31.2971 60.0533 28.4872 59.8056C27.9463 59.6108 27.3879 59.4755 26.8298 59.3402C26.7454 59.3197 26.661 59.2993 26.5767 59.2786C20.046 57.7881 14.3341 53.1002 11.3705 46.9771C8.99875 42.0297 8.26845 36.17 9.81375 30.849C10.6824 27.2073 12.6005 23.8803 14.9914 21.0722C16.4521 19.8532 18.8275 21.3318 18.57 23.192C18.3837 24.0219 17.8576 24.6461 17.3295 25.2725C16.9968 25.6672 16.6633 26.0628 16.4136 26.5112C13.3155 31.2147 12.5814 37.4048 14.3687 42.7533C16.0331 47.8343 19.9691 52.0463 24.8124 54.0638C29.8556 56.2229 35.7867 55.8925 40.5992 53.2576C43.9818 51.3542 46.8493 48.4676 48.7328 45.0185C51.7464 39.4263 51.6387 32.2215 48.433 26.7393C47.0847 24.3372 45.1235 22.4407 43.1706 20.5521C42.5401 19.9424 41.9105 19.3336 41.3026 18.7088C40.2641 17.6302 39.2145 16.563 38.1649 15.4959C36.13 13.4269 34.0953 11.3582 32.1426 9.2073C31.9765 9.02764 31.7927 8.84897 31.6056 8.66714C30.8059 7.88972 29.9468 7.05449 30.1555 5.83696ZM25.3151 15.3335C25.3933 15.4155 25.4704 15.4963 25.5467 15.5743C27.1683 17.2761 28.8194 18.9483 30.4704 20.6203C33.0696 23.2525 35.6684 25.8844 38.1508 28.6309C39.7921 30.1253 41.073 32.0996 41.4266 34.3491C41.4957 35.4031 41.5103 36.4689 41.4642 37.5267C40.6723 42.7808 35.1487 46.8629 30.0325 45.6477C27.3649 44.755 24.8203 43.0286 23.6479 40.3308C22.6638 38.4548 22.6639 36.2446 22.9484 34.1956C23.2675 32.7602 23.917 31.0456 25.4354 30.5933C26.8998 30.2748 28.3413 31.8715 27.9492 33.3423C27.8701 33.5486 27.7819 33.7533 27.6933 33.9584C27.3904 34.6603 27.0855 35.3668 27.142 36.1581C26.9768 38.2739 28.4219 40.2678 30.3362 40.9639C33.542 42.3757 37.5703 39.2374 37.1783 35.7137C37.2112 33.8075 35.8624 32.5103 34.5759 31.2731C34.2115 30.9226 33.8521 30.577 33.5306 30.2237C31.341 27.7994 29.0494 25.4725 26.7584 23.1462C25.5745 21.944 24.3908 20.7419 23.2213 19.5267C22.9946 19.2777 22.7517 19.0407 22.5086 18.8035C21.9644 18.2725 21.4187 17.7401 21.0494 17.0688C20.419 15.7867 21.3302 14.0602 22.7409 13.9579C23.8297 13.7776 24.6168 14.6022 25.3151 15.3335Z" fill="url(#paint2_linear_69_104)" stroke="url(#paint3_linear_69_104)" stroke-width="2"/>
<defs>
<linearGradient id="paint0_linear_69_104" x1="13.5421" y1="0.00955124" x2="61.2975" y2="43.4189" gradientUnits="userSpaceOnUse">
<stop stop-color="#FB457A"/>
<stop offset="1" stop-color="#A500FF"/>
</linearGradient>
<linearGradient id="paint1_linear_69_104" x1="13.5421" y1="0.00955124" x2="61.2975" y2="43.4189" gradientUnits="userSpaceOnUse">
<stop stop-color="#FB457A"/>
<stop offset="1" stop-color="#A500FF"/>
</linearGradient>
<linearGradient id="paint2_linear_69_104" x1="13.6307" y1="1.2" x2="62.573" y2="46.7883" gradientUnits="userSpaceOnUse">
<stop stop-color="#FB457A"/>
<stop offset="1" stop-color="#A500FF"/>
</linearGradient>
<linearGradient id="paint3_linear_69_104" x1="13.6307" y1="1.2" x2="62.573" y2="46.7883" gradientUnits="userSpaceOnUse">
<stop stop-color="#FB457A"/>
<stop offset="1" stop-color="#A500FF"/>
</linearGradient>
</defs>
</svg>
