<svg width="32" height="32" viewBox="0 0 32 32" fill="none" xmlns="http://www.w3.org/2000/svg">
<path opacity="0.5" d="M5.00006 12.511C5.00006 6.154 10.0371 1 16.2501 1C22.4631 1 27.5001 6.154 27.5001 12.511C27.5055 14.1231 27.175 15.7186 26.5296 17.1959C25.8842 18.6731 24.9381 19.9997 23.7516 21.091C22.9866 21.7915 22.4181 22.312 22.0161 22.69C21.8124 22.8812 21.6124 23.0763 21.4161 23.275L21.3786 23.3155L21.3666 23.3305C21.0111 23.7775 20.9346 23.893 20.8896 23.998C20.8446 24.103 20.8101 24.238 20.7201 24.808C20.6856 25.033 20.6811 25.417 20.6811 26.4655V26.5105C20.6811 27.124 20.6811 27.6535 20.6436 28.087C20.6031 28.546 20.5131 29.002 20.2716 29.4295C20.0042 29.9052 19.6161 30.302 19.1466 30.58C18.7296 30.8275 18.2841 30.919 17.8356 30.961C17.4111 31 16.8936 31 16.2936 31H16.2066C15.6066 31 15.0891 31 14.6646 30.961C14.2146 30.919 13.7706 30.826 13.3521 30.58C12.883 30.3018 12.4955 29.905 12.2286 29.4295C11.9886 29.002 11.8986 28.5475 11.8566 28.087C11.8176 27.652 11.8176 27.124 11.8176 26.5105V26.4655C11.8176 25.417 11.8146 25.033 11.7786 24.808C11.6886 24.238 11.6571 24.103 11.6106 23.998C11.5656 23.893 11.4891 23.7775 11.1336 23.329L11.1216 23.314C10.9133 23.1013 10.7007 22.8927 10.4841 22.6885C10.0821 22.3135 9.51356 21.7915 8.74856 21.0895C7.56222 19.9984 6.61621 18.672 5.97082 17.195C5.32543 15.7181 4.99482 14.1228 5.00006 12.511Z" fill="url(#paint0_linear_273_99)"/>
<path fill-rule="evenodd" clip-rule="evenodd" d="M18.0722 6.26074C18.0722 6.26137 18.0725 6.26197 18.073 6.26234C18.6884 6.71207 18.8306 7.58659 18.3913 8.21448L17.1244 10.0299C16.6618 10.6928 17.1361 11.6022 17.9444 11.6022H18.8408C19.0939 11.6034 19.3417 11.675 19.5565 11.809C19.7713 11.9429 19.9446 12.134 20.057 12.3608C20.1724 12.5901 20.2238 12.8463 20.2058 13.1024C20.1878 13.3584 20.101 13.6049 19.9547 13.8158L16.0452 19.4131C15.9431 19.5622 15.8122 19.6892 15.6602 19.7867C15.5082 19.8842 15.3381 19.9501 15.1601 19.9806C14.9821 20.0111 14.7998 20.0056 14.6239 19.9643C14.4481 19.923 14.2824 19.8468 14.1366 19.7403C13.84 19.5201 13.6408 19.1931 13.5813 18.8286C13.5217 18.464 13.6064 18.0907 13.8175 17.7875L15.0844 15.9721C15.547 15.3092 15.0727 14.3998 14.2644 14.3998H13.3679C13.1146 14.3984 12.8666 14.3265 12.6518 14.1922C12.437 14.0579 12.2639 13.8664 12.1517 13.6392C12.0367 13.4101 11.9855 13.1543 12.0035 12.8987C12.0215 12.643 12.1081 12.3969 12.2541 12.1862L16.1636 6.58686C16.2656 6.43783 16.3965 6.31081 16.5485 6.21333C16.7006 6.11585 16.8706 6.04989 17.0486 6.01938C17.2266 5.98887 17.409 5.99443 17.5848 6.03571C17.7603 6.07693 17.9257 6.1529 18.0714 6.25914C18.0719 6.25951 18.0722 6.26011 18.0722 6.26074V6.26074ZM13.8936 27.8997C13.8744 27.6885 14.0481 27.5127 14.2602 27.5127H18.2398C18.452 27.5127 18.6245 27.6884 18.6051 27.8997V27.8997C18.5781 28.2132 18.5301 28.3272 18.5001 28.3842C18.411 28.543 18.2817 28.6754 18.1251 28.7682C18.0696 28.7997 17.9571 28.8477 17.6511 28.8777C17.3301 28.9077 16.9056 28.9077 16.2502 28.9077H16.2501C15.5931 28.9077 15.1701 28.9062 14.8491 28.8762C14.5416 28.8492 14.4306 28.7997 14.3751 28.7682C14.2185 28.6754 14.0891 28.543 14.0001 28.3842C13.9686 28.3272 13.9206 28.2147 13.8936 27.8997V27.8997Z" fill="url(#paint1_linear_273_99)"/>
<defs>
<linearGradient id="paint0_linear_273_99" x1="16.2501" y1="31" x2="16.2501" y2="1" gradientUnits="userSpaceOnUse">
<stop stop-color="#5570FF"/>
<stop offset="1" stop-color="#4DD3FF"/>
</linearGradient>
<linearGradient id="paint1_linear_273_99" x1="16.1047" y1="28.9077" x2="16.1047" y2="6" gradientUnits="userSpaceOnUse">
<stop stop-color="#5570FF"/>
<stop offset="1" stop-color="#4DD3FF"/>
</linearGradient>
</defs>
</svg>
