<svg width="24" height="24" viewBox="0 0 24 24" fill="none" xmlns="http://www.w3.org/2000/svg">
<path d="M18.6006 7.60067C18.6006 9.35128 17.9052 11.0302 16.6673 12.2681C15.4295 13.5059 13.7506 14.2013 12 14.2013C10.2494 14.2013 8.57045 13.5059 7.33259 12.2681C6.09472 11.0302 5.39929 9.35128 5.39929 7.60067C5.39929 5.85007 6.09472 4.17116 7.33259 2.93329C8.57045 1.69543 10.2494 1 12 1C13.7506 1 15.4295 1.69543 16.6673 2.93329C17.9052 4.17116 18.6006 5.85007 18.6006 7.60067Z" fill="url(#paint0_linear_8_1017)"/>
<path opacity="0.7" d="M13.7382 13.9703C12.1707 14.3979 10.5005 14.2326 9.0473 13.506C7.59405 12.7794 6.45973 11.5425 5.86137 10.0319C4.57213 10.384 3.42016 11.1193 2.55782 12.1403C1.69549 13.1614 1.16343 14.4202 1.032 15.7502C0.900571 17.0802 1.17598 18.4187 1.82179 19.5888C2.4676 20.7589 3.45338 21.7054 4.64877 22.3031C5.84415 22.9008 7.19281 23.1215 8.51637 22.9361C9.83993 22.7507 11.076 22.1679 12.0612 21.2647C13.0463 20.3616 13.7341 19.1807 14.0335 17.8782C14.333 16.5757 14.23 15.213 13.7382 13.9703Z" fill="url(#paint1_linear_8_1017)"/>
<path opacity="0.4" d="M13.7382 13.9703C14.0363 14.7227 14.2002 15.5434 14.2002 16.4015C14.2012 17.3303 14.0057 18.2489 13.6265 19.0968C13.2473 19.9447 12.693 20.7028 12 21.3212C12.7423 21.9843 13.6249 22.471 14.5819 22.7448C15.5389 23.0186 16.5453 23.0724 17.5261 22.9023C18.5068 22.7321 19.4363 22.3423 20.245 21.7621C21.0538 21.1819 21.7209 20.4264 22.1964 19.5519C22.6719 18.6775 22.9434 17.7068 22.9908 16.7126C23.0381 15.7183 22.8599 14.7263 22.4697 13.8106C22.0794 12.895 21.4871 12.0795 20.737 11.4251C19.987 10.7707 19.0987 10.2944 18.1386 10.0319C17.7603 10.9843 17.1659 11.8358 16.4022 12.5193C15.6386 13.2027 14.7266 13.6995 13.7382 13.9703Z" fill="url(#paint2_linear_8_1017)"/>
<defs>
<linearGradient id="paint0_linear_8_1017" x1="12" y1="1" x2="12" y2="14.2013" gradientUnits="userSpaceOnUse">
<stop stop-color="#DC18FC"/>
<stop offset="1" stop-color="#8E1EFF"/>
</linearGradient>
<linearGradient id="paint1_linear_8_1017" x1="14.1622" y1="10.1141" x2="1.29688" y2="23.1018" gradientUnits="userSpaceOnUse">
<stop stop-color="#FE7970"/>
<stop offset="1" stop-color="#DC3282"/>
</linearGradient>
<linearGradient id="paint2_linear_8_1017" x1="17.4991" y1="22.9994" x2="17.4991" y2="10.0319" gradientUnits="userSpaceOnUse">
<stop stop-color="#5570FF"/>
<stop offset="1" stop-color="#4DD3FF"/>
</linearGradient>
</defs>
</svg>
