<svg width="24" height="24" viewBox="0 0 24 24" fill="none" xmlns="http://www.w3.org/2000/svg">
<path opacity="0.5" d="M3.98208 13.6257C3.48142 14.1264 3.23109 14.3767 3.07189 14.6764C2.96614 14.8763 2.89101 15.091 2.849 15.3132C2.78532 15.647 2.82485 15.9983 2.9028 16.7021L2.96099 17.2247C2.98295 17.4169 2.99284 17.5124 2.99503 17.6046C3.01131 18.1628 2.82045 18.7072 2.45923 19.133C2.37459 19.2278 2.28633 19.3194 2.19463 19.4075L1.50402 20.0992C1.34497 20.2562 1.21856 20.4432 1.13206 20.6494C1.04556 20.8555 1.00068 21.0767 1.00001 21.3002C0.999336 21.5238 1.04288 21.7452 1.12814 21.9519C1.2134 22.1585 1.33869 22.3463 1.49679 22.5043C1.6549 22.6623 1.8427 22.7875 2.04938 22.8727C2.25607 22.9579 2.47756 23.0013 2.7011 23.0005C2.92464 22.9998 3.14582 22.9548 3.35191 22.8682C3.558 22.7816 3.74493 22.6551 3.90193 22.496L4.59144 21.8054C4.72868 21.6692 4.79676 21.6001 4.86593 21.5419C5.29303 21.1795 5.83761 20.9885 6.39536 21.0039C6.48759 21.0072 6.58311 21.0181 6.77525 21.039L7.29787 21.0972C8.00056 21.1752 8.353 21.2147 8.68677 21.1521C8.90876 21.1086 9.12326 21.0332 9.32358 20.9281C9.62332 20.7689 9.87365 20.5186 10.3743 20.0179L11.9543 18.438L13.1181 17.2742L14.1501 16.2421L15.314 15.0783L17.6471 12.7451L11.2549 6.35291L3.98208 13.6257Z" fill="url(#paint0_linear_8_737)"/>
<path fill-rule="evenodd" clip-rule="evenodd" d="M11.2549 6.3529L10.0559 5.15395C9.89685 4.99687 9.77044 4.80988 9.68394 4.60376C9.59744 4.39763 9.55256 4.17642 9.55189 3.95288C9.55122 3.72934 9.59476 3.50787 9.68002 3.30123C9.76528 3.09458 9.89057 2.90684 10.0487 2.74881C10.2068 2.59078 10.3946 2.46557 10.6013 2.38041C10.8079 2.29524 11.0294 2.2518 11.253 2.25257C11.4765 2.25335 11.6977 2.29833 11.9038 2.38492C12.1099 2.47151 12.2968 2.59801 12.4538 2.75714L12.945 3.24792C13.3354 3.63795 13.968 3.63803 14.3585 3.24809L15.2503 2.35749C15.6684 1.93055 16.167 1.59075 16.7173 1.35775C17.2676 1.12476 17.8586 1.00318 18.4562 1.00006C19.0537 0.996943 19.646 1.11234 20.1987 1.33958C20.7514 1.56682 21.2535 1.9014 21.676 2.32395C22.0986 2.7465 22.4332 3.24864 22.6604 3.80132C22.8877 4.354 23.0031 4.94626 22.9999 5.54383C22.9968 6.1414 22.8752 6.73242 22.6422 7.2827C22.4092 7.83298 22.0694 8.3316 21.6425 8.74972L20.7516 9.64122C20.3613 10.0318 20.3614 10.6648 20.7519 11.0552L21.2429 11.5462C21.5574 11.8647 21.7333 12.2948 21.7319 12.7425C21.7306 13.1902 21.5522 13.6192 21.2357 13.9358C20.9192 14.2525 20.4903 14.431 20.0426 14.4326C19.5949 14.4341 19.1647 14.2585 18.846 13.9441L17.6471 12.7451L11.2549 6.3529ZM14.732 15.6603C14.4106 15.9816 13.8895 15.9818 13.568 15.6606L12.1145 14.2087C11.9599 14.0544 11.874 13.8449 11.8738 13.6265C11.8736 13.408 11.9602 13.1984 12.1145 13.0438C12.2689 12.8892 12.4783 12.8022 12.6968 12.802C12.9152 12.8018 13.1248 12.8883 13.2795 13.0427L14.7321 14.4961C15.0535 14.8177 15.0534 15.3388 14.732 15.6603V15.6603ZM12.5361 17.8561C12.2147 18.1775 11.6937 18.1777 11.3721 17.8565L9.91865 16.4046C9.76403 16.2502 9.67815 16.0408 9.67794 15.8223C9.67774 15.6039 9.76432 15.3943 9.91865 15.2397C10.073 15.085 10.2824 14.9981 10.5009 14.9979C10.7194 14.9976 10.9289 15.0842 11.0836 15.2386L12.5362 16.692C12.8576 17.0135 12.8575 17.5347 12.5361 17.8561V17.8561Z" fill="url(#paint1_linear_8_737)"/>
<defs>
<linearGradient id="paint0_linear_8_737" x1="1.00244" y1="14.4301" x2="17.6499" y2="14.4301" gradientUnits="userSpaceOnUse">
<stop stop-color="#A93AFF"/>
<stop offset="1" stop-color="#FF81FF"/>
</linearGradient>
<linearGradient id="paint1_linear_8_737" x1="9.55385" y1="9.29531" x2="23.0022" y2="9.29531" gradientUnits="userSpaceOnUse">
<stop stop-color="#A93AFF"/>
<stop offset="1" stop-color="#FF81FF"/>
</linearGradient>
</defs>
</svg>
