<svg width="24" height="24" viewBox="0 0 24 24" fill="none" xmlns="http://www.w3.org/2000/svg">
<path d="M6.76859 18.6H20.6C20.5967 19.623 20.5758 20.3853 20.4757 20.987C20.3547 21.7053 20.1347 22.0848 19.7981 22.3554C19.4604 22.626 18.9874 22.8031 18.0931 22.8988C17.1724 22.9978 15.9525 23 14.2035 23H9.33049C7.58149 23 6.36049 22.9989 5.44089 22.8988C4.54659 22.8031 4.07359 22.626 3.73589 22.3554C3.39929 22.0848 3.17929 21.7053 3.05829 20.9881C3.04942 20.9328 3.04135 20.8775 3.03409 20.822C2.99009 20.5019 2.96809 20.3413 3.10669 19.964C3.24639 19.5856 3.30579 19.5273 3.42679 19.4085C3.81969 19.036 4.30956 18.7817 4.84029 18.6748C5.15929 18.6066 5.57729 18.6 6.76859 18.6Z" fill="url(#paint0_linear_8_162)"/>
<path opacity="0.5" d="M3.7997 1.8063C4.1363 1.4675 4.6071 1.2475 5.4981 1.1265C6.4155 1.0022 7.6299 1 9.3723 1H14.2277C15.9701 1 17.1845 1.0022 18.1019 1.1265C18.9929 1.2475 19.4637 1.4675 19.8003 1.8063C20.1358 2.1451 20.3547 2.6203 20.4746 3.519C20.5978 4.443 20.6 5.6695 20.6 7.4262V18.6H6.7686C5.5762 18.6 5.1604 18.6066 4.8403 18.6748C4.276 18.7958 3.7843 19.0565 3.4268 19.4085C3.3058 19.5273 3.2464 19.5856 3.1067 19.964C3.04003 20.1246 3.00384 20.2962 3 20.47V7.4262C3 5.6695 3.0022 4.4441 3.1254 3.519C3.2453 2.6214 3.4642 2.1451 3.7997 1.8063Z" fill="url(#paint1_linear_8_162)"/>
<path d="M6.57501 6.49999C6.57501 6.28118 6.66193 6.07134 6.81665 5.91662C6.97137 5.76191 7.18121 5.67499 7.40001 5.67499H16.2C16.4188 5.67499 16.6287 5.76191 16.7834 5.91662C16.9381 6.07134 17.025 6.28118 17.025 6.49999C17.025 6.71879 16.9381 6.92863 16.7834 7.08335C16.6287 7.23807 16.4188 7.32499 16.2 7.32499H7.40001C7.18121 7.32499 6.97137 7.23807 6.81665 7.08335C6.66193 6.92863 6.57501 6.71879 6.57501 6.49999ZM7.40001 9.52499C7.18121 9.52499 6.97137 9.61191 6.81665 9.76663C6.66193 9.92134 6.57501 10.1312 6.57501 10.35C6.57501 10.5688 6.66193 10.7786 6.81665 10.9334C6.97137 11.0881 7.18121 11.175 7.40001 11.175H12.9C13.1188 11.175 13.3287 11.0881 13.4834 10.9334C13.6381 10.7786 13.725 10.5688 13.725 10.35C13.725 10.1312 13.6381 9.92134 13.4834 9.76663C13.3287 9.61191 13.1188 9.52499 12.9 9.52499H7.40001Z" fill="url(#paint2_linear_8_162)"/>
<defs>
<linearGradient id="paint0_linear_8_162" x1="11.8003" y1="23" x2="11.8003" y2="18.6" gradientUnits="userSpaceOnUse">
<stop stop-color="#FDA700"/>
<stop offset="1" stop-color="#FFDE00"/>
</linearGradient>
<linearGradient id="paint1_linear_8_162" x1="11.8" y1="20.47" x2="11.8" y2="1" gradientUnits="userSpaceOnUse">
<stop stop-color="#FDA700"/>
<stop offset="1" stop-color="#FFDE00"/>
</linearGradient>
<linearGradient id="paint2_linear_8_162" x1="11.8" y1="11.175" x2="11.8" y2="5.67499" gradientUnits="userSpaceOnUse">
<stop stop-color="#FDA700"/>
<stop offset="1" stop-color="#FFDE00"/>
</linearGradient>
</defs>
</svg>
