<svg width="48" height="48" viewBox="0 0 48 48" fill="none" xmlns="http://www.w3.org/2000/svg">
<path opacity="0.4" d="M24 46C36.1506 46 46 36.1506 46 24C46 11.8494 36.1506 2 24 2C11.8494 2 2 11.8494 2 24C2 36.1506 11.8494 46 24 46Z" fill="#FF007F"/>
<path fill-rule="evenodd" clip-rule="evenodd" d="M27.3 11C28.4046 11 29.3 11.8954 29.3 13V25.0859C29.3001 25.0906 29.3001 25.0953 29.3001 25.1001V29.8675C29.3001 33.4963 25.9564 35.9001 22.5481 35.9001H18.8521C15.4434 35.9001 12.1001 33.4949 12.1001 29.8675V29.1327C12.1001 25.5039 15.4438 23.1001 18.8521 23.1001H25.3V13C25.3 11.8954 26.1955 11 27.3 11Z" fill="#FF007F"/>
<path fill-rule="evenodd" clip-rule="evenodd" d="M25.3272 12.6713C25.5088 11.5817 26.5393 10.8457 27.6288 11.0273L34.2288 12.1273C35.3183 12.3089 36.0544 13.3393 35.8728 14.4289C35.6912 15.5184 34.6607 16.2544 33.5712 16.0729L26.9712 14.9729C25.8817 14.7913 25.1456 13.7608 25.3272 12.6713Z" fill="#FF007F"/>
</svg>
