<svg width="64" height="64" viewBox="0 0 64 64" fill="none" xmlns="http://www.w3.org/2000/svg">
<path opacity="0.4" d="M32.0006 4.00048C16.5371 4.00048 4 16.5371 4 32.0011C4.00333 41.6281 8.9427 50.5052 16.9531 55.6067C18.1212 56.3506 19.6015 55.5615 19.7679 54.1865L21.0915 43.2491C21.1634 42.6549 20.9592 42.0648 20.5738 41.6068C18.3168 38.9243 17.0683 35.5247 17.0666 32.0009C17.0666 23.754 23.7531 17.0675 32 17.0675C40.2469 17.0675 46.9334 23.754 46.9334 32.0009C46.9265 35.5208 45.678 38.915 43.423 41.5936C43.0373 42.0516 42.833 42.6421 42.905 43.2366L44.2282 54.1627C44.3946 55.5374 45.8748 56.3265 47.043 55.5827C55.0471 50.4863 59.9881 41.6205 60.0001 32.0006C60.0001 16.5371 47.4635 4 31.9995 4" fill="url(#paint0_linear_80_471)"/>
<path d="M32.0006 22.6669C29.5252 22.6669 27.1512 23.6502 25.4009 25.4006C23.6505 27.1509 22.6672 29.5249 22.6672 32.0003C22.6693 33.5972 23.0811 35.1669 23.8632 36.5592C24.4345 37.5761 25.1894 38.4736 26.0859 39.2081C26.6921 39.7047 27.0735 40.4517 26.9789 41.2297L25.0231 57.3094C24.9031 58.2965 25.5252 59.2297 26.4993 59.4295C28.3084 59.8004 30.1511 59.9918 32.0006 59.9999C33.8467 59.9962 35.6865 59.8098 37.4932 59.4445C38.4696 59.2471 39.0944 58.3128 38.9744 57.3239L37.0219 41.2289C36.9276 40.4511 37.3089 39.7044 37.915 39.208C38.8117 38.4735 39.5668 37.5758 40.138 36.5587C40.9201 35.1665 41.3319 33.5968 41.334 31.9999C41.334 29.5245 40.3507 27.1505 38.6003 25.4002C36.85 23.6498 34.476 22.6669 32.0006 22.6669Z" fill="url(#paint1_linear_80_471)"/>
<defs>
<linearGradient id="paint0_linear_80_471" x1="32" y1="57.0107" x2="32" y2="4" gradientUnits="userSpaceOnUse">
<stop stop-color="#FDA700"/>
<stop offset="1" stop-color="#FFDE00"/>
</linearGradient>
<linearGradient id="paint1_linear_80_471" x1="32.0006" y1="59.9999" x2="32.0006" y2="22.6665" gradientUnits="userSpaceOnUse">
<stop stop-color="#FDA700"/>
<stop offset="1" stop-color="#FFDE00"/>
</linearGradient>
</defs>
</svg>
