<svg width="128" height="128" viewBox="0 0 128 128" fill="none" xmlns="http://www.w3.org/2000/svg">
<rect opacity="0.4" x="36" y="6" width="83" height="116" rx="12" fill="url(#paint0_linear_80_296)"/>
<path fill-rule="evenodd" clip-rule="evenodd" d="M72.1788 40.1784C72.1788 39.0343 73.2607 38.1069 74.5955 38.1069H98.7621C100.097 38.1069 101.179 39.0343 101.179 40.1784V46.3926C101.179 47.5367 100.097 48.4641 98.7621 48.4641H74.5955C73.2607 48.4641 72.1788 47.5367 72.1788 46.3926V40.1784ZM74.5953 58.8214C73.2605 58.8214 72.1787 59.7488 72.1787 60.8929V67.1071C72.1787 68.2513 73.2605 69.1786 74.5953 69.1786H98.762C100.097 69.1786 101.179 68.2513 101.179 67.1071V60.8929C101.179 59.7488 100.097 58.8214 98.762 58.8214H74.5953ZM72.1787 81.6071C72.1787 80.463 73.2605 79.5357 74.5953 79.5357H98.762C100.097 79.5357 101.179 80.463 101.179 81.6071V87.8214C101.179 88.9655 100.097 89.8929 98.762 89.8929H74.5953C73.2605 89.8929 72.1787 88.9655 72.1787 87.8214V81.6071Z" fill="url(#paint1_linear_80_296)"/>
<path fill-rule="evenodd" clip-rule="evenodd" d="M28.9749 54.01C28.9749 55.1146 28.0795 56.01 26.9749 56.01H15.9911C12.13 56.01 9 59.5872 9 63.9998C9 68.4125 12.13 71.9896 15.9911 71.9896H26.9749C28.0795 71.9896 28.9749 72.8851 28.9749 73.9896V84.9731C28.9749 88.8342 32.5521 91.9642 36.9647 91.9642C41.3774 91.9642 44.9545 88.8342 44.9545 84.9731V73.9896C44.9545 72.8851 45.8499 71.9896 46.9545 71.9896H57.9375C61.7986 71.9896 64.9286 68.4125 64.9286 63.9998C64.9286 59.5872 61.7986 56.01 57.9375 56.01H46.9545C45.8499 56.01 44.9545 55.1146 44.9545 54.01V43.0267C44.9545 39.1656 41.3774 36.0356 36.9647 36.0356C32.5521 36.0356 28.9749 39.1656 28.9749 43.0267V54.01ZM74.5955 37.1069C72.8585 37.1069 71.1788 38.343 71.1788 40.1784V46.3926C71.1788 48.228 72.8585 49.4641 74.5955 49.4641H98.7621C100.499 49.4641 102.179 48.228 102.179 46.3926V40.1784C102.179 38.343 100.499 37.1069 98.7621 37.1069H74.5955ZM74.5953 57.8214C72.8584 57.8214 71.1787 59.0575 71.1787 60.8929V67.1071C71.1787 68.9426 72.8584 70.1786 74.5953 70.1786H98.762C100.499 70.1786 102.179 68.9426 102.179 67.1071V60.8929C102.179 59.0575 100.499 57.8214 98.762 57.8214H74.5953ZM74.5953 78.5357C72.8584 78.5357 71.1787 79.7717 71.1787 81.6071V87.8214C71.1787 89.6569 72.8584 90.8929 74.5953 90.8929H98.762C100.499 90.8929 102.179 89.6569 102.179 87.8214V81.6071C102.179 79.7717 100.499 78.5357 98.762 78.5357H74.5953Z" fill="url(#paint2_linear_80_296)"/>
<defs>
<linearGradient id="paint0_linear_80_296" x1="60.9094" y1="122" x2="60.9094" y2="5.99999" gradientUnits="userSpaceOnUse">
<stop stop-color="#02AA93"/>
<stop offset="1" stop-color="#67FF80"/>
</linearGradient>
<linearGradient id="paint1_linear_80_296" x1="86.6788" y1="89.8926" x2="86.6788" y2="38.1069" gradientUnits="userSpaceOnUse">
<stop stop-color="#02AA93"/>
<stop offset="1" stop-color="#67FF80"/>
</linearGradient>
<linearGradient id="paint2_linear_80_296" x1="36.9642" y1="91.9645" x2="36.9642" y2="36.0356" gradientUnits="userSpaceOnUse">
<stop stop-color="#02AA93"/>
<stop offset="1" stop-color="#67FF80"/>
</linearGradient>
</defs>
</svg>
