<svg width="32" height="32" viewBox="0 0 32 32" fill="none" xmlns="http://www.w3.org/2000/svg">
<path opacity="0.4" d="M25.3783 16.4362C25.3783 22.8921 20.1451 28.1254 13.6891 28.1254C7.23323 28.1254 2 22.8921 2 16.4362C2 9.98032 7.23323 4.74709 13.6891 4.74709C20.1451 4.74709 25.3783 9.98032 25.3783 16.4362Z" fill="url(#paint0_linear_287_210)"/>
<path d="M29.4382 4.43637C29.798 4.79653 30 5.28475 30 5.79377C30 6.3028 29.798 6.79101 29.4382 7.15117L16.6325 19.9568C16.2724 20.3164 15.7843 20.5186 15.2752 20.5186C14.7662 20.5186 14.278 20.3164 13.9178 19.9568L8.79558 14.8345C8.60685 14.6587 8.45549 14.4465 8.3505 14.2109C8.24551 13.9753 8.18907 13.721 8.1845 13.4632C8.17996 13.2052 8.22741 12.9491 8.32401 12.7098C8.42062 12.4706 8.56441 12.2533 8.7468 12.071C8.92922 11.8886 9.14649 11.7448 9.38566 11.6481C9.62483 11.5516 9.88102 11.5041 10.1389 11.5087C10.3969 11.5132 10.6512 11.5698 10.8868 11.6747C11.1224 11.7797 11.3345 11.931 11.5104 12.1197L15.2752 15.8846L20.9993 10.1579L26.7234 4.43637C27.0836 4.07667 27.5719 3.87462 28.0807 3.87462C28.5898 3.87462 29.0781 4.07667 29.4382 4.43637Z" fill="url(#paint1_linear_287_210)" stroke="url(#paint2_linear_287_210)"/>
<defs>
<linearGradient id="paint0_linear_287_210" x1="13.6891" y1="28.1254" x2="13.6891" y2="4.74709" gradientUnits="userSpaceOnUse">
<stop stop-color="#FDA700"/>
<stop offset="1" stop-color="#FFDE00"/>
</linearGradient>
<linearGradient id="paint1_linear_287_210" x1="19.0921" y1="20.5186" x2="19.0921" y2="3.87462" gradientUnits="userSpaceOnUse">
<stop stop-color="#FDA700"/>
<stop offset="1" stop-color="#FFDE00"/>
</linearGradient>
<linearGradient id="paint2_linear_287_210" x1="19.0921" y1="20.5186" x2="19.0921" y2="3.87462" gradientUnits="userSpaceOnUse">
<stop stop-color="#FDA700"/>
<stop offset="1" stop-color="#FFDE00"/>
</linearGradient>
</defs>
</svg>
