<svg width="24" height="24" viewBox="0 0 24 24" fill="none" xmlns="http://www.w3.org/2000/svg">
<path d="M22.9998 14.9726V16.4945C22.9998 16.747 22.9888 17.0018 22.9668 17.2543C22.6581 20.7293 20.2443 23 16.7613 23H7.23834C5.47481 23 3.98684 22.4276 2.9177 21.3899C2.49886 21.005 2.14616 20.5529 1.87061 20.0345C2.23433 19.5923 2.64215 19.1082 3.03894 18.6229C3.71129 17.8179 4.36159 17.0227 4.7694 16.5055C5.37562 15.7556 6.97381 13.7816 9.18924 14.7079C9.64115 14.8954 10.0379 15.1601 10.4016 15.3917C11.2944 15.9872 11.6692 16.1636 12.2974 15.8218C12.9918 15.4468 13.4437 14.7079 13.9177 13.936C14.1712 13.5268 14.4247 13.1309 14.7002 12.767C15.9016 11.201 17.7533 10.7819 19.2964 11.7083C20.068 12.1714 20.7293 12.7559 21.3465 13.3504C21.4788 13.4827 21.611 13.6051 21.7323 13.7264C21.8976 13.8918 22.4487 14.4432 22.9998 14.9726Z" fill="url(#paint0_linear_285_200)"/>
<path opacity="0.4" d="M16.7725 1H7.23848C3.502 1 1 3.61368 1 7.50552V16.4946C1 17.85 1.30862 19.0531 1.87074 20.0346C2.23447 19.5924 2.64228 19.1083 3.03908 18.6219C3.71142 17.818 4.36172 17.0228 4.76954 16.5056C5.37575 15.7557 6.97395 13.7817 9.18938 14.708C9.64128 14.8955 10.0381 15.1602 10.4018 15.3918C11.2946 15.9873 11.6693 16.1637 12.2976 15.8208C12.992 15.4469 13.4439 14.708 13.9178 13.9349C14.1713 13.5269 14.4249 13.131 14.7004 12.7671C15.9018 11.2011 17.7535 10.782 19.2966 11.7084C20.0681 12.1715 20.7295 12.756 21.3467 13.3505C21.479 13.4828 21.6112 13.6052 21.7325 13.7265C21.8978 13.8908 22.4489 14.4422 23 14.9727V7.50552C23 3.61368 20.498 1 16.7725 1Z" fill="url(#paint1_linear_285_200)"/>
<path d="M12.75 8.00607C12.75 8.32196 12.6505 8.63911 12.4517 8.89304C12.4144 8.94286 12.2404 9.14821 12.1037 9.28187L12.0291 9.35482C10.9851 10.4617 8.38741 12.1263 7.06991 12.6597C7.06991 12.672 6.28696 12.989 5.91402 13H5.86437C5.29259 13 4.75813 12.6853 4.48473 12.175C4.33554 11.8943 4.19884 11.0802 4.18643 11.0693C4.07455 10.339 4 9.22116 4 7.99393C4 6.70714 4.07455 5.53946 4.21125 4.82259C4.21125 4.81045 4.34804 4.15429 4.435 3.93563C4.5717 3.62089 4.82027 3.35232 5.13098 3.18223C5.37964 3.06196 5.64062 3 5.91402 3C6.19991 3.01339 6.73437 3.19438 6.94562 3.27946C8.33768 3.81411 10.9975 5.56375 12.0167 6.63304C12.1907 6.80312 12.3771 7.01089 12.4269 7.0583C12.6381 7.32563 12.75 7.65366 12.75 8.00607Z" fill="url(#paint2_linear_285_200)"/>
<defs>
<linearGradient id="paint0_linear_285_200" x1="12.4352" y1="23" x2="12.4352" y2="11.2215" gradientUnits="userSpaceOnUse">
<stop stop-color="#5570FF"/>
<stop offset="1" stop-color="#4DD3FF"/>
</linearGradient>
<linearGradient id="paint1_linear_285_200" x1="12" y1="20.0346" x2="12" y2="1" gradientUnits="userSpaceOnUse">
<stop stop-color="#5570FF"/>
<stop offset="1" stop-color="#4DD3FF"/>
</linearGradient>
<linearGradient id="paint2_linear_285_200" x1="8.375" y1="13" x2="8.375" y2="3" gradientUnits="userSpaceOnUse">
<stop stop-color="#5570FF"/>
<stop offset="1" stop-color="#4DD3FF"/>
</linearGradient>
</defs>
</svg>
