<svg width="64" height="64" viewBox="0 0 64 64" fill="none" xmlns="http://www.w3.org/2000/svg">
<path opacity="0.4" d="M51.431 27.4422C51.1198 27.1797 50.9896 26.7614 51.0915 26.3673C51.4903 24.8255 51.7077 23.2134 51.7077 21.5489C51.7077 10.7531 42.8877 2.00098 32.0018 2.00098C21.1218 2.00098 12.2981 10.7513 12.2981 21.5489C12.2981 23.2137 12.517 24.8261 12.9149 26.3681C13.0165 26.7618 12.8864 27.1795 12.5756 27.4416C9.58023 29.9681 1.60764 37.8437 4.70064 47.937C4.83368 48.3712 5.26016 48.6365 5.69065 48.4921C6.57031 48.1969 8.11006 47.429 9.6644 45.4565C10.2257 44.7441 11.4967 44.9011 11.8254 45.7464C12.5239 47.5428 13.456 49.2216 14.5907 50.7454C15.0257 51.3296 14.7687 52.195 14.0993 52.4819C11.8105 53.4629 10.3449 54.9682 10.3449 56.6541C10.3449 59.6069 14.8367 61.9999 20.3751 61.9999C23.8874 61.9999 26.9755 61.0357 28.7655 59.5809C28.9994 59.3909 29.2968 59.2908 29.5961 59.3254C30.3864 59.4166 31.1839 59.4759 31.9988 59.4759C32.8149 59.4759 33.6137 59.4166 34.4019 59.3255C34.701 59.2909 34.9983 59.3906 35.2321 59.5804C37.025 61.0354 40.1118 61.9999 43.6246 61.9999C49.1647 61.9999 53.6585 59.6049 53.6585 56.6541C53.6585 54.9697 52.1913 53.463 49.9016 52.4817C49.2323 52.1948 48.9752 51.3298 49.4101 50.7457C50.5446 49.2219 51.4779 47.5432 52.1773 45.7467C52.5063 44.9015 53.7777 44.7447 54.339 45.4572C55.8911 47.4277 57.4283 48.1958 58.3069 48.4915C58.7374 48.6363 59.1641 48.3711 59.2973 47.9369C62.3949 37.8426 54.4257 29.9676 51.431 27.4422Z" fill="url(#paint0_linear_205_92)"/>
<path d="M28.0474 20.9984C27.9973 20.4484 28.4477 20 29 20H34.8906C35.4838 20 35.9479 20.5139 35.8573 21.1002C35.2644 24.9333 33.743 28.5081 32.7977 30.46C32.4619 31.1533 31.5337 31.1587 31.1878 30.4703C30.1244 28.3537 28.3582 24.4068 28.0474 20.9984Z" fill="url(#paint1_linear_205_92)"/>
<path d="M22 20C24.2091 20 26 18.2091 26 16C26 13.7909 24.2091 12 22 12C19.7909 12 18 13.7909 18 16C18 18.2091 19.7909 20 22 20Z" fill="url(#paint2_linear_205_92)"/>
<path d="M42 20C44.2091 20 46 18.2091 46 16C46 13.7909 44.2091 12 42 12C39.7909 12 38 13.7909 38 16C38 18.2091 39.7909 20 42 20Z" fill="url(#paint3_linear_205_92)"/>
<path fill-rule="evenodd" clip-rule="evenodd" d="M26.1228 39.5851C26.047 39.4617 26.0438 39.3069 26.1145 39.1805L27.7791 36.2047C27.8498 36.0783 27.9833 36 28.1282 36H38.604C38.8249 36 39.004 36.1791 39.004 36.4V40.0444C39.004 40.2654 38.8249 40.4444 38.604 40.4444H32.5815C32.2687 40.4444 32.0769 40.7873 32.2406 41.0538L34.5051 44.7407C34.5438 44.8036 34.5643 44.8761 34.5643 44.95V47.05C34.5643 47.1239 34.5438 47.1964 34.5051 47.2593L32.2406 50.9462C32.0769 51.2127 32.2687 51.5556 32.5815 51.5556H38.604C38.8249 51.5556 39.004 51.7346 39.004 51.9556V55.6C39.004 55.8209 38.8249 56 38.604 56H28.1282C27.9833 56 27.8498 55.9217 27.7791 55.7953L26.1145 52.8195C26.0438 52.6931 26.047 52.5383 26.1228 52.4149L29.9342 46.2093C30.0131 46.0809 30.0131 45.9191 29.9342 45.7907L26.1228 39.5851Z" fill="url(#paint4_linear_205_92)"/>
<defs>
<linearGradient id="paint0_linear_205_92" x1="32" y1="61.9999" x2="32" y2="2.00097" gradientUnits="userSpaceOnUse">
<stop stop-color="#02AA93"/>
<stop offset="1" stop-color="#67FF80"/>
</linearGradient>
<linearGradient id="paint1_linear_205_92" x1="32" y1="32" x2="32" y2="20" gradientUnits="userSpaceOnUse">
<stop stop-color="#02AA93"/>
<stop offset="1" stop-color="#67FF80"/>
</linearGradient>
<linearGradient id="paint2_linear_205_92" x1="22" y1="20" x2="22" y2="12" gradientUnits="userSpaceOnUse">
<stop stop-color="#02AA93"/>
<stop offset="1" stop-color="#67FF80"/>
</linearGradient>
<linearGradient id="paint3_linear_205_92" x1="42" y1="20" x2="42" y2="12" gradientUnits="userSpaceOnUse">
<stop stop-color="#02AA93"/>
<stop offset="1" stop-color="#67FF80"/>
</linearGradient>
<linearGradient id="paint4_linear_205_92" x1="32.3373" y1="69.3333" x2="32.502" y2="36" gradientUnits="userSpaceOnUse">
<stop stop-color="#02AA93"/>
<stop offset="1" stop-color="#67FF80"/>
</linearGradient>
</defs>
</svg>
