<svg width="96" height="96" viewBox="0 0 96 96" fill="none" xmlns="http://www.w3.org/2000/svg">
<path fill-rule="evenodd" clip-rule="evenodd" d="M35.9539 70.4661C36.7224 69.6225 38.0397 69.5918 38.8466 70.3987L43.1976 74.7496C49.8509 81.4029 60.6379 81.4029 67.2912 74.7496L67.9447 74.0962C68.7257 73.3151 68.7257 72.0488 67.9447 71.2677L24.7323 28.0553C23.9512 27.2743 22.6849 27.2743 21.9038 28.0553L21.2504 28.7088C14.5971 35.3621 14.5971 46.1491 21.2504 52.8025L25.6012 57.1532C26.4081 57.9601 26.3774 59.2775 25.5338 60.046L9.25682 74.8733C5.68344 78.0958 5.54008 83.6544 8.94277 87.0571C12.3451 90.4594 17.9041 90.3164 21.1266 86.7431L35.9539 70.4661Z" fill="url(#paint0_linear_81_231)"/>
<g opacity="0.4">
<path d="M89.135 45.176L83.5882 39.6292C82.9371 38.9781 81.915 38.8827 81.155 39.4019L75.5654 43.2204C74.9306 43.6541 74.165 42.8885 74.5987 42.2537L78.4172 36.6641C78.936 35.9037 78.841 34.882 78.1899 34.2309L76.047 32.088C75.4391 31.4801 74.5021 31.3518 73.7536 31.7739L70.8277 33.423C70.1743 33.7913 69.4503 33.0674 69.8186 32.4139L71.4681 29.4885C71.8903 28.74 71.7615 27.8026 71.154 27.195L61.2216 17.2626C60.5309 16.5719 59.4319 16.5121 58.6704 17.1232L46.7661 26.6766C46.0354 27.2632 45.0774 26.3052 45.664 25.5745L55.2174 13.6702C55.8285 12.9087 55.7687 11.8097 55.078 11.119L50.8246 6.86565C48.69 4.73105 45.2283 4.73065 43.0937 6.86525L22.922 27.037L68.9632 73.0783L89.135 52.9065C91.2696 50.7719 91.2696 47.3106 89.135 45.176Z" fill="url(#paint1_linear_81_231)"/>
</g>
<defs>
<linearGradient id="paint0_linear_81_231" x1="3150.38" y1="26.6411" x2="3150.38" y2="6314.41" gradientUnits="userSpaceOnUse">
<stop stop-color="#33EEB6"/>
<stop offset="1" stop-color="#27D086"/>
</linearGradient>
<linearGradient id="paint1_linear_81_231" x1="2349.02" y1="2305.06" x2="-54.6822" y2="4708.77" gradientUnits="userSpaceOnUse">
<stop stop-color="#33EEB6"/>
<stop offset="1" stop-color="#27D086"/>
</linearGradient>
</defs>
</svg>
