<svg width="24" height="24" viewBox="0 0 24 24" fill="none" xmlns="http://www.w3.org/2000/svg">
<path d="M3.375 3.75C3.375 2.7215 3.375 2.2078 3.5961 1.825C3.74091 1.57419 3.94919 1.36591 4.2 1.2211C4.5828 1 5.0965 1 6.125 1H13.825C14.8535 1 15.3672 1 15.75 1.2211C16.0008 1.36591 16.2091 1.57419 16.3539 1.825C16.575 2.2078 16.575 2.7215 16.575 3.75C16.575 4.7785 16.575 5.2922 16.3539 5.675C16.2091 5.92581 16.0008 6.13409 15.75 6.2789C15.3672 6.5 14.8535 6.5 13.825 6.5H6.125C5.0965 6.5 4.5828 6.5 4.2 6.2789C3.94919 6.13409 3.74091 5.92581 3.5961 5.675C3.375 5.2922 3.375 4.7785 3.375 3.75ZM7.775 16.4V20.8C7.775 21.8373 7.775 22.3554 8.0973 22.6777C8.4196 23 8.9377 23 9.975 23C11.0123 23 11.5304 23 11.8527 22.6777C12.175 22.3554 12.175 21.8373 12.175 20.8V16.4C12.175 15.3627 12.175 14.8446 11.8527 14.5223C11.5304 14.2 11.0123 14.2 9.975 14.2C8.9377 14.2 8.4196 14.2 8.0973 14.5223C7.775 14.8446 7.775 15.3627 7.775 16.4Z" fill="url(#paint0_linear_8_1097)"/>
<path opacity="0.4" d="M17.7245 4.57497C18.225 4.57497 18.5605 4.57497 18.8201 4.59257C19.0731 4.60907 19.1974 4.63877 19.2788 4.66957C19.6341 4.81037 19.9146 5.09087 20.0543 5.44617C20.0873 5.52757 20.1159 5.65187 20.1324 5.90487C20.15 6.16447 20.15 6.49997 20.15 7.00047C20.15 7.92117 20.139 8.17417 20.0719 8.36337C19.9571 8.68791 19.7247 8.95757 19.4207 9.11907C19.2436 9.21367 18.995 9.26207 18.0842 9.39957L13.5489 10.0794C12.6986 10.207 11.9858 10.3137 11.4215 10.4732C10.8242 10.6404 10.2951 10.8912 9.88262 11.3708C9.24462 12.1122 9.17422 13.0758 9.15552 14.1868V14.2088C9.38652 14.2 9.65602 14.2 9.97502 14.2C10.2995 14.2 10.5723 14.2 10.8055 14.2099C10.8253 13.0406 10.9342 12.6787 11.1333 12.4477C11.2543 12.308 11.438 12.1815 11.8681 12.0616C12.3202 11.934 12.9296 11.8416 13.8448 11.7041L18.4604 11.0111C19.1754 10.9044 19.7342 10.8219 20.1951 10.5766C20.8641 10.2208 21.3752 9.62683 21.6273 8.91227C21.8011 8.42057 21.8011 7.85627 21.8 7.13357V6.97297C21.8 6.50657 21.8 6.11607 21.7791 5.79597C21.7666 5.46974 21.7027 5.14752 21.5899 4.84117C21.4379 4.45475 21.208 4.10376 20.9145 3.81005C20.621 3.51634 20.2701 3.2862 19.8838 3.13397C19.5771 3.02105 19.2545 2.95719 18.9279 2.94477C18.5359 2.92596 18.1434 2.91899 17.7509 2.92387H16.575V4.57387L17.7245 4.57497Z" fill="url(#paint1_linear_8_1097)"/>
<path opacity="0.4" fill-rule="evenodd" clip-rule="evenodd" d="M2 3.74999C2 3.53118 2.08692 3.32134 2.24164 3.16662C2.39635 3.01191 2.6062 2.92499 2.825 2.92499H3.375V4.57499H2.825C2.6062 4.57499 2.39635 4.48807 2.24164 4.33335C2.08692 4.17863 2 3.96879 2 3.74999Z" fill="url(#paint2_linear_8_1097)"/>
<defs>
<linearGradient id="paint0_linear_8_1097" x1="14.1862" y1="1" x2="-3.3374" y2="13.8374" gradientUnits="userSpaceOnUse">
<stop stop-color="#DE00C0"/>
<stop offset="1" stop-color="#8720FF"/>
</linearGradient>
<linearGradient id="paint1_linear_8_1097" x1="19.5119" y1="2.92236" x2="10.5265" y2="15.2123" gradientUnits="userSpaceOnUse">
<stop stop-color="#DE00C0"/>
<stop offset="1" stop-color="#8720FF"/>
</linearGradient>
<linearGradient id="paint2_linear_8_1097" x1="3.12617" y1="2.92499" x2="1.74795" y2="4.32727" gradientUnits="userSpaceOnUse">
<stop stop-color="#DE00C0"/>
<stop offset="1" stop-color="#8720FF"/>
</linearGradient>
</defs>
</svg>
