<svg width="24" height="24" viewBox="0 0 24 24" fill="none" xmlns="http://www.w3.org/2000/svg">
<path opacity="0.5" fill-rule="evenodd" clip-rule="evenodd" d="M1 3.84615C1 3.62174 1.08915 3.40652 1.24783 3.24783C1.40652 3.08915 1.62174 3 1.84615 3H15.3846C15.609 3 15.8242 3.08915 15.9829 3.24783C16.1416 3.40652 16.2308 3.62174 16.2308 3.84615C16.2308 4.07057 16.1416 4.28579 15.9829 4.44447C15.8242 4.60316 15.609 4.69231 15.3846 4.69231H1.84615C1.62174 4.69231 1.40652 4.60316 1.24783 4.44447C1.08915 4.28579 1 4.07057 1 3.84615ZM1 8.35897C1 8.13456 1.08915 7.91934 1.24783 7.76065C1.40652 7.60197 1.62174 7.51282 1.84615 7.51282H13.1282C13.3526 7.51282 13.5678 7.60197 13.7265 7.76065C13.8852 7.91934 13.9744 8.13456 13.9744 8.35897C13.9744 8.58339 13.8852 8.79861 13.7265 8.95729C13.5678 9.11598 13.3526 9.20513 13.1282 9.20513H1.84615C1.62174 9.20513 1.40652 9.11598 1.24783 8.95729C1.08915 8.79861 1 8.58339 1 8.35897ZM1 12.8718C1 12.6474 1.08915 12.4322 1.24783 12.2735C1.40652 12.1148 1.62174 12.0256 1.84615 12.0256H8.61538C8.8398 12.0256 9.05502 12.1148 9.2137 12.2735C9.37239 12.4322 9.46154 12.6474 9.46154 12.8718C9.46154 13.0962 9.37239 13.3114 9.2137 13.4701C9.05502 13.6288 8.8398 13.7179 8.61538 13.7179H1.84615C1.62174 13.7179 1.40652 13.6288 1.24783 13.4701C1.08915 13.3114 1 13.0962 1 12.8718ZM1 17.3846C1 17.1602 1.08915 16.945 1.24783 16.7863C1.40652 16.6276 1.62174 16.5385 1.84615 16.5385H7.48718C7.71159 16.5385 7.92681 16.6276 8.0855 16.7863C8.24418 16.945 8.33333 17.1602 8.33333 17.3846C8.33333 17.609 8.24418 17.8243 8.0855 17.9829C7.92681 18.1416 7.71159 18.2308 7.48718 18.2308H1.84615C1.62174 18.2308 1.40652 18.1416 1.24783 17.9829C1.08915 17.8243 1 17.609 1 17.3846Z" fill="url(#paint0_linear_280_147)"/>
<path d="M20.2867 4.9666C20.6003 4.8504 20.9749 4.75225 21.381 4.82558C21.8797 4.91584 22.3242 5.19676 22.622 5.6063C22.8646 5.94025 22.9379 6.32158 22.9695 6.65553C23 6.97932 23 7.38435 23 7.84578V7.96989C23 8.30835 23.0022 8.66937 22.8804 9.00219C22.7845 9.2652 22.6338 9.5048 22.4381 9.70506C22.1899 9.95891 21.8639 10.1146 21.5581 10.2601L21.4814 10.2974L19.4676 11.2642C19.0513 11.4639 18.6869 11.6388 18.38 11.7516C18.0855 11.861 17.7369 11.9547 17.359 11.905V16.7405C17.359 18.7871 15.74 20.4873 13.6923 20.4873C11.6446 20.4873 10.0256 18.7871 10.0256 16.7405C10.0256 14.6928 11.6446 12.9926 13.6923 12.9926C14.3938 12.9917 15.0803 13.1964 15.6667 13.5816V9.48732H15.67C15.6667 9.29665 15.6667 9.09132 15.6667 8.87245V8.74948C15.6667 8.41101 15.6644 8.04886 15.7862 7.71604C15.8821 7.45317 16.0333 7.21286 16.2285 7.01317C16.4767 6.75932 16.8028 6.60363 17.1085 6.45809L17.1852 6.42086L19.1991 5.45399C19.6154 5.2543 19.9798 5.07943 20.2867 4.9666Z" fill="url(#paint1_linear_280_147)"/>
<defs>
<linearGradient id="paint0_linear_280_147" x1="3.85577" y1="4.72536" x2="13.4643" y2="14.9883" gradientUnits="userSpaceOnUse">
<stop stop-color="#8F0CFF"/>
<stop offset="0.516064" stop-color="#AA1DFF"/>
<stop offset="1" stop-color="#B826FF"/>
</linearGradient>
<linearGradient id="paint1_linear_280_147" x1="12.4583" y1="6.57734" x2="22.3004" y2="15.272" gradientUnits="userSpaceOnUse">
<stop stop-color="#8F0CFF"/>
<stop offset="0.516064" stop-color="#AA1DFF"/>
<stop offset="1" stop-color="#B826FF"/>
</linearGradient>
</defs>
</svg>
