<svg width="16" height="16" viewBox="0 0 16 16" fill="none" xmlns="http://www.w3.org/2000/svg">
<path opacity="0.4" d="M2.16667 1C1.52234 1 1 1.52234 1 2.16667V4.5V5.66667V6.83333V10.3333V11.5V13.8333C1 14.4777 1.52234 15 2.16667 15H13.8333C14.4777 15 15 14.4777 15 13.8333V11.5V10.3333V6.83333V5.66667V4.5V2.16667C15 1.52234 14.4777 1 13.8333 1H2.16667Z" fill="url(#paint0_linear_60_192)"/>
<path fill-rule="evenodd" clip-rule="evenodd" d="M12.084 2.16663C11.7616 2.16663 11.5001 2.42805 11.5001 2.75052C11.5001 3.073 11.7616 3.33442 12.084 3.33442H13.2495C13.572 3.33442 13.8334 3.073 13.8334 2.75052C13.8334 2.42805 13.572 2.16663 13.2495 2.16663H12.084ZM2.75006 5.66648C2.42791 5.66648 2.16675 5.92764 2.16675 6.2498C2.16675 6.57195 2.42791 6.83311 2.75006 6.83311H13.2497C13.5718 6.83311 13.833 6.57195 13.833 6.2498C13.833 5.92764 13.5718 5.66648 13.2497 5.66648H2.75006ZM11.5001 8.58306C11.5001 8.26091 11.7613 7.99975 12.0835 7.99975H13.2501C13.5722 7.99975 13.8334 8.26091 13.8334 8.58306C13.8334 8.90521 13.5722 9.16637 13.2501 9.16637H12.0835C11.7613 9.16637 11.5001 8.90521 11.5001 8.58306ZM2.75006 10.333C2.42791 10.333 2.16675 10.5942 2.16675 10.9163C2.16675 11.2383 2.42791 11.4995 2.75006 11.4995H13.2497C13.5718 11.4995 13.833 11.2383 13.833 10.9163C13.833 10.5942 13.5718 10.333 13.2497 10.333H2.75006ZM11.5001 13.2495C11.5001 12.9274 11.7613 12.6662 12.0835 12.6662H13.2501C13.5722 12.6662 13.8334 12.9274 13.8334 13.2495C13.8334 13.5716 13.5722 13.8328 13.2501 13.8328H12.0835C11.7613 13.8328 11.5001 13.5716 11.5001 13.2495Z" fill="url(#paint1_linear_60_192)" stroke="url(#paint2_linear_60_192)" stroke-width="0.6"/>
<defs>
<linearGradient id="paint0_linear_60_192" x1="8" y1="15" x2="8" y2="1" gradientUnits="userSpaceOnUse">
<stop stop-color="#FDA700"/>
<stop offset="1" stop-color="#FFDE00"/>
</linearGradient>
<linearGradient id="paint1_linear_60_192" x1="8.00007" y1="13.8328" x2="8.00007" y2="2.16663" gradientUnits="userSpaceOnUse">
<stop stop-color="#FDA700"/>
<stop offset="1" stop-color="#FFDE00"/>
</linearGradient>
<linearGradient id="paint2_linear_60_192" x1="8.00008" y1="13.8328" x2="8.00008" y2="2.16663" gradientUnits="userSpaceOnUse">
<stop stop-color="#FDA700"/>
<stop offset="1" stop-color="#FFDE00"/>
</linearGradient>
</defs>
</svg>
