<svg width="128" height="128" viewBox="0 0 128 128" fill="none" xmlns="http://www.w3.org/2000/svg">
<path opacity="0.4" d="M63 5C31.143 5 5 31.143 5 63C5 94.857 31.143 121 63 121C72.1295 121 80.7898 118.853 88.5 115.04C94.0526 112.293 89.6125 92.795 94 88.5C98.2883 84.3021 111.434 95.3382 114.27 90C118.563 81.9203 121 72.7265 121 63C121 31.143 94.857 5 63 5Z" fill="url(#paint0_linear_113_231)"/>
<path fill-rule="evenodd" clip-rule="evenodd" d="M64 37.75C49.5273 37.75 37.75 49.5273 37.75 64C37.75 78.4727 49.5273 90.25 64 90.25C78.4727 90.25 90.25 78.4727 90.25 64C90.25 49.5273 78.4727 37.75 64 37.75ZM63.75 82.5C53.4117 82.5 45 74.0882 45 63.75C45 53.4117 53.4117 45 63.75 45C74.0882 45 82.5 53.4117 82.5 63.75C82.5 74.0882 74.0882 82.5 63.75 82.5Z" fill="url(#paint1_linear_113_231)"/>
<path fill-rule="evenodd" clip-rule="evenodd" d="M94.5157 32.9461C98.654 37.0844 101.899 41.8964 104.165 47.2504C104.971 49.1584 104.081 51.3594 102.173 52.1649C100.273 52.9686 98.0664 52.0869 97.2587 50.1726C95.3689 45.7124 92.6627 41.6986 89.213 38.2489C85.7632 34.7991 81.7497 32.0929 77.2892 30.2031C75.3812 29.3976 74.4912 27.1966 75.297 25.2886C76.1025 23.3734 78.3144 22.4944 80.2114 23.2964C85.5654 25.5634 90.3775 28.8079 94.5157 32.9461ZM64 53C57.9344 53 53 57.9344 53 64C53 70.0656 57.9344 75 64 75C70.0656 75 75 70.0656 75 64C75 57.9344 70.0656 53 64 53ZM64 68C61.7931 68 60 66.2069 60 64C60 61.7931 61.7931 60 64 60C66.2069 60 68 61.7931 68 64C68 66.2069 66.2069 68 64 68ZM51.1731 94.2607C46.7126 92.3709 42.6991 89.6647 39.2493 86.2149C35.7996 82.7652 33.0933 78.7514 31.2036 74.2912C30.3978 72.3797 28.1786 71.4897 26.2891 72.2989C24.3811 73.1047 23.4913 75.3054 24.2968 77.2134C26.5636 82.5674 29.8083 87.3794 33.9466 91.5177C38.0848 95.6559 42.8968 98.9004 48.2508 101.167C50.1558 101.973 52.3596 101.085 53.1653 99.1752C53.9708 97.2674 53.0808 95.0664 51.1731 94.2607Z" fill="url(#paint2_linear_113_231)"/>
<path fill-rule="evenodd" clip-rule="evenodd" d="M126 103C126 116.255 115.255 127 102 127C88.7452 127 78 116.255 78 103C78 89.7452 88.7452 79 102 79C115.255 79 126 89.7452 126 103ZM101.557 90.0116C101.681 89.9902 101.809 89.9985 101.93 90.0359L110.149 92.579C110.975 92.8345 111.697 93.3495 112.21 94.0485C112.723 94.7476 113 95.5937 113 96.4627V100.562C113 100.689 112.97 100.815 112.913 100.928C112.856 101.041 112.773 101.14 112.672 101.215C112.57 101.29 112.452 101.341 112.328 101.362C112.203 101.383 112.076 101.375 111.955 101.338L102.5 98.4126V110.312C102.5 110.332 102.499 110.353 102.498 110.373C102.496 110.391 102.494 110.408 102.492 110.426C102.56 111.654 102.199 112.867 101.473 113.856C100.747 114.845 99.7004 115.549 98.5139 115.845C97.3274 116.141 96.0754 116.011 94.9738 115.478C93.8723 114.945 92.9902 114.042 92.4797 112.924C91.9692 111.807 91.8623 110.545 92.1775 109.357C92.4927 108.169 93.2102 107.129 94.2062 106.416C95.2022 105.703 96.4143 105.362 97.6335 105.452C98.8527 105.542 100.002 106.057 100.885 106.908V90.8126C100.885 90.6855 100.914 90.5601 100.971 90.4466C101.028 90.3331 101.111 90.2346 101.212 90.159C101.314 90.0834 101.432 90.0329 101.557 90.0116Z" fill="url(#paint3_linear_113_231)"/>
<defs>
<linearGradient id="paint0_linear_113_231" x1="72.3109" y1="34.6974" x2="3.58196" y2="128.97" gradientUnits="userSpaceOnUse">
<stop stop-color="#43E97B"/>
<stop offset="0.978261" stop-color="#38F9D7"/>
</linearGradient>
<linearGradient id="paint1_linear_113_231" x1="68.214" y1="51.1906" x2="37.1082" y2="93.8572" gradientUnits="userSpaceOnUse">
<stop stop-color="#43E97B"/>
<stop offset="0.978261" stop-color="#38F9D7"/>
</linearGradient>
<linearGradient id="paint2_linear_113_231" x1="41.0959" y1="79.5432" x2="23.6381" y2="103.488" gradientUnits="userSpaceOnUse">
<stop stop-color="#43E97B"/>
<stop offset="0.978261" stop-color="#38F9D7"/>
</linearGradient>
<linearGradient id="paint3_linear_113_231" x1="105.853" y1="91.2886" x2="77.4132" y2="130.298" gradientUnits="userSpaceOnUse">
<stop stop-color="#43E97B"/>
<stop offset="0.978261" stop-color="#38F9D7"/>
</linearGradient>
</defs>
</svg>
