<svg width="32" height="32" viewBox="0 0 32 32" fill="none" xmlns="http://www.w3.org/2000/svg">
<path fill-rule="evenodd" clip-rule="evenodd" d="M21.8547 19.7883C22.8594 20.7929 24.222 21.3574 25.6428 21.3574C27.0636 21.3574 28.4262 20.7929 29.4309 19.7883C30.4355 18.7836 30.9999 17.421 30.9999 16.0002C30.9999 14.5794 30.4355 13.2168 29.4309 12.2121C28.4262 11.2075 27.0636 10.6431 25.6428 10.6431C24.222 10.6431 22.8594 11.2075 21.8547 12.2121C20.8501 13.2168 20.2856 14.5794 20.2856 16.0002C20.2856 17.421 20.8501 18.7836 21.8547 19.7883ZM19.788 29.4309C20.7927 28.4262 21.3571 27.0636 21.3571 25.6428C21.3571 24.222 20.7927 22.8594 19.788 21.8547C18.7834 20.8501 17.4208 20.2856 16 20.2856C14.5792 20.2856 13.2166 20.8501 12.2119 21.8547C11.2072 22.8594 10.6428 24.222 10.6428 25.6428C10.6428 27.0636 11.2072 28.4262 12.2119 29.4309C13.2166 30.4355 14.5792 30.9999 16 30.9999C17.4208 30.9999 18.7834 30.4355 19.788 29.4309Z" fill="url(#paint0_linear_207_170)"/>
<path opacity="0.4" fill-rule="evenodd" clip-rule="evenodd" d="M20.9493 8.40723C21.2185 7.75727 21.3571 7.06065 21.3571 6.35714C21.3571 4.93634 20.7927 3.57373 19.788 2.56907C18.7834 1.56441 17.4208 1 16 1C14.5792 1 13.2166 1.56441 12.2119 2.56907C11.2072 3.57373 10.6428 4.93634 10.6428 6.35714C10.6428 7.77795 11.2072 9.14056 12.2119 10.1452C13.2166 11.1499 14.5792 11.7143 16 11.7143C16.7035 11.7143 17.4001 11.5757 18.0501 11.3065C18.7 11.0373 19.2906 10.6427 19.788 10.1452C20.2855 9.64776 20.6801 9.05719 20.9493 8.40723ZM2.56907 19.7883C3.57373 20.7929 4.93634 21.3574 6.35714 21.3574C7.06065 21.3574 7.75727 21.2188 8.40723 20.9496C9.05719 20.6803 9.64776 20.2857 10.1452 19.7883C10.6427 19.2908 11.0373 18.7003 11.3065 18.0503C11.5757 17.4003 11.7143 16.7037 11.7143 16.0002C11.7143 15.2967 11.5757 14.6001 11.3065 13.9501C11.0373 13.3002 10.6427 12.7096 10.1452 12.2121C9.64776 11.7147 9.05719 11.3201 8.40723 11.0509C7.75727 10.7816 7.06065 10.6431 6.35714 10.6431C4.93634 10.6431 3.57373 11.2075 2.56907 12.2121C1.56441 13.2168 1 14.5794 1 16.0002C1 17.421 1.56441 18.7836 2.56907 19.7883Z" fill="url(#paint1_linear_207_170)"/>
<defs>
<linearGradient id="paint0_linear_207_170" x1="14.4598" y1="12.9491" x2="27.3021" y2="26.6663" gradientUnits="userSpaceOnUse">
<stop stop-color="#8F0CFF"/>
<stop offset="0.516064" stop-color="#AA1DFF"/>
<stop offset="1" stop-color="#B826FF"/>
</linearGradient>
<linearGradient id="paint1_linear_207_170" x1="4.81696" y1="3.30611" x2="17.6596" y2="17.0233" gradientUnits="userSpaceOnUse">
<stop stop-color="#8F0CFF"/>
<stop offset="0.516064" stop-color="#AA1DFF"/>
<stop offset="1" stop-color="#B826FF"/>
</linearGradient>
</defs>
</svg>
