<svg width="96" height="96" viewBox="0 0 96 96" fill="none" xmlns="http://www.w3.org/2000/svg">
<g filter="url(#filter0_d_54_378)">
<path opacity="0.4" d="M48 90C71.196 90 90 71.196 90 48C90 24.804 71.196 6 48 6C24.804 6 6 24.804 6 48C6 71.196 24.804 90 48 90Z" fill="url(#paint0_linear_54_378)"/>
<path fill-rule="evenodd" clip-rule="evenodd" d="M64.3381 14.6109C64.2977 14.2198 64.599 14.05 64.7703 14.1538C65.3718 14.5187 65.988 15.0147 66.5992 15.5946C68.3122 17.2197 69.9868 19.504 71.1939 21.4106C73.9922 25.8305 78.2866 35.6611 74.9653 53.9999C72.7511 66.2258 68.4181 76.0409 61.9663 83.4452C59.2577 81.6083 56.48 78.5707 53.6333 74.3324C50.0054 67.1069 53.9453 61.8642 56.1099 59.9003C58.2744 57.9364 67.9014 43.4267 69.0347 33.3681C69.759 26.939 68.3485 21.0169 64.8031 15.6016C64.7327 15.494 64.3728 14.9459 64.3381 14.6109ZM58.8543 12.2539C59.0807 11.6853 59.4979 11.5015 60.1257 11.7531C60.5443 11.9208 60.8993 12.3512 61.1907 13.0443C67.1806 24.3428 66.7173 35.7035 59.8008 47.1261C52.8843 58.5488 45.1856 66.0862 36.7048 69.7382C31.967 60.8376 30.4548 54.9211 32.168 51.9887C32.7131 51.0556 33.2226 50.3971 33.8071 49.8243L33.9763 49.6628C36.147 47.6427 39.4384 46.5101 49.0947 37.318C57.1846 29.6171 60.1672 22.3459 58.8543 13.9845C58.7482 13.3084 58.6279 12.8226 58.8543 12.2539ZM54.7551 13.0565C55.2287 12.9749 56.1099 13.1351 56.1099 19.0536C56.1099 25.9965 46.9141 34.8549 42.668 37.9152C38.7922 40.7086 24.1305 49.2956 17.1229 49.8375C16.4533 49.8893 15.8223 49.9479 15.3399 49.7604C14.1563 49.3005 13.7775 44.82 13.8274 42.5414C13.9402 37.3876 14.2691 32.7381 15.7691 31.6777C18.2446 29.9274 25.062 28.6955 37.3735 25.4811C43.5055 23.8802 48.684 21.24 51.9351 17.2062C52.1419 16.9496 52.5862 16.2009 53.0524 15.4113L53.2863 15.0152C53.8707 14.0268 54.4332 13.092 54.5525 13.092C54.5921 13.092 54.643 13.079 54.7023 13.0667L54.7551 13.0565Z" fill="url(#paint1_linear_54_378)"/>
</g>
<defs>
<filter id="filter0_d_54_378" x="2" y="4" width="92" height="92" filterUnits="userSpaceOnUse" color-interpolation-filters="sRGB">
<feFlood flood-opacity="0" result="BackgroundImageFix"/>
<feColorMatrix in="SourceAlpha" type="matrix" values="0 0 0 0 0 0 0 0 0 0 0 0 0 0 0 0 0 0 127 0" result="hardAlpha"/>
<feOffset dy="2"/>
<feGaussianBlur stdDeviation="2"/>
<feColorMatrix type="matrix" values="0 0 0 0 0 0 0 0 0 0 0 0 0 0 0 0 0 0 0.2 0"/>
<feBlend mode="normal" in2="BackgroundImageFix" result="effect1_dropShadow_54_378"/>
<feBlend mode="normal" in="SourceGraphic" in2="effect1_dropShadow_54_378" result="shape"/>
</filter>
<linearGradient id="paint0_linear_54_378" x1="4.78584" y1="6.82655" x2="91.3826" y2="96.0728" gradientUnits="userSpaceOnUse">
<stop stop-color="#F9D423"/>
<stop offset="0.515624" stop-color="#FF4E50"/>
<stop offset="0.991304" stop-color="#8A2387"/>
</linearGradient>
<linearGradient id="paint1_linear_54_378" x1="12.9219" y1="12.3494" x2="86.5234" y2="78.2155" gradientUnits="userSpaceOnUse">
<stop stop-color="#F9D423"/>
<stop offset="0.515624" stop-color="#FF4E50"/>
<stop offset="0.991304" stop-color="#8A2387"/>
</linearGradient>
</defs>
</svg>
