<svg width="48" height="48" viewBox="0 0 48 48" fill="none" xmlns="http://www.w3.org/2000/svg">
<path opacity="0.5" d="M24 46C36.1503 46 46 36.1503 46 24C46 11.8497 36.1503 2 24 2C11.8497 2 2 11.8497 2 24C2 36.1503 11.8497 46 24 46Z" fill="url(#paint0_linear_357_175)"/>
<path d="M33.5845 14.1164L24.306 23.3961C24.1415 23.5606 23.8884 23.5606 23.7239 23.3961L14.4304 14.1164C14.1164 13.8035 13.6987 13.624 13.2512 13.624H10.8352C10.3728 13.624 10 13.9979 10 14.4604V33.5397C10 34.0022 10.3728 34.3761 10.8352 34.3761H14.3557C14.8181 34.3761 15.1909 34.0022 15.1909 33.5397V22.6943C15.1909 22.6045 15.2956 22.5608 15.3704 22.6195L22.8288 30.0791C23.4708 30.7199 24.5292 30.7199 25.1712 30.0791L32.6296 22.6195C32.6895 22.5597 32.8091 22.6045 32.8091 22.6943V33.5397C32.8091 34.0022 33.1819 34.3761 33.6443 34.3761H37.1648C37.6273 34.3761 38 34.0022 38 33.5397V14.4604C38 13.9979 37.6273 13.624 37.1648 13.624H34.7488C34.3162 13.6401 33.8986 13.8035 33.5845 14.1164Z" fill="url(#paint1_linear_357_175)"/>
<defs>
<linearGradient id="paint0_linear_357_175" x1="5.06329" y1="59.6125" x2="23.5735" y2="1.86316" gradientUnits="userSpaceOnUse">
<stop stop-color="#FE3661"/>
<stop offset="0.330956" stop-color="#C723C7"/>
<stop offset="0.549719" stop-color="#AA35D6"/>
<stop offset="1" stop-color="#1EA3FD"/>
</linearGradient>
<linearGradient id="paint1_linear_357_175" x1="11.9494" y1="40.7963" x2="18.7032" y2="12.3657" gradientUnits="userSpaceOnUse">
<stop stop-color="#FE3661"/>
<stop offset="0.330956" stop-color="#C723C7"/>
<stop offset="0.549719" stop-color="#AA35D6"/>
<stop offset="1" stop-color="#1EA3FD"/>
</linearGradient>
</defs>
</svg>
