<svg width="96" height="96" viewBox="0 0 96 96" fill="none" xmlns="http://www.w3.org/2000/svg">
<g filter="url(#filter0_d_54_347)">
<path opacity="0.4" d="M48 6C24.804 6 6 24.804 6 48C6 71.196 24.804 90 48 90C71.196 90 90 71.196 90 48C90 24.804 71.196 6 48 6Z" fill="url(#paint0_linear_54_347)"/>
<path fill-rule="evenodd" clip-rule="evenodd" d="M50 22C58.3464 22 65.7743 25.9328 70.5316 32.0464C71.1666 32.8625 70.9872 34.0244 70.1848 34.6766L63.2939 40.2769C62.3229 41.066 60.8771 40.7693 60.0872 39.7989C57.7036 36.8705 54.0702 35 50 35C42.8203 35 37 40.8203 37 48C37 55.1797 42.8203 61 50 61C54.1512 61 57.848 59.0543 60.228 56.0251C61.0252 55.0105 62.5307 54.6994 63.5146 55.5342L70.276 61.2704C71.0508 61.9277 71.216 63.0671 70.5952 63.8715C65.8407 70.0319 58.3837 74 50 74C35.6406 74 24 62.3594 24 48C24 33.6406 35.6406 22 50 22Z" fill="url(#paint1_linear_54_347)"/>
</g>
<defs>
<filter id="filter0_d_54_347" x="2" y="4" width="92" height="92" filterUnits="userSpaceOnUse" color-interpolation-filters="sRGB">
<feFlood flood-opacity="0" result="BackgroundImageFix"/>
<feColorMatrix in="SourceAlpha" type="matrix" values="0 0 0 0 0 0 0 0 0 0 0 0 0 0 0 0 0 0 127 0" result="hardAlpha"/>
<feOffset dy="2"/>
<feGaussianBlur stdDeviation="2"/>
<feColorMatrix type="matrix" values="0 0 0 0 0 0 0 0 0 0 0 0 0 0 0 0 0 0 0.2 0"/>
<feBlend mode="normal" in2="BackgroundImageFix" result="effect1_dropShadow_54_347"/>
<feBlend mode="normal" in="SourceGraphic" in2="effect1_dropShadow_54_347" result="shape"/>
</filter>
<linearGradient id="paint0_linear_54_347" x1="4206" y1="75.72" x2="4206" y2="8406" gradientUnits="userSpaceOnUse">
<stop stop-color="#34C2FF"/>
<stop offset="1" stop-color="#0079DF"/>
</linearGradient>
<linearGradient id="paint1_linear_54_347" x1="47.8178" y1="74" x2="47.8178" y2="22" gradientUnits="userSpaceOnUse">
<stop stop-color="#5570FF"/>
<stop offset="1" stop-color="#4DD3FF"/>
</linearGradient>
</defs>
</svg>
