<svg width="128" height="128" viewBox="0 0 128 128" fill="none" xmlns="http://www.w3.org/2000/svg">
<path opacity="0.4" d="M122.1 88.6H79.9838C87.5056 81.2231 92.2 70.9644 92.2 59.6C92.2 37.1794 74.0206 19 51.6 19C29.1794 19 11 37.1794 11 59.6C11 82.0206 29.1794 100.2 51.6 100.2H122.1C123.695 100.2 125 98.895 125 97.3V91.5C125 89.905 123.695 88.6 122.1 88.6ZM46.5 88.6C36.8937 88.6 26 73.1062 26 63.5C26 53.8938 41.9938 42.2 51.6 42.2C61.2063 42.2 69 49.9937 69 59.6C69 69.2062 56.1063 88.6 46.5 88.6Z" fill="url(#paint0_linear_80_697)"/>
<path d="M116.1 96.6H71.9838C79.5056 89.2231 84.2 78.9644 84.2 67.6C84.2 45.1794 66.0206 27 43.6 27C21.1794 27 3 45.1794 3 67.6C3 90.0206 21.1794 108.2 43.6 108.2H116.1C117.695 108.2 119 106.895 119 105.3V99.5C119 97.905 117.695 96.6 116.1 96.6ZM43.6 85C33.9938 85 26.2 77.2062 26.2 67.6C26.2 57.9937 33.9938 50.2 43.6 50.2C53.2063 50.2 61 57.9937 61 67.6C61 77.2062 53.2063 85 43.6 85Z" fill="url(#paint1_linear_80_697)"/>
<defs>
<linearGradient id="paint0_linear_80_697" x1="68" y1="100.2" x2="68" y2="19" gradientUnits="userSpaceOnUse">
<stop stop-color="#FD5900"/>
<stop offset="1" stop-color="#FFDE00"/>
</linearGradient>
<linearGradient id="paint1_linear_80_697" x1="61" y1="108.2" x2="61" y2="27" gradientUnits="userSpaceOnUse">
<stop stop-color="#FD5900"/>
<stop offset="1" stop-color="#FFDE00"/>
</linearGradient>
</defs>
</svg>
