<svg width="24" height="24" viewBox="0 0 24 24" fill="none" xmlns="http://www.w3.org/2000/svg">
<path opacity="0.4" d="M12 23C18.0753 23 23 18.0753 23 12C23 5.9247 18.0753 1 12 1C5.9247 1 1 5.9247 1 12C1 18.0753 5.9247 23 12 23Z" fill="url(#paint0_linear_216_331)"/>
<path d="M13.1264 14.8162C13.6687 14.5995 13.9393 14.4906 14.1516 14.3047C14.2066 14.2574 14.2572 14.2057 14.3045 14.1518C14.4915 13.9395 14.5993 13.6678 14.816 13.1266C15.8324 10.5856 16.3406 9.31517 15.8478 8.59027C15.7308 8.41802 15.5823 8.26947 15.41 8.15247C14.684 7.65967 13.4146 8.16787 10.8736 9.18427C10.3313 9.40097 10.0596 9.50877 9.84733 9.69577C9.79343 9.74307 9.74283 9.79477 9.69553 9.84867C9.50853 10.0609 9.40073 10.3326 9.18403 10.8738C8.16763 13.4148 7.65943 14.6842 8.15223 15.4102C8.26923 15.5825 8.41778 15.731 8.59003 15.848C9.31603 16.3408 10.5854 15.8326 13.1264 14.8162Z" fill="url(#paint1_linear_216_331)"/>
<defs>
<linearGradient id="paint0_linear_216_331" x1="12" y1="1" x2="12" y2="23" gradientUnits="userSpaceOnUse">
<stop stop-color="#DC18FC"/>
<stop offset="1" stop-color="#8E1EFF"/>
</linearGradient>
<linearGradient id="paint1_linear_216_331" x1="12" y1="7.9624" x2="12" y2="16.0381" gradientUnits="userSpaceOnUse">
<stop stop-color="#DC18FC"/>
<stop offset="1" stop-color="#8E1EFF"/>
</linearGradient>
</defs>
</svg>
