<svg width="64" height="64" viewBox="0 0 64 64" fill="none" xmlns="http://www.w3.org/2000/svg">
<path opacity="0.4" d="M32.5 3C48.2401 3 61 15.7599 61 31.5C61 47.2401 48.2401 60 32.5 60C16.7599 60 4 47.2401 4 31.5C4 15.7599 16.7599 3 32.5 3Z" fill="url(#paint0_linear_42_94)"/>
<path fill-rule="evenodd" clip-rule="evenodd" d="M31.5238 10C28.6219 10 26.2857 12.3362 26.2857 15.2381V31.3862C24.3859 32.4208 22.7997 33.9479 21.6936 35.8072C20.5876 37.6664 20.0025 39.789 20 41.9524C20 45.1476 21.2693 48.212 23.5287 50.4713C25.788 52.7307 28.8524 54 32.0476 54C35.2429 54 38.3072 52.7307 40.5665 50.4713C42.8259 48.212 44.0952 45.1476 44.0952 41.9524C44.0949 39.787 43.5109 37.6616 42.4048 35.8001C41.2986 33.9385 39.7113 32.4095 37.8095 31.3738V15.2381C37.8095 12.3362 35.4733 10 32.5714 10H31.5238ZM32.0476 15.2381C32.9182 15.2381 33.619 15.939 33.619 16.8095V33.5714C33.619 33.9137 33.8048 34.2848 34.1348 34.3755C37.4611 35.2897 39.9048 38.3357 39.9048 41.9524C39.9048 46.2917 36.387 49.8095 32.0476 49.8095C27.7083 49.8095 24.1905 46.2917 24.1905 41.9524C24.1905 38.3357 26.6342 35.2897 29.9604 34.3755C30.2904 34.2848 30.4762 33.9136 30.4762 33.5714V16.8095C30.4762 15.939 31.177 15.2381 32.0476 15.2381Z" fill="url(#paint1_linear_42_94)"/>
<defs>
<linearGradient id="paint0_linear_42_94" x1="61" y1="31.5" x2="4" y2="31.5" gradientUnits="userSpaceOnUse">
<stop stop-color="#DC18FC"/>
<stop offset="1" stop-color="#8E1EFF"/>
</linearGradient>
<linearGradient id="paint1_linear_42_94" x1="44.0952" y1="32" x2="20" y2="32" gradientUnits="userSpaceOnUse">
<stop stop-color="#DC18FC"/>
<stop offset="1" stop-color="#8E1EFF"/>
</linearGradient>
</defs>
</svg>
