<svg width="64" height="64" viewBox="0 0 64 64" fill="none" xmlns="http://www.w3.org/2000/svg">
<path fill-rule="evenodd" clip-rule="evenodd" d="M33.1554 34.2862C32.3838 35.968 31.0758 37.0673 29.6503 37.4719C29.5701 37.4947 29.4867 37.5032 29.4041 37.5142C29.1886 37.5429 28.9063 37.6265 28.624 37.6265C26.1351 37.6265 24.6628 35.5248 24.6628 32.4349C24.6628 28.4754 26.8139 26.6241 29.5291 25.7545C30.7121 25.458 32.0431 25.3189 33.4015 25.2757C33.9536 25.2581 34.4014 25.708 34.4014 26.2603V26.746C34.4014 29.5888 34.513 31.8123 33.1554 34.2862ZM34.4014 18.6573C34.4014 19.1776 34.0025 19.6104 33.484 19.6527C32.2425 19.754 30.8848 19.8709 29.5291 20.0654C26.9255 20.4409 24.3219 20.9351 22.1738 22.0485C17.9834 23.9031 15.1505 27.8593 15.1505 33.6668C15.1505 40.9666 19.4526 44.6725 24.8921 44.6725C26.7022 44.6725 28.1745 44.4221 29.5291 44.0565C31.3868 43.4153 32.9849 42.3173 34.7667 40.4448C35.2204 39.968 36.0019 40.0174 36.3581 40.5708C37.1062 41.7331 37.6726 42.5879 39.2561 44.0616C39.3387 44.1385 39.4347 44.2031 39.5413 44.2403C40.0546 44.4189 40.5587 44.3879 40.9662 44.0565C42.3268 42.8179 44.7072 40.5911 45.9501 39.3558C46.5173 38.8617 46.4057 38.1172 46.0618 37.5045C44.8188 35.7718 43.5698 34.2861 43.5698 30.9492V19.8216C43.5698 15.1242 43.9137 10.7958 40.743 7.584C38.1394 4.99153 34.0605 4 30.8897 4H29.5291C23.7577 4.36565 17.6455 7.08659 16.2818 14.8772C16.0555 15.8687 16.7374 16.2376 17.1899 16.3595L23.3725 17.2042C23.4779 17.2186 23.586 17.2193 23.6872 17.1869C24.2631 17.0022 24.5601 16.4327 24.6628 15.8687C25.227 13.1478 27.2664 11.7873 29.5291 11.5369H29.9846C31.3453 11.5369 32.8175 12.1562 33.608 13.3948C34.513 14.8772 34.4014 16.8569 34.4014 18.5896V18.6573Z" fill="url(#paint0_linear_8_1093)"/>
<g opacity="0.4">
<path d="M57.3057 45.9341V45.9374L57.3117 46.2899C57.2755 48.5002 56.4036 52.4268 53.8996 54.8842C53.6341 55.1115 53.3264 55.2697 52.9644 55.273H52.9523C52.7109 55.273 52.4213 55.1807 52.1981 54.9501C51.9688 54.7195 51.8602 54.3704 51.8662 54.0838C51.8662 53.8861 51.9054 53.705 51.9658 53.5402L51.9817 53.4944C52.2289 52.7799 52.5937 51.7255 52.895 50.6744C53.2117 49.6005 53.441 48.5002 53.435 47.9073C53.438 47.7525 53.4199 47.6405 53.4078 47.5977C53.3988 47.5911 53.3837 47.5812 53.3626 47.5746C53.3053 47.5417 53.1997 47.5021 53.0579 47.4692C52.7743 47.4033 52.361 47.3671 51.9024 47.3704C51.2538 47.3704 50.5056 47.433 49.7996 47.5186C48.976 47.6438 48.2731 47.7195 47.7904 47.8315L47.7541 47.8381L47.7059 47.8414C47.6576 47.8513 47.6033 47.8546 47.546 47.8546C47.3016 47.8546 47.0241 47.7821 46.7857 47.5713C46.5474 47.3605 46.4026 47.0047 46.4116 46.6951C46.4267 46.1252 46.7103 45.753 47.0542 45.473C47.6063 45.0348 48.2007 44.6659 48.8553 44.3694V44.3431L49.4135 44.1454L49.4316 44.1355L50.4181 43.7765L50.4211 43.849C51.4016 43.6151 52.3761 43.5228 53.26 43.5228C54.4909 43.5261 55.5137 43.6842 56.2166 43.9807L56.2221 43.9834C56.4553 44.0943 56.6709 44.1969 56.8954 44.465L56.9225 44.5012L56.9467 44.5374C57.1699 44.9064 57.2816 45.3511 57.3057 45.9341Z" fill="url(#paint1_linear_8_1093)"/>
<path d="M49.1178 49.5313C49.3622 49.4061 49.6246 49.3402 49.8811 49.3435C50.6866 49.3435 51.4318 49.9925 51.4499 50.9511C51.4499 51.4913 51.1663 52.0118 50.756 52.3445C50.0953 52.9209 49.3953 53.4414 48.6954 53.8993L48.6622 53.9224C43.3102 57.592 36.4166 59.8419 30.3194 59.9901C30.1293 59.9934 29.9393 60 29.7522 60C20.1675 59.9934 13.0415 54.2682 6.54008 48.1049C6.2233 47.8315 5.99703 47.4099 6.00005 46.952C5.99703 46.5995 6.13581 46.2536 6.36811 46.0132C6.60041 45.776 6.92021 45.6475 7.23095 45.6475C7.4723 45.6475 7.72271 45.72 7.96406 45.8584C14.8909 50.0584 21.7574 54.3209 30.1746 54.3144H30.1747C30.3647 54.3144 30.5638 54.3144 30.7599 54.3078C36.1119 54.1826 41.8953 52.7529 47.4012 50.3153V50.3087L47.908 50.088L48.2972 49.9101C48.5627 49.7882 48.8432 49.6499 49.1178 49.5313Z" fill="url(#paint2_linear_8_1093)"/>
</g>
<defs>
<linearGradient id="paint0_linear_8_1093" x1="31.6558" y1="60" x2="31.6558" y2="4" gradientUnits="userSpaceOnUse">
<stop stop-color="#FD2E00"/>
<stop offset="1" stop-color="#FF9900"/>
</linearGradient>
<linearGradient id="paint1_linear_8_1093" x1="31.6558" y1="60" x2="31.6558" y2="4" gradientUnits="userSpaceOnUse">
<stop stop-color="#FD2E00"/>
<stop offset="1" stop-color="#FF9900"/>
</linearGradient>
<linearGradient id="paint2_linear_8_1093" x1="31.6558" y1="60" x2="31.6558" y2="4" gradientUnits="userSpaceOnUse">
<stop stop-color="#FD2E00"/>
<stop offset="1" stop-color="#FF9900"/>
</linearGradient>
</defs>
</svg>
