<svg width="32" height="32" viewBox="0 0 32 32" fill="none" xmlns="http://www.w3.org/2000/svg">
<path opacity="0.4" d="M16 16C14.1615 16 12.341 16.1811 10.6424 16.5328C8.94387 16.8846 7.40052 17.4002 6.1005 18.0503C4.80048 18.7003 3.76925 19.4719 3.06569 20.3212C2.36212 21.1705 2 22.0807 2 23C2 23.9193 2.36212 24.8295 3.06569 25.6788C3.76925 26.5281 4.80048 27.2997 6.10051 27.9497C7.40053 28.5998 8.94387 29.1154 10.6424 29.4672C12.341 29.8189 14.1615 30 16 30C17.8385 30 19.659 29.8189 21.3576 29.4672C23.0561 29.1154 24.5995 28.5998 25.8995 27.9497C27.1995 27.2997 28.2307 26.5281 28.9343 25.6788C29.6379 24.8295 30 23.9193 30 23C30 22.0807 29.6379 21.1705 28.9343 20.3212C28.2307 19.4719 27.1995 18.7003 25.8995 18.0503C24.5995 17.4002 23.0561 16.8846 21.3576 16.5328C19.659 16.1811 17.8385 16 16 16Z" fill="url(#paint0_linear_235_139)"/>
<path opacity="0.9" d="M16 9C12.287 9 8.72602 9.7375 6.10051 11.0503C3.475 12.363 2 14.1435 2 16C2 16.9193 2.36212 17.8295 3.06569 18.6788C3.76925 19.5281 4.80048 20.2997 6.1005 20.9497C7.40052 21.5998 8.94387 22.1154 10.6424 22.4672C12.341 22.8189 14.1615 23 16 23C17.8385 23 19.659 22.8189 21.3576 22.4672C23.0561 22.1154 24.5995 21.5998 25.8995 20.9497C27.1995 20.2997 28.2307 19.5281 28.9343 18.6788C29.6379 17.8295 30 16.9193 30 16C30 14.1435 28.525 12.363 25.8995 11.0503C23.274 9.7375 19.713 9 16 9Z" fill="url(#paint1_linear_235_139)"/>
<path d="M16 2C14.1615 2 12.341 2.18106 10.6424 2.53284C8.94387 2.88463 7.40053 3.40024 6.10051 4.05025C4.80048 4.70026 3.76925 5.47194 3.06569 6.32122C2.36212 7.17049 2 8.08075 2 9C2 10.8565 3.475 12.637 6.10051 13.9497C8.72602 15.2625 12.287 16 16 16C19.713 16 23.274 15.2625 25.8995 13.9497C28.525 12.637 30 10.8565 30 9C30 7.14348 28.525 5.36301 25.8995 4.05025C23.274 2.7375 19.713 2 16 2Z" fill="url(#paint2_linear_235_139)"/>
<defs>
<linearGradient id="paint0_linear_235_139" x1="6.10052" y1="27.9497" x2="14.0201" y2="12.1106" gradientUnits="userSpaceOnUse">
<stop stop-color="#0072FF"/>
<stop offset="1" stop-color="#00E5A1"/>
</linearGradient>
<linearGradient id="paint1_linear_235_139" x1="6.10052" y1="20.9497" x2="14.0201" y2="5.11058" gradientUnits="userSpaceOnUse">
<stop stop-color="#0072FF"/>
<stop offset="1" stop-color="#00E5A1"/>
</linearGradient>
<linearGradient id="paint2_linear_235_139" x1="6.10052" y1="13.9497" x2="14.0201" y2="-1.88942" gradientUnits="userSpaceOnUse">
<stop stop-color="#0072FF"/>
<stop offset="1" stop-color="#00E5A1"/>
</linearGradient>
</defs>
</svg>
