<svg width="32" height="32" viewBox="0 0 32 32" fill="none" xmlns="http://www.w3.org/2000/svg">
<g clip-path="url(#clip0_280_138)">
<path opacity="0.4" d="M20.1202 24.5362C24.8344 22.2605 26.8113 16.5941 24.5357 11.8798C22.26 7.16555 16.5936 5.18866 11.8793 7.4643C7.16505 9.73994 5.18816 15.4064 7.4638 20.1207C9.73945 24.8349 15.4059 26.8118 20.1202 24.5362Z" stroke="#07E6D2" stroke-width="2" stroke-linecap="round" stroke-linejoin="round" stroke-dasharray="4 3"/>
<path opacity="0.4" d="M3.4602 20.7869C6.10384 27.7125 13.8612 31.1837 20.7868 28.54C27.7124 25.8964 31.1835 18.139 28.5399 11.2134C25.8963 4.28787 18.1389 0.816678 11.2133 3.46032C4.28775 6.10396 0.816556 13.8613 3.4602 20.7869Z" stroke="#07A8E6" stroke-width="2" stroke-linecap="round" stroke-linejoin="round" stroke-dasharray="4.6 3"/>
<path d="M21.425 16.0067C21.425 16.3542 21.3157 16.7031 21.0969 16.9824C21.0559 17.0371 20.8645 17.263 20.7141 17.4101L20.6321 17.4903C19.4836 18.7079 16.6262 20.539 15.177 21.1258C15.177 21.1391 14.3157 21.488 13.9055 21.5H13.8508C13.222 21.5 12.634 21.1538 12.3332 20.5925C12.1692 20.2837 12.0188 19.3882 12.0051 19.3762C11.8821 18.5729 11.8 17.3433 11.8 15.9933C11.8 14.5779 11.8821 13.2935 12.0325 12.5048C12.0325 12.4915 12.1828 11.7697 12.2785 11.5291C12.4289 11.183 12.7024 10.8876 13.0442 10.7005C13.3177 10.5682 13.6048 10.5 13.9055 10.5C14.22 10.5147 14.8078 10.7138 15.0403 10.8074C16.5715 11.3955 19.4973 13.3202 20.6184 14.4964C20.8098 14.6835 21.0149 14.912 21.0696 14.9642C21.302 15.2582 21.425 15.6191 21.425 16.0067Z" fill="url(#paint0_linear_280_138)"/>
</g>
<defs>
<linearGradient id="paint0_linear_280_138" x1="16.6125" y1="10.5" x2="16.6125" y2="21.5" gradientUnits="userSpaceOnUse">
<stop stop-color="#00FFE0"/>
<stop offset="1" stop-color="#078AA7"/>
</linearGradient>
<clipPath id="clip0_280_138">
<rect width="32" height="32" fill="white"/>
</clipPath>
</defs>
</svg>
