<svg width="128" height="128" viewBox="0 0 128 128" fill="none" xmlns="http://www.w3.org/2000/svg">
<path opacity="0.4" d="M22.7499 9C15.1324 9 9 15.1324 9 22.7499V63.9995V98.3743V110.125C9 111.23 9.89543 112.125 11 112.125H13.8749C14.9795 112.125 15.8749 111.23 15.8749 110.125V100.375C15.8749 99.2704 16.7704 98.375 17.8749 98.375H20.7499C21.8545 98.375 22.7499 99.2704 22.7499 100.375V110.125C22.7499 111.23 23.6453 112.125 24.7499 112.125H27.6248C28.7294 112.125 29.6248 111.23 29.6248 110.125V100.375C29.6248 99.2704 30.5203 98.375 31.6248 98.375H34.4998C35.6043 98.375 36.4998 97.4796 36.4998 96.375V63.9995V22.7499C36.4998 15.1324 30.3673 9 22.7499 9Z" fill="url(#paint0_linear_80_391)"/>
<path fill-rule="evenodd" clip-rule="evenodd" d="M21.7182 9C21.704 9 21.6924 9.01157 21.6924 9.02585V9.02922C21.6924 9.04245 21.7036 9.05289 21.7168 9.05189L21.7171 9.05187C22.0593 9.02591 22.401 9 22.7501 9C30.3675 9 36.5 15.1324 36.5 22.7499V34.4998C36.5 35.6043 37.3954 36.4998 38.5 36.4998H61.9997C63.1043 36.4998 63.9997 35.6043 63.9997 34.4998V22.7499C63.9997 15.1324 57.8673 9 50.2498 9C49.9005 9 49.5584 9.02595 49.216 9.05193C49.2031 9.05291 49.1922 9.04275 49.1922 9.02987V9.02585C49.1922 9.01157 49.1806 9 49.1663 9H22.7501H21.7182ZM76.718 9C76.7037 9 76.6921 9.01157 76.6921 9.02585V9.0292C76.6921 9.04244 76.7034 9.05289 76.7166 9.05188L76.7167 9.05187C77.0589 9.02593 77.4008 9 77.7498 9C85.3673 9 91.4997 15.1324 91.4997 22.7499V34.4998C91.4997 35.6043 92.3951 36.4998 93.4997 36.4998H116.999C118.104 36.4998 118.999 35.6043 118.999 34.4998V22.7499C118.999 15.1324 112.867 9 105.25 9C104.9 9 104.558 9.02595 104.216 9.05193C104.203 9.05291 104.192 9.04276 104.192 9.02989V9.02585C104.192 9.01157 104.18 9 104.166 9H77.7498H76.718ZM117 64C118.105 64 119 64.8954 119 66V91.5L118.999 103.25C118.999 104.355 118.104 105.25 116.999 105.25H114.124C113.02 105.25 112.124 106.146 112.124 107.25V117C112.124 118.105 111.229 119 110.124 119H107.249C106.145 119 105.249 118.105 105.249 117V107.25C105.249 106.146 104.354 105.25 103.249 105.25H100.375C99.27 105.25 98.3745 106.146 98.3745 107.25V117C98.3745 118.105 97.4791 119 96.3745 119H93.4996C92.395 119 91.4996 118.105 91.4996 117L91.4998 91.4993L91.5 64H117ZM64 64V38.5C64 37.3954 64.8954 36.5 66 36.5H89.5C90.6046 36.5 91.5 37.3954 91.5 38.5V64H64ZM64 64H38.5C37.3954 64 36.5 64.8954 36.5 66L36.5002 91.5L36.5004 117C36.5004 118.105 37.3959 119 38.5004 119H41.3754C42.4799 119 43.3754 118.105 43.3754 117V107.25C43.3754 106.146 44.2708 105.25 45.3754 105.25H48.2503C49.3549 105.25 50.2503 106.146 50.2503 107.25V117C50.2503 118.105 51.1457 119 52.2503 119H55.1252C56.2298 119 57.1252 118.105 57.1252 117V107.25C57.1252 106.146 58.0207 105.25 59.1252 105.25H62.0002C63.1048 105.25 64.0002 104.355 64.0002 103.25L64.0001 91.4993L64 64Z" fill="url(#paint1_linear_80_391)"/>
<defs>
<linearGradient id="paint0_linear_80_391" x1="22.75" y1="105.68" x2="22.75" y2="19.7422" gradientUnits="userSpaceOnUse">
<stop stop-color="#0357D1"/>
<stop offset="1" stop-color="#27CDFC"/>
</linearGradient>
<linearGradient id="paint1_linear_80_391" x1="70.0154" y1="115.562" x2="71.7342" y2="12.4375" gradientUnits="userSpaceOnUse">
<stop stop-color="#44BCFF"/>
<stop offset="1" stop-color="#0359D2"/>
</linearGradient>
</defs>
</svg>
