<svg width="180" height="192" viewBox="0 0 180 192" fill="none" xmlns="http://www.w3.org/2000/svg">
<rect opacity="0.4" x="9" y="7" width="162" height="176" rx="32" fill="url(#paint0_linear_54_235)"/>
<path fill-rule="evenodd" clip-rule="evenodd" d="M52.2461 63.5921L52.249 63.5806C53.03 60.481 54.1361 56.0919 58.1614 56.2667C59.5639 56.3254 61.0317 56.2353 62.5137 56.1444C66.0772 55.9255 69.7237 55.7017 72.7454 57.5293C74.9855 60.7021 75.8209 64.6158 76.6406 68.4564L76.6479 68.4912C76.9012 69.6778 77.1531 70.8574 77.4451 72.0056C79.1974 76.7181 80.43 81.6069 81.6628 86.4968C82.5587 90.051 83.4549 93.6059 84.551 97.0944C85.7036 101.575 87.0237 106.015 88.3438 110.454L88.3446 110.456C90.5044 117.72 92.6638 124.981 94.0876 132.421C89.0155 133.884 83.5094 133.959 78.4992 132.209L78.0032 129.859C77.8507 129.123 77.7112 128.381 77.5716 127.638L77.5714 127.637C77.0184 124.694 76.4625 121.735 75.0765 119.071C74.5136 119.056 73.9503 119.041 73.3867 119.027C73.0972 119.019 72.8075 119.011 72.5177 119.003L72.5126 119.002H72.5085C65.9618 118.822 59.3799 118.641 52.8659 119.271C52.0722 121.458 51.5885 123.745 51.1545 126.034C51.0429 126.583 50.8444 127.671 50.7453 128.221C50.5442 128.627 50.3641 129.057 50.1825 129.491L50.1819 129.492C49.6246 130.824 49.053 132.188 47.8185 132.97C44.2761 133.649 40.6686 133.468 37.0816 133.288H37.0802C36.2351 133.245 35.391 133.203 34.5492 133.172C33.4689 130.756 34.1983 128.226 34.8959 125.807C35.0392 125.311 35.1811 124.818 35.3056 124.333C35.8499 122.608 36.3213 120.863 36.7925 119.118L36.7948 119.109C37.4395 116.724 38.084 114.339 38.9145 112.008L39.3736 111.707C41.6493 101.239 44.5878 90.9119 47.5264 80.584L47.5279 80.579C49.1368 74.9247 50.7457 69.2701 52.2461 63.5921ZM64.2393 77.9504C64.6619 77.9105 65.0943 77.8696 65.3788 77.843C66.0119 83.0501 67.3837 88.099 68.7556 93.1472L68.7562 93.1497C69.9102 97.3962 71.064 101.642 71.7778 105.982C66.7181 106.32 61.6335 106.295 56.5861 106.007C56.9361 103.279 57.6003 100.612 58.2645 97.9464L58.2768 97.8968C58.5031 96.9884 58.7294 96.0796 58.9428 95.1688C60.6112 89.712 61.8731 84.1497 63.133 78.5953L63.2584 78.0429C63.5072 78.0195 63.8695 77.9854 64.2393 77.9504ZM122.367 71.6521C116.889 71.8234 110.775 72.0146 106.464 75.8803C102.372 79.7555 101.838 85.8059 102.123 91.1312C106.749 92.4812 113.62 94.4188 116.831 89.6061C117.068 88.3434 117.353 87.106 117.7 85.8809C120.354 82.6057 125.55 83.4057 129.133 84.3932C131.993 86.6761 131.788 90.6006 131.602 94.1676C131.551 95.1324 131.502 96.071 131.515 96.9439L130.349 97.0689C127.988 97.2679 125.587 97.2466 123.181 97.2252C118.182 97.1808 113.17 97.1364 108.498 99.0691C103.797 100.882 100.921 105.894 100.884 110.845C100.871 111.4 100.855 111.958 100.839 112.519L100.838 112.553C100.685 117.905 100.528 123.423 102.88 128.359C110.272 135.646 122.945 136.071 131.466 130.621C135.174 133.833 140.047 133.697 144.66 133.172C145.989 131.607 145.983 129.56 145.976 127.581V127.519C145.975 126.991 145.974 126.466 146 125.958C145.955 119.488 145.959 113.019 145.965 106.549V106.546C145.969 100.503 145.974 94.4608 145.937 88.4184C145.912 83.3307 144.561 77.5429 140.034 74.6303C135.27 71.6997 129.529 71.6745 124.096 71.6507L124.031 71.6504C123.576 71.6484 123.123 71.6463 122.673 71.6425L122.367 71.6521ZM115.6 113.559L115.605 113.482C115.393 111.295 116.968 109.232 119.113 108.907C123.107 108.395 127.175 108.532 131.206 108.745C131.862 112.495 131.912 116.508 130.535 120.095C128.083 122.815 124.116 122.401 120.672 122.041H120.669C120.109 121.982 119.562 121.925 119.039 121.884C115.067 121.262 115.388 116.623 115.6 113.559Z" fill="url(#paint1_linear_54_235)"/>
<defs>
<linearGradient id="paint0_linear_54_235" x1="38.3625" y1="162.223" x2="194.775" y2="36.6041" gradientUnits="userSpaceOnUse">
<stop stop-color="#FE0844"/>
<stop offset="1" stop-color="#FEB302"/>
</linearGradient>
<linearGradient id="paint1_linear_54_235" x1="54.3" y1="125.074" x2="123.872" y2="38.2659" gradientUnits="userSpaceOnUse">
<stop stop-color="#FE0844"/>
<stop offset="1" stop-color="#FEB302"/>
</linearGradient>
</defs>
</svg>
