<svg width="33" height="32" viewBox="0 0 33 32" fill="none" xmlns="http://www.w3.org/2000/svg">
<path d="M15.5367 23.6734C15.3197 23.8904 15.0621 24.0625 14.7786 24.1799C14.495 24.2973 14.191 24.3578 13.8841 24.3578C13.5771 24.3578 13.2731 24.2973 12.9896 24.1799C12.706 24.0625 12.4484 23.8904 12.2315 23.6734V23.6734C11.9185 23.3582 11.4149 23.3394 11.0793 23.6303L5.78854 28.2168C5.28277 28.6553 5.34779 29.4594 5.98005 29.6791C6.58354 29.8889 7.22059 29.9984 7.86575 30.0002H14.8733C16.4215 29.9984 17.9058 29.3832 19.0005 28.2897C20.0952 27.1961 20.7111 25.7135 20.7129 24.1669V19.5003V19.5003C20.7049 19.1036 20.2358 18.9514 19.9559 19.2327L15.5367 23.6734ZM19.684 16.2055C19.684 16.2063 19.6836 16.2072 19.683 16.2078L14.4441 21.4748C14.1379 21.7826 13.6398 21.7823 13.334 21.4743V21.4743C12.9207 21.0578 12.3652 20.8127 11.7787 20.7881C11.1922 20.7634 10.6181 20.961 10.1712 21.3413L3.91049 26.7587C3.46227 27.1466 2.76887 27.0623 2.52749 26.521C2.19878 25.7838 2.02631 24.9821 2.02612 24.1669V19.5003C2.02798 17.9538 2.64382 16.4711 3.73856 15.3776C4.8333 14.284 6.31755 13.6688 7.86575 13.667H14.8733C15.8211 13.6682 16.7544 13.8999 17.5925 14.342C18.4304 14.7839 19.148 15.4228 19.6834 16.2037C19.6838 16.2042 19.684 16.2048 19.684 16.2055V16.2055ZM7.83538 18.4503C7.83538 18.2196 7.76689 17.994 7.63855 17.8021C7.51022 17.6103 7.32781 17.4607 7.1144 17.3724C6.90099 17.2841 6.66616 17.261 6.43961 17.3061C6.21305 17.3511 6.00495 17.4622 5.84161 17.6253C5.67827 17.7885 5.56704 17.9964 5.52197 18.2227C5.47691 18.449 5.50004 18.6836 5.58844 18.8968C5.67683 19.1099 5.82653 19.2922 6.01859 19.4203C6.21066 19.5485 6.43646 19.617 6.66746 19.617C6.97721 19.617 7.27428 19.494 7.49331 19.2753C7.71233 19.0565 7.83538 18.7597 7.83538 18.4503Z" fill="url(#paint0_linear_306_220)"/>
<g opacity="0.4">
<path d="M25.3543 18.3333V13.6666C25.3524 12.1201 24.7366 10.6374 23.6418 9.54389C22.5471 8.45033 21.0628 7.83516 19.5146 7.8333H12.5071C11.3652 7.83501 10.2489 8.17068 9.29582 8.79888C8.53634 9.29948 7.90703 9.96838 7.45465 10.7498C7.29786 11.0206 7.52248 11.3333 7.83539 11.3333H14.8429C17.0104 11.3361 19.0882 12.1974 20.6208 13.7283C22.1534 15.2592 23.0156 17.3348 23.0184 19.4999V20.9766C23.0184 21.7994 23.927 22.2152 24.3827 21.5302C24.5114 21.3367 24.6287 21.1352 24.7338 20.9266C25.1392 20.122 25.3516 19.2341 25.3543 18.3333Z" fill="url(#paint1_linear_306_220)"/>
<path d="M17.1788 2H24.1863C25.7345 2.00185 27.2188 2.61703 28.3135 3.71058C29.4083 4.80414 30.0241 6.28678 30.026 7.8333V12.4999C30.0233 13.4008 29.8109 14.2887 29.4055 15.0933C29.3004 15.3019 29.1831 15.5034 29.0544 15.6969C28.5987 16.3819 27.6901 15.9661 27.6901 15.1433V13.6666C27.6873 11.5015 26.8251 9.42594 25.2925 7.895C23.7599 6.36406 21.6821 5.50276 19.5146 5.49998H12.5071C12.1992 5.49998 11.9799 5.19522 12.1332 4.92817C12.5841 4.14259 13.2138 3.46997 13.9751 2.96695C14.9255 2.33893 16.0393 2.00277 17.1788 2Z" fill="url(#paint2_linear_306_220)"/>
</g>
<defs>
<linearGradient id="paint0_linear_306_220" x1="11.3695" y1="30.0002" x2="11.3695" y2="13.667" gradientUnits="userSpaceOnUse">
<stop stop-color="#FD5900"/>
<stop offset="1" stop-color="#FFDE00"/>
</linearGradient>
<linearGradient id="paint1_linear_306_220" x1="18.585" y1="22.9696" x2="18.585" y2="2" gradientUnits="userSpaceOnUse">
<stop stop-color="#FD5900"/>
<stop offset="1" stop-color="#FFDE00"/>
</linearGradient>
<linearGradient id="paint2_linear_306_220" x1="18.585" y1="22.9696" x2="18.585" y2="2" gradientUnits="userSpaceOnUse">
<stop stop-color="#FD5900"/>
<stop offset="1" stop-color="#FFDE00"/>
</linearGradient>
</defs>
</svg>
