<svg width="16" height="16" viewBox="0 0 16 16" fill="none" xmlns="http://www.w3.org/2000/svg">
<path d="M8 11C9.65685 11 11 9.65685 11 8C11 6.34315 9.65685 5 8 5C6.34315 5 5 6.34315 5 8C5 9.65685 6.34315 11 8 11Z" fill="url(#paint0_linear_297_133)"/>
<path opacity="0.4" d="M2.75 1C1.79053 1 1 1.79053 1 2.75V4.1C1 4.32091 1.17909 4.5 1.4 4.5H1.76667C1.98758 4.5 2.16667 4.32091 2.16667 4.1V2.75C2.16667 2.75 2.16667 2.75 2.16667 2.75C2.16667 2.75 2.16667 2.16667 2.75 2.16667H4.1C4.32091 2.16667 4.5 1.98758 4.5 1.76667V1.4C4.5 1.17909 4.32091 1 4.1 1H2.75ZM7.23333 1C7.01242 1 6.83333 1.17909 6.83333 1.4V1.76667C6.83333 1.98758 7.01242 2.16667 7.23333 2.16667H8.76667C8.98758 2.16667 9.16667 1.98758 9.16667 1.76667V1.4C9.16667 1.17909 8.98758 1 8.76667 1H7.23333ZM11.9 1C11.6791 1 11.5 1.17909 11.5 1.4V1.76667C11.5 1.98758 11.6791 2.16667 11.9 2.16667H13.25C13.25 2.16667 13.25 2.16667 13.25 2.16667C13.25 2.16667 13.8333 2.16667 13.8333 2.75V4.1C13.8333 4.32091 14.0124 4.5 14.2333 4.5H14.6C14.8209 4.5 15 4.32091 15 4.1V2.75C15 1.79053 14.209 1 13.25 1H11.9ZM1.4 6.83333C1.17909 6.83333 1 7.01242 1 7.23333V8.76667C1 8.98758 1.17909 9.16667 1.4 9.16667H1.76667C1.98758 9.16667 2.16667 8.98758 2.16667 8.76667V7.23333C2.16667 7.01242 1.98758 6.83333 1.76667 6.83333H1.4ZM14.2333 6.83333C14.0124 6.83333 13.8333 7.01242 13.8333 7.23333V8.76667C13.8333 8.98758 14.0124 9.16667 14.2333 9.16667H14.6C14.8209 9.16667 15 8.98758 15 8.76667V7.23333C15 7.01242 14.8209 6.83333 14.6 6.83333H14.2333ZM1.4 11.5C1.17909 11.5 1 11.6791 1 11.9V13.25C1 14.209 1.79053 15 2.75 15H4.1C4.32091 15 4.5 14.8209 4.5 14.6V14.2333C4.5 14.0124 4.32091 13.8333 4.1 13.8333H2.75C2.75 13.8333 2.75 13.8333 2.75 13.8333C2.75 13.8333 2.16667 13.8333 2.16667 13.25V11.9C2.16667 11.6791 1.98758 11.5 1.76667 11.5H1.4ZM14.2333 11.5C14.0124 11.5 13.8333 11.6791 13.8333 11.9V13.25C13.8333 13.25 13.8333 13.25 13.8333 13.25C13.8333 13.25 13.8333 13.8333 13.25 13.8333H11.9C11.6791 13.8333 11.5 14.0124 11.5 14.2333V14.6C11.5 14.8209 11.6791 15 11.9 15H13.25C14.209 15 15 14.209 15 13.25V11.9C15 11.6791 14.8209 11.5 14.6 11.5H14.2333ZM7.23333 13.8333C7.01242 13.8333 6.83333 14.0124 6.83333 14.2333V14.6C6.83333 14.8209 7.01242 15 7.23333 15H8.76667C8.98758 15 9.16667 14.8209 9.16667 14.6V14.2333C9.16667 14.0124 8.98758 13.8333 8.76667 13.8333H7.23333Z" fill="url(#paint1_linear_297_133)"/>
<defs>
<linearGradient id="paint0_linear_297_133" x1="8" y1="11" x2="8" y2="5" gradientUnits="userSpaceOnUse">
<stop stop-color="#FD2E00"/>
<stop offset="1" stop-color="#FF9900"/>
</linearGradient>
<linearGradient id="paint1_linear_297_133" x1="8" y1="15" x2="8" y2="1" gradientUnits="userSpaceOnUse">
<stop stop-color="#FD2E00"/>
<stop offset="1" stop-color="#FF9900"/>
</linearGradient>
</defs>
</svg>
