<svg width="24" height="24" viewBox="0 0 24 24" fill="none" xmlns="http://www.w3.org/2000/svg">
<path opacity="0.5" d="M13.123 22.7749C16.6595 22.0667 21.2323 19.5223 21.2323 12.9438C21.2323 6.95801 16.8507 2.97127 13.6989 1.13968C13.0009 0.732404 12.1818 1.26751 12.1818 2.0764V4.14444C12.1818 5.77579 11.4962 8.7534 9.5911 9.99219C8.61817 10.6246 7.56605 9.67768 7.44839 8.52374L7.3511 7.57571C7.23797 6.47381 6.11571 5.8052 5.23555 6.4772C3.65285 7.68205 2 9.7976 2 12.9426C2 20.9874 7.9835 23 10.9747 23C11.1489 23 11.3322 22.9932 11.5222 22.983C12.0268 22.9197 11.5222 23.095 13.123 22.7737V22.7749Z" fill="url(#paint0_linear_41_67)"/>
<path d="M7.65656 18.9771C7.65656 21.9411 10.0448 22.8575 11.5222 22.9842C12.0268 22.9209 11.5222 23.0962 13.123 22.7749C14.2985 22.3597 15.5757 21.294 15.5757 18.9771C15.5757 17.5098 14.6492 16.6036 13.924 16.1794C13.7023 16.0493 13.4443 16.2133 13.4251 16.469C13.3618 17.2813 12.5812 17.9284 12.0506 17.3107C11.5811 16.7654 11.3831 15.9678 11.3831 15.4576V14.7901C11.3831 14.3896 10.9792 14.1227 10.633 14.3286C9.34786 15.0899 7.65656 16.6579 7.65656 18.9771Z" fill="url(#paint1_linear_41_67)"/>
<defs>
<linearGradient id="paint0_linear_41_67" x1="1.72201" y1="1.21648" x2="24.2895" y2="21.5485" gradientUnits="userSpaceOnUse">
<stop stop-color="#F9D423"/>
<stop offset="0.515624" stop-color="#FF4E50"/>
<stop offset="0.991304" stop-color="#8A2387"/>
</linearGradient>
<linearGradient id="paint1_linear_41_67" x1="7.54209" y1="14.3432" x2="16.5227" y2="22.7419" gradientUnits="userSpaceOnUse">
<stop stop-color="#F9D423"/>
<stop offset="0.515624" stop-color="#FF4E50"/>
<stop offset="0.991304" stop-color="#8A2387"/>
</linearGradient>
</defs>
</svg>
