<svg width="96" height="96" viewBox="0 0 96 96" fill="none" xmlns="http://www.w3.org/2000/svg">
<g filter="url(#filter0_d_54_383)">
<path opacity="0.4" fill-rule="evenodd" clip-rule="evenodd" d="M88.2773 40.2832C85.3307 37.2199 82.0631 34.5067 78.5185 32.1874C70.5684 26.6297 62.21 21.67 53.516 17.3522C48.3668 14.7703 43.0424 12.5822 37.5722 10.8026C35.0778 9.88357 32.3938 9.56265 29.7535 9.85439C26.7777 10.3066 24.2396 12.2467 23.0142 15.0037C22.5845 16.0378 22.2413 17.109 21.9732 18.1946C19.3383 17.7151 16.4583 17.3698 13.9556 18.5629C12.3219 19.4381 11.082 20.9114 10.5131 22.6619C9.38985 25.9586 8.60214 29.372 8.13535 32.8146C7.49352 37.0303 7.11425 41.2751 6.98297 45.5346C6.95379 53.6888 7.6248 61.8431 9.01059 69.8806L9.04691 70.036C9.62076 72.4929 10.2685 75.2658 12.4969 76.7657C14.7725 78.2974 17.6754 77.9473 20.1844 77.4805C20.2241 77.473 20.2617 77.4656 20.2971 77.4581C20.2984 77.4705 20.2997 77.4828 20.301 77.4951C20.6511 79.5228 21.8764 81.6379 23.2185 83.2133C24.8814 84.9346 27.1132 85.9995 29.5055 86.1745C33.5024 86.5538 37.4555 85.4452 41.2045 84.1615C47.0102 82.0901 52.6116 79.4644 57.9214 76.3136C68.2053 70.1578 77.7599 62.8934 86.4393 54.6224C88.5107 52.5219 90.6112 50.1004 90.9905 47.0663C91.2239 44.5135 89.8965 42.1358 88.2773 40.2832ZM21.9899 18.2873L21.98 18.2479C21.9791 18.2509 21.9786 18.2537 21.9786 18.2566L21.9767 18.251L21.9746 18.2619L21.9785 18.2858L21.9899 18.2873Z" fill="url(#paint0_linear_54_383)"/>
<path fill-rule="evenodd" clip-rule="evenodd" d="M30.1546 34.0767C29.3849 40.0012 29 44.6947 29 48.1572C29 51.6256 29.3862 56.2184 30.1585 61.9356C30.3347 63.2399 31.5349 64.1545 32.8392 63.9783C32.9594 63.962 33.0783 63.9366 33.1947 63.9023C37.4899 62.6346 41.9803 60.7893 46.6659 58.3661C51.3688 55.934 55.9454 53.1233 60.3955 49.934C61.4653 49.1673 61.711 47.6785 60.9443 46.6087C60.7812 46.3812 60.5793 46.1842 60.3479 46.0267C55.5388 42.7545 50.9781 40.0034 46.6659 37.7734C42.376 35.5548 37.9114 33.6715 33.2723 32.1232C32.0238 31.7065 30.674 32.3809 30.2573 33.6293C30.2088 33.7748 30.1744 33.9246 30.1546 34.0767Z" fill="url(#paint1_linear_54_383)"/>
</g>
<defs>
<filter id="filter0_d_54_383" x="2.98206" y="7.75" width="92.0352" height="84.5" filterUnits="userSpaceOnUse" color-interpolation-filters="sRGB">
<feFlood flood-opacity="0" result="BackgroundImageFix"/>
<feColorMatrix in="SourceAlpha" type="matrix" values="0 0 0 0 0 0 0 0 0 0 0 0 0 0 0 0 0 0 127 0" result="hardAlpha"/>
<feOffset dy="2"/>
<feGaussianBlur stdDeviation="2"/>
<feColorMatrix type="matrix" values="0 0 0 0 0 0 0 0 0 0 0 0 0 0 0 0 0 0 0.2 0"/>
<feBlend mode="normal" in2="BackgroundImageFix" result="effect1_dropShadow_54_383"/>
<feBlend mode="normal" in="SourceGraphic" in2="effect1_dropShadow_54_383" result="shape"/>
</filter>
<linearGradient id="paint0_linear_54_383" x1="22.5487" y1="-4.59375" x2="74.9915" y2="117.407" gradientUnits="userSpaceOnUse">
<stop stop-color="#FFCA64"/>
<stop offset="1" stop-color="#C70000"/>
</linearGradient>
<linearGradient id="paint1_linear_54_383" x1="35" y1="26" x2="58.1648" y2="75.6564" gradientUnits="userSpaceOnUse">
<stop stop-color="#FFCA64"/>
<stop offset="1" stop-color="#C70000"/>
</linearGradient>
</defs>
</svg>
