<svg width="64" height="64" viewBox="0 0 64 64" fill="none" xmlns="http://www.w3.org/2000/svg">
<path opacity="0.4" d="M57.2 4H6.8C5.2536 4 4 5.2536 4 6.8V57.2C4 58.7464 5.2536 60 6.8 60H57.2C58.7464 60 60 58.7464 60 57.2V6.8C60 5.2536 58.7464 4 57.2 4Z" fill="url(#paint0_linear_37_328)"/>
<path d="M11 13C10.4477 13 10 13.4477 10 14V14.2C10 14.7523 10.4477 15.2 11 15.2H11.2C11.7523 15.2 12.2 15.6477 12.2 16.2V27.4C12.2 27.9523 11.7523 28.4 11.2 28.4H11C10.4477 28.4 10 28.8477 10 29.4V29.6C10 30.1523 10.4477 30.6 11 30.6H20C20.5523 30.6 21 30.1523 21 29.6V29.4C21 28.8477 21.4477 28.4 22 28.4H22.2C22.7523 28.4 23.2 27.9523 23.2 27.4V16.2C23.2 15.6477 22.7523 15.2 22.2 15.2H22C21.4477 15.2 21 14.7523 21 14.2V14C21 13.4477 20.5523 13 20 13H11ZM28.6 13C28.0477 13 27.6 13.4477 27.6 14V14.2C27.6 14.7523 27.1523 15.2 26.6 15.2H26.4C25.8477 15.2 25.4 15.6477 25.4 16.2V27.4C25.4 27.9523 25.8477 28.4 26.4 28.4H26.6C27.1523 28.4 27.6 28.8477 27.6 29.4V29.6C27.6 30.1523 28.0477 30.6 28.6 30.6H35.4C35.9523 30.6 36.4 30.1523 36.4 29.6V29.4C36.4 28.8477 36.8477 28.4 37.4 28.4H37.6C38.1523 28.4 38.6 27.9523 38.6 27.4V16.2C38.6 15.6477 38.1523 15.2 37.6 15.2H37.4C36.8477 15.2 36.4 14.7523 36.4 14.2V14C36.4 13.4477 35.9523 13 35.4 13H28.6ZM44 13C43.4477 13 43 13.4477 43 14V14.2C43 14.7523 42.5523 15.2 42 15.2H41.8C41.2477 15.2 40.8 15.6477 40.8 16.2V18.6C40.8 19.1523 41.2477 19.6 41.8 19.6H42C42.5523 19.6 43 20.0477 43 20.6V20.8C43 21.3523 43.4477 21.8 44 21.8H46.4C46.9523 21.8 47.4 22.2477 47.4 22.8V23C47.4 23.5523 47.8477 24 48.4 24H48.6C49.1523 24 49.6 24.4477 49.6 25V27.4C49.6 27.9523 49.1523 28.4 48.6 28.4H46.2C45.6477 28.4 45.2 27.9523 45.2 27.4V25C45.2 24.4477 44.7523 24 44.2 24H41.8C41.2477 24 40.8 24.4477 40.8 25V27.4C40.8 27.9523 41.2477 28.4 41.8 28.4H42C42.5523 28.4 43 28.8477 43 29.4V29.6C43 30.1523 43.4477 30.6 44 30.6H50.8C51.3523 30.6 51.8 30.1523 51.8 29.6V29.4C51.8 28.8477 52.2477 28.4 52.8 28.4H53C53.5523 28.4 54 27.9523 54 27.4V25C54 24.4477 53.5523 24 53 24H52.8C52.2477 24 51.8 23.5523 51.8 23V22.8C51.8 22.2477 51.3523 21.8 50.8 21.8H50.6C50.0477 21.8 49.6 21.3523 49.6 20.8V19.6H46.2C45.6477 19.6 45.2 19.1523 45.2 18.6V16.2C45.2 15.6477 45.6477 15.2 46.2 15.2H48.6C49.1523 15.2 49.6 15.6477 49.6 16.2V19.6H53C53.5523 19.6 54 19.1523 54 18.6V16.2C54 15.6477 53.5523 15.2 53 15.2H52.8C52.2477 15.2 51.8 14.7523 51.8 14.2V14C51.8 13.4477 51.3523 13 50.8 13H44ZM16.6 16.2C16.6 15.6477 17.0477 15.2 17.6 15.2H17.8C18.3523 15.2 18.8 15.6477 18.8 16.2V27.4C18.8 27.9523 18.3523 28.4 17.8 28.4H17.6C17.0477 28.4 16.6 27.9523 16.6 27.4V16.2ZM29.8 16.2C29.8 15.6477 30.2477 15.2 30.8 15.2H33.2C33.7523 15.2 34.2 15.6477 34.2 16.2V27.4C34.2 27.9523 33.7523 28.4 33.2 28.4H30.8C30.2477 28.4 29.8 27.9523 29.8 27.4V16.2Z" fill="url(#paint1_linear_37_328)"/>
<path fill-rule="evenodd" clip-rule="evenodd" d="M11 33C10.4477 33 10 33.4477 10 34V34.2C10 34.7523 10.4477 35.2 11 35.2H11.2C11.7523 35.2 12.2 35.6477 12.2 36.2V47.4C12.2 47.9523 11.7523 48.4 11.2 48.4H11C10.4477 48.4 10 48.8477 10 49.4V49.6C10 50.1523 10.4477 50.6 11 50.6H20C20.5523 50.6 21 50.1523 21 49.6V49.4C21 48.8477 21.4477 48.4 22 48.4H22.2C22.7523 48.4 23.2 47.9523 23.2 47.4V42.8C23.2 42.2477 22.7523 41.8 22.2 41.8H22C21.4477 41.8 21 41.3523 21 40.8V40.6C21 40.0477 21.4477 39.6 22 39.6H22.2C22.7523 39.6 23.2 39.1523 23.2 38.6V36.2C23.2 35.6477 22.7523 35.2 22.2 35.2H22C21.4477 35.2 21 34.7523 21 34.2V34C21 33.4477 20.5523 33 20 33H11ZM28.6 33C28.0477 33 27.6 33.4477 27.6 34V34.2C27.6 34.7523 27.1523 35.2 26.6 35.2H26.4C25.8477 35.2 25.4 35.6477 25.4 36.2V47.4C25.4 47.9523 25.8477 48.4 26.4 48.4H26.6C27.1523 48.4 27.6 48.8477 27.6 49.4V49.6C27.6 50.1523 28.0477 50.6 28.6 50.6H35.4C35.9523 50.6 36.4 50.1523 36.4 49.6V49.4C36.4 48.8477 36.8477 48.4 37.4 48.4H38.6V49.6C38.6 50.1523 39.0477 50.6 39.6 50.6H42C42.5523 50.6 43 50.1523 43 49.6V49.4C43 48.8477 43.4477 48.4 44 48.4H44.2C44.7523 48.4 45.2 47.9523 45.2 47.4V47.2C45.2 46.6477 45.6477 46.2 46.2 46.2H46.4C46.9523 46.2 47.4 46.6477 47.4 47.2V47.4C47.4 47.9523 47.8477 48.4 48.4 48.4H48.6C49.1523 48.4 49.6 48.8477 49.6 49.4V49.6C49.6 50.1523 50.0477 50.6 50.6 50.6H53C53.5523 50.6 54 50.1523 54 49.6V49.4C54 48.8477 53.5523 48.4 53 48.4H52.8C52.2477 48.4 51.8 47.9523 51.8 47.4V45C51.8 44.4477 51.3523 44 50.8 44H50.6C50.0477 44 49.6 43.5523 49.6 43V40.6C49.6 40.0477 50.0477 39.6 50.6 39.6H50.8C51.3523 39.6 51.8 39.1523 51.8 38.6V36.2C51.8 35.6477 52.2477 35.2 52.8 35.2H53C53.5523 35.2 54 34.7523 54 34.2V34C54 33.4477 53.5523 33 53 33H50.6C50.0477 33 49.6 33.4477 49.6 34V34.2C49.6 34.7523 49.1523 35.2 48.6 35.2H48.4C47.8477 35.2 47.4 35.6477 47.4 36.2V36.4C47.4 36.9523 46.9523 37.4 46.4 37.4H46.2C45.6477 37.4 45.2 36.9523 45.2 36.4V36.2C45.2 35.6477 44.7523 35.2 44.2 35.2H44C43.4477 35.2 43 34.7523 43 34.2V34C43 33.4477 42.5523 33 42 33H39.6C39.0477 33 38.6 33.4477 38.6 34V35.2H37.4C36.8477 35.2 36.4 34.7523 36.4 34.2V34C36.4 33.4477 35.9523 33 35.4 33H28.6ZM38.6 35.2V48.4H39.8C40.3523 48.4 40.8 47.9523 40.8 47.4V45C40.8 44.4477 41.2477 44 41.8 44H42C42.5523 44 43 43.5523 43 43V40.6C43 40.0477 42.5523 39.6 42 39.6H41.8C41.2477 39.6 40.8 39.1523 40.8 38.6V36.2C40.8 35.6477 40.3523 35.2 39.8 35.2H38.6ZM16.6 36.2C16.6 35.6477 17.0477 35.2 17.6 35.2H17.8C18.3523 35.2 18.8 35.6477 18.8 36.2V38.6C18.8 39.1523 18.3523 39.6 17.8 39.6H17.6C17.0477 39.6 16.6 39.1523 16.6 38.6V36.2ZM16.6 42.8C16.6 42.2477 17.0477 41.8 17.6 41.8H17.8C18.3523 41.8 18.8 42.2477 18.8 42.8V47.4C18.8 47.9523 18.3523 48.4 17.8 48.4H17.6C17.0477 48.4 16.6 47.9523 16.6 47.4V42.8ZM34.2 36.2C34.2 35.6477 33.7523 35.2 33.2 35.2H30.8C30.2477 35.2 29.8 35.6477 29.8 36.2V47.4C29.8 47.9523 30.2477 48.4 30.8 48.4H33.2C33.7523 48.4 34.2 47.9523 34.2 47.4V36.2Z" fill="url(#paint2_linear_37_328)"/>
<defs>
<linearGradient id="paint0_linear_37_328" x1="32" y1="60" x2="32" y2="4" gradientUnits="userSpaceOnUse">
<stop stop-color="#FD2E00"/>
<stop offset="1" stop-color="#FF9900"/>
</linearGradient>
<linearGradient id="paint1_linear_37_328" x1="32" y1="30.6" x2="32" y2="13" gradientUnits="userSpaceOnUse">
<stop stop-color="#FD2E00"/>
<stop offset="1" stop-color="#FF9900"/>
</linearGradient>
<linearGradient id="paint2_linear_37_328" x1="32" y1="50.6" x2="32" y2="33" gradientUnits="userSpaceOnUse">
<stop stop-color="#FD2E00"/>
<stop offset="1" stop-color="#FF9900"/>
</linearGradient>
</defs>
</svg>
