<svg width="48" height="48" viewBox="0 0 48 48" fill="none" xmlns="http://www.w3.org/2000/svg">
<path opacity="0.4" d="M24 46.764C36.5722 46.764 46.764 36.5722 46.764 24C46.764 11.4278 36.5722 1.23596 24 1.23596C11.4278 1.23596 1.23602 11.4278 1.23602 24C1.23602 36.5722 11.4278 46.764 24 46.764Z" fill="url(#paint0_linear_446_141)"/>
<path d="M24 37.845C23.854 37.845 22.138 29.068 21.203 28.211C20.9976 28.0222 20.6501 28.1007 20.3773 28.2296C20.0846 28.3679 19.8568 28.6863 19.6749 28.954C19.4238 29.3235 19.1665 29.7387 19.163 29.745C19.102 29.844 19.007 29.904 18.905 29.91C18.802 29.91 18.704 29.864 18.635 29.772C18.62 29.751 16.404 27.766 14.984 27.751H14.96C14.495 27.751 14.153 27.906 13.942 28.213C13.581 28.738 13.672 29.563 13.709 29.803C13.847 30.714 14.152 32.555 14.016 32.493C13.796 32.392 8.63002 28.964 7.94302 24.018C7.47302 20.637 9.46602 16.627 13.554 14.347C15.005 13.538 17.467 12.732 17.571 12.699C17.717 12.65 17.872 12.726 17.951 12.883C18.03 13.04 18.014 13.241 17.912 13.377C17.833 13.483 15.984 16.011 17.522 18.041C17.989 18.659 18.574 18.985 19.212 18.985C20.462 18.985 21.585 17.778 21.716 16.74C21.954 14.852 21.985 12.315 21.985 12.29C21.9871 12.16 22.7059 12.9897 23.1442 13.508C23.3474 13.7482 23.6943 13.8313 24.009 13.8281V13.8281C24.3402 13.8247 24.663 13.7356 24.8771 13.4828C25.3169 12.9633 26.0126 12.1621 26.014 12.29C26.015 12.316 26.046 14.852 26.284 16.74C26.415 17.778 27.537 18.985 28.787 18.985C29.426 18.985 30.011 18.659 30.478 18.041C32.021 16.003 30.168 13.484 30.088 13.377C29.986 13.241 29.97 13.04 30.049 12.883C30.128 12.726 30.283 12.651 30.429 12.699C30.533 12.733 32.995 13.538 34.445 14.347C38.534 16.627 40.527 20.637 40.057 24.018C39.369 28.964 34.203 32.393 33.984 32.493C33.848 32.556 34.153 30.711 34.291 29.803C34.327 29.563 34.418 28.738 34.057 28.212C33.847 27.906 33.505 27.751 33.04 27.751H33.017C31.596 27.766 29.568 29.767 29.553 29.788C29.485 29.88 29.387 29.931 29.283 29.926C29.2134 29.926 29.1471 29.8948 29.0926 29.8439C29.0405 29.7952 29.0056 29.7308 28.9658 29.6717C28.8054 29.4339 28.3649 28.7891 28.2099 28.5622C28.1733 28.5087 28.1444 28.4505 28.1083 28.3966C27.8621 28.029 27.133 27.8545 26.797 28.21C25.925 29.133 24.147 37.845 24 37.845Z" fill="url(#paint1_linear_446_141)"/>
<defs>
<linearGradient id="paint0_linear_446_141" x1="24" y1="46.764" x2="24" y2="1.23596" gradientUnits="userSpaceOnUse">
<stop stop-color="#A5A5A5"/>
<stop offset="0.9973" stop-color="#DCDCDC"/>
</linearGradient>
<linearGradient id="paint1_linear_446_141" x1="24.0383" y1="37.841" x2="33.0444" y2="16.4081" gradientUnits="userSpaceOnUse">
<stop stop-color="#979797"/>
<stop offset="1" stop-color="#4D4D4D"/>
</linearGradient>
</defs>
</svg>
