<svg width="128" height="128" viewBox="0 0 128 128" fill="none" xmlns="http://www.w3.org/2000/svg">
<g clip-path="url(#clip0_54_270)">
<g filter="url(#filter0_d_54_270)">
<path opacity="0.4" d="M109.5 11.5H18.5C11.8726 11.5 6.5 16.8726 6.5 23.5V104.5C6.5 111.127 11.8726 116.5 18.5 116.5H109.5C116.127 116.5 121.5 111.127 121.5 104.5V23.5C121.5 16.8726 116.127 11.5 109.5 11.5Z" fill="url(#paint0_linear_54_270)"/>
<path fill-rule="evenodd" clip-rule="evenodd" d="M33.5 29H22.5C21.1193 29 20 30.1193 20 31.5V42.5C20 43.8807 21.1193 45 22.5 45H33.5C34.8807 45 36 43.8807 36 42.5V31.5C36 30.1193 34.8807 29 33.5 29ZM109.5 93H18.5C16.0147 93 14 95.0147 14 97.5V104.5C14 106.985 16.0147 109 18.5 109H109.5C111.985 109 114 106.985 114 104.5V97.5C114 95.0147 111.985 93 109.5 93ZM22.5 57H33.5C34.8807 57 36 58.1193 36 59.5V70.5C36 71.8807 34.8807 73 33.5 73H22.5C21.1193 73 20 71.8807 20 70.5V59.5C20 58.1193 21.1193 57 22.5 57Z" fill="url(#paint1_linear_54_270)"/>
</g>
</g>
<defs>
<filter id="filter0_d_54_270" x="-13.5" y="-0.5" width="155" height="145" filterUnits="userSpaceOnUse" color-interpolation-filters="sRGB">
<feFlood flood-opacity="0" result="BackgroundImageFix"/>
<feColorMatrix in="SourceAlpha" type="matrix" values="0 0 0 0 0 0 0 0 0 0 0 0 0 0 0 0 0 0 127 0" result="hardAlpha"/>
<feOffset dy="8"/>
<feGaussianBlur stdDeviation="10"/>
<feComposite in2="hardAlpha" operator="out"/>
<feColorMatrix type="matrix" values="0 0 0 0 0 0 0 0 0 0 0 0 0 0 0 0 0 0 0.2 0"/>
<feBlend mode="normal" in2="BackgroundImageFix" result="effect1_dropShadow_54_270"/>
<feBlend mode="normal" in="SourceGraphic" in2="effect1_dropShadow_54_270" result="shape"/>
</filter>
<linearGradient id="paint0_linear_54_270" x1="5756.5" y1="11.5" x2="5756.5" y2="10511.5" gradientUnits="userSpaceOnUse">
<stop stop-color="#00D479"/>
<stop offset="1" stop-color="#02A5CB"/>
</linearGradient>
<linearGradient id="paint1_linear_54_270" x1="5014" y1="29" x2="5014" y2="8029" gradientUnits="userSpaceOnUse">
<stop stop-color="#00D479"/>
<stop offset="1" stop-color="#02A5CB"/>
</linearGradient>
<clipPath id="clip0_54_270">
<rect width="128" height="128" fill="white"/>
</clipPath>
</defs>
</svg>
