<svg width="128" height="128" viewBox="0 0 128 128" fill="none" xmlns="http://www.w3.org/2000/svg">
<rect opacity="0.4" x="8" y="8" width="112" height="112" rx="24" fill="url(#paint0_linear_60_118)"/>
<path d="M37 20C31.4304 20 26.089 22.2125 22.1508 26.1508C18.2125 30.089 16 35.4304 16 41C16 46.5696 18.2125 51.911 22.1508 55.8492C26.089 59.7875 31.4304 62 37 62C39.8048 61.9944 42.5774 61.427 45.155 60.3342C45.5735 60.1567 46.0624 60.2636 46.3533 60.613L54.463 70.355C54.7736 70.728 54.7714 71.2702 54.4579 71.6407L27.1764 103.882C26.4159 104.781 27.563 106.026 28.521 105.342L63.4188 80.4152C63.7665 80.1668 64.2335 80.1668 64.5812 80.4152L99.479 105.342C100.437 106.026 101.584 104.781 100.824 103.882L73.5418 71.6403C73.2284 71.2699 73.226 70.7281 73.5362 70.355L81.6437 60.6026C81.9348 60.2524 82.4247 60.1455 82.8437 60.3237C85.4209 61.4203 88.194 61.9913 91 62C96.5697 62 101.911 59.7875 105.849 55.8492C109.788 51.911 112 46.5696 112 41C111.996 40.9492 111.993 40.8984 111.988 40.8476C111.988 40.7294 111.982 40.6142 111.976 40.496C111.95 39.5496 111.859 38.606 111.706 37.6718C111.598 36.9548 111.43 36.2552 111.25 35.5508C111.144 35.1371 111.027 34.7267 110.896 34.3202C110.518 33.1526 110.02 32.0318 109.432 30.9338C108.508 29.2052 107.422 27.5426 105.976 26.0822C102.76 22.8374 98.7462 20.954 94.576 20.3048C94.5222 20.2968 94.4684 20.289 94.4138 20.2814C93.4987 20.1345 92.5746 20.0482 91.648 20.0234C91.576 20.0228 91.504 20 91.432 20C91.396 20 91.36 20.0114 91.33 20.012C91.222 20.0072 91.114 20.0031 91.006 20C85.4365 20 80.095 22.2125 76.1567 26.1508C72.2185 30.089 70.006 35.4304 70.006 41C70.013 44.1008 70.7066 47.1588 72.0339 49.9556C72.1948 50.2946 72.1658 50.6954 71.9462 50.9997L64.8165 60.8772C64.4175 61.43 63.5944 61.4302 63.1951 60.8775L56.0754 51.0226C55.8557 50.7186 55.8265 50.3181 55.987 49.9791C57.3145 47.1745 58.0052 44.108 58.006 41C58.006 38.242 57.4627 35.511 56.4071 32.963C55.3516 30.4149 53.8046 28.0998 51.8542 26.1497C49.9038 24.1997 47.5885 22.6528 45.0403 21.5977C42.4921 20.5425 39.758 19.9996 37 20ZM37 32C39.3869 32 41.6761 32.9482 43.364 34.636C45.0518 36.3239 46 38.6131 46 41C46 43.3869 45.0518 45.6761 43.364 47.364C41.6761 49.0518 39.3869 50 37 50C34.6131 50 32.3239 49.0518 30.636 47.364C28.9482 45.6761 28 43.3869 28 41C28 38.6131 28.9482 36.3239 30.636 34.636C32.3239 32.9482 34.6131 32 37 32ZM91 32C93.3869 32 95.6759 32.9482 97.3641 34.636C99.0516 36.3239 100 38.6131 100 41C100 43.3869 99.0516 45.6761 97.3641 47.364C95.6759 49.0518 93.3869 50 91 50C88.6131 50 86.3239 49.0518 84.636 47.364C82.9483 45.6761 82 43.3869 82 41C82 38.6131 82.9483 36.3239 84.636 34.636C86.3239 32.9482 88.6131 32 91 32Z" fill="url(#paint1_linear_60_118)"/>
<defs>
<linearGradient id="paint0_linear_60_118" x1="8" y1="64" x2="120" y2="64" gradientUnits="userSpaceOnUse">
<stop stop-color="#02AA93"/>
<stop offset="1" stop-color="#67FF80"/>
</linearGradient>
<linearGradient id="paint1_linear_60_118" x1="16" y1="65" x2="112" y2="65" gradientUnits="userSpaceOnUse">
<stop stop-color="#02AA93"/>
<stop offset="1" stop-color="#67FF80"/>
</linearGradient>
</defs>
</svg>
