<svg width="128" height="128" viewBox="0 0 128 128" fill="none" xmlns="http://www.w3.org/2000/svg">
<rect opacity="0.4" x="8" y="8" width="112" height="112" rx="24" fill="url(#paint0_linear_60_127)"/>
<path d="M41.875 14C29.7937 14 20 23.7938 20 35.875C20 47.9562 29.7937 57.75 41.875 57.75C43.5025 57.7431 45.1238 57.555 46.7088 57.1888L57.5 73.375C43.4375 95.25 63.75 114 63.75 114C63.75 114 84.0625 95.25 70 73.375L80.8062 57.1888C82.3875 57.5538 84 57.7425 85.625 57.75C97.706 57.75 107.5 47.9562 107.5 35.875C107.5 23.7938 97.706 14 85.625 14C73.5437 14 63.75 23.7938 63.75 35.875C63.7575 40.913 65.5038 45.7938 68.6939 49.6931L63.7501 57.75L58.8189 49.7056C62.0064 45.8013 63.75 40.9156 63.75 35.875C63.75 23.7938 53.9562 14 41.875 14ZM41.875 26.5C47.0525 26.5 51.25 30.6975 51.25 35.875C51.25 41.0525 47.0525 45.25 41.875 45.25C36.6975 45.25 32.5 41.0525 32.5 35.875C32.5 30.6975 36.6975 26.5 41.875 26.5ZM85.625 26.5C90.8 26.5 95 30.6975 95 35.875C95 41.0525 90.8 45.25 85.625 45.25C80.45 45.25 76.25 41.0525 76.25 35.875C76.25 30.6975 80.45 26.5 85.625 26.5Z" fill="url(#paint1_linear_60_127)"/>
<defs>
<linearGradient id="paint0_linear_60_127" x1="6.38113" y1="9.10207" x2="121.844" y2="128.097" gradientUnits="userSpaceOnUse">
<stop stop-color="#F9D423"/>
<stop offset="0.515624" stop-color="#FF4E50"/>
<stop offset="0.991304" stop-color="#8A2387"/>
</linearGradient>
<linearGradient id="paint1_linear_60_127" x1="18.7353" y1="14.984" x2="121.325" y2="107.496" gradientUnits="userSpaceOnUse">
<stop stop-color="#F9D423"/>
<stop offset="0.515624" stop-color="#FF4E50"/>
<stop offset="0.991304" stop-color="#8A2387"/>
</linearGradient>
</defs>
</svg>
