<svg width="192" height="192" viewBox="0 0 192 192" fill="none" xmlns="http://www.w3.org/2000/svg">
<path d="M79.496 10.8082C96.616 7.13815 114.936 9.05815 130.796 16.5382C127.586 19.2882 124.646 22.3582 122.286 25.8882C105.756 19.7782 86.976 19.3582 70.426 25.6282C70.596 24.0582 70.536 22.3282 71.586 21.0182C74.026 17.4682 76.766 14.1382 79.496 10.8082Z" fill="url(#paint0_linear_60_276)"/>
<path d="M18.8659 61.1081C29.2759 35.8981 52.326 15.5482 79.496 10.8082C76.766 14.1382 74.026 17.4682 71.586 21.0182C70.536 22.3282 70.596 24.0582 70.426 25.6282C53.926 32.4182 39.6359 45.1281 31.8959 61.2981C26.9459 71.3481 25.0659 82.6381 25.0959 93.7681C20.9159 97.1681 18.3959 102.058 14.4359 105.668C11.4059 90.8581 13.3059 75.1181 18.8659 61.1081Z" fill="url(#paint1_linear_60_276)"/>
<path d="M122.286 25.8882C124.646 22.3582 127.586 19.2882 130.796 16.5382C144.086 22.9882 155.816 32.6582 164.426 44.6882C159.546 43.5382 157.006 48.5382 154.246 51.5282C148.936 44.2482 142.666 37.5582 135.086 32.6082C131.116 29.8582 126.786 27.6482 122.286 25.8882Z" fill="url(#paint2_linear_60_276)"/>
<path d="M65.4158 44.7982C76.0758 37.9682 89.0458 34.6282 101.686 35.9782C112.666 37.1082 123.186 41.6582 131.776 48.5582C128.826 51.2982 125.976 54.1582 123.236 57.1182C122.516 56.6182 121.796 56.1182 121.086 55.6282C103.706 42.7982 77.3258 46.5782 63.1558 62.4982C54.3958 72.0182 50.4258 85.5882 52.3358 98.3582C53.2358 104.258 55.3958 109.958 58.6058 114.988C59.8258 117.148 61.6858 119.348 61.2158 122.008C60.6858 126.208 55.0758 128.478 51.7658 125.858C49.9558 124.298 48.7458 122.198 47.4958 120.198C40.8558 108.798 38.3258 95.0382 40.6858 82.0482C43.3358 66.9282 52.5058 53.0982 65.4158 44.7982Z" fill="url(#paint3_linear_60_276)"/>
<path d="M154.246 51.5282C157.006 48.5382 159.546 43.5382 164.426 44.6882C172.336 56.2982 177.196 69.8582 178.806 83.8082C180.726 107.498 172.746 132.228 155.716 149.078C153.606 151.378 150.386 150.628 147.696 150.198C146.106 147.558 144.486 144.048 146.966 141.358C152.676 134.838 158.066 127.848 161.316 119.728C167.286 104.788 168.946 87.8082 164.346 72.2582C162.206 64.8182 158.576 57.8982 154.246 51.5282Z" fill="url(#paint4_linear_60_276)"/>
<path d="M123.236 57.1182C125.976 54.1582 128.826 51.2982 131.776 48.5582C142.786 57.5282 150.016 70.7782 151.946 84.8182C153.536 98.5882 150.106 113.008 141.776 124.178C140.236 126.588 137.266 126.818 134.716 127.188C133.306 125.528 131.056 124.218 130.906 121.828C130.576 119.238 132.326 117.068 133.546 114.958C139.366 105.868 141.276 94.5782 139.566 83.9882C137.686 73.3982 131.446 63.9182 123.236 57.1182Z" fill="url(#paint5_linear_60_276)"/>
<path d="M14.4359 105.668C18.3959 102.058 20.9159 97.1681 25.0959 93.7681C25.1659 95.6281 25.3059 97.4782 25.4959 99.3282C26.8759 113.888 33.2259 127.798 42.9659 138.658C44.7059 140.658 46.8859 142.938 46.3359 145.838C45.9259 150.458 39.5559 152.568 36.3659 149.298C24.7059 137.618 17.1359 122.208 14.0459 106.058L14.4359 105.668Z" fill="url(#paint6_linear_60_276)"/>
<path d="M79.496 10.8082C96.616 7.13815 114.936 9.05815 130.796 16.5382M79.496 10.8082C76.766 14.1382 74.026 17.4682 71.586 21.0182C70.536 22.3282 70.596 24.0582 70.426 25.6282M79.496 10.8082C52.326 15.5482 29.2759 35.8981 18.8659 61.1081C13.3059 75.1181 11.4059 90.8581 14.4359 105.668M130.796 16.5382C127.586 19.2882 124.646 22.3582 122.286 25.8882M130.796 16.5382C144.086 22.9882 155.816 32.6582 164.426 44.6882M122.286 25.8882C105.756 19.7782 86.976 19.3582 70.426 25.6282M122.286 25.8882C126.786 27.6482 131.116 29.8582 135.086 32.6082C142.666 37.5582 148.936 44.2482 154.246 51.5282M70.426 25.6282C53.926 32.4182 39.6359 45.1281 31.8959 61.2981C26.9459 71.3481 25.0659 82.6381 25.0959 93.7681M25.0959 93.7681C20.9159 97.1681 18.3959 102.058 14.4359 105.668M25.0959 93.7681C25.1659 95.6281 25.3059 97.4782 25.4959 99.3282C26.8759 113.888 33.2259 127.798 42.9659 138.658C44.7059 140.658 46.8859 142.938 46.3359 145.838C45.9259 150.458 39.5559 152.568 36.3659 149.298C24.7059 137.618 17.1359 122.208 14.0459 106.058L14.4359 105.668M164.426 44.6882C159.546 43.5382 157.006 48.5382 154.246 51.5282M164.426 44.6882C172.336 56.2982 177.196 69.8582 178.806 83.8082C180.726 107.498 172.746 132.228 155.716 149.078C153.606 151.378 150.386 150.628 147.696 150.198C146.106 147.558 144.486 144.048 146.966 141.358C152.676 134.838 158.066 127.848 161.316 119.728C167.286 104.788 168.946 87.8082 164.346 72.2582C162.206 64.8182 158.576 57.8982 154.246 51.5282M131.776 48.5582C123.186 41.6582 112.666 37.1082 101.686 35.9782C89.0458 34.6282 76.0758 37.9682 65.4158 44.7982C52.5058 53.0982 43.3358 66.9282 40.6858 82.0482C38.3258 95.0382 40.8558 108.798 47.4958 120.198C48.7458 122.198 49.9558 124.298 51.7658 125.858C55.0758 128.478 60.6858 126.208 61.2158 122.008C61.6858 119.348 59.8258 117.148 58.6058 114.988C55.3958 109.958 53.2358 104.258 52.3358 98.3582C50.4258 85.5882 54.3958 72.0182 63.1558 62.4982C77.3258 46.5782 103.706 42.7982 121.086 55.6282C121.796 56.1182 122.516 56.6182 123.236 57.1182M131.776 48.5582C128.826 51.2982 125.976 54.1582 123.236 57.1182M131.776 48.5582C142.786 57.5282 150.016 70.7782 151.946 84.8182C153.536 98.5882 150.106 113.008 141.776 124.178C140.236 126.588 137.266 126.818 134.716 127.188C133.306 125.528 131.056 124.218 130.906 121.828C130.576 119.238 132.326 117.068 133.546 114.958C139.366 105.868 141.276 94.5782 139.566 83.9882C137.686 73.3982 131.446 63.9182 123.236 57.1182" stroke="url(#paint7_linear_60_276)" stroke-width="6"/>
<path opacity="0.4" fill-rule="evenodd" clip-rule="evenodd" d="M97.6361 62.5682C84.7961 61.6082 72.0661 70.2082 68.1461 82.4582C66.2161 87.8682 64.9061 95.4382 70.6561 98.9982C70.7851 98.983 70.9159 98.9679 71.048 98.9526C73.693 98.6473 76.9099 98.2759 77.9861 95.4282C78.3555 93.9954 78.5516 92.4986 78.748 90.9992C79.163 87.8312 79.5795 84.6514 81.6361 82.0382C86.7161 74.0982 98.4461 72.0382 106.006 77.6282C108.556 79.4482 110.566 81.9982 111.836 84.8582C112.713 86.7094 112.995 88.7324 113.275 90.7483C113.639 93.3716 114.002 95.9829 115.676 98.1882C116.237 98.2045 116.82 98.2662 117.411 98.3287C119.35 98.5335 121.37 98.7469 122.926 97.3982C125.647 95.336 125.539 91.7122 125.446 88.5944C125.438 88.3557 125.431 88.12 125.426 87.8882C123.576 74.2982 111.326 63.1782 97.6361 62.5682ZM88.7422 96.6471C92.1227 91.5917 100.099 91.9424 103.39 96.9256C105.157 99.2485 105.272 102.124 105.387 104.984C105.44 106.317 105.493 107.646 105.713 108.914C106.114 112.948 107.641 116.644 109.26 120.28L132.782 167.351C136.437 174.665 131.118 183.268 122.942 183.268H69.3296C61.1534 183.268 55.8349 174.665 59.4898 167.351L78.6827 128.944C81.2731 123.577 83.8452 118.201 86.3502 112.793C86.8066 110.802 86.7731 108.672 86.7395 106.542C86.6843 103.045 86.6291 99.5452 88.7422 96.6471Z" fill="url(#paint8_linear_60_276)"/>
<defs>
<linearGradient id="paint0_linear_60_276" x1="96.043" y1="150.881" x2="96.043" y2="9" gradientUnits="userSpaceOnUse">
<stop stop-color="#FD5900"/>
<stop offset="1" stop-color="#FFDE00"/>
</linearGradient>
<linearGradient id="paint1_linear_60_276" x1="96.043" y1="150.881" x2="96.043" y2="9" gradientUnits="userSpaceOnUse">
<stop stop-color="#FD5900"/>
<stop offset="1" stop-color="#FFDE00"/>
</linearGradient>
<linearGradient id="paint2_linear_60_276" x1="96.043" y1="150.881" x2="96.043" y2="9" gradientUnits="userSpaceOnUse">
<stop stop-color="#FD5900"/>
<stop offset="1" stop-color="#FFDE00"/>
</linearGradient>
<linearGradient id="paint3_linear_60_276" x1="96.043" y1="150.881" x2="96.043" y2="9" gradientUnits="userSpaceOnUse">
<stop stop-color="#FD5900"/>
<stop offset="1" stop-color="#FFDE00"/>
</linearGradient>
<linearGradient id="paint4_linear_60_276" x1="96.043" y1="150.881" x2="96.043" y2="9" gradientUnits="userSpaceOnUse">
<stop stop-color="#FD5900"/>
<stop offset="1" stop-color="#FFDE00"/>
</linearGradient>
<linearGradient id="paint5_linear_60_276" x1="96.043" y1="150.881" x2="96.043" y2="9" gradientUnits="userSpaceOnUse">
<stop stop-color="#FD5900"/>
<stop offset="1" stop-color="#FFDE00"/>
</linearGradient>
<linearGradient id="paint6_linear_60_276" x1="96.043" y1="150.881" x2="96.043" y2="9" gradientUnits="userSpaceOnUse">
<stop stop-color="#FD5900"/>
<stop offset="1" stop-color="#FFDE00"/>
</linearGradient>
<linearGradient id="paint7_linear_60_276" x1="96.043" y1="150.881" x2="96.043" y2="9" gradientUnits="userSpaceOnUse">
<stop stop-color="#FD5900"/>
<stop offset="1" stop-color="#FFDE00"/>
</linearGradient>
<linearGradient id="paint8_linear_60_276" x1="72.2816" y1="0.89419" x2="221.31" y2="171.239" gradientUnits="userSpaceOnUse">
<stop stop-color="#FD5900"/>
<stop offset="1" stop-color="#FFDE00"/>
</linearGradient>
</defs>
</svg>
