<svg width="48" height="48" viewBox="0 0 48 48" fill="none" xmlns="http://www.w3.org/2000/svg">
<path opacity="0.5" fill-rule="evenodd" clip-rule="evenodd" d="M6.16309 8.26183C6.16309 7.38992 6.9584 6.68799 7.94678 6.68799H40.0532C41.0416 6.68799 41.8369 7.38992 41.8369 8.26183V9.43893C44.2315 10.2009 46.0338 13.5196 46.0338 17.4983C46.0338 21.6863 44.0368 25.1431 41.4541 25.6564C39.7463 32.7635 32.5321 38.1649 24 38.1649C15.4679 38.1649 8.25366 32.7636 6.54592 25.6564C3.96315 25.1432 1.96606 21.6863 1.96606 17.4983C1.96606 13.5196 3.76844 10.2008 6.16309 9.43889V8.26183Z" fill="url(#paint0_linear_343_547)"/>
<path d="M28.0185 26.6233C28.6207 30.5527 26.9241 35.5145 24.9369 36.0591C21.4209 36.9457 24.6725 29.9085 18.6604 28.7218C20.3391 31.5705 18.1316 32.5725 15.0542 32.9428C13.9567 33.0667 13.1058 32.4791 13.6073 30.9367C13.5118 30.6209 13.1519 30.1005 12.5916 29.9085C12.0471 29.6797 11.533 29.9179 11.0178 29.8329C11.0125 29.877 10.9611 29.9347 11.0094 29.9651C12.0649 31.049 11.8162 31.9041 10.8037 32.4077C10.4585 32.5116 10.1417 32.4843 9.86992 32.3437C9.50269 32.1538 9.43869 31.9335 9.5562 31.7058C9.63909 31.5442 9.79438 31.3879 9.88461 31.2274C9.90875 31.1833 9.81746 31.1287 9.77864 31.0784C9.66428 31.1004 9.5006 31.1098 9.44394 31.1466C6.2186 33.0425 10.4449 37.2499 12.025 38.2897C15.2808 40.2549 19.0024 41.3052 22.8101 41.3126C31.6876 40.9233 40.178 36.3487 36.9338 31.4026C37.024 33.0069 35.6096 34.9511 32.4693 33.8599C33.5741 30.7437 27.7026 26.1491 28.0185 26.6233Z" fill="url(#paint1_linear_343_547)"/>
<defs>
<linearGradient id="paint0_linear_343_547" x1="46.0338" y1="38.1649" x2="21.347" y2="3.21613" gradientUnits="userSpaceOnUse">
<stop offset="0.17063" stop-color="#FF5D00"/>
<stop offset="0.905415" stop-color="#FF9100"/>
</linearGradient>
<linearGradient id="paint1_linear_343_547" x1="37.6399" y1="41.3126" x2="27.8904" y2="21.6408" gradientUnits="userSpaceOnUse">
<stop offset="0.17063" stop-color="#FF5D00"/>
<stop offset="0.905415" stop-color="#FF9100"/>
</linearGradient>
</defs>
</svg>
