<svg width="24" height="24" viewBox="0 0 24 24" fill="none" xmlns="http://www.w3.org/2000/svg">
<path opacity="0.5" d="M16.7146 20.6C20.1862 20.6 23 17.8192 23 14.3883C23 11.6691 21.2323 9.358 18.7705 8.5165C18.4207 5.4134 15.7565 3 12.5236 3C9.052 3 6.2382 5.7808 6.2382 9.2117C6.2382 9.9707 6.3757 10.6967 6.6276 11.3699C6.32678 11.3114 6.02105 11.282 5.7146 11.2819C3.1109 11.283 1 13.3686 1 15.9415C1 18.5144 3.1109 20.6 5.7146 20.6H16.7146Z" fill="url(#paint0_linear_39_211)"/>
<path d="M10.8125 12C9.25919 12 8 13.2592 8 14.8125C8 16.3658 9.25919 17.625 10.8125 17.625C11.9265 17.6232 12.9267 16.9656 13.3757 15.9615C13.4314 15.8368 13.5515 15.7498 13.688 15.7497L15.177 15.7479C15.3553 15.7477 15.5 15.8923 15.5 16.0705V16.675C15.5 16.8531 15.6444 16.9976 15.8226 16.9976H17.0524C17.2306 16.9976 17.375 16.8531 17.375 16.675V16.0576C17.375 15.8852 17.5151 15.7456 17.6875 15.7463C17.8599 15.7469 18 15.6075 18 15.435V14.1953C18 14.0171 17.8555 13.8726 17.6772 13.8727L13.6884 13.8749C13.5517 13.875 13.4314 13.7879 13.3755 13.6631C12.9264 12.6591 11.9264 12.0016 10.8125 12ZM10.8125 13.875C11.3303 13.875 11.75 14.2947 11.75 14.8125C11.75 15.3303 11.3303 15.75 10.8125 15.75C10.2947 15.75 9.875 15.3303 9.875 14.8125C9.875 14.2947 10.2947 13.875 10.8125 13.875Z" fill="url(#paint1_linear_39_211)"/>
<defs>
<linearGradient id="paint0_linear_39_211" x1="12" y1="20.6" x2="12" y2="3" gradientUnits="userSpaceOnUse">
<stop stop-color="#00B59C"/>
<stop offset="1" stop-color="#9CFFAC"/>
</linearGradient>
<linearGradient id="paint1_linear_39_211" x1="13" y1="17.625" x2="13" y2="12" gradientUnits="userSpaceOnUse">
<stop stop-color="#00B59C"/>
<stop offset="1" stop-color="#9CFFAC"/>
</linearGradient>
</defs>
</svg>
