<svg width="64" height="64" viewBox="0 0 64 64" fill="none" xmlns="http://www.w3.org/2000/svg">
<path d="M39.2376 15.3883C38.8364 14.2475 40.5613 13.2732 41.2437 14.2716C59.9755 41.6795 53.3426 53.5681 21.3435 49.9346C20.1519 49.7993 20.1945 47.8426 21.3763 47.6389C39.7333 44.4759 45.6878 33.726 39.2376 15.3883Z" fill="url(#paint0_linear_60_149)"/>
<path d="M30.9577 13.4385C9.80884 13.8162 6.44999 25.0768 20.691 47.1083C20.9063 47.4415 21.3055 47.6231 21.6962 47.5549C22.0849 47.4871 22.4692 47.4169 22.8474 47.3428C23.4234 47.2299 23.7575 46.628 23.5895 46.0657C18.5779 29.2987 24.7746 19.3856 42.2394 16.3653C43.4212 16.1609 43.49 14.2051 42.2984 14.0696C38.0774 13.5894 34.2973 13.3788 30.9577 13.4385ZM24.3427 50.2159C23.6684 50.1529 23.2243 50.9003 23.6127 51.4551C23.647 51.5041 23.6813 51.5532 23.7158 51.6022C24.2556 52.3718 25.5432 51.5826 25.2034 50.7061V50.7061C25.095 50.4266 24.8476 50.2617 24.549 50.2348C24.4805 50.2286 24.4117 50.2223 24.3427 50.2159Z" fill="url(#paint1_linear_60_149)"/>
<g opacity="0.4">
<path d="M40.8504 9.34111C40.4158 8.2126 42.0796 7.23088 42.7755 8.21988C67.9342 43.9745 59.4953 59.1727 17.4568 53.8104C16.2672 53.6587 16.3358 51.7528 17.5234 51.5859C42.5641 48.0655 50.3409 33.9844 40.8504 9.34111Z" fill="url(#paint2_linear_60_149)"/>
<path d="M30.2576 9.15422C4.18696 9.61986 0.0808985 23.5221 17.7043 50.7226C17.92 51.0555 18.3195 51.2377 18.7103 51.1701C19.3244 51.064 19.9301 50.9532 20.5228 50.8342C21.0982 50.7186 21.4318 50.1143 21.2615 49.5526C14.7569 28.0947 23.0726 15.6993 46.2904 12.4198C47.478 12.2521 47.5632 10.3432 46.3735 10.1915C40.3008 9.41696 34.9291 9.07067 30.2576 9.15422ZM22.116 54.4194C21.286 54.3418 20.7394 55.2618 21.2175 55.9447C21.2597 56.005 21.302 56.0653 21.3443 56.1257C22.0088 57.0728 23.5935 56.1015 23.1753 55.0228V55.0228C23.0419 54.6787 22.7374 54.4758 22.3699 54.4427C22.2855 54.4351 22.2009 54.4273 22.116 54.4194Z" fill="url(#paint3_linear_60_149)"/>
</g>
<defs>
<linearGradient id="paint0_linear_60_149" x1="31.8093" y1="50.5725" x2="31.8093" y2="6" gradientUnits="userSpaceOnUse">
<stop stop-color="#FD5900"/>
<stop offset="1" stop-color="#FFDE00"/>
</linearGradient>
<linearGradient id="paint1_linear_60_149" x1="31.8404" y1="58" x2="31.8404" y2="13.4294" gradientUnits="userSpaceOnUse">
<stop stop-color="#5570FF"/>
<stop offset="1" stop-color="#4DD3FF"/>
</linearGradient>
<linearGradient id="paint2_linear_60_149" x1="32.5239" y1="54.8593" x2="32.5239" y2="0" gradientUnits="userSpaceOnUse">
<stop stop-color="#FD5900"/>
<stop offset="1" stop-color="#FFDE00"/>
</linearGradient>
<linearGradient id="paint3_linear_60_149" x1="31.344" y1="64" x2="31.344" y2="9.14302" gradientUnits="userSpaceOnUse">
<stop stop-color="#5570FF"/>
<stop offset="1" stop-color="#4DD3FF"/>
</linearGradient>
</defs>
</svg>
