<svg width="64" height="64" viewBox="0 0 64 64" fill="none" xmlns="http://www.w3.org/2000/svg">
<path opacity="0.5" d="M36.5308 13.675C30.2324 13.675 24.817 17.3443 22.4284 22.6055C21.1493 21.6023 19.545 21.0028 17.802 21.0028C13.6966 21.0028 10.3571 24.3146 10.2523 28.4385C6.01589 30.0458 3 34.179 3 39.0241C3.49314 44.8355 8.3537 49.5112 12.6672 50.3279H51.3328V50.3095C56.725 49.9935 61 45.472 61 39.9411C61 34.6074 57.0256 30.2123 51.9061 29.622C51.9277 29.2969 51.9385 28.9717 51.9385 28.6404C51.9385 20.374 45.0406 13.6719 36.5308 13.6719V13.675Z" fill="url(#paint0_linear_343_555)"/>
<path fill-rule="evenodd" clip-rule="evenodd" d="M31.8736 22.0654C35.1437 22.0654 37.8375 24.7577 37.8375 28.0279V29.4119C37.8375 29.9642 38.2853 30.4119 38.8375 30.4119H39.0273C40.3356 30.4119 41.4113 31.4876 41.4113 32.796V44.7223C41.4113 46.0307 40.3356 47.1079 39.0273 47.1079H24.7184C23.41 47.1079 22.3328 46.0307 22.3328 44.7223V32.796C22.3328 31.4722 23.4069 30.4119 24.7184 30.4119H24.9111C25.4634 30.4119 25.9111 29.9642 25.9111 29.4119V28.0294V28.0279C25.9111 24.7577 28.6019 22.0654 31.8736 22.0654ZM31.8737 24.4511C29.9119 24.4511 28.2968 26.0662 28.2968 28.0295V29.412C28.2968 29.9643 28.7446 30.412 29.2969 30.412H34.4521C35.0044 30.412 35.4521 29.9643 35.4521 29.412V28.0295C35.4521 26.0662 33.8355 24.4511 31.8737 24.4511ZM31.8737 36.3745C30.5653 36.3745 29.4896 37.4517 29.4896 38.76C29.4896 40.0684 30.5653 41.1441 31.8737 41.1441C33.1821 41.1441 34.2593 40.0684 34.2593 38.76C34.2593 37.4363 33.1867 36.3745 31.8737 36.3745Z" fill="url(#paint1_linear_343_555)"/>
<defs>
<linearGradient id="paint0_linear_343_555" x1="50.2298" y1="43.7421" x2="32.648" y2="11.7416" gradientUnits="userSpaceOnUse">
<stop stop-color="#248EFE"/>
<stop offset="1" stop-color="#1DF4FF"/>
</linearGradient>
<linearGradient id="paint1_linear_343_555" x1="37.8685" y1="42.6086" x2="23.761" y2="30.2454" gradientUnits="userSpaceOnUse">
<stop stop-color="#248EFE"/>
<stop offset="1" stop-color="#1DF4FF"/>
</linearGradient>
</defs>
</svg>
