<svg width="24" height="24" viewBox="0 0 24 24" fill="none" xmlns="http://www.w3.org/2000/svg">
<path opacity="0.4" d="M1 12C1 6.8146 1 4.2219 2.6104 2.6104C4.223 1 6.8146 1 12 1C17.1854 1 19.7781 1 21.3885 2.6104C23 4.223 23 6.8146 23 12C23 17.1854 23 19.7781 21.3885 21.3885C19.7792 23 17.1854 23 12 23C6.8146 23 4.2219 23 2.6104 21.3885C1 19.7792 1 17.1854 1 12Z" fill="url(#paint0_linear_49_112)"/>
<path d="M4.58783 15.5879L4.58782 15.5879C4.53163 15.6441 4.5 15.7204 4.5 15.8V17.4C4.5 17.4796 4.53163 17.5559 4.58782 17.6121L4.58783 17.6121C4.64412 17.6684 4.72045 17.7 4.8 17.7H6.4C6.47954 17.7 6.55586 17.6684 6.61215 17.6121L4.58783 15.5879ZM4.58783 15.5879C4.64412 15.5316 4.72045 15.5 4.8 15.5M4.58783 15.5879L4.8 15.5M4.8 15.5H6.4C6.47954 15.5 6.55586 15.5316 6.61215 15.5879L4.8 15.5ZM6.7 17.4C6.7 17.4796 6.66838 17.5559 6.61217 17.6121V15.5879C6.66838 15.6441 6.7 15.7204 6.7 15.8V17.4Z" fill="url(#paint1_linear_49_112)" stroke="url(#paint2_linear_49_112)"/>
<path d="M10.9 15.8C10.9 15.7204 10.9316 15.6441 10.9879 15.5879C11.0441 15.5316 11.1204 15.5 11.2 15.5H12.8C12.8796 15.5 12.9559 15.5316 13.0121 15.5879C13.0684 15.6441 13.1 15.7204 13.1 15.8V17.4C13.1 17.4796 13.0684 17.5559 13.0121 17.6121C12.9559 17.6684 12.8796 17.7 12.8 17.7H11.2C11.1204 17.7 11.0441 17.6684 10.9879 17.6121C10.9316 17.5559 10.9 17.4796 10.9 17.4V15.8Z" fill="url(#paint3_linear_49_112)" stroke="url(#paint4_linear_49_112)"/>
<path d="M17.3879 15.5879C17.4441 15.5316 17.5204 15.5 17.6 15.5H19.2C19.2796 15.5 19.3559 15.5316 19.4121 15.5879C19.4684 15.6441 19.5 15.7204 19.5 15.8V17.4C19.5 17.4796 19.4684 17.5559 19.4121 17.6121C19.3559 17.6684 19.2796 17.7 19.2 17.7H17.6C17.5204 17.7 17.4441 17.6684 17.3879 17.6121C17.3316 17.5559 17.3 17.4796 17.3 17.4V15.8C17.3 15.7204 17.3316 15.6441 17.3879 15.5879Z" fill="url(#paint5_linear_49_112)" stroke="url(#paint6_linear_49_112)"/>
<path d="M4.8 15C4.58782 15 4.38434 15.0843 4.23431 15.2343C4.08427 15.3843 4 15.5878 4 15.8V17.4C4 17.6122 4.08427 17.8157 4.23431 17.9657C4.38434 18.1157 4.58782 18.2 4.8 18.2H6.4C6.61218 18.2 6.81566 18.1157 6.96569 17.9657C7.1157 17.8157 7.2 17.6122 7.2 17.4V15.8C7.2 15.5878 7.1157 15.3843 6.96569 15.2343C6.81566 15.0843 6.61218 15 6.4 15H4.8Z" fill="url(#paint7_linear_49_112)" stroke="url(#paint8_linear_49_112)"/>
<path d="M10.4 15.8C10.4 15.5878 10.4843 15.3843 10.6343 15.2343C10.7843 15.0843 10.9878 15 11.2 15H12.8C13.0122 15 13.2157 15.0843 13.3657 15.2343C13.5157 15.3843 13.6 15.5878 13.6 15.8V17.4C13.6 17.6122 13.5157 17.8157 13.3657 17.9657C13.2157 18.1157 13.0122 18.2 12.8 18.2H11.2C10.9878 18.2 10.7843 18.1157 10.6343 17.9657C10.4843 17.8157 10.4 17.6122 10.4 17.4V15.8Z" fill="url(#paint9_linear_49_112)" stroke="url(#paint10_linear_49_112)"/>
<path d="M17.6 15C17.3878 15 17.1843 15.0843 17.0343 15.2343C16.8843 15.3843 16.8 15.5878 16.8 15.8V17.4C16.8 17.6122 16.8843 17.8157 17.0343 17.9657C17.1843 18.1157 17.3878 18.2 17.6 18.2H19.2C19.4122 18.2 19.6157 18.1157 19.7657 17.9657C19.9157 17.8157 20 17.6122 20 17.4V15.8C20 15.5878 19.9157 15.3843 19.7657 15.2343C19.6157 15.0843 19.4122 15 19.2 15H17.6Z" fill="url(#paint11_linear_49_112)" stroke="url(#paint12_linear_49_112)"/>
<defs>
<linearGradient id="paint0_linear_49_112" x1="12" y1="2.95674" x2="12" y2="23" gradientUnits="userSpaceOnUse">
<stop stop-color="#A5B9FF"/>
<stop offset="1" stop-color="#BBE9FF"/>
</linearGradient>
<linearGradient id="paint1_linear_49_112" x1="5.6" y1="18.2" x2="5.6" y2="15" gradientUnits="userSpaceOnUse">
<stop stop-color="#FDA700"/>
<stop offset="1" stop-color="#FFDE00"/>
</linearGradient>
<linearGradient id="paint2_linear_49_112" x1="5.6" y1="18.2" x2="5.6" y2="15" gradientUnits="userSpaceOnUse">
<stop stop-color="#FDA700"/>
<stop offset="1" stop-color="#FFDE00"/>
</linearGradient>
<linearGradient id="paint3_linear_49_112" x1="12" y1="18.2" x2="12" y2="15" gradientUnits="userSpaceOnUse">
<stop stop-color="#FDA700"/>
<stop offset="1" stop-color="#FFDE00"/>
</linearGradient>
<linearGradient id="paint4_linear_49_112" x1="12" y1="18.2" x2="12" y2="15" gradientUnits="userSpaceOnUse">
<stop stop-color="#FDA700"/>
<stop offset="1" stop-color="#FFDE00"/>
</linearGradient>
<linearGradient id="paint5_linear_49_112" x1="18.4" y1="18.2" x2="18.4" y2="15" gradientUnits="userSpaceOnUse">
<stop stop-color="#FDA700"/>
<stop offset="1" stop-color="#FFDE00"/>
</linearGradient>
<linearGradient id="paint6_linear_49_112" x1="18.4" y1="18.2" x2="18.4" y2="15" gradientUnits="userSpaceOnUse">
<stop stop-color="#FDA700"/>
<stop offset="1" stop-color="#FFDE00"/>
</linearGradient>
<linearGradient id="paint7_linear_49_112" x1="5.6" y1="18.2" x2="5.6" y2="15" gradientUnits="userSpaceOnUse">
<stop stop-color="#FDA700"/>
<stop offset="1" stop-color="#FFDE00"/>
</linearGradient>
<linearGradient id="paint8_linear_49_112" x1="5.6" y1="18.2" x2="5.6" y2="15" gradientUnits="userSpaceOnUse">
<stop stop-color="#FDA700"/>
<stop offset="1" stop-color="#FFDE00"/>
</linearGradient>
<linearGradient id="paint9_linear_49_112" x1="12" y1="18.2" x2="12" y2="15" gradientUnits="userSpaceOnUse">
<stop stop-color="#FDA700"/>
<stop offset="1" stop-color="#FFDE00"/>
</linearGradient>
<linearGradient id="paint10_linear_49_112" x1="12" y1="18.2" x2="12" y2="15" gradientUnits="userSpaceOnUse">
<stop stop-color="#FDA700"/>
<stop offset="1" stop-color="#FFDE00"/>
</linearGradient>
<linearGradient id="paint11_linear_49_112" x1="18.4" y1="18.2" x2="18.4" y2="15" gradientUnits="userSpaceOnUse">
<stop stop-color="#FDA700"/>
<stop offset="1" stop-color="#FFDE00"/>
</linearGradient>
<linearGradient id="paint12_linear_49_112" x1="18.4" y1="18.2" x2="18.4" y2="15" gradientUnits="userSpaceOnUse">
<stop stop-color="#FDA700"/>
<stop offset="1" stop-color="#FFDE00"/>
</linearGradient>
</defs>
</svg>
