<svg width="64" height="64" viewBox="0 0 64 64" fill="none" xmlns="http://www.w3.org/2000/svg">
<g clip-path="url(#clip0_231_149)">
<path opacity="0.4" d="M32 60C47.464 60 60 47.464 60 32C60 16.536 47.464 4 32 4C16.536 4 4 16.536 4 32C4 47.464 16.536 60 32 60Z" fill="url(#paint0_linear_231_149)"/>
<path fill-rule="evenodd" clip-rule="evenodd" d="M9.03301 31.9203C9.03301 25.8203 11.4562 19.9701 15.7696 15.6568C20.0829 11.3435 25.933 8.92026 32.033 8.92026C37.1692 8.92026 42.1282 10.6382 46.1419 13.7559C47.3959 14.73 47.3863 16.567 46.2635 17.6897V17.6897C45.1408 18.8125 43.3315 18.789 42.038 17.868C39.1357 15.8016 35.6427 14.6703 32.033 14.6703C27.458 14.6703 23.0704 16.4877 19.8354 19.7227C16.6004 22.9577 14.783 27.3453 14.783 31.9203C14.783 36.4952 16.6004 40.8828 19.8354 44.1178C23.0704 47.3529 27.458 49.1703 32.033 49.1703C35.6427 49.1703 39.1357 48.0389 42.038 45.9725C43.3315 45.0516 45.1408 45.028 46.2635 46.1508V46.1508C47.3863 47.2735 47.3959 49.1105 46.1419 50.0846C42.1282 53.2023 37.1692 54.9203 32.033 54.9203C25.933 54.9203 20.0829 52.497 15.7696 48.1837C11.4562 43.8704 9.03301 38.0202 9.03301 31.9203ZM20.533 31.9265C20.5314 28.8787 21.7397 25.9548 23.8925 23.7974L23.9013 23.7885C24.9692 22.7207 26.2369 21.8736 27.6322 21.2956C29.0274 20.7177 30.5228 20.4203 32.033 20.4203C33.5432 20.4203 35.0386 20.7177 36.4339 21.2956C37.2371 21.6284 37.9981 22.0503 38.703 22.5522C39.5653 23.1661 39.558 24.3953 38.8095 25.1438V25.1438C38.0609 25.8923 36.8548 25.8664 35.9444 25.3264C34.7704 24.63 33.4211 24.2536 32.033 24.2536C29.9997 24.2536 28.0496 25.0613 26.6119 26.4991C25.1741 27.9369 24.3663 29.8869 24.3663 31.9203C24.3663 33.9536 25.1741 35.9036 26.6119 37.3414C28.0496 38.7792 29.9997 39.5869 32.033 39.5869C33.4211 39.5869 34.7704 39.2105 35.9444 38.5141C36.8548 37.9741 38.0609 37.9482 38.8095 38.6967V38.6967C39.558 39.4452 39.5653 40.6745 38.703 41.2884C36.7681 42.666 34.4395 43.4203 32.033 43.4203C28.983 43.4203 26.058 42.2087 23.9013 40.052C21.7461 37.8968 20.5347 34.9743 20.533 31.9265Z" fill="url(#paint1_linear_231_149)"/>
</g>
<defs>
<linearGradient id="paint0_linear_231_149" x1="32.1644" y1="71.4077" x2="32.1644" y2="9.34907" gradientUnits="userSpaceOnUse">
<stop stop-color="#FDA700"/>
<stop offset="1" stop-color="#FFDE00"/>
</linearGradient>
<linearGradient id="paint1_linear_231_149" x1="54.8255" y1="54.6352" x2="18.9045" y2="18.7142" gradientUnits="userSpaceOnUse">
<stop stop-color="#FDA700"/>
<stop offset="1" stop-color="#FFDE00"/>
</linearGradient>
<clipPath id="clip0_231_149">
<rect width="64" height="64" fill="white"/>
</clipPath>
</defs>
</svg>
