<svg width="128" height="128" viewBox="0 0 128 128" fill="none" xmlns="http://www.w3.org/2000/svg">
<circle opacity="0.4" cx="67.5" cy="63.5" r="54.5" fill="url(#paint0_linear_60_343)"/>
<path fill-rule="evenodd" clip-rule="evenodd" d="M106.74 52.0339C109.447 77.8733 90.6953 101.015 64.8558 103.722C54.6399 104.793 44.8458 102.509 36.5694 97.7587C34.0015 99.2809 31.1126 100.25 28.0866 100.567C22.5717 101.145 17.0531 99.5087 12.7449 96.0176C8.43661 92.5266 5.69167 87.467 5.1139 81.9522C4.53607 76.4373 6.17266 70.9186 9.66378 66.6105C10.7419 65.28 11.9697 64.0985 13.3144 63.0839C13.2601 62.6705 13.211 62.2552 13.1673 61.838C12.3502 54.0402 32.4803 44.0477 58.3197 41.3404C84.1592 38.6331 105.379 39.0377 106.74 52.0339ZM15.5109 80.8629C15.319 79.032 15.7781 77.2 16.7943 75.6828C18.7289 80.1401 21.3255 84.2167 24.4487 87.8029C24.3415 87.8187 24.2338 87.8323 24.1256 87.8436C22.0576 88.0602 19.9881 87.4465 18.3725 86.1374C16.7569 84.8283 15.7276 82.931 15.5109 80.8629ZM83.032 43.1884C83.829 42.4886 84.7187 42.0782 85.6504 41.9807C86.9512 41.8444 88.2909 42.322 89.5232 43.3613C90.7554 44.4005 91.8329 45.9614 92.6379 47.8734L93.7862 52.6172L94.0685 57.0261C93.8753 59.538 93.2012 61.7862 92.1442 63.4435C91.0874 65.1008 89.7028 66.0806 88.1923 66.2402C87.2605 66.3378 86.3049 66.1208 85.3803 65.6014C84.4556 65.082 83.5797 64.2705 82.8029 63.2132C82.026 62.1558 81.3633 60.8734 80.8525 59.4391C80.3418 58.0049 79.993 56.4468 79.8261 54.8539C79.6592 53.261 79.6774 51.6644 79.8798 50.1554C80.0821 48.6464 80.4648 47.2544 81.0056 46.0591C81.5464 44.8636 82.235 43.8882 83.032 43.1884ZM57.4606 44.9342C55.5788 45.1313 53.908 46.5984 52.8157 49.0125C51.7234 51.4268 51.2991 54.5904 51.6361 57.8074C51.9733 61.0244 53.0441 64.0314 54.6131 66.1668C56.1819 68.3021 58.1206 69.391 60.0024 69.1938C61.5129 69.0341 62.8975 68.0544 63.9543 66.3971C65.0113 64.7398 65.6854 62.4916 65.8786 59.9797L65.4186 55.5894L64.448 50.827C63.643 48.915 62.5656 47.354 61.3333 46.3149C60.101 45.2756 58.7613 44.7979 57.4606 44.9342ZM89.5194 76.6124C89.9205 80.4405 87.1424 83.8688 83.3143 84.2699C79.4862 84.671 76.0579 81.8928 75.6568 78.0648C75.2557 74.2367 78.0339 70.8084 81.8619 70.4073C85.69 70.0062 89.1183 72.7843 89.5194 76.6124Z" fill="url(#paint1_linear_60_343)"/>
<path d="M110 33C116.627 33 122 27.6274 122 21C122 14.3726 116.627 9 110 9C103.373 9 98 14.3726 98 21C98 27.6274 103.373 33 110 33Z" fill="url(#paint2_linear_60_343)"/>
<defs>
<linearGradient id="paint0_linear_60_343" x1="67.5001" y1="118" x2="67.5001" y2="9" gradientUnits="userSpaceOnUse">
<stop stop-color="#FD2E00"/>
<stop offset="1" stop-color="#FF9900"/>
</linearGradient>
<linearGradient id="paint1_linear_60_343" x1="56" y1="103.982" x2="56" y2="40" gradientUnits="userSpaceOnUse">
<stop stop-color="#FDA700"/>
<stop offset="1" stop-color="#FFDE00"/>
</linearGradient>
<linearGradient id="paint2_linear_60_343" x1="110" y1="33" x2="110" y2="9" gradientUnits="userSpaceOnUse">
<stop stop-color="#FD2E00"/>
<stop offset="1" stop-color="#FF9900"/>
</linearGradient>
</defs>
</svg>
