<svg width="128" height="128" viewBox="0 0 128 128" fill="none" xmlns="http://www.w3.org/2000/svg">
<path opacity="0.4" d="M48.7809 6C46.7671 6 44.8361 6.80003 43.4123 8.22338L10.2241 41.4069C8.8004 42.8306 8 44.7619 8 46.7762V107.275C8 113.206 12.7932 118 18.7254 118H79.2191C81.2351 118 83.1657 117.198 84.5879 115.776L117.776 82.5926C119.198 81.1701 120 79.2395 120 77.2238V16.7254C120 10.7932 115.206 6 109.275 6H48.7809Z" fill="url(#paint0_linear_54_1397)"/>
<path d="M60.1818 31C44.5691 31 32 43.5691 32 59.1818V64.8182C32 80.4309 44.5691 93 60.1818 93H87.8667C88.9712 93 89.8667 92.1046 89.8667 91V78.4667C89.8667 77.3621 88.9712 76.4667 87.8667 76.4667H60.1818C53.6443 76.4667 48.5333 71.3557 48.5333 64.8182V59.1818C48.5333 52.6442 53.6443 47.5333 60.1818 47.5333H87.8667C88.9712 47.5333 89.8667 46.6379 89.8667 45.5333V33C89.8667 31.8954 88.9712 31 87.8667 31H60.1818Z" fill="url(#paint1_linear_54_1397)"/>
<defs>
<linearGradient id="paint0_linear_54_1397" x1="23.054" y1="62" x2="97.1468" y2="62" gradientUnits="userSpaceOnUse">
<stop stop-color="#5570FF"/>
<stop offset="1" stop-color="#4DD3FF"/>
</linearGradient>
<linearGradient id="paint1_linear_54_1397" x1="37.3829" y1="62" x2="79.9979" y2="62" gradientUnits="userSpaceOnUse">
<stop stop-color="#5570FF"/>
<stop offset="1" stop-color="#4DD3FF"/>
</linearGradient>
</defs>
</svg>
