<svg width="24" height="24" viewBox="0 0 24 24" fill="none" xmlns="http://www.w3.org/2000/svg">
<g clip-path="url(#clip0_36_104)">
<path opacity="0.5" d="M16.5764 6.36097L16.5941 8.54805L16.5941 8.70361L16.4682 8.70503C15.5066 8.43633 14.1539 8.43562 12.1414 8.43562C10.1509 8.43633 8.80531 8.43562 7.84647 8.69583L7.82738 6.29096C7.81041 4.22904 7.80263 3.19737 8.4369 2.5631C9.0733 1.9267 10.1043 1.93519 12.1662 1.95216C14.2295 1.96771 15.2605 1.9762 15.9061 2.62179C16.5517 3.26738 16.5594 4.29904 16.5764 6.36097Z" fill="url(#paint0_linear_36_104)"/>
<path fill-rule="evenodd" clip-rule="evenodd" d="M6.58565 21.5856C7.53883 22.5388 9.07325 22.5388 12.1421 22.5388C15.2109 22.5388 16.7447 22.5395 17.6978 21.5864C18.6517 20.6325 18.6517 19.098 18.651 16.0299V14.9452C18.651 11.8764 18.651 10.3419 17.6978 9.38876C16.7447 8.43558 15.2102 8.43558 12.1414 8.43558C9.07254 8.43558 7.53954 8.43558 6.58636 9.38876C5.63247 10.3427 5.63247 11.8757 5.63247 14.9445L5.63247 16.0292C5.63318 19.0988 5.63247 20.6325 6.58565 21.5856ZM8.88728 18.5345C8.69307 18.5413 8.5091 18.6233 8.37414 18.7631C8.23917 18.9029 8.16374 19.0897 8.16374 19.284C8.16374 19.4783 8.23917 19.6651 8.37414 19.8049C8.5091 19.9447 8.69307 20.0267 8.88728 20.0335L15.3969 20.035C15.4965 20.0367 15.5954 20.0187 15.6879 19.9818C15.7804 19.9449 15.8647 19.89 15.9357 19.8202C16.0068 19.7505 16.0633 19.6673 16.1018 19.5754C16.1404 19.4836 16.1602 19.385 16.1603 19.2854C16.1603 19.1858 16.1405 19.0872 16.1021 18.9954C16.0636 18.9035 16.0072 18.8203 15.9362 18.7504C15.8652 18.6806 15.7811 18.6256 15.6886 18.5886C15.5961 18.5517 15.4972 18.5335 15.3976 18.5352L8.88728 18.5345ZM13.6412 4.25022C13.8399 4.25034 14.0305 4.32935 14.171 4.46989C14.3116 4.61043 14.3906 4.801 14.3907 4.99975L14.3914 6.00031C14.395 6.10096 14.3782 6.20131 14.3421 6.29534C14.3061 6.38938 14.2514 6.47519 14.1815 6.54766C14.1115 6.62012 14.0277 6.67776 13.935 6.71712C13.8423 6.75648 13.7426 6.77677 13.6419 6.77677C13.5411 6.77677 13.4415 6.75648 13.3488 6.71712C13.256 6.67775 13.1722 6.62012 13.1023 6.54766C13.0323 6.47519 12.9777 6.38938 12.9416 6.29534C12.9055 6.2013 12.8888 6.10096 12.8923 6.00031L12.8909 5.00046C12.8909 4.90193 12.9103 4.80436 12.948 4.71332C12.9857 4.62228 13.0409 4.53956 13.1106 4.46989C13.1803 4.40022 13.263 4.34496 13.354 4.30726C13.4451 4.26957 13.5426 4.25019 13.6412 4.25022ZM10.6416 4.25022C10.8404 4.25034 11.0309 4.32935 11.1715 4.46989C11.312 4.61043 11.391 4.801 11.3911 4.99975L11.3919 6.00031C11.3954 6.10096 11.3787 6.2013 11.3426 6.29534C11.3065 6.38938 11.2519 6.47519 11.1819 6.54766C11.112 6.62012 11.0281 6.67775 10.9354 6.71712C10.8427 6.75648 10.743 6.77677 10.6423 6.77677C10.5416 6.77677 10.4419 6.75648 10.3492 6.71712C10.2565 6.67775 10.1727 6.62012 10.1027 6.54766C10.0328 6.47519 9.97813 6.38938 9.94206 6.29534C9.90599 6.2013 9.88923 6.10096 9.89279 6.00031L9.89137 5.00046C9.89134 4.90193 9.91073 4.80436 9.94842 4.71332C9.98611 4.62228 10.0414 4.53956 10.111 4.46989C10.1807 4.40022 10.2634 4.34496 10.3545 4.30726C10.4455 4.26957 10.5431 4.25019 10.6416 4.25022Z" fill="url(#paint1_linear_36_104)"/>
</g>
<defs>
<linearGradient id="paint0_linear_36_104" x1="16.0889" y1="2.80462" x2="9.02208" y2="9.87144" gradientUnits="userSpaceOnUse">
<stop stop-color="#FFCD1A"/>
<stop offset="1" stop-color="#FD9C0C"/>
</linearGradient>
<linearGradient id="paint1_linear_36_104" x1="18.9602" y1="9.25903" x2="6.60959" y2="21.6096" gradientUnits="userSpaceOnUse">
<stop stop-color="#FFCD1A"/>
<stop offset="1" stop-color="#FD9C0C"/>
</linearGradient>
<clipPath id="clip0_36_104">
<rect width="24" height="24" fill="white"/>
</clipPath>
</defs>
</svg>
