<svg width="128" height="128" viewBox="0 0 128 128" fill="none" xmlns="http://www.w3.org/2000/svg">
<path d="M91.9074 115.468C91.9074 114.264 92.0802 113.247 92.4258 112.414C92.7713 111.583 93.2507 110.912 93.8665 110.399C94.4795 109.886 95.2041 109.516 96.0373 109.284C96.8678 109.056 97.7568 108.939 98.7042 108.939C99.6015 108.939 100.454 109.056 101.26 109.284C102.065 109.516 102.776 109.886 103.392 110.399C104.005 110.912 104.49 111.583 104.849 112.414C105.209 113.247 105.387 114.264 105.387 115.468C105.387 116.622 105.209 117.608 104.849 118.427C104.489 119.244 104.005 119.927 103.392 120.465C102.776 121 102.065 121.39 101.26 121.635C100.454 121.877 99.6015 122 98.7042 122C97.7568 122 96.8678 121.877 96.0373 121.635C95.2041 121.39 94.4795 121 93.8665 120.465C93.2492 119.926 92.7728 119.242 92.4248 118.426C92.0809 117.61 91.9074 116.62 91.9074 115.468ZM93.1794 102.332C93.1769 102.332 93.1749 102.33 93.1749 102.327V99.492C93.1749 98.185 93.3087 97.0006 93.5788 95.9389C93.846 94.8744 94.256 93.8656 94.8077 92.9042C95.3567 91.9455 96.0673 91.0092 96.9368 90.1007C97.809 89.1922 98.8596 88.2503 100.089 87.2778C101.164 86.4334 102.073 85.6782 102.814 85.0094C103.558 84.3461 104.157 83.6857 104.62 83.0308C105.08 82.3787 105.414 81.696 105.617 80.9797C105.824 80.2608 105.927 79.4275 105.927 78.4828C105.927 77.0226 105.431 75.816 104.447 74.8713C103.461 73.9238 101.956 73.45 99.9326 73.45C98.1686 73.45 96.2653 73.8208 94.2283 74.5619C92.7793 75.0926 91.2906 75.707 89.7663 76.406C88.7429 76.8753 87.522 76.446 87.0509 75.4233L84.7597 70.4503C84.3288 69.515 84.6764 68.4005 85.5929 67.9307C86.2306 67.6039 86.8963 67.2866 87.5893 66.9789C88.8851 66.4021 90.2283 65.8893 91.6217 65.4406C93.0178 64.9948 94.4335 64.6409 95.8657 64.3845C97.3008 64.128 98.7081 64 100.093 64C102.704 64 105.059 64.3149 107.157 64.9419C109.259 65.5689 111.039 66.4829 112.497 67.6868C113.96 68.8907 115.077 70.3537 115.858 72.0675C116.641 73.7841 117.031 75.7404 117.031 77.9421C117.031 79.5555 116.849 80.9963 116.493 82.2643C116.136 83.5323 115.601 84.7111 114.902 85.7979C114.194 86.8875 113.31 87.9381 112.249 88.9469C111.187 89.9585 109.95 91.0286 108.542 92.1544C107.467 92.9988 106.589 93.7372 105.909 94.3643C105.232 94.9913 104.699 95.5877 104.318 96.1478C103.933 96.7135 103.671 97.2959 103.529 97.8978C103.389 98.497 103.317 99.2076 103.317 100.027V100.332C103.317 101.437 102.422 102.332 101.317 102.332H93.1794Z" fill="url(#paint0_linear_67_122)"/>
<path opacity="0.4" fill-rule="evenodd" clip-rule="evenodd" d="M84.2392 6V6.12407C84.4706 6.17695 84.6963 6.24933 84.9155 6.34348C85.84 6.73974 86.4348 7.42771 86.7917 8.1567C87.127 8.84417 87.2563 9.57342 87.3153 10.1709C87.3734 10.7572 87.3734 11.3476 87.3734 11.8029V43.1867C87.3734 61.9086 73.4741 77.4324 55.4531 79.9987H56.6067V110.313H69.569C72.7965 110.313 75.4126 112.929 75.4126 116.157C75.4126 119.383 72.7962 122 69.569 122H31.9573C28.7301 122 26.1137 119.383 26.1137 116.157C26.1137 112.929 28.7298 110.313 31.9573 110.313H44.9196V79.9987C26.8986 77.4324 13 61.9086 13 43.1867V11.8436C13 8.61629 15.6163 6 18.8436 6H84.2392Z" fill="url(#paint1_linear_67_122)"/>
<path d="M37.6075 24.7832L43.2441 7.87329H53.6664L49.1565 21.403H57.9087C59.4979 21.403 60.9899 22.167 61.9189 23.4558C62.848 24.7449 63.1008 26.4022 62.5984 27.9097L54.7929 51.3265C53.9294 53.9165 51.1301 55.3161 48.5396 54.453C45.9497 53.5896 44.5496 50.7898 45.4131 48.1997L51.0497 31.29H42.2975C40.7082 31.29 39.216 30.5257 38.287 29.2369C37.3579 27.9479 37.1054 26.2907 37.6075 24.7832Z" fill="url(#paint2_linear_67_122)" stroke="url(#paint3_linear_67_122)" stroke-width="4"/>
<defs>
<linearGradient id="paint0_linear_67_122" x1="100.515" y1="122" x2="100.515" y2="64" gradientUnits="userSpaceOnUse">
<stop stop-color="#02AA93"/>
<stop offset="1" stop-color="#67FF80"/>
</linearGradient>
<linearGradient id="paint1_linear_67_122" x1="50.1867" y1="122" x2="50.1867" y2="6" gradientUnits="userSpaceOnUse">
<stop stop-color="#00B59C"/>
<stop offset="1" stop-color="#9CFFAC"/>
</linearGradient>
<linearGradient id="paint2_linear_67_122" x1="50.103" y1="54.7079" x2="50.103" y2="7.87329" gradientUnits="userSpaceOnUse">
<stop stop-color="#00B59C"/>
<stop offset="1" stop-color="#9CFFAC"/>
</linearGradient>
<linearGradient id="paint3_linear_67_122" x1="50.103" y1="54.7079" x2="50.103" y2="7.87329" gradientUnits="userSpaceOnUse">
<stop stop-color="#00B59C"/>
<stop offset="1" stop-color="#9CFFAC"/>
</linearGradient>
</defs>
</svg>
