<svg width="128" height="128" viewBox="0 0 128 128" fill="none" xmlns="http://www.w3.org/2000/svg">
<path opacity="0.4" d="M55.0452 6.51316C67.6918 4.53983 80.9718 6.89316 92.1252 13.1865C102.871 19.1732 111.611 28.6932 116.651 39.9199C122.398 52.5532 123.311 67.2799 119.251 80.5465C115.271 93.7465 106.351 105.353 94.6785 112.66C85.3785 118.553 74.3585 121.64 63.3585 121.533C49.5718 121.42 35.8785 116.207 25.5985 107.007C16.6318 99.1065 10.2052 88.3599 7.55182 76.6999C4.57182 63.8065 6.13182 49.8999 12.0452 38.0465C20.1585 21.3998 36.7052 9.19983 55.0452 6.51316Z" fill="#FF3662"/>
<path d="M65.2116 24.8201C64.5023 23.5361 65.3827 21.9679 66.8485 22.0251C77.4415 22.4379 87.6447 27.921 94.1097 36.287C94.7587 37.4007 93.5935 38.4796 93.1233 39.4844C93.0672 39.6042 93.0101 39.7238 92.9402 39.8361C90.1404 44.3328 87.8005 49.1271 84.9435 53.5798C84.1585 54.8033 82.3814 54.7166 81.655 53.4576C76.1555 43.9262 70.5349 34.4563 65.2116 24.8201Z" fill="url(#paint0_linear_54_1015)"/>
<path d="M29.0354 42.2203C27.5843 42.1904 26.666 40.6709 27.4221 39.432C32.9332 30.4024 42.8004 24.378 53.22 22.8519C54.3378 22.7409 54.7483 23.9533 55.2928 24.7139C55.3539 24.7991 55.4136 24.8851 55.4655 24.9762C58.19 29.7573 60.9823 34.502 63.6842 39.2981C64.4275 40.6175 63.479 42.2428 61.9647 42.2566C50.9893 42.356 40.0052 42.4461 29.0354 42.2203Z" fill="url(#paint1_linear_54_1015)"/>
<path d="M84.1529 77.1819C82.7707 77.0653 82.0464 75.5531 82.7335 74.3482C88.2585 64.6598 93.9086 55.0471 99.4969 45.4046C100.224 44.1507 101.994 44.0681 102.717 45.3244C107.986 54.4876 108.205 66.1045 104.407 75.9089C104.217 76.3995 103.833 76.7988 103.328 76.9454C100.759 77.6909 98.0443 76.9351 95.4005 77.0702C91.6599 77.2637 87.8895 77.4972 84.1529 77.1819Z" fill="url(#paint2_linear_54_1015)"/>
<path d="M23.8529 50.8961C24.3188 50.0014 25.4905 50.2458 26.3378 50.1762C26.4342 50.1683 26.5306 50.1611 26.6274 50.1618C32.1394 50.206 37.646 50.1589 43.1563 50.1889C44.6171 50.1969 45.5623 51.7202 44.8909 53.0176C41.526 59.5206 37.5133 65.693 33.9861 72.1172C31.9883 75.3426 30.3263 78.7935 28.2579 81.9765C27.5037 83.1372 25.8361 83.071 25.1862 81.8488C20.1615 72.3994 19.5897 60.7527 23.8529 50.8961Z" fill="#FF3662"/>
<path d="M34.7302 87.6806C37.4151 83.4514 39.5844 78.8693 42.3409 74.6937C43.1291 73.4997 44.8682 73.6072 45.5833 74.8462C51.1357 84.466 56.8367 94.0116 62.2282 103.715C62.9328 104.983 62.0828 106.54 60.6324 106.507C50.2722 106.271 40.236 100.849 33.6582 92.9468C31.8976 91.2645 33.9633 89.3004 34.7302 87.6806Z" fill="url(#paint3_linear_54_1015)"/>
<path d="M64.0423 88.5688C63.3673 87.2766 64.3239 85.7688 65.7818 85.7662C76.8253 85.747 87.8738 85.733 98.9228 85.7805C100.364 85.7867 101.314 87.2678 100.597 88.5175C95.3406 97.6791 85.3585 103.701 75.0301 105.361C74.4751 105.45 73.9001 105.295 73.5226 104.879C72.341 103.575 71.6787 101.856 70.7459 100.373C68.5828 96.3966 66.1351 92.5754 64.0423 88.5688Z" fill="url(#paint4_linear_54_1015)"/>
<defs>
<linearGradient id="paint0_linear_54_1015" x1="78.9981" y1="56.1466" x2="78.9981" y2="22" gradientUnits="userSpaceOnUse">
<stop stop-color="#5570FF"/>
<stop offset="1" stop-color="#4DD3FF"/>
</linearGradient>
<linearGradient id="paint1_linear_54_1015" x1="45.6299" y1="42.3612" x2="45.6299" y2="22.8447" gradientUnits="userSpaceOnUse">
<stop stop-color="#FD2E00"/>
<stop offset="1" stop-color="#FF9900"/>
</linearGradient>
<linearGradient id="paint2_linear_54_1015" x1="94.1616" y1="77.3365" x2="94.1616" y2="42.7346" gradientUnits="userSpaceOnUse">
<stop stop-color="#00B59C"/>
<stop offset="1" stop-color="#9CFFAC"/>
</linearGradient>
<linearGradient id="paint3_linear_54_1015" x1="48.344" y1="72.2343" x2="48.344" y2="106.515" gradientUnits="userSpaceOnUse">
<stop stop-color="#00FFE0"/>
<stop offset="1" stop-color="#078AA7"/>
</linearGradient>
<linearGradient id="paint4_linear_54_1015" x1="62.6686" y1="95.3268" x2="101.982" y2="95.3268" gradientUnits="userSpaceOnUse">
<stop stop-color="#A93AFF"/>
<stop offset="1" stop-color="#FF81FF"/>
</linearGradient>
</defs>
</svg>
