<svg width="64" height="64" viewBox="0 0 64 64" fill="none" xmlns="http://www.w3.org/2000/svg">
<path opacity="0.4" fill-rule="evenodd" clip-rule="evenodd" d="M10.6182 4C6.95899 4 4 6.95899 4 10.6182V53.3818C4 57.041 6.95899 60 10.6182 60H53.3818C57.041 60 60 57.041 60 53.3818V10.6182C60 6.95899 57.041 4 53.3818 4H10.6182Z" fill="url(#paint0_linear_80_651)"/>
<path fill-rule="evenodd" clip-rule="evenodd" d="M27.3573 19.6971C28.5292 21.4964 29.2151 23.809 29.2442 26.7022C29.2734 29.6038 28.6184 31.9322 27.4492 33.7472C26.2815 35.5596 24.7149 36.6836 23.2092 37.3668C21.7223 38.0415 20.269 38.3003 19.2171 38.398C18.6841 38.4475 18.2344 38.4574 17.908 38.4542C17.7443 38.4526 17.6101 38.4477 17.5103 38.4426C17.4603 38.4401 17.4188 38.4375 17.3864 38.4352L17.3446 38.4322L17.3289 38.4309L17.3224 38.4304L17.3195 38.4301C17.3192 38.4301 17.319 38.4301 17.3198 38.418L17.3178 38.4178L17.3167 38.4299L17.3048 38.4169C16.0153 38.3173 15 37.2394 15 35.9244V17.5008C15 16.1201 16.1193 15.0008 17.5 15.0008C17.5533 15.0008 17.6063 15.0024 17.6587 15.0057C17.7295 15.0033 17.81 15.0014 17.8992 15.0005C18.222 14.9973 18.6662 15.0073 19.193 15.0571C20.2333 15.1555 21.6687 15.4159 23.143 16.0922C24.636 16.7771 26.186 17.8987 27.3573 19.6971ZM20.0325 33.2002C20.3979 33.1066 20.7745 32.9809 21.1432 32.8136C21.9531 32.4461 22.6957 31.8933 23.2459 31.0393C23.7944 30.1879 24.2657 28.8602 24.2444 26.7525C24.2231 24.6365 23.7323 23.293 23.1676 22.4259C22.6022 21.5578 21.8555 21.0026 21.0582 20.6368C20.7168 20.4803 20.3698 20.3605 20.0325 20.2694V33.2002ZM15 49.7426C15 48.3619 16.1193 47.2426 17.5 47.2426H35.9237C37.3044 47.2426 38.4237 48.3619 38.4237 49.7426C38.4237 51.1233 37.3044 52.2426 35.9237 52.2426H17.5C16.1193 52.2426 15 51.1233 15 49.7426ZM38.4237 26.7127C38.4237 24.268 38.4517 22.4285 38.8711 21.1701C39.0571 20.6124 39.2597 20.3763 39.4017 20.2659C39.522 20.1723 39.8104 20.0008 40.5296 20.0008C41.8633 20.0008 42.46 20.2318 42.678 20.3507C42.9258 21.461 43.9128 22.2947 45.099 22.3037C46.4797 22.3142 47.6075 21.2035 47.618 19.8228L45.1233 19.8038C47.618 19.8228 47.618 19.8204 47.618 19.8179L47.618 19.8129L47.618 19.8027L47.618 19.7815C47.6178 19.7669 47.6176 19.7516 47.6172 19.7356C47.6164 19.7035 47.615 19.6684 47.6128 19.6305C47.6083 19.5548 47.6004 19.4673 47.5872 19.3698C47.5609 19.175 47.5128 18.9365 47.4259 18.6697C47.2492 18.1273 46.9179 17.4882 46.3256 16.8913C45.1175 15.674 43.2163 15.0008 40.5296 15.0008C38.9458 15.0008 37.507 15.4052 36.332 16.3191C35.1785 17.2162 34.5176 18.4195 34.1277 19.589C33.4215 21.7078 33.4227 24.3574 33.4236 26.4822L33.4237 26.7127L33.4236 26.9432C33.4227 29.068 33.4215 31.7176 34.1277 33.8364C34.5176 35.0059 35.1785 36.2092 36.332 37.1063C37.507 38.0202 38.9458 38.4245 40.5296 38.4245C42.5066 38.4245 44.144 37.8107 45.3663 36.6809C46.5393 35.5966 47.1181 34.2333 47.4082 33.0799C47.5455 32.534 47.6274 31.9993 47.6736 31.5047C48.9441 31.3863 49.9385 30.3171 49.9385 29.0157C49.9385 27.6349 48.8192 26.5157 47.4385 26.5157H45.1822C45.1532 26.5151 45.1241 26.5151 45.095 26.5157H42.8326C41.4519 26.5157 40.3326 27.6349 40.3326 29.0157C40.3326 30.3294 41.3459 31.4065 42.6336 31.5079C42.613 31.6266 42.5884 31.7445 42.5593 31.8603C42.4149 32.4342 42.2008 32.798 41.9724 33.0092C41.7933 33.1747 41.4209 33.4245 40.5296 33.4245C39.8104 33.4245 39.522 33.2531 39.4017 33.1595C39.2597 33.0491 39.0571 32.813 38.8711 32.2553C38.4517 30.9969 38.4237 29.1574 38.4237 26.7127ZM42.7832 20.4196C42.7832 20.4196 42.7818 20.4184 42.7791 20.4159C42.7819 20.4182 42.7832 20.4195 42.7832 20.4196Z" fill="url(#paint1_linear_80_651)"/>
<defs>
<linearGradient id="paint0_linear_80_651" x1="12.201" y1="51.799" x2="51.799" y2="12.201" gradientUnits="userSpaceOnUse">
<stop stop-color="#0072FF"/>
<stop offset="1" stop-color="#00E5A1"/>
</linearGradient>
<linearGradient id="paint1_linear_80_651" x1="20.1166" y1="46.7885" x2="46.3975" y2="22.1336" gradientUnits="userSpaceOnUse">
<stop stop-color="#0072FF"/>
<stop offset="1" stop-color="#00E5A1"/>
</linearGradient>
</defs>
</svg>
