<svg width="128" height="128" viewBox="0 0 128 128" fill="none" xmlns="http://www.w3.org/2000/svg">
<path opacity="0.4" d="M66.8001 120C96.1816 120 120 96.1816 120 66.8001C120 37.4185 96.1816 13.6001 66.8001 13.6001C37.4186 13.6001 13.6001 37.4185 13.6001 66.8001C13.6001 96.1816 37.4186 120 66.8001 120Z" fill="url(#paint0_linear_274_111)"/>
<path d="M97.4425 10.6951C98.2109 9.41411 97.1537 7.81366 95.6738 8.01771L54.8274 13.6513C54.2249 13.7344 53.7066 14.1196 53.4532 14.6725L40.3866 43.1882C39.8357 44.3904 40.7426 45.7521 42.0643 45.7071L52.0534 45.3677C53.3751 45.3227 54.282 46.6844 53.7311 47.8866L44.2203 68.6422C43.7145 69.7461 44.4388 71.0211 45.646 71.1519L52.1081 71.852C53.2242 71.9729 53.9507 73.0847 53.6132 74.1554L39.8969 117.676C39.3111 119.534 41.7096 120.847 42.9588 119.351L86.554 67.1627C87.465 66.0722 86.793 64.4066 85.3804 64.2535L80.6594 63.7421C79.3015 63.5949 78.609 62.0356 79.4105 60.9296L96.554 37.2715C97.4226 36.0728 96.5326 34.3995 95.0531 34.4498L86.2138 34.7501C84.8048 34.798 83.9026 33.2661 84.6279 32.057L97.4425 10.6951Z" fill="url(#paint1_linear_274_111)"/>
<defs>
<linearGradient id="paint0_linear_274_111" x1="120" y1="72.3418" x2="13.6001" y2="72.3418" gradientUnits="userSpaceOnUse">
<stop stop-color="#FFCD1A"/>
<stop offset="1" stop-color="#FD9C0C"/>
</linearGradient>
<linearGradient id="paint1_linear_274_111" x1="83.8863" y1="108.905" x2="49.1908" y2="15.5196" gradientUnits="userSpaceOnUse">
<stop stop-color="#FD5900"/>
<stop offset="1" stop-color="#FFDE00"/>
</linearGradient>
</defs>
</svg>
