<svg width="64" height="64" viewBox="0 0 64 64" fill="none" xmlns="http://www.w3.org/2000/svg">
<path opacity="0.4" fill-rule="evenodd" clip-rule="evenodd" d="M44.6047 6.98988C39.4302 4.36124 33.423 3.43992 27.6901 4.32902C18.4161 5.67879 10.117 12.07 6.38221 20.6389C3.47703 27.1429 3.22201 34.7646 5.65591 41.4522C7.60561 46.8545 11.2791 51.6188 16.0048 54.8918C20.666 58.1551 26.3505 59.9107 32.0382 59.8978C38.0519 59.901 44.0463 57.9102 48.8334 54.2797C53.7076 50.6266 57.3456 45.3598 58.9693 39.4936C60.6963 33.3472 60.2475 26.6113 57.6651 20.7677C55.0924 14.8436 50.3828 9.88268 44.6047 6.98988Z" fill="url(#paint0_linear_54_1007)"/>
<path d="M16.7749 17.3286C19.7412 16.0319 23.3678 18.8671 22.7287 22.0569C22.4653 25.3799 17.8986 27.0979 15.5046 24.7588C12.9938 22.7823 13.7666 18.3667 16.7749 17.3286Z" fill="url(#paint1_linear_54_1007)"/>
<path d="M49.8633 22.4197C50.6863 19.4176 47.6488 16.3614 44.6365 17.1162C41.3233 17.6789 39.9487 22.3112 42.464 24.5545C44.6949 27.0311 49.2825 25.6802 49.8633 22.4197Z" fill="url(#paint2_linear_54_1007)"/>
<path d="M28.7678 31.2758C32.4278 30.0707 37.5126 31.0131 39.1879 34.8489C40.387 37.7801 37.7967 40.3152 35.6199 41.8621C36.3928 42.3875 37.3286 42.696 38.273 42.596C38.4506 42.5905 38.6359 42.5714 38.8235 42.5518C39.5049 42.4812 40.2173 42.4074 40.7088 42.9795C41.4775 44.0469 41.9078 45.6813 40.8967 46.7487C37.8803 47.7827 34.4124 47.028 31.9974 44.985C29.6912 46.7612 26.5995 47.7035 23.7249 46.9197C21.6611 46.386 22.271 42.867 24.0842 42.4417L24.1392 42.4469C25.5187 42.5789 26.9835 42.7191 28.2163 41.9454C26.6119 40.6195 24.8363 39.1352 24.3683 37.0129C24.0174 34.2819 26.3195 32.0179 28.7678 31.2758Z" fill="url(#paint3_linear_54_1007)"/>
<defs>
<linearGradient id="paint0_linear_54_1007" x1="25.75" y1="33.9453" x2="43.4746" y2="19.6897" gradientUnits="userSpaceOnUse">
<stop stop-color="#0072FF"/>
<stop offset="1" stop-color="#00E5A1"/>
</linearGradient>
<linearGradient id="paint1_linear_54_1007" x1="23.8904" y1="35.2478" x2="46.8318" y2="16.7965" gradientUnits="userSpaceOnUse">
<stop stop-color="#0072FF"/>
<stop offset="1" stop-color="#00E5A1"/>
</linearGradient>
<linearGradient id="paint2_linear_54_1007" x1="23.8904" y1="35.2478" x2="46.8318" y2="16.7965" gradientUnits="userSpaceOnUse">
<stop stop-color="#0072FF"/>
<stop offset="1" stop-color="#00E5A1"/>
</linearGradient>
<linearGradient id="paint3_linear_54_1007" x1="23.8904" y1="35.2478" x2="46.8318" y2="16.7965" gradientUnits="userSpaceOnUse">
<stop stop-color="#0072FF"/>
<stop offset="1" stop-color="#00E5A1"/>
</linearGradient>
</defs>
</svg>
