<svg width="65" height="64" viewBox="0 0 65 64" fill="none" xmlns="http://www.w3.org/2000/svg">
<g opacity="0.5">
<path fill-rule="evenodd" clip-rule="evenodd" d="M53.9658 6.61768C56.175 6.61768 57.9658 8.40869 57.9658 10.6177V27.2759C57.9658 25.0669 56.175 23.2759 53.9658 23.2759H31.5022C30.5095 23.2759 29.5525 22.9072 28.8169 22.2407L26.3701 20.0244C25.6345 19.3579 24.6772 18.9888 23.6846 18.9888H11.1582C8.94897 18.9888 7.1582 20.7798 7.1582 22.9888V14.9048C7.1582 12.6958 8.94897 10.9048 11.1582 10.9048H33.6218C34.6145 10.9048 35.5715 10.5361 36.3071 9.86963L38.7539 7.65332C39.4895 6.98682 40.4468 6.61768 41.4395 6.61768H53.9658Z" fill="url(#paint0_linear_339_330)"/>
<path d="M7.1582 22.9888C7.1582 20.7796 8.94906 18.9888 11.1582 18.9888H23.6846C24.6773 18.9888 25.6344 19.3578 26.3701 20.0243L28.8168 22.2406C29.5524 22.907 30.5096 23.2761 31.5022 23.2761H53.9658C56.175 23.2761 57.9658 25.067 57.9658 27.2761V53.3823C57.9658 55.5915 56.175 57.3823 53.9658 57.3823H11.1582C8.94907 57.3823 7.1582 55.5915 7.1582 53.3823V22.9888Z" fill="url(#paint1_linear_339_330)"/>
</g>
<path fill-rule="evenodd" clip-rule="evenodd" d="M14.833 15.4624C13.1762 15.4624 11.833 16.8055 11.833 18.4624V18.9995H23.6846C24.6773 18.9995 25.6344 19.3686 26.3701 20.035L28.8168 22.2514C29.5524 22.9178 30.5096 23.2869 31.5022 23.2869H53.2913V18.4624C53.2913 16.8055 51.9481 15.4624 50.2913 15.4624H14.833Z" fill="url(#paint2_linear_339_330)"/>
<path fill-rule="evenodd" clip-rule="evenodd" d="M19.8315 33C19.8315 32.4477 20.2793 32 20.8315 32H44.2927C44.845 32 45.2927 32.4477 45.2927 33V33.5542C45.2927 34.1065 44.845 34.5542 44.2927 34.5542H20.8315C20.2793 34.5542 19.8315 34.1065 19.8315 33.5542V33ZM19.8315 40.7656C19.8315 40.2133 20.2793 39.7656 20.8315 39.7656H44.2927C44.845 39.7656 45.2927 40.2133 45.2927 40.7656V41.3198C45.2927 41.8721 44.845 42.3198 44.2927 42.3198H20.8315C20.2793 42.3198 19.8315 41.8721 19.8315 41.3198V40.7656ZM32.74 48.2119C32.74 47.6596 32.2923 47.2119 31.74 47.2119H20.8315C20.2793 47.2119 19.8315 47.6596 19.8315 48.2119V48.7661C19.8315 49.3184 20.2793 49.7661 20.8315 49.7661H31.74C32.2923 49.7661 32.74 49.3184 32.74 48.7661V48.2119Z" fill="url(#paint3_linear_339_330)"/>
<defs>
<linearGradient id="paint0_linear_339_330" x1="57.9658" y1="28.2455" x2="17.2341" y2="10.3823" gradientUnits="userSpaceOnUse">
<stop stop-color="#6203FF"/>
<stop offset="0.703849" stop-color="#E901FF"/>
</linearGradient>
<linearGradient id="paint1_linear_339_330" x1="59.6759" y1="49.6007" x2="33.6023" y2="5.06612" gradientUnits="userSpaceOnUse">
<stop offset="0.173068" stop-color="#7C2EFF"/>
<stop offset="0.905415" stop-color="#ED2FFF"/>
</linearGradient>
<linearGradient id="paint2_linear_339_330" x1="72.301" y1="37.0655" x2="11.833" y2="16.1132" gradientUnits="userSpaceOnUse">
<stop stop-color="#731FFF"/>
<stop offset="1" stop-color="#EB1AFF"/>
</linearGradient>
<linearGradient id="paint3_linear_339_330" x1="47.5356" y1="42.9137" x2="32.9052" y2="18.6231" gradientUnits="userSpaceOnUse">
<stop offset="0.107098" stop-color="#7C2EFF"/>
<stop offset="0.905415" stop-color="#ED2FFF"/>
</linearGradient>
</defs>
</svg>
