<svg width="32" height="32" viewBox="0 0 32 32" fill="none" xmlns="http://www.w3.org/2000/svg">
<path d="M16 30C23.732 30 30 23.732 30 16C30 8.26801 23.732 2 16 2C8.26801 2 2 8.26801 2 16C2 23.732 8.26801 30 16 30Z" fill="url(#paint0_linear_274_115)"/>
<path d="M8.14252 19.8957C7.95497 20.0833 7.84961 20.3376 7.84961 20.6028V24C7.84961 24.5523 8.29732 25 8.84961 25H12.2465C12.5116 25 12.766 24.8947 12.9535 24.7071L20.5055 17.1559C20.8961 16.7654 20.8961 16.1322 20.5055 15.7416L17.1079 12.3447C16.7174 11.9542 16.0843 11.9543 15.6938 12.3448L8.14252 19.8957ZM25.468 12.208C25.9768 11.6991 25.9768 10.8973 25.468 10.3884L22.4602 7.38166C21.9513 6.87278 21.1494 6.87278 20.6405 7.38166L18.8298 9.20355C18.4413 9.59442 18.4423 10.2259 18.832 10.6156L22.2332 14.0168C22.6229 14.4065 23.2543 14.4075 23.6452 14.0191L25.468 12.208Z" fill="url(#paint1_linear_274_115)"/>
<defs>
<linearGradient id="paint0_linear_274_115" x1="16" y1="30" x2="16" y2="2" gradientUnits="userSpaceOnUse">
<stop stop-color="#A5A5A5"/>
<stop offset="0.9973" stop-color="#DCDCDC"/>
</linearGradient>
<linearGradient id="paint1_linear_274_115" x1="16.871" y1="24.9972" x2="24.2164" y2="11.1376" gradientUnits="userSpaceOnUse">
<stop stop-color="#4D4D4D"/>
<stop offset="1" stop-color="#979797"/>
</linearGradient>
</defs>
</svg>
