<svg width="128" height="128" viewBox="0 0 128 128" fill="none" xmlns="http://www.w3.org/2000/svg">
<g opacity="0.4">
<circle cx="64" cy="64" r="58" fill="#D9D9D9"/>
<circle cx="64" cy="64" r="58" fill="url(#paint0_linear_60_452)"/>
</g>
<path fill-rule="evenodd" clip-rule="evenodd" d="M70.8694 8.45462C66.1815 7.78385 61.4032 7.91285 56.7091 8.46752C45.151 9.94451 34.0901 15.13 25.6186 23.1342C17.3601 30.8416 11.5488 41.1224 9.23074 52.1772C6.64149 64.2188 8.15888 77.125 13.5828 88.199C19.4522 100.376 29.9254 110.263 42.4326 115.43C53.3901 120.048 65.8392 120.951 77.3715 118.106C89.8526 115.055 101.178 107.542 108.842 97.2412C117.127 86.322 121.072 72.268 119.749 58.6333C119.729 56.8662 119.071 54.8731 117.282 54.1702C114.461 52.7577 111.032 55.6214 111.794 58.6463C113.188 71.2683 109.378 84.3869 101.243 94.1713C94.1597 102.872 83.9384 108.934 72.8969 110.979C62.8819 112.856 52.2666 111.521 43.0976 107.071C33.0183 102.233 24.734 93.7651 20.1753 83.5677C15.6555 73.6291 14.674 62.1291 17.5086 51.5774C20.4659 40.2001 27.8785 30.0934 37.7319 23.6888C47.03 17.5681 58.5364 14.9108 69.5779 16.2459C71.6183 16.5748 73.7038 14.9817 73.962 12.9436C74.356 10.9313 72.8901 8.78355 70.8694 8.45462ZM87.3613 13.1049C84.8499 11.7246 81.518 13.9239 81.7052 16.7489C81.6637 23.6519 81.6715 30.5547 81.6794 37.4576C81.6825 40.21 81.6857 42.9623 81.6857 45.7146C77.3854 41.5932 71.6517 38.9553 65.6853 38.6006C57.6786 38.0008 49.5105 41.5481 44.4483 47.7591C40.5482 52.39 38.4368 58.4656 38.6434 64.5155C38.7338 71.1973 41.7169 77.7502 46.6049 82.2909C52.145 87.5278 60.1387 90.1401 67.6934 88.9215C79.3419 87.4055 89.0082 76.8863 89.3373 65.1218C89.3744 57.831 89.3693 50.5386 89.3641 43.2452C89.3595 36.557 89.3548 29.8681 89.3826 23.1792C97.1951 27.9908 103.562 35.1242 107.494 43.412C108.127 45.018 109.774 46.2887 111.562 46.037C114.19 45.979 116.024 42.8315 114.855 40.4904C109.341 28.4809 99.3966 18.5742 87.3613 13.1049ZM49.9237 53.1834C52.8488 49.3458 57.3687 46.8046 62.1726 46.2887C68.5585 45.592 75.216 48.7201 78.7154 54.1057C83.8098 61.3551 82.1053 72.2618 75.0544 77.6211C68.307 83.271 57.4268 82.6329 51.3895 76.2348C45.2618 70.2943 44.6033 59.8524 49.9237 53.1834Z" fill="url(#paint1_linear_60_452)" stroke="url(#paint2_linear_60_452)" stroke-width="4"/>
<defs>
<linearGradient id="paint0_linear_60_452" x1="77.3831" y1="90.3228" x2="77.3831" y2="10.8606" gradientUnits="userSpaceOnUse">
<stop stop-color="#02AA93"/>
<stop offset="1" stop-color="#67FF80"/>
</linearGradient>
<linearGradient id="paint1_linear_60_452" x1="76.9216" y1="89.217" x2="76.9216" y2="12.6816" gradientUnits="userSpaceOnUse">
<stop stop-color="#02AA93"/>
<stop offset="1" stop-color="#67FF80"/>
</linearGradient>
<linearGradient id="paint2_linear_60_452" x1="76.9216" y1="89.217" x2="76.9216" y2="12.6816" gradientUnits="userSpaceOnUse">
<stop stop-color="#02AA93"/>
<stop offset="1" stop-color="#67FF80"/>
</linearGradient>
</defs>
</svg>
