<svg width="64" height="64" viewBox="0 0 64 64" fill="none" xmlns="http://www.w3.org/2000/svg">
<circle opacity="0.4" cx="32" cy="32" r="28" fill="url(#paint0_linear_37_70)"/>
<path d="M35.0136 27.4013C34.8235 28.1753 34.9803 29.0159 35.5442 29.5792L48.7503 42.7725C49.3694 43.2536 49.3694 44.3531 48.6127 44.9714L45.036 48.5104C44.417 49.1632 43.4884 49.1632 42.8693 48.5104L29.6531 35.339C29.0943 34.7821 28.2639 34.6238 27.4969 34.8087C24.2224 35.5983 20.6267 34.7071 18.0044 32.0872C15.6526 29.6576 14.6091 26.3151 15.1322 23.1882C15.3565 21.8479 16.9718 21.5528 17.9429 22.5034L21.4006 25.8884C22.1858 26.6571 23.444 26.6484 24.2184 25.8689L26.0562 24.0193C26.8333 23.2372 26.8309 21.9739 26.051 21.1947L22.8262 17.9731C21.8398 16.9877 22.161 15.3286 23.5393 15.1187C26.6283 14.6483 29.9064 15.5717 32.2769 17.9662C34.8955 20.5518 35.8157 24.1341 35.0136 27.4013Z" fill="url(#paint1_linear_37_70)"/>
<defs>
<linearGradient id="paint0_linear_37_70" x1="31.9999" y1="60" x2="31.9999" y2="4" gradientUnits="userSpaceOnUse">
<stop stop-color="#FDA700"/>
<stop offset="1" stop-color="#FFDE00"/>
</linearGradient>
<linearGradient id="paint1_linear_37_70" x1="32.0993" y1="49" x2="32.0993" y2="15" gradientUnits="userSpaceOnUse">
<stop stop-color="#FDA700"/>
<stop offset="1" stop-color="#FFDE00"/>
</linearGradient>
</defs>
</svg>
