<svg width="256" height="256" viewBox="0 0 256 256" fill="none" xmlns="http://www.w3.org/2000/svg">
<g filter="url(#filter0_d_54_307)">
<path opacity="0.4" d="M128 16C189.855 16 240 66.1467 240 128.002C240 189.239 190.854 238.996 129.852 239.985L128 240L128.556 239.995L127.443 240C66.4613 239.702 17.0011 190.67 16.015 129.854L16 128.002C16 66.1467 66.1447 16 128 16ZM128.723 27.5613L127.159 27.5731C126.987 27.5757 126.814 27.5788 126.641 27.5823C126.273 27.5897 125.904 27.5991 125.536 27.6105L126.641 27.5823C126.085 27.5935 125.531 27.6092 124.977 27.6293L125.536 27.6105C125.042 27.6258 124.55 27.6446 124.058 27.6669L124.977 27.6293C124.403 27.6502 123.83 27.6759 123.259 27.7064L124.058 27.6669C123.528 27.691 123 27.7191 122.472 27.7513L123.259 27.7064C122.769 27.7324 122.281 27.7619 121.794 27.7949L122.472 27.7513C121.936 27.7839 121.402 27.8207 120.868 27.8617L121.794 27.7949C121.268 27.8304 120.744 27.87 120.221 27.9135L120.868 27.8617C120.346 27.9018 119.825 27.9459 119.305 27.9939L120.221 27.9135C119.69 27.9577 119.16 28.006 118.632 28.0583L119.305 27.9939C118.754 28.0448 118.204 28.1001 117.656 28.1598L118.632 28.0583C118.079 28.1131 117.527 28.1723 116.976 28.236C116.516 28.2892 116.056 28.3456 115.597 28.405L116.976 28.236C116.418 28.3005 115.862 28.3696 115.307 28.4431L115.597 28.405C115.083 28.4716 114.571 28.542 114.06 28.6163L115.307 28.4431C114.697 28.5239 114.089 28.6102 113.483 28.7018L114.06 28.6163C113.671 28.6727 113.284 28.7312 112.897 28.792C99.2042 50.1701 92.1518 82.1517 92.7488 102.156L92.7478 102.194C92.7175 103.404 92.1683 133.779 113.119 144.694C113.119 144.694 132.331 153.175 145.424 125.75C145.424 125.75 154.423 110.273 150.76 75.2939C150.76 75.2939 154.264 75.9152 154.66 76.4734C155.057 77.0271 162.4 103.403 157.24 125.615C157.24 125.615 152.49 151.717 129.135 157.686C105.789 163.656 87.5936 149.214 75.2404 135.609C66.4278 125.905 53.5243 100.531 46.5414 69.7257C45.3733 71.3496 44.2521 73.0094 43.1799 74.7033C43.1303 74.778 43.0822 74.8542 43.0343 74.9304L43.1799 74.7033C42.9995 74.9884 42.8204 75.2745 42.6427 75.5615L43.0343 74.9304C42.6881 75.4807 42.3471 76.0345 42.0113 76.5919L42.6427 75.5615C42.3255 76.0739 42.0128 76.5892 41.7046 77.1076L42.0113 76.5919C41.784 76.9691 41.5591 77.348 41.3366 77.7285L41.7046 77.1076C41.4703 77.5018 41.2385 77.8976 41.0094 78.2952L41.3366 77.7285C41.0216 78.2671 40.7114 78.8089 40.4061 79.3538L41.0094 78.2952C40.7507 78.7442 40.4953 79.1953 40.2433 79.6486L40.4061 79.3538C40.2189 79.6881 40.0334 80.0236 39.8499 80.3602L40.2433 79.6486C39.9461 80.1832 39.6535 80.7208 39.3658 81.2613C39.2386 81.4975 39.1136 81.7346 38.9895 81.9723L39.3658 81.2613C39.131 81.7024 38.8993 82.1455 38.6709 82.5904L38.9895 81.9723C38.7876 82.3591 38.5881 82.7474 38.391 83.1371L38.6709 82.5904C38.469 82.9836 38.2696 83.3783 38.0727 83.7745L37.5302 84.8833C37.47 85.0082 37.4101 85.1333 37.3504 85.2585L37.5302 84.8833C37.3383 85.2817 37.1479 85.6816 36.9611 86.0829L37.3504 85.2585C37.1263 85.7288 36.9056 86.2011 36.6885 86.6754C36.5486 86.9792 36.411 87.2839 36.2748 87.5894L36.6885 86.6754C36.4634 87.1674 36.242 87.6614 36.0246 88.1576L36.2748 87.5894C36.103 87.975 35.9335 88.3619 35.7664 88.75L36.0246 88.1576C35.8078 88.6521 35.5949 89.1487 35.3858 89.6474C35.2628 89.9391 35.1416 90.2323 35.0217 90.5261L35.3858 89.6474C35.206 90.0763 35.0291 90.5068 34.855 90.9387L35.0217 90.5261C34.8421 90.9662 34.6655 91.4079 34.4919 91.8511L34.855 90.9387C34.6552 91.4345 34.4592 91.9323 34.267 92.432C34.1312 92.784 33.9978 93.1369 33.8663 93.4907L34.267 92.432C34.0619 92.9655 33.8612 93.5012 33.6649 94.0389L33.8663 93.4907C33.6973 93.9454 33.5315 94.4017 33.3689 94.8596L33.6649 94.0389C33.5104 94.4621 33.3587 94.8865 33.2098 95.3123C33.0421 95.7903 32.8786 96.2693 32.7186 96.7499L32.2514 98.1905C32.2218 98.2843 32.1922 98.3781 32.1628 98.4721C32.056 98.8125 31.951 99.1543 31.8478 99.4969L32.1628 98.4721C32 98.9923 31.8412 99.5144 31.6866 100.038C31.5531 100.491 31.4223 100.945 31.2948 101.401C31.1782 101.817 31.0646 102.233 30.9535 102.65L31.2948 101.401C31.1486 101.923 31.0064 102.447 30.8684 102.973L30.9535 102.65C30.8311 103.111 30.7117 103.573 30.5956 104.036L30.8684 102.973C30.7221 103.531 30.5805 104.09 30.4436 104.65C30.3604 104.991 30.2789 105.332 30.1991 105.675L30.4436 104.65C30.318 105.165 30.1962 105.681 30.0785 106.199L30.1991 105.675C30.0643 106.253 29.9345 106.833 29.8097 107.415L30.0785 106.199C29.9741 106.658 29.8728 107.119 29.7746 107.58L29.8097 107.415C29.6971 107.941 29.5885 108.468 29.4841 108.996L29.7746 107.58C29.6599 108.12 29.5495 108.66 29.4434 109.203L29.4841 108.996C29.38 109.522 29.28 110.05 29.1842 110.58L29.4434 109.203C29.342 109.722 29.2446 110.242 29.1512 110.763L29.1842 110.58C29.0978 111.057 29.0147 111.535 28.935 112.014L29.1512 110.763C29.0505 111.325 28.9544 111.889 28.863 112.454L28.935 112.014C28.836 112.61 28.7421 113.208 28.6535 113.807L28.863 112.454C28.7782 112.979 28.6973 113.505 28.6206 114.032L28.6535 113.807C28.581 114.298 28.512 114.79 28.4465 115.283L28.6206 114.032C28.5472 114.537 28.4775 115.042 28.4116 115.549L28.4465 115.283C28.3737 115.831 28.3054 116.38 28.2415 116.931L28.4116 115.549C28.3317 116.163 28.2573 116.779 28.1885 117.397L28.2415 116.931C28.1132 118.036 28.0027 119.146 27.9103 120.262C27.9013 120.37 27.8925 120.478 27.8839 120.587L27.9103 120.262C27.8721 120.723 27.837 121.185 27.805 121.648L27.8839 120.587C27.843 121.1 27.806 121.615 27.7728 122.13L27.805 121.648C27.7639 122.243 27.7279 122.839 27.6972 123.436L27.7728 122.13C27.7355 122.711 27.703 123.292 27.6755 123.875L27.6972 123.436C27.666 124.041 27.6402 124.647 27.6197 125.255L27.6755 123.875C27.652 124.373 27.6321 124.871 27.6158 125.371L27.6197 125.255C27.602 125.78 27.5883 126.307 27.5786 126.835C27.5762 126.964 27.5741 127.092 27.5722 127.221L27.5786 126.835C27.5671 127.464 27.5613 128.094 27.5613 128.725L27.5704 130.097C27.573 130.295 27.5762 130.493 27.58 130.691C27.5858 130.994 27.5929 131.298 27.6014 131.601L27.58 130.691C27.5894 131.186 27.6024 131.68 27.619 132.174L27.6014 131.601C27.6202 132.275 27.6456 132.948 27.6776 133.619L27.619 132.174C27.6377 132.733 27.661 133.291 27.6888 133.849L27.6776 133.619C27.7012 134.115 27.7285 134.611 27.7592 135.105L27.6888 133.849C27.716 134.393 27.7474 134.937 27.7832 135.479L27.7592 135.105C27.7924 135.637 27.8296 136.169 27.871 136.699L27.7832 135.479C27.8177 136.002 27.8562 136.525 27.8986 137.046L27.871 136.699C27.917 137.29 27.9682 137.879 28.0243 138.466L27.8986 137.046C27.9506 137.685 28.0085 138.321 28.0723 138.957L28.0243 138.466C28.0685 138.929 28.1157 139.39 28.1661 139.85L28.0723 138.957C28.1223 139.454 28.1758 139.95 28.233 140.445L28.1661 139.85C28.2909 140.991 28.4347 142.126 28.5971 143.256C28.6182 143.402 28.6396 143.548 28.6613 143.695L28.5971 143.256C28.7484 144.307 28.9159 145.354 29.0992 146.394C29.1428 146.642 29.1873 146.889 29.2327 147.136L29.0992 146.394C29.1902 146.911 29.285 147.426 29.3837 147.939L29.2327 147.136C29.3106 147.56 29.3911 147.982 29.4743 148.404L29.3837 147.939C29.4968 148.527 29.615 149.114 29.7383 149.698L29.4743 148.404C29.5781 148.93 29.6859 149.455 29.7978 149.978C29.8877 150.399 29.9806 150.82 30.0761 151.24L29.7978 149.978C29.9202 150.551 30.0474 151.121 30.1794 151.69L30.0761 151.24C30.1658 151.635 30.2579 152.029 30.3522 152.422L30.1794 151.69C30.2907 152.17 30.4054 152.648 30.5235 153.124L30.3522 152.422C30.5169 153.108 30.6887 153.792 30.8673 154.473L30.5235 153.124C30.6579 153.667 30.7967 154.208 30.9398 154.747L30.8673 154.473C30.9886 154.935 31.113 155.395 31.2405 155.855L30.9398 154.747C31.0778 155.267 31.2199 155.786 31.366 156.303L31.2405 155.855C31.5231 156.872 31.8212 157.883 32.1345 158.888C32.2044 159.111 32.2751 159.336 32.3467 159.559L32.1345 158.888C32.2689 159.318 32.4062 159.748 32.5462 160.177L32.3467 159.559C32.4867 159.997 32.6296 160.434 32.7754 160.869L33.1665 162.014C33.2254 162.183 33.2848 162.352 33.3445 162.521L33.1665 162.014C33.3284 162.479 33.4936 162.942 33.6621 163.404L33.3445 162.521C33.4944 162.944 33.647 163.365 33.8023 163.786L33.6621 163.404C34.0496 164.466 34.4544 165.519 34.8761 166.564C34.8966 166.615 34.9172 166.666 34.9378 166.717L34.8761 166.564C35.0267 166.937 35.1794 167.309 35.3343 167.68L34.9378 166.717C35.1395 167.214 35.3449 167.709 35.5542 168.203L35.3343 167.68C35.5815 168.272 35.8341 168.861 36.0921 169.447L35.5542 168.203C35.7655 168.7 35.9806 169.196 36.1995 169.69L36.0921 169.447C36.2845 169.884 36.4799 170.319 36.6782 170.753L36.1995 169.69C36.4239 170.196 36.6522 170.7 36.8846 171.201L36.6782 170.753C36.9344 171.313 37.1955 171.87 37.4616 172.425C61.0316 179.232 117.312 191.332 153.362 164.911C177.681 147.085 174.547 118.537 174.547 118.537C174.145 96.8215 160.924 75.2516 160.924 75.2516C212.332 121.758 181.948 173.425 181.948 173.425C167.932 202.051 139.258 220.454 113.99 228.818C114.489 228.892 114.989 228.961 115.491 229.026C115.603 229.041 115.716 229.056 115.828 229.07L115.491 229.026C116.013 229.095 116.535 229.159 117.06 229.219L115.828 229.07C116.441 229.148 117.056 229.22 117.672 229.287L117.06 229.219C117.54 229.274 118.021 229.326 118.504 229.374L117.672 229.287C118.199 229.345 118.728 229.398 119.258 229.447L118.504 229.374C119.062 229.43 119.622 229.482 120.184 229.529L119.258 229.447C119.781 229.496 120.306 229.54 120.832 229.581L120.184 229.529C120.665 229.569 121.147 229.606 121.63 229.639L120.832 229.581C121.357 229.621 121.883 229.658 122.41 229.69L121.63 229.639C122.219 229.68 122.809 229.716 123.401 229.746L122.41 229.69C122.9 229.72 123.39 229.747 123.882 229.77L123.401 229.746C123.989 229.777 124.578 229.802 125.169 229.823L123.882 229.77C124.407 229.795 124.932 229.816 125.459 229.832L125.169 229.823C125.704 229.841 126.239 229.855 126.776 229.866L125.459 229.832C126.01 229.85 126.562 229.863 127.115 229.871L128.723 229.884C184.593 229.884 229.884 184.594 229.884 128.725C229.884 128.156 229.879 127.589 229.87 127.023C229.869 126.992 229.869 126.961 229.868 126.93L229.87 127.023C229.852 125.945 229.817 124.872 229.766 123.803C229.762 123.716 229.758 123.629 229.753 123.542L229.766 123.803C229.741 123.286 229.713 122.77 229.68 122.255L229.753 123.542C229.72 122.89 229.681 122.239 229.636 121.59L229.68 122.255C229.61 121.146 229.522 120.042 229.417 118.942C229.403 118.792 229.388 118.642 229.373 118.491L229.417 118.942C229.311 117.838 229.187 116.738 229.046 115.644C229.034 115.549 229.021 115.454 229.009 115.36L229.046 115.644C228.833 113.995 228.58 112.359 228.289 110.735C228.272 110.641 228.255 110.547 228.238 110.453L228.289 110.735C228.1 109.68 227.894 108.631 227.672 107.587C227.664 107.547 227.655 107.507 227.647 107.468L227.672 107.587C227.115 104.969 226.457 102.387 225.702 99.848C225.668 99.7332 225.634 99.6193 225.6 99.5054L225.702 99.848C225.545 99.3173 225.383 98.7883 225.216 98.2612C225.208 98.2353 225.2 98.2096 225.192 98.184L224.768 96.8757C224.725 96.7437 224.681 96.6118 224.636 96.4801L224.768 96.8757C224.258 95.3361 223.712 93.8133 223.131 92.3075C223.108 92.2487 223.085 92.1904 223.063 92.1322L223.131 92.3075C222.954 91.8494 222.774 91.3929 222.591 90.9381L223.063 92.1322C222.878 91.6563 222.69 91.1822 222.498 90.7098L222.591 90.9381C222.384 90.4258 222.174 89.9155 221.959 89.4074L222.498 90.7098C222.293 90.203 222.083 89.6983 221.869 89.1957L221.959 89.4074C221.153 87.4989 220.291 85.6203 219.373 83.7738C219.309 83.6447 219.245 83.5164 219.181 83.3883L219.373 83.7738C219.137 83.2983 218.897 82.825 218.654 82.3538L219.181 83.3883C218.929 82.8863 218.672 82.3866 218.412 81.8894L218.654 82.3538C218.429 81.9186 218.201 81.4851 217.97 81.0536L218.412 81.8894C218.214 81.5108 218.014 81.1336 217.811 80.7578L217.97 81.0536C217.7 80.5485 217.425 80.046 217.146 79.5461L217.811 80.7578C217.532 80.2406 217.248 79.7261 216.961 79.2143L217.146 79.5461C216.649 78.6543 216.139 77.7709 215.616 76.896C215.556 76.795 215.495 76.6936 215.434 76.5924C215.122 76.0749 214.805 75.5592 214.484 75.0472C214.351 74.8351 214.218 74.6237 214.083 74.4129L214.484 75.0472C214.255 74.6813 214.023 74.3169 213.789 73.9542L214.083 74.4129C213.742 73.8781 213.396 73.3467 213.046 72.8188L213.789 73.9542C213.5 73.5065 213.208 73.0612 212.912 72.6184L213.046 72.8188C212.791 72.4361 212.535 72.0552 212.275 71.6762L212.912 72.6184C212.639 72.2097 212.363 71.803 212.085 71.3984L212.275 71.6762C211.994 71.2652 211.71 70.8563 211.423 70.4496L212.085 71.3984C211.755 70.9194 211.421 70.4434 211.083 69.9705L211.423 70.4496C210.221 68.7475 208.969 67.0842 207.667 65.4619C207.587 65.3628 207.508 65.2641 207.428 65.1656L207.667 65.4619C207.316 65.0251 206.963 64.5914 206.605 64.1606L207.428 65.1656C207.074 64.728 206.717 64.2934 206.356 63.8618L206.605 64.1606C206.221 63.6977 205.833 63.2383 205.441 62.7825C200.993 63.0347 196.031 63.1531 190.912 62.9851C190.912 62.9851 163.561 64.2624 148.224 71.9121C148.224 71.9121 136.787 77.0119 125.355 85.6586C125.355 85.6586 125.314 85.679 125.243 85.7242L125.176 85.7691C124.617 86.153 122.948 87.6143 123.046 91.3282C123.149 95.771 120.718 107.615 112.618 114.558C112.618 114.558 106.836 117.53 109.727 121.785C109.727 121.785 113.632 127.454 119.132 121.5C119.132 121.5 133.314 106.908 134.182 83.3936C134.182 83.3936 138.669 79.5618 145.755 78.4316C145.755 78.4316 145.771 78.8585 145.776 79.6418L145.777 80.3609C145.752 87.9646 144.609 116.187 129.555 131.419C129.555 131.419 112.904 149.553 107.554 122.635C107.554 122.635 101.04 96.9885 134.619 66.532C134.619 66.532 134.628 66.523 134.646 66.5052L134.726 66.4257L134.753 66.3979L134.941 66.2116C136.748 64.4146 145.898 55.3525 155.487 46.504L156.447 45.6201C156.607 45.473 156.768 45.326 156.928 45.1792L157.89 44.3006C161.376 41.1237 164.844 38.0569 167.965 35.4567L167.836 35.4008C167.488 35.2546 167.139 35.1103 166.788 34.9679C166.52 34.8607 166.252 34.7531 165.984 34.6466L166.788 34.9679C166.414 34.8159 166.039 34.6661 165.663 34.5184L165.984 34.6466C165.561 34.479 165.137 34.3142 164.712 34.1521L165.663 34.5184C165.257 34.3591 164.85 34.2023 164.441 34.0481L164.712 34.1521C164.318 34.0019 163.922 33.8541 163.525 33.7087L162.377 33.2956C162.186 33.2283 161.995 33.1617 161.804 33.0955L162.376 33.2943C161.905 33.1283 161.433 32.9658 160.96 32.8066L161.804 33.0955C161.341 32.9353 160.876 32.7783 160.41 32.6246L160.96 32.8066C160.455 32.6371 159.949 32.4715 159.441 32.3098L160.41 32.6246C159.981 32.483 159.55 32.3442 159.118 32.2083C158.424 31.9906 157.726 31.7786 157.026 31.5748C156.857 31.5252 156.689 31.4768 156.52 31.4287L157.026 31.5748C156.606 31.4526 156.185 31.3331 155.762 31.2163L156.52 31.4287C155.968 31.2711 155.413 31.118 154.856 30.9696L155.762 31.2163C155.347 31.1013 154.93 30.9888 154.513 30.879L154.856 30.9696C154.289 30.8182 153.719 30.6716 153.148 30.5299L154.513 30.879C153.877 30.7119 153.24 30.5509 152.599 30.396L153.148 30.5299C152.693 30.4173 152.238 30.3077 151.781 30.2012L152.599 30.396C152.093 30.2733 151.585 30.1545 151.075 30.0395L151.781 30.2012C151.327 30.0953 150.872 29.9925 150.415 29.8928L151.075 30.0395C150.62 29.9369 150.164 29.8373 149.706 29.7408L150.415 29.8928C149.294 29.6478 148.166 29.4214 147.031 29.214C146.808 29.1733 146.584 29.1332 146.361 29.0938L147.031 29.214C146.533 29.1228 146.033 29.0354 145.532 28.9516L146.361 29.0938C145.892 29.0115 145.423 28.9324 144.953 28.8565L145.532 28.9516C144.93 28.8509 144.327 28.7556 143.722 28.6657L144.953 28.8565C144.372 28.7629 143.79 28.6743 143.207 28.5906C142.817 28.5346 142.427 28.481 142.036 28.4296L143.207 28.5906C142.709 28.5192 142.211 28.4515 141.711 28.3874L142.036 28.4296C141.592 28.3713 141.148 28.3158 140.703 28.2633L141.711 28.3874C141.156 28.3163 140.599 28.2496 140.041 28.1875L140.703 28.2633C140.025 28.1833 139.345 28.11 138.663 28.0435L140.041 28.1875C139.57 28.135 139.097 28.0857 138.624 28.0398L138.663 28.0435C138.188 27.9972 137.712 27.9541 137.235 27.9144L138.624 28.0398C137.994 27.9785 137.362 27.9231 136.728 27.8735L137.235 27.9144C136.705 27.8702 136.173 27.8301 135.641 27.7941L136.728 27.8735C136.223 27.8339 135.717 27.798 135.209 27.7659L135.641 27.7941C135.005 27.7512 134.368 27.7141 133.729 27.683L135.209 27.7659C134.688 27.733 134.166 27.7039 133.643 27.6789L133.729 27.683C133.257 27.66 132.785 27.6403 132.312 27.6238L133.643 27.6789C133.008 27.6484 132.371 27.6239 131.733 27.6052L132.312 27.6238C131.772 27.6049 131.23 27.5903 130.687 27.58L131.733 27.6052C131.234 27.5906 130.733 27.5797 130.232 27.5723L128.723 27.5613Z" fill="url(#paint0_linear_54_307)"/>
<path fill-rule="evenodd" clip-rule="evenodd" d="M135.956 84.5629L165.171 58.6869C169.224 55.0972 175.365 55.5348 178.888 59.6642L203.715 88.7637C207.238 92.8931 206.809 99.1507 202.756 102.74L173.541 128.616C169.488 132.206 163.347 131.768 159.823 127.639L134.997 98.5395C131.474 94.4101 131.903 88.1525 135.956 84.5629ZM108.255 68.9093H66.9309C61.5608 68.9093 57.2075 73.3449 57.2075 78.8164V118.445C57.2075 123.916 61.5608 128.352 66.9309 128.352H108.255C113.625 128.352 117.979 123.916 117.979 118.445V78.8164C117.979 73.3449 113.625 68.9093 108.255 68.9093ZM108.255 145.689H66.9309C61.5608 145.689 57.2075 150.125 57.2075 155.597V195.225C57.2075 200.697 61.5608 205.132 66.9309 205.132H108.255C113.625 205.132 117.979 200.697 117.979 195.225V155.597C117.979 150.125 113.625 145.689 108.255 145.689ZM144.718 145.689H186.042C191.412 145.689 195.765 150.125 195.765 155.597V195.225C195.765 200.697 191.412 205.132 186.042 205.132H144.718C139.348 205.132 134.994 200.697 134.994 195.225V155.597C134.994 150.125 139.348 145.689 144.718 145.689Z" fill="url(#paint1_linear_54_307)"/>
</g>
<defs>
<filter id="filter0_d_54_307" x="6" y="10" width="244" height="244" filterUnits="userSpaceOnUse" color-interpolation-filters="sRGB">
<feFlood flood-opacity="0" result="BackgroundImageFix"/>
<feColorMatrix in="SourceAlpha" type="matrix" values="0 0 0 0 0 0 0 0 0 0 0 0 0 0 0 0 0 0 127 0" result="hardAlpha"/>
<feOffset dy="4"/>
<feGaussianBlur stdDeviation="5"/>
<feColorMatrix type="matrix" values="0 0 0 0 0 0 0 0 0 0 0 0 0 0 0 0 0 0 0.2 0"/>
<feBlend mode="normal" in2="BackgroundImageFix" result="effect1_dropShadow_54_307"/>
<feBlend mode="normal" in="SourceGraphic" in2="effect1_dropShadow_54_307" result="shape"/>
</filter>
<linearGradient id="paint0_linear_54_307" x1="48.8042" y1="207.196" x2="207.196" y2="48.8042" gradientUnits="userSpaceOnUse">
<stop stop-color="#0072FF"/>
<stop offset="1" stop-color="#00E5A1"/>
</linearGradient>
<linearGradient id="paint1_linear_54_307" x1="79.0124" y1="183.33" x2="184.283" y2="78.047" gradientUnits="userSpaceOnUse">
<stop stop-color="#0072FF"/>
<stop offset="1" stop-color="#00E5A1"/>
</linearGradient>
</defs>
</svg>
