<svg width="32" height="32" viewBox="0 0 32 32" fill="none" xmlns="http://www.w3.org/2000/svg">
<path d="M16.2682 20.245C13.8614 20.245 11.9146 18.37 11.9146 16.015C11.9146 13.66 13.8614 11.77 16.2682 11.77C18.6749 11.77 20.5757 13.66 20.5757 16.015C20.5757 18.37 18.6749 20.245 16.2682 20.245" fill="url(#paint0_linear_5_77)"/>
<path opacity="0.4" d="M30.0952 19.555C29.8039 19.105 29.39 18.655 28.8535 18.37C28.4243 18.16 28.1484 17.815 27.9031 17.41C27.1213 16.12 27.5812 14.425 28.8842 13.66C30.4171 12.805 30.9077 10.9 30.0185 9.415L28.9915 7.645C28.1177 6.16 26.2015 5.635 24.6839 6.505C23.3349 7.225 21.6027 6.745 20.8209 5.47C20.5757 5.05 20.4377 4.6 20.4684 4.15C20.5143 3.565 20.3304 3.01 20.0545 2.56C19.4873 1.63 18.4602 1 17.3258 1H15.1644C14.0454 1.03 13.0183 1.63 12.4511 2.56C12.1598 3.01 11.9912 3.565 12.0219 4.15C12.0525 4.6 11.9146 5.05 11.6693 5.47C10.8875 6.745 9.15529 7.225 7.82164 6.505C6.2887 5.635 4.38786 6.16 3.49876 7.645L2.47169 9.415C1.59791 10.9 2.08845 12.805 3.60606 13.66C4.90906 14.425 5.36894 16.12 4.60247 17.41C4.34187 17.815 4.06594 18.16 3.63672 18.37C3.11552 18.655 2.65564 19.105 2.41037 19.555C1.84318 20.485 1.87384 21.655 2.44103 22.63L3.49876 24.43C4.06594 25.39 5.12367 25.99 6.22738 25.99C6.74858 25.99 7.36175 25.84 7.85229 25.54C8.23553 25.285 8.69541 25.195 9.20128 25.195C10.7189 25.195 11.9912 26.44 12.0219 27.925C12.0219 29.65 13.4322 31 15.2104 31H17.2952C19.0581 31 20.4684 29.65 20.4684 27.925C20.5143 26.44 21.7867 25.195 23.3043 25.195C23.7948 25.195 24.2547 25.285 24.6533 25.54C25.1438 25.84 25.7417 25.99 26.2782 25.99C27.3666 25.99 28.4243 25.39 28.9915 24.43L30.0645 22.63C30.6164 21.625 30.6624 20.485 30.0952 19.555" fill="url(#paint1_linear_5_77)"/>
<defs>
<linearGradient id="paint0_linear_5_77" x1="16.2452" y1="20.245" x2="16.2452" y2="11.77" gradientUnits="userSpaceOnUse">
<stop stop-color="#5570FF"/>
<stop offset="1" stop-color="#4DD3FF"/>
</linearGradient>
<linearGradient id="paint1_linear_5_77" x1="16.25" y1="31" x2="16.25" y2="1" gradientUnits="userSpaceOnUse">
<stop stop-color="#5570FF"/>
<stop offset="1" stop-color="#4DD3FF"/>
</linearGradient>
</defs>
</svg>
