<svg width="48" height="48" viewBox="0 0 48 48" fill="none" xmlns="http://www.w3.org/2000/svg">
<rect opacity="0.4" x="3" y="3" width="42" height="42" rx="6" fill="url(#paint0_linear_124_74)"/>
<path fill-rule="evenodd" clip-rule="evenodd" d="M29.3949 19.3709C29.3258 19.4811 29.3794 19.627 29.5031 19.6674C34.4196 21.2744 38.9081 23.6332 41.1968 24.9277C41.4052 25.0456 41.2532 25.3783 41.0217 25.3173C33.959 23.4576 26.1785 25.011 24.6107 25.3607C24.4727 25.3914 24.4132 25.5476 24.4942 25.6634C26.2706 28.2031 32.3491 37.6922 34.6827 41.3443C34.8106 41.5443 34.5255 41.7789 34.3499 41.6191C31.8806 39.3734 26.0653 34.3523 19.5789 30.6316C10.9956 25.5826 12.1519 17.7551 12.4156 16.4406C12.4373 16.3327 12.3714 16.2278 12.2649 16.1999L5.60951 14.459C5.38259 14.3996 5.42557 14.0655 5.66013 14.0655H12.889C12.9271 14.0655 12.9656 14.0538 12.9979 14.0335C16.8732 11.5918 19.1723 13.9147 20.3226 15.8939C20.3834 15.9984 20.5215 16.0288 20.6195 15.9578C21.0766 15.627 21.5784 15.2874 22.1286 14.9394C29.9662 9.98168 37.2263 7.03287 39.6974 6.09297C39.8999 6.01597 40.0615 6.27081 39.9072 6.42275C38.1336 8.16879 33.2572 13.2028 29.3949 19.3709Z" fill="url(#paint1_linear_124_74)"/>
<defs>
<linearGradient id="paint0_linear_124_74" x1="24" y1="45" x2="24" y2="3" gradientUnits="userSpaceOnUse">
<stop stop-color="#5570FF"/>
<stop offset="1" stop-color="#4DD3FF"/>
</linearGradient>
<linearGradient id="paint1_linear_124_74" x1="23.3777" y1="41.672" x2="23.3777" y2="6.0788" gradientUnits="userSpaceOnUse">
<stop stop-color="#5570FF"/>
<stop offset="1" stop-color="#4DD3FF"/>
</linearGradient>
</defs>
</svg>
