<svg width="24" height="24" viewBox="0 0 24 24" fill="none" xmlns="http://www.w3.org/2000/svg">
<path opacity="0.4" d="M1 9.78855C1 5.64585 1 3.57395 2.28752 2.28752C3.57395 1 5.64585 1 9.78855 1H11.9857C16.1284 1 18.2003 1 19.4867 2.28752C20.7742 3.57395 20.7742 5.64585 20.7742 9.78855V14.1828C20.7742 18.3255 20.7742 20.3974 19.4867 21.6838C18.2003 22.9714 16.1284 22.9714 11.9857 22.9714H9.78855C5.64585 22.9714 3.57395 22.9714 2.28752 21.6838C1 20.3974 1 18.3255 1 14.1828V9.78855Z" fill="url(#paint0_linear_8_1008)"/>
<path d="M15.8516 16.9303C16.0438 16.7809 16.2185 16.6062 16.5668 16.258L20.9138 11.9098C21.0193 11.8055 20.9709 11.6242 20.8314 11.5748C20.1512 11.3377 19.5336 10.9493 19.0253 10.4388C18.5149 9.93056 18.1265 9.31303 17.8894 8.6328C17.84 8.49328 17.6587 8.44495 17.5544 8.55041L13.2051 12.8974C12.8569 13.2457 12.6822 13.4204 12.5328 13.6126C12.3559 13.84 12.2032 14.085 12.0802 14.3443C11.9758 14.564 11.8978 14.7991 11.7418 15.2671L11.5397 15.8713L11.2189 16.8325L10.919 17.7333C10.8816 17.8463 10.8763 17.9673 10.9038 18.0831C10.9312 18.1988 10.9903 18.3046 11.0744 18.3887C11.1585 18.4728 11.2643 18.5319 11.38 18.5593C11.4958 18.5868 11.6168 18.5815 11.7298 18.5441L12.6306 18.2442L13.5918 17.9234L14.196 17.7213C14.664 17.5653 14.8991 17.4884 15.1188 17.3829C15.3781 17.2588 15.6253 17.1083 15.8516 16.9303ZM22.2749 10.5487C22.5018 10.3295 22.6827 10.0673 22.8072 9.77749C22.9317 9.48764 22.9972 9.1759 22.9999 8.86046C23.0027 8.54501 22.9426 8.23218 22.8232 7.94021C22.7037 7.64824 22.5274 7.38297 22.3043 7.15987C22.0813 6.93678 21.8161 6.76032 21.5242 6.64079C21.2322 6.52127 20.9194 6.46107 20.604 6.46371C20.2885 6.46634 19.9768 6.53176 19.6869 6.65615C19.397 6.78053 19.1348 6.96139 18.9155 7.18818L18.776 7.3288C18.7095 7.39437 18.6599 7.47514 18.6316 7.56414C18.6033 7.65313 18.597 7.74769 18.6134 7.83964C18.6354 7.95718 18.6738 8.13076 18.7452 8.33619C18.888 8.74815 19.1583 9.28865 19.6669 9.79729C20.0777 10.2114 20.5774 10.5266 21.128 10.719C21.3345 10.7904 21.507 10.8288 21.6246 10.8508C21.7165 10.8671 21.811 10.8608 21.9 10.8325C21.989 10.8042 22.0698 10.7547 22.1354 10.6882L22.2749 10.5487Z" fill="url(#paint1_linear_8_1008)"/>
<path fill-rule="evenodd" clip-rule="evenodd" d="M5.66895 8.69002C5.66895 8.4715 5.75575 8.26193 5.91027 8.10741C6.06478 7.9529 6.27435 7.86609 6.49287 7.86609H13.6336C13.8521 7.86609 14.0617 7.9529 14.2162 8.10741C14.3707 8.26193 14.4575 8.4715 14.4575 8.69002C14.4575 8.90853 14.3707 9.1181 14.2162 9.27262C14.0617 9.42714 13.8521 9.51394 13.6336 9.51394H6.49287C6.27435 9.51394 6.06478 9.42714 5.91027 9.27262C5.75575 9.1181 5.66895 8.90853 5.66895 8.69002ZM5.66895 13.0843C5.66895 12.8658 5.75575 12.6562 5.91027 12.5017C6.06478 12.3472 6.27435 12.2604 6.49287 12.2604H9.78858C10.0071 12.2604 10.2167 12.3472 10.3712 12.5017C10.5257 12.6562 10.6125 12.8658 10.6125 13.0843C10.6125 13.3028 10.5257 13.5124 10.3712 13.6669C10.2167 13.8214 10.0071 13.9082 9.78858 13.9082H6.49287C6.27435 13.9082 6.06478 13.8214 5.91027 13.6669C5.75575 13.5124 5.66895 13.3028 5.66895 13.0843ZM5.66895 17.4786C5.66895 17.26 5.75575 17.0505 5.91027 16.896C6.06478 16.7414 6.27435 16.6546 6.49287 16.6546H8.14072C8.35924 16.6546 8.56881 16.7414 8.72333 16.896C8.87784 17.0505 8.96465 17.26 8.96465 17.4786C8.96465 17.6971 8.87784 17.9067 8.72333 18.0612C8.56881 18.2157 8.35924 18.3025 8.14072 18.3025H6.49287C6.27435 18.3025 6.06478 18.2157 5.91027 18.0612C5.75575 17.9067 5.66895 17.6971 5.66895 17.4786Z" fill="url(#paint2_linear_8_1008)"/>
<defs>
<linearGradient id="paint0_linear_8_1008" x1="10.8871" y1="22.9714" x2="10.8871" y2="1" gradientUnits="userSpaceOnUse">
<stop stop-color="#FD5900"/>
<stop offset="1" stop-color="#FFDE00"/>
</linearGradient>
<linearGradient id="paint1_linear_8_1008" x1="16.9433" y1="18.5766" x2="16.9433" y2="6.46362" gradientUnits="userSpaceOnUse">
<stop stop-color="#FD5900"/>
<stop offset="1" stop-color="#FFDE00"/>
</linearGradient>
<linearGradient id="paint2_linear_8_1008" x1="10.0632" y1="18.3025" x2="10.0632" y2="7.86609" gradientUnits="userSpaceOnUse">
<stop stop-color="#FD5900"/>
<stop offset="1" stop-color="#FFDE00"/>
</linearGradient>
</defs>
</svg>
