<svg width="24" height="24" viewBox="0 0 24 24" fill="none" xmlns="http://www.w3.org/2000/svg">
<path opacity="0.4" d="M9.5558 21.8001H14.4442C17.8773 21.8001 19.5944 21.8001 20.8275 21.0059C21.358 20.6648 21.8163 20.2226 22.1761 19.7046C23 18.5166 23 16.8611 23 13.5501C23 10.2391 23 8.58465 22.175 7.39555C21.8156 6.87758 21.3577 6.43541 20.8275 6.09425C19.5944 5.30005 17.8773 5.30005 14.4442 5.30005H9.5558C6.1227 5.30005 4.4056 5.30005 3.1725 6.09425C2.64233 6.43543 2.18446 6.87759 1.825 7.39555C1 8.58355 1 10.2391 1 13.5479V13.5501C1 16.8611 1 18.5155 1.8239 19.7046C2.1803 20.2194 2.6379 20.6616 3.1725 21.0059C4.4056 21.8001 6.1227 21.8001 9.5558 21.8001Z" fill="url(#paint0_linear_223_71)"/>
<path fill-rule="evenodd" clip-rule="evenodd" d="M7.60002 3.1C7.60002 2.4928 8.05432 2 8.61532 2H15.3847C15.9457 2 16.4 2.4928 16.4 3.1C16.4 3.7072 15.9457 4.2 15.3847 4.2H8.61532C8.05432 4.2 7.60002 3.7072 7.60002 3.1ZM7.41632 13.55C7.41632 11.1091 9.46892 9.1302 12 9.1302C14.5311 9.1302 16.5837 11.1102 16.5837 13.55C16.5837 15.992 14.5311 17.9698 12 17.9698C9.46892 17.9698 7.41632 15.9909 7.41632 13.55ZM17.8058 10.0146C17.8058 9.5262 18.2161 9.1302 18.7221 9.1302H19.3337C19.8397 9.1302 20.25 9.5262 20.25 10.0146C20.25 10.503 19.8397 10.899 19.3337 10.899H18.7221C18.2161 10.899 17.8058 10.503 17.8058 10.0146Z" fill="url(#paint1_linear_223_71)"/>
<path fill-rule="evenodd" clip-rule="evenodd" d="M18.7221 9.13025C18.2161 9.13025 17.8058 9.52625 17.8058 10.0147C17.8058 10.5031 18.2161 10.8991 18.7221 10.8991H19.3337C19.8397 10.8991 20.25 10.5031 20.25 10.0147C20.25 9.52625 19.8397 9.13025 19.3337 9.13025H18.7221Z" fill="url(#paint2_linear_223_71)"/>
<defs>
<linearGradient id="paint0_linear_223_71" x1="12" y1="5.30005" x2="12" y2="21.8001" gradientUnits="userSpaceOnUse">
<stop stop-color="#DC18FC"/>
<stop offset="1" stop-color="#8E1EFF"/>
</linearGradient>
<linearGradient id="paint1_linear_223_71" x1="13.8332" y1="2" x2="13.8332" y2="17.9698" gradientUnits="userSpaceOnUse">
<stop stop-color="#DC18FC"/>
<stop offset="1" stop-color="#8E1EFF"/>
</linearGradient>
<linearGradient id="paint2_linear_223_71" x1="19.0279" y1="9.13025" x2="19.0279" y2="10.8991" gradientUnits="userSpaceOnUse">
<stop stop-color="#DC18FC"/>
<stop offset="1" stop-color="#8E1EFF"/>
</linearGradient>
</defs>
</svg>
