<svg width="24" height="24" viewBox="0 0 24 24" fill="none" xmlns="http://www.w3.org/2000/svg">
<path opacity="0.4" d="M13.7919 21.3192L13.1957 22.3268C12.6644 23.2244 11.3367 23.2244 10.8043 22.3268L10.2081 21.3192C9.7461 20.5382 9.5151 20.1466 9.1433 19.931C8.7715 19.7143 8.304 19.7066 7.369 19.6901C5.9874 19.667 5.1217 19.5823 4.3957 19.2809C3.7284 19.0045 3.12208 18.5994 2.61136 18.0886C2.10063 17.5779 1.6955 16.9716 1.4191 16.3043C1 15.2945 1 14.013 1 11.45V10.35C1 6.7497 1 4.949 1.8107 3.6268C2.26395 2.88672 2.88589 2.26439 3.6257 1.8107C4.949 1 6.7508 1 10.35 1H13.65C17.2503 1 19.051 1 20.3743 1.8107C21.114 2.26408 21.7359 2.88602 22.1893 3.6257C23 4.949 23 6.7508 23 10.35V11.45C23 14.013 23 15.2945 22.582 16.3043C22.3055 16.9717 21.9002 17.5781 21.3893 18.0888C20.8783 18.5995 20.2718 19.0046 19.6043 19.2809C18.8783 19.5823 18.0126 19.6659 16.631 19.6901C15.696 19.7066 15.2285 19.7143 14.8567 19.931C14.4849 20.1466 14.2539 20.5371 13.7919 21.3192Z" fill="url(#paint0_linear_8_237)"/>
<path d="M20 11.8C20 12.2774 19.8104 12.7352 19.4728 13.0728C19.1352 13.4104 18.6774 13.6 18.2 13.6C17.7226 13.6 17.2648 13.4104 16.9272 13.0728C16.5896 12.7352 16.4 12.2774 16.4 11.8C16.4 11.3226 16.5896 10.8648 16.9272 10.5272C17.2648 10.1896 17.7226 10 18.2 10C18.6774 10 19.1352 10.1896 19.4728 10.5272C19.8104 10.8648 20 11.3226 20 11.8ZM13.8 11.8C13.8 12.2774 13.6104 12.7352 13.2728 13.0728C12.9352 13.4104 12.4774 13.6 12 13.6C11.5226 13.6 11.0648 13.4104 10.7272 13.0728C10.3896 12.7352 10.2 12.2774 10.2 11.8C10.2 11.3226 10.3896 10.8648 10.7272 10.5272C11.0648 10.1896 11.5226 10 12 10C12.4774 10 12.9352 10.1896 13.2728 10.5272C13.6104 10.8648 13.8 11.3226 13.8 11.8ZM7.6 11.8C7.6 12.2774 7.41036 12.7352 7.07279 13.0728C6.73523 13.4104 6.27739 13.6 5.8 13.6C5.32261 13.6 4.86477 13.4104 4.52721 13.0728C4.18964 12.7352 4 12.2774 4 11.8C4 11.3226 4.18964 10.8648 4.52721 10.5272C4.86477 10.1896 5.32261 10 5.8 10C6.27739 10 6.73523 10.1896 7.07279 10.5272C7.41036 10.8648 7.6 11.3226 7.6 11.8Z" fill="url(#paint1_linear_8_237)"/>
<defs>
<linearGradient id="paint0_linear_8_237" x1="4.22184" y1="19.7782" x2="19.7782" y2="4.22184" gradientUnits="userSpaceOnUse">
<stop stop-color="#0072FF"/>
<stop offset="1" stop-color="#00E5A1"/>
</linearGradient>
<linearGradient id="paint1_linear_8_237" x1="6.34316" y1="13.0728" x2="7.43347" y2="8.22695" gradientUnits="userSpaceOnUse">
<stop stop-color="#0072FF"/>
<stop offset="1" stop-color="#00E5A1"/>
</linearGradient>
</defs>
</svg>
