<svg width="24" height="24" viewBox="0 0 24 24" fill="none" xmlns="http://www.w3.org/2000/svg">
<path opacity="0.45" d="M2 9.8C2 5.6519 2 3.5773 3.2892 2.2892C4.5773 1 6.6519 1 10.8 1H13C17.1481 1 19.2227 1 20.5108 2.2892C21.8 3.5773 21.8 5.6519 21.8 9.8V14.2C21.8 18.3481 21.8 20.4227 20.5108 21.7108C19.2227 23 17.1481 23 13 23H10.8C6.6519 23 4.5773 23 3.2892 21.7108C2 20.4227 2 18.3481 2 14.2V9.8Z" fill="url(#paint0_linear_8_397)"/>
<path fill-rule="evenodd" clip-rule="evenodd" d="M6 19.0421C6 18.7657 6.09981 18.5007 6.27748 18.3052C6.45514 18.1098 6.69611 18 6.94737 18H17.0526C17.3039 18 17.5449 18.1098 17.7225 18.3052C17.9002 18.5007 18 18.7657 18 19.0421C18 19.3185 17.9002 19.5836 17.7225 19.779C17.5449 19.9744 17.3039 20.0842 17.0526 20.0842H6.94737C6.69611 20.0842 6.45514 19.9744 6.27748 19.779C6.09981 19.5836 6 19.3185 6 19.0421Z" fill="url(#paint1_linear_8_397)" stroke="url(#paint2_linear_8_397)"/>
<path fill-rule="evenodd" clip-rule="evenodd" d="M12 4C10.0889 4 8.53888 5.54605 8.53888 7.454V10.0115C8.53888 11.9189 10.0889 13.4655 12 13.4655C13.9117 13.4655 15.4617 11.9189 15.4617 10.0115V7.454C15.4617 5.54605 13.9117 4 12.0005 4H12ZM10.7111 6.9645C10.6369 6.89437 10.5936 6.79806 10.5907 6.69652C10.5878 6.59497 10.6255 6.49639 10.6955 6.4222L10.6961 6.42165L10.6972 6.42055L10.6989 6.4189L10.7033 6.4145C10.714 6.40392 10.7251 6.39383 10.7367 6.38425C10.7592 6.36486 10.7827 6.34669 10.8072 6.3298C10.8832 6.27864 10.9646 6.23585 11.05 6.2022C11.2605 6.1175 11.5667 6.04655 12.0005 6.04655C12.4344 6.04655 12.7411 6.1175 12.9517 6.2022C13.0567 6.24455 13.1361 6.2902 13.1944 6.3298C13.2313 6.35523 13.266 6.38356 13.2983 6.4145L13.3022 6.4189L13.3039 6.42055L13.305 6.42165C13.305 6.42165 13.3061 6.4222 13.0317 6.6807L13.3061 6.4222C13.4517 6.5762 13.445 6.8193 13.2905 6.96505C13.2194 7.03223 13.1249 7.06971 13.0267 7.06971C12.9284 7.06971 12.8339 7.03223 12.7628 6.96505L12.7583 6.9623C12.7285 6.94288 12.6966 6.92665 12.6633 6.9139C12.5555 6.871 12.3494 6.8138 12 6.8138C11.6511 6.8138 11.4444 6.871 11.3378 6.9139C11.3045 6.92665 11.2726 6.94288 11.2428 6.9623L11.2383 6.96505C11.1672 7.03223 11.0727 7.06971 10.9744 7.06971C10.8762 7.06971 10.7816 7.03223 10.7105 6.96505L10.7111 6.9645ZM10.7111 8.49955C10.637 8.42934 10.5938 8.33306 10.5909 8.23156C10.588 8.13006 10.6256 8.03151 10.6955 7.95725L10.6961 7.95615L10.6972 7.9556L10.6989 7.9534L10.7033 7.94955C10.714 7.93879 10.7251 7.92851 10.7367 7.91875C10.7592 7.89955 10.7827 7.88156 10.8072 7.86485C10.8832 7.81369 10.9646 7.7709 11.05 7.73725C11.2605 7.65255 11.5667 7.5816 12.0005 7.5816C12.4344 7.5816 12.7411 7.65255 12.9517 7.73725C13.0567 7.7796 13.1361 7.82525 13.1944 7.86485C13.2313 7.89028 13.266 7.91861 13.2983 7.94955L13.3022 7.9534L13.3039 7.9556L13.305 7.95615V7.9567C13.305 7.9567 13.3061 7.95725 13.0317 8.2152L13.3061 7.95725C13.4517 8.11125 13.445 8.35435 13.2905 8.49955C13.2194 8.5666 13.1249 8.604 13.0267 8.604C12.9284 8.604 12.8339 8.5666 12.7628 8.49955L12.7583 8.49735C12.7285 8.47792 12.6966 8.46169 12.6633 8.44895C12.5555 8.4055 12.3494 8.34885 12 8.34885C11.6511 8.34885 11.4444 8.40605 11.3378 8.44895C11.3045 8.46169 11.2726 8.47792 11.2428 8.49735L11.2383 8.5001C11.1672 8.56715 11.0727 8.60455 10.9744 8.60455C10.8762 8.60455 10.7817 8.56715 10.7105 8.5001L10.7111 8.49955Z" fill="url(#paint3_linear_8_397)"/>
<path fill-rule="evenodd" clip-rule="evenodd" d="M7.38444 8.60461C7.59722 8.60461 7.76944 8.77621 7.76944 8.98851V10.0115C7.76944 12.343 9.66389 14.2328 12 14.2328C14.3367 14.2328 16.2306 12.343 16.2306 10.0115V8.98851C16.2306 8.77621 16.4028 8.60461 16.6156 8.60461C16.8278 8.60461 17 8.77621 17 8.98851V10.0115C17 12.767 14.7611 15 12 15C9.23889 15 7 12.767 7 10.0115V8.98851C7 8.77621 7.17222 8.60461 7.38444 8.60461Z" fill="url(#paint4_linear_8_397)"/>
<defs>
<linearGradient id="paint0_linear_8_397" x1="21.2415" y1="12" x2="4.34893" y2="6.5004" gradientUnits="userSpaceOnUse">
<stop stop-color="#FE7970"/>
<stop offset="1" stop-color="#DC3282"/>
</linearGradient>
<linearGradient id="paint1_linear_8_397" x1="17.6615" y1="19.0421" x2="15.5402" y2="14.624" gradientUnits="userSpaceOnUse">
<stop stop-color="#FE7970"/>
<stop offset="1" stop-color="#DC3282"/>
</linearGradient>
<linearGradient id="paint2_linear_8_397" x1="17.6615" y1="19.0421" x2="15.5402" y2="14.624" gradientUnits="userSpaceOnUse">
<stop stop-color="#FE7970"/>
<stop offset="1" stop-color="#DC3282"/>
</linearGradient>
<linearGradient id="paint3_linear_8_397" x1="15.2664" y1="8.73275" x2="9.16144" y2="7.1176" gradientUnits="userSpaceOnUse">
<stop stop-color="#FE7970"/>
<stop offset="1" stop-color="#DC3282"/>
</linearGradient>
<linearGradient id="paint4_linear_8_397" x1="16.7179" y1="11.8023" x2="9.56914" y2="7.75881" gradientUnits="userSpaceOnUse">
<stop stop-color="#FE7970"/>
<stop offset="1" stop-color="#DC3282"/>
</linearGradient>
</defs>
</svg>
