<svg width="24" height="24" viewBox="0 0 24 24" fill="none" xmlns="http://www.w3.org/2000/svg">
<path opacity="0.5" fill-rule="evenodd" clip-rule="evenodd" d="M2.6104 2.6104C1 4.223 1 6.8146 1 12C1 17.1854 1 19.7781 2.6104 21.3885C4.223 23 6.8146 23 12 23C17.1854 23 19.7781 23 21.3885 21.3885C23 19.7792 23 17.1854 23 12C23 6.8146 23 4.2219 21.3885 2.6104C19.7792 1 17.1854 1 12 1C6.8146 1 4.2219 1 2.6104 2.6104Z" fill="url(#paint0_linear_36_216)"/>
<path d="M14.2 12C14.2 11.4192 13.617 11.0276 12.4521 10.2444C11.2718 9.4513 10.6811 9.0542 10.2411 9.3457C9.79997 9.6372 9.79997 10.4237 9.79997 12C9.79997 13.5752 9.79997 14.3628 10.24 14.6543C10.68 14.9458 11.2718 14.5487 12.4521 13.7556C13.6181 12.9724 14.2 12.5808 14.2 12ZM11.175 1C9.67237 1.0011 8.40407 1.011 7.32497 1.0748V5.675H11.175V1ZM5.67497 1.2431C4.32967 1.4576 3.36387 1.8591 2.61147 2.6104C1.85797 3.3628 1.45647 4.3297 1.24417 5.675H5.67497V1.2431ZM22.7558 5.675C22.5424 4.3297 22.142 3.3628 21.3896 2.6104C20.6372 1.858 19.6703 1.4576 18.325 1.2431V5.675H22.7558ZM12.825 1C14.3276 1.0011 15.5959 1.011 16.675 1.0748V5.675H12.825V1ZM22.7558 18.325H18.325V22.7558C19.6703 22.5424 20.6372 22.1409 21.3896 21.3885C22.142 20.6361 22.5424 19.6692 22.7558 18.325ZM16.675 18.325V22.9241C15.5959 22.9879 14.3276 22.9978 12.825 23V18.325H16.675ZM11.175 23V18.325H7.32497V22.9241C8.40407 22.9879 9.67237 22.9978 11.175 23ZM5.67497 18.325V22.7558C4.32967 22.5424 3.36387 22.1409 2.61147 21.3885C1.85797 20.6361 1.45647 19.6692 1.24417 18.325H5.67497Z" fill="url(#paint1_linear_36_216)"/>
<defs>
<linearGradient id="paint0_linear_36_216" x1="1" y1="0.99997" x2="23" y2="22.9999" gradientUnits="userSpaceOnUse">
<stop stop-color="#FFC823"/>
<stop offset="1" stop-color="#FF2F78"/>
</linearGradient>
<linearGradient id="paint1_linear_36_216" x1="1.24417" y1="0.99997" x2="23.2386" y2="22.5061" gradientUnits="userSpaceOnUse">
<stop stop-color="#FFC823"/>
<stop offset="1" stop-color="#FF2F78"/>
</linearGradient>
</defs>
</svg>
