<svg width="24" height="24" viewBox="0 0 24 24" fill="none" xmlns="http://www.w3.org/2000/svg">
<path fill-rule="evenodd" clip-rule="evenodd" d="M9.79902 11.9591L19.9995 8.29384L21.8003 7.54693V7.04092C21.8003 5.80889 21.8003 4.77598 21.7035 3.95316C21.6903 3.83914 21.6746 3.72544 21.6562 3.61216C21.5626 3.05115 21.3987 2.52534 21.0808 2.08753C20.8826 1.81268 20.6298 1.58164 20.3383 1.40882L20.3273 1.40332C19.4803 0.896207 18.5255 0.932507 17.5421 1.15691C16.5917 1.37472 15.4135 1.81692 13.9681 2.36143L11.4557 3.30635C10.7781 3.56045 10.2038 3.77606 9.75392 3.99936C9.27431 4.23697 8.86181 4.51747 8.5527 4.93548C8.24249 5.35349 8.11379 5.80449 8.05549 6.2929C8.00049 6.75271 8.00049 7.31152 8.00049 7.97043V12.662L9.80012 11.958L9.79902 11.9591Z" fill="url(#paint0_linear_54_302)"/>
<path opacity="0.5" d="M8.00061 16.543C7.36046 16.179 6.63598 15.9893 5.89957 15.993C3.74573 15.993 2 17.5616 2 19.4965C2 21.4315 3.74573 23.0001 5.89957 23.0001C8.05451 23.0001 9.80024 21.4315 9.80024 19.4965V11.9592L8.00061 12.661V16.5441V16.543ZM20.0007 8.29281V14.387C19.3606 14.0229 18.6361 13.8333 17.8997 13.8369C15.7458 13.8369 14.0001 15.4056 14.0001 17.3405C14.0001 19.2754 15.7458 20.8441 17.8997 20.8441C20.0546 20.8441 21.8004 19.2754 21.8004 17.3405V7.547L20.0007 8.29281Z" fill="url(#paint1_linear_54_302)"/>
<defs>
<linearGradient id="paint0_linear_54_302" x1="8.00049" y1="6.831" x2="21.8003" y2="6.831" gradientUnits="userSpaceOnUse">
<stop stop-color="#02AA93"/>
<stop offset="1" stop-color="#67FF80"/>
</linearGradient>
<linearGradient id="paint1_linear_54_302" x1="2" y1="15.2735" x2="21.8004" y2="15.2735" gradientUnits="userSpaceOnUse">
<stop stop-color="#02AA93"/>
<stop offset="1" stop-color="#67FF80"/>
</linearGradient>
</defs>
</svg>
