<svg width="128" height="128" viewBox="0 0 128 128" fill="none" xmlns="http://www.w3.org/2000/svg">
<g opacity="0.4">
<path d="M46.5043 86.4054C44.0691 86.4054 42.0948 88.3797 42.0948 90.8149C42.0948 93.2503 44.0692 95.224 46.5043 95.224H81.6121C84.0472 95.224 86.0216 93.2503 86.0216 90.8149C86.0216 88.3797 84.0473 86.4054 81.6121 86.4054H46.5043Z" fill="url(#paint0_linear_231_137)"/>
<path d="M46.5043 98.043C44.0688 98.043 42.0948 100.018 42.0948 102.453C42.0948 104.888 44.0691 106.862 46.5043 106.862H81.6121C84.0473 106.862 86.0216 104.888 86.0216 102.453C86.0216 100.018 84.0476 98.043 81.6121 98.043H46.5043Z" fill="url(#paint1_linear_231_137)"/>
<path fill-rule="evenodd" clip-rule="evenodd" d="M34.8664 33.1899C32.4312 33.1899 30.4569 35.1642 30.4569 37.5994V44.6727C30.4569 45.225 30.0092 45.6727 29.4569 45.6727H17.4095C14.9743 45.6727 13 47.6469 13 50.0821V90.8149C13 93.2503 14.9744 95.224 17.4095 95.224H29.4569C30.0092 95.224 30.4569 95.672 30.4569 96.224V114.091C30.4569 116.526 32.4312 118.5 34.8664 118.5H93.25C95.6852 118.5 97.6595 116.526 97.6595 114.091V96.224C97.6595 95.672 98.1072 95.224 98.6595 95.224H110.901C113.337 95.224 115.31 93.2499 115.31 90.8149V50.0821C115.31 47.6473 113.337 45.6727 110.901 45.6727H98.6595C98.1072 45.6727 97.6595 45.225 97.6595 44.6727V41.2373C97.6595 39.7635 96.9235 46.3863 95.6954 45.5682L78.239 33.9305C77.5144 33.4473 76.6632 33.1899 75.7931 33.1899H34.8664ZM39.2759 50.0821V43.0089C39.2759 42.4567 39.7236 42.0089 40.2759 42.0089H70.3836C70.9359 42.0089 71.3836 42.4567 71.3836 43.0089V41.2373C71.3836 43.6726 73.3579 45.6468 75.7931 45.6468H87.8405C88.3928 45.6468 88.8405 46.0946 88.8405 46.6468V50.0821C88.8405 50.858 88.2069 51.4916 87.431 51.4916H40.6853C39.9096 51.4916 39.2759 50.8581 39.2759 50.0821ZM39.2759 84.9959C39.2759 84.2202 39.9095 83.5865 40.6853 83.5865H87.431C88.2069 83.5865 88.8405 84.2202 88.8405 84.9959V108.681C88.8405 109.234 88.3928 109.681 87.8405 109.681H40.2759C39.7236 109.681 39.2759 109.234 39.2759 108.681V84.9959Z" fill="url(#paint2_linear_231_137)"/>
</g>
<path d="M25.4095 70.1299C22.9743 70.1299 21 72.104 21 74.5393C21 76.9745 22.9743 78.9488 25.4095 78.9488C27.8447 78.9488 29.819 76.9745 29.819 74.5393C29.819 72.104 27.8447 70.1299 25.4095 70.1299Z" fill="url(#paint3_linear_231_137)"/>
<path d="M37.2715 70C34.8363 70 32.8621 71.9742 32.8621 74.4094C32.8621 76.8445 34.8362 78.8189 37.2715 78.8189C39.7069 78.8189 41.681 76.8446 41.681 74.4094C41.681 71.9741 39.7068 70 37.2715 70Z" fill="url(#paint4_linear_231_137)"/>
<path d="M47.5107 16.2472C52.1634 12.2351 58.0977 10.0193 64.2414 10C76.7638 10 87.1588 19.3103 88.29 31.316C95.701 32.3634 101.482 38.5688 101.482 46.1847C101.482 54.5453 94.5093 61.2069 86.0601 61.2069H44.6012C34.951 61.2069 27 53.6003 27 44.0666C27 35.8595 32.8934 29.0629 40.6955 27.3405C41.3612 23.3231 43.9448 19.3197 47.5107 16.2472Z" fill="url(#paint5_linear_231_137)"/>
<defs>
<linearGradient id="paint0_linear_231_137" x1="64.1553" y1="117" x2="64.1553" y2="26.69" gradientUnits="userSpaceOnUse">
<stop stop-color="#5570FF"/>
<stop offset="1" stop-color="#4DD3FF"/>
</linearGradient>
<linearGradient id="paint1_linear_231_137" x1="64.1553" y1="117" x2="64.1553" y2="26.6899" gradientUnits="userSpaceOnUse">
<stop stop-color="#5570FF"/>
<stop offset="1" stop-color="#4DD3FF"/>
</linearGradient>
<linearGradient id="paint2_linear_231_137" x1="64.1553" y1="117" x2="64.1553" y2="26.6899" gradientUnits="userSpaceOnUse">
<stop stop-color="#5570FF"/>
<stop offset="1" stop-color="#4DD3FF"/>
</linearGradient>
<linearGradient id="paint3_linear_231_137" x1="60.5174" y1="124" x2="60.5174" y2="33.6899" gradientUnits="userSpaceOnUse">
<stop stop-color="#5570FF"/>
<stop offset="1" stop-color="#4DD3FF"/>
</linearGradient>
<linearGradient id="paint4_linear_231_137" x1="60.7415" y1="123.87" x2="60.7415" y2="33.56" gradientUnits="userSpaceOnUse">
<stop stop-color="#5570FF"/>
<stop offset="1" stop-color="#4DD3FF"/>
</linearGradient>
<linearGradient id="paint5_linear_231_137" x1="64.2414" y1="61.2069" x2="64.2414" y2="10" gradientUnits="userSpaceOnUse">
<stop stop-color="#5570FF"/>
<stop offset="1" stop-color="#4DD3FF"/>
</linearGradient>
</defs>
</svg>
