<svg width="24" height="24" viewBox="0 0 24 24" fill="none" xmlns="http://www.w3.org/2000/svg">
<path opacity="0.45" fill-rule="evenodd" clip-rule="evenodd" d="M11.9 1C8.116 1 5.047 4.0921 5.047 7.908V13.023C5.047 16.8378 8.116 19.931 11.9 19.931C15.6851 19.931 18.7541 16.8378 18.7541 13.023V7.908C18.7541 4.0921 15.6851 1 11.9011 1H11.9ZM9.348 6.929C9.20101 6.78873 9.11532 6.59613 9.10955 6.39303C9.10379 6.18994 9.17841 5.99278 9.3172 5.8444L9.3183 5.8433L9.3205 5.8411L9.3238 5.8378L9.3326 5.829C9.35367 5.80785 9.3757 5.78766 9.3986 5.7685C9.44318 5.72973 9.48981 5.69337 9.5383 5.6596C9.68875 5.55727 9.84994 5.4717 10.019 5.4044C10.4359 5.235 11.042 5.0931 11.9011 5.0931C12.7602 5.0931 13.3674 5.235 13.7843 5.4044C13.9922 5.4891 14.1495 5.5804 14.265 5.6596C14.338 5.71047 14.4068 5.76712 14.4707 5.829L14.4784 5.8378L14.4817 5.8411L14.4839 5.8433C14.4839 5.8433 14.4861 5.8444 13.9427 6.3614L14.4861 5.8444C14.7743 6.1524 14.7611 6.6386 14.4553 6.9301C14.3145 7.06445 14.1274 7.13942 13.9328 7.13942C13.7382 7.13942 13.5511 7.06445 13.4103 6.9301L13.4015 6.9246C13.3424 6.88576 13.2794 6.85331 13.2134 6.8278C13 6.742 12.5919 6.6276 11.9 6.6276C11.2092 6.6276 10.8 6.742 10.5888 6.8278C10.5228 6.85331 10.4598 6.88576 10.4007 6.9246L10.3919 6.9301C10.2511 7.06445 10.064 7.13942 9.8694 7.13942C9.6748 7.13942 9.48768 7.06445 9.3469 6.9301L9.348 6.929ZM9.348 9.9991C9.20127 9.85869 9.11577 9.66613 9.11 9.46312C9.10424 9.26012 9.17868 9.06301 9.3172 8.9145L9.3183 8.9123L9.3205 8.9112L9.3238 8.9068L9.3326 8.8991C9.35365 8.87757 9.37567 8.85702 9.3986 8.8375C9.44321 8.7991 9.48984 8.76312 9.5383 8.7297C9.68875 8.62737 9.84994 8.5418 10.019 8.4745C10.4359 8.3051 11.042 8.1632 11.9011 8.1632C12.7602 8.1632 13.3674 8.3051 13.7843 8.4745C13.9922 8.5592 14.1495 8.6505 14.265 8.7297C14.338 8.78057 14.4068 8.83722 14.4707 8.8991L14.4784 8.9068L14.4817 8.9112L14.4839 8.9123V8.9134C14.4839 8.9134 14.4861 8.9145 13.9427 9.4304L14.4861 8.9145C14.7743 9.2225 14.7611 9.7087 14.4553 9.9991C14.3144 10.1332 14.1273 10.208 13.9328 10.208C13.7383 10.208 13.5512 10.1332 13.4103 9.9991L13.4015 9.9947C13.3424 9.95584 13.2794 9.92339 13.2134 9.8979C13 9.811 12.5919 9.6977 11.9 9.6977C11.2092 9.6977 10.8 9.8121 10.5888 9.8979C10.5228 9.92339 10.4598 9.95584 10.4007 9.9947L10.3919 10.0002C10.251 10.1343 10.0639 10.2091 9.8694 10.2091C9.67488 10.2091 9.4878 10.1343 9.3469 10.0002L9.348 9.9991Z" fill="url(#paint0_linear_8_644)"/>
<path d="M9.31615 8.91454C9.17763 9.06305 9.10319 9.26016 9.10895 9.46316C9.11472 9.66617 9.20022 9.85873 9.34695 9.99914C9.48786 10.1332 9.67493 10.208 9.86945 10.208C10.064 10.208 10.251 10.1332 10.3919 9.99914L10.4007 9.99364C10.4599 9.95488 10.5229 9.92243 10.5888 9.89684C10.8 9.81104 11.2092 9.69774 11.9 9.69774C12.593 9.69774 13 9.81104 13.2123 9.89684C13.278 9.92299 13.341 9.9554 13.4004 9.99364L13.4081 10.0002C13.5491 10.1347 13.7364 10.2097 13.9312 10.2097C14.126 10.2097 14.3133 10.1347 14.4542 10.0002C14.6013 9.85979 14.687 9.66699 14.6928 9.46372C14.6986 9.26045 14.6239 9.0631 14.485 8.91454L13.9427 9.43154L14.4839 8.91454V8.91234L14.4817 8.91124L14.4773 8.90684L14.4696 8.89914L14.4509 8.88044C14.3936 8.82429 14.331 8.77382 14.2639 8.72974C14.1135 8.62739 13.9523 8.54181 13.7832 8.47454C13.3652 8.30404 12.7602 8.16214 11.9 8.16214C11.042 8.16214 10.4348 8.30514 10.019 8.47454C9.84962 8.54177 9.68805 8.62734 9.53725 8.72974C9.46423 8.78057 9.39544 8.83722 9.33155 8.89914L9.32385 8.90684L9.31945 8.91124L9.31835 8.91234L9.31725 8.91344L9.86945 9.44144L9.31615 8.91454ZM9.31615 5.84444C9.17763 5.99295 9.10319 6.19006 9.10895 6.39306C9.11472 6.59607 9.20022 6.78863 9.34695 6.92904C9.48773 7.06339 9.67485 7.13835 9.86945 7.13835C10.064 7.13835 10.2512 7.06339 10.3919 6.92904L10.4007 6.92464C10.4599 6.88584 10.5229 6.85339 10.5888 6.82784C10.8 6.74204 11.2092 6.62764 11.9 6.62764C12.593 6.62764 13 6.74204 13.2123 6.82784C13.3179 6.87074 13.3773 6.90814 13.4004 6.92464L13.4081 6.93014C13.5491 7.06456 13.7364 7.13956 13.9312 7.13956C14.126 7.13956 14.3133 7.06456 14.4542 6.93014C14.6013 6.78968 14.687 6.59689 14.6928 6.39362C14.6986 6.19035 14.6239 5.993 14.485 5.84444L13.9427 6.36144L14.4839 5.84444L14.4817 5.84114L14.4773 5.83674L14.4696 5.82904C14.4067 5.76567 14.3374 5.70891 14.2628 5.65964C14.1128 5.55736 13.9519 5.47179 13.7832 5.40444C13.3652 5.23504 12.7602 5.09314 11.9 5.09314C11.042 5.09314 10.4348 5.23504 10.019 5.40444C9.84969 5.47182 9.68814 5.55739 9.53725 5.65964C9.46422 5.71046 9.39543 5.76712 9.33155 5.82904L9.32385 5.83674L9.31945 5.84114L9.31835 5.84334L9.86945 6.37134L9.31615 5.84444Z" fill="url(#paint1_linear_8_644)"/>
<path fill-rule="evenodd" clip-rule="evenodd" d="M2.7612 10.2092C3.1825 10.2092 3.5235 10.5524 3.5235 10.977V13.023C3.5235 17.6859 7.2745 21.4655 11.9 21.4655C16.5266 21.4655 20.2765 17.6859 20.2765 13.023V10.977C20.2765 10.5524 20.6175 10.2092 21.0388 10.2092C21.459 10.2092 21.8 10.5524 21.8 10.977V13.023C21.8 18.534 17.367 23 11.9 23C6.433 23 2 18.534 2 13.023V10.977C2 10.5524 2.341 10.2092 2.7612 10.2092Z" fill="url(#paint2_linear_8_644)"/>
<defs>
<linearGradient id="paint0_linear_8_644" x1="18.7135" y1="1.12001" x2="0.916898" y2="13.8985" gradientUnits="userSpaceOnUse">
<stop stop-color="#FE7970"/>
<stop offset="1" stop-color="#DC3282"/>
</linearGradient>
<linearGradient id="paint1_linear_8_644" x1="14.6766" y1="5.12558" x2="9.61619" y2="10.6028" gradientUnits="userSpaceOnUse">
<stop stop-color="#FE7970"/>
<stop offset="1" stop-color="#DC3282"/>
</linearGradient>
<linearGradient id="paint2_linear_8_644" x1="21.7413" y1="10.2903" x2="10.1338" y2="28.109" gradientUnits="userSpaceOnUse">
<stop stop-color="#FE7970"/>
<stop offset="1" stop-color="#DC3282"/>
</linearGradient>
</defs>
</svg>
