<svg width="24" height="24" viewBox="0 0 24 24" fill="none" xmlns="http://www.w3.org/2000/svg">
<path fill-rule="evenodd" clip-rule="evenodd" d="M5.26695 1.9669C4.30005 2.9327 4.30005 4.4892 4.30005 7.6V16.4C4.30005 19.5108 4.30005 21.0673 5.26695 22.0331C6.23275 23 7.78925 23 10.9001 23H13.1001C16.2109 23 17.7674 23 18.7332 22.0331C19.7001 21.0673 19.7001 19.5108 19.7001 16.4V7.6C19.7001 4.4892 19.7001 2.9327 18.7332 1.9669C17.7674 1 16.2109 1 13.1001 1H10.9001C7.78925 1 6.23275 1 5.26695 1.9669ZM7.87505 17.5C7.87505 17.2812 7.96197 17.0714 8.11669 16.9166C8.2714 16.7619 8.48124 16.675 8.70005 16.675H12.0001C12.2189 16.675 12.4287 16.7619 12.5835 16.9166C12.7382 17.0714 12.8251 17.2812 12.8251 17.5C12.8251 17.7188 12.7382 17.9286 12.5835 18.0834C12.4287 18.2381 12.2189 18.325 12.0001 18.325H8.70005C8.48124 18.325 8.2714 18.2381 8.11669 18.0834C7.96197 17.9286 7.87505 17.7188 7.87505 17.5ZM8.70005 12.275C8.48124 12.275 8.2714 12.3619 8.11669 12.5166C7.96197 12.6714 7.87505 12.8812 7.87505 13.1C7.87505 13.3188 7.96197 13.5286 8.11669 13.6834C8.2714 13.8381 8.48124 13.925 8.70005 13.925H15.3001C15.5189 13.925 15.7287 13.8381 15.8835 13.6834C16.0382 13.5286 16.1251 13.3188 16.1251 13.1C16.1251 12.8812 16.0382 12.6714 15.8835 12.5166C15.7287 12.3619 15.5189 12.275 15.3001 12.275H8.70005ZM7.87505 8.7C7.87505 8.4812 7.96197 8.27135 8.11669 8.11664C8.2714 7.96192 8.48124 7.875 8.70005 7.875H15.3001C15.5189 7.875 15.7287 7.96192 15.8835 8.11664C16.0382 8.27135 16.1251 8.4812 16.1251 8.7C16.1251 8.9188 16.0382 9.12865 15.8835 9.28336C15.7287 9.43808 15.5189 9.525 15.3001 9.525H8.70005C8.48124 9.525 8.2714 9.43808 8.11669 9.28336C7.96197 9.12865 7.87505 8.9188 7.87505 8.7Z" fill="url(#paint0_linear_41_186)"/>
<path opacity="0.45" d="M4.5585 3.26379C4.3 4.23509 4.3 5.59469 4.3 7.59999V16.4C4.3 18.4053 4.3 19.7638 4.5585 20.7362L4.3 20.7164C3.2275 20.6108 2.5059 20.3721 1.9669 19.8331C1 18.8673 1 17.3108 1 14.2V9.79999C1 6.68809 1 5.13269 1.9669 4.16689C2.5059 3.62789 3.2275 3.38919 4.3 3.28359L4.5585 3.26379ZM19.4415 20.7362C19.7 19.7638 19.7 18.4042 19.7 16.4V7.59999C19.7 5.59469 19.7 4.23509 19.4415 3.26379L19.7 3.28359C20.7725 3.38919 21.4941 3.62789 22.0331 4.16689C23 5.13269 23 6.68699 23 9.79889V14.1989C23 17.3119 23 18.8662 22.0331 19.8331C21.4941 20.3721 20.7725 20.6108 19.7 20.7164L19.4415 20.7362Z" fill="url(#paint1_linear_41_186)"/>
<defs>
<linearGradient id="paint0_linear_41_186" x1="12.0001" y1="23" x2="12.0001" y2="1" gradientUnits="userSpaceOnUse">
<stop stop-color="#A93AFF"/>
<stop offset="1" stop-color="#FF81FF"/>
</linearGradient>
<linearGradient id="paint1_linear_41_186" x1="12" y1="20.7362" x2="12" y2="3.26379" gradientUnits="userSpaceOnUse">
<stop stop-color="#A93AFF"/>
<stop offset="1" stop-color="#FF81FF"/>
</linearGradient>
</defs>
</svg>
