<svg width="64" height="64" viewBox="0 0 64 64" fill="none" xmlns="http://www.w3.org/2000/svg">
<path opacity="0.4" d="M55.1497 34.5C55.1497 47.2025 45.0761 57.5 32.6497 57.5C20.2233 57.5 11 47.7025 11 35C11 23.0566 20.7244 12.3554 30.1989 3.6381C31.2996 2.62537 32.8336 2.41623 34.024 3.32186C40.0832 7.93177 56.0138 23.2685 55.1497 34.5Z" fill="url(#paint0_linear_60_439)"/>
<path fill-rule="evenodd" clip-rule="evenodd" d="M34.1518 5.83696C33.9673 4.20882 31.8302 3.40655 30.6539 4.50771C25.7684 9.33707 20.9367 14.2333 16.2241 19.2435C12.9759 22.3819 10.5659 26.4797 9.62027 30.963C8.10194 37.0784 9.44345 43.7719 12.853 48.9867C16.2701 54.052 21.4171 58.0516 27.3712 59.3336C30.1004 60.2106 33.0102 60.0533 35.8201 59.8056C36.361 59.6108 36.9193 59.4755 37.4774 59.3402C37.5618 59.3197 37.6462 59.2993 37.7305 59.2786C44.2612 57.7881 49.9732 53.1002 52.9368 46.9771C55.3085 42.0297 56.0388 36.17 54.4935 30.849C53.6249 27.2073 51.7068 23.8803 49.3159 21.0722C47.8552 19.8532 45.4797 21.3318 45.7372 23.192C45.9235 24.0219 46.4497 24.6461 46.9778 25.2725C47.3105 25.6672 47.644 26.0628 47.8937 26.5112C50.9918 31.2147 51.7259 37.4048 49.9386 42.7533C48.2742 47.8343 44.3381 52.0463 39.4948 54.0638C34.4516 56.2229 28.5205 55.8925 23.708 53.2576C20.3254 51.3542 17.4579 48.4676 15.5744 45.0185C12.5608 39.4263 12.6685 32.2215 15.8742 26.7393C17.2225 24.3372 19.1837 22.4407 21.1366 20.5521C21.7671 19.9424 22.3967 19.3336 23.0046 18.7088C24.0431 17.6302 25.0927 16.563 26.1423 15.4959C28.1772 13.4269 30.2119 11.3582 32.1646 9.2073C32.3307 9.02764 32.5145 8.84897 32.7016 8.66714C33.5013 7.88972 34.3605 7.05449 34.1518 5.83696ZM38.9921 15.3335C38.9139 15.4155 38.8368 15.4963 38.7605 15.5743C37.1389 17.2761 35.4878 18.9483 33.8368 20.6203C31.2376 23.2525 28.6388 25.8844 26.1564 28.6309C24.5151 30.1253 23.2343 32.0996 22.8807 34.3491C22.8116 35.4031 22.7969 36.4689 22.843 37.5267C23.6349 42.7808 29.1585 46.8629 34.2747 45.6477C36.9423 44.755 39.4869 43.0286 40.6593 40.3308C41.6434 38.4548 41.6434 36.2446 41.3589 34.1956C41.0398 32.7602 40.3903 31.0456 38.8719 30.5933C37.4075 30.2748 35.9659 31.8715 36.358 33.3423C36.4371 33.5486 36.5254 33.7533 36.614 33.9584C36.9169 34.6603 37.2218 35.3668 37.1653 36.1581C37.3305 38.2739 35.8853 40.2678 33.971 40.9639C30.7652 42.3757 26.7369 39.2374 27.1289 35.7137C27.096 33.8075 28.4448 32.5103 29.7313 31.2731C30.0957 30.9226 30.4552 30.577 30.7767 30.2237C32.9663 27.7994 35.2578 25.4725 37.5488 23.1462C38.7327 21.944 39.9165 20.7419 41.086 19.5267C41.3127 19.2777 41.5556 19.0407 41.7987 18.8035C42.3429 18.2725 42.8885 17.7401 43.2578 17.0688C43.8882 15.7867 42.9771 14.0602 41.5664 13.9579C40.4776 13.7776 39.6904 14.6022 38.9921 15.3335Z" fill="url(#paint1_linear_60_439)" stroke="url(#paint2_linear_60_439)" stroke-width="2"/>
<defs>
<linearGradient id="paint0_linear_60_439" x1="33.0918" y1="57.5" x2="33.0918" y2="2" gradientUnits="userSpaceOnUse">
<stop stop-color="#5570FF"/>
<stop offset="1" stop-color="#4DD3FF"/>
</linearGradient>
<linearGradient id="paint1_linear_60_439" x1="32.9818" y1="45.8635" x2="32.9818" y2="13.9328" gradientUnits="userSpaceOnUse">
<stop stop-color="#5558FF"/>
<stop offset="1" stop-color="#00C0FF"/>
</linearGradient>
<linearGradient id="paint2_linear_60_439" x1="32.9818" y1="45.8635" x2="32.9818" y2="13.9328" gradientUnits="userSpaceOnUse">
<stop stop-color="#5558FF"/>
<stop offset="1" stop-color="#00C0FF"/>
</linearGradient>
</defs>
</svg>
