<svg width="16" height="16" viewBox="0 0 16 16" fill="none" xmlns="http://www.w3.org/2000/svg">
<path opacity="0.4" d="M3.98601 3.36963C3.9596 3.37286 3.93193 3.37904 3.91197 3.39908L2.99576 4.31192C2.95734 4.35037 2.95321 4.40842 2.98146 4.45495L3.82811 5.84895C3.90594 5.97711 3.90426 6.13734 3.8328 6.26915C3.70067 6.51285 3.59002 6.76965 3.50165 7.03694C3.45454 7.17943 3.33829 7.29001 3.19132 7.32042L1.63364 7.64275C1.57908 7.65395 1.53857 7.70622 1.53857 7.76222V9.05114C1.53857 9.10574 1.58071 9.15212 1.63364 9.16472L3.13467 9.52856C3.2825 9.56439 3.39578 9.68139 3.43712 9.82777C3.52607 10.1427 3.64708 10.4439 3.79575 10.7285C3.86649 10.8639 3.86372 11.0275 3.77967 11.1551L3.54077 11.5176C3.53639 11.5243 3.52814 11.5272 3.52057 11.5247V11.5247C3.51278 11.5222 3.50429 11.5254 3.50004 11.5324L3.1371 12.1296L2.90153 12.4871C2.89312 12.4999 2.89229 12.5147 2.89062 12.5292C2.89011 12.5337 2.88861 12.5379 2.88639 12.5419V12.5419C2.85806 12.5881 2.8671 12.6473 2.90574 12.6857L3.81606 13.5977C3.85599 13.6368 3.91712 13.6424 3.96414 13.612L4.82987 13.0467L5.3557 12.7287C5.48251 12.6521 5.64065 12.6531 5.77146 12.7227C6.03191 12.8613 6.30665 12.9761 6.59319 13.0643C6.73978 13.1094 6.85465 13.227 6.88598 13.3771L7.20494 14.906C7.21653 14.9607 7.26227 15.0002 7.31852 15.0002H7.38751H8.61248H8.68147C8.73772 15.0002 8.78346 14.9607 8.79505 14.906L9.11402 13.3771C9.14534 13.227 9.26022 13.1094 9.4068 13.0643C9.69334 12.9761 9.96808 12.8613 10.2285 12.7227C10.3593 12.6531 10.5175 12.6521 10.6443 12.7287L11.1701 13.0467L12.0359 13.612C12.0829 13.6424 12.144 13.6368 12.1839 13.5977L13.0943 12.6857C13.1329 12.6473 13.1419 12.5881 13.1136 12.5419V12.5419C13.1114 12.5379 13.1099 12.5337 13.1094 12.5292C13.1077 12.5147 13.1069 12.4999 13.0985 12.4871L12.8629 12.1296L12.5 11.5324C12.4957 11.5254 12.4872 11.5222 12.4794 11.5247V11.5247C12.4719 11.5272 12.4636 11.5243 12.4592 11.5176L12.2203 11.1551C12.1363 11.0275 12.1335 10.8639 12.2043 10.7285C12.3529 10.444 12.4739 10.1428 12.5629 9.82789C12.6042 9.68145 12.7176 9.56442 12.8655 9.52864L14.3664 9.16556C14.4193 9.15296 14.4614 9.10574 14.4614 9.05114V7.76222C14.4614 7.70622 14.4209 7.65395 14.3663 7.64275L12.8087 7.32042C12.6617 7.29001 12.5455 7.17943 12.4983 7.03694C12.41 6.76965 12.2993 6.51285 12.1672 6.26915C12.0957 6.13734 12.0941 5.97711 12.1719 5.84895L13.0185 4.45495C13.0468 4.40842 13.0426 4.35037 13.0042 4.31192L12.088 3.39908C12.0681 3.37904 12.0404 3.37286 12.014 3.36963C11.9879 3.36704 11.9635 3.37096 11.9399 3.38648L10.5289 4.30695C10.4221 4.37664 10.2813 4.37771 10.1716 4.31261V4.31261C9.96773 4.19162 9.73903 4.34819 9.73903 4.58524V5.33769C9.73903 5.47983 9.8155 5.6098 9.93317 5.68954C10.3657 5.98266 10.7269 6.37093 10.9881 6.82575C11.2876 7.34703 11.4455 7.93759 11.4461 8.53877C11.4461 8.99131 11.357 9.43943 11.1838 9.85753C11.0106 10.2756 10.7567 10.6555 10.4368 10.9755C10.1168 11.2955 9.73686 11.5494 9.31876 11.7225C8.90066 11.8957 8.45254 11.9849 8 11.9849C7.08604 11.9849 6.20951 11.6218 5.56324 10.9755C4.91697 10.3293 4.5539 9.45273 4.5539 8.53877C4.55481 7.93787 4.71283 7.34766 5.01228 6.82669C5.27352 6.37218 5.63449 5.98416 6.06682 5.6912C6.18449 5.61146 6.26097 5.4815 6.26097 5.33936V4.58522C6.26097 4.34817 6.03226 4.1916 5.82841 4.31259V4.31259C5.71872 4.37769 5.57791 4.37662 5.47108 4.30693L4.06004 3.38646C4.03654 3.37095 4.01209 3.36704 3.98601 3.36963Z" fill="url(#paint0_linear_297_99)"/>
<path fill-rule="evenodd" clip-rule="evenodd" d="M10.8307 1C11.0516 1 11.2307 1.17909 11.2307 1.4V2.75381C11.2307 2.97472 11.0516 3.15381 10.8307 3.15381H9.4769C9.25599 3.15381 9.0769 3.33289 9.0769 3.55381V9.29213C9.0769 9.51305 8.89782 9.69213 8.6769 9.69213H7.3231C7.10218 9.69213 6.9231 9.51305 6.9231 9.29213V3.55381C6.9231 3.33289 6.74401 3.15381 6.5231 3.15381H5.16929C4.94837 3.15381 4.76929 2.97472 4.76929 2.75381V1.4C4.76929 1.17909 4.94837 1 5.16929 1H10.8307Z" fill="url(#paint1_linear_297_99)"/>
<defs>
<linearGradient id="paint0_linear_297_99" x1="8" y1="15.0002" x2="8" y2="3.36963" gradientUnits="userSpaceOnUse">
<stop stop-color="#5570FF"/>
<stop offset="1" stop-color="#4DD3FF"/>
</linearGradient>
<linearGradient id="paint1_linear_297_99" x1="8" y1="9.69213" x2="8" y2="1" gradientUnits="userSpaceOnUse">
<stop stop-color="#5570FF"/>
<stop offset="1" stop-color="#4DD3FF"/>
</linearGradient>
</defs>
</svg>
