<svg width="48" height="48" viewBox="0 0 48 48" fill="none" xmlns="http://www.w3.org/2000/svg">
<circle opacity="0.4" cx="24" cy="24" r="21" fill="url(#paint0_linear_54_494)"/>
<path d="M7.24734 16.0824C7.16376 16.2462 7.08019 16.4088 7 16.5726C8.27056 17.2785 11.932 19.1183 13.6702 20.2081C15.8669 21.5532 14.6896 20.9806 14.9234 21.4425C12.6387 25.4213 13.6754 28.9428 13.4055 29.3177C13.2113 29.6306 11.4156 31.6025 11.9938 31.8938C12.5675 32.1807 13.4801 31.7301 13.6179 31.642C13.9047 31.4658 14.2006 31.2094 14.0764 31.7165C13.8336 32.7533 12.7313 35.2459 14.2526 34.7162C14.4378 34.61 16.8863 31.9108 17.1822 31.8182C22.0533 33.0887 27.5015 32.506 28.51 32.0339C29.0351 32.0689 30.5214 33.004 31.3684 33.4502C32.2155 33.8918 34.5229 34.9985 33.8396 32.9871C33.6273 32.3512 32.1105 30.7283 32.3567 30.6221C32.8988 30.4064 34.2405 31.1823 34.7567 31.328C36.3005 31.7605 36.5083 31.1609 35.5337 29.8417C34.5714 28.5226 34.4269 28.7259 34.1219 28.1172C33.8836 27.627 34.1219 27.0849 34.2981 26.9528C34.611 26.7144 39.2211 24.1552 40.302 23.176C41.9035 21.7203 40.302 19.9031 39.9089 19.6468C36.5874 17.2558 33.1767 17.7675 33.1325 17.3879C33.11 16.9554 33.119 15.7074 33.0614 15.2749C32.7305 12.3452 31.3764 13.0827 31.1911 13.0827C29.837 13.2951 30.3351 15.3675 30.9088 17.3179C30.9529 17.816 30.4368 17.5957 30.1318 17.0706C29.0905 14.2776 28.6534 14.3262 28.3666 14.2426C28.0887 14.1805 27.1096 14.7768 27.1265 15.9062C27.131 16.2281 27.515 17.7641 27.515 18.2361C26.8758 18.7963 26.8441 20.0669 26.1732 20.5299C24.2194 20.9354 19.5246 19.5643 18.9384 19.5022C16.9089 19.1227 16.0223 20.6451 15.6959 20.2792C13.4055 18.9804 12.7711 18.2361 11.4419 17.9493C10.7665 17.8036 8.48628 16.7973 7.66521 16.2902C7.53307 16.2112 7.38286 16.1536 7.23717 16.0779L7.24734 16.0824ZM32.464 19.7891C32.4865 19.7664 32.5126 19.7981 32.5385 19.8241C32.7328 20.4678 32.9485 21.0811 34.2281 21.2358C34.3783 21.2539 33.5177 21.7564 32.927 21.4481C32.3883 21.1217 32.3398 19.9348 32.464 19.7891ZM35.7821 23.0315C35.9007 23.0134 35.9854 23.018 36.069 23.0315C36.3819 23.1106 33.7989 24.4568 33.5979 24.2716C33.4748 24.153 34.9746 23.1818 35.7866 23.0315H35.7821ZM36.4575 23.8831C36.7263 23.9056 34.9622 25.7319 34.7634 25.5422C34.6178 25.41 35.9064 23.839 36.4575 23.8831Z" fill="url(#paint1_linear_54_494)"/>
<defs>
<linearGradient id="paint0_linear_54_494" x1="24" y1="45" x2="24" y2="3" gradientUnits="userSpaceOnUse">
<stop stop-color="#5570FF"/>
<stop offset="1" stop-color="#4DD3FF"/>
</linearGradient>
<linearGradient id="paint1_linear_54_494" x1="21.9268" y1="34.7892" x2="21.9268" y2="12.7609" gradientUnits="userSpaceOnUse">
<stop stop-color="#5570FF"/>
<stop offset="1" stop-color="#4DD3FF"/>
</linearGradient>
</defs>
</svg>
