<svg width="24" height="24" viewBox="0 0 24 24" fill="none" xmlns="http://www.w3.org/2000/svg">
<path opacity="0.4" d="M1 9.78855C1 5.64585 1 3.57395 2.28752 2.28752C3.57395 1 5.64585 1 9.78855 1H11.9857C16.1284 1 18.2003 1 19.4867 2.28752C20.7742 3.57395 20.7742 5.64585 20.7742 9.78855V14.1828C20.7742 18.3255 20.7742 20.3974 19.4867 21.6838C18.2003 22.9714 16.1284 22.9714 11.9857 22.9714H9.78855C5.64585 22.9714 3.57395 22.9714 2.28752 21.6838C1 20.3974 1 18.3255 1 14.1828V9.78855Z" fill="url(#paint0_linear_41_194)"/>
<path fill-rule="evenodd" clip-rule="evenodd" d="M3 5.75C3 5.55109 3.07902 5.36032 3.21967 5.21967C3.36032 5.07902 3.55109 5 3.75 5H11.75C11.9489 5 12.1397 5.07902 12.2803 5.21967C12.421 5.36032 12.5 5.55109 12.5 5.75C12.5 5.94891 12.421 6.13968 12.2803 6.28033C12.1397 6.42098 11.9489 6.5 11.75 6.5H3.75C3.55109 6.5 3.36032 6.42098 3.21967 6.28033C3.07902 6.13968 3 5.94891 3 5.75ZM4 9.75C4 9.55109 4.07902 9.36032 4.21967 9.21967C4.36032 9.07902 4.55109 9 4.75 9H10.75C10.9489 9 11.1397 9.07902 11.2803 9.21967C11.421 9.36032 11.5 9.55109 11.5 9.75C11.5 9.94891 11.421 10.1397 11.2803 10.2803C11.1397 10.421 10.9489 10.5 10.75 10.5H4.75C4.55109 10.5 4.36032 10.421 4.21967 10.2803C4.07902 10.1397 4 9.94891 4 9.75Z" fill="url(#paint1_linear_41_194)"/>
<path fill-rule="evenodd" clip-rule="evenodd" d="M22.5317 18.106C22.782 18.239 22.9752 18.449 23.1111 18.659C23.3758 19.093 23.3543 19.625 23.0968 20.094L22.596 20.934C22.3314 21.382 21.8377 21.662 21.3298 21.662C21.0795 21.662 20.8005 21.592 20.5715 21.452C20.3855 21.333 20.1709 21.291 19.942 21.291C19.2338 21.291 18.64 21.872 18.6186 22.565C18.6186 23.37 17.9604 24 17.1378 24H16.1649C15.335 24 14.6769 23.37 14.6769 22.565C14.6626 21.872 14.0688 21.291 13.3606 21.291C13.1245 21.291 12.9099 21.333 12.7311 21.452C12.5022 21.592 12.216 21.662 11.9728 21.662C11.4577 21.662 10.9641 21.382 10.6994 20.934L10.2058 20.094C9.94114 19.639 9.92683 19.093 10.1915 18.659C10.306 18.449 10.5206 18.239 10.7638 18.106C10.9641 18.008 11.0929 17.847 11.2145 17.658C11.5722 17.056 11.3576 16.265 10.7495 15.908C10.0413 15.509 9.81237 14.62 10.2201 13.927L10.6994 13.101C11.1143 12.408 12.0014 12.163 12.7168 12.569C13.3391 12.905 14.1475 12.681 14.5124 12.086C14.6268 11.89 14.6912 11.68 14.6769 11.47C14.6626 11.197 14.7413 10.938 14.8772 10.728C15.1419 10.294 15.6212 10.014 16.1434 10H17.1521C17.6814 10 18.1607 10.294 18.4254 10.728C18.5542 10.938 18.64 11.197 18.6186 11.47C18.6043 11.68 18.6687 11.89 18.7831 12.086C19.148 12.681 19.9563 12.905 20.5858 12.569C21.2941 12.163 22.1883 12.408 22.596 13.101L23.0753 13.927C23.4903 14.62 23.2613 15.509 22.546 15.908C21.9379 16.265 21.7233 17.056 22.0881 17.658C22.2026 17.847 22.3314 18.008 22.5317 18.106ZM14.6268 17.007C14.6268 18.106 15.5354 18.981 16.6585 18.981C17.7816 18.981 18.6687 18.106 18.6687 17.007C18.6687 15.908 17.7816 15.026 16.6585 15.026C15.5354 15.026 14.6268 15.908 14.6268 17.007Z" fill="url(#paint2_linear_41_194)"/>
<defs>
<linearGradient id="paint0_linear_41_194" x1="10.8871" y1="22.9714" x2="10.8871" y2="1" gradientUnits="userSpaceOnUse">
<stop stop-color="#A93AFF"/>
<stop offset="1" stop-color="#FF81FF"/>
</linearGradient>
<linearGradient id="paint1_linear_41_194" x1="10.7808" y1="5" x2="7.22326" y2="12.5026" gradientUnits="userSpaceOnUse">
<stop stop-color="#DE00C0"/>
<stop offset="1" stop-color="#8720FF"/>
</linearGradient>
<linearGradient id="paint2_linear_41_194" x1="16.65" y1="10" x2="16.65" y2="24" gradientUnits="userSpaceOnUse">
<stop stop-color="#DC18FC"/>
<stop offset="1" stop-color="#8E1EFF"/>
</linearGradient>
</defs>
</svg>
