<svg width="64" height="64" viewBox="0 0 64 64" fill="none" xmlns="http://www.w3.org/2000/svg">
<path opacity="0.4" d="M27.7069 4.32896C33.8296 3.37386 40.2591 4.51288 45.6588 7.55885C50.8617 10.4564 55.0931 15.0641 57.5331 20.4978C60.3153 26.6124 60.7575 33.74 58.7919 40.1611C56.865 46.5499 52.5465 52.1676 46.895 55.704C42.3925 58.5564 37.0572 60.0503 31.7317 59.9987C25.0571 59.9438 18.4275 57.4206 13.4506 52.9678C9.10946 49.1442 5.99805 43.9428 4.71347 38.2994C3.27074 32.059 4.02599 25.3281 6.88887 19.5911C10.8169 11.5341 18.8278 5.6293 27.7069 4.32896Z" fill="url(#paint0_linear_49_75)"/>
<path fill-rule="evenodd" clip-rule="evenodd" d="M48.1053 16.6395C44.625 12.1372 39.1195 9.19639 33.4146 9.00947C32.6814 8.98545 32.2413 9.77003 32.5958 10.4122C34.6482 14.1298 36.7841 17.8008 38.9195 21.4708L38.9198 21.4714C39.781 22.9516 40.6421 24.4315 41.4977 25.9144C41.8608 26.5438 42.7495 26.5874 43.1439 25.977C43.9782 24.6857 44.7288 23.3392 45.4797 21.9923L45.4797 21.9923L45.4798 21.9922C46.1294 20.827 46.7791 19.6616 47.4833 18.5313C47.5183 18.4751 47.5469 18.4153 47.5747 18.3553C47.6405 18.2132 47.7327 18.0683 47.8264 17.921L47.8264 17.921C48.0882 17.5096 48.3618 17.0796 48.1053 16.6395ZM26.2331 9.45533C20.6249 10.2766 15.3158 13.5336 12.3792 18.4127C12.005 19.0345 12.4644 19.7944 13.1901 19.8096C19.2722 19.937 25.3626 19.8817 31.4477 19.8264H31.4477V19.8264C32.015 19.8213 32.3705 19.2123 32.0932 18.7175C31.1786 17.0854 30.2425 15.4655 29.3065 13.8459L29.3064 13.8459L29.3064 13.8458L29.3064 13.8458L29.3062 13.8455L29.3061 13.8453L29.3061 13.8452L29.306 13.8451C28.6789 12.76 28.0519 11.675 27.4314 10.5865C27.4055 10.541 27.3756 10.4979 27.345 10.4554C27.2819 10.3679 27.2222 10.2689 27.1615 10.168C26.9401 9.80067 26.7039 9.40859 26.2331 9.45533ZM48.124 26.4383L48.1241 26.4382L48.1243 26.4379C49.0977 24.7662 50.0711 23.0947 51.0409 21.4215C51.4042 20.7947 52.2896 20.7531 52.6551 21.3786C55.5308 26.3007 55.6579 32.5709 53.6026 37.8521C53.5072 38.0972 53.3157 38.2965 53.0636 38.3716C52.1932 38.6312 51.2911 38.5647 50.3869 38.498C49.8553 38.4588 49.323 38.4196 48.7959 38.4465L48.4028 38.467C46.4982 38.5668 44.5813 38.6672 42.6812 38.4977C41.9903 38.436 41.6283 37.6794 41.9719 37.0769C44.0015 33.5176 46.063 29.9776 48.1239 26.4385L48.124 26.4384L48.124 26.4383ZM11.5424 24.0744C11.1486 24.0751 10.7213 24.0759 10.5259 24.4509C8.23249 29.7517 8.55513 36.0208 11.2859 41.089C11.6141 41.6983 12.4482 41.7316 12.8278 41.153C13.4542 40.1981 14.0098 39.1965 14.5653 38.1953L14.5653 38.1953C15.0132 37.3878 15.4611 36.5805 15.9459 35.798C16.7559 34.3231 17.6138 32.873 18.4716 31.423L18.4716 31.423C19.6301 29.4649 20.7884 27.507 21.8283 25.4888C22.1629 24.8394 21.69 24.0776 20.9596 24.0733C19.5721 24.0653 18.1851 24.0666 16.7981 24.068H16.7981H16.798H16.7978C15.2004 24.0695 13.6031 24.071 12.0048 24.0582C11.9565 24.0578 11.9082 24.0615 11.86 24.0656C11.7607 24.074 11.6529 24.0742 11.5424 24.0744H11.5424H11.5424ZM16.3435 44.1201C17.0136 43.0648 17.6236 41.9684 18.2336 40.8722C18.9479 39.5885 19.662 38.3051 20.4723 37.0881C20.8687 36.4928 21.7384 36.5468 22.0959 37.1663C23.0738 38.8608 24.0605 40.551 25.0473 42.2412C27.0917 45.7432 29.1363 49.2454 31.1031 52.7872C31.4553 53.4215 31.0304 54.2005 30.305 54.1886C24.7257 54.0974 19.311 51.1884 15.77 46.936C15.0439 46.2422 15.5347 45.4591 15.9855 44.7397C16.1193 44.5262 16.2496 44.3183 16.3435 44.1201ZM51.6266 44.4753C51.9809 43.848 51.5056 43.1074 50.7851 43.1042C44.8037 43.0782 38.8226 43.0859 32.8443 43.0964C32.1153 43.0977 31.6367 43.8518 31.9725 44.4988C32.6043 45.7158 33.2988 46.9001 33.9935 48.0848C34.5417 49.0197 35.0901 49.9548 35.608 50.9066C35.7819 51.1829 35.9381 51.4746 36.0947 51.7668C36.3924 52.3224 36.6913 52.8801 37.114 53.3386C37.3045 53.5451 37.5915 53.6226 37.869 53.5785C43.4386 52.6925 48.8245 49.4348 51.6266 44.4753Z" fill="url(#paint1_linear_49_75)"/>
<defs>
<linearGradient id="paint0_linear_49_75" x1="32" y1="37.1851" x2="32" y2="4" gradientUnits="userSpaceOnUse">
<stop stop-color="#5558FF"/>
<stop offset="1" stop-color="#00C0FF"/>
</linearGradient>
<linearGradient id="paint1_linear_49_75" x1="32" y1="35.7797" x2="32" y2="9" gradientUnits="userSpaceOnUse">
<stop stop-color="#5558FF"/>
<stop offset="1" stop-color="#00C0FF"/>
</linearGradient>
</defs>
</svg>
