<svg width="32" height="32" viewBox="0 0 32 32" fill="none" xmlns="http://www.w3.org/2000/svg">
<path opacity="0.5" d="M13.8812 15.7069C11.8367 15.7069 9.97743 15.8297 8.39058 16.1992C4.92538 16.3996 2.21528 17.1536 2.2002 18.1174C2.20271 19.6833 2.60592 21.2113 3.35641 22.4989C5.2307 26.3659 9.18989 29.0345 13.7756 29.0345C15.9155 29.0345 17.9141 28.4435 19.634 27.4313C22.9396 28.605 28.3607 30.4366 28.7743 29.9059C29.2513 29.2939 25.949 24.2032 24.4475 21.9538C25.0305 20.5719 25.3528 19.0532 25.3528 17.4591C25.3528 11.0659 20.2744 15.7069 13.8812 15.7069Z" fill="url(#paint0_linear_674_128)"/>
<path opacity="0.5" fill-rule="evenodd" clip-rule="evenodd" d="M28.1732 28.488C28.1732 28.488 29.4972 26.0826 29.1955 25.5681C28.9303 25.1158 26.4952 25.2266 26.4952 25.2266C26.4952 25.2266 28.5566 22.7267 28.2301 22.1701C27.9087 21.6221 24.4116 21.3143 24.4116 21.3143C24.4116 21.3143 28.2289 20.0382 28.3382 19.4109C28.453 18.7534 24.9195 16.3775 24.9195 16.3775C24.9195 16.3775 27.5433 12.0033 27.2972 11.4197C26.9883 10.6873 23.2531 10.6913 23.2531 10.6913C23.2531 10.6913 24.9071 5.39313 24.2259 4.96185C23.6536 4.59964 17.3146 6.56587 17.3146 6.56587C17.3146 6.56587 15.4151 2 14.3575 2C13.2931 2 11.0447 6.57248 11.0447 6.57248C11.0447 6.57248 7.21535 3.54345 6.52427 3.93626C5.9133 4.28348 6.18899 9.24419 6.18899 9.24419L17.6514 16.4857L28.1732 28.488Z" fill="url(#paint1_linear_674_128)"/>
<path fill-rule="evenodd" clip-rule="evenodd" d="M2.2002 16.4934C2.2002 10.1002 7.38292 4.91748 13.7761 4.91748C20.1693 4.91748 25.3521 10.1002 25.3521 16.4934C25.3521 18.0576 25.0366 19.5464 24.4743 20.9075C26.1601 23.3559 29.204 28.3862 28.7724 28.9398C28.759 28.9571 28.7393 28.9712 28.7152 28.9837C26.9522 28.4088 22.8834 26.8433 21.0936 25.1771H20.5488C19.952 26.6942 18.9888 28.0857 17.9017 28.0743C16.9569 28.0644 16.293 27.3497 15.6268 26.6326C14.9656 25.9209 14.3022 25.2068 13.3599 25.1771C12.3436 25.1452 11.5361 25.9717 10.7758 26.75C10.1196 27.4216 9.49858 28.0573 8.80875 28.0743C6.83974 28.1228 5.76581 22.4011 5.76581 22.4011H5.80837C5.29637 22.1107 4.85243 21.8168 4.4957 21.5286C4.4957 21.5286 3.02528 20.7878 2.46087 18.9459C2.44835 18.905 2.43502 18.8651 2.42169 18.8252C2.39237 18.7375 2.36307 18.6498 2.3425 18.5522C2.24951 17.9676 2.2002 17.3684 2.2002 16.7581C2.2002 16.7341 2.20187 16.7106 2.20354 16.6871C2.20507 16.6656 2.20659 16.6442 2.20685 16.6224C2.20662 16.6016 2.20508 16.5811 2.20354 16.5606C2.20187 16.5383 2.2002 16.5161 2.2002 16.4934ZM9.92592 13.1057C9.92592 13.9058 9.27737 14.5543 8.47735 14.5543C7.67732 14.5543 7.02877 13.9058 7.02877 13.1057C7.02877 12.3057 7.67732 11.6572 8.47735 11.6572C9.27737 11.6572 9.92592 12.3057 9.92592 13.1057Z" fill="url(#paint2_linear_674_128)"/>
<defs>
<linearGradient id="paint0_linear_674_128" x1="15.5106" y1="30.0001" x2="15.5106" y2="14.0796" gradientUnits="userSpaceOnUse">
<stop stop-color="#00B59C"/>
<stop offset="1" stop-color="#9CFFAC"/>
</linearGradient>
<linearGradient id="paint1_linear_674_128" x1="17.6836" y1="28.488" x2="17.6836" y2="2" gradientUnits="userSpaceOnUse">
<stop stop-color="#00B59C"/>
<stop offset="1" stop-color="#9CFFAC"/>
</linearGradient>
<linearGradient id="paint2_linear_674_128" x1="15.507" y1="28.9837" x2="15.507" y2="4.91748" gradientUnits="userSpaceOnUse">
<stop stop-color="#00B59C"/>
<stop offset="1" stop-color="#9CFFAC"/>
</linearGradient>
</defs>
</svg>
