<svg width="24" height="24" viewBox="0 0 24 24" fill="none" xmlns="http://www.w3.org/2000/svg">
<path opacity="0.4" d="M21.802 16.3993V9.79866C21.802 6.68754 21.802 5.13199 20.835 4.16499C19.9901 3.32011 18.6942 3.2134 16.3014 3.2002H7.50055C5.10781 3.2134 3.81188 3.32011 2.967 4.16499C2 5.13199 2 6.68754 2 9.79866V16.3993C2 19.5115 2 21.0671 2.967 22.0341C3.93289 23 5.48955 23 8.60066 23H15.2013C18.3124 23 19.8691 23 20.835 22.0341C21.802 21.066 21.802 19.5115 21.802 16.3993Z" fill="url(#paint0_linear_8_298)"/>
<path d="M7.50055 2.65017C7.50055 2.21251 7.67441 1.79279 7.98387 1.48332C8.29334 1.17386 8.71306 1 9.15071 1H14.6513C15.0889 1 15.5086 1.17386 15.8181 1.48332C16.1276 1.79279 16.3014 2.21251 16.3014 2.65017V3.75028C16.3014 4.18793 16.1276 4.60765 15.8181 4.91712C15.5086 5.22658 15.0889 5.40044 14.6513 5.40044H9.15071C8.71306 5.40044 8.29334 5.22658 7.98387 4.91712C7.67441 4.60765 7.50055 4.18793 7.50055 3.75028V2.65017Z" fill="url(#paint1_linear_8_298)"/>
<path fill-rule="evenodd" clip-rule="evenodd" d="M5.57538 10.351C5.57538 10.1321 5.66231 9.92227 5.81704 9.76754C5.97177 9.61281 6.18164 9.52588 6.40046 9.52588H6.95052C7.16934 9.52588 7.3792 9.61281 7.53394 9.76754C7.68867 9.92227 7.7756 10.1321 7.7756 10.351C7.7756 10.5698 7.68867 10.7796 7.53394 10.9344C7.3792 11.0891 7.16934 11.176 6.95052 11.176H6.40046C6.18164 11.176 5.97177 11.0891 5.81704 10.9344C5.66231 10.7796 5.57538 10.5698 5.57538 10.351ZM9.42576 10.351C9.42576 10.1321 9.51269 9.92227 9.66743 9.76754C9.82216 9.61281 10.032 9.52588 10.2508 9.52588H17.4016C17.6204 9.52588 17.8303 9.61281 17.985 9.76754C18.1397 9.92227 18.2266 10.1321 18.2266 10.351C18.2266 10.5698 18.1397 10.7796 17.985 10.9344C17.8303 11.0891 17.6204 11.176 17.4016 11.176H10.2508C10.032 11.176 9.82216 11.0891 9.66743 10.9344C9.51269 10.7796 9.42576 10.5698 9.42576 10.351ZM5.57538 14.2013C5.57538 13.9825 5.66231 13.7727 5.81704 13.6179C5.97177 13.4632 6.18164 13.3763 6.40046 13.3763H6.95052C7.16934 13.3763 7.3792 13.4632 7.53394 13.6179C7.68867 13.7727 7.7756 13.9825 7.7756 14.2013C7.7756 14.4202 7.68867 14.63 7.53394 14.7848C7.3792 14.9395 7.16934 15.0264 6.95052 15.0264H6.40046C6.18164 15.0264 5.97177 14.9395 5.81704 14.7848C5.66231 14.63 5.57538 14.4202 5.57538 14.2013ZM9.42576 14.2013C9.42576 13.9825 9.51269 13.7727 9.66743 13.6179C9.82216 13.4632 10.032 13.3763 10.2508 13.3763H17.4016C17.6204 13.3763 17.8303 13.4632 17.985 13.6179C18.1397 13.7727 18.2266 13.9825 18.2266 14.2013C18.2266 14.4202 18.1397 14.63 17.985 14.7848C17.8303 14.9395 17.6204 15.0264 17.4016 15.0264H10.2508C10.032 15.0264 9.82216 14.9395 9.66743 14.7848C9.51269 14.63 9.42576 14.4202 9.42576 14.2013ZM5.57538 18.0517C5.57538 17.8329 5.66231 17.623 5.81704 17.4683C5.97177 17.3136 6.18164 17.2266 6.40046 17.2266H6.95052C7.16934 17.2266 7.3792 17.3136 7.53394 17.4683C7.68867 17.623 7.7756 17.8329 7.7756 18.0517C7.7756 18.2706 7.68867 18.4804 7.53394 18.6352C7.3792 18.7899 7.16934 18.8768 6.95052 18.8768H6.40046C6.18164 18.8768 5.97177 18.7899 5.81704 18.6352C5.66231 18.4804 5.57538 18.2706 5.57538 18.0517ZM9.42576 18.0517C9.42576 17.8329 9.51269 17.623 9.66743 17.4683C9.82216 17.3136 10.032 17.2266 10.2508 17.2266H17.4016C17.6204 17.2266 17.8303 17.3136 17.985 17.4683C18.1397 17.623 18.2266 17.8329 18.2266 18.0517C18.2266 18.2706 18.1397 18.4804 17.985 18.6352C17.8303 18.7899 17.6204 18.8768 17.4016 18.8768H10.2508C10.032 18.8768 9.82216 18.7899 9.66743 18.6352C9.51269 18.4804 9.42576 18.2706 9.42576 18.0517Z" fill="url(#paint2_linear_8_298)"/>
<defs>
<linearGradient id="paint0_linear_8_298" x1="11.901" y1="3.2002" x2="11.901" y2="23" gradientUnits="userSpaceOnUse">
<stop stop-color="#DC18FC"/>
<stop offset="1" stop-color="#8E1EFF"/>
</linearGradient>
<linearGradient id="paint1_linear_8_298" x1="11.901" y1="1" x2="11.901" y2="5.40044" gradientUnits="userSpaceOnUse">
<stop stop-color="#DC18FC"/>
<stop offset="1" stop-color="#8E1EFF"/>
</linearGradient>
<linearGradient id="paint2_linear_8_298" x1="11.901" y1="9.52588" x2="11.901" y2="18.8768" gradientUnits="userSpaceOnUse">
<stop stop-color="#DC18FC"/>
<stop offset="1" stop-color="#8E1EFF"/>
</linearGradient>
</defs>
</svg>
