<svg width="24" height="24" viewBox="0 0 24 24" fill="none" xmlns="http://www.w3.org/2000/svg">
<path opacity="0.5" d="M3.7997 1.8063C4.1363 1.4675 4.6071 1.2475 5.4981 1.1265C6.4155 1.0022 7.6299 1 9.3723 1H14.2277C15.9701 1 17.1845 1.0022 18.1019 1.1265C18.9929 1.2475 19.4637 1.4675 19.8003 1.8063C20.1358 2.1451 20.3547 2.6203 20.4746 3.519C20.5978 4.443 20.6 5.6695 20.6 7.4262V18.6H6.7686C5.5762 18.6 5.1604 18.6066 4.8403 18.6748C4.276 18.7958 3.7843 19.0565 3.4268 19.4085C3.3058 19.5273 3.2464 19.5856 3.1067 19.964C3.04003 20.1246 3.00384 20.2962 3 20.47V7.4262C3 5.6695 3.0022 4.4441 3.1254 3.519C3.2453 2.6214 3.4642 2.1451 3.7997 1.8063Z" fill="url(#paint0_linear_8_162)"/>
<path fill-rule="evenodd" clip-rule="evenodd" d="M20.6 18.6H6.76859C5.57729 18.6 5.15929 18.6066 4.84029 18.6748C4.30956 18.7817 3.81969 19.036 3.42679 19.4085L3.42676 19.4085C3.30578 19.5273 3.24638 19.5856 3.10669 19.964C2.96809 20.3413 2.99009 20.5019 3.03409 20.822C3.04135 20.8775 3.04942 20.9328 3.05829 20.9881C3.17929 21.7053 3.39929 22.0848 3.73589 22.3554C4.07359 22.626 4.54659 22.8031 5.44089 22.8988C6.36049 22.9989 7.58149 23 9.33049 23H14.2035C15.9525 23 17.1724 22.9978 18.0931 22.8988C18.9874 22.8031 19.4604 22.626 19.7981 22.3554C20.1347 22.0848 20.3547 21.7053 20.4757 20.987C20.5758 20.3853 20.5967 19.623 20.6 18.6ZM6.24164 20.2416C6.39635 20.0869 6.6062 20 6.825 20H12.325C12.5438 20 12.7536 20.0869 12.9084 20.2416C13.0631 20.3964 13.15 20.6062 13.15 20.825C13.15 21.0438 13.0631 21.2536 12.9084 21.4084C12.7536 21.5631 12.5438 21.65 12.325 21.65H6.825C6.6062 21.65 6.39635 21.5631 6.24164 21.4084C6.08692 21.2536 6 21.0438 6 20.825C6 20.6062 6.08692 20.3964 6.24164 20.2416Z" fill="url(#paint1_linear_8_162)"/>
<path fill-rule="evenodd" clip-rule="evenodd" d="M12 5C12.3617 5 12.7085 5.14367 12.9642 5.3994C13.22 5.65513 13.3636 6.00198 13.3636 6.36364V8.63636H15.6364C15.998 8.63636 16.3449 8.78003 16.6006 9.03576C16.8563 9.29149 17 9.63834 17 10C17 10.3617 16.8563 10.7085 16.6006 10.9642C16.3449 11.22 15.998 11.3636 15.6364 11.3636H13.3636V13.6364C13.3636 13.998 13.22 14.3449 12.9642 14.6006C12.7085 14.8563 12.3617 15 12 15C11.6383 15 11.2915 14.8563 11.0358 14.6006C10.78 14.3449 10.6364 13.998 10.6364 13.6364V11.3636H8.36364C8.00198 11.3636 7.65513 11.22 7.3994 10.9642C7.14367 10.7085 7 10.3617 7 10C7 9.63834 7.14367 9.29149 7.3994 9.03576C7.65513 8.78003 8.00198 8.63636 8.36364 8.63636H10.6364V6.36364C10.6364 6.00198 10.78 5.65513 11.0358 5.3994C11.2915 5.14367 11.6383 5 12 5Z" fill="url(#paint2_linear_8_162)"/>
<defs>
<linearGradient id="paint0_linear_8_162" x1="11.8" y1="20.47" x2="11.8" y2="1" gradientUnits="userSpaceOnUse">
<stop stop-color="#A93AFF"/>
<stop offset="1" stop-color="#FF81FF"/>
</linearGradient>
<linearGradient id="paint1_linear_8_162" x1="11.8003" y1="23" x2="11.8003" y2="18.6" gradientUnits="userSpaceOnUse">
<stop stop-color="#A93AFF"/>
<stop offset="1" stop-color="#FF81FF"/>
</linearGradient>
<linearGradient id="paint2_linear_8_162" x1="12" y1="5" x2="12" y2="15" gradientUnits="userSpaceOnUse">
<stop stop-color="#DC18FC"/>
<stop offset="1" stop-color="#8E1EFF"/>
</linearGradient>
</defs>
</svg>
