<svg width="48" height="49" viewBox="0 0 48 49" fill="none" xmlns="http://www.w3.org/2000/svg">
<path fill-rule="evenodd" clip-rule="evenodd" d="M24.9826 3.50188C20.303 3.65334 37.4495 27.3083 24.2438 25.798C35.2562 28.8487 37.7781 14.6357 35.5291 7.68277C33.3015 0.795595 32.1441 5.09222 25.5055 3.56332C25.3069 3.5176 25.1326 3.49617 24.9826 3.50188ZM11.8612 6.79829C4.62254 6.78829 8.3519 9.2188 4.84544 15.0615C1.49616 20.6398 31.2982 10.6477 25.6027 23.1303C31.9069 13.6012 19.1685 6.8083 11.8612 6.79972V6.79829ZM41.8475 18.5951C37.9381 18.9694 23.6737 37.1004 21.2861 25.3336C21.789 36.7489 36.0892 34.7571 42.0047 30.469C47.8674 26.2224 43.4207 26.4467 42.8235 19.6596C42.752 18.8494 42.4062 18.5422 41.8475 18.5951Z" fill="url(#paint0_linear_345_654)"/>
<g opacity="0.5">
<path d="M3.70389 29.0371C5.33281 24.0447 11.1612 17.4633 16.9538 17.4776C19.22 17.4833 21.4819 18.4992 23.4838 21.014C13.3716 11.7392 13.6631 43.173 9.39224 38.2634C4.91986 33.1237 1.4577 35.9186 3.70389 29.0371Z" fill="url(#paint1_linear_345_654)"/>
<path d="M22.335 43.6674C16.4294 39.3636 10.1138 26.3794 20.8161 22.3743C8.87212 29.1257 38.8556 38.5606 32.8672 41.1054C26.5973 43.7703 28.1862 47.9297 22.335 43.6674Z" fill="url(#paint2_linear_345_654)"/>
</g>
<defs>
<linearGradient id="paint0_linear_345_654" x1="127.824" y1="45.4989" x2="127.824" y2="3.50088" gradientUnits="userSpaceOnUse">
<stop stop-color="#006783"/>
<stop offset="1" stop-color="#20CCFF"/>
</linearGradient>
<linearGradient id="paint1_linear_345_654" x1="127.824" y1="45.4989" x2="127.824" y2="3.50088" gradientUnits="userSpaceOnUse">
<stop stop-color="#006783"/>
<stop offset="1" stop-color="#20CCFF"/>
</linearGradient>
<linearGradient id="paint2_linear_345_654" x1="127.824" y1="45.4989" x2="127.824" y2="3.50088" gradientUnits="userSpaceOnUse">
<stop stop-color="#006783"/>
<stop offset="1" stop-color="#20CCFF"/>
</linearGradient>
</defs>
</svg>
