<svg width="192" height="192" viewBox="0 0 192 192" fill="none" xmlns="http://www.w3.org/2000/svg">
<path d="M68.9868 152.373C68.9849 152.373 68.9829 152.372 68.9813 152.371C55.871 143.074 46.4435 129.502 42.2904 114.025C41.9201 112.645 42.3947 111.202 43.3271 110.12C44.7432 108.475 45.9055 106.622 46.7711 104.622C47.9432 101.914 48.5463 98.9936 48.5429 96.0428C48.5429 90.6577 46.5738 85.7326 43.3142 81.9518C42.3792 80.8672 41.9053 79.4206 42.2796 78.0385C43.8463 72.2533 46.16 66.6933 49.1647 61.4998C53.3889 54.16 58.9249 47.674 65.4851 42.358C67.316 40.8743 70.002 41.4663 71.1805 43.5071L75.9068 51.6912C76.915 53.4371 76.4544 55.6481 74.9346 56.9728C69.8105 61.4391 65.6063 66.878 62.5724 72.9864C59.0145 80.1499 57.163 88.0399 57.163 96.0384C57.163 104.037 59.0145 111.927 62.5724 119.091C65.6065 125.199 69.8111 130.638 74.9356 135.105C76.455 136.429 76.916 138.639 75.9087 140.385L68.995 152.368C68.9933 152.371 68.9902 152.373 68.9868 152.373V152.373ZM82.4079 37.0408C81.229 34.9993 82.0599 32.3762 84.261 31.5321C97.817 26.3331 112.688 25.5277 126.755 29.261C128.14 29.6287 129.157 30.7647 129.628 32.1185C130.343 34.1704 131.365 36.1069 132.663 37.8601C134.422 40.2356 136.65 42.2242 139.211 43.7021C141.771 45.1801 144.607 46.116 147.544 46.4516C149.712 46.6994 151.9 46.6162 154.034 46.209C155.441 45.9403 156.933 46.2523 157.944 47.2678C168.215 57.5826 174.956 70.865 177.234 85.2061C177.604 87.5344 175.748 89.5659 173.39 89.5659H163.932C161.915 89.5659 160.231 88.0602 159.844 86.0807C158.542 79.411 155.937 73.0513 152.164 67.3714C147.739 60.7095 141.83 55.1644 134.9 51.1715C127.978 47.1658 120.221 44.8199 112.239 44.3178C105.433 43.8899 98.6222 44.8123 92.1946 47.0193C90.2871 47.6742 88.141 46.9682 87.1325 45.2218L82.4079 37.0408ZM144.536 34.2144C143.051 33.37 141.748 32.2403 140.701 30.8901C139.654 29.5401 138.884 27.9962 138.438 26.3475C137.99 24.6989 137.873 22.9781 138.093 21.2839C138.313 19.5899 138.866 17.9561 139.72 16.4767C140.574 14.9972 141.713 13.7014 143.07 12.6637C144.427 11.626 145.976 10.8669 147.628 10.4303C149.279 9.99361 151.001 9.88801 152.694 10.1194C154.386 10.3508 156.016 10.9148 157.49 11.7788C160.44 13.5087 162.588 16.3356 163.462 19.6426C164.336 22.9496 163.866 26.4682 162.156 29.4306C160.447 32.3929 157.633 34.5584 154.332 35.4547C151.031 36.3509 147.51 35.9051 144.536 34.2144ZM37.9072 96.0428C37.9072 99.4783 36.5424 102.773 34.1132 105.202C31.6839 107.632 28.3891 108.997 24.9536 108.997C21.5181 108.997 18.2233 107.632 15.794 105.202C13.3647 102.773 12 99.4783 12 96.0428C12 92.6073 13.3647 89.3124 15.794 86.8831C18.2233 84.4539 21.5181 83.0891 24.9536 83.0891C28.3891 83.0891 31.6839 84.4539 34.1132 86.8831C36.5424 89.3124 37.9072 92.6073 37.9072 96.0428Z" fill="url(#paint0_linear_80_666)" stroke="url(#paint1_linear_80_666)" stroke-width="8"/>
<path opacity="0.4" d="M112.149 146.267L112.149 146.267C105.539 146.682 98.9237 145.786 92.6797 143.645C90.1537 142.779 87.2318 143.692 85.8345 146.112L78.9326 158.063C78.844 158.206 78.7794 158.365 78.7429 158.534L78.7429 158.534C78.5935 159.224 78.9446 159.923 79.5841 160.217C94.509 167.075 111.338 168.488 127.157 164.259C129.125 163.733 130.457 162.156 131.052 160.451C131.717 158.544 132.669 156.744 133.878 155.115C135.514 152.909 137.587 151.063 139.967 149.692L139.969 149.69C142.348 148.314 144.987 147.441 147.717 147.127C149.733 146.896 151.767 146.972 153.751 147.35C155.53 147.689 157.568 147.322 159.008 145.873C163.325 141.533 167.061 136.647 170.119 131.336C174.458 123.849 177.371 115.635 178.725 107.114C179.25 103.809 176.612 101.02 173.4 101.02H163.947C161.153 101.02 158.9 103.093 158.387 105.714C157.118 112.191 154.585 118.368 150.921 123.884L150.921 123.884C146.624 130.354 140.888 135.743 134.161 139.625L134.161 139.625C127.435 143.508 119.901 145.781 112.149 146.267Z" fill="url(#paint2_linear_80_666)" stroke="url(#paint3_linear_80_666)" stroke-width="3"/>
<path opacity="0.4" d="M143.777 156.577L143.777 156.577C145.422 155.613 147.24 154.984 149.129 154.726L143.777 156.577ZM143.777 156.577C140.484 158.507 138.09 161.662 137.114 165.351L137.114 165.352C136.139 169.042 136.662 172.967 138.57 176.273L138.57 176.273C140.479 179.578 143.616 181.995 147.3 182.995C150.984 183.995 154.913 183.498 158.231 181.611C159.889 180.669 161.342 179.408 162.51 177.902L162.511 177.902C163.678 176.396 164.537 174.672 165.036 172.833C165.535 170.993 165.666 169.074 165.42 167.183L165.42 167.183C165.175 165.293 164.558 163.47 163.604 161.819C162.651 160.168 161.38 158.723 159.868 157.565L159.867 157.565C158.353 156.406 156.624 155.56 154.783 155.073L154.782 155.073M143.777 156.577L154.782 155.073M154.782 155.073C152.939 154.585 151.019 154.467 149.13 154.726L154.782 155.073Z" fill="url(#paint4_linear_80_666)" stroke="url(#paint5_linear_80_666)" stroke-width="3"/>
<defs>
<linearGradient id="paint0_linear_80_666" x1="95.8969" y1="180" x2="95.8969" y2="12" gradientUnits="userSpaceOnUse">
<stop stop-color="#FD5900"/>
<stop offset="1" stop-color="#FFDE00"/>
</linearGradient>
<linearGradient id="paint1_linear_80_666" x1="95.8969" y1="180" x2="95.8969" y2="12" gradientUnits="userSpaceOnUse">
<stop stop-color="#FD5900"/>
<stop offset="1" stop-color="#FFDE00"/>
</linearGradient>
<linearGradient id="paint2_linear_80_666" x1="95.8969" y1="180" x2="95.8969" y2="12" gradientUnits="userSpaceOnUse">
<stop stop-color="#FD5900"/>
<stop offset="1" stop-color="#FFDE00"/>
</linearGradient>
<linearGradient id="paint3_linear_80_666" x1="95.8969" y1="180" x2="95.8969" y2="12" gradientUnits="userSpaceOnUse">
<stop stop-color="#FD5900"/>
<stop offset="1" stop-color="#FFDE00"/>
</linearGradient>
<linearGradient id="paint4_linear_80_666" x1="95.8969" y1="180" x2="95.8969" y2="12" gradientUnits="userSpaceOnUse">
<stop stop-color="#FD5900"/>
<stop offset="1" stop-color="#FFDE00"/>
</linearGradient>
<linearGradient id="paint5_linear_80_666" x1="95.8969" y1="180" x2="95.8969" y2="12" gradientUnits="userSpaceOnUse">
<stop stop-color="#FD5900"/>
<stop offset="1" stop-color="#FFDE00"/>
</linearGradient>
</defs>
</svg>
