<svg width="64" height="64" viewBox="0 0 64 64" fill="none" xmlns="http://www.w3.org/2000/svg">
<path opacity="0.4" fill-rule="evenodd" clip-rule="evenodd" d="M5.00427 7.00001C4.45032 6.99765 4 7.44605 4 8V22.0411C4 22.5933 4.44772 23.0411 5 23.0411H9.6073C10.1596 23.0411 10.6073 23.4888 10.6073 24.0411V26.262L10.6139 38.8946C10.6139 49.2983 19.6485 57.1953 30.0588 57.1953H59C59.5523 57.1953 60 56.7476 60 56.1953V25.4353C60 15.0184 50.972 7.13461 40.5551 7.13461L31.8446 7.11477L5.00427 7.00001ZM19.9342 15.984C19.3819 15.984 18.9342 16.4317 18.9342 16.984V39.0666C18.9342 41.5137 19.8271 43.6632 21.5732 45.3961C23.0613 46.871 24.8537 47.8234 26.8643 48.0416H31.5589C32.1112 48.0416 32.5589 47.5939 32.5589 47.0416V44.5071C32.5589 43.9564 32.1136 43.5093 31.5629 43.5071L27.6646 43.4913C25.2968 43.4913 23.2597 41.1764 23.2597 38.2068V16.984C23.2597 16.4317 22.812 15.984 22.2597 15.984H19.9342ZM35.2574 19.7804C33.2864 19.7804 31.5403 20.5079 30.1316 21.9299C29.4462 22.607 28.904 23.4149 28.537 24.3057C28.17 25.1964 27.9858 26.1519 27.9953 27.1152V36.2081C27.9953 36.7603 28.443 37.2081 28.9953 37.2081H31.5721C32.1244 37.2081 32.5721 36.7603 32.5721 36.2081V27.1152C32.5721 26.348 32.8234 25.7461 33.3658 25.1972C33.605 24.9352 33.8977 24.7276 34.224 24.5885C34.5503 24.4493 34.9027 24.3817 35.2574 24.3903C36.0246 24.3903 36.6 24.6416 37.1489 25.1972C37.6979 25.7461 37.9426 26.348 37.9426 27.1152V36.2081C37.9426 36.7603 38.3903 37.2081 38.9426 37.2081H41.526C42.0783 37.2081 42.526 36.7603 42.526 36.2081V27.1152C42.526 26.348 42.7774 25.7461 43.3197 25.1972C43.5587 24.9349 43.8513 24.7271 44.1777 24.5878C44.5041 24.4486 44.8566 24.3812 45.2113 24.3903C45.9653 24.3903 46.5473 24.6416 47.0963 25.1972C47.6452 25.7461 47.8899 26.348 47.8899 27.1152L47.9197 36.1584C47.9215 36.7094 48.3687 37.1551 48.9197 37.1551H51.4853C52.0381 37.1551 52.486 36.7066 52.4853 36.1538L52.4734 27.1152C52.4734 25.1178 51.7458 23.3453 50.3371 21.9299C49.6739 21.2418 48.8772 20.6962 47.9959 20.3266C47.1145 19.957 46.167 19.7711 45.2113 19.7804C43.6181 19.7804 42.1914 20.2665 40.9759 21.1756C40.5401 21.5016 39.9259 21.4973 39.49 21.1715C39.0159 20.8171 38.4975 20.5236 37.947 20.2988C37.0934 19.9503 36.1793 19.7741 35.2574 19.7804Z" fill="url(#paint0_linear_60_198)"/>
<path d="M18.9341 16.984C18.9341 16.4317 19.3818 15.984 19.9341 15.984H22.2596C22.8119 15.984 23.2596 16.4317 23.2596 16.984V38.2068C23.2596 41.1764 25.2967 43.4913 27.6645 43.4913L31.5628 43.5071C32.1135 43.5093 32.5588 43.9564 32.5588 44.5071V47.0416C32.5588 47.5939 32.1111 48.0416 31.5588 48.0416H26.8642C24.8536 47.8234 23.0612 46.871 21.5731 45.3961C19.827 43.6632 18.9341 41.5137 18.9341 39.0666V16.984Z" fill="url(#paint1_linear_60_198)"/>
<path d="M30.1315 21.9299C31.5402 20.5079 33.2863 19.7804 35.2573 19.7804C36.1792 19.7741 37.0933 19.9503 37.9469 20.2988C38.4974 20.5236 39.0158 20.8171 39.4899 21.1715C39.9258 21.4973 40.54 21.5016 40.9758 21.1756C42.1913 20.2665 43.618 19.7804 45.2112 19.7804C46.1669 19.7711 47.1144 19.957 47.9958 20.3266C48.8771 20.6962 49.6738 21.2418 50.337 21.9299C51.7457 23.3453 52.4733 25.1178 52.4733 27.1152L52.4852 36.1538C52.4859 36.7066 52.038 37.1551 51.4852 37.1551H48.9196C48.3686 37.1551 47.9214 36.7094 47.9196 36.1584L47.8898 27.1152C47.8898 26.348 47.6451 25.7461 47.0962 25.1972C46.5472 24.6416 45.9652 24.3903 45.2112 24.3903C44.8565 24.3812 44.504 24.4486 44.1776 24.5878C43.8512 24.7271 43.5586 24.9349 43.3196 25.1972C42.7773 25.7461 42.5259 26.348 42.5259 27.1152V36.2081C42.5259 36.7603 42.0782 37.2081 41.5259 37.2081H38.9425C38.3902 37.2081 37.9425 36.7603 37.9425 36.2081V27.1152C37.9425 26.348 37.6978 25.7461 37.1488 25.1972C36.5999 24.6416 36.0245 24.3903 35.2573 24.3903C34.9026 24.3817 34.5502 24.4493 34.2239 24.5885C33.8976 24.7276 33.6049 24.9352 33.3657 25.1972C32.8233 25.7461 32.572 26.348 32.572 27.1152V36.2081C32.572 36.7603 32.1243 37.2081 31.572 37.2081H28.9952C28.4429 37.2081 27.9952 36.7603 27.9952 36.2081V27.1152C27.9857 26.1519 28.1699 25.1964 28.5369 24.3057C28.9039 23.4149 29.4461 22.607 30.1315 21.9299Z" fill="url(#paint2_linear_60_198)"/>
<path d="M18.9341 16.984C18.9341 16.4317 19.3818 15.984 19.9341 15.984H22.2596C22.8119 15.984 23.2596 16.4317 23.2596 16.984V38.2068C23.2596 41.1764 25.2967 43.4913 27.6645 43.4913L31.5628 43.5071C32.1135 43.5093 32.5588 43.9564 32.5588 44.5071V47.0416C32.5588 47.5939 32.1111 48.0416 31.5588 48.0416H26.8642C24.8536 47.8234 23.0612 46.871 21.5731 45.3961C19.827 43.6632 18.9341 41.5137 18.9341 39.0666V16.984Z" stroke="url(#paint3_linear_60_198)" stroke-width="2"/>
<path d="M30.1315 21.9299C31.5402 20.5079 33.2863 19.7804 35.2573 19.7804C36.1792 19.7741 37.0933 19.9503 37.9469 20.2988C38.4974 20.5236 39.0158 20.8171 39.4899 21.1715C39.9258 21.4973 40.54 21.5016 40.9758 21.1756C42.1913 20.2665 43.618 19.7804 45.2112 19.7804C46.1669 19.7711 47.1144 19.957 47.9958 20.3266C48.8771 20.6962 49.6738 21.2418 50.337 21.9299C51.7457 23.3453 52.4733 25.1178 52.4733 27.1152L52.4852 36.1538C52.4859 36.7066 52.038 37.1551 51.4852 37.1551H48.9196C48.3686 37.1551 47.9214 36.7094 47.9196 36.1584L47.8898 27.1152C47.8898 26.348 47.6451 25.7461 47.0962 25.1972C46.5472 24.6416 45.9652 24.3903 45.2112 24.3903C44.8565 24.3812 44.504 24.4486 44.1776 24.5878C43.8512 24.7271 43.5586 24.9349 43.3196 25.1972C42.7773 25.7461 42.5259 26.348 42.5259 27.1152V36.2081C42.5259 36.7603 42.0782 37.2081 41.5259 37.2081H38.9425C38.3902 37.2081 37.9425 36.7603 37.9425 36.2081V27.1152C37.9425 26.348 37.6978 25.7461 37.1488 25.1972C36.5999 24.6416 36.0245 24.3903 35.2573 24.3903C34.9026 24.3817 34.5502 24.4493 34.2239 24.5885C33.8976 24.7276 33.6049 24.9352 33.3657 25.1972C32.8233 25.7461 32.572 26.348 32.572 27.1152V36.2081C32.572 36.7603 32.1243 37.2081 31.572 37.2081H28.9952C28.4429 37.2081 27.9952 36.7603 27.9952 36.2081V27.1152C27.9857 26.1519 28.1699 25.1964 28.5369 24.3057C28.9039 23.4149 29.4461 22.607 30.1315 21.9299Z" stroke="url(#paint4_linear_60_198)" stroke-width="2"/>
<defs>
<linearGradient id="paint0_linear_60_198" x1="32" y1="57.1953" x2="32" y2="6.99572" gradientUnits="userSpaceOnUse">
<stop stop-color="#02AA93"/>
<stop offset="1" stop-color="#67FF80"/>
</linearGradient>
<linearGradient id="paint1_linear_60_198" x1="32" y1="57.1953" x2="32" y2="6.99572" gradientUnits="userSpaceOnUse">
<stop stop-color="#02AA93"/>
<stop offset="1" stop-color="#67FF80"/>
</linearGradient>
<linearGradient id="paint2_linear_60_198" x1="32" y1="57.1953" x2="32" y2="6.99572" gradientUnits="userSpaceOnUse">
<stop stop-color="#02AA93"/>
<stop offset="1" stop-color="#67FF80"/>
</linearGradient>
<linearGradient id="paint3_linear_60_198" x1="32" y1="57.1953" x2="32" y2="6.99572" gradientUnits="userSpaceOnUse">
<stop stop-color="#02AA93"/>
<stop offset="1" stop-color="#67FF80"/>
</linearGradient>
<linearGradient id="paint4_linear_60_198" x1="32" y1="57.1953" x2="32" y2="6.99572" gradientUnits="userSpaceOnUse">
<stop stop-color="#02AA93"/>
<stop offset="1" stop-color="#67FF80"/>
</linearGradient>
</defs>
</svg>
