<svg width="48" height="48" viewBox="0 0 48 48" fill="none" xmlns="http://www.w3.org/2000/svg">
<path d="M21.6739 3.44141L18.1628 4.38179L21.1571 12.0452L22.2378 12.6708C27.6231 11.5337 33.5264 14.7955 35.3206 20.0313C35.3482 20.1073 35.3665 20.1874 35.3941 20.2647L36.7384 21.0412L44.8727 19.8031L43.931 16.292L37.082 15.3044L34.3868 12.2642L36.484 6.05665L33.1461 4.12866L28.8219 9.04962L24.8413 8.23777L21.6739 3.44141ZM36.8656 26.9589L35.3757 27.8206C33.8674 31.9992 29.8829 35.2702 25.358 35.5129C24.3324 35.6165 23.3107 35.5522 22.3165 35.3594L21.2843 35.9549L18.2901 43.617L21.8024 44.5587L26.082 39.1197L30.0613 38.3065L34.3894 43.2288L37.7273 41.3008L35.6249 35.0945L38.3254 32.0517L44.0595 31.7067L44.9999 28.1957L36.8656 26.9589Z" fill="url(#paint0_linear_345_643)"/>
<path opacity="0.5" d="M8.1413 11.1468L10.7106 8.57617L15.8519 15.0015V16.3498C13.6236 18.8902 12.4524 22.3711 13.0531 25.7589C13.3456 27.9859 14.3712 30.0254 15.8519 31.6622V32.9921L10.7106 39.4187L8.1413 36.8468L10.7106 31.7068L9.42662 27.8521L3 26.5681V22.7121L9.42662 21.4268L10.7106 17.5721L8.1413 11.1468Z" fill="url(#paint1_linear_345_643)"/>
<defs>
<linearGradient id="paint0_linear_345_643" x1="40.0164" y1="37.1713" x2="17.5792" y2="20.3254" gradientUnits="userSpaceOnUse">
<stop stop-color="#248EFE"/>
<stop offset="1" stop-color="#1DF4FF"/>
</linearGradient>
<linearGradient id="paint1_linear_345_643" x1="13.4654" y1="33.8773" x2="-0.197338" y2="27.3284" gradientUnits="userSpaceOnUse">
<stop stop-color="#248EFE"/>
<stop offset="1" stop-color="#1DF4FF"/>
</linearGradient>
</defs>
</svg>
