<svg width="48" height="48" viewBox="0 0 48 48" fill="none" xmlns="http://www.w3.org/2000/svg">
<path opacity="0.5" d="M16.1248 37.1258H3V23.9999C3 20.5187 4.3829 17.1801 6.84448 14.7185C9.30606 12.2569 12.6447 10.874 16.1259 10.874C19.6069 10.8743 22.9452 12.2573 25.4066 14.7189C27.8679 17.1804 29.2507 20.5189 29.2507 23.9999C29.2507 27.4811 27.8678 30.8197 25.4062 33.2813C22.9446 35.7429 19.606 37.1258 16.1248 37.1258Z" fill="url(#paint0_linear_343_503)"/>
<path d="M31.8753 10.8751H45.0001V23.9999C45.0001 27.4811 43.6172 30.8197 41.1556 33.2813C38.694 35.7429 35.3554 37.1258 31.8742 37.1258C28.3934 37.1252 25.0553 35.7421 22.5942 33.2805C20.1331 30.819 18.7505 27.4807 18.7505 23.9999C18.7505 20.5187 20.1334 17.1801 22.595 14.7185C25.0565 12.2569 28.3952 10.874 31.8764 10.874L31.8753 10.8751Z" fill="url(#paint1_linear_343_503)"/>
<defs>
<linearGradient id="paint0_linear_343_503" x1="24.3761" y1="32.4092" x2="9.60329" y2="15.4167" gradientUnits="userSpaceOnUse">
<stop stop-color="#248EFE"/>
<stop offset="1" stop-color="#1DF4FF"/>
</linearGradient>
<linearGradient id="paint1_linear_343_503" x1="40.1257" y1="32.4092" x2="25.3528" y2="15.4173" gradientUnits="userSpaceOnUse">
<stop stop-color="#248EFE"/>
<stop offset="1" stop-color="#1DF4FF"/>
</linearGradient>
</defs>
</svg>
