<svg width="128" height="128" viewBox="0 0 128 128" fill="none" xmlns="http://www.w3.org/2000/svg">
<path opacity="0.4" d="M89.3958 63.5064C89.8759 63.0262 90.6848 63.1541 90.994 63.7587C95.8509 73.2569 100.7 82.5532 106.421 93.0766C106.898 93.9551 105.917 94.9502 105.017 94.5161C101.039 92.599 97.2761 91.3033 93.4537 90.2618C93.2613 90.2094 93.1575 90.4648 93.3313 90.5625V90.5625C95.3421 91.6932 98.4956 93.4667 100.655 94.9432C104.74 97.7353 108.524 100.785 112.084 103.712C112.183 103.794 112.266 103.894 112.327 104.006C114.972 108.87 117.643 113.815 120.338 118.834C120.814 119.722 119.825 120.682 118.949 120.185C104.066 111.749 89.6932 104.996 77.6663 102.592C77.1253 102.484 76.7676 101.965 76.8563 101.421C78.3846 92.0304 77.0936 85.1713 73.7775 80.3426C73.4944 79.9304 73.5302 79.372 73.8837 79.0184L89.3958 63.5064Z" fill="url(#paint0_linear_80_683)"/>
<path d="M57.6692 48.7972C54.5737 47.1737 51.6103 45.3428 49.266 43.5203C48.7522 43.121 47.9957 43.2773 47.7082 43.861C36.9519 65.7047 22.3367 92.3443 7.72227 118.834C7.23401 119.719 8.21671 120.691 9.09645 120.193C21.4426 113.208 35.9686 105.6 50.8268 102.525C51.3864 102.409 51.7414 101.855 51.6285 101.295C50.2232 94.3209 51.2846 85.3852 54.7654 79.859C60.0407 71.4829 67.5454 72.0801 72.4365 78.3297C72.4716 78.3744 72.5325 78.3916 72.5852 78.3705C72.6012 78.3641 72.6156 78.3545 72.6278 78.3424L89.1266 61.8435C89.4331 61.537 89.506 61.0655 89.3092 60.6793C78.7054 39.8714 70.4172 22.0254 64.9184 8.31873C64.5824 7.48123 63.395 7.47625 63.0533 8.31142L62.8031 8.92286C58.303 19.9221 53.9658 30.5229 50.2571 38.4984C50.0853 38.8679 50.1534 39.304 50.4328 39.6007C53.1493 42.4856 55.8687 44.9967 58.5935 47.2676C59.4952 48.019 58.7086 49.3423 57.6692 48.7972Z" fill="url(#paint1_linear_80_683)"/>
<defs>
<linearGradient id="paint0_linear_80_683" x1="80.4035" y1="113.234" x2="121.596" y2="79.439" gradientUnits="userSpaceOnUse">
<stop stop-color="#0072FF"/>
<stop offset="1" stop-color="#00E5A1"/>
</linearGradient>
<linearGradient id="paint1_linear_80_683" x1="18.249" y1="104.974" x2="96.0531" y2="48.8527" gradientUnits="userSpaceOnUse">
<stop stop-color="#0072FF"/>
<stop offset="1" stop-color="#00E5A1"/>
</linearGradient>
</defs>
</svg>
