<svg width="128" height="128" viewBox="0 0 128 128" fill="none" xmlns="http://www.w3.org/2000/svg">
<path opacity="0.4" fill-rule="evenodd" clip-rule="evenodd" d="M11.2851 92.9546C11.2613 92.9065 11.2377 92.8584 11.2141 92.8102C10.8215 92.009 10.4458 91.1975 10.0876 90.3761C9.61452 90.2782 9.21341 90.2002 8.8628 90.132C8.5584 90.0728 8.29206 90.021 8.04975 89.9701C7.28521 89.8093 6.75986 89.6571 6.03275 89.308C4.72937 88.6341 4.72598 86.7713 6.02689 86.0926L8.05253 85.0358C6.07334 79.0022 5 72.5362 5 65.8109C5 32.7782 30.8941 6 62.8361 6C94.7781 6 120.672 32.7782 120.672 65.8109L122.662 67.8688C123.421 68.6536 123.449 69.8586 122.798 70.6747C122.764 70.717 122.73 70.7591 122.696 70.8011C122.532 71.0025 122.367 71.2046 122.253 71.4371L120.672 74.6599C120.466 76.5002 120.038 77.6125 119.563 78.8459C119.255 79.6444 118.928 80.4936 118.629 81.6239C111.979 106.777 90.0701 106.776 63.7102 106.774H63.1314C63.0848 106.774 63.0662 106.774 63.0197 106.776C61.5534 106.87 21.6163 109.317 15.2636 99.8353C13.7951 97.6436 12.4646 95.3456 11.2851 92.9546Z" fill="url(#paint0_linear_80_406)"/>
<path fill-rule="evenodd" clip-rule="evenodd" d="M46.8789 22.1373C46.4243 21.3381 45.2014 21.4973 44.9671 22.3864C39.7437 42.2038 27.0366 65.7174 18.5385 81.4428L18.449 81.6084C18.1389 82.1823 18.4525 82.8947 19.0853 83.0536L25.6523 84.7026C30.5831 85.4406 36.6553 86.1693 42.5506 86.811C51.7636 87.814 59.3895 88.6184 62.4468 88.9202C63.0591 88.9807 63.5712 88.4764 63.5294 87.8625C63.4082 86.0844 63.1872 82.7535 62.9175 78.6887L62.9174 78.6866L62.917 78.6808C62.1583 67.2466 61.0148 50.0122 60.625 45.1933C60.6141 45.0592 60.5764 44.937 60.5135 44.8179C57.655 39.4098 55.078 35.3664 52.5322 31.3722L52.5322 31.3722L52.5321 31.372C50.6638 28.4406 48.8123 25.5357 46.8789 22.1373ZM67.969 49.323C67.1827 48.6075 66.0222 49.4814 66.4111 50.4708C71.7724 64.1083 71.6954 77.3626 68.2165 87.6298C67.9929 88.2896 68.4729 88.9883 69.1695 88.9987C69.2621 89.0001 69.3554 89.0015 69.4494 89.0029L69.451 89.003C75.4128 89.0932 84.1696 89.2257 93.6434 84.6703C94.1172 84.4425 94.3225 83.8808 94.1096 83.4001C87.3165 68.065 74.1139 54.9141 67.969 49.323ZM79.7833 57.922L79.78 57.9198V57.9198C79.55 57.7703 79.7072 57.419 79.9716 57.492C83.4371 58.4487 87.2333 59.6002 90.8618 60.8527C98.0158 63.3222 104.687 66.6729 108.781 70.0992C109.139 70.399 109.224 70.911 108.987 71.3132C106.861 74.9084 103.481 78.9793 98.6292 81.793C97.9494 82.1873 97.1319 81.6267 97.1419 80.8409C97.2121 75.3195 94.9356 70.0925 90.8618 66.1126C87.8352 63.1558 83.9311 60.6181 79.7833 57.922ZM15.9719 99.545C15.9899 99.4876 15.9497 99.4286 15.8897 99.4239C15.8797 99.4231 15.8697 99.4224 15.8597 99.4216C15.8267 99.419 15.7964 99.4028 15.7761 99.3768C15.1218 98.541 14.49 97.688 13.8814 96.8187C13.4044 96.1374 13.9449 95.2265 14.7739 95.2927C34.9718 96.9066 57.7437 97.591 77.0331 94.8104C93.4696 92.4409 108.268 87.5131 117.722 78.8576C118.49 78.1549 119.784 78.8688 119.48 79.864C119.039 81.3036 118.544 82.7265 117.995 84.1295C117.992 84.1367 117.988 84.143 117.982 84.1478V84.1478C117.976 84.1526 117.971 84.1589 117.968 84.1661C114.353 93.393 108.491 101.582 100.903 107.984C92.8819 114.751 83.2168 119.28 72.8844 121.114C72.7296 121.143 72.5631 121.165 72.397 121.188L72.3964 121.188C72.27 121.205 72.1437 121.222 72.0228 121.242C70.561 121.476 69.0911 121.654 67.616 121.778C66.832 121.842 66.0395 121.898 65.2234 121.935C64.6493 121.963 64.0749 121.982 63.5003 121.993C63.1445 122.001 62.7801 122.001 62.4161 122C62.263 121.999 62.1099 121.999 61.9576 121.999C53.1076 121.913 44.3877 119.858 36.431 115.983C28.4892 112.114 21.5067 106.529 15.9882 99.6318C15.9687 99.6074 15.9626 99.5748 15.9719 99.545V99.545Z" fill="url(#paint1_linear_80_406)"/>
<defs>
<linearGradient id="paint0_linear_80_406" x1="64.1303" y1="107.127" x2="64.1303" y2="6" gradientUnits="userSpaceOnUse">
<stop stop-color="#5570FF"/>
<stop offset="1" stop-color="#4DD3FF"/>
</linearGradient>
<linearGradient id="paint1_linear_80_406" x1="66.6292" y1="122" x2="66.6292" y2="19.8384" gradientUnits="userSpaceOnUse">
<stop stop-color="#5570FF"/>
<stop offset="1" stop-color="#4DD3FF"/>
</linearGradient>
</defs>
</svg>
