<svg width="64" height="64" viewBox="0 0 64 64" fill="none" xmlns="http://www.w3.org/2000/svg">
<path opacity="0.4" d="M52.597 31.9396C52.4631 33.5458 50.2822 36.3882 49.235 35.404C51.4081 32.5695 50.4948 28.806 49.3295 25.7274C47.7233 21.4914 46.495 16.7043 43.0622 13.6494C39.897 10.8228 35.2752 12.2873 31.4959 13.2242C27.4647 14.2321 22.8666 10.8464 19.1581 13.4211C16.0874 15.5548 16.552 19.8616 15.5127 23.1606C14.434 26.5463 18.1976 28.7902 20.9848 29.7508C24.5279 30.9712 28.7481 30.5775 31.7243 32.9789C33.362 34.3174 34.4958 36.9944 34.4958 39.4982C27.0002 39.4982 19.3471 36.459 14.6072 31.8373C13.0168 30.2389 15.0324 26.995 11.4893 26.995C8.49737 26.995 5.52905 26.8376 3.32446 28.6721C1.07263 30.546 1.96234 34.1442 3.97796 36.0968C10.5445 42.4901 18.8432 46.6316 27.3623 49.4346C36.2122 52.3478 46.2588 53.3163 54.9905 49.4582C58.9824 47.6867 62.8168 43.4586 61.8484 38.7896C60.9823 34.5772 56.3369 32.8057 52.597 31.9396ZM33.173 15.1375C35.5587 13.5392 39.7946 12.744 41.637 14.9407C43.8101 17.5389 37.9444 18.8774 36.1256 17.5626C37.1491 17.3106 39.3301 15.3029 36.8342 15.0666C35.5508 14.9092 34.2517 15.0588 33.173 15.1375ZM28.6457 22.1843C25.6302 21.8458 22.9925 25.3416 20.1738 22.5465C18.5597 20.9482 18.7802 17.1925 21.4178 19.2947C24.0397 21.3812 28.5985 17.7358 30.5511 20.8379C31.2755 21.9717 29.5906 22.2945 28.6457 22.1843Z" fill="url(#paint0_linear_114_279)"/>
<path fill-rule="evenodd" clip-rule="evenodd" d="M52.6441 31.9506C52.6284 31.9469 52.6127 31.9432 52.597 31.9396C52.5917 32.0031 52.5832 32.0685 52.5717 32.1355C52.5964 32.0742 52.6205 32.0126 52.6441 31.9506ZM50.216 35.4892C49.85 35.6571 49.5048 35.6576 49.235 35.404C51.4081 32.5695 50.4948 28.806 49.3295 25.7274C49.0579 25.0111 48.7971 24.279 48.5346 23.5423C47.2448 19.922 45.9145 16.1877 43.0622 13.6494C40.1314 11.0321 35.9517 12.094 32.3484 13.0094C32.0602 13.0826 31.7757 13.1548 31.4959 13.2242C29.7812 13.6529 27.9639 13.2867 26.1561 12.9224C23.7139 12.4302 21.2891 11.9416 19.1581 13.4211C17.0091 14.9144 16.5916 17.472 16.1783 20.0036C16.0011 21.0894 15.8246 22.1704 15.5127 23.1606C14.434 26.5463 18.1976 28.7902 20.9848 29.7508C22.2786 30.1964 23.6626 30.4269 25.0434 30.6567C27.4441 31.0564 29.8349 31.4544 31.7243 32.9789C33.3544 34.3112 34.4853 36.9697 34.4957 39.4635C34.9962 39.491 35.498 39.505 36 39.505C43.2985 39.0605 47.6621 37.7364 50.216 35.4892ZM41.637 14.9407C39.7946 12.744 35.5587 13.5392 33.173 15.1375C33.3329 15.1258 33.4976 15.1126 33.6664 15.0991C34.6365 15.0212 35.741 14.9325 36.8342 15.0666C39.3301 15.3029 37.1491 17.3106 36.1256 17.5626C37.9444 18.8774 43.8101 17.5389 41.637 14.9407ZM25.2984 22.9207C26.3794 22.4921 27.4845 22.054 28.6457 22.1843C29.5906 22.2945 31.2755 21.9717 30.5511 20.8379C29.4993 19.1669 27.6912 19.4538 25.8371 19.748C24.2491 20 22.6273 20.2573 21.4178 19.2947C18.7802 17.1925 18.5597 20.9482 20.1738 22.5465C21.9071 24.2653 23.572 23.6052 25.2984 22.9207Z" fill="url(#paint1_linear_114_279)"/>
<defs>
<linearGradient id="paint0_linear_114_279" x1="32" y1="51.9991" x2="32" y2="12" gradientUnits="userSpaceOnUse">
<stop stop-color="#E80058"/>
<stop offset="0.9997" stop-color="#FF001D"/>
<stop offset="0.9998" stop-color="#FF867E"/>
</linearGradient>
<linearGradient id="paint1_linear_114_279" x1="33.9838" y1="39.505" x2="33.9838" y2="12" gradientUnits="userSpaceOnUse">
<stop stop-color="#E80058"/>
<stop offset="0.9997" stop-color="#FF001D"/>
<stop offset="0.9998" stop-color="#FF867E"/>
</linearGradient>
</defs>
</svg>
