<svg width="64" height="64" viewBox="0 0 64 64" fill="none" xmlns="http://www.w3.org/2000/svg">
<path opacity="0.3" d="M32 60C47.464 60 60 47.464 60 32C60 16.536 47.464 4 32 4C16.536 4 4 16.536 4 32C4 47.464 16.536 60 32 60Z" fill="url(#paint0_linear_226_228)"/>
<path fill-rule="evenodd" clip-rule="evenodd" d="M15.6129 17.0304C15.5952 17.69 14.9548 18.1518 14.3218 17.9656C12.6631 17.4777 10.9177 16.9941 9.26186 16.583C8.86167 16.4837 8.44121 16.643 8.21527 16.988C5.54997 21.0566 4 25.9217 4 31.1488C4 38.4189 6.99825 46.8982 11.8258 51.6863C12.04 51.8987 12.3438 51.9981 12.6314 51.907C14.1655 51.4212 16.5972 49.7008 19.3506 50.0169C23.8079 50.5226 26.2505 50.6937 29.1833 50.4759C35.8732 49.9703 40.2917 48.8656 45.1926 46.4697C47.7596 45.225 48.3042 44.6572 48.8487 43.1558C49.3855 41.7322 49.5799 40.4098 49.3155 40.4098C49.2143 40.4098 48.3742 40.7366 47.3707 41.211C43.5978 43.0002 40.2917 43.8793 37.4135 43.7314C34.4342 43.5758 29.6188 41.8333 23.8158 39.0407L21.4324 37.9469C21.1996 37.8401 21.0166 37.648 20.9213 37.4102L19.869 34.7855C19.6016 34.1185 20.3488 33.5019 20.953 33.8909C24.7177 36.2935 28.7481 38.2513 32.9639 39.7252C37.9581 41.3044 41.8553 41.0866 45.8771 39.0407C47.3007 38.3172 50 36.5514 50 36.2947C50 35.828 48.6153 31.1917 47.8219 29.0913C45.846 23.8482 44.4536 22.0746 41.1941 20.5188C37.5691 18.7918 33.5551 17.6172 26.2116 15.9447L25.6805 15.8313C22.7196 15.1989 19.7865 14.5724 16.7867 14.1457C16.202 14.0625 15.6806 14.5111 15.6648 15.1015L15.6129 17.0304ZM39.7825 25.261C38.8074 24.4922 37.5991 24.0798 36.3576 24.092C36.354 24.0921 36.3506 24.0935 36.3481 24.096C36.3456 24.0985 36.3423 24.0999 36.3388 24.1C34.9842 24.1394 33.6887 24.6637 32.6882 25.5779C31.0389 27.0714 30.5955 29.8097 31.5446 31.8711C31.9054 32.6768 32.4601 33.3804 33.1592 33.9193C33.8583 34.4582 34.68 34.8155 35.5508 34.9595C36.6859 35.177 37.8612 35.0144 38.8947 34.4969C39.9283 33.9795 40.7625 33.136 41.2684 32.0967C41.9608 30.6577 42.0697 29.6852 41.7196 28.3239C41.4426 27.1117 40.759 26.0309 39.7825 25.261ZM35.5508 29.3506C34.4929 28.3549 35.6909 26.9546 37.6045 26.9546C38.5379 26.9546 39.6426 27.4215 39.7827 27.9893C39.9693 28.7438 39.7204 29.3196 38.9736 29.7007C37.8379 30.2841 36.4065 30.1597 35.5508 29.3506Z" fill="url(#paint1_linear_226_228)"/>
<defs>
<linearGradient id="paint0_linear_226_228" x1="35.9077" y1="55.7771" x2="27.4858" y2="5.49468" gradientUnits="userSpaceOnUse">
<stop stop-color="#37CE90"/>
<stop offset="1" stop-color="#9FF66A"/>
</linearGradient>
<linearGradient id="paint1_linear_226_228" x1="30.2099" y1="49.15" x2="25.4435" y2="14.7168" gradientUnits="userSpaceOnUse">
<stop stop-color="#37CE90"/>
<stop offset="1" stop-color="#9FF66A"/>
</linearGradient>
</defs>
</svg>
