<svg width="48" height="48" viewBox="0 0 48 48" fill="none" xmlns="http://www.w3.org/2000/svg">
<path opacity="0.4" fill-rule="evenodd" clip-rule="evenodd" d="M2 24C2 11.8497 11.8497 2 24 2C36.1503 2 46 11.8497 46 24C46 36.1503 36.1503 46 24 46C11.8497 46 2 36.1503 2 24Z" fill="url(#paint0_linear_69_351)"/>
<path fill-rule="evenodd" clip-rule="evenodd" d="M28.4941 7.00065C28.0935 7.00598 27.6776 7.04377 27.1812 7.14213C26.2778 7.32111 25.3362 7.86768 24.5406 8.4218C21.8391 10.3032 21.1254 13.9801 22.9411 16.6362C24.46 18.8581 27.2995 19.6361 29.7758 18.7859C30.2985 18.6064 30.5079 18.5874 30.9131 18.5536C31.4358 18.51 32.2772 18.5746 33.0311 18.9464C33.6444 19.2489 34.1689 19.5127 34.5093 20.2156C34.5979 20.3984 34.7538 20.7236 34.7873 21.1341C34.8284 21.6392 34.7601 21.9442 34.5276 22.4392C34.474 22.5533 34.6188 22.6742 34.7203 22.5993V22.5993C35.1609 22.2741 35.5378 21.996 36.3177 21.0475C38.3526 18.573 38.459 14.4389 36.2425 11.1965C34.5994 8.79305 32.0839 7.25821 29.713 7.05978C29.2795 7.02349 28.8949 6.99532 28.4941 7.00065ZM14.1474 14.4387C11.3535 14.5006 8.4374 16.3686 6.98529 19.4298C5.75509 22.0233 5.69523 24.9396 6.70304 27.0751C7.07163 27.8562 7.37106 28.4537 8.03127 29.2106C8.63197 29.8993 9.56384 30.4405 10.4304 30.8522C13.3716 32.2496 16.8542 31.0568 18.2146 28.1927C18.2149 28.192 18.215 28.1914 18.215 28.1907V28.1907C18.215 28.19 18.2152 28.1893 18.2155 28.1886C19.3508 25.7917 18.6063 22.9683 16.6544 21.2581C16.2422 20.8969 16.1226 20.7266 15.8927 20.3948C15.5962 19.9669 15.2324 19.2124 15.1747 18.3818C15.1277 17.7058 15.0899 17.1248 15.5191 16.487C15.6309 16.321 15.8318 16.0285 16.1646 15.798C16.5728 15.5154 16.865 15.4236 17.3981 15.3799C17.5232 15.3696 17.5561 15.1846 17.4414 15.1338V15.1338C16.9477 14.9152 16.5246 14.7278 15.3324 14.5237C14.9428 14.4571 14.5464 14.4298 14.1474 14.4387ZM30.6553 27.206C30.6553 27.2066 30.6558 27.207 30.6563 27.207C30.8511 27.1914 31.0436 27.1845 31.2349 27.1889C34.1074 27.2543 36.5292 29.516 36.7702 32.486C36.8459 33.4189 36.8432 34.4712 36.5511 35.3148C36.23 36.2418 35.8674 36.7868 35.3817 37.4794C34.054 39.3727 31.5311 40.7445 28.7078 40.9703C24.8992 41.2748 21.4792 39.2021 20.3976 36.3089C19.984 35.2026 19.9356 34.7547 19.8791 34.2317V34.2317C19.8658 34.109 20.0393 34.0456 20.11 34.1467C20.4103 34.576 20.6323 34.7775 21.0755 34.9846C21.4366 35.1534 21.7857 35.1798 21.9826 35.1932C22.7396 35.2447 23.2181 34.9309 23.7725 34.5614C24.454 34.1074 24.9211 33.4312 25.1405 32.9718C25.3106 32.6157 25.3976 32.4312 25.5029 31.9068C26.0016 29.4225 28.0448 27.4141 30.6542 27.205C30.6548 27.205 30.6553 27.2054 30.6553 27.206V27.206Z" fill="url(#paint1_linear_69_351)"/>
<defs>
<linearGradient id="paint0_linear_69_351" x1="22.0866" y1="44.8182" x2="27.0577" y2="5.05973" gradientUnits="userSpaceOnUse">
<stop stop-color="#8D01A2"/>
<stop offset="1" stop-color="#FF33DB"/>
</linearGradient>
<linearGradient id="paint1_linear_69_351" x1="27.5728" y1="40.629" x2="28.8473" y2="28.0824" gradientUnits="userSpaceOnUse">
<stop stop-color="#8D01A2"/>
<stop offset="1" stop-color="#FF33DB"/>
</linearGradient>
</defs>
</svg>
