<svg width="128" height="128" viewBox="0 0 128 128" fill="none" xmlns="http://www.w3.org/2000/svg">
<circle opacity="0.4" cx="64" cy="64" r="58" fill="url(#paint0_linear_54_1024)"/>
<path d="M61.6685 21.4412C61.8135 21.2941 61.9947 21.1838 62.2122 21.1103C62.4297 21.0367 62.6834 21 62.9734 21C63.2634 21 63.5534 21 63.8434 21C64.1333 21 64.4234 21 64.7134 21C65.0033 21 65.2933 21 65.5833 21C65.8733 21 66.1633 21 66.4529 21C66.7429 21 67.033 21 67.323 21C67.613 21 67.9031 21 68.1926 21C68.4826 21 68.7726 21 69.0627 21C69.3527 21 69.6428 21 69.9328 21C70.2228 21 70.5129 21 70.8029 21C71.0929 21 71.3824 21 71.6725 21C71.9625 21 72.2166 21.0367 72.4338 21.1103C72.6514 21.1838 72.8326 21.2941 72.9774 21.4412C73.1227 21.5882 73.3039 21.6985 73.5215 21.7721C73.7387 21.8456 73.9928 21.8824 74.2828 21.8824C74.5723 21.8824 74.8623 21.8824 75.1524 21.8824C75.4424 21.8824 75.7325 21.8824 76.0225 21.8824C76.3125 21.8824 76.5661 21.9191 76.7838 21.9927C77.0014 22.0662 77.1826 22.1765 77.3274 22.3235C77.4721 22.4706 77.6539 22.5808 77.871 22.6544C78.0887 22.7279 78.3423 22.7647 78.6323 22.7647C78.9223 22.7647 79.1759 22.8014 79.3936 22.875C79.6112 22.9485 79.7924 23.0588 79.9372 23.2059C80.0825 23.353 80.2637 23.4632 80.4808 23.5368C80.6985 23.6103 80.9161 23.6838 81.1333 23.7573C81.3509 23.8309 81.5321 23.9411 81.6774 24.0882C81.8222 24.2353 82.0034 24.3456 82.221 24.4191C82.4387 24.4926 82.6558 24.5662 82.8735 24.6397C83.0911 24.7132 83.2724 24.8235 83.4171 24.9706C83.5624 25.1176 83.7436 25.2279 83.9607 25.3014C84.1784 25.375 84.3966 25.4485 84.6137 25.522C84.8314 25.5955 85.0126 25.7059 85.1579 25.8529C85.3026 26 85.4833 26.1103 85.7009 26.1838C85.9181 26.2574 86.1363 26.3309 86.3539 26.4044C86.5711 26.4779 86.7523 26.5882 86.897 26.7353C87.0418 26.8823 87.1871 27.0294 87.3318 27.1764C87.4771 27.3235 87.6218 27.4706 87.7671 27.6177C87.9119 27.7647 88.0936 27.875 88.3113 27.9485C88.529 28.022 88.7455 28.0956 88.9632 28.1691C89.1809 28.2426 89.3621 28.3529 89.5068 28.5C89.6521 28.647 89.7968 28.7941 89.9416 28.9412C90.0869 29.0882 90.2316 29.2353 90.3769 29.3824C90.5217 29.5294 90.667 29.6764 90.8117 29.8235C90.957 29.9706 91.1017 30.1176 91.247 30.2647C91.3918 30.4118 91.5365 30.5588 91.6818 30.7059C91.8266 30.8529 91.9719 31 92.1166 31.147C92.2619 31.2941 92.4066 31.4411 92.5519 31.5882C92.6967 31.7353 92.8425 31.8824 92.9873 32.0294C93.132 32.1765 93.2768 32.3235 93.4215 32.4706C93.5668 32.6176 93.7121 32.7647 93.8574 32.9117C94.0021 33.0588 94.1469 33.2059 94.2916 33.3529C94.4369 33.5 94.5452 33.6838 94.6181 33.9044C94.6905 34.125 94.7629 34.3456 94.8352 34.5662C94.9082 34.7868 95.0164 34.9706 95.1617 35.1176C95.3065 35.2647 95.4518 35.4117 95.5965 35.5588C95.7418 35.7058 95.8866 35.8529 96.0318 36C96.1766 36.1471 96.2854 36.3309 96.3578 36.5515C96.4302 36.772 96.5031 36.9926 96.5755 37.2132C96.6478 37.4338 96.7572 37.6176 96.902 37.7647C97.0473 37.9118 97.1915 38.0588 97.3367 38.2059C97.4815 38.3529 97.6273 38.5 97.7721 38.647C97.9168 38.7941 98.0251 38.9779 98.098 39.1985C98.1704 39.4191 98.2428 39.6397 98.3152 39.8603C98.3875 40.0808 98.4969 40.2647 98.6422 40.4117C98.7869 40.5588 98.8958 40.7427 98.9681 40.9632C99.0405 41.1838 99.0764 41.4411 99.0764 41.7353C99.0764 42.0294 99.1129 42.2868 99.1853 42.5073C99.2576 42.7279 99.3665 42.9117 99.5112 43.0588C99.6565 43.2059 99.7653 43.3897 99.8383 43.6103C99.9106 43.8309 99.9465 44.0882 99.9465 44.3823C99.9465 44.6764 99.9825 44.9338 100.055 45.1544C100.128 45.375 100.237 45.5588 100.381 45.7058C100.527 45.8529 100.635 46.0367 100.708 46.2573C100.78 46.4779 100.817 46.7353 100.817 47.0294C100.817 47.3235 100.817 47.6176 100.817 47.9118C100.817 48.2059 100.853 48.4632 100.925 48.6838C100.998 48.9044 101.106 49.0882 101.251 49.2353C101.396 49.3824 101.505 49.5662 101.577 49.7867C101.65 50.0073 101.687 50.2647 101.687 50.5588C101.687 50.853 101.687 51.1471 101.687 51.4411C101.687 51.7353 101.687 52.0294 101.687 52.3235C101.687 52.6176 101.687 52.9117 101.687 53.2058C101.687 53.5 101.687 53.7941 101.687 54.0882C101.687 54.3823 101.687 54.6764 101.687 54.9706C101.687 55.2647 101.687 55.5588 101.687 55.8529C101.687 56.147 101.687 56.4412 101.687 56.7353C101.687 57.0294 101.687 57.3235 101.687 57.6176C101.687 57.9118 101.687 58.2059 101.687 58.5C101.687 58.7941 101.687 59.0882 101.687 59.3823C101.687 59.6765 101.65 59.9338 101.577 60.1544C101.505 60.375 101.396 60.5588 101.251 60.7059C101.106 60.8529 100.998 61.0368 100.925 61.2574C100.853 61.4779 100.817 61.7353 100.817 62.0294C100.817 62.3235 100.817 62.6176 100.817 62.9117C100.817 63.2058 100.78 63.4632 100.708 63.6838C100.635 63.9044 100.527 64.0882 100.381 64.2353C100.237 64.3823 100.128 64.5661 100.055 64.7867C99.9825 65.0073 99.9465 65.2647 99.9465 65.5588C99.9465 65.8529 99.9106 66.11 99.8383 66.3309C99.7653 66.5513 99.6565 66.7352 99.5112 66.8821C99.3665 67.0296 99.2576 67.213 99.1853 67.4339C99.1129 67.6543 99.0405 67.8747 98.9681 68.0956C98.8958 68.316 98.7869 68.4999 98.6422 68.6469C98.4969 68.7938 98.3875 68.9777 98.3152 69.1986C98.2428 69.419 98.1704 69.6394 98.098 69.8603C98.0251 70.0807 97.9168 70.2646 97.7721 70.4116C97.6273 70.5585 97.4815 70.706 97.3367 70.8529C97.1915 70.9998 97.0473 71.1467 96.902 71.2942C96.7572 71.4411 96.6478 71.625 96.5755 71.8454C96.5031 72.0664 96.4302 72.2867 96.3578 72.5071C96.2854 72.7281 96.1766 72.9114 96.0318 73.0589C95.8866 73.2058 95.7418 73.3528 95.5965 73.4997C95.4518 73.6471 95.3065 73.7941 95.1617 73.941C95.0164 74.0879 94.8717 74.2354 94.7264 74.3823C94.5817 74.5292 94.4369 74.6762 94.2916 74.8236C94.1469 74.9705 94.0021 75.1175 93.8574 75.2644C93.7121 75.4119 93.5668 75.5588 93.4215 75.7057C93.2768 75.8526 93.132 76.0001 92.9873 76.147C92.8425 76.2939 92.6967 76.4409 92.5519 76.5883C92.4066 76.7353 92.2619 76.8822 92.1166 77.0291C91.9719 77.1766 91.8266 77.3235 91.6818 77.4704C91.5365 77.6174 91.3918 77.7648 91.247 77.9117C91.1017 78.0587 90.957 78.2056 90.8117 78.3531C90.667 78.5 90.5217 78.6469 90.3769 78.7938C90.2316 78.9413 90.0504 79.0512 89.8333 79.1247C89.6156 79.1987 89.3985 79.2721 89.1814 79.3456C88.9637 79.4191 88.7825 79.5295 88.6372 79.6765C88.4925 79.8234 88.3107 79.9338 88.0931 80.0073C87.876 80.0808 87.6588 80.1542 87.4412 80.2277C87.2235 80.3011 87.0418 80.4116 86.897 80.5585C86.7523 80.706 86.5711 80.8159 86.3539 80.8894C86.1363 80.9634 85.9181 81.0369 85.7009 81.1103C85.4833 81.1838 85.3026 81.2942 85.1579 81.4412C85.0126 81.5881 84.8314 81.6986 84.6137 81.772C84.3966 81.8455 84.1425 81.8825 83.8524 81.8825C83.5629 81.8825 83.3083 81.9189 83.0912 81.9924C82.8735 82.0659 82.6923 82.1763 82.547 82.3233C82.4022 82.4707 82.221 82.5806 82.0034 82.6541C81.7857 82.7281 81.5321 82.7646 81.2421 82.7646C80.9521 82.7646 80.6985 82.8016 80.4808 82.875C80.2637 82.9485 80.0825 83.059 79.9372 83.2059C79.7924 83.3528 79.6112 83.4633 79.3936 83.5367C79.1759 83.6102 78.9223 83.6472 78.6323 83.6472C78.3423 83.6472 78.0522 83.6472 77.7622 83.6472C77.4721 83.6472 77.1826 83.6472 76.8926 83.6472C76.6026 83.6472 76.3125 83.6472 76.0225 83.6472C75.7325 83.6472 75.4424 83.6472 75.1524 83.6472C74.8623 83.6472 74.5723 83.6472 74.2828 83.6472C73.9928 83.6472 73.7027 83.6472 73.4127 83.6472C73.1227 83.6472 72.8326 83.6472 72.5426 83.6472C72.2525 83.6472 71.9625 83.6472 71.6725 83.6472C71.3824 83.6472 71.0929 83.6472 70.8029 83.6472C70.5129 83.6472 70.2587 83.6102 70.0416 83.5367C69.824 83.4633 69.6428 83.3528 69.498 83.2059C69.3527 83.059 69.1715 82.9485 68.9538 82.875C68.7367 82.8016 68.4826 82.7646 68.1926 82.7646C67.9031 82.7646 67.613 82.7646 67.323 82.7646C67.033 82.7646 66.7794 82.7281 66.5617 82.6541C66.3445 82.5806 66.1633 82.4707 66.0183 82.3233C65.8733 82.1763 65.692 82.0659 65.4745 81.9924C65.2571 81.9189 65.0396 81.8455 64.8221 81.772C64.6046 81.6986 64.4234 81.5881 64.2784 81.4412C64.1334 81.2942 63.9521 81.1838 63.7346 81.1103C63.5171 81.0369 63.2996 80.9634 63.0822 80.8894C62.8647 80.8159 62.6834 80.706 62.5385 80.5585C62.3934 80.4116 62.2122 80.3011 61.9947 80.2277C61.7772 80.1542 61.5597 80.0808 61.3422 80.0073C61.1247 79.9338 60.9435 79.8234 60.7985 79.6765C60.6535 79.5295 60.5085 79.3821 60.3636 79.2351C60.2185 79.0882 60.0736 78.9413 59.9286 78.7938C59.7835 78.6469 59.6386 78.5 59.4935 78.3531C59.3486 78.2056 59.2036 78.0587 59.0586 77.9117C58.9136 77.7648 58.7686 77.6174 58.6236 77.4704C58.4786 77.3235 58.3336 77.1766 58.1887 77.0291C58.0436 76.8822 57.8986 76.7353 57.7536 76.5883C57.6086 76.4409 57.4637 76.2939 57.3186 76.147C57.1737 76.0001 57.0287 75.8526 56.8837 75.7057C56.7387 75.5588 56.5937 75.4119 56.4487 75.2644C56.3037 75.1175 56.1587 74.9705 56.0137 74.8236C55.8687 74.6762 55.7237 74.5292 55.5787 74.3823C55.4337 74.2354 55.2888 74.0879 55.1437 73.941C54.9988 73.7941 54.89 73.6101 54.8175 73.3898C54.745 73.1688 54.6726 72.9484 54.6 72.7281C54.5275 72.5071 54.4188 72.3232 54.2738 72.1763C54.1288 72.0294 53.9838 71.8824 53.8388 71.735C53.6938 71.588 53.5488 71.4411 53.4038 71.2942C53.2588 71.1467 53.1501 70.9633 53.0776 70.7424C53.0051 70.522 52.9688 70.2646 52.9688 69.9703C52.9688 69.6764 52.9326 69.419 52.8601 69.1986C52.7876 68.9777 52.6789 68.7938 52.5339 68.6469C52.3889 68.4999 52.2802 68.316 52.2076 68.0956C52.1351 67.8747 52.0989 67.6173 52.0989 67.3235C52.0989 67.0291 52.0627 66.7722 51.9902 66.5513C51.9176 66.3309 51.8089 66.147 51.6639 66C51.5189 65.8529 51.4101 65.6691 51.3377 65.4485C51.2652 65.2279 51.2289 64.9706 51.2289 64.6764C51.2289 64.3823 51.2289 64.0882 51.2289 63.7941C51.2289 63.5 51.2289 63.2058 51.2289 62.9117C51.2289 62.6176 51.2289 62.3235 51.2289 62.0294C51.2289 61.7353 51.2289 61.4412 51.2289 61.1471C51.2289 60.8529 51.2289 60.5588 51.2289 60.2647C51.2289 59.9706 51.2289 59.6765 51.2289 59.3823C51.2289 59.0882 51.2289 58.7941 51.2289 58.5C51.2289 58.2059 51.2289 57.9118 51.2289 57.6176C51.2289 57.3235 51.2289 57.0294 51.2289 56.7353C51.2289 56.4412 51.2652 56.1838 51.3377 55.9632C51.4101 55.7426 51.5189 55.5588 51.6639 55.4118C51.8089 55.2647 51.9176 55.0809 51.9902 54.8603C52.0627 54.6397 52.0989 54.3823 52.0989 54.0882C52.0989 53.7941 52.1351 53.5367 52.2076 53.3161C52.2802 53.0955 52.3889 52.9117 52.5339 52.7647C52.6789 52.6176 52.7876 52.4338 52.8601 52.2132C52.9326 51.9926 53.0051 51.772 53.0776 51.5514C53.1501 51.3309 53.2588 51.147 53.4038 51C53.5488 50.8529 53.6938 50.7059 53.8388 50.5588C53.9838 50.4117 54.1288 50.2647 54.2738 50.1176C54.4188 49.9706 54.5275 49.7868 54.6 49.5662C54.6726 49.3456 54.745 49.125 54.8175 48.9044C54.89 48.6838 54.9988 48.5 55.1437 48.3529C55.2888 48.2059 55.4337 48.0588 55.5787 47.9118C55.7237 47.7647 55.8687 47.6176 56.0137 47.4706C56.1587 47.3235 56.3037 47.1764 56.4487 47.0294C56.5937 46.8823 56.7387 46.7353 56.8837 46.5882C57.0287 46.4412 57.1737 46.2941 57.3186 46.147C57.4637 46 57.6086 45.8529 57.7536 45.7058C57.8986 45.5588 58.0436 45.4118 58.1887 45.2647C58.3336 45.1177 58.5149 45.0074 58.7324 44.9338C58.9498 44.8603 59.1673 44.7867 59.3848 44.7132C59.6023 44.6397 59.7835 44.5294 59.9286 44.3823C60.0736 44.2353 60.2185 44.0882 60.3636 43.9412C60.5085 43.7941 60.6535 43.6471 60.7985 43.5C60.9435 43.3529 61.1247 43.2426 61.3422 43.1691C61.5597 43.0956 61.8135 43.0588 62.1035 43.0588C62.3934 43.0588 62.6472 43.022 62.8647 42.9485C63.0822 42.875 63.2634 42.7647 63.4084 42.6176C63.5534 42.4706 63.7346 42.3603 63.9521 42.2868C64.1696 42.2132 64.4234 42.1765 64.7134 42.1765C65.0033 42.1765 65.2571 42.1397 65.4745 42.0662C65.692 41.9926 65.8733 41.8823 66.0183 41.7353C66.1633 41.5882 66.3445 41.4779 66.5617 41.4044C66.7794 41.3309 67.033 41.2941 67.323 41.2941C67.613 41.2941 67.9031 41.2941 68.1926 41.2941C68.4826 41.2941 68.7726 41.2941 69.0627 41.2941C69.3527 41.2941 69.6428 41.2941 69.9328 41.2941C70.2228 41.2941 70.5129 41.2941 70.8029 41.2941C71.0929 41.2941 71.3824 41.2941 71.6725 41.2941C71.9625 41.2941 72.2166 41.3309 72.4338 41.4044C72.6514 41.4779 72.8326 41.5882 72.9774 41.7353C73.1227 41.8823 73.3039 41.9926 73.5215 42.0662C73.7387 42.1397 73.9928 42.1765 74.2828 42.1765C74.5723 42.1765 74.8264 42.2132 75.0436 42.2868C75.2612 42.3603 75.4424 42.4706 75.5877 42.6176C75.7325 42.7647 75.9137 42.875 76.1313 42.9485C76.3484 43.022 76.5661 43.0956 76.7838 43.1691C77.0014 43.2426 77.1826 43.3529 77.3274 43.5C77.4721 43.6471 77.6539 43.7574 77.871 43.8309C78.0887 43.9044 78.3063 43.9779 78.5235 44.0514C78.7411 44.125 78.9223 44.2353 79.0671 44.3823C79.2124 44.5294 79.3571 44.6764 79.5024 44.8235C79.6472 44.9706 79.7924 45.1177 79.9372 45.2647C80.0825 45.4118 80.2272 45.5588 80.3725 45.7058C80.5173 45.8529 80.662 46 80.8073 46.147C80.952 46.2941 81.0973 46.4412 81.2421 46.5882C81.3874 46.7353 81.5321 46.8823 81.6774 47.0294C81.8222 47.1764 81.9675 47.3235 82.1122 47.4706C82.257 47.6176 82.3663 47.8015 82.4392 48.0221C82.5116 48.2426 82.584 48.4632 82.6564 48.6838C82.7287 48.9044 82.837 49.0882 82.9823 49.2353C83.1271 49.3824 83.2359 49.5662 83.3083 49.7867C83.3806 50.0073 83.4541 50.2279 83.5265 50.4485C83.5989 50.6691 83.7077 50.8529 83.8524 51C83.9977 51.147 84.106 51.3309 84.1784 51.5514C84.2508 51.772 84.2872 52.0294 84.2872 52.3235C84.2872 52.6176 84.2872 52.9117 84.2872 53.2058C84.2872 53.5 84.3237 53.7574 84.3966 53.9779C84.469 54.1985 84.5778 54.3823 84.7225 54.5294C84.8678 54.6764 84.9756 54.8603 85.0485 55.0809C85.1209 55.3015 85.1579 55.5588 85.1579 55.8529C85.1579 56.147 85.1579 56.4412 85.1579 56.7353C85.1579 57.0294 85.1209 57.2867 85.0485 57.5073C84.9756 57.7279 84.8678 57.9118 84.7225 58.0588C84.5778 58.2059 84.469 58.3897 84.3966 58.6103C84.3237 58.8308 84.2872 59.0882 84.2872 59.3823C84.2872 59.6765 84.2508 59.9338 84.1784 60.1544C84.106 60.375 83.9977 60.5588 83.8524 60.7059C83.7077 60.8529 83.5989 61.0368 83.5265 61.2574C83.4541 61.4779 83.3806 61.6985 83.3083 61.9191C83.2359 62.1397 83.1271 62.3235 82.9823 62.4706C82.837 62.6177 82.7287 62.8015 82.6564 63.022C82.584 63.2426 82.5116 63.4632 82.4392 63.6838C82.3663 63.9044 82.257 64.0882 82.1122 64.2353C81.9675 64.3823 81.8222 64.5294 81.6774 64.6764C81.5321 64.8235 81.3874 64.9706 81.2421 65.1176C81.0973 65.2647 80.952 65.4118 80.8073 65.5588C80.662 65.7059 80.4808 65.8162 80.2637 65.8897C80.046 65.9632 79.8284 66.0365 79.6112 66.11C79.3936 66.184 79.2124 66.2939 79.0671 66.4414C78.9223 66.5883 78.7411 66.6982 78.5235 66.7722C78.3063 66.8457 78.0887 66.9191 77.871 66.9926C77.6539 67.0661 77.4721 67.1765 77.3274 67.3235C77.1826 67.4704 77.0014 67.5808 76.7838 67.6543C76.5661 67.7278 76.3125 67.7648 76.0225 67.7648C75.7325 67.7648 75.4424 67.7648 75.1524 67.7648C74.8623 67.7648 74.6088 67.7278 74.3911 67.6543C74.174 67.5808 74.0651 67.4704 74.0651 67.3235C74.0651 67.1765 74.174 67.0661 74.3911 66.9926C74.6088 66.9191 74.8264 66.8457 75.0436 66.7722C75.2612 66.6982 75.4424 66.5883 75.5877 66.4414C75.7325 66.2939 75.9137 66.184 76.1313 66.11C76.3484 66.0365 76.5661 65.9632 76.7838 65.8897C77.0014 65.8162 77.1826 65.7059 77.3274 65.5588C77.4721 65.4118 77.6174 65.2647 77.7622 65.1176C77.9075 64.9706 78.0522 64.8235 78.1975 64.6764C78.3423 64.5294 78.4875 64.3823 78.6323 64.2353C78.7776 64.0882 78.8859 63.9044 78.9588 63.6838C79.0312 63.4632 79.1035 63.2426 79.1759 63.022C79.2488 62.8015 79.3571 62.6177 79.5024 62.4706C79.6472 62.3235 79.756 62.1397 79.8284 61.9191C79.9013 61.6985 79.9737 61.4779 80.046 61.2574C80.1184 61.0368 80.2272 60.8529 80.3725 60.7059C80.5173 60.5588 80.6261 60.375 80.6985 60.1544C80.7708 59.9338 80.8073 59.6765 80.8073 59.3823C80.8073 59.0882 80.8073 58.7941 80.8073 58.5C80.8073 58.2059 80.8073 57.9118 80.8073 57.6176C80.8073 57.3235 80.7708 57.0662 80.6985 56.8456C80.6261 56.625 80.5173 56.4412 80.3725 56.2941C80.2272 56.147 80.1184 55.9632 80.046 55.7426C79.9737 55.522 79.9372 55.2647 79.9372 54.9706C79.9372 54.6764 79.9013 54.4191 79.8284 54.1985C79.756 53.9779 79.6472 53.7941 79.5024 53.6471C79.3571 53.5 79.2488 53.3161 79.1759 53.0955C79.1035 52.875 79.0312 52.6544 78.9588 52.4338C78.8859 52.2132 78.7776 52.0294 78.6323 51.8823C78.4875 51.7353 78.3423 51.5882 78.1975 51.4411C78.0522 51.2941 77.9075 51.147 77.7622 51C77.6174 50.8529 77.4721 50.7059 77.3274 50.5588C77.1826 50.4117 77.0374 50.2647 76.8926 50.1176C76.7473 49.9706 76.6026 49.8235 76.4573 49.6765C76.3125 49.5294 76.1313 49.4191 75.9137 49.3456C75.696 49.2721 75.4789 49.1985 75.2612 49.125C75.0436 49.0515 74.8623 48.9411 74.7176 48.7941C74.5723 48.647 74.3911 48.5367 74.174 48.4632C73.9563 48.3897 73.7387 48.3162 73.5215 48.2426C73.3039 48.1691 73.1227 48.0588 72.9774 47.9118C72.8326 47.7647 72.6514 47.6544 72.4338 47.5809C72.2166 47.5073 71.9625 47.4706 71.6725 47.4706C71.3824 47.4706 71.0929 47.4706 70.8029 47.4706C70.5129 47.4706 70.2228 47.4706 69.9328 47.4706C69.6428 47.4706 69.3527 47.4706 69.0627 47.4706C68.7726 47.4706 68.5191 47.5073 68.3014 47.5809C68.0843 47.6544 67.9031 47.7647 67.7578 47.9118C67.613 48.0588 67.4318 48.1691 67.2142 48.2426C66.9965 48.3162 66.7429 48.3529 66.4529 48.3529C66.1633 48.3529 65.9095 48.3897 65.692 48.4632C65.4746 48.5367 65.2933 48.647 65.1483 48.7941C65.0033 48.9411 64.8221 49.0515 64.6046 49.125C64.3871 49.1985 64.1696 49.2721 63.9521 49.3456C63.7346 49.4191 63.5534 49.5294 63.4084 49.6765C63.2634 49.8235 63.1184 49.9706 62.9734 50.1176C62.8284 50.2647 62.6834 50.4117 62.5385 50.5588C62.3934 50.7059 62.2122 50.8162 61.9947 50.8897C61.7772 50.9632 61.5597 51.0368 61.3422 51.1103C61.1247 51.1838 60.9798 51.3309 60.9073 51.5514C60.8347 51.772 60.7623 51.9926 60.6898 52.2132C60.6172 52.4338 60.5085 52.6176 60.3636 52.7647C60.2185 52.9117 60.0736 53.0588 59.9286 53.2058C59.7835 53.3529 59.6386 53.5 59.4935 53.6471C59.3486 53.7941 59.2398 53.9779 59.1673 54.1985C59.0948 54.4191 59.0224 54.6397 58.9498 54.8603C58.8773 55.0809 58.7686 55.2647 58.6236 55.4118C58.4786 55.5588 58.3699 55.7426 58.2974 55.9632C58.2249 56.1838 58.1887 56.4412 58.1887 56.7353C58.1887 57.0294 58.1524 57.2867 58.0799 57.5073C58.0074 57.7279 57.8986 57.9118 57.7536 58.0588C57.6086 58.2059 57.4999 58.3897 57.4274 58.6103C57.3549 58.8308 57.3186 59.0882 57.3186 59.3823C57.3186 59.6765 57.3186 59.9706 57.3186 60.2647C57.3186 60.5588 57.3186 60.8529 57.3186 61.1471C57.3186 61.4412 57.3186 61.7353 57.3186 62.0294C57.3186 62.3235 57.3186 62.6176 57.3186 62.9117C57.3186 63.2058 57.3549 63.4632 57.4274 63.6838C57.4999 63.9044 57.6086 64.0882 57.7536 64.2353C57.8986 64.3823 58.0074 64.5661 58.0799 64.7867C58.1524 65.0073 58.1887 65.2647 58.1887 65.5588C58.1887 65.8529 58.2249 66.11 58.2974 66.3309C58.3699 66.5513 58.4786 66.7352 58.6236 66.8821C58.7686 67.0296 58.8773 67.213 58.9498 67.4339C59.0224 67.6543 59.0948 67.8747 59.1673 68.0956C59.2398 68.316 59.3486 68.4999 59.4935 68.6469C59.6386 68.7938 59.7473 68.9777 59.8198 69.1986C59.8923 69.419 59.9648 69.6394 60.0373 69.8603C60.1098 70.0807 60.2185 70.2646 60.3636 70.4116C60.5085 70.5585 60.6535 70.706 60.7985 70.8529C60.9435 70.9998 61.0885 71.1467 61.2335 71.2942C61.3785 71.4411 61.5235 71.588 61.6685 71.735C61.8135 71.8824 61.9584 72.0294 62.1035 72.1763C62.2485 72.3232 62.3934 72.4707 62.5385 72.6176C62.6834 72.7645 62.8284 72.9114 62.9734 73.0589C63.1184 73.2058 63.2634 73.3528 63.4084 73.4997C63.5534 73.6471 63.6984 73.7941 63.8434 73.941C63.9884 74.0879 64.1334 74.2354 64.2784 74.3823C64.4234 74.5292 64.6046 74.6397 64.8221 74.7132C65.0396 74.7866 65.2571 74.8601 65.4745 74.9335C65.692 75.007 65.8733 75.1175 66.0183 75.2644C66.1633 75.4119 66.3445 75.5218 66.5617 75.5952C66.7794 75.6692 66.9965 75.7427 67.2142 75.8162C67.4318 75.8896 67.613 76.0001 67.7578 76.147C67.9031 76.2939 68.0843 76.4044 68.3014 76.4779C68.5191 76.5513 68.7726 76.5883 69.0627 76.5883C69.3527 76.5883 69.6428 76.5883 69.9328 76.5883C70.2228 76.5883 70.4764 76.6248 70.6941 76.6983C70.9112 76.7717 71.0929 76.8822 71.2377 77.0291C71.3824 77.1766 71.5636 77.2865 71.7813 77.36C71.999 77.434 72.2525 77.4704 72.5426 77.4704C72.8326 77.4704 73.1227 77.4704 73.4127 77.4704C73.7027 77.4704 73.9928 77.4704 74.2828 77.4704C74.5723 77.4704 74.8623 77.4704 75.1524 77.4704C75.4424 77.4704 75.7325 77.4704 76.0225 77.4704C76.3125 77.4704 76.6026 77.4704 76.8926 77.4704C77.1826 77.4704 77.4362 77.434 77.6539 77.36C77.871 77.2865 78.0522 77.1766 78.1975 77.0291C78.3423 76.8822 78.5235 76.7717 78.7411 76.6983C78.9588 76.6248 79.2124 76.5883 79.5024 76.5883C79.7924 76.5883 80.0825 76.5883 80.3725 76.5883C80.662 76.5883 80.9161 76.5513 81.1333 76.4779C81.3509 76.4044 81.5321 76.2939 81.6774 76.147C81.8222 76.0001 82.0034 75.8896 82.221 75.8162C82.4387 75.7427 82.6558 75.6692 82.8735 75.5952C83.0911 75.5218 83.2724 75.4119 83.4171 75.2644C83.5624 75.1175 83.7436 75.007 83.9607 74.9335C84.1784 74.8601 84.3966 74.7866 84.6137 74.7132C84.8314 74.6397 85.0126 74.5292 85.1579 74.3823C85.3026 74.2354 85.4833 74.1249 85.7009 74.0515C85.9181 73.978 86.1363 73.9045 86.3539 73.8305C86.5711 73.7571 86.7523 73.6471 86.897 73.4997C87.0418 73.3528 87.1871 73.2058 87.3318 73.0589C87.4771 72.9114 87.6218 72.7645 87.7671 72.6176C87.9119 72.4707 88.0572 72.3232 88.2019 72.1763C88.3472 72.0294 88.4925 71.8824 88.6372 71.735C88.7825 71.588 88.9273 71.4411 89.0726 71.2942C89.2173 71.1467 89.3621 70.9998 89.5068 70.8529C89.6521 70.706 89.7968 70.5585 89.9416 70.4116C90.0869 70.2646 90.2316 70.1177 90.3769 69.9703C90.5217 69.8233 90.667 69.6764 90.8117 69.5295C90.957 69.382 91.0664 69.1986 91.1387 68.9777C91.2111 68.7573 91.2835 68.5369 91.3559 68.316C91.4288 68.0956 91.5365 67.9117 91.6818 67.7648C91.8266 67.6173 91.9719 67.4704 92.1166 67.3235C92.2619 67.1765 92.4066 67.0296 92.5519 66.8821C92.6967 66.7352 92.8055 66.5513 92.8779 66.3309C92.9503 66.11 93.0237 65.8897 93.0961 65.6691C93.1685 65.4485 93.2768 65.2647 93.4215 65.1176C93.5668 64.9706 93.6756 64.7867 93.748 64.5661C93.8204 64.3456 93.8574 64.0882 93.8574 63.7941C93.8574 63.5 93.8927 63.2426 93.9657 63.022C94.038 62.8015 94.1469 62.6177 94.2916 62.4706C94.4369 62.3235 94.5452 62.1397 94.6181 61.9191C94.6905 61.6985 94.7264 61.4412 94.7264 61.1471C94.7264 60.8529 94.7264 60.5588 94.7264 60.2647C94.7264 59.9706 94.7629 59.7132 94.8352 59.4926C94.9082 59.272 95.0164 59.0882 95.1617 58.9411C95.3065 58.7941 95.4153 58.6103 95.4877 58.3897C95.5606 58.1691 95.5965 57.9118 95.5965 57.6176C95.5965 57.3235 95.5965 57.0294 95.5965 56.7353C95.5965 56.4412 95.5965 56.147 95.5965 55.8529C95.5965 55.5588 95.5965 55.2647 95.5965 54.9706C95.5965 54.6764 95.5965 54.3823 95.5965 54.0882C95.5965 53.7941 95.5965 53.5 95.5965 53.2058C95.5965 52.9117 95.5965 52.6176 95.5965 52.3235C95.5965 52.0294 95.5606 51.772 95.4877 51.5514C95.4153 51.3309 95.3065 51.147 95.1617 51C95.0164 50.8529 94.9082 50.6691 94.8352 50.4485C94.7629 50.2279 94.7264 49.9706 94.7264 49.6765C94.7264 49.3824 94.7264 49.0882 94.7264 48.7941C94.7264 48.5 94.6905 48.2426 94.6181 48.0221C94.5452 47.8015 94.4369 47.6176 94.2916 47.4706C94.1469 47.3235 94.038 47.1397 93.9657 46.9191C93.8927 46.6985 93.8574 46.4412 93.8574 46.147C93.8574 45.8529 93.8204 45.5956 93.748 45.375C93.6756 45.1544 93.5668 44.9706 93.4215 44.8235C93.2768 44.6764 93.1685 44.4926 93.0961 44.272C93.0237 44.0515 92.9503 43.8309 92.8779 43.6103C92.8055 43.3897 92.6967 43.2059 92.5519 43.0588C92.4066 42.9117 92.2984 42.7279 92.226 42.5073C92.1536 42.2868 92.0807 42.0662 92.0078 41.8456C91.9354 41.625 91.8266 41.4411 91.6818 41.2941C91.5365 41.147 91.4288 40.9632 91.3559 40.7427C91.2835 40.5221 91.2111 40.3014 91.1387 40.0808C91.0664 39.8603 90.957 39.6764 90.8117 39.5294C90.667 39.3824 90.5217 39.2353 90.3769 39.0882C90.2316 38.9412 90.0869 38.7941 89.9416 38.647C89.7968 38.5 89.688 38.3162 89.6156 38.0956C89.5433 37.875 89.4714 37.6544 89.3985 37.4338C89.3261 37.2132 89.2173 37.0294 89.0726 36.8823C88.9273 36.7353 88.7825 36.5882 88.6372 36.4412C88.4925 36.2941 88.3472 36.1471 88.2019 36C88.0572 35.8529 87.9119 35.7058 87.7671 35.5588C87.6218 35.4117 87.4771 35.2647 87.3318 35.1176C87.1871 34.9706 87.0418 34.8235 86.897 34.6765C86.7523 34.5294 86.607 34.3823 86.4622 34.2353C86.3169 34.0882 86.1722 33.9412 86.0269 33.7941C85.8822 33.6471 85.7015 33.5368 85.4838 33.4632C85.2662 33.3897 85.0485 33.3162 84.8308 33.2426C84.6132 33.1691 84.432 33.0588 84.2872 32.9117C84.1419 32.7647 83.9977 32.6176 83.8524 32.4706C83.7077 32.3235 83.5624 32.1765 83.4171 32.0294C83.2724 31.8824 83.0911 31.772 82.8735 31.6985C82.6558 31.625 82.4387 31.5514 82.221 31.4779C82.0034 31.4044 81.8222 31.2941 81.6774 31.147C81.5321 31 81.3509 30.8897 81.1333 30.8162C80.9161 30.7426 80.6985 30.6691 80.4808 30.5956C80.2637 30.5221 80.0825 30.4118 79.9372 30.2647C79.7924 30.1176 79.6112 30.0073 79.3936 29.9338C79.1759 29.8603 78.9588 29.7867 78.7411 29.7132C78.5235 29.6397 78.3423 29.5294 78.1975 29.3824C78.0522 29.2353 77.871 29.125 77.6539 29.0515C77.4362 28.9779 77.1826 28.9412 76.8926 28.9412C76.6026 28.9412 76.3484 28.9044 76.1313 28.8309C75.9137 28.7573 75.7325 28.647 75.5877 28.5C75.4424 28.3529 75.2612 28.2426 75.0436 28.1691C74.8264 28.0956 74.5723 28.0588 74.2828 28.0588C73.9928 28.0588 73.7027 28.0588 73.4127 28.0588C73.1227 28.0588 72.8326 28.0588 72.5426 28.0588C72.2525 28.0588 71.9625 28.0588 71.6725 28.0588C71.3824 28.0588 71.1289 28.022 70.9112 27.9485C70.6941 27.875 70.5129 27.7647 70.3676 27.6177C70.2228 27.4706 70.0416 27.3603 69.824 27.2867C69.6063 27.2132 69.3527 27.1764 69.0627 27.1764C68.7726 27.1764 68.4826 27.1764 68.1926 27.1764C67.9031 27.1764 67.613 27.1764 67.323 27.1764C67.033 27.1764 66.7429 27.1764 66.4529 27.1764C66.1633 27.1764 65.8733 27.1764 65.5833 27.1764C65.2933 27.1764 65.0396 27.2132 64.8221 27.2867C64.6046 27.3603 64.4234 27.4706 64.2784 27.6177C64.1334 27.7647 63.9521 27.875 63.7346 27.9485C63.5171 28.022 63.2634 28.0588 62.9734 28.0588C62.6834 28.0588 62.3934 28.0588 62.1035 28.0588C61.8135 28.0588 61.5235 28.0588 61.2335 28.0588C60.9435 28.0588 60.6535 28.0588 60.3636 28.0588C60.0735 28.0588 59.8198 28.0956 59.6023 28.1691C59.3848 28.2426 59.2036 28.3529 59.0586 28.5C58.9136 28.647 58.7324 28.7573 58.5149 28.8309C58.2974 28.9044 58.0436 28.9412 57.7536 28.9412C57.4637 28.9412 57.1737 28.9412 56.8837 28.9412C56.5937 28.9412 56.34 28.9779 56.1225 29.0515C55.905 29.125 55.7237 29.2353 55.5787 29.3824C55.4337 29.5294 55.2525 29.6397 55.035 29.7132C54.8175 29.7867 54.6 29.8603 54.3825 29.9338C54.1651 30.0073 53.9838 30.1176 53.8388 30.2647C53.6938 30.4118 53.5126 30.5221 53.2951 30.5956C53.0776 30.6691 52.8239 30.7059 52.5339 30.7059C52.2439 30.7059 51.9902 30.7426 51.7727 30.8162C51.5552 30.8897 51.3739 31 51.2289 31.147C51.0839 31.2941 50.939 31.4411 50.7939 31.5882C50.649 31.7353 50.504 31.8824 50.359 32.0294C50.214 32.1765 50.0327 32.2868 49.8153 32.3603C49.5978 32.4338 49.3803 32.5073 49.1628 32.5809C48.9453 32.6544 48.7641 32.7647 48.619 32.9117C48.4741 33.0588 48.3291 33.2059 48.1841 33.3529C48.0391 33.5 47.894 33.6471 47.7491 33.7941C47.6041 33.9412 47.4229 34.0514 47.2054 34.125C46.9879 34.1985 46.7704 34.272 46.5529 34.3456C46.3354 34.4191 46.1541 34.5294 46.0091 34.6765C45.8642 34.8235 45.7191 34.9706 45.5742 35.1176C45.4292 35.2647 45.2842 35.4117 45.1392 35.5588C44.9942 35.7058 44.8492 35.8529 44.7042 36C44.5592 36.1471 44.4142 36.2941 44.2692 36.4412C44.1243 36.5882 43.9792 36.7353 43.8342 36.8823C43.6893 37.0294 43.5442 37.1764 43.3993 37.3235C43.2543 37.4706 43.1093 37.6176 42.9643 37.7647C42.8193 37.9118 42.6743 38.0588 42.5293 38.2059C42.3843 38.3529 42.2393 38.5 42.0943 38.647C41.9493 38.7941 41.8043 38.9412 41.6593 39.0882C41.5144 39.2353 41.3693 39.3824 41.2244 39.5294C41.0794 39.6764 40.9344 39.8235 40.7894 39.9706C40.6444 40.1176 40.4994 40.2647 40.3544 40.4117C40.2094 40.5588 40.0644 40.7059 39.9194 40.8529C39.7744 41 39.6294 41.147 39.4844 41.2941C39.3395 41.4411 39.2307 41.625 39.1582 41.8456C39.0857 42.0662 39.0132 42.2868 38.9407 42.5073C38.8682 42.7279 38.7595 42.9117 38.6145 43.0588C38.4695 43.2059 38.3245 43.3529 38.1795 43.5C38.0345 43.6471 37.8895 43.7941 37.7445 43.9412C37.5995 44.0882 37.4908 44.272 37.4183 44.4926C37.3458 44.7132 37.2733 44.9338 37.2008 45.1544C37.1283 45.375 37.0195 45.5588 36.8746 45.7058C36.7296 45.8529 36.6208 46.0367 36.5483 46.2573C36.4758 46.4779 36.4033 46.6985 36.3308 46.9191C36.2583 47.1397 36.1496 47.3235 36.0046 47.4706C35.8596 47.6176 35.7509 47.8015 35.6783 48.0221C35.6059 48.2426 35.5334 48.4632 35.4608 48.6838C35.3884 48.9044 35.2796 49.0882 35.1346 49.2353C34.9896 49.3824 34.8809 49.5662 34.8084 49.7867C34.7359 50.0073 34.6997 50.2647 34.6997 50.5588C34.6997 50.853 34.6634 51.1103 34.5909 51.3309C34.5184 51.5514 34.4097 51.7353 34.2647 51.8823C34.1196 52.0294 34.0109 52.2132 33.9384 52.4338C33.866 52.6544 33.8297 52.9117 33.8297 53.2058C33.8297 53.5 33.7934 53.7574 33.7209 53.9779C33.6485 54.1985 33.5397 54.3823 33.3947 54.5294C33.2497 54.6764 33.141 54.8603 33.0685 55.0809C32.996 55.3015 32.9597 55.5588 32.9597 55.8529C32.9597 56.147 32.9597 56.4412 32.9597 56.7353C32.9597 57.0294 32.9597 57.3235 32.9597 57.6176C32.9597 57.9118 32.9597 58.2059 32.9597 58.5C32.9597 58.7941 32.9597 59.0882 32.9597 59.3823C32.9597 59.6765 32.9235 59.9338 32.851 60.1544C32.7785 60.375 32.6697 60.5588 32.5248 60.7059C32.3797 60.8529 32.271 61.0368 32.1985 61.2574C32.126 61.4779 32.0898 61.7353 32.0898 62.0294C32.0898 62.3235 32.0898 62.6176 32.0898 62.9117C32.0898 63.2058 32.0898 63.5 32.0898 63.7941C32.0898 64.0882 32.126 64.3456 32.1985 64.5661C32.271 64.7867 32.3797 64.9706 32.5248 65.1176C32.6697 65.2647 32.7785 65.4485 32.851 65.6691C32.9235 65.8897 32.9597 66.147 32.9597 66.4414C32.9597 66.7352 32.9597 67.0291 32.9597 67.3235C32.9597 67.6173 32.9597 67.9117 32.9597 68.2055C32.9597 68.4999 32.9597 68.7938 32.9597 69.0882C32.9597 69.382 32.9597 69.6764 32.9597 69.9703C32.9597 70.2646 32.9597 70.5585 32.9597 70.8529C32.9597 71.1467 32.9597 71.4411 32.9597 71.735C32.9597 72.0294 32.996 72.2867 33.0685 72.5071C33.141 72.7281 33.2497 72.9114 33.3947 73.0589C33.5397 73.2058 33.6485 73.3898 33.7209 73.6101C33.7934 73.8305 33.8297 74.0879 33.8297 74.3823C33.8297 74.6762 33.8297 74.9706 33.8297 75.2644C33.8297 75.5588 33.866 75.8162 33.9384 76.0366C34.0109 76.2575 34.1196 76.4409 34.2647 76.5883C34.4097 76.7353 34.5184 76.9192 34.5909 77.1396C34.6634 77.36 34.6997 77.6173 34.6997 77.9117C34.6997 78.2056 34.7359 78.463 34.8084 78.6839C34.8809 78.9043 34.9896 79.0882 35.1346 79.2351C35.2796 79.3821 35.3884 79.566 35.4608 79.7869C35.5334 80.0073 35.5696 80.2647 35.5696 80.5585C35.5696 80.8529 35.6059 81.1103 35.6783 81.3307C35.7509 81.5516 35.8596 81.735 36.0046 81.8825C36.1496 82.0294 36.2583 82.2133 36.3308 82.4337C36.4033 82.6541 36.4758 82.875 36.5483 83.0954C36.6208 83.3163 36.7296 83.4997 36.8746 83.6472C37.0195 83.7941 37.1283 83.9781 37.2008 84.1984C37.2733 84.4188 37.3458 84.6398 37.4183 84.8601C37.4908 85.0811 37.5995 85.2644 37.7445 85.4119C37.8895 85.5588 37.9983 85.7428 38.0707 85.9631C38.1432 86.1835 38.2158 86.4045 38.2882 86.6248C38.3607 86.8458 38.4695 87.0292 38.6145 87.1766C38.7595 87.3235 38.9045 87.4705 39.0495 87.6174C39.1944 87.7649 39.3395 87.9118 39.4844 88.0587C39.6294 88.2056 39.7382 88.3896 39.8107 88.6099C39.8832 88.8309 39.9557 89.0513 40.0281 89.2722C40.1007 89.4926 40.2094 89.6765 40.3544 89.8234C40.4994 89.9703 40.6444 90.1178 40.7894 90.2647C40.9344 90.4117 41.0794 90.5586 41.2244 90.7061C41.3693 90.853 41.5144 90.9999 41.6593 91.1468C41.8043 91.2943 41.9493 91.4412 42.0943 91.5881C42.2393 91.7351 42.3481 91.919 42.4206 92.1394C42.493 92.3603 42.5656 92.5807 42.6381 92.8016C42.7105 93.022 42.8193 93.2059 42.9643 93.3529C43.1093 93.4998 43.2543 93.6473 43.3993 93.7942C43.5442 93.9411 43.6893 94.088 43.8342 94.2349C43.9792 94.3824 44.1243 94.5293 44.2692 94.6763C44.4142 94.8237 44.5592 94.9706 44.7042 95.1176C44.8492 95.2645 44.9942 95.4114 45.1392 95.5589C45.2842 95.7058 45.4292 95.8527 45.5742 95.9997C45.7191 96.1471 45.8642 96.294 46.0091 96.441C46.1541 96.5879 46.2992 96.7354 46.4441 96.8823C46.5892 97.0292 46.7341 97.1761 46.8791 97.3236C47.0241 97.4705 47.1691 97.6174 47.3141 97.7644C47.4591 97.9118 47.6041 98.0588 47.7491 98.2057C47.894 98.3526 48.0391 98.5001 48.1841 98.647C48.3291 98.7939 48.4741 98.9408 48.619 99.0883C48.7641 99.2352 48.909 99.3822 49.054 99.5291C49.199 99.6766 49.344 99.8235 49.489 99.9704C49.634 100.117 49.779 100.265 49.924 100.412C50.069 100.559 50.214 100.706 50.359 100.853C50.504 101 50.649 101.147 50.7939 101.294C50.939 101.441 51.0839 101.588 51.2289 101.735C51.3739 101.882 51.5189 102.03 51.6639 102.176C51.8089 102.323 51.9539 102.47 52.0989 102.618C52.2439 102.765 52.4251 102.875 52.6426 102.949C52.8601 103.022 53.0776 103.096 53.2951 103.169C53.5126 103.242 53.6938 103.353 53.8388 103.5C53.9838 103.647 54.1288 103.794 54.2738 103.941C54.4188 104.088 54.5638 104.235 54.7088 104.382C54.8538 104.529 55.035 104.64 55.2525 104.713C55.47 104.787 55.6875 104.86 55.905 104.934C56.1225 105.007 56.3037 105.118 56.4487 105.265C56.5937 105.411 56.7387 105.559 56.8837 105.706C57.0287 105.853 57.1737 106 57.3186 106.147C57.4637 106.294 57.6449 106.405 57.8624 106.478C58.0799 106.551 58.2974 106.625 58.5149 106.698C58.7324 106.772 58.9136 106.882 59.0586 107.029C59.2036 107.176 59.3848 107.287 59.6023 107.36C59.8198 107.434 60.0373 107.507 60.2548 107.581C60.4723 107.654 60.6535 107.764 60.7985 107.912C60.9435 108.059 61.1247 108.169 61.3422 108.243C61.5597 108.316 61.7772 108.39 61.9947 108.463C62.2122 108.537 62.3934 108.647 62.5385 108.794C62.6834 108.941 62.8647 109.051 63.0822 109.125C63.2996 109.198 63.5171 109.272 63.7346 109.346C63.9521 109.419 64.1334 109.529 64.2784 109.677C64.4234 109.824 64.6046 109.934 64.8221 110.007C65.0396 110.081 65.2571 110.154 65.4745 110.228C65.692 110.301 65.8008 110.412 65.8008 110.559C65.8008 110.706 65.692 110.816 65.4745 110.89C65.2571 110.963 65.0033 111 64.7134 111C64.4234 111 64.1333 111 63.8434 111C63.5534 111 63.2634 111 62.9734 111C62.6834 111 62.4297 110.963 62.2122 110.89C61.9947 110.816 61.8135 110.706 61.6685 110.559C61.5235 110.412 61.3422 110.301 61.1247 110.228C60.9073 110.154 60.6535 110.117 60.3636 110.117C60.0735 110.117 59.7835 110.117 59.4935 110.117C59.2036 110.117 58.9498 110.081 58.7324 110.007C58.5149 109.934 58.3336 109.824 58.1887 109.677C58.0436 109.529 57.8624 109.419 57.6449 109.346C57.4274 109.272 57.1737 109.235 56.8837 109.235C56.5937 109.235 56.34 109.198 56.1225 109.125C55.905 109.051 55.7237 108.941 55.5787 108.794C55.4337 108.647 55.2525 108.537 55.035 108.463C54.8175 108.39 54.5638 108.353 54.2738 108.353C53.9838 108.353 53.7301 108.316 53.5126 108.243C53.2951 108.169 53.1139 108.059 52.9688 107.912C52.8239 107.764 52.6426 107.654 52.4251 107.581C52.2076 107.507 51.9902 107.434 51.7727 107.36C51.5552 107.287 51.3739 107.176 51.2289 107.029C51.0839 106.882 50.9027 106.772 50.6852 106.698C50.4677 106.625 50.2502 106.551 50.0327 106.478C49.8153 106.405 49.634 106.294 49.489 106.147C49.344 106 49.1628 105.89 48.9453 105.816C48.7278 105.742 48.5103 105.669 48.2928 105.595C48.0753 105.522 47.894 105.411 47.7491 105.265C47.6041 105.118 47.4591 104.971 47.3141 104.823C47.1691 104.676 47.0241 104.529 46.8791 104.382C46.7341 104.235 46.5529 104.125 46.3354 104.052C46.1179 103.978 45.9004 103.904 45.6829 103.831C45.4654 103.757 45.2842 103.647 45.1392 103.5C44.9942 103.353 44.8492 103.206 44.7042 103.059C44.5592 102.912 44.4142 102.765 44.2692 102.618C44.1243 102.47 43.9792 102.323 43.8342 102.176C43.6893 102.03 43.5442 101.882 43.3993 101.735C43.2543 101.588 43.0731 101.478 42.8556 101.404C42.6381 101.331 42.4206 101.257 42.203 101.184C41.9856 101.11 41.8043 101 41.6593 100.853C41.5144 100.706 41.3693 100.559 41.2244 100.412C41.0794 100.265 40.9344 100.117 40.7894 99.9704C40.6444 99.8235 40.4994 99.6766 40.3544 99.5291C40.2094 99.3822 40.0644 99.2352 39.9194 99.0883C39.7744 98.9408 39.6294 98.7939 39.4844 98.647C39.3395 98.5001 39.1944 98.3526 39.0495 98.2057C38.9045 98.0588 38.7595 97.9118 38.6145 97.7644C38.4695 97.6174 38.3607 97.4335 38.2882 97.2131C38.2158 96.9927 38.1432 96.7718 38.0707 96.5514C37.9983 96.3311 37.8895 96.1471 37.7445 95.9997C37.5995 95.8527 37.4545 95.7058 37.3095 95.5589C37.1646 95.4114 37.0195 95.2645 36.8746 95.1176C36.7296 94.9706 36.5846 94.8237 36.4396 94.6763C36.2946 94.5293 36.1496 94.3824 36.0046 94.2349C35.8596 94.088 35.7146 93.9411 35.5696 93.7942C35.4246 93.6473 35.2796 93.4998 35.1346 93.3529C34.9896 93.2059 34.8809 93.022 34.8084 92.8016C34.7359 92.5807 34.6634 92.3603 34.5909 92.1394C34.5184 91.919 34.4097 91.7351 34.2647 91.5881C34.1196 91.4412 33.9747 91.2943 33.8297 91.1468C33.6847 90.9999 33.5397 90.853 33.3947 90.7061C33.2497 90.5586 33.141 90.3747 33.0685 90.1543C32.996 89.9339 32.9235 89.713 32.851 89.4926C32.7785 89.2722 32.6697 89.0883 32.5248 88.9413C32.3797 88.7939 32.271 88.6099 32.1985 88.3896C32.126 88.1692 32.0535 87.9482 31.981 87.7279C31.9085 87.5075 31.7998 87.3235 31.6548 87.1766C31.5098 87.0292 31.401 86.8458 31.3285 86.6248C31.2561 86.4045 31.1836 86.1835 31.111 85.9631C31.0386 85.7428 30.9298 85.5588 30.7848 85.4119C30.6398 85.2644 30.5311 85.0811 30.4586 84.8601C30.3861 84.6398 30.3136 84.4188 30.2411 84.1984C30.1686 83.9781 30.0598 83.7941 29.9149 83.6472C29.7698 83.4997 29.6611 83.3163 29.5886 83.0954C29.5161 82.875 29.4799 82.6176 29.4799 82.3233C29.4799 82.0294 29.4436 81.772 29.3711 81.5516C29.2987 81.3307 29.1899 81.1468 29.0449 80.9999C28.8999 80.8529 28.7912 80.669 28.7187 80.4486C28.6461 80.2277 28.6099 79.9703 28.6099 79.6765C28.6099 79.3821 28.5737 79.1247 28.5012 78.9043C28.4286 78.6839 28.3199 78.5 28.175 78.3531C28.0299 78.2056 27.9212 78.0222 27.8487 77.8013C27.7762 77.5809 27.74 77.3235 27.74 77.0291C27.74 76.7353 27.74 76.4409 27.74 76.147C27.74 75.8526 27.7037 75.5952 27.6312 75.3749C27.5587 75.1545 27.45 74.9705 27.305 74.8236C27.16 74.6762 27.0512 74.4928 26.9787 74.2718C26.9062 74.0515 26.87 73.7941 26.87 73.4997C26.87 73.2058 26.87 72.9114 26.87 72.6176C26.87 72.3232 26.87 72.0294 26.87 71.735C26.87 71.4411 26.87 71.1467 26.87 70.8529C26.87 70.5585 26.8338 70.3017 26.7612 70.0807C26.6887 69.8603 26.58 69.6764 26.435 69.5295C26.29 69.382 26.1813 69.1986 26.1088 68.9777C26.0363 68.7573 26 68.4999 26 68.2055C26 67.9117 26 67.6173 26 67.3235C26 67.0291 26 66.7352 26 66.4414C26 66.147 26 65.8529 26 65.5588C26 65.2647 26 64.9706 26 64.6764C26 64.3823 26 64.0882 26 63.7941C26 63.5 26 63.2058 26 62.9117C26 62.6176 26 62.3235 26 62.0294C26 61.7353 26 61.4412 26 61.1471C26 60.8529 26 60.5588 26 60.2647C26 59.9706 26 59.6765 26 59.3823C26 59.0882 26.0363 58.8308 26.1088 58.6103C26.1813 58.3897 26.29 58.2059 26.435 58.0588C26.58 57.9118 26.6887 57.7279 26.7612 57.5073C26.8338 57.2867 26.87 57.0294 26.87 56.7353C26.87 56.4412 26.87 56.147 26.87 55.8529C26.87 55.5588 26.87 55.2647 26.87 54.9706C26.87 54.6764 26.87 54.3823 26.87 54.0882C26.87 53.7941 26.9062 53.5367 26.9787 53.3161C27.0512 53.0955 27.16 52.9117 27.305 52.7647C27.45 52.6176 27.5587 52.4338 27.6312 52.2132C27.7037 51.9926 27.74 51.7353 27.74 51.4411C27.74 51.1471 27.7762 50.8897 27.8487 50.6691C27.9212 50.4485 28.0299 50.2647 28.175 50.1176C28.3199 49.9706 28.4286 49.7868 28.5012 49.5662C28.5737 49.3456 28.6099 49.0882 28.6099 48.7941C28.6099 48.5 28.6461 48.2426 28.7187 48.0221C28.7912 47.8015 28.8999 47.6176 29.0449 47.4706C29.1899 47.3235 29.2987 47.1397 29.3711 46.9191C29.4436 46.6985 29.5161 46.4779 29.5886 46.2573C29.6611 46.0367 29.7698 45.8529 29.9149 45.7058C30.0598 45.5588 30.1686 45.375 30.2411 45.1544C30.3136 44.9338 30.3861 44.7132 30.4586 44.4926C30.5311 44.272 30.6398 44.0882 30.7848 43.9412C30.9298 43.7941 31.0386 43.6103 31.111 43.3897C31.1836 43.1691 31.2561 42.9485 31.3285 42.7279C31.401 42.5073 31.5098 42.3235 31.6548 42.1765C31.7998 42.0294 31.9085 41.8456 31.981 41.625C32.0535 41.4044 32.126 41.1838 32.1985 40.9632C32.271 40.7427 32.3797 40.5588 32.5248 40.4117C32.6697 40.2647 32.7785 40.0808 32.851 39.8603C32.9235 39.6397 32.996 39.4191 33.0685 39.1985C33.141 38.9779 33.2497 38.7941 33.3947 38.647C33.5397 38.5 33.6847 38.3529 33.8297 38.2059C33.9747 38.0588 34.1196 37.9118 34.2647 37.7647C34.4097 37.6176 34.5546 37.4706 34.6997 37.3235C34.8446 37.1764 34.9896 37.0294 35.1346 36.8823C35.2796 36.7353 35.3884 36.5515 35.4608 36.3309C35.5334 36.1103 35.6059 35.8897 35.6783 35.6691C35.7509 35.4485 35.8596 35.2647 36.0046 35.1176C36.1496 34.9706 36.2946 34.8235 36.4396 34.6765C36.5846 34.5294 36.7296 34.3823 36.8746 34.2353C37.0195 34.0882 37.1646 33.9412 37.3095 33.7941C37.4545 33.6471 37.5995 33.5 37.7445 33.3529C37.8895 33.2059 38.0345 33.0588 38.1795 32.9117C38.3245 32.7647 38.4695 32.6176 38.6145 32.4706C38.7595 32.3235 38.9045 32.1765 39.0495 32.0294C39.1944 31.8824 39.3395 31.7353 39.4844 31.5882C39.6294 31.4411 39.7744 31.2941 39.9194 31.147C40.0644 31 40.2456 30.8897 40.4631 30.8162C40.6807 30.7426 40.8982 30.6691 41.1156 30.5956C41.3331 30.5221 41.5144 30.4118 41.6593 30.2647C41.8043 30.1176 41.9493 29.9706 42.0943 29.8235C42.2393 29.6764 42.3843 29.5294 42.5293 29.3824C42.6743 29.2353 42.8193 29.0882 42.9643 28.9412C43.1093 28.7941 43.2543 28.647 43.3993 28.5C43.5442 28.3529 43.7255 28.2426 43.943 28.1691C44.1605 28.0956 44.378 28.022 44.5955 27.9485C44.813 27.875 44.9942 27.7647 45.1392 27.6177C45.2842 27.4706 45.4292 27.3235 45.5742 27.1764C45.7191 27.0294 45.8642 26.8823 46.0091 26.7353C46.1541 26.5882 46.3354 26.4779 46.5529 26.4044C46.7704 26.3309 46.9879 26.2574 47.2054 26.1838C47.4229 26.1103 47.6041 26 47.7491 25.8529C47.894 25.7059 48.0753 25.5955 48.2928 25.522C48.5103 25.4485 48.7278 25.375 48.9453 25.3014C49.1628 25.2279 49.344 25.1176 49.489 24.9706C49.634 24.8235 49.8153 24.7132 50.0327 24.6397C50.2502 24.5662 50.504 24.5294 50.7939 24.5294C51.0839 24.5294 51.3377 24.4926 51.5552 24.4191C51.7727 24.3456 51.9539 24.2353 52.0989 24.0882C52.2439 23.9411 52.4251 23.8309 52.6426 23.7573C52.8601 23.6838 53.0776 23.6103 53.2951 23.5368C53.5126 23.4632 53.6938 23.353 53.8388 23.2059C53.9838 23.0588 54.1651 22.9485 54.3825 22.875C54.6 22.8014 54.8538 22.7647 55.1437 22.7647C55.4337 22.7647 55.7237 22.7647 56.0137 22.7647C56.3037 22.7647 56.5575 22.7279 56.7749 22.6544C56.9924 22.5808 57.1737 22.4706 57.3186 22.3235C57.4637 22.1765 57.6449 22.0662 57.8624 21.9927C58.0799 21.9191 58.3336 21.8824 58.6236 21.8824C58.9136 21.8824 59.2036 21.8824 59.4935 21.8824C59.7835 21.8824 60.0735 21.8824 60.3636 21.8824C60.6535 21.8824 60.9073 21.8456 61.1247 21.7721C61.3422 21.6985 61.5235 21.5882 61.6685 21.4412Z" fill="url(#paint1_linear_54_1024)" stroke="url(#paint2_linear_54_1024)" stroke-width="8"/>
<defs>
<linearGradient id="paint0_linear_54_1024" x1="63.9998" y1="122" x2="63.9998" y2="6" gradientUnits="userSpaceOnUse">
<stop stop-color="#FF1B71"/>
<stop offset="0.9998" stop-color="#FF867E"/>
<stop offset="0.9999" stop-color="#FF6678"/>
</linearGradient>
<linearGradient id="paint1_linear_54_1024" x1="63.8433" y1="111" x2="63.8433" y2="21" gradientUnits="userSpaceOnUse">
<stop stop-color="#FF1B71"/>
<stop offset="0.9998" stop-color="#FF867E"/>
<stop offset="0.9999" stop-color="#FF6678"/>
</linearGradient>
<linearGradient id="paint2_linear_54_1024" x1="63.8433" y1="111" x2="63.8433" y2="21" gradientUnits="userSpaceOnUse">
<stop stop-color="#FF1B71"/>
<stop offset="0.9998" stop-color="#FF867E"/>
<stop offset="0.9999" stop-color="#FF6678"/>
</linearGradient>
</defs>
</svg>
