<svg width="24" height="24" viewBox="0 0 24 24" fill="none" xmlns="http://www.w3.org/2000/svg">
<path opacity="0.5" d="M1.3806 11.0746C1.13666 10.3702 1.00814 9.63097 1 8.88557C1 2.38457 7.05 -0.57113 12 4.74957C16.95 -0.57113 23 2.38347 23 8.88557C22.9917 9.63096 22.8632 10.3701 22.6194 11.0746H19.1764C18.5758 11.0746 18.0434 11.0724 17.5583 11.2891C17.0732 11.5047 16.7168 11.9018 16.3153 12.3484L16.2328 12.4408L15.1009 13.6981C15.0745 13.7276 15.0421 13.7511 15.0058 13.7669C14.9695 13.7828 14.9303 13.7906 14.8907 13.7899C14.8511 13.7891 14.8121 13.7799 14.7765 13.7627C14.7408 13.7455 14.7093 13.7209 14.684 13.6904L10.779 8.95487C10.625 8.76787 10.4611 8.56987 10.3005 8.42137C10.0716 8.19582 9.77052 8.05831 9.4502 8.03307C9.12904 8.01973 8.81348 8.12024 8.5592 8.31687C8.3832 8.44447 8.1962 8.62267 8.0202 8.78987L6.3372 10.3915C5.8191 10.8865 5.7102 10.9701 5.598 11.0152C5.4847 11.0614 5.3472 11.0746 4.6311 11.0746H1.3806Z" fill="url(#paint0_linear_343_530)"/>
<path d="M22.6194 11.0744H19.1764C18.5758 11.0733 18.0434 11.0722 17.5572 11.2878C17.0732 11.5045 16.7168 11.9016 16.3153 12.3482L16.2328 12.4406L15.1009 13.6979C15.0745 13.7276 15.0419 13.7511 15.0055 13.767C14.969 13.7829 14.9296 13.7907 14.8899 13.7898C14.8502 13.789 14.8111 13.7795 14.7754 13.7622C14.7396 13.7448 14.7081 13.7199 14.6829 13.6891L10.7779 8.95473C10.6239 8.76773 10.4589 8.56973 10.2994 8.42123C10.0707 8.19528 9.76957 8.05737 9.44911 8.03183C9.12767 8.01912 8.8121 8.12041 8.55812 8.31783C8.38102 8.44433 8.19402 8.62253 8.01912 8.78863L6.33612 10.3913C5.81802 10.8863 5.70912 10.9699 5.59582 11.015C5.48252 11.0601 5.34612 11.0744 4.63002 11.0744H1.38062C2.52022 14.4899 5.99072 17.8328 8.65711 20.0064C10.1223 21.2021 10.856 21.7994 12 21.7994C13.144 21.7994 13.8766 21.2021 15.3418 20.0064C18.0082 17.8328 21.4798 14.4899 22.6194 11.0744Z" fill="url(#paint1_linear_343_530)"/>
<defs>
<linearGradient id="paint0_linear_343_530" x1="23" y1="13.7899" x2="14.8813" y2="-1.5293" gradientUnits="userSpaceOnUse">
<stop offset="0.17063" stop-color="#FF1B9D"/>
<stop offset="0.905415" stop-color="#FF63DD"/>
</linearGradient>
<linearGradient id="paint1_linear_343_530" x1="22.6194" y1="21.7994" x2="12.2078" y2="5.55917" gradientUnits="userSpaceOnUse">
<stop offset="0.17063" stop-color="#FF1B9D"/>
<stop offset="0.905415" stop-color="#FF63DD"/>
</linearGradient>
</defs>
</svg>
