<svg width="24" height="24" viewBox="0 0 24 24" fill="none" xmlns="http://www.w3.org/2000/svg">
<path opacity="0.4" d="M17.3729 4.42633H14.1355C13.329 4.43166 12.5633 4.07291 12.0522 3.45026L10.9861 1.97639C10.4836 1.34827 9.71789 0.987842 8.91259 1.00031H6.62391C2.51601 1.00031 1 3.41121 1 7.51072V17.9421C0.994891 18.4294 22.9954 18.4288 22.9968 17.9421V10.6537C23.0164 6.55417 21.5395 4.42633 17.3729 4.42633Z" fill="url(#paint0_linear_218_151)"/>
<path opacity="0.8" d="M22.5174 7.39355C22.3392 6.8826 22.0673 6.40926 21.7153 5.99777C21.6047 5.86782 21.4837 5.74704 21.3535 5.63662C20.2228 4.74736 18.7982 4.31529 17.363 4.42629H6.60429C4.04177 4.42629 2.47687 5.25595 1.71399 6.88599C1.45645 7.41416 1.27534 7.97612 1.17605 8.55508C1.17605 8.76981 1.10759 8.98455 1.07825 9.20905C1.02593 9.6888 0.99981 10.171 1 10.6536V16.4319C0.999788 16.9191 1.03904 17.4055 1.11737 17.8863C1.24056 18.736 1.53322 19.5525 1.97806 20.2874C2.1807 20.6421 2.42714 20.9701 2.71161 21.2635C4.01908 22.4593 5.75254 23.0816 7.52367 22.9912H16.4632C18.2315 23.0823 19.9621 22.4597 21.2654 21.2635C21.5533 20.9706 21.8031 20.6427 22.0088 20.2874C22.4563 19.552 22.7553 18.7363 22.889 17.8863C22.9592 17.4047 22.9952 16.9187 22.9966 16.4319V10.6536C23.03 9.54728 22.8678 8.4437 22.5174 7.39355Z" fill="url(#paint1_linear_218_151)"/>
<path fill-rule="evenodd" clip-rule="evenodd" d="M21.5001 14H22.9967C22.9967 14.3894 23.0006 14.7611 23.0043 15.1255C23.0117 15.8334 23.0188 16.5141 22.9967 17.2445V17.0228C22.9953 17.5095 22.9593 17.9955 22.8891 18.4772C22.7554 19.3272 22.4563 20.1429 22.0089 20.8783C21.8032 21.2336 21.5534 21.5615 21.2655 21.8544C19.9622 23.0505 18.2315 23.6732 16.4632 23.582H7.52375C5.75262 23.6725 4.01916 23.0501 2.71169 21.8544C2.42723 21.5609 2.18078 21.233 1.97815 20.8783C1.53331 20.1434 1.24064 19.3269 1.11745 18.4772C1.03954 17.9989 1.0003 17.5152 1.00009 17.0307V17.2445C0.999959 16.925 1 16.4832 1.00004 16.0759C1.00006 15.868 1.00008 15.669 1.00007 15.5C1.01877 15.357 1.01364 15.2804 1.00746 15.1881C1.00394 15.1355 1.00007 15.0779 1.00007 15C1.06144 14.6422 1.04695 14.5357 1.02694 14.3885C1.01457 14.2975 1.00008 14.191 1.00008 14H6.50008H17.0001H20.5001H21.5001ZM12.562 17.8155H19.4009H19.413C19.5631 17.8261 19.7095 17.7391 19.8196 17.574C19.9297 17.409 19.9943 17.1796 19.9991 16.937C20.0075 16.7238 19.9642 16.5137 19.8782 16.3514C19.7793 16.1332 19.6227 16.0031 19.4553 16H12.562C12.2517 16 12.0001 16.4064 12.0001 16.9077C12.0001 17.4091 12.2517 17.8155 12.562 17.8155Z" fill="url(#paint2_linear_218_151)"/>
<defs>
<linearGradient id="paint0_linear_218_151" x1="11.9985" y1="18.3074" x2="11.9985" y2="1" gradientUnits="userSpaceOnUse">
<stop stop-color="#FD3A84"/>
<stop offset="1" stop-color="#FFA68D"/>
</linearGradient>
<linearGradient id="paint1_linear_218_151" x1="12.0004" y1="23" x2="12.0004" y2="4.40918" gradientUnits="userSpaceOnUse">
<stop stop-color="#FD3A84"/>
<stop offset="1" stop-color="#FFA68D"/>
</linearGradient>
<linearGradient id="paint2_linear_218_151" x1="12.0058" y1="23.5908" x2="12.0058" y2="14" gradientUnits="userSpaceOnUse">
<stop stop-color="#FD3A84"/>
<stop offset="1" stop-color="#FFA68D"/>
</linearGradient>
</defs>
</svg>
