<svg width="128" height="128" viewBox="0 0 128 128" fill="none" xmlns="http://www.w3.org/2000/svg">
<path d="M98.0772 13.0772C95.6423 10.6423 91.9226 10.0387 88.8427 11.5787L78.3301 16.835C72.836 19.582 72.3592 27.2395 77.4702 30.6468L95.5624 42.7083C100.879 46.2525 108 42.4414 108 36.0519V26.3137C108 24.192 107.157 22.1571 105.657 20.6569L98.0772 13.0772Z" fill="url(#paint0_linear_126_134)"/>
<path d="M25.1216 19.3018C23.0447 17.8544 20.4034 17.4805 18.0063 18.2944V18.2944C12.4474 20.1817 10.7703 27.2293 14.8832 31.4182L93.2873 111.271C94.7916 112.804 96.8486 113.667 98.9957 113.667H106.001C109.29 113.667 112.245 111.653 113.447 108.591L119.692 92.6903C121.045 89.244 119.857 85.3192 116.819 83.2024L25.1216 19.3018Z" fill="url(#paint1_linear_126_134)"/>
<path opacity="0.4" d="M26.5697 72.5713C22.0517 68.0528 14.321 70.3932 13.0678 76.6589L8.83962 97.7999C8.31507 100.423 9.13595 103.134 11.0272 105.025L21.6574 115.657C23.1577 117.157 25.1927 118 27.3145 118H38.7025C39.5618 118 40.4154 117.862 41.2306 117.59L51.7167 114.097C57.3596 112.218 59.0512 105.057 54.8458 100.851L26.5697 72.5713Z" fill="url(#paint2_linear_126_134)"/>
<defs>
<linearGradient id="paint0_linear_126_134" x1="107.876" y1="9.26626" x2="66.2078" y2="50.5872" gradientUnits="userSpaceOnUse">
<stop stop-color="#FE7970"/>
<stop offset="1" stop-color="#DC3282"/>
</linearGradient>
<linearGradient id="paint1_linear_126_134" x1="121.656" y1="17.6128" x2="27.1841" y2="130.036" gradientUnits="userSpaceOnUse">
<stop stop-color="#FE7970"/>
<stop offset="1" stop-color="#DC3282"/>
</linearGradient>
<linearGradient id="paint2_linear_126_134" x1="63.8341" y1="62.355" x2="8.27707" y2="117.45" gradientUnits="userSpaceOnUse">
<stop stop-color="#FE7970"/>
<stop offset="1" stop-color="#DC3282"/>
</linearGradient>
</defs>
</svg>
