<svg width="128" height="128" viewBox="0 0 128 128" fill="none" xmlns="http://www.w3.org/2000/svg">
<path d="M94.8161 62.3678C109.83 62.3678 122 50.1972 122 35.1834C122 20.1735 109.829 8 94.8161 8C79.8023 8 67.6322 20.173 67.6322 35.1839C67.6322 50.1977 79.8028 62.3678 94.8166 62.3678" fill="url(#paint0_linear_126_126)"/>
<path opacity="0.4" d="M33.1839 62.3678C48.1977 62.3678 60.3678 50.1972 60.3678 35.1834C60.3678 20.1735 48.1972 8 33.1834 8C18.1706 8 6 20.173 6 35.1839C6 50.1977 18.1706 62.3678 33.1839 62.3678Z" fill="url(#paint1_linear_126_126)"/>
<path opacity="0.4" d="M94.8161 125.368C109.83 125.368 122 113.197 122 98.1834C122 83.1735 109.829 71 94.8161 71C79.8023 71 67.6322 83.173 67.6322 98.1839C67.6322 113.198 79.8028 125.368 94.8166 125.368" fill="url(#paint2_linear_126_126)"/>
<path d="M33.1839 125.368C48.1977 125.368 60.3678 113.197 60.3678 98.1834C60.3678 83.1735 48.1972 71 33.1834 71C18.1706 71 6 83.173 6 98.1839C6 113.198 18.1706 125.368 33.1839 125.368Z" fill="url(#paint3_linear_126_126)"/>
<defs>
<linearGradient id="paint0_linear_126_126" x1="94.8161" y1="62.3678" x2="94.8161" y2="8" gradientUnits="userSpaceOnUse">
<stop stop-color="#FD4C00"/>
<stop offset="1" stop-color="#FFB800"/>
</linearGradient>
<linearGradient id="paint1_linear_126_126" x1="33.1839" y1="62.3678" x2="33.1839" y2="8" gradientUnits="userSpaceOnUse">
<stop stop-color="#00B59C"/>
<stop offset="1" stop-color="#9CFFAC"/>
</linearGradient>
<linearGradient id="paint2_linear_126_126" x1="94.8161" y1="125.368" x2="94.8161" y2="71" gradientUnits="userSpaceOnUse">
<stop stop-color="#00B59C"/>
<stop offset="1" stop-color="#9CFFAC"/>
</linearGradient>
<linearGradient id="paint3_linear_126_126" x1="33.1839" y1="125.368" x2="33.1839" y2="71" gradientUnits="userSpaceOnUse">
<stop stop-color="#FD2E00"/>
<stop offset="1" stop-color="#FF9900"/>
</linearGradient>
</defs>
</svg>
