<svg width="32" height="32" viewBox="0 0 32 32" fill="none" xmlns="http://www.w3.org/2000/svg">
<path opacity="0.4" d="M16 30C12.287 30 8.72601 28.525 6.10051 25.8995C3.475 23.274 2 19.713 2 16C2 12.287 3.475 8.72601 6.10051 6.10051C8.72601 3.475 12.287 2 16 2C19.713 2 23.274 3.475 25.8995 6.10051C28.525 8.72601 30 12.287 30 16C30 19.713 28.525 23.274 25.8995 25.8995C23.274 28.525 19.713 30 16 30Z" fill="url(#paint0_linear_8_957)"/>
<path fill-rule="evenodd" clip-rule="evenodd" d="M11.6449 5.98086C12.0675 5.0164 11.0443 3.39845 10.0973 3.85882C8.75941 4.50923 7.5259 5.38222 6.45406 6.45406C6.37914 6.52897 6.38432 6.65163 6.46588 6.71925C6.57614 6.81065 6.69041 6.90072 6.809 6.98918C7.61539 7.59367 8.58478 8.11559 9.67416 8.53879C10.2115 8.74751 10.7921 8.41613 10.9585 7.86427C11.162 7.18963 11.3915 6.55929 11.6449 5.98086ZM5.759 8.38918C5.43852 8.14922 4.97616 8.197 4.75465 8.5305C3.65046 10.1929 2.92653 12.083 2.63949 14.0639C2.55664 14.6357 3.01761 15.1249 3.59539 15.1249H8.91081C9.4533 15.1249 9.8952 14.6922 9.92445 14.1505C9.97412 13.2309 10.0606 12.3386 10.1811 11.4829C10.2516 10.9831 9.95421 10.5028 9.47895 10.3329C8.06585 9.82759 6.80355 9.17242 5.759 8.38918ZM3.59537 16.8749C3.0176 16.8749 2.55662 17.3641 2.63947 17.9359C2.92773 19.9254 3.65666 21.8233 4.76889 23.4909C4.98793 23.8193 5.44371 23.8657 5.759 23.6282C6.80409 22.8452 8.06717 22.1902 9.48116 21.685C9.95682 21.5151 10.2543 21.0344 10.1836 20.5342C10.0617 19.6733 9.97444 18.7752 9.92445 17.8494C9.8952 17.3077 9.45329 16.8749 8.9108 16.8749H3.59537ZM6.46517 25.2989C6.3891 25.3618 6.38425 25.4761 6.45406 25.5459C7.5259 26.6178 8.75942 27.4908 10.0973 28.1412C11.0443 28.6016 12.0675 26.9836 11.645 26.0192C11.3936 25.4454 11.1657 24.8206 10.9635 24.1521C10.7967 23.6008 10.2165 23.2699 9.67954 23.4782C8.58797 23.9018 7.61672 24.4244 6.809 25.0299C6.69015 25.1176 6.57564 25.2075 6.46517 25.2989ZM20.3551 26.0191C19.9326 26.9836 20.9558 28.6015 21.9027 28.1412C23.2406 27.4908 24.4741 26.6178 25.5459 25.5459C25.6026 25.4893 25.6587 25.4322 25.7142 25.3747C26.0191 25.0587 25.95 24.5483 25.569 24.3299C24.6302 23.7929 23.5506 23.348 22.3722 23.0093C21.8422 22.8569 21.308 23.1967 21.1599 23.7278C20.9284 24.5575 20.6589 25.3256 20.3551 26.0191ZM27.0643 25.3719C27.0651 25.371 27.0663 25.3709 27.0672 25.3716C27.0681 25.3723 27.0693 25.3722 27.0701 25.3714L28.1655 24.0906C28.188 24.0643 28.1848 24.0247 28.1583 24.0025C28.1339 23.9821 28.1286 23.9467 28.146 23.9201C29.6705 21.582 30.5 18.8338 30.5 16C30.5 13.1694 29.6724 10.4242 28.1511 8.08787C28.1351 8.06333 28.14 8.03067 28.1624 8.01176C28.1867 7.99119 28.1895 7.95481 28.1688 7.9306L27.315 6.93237C26.9846 6.52003 26.6303 6.12417 26.253 5.74695C23.5338 3.02767 19.8456 1.5 16 1.5C12.1544 1.5 8.46623 3.02767 5.74695 5.74695C3.02767 8.46623 1.5 12.1544 1.5 16C1.5 19.8456 3.02767 23.5338 5.74695 26.253C8.46623 28.9723 12.1544 30.5 16 30.5C19.8456 30.5 23.5338 28.9723 26.253 26.253C26.5366 25.9695 26.8071 25.6755 27.0643 25.3719ZM25.569 7.68918C25.9578 7.46922 26.0268 6.94942 25.7167 6.62793C25.6604 6.56951 25.6034 6.51155 25.5459 6.45406C24.4741 5.38223 23.2406 4.50924 21.9027 3.85884C20.9558 3.39847 19.9326 5.01639 20.3551 5.98085C20.6609 6.6789 20.932 7.45254 21.1644 8.28844C21.3122 8.82015 21.8469 9.1603 22.3772 9.00763C23.5537 8.66897 24.6316 8.22475 25.569 7.68918ZM27.8506 9.53357C27.5808 9.03923 26.9425 8.91733 26.4541 9.19765C26.449 9.20058 26.4439 9.20351 26.4388 9.20643C25.3218 9.84546 24.042 10.3646 22.6523 10.748C22.1439 10.8883 21.8091 11.381 21.8751 11.9041C21.9666 12.6301 22.034 13.3808 22.0756 14.1505C22.1048 14.6922 22.5467 15.1249 23.0892 15.1249H28.4046C28.9824 15.1249 29.4434 14.6358 29.3605 14.064C29.1298 12.4714 28.6166 10.9376 27.8506 9.53357ZM28.4046 16.8749C28.9824 16.8749 29.4434 17.3641 29.3605 17.9359C29.1291 19.533 28.6137 21.0711 27.844 22.4784C27.5737 22.9727 26.929 23.0885 26.4388 22.8109C25.3212 22.1723 24.0408 21.6535 22.6502 21.2702C22.1415 21.13 21.8066 20.6368 21.8729 20.1134C21.9656 19.3819 22.0337 18.6253 22.0756 17.8493C22.1048 17.3076 22.5467 16.8749 23.0892 16.8749H28.4046ZM13.0522 20.784C12.4921 20.8733 11.9502 20.5073 11.8766 19.9449C11.7907 19.2878 11.725 18.6051 11.6823 17.9019C11.6482 17.3399 12.102 16.8749 12.665 16.8749H19.335C19.8981 16.8749 20.3518 17.3398 20.3177 17.9019C20.2792 18.5371 20.2218 19.1557 20.1477 19.7539C20.0807 20.2949 19.5776 20.6625 19.035 20.6094C18.2784 20.5354 17.5055 20.4974 16.7227 20.4974C15.464 20.4974 14.2317 20.5958 13.0522 20.784ZM13.05 11.2348C12.4896 11.1453 11.9473 11.5117 11.8741 12.0745C11.7894 12.7256 11.7246 13.4018 11.6823 14.0979C11.6482 14.66 12.102 15.1249 12.6651 15.1249H19.335C19.8981 15.1249 20.3518 14.66 20.3177 14.098C20.2796 13.4697 20.2231 12.8577 20.1501 12.2657C20.0834 11.7243 19.58 11.3563 19.0371 11.4095C18.2798 11.4837 17.5063 11.5217 16.7227 11.5217C15.4632 11.5217 14.2302 11.4232 13.05 11.2348ZM16 3.75C17.283 3.75 18.5601 5.60796 19.4003 8.50993C19.564 9.07563 19.1732 9.64365 18.5864 9.69338C17.9757 9.74512 17.3532 9.77168 16.7227 9.77168C15.5792 9.77168 14.4628 9.68414 13.3977 9.51812C12.8389 9.43103 12.4891 8.87558 12.6516 8.33395C13.492 5.53306 14.7431 3.75 16 3.75ZM16.7227 22.2474C17.3512 22.2474 17.9719 22.2738 18.5808 22.3251C19.1681 22.3746 19.5592 22.9433 19.3947 23.5093C18.5544 26.4003 17.2802 28.25 16 28.25C14.746 28.25 13.4976 26.475 12.6574 23.6851C12.4942 23.1432 12.8441 22.5871 13.4033 22.5001C14.4667 22.3347 15.5812 22.2474 16.7227 22.2474Z" fill="url(#paint1_linear_8_957)"/>
<path d="M6.809 6.98918L7.1089 6.58911L7.10795 6.58839L6.809 6.98918ZM6.809 25.0299L7.10583 25.4323L7.1089 25.43L6.809 25.0299ZM25.5459 25.5459L25.1924 25.1924L25.5459 25.5459ZM27.315 6.93237L26.9249 7.24506L26.9298 7.25129L26.935 7.25735L27.315 6.93237ZM26.253 5.74695L26.6066 5.3934V5.3934L26.253 5.74695ZM5.74695 5.74695L6.10051 6.10051L5.74695 5.74695ZM5.74695 26.253L6.10051 25.8995L5.74695 26.253ZM25.5459 6.45406L25.1924 6.80761L25.5459 6.45406ZM26.4388 9.20643L26.687 9.64043L26.6871 9.64041L26.4388 9.20643ZM13.3977 9.51812L13.3207 10.0122L13.3977 9.51812ZM20.1501 12.2657L19.6539 12.3269L20.1501 12.2657ZM11.8766 19.9449L12.3724 19.8801L11.8766 19.9449ZM13.0522 20.784L12.9735 20.2902L13.0522 20.784ZM27.844 22.4784L28.2827 22.7183L27.844 22.4784ZM26.4388 22.8109L26.1907 23.2451L26.1924 23.2461L26.4388 22.8109ZM22.0756 14.1505L22.5748 14.1236L22.0756 14.1505ZM27.8506 9.53357L28.2895 9.29409L27.8506 9.53357ZM21.1644 8.28844L20.6827 8.42238L21.1644 8.28844ZM22.3772 9.00763L22.2389 8.52714L22.3772 9.00763ZM21.9027 3.85884L21.6841 4.30851L21.9027 3.85884ZM20.3551 5.98085L19.8971 6.18148L20.3551 5.98085ZM25.7167 6.62793L26.0766 6.28081L25.7167 6.62793ZM25.569 7.68918L25.3228 7.25401L25.321 7.25504L25.569 7.68918ZM27.0701 25.3714L26.6901 25.0464L27.0701 25.3714ZM22.3722 23.0093L22.234 23.4898L22.3722 23.0093ZM18.5808 22.3251L18.6228 21.8269L18.5808 22.3251ZM19.3947 23.5093L18.9145 23.3698L19.3947 23.5093ZM25.569 24.3299L25.8177 23.8961L25.8173 23.8959L25.569 24.3299ZM21.9027 28.1412L21.6841 27.6915L21.9027 28.1412ZM20.3551 26.0191L19.8971 25.8185L20.3551 26.0191ZM18.5864 9.69338L18.6286 10.1916L18.5864 9.69338ZM10.9635 24.1521L11.442 24.0073L10.9635 24.1521ZM9.67954 23.4782L9.86041 23.9444L9.67954 23.4782ZM10.0973 28.1412L9.87868 28.5909L10.0973 28.1412ZM11.645 26.0192L11.187 26.2198L11.645 26.0192ZM6.45406 25.5459L6.80761 25.1924L6.45406 25.5459ZM13.05 11.2348L12.9712 11.7285L13.05 11.2348ZM9.92445 17.8494L9.42517 17.8763L9.92445 17.8494ZM20.3177 17.9019L20.8168 17.9322L20.3177 17.9019ZM2.63947 17.9359L2.14464 18.0076L2.63947 17.9359ZM28.1688 7.9306L27.7888 8.25558L28.1688 7.9306ZM11.6823 17.9019L12.1814 17.8716L11.6823 17.9019ZM10.1811 11.4829L9.68603 11.4132L10.1811 11.4829ZM9.47895 10.3329L9.3106 10.8037L9.47895 10.3329ZM28.1511 8.08787L27.7321 8.36069L28.1511 8.08787ZM28.1624 8.01176L28.4852 8.39356L28.1624 8.01176ZM22.0756 17.8493L21.5763 17.8224L22.0756 17.8493ZM9.92445 14.1505L9.42518 14.1235L9.92445 14.1505ZM22.6502 21.2702L22.5174 21.7522L22.6502 21.2702ZM21.8729 20.1134L21.3769 20.0505L21.8729 20.1134ZM2.63949 14.0639L2.14466 13.9922L2.63949 14.0639ZM28.1655 24.0906L28.5455 24.4156L28.1655 24.0906ZM29.3605 17.9359L28.8657 17.8642L29.3605 17.9359ZM9.67416 8.53879L9.85522 8.07272L9.67416 8.53879ZM10.9585 7.86427L11.4372 8.00865L10.9585 7.86427ZM11.6823 14.0979L11.1832 14.0677L11.6823 14.0979ZM9.48116 21.685L9.64937 22.1559L9.48116 21.685ZM10.1836 20.5342L10.6786 20.4642L10.1836 20.5342ZM12.6574 23.6851L12.1786 23.8293L12.6574 23.6851ZM13.4033 22.5001L13.4802 22.9942L13.4033 22.5001ZM27.0672 25.3716L26.7436 25.7528L27.0672 25.3716ZM27.0643 25.3719L26.6828 25.0487L27.0643 25.3719ZM29.3605 14.064L29.8553 13.9923L29.3605 14.064ZM28.1583 24.0025L28.4792 23.6191L28.1583 24.0025ZM28.146 23.9201L27.7271 23.647L28.146 23.9201ZM20.1477 19.7539L20.6439 19.8153L20.1477 19.7539ZM19.035 20.6094L19.0837 20.1118L19.035 20.6094ZM4.76889 23.4909L4.35292 23.7683L4.76889 23.4909ZM5.759 23.6282L5.45921 23.228L5.45813 23.2288L5.759 23.6282ZM22.6523 10.748L22.5193 10.266L22.6523 10.748ZM21.8751 11.9041L21.379 11.9667L21.8751 11.9041ZM11.6449 5.98086L11.187 5.78022L11.6449 5.98086ZM9.87868 3.40914C8.49126 4.08364 7.21203 4.98898 6.10051 6.10051L6.80761 6.80761C7.83977 5.77546 9.02757 4.93482 10.3159 4.3085L9.87868 3.40914ZM7.10795 6.58839C6.99637 6.50517 6.88881 6.42039 6.78499 6.33432L6.14678 7.10418C6.26346 7.20091 6.38445 7.29628 6.51005 7.38997L7.10795 6.58839ZM9.85522 8.07272C8.8007 7.66306 7.87289 7.16181 7.1089 6.58911L6.5091 7.38926C7.35789 8.02553 8.36886 8.56811 9.49311 9.00485L9.85522 8.07272ZM11.187 5.78022C10.9246 6.37905 10.6884 7.02839 10.4798 7.71989L11.4372 8.00865C11.6356 7.35087 11.8585 6.73954 12.1029 6.18149L11.187 5.78022ZM4.33815 8.25386C3.19307 9.97783 2.44233 11.9379 2.14466 13.9922L3.13432 14.1356C3.41073 12.2281 4.10785 10.408 5.17114 8.80714L4.33815 8.25386ZM8.91081 14.6249H3.59539V15.6249H8.91081V14.6249ZM9.68603 11.4132C9.5634 12.2836 9.47558 13.1902 9.42518 14.1235L10.4237 14.1775C10.4726 13.2716 10.5578 12.3936 10.6762 11.5527L9.68603 11.4132ZM5.45904 8.78921C6.55018 9.60739 7.85867 10.2845 9.3106 10.8037L9.6473 9.86209C8.27303 9.37067 7.05691 8.73745 6.05896 7.98915L5.45904 8.78921ZM2.14464 18.0076C2.44357 20.0709 3.19949 22.039 4.35292 23.7683L5.18486 23.2135C4.11382 21.6076 3.41188 19.78 3.1343 17.8642L2.14464 18.0076ZM9.31294 21.2142C7.86014 21.7332 6.55089 22.4102 5.45921 23.228L6.05879 24.0283C7.05729 23.2803 8.2742 22.6472 9.64937 22.1559L9.31294 21.2142ZM9.42517 17.8763C9.47591 18.816 9.56457 19.7285 9.68849 20.6043L10.6786 20.4642C10.5589 19.6181 10.473 18.7344 10.4237 17.8224L9.42517 17.8763ZM3.59537 17.3749H8.9108V16.3749H3.59537V17.3749ZM6.10051 25.8995C7.21203 27.011 8.49126 27.9164 9.87868 28.5909L10.3159 27.6915C9.02758 27.0652 7.83977 26.2245 6.80761 25.1924L6.10051 25.8995ZM10.4849 24.2969C10.6922 24.9821 10.9268 25.6258 11.187 26.2198L12.1029 25.8185C11.8604 25.265 11.6392 24.659 11.442 24.0073L10.4849 24.2969ZM7.1089 25.43C7.87415 24.8564 8.80375 24.3544 9.86041 23.9444L9.49866 23.0121C8.37219 23.4492 7.35928 23.9925 6.5091 24.6299L7.1089 25.43ZM6.78391 25.6841C6.88762 25.5983 6.99483 25.5142 7.10582 25.4323L6.51218 24.6276C6.38547 24.721 6.26366 24.8166 6.14642 24.9136L6.78391 25.6841ZM22.1214 28.5908C23.5088 27.9164 24.788 27.011 25.8995 25.8995L25.1924 25.1924C24.1602 26.2245 22.9724 27.0652 21.6841 27.6915L22.1214 28.5908ZM25.8995 25.8995C25.9582 25.8408 26.0164 25.7816 26.074 25.7219L25.3544 25.0275C25.3009 25.0829 25.2469 25.1378 25.1924 25.1924L25.8995 25.8995ZM22.234 23.4898C23.3795 23.8191 24.4213 24.2494 25.3207 24.7639L25.8173 23.8959C24.8392 23.3364 23.7217 22.877 22.5103 22.5287L22.234 23.4898ZM20.8131 26.2198C21.1275 25.5019 21.4046 24.7113 21.6415 23.8622L20.6782 23.5935C20.4523 24.4037 20.1903 25.1493 19.8971 25.8185L20.8131 26.2198ZM27.4501 25.6964L28.5455 24.4156L27.7855 23.7656L26.6901 25.0464L27.4501 25.6964ZM30 16C30 18.736 29.1991 21.3895 27.7271 23.647L28.5648 24.1932C30.1419 21.7745 31 18.9315 31 16H30ZM27.7321 8.36069C29.2009 10.6165 30 13.2671 30 16H31C31 13.0718 30.1438 10.2319 28.5701 7.81504L27.7321 8.36069ZM28.5487 7.60562L27.695 6.60739L26.935 7.25735L27.7888 8.25558L28.5487 7.60562ZM25.8995 6.1005C26.2637 6.46473 26.6058 6.84694 26.9249 7.24506L27.7052 6.61968C27.3633 6.19312 26.9968 5.78361 26.6066 5.3934L25.8995 6.1005ZM16 2C19.713 2 23.274 3.475 25.8995 6.10051L26.6066 5.3934C23.7936 2.58035 19.9782 1 16 1V2ZM6.10051 6.10051C8.72601 3.475 12.287 2 16 2V1C12.0218 1 8.20644 2.58035 5.3934 5.3934L6.10051 6.10051ZM2 16C2 12.287 3.475 8.72601 6.10051 6.10051L5.3934 5.3934C2.58035 8.20644 1 12.0218 1 16H2ZM6.10051 25.8995C3.475 23.274 2 19.713 2 16H1C1 19.9782 2.58035 23.7936 5.3934 26.6066L6.10051 25.8995ZM16 30C12.287 30 8.72601 28.525 6.10051 25.8995L5.3934 26.6066C8.20644 29.4196 12.0218 31 16 31V30ZM25.8995 25.8995C23.274 28.525 19.713 30 16 30V31C19.9782 31 23.7936 29.4196 26.6066 26.6066L25.8995 25.8995ZM26.6828 25.0487C26.4345 25.3418 26.1732 25.6257 25.8995 25.8995L26.6066 26.6066C26.8999 26.3133 27.1798 26.0092 27.4459 25.695L26.6828 25.0487ZM26.0766 6.28081C26.0181 6.22023 25.9591 6.16013 25.8995 6.10051L25.1924 6.80761C25.2478 6.86298 25.3026 6.9188 25.3568 6.97505L26.0766 6.28081ZM25.8995 6.10051C24.788 4.98899 23.5088 4.08365 22.1214 3.40916L21.6841 4.30851C22.9724 4.93483 24.1602 5.77547 25.1924 6.80761L25.8995 6.10051ZM21.6461 8.15449C21.4082 7.29904 21.1296 6.50276 20.8131 5.78021L19.8971 6.18148C20.1922 6.85505 20.4557 7.60605 20.6827 8.42238L21.6461 8.15449ZM25.321 7.25504C24.4227 7.76822 23.3825 8.19794 22.2389 8.52714L22.5155 9.48812C23.7248 9.14 24.8404 8.68128 25.817 8.12332L25.321 7.25504ZM26.6871 9.64041C26.6924 9.63738 26.6977 9.63434 26.703 9.6313L26.2052 8.76399C26.2003 8.76682 26.1954 8.76964 26.1904 8.77245L26.6871 9.64041ZM22.7852 11.23C24.2099 10.8369 25.5292 10.3028 26.687 9.64043L26.1905 8.77244C25.1143 9.38809 23.8742 9.89218 22.5193 10.266L22.7852 11.23ZM22.5748 14.1236C22.5327 13.3423 22.4643 12.5798 22.3712 11.8416L21.379 11.9667C21.469 12.6805 21.5354 13.4192 21.5763 14.1775L22.5748 14.1236ZM28.4046 14.6249H23.0892V15.6249H28.4046V14.6249ZM29.8553 13.9923C29.616 12.3407 29.0839 10.7501 28.2895 9.29409L27.4117 9.77306C28.1494 11.1251 28.6435 12.6021 28.8657 14.1357L29.8553 13.9923ZM28.2827 22.7183C29.0809 21.2589 29.6154 19.6639 29.8554 18.0076L28.8657 17.8642C28.6429 19.4022 28.1466 20.8833 27.4054 22.2385L28.2827 22.7183ZM26.6868 22.3768C25.5285 21.7149 24.2085 21.1811 22.7831 20.7882L22.5174 21.7522C23.8731 22.1259 25.114 22.6298 26.1907 23.2451L26.6868 22.3768ZM22.3689 20.1762C22.4632 19.4324 22.5323 18.6639 22.5749 17.8763L21.5763 17.8224C21.535 18.5868 21.468 19.3313 21.3769 20.0505L22.3689 20.1762ZM23.0892 17.3749H28.4046V16.3749H23.0892V17.3749ZM11.1832 17.9322C11.2266 18.6467 11.2934 19.341 11.3809 20.0098L12.3724 19.8801C12.288 19.2345 12.2234 18.5634 12.1814 17.8716L11.1832 17.9322ZM19.335 16.3749H12.665V17.3749H19.335V16.3749ZM20.6439 19.8153C20.7193 19.2067 20.7776 18.5777 20.8168 17.9322L19.8186 17.8716C19.7807 18.4966 19.7243 19.1047 19.6515 19.6924L20.6439 19.8153ZM16.7227 20.9974C17.4894 20.9974 18.246 21.0346 18.9863 21.107L19.0837 20.1118C18.3108 20.0362 17.5217 19.9974 16.7227 19.9974V20.9974ZM13.131 21.2777C14.2839 21.0938 15.4899 20.9974 16.7227 20.9974V19.9974C15.4381 19.9974 14.1795 20.0978 12.9735 20.2902L13.131 21.2777ZM12.1814 14.1282C12.223 13.4434 12.2867 12.7786 12.3699 12.139L11.3783 12.01C11.2921 12.6727 11.2262 13.3602 11.1832 14.0677L12.1814 14.1282ZM19.335 14.6249H12.6651V15.6249H19.335V14.6249ZM19.6539 12.3269C19.7256 12.9085 19.7811 13.5102 19.8186 14.1282L20.8168 14.0677C20.778 13.4292 20.7206 12.807 20.6464 12.2046L19.6539 12.3269ZM16.7227 12.0217C17.5224 12.0217 18.3122 11.9829 19.0859 11.9071L18.9884 10.9119C18.2474 10.9844 17.4901 11.0217 16.7227 11.0217V12.0217ZM12.9712 11.7285C14.1779 11.9212 15.4373 12.0217 16.7227 12.0217V11.0217C15.4891 11.0217 14.2824 10.9252 13.1288 10.741L12.9712 11.7285ZM19.8805 8.37088C19.4514 6.8888 18.9025 5.64165 18.2745 4.75314C17.6612 3.88543 16.8909 3.25 16 3.25V4.25C16.3922 4.25 16.9018 4.54355 17.4579 5.33031C17.9992 6.09627 18.5089 7.22909 18.92 8.64898L19.8805 8.37088ZM16.7227 10.2717C17.3672 10.2717 18.0038 10.2445 18.6286 10.1916L18.5442 9.19516C17.9476 9.24571 17.3391 9.27168 16.7227 9.27168V10.2717ZM13.3207 10.0122C14.4117 10.1822 15.5538 10.2717 16.7227 10.2717V9.27168C15.6045 9.27168 14.5139 9.18607 13.4747 9.02409L13.3207 10.0122ZM16 3.25C15.1268 3.25 14.3697 3.86088 13.7643 4.69885C13.1453 5.55575 12.6022 6.75887 12.1727 8.19027L13.1305 8.47764C13.5414 7.10814 14.0441 6.01929 14.5749 5.28444C15.1195 4.53065 15.6163 4.25 16 4.25V3.25ZM18.6228 21.8269C17.9998 21.7744 17.3652 21.7474 16.7227 21.7474V22.7474C17.3373 22.7474 17.9439 22.7732 18.5387 22.8233L18.6228 21.8269ZM16 28.75C16.889 28.75 17.6579 28.1173 18.2703 27.2528C18.8973 26.3678 19.4456 25.1254 19.8748 23.6489L18.9145 23.3698C18.5034 24.7842 17.9945 25.9122 17.4543 26.6747C16.8995 27.4579 16.3912 27.75 16 27.75V28.75ZM12.1786 23.8293C12.6081 25.2552 13.1505 26.4535 13.7686 27.307C14.373 28.1418 15.1288 28.75 16 28.75V27.75C15.6172 27.75 15.1218 27.4707 14.5785 26.7205C14.0488 25.989 13.5469 24.9049 13.1361 23.5409L12.1786 23.8293ZM16.7227 21.7474C15.5559 21.7474 14.4157 21.8366 13.3264 22.0061L13.4802 22.9942C14.5177 22.8327 15.6065 22.7474 16.7227 22.7474V21.7474ZM13.4747 9.02409C13.2158 8.98373 13.0551 8.72901 13.1305 8.47764L12.1727 8.19027C11.9231 9.02216 12.4621 9.87832 13.3207 10.0122L13.4747 9.02409ZM20.6464 12.2046C20.5435 11.3693 19.7759 10.8348 18.9884 10.9119L19.0859 11.9071C19.3842 11.8779 19.6234 12.0794 19.6539 12.3269L20.6464 12.2046ZM11.3809 20.0098C11.4946 20.8789 12.321 21.4069 13.131 21.2777L12.9735 20.2902C12.6633 20.3397 12.4059 20.1356 12.3724 19.8801L11.3809 20.0098ZM27.4054 22.2385C27.2964 22.4377 26.9856 22.5459 26.6851 22.3758L26.1924 23.2461C26.8725 23.631 27.851 23.5077 28.2827 22.7183L27.4054 22.2385ZM21.5763 14.1775C21.6194 14.9752 22.2719 15.6249 23.0892 15.6249V14.6249C22.8216 14.6249 22.5903 14.4093 22.5748 14.1236L21.5763 14.1775ZM26.703 9.6313C26.9939 9.46434 27.3001 9.56866 27.4117 9.77306L28.2895 9.29409C27.8616 8.50981 26.8911 8.37032 26.2052 8.76399L26.703 9.6313ZM20.6827 8.42238C20.8958 9.18906 21.6865 9.72676 22.5155 9.48812L22.2389 8.52714C22.0072 8.59384 21.7286 8.45123 21.6461 8.15449L20.6827 8.42238ZM22.1214 3.40916C21.7316 3.21969 21.3321 3.25086 20.9936 3.40605C20.668 3.55534 20.4003 3.81579 20.2033 4.10229C19.8242 4.65375 19.5921 5.48521 19.8971 6.18148L20.8131 5.78021C20.6956 5.51203 20.7637 5.0523 21.0274 4.66877C21.1518 4.48778 21.291 4.36979 21.4104 4.31506C21.5169 4.26623 21.6004 4.2678 21.6841 4.30851L22.1214 3.40916ZM25.3568 6.97505C25.4461 7.06762 25.4195 7.19928 25.3228 7.25401L25.8152 8.12435C26.496 7.73916 26.6075 6.83123 26.0766 6.28081L25.3568 6.97505ZM26.7436 25.7528C26.9542 25.9316 27.2701 25.9067 27.4501 25.6964L26.6901 25.0464C26.8686 24.8377 27.1819 24.8131 27.3908 24.9905L26.7436 25.7528ZM22.5103 22.5287C21.6819 22.2906 20.8919 22.8276 20.6782 23.5935L21.6415 23.8622C21.7242 23.5657 22.0025 23.4233 22.234 23.4898L22.5103 22.5287ZM18.5387 22.8233C18.8118 22.8464 18.9908 23.1074 18.9145 23.3698L19.8748 23.6489C20.1276 22.7793 19.5244 21.9029 18.6228 21.8269L18.5387 22.8233ZM26.074 25.7219C26.6018 25.1749 26.4854 24.2789 25.8177 23.8961L25.3203 24.7637C25.4146 24.8178 25.4365 24.9424 25.3544 25.0275L26.074 25.7219ZM21.6841 27.6915C21.6004 27.7322 21.5169 27.7338 21.4104 27.6849C21.291 27.6302 21.1518 27.5122 21.0274 27.3312C20.7638 26.9477 20.6956 26.488 20.8131 26.2198L19.8971 25.8185C19.5921 26.5148 19.8242 27.3462 20.2033 27.8977C20.4003 28.1842 20.668 28.4447 20.9936 28.5939C21.3321 28.7491 21.7316 28.7803 22.1214 28.5908L21.6841 27.6915ZM18.92 8.64898C18.9959 8.91134 18.8169 9.17205 18.5442 9.19516L18.6286 10.1916C19.5295 10.1152 20.1321 9.23992 19.8805 8.37088L18.92 8.64898ZM11.442 24.0073C11.2028 23.2165 10.3438 22.6842 9.49866 23.0121L9.86041 23.9444C10.0892 23.8556 10.3906 23.9851 10.4849 24.2969L11.442 24.0073ZM9.87868 28.5909C10.2684 28.7803 10.668 28.7492 11.0064 28.594C11.332 28.4447 11.5998 28.1842 11.7967 27.8977C12.1758 27.3463 12.408 26.5148 12.1029 25.8185L11.187 26.2198C11.3045 26.488 11.2363 26.9477 10.9726 27.3312C10.8482 27.5122 10.709 27.6302 10.5896 27.685C10.4831 27.7338 10.3997 27.7322 10.3159 27.6915L9.87868 28.5909ZM19.335 15.6249C20.175 15.6249 20.869 14.9282 20.8168 14.0677L19.8186 14.1282C19.8346 14.3918 19.6211 14.6249 19.335 14.6249V15.6249ZM6.80761 25.1924C6.94413 25.3289 6.93716 25.5573 6.78391 25.6841L6.14642 24.9136C5.84105 25.1663 5.82437 25.6234 6.10051 25.8995L6.80761 25.1924ZM12.3699 12.139C12.4032 11.8832 12.6608 11.679 12.9712 11.7285L13.1288 10.741C12.3184 10.6116 11.4915 11.1402 11.3783 12.01L12.3699 12.139ZM10.4237 17.8224C10.3806 17.0247 9.72816 16.3749 8.9108 16.3749V17.3749C9.17843 17.3749 9.40975 17.5906 9.42517 17.8763L10.4237 17.8224ZM19.335 17.3749C19.6212 17.3749 19.8346 17.6081 19.8186 17.8716L20.8168 17.9322C20.869 17.0716 20.175 16.3749 19.335 16.3749V17.3749ZM3.1343 17.8642C3.09905 17.6209 3.2944 17.3749 3.59537 17.3749V16.3749C2.7408 16.3749 2.0142 17.1073 2.14464 18.0076L3.1343 17.8642ZM28.4852 8.39356C28.7233 8.19228 28.7479 7.8385 28.5487 7.60562L27.7888 8.25558C27.631 8.07112 27.6501 7.79011 27.8395 7.62996L28.4852 8.39356ZM12.1814 17.8716C12.1654 17.6081 12.3789 17.3749 12.665 17.3749V16.3749C11.825 16.3749 11.131 17.0716 11.1832 17.9322L12.1814 17.8716ZM10.6762 11.5527C10.7805 10.8127 10.3408 10.1101 9.6473 9.86209L9.3106 10.8037C9.56761 10.8956 9.7226 11.1536 9.68603 11.4132L10.6762 11.5527ZM28.5701 7.81504C28.6923 8.00261 28.6546 8.25036 28.4852 8.39356L27.8395 7.62996C27.6255 7.81097 27.578 8.12405 27.7321 8.36069L28.5701 7.81504ZM22.5749 17.8763C22.5903 17.5906 22.8216 17.3749 23.0892 17.3749V16.3749C22.2719 16.3749 21.6194 17.0247 21.5763 17.8224L22.5749 17.8763ZM8.91081 15.6249C9.72816 15.6249 10.3806 14.9752 10.4237 14.1775L9.42518 14.1235C9.40975 14.4093 9.17844 14.6249 8.91081 14.6249V15.6249ZM22.7831 20.7882C22.5096 20.7128 22.3344 20.4484 22.3689 20.1762L21.3769 20.0505C21.2787 20.8252 21.7735 21.5472 22.5174 21.7522L22.7831 20.7882ZM2.14466 13.9922C2.01421 14.8925 2.74081 15.6249 3.59539 15.6249V14.6249C3.29441 14.6249 3.09907 14.379 3.13432 14.1356L2.14466 13.9922ZM28.5455 24.4156C28.7476 24.1792 28.7204 23.821 28.4792 23.6191L27.8373 24.386C27.6492 24.2285 27.6283 23.9494 27.7855 23.7656L28.5455 24.4156ZM29.8554 18.0076C29.9858 17.1073 29.2592 16.3749 28.4046 16.3749V17.3749C28.7056 17.3749 28.901 17.6209 28.8657 17.8642L29.8554 18.0076ZM9.49311 9.00485C10.3388 9.33339 11.1985 8.80028 11.4372 8.00865L10.4798 7.71989C10.3857 8.03197 10.0841 8.16163 9.85522 8.07272L9.49311 9.00485ZM11.1832 14.0677C11.131 14.9282 11.825 15.6249 12.6651 15.6249V14.6249C12.3789 14.6249 12.1654 14.3918 12.1814 14.1282L11.1832 14.0677ZM9.64937 22.1559C10.3435 21.9079 10.7834 21.2046 10.6786 20.4642L9.68849 20.6043C9.72525 20.8641 9.57016 21.1223 9.31294 21.2142L9.64937 22.1559ZM13.1361 23.5409C13.0604 23.2895 13.2211 23.0345 13.4802 22.9942L13.3264 22.0061C12.4672 22.1398 11.9279 22.9969 12.1786 23.8293L13.1361 23.5409ZM27.3908 24.9905C27.1796 24.8111 26.8624 24.8367 26.6828 25.0487L27.4459 25.695C27.2677 25.9053 26.9531 25.9307 26.7436 25.7528L27.3908 24.9905ZM28.4046 15.6249C29.2592 15.6249 29.9858 14.8926 29.8553 13.9923L28.8657 14.1357C28.9009 14.379 28.7056 14.6249 28.4046 14.6249V15.6249ZM6.10051 6.10051C5.8193 6.38171 5.83633 6.84682 6.14678 7.10418L6.78499 6.33432C6.93231 6.45645 6.93899 6.67624 6.80761 6.80761L6.10051 6.10051ZM28.4792 23.6191C28.6489 23.7612 28.6858 24.0076 28.5648 24.1932L27.7271 23.647C27.5714 23.8857 27.6189 24.2031 27.8373 24.386L28.4792 23.6191ZM5.17114 8.80714C5.19509 8.77109 5.23174 8.74738 5.28364 8.74069C5.33879 8.73358 5.4039 8.74793 5.45932 8.78942L6.05868 7.98894C5.54211 7.60216 4.74103 7.64731 4.33815 8.25386L5.17114 8.80714ZM19.6515 19.6924C19.6209 19.9397 19.3818 20.1409 19.0837 20.1118L18.9863 21.107C19.7733 21.184 20.5405 20.6501 20.6439 19.8153L19.6515 19.6924ZM4.35292 23.7683C4.75367 24.3692 5.5483 24.413 6.05987 24.0275L5.45813 23.2288C5.40524 23.2687 5.34321 23.2824 5.29086 23.2758C5.24174 23.2695 5.2074 23.2473 5.18486 23.2135L4.35292 23.7683ZM22.5193 10.266C21.7759 10.4711 21.2814 11.1924 21.379 11.9667L22.3712 11.8416C22.3369 11.5695 22.512 11.3054 22.7852 11.23L22.5193 10.266ZM10.3159 4.3085C10.3996 4.26778 10.4831 4.26621 10.5896 4.31505C10.709 4.36978 10.8482 4.48777 10.9726 4.66877C11.2363 5.0523 11.3045 5.51204 11.187 5.78022L12.1029 6.18149C12.408 5.48522 12.1758 4.65376 11.7967 4.1023C11.5998 3.81579 11.332 3.55533 11.0064 3.40604C10.6679 3.25085 10.2684 3.21968 9.87868 3.40914L10.3159 4.3085Z" fill="url(#paint2_linear_8_957)"/>
<defs>
<linearGradient id="paint0_linear_8_957" x1="16" y1="30" x2="16" y2="2" gradientUnits="userSpaceOnUse">
<stop stop-color="#5570FF"/>
<stop offset="1" stop-color="#4DD3FF"/>
</linearGradient>
<linearGradient id="paint1_linear_8_957" x1="16" y1="30.5" x2="16" y2="1.5" gradientUnits="userSpaceOnUse">
<stop stop-color="#5570FF"/>
<stop offset="1" stop-color="#4DD3FF"/>
</linearGradient>
<linearGradient id="paint2_linear_8_957" x1="16" y1="30.5" x2="16" y2="1.5" gradientUnits="userSpaceOnUse">
<stop stop-color="#5570FF"/>
<stop offset="1" stop-color="#4DD3FF"/>
</linearGradient>
</defs>
</svg>
