<svg width="24" height="24" viewBox="0 0 24 24" fill="none" xmlns="http://www.w3.org/2000/svg">
<path d="M1 12.1362C1 5.98622 5.92462 1 11.9998 1C18.075 1 22.9997 5.98622 22.9997 12.1362V17.9034C22.9997 18.8021 22.9997 19.4192 22.8424 19.9604C22.6913 20.4815 22.4323 20.9651 22.0823 21.3797C21.7323 21.7943 21.2991 22.1308 20.8107 22.3672C20.3069 22.6092 19.7063 22.7049 18.8296 22.8446L18.6866 22.8666C18.4212 22.9124 18.1545 22.9509 17.8869 22.9821C17.657 23.0041 17.4227 23.0118 17.183 22.9645C16.7931 22.8857 16.4302 22.7076 16.1294 22.4475C15.8286 22.1873 15.6 21.8539 15.4659 21.4795C15.3893 21.2527 15.3463 21.0159 15.3383 20.7766C15.3251 20.5522 15.3251 20.2794 15.3251 19.9604V15.3702C15.3251 14.9027 15.3251 14.5001 15.4318 14.1547C15.5502 13.7686 15.7677 13.4203 16.0626 13.1443C16.3575 12.8683 16.7195 12.6744 17.1126 12.5817C17.4601 12.5014 17.8572 12.5333 18.3181 12.5707L18.4204 12.5784L18.5414 12.5894C19.4027 12.6576 19.9934 12.7038 20.4939 12.8919C20.8459 13.0239 21.1715 13.2043 21.4652 13.4276V12.1362C21.4652 6.84421 17.227 2.55428 11.9998 2.55428C6.77271 2.55428 2.53448 6.84421 2.53448 12.1362V13.4276C2.82817 13.2043 3.15377 13.0228 3.50576 12.8919C4.00625 12.7049 4.59694 12.6576 5.45823 12.5883L5.57923 12.5784L5.68153 12.5707C6.14352 12.5333 6.53952 12.5014 6.88711 12.5817C7.2802 12.6744 7.64218 12.8683 7.93705 13.1443C8.23193 13.4203 8.44941 13.7686 8.56788 14.1547C8.67568 14.5001 8.67458 14.9027 8.67458 15.3702V19.9593C8.67458 20.2794 8.67458 20.5533 8.66138 20.7766C8.64818 21.0109 8.61738 21.2463 8.53378 21.4784C8.39972 21.8526 8.17133 22.186 7.87072 22.4461C7.57011 22.7063 7.20744 22.8844 6.81781 22.9634C6.58504 23.0048 6.34736 23.0111 6.11272 22.9821C5.89162 22.9601 5.62433 22.9172 5.31303 22.8677L5.17004 22.8457C4.29335 22.7049 3.69166 22.6092 3.18897 22.3661C2.70059 22.1297 2.26735 21.7932 1.91735 21.3786C1.56735 20.964 1.3084 20.4804 1.1573 19.9593C1.0275 19.5138 1.0044 19.0166 1.0011 18.3522L1 18.1377V12.1362Z" fill="url(#paint0_linear_128_85)"/>
<path opacity="0.5" fill-rule="evenodd" clip-rule="evenodd" d="M11.9998 5.12494C12.2186 5.12494 12.4285 5.21186 12.5832 5.36657C12.7379 5.52129 12.8248 5.73113 12.8248 5.94993V11.4498C12.8248 11.6686 12.7379 11.8785 12.5832 12.0332C12.4285 12.1879 12.2186 12.2748 11.9998 12.2748C11.781 12.2748 11.5712 12.1879 11.4165 12.0332C11.2617 11.8785 11.1748 11.6686 11.1748 11.4498V5.94993C11.1748 5.73113 11.2617 5.52129 11.4165 5.36657C11.5712 5.21186 11.781 5.12494 11.9998 5.12494ZM15.2998 6.77491C15.5186 6.77491 15.7284 6.86183 15.8831 7.01655C16.0378 7.17126 16.1248 7.3811 16.1248 7.5999V9.79987C16.1248 10.0187 16.0378 10.2285 15.8831 10.3832C15.7284 10.5379 15.5186 10.6249 15.2998 10.6249C15.081 10.6249 14.8711 10.5379 14.7164 10.3832C14.5617 10.2285 14.4748 10.0187 14.4748 9.79987V7.5999C14.4748 7.3811 14.5617 7.17126 14.7164 7.01655C14.8711 6.86183 15.081 6.77491 15.2998 6.77491ZM8.69987 6.77491C8.91867 6.77491 9.1285 6.86183 9.28322 7.01655C9.43793 7.17126 9.52485 7.3811 9.52485 7.5999V9.79987C9.52485 10.0187 9.43793 10.2285 9.28322 10.3832C9.1285 10.5379 8.91867 10.6249 8.69987 10.6249C8.48107 10.6249 8.27123 10.5379 8.11651 10.3832C7.9618 10.2285 7.87488 10.0187 7.87488 9.79987V7.5999C7.87488 7.3811 7.9618 7.17126 8.11651 7.01655C8.27123 6.86183 8.48107 6.77491 8.69987 6.77491Z" fill="url(#paint1_linear_128_85)"/>
<defs>
<linearGradient id="paint0_linear_128_85" x1="11.9998" y1="23" x2="11.9998" y2="1" gradientUnits="userSpaceOnUse">
<stop stop-color="#FF1B71"/>
<stop offset="0.9998" stop-color="#FF867E"/>
<stop offset="0.9999" stop-color="#FF6678"/>
</linearGradient>
<linearGradient id="paint1_linear_128_85" x1="11.9998" y1="12.2748" x2="11.9998" y2="5.12494" gradientUnits="userSpaceOnUse">
<stop stop-color="#FF1B71"/>
<stop offset="0.9998" stop-color="#FF867E"/>
<stop offset="0.9999" stop-color="#FF6678"/>
</linearGradient>
</defs>
</svg>
