<svg width="32" height="32" viewBox="0 0 32 32" fill="none" xmlns="http://www.w3.org/2000/svg">
<path opacity="0.4" fill-rule="evenodd" clip-rule="evenodd" d="M19.1748 1H26.766C27.889 1 28.9658 1.44606 29.7598 2.24006C30.5539 3.03406 30.9999 4.11095 30.9999 5.23382V12.8251C30.9998 13.3865 30.7766 13.9248 30.3797 14.3217L14.9411 29.7604C14.147 30.554 13.0703 31 11.9477 31C10.825 31 9.74834 30.554 8.95443 29.7604L2.23961 23.0456C1.44588 22.2515 1 21.1748 1 20.0523C1 18.9295 1.44588 17.8528 2.23961 17.0589L17.6781 1.62025C18.0751 1.22323 18.6135 1.00013 19.1748 1Z" fill="url(#paint0_linear_19_105)"/>
<path d="M17.8992 10.3756C17.6517 10.1416 17.302 10.0493 16.9717 10.1327C15.53 10.4966 14.0944 10.8857 12.6698 11.3038C12.491 11.3562 12.3314 11.417 12.1827 11.4834C12.0043 11.5631 11.8265 11.7032 11.6733 11.8463C11.3824 12.1179 11.0827 12.549 11.0257 12.9428C10.9933 13.1667 10.9915 13.4139 11.0207 13.6877C11.189 15.2646 11.4176 16.8355 11.6462 18.4056C11.6729 18.5891 11.7016 18.7728 11.7306 18.9564C11.7651 19.1751 11.871 19.3763 12.0319 19.5284L14.241 21.6174C14.4926 21.8552 14.8494 21.9461 15.184 21.8572C16.5834 21.4857 17.9818 21.1105 19.3801 20.7347C19.5435 20.6907 19.693 20.6061 19.8148 20.4886C20.1861 20.1303 20.6768 19.6564 20.9959 19.3485V19.3485C20.9985 19.346 20.9998 19.3425 20.9996 19.339C20.9809 19.0756 20.9623 18.8145 20.9433 18.549C20.9198 18.2184 20.6007 17.9911 20.2806 18.077V18.077C18.7312 18.493 17.178 18.8981 15.6337 19.3315C15.1903 19.456 15.0173 19.3254 14.9823 18.9113C14.9651 18.7092 14.9414 18.5075 14.9147 18.2962C14.8675 17.9224 15.1035 17.5764 15.4662 17.4741V17.4741C16.6569 17.1375 17.8574 16.8293 19.0346 16.4541C20.1145 16.1099 20.5823 15.4929 20.5137 14.4148C20.4845 13.9562 20.4426 13.4971 20.3881 13.0391C20.361 12.8116 20.2529 12.6018 20.0864 12.4443L17.8992 10.3756ZM16.8676 12.4642C17.0184 12.4629 17.1081 12.5456 17.1338 12.7494C17.2046 13.313 17.3072 13.8736 17.3474 14.4387C17.358 14.5858 17.2193 14.8437 17.0926 14.8828C16.6085 15.0326 16.1189 15.1666 15.6159 15.3002C15.0332 15.4551 14.4388 15.0632 14.3581 14.4657C14.3154 14.1497 14.2789 13.8409 14.2565 13.5312C14.2457 13.3831 14.4297 13.1284 14.5793 13.0794C15.2744 12.8538 15.9902 12.6872 16.6961 12.4919C16.7598 12.4744 16.8173 12.4646 16.8676 12.4642Z" fill="url(#paint1_linear_19_105)"/>
<defs>
<linearGradient id="paint0_linear_19_105" x1="15.9999" y1="1" x2="15.9999" y2="31" gradientUnits="userSpaceOnUse">
<stop stop-color="#BAFA52"/>
<stop offset="1" stop-color="#3F8F5B"/>
</linearGradient>
<linearGradient id="paint1_linear_19_105" x1="16" y1="10" x2="16" y2="22" gradientUnits="userSpaceOnUse">
<stop stop-color="#BAFA52"/>
<stop offset="1" stop-color="#3F8F5B"/>
</linearGradient>
</defs>
</svg>
