<svg width="32" height="32" viewBox="0 0 32 32" fill="none" xmlns="http://www.w3.org/2000/svg">
<path d="M14.9757 20.1941H3.63324C3.20782 18.8345 2.99427 17.4175 3.00012 15.9929C3.00012 14.525 3.21145 13.1179 3.63324 11.7918H22.2544C22.8068 11.7898 23.3542 11.8971 23.8651 12.1075C24.3759 12.3179 24.8401 12.6272 25.231 13.0176C25.6218 13.4081 25.9316 13.8719 26.1425 14.3826C26.3534 14.8932 26.4613 15.4405 26.4599 15.9929C26.4627 16.5427 26.357 17.0877 26.1488 17.5966C25.9406 18.1055 25.6341 18.5683 25.2468 18.9586C24.8595 19.3488 24.399 19.6588 23.8917 19.8708C23.3844 20.0828 22.8403 20.1927 22.2905 20.1941H14.9757ZM23.5558 10.3926C24.5096 10.3906 25.4533 10.1972 26.331 9.82395C27.2088 9.45066 28.0026 8.90504 28.6657 8.21939C27.2648 6.13064 25.3285 4.45655 23.0593 3.37213C20.79 2.2877 18.2712 1.83276 15.7659 2.05485C13.2607 2.27695 10.8612 3.16792 8.81811 4.63464C6.77504 6.10136 5.16348 8.08998 4.15188 10.3926H23.5558Z" fill="url(#paint0_linear_80_685)"/>
<path opacity="0.4" d="M4.15186 21.6065H14.4473L23.5549 21.5933C24.5092 21.5977 25.453 21.7931 26.3306 22.168C27.2082 22.5429 28.0018 23.0897 28.6648 23.7762C26.142 27.5097 21.8766 29.9999 17.0062 29.9999C14.2673 30.0082 11.5874 29.2037 9.30575 27.6885C7.02906 26.2098 5.2369 24.0949 4.15186 21.6065Z" fill="url(#paint1_linear_80_685)"/>
<defs>
<linearGradient id="paint0_linear_80_685" x1="3.00376" y1="10.8275" x2="28.6699" y2="10.8275" gradientUnits="userSpaceOnUse">
<stop stop-color="#A93AFF"/>
<stop offset="1" stop-color="#FF81FF"/>
</linearGradient>
<linearGradient id="paint1_linear_80_685" x1="4.15545" y1="25.6721" x2="28.6688" y2="25.6721" gradientUnits="userSpaceOnUse">
<stop stop-color="#A93AFF"/>
<stop offset="1" stop-color="#FF81FF"/>
</linearGradient>
</defs>
</svg>
