<svg width="64" height="64" viewBox="0 0 64 64" fill="none" xmlns="http://www.w3.org/2000/svg">
<path opacity="0.4" d="M60 32C60 16.536 47.464 4 32 4C16.536 4 4 16.536 4 32C4 47.464 16.536 60 32 60C47.464 60 60 47.464 60 32Z" fill="url(#paint0_linear_231_194)"/>
<path d="M38.8558 11.0082C38.8528 11.0132 38.8473 11.0163 38.8414 11.0163C34.4984 11.0215 30.979 14.5441 30.979 18.8883C30.979 18.9952 30.9826 19.1003 30.9893 19.2039C31.0438 20.0563 30.7377 20.9129 30.0123 21.3637L23.9978 25.1008C23.2692 25.5535 22.3444 25.4665 21.5908 25.0567C20.4868 24.4564 19.2206 24.1265 17.8719 24.1265C13.5245 24.1265 10 27.651 10 31.9984C10 36.3458 13.5245 39.8703 17.8719 39.8703C19.2258 39.8703 20.501 39.53 21.6143 38.9288C22.3602 38.526 23.2734 38.4475 23.9935 38.895L29.9717 42.6095C30.723 43.0763 31.0275 43.9786 30.9824 44.862C30.978 44.9497 30.9757 45.0383 30.9757 45.1281C30.9757 49.4755 34.5002 53 38.8476 53C43.195 53 46.7195 49.4755 46.7195 45.1281C46.7195 40.7807 43.195 37.2561 38.8476 37.2561C37.4938 37.2561 36.2186 37.5965 35.1053 38.1977C34.3593 38.6005 33.4461 38.6789 32.726 38.2315L26.6941 34.4836C25.9687 34.0328 25.6626 33.1762 25.7171 32.3238C25.7238 32.2201 25.7274 32.1151 25.7274 32.0082C25.7274 31.9013 25.7238 31.7962 25.7171 31.6925C25.6626 30.8402 25.9687 29.9835 26.6941 29.5327L32.7357 25.7788C33.4511 25.3343 34.3575 25.4086 35.0998 25.8063C36.2216 26.4074 37.4991 26.7439 38.8607 26.7439C43.2081 26.7439 46.7327 23.2193 46.7327 18.8719C46.7327 14.5277 43.2133 11.0052 38.8703 11C38.8644 11 38.8589 11.0031 38.8558 11.0082V11.0082Z" fill="white"/>
<path d="M38.8558 11.0082C38.8528 11.0132 38.8473 11.0163 38.8414 11.0163C34.4984 11.0215 30.979 14.5441 30.979 18.8883C30.979 18.9952 30.9826 19.1003 30.9893 19.2039C31.0438 20.0563 30.7377 20.9129 30.0123 21.3637L23.9978 25.1008C23.2692 25.5535 22.3444 25.4665 21.5908 25.0567C20.4868 24.4564 19.2206 24.1265 17.8719 24.1265C13.5245 24.1265 10 27.651 10 31.9984C10 36.3458 13.5245 39.8703 17.8719 39.8703C19.2258 39.8703 20.501 39.53 21.6143 38.9288C22.3602 38.526 23.2734 38.4475 23.9935 38.895L29.9717 42.6095C30.723 43.0763 31.0275 43.9786 30.9824 44.862C30.978 44.9497 30.9757 45.0383 30.9757 45.1281C30.9757 49.4755 34.5002 53 38.8476 53C43.195 53 46.7195 49.4755 46.7195 45.1281C46.7195 40.7807 43.195 37.2561 38.8476 37.2561C37.4938 37.2561 36.2186 37.5965 35.1053 38.1977C34.3593 38.6005 33.4461 38.6789 32.726 38.2315L26.6941 34.4836C25.9687 34.0328 25.6626 33.1762 25.7171 32.3238C25.7238 32.2201 25.7274 32.1151 25.7274 32.0082C25.7274 31.9013 25.7238 31.7962 25.7171 31.6925C25.6626 30.8402 25.9687 29.9835 26.6941 29.5327L32.7357 25.7788C33.4511 25.3343 34.3575 25.4086 35.0998 25.8063C36.2216 26.4074 37.4991 26.7439 38.8607 26.7439C43.2081 26.7439 46.7327 23.2193 46.7327 18.8719C46.7327 14.5277 43.2133 11.0052 38.8703 11C38.8644 11 38.8589 11.0031 38.8558 11.0082V11.0082Z" fill="url(#paint1_linear_231_194)"/>
<defs>
<linearGradient id="paint0_linear_231_194" x1="32" y1="4" x2="32" y2="60" gradientUnits="userSpaceOnUse">
<stop stop-color="#EE155F"/>
<stop offset="1" stop-color="#D5307F"/>
</linearGradient>
<linearGradient id="paint1_linear_231_194" x1="28.3663" y1="11" x2="28.3663" y2="53" gradientUnits="userSpaceOnUse">
<stop stop-color="#EE155F"/>
<stop offset="1" stop-color="#D5307F"/>
</linearGradient>
</defs>
</svg>
