<svg width="128" height="128" viewBox="0 0 128 128" fill="none" xmlns="http://www.w3.org/2000/svg">
<path fill-rule="evenodd" clip-rule="evenodd" d="M99.0329 29.5489C103.95 29.258 109.515 29.3962 113.472 32.5157C116.836 35.2208 116.867 39.8747 115.556 43.5324C113.023 50.7122 107.679 56.5305 102.253 62.0155C101.432 62.8453 101.489 64.1963 102.36 64.9727C106.878 68.9972 110.979 73.4783 114.089 78.5456C116.141 82.036 117.89 86.1008 116.914 90.1366C116.188 93.1908 113.347 95.4014 110.248 96.3249C105.34 97.8447 100.032 97.5465 94.9744 96.9066C84.7906 95.4758 75.0306 92.1419 65.7176 88.1253C65.601 88.075 65.4913 88.0103 65.3791 87.9508C64.5924 87.5336 63.7781 87.926 63.0141 88.2942C62.7795 88.4072 62.5497 88.518 62.3268 88.6024C52.0713 93.3434 41.16 97.2556 29.7026 98.4118C24.606 98.7608 18.7836 98.7099 14.686 95.445C11.3143 92.6963 11.3768 87.9915 12.7036 84.3265C15.3647 76.9652 20.9539 71.0179 26.5297 65.4114C26.9915 64.9471 27.1982 64.2483 26.7152 63.8061C26.569 63.6722 26.4074 63.5455 26.2464 63.4194C25.9876 63.2167 25.7308 63.0154 25.5426 62.7878C20.1261 57.7994 14.9826 52.2511 12.1494 45.583C10.6119 41.9326 10.2373 37.2206 13.4372 34.2319C17.3241 30.7415 23.1699 30.4797 28.2665 30.6469C40.2319 31.3993 51.6874 35.2751 62.5102 39.9046C62.6219 39.9524 62.7274 40.0136 62.8354 40.0693C63.5901 40.4584 64.3759 40.0861 65.1134 39.7368C65.3452 39.6269 65.5723 39.5194 65.7921 39.4384C76.2273 34.6173 87.3491 30.596 99.0329 29.5489ZM77.4378 43.6139C75.862 44.2267 75.7513 46.4029 77.2251 47.2316C82.5136 50.2053 87.6275 53.4466 92.5034 56.9866C93.2936 57.5603 94.3831 57.4948 95.0856 56.8166C100.053 52.0201 105.061 46.812 107.168 40.3737C107.465 39.4649 106.995 38.4825 106.071 38.2391C103.86 37.6571 101.47 37.8092 99.1779 37.9551L99.1768 37.9552C98.9035 37.9726 98.6317 37.9899 98.3617 38.0058C91.1149 38.8202 84.157 41.0008 77.4378 43.6139ZM21.4136 39.4053C20.5045 39.5969 19.8961 40.458 20.1174 41.3604C20.5739 43.2215 21.5816 44.9445 22.647 46.5646C25.4566 50.7438 29.0414 54.4139 32.8796 57.7993C33.6027 58.4371 34.6785 58.4489 35.4376 57.8544C40.1865 54.1348 45.2551 50.7907 50.427 47.6047C51.8588 46.7227 51.6518 44.5712 50.0642 44.0165C44.5098 42.076 38.8536 40.3648 32.9884 39.4893C29.1757 38.9069 25.2056 38.6061 21.4136 39.4053ZM43.1731 62.7345C42.0894 63.531 42.1066 65.1483 43.2115 65.9151C49.572 70.3289 56.3211 74.2352 63.2981 77.7465C63.847 78.0227 64.4935 78.029 65.045 77.758C70.6511 75.0028 75.8765 71.6249 80.996 68.1616C81.5815 67.7197 82.1928 67.3011 82.8047 66.8821C83.6931 66.2738 84.5827 65.6646 85.3967 64.9818C86.2889 64.2332 86.1162 62.8897 85.1565 62.2299C78.6982 57.7894 71.9134 53.7709 64.818 50.2695C64.2618 49.995 63.6088 49.998 63.0561 50.2792C56.0388 53.8499 49.448 58.122 43.1731 62.7345ZM77.9019 80.3107C76.4122 81.1867 76.5613 83.4421 78.1904 84.0187C85.225 86.5089 92.4863 88.5539 100.024 89.0387C102.215 89.2035 104.415 89.0661 106.555 88.6264C107.569 88.418 108.189 87.4045 107.885 86.415C106.05 80.4428 101.173 75.7912 96.5244 71.3567C96.1614 71.0104 95.7997 70.6654 95.441 70.3212C94.7326 69.6415 93.6368 69.5646 92.8462 70.1466C88.0058 73.7099 83.1173 77.244 77.9019 80.3107ZM23.763 81.8978C22.5535 83.7684 21.4087 85.7596 20.9294 87.9085C20.7188 88.8527 21.388 89.7282 22.3417 89.8905C24.5127 90.26 26.7312 90.3717 28.9299 90.1221C36.5079 89.3941 43.7711 87.1371 50.7751 84.4081C52.3506 83.7942 52.4596 81.6177 50.9849 80.7902C45.6743 77.8102 40.5412 74.5593 35.6596 70.9966C34.8813 70.4287 33.8075 70.4802 33.108 71.1428C29.6282 74.4387 26.3727 77.9609 23.763 81.8978Z" fill="url(#paint0_linear_60_103)"/>
<g opacity="0.4">
<path d="M69.4283 9.59523C66.322 7.46462 61.8499 7.4719 58.7513 9.59523C53.9279 12.8021 51.1806 17.9504 49.0109 22.9388C48.1055 24.844 48.9875 27.2509 50.9699 28.2108C53.1552 29.4178 56.3084 28.4435 57.2215 26.2183C58.4843 23.44 59.8236 20.5654 61.8893 18.2251C63.068 16.8898 65.1076 16.8946 66.2865 18.2297C68.2443 20.4469 69.566 23.1374 70.7474 25.7747C71.4498 27.6727 73.721 28.8652 75.8284 28.4289C78.4429 27.9999 80.1678 25.1712 79.1376 22.8806C76.9991 17.8995 74.2284 12.7875 69.4283 9.59523Z" fill="url(#paint1_linear_60_103)"/>
<path d="M48.9409 104.709C47.7 100.586 54.2326 97.8664 56.7847 101.306C57.2465 102.116 57.6803 102.953 58.1153 103.792L58.1264 103.813L58.1266 103.813C59.2278 105.936 60.3383 108.078 61.9308 109.881C63.085 111.188 65.0811 111.172 66.2404 109.869C68.2357 107.628 69.5434 104.885 70.8111 102.226L70.864 102.115C70.9163 102.005 70.9685 101.895 71.0208 101.786C72.215 99.168 76.4452 98.7244 78.3261 100.92C79.6998 102.281 79.6529 104.36 78.8022 105.952C76.57 110.759 73.8071 115.755 68.9525 118.692C65.7214 120.678 61.2647 120.343 58.2833 118.089C53.6941 114.744 50.9077 109.712 48.9409 104.709Z" fill="url(#paint2_linear_60_103)"/>
</g>
<circle opacity="0.4" cx="64" cy="64" r="9" fill="url(#paint3_linear_60_103)"/>
<defs>
<linearGradient id="paint0_linear_60_103" x1="64.0959" y1="120" x2="64" y2="8" gradientUnits="userSpaceOnUse">
<stop stop-color="#5570FF"/>
<stop offset="1" stop-color="#4DD3FF"/>
</linearGradient>
<linearGradient id="paint1_linear_60_103" x1="64.0959" y1="120" x2="64" y2="8" gradientUnits="userSpaceOnUse">
<stop stop-color="#5570FF"/>
<stop offset="1" stop-color="#4DD3FF"/>
</linearGradient>
<linearGradient id="paint2_linear_60_103" x1="64.0959" y1="120" x2="64" y2="8" gradientUnits="userSpaceOnUse">
<stop stop-color="#5570FF"/>
<stop offset="1" stop-color="#4DD3FF"/>
</linearGradient>
<linearGradient id="paint3_linear_60_103" x1="64" y1="78.5855" x2="63.9616" y2="49.4142" gradientUnits="userSpaceOnUse">
<stop stop-color="#5570FF"/>
<stop offset="1" stop-color="#4DD3FF"/>
</linearGradient>
</defs>
</svg>
