<svg width="64" height="64" viewBox="0 0 64 64" fill="none" xmlns="http://www.w3.org/2000/svg">
<path opacity="0.4" d="M32 60C47.464 60 60 47.464 60 32C60 16.536 47.464 4 32 4C16.536 4 4 16.536 4 32C4 47.464 16.536 60 32 60Z" fill="url(#paint0_linear_298_332)"/>
<path d="M26.3333 10C25.781 10 25.3333 10.4477 25.3333 11V16.3732C25.3333 16.9097 24.9101 17.3482 24.3736 17.3495C23.5194 17.3515 22.5179 17.3333 21.9102 17.3333H19C18.4477 17.3333 18 17.781 18 18.3333V20.6041C18 20.82 18.0846 20.9961 18.3004 20.989C18.6332 20.9782 19.819 21.0165 20.1363 21.1172C21.1001 21.423 21.4863 22.2639 21.6432 22.9095C21.6598 22.9779 21.6667 23.0478 21.6667 23.1181V41.1667C21.6455 41.3355 21.6372 41.586 21.5943 41.8481C21.492 42.4728 19.1356 43.0179 18.5026 43.0084C18.1125 43.0025 18 43.3203 18 43.7104V45.6667C18 46.219 18.4477 46.6667 19 46.6667H22.1322C22.8167 46.6418 23.5976 46.6507 24.3334 46.659C24.8857 46.6652 25.3333 47.1144 25.3333 47.6667V52.9823C25.3333 53.5414 25.7918 53.9919 26.3509 53.9821L28.0176 53.9528C28.5629 53.9432 29 53.4984 29 52.953V47.6667C29 47.1144 29.4477 46.6667 30 46.6667H31.6249C32.1711 46.6667 32.6162 47.1049 32.6248 47.651L32.7086 53.0156C32.7171 53.5618 33.1623 54 33.7085 54H35.3749C35.9333 54 36.3835 53.5427 36.3748 52.9844L36.2908 47.6113C36.2825 47.0811 36.6917 46.6374 37.2201 46.5941C43.6355 46.0676 47.3333 44.9644 47.3333 37.5C47.3333 32 43.6633 30.1702 39.3261 30.1667C42.0772 29.9583 43.6647 28.3333 43.6659 23.75C43.6667 21 42.0772 17.3333 39.9993 17.3333H37.3333C36.781 17.3333 36.3333 16.8856 36.3333 16.3333V11C36.3333 10.4477 35.8856 10 35.3333 10H33.6667C33.1144 10 32.6667 10.4477 32.6667 11V16.3333C32.6667 16.8856 32.219 17.3322 31.6667 17.3264C31.1346 17.3208 30.5727 17.314 30.0367 17.3156C29.4702 17.3173 29 16.8629 29 16.2964V11C29 10.4477 28.5523 10 28 10H26.3333ZM29 22C29 21.4477 29.4488 20.9992 30.0011 21.0011C34.4514 21.0165 36.3338 21.2462 36.3333 24.6667C36.3338 28.062 34.0366 28.3133 30.0014 28.3318C29.4491 28.3344 29 27.8856 29 27.3333V22ZM29 33C29 32.4477 29.4504 31.9996 30.0027 32.0006C36.6676 32.0122 40.0007 32.2567 40 37.5C40.0007 42.7437 36.6676 42.9881 30.0027 42.9994C29.4504 43.0004 29 42.5523 29 42V33Z" fill="url(#paint1_linear_298_332)"/>
<defs>
<linearGradient id="paint0_linear_298_332" x1="32" y1="60" x2="32" y2="4" gradientUnits="userSpaceOnUse">
<stop stop-color="#5570FF"/>
<stop offset="1" stop-color="#4DD3FF"/>
</linearGradient>
<linearGradient id="paint1_linear_298_332" x1="32.6667" y1="54" x2="32.6667" y2="10" gradientUnits="userSpaceOnUse">
<stop stop-color="#5570FF"/>
<stop offset="1" stop-color="#4DD3FF"/>
</linearGradient>
</defs>
</svg>
