<svg width="16" height="16" viewBox="0 0 16 16" fill="none" xmlns="http://www.w3.org/2000/svg">
<path d="M6.88007 1C6.41615 1 6.04038 1.37576 6.04038 1.83968C6.04038 2.3036 6.41615 2.6805 6.88007 2.6805C9.04505 2.6805 10.8005 4.43482 10.8005 6.59977C10.8005 7.0637 11.1762 7.43945 11.6401 7.43945C12.1041 7.43945 12.4798 7.0637 12.4798 6.59977C12.4798 3.50698 9.97284 1 6.88007 1ZM4.35988 8.56055C3.89596 8.56055 3.5202 8.9363 3.5202 9.40023C3.5202 12.493 6.02717 15 9.11997 15C9.5839 15 9.95966 14.6242 9.95966 14.1603C9.95966 13.6964 9.5839 13.3195 9.11997 13.3195C6.95499 13.3195 5.19956 11.5652 5.19956 9.40023C5.19956 8.9363 4.8238 8.56055 4.35988 8.56055Z" fill="url(#paint0_linear_54_567)"/>
<g opacity="0.4">
<path d="M1 9.11997C1 6.02717 3.50698 3.52021 6.59977 3.5202C7.0637 3.5202 7.43945 3.89596 7.43945 4.35988C7.43945 4.8238 7.0637 5.19956 6.59977 5.19956C4.43482 5.19956 2.6805 6.95499 2.6805 9.11997C2.6805 9.5839 2.3036 9.95966 1.83968 9.95966C1.37576 9.95966 1 9.5839 1 9.11997Z" fill="url(#paint1_linear_54_567)"/>
<path d="M13.3195 6.88007C13.3195 6.41615 13.6964 6.04038 14.1603 6.04038C14.6242 6.04038 15 6.41615 15 6.88007C15 9.97284 12.493 12.4798 9.40023 12.4798C8.9363 12.4798 8.56055 12.1041 8.56055 11.6401C8.56055 11.1762 8.9363 10.8005 9.40023 10.8005C11.5652 10.8005 13.3195 9.04505 13.3195 6.88007Z" fill="url(#paint2_linear_54_567)"/>
</g>
<defs>
<linearGradient id="paint0_linear_54_567" x1="8.00001" y1="15" x2="8.00001" y2="1" gradientUnits="userSpaceOnUse">
<stop stop-color="#02AA93"/>
<stop offset="1" stop-color="#67FF80"/>
</linearGradient>
<linearGradient id="paint1_linear_54_567" x1="8" y1="12.4798" x2="8" y2="3.5202" gradientUnits="userSpaceOnUse">
<stop stop-color="#02AA93"/>
<stop offset="1" stop-color="#67FF80"/>
</linearGradient>
<linearGradient id="paint2_linear_54_567" x1="8" y1="12.4798" x2="8" y2="3.5202" gradientUnits="userSpaceOnUse">
<stop stop-color="#02AA93"/>
<stop offset="1" stop-color="#67FF80"/>
</linearGradient>
</defs>
</svg>
