<svg width="128" height="128" viewBox="0 0 128 128" fill="none" xmlns="http://www.w3.org/2000/svg">
<path opacity="0.4" fill-rule="evenodd" clip-rule="evenodd" d="M105.003 21.1314C108.532 20.8924 112.349 20.7764 115.518 22.654C118.211 24.1561 120.19 26.7301 121.352 29.5977C121.42 30.0211 121.547 30.8813 121.607 31.3047C121.989 33.032 121.988 34.7979 121.987 36.5588C121.987 37.1367 121.987 37.7141 122 38.2893C121.965 47.2463 121.972 56.2049 121.98 65.1635C121.988 75.1005 121.996 85.0375 121.946 94.9725C121.9 101.636 116.078 107.46 109.561 107.385C94.1548 107.447 78.7349 107.433 63.3282 107.385C54.1436 107.432 44.9616 107.426 35.7806 107.419C30.2894 107.416 24.7985 107.412 19.3076 107.419C16.2062 107.467 13.0246 106.594 10.6385 104.504C9.42865 103.473 8.43935 102.196 7.52365 100.892C6.39406 98.6456 5.93955 96.1128 6.00639 93.6074C6.02101 84.8341 6.01772 76.0621 6.01443 67.2904C6.0102 56.0128 6.00597 44.7348 6.03981 33.4554C6.03313 26.7165 12.0621 20.8174 18.6458 21.0427C23.9198 21.0571 29.1947 21.0453 34.4696 21.0335C44.169 21.0117 53.8685 20.9899 63.5621 21.1314C77.371 20.9608 91.1934 20.9744 105.003 21.1314Z" fill="url(#paint0_linear_60_356)"/>
<path d="M20.6908 63.8222C23.7042 55.6635 32.5144 50.3621 40.9618 51.5734C49.5766 52.5282 56.7754 60.0884 57.7869 68.8315C58.4984 76.3274 54.9408 84.1374 48.5303 87.9847C42.1267 92.0681 33.5607 91.6047 27.3873 87.2794C20.3071 82.1921 17.3216 72.0094 20.6908 63.8222ZM33.4561 61.2C28.8034 63.6084 26.1527 69.8504 28.3151 74.8167C30.1287 81.6221 39.0714 84.6147 44.6239 80.5101C50.316 76.9827 51.3833 67.556 46.0889 63.2237C43.1521 59.5326 37.4182 58.9483 33.4561 61.2Z" fill="url(#paint1_linear_60_356)" stroke="url(#paint2_linear_60_356)" stroke-width="4"/>
<path d="M73.8605 56.5632C78.4925 51.8603 85.5799 49.9365 91.8999 51.5753C98.8612 53.2712 104.484 59.2567 106.095 66.3465C107.623 73.9069 104.749 82.2436 98.4919 86.7183C92.0045 91.6283 82.6992 91.4856 76.0859 86.8896C71.9079 83.7403 68.9219 78.9016 68.2179 73.6216C67.2759 67.4439 69.4312 60.8813 73.8605 56.5632ZM80.4665 61.9145C76.9025 64.6721 75.0819 70.2086 77.0485 74.3629C78.7299 81.2176 87.8192 84.2103 93.3299 80.0703C99.0285 76.5289 100.019 67.1589 94.8012 62.7838C91.3065 58.6296 84.4845 58.4087 80.4665 61.9145Z" fill="url(#paint3_linear_60_356)" stroke="url(#paint4_linear_60_356)" stroke-width="4"/>
<path d="M37.1685 29.1424C33.9414 23.8108 37.7803 17 44.0125 17H83.0682C89.0883 17 92.9514 23.3987 90.1475 28.726L88.5686 31.726C87.1852 34.3544 84.4595 36 81.4892 36H45.8283C43.0292 36 40.4336 34.537 38.9842 32.1424L37.1685 29.1424Z" fill="url(#paint5_linear_60_356)"/>
<defs>
<linearGradient id="paint0_linear_60_356" x1="63.9998" y1="107.426" x2="63.9998" y2="21" gradientUnits="userSpaceOnUse">
<stop stop-color="#02AA93"/>
<stop offset="1" stop-color="#67FF80"/>
</linearGradient>
<linearGradient id="paint1_linear_60_356" x1="38.5911" y1="90.8005" x2="38.5911" y2="51.4014" gradientUnits="userSpaceOnUse">
<stop stop-color="#02AA93"/>
<stop offset="1" stop-color="#67FF80"/>
</linearGradient>
<linearGradient id="paint2_linear_60_356" x1="38.5911" y1="90.8005" x2="38.5911" y2="51.4014" gradientUnits="userSpaceOnUse">
<stop stop-color="#02AA93"/>
<stop offset="1" stop-color="#67FF80"/>
</linearGradient>
<linearGradient id="paint3_linear_60_356" x1="87.2491" y1="90.3687" x2="87.2491" y2="51" gradientUnits="userSpaceOnUse">
<stop stop-color="#02AA93"/>
<stop offset="1" stop-color="#67FF80"/>
</linearGradient>
<linearGradient id="paint4_linear_60_356" x1="87.2491" y1="90.3687" x2="87.2491" y2="51" gradientUnits="userSpaceOnUse">
<stop stop-color="#02AA93"/>
<stop offset="1" stop-color="#67FF80"/>
</linearGradient>
<linearGradient id="paint5_linear_60_356" x1="65.5" y1="106.5" x2="65" y2="-20" gradientUnits="userSpaceOnUse">
<stop stop-color="#02AA93"/>
<stop offset="1" stop-color="#67FF80"/>
</linearGradient>
</defs>
</svg>
