<svg width="64" height="64" viewBox="0 0 64 64" fill="none" xmlns="http://www.w3.org/2000/svg">
<path opacity="0.4" d="M59.999 31.9995C59.999 16.5358 47.4632 4 31.9995 4C16.5358 4 4 16.5358 4 31.9995C4 47.4632 16.5358 59.999 31.9995 59.999C47.4632 59.999 59.999 47.4632 59.999 31.9995Z" fill="url(#paint0_linear_38_322)"/>
<path d="M19.0109 51.6653C19.0116 51.6653 19.0114 51.6651 19.012 51.6654C19.0309 51.6743 21.528 52.8446 24.8479 53.2586C26.1972 53.4268 31.3302 54.0148 35.2669 53.9997C35.2685 53.9997 35.2681 53.9997 35.2697 53.9997C35.3215 53.9997 40.0787 54.0021 42.711 53.6291C45.2592 53.2672 46.7908 52.8133 47.6997 51.9626C47.8522 51.8198 47.9528 51.6233 47.9894 51.4176C48.0531 51.06 48.0435 50.5044 47.2676 49.9631C44.5154 48.0432 40.9575 47.5178 34.0466 45.8764C26.4044 43.955 24.0035 42.115 22.8623 40.7837C21.7806 39.4492 23.1827 36.6778 29.3405 35.3182C31.4701 34.8 37.2617 34.4521 40.7191 34.2837C41.6473 34.2384 42.0311 33.058 41.3041 32.4792C38.1017 29.9301 34.2394 26.8466 33.2062 26.0327C32.0849 25.1495 30.278 23.7941 30.0839 22.5829C29.8219 21.4038 31.6778 20.8361 32.6604 20.7706C35.8263 20.5523 40.1498 21.3897 43.9925 22.1539C45.3845 22.4307 45.9495 22.4786 46.1565 22.4838C46.2276 22.4856 46.2992 22.4834 46.3702 22.4855C49.0835 22.5628 51.6995 20.6657 51.5917 17.6701C51.5698 14.5914 47.945 12.1227 44.5383 12.0149C44.0259 12.0127 43.4091 12.0108 42.7304 12.0092C41.5262 12.0063 41.2963 13.9822 42.4192 14.4172C43.8554 14.9734 44.4036 15.454 44.6258 15.9669C44.9105 16.6223 44.1522 17.2735 41.6137 17.1464C38.9372 17.0122 33.5429 16.3806 33.201 16.3404C33.1894 16.339 33.1779 16.3374 33.1664 16.3356C27.7847 15.507 24.5004 14.7249 22.8642 16.8624C21.7943 18.2603 23.0171 19.963 23.4974 20.9672C25.6372 24.701 28.8707 27.2626 31.2186 29.0678V29.0678C31.696 29.4348 31.2899 30.4752 30.6942 30.3876C24.1 29.417 18.5571 30.6202 15.0314 32.474C10.1623 35.3561 10.9952 40.2197 18.7214 44.7668C23.2848 47.4525 26.0233 48.7426 33.4949 49.66C37.8621 50.3564 38.7464 50.6413 38.7133 51.0047C38.6665 51.5166 33.3106 51.7105 31.9027 51.8076C28.3208 52.0547 19.0571 51.6653 19.0109 51.6653V51.6653Z" fill="url(#paint1_linear_38_322)"/>
<defs>
<linearGradient id="paint0_linear_38_322" x1="31.9995" y1="59.999" x2="31.9995" y2="4" gradientUnits="userSpaceOnUse">
<stop stop-color="#9000FF"/>
<stop offset="1" stop-color="#DE13FF"/>
</linearGradient>
<linearGradient id="paint1_linear_38_322" x1="31.7975" y1="54" x2="31.7975" y2="12" gradientUnits="userSpaceOnUse">
<stop stop-color="#9000FF"/>
<stop offset="1" stop-color="#DE13FF"/>
</linearGradient>
</defs>
</svg>
