<svg width="128" height="128" viewBox="0 0 128 128" fill="none" xmlns="http://www.w3.org/2000/svg">
<path opacity="0.4" d="M100.811 11.6809C100.058 10.6534 98.8959 10.0464 97.6217 10.0464C87.0721 10.0464 41.0149 10.0464 30.3843 10.0464C29.1101 10.0464 27.9488 10.6534 27.1953 11.6809L7.76462 38.1772C6.71785 39.6047 6.73372 41.5503 7.80365 42.9605L61.0406 113.126C62.6453 115.241 65.8274 115.235 67.4235 113.113L120.214 42.9489C121.274 41.5392 121.286 39.6011 120.243 38.1785L100.811 11.6809Z" fill="url(#paint0_linear_345_639)"/>
<path fill-rule="evenodd" clip-rule="evenodd" d="M61.5728 110.787C62.7494 113.658 66.605 114.155 68.4704 111.675L120.214 42.9025C121.274 41.4928 121.286 39.5548 120.243 38.1322L100.811 11.6345C100.058 10.607 98.8599 10 97.5857 10H49.7223C48.0275 10 46.5167 11.068 45.9514 12.6657L44.4962 16.7784L38.0246 36.5014C37.8915 36.9068 37.8242 37.3309 37.8252 37.7576L37.8377 43.2447C37.8387 43.6733 37.9085 44.0989 38.0445 44.5053L54.2479 92.913L61.5728 110.787ZM81.3046 49.1457C82.159 46.5577 80.2317 43.8917 77.5062 43.8917H50.5443C47.8119 43.8917 45.8838 46.5703 46.7511 49.1613L60.3246 89.7128C61.5457 93.3611 66.7099 93.3505 67.916 89.6972L81.3046 49.1457ZM106.168 50.2965C108.151 47.6604 106.271 43.8917 102.972 43.8917H93.0695C91.3436 43.8917 89.8123 44.9987 89.2712 46.6376L81.5281 70.0899C80.1087 74.3892 85.8007 77.3667 88.5228 73.7488L106.168 50.2965ZM103.196 37.1134C106.472 37.1134 108.359 33.39 106.421 30.7479L97.3758 18.4128C96.6223 17.3853 95.4243 16.7783 94.1502 16.7783H89.0321C86.3098 16.7783 84.3827 19.4387 85.2315 22.0253L89.2788 34.3604C89.8177 36.0029 91.3508 37.1134 93.0794 37.1134H103.196ZM77.5258 37.1134C80.2481 37.1134 82.1752 34.453 81.3264 31.8663L77.2791 19.5312C76.7402 17.8887 75.2071 16.7783 73.4785 16.7783H54.5276C52.799 16.7783 51.2659 17.8887 50.727 19.5312L46.6795 31.8663C45.8308 34.4529 47.7578 37.1134 50.4801 37.1134H77.5258Z" fill="url(#paint1_linear_345_639)"/>
<path fill-rule="evenodd" clip-rule="evenodd" d="M61.5728 110.787C62.7494 113.658 66.605 114.155 68.4704 111.675L120.214 42.9025C121.274 41.4928 121.286 39.5548 120.243 38.1322L100.811 11.6345C100.058 10.607 98.8599 10 97.5857 10H49.7223C48.0275 10 46.5167 11.068 45.9514 12.6657L44.4962 16.7784L38.0246 36.5014C37.8915 36.9068 37.8242 37.3309 37.8252 37.7576L37.8377 43.2447C37.8387 43.6733 37.9085 44.0989 38.0445 44.5053L54.2479 92.913L61.5728 110.787ZM81.3046 49.1457C82.159 46.5577 80.2317 43.8917 77.5062 43.8917H50.5443C47.8119 43.8917 45.8838 46.5703 46.7511 49.1613L60.3246 89.7128C61.5457 93.3611 66.7099 93.3505 67.916 89.6972L81.3046 49.1457ZM106.168 50.2965C108.151 47.6604 106.271 43.8917 102.972 43.8917H93.0695C91.3436 43.8917 89.8123 44.9987 89.2712 46.6376L81.5281 70.0899C80.1087 74.3892 85.8007 77.3667 88.5228 73.7488L106.168 50.2965ZM103.196 37.1134C106.472 37.1134 108.359 33.39 106.421 30.7479L97.3758 18.4128C96.6223 17.3853 95.4243 16.7783 94.1502 16.7783H89.0321C86.3098 16.7783 84.3827 19.4387 85.2315 22.0253L89.2788 34.3604C89.8177 36.0029 91.3508 37.1134 93.0794 37.1134H103.196ZM77.5258 37.1134C80.2481 37.1134 82.1752 34.453 81.3264 31.8663L77.2791 19.5312C76.7402 17.8887 75.2071 16.7783 73.4785 16.7783H54.5276C52.799 16.7783 51.2659 17.8887 50.727 19.5312L46.6795 31.8663C45.8308 34.4529 47.7578 37.1134 50.4801 37.1134H77.5258Z" fill="url(#paint2_linear_345_639)"/>
<defs>
<linearGradient id="paint0_linear_345_639" x1="77.4543" y1="79.4978" x2="4.01827" y2="29.5017" gradientUnits="userSpaceOnUse">
<stop stop-color="#2AD454"/>
<stop offset="1" stop-color="#B3FF5A"/>
</linearGradient>
<linearGradient id="paint1_linear_345_639" x1="89.2345" y1="78.5285" x2="26.6763" y2="47.0368" gradientUnits="userSpaceOnUse">
<stop stop-color="#2AD454"/>
<stop offset="1" stop-color="#B3FF5A"/>
</linearGradient>
<linearGradient id="paint2_linear_345_639" x1="89.2345" y1="78.5285" x2="26.6763" y2="47.0368" gradientUnits="userSpaceOnUse">
<stop stop-color="#2AD454"/>
<stop offset="1" stop-color="#B3FF5A"/>
</linearGradient>
</defs>
</svg>
