<svg width="24" height="24" viewBox="0 0 24 24" fill="none" xmlns="http://www.w3.org/2000/svg">
<path opacity="0.4" d="M13.7919 21.3192L13.1957 22.3268C12.6644 23.2244 11.3367 23.2244 10.8043 22.3268L10.2081 21.3192C9.7461 20.5382 9.5151 20.1466 9.1433 19.931C8.7715 19.7143 8.304 19.7066 7.369 19.6901C5.9874 19.667 5.1217 19.5823 4.3957 19.2809C3.7284 19.0045 3.12208 18.5994 2.61136 18.0886C2.10063 17.5779 1.6955 16.9716 1.4191 16.3043C1 15.2945 1 14.013 1 11.45V10.35C1 6.7497 1 4.949 1.8107 3.6268C2.26395 2.88672 2.88589 2.26439 3.6257 1.8107C4.949 1 6.7508 1 10.35 1H13.65C17.2503 1 19.051 1 20.3743 1.8107C21.114 2.26408 21.7359 2.88602 22.1893 3.6257C23 4.949 23 6.7508 23 10.35V11.45C23 14.013 23 15.2945 22.582 16.3043C22.3055 16.9717 21.9002 17.5781 21.3893 18.0888C20.8783 18.5995 20.2718 19.0046 19.6043 19.2809C18.8783 19.5823 18.0126 19.6659 16.631 19.6901C15.696 19.7066 15.2285 19.7143 14.8567 19.931C14.4849 20.1466 14.2539 20.5371 13.7919 21.3192Z" fill="url(#paint0_linear_8_228)"/>
<path d="M18.599 12.2593V12.2562C18.5905 12.3725 18.5252 12.5091 18.4627 12.64C18.4232 12.7225 18.3849 12.8028 18.3625 12.8742L18.3503 12.8923C17.6076 13.9042 16.6507 14.7143 15.5578 15.2562C14.465 15.798 13.2672 16.0562 12.0627 16.0095H12.0099L11.8422 16.0116C10.6703 16.012 9.51275 15.7371 8.45184 15.2062C7.39102 14.6754 6.45295 13.9018 5.70452 12.9405L5.70263 12.9395C5.61435 12.8631 5.54208 12.7679 5.49046 12.6599C5.43884 12.5519 5.40903 12.4336 5.40295 12.3126V12.3146C5.39547 12.2424 5.40221 12.1692 5.42275 12.0999C5.44329 12.0306 5.47717 11.9667 5.52222 11.9121C5.56729 11.8575 5.62253 11.8136 5.68442 11.7831C5.74632 11.7526 5.8135 11.7362 5.88168 11.735H5.88451C5.99288 11.7493 6.09585 11.7937 6.18325 11.8636L6.16641 11.8492C7.8235 13.262 9.87959 14.037 12.0015 14.0486H11.993L12.157 14.0506C14.2253 14.0548 16.2293 13.2843 17.8188 11.8736C17.9014 11.7932 18.0085 11.7475 18.1203 11.745H18.1269C18.189 11.7449 18.2505 11.7578 18.3077 11.783C18.3651 11.8083 18.4172 11.8454 18.4611 11.8922C18.5049 11.9389 18.5397 11.9944 18.5634 12.0556C18.5871 12.1167 18.5992 12.1822 18.599 12.2483V12.2562L18.5993 12.2533L18.6 12.2313C18.6 12.2363 18.5999 12.2413 18.5996 12.2464L18.5993 12.2533L18.599 12.2593Z" fill="url(#paint1_linear_8_228)"/>
<path d="M7.69482 8.84536C8.64625 8.84536 9.41749 8.07412 9.41749 7.12269C9.41749 6.17126 8.64625 5.40002 7.69482 5.40002C6.74341 5.40002 5.97215 6.17126 5.97215 7.12269C5.97215 8.07412 6.74341 8.84536 7.69482 8.84536Z" fill="url(#paint2_linear_8_228)"/>
<path d="M18.0308 7.12269C18.0308 8.07412 17.2596 8.84536 16.3082 8.84536C15.3567 8.84536 14.5855 8.07412 14.5855 7.12269C14.5855 6.17126 15.3567 5.40002 16.3082 5.40002C17.2596 5.40002 18.0308 6.17126 18.0308 7.12269Z" fill="url(#paint3_linear_8_228)"/>
<defs>
<linearGradient id="paint0_linear_8_228" x1="12" y1="23" x2="12" y2="1" gradientUnits="userSpaceOnUse">
<stop stop-color="#5558FF"/>
<stop offset="1" stop-color="#00C0FF"/>
</linearGradient>
<linearGradient id="paint1_linear_8_228" x1="12.0015" y1="22.6267" x2="12.0015" y2="-1.49065" gradientUnits="userSpaceOnUse">
<stop stop-color="#5570FF"/>
<stop offset="1" stop-color="#4DD3FF"/>
</linearGradient>
<linearGradient id="paint2_linear_8_228" x1="12.0015" y1="22.6267" x2="12.0015" y2="-1.49065" gradientUnits="userSpaceOnUse">
<stop stop-color="#5570FF"/>
<stop offset="1" stop-color="#4DD3FF"/>
</linearGradient>
<linearGradient id="paint3_linear_8_228" x1="12.0015" y1="22.6267" x2="12.0015" y2="-1.49065" gradientUnits="userSpaceOnUse">
<stop stop-color="#5570FF"/>
<stop offset="1" stop-color="#4DD3FF"/>
</linearGradient>
</defs>
</svg>
