<svg width="24" height="24" viewBox="0 0 24 24" fill="none" xmlns="http://www.w3.org/2000/svg">
<path opacity="0.4" d="M1 12C1 6.8146 1 4.2219 2.6104 2.6104C4.223 1 6.8146 1 12 1C17.1854 1 19.7781 1 21.3885 2.6104C23 4.223 23 6.8146 23 12C23 17.1854 23 19.7781 21.3885 21.3885C19.7792 23 17.1854 23 12 23C6.8146 23 4.2219 23 2.6104 21.3885C1 19.7792 1 17.1854 1 12Z" fill="url(#paint0_linear_8_484)"/>
<path fill-rule="evenodd" clip-rule="evenodd" d="M22.0335 6.63345C22.6523 6.01458 23 5.17521 23 4.3C23 3.42479 22.6523 2.58542 22.0335 1.96655C21.4146 1.34768 20.5752 1 19.7 1C18.8248 1 17.9854 1.34768 17.3666 1.96655C16.7477 2.58542 16.4 3.42479 16.4 4.3C16.4 5.17521 16.7477 6.01458 17.3666 6.63345C17.9854 7.25232 18.8248 7.6 19.7 7.6C20.5752 7.6 21.4146 7.25232 22.0335 6.63345ZM14.75 10.6456C14.5312 10.6456 14.3214 10.5587 14.1667 10.404C14.012 10.2492 13.925 10.0394 13.925 9.8206C13.925 9.6018 14.012 9.39196 14.1667 9.23724C14.3214 9.08252 14.5312 8.9956 14.75 8.9956H17.5C17.7188 8.9956 17.9287 9.08252 18.0834 9.23724C18.2381 9.39196 18.325 9.6018 18.325 9.8206V12.5706C18.325 12.7894 18.2381 12.9992 18.0834 13.154C17.9287 13.3087 17.7188 13.3956 17.5 13.3956C17.2812 13.3956 17.0714 13.3087 16.9167 13.154C16.762 12.9992 16.675 12.7894 16.675 12.5706V11.8116L14.4607 14.0259C14.0998 14.3866 13.6103 14.5892 13.1 14.5892C12.5897 14.5892 12.1003 14.3866 11.7393 14.0259L9.99474 12.2813C9.96919 12.2557 9.93885 12.2354 9.90544 12.2215C9.87203 12.2076 9.83621 12.2005 9.80004 12.2005C9.76387 12.2005 9.72805 12.2076 9.69464 12.2215C9.66123 12.2354 9.63088 12.2557 9.60534 12.2813L7.08304 14.8036C6.92665 14.9493 6.71979 15.0287 6.50606 15.0249C6.29233 15.0211 6.08841 14.9345 5.93725 14.7834C5.7861 14.6322 5.69952 14.4283 5.69575 14.2146C5.69197 14.0008 5.77131 13.794 5.91704 13.6376L8.43934 11.1153C8.80031 10.7546 9.28973 10.552 9.80004 10.552C10.3103 10.552 10.7998 10.7546 11.1607 11.1153L12.9053 12.8599C12.9309 12.8855 12.9612 12.9058 12.9946 12.9197C13.0281 12.9336 13.0639 12.9407 13.1 12.9407C13.1362 12.9407 13.172 12.9336 13.2054 12.9197C13.2388 12.9058 13.2692 12.8855 13.2947 12.8599L15.5079 10.6456H14.75Z" fill="url(#paint1_linear_8_484)"/>
<defs>
<linearGradient id="paint0_linear_8_484" x1="19.0187" y1="1" x2="0.999981" y2="23.0001" gradientUnits="userSpaceOnUse">
<stop stop-color="#DE00C0"/>
<stop offset="1" stop-color="#8720FF"/>
</linearGradient>
<linearGradient id="paint1_linear_8_484" x1="19.8685" y1="1" x2="9.07105" y2="17.2657" gradientUnits="userSpaceOnUse">
<stop stop-color="#DE00C0"/>
<stop offset="1" stop-color="#8720FF"/>
</linearGradient>
</defs>
</svg>
