<svg width="24" height="24" viewBox="0 0 24 24" fill="none" xmlns="http://www.w3.org/2000/svg">
<path opacity="0.4" d="M20.9298 11.9301C20.9298 14.2985 19.989 16.5699 18.3142 18.2446C16.6395 19.9193 14.3681 20.8602 11.9997 20.8602C9.63131 20.8602 7.35991 19.9193 5.6852 18.2446C4.01049 16.5699 3.06964 14.2985 3.06964 11.9301C3.06964 9.56167 4.01049 7.29027 5.6852 5.61556C7.35991 3.94084 9.63131 3 11.9997 3C14.3681 3 16.6395 3.94084 18.3142 5.61556C19.989 7.29027 20.9298 9.56167 20.9298 11.9301Z" fill="url(#paint0_linear_8_746)"/>
<path d="M19.8235 6.10777C20.0447 6.08734 20.2486 5.9799 20.3906 5.80908C20.5325 5.63826 20.6008 5.41805 20.5803 5.1969C20.5599 4.97575 20.4525 4.77177 20.2817 4.62984C20.1108 4.48791 19.8906 4.41965 19.6695 4.44008C19.1962 4.48473 18.6939 4.5584 18.1681 4.66333C17.9542 4.70513 17.7651 4.82892 17.6412 5.00825L18.8881 6.23279C19.2185 6.17698 19.5311 6.13456 19.8235 6.10777Z" fill="url(#paint1_linear_8_746)"/>
<path fill-rule="evenodd" clip-rule="evenodd" d="M21.9757 4.54037C21.8676 4.51167 21.7549 4.50492 21.6442 4.5205C21.5334 4.53609 21.427 4.5737 21.331 4.63111C21.235 4.68853 21.1516 4.76458 21.0855 4.85479C21.0194 4.945 20.9721 5.04754 20.9463 5.15634C20.9204 5.26515 20.9167 5.37802 20.9352 5.48829C20.9538 5.59857 20.9942 5.70402 21.0542 5.79841C21.1141 5.8928 21.1924 5.97422 21.2843 6.03787C21.3763 6.10152 21.48 6.1461 21.5895 6.16899C22.0293 6.2728 22.199 6.42796 22.2615 6.52843C22.3318 6.64229 22.4099 6.93698 22.0862 7.58664C21.987 7.78544 21.9709 8.01549 22.0413 8.22619C22.1118 8.43689 22.263 8.61098 22.4618 8.71016C22.6606 8.80933 22.8907 8.82548 23.1014 8.75503C23.3121 8.68459 23.4862 8.53333 23.5854 8.33454C24.0073 7.48729 24.2138 6.49271 23.6814 5.641C23.2974 5.02706 22.651 4.70111 21.9757 4.54037ZM21.7246 10.7702C21.802 10.6922 21.8634 10.5996 21.9051 10.4978C21.9468 10.3961 21.968 10.2871 21.9676 10.1771C21.9672 10.0671 21.9451 9.95832 21.9026 9.85687C21.8602 9.75542 21.7981 9.66333 21.7201 9.58586C21.642 9.50839 21.5495 9.44705 21.4477 9.40535C21.3459 9.36364 21.237 9.34239 21.127 9.34281C21.017 9.34322 20.9082 9.36529 20.8067 9.40776C20.7053 9.45023 20.6132 9.51227 20.5357 9.59033C19.77 10.3628 18.7866 11.1866 17.6245 12.0137C17.4436 12.1425 17.3213 12.3379 17.2845 12.5568C17.2476 12.7758 17.2993 13.0004 17.4281 13.1813C17.5568 13.3622 17.7522 13.4845 17.9712 13.5214C18.1901 13.5582 18.4148 13.5066 18.5957 13.3778C19.818 12.5071 20.8773 11.623 21.7246 10.7702ZM2.6086 15.2196C2.83297 14.9383 3.09641 14.6436 3.39668 14.3378L3.13101 12.8532C2.98642 12.8102 2.83291 12.8072 2.68673 12.8443C2.54054 12.8815 2.4071 12.9574 2.30052 13.0641C1.92769 13.4392 1.59169 13.8109 1.30035 14.1748C1.23167 14.2607 1.18059 14.3593 1.15001 14.4649C1.11943 14.5706 1.10996 14.6812 1.12214 14.7905C1.13432 14.8998 1.16791 15.0057 1.22099 15.102C1.27407 15.1983 1.34561 15.2832 1.43151 15.3519C1.51741 15.4206 1.616 15.4717 1.72164 15.5022C1.82728 15.5328 1.93792 15.5423 2.04722 15.5301C2.15652 15.5179 2.26236 15.4843 2.35868 15.4313C2.455 15.3782 2.53993 15.3066 2.6086 15.2207V15.2196ZM16.1857 14.9484C16.2821 14.893 16.3666 14.819 16.4341 14.7306C16.5016 14.6422 16.5508 14.5413 16.5789 14.4337C16.607 14.3261 16.6134 14.214 16.5976 14.1039C16.5819 13.9938 16.5444 13.8879 16.4873 13.7925C16.4302 13.697 16.3547 13.6139 16.2651 13.548C16.1755 13.4821 16.0737 13.4347 15.9656 13.4086C15.8575 13.3824 15.7453 13.3781 15.6355 13.3958C15.5257 13.4135 15.4205 13.4529 15.3261 13.5117C14.2069 14.1809 13.055 14.7938 11.8747 15.348C11.6796 15.446 11.5305 15.6162 11.4592 15.8225C11.3878 16.0288 11.3999 16.2548 11.4927 16.4524C11.5856 16.6499 11.752 16.8034 11.9563 16.88C12.1607 16.9567 12.387 16.9505 12.5868 16.8628C13.8173 16.2844 15.0184 15.6454 16.1857 14.9484ZM1.74685 16.6741C1.8142 16.4624 1.79471 16.2327 1.69265 16.0354C1.5906 15.8381 1.41435 15.6894 1.20267 15.622C0.990999 15.5547 0.761237 15.5742 0.563935 15.6762C0.366632 15.7783 0.217951 15.9545 0.1506 16.1662C-0.0626058 16.8371 -0.0849311 17.5749 0.318039 18.2201C0.823704 19.0283 1.77699 19.3431 2.72246 19.4335C2.83278 19.4457 2.94443 19.4359 3.05092 19.4046C3.1574 19.3733 3.2566 19.3211 3.34273 19.2511C3.42887 19.1811 3.50022 19.0947 3.55265 18.9968C3.60507 18.899 3.63752 18.7917 3.6481 18.6812C3.65869 18.5707 3.64719 18.4593 3.61429 18.3532C3.58139 18.2472 3.52774 18.1488 3.45646 18.0638C3.38517 17.9787 3.29769 17.9086 3.19908 17.8577C3.10048 17.8067 2.99272 17.7759 2.88209 17.7669C2.1074 17.6933 1.82387 17.4689 1.73792 17.3316C1.68211 17.2423 1.62406 17.0592 1.74685 16.6741ZM9.85983 18.017C10.063 17.9356 10.2263 17.7779 10.3147 17.5777C10.403 17.3774 10.4094 17.1505 10.3325 16.9455C10.2556 16.7406 10.1015 16.5739 9.90315 16.4813C9.70483 16.3886 9.47811 16.3773 9.27156 16.4497C7.90414 16.9632 6.6316 17.3327 5.51869 17.5537C5.30568 17.6016 5.11978 17.7307 5.00063 17.9137C4.88148 18.0966 4.83851 18.3189 4.88088 18.533C4.92325 18.7472 5.0476 18.9364 5.22743 19.0602C5.40726 19.184 5.62834 19.2326 5.84352 19.1957C7.0636 18.9546 8.42543 18.555 9.85983 18.017Z" fill="url(#paint2_linear_8_746)"/>
<defs>
<linearGradient id="paint0_linear_8_746" x1="5.68521" y1="18.2446" x2="18.3142" y2="5.61557" gradientUnits="userSpaceOnUse">
<stop stop-color="#0072FF"/>
<stop offset="1" stop-color="#00E5A1"/>
</linearGradient>
<linearGradient id="paint1_linear_8_746" x1="18.0722" y1="5.96973" x2="19.2019" y2="4.11903" gradientUnits="userSpaceOnUse">
<stop stop-color="#0072FF"/>
<stop offset="1" stop-color="#00E5A1"/>
</linearGradient>
<linearGradient id="paint2_linear_8_746" x1="3.51473" y1="17.2527" x2="12.9813" y2="2.03133" gradientUnits="userSpaceOnUse">
<stop stop-color="#0072FF"/>
<stop offset="1" stop-color="#00E5A1"/>
</linearGradient>
</defs>
</svg>
