<svg width="16" height="16" viewBox="0 0 16 16" fill="none" xmlns="http://www.w3.org/2000/svg">
<path opacity="0.4" d="M12.9 3H3.1C1.9402 3 1 3.9402 1 5.1V11.4C1 12.5598 1.9402 13.5 3.1 13.5H12.9C14.0598 13.5 15 12.5598 15 11.4V5.1C15 3.9402 14.0598 3 12.9 3Z" fill="#CCCCCC"/>
<path d="M5.375 3H10.625V4.25013C10.625 4.56463 10.7781 4.85556 11.0065 5.07173C11.8493 5.86919 12.375 6.9982 12.375 8.25C12.375 10.6662 10.4162 12.625 8 12.625C5.58375 12.625 3.625 10.6662 3.625 8.25C3.625 6.9982 4.15074 5.86919 4.99345 5.07173C5.22189 4.85556 5.375 4.56463 5.375 4.25013V3Z" fill="url(#paint0_linear_218_159)"/>
<path d="M2.75 12.625C3.23325 12.625 3.625 12.2332 3.625 11.75C3.625 11.2668 3.23325 10.875 2.75 10.875C2.26675 10.875 1.875 11.2668 1.875 11.75C1.875 12.2332 2.26675 12.625 2.75 12.625Z" fill="url(#paint1_linear_218_159)"/>
<path d="M14.125 11.75C14.125 12.2332 13.7332 12.625 13.25 12.625C12.7668 12.625 12.375 12.2332 12.375 11.75C12.375 11.2668 12.7668 10.875 13.25 10.875C13.7332 10.875 14.125 11.2668 14.125 11.75Z" fill="url(#paint2_linear_218_159)"/>
<defs>
<linearGradient id="paint0_linear_218_159" x1="1.875" y1="3" x2="1.875" y2="12.625" gradientUnits="userSpaceOnUse">
<stop stop-color="white"/>
<stop offset="1" stop-color="#B5B5B5"/>
</linearGradient>
<linearGradient id="paint1_linear_218_159" x1="1.875" y1="3" x2="1.875" y2="12.625" gradientUnits="userSpaceOnUse">
<stop stop-color="white"/>
<stop offset="1" stop-color="#B5B5B5"/>
</linearGradient>
<linearGradient id="paint2_linear_218_159" x1="1.875" y1="3" x2="1.875" y2="12.625" gradientUnits="userSpaceOnUse">
<stop stop-color="white"/>
<stop offset="1" stop-color="#B5B5B5"/>
</linearGradient>
</defs>
</svg>
