<svg width="64" height="64" viewBox="0 0 64 64" fill="none" xmlns="http://www.w3.org/2000/svg">
<path opacity="0.4" d="M10 17L31 6.5L51.5 17V47L31 57L10 47V17Z" fill="url(#paint0_linear_60_202)"/>
<path fill-rule="evenodd" clip-rule="evenodd" d="M28.2661 3.86644C29.2946 3.27223 30.4665 2.97313 31.6534 3.0019C32.7365 3.02695 33.7953 3.32366 34.7339 3.86587L53.7657 14.8753C54.7491 15.4441 55.5657 16.2623 56.1335 17.2476C56.7012 18.2329 57.0001 19.3506 57 20.4884V42.5087C57.0001 43.6464 56.7012 44.7641 56.1335 45.7494C55.5657 46.7347 54.7491 47.5529 53.7657 48.1217L34.7339 59.1317C33.7506 59.7006 32.6352 60 31.4999 60C30.3645 60 29.2491 59.7006 28.2658 59.1317L9.23402 48.1217C8.25075 47.5529 7.43424 46.7348 6.86655 45.7496C6.29886 44.7644 6 43.6469 6 42.5093V20.4889C5.99993 19.3512 6.29879 18.2335 6.86653 17.2482C7.43428 16.2629 8.2509 15.4447 9.2343 14.8759L28.2661 3.86644ZM31.5614 9.00079C31.0845 8.98903 30.6117 9.10898 30.1928 9.35492L16.2736 17.5372C14.9551 18.3123 14.9591 20.2202 16.2807 20.9897L30.4936 29.2657C31.1156 29.6279 31.8844 29.6279 32.5064 29.2656L46.7185 20.9891C48.0401 20.2195 48.044 18.3117 46.7256 17.5366L32.8083 9.35555C32.8076 9.35514 32.8068 9.35492 32.8059 9.35492V9.35492C32.8051 9.35492 32.8043 9.3547 32.8036 9.35428C32.4201 9.12934 31.9981 9.01098 31.5639 9.00079H31.5614ZM12 41.4402V25.2705C12 23.7275 13.6732 22.7657 15.0066 23.5422L29.0899 31.7445C29.705 32.1027 30.0833 32.7609 30.0833 33.4728V50.0923C30.0833 51.6389 28.403 52.6002 27.0697 51.8164L13.2949 43.7182C12.5496 43.28 12 42.318 12 41.4402ZM49.7051 43.7182L35.9303 51.8164C34.597 52.6002 32.9167 51.6389 32.9167 50.0923V33.4727C32.9167 32.7609 33.295 32.1027 33.9101 31.7445L47.9934 23.5415C49.3267 22.7649 51 23.7267 51 25.2697V41.4402C51.0001 42.3179 50.4504 43.2801 49.7051 43.7182Z" fill="url(#paint1_linear_60_202)" stroke="url(#paint2_linear_60_202)" stroke-width="2"/>
<defs>
<linearGradient id="paint0_linear_60_202" x1="30.75" y1="57" x2="30.75" y2="6.5" gradientUnits="userSpaceOnUse">
<stop stop-color="#00C24E"/>
<stop offset="1" stop-color="#D7FF67"/>
</linearGradient>
<linearGradient id="paint1_linear_60_202" x1="31.5" y1="60" x2="31.5" y2="3" gradientUnits="userSpaceOnUse">
<stop stop-color="#00C24E"/>
<stop offset="1" stop-color="#D7FF67"/>
</linearGradient>
<linearGradient id="paint2_linear_60_202" x1="31.5" y1="60" x2="31.5" y2="3" gradientUnits="userSpaceOnUse">
<stop stop-color="#00C24E"/>
<stop offset="1" stop-color="#D7FF67"/>
</linearGradient>
</defs>
</svg>
