<svg width="64" height="64" viewBox="0 0 64 64" fill="none" xmlns="http://www.w3.org/2000/svg">
<circle opacity="0.4" cx="33.3975" cy="32" r="28" fill="url(#paint0_linear_69_340)"/>
<path d="M37.2304 4.13056C36.6447 4.04921 36.1335 4.51285 36.1335 5.10418V8.77987C36.1335 9.28498 36.5119 9.70856 37.0105 9.78949C48.8672 11.7141 57.1493 22.6617 55.6698 34.678C54.4159 44.5901 46.8094 52.519 37.0143 54.0735C36.5136 54.153 36.1335 54.5773 36.1335 55.0842V58.6988C36.1335 59.2904 36.6461 59.754 37.2321 59.6726C52.1005 57.6069 62.7625 44.2086 61.2556 29.1537C60.0275 16.2028 49.9894 5.9027 37.2304 4.13056ZM30.5196 5.1862C30.5196 4.59563 30.0101 4.13217 29.425 4.21206C24.7061 4.8563 20.2129 6.6766 16.4042 9.58129C15.9409 9.9346 15.9045 10.611 16.3095 11.0298L18.9386 13.7482C19.2978 14.1196 19.8793 14.1541 20.2951 13.8476C23.0574 11.8114 26.2663 10.4373 29.6605 9.82944C30.1515 9.74151 30.5196 9.32137 30.5196 8.82255V5.1862ZM20.2645 50.3396C19.8615 50.0494 19.3064 50.0754 18.9477 50.4188L16.3675 52.8882C15.9363 53.301 15.9596 53.9984 16.4332 54.3618C20.2213 57.2684 24.6902 59.1608 29.4153 59.8591C30.0035 59.946 30.5196 59.4813 30.5196 58.8867V55.2707C30.5196 54.768 30.1458 54.3458 29.6501 54.2619C26.2626 53.6889 23.0515 52.347 20.2645 50.3396Z" fill="url(#paint1_linear_69_340)"/>
<path d="M13.7168 30.5028C13.3635 30.6873 13.1192 31.0394 13.1139 31.4379L12.9136 46.6003C12.9824 47.2172 12.3585 47.8243 11.5897 47.7363L7.60638 47.6606C6.89413 47.6698 6.38139 47.1428 6.41001 46.431L6.59181 31.2796C6.59654 30.8852 6.36592 30.5297 6.02253 30.3356C3.58472 28.9576 1.96004 26.3252 2.00075 23.2518C2.08951 20.2907 3.69694 17.6215 6.14866 16.2868C6.74543 15.9619 7.41015 16.4422 7.40806 17.1216L7.39205 22.3357C7.39036 22.8851 7.8322 23.333 8.38156 23.3387L11.6072 23.3725C12.1584 23.3783 12.6104 22.937 12.6176 22.3858L12.6841 17.3551C12.6933 16.6581 13.3965 16.1896 13.9923 16.5516C16.3514 17.9848 17.9508 20.5854 17.8953 23.5543C17.8727 26.6076 16.1994 29.2067 13.7168 30.5028Z" fill="url(#paint2_linear_69_340)"/>
<path d="M49.9093 35.538C48.9601 34.5245 47.0199 33.9385 44.2707 33.9385C42.7994 33.9385 41.0987 34.085 39.2468 34.4302C38.115 33.3118 37.085 32.0945 36.1691 30.7928C35.46 29.8054 34.839 28.7599 34.2701 27.7304C35.3548 24.3338 35.8816 21.5634 35.8816 19.5675C35.8816 17.3309 35.0734 15 32.7567 15C32.0416 15 31.3325 15.4335 30.9519 16.0716C29.9083 17.953 30.378 22.0821 32.1778 26.158C31.4913 28.2372 30.7344 30.2924 29.9083 32.32C29.1262 34.1801 28.2681 36.0071 27.3363 37.7966C22.1252 39.9189 18.7499 42.3903 18.4374 44.3349C18.2962 45.0663 18.5366 45.7357 19.0474 46.2735C19.2247 46.4201 19.8927 47 21.0245 47C24.4829 47 28.1245 41.2775 29.9814 37.8227C31.4006 37.3421 32.8249 36.9026 34.243 36.4641C35.7418 36.0495 37.26 35.7093 38.7921 35.4446C42.4438 38.795 45.6619 39.3228 47.2795 39.3228C49.2726 39.3228 49.9815 38.497 50.2218 37.8227C50.5977 36.9498 50.3162 35.9885 49.8884 35.4918L49.9146 35.544L49.9093 35.538ZM48.0625 36.9488C47.9214 37.6752 47.2073 38.1609 46.2107 38.1609C45.9293 38.1609 45.6889 38.1087 45.4024 38.0666C43.5866 37.6271 41.887 36.7029 40.1913 35.244C41.5066 35.0227 42.8379 34.9109 44.1715 34.9098C45.1571 34.9098 46.0134 34.957 46.5862 35.1035C47.2432 35.245 48.2868 35.6885 48.0527 36.9538H48.0785L48.0625 36.9488ZM38.0159 34.665C36.6962 34.9349 35.3846 35.2434 34.0828 35.5901C32.9505 35.8983 31.8285 36.2433 30.7186 36.6247C31.2948 35.4812 31.8323 34.3186 32.3301 33.1388C32.904 31.7752 33.3737 30.3693 33.8484 29.0619C34.3132 29.8827 34.834 30.7085 35.3558 31.445C36.2111 32.61 37.1035 33.7188 38.0009 34.6851V34.659L38.0159 34.665ZM31.8023 16.6245C31.8858 16.4533 32.0145 16.3083 32.1744 16.2051C32.3344 16.102 32.5195 16.0447 32.7097 16.0395C33.7062 16.0395 33.8935 17.1995 33.8935 18.1297C33.8935 19.692 33.4188 22.0651 32.6105 24.7723C31.1913 20.9994 31.0982 17.8427 31.8073 16.6245H31.8023ZM26.5911 39.2326C24.1764 43.3033 21.8547 45.8281 20.4305 45.8281C20.1541 45.8281 19.9137 45.7288 19.7264 45.5871C19.44 45.2942 19.2988 44.9549 19.3929 44.5677C19.6794 43.1097 22.3816 41.0718 26.5971 39.2315L26.5911 39.2326Z" fill="url(#paint3_linear_69_340)" stroke="url(#paint4_linear_69_340)" stroke-width="2"/>
<defs>
<linearGradient id="paint0_linear_69_340" x1="33.3975" y1="60" x2="33.3975" y2="4" gradientUnits="userSpaceOnUse">
<stop stop-color="#A70000"/>
<stop offset="1" stop-color="#FF0000"/>
</linearGradient>
<linearGradient id="paint1_linear_69_340" x1="38.4781" y1="60" x2="38.4781" y2="4" gradientUnits="userSpaceOnUse">
<stop stop-color="#A70000"/>
<stop offset="1" stop-color="#FF0000"/>
</linearGradient>
<linearGradient id="paint2_linear_69_340" x1="9.94835" y1="47.7448" x2="9.94835" y2="15.7449" gradientUnits="userSpaceOnUse">
<stop stop-color="#A70000"/>
<stop offset="1" stop-color="#FF0000"/>
</linearGradient>
<linearGradient id="paint3_linear_69_340" x1="34.3975" y1="47" x2="34.3975" y2="15" gradientUnits="userSpaceOnUse">
<stop stop-color="#A70000"/>
<stop offset="1" stop-color="#FF0000"/>
</linearGradient>
<linearGradient id="paint4_linear_69_340" x1="34.3975" y1="47" x2="34.3975" y2="15" gradientUnits="userSpaceOnUse">
<stop stop-color="#A70000"/>
<stop offset="1" stop-color="#FF0000"/>
</linearGradient>
</defs>
</svg>
