<svg width="128" height="128" viewBox="0 0 128 128" fill="none" xmlns="http://www.w3.org/2000/svg">
<path opacity="0.4" d="M36.898 9.0488C33.7433 9.0488 30.6882 10.3801 28.4948 12.6108C23.0185 18.0283 17.5706 23.467 12.0943 28.8773C9.73003 31.0514 8.09921 34.0681 8.05652 37.3186C7.97818 47.0983 8.02086 56.8851 8.04224 66.6648C8.07073 70.8077 7.88605 74.9501 8.12109 79.0932C8.61243 85.2184 12.6142 90.7768 18.154 93.4399C18.1541 93.44 18.1542 93.4402 18.1543 93.4403C18.2669 93.6646 18.4746 93.826 18.7195 93.8812C20.9627 94.3866 23.2155 94.964 25.5321 94.9774C31.6778 95.0974 37.8306 95.1045 43.9764 95.0832C53.2198 95.0903 62.4707 95.0903 71.7143 95.0832C80.4736 95.0974 89.24 95.0761 97.9993 95.0975C101.941 95.2323 109.42 93.4196 110.166 93.2358C110.21 93.2251 110.192 93.2355 110.233 93.2183C110.847 92.9632 111.578 93.4098 111.57 94.0747C111.532 97.3056 111.783 100.543 111.423 103.758C110.754 107.986 106.716 111.364 102.407 111.272C95.3577 111.315 88.3074 111.272 81.2499 111.286C79.0794 111.178 76.8237 111.54 74.6806 111.123C74.1744 111.024 73.687 110.794 73.3742 110.383C71.6697 108.148 73.7129 104.346 71.4366 102.193C69.1935 99.5659 64.2801 101.209 64.2374 104.701C64.2649 108.458 63.4847 112.62 65.4193 116.037C65.5467 116.262 65.7072 116.466 65.8864 116.652C66.4736 117.263 67.0851 117.851 67.7436 118.386C68.0979 118.673 68.5115 118.879 68.9541 118.99C71.045 119.516 73.2181 119.612 75.368 119.6C84.1699 119.515 92.9789 119.6 101.781 119.565C104.971 119.565 108.212 118.941 110.982 117.305C114.826 115.211 117.525 111.563 119.19 107.598C119.283 107.377 119.353 107.146 119.399 106.909C119.819 104.743 120.004 102.54 119.991 100.338C119.961 86.3375 119.998 72.3298 119.961 58.3227C120.005 49.669 119.961 41.0152 119.983 32.3615C119.976 28.6224 120.204 24.8125 119.172 21.1654C118.416 18.8249 116.953 16.8075 115.495 14.8539C115.358 14.6713 115.207 14.5002 115.039 14.3458C111.815 11.3785 107.718 9.22948 103.255 9.09837C97.843 8.9213 92.4313 9.04169 87.026 9.02046L87.0258 9.02046C76.814 9.01335 66.6016 9.00625 56.3963 9.02046C49.8945 9.0488 43.3927 8.96377 36.898 9.0488Z" fill="url(#paint0_linear_60_414)"/>
<path fill-rule="evenodd" clip-rule="evenodd" d="M14.9525 57.0365C22.8016 57.8201 31.1362 58.4387 38.5208 55.1002C50.3206 50.2783 58.3415 38.0697 58.3831 25.4172C58.3923 24.9591 58.4249 24.4396 58.4597 23.8866C58.6727 20.4919 58.9649 15.8347 54.4273 16.3821C47.9684 21.5486 41.9859 27.2842 36.0019 33.0214C32.0222 36.8369 28.0419 40.653 23.9202 44.3029C23.0136 45.2752 21.9482 46.1883 20.8738 47.1093C17.7382 49.7968 14.525 52.551 14.9525 57.0365ZM104.184 57.3707C98.3713 49.7077 85.6757 49.376 79.4699 56.7311C75.0853 61.2509 75.1853 67.5782 75.2792 73.5257C75.2862 73.9694 75.2932 74.4109 75.2983 74.8495C75.3111 75.9559 76.1998 76.8631 77.3063 76.8715C83.0027 76.9147 88.6955 76.9089 94.387 76.9031C98.207 76.8992 102.026 76.8953 105.846 76.9062C106.971 76.9095 107.88 75.9863 107.888 74.8614C107.891 74.3427 107.898 73.8202 107.905 73.2953C107.978 67.6843 108.055 61.7936 104.184 57.3707Z" fill="url(#paint1_linear_60_414)"/>
<defs>
<linearGradient id="paint0_linear_60_414" x1="8" y1="64.3003" x2="120" y2="64.3003" gradientUnits="userSpaceOnUse">
<stop stop-color="#02AA93"/>
<stop offset="1" stop-color="#67FF80"/>
</linearGradient>
<linearGradient id="paint1_linear_60_414" x1="14.9141" y1="46.6225" x2="107.925" y2="46.6225" gradientUnits="userSpaceOnUse">
<stop stop-color="#02AA93"/>
<stop offset="1" stop-color="#67FF80"/>
</linearGradient>
</defs>
</svg>
