<svg width="24" height="24" viewBox="0 0 24 24" fill="none" xmlns="http://www.w3.org/2000/svg">
<path fill-rule="evenodd" clip-rule="evenodd" d="M5.26689 1.9669C4.29999 2.9327 4.29999 4.4892 4.29999 7.6V16.4C4.29999 19.5108 4.29999 21.0673 5.26689 22.0331C6.23269 23 7.78919 23 10.9 23H13.1C16.2108 23 17.7673 23 18.7331 22.0331C19.7 21.0673 19.7 19.5108 19.7 16.4V7.6C19.7 4.4892 19.7 2.9327 18.7331 1.9669C17.7673 1 16.2108 1 13.1 1H10.9C7.78919 1 6.23269 1 5.26689 1.9669ZM7.87499 17.5C7.87499 17.2812 7.96191 17.0714 8.11663 16.9166C8.27134 16.7619 8.48118 16.675 8.69999 16.675H12C12.2188 16.675 12.4286 16.7619 12.5833 16.9166C12.7381 17.0714 12.825 17.2812 12.825 17.5C12.825 17.7188 12.7381 17.9286 12.5833 18.0834C12.4286 18.2381 12.2188 18.325 12 18.325H8.69999C8.48118 18.325 8.27134 18.2381 8.11663 18.0834C7.96191 17.9286 7.87499 17.7188 7.87499 17.5ZM8.69999 12.275C8.48118 12.275 8.27134 12.3619 8.11663 12.5166C7.96191 12.6714 7.87499 12.8812 7.87499 13.1C7.87499 13.3188 7.96191 13.5286 8.11663 13.6834C8.27134 13.8381 8.48118 13.925 8.69999 13.925H15.3C15.5188 13.925 15.7286 13.8381 15.8833 13.6834C16.0381 13.5286 16.125 13.3188 16.125 13.1C16.125 12.8812 16.0381 12.6714 15.8833 12.5166C15.7286 12.3619 15.5188 12.275 15.3 12.275H8.69999ZM7.87499 8.7C7.87499 8.4812 7.96191 8.27136 8.11663 8.11664C8.27134 7.96192 8.48118 7.875 8.69999 7.875H15.3C15.5188 7.875 15.7286 7.96192 15.8833 8.11664C16.0381 8.27136 16.125 8.4812 16.125 8.7C16.125 8.9188 16.0381 9.12864 15.8833 9.28336C15.7286 9.43808 15.5188 9.525 15.3 9.525H8.69999C8.48118 9.525 8.27134 9.43808 8.11663 9.28336C7.96191 9.12864 7.87499 8.9188 7.87499 8.7Z" fill="url(#paint0_linear_8_405)"/>
<path opacity="0.45" d="M4.5585 3.26379C4.3 4.23509 4.3 5.59469 4.3 7.59999V16.4C4.3 18.4053 4.3 19.7638 4.5585 20.7362L4.3 20.7164C3.2275 20.6108 2.5059 20.3721 1.9669 19.8331C1 18.8673 1 17.3108 1 14.2V9.79999C1 6.68809 1 5.13269 1.9669 4.16689C2.5059 3.62789 3.2275 3.38919 4.3 3.28359L4.5585 3.26379ZM19.4415 20.7362C19.7 19.7638 19.7 18.4042 19.7 16.4V7.59999C19.7 5.59469 19.7 4.23509 19.4415 3.26379L19.7 3.28359C20.7725 3.38919 21.4941 3.62789 22.0331 4.16689C23 5.13269 23 6.68699 23 9.79889V14.1989C23 17.3119 23 18.8662 22.0331 19.8331C21.4941 20.3721 20.7725 20.6108 19.7 20.7164L19.4415 20.7362Z" fill="url(#paint1_linear_8_405)"/>
<defs>
<linearGradient id="paint0_linear_8_405" x1="7.15267" y1="-3.125" x2="26.424" y2="25.4434" gradientUnits="userSpaceOnUse">
<stop stop-color="#FFCA64"/>
<stop offset="1" stop-color="#C70000"/>
</linearGradient>
<linearGradient id="paint1_linear_8_405" x1="5.07526" y1="-0.0122805" x2="15.9294" y2="28.9307" gradientUnits="userSpaceOnUse">
<stop stop-color="#FFCA64"/>
<stop offset="1" stop-color="#C70000"/>
</linearGradient>
</defs>
</svg>
