<svg width="24" height="24" viewBox="0 0 24 24" fill="none" xmlns="http://www.w3.org/2000/svg">
<path opacity="0.4" d="M23 12C23 18.0764 18.0753 23 12 23C5.9247 23 1 18.0764 1 12C1 5.9258 5.9247 1 12 1C18.0753 1 23 5.9258 23 12" fill="url(#paint0_linear_11_152)"/>
<path d="M8.21433 13.1328L15.0624 8.91354C15.2158 8.81954 15.4122 8.82854 15.5558 8.93954C16.2064 9.44057 16.7877 9.9486 17.1755 10.3756C17.1755 10.3756 17.5096 10.7176 17.6542 10.9346C17.8877 11.2307 18 11.6177 18 11.9937C18 12.4157 17.8769 12.8147 17.6317 13.1338C17.576 13.1908 17.364 13.4418 17.1638 13.6468C15.9954 14.9228 12.9455 17.0309 11.3414 17.67C11.1079 17.773 10.4847 17.988 10.1613 18C9.84967 18 9.54879 17.932 9.25962 17.783C8.90403 17.578 8.62561 17.26 8.46931 16.8829C8.36869 16.6209 8.21336 15.8349 8.21336 15.8119C8.11274 15.2509 8.03751 14.4628 8.00039 13.5428C7.99355 13.3778 8.07659 13.2178 8.21433 13.1328Z" fill="url(#paint1_linear_11_152)"/>
<path d="M8.67229 10.8603C8.37043 11.0473 7.99041 10.8083 8.00507 10.4493C8.04121 9.60721 8.10373 8.86517 8.17993 8.31315C8.19166 8.30115 8.34698 7.3221 8.52576 6.99108C8.83739 6.37605 9.44893 6.00003 10.1064 6.00003H10.1611C10.5851 6.01103 11.4868 6.38705 11.4868 6.41005C11.941 6.59906 12.534 6.91908 13.1719 7.3041C13.4591 7.4781 13.466 7.90513 13.1788 8.08213L8.67229 10.8603Z" fill="url(#paint2_linear_11_152)"/>
<defs>
<linearGradient id="paint0_linear_11_152" x1="12" y1="23" x2="12" y2="1" gradientUnits="userSpaceOnUse">
<stop stop-color="#00F0FF"/>
<stop offset="1" stop-color="#85FFF0"/>
</linearGradient>
<linearGradient id="paint1_linear_11_152" x1="13" y1="6.00003" x2="13" y2="18" gradientUnits="userSpaceOnUse">
<stop stop-color="#00FFE0"/>
<stop offset="1" stop-color="#078AA7"/>
</linearGradient>
<linearGradient id="paint2_linear_11_152" x1="13" y1="6.00003" x2="13" y2="18" gradientUnits="userSpaceOnUse">
<stop stop-color="#00FFE0"/>
<stop offset="1" stop-color="#078AA7"/>
</linearGradient>
</defs>
</svg>
