<svg width="128" height="128" viewBox="0 0 128 128" fill="none" xmlns="http://www.w3.org/2000/svg">
<path opacity="0.4" d="M114.4 16.3246C118.133 19.8743 120 23.9642 120 28.5943V99.8975C120 104.528 118.133 108.617 114.4 112.167C110.667 115.717 106.365 117.492 101.496 117.492H81.5304H64H26.5043C21.6348 117.492 17.3333 115.717 13.6 112.167C9.86667 108.617 8 104.528 8 99.8975V28.5943C8 23.9642 9.86667 19.8743 13.6 16.3246C17.3333 12.7749 21.6348 11 26.5043 11H101.496C106.365 11 110.667 12.7749 114.4 16.3246Z" fill="url(#paint0_linear_54_67)"/>
<path d="M64.3956 79.1811V115.463C64.3956 116.567 65.2911 117.463 66.3956 117.463H81.9261V79.1811C81.9261 78.0766 82.8215 77.1811 83.9261 77.1811H98.4304C99.535 77.1811 100.43 76.2857 100.43 75.1811V61.5868C100.43 60.4823 99.535 59.5868 98.4304 59.5868H83.9261C82.8215 59.5868 81.9261 58.6914 81.9261 57.5868V52.4102C81.9261 51.0212 82.2913 49.8637 83.0217 48.9377C83.7522 48.0117 84.5232 47.5486 85.3348 47.5486H98.4304C99.535 47.5486 100.43 46.6532 100.43 45.5486V31.9543C100.43 30.8498 99.535 29.9543 98.4304 29.9543H85.3348C79.6536 29.9543 74.7435 32.2308 70.6043 36.7837C66.4652 41.3366 64.3956 46.6226 64.3956 52.6417V57.5868C64.3956 58.6914 63.5002 59.5868 62.3956 59.5868H52.7609C51.6563 59.5868 50.7609 60.4823 50.7609 61.5868V75.1811C50.7609 76.2857 51.6563 77.1811 52.7609 77.1811H62.3956C63.5002 77.1811 64.3956 78.0766 64.3956 79.1811Z" fill="url(#paint1_linear_54_67)"/>
<defs>
<linearGradient id="paint0_linear_54_67" x1="64" y1="117.492" x2="64" y2="11" gradientUnits="userSpaceOnUse">
<stop stop-color="#5570FF"/>
<stop offset="1" stop-color="#4DD3FF"/>
</linearGradient>
<linearGradient id="paint1_linear_54_67" x1="76.3261" y1="117.463" x2="76.3261" y2="29.9543" gradientUnits="userSpaceOnUse">
<stop stop-color="#5558FF"/>
<stop offset="1" stop-color="#00C0FF"/>
</linearGradient>
</defs>
</svg>
