<svg width="48" height="48" viewBox="0 0 48 48" fill="none" xmlns="http://www.w3.org/2000/svg">
<path opacity="0.4" fill-rule="evenodd" clip-rule="evenodd" d="M24 3C12.4021 3.00023 3.00025 11.6185 3 22.2497C3.0034 25.7947 4.07445 29.2617 6.08275 32.2731C6.35237 32.6774 6.96538 32.5437 7.09048 32.0742C7.26248 31.4286 7.46324 30.8018 7.69088 30.2054C7.72538 30.115 7.60715 30.0269 7.53521 30.0916V30.0916C6.85655 30.7014 6.78346 30.7415 6.78346 30.5001C6.78346 30.3526 6.86119 29.6234 6.95599 28.879C7.10291 27.7274 7.29385 26.6549 7.52393 25.6399C7.55783 25.4904 7.5577 25.3352 7.52544 25.1852C7.31792 24.2206 7.20915 23.238 7.20657 22.2497C7.2068 13.7481 14.7254 6.85617 24 6.85597C31.7258 6.85613 38.2126 11.6432 40.166 18.1556C40.2506 18.4377 40.4472 18.6732 40.7081 18.8098C42.2516 19.618 43.3409 20.6542 44.1907 22.1047C44.2377 22.1849 44.2863 22.2745 44.336 22.3714C44.5031 22.6976 44.9965 22.6162 45 22.2497V22.2497C44.9997 11.6185 35.5979 3.00023 24 3ZM43.9524 25.5164C43.6637 25.5136 43.0494 25.5248 42.9897 25.5259C42.9863 25.526 42.9833 25.526 42.9799 25.526L42.5451 25.5298C42.5399 25.5298 42.5355 25.5299 42.5304 25.53C42.4543 25.5319 41.769 25.5487 41.1275 25.5689C40.6825 25.5829 40.3075 25.8948 40.1798 26.3213C38.695 31.2806 34.5996 35.2396 29.266 36.8583C28.9068 36.9673 28.6326 37.2802 28.6113 37.6551V37.6551L28.5485 38.7607C28.5209 39.2465 27.8929 39.4205 27.6192 39.0182V39.0182C27.3377 38.6048 27.029 38.2125 26.7185 37.8563C26.5059 37.6125 26.1823 37.5023 25.8607 37.5372C25.2433 37.6043 24.6221 37.6399 24 37.6438C21.9331 37.638 19.8853 37.2825 17.9593 36.5952C17.942 36.589 17.9227 36.5879 17.9059 36.5953V36.5953C17.1929 36.8616 16.2197 37.4074 15.1367 38.1255C14.5162 38.5369 14.5906 39.4503 15.2767 39.7395C18.0073 40.8905 20.9818 41.4933 24 41.5C33.943 41.4991 42.4818 35.1138 44.536 26.2638C44.6232 25.888 44.3382 25.5192 43.9524 25.5164V25.5164Z" fill="url(#paint0_linear_54_873)"/>
<path fill-rule="evenodd" clip-rule="evenodd" d="M7.37515 29.1199C7.37515 28.9801 7.454 28.2892 7.55014 27.5841C8.10221 23.5425 9.21169 20.4317 11.0083 17.8876C11.7798 16.7953 13.3961 15.1742 14.4104 14.4759L15.0503 14.0351L16.1083 14.144C17.2728 14.2639 19.5637 14.6786 20.4488 14.9301L21.0148 15.0908L20.7318 14.8763C20.5763 14.7582 20.1439 14.5124 19.7711 14.3298C18.2636 13.5911 17.1197 13.3006 13.9406 12.8488C13.0381 12.7205 12.284 12.601 12.265 12.5827C12.1947 12.5159 14.2613 11.8539 15.4683 11.5562C17.7993 10.9813 18.6836 10.8749 21.128 10.875C23.0491 10.8751 23.5718 10.9132 24.5804 11.1167C28.5987 11.9333 31.7854 13.6234 35.185 16.7404L36.4513 17.9014L37.8565 18.3543C40.2158 19.1148 41.7078 20.1274 42.811 21.717C43.4129 22.5843 44.3589 24.7578 44.0722 24.6147C39.6265 22.3947 35.2207 21.2916 30.1835 21.1372C22.8985 20.9138 16.1627 22.9527 10.167 27.1962C9.47187 27.6882 8.5593 28.3794 8.13907 28.7321C7.45075 29.3098 7.37515 29.3485 7.37515 29.1199ZM32.9569 19.1895C32.9569 18.625 32.5294 17.9007 32.0484 17.6502C31.7324 17.4857 31.4735 17.4517 30.7307 17.478C30.2221 17.4972 29.7706 17.5445 29.7272 17.5857C29.6015 17.7048 30.0895 18.56 30.4958 18.9331C30.9604 19.3595 31.5948 19.5842 32.3626 19.5939L32.9569 19.6016V19.1895Z" fill="url(#paint1_linear_54_873)"/>
<path fill-rule="evenodd" clip-rule="evenodd" d="M9.00187 44.5494C8.6256 43.8444 8.0568 42.3925 7.82651 41.549C7.49349 40.3293 7.375 39.2724 7.375 37.522C7.375 34.55 8.01428 31.3394 9.08483 28.935C9.40119 28.2245 9.46484 28.1581 10.5743 27.3807C12.448 26.0679 13.7564 25.3188 15.9217 24.3189C20.2223 22.333 23.8883 21.4962 28.7701 21.3861C32.4325 21.3038 35.5045 21.675 38.7282 22.5899C40.4503 23.0788 43.3754 24.1586 43.2458 24.2577C43.2224 24.2766 42.7195 24.2463 42.1281 24.1916C40.4893 24.0417 36.455 24.1651 34.6563 24.4208C24.1715 25.9096 16.0398 31.5506 11.1049 40.7584C10.0231 42.7768 9.81149 43.2556 9.59127 44.1828C9.48459 44.6323 9.36235 45 9.31982 45C9.27732 45 9.13427 44.7972 9.00187 44.5494Z" fill="url(#paint2_linear_54_873)"/>
<path fill-rule="evenodd" clip-rule="evenodd" d="M12.9773 39.1067C15.409 35.262 18.8885 31.8319 22.6797 29.5419C24.7886 28.2682 26.8918 27.3247 29.1877 26.6225C30.2292 26.3039 32.4866 25.7504 32.746 25.75C32.7918 25.7499 32.4324 26.2273 31.9473 26.8109C29.4136 29.8589 28.4311 32.4367 28.1729 36.7133L28.0425 38.8751L27.3021 37.8457C26.5341 36.7779 25.5291 35.8143 24.9866 35.6258C23.2791 35.0323 20.8173 35.1148 18.7842 35.8336C17.5528 36.269 15.4491 37.5775 13.4443 39.155C13.0284 39.4823 12.6616 39.75 12.6293 39.75C12.5968 39.75 12.7535 39.4605 12.9773 39.1067Z" fill="url(#paint3_linear_54_873)"/>
<defs>
<linearGradient id="paint0_linear_54_873" x1="24" y1="41.5" x2="24" y2="3" gradientUnits="userSpaceOnUse">
<stop stop-color="#A93AFF"/>
<stop offset="1" stop-color="#FF81FF"/>
</linearGradient>
<linearGradient id="paint1_linear_54_873" x1="7.38038" y1="19.7903" x2="44.1311" y2="19.7903" gradientUnits="userSpaceOnUse">
<stop stop-color="#A93AFF"/>
<stop offset="1" stop-color="#FF81FF"/>
</linearGradient>
<linearGradient id="paint2_linear_54_873" x1="7.38026" y1="32.8375" x2="43.256" y2="32.8375" gradientUnits="userSpaceOnUse">
<stop stop-color="#A93AFF"/>
<stop offset="1" stop-color="#FF81FF"/>
</linearGradient>
<linearGradient id="paint3_linear_54_873" x1="12.6279" y1="32.5425" x2="32.7533" y2="32.5425" gradientUnits="userSpaceOnUse">
<stop stop-color="#A93AFF"/>
<stop offset="1" stop-color="#FF81FF"/>
</linearGradient>
</defs>
</svg>
