<svg width="24" height="24" viewBox="0 0 24 24" fill="none" xmlns="http://www.w3.org/2000/svg">
<path opacity="0.4" d="M12 23C18.0753 23 23 18.0753 23 12C23 5.9247 18.0753 1 12 1C5.9247 1 1 5.9247 1 12C1 13.76 1.4136 15.4232 2.1473 16.8983C2.3431 17.2899 2.408 17.7376 2.2947 18.1611L1.6402 20.6097C1.57562 20.8519 1.57586 21.1069 1.6409 21.349C1.70595 21.5912 1.8335 21.8119 2.01078 21.9892C2.18806 22.1665 2.40883 22.294 2.65095 22.3591C2.89308 22.4241 3.14805 22.4244 3.3903 22.3598L5.8389 21.7053C6.26394 21.5983 6.71343 21.6504 7.1028 21.8516C8.62401 22.6091 10.3006 23.0022 12 23Z" fill="url(#paint0_linear_8_1128)"/>
<path d="M11.5313 8.50109L9.31478 10.2666C8.38528 11.0069 7.91998 11.3776 8.01128 11.7901L8.01568 11.811C8.11908 12.2213 8.70868 12.3797 9.88788 12.6954C10.5424 12.8714 10.8702 12.9594 11.0242 13.2069L11.0319 13.2201C11.1804 13.472 11.0957 13.7866 10.9274 14.4158L10.8834 14.5808C10.4148 16.3254 10.1816 17.1977 10.6315 17.4793C11.0825 17.7609 11.7975 17.1911 13.2308 16.0493L15.4473 14.2849C16.3779 13.5435 16.8421 13.1739 16.7519 12.7603L16.7475 12.7394C16.643 12.3291 16.0545 12.1707 14.8753 11.855C14.2208 11.679 13.893 11.591 13.739 11.3435L13.7313 11.3303C13.5828 11.0795 13.6675 10.7649 13.8358 10.1357L13.8798 9.97069C14.3473 8.22609 14.5816 7.35269 14.1317 7.07109C13.6807 6.78949 12.9646 7.36039 11.5313 8.50109Z" fill="url(#paint1_linear_8_1128)"/>
<defs>
<linearGradient id="paint0_linear_8_1128" x1="12" y1="23" x2="12" y2="1" gradientUnits="userSpaceOnUse">
<stop stop-color="#5558FF"/>
<stop offset="1" stop-color="#00C0FF"/>
</linearGradient>
<linearGradient id="paint1_linear_8_1128" x1="12.3815" y1="17.5505" x2="12.3815" y2="7" gradientUnits="userSpaceOnUse">
<stop stop-color="#5558FF"/>
<stop offset="1" stop-color="#00C0FF"/>
</linearGradient>
</defs>
</svg>
