<svg width="128" height="128" viewBox="0 0 128 128" fill="none" xmlns="http://www.w3.org/2000/svg">
<path opacity="0.4" d="M51.2876 10.4339C47.5119 8.81142 43.4428 7.98303 39.3333 8.00026C22.608 8.00026 9 21.6082 9 38.3335H18.3334C18.3334 44.1482 20.676 49.5615 25.0347 53.6868L34.0542 62.7152C34.3526 63.0139 34.7165 63.239 35.1171 63.3725L43.508 66.1695C44.8872 66.6292 44.5565 68.6668 43.1027 68.6668C41.9612 68.6668 41.3893 70.0469 42.1963 70.8543L57.3731 86.039C57.6718 86.3378 58.0359 86.563 58.4367 86.6967L66.8694 89.51C68.2443 89.9687 67.9144 92.0001 66.465 92.0001C65.322 92.0001 64.7824 93.3578 65.6697 94.0783C71.4427 98.7663 78.682 101.349 86.1819 101.333L108.489 100.891L111.667 85.1821C111.682 79.6646 110.602 74.1989 108.489 69.1018C106.377 64.0047 103.274 59.3774 99.3605 55.4881L61.2806 17.4316C58.4648 14.4384 55.0633 12.0564 51.2876 10.4339Z" fill="url(#paint0_linear_80_293)"/>
<path d="M39.3334 8.00026C43.4429 7.98303 47.512 8.81142 51.2877 10.4339C55.0634 12.0564 58.4649 14.4384 61.2807 17.4316L99.3606 55.4881C103.274 59.3774 106.377 64.0047 108.489 69.1018C110.602 74.1989 111.682 79.6646 111.667 85.1821C111.667 87.6981 108.625 88.9581 106.846 87.179L103.252 83.5857C102.578 82.9113 102.176 82.017 102.059 81.0705C101.171 73.8957 97.9053 67.2076 92.7619 62.0868L54.5887 23.9322C52.6363 21.8424 50.2739 20.1778 47.649 19.0424C45.0241 17.907 42.1933 17.3253 39.3334 17.3336C27.7554 17.3336 18.3335 26.7556 18.3335 38.3335C18.3335 44.1482 20.6761 49.5615 25.0348 53.6868L34.0543 62.7152C34.3527 63.0139 34.7166 63.239 35.1172 63.3725L43.5081 66.1695C44.8873 66.6292 44.5566 68.6668 43.1028 68.6668C41.9613 68.6668 41.3894 70.0469 42.1964 70.8543L57.3732 86.039C57.6719 86.3378 58.036 86.563 58.4368 86.6967L66.8695 89.51C68.2444 89.9687 67.9145 92.0001 66.4651 92.0001C65.3221 92.0001 64.7825 93.3578 65.6698 94.0783C71.4428 98.7663 78.6821 101.349 86.182 101.333C89.7071 101.333 91.4725 97.0713 88.9799 94.5786L55.1958 60.7946C53.6337 59.2325 53.6337 56.6998 55.1958 55.1377L56.1376 54.1959C57.6997 52.6338 60.2324 52.6338 61.7945 54.1959L118.171 110.573C119.734 112.135 119.734 114.668 118.171 116.23L117.23 117.172C115.668 118.734 113.135 118.734 111.573 117.172L106.239 111.838C105.489 111.088 104.472 110.667 103.411 110.667H86.182C80.6644 110.682 75.1986 109.603 70.1014 107.49C65.0042 105.378 60.377 102.275 56.488 98.3607L18.5341 60.3741C15.5141 57.5539 13.1086 54.1408 11.4681 50.3483C9.82758 46.5558 8.98741 42.4656 9.00014 38.3335C9.00014 21.6082 22.6081 8.00026 39.3334 8.00026Z" fill="url(#paint1_linear_80_293)"/>
<defs>
<linearGradient id="paint0_linear_80_293" x1="111.667" y1="59.5276" x2="9" y2="59.5276" gradientUnits="userSpaceOnUse">
<stop stop-color="#FFCD1A"/>
<stop offset="1" stop-color="#FD9C0C"/>
</linearGradient>
<linearGradient id="paint1_linear_80_293" x1="119.343" y1="68.9188" x2="9" y2="68.9188" gradientUnits="userSpaceOnUse">
<stop stop-color="#FFCD1A"/>
<stop offset="1" stop-color="#FD9C0C"/>
</linearGradient>
</defs>
</svg>
