<svg width="128" height="128" viewBox="0 0 128 128" fill="none" xmlns="http://www.w3.org/2000/svg">
<path opacity="0.4" d="M102 8H26C16.0589 8 8 16.0589 8 26V101C8 110.941 16.0589 119 26 119H102C111.941 119 120 110.941 120 101V26C120 16.0589 111.941 8 102 8Z" fill="url(#paint0_linear_314_91)"/>
<path d="M30.951 51.125C29.8318 50.9998 28.3502 50.8341 26.974 51.3832C23.9382 52.4039 22.8026 55.3967 23.1071 57.9936C23.413 60.6034 25.2253 63.2484 28.477 63.4813C46.5073 65.115 62.3857 79.3317 65.9198 96.9075L65.9261 96.9396L65.9342 96.9705C66.1067 97.6237 66.2073 98.3547 66.3121 99.1763C66.3193 99.2325 66.3266 99.2886 66.3339 99.3459C66.4292 100.096 66.5333 100.915 66.71 101.698C67.0934 103.403 67.868 105.17 69.8729 106.181C71.8503 107.348 74.2092 107.137 76.0226 106.149C77.8505 105.154 79.3035 103.269 79.2734 100.917L79.273 100.881L79.2701 100.845C78.2866 88.5965 72.8213 76.7822 64.2754 67.9193C55.6415 58.7637 43.7296 52.7608 31.1996 51.1528L31.1893 51.1514L31.1789 51.1502C31.1048 51.1422 31.0288 51.1337 30.951 51.125Z" fill="url(#paint1_linear_314_91)" stroke="url(#paint2_linear_314_91)" stroke-width="2"/>
<path d="M29.4015 69.5036C28.1794 69.4369 27.0212 69.7245 25.9708 70.3608C24.2035 71.3747 23.2365 73.1973 23.0386 75.0379C22.8416 76.8708 23.3924 78.8488 24.8202 80.2298C25.5727 81.0263 26.4948 81.4416 27.3562 81.711C27.7903 81.8466 28.2287 81.9509 28.6343 82.0436C28.7099 82.0608 28.7838 82.078 28.8564 82.0942C29.1865 82.1695 29.4903 82.2385 29.7872 82.3181L29.8091 82.3245L29.8312 82.3287C38.8425 84.3542 46.2111 92.034 47.8999 101.017C48.2607 103.586 49.9974 106.206 52.8955 106.82C54.9819 107.356 57.0768 106.645 58.5345 105.345C59.9954 104.041 60.9286 102.04 60.5304 99.8867C58.2944 84.5113 45.0474 71.4865 29.4783 69.5106L29.4401 69.5058L29.4015 69.5036Z" fill="url(#paint3_linear_314_91)" stroke="url(#paint4_linear_314_91)" stroke-width="2"/>
<path d="M39.615 99.3688C40.0195 96.4159 38.5515 93.7334 36.4023 92.0834C34.2523 90.431 31.271 89.6965 28.495 90.808C25.4365 91.7637 23.6035 94.4576 23.1448 97.2696C22.6865 100.078 23.5678 103.206 26.1662 105.073C28.6156 107.2 31.9209 107.281 34.5719 106.145C37.221 105.01 39.4426 102.565 39.615 99.3688Z" fill="url(#paint5_linear_314_91)" stroke="url(#paint6_linear_314_91)" stroke-width="2"/>
<defs>
<linearGradient id="paint0_linear_314_91" x1="116.841" y1="63.5" x2="23.5829" y2="29.4613" gradientUnits="userSpaceOnUse">
<stop stop-color="#FE7970"/>
<stop offset="1" stop-color="#DC3282"/>
</linearGradient>
<linearGradient id="paint1_linear_314_91" x1="77.6883" y1="78.9878" x2="30.829" y2="61.9648" gradientUnits="userSpaceOnUse">
<stop stop-color="#FE7970"/>
<stop offset="1" stop-color="#DC3282"/>
</linearGradient>
<linearGradient id="paint2_linear_314_91" x1="77.6883" y1="78.9878" x2="30.829" y2="61.9648" gradientUnits="userSpaceOnUse">
<stop stop-color="#FE7970"/>
<stop offset="1" stop-color="#DC3282"/>
</linearGradient>
<linearGradient id="paint3_linear_314_91" x1="59.5615" y1="88.247" x2="28.1916" y2="76.864" gradientUnits="userSpaceOnUse">
<stop stop-color="#FE7970"/>
<stop offset="1" stop-color="#DC3282"/>
</linearGradient>
<linearGradient id="paint4_linear_314_91" x1="59.5615" y1="88.247" x2="28.1916" y2="76.864" gradientUnits="userSpaceOnUse">
<stop stop-color="#FE7970"/>
<stop offset="1" stop-color="#DC3282"/>
</linearGradient>
<linearGradient id="paint5_linear_314_91" x1="39.2124" y1="98.5744" x2="25.3285" y2="93.5342" gradientUnits="userSpaceOnUse">
<stop stop-color="#FE7970"/>
<stop offset="1" stop-color="#DC3282"/>
</linearGradient>
<linearGradient id="paint6_linear_314_91" x1="39.2124" y1="98.5744" x2="25.3285" y2="93.5342" gradientUnits="userSpaceOnUse">
<stop stop-color="#FE7970"/>
<stop offset="1" stop-color="#DC3282"/>
</linearGradient>
</defs>
</svg>
