<svg width="64" height="64" viewBox="0 0 64 64" fill="none" xmlns="http://www.w3.org/2000/svg">
<path d="M6.15385 12C4.96431 12 4 12.9643 4 14.1538V17.8334V28.3334V34.1666V49.5128C4 50.7024 4.96431 51.6666 6.15385 51.6666H7.67949C8.86898 51.6666 9.83337 50.7024 9.83337 49.5128V36.3205C9.83337 35.131 10.7976 34.1666 11.9872 34.1666H18.1795C19.369 34.1666 20.3334 33.2024 20.3334 32.0128V30.4872C20.3334 29.2976 19.369 28.3334 18.1795 28.3334H11.9872C10.7976 28.3334 9.83337 27.369 9.83337 26.1795V19.9872C9.83337 18.7976 10.7976 17.8334 11.9872 17.8334H18.1795C19.369 17.8334 20.3334 16.869 20.3334 15.6795V14.1538C20.3334 12.9643 19.369 12 18.1795 12H9.83337H6.15385ZM25.9872 12C24.7976 12 23.8334 12.9643 23.8334 14.1538V49.5128C23.8334 50.7024 24.7976 51.6666 25.9872 51.6666H29.6666H38.0128C39.2024 51.6666 40.1666 50.7024 40.1666 49.5128V47.9872C40.1666 46.7976 39.2024 45.8334 38.0128 45.8334H31.8205C30.631 45.8334 29.6666 44.869 29.6666 43.6795V36.3205C29.6666 35.131 30.631 34.1666 31.8205 34.1666H38.0128C39.2024 34.1666 40.1666 33.2024 40.1666 32.0128V30.4872C40.1666 29.2976 39.2024 28.3334 38.0128 28.3334H31.8205C30.631 28.3334 29.6666 27.369 29.6666 26.1795V19.9872C29.6666 18.7976 30.631 17.8334 31.8205 17.8334H38.0128C39.2024 17.8334 40.1666 16.869 40.1666 15.6795V14.1538C40.1666 12.9643 39.2024 12 38.0128 12H29.6666H25.9872Z" fill="url(#paint0_linear_80_314)"/>
<path opacity="0.4" d="M43.6667 14.1538C43.6667 12.9643 44.6311 12 45.8206 12H47.3463C48.5358 12 49.5001 12.9643 49.5001 14.1538V26.1795C49.5001 27.369 50.4644 28.3334 51.654 28.3334H52.0129C53.2025 28.3334 54.1667 27.369 54.1667 26.1795V14.1538C54.1667 12.9643 55.1311 12 56.3206 12H57.8463C59.0358 12 60.0001 12.9643 60.0001 14.1538V28.3334V34.1666V49.5128C60.0001 50.7024 59.0358 51.6666 57.8463 51.6666H56.3206C55.1311 51.6666 54.1667 50.7024 54.1667 49.5128V36.3205C54.1667 35.131 53.2025 34.1666 52.0129 34.1666H51.654C50.4644 34.1666 49.5001 35.131 49.5001 36.3205V49.5128C49.5001 50.7024 48.5358 51.6666 47.3463 51.6666H45.8206C44.6311 51.6666 43.6667 50.7024 43.6667 49.5128V14.1538Z" fill="url(#paint1_linear_80_314)"/>
<defs>
<linearGradient id="paint0_linear_80_314" x1="32" y1="12" x2="32" y2="51.6666" gradientUnits="userSpaceOnUse">
<stop stop-color="#F75050"/>
<stop offset="1" stop-color="#A00909"/>
</linearGradient>
<linearGradient id="paint1_linear_80_314" x1="32" y1="12" x2="32" y2="51.6666" gradientUnits="userSpaceOnUse">
<stop stop-color="#F75050"/>
<stop offset="1" stop-color="#A00909"/>
</linearGradient>
</defs>
</svg>
