<svg width="24" height="24" viewBox="0 0 24 24" fill="none" xmlns="http://www.w3.org/2000/svg">
<path opacity="0.4" d="M1 6.445C1 5.4737 1 4.9886 1.077 4.5838C1.24115 3.71462 1.66345 2.9151 2.28882 2.28954C2.91418 1.66397 3.71358 1.24142 4.5827 1.077C4.9886 1 5.4748 1 6.445 1C6.8696 1 7.083 1 7.2876 1.0187C8.16875 1.10145 9.00447 1.44801 9.6856 2.0131C9.844 2.144 9.9936 2.2936 10.295 2.595L10.9 3.2C11.7976 4.0976 12.2464 4.5464 12.7832 4.8445C13.0782 5.00894 13.3912 5.13887 13.716 5.2317C14.3078 5.4 14.9425 5.4 16.2108 5.4H16.6222C19.5174 5.4 20.9661 5.4 21.9066 6.247C21.9935 6.324 22.076 6.4065 22.153 6.4934C23 7.4339 23 8.8826 23 11.7778V14.2C23 18.3481 23 20.4227 21.7108 21.7108C20.4227 23 18.3481 23 14.2 23H9.8C5.6519 23 3.5773 23 2.2892 21.7108C1 20.4227 1 18.3481 1 14.2V6.445Z" fill="url(#paint0_linear_8_1072)"/>
<path d="M20.7999 5.66178C20.7999 5.33398 20.7944 5.13928 20.7724 4.96878C20.6774 4.24866 20.3475 3.58 19.8338 3.06649C19.3201 2.55298 18.6513 2.2233 17.9311 2.12858C17.7166 2.09998 17.4614 2.09998 16.9499 2.09998H9.78674C9.91434 2.21438 10.0584 2.35738 10.2949 2.59498L10.8999 3.19998C11.7975 4.09758 12.2463 4.54638 12.7831 4.84448C13.0785 5.009 13.3919 5.13892 13.717 5.23168C14.3077 5.39998 14.9424 5.39998 16.2118 5.39998H16.6221C18.5801 5.39998 19.8748 5.39998 20.7999 5.66178Z" fill="url(#paint1_linear_8_1072)"/>
<path d="M11.9022 15.3566H7.84345V19.6301H6.09113V9.54553H12.4979V10.9585H7.84345V13.9575H11.9022V15.3566ZM16.6839 18.7691H20V19.6301H15.3797V18.9311L18.5892 14.2938H15.401V13.4242H19.8977V14.1062L16.6839 18.7691Z" fill="url(#paint2_linear_8_1072)"/>
<path d="M11.3567 15.3567V15.9022L11.9022 15.3567H11.3567ZM7.29789 15.3567V14.8111L6.75232 15.3567H7.29789ZM7.29789 19.6301V20.1757L7.84346 19.6301H7.29789ZM5.54557 19.6301H5L5.54557 20.1757V19.6301ZM5.54557 9.54557V9L5 9.54557H5.54557ZM11.9523 9.54557H12.4979L11.9523 9V9.54557ZM11.9523 10.9585V11.5041L12.4979 10.9585H11.9523ZM7.29789 10.9585V10.413L6.75232 10.9585H7.29789ZM7.29789 13.9576H6.75232L7.29789 14.5031V13.9576ZM11.3567 13.9576H11.9022L11.3567 13.412V13.9576ZM11.3567 14.8111H7.29789V15.9022H11.3567V14.8111ZM6.75232 15.3567V19.6301H7.84346V15.3567H6.75232ZM7.29789 19.0846H5.54557V20.1757H7.29789V19.0846ZM6.09114 19.6301V9.54557H5V19.6301H6.09114ZM5.54557 10.0911H11.9523V9H5.54557V10.0911ZM11.4068 9.54557V10.9585H12.4979V9.54557H11.4068ZM11.9523 10.413H7.29789V11.5041H11.9523V10.413ZM6.75232 10.9585V13.9576H7.84346V10.9585H6.75232ZM7.29789 14.5031H11.3567V13.412H7.29789V14.5031ZM10.8111 13.9576V15.3567H11.9022V13.9576H10.8111ZM16.1384 18.7692L15.6892 18.4596L16.1384 19.3147V18.7692ZM19.4544 18.7692H20L19.4544 18.2236V18.7692ZM19.4544 19.6301V20.1757L20 19.6301H19.4544ZM14.8341 19.6301H14.2886L14.8341 20.1757V19.6301ZM14.8341 18.9311L14.3855 18.6207L14.2886 18.9311H14.8341ZM18.0436 14.2938L18.4923 14.6042L18.0436 13.7482V14.2938ZM14.8555 14.2938H14.3099L14.8555 14.8394V14.2938ZM14.8555 13.4243V12.8787L14.3099 13.4243H14.8555ZM19.3521 13.4243H19.8977L19.3521 12.8787V13.4243ZM19.3521 14.1062L19.8014 14.4158L19.8977 14.1062H19.3521ZM16.1384 19.3147H19.4544V18.2236H16.1384V19.3147ZM18.9089 18.7692V19.6301H20V18.7692H18.9089ZM19.4544 19.0846H14.8341V20.1757H19.4544V19.0846ZM15.3797 19.6301V18.9311H14.2886V19.6301H15.3797ZM15.2828 19.2416L18.4923 14.6042L17.595 13.9833L14.3855 18.6207L15.2828 19.2416ZM18.0436 13.7482H14.8555V14.8394H18.0436V13.7482ZM15.401 14.2938V13.4243H14.3099V14.2938H15.401ZM14.8555 13.9698H19.3521V12.8787H14.8555V13.9698ZM18.8066 13.4243V14.1062H19.8977V13.4243H18.8066ZM18.903 13.7966L15.6892 18.4596L16.5876 19.0788L19.8014 14.4158L18.903 13.7966Z" fill="url(#paint3_linear_8_1072)"/>
<defs>
<linearGradient id="paint0_linear_8_1072" x1="-3.77686" y1="21.926" x2="21.7076" y2="21.2816" gradientUnits="userSpaceOnUse">
<stop stop-color="#FD5900"/>
<stop offset="1" stop-color="#FF007A"/>
</linearGradient>
<linearGradient id="paint1_linear_8_1072" x1="7.39544" y1="5.4879" x2="20.0835" y2="4.49583" gradientUnits="userSpaceOnUse">
<stop stop-color="#FD5900"/>
<stop offset="1" stop-color="#FF007A"/>
</linearGradient>
<linearGradient id="paint2_linear_8_1072" x1="5.06605" y1="19.6301" x2="20.3421" y2="19.6301" gradientUnits="userSpaceOnUse">
<stop stop-color="#FD5900"/>
<stop offset="1" stop-color="#FF007A"/>
</linearGradient>
<linearGradient id="paint3_linear_8_1072" x1="1.74305" y1="19.6301" x2="19.1099" y2="19.0407" gradientUnits="userSpaceOnUse">
<stop stop-color="#FD5900"/>
<stop offset="1" stop-color="#FF007A"/>
</linearGradient>
</defs>
</svg>
