<svg width="24" height="24" viewBox="0 0 24 24" fill="none" xmlns="http://www.w3.org/2000/svg">
<path opacity="0.4" d="M1 6.445C1 5.4737 1 4.9886 1.077 4.5838C1.24115 3.71462 1.66345 2.9151 2.28882 2.28954C2.91418 1.66397 3.71358 1.24142 4.5827 1.077C4.9886 1 5.4748 1 6.445 1C6.8696 1 7.083 1 7.2876 1.0187C8.16875 1.10145 9.00447 1.44801 9.6856 2.0131C9.844 2.144 9.9936 2.2936 10.295 2.595L10.9 3.2C11.7976 4.0976 12.2464 4.5464 12.7832 4.8445C13.0782 5.00894 13.3912 5.13887 13.716 5.2317C14.3078 5.4 14.9425 5.4 16.2108 5.4H16.6222C19.5174 5.4 20.9661 5.4 21.9066 6.247C21.9935 6.324 22.076 6.4065 22.153 6.4934C23 7.4339 23 8.8826 23 11.7778V14.2C23 18.3481 23 20.4227 21.7108 21.7108C20.4227 23 18.3481 23 14.2 23H9.8C5.6519 23 3.5773 23 2.2892 21.7108C1 20.4227 1 18.3481 1 14.2V6.445Z" fill="url(#paint0_linear_8_459)"/>
<path d="M20.7999 5.66178C20.7999 5.33398 20.7944 5.13928 20.7724 4.96878C20.6774 4.24866 20.3475 3.58 19.8338 3.06649C19.3201 2.55298 18.6513 2.2233 17.9311 2.12858C17.7166 2.09998 17.4614 2.09998 16.9499 2.09998H9.78674C9.91434 2.21438 10.0584 2.35738 10.2949 2.59498L10.8999 3.19998C11.7975 4.09758 12.2463 4.54638 12.7831 4.84448C13.0785 5.009 13.3919 5.13892 13.717 5.23168C14.3077 5.39998 14.9424 5.39998 16.2118 5.39998H16.6221C18.5801 5.39998 19.8748 5.39998 20.7999 5.66178Z" fill="url(#paint1_linear_8_459)"/>
<path fill-rule="evenodd" clip-rule="evenodd" d="M12.275 9.79998C12.275 9.58117 12.3619 9.37133 12.5167 9.21661C12.6714 9.0619 12.8812 8.97498 13.1 8.97498H18.6C18.8188 8.97498 19.0287 9.0619 19.1834 9.21661C19.3381 9.37133 19.425 9.58117 19.425 9.79998C19.425 10.0188 19.3381 10.2286 19.1834 10.3833C19.0287 10.5381 18.8188 10.625 18.6 10.625H13.1C12.8812 10.625 12.6714 10.5381 12.5167 10.3833C12.3619 10.2286 12.275 10.0188 12.275 9.79998Z" fill="url(#paint2_linear_8_459)"/>
<defs>
<linearGradient id="paint0_linear_8_459" x1="0.682006" y1="1.21648" x2="23.3621" y2="24.5905" gradientUnits="userSpaceOnUse">
<stop stop-color="#F9D423"/>
<stop offset="0.515624" stop-color="#FF4E50"/>
<stop offset="0.991304" stop-color="#8A2387"/>
</linearGradient>
<linearGradient id="paint1_linear_8_459" x1="9.62756" y1="2.13502" x2="11.7265" y2="8.82352" gradientUnits="userSpaceOnUse">
<stop stop-color="#F9D423"/>
<stop offset="0.515624" stop-color="#FF4E50"/>
<stop offset="0.991304" stop-color="#8A2387"/>
</linearGradient>
<linearGradient id="paint2_linear_8_459" x1="12.1717" y1="8.99121" x2="12.8974" y2="12.2323" gradientUnits="userSpaceOnUse">
<stop stop-color="#F9D423"/>
<stop offset="0.515624" stop-color="#FF4E50"/>
<stop offset="0.991304" stop-color="#8A2387"/>
</linearGradient>
</defs>
</svg>
