<svg width="128" height="128" viewBox="0 0 128 128" fill="none" xmlns="http://www.w3.org/2000/svg">
<path opacity="0.4" d="M11 38C11 22.536 23.536 10 39 10H69C95.5097 10 117 31.4903 117 58V90C117 105.464 104.464 118 89 118H39C23.536 118 11 105.464 11 90V38Z" fill="url(#paint0_linear_216_273)"/>
<path fill-rule="evenodd" clip-rule="evenodd" d="M89 52H116.624C113.903 30.3034 96.7012 13.1109 75 10.4048V38C75 45.732 81.268 52 89 52ZM33 86.0001C31.9391 86.0001 30.9217 85.5787 30.1716 84.8285C29.4214 84.0784 29 83.061 29 82.0001C29 80.9392 29.4214 79.9218 30.1716 79.1717C30.9217 78.4215 31.9391 78.0001 33 78.0001H62.3333C63.3942 78.0001 64.4116 78.4215 65.1618 79.1717C65.9119 79.9218 66.3333 80.9392 66.3333 82.0001C66.3333 83.061 65.9119 84.0784 65.1618 84.8285C64.4116 85.5787 63.3942 86.0001 62.3333 86.0001H33ZM33 102.667C31.9391 102.667 30.9217 102.245 30.1716 101.495C29.4214 100.745 29 99.7277 29 98.6668C29 97.6059 29.4214 96.5885 30.1716 95.8384C30.9217 95.0882 31.9391 94.6668 33 94.6668H75.6667C76.7275 94.6668 77.7449 95.0882 78.4951 95.8384C79.2452 96.5885 79.6667 97.6059 79.6667 98.6668C79.6667 99.7277 79.2452 100.745 78.4951 101.495C77.7449 102.245 76.7275 102.667 75.6667 102.667H33Z" fill="url(#paint1_linear_216_273)"/>
<defs>
<linearGradient id="paint0_linear_216_273" x1="64.0002" y1="118" x2="64.0002" y2="10" gradientUnits="userSpaceOnUse">
<stop stop-color="#DADADA"/>
<stop offset="0.9973" stop-color="#F3F3F3"/>
</linearGradient>
<linearGradient id="paint1_linear_216_273" x1="72.8122" y1="102.667" x2="72.8122" y2="10.4048" gradientUnits="userSpaceOnUse">
<stop stop-color="#DADADA"/>
<stop offset="0.9973" stop-color="#F3F3F3"/>
</linearGradient>
</defs>
</svg>
