<svg width="128" height="133" viewBox="0 0 128 133" fill="none" xmlns="http://www.w3.org/2000/svg">
<path opacity="0.4" fill-rule="evenodd" clip-rule="evenodd" d="M117.801 46.1961C115.277 40.1247 110.159 33.5694 106.151 31.4972C109.01 37.0338 110.994 42.9798 112.032 49.1238L112.042 49.2203C111.805 48.6293 111.562 48.0511 111.313 47.4848C107.45 38.6845 102.223 32.7594 96.8013 26.6125C95.8278 25.5089 94.8481 24.3982 93.8688 23.2624C90.9308 19.855 87.9969 16.2219 85.2493 11.8792C84.7796 11.1466 84.3235 10.4053 83.8813 9.65576C83.8813 9.65574 83.8813 9.65572 83.8813 9.65569C83.6533 9.26423 83.4399 8.86447 83.2415 8.45725C83.2415 8.45723 83.2415 8.4572 83.2415 8.45718C82.8642 7.72682 82.5734 6.95491 82.3751 6.15712C82.3753 6.12993 82.3681 6.10339 82.3545 6.08023C82.3497 6.07202 82.3441 6.06423 82.3377 6.05699C82.3134 6.02933 82.2798 6.01158 82.2432 6.00713C82.2255 6.00242 82.2073 6.00004 82.1891 6C82.1889 6 82.1888 6 82.1886 6C82.1703 6 82.1519 6.00238 82.134 6.00713C82.13 6.00713 82.1245 6.01126 82.1189 6.01549C82.1143 6.01895 82.1096 6.02247 82.1055 6.0239C82.1005 6.02538 82.0925 6.03009 82.0841 6.03502L82.0841 6.03505C82.077 6.03916 82.0698 6.04343 82.0638 6.0461L82.0857 6.00758L82.0859 6.00723L82.086 6.00713C81.015 6.63424 79.996 7.30053 79.0269 8.00001C76.6964 9.6822 74.6545 11.5563 72.8729 13.5388C69.3694 17.4376 66.8729 21.7557 65.168 25.8577C63.1908 30.6151 62.2784 35.0818 62.095 38.2669C56.27 38.6672 50.7008 40.8137 46.1138 44.4262C45.6352 44.0209 45.1349 43.6419 44.6153 43.2907C43.2922 38.6592 43.2359 33.7577 44.4522 29.097C39.0955 31.6919 34.3357 35.3705 30.4742 39.9H30.447C28.1456 36.9827 28.3073 27.3634 28.4392 25.3538C27.7584 25.6276 27.1085 25.9727 26.5003 26.3832C24.4687 27.8334 22.5694 29.4605 20.8244 31.2453C18.8363 33.2612 17.0205 35.44 15.396 37.7589V37.7571C11.6627 43.0503 9.01455 49.0304 7.60451 55.3524L7.52703 55.7358C7.31271 56.9407 7.12236 58.1497 6.95609 59.3621C6.95609 59.3907 6.95219 59.4179 6.94823 59.4455C6.94615 59.4599 6.94406 59.4745 6.9425 59.4895C6.43414 62.1314 6.11914 64.807 6 67.4948V67.7948C6.03897 112.501 54.459 140.399 93.1558 118.012C100.52 113.752 106.859 107.925 111.723 100.944C116.587 93.9635 119.858 85.9993 121.304 77.6149C121.376 77.0594 121.438 76.5079 121.501 75.9513L121.501 75.9501C121.523 75.7566 121.545 75.5625 121.568 75.3674C122.764 65.4817 121.469 55.4538 117.801 46.1961ZM50.8693 91.6527C50.9766 91.7043 51.0813 91.7575 51.1859 91.8107L51.1861 91.8108C51.346 91.8921 51.5056 91.9733 51.6741 92.0483L51.7144 92.0741C51.4306 91.9379 51.1489 91.7974 50.8693 91.6527ZM112.047 49.2348V49.1791L112.057 49.2407L112.047 49.2348Z" fill="url(#paint0_linear_12_100)"/>
<path fill-rule="evenodd" clip-rule="evenodd" d="M6.53062 69.1688C11.012 95.6507 35.0127 115.869 62.26 116.641C62.6163 116.651 62.9708 116.658 63.3235 116.662C62.9683 116.658 62.6112 116.651 62.2523 116.641C35.005 115.869 11.0088 95.6507 6.52291 69.1687C6.02477 66.6211 6.13442 64.8398 6.38889 63.0674C6.19699 65.2523 6.16542 67.4901 6.53062 69.1688ZM96.5842 84.5206C107.249 75.7345 114.082 62.7527 112.078 49.3433L112.043 49.2407L112.032 49.1791V49.1238C110.994 42.9799 109.01 37.0339 106.151 31.4973C110.159 33.5694 115.277 40.1248 117.801 46.1962C121.469 55.4539 122.764 65.4817 121.568 75.3675C121.545 75.5626 121.523 75.7566 121.501 75.9501C121.439 76.5071 121.376 77.0591 121.304 77.615C119.858 85.9994 116.587 93.9636 111.723 100.944C106.859 107.925 100.52 113.752 93.1558 118.012C54.459 140.399 6.03897 112.501 6 67.7948V67.4949C6.04508 65.4973 6.22852 63.5062 6.54864 61.5356C6.94319 58.2397 7.5889 55.4183 7.60453 55.3525C9.01457 49.0306 11.6627 43.0504 15.396 37.7572V37.7591C17.0286 35.4446 18.852 33.2708 20.8471 31.2603C22.5919 29.4754 24.4913 27.8484 26.5229 26.3983C27.131 25.9876 27.7809 25.6426 28.4619 25.3693C28.33 27.3784 28.1682 36.9978 30.4697 39.915H30.4964C30.7596 39.9077 38.2868 39.7724 42.6911 42.0768C38.2909 39.7568 30.7313 39.8927 30.4633 39.9C34.3251 35.3707 39.085 31.6921 44.4418 29.0971C43.2258 33.7558 43.2816 38.6554 44.6033 43.2852L44.6334 43.3058C45.1532 43.6569 45.6534 44.0362 46.1319 44.4417C46.9275 45.116 47.8148 45.9914 49.5138 47.6675L49.5139 47.6676L49.5141 47.6678L50.1217 48.267C52.7714 50.8762 58.2087 53.5498 61.4937 55.1651C63.0943 55.9521 64.1839 56.4879 64.1912 56.6426L64.1717 56.6496C64.0306 58.1221 58.9649 63.0537 57.1895 63.0537C40.6763 63.0537 37.9956 73.0433 37.9956 73.0433C38.7269 81.4551 44.5827 88.3834 51.6741 92.0469C51.5056 91.9719 51.3458 91.8907 51.1859 91.8093L51.1858 91.8093C51.0812 91.7561 50.9766 91.7029 50.8693 91.6514C48.6449 90.5884 46.6594 89.349 44.9067 87.9752C46.6639 89.3549 48.6553 90.5995 50.8875 91.6664C51.1618 91.8086 51.4384 91.9465 51.717 92.0799C51.7142 92.078 51.7113 92.0761 51.7085 92.0742L51.6682 92.0483C51.9878 92.2144 52.3119 92.3623 52.6364 92.5105L52.6483 92.5159C53.2095 92.7658 53.7782 92.9987 54.3534 93.2142C56.7851 94.0749 59.332 94.5662 61.9093 94.6719C90.8558 96.0295 96.4596 60.0663 75.5728 49.6227C80.5002 48.9816 85.4901 50.1932 89.5748 53.0225C89.6842 53.0993 89.7869 53.176 89.8895 53.2528L89.9359 53.2876C90.2369 53.5117 90.5274 53.7497 90.8064 54.0008C103.978 66.1332 97.0799 83.2935 96.5602 84.5074L96.5271 84.5822C77.7056 99.9134 59.6243 95.9132 53.3199 92.9637C59.6031 95.909 77.7112 99.9397 96.5511 84.5958L96.5842 84.5206ZM43.6585 42.6569C43.8483 42.7817 44.0248 42.8979 44.1907 43.0081C44.0143 42.8895 43.8369 42.7725 43.6585 42.6569ZM34.774 65.2957C31.8966 65.3344 29.0694 64.5397 26.6334 63.0075C26.0765 62.6571 25.5454 62.2717 25.043 61.8542C25.54 62.2659 26.065 62.6463 26.6153 62.9924C29.0569 64.5282 31.8915 65.323 34.7757 65.2804L34.774 65.2957Z" fill="url(#paint1_linear_12_100)"/>
<defs>
<linearGradient id="paint0_linear_12_100" x1="64" y1="6" x2="64" y2="125.905" gradientUnits="userSpaceOnUse">
<stop stop-color="#DC18FC"/>
<stop offset="1" stop-color="#8E1EFF"/>
</linearGradient>
<linearGradient id="paint1_linear_12_100" x1="64" y1="25.3693" x2="64" y2="125.905" gradientUnits="userSpaceOnUse">
<stop stop-color="#DC18FC"/>
<stop offset="1" stop-color="#8E1EFF"/>
</linearGradient>
</defs>
</svg>
