<svg width="32" height="32" viewBox="0 0 32 32" fill="none" xmlns="http://www.w3.org/2000/svg">
<path opacity="0.4" fill-rule="evenodd" clip-rule="evenodd" d="M6.33333 1.5H25.6667C26.9485 1.5 28.1779 1.88192 29.0843 2.56174C29.9908 3.24156 30.5 4.16359 30.5 5.125V26.875C30.5 27.8364 29.9908 28.7584 29.0843 29.4383C28.1779 30.1181 26.9485 30.5 25.6667 30.5H6.33333C5.05145 30.5 3.82208 30.1181 2.91565 29.4383C2.00922 28.7584 1.5 27.8364 1.5 26.875V5.125C1.5 4.16359 2.00922 3.24156 2.91565 2.56174C3.82208 1.88192 5.05145 1.5 6.33333 1.5Z" fill="url(#paint0_linear_12_135)"/>
<path d="M19.1208 14.0251H21.2752C21.8275 14.0251 22.2752 14.4728 22.2752 15.0251V17.042C22.2752 17.5943 21.8275 18.042 21.2752 18.042H17.2433C17.1324 18.042 17.0342 18.1135 17 18.2189C15.4304 23.0609 12.8531 25.237 10.6955 26.2134C9.61217 26.7037 8.62621 26.8953 7.91269 26.9645C7.55604 26.9991 7.26804 27.003 7.07076 26.9985C7.03126 26.9976 7 26.9651 7 26.9256V23.5225C7 23.2285 7.24393 22.9945 7.53603 22.9609C8.03988 22.9029 8.72976 22.7304 9.49286 22.277C11.0233 21.3678 12.8072 19.3553 14.0029 14.989C15.4655 9.64599 18.1693 7.16449 20.4794 6.00867C21.639 5.42849 22.7078 5.1782 23.4853 5.07291C23.8739 5.02026 24.1891 5.00394 24.4056 5.00067C24.4564 4.99988 24.4975 5.04116 24.4975 5.09194V8.08514C24.4975 8.61685 24.0782 9.046 23.557 9.15115C21.8782 9.48983 20.7573 10.4506 20.0377 11.4002C19.6003 11.9774 19.3102 12.5508 19.1294 12.9797C19.0388 13.1944 18.9753 13.3739 18.9341 13.5006C18.9135 13.564 18.8985 13.6143 18.8885 13.6494C18.8835 13.6669 18.8797 13.6806 18.8771 13.6903L18.8741 13.7017L18.8732 13.705C18.873 13.7058 18.8733 13.7062 18.874 13.7064C18.8794 13.708 18.9131 13.7169 19.1208 13.7692L19.0122 13.7419C18.9352 13.7225 18.8571 13.7692 18.8377 13.8462C18.8148 13.937 18.8834 14.0251 18.9771 14.0251H19.1208Z" fill="url(#paint1_linear_12_135)"/>
<defs>
<linearGradient id="paint0_linear_12_135" x1="1.08083" y1="1.78536" x2="30.9773" y2="32.5965" gradientUnits="userSpaceOnUse">
<stop stop-color="#F9D423"/>
<stop offset="0.515624" stop-color="#FF4E50"/>
<stop offset="0.991304" stop-color="#8A2387"/>
</linearGradient>
<linearGradient id="paint1_linear_12_135" x1="15.7487" y1="4.74419" x2="15.7487" y2="27.2558" gradientUnits="userSpaceOnUse">
<stop stop-color="#F75050"/>
<stop offset="1" stop-color="#A00909"/>
</linearGradient>
</defs>
</svg>
