<svg width="16" height="16" viewBox="0 0 16 16" fill="none" xmlns="http://www.w3.org/2000/svg">
<path opacity="0.4" d="M10.0853 2.92301L13.0771 6.1166C14.4411 7.57264 14.4063 8.8831 13.0483 10.3448L10.0277 13.596C9.33914 14.3371 8.89477 15.0099 7.96132 14.9999C7.0537 14.9901 6.149 14.6375 5.4535 13.942L2.05809 10.5466C0.647302 9.13581 0.647302 6.86429 2.05809 5.4535L5.4535 2.05809C6.16357 1.34802 7.0917 0.995334 8.01838 1.00005C8.93284 1.0047 9.40782 2.19982 10.0853 2.92301Z" fill="url(#paint0_linear_298_315)"/>
<path d="M8.39992 1.02227C8.1801 0.997706 8.00032 1.17874 8.00051 1.39993C8.00107 2.05821 8.00112 3.36721 7.99387 4.07278C7.99272 4.18095 7.93797 4.31367 7.86262 4.39133C7.36082 4.90954 6.84412 5.41262 6.34025 5.92875C6.27645 5.99416 6.25071 6.10566 6.25001 6.19603C6.24238 7.29416 6.24931 8.39285 6.25001 9.49098C6.25001 9.52362 6.24679 9.55605 6.24824 9.58862C6.24886 9.60262 6.2575 9.61529 6.26744 9.62518V9.62518C6.28393 9.64157 6.30822 9.6399 6.32464 9.62345C7.17909 8.76723 8.16845 7.69626 9.0747 6.75682C9.32212 6.50034 9.75106 6.6765 9.75177 7.03286C9.75332 7.80253 9.75515 8.62545 9.75047 9.32125C9.75001 9.39336 9.68537 9.47953 9.63221 9.53385C9.20923 9.96561 8.57216 10.744 8.14016 11.1666C8.03939 11.2653 7.9966 11.3644 7.99729 11.507C8.00256 12.6904 8.00811 13.765 8.00889 14.9462C8.0089 14.9681 8.02295 14.9877 8.04376 14.9946V14.9946C8.0492 14.9964 8.0549 14.9973 8.06063 14.9972C8.96087 14.9821 9.85655 14.6318 10.5464 13.9419L13.9419 10.5465C15.3527 9.13567 15.3527 6.86444 13.9419 5.45365L10.5464 2.05821C9.94334 1.45513 9.18308 1.10976 8.39992 1.02227Z" fill="url(#paint1_linear_298_315)"/>
<defs>
<linearGradient id="paint0_linear_298_315" x1="7.54179" y1="15" x2="7.54179" y2="1" gradientUnits="userSpaceOnUse">
<stop stop-color="#5570FF"/>
<stop offset="1" stop-color="#4DD3FF"/>
</linearGradient>
<linearGradient id="paint1_linear_298_315" x1="10.6232" y1="14.9974" x2="10.6232" y2="1" gradientUnits="userSpaceOnUse">
<stop stop-color="#5570FF"/>
<stop offset="1" stop-color="#4DD3FF"/>
</linearGradient>
</defs>
</svg>
