<svg width="16" height="16" viewBox="0 0 16 16" fill="none" xmlns="http://www.w3.org/2000/svg">
<path opacity="0.5" fill-rule="evenodd" clip-rule="evenodd" d="M15.3558 6.88435C15.7543 7.57477 15.7543 8.42546 15.3558 9.11587C14.6102 10.4071 13.3897 12.5212 12.6442 13.8128C12.2456 14.5029 11.5088 14.9282 10.7118 14.9282H5.28818C4.49116 14.9282 3.75433 14.5029 3.35582 13.8128C2.61028 12.5212 1.38973 10.4071 0.644195 9.11587C0.24532 8.42546 0.24532 7.57477 0.644195 6.88435C1.38973 5.59308 2.61028 3.47869 3.35582 2.18742C3.75433 1.497 4.49116 1.07202 5.28818 1.07202H10.7118C11.5088 1.07202 12.2456 1.497 12.6442 2.18742C13.3897 3.47869 14.6102 5.59308 15.3558 6.88435Z" fill="url(#paint0_linear_280_13)"/>
<path fill-rule="evenodd" clip-rule="evenodd" d="M5.85111 12.9985C5.85111 13.0538 5.82904 13.1067 5.79007 13.1457C5.7511 13.1849 5.69796 13.2067 5.64291 13.2067H5.62656C5.23495 13.2067 4.87332 12.998 4.67739 12.659L2.30404 8.54779C2.10837 8.20878 2.10837 7.79101 2.30404 7.452L4.67739 3.34109C4.87332 3.00208 5.23495 2.79333 5.62656 2.79333H10.3735C10.7649 2.79333 11.1268 3.00208 11.3224 3.34109C11.3224 3.34109 11.7816 4.13657 12.0498 4.60066C12.0887 4.66825 12.0887 4.75109 12.0498 4.8184C12.0108 4.88572 11.9391 4.92714 11.8612 4.92714H6.09038C5.95821 4.92714 5.85111 5.03424 5.85111 5.16641V7.08083C5.85111 7.213 5.95821 7.3201 6.09038 7.3201C6.09038 7.3201 12.4654 7.3201 13.4835 7.3201C13.5898 7.3201 13.7009 7.36452 13.7478 7.46154C13.8105 7.59098 13.8794 7.78611 13.8421 8.03709C13.8162 8.21205 13.7873 8.38946 13.696 8.54779C13.696 8.54779 13.5252 8.84374 13.387 9.08301C13.2805 9.26778 13.0832 9.38169 12.8698 9.38169H6.09038C5.95821 9.38169 5.85111 9.48879 5.85111 9.62096V12.9985Z" fill="url(#paint1_linear_280_13)"/>
<defs>
<linearGradient id="paint0_linear_280_13" x1="7.99991" y1="1.07185" x2="7.99991" y2="14.9283" gradientUnits="userSpaceOnUse">
<stop stop-color="#AE00FF"/>
<stop offset="1" stop-color="#0810E8"/>
</linearGradient>
<linearGradient id="paint1_linear_280_13" x1="13.8528" y1="8.00008" x2="2.15722" y2="8.00008" gradientUnits="userSpaceOnUse">
<stop stop-color="#AE00FF"/>
<stop offset="1" stop-color="#0810E8"/>
</linearGradient>
</defs>
</svg>
