<svg width="48" height="48" viewBox="0 0 48 48" fill="none" xmlns="http://www.w3.org/2000/svg">
<path opacity="0.4" d="M9.35648 10.8218C9.0161 10.25 8.22211 10.1643 7.79868 10.6777C4.71374 14.4181 3.00902 19.1242 3 23.9999C3.00499 26.8951 3.60857 29.7579 4.77283 32.4087C5.86742 34.9008 7.43536 37.1548 9.38794 39.0464C9.62183 39.273 9.95489 39.3622 10.2732 39.2932L16.4105 37.9633C17.5333 37.72 17.6728 34.9508 16.7343 34.2881C13.7516 32.1822 11.7402 28.82 11.4392 24.9996C11.3958 24.4491 11.8477 23.9999 12.3999 23.9999H15.442C16.2178 23.9999 16.6981 23.155 16.3013 22.4884L12.0005 15.264L9.35648 10.8218Z" fill="url(#paint0_linear_83_157)"/>
<path opacity="0.7" d="M37.9779 31.366C37.7252 30.251 35.0524 30.1434 34.4086 31.0881C32.3113 34.1661 28.8927 36.2498 25.0002 36.5596C24.4494 36.6035 23.9998 36.1515 23.9998 35.5989V32.5576C23.9998 31.7818 23.1549 31.3015 22.4883 31.6983L10.8212 38.6434C10.2494 38.9838 10.1638 39.7778 10.6772 40.2012C14.4176 43.2862 19.1237 44.9909 23.9995 44.9999C26.9221 44.9952 29.8116 44.3804 32.483 43.1949C35.1508 42.0111 37.5424 40.2842 39.5054 38.1244C39.5101 38.1192 39.5108 38.1113 39.5069 38.1055V38.1055C39.5058 38.1038 39.5049 38.1019 39.5044 38.0999L37.9779 31.366Z" fill="url(#paint1_linear_83_157)"/>
<path d="M37.2232 8.40843C37.1238 8.40241 37.0242 8.4126 36.9278 8.4371L30.8318 9.98517C29.7381 10.2629 29.7027 12.715 30.6602 13.312C33.972 15.3771 36.2357 18.9292 36.5596 22.9994C36.6035 23.5503 36.1515 23.9999 35.5989 23.9999H32.5576C31.7818 23.9999 31.3015 24.8448 31.6983 25.5114L38.6434 37.1784C38.9838 37.7503 39.7778 37.8359 40.2012 37.3225C43.2862 33.5821 44.9909 28.876 44.9999 24.0002C44.9951 21.0729 44.3784 18.179 43.1893 15.5041C42.0481 12.9371 40.404 10.6262 38.3553 8.70748C38.1882 8.55095 37.9702 8.46106 37.7418 8.44463C37.5689 8.43218 37.3959 8.4189 37.2232 8.40843Z" fill="url(#paint2_linear_83_157)"/>
<path fill-rule="evenodd" clip-rule="evenodd" d="M15.5428 4.79316C18.2069 3.61537 21.0869 3.00472 23.9998 3C24.0103 3.00003 24.0208 3.00007 24.0313 3.00011C24.0313 3.00011 24.0313 3.0001 24.0313 3.00008V3.00008C24.0313 3.00007 24.0313 3.00006 24.0313 3.00006C28.8975 3.01475 33.5937 4.71808 37.3274 7.79644C37.8409 8.21981 37.7553 9.01386 37.1834 9.35429L25.5166 16.2993C24.85 16.6961 24.005 16.2158 24.005 15.4401V11.3979V11.3979C24.005 11.3963 24.003 11.3956 24.0021 11.3969L24.0006 11.3989C24.0001 11.3996 23.9993 11.3999 23.9986 11.3999C19.7199 11.4004 15.9085 13.5462 13.6286 16.8543C12.9788 17.7972 10.2753 17.6793 10.0257 16.5618L8.63816 10.3492C8.56706 10.0309 8.65451 9.69677 8.88031 9.46141C10.7744 7.48714 13.0374 5.90076 15.5428 4.79316Z" fill="url(#paint3_linear_83_157)"/>
<defs>
<linearGradient id="paint0_linear_83_157" x1="12.9749" y1="39.4033" x2="12.9749" y2="9.67953" gradientUnits="userSpaceOnUse">
<stop stop-color="#FFA336"/>
<stop offset="1" stop-color="#FF4D1C"/>
</linearGradient>
<linearGradient id="paint1_linear_83_157" x1="24.5962" y1="44.9999" x2="24.5962" y2="25.0498" gradientUnits="userSpaceOnUse">
<stop stop-color="#02AA93"/>
<stop offset="1" stop-color="#67FF80"/>
</linearGradient>
<linearGradient id="paint2_linear_83_157" x1="44.9999" y1="24.9188" x2="25.0498" y2="24.9188" gradientUnits="userSpaceOnUse">
<stop stop-color="#FFCD1A"/>
<stop offset="1" stop-color="#FD9C0C"/>
</linearGradient>
<linearGradient id="paint3_linear_83_157" x1="23.1405" y1="17.4884" x2="23.1405" y2="3" gradientUnits="userSpaceOnUse">
<stop stop-color="#5570FF"/>
<stop offset="1" stop-color="#4DD3FF"/>
</linearGradient>
</defs>
</svg>
