<svg width="128" height="128" viewBox="0 0 128 128" fill="none" xmlns="http://www.w3.org/2000/svg">
<path opacity="0.4" d="M122 64.0003C122 31.9677 96.0331 6 64.0003 6C31.9676 6 6 31.9677 6 64.0003C6 96.0331 31.9676 122.001 64.0003 122.001C96.0331 122.001 122 96.0331 122 64.0003Z" fill="url(#paint0_linear_60_304)"/>
<path fill-rule="evenodd" clip-rule="evenodd" d="M59.5478 18.0004L59.5464 18.0038C23.3291 19.3409 17.394 50.8336 22.6656 71.6046C28.805 93.5792 51.8185 113.167 75.0466 109.572C110.147 103.85 118.547 58.8635 91.1596 37.6572C81.607 31.138 75.6171 29.3965 64.2735 32.9888C63.1301 33.3509 63.2482 34.9435 64.4247 35.1765L68.9423 36.0712C70.0997 36.3004 70.257 37.8915 69.167 38.343L64.4223 40.3082C63.5134 40.6845 63.4151 41.9523 64.2428 42.484C67.4146 44.5211 73.4353 48.668 75.8603 52.2332C80.5409 59.1155 74.4798 66.9008 76.5993 66.7661C80.5417 66.5171 84.3333 62.1424 86.519 59.0848C87.1816 58.1579 88.7436 58.5076 88.8553 59.6414C91.7709 89.2482 72.1238 85.6758 66.6554 84.2491C50.3219 79.9899 40.7059 62.9784 45.093 45.6551C46.1314 41.9307 50.1747 36.0757 52.6765 32.6841C53.3434 31.7801 52.5367 30.5634 51.4801 30.9445C45.2474 33.1928 41.0143 37.4098 38.4466 40.4313C37.7611 41.2379 36.4868 40.8528 36.533 39.7952C37.0587 27.738 51.0765 22.1071 59.5456 18L59.5478 18.0004Z" fill="url(#paint1_radial_60_304)"/>
<defs>
<linearGradient id="paint0_linear_60_304" x1="4.3233" y1="7.14143" x2="123.91" y2="130.386" gradientUnits="userSpaceOnUse">
<stop stop-color="#F9D423"/>
<stop offset="0.515624" stop-color="#FF4E50"/>
<stop offset="0.991304" stop-color="#8A2387"/>
</linearGradient>
<radialGradient id="paint1_radial_60_304" cx="0" cy="0" r="1" gradientUnits="userSpaceOnUse" gradientTransform="translate(78.4571 -0.100628) rotate(101.31) scale(127.704 81.4374)">
<stop stop-color="#FFF44F"/>
<stop offset="0.06" stop-color="#FFE847"/>
<stop offset="0.168" stop-color="#FFC830"/>
<stop offset="0.304" stop-color="#FF980E"/>
<stop offset="0.356" stop-color="#FF8B16"/>
<stop offset="0.455" stop-color="#FF672A"/>
<stop offset="0.57" stop-color="#FF3647"/>
<stop offset="0.737" stop-color="#E31587"/>
</radialGradient>
</defs>
</svg>
