<svg width="64" height="64" viewBox="0 0 64 64" fill="none" xmlns="http://www.w3.org/2000/svg">
<path opacity="0.4" d="M47 3H17C9.26801 3 3 9.26801 3 17V47C3 54.732 9.26801 61 17 61H47C54.732 61 61 54.732 61 47V17C61 9.26801 54.732 3 47 3Z" fill="url(#paint0_linear_129_100)"/>
<path fill-rule="evenodd" clip-rule="evenodd" d="M48.3142 12.3874C47.8964 11.4648 46.8913 10.7902 45.86 11.06C44.988 11.1875 44.528 11.9724 44.1202 12.6681C44.0966 12.7084 44.0732 12.7483 44.0499 12.7878C42.5203 15.4452 40.9734 18.0929 39.4264 20.7406C37.8752 23.3957 36.3239 26.0509 34.79 28.7158C33.8588 30.0388 34.9814 32.0799 36.6176 31.9319C43.0272 31.9493 49.4369 31.9493 55.8508 31.9319C57.4652 32.0712 58.5834 30.0518 57.6739 28.7376C55.9658 25.722 54.2377 22.7157 52.5094 19.7091C51.1076 17.2704 49.7057 14.8316 48.3142 12.3874ZM43.3334 26.9268C42.5633 26.9254 42.0847 26.0903 42.4727 25.4251C42.7803 24.8977 43.088 24.3705 43.3958 23.8432C44.0677 22.6918 44.7398 21.5403 45.4102 20.3876C45.7968 19.723 46.7573 19.7238 47.1407 20.3902C47.6249 21.2318 48.108 22.0743 48.5911 22.9168C49.0709 23.7535 49.5507 24.5903 50.0316 25.4262C50.415 26.0926 49.9357 26.9254 49.1669 26.9268C47.2225 26.9302 45.278 26.9302 43.3334 26.9268ZM34.5843 16.0695C35.9705 16.5224 36.6871 17.758 36.8406 18.8885C36.9921 20.0039 36.6444 21.3586 35.5039 22.1812C34.1351 23.2784 32.448 22.8054 31.6785 22.5476C28.7375 21.6188 25.4345 21.8569 22.6531 23.1958L22.6439 23.2003L22.6439 23.2002C19.9618 24.4688 17.7648 26.7423 16.5915 29.4681L16.5872 29.478L16.5872 29.478C15.2328 32.5628 15.2092 36.2149 16.5413 39.3014L16.5442 39.3081L16.5471 39.3149C17.8821 42.4933 20.608 45.0637 23.8571 46.2059L23.8694 46.2102L23.8694 46.2102C27.1726 47.4038 30.998 47.0757 34.0608 45.3501L34.0731 45.3432L34.0732 45.3433C37.0785 43.6871 39.3512 40.7272 40.121 37.3996L40.1233 37.3896L40.1234 37.3896C40.1345 37.3429 40.1457 37.2952 40.1577 37.2437L40.1593 37.237L40.1595 37.2362L40.1706 37.1888C40.2549 36.8285 40.3843 36.2749 40.6312 35.7616C40.9004 35.2021 41.351 34.5953 42.1202 34.2243C43.302 33.5724 44.6275 33.7726 45.5764 34.3411C46.5464 34.9224 47.3665 36.0372 47.282 37.4482L47.2784 37.5084L47.27 37.5681C46.4197 43.5938 42.4377 48.9767 37.0993 51.7557C32.8123 54.0264 27.6828 54.5839 23.0093 53.3345C17.7363 51.9643 13.1511 48.2744 10.6714 43.4274C7.89111 38.1178 7.77213 31.5379 10.3642 26.1317C12.9633 20.5704 18.2938 16.4056 24.3408 15.2778C27.7356 14.6365 31.3146 14.8878 34.5843 16.0695Z" fill="url(#paint1_linear_129_100)"/>
<defs>
<linearGradient id="paint0_linear_129_100" x1="31.9998" y1="58.7723" x2="31.9998" y2="5.2278" gradientUnits="userSpaceOnUse">
<stop stop-color="#FD2E00"/>
<stop offset="1" stop-color="#FF9900"/>
</linearGradient>
<linearGradient id="paint1_linear_129_100" x1="46.2262" y1="31.1405" x2="46.2262" y2="11.8045" gradientUnits="userSpaceOnUse">
<stop stop-color="#FD2E00"/>
<stop offset="1" stop-color="#FF9900"/>
</linearGradient>
</defs>
</svg>
