<svg width="128" height="128" viewBox="0 0 128 128" fill="none" xmlns="http://www.w3.org/2000/svg">
<path opacity="0.4" d="M18.3104 13C14.2604 13 11 16.2604 11 20.3104V97.0697C11 108.035 25.6208 115.346 32.9312 115.346H40.2416V108.035V97.0697V20.3104C40.2416 16.2604 36.9812 13 32.9312 13H18.3104Z" fill="url(#paint0_linear_80_259)"/>
<path fill-rule="evenodd" clip-rule="evenodd" d="M47.5508 34.9312C47.5508 38.9812 50.8112 42.2416 54.8612 42.2416H98.7236C109.689 42.2416 117 27.6208 117 20.3104V14C117 13.4477 116.552 13 116 13H109.689H98.7236H54.8612C50.8112 13 47.5508 16.2604 47.5508 20.3104V34.9312ZM50.6933 52.2622C51.2211 52.0782 51.7852 51.9894 52.3524 52.001C53.0648 52.0167 53.7613 52.1904 54.3779 52.506L78.1269 64.6264L101.876 76.7468C102.522 77.077 103.058 77.5516 103.431 78.123C103.804 78.6943 104 79.3423 104 80.0018C104 80.6614 103.804 81.3094 103.431 81.8807C103.058 82.452 102.522 82.9266 101.876 83.2568L78.1269 95.3772L54.3779 107.498C53.7318 107.827 52.9991 108 52.2533 108C51.5075 108 50.7749 107.827 50.1288 107.497C49.4827 107.168 48.946 106.694 48.5723 106.124C48.1987 105.553 48.0013 104.906 48 104.247V80.0058V55.765C47.9993 55.2634 48.1121 54.7668 48.3317 54.3044C48.5514 53.842 48.8735 53.4231 49.279 53.0723C49.6846 52.7216 50.1654 52.4461 50.6933 52.2622Z" fill="url(#paint1_linear_80_259)"/>
<defs>
<linearGradient id="paint0_linear_80_259" x1="30.2124" y1="103.263" x2="122.888" y2="19.5155" gradientUnits="userSpaceOnUse">
<stop stop-color="#FE0844"/>
<stop offset="1" stop-color="#FEB302"/>
</linearGradient>
<linearGradient id="paint1_linear_80_259" x1="115.041" y1="60.5" x2="53.7928" y2="44.3032" gradientUnits="userSpaceOnUse">
<stop stop-color="#FE7970"/>
<stop offset="1" stop-color="#DC3282"/>
</linearGradient>
</defs>
</svg>
