<svg width="256" height="256" viewBox="0 0 256 256" fill="none" xmlns="http://www.w3.org/2000/svg">
<path opacity="0.4" d="M229.562 91.0818C233.687 102.439 235.957 114.687 236 127.476V127.85C236 140.775 233.727 153.152 229.561 164.619C226.664 172.593 222.852 180.135 218.239 187.116L218.232 187.128C216.304 190.057 214.227 192.892 212.018 195.62C204.953 204.346 196.552 211.95 187.116 218.124L187.114 218.125C183.637 220.403 180.029 222.481 176.298 224.342L176.288 224.347C161.776 231.61 145.381 235.704 128 235.704C110.618 235.704 94.2236 231.61 79.7114 224.347L79.702 224.342C75.9685 222.479 72.3556 220.401 68.8812 218.125C59.3232 211.866 50.8207 204.141 43.6983 195.271L43.6935 195.265C41.4881 192.524 39.4163 189.665 37.4834 186.702L37.4785 186.695C32.9911 179.832 29.2753 172.43 26.4347 164.608L26.4343 164.606C22.2701 153.145 20 140.774 20 127.852C20 68.427 68.2138 20 128 20C157.991 20 185.089 32.1957 204.651 51.8714L204.652 51.8725C210.287 57.5389 215.293 63.8273 219.55 70.6184L219.558 70.631C223.582 77.026 226.945 83.876 229.561 91.0802L229.562 91.0818Z" fill="url(#paint0_linear_39_128)"/>
<path fill-rule="evenodd" clip-rule="evenodd" d="M93.8184 188.154C93.8184 190.762 92.7254 193.274 90.7997 195.095C88.8219 196.966 86.1676 198 83.4092 198C80.6507 198 77.9964 196.966 76.0707 195.095C74.145 193.274 73 190.762 73 188.154V124.154H156.221C157.314 124.105 158.459 124.006 159.552 123.809C162.363 123.465 165.121 122.676 167.671 121.593C170.274 120.51 172.564 118.837 174.281 116.72C175.114 115.588 175.791 114.308 176.207 112.978C176.832 111.009 177.144 108.941 177.092 106.923C177.144 104.855 176.832 102.788 176.207 100.818C175.791 99.4891 175.114 98.2091 174.281 97.0769C172.564 94.96 170.274 93.2861 167.671 92.203C165.121 91.1199 162.363 90.3323 159.552 89.9877C158.459 89.7908 157.314 89.6922 156.221 89.6922H83.4092C80.6507 89.6922 77.9964 88.6584 76.0707 86.7877C74.145 84.9661 73 82.4554 73 79.8462C73 77.2369 74.145 74.7261 76.0707 72.8554C77.9964 71.0338 80.6507 70 83.4092 70H156.273C156.325 70 156.43 70 156.482 70C158.563 70 160.697 70.1969 162.779 70.5415C167.411 71.1815 171.887 72.4123 176.155 74.2338C182.036 76.6462 187.137 80.5354 191.04 85.4092C193.278 88.3631 194.996 91.6122 196.141 95.1077C197.338 98.9476 197.962 102.886 197.91 106.923C197.962 110.911 197.338 114.898 196.141 118.689C194.996 122.185 193.278 125.483 191.04 128.388C187.137 133.261 182.036 137.15 176.155 139.612C171.887 141.385 167.411 142.615 162.779 143.304C160.697 143.6 158.563 143.797 156.482 143.846C156.43 143.846 156.325 143.846 156.273 143.846H93.8184V188.154Z" fill="url(#paint1_linear_39_128)" stroke="url(#paint2_linear_39_128)" stroke-width="8"/>
<defs>
<linearGradient id="paint0_linear_39_128" x1="128" y1="235.704" x2="128" y2="20" gradientUnits="userSpaceOnUse">
<stop stop-color="#00B59C"/>
<stop offset="1" stop-color="#9CFFAC"/>
</linearGradient>
<linearGradient id="paint1_linear_39_128" x1="135.456" y1="198" x2="135.456" y2="70" gradientUnits="userSpaceOnUse">
<stop stop-color="#02AA93"/>
<stop offset="1" stop-color="#67FF80"/>
</linearGradient>
<linearGradient id="paint2_linear_39_128" x1="135.456" y1="198" x2="135.456" y2="70" gradientUnits="userSpaceOnUse">
<stop stop-color="#02AA93"/>
<stop offset="1" stop-color="#67FF80"/>
</linearGradient>
</defs>
</svg>
