<svg width="64" height="64" viewBox="0 0 64 64" fill="none" xmlns="http://www.w3.org/2000/svg">
<path opacity="0.4" d="M46.875 4H17.125C9.87626 4 4 9.87626 4 17.125V46.875C4 54.1237 9.87626 60 17.125 60H46.875C54.1237 60 60 54.1237 60 46.875V17.125C60 9.87626 54.1237 4 46.875 4Z" fill="url(#paint0_linear_445_90)"/>
<path d="M33.1087 31.9899C32.5564 31.9899 32.1087 32.4377 32.1087 32.9899V39.4504C32.1087 40.3378 31.0387 40.7855 30.4067 40.1625L22.8382 32.7021C22.4409 32.3104 22.4409 31.6694 22.8382 31.2778L31.4067 22.831C31.796 22.4472 32.4214 22.4472 32.8107 22.831L40.365 30.2778C41.0019 30.9056 40.5573 31.9899 39.663 31.9899H33.1087ZM32.8107 9.2858C32.4214 8.902 31.796 8.902 31.4067 9.28579L9.09744 31.2778C8.70013 31.6694 8.70014 32.3104 9.09745 32.7021L31.4067 54.6935C31.796 55.0772 32.4214 55.0772 32.8107 54.6935L41.8048 45.8276C41.9954 45.6397 42.1028 45.3831 42.1028 45.1154V32.9899C42.1028 32.4377 42.5505 31.9899 43.1028 31.9899H53.4034C54.2977 31.9899 54.7423 30.9057 54.1054 30.2778L32.8107 9.2858Z" fill="url(#paint1_linear_445_90)"/>
<defs>
<linearGradient id="paint0_linear_445_90" x1="32" y1="4" x2="32" y2="60" gradientUnits="userSpaceOnUse">
<stop stop-color="#97EB0E"/>
<stop offset="1" stop-color="#19B90B"/>
</linearGradient>
<linearGradient id="paint1_linear_445_90" x1="32.1086" y1="8.59375" x2="32.1086" y2="55.3855" gradientUnits="userSpaceOnUse">
<stop stop-color="#97EB0E"/>
<stop offset="1" stop-color="#19B90B"/>
</linearGradient>
</defs>
</svg>
