<svg width="32" height="32" viewBox="0 0 32 32" fill="none" xmlns="http://www.w3.org/2000/svg">
<path opacity="0.5" d="M5.00006 12.511C5.00006 6.154 10.0371 1 16.2501 1C22.4631 1 27.5001 6.154 27.5001 12.511C27.5055 14.1231 27.175 15.7186 26.5296 17.1959C25.8842 18.6731 24.9381 19.9997 23.7516 21.091C22.9866 21.7915 22.4181 22.312 22.0161 22.69C21.8124 22.8812 21.6124 23.0763 21.4161 23.275L21.3786 23.3155L21.3666 23.3305C21.0111 23.7775 20.9346 23.893 20.8896 23.998C20.8446 24.103 20.8101 24.238 20.7201 24.808C20.6856 25.033 20.6811 25.417 20.6811 26.4655V26.5105C20.6811 27.124 20.6811 27.6535 20.6436 28.087C20.6031 28.546 20.5131 29.002 20.2716 29.4295C20.0042 29.9052 19.6161 30.302 19.1466 30.58C18.7296 30.8275 18.2841 30.919 17.8356 30.961C17.4111 31 16.8936 31 16.2936 31H16.2066C15.6066 31 15.0891 31 14.6646 30.961C14.2146 30.919 13.7706 30.826 13.3521 30.58C12.883 30.3018 12.4955 29.905 12.2286 29.4295C11.9886 29.002 11.8986 28.5475 11.8566 28.087C11.8176 27.652 11.8176 27.124 11.8176 26.5105V26.4655C11.8176 25.417 11.8146 25.033 11.7786 24.808C11.6886 24.238 11.6571 24.103 11.6106 23.998C11.5656 23.893 11.4891 23.7775 11.1336 23.329L11.1216 23.314C10.9133 23.1013 10.7007 22.8927 10.4841 22.6885C10.0821 22.3135 9.51356 21.7915 8.74856 21.0895C7.56222 19.9984 6.61621 18.672 5.97082 17.195C5.32543 15.7181 4.99482 14.1228 5.00006 12.511Z" fill="url(#paint0_linear_8_535)"/>
<path d="M18.6275 27.5125H13.8725C13.877 27.658 13.883 27.784 13.8935 27.8995C13.9205 28.2145 13.9685 28.327 14 28.384C14.0891 28.5428 14.2185 28.6752 14.375 28.768C14.4305 28.7995 14.5415 28.849 14.849 28.876C15.17 28.906 15.593 28.9075 16.25 28.9075C16.9055 28.9075 17.33 28.9075 17.651 28.8775C17.957 28.8475 18.0695 28.7995 18.125 28.768C18.2816 28.6752 18.411 28.5428 18.5 28.384C18.53 28.327 18.578 28.213 18.605 27.8995C18.6155 27.7855 18.623 27.658 18.6275 27.5125ZM17.915 10.2655C18.3755 10.6015 18.482 11.2555 18.1535 11.725L16.3865 14.257H18.4895C18.6787 14.2579 18.864 14.3114 19.0245 14.4116C19.185 14.5117 19.3145 14.6545 19.3985 14.824C19.4848 14.9954 19.5232 15.1869 19.5097 15.3783C19.4963 15.5697 19.4314 15.7539 19.322 15.9115L16.4 20.095C16.3238 20.2064 16.226 20.3013 16.1123 20.3742C15.9987 20.4471 15.8716 20.4964 15.7385 20.5192C15.6055 20.542 15.4692 20.5378 15.3378 20.5069C15.2064 20.4761 15.0825 20.4192 14.9735 20.3395C14.7519 20.175 14.603 19.9305 14.5585 19.6581C14.514 19.3857 14.5773 19.1066 14.735 18.88L16.502 16.348H14.399C14.2097 16.347 14.0244 16.2932 13.8638 16.1928C13.7033 16.0924 13.5739 15.9493 13.49 15.7795C13.4041 15.6083 13.3658 15.4171 13.3793 15.226C13.3927 15.0349 13.4574 14.851 13.5665 14.6935L16.4885 10.5085C16.5648 10.3971 16.6626 10.3022 16.7763 10.2293C16.8899 10.1565 17.017 10.1072 17.1501 10.0844C17.2831 10.0616 17.4194 10.0657 17.5508 10.0966C17.6822 10.1274 17.8061 10.1844 17.915 10.264V10.2655Z" fill="url(#paint1_linear_8_535)"/>
<defs>
<linearGradient id="paint0_linear_8_535" x1="23.4283" y1="1" x2="-1.5371" y2="23.8614" gradientUnits="userSpaceOnUse">
<stop stop-color="#DE00C0"/>
<stop offset="1" stop-color="#8720FF"/>
</linearGradient>
<linearGradient id="paint1_linear_8_535" x1="18.402" y1="10.0699" x2="7.59441" y2="14.3679" gradientUnits="userSpaceOnUse">
<stop stop-color="#DE00C0"/>
<stop offset="1" stop-color="#8720FF"/>
</linearGradient>
</defs>
</svg>
