<svg width="24" height="24" viewBox="0 0 24 24" fill="none" xmlns="http://www.w3.org/2000/svg">
<path opacity="0.4" d="M22.1878 14.0279C22.2845 15.718 21.5211 17.3427 20.1554 18.335L20.9834 19.9597C21.2307 20.4503 21.263 21.0282 21.0479 21.5407C20.8436 22.0532 20.4243 22.4567 19.9081 22.6311L19.0586 22.9037C18.7049 23.0246 18.323 23.0318 17.9651 22.9245C17.6072 22.8172 17.2906 22.6005 17.0586 22.304L14.7789 19.578C13.8219 19.4145 12.9187 19.0001 12.1552 18.3786C11.6176 18.5421 11.0799 18.6294 10.5423 18.6294C9.59602 18.6294 8.64975 18.335 7.85403 17.7679C7.28413 17.9424 6.70347 18.0187 6.11205 18.0078C5.26257 18.0187 4.42383 17.8443 3.63887 17.5172C2.8833 17.1753 2.23769 16.625 1.77568 15.929C1.31367 15.233 1.05386 14.4193 1.02589 13.5808C0.939872 12.7957 1.06891 11.9997 1.40225 11.2801C1.09041 10.4623 1.05815 9.56813 1.32698 8.73942C1.72484 7.70354 2.47755 6.84212 3.41305 6.29692C4.03673 4.45414 5.78946 3.22199 7.71424 3.35284C9.43472 1.71723 12.0692 1.54277 13.9832 2.94939C14.4349 2.82944 14.908 2.76402 15.3811 2.76402C16.8435 2.73131 18.2307 3.38555 19.1447 4.55228C21.3383 5.13019 22.9082 7.11472 22.9942 9.42637C23.048 10.6367 22.7254 11.8253 22.0695 12.8393C22.1447 13.2319 22.1878 13.6244 22.1878 14.0279ZM18.9619 20.6357L18.2952 19.2182L17.5317 19.3926L18.607 20.7556L18.9619 20.6357Z" fill="url(#paint0_linear_80_566)"/>
<path d="M22.1878 14.0279C22.268 15.4301 21.7562 16.7873 20.7996 17.7757C20.4575 18.1291 20.3199 18.6577 20.5432 19.096L20.9834 19.9597C21.2307 20.4503 21.263 21.0282 21.0479 21.5407C20.8436 22.0532 20.4243 22.4567 19.9081 22.6311L19.0586 22.9037C18.7049 23.0246 18.323 23.0318 17.9651 22.9245C17.6072 22.8172 17.2906 22.6005 17.0586 22.304L15.0149 19.8602C14.8626 19.678 14.6495 19.5595 14.4186 19.504C13.7661 19.3473 13.1447 19.0729 12.5829 18.6954C12.3066 18.5098 11.9655 18.4428 11.6398 18.5116C11.274 18.589 10.9081 18.6294 10.5423 18.6294C9.75613 18.6294 8.96996 18.4262 8.27013 18.0322C7.99921 17.8797 7.68088 17.827 7.37661 17.8908C6.9607 17.9781 6.53918 18.0157 6.11205 18.0078C5.26257 18.0187 4.42383 17.8443 3.63887 17.5172C2.8833 17.1753 2.23769 16.625 1.77568 15.929C1.31367 15.233 1.05386 14.4193 1.02589 13.5808C0.955167 12.9353 1.02982 12.2824 1.24387 11.6707C1.33292 11.4162 1.34194 11.1396 1.27322 10.8788C1.08784 10.1754 1.10153 9.43441 1.32698 8.73942C1.67897 7.82296 2.30872 7.04306 3.09706 6.49787C3.2957 6.3605 3.45155 6.16899 3.54785 5.94751C4.20528 4.43559 5.64962 3.40978 7.27493 3.34644C7.55473 3.33554 7.82648 3.23876 8.04566 3.0645C9.63574 1.80028 11.8405 1.64739 13.584 2.68478C13.8443 2.83963 14.1525 2.8988 14.4508 2.84633C14.7568 2.7925 15.0689 2.76402 15.3811 2.76402C16.7323 2.7338 18.0193 3.29002 18.9282 4.29508C19.0745 4.45688 19.2601 4.57926 19.4669 4.64869C21.4906 5.32817 22.9125 7.22956 22.9942 9.42637C23.042 10.5022 22.7924 11.5609 22.2757 12.495C22.1511 12.7204 22.1 12.9801 22.134 13.2354C22.1688 13.4969 22.1878 13.76 22.1878 14.0279ZM16.8113 12.4904C17.4242 12.5667 17.9081 13.0356 17.9081 13.6571C17.9081 13.9463 17.7948 14.2237 17.5931 14.4282C17.3915 14.6327 17.118 14.7475 16.8328 14.7475V14.7475C16.427 14.7475 16.0725 15.0077 15.8938 15.3721C15.6563 15.8562 15.3519 16.3023 14.9899 16.6978C14.7526 16.9571 14.8387 17.3674 15.1788 17.4568V17.4568C15.2199 17.4676 15.2648 17.4732 15.3074 17.4724C20.7524 17.3699 20.1124 13.9841 20.1124 13.9297C20.0839 13.1807 19.7631 12.4739 19.2207 11.9647C18.6782 11.4555 17.9585 11.1857 17.2199 11.2146C16.9347 11.2146 16.6612 11.0998 16.4595 10.8953C16.2579 10.6908 16.1446 10.4134 16.1446 10.1242C16.1446 9.83504 16.2579 9.55769 16.4595 9.3532C16.6612 9.14871 16.9347 9.03383 17.2199 9.03383C18.216 9.05846 19.1815 9.34903 20.0201 9.86829C20.3808 10.0916 20.8866 9.90508 20.8866 9.48089V9.48089C20.8278 8.24741 20.3215 7.15911 18.3961 6.80382C18.0326 6.73673 17.7216 6.50218 17.5321 6.18479C16.0546 3.71046 13.0692 5.34422 13.0692 6.28602C13.0522 6.41839 13.1161 6.62975 13.1865 6.80465C13.268 7.00716 13.4616 7.08869 13.669 7.15675C13.8294 7.20938 13.9769 7.30003 14.0984 7.42319C14.3001 7.62768 14.4133 7.90503 14.4133 8.19422C14.4133 8.79394 13.9295 9.28462 13.3381 9.28462C13.0227 9.27255 12.7173 9.2004 12.4345 9.07556C12.0265 8.89545 11.5474 8.85526 11.1337 9.02203C10.7974 9.15764 10.4424 9.24593 10.0799 9.28462C9.46698 9.33914 8.96159 8.90298 8.92933 8.30326C8.90952 8.16082 8.91863 8.01578 8.9561 7.87705C8.99357 7.73831 9.05861 7.6088 9.14722 7.49648C9.23584 7.38415 9.34616 7.29138 9.47141 7.22386C9.59666 7.15634 9.73421 7.11549 9.87559 7.10382C10.0476 7.08201 10.8864 6.95116 10.8864 6.26421C10.8864 6.07534 10.9049 5.88873 10.9406 5.70634C11.0808 4.98921 10.7582 4.13513 10.0848 4.41891C9.68543 4.58722 9.27982 4.87104 8.87155 5.28844C8.62216 5.5434 8.27158 5.6788 7.91686 5.64179C6.47113 5.49093 5.7596 5.83101 5.24144 7.3768C5.15173 7.64444 4.9662 7.87096 4.71846 8.00625C4.45771 8.14865 4.23615 8.28835 4.04921 8.44741C3.49835 8.91611 4.12214 9.61012 4.84473 9.64163C5.50261 9.67031 6.15435 9.80341 6.77874 10.037C7.31638 10.2442 7.61747 10.8548 7.41316 11.4436C7.20886 12.0106 6.58518 12.2941 6.02603 12.087C5.29425 11.7616 4.47836 11.7207 3.71775 11.9639C3.60768 11.9992 3.50261 12.0563 3.43586 12.1506C3.20875 12.4717 3.20875 12.9886 3.20875 13.4063C3.20875 14.2132 3.60661 14.9656 4.28405 15.4018C4.56097 15.5449 4.85313 15.6544 5.15311 15.728C5.58119 15.8331 5.86268 15.3657 5.70344 14.9547V14.9547C5.61879 14.6746 5.64457 14.372 5.77537 14.1108C5.90617 13.8495 6.13179 13.6499 6.40478 13.5538C6.67776 13.4578 6.97684 13.4728 7.23911 13.5958C7.50137 13.7188 7.70638 13.9401 7.81102 14.2132C8.23219 15.4304 9.29259 16.2712 10.548 16.4388C10.6013 16.4459 10.6554 16.4475 10.709 16.4436C12.1036 16.343 13.344 15.5189 13.9963 14.252C14.0389 14.1691 14.065 14.079 14.0847 13.9879C14.3811 12.6132 15.5407 12.4904 16.8113 12.4904ZM18.7441 20.7093C18.8602 20.6701 18.9162 20.5385 18.864 20.4276L18.4076 19.4572C18.342 19.3177 18.188 19.2427 18.0377 19.277V19.277C17.8027 19.3307 17.7039 19.6109 17.8532 19.8001L18.5174 20.642C18.5711 20.7101 18.6619 20.7371 18.7441 20.7093V20.7093ZM13.9617 11.2473C13.9711 10.9688 13.8749 10.6972 13.6929 10.4883C13.5109 10.2794 13.257 10.1492 12.9832 10.1242C12.2197 10.0806 11.4778 10.3423 10.9079 10.8548C10.295 11.4872 9.97237 12.3596 10.0046 13.2428C10.0046 13.532 10.1179 13.8093 10.3196 14.0138C10.5212 14.2183 10.7947 14.3332 11.0799 14.3332C11.6928 14.3332 12.1552 13.8425 12.1552 13.2428C12.1552 12.9899 12.2108 12.737 12.3355 12.5186C12.3764 12.447 12.4325 12.3839 12.5041 12.343C12.6122 12.2813 12.7355 12.2505 12.8649 12.2505C13.4563 12.2832 13.9617 11.8362 13.9617 11.2473Z" fill="url(#paint1_linear_80_566)"/>
<defs>
<linearGradient id="paint0_linear_80_566" x1="12" y1="2" x2="12" y2="23" gradientUnits="userSpaceOnUse">
<stop stop-color="#00FFE0"/>
<stop offset="1" stop-color="#078AA7"/>
</linearGradient>
<linearGradient id="paint1_linear_80_566" x1="12" y1="2" x2="12" y2="23" gradientUnits="userSpaceOnUse">
<stop stop-color="#00FFE0"/>
<stop offset="1" stop-color="#078AA7"/>
</linearGradient>
</defs>
</svg>
