<svg width="32" height="32" viewBox="0 0 32 32" fill="none" xmlns="http://www.w3.org/2000/svg">
<path opacity="0.4" d="M30.8688 4.79719C30.4975 3.72281 29.4625 3 28.3197 3H3.72531C2.5975 3 1.57656 3.70313 1.17625 4.75781C1.05953 5.06669 0.999814 5.39418 1 5.72438V14.7769L1.10781 16.5788C1.54281 20.6756 3.66625 24.2597 6.95781 26.7544C7.01688 26.7984 7.075 26.8425 7.13875 26.8866L7.1725 26.9156C8.91854 28.1925 10.9209 29.0753 13.0413 29.5031C14.0228 29.7038 15.0288 29.8059 16.03 29.8059C16.9525 29.8059 17.8806 29.7178 18.7891 29.5472C18.9016 29.5134 19.0084 29.4937 19.1209 29.4741C19.15 29.4741 19.18 29.4544 19.2138 29.4403C21.2467 28.9939 23.1652 28.131 24.8481 26.9062L24.8819 26.8669L25.0525 26.7347C28.3338 24.2447 30.4581 20.6606 30.9072 16.5488L31 14.7516V5.70844C31 5.39625 30.9606 5.08313 30.8491 4.78031L30.8688 4.79719Z" fill="url(#paint0_linear_231_145)"/>
<path d="M16.5444 21.3173L23.5946 14.5453C23.598 14.542 23.6027 14.5401 23.6075 14.5401C23.6123 14.5401 23.6169 14.5383 23.6204 14.5349C23.8134 14.3495 23.9682 14.1279 24.0759 13.8828C24.1845 13.6353 24.243 13.3688 24.248 13.0986C24.253 12.8284 24.2043 12.5599 24.1048 12.3087C24.0053 12.0574 23.857 11.8284 23.6684 11.6348C23.482 11.4396 23.2588 11.2832 23.0119 11.1743C22.7649 11.0655 22.4988 11.0064 22.229 11.0005C21.9591 10.9946 21.6908 11.0419 21.4392 11.1398C21.1877 11.2377 20.9579 11.3843 20.7631 11.571L15.7715 16.3463C15.4006 16.7011 14.8214 16.7175 14.431 16.3842L13.4784 15.571C12.6581 14.7854 11.3587 14.8145 10.5731 15.6348C9.78748 16.4551 9.81185 17.7592 10.6322 18.5401L13.6925 21.3173C14.0764 21.6844 14.5872 21.8893 15.1184 21.8893C15.6496 21.8893 16.1604 21.6844 16.5444 21.3173Z" fill="url(#paint1_linear_231_145)"/>
<defs>
<linearGradient id="paint0_linear_231_145" x1="29.6408" y1="3.46072" x2="5.42853" y2="31.9476" gradientUnits="userSpaceOnUse">
<stop stop-color="#D800BD"/>
<stop offset="0.408098" stop-color="#F92D7A"/>
<stop offset="0.590073" stop-color="#FF4A52"/>
<stop offset="1" stop-color="#FFB243"/>
</linearGradient>
<linearGradient id="paint1_linear_231_145" x1="23.6028" y1="11.1872" x2="14.1229" y2="24.2275" gradientUnits="userSpaceOnUse">
<stop stop-color="#D800BD"/>
<stop offset="0.408098" stop-color="#F92D7A"/>
<stop offset="0.590073" stop-color="#FF4A52"/>
<stop offset="1" stop-color="#FFB243"/>
</linearGradient>
</defs>
</svg>
