<svg width="16" height="16" viewBox="0 0 16 16" fill="none" xmlns="http://www.w3.org/2000/svg">
<path d="M8.00001 1C5.90061 1 4.1134 1.7814 3.3712 2.87501C3.303 2.96881 3.2522 3.06241 3.2032 3.15621C3.1544 3.25021 3.1192 3.34361 3.09 3.43761C3.08 3.46881 3.0764 3.49881 3.0664 3.51961C3.047 3.59261 3.0294 3.65641 3.0196 3.71881C3.0098 3.81261 3 3.90621 3 4.00001C3 4.09387 3.0078 4.19911 3.02734 4.29297C3.03714 4.38657 3.06816 4.48062 3.09766 4.57421C3.12692 4.66808 3.16412 4.76186 3.20312 4.85545C3.25212 4.94945 3.31252 5.03125 3.37092 5.12505C4.13272 6.26046 5.96873 7.00006 7.99993 7.00006C10.0311 7.00006 11.8671 6.26052 12.6289 5.12505C12.6874 5.04159 12.7267 4.96765 12.7657 4.89459C12.7757 4.87379 12.7872 4.86461 12.7969 4.84381C12.8262 4.78141 12.8516 4.70699 12.8711 4.64459C12.8809 4.61339 12.9005 4.58231 12.9102 4.55084C12.93 4.49884 12.9434 4.43904 12.9532 4.38678C12.963 4.34518 12.971 4.30206 12.9805 4.25006C12.9903 4.16659 13.0001 4.08326 13.0001 4.00006C13.0001 3.89579 12.9921 3.80354 12.9728 3.69928C12.9248 3.40748 12.8048 3.13568 12.6288 2.87507C11.8868 1.78147 10.0996 1 8.00001 1Z" fill="url(#paint0_linear_298_293)"/>
<path opacity="0.7" d="M8.00001 11C5.23621 11 3 9.69857 3 8.09377C3 7.52231 3.7383 7.48588 4.19764 7.82584C5.12845 8.51476 6.50738 9.00001 8.00091 9.00001C9.4941 9.00001 10.8728 8.51497 11.8029 7.82629C12.2619 7.48641 13 7.5226 13 8.09377C13 9.69853 10.7638 11 8.00001 11Z" fill="url(#paint1_linear_298_293)"/>
<path opacity="0.4" d="M8.00001 15C5.23621 15 3 13.6991 3 12.0938C3 11.5224 3.73837 11.4858 4.19762 11.8258C5.12814 12.5146 6.50647 13 7.99991 13C9.49334 13 10.8718 12.5146 11.8024 11.8258C12.2616 11.4859 13 11.5224 13 12.0938C13 13.6978 10.7638 15 8.00001 15Z" fill="url(#paint2_linear_298_293)"/>
<defs>
<linearGradient id="paint0_linear_298_293" x1="4.46449" y1="6.12137" x2="8.20802" y2="-0.117861" gradientUnits="userSpaceOnUse">
<stop stop-color="#0072FF"/>
<stop offset="1" stop-color="#00E5A1"/>
</linearGradient>
<linearGradient id="paint1_linear_298_293" x1="4.46447" y1="10.5033" x2="5.92342" y2="6.20168" gradientUnits="userSpaceOnUse">
<stop stop-color="#0072FF"/>
<stop offset="1" stop-color="#00E5A1"/>
</linearGradient>
<linearGradient id="paint2_linear_298_293" x1="4.46447" y1="14.5033" x2="5.92342" y2="10.2017" gradientUnits="userSpaceOnUse">
<stop stop-color="#0072FF"/>
<stop offset="1" stop-color="#00E5A1"/>
</linearGradient>
</defs>
</svg>
