<svg width="48" height="48" viewBox="0 0 48 48" fill="none" xmlns="http://www.w3.org/2000/svg">
<g opacity="0.99">
<path opacity="0.4" d="M24 45C35.598 45 45 35.598 45 24C45 12.402 35.598 3 24 3C12.402 3 3 12.402 3 24C3 35.598 12.402 45 24 45Z" fill="#EDC957"/>
<path fill-rule="evenodd" clip-rule="evenodd" d="M23.4604 15.5054C23.269 15.5054 23.0776 15.5407 22.9073 15.6112C22.4878 15.785 21.96 16.4951 21.8308 16.6755C21.8111 16.7029 21.7854 16.7252 21.7552 16.7403L17.4191 18.9084C17.3913 18.9223 17.3607 18.9295 17.3297 18.9295H15.1647C11.5201 19.0483 10.3846 15.4013 7.83717 15.5543C7.66946 15.5643 7.61449 15.7718 7.73585 15.888C10.624 18.6534 7.50389 22.4324 9.63424 24.46C13.3974 28.0415 18.405 31.0225 23.2681 31.0965H22.0012C21.8908 31.0965 21.8012 31.186 21.8012 31.2965V32.0672C21.8012 32.149 21.7514 32.2225 21.6755 32.2529L17.235 34.0291C17.0306 34.1109 17.0891 34.4148 17.3093 34.4148H29.6114C29.8317 34.4148 29.8902 34.1109 29.6857 34.0291L25.2452 32.2529C25.1693 32.2225 25.1195 32.149 25.1195 32.0672V31.2965C25.1195 31.186 25.03 31.0965 24.9195 31.0965H23.8147C27.478 30.9846 31.0294 29.1648 33.8685 24.6212C33.9245 24.5315 34.0508 24.504 34.1448 24.5524C45.2459 30.2665 39.9036 8.64086 34.0301 18.8211C33.994 18.8836 33.9236 18.9295 33.8515 18.9295H30.6885C30.663 18.9295 30.6378 18.9246 30.6142 18.9152L25.1757 16.7398C25.139 16.7251 25.108 16.7005 25.0849 16.6685C24.9476 16.4774 24.4277 15.7828 24.0134 15.6112C23.8431 15.5407 23.6517 15.5054 23.4604 15.5054ZM37.2563 18.9295C37.2822 18.9284 37.3081 18.9292 37.334 18.9317C37.6267 18.9564 37.9025 19.2123 38.101 19.6432C38.2994 20.0741 38.4043 20.6449 38.3926 21.2303L38.3904 21.2475C38.3764 21.8329 38.2468 22.3832 38.0301 22.7777C37.8135 23.1722 37.5274 23.3787 37.2347 23.3517C36.942 23.3248 36.6666 23.0668 36.4689 22.6342C36.2713 22.2016 36.1675 21.6299 36.1804 21.0445C36.1926 20.4851 36.3104 19.9558 36.5101 19.5633C36.7098 19.1708 36.9764 18.9443 37.2563 18.9295Z" fill="url(#paint0_linear_54_1212)"/>
</g>
<defs>
<linearGradient id="paint0_linear_54_1212" x1="24.016" y1="34.4148" x2="24.016" y2="15.5054" gradientUnits="userSpaceOnUse">
<stop stop-color="#FD5900"/>
<stop offset="1" stop-color="#FFDE00"/>
</linearGradient>
</defs>
</svg>
