<svg width="24" height="24" viewBox="0 0 24 24" fill="none" xmlns="http://www.w3.org/2000/svg">
<path opacity="0.4" d="M14.2 3H9.8C5.652 3 3.577 3 2.289 4.318C1 5.636 1 7.758 1 12C1 16.243 1 18.364 2.289 19.682C3.577 21 5.652 21 9.8 21H14.2C18.348 21 20.423 21 21.711 19.682C23 18.364 23 16.242 23 12C23 7.757 23 5.636 21.711 4.318C20.423 3 18.348 3 14.2 3Z" fill="url(#paint0_linear_8_517)"/>
<path d="M19.128 8.03305C19.2962 7.89301 19.4018 7.69192 19.4217 7.474C19.4416 7.25608 19.3741 7.03919 19.234 6.87105C19.094 6.7029 18.8929 6.59727 18.675 6.57739C18.4571 6.55751 18.2402 6.62501 18.072 6.76505L15.697 8.74505C14.671 9.60005 13.959 10.192 13.357 10.578C12.775 10.953 12.38 11.078 12 11.078C11.62 11.078 11.226 10.953 10.643 10.578C10.042 10.192 9.32902 9.60005 8.30302 8.74405L5.92802 6.76505C5.75988 6.62501 5.54299 6.55751 5.32507 6.57739C5.10715 6.59727 4.90606 6.7029 4.76602 6.87105C4.62599 7.03919 4.55849 7.25608 4.57837 7.474C4.59824 7.69192 4.70388 7.89301 4.87202 8.03305L7.28802 10.047C8.26302 10.859 9.05302 11.517 9.75102 11.967C10.477 12.433 11.185 12.729 12.001 12.729C12.815 12.729 13.523 12.433 14.249 11.966C14.947 11.518 15.737 10.859 16.712 10.046L19.128 8.03305Z" fill="url(#paint1_linear_8_517)"/>
<defs>
<linearGradient id="paint0_linear_8_517" x1="12" y1="21" x2="12" y2="3" gradientUnits="userSpaceOnUse">
<stop stop-color="#FDA700"/>
<stop offset="1" stop-color="#FFDE00"/>
</linearGradient>
<linearGradient id="paint1_linear_8_517" x1="12" y1="12.729" x2="12" y2="6.57397" gradientUnits="userSpaceOnUse">
<stop stop-color="#FDA700"/>
<stop offset="1" stop-color="#FFDE00"/>
</linearGradient>
</defs>
</svg>
