<svg width="24" height="24" viewBox="0 0 24 24" fill="none" xmlns="http://www.w3.org/2000/svg">
<path opacity="0.4" fill-rule="evenodd" clip-rule="evenodd" d="M2.3176 3.3176C1 4.637 1 6.7574 1 11C1 15.2426 1 17.3639 2.3176 18.6815C3.637 20 5.7574 20 10 20C14.2426 20 10.8639 21 12.1815 19.6815C13.5 18.3648 6 16.7426 6 12.5C13 9.49998 16.6926 5.19262 14 2.49997C13.5 1.99996 11.5 2 10 2C5.7574 2 3.6361 2 2.3176 3.3176Z" fill="url(#paint0_linear_54_396)"/>
<path fill-rule="evenodd" clip-rule="evenodd" d="M6.3176 5.3176C5 6.637 5 8.7574 5 13C5 17.2426 5 19.3639 6.3176 20.6815C7.637 22 9.7574 22 14 22C18.2426 22 20.3639 22 21.6815 20.6815C23 19.3648 23 17.2426 23 13C23 8.7574 23 6.6361 21.6815 5.3176C20.3648 4 18.2426 4 14 4C9.7574 4 7.6361 4 6.3176 5.3176ZM17.6 11.2C18.0774 11.2 18.5352 11.0104 18.8728 10.6728C19.2104 10.3352 19.4 9.87739 19.4 9.4C19.4 8.92261 19.2104 8.46477 18.8728 8.12721C18.5352 7.78964 18.0774 7.6 17.6 7.6C17.1226 7.6 16.6648 7.78964 16.3272 8.12721C15.9896 8.46477 15.8 8.92261 15.8 9.4C15.8 9.87739 15.9896 10.3352 16.3272 10.6728C16.6648 11.0104 17.1226 11.2 17.6 11.2ZM8.888 13.9936C9.15789 13.7427 9.51608 13.6088 9.88435 13.6211C10.2526 13.6335 10.6011 13.791 10.8536 14.0593L13.2368 16.5883C13.5842 16.9573 14.0552 17.1856 14.5601 17.2297C15.0649 17.2739 15.5684 17.1308 15.9746 16.8277C16.2418 16.6283 16.571 16.5299 16.9039 16.5502C17.2367 16.5705 17.5516 16.708 17.7926 16.9384L19.8338 18.8878C19.9642 19.0058 20.1355 19.0683 20.3112 19.0619C20.4869 19.0556 20.6533 18.9809 20.7748 18.8537C20.8963 18.7266 20.9634 18.5571 20.9618 18.3812C20.9602 18.2054 20.89 18.0371 20.7662 17.9122L18.725 15.961C18.2532 15.5103 17.637 15.2414 16.9857 15.2018C16.3344 15.1623 15.6902 15.3547 15.1673 15.745C15.0265 15.8499 14.852 15.8993 14.6771 15.8839C14.5021 15.8684 14.339 15.7892 14.2187 15.6613L11.8364 13.1323C11.3394 12.6048 10.654 12.2952 9.92972 12.2711C9.2054 12.247 8.50093 12.5103 7.97 13.0036L7.241 13.6804C7.10972 13.8021 7.03217 13.971 7.02542 14.1499C7.01867 14.3289 7.08327 14.5031 7.205 14.6344C7.32673 14.7657 7.49563 14.8432 7.67454 14.85C7.85345 14.8567 8.02772 14.7921 8.159 14.6704L8.888 13.9927V13.9936Z" fill="url(#paint1_linear_54_396)"/>
<defs>
<linearGradient id="paint0_linear_54_396" x1="3.57165" y1="-1.4431" x2="19.1611" y2="23.5166" gradientUnits="userSpaceOnUse">
<stop stop-color="#FFCA64"/>
<stop offset="1" stop-color="#C70000"/>
</linearGradient>
<linearGradient id="paint1_linear_54_396" x1="8.33431" y1="0.625" x2="21.4659" y2="28.4346" gradientUnits="userSpaceOnUse">
<stop stop-color="#FFCA64"/>
<stop offset="1" stop-color="#C70000"/>
</linearGradient>
</defs>
</svg>
