<svg width="64" height="64" viewBox="0 0 64 64" fill="none" xmlns="http://www.w3.org/2000/svg">
<rect opacity="0.4" x="4" y="4" width="56" height="56" rx="10" fill="url(#paint0_linear_37_266)"/>
<path d="M43 18C41.1615 18 39.341 18.3621 37.6424 19.0656C35.9439 19.7693 34.4006 20.8005 33.1005 22.1005C31.8005 23.4005 30.7693 24.9439 30.0657 26.6424C29.3621 28.341 29 30.1615 29 32C29 33.8385 29.3621 35.659 30.0657 37.3576C30.7693 39.0561 31.8005 40.5994 33.1005 41.8995C34.4005 43.1995 35.9439 44.2307 37.6424 44.9343C39.341 45.6379 41.1615 46 43 46C44.8385 46 46.659 45.6379 48.3576 44.9343C50.0561 44.2307 51.5995 43.1995 52.8995 41.8995C54.1995 40.5994 55.2307 39.0561 55.9344 37.3576C56.6379 35.659 57 33.8385 57 32C57 28.2869 55.525 24.726 52.8995 22.1005C50.274 19.475 46.7131 18 43 18ZM17 22C15.6868 22 14.3865 22.2586 13.1732 22.7612C11.9599 23.2638 10.8575 24.0003 9.92894 24.929C9.00035 25.8575 8.26375 26.9599 7.7612 28.1731C7.25866 29.3865 7 30.6868 7 32C7 33.3132 7.25866 34.6135 7.7612 35.8269C8.26375 37.0401 9.00035 38.1425 9.92894 39.071C10.8575 39.9997 11.9599 40.7362 13.1732 41.2388C14.3865 41.7414 15.6868 42 17 42C18.3132 42 19.6135 41.7414 20.8269 41.2388C22.0401 40.7362 23.1425 39.9997 24.071 39.071C24.9997 38.1425 25.7362 37.0401 26.2388 35.8269C26.7414 34.6135 27 33.3132 27 32C27 29.3478 25.9465 26.8043 24.071 24.929C22.1957 23.0535 19.6522 22 17 22ZM43 22C45.6522 22 48.1957 23.0535 50.071 24.929C51.9465 26.8043 53 29.3478 53 32C53 33.3132 52.7414 34.6135 52.2388 35.8269C51.7362 37.0401 50.9997 38.1425 50.071 39.071C49.1425 39.9997 48.0401 40.7362 46.8269 41.2388C45.6135 41.7414 44.3132 42 43 42C41.6868 42 40.3865 41.7414 39.1731 41.2388C37.9599 40.7362 36.8575 39.9997 35.929 39.071C35.0003 38.1425 34.2638 37.0401 33.7612 35.8269C33.2586 34.6135 33 33.3132 33 32C33 30.6868 33.2586 29.3865 33.7612 28.1731C34.2638 26.9599 35.0003 25.8575 35.929 24.929C36.8575 24.0003 37.9599 23.2638 39.1731 22.7612C40.3865 22.2586 41.6868 22 43 22ZM17 26C18.5913 26 20.1174 26.6322 21.2427 27.7573C22.3678 28.8826 23 30.4087 23 32C23 32.7879 22.8448 33.5681 22.5433 34.2961C22.2418 35.024 21.7998 35.6855 21.2427 36.2427C20.6855 36.7998 20.024 37.2418 19.2961 37.5433C18.5681 37.8448 17.7879 38 17 38C16.2121 38 15.4319 37.8448 14.7039 37.5433C13.9759 37.2418 13.3145 36.7998 12.7574 36.2427C12.2002 35.6855 11.7583 35.024 11.4567 34.2961C11.1552 33.5681 11 32.7879 11 32C11 30.4087 11.6321 28.8826 12.7574 27.7573C13.8826 26.6322 15.4087 26 17 26Z" fill="url(#paint1_linear_37_266)"/>
<defs>
<linearGradient id="paint0_linear_37_266" x1="32" y1="60" x2="32" y2="4" gradientUnits="userSpaceOnUse">
<stop stop-color="#E80058"/>
<stop offset="0.9997" stop-color="#FF001D"/>
<stop offset="0.9998" stop-color="#FF867E"/>
</linearGradient>
<linearGradient id="paint1_linear_37_266" x1="32" y1="46" x2="32" y2="18" gradientUnits="userSpaceOnUse">
<stop stop-color="#E80058"/>
<stop offset="0.9997" stop-color="#FF001D"/>
<stop offset="0.9998" stop-color="#FF867E"/>
</linearGradient>
</defs>
</svg>
