<svg width="64" height="64" viewBox="0 0 64 64" fill="none" xmlns="http://www.w3.org/2000/svg">
<path opacity="0.4" d="M38.4831 48.4414C50.1953 41.2282 56.0039 28.0189 51.457 18.9376C46.91 9.85634 33.7295 8.34203 22.0173 15.5553C10.3052 22.7686 4.4966 35.9779 9.04351 45.0591C13.5904 54.1404 26.771 55.6547 38.4831 48.4414Z" fill="url(#paint0_linear_216_136)"/>
<path fill-rule="evenodd" clip-rule="evenodd" d="M30.25 4C35.0825 4 39 7.91751 39 12.75C39 17.5825 35.0825 21.5 30.25 21.5C25.4175 21.5 21.5 17.5825 21.5 12.75C21.5 7.91751 25.4175 4 30.25 4ZM12.75 18C17.5825 18 21.5 21.9175 21.5 26.75C21.5 31.5825 17.5825 35.5 12.75 35.5C7.91751 35.5 4 31.5825 4 26.75C4 21.9175 7.91751 18 12.75 18ZM25 51.25C25 46.4175 21.0825 42.5 16.25 42.5C11.4175 42.5 7.5 46.4175 7.5 51.25C7.5 56.0825 11.4175 60 16.25 60C21.0825 60 25 56.0825 25 51.25ZM40.75 39C45.5825 39 49.5 42.9175 49.5 47.75C49.5 52.5825 45.5825 56.5 40.75 56.5C35.9175 56.5 32 52.5825 32 47.75C32 42.9175 35.9175 39 40.75 39ZM60 26.75C60 21.9175 56.0825 18 51.25 18C46.4175 18 42.5 21.9175 42.5 26.75C42.5 31.5825 46.4175 35.5 51.25 35.5C56.0825 35.5 60 31.5825 60 26.75Z" fill="url(#paint1_linear_216_136)"/>
<defs>
<linearGradient id="paint0_linear_216_136" x1="30.2502" y1="52.9982" x2="30.2502" y2="10.9985" gradientUnits="userSpaceOnUse">
<stop stop-color="#5570FF"/>
<stop offset="1" stop-color="#4DD3FF"/>
</linearGradient>
<linearGradient id="paint1_linear_216_136" x1="32" y1="60" x2="32" y2="4" gradientUnits="userSpaceOnUse">
<stop stop-color="#5558FF"/>
<stop offset="1" stop-color="#00C0FF"/>
</linearGradient>
</defs>
</svg>
