<svg width="48" height="48" viewBox="0 0 48 48" fill="none" xmlns="http://www.w3.org/2000/svg">
<path opacity="0.4" d="M39.8248 19.8517C41.2911 20.2446 42.4364 21.3899 42.8293 22.8562L44.6101 29.5022C45.003 30.9685 44.5837 32.533 43.5103 33.6064L38.6451 38.4717C37.5717 39.5451 36.0072 39.9643 34.5409 39.5714L27.8949 37.7906C26.4286 37.3977 25.2833 36.2524 24.8904 34.7861L23.1096 28.1401C22.7167 26.6738 23.1359 25.1093 24.2093 24.0359L29.0745 19.1706C30.1479 18.0972 31.7125 17.678 33.1788 18.0709L39.8248 19.8517Z" fill="url(#paint0_linear_276_161)"/>
<path d="M20.1051 25.1354C21.5714 25.5283 22.7167 26.6736 23.1096 28.1399L24.8904 34.7859C25.2833 36.2522 24.8641 37.8167 23.7907 38.8901L18.9255 43.7554C17.8521 44.8288 16.2875 45.248 14.8212 44.8551L8.17522 43.0743C6.70892 42.6814 5.56362 41.5361 5.17073 40.0698L3.38993 33.4238C2.99704 31.9575 3.41625 30.3929 4.48965 29.3195L9.35488 24.4543C10.4283 23.3809 11.9928 22.9617 13.4591 23.3546L20.1051 25.1354Z" fill="url(#paint1_linear_276_161)"/>
<path d="M25.5279 5.45295C26.9082 5.82283 27.9864 6.90101 28.3563 8.28138L30.2115 15.2051C30.5814 16.5854 30.1867 18.0583 29.1762 19.0688L24.1077 24.1374C23.0972 25.1479 21.6243 25.5425 20.244 25.1726L13.3203 23.3175C11.9399 22.9476 10.8617 21.8694 10.4918 20.4891L8.6366 13.5653C8.26674 12.1849 8.66138 10.7121 9.67187 9.70157L14.7404 4.63301C15.7509 3.6225 17.2238 3.22785 18.6041 3.59773L25.5279 5.45295Z" fill="url(#paint2_linear_276_161)"/>
<defs>
<linearGradient id="paint0_linear_276_161" x1="30.9405" y1="17.926" x2="36.7792" y2="39.7163" gradientUnits="userSpaceOnUse">
<stop stop-color="#7EF893"/>
<stop offset="1" stop-color="#1BB335"/>
</linearGradient>
<linearGradient id="paint1_linear_276_161" x1="11.2208" y1="23.2097" x2="17.0595" y2="45" gradientUnits="userSpaceOnUse">
<stop stop-color="#7EF893"/>
<stop offset="1" stop-color="#1BB335"/>
</linearGradient>
<linearGradient id="paint2_linear_276_161" x1="16.3734" y1="3" x2="22.4747" y2="25.7704" gradientUnits="userSpaceOnUse">
<stop stop-color="#7EF893"/>
<stop offset="1" stop-color="#1BB335"/>
</linearGradient>
</defs>
</svg>
