<svg width="24" height="24" viewBox="0 0 24 24" fill="none" xmlns="http://www.w3.org/2000/svg">
<path opacity="0.45" d="M23 19.9266V12C23 5.9247 18.0753 1 12 1C5.9247 1 1 5.9247 1 12V19.9266C1.00006 20.2505 1.08292 20.5689 1.2407 20.8517C1.39848 21.1346 1.62594 21.3723 1.90148 21.5425C2.17702 21.7127 2.49149 21.8096 2.81502 21.824C3.13855 21.8385 3.4604 21.77 3.75 21.625C4.25133 21.3743 4.81001 21.2606 5.36944 21.2954C5.92887 21.3302 6.46916 21.5122 6.9356 21.823C7.45812 22.1713 8.07204 22.3571 8.7 22.3571C9.32796 22.3571 9.94188 22.1713 10.4644 21.823L10.8527 21.5656C11.1925 21.3392 11.5917 21.2184 12 21.2184C12.4083 21.2184 12.8075 21.3392 13.1473 21.5656L13.5356 21.8241C14.0581 22.1724 14.672 22.3582 15.3 22.3582C15.928 22.3582 16.5419 22.1724 17.0644 21.8241C17.531 21.5131 18.0715 21.331 18.6311 21.2962C19.1907 21.2614 19.7496 21.3752 20.2511 21.6261C20.5407 21.7708 20.8626 21.8391 21.186 21.8245C21.5095 21.8099 21.8239 21.7129 22.0993 21.5426C22.3747 21.3723 22.602 21.1345 22.7597 20.8517C22.9173 20.5688 23 20.2504 23 19.9266Z" fill="url(#paint0_linear_8_480)"/>
<path d="M15.3 12C15.9072 12 16.4 11.2608 16.4 10.35C16.4 9.43921 15.9072 8.70001 15.3 8.70001C14.6928 8.70001 14.2 9.43921 14.2 10.35C14.2 11.2608 14.6928 12 15.3 12ZM9.79998 10.35C9.79998 11.2608 9.30718 12 8.69998 12C8.09278 12 7.59998 11.2608 7.59998 10.35C7.59998 9.43921 8.09278 8.70001 8.69998 8.70001C9.30718 8.70001 9.79998 9.43921 9.79998 10.35Z" fill="url(#paint1_linear_8_480)"/>
<defs>
<linearGradient id="paint0_linear_8_480" x1="12" y1="22.3582" x2="12" y2="1" gradientUnits="userSpaceOnUse">
<stop stop-color="#5558FF"/>
<stop offset="1" stop-color="#00C0FF"/>
</linearGradient>
<linearGradient id="paint1_linear_8_480" x1="12" y1="12" x2="12" y2="8.70001" gradientUnits="userSpaceOnUse">
<stop stop-color="#5558FF"/>
<stop offset="1" stop-color="#00C0FF"/>
</linearGradient>
</defs>
</svg>
