<svg width="128" height="128" viewBox="0 0 128 128" fill="none" xmlns="http://www.w3.org/2000/svg">
<path opacity="0.4" d="M74.8134 9.25707C60.4883 6.18769 45.0147 8.7934 32.5711 16.4799C25.072 21.2472 18.068 27.2685 13.8497 35.1705C10.1134 41.8839 7.96131 49.9166 10.0671 57.4856C10.644 59.7571 11.5525 61.9477 12.7407 63.979C16.4324 70.6614 24.8788 78.6599 37.3566 86.4793C41.7039 91.2046 44.3746 96.1324 46.81 100.626C47.2816 101.496 47.7443 102.35 48.2087 103.183C50.504 108.554 54.3721 113.309 59.4717 116.267C65.875 119.964 73.8297 121.094 80.933 118.847C92.1549 115.308 101.826 107.81 108.883 98.5762C116.171 88.9764 120.217 77.0123 120.211 65.0023C120.349 52.1631 115.814 39.3632 107.681 29.3648C99.4955 19.1901 87.6859 11.9216 74.8134 9.25707Z" fill="url(#paint0_linear_54_714)"/>
<path fill-rule="evenodd" clip-rule="evenodd" d="M83.6104 30.2885C90.2892 24.6869 98.9586 21.1362 107.792 21.4605C110.218 21.5334 112.422 22.5954 114.52 23.6898C113.64 24.4426 112.617 25.0104 111.595 25.5773C110.087 26.4144 108.582 27.2494 107.547 28.6753C105.239 31.5324 104.456 35.0076 103.672 38.4929C102.994 41.5047 102.314 44.5239 100.647 47.1582C97.6968 52.4436 90.8461 55.9619 84.8891 53.7163C79.4399 51.9329 75.9899 45.9584 76.9653 40.3811C77.3504 36.1414 80.3327 32.7772 83.6104 30.2885ZM65.247 51.6085C67.6807 49.663 70.3029 47.8229 73.3348 46.9149C74.2457 47.2348 74.6531 48.0949 75.0585 48.9506C75.2695 49.3958 75.4798 49.8399 75.7603 50.2061C76.8309 52.4071 78.7595 53.8686 80.6705 55.3167C81.2019 55.7194 81.732 56.1211 82.2418 56.5373C81.0599 58.1561 79.8484 59.7491 78.6364 61.3428L78.6362 61.3431C77.9243 62.2792 77.2122 63.2156 76.5057 64.1576C73.2581 60.7753 70.1701 57.2408 67.0846 53.7093L67.0818 53.7061C66.4705 53.0064 65.8593 52.3068 65.247 51.6085ZM59.6595 55.8616C59.458 56.0496 59.2668 56.228 59.0931 56.3348C57.2583 58.0399 55.4174 59.7418 53.5755 61.4446C38.3235 75.5451 23.0005 89.7111 10.4761 106.303C10.3753 106.431 10.2735 106.56 10.1713 106.689C8.6108 108.661 6.94013 110.772 7.00165 113.405C9.7222 113.689 12.0986 112.303 14.2864 110.908C33.7309 100.038 50.8568 85.7591 67.8841 71.5621C69.3844 70.3111 70.884 69.0608 72.3843 67.8135C68.8034 63.6552 65.1733 59.5288 61.4776 55.4674C60.9004 54.704 60.2375 55.3224 59.6595 55.8616Z" fill="url(#paint1_linear_54_714)"/>
<path d="M107.792 21.4605L107.755 22.4598L107.762 22.46L107.792 21.4605ZM83.6104 30.2885L84.2151 31.0849L84.2344 31.0703L84.253 31.0547L83.6104 30.2885ZM114.52 23.6898L115.17 24.4498L116.295 23.4877L114.983 22.8032L114.52 23.6898ZM111.595 25.5773L112.08 26.4517L112.08 26.4517L111.595 25.5773ZM107.547 28.6753L108.325 29.3037L108.341 29.2837L108.356 29.2629L107.547 28.6753ZM103.672 38.4929L104.647 38.7125L104.647 38.7125L103.672 38.4929ZM100.647 47.1582L99.8019 46.6234L99.7872 46.6467L99.7737 46.6708L100.647 47.1582ZM84.8891 53.7163L85.2418 52.7806L85.2211 52.7728L85.2001 52.766L84.8891 53.7163ZM76.9653 40.3811L77.9504 40.5534L77.9575 40.5127L77.9612 40.4716L76.9653 40.3811ZM73.3348 46.9149L73.6661 45.9714L73.3594 45.8636L73.0479 45.9569L73.3348 46.9149ZM65.247 51.6085L64.6226 50.8274L63.805 51.481L64.4951 52.2679L65.247 51.6085ZM75.0585 48.9506L75.9623 48.5225L75.9623 48.5225L75.0585 48.9506ZM75.7603 50.2061L76.6596 49.7687L76.6155 49.6781L76.5542 49.5981L75.7603 50.2061ZM80.6705 55.3167L81.2745 54.5197L81.2745 54.5197L80.6705 55.3167ZM82.2418 56.5373L83.0495 57.127L83.6081 56.3618L82.8742 55.7627L82.2418 56.5373ZM78.6364 61.3428L77.8404 60.7374L77.8328 60.7476L78.6364 61.3428ZM78.6362 61.3431L79.4322 61.9485L79.4397 61.9384L78.6362 61.3431ZM76.5057 64.1576L75.7844 64.8502L76.5996 65.6992L77.3058 64.7575L76.5057 64.1576ZM67.0846 53.7093L67.8377 53.0513L67.8372 53.0508L67.0846 53.7093ZM67.0818 53.7061L66.3288 54.364L66.3293 54.3646L67.0818 53.7061ZM59.0931 56.3348L58.569 55.4832L58.4848 55.535L58.4124 55.6023L59.0931 56.3348ZM59.6595 55.8616L60.3416 56.5929L60.3416 56.5929L59.6595 55.8616ZM53.5755 61.4446L52.8967 60.7104L52.8967 60.7104L53.5755 61.4446ZM10.4761 106.303L11.262 106.922L11.2682 106.914L11.2742 106.906L10.4761 106.303ZM10.1713 106.689L10.9554 107.31L10.9554 107.31L10.1713 106.689ZM7.00165 113.405L6.00192 113.428L6.02248 114.308L6.89789 114.399L7.00165 113.405ZM14.2864 110.908L13.7984 110.035L13.7732 110.049L13.7489 110.065L14.2864 110.908ZM67.8841 71.5621L68.5245 72.3301L68.5245 72.3301L67.8841 71.5621ZM72.3843 67.8135L73.0236 68.5825L73.806 67.932L73.1421 67.161L72.3843 67.8135ZM61.4776 55.4674L60.68 56.0705L60.7074 56.1068L60.738 56.1405L61.4776 55.4674ZM107.829 20.4612C98.707 20.1263 89.8026 23.7899 82.9678 29.5223L84.253 31.0547C90.7759 25.5839 99.2102 22.1462 107.755 22.4598L107.829 20.4612ZM114.983 22.8032C112.894 21.7138 110.503 20.5416 107.822 20.4609L107.762 22.46C109.932 22.5253 111.95 23.4771 114.058 24.5764L114.983 22.8032ZM112.08 26.4517C113.086 25.8935 114.2 25.2792 115.17 24.4498L113.87 22.9299C113.079 23.6061 112.147 24.1273 111.11 24.7029L112.08 26.4517ZM108.356 29.2629C109.24 28.0454 110.539 27.3072 112.08 26.4517L111.11 24.7029C109.635 25.5215 107.924 26.4535 106.738 28.0877L108.356 29.2629ZM104.647 38.7125C105.441 35.1888 106.187 31.9503 108.325 29.3037L106.769 28.0469C104.291 31.1145 103.472 34.8265 102.696 38.2733L104.647 38.7125ZM101.492 47.693C103.267 44.8882 103.976 41.6948 104.647 38.7125L102.696 38.2733C102.012 41.3145 101.361 44.1596 99.8019 46.6234L101.492 47.693ZM84.5364 54.6521C91.0651 57.1131 98.3899 53.2537 101.52 47.6455L99.7737 46.6708C97.0037 51.6335 90.6271 54.8106 85.2418 52.7806L84.5364 54.6521ZM75.9803 40.2089C74.9218 46.2612 78.6423 52.7241 84.5781 54.6667L85.2001 52.766C80.2374 51.1417 77.0581 45.6556 77.9504 40.5534L75.9803 40.2089ZM83.0057 29.4921C79.6548 32.0364 76.393 35.6263 75.9694 40.2907L77.9612 40.4716C78.3077 36.6565 81.0106 33.5181 84.2151 31.0849L83.0057 29.4921ZM73.0479 45.9569C69.8227 46.9228 67.0758 48.8663 64.6226 50.8274L65.8714 52.3896C68.2856 50.4597 70.783 48.7229 73.6216 47.8728L73.0479 45.9569ZM75.9623 48.5225C75.5979 47.7534 75.0369 46.4528 73.6661 45.9714L73.0034 47.8584C73.4544 48.0168 73.7084 48.4363 74.1548 49.3787L75.9623 48.5225ZM76.5542 49.5981C76.3499 49.3314 76.1832 48.9887 75.9623 48.5225L74.1548 49.3787C74.3558 49.8029 74.6097 50.3484 74.9664 50.8141L76.5542 49.5981ZM81.2745 54.5197C79.3288 53.0453 77.6083 51.7191 76.6596 49.7687L74.861 50.6435C76.0535 53.0951 78.1902 54.6918 80.0665 56.1137L81.2745 54.5197ZM82.8742 55.7627C82.348 55.3331 81.8034 54.9205 81.2745 54.5197L80.0665 56.1137C80.6005 56.5183 81.116 56.9091 81.6094 57.312L82.8742 55.7627ZM79.4324 61.9482C80.6434 60.3557 81.8608 58.755 83.0495 57.127L81.4342 55.9476C80.259 57.5573 79.0535 59.1425 77.8404 60.7375L79.4324 61.9482ZM79.4397 61.9384L79.44 61.9381L77.8328 60.7476L77.8326 60.7479L79.4397 61.9384ZM77.3058 64.7575C78.0098 63.8187 78.7199 62.885 79.4321 61.9485L77.8402 60.7378C77.1286 61.6734 76.4145 62.6125 75.7057 63.5576L77.3058 64.7575ZM66.3316 54.3672C69.4144 57.8958 72.5178 61.4481 75.7844 64.8502L77.2271 63.465C73.9985 60.1025 70.9257 56.5858 67.8377 53.0513L66.3316 54.3672ZM66.3293 54.3646L66.3321 54.3678L67.8372 53.0508L67.8344 53.0476L66.3293 54.3646ZM64.4951 52.2679C65.1068 52.9653 65.7174 53.6642 66.3288 54.364L67.8349 53.0481C67.2237 52.3486 66.6119 51.6483 65.9988 50.9492L64.4951 52.2679ZM59.6172 57.1865C59.8949 57.0156 60.1667 56.7561 60.3416 56.5929L58.9773 55.1304C58.7493 55.3432 58.6387 55.4403 58.569 55.4832L59.6172 57.1865ZM54.2544 62.1789C56.0961 60.4762 57.938 58.7735 59.7739 57.0674L58.4124 55.6023C56.5787 57.3064 54.7388 59.0074 52.8967 60.7104L54.2544 62.1789ZM11.2742 106.906C23.7358 90.3967 38.991 76.2898 54.2544 62.1789L52.8967 60.7104C37.6559 74.8004 22.2651 89.0255 9.67793 105.701L11.2742 106.906ZM10.9554 107.31C11.0575 107.181 11.1602 107.051 11.262 106.922L9.69012 105.685C9.59039 105.812 9.48952 105.939 9.38712 106.069L10.9554 107.31ZM8.00138 113.381C7.94973 111.171 9.34475 109.345 10.9554 107.31L9.38713 106.069C7.87685 107.977 5.93053 110.373 6.00192 113.428L8.00138 113.381ZM13.7489 110.065C11.5347 111.476 9.43625 112.653 7.10541 112.41L6.89789 114.399C10.0081 114.724 12.6625 113.129 14.8239 111.751L13.7489 110.065ZM67.2437 70.794C50.2043 85.0011 33.1483 99.2184 13.7984 110.035L14.7743 111.781C34.3134 100.858 51.5094 86.517 68.5245 72.3301L67.2437 70.794ZM71.745 67.0445C70.2441 68.2924 68.7439 69.5431 67.2437 70.794L68.5245 72.3301C70.0249 71.0791 71.5239 69.8292 73.0236 68.5825L71.745 67.0445ZM60.738 56.1405C64.4262 60.1937 68.0502 64.313 71.6265 68.466L73.1421 67.161C69.5566 62.9975 65.9203 58.864 62.2173 54.7944L60.738 56.1405ZM60.3416 56.5929C60.4916 56.453 60.6133 56.3401 60.7307 56.2463C60.8507 56.1503 60.9195 56.113 60.9467 56.1019C60.964 56.0948 60.8892 56.1284 60.7717 56.0968C60.6536 56.0651 60.6301 56.0046 60.68 56.0705L62.2753 54.8643C62.0366 54.5486 61.7138 54.2791 61.291 54.1654C60.8687 54.0519 60.4839 54.1306 60.191 54.2502C59.6744 54.461 59.221 54.9031 58.9773 55.1304L60.3416 56.5929Z" fill="url(#paint2_linear_54_714)"/>
<defs>
<linearGradient id="paint0_linear_54_714" x1="9.22374" y1="62.3405" x2="120.19" y2="62.3405" gradientUnits="userSpaceOnUse">
<stop stop-color="#FD3A84"/>
<stop offset="1" stop-color="#FFA68D"/>
</linearGradient>
<linearGradient id="paint1_linear_54_714" x1="110.888" y1="24.0697" x2="79.0131" y2="117.606" gradientUnits="userSpaceOnUse">
<stop stop-color="#FE0F7C"/>
<stop offset="1" stop-color="#DF0066"/>
</linearGradient>
<linearGradient id="paint2_linear_54_714" x1="110.888" y1="24.0697" x2="79.0131" y2="117.606" gradientUnits="userSpaceOnUse">
<stop stop-color="#FE0F7C"/>
<stop offset="1" stop-color="#DF0066"/>
</linearGradient>
</defs>
</svg>
