<svg width="24" height="24" viewBox="0 0 24 24" fill="none" xmlns="http://www.w3.org/2000/svg">
<path opacity="0.4" d="M5.03802 1.00265C5.03644 1.00106 5.03387 1.00107 5.03229 1.00265L4.51666 1.51971C4.23112 1.80604 4.23128 2.26948 4.51702 2.55562L5.48988 3.52983C5.82466 3.86507 5.8635 4.38548 5.69688 4.82899C5.54311 5.23832 5.46294 5.67391 5.46242 6.11553C5.46251 6.96149 5.75482 7.78145 6.28989 8.4367C6.6515 8.87954 7.10899 9.22877 7.62346 9.46089C8.05661 9.65631 8.39881 10.0528 8.39881 10.528V14.9226C8.39881 15.3978 8.05661 15.7943 7.62346 15.9897C7.10986 16.2214 6.65304 16.5699 6.2917 17.0116C5.75674 17.6657 5.46383 18.4843 5.46242 19.3293C5.46242 20.3028 5.84913 21.2364 6.53748 21.9247C6.87832 22.2656 7.28295 22.5359 7.72828 22.7204C8.1736 22.9049 8.6509 22.9998 9.13291 22.9998C10.1064 22.9998 11.04 22.6131 11.7284 21.9247C12.4167 21.2364 12.8034 20.3028 12.8034 19.3293C12.8033 18.4833 12.511 17.6634 11.976 17.0081C11.6144 16.5653 11.1569 16.2161 10.6424 15.9839C10.2093 15.7885 9.86701 15.3921 9.86701 14.9169V10.4032C9.86701 9.99761 10.1584 9.65816 10.5338 9.50491C10.9055 9.3532 11.346 9.38958 11.6299 9.67345L12.8309 10.8745C13.1657 11.2093 13.2051 11.7293 13.0391 12.1728C12.8859 12.5823 12.8063 13.0179 12.8063 13.4594C12.8063 14.4329 13.193 15.3665 13.8814 16.0548C14.5697 16.7432 15.5033 17.1299 16.4768 17.1299C17.4503 17.1299 18.3839 16.7432 19.0722 16.0548C19.7606 15.3665 20.1473 14.4329 20.1473 13.4594C20.1473 12.4859 19.7606 11.5523 19.0722 10.864C18.3839 10.1756 17.4503 9.78888 16.4768 9.78888C16.0274 9.78943 15.5844 9.87245 15.169 10.0315C14.723 10.2022 14.1977 10.1648 13.8603 9.82699L12.7687 8.73407C12.4321 8.39695 12.3948 7.87291 12.5647 7.42781C12.7236 7.01182 12.8063 6.56823 12.8063 6.11839C12.8063 5.63638 12.7114 5.15908 12.5269 4.71376C12.3425 4.26843 12.0721 3.8638 11.7312 3.52296C11.3904 3.18213 10.9858 2.91176 10.5405 2.7273C10.0951 2.54284 9.61779 2.4479 9.13578 2.4479C8.68719 2.4488 8.24498 2.53188 7.8303 2.6907C7.38465 2.86138 6.85958 2.8242 6.52213 2.48675L5.03802 1.00265Z" fill="url(#paint0_linear_274_121)"/>
<path d="M4.51666 1.51971L5.03229 1.00265C5.03387 1.00107 5.03644 1.00106 5.03802 1.00265L6.52213 2.48675C6.85958 2.8242 7.38465 2.86138 7.8303 2.6907C8.24498 2.53188 8.68719 2.4488 9.13578 2.4479C9.61779 2.4479 10.0951 2.54284 10.5405 2.7273C10.9858 2.91176 11.3904 3.18213 11.7312 3.52296C12.0721 3.8638 12.3425 4.26843 12.5269 4.71376C12.7114 5.15908 12.8063 5.63638 12.8063 6.11839C12.8063 6.56823 12.7236 7.01182 12.5647 7.42781C12.3948 7.87291 12.4321 8.39695 12.7687 8.73407L13.9237 9.89052C14.2096 10.1768 14.2101 10.6403 13.9248 10.9272C13.6383 11.2153 13.1723 11.2159 12.885 10.9286L11.6299 9.67345C11.346 9.38958 10.9055 9.3532 10.5338 9.50491C10.1584 9.65816 9.86701 9.99761 9.86701 10.4032V14.9169C9.86701 15.3921 10.2093 15.7885 10.6424 15.9839C11.1569 16.2161 11.6144 16.5653 11.976 17.0081C12.511 17.6634 12.8033 18.4833 12.8034 19.3293C12.8034 20.3028 12.4167 21.2364 11.7284 21.9247C11.04 22.6131 10.1064 22.9998 9.13291 22.9998C8.6509 22.9998 8.1736 22.9049 7.72828 22.7204C7.28295 22.5359 6.87832 22.2656 6.53748 21.9247C5.84913 21.2364 5.46242 20.3028 5.46242 19.3293C5.46383 18.4843 5.75674 17.6657 6.2917 17.0116C6.65304 16.5699 7.10986 16.2214 7.62346 15.9897C8.05661 15.7943 8.39881 15.3978 8.39881 14.9226V10.528C8.39881 10.0528 8.05661 9.65631 7.62346 9.46089C7.109 9.22877 6.6515 8.87954 6.28989 8.4367C5.75482 7.78145 5.46251 6.96149 5.46242 6.11553C5.46294 5.67391 5.54311 5.23832 5.69688 4.82899C5.8635 4.38548 5.82466 3.86507 5.48988 3.52983L4.51701 2.55561C4.23128 2.26948 4.23112 1.80604 4.51666 1.51971Z" fill="url(#paint1_linear_274_121)"/>
<defs>
<linearGradient id="paint0_linear_274_121" x1="12.2715" y1="27.481" x2="12.2715" y2="3.10273" gradientUnits="userSpaceOnUse">
<stop stop-color="#FDA700"/>
<stop offset="1" stop-color="#FFDE00"/>
</linearGradient>
<linearGradient id="paint1_linear_274_121" x1="9.22051" y1="22.9998" x2="9.22051" y2="1.00146" gradientUnits="userSpaceOnUse">
<stop stop-color="#FDA700"/>
<stop offset="1" stop-color="#FFDE00"/>
</linearGradient>
</defs>
</svg>
