<svg width="64" height="64" viewBox="0 0 64 64" fill="none" xmlns="http://www.w3.org/2000/svg">
<path opacity="0.6" fill-rule="evenodd" clip-rule="evenodd" d="M45.5 27C45.5 22.3293 49.3293 18.5 54 18.5C58.6707 18.5 62.5 22.3293 62.5 27C62.5 30.1549 60.753 32.9229 58.186 34.3884C57.9857 34.5027 57.8747 34.6952 57.8747 34.8817V45.8301C57.8747 51.1952 53.7639 56.4801 47.7546 56.4801H39.5008C37.4405 56.4801 35.8712 57.9134 35.6066 59.5811C35.5633 59.8538 35.3433 60.0791 35.0671 60.0791H34.8998C34.7161 60.0791 34.5952 60.2909 34.7789 60.2909V60.2909H29.4945V60.2909C29.6952 60.2909 29.6252 60.0791 29.4245 60.0791H29.2742C29.1174 60.0791 28.9902 59.952 28.9902 59.7951V59.7951C28.9902 59.7674 28.9925 59.7402 28.9968 59.7138C29.2 54.0048 34.1278 49.9032 39.5008 49.9032H47.7546C49.5168 49.9032 51.2978 48.2099 51.2978 45.8301V35.4407C51.2978 35.2272 51.1519 35.0096 50.9026 34.9111C47.7518 33.6659 45.5 30.5822 45.5 27ZM54 30.5C55.9348 30.5 57.5 28.9348 57.5 27C57.5 25.0652 55.9348 23.5 54 23.5C52.0652 23.5 50.5 25.0652 50.5 27C50.5 28.9348 52.0652 30.5 54 30.5Z" fill="url(#paint0_linear_99_150)"/>
<path opacity="0.4" fill-rule="evenodd" clip-rule="evenodd" d="M35.5676 16.2656V17.1618C35.5676 18.5787 35.2909 19.6765 34.7524 20.6444C34.2204 21.6008 33.4497 22.3983 32.5222 23.2359C30.6102 24.9626 28.0799 25.8079 25.4475 25.8079H16.4129C15.2646 25.8079 14.5389 26.19 14.0979 26.6446C13.6468 27.1097 13.26 27.8944 13.26 29.1002V29.7998C13.26 30.0006 13.3888 30.2064 13.6149 30.3137C16.4912 31.6784 18.5 34.6168 18.5 38C18.5 41.5175 16.3289 44.5544 13.267 45.8419C13.3212 46.9471 13.6849 47.7969 14.2072 48.3769C14.773 49.0051 15.5499 49.3462 16.4129 49.3462H25.4475C28.7304 49.3462 31.3103 51.2371 32.9346 53.3705C34.3557 55.2371 35.2997 57.5908 35.5188 59.9553C35.5998 60.8289 34.8827 61.5 34.0676 61.5H30.4907C29.6471 61.5 29.0375 60.8238 28.9056 60.0946C28.7344 59.1476 28.3123 58.1566 27.7017 57.3545C26.8828 56.279 26.0477 55.9231 25.4475 55.9231H16.4129C10.4189 55.9231 6.80817 50.9899 6.68634 45.8222C3.6492 44.5236 1.5 41.4997 1.5 38C1.5 34.6374 3.48431 31.7143 6.33237 30.3389C6.55604 30.2309 6.68315 30.0263 6.68315 29.8268V29.1002C6.68315 26.4276 7.57666 23.9216 9.377 22.0655C11.1875 20.1988 13.6828 19.231 16.4129 19.231H25.4475C26.6937 19.231 27.5795 18.8377 28.1141 18.3549C28.3126 18.1756 28.4958 18.0603 28.631 17.9752L28.6379 17.9708C28.8317 17.8489 28.8709 17.8145 28.9018 17.7623C28.9352 17.7059 28.9907 17.5626 28.9907 17.1618V16.2656C28.9907 15.4372 29.6623 14.7656 30.4907 14.7656H34.0676C34.8961 14.7656 35.5676 15.4372 35.5676 16.2656ZM10 41.5C11.9348 41.5 13.5 39.9348 13.5 38C13.5 36.0652 11.9348 34.5 10 34.5C8.06521 34.5 6.5 36.0652 6.5 38C6.5 39.9348 8.06521 41.5 10 41.5Z" fill="url(#paint1_linear_99_150)"/>
<path fill-rule="evenodd" clip-rule="evenodd" d="M28.7403 18.6159C25.9418 17.2225 24 14.3263 24 11C24 6.32933 27.8293 2.5 32.5 2.5C37.1707 2.5 41 6.32933 41 11C41 14.2487 39.1477 17.0871 36.4544 18.5158C36.2437 18.6276 36.1257 18.8256 36.1257 19.0179V60C36.1257 60.8284 35.4541 61.5 34.6257 61.5H30.584C29.7556 61.5 29.084 60.8284 29.084 60V19.1249C29.084 18.9277 28.9598 18.7252 28.7403 18.6159ZM32.5 14.5C34.4348 14.5 36 12.9348 36 11C36 9.0652 34.4348 7.5 32.5 7.5C30.5652 7.5 29 9.0652 29 11C29 12.9348 30.5652 14.5 32.5 14.5Z" fill="url(#paint2_linear_99_150)"/>
<defs>
<linearGradient id="paint0_linear_99_150" x1="35.1976" y1="10.6642" x2="69.7241" y2="69.2943" gradientUnits="userSpaceOnUse">
<stop stop-color="#FFCA64"/>
<stop offset="1" stop-color="#C70000"/>
</linearGradient>
<linearGradient id="paint1_linear_99_150" x1="18.5338" y1="61.5" x2="18.5338" y2="14.7656" gradientUnits="userSpaceOnUse">
<stop stop-color="#FD5900"/>
<stop offset="1" stop-color="#FFDE00"/>
</linearGradient>
<linearGradient id="paint2_linear_99_150" x1="32.2787" y1="75.5" x2="32.2787" y2="3" gradientUnits="userSpaceOnUse">
<stop offset="0.174286" stop-color="#FD3D00"/>
<stop offset="0.913169" stop-color="#FFDE00"/>
</linearGradient>
</defs>
</svg>
