<svg width="64" height="64" viewBox="0 0 64 64" fill="none" xmlns="http://www.w3.org/2000/svg">
<path opacity="0.56" d="M32 4C16.5537 4 4 16.5537 4 32C4 47.4463 16.5537 60 32 60C47.4463 60 60 47.4463 60 32C60 16.5537 47.4463 4 32 4Z" fill="url(#paint0_linear_54_106)"/>
<path d="M37.6556 53.482C37.9456 54.9157 39.6073 55.3984 40.8526 54.983C41.1967 54.8941 41.5387 54.7983 41.8786 54.6959V50.1241C41.7113 46.9084 42.358 43.5507 41.1906 40.4664C44.7816 38.7854 47.919 35.7757 49.086 31.89C50.1193 28.671 49.588 25.081 47.8816 22.1949C48.417 19.4922 48.6993 16.7071 48.402 13.9595C48.3313 12.6268 46.852 11.6648 45.6106 12.1102C42.8336 12.8664 40.0496 13.7236 37.5293 15.1461C34.8566 14.5809 32.0875 14.5809 29.4074 15.1012C26.8426 13.6825 24.0064 12.8477 21.1888 12.114C20.0142 11.691 18.6202 12.5295 18.4344 13.7686C18.0701 16.6697 18.3452 19.6082 18.7095 22.4981C17.1074 25.3131 16.691 28.783 17.6687 31.879C18.8358 35.7384 21.9322 38.789 25.5379 40.4177C25.1476 41.6904 24.8613 42.993 24.8576 44.3294C22.4229 44.5017 19.386 43.985 18.2225 41.5294C17.0405 39.3134 14.2043 39.1597 12 39.0924C13.9106 40.425 15.457 42.2407 16.5981 44.2694C17.0405 45.0407 17.3824 45.9427 18.1816 46.4221C20.2 47.717 22.6311 48.0317 24.9394 48.4584C24.9691 50.0304 24.9208 51.6027 25.01 53.171C25.0695 54.2157 26.0322 55.1027 27.0693 55.0767C28.125 55.159 29.1695 54.298 29.2327 53.2237C29.3591 49.8694 29.0357 46.4967 29.2662 43.15C29.3368 41.5517 31.2288 40.702 31.0095 39.066C30.9277 38.089 30.0914 37.3817 29.1881 37.1757C26.3556 36.3297 23.6681 34.5404 22.2816 31.849C21.1553 29.7154 21.1628 27.0238 22.3374 24.9125C22.7054 24.1788 23.3299 23.4451 23.118 22.5655C22.7872 20.7387 22.6348 18.8857 22.5567 17.029C23.9283 17.4333 25.2925 17.89 26.5787 18.5264C27.4448 18.9531 28.2142 19.9189 29.2848 19.6045C31.6563 19.0242 34.1468 18.8221 36.537 19.4135C37.4736 19.6269 38.615 20.0424 39.4176 19.2676C40.7746 18.0959 42.555 17.6542 44.198 17.0552C44.1236 18.9119 43.7593 20.7275 43.4136 22.543C43.4843 24.0778 44.893 25.1446 45.09 26.6757C46.0566 30.273 43.819 33.9267 40.793 35.7234C39.6443 36.4907 38.3213 36.91 37.0313 37.374C35.749 37.827 35.2916 39.669 36.2023 40.6797C36.8566 41.492 37.4663 42.3977 37.537 43.476C37.693 46.8074 37.4476 50.1577 37.6556 53.482Z" fill="url(#paint1_linear_54_106)"/>
<defs>
<linearGradient id="paint0_linear_54_106" x1="32" y1="60" x2="32" y2="4" gradientUnits="userSpaceOnUse">
<stop stop-color="#A93AFF"/>
<stop offset="1" stop-color="#FF81FF"/>
</linearGradient>
<linearGradient id="paint1_linear_54_106" x1="30.8064" y1="55.1265" x2="30.8064" y2="12" gradientUnits="userSpaceOnUse">
<stop stop-color="#A93AFF"/>
<stop offset="1" stop-color="#FF81FF"/>
</linearGradient>
</defs>
</svg>
