<svg width="64" height="64" viewBox="0 0 64 64" fill="none" xmlns="http://www.w3.org/2000/svg">
<rect opacity="0.4" x="4" y="4" width="56" height="56" rx="12" fill="url(#paint0_linear_69_410)"/>
<path d="M42.9863 50.1721V50.1721C42.9487 50.2624 42.9459 50.3634 42.9785 50.4555V50.4555L43.9445 53.188C43.9445 53.1879 43.9446 53.1881 43.9445 53.188C44.1265 53.7033 43.8665 54.2573 43.3934 54.4355C42.9318 54.6102 42.3947 54.3705 42.2143 53.859L36.7999 38.5468V38.5468C36.743 38.386 36.5891 38.2799 36.4185 38.284V38.284L33.4891 38.3546V38.3546C33.2713 38.3598 33.099 38.5407 33.1042 38.7584V38.7584L33.1371 40.1218C33.1502 40.6704 32.7352 41.1009 32.2377 41.1129C31.7401 41.1249 31.3048 40.7148 31.2915 40.1662L31.2587 38.8029V38.8029C31.2535 38.5851 31.0727 38.4127 30.8549 38.418V38.418L27.9255 38.4885V38.4885C27.7549 38.4926 27.6063 38.606 27.5572 38.7694V38.7694L22.8862 54.3242C22.7306 54.8437 22.2062 55.1096 21.7368 54.9573C21.2556 54.802 20.9687 54.2612 21.1255 53.7377L21.959 50.9617V50.9617C21.9872 50.8681 21.9795 50.7674 21.9376 50.679V50.679C19.8308 46.244 19.4121 41.0558 20.8288 36.3405L26.7514 16.6163V16.6163C26.7634 16.5764 26.769 16.5349 26.768 16.4933V16.4933L26.7494 15.7216C26.7362 15.1729 27.1513 14.7424 27.6488 14.7304L30.283 14.667V14.667C30.5008 14.6618 30.6731 14.4809 30.6679 14.2631V14.2631L30.565 9.99143C30.5518 9.44275 30.967 9.01224 31.4644 9.00026C31.9619 8.98828 32.3973 9.39831 32.4105 9.94699L32.5134 14.2187V14.2187C32.5186 14.4365 32.6994 14.6088 32.9172 14.6036V14.6036L35.5514 14.5401C36.0489 14.5282 36.4843 14.9382 36.4975 15.4869L36.5161 16.2586V16.2586C36.5171 16.3002 36.5247 16.3414 36.5386 16.3806V16.3806L43.4036 35.7968C45.0455 40.4384 44.8771 45.6407 42.9863 50.1721ZM29.0126 16.6366V16.6366C28.7948 16.6419 28.6225 16.8227 28.6277 17.0405V17.0405L28.6934 19.7671C28.7345 21.4751 30.1144 22.8557 31.7971 22.8152C33.4797 22.7747 34.7916 21.3292 34.7505 19.6213L34.6848 16.8947V16.8947C34.6796 16.6769 34.4988 16.5045 34.281 16.5097V16.5097L29.0126 16.6366ZM22.4598 46.754V46.754C22.5619 47.1386 23.1045 47.1473 23.2189 46.7662V46.7662L29.8433 24.7066V24.7066C29.8986 24.5226 29.8132 24.3255 29.6411 24.24V24.24C28.8193 23.8315 28.1255 23.2002 27.6342 22.4071V22.4071C27.4551 22.1181 27.0188 22.1758 26.9211 22.5014V22.5014L22.5894 36.9268C21.63 40.1216 21.6105 43.5526 22.4598 46.754ZM28.3824 36.0213V36.0213C28.3053 36.2783 28.5015 36.5356 28.7697 36.5292V36.5292L35.481 36.3676V36.3676C35.7492 36.3611 35.9328 36.0946 35.8434 35.8417V35.8417L32.2405 25.6525V25.6525C32.1133 25.2929 31.6005 25.3052 31.4908 25.6706V25.6706L28.3824 36.0213ZM34.0191 24.1344V24.1344C33.8514 24.2282 33.7755 24.4291 33.8395 24.6103V24.6103L41.4155 46.0357C41.4721 46.1959 41.6478 46.2798 41.808 46.2232V46.2232C41.8616 46.2042 41.9194 46.2005 41.975 46.2124V46.2124C42.141 46.248 42.3048 46.1423 42.3376 45.9756C42.9576 42.8265 42.7508 39.515 41.6732 36.4672L36.6523 22.267V22.267C36.539 21.9465 36.1004 21.9099 35.9355 22.2072V22.2072C35.4829 23.023 34.8204 23.6868 34.0191 24.1344Z" fill="url(#paint1_linear_69_410)"/>
<path d="M43.9445 53.188L42.9785 50.4555V50.4555C42.9459 50.3634 42.9487 50.2624 42.9863 50.1721V50.1721C44.8771 45.6407 45.0455 40.4384 43.4036 35.7968L36.5386 16.3806V16.3806C36.5247 16.3414 36.5171 16.3002 36.5161 16.2586V16.2586L36.4975 15.4869C36.4843 14.9382 36.0489 14.5282 35.5514 14.5401L32.9172 14.6036V14.6036C32.6994 14.6088 32.5186 14.4365 32.5134 14.2187V14.2187L32.4105 9.94699C32.3973 9.39831 31.9619 8.98828 31.4644 9.00026C30.967 9.01224 30.5518 9.44275 30.565 9.99143L30.6679 14.2631V14.2631C30.6731 14.4809 30.5008 14.6618 30.283 14.667V14.667L27.6488 14.7304C27.1513 14.7424 26.7362 15.1729 26.7494 15.7216L26.768 16.4933V16.4933C26.769 16.5349 26.7634 16.5764 26.7514 16.6163V16.6163L20.8288 36.3405C19.4121 41.0558 19.8308 46.244 21.9376 50.679V50.679C21.9795 50.7674 21.9872 50.8681 21.959 50.9617V50.9617L21.1255 53.7377C20.9687 54.2612 21.2556 54.802 21.7368 54.9573C22.2062 55.1096 22.7306 54.8437 22.8862 54.3242L27.5572 38.7694V38.7694C27.6063 38.606 27.7549 38.4926 27.9255 38.4885V38.4885L30.8549 38.418V38.418C31.0727 38.4127 31.2535 38.5851 31.2587 38.8029V38.8029L31.2915 40.1662C31.3048 40.7148 31.7401 41.1249 32.2377 41.1129C32.7352 41.1009 33.1502 40.6704 33.1371 40.1218L33.1042 38.7584V38.7584C33.099 38.5407 33.2713 38.3598 33.4891 38.3546V38.3546L36.4185 38.284V38.284C36.5891 38.2799 36.743 38.386 36.7999 38.5468V38.5468L42.2143 53.859C42.3947 54.3705 42.9318 54.6102 43.3934 54.4355C43.8665 54.2573 44.1265 53.7033 43.9445 53.188ZM43.9445 53.188C43.9446 53.1881 43.9445 53.1879 43.9445 53.188ZM29.0126 16.6366V16.6366C28.7948 16.6419 28.6225 16.8227 28.6277 17.0405V17.0405L28.6934 19.7671C28.7345 21.4751 30.1144 22.8557 31.7971 22.8152C33.4797 22.7747 34.7916 21.3292 34.7505 19.6213L34.6848 16.8947V16.8947C34.6796 16.6769 34.4988 16.5045 34.281 16.5097V16.5097L29.0126 16.6366ZM22.4598 46.754V46.754C22.5619 47.1386 23.1045 47.1473 23.2189 46.7662V46.7662L29.8433 24.7066V24.7066C29.8986 24.5226 29.8132 24.3255 29.6411 24.24V24.24C28.8193 23.8315 28.1255 23.2002 27.6342 22.4071V22.4071C27.4551 22.1181 27.0188 22.1758 26.9211 22.5014V22.5014L22.5894 36.9268C21.63 40.1216 21.6105 43.5526 22.4598 46.754ZM28.3824 36.0213V36.0213C28.3053 36.2783 28.5015 36.5356 28.7697 36.5292V36.5292L35.481 36.3676V36.3676C35.7492 36.3611 35.9328 36.0946 35.8434 35.8417V35.8417L32.2405 25.6525V25.6525C32.1133 25.2929 31.6005 25.3052 31.4908 25.6706V25.6706L28.3824 36.0213ZM34.0191 24.1344V24.1344C33.8514 24.2282 33.7755 24.4291 33.8395 24.6103V24.6103L41.4155 46.0357C41.4721 46.1959 41.6478 46.2798 41.808 46.2232V46.2232C41.8616 46.2042 41.9194 46.2005 41.975 46.2124V46.2124C42.141 46.248 42.3048 46.1423 42.3376 45.9756C42.9576 42.8265 42.7508 39.515 41.6732 36.4672L36.6523 22.267V22.267C36.539 21.9465 36.1004 21.9099 35.9355 22.2072V22.2072C35.4829 23.023 34.8204 23.6868 34.0191 24.1344Z" stroke="url(#paint2_linear_69_410)"/>
<defs>
<linearGradient id="paint0_linear_69_410" x1="32.71" y1="60.1713" x2="31.9823" y2="3.49672" gradientUnits="userSpaceOnUse">
<stop stop-color="#FD5900"/>
<stop offset="1" stop-color="#FFDE00"/>
</linearGradient>
<linearGradient id="paint1_linear_69_410" x1="32.5754" y1="55.1407" x2="31.4549" y2="8.6059" gradientUnits="userSpaceOnUse">
<stop stop-color="#FD5900"/>
<stop offset="1" stop-color="#FFDE00"/>
</linearGradient>
<linearGradient id="paint2_linear_69_410" x1="32.5754" y1="55.1407" x2="31.4549" y2="8.6059" gradientUnits="userSpaceOnUse">
<stop stop-color="#FD5900"/>
<stop offset="1" stop-color="#FFDE00"/>
</linearGradient>
</defs>
</svg>
