<svg width="24" height="24" viewBox="0 0 24 24" fill="none" xmlns="http://www.w3.org/2000/svg">
<path opacity="0.5" d="M1 12C1 6.8146 1 4.2219 2.6104 2.6104C4.223 1 6.8146 1 12 1C17.1854 1 19.7781 1 21.3885 2.6104C23 4.223 23 6.8146 23 12C23 17.1854 23 19.7781 21.3885 21.3885C19.7792 23 17.1854 23 12 23C6.8146 23 4.2219 23 2.6104 21.3885C1 19.7792 1 17.1854 1 12Z" fill="url(#paint0_linear_8_1026)"/>
<path d="M18.1337 10.328C18.2675 10.1593 18.3301 9.94491 18.308 9.73066C18.286 9.51642 18.181 9.31931 18.0155 9.18143C17.8501 9.04355 17.6373 8.97584 17.4225 8.99276C17.2078 9.00969 17.0083 9.1099 16.8665 9.272L14.8898 11.6436C14.4828 12.1331 14.2309 12.4312 14.0252 12.6171C13.9716 12.6696 13.9113 12.7148 13.8459 12.7513L13.8338 12.7568L13.825 12.7524L13.8217 12.7513C13.7558 12.7148 13.6951 12.6697 13.6413 12.6171C13.4356 12.4301 13.1848 12.1331 12.7767 11.6436L12.4555 11.2586C12.0936 10.8241 11.768 10.4336 11.4644 10.1586C11.1333 9.8594 10.7164 9.5932 10.1664 9.5932C9.61635 9.5932 9.20055 9.8594 8.86835 10.1586C8.56475 10.4336 8.23915 10.8241 7.87835 11.2586L5.86535 13.672C5.79601 13.7553 5.74376 13.8514 5.71157 13.9549C5.67938 14.0583 5.66788 14.1671 5.67774 14.2751C5.69764 14.493 5.80331 14.6941 5.9715 14.8342C6.13969 14.9742 6.35662 15.0417 6.57456 15.0218C6.79251 15.0019 6.99362 14.8962 7.13365 14.728L9.11035 12.3564C9.51735 11.8669 9.76925 11.5688 9.97495 11.3829C10.0285 11.3304 10.0888 11.2853 10.1543 11.2487L10.162 11.2454L10.1664 11.2443C10.1697 11.2443 10.173 11.2465 10.1785 11.2487C10.2443 11.2852 10.305 11.3303 10.3589 11.3829C10.5646 11.5699 10.8154 11.8669 11.2235 12.3564L11.5447 12.7414C11.9066 13.1759 12.2322 13.5664 12.5358 13.8414C12.8669 14.1406 13.2838 14.4068 13.8338 14.4068C14.3838 14.4068 14.7996 14.1406 15.1318 13.8414C15.4354 13.5664 15.761 13.1759 16.1218 12.7414L18.1337 10.328ZM23.0001 4.3C23.0001 5.17521 22.6524 6.01458 22.0335 6.63345C21.4146 7.25232 20.5753 7.6 19.7001 7.6C18.8248 7.6 17.9855 7.25232 17.3666 6.63345C16.7477 6.01458 16.4001 5.17521 16.4001 4.3C16.4001 3.42479 16.7477 2.58542 17.3666 1.96655C17.9855 1.34768 18.8248 1 19.7001 1C20.5753 1 21.4146 1.34768 22.0335 1.96655C22.6524 2.58542 23.0001 3.42479 23.0001 4.3Z" fill="url(#paint1_linear_8_1026)"/>
<defs>
<linearGradient id="paint0_linear_8_1026" x1="12" y1="1" x2="12" y2="23" gradientUnits="userSpaceOnUse">
<stop stop-color="#DC18FC"/>
<stop offset="1" stop-color="#8E1EFF"/>
</linearGradient>
<linearGradient id="paint1_linear_8_1026" x1="14.3372" y1="1" x2="14.3372" y2="15.0252" gradientUnits="userSpaceOnUse">
<stop stop-color="#DC18FC"/>
<stop offset="1" stop-color="#8E1EFF"/>
</linearGradient>
</defs>
</svg>
