<svg width="128" height="128" viewBox="0 0 128 128" fill="none" xmlns="http://www.w3.org/2000/svg">
<path opacity="0.4" d="M63.9347 119.869C33.2513 119.869 8 94.618 8 63.9347C8 33.2513 33.2513 8 63.9347 8C94.618 8 119.869 33.2513 119.869 63.9347C119.864 75.0584 116.518 85.8959 110.308 95.06C109.178 96.7274 109.308 98.9802 110.732 100.404L117.863 107.535C119.23 108.903 120 110.76 120 112.697C120 116.705 116.705 120 112.697 120C110.76 120 108.903 119.23 107.535 117.863L100.404 110.732C98.9802 109.308 96.7274 109.178 95.06 110.308C85.8959 116.518 75.0584 119.864 63.9347 119.869Z" fill="url(#paint0_linear_80_138)"/>
<path fill-rule="evenodd" clip-rule="evenodd" d="M26.0546 103.913C14.7484 94.9709 8 78.4387 8 63.0172C8 57.8686 8.80707 52.9063 10.303 48.2468C10.2366 48.4594 10.1715 48.6724 10.108 48.8858C9.26303 51.7219 11.5177 54.4026 14.477 54.4026H37.7867C40.4159 54.4026 42.5475 56.5341 42.5475 59.1634V63.2997C42.5475 65.9291 40.4159 68.0605 37.7867 68.0605H13.6094C10.7872 68.0605 8.56606 70.5098 9.15735 73.2692C9.55333 75.1177 10.0564 76.9426 10.6635 78.7348C11.2822 80.5614 12.5485 84.5 14.477 84.5H30.468C33.0974 84.5 35.2288 86.6314 35.2288 89.2608V93.3915C35.2288 96.0209 33.0974 98.1523 30.468 98.1523H30.084C26.6767 98.1523 24.7144 101.4 26.0546 103.913ZM10.7826 46.8296C13.861 38.1777 18.9679 28.6416 26.0546 23C24.9692 25.4729 27.2824 30.5082 30.5763 30.5082H44.6128C47.2421 30.5082 49.3736 32.6397 49.3736 35.269V39.3998C49.3736 42.0291 47.2421 44.1606 44.6128 44.1606H14.9674C13.1521 44.1606 11.4872 45.1856 10.7826 46.8296ZM47.3082 95.3707C44.6789 95.3707 42.5475 93.2393 42.5475 90.6099V86.4792C42.5475 83.8498 44.6789 81.7184 47.3082 81.7184H78.7548C81.384 81.7184 83.5155 83.8498 83.5155 86.4792V90.6099C83.5155 93.2393 81.384 95.3707 78.7548 95.3707H47.3082ZM81.4502 68.0605C78.8208 68.0605 76.6894 65.9291 76.6894 63.2997V59.1634C76.6894 56.5341 78.8208 54.4026 81.4502 54.4026H99.2389C101.868 54.4026 104 56.5341 104 59.1634V63.2997C104 65.9291 101.868 68.0605 99.2389 68.0605H81.4502ZM54.1344 68.0605C51.5051 68.0605 49.3736 65.9291 49.3736 63.2997V59.1634C49.3736 56.5341 51.5051 54.4026 54.1344 54.4026H61.6865C64.3159 54.4026 66.4473 56.5341 66.4473 59.1634V63.2997C66.4473 65.9291 64.3159 68.0605 61.6865 68.0605H54.1344ZM64.3764 44.1606C61.7471 44.1606 59.6156 42.0291 59.6156 39.3998V35.269C59.6156 32.6397 61.7471 30.5082 64.3764 30.5082H82.1706C84.7999 30.5082 86.9314 32.6397 86.9314 35.269V39.3998C86.9314 42.0291 84.7999 44.1606 82.1706 44.1606H64.3764Z" fill="url(#paint1_linear_80_138)"/>
<defs>
<linearGradient id="paint0_linear_80_138" x1="8" y1="64" x2="120" y2="64" gradientUnits="userSpaceOnUse">
<stop stop-color="#02AA93"/>
<stop offset="1" stop-color="#67FF80"/>
</linearGradient>
<linearGradient id="paint1_linear_80_138" x1="8" y1="63.0659" x2="104" y2="63.0659" gradientUnits="userSpaceOnUse">
<stop stop-color="#02AA93"/>
<stop offset="1" stop-color="#67FF80"/>
</linearGradient>
</defs>
</svg>
