<svg width="128" height="128" viewBox="0 0 128 128" fill="none" xmlns="http://www.w3.org/2000/svg">
<path d="M8.0295 14.2761C7.65956 10.8943 10.8279 7.67317 14.2295 8.02664C27.6587 8.0346 41.0959 8.0346 54.5251 8.02664C57.5487 7.73747 60.8377 10.3481 60.6125 13.497C60.5966 21.9869 60.6201 30.4845 60.5971 38.9746C60.5966 39.1687 60.6151 39.3629 60.6237 39.5567C60.703 41.3558 59.0576 42.5706 57.6372 43.3868C54.887 44.5596 51.4694 42.1257 51.5739 39.1696C51.5542 33.1932 51.5398 27.2166 51.5703 21.2401C51.5816 19.0216 49.7924 17.2109 47.5739 17.2065C38.7763 17.1888 29.9787 17.193 21.181 17.2084C18.9686 17.2122 17.1804 19.0121 17.1878 21.2245C17.2173 30.0099 17.2209 38.7994 17.1841 47.5894C17.1749 49.7918 18.9449 51.5902 21.1474 51.5938C27.1236 51.6034 33.1033 51.5299 39.0775 51.6285C41.9805 51.5964 44.3607 54.9782 43.1787 57.6772C42.3343 59.0829 41.128 60.7858 39.2625 60.5931C30.6581 60.6573 22.0538 60.6091 13.4495 60.6091C10.3053 60.8341 7.74005 57.5165 8.03759 54.5283C8.06168 41.1056 8.06168 27.6909 8.0295 14.2761Z" fill="url(#paint0_linear_204_109)"/>
<path opacity="0.4" d="M70.1641 8.37797C71.3083 7.93563 72.5727 8.04824 73.773 8C87.2413 8.0643 100.702 7.96782 114.162 8.05627C116.989 8.04824 119.397 10.6779 119.293 13.4684C119.325 27.421 119.35 41.3736 119.285 55.326C119.325 58.4061 116.321 60.9473 113.283 60.5935C99.5978 60.5854 85.9122 60.6337 72.2266 60.5774C69.3666 60.7302 66.7332 58.1809 66.7568 55.326C66.684 41.6228 66.7568 27.9196 66.7251 14.2163C66.4917 11.7796 67.8363 9.27862 70.1641 8.37797Z" fill="url(#paint1_linear_204_109)"/>
<path d="M86.053 68.7369C86.883 67.9825 87.9512 67.4926 89.0726 67.4704C97.1751 67.3102 105.289 67.3838 113.399 67.4426C114.402 67.4499 115.368 67.8341 116.171 68.4346C117.684 69.5644 119.343 70.7089 119.268 72.7284C119.325 86.7048 119.285 100.698 119.293 114.675C119.537 116.414 118.352 117.586 117.145 118.683C116.345 119.412 115.304 119.854 114.222 119.867C100.062 120.038 85.888 120.052 71.7209 119.86C70.6977 119.846 69.7086 119.451 68.9643 118.749C67.7789 117.631 66.6573 116.393 66.7176 114.691C66.6859 106.21 66.7014 97.7307 66.7095 89.2511C66.694 86.6926 69.2354 84.5049 71.8008 84.8786C72.0317 84.9123 72.2639 84.9454 72.4942 84.9825C74.4928 85.3042 75.8525 87.3386 75.8449 89.2673C75.8773 95.13 75.8569 100.987 75.8526 106.847C75.851 109.055 77.6411 110.843 79.8485 110.843C88.643 110.844 97.4332 110.848 106.227 110.84C108.434 110.838 110.222 109.048 110.22 106.841C110.213 98.232 110.19 89.6193 110.225 81.0105C110.234 78.802 108.456 76.9996 106.248 76.9941C100.504 76.9799 94.7603 77.009 89.0164 76.9959C85.9694 77.282 83.0817 74.0218 84.1437 71.095C84.5423 70.1322 85.2915 69.429 86.053 68.7369Z" fill="url(#paint2_linear_204_109)"/>
<path opacity="0.4" d="M11.3071 67.8714C12.4834 67.3735 13.7967 67.4052 15.0457 67.3735C28.2111 67.4052 41.3766 67.3573 54.5421 67.3971C57.7569 67.0921 60.8186 69.8328 60.6011 73.0875C60.6253 86.7569 60.6091 100.427 60.6091 114.088C60.8589 117.078 58.3773 119.995 55.3156 119.963C41.3686 120.019 27.4135 120.003 13.4665 119.97C10.3563 120.075 7.74585 117.15 8.01977 114.104C8.01977 100.411 7.99562 86.7164 8.0359 73.0227C7.93922 70.8455 9.27667 68.7074 11.3071 67.8714Z" fill="url(#paint3_linear_204_109)"/>
<defs>
<linearGradient id="paint0_linear_204_109" x1="34.3133" y1="60.6266" x2="34.3133" y2="7.99984" gradientUnits="userSpaceOnUse">
<stop stop-color="#5570FF"/>
<stop offset="1" stop-color="#4DD3FF"/>
</linearGradient>
<linearGradient id="paint1_linear_204_109" x1="93.0123" y1="60.6265" x2="93.0123" y2="8" gradientUnits="userSpaceOnUse">
<stop stop-color="#FDA700"/>
<stop offset="1" stop-color="#FFDE00"/>
</linearGradient>
<linearGradient id="paint2_linear_204_109" x1="93.0119" y1="120" x2="93.0119" y2="67.3734" gradientUnits="userSpaceOnUse">
<stop stop-color="#5570FF"/>
<stop offset="1" stop-color="#4DD3FF"/>
</linearGradient>
<linearGradient id="paint3_linear_204_109" x1="34.3132" y1="120" x2="34.3132" y2="67.3735" gradientUnits="userSpaceOnUse">
<stop stop-color="#FDA700"/>
<stop offset="1" stop-color="#FFDE00"/>
</linearGradient>
</defs>
</svg>
