<svg width="64" height="64" viewBox="0 0 64 64" fill="none" xmlns="http://www.w3.org/2000/svg">
<g opacity="0.4">
<path d="M51.386 4H12.614C7.85661 4 4 7.84875 4 12.5965V51.2903C4 56.0381 7.85661 59.8868 12.614 59.8868H51.386C56.1434 59.8868 60 56.0381 60 51.2903V12.5965C60 7.84875 56.1434 4 51.386 4Z" fill="url(#paint0_linear_204_93)"/>
</g>
<path d="M12.6167 19.7359C12.6167 18.6313 13.5121 17.7359 14.6167 17.7359H50.4523C51.5568 17.7359 52.4522 18.6313 52.4522 19.7359V39.9166C52.4522 41.0211 51.5568 41.9166 50.4522 41.9166H48.383C47.2784 41.9166 46.383 41.0211 46.383 39.9166V25.4198C46.383 24.3152 45.4876 23.4198 44.383 23.4198H20.4451C19.3405 23.4198 18.4451 24.3152 18.4451 25.4198V40.1574C18.4451 41.262 17.5497 42.1574 16.4451 42.1574H14.6167C13.5121 42.1574 12.6167 41.262 12.6167 40.1574V19.7359ZM15.6513 35.776C15.6513 34.6715 16.5468 33.776 17.6513 33.776H47.7548C48.8594 33.776 49.7548 34.6715 49.7548 35.776V37.46C49.7548 38.5645 48.8594 39.46 47.7548 39.46H17.6513C16.5468 39.46 15.6513 38.5645 15.6513 37.46V35.776ZM29.3313 11.3545C29.3313 10.2499 30.2267 9.35449 31.3313 9.35449H33.4487C34.5533 9.35449 35.4487 10.2499 35.4487 11.3545V52.5849C35.4487 53.6895 34.5533 54.5849 33.4487 54.5849H31.3313C30.2267 54.5849 29.3313 53.6895 29.3313 52.5849V11.3545Z" fill="url(#paint1_linear_204_93)"/>
<defs>
<linearGradient id="paint0_linear_204_93" x1="14.3734" y1="-6.47878" x2="55.0923" y2="79.9288" gradientUnits="userSpaceOnUse">
<stop stop-color="#FFCA64"/>
<stop offset="1" stop-color="#C70000"/>
</linearGradient>
<linearGradient id="paint1_linear_204_93" x1="19.9958" y1="0.873784" x2="55.5852" y2="67.2539" gradientUnits="userSpaceOnUse">
<stop stop-color="#FFCA64"/>
<stop offset="1" stop-color="#C70000"/>
</linearGradient>
</defs>
</svg>
