<svg width="24" height="24" viewBox="0 0 24 24" fill="none" xmlns="http://www.w3.org/2000/svg">
<path opacity="0.4" d="M2.6104 21.3885C4.223 23 6.8146 23 12 23C17.1854 23 19.7781 23 21.3885 21.3885C23 19.7792 23 17.1854 23 12C23 6.8146 23 4.2219 21.3885 2.6104C19.7792 1 17.1854 1 12 1C6.8146 1 4.2219 1 2.6104 2.6104C1 4.223 1 6.8146 1 12C1 17.1854 1 19.7781 2.6104 21.3885Z" fill="url(#paint0_linear_8_253)"/>
<path d="M20.5663 8.11212C20.6508 8.01305 20.7146 7.89811 20.754 7.77405C20.7935 7.64998 20.8078 7.51929 20.796 7.38964C20.7843 7.25999 20.7468 7.13398 20.6857 7.01902C20.6246 6.90405 20.5412 6.80244 20.4403 6.72015C20.3395 6.63785 20.2232 6.57653 20.0983 6.53978C19.9734 6.50302 19.8424 6.49158 19.7131 6.50611C19.5837 6.52065 19.4585 6.56087 19.3449 6.62442C19.2313 6.68798 19.1315 6.77358 19.0514 6.8762L12.3139 15.1286C12.1211 15.0595 11.9115 15.0528 11.7147 15.1093C11.5179 15.1658 11.3439 15.2828 11.2172 15.4436C11.0905 15.6045 11.0176 15.8011 11.0087 16.0057C10.9999 16.2102 11.0556 16.4124 11.1679 16.5836L11.5408 17.1546C11.6249 17.2833 11.7382 17.3904 11.8714 17.4672C12.0047 17.5439 12.1541 17.5882 12.3077 17.5963C12.4613 17.6044 12.6146 17.5762 12.7552 17.514C12.8958 17.4517 13.0197 17.3572 13.117 17.238L20.5663 8.11212ZM15.3515 8.11212C15.436 8.01305 15.4998 7.89811 15.5392 7.77405C15.5787 7.64998 15.593 7.51929 15.5812 7.38964C15.5695 7.25999 15.532 7.13398 15.4709 7.01902C15.4098 6.90405 15.3264 6.80244 15.2255 6.72015C15.1246 6.63785 15.0084 6.57653 14.8835 6.53978C14.7586 6.50302 14.6276 6.49158 14.4982 6.50611C14.3689 6.52065 14.2437 6.56087 14.1301 6.62442C14.0165 6.68798 13.9167 6.77358 13.8366 6.8762L7.14469 15.0739L4.92188 12.3518C4.75602 12.1572 4.52055 12.0353 4.26593 12.0123C4.01131 11.9893 3.75779 12.0669 3.55969 12.2285C3.36159 12.3901 3.23468 12.6229 3.20613 12.8769C3.17758 13.131 3.24968 13.3861 3.40698 13.5877L6.38724 17.238C6.47894 17.3504 6.59448 17.4409 6.72548 17.5031C6.85649 17.5652 6.99968 17.5975 7.14469 17.5975C7.2897 17.5975 7.4329 17.5652 7.5639 17.5031C7.69491 17.4409 7.81045 17.3504 7.90214 17.238L15.3515 8.11212Z" fill="url(#paint1_linear_8_253)" stroke="url(#paint2_linear_8_253)" stroke-width="0.6"/>
<defs>
<linearGradient id="paint0_linear_8_253" x1="19.0187" y1="1" x2="0.999981" y2="23.0001" gradientUnits="userSpaceOnUse">
<stop stop-color="#DE00C0"/>
<stop offset="1" stop-color="#8720FF"/>
</linearGradient>
<linearGradient id="paint1_linear_8_253" x1="17.615" y1="6.5" x2="10.0553" y2="21.138" gradientUnits="userSpaceOnUse">
<stop stop-color="#DE00C0"/>
<stop offset="1" stop-color="#8720FF"/>
</linearGradient>
<linearGradient id="paint2_linear_8_253" x1="17.615" y1="6.5" x2="10.0553" y2="21.138" gradientUnits="userSpaceOnUse">
<stop stop-color="#DE00C0"/>
<stop offset="1" stop-color="#8720FF"/>
</linearGradient>
</defs>
</svg>
