<svg width="128" height="128" viewBox="0 0 128 128" fill="none" xmlns="http://www.w3.org/2000/svg">
<rect opacity="0.4" x="6" y="6" width="116" height="116" rx="18" fill="url(#paint0_linear_37_287)"/>
<path d="M97.3177 89.217C99.3467 85.9405 100.488 82.1112 100.234 77.8992C99.6842 68.7518 92.458 61.008 83.4563 60.0296C80.791 59.7176 78.0905 59.9764 75.5324 60.7898C72.9739 61.6033 70.615 62.9524 68.6114 64.7486C66.6078 66.5447 65.0041 68.7475 63.9061 71.2118C62.8081 73.6766 62.2407 76.347 62.2407 79.0483C62.2407 89.6421 70.7354 98.1946 81.2161 98.1946C84.9353 98.1946 88.4007 97.088 91.3167 95.2157L101.502 105.469C103.151 107.129 105.855 107.129 107.503 105.469C109.151 103.81 109.151 101.087 107.503 99.428L97.3177 89.217ZM81.2585 89.685C78.4566 89.685 75.769 88.5642 73.7877 86.5692C71.806 84.5747 70.693 81.8691 70.693 79.0483C70.693 76.2269 71.806 73.5214 73.7877 71.5268C75.769 69.5318 78.4566 68.4112 81.2585 68.4112C84.0606 68.4112 86.7481 69.5318 88.7294 71.5268C90.7107 73.5214 91.8241 76.2269 91.8241 79.0483C91.8241 81.8691 90.7107 84.5747 88.7294 86.5692C86.7481 88.5642 84.0606 89.685 81.2585 89.685ZM79.7371 53.5199C76.6099 53.605 73.609 54.2857 70.8623 55.4344L68.5377 51.9031L55.521 73.2192C55.1732 73.7901 54.6965 74.2702 54.1296 74.6207C53.5627 74.9713 52.9216 75.1816 52.2585 75.2356C51.5954 75.2896 50.9291 75.1851 50.3137 74.931C49.6982 74.6764 49.1511 74.2796 48.7169 73.7721L39.7573 63.2631L26.8252 84.111C25.5151 86.196 22.7258 86.7493 20.7395 85.3024C18.9645 83.9837 18.4573 81.516 19.6407 79.6011L35.6157 53.8603C37.1371 51.4351 40.5603 51.1798 42.4199 53.3497L51.3371 63.8164L64.7766 41.8195C65.146 41.2116 65.6615 40.7073 66.2761 40.3533C66.8907 39.9994 67.5837 39.8071 68.2917 39.7944C68.9992 39.7817 69.6992 39.9489 70.3257 40.2805C70.9523 40.6122 71.4854 41.0976 71.8763 41.6918L79.7371 53.5199ZM90.6828 55.6474C87.9782 54.4559 85.0622 53.7326 82.0193 53.5625L101.206 22.9711C102.516 20.8864 105.306 20.3758 107.25 21.8224C109.067 23.1413 109.532 25.6516 108.348 27.5237L90.6828 55.6474Z" fill="url(#paint1_linear_37_287)" stroke="url(#paint2_linear_37_287)" stroke-width="3"/>
<defs>
<linearGradient id="paint0_linear_37_287" x1="64" y1="122" x2="64" y2="6" gradientUnits="userSpaceOnUse">
<stop stop-color="#FD5900"/>
<stop offset="1" stop-color="#FFDE00"/>
</linearGradient>
<linearGradient id="paint1_linear_37_287" x1="64" y1="106.714" x2="64" y2="21" gradientUnits="userSpaceOnUse">
<stop stop-color="#FD5900"/>
<stop offset="1" stop-color="#FFDE00"/>
</linearGradient>
<linearGradient id="paint2_linear_37_287" x1="64" y1="106.714" x2="64" y2="21" gradientUnits="userSpaceOnUse">
<stop stop-color="#FD5900"/>
<stop offset="1" stop-color="#FFDE00"/>
</linearGradient>
</defs>
</svg>
