<svg width="24" height="24" viewBox="0 0 24 24" fill="none" xmlns="http://www.w3.org/2000/svg">
<path opacity="0.45" d="M2 13.1406C2 11.9273 2 11.3201 2.4323 10.967C2.5852 10.8416 2.7711 10.7404 2.979 10.6711C3.56419 10.4764 4.33309 10.6689 5.87088 11.0517C7.04458 11.3454 7.63087 11.4917 8.22487 11.4763C8.44267 11.4708 8.65937 11.4488 8.87167 11.4114C9.44917 11.3091 9.96396 11.0528 10.9936 10.5391L12.5138 9.78013C13.8337 9.12123 14.4926 8.79233 15.2494 8.71643C16.0062 8.64053 16.7586 8.82863 18.2623 9.20373L19.5438 9.52273C20.6328 9.79443 21.1773 9.93083 21.4886 10.2542C21.7999 10.5776 21.7999 11.0077 21.7999 11.8668V18.5592C21.7999 19.7725 21.7999 20.3797 21.3676 20.7328C21.2049 20.8638 21.0196 20.9641 20.8209 21.0287C20.2357 21.2234 19.4668 21.032 17.929 20.6481C16.7553 20.3544 16.169 20.2081 15.575 20.2235C15.3581 20.2289 15.1419 20.2506 14.9282 20.2884C14.3507 20.3907 13.8359 20.647 12.8064 21.1607L11.2862 21.9197C9.96616 22.5786 9.30727 22.9075 8.55047 22.9834C7.79367 23.0593 7.04128 22.8712 5.53758 22.4961L4.25609 22.1771C3.16709 21.9054 2.6226 21.769 2.3113 21.4456C2 21.1222 2 20.6921 2 19.833V13.1406Z" fill="url(#paint0_radial_8_774)"/>
<path fill-rule="evenodd" clip-rule="evenodd" d="M11.8999 1C8.25451 1 5.29993 3.80719 5.29993 7.26997C5.29993 10.7064 7.40642 14.7158 10.6932 16.1491C11.074 16.3144 11.4847 16.3997 11.8999 16.3997C12.315 16.3997 12.7258 16.3144 13.1066 16.1491C16.3934 14.7169 18.4999 10.7064 18.4999 7.26997C18.4999 3.80719 15.5453 1 11.8999 1ZM11.8999 9.79996C12.4834 9.79996 13.0429 9.56817 13.4555 9.1556C13.8681 8.74302 14.0999 8.18344 14.0999 7.59997C14.0999 7.0165 13.8681 6.45692 13.4555 6.04434C13.0429 5.63176 12.4834 5.39998 11.8999 5.39998C11.3164 5.39998 10.7568 5.63176 10.3443 6.04434C9.93169 6.45692 9.69991 7.0165 9.69991 7.59997C9.69991 8.18344 9.93169 8.74302 10.3443 9.1556C10.7568 9.56817 11.3164 9.79996 11.8999 9.79996Z" fill="url(#paint1_radial_8_774)"/>
<defs>
<radialGradient id="paint0_radial_8_774" cx="0" cy="0" r="1" gradientUnits="userSpaceOnUse" gradientTransform="translate(14.2226 7.73119) rotate(81.4115) scale(15.5542 14.4431)">
<stop stop-color="#FFF44F"/>
<stop offset="0.06" stop-color="#FFE847"/>
<stop offset="0.168" stop-color="#FFC830"/>
<stop offset="0.304" stop-color="#FF980E"/>
<stop offset="0.356" stop-color="#FF8B16"/>
<stop offset="0.455" stop-color="#FF672A"/>
<stop offset="0.57" stop-color="#FF3647"/>
<stop offset="0.737" stop-color="#E31587"/>
</radialGradient>
<radialGradient id="paint1_radial_8_774" cx="0" cy="0" r="1" gradientUnits="userSpaceOnUse" gradientTransform="translate(17 -5) rotate(113.499) scale(25.0799 14.618)">
<stop stop-color="#FFF44F"/>
<stop offset="0.06" stop-color="#FFE847"/>
<stop offset="0.168" stop-color="#FFC830"/>
<stop offset="0.304" stop-color="#FF980E"/>
<stop offset="0.356" stop-color="#FF8B16"/>
<stop offset="0.455" stop-color="#FF672A"/>
<stop offset="0.57" stop-color="#FF3647"/>
<stop offset="0.737" stop-color="#E31587"/>
</radialGradient>
</defs>
</svg>
