<svg width="32" height="32" viewBox="0 0 32 32" fill="none" xmlns="http://www.w3.org/2000/svg">
<path opacity="0.4" fill-rule="evenodd" clip-rule="evenodd" d="M7.83333 5H24.1667C25.7132 5.00185 27.1959 5.61703 28.2894 6.71059C29.383 7.80415 29.9981 9.28681 30 10.8333V18.8335V19H29.9614C29.6629 20.2027 28.9584 21.28 27.9544 22.0637C26.9043 22.8834 25.5908 23.3319 24.2353 23.3335H18.1765C17.6242 23.3335 17.1765 23.7812 17.1765 24.3335V24.5835C17.1765 25.1358 17.6242 25.5835 18.1765 25.5835H21.8824C22.1944 25.5835 22.4936 25.7021 22.7142 25.913C22.9349 26.124 23.0588 26.4102 23.0588 26.7085C23.0588 27.0069 22.9349 27.293 22.7142 27.504C22.4936 27.715 22.1944 27.8335 21.8824 27.8335H10.1176C9.80563 27.8335 9.50639 27.715 9.28576 27.504C9.06513 27.293 8.94118 27.0069 8.94118 26.7085C8.94118 26.4102 9.06513 26.124 9.28576 25.913C9.50639 25.7021 9.80563 25.5835 10.1176 25.5835H13.8235C14.3758 25.5835 14.8235 25.1358 14.8235 24.5835V24.3335C14.8235 23.7812 14.3758 23.3335 13.8235 23.3335H7.76471C6.40917 23.3319 5.09567 22.8834 4.04559 22.0637C3.04161 21.28 2.33713 20.2027 2.03855 19H2V18.8335V10.8333C2.00185 9.28681 2.61703 7.80415 3.71059 6.71059C4.80415 5.61703 6.28681 5.00185 7.83333 5Z" fill="url(#paint0_linear_5_77)"/>
<path d="M19.5538 12.2548V11.5222C19.5538 9.57693 17.9769 8 16.0317 8C14.0864 8 12.5095 9.57693 12.5095 11.5222V12.2548C11.5841 12.727 11.0011 13.6778 11 14.7168V17.2326C11.0017 18.7603 12.2397 19.9984 13.7674 20H18.2959C19.8236 19.9983 21.0617 18.7603 21.0633 17.2326V14.7168C21.0622 13.6778 20.4792 12.727 19.5538 12.2548ZM16.0317 9.5095C17.1432 9.5095 18.0443 10.4106 18.0443 11.5222V11.9494H14.019V11.5222C14.019 10.4106 14.9201 9.5095 16.0317 9.5095ZM19.5538 17.2326C19.5538 17.9273 18.9906 18.4905 18.2959 18.4905H13.7674C13.0727 18.4905 12.5095 17.9273 12.5095 17.2326V14.7168C12.5095 14.022 13.0727 13.4589 13.7674 13.4589H18.2959C18.9906 13.4589 19.5538 14.022 19.5538 14.7168V17.2326Z" fill="url(#paint1_linear_5_77)" stroke="url(#paint2_linear_5_77)" stroke-width="0.6"/>
<defs>
<linearGradient id="paint0_linear_5_77" x1="1.59527" y1="5.22466" x2="24.5144" y2="34.1896" gradientUnits="userSpaceOnUse">
<stop stop-color="#F9D423"/>
<stop offset="0.515624" stop-color="#FF4E50"/>
<stop offset="0.991304" stop-color="#8A2387"/>
</linearGradient>
<linearGradient id="paint1_linear_5_77" x1="10.8545" y1="8.11807" x2="23.1006" y2="18.7019" gradientUnits="userSpaceOnUse">
<stop stop-color="#F9D423"/>
<stop offset="0.515624" stop-color="#FF4E50"/>
<stop offset="0.991304" stop-color="#8A2387"/>
</linearGradient>
<linearGradient id="paint2_linear_5_77" x1="10.8545" y1="8.11807" x2="23.1006" y2="18.7019" gradientUnits="userSpaceOnUse">
<stop stop-color="#F9D423"/>
<stop offset="0.515624" stop-color="#FF4E50"/>
<stop offset="0.991304" stop-color="#8A2387"/>
</linearGradient>
</defs>
</svg>
