<svg width="64" height="64" viewBox="0 0 64 64" fill="none" xmlns="http://www.w3.org/2000/svg">
<path opacity="0.182" d="M8.37091 49.1508H7.92468V49.2182H8.37091V49.1508Z" fill="url(#paint0_linear_42_169)"/>
<path opacity="0.4" fill-rule="evenodd" clip-rule="evenodd" d="M9.50793 4C11.7687 4 13.7096 5.34509 14.5466 7.26504L49.489 7.27824C50.3298 5.36669 52.2663 4.02895 54.5208 4.02895C57.5468 4.02895 59.9997 6.43859 59.9997 9.41103C59.9997 11.6507 58.6071 13.5708 56.6261 14.3814V49.6873C58.5566 50.5197 59.905 52.4142 59.905 54.618C59.905 57.5903 57.452 60 54.4261 60C52.1685 60 50.2297 58.6587 49.3908 56.7431L14.5024 56.7632C13.6571 58.6646 11.7259 59.9934 9.47888 59.9934C6.45298 59.9934 4 57.5837 4 54.6112C4 52.3934 5.3658 50.4887 7.31629 49.6648V14.3162C5.3813 13.4858 4.02905 11.589 4.02905 9.38208C4.02905 6.40964 6.48203 4 9.50793 4Z" fill="url(#paint1_linear_42_169)"/>
<path fill-rule="evenodd" clip-rule="evenodd" d="M21.7695 40.2519V23.7081C22.6891 23.2166 23.4426 22.4635 23.9268 21.5504L39.6518 21.5854C40.0709 22.4132 40.7094 23.115 41.4926 23.6173V40.1182C40.7065 40.651 40.0752 41.3885 39.6786 42.2523L23.8761 42.2229C23.3771 41.3874 22.6459 40.7018 21.7695 40.2519ZM46.7521 23.8924V39.7149C48.517 40.5486 49.7353 42.3214 49.7353 44.3739C49.7353 47.2273 47.3805 49.5405 44.4757 49.5405C42.7139 49.5405 41.1543 48.6895 40.1999 47.383L23.9293 47.3528C23.0296 48.9324 21.31 50 19.3363 50C16.4317 50 14.0768 47.6869 14.0768 44.8334C14.0768 43.002 15.047 41.3931 16.5099 40.4757V23.572C15.0041 22.663 14 21.03 14 19.1666C14 16.3131 16.3547 14 19.2595 14C21.1398 14 22.7899 14.9693 23.7196 16.4273L39.9594 16.4633C40.8986 15.0531 42.5205 14.1213 44.364 14.1213C47.2688 14.1213 49.6236 16.4345 49.6236 19.2879C49.6236 21.2968 48.4565 23.0378 46.7521 23.8924Z" fill="url(#paint2_linear_42_169)"/>
<defs>
<linearGradient id="paint0_linear_42_169" x1="8.1478" y1="49.2182" x2="8.1478" y2="49.1508" gradientUnits="userSpaceOnUse">
<stop stop-color="#A93AFF"/>
<stop offset="1" stop-color="#FF81FF"/>
</linearGradient>
<linearGradient id="paint1_linear_42_169" x1="32" y1="60" x2="32" y2="4" gradientUnits="userSpaceOnUse">
<stop stop-color="#5570FF"/>
<stop offset="1" stop-color="#4DD3FF"/>
</linearGradient>
<linearGradient id="paint2_linear_42_169" x1="31.8677" y1="50" x2="31.8677" y2="14" gradientUnits="userSpaceOnUse">
<stop stop-color="#5570FF"/>
<stop offset="1" stop-color="#4DD3FF"/>
</linearGradient>
</defs>
</svg>
