<svg width="128" height="128" viewBox="0 0 128 128" fill="none" xmlns="http://www.w3.org/2000/svg">
<path opacity="0.4" fill-rule="evenodd" clip-rule="evenodd" d="M11.6238 13C8.50833 13 6 15.5082 6 18.6237V91.0587V91.0587C6 91.0873 6.02323 91.1105 6.05188 91.1105V91.1105V91.1105C6.18177 91.1105 6.28306 91.4306 6.21335 91.5402C6.1111 91.701 6.05188 91.8918 6.05188 92.0964V96.6307C6.05188 99.7176 8.53697 102.203 11.6238 102.203H27.302C27.8751 102.203 28.3396 102.668 28.3396 103.24V114.647C28.3396 115.16 30.8342 115.576 33.9114 115.576H94.0883C97.1655 115.576 99.6601 115.16 99.6601 114.647V103.24C99.6601 102.668 100.125 102.203 100.698 102.203H116.376C119.463 102.203 121.948 99.7176 121.948 96.6307V92.0964C121.948 91.8918 121.889 91.7011 121.787 91.5404C121.717 91.4309 121.818 91.1105 121.948 91.1105V91.1105V91.1105C121.977 91.1105 122 91.0873 122 91.0587V91.0587V18.6237C122 15.5082 119.491 13 116.376 13H11.6238Z" fill="url(#paint0_linear_60_332)"/>
<path d="M64.1129 33.5652C52.2079 33.5548 40.5974 37.2658 30.9054 44.179L36.0047 51.328C44.2063 45.4779 54.0311 42.3377 64.1053 42.3465L64.1129 33.5652ZM97.302 44.237C87.6219 37.3068 76.018 33.5756 64.1129 33.5652L64.1053 42.3465C74.1793 42.3553 83.9989 45.5127 92.1901 51.377L97.302 44.237ZM93.2179 44.9131C94.159 43.5987 95.9874 43.2959 97.302 44.237L92.1901 51.377C94.8191 53.2592 98.4759 52.6538 100.358 50.0249L93.2179 44.9131ZM93.8941 48.997C92.5797 48.0559 92.2769 46.2275 93.2179 44.9131L100.358 50.0249C102.24 47.396 101.635 43.7391 99.0058 41.8569L93.8941 48.997ZM64.1078 39.4194C74.7923 39.4288 85.2066 42.7774 93.8941 48.997L99.0058 41.8569C88.8296 34.5715 76.6308 30.6491 64.1155 30.6381L64.1078 39.4194ZM34.3049 48.9451C43.0032 42.7406 53.4234 39.41 64.1078 39.4194L64.1155 30.6381C51.6003 30.6271 39.3946 34.5283 29.2056 41.796L34.3049 48.9451ZM34.9881 44.8623C35.927 46.1785 35.6211 48.0063 34.3049 48.9451L29.2056 41.796C26.5734 43.6735 25.9617 47.3294 27.8391 49.9616L34.9881 44.8623ZM30.9054 44.179C32.2214 43.2403 34.0494 43.5462 34.9881 44.8623L27.8391 49.9616C29.7167 52.5938 33.3725 53.2056 36.0047 51.328L30.9054 44.179ZM64.0631 76.05C62.6608 76.05 61.2721 76.3262 59.9766 76.8629L63.3371 84.9756C63.5673 84.8803 63.814 84.8313 64.0631 84.8313V76.05ZM68.1497 76.8629C66.854 76.3262 65.4655 76.05 64.0631 76.05V84.8313C64.3122 84.8313 64.559 84.8803 64.7892 84.9756L68.1497 76.8629ZM71.614 79.1776C70.6223 78.1861 69.4452 77.3994 68.1497 76.8629L64.7892 84.9756C65.0193 85.071 65.2286 85.2108 65.4046 85.3869L71.614 79.1776ZM73.9288 82.642C73.3921 81.3464 72.6056 80.1692 71.614 79.1776L65.4046 85.3869C65.5808 85.5631 65.7206 85.7722 65.8159 86.0024L73.9288 82.642ZM74.7416 86.7285C74.7416 85.3261 74.4655 83.9375 73.9288 82.642L65.8159 86.0024C65.9113 86.2327 65.9603 86.4793 65.9603 86.7285H74.7416ZM73.9288 90.8149C74.4655 89.5193 74.7416 88.1307 74.7416 86.7285H65.9603C65.9603 86.9776 65.9113 87.2244 65.8159 87.4544L73.9288 90.8149ZM71.614 94.2793C72.6056 93.2877 73.3921 92.1106 73.9288 90.8149L65.8159 87.4544C65.7206 87.6846 65.5808 87.8938 65.4046 88.07L71.614 94.2793ZM68.1497 96.5941C69.4452 96.0575 70.6223 95.2708 71.614 94.2793L65.4046 88.07C65.2284 88.2462 65.0193 88.3858 64.7892 88.4813L68.1497 96.5941ZM64.0631 97.407C65.4655 97.407 66.854 97.1307 68.1497 96.5941L64.7892 88.4813C64.5591 88.5765 64.3122 88.6257 64.0631 88.6257V97.407ZM56.5122 94.2793C58.5148 96.2818 61.231 97.407 64.0631 97.407V88.6257C63.56 88.6257 63.0774 88.4258 62.7216 88.07L56.5122 94.2793ZM53.3846 86.7285C53.3846 89.5606 54.5097 92.2767 56.5122 94.2793L62.7216 88.07C62.3659 87.7142 62.1659 87.2317 62.1659 86.7285H53.3846ZM54.1975 82.642C53.6608 83.9375 53.3846 85.3261 53.3846 86.7285H62.1659C62.1659 86.4793 62.215 86.2327 62.3104 86.0024L54.1975 82.642ZM56.5122 79.1776C55.5207 80.1692 54.7342 81.3463 54.1975 82.642L62.3104 86.0024C62.4057 85.7722 62.5454 85.5631 62.7216 85.3869L56.5122 79.1776ZM59.9766 76.8629C58.6811 77.3994 57.5039 78.1861 56.5122 79.1776L62.7216 85.3869C62.8977 85.2108 63.107 85.071 63.3371 84.9756L59.9766 76.8629ZM44.9462 64.1603C50.5613 60.1402 57.3008 57.9927 64.2066 58.0227L64.2448 49.2416C55.4926 49.2034 46.9509 51.9253 39.8344 57.0202L44.9462 64.1603ZM36.7783 62.8081C38.6604 65.4371 42.3173 66.0424 44.9462 64.1603L39.8344 57.0202C41.1488 56.0791 42.9773 56.3818 43.9184 57.6963L36.7783 62.8081ZM38.1305 54.6402C35.5015 56.5223 34.8962 60.1793 36.7783 62.8081L43.9184 57.6963C44.8595 59.0108 44.5566 60.8392 43.2422 61.7802L38.1305 54.6402ZM64.2576 46.3145C54.8897 46.2736 45.7475 49.187 38.1305 54.6402L43.2422 61.7802C49.3578 57.4019 56.698 55.0628 64.2193 55.0958L64.2576 46.3145ZM90.3112 54.8679C82.742 49.3483 73.6254 46.3553 64.2576 46.3145L64.2193 55.0958C71.7405 55.1285 79.06 57.5316 85.1372 61.963L90.3112 54.8679ZM91.5919 63.0472C93.4969 60.4349 92.9235 56.7728 90.3112 54.8679L85.1372 61.963C83.831 61.0106 83.5443 59.1795 84.4968 57.8733L91.5919 63.0472ZM83.4126 64.3281C86.0249 66.2331 89.687 65.6597 91.5919 63.0472L84.4968 57.8733C85.4493 56.5672 87.2803 56.2804 88.5865 57.233L83.4126 64.3281ZM64.2066 58.0227C71.1122 58.0529 77.8328 60.2593 83.4126 64.3281L88.5865 57.233C81.5147 52.076 72.9971 49.2798 64.2448 49.2416L64.2066 58.0227ZM64.2 65.033C58.5855 65.0036 53.1107 66.7824 48.5857 70.1064L53.7843 77.1834C56.7894 74.9759 60.4253 73.7945 64.154 73.8141L64.2 65.033ZM79.7603 70.2696C75.2704 66.8984 69.8146 65.0624 64.2 65.033L64.154 73.8141C67.8827 73.8336 71.506 75.053 74.4879 77.2918L79.7603 70.2696ZM75.6621 70.8528C76.6327 69.56 78.4675 69.2989 79.7603 70.2696L74.4879 77.2918C77.0734 79.2331 80.7431 78.7109 82.6843 76.1254L75.6621 70.8528ZM76.2454 74.951C74.9527 73.9804 74.6914 72.1455 75.6621 70.8528L82.6843 76.1254C84.6257 73.5397 84.1034 69.8702 81.5179 67.9289L76.2454 74.951ZM64.1694 70.887C68.5267 70.9099 72.7609 72.3346 76.2454 74.951L81.5179 67.9289C76.5253 64.1805 70.4584 62.1385 64.2153 62.1059L64.1694 70.887ZM52.0515 74.8244C55.5631 72.2448 59.8121 70.8642 64.1694 70.887L64.2153 62.1059C57.9721 62.0732 51.8843 64.0512 46.8528 67.7473L52.0515 74.8244ZM52.6776 70.7325C53.6346 72.0353 53.3543 73.8674 52.0515 74.8244L46.8528 67.7473C44.2471 69.6615 43.6864 73.3255 45.6005 75.9312L52.6776 70.7325ZM48.5857 70.1064C49.8885 69.1494 51.7206 69.4296 52.6776 70.7325L45.6005 75.9312C47.5146 78.5369 51.1786 79.0976 53.7843 77.1834L48.5857 70.1064Z" fill="url(#paint1_linear_60_332)"/>
<defs>
<linearGradient id="paint0_linear_60_332" x1="4.3233" y1="14.0093" x2="108.89" y2="135.878" gradientUnits="userSpaceOnUse">
<stop stop-color="#F9D423"/>
<stop offset="0.515624" stop-color="#FF4E50"/>
<stop offset="0.991304" stop-color="#8A2387"/>
</linearGradient>
<linearGradient id="paint1_linear_60_332" x1="25.6707" y1="31.2951" x2="93.8426" y2="109.9" gradientUnits="userSpaceOnUse">
<stop stop-color="#F9D423"/>
<stop offset="0.515624" stop-color="#FF4E50"/>
<stop offset="0.991304" stop-color="#8A2387"/>
</linearGradient>
</defs>
</svg>
