<svg width="24" height="24" viewBox="0 0 24 24" fill="none" xmlns="http://www.w3.org/2000/svg">
<path opacity="0.4" d="M13.4356 5.27067V5.47202C12.8959 5.46142 12.3561 5.46142 11.8164 5.46142V5.28127C11.8164 4.55006 11.2011 3.95662 10.467 3.95662H9.39832C8.17849 3.95662 7.18536 2.98168 7.18536 1.79479C7.18536 1.3603 7.55239 1 7.99498 1C8.44837 1 8.8046 1.3603 8.8046 1.79479C8.8046 2.11271 9.07447 2.36704 9.39832 2.36704H10.467C12.097 2.37764 13.4248 3.68109 13.4356 5.27067" fill="url(#paint0_linear_8_312)"/>
<path fill-rule="evenodd" clip-rule="evenodd" d="M15.4804 5.49095C15.827 5.4957 16.1744 5.50046 16.5231 5.50403C20.2689 5.50403 23 8.17452 23 11.8623V16.5993C23 20.2871 20.2689 22.9576 16.5231 22.9576C15.0226 22.9894 13.5221 23 12.0108 23C10.4995 23 8.97743 22.9894 7.47694 22.9576C3.73111 22.9576 1 20.2871 1 16.5993V11.8623C1 8.17452 3.73111 5.50403 7.48773 5.50403C8.90187 5.48283 10.3484 5.46164 11.8165 5.46164C12.3562 5.46164 12.896 5.46164 13.4357 5.47224C14.1162 5.47224 14.7967 5.48157 15.4804 5.49095ZM10.737 15.0203H9.60354V16.1436C9.60354 16.5781 9.23652 16.9384 8.79393 16.9384C8.34054 16.9384 7.98431 16.5781 7.98431 16.1436V15.0203H6.84005C6.39746 15.0203 6.03043 14.6706 6.03043 14.2255C6.03043 13.791 6.39746 13.4307 6.84005 13.4307H7.98431V12.318C7.98431 11.8836 8.34054 11.5232 8.79393 11.5232C9.23652 11.5232 9.60354 11.8836 9.60354 12.318V13.4307H10.737C11.1796 13.4307 11.5466 13.791 11.5466 14.2255C11.5466 14.6706 11.1796 15.0203 10.737 15.0203ZM15.3248 13.2294H15.4328C15.8754 13.2294 16.2424 12.8797 16.2424 12.4346C16.2424 12.0001 15.8754 11.6398 15.4328 11.6398H15.3248C14.8715 11.6398 14.5152 12.0001 14.5152 12.4346C14.5152 12.8797 14.8715 13.2294 15.3248 13.2294ZM17.1708 16.8748H17.2787C17.7213 16.8748 18.0884 16.5251 18.0884 16.08C18.0884 15.6455 17.7213 15.2852 17.2787 15.2852H17.1708C16.7174 15.2852 16.3612 15.6455 16.3612 16.08C16.3612 16.5251 16.7174 16.8748 17.1708 16.8748Z" fill="url(#paint1_linear_8_312)"/>
<defs>
<linearGradient id="paint0_linear_8_312" x1="10.3105" y1="5.47202" x2="10.3105" y2="1" gradientUnits="userSpaceOnUse">
<stop stop-color="#FD5900"/>
<stop offset="1" stop-color="#FFDE00"/>
</linearGradient>
<linearGradient id="paint1_linear_8_312" x1="12" y1="23" x2="12" y2="5.46164" gradientUnits="userSpaceOnUse">
<stop stop-color="#FD5900"/>
<stop offset="1" stop-color="#FFDE00"/>
</linearGradient>
</defs>
</svg>
