<svg width="24" height="24" viewBox="0 0 24 24" fill="none" xmlns="http://www.w3.org/2000/svg">
<path opacity="0.4" fill-rule="evenodd" clip-rule="evenodd" d="M1 12C1 10.8071 1 9.75198 1.01927 8.81393C1.02372 8.59737 1.20108 8.42499 1.41768 8.42499H22.5823C22.7989 8.42499 22.9763 8.59737 22.9807 8.81393C23 9.75198 23 10.8071 23 12C23 17.1854 23 19.7781 21.3885 21.3885C19.7792 23 17.1854 23 12 23C6.8146 23 4.2219 23 2.6104 21.3885C1 19.7792 1 17.1854 1 12Z" fill="url(#paint0_linear_8_286)"/>
<path d="M15.3 14.75C15.3 14.0537 14.5718 13.584 13.1154 12.6435C11.6392 11.6909 10.9011 11.2146 10.35 11.5655C9.79998 11.9142 9.79998 12.8591 9.79998 14.75C9.79998 16.6409 9.79998 17.5858 10.35 17.9356C10.9 18.2854 11.6392 17.8091 13.1154 16.8565C14.5718 15.916 15.3 15.4463 15.3 14.75ZM12 1C13.6941 1 15.1123 1 16.309 1.05631C16.6151 1.07071 16.7832 1.41288 16.6132 1.66787L13.3265 6.59691C13.2523 6.70817 13.1275 6.775 12.9937 6.775H8.78849C8.46901 6.775 8.27845 6.41894 8.45567 6.15312L11.8307 1.09061C11.8684 1.034 11.9319 1 12 1V1ZM2.61038 2.6104C3.89504 1.32676 5.80277 1.06659 9.14944 1.01311C9.47028 1.00799 9.66402 1.36512 9.48604 1.63212L6.17652 6.59687C6.10234 6.70815 5.97744 6.775 5.8437 6.775H1.5491C1.31508 6.775 1.13049 6.57447 1.1556 6.34181C1.33911 4.64098 1.73968 3.48212 2.61038 2.6104ZM22.4506 6.775C22.6847 6.775 22.8693 6.57433 22.8441 6.34158C22.6599 4.64088 22.2602 3.48208 21.3896 2.6104C20.7859 2.00773 20.0451 1.63111 19.0822 1.39467C18.9232 1.35564 18.7582 1.42373 18.6674 1.55992L15.6056 6.15314C15.4284 6.41896 15.619 6.775 15.9384 6.775H22.4506Z" fill="url(#paint1_linear_8_286)"/>
<defs>
<linearGradient id="paint0_linear_8_286" x1="22.0033" y1="8.67549" x2="9.96988" y2="27.7706" gradientUnits="userSpaceOnUse">
<stop stop-color="#D800BD"/>
<stop offset="0.408098" stop-color="#F92D7A"/>
<stop offset="0.590073" stop-color="#FF4A52"/>
<stop offset="1" stop-color="#FFB243"/>
</linearGradient>
<linearGradient id="paint1_linear_8_286" x1="21.8992" y1="1.29305" x2="6.94747" y2="21.3637" gradientUnits="userSpaceOnUse">
<stop stop-color="#D800BD"/>
<stop offset="0.408098" stop-color="#F92D7A"/>
<stop offset="0.590073" stop-color="#FF4A52"/>
<stop offset="1" stop-color="#FFB243"/>
</linearGradient>
</defs>
</svg>
