<svg width="64" height="64" viewBox="0 0 64 64" fill="none" xmlns="http://www.w3.org/2000/svg">
<path opacity="0.4" fill-rule="evenodd" clip-rule="evenodd" d="M14.0571 48.0939C15.9575 47.535 22.4997 40.3224 22.4997 40.3224C25.5485 37.3018 27.7386 39.9035 27.7386 39.9035C29.9807 42.323 28.7368 43.7303 27.1863 45.4842C25.7611 47.0966 24.0769 49.002 24.6034 52.2561C25.7027 59.0502 31.3646 57.7376 31.3646 57.7376C54.7504 53.1451 58.7773 31.8086 58.7773 31.8086C66.4106 1.00504 33.486 -6.97875 16.3179 9.12984C-0.850219 25.2384 4.2717 43.113 6.92128 46.363C9.57085 49.6129 12.856 48.5532 14.0571 48.0939ZM38.0864 33.5242C38.0864 35.6505 36.3627 37.3742 34.2364 37.3742C32.1101 37.3742 30.3864 35.6505 30.3864 33.5242C30.3864 31.3979 32.1101 29.6742 34.2364 29.6742C36.3627 29.6742 38.0864 31.3979 38.0864 33.5242Z" fill="url(#paint0_linear_323_93)"/>
<path d="M12.7553 36.125C15.6817 36.125 18.0541 33.7527 18.0541 30.8262C18.0541 27.8998 15.6817 25.5275 12.7553 25.5275C9.82888 25.5275 7.45654 27.8998 7.45654 30.8262C7.45654 33.7527 9.82888 36.125 12.7553 36.125Z" fill="url(#paint1_linear_323_93)"/>
<path d="M19.199 23.3359C22.1255 23.3359 24.4978 20.9636 24.4978 18.0372C24.4978 15.1107 22.1255 12.7384 19.199 12.7384C16.2726 12.7384 13.9003 15.1107 13.9003 18.0372C13.9003 20.9636 16.2726 23.3359 19.199 23.3359Z" fill="url(#paint2_linear_323_93)"/>
<path d="M33.0873 17.9911C36.0138 17.9911 38.3861 15.6187 38.3861 12.6923C38.3861 9.7659 36.0138 7.39355 33.0873 7.39355C30.1609 7.39355 27.7886 9.7659 27.7886 12.6923C27.7886 15.6187 30.1609 17.9911 33.0873 17.9911Z" fill="url(#paint3_linear_323_93)"/>
<path d="M44.8712 26.9111C44.8712 26.9111 41.2888 20.8056 41.139 20.331C40.9891 19.8564 41.064 18.6325 41.7384 18.2328C42.4128 17.8331 42.6626 17.8331 42.9374 17.8331H53.004C53.004 17.8331 53.9033 17.8331 54.228 18.1329C54.5527 18.4326 55.352 19.2819 54.9523 20.1561C54.5527 21.0304 51.1805 26.9004 51.1805 26.9004L44.8712 26.9111Z" fill="url(#paint4_linear_323_93)"/>
<path d="M51.1681 26.9111L44.8712 26.9111L44.8712 30.6722H51.1681V26.9111Z" fill="url(#paint5_linear_323_93)"/>
<path d="M46.0476 58.0991L44.8712 30.6722H51.1681L50.0086 58.6341H49.9901C49.9111 59.0974 49.6708 59.5178 49.3117 59.821C48.9527 60.1242 48.4979 60.2907 48.028 60.2909C47.7664 60.2908 47.5075 60.2392 47.2659 60.139C47.0243 60.0388 46.8048 59.892 46.62 59.7069C46.4351 59.5219 46.2885 59.3023 46.1886 59.0606C46.0886 58.8189 46.0372 58.5599 46.0374 58.2983C46.0377 58.2338 46.0411 58.1692 46.0476 58.105V58.0991Z" fill="url(#paint6_linear_323_93)"/>
<defs>
<linearGradient id="paint0_linear_323_93" x1="4.10534" y1="28.5796" x2="59.9163" y2="28.5796" gradientUnits="userSpaceOnUse">
<stop stop-color="#A93AFF"/>
<stop offset="1" stop-color="#FF81FF"/>
</linearGradient>
<linearGradient id="paint1_linear_323_93" x1="12.7864" y1="38.2838" x2="12.7864" y2="26.5397" gradientUnits="userSpaceOnUse">
<stop stop-color="#FDA700"/>
<stop offset="1" stop-color="#FFDE00"/>
</linearGradient>
<linearGradient id="paint2_linear_323_93" x1="13.8987" y1="17.8801" x2="24.4955" y2="17.8801" gradientUnits="userSpaceOnUse">
<stop stop-color="#FD3A84"/>
<stop offset="1" stop-color="#FFA68D"/>
</linearGradient>
<linearGradient id="paint3_linear_323_93" x1="27.7901" y1="12.5353" x2="38.3879" y2="12.5353" gradientUnits="userSpaceOnUse">
<stop stop-color="#A93AFF"/>
<stop offset="1" stop-color="#FF81FF"/>
</linearGradient>
<linearGradient id="paint4_linear_323_93" x1="48.0679" y1="60.2909" x2="48.0679" y2="17.8331" gradientUnits="userSpaceOnUse">
<stop stop-color="#A93AFF"/>
<stop offset="1" stop-color="#FF81FF"/>
</linearGradient>
<linearGradient id="paint5_linear_323_93" x1="48.0679" y1="60.2909" x2="48.0679" y2="17.8331" gradientUnits="userSpaceOnUse">
<stop stop-color="#A93AFF"/>
<stop offset="1" stop-color="#FF81FF"/>
</linearGradient>
<linearGradient id="paint6_linear_323_93" x1="48.0679" y1="60.2909" x2="48.0679" y2="17.8331" gradientUnits="userSpaceOnUse">
<stop stop-color="#A93AFF"/>
<stop offset="1" stop-color="#FF81FF"/>
</linearGradient>
</defs>
</svg>
