<svg width="64" height="64" viewBox="0 0 64 64" fill="none" xmlns="http://www.w3.org/2000/svg">
<path opacity="0.4" d="M32 61.9999C48.5684 61.9999 61.9998 48.5685 61.9998 32.0001C61.9998 15.4316 48.5684 2.00024 32 2.00024C15.4315 2.00024 2.00012 15.4316 2.00012 32.0001C2.00012 48.5685 15.4315 61.9999 32 61.9999Z" fill="url(#paint0_linear_204_114)"/>
<path opacity="0.6" fill-rule="evenodd" clip-rule="evenodd" d="M31.9108 18.5687C34.2769 18.5687 36.1951 16.6505 36.1951 14.2843C36.1951 11.9182 34.2769 10 31.9108 10C29.5446 10 27.6264 11.9182 27.6264 14.2843C27.6264 16.6505 29.5446 18.5687 31.9108 18.5687ZM23.1137 27.4437C25.4799 27.4437 27.398 25.5255 27.398 23.1593C27.398 20.7932 25.4799 18.875 23.1137 18.875C20.7475 18.875 18.8294 20.7932 18.8294 23.1593C18.8294 25.5255 20.7475 27.4437 23.1137 27.4437ZM40.8738 27.4944C43.2399 27.4944 45.1581 25.5762 45.1581 23.2101C45.1581 20.8439 43.2399 18.9257 40.8738 18.9257C38.5076 18.9257 36.5894 20.8439 36.5894 23.2101C36.5894 25.5762 38.5076 27.4944 40.8738 27.4944ZM32.1172 36.2156C34.4834 36.2156 36.4016 34.2975 36.4016 31.9313C36.4016 29.5651 34.4834 27.647 32.1172 27.647C29.751 27.647 27.8329 29.5651 27.8329 31.9313C27.8329 34.2975 29.751 36.2156 32.1172 36.2156ZM27.4061 40.8599C27.4061 43.2261 25.488 45.1442 23.1218 45.1442C20.7556 45.1442 18.8375 43.2261 18.8375 40.8599C18.8375 38.4937 20.7556 36.5756 23.1218 36.5756C25.488 36.5756 27.4061 38.4937 27.4061 40.8599ZM45.0447 40.8724C45.0447 43.2386 43.1266 45.1568 40.7604 45.1568C38.3942 45.1568 36.4761 43.2386 36.4761 40.8724C36.4761 38.5063 38.3942 36.5881 40.7604 36.5881C43.1266 36.5881 45.0447 38.5063 45.0447 40.8724ZM18.5687 31.9865C18.5687 34.3526 16.6505 36.2708 14.2843 36.2708C11.9182 36.2708 10 34.3526 10 31.9865C10 29.6203 11.9182 27.7021 14.2843 27.7021C16.6505 27.7021 18.5687 29.6203 18.5687 31.9865ZM49.7157 36.4418C52.0818 36.4418 54 34.5237 54 32.1575C54 29.7913 52.0818 27.8731 49.7157 27.8731C47.3495 27.8731 45.4313 29.7913 45.4313 32.1575C45.4313 34.5237 47.3495 36.4418 49.7157 36.4418ZM36.3166 49.7265C36.3166 52.0927 34.3984 54.0109 32.0322 54.0109C29.6661 54.0109 27.7479 52.0927 27.7479 49.7265C27.7479 47.3603 29.6661 45.4422 32.0322 45.4422C34.3984 45.4422 36.3166 47.3603 36.3166 49.7265Z" fill="url(#paint1_linear_204_114)"/>
<defs>
<linearGradient id="paint0_linear_204_114" x1="32" y1="61.9999" x2="32" y2="2.00024" gradientUnits="userSpaceOnUse">
<stop stop-color="#00B59C"/>
<stop offset="1" stop-color="#9CFFAC"/>
</linearGradient>
<linearGradient id="paint1_linear_204_114" x1="32" y1="54.0109" x2="32" y2="10" gradientUnits="userSpaceOnUse">
<stop stop-color="#02AA93"/>
<stop offset="1" stop-color="#67FF80"/>
</linearGradient>
</defs>
</svg>
