<svg width="24" height="24" viewBox="0 0 24 24" fill="none" xmlns="http://www.w3.org/2000/svg">
<path opacity="0.6" d="M1 4.97222C1 3.91872 1.4185 2.90837 2.16344 2.16344C2.90837 1.4185 3.91872 1 4.97222 1H19.0278C20.0813 1 21.0916 1.4185 21.8366 2.16344C22.5815 2.90837 23 3.91872 23 4.97222V19.0278C23 20.0813 22.5815 21.0916 21.8366 21.8366C21.0916 22.5815 20.0813 23 19.0278 23H16.0556C15.5033 23 15.0556 22.5523 15.0556 22V19.0278C15.0556 18.2984 14.7658 17.599 14.2501 17.0832C13.7344 16.5675 13.0349 16.2778 12.3056 16.2778H2C1.44772 16.2778 1 15.8301 1 15.2778V4.97222Z" fill="url(#paint0_linear_339_396)"/>
<path d="M2.16344 21.8368C1.4185 21.0918 1 20.0815 1 19.028C1 18.5217 1.41041 18.1113 1.91667 18.1113H12.3056C12.5487 18.1113 12.7818 18.2079 12.9537 18.3798C13.1256 18.5517 13.2222 18.7849 13.2222 19.028V22.0002C13.2222 22.5525 12.7745 23.0002 12.2222 23.0002H4.97222C3.91872 23.0002 2.90837 22.5817 2.16344 21.8368Z" fill="url(#paint1_linear_339_396)"/>
<defs>
<linearGradient id="paint0_linear_339_396" x1="20.8" y1="-0.100001" x2="1.66" y2="21.46" gradientUnits="userSpaceOnUse">
<stop stop-color="#E7824D"/>
<stop offset="1" stop-color="#A500FF"/>
</linearGradient>
<linearGradient id="paint1_linear_339_396" x1="16.1861" y1="10.6187" x2="15.5752" y2="27.8726" gradientUnits="userSpaceOnUse">
<stop stop-color="#E7824D"/>
<stop offset="1" stop-color="#A500FF"/>
</linearGradient>
</defs>
</svg>
