<svg width="512" height="512" viewBox="0 0 512 512" fill="none" xmlns="http://www.w3.org/2000/svg">
<path d="M64 408H448" stroke="url(#paint0_linear_228_315)" stroke-width="32" stroke-linecap="round" stroke-linejoin="round"/>
<path opacity="0.4" fill-rule="evenodd" clip-rule="evenodd" d="M496 351C496 368.673 481.673 383 464 383H400H112H48C30.3269 383 16 368.673 16 351V287V191V127C16 109.327 30.3269 95 48 95H112H400H464C481.673 95 496 109.327 496 127V191V287V351ZM464 167.804C464 170.419 461.528 172.332 459.057 171.477C449.991 168.337 441.659 163.168 434.745 156.255C427.832 149.341 422.663 141.009 419.523 131.943C418.668 129.472 420.581 127 423.196 127H460C462.209 127 464 128.791 464 131V167.804ZM464 310.196C464 307.581 461.528 305.668 459.057 306.523C449.991 309.663 441.659 314.832 434.745 321.745C427.832 328.659 422.663 336.991 419.523 346.057C418.668 348.528 420.581 351 423.196 351H460C462.209 351 464 349.209 464 347V310.196ZM88.8038 351C91.4188 351 93.3322 348.529 92.4765 346.057C92.0628 344.863 91.6133 343.679 91.1283 342.508C87.912 334.743 83.1978 327.688 77.2548 321.745C71.3119 315.802 64.2566 311.088 56.4917 307.872C55.3208 307.387 54.1372 306.937 52.9425 306.523C50.4715 305.668 48 307.581 48 310.196V347C48 349.209 49.7909 351 52 351H88.8038ZM48 167.804C48 170.419 50.4715 172.332 52.9425 171.477C54.1372 171.063 55.3208 170.613 56.4917 170.128C64.2566 166.912 71.3119 162.198 77.2548 156.255C83.1978 150.312 87.912 143.257 91.1283 135.492C91.6133 134.321 92.0628 133.137 92.4765 131.943C93.3322 129.471 91.4188 127 88.8038 127H52C49.7909 127 48 128.791 48 131V167.804Z" fill="url(#paint1_linear_228_315)"/>
<path fill-rule="evenodd" clip-rule="evenodd" d="M172 239C172 192.608 209.608 155 256 155C302.392 155 340 192.608 340 239C340 285.392 302.392 323 256 323C209.608 323 172 285.392 172 239Z" fill="url(#paint2_linear_228_315)"/>
<defs>
<linearGradient id="paint0_linear_228_315" x1="-nan" y1="-nan" x2="-nan" y2="-nan" gradientUnits="userSpaceOnUse">
<stop stop-color="#02AA93"/>
<stop offset="1" stop-color="#67FF80"/>
</linearGradient>
<linearGradient id="paint1_linear_228_315" x1="27" y1="254.5" x2="573.5" y2="251" gradientUnits="userSpaceOnUse">
<stop stop-color="#02AA93"/>
<stop offset="1" stop-color="#67FF80"/>
</linearGradient>
<linearGradient id="paint2_linear_228_315" x1="55.625" y1="252.563" x2="533.812" y2="249.5" gradientUnits="userSpaceOnUse">
<stop stop-color="#02AA93"/>
<stop offset="1" stop-color="#67FF80"/>
</linearGradient>
</defs>
</svg>
