<svg width="64" height="64" viewBox="0 0 64 64" fill="none" xmlns="http://www.w3.org/2000/svg">
<circle opacity="0.4" cx="32" cy="32" r="28" fill="url(#paint0_linear_54_879)"/>
<path d="M18.4272 26.8825C20.508 20.2857 27.8029 16.04 34.5571 17.1867C39.8409 17.9224 44.5267 21.7695 46.2962 26.8168C48.295 23.6766 52.1943 21.8969 55.8643 22.5915C59.522 23.1505 62.5489 26.1057 63.4746 29.661C63.8637 31.9339 63.7163 34.363 62.5653 36.4016C60.7999 39.7925 56.8473 41.8434 53.0668 41.2968C50.3061 40.9926 47.8526 39.3116 46.3002 37.0387C44.5554 41.8147 40.2792 45.5631 35.2821 46.5043C33.7789 45.0699 32.1241 43.7793 30.924 42.0531C35.4296 42.7189 40.1727 39.9939 41.7742 35.7029C42.9334 32.9491 42.7286 29.6815 41.2991 27.0675C39.6075 23.878 36.1423 21.7325 32.5378 21.6996C27.4261 21.4859 22.7567 25.6741 22.1832 30.7378C20.6554 29.7555 19.4717 28.3539 18.4272 26.8825ZM51.1908 28.2594C49.5442 29.5788 49.1346 31.9133 49.831 33.841C50.7607 35.6042 52.6408 36.9277 54.6888 36.6811C56.4377 36.5701 57.8672 35.3412 58.6905 33.8574C59.2107 32.2709 59.1657 30.4255 58.0966 29.0732C56.5729 26.8825 53.1733 26.4756 51.1908 28.2594Z" fill="url(#paint1_linear_54_879)"/>
<path d="M4.59106 24.4164C6.4711 23.0313 8.77714 22.3531 11.1037 22.4271C13.1517 24.0629 14.9047 26.0111 16.6988 27.9141C18.6402 29.6979 20.3687 31.6954 22.2488 33.545C22.4167 34.2807 22.6461 34.9959 22.9082 35.7028C24.1821 39.0732 27.3933 41.5188 30.924 42.0531C32.1241 43.7793 33.7789 45.0699 35.2821 46.5043C28.3149 48.0867 20.7292 43.7834 18.3822 37.0345C18.2347 37.2236 17.948 37.5976 17.8047 37.7867C16.5308 36.9071 15.4208 35.822 14.4132 34.6506C14.4951 34.4616 14.6631 34.0875 14.745 33.9026C15.7567 31.8187 14.9662 29.106 13.0001 27.8936C11.3781 26.7756 9.19492 26.977 7.58111 28.0004C6.72915 26.6934 5.70516 25.5097 4.59106 24.4164Z" fill="url(#paint2_linear_54_879)"/>
<path d="M11.1037 22.4271C14.065 22.723 16.8298 24.3548 18.4272 26.8825C19.4717 28.3539 20.6554 29.7555 22.1832 30.7378C22.1423 31.6749 22.171 32.612 22.2488 33.545C20.3687 31.6954 18.6402 29.6979 16.6988 27.9141C14.9047 26.0111 13.1517 24.0629 11.1037 22.4271Z" fill="url(#paint3_linear_54_879)"/>
<path d="M1.38403 29.0115C2.04757 27.2318 3.14928 25.6494 4.59106 24.4164C5.70516 25.5097 6.72915 26.6934 7.58111 28.0004C6.29908 29.0773 5.55371 30.6802 5.59467 32.3654C4.0423 31.4324 2.95687 29.9157 1.38403 29.0115Z" fill="url(#paint4_linear_54_879)"/>
<path d="M9.40784 36.6933C11.3247 36.94 13.2171 36.1549 14.4132 34.6506C15.4208 35.822 16.5308 36.9071 17.8047 37.7867C16.6496 39.2705 15.0356 40.3514 13.2662 40.9556C12.1849 39.3403 10.3376 38.4319 9.40784 36.6933Z" fill="url(#paint5_linear_54_879)"/>
<path d="M1.28962 29.4965L1.38403 29.0115C2.95687 29.9157 4.0423 31.4324 5.59467 32.3654C5.72984 32.9038 5.88938 33.434 6.06141 33.9601C6.76182 35.2918 8.01521 36.1959 9.40784 36.6933C10.3376 38.4319 12.1849 39.3403 13.2662 40.9556C10.0222 41.9543 6.2744 41.1282 3.85778 38.7114C1.4084 36.3933 0.47043 32.7476 1.28962 29.4965Z" fill="url(#paint6_linear_54_879)"/>
<defs>
<linearGradient id="paint0_linear_54_879" x1="32" y1="60" x2="32" y2="4" gradientUnits="userSpaceOnUse">
<stop stop-color="#5570FF"/>
<stop offset="1" stop-color="#4DD3FF"/>
</linearGradient>
<linearGradient id="paint1_linear_54_879" x1="32.334" y1="34.6784" x2="32.334" y2="17" gradientUnits="userSpaceOnUse">
<stop stop-color="#5558FF"/>
<stop offset="1" stop-color="#00C0FF"/>
</linearGradient>
<linearGradient id="paint2_linear_54_879" x1="32.334" y1="34.6784" x2="32.334" y2="17" gradientUnits="userSpaceOnUse">
<stop stop-color="#5558FF"/>
<stop offset="1" stop-color="#00C0FF"/>
</linearGradient>
<linearGradient id="paint3_linear_54_879" x1="32.334" y1="34.6784" x2="32.334" y2="17" gradientUnits="userSpaceOnUse">
<stop stop-color="#5558FF"/>
<stop offset="1" stop-color="#00C0FF"/>
</linearGradient>
<linearGradient id="paint4_linear_54_879" x1="32.334" y1="34.6784" x2="32.334" y2="17" gradientUnits="userSpaceOnUse">
<stop stop-color="#5558FF"/>
<stop offset="1" stop-color="#00C0FF"/>
</linearGradient>
<linearGradient id="paint5_linear_54_879" x1="32.334" y1="34.6784" x2="32.334" y2="17" gradientUnits="userSpaceOnUse">
<stop stop-color="#5558FF"/>
<stop offset="1" stop-color="#00C0FF"/>
</linearGradient>
<linearGradient id="paint6_linear_54_879" x1="32.334" y1="34.6784" x2="32.334" y2="17" gradientUnits="userSpaceOnUse">
<stop stop-color="#5558FF"/>
<stop offset="1" stop-color="#00C0FF"/>
</linearGradient>
</defs>
</svg>
