<svg width="64" height="64" viewBox="0 0 64 64" fill="none" xmlns="http://www.w3.org/2000/svg">
<path opacity="0.6" fill-rule="evenodd" clip-rule="evenodd" d="M11.7958 45.0071C11.7921 45.0071 11.789 45.0102 11.789 45.0141L11.7892 45.0158C11.8899 45.3761 12.2874 46.4982 13.5743 47.7845C15.2784 49.4878 18.7446 51.6815 25.7194 52.6093H38.4139C45.4314 52.5043 48.787 50.3074 50.4114 48.5014C51.7909 46.9678 52.1405 45.4731 52.2099 45.099C52.2107 45.0943 52.211 45.0901 52.211 45.0854C52.211 45.0422 52.1761 45.0071 52.1328 45.0071H48.8614C48.2887 45.0071 47.8244 45.4715 47.8244 46.0442V47.3498C47.8244 48.3646 47.0018 49.1872 45.987 49.1872H37.3054C36.2906 49.1872 35.4681 48.3646 35.4681 47.3498V46.0442C35.4681 45.4715 35.0038 45.0071 34.431 45.0071H32H29.569C28.9963 45.0071 28.532 45.4715 28.532 46.0442V47.3498C28.532 48.3646 27.7094 49.1872 26.6946 49.1872H18.0131C16.9983 49.1872 16.1757 48.3646 16.1757 47.3498V46.0442C16.1757 45.4715 15.7114 45.0071 15.1386 45.0071H11.7958ZM52.2125 45.3361C52.2118 45.3171 52.2114 45.2952 52.2111 45.2707C52.2119 45.3266 52.2157 45.4313 52.2125 45.3361ZM29.3814 7.63355C29.0005 6.49076 27.8282 5.81044 26.6469 6.04669L18.7619 7.62371C17.6454 7.84701 16.8417 8.82731 16.8417 9.96595V14.5372C16.8417 14.884 16.6685 15.2078 16.3799 15.4001L14.8907 16.393C14.5423 16.6252 14.0885 16.6252 13.7402 16.393L10.8528 14.4681C9.65735 13.6712 8.034 14.1023 7.39148 15.3874L4.25223 21.6658C3.79245 22.5854 3.97268 23.696 4.69967 24.4231L6.89181 26.6152C7.08629 26.8097 7.19555 27.0734 7.19555 27.3485V45.2363C7.19492 45.304 7.19722 45.3749 7.20331 45.4484C7.20871 45.5137 7.2158 45.5653 7.21938 45.5899C7.28064 46.0141 7.7379 48.4454 10.3272 51.0334C12.9201 53.625 17.4466 56.1693 25.274 57.1838L25.4209 57.2028H25.5692H38.4308H38.4475L38.4642 57.2026C46.5112 57.0858 51.1851 54.5099 53.8265 51.5733C56.4079 48.7034 56.7606 45.806 56.7926 45.494C56.7941 45.4788 56.7984 45.4365 56.8013 45.3822C56.8028 45.3523 56.8042 45.3178 56.8045 45.28C56.8046 45.2656 56.8046 45.2518 56.8045 45.2389V27.3485C56.8045 27.0734 56.9138 26.8097 57.1082 26.6152L59.3003 24.4231C60.0273 23.696 60.2075 22.5854 59.7478 21.6658L56.6086 15.3874C55.9661 14.1023 54.3426 13.6712 53.1472 14.4681L50.26 16.393C49.9116 16.6252 49.4578 16.6252 49.1095 16.393L47.6201 15.4001C47.3316 15.2078 47.1583 14.884 47.1583 14.5372V9.96595C47.1583 8.82731 46.3547 7.84701 45.2382 7.62371L37.353 6.04669C36.1719 5.81044 34.9995 6.49076 34.6186 7.63355L33.7964 10.1002C33.6552 10.5237 33.259 10.8093 32.8126 10.8093H31.1875C30.7411 10.8093 30.3448 10.5237 30.2037 10.1002L29.3814 7.63355Z" fill="url(#paint0_linear_205_123)"/>
<path d="M16.35 25H25.65C26.3956 25 27 25.6044 27 26.35V35.65C27 36.3956 26.3956 37 25.65 37H16.35C15.6044 37 15 36.3956 15 35.65V26.35C15 25.6044 15.6044 25 16.35 25Z" fill="url(#paint1_linear_205_123)"/>
<path d="M48.5799 25H39.2799C38.5343 25 37.9299 25.6044 37.9299 26.35V35.65C37.9299 36.3956 38.5343 37 39.2799 37H48.5799C49.3255 37 49.9299 36.3956 49.9299 35.65V26.35C49.9299 25.6044 49.3255 25 48.5799 25Z" fill="url(#paint2_linear_205_123)"/>
<defs>
<linearGradient id="paint0_linear_205_123" x1="9.5832" y1="31.6015" x2="50.147" y2="31.6015" gradientUnits="userSpaceOnUse">
<stop stop-color="#5570FF"/>
<stop offset="1" stop-color="#4DD3FF"/>
</linearGradient>
<linearGradient id="paint1_linear_205_123" x1="0.169513" y1="35.513" x2="75.8624" y2="35.513" gradientUnits="userSpaceOnUse">
<stop stop-color="#5570FF"/>
<stop offset="1" stop-color="#4DD3FF"/>
</linearGradient>
<linearGradient id="paint2_linear_205_123" x1="-6.7505" y1="35.513" x2="68.9424" y2="35.513" gradientUnits="userSpaceOnUse">
<stop stop-color="#5570FF"/>
<stop offset="1" stop-color="#4DD3FF"/>
</linearGradient>
</defs>
</svg>
