<svg width="64" height="64" viewBox="0 0 64 64" fill="none" xmlns="http://www.w3.org/2000/svg">
<rect opacity="0.4" x="4" y="4" width="56" height="56" rx="12" fill="url(#paint0_linear_54_778)"/>
<path d="M17.7506 47.2388H33.782" stroke="url(#paint1_linear_54_778)" stroke-width="5" stroke-linecap="round"/>
<path d="M30.2739 34.6987C29.5343 35.5845 28.4885 36.274 27.137 36.7672C25.7853 37.2512 24.2876 37.4932 22.6438 37.4932C20.9178 37.4932 19.4018 37.1187 18.0958 36.3699C16.7991 35.6119 15.7945 34.5161 15.0821 33.0822C14.3789 31.6484 14.0182 29.9636 14 28.0275V26.6713C14 24.6804 14.3333 22.959 15 21.5069C15.6758 20.0457 16.6438 18.9315 17.904 18.1644C19.1735 17.3882 20.6575 17 22.3561 17C24.7215 17 26.5708 17.5662 27.9041 18.6986C29.2374 19.8219 30.0273 21.4612 30.2739 23.6164H26.274C26.0913 22.4749 25.6849 21.6393 25.0548 21.1096C24.4338 20.5799 23.5753 20.3151 22.4794 20.3151C21.0821 20.3151 20.0183 20.8402 19.2876 21.8905C18.557 22.9406 18.1872 24.5023 18.1781 26.5754V27.8493C18.1781 29.9407 18.5753 31.5206 19.3698 32.5891C20.1644 33.6576 21.3287 34.1918 22.863 34.1918C24.4063 34.1918 25.5068 33.8631 26.1644 33.2055V29.7672H22.4247V26.7397H30.2739V34.6987ZM50 27.6986C50 29.6622 49.653 31.3836 48.959 32.863C48.2649 34.3425 47.2695 35.484 45.9726 36.2877C44.685 37.0914 43.2055 37.4932 41.5342 37.4932C39.8813 37.4932 38.4064 37.096 37.1096 36.3014C35.8128 35.5069 34.8082 34.3745 34.0959 32.9042C33.3836 31.4247 33.0228 29.7261 33.0137 27.8082V26.8219C33.0137 24.8585 33.3653 23.1325 34.0685 21.6439C34.7808 20.1462 35.7808 19 37.0685 18.2055C38.3653 17.4019 39.8447 17 41.5069 17C43.1689 17 44.6438 17.4019 45.9315 18.2055C47.2284 19 48.2283 20.1462 48.9315 21.6439C49.6439 23.1325 50 24.854 50 26.8083V27.6986ZM45.8357 26.7946C45.8357 24.7033 45.4612 23.1142 44.7124 22.0274C43.9635 20.9407 42.895 20.3972 41.5069 20.3972C40.1279 20.3972 39.0639 20.9361 38.315 22.0137C37.5662 23.0822 37.1872 24.653 37.1781 26.726V27.6986C37.1781 29.7352 37.5526 31.3151 38.3014 32.4384C39.0503 33.5617 40.1279 34.1234 41.5342 34.1234C42.9132 34.1234 43.9726 33.5845 44.7124 32.5069C45.4521 31.4201 45.8265 29.8402 45.8357 27.7672V26.7946Z" fill="url(#paint2_linear_54_778)"/>
<defs>
<linearGradient id="paint0_linear_54_778" x1="32" y1="60" x2="32" y2="4" gradientUnits="userSpaceOnUse">
<stop stop-color="#A93AFF"/>
<stop offset="1" stop-color="#FF81FF"/>
</linearGradient>
<linearGradient id="paint1_linear_54_778" x1="nan" y1="nan" x2="nan" y2="nan" gradientUnits="userSpaceOnUse">
<stop stop-color="#A93AFF"/>
<stop offset="0.9999" stop-color="#7452FF"/>
<stop offset="1" stop-color="#FF81FF"/>
</linearGradient>
<linearGradient id="paint2_linear_54_778" x1="33.7534" y1="35.2153" x2="33.7534" y2="11.1683" gradientUnits="userSpaceOnUse">
<stop stop-color="#A93AFF"/>
<stop offset="1" stop-color="#FF81FF"/>
</linearGradient>
</defs>
</svg>
