<svg width="128" height="128" viewBox="0 0 128 128" fill="none" xmlns="http://www.w3.org/2000/svg">
<path opacity="0.4" d="M64 6C32.143 6 6 32.143 6 64C6 95.857 32.143 122 64 122C95.857 122 122 95.857 122 64C122 32.143 95.857 6 64 6Z" fill="url(#paint0_linear_101_97)"/>
<path fill-rule="evenodd" clip-rule="evenodd" d="M96.3691 32.6306C100.792 37.0538 104.261 42.197 106.683 47.9195C107.544 49.9588 106.593 52.3113 104.553 53.1722C102.523 54.0312 100.164 53.0888 99.3009 51.0428C97.281 46.2756 94.3886 41.9855 90.7015 38.2984C87.0142 34.6112 82.7245 31.7187 77.957 29.6989C75.9177 28.8379 74.9664 26.4854 75.8277 24.4461C76.6886 22.3991 79.0528 21.4596 81.0803 22.3168C86.8028 24.7398 91.9461 28.2076 96.3691 32.6306ZM35.6963 65.8221C35.6963 50.3532 48.2842 37.7654 63.753 37.7654C79.2218 37.7654 91.8097 50.3532 91.8097 65.8221C91.8097 81.2909 79.2218 93.8788 63.753 93.8788C48.2842 93.8788 35.6963 81.2909 35.6963 65.8221ZM43.4453 65.5548C43.4453 76.6046 52.4359 85.5953 63.4858 85.5953C74.5355 85.5953 83.5263 76.6046 83.5263 65.5548C83.5263 54.505 74.5355 45.5144 63.4858 45.5144C52.4359 45.5144 43.4453 54.505 43.4453 65.5548ZM51.9958 65.8218C51.9958 59.3387 57.27 54.0647 63.7529 54.0647C70.236 54.0647 75.5101 59.3387 75.5101 65.8218C75.5101 72.3049 70.236 77.5789 63.7529 77.5789C57.27 77.5789 51.9958 72.3049 51.9958 65.8218ZM59.4776 65.8218C59.4776 68.1806 61.3941 70.0971 63.7529 70.0971C66.1117 70.0971 68.0282 68.1806 68.0282 65.8218C68.0282 63.463 66.1117 61.5465 63.7529 61.5465C61.3941 61.5465 59.4776 63.463 59.4776 65.8218ZM50.0434 98.1654C45.2759 96.1455 40.9861 93.253 37.2989 89.5658C33.6118 85.8787 30.7192 81.5886 28.6994 76.8214C27.8382 74.7784 25.4662 73.8271 23.4467 74.692C21.4074 75.5533 20.4563 77.9054 21.3173 79.9448C23.7401 85.6672 27.2081 90.8104 31.6312 95.2336C36.0542 99.6566 41.1974 103.124 46.9199 105.547C48.9561 106.408 51.3115 105.459 52.1727 103.418C53.0336 101.379 52.0824 99.0265 50.0434 98.1654Z" fill="url(#paint1_linear_101_97)"/>
<defs>
<linearGradient id="paint0_linear_101_97" x1="73.3109" y1="35.6974" x2="4.58196" y2="129.97" gradientUnits="userSpaceOnUse">
<stop stop-color="#43E97B"/>
<stop offset="0.978261" stop-color="#38F9D7"/>
</linearGradient>
<linearGradient id="paint1_linear_101_97" x1="64.0001" y1="105.865" x2="64.0001" y2="22" gradientUnits="userSpaceOnUse">
<stop stop-color="#02AA93"/>
<stop offset="1" stop-color="#67FF80"/>
</linearGradient>
</defs>
</svg>
