<svg width="24" height="24" viewBox="0 0 24 24" fill="none" xmlns="http://www.w3.org/2000/svg">
<path d="M21.7669 17.0724C21.9106 16.7962 21.6328 16.5111 21.347 16.6349V16.6349L21.336 16.6404C20.8003 16.8714 20.1864 17.1355 19.5164 17.3819C18.1677 17.8814 16.5538 18.328 14.7617 18.328C12.7672 18.328 11.238 17.7933 10.0125 17.2059C9.53942 16.9793 9.10047 16.7383 8.71433 16.5271C8.61473 16.4718 8.51498 16.4168 8.41509 16.3621C7.94204 16.1069 7.5746 15.9231 7.24677 15.8197C5.9621 15.4253 4.63742 15.1755 3.29733 15.0749C2.76559 15.033 2.23221 15.0154 1.69886 15.0221L1.61415 15.0254H1.59105V15.0254C1.50552 15.0299 1.44641 15.1129 1.47132 15.1948C2.11562 17.3142 3.3849 19.1912 5.11476 20.5789C6.88819 22.0015 9.05866 22.8401 11.3279 22.9793C13.5972 23.1186 15.8539 22.5517 17.788 21.3566C19.4807 20.3106 20.8535 18.8284 21.7669 17.0724ZM2.59432 6.2941C2.45089 6.53054 2.49396 6.83259 2.68787 7.02976V7.02976V7.02976C2.69006 7.03269 2.6925 7.03543 2.69516 7.03795L2.71207 7.05396L2.80668 7.14307C2.89359 7.22228 3.0267 7.3411 3.20272 7.48411C3.55476 7.77014 4.07732 8.15519 4.74729 8.54023C6.08834 9.31471 7.99155 10.076 10.2809 10.076C11.7925 10.076 12.9498 9.64255 13.9311 9.12989C14.3216 8.92527 14.6737 8.71515 15.0235 8.50612L15.3261 8.3268C15.7573 8.07158 16.2172 7.81195 16.6836 7.65133C17.8909 7.23417 19.143 6.95984 20.4141 6.83394V6.83394C20.9842 6.77879 21.3455 6.16356 21.0172 5.69421C20.1288 4.42417 18.9789 3.35215 17.6397 2.55317C15.9349 1.53614 13.9866 0.999445 12.0015 1C10.0316 0.999405 8.09778 1.52784 6.40196 2.53008C4.84005 3.45318 3.53286 4.74702 2.59432 6.2941Z" fill="url(#paint0_linear_8_751)"/>
<path opacity="0.4" d="M22.2147 14.5116C22.5497 14.3998 22.8044 14.12 22.8609 13.7713C22.9558 13.1864 23.0033 12.5943 23.0027 12.0011C23.0037 10.9957 22.8668 9.99592 22.5964 9.02949C22.5016 8.69034 22.1966 8.45762 21.8454 8.4323V8.4323H21.8333L21.7772 8.429C21.3747 8.42214 20.9721 8.43793 20.5714 8.4763C19.4292 8.59044 18.3042 8.83782 17.2194 9.21338C16.93 9.31239 16.6 9.49061 16.1655 9.74694L15.8926 9.90976C15.5384 10.1221 15.1335 10.3641 14.6957 10.5918C13.5626 11.1848 12.1401 11.7261 10.282 11.7261C7.62192 11.7261 5.43377 10.8427 3.92331 9.97027C3.30586 9.61515 2.71731 9.21199 2.16312 8.76453V8.76453C1.90617 8.55722 1.51346 8.65558 1.4232 8.97315C1.05379 10.2729 0.924397 11.63 1.04221 12.9776C1.06303 13.2158 1.27196 13.3897 1.51074 13.3773V13.3773H1.52285L1.55255 13.3762C1.71748 13.3697 1.88256 13.3675 2.0476 13.3696C2.38094 13.3718 2.85399 13.385 3.42605 13.4301C4.56688 13.5182 6.11805 13.7349 7.74183 14.2464C8.23688 14.4016 8.73084 14.6568 9.20169 14.912L9.53062 15.0913C9.91127 15.3004 10.2974 15.5127 10.7265 15.7184C11.8046 16.2355 13.0851 16.6766 14.7617 16.6766C16.2832 16.6766 17.6902 16.2982 18.9444 15.8339C19.5725 15.6029 20.1534 15.3521 20.6946 15.1188L20.7144 15.1111C21.237 14.8867 21.7453 14.6678 22.1919 14.5193L22.2147 14.5116Z" fill="url(#paint1_linear_8_751)"/>
<defs>
<linearGradient id="paint0_linear_8_751" x1="11.7765" y1="23" x2="11.7765" y2="1" gradientUnits="userSpaceOnUse">
<stop stop-color="#5558FF"/>
<stop offset="1" stop-color="#00C0FF"/>
</linearGradient>
<linearGradient id="paint1_linear_8_751" x1="12.0014" y1="16.6766" x2="12.0014" y2="8.30798" gradientUnits="userSpaceOnUse">
<stop stop-color="#5558FF"/>
<stop offset="1" stop-color="#00C0FF"/>
</linearGradient>
</defs>
</svg>
