<svg width="24" height="24" viewBox="0 0 24 24" fill="none" xmlns="http://www.w3.org/2000/svg">
<path opacity="0.5" d="M2 12C2 7.286 2 4.929 3.464 3.464C4.93 2 7.286 2 12 2C16.714 2 19.071 2 20.535 3.464C22 4.93 22 7.286 22 12C22 16.714 22 19.071 20.535 20.535C19.072 22 16.714 22 12 22C7.286 22 4.929 22 3.464 20.535C2 19.072 2 16.714 2 12Z" fill="url(#paint0_linear_343_519)"/>
<path d="M3.465 20.535C4.929 22 7.286 22 12 22C16.715 22 19.072 22 20.536 20.535C21.893 19.178 21.993 17.055 22 13H18.84C17.935 13 17.482 13 17.085 13.183C16.687 13.366 16.392 13.71 15.803 14.397L15.198 15.103C14.608 15.79 14.314 16.134 13.916 16.317C13.518 16.5 13.066 16.5 12.161 16.5H11.84C10.935 16.5 10.482 16.5 10.084 16.317C9.687 16.134 9.392 15.79 8.803 15.103L8.197 14.397C7.608 13.71 7.314 13.366 6.916 13.183C6.518 13 6.066 13 5.16 13H2C2.007 17.055 2.107 19.178 3.465 20.535ZM12.53 11.33C12.3894 11.4705 12.1988 11.5493 12 11.5493C11.8012 11.5493 11.6106 11.4705 11.47 11.33L8.17 8.03C8.09631 7.96134 8.03721 7.87854 7.99622 7.78654C7.95523 7.69454 7.93319 7.59523 7.93141 7.49452C7.92963 7.39382 7.94816 7.29379 7.98588 7.2004C8.0236 7.10701 8.07974 7.02218 8.15096 6.95096C8.22218 6.87974 8.30701 6.8236 8.4004 6.78588C8.49379 6.74816 8.59382 6.72963 8.69452 6.73141C8.79523 6.73319 8.89454 6.75523 8.98654 6.79622C9.07854 6.83721 9.16134 6.89631 9.23 6.97L11.25 8.99V2H12.75V8.99L14.77 6.97C14.8387 6.89631 14.9215 6.83721 15.0135 6.79622C15.1055 6.75523 15.2048 6.73319 15.3055 6.73141C15.4062 6.72963 15.5062 6.74816 15.5996 6.78588C15.693 6.8236 15.7778 6.87974 15.849 6.95096C15.9203 7.02218 15.9764 7.10701 16.0141 7.2004C16.0518 7.29379 16.0704 7.39382 16.0686 7.49452C16.0668 7.59523 16.0448 7.69454 16.0038 7.78654C15.9628 7.87854 15.9037 7.96134 15.83 8.03L12.53 11.33Z" fill="url(#paint1_linear_343_519)"/>
<defs>
<linearGradient id="paint0_linear_343_519" x1="12" y1="22" x2="12" y2="2" gradientUnits="userSpaceOnUse">
<stop stop-color="#5570FF"/>
<stop offset="1" stop-color="#4DD3FF"/>
</linearGradient>
<linearGradient id="paint1_linear_343_519" x1="12" y1="22" x2="12" y2="2" gradientUnits="userSpaceOnUse">
<stop stop-color="#5570FF"/>
<stop offset="1" stop-color="#4DD3FF"/>
</linearGradient>
</defs>
</svg>
