<svg width="128" height="128" viewBox="0 0 128 128" fill="none" xmlns="http://www.w3.org/2000/svg">
<path opacity="0.4" d="M60.8521 61.494L15.4069 110.717C15.9172 112.587 16.8343 114.311 18.0881 115.759C19.3418 117.206 20.8991 118.337 22.6407 119.067C24.3823 119.797 26.2623 120.105 28.1369 119.968C30.0114 119.832 31.831 119.254 33.4564 118.279L84.5908 88.1712L60.8521 61.494Z" fill="url(#paint0_linear_128_101)"/>
<path d="M106.805 53.1271L84.6928 40.0332L59.8027 62.6137L84.7941 88.1007L106.738 75.1471C108.682 74.0947 110.31 72.5124 111.446 70.5716C112.582 68.6307 113.183 66.4054 113.183 64.1369C113.183 61.8683 112.582 59.643 111.446 57.7022C110.31 55.7614 108.682 54.1791 106.738 53.1267H106.806L106.805 53.1271Z" fill="url(#paint1_linear_128_101)"/>
<path opacity="0.4" d="M15.4067 17.3126C15.132 18.3625 14.9952 19.4458 15.0001 20.5334V107.496C15.003 108.583 15.1396 109.666 15.4067 110.717L62.4097 62.7545L15.4067 17.3126Z" fill="url(#paint2_linear_128_101)"/>
<path d="M61.1907 64.0149L84.6925 40.0335L33.6259 9.78546C31.7046 8.62216 29.5193 8.0061 27.2927 8.00002C21.7673 7.98892 16.9095 11.7802 15.4069 17.2777L61.1907 64.0149Z" fill="url(#paint3_linear_128_101)"/>
<defs>
<linearGradient id="paint0_linear_128_101" x1="49.9988" y1="120" x2="49.9988" y2="61.494" gradientUnits="userSpaceOnUse">
<stop stop-color="#FF1B71"/>
<stop offset="0.9998" stop-color="#FF867E"/>
<stop offset="0.9999" stop-color="#FF6678"/>
</linearGradient>
<linearGradient id="paint1_linear_128_101" x1="86.4929" y1="88.1007" x2="86.4929" y2="40.0332" gradientUnits="userSpaceOnUse">
<stop stop-color="#FDA700"/>
<stop offset="1" stop-color="#FFDE00"/>
</linearGradient>
<linearGradient id="paint2_linear_128_101" x1="38.7049" y1="110.717" x2="38.7049" y2="17.3126" gradientUnits="userSpaceOnUse">
<stop stop-color="#5570FF"/>
<stop offset="1" stop-color="#4DD3FF"/>
</linearGradient>
<linearGradient id="paint3_linear_128_101" x1="3479.69" y1="8" x2="3479.69" y2="5609.49" gradientUnits="userSpaceOnUse">
<stop stop-color="#00D479"/>
<stop offset="1" stop-color="#02A5CB"/>
</linearGradient>
</defs>
</svg>
