<svg width="32" height="32" viewBox="0 0 32 32" fill="none" xmlns="http://www.w3.org/2000/svg">
<path fill-rule="evenodd" clip-rule="evenodd" d="M2 23.305V11.8855H29V23.3965C29 28.105 26.0362 31 21.2942 31H9.691C4.99341 31 2 28.045 2 23.305ZM9.43904 19.615C8.75737 19.6465 8.19425 19.105 8.16461 18.4165C8.16461 17.7265 8.69809 17.1565 9.37976 17.125C10.0466 17.125 10.5949 17.6515 10.6097 18.325C10.6394 19.0165 10.1059 19.5865 9.43904 19.615ZM15.5297 19.615C14.848 19.6465 14.2849 19.105 14.2552 18.4165C14.2552 17.7265 14.7887 17.1565 15.4704 17.125C16.1372 17.125 16.6855 17.6515 16.7004 18.325C16.73 19.0165 16.1965 19.5865 15.5297 19.615ZM21.5758 25.135C20.8941 25.12 20.3458 24.55 20.3458 23.86C20.331 23.17 20.8793 22.6015 21.561 22.5865H21.5758C22.2723 22.5865 22.8354 23.1565 22.8354 23.86C22.8354 24.565 22.2723 25.135 21.5758 25.135ZM14.2552 23.86C14.2849 24.55 14.848 25.0915 15.5297 25.06C16.1965 25.0315 16.73 24.4615 16.7004 23.7715C16.6855 23.0965 16.1372 22.57 15.4704 22.57C14.7887 22.6015 14.2552 23.17 14.2552 23.86ZM8.14987 23.86C8.17951 24.55 8.74263 25.0915 9.4243 25.06C10.0911 25.0315 10.6246 24.4615 10.595 23.7715C10.5802 23.0965 10.0319 22.57 9.36502 22.57C8.68335 22.6015 8.14987 23.17 8.14987 23.86ZM20.3606 18.4015C20.3606 17.7115 20.8941 17.1565 21.5758 17.1415C22.2426 17.1415 22.7761 17.68 22.8057 18.3415C22.8206 19.0315 22.2871 19.6015 21.6202 19.615C20.9386 19.63 20.3754 19.105 20.3606 18.4165V18.4015Z" fill="url(#paint0_linear_107_115)"/>
<path opacity="0.4" d="M2.00488 11.8854C2.02415 11.0049 2.09824 9.25736 2.23754 8.69486C2.94885 5.53136 5.36433 3.52136 8.81712 3.23486H22.1838C25.6069 3.53636 28.0521 5.55986 28.7634 8.69486C28.9012 9.24236 28.9753 11.0034 28.9945 11.8854H2.00488Z" fill="url(#paint1_linear_107_115)"/>
<path d="M9.95722 7.885C10.6093 7.885 11.0983 7.3915 11.0983 6.73V2.1565C11.0983 1.495 10.6093 1 9.95722 1C9.30519 1 8.81616 1.495 8.81616 2.1565V6.73C8.81616 7.3915 9.30519 7.885 9.95722 7.885Z" fill="url(#paint2_linear_107_115)"/>
<path d="M21.0424 7.885C21.6796 7.885 22.1835 7.3915 22.1835 6.73V2.1565C22.1835 1.495 21.6796 1 21.0424 1C20.3904 1 19.9014 1.495 19.9014 2.1565V6.73C19.9014 7.3915 20.3904 7.885 21.0424 7.885Z" fill="url(#paint3_linear_107_115)"/>
<defs>
<linearGradient id="paint0_linear_107_115" x1="15.5" y1="31" x2="15.5" y2="11.8855" gradientUnits="userSpaceOnUse">
<stop stop-color="#5570FF"/>
<stop offset="1" stop-color="#4DD3FF"/>
</linearGradient>
<linearGradient id="paint1_linear_107_115" x1="15.4997" y1="11.8854" x2="15.4997" y2="3.23486" gradientUnits="userSpaceOnUse">
<stop stop-color="#5570FF"/>
<stop offset="1" stop-color="#4DD3FF"/>
</linearGradient>
<linearGradient id="paint2_linear_107_115" x1="9.95722" y1="7.885" x2="9.95722" y2="1" gradientUnits="userSpaceOnUse">
<stop stop-color="#5570FF"/>
<stop offset="1" stop-color="#4DD3FF"/>
</linearGradient>
<linearGradient id="paint3_linear_107_115" x1="21.0424" y1="7.885" x2="21.0424" y2="1" gradientUnits="userSpaceOnUse">
<stop stop-color="#5570FF"/>
<stop offset="1" stop-color="#4DD3FF"/>
</linearGradient>
</defs>
</svg>
