<svg width="32" height="32" viewBox="0 0 32 32" fill="none" xmlns="http://www.w3.org/2000/svg">
<g opacity="0.4">
<path d="M6.6723 5.5594C9.23556 3.26276 12.5575 1.99502 15.9991 2.00001C18.5475 1.99901 21.0477 2.69384 23.2302 4.00955C25.4126 5.32526 27.1944 7.21191 28.3832 9.46595H15.9991C14.7107 9.46574 13.451 9.84639 12.3784 10.5601C11.3057 11.2737 10.4679 12.2886 9.97038 13.477L6.6723 5.5594Z" fill="url(#paint0_linear_8_990)"/>
<path d="M5.25751 7.02081C3.7922 8.77456 2.77835 10.8603 2.30443 13.0959C1.83051 15.3316 1.91092 17.6493 2.53866 19.8467C3.16639 22.0441 4.32237 24.0546 5.90571 25.7025C7.48905 27.3505 9.45164 28.5859 11.6222 29.301L16.8708 22.4734C15.2562 22.6912 13.6184 22.298 12.2787 21.3709C10.939 20.4438 9.99393 19.0497 9.62882 17.4619C9.59246 17.408 9.5618 17.3505 9.53736 17.2902L5.25751 7.02081Z" fill="url(#paint1_linear_8_990)"/>
<path d="M13.6007 29.792C16.0095 30.212 18.4863 29.9937 20.7845 29.1589C23.0827 28.3241 25.1222 26.9019 26.6999 25.0338C28.2776 23.1658 29.3384 20.9171 29.7769 18.5116C30.2153 16.1061 30.0161 13.6277 29.1989 11.3231C29.1544 11.3294 29.1095 11.3326 29.0645 11.3325H20.572C21.1935 11.9401 21.687 12.6661 22.0236 13.4674C22.3602 14.2688 22.533 15.1295 22.5318 15.9987C22.5359 17.6679 21.8984 19.275 20.7512 20.4876L13.6007 29.792Z" fill="url(#paint2_linear_8_990)"/>
<path d="M11.3329 15.9987C11.3329 14.7611 11.8246 13.5742 12.6996 12.6992C13.5747 11.8241 14.7616 11.3325 15.9992 11.3325C17.2367 11.3325 18.4236 11.8241 19.2987 12.6992C20.1738 13.5742 20.6654 14.7611 20.6654 15.9987C20.6654 17.2362 20.1738 18.4231 19.2987 19.2982C18.4236 20.1733 17.2367 20.6649 15.9992 20.6649C14.7616 20.6649 13.5747 20.1733 12.6996 19.2982C11.8246 18.4231 11.3329 17.2362 11.3329 15.9987Z" fill="url(#paint3_linear_8_990)"/>
</g>
<path d="M27.2 11.3333C27.4475 11.3333 27.6849 11.235 27.86 11.06C28.035 10.8849 28.1333 10.6475 28.1333 10.4C28.1333 10.1525 28.035 9.91507 27.86 9.74003C27.6849 9.565 27.4475 9.46667 27.2 9.46667V11.3333ZM7.5328 7.2528C7.48899 7.13658 7.42243 7.03028 7.33702 6.94011C7.2516 6.84995 7.14905 6.77774 7.03537 6.72771C6.92169 6.67769 6.79917 6.65086 6.67498 6.64879C6.5508 6.64672 6.42746 6.66946 6.31217 6.71567C6.19689 6.76189 6.09199 6.83064 6.00362 6.91791C5.91525 7.00519 5.84519 7.10922 5.79754 7.22391C5.74989 7.33861 5.72561 7.46166 5.72612 7.58586C5.72664 7.71006 5.75194 7.8329 5.80053 7.9472L7.5328 7.2528ZM28.1333 16C28.1333 17.5934 27.8195 19.1711 27.2097 20.6432C26.6 22.1153 25.7062 23.4529 24.5796 24.5796C23.4529 25.7062 22.1153 26.6 20.6432 27.2097C19.1711 27.8195 17.5934 28.1333 16 28.1333V30C19.713 30 23.274 28.525 25.8995 25.8995C28.525 23.274 30 19.713 30 16H28.1333ZM16 28.1333C12.782 28.1333 9.69588 26.855 7.42044 24.5796C5.145 22.3041 3.86667 19.218 3.86667 16H2C2 19.713 3.475 23.274 6.10051 25.8995C8.72601 28.525 12.287 30 16 30V28.1333ZM3.86667 16C3.86667 12.782 5.145 9.69588 7.42044 7.42044C9.69588 5.145 12.782 3.86667 16 3.86667V2C12.287 2 8.72601 3.475 6.10051 6.10051C3.475 8.72601 2 12.287 2 16H3.86667ZM16 3.86667C17.5934 3.86667 19.1711 4.1805 20.6432 4.79026C22.1153 5.40002 23.4529 6.29375 24.5796 7.42044C25.7062 8.54712 26.6 9.88469 27.2097 11.3568C27.8195 12.8289 28.1333 14.4066 28.1333 16H30C30 12.287 28.525 8.72601 25.8995 6.10051C23.274 3.475 19.713 2 16 2V3.86667ZM16 11.3333L27.2 11.3333V9.46667L16 9.46667L16 11.3333ZM11.2661 16.5861L7.5328 7.2528L5.80053 7.9472L9.53387 17.2805L11.2661 16.5861ZM19.2667 19.3619L12.4533 28.5085L13.9504 29.6248L20.7637 20.4781L19.2667 19.3619ZM16 20.6667C14.7623 20.6667 13.5753 20.175 12.7002 19.2998C11.825 18.4247 11.3333 17.2377 11.3333 16L9.46667 16C9.46667 17.7327 10.155 19.3945 11.3802 20.6198C12.6055 21.845 14.2673 22.5333 16 22.5333V20.6667ZM20.6667 16C20.6667 17.2377 20.175 18.4247 19.2998 19.2998C18.4247 20.175 17.2377 20.6667 16 20.6667V22.5333C17.7327 22.5333 19.3945 21.845 20.6198 20.6198C21.845 19.3945 22.5333 17.7327 22.5333 16H20.6667ZM16 11.3333C17.2377 11.3333 18.4247 11.825 19.2998 12.7002C20.175 13.5753 20.6667 14.7623 20.6667 16H22.5333C22.5333 14.2673 21.845 12.6055 20.6198 11.3802C19.3945 10.155 17.7327 9.46667 16 9.46667L16 11.3333ZM16 9.46667C14.2673 9.46667 12.6055 10.155 11.3802 11.3802C10.155 12.6055 9.46667 14.2673 9.46667 16L11.3333 16C11.3333 14.7623 11.825 13.5753 12.7002 12.7002C13.5753 11.825 14.7623 11.3333 16 11.3333L16 9.46667Z" fill="url(#paint4_linear_8_990)"/>
<path d="M27.2 11.3333C27.4475 11.3333 27.6849 11.235 27.86 11.06C28.035 10.8849 28.1333 10.6475 28.1333 10.4C28.1333 10.1525 28.035 9.91507 27.86 9.74003C27.6849 9.565 27.4475 9.46667 27.2 9.46667M27.2 11.3333V9.46667M27.2 11.3333L16 11.3333M27.2 9.46667L16 9.46667M7.5328 7.2528C7.48899 7.13658 7.42243 7.03028 7.33702 6.94011C7.2516 6.84995 7.14905 6.77774 7.03537 6.72771C6.92169 6.67769 6.79917 6.65086 6.67498 6.64879C6.5508 6.64672 6.42746 6.66946 6.31217 6.71567C6.19689 6.76189 6.09199 6.83064 6.00362 6.91791C5.91525 7.00519 5.84519 7.10922 5.79754 7.22391C5.74989 7.33861 5.72561 7.46166 5.72612 7.58586C5.72664 7.71006 5.75194 7.8329 5.80053 7.9472M7.5328 7.2528L5.80053 7.9472M7.5328 7.2528L11.2661 16.5861L9.53387 17.2805L5.80053 7.9472M28.1333 16C28.1333 17.5934 27.8195 19.1711 27.2097 20.6432C26.6 22.1153 25.7062 23.4529 24.5796 24.5796C23.4529 25.7062 22.1153 26.6 20.6432 27.2097C19.1711 27.8195 17.5934 28.1333 16 28.1333M28.1333 16H30M28.1333 16C28.1333 14.4066 27.8195 12.8289 27.2097 11.3568C26.6 9.88469 25.7062 8.54712 24.5796 7.42044C23.4529 6.29375 22.1153 5.40002 20.6432 4.79026C19.1711 4.1805 17.5934 3.86667 16 3.86667M16 28.1333V30M16 28.1333C12.782 28.1333 9.69588 26.855 7.42044 24.5796C5.145 22.3041 3.86667 19.218 3.86667 16M16 30C19.713 30 23.274 28.525 25.8995 25.8995C28.525 23.274 30 19.713 30 16M16 30C12.287 30 8.72601 28.525 6.10051 25.8995C3.475 23.274 2 19.713 2 16M30 16C30 12.287 28.525 8.72601 25.8995 6.10051C23.274 3.475 19.713 2 16 2M3.86667 16H2M3.86667 16C3.86667 12.782 5.145 9.69588 7.42044 7.42044C9.69588 5.145 12.782 3.86667 16 3.86667M2 16C2 12.287 3.475 8.72601 6.10051 6.10051C8.72601 3.475 12.287 2 16 2M16 3.86667V2M16 11.3333L16 9.46667M16 11.3333C17.2377 11.3333 18.4247 11.825 19.2998 12.7002C20.175 13.5753 20.6667 14.7623 20.6667 16M16 11.3333C14.7623 11.3333 13.5753 11.825 12.7002 12.7002C11.825 13.5753 11.3333 14.7623 11.3333 16M16 9.46667C17.7327 9.46667 19.3945 10.155 20.6198 11.3802C21.845 12.6055 22.5333 14.2673 22.5333 16M16 9.46667C14.2673 9.46667 12.6055 10.155 11.3802 11.3802C10.155 12.6055 9.46667 14.2673 9.46667 16M16 20.6667C14.7623 20.6667 13.5753 20.175 12.7002 19.2998C11.825 18.4247 11.3333 17.2377 11.3333 16M16 20.6667V22.5333M16 20.6667C17.2377 20.6667 18.4247 20.175 19.2998 19.2998C20.175 18.4247 20.6667 17.2377 20.6667 16M11.3333 16L9.46667 16M9.46667 16C9.46667 17.7327 10.155 19.3945 11.3802 20.6198C12.6055 21.845 14.2673 22.5333 16 22.5333M16 22.5333C17.7327 22.5333 19.3945 21.845 20.6198 20.6198C21.845 19.3945 22.5333 17.7327 22.5333 16M20.6667 16H22.5333M19.2667 19.3619L12.4533 28.5085L13.9504 29.6248L20.7637 20.4781L19.2667 19.3619Z" stroke="url(#paint5_linear_8_990)"/>
<defs>
<linearGradient id="paint0_linear_8_990" x1="6.35849" y1="2.11293" x2="15.9725" y2="20.856" gradientUnits="userSpaceOnUse">
<stop stop-color="#F9D423"/>
<stop offset="0.515624" stop-color="#FF4E50"/>
<stop offset="0.991304" stop-color="#8A2387"/>
</linearGradient>
<linearGradient id="paint1_linear_8_990" x1="1.78505" y1="7.24005" x2="23.2447" y2="22.0013" gradientUnits="userSpaceOnUse">
<stop stop-color="#F9D423"/>
<stop offset="0.515624" stop-color="#FF4E50"/>
<stop offset="0.991304" stop-color="#8A2387"/>
</linearGradient>
<linearGradient id="paint2_linear_8_990" x1="13.3636" y1="11.5069" x2="32.5313" y2="28.8561" gradientUnits="userSpaceOnUse">
<stop stop-color="#F9D423"/>
<stop offset="0.515624" stop-color="#FF4E50"/>
<stop offset="0.991304" stop-color="#8A2387"/>
</linearGradient>
<linearGradient id="paint3_linear_8_990" x1="11.1981" y1="11.4243" x2="20.819" y2="21.3396" gradientUnits="userSpaceOnUse">
<stop stop-color="#F9D423"/>
<stop offset="0.515624" stop-color="#FF4E50"/>
<stop offset="0.991304" stop-color="#8A2387"/>
</linearGradient>
<linearGradient id="paint4_linear_8_990" x1="1.59528" y1="2.27552" x2="30.4609" y2="32.0243" gradientUnits="userSpaceOnUse">
<stop stop-color="#F9D423"/>
<stop offset="0.515624" stop-color="#FF4E50"/>
<stop offset="0.991304" stop-color="#8A2387"/>
</linearGradient>
<linearGradient id="paint5_linear_8_990" x1="1.59528" y1="2.27552" x2="30.4609" y2="32.0243" gradientUnits="userSpaceOnUse">
<stop stop-color="#F9D423"/>
<stop offset="0.515624" stop-color="#FF4E50"/>
<stop offset="0.991304" stop-color="#8A2387"/>
</linearGradient>
</defs>
</svg>
