<svg width="64" height="64" viewBox="0 0 64 64" fill="none" xmlns="http://www.w3.org/2000/svg">
<path opacity="0.4" fill-rule="evenodd" clip-rule="evenodd" d="M46.3869 30H52.0344C52.6357 30 53.211 30.2747 53.577 30.7587C53.9561 31.2296 54.0868 31.8445 53.943 32.4331C53.4986 34.1729 52.8318 35.8474 51.9429 37.3909C51.0932 38.843 50.0081 40.138 48.7269 41.2369C47.4327 42.3226 45.9686 43.173 44.3998 43.7747C42.7134 44.4156 40.9486 44.8212 39.1445 44.9912C38.5954 45.0435 38.0333 44.8605 37.628 44.4811C37.2228 44.1017 36.9875 43.5654 37.0005 43.0028L37.1313 36.5015C37.1443 36.0436 37.3143 35.6119 37.6019 35.2587C37.9025 34.9186 38.3079 34.6831 38.7654 34.6046C40.0596 34.3823 41.3015 33.9244 42.4258 33.2442C43.3539 32.6555 44.1383 31.8707 44.7136 30.9288C45.0796 30.3532 45.7071 30 46.3869 30Z" fill="url(#paint0_linear_54_1391)"/>
<path opacity="0.6" fill-rule="evenodd" clip-rule="evenodd" d="M55.9658 30H46.5271C45.9982 30 45.483 29.8 45.1032 29.4266C44.7235 29.0532 44.5065 28.5597 44.4929 28.0396C44.4794 26.8794 44.276 25.7326 43.8826 24.639C43.6115 23.8389 43.1503 23.1054 42.5537 22.5053C41.9434 21.9185 41.2111 21.4784 40.411 21.2118C39.326 20.8517 38.1734 20.665 37.0342 20.665C36.4918 20.665 35.9764 20.4517 35.5967 20.0782C35.2169 19.7048 35 19.198 35 18.6646V7.99599C35 7.43589 35.2441 6.88913 35.6645 6.51572C36.0849 6.14232 36.6545 5.95562 37.2241 6.00897C38.8108 6.15565 40.3838 6.40904 41.9298 6.76911C43.3538 7.1025 44.737 7.54258 46.0932 8.10268C48.5885 9.1162 50.8396 10.6365 52.6976 12.5568C54.5148 14.5039 55.8844 16.811 56.6981 19.3314C57.1456 20.665 57.4711 22.0385 57.6745 23.4388C57.8916 24.9458 58 26.4794 58 27.9996C58 28.5331 57.7831 29.0398 57.4034 29.4133C57.0236 29.7867 56.5083 30 55.9658 30Z" fill="url(#paint1_linear_54_1391)"/>
<path opacity="0.8" fill-rule="evenodd" clip-rule="evenodd" d="M35 3.98138V18.467C35 18.9947 34.8182 19.496 34.5001 19.8786C34.1706 20.248 33.7389 20.4459 33.273 20.4459C32.1937 20.4326 31.1143 20.6305 30.0804 21.0132C29.2965 21.3298 28.5693 21.8443 27.9671 22.5171C27.3536 23.2427 26.8878 24.1134 26.581 25.0633C26.1833 26.3694 25.9561 27.7283 25.9106 29.1003C25.888 29.6148 25.7061 30.0897 25.388 30.4459C25.0699 30.8021 24.6495 31 24.2064 31H11.7086C11.2314 31 10.7883 30.7758 10.4588 30.3668C10.1407 29.971 9.97021 29.4301 10.0043 28.876C10.1292 26.9235 10.3678 24.9841 10.7087 23.0712C11.0269 21.3166 11.47 19.5883 12.038 17.9129C13.072 14.7994 14.6399 11.9629 16.6622 9.58828C18.696 7.25318 21.1387 5.44577 23.8088 4.25843C25.2403 3.61199 26.7173 3.11066 28.2284 2.75446C29.8645 2.37188 31.5233 2.12121 33.1935 2.00248C33.6594 1.9761 34.1251 2.16079 34.466 2.54338C34.8068 2.91277 35 3.42729 35 3.98138Z" fill="url(#paint2_linear_54_1391)"/>
<path fill-rule="evenodd" clip-rule="evenodd" d="M40.6662 42.6668V60.0001C40.6662 60.5735 40.4262 61.1201 39.9995 61.4935C39.5729 61.8668 38.9995 62.0535 38.4395 61.9868C36.1195 61.7201 33.8395 61.3068 31.5729 60.7335C29.4929 60.2135 27.4529 59.5201 25.4662 58.6801C21.7862 57.1335 18.4395 54.8935 15.5862 52.0935C12.7995 49.2668 10.5862 45.9335 9.0662 42.2668C8.25287 40.3201 7.59954 38.3068 7.11954 36.2535C6.5862 34.0401 6.2262 31.7868 6.01287 29.5201C5.95954 28.9601 6.1462 28.4001 6.51954 27.9868C6.89287 27.5735 7.43954 27.3335 7.99954 27.3335H26.6662C27.1862 27.3335 27.6929 27.5468 28.0662 27.9068C28.4395 28.2801 28.6529 28.7735 28.6662 29.3068C28.6929 30.9735 28.9595 32.6268 29.4662 34.2135C29.8529 35.4401 30.4929 36.5735 31.3329 37.5335C32.1729 38.4401 33.1862 39.1601 34.3195 39.6401C35.7462 40.2268 37.2529 40.5735 38.7995 40.6668C39.3062 40.7068 39.7729 40.9335 40.1195 41.2935C40.4662 41.6668 40.6662 42.1601 40.6662 42.6668Z" fill="url(#paint3_linear_54_1391)"/>
<defs>
<linearGradient id="paint0_linear_54_1391" x1="45.5" y1="45" x2="45.5" y2="30" gradientUnits="userSpaceOnUse">
<stop stop-color="#02AA93"/>
<stop offset="1" stop-color="#67FF80"/>
</linearGradient>
<linearGradient id="paint1_linear_54_1391" x1="35" y1="17.9998" x2="58" y2="17.9998" gradientUnits="userSpaceOnUse">
<stop stop-color="#FFE031"/>
<stop offset="1" stop-color="#FA0075"/>
</linearGradient>
<linearGradient id="paint2_linear_54_1391" x1="22.5" y1="31" x2="22.5" y2="2" gradientUnits="userSpaceOnUse">
<stop stop-color="#5570FF"/>
<stop offset="1" stop-color="#4DD3FF"/>
</linearGradient>
<linearGradient id="paint3_linear_54_1391" x1="40.6662" y1="46.4724" x2="6.00391" y2="46.4724" gradientUnits="userSpaceOnUse">
<stop stop-color="#FFCD1A"/>
<stop offset="1" stop-color="#FD9C0C"/>
</linearGradient>
</defs>
</svg>
