<svg width="48" height="48" viewBox="0 0 48 48" fill="none" xmlns="http://www.w3.org/2000/svg">
<path opacity="0.4" fill-rule="evenodd" clip-rule="evenodd" d="M5.39122 3.09611C6.97073 1.57665 9.1878 1.80146 10.9214 2.77253L10.93 2.77735L25.7994 11.2031L36.9515 17.5224L40.6688 19.6288L40.6731 19.6278L41.3504 20.0148C42.7936 20.8393 43.9998 22.2034 43.9998 23.9994C43.9998 25.7992 42.7893 27.1587 41.3407 27.9726L41.3368 27.9748L10.9363 45.2021C9.17694 46.2147 6.98084 46.4223 5.38556 44.8811L5.37412 44.8701L5.36285 44.8588C4.4068 43.9053 4 42.5615 4 41.1918V6.79083C4 5.46843 4.35991 4.08123 5.39122 3.09611Z" fill="url(#paint0_linear_8_922)"/>
<path opacity="0.4" fill-rule="evenodd" clip-rule="evenodd" d="M26.1273 8.11548C22.0697 8.11189 18.3734 9.64884 15.551 12.1637L15.5445 12.1702C15.1581 12.515 14.7877 12.8771 14.4353 13.2575C14.4074 13.289 14.3797 13.3206 14.352 13.3524C14.0307 13.7059 13.7242 14.0723 13.4337 14.4539C13.3884 14.5146 13.3436 14.5757 13.2992 14.6371C13.03 15.0003 12.7769 15.3733 12.5398 15.7592C12.4932 15.8354 12.4473 15.9119 12.402 15.9889C12.1776 16.3651 11.9693 16.7521 11.7759 17.1489C11.7305 17.2411 11.6859 17.3339 11.6423 17.427C11.4628 17.8119 11.2992 18.2065 11.1493 18.6076C11.1099 18.7125 11.0717 18.8178 11.0345 18.9235C10.8996 19.3106 10.781 19.7031 10.675 20.1032C10.6377 20.2411 10.6021 20.3795 10.5684 20.5184C10.4845 20.8721 10.4133 21.2312 10.353 21.5946C10.3193 21.7924 10.2892 21.9909 10.2628 22.1899C10.2242 22.4908 10.1967 22.7928 10.1744 23.098C10.1397 23.4911 10.1192 23.8854 10.113 24.28C10.1126 24.787 10.1421 25.2853 10.1867 25.7804C10.1974 25.8844 10.2091 25.9884 10.2218 26.0922C10.2694 26.5258 10.3336 26.9541 10.4145 27.3769C10.4259 27.4388 10.4376 27.5007 10.4498 27.5625C10.6622 28.6078 10.9747 29.6166 11.3757 30.5779V30.5822C12.0048 32.0853 12.8516 33.472 13.8766 34.7025C15.4675 36.613 17.4789 38.1539 19.7788 39.1569C19.8311 39.1796 19.8844 39.1861 19.9377 39.1861C20.2887 39.3406 20.6451 39.4823 21.0061 39.611L40.4549 28.4907C40.7174 28.4133 40.95 28.283 41.1539 28.0912L41.7313 27.7606C41.8629 27.1427 41.9585 26.5176 42.0178 25.8884C42.0398 25.7164 42.0501 25.5159 42.0605 25.3155C42.0638 25.2521 42.0671 25.1883 42.0707 25.1259C42.0916 24.8538 42.1057 24.5812 42.113 24.3084C42.1209 15.3734 34.9636 8.1233 26.1273 8.11548Z" fill="url(#paint1_linear_8_922)"/>
<path d="M29 16C28.4477 16 28 16.4477 28 17V21.3867C28 22.2518 26.8837 22.7933 26.0487 22.567C25.6447 22.4575 25.2251 22.4006 24.8 22.4C23.527 22.4 22.3061 22.9057 21.4059 23.8059C20.5057 24.7061 20 25.927 20 27.2C20 28.473 20.5057 29.6939 21.4059 30.5941C22.3061 31.4943 23.527 32 24.8 32C26.073 32 27.2939 31.4943 28.1941 30.5941C29.0943 29.6939 29.6 28.473 29.6 27.2V20.2C29.6 19.6477 30.0477 19.2 30.6 19.2H31.8C32.3523 19.2 32.8 18.7523 32.8 18.2V17C32.8 16.4477 32.3523 16 31.8 16H29.6H29Z" fill="url(#paint2_linear_8_922)"/>
<defs>
<linearGradient id="paint0_linear_8_922" x1="23.9999" y1="45.9997" x2="23.9999" y2="2" gradientUnits="userSpaceOnUse">
<stop stop-color="#FD5900"/>
<stop offset="1" stop-color="#FFDE00"/>
</linearGradient>
<linearGradient id="paint1_linear_8_922" x1="26.0995" y1="39.6155" x2="26.1273" y2="8.11549" gradientUnits="userSpaceOnUse">
<stop stop-color="#FD2E00"/>
<stop offset="1" stop-color="#FF9900"/>
</linearGradient>
<linearGradient id="paint2_linear_8_922" x1="26.4" y1="32" x2="26.4" y2="16" gradientUnits="userSpaceOnUse">
<stop stop-color="#FD5900"/>
<stop offset="1" stop-color="#FFDE00"/>
</linearGradient>
</defs>
</svg>
