<svg width="23" height="24" viewBox="0 0 23 24" fill="none" xmlns="http://www.w3.org/2000/svg">
<path opacity="0.4" d="M0.958313 12C0.958313 6.8146 0.958313 5.2219 2.50161 3.6104C4.04702 2 6.53064 2 11.5 2C16.4693 2 18.954 2 20.4973 3.6104C22.0416 5.223 22.0416 6.8146 22.0416 12C22.0416 17.1854 22.0416 18.7781 20.4973 20.3885C18.955 22 16.4693 22 11.5 22C6.53064 22 4.04597 22 2.50161 20.3885C0.958313 18.7792 0.958313 17.1854 0.958313 12Z" fill="url(#paint0_linear_308_266)"/>
<path fill-rule="evenodd" clip-rule="evenodd" d="M6.9388 6.20253C6.9388 6.09067 7.02569 6 7.13289 6H8.29745C8.40465 6 8.49154 6.09067 8.49154 6.20253V7.41772C8.49154 7.52958 8.57843 7.62025 8.68563 7.62025H9.26792C10.1862 7.62025 10.9696 8.17377 11.348 8.97655C11.4071 9.10202 11.3139 9.24051 11.1799 9.24051H9.26792H8.68563C8.57843 9.24051 8.49154 9.33118 8.49154 9.44304V10.6582C8.49154 10.7701 8.57843 10.8608 8.68563 10.8608H9.26792C10.5582 10.8608 11.5971 11.9447 11.5971 13.2911C11.5971 14.6376 10.5582 15.7215 9.26792 15.7215H8.68563C8.57843 15.7215 8.49154 15.8122 8.49154 15.9241V17.1392C8.49154 17.2511 8.40465 17.3418 8.29745 17.3418H7.13289C7.02569 17.3418 6.9388 17.2511 6.9388 17.1392V15.9241C6.9388 15.8122 6.8519 15.7215 6.7447 15.7215H6.16243C5.24413 15.7215 4.46068 15.168 4.08239 14.3652C4.02325 14.2398 4.11645 14.1013 4.25046 14.1013H6.16243H6.7447C6.8519 14.1013 6.9388 14.0106 6.9388 13.8987V12.6835C6.9388 12.5717 6.8519 12.481 6.7447 12.481H6.16243C4.8721 12.481 3.83331 11.3971 3.83331 10.0506C3.83331 8.7042 4.8721 7.62025 6.16243 7.62025H6.7447C6.8519 7.62025 6.9388 7.52958 6.9388 7.41772V6.20253ZM6.7447 9.24051H6.16243C5.70546 9.24051 5.38605 9.57379 5.38605 10.0506C5.38605 10.5275 5.70546 10.8608 6.16243 10.8608H6.7447C6.8519 10.8608 6.9388 10.7701 6.9388 10.6582V9.44304C6.9388 9.33118 6.8519 9.24051 6.7447 9.24051ZM8.68563 12.481C8.57843 12.481 8.49154 12.5717 8.49154 12.6835V13.8987C8.49154 14.0106 8.57843 14.1013 8.68563 14.1013H9.26792C9.72486 14.1013 10.0443 13.768 10.0443 13.2911C10.0443 12.8143 9.72486 12.481 9.26792 12.481H8.68563ZM13.3439 14.9114H18.7784C18.9929 14.9114 19.1666 15.0927 19.1666 15.3165V16.1266C19.1666 16.3503 18.9929 16.5316 18.7784 16.5316H13.3439C13.1294 16.5316 12.9557 16.3503 12.9557 16.1266V15.3165C12.9557 15.0927 13.1294 14.9114 13.3439 14.9114Z" fill="url(#paint1_linear_308_266)"/>
<defs>
<linearGradient id="paint0_linear_308_266" x1="21.0865" y1="2.34374" x2="2.87851" y2="22.5223" gradientUnits="userSpaceOnUse">
<stop stop-color="#D800BD"/>
<stop offset="0.408098" stop-color="#F92D7A"/>
<stop offset="0.590073" stop-color="#FF4A52"/>
<stop offset="1" stop-color="#FFB243"/>
</linearGradient>
<linearGradient id="paint1_linear_308_266" x1="18.472" y1="6.19493" x2="8.7018" y2="20.0809" gradientUnits="userSpaceOnUse">
<stop stop-color="#D800BD"/>
<stop offset="0.408098" stop-color="#F92D7A"/>
<stop offset="0.590073" stop-color="#FF4A52"/>
<stop offset="1" stop-color="#FFB243"/>
</linearGradient>
</defs>
</svg>
