<svg width="32" height="32" viewBox="0 0 32 32" fill="none" xmlns="http://www.w3.org/2000/svg">
<path opacity="0.4" d="M13.2291 6.3335C13.3055 6.489 13.356 6.65552 13.3786 6.82672L13.7962 13.0366L14.0035 16.1578C14.0057 16.4788 14.0561 16.7977 14.153 17.1043C14.4034 17.699 15.0057 18.0771 15.6611 18.0507L25.647 17.3975C26.0794 17.3904 26.497 17.5521 26.8079 17.8471C27.0669 18.093 27.2342 18.4145 27.2868 18.7604L27.3045 18.9705C26.8913 24.6925 22.6887 29.4652 16.9785 30.6972C11.2683 31.9292 5.4128 29.3266 2.59106 24.3025C1.77758 22.8429 1.26948 21.2386 1.09657 19.5837C1.02434 19.0938 0.992537 18.5989 1.00147 18.104C0.99255 11.9693 5.36121 6.66564 11.4765 5.38706C12.2125 5.27246 12.934 5.66209 13.2291 6.3335Z" fill="url(#paint0_linear_681_92)"/>
<path d="M17.305 1.00123C24.1448 1.17524 29.8934 6.09368 31 12.7184L30.9894 12.7673L30.9592 12.8384L30.9634 13.0335C30.9477 13.2921 30.8479 13.5408 30.6759 13.7417C30.4967 13.951 30.2519 14.0935 29.9824 14.1489L29.818 14.1714L18.2968 14.9179C17.9136 14.9557 17.532 14.8321 17.247 14.5779C17.0095 14.3661 16.8577 14.0801 16.8148 13.772L16.0415 2.26759C16.028 2.22869 16.028 2.18652 16.0415 2.14762C16.052 1.83051 16.1916 1.53076 16.429 1.31534C16.6665 1.09993 16.9819 0.986798 17.305 1.00123Z" fill="url(#paint1_linear_681_92)"/>
<defs>
<linearGradient id="paint0_linear_681_92" x1="1" y1="18.1837" x2="27.3045" y2="18.1837" gradientUnits="userSpaceOnUse">
<stop stop-color="#CDF97D"/>
<stop offset="1" stop-color="#A2EA99"/>
</linearGradient>
<linearGradient id="paint1_linear_681_92" x1="16.0314" y1="7.96229" x2="31" y2="7.96229" gradientUnits="userSpaceOnUse">
<stop stop-color="#CDF97D"/>
<stop offset="1" stop-color="#A2EA99"/>
</linearGradient>
</defs>
</svg>
