<svg width="64" height="64" viewBox="0 0 64 64" fill="none" xmlns="http://www.w3.org/2000/svg">
<path opacity="0.4" d="M32 60C47.464 60 60 47.464 60 32C60 16.536 47.464 4 32 4C16.536 4 4 16.536 4 32C4 47.464 16.536 60 32 60Z" fill="url(#paint0_linear_216_151)"/>
<path d="M21.403 12.7069C21.0125 12.3165 20.3794 12.3165 19.9889 12.707L12.7071 19.9888C12.3166 20.3793 12.3166 21.0125 12.7071 21.403L19.2396 27.9355C19.5262 28.2221 19.9576 28.3074 20.3317 28.1513L30.6103 23.8638C31.2671 23.5898 31.4356 22.7368 30.9323 22.2336L21.403 12.7069ZM40.2718 25.0273C40.6222 24.2022 39.7938 23.3684 38.9665 23.7134L19.2578 31.9318C18.3841 32.2961 18.4587 33.5577 19.3692 33.8166L27.1699 36.0345C27.5065 36.1302 27.7686 36.3949 27.861 36.7324L30.0171 44.6087C30.2675 45.5233 31.5314 45.6083 31.9021 44.7355L40.2718 25.0273ZM41.7141 33.0179C41.2128 32.5167 40.3636 32.6818 40.0866 33.3343L35.7461 43.5577C35.5868 43.9329 35.6712 44.3672 35.9594 44.6555L42.594 51.2926C42.9845 51.6833 43.6177 51.6833 44.0083 51.2928L51.2928 44.0083C51.6834 43.6177 51.6833 42.9845 51.2927 42.594L41.7141 33.0179Z" fill="url(#paint1_linear_216_151)"/>
<defs>
<linearGradient id="paint0_linear_216_151" x1="32" y1="60" x2="32" y2="4" gradientUnits="userSpaceOnUse">
<stop stop-color="#00B59C"/>
<stop offset="1" stop-color="#9CFFAC"/>
</linearGradient>
<linearGradient id="paint1_linear_216_151" x1="32" y1="52" x2="32" y2="12" gradientUnits="userSpaceOnUse">
<stop stop-color="#00B59C"/>
<stop offset="1" stop-color="#9CFFAC"/>
</linearGradient>
</defs>
</svg>
