<svg width="16" height="16" viewBox="0 0 16 16" fill="none" xmlns="http://www.w3.org/2000/svg">
<path d="M4.11752 1.0003C4.00421 0.994716 3.8973 1.0678 3.86632 1.18144L2.34887 6.6822C2.31432 6.81371 2.3934 6.94838 2.52488 6.98295L6.88242 8.06123C6.95558 8.08098 7.02987 8.06412 7.08749 8.02364L7.38141 6.92827L9.07145 7.38111V7.38282L13.6101 8.53971C13.7417 8.5742 13.8765 8.49521 13.9109 8.3637L14.9909 4.16678C15.0254 4.03524 14.9464 3.9005 14.8149 3.86603L4.16537 1.00713C4.14906 1.00299 4.13371 1.0011 4.11752 1.0003Z" fill="url(#paint0_linear_311_494)"/>
<path opacity="0.4" d="M2.34033 7.45104C2.22597 7.4448 2.11926 7.52052 2.08913 7.6356L1.00914 11.8325C0.974615 11.9641 1.05363 12.0988 1.18515 12.1333L11.8346 14.9922C11.9651 15.0253 12.0983 14.9477 12.1337 14.8179L13.6511 9.3171C13.6857 9.18558 13.6066 9.05092 13.4751 9.01634L9.11759 7.93806C9.04443 7.91831 8.97015 7.93517 8.91253 7.97566L8.61861 9.07102L6.92857 8.61818V8.61647L2.38988 7.45959C2.37344 7.45528 2.35667 7.45193 2.34033 7.45104Z" fill="url(#paint1_linear_311_494)"/>
<defs>
<linearGradient id="paint0_linear_311_494" x1="8.66987" y1="8.5478" x2="8.66987" y2="1" gradientUnits="userSpaceOnUse">
<stop stop-color="#5570FF"/>
<stop offset="1" stop-color="#4DD3FF"/>
</linearGradient>
<linearGradient id="paint1_linear_311_494" x1="7.33015" y1="14.9998" x2="7.33015" y2="7.45068" gradientUnits="userSpaceOnUse">
<stop stop-color="#5570FF"/>
<stop offset="1" stop-color="#4DD3FF"/>
</linearGradient>
</defs>
</svg>
