<svg width="64" height="64" viewBox="0 0 64 64" fill="none" xmlns="http://www.w3.org/2000/svg">
<path fill-rule="evenodd" clip-rule="evenodd" d="M31.4526 4H23.263C22.9868 4 22.763 4.22386 22.763 4.5V12.6896V21.3792V29.5688C22.763 29.845 22.5391 30.0688 22.263 30.0688H16.0435C15.5927 30.0688 15.3721 30.6185 15.6979 30.9302L23.125 38.0344L31.107 45.6693C31.3003 45.8542 31.6049 45.8542 31.7982 45.6693L39.7802 38.0344L47.2073 30.9302C47.5331 30.6185 47.3125 30.0688 46.8617 30.0688H40.6423C40.3661 30.0688 40.1423 29.845 40.1423 29.5688V21.3793V12.6897V4.5C40.1423 4.22386 39.9184 4 39.6423 4H31.4526Z" fill="url(#paint0_linear_37_86)"/>
<path opacity="0.4" fill-rule="evenodd" clip-rule="evenodd" d="M9.25 61.5C11.8014 61.5 14.0195 60.085 15.1671 58H25.4996C26.6472 60.085 28.8652 61.5 31.4167 61.5C34.3557 61.5 36.856 59.6217 37.7826 57H49.4705C49.8864 57.978 50.5663 58.8239 51.437 59.4411C52.4053 60.1274 53.5621 60.4973 54.749 60.5H54.7502C56.2751 60.5 57.7377 59.8942 58.8161 58.8158C59.8943 57.7375 60.5002 56.275 60.5002 54.75C60.5002 53.225 59.8943 51.7625 58.816 50.6841C57.7377 49.6058 56.2751 49 54.7502 49L54.749 49C53.5621 49.0027 52.4052 49.3726 51.4369 50.0589C50.5663 50.6761 49.8864 51.522 49.4705 52.5H37.7826C36.856 49.8783 34.3557 48 31.4167 48C28.8652 48 26.6472 49.415 25.4996 51.5H15.1671C14.0195 49.415 11.8014 48 9.25 48C5.52208 48 2.5 51.0221 2.5 54.75C2.5 58.4779 5.52208 61.5 9.25 61.5Z" fill="url(#paint1_linear_37_86)"/>
<defs>
<linearGradient id="paint0_linear_37_86" x1="41.6042" y1="4" x2="6.77134" y2="36.3693" gradientUnits="userSpaceOnUse">
<stop stop-color="#DE00C0"/>
<stop offset="1" stop-color="#8720FF"/>
</linearGradient>
<linearGradient id="paint1_linear_37_86" x1="50.0039" y1="48" x2="45.8547" y2="69.765" gradientUnits="userSpaceOnUse">
<stop stop-color="#DE00C0"/>
<stop offset="1" stop-color="#8720FF"/>
</linearGradient>
</defs>
</svg>
