<svg width="128" height="128" viewBox="0 0 128 128" fill="none" xmlns="http://www.w3.org/2000/svg">
<path opacity="0.4" d="M64 6C32.143 6 6 32.143 6 64C6 95.857 32.143 122 64 122C95.857 122 122 95.857 122 64C122 32.143 95.857 6 64 6Z" fill="url(#paint0_linear_80_377)"/>
<path fill-rule="evenodd" clip-rule="evenodd" d="M96.3691 32.6306C100.792 37.0538 104.261 42.197 106.683 47.9195C107.544 49.9588 106.593 52.3113 104.553 53.1722C102.523 54.0312 100.164 53.0888 99.3009 51.0428C97.2811 46.2756 94.3886 41.9855 90.7015 38.2984C87.0142 34.6112 82.7245 31.7187 77.957 29.6989C75.9177 28.8379 74.9664 26.4854 75.8277 24.4461C76.6886 22.3991 79.0528 21.4596 81.0803 22.3168C86.8028 24.7398 91.9461 28.2076 96.3691 32.6306ZM63.7529 54.0647C57.2699 54.0647 51.9958 59.3387 51.9958 65.8218C51.9958 72.3049 57.2699 77.5789 63.7529 77.5789C70.236 77.5789 75.51 72.3049 75.51 65.8218C75.51 59.3387 70.236 54.0647 63.7529 54.0647ZM63.7529 70.0971C61.3941 70.0971 59.4776 68.1806 59.4776 65.8218C59.4776 63.463 61.3941 61.5465 63.7529 61.5465C66.1117 61.5465 68.0282 63.463 68.0282 65.8218C68.0282 68.1806 66.1117 70.0971 63.7529 70.0971ZM50.0434 98.1653C45.2759 96.1454 40.9861 93.2529 37.2989 89.5657C33.6118 85.8786 30.7192 81.5885 28.6994 76.8213C27.8382 74.7783 25.4662 73.827 23.4467 74.6919C21.4074 75.5532 20.4563 77.9053 21.3173 79.9447C23.7401 85.6671 27.2081 90.8103 31.6312 95.2335C36.0542 99.6565 41.1974 103.124 46.9199 105.547C48.9561 106.408 51.3115 105.459 52.1727 103.418C53.0336 101.379 52.0824 99.0264 50.0434 98.1653Z" fill="url(#paint1_linear_80_377)"/>
<path d="M106.683 47.9195L108.525 47.1412L108.524 47.1399L106.683 47.9195ZM96.3691 32.6306L97.7833 31.2164L97.7833 31.2164L96.3691 32.6306ZM104.553 53.1722L103.776 51.3297L103.774 51.3302L104.553 53.1722ZM99.3009 51.0428L101.144 50.2653L101.142 50.2625L99.3009 51.0428ZM90.7015 38.2984L92.1157 36.8842L92.1157 36.8842L90.7015 38.2984ZM77.957 29.6989L78.7372 27.8573L78.7349 27.8563L77.957 29.6989ZM75.8277 24.4461L77.6701 25.2242L77.6713 25.2215L75.8277 24.4461ZM81.0803 22.3168L81.8601 20.4751L81.8591 20.4747L81.0803 22.3168ZM37.2989 89.5657L38.7131 88.1515L38.7131 88.1515L37.2989 89.5657ZM50.0434 98.1653L49.2632 100.007L49.2652 100.008L50.0434 98.1653ZM28.6994 76.8213L26.8565 77.5982L26.8579 77.6015L28.6994 76.8213ZM23.4467 74.6919L24.2248 76.5344L24.234 76.5304L23.4467 74.6919ZM21.3173 79.9447L19.4747 80.7225L19.4755 80.7244L21.3173 79.9447ZM31.6312 95.2335L33.0454 93.8193L33.0454 93.8193L31.6312 95.2335ZM46.9199 105.547L46.1402 107.389L46.1406 107.389L46.9199 105.547ZM52.1727 103.418L50.3302 102.64L50.33 102.641L52.1727 103.418ZM108.524 47.1399C106.002 41.179 102.388 35.8206 97.7833 31.2164L94.9549 34.0449C99.197 38.2869 102.52 43.2149 104.841 48.699L108.524 47.1399ZM105.331 55.0147C108.392 53.7227 109.815 50.1948 108.525 47.1412L104.84 48.6977C105.273 49.7228 104.794 50.8998 103.776 51.3297L105.331 55.0147ZM97.4582 51.8203C98.7542 54.8919 102.291 56.3008 105.333 55.0142L103.774 51.3302C102.754 51.7617 101.574 51.2858 101.144 50.2653L97.4582 51.8203ZM89.2872 39.7126C92.7933 43.2187 95.5403 47.2937 97.4594 51.823L101.142 50.2625C99.0218 45.2575 95.9839 40.7524 92.1157 36.8842L89.2872 39.7126ZM77.1768 31.5404C81.7064 33.4595 85.7811 36.2065 89.2872 39.7126L92.1157 36.8842C88.2474 33.0159 83.7426 29.978 78.7372 27.8573L77.1768 31.5404ZM73.9852 23.668C72.6957 26.7215 74.1186 30.2493 77.1791 31.5414L78.7349 27.8563C77.7167 27.4265 77.2372 26.2494 77.6701 25.2242L73.9852 23.668ZM81.8591 20.4747C78.8245 19.1917 75.2787 20.5926 73.9841 23.6707L77.6713 25.2215C78.0985 24.2056 79.281 23.7275 80.3015 24.1589L81.8591 20.4747ZM97.7833 31.2164C93.1792 26.6123 87.8208 22.9989 81.8601 20.4751L80.3005 24.1585C85.7849 26.4807 90.713 29.803 94.9549 34.0449L97.7833 31.2164ZM53.9958 65.8218C53.9958 60.4433 58.3744 56.0647 63.7529 56.0647V52.0647C56.1653 52.0647 49.9958 58.2341 49.9958 65.8218H53.9958ZM63.7529 75.5789C58.3744 75.5789 53.9958 71.2003 53.9958 65.8218H49.9958C49.9958 73.4094 56.1653 79.5789 63.7529 79.5789V75.5789ZM73.51 65.8218C73.51 71.2003 69.1314 75.5789 63.7529 75.5789V79.5789C71.3406 79.5789 77.51 73.4094 77.51 65.8218H73.51ZM63.7529 56.0647C69.1314 56.0647 73.51 60.4433 73.51 65.8218H77.51C77.51 58.2341 71.3406 52.0647 63.7529 52.0647V56.0647ZM57.4776 65.8218C57.4776 69.2852 60.2896 72.0971 63.7529 72.0971V68.0971C62.4987 68.0971 61.4776 67.076 61.4776 65.8218H57.4776ZM63.7529 59.5465C60.2896 59.5465 57.4776 62.3584 57.4776 65.8218H61.4776C61.4776 64.5676 62.4987 63.5465 63.7529 63.5465V59.5465ZM70.0282 65.8218C70.0282 62.3584 67.2163 59.5465 63.7529 59.5465V63.5465C65.0072 63.5465 66.0282 64.5676 66.0282 65.8218H70.0282ZM63.7529 72.0971C67.2163 72.0971 70.0282 69.2852 70.0282 65.8218H66.0282C66.0282 67.076 65.0072 68.0971 63.7529 68.0971V72.0971ZM35.8847 90.9799C39.753 94.8482 44.2577 97.8861 49.2632 100.007L50.8236 96.3237C46.294 94.4046 42.2193 91.6577 38.7131 88.1515L35.8847 90.9799ZM26.8579 77.6015C28.9785 82.6066 32.0165 87.1117 35.8847 90.9799L38.7131 88.1515C35.207 84.6454 32.4599 80.5704 30.541 76.0411L26.8579 77.6015ZM24.234 76.5304C25.2328 76.1027 26.4255 76.5758 26.8565 77.5982L30.5424 76.0444C29.2509 72.9808 25.6996 71.5514 22.6593 72.8534L24.234 76.5304ZM23.1598 79.1668C22.727 78.1415 23.2064 76.9644 24.2248 76.5343L22.6686 72.8495C19.6083 74.1419 18.1857 77.6692 19.4747 80.7225L23.1598 79.1668ZM33.0454 93.8193C28.8034 89.5772 25.481 84.6492 23.159 79.1649L19.4755 80.7244C21.9992 86.6851 25.6128 92.0435 30.217 96.6477L33.0454 93.8193ZM47.6996 103.705C42.2154 101.383 37.2873 98.0612 33.0454 93.8193L30.217 96.6477C34.8212 101.252 40.1795 104.865 46.1402 107.389L47.6996 103.705ZM50.33 102.641C49.9003 103.659 48.7216 104.138 47.6992 103.705L46.1406 107.389C49.1905 108.679 52.7228 107.259 54.0154 104.195L50.33 102.641ZM49.2652 100.008C50.2834 100.438 50.7629 101.615 50.3302 102.64L54.0152 104.196C55.3043 101.143 53.8814 97.6151 50.8215 96.3228L49.2652 100.008Z" fill="url(#paint2_linear_80_377)"/>
<defs>
<linearGradient id="paint0_linear_80_377" x1="64" y1="122" x2="64" y2="6" gradientUnits="userSpaceOnUse">
<stop stop-color="#5570FF"/>
<stop offset="1" stop-color="#4DD3FF"/>
</linearGradient>
<linearGradient id="paint1_linear_80_377" x1="64" y1="105.865" x2="64" y2="22" gradientUnits="userSpaceOnUse">
<stop stop-color="#5570FF"/>
<stop offset="1" stop-color="#4DD3FF"/>
</linearGradient>
<linearGradient id="paint2_linear_80_377" x1="64" y1="105.865" x2="64" y2="22" gradientUnits="userSpaceOnUse">
<stop stop-color="#5570FF"/>
<stop offset="1" stop-color="#4DD3FF"/>
</linearGradient>
</defs>
</svg>
