<svg width="24" height="24" viewBox="0 0 24 24" fill="none" xmlns="http://www.w3.org/2000/svg">
<path opacity="0.4" d="M23 12C23 18.0753 18.0753 23 12 23C5.9247 23 1 18.0753 1 12C1 5.9247 5.9247 1 12 1C18.0753 1 23 5.9247 23 12Z" fill="url(#paint0_linear_39_193)"/>
<path d="M8.89165 10.3659C8.58446 10.6725 8.34075 11.0367 8.17447 11.4376C8.00819 11.8385 7.92261 12.2683 7.92261 12.7023C7.92261 13.1363 8.00819 13.5661 8.17447 13.967C8.34075 14.3679 8.58446 14.7321 8.89165 15.0387C9.5126 15.6584 10.3541 16.0065 11.2313 16.0065C12.1086 16.0065 12.9501 15.6584 13.571 15.0387C14.0627 14.5481 14.407 13.5284 14.6424 12.4537C14.9966 10.8477 15.1737 10.0447 14.5324 9.40448C13.8922 8.76538 13.0881 8.94248 11.4788 9.29448C10.403 9.53208 9.38335 9.87418 8.89165 10.3659Z" fill="url(#paint1_linear_39_193)"/>
<path d="M3.662 4.8236C4.0206 4.4089 4.4089 4.0206 4.8247 3.6631C4.84495 3.67977 4.8644 3.69739 4.883 3.7159L6.533 5.3659C6.68335 5.52142 6.76661 5.72978 6.76483 5.94609C6.76305 6.16241 6.67639 6.36937 6.5235 6.5224C6.37061 6.67544 6.16372 6.7623 5.94741 6.76428C5.7311 6.76626 5.52266 6.68321 5.367 6.533L3.717 4.883C3.69771 4.8641 3.67935 4.84428 3.662 4.8236ZM1.0308 12.825C0.99006 12.2758 0.99006 11.7242 1.0308 11.175H3.2C3.4188 11.175 3.62864 11.2619 3.78336 11.4166C3.93808 11.5714 4.025 11.7812 4.025 12C4.025 12.2188 3.93808 12.4286 3.78336 12.5834C3.62864 12.7381 3.4188 12.825 3.2 12.825H1.0308ZM4.8236 20.338C4.40853 19.9801 4.02063 19.5918 3.6631 19.1764C3.68007 19.1554 3.69806 19.1352 3.717 19.1159L5.367 17.4659C5.52266 17.3157 5.7311 17.2326 5.94741 17.2346C6.16372 17.2366 6.37061 17.3235 6.5235 17.4765C6.67639 17.6295 6.76305 17.8365 6.76483 18.0528C6.76661 18.2691 6.68335 18.4775 6.533 18.633L4.883 20.283C4.86411 20.3023 4.84428 20.3206 4.8236 20.338ZM20.338 19.1753C19.9794 19.5911 19.5911 19.9794 19.1764 20.3369C19.1557 20.3199 19.1359 20.3019 19.117 20.283L17.467 18.633C17.3859 18.5575 17.3209 18.4664 17.2758 18.3652C17.2307 18.264 17.2065 18.1547 17.2045 18.044C17.2026 17.9332 17.223 17.8232 17.2645 17.7204C17.306 17.6177 17.3677 17.5244 17.4461 17.4461C17.5244 17.3677 17.6177 17.306 17.7204 17.2645C17.8232 17.223 17.9332 17.2026 18.044 17.2045C18.1547 17.2065 18.264 17.2307 18.3652 17.2758C18.4664 17.3209 18.5575 17.3859 18.633 17.467L20.283 19.117C20.3023 19.1355 20.3206 19.155 20.338 19.1753ZM22.9692 11.175C23.01 11.7242 23.01 12.2758 22.9692 12.825H20.8C20.5812 12.825 20.3714 12.7381 20.2166 12.5834C20.0619 12.4286 19.975 12.2188 19.975 12C19.975 11.7812 20.0619 11.5714 20.2166 11.4166C20.3714 11.2619 20.5812 11.175 20.8 11.175H22.9692ZM19.1753 3.662C19.5911 4.0206 19.9794 4.4089 20.3369 4.8236C20.3199 4.84429 20.302 4.86411 20.283 4.883L18.633 6.533C18.5575 6.61405 18.4664 6.67906 18.3652 6.72416C18.264 6.76925 18.1547 6.79349 18.044 6.79545C17.9332 6.7974 17.8232 6.77702 17.7204 6.73553C17.6177 6.69404 17.5244 6.63228 17.4461 6.55394C17.3677 6.4756 17.306 6.38228 17.2645 6.27955C17.223 6.17683 17.2026 6.06679 17.2045 5.95602C17.2065 5.84525 17.2307 5.736 17.2758 5.6348C17.3209 5.5336 17.3859 5.44252 17.467 5.367L19.117 3.717C19.1355 3.69771 19.155 3.67936 19.1753 3.662ZM12.825 1.0308V3.2C12.825 3.4188 12.7381 3.62864 12.5834 3.78336C12.4286 3.93808 12.2188 4.025 12 4.025C11.7812 4.025 11.5714 3.93808 11.4166 3.78336C11.2619 3.62864 11.175 3.4188 11.175 3.2V1.0308C11.7242 0.99006 12.2758 0.99006 12.825 1.0308Z" fill="url(#paint2_linear_39_193)"/>
<defs>
<linearGradient id="paint0_linear_39_193" x1="22.9348" y1="1.13947" x2="1.10885" y2="22.7838" gradientUnits="userSpaceOnUse">
<stop stop-color="#FE7970"/>
<stop offset="1" stop-color="#DC3282"/>
</linearGradient>
<linearGradient id="paint1_linear_39_193" x1="7.94346" y1="15.9619" x2="14.917" y2="9.03707" gradientUnits="userSpaceOnUse">
<stop stop-color="#FE7970"/>
<stop offset="1" stop-color="#DC3282"/>
</linearGradient>
<linearGradient id="paint2_linear_39_193" x1="22.9346" y1="1.12284" x2="3.88785" y2="22.611" gradientUnits="userSpaceOnUse">
<stop stop-color="#FE7970"/>
<stop offset="1" stop-color="#DC3282"/>
</linearGradient>
</defs>
</svg>
