<svg width="24" height="24" viewBox="0 0 24 24" fill="none" xmlns="http://www.w3.org/2000/svg">
<path fill-rule="evenodd" clip-rule="evenodd" d="M4 9C4.19891 9 4.38968 9.07902 4.53033 9.21967C4.67098 9.36032 4.75 9.55109 4.75 9.75V10.75C4.75 11.7021 4.93753 12.6448 5.30187 13.5245C5.66622 14.4041 6.20025 15.2033 6.87348 15.8765C7.5467 16.5497 8.34593 17.0838 9.22554 17.4481C10.1052 17.8125 11.0479 18 12 18C12.9521 18 13.8948 17.8125 14.7745 17.4481C15.6541 17.0838 16.4533 16.5497 17.1265 15.8765C17.7997 15.2033 18.3338 14.4041 18.6981 13.5245C19.0625 12.6448 19.25 11.7021 19.25 10.75V9.75C19.25 9.55109 19.329 9.36032 19.4697 9.21967C19.6103 9.07902 19.8011 9 20 9C20.1989 9 20.3897 9.07902 20.5303 9.21967C20.671 9.36032 20.75 9.55109 20.75 9.75V10.75C20.7501 12.9408 19.9282 15.052 18.447 16.6662C16.9657 18.2804 14.9328 19.2802 12.75 19.468V21.75C12.75 21.9489 12.671 22.1397 12.5303 22.2803C12.3897 22.421 12.1989 22.5 12 22.5C11.8011 22.5 11.6103 22.421 11.4697 22.2803C11.329 22.1397 11.25 21.9489 11.25 21.75V19.468C9.06722 19.2802 7.0343 18.2804 5.55303 16.6662C4.07177 15.052 3.24995 12.9408 3.25 10.75V9.75C3.25 9.55109 3.32902 9.36032 3.46967 9.21967C3.61032 9.07902 3.80109 9 4 9Z" fill="url(#paint0_linear_8_639)"/>
<path opacity="0.5" fill-rule="evenodd" clip-rule="evenodd" d="M12 2C10.475 2 9.01247 2.6058 7.93414 3.68414C6.8558 4.76247 6.25 6.22501 6.25 7.75V10.75C6.25 12.275 6.8558 13.7375 7.93414 14.8159C9.01247 15.8942 10.475 16.5 12 16.5C13.525 16.5 14.9875 15.8942 16.0659 14.8159C17.1442 13.7375 17.75 12.275 17.75 10.75V7.75C17.75 6.22501 17.1442 4.76247 16.0659 3.68414C14.9875 2.6058 13.525 2 12 2ZM14 11.5C14.1989 11.5 14.3897 11.421 14.5303 11.2803C14.671 11.1397 14.75 10.9489 14.75 10.75C14.75 10.5511 14.671 10.3603 14.5303 10.2197C14.3897 10.079 14.1989 10 14 10H10C9.80109 10 9.61032 10.079 9.46967 10.2197C9.32902 10.3603 9.25 10.5511 9.25 10.75C9.25 10.9489 9.32902 11.1397 9.46967 11.2803C9.61032 11.421 9.80109 11.5 10 11.5H14ZM13.75 7.75C13.75 7.94891 13.671 8.13968 13.5303 8.28033C13.3897 8.42098 13.1989 8.5 13 8.5H11C10.8011 8.5 10.6103 8.42098 10.4697 8.28033C10.329 8.13968 10.25 7.94891 10.25 7.75C10.25 7.55109 10.329 7.36032 10.4697 7.21967C10.6103 7.07902 10.8011 7 11 7H13C13.1989 7 13.3897 7.07902 13.5303 7.21967C13.671 7.36032 13.75 7.55109 13.75 7.75Z" fill="url(#paint1_linear_8_639)"/>
<path d="M14 11.5C14.1989 11.5 14.3897 11.421 14.5303 11.2803C14.671 11.1397 14.75 10.9489 14.75 10.75C14.75 10.5511 14.671 10.3603 14.5303 10.2197C14.3897 10.079 14.1989 10 14 10H10C9.80109 10 9.61032 10.079 9.46967 10.2197C9.32902 10.3603 9.25 10.5511 9.25 10.75C9.25 10.9489 9.32902 11.1397 9.46967 11.2803C9.61032 11.421 9.80109 11.5 10 11.5H14ZM13 8.5C13.1989 8.5 13.3897 8.42098 13.5303 8.28033C13.671 8.13968 13.75 7.94891 13.75 7.75C13.75 7.55109 13.671 7.36032 13.5303 7.21967C13.3897 7.07902 13.1989 7 13 7H11C10.8011 7 10.6103 7.07902 10.4697 7.21967C10.329 7.36032 10.25 7.55109 10.25 7.75C10.25 7.94891 10.329 8.13968 10.4697 8.28033C10.6103 8.42098 10.8011 8.5 11 8.5H13Z" fill="url(#paint2_linear_8_639)"/>
<defs>
<linearGradient id="paint0_linear_8_639" x1="12" y1="22.5" x2="12" y2="9" gradientUnits="userSpaceOnUse">
<stop stop-color="#02AA93"/>
<stop offset="1" stop-color="#67FF80"/>
</linearGradient>
<linearGradient id="paint1_linear_8_639" x1="12" y1="16.5" x2="12" y2="2" gradientUnits="userSpaceOnUse">
<stop stop-color="#02AA93"/>
<stop offset="1" stop-color="#67FF80"/>
</linearGradient>
<linearGradient id="paint2_linear_8_639" x1="12" y1="11.5" x2="12" y2="7" gradientUnits="userSpaceOnUse">
<stop stop-color="#02AA93"/>
<stop offset="1" stop-color="#67FF80"/>
</linearGradient>
</defs>
</svg>
