<svg width="32" height="32" viewBox="0 0 32 32" fill="none" xmlns="http://www.w3.org/2000/svg">
<path d="M16.317 19.962C14.0707 19.962 12.2537 18.212 12.2537 16.014C12.2537 13.816 14.0707 12.052 16.317 12.052C18.5632 12.052 20.3373 13.816 20.3373 16.014C20.3373 18.212 18.5632 19.962 16.317 19.962" fill="url(#paint0_linear_5_77)"/>
<path opacity="0.4" d="M29.2222 19.318C28.9503 18.898 28.564 18.478 28.0633 18.212C27.6627 18.016 27.4051 17.694 27.1762 17.316C26.4465 16.112 26.8758 14.53 28.0919 13.816C29.5226 13.018 29.9805 11.24 29.1506 9.854L28.1921 8.202C27.3765 6.816 25.5881 6.326 24.1717 7.138C22.9126 7.81 21.2959 7.362 20.5662 6.172C20.3373 5.78 20.2085 5.36 20.2371 4.94C20.2801 4.394 20.1084 3.876 19.8508 3.456C19.3215 2.588 18.3629 2 17.3041 2H15.2868C14.2423 2.028 13.2837 2.588 12.7544 3.456C12.4825 3.876 12.3251 4.394 12.3538 4.94C12.3824 5.36 12.2536 5.78 12.0247 6.172C11.295 7.362 9.67827 7.81 8.43353 7.138C7.00279 6.326 5.22867 6.816 4.39884 8.202L3.44024 9.854C2.62472 11.24 3.08256 13.018 4.49899 13.816C5.71512 14.53 6.14434 16.112 5.42897 17.316C5.18575 17.694 4.92821 18.016 4.52761 18.212C4.04115 18.478 3.61193 18.898 3.38301 19.318C2.85364 20.186 2.88225 21.278 3.41163 22.188L4.39884 23.868C4.92821 24.764 5.91542 25.324 6.94556 25.324C7.43201 25.324 8.0043 25.184 8.46214 24.904C8.81983 24.666 9.24905 24.582 9.72119 24.582C11.1376 24.582 12.3251 25.744 12.3538 27.13C12.3538 28.74 13.67 30 15.3297 30H17.2755C18.9209 30 20.2371 28.74 20.2371 27.13C20.2801 25.744 21.4676 24.582 22.884 24.582C23.3418 24.582 23.7711 24.666 24.1431 24.904C24.6009 25.184 25.1589 25.324 25.6596 25.324C26.6755 25.324 27.6627 24.764 28.1921 23.868L29.1936 22.188C29.7086 21.25 29.7516 20.186 29.2222 19.318" fill="url(#paint1_linear_5_77)"/>
<defs>
<linearGradient id="paint0_linear_5_77" x1="16.2955" y1="19.962" x2="16.2955" y2="12.052" gradientUnits="userSpaceOnUse">
<stop stop-color="#02AA93"/>
<stop offset="1" stop-color="#67FF80"/>
</linearGradient>
<linearGradient id="paint1_linear_5_77" x1="16.3" y1="30" x2="16.3" y2="2" gradientUnits="userSpaceOnUse">
<stop stop-color="#02AA93"/>
<stop offset="1" stop-color="#67FF80"/>
</linearGradient>
</defs>
</svg>
