<svg width="128" height="128" viewBox="0 0 128 128" fill="none" xmlns="http://www.w3.org/2000/svg">
<path opacity="0.4" d="M33.7016 39.4C31.4821 39.4 29.7151 41.2016 29.9355 43.4102C30.4531 48.5957 31.997 58.096 36.5993 67.6168C43.1391 80.2927 51.9875 88.7437 59.6224 92.6527C60.6575 93.1827 61.885 93.1602 62.899 92.5907C68.498 89.4462 73.8636 84.124 77.9316 78.7852C79.8057 76.3256 77.9443 72.998 74.8521 72.998H57.8694C56.9193 72.998 55.9932 72.6673 55.3006 72.017C50.8687 67.855 47.2823 62.0006 45.6292 54.9977C45.0816 52.6781 46.9545 50.598 49.3378 50.598H109.152C111.697 50.598 113.596 52.9436 112.955 55.4063C109.374 69.1813 103.179 82.66 97.247 90.6373C88.0765 102.957 75.6494 112.365 61.4185 117.764C61.3562 117.788 61.29 117.8 61.2233 117.8C61.1516 117.8 61.0797 117.786 61.0134 117.758C37.2546 108.007 24.4623 92.6705 16.0171 75.3689C10.9722 65.0436 5.71383 46.8863 5.00173 22.5946C4.92023 17 7.7244 17 10.5285 17H111.477C114.281 17 117.085 17 116.998 22.7739C116.853 27.1839 116.527 31.514 116.022 35.9274C115.794 37.918 114.094 39.4 112.09 39.4H33.7016Z" fill="url(#paint0_linear_231_111)"/>
<path d="M40.7016 33.4C38.4821 33.4 36.7151 35.2016 36.9355 37.4102C37.4531 42.5957 38.997 52.096 43.5993 61.6168C50.1391 74.2927 58.9875 82.7437 66.6224 86.6527C67.6575 87.1827 68.885 87.1602 69.899 86.5907C75.498 83.4462 80.8636 78.124 84.9316 72.7852C86.8057 70.3256 84.9443 66.998 81.8521 66.998H64.8694C63.9193 66.998 62.9932 66.6673 62.3006 66.017C57.8687 61.855 54.2823 56.0006 52.6292 48.9977C52.0816 46.6781 53.9545 44.598 56.3378 44.598H116.152C118.697 44.598 120.596 46.9436 119.955 49.4063C116.374 63.1813 110.179 76.66 104.247 84.6373C95.0765 96.9566 82.6494 106.365 68.4185 111.764C68.3562 111.788 68.29 111.8 68.2233 111.8C68.1516 111.8 68.0797 111.786 68.0134 111.758C44.2546 102.007 31.4623 86.6705 23.0171 69.3689C17.9722 59.0436 12.7138 40.8863 12.0017 16.5946C11.9202 11 14.7244 11 17.5285 11H118.477C121.281 11 124.085 11 123.998 16.7739C123.853 21.1839 123.527 25.514 123.022 29.9274C122.794 31.918 121.094 33.4 119.09 33.4H40.7016Z" fill="url(#paint1_linear_231_111)"/>
<defs>
<linearGradient id="paint0_linear_231_111" x1="61" y1="117.8" x2="61" y2="17" gradientUnits="userSpaceOnUse">
<stop stop-color="#FD5900"/>
<stop offset="1" stop-color="#FFDE00"/>
</linearGradient>
<linearGradient id="paint1_linear_231_111" x1="68" y1="111.8" x2="68" y2="11" gradientUnits="userSpaceOnUse">
<stop stop-color="#FD5900"/>
<stop offset="1" stop-color="#FFDE00"/>
</linearGradient>
</defs>
</svg>
