<svg width="24" height="24" viewBox="0 0 24 24" fill="none" xmlns="http://www.w3.org/2000/svg">
<path opacity="0.4" fill-rule="evenodd" clip-rule="evenodd" d="M18.3102 5.25067C20.1883 6.70027 21.7873 8.824 22.9356 11.48C23.0215 11.6816 23.0215 11.9173 22.9356 12.1093C20.639 17.4213 16.5502 20.6 12 20.6H11.9893C7.44976 20.6 3.36098 17.4213 1.06439 12.1093C0.978537 11.9173 0.978537 11.6816 1.06439 11.48C3.36098 6.16693 7.44976 3 11.9893 3H12C14.2751 3 16.4322 3.78933 18.3102 5.25067ZM7.70729 11.8C7.70729 14.1467 9.62826 16.056 12 16.056C14.3609 16.056 16.2819 14.1467 16.2819 11.8C16.2819 9.44267 14.3609 7.53334 12 7.53334C9.62826 7.53334 7.70729 9.44267 7.70729 11.8Z" fill="url(#paint0_linear_8_855)"/>
<path d="M14.3551 11.6667C14.3551 13.128 13.1532 14.3227 11.6829 14.3227C10.202 14.3227 9 13.128 9 11.6667C9 11.504 9.01726 11.3508 9.04405 11.1979C9.04942 11.1672 9.0762 11.1451 9.10732 11.1451V11.1451C10.1689 11.1451 11.0514 10.3997 11.2614 9.40628C11.3069 9.19112 11.463 9 11.6829 9V9C13.1532 9 14.3551 10.1947 14.3551 11.6667" fill="url(#paint1_linear_8_855)"/>
<defs>
<linearGradient id="paint0_linear_8_855" x1="12" y1="3" x2="12" y2="20.6" gradientUnits="userSpaceOnUse">
<stop stop-color="#DC18FC"/>
<stop offset="1" stop-color="#8E1EFF"/>
</linearGradient>
<linearGradient id="paint1_linear_8_855" x1="11.6776" y1="9" x2="11.6776" y2="14.3227" gradientUnits="userSpaceOnUse">
<stop stop-color="#DC18FC"/>
<stop offset="1" stop-color="#8E1EFF"/>
</linearGradient>
</defs>
</svg>
