<svg width="16" height="16" viewBox="0 0 16 16" fill="none" xmlns="http://www.w3.org/2000/svg">
<path opacity="0.4" d="M8.93129 14.8714C9.00701 14.9534 9.11357 15.0001 9.22521 15.0001H12.6344C12.9907 15.0001 13.1692 14.5692 12.9172 14.3172L7.53963 8.93967C7.40137 8.80141 7.18341 8.78337 7.0243 8.89702L5.219 10.1865C5.02311 10.3264 4.99429 10.6064 5.15758 10.7833L8.93129 14.8714Z" fill="#FF4646"/>
<path d="M8.93171 1.1245C9.00723 1.04501 9.11207 1 9.22171 1H12.6845C13.0335 1 13.2151 1.41568 12.978 1.67176L5.13251 10.145C4.97832 10.3115 4.71664 10.3166 4.55617 10.1561L2.67561 8.27568C2.52221 8.1223 2.51903 7.8746 2.66844 7.71733L8.93171 1.1245Z" fill="#FF4646"/>
</svg>
