<svg width="24" height="24" viewBox="0 0 24 24" fill="none" xmlns="http://www.w3.org/2000/svg">
<path opacity="0.45" d="M2 13.1405C2 11.9272 2 11.32 2.4323 10.9669C2.5852 10.8415 2.7711 10.7403 2.979 10.671C3.56419 10.4763 4.33309 10.6688 5.87088 11.0516C7.04458 11.3453 7.63087 11.4916 8.22487 11.4762C8.44267 11.4707 8.65937 11.4487 8.87167 11.4113C9.44917 11.309 9.96396 11.0527 10.9936 10.539L12.5138 9.78001C13.8337 9.12111 14.4926 8.79221 15.2494 8.71631C16.0062 8.64041 16.7586 8.82851 18.2623 9.20361L19.5438 9.52261C20.6328 9.79431 21.1773 9.93071 21.4886 10.2541C21.7999 10.5775 21.7999 11.0076 21.7999 11.8667V18.5591C21.7999 19.7724 21.7999 20.3796 21.3676 20.7327C21.2049 20.8637 21.0196 20.964 20.8209 21.0286C20.2357 21.2233 19.4668 21.0319 17.929 20.648C16.7553 20.3543 16.169 20.208 15.575 20.2234C15.3581 20.2288 15.1419 20.2505 14.9282 20.2883C14.3507 20.3906 13.8359 20.6469 12.8064 21.1606L11.2862 21.9196C9.96616 22.5785 9.30727 22.9074 8.55047 22.9833C7.79367 23.0592 7.04128 22.8711 5.53758 22.496L4.25609 22.177C3.16709 21.9053 2.6226 21.7689 2.3113 21.4455C2 21.1221 2 20.692 2 19.8329V13.1405Z" fill="url(#paint0_linear_345_658)"/>
<path fill-rule="evenodd" clip-rule="evenodd" d="M11.9 1C8.25463 1 5.30005 3.80719 5.30005 7.26997C5.30005 10.7064 7.40654 14.7158 10.6933 16.1491C11.0741 16.3144 11.4848 16.3997 11.9 16.3997C12.3151 16.3997 12.7259 16.3144 13.1067 16.1491C16.3935 14.7169 18.5 10.7064 18.5 7.26997C18.5 3.80719 15.5454 1 11.9 1ZM11.9 9.79996C12.4835 9.79996 13.043 9.56817 13.4556 9.1556C13.8682 8.74302 14.1 8.18344 14.1 7.59997C14.1 7.0165 13.8682 6.45692 13.4556 6.04434C13.043 5.63176 12.4835 5.39998 11.9 5.39998C11.3165 5.39998 10.7569 5.63176 10.3444 6.04434C9.93181 6.45692 9.70003 7.0165 9.70003 7.59997C9.70003 8.18344 9.93181 8.74302 10.3444 9.1556C10.7569 9.56817 11.3165 9.79996 11.9 9.79996Z" fill="url(#paint1_linear_345_658)"/>
<defs>
<linearGradient id="paint0_linear_345_658" x1="18.1232" y1="20.4306" x2="10.8041" y2="8.77361" gradientUnits="userSpaceOnUse">
<stop stop-color="#248EFE"/>
<stop offset="1" stop-color="#1DF4FF"/>
</linearGradient>
<linearGradient id="paint1_linear_345_658" x1="16.0489" y1="13.6329" x2="7.29873" y2="5.00534" gradientUnits="userSpaceOnUse">
<stop stop-color="#248EFE"/>
<stop offset="1" stop-color="#1DF4FF"/>
</linearGradient>
</defs>
</svg>
