<svg width="32" height="32" viewBox="0 0 32 32" fill="none" xmlns="http://www.w3.org/2000/svg">
<g clip-path="url(#clip0_313_70)">
<path opacity="0.4" d="M17.2526 0.809041C16.439 0.540782 15.5609 0.540781 14.7473 0.809041L6.85041 3.41299C4.81123 4.08539 3.66668 6.24785 4.25737 8.31218L9.38339 26.2267C9.61471 27.0351 10.0949 27.7501 10.7557 28.27L13.5266 30.45C14.9778 31.5918 17.0221 31.5918 18.4733 30.45L21.2442 28.27C21.905 27.7501 22.3852 27.0351 22.6165 26.2267L27.7425 8.31218C28.3332 6.24785 27.1887 4.08539 25.1495 3.41299L17.2526 0.809041Z" fill="url(#paint0_linear_313_70)"/>
<path d="M16.7707 3.74178C16.3695 3.24336 15.61 3.24461 15.2105 3.74436L13.4567 5.93831C13.2965 6.13873 13.2195 6.39307 13.2415 6.64872L14.5808 22.1612C14.598 22.3604 14.6745 22.5499 14.8005 22.7052L15.2223 23.2252C15.6223 23.7182 16.3744 23.7186 16.7748 23.226L17.188 22.7179C17.3142 22.5626 17.391 22.373 17.4083 22.1737L18.7578 6.6546C18.7801 6.39762 18.7023 6.14195 18.5406 5.941L16.7707 3.74178ZM12.2449 23.3876C11.7839 23.3075 11.3289 23.5577 11.1498 23.99L11.0391 24.2571C10.9372 24.5031 10.9376 24.7796 11.0402 25.0253L11.1568 25.3045C11.3372 25.7363 11.7929 25.9853 12.2537 25.9039L14.0705 25.5827C14.3187 25.5388 14.5394 25.3984 14.6844 25.1921V25.1921C14.9152 24.8638 14.9156 24.4259 14.6854 24.0971V24.0971C14.5399 23.8893 14.3175 23.7479 14.0675 23.7044L12.2449 23.3876ZM20.85 23.99C20.6708 23.5577 20.2159 23.3075 19.7549 23.3876L17.9323 23.7044C17.6823 23.7479 17.4599 23.8893 17.3143 24.0971V24.0971C17.0842 24.4259 17.0845 24.8638 17.3154 25.1921V25.1921C17.4603 25.3984 17.6811 25.5388 17.9293 25.5827L19.7461 25.9039C20.2069 25.9853 20.6626 25.7363 20.8429 25.3045L20.9596 25.0253C21.0622 24.7796 21.0626 24.5031 20.9606 24.2571L20.85 23.99ZM16.5502 25.962C16.2221 25.7314 15.7841 25.7317 15.4558 25.962V25.962C15.2491 26.107 15.1079 26.3283 15.064 26.577L14.743 28.3941C14.6615 28.8553 14.911 29.3112 15.3433 29.4913L15.6219 29.6072C15.8674 29.7094 16.1434 29.7097 16.3891 29.6079L16.6563 29.4971C17.0888 29.3179 17.3391 28.8626 17.2586 28.4015L16.9403 26.577C16.897 26.3284 16.7566 26.1072 16.5502 25.962V25.962Z" fill="url(#paint1_linear_313_70)"/>
</g>
<defs>
<linearGradient id="paint0_linear_313_70" x1="16.0751" y1="38.9147" x2="16.0751" y2="3.45261" gradientUnits="userSpaceOnUse">
<stop stop-color="#FDA700"/>
<stop offset="1" stop-color="#FFDE00"/>
</linearGradient>
<linearGradient id="paint1_linear_313_70" x1="16.03" y1="35.2663" x2="16.03" y2="5.34918" gradientUnits="userSpaceOnUse">
<stop stop-color="#FDA700"/>
<stop offset="1" stop-color="#FFDE00"/>
</linearGradient>
<clipPath id="clip0_313_70">
<rect width="32" height="32" fill="white"/>
</clipPath>
</defs>
</svg>
