<svg width="48" height="48" viewBox="0 0 48 48" fill="none" xmlns="http://www.w3.org/2000/svg">
<path opacity="0.4" d="M32.4 3H15.6C8.64121 3 3 8.64121 3 15.6V32.4C3 39.3588 8.64121 45 15.6 45H32.4C39.3588 45 45 39.3588 45 32.4V15.6C45 8.64121 39.3588 3 32.4 3Z" fill="url(#paint0_linear_107_151)"/>
<path d="M24.0003 9.00011C15.8105 9.00011 9 15.1342 9 22.9579C9 30.782 15.8105 37.025 24.0003 37.025H24.0045C25.1527 37.0225 26.2781 36.8029 27.3947 36.5563C29.6976 38.0726 32.1767 39.4418 35.3699 38.8665C36.8334 38.6003 37.4177 36.8165 36.3974 35.7338C35.3046 34.5788 34.9424 33.8609 34.9092 32.3212C37.4046 29.7572 38.9968 26.4893 39 22.9578C39 15.1341 32.1905 9.00011 24.0003 9.00011ZM24.0003 13.2859C30.0493 13.2859 34.7136 17.6202 34.7149 22.9562C34.7121 25.202 33.7007 27.4204 31.8395 29.3326C31.443 29.74 31.1316 30.2221 30.9232 30.7509C30.7148 31.2798 30.6137 31.8448 30.6258 32.4131C30.6342 32.8054 30.8459 33.2257 30.925 33.6373C30.5342 33.4072 30.2289 33.2893 29.7531 32.976C29.2743 32.6608 28.7372 32.4448 28.1735 32.3408C27.6098 32.2368 27.0309 32.247 26.4712 32.3706C25.4265 32.6021 24.609 32.7371 24.0015 32.7392C17.9892 32.7392 13.287 28.295 13.287 22.958C13.287 17.6211 17.9521 13.286 24.0015 13.286L24.0003 13.2859Z" fill="url(#paint1_linear_107_151)"/>
<path d="M19.7144 26.1432C19.7144 26.1432 21.8573 28.2861 24.0002 28.2861C26.1431 28.2861 28.286 26.1432 28.286 26.1432" stroke="url(#paint2_linear_107_151)" stroke-width="4" stroke-linecap="round" stroke-linejoin="round"/>
<defs>
<linearGradient id="paint0_linear_107_151" x1="24" y1="45" x2="24" y2="3" gradientUnits="userSpaceOnUse">
<stop stop-color="#5558FF"/>
<stop offset="1" stop-color="#00C0FF"/>
</linearGradient>
<linearGradient id="paint1_linear_107_151" x1="24" y1="39.0007" x2="24" y2="9" gradientUnits="userSpaceOnUse">
<stop stop-color="#5570FF"/>
<stop offset="1" stop-color="#4DD3FF"/>
</linearGradient>
<linearGradient id="paint2_linear_107_151" x1="25.6073" y1="40.6078" x2="24.5359" y2="11.6786" gradientUnits="userSpaceOnUse">
<stop stop-color="#5570FF"/>
<stop offset="1" stop-color="#4DD3FF"/>
</linearGradient>
</defs>
</svg>
