<svg width="48" height="48" viewBox="0 0 48 48" fill="none" xmlns="http://www.w3.org/2000/svg">
<path d="M23.6084 2.63954C23.8403 2.27806 23.4434 1.90805 23.1182 2.18855V2.18855C23.1185 2.1882 23.1179 2.1889 23.1182 2.18855L23.1145 2.19254L21.3382 4.02717C21.2856 4.08149 21.2393 4.14161 21.2003 4.20637L19.3272 7.31262C19.2892 7.3756 19.2583 7.44257 19.235 7.51233L18.0936 10.9309C18.0715 10.9972 18.0564 11.0655 18.0485 11.1349L17.6091 15.0077C17.5495 17.0067 17.7573 18.993 18.1893 20.8439L18.1916 20.8679C18.5396 22.3509 18.6529 23.1751 19.1497 24.2376C19.3296 24.6225 19.7561 24.8153 20.1775 24.7614C28.714 23.6683 34.2727 30.403 32.3287 37.6581C31.2753 41.5895 28.0315 43.4829 24.9211 44.1931C20.5374 44.9553 16.8413 42.589 15.9515 39.2681C15.8721 38.7676 15.8854 38.1884 15.9831 37.6715C16.018 37.4867 15.482 36.9687 15.3452 37.0977V37.0977C15.1593 37.2729 15.0114 37.4244 14.883 37.5574C14.3202 38.1407 13.2142 37.4472 12.7618 36.7747C12.0364 35.6965 10.9327 34.3799 11.2872 32.2186C11.3003 32.1391 11.1463 32.8761 11.1585 32.7945C9.78448 40.3834 17.5577 48.9263 26.1823 46.6153C32.0257 45.1568 35.5091 40.8661 36.6608 36.023C37.3259 33.2262 37.1203 30.3423 36.5162 27.9219C36.0241 25.9504 35.019 23.8704 33.507 21.9604C33.0244 21.3509 32.5215 20.7927 32.0084 20.2734C32.0044 20.2694 32.0008 20.265 31.9976 20.2603V20.2603C31.993 20.2536 31.9876 20.2476 31.9815 20.2422L31.9468 20.2121C30.7873 19.0473 29.5849 18.0847 28.4331 17.1741L25.0212 14.2235C24.9576 14.156 24.8941 14.0885 24.8324 14.02L23.77 12.6195C23.6996 12.5058 23.6324 12.3898 23.5675 12.2722C23.5417 12.2253 23.5201 12.1763 23.5025 12.1258L22.7562 9.98814C22.7291 9.91065 22.7117 9.83013 22.7043 9.74839L22.4368 6.78312C22.4297 6.70494 22.4319 6.6262 22.4432 6.54853L22.8136 4.01671C22.8198 3.97425 22.8289 3.93225 22.8416 3.89127C22.8448 3.88096 22.8481 3.87067 22.8513 3.86039C22.8683 3.80661 22.8926 3.75542 22.923 3.70796L23.6084 2.63954Z" fill="url(#paint0_radial_83_150)"/>
<path d="M26.9502 6.50761C27.0127 6.15955 26.6213 6.02209 26.4807 6.34653C26.4778 6.35315 26.4749 6.35977 26.4721 6.3664L25.8256 7.6206C25.7998 7.67073 25.7782 7.72295 25.7612 7.77672L24.7984 10.8153V10.8153C24.7076 11.0502 24.7531 11.3101 24.8844 11.5251L26.1721 13.6345C26.2095 13.6958 26.2533 13.7528 26.3029 13.8046L27.0181 14.5526V14.5526C27.1097 14.6537 27.2679 14.5745 27.2471 14.4397L27.0355 13.0711C27.0287 13.0183 27.0218 12.9659 27.0151 12.9127L26.9452 6.56794C26.9449 6.54772 26.9466 6.52752 26.9502 6.50761V6.50761Z" fill="url(#paint1_radial_83_150)"/>
<path d="M13.1891 23.1938C12.8033 22.7246 12.0421 23.0104 12.0604 23.6176L12.1011 24.9686C12.1061 25.135 12.0695 25.3 11.9945 25.4487L11.4688 26.4918C11.4034 26.6216 11.3671 26.7642 11.3624 26.9095L11.2946 29.006C11.2888 29.1841 11.3307 29.3604 11.4159 29.5168L11.9925 30.5752V30.5752C12.0431 30.6817 12.199 30.6621 12.2286 30.5481C12.5064 29.4806 12.9631 28.4602 13.5841 27.5488C13.6723 27.4194 13.7335 27.2732 13.7578 27.1185L13.9208 26.0845C13.9424 25.9481 13.9354 25.8087 13.9003 25.6751L13.3133 23.4368C13.2899 23.3478 13.2476 23.2649 13.1891 23.1938V23.1938Z" fill="url(#paint2_radial_83_150)"/>
<path opacity="0.4" d="M22.2925 26.2334C17.3289 26.2334 13.3051 30.2572 13.3051 35.2208C13.3066 35.6134 13.3339 36.0054 13.3867 36.3942C13.4053 36.5316 13.4569 36.6618 13.5314 36.7787C13.5945 36.8777 13.6555 36.9778 13.7085 37.0822C13.7642 37.1919 13.7996 37.315 13.8344 37.4399C13.8523 37.5041 13.9458 37.5589 13.997 37.5162V37.5162C14.1902 37.3551 14.4364 37.0704 14.906 36.6277C15.5157 36.0528 16.0851 35.788 16.4583 35.7111C16.5034 35.7018 16.5466 35.6935 16.5882 35.686C17.0517 35.6031 17.2999 36.5172 17.0098 36.8881V36.8881C16.9939 36.9084 16.7467 37.2049 16.6421 37.6694C16.5396 38.1249 16.527 38.6906 16.5936 39.1376C17.4064 42.0751 20.7285 44.2562 24.8075 43.547C25.6701 43.348 26.5272 43.0434 27.3429 42.6432C29.8021 40.9726 31.276 38.1938 31.28 35.2208C31.28 30.2572 27.2562 26.2334 22.2925 26.2334Z" fill="url(#paint3_radial_83_150)"/>
<defs>
<radialGradient id="paint0_radial_83_150" cx="0" cy="0" r="1" gradientUnits="userSpaceOnUse" gradientTransform="translate(26.2878 -48.1585) rotate(87.6821) scale(95.5939 37.0252)">
<stop stop-color="#FFF44F"/>
<stop offset="0.06" stop-color="#FFE847"/>
<stop offset="0.168" stop-color="#FFC830"/>
<stop offset="0.304" stop-color="#FF980E"/>
<stop offset="0.356" stop-color="#FF8B16"/>
<stop offset="0.455" stop-color="#FF672A"/>
<stop offset="0.57" stop-color="#FF3647"/>
<stop offset="0.737" stop-color="#E31587"/>
</radialGradient>
<radialGradient id="paint1_radial_83_150" cx="0" cy="0" r="1" gradientUnits="userSpaceOnUse" gradientTransform="translate(26.3046 4.19211) rotate(88.3538) scale(10.7502 1.94128)">
<stop stop-color="#FFF44F"/>
<stop offset="0.06" stop-color="#FFE847"/>
<stop offset="0.168" stop-color="#FFC830"/>
<stop offset="0.304" stop-color="#FF980E"/>
<stop offset="0.356" stop-color="#FF8B16"/>
<stop offset="0.455" stop-color="#FF672A"/>
<stop offset="0.57" stop-color="#FF3647"/>
<stop offset="0.737" stop-color="#E31587"/>
</radialGradient>
<radialGradient id="paint2_radial_83_150" cx="0" cy="0" r="1" gradientUnits="userSpaceOnUse" gradientTransform="translate(12.9325 21.1345) rotate(88.1746) scale(9.82502 1.96703)">
<stop stop-color="#FFF44F"/>
<stop offset="0.06" stop-color="#FFE847"/>
<stop offset="0.168" stop-color="#FFC830"/>
<stop offset="0.304" stop-color="#FF980E"/>
<stop offset="0.356" stop-color="#FF8B16"/>
<stop offset="0.455" stop-color="#FF672A"/>
<stop offset="0.57" stop-color="#FF3647"/>
<stop offset="0.737" stop-color="#E31587"/>
</radialGradient>
<radialGradient id="paint3_radial_83_150" cx="0" cy="0" r="1" gradientUnits="userSpaceOnUse" gradientTransform="translate(24.4011 25.0515) rotate(83.5885) scale(18.8838 13.1777)">
<stop stop-color="#FFF44F"/>
<stop offset="0.06" stop-color="#FFE847"/>
<stop offset="0.168" stop-color="#FFC830"/>
<stop offset="0.304" stop-color="#FF980E"/>
<stop offset="0.356" stop-color="#FF8B16"/>
<stop offset="0.455" stop-color="#FF672A"/>
<stop offset="0.57" stop-color="#FF3647"/>
<stop offset="0.737" stop-color="#E31587"/>
</radialGradient>
</defs>
</svg>
