<svg width="64" height="64" viewBox="0 0 64 64" fill="none" xmlns="http://www.w3.org/2000/svg">
<g opacity="0.4">
<rect x="3" y="3" width="58" height="58" rx="11" fill="#D9D9D9"/>
<rect x="3" y="3" width="58" height="58" rx="11" fill="url(#paint0_linear_60_326)"/>
</g>
<path d="M30.1039 8.42258C30.3446 7.74797 29.8185 7.04872 29.1071 7.13159C27.6628 7.29983 26.2568 7.58603 24.8982 7.97908C24.5956 8.06659 24.357 8.29668 24.2515 8.59344C20.5997 18.8743 16.9332 30.0723 13.2881 40.0548C13.1327 40.4804 13.3805 40.8857 13.8334 40.8929V40.8929C15.4043 40.8837 16.9814 40.8973 18.557 40.8929C18.7205 40.8929 18.7429 40.715 18.7852 40.5719C18.8088 40.4919 18.8483 40.4169 18.8766 40.3385C20.7561 35.1299 22.6649 29.9474 24.5532 24.7422C24.5981 24.6141 24.6448 24.4824 24.6943 24.3508C24.8317 23.9849 25.193 23.7648 25.5839 23.7652C25.8836 23.7655 26.1824 23.7631 26.4811 23.7606C27.1689 23.755 27.642 24.4344 27.4076 25.081C25.5804 30.1214 23.7557 35.1829 21.8989 40.2061C21.7688 40.5581 21.9598 40.8857 22.3349 40.8931V40.8931C23.7527 40.8813 25.1668 40.9066 26.5836 40.8995C26.9999 40.8974 27.369 40.6338 27.5107 40.2423C29.3027 35.2913 31.1477 30.348 32.9448 25.3959C33.3436 24.3414 33.4004 22.9899 32.7203 22.124C31.567 20.6556 29.2896 20.1646 27.3631 19.9879C26.6889 19.926 26.2318 19.2531 26.4605 18.6158C27.6606 15.2717 28.8897 11.8259 30.1039 8.42258ZM38.1072 20.6539C38.1072 20.6541 38.1072 20.6543 38.1071 20.6545C38.0669 20.7399 38.0402 20.9503 37.9999 21.0341C34.0983 31.7851 29.4887 44.1038 25.4434 55.1386C25.2429 55.6854 25.5503 56.2886 26.1163 56.4254C26.9466 56.626 27.7917 56.7897 28.6525 56.9078C29.1019 56.9694 29.5279 56.7052 29.6915 56.2821C31.4368 51.7683 33.6837 46.6619 35.3127 42.3013C35.4571 41.9146 35.8219 41.654 36.2347 41.6484C38.0644 41.6236 39.8871 41.6362 41.723 41.6008C43.0319 41.5564 45.0087 40.7835 45.4434 39.5297C47.1825 34.7209 48.9217 29.9566 50.6062 25.1255C50.8821 24.3955 51.0509 23.5948 50.8283 22.8364C50.5338 21.8662 49.6341 21.1293 48.6648 20.8708C47.822 20.6123 46.9746 20.7248 46.1097 20.7066C43.4656 20.7022 40.7528 20.68 38.1085 20.6527C38.1078 20.6527 38.1072 20.6532 38.1072 20.6539V20.6539ZM43.0803 23.7005C43.1376 23.7066 43.195 23.7143 43.2517 23.7149C43.3039 23.7154 43.356 23.7109 43.4081 23.7116C43.6817 23.7154 43.9538 23.7138 44.2252 23.7112C44.9064 23.7046 45.3723 24.3712 45.143 25.0127C43.5924 29.3496 42.0237 33.6896 40.4964 38.038C40.3638 38.4156 40.0192 38.6804 39.6191 38.688C39.3126 38.6938 39.0046 38.6914 38.6967 38.6861C38.0041 38.6741 37.5244 37.9744 37.7616 37.3236C39.3991 32.8312 41.0181 28.3393 42.6544 23.8385C42.6605 23.8219 42.6696 23.8063 42.6826 23.7942C42.7235 23.7561 42.782 23.7184 42.8285 23.706C42.8296 23.7057 42.8308 23.7066 42.8308 23.7078V23.7078C42.8308 23.7091 42.832 23.71 42.8332 23.7096C42.9142 23.686 42.9975 23.6916 43.0803 23.7005Z" fill="url(#paint1_linear_60_326)"/>
<defs>
<linearGradient id="paint0_linear_60_326" x1="32" y1="61" x2="32" y2="3" gradientUnits="userSpaceOnUse">
<stop stop-color="#5570FF"/>
<stop offset="1" stop-color="#4DD3FF"/>
</linearGradient>
<linearGradient id="paint1_linear_60_326" x1="31.9655" y1="57" x2="31.9655" y2="7" gradientUnits="userSpaceOnUse">
<stop stop-color="#5570FF"/>
<stop offset="1" stop-color="#4DD3FF"/>
</linearGradient>
</defs>
</svg>
