<svg width="64" height="64" viewBox="0 0 64 64" fill="none" xmlns="http://www.w3.org/2000/svg">
<path opacity="0.4" fill-rule="evenodd" clip-rule="evenodd" d="M50.9054 46.6427C54.8988 41.6819 57.1053 35.481 57.1053 29.0526C57.1053 21.6126 54.1497 14.4773 48.8888 9.21643C43.6279 3.95554 36.4927 1 29.0526 1C21.6126 1 14.4773 3.95554 9.21643 9.21643C3.95554 14.4773 1 21.6126 1 29.0526C1 36.4927 3.95554 43.6279 9.21643 48.8888C14.4773 54.1497 21.6126 57.1053 29.0526 57.1053C35.4906 57.1053 41.7003 54.8923 46.6649 50.8875L57.8768 62.1194C59.0473 63.292 60.9468 63.2937 62.1194 62.1232C63.292 60.9527 63.2937 59.0532 62.1232 57.8806L50.9054 46.6427Z" fill="url(#paint0_linear_60_329)"/>
<path d="M28.695 8.42259C28.9357 7.74798 28.4096 7.04889 27.6986 7.13534C26.4255 7.29013 25.1851 7.54457 23.9847 7.88968C23.6821 7.97669 23.4434 8.20694 23.338 8.50369C19.9828 17.9518 16.6141 28.2388 13.265 37.4105C13.1221 37.802 13.35 38.1747 13.7667 38.1815V38.1815C15.212 38.173 16.6628 38.1856 18.1124 38.1815C18.2593 38.1815 18.2825 38.0256 18.3196 37.8956C18.3425 37.8155 18.3815 37.7404 18.4098 37.662C20.1379 32.8733 21.8929 28.1084 23.6289 23.3229C23.6647 23.2206 23.7019 23.1159 23.7408 23.0109C23.8766 22.6443 24.2377 22.4241 24.6286 22.4241C24.8495 22.424 25.0699 22.4225 25.2901 22.4207C25.9779 22.4152 26.451 23.0937 26.2166 23.7403C24.5484 28.3425 22.8823 32.9635 21.187 37.5496C21.0673 37.8734 21.2429 38.1749 21.5881 38.1816V38.1816C22.8741 38.171 24.1567 38.1935 25.4416 38.1878C25.8579 38.1859 26.227 37.9223 26.3687 37.5309C28.0114 32.9933 29.7022 28.4629 31.3492 23.9241C31.7162 22.954 31.7684 21.7107 31.1426 20.914C30.1034 19.5909 28.0718 19.1304 26.3234 18.9592C25.6496 18.8933 25.192 18.2208 25.4206 17.5836C26.4996 14.5765 27.6036 11.4817 28.695 8.42259ZM36.0987 19.5616C36.0987 19.5618 36.0986 19.5619 36.0986 19.5621C36.0616 19.6407 36.037 19.8343 35.9999 19.9114C32.4201 29.7759 28.1923 41.0752 24.4776 51.2064C24.2771 51.7532 24.5844 52.3566 25.1509 52.4915C25.8682 52.6622 26.5974 52.8028 27.3394 52.9067C27.7886 52.9696 28.2147 52.7051 28.3785 52.2821C29.974 48.1612 32.0184 43.5105 33.5084 39.5286C33.6531 39.1419 34.0178 38.8812 34.4307 38.8758C36.0956 38.854 37.7545 38.865 39.4252 38.8327C40.6294 38.7918 42.448 38.0809 42.8479 36.9274C44.4479 32.5034 46.048 28.1201 47.5977 23.6755C47.8515 23.0039 48.0067 22.2673 47.802 21.5695C47.5311 20.6769 46.7034 19.999 45.8116 19.7611C45.0362 19.5234 44.2566 19.6269 43.4608 19.6101C41.0283 19.6059 38.5325 19.5856 36.0998 19.5604C36.0992 19.5604 36.0987 19.561 36.0987 19.5616V19.5616ZM40.6738 22.3645C40.7246 22.3699 40.7755 22.3766 40.8258 22.3776C40.8776 22.3787 40.9295 22.3741 40.9814 22.3748C41.194 22.3777 41.4056 22.3771 41.6167 22.3753C42.2979 22.3697 42.7637 23.0343 42.5343 23.6757C41.1258 27.6144 39.7016 31.5561 38.3141 35.5052C38.1815 35.8827 37.8368 36.1476 37.4367 36.1539C37.21 36.1574 36.9824 36.1563 36.7548 36.153C36.0621 36.143 35.5825 35.4415 35.8197 34.7907C37.3129 30.6934 38.7896 26.5965 40.282 22.4916C40.2876 22.4762 40.296 22.4618 40.308 22.4507C40.3457 22.4156 40.3995 22.3809 40.4422 22.3695C40.4433 22.3692 40.4443 22.3701 40.4443 22.3712V22.3712C40.4443 22.3724 40.4455 22.3732 40.4466 22.3729C40.521 22.351 40.5976 22.3563 40.6738 22.3645Z" fill="url(#paint1_linear_60_329)"/>
<defs>
<linearGradient id="paint0_linear_60_329" x1="32" y1="63" x2="32" y2="1" gradientUnits="userSpaceOnUse">
<stop stop-color="#5570FF"/>
<stop offset="1" stop-color="#4DD3FF"/>
</linearGradient>
<linearGradient id="paint1_linear_60_329" x1="30.4483" y1="53" x2="30.4483" y2="7" gradientUnits="userSpaceOnUse">
<stop stop-color="#5570FF"/>
<stop offset="1" stop-color="#4DD3FF"/>
</linearGradient>
</defs>
</svg>
