<svg width="16" height="16" viewBox="0 0 16 16" fill="none" xmlns="http://www.w3.org/2000/svg">
<path fill-rule="evenodd" clip-rule="evenodd" d="M1.364 2H3.18145C3.38249 2 3.54545 2.16271 3.54545 2.36343V4.42862C3.54545 4.98091 3.99317 5.42862 4.54545 5.42862H5.09091C5.6432 5.42862 6.09091 4.9809 6.09091 4.42862V2.36343C6.09091 2.16271 6.3006 2 6.55927 2H14.5316C14.7903 2 15 2.16271 15 2.36343V9.63657C15 9.83729 14.7903 10 14.5316 10H6.55927C6.3006 10 6.09091 9.83729 6.09091 9.63657V8.71434C6.09091 8.16206 5.64319 7.71434 5.09091 7.71434H4.54545C3.99316 7.71434 3.54545 8.16206 3.54545 8.71434V9.63657C3.54545 9.83729 3.38249 10 3.18145 10H1.364C1.16297 10 1 9.83729 1 9.63657V7.38748V5.75548V2.36343C1 2.16271 1.16297 2 1.364 2ZM7.85364 3.14284H12.7727H13.2373H13.4091C13.5848 3.14284 13.7273 3.26103 13.7273 3.40684V3.42855V3.99998V5.71432V6.28574V6.30741C13.7273 6.45321 13.5848 6.57141 13.4091 6.57141H13.2465C13.2435 6.57144 13.2404 6.57146 13.2373 6.57146H9.20778C8.89219 6.57146 8.63636 6.82729 8.63636 7.14288V7.14288C8.63636 7.45847 8.89219 7.7143 9.20778 7.7143H13.2373C13.5079 7.7143 13.7273 7.84221 13.7273 8.00001V8.57144C13.7273 8.72923 13.5079 8.85715 13.2373 8.85715H8.32378L8.31818 8.85719H7.68182C7.50609 8.85719 7.36364 8.739 7.36364 8.59319V8.57201V8.00001V6.28631V5.71432V5.69262C7.36364 5.54682 7.50609 5.42862 7.68182 5.42862H7.84777L7.85364 5.4286H11.883C12.1987 5.4286 12.4545 5.17275 12.4545 4.85714V4.85714C12.4545 4.54154 12.1987 4.28569 11.883 4.28569H7.85364C7.58302 4.28569 7.36364 4.15778 7.36364 3.99998V3.42855C7.36364 3.27076 7.58302 3.14284 7.85364 3.14284Z" fill="url(#paint0_linear_54_707)"/>
<path opacity="0.4" fill-rule="evenodd" clip-rule="evenodd" d="M1.62329 12H2.86986C3.2141 12 3.49315 12.291 3.49315 12.65V13.95C3.49315 14.309 3.2141 14.6 2.86986 14.6H1.62329C1.27906 14.6 1 14.309 1 13.95V12.65C1 12.291 1.27906 12 1.62329 12ZM5.4589 12H6.70548C7.04971 12 7.32877 12.291 7.32877 12.65V13.95C7.32877 14.309 7.04971 14.6 6.70548 14.6H5.4589C5.11467 14.6 4.83562 14.309 4.83562 13.95V12.65C4.83562 12.291 5.11467 12 5.4589 12ZM10.5411 12H9.29452C8.95029 12 8.67123 12.291 8.67123 12.65V13.95C8.67123 14.309 8.95029 14.6 9.29452 14.6H10.5411C10.8853 14.6 11.1644 14.309 11.1644 13.95V12.65C11.1644 12.291 10.8853 12 10.5411 12ZM13.1301 12H14.3767C14.7209 12 15 12.291 15 12.65V13.95C15 14.309 14.7209 14.6 14.3767 14.6H13.1301C12.7859 14.6 12.5068 14.309 12.5068 13.95V12.65C12.5068 12.291 12.7859 12 13.1301 12Z" fill="url(#paint1_linear_54_707)"/>
<defs>
<linearGradient id="paint0_linear_54_707" x1="8" y1="10" x2="8" y2="2" gradientUnits="userSpaceOnUse">
<stop stop-color="#5570FF"/>
<stop offset="1" stop-color="#4DD3FF"/>
</linearGradient>
<linearGradient id="paint1_linear_54_707" x1="2.30233" y1="13.3" x2="12.6124" y2="13.3" gradientUnits="userSpaceOnUse">
<stop stop-color="#5570FF"/>
<stop offset="1" stop-color="#4DD3FF"/>
</linearGradient>
</defs>
</svg>
