<svg width="64" height="64" viewBox="0 0 64 64" fill="none" xmlns="http://www.w3.org/2000/svg">
<path opacity="0.4" fill-rule="evenodd" clip-rule="evenodd" d="M7.02898 7.52519C7.08442 7.46617 7.14098 7.41373 7.19861 7.36752V7.36752C7.04678 7.52273 6.9826 7.74277 7.02908 7.95486C7.8387 11.649 11.3958 18.3103 15.6183 23.0261C15.9036 23.3447 15.9633 23.8058 15.7775 24.1911C14.6384 26.5532 14 29.202 14 32C14 32.2663 14.0058 32.5313 14.0172 32.7947C14.0528 33.6129 13.1892 34.2192 12.4745 33.8194C8.99644 31.8738 5.54463 29.5538 4.22913 28.1451C4.07407 27.9791 4 27.7582 4 27.531V15.2C4 12.2244 5.14884 9.52691 7.02898 7.52519ZM17.102 42.1051C16.8665 41.7586 16.4498 41.5788 16.0382 41.6561C12.2705 42.3634 7.81394 42.6146 5.0695 42.5498C4.49015 42.5361 4 42.9949 4 43.5744V48.8C4 51.3925 4.872 53.7737 6.3399 55.6678C6.40767 55.7552 6.47949 55.8376 6.55515 55.9153V55.9153C6.4149 55.7447 6.5508 55.4935 6.77151 55.5005C11.7899 55.6599 19.0044 52.8529 23.8994 49.7876C24.5722 49.3664 24.4588 48.3682 23.7535 48.004C21.0741 46.6206 18.7867 44.5841 17.102 42.1051ZM33.2557 49.9569C32.8121 49.9874 32.4309 50.2895 32.304 50.7156C31.345 53.9353 29.6887 56.9666 28.6435 58.8794V58.8794C28.365 59.3889 28.7325 60 29.3131 60H41.2793C41.7174 60 42.1065 59.7159 42.2168 59.2919C43.001 56.2766 43.4526 51.4645 43.3133 47.8928C43.2828 47.1106 42.3818 46.7269 41.7235 47.1503C39.2498 48.7412 36.361 49.7429 33.2557 49.9569ZM48.2059 39.8434C48.0133 40.2404 48.0815 40.7163 48.3839 41.0377C52.1525 45.0429 56.2869 51.9605 56.98 55.9814C57.0237 56.235 56.9398 56.4927 56.7589 56.6757V56.6757C56.8319 56.6145 56.903 56.5472 56.9723 56.4735C58.8517 54.4719 60 51.775 60 48.8V36.5297C60 36.266 59.8971 36.0124 59.7072 35.8294C57.5656 33.7657 54.3938 31.6815 51.4774 30.1338C50.7695 29.7581 49.9439 30.3588 49.9807 31.1593C49.9935 31.438 50 31.7182 50 32C50 34.8116 49.3553 37.4726 48.2059 39.8434ZM46.8953 21.8909C47.1285 22.2338 47.5394 22.414 47.9472 22.3393C51.5991 21.6703 55.9642 21.2475 58.8595 21.4085C59.4649 21.4422 60 20.9734 60 20.367V15.2C60 12.6343 59.1459 10.2754 57.7053 8.39097C57.6511 8.32003 57.592 8.25226 57.5284 8.18753V8.18753C57.6379 8.32392 57.5343 8.52254 57.3594 8.51989C51.0422 8.4239 45.1167 11.1077 40.1805 14.2003C39.4966 14.6288 39.6 15.6584 40.3155 16.0317C42.9637 17.4136 45.2252 19.435 46.8953 21.8909ZM30.6935 14.0467C31.1127 14.0167 31.4786 13.7442 31.6145 13.3465C32.5632 10.5708 33.7918 7.69567 34.8901 5.7069C35.2903 4.98216 34.7744 4 33.9465 4H22.7811C22.3147 4 21.9121 4.31787 21.818 4.77466C21.4011 6.79766 20.3645 12.3533 20.6676 16.2632C20.7246 16.9984 21.5654 17.3128 22.183 16.9102C24.6639 15.2929 27.5683 14.2708 30.6935 14.0467Z" fill="url(#paint0_linear_80_232)"/>
<path d="M28.9426 42.6986C26.2764 44.1798 23 42.2519 23 39.2019V24.7981C23 21.7481 26.2764 19.8202 28.9426 21.3014L41.9061 28.5034C44.6493 30.0274 44.6493 33.9726 41.9061 35.4966L28.9426 42.6986Z" fill="url(#paint1_linear_80_232)"/>
<defs>
<linearGradient id="paint0_linear_80_232" x1="4" y1="32" x2="43.5" y2="32" gradientUnits="userSpaceOnUse">
<stop stop-color="#5558FF"/>
<stop offset="1" stop-color="#00C0FF"/>
</linearGradient>
<linearGradient id="paint1_linear_80_232" x1="23" y1="32" x2="39.9167" y2="32" gradientUnits="userSpaceOnUse">
<stop stop-color="#5558FF"/>
<stop offset="1" stop-color="#00C0FF"/>
</linearGradient>
</defs>
</svg>
