<svg width="24" height="24" viewBox="0 0 24 24" fill="none" xmlns="http://www.w3.org/2000/svg">
<path opacity="0.4" d="M3.75 1C2.2265 1 1 2.2265 1 3.75V20.25C1 21.7735 2.2265 23 3.75 23H20.25C21.7735 23 23 21.7735 23 20.25V3.75C23 2.2265 21.7735 1 20.25 1H3.75Z" fill="url(#paint0_linear_314_100)"/>
<path d="M11.448 4.02396C11.2075 3.84404 10.9146 3.74783 10.6143 3.75004C10.2981 3.75262 9.99252 3.86406 9.74893 4.06559C9.50533 4.26711 9.33862 4.54642 9.27686 4.85648L7.80049 12.2359C7.75934 12.4416 7.46969 12.4533 7.41207 12.2516L6.44629 8.87138C6.36405 8.58439 6.19065 8.33195 5.95229 8.15221C5.71392 7.97247 5.42354 7.87518 5.125 7.87504H2.575C2.46454 7.87504 2.375 7.96458 2.375 8.07504V10.425C2.375 10.5355 2.46454 10.625 2.575 10.625H3.93752C4.02681 10.625 4.10529 10.6842 4.12982 10.7701L6.55371 19.2537C6.63906 19.5496 6.82125 19.8083 7.07109 19.9883C7.32094 20.1683 7.62397 20.2592 7.93165 20.2466C8.23933 20.2339 8.53385 20.1183 8.76802 19.9183C9.00219 19.7183 9.16245 19.4455 9.22314 19.1436L10.6995 11.7642C10.7407 11.5585 11.0303 11.5468 11.0879 11.7485L12.0537 15.1287C12.1346 15.411 12.3037 15.66 12.5362 15.8392C12.7688 16.0184 13.0526 16.1185 13.3462 16.1248C13.6397 16.1311 13.9276 16.0433 14.1676 15.8742C14.4077 15.7051 14.5873 15.4636 14.6802 15.1851L15.9353 11.4198C15.996 11.2375 16.254 11.2375 16.3147 11.4198L17.5698 15.1851C17.6612 15.4589 17.8364 15.6971 18.0707 15.8658C18.3049 16.0345 18.5863 16.1252 18.875 16.125H21.425C21.5355 16.125 21.625 16.0355 21.625 15.925V13.575C21.625 13.4646 21.5355 13.375 21.425 13.375H20.0101C19.924 13.375 19.8476 13.3199 19.8204 13.2383L17.4302 6.06498C17.3392 5.79073 17.1641 5.55212 16.9298 5.383C16.6955 5.21389 16.4139 5.12287 16.125 5.12287C15.8361 5.12287 15.5545 5.21389 15.3202 5.383C15.0859 5.55212 14.9108 5.79073 14.8198 6.06498L13.6789 9.4854C13.6167 9.67194 13.3509 9.66611 13.2969 9.47702L11.9463 4.74637C11.8636 4.45761 11.6885 4.20388 11.448 4.02396Z" fill="url(#paint1_linear_314_100)"/>
<defs>
<linearGradient id="paint0_linear_314_100" x1="12" y1="23" x2="12" y2="1" gradientUnits="userSpaceOnUse">
<stop stop-color="#5570FF"/>
<stop offset="1" stop-color="#4DD3FF"/>
</linearGradient>
<linearGradient id="paint1_linear_314_100" x1="12" y1="20.2477" x2="12" y2="3.75" gradientUnits="userSpaceOnUse">
<stop stop-color="#5570FF"/>
<stop offset="1" stop-color="#4DD3FF"/>
</linearGradient>
</defs>
</svg>
