<svg width="192" height="192" viewBox="0 0 192 192" fill="none" xmlns="http://www.w3.org/2000/svg">
<path opacity="0.4" d="M85.7937 13.5313C93.4037 6.29884 106.182 6.14186 113.955 13.1612C120.054 18.5221 126.167 23.866 132.281 29.21L132.283 29.2114L132.284 29.2128C143.408 38.9355 154.531 48.6586 165.564 58.4843C174.759 67.3089 171.5 81.5 164.326 92.0897L149 114.5C147.5 116.5 146.965 117.888 145.891 119.395C145.638 119.749 145.386 120.102 145.144 120.459C143.15 123.313 141.164 126.172 139.177 129.031L139.173 129.037L139.018 129.26C136.632 132.693 134.244 136.127 131.845 139.554C126.927 146.63 122.01 153.694 117.081 160.758C116.022 162.279 114.965 163.8 113.908 165.322L113.842 165.418C110.954 169.575 108.067 173.731 105.15 177.869C103.641 180.067 100.895 180.841 98.3976 180.729C88.8226 181.121 78.9981 177.634 72.1046 170.659C70.5176 169.077 68.9953 167.395 67.4705 165.71L67.4296 165.665L67.4276 165.663C63.2819 161.079 59.1122 156.47 53.5627 153.739C48.1999 151.014 41.8166 151.552 36.4212 153.918C35.411 154.261 34.4337 154.797 33.4551 155.334L33.4445 155.34L33.4437 155.34C31.3556 156.486 29.2608 157.636 26.8246 156.935C23.2204 156.06 21.2555 151.721 22.5474 148.211C23.5859 145.763 25.9053 144.622 28.1203 143.532L28.1222 143.531C28.4534 143.369 28.7824 143.207 29.1043 143.042C36.5081 139.409 45.0843 137.715 53.1285 139.846C60.5865 141.786 67.0241 146.563 72.3435 152.147C73.6535 153.461 74.8992 154.859 76.1454 156.259L76.1688 156.285C77.2862 157.54 78.4043 158.796 79.5698 159.993C81.0506 161.515 82.5585 160.024 81.3426 158.284C78.582 154.333 75.8322 150.374 73.0822 146.414L73.0477 146.364C68.4878 139.799 63.9273 133.233 59.3163 126.704C58.4286 125.251 57.4056 123.869 56.3814 122.486L56.3688 122.469C54.6178 120.106 52.8646 117.738 51.7776 115.012C51.7147 114.855 51.6348 114.704 51.5363 114.566L30.8897 85.5642C30.7296 85.281 30.5725 85.0032 30.4177 84.734C26.5964 77.0755 27.5844 67.1855 32.8278 60.4914C35.9633 56.9755 39.5446 53.9339 43.1231 50.8948C45.0455 49.2622 46.9671 47.6302 48.8185 45.9257C50.881 44.1202 52.9391 42.3079 54.9964 40.4962C59.6851 36.3674 64.3732 32.2392 69.119 28.1867C72.7233 24.9208 76.3936 21.7277 80.0645 18.5339L80.0794 18.5209L80.1028 18.5006C82.0026 16.8477 83.9026 15.1948 85.7937 13.5313Z" fill="url(#paint0_linear_37_125)"/>
<path d="M129.747 69.7137C117.046 65.834 103.595 65.5873 90.4596 66.3386C83.9461 66.9665 77.2697 67.6169 71.1469 70.1286C66.7937 72.3712 67.0217 79.5812 71.4292 81.6219C73.7715 82.6989 76.109 82.0112 78.4414 81.3249L78.4419 81.3248C79.5576 80.9965 80.6723 80.6686 81.7857 80.5343C94.6066 78.3365 107.84 78.3926 120.639 80.7137C121.585 80.8548 122.535 81.1256 123.486 81.397C125.709 82.0315 127.943 82.6688 130.17 81.6556C135.034 79.5812 134.773 71.4181 129.747 69.7137Z" fill="url(#paint1_linear_37_125)"/>
<defs>
<linearGradient id="paint0_linear_37_125" x1="96.673" y1="180.759" x2="96.673" y2="8" gradientUnits="userSpaceOnUse">
<stop stop-color="#5558FF"/>
<stop offset="1" stop-color="#00C0FF"/>
</linearGradient>
<linearGradient id="paint1_linear_37_125" x1="100.836" y1="82.1864" x2="100.836" y2="66" gradientUnits="userSpaceOnUse">
<stop stop-color="#5558FF"/>
<stop offset="1" stop-color="#00C0FF"/>
</linearGradient>
</defs>
</svg>
