<svg width="24" height="24" viewBox="0 0 24 24" fill="none" xmlns="http://www.w3.org/2000/svg">
<path opacity="0.4" d="M16.4 4H7.6C4.4892 4 2.9327 4 1.9669 4.9669C1 5.9327 1 7.4892 1 10.6V12.8C1 15.9108 1 17.4673 1.9669 18.4331C2.9327 19.4 4.4892 19.4 7.6 19.4H16.4C19.5108 19.4 21.0673 19.4 22.0331 18.4331C23 17.4673 23 15.9108 23 12.8V10.6C23 7.4892 23 5.9327 22.0331 4.9669C21.0673 4 19.5108 4 16.4 4Z" fill="url(#paint0_linear_8_508)"/>
<path d="M5.39999 9.49999C5.69173 9.49999 5.97152 9.3841 6.17781 9.17781C6.3841 8.97152 6.49999 8.69173 6.49999 8.39999C6.49999 8.10825 6.3841 7.82846 6.17781 7.62217C5.97152 7.41588 5.69173 7.29999 5.39999 7.29999C5.10825 7.29999 4.82846 7.41588 4.62217 7.62217C4.41588 7.82846 4.29999 8.10825 4.29999 8.39999C4.29999 8.69173 4.41588 8.97152 4.62217 9.17781C4.82846 9.3841 5.10825 9.49999 5.39999 9.49999ZM5.39999 12.8C5.69173 12.8 5.97152 12.6841 6.17781 12.4778C6.3841 12.2715 6.49999 11.9917 6.49999 11.7C6.49999 11.4082 6.3841 11.1285 6.17781 10.9222C5.97152 10.7159 5.69173 10.6 5.39999 10.6C5.10825 10.6 4.82846 10.7159 4.62217 10.9222C4.41588 11.1285 4.29999 11.4082 4.29999 11.7C4.29999 11.9917 4.41588 12.2715 4.62217 12.4778C4.82846 12.6841 5.10825 12.8 5.39999 12.8ZM8.69999 12.8C8.99173 12.8 9.27152 12.6841 9.47781 12.4778C9.6841 12.2715 9.79999 11.9917 9.79999 11.7C9.79999 11.4082 9.6841 11.1285 9.47781 10.9222C9.27152 10.7159 8.99173 10.6 8.69999 10.6C8.40825 10.6 8.12846 10.7159 7.92217 10.9222C7.71588 11.1285 7.59999 11.4082 7.59999 11.7C7.59999 11.9917 7.71588 12.2715 7.92217 12.4778C8.12846 12.6841 8.40825 12.8 8.69999 12.8ZM8.69999 9.49999C8.99173 9.49999 9.27152 9.3841 9.47781 9.17781C9.6841 8.97152 9.79999 8.69173 9.79999 8.39999C9.79999 8.10825 9.6841 7.82846 9.47781 7.62217C9.27152 7.41588 8.99173 7.29999 8.69999 7.29999C8.40825 7.29999 8.12846 7.41588 7.92217 7.62217C7.71588 7.82846 7.59999 8.10825 7.59999 8.39999C7.59999 8.69173 7.71588 8.97152 7.92217 9.17781C8.12846 9.3841 8.40825 9.49999 8.69999 9.49999ZM12 9.49999C12.2917 9.49999 12.5715 9.3841 12.7778 9.17781C12.9841 8.97152 13.1 8.69173 13.1 8.39999C13.1 8.10825 12.9841 7.82846 12.7778 7.62217C12.5715 7.41588 12.2917 7.29999 12 7.29999C11.7082 7.29999 11.4285 7.41588 11.2222 7.62217C11.0159 7.82846 10.9 8.10825 10.9 8.39999C10.9 8.69173 11.0159 8.97152 11.2222 9.17781C11.4285 9.3841 11.7082 9.49999 12 9.49999ZM12 12.8C12.2917 12.8 12.5715 12.6841 12.7778 12.4778C12.9841 12.2715 13.1 11.9917 13.1 11.7C13.1 11.4082 12.9841 11.1285 12.7778 10.9222C12.5715 10.7159 12.2917 10.6 12 10.6C11.7082 10.6 11.4285 10.7159 11.2222 10.9222C11.0159 11.1285 10.9 11.4082 10.9 11.7C10.9 11.9917 11.0159 12.2715 11.2222 12.4778C11.4285 12.6841 11.7082 12.8 12 12.8ZM15.3 9.49999C15.5917 9.49999 15.8715 9.3841 16.0778 9.17781C16.2841 8.97152 16.4 8.69173 16.4 8.39999C16.4 8.10825 16.2841 7.82846 16.0778 7.62217C15.8715 7.41588 15.5917 7.29999 15.3 7.29999C15.0082 7.29999 14.7285 7.41588 14.5222 7.62217C14.3159 7.82846 14.2 8.10825 14.2 8.39999C14.2 8.69173 14.3159 8.97152 14.5222 9.17781C14.7285 9.3841 15.0082 9.49999 15.3 9.49999ZM15.3 12.8C15.5917 12.8 15.8715 12.6841 16.0778 12.4778C16.2841 12.2715 16.4 11.9917 16.4 11.7C16.4 11.4082 16.2841 11.1285 16.0778 10.9222C15.8715 10.7159 15.5917 10.6 15.3 10.6C15.0082 10.6 14.7285 10.7159 14.5222 10.9222C14.3159 11.1285 14.2 11.4082 14.2 11.7C14.2 11.9917 14.3159 12.2715 14.5222 12.4778C14.7285 12.6841 15.0082 12.8 15.3 12.8ZM18.6 9.49999C18.8917 9.49999 19.1715 9.3841 19.3778 9.17781C19.5841 8.97152 19.7 8.69173 19.7 8.39999C19.7 8.10825 19.5841 7.82846 19.3778 7.62217C19.1715 7.41588 18.8917 7.29999 18.6 7.29999C18.3082 7.29999 18.0285 7.41588 17.8222 7.62217C17.6159 7.82846 17.5 8.10825 17.5 8.39999C17.5 8.69173 17.6159 8.97152 17.8222 9.17781C18.0285 9.3841 18.3082 9.49999 18.6 9.49999ZM18.6 12.8C18.8917 12.8 19.1715 12.6841 19.3778 12.4778C19.5841 12.2715 19.7 11.9917 19.7 11.7C19.7 11.4082 19.5841 11.1285 19.3778 10.9222C19.1715 10.7159 18.8917 10.6 18.6 10.6C18.3082 10.6 18.0285 10.7159 17.8222 10.9222C17.6159 11.1285 17.5 11.4082 17.5 11.7C17.5 11.9917 17.6159 12.2715 17.8222 12.4778C18.0285 12.6841 18.3082 12.8 18.6 12.8ZM18.325 16.1C18.325 16.3188 18.2381 16.5286 18.0834 16.6834C17.9286 16.8381 17.7188 16.925 17.5 16.925H6.49999C6.28118 16.925 6.07134 16.8381 5.91662 16.6834C5.76191 16.5286 5.67499 16.3188 5.67499 16.1C5.67499 15.8812 5.76191 15.6713 5.91662 15.5166C6.07134 15.3619 6.28118 15.275 6.49999 15.275H17.5C17.7188 15.275 17.9286 15.3619 18.0834 15.5166C18.2381 15.6713 18.325 15.8812 18.325 16.1Z" fill="url(#paint1_linear_8_508)"/>
<defs>
<linearGradient id="paint0_linear_8_508" x1="12" y1="4" x2="12" y2="19.4" gradientUnits="userSpaceOnUse">
<stop stop-color="#DC18FC"/>
<stop offset="1" stop-color="#8E1EFF"/>
</linearGradient>
<linearGradient id="paint1_linear_8_508" x1="12" y1="7.29999" x2="12" y2="16.925" gradientUnits="userSpaceOnUse">
<stop stop-color="#DC18FC"/>
<stop offset="1" stop-color="#8E1EFF"/>
</linearGradient>
</defs>
</svg>
