<svg width="32" height="32" viewBox="0 0 32 32" fill="none" xmlns="http://www.w3.org/2000/svg">
<path opacity="0.5" d="M25.561 11.7999V20.2C25.561 25.6128 21.1821 30 15.7805 30C10.3789 30 6 25.6128 6 20.2V11.7999C5.99817 9.38487 6.88867 7.05426 8.50048 5.25575C10.1123 3.45723 12.3317 2.31762 14.7326 2.05579V6.78535C13.9068 7.17936 13.3354 8.02327 13.3354 8.99992V11.7999C13.3354 13.1538 14.4308 14.2506 15.7805 14.2506C17.1302 14.2506 18.2256 13.1538 18.2256 11.7999V8.99992C18.2256 8.02188 17.6541 7.17936 16.8284 6.78535V2.05579C19.2292 2.31762 21.4487 3.45723 23.0605 5.25575C24.6723 7.05426 25.5628 9.38487 25.561 11.7999Z" fill="url(#paint0_linear_8_658)"/>
<path d="M18.2256 11.7999V8.99992C18.2256 8.02187 17.6541 7.17935 16.8284 6.78534V2.05578C16.1317 1.98141 15.4292 1.98141 14.7325 2.05578V6.78534C13.9068 7.17935 13.3353 8.02187 13.3353 8.99992V11.7999C13.3353 13.1524 14.4307 14.2492 15.7804 14.2492C17.1302 14.2492 18.2256 13.1524 18.2256 11.7999Z" fill="url(#paint1_linear_8_658)"/>
<defs>
<linearGradient id="paint0_linear_8_658" x1="15.7805" y1="30" x2="15.7805" y2="2.05579" gradientUnits="userSpaceOnUse">
<stop stop-color="#FD5900"/>
<stop offset="1" stop-color="#FFDE00"/>
</linearGradient>
<linearGradient id="paint1_linear_8_658" x1="15.7804" y1="14.2492" x2="15.7804" y2="2" gradientUnits="userSpaceOnUse">
<stop stop-color="#FD5900"/>
<stop offset="1" stop-color="#FFDE00"/>
</linearGradient>
</defs>
</svg>
