<svg width="64" height="64" viewBox="0 0 64 64" fill="none" xmlns="http://www.w3.org/2000/svg">
<rect opacity="0.4" x="4" y="4" width="56" height="56" rx="12" fill="url(#paint0_linear_54_758)"/>
<path fill-rule="evenodd" clip-rule="evenodd" d="M46.5 18.0018C46.501 16.6211 45.3825 15.501 44.0018 15.5C42.6211 15.499 41.501 16.6175 41.5 17.9982C41.4997 18.4233 41.5323 18.9753 41.5706 19.623C41.6745 21.383 41.8202 23.8498 41.4607 26.3986C41.2234 28.0818 40.7939 29.4178 40.1885 30.2887C39.7558 30.9112 39.2336 31.3153 38.4397 31.4517C38.1897 30.3347 37.1924 29.5 36 29.5C34.6193 29.5 33.5 30.6193 33.5 32V34C33.5 35.3807 34.6193 36.5 36 36.5H38C38.0245 36.5 38.049 36.4996 38.0734 36.4989C40.8957 36.416 42.9547 35.0691 44.2939 33.1427C45.5475 31.3395 46.1283 29.1068 46.4118 27.0968C46.8603 23.9161 46.6355 20.3015 46.5377 18.7277C46.5156 18.3719 46.4999 18.1204 46.5 18.0018ZM17.5 18C17.5 16.6193 18.6193 15.5 20 15.5H24H28C29.3807 15.5 30.5 16.6193 30.5 18C30.5 19.3807 29.3807 20.5 28 20.5H26.5V31.5H28C29.3807 31.5 30.5 32.6193 30.5 34C30.5 35.3807 29.3807 36.5 28 36.5H24H20C18.6193 36.5 17.5 35.3807 17.5 34C17.5 32.6193 18.6193 31.5 20 31.5H21.5V20.5H20C18.6193 20.5 17.5 19.3807 17.5 18ZM17.5 46C17.5 44.6193 18.6193 43.5 20 43.5H36C37.3807 43.5 38.5 44.6193 38.5 46C38.5 47.3807 37.3807 48.5 36 48.5H20C18.6193 48.5 17.5 47.3807 17.5 46Z" fill="url(#paint1_linear_54_758)"/>
<defs>
<linearGradient id="paint0_linear_54_758" x1="32" y1="60" x2="32" y2="4" gradientUnits="userSpaceOnUse">
<stop stop-color="#FD5900"/>
<stop offset="1" stop-color="#FFDE00"/>
</linearGradient>
<linearGradient id="paint1_linear_54_758" x1="32.0906" y1="48.5" x2="32.0906" y2="15.5" gradientUnits="userSpaceOnUse">
<stop stop-color="#FD4C00"/>
<stop offset="1" stop-color="#FFB800"/>
</linearGradient>
</defs>
</svg>
