<svg width="32" height="32" viewBox="0 0 32 32" fill="none" xmlns="http://www.w3.org/2000/svg">
<path opacity="0.4" d="M30 21.1169C30 25.0229 26.864 28.1869 22.958 28.2009H22.944H9.07C5.178 28.2009 2 25.0509 2 21.1449V21.1309C2 21.1309 2.0084 14.9345 2.0196 11.8181C2.021 11.2329 2.693 10.9053 3.1508 11.2693C6.4772 13.9083 12.4258 18.7201 12.5 18.7831C13.494 19.5797 14.754 20.0291 16.042 20.0291C17.33 20.0291 18.59 19.5797 19.584 18.7677C19.6582 18.7187 25.4738 14.0511 28.8506 11.3687C29.3098 11.0033 29.9846 11.3309 29.986 11.9147C30 15.0073 30 21.1169 30 21.1169" fill="url(#paint0_linear_5_77)"/>
<path d="M29.2666 6.7436C28.0542 4.4588 25.6686 3 23.0422 3H9.0702C6.4438 3 4.0582 4.4588 2.8458 6.7436C2.5742 7.2546 2.703 7.8916 3.1552 8.2528L13.5502 16.5674C14.2782 17.1554 15.1602 17.448 16.0422 17.448C16.0478 17.448 16.052 17.448 16.0562 17.448C16.0604 17.448 16.066 17.448 16.0702 17.448C16.9522 17.448 17.8342 17.1554 18.5622 16.5674L28.9572 8.2528C29.4094 7.8916 29.5382 7.2546 29.2666 6.7436" fill="url(#paint1_linear_5_77)"/>
<defs>
<linearGradient id="paint0_linear_5_77" x1="14.7824" y1="27.742" x2="15.9716" y2="12.1539" gradientUnits="userSpaceOnUse">
<stop stop-color="#8D01A2"/>
<stop offset="1" stop-color="#FF33DB"/>
</linearGradient>
<linearGradient id="paint1_linear_5_77" x1="14.895" y1="17.06" x2="15.7879" y2="3.86102" gradientUnits="userSpaceOnUse">
<stop stop-color="#8D01A2"/>
<stop offset="1" stop-color="#FF33DB"/>
</linearGradient>
</defs>
</svg>
