<svg width="32" height="32" viewBox="0 0 32 32" fill="none" xmlns="http://www.w3.org/2000/svg">
<path opacity="0.4" d="M16.3705 2.18524C16.1333 2.06663 15.8586 2.04712 15.607 2.13099L11.2903 3.56989C10.4451 3.85162 10.3625 5.01458 11.1593 5.413L21.4587 10.5627C22.1455 10.9061 22.2051 11.8633 21.5662 12.2892L16 16L28.5528 22.2764C29.2177 22.6088 30 22.1253 30 21.382V9.61803C30 9.23926 29.786 8.893 29.4472 8.72361L16.3705 2.18524ZM16 16L3.5547 7.70313C2.89014 7.2601 2 7.73649 2 8.53518V22.382C2 22.7607 2.214 23.107 2.55279 23.2764L15.6295 29.8148C15.8667 29.9334 16.1414 29.9529 16.393 29.869L20.7097 28.4301C21.5549 28.1484 21.6375 26.9854 20.8407 26.587L10.5413 21.4373C9.8545 21.0939 9.7949 20.1367 10.4338 19.7108L16 16Z" fill="url(#paint0_linear_280_150)"/>
<path d="M11.2903 3.56989L15.607 2.13099C15.8586 2.04712 16.1333 2.06663 16.3705 2.18524L29.4472 8.72361C29.786 8.893 30 9.23926 30 9.61803V21.382C30 22.1253 29.2177 22.6088 28.5528 22.2764L16 16L21.5662 12.2892C22.2051 11.8633 22.1455 10.9061 21.4587 10.5627L11.1593 5.413C10.3625 5.01458 10.4451 3.85162 11.2903 3.56989Z" fill="url(#paint1_linear_280_150)"/>
<defs>
<linearGradient id="paint0_linear_280_150" x1="16" y1="30" x2="16" y2="2" gradientUnits="userSpaceOnUse">
<stop stop-color="#5570FF"/>
<stop offset="1" stop-color="#4DD3FF"/>
</linearGradient>
<linearGradient id="paint1_linear_280_150" x1="19.5" y1="23" x2="19.5" y2="2" gradientUnits="userSpaceOnUse">
<stop stop-color="#5570FF"/>
<stop offset="1" stop-color="#4DD3FF"/>
</linearGradient>
</defs>
</svg>
