<svg width="24" height="24" viewBox="0 0 24 24" fill="none" xmlns="http://www.w3.org/2000/svg">
<path opacity="0.45" d="M1 12C1 6.8146 1 4.2219 2.6104 2.6104C4.223 1 6.8146 1 12 1C17.1854 1 19.7781 1 21.3885 2.6104C23 4.223 23 6.8146 23 12C23 17.1854 23 19.7781 21.3885 21.3885C19.7792 23 17.1854 23 12 23C6.8146 23 4.2219 23 2.6104 21.3885C1 19.7792 1 17.1854 1 12Z" fill="url(#paint0_linear_8_468)"/>
<path d="M9.63521 5.77807C9.871 5.77602 10.0963 5.6804 10.2616 5.51223C10.4269 5.34406 10.5186 5.11713 10.5165 4.88135C10.5145 4.64556 10.4189 4.42025 10.2507 4.25497C10.0825 4.08969 9.85559 3.99799 9.61981 4.00003C8.61225 4.00833 7.7505 4.04034 7.03691 4.18021C6.29844 4.32482 5.6536 4.59627 5.12494 5.12494C4.59627 5.6536 4.32482 6.29844 4.18021 7.03691C4.04034 7.7505 4.00833 8.61107 4.00003 9.61981C3.99799 9.85559 4.08969 10.0825 4.25497 10.2507C4.42025 10.4189 4.64556 10.5145 4.88135 10.5165C5.11713 10.5186 5.34406 10.4269 5.51223 10.2616C5.6804 10.0963 5.77602 9.871 5.77807 9.63521C5.78636 8.62055 5.81955 7.91171 5.92505 7.3783C6.02462 6.87097 6.17635 6.58885 6.3826 6.3826C6.58885 6.17635 6.87097 6.02462 7.3783 5.92505C7.91171 5.82074 8.62055 5.78636 9.63521 5.77807ZM14.3802 4.00003C14.2634 3.99902 14.1476 4.02102 14.0394 4.06476C13.9311 4.1085 13.8326 4.17313 13.7493 4.25497C13.666 4.33681 13.5997 4.43425 13.5541 4.54172C13.5085 4.64919 13.4845 4.7646 13.4835 4.88135C13.4825 4.99809 13.5045 5.1139 13.5482 5.22214C13.5919 5.33039 13.6566 5.42896 13.7384 5.51223C13.8202 5.5955 13.9177 5.66183 14.0252 5.70745C14.1326 5.75306 14.248 5.77706 14.3648 5.77807C15.3795 5.78636 16.0883 5.81955 16.6205 5.92505C17.129 6.02462 17.41 6.17635 17.6162 6.3826C17.8237 6.58885 17.9754 6.87097 18.075 7.3783C18.1793 7.91171 18.2125 8.62055 18.2219 9.63521C18.224 9.871 18.3196 10.0963 18.4878 10.2616C18.6559 10.4269 18.8829 10.5186 19.1187 10.5165C19.3544 10.5145 19.5798 10.4189 19.745 10.2507C19.9103 10.0825 20.002 9.85559 20 9.61981C19.9905 8.61225 19.9597 7.7505 19.8198 7.03691C19.6752 6.29844 19.4025 5.6536 18.8739 5.12494C18.3452 4.59627 17.7004 4.32482 16.9631 4.18021C16.2483 4.04034 15.3877 4.00833 14.379 4.00003H14.3802ZM5.77807 14.3648C5.77602 14.129 5.6804 13.9037 5.51223 13.7384C5.34406 13.5731 5.11713 13.4814 4.88135 13.4835C4.64556 13.4855 4.42025 13.5811 4.25497 13.7493C4.08969 13.9175 3.99799 14.1444 4.00003 14.3802C4.00833 15.3877 4.04034 16.2495 4.18021 16.9631C4.32482 17.7016 4.59627 18.3464 5.12494 18.8751C5.6536 19.4037 6.29844 19.6752 7.03691 19.8198C7.7505 19.9609 8.61107 19.9917 9.61981 20C9.85559 20.002 10.0825 19.9103 10.2507 19.745C10.4189 19.5798 10.5145 19.3544 10.5165 19.1187C10.5186 18.8829 10.4269 18.6559 10.2616 18.4878C10.0963 18.3196 9.871 18.224 9.63521 18.2219C8.62055 18.2136 7.91171 18.1793 7.3783 18.0761C6.87097 17.9766 6.58885 17.8237 6.3826 17.6174C6.17635 17.4112 6.02462 17.129 5.92505 16.6217C5.82074 16.0883 5.78636 15.3795 5.77807 14.3648ZM19.9988 14.3802C19.9998 14.2634 19.9778 14.1476 19.9341 14.0394C19.8903 13.9311 19.8257 13.8326 19.7438 13.7493C19.662 13.666 19.5646 13.5997 19.4571 13.5541C19.3496 13.5085 19.2342 13.4845 19.1175 13.4835C19.0007 13.4825 18.8849 13.5045 18.7767 13.5482C18.6684 13.5919 18.5699 13.6566 18.4866 13.7384C18.4033 13.8202 18.337 13.9177 18.2914 14.0252C18.2458 14.1326 18.2218 14.248 18.2207 14.3648C18.2125 15.3795 18.1793 16.0883 18.075 16.6217C17.9754 17.129 17.8237 17.4112 17.6174 17.6174C17.41 17.8237 17.129 17.9766 16.6217 18.0761C16.0883 18.1793 15.3795 18.2136 14.3648 18.2219C14.248 18.2229 14.1326 18.2469 14.0252 18.2926C13.9177 18.3382 13.8202 18.4045 13.7384 18.4878C13.6566 18.571 13.5919 18.6696 13.5482 18.7779C13.5045 18.8861 13.4825 19.0019 13.4835 19.1187C13.4845 19.2354 13.5085 19.3508 13.5541 19.4583C13.5997 19.5658 13.666 19.6632 13.7493 19.745C13.8326 19.8269 13.9311 19.8915 14.0394 19.9352C14.1476 19.979 14.2634 20.001 14.3802 20C15.3877 19.9917 16.2483 19.9597 16.9631 19.8198C17.7016 19.6752 18.3452 19.4037 18.8739 18.8751C19.4025 18.3464 19.6752 17.7016 19.8198 16.9631C19.9597 16.2495 19.9905 15.3889 19.9988 14.3802Z" fill="url(#paint1_linear_8_468)" stroke="url(#paint2_linear_8_468)" stroke-width="0.6"/>
<defs>
<linearGradient id="paint0_linear_8_468" x1="12" y1="23" x2="12" y2="1" gradientUnits="userSpaceOnUse">
<stop stop-color="#FD5900"/>
<stop offset="1" stop-color="#FFDE00"/>
</linearGradient>
<linearGradient id="paint1_linear_8_468" x1="12" y1="20" x2="12" y2="4" gradientUnits="userSpaceOnUse">
<stop stop-color="#FD5900"/>
<stop offset="1" stop-color="#FFDE00"/>
</linearGradient>
<linearGradient id="paint2_linear_8_468" x1="12" y1="20" x2="12" y2="4" gradientUnits="userSpaceOnUse">
<stop stop-color="#FD5900"/>
<stop offset="1" stop-color="#FFDE00"/>
</linearGradient>
</defs>
</svg>
