<svg width="64" height="64" viewBox="0 0 64 64" fill="none" xmlns="http://www.w3.org/2000/svg">
<path opacity="0.4" d="M8.01084 20.7231C8.00454 20.8297 8.00094 20.9364 8 21.0431V42.817C8.00065 45.0913 9.20941 47.1926 11.1711 48.3295L29.8289 59.1467C31.7911 60.2844 34.2089 60.2844 36.1711 59.1467L54.8289 48.3295C56.7914 47.1921 58.0003 45.0896 58 42.8143V21.0431C57.997 20.9628 57.9924 20.8826 57.9864 20.8024" stroke="url(#paint0_linear_69_195)" stroke-width="4"/>
<path d="M33.1484 4V4.00391C33.0989 4.00462 33.0495 4.00592 33 4.00781V37.9844C34.1122 37.9889 35.206 37.6966 36.1719 37.1367L54.8438 26.1914C55.748 25.6605 56.5092 24.9113 57.0597 24.0101C57.6103 23.1089 57.9333 22.0837 58 21.0254C57.9417 19.9579 57.6227 18.922 57.0717 18.011C56.5207 17.0999 55.755 16.3424 54.8438 15.8066L36.1719 4.86133C35.251 4.3216 34.2114 4.02543 33.1484 4Z" fill="url(#paint1_linear_69_195)"/>
<path opacity="0.4" d="M6.01266 21C6.00818 21.0697 6.00618 21.1397 6.00422 21.2094C6.01072 21.1395 6.01846 21.0697 6.02742 21H6.01266ZM6.00211 21.2657C6.00179 21.2831 6.00017 21.3006 6 21.318V42.9373C6.0007 45.1955 7.30699 47.2831 9.42563 48.412L29.5744 59.1518C30.6648 59.7331 31.7831 60.0162 33 59.9993V38.1492C31.7972 38.1511 30.615 37.8575 29.5723 37.2979L9.40664 26.43C8.4258 25.8992 7.60135 25.1496 7.00718 24.2483C6.41301 23.347 6.06767 22.3222 6.00211 21.2657Z" fill="url(#paint2_linear_69_195)"/>
<path d="M33.1493 4V4.00278C31.9852 3.97375 30.8356 4.27049 29.8265 4.86051L11.1545 15.8064C10.2506 16.3375 9.48982 17.0868 8.93954 17.9879C8.38927 18.8891 8.06654 19.9141 8 20.9722C8.05819 22.0395 8.37698 23.0752 8.92767 23.9862C9.47835 24.8972 10.2436 25.6547 11.1545 26.1906L29.8265 37.1365C30.7913 37.7022 31.8858 38 33 38C34.1142 38 35.2087 37.7022 36.1735 37.1365L54.8455 26.1906C55.7494 25.6596 56.5102 24.9102 57.0605 24.0091C57.6107 23.108 57.9335 22.0829 58 21.0248C57.9418 19.9576 57.623 18.9218 57.0723 18.0109C56.5217 17.0999 55.7564 16.3423 54.8455 15.8064L36.1735 4.86051C35.2524 4.32094 34.2125 4.02505 33.1493 4Z" stroke="url(#paint3_linear_69_195)" stroke-width="4"/>
<defs>
<linearGradient id="paint0_linear_69_195" x1="33" y1="60" x2="33" y2="20.7231" gradientUnits="userSpaceOnUse">
<stop stop-color="#FDA700"/>
<stop offset="1" stop-color="#FFDE00"/>
</linearGradient>
<linearGradient id="paint1_linear_69_195" x1="45.5" y1="37.9844" x2="45.5" y2="4" gradientUnits="userSpaceOnUse">
<stop stop-color="#FDA700"/>
<stop offset="1" stop-color="#FFDE00"/>
</linearGradient>
<linearGradient id="paint2_linear_69_195" x1="19.5" y1="60" x2="19.5" y2="21" gradientUnits="userSpaceOnUse">
<stop stop-color="#FDA700"/>
<stop offset="1" stop-color="#FFDE00"/>
</linearGradient>
<linearGradient id="paint3_linear_69_195" x1="33" y1="38" x2="33" y2="4" gradientUnits="userSpaceOnUse">
<stop stop-color="#FDA700"/>
<stop offset="1" stop-color="#FFDE00"/>
</linearGradient>
</defs>
</svg>
