<svg width="64" height="64" viewBox="0 0 64 64" fill="none" xmlns="http://www.w3.org/2000/svg">
<path d="M32.1484 4V4.00391C32.0989 4.00462 32.0495 4.00592 32 4.00781V37.9844C33.1122 37.9889 34.206 37.6966 35.1719 37.1367L53.8438 26.1914C54.748 25.6605 55.5092 24.9113 56.0597 24.0101C56.6103 23.1089 56.9333 22.0837 57 21.0254C56.9417 19.9579 56.6227 18.922 56.0717 18.011C55.5207 17.0999 54.755 16.3424 53.8438 15.8066L35.1719 4.86133C34.251 4.3216 33.2114 4.02543 32.1484 4Z" fill="url(#paint0_radial_443_70)"/>
<path opacity="0.4" d="M5.01432 20.605C5.00603 20.7453 5.00131 20.8854 5.00008 21.0254L5 21.0342V42.9372C5.00006 43.139 5.01055 43.3394 5.0311 43.5378C5.26437 46.2413 6.79623 48.6851 9.16824 50.0598L27.8258 60.8768C30.4084 62.3742 33.5917 62.3742 36.1743 60.8768L54.832 50.0596C57.4139 48.5631 59.0003 45.7998 59 42.8139V21.0057L58.9986 20.9683C58.9946 20.8615 58.9886 20.7564 58.9808 20.6531L54.992 20.9515C54.9954 20.9968 54.998 21.0409 55 21.084V42.8145C55.0002 44.3791 54.1686 45.8209 52.8258 46.5992L50.8544 47.7421L34.1679 57.4164C33.497 57.8054 32.7485 57.9999 32 57.9999V38.1491C30.7972 38.151 29.615 37.8574 28.5723 37.2978L9 26.7497V23.3559V21.0526C9.00075 20.9818 9.0032 20.9113 9.00736 20.841L5.01432 20.605Z" fill="url(#paint1_radial_443_70)"/>
<path d="M32.1493 4V4.00278C30.9852 3.97375 29.8356 4.27049 28.8265 4.86051L10.1545 15.8064C9.25064 16.3375 8.48982 17.0868 7.93954 17.9879C7.38927 18.8891 7.06654 19.9141 7 20.9722C7.05819 22.0395 7.37698 23.0752 7.92767 23.9862C8.47835 24.8972 9.24362 25.6547 10.1545 26.1906L28.8265 37.1365C29.7913 37.7022 30.8858 38 32 38C33.1142 38 34.2087 37.7022 35.1735 37.1365L53.8455 26.1906C54.7494 25.6596 55.5102 24.9102 56.0605 24.0091C56.6107 23.108 56.9335 22.0829 57 21.0248C56.9418 19.9576 56.623 18.9218 56.0723 18.0109C55.5217 17.0999 54.7564 16.3423 53.8455 15.8064L35.1735 4.86051C34.2524 4.32094 33.2125 4.02505 32.1493 4Z" stroke="url(#paint2_radial_443_70)" stroke-width="4"/>
<defs>
<radialGradient id="paint0_radial_443_70" cx="0" cy="0" r="1" gradientUnits="userSpaceOnUse" gradientTransform="translate(42.2667 26.7592) scale(12.5 16.9922)">
<stop stop-color="#FF1C7F"/>
<stop offset="1" stop-color="#CE166F"/>
</radialGradient>
<radialGradient id="paint1_radial_443_70" cx="0" cy="0" r="1" gradientUnits="userSpaceOnUse" gradientTransform="translate(27.1762 48.3269) scale(27 20.6974)">
<stop stop-color="#FF1C7F"/>
<stop offset="1" stop-color="#CE166F"/>
</radialGradient>
<radialGradient id="paint2_radial_443_70" cx="0" cy="0" r="1" gradientUnits="userSpaceOnUse" gradientTransform="translate(27.5335 26.7696) scale(25 17)">
<stop stop-color="#FF1C7F"/>
<stop offset="1" stop-color="#CE166F"/>
</radialGradient>
</defs>
</svg>
