<svg width="24" height="24" viewBox="0 0 24 24" fill="none" xmlns="http://www.w3.org/2000/svg">
<path opacity="0.5" d="M7.60065 15.8984C7.60065 15.8977 7.60025 15.897 7.5996 15.8966C6.8957 15.4966 6.09916 15.2882 5.28951 15.2922C2.9203 15.2922 1 17.0177 1 19.1461C1 21.2746 2.9203 23 5.28951 23C7.65994 23 9.58024 21.2746 9.58024 19.1461V12.3035C9.58024 11.6069 8.87981 11.1282 8.23083 11.3813V11.3813C7.85084 11.5295 7.60065 11.8956 7.60065 12.3035V15.8984V15.8984ZM21.4116 6.56894C21.0418 6.72219 20.8007 7.08307 20.8007 7.48336V11.8064C20.8007 12.5733 19.9431 13.0808 19.1843 12.9695C18.9551 12.9359 18.7229 12.9194 18.4896 12.9205C16.1203 12.9205 14.2001 14.6461 14.2001 16.7745C14.2001 18.9029 16.1203 20.6284 18.4896 20.6284C20.86 20.6284 22.7804 18.9029 22.7804 16.7745V7.48337C22.7804 6.77786 22.0634 6.29885 21.4116 6.56894V6.56894Z" fill="url(#paint0_linear_54_302)"/>
<path fill-rule="evenodd" clip-rule="evenodd" d="M9.57896 13.055L20.7994 9.0232L22.7803 8.2016V7.64499C22.7803 6.28976 22.7803 5.15357 22.6738 4.24847C22.6593 4.12305 22.642 3.99798 22.6218 3.87337C22.5188 3.25626 22.3386 2.67787 21.9889 2.19628C21.7708 1.89395 21.4928 1.6398 21.1721 1.4497L21.16 1.44365C20.2283 0.885828 19.178 0.925758 18.0963 1.1726C17.0509 1.41219 15.7549 1.89861 14.1649 2.49757L11.4013 3.53698C10.6559 3.81649 10.0242 4.05366 9.52935 4.29929C9.00178 4.56066 8.54804 4.86921 8.20802 5.32902C7.86679 5.78883 7.72521 6.28492 7.66109 6.82217C7.60059 7.32796 7.60059 7.94265 7.60059 8.66745V13.8282L9.58017 13.0538L9.57896 13.055Z" fill="url(#paint1_linear_54_302)"/>
<defs>
<linearGradient id="paint0_linear_54_302" x1="0.138259" y1="22.5652" x2="17.2432" y2="2.79961" gradientUnits="userSpaceOnUse">
<stop stop-color="#D75C6C"/>
<stop offset="0.330956" stop-color="#C723C7"/>
<stop offset="0.549719" stop-color="#AA35D6"/>
<stop offset="1" stop-color="#6B97DF"/>
</linearGradient>
<linearGradient id="paint1_linear_54_302" x1="7" y1="13.5" x2="20.0162" y2="-0.390389" gradientUnits="userSpaceOnUse">
<stop stop-color="#D75C6C"/>
<stop offset="0.330956" stop-color="#C723C7"/>
<stop offset="0.549719" stop-color="#AA35D6"/>
<stop offset="1" stop-color="#6B97DF"/>
</linearGradient>
</defs>
</svg>
