<svg width="128" height="128" viewBox="0 0 128 128" fill="none" xmlns="http://www.w3.org/2000/svg">
<path d="M33.1343 86.7245L78.1498 86.7139C80.2995 86.7139 81.9651 84.7032 82.0198 82.7294C82.0198 82.7294 82.072 84.0458 82.0809 67.8675C82.0819 66.0769 84.2547 65.1754 85.5092 66.4531L99.5126 80.7142C99.9359 81.1455 100.513 81.3912 101.117 81.3976L102.14 81.4083C102.812 81.4083 103.357 80.8634 103.357 80.1911V45.1318C103.357 44.5572 102.891 44.0914 102.317 44.0914L101.475 44.1112C100.881 44.1252 100.315 44.3704 99.899 44.7946L85.5072 59.4621C84.2532 60.7401 82.0806 59.8529 82.0796 58.0625L82.0715 42.895C81.7893 39.9473 80.0289 38.9451 78.0977 38.7857L56.3546 38.8379H33.28C29.9732 38.8379 28.9587 41.0004 28.7857 43.0097L28.7963 82.272C28.7956 85.0658 30.6611 86.7204 33.1343 86.7245ZM55.46 78.7347C54.8206 78.7347 54.1747 78.6942 53.5354 78.6203C44.7814 77.5578 38.5264 69.6399 39.5427 60.9033L39.5742 60.6224C40.7545 51.9103 48.7764 45.783 57.5304 46.9108C65.8663 48.0468 71.9161 55.408 71.3669 63.785C70.826 72.1539 63.8778 78.6856 55.46 78.7347ZM55.6785 70.7449C59.5402 70.6251 62.8474 67.7019 63.3457 63.7435C63.8879 59.3832 60.8192 55.4009 56.4587 54.8278C52.0982 54.2624 48.09 57.3311 47.5013 61.6836L47.4806 61.8292C46.9695 66.1971 50.093 70.1558 54.4613 70.6825C54.87 70.732 55.279 70.7574 55.6785 70.7449Z" fill="url(#paint0_linear_60_108)"/>
<path opacity="0.41" d="M8.07143 16C6.92741 16 6 16.9274 6 18.0714V39.0976C6.00249 41.6448 8.41187 43.7092 10.9591 43.7117C13.5117 43.7166 16.3894 41.6501 16.3918 39.0976V28.4633C16.3918 27.3193 17.3193 26.3918 18.4633 26.3918H29.0976C31.6501 26.3894 33.7166 23.5117 33.7117 20.9591C33.7092 18.4119 31.6448 16.0025 29.0976 16H8.07143ZM98.9024 16C96.3552 16.0025 94.2908 18.4119 94.2883 20.9591C94.2833 23.5117 96.3499 26.3894 98.9024 26.3918H109.536C110.681 26.3918 111.608 27.3193 111.608 28.4633V39.0976C111.611 41.6501 114.488 43.7165 117.041 43.7117C119.588 43.7092 121.998 41.6448 122 39.0976V18.0714C122 16.9274 121.073 16 119.929 16H98.9024ZM10.9591 83.9738C8.41187 83.9763 6.00249 86.0406 6 88.5879V109.614C6 110.759 6.92741 111.686 8.07143 111.686H29.0976C31.6448 111.683 33.7092 109.273 33.7117 106.726C33.7166 104.173 31.6501 101.296 29.0976 101.293H18.4633C17.3193 101.293 16.3918 100.366 16.3918 99.2222V88.5879C16.3894 86.0353 13.5117 83.9689 10.9591 83.9738ZM117.041 83.9738C114.488 83.969 111.611 86.0353 111.608 88.5879V99.2222C111.608 100.366 110.681 101.293 109.536 101.293H98.9024C96.3499 101.296 94.2835 104.173 94.2883 106.726C94.2908 109.273 96.3552 111.683 98.9024 111.686H119.929C121.073 111.686 122 110.759 122 109.614V88.5879C121.998 86.0406 119.588 83.9763 117.041 83.9738Z" fill="url(#paint1_linear_60_108)"/>
<defs>
<linearGradient id="paint0_linear_60_108" x1="104.435" y1="86.2528" x2="60.0299" y2="15.0651" gradientUnits="userSpaceOnUse">
<stop stop-color="#F9D423"/>
<stop offset="0.515624" stop-color="#FF4E50"/>
<stop offset="0.991304" stop-color="#8A2387"/>
</linearGradient>
<linearGradient id="paint1_linear_60_108" x1="4.3233" y1="16.9416" x2="100.615" y2="137.248" gradientUnits="userSpaceOnUse">
<stop stop-color="#F9D423"/>
<stop offset="0.515624" stop-color="#FF4E50"/>
<stop offset="0.991304" stop-color="#8A2387"/>
</linearGradient>
</defs>
</svg>
