<svg width="256" height="256" viewBox="0 0 256 256" fill="none" xmlns="http://www.w3.org/2000/svg">
<path opacity="0.5" fill-rule="evenodd" clip-rule="evenodd" d="M215.111 16C221.712 16 228.043 18.6222 232.71 23.2898C237.378 27.9574 240 34.2879 240 40.8889V215.111C240 221.712 237.378 228.043 232.71 232.71C228.043 237.378 221.712 240 215.111 240H40.8889C34.2879 240 27.9574 237.378 23.2898 232.71C18.6222 228.043 16 221.712 16 215.111V40.8889C16 34.2879 18.6222 27.9574 23.2898 23.2898C27.9574 18.6222 34.2879 16 40.8889 16H215.111Z" fill="url(#paint0_linear_335_176)"/>
<path fill-rule="evenodd" clip-rule="evenodd" d="M156.872 127.854L156.866 127.851V165.544C156.865 169.433 155.569 173.212 153.182 176.283C150.796 179.356 147.455 181.545 143.686 182.509C139.918 183.472 135.936 183.153 132.368 181.603C128.801 180.053 125.85 177.36 123.982 173.948C122.115 170.536 121.435 166.6 122.052 162.759C122.669 158.919 124.546 155.393 127.388 152.737C130.23 150.081 133.875 148.447 137.749 148.092C138.397 148.032 139.046 148.009 139.692 148.021C143.852 148.103 148.782 145.319 148.782 141.157V107.912C148.782 104.614 148.782 101.816 149.029 99.5198C149.294 97.0727 149.876 94.825 151.266 92.7336C152.657 90.6423 154.506 89.2408 156.662 88.055C158.683 86.9392 161.26 85.8558 164.305 84.5837L175.592 79.862C182.081 77.1454 187.375 74.93 191.644 73.8412C196.058 72.7146 200.343 72.5368 204.16 75.0701L204.197 75.0971C205.531 75.989 206.669 77.1446 207.539 78.4929C208.967 80.6867 209.701 83.3063 210.121 86.1199C210.204 86.6844 210.276 87.2504 210.337 87.8178C210.768 91.9359 210.768 97.0997 210.768 103.261V154.769C210.766 158.658 209.47 162.437 207.084 165.508C204.698 168.581 201.356 170.77 197.588 171.734C193.819 172.697 189.837 172.379 186.27 170.828C182.702 169.279 179.752 166.585 177.884 163.173C176.016 159.761 175.337 155.825 175.954 151.984C176.57 148.144 178.447 144.618 181.289 141.962C184.132 139.306 187.776 137.672 191.65 137.317C192.299 137.257 192.948 137.234 193.593 137.247C197.754 137.328 202.683 134.544 202.683 130.382V117.31C202.683 113.583 198.919 111.035 195.459 112.419L156.872 127.854ZM68.2474 106.101C66.3675 104.228 63.845 103.14 61.1921 103.059C58.5393 102.978 55.955 103.91 53.9643 105.665C51.9736 107.421 50.7256 109.868 50.474 112.51C50.2223 115.152 50.9857 117.791 52.6092 119.891L53.4762 120.873L69.9775 137.374C73.1012 140.497 73.1018 145.562 69.9788 148.686L53.4867 165.186C51.5932 167.062 50.4882 169.59 50.3979 172.254C50.3075 174.917 51.2386 177.515 53.0006 179.514C54.7625 181.514 57.2221 182.764 59.8759 183.01C62.5297 183.255 65.177 182.477 67.2759 180.835L68.2474 179.968L97.8002 150.415C99.5989 148.616 100.679 146.223 100.839 143.684C100.999 141.145 100.226 138.636 98.6673 136.626L97.8002 135.644L68.2474 106.101Z" fill="url(#paint1_linear_335_176)"/>
<defs>
<linearGradient id="paint0_linear_335_176" x1="198.405" y1="199.755" x2="72.3525" y2="54.7568" gradientUnits="userSpaceOnUse">
<stop stop-color="#248EFE"/>
<stop offset="1" stop-color="#1DF4FF"/>
</linearGradient>
<linearGradient id="paint1_linear_335_176" x1="180.987" y1="163.291" x2="125.995" y2="71.064" gradientUnits="userSpaceOnUse">
<stop stop-color="#248EFE"/>
<stop offset="1" stop-color="#1DF4FF"/>
</linearGradient>
</defs>
</svg>
