<svg width="128" height="128" viewBox="0 0 128 128" fill="none" xmlns="http://www.w3.org/2000/svg">
<path opacity="0.4" d="M97 8H31C18.8497 8 9 17.8497 9 30V98C9 110.15 18.8497 120 31 120H97C109.15 120 119 110.15 119 98V30C119 17.8497 109.15 8 97 8Z" fill="url(#paint0_linear_220_184)"/>
<path d="M63.76 17.2499C62.9619 15.92 61.0346 15.92 60.2367 17.2499L51.5533 31.722C51.1425 32.4067 51.6357 33.2777 52.4342 33.2777H57.1783C57.7456 33.2777 58.2055 33.7377 58.2055 34.3049V69.8602C58.2055 74.2143 53.6245 77.5176 49.3152 76.8948C45.9965 76.4206 42.9737 75.9466 41.3731 75.1159C39.7801 74.2891 39.2416 73.8871 39.2416 71.2056V67.1546C39.2416 64.3064 41.0997 61.8024 42.3203 59.229C42.7784 58.263 43.0344 57.1828 43.0344 56.0345C43.0344 54.0227 42.2352 52.0933 40.8126 50.6707C39.39 49.2481 37.4606 48.4489 35.4488 48.4489C33.437 48.4489 31.5076 49.2481 30.085 50.6707C28.6624 52.0933 27.8633 54.0227 27.8633 56.0345C27.8633 57.1817 28.1194 58.262 28.5779 59.2285C29.7986 61.8018 31.656 64.3064 31.656 67.1546V71.2056C31.656 76.1097 34.44 79.9783 37.8193 81.7533C41.1949 83.5321 44.8132 84.0063 48.1319 84.4803C51.4506 84.9544 54.4734 85.4285 56.074 86.2591C57.6707 87.0859 58.2055 87.488 58.2055 90.1695C58.2055 90.5949 57.9363 90.9704 57.5454 91.1381C53.4908 92.877 50.6199 96.8634 50.6199 101.548C50.6199 104.566 51.8188 107.46 53.9526 109.594C56.0864 111.728 58.9806 112.926 61.9983 112.926C65.0161 112.926 67.9101 111.728 70.044 109.594C72.1779 107.46 73.3766 104.566 73.3766 101.548C73.3766 96.868 70.5067 92.8785 66.4529 91.1388C66.0711 90.975 65.8427 90.5818 65.7911 90.1695V83.1756C65.8062 82.9859 65.8062 82.7773 65.7911 82.5839C65.7911 80.0504 66.5155 79.3108 68.6356 78.0781C70.7558 76.8493 74.3249 75.8289 78.1176 74.8808C81.9104 73.9326 85.9269 73.0603 89.496 70.9666C93.065 68.8806 96.1333 64.8792 96.1333 59.8272V54.138C96.1333 53.0907 96.9824 52.2417 98.0297 52.2417C99.0771 52.2417 99.9261 51.3926 99.9261 50.3453V39.1249C99.9261 37.9904 99.0063 37.0705 97.8716 37.0705H86.8094C85.6747 37.0705 84.755 37.9904 84.755 39.1249V50.3453C84.755 51.3926 85.604 52.2417 86.6514 52.2417C87.6987 52.2417 88.5477 53.0907 88.5477 54.138V59.8272C88.5477 62.3609 87.8233 63.1004 85.7032 64.3331C83.583 65.562 80.014 66.5822 76.2212 67.5304C71.3511 68.7399 65.7911 64.9782 65.7911 59.9601V34.3049C65.7911 33.7377 66.251 33.2777 66.8183 33.2777H71.5624C72.3608 33.2777 72.854 32.4067 72.4432 31.722L63.76 17.2499Z" fill="url(#paint1_linear_220_184)"/>
<defs>
<linearGradient id="paint0_linear_220_184" x1="64" y1="120" x2="64" y2="8" gradientUnits="userSpaceOnUse">
<stop stop-color="#FD5900"/>
<stop offset="1" stop-color="#FFDE00"/>
</linearGradient>
<linearGradient id="paint1_linear_220_184" x1="63.8947" y1="112.926" x2="63.8947" y2="16.2524" gradientUnits="userSpaceOnUse">
<stop stop-color="#FD5900"/>
<stop offset="1" stop-color="#FFDE00"/>
</linearGradient>
</defs>
</svg>
