<svg width="24" height="24" viewBox="0 0 24 24" fill="none" xmlns="http://www.w3.org/2000/svg">
<path opacity="0.4" d="M13.4358 5.27067V5.47202C12.8961 5.46142 12.3563 5.46142 11.8166 5.46142V5.28127C11.8166 4.55006 11.2013 3.95662 10.4672 3.95662H9.39851C8.17868 3.95662 7.18555 2.98168 7.18555 1.79479C7.18555 1.3603 7.55258 1 7.99517 1C8.44856 1 8.80479 1.3603 8.80479 1.79479C8.80479 2.11271 9.07466 2.36704 9.39851 2.36704H10.4672C12.0972 2.37764 13.425 3.68109 13.4358 5.27067Z" fill="url(#paint0_linear_446_105)"/>
<path fill-rule="evenodd" clip-rule="evenodd" d="M15.4804 5.49074C15.827 5.49549 16.1744 5.50025 16.5231 5.50382C20.2689 5.50382 23 8.17431 23 11.8621V16.5991C23 20.2869 20.2689 22.9574 16.5231 22.9574C15.0226 22.9892 13.5221 22.9998 12.0108 22.9998C10.4995 22.9998 8.97743 22.9892 7.47694 22.9574C3.73111 22.9574 1 20.2869 1 16.5991V11.8621C1 8.17431 3.73111 5.50382 7.48773 5.50382C8.90187 5.48262 10.3484 5.46143 11.8165 5.46143C12.3562 5.46143 12.896 5.46143 13.4357 5.47203C14.1162 5.47203 14.7967 5.48136 15.4804 5.49074ZM10.737 15.0201H9.60354V16.1434C9.60354 16.5779 9.23652 16.9382 8.79393 16.9382C8.34054 16.9382 7.98431 16.5779 7.98431 16.1434V15.0201H6.84005C6.39746 15.0201 6.03043 14.6704 6.03043 14.2253C6.03043 13.7908 6.39746 13.4305 6.84005 13.4305H7.98431V12.3178C7.98431 11.8834 8.34054 11.523 8.79393 11.523C9.23652 11.523 9.60354 11.8834 9.60354 12.3178V13.4305H10.737C11.1796 13.4305 11.5466 13.7908 11.5466 14.2253C11.5466 14.6704 11.1796 15.0201 10.737 15.0201ZM15.3248 13.2292H15.4328C15.8754 13.2292 16.2424 12.8795 16.2424 12.4344C16.2424 11.9999 15.8754 11.6396 15.4328 11.6396H15.3248C14.8715 11.6396 14.5152 11.9999 14.5152 12.4344C14.5152 12.8795 14.8715 13.2292 15.3248 13.2292ZM17.1708 16.8746H17.2787C17.7213 16.8746 18.0884 16.5249 18.0884 16.0798C18.0884 15.6453 17.7213 15.285 17.2787 15.285H17.1708C16.7174 15.285 16.3612 15.6453 16.3612 16.0798C16.3612 16.5249 16.7174 16.8746 17.1708 16.8746Z" fill="url(#paint1_linear_446_105)"/>
<defs>
<linearGradient id="paint0_linear_446_105" x1="8.35747" y1="1.5066" x2="10.9721" y2="5.40981" gradientUnits="userSpaceOnUse">
<stop stop-color="#8F0CFF"/>
<stop offset="0.516064" stop-color="#AA1DFF"/>
<stop offset="1" stop-color="#B826FF"/>
</linearGradient>
<linearGradient id="paint1_linear_446_105" x1="5.125" y1="7.44819" x2="15.7551" y2="21.6908" gradientUnits="userSpaceOnUse">
<stop stop-color="#8F0CFF"/>
<stop offset="0.516064" stop-color="#AA1DFF"/>
<stop offset="1" stop-color="#B826FF"/>
</linearGradient>
</defs>
</svg>
