<svg width="512" height="512" viewBox="0 0 512 512" fill="none" xmlns="http://www.w3.org/2000/svg">
<g clip-path="url(#clip0_54_259)">
<g filter="url(#filter0_d_54_259)">
<path opacity="0.4" d="M256 492C386.339 492 492 386.339 492 256C492 125.661 386.339 20 256 20C125.661 20 20 125.661 20 256C20 386.339 125.661 492 256 492Z" fill="url(#paint0_linear_54_259)"/>
<path fill-rule="evenodd" clip-rule="evenodd" d="M156.947 76C146.483 76 138 84.483 138 94.9474V104.789C138 105.894 138.895 106.789 140 106.789H193.658C196.928 106.789 199.579 109.44 199.579 112.711C199.579 115.981 196.928 118.632 193.658 118.632H140C138.895 118.632 138 119.527 138 120.632V140.316C138 141.42 138.895 142.316 140 142.316H165.237C168.507 142.316 171.158 144.967 171.158 148.237C171.158 151.507 168.507 154.158 165.237 154.158H140C138.895 154.158 138 155.053 138 156.158V175.842C138 176.947 138.895 177.842 140 177.842H165.237C168.507 177.842 171.158 180.493 171.158 183.763C171.158 187.033 168.507 189.684 165.237 189.684H140C138.895 189.684 138 190.58 138 191.684V211.368C138 212.473 138.895 213.368 140 213.368H165.237C168.507 213.368 171.158 216.019 171.158 219.289C171.158 222.56 168.507 225.211 165.237 225.211H140C138.895 225.211 138 226.106 138 227.211V246.895C138 247.999 138.895 248.895 140 248.895H165.237C168.507 248.895 171.158 251.546 171.158 254.816C171.158 258.086 168.507 260.737 165.237 260.737H140C138.895 260.737 138 261.632 138 262.737V282.421C138 283.526 138.895 284.421 140 284.421H193.658C196.928 284.421 199.579 287.072 199.579 290.342C199.579 293.612 196.928 296.263 193.658 296.263H140C138.895 296.263 138 297.159 138 298.263V317.947C138 319.052 138.895 319.947 140 319.947H165.237C168.507 319.947 171.158 322.598 171.158 325.868C171.158 329.139 168.507 331.789 165.237 331.789H140C138.895 331.789 138 332.685 138 333.789V353.474C138 354.578 138.895 355.474 140 355.474H165.237C168.507 355.474 171.158 358.125 171.158 361.395C171.158 364.665 168.507 367.316 165.237 367.316H140C138.895 367.316 138 368.211 138 369.316V389C138 390.105 138.895 391 140 391H165.237C168.507 391 171.158 393.651 171.158 396.921C171.158 400.191 168.507 402.842 165.237 402.842H140C138.895 402.842 138 403.738 138 404.842V417.053C138 427.517 146.483 436 156.947 436H235.474C236.578 436 237.474 435.105 237.474 434V78C237.474 76.8954 236.578 76 235.474 76H156.947ZM431.684 256C431.684 161.821 355.337 85.4737 261.158 85.4737C258.616 85.4737 256.088 85.5293 253.574 85.6393C252.513 85.6858 251.683 86.5639 251.683 87.626L251.683 95.4728C251.683 96.6236 252.651 97.5358 253.801 97.4833C256.239 97.372 258.692 97.3158 261.158 97.3158C348.797 97.3158 419.842 168.361 419.842 256C419.842 343.639 348.797 414.684 261.158 414.684C258.692 414.684 256.239 414.628 253.801 414.517C252.651 414.464 251.683 415.376 251.683 416.527L251.683 424.374C251.683 425.436 252.513 426.314 253.574 426.361C256.088 426.471 258.616 426.526 261.158 426.526C355.337 426.526 431.684 350.179 431.684 256ZM406.816 256C406.816 175.555 341.602 110.342 261.158 110.342C258.608 110.342 256.073 110.408 253.555 110.537C252.502 110.591 251.682 111.466 251.682 112.521L251.683 184.546C251.683 185.765 252.764 186.698 253.976 186.563C256.528 186.278 259.122 186.132 261.75 186.132C300.01 186.132 331.026 217.148 331.026 255.408C331.026 293.668 300.01 324.684 261.75 324.684C259.122 324.684 256.528 324.538 253.976 324.253C252.764 324.118 251.683 325.051 251.683 326.27L251.682 399.479C251.682 400.534 252.502 401.409 253.555 401.463C256.073 401.592 258.608 401.658 261.158 401.658C341.602 401.658 406.816 336.445 406.816 256Z" fill="url(#paint1_linear_54_259)"/>
</g>
</g>
<defs>
<filter id="filter0_d_54_259" x="0" y="8" width="512" height="512" filterUnits="userSpaceOnUse" color-interpolation-filters="sRGB">
<feFlood flood-opacity="0" result="BackgroundImageFix"/>
<feColorMatrix in="SourceAlpha" type="matrix" values="0 0 0 0 0 0 0 0 0 0 0 0 0 0 0 0 0 0 127 0" result="hardAlpha"/>
<feOffset dy="8"/>
<feGaussianBlur stdDeviation="10"/>
<feColorMatrix type="matrix" values="0 0 0 0 0 0 0 0 0 0 0 0 0 0 0 0 0 0 0.2 0"/>
<feBlend mode="normal" in2="BackgroundImageFix" result="effect1_dropShadow_54_259"/>
<feBlend mode="normal" in="SourceGraphic" in2="effect1_dropShadow_54_259" result="shape"/>
</filter>
<linearGradient id="paint0_linear_54_259" x1="256" y1="20" x2="256" y2="492" gradientUnits="userSpaceOnUse">
<stop stop-color="#00FFE0"/>
<stop offset="1" stop-color="#078AA7"/>
</linearGradient>
<linearGradient id="paint1_linear_54_259" x1="14822.2" y1="76" x2="14822.2" y2="36076" gradientUnits="userSpaceOnUse">
<stop stop-color="#4FFFD8"/>
<stop offset="1" stop-color="#00A29F"/>
</linearGradient>
<clipPath id="clip0_54_259">
<rect width="512" height="512" fill="white"/>
</clipPath>
</defs>
</svg>
