<svg width="128" height="128" viewBox="0 0 128 128" fill="none" xmlns="http://www.w3.org/2000/svg">
<path opacity="0.4" d="M118.409 77.272C117.265 75.592 115.638 73.912 113.53 72.848C111.843 72.064 110.759 70.776 109.795 69.264C106.722 64.448 108.53 58.12 113.65 55.264C119.674 52.072 121.602 44.96 118.108 39.416L114.072 32.808C110.638 27.264 103.108 25.304 97.1439 28.552C91.8426 31.24 85.0353 29.448 81.963 24.688C80.9991 23.12 80.4569 21.44 80.5774 19.76C80.7581 17.576 80.0352 15.504 78.9509 13.824C76.7219 10.352 72.6857 8 68.2279 8H59.7338C55.3361 8.112 51.2999 10.352 49.071 13.824C47.9264 15.504 47.2637 17.576 47.3842 19.76C47.5047 21.44 46.9625 23.12 45.9987 24.688C42.9263 29.448 36.119 31.24 30.878 28.552C24.8538 25.304 17.3839 27.264 13.8898 32.808L9.85365 39.416C6.41988 44.96 8.34761 52.072 14.3115 55.264C19.4321 58.12 21.2393 64.448 18.2272 69.264C17.2031 70.776 16.1188 72.064 14.432 72.848C12.3838 73.912 10.5766 75.592 9.61269 77.272C7.38374 80.744 7.50423 85.112 9.73317 88.752L13.8898 95.472C16.1188 99.056 20.2755 101.296 24.6129 101.296C26.6611 101.296 29.0708 100.736 30.9985 99.616C32.5045 98.664 34.3118 98.328 36.2998 98.328C42.2637 98.328 47.2637 102.976 47.3842 108.52C47.3842 114.96 52.9265 120 59.9145 120H68.1074C75.0352 120 80.5774 114.96 80.5774 108.52C80.7581 102.976 85.7582 98.328 91.7221 98.328C93.6499 98.328 95.4571 98.664 97.0234 99.616C98.9511 100.736 101.301 101.296 103.409 101.296C107.686 101.296 111.843 99.056 114.072 95.472L118.289 88.752C120.457 85 120.638 80.744 118.409 77.272Z" fill="url(#paint0_linear_54_1196)"/>
<path d="M58.3162 32C56.5574 32 55.3333 33.4159 55.3333 35.1746V71.3333C55.3333 71.7013 55.0348 72 54.6666 72H43.4233C42.8581 72 42.5493 72.6593 42.9112 73.0933L63.71 98.052C63.9766 98.372 64.4678 98.372 64.7344 98.052L85.5333 73.0933C85.8953 72.6593 85.586 72 85.0213 72H73.778C73.4093 72 73.1113 71.7013 73.1113 71.3333V35.1746C73.1113 33.4159 71.8866 32 70.128 32H58.3162Z" fill="url(#paint1_linear_54_1196)"/>
<defs>
<linearGradient id="paint0_linear_54_1196" x1="64" y1="120" x2="64" y2="8" gradientUnits="userSpaceOnUse">
<stop stop-color="#5570FF"/>
<stop offset="1" stop-color="#4DD3FF"/>
</linearGradient>
<linearGradient id="paint1_linear_54_1196" x1="64.2222" y1="98.6667" x2="64.2222" y2="32" gradientUnits="userSpaceOnUse">
<stop stop-color="#5570FF"/>
<stop offset="1" stop-color="#4DD3FF"/>
</linearGradient>
</defs>
</svg>
