<svg width="192" height="192" viewBox="0 0 192 192" fill="none" xmlns="http://www.w3.org/2000/svg">
<path d="M106.867 2.93661C110.282 1.7288 114.449 3.52844 115.73 6.80161C121.467 23.3487 112.127 43.0722 95.3552 49.7031C89.593 51.6718 84.1949 55.1624 81.3075 60.4769C76.2609 68.8349 78.0938 80.3575 85.5633 86.8313C87.6848 88.8605 90.8735 90.2253 91.6016 93.2689C93.3466 98.2089 87.8229 103.427 82.6884 101.844C77.0644 99.1993 72.6454 94.5371 69.3689 89.4764C59.7025 74.6686 63.7323 53.3991 78.3072 42.9153C83.6425 38.3497 91.4133 37.6613 96.3343 32.5763C101.896 27.3465 104.218 19.3387 102.373 12.0919C101.117 8.48043 102.862 3.99949 106.867 2.93661Z" fill="url(#paint0_linear_36_241)"/>
<path d="M109.691 50.5245C112.842 49.836 116.521 48.9301 119.458 50.7298C123.651 53.3991 123.488 60.4769 118.919 62.7113C116.37 63.7259 113.445 63.5327 110.997 64.813C106.98 66.516 105.386 71.2505 105.925 75.1759C106.277 78.739 109.352 81.058 111.461 83.7031C118.706 93.2086 116.809 108.053 107.131 115.348C102.987 118.017 96.824 114.985 96.4222 110.263C95.5811 105.396 101.507 102.847 101.419 98.1243C102.423 91.3244 94.5642 88.172 93.0201 82.1571C87.6094 69.5355 95.92 53.7735 109.691 50.5245Z" fill="url(#paint1_linear_36_241)"/>
<path opacity="0.4" d="M137.171 93.5588C143.336 91.7592 150.24 93.752 155.551 97.001C168.946 105.492 170.916 126.037 159.718 136.968C155.676 140.954 150.14 143.611 144.34 144.058C139.205 144.143 135.527 138.417 137.837 134.033C139.858 129.467 146.224 130.518 149.236 126.943C154.471 121.894 153.53 112.268 146.926 108.717C143.411 106.156 138.214 107.714 135.038 104.646C131.585 101.506 132.741 95.2739 137.171 93.5588Z" fill="url(#paint2_linear_36_241)"/>
<path opacity="0.4" d="M47.2365 114.514C51.6303 110.806 57.3046 108.886 62.7781 107.195C66.1173 106.277 69.7203 109.248 69.4567 112.522C69.645 115.686 66.4061 117.232 64.0209 118.609C74.2271 121.205 84.8978 121.483 95.3677 120.662C106.604 119.696 117.851 117.559 128.158 113.041C133.318 110.42 139.996 115.65 138.201 121.049C136.808 125.771 131.134 126.725 127.066 128.428C107.658 134.757 86.5173 136.666 66.2805 133.32C59.5015 131.931 52.1953 130.107 47.2365 125.119C44.324 122.269 43.96 117.244 47.2365 114.514Z" fill="url(#paint3_linear_36_241)"/>
<path opacity="0.4" d="M60.9076 146.933C67.0213 143.055 74.428 141.654 81.5334 140.458C86.2913 139.335 89.7687 145.386 86.8437 148.888C84.7849 150.774 81.7343 151.075 79.2236 152.162C91.3505 154.3 103.917 152.899 115.617 149.36C123.162 148.128 126.401 159.675 119.483 162.501C105.725 167.187 90.6098 168.153 76.2484 165.798C69.9212 164.482 62.9162 162.731 58.6981 157.646C55.7982 154.276 57.1415 149.106 60.9076 146.933Z" fill="url(#paint4_linear_36_241)"/>
<path opacity="0.4" d="M21.3884 168.153C28.205 164.36 36.0134 161.691 43.9223 161.583L44.437 163.261C41.6627 165.218 38.2857 166.51 36.3398 169.385C56.7273 174.748 78.0811 175.158 99.0834 174.664C110.658 174.398 122.446 175.002 133.719 172.007C138.603 170.991 143.261 169.18 148.094 167.996C152.023 167.526 154.195 173.299 150.579 175.158C133.932 186.548 112.729 188.082 92.9574 188.65C73.3108 188.916 53.4004 187.998 34.3062 183.239C28.6946 181.584 22.468 180.002 18.4884 175.582C15.9651 172.828 18.7144 169.53 21.3884 168.153Z" fill="url(#paint5_linear_36_241)"/>
<defs>
<linearGradient id="paint0_linear_36_241" x1="90.7644" y1="102.132" x2="90.7644" y2="2.55933" gradientUnits="userSpaceOnUse">
<stop stop-color="#FD2E00"/>
<stop offset="1" stop-color="#FF9900"/>
</linearGradient>
<linearGradient id="paint1_linear_36_241" x1="106.915" y1="116.344" x2="106.915" y2="49.6766" gradientUnits="userSpaceOnUse">
<stop stop-color="#FD2E00"/>
<stop offset="1" stop-color="#FF9900"/>
</linearGradient>
<linearGradient id="paint2_linear_36_241" x1="150.01" y1="144.059" x2="150.01" y2="92.8796" gradientUnits="userSpaceOnUse">
<stop stop-color="#FD2E00"/>
<stop offset="1" stop-color="#FF9900"/>
</linearGradient>
<linearGradient id="paint3_linear_36_241" x1="91.7066" y1="134.946" x2="91.7066" y2="107.026" gradientUnits="userSpaceOnUse">
<stop stop-color="#FD2E00"/>
<stop offset="1" stop-color="#FF9900"/>
</linearGradient>
<linearGradient id="paint4_linear_36_241" x1="90.2101" y1="167.034" x2="90.2101" y2="140.321" gradientUnits="userSpaceOnUse">
<stop stop-color="#FD2E00"/>
<stop offset="1" stop-color="#FF9900"/>
</linearGradient>
<linearGradient id="paint5_linear_36_241" x1="84.9568" y1="188.691" x2="84.9568" y2="161.583" gradientUnits="userSpaceOnUse">
<stop stop-color="#FD2E00"/>
<stop offset="1" stop-color="#FF9900"/>
</linearGradient>
</defs>
</svg>
