<svg width="64" height="64" viewBox="0 0 64 64" fill="none" xmlns="http://www.w3.org/2000/svg">
<path d="M36.7615 14.6416C36.7615 14.6416 49.1513 17.958 55.2288 19.5836C56.093 19.8156 56.8268 20.3841 57.2647 21.1642C57.7027 21.9429 57.8085 22.8667 57.5576 23.7251C55.5884 30.4435 51.2627 45.2014 51.2627 45.2014C45.4622 59.7533 33.493 63.2321 23.7105 59.7533C3.40883 53.9325 10.6594 29.1935 10.6594 29.1935C10.6594 29.1935 22.0457 32.4577 27.7635 34.0978C28.6104 34.34 29.5211 34.237 30.2911 33.8078C31.0611 33.38 31.631 32.6637 31.8717 31.8153C33.5046 26.0801 36.7615 14.6416 36.7615 14.6416Z" fill="url(#paint0_linear_343_511)"/>
<path opacity="0.5" d="M13.5291 3.00029C12.8925 3.01479 12.3414 3.44258 12.1659 4.05453L6.36548 24.4272C6.14506 25.2001 6.59025 26.0049 7.36026 26.2268L27.6619 32.0476C28.4305 32.268 29.2338 31.8214 29.4542 31.0499L35.2547 10.6772C35.4751 9.9043 35.0299 9.09948 34.2599 8.87761L13.9583 3.05684C13.8191 3.01624 13.6741 2.99739 13.5291 3.00029Z" fill="url(#paint1_linear_343_511)"/>
<defs>
<linearGradient id="paint0_linear_343_511" x1="57.6911" y1="60.9998" x2="19.1663" y2="20.4197" gradientUnits="userSpaceOnUse">
<stop stop-color="#FF4000"/>
<stop offset="0.905415" stop-color="#FFA200"/>
</linearGradient>
<linearGradient id="paint1_linear_343_511" x1="35.3111" y1="32.1039" x2="11.0931" y2="7.70026" gradientUnits="userSpaceOnUse">
<stop stop-color="#FF4000"/>
<stop offset="0.905415" stop-color="#FFA200"/>
</linearGradient>
</defs>
</svg>
