<svg width="48" height="48" viewBox="0 0 48 48" fill="none" xmlns="http://www.w3.org/2000/svg">
<rect opacity="0.4" x="3" y="3" width="42" height="42" rx="12" fill="url(#paint0_linear_69_250)"/>
<path d="M18.5821 32.7453C18.5821 32.7453 19.4408 30.8986 14.5009 30.0398C12.6542 29.7167 11.4261 31.2864 11.1214 33.1885C10.6043 36.3833 11.9063 41 11.9063 41C12.2664 39.7812 13.3651 35.9585 15.8674 35.3583C15.8674 35.3583 17.3817 37.205 20.9089 37.205C24.4361 37.205 28.5266 34.435 29.2929 32.5883L30.6226 33.0684C32.5557 31.6438 33.9436 29.601 34.556 27.279C35.3224 23.6687 36.7074 17.2053 33.1156 16.8452C29.5238 16.4851 22.7371 24.3797 22.7371 24.3797L23.8359 19.0243C23.8359 19.0243 22.9126 13.6042 23.9929 12.5608C25.0732 11.5174 29.4499 10.0216 30.0224 8.39652C30.5949 6.77142 29.8008 4.70312 30.1609 5.03553C30.7986 5.59745 31.2517 6.33884 31.4609 7.16262C31.6702 7.98639 31.6258 8.85416 31.3335 9.65227C31.1009 10.1821 30.5591 15.145 28.7389 18.3779C26.673 22.0472 23.2867 24.0201 22.7371 24.3797C23.153 23.0602 26.3329 13.6032 26.6059 12.2469" fill="url(#paint1_linear_69_250)"/>
<path d="M31.7583 16.919C31.6382 21.111 31.7583 22.4591 32.1645 23.3178C32.5708 24.1766 34.279 28.1193 34.279 28.1193C34.279 28.1193 28.7389 24.075 25.5995 23.7149C23.5124 23.604 21.4538 24.239 19.7917 25.5062C22.0723 25.1368 23.2358 24.8229 24.5654 25.5062C25.895 26.1895 27.5663 28.4886 29.533 28.6456C31.1326 28.6717 32.7285 28.4854 34.279 28.0916" fill="url(#paint2_linear_69_250)"/>
<path d="M23.8359 19.0243C22.1831 19.0243 18.6097 19.0243 17.0954 22.2006C15.8766 24.7398 17.6495 28.5255 20.1517 29.7444" fill="url(#paint3_linear_69_250)"/>
<path d="M14.4639 30.0398C14.4639 31.0371 13.6052 34.4165 15.8304 35.3583C16.6522 35.7 18.5543 32.9299 19.0529 32.2282C19.5015 31.4391 19.8696 30.607 20.1517 29.7444C21.7307 29.8552 26.9014 27.3714 26.9014 27.3714M29.2559 32.6067C29.7367 31.3571 29.987 30.0307 29.9946 28.6917ZM28.9882 12.3946C29.5422 12.2284 30.2993 12.8563 30.6964 14.149C31.0934 15.4417 31.0657 16.919 30.17 17.4084C29.2744 17.8978 27.7878 16.679 27.6678 15.4971C27.5477 14.3152 28.0925 12.6624 28.9882 12.3946Z" fill="url(#paint4_linear_69_250)"/>
<path d="M23.4851 15.7648C24.827 14.9855 26.2912 14.4392 27.8156 14.149Z" fill="url(#paint5_linear_69_250)"/>
<path d="M18.5821 32.7453C18.5821 32.7453 19.4408 30.8986 14.5009 30.0398C12.6542 29.7167 11.4261 31.2864 11.1214 33.1885C10.6043 36.3833 11.9063 41 11.9063 41C12.2664 39.7812 13.3651 35.9585 15.8674 35.3583C15.8674 35.3583 17.3817 37.205 20.9089 37.205C24.4361 37.205 28.5266 34.435 29.2929 32.5883L30.6226 33.0684C32.5557 31.6438 33.9436 29.601 34.556 27.279C35.3224 23.6687 36.7074 17.2053 33.1156 16.8452C29.5238 16.4851 22.7371 24.3797 22.7371 24.3797M22.7371 24.3797L23.8359 19.0243M22.7371 24.3797C23.153 23.0602 26.3329 13.6032 26.6059 12.2469M22.7371 24.3797C23.2867 24.0201 26.673 22.0472 28.7389 18.3779C30.5591 15.145 31.1009 10.1821 31.3335 9.65227C31.6258 8.85416 31.6702 7.98639 31.4609 7.16262C31.2517 6.33884 30.7986 5.59745 30.1609 5.03553C29.8008 4.70312 30.5949 6.77142 30.0224 8.39652C29.4499 10.0216 25.0732 11.5174 23.9929 12.5608C22.9126 13.6042 23.8359 19.0243 23.8359 19.0243M23.8359 19.0243C22.1831 19.0243 18.6097 19.0243 17.0954 22.2006C15.8766 24.7398 17.6495 28.5255 20.1517 29.7444M31.7583 16.919C31.6382 21.111 31.7583 22.4591 32.1645 23.3178C32.5708 24.1766 34.279 28.1193 34.279 28.1193C34.279 28.1193 28.7389 24.075 25.5995 23.7149C23.5124 23.604 21.4538 24.239 19.7917 25.5062C22.0723 25.1368 23.2358 24.8229 24.5654 25.5062C25.895 26.1895 27.5663 28.4886 29.533 28.6456C31.1326 28.6717 32.7285 28.4854 34.279 28.0916M20.1517 29.7444C19.8696 30.607 19.5015 31.4391 19.0529 32.2282C18.5543 32.9299 16.6522 35.7 15.8304 35.3583C13.6052 34.4165 14.4639 31.0371 14.4639 30.0398M20.1517 29.7444C21.7307 29.8552 26.9014 27.3714 26.9014 27.3714M29.2559 32.6067C29.7367 31.3571 29.987 30.0307 29.9946 28.6917M23.4851 15.7648C24.827 14.9855 26.2912 14.4392 27.8156 14.149M28.9882 12.3946C29.5422 12.2284 30.2993 12.8563 30.6964 14.149C31.0934 15.4417 31.0657 16.919 30.17 17.4084C29.2744 17.8978 27.7878 16.679 27.6678 15.4971C27.5477 14.3152 28.0925 12.6624 28.9882 12.3946Z" stroke="url(#paint6_linear_69_250)" stroke-linecap="round" stroke-linejoin="round"/>
<defs>
<linearGradient id="paint0_linear_69_250" x1="24" y1="45" x2="24" y2="3" gradientUnits="userSpaceOnUse">
<stop stop-color="#5570FF"/>
<stop offset="1" stop-color="#4DD3FF"/>
</linearGradient>
<linearGradient id="paint1_linear_69_250" x1="23.2351" y1="41" x2="23.2351" y2="5" gradientUnits="userSpaceOnUse">
<stop stop-color="#5570FF"/>
<stop offset="1" stop-color="#4DD3FF"/>
</linearGradient>
<linearGradient id="paint2_linear_69_250" x1="23.2351" y1="41" x2="23.2351" y2="5" gradientUnits="userSpaceOnUse">
<stop stop-color="#5570FF"/>
<stop offset="1" stop-color="#4DD3FF"/>
</linearGradient>
<linearGradient id="paint3_linear_69_250" x1="23.2351" y1="41" x2="23.2351" y2="5" gradientUnits="userSpaceOnUse">
<stop stop-color="#5570FF"/>
<stop offset="1" stop-color="#4DD3FF"/>
</linearGradient>
<linearGradient id="paint4_linear_69_250" x1="23.2351" y1="41" x2="23.2351" y2="5" gradientUnits="userSpaceOnUse">
<stop stop-color="#5570FF"/>
<stop offset="1" stop-color="#4DD3FF"/>
</linearGradient>
<linearGradient id="paint5_linear_69_250" x1="23.2351" y1="41" x2="23.2351" y2="5" gradientUnits="userSpaceOnUse">
<stop stop-color="#5570FF"/>
<stop offset="1" stop-color="#4DD3FF"/>
</linearGradient>
<linearGradient id="paint6_linear_69_250" x1="23.2351" y1="41" x2="23.2351" y2="5" gradientUnits="userSpaceOnUse">
<stop stop-color="#5570FF"/>
<stop offset="1" stop-color="#4DD3FF"/>
</linearGradient>
</defs>
</svg>
