<svg width="64" height="64" viewBox="0 0 64 64" fill="none" xmlns="http://www.w3.org/2000/svg">
<path opacity="0.4" d="M6 5C4.34315 5 3 6.34315 3 8C3 9.65685 4.34315 11 6 11H7V14.2217C6.98447 14.3947 6.97656 14.5695 6.97656 14.7456V45.2056C6.97656 45.3816 6.98447 45.5564 7 45.7294V57C7 58.6569 8.34315 60 10 60C11.6569 60 13 58.6569 13 57V50.9756H16.9766C19.1855 50.9756 20.9766 49.1849 20.9766 46.9756V44.9756H26.9766V46.9756C26.9766 49.1847 28.7674 50.9756 30.9766 50.9756H55.3106C58.5503 50.9756 60.9766 48.2875 60.9766 45.2056V14.7456C60.9766 11.6619 58.5496 8.97559 55.3105 8.97559L13 8.97658V8C13 6.34315 11.6569 5 10 5H6Z" fill="url(#paint0_linear_37_250)"/>
<path fill-rule="evenodd" clip-rule="evenodd" d="M35.4545 17.2727C35.4545 16.5698 34.8847 16 34.1818 16C33.4789 16 32.9091 16.5698 32.9091 17.2727V19.9458C32.9091 20.5948 32.4092 21.1211 31.8053 21.3586C30.6884 21.7978 29.7984 22.6879 29.3595 23.8049C29.1221 24.4089 28.5958 24.9091 27.9466 24.9091H25.2727C24.5698 24.9091 24 25.4789 24 26.1818C24 26.8847 24.5698 27.4545 25.2727 27.4545H27.7884C28.4912 27.4545 29.0611 28.0243 29.0611 28.7273V31.2727C29.0611 31.9757 28.4912 32.5455 27.7884 32.5455H25.2727C24.5698 32.5455 24 33.1153 24 33.8182C24 34.5211 24.5698 35.0909 25.2727 35.0909H27.9704C28.6125 35.0909 29.1353 35.5808 29.3766 36.1758C29.8213 37.2726 30.7028 38.1457 31.8053 38.5793C32.4092 38.8168 32.9091 39.343 32.9091 39.9919V41.4545C32.9091 42.1575 33.4789 42.7273 34.1818 42.7273C34.8847 42.7273 35.4545 42.1575 35.4545 41.4545V40.1508C35.4545 39.4478 36.0243 38.878 36.7273 38.878H39.2727C39.9757 38.878 40.5455 39.4478 40.5455 40.1508V41.4545C40.5455 42.1575 41.1153 42.7273 41.8182 42.7273C42.5211 42.7273 43.0909 42.1575 43.0909 41.4545V39.9691C43.0909 39.3269 43.581 38.8041 44.1762 38.5629C45.2595 38.1239 46.1246 37.259 46.5638 36.1758C46.805 35.5808 47.3278 35.0909 47.9699 35.0909H50.7273C51.4302 35.0909 52 34.5211 52 33.8182C52 33.1153 51.4302 32.5455 50.7273 32.5455H48.152C47.4491 32.5455 46.8793 31.9757 46.8793 31.2727V28.7273C46.8793 28.0243 47.4491 27.4545 48.152 27.4545H50.7273C51.4302 27.4545 52 26.8847 52 26.1818C52 25.4789 51.4302 24.9091 50.7273 24.9091H47.9937C47.3446 24.9091 46.8183 24.4089 46.5809 23.8049C46.1472 22.7017 45.2738 21.8197 44.1762 21.375C43.581 21.1338 43.0909 20.611 43.0909 19.9686V17.2727C43.0909 16.5698 42.5211 16 41.8182 16C41.1153 16 40.5455 16.5698 40.5455 17.2727V19.7871C40.5455 20.4901 39.9757 21.0599 39.2727 21.0599H36.7273C36.0243 21.0599 35.4545 20.4901 35.4545 19.7871V17.2727ZM31.6364 34.7604C31.6364 34.838 31.6422 34.916 31.6614 34.9913C31.8576 35.7623 32.5563 36.3326 33.3884 36.3326H42.552C43.5361 36.3326 44.3339 35.5348 44.3339 34.5508V25.3871C44.3339 24.5583 43.7679 23.8616 43.0014 23.6625C42.9247 23.6425 42.8451 23.6364 42.7657 23.6364H40.561C40.5525 23.6364 40.5455 23.6294 40.5455 23.6208C40.5455 23.6123 40.5385 23.6053 40.5299 23.6053H35.4701C35.4615 23.6053 35.4545 23.6123 35.4545 23.6208C35.4545 23.6294 35.4475 23.6364 35.439 23.6364H33.1746C33.0953 23.6364 33.0157 23.6425 32.9389 23.6625C32.3131 23.8251 31.8209 24.3194 31.6614 24.9466C31.6422 25.0219 31.6364 25.0997 31.6364 25.1775V27.4397C31.6364 27.4479 31.6297 27.4545 31.6215 27.4545C31.6132 27.4545 31.6066 27.4612 31.6066 27.4694V32.5306C31.6066 32.5388 31.6132 32.5455 31.6215 32.5455C31.6297 32.5455 31.6364 32.5521 31.6364 32.5603V34.7604Z" fill="url(#paint1_linear_37_250)" stroke="url(#paint2_linear_37_250)" stroke-width="2"/>
<defs>
<linearGradient id="paint0_linear_37_250" x1="8" y1="8" x2="8" y2="56.9999" gradientUnits="userSpaceOnUse">
<stop stop-color="#BAFA52"/>
<stop offset="1" stop-color="#3F8F5B"/>
</linearGradient>
<linearGradient id="paint1_linear_37_250" x1="38" y1="42.7273" x2="38" y2="16" gradientUnits="userSpaceOnUse">
<stop stop-color="#02AA93"/>
<stop offset="1" stop-color="#67FF80"/>
</linearGradient>
<linearGradient id="paint2_linear_37_250" x1="38" y1="42.7273" x2="38" y2="16" gradientUnits="userSpaceOnUse">
<stop stop-color="#02AA93"/>
<stop offset="1" stop-color="#67FF80"/>
</linearGradient>
</defs>
</svg>
