<svg width="128" height="128" viewBox="0 0 128 128" fill="none" xmlns="http://www.w3.org/2000/svg">
<path d="M101.76 54.0295H13.3985C11.52 54.0295 10 55.5496 10 57.4281V77.8192C10 102.18 29.8202 122 54.1808 122C65.328 122 75.493 117.815 83.2739 110.979C83.4071 110.862 83.5367 110.771 83.6949 110.691C87.608 108.717 118.753 92.3365 118.753 71.0222C118.753 61.6532 111.129 54.0295 101.76 54.0295ZM98.5702 91.3229C96.9512 92.6032 94.4642 90.7065 94.9797 88.7078C95.8778 85.2254 96.3616 81.5797 96.3616 77.8195V62.8269C96.3616 61.7223 97.257 60.8269 98.3616 60.8269H99.76C105.382 60.8269 111.955 66.4004 111.955 72.0225C111.955 79.4707 105.425 85.9021 98.5702 91.3229Z" fill="url(#paint0_linear_38_131)"/>
<g opacity="0.4">
<path d="M50.0189 46.7483L50.0128 46.7559C48.1539 49.0751 44.7728 49.4518 42.4426 47.6024C40.1076 45.7481 39.7287 42.3592 41.5644 40.0291C41.8511 39.6652 42.4398 38.8063 42.9477 37.7696C43.4725 36.6982 43.7971 35.6653 43.7971 34.8846C43.7971 34.094 43.4641 33.0456 42.9338 31.968C42.4198 30.9234 41.8344 30.0784 41.5825 29.7647L41.5752 29.7556C41.3192 29.433 40.1966 27.984 39.1311 25.894C38.0763 23.8249 37 20.9778 37 17.892C37 14.8062 38.0763 11.9592 39.1311 9.89C40.1966 7.80002 41.3192 6.35108 41.5752 6.02847L41.5829 6.01881C43.4363 3.7125 46.8116 3.31478 49.1515 5.17435C51.4864 7.02856 51.8653 10.4175 50.0297 12.7477C49.743 13.1115 49.1543 13.9704 48.6464 15.0071C48.1216 16.0785 47.7971 17.1113 47.7971 17.892C47.7971 18.6828 48.13 19.7312 48.6603 20.8087C49.1742 21.8533 49.7596 22.6982 50.0116 23.012L50.0189 23.0211C50.2749 23.3437 51.3975 24.7927 52.463 26.8826C53.5179 28.9518 54.5941 31.7988 54.5941 34.8846C54.5941 37.9704 53.5179 40.8175 52.463 42.8867C51.3975 44.9767 50.2749 46.4256 50.0189 46.7483Z" fill="url(#paint1_linear_38_131)"/>
<path d="M70.4095 46.7483L70.4034 46.7559C68.5445 49.0751 65.1635 49.4518 62.8332 47.6024C60.4982 45.7481 60.1193 42.3592 61.955 40.0291C62.2418 39.6652 62.8305 38.8063 63.3383 37.7696C63.8632 36.6982 64.1877 35.6653 64.1877 34.8846C64.1877 34.094 63.8547 33.0456 63.3244 31.968C62.8105 30.9234 62.2251 30.0785 61.9731 29.7648L61.9658 29.7556C61.7098 29.433 60.5871 27.984 59.5217 25.894C58.4669 23.8248 57.3906 20.9778 57.3906 17.892C57.3906 14.8062 58.4669 11.9592 59.5217 9.89002C60.5871 7.80004 61.7098 6.3511 61.9658 6.02846L61.9705 6.02251L61.9753 6.0166C63.8303 3.71491 67.2054 3.31229 69.5448 5.17645C71.8773 7.03113 72.2554 10.4183 70.4203 12.7476C70.1336 13.1115 69.5449 13.9704 69.037 15.0071C68.5122 16.0785 68.1877 17.1113 68.1877 17.892C68.1877 18.6828 68.5207 19.7312 69.0509 20.8087C69.5648 21.8533 70.1502 22.6982 70.4022 23.012L70.4095 23.0211C70.6655 23.3437 71.7882 24.7927 72.8536 26.8826C73.9085 28.9518 74.9847 31.7988 74.9847 34.8846C74.9847 37.9704 73.9085 40.8175 72.8536 42.8867C71.7882 44.9767 70.6655 46.4256 70.4095 46.7483Z" fill="url(#paint2_linear_38_131)"/>
</g>
<defs>
<linearGradient id="paint0_linear_38_131" x1="8.42805" y1="54.6983" x2="70.5932" y2="157.206" gradientUnits="userSpaceOnUse">
<stop stop-color="#F9D423"/>
<stop offset="0.515624" stop-color="#FF4E50"/>
<stop offset="0.991304" stop-color="#8A2387"/>
</linearGradient>
<linearGradient id="paint1_linear_38_131" x1="36.451" y1="4.44032" x2="82.2186" y2="44.454" gradientUnits="userSpaceOnUse">
<stop stop-color="#F9D423"/>
<stop offset="0.515624" stop-color="#FF4E50"/>
<stop offset="0.991304" stop-color="#8A2387"/>
</linearGradient>
<linearGradient id="paint2_linear_38_131" x1="36.451" y1="4.44032" x2="82.2186" y2="44.454" gradientUnits="userSpaceOnUse">
<stop stop-color="#F9D423"/>
<stop offset="0.515624" stop-color="#FF4E50"/>
<stop offset="0.991304" stop-color="#8A2387"/>
</linearGradient>
</defs>
</svg>
