<svg width="22" height="22" viewBox="0 0 22 22" fill="none" xmlns="http://www.w3.org/2000/svg">
<path opacity="0.4" fill-rule="evenodd" clip-rule="evenodd" d="M11 21C16.5228 21 21 16.5228 21 11C21 5.47709 16.5228 1 11 1C5.47718 1 1 5.47709 1 11C1 12.2655 1.23506 13.476 1.66389 14.5904L1.65238 14.5845C1.90974 15.2889 2.1172 15.9932 2.20627 16.5787C2.27576 17.0359 2.15111 17.4207 2.04288 17.7548C2.01251 17.8486 1.98344 17.9383 1.96031 18.0246C1.88081 18.3212 1.7864 18.5763 1.69703 18.8178C1.66784 18.8967 1.63918 18.9741 1.61176 19.0511C1.50048 19.3637 1.40956 19.6684 1.66154 19.9471C1.91352 20.2259 2.50833 20.4785 3.60877 20.6721C4.70921 20.8655 6.31573 20.9998 7.71652 20.9998H10.9363C10.9575 20.9999 10.9788 21 11 21Z" fill="url(#paint0_linear_280_103)"/>
<path fill-rule="evenodd" clip-rule="evenodd" d="M7.04 6H14.96C15.5344 6 16 6.44772 16 7C16 7.55228 15.5344 8 14.96 8H7.04C6.46562 8 6 7.55228 6 7C6 6.44772 6.46562 6 7.04 6ZM5.147 10H16.853C17.4865 10 18 10.4477 18 11C18 11.5523 17.4865 12 16.853 12H5.147C4.51353 12 4 11.5523 4 11C4 10.4477 4.51353 10 5.147 10ZM14.991 14H10.009C9.45174 14 9 14.4477 9 15C9 15.5523 9.45174 16 10.009 16H14.991C15.5483 16 16 15.5523 16 15C16 14.4477 15.5483 14 14.991 14ZM7 14C7.55228 14 8 14.4477 8 15C8 15.5523 7.55228 16 7 16C6.44772 16 6 15.5523 6 15C6 14.4477 6.44772 14 7 14Z" fill="url(#paint1_linear_280_103)"/>
<defs>
<linearGradient id="paint0_linear_280_103" x1="11" y1="21" x2="11" y2="1" gradientUnits="userSpaceOnUse">
<stop stop-color="#00B59C"/>
<stop offset="1" stop-color="#9CFFAC"/>
</linearGradient>
<linearGradient id="paint1_linear_280_103" x1="11" y1="16" x2="11" y2="6" gradientUnits="userSpaceOnUse">
<stop stop-color="#00B59C"/>
<stop offset="1" stop-color="#9CFFAC"/>
</linearGradient>
</defs>
</svg>
