<svg width="256" height="256" viewBox="0 0 256 256" fill="none" xmlns="http://www.w3.org/2000/svg">
<circle opacity="0.4" cx="128" cy="128" r="106" fill="url(#paint0_linear_69_262)"/>
<path d="M114.613 12.68C132.853 9.96001 151.88 12.8267 169.133 19.2667C165.107 22.9733 162.213 27.6667 160.32 32.7733C142.28 26.6933 122.613 25.88 104.067 30.1733C105.947 23.4667 110.56 18.16 114.613 12.68Z" fill="url(#paint1_linear_69_262)"/>
<path d="M66.6266 87.6533C71.3333 100.907 75.6533 114.307 80.16 127.627C73.16 134 66.6266 140.84 59.72 147.307C55.08 134.707 50.5066 122.093 45.8933 109.48C51.5733 101.107 59.5866 94.8 66.6266 87.6533Z" fill="url(#paint2_linear_69_262)"/>
<path d="M17.2401 93.2933C30.0134 50.4133 69.84 16.64 114.613 12.68C110.56 18.16 105.947 23.4667 104.067 30.1733C79.4933 36.32 57.2934 51.92 43.8001 73.44C44.7734 73.4667 46.7334 73.5333 47.7067 73.56C58.0001 74.12 68.2534 72.3333 78.5201 72.8667C78.8401 73.72 79.4801 75.4133 79.8001 76.2667C74.9067 77.6 69.8534 78 64.9067 78.96C65.0934 81.0933 65.3067 83.2267 65.8134 85.32C66.0134 85.9067 66.4266 87.0667 66.6266 87.6533C59.5866 94.8 51.5733 101.107 45.8933 109.48C42.96 101.733 40.4267 93.8267 37.1334 86.2267C25.0934 110.987 25.3201 140.933 35.7867 166.2C31.1334 169.293 27.1067 173.187 23.5201 177.453C10.9601 151.507 8.7334 120.813 17.2401 93.2933Z" fill="url(#paint3_linear_69_262)"/>
<path d="M160.32 32.7733C162.213 27.6667 165.107 22.9733 169.133 19.2667C182.733 24.52 195.373 32.2933 206.08 42.2C202.48 46.1333 199.067 50.2933 195 53.7733C191 49.9067 186.6 46.4267 181.867 43.4933C175.213 38.9733 167.893 35.48 160.32 32.7733Z" fill="url(#paint4_linear_69_262)"/>
<path d="M206.08 42.2C218.507 53.6 228.4 67.7467 234.813 83.3467C229.387 85.7867 225.853 90.68 222.413 95.3067C220.88 90.9734 219.133 86.7067 216.987 82.6534C216.36 81.5334 215.707 80.44 215.04 79.36C215.747 92.4 214.627 105.613 210.12 117.973C203.84 136.107 197.56 154.253 191.227 172.373C189.253 171.64 187.28 170.92 185.32 170.187C188.773 158.693 192.213 147.2 195.533 135.667C198.72 124.787 198.027 112.853 193.507 102.44C190.147 94.24 184.347 87.3067 181.04 79.08C178.52 73.04 178.587 65.48 183 60.32C185.92 56.5334 190.8 55.4933 195 53.7733C199.067 50.2933 202.48 46.1333 206.08 42.2Z" fill="url(#paint5_linear_69_262)"/>
<path d="M95.9866 73.16C104.413 72.0667 112.893 73.64 121.36 73.5467C132.747 74.16 144.093 72.4133 155.467 72.8933C155.16 73.8933 154.547 75.9067 154.24 76.92C149.8 77.6533 145.293 77.9867 140.867 78.7734C140.68 81.0134 140.693 83.2933 141.547 85.4C142.467 88.04 143.413 90.6667 144.307 93.3067C138.173 101.84 132.133 110.547 124.947 118.253C120.013 106 116.147 93.3467 111.04 81.1733C110.653 80.48 109.867 79.1067 109.48 78.4134C105.667 77.92 101.84 77.72 98.0132 77.4667C97.3199 76.04 96.6532 74.6 95.9866 73.16Z" fill="url(#paint6_linear_69_262)"/>
<path d="M222.413 95.3067C225.853 90.68 229.387 85.7867 234.813 83.3467C242.613 102.293 245.187 123.333 242.347 143.613C238.467 170.493 224.92 195.853 204.52 213.827C177.627 238.027 139 248.16 103.68 240.387C107.773 235.64 112.04 231.053 116.387 226.547C131.8 228.24 147.52 226.347 162.133 221.2C159.4 211.973 155.667 203.08 152.48 194.013C156.587 185.307 164.08 179.107 171.04 172.76C173.373 178.6 174.04 185.453 178.733 190.053C181.72 183.72 183.24 176.84 185.32 170.187C187.28 170.92 189.253 171.64 191.227 172.373C186.64 186.253 181.227 199.867 177.16 213.907C178.707 213.08 180.253 212.227 181.733 211.293C200.827 199.107 215.56 180.213 222.613 158.68C229.373 138.267 229.227 115.693 222.413 95.3067Z" fill="url(#paint7_linear_69_262)"/>
<path d="M144.307 93.3067C148.333 105.307 152.387 117.307 156.427 129.307C150.56 137.72 142.947 144.8 137.773 153.747C135.84 148.52 133.987 143.28 131.973 138.093C131.427 136.693 130.853 135.32 130.267 133.947C128.213 136.213 126.493 138.787 125.653 141.76C116.587 168.76 106.973 195.573 98.0133 222.6C98.64 222.787 99.8933 223.147 100.52 223.333C105.707 224.853 111.027 225.88 116.387 226.547C112.04 231.053 107.773 235.64 103.68 240.387C91.6933 237.987 80.3066 233.267 69.6266 227.4C64.5333 224.427 59.7333 220.987 55.1333 217.32C58.1733 212.907 61.9333 209 66.4933 206.147C72.1866 210.52 78.24 214.467 84.8666 217.293C82.2 207.827 78.32 198.76 75.0933 189.48C80.36 181.467 88.84 176.267 93.7466 167.987C96.3866 175.133 98.0266 182.72 101.493 189.533C104.747 190.68 105.04 186.64 106.067 184.56C112.453 165.147 119.04 145.773 125.44 126.36C126.533 123.68 125.867 120.853 124.947 118.253C132.133 110.547 138.173 101.84 144.307 93.3067Z" fill="url(#paint8_linear_69_262)"/>
<path d="M80.16 127.627C84.68 141.08 89.2133 154.533 93.7466 167.987C88.84 176.267 80.36 181.467 75.0933 189.48C69.96 175.413 64.8266 161.36 59.72 147.307C66.6266 140.84 73.16 134 80.16 127.627Z" fill="url(#paint9_linear_69_262)"/>
<path d="M156.427 129.307C161.267 143.8 166.213 158.253 171.04 172.76C164.08 179.107 156.587 185.307 152.48 194.013C147.573 180.587 142.653 167.173 137.773 153.747C142.947 144.8 150.56 137.72 156.427 129.307Z" fill="url(#paint10_linear_69_262)"/>
<path d="M23.5201 177.453C27.1067 173.187 31.1334 169.293 35.7867 166.2C42.4001 181.853 53.16 195.64 66.4933 206.147C61.9333 209 58.1733 212.907 55.1333 217.32C41.8266 206.573 30.9467 192.867 23.5201 177.453Z" fill="url(#paint11_linear_69_262)"/>
<defs>
<linearGradient id="paint0_linear_69_262" x1="128" y1="234" x2="128" y2="22" gradientUnits="userSpaceOnUse">
<stop stop-color="#5570FF"/>
<stop offset="1" stop-color="#4DD3FF"/>
</linearGradient>
<linearGradient id="paint1_linear_69_262" x1="127.813" y1="242.958" x2="127.813" y2="11.6556" gradientUnits="userSpaceOnUse">
<stop stop-color="#5570FF"/>
<stop offset="1" stop-color="#4DD3FF"/>
</linearGradient>
<linearGradient id="paint2_linear_69_262" x1="127.813" y1="242.958" x2="127.813" y2="11.6556" gradientUnits="userSpaceOnUse">
<stop stop-color="#5570FF"/>
<stop offset="1" stop-color="#4DD3FF"/>
</linearGradient>
<linearGradient id="paint3_linear_69_262" x1="127.813" y1="242.958" x2="127.813" y2="11.6556" gradientUnits="userSpaceOnUse">
<stop stop-color="#5570FF"/>
<stop offset="1" stop-color="#4DD3FF"/>
</linearGradient>
<linearGradient id="paint4_linear_69_262" x1="127.813" y1="242.958" x2="127.813" y2="11.6556" gradientUnits="userSpaceOnUse">
<stop stop-color="#5570FF"/>
<stop offset="1" stop-color="#4DD3FF"/>
</linearGradient>
<linearGradient id="paint5_linear_69_262" x1="127.813" y1="242.958" x2="127.813" y2="11.6556" gradientUnits="userSpaceOnUse">
<stop stop-color="#5570FF"/>
<stop offset="1" stop-color="#4DD3FF"/>
</linearGradient>
<linearGradient id="paint6_linear_69_262" x1="127.813" y1="242.958" x2="127.813" y2="11.6556" gradientUnits="userSpaceOnUse">
<stop stop-color="#5570FF"/>
<stop offset="1" stop-color="#4DD3FF"/>
</linearGradient>
<linearGradient id="paint7_linear_69_262" x1="127.813" y1="242.958" x2="127.813" y2="11.6556" gradientUnits="userSpaceOnUse">
<stop stop-color="#5570FF"/>
<stop offset="1" stop-color="#4DD3FF"/>
</linearGradient>
<linearGradient id="paint8_linear_69_262" x1="127.813" y1="242.958" x2="127.813" y2="11.6556" gradientUnits="userSpaceOnUse">
<stop stop-color="#5570FF"/>
<stop offset="1" stop-color="#4DD3FF"/>
</linearGradient>
<linearGradient id="paint9_linear_69_262" x1="127.813" y1="242.958" x2="127.813" y2="11.6556" gradientUnits="userSpaceOnUse">
<stop stop-color="#5570FF"/>
<stop offset="1" stop-color="#4DD3FF"/>
</linearGradient>
<linearGradient id="paint10_linear_69_262" x1="127.813" y1="242.958" x2="127.813" y2="11.6556" gradientUnits="userSpaceOnUse">
<stop stop-color="#5570FF"/>
<stop offset="1" stop-color="#4DD3FF"/>
</linearGradient>
<linearGradient id="paint11_linear_69_262" x1="127.813" y1="242.958" x2="127.813" y2="11.6556" gradientUnits="userSpaceOnUse">
<stop stop-color="#5570FF"/>
<stop offset="1" stop-color="#4DD3FF"/>
</linearGradient>
</defs>
</svg>
