<svg width="24" height="24" viewBox="0 0 24 24" fill="none" xmlns="http://www.w3.org/2000/svg">
<path opacity="0.4" d="M2.1 3H21.9C22.5075 3 23 3.49249 23 4.1V19.5C23 20.1075 22.5075 20.6 21.9 20.6H2.1C1.49249 20.6 1 20.1075 1 19.5V4.1C1 3.49249 1.49249 3 2.1 3Z" fill="url(#paint0_linear_105_67)"/>
<path fill-rule="evenodd" clip-rule="evenodd" d="M6.10796 8.2C6.10796 8.08954 6.01842 8 5.90796 8H4.2C4.08954 8 4 8.08954 4 8.2L4.00011 15.7997C4.00011 15.9101 4.08965 15.9997 4.20011 15.9997H5.90796C6.01842 15.9997 6.10796 15.9101 6.10796 15.7997V13.3212C6.10796 13.1446 6.32024 13.0547 6.44712 13.1776L9.30213 15.9433C9.33944 15.9794 9.38934 15.9997 9.44129 15.9997H11.5061C11.6857 15.9997 11.7743 15.7812 11.6453 15.6561L7.80618 11.9327C7.72494 11.8539 7.7252 11.7234 7.80674 11.645L11.2368 8.34434C11.3665 8.21951 11.2782 8.00023 11.0981 8.00023H9.22768C9.17602 8.00023 9.12637 8.02022 9.08912 8.056L6.44652 10.5948C6.31942 10.7169 6.10796 10.6268 6.10796 10.4505V8.2ZM18.3238 15.8194C18.8602 15.7078 19.379 15.5444 19.8801 15.3292C19.9526 15.2981 19.9988 15.2265 19.9988 15.1476L19.9982 11.7685C19.9982 11.6581 19.9087 11.5686 19.7982 11.5686H16.8371C16.7266 11.5686 16.6371 11.6581 16.6371 11.7686V12.7009C16.6371 12.8114 16.7266 12.9009 16.8371 12.9009H17.7535C17.864 12.9009 17.9535 12.9905 17.9535 13.1009V14.258C17.9535 14.3423 17.9008 14.4184 17.8197 14.4417C17.7013 14.4757 17.5722 14.5027 17.4326 14.5225C17.2421 14.5466 17.0349 14.5586 16.8108 14.5586C15.9854 14.5586 15.3487 14.3366 14.9005 13.8925C14.4524 13.4483 14.2283 12.8182 14.2283 12.0023C14.2283 11.1795 14.4598 10.5477 14.9229 10.107C15.3898 9.66289 16.0527 9.44083 16.9116 9.44083C17.374 9.44083 17.8349 9.5011 18.2943 9.62162C18.6596 9.71666 19.026 9.85021 19.3936 10.0223C19.5298 10.086 19.6897 9.98891 19.6897 9.83861V8.70628C19.6897 8.62569 19.6414 8.55271 19.5664 8.52306C19.1505 8.35845 18.7098 8.2323 18.2444 8.14461C17.7365 8.0482 17.2044 8 16.6479 8C15.2065 8 14.0714 8.35655 13.2425 9.06964C12.4136 9.78235 11.9991 10.7602 11.9991 12.0031C11.9991 13.232 12.4061 14.2062 13.2202 14.9258C14.0346 15.6419 15.1381 16 16.5308 16C17.1471 16 17.7448 15.9398 18.3238 15.8194Z" fill="url(#paint1_linear_105_67)"/>
<defs>
<linearGradient id="paint0_linear_105_67" x1="18.9247" y1="-0.3" x2="7.93136" y2="28.8017" gradientUnits="userSpaceOnUse">
<stop stop-color="#FFCA64"/>
<stop offset="1" stop-color="#C70000"/>
</linearGradient>
<linearGradient id="paint1_linear_105_67" x1="6.96361" y1="6.5" x2="10.3442" y2="20.8175" gradientUnits="userSpaceOnUse">
<stop stop-color="#FFCA64"/>
<stop offset="1" stop-color="#C70000"/>
</linearGradient>
</defs>
</svg>
