<svg width="64" height="64" viewBox="0 0 64 64" fill="none" xmlns="http://www.w3.org/2000/svg">
<g clip-path="url(#clip0_310_461)">
<path opacity="0.3" d="M32 64C49.6731 64 64 49.6731 64 32C64 14.3269 49.6731 0 32 0C14.3269 0 0 14.3269 0 32C0 49.6731 14.3269 64 32 64Z" fill="url(#paint0_linear_310_461)"/>
<path d="M9.25135 18.0732C9.24363 18.0727 9.24162 18.0623 9.2486 18.059C9.75688 17.8076 10.2541 17.5913 10.7764 17.364C12.4335 16.6428 14.3449 15.8111 17.6708 13.4017C25.7879 7.52168 34.3623 8.51339 39.0062 10.753C39.1938 10.8417 39.3763 10.9348 39.5533 11.0319C39.5591 11.0352 39.557 11.0441 39.5503 11.0443C28.6012 11.4684 29.3187 16.8573 30.8841 20.5067C31.0868 20.9793 31.6158 21.2095 32.1099 21.0674C35.0673 20.2167 37.9194 19.4317 40.6382 18.6834C45.8857 17.2392 50.6364 15.9318 54.6876 14.553C54.7103 14.5451 54.733 14.5374 54.7556 14.5297C50.3398 20.3625 42.998 28.2431 34.9627 29.2812C33.1464 29.5158 31.3106 29.6387 29.5366 29.7573C23.4623 30.1639 18.111 30.522 16.7376 35.1535C15.1035 40.6644 21.6059 45.8097 27.5668 44.5696C33.2997 43.377 32.757 37.4083 30.0503 32.6434C29.7339 32.1742 29.4224 31.6857 29.1157 31.177C29.098 31.1476 29.1179 31.1099 29.1522 31.1079C30.7024 31.0191 31.1532 30.9974 32.2526 30.9444C32.9104 30.9127 33.8004 30.8699 35.2969 30.7947C35.5664 30.7812 35.831 30.8715 36.0374 31.0452C39.3886 33.8671 41.6274 35.1956 44.623 36.9733C46.8277 38.2817 49.4425 39.8334 53.2125 42.4026C54.0955 43.0045 53.6127 44.3498 52.5494 44.2436C47.0746 43.6968 42.2768 42.7356 38.0881 40.3317C37.8095 40.1718 37.4683 40.4386 37.5664 40.7444C37.8811 41.5344 38.3011 42.5132 38.7808 43.6311C40.4037 47.4136 42.7096 52.7878 43.9324 57.8263C44.19 58.8884 42.8827 59.4273 42.1814 58.589C39.587 55.4879 37.0971 53.6426 32.6807 50.6885C30.1556 48.9994 27.7065 47.8677 25.4378 46.8195C22.0323 45.2458 19.0336 43.8601 16.7954 41.0596C16.8076 41.0765 16.8196 41.0935 16.8319 41.1105C16.818 41.0913 16.804 41.0722 16.7901 41.0529C16.1555 40.2578 15.5821 39.3487 15.0781 38.2889C14.6088 37.3024 14.3014 36.3533 14.1411 35.4439C13.1668 30.619 16.0305 26.4388 23.354 23.7504C23.9123 23.5455 24.2235 22.9238 23.9262 22.4086C21.3584 17.9605 13.7448 18.0442 10.4748 18.0801C9.9342 18.086 9.5121 18.0906 9.25135 18.0732Z" fill="url(#paint1_linear_310_461)"/>
<path d="M17.9321 40.3687C18.0676 40.5576 18.2108 40.7482 18.3618 40.9405C18.2135 40.7494 18.0702 40.5588 17.9321 40.3687Z" fill="url(#paint2_linear_310_461)"/>
</g>
<defs>
<linearGradient id="paint0_linear_310_461" x1="32" y1="64" x2="32" y2="0" gradientUnits="userSpaceOnUse">
<stop stop-color="#5570FF"/>
<stop offset="1" stop-color="#4DD3FF"/>
</linearGradient>
<linearGradient id="paint1_linear_310_461" x1="32.7641" y1="61.8682" x2="32.7641" y2="9" gradientUnits="userSpaceOnUse">
<stop stop-color="#5570FF"/>
<stop offset="1" stop-color="#4DD3FF"/>
</linearGradient>
<linearGradient id="paint2_linear_310_461" x1="32.9999" y1="60.0002" x2="32.9999" y2="10.0001" gradientUnits="userSpaceOnUse">
<stop stop-color="#5570FF"/>
<stop offset="1" stop-color="#4DD3FF"/>
</linearGradient>
<clipPath id="clip0_310_461">
<rect width="64" height="64" fill="white"/>
</clipPath>
</defs>
</svg>
