<svg width="32" height="32" viewBox="0 0 32 32" fill="none" xmlns="http://www.w3.org/2000/svg">
<path opacity="0.4" d="M8 29.3332H27C27.5523 29.3332 28 28.8855 28 28.3332V27.6665C28 27.1142 27.5523 26.6665 27 26.6665H8.016C7.4 26.6505 6.66667 26.4065 6.66667 25.3332C6.66667 24.2598 7.4 24.0158 8.016 23.9998H27C27.5523 23.9998 28 23.5521 28 22.9998V5.33317C28 3.8625 26.804 2.6665 25.3333 2.6665H8C6.392 2.6665 4 3.73184 4 6.6665V25.3332C4 28.2678 6.392 29.3332 8 29.3332Z" fill="url(#paint0_linear_216_175)"/>
<path d="M14.5556 20.3333C14.5556 20.7015 14.854 21 15.2223 21H17.4444C17.8127 21 18.1111 20.7015 18.1111 20.3333V13.6667C18.1111 13.2985 18.4096 13 18.7777 13H21C21.3681 13 21.6667 12.7015 21.6667 12.3333V9.66667C21.6667 9.29853 21.3681 9 21 9H18.7777C18.4096 9 18.1111 8.70152 18.1111 8.33333V5.66667C18.1111 5.29848 17.8127 5 17.4444 5H15.2223C14.854 5 14.5556 5.29848 14.5556 5.66667V8.33333C14.5556 8.70152 14.2571 9 13.8889 9H11.6667C11.2985 9 11 9.29853 11 9.66667V12.3333C11 12.7015 11.2985 13 11.6667 13H13.8889C14.2571 13 14.5556 13.2985 14.5556 13.6667V20.3333Z" fill="url(#paint1_linear_216_175)"/>
<defs>
<linearGradient id="paint0_linear_216_175" x1="16" y1="29.3332" x2="16" y2="2.6665" gradientUnits="userSpaceOnUse">
<stop stop-color="#02AA93"/>
<stop offset="1" stop-color="#67FF80"/>
</linearGradient>
<linearGradient id="paint1_linear_216_175" x1="16.3333" y1="21" x2="16.3333" y2="5" gradientUnits="userSpaceOnUse">
<stop stop-color="#02AA93"/>
<stop offset="1" stop-color="#67FF80"/>
</linearGradient>
</defs>
</svg>
