<svg width="64" height="64" viewBox="0 0 64 64" fill="none" xmlns="http://www.w3.org/2000/svg">
<path opacity="0.4" d="M10.5193 4.32702C11.5077 4.05345 12.5424 3.9966 13.5628 4.00015C26.1281 4.01792 38.6935 3.98949 51.2553 4.01081C55.849 3.96462 59.9877 8.02202 59.9841 12.6194C60.0054 24.9444 59.9841 37.2693 59.9983 49.5907C59.9948 50.8911 60.0552 52.2199 59.6854 53.4812C58.8499 56.5828 56.1938 59.1018 53.0507 59.7662C51.8845 60.0433 50.6792 59.9971 49.4881 59.9971C37.1574 59.9758 24.8268 60.0185 12.4962 59.9758C7.99127 59.8835 4.02328 55.8899 4.00905 51.3778C3.99483 38.456 3.99839 25.5306 4.01261 12.6088C4.0375 8.80721 6.84994 5.27919 10.5193 4.32702Z" fill="url(#paint0_linear_69_358)"/>
<path d="M19.481 11.1009C20.1055 10.8595 20.766 11.1416 21.3517 11.3496C22.5967 11.8322 23.6277 12.666 24.4214 13.6653C25.0191 14.4179 25.9864 14.8411 26.9208 14.6164C29.1693 14.0757 31.4982 13.8236 33.8221 13.9529C32.532 14.4764 32.0442 15.8294 31.2161 16.7952C26.1427 17.1666 21.1772 19.4277 17.9749 23.1146C17.6672 23.4688 17.9993 23.9719 18.4541 23.8568V23.8568C18.6425 23.8138 19.0192 23.7253 19.2076 23.6799C18.6502 24.966 17.2826 25.8457 16.9395 27.2035C16.1092 27.4647 15.2924 27.8055 14.4166 27.885C14.1331 27.9107 13.8474 27.8464 13.604 27.6987C13.2331 27.4735 12.9111 27.178 12.7853 26.7708C12.4627 25.8529 13.1155 25.009 13.5362 24.2273C15.1814 21.3663 17.6575 18.9604 20.5864 17.2007C21.5872 16.5993 22.0388 15.2362 21.1128 14.525C20.852 14.3247 20.5646 14.1546 20.2474 14.027C19.6875 13.7951 18.9934 13.6564 18.6992 13.0994C18.2477 12.387 18.6502 11.383 19.481 11.1009Z" fill="url(#paint1_linear_69_358)"/>
<path d="M39.4575 15.0352C39.7013 15.1077 39.9605 14.9955 40.0877 14.7753C41.0985 13.0251 42.752 11.5143 44.8809 11.0507C45.5389 10.8668 46.1737 11.2063 46.5504 11.6923C46.6664 11.8421 46.737 12.0239 46.7465 12.2132C46.7825 12.9238 46.3595 13.6223 45.5647 13.7975C44.4434 14.1202 43.5812 14.8854 42.9811 15.7945C42.7992 16.07 42.9161 16.4374 43.2114 16.5848V16.5848C43.3715 16.6685 43.6914 16.831 43.8488 16.9147C43.2579 17.6868 42.649 18.4542 42.2335 19.3268C40.6828 18.4853 39.0185 17.8231 37.2923 17.3665C37.8342 16.5633 38.4225 15.7912 39.047 15.0405V15.0405C39.1021 14.9792 39.1876 14.955 39.2666 14.9785C39.3255 14.996 39.3909 15.0154 39.4575 15.0352Z" fill="url(#paint2_linear_69_358)"/>
<path d="M31.2161 16.7952C32.0442 15.8294 32.532 14.4764 33.8221 13.9529C35.5816 14.0597 37.3119 14.4033 38.9964 14.8786C39.0667 14.8985 39.0934 14.984 39.047 15.0405V15.0405C38.4225 15.7912 37.8342 16.5633 37.2923 17.3665C35.3185 16.8692 33.257 16.6517 31.2161 16.7952Z" fill="url(#paint3_linear_69_358)"/>
<path d="M43.8488 16.9147C45.5414 17.8231 47.0329 19.0112 48.3385 20.3546C47.7038 21.122 47.0716 21.8917 46.4137 22.6424C45.7738 21.973 45.1106 21.3156 44.3701 20.7395C43.7173 20.1969 42.9922 19.7355 42.2335 19.3268C42.649 18.4542 43.2579 17.6868 43.8488 16.9147Z" fill="url(#paint4_linear_69_358)"/>
<path d="M37.5505 22.3747C40.7269 22.6687 43.8773 23.2137 46.9504 24.0074C46.4808 24.8942 45.4667 25.5182 45.2836 26.527C42.1744 25.7716 38.9929 25.2768 35.7856 25.0807C36.1675 24.0647 37.0887 23.35 37.5505 22.3747Z" fill="url(#paint5_linear_69_358)"/>
<path d="M46.4137 22.6424C47.0716 21.8917 47.7038 21.122 48.3385 20.3546C49.8273 21.8607 51.0375 23.5867 52.0051 25.4178C52.1157 25.6228 52.1855 25.8407 52.2318 26.0636C52.2875 26.3321 52.2626 26.6156 52.1304 26.8559C51.7522 27.5438 50.9803 28.0731 50.1137 27.8562C48.4908 27.4569 46.9247 26.8736 45.2836 26.527C45.4667 25.5182 46.4808 24.8942 46.9504 24.0074V24.0074C47.2045 24.0708 47.3928 23.7724 47.2249 23.5714C46.9618 23.2562 46.6947 22.9442 46.4137 22.6424Z" fill="url(#paint6_linear_69_358)"/>
<path d="M19.2076 23.6799C23.323 22.6998 27.5623 22.193 31.8094 22.1332C31.1334 23.1372 30.3206 24.0528 29.6136 25.0377C25.3097 25.2481 21.0524 26.025 16.9395 27.2035C17.2826 25.8457 18.6502 24.966 19.2076 23.6799Z" fill="url(#paint7_linear_69_358)"/>
<path d="M31.8094 22.1332C33.7265 22.1165 35.6412 22.2241 37.5505 22.3747C37.0887 23.35 36.1675 24.0647 35.7856 25.0807C33.7318 24.9468 31.6701 24.9277 29.6136 25.0377C30.3206 24.0528 31.1334 23.1372 31.8094 22.1332Z" fill="url(#paint8_linear_69_358)"/>
<path d="M28.5015 26.4194C28.8417 26.3978 29.1819 26.3742 29.5221 26.3551C30.4962 26.3006 31.3031 27.0385 31.3168 28.014C31.3307 29.0133 31.2831 30.0156 31.3062 31.014C30.2587 32.1686 29.482 33.5431 28.2358 34.5352C28.2293 33.4404 28.2279 32.3447 28.2284 31.2492C28.2288 30.189 27.3204 29.3502 26.267 29.4698V29.4698C26.9559 28.4179 27.8435 27.4903 28.5015 26.4194Z" fill="url(#paint9_linear_69_358)"/>
<path d="M33.4897 28.2263C33.5116 27.1603 34.3888 26.3158 35.4541 26.3584C37.6246 26.4451 39.7949 26.6896 41.9187 27.0511C42.0118 27.067 42.0899 27.1302 42.1252 27.2179V27.2179C41.4621 28.0068 40.7912 28.7884 40.2262 29.6394C39.7144 29.5676 39.2018 29.5065 38.6887 29.4522C37.5304 29.3295 36.5322 30.2465 36.5316 31.4112C36.5313 32.146 36.5314 32.8804 36.5261 33.6149C35.236 34.5018 34.6915 35.9767 33.4891 36.9402C33.5081 34.0369 33.4299 31.1287 33.4897 28.2263Z" fill="url(#paint10_linear_69_358)"/>
<path d="M21.7284 27.4377C21.6429 27.3816 21.6744 27.2476 21.7757 27.2342C24.0139 26.9365 26.24 26.543 28.5015 26.4194C27.8435 27.4903 26.9559 28.4179 26.267 29.4698C24.2286 29.7088 22.2032 30.053 20.2061 30.5024V30.5024C19.9583 30.402 19.8694 30.0933 20.0283 29.8784C20.5908 29.1175 21.1829 28.3756 21.7861 27.6407C21.843 27.5714 21.8132 27.4666 21.7284 27.4377V27.4377V27.4377Z" fill="url(#paint11_linear_69_358)"/>
<path d="M42.1252 27.2179V27.2179C42.2617 27.1799 42.4041 27.1678 42.5448 27.1844C44.5731 27.4232 46.5517 27.966 48.5063 28.5088C47.7038 29.1925 47.0511 30.01 46.5969 30.928C44.5094 30.359 42.373 29.955 40.2262 29.6394C40.7912 28.7884 41.4621 28.0068 42.1252 27.2179Z" fill="url(#paint12_linear_69_358)"/>
<path d="M19.3519 27.7868C20.1286 27.6051 20.9156 27.3636 21.7284 27.4377V27.4377C21.8132 27.4666 21.843 27.5714 21.7861 27.6407C21.1829 28.3756 20.5908 29.1175 20.0283 29.8784C19.8694 30.0933 19.9583 30.402 20.2061 30.5024V30.5024C18.9453 30.8076 17.7009 31.157 16.4605 31.5201C15.7389 31.7313 15.1875 32.3321 15.1178 33.0808C14.9887 34.469 15.0684 35.8714 15.3319 37.2437C14.452 38.1641 13.5979 39.1179 12.989 40.2176C11.8821 36.9425 11.6344 33.371 12.6046 30.041C12.6949 29.6609 13.1774 29.6036 13.4948 29.4578C15.4196 28.8243 17.3755 28.2673 19.3519 27.7868Z" fill="url(#paint13_linear_69_358)"/>
<path d="M46.5969 30.928C47.0511 30.01 47.7038 29.1925 48.5063 28.5088C49.5977 28.8625 50.7149 29.1518 51.7806 29.5701C52.2966 29.7661 52.3663 30.3303 52.4695 30.7726C52.5108 31.0618 52.5521 31.3511 52.5882 31.6404C51.4064 32.5058 50.9008 33.897 49.7293 34.7671C49.7318 33.9304 49.7061 33.0914 49.6003 32.2594V32.2594C49.562 31.9933 49.3738 31.7708 49.1184 31.6867C48.286 31.4127 47.4396 31.1738 46.5969 30.928Z" fill="url(#paint14_linear_69_358)"/>
<path d="M28.2358 34.5352C29.482 33.5431 30.2587 32.1686 31.3062 31.014C31.3088 34.0284 31.3166 37.0429 31.3038 40.0574C30.2045 41.1738 29.4718 42.565 28.2332 43.5691C28.2281 40.557 28.2255 37.5473 28.2358 34.5352Z" fill="url(#paint15_linear_69_358)"/>
<path d="M49.7293 34.7671C50.9008 33.897 51.4064 32.5058 52.5882 31.6404C53.401 36.9856 51.6774 42.6081 47.9206 46.7365C44.8758 50.1023 40.4791 52.414 35.7856 53.0594C36.2526 51.7685 37.5118 50.9271 38.0434 49.6648C40.3888 48.9095 42.5898 47.7286 44.365 46.1102C47.6884 43.1866 49.5796 38.9936 49.7293 34.7671Z" fill="url(#paint16_linear_69_358)"/>
<path d="M33.4891 36.9402C34.6915 35.9767 35.236 34.5018 36.5261 33.6149C36.5365 36.6509 36.5339 39.6869 36.5287 42.7228C35.3676 43.7818 34.6581 45.1731 33.4995 46.2345C33.4866 43.1364 33.4608 40.0383 33.4891 36.9402Z" fill="url(#paint17_linear_69_358)"/>
<path d="M12.989 40.2176C13.5979 39.1179 14.452 38.1641 15.3319 37.2437C15.5564 38.3745 15.9048 39.4884 16.4157 40.5379C16.9601 41.8024 17.711 42.9882 18.596 44.0711C17.7265 44.6424 16.6195 45.5986 16.9937 46.6839C16.9526 46.6898 16.8939 46.698 16.8318 46.7067C16.7858 46.7131 16.7663 46.6502 16.8079 46.6295V46.6295C16.8324 46.6173 16.8383 46.5849 16.8197 46.5648C15.1096 44.7089 13.8318 42.5268 12.989 40.2176Z" fill="url(#paint18_linear_69_358)"/>
<path d="M28.2332 43.5691C29.4718 42.565 30.2045 41.1738 31.3038 40.0574C31.3038 44.0974 31.3296 48.1397 31.2909 52.1797V52.1797C31.2568 52.8147 30.7276 53.3104 30.0953 53.2427C27.283 52.9415 24.5431 52.0798 22.1129 50.731C22.6857 49.9446 23.2844 49.1749 23.901 48.417C24.5084 48.7435 25.1388 49.0304 25.7854 49.2824C26.9981 49.7547 28.2302 48.7984 28.2297 47.497C28.2292 46.1877 28.227 44.8784 28.2332 43.5691Z" fill="url(#paint19_linear_69_358)"/>
<path d="M33.4995 46.2345C34.6581 45.1731 35.3676 43.7818 36.5287 42.7228C36.5383 44.984 36.5237 47.2451 36.5376 49.5063C36.5394 49.7941 36.8115 49.9999 37.0913 49.9326V49.9326C37.3287 49.8657 37.806 49.7318 38.0434 49.6648C37.5118 50.9271 36.2526 51.7685 35.7856 53.0594V53.0594C34.589 53.1971 33.4948 52.2642 33.4949 51.0597C33.4952 49.4513 33.4856 47.8429 33.4995 46.2345Z" fill="url(#paint20_linear_69_358)"/>
<path d="M16.9937 46.6839C16.6195 45.5986 17.7265 44.6424 18.596 44.0711C20.0332 45.8233 21.842 47.315 23.901 48.417C23.2844 49.1749 22.6857 49.9446 22.1129 50.731C20.9183 50.0785 19.8216 49.2872 18.7689 48.4529C18.1445 47.8959 17.471 47.3628 16.9937 46.6839Z" fill="url(#paint21_linear_69_358)"/>
<defs>
<linearGradient id="paint0_linear_69_358" x1="3.9918" y1="31.1702" x2="59.9878" y2="31.1702" gradientUnits="userSpaceOnUse">
<stop stop-color="#FD3A84"/>
<stop offset="1" stop-color="#FFA68D"/>
</linearGradient>
<linearGradient id="paint1_linear_69_358" x1="53.0032" y1="11.2718" x2="10.5191" y2="51.6827" gradientUnits="userSpaceOnUse">
<stop stop-color="#FE7970"/>
<stop offset="1" stop-color="#DC3282"/>
</linearGradient>
<linearGradient id="paint2_linear_69_358" x1="53.0032" y1="11.2718" x2="10.5191" y2="51.6827" gradientUnits="userSpaceOnUse">
<stop stop-color="#FE7970"/>
<stop offset="1" stop-color="#DC3282"/>
</linearGradient>
<linearGradient id="paint3_linear_69_358" x1="53.0032" y1="11.2718" x2="10.5191" y2="51.6827" gradientUnits="userSpaceOnUse">
<stop stop-color="#FE7970"/>
<stop offset="1" stop-color="#DC3282"/>
</linearGradient>
<linearGradient id="paint4_linear_69_358" x1="53.0032" y1="11.2718" x2="10.5191" y2="51.6827" gradientUnits="userSpaceOnUse">
<stop stop-color="#FE7970"/>
<stop offset="1" stop-color="#DC3282"/>
</linearGradient>
<linearGradient id="paint5_linear_69_358" x1="53.0032" y1="11.2718" x2="10.5191" y2="51.6827" gradientUnits="userSpaceOnUse">
<stop stop-color="#FE7970"/>
<stop offset="1" stop-color="#DC3282"/>
</linearGradient>
<linearGradient id="paint6_linear_69_358" x1="53.0032" y1="11.2718" x2="10.5191" y2="51.6827" gradientUnits="userSpaceOnUse">
<stop stop-color="#FE7970"/>
<stop offset="1" stop-color="#DC3282"/>
</linearGradient>
<linearGradient id="paint7_linear_69_358" x1="53.0032" y1="11.2718" x2="10.5191" y2="51.6827" gradientUnits="userSpaceOnUse">
<stop stop-color="#FE7970"/>
<stop offset="1" stop-color="#DC3282"/>
</linearGradient>
<linearGradient id="paint8_linear_69_358" x1="53.0032" y1="11.2718" x2="10.5191" y2="51.6827" gradientUnits="userSpaceOnUse">
<stop stop-color="#FE7970"/>
<stop offset="1" stop-color="#DC3282"/>
</linearGradient>
<linearGradient id="paint9_linear_69_358" x1="53.0032" y1="11.2718" x2="10.5191" y2="51.6827" gradientUnits="userSpaceOnUse">
<stop stop-color="#FE7970"/>
<stop offset="1" stop-color="#DC3282"/>
</linearGradient>
<linearGradient id="paint10_linear_69_358" x1="53.0032" y1="11.2718" x2="10.5191" y2="51.6827" gradientUnits="userSpaceOnUse">
<stop stop-color="#FE7970"/>
<stop offset="1" stop-color="#DC3282"/>
</linearGradient>
<linearGradient id="paint11_linear_69_358" x1="53.0032" y1="11.2718" x2="10.5191" y2="51.6827" gradientUnits="userSpaceOnUse">
<stop stop-color="#FE7970"/>
<stop offset="1" stop-color="#DC3282"/>
</linearGradient>
<linearGradient id="paint12_linear_69_358" x1="53.0032" y1="11.2718" x2="10.5191" y2="51.6827" gradientUnits="userSpaceOnUse">
<stop stop-color="#FE7970"/>
<stop offset="1" stop-color="#DC3282"/>
</linearGradient>
<linearGradient id="paint13_linear_69_358" x1="53.0032" y1="11.2718" x2="10.5191" y2="51.6827" gradientUnits="userSpaceOnUse">
<stop stop-color="#FE7970"/>
<stop offset="1" stop-color="#DC3282"/>
</linearGradient>
<linearGradient id="paint14_linear_69_358" x1="53.0032" y1="11.2718" x2="10.5191" y2="51.6827" gradientUnits="userSpaceOnUse">
<stop stop-color="#FE7970"/>
<stop offset="1" stop-color="#DC3282"/>
</linearGradient>
<linearGradient id="paint15_linear_69_358" x1="53.0032" y1="11.2718" x2="10.5191" y2="51.6827" gradientUnits="userSpaceOnUse">
<stop stop-color="#FE7970"/>
<stop offset="1" stop-color="#DC3282"/>
</linearGradient>
<linearGradient id="paint16_linear_69_358" x1="53.0032" y1="11.2718" x2="10.5191" y2="51.6827" gradientUnits="userSpaceOnUse">
<stop stop-color="#FE7970"/>
<stop offset="1" stop-color="#DC3282"/>
</linearGradient>
<linearGradient id="paint17_linear_69_358" x1="53.0032" y1="11.2718" x2="10.5191" y2="51.6827" gradientUnits="userSpaceOnUse">
<stop stop-color="#FE7970"/>
<stop offset="1" stop-color="#DC3282"/>
</linearGradient>
<linearGradient id="paint18_linear_69_358" x1="53.0032" y1="11.2718" x2="10.5191" y2="51.6827" gradientUnits="userSpaceOnUse">
<stop stop-color="#FE7970"/>
<stop offset="1" stop-color="#DC3282"/>
</linearGradient>
<linearGradient id="paint19_linear_69_358" x1="53.0032" y1="11.2718" x2="10.5191" y2="51.6827" gradientUnits="userSpaceOnUse">
<stop stop-color="#FE7970"/>
<stop offset="1" stop-color="#DC3282"/>
</linearGradient>
<linearGradient id="paint20_linear_69_358" x1="53.0032" y1="11.2718" x2="10.5191" y2="51.6827" gradientUnits="userSpaceOnUse">
<stop stop-color="#FE7970"/>
<stop offset="1" stop-color="#DC3282"/>
</linearGradient>
<linearGradient id="paint21_linear_69_358" x1="53.0032" y1="11.2718" x2="10.5191" y2="51.6827" gradientUnits="userSpaceOnUse">
<stop stop-color="#FE7970"/>
<stop offset="1" stop-color="#DC3282"/>
</linearGradient>
</defs>
</svg>
