<svg width="64" height="64" viewBox="0 0 64 64" fill="none" xmlns="http://www.w3.org/2000/svg">
<path opacity="0.4" d="M32 4C24.5739 4 17.452 6.94999 12.201 12.201C6.94999 17.452 4 24.5739 4 32V57.2C4 58.7512 5.2488 60 6.8 60H32C39.4261 60 46.548 57.05 51.799 51.799C57.05 46.548 60 39.4261 60 32V6.8C60 5.2488 58.7512 4 57.2 4H32Z" fill="url(#paint0_linear_37_393)"/>
<path d="M36 13.3255C36 12.1017 34.9107 11.1649 33.7007 11.348L29.7007 11.9535C28.7228 12.1015 28 12.942 28 13.931V38.5404C28 39.856 29.2482 40.8132 30.5187 40.472L34.5187 39.3978C35.3926 39.1631 36 38.371 36 37.4662V34.9696C36 32.9466 38.66 32.2025 39.7097 33.9319L43.14 39.5831C43.6388 40.405 44.6518 40.7556 45.5519 40.418L49.3625 38.9891C50.6519 38.5055 51.0783 36.894 50.1967 35.836L43.0256 27.2308C42.4262 26.5114 42.4061 25.4725 42.9772 24.7305L50.1569 15.4034C51.0319 14.2666 50.461 12.6055 49.072 12.2469L45.6578 11.3655C44.8147 11.1478 43.9276 11.5006 43.4644 12.2379L39.6934 18.2392C38.6257 19.9385 36 19.182 36 17.1751V13.3255ZM19.7109 18.8477C19.5218 18.8477 19.3326 18.9213 19.1875 19.0664L16.043 22.2109C15.7528 22.5011 15.8227 22.9156 16.043 23.2617L18.6987 27.4318C19.0706 28.0158 19.1031 28.7466 18.8571 29.3938C18.7917 29.5658 18.73 29.7393 18.6719 29.9141V29.9141C18.6575 29.9563 18.6179 29.9864 18.5744 29.9961L12.7422 31.293C12.3416 31.382 12 31.6248 12 32.0352V34V35.9648C12 36.3752 12.3416 36.618 12.7422 36.707L18.5248 37.9929C18.5991 38.0094 18.6666 38.0608 18.6914 38.1328V38.1328C18.745 38.2937 18.8017 38.4535 18.8614 38.6121C19.105 39.2581 19.0714 39.9867 18.7003 40.5689L16.043 44.7383C15.8227 45.0844 15.7528 45.4989 16.043 45.7891L19.1875 48.9336C19.4245 49.1706 19.7792 49.214 20.0594 49.0638C20.1876 48.9951 20.2963 48.8942 20.419 48.816L24.3926 46.2846C24.9787 45.9111 25.7127 45.8798 26.3615 46.1289C26.5339 46.1951 26.7077 46.2576 26.8828 46.3164V46.3164C26.9475 46.3391 26.9935 46.4002 27.0083 46.4672L28.2455 52.0438C28.2771 52.186 28.2826 52.3345 28.3249 52.4739C28.4172 52.7786 28.7 53 29.0351 53H33.4766C33.8869 53 34.1297 52.6583 34.2187 52.2578L35.3396 47.0514C35.4566 46.5081 35.845 46.0683 36.3506 45.8375V45.8375C36.9251 45.5753 37.601 45.6054 38.1146 45.9728L42.1198 48.8377C42.2091 48.9015 42.2896 48.9778 42.3823 49.0366C42.6686 49.2182 43.0504 49.1839 43.3008 48.9336L46.4453 45.7891C46.7354 45.4989 46.6656 45.0844 46.4453 44.7383L44.6678 42.0408C44.5993 41.9369 44.4682 41.8941 44.3516 41.9375V41.9375C43.9011 42.1067 43.3939 41.9311 43.1445 41.5195V41.5195C42.3156 40.1543 40.1714 40.278 39.0891 41.4525C37.0793 43.6334 34.1994 45 31 45C24.9249 45 20 40.0751 20 34C20 29.3922 22.8387 25.4555 26.8582 23.8183C26.9434 23.7836 27 23.7011 27 23.6091V21.6381C27 21.6292 26.9872 21.6278 26.9853 21.6365V21.6365C26.9847 21.6391 26.9829 21.6411 26.9804 21.642C26.9378 21.657 26.8982 21.6803 26.8555 21.6953C26.6857 21.7517 26.5172 21.8116 26.35 21.8749C25.7034 22.1197 24.9736 22.0865 24.3905 21.7149L20.419 19.184C20.2963 19.1058 20.1876 19.005 20.0596 18.9359C19.9508 18.8773 19.8309 18.8477 19.7109 18.8477Z" fill="url(#paint1_linear_37_393)"/>
<defs>
<linearGradient id="paint0_linear_37_393" x1="32" y1="60" x2="32" y2="4" gradientUnits="userSpaceOnUse">
<stop stop-color="#5570FF"/>
<stop offset="1" stop-color="#4DD3FF"/>
</linearGradient>
<linearGradient id="paint1_linear_37_393" x1="32.002" y1="53" x2="32.002" y2="11" gradientUnits="userSpaceOnUse">
<stop stop-color="#5558FF"/>
<stop offset="1" stop-color="#00C0FF"/>
</linearGradient>
</defs>
</svg>
