<svg width="64" height="64" viewBox="0 0 64 64" fill="none" xmlns="http://www.w3.org/2000/svg">
<path opacity="0.4" d="M6.53105 10.1676C15.9835 8.34391 25.4392 6.52662 34.8979 4.71571C35.9832 4.38471 37.234 5.22175 37.2785 6.36749C37.3326 8.80857 37.2785 11.2497 37.3008 13.694C37.9214 13.5889 38.5834 13.5221 39.1085 13.1338C39.831 12.6628 40.1206 11.8066 40.6203 11.1414C41.7055 9.70289 43.5929 8.94224 45.3752 9.18412C47.7939 9.4069 49.7195 11.6379 49.8818 14.0122C49.9835 15.1993 49.4139 16.3292 49.4744 17.5131C49.6207 19.149 51.4858 20.2088 53.0007 19.7536C54.2261 19.3526 55.5914 19.1394 56.804 19.7059C59.872 20.9471 61.0018 25.3073 58.9745 27.9044C58.3952 28.7413 57.4151 29.1074 56.6289 29.6994C55.1649 30.791 55.2477 33.3944 56.8453 34.3269C57.7046 34.8393 58.6308 35.3358 59.1591 36.2237C60.6454 38.3943 60.0916 41.6152 58.0484 43.2415C56.7339 44.279 54.853 44.6736 53.2808 44.0021C51.7372 43.2478 49.7608 44.2472 49.3534 45.8831C48.9843 47.1688 49.8245 48.3751 49.7512 49.6576C49.6589 51.4813 48.5227 53.2254 46.8709 54.0083C45.041 54.9758 42.5872 54.7435 41.0658 53.3049C40.3784 52.6779 40.0379 51.7837 39.4555 51.0739C38.9175 50.447 38.0773 50.2751 37.3103 50.1032C37.2753 52.4998 37.323 54.8994 37.2881 57.2991C37.3263 58.2476 36.4892 59.161 35.5249 59.1419C34.7451 59.1324 33.9845 58.9413 33.2207 58.7918C24.3125 57.07 15.3948 55.3768 6.48649 53.6455C5.16889 53.515 4.39869 51.8632 5.1466 50.7683C5.55398 50.0873 6.41329 49.7404 7.18349 49.9314C15.9612 51.5959 24.7294 53.3049 33.5071 54.9791C33.5007 39.6228 33.5262 24.2634 33.4912 8.90723C25.1814 10.3521 16.9192 12.0899 8.61886 13.6112C8.5743 23.9261 8.6284 34.241 8.59021 44.5559C8.59976 45.603 7.59723 46.5292 6.54378 46.3605C5.46805 46.3509 4.71377 45.2465 4.81242 44.2313C4.80607 33.6331 4.80924 23.0286 4.80924 12.4304C4.67875 11.3547 5.42349 10.2726 6.53105 10.1676ZM37.3008 25.4761C37.2944 29.7917 37.3008 34.1073 37.2976 38.4229C39.0449 38.388 40.7889 37.7101 41.992 36.4179C43.9939 34.3905 44.3631 30.9883 42.8641 28.5663C41.7279 26.6472 39.5318 25.4379 37.3008 25.4761Z" fill="url(#paint0_linear_42_203)"/>
<path fill-rule="evenodd" clip-rule="evenodd" d="M7.26557 8.99509C5.37241 9.3487 4 11.0012 4 12.9271V50.7301C4 52.656 5.37241 54.3085 7.26557 54.6621L33.638 59.588C36.0989 60.0476 38.3724 58.1594 38.3724 55.656V8.00121C38.3724 5.49779 36.0989 3.60956 33.638 4.06921L7.26557 8.99509ZM18.8629 35.2085C19.2877 34.751 20.03 34.8176 20.3666 35.3433L26.3946 44.7558C26.5701 45.0299 26.8731 45.1956 27.1986 45.1956H31.5631C32.323 45.1956 32.7783 44.3511 32.3609 43.7162L23.7936 30.6884C23.5665 30.3429 23.5874 29.8907 23.8455 29.5677L31.8147 19.5947C32.3144 18.9694 31.8692 18.0438 31.0689 18.0438H26.6409C26.3456 18.0438 26.0669 18.1804 25.8861 18.414L19.2543 26.9764L18.5189 27.9847C17.9744 28.7313 16.7927 28.3462 16.7927 27.4221V18.9986C16.7927 18.4713 16.3652 18.0438 15.8379 18.0438H12.153C11.6257 18.0438 11.1982 18.4713 11.1982 18.9986V44.2409C11.1982 44.7682 11.6257 45.1956 12.153 45.1956H15.8379C16.3652 45.1956 16.7927 44.7682 16.7927 44.2409V37.8129C16.7927 37.5719 16.8838 37.3398 17.0478 37.1632L18.8629 35.2085Z" fill="url(#paint1_linear_42_203)"/>
<defs>
<linearGradient id="paint0_linear_42_203" x1="32.3973" y1="59.1422" x2="32.3973" y2="4.64271" gradientUnits="userSpaceOnUse">
<stop stop-color="#5558FF"/>
<stop offset="1" stop-color="#00C0FF"/>
</linearGradient>
<linearGradient id="paint1_linear_42_203" x1="21.1862" y1="59.6572" x2="21.1862" y2="4" gradientUnits="userSpaceOnUse">
<stop stop-color="#5570FF"/>
<stop offset="1" stop-color="#4DD3FF"/>
</linearGradient>
</defs>
</svg>
