<svg width="32" height="32" viewBox="0 0 32 32" fill="none" xmlns="http://www.w3.org/2000/svg">
<path opacity="0.5" d="M5.00006 13.511C5.00006 7.154 10.0371 2 16.2501 2C22.4631 2 27.5001 7.154 27.5001 13.511C27.5055 15.1231 27.175 16.7186 26.5296 18.1959C25.8842 19.6731 24.9381 20.9997 23.7516 22.091C22.9866 22.7915 22.4181 23.312 22.0161 23.69C21.8124 23.8812 21.6124 24.0763 21.4161 24.275L21.3786 24.3155L21.3666 24.3305C21.0111 24.7775 20.9346 24.893 20.8896 24.998C20.8446 25.103 20.8101 25.238 20.7201 25.808C20.6856 26.033 20.6811 26.417 20.6811 27.4655V27.5105C20.6811 28.124 20.6811 28.6535 20.6436 29.087C20.6031 29.546 20.5131 30.002 20.2716 30.4295C20.0042 30.9052 19.6161 31.302 19.1466 31.58C18.7296 31.8275 18.2841 31.919 17.8356 31.961C17.4111 32 16.8936 32 16.2936 32H16.2066C15.6066 32 15.0891 32 14.6646 31.961C14.2146 31.919 13.7706 31.826 13.3521 31.58C12.883 31.3018 12.4955 30.905 12.2286 30.4295C11.9886 30.002 11.8986 29.5475 11.8566 29.087C11.8176 28.652 11.8176 28.124 11.8176 27.5105V27.4655C11.8176 26.417 11.8146 26.033 11.7786 25.808C11.6886 25.238 11.6571 25.103 11.6106 24.998C11.5656 24.893 11.4891 24.7775 11.1336 24.329L11.1216 24.314C10.9133 24.1013 10.7007 23.8927 10.4841 23.6885C10.0821 23.3135 9.51356 22.7915 8.74856 22.0895C7.56222 20.9984 6.61621 19.672 5.97082 18.195C5.32543 16.7181 4.99482 15.1228 5.00006 13.511Z" fill="url(#paint0_linear_8_535)"/>
<path d="M18.6275 28.5125H13.8725C13.877 28.658 13.883 28.784 13.8935 28.8995C13.9205 29.2145 13.9685 29.327 14 29.384C14.0891 29.5428 14.2185 29.6752 14.375 29.768C14.4305 29.7995 14.5415 29.849 14.849 29.876C15.17 29.906 15.593 29.9075 16.25 29.9075C16.9055 29.9075 17.33 29.9075 17.651 29.8775C17.957 29.8475 18.0695 29.7995 18.125 29.768C18.2816 29.6752 18.411 29.5428 18.5 29.384C18.53 29.327 18.578 29.213 18.605 28.8995C18.6155 28.7855 18.623 28.658 18.6275 28.5125ZM17.915 11.2655C18.3755 11.6015 18.482 12.2555 18.1535 12.725L16.3865 15.257H18.4895C18.6787 15.2579 18.864 15.3114 19.0245 15.4116C19.185 15.5117 19.3145 15.6545 19.3985 15.824C19.4848 15.9954 19.5232 16.1869 19.5097 16.3783C19.4963 16.5697 19.4314 16.7539 19.322 16.9115L16.4 21.095C16.3238 21.2064 16.226 21.3013 16.1123 21.3742C15.9987 21.4471 15.8716 21.4964 15.7385 21.5192C15.6055 21.542 15.4692 21.5378 15.3378 21.5069C15.2064 21.4761 15.0825 21.4192 14.9735 21.3395C14.7519 21.175 14.603 20.9305 14.5585 20.6581C14.514 20.3857 14.5773 20.1066 14.735 19.88L16.502 17.348H14.399C14.2097 17.347 14.0244 17.2932 13.8638 17.1928C13.7033 17.0924 13.5739 16.9493 13.49 16.7795C13.4041 16.6083 13.3658 16.4171 13.3793 16.226C13.3927 16.0349 13.4574 15.851 13.5665 15.6935L16.4885 11.5085C16.5648 11.3971 16.6626 11.3022 16.7763 11.2293C16.8899 11.1565 17.017 11.1072 17.1501 11.0844C17.2831 11.0616 17.4194 11.0657 17.5508 11.0966C17.6822 11.1274 17.8061 11.1844 17.915 11.264V11.2655Z" fill="url(#paint1_linear_8_535)"/>
<defs>
<linearGradient id="paint0_linear_8_535" x1="9.07815" y1="28.4583" x2="34.0994" y2="12.0846" gradientUnits="userSpaceOnUse">
<stop stop-color="#FE0844"/>
<stop offset="1" stop-color="#FEB302"/>
</linearGradient>
<linearGradient id="paint1_linear_8_535" x1="14.4887" y1="27.6836" x2="23.5056" y2="25.1211" gradientUnits="userSpaceOnUse">
<stop stop-color="#FE0844"/>
<stop offset="1" stop-color="#FEB302"/>
</linearGradient>
</defs>
</svg>
