<svg width="32" height="32" viewBox="0 0 32 32" fill="none" xmlns="http://www.w3.org/2000/svg">
<path opacity="0.5" d="M6.47133 1C5.87962 1.00006 5.39996 1.47972 5.3999 2.07143V29.9286C5.39996 30.5203 5.87962 30.9999 6.47133 31H13.9713C14.563 30.9999 15.0427 30.5203 15.0428 29.9286V24.8094C15.0428 24.3774 15.6328 24.2522 15.8083 24.647L18.3491 30.3638C18.5212 30.7508 18.905 31.0001 19.3285 31H26.8285C27.5807 31.0002 28.099 30.2455 27.8288 29.5435L22.6754 16.1436C22.6399 16.0512 22.6399 15.9488 22.6754 15.8564L27.8288 2.45647C28.099 1.75446 27.5807 0.999808 26.8285 1H19.3285C18.905 0.999901 18.5212 1.24921 18.3491 1.63616L15.8083 7.35304C15.6328 7.74784 15.0428 7.62262 15.0428 7.19059V2.07143C15.0427 1.47972 14.563 1.00006 13.9713 1H6.47133Z" fill="url(#paint0_linear_390_210)"/>
<path d="M8 3C7.44772 3 7 3.44772 7 4V28C7 28.5523 7.44772 29 8 29H9C9.55228 29 10 28.5523 10 28V4C10 3.44772 9.55228 3 9 3H8ZM12 3C11.4477 3 11 3.44772 11 4V14C11 14.5523 11.4477 15 12 15H16.3333C16.737 15 17.1011 14.7573 17.2564 14.3846L21.4231 4.38462C21.6975 3.72593 21.2136 3 20.5 3H19.6499C19.2547 3 18.8966 3.23273 18.7361 3.59386L15.16 11.6401C15.0627 11.8589 14.8456 12 14.6061 12C14.2714 12 14 11.7286 14 11.3939V4C14 3.44772 13.5523 3 13 3H12ZM23.6868 3C23.273 3 22.902 3.25483 22.7535 3.64102L18.1381 15.641C18.0492 15.8721 18.0492 16.1279 18.1381 16.359L22.7535 28.359C22.902 28.7452 23.273 29 23.6868 29H24.544C25.2457 29 25.7292 28.296 25.4773 27.641L21.1381 16.359C21.0492 16.1279 21.0492 15.8721 21.1381 15.641L25.4773 4.35898C25.7292 3.70398 25.2457 3 24.544 3H23.6868ZM12 17C11.4477 17 11 17.4477 11 18V28C11 28.5523 11.4477 29 12 29H13C13.5523 29 14 28.5523 14 28V20.6061C14 20.2714 14.2714 20 14.6061 20C14.8456 20 15.0627 20.1411 15.16 20.3599L18.7361 28.4061C18.8966 28.7673 19.2547 29 19.6499 29H20.5C21.2136 29 21.6975 28.2741 21.4231 27.6154L17.2564 17.6154C17.1011 17.2427 16.737 17 16.3333 17H14H12Z" fill="url(#paint1_linear_390_210)"/>
<defs>
<linearGradient id="paint0_linear_390_210" x1="16.6506" y1="31" x2="16.6506" y2="1" gradientUnits="userSpaceOnUse">
<stop stop-color="#5570FF"/>
<stop offset="1" stop-color="#4DD3FF"/>
</linearGradient>
<linearGradient id="paint1_linear_390_210" x1="16.5" y1="29" x2="16.5" y2="3" gradientUnits="userSpaceOnUse">
<stop stop-color="#5570FF"/>
<stop offset="1" stop-color="#4DD3FF"/>
</linearGradient>
</defs>
</svg>
