<svg width="16" height="16" viewBox="0 0 16 16" fill="none" xmlns="http://www.w3.org/2000/svg">
<path opacity="0.4" fill-rule="evenodd" clip-rule="evenodd" d="M7 5.5V3.5C7 3.22386 7.22386 3 7.5 3H8.5C8.77614 3 9 3.22386 9 3.5V5.5C9 5.77614 8.77614 6 8.5 6H7.5C7.22386 6 7 5.77614 7 5.5ZM1.98657 6.40271L3.41244 7.82858C3.6077 8.02384 3.92428 8.02384 4.11954 7.82858L4.82665 7.12147C5.02191 6.92621 5.02191 6.60962 4.82665 6.41436L3.40078 4.9885C3.20552 4.79323 2.88896 4.79326 2.6937 4.98852L1.98659 5.69562C1.79133 5.89089 1.79131 6.20745 1.98657 6.40271ZM11.1703 6.41549L12.5962 4.98963C12.7914 4.79437 13.108 4.79437 13.3033 4.98963L14.0104 5.69674C14.2057 5.892 14.2057 6.20859 14.0104 6.40385L12.5845 7.8297C12.3893 8.02496 12.0727 8.02497 11.8774 7.8297L11.1703 7.1226C10.9751 6.92733 10.9751 6.61075 11.1703 6.41549ZM2.5 10H0.472275C0.211446 10 0 10.2239 0 10.5V11.5C0 11.7761 0.211446 12 0.472275 12H2.5C2.76083 12 2.97227 11.7761 2.97227 11.5V10.5C2.97227 10.2239 2.76083 10 2.5 10ZM15.5 10H13.4835C13.2074 10 12.9835 10.2239 12.9835 10.5V11.5C12.9835 11.7761 13.2074 12 13.4835 12H15.5C15.7761 12 16 11.7761 16 11.5V10.5C16 10.2239 15.7761 10 15.5 10Z" fill="url(#paint0_linear_276_186)"/>
<path d="M6.24522 9.00029C6.07818 9.00929 5.92307 9.11751 5.87026 9.26112L5.03383 11.4782C4.93246 11.7117 5.16028 12.006 5.43763 11.9998C5.43763 11.9998 6.50812 12 8.0046 12C9.50108 12 10.5716 11.9998 10.5716 11.9998C10.8489 12.0058 11.0768 11.7117 10.9754 11.4782L10.139 9.26112C10.0663 9.06814 9.8021 8.95498 9.59095 9.02638C9.37821 9.09558 8.77045 9.28721 8.0046 9.28721C7.23875 9.28721 6.63098 9.09554 6.41827 9.02638C6.36347 9.00698 6.30406 8.99789 6.24522 9.00029Z" fill="url(#paint1_linear_276_186)"/>
<defs>
<linearGradient id="paint0_linear_276_186" x1="8" y1="12" x2="8" y2="3" gradientUnits="userSpaceOnUse">
<stop stop-color="#A93AFF"/>
<stop offset="1" stop-color="#FF81FF"/>
</linearGradient>
<linearGradient id="paint1_linear_276_186" x1="8.0046" y1="12" x2="8.0046" y2="9" gradientUnits="userSpaceOnUse">
<stop stop-color="#A93AFF"/>
<stop offset="1" stop-color="#FF81FF"/>
</linearGradient>
</defs>
</svg>
