<svg width="32" height="32" viewBox="0 0 32 32" fill="none" xmlns="http://www.w3.org/2000/svg">
<path opacity="0.4" d="M2 5.5C2 4.57174 2.36875 3.6815 3.02513 3.02513C3.6815 2.36875 4.57174 2 5.5 2H17.75C18.6783 2 19.5685 2.36875 20.2249 3.02513C20.8813 3.6815 21.25 4.57174 21.25 5.5V9.75C21.25 10.3023 21.6977 10.75 22.25 10.75H26.5C27.4283 10.75 28.3185 11.1187 28.9749 11.7751C29.6313 12.4315 30 13.3217 30 14.25V26.5C30 27.4283 29.6313 28.3185 28.9749 28.9749C28.3185 29.6313 27.4283 30 26.5 30H14.25C13.3217 30 12.4315 29.6313 11.7751 28.9749C11.1187 28.3185 10.75 27.4283 10.75 26.5V22.25C10.75 21.6977 10.3023 21.25 9.75 21.25H5.5C4.57174 21.25 3.6815 20.8813 3.02513 20.2249C2.36875 19.5685 2 18.6783 2 17.75V5.5ZM19.0886 20.9848C18.6184 21.1793 18.3359 21.7705 18.6463 22.1737V22.1737C18.8819 22.4797 18.8367 22.9218 18.5154 23.1362C17.5928 23.752 16.5358 24.2556 15.3479 24.654C14.8392 24.8247 14.6475 25.4997 14.9262 25.9582V25.9582C15.1211 26.2789 15.4921 26.4153 15.8458 26.2897C17.2559 25.7891 18.5052 25.1636 19.6085 24.3857C20.0022 24.1082 20.5343 24.1166 20.9224 24.4018C22.0252 25.2122 23.319 25.8538 24.8371 26.3056C25.1646 26.403 25.4908 26.2809 25.6739 25.9924V25.9924C25.9837 25.5041 25.7682 24.7326 25.2181 24.5547C24.1953 24.2241 23.2764 23.7943 22.4538 23.2775C21.9592 22.9666 21.9051 22.2891 22.2609 21.8257C23.0051 20.8565 23.6353 19.7523 24.1502 18.4881C24.3092 18.0978 24.6826 17.8322 25.1041 17.8322H25.5839C26.0898 17.8322 26.5 17.4221 26.5 16.9161V16.9161C26.5 16.4102 26.0898 16 25.5839 16H22.1661C21.6602 16 21.25 16.4102 21.25 16.9161V17.2848C21.25 17.5871 21.4951 17.8322 21.7975 17.8322V17.8322C22.1801 17.8322 22.4442 18.2149 22.2889 18.5645C21.8658 19.5178 21.3566 20.3581 20.7581 21.099C20.5523 21.3537 20.1701 21.3565 19.96 21.1053V21.1053C19.7719 20.8804 19.4475 20.8258 19.1798 20.9456C19.1495 20.9591 19.1191 20.9722 19.0886 20.9848Z" fill="url(#paint0_linear_11_181)"/>
<path d="M9.63844 13.9136C9.38116 13.9136 9.15252 14.0776 9.07008 14.3213L8.30192 16.5923C8.21949 16.836 7.99084 17 7.73356 17H6.36369C5.94535 17 5.65542 16.5826 5.80142 16.1906L9.82334 5.39061C9.9108 5.15576 10.135 5 10.3856 5H12.633C12.8839 5 13.1083 5.15614 13.1955 5.3914L17.2002 16.1914C17.3455 16.5833 17.0556 17 16.6376 17H15.1296C14.8724 17 14.6437 16.836 14.5613 16.5923L13.7931 14.3213C13.7107 14.0776 13.482 13.9136 13.2248 13.9136H9.63844ZM12.2901 12.1472C12.7016 12.1472 12.991 11.7423 12.8578 11.3529L12.0272 8.92606C11.843 8.38799 11.0834 8.38414 10.8938 8.92032L10.0357 11.3472C9.89763 11.7376 10.1872 12.1472 10.6014 12.1472H12.2901Z" fill="url(#paint1_linear_11_181)"/>
<defs>
<linearGradient id="paint0_linear_11_181" x1="16" y1="30" x2="16" y2="2" gradientUnits="userSpaceOnUse">
<stop stop-color="#FD5900"/>
<stop offset="1" stop-color="#FFDE00"/>
</linearGradient>
<linearGradient id="paint1_linear_11_181" x1="11.5" y1="17" x2="11.5" y2="5" gradientUnits="userSpaceOnUse">
<stop stop-color="#FD5900"/>
<stop offset="1" stop-color="#FFDE00"/>
</linearGradient>
</defs>
</svg>
