<svg width="24" height="24" viewBox="0 0 24 24" fill="none" xmlns="http://www.w3.org/2000/svg">
<path opacity="0.5" d="M21.3885 21.3885C23 19.7792 23 17.1854 23 12C23 11.6249 23 11.4368 22.9835 11.2454C22.9021 10.346 22.5487 9.49265 21.9704 8.799C21.8012 8.60682 21.6239 8.42185 21.4391 8.2446L15.7554 2.5609C15.578 2.37624 15.393 2.19899 15.201 2.0296C14.5072 1.45174 13.6539 1.09876 12.7546 1.0176C12.5632 1 12.374 1 12 1C6.8146 1 4.2219 1 2.6104 2.6104C1 4.223 1 6.8146 1 12C1 17.1854 1 19.7781 2.6104 21.3885C3.3639 22.142 4.3297 22.5435 5.675 22.7558L7.325 22.9241C8.5966 23 10.13 23 12 23C13.87 23 15.4034 23 16.675 22.9241L18.325 22.7558C19.6703 22.5424 20.6372 22.1409 21.3885 21.3885Z" fill="url(#paint0_linear_8_389)"/>
<path d="M6.50005 6.77502C6.28125 6.77502 6.0714 6.86194 5.91669 7.01666C5.76197 7.17138 5.67505 7.38122 5.67505 7.60002C5.67505 7.81883 5.76197 8.02867 5.91669 8.18339C6.0714 8.3381 6.28125 8.42502 6.50005 8.42502H13.1C13.3189 8.42502 13.5287 8.3381 13.6834 8.18339C13.8381 8.02867 13.925 7.81883 13.925 7.60002C13.925 7.38122 13.8381 7.17138 13.6834 7.01666C13.5287 6.86194 13.3189 6.77502 13.1 6.77502H6.50005ZM13.1572 16.675C14.1461 16.675 14.97 16.675 15.6234 16.763C16.3142 16.8554 16.9379 17.06 17.4384 17.5616C17.94 18.0621 18.1446 18.6858 18.237 19.3766C18.325 20.03 18.325 20.8539 18.325 21.8428V22.7591L16.675 22.9131V21.9C16.675 20.8396 16.6728 20.1268 16.6013 19.5955C16.5331 19.0884 16.4154 18.8706 16.2713 18.7276C16.1283 18.5846 15.9116 18.4669 15.4045 18.3976C14.8732 18.3272 14.1604 18.325 13.1 18.325H10.9C9.83965 18.325 9.12685 18.3272 8.59555 18.3987C8.08845 18.4669 7.87065 18.5846 7.72765 18.7287C7.58465 18.8717 7.46695 19.0884 7.39765 19.5955C7.32725 20.1268 7.32505 20.8396 7.32505 21.9V22.9186L5.67505 22.7547V21.8428C5.67505 20.8539 5.67505 20.03 5.76305 19.3766C5.85545 18.6858 6.06005 18.0621 6.56055 17.5616C7.06215 17.06 7.68585 16.8554 8.37555 16.763C9.03005 16.675 9.85505 16.675 10.8428 16.675H13.1572Z" fill="url(#paint1_linear_8_389)"/>
<defs>
<linearGradient id="paint0_linear_8_389" x1="1" y1="23" x2="27.5459" y2="11.4298" gradientUnits="userSpaceOnUse">
<stop stop-color="#0357D1"/>
<stop offset="1" stop-color="#27CDFC"/>
</linearGradient>
<linearGradient id="paint1_linear_8_389" x1="5.67505" y1="22.9186" x2="21.9413" y2="17.3632" gradientUnits="userSpaceOnUse">
<stop stop-color="#0357D1"/>
<stop offset="1" stop-color="#27CDFC"/>
</linearGradient>
</defs>
</svg>
