<svg width="64" height="64" viewBox="0 0 64 64" fill="none" xmlns="http://www.w3.org/2000/svg">
<path opacity="0.4" fill-rule="evenodd" clip-rule="evenodd" d="M13.9355 4C8.44827 4 4 8.44827 4 13.9355V50.0645C4 55.5517 8.44827 60 13.9355 60H50.0645C55.5517 60 60 55.5517 60 50.0645V13.9355C60 8.44827 55.5517 4 50.0645 4H13.9355Z" fill="url(#paint0_linear_38_260)"/>
<path d="M23.3623 18.5688C23.1772 18.2578 22.9143 18.0002 22.5997 17.8213C22.2849 17.6424 21.9293 17.5483 21.5673 17.5483C21.2053 17.5483 20.8495 17.6424 20.5348 17.8213C20.2201 18.0002 19.9573 18.2578 19.7722 18.5688L8.73485 40.6435C8.61462 40.8795 8.54229 41.1369 8.52202 41.401C8.50176 41.6651 8.53398 41.9305 8.61681 42.1821C8.69963 42.4336 8.83145 42.6663 9.00462 42.8667C9.17781 43.067 9.38895 43.2312 9.62587 43.3495C9.86279 43.4681 10.1208 43.5383 10.385 43.5565C10.6492 43.5747 10.9145 43.5405 11.1654 43.4556C11.4163 43.3708 11.6479 43.2373 11.847 43.0625C12.046 42.8878 12.2084 42.6754 12.325 42.4375L15.3756 36.3203C15.6201 35.8299 16.1209 35.5201 16.6689 35.5201H26.4487C26.996 35.5201 27.4965 35.8294 27.7413 36.3188L30.8014 42.4375C30.918 42.6754 31.0805 42.8878 31.2795 43.0625C31.4785 43.2373 31.7101 43.3708 31.9612 43.4556C32.212 43.5405 32.4772 43.5747 32.7414 43.5565C33.0057 43.5383 33.2637 43.4681 33.5005 43.3495C33.7376 43.2312 33.9487 43.067 34.1218 42.8667C34.295 42.6663 34.4269 42.4336 34.5097 42.1821C34.5925 41.9305 34.6247 41.6651 34.6045 41.401C34.5841 41.1369 34.5119 40.8795 34.3916 40.6435L23.3623 18.5688ZM20.1192 31.5066C19.045 31.5066 18.3463 30.3762 18.8265 29.4154L20.2642 26.5384C20.7965 25.4732 22.3166 25.4729 22.8494 26.538L24.2885 29.4149C24.7693 30.3757 24.0706 31.5066 22.9961 31.5066H20.1192Z" fill="url(#paint1_linear_38_260)" stroke="url(#paint2_linear_38_260)" stroke-width="1.6"/>
<path d="M51.9912 26.8676C51.544 26.8676 51.1151 27.0452 50.7989 27.3614C50.4827 27.6776 50.3051 28.1065 50.3051 28.5538C50.3051 28.5717 50.2844 28.5818 50.2703 28.571C48.8258 27.4719 47.0622 26.8738 45.2466 26.8676C43.0105 26.8676 40.8662 27.7558 39.285 29.3369C37.704 30.9179 36.8157 33.0624 36.8157 35.2983C36.8157 37.5344 37.704 39.6788 39.285 41.2599C40.8662 42.8409 43.0105 43.7293 45.2466 43.7293C47.0622 43.7231 48.8258 43.1249 50.2703 42.0259C50.2844 42.015 50.3051 42.0251 50.3051 42.0431C50.3051 42.4903 50.4827 42.9191 50.7989 43.2353C51.1151 43.5517 51.544 43.7293 51.9912 43.7293C52.4385 43.7293 52.8672 43.5517 53.1836 43.2353C53.4998 42.9191 53.6774 42.4903 53.6774 42.0431V28.5538C53.6774 28.1065 53.4998 27.6776 53.1836 27.3614C52.8672 27.0452 52.4385 26.8676 51.9912 26.8676ZM45.2466 40.3568C44.2461 40.3568 43.268 40.0603 42.4362 39.5043C41.6044 38.9485 40.9559 38.1585 40.5731 37.2341C40.1903 36.31 40.0901 35.2929 40.2852 34.3116C40.4805 33.3303 40.9623 32.429 41.6697 31.7214C42.3771 31.014 43.2784 30.5322 44.2597 30.3371C45.241 30.1419 46.2581 30.242 47.1824 30.625C48.1067 31.0078 48.8967 31.6562 49.4526 32.4881C50.0084 33.3199 50.3051 34.2979 50.3051 35.2983C50.3051 36.64 49.7721 37.9267 48.8234 38.8753C47.8748 39.824 46.5882 40.3568 45.2466 40.3568Z" fill="url(#paint3_linear_38_260)" stroke="url(#paint4_linear_38_260)" stroke-width="1.6"/>
<defs>
<linearGradient id="paint0_linear_38_260" x1="32.0002" y1="4" x2="32.0002" y2="60" gradientUnits="userSpaceOnUse">
<stop stop-color="#189CFC"/>
<stop offset="1" stop-color="#1E78FF"/>
</linearGradient>
<linearGradient id="paint1_linear_38_260" x1="21.5632" y1="17.5483" x2="21.5632" y2="43.5613" gradientUnits="userSpaceOnUse">
<stop stop-color="#189CFC"/>
<stop offset="1" stop-color="#1E78FF"/>
</linearGradient>
<linearGradient id="paint2_linear_38_260" x1="21.5634" y1="17.5483" x2="21.5634" y2="43.5612" gradientUnits="userSpaceOnUse">
<stop stop-color="#189CFC"/>
<stop offset="1" stop-color="#1E78FF"/>
</linearGradient>
<linearGradient id="paint3_linear_38_260" x1="45.2466" y1="26.8676" x2="45.2466" y2="43.7293" gradientUnits="userSpaceOnUse">
<stop stop-color="#189CFC"/>
<stop offset="1" stop-color="#1E78FF"/>
</linearGradient>
<linearGradient id="paint4_linear_38_260" x1="45.2466" y1="26.8676" x2="45.2466" y2="43.7293" gradientUnits="userSpaceOnUse">
<stop stop-color="#189CFC"/>
<stop offset="1" stop-color="#1E78FF"/>
</linearGradient>
</defs>
</svg>
