<svg width="64" height="64" viewBox="0 0 64 64" fill="none" xmlns="http://www.w3.org/2000/svg">
<ellipse opacity="0.4" cx="32" cy="31.5" rx="29" ry="28.5" fill="url(#paint0_linear_37_269)"/>
<path d="M29.0733 18.3683C29.0988 15.2601 32.4981 13.8568 34.0501 16.0994C34.6658 17.083 34.8847 18.3617 34.905 19.6011C34.9712 25.8766 34.8389 32.152 34.9203 38.421C37.083 36.5062 39.3475 34.7881 41.5356 32.9258C42.4974 32.1324 43.6576 31.2668 44.8382 31.7586C46.5124 32.2045 47.5149 34.8996 46.7261 36.8669C46.319 38.0603 45.4234 38.7357 44.6143 39.4177C40.986 42.3817 37.3578 45.3522 33.7346 48.3293C32.6558 49.2342 31.0529 49.2735 30.0656 48.1391C26.4527 44.6505 22.6208 41.5489 19.0129 38.0538C17.4914 36.4865 17.7051 32.9848 19.5116 31.9357C20.6006 31.1094 21.9593 31.5291 22.9363 32.4275C24.9718 34.2504 27.0124 36.0668 29.0377 37.916C29.0632 31.3979 28.9767 24.8798 29.0733 18.3683Z" fill="url(#paint1_linear_37_269)"/>
<defs>
<linearGradient id="paint0_linear_37_269" x1="11.494" y1="51.6525" x2="51.793" y2="10.6466" gradientUnits="userSpaceOnUse">
<stop stop-color="#0072FF"/>
<stop offset="1" stop-color="#00E5A1"/>
</linearGradient>
<linearGradient id="paint1_linear_37_269" x1="22.247" y1="44.0208" x2="45.9876" y2="23.7714" gradientUnits="userSpaceOnUse">
<stop stop-color="#0072FF"/>
<stop offset="1" stop-color="#00E5A1"/>
</linearGradient>
</defs>
</svg>
