<svg width="64" height="64" viewBox="0 0 64 64" fill="none" xmlns="http://www.w3.org/2000/svg">
<path opacity="0.4" d="M7.72005 44.4459C5.78085 42.5022 5.77182 39.3584 7.69982 37.4035L29.4404 15.3601C30.38 14.4074 31.6623 13.8711 33.0003 13.8711L45.4076 13.8711C48.2624 13.8711 50.5377 16.2574 50.4019 19.1089L49.8243 31.238C49.7656 32.4717 49.2522 33.6401 48.3833 34.5179L26.7363 56.3835C24.785 58.3546 21.6023 58.3607 19.6434 56.3972L7.72005 44.4459Z" fill="url(#paint0_linear_60_308)"/>
<path d="M47.0215 6.21156C49.1333 5.42909 51.5562 5.36866 53.6499 6.25083C56.1423 7.3173 57.8733 9.89129 57.9852 12.5922C58.1574 15.3807 56.6166 18.1058 54.2874 19.5921C51.4263 21.5136 47.7315 21.1299 44.7284 22.7009C44.0336 22.9879 44.2239 23.7552 44.2089 24.3534C44.2935 25.9637 42.8584 27.4048 41.2753 27.4773C39.4203 27.6706 37.7104 25.8942 37.9128 24.0544C37.9792 22.3051 39.6922 20.8761 41.4264 21.1058C43.4596 18.9003 46.5985 18.4864 49.3719 17.8399C51.4021 17.5257 53.5894 16.4986 54.3477 14.4502C55.1271 12.5982 54.2601 10.278 52.4414 9.42C50.5864 8.6043 48.3176 9.00912 46.7194 10.2055C45.9731 10.701 45.8976 11.6556 45.5925 12.42C44.668 12.4019 43.6952 12.6224 42.81 12.3052C42.3236 11.8127 42.5623 11.0695 42.665 10.4774C43.2088 8.38677 45.0638 6.92152 47.0215 6.21156Z" fill="url(#paint1_linear_60_308)" stroke="url(#paint2_linear_60_308)"/>
<path d="M30.6284 14.9064C30.8207 14.7186 31.0298 14.5038 31.2901 14.4292C31.4717 14.3772 31.6658 14.4065 31.8547 14.4043C34.6937 14.3715 37.5328 14.413 40.3746 14.3836C41.1662 14.3565 42.1359 14.3687 42.6103 15.1329C43.4169 16.1541 42.5468 17.7976 41.2779 17.7794C38.9447 17.8113 36.6115 17.7836 34.2783 17.7913C33.2287 17.7947 32.2265 18.2215 31.4871 18.9664C24.4428 26.0629 17.3489 33.1149 10.2902 40.2023C9.89041 40.5091 9.85476 41.0921 10.1275 41.4828C10.2387 41.6421 10.3984 41.7607 10.5356 41.8982C14.5574 45.9263 18.5769 49.9625 22.6225 53.9666C23.0696 54.4711 23.7856 54.2143 24.1451 53.74C31.1066 46.6639 38.0818 39.6041 45.0369 32.5194C45.7669 31.7757 46.1773 30.7763 46.1709 29.7342C46.1647 28.737 46.1578 27.7395 46.1813 26.7432C46.1511 25.9275 46.7885 25.1661 47.5922 25.0513C48.5921 24.8609 49.6042 25.7583 49.5347 26.7733C49.561 28.2547 49.5426 29.7344 49.5423 31.2149C49.5421 32.2801 49.1345 33.3078 48.3888 34.0685C41.4858 41.1096 34.4747 48.0478 27.553 55.0754C26.6375 55.9574 25.8158 57.0481 24.5591 57.4499C23.0333 58.0058 21.2358 57.5435 20.13 56.3683C16.0152 52.2264 11.8914 48.0935 7.78873 43.9394C6.13012 42.3231 6.1845 39.3956 7.87331 37.8217C15.4534 30.1782 23.0514 22.5528 30.6284 14.9064Z" fill="url(#paint3_linear_60_308)" stroke="url(#paint4_linear_60_308)"/>
<defs>
<linearGradient id="paint0_linear_60_308" x1="41.5984" y1="41.6003" x2="22.4017" y2="22.3585" gradientUnits="userSpaceOnUse">
<stop stop-color="#FD2E00"/>
<stop offset="1" stop-color="#FF9900"/>
</linearGradient>
<linearGradient id="paint1_linear_60_308" x1="47.9473" y1="27.4918" x2="47.9473" y2="5.60693" gradientUnits="userSpaceOnUse">
<stop stop-color="#FD2E00"/>
<stop offset="1" stop-color="#FF9900"/>
</linearGradient>
<linearGradient id="paint2_linear_60_308" x1="47.9473" y1="27.4918" x2="47.9473" y2="5.60693" gradientUnits="userSpaceOnUse">
<stop stop-color="#FD2E00"/>
<stop offset="1" stop-color="#FF9900"/>
</linearGradient>
<linearGradient id="paint3_linear_60_308" x1="28.064" y1="57.6842" x2="28.064" y2="14.3765" gradientUnits="userSpaceOnUse">
<stop stop-color="#FD2E00"/>
<stop offset="1" stop-color="#FF9900"/>
</linearGradient>
<linearGradient id="paint4_linear_60_308" x1="28.064" y1="57.6842" x2="28.064" y2="14.3765" gradientUnits="userSpaceOnUse">
<stop stop-color="#FD2E00"/>
<stop offset="1" stop-color="#FF9900"/>
</linearGradient>
</defs>
</svg>
