<svg width="64" height="64" viewBox="0 0 64 64" fill="none" xmlns="http://www.w3.org/2000/svg">
<rect opacity="0.4" x="4" y="4" width="56" height="57" rx="14" fill="url(#paint0_linear_60_447)"/>
<path fill-rule="evenodd" clip-rule="evenodd" d="M9.04019 13.6115C8.86775 11.9262 10.837 11.9771 12.113 12.0102C12.1752 12.0118 12.2357 12.0133 12.2942 12.0146C12.4376 12.0201 12.5961 12.0202 12.7629 12.0204C13.7648 12.0217 15.0663 12.0234 15.1868 13.1566C15.2961 17.468 15.3066 21.7813 15.3171 26.0953C15.3214 27.866 15.3258 29.637 15.3369 31.4079C15.3438 32.5011 16.2304 33.3835 17.3236 33.3867C18.2073 33.3893 19.0911 33.3906 19.9748 33.3901C20.7176 33.3898 21.3982 32.9762 21.7427 32.318C22.1124 31.6116 22.4822 30.9056 22.852 30.1996L22.8527 30.1986C23.9593 28.0862 25.0651 25.9752 26.1642 23.86L26.1657 23.8573C26.6375 22.9764 27.2149 21.8983 28.394 21.7799C29.6996 21.6379 31.0404 21.6188 32.346 21.8131C33.1947 21.979 33.3102 22.9835 32.9587 23.5994C31.9494 25.6308 30.8735 27.6318 29.7975 29.6327C28.8224 31.4459 27.8475 33.2589 26.9224 35.0942C26.6444 35.6459 26.6419 36.2966 26.9222 36.8471C27.9624 38.8903 29.1274 40.8802 30.2926 42.8703C31.0925 44.2366 31.8926 45.6031 32.6522 46.9868C32.8573 47.4044 33.1089 47.8115 33.3612 48.2201C33.844 49.0014 34.33 49.7878 34.4988 50.6614C34.5553 50.9533 34.5228 51.2779 34.3055 51.4808C33.9462 51.8162 33.3785 51.8261 32.845 51.8355C32.6833 51.8383 32.5247 51.8411 32.3761 51.8529C32.1379 51.8496 31.8978 51.8524 31.657 51.8551C30.9316 51.8634 30.2002 51.8718 29.4967 51.7157C29.3436 51.6818 29.1964 51.623 29.0667 51.5349C28.4304 51.103 28.0339 50.4339 27.654 49.7926C27.6329 49.7572 27.612 49.7219 27.5911 49.6867C27.5724 49.6553 27.5539 49.624 27.5352 49.5928C26.2152 47.2243 24.8772 44.8632 23.54 42.5037C22.9478 41.4587 22.3556 40.4138 21.7654 39.3689C21.4111 38.7418 20.7476 38.3528 20.0273 38.3528C19.8998 38.3528 19.7723 38.3529 19.6448 38.3529C18.8527 38.353 18.0606 38.3532 17.2686 38.3484C16.2074 38.3421 15.3121 39.1536 15.2909 40.2146C15.2666 41.4281 15.2937 42.6438 15.3207 43.8589C15.3738 46.2371 15.4267 48.6132 15.0943 50.9672C15.0347 51.3887 14.6833 51.7044 14.2589 51.738V51.738C12.8645 51.8491 11.4466 51.9622 10.0689 51.7354C9.78674 51.689 9.5059 51.5783 9.33915 51.346C9.0138 50.8928 9.01407 50.3069 9.01425 49.7409C9.01437 49.54 9.01449 49.3414 9 49.1522C9.01741 44.0119 9.01308 38.8708 9.00876 33.7296C9.00315 27.0233 8.99755 20.3166 9.04019 13.6115ZM35.6749 48.0012C36.1639 48.5338 36.7561 48.8 37.4515 48.8C38.1469 48.8 38.7458 48.5283 39.2528 47.9876C39.7598 47.4444 40.011 46.7988 40.011 46.051C40.011 45.2817 39.762 44.6334 39.2663 44.0981C38.7683 43.5576 38.1625 43.2858 37.4515 43.2858C36.7404 43.2858 36.1438 43.5521 35.6636 44.0847C35.1836 44.6092 34.9435 45.2629 34.9435 46.051C34.9435 46.8068 35.1858 47.4578 35.6749 48.0012ZM41.5049 46.5472C41.5049 47.6518 42.4003 48.5472 43.5049 48.5472H52.4998C53.6043 48.5472 54.4998 47.6518 54.4998 46.5472V45.5388C54.4998 44.4342 53.6043 43.5388 52.4998 43.5388H43.5049C42.4003 43.5388 41.5049 44.4342 41.5049 45.5388V46.5472ZM34.5556 37.5658C34.5556 38.6703 35.451 39.5658 36.5556 39.5658H52.4998C53.6043 39.5658 54.4998 38.6703 54.4998 37.5658V36.5572C54.4998 35.4527 53.6043 34.5572 52.4998 34.5572H36.5556C35.451 34.5572 34.5556 35.4527 34.5556 36.5572V37.5658ZM44.5535 21.942V21.942C45.2595 21.1124 46.33 21.9779 46.33 23.0672V24.6508C46.33 25.7411 45.2048 26.6326 44.5018 25.7992V25.7992C44.0913 25.3123 43.885 24.6641 43.885 23.8491C43.885 23.0905 44.1071 22.4558 44.5535 21.942ZM50.8411 26.3544C49.9129 26.9687 48.9142 25.9584 48.9142 24.8453V16.3064C48.9142 16.1863 48.8168 16.0889 48.6967 16.0889V16.0889C46.3368 16.0889 44.4794 16.7667 43.1246 18.125C41.7696 19.4807 41.0923 21.3341 41.0923 23.6823C41.0923 25.9632 41.7606 27.8543 43.0999 29.3497C44.4368 30.8373 46.1193 31.5823 48.1425 31.5823C50.2017 31.5823 51.8618 30.8373 53.1225 29.3497C54.3742 27.8543 55 25.8692 55 23.3998C55 21.7457 54.7308 20.3468 54.1902 19.2037C54.0416 18.8902 53.8759 18.6028 53.693 18.3414C52.989 17.3349 51.6486 17.9578 51.3977 19.1602L51.2654 19.7946C51.1683 20.2599 51.423 20.7629 51.5065 21.2308V21.2308C51.5354 21.3931 51.5677 21.5737 51.6688 21.7726C51.9246 22.2864 52.0547 22.9238 52.0547 23.6823C52.0547 24.691 51.7832 25.4737 51.2427 26.0252C51.1203 26.1485 50.9864 26.2582 50.8411 26.3544Z" fill="url(#paint1_linear_60_447)"/>
<defs>
<linearGradient id="paint0_linear_60_447" x1="32" y1="61" x2="32" y2="4" gradientUnits="userSpaceOnUse">
<stop stop-color="#5570FF"/>
<stop offset="1" stop-color="#4DD3FF"/>
</linearGradient>
<linearGradient id="paint1_linear_60_447" x1="44.7778" y1="48.8" x2="44.7778" y2="16.0889" gradientUnits="userSpaceOnUse">
<stop stop-color="#5558FF"/>
<stop offset="1" stop-color="#00C0FF"/>
</linearGradient>
</defs>
</svg>
