<svg width="24" height="24" viewBox="0 0 24 24" fill="none" xmlns="http://www.w3.org/2000/svg">
<path opacity="0.4" d="M7.77457 11.7793L6.19064 10.4593C5.80236 10.1348 5.60767 9.9731 5.50318 9.75091C5.39978 9.52872 5.39978 9.27574 5.39978 8.76976V5.51172C3.96985 5.65252 3.0074 5.9704 2.28914 6.68866C1 7.9767 1 10.0523 1 14.2013C1 18.3481 1 20.4226 2.28914 21.7107C3.57717 22.9998 5.65167 22.9998 9.79957 22.9998H14.1993C18.3472 22.9998 20.4217 22.9998 21.7098 21.7107C22.9989 20.4237 22.9989 18.3492 22.9989 14.2013C22.9989 10.0534 22.9989 7.9778 21.7098 6.68866C20.9915 5.9704 20.028 5.65252 18.5969 5.51172C18.5991 5.81971 18.5991 6.14859 18.5991 6.50167V8.77086C18.5991 9.27684 18.5991 9.52982 18.4946 9.75201C18.3912 9.9742 18.1977 10.137 17.8072 10.4604L16.2232 11.7804C14.2037 13.4633 13.194 14.3047 11.9995 14.3047C10.8049 14.3047 9.79407 13.4633 7.77457 11.7793Z" fill="url(#paint0_linear_215_129)"/>
<path fill-rule="evenodd" clip-rule="evenodd" d="M7.77444 11.7795L6.19162 10.4595L6.18448 10.4536L6.18371 10.453C5.80068 10.1328 5.60684 9.97075 5.50306 9.75117C5.39966 9.52898 5.39966 9.27489 5.39966 8.76892V6.49973C5.39966 6.37926 5.39941 6.26174 5.39916 6.14698C5.39867 5.92541 5.39821 5.71416 5.39966 5.51198C5.41286 3.56397 5.50856 2.50143 6.20482 1.80516C7.00998 1 8.30682 1 10.8994 1H13.0993C15.6919 1 16.9876 1 17.7939 1.80516C18.489 2.50143 18.5836 3.56397 18.5968 5.51198C18.599 5.81763 18.599 6.14746 18.599 6.49927V6.49973V8.76892C18.599 9.27599 18.599 9.52898 18.4945 9.75117C18.3911 9.97226 18.1964 10.135 17.8082 10.4584L16.2242 11.7784C14.2036 13.4624 13.1939 14.3038 11.9983 14.3038C10.8048 14.3038 9.79394 13.4624 7.77444 11.7795ZM9.3 9.87273C9.3 10.0936 9.47909 10.2727 9.7 10.2727H10.6578C10.8787 10.2727 11.0578 10.0936 11.0578 9.87273V8.44106C11.0578 8.3509 11.0883 8.26339 11.1442 8.19271L11.4111 7.85582C11.5821 7.63988 11.9151 7.6574 12.0625 7.8901L13.4542 10.0868C13.5276 10.2026 13.6551 10.2727 13.7921 10.2727H14.9362C15.2538 10.2727 15.4447 9.92041 15.2713 9.65434L13.2074 6.48722C13.1134 6.343 13.1222 6.15483 13.2293 6.02004L15.1128 3.64879C15.321 3.38666 15.1343 3 14.7996 3H13.7528C13.6297 3 13.5135 3.05667 13.4377 3.15364L11.173 6.05053C11.1608 6.06615 11.1421 6.07528 11.1223 6.07528C11.0867 6.07528 11.0578 6.04643 11.0578 6.01083V3.4C11.0578 3.17909 10.8787 3 10.6578 3H9.7C9.47909 3 9.3 3.17909 9.3 3.4V9.87273Z" fill="url(#paint1_linear_215_129)"/>
<defs>
<linearGradient id="paint0_linear_215_129" x1="11.9994" y1="22.9998" x2="11.9994" y2="5.51172" gradientUnits="userSpaceOnUse">
<stop stop-color="#00B59C"/>
<stop offset="1" stop-color="#9CFFAC"/>
</linearGradient>
<linearGradient id="paint1_linear_215_129" x1="11.9988" y1="14.3038" x2="11.9988" y2="1" gradientUnits="userSpaceOnUse">
<stop stop-color="#00B59C"/>
<stop offset="1" stop-color="#9CFFAC"/>
</linearGradient>
</defs>
</svg>
