<svg width="24" height="24" viewBox="0 0 24 24" fill="none" xmlns="http://www.w3.org/2000/svg">
<path opacity="0.4" d="M1 4.97222C1 3.91872 1.4185 2.90837 2.16344 2.16344C2.90837 1.4185 3.91872 1 4.97222 1H19.0278C20.0813 1 21.0916 1.4185 21.8366 2.16344C22.5815 2.90837 23 3.91872 23 4.97222V19.0278C23 20.0813 22.5815 21.0916 21.8366 21.8366C21.0916 22.5815 20.0813 23 19.0278 23H16.0556C15.5033 23 15.0556 22.5523 15.0556 22V19.0278C15.0556 18.2984 14.7658 17.599 14.2501 17.0832C13.7344 16.5675 13.0349 16.2778 12.3056 16.2778H2C1.44772 16.2778 1 15.8301 1 15.2778V4.97222Z" fill="url(#paint0_linear_340_418)"/>
<path d="M2.16344 21.8368C1.4185 21.0918 1 20.0815 1 19.028C1 18.5217 1.41041 18.1113 1.91667 18.1113H12.3056C12.5487 18.1113 12.7818 18.2079 12.9537 18.3798C13.1256 18.5517 13.2222 18.7849 13.2222 19.028V22.0002C13.2222 22.5525 12.7745 23.0002 12.2222 23.0002H4.97222C3.91872 23.0002 2.90837 22.5817 2.16344 21.8368Z" fill="url(#paint1_linear_340_418)"/>
<path fill-rule="evenodd" clip-rule="evenodd" d="M3.94019 5.56284C3.94019 5.10502 4.31132 4.73389 4.76914 4.73389H15.1112C15.569 4.73389 15.9402 5.10502 15.9402 5.56284V5.56284C15.9402 6.02066 15.569 6.3918 15.1112 6.3918H4.76914C4.31132 6.3918 3.94019 6.02066 3.94019 5.56284V5.56284ZM3.94019 9.14023C3.94019 8.63671 4.34838 8.22852 4.8519 8.22852H15.0285C15.532 8.22852 15.9402 8.63671 15.9402 9.14023V9.14023C15.9402 9.64376 15.532 10.052 15.0285 10.052H4.8519C4.34838 10.052 3.94019 9.64376 3.94019 9.14023V9.14023ZM10.024 12.7682C10.024 12.3302 9.66894 11.9751 9.23095 11.9751H4.73325C4.29525 11.9751 3.94019 12.3302 3.94019 12.7682V12.7682C3.94019 13.2062 4.29525 13.5612 4.73325 13.5612H9.23094C9.66894 13.5612 10.024 13.2062 10.024 12.7682V12.7682Z" fill="url(#paint2_linear_340_418)"/>
<defs>
<linearGradient id="paint0_linear_340_418" x1="26.9555" y1="28.5528" x2="4.77089" y2="4.43557" gradientUnits="userSpaceOnUse">
<stop stop-color="#731FFF"/>
<stop offset="0.975148" stop-color="#EB1AFF"/>
</linearGradient>
<linearGradient id="paint1_linear_340_418" x1="13.2222" y1="23.0002" x2="10.4391" y2="15.9646" gradientUnits="userSpaceOnUse">
<stop stop-color="#731FFF"/>
<stop offset="0.905415" stop-color="#EB1AFF"/>
</linearGradient>
<linearGradient id="paint2_linear_340_418" x1="15.9402" y1="13.5613" x2="8.95131" y2="3.95409" gradientUnits="userSpaceOnUse">
<stop stop-color="#731FFF"/>
<stop offset="0.905415" stop-color="#EB1AFF"/>
</linearGradient>
</defs>
</svg>
