<svg width="24" height="24" viewBox="0 0 24 24" fill="none" xmlns="http://www.w3.org/2000/svg">
<path opacity="0.4" d="M18.338 7.91264H22.9961V7.87164C22.9961 4.17648 20.756 2 16.9652 2H7.03191C3.24009 2 1 4.17648 1 7.87164V15.9198C1 19.6149 3.24009 21.8 7.03191 21.8H16.9691C20.7599 21.8 23 19.6149 23 15.9198V15.5832H18.338C16.1653 15.5804 14.4073 13.8606 14.4102 11.7422C14.4141 9.62866 16.1702 7.91645 18.338 7.91264V7.91264Z" fill="url(#paint0_linear_8_851)"/>
<path fill-rule="evenodd" clip-rule="evenodd" d="M18.6359 13.9896C17.5886 14.0088 16.6712 13.2726 16.4412 12.2263C16.4141 12.0866 16.4 11.9439 16.4 11.8013C16.3982 10.5827 17.3604 9.59383 18.5517 9.59H22.2108C22.6466 9.59095 22.9991 9.9528 23 10.3979V13.1826C23 13.6287 22.6466 13.9896 22.2108 13.9896H18.6359ZM18.6 12.89C19.2075 12.89 19.7 12.3975 19.7 11.79C19.7 11.1825 19.2075 10.69 18.6 10.69C17.9925 10.69 17.5 11.1825 17.5 11.79C17.5 12.3975 17.9925 12.89 18.6 12.89Z" fill="url(#paint1_linear_8_851)"/>
<path fill-rule="evenodd" clip-rule="evenodd" d="M4.85992 6.00306C4.50745 5.99311 3.96349 5.97775 4.01108 6.48505C3.99939 8.49049 4.00085 9.86365 4.00239 11.3158C4.0036 12.4454 4.00485 13.6229 4 15.1829C4.004 15.2398 4.00397 15.2996 4.00395 15.3601C4.00386 15.5576 4.00377 15.763 4.14362 15.9051C4.16478 15.9265 4.19273 15.9397 4.22221 15.9461C4.62564 16.0331 5.04275 15.9969 5.45266 15.9613C5.46695 15.96 5.48123 15.9588 5.49549 15.9576C5.58735 15.9496 5.66268 15.8805 5.6753 15.7891C5.77596 15.0611 5.76093 14.3258 5.74589 13.5898C5.73583 13.0976 5.72576 12.6052 5.75028 12.1143C5.75561 12.0077 5.84547 11.9259 5.95219 11.9275C6.28095 11.9324 6.60971 11.9323 6.93846 11.9323C7.04112 11.9323 7.14378 11.9323 7.24643 11.9324C7.32101 11.9325 7.38928 11.9742 7.42357 12.0404C7.61977 12.4195 7.81684 12.7984 8.01398 13.1775C8.38404 13.8891 8.75436 14.6012 9.11969 15.3155C9.13061 15.3354 9.14151 15.3555 9.15246 15.3756C9.26409 15.5809 9.38087 15.7957 9.57706 15.924C9.59097 15.9331 9.60627 15.9399 9.62228 15.9443C9.82852 16.0019 10.0442 15.9992 10.2581 15.9965C10.3246 15.9957 10.391 15.9948 10.4568 15.9958C10.4979 15.9923 10.5417 15.9915 10.5863 15.9906C10.7633 15.9872 10.954 15.9836 11.0421 15.8102C11.0546 15.7857 11.0583 15.7578 11.0558 15.7304C11.0279 15.4296 10.8779 15.1651 10.729 14.9024C10.6592 14.7794 10.5897 14.6568 10.5331 14.5311C10.3233 14.1146 10.1023 13.7033 9.88134 13.292C9.52786 12.6341 9.17442 11.9763 8.86665 11.2972C8.84306 11.2451 8.84323 11.1854 8.86691 11.1334C9.14685 10.5187 9.44563 9.91327 9.74444 9.30774C10.0417 8.7054 10.3389 8.10301 10.6177 7.49144C10.7148 7.30604 10.6829 7.00371 10.4485 6.95377C10.0879 6.89532 9.7175 6.901 9.35687 6.94381C9.03123 6.97943 8.87169 7.30403 8.74138 7.56916L8.74102 7.5699C8.43708 8.20725 8.13129 8.84336 7.82531 9.47988C7.68998 9.76139 7.55461 10.043 7.41934 10.3248C7.38614 10.394 7.31628 10.4381 7.23954 10.4382C6.81031 10.439 6.38105 10.4381 5.95182 10.4361C5.84247 10.4356 5.75385 10.3469 5.75295 10.2376C5.74825 9.66649 5.74662 9.264 5.74523 8.92151C5.74215 8.16284 5.74027 7.69855 5.70887 6.34811C5.67559 6.00701 5.3161 6.00653 5.03938 6.00616C4.9933 6.0061 4.94952 6.00604 4.90992 6.00442C4.89376 6.00402 4.87707 6.00355 4.85992 6.00306ZM4.83796 18.6417H11.042H11.0459H11.0537C11.5181 18.6398 11.8936 18.2708 11.8917 17.817C11.8897 17.3642 11.5103 16.9981 11.0459 17H4.83796C4.37645 17.0019 4.00196 17.367 4.00001 17.818C3.99805 18.2708 4.37352 18.6398 4.83796 18.6417Z" fill="url(#paint2_linear_8_851)"/>
<defs>
<linearGradient id="paint0_linear_8_851" x1="12" y1="21.8" x2="12" y2="2" gradientUnits="userSpaceOnUse">
<stop stop-color="#FD5900"/>
<stop offset="1" stop-color="#FFDE00"/>
</linearGradient>
<linearGradient id="paint1_linear_8_851" x1="19.7" y1="13.99" x2="19.7" y2="9.59" gradientUnits="userSpaceOnUse">
<stop stop-color="#FD5900"/>
<stop offset="1" stop-color="#FFDE00"/>
</linearGradient>
<linearGradient id="paint2_linear_8_851" x1="7.94583" y1="18.6417" x2="7.94583" y2="6" gradientUnits="userSpaceOnUse">
<stop stop-color="#FD2E00"/>
<stop offset="1" stop-color="#FFBB55"/>
</linearGradient>
</defs>
</svg>
