<svg width="32" height="32" viewBox="0 0 32 32" fill="none" xmlns="http://www.w3.org/2000/svg">
<path opacity="0.4" d="M29.4212 11.227C29.9663 12.7012 30.2663 14.2911 30.2719 15.9511V15.9997C30.2719 17.6775 29.9716 19.2841 29.421 20.7727C29.0382 21.8077 28.5344 22.7868 27.9249 23.6929L27.924 23.6945C27.6692 24.0748 27.3947 24.4427 27.1028 24.7968C26.1692 25.9296 25.059 26.9166 23.8121 27.7181L23.8118 27.7183C23.3524 28.0138 22.8755 28.2836 22.3826 28.5252L22.3812 28.5258C20.4636 29.4686 18.2971 30 16.0001 30C13.7032 30 11.5367 29.4686 9.61894 28.5258L9.61769 28.5252C9.12431 28.2833 8.64688 28.0135 8.18776 27.7183C6.9247 26.9057 5.80112 25.903 4.85992 24.7515L4.8593 24.7508C4.56786 24.3949 4.29407 24.0239 4.03864 23.6392L4.03799 23.6383C3.445 22.7473 2.95397 21.7866 2.5786 20.7712L2.57854 20.771C2.02826 19.2832 1.72827 17.6773 1.72827 16C1.72827 8.28619 8.09956 2 16.0001 2C19.9634 2 23.5441 3.5831 26.1292 6.13715L26.1295 6.1373C26.874 6.87284 27.5357 7.68912 28.0982 8.57066L28.0991 8.5723C28.631 9.40241 29.0754 10.2916 29.421 11.2268L29.4212 11.227Z" fill="url(#paint0_linear_297_81)"/>
<path d="M24.2711 13.3778L13.5484 24.1539C12.9907 24.6967 12.2578 25 11.493 25H7.74884C7.54171 25 7.35052 24.9202 7.20713 24.7765C7.06373 24.6328 7 24.4412 7 24.2337L7.0956 20.4501C7.11153 19.6998 7.41425 18.9973 7.94003 18.4705L15.5399 10.8554C15.6674 10.7277 15.8905 10.7277 16.0179 10.8554L18.6835 13.5103C18.8587 13.6843 19.1137 13.7977 19.3845 13.7977C19.974 13.7977 20.4361 13.3188 20.4361 12.744C20.4361 12.4567 20.3245 12.2012 20.1493 12.0097C20.1015 11.9458 17.5634 9.41863 17.5634 9.41863C17.4041 9.25898 17.4041 8.98758 17.5634 8.82794L18.6309 7.74235C19.6187 6.75255 21.212 6.75255 22.1998 7.74235L24.2711 9.81774C25.243 10.7916 25.243 12.388 24.2711 13.3778Z" fill="url(#paint1_linear_297_81)"/>
<defs>
<linearGradient id="paint0_linear_297_81" x1="16.0001" y1="30" x2="16.0001" y2="2" gradientUnits="userSpaceOnUse">
<stop stop-color="#5570FF"/>
<stop offset="1" stop-color="#4DD3FF"/>
</linearGradient>
<linearGradient id="paint1_linear_297_81" x1="16" y1="25" x2="16" y2="7" gradientUnits="userSpaceOnUse">
<stop stop-color="#5570FF"/>
<stop offset="1" stop-color="#4DD3FF"/>
</linearGradient>
</defs>
</svg>
