<svg width="24" height="24" viewBox="0 0 24 24" fill="none" xmlns="http://www.w3.org/2000/svg">
<path opacity="0.5" d="M10.7317 22.9274C5.2537 22.2982 1 17.6463 1 12C1 5.9247 5.9247 1 12 1C18.0753 1 23 5.9247 23 12C23 17.6727 19.3887 17.2063 16.3054 16.807C14.5256 16.5771 12.9229 16.3703 12.2882 17.3768C11.8537 18.0654 12.3234 18.9234 12.8987 19.4987C13.0696 19.6696 13.2051 19.8725 13.2976 20.0957C13.3901 20.319 13.4377 20.5583 13.4377 20.8C13.4377 21.0417 13.3901 21.281 13.2976 21.5043C13.2051 21.7275 13.0696 21.9304 12.8987 22.1013C12.3234 22.6766 11.5402 23.0209 10.7317 22.9274Z" fill="url(#paint0_linear_8_707)"/>
<path d="M10.9935 6.49998C10.9935 6.93758 10.8197 7.35727 10.5103 7.6667C10.2008 7.97614 9.78116 8.14998 9.34355 8.14998C8.90594 8.14998 8.48626 7.97614 8.17682 7.6667C7.86739 7.35727 7.69355 6.93758 7.69355 6.49998C7.69355 6.06237 7.86739 5.64268 8.17682 5.33325C8.48626 5.02381 8.90594 4.84998 9.34355 4.84998C9.78116 4.84998 10.2008 5.02381 10.5103 5.33325C10.8197 5.64268 10.9935 6.06237 10.9935 6.49998ZM5.95005 13.1C6.38766 13.1 6.80734 12.9261 7.11678 12.6167C7.42621 12.3073 7.60005 11.8876 7.60005 11.45C7.60005 11.0124 7.42621 10.5927 7.11678 10.2832C6.80734 9.97381 6.38766 9.79998 5.95005 9.79998C5.51244 9.79998 5.09276 9.97381 4.78332 10.2832C4.47389 10.5927 4.30005 11.0124 4.30005 11.45C4.30005 11.8876 4.47389 12.3073 4.78332 12.6167C5.09276 12.9261 5.51244 13.1 5.95005 13.1ZM18.05 13.1C18.4877 13.1 18.9073 12.9261 19.2168 12.6167C19.5262 12.3073 19.7 11.8876 19.7 11.45C19.7 11.0124 19.5262 10.5927 19.2168 10.2832C18.9073 9.97381 18.4877 9.79998 18.05 9.79998C17.6124 9.79998 17.1928 9.97381 16.8833 10.2832C16.5739 10.5927 16.4 11.0124 16.4 11.45C16.4 11.8876 16.5739 12.3073 16.8833 12.6167C17.1928 12.9261 17.6124 13.1 18.05 13.1ZM14.75 8.14998C14.9667 8.14998 15.1813 8.1073 15.3815 8.02438C15.5817 7.94146 15.7636 7.81992 15.9168 7.6667C16.07 7.51349 16.1915 7.33159 16.2745 7.1314C16.3574 6.93122 16.4 6.71666 16.4 6.49998C16.4 6.28329 16.3574 6.06874 16.2745 5.86855C16.1915 5.66836 16.07 5.48647 15.9168 5.33325C15.7636 5.18003 15.5817 5.05849 15.3815 4.97557C15.1813 4.89265 14.9667 4.84998 14.75 4.84998C14.3124 4.84998 13.8928 5.02381 13.5833 5.33325C13.2739 5.64268 13.1 6.06237 13.1 6.49998C13.1 6.93758 13.2739 7.35727 13.5833 7.6667C13.8928 7.97614 14.3124 8.14998 14.75 8.14998Z" fill="url(#paint1_linear_8_707)"/>
<defs>
<linearGradient id="paint0_linear_8_707" x1="12" y1="22.9427" x2="12" y2="1.00006" gradientUnits="userSpaceOnUse">
<stop stop-color="#FFA336"/>
<stop offset="1" stop-color="#FF4D1C"/>
</linearGradient>
<linearGradient id="paint1_linear_8_707" x1="12.0001" y1="13.1" x2="12.0001" y2="4.85" gradientUnits="userSpaceOnUse">
<stop stop-color="#FFA336"/>
<stop offset="1" stop-color="#FF4D1C"/>
</linearGradient>
</defs>
</svg>
