<svg width="64" height="64" viewBox="0 0 64 64" fill="none" xmlns="http://www.w3.org/2000/svg">
<path opacity="0.4" fill-rule="evenodd" clip-rule="evenodd" d="M14.606 2.5C11.9992 2.5 9.88599 4.61322 9.88599 7.22V24.92C9.88599 26.2235 10.9426 27.28 12.246 27.28C13.5494 27.28 14.606 26.2235 14.606 24.92V9.58C14.606 8.27662 15.6626 7.22 16.966 7.22H47.174C48.4775 7.22 49.534 8.27662 49.534 9.58V44.98C49.534 46.2835 48.4775 47.34 47.174 47.34H34.43C33.1265 47.34 32.07 48.3965 32.07 49.7C32.07 51.0035 33.1265 52.06 34.43 52.06H49.534C52.141 52.06 54.254 49.947 54.254 47.34V7.22C54.254 4.61322 52.141 2.5 49.534 2.5H14.606ZM24.8214 9.10791H36.9588C37.5175 9.10791 37.97 9.84669 37.97 10.7599C37.97 11.6732 37.5175 12.4119 36.9588 12.4119H24.8214C24.2624 12.4119 23.81 11.6732 23.81 10.7599C23.81 9.84669 24.2624 9.10791 24.8214 9.10791ZM25.1585 16.1879H41.3415C42.0868 16.1879 42.69 16.9267 42.69 17.8399C42.69 18.7532 42.0868 19.4919 41.3415 19.4919H25.1585C24.4132 19.4919 23.81 18.7532 23.81 17.8399C23.81 16.9267 24.4132 16.1879 25.1585 16.1879ZM45.7243 23.2679H25.4958C24.5639 23.2679 23.81 24.0067 23.81 24.9199C23.81 25.8333 24.5639 26.572 25.4958 26.572H45.7243C46.656 26.572 47.41 25.8333 47.41 24.9199C47.41 24.0067 46.656 23.2679 45.7243 23.2679ZM17.8027 15.4799H20.3773C20.9697 15.4799 21.45 15.9202 21.45 16.4633V19.2166C21.45 19.7597 20.9697 20.1999 20.3773 20.1999H17.8027C17.2103 20.1999 16.73 19.7597 16.73 19.2166V16.4633C16.73 15.9202 17.2103 15.4799 17.8027 15.4799ZM20.3773 9.10791H17.8027C17.2103 9.10791 16.73 9.54819 16.73 10.0913V12.8446C16.73 13.3877 17.2103 13.8279 17.8027 13.8279H20.3773C20.9697 13.8279 21.45 13.3877 21.45 12.8446V10.0913C21.45 9.54819 20.9697 9.10791 20.3773 9.10791Z" fill="url(#paint0_linear_54_483)"/>
<path fill-rule="evenodd" clip-rule="evenodd" d="M4.14983 37.1368L17.825 47.0718C18.0967 47.2563 20.3701 48.992 20.7292 48.992C22.4362 48.992 22.1181 47.727 21.9377 47.2505C21.8919 47.1295 21.8429 47.009 21.8062 46.8853L20.608 42.828C20.1995 41.4448 21.2513 40.062 22.7119 40.062H38.2637C39.5367 40.062 40.566 39.2668 40.566 38.2833V34.724C40.5638 34.488 40.502 34.2553 40.385 34.038C40.268 33.821 40.0978 33.624 39.8838 33.459C39.67 33.2938 39.4167 33.1635 39.1387 33.0753C38.861 32.987 38.5635 32.9428 38.2637 32.9455H22.731C21.2674 32.9455 20.2151 31.5573 20.629 30.1725L21.8391 26.124C21.8539 26.0745 21.8702 26.0265 21.8861 25.9775C21.9857 25.6695 22.3104 24.4629 21.4433 24.0544C21.0142 23.8523 20.5218 24.0724 20.142 24.3548C17.8965 26.0245 18.1098 25.8785 17.8595 26.0498L4.15213 35.7528C4.0261 35.8388 3.925 35.945 3.85563 36.0643C3.78625 36.1835 3.75023 36.313 3.75 36.4443C3.74978 36.5755 3.78538 36.705 3.85435 36.8248C3.92333 36.9443 4.02408 37.0503 4.14983 37.1368Z" fill="url(#paint1_linear_54_483)"/>
<path fill-rule="evenodd" clip-rule="evenodd" d="M59.9902 49.6448L46.315 59.5798C46.0432 59.7643 43.77 61.5 43.4108 61.5C41.7038 61.5 42.022 60.235 42.2025 59.7585C42.2482 59.6375 42.297 59.517 42.3338 59.3933L43.532 55.336C43.9405 53.9528 42.8888 52.57 41.428 52.57H25.8762C24.6031 52.57 23.574 51.7748 23.574 50.7913V47.232C23.5763 46.996 23.6379 46.7633 23.7549 46.546C23.8719 46.329 24.0423 46.132 24.2561 45.967C24.47 45.8018 24.7232 45.6715 25.0012 45.5833C25.279 45.495 25.5765 45.4508 25.8762 45.4535H41.409C42.8728 45.4535 43.925 44.0653 43.511 42.6805L42.3008 38.632C42.2863 38.5825 42.27 38.5345 42.2537 38.4855C42.1542 38.1775 41.8295 36.9708 42.6965 36.5625C43.126 36.3603 43.6183 36.5805 43.998 36.8628C46.2435 38.5325 46.0302 38.3865 46.2805 38.5578L59.9878 48.2608C60.114 48.3468 60.2152 48.453 60.2842 48.5723C60.3537 48.6915 60.3897 48.821 60.39 48.9523C60.3902 49.0835 60.3545 49.213 60.2858 49.3328C60.2168 49.4523 60.116 49.5583 59.9902 49.6448Z" fill="url(#paint2_linear_54_483)"/>
<defs>
<linearGradient id="paint0_linear_54_483" x1="32.07" y1="52.06" x2="32.07" y2="2.5" gradientUnits="userSpaceOnUse">
<stop stop-color="#5570FF"/>
<stop offset="1" stop-color="#4DD3FF"/>
</linearGradient>
<linearGradient id="paint1_linear_54_483" x1="22.158" y1="38.8003" x2="22.158" y2="23.976" gradientUnits="userSpaceOnUse">
<stop stop-color="#5558FF"/>
<stop offset="1" stop-color="#00C0FF"/>
</linearGradient>
<linearGradient id="paint2_linear_54_483" x1="41.982" y1="61.5" x2="41.982" y2="36.484" gradientUnits="userSpaceOnUse">
<stop stop-color="#5570FF"/>
<stop offset="1" stop-color="#4DD3FF"/>
</linearGradient>
</defs>
</svg>
