<svg width="24" height="24" viewBox="0 0 24 24" fill="none" xmlns="http://www.w3.org/2000/svg">
<path opacity="0.4" d="M20.1855 12.1859C20.1855 14.357 19.3231 16.4391 17.7879 17.9742C16.2528 19.5094 14.1706 20.3718 11.9996 20.3718C9.82858 20.3718 7.74647 19.5094 6.21132 17.9742C4.67617 16.4391 3.81372 14.357 3.81372 12.1859C3.81372 10.0149 4.67617 7.93275 6.21132 6.3976C7.74647 4.86244 9.82858 4 11.9996 4C14.1706 4 16.2528 4.86244 17.7879 6.3976C19.3231 7.93275 20.1855 10.0149 20.1855 12.1859Z" fill="url(#paint0_linear_231_99)"/>
<path d="M19.1716 6.84874C19.3744 6.83002 19.5613 6.73153 19.6914 6.57495C19.8215 6.41836 19.8841 6.2165 19.8653 6.01378C19.8466 5.81106 19.7482 5.62408 19.5916 5.49398C19.4349 5.36387 19.2331 5.3013 19.0304 5.32003C18.5966 5.36096 18.1361 5.42849 17.6541 5.52467C17.4581 5.56299 17.2847 5.67647 17.1711 5.84085L18.3141 6.96335C18.617 6.91219 18.9036 6.8733 19.1716 6.84874Z" fill="url(#paint1_linear_231_99)"/>
<path fill-rule="evenodd" clip-rule="evenodd" d="M21.1444 5.41205C21.0453 5.38575 20.942 5.37956 20.8405 5.39384C20.7389 5.40813 20.6414 5.44261 20.5534 5.49523C20.4654 5.54787 20.389 5.61758 20.3284 5.70027C20.2678 5.78297 20.2244 5.87696 20.2008 5.97669C20.177 6.07644 20.1736 6.1799 20.1906 6.28098C20.2076 6.38207 20.2447 6.47873 20.2997 6.56526C20.3546 6.65178 20.4264 6.72642 20.5106 6.78476C20.5949 6.84311 20.69 6.88397 20.7904 6.90496C21.1935 7.00012 21.3491 7.14235 21.4064 7.23444C21.4708 7.33881 21.5424 7.60895 21.2457 8.20447C21.1547 8.3867 21.14 8.59758 21.2045 8.79072C21.2691 8.98386 21.4077 9.14345 21.59 9.23436C21.7722 9.32527 21.9831 9.34007 22.1763 9.27549C22.3694 9.21092 22.529 9.07227 22.6199 8.89004C23.0067 8.1134 23.196 7.2017 22.7079 6.42097C22.3559 5.85819 21.7634 5.5594 21.1444 5.41205ZM20.9142 11.1227C20.9852 11.0512 21.0414 10.9663 21.0797 10.873C21.1179 10.7798 21.1373 10.6799 21.137 10.5791C21.1366 10.4782 21.1163 10.3785 21.0774 10.2855C21.0385 10.1925 20.9816 10.1081 20.9101 10.0371C20.8385 9.96607 20.7537 9.90984 20.6604 9.87162C20.5671 9.83338 20.4672 9.8139 20.3664 9.81429C20.2656 9.81467 20.1658 9.8349 20.0728 9.87383C19.9799 9.91276 19.8954 9.96963 19.8244 10.0412C19.1225 10.7493 18.221 11.5044 17.1558 12.2626C16.99 12.3807 16.8779 12.5598 16.8441 12.7604C16.8103 12.9612 16.8577 13.1671 16.9758 13.3329C17.0937 13.4987 17.2728 13.6108 17.4736 13.6447C17.6743 13.6784 17.8802 13.6311 18.0461 13.513C19.1665 12.7149 20.1375 11.9045 20.9142 11.1227ZM3.39122 15.2013C3.59689 14.9435 3.83838 14.6733 4.11362 14.393L3.87009 13.0321C3.73755 12.9927 3.59683 12.99 3.46284 13.024C3.32883 13.0581 3.20651 13.1277 3.10881 13.2255C2.76705 13.5693 2.45905 13.91 2.19199 14.2436C2.12903 14.3224 2.08221 14.4127 2.05418 14.5095C2.02614 14.6064 2.01746 14.7078 2.02863 14.808C2.03979 14.9082 2.07058 15.0053 2.11924 15.0935C2.1679 15.1818 2.23348 15.2596 2.31222 15.3226C2.39096 15.3856 2.48133 15.4324 2.57817 15.4604C2.67501 15.4884 2.77643 15.4972 2.87662 15.486C2.97681 15.4748 3.07383 15.444 3.16212 15.3954C3.25042 15.3467 3.32827 15.2811 3.39122 15.2024V15.2013ZM15.8369 14.9527C15.9253 14.902 16.0027 14.8341 16.0646 14.7531C16.1265 14.6721 16.1716 14.5796 16.1973 14.4809C16.2231 14.3823 16.2289 14.2795 16.2145 14.1786C16.2001 14.0777 16.1657 13.9806 16.1134 13.8932C16.061 13.8056 15.9918 13.7295 15.9097 13.669C15.8275 13.6086 15.7342 13.5652 15.6351 13.5413C15.536 13.5172 15.4332 13.5133 15.3325 13.5295C15.2319 13.5458 15.1355 13.5819 15.0489 13.6358C14.023 14.2492 12.9671 14.811 11.8851 15.319C11.7063 15.4089 11.5696 15.5649 11.5043 15.754C11.4388 15.9431 11.4499 16.1503 11.535 16.3314C11.6201 16.5125 11.7727 16.6532 11.9599 16.7234C12.1473 16.7937 12.3547 16.788 12.5379 16.7076C13.6659 16.1774 14.7669 15.5917 15.8369 14.9527ZM2.60128 16.5346C2.66302 16.3406 2.64515 16.13 2.5516 15.9492C2.45805 15.7683 2.29649 15.632 2.10245 15.5702C1.90842 15.5085 1.6978 15.5264 1.51694 15.6199C1.33608 15.7135 1.19979 15.875 1.13805 16.0691C0.942611 16.6841 0.922146 17.3604 1.29154 17.9518C1.75506 18.6927 2.62891 18.9812 3.49559 19.0641C3.59671 19.0753 3.69906 19.0663 3.79668 19.0376C3.89428 19.0089 3.98522 18.9611 4.06417 18.8969C4.14313 18.8327 4.20853 18.7535 4.25659 18.6638C4.30465 18.5741 4.33439 18.4758 4.34409 18.3745C4.3538 18.2732 4.34326 18.1711 4.3131 18.0738C4.28294 17.9766 4.23376 17.8864 4.16842 17.8085C4.10307 17.7305 4.02288 17.6663 3.93249 17.6196C3.84211 17.5729 3.74333 17.5446 3.64192 17.5364C2.93178 17.4689 2.67188 17.2632 2.59309 17.1373C2.54193 17.0555 2.48872 16.8876 2.60128 16.5346ZM10.0382 17.7656C10.2244 17.691 10.3741 17.5465 10.4551 17.3629C10.5361 17.1793 10.5419 16.9713 10.4715 16.7834C10.401 16.5956 10.2597 16.4428 10.0779 16.3579C9.89609 16.2729 9.68826 16.2626 9.49893 16.3289C8.24546 16.7996 7.07896 17.1384 6.0588 17.3409C5.86354 17.3848 5.69313 17.5032 5.58391 17.6709C5.47469 17.8386 5.4353 18.0424 5.47414 18.2386C5.51298 18.435 5.62697 18.6084 5.79181 18.7219C5.95665 18.8354 6.15931 18.8799 6.35656 18.8461C7.47496 18.6251 8.72331 18.2588 10.0382 17.7656Z" fill="url(#paint2_linear_231_99)" stroke="url(#paint3_linear_231_99)" stroke-width="0.4"/>
<defs>
<linearGradient id="paint0_linear_231_99" x1="12.0477" y1="23.7069" x2="12.0477" y2="5.56382" gradientUnits="userSpaceOnUse">
<stop stop-color="#FDA700"/>
<stop offset="1" stop-color="#FFDE00"/>
</linearGradient>
<linearGradient id="paint1_linear_231_99" x1="18.5199" y1="6.96335" x2="18.5199" y2="5.31677" gradientUnits="userSpaceOnUse">
<stop stop-color="#FDA700"/>
<stop offset="1" stop-color="#FFDE00"/>
</linearGradient>
<linearGradient id="paint2_linear_231_99" x1="12" y1="19.0688" x2="12" y2="5.38635" gradientUnits="userSpaceOnUse">
<stop stop-color="#FDA700"/>
<stop offset="1" stop-color="#FFDE00"/>
</linearGradient>
<linearGradient id="paint3_linear_231_99" x1="12" y1="19.0688" x2="12" y2="5.38635" gradientUnits="userSpaceOnUse">
<stop stop-color="#FDA700"/>
<stop offset="1" stop-color="#FFDE00"/>
</linearGradient>
</defs>
</svg>
