<svg width="32" height="32" viewBox="0 0 32 32" fill="none" xmlns="http://www.w3.org/2000/svg">
<path opacity="0.4" fill-rule="evenodd" clip-rule="evenodd" d="M7.13773 1.09035C7.18888 1.03927 7.25423 1.00854 7.32232 1.00162C7.3904 0.994653 7.46217 1.01009 7.523 1.04962L12.0055 3.96915C11.8699 4.0303 11.7553 4.0935 12.042 3.99389L12.688 4.61708C13.2241 5.13441 13.0806 6.03264 12.4721 6.46253C10.0691 8.15998 8.5 10.9592 8.5 14.125C8.5 19.3027 12.6973 23.5 17.875 23.5C21.3804 23.5 24.4365 21.576 26.045 18.7266C26.0903 18.6462 26.2005 18.6312 26.2643 18.6977C26.4012 18.8429 26.4873 18.9334 26.569 19.0275C26.7822 19.2731 26.9657 19.5442 27.943 20.8753L30.9548 24.6635C31.0283 24.783 31.011 24.9365 30.911 25.0358L28.5437 27.3865C28.4406 27.4888 28.2812 27.5037 28.16 27.4244L24.3006 24.9124C23.9607 24.6911 23.527 24.6845 23.1662 24.8695C22.615 25.1521 22.0386 25.3934 21.4411 25.5886C21.0698 25.7099 20.7761 26.0046 20.6828 26.3839L19.6036 30.7673C19.5701 30.9044 19.447 31 19.3063 31H15.9591C15.8147 31 15.6882 30.8998 15.6589 30.7585L14.7493 26.4135C14.6665 26.0182 14.367 25.7069 13.9834 25.5806C13.4149 25.3934 12.8657 25.1647 12.3387 24.8982C11.9917 24.7228 11.5778 24.724 11.2449 24.9248L7.30475 27.3008C7.1834 27.3732 7.02923 27.3542 6.92972 27.2557L4.56252 24.905C4.4595 24.803 4.44325 24.6432 4.52297 24.5222L7.01739 20.745C7.2403 20.4074 7.25025 19.975 7.06979 19.613C6.77786 19.0273 6.53451 18.4138 6.34242 17.7778C6.22659 17.3942 5.92641 17.0892 5.53707 16.9947L1.23291 15.9499C1.09654 15.9172 1 15.7951 1 15.6546V12.3321C1 12.1879 1.10164 12.063 1.24317 12.0339L5.70596 11.1113C6.09087 11.0317 6.39752 10.7464 6.5313 10.3768C6.71444 9.87079 6.93113 9.38107 7.17907 8.90985C7.36465 8.55717 7.36642 8.13175 7.1586 7.7917L4.7266 3.81205C4.65323 3.69207 4.67248 3.53875 4.772 3.43965L7.13773 1.09035ZM12.042 3.99389C12.3362 3.83475 12.1569 3.90085 12.0055 3.96915L12.042 3.99389Z" fill="url(#paint0_linear_228_307)"/>
<path d="M18.0329 6.35771C19.0364 6.34326 20.0325 6.53029 20.9623 6.90773C21.8923 7.28516 22.737 7.84531 23.4463 8.55503C24.8529 9.96154 25.6428 11.869 25.6428 13.8579C25.6428 15.8468 24.8529 17.7543 23.4463 19.1607C22.0396 20.567 20.132 21.3569 18.1428 21.3569C16.1537 21.3569 14.2459 20.567 12.8393 19.1607C11.4329 17.7543 10.6428 15.8468 10.6428 13.8579C10.6428 11.869 11.4329 9.96154 12.8393 8.55503C14.2187 7.17499 16.0818 6.38679 18.0329 6.35771ZM18.2381 7.29522C16.7044 7.2757 15.215 7.79372 14.0264 8.7552C13.9298 8.83337 13.9249 8.97761 14.0128 9.06548L15.0213 10.0739C15.1026 10.1553 15.2336 10.1577 15.3194 10.0812C16.0517 9.42827 16.85 8.8789 17.669 8.46486C18.2234 8.18464 18.7794 7.97038 19.3224 7.82669C19.5431 7.76828 19.5612 7.44924 19.3367 7.40709C18.9749 7.33911 18.6073 7.3016 18.2381 7.29522ZM21.0766 8.52023C20.3064 8.47653 19.4186 8.67119 18.4997 9.08535C17.6415 9.47218 16.7832 10.0383 15.9973 10.7345C15.9061 10.8153 15.9034 10.9559 15.9896 11.042L17.9913 13.0435C18.075 13.1272 18.2106 13.1272 18.2943 13.0435L22.2223 9.11612C22.3187 9.01961 22.3016 8.85829 22.1792 8.79785C21.8585 8.63948 21.4877 8.5459 21.0766 8.52023ZM13.3448 9.72325C13.2567 9.63529 13.1121 9.64032 13.0341 9.73739C12.3687 10.5649 11.9131 11.5424 11.7083 12.5866C11.5495 13.3962 11.5453 14.2255 11.6928 15.0315C11.7339 15.256 12.0524 15.2397 12.1119 15.0194C12.2579 14.4783 12.4738 13.9246 12.7549 13.3731C13.1699 12.5589 13.7184 11.7658 14.3688 11.0385C14.4456 10.9527 14.4433 10.8216 14.3619 10.7401L13.3448 9.72325ZM23.2048 9.82225C23.1448 9.69914 22.9829 9.68136 22.886 9.77822L18.9573 13.7064C18.8736 13.7901 18.8736 13.9257 18.9573 14.0094L20.9608 16.0126C21.0469 16.0988 21.1876 16.096 21.2683 16.0047C22.2175 14.9322 22.9168 13.7333 23.2557 12.5928C23.5766 11.5133 23.557 10.546 23.2048 9.82225ZM15.3249 11.7031C15.2387 11.617 15.0979 11.6198 15.0173 11.7111C14.0681 12.7836 13.3689 13.9824 13.0299 15.123C12.7091 16.2025 12.7288 17.1698 13.081 17.8935C13.1409 18.0166 13.3029 18.0344 13.3997 17.9376L17.3283 14.0094C17.412 13.9257 17.412 13.7901 17.3283 13.7064L15.3249 11.7031ZM24.5928 12.684C24.5517 12.4596 24.2333 12.476 24.1738 12.6963C24.0278 13.2374 23.8119 13.791 23.5306 14.3427C23.1159 15.1569 22.5673 15.9499 21.9168 16.6773C21.84 16.7631 21.8424 16.8941 21.9238 16.9755L22.9408 17.9925C23.0289 18.0805 23.1734 18.0755 23.2514 17.9784C23.917 17.1509 24.3724 16.1734 24.5773 15.1291C24.7362 14.3195 24.7404 13.4901 24.5928 12.684ZM18.2943 14.6723C18.2106 14.5886 18.075 14.5886 17.9913 14.6723L14.0648 18.5983C13.9678 18.6953 13.9857 18.8574 14.109 18.9172C14.8328 19.2683 15.7995 19.2873 16.8781 18.9666C18.018 18.6278 19.2161 17.9293 20.288 16.9813C20.3793 16.9005 20.3822 16.7598 20.296 16.6736L18.2943 14.6723ZM21.2642 17.6419C21.1829 17.5605 21.0521 17.5581 20.9661 17.6346C20.2339 18.2875 19.4356 18.8368 18.6166 19.2509C18.0647 19.5299 17.5114 19.7435 16.9707 19.887C16.7496 19.9459 16.7323 20.2657 16.9573 20.3068C17.7629 20.4544 18.592 20.4503 19.4012 20.2917C20.4489 20.0863 21.4295 19.629 22.2588 18.9605C22.3557 18.8824 22.3606 18.738 22.2726 18.6501L21.2642 17.6419Z" fill="url(#paint1_linear_228_307)"/>
<path fill-rule="evenodd" clip-rule="evenodd" d="M20.3749 7.22289C20.2307 7.17433 20.0027 7.48073 19.996 7.63275V7.63275V7.63275C19.989 7.79306 20.166 8.06251 20.3255 8.04473C20.5919 8.01504 20.8525 8.00671 21.1049 8.02103L21.1078 8.02119C21.5754 8.05039 22.0124 8.15782 22.4006 8.34954C22.4458 8.37187 22.4868 8.39746 22.5236 8.42577C22.7577 8.60552 23.3955 9.24206 23.5757 9.47583C23.605 9.51385 23.6314 9.55626 23.6542 9.60319C23.9483 10.2075 24.0381 10.9232 23.9521 11.6886C23.9342 11.8479 24.2106 12.03 24.3708 12.0237V12.0237V12.0237C24.5203 12.0179 24.8315 11.7881 24.7842 11.6461C24.4438 10.6241 23.8688 9.68466 23.0927 8.90859C22.4308 8.24623 21.6423 7.72331 20.7743 7.37103C20.6425 7.31754 20.5093 7.26815 20.3749 7.22289ZM23.3919 18.4887C23.2688 18.5465 23.1327 18.5661 23.0007 18.549C22.9224 18.5388 22.8208 18.6394 22.8301 18.7178V18.7178C22.8405 18.8053 22.9997 18.8992 23.0624 18.8373C23.0725 18.8273 23.0827 18.8172 23.0927 18.8071M16.8776 20.7417C16.7791 20.7236 16.6812 20.7034 16.5837 20.6812C16.3817 20.5372 16.2882 20.2979 16.2972 20.0828C16.3048 19.8992 16.3851 19.7079 16.5348 19.5706C16.6443 19.547 16.7544 19.5201 16.865 19.4901C16.865 19.4901 16.8651 19.4901 16.865 19.4901M13.8909 19.3671C14.6406 19.7307 15.5609 19.7804 16.5348 19.5706C16.6167 19.4955 16.7193 19.4365 16.8421 19.4039V19.4039C16.9269 19.3813 16.9751 19.2928 16.9501 19.2087L16.9322 19.1486M20.8586 16.8234C20.8589 16.9285 21.0075 17.079 21.1126 17.079V17.079C21.2169 17.079 21.3617 16.9336 21.3609 16.8293C21.3609 16.8269 21.3609 16.8244 21.3609 16.822C21.3612 16.7168 21.2156 16.5756 21.1104 16.5752V16.5752C21.006 16.5749 20.8583 16.7189 20.8586 16.8234V16.8234ZM18.1428 14.1095C18.2481 14.1095 18.3946 13.9631 18.3946 13.8579V13.8579C18.3946 13.7527 18.2481 13.6063 18.1428 13.6063V13.6063C18.0376 13.6063 17.8911 13.7527 17.8911 13.8579V13.8579C17.8911 13.9631 18.0376 14.1095 18.1428 14.1095V14.1095ZM13.5878 18.4131C13.2681 18.5827 12.8241 18.5085 12.6314 18.1123C12.3373 17.508 12.2475 16.7925 12.3335 16.0272C12.3515 15.8679 12.0749 15.6857 11.9147 15.6919V15.6919V15.6919C11.7652 15.6976 11.4541 15.9274 11.5013 16.0693C11.8417 17.0914 12.4167 18.031 13.1928 18.8072C14.1317 19.7457 15.3098 20.3902 16.5837 20.6812C16.6619 20.7369 16.7562 20.7783 16.8672 20.7986C16.8672 20.7986 16.8673 20.7986 16.8672 20.7986L16.8776 20.7417M13.2822 9.16646C13.1939 9.15536 13.1008 9.00148 13.1633 8.93823C13.1731 8.92832 13.183 8.91843 13.1928 8.90856C13.2029 8.8985 13.213 8.88847 13.2231 8.87848C13.2857 8.81656 13.4449 8.91045 13.4553 8.99792V8.99792C13.4646 9.07635 13.3605 9.17632 13.2822 9.16646V9.16646ZM13.5878 18.4131C13.4199 18.7327 13.4952 19.1752 13.8909 19.3671ZM15.175 11.1405C15.2795 11.1408 15.4272 10.9969 15.4269 10.8923V10.8923C15.4266 10.7872 15.2781 10.6368 15.173 10.6368V10.6368C15.0686 10.6368 14.9239 10.782 14.9247 10.8863C14.9247 10.8889 14.9247 10.8914 14.9247 10.8939C14.9244 10.9991 15.0698 11.1403 15.175 11.1405V11.1405ZM23.3919 18.4887C23.2958 18.5976 23.196 18.7038 23.0927 18.8071ZM21.1503 6.44443C20.1586 6.04183 19.0961 5.84235 18.0257 5.85776C15.9446 5.88878 13.9571 6.72949 12.4857 8.2015M21.1503 6.44443C22.1422 6.84699 23.0433 7.44445 23.7998 8.20147C25.3002 9.70176 26.1428 11.7364 26.1428 13.8579C26.1428 15.9794 25.3002 18.014 23.7998 19.5143C22.2994 21.0143 20.2646 21.8569 18.1428 21.8569C16.0212 21.8569 13.9862 21.0143 12.4858 19.5143C10.9856 18.0141 10.1428 15.9794 10.1428 13.8579C10.1428 11.7364 10.9856 9.70176 12.4857 8.2015M14.8489 9.19447C14.7184 9.06391 14.7354 8.84703 14.891 8.74766C15.6483 8.26413 16.5042 7.9547 17.3961 7.84228C17.5024 7.82888 17.5391 7.97029 17.4435 8.01863V8.01863C16.7362 8.37619 16.0468 8.82812 15.4002 9.35527C15.2789 9.45418 15.102 9.44753 14.9913 9.33685L14.8489 9.19447ZM21.0469 9.01935C20.378 8.98169 19.5718 9.15057 18.7052 9.54119C18.0697 9.82762 17.4285 10.2213 16.8172 10.7012C16.6786 10.81 16.6697 11.015 16.7943 11.1396L17.9307 12.2758C18.0479 12.393 18.2378 12.393 18.3549 12.2758L21.1862 9.44503C21.3409 9.29029 21.2653 9.03309 21.0469 9.01935V9.01935ZM12.1989 12.6829C12.3671 11.8257 12.7181 11.0171 13.2256 10.3112ZM13.2256 10.3112L13.6241 10.7096C13.7349 10.8204 13.7415 10.9976 13.6422 11.1189C13.1178 11.7602 12.6672 12.4441 12.3095 13.146V13.146C12.2607 13.2417 12.119 13.2048 12.1323 13.0982C12.1497 12.9593 12.1719 12.8208 12.1989 12.6829M22.5291 10.8422C22.6945 10.6768 22.9687 10.7587 22.9797 10.9924C22.9998 11.419 22.9373 11.909 22.7764 12.4503C22.5112 13.3429 22.0015 14.2916 21.3013 15.1846C21.1925 15.3233 20.9875 15.3323 20.8628 15.2076L19.7251 14.07C19.6079 13.9529 19.608 13.7629 19.7251 13.6458L22.5291 10.8422ZM15.4228 12.5081C15.2981 12.3835 15.093 12.3924 14.9843 12.5312C14.2841 13.4241 13.7745 14.3727 13.5091 15.2655C13.3483 15.8068 13.2858 16.2968 13.306 16.7234C13.317 16.9571 13.5912 17.039 13.7566 16.8736L16.5605 14.07C16.6777 13.9529 16.6777 13.7629 16.5605 13.6457L15.4228 12.5081ZM14.9713 12.0567C14.9713 12.0567 14.9713 12.0567 14.9713 12.0567ZM13.0462 17.584C13.0461 17.5841 13.0462 17.5839 13.0462 17.584ZM23.9761 14.5698C24.025 14.4675 24.1673 14.5051 24.1533 14.6176C24.1359 14.7565 24.1137 14.895 24.0866 15.0329C23.9413 15.7739 23.6592 16.4787 23.2576 17.1121C23.1585 17.2684 22.9411 17.2858 22.8103 17.155L22.6615 17.0062C22.5507 16.8954 22.5442 16.7182 22.6434 16.5969C23.1678 15.9556 23.6184 15.2718 23.9761 14.5698M22.8616 17.6652C22.8616 17.6653 22.8617 17.6651 22.8616 17.6652ZM17.9408 15.0259C17.9409 15.026 17.9406 15.0257 17.9408 15.0259ZM17.9307 15.4399C18.0479 15.3228 18.2378 15.3228 18.3549 15.4399L19.4908 16.5756C19.6155 16.7003 19.6065 16.9054 19.4677 17.0142C18.5754 17.7132 17.6276 18.2222 16.7357 18.4873C16.1955 18.6479 15.7064 18.7106 15.2804 18.691C15.0466 18.6803 14.9644 18.4059 15.1299 18.2403L17.9307 15.4399ZM19.9426 17.0274C19.9427 17.0274 19.9426 17.0273 19.9426 17.0274ZM18.3446 15.0262C18.3447 15.0261 18.3444 15.0263 18.3446 15.0262ZM21.0982 18.1829C20.3911 18.7865 19.6277 19.3 18.8422 19.6971V19.6971C18.7498 19.7438 18.7854 19.8805 18.8881 19.8678C19.0275 19.8504 19.1666 19.8282 19.305 19.8011M20.9107 17.9954C20.9109 17.9956 20.9105 17.9953 20.9107 17.9954ZM21.0982 18.1829L21.4356 18.5202C21.5663 18.6509 21.549 18.8681 21.393 18.9673C20.7573 19.3715 20.0495 19.6551 19.305 19.8011" fill="url(#paint2_linear_228_307)"/>
<defs>
<linearGradient id="paint0_linear_228_307" x1="16" y1="31" x2="16" y2="1" gradientUnits="userSpaceOnUse">
<stop stop-color="#5570FF"/>
<stop offset="1" stop-color="#4DD3FF"/>
</linearGradient>
<linearGradient id="paint1_linear_228_307" x1="18.1428" y1="21.8569" x2="18.1428" y2="5.85693" gradientUnits="userSpaceOnUse">
<stop stop-color="#5570FF"/>
<stop offset="1" stop-color="#4DD3FF"/>
</linearGradient>
<linearGradient id="paint2_linear_228_307" x1="18.1428" y1="21.3569" x2="18.1428" y2="6.35693" gradientUnits="userSpaceOnUse">
<stop stop-color="#5570FF"/>
<stop offset="1" stop-color="#4DD3FF"/>
</linearGradient>
</defs>
</svg>
