<svg width="128" height="128" viewBox="0 0 128 128" fill="none" xmlns="http://www.w3.org/2000/svg">
<path opacity="0.4" d="M120.826 54.6334L103.702 39.8152C102.229 38.5405 101.383 36.6887 101.383 34.7408V9.39844C101.383 7.52159 99.8613 6 97.9844 6H30.0156C28.1387 6 26.6172 7.52159 26.6172 9.39844V34.7408C26.6172 36.6887 25.7708 38.5405 24.2978 39.8152L7.1745 54.6334C6.42865 55.2789 6 56.2167 6 57.2032V118.601C6 120.479 7.52159 122 9.39844 122H118.601C120.479 122 122 120.479 122 118.601V57.2032C122 56.2167 121.571 55.2789 120.826 54.6334ZM101.383 57.239C101.383 53.1506 106.188 50.9544 109.279 53.6298C111.47 55.5261 111.48 58.9213 109.299 60.8301C106.214 63.5318 101.383 61.3404 101.383 57.239ZM18.721 53.6297C21.8125 50.9543 26.6172 53.1505 26.6172 57.2388C26.6172 61.3401 21.786 63.5316 18.7002 60.8298C16.5201 58.9211 16.5299 55.5259 18.721 53.6297ZM115.203 108.492C115.203 112.198 112.198 115.203 108.492 115.203H19.5076C15.8013 115.203 12.7968 112.198 12.7968 108.492V79.49C12.7968 73.7236 19.5895 70.6425 23.9281 74.4411L61.7613 107.565C62.4023 108.126 63.2009 108.406 64 108.406C64.7989 108.406 65.5979 108.126 66.2387 107.565L104.072 74.4411C108.411 70.6425 115.203 73.7235 115.203 79.49V108.492Z" fill="url(#paint0_linear_60_456)"/>
<path fill-rule="evenodd" clip-rule="evenodd" d="M63.9219 14H49.0346C48.5325 14 48.1257 14.4069 48.1257 14.9089V29.7963V45.5925V60.4799C48.1257 60.9819 47.7187 61.3888 47.2168 61.3888H35.9107C35.0913 61.3888 34.6902 62.388 35.2825 62.9547L48.7837 75.8689L63.2937 89.7479C63.6451 90.084 64.1988 90.084 64.5502 89.7479L79.0601 75.8689L92.5614 62.9547C93.1536 62.388 92.7526 61.3888 91.9331 61.3888H80.6273C80.1252 61.3888 79.7184 60.9819 79.7184 60.4799V45.5927V29.7964V14.9089C79.7184 14.4069 79.3114 14 78.8095 14H63.9219Z" fill="url(#paint1_linear_60_456)"/>
<defs>
<linearGradient id="paint0_linear_60_456" x1="64" y1="122" x2="64" y2="6" gradientUnits="userSpaceOnUse">
<stop stop-color="#FD3A84"/>
<stop offset="1" stop-color="#FFA68D"/>
</linearGradient>
<linearGradient id="paint1_linear_60_456" x1="63.9219" y1="90" x2="63.9219" y2="14" gradientUnits="userSpaceOnUse">
<stop stop-color="#FD3A84"/>
<stop offset="1" stop-color="#FFA68D"/>
</linearGradient>
</defs>
</svg>
