<svg width="64" height="64" viewBox="0 0 64 64" fill="none" xmlns="http://www.w3.org/2000/svg">
<path opacity="0.4" fill-rule="evenodd" clip-rule="evenodd" d="M58 13.0151V50.9849C58 55.7331 53.6111 58 50.375 58H13.625C10.3889 58 6 55.7331 6 50.9849V13.0151C6 8.26693 10.3889 6 13.625 6H50.375C53.6111 6 58 8.26694 58 13.0151Z" fill="url(#paint0_linear_54_206)"/>
<path fill-rule="evenodd" clip-rule="evenodd" d="M30.6755 28.4272C31.5122 29.5255 31.3001 31.0942 30.2018 31.9309L22.2187 38.0127L30.1978 44.066C31.2978 44.9005 31.513 46.4687 30.6785 47.5687C29.844 48.6687 28.2758 48.8839 27.1758 48.0495L20.4424 42.9412V46.0578C20.4424 47.4386 19.3231 48.5578 17.9424 48.5578C16.5617 48.5578 15.4424 47.4386 15.4424 46.0578V29.9422C15.4424 28.5615 16.5617 27.4422 17.9424 27.4422C19.3231 27.4422 20.4424 28.5615 20.4424 29.9422V33.0803L27.1718 27.9536C28.2701 27.1169 29.8387 27.3289 30.6755 28.4272Z" fill="url(#paint1_linear_54_206)"/>
<path d="M18 26C19.6569 26 21 24.6569 21 23C21 21.3431 19.6569 20 18 20C16.3431 20 15 21.3431 15 23C15 24.6569 16.3431 26 18 26Z" fill="#FFC540"/>
<path d="M35 6V27.4791C35 28.3846 36.1074 28.8239 36.7281 28.1646L40.7746 23.8668C41.1696 23.4473 41.8364 23.4475 42.2311 23.8671L46.2716 28.1626C46.8922 28.8223 48 28.3831 48 27.4774V6H35Z" fill="url(#paint2_linear_54_206)"/>
<defs>
<linearGradient id="paint0_linear_54_206" x1="32" y1="58" x2="32" y2="6" gradientUnits="userSpaceOnUse">
<stop stop-color="#FDA700"/>
<stop offset="1" stop-color="#FFDE00"/>
</linearGradient>
<linearGradient id="paint1_linear_54_206" x1="23.3147" y1="49.9845" x2="23.3147" y2="27.4421" gradientUnits="userSpaceOnUse">
<stop stop-color="#FDA700"/>
<stop offset="1" stop-color="#FFDE00"/>
</linearGradient>
<linearGradient id="paint2_linear_54_206" x1="41.5" y1="30" x2="41.5" y2="6" gradientUnits="userSpaceOnUse">
<stop stop-color="#FDA700"/>
<stop offset="1" stop-color="#FFDE00"/>
</linearGradient>
</defs>
</svg>
