<svg width="32" height="32" viewBox="0 0 32 32" fill="none" xmlns="http://www.w3.org/2000/svg">
<path opacity="0.4" d="M16 30C23.732 30 30 23.732 30 16C30 8.26801 23.732 2 16 2C8.26801 2 2 8.26801 2 16C2 23.732 8.26801 30 16 30Z" fill="url(#paint0_linear_105_75)"/>
<path d="M16.1845 10.7902C16.1107 10.6366 15.8892 10.6366 15.8155 10.7902C15.6652 11.1033 15.4536 11.5332 15.3 11.8C13.2 15.4483 13.2 17.4 8.99998 17.4C7.85958 17.4 5.32578 15.5422 4.42531 14.8531C4.29259 14.7516 4.10558 14.8426 4.11753 15.0093C4.22496 16.5066 4.9881 21.6 10.4 21.6C13.6885 21.6 15.2604 19.8835 15.7879 19.1384C15.8831 19.0039 16.1169 19.0039 16.2121 19.1384C16.7395 19.8835 18.3115 21.6 21.6 21.6C27.0119 21.6 27.775 16.5066 27.8824 15.0093C27.8944 14.8426 27.7074 14.7516 27.5747 14.8531C26.6742 15.5422 24.1404 17.4 23 17.4C18.8 17.4 18.8 15.4483 16.7 11.8C16.5464 11.5332 16.3347 11.1033 16.1845 10.7902Z" fill="url(#paint1_linear_105_75)"/>
<defs>
<linearGradient id="paint0_linear_105_75" x1="7.25" y1="5.17187" x2="24.9141" y2="24.0391" gradientUnits="userSpaceOnUse">
<stop stop-color="#8F0CFF"/>
<stop offset="0.516064" stop-color="#AA1DFF"/>
<stop offset="1" stop-color="#B826FF"/>
</linearGradient>
<linearGradient id="paint1_linear_105_75" x1="8.56248" y1="11.6688" x2="13.7877" y2="23.5286" gradientUnits="userSpaceOnUse">
<stop stop-color="#8F0CFF"/>
<stop offset="0.516064" stop-color="#AA1DFF"/>
<stop offset="1" stop-color="#B826FF"/>
</linearGradient>
</defs>
</svg>
