<svg width="32" height="32" viewBox="0 0 32 32" fill="none" xmlns="http://www.w3.org/2000/svg">
<path opacity="0.4" d="M2 5.5C2 4.57174 2.36875 3.6815 3.02513 3.02513C3.6815 2.36875 4.57174 2 5.5 2H17.75C18.6783 2 19.5685 2.36875 20.2249 3.02513C20.8813 3.6815 21.25 4.57174 21.25 5.5V9.75C21.25 10.3023 21.6977 10.75 22.25 10.75H26.5C27.4283 10.75 28.3185 11.1187 28.9749 11.7751C29.6313 12.4315 30 13.3217 30 14.25V26.5C30 27.4283 29.6313 28.3185 28.9749 28.9749C28.3185 29.6313 27.4283 30 26.5 30H14.25C13.3217 30 12.4315 29.6313 11.7751 28.9749C11.1187 28.3185 10.75 27.4283 10.75 26.5V22.25C10.75 21.6977 10.3023 21.25 9.75 21.25H5.5C4.57174 21.25 3.6815 20.8813 3.02513 20.2249C2.36875 19.5685 2 18.6783 2 17.75V5.5Z" fill="url(#paint0_linear_297_190)"/>
<path d="M9.63847 13.9136C9.38119 13.9136 9.15255 14.0776 9.07011 14.3213L8.30195 16.5923C8.21952 16.836 7.99087 17 7.73359 17H6.36372C5.94538 17 5.65545 16.5826 5.80145 16.1906L9.82337 5.39061C9.91083 5.15576 10.135 5 10.3856 5H12.633C12.8839 5 13.1083 5.15614 13.1955 5.3914L17.2002 16.1914C17.3455 16.5833 17.0556 17 16.6376 17H15.1296C14.8724 17 14.6437 16.836 14.5613 16.5923L13.7931 14.3213C13.7107 14.0776 13.482 13.9136 13.2248 13.9136H9.63847ZM12.2901 12.1472C12.7016 12.1472 12.991 11.7423 12.8578 11.3529L12.0272 8.92606C11.843 8.38799 11.0834 8.38414 10.8938 8.92032L10.0357 11.3472C9.89766 11.7376 10.1872 12.1472 10.6014 12.1472H12.2901Z" fill="url(#paint1_linear_297_190)"/>
<path d="M22.2287 21.0853C22.5577 21.0853 22.8073 21.0138 22.9772 20.8709C23.1472 20.728 23.2322 20.5173 23.2322 20.2386C23.2322 19.9636 23.1472 19.7546 22.9772 19.6117C22.8073 19.4652 22.5578 19.392 22.2287 19.392H21.4732C21.2523 19.392 21.0732 19.5711 21.0732 19.792V20.6853C21.0732 20.9062 21.2523 21.0853 21.4732 21.0853L22.2287 21.0853ZM22.2992 24.5843C22.7187 24.5843 23.0333 24.4968 23.243 24.3217C23.4564 24.1467 23.5631 23.8824 23.5631 23.5287C23.5631 23.1822 23.4582 22.9232 23.2485 22.7518C23.0387 22.5767 22.7223 22.4892 22.2992 22.4892H21.4732C21.2523 22.4892 21.0732 22.6682 21.0732 22.8892V24.1843C21.0732 24.4052 21.2523 24.5843 21.4732 24.5843L22.2992 24.5843ZM25.044 21.1015C24.8609 21.3711 24.8882 21.9801 25.1139 22.2153C25.1746 22.2786 25.2309 22.3467 25.2826 22.4196C25.5285 22.7661 25.6515 23.1912 25.6515 23.6949C25.6515 24.4665 25.3875 25.0416 24.8595 25.4203C24.3315 25.799 23.5287 25.9883 22.451 25.9883H19.3849C19.1639 25.9883 18.9849 25.8092 18.9849 25.5883V18.3883C18.9849 18.1674 19.1639 17.9883 19.3849 17.9883H22.1202C23.2449 17.9883 24.0586 18.1562 24.5613 18.492C25.0675 18.8277 25.3207 19.3654 25.3207 20.1048C25.3207 20.4942 25.2285 20.8264 25.044 21.1015V21.1015Z" fill="white"/>
<path d="M22.2287 21.0853C22.5577 21.0853 22.8073 21.0138 22.9772 20.8709C23.1472 20.728 23.2322 20.5173 23.2322 20.2386C23.2322 19.9636 23.1472 19.7546 22.9772 19.6117C22.8073 19.4652 22.5578 19.392 22.2287 19.392H21.4732C21.2523 19.392 21.0732 19.5711 21.0732 19.792V20.6853C21.0732 20.9062 21.2523 21.0853 21.4732 21.0853L22.2287 21.0853ZM22.2992 24.5843C22.7187 24.5843 23.0333 24.4968 23.243 24.3217C23.4564 24.1467 23.5631 23.8824 23.5631 23.5287C23.5631 23.1822 23.4582 22.9232 23.2485 22.7518C23.0387 22.5767 22.7223 22.4892 22.2992 22.4892H21.4732C21.2523 22.4892 21.0732 22.6682 21.0732 22.8892V24.1843C21.0732 24.4052 21.2523 24.5843 21.4732 24.5843L22.2992 24.5843ZM25.044 21.1015C24.8609 21.3711 24.8882 21.9801 25.1139 22.2153C25.1746 22.2786 25.2309 22.3467 25.2826 22.4196C25.5285 22.7661 25.6515 23.1912 25.6515 23.6949C25.6515 24.4665 25.3875 25.0416 24.8595 25.4203C24.3315 25.799 23.5287 25.9883 22.451 25.9883H19.3849C19.1639 25.9883 18.9849 25.8092 18.9849 25.5883V18.3883C18.9849 18.1674 19.1639 17.9883 19.3849 17.9883H22.1202C23.2449 17.9883 24.0586 18.1562 24.5613 18.492C25.0675 18.8277 25.3207 19.3654 25.3207 20.1048C25.3207 20.4942 25.2285 20.8264 25.044 21.1015V21.1015Z" fill="url(#paint2_linear_297_190)"/>
<defs>
<linearGradient id="paint0_linear_297_190" x1="16" y1="30" x2="16" y2="2" gradientUnits="userSpaceOnUse">
<stop stop-color="#FD5900"/>
<stop offset="1" stop-color="#FFDE00"/>
</linearGradient>
<linearGradient id="paint1_linear_297_190" x1="11.5" y1="17" x2="11.5" y2="5" gradientUnits="userSpaceOnUse">
<stop stop-color="#FD5900"/>
<stop offset="1" stop-color="#FFDE00"/>
</linearGradient>
<linearGradient id="paint2_linear_297_190" x1="22.3178" y1="25.9883" x2="22.3178" y2="17.9883" gradientUnits="userSpaceOnUse">
<stop stop-color="#FD5900"/>
<stop offset="1" stop-color="#FFDE00"/>
</linearGradient>
</defs>
</svg>
