<svg width="128" height="128" viewBox="0 0 128 128" fill="none" xmlns="http://www.w3.org/2000/svg">
<ellipse opacity="0.4" cx="62" cy="62.5" rx="56" ry="55.5" transform="rotate(-180 62 62.5)" fill="url(#paint0_linear_54_719)"/>
<path fill-rule="evenodd" clip-rule="evenodd" d="M120.613 14.4266C118.638 8.94427 112.15 5.75374 106.551 7.46135C104.26 8.08298 102.255 9.47602 100.703 11.2435C92.3593 20.3532 84.0091 29.4562 75.6584 38.5598L75.6499 38.569C68.7827 46.0555 61.915 53.5423 55.0503 61.0337C50.4836 65.6247 50.9433 73.9531 56.0828 77.9375C60.544 81.7871 67.9442 81.3527 71.9232 77.0237C87.3868 60.2098 102.821 43.3735 118.254 26.5371C121.291 23.3765 122.188 18.4859 120.613 14.4266ZM81.4703 44.9613C90.287 35.3202 99.1044 25.6784 108.043 16.1566C109.339 15.1381 111.419 15.565 112.263 16.9655C113.318 18.3436 112.58 20.1935 111.419 21.257C105.338 27.8748 99.2649 34.5011 93.1919 41.1275L93.1893 41.1304L93.1868 41.1332C84.0519 51.1006 74.9166 61.0687 65.7513 71.0097C64.3798 72.7173 61.2373 72.1331 60.6646 69.9986C59.9783 68.3312 61.2435 66.9681 62.3129 65.8159C62.406 65.7157 62.4976 65.617 62.5862 65.5199C68.9093 58.6968 75.1892 51.8297 81.4695 44.9621L81.4703 44.9613ZM57.2254 87.921C54.3393 79.7724 45.0781 74.5597 36.5629 76.4546C29.3966 77.8102 23.4209 83.8617 22.2981 91.0366C21.6425 95.7325 20.3916 100.646 17.0986 104.233C14.4762 107.049 10.7235 108.307 7.12908 109.356C6.20974 109.521 5.96861 110.944 6.48856 111.573C9.36714 115.422 14.0768 117.692 18.8393 118.014C30.3612 118.658 42.4482 115.849 51.4456 108.39C57.5419 103.739 60.006 95.0435 57.2254 87.921ZM30.6626 93.2535C30.9263 90.3476 32.6218 87.6439 35.1161 86.1235C38.9366 83.637 44.4225 84.4458 47.3463 87.921C50.6996 91.486 50.4962 97.5824 46.9243 100.923C40.7226 106.577 32.2677 109.184 23.9786 109.506C27.7991 104.915 29.8488 99.1028 30.6626 93.2535Z" fill="url(#paint1_linear_54_719)" stroke="url(#paint2_linear_54_719)" stroke-width="3"/>
<defs>
<linearGradient id="paint0_linear_54_719" x1="109.367" y1="8.99814" x2="8.30272" y2="114.688" gradientUnits="userSpaceOnUse">
<stop stop-color="#FFC700"/>
<stop offset="0.1987" stop-color="#FF49AB"/>
<stop offset="0.37955" stop-color="#BA49FF"/>
<stop offset="0.53125" stop-color="#5849FF"/>
<stop offset="0.84375" stop-color="#1EFFD6"/>
<stop offset="0.9999" stop-color="#00FFFF"/>
</linearGradient>
<linearGradient id="paint1_linear_54_719" x1="112.5" y1="9" x2="11.5" y2="117.5" gradientUnits="userSpaceOnUse">
<stop stop-color="#FFC700"/>
<stop offset="0.1987" stop-color="#FF49AB"/>
<stop offset="0.37955" stop-color="#BA49FF"/>
<stop offset="0.53125" stop-color="#5849FF"/>
<stop offset="0.84375" stop-color="#1EFFD6"/>
<stop offset="0.9999" stop-color="#00FFFF"/>
</linearGradient>
<linearGradient id="paint2_linear_54_719" x1="112.5" y1="9" x2="11.5" y2="117.5" gradientUnits="userSpaceOnUse">
<stop stop-color="#FFC700"/>
<stop offset="0.1987" stop-color="#FF49AB"/>
<stop offset="0.37955" stop-color="#BA49FF"/>
<stop offset="0.53125" stop-color="#5849FF"/>
<stop offset="0.84375" stop-color="#1EFFD6"/>
<stop offset="0.9999" stop-color="#00FFFF"/>
</linearGradient>
</defs>
</svg>
