<svg width="24" height="24" viewBox="0 0 24 24" fill="none" xmlns="http://www.w3.org/2000/svg">
<path opacity="0.4" d="M17.3729 4.42633H14.1355C13.329 4.43166 12.5633 4.07291 12.0522 3.45026L10.9861 1.97639C10.4836 1.34827 9.7179 0.987839 8.9126 1.00031H6.62392C2.51602 1.00031 1.00001 3.41121 1.00001 7.51072L1 10C0.994891 10.4873 9.49859 6.98671 9.5 6.5L11.9968 5.65368C13 6 19.5 5 17.3729 4.42633Z" fill="url(#paint0_linear_11_173)"/>
<path fill-rule="evenodd" clip-rule="evenodd" d="M21.7153 5.99783C22.0673 6.40932 22.3392 6.88266 22.5174 7.39361C22.8678 8.44376 23.03 9.54734 22.9966 10.6537V16.432C22.9952 16.9188 22.9592 17.4048 22.889 17.8864C22.7553 18.7364 22.4562 19.5521 22.0088 20.2875C21.8031 20.6428 21.5533 20.9707 21.2654 21.2636C19.9621 22.4598 18.2315 23.0824 16.4632 22.9913H7.52367C5.75254 23.0817 4.01908 22.4594 2.71161 21.2636C2.42714 20.9702 2.1807 20.6422 1.97806 20.2875C1.53322 19.5526 1.24056 18.7361 1.11737 17.8864C1.03904 17.4056 0.999787 16.9192 1 16.432V10.6537C0.999809 10.1711 1.02593 9.68886 1.07825 9.20911C1.08925 9.12494 1.10575 9.04213 1.12208 8.96019C1.1493 8.82359 1.17605 8.68936 1.17605 8.55514C1.27534 7.97618 1.45645 7.41422 1.71399 6.88605C2.47687 5.25601 4.04177 4.42635 6.60429 4.42635H17.363C18.7982 4.31535 20.2228 4.74742 21.3535 5.63668C21.4837 5.7471 21.6047 5.86788 21.7153 5.99783ZM16.9385 11.0888L13.7465 19.4196H13.7456C13.4566 20.174 12.3986 20.1985 12.1732 19.456L11.2126 16.2958C11.138 16.0504 10.949 15.8613 10.7036 15.7868L7.5434 14.8261C6.80085 14.6007 6.82539 13.5428 7.57976 13.2528L15.9106 10.0618C16.0543 10.0011 16.2128 9.98465 16.3659 10.0145C16.519 10.0444 16.6597 10.1192 16.77 10.2295C16.8804 10.3397 16.9553 10.4804 16.9853 10.6334C17.0154 10.7865 16.9991 10.945 16.9385 11.0888Z" fill="url(#paint1_linear_11_173)"/>
<defs>
<linearGradient id="paint0_linear_11_173" x1="17.748" y1="1.05735" x2="10.22" y2="14.9194" gradientUnits="userSpaceOnUse">
<stop stop-color="#FE7970"/>
<stop offset="1" stop-color="#DC3282"/>
</linearGradient>
<linearGradient id="paint1_linear_11_173" x1="22.9357" y1="4.5271" x2="4.72511" y2="25.8987" gradientUnits="userSpaceOnUse">
<stop stop-color="#FE7970"/>
<stop offset="1" stop-color="#DC3282"/>
</linearGradient>
</defs>
</svg>
