<svg width="24" height="24" viewBox="0 0 24 24" fill="none" xmlns="http://www.w3.org/2000/svg">
<path opacity="0.4" fill-rule="evenodd" clip-rule="evenodd" d="M12 23C18.0753 23 23 18.0753 23 12C23 5.9247 18.0753 1 12 1C5.9247 1 1 5.9247 1 12C1 18.0753 5.9247 23 12 23ZM12 16.4C13.167 16.4 14.2861 15.9364 15.1113 15.1113C15.9364 14.2861 16.4 13.167 16.4 12C16.4 10.833 15.9364 9.71389 15.1113 8.88873C14.2861 8.06357 13.167 7.6 12 7.6C10.833 7.6 9.71389 8.06357 8.88873 8.88873C8.06357 9.71389 7.6 10.833 7.6 12C7.6 13.167 8.06357 14.2861 8.88873 15.1113C9.71389 15.9364 10.833 16.4 12 16.4Z" fill="url(#paint0_linear_8_1030)"/>
<path d="M4.82689 20.3402L9.52609 15.6399C9.06777 15.3278 8.67223 14.9322 8.36009 14.4739L3.65979 19.172C4.01949 19.59 4.40889 19.9794 4.82579 20.338L4.82689 20.3402ZM3.65979 4.82799L8.36009 9.52719C8.67225 9.06889 9.06779 8.67335 9.52609 8.36119L4.82799 3.65869C4.40999 4.01839 4.02059 4.40889 3.66089 4.82579L3.65979 4.82799ZM14.4728 8.36009L19.172 3.66199C19.5889 4.02059 19.9794 4.40999 20.338 4.82799L15.641 9.52719C15.3285 9.06877 14.9326 8.67323 14.4739 8.36119L14.4728 8.36009ZM20.3391 19.1731L15.6388 14.4728C15.3267 14.9311 14.9311 15.3267 14.4728 15.6388L19.172 20.3402C19.59 19.9805 19.9805 19.59 20.3391 19.1731Z" fill="url(#paint1_linear_8_1030)"/>
<defs>
<linearGradient id="paint0_linear_8_1030" x1="21.3772" y1="-3.60915" x2="1.92311" y2="17.2658" gradientUnits="userSpaceOnUse">
<stop stop-color="#FE7970"/>
<stop offset="1" stop-color="#D92B1A"/>
</linearGradient>
<linearGradient id="paint1_linear_8_1030" x1="19.1087" y1="0.163802" x2="4.35756" y2="15.9903" gradientUnits="userSpaceOnUse">
<stop stop-color="#FE7970"/>
<stop offset="1" stop-color="#D92B1A"/>
</linearGradient>
</defs>
</svg>
