<svg width="24" height="24" viewBox="0 0 24 24" fill="none" xmlns="http://www.w3.org/2000/svg">
<path d="M20.6898 1.33828C20.651 1.23862 20.5829 1.15301 20.4946 1.09265C20.4063 1.03229 20.3018 1 20.1948 1C20.0879 1 19.9834 1.03229 19.8951 1.09265C19.8067 1.15301 19.7387 1.23862 19.6998 1.33828L19.2268 2.54277C19.2003 2.61085 19.1601 2.67274 19.1086 2.7246C19.0571 2.77645 18.9955 2.81715 18.9276 2.84417L17.7276 3.31937C17.6282 3.35895 17.543 3.42744 17.4829 3.51598C17.4229 3.60452 17.3908 3.70904 17.3908 3.81601C17.3908 3.92299 17.4229 4.0275 17.4829 4.11604C17.543 4.20458 17.6282 4.27307 17.7276 4.31266L18.9276 4.78786C18.9956 4.81452 19.0572 4.85497 19.1087 4.90666C19.1602 4.95835 19.2004 5.02014 19.2268 5.08815L19.6998 6.29154C19.878 6.74254 20.5138 6.74254 20.6898 6.29154L21.1628 5.08705C21.1896 5.01907 21.2301 4.95733 21.2817 4.90567C21.3334 4.854 21.3951 4.81353 21.4631 4.78676L22.6632 4.31156C22.7626 4.27197 22.8478 4.20348 22.9079 4.11494C22.9679 4.0264 23 3.92189 23 3.81491C23 3.70794 22.9679 3.60342 22.9079 3.51488C22.8478 3.42634 22.7626 3.35785 22.6632 3.31827L21.4631 2.84307C21.395 2.81618 21.3332 2.77553 21.2816 2.72367C21.2299 2.67181 21.1895 2.60986 21.1628 2.54167L20.6898 1.33828ZM16.4362 7.74353C16.3973 7.64387 16.3293 7.55826 16.2409 7.4979C16.1526 7.43754 16.0481 7.40525 15.9412 7.40525C15.8342 7.40525 15.7297 7.43754 15.6414 7.4979C15.5531 7.55826 15.485 7.64387 15.4462 7.74353L15.2735 8.18243C15.2468 8.25031 15.2065 8.31198 15.155 8.36364C15.1036 8.4153 15.0421 8.45583 14.9743 8.48273L14.5365 8.65653C14.4371 8.69611 14.3519 8.7646 14.2918 8.85314C14.2318 8.94168 14.1997 9.0462 14.1997 9.15317C14.1997 9.26015 14.2318 9.36466 14.2918 9.4532C14.3519 9.54174 14.4371 9.61023 14.5365 9.64982L14.9743 9.82252C15.1118 9.87752 15.2196 9.98531 15.2735 10.1239L15.4462 10.5628C15.6233 11.0138 16.2591 11.0138 16.4362 10.5628L16.6089 10.1228C16.6355 10.0549 16.6758 9.99326 16.7273 9.9416C16.7787 9.88995 16.8403 9.84941 16.9081 9.82252L17.3459 9.64982C17.4452 9.61023 17.5305 9.54174 17.5905 9.4532C17.6505 9.36466 17.6826 9.26015 17.6826 9.15317C17.6826 9.0462 17.6505 8.94168 17.5905 8.85314C17.5305 8.7646 17.4452 8.69611 17.3459 8.65653L16.9081 8.48273C16.8403 8.45583 16.7787 8.4153 16.7273 8.36364C16.6758 8.31198 16.6355 8.25031 16.6089 8.18243L16.4362 7.74243V7.74353Z" fill="url(#paint0_linear_8_666)"/>
<path opacity="0.5" d="M11.9999 23.0004C18.0752 23.0004 22.9998 18.0757 22.9998 12.0005C22.9998 11.4912 22.2364 11.4065 21.9735 11.8432C21.4128 12.7719 20.6481 13.5609 19.7373 14.1504C18.8265 14.7398 17.7935 15.1142 16.7165 15.2453C15.6395 15.3764 14.5469 15.2607 13.5213 14.9069C12.4956 14.5532 11.564 13.9707 10.7968 13.2035C10.0297 12.4364 9.44718 11.5047 9.09343 10.4791C8.73968 9.45351 8.62396 8.36084 8.75505 7.28388C8.88613 6.20693 9.26057 5.17392 9.85002 4.26311C10.4395 3.3523 11.2284 2.58757 12.1572 2.02684C12.5939 1.76284 12.5092 1.00055 11.9999 1.00055C5.92466 1.00055 1 5.92521 1 12.0005C1 18.0757 5.92466 23.0004 11.9999 23.0004Z" fill="url(#paint1_linear_8_666)"/>
<defs>
<linearGradient id="paint0_linear_8_666" x1="14.0725" y1="1.09743" x2="24.2451" y2="10.4157" gradientUnits="userSpaceOnUse">
<stop stop-color="#F9D423"/>
<stop offset="0.515624" stop-color="#FF4E50"/>
<stop offset="0.991304" stop-color="#8A2387"/>
</linearGradient>
<linearGradient id="paint1_linear_8_666" x1="0.682008" y1="1.21703" x2="23.3619" y2="24.5908" gradientUnits="userSpaceOnUse">
<stop stop-color="#F9D423"/>
<stop offset="0.515624" stop-color="#FF4E50"/>
<stop offset="0.991304" stop-color="#8A2387"/>
</linearGradient>
</defs>
</svg>
