<svg width="24" height="24" viewBox="0 0 24 24" fill="none" xmlns="http://www.w3.org/2000/svg">
<path opacity="0.4" d="M1 9.78855C1 5.64585 1 3.57395 2.28752 2.28752C3.57395 1 5.64585 1 9.78855 1H11.9857C16.1284 1 18.2003 1 19.4867 2.28752C20.7742 3.57395 20.7742 5.64585 20.7742 9.78855V14.1828C20.7742 18.3255 20.7742 20.3974 19.4867 21.6838C18.2003 22.9714 16.1284 22.9714 11.9857 22.9714H9.78855C5.64585 22.9714 3.57395 22.9714 2.28752 21.6838C1 20.3974 1 18.3255 1 14.1828V9.78855Z" fill="url(#paint0_linear_8_1008)"/>
<path d="M15.9651 19.4667C16.1574 19.3173 16.332 19.1426 16.6803 18.7943L21.0273 14.4462C21.1328 14.3418 21.0844 14.1606 20.9449 14.1111C20.2647 13.8741 19.6472 13.4857 19.1389 12.9752C18.6284 12.4669 18.24 11.8494 18.003 11.1692C17.9535 11.0297 17.7723 10.9813 17.6679 11.0868L13.3187 15.4338C12.9704 15.7821 12.7957 15.9567 12.6463 16.149C12.4695 16.3764 12.3168 16.6214 12.1937 16.8806C12.0894 17.1004 12.0114 17.3354 11.8554 17.8034L11.6532 18.4076L11.3324 19.3689L11.0325 20.2697C10.9951 20.3826 10.9899 20.5037 11.0173 20.6194C11.0447 20.7352 11.1038 20.841 11.1879 20.9251C11.272 21.0092 11.3778 21.0683 11.4936 21.0957C11.6093 21.1231 11.7304 21.1179 11.8433 21.0805L12.7441 20.7806L13.7054 20.4598L14.3096 20.2576C14.7776 20.1016 15.0126 20.0247 15.2324 19.9193C15.4916 19.7951 15.7388 19.6446 15.9651 19.4667ZM22.3884 13.0851C22.6153 12.8659 22.7963 12.6037 22.9207 12.3139C23.0452 12.024 23.1107 11.7123 23.1135 11.3968C23.1162 11.0814 23.0561 10.7686 22.9367 10.4766C22.8173 10.1846 22.6409 9.91935 22.4179 9.69625C22.1948 9.47315 21.9296 9.2967 21.6377 9.17717C21.3458 9.05765 21.0329 8.99745 20.7175 9.00008C20.4021 9.00272 20.0903 9.06814 19.8004 9.19252C19.5105 9.31691 19.2483 9.49777 19.029 9.72456L18.8895 9.86518C18.823 9.93075 18.7734 10.0115 18.7451 10.1005C18.7168 10.1895 18.7105 10.2841 18.7269 10.376C18.7489 10.4936 18.7873 10.6671 18.8587 10.8726C19.0016 11.2845 19.2718 11.825 19.7804 12.3337C20.1913 12.7477 20.6909 13.0629 21.2415 13.2554C21.4481 13.3268 21.6205 13.3652 21.7381 13.3872C21.83 13.4035 21.9246 13.3972 22.0135 13.3689C22.1025 13.3405 22.1833 13.291 22.2489 13.2246L22.3884 13.0851Z" fill="url(#paint1_linear_8_1008)"/>
<path fill-rule="evenodd" clip-rule="evenodd" d="M3 7.75C3 7.55109 3.07902 7.36032 3.21967 7.21967C3.36032 7.07902 3.55109 7 3.75 7H11.75C11.9489 7 12.1397 7.07902 12.2803 7.21967C12.421 7.36032 12.5 7.55109 12.5 7.75C12.5 7.94891 12.421 8.13968 12.2803 8.28033C12.1397 8.42098 11.9489 8.5 11.75 8.5H3.75C3.55109 8.5 3.36032 8.42098 3.21967 8.28033C3.07902 8.13968 3 7.94891 3 7.75ZM4 11.75C4 11.5511 4.07902 11.3603 4.21967 11.2197C4.36032 11.079 4.55109 11 4.75 11H10.75C10.9489 11 11.1397 11.079 11.2803 11.2197C11.421 11.3603 11.5 11.5511 11.5 11.75C11.5 11.9489 11.421 12.1397 11.2803 12.2803C11.1397 12.421 10.9489 12.5 10.75 12.5H4.75C4.55109 12.5 4.36032 12.421 4.21967 12.2803C4.07902 12.1397 4 11.9489 4 11.75Z" fill="url(#paint2_linear_8_1008)"/>
<defs>
<linearGradient id="paint0_linear_8_1008" x1="4.70767" y1="3.48894" x2="18.5878" y2="16.8319" gradientUnits="userSpaceOnUse">
<stop stop-color="#8F0CFF"/>
<stop offset="0.516064" stop-color="#AA1DFF"/>
<stop offset="1" stop-color="#B826FF"/>
</linearGradient>
<linearGradient id="paint1_linear_8_1008" x1="13.2713" y1="10.3722" x2="20.9129" y2="18.5346" gradientUnits="userSpaceOnUse">
<stop stop-color="#8F0CFF"/>
<stop offset="0.516064" stop-color="#AA1DFF"/>
<stop offset="1" stop-color="#B826FF"/>
</linearGradient>
<linearGradient id="paint2_linear_8_1008" x1="4.78125" y1="7.62305" x2="7.69481" y2="12.9983" gradientUnits="userSpaceOnUse">
<stop stop-color="#8F0CFF"/>
<stop offset="0.516064" stop-color="#AA1DFF"/>
<stop offset="1" stop-color="#B826FF"/>
</linearGradient>
</defs>
</svg>
