<svg width="64" height="64" viewBox="0 0 64 64" fill="none" xmlns="http://www.w3.org/2000/svg">
<g opacity="0.4">
<circle cx="32" cy="32" r="29" fill="#D9D9D9"/>
<circle cx="32" cy="32" r="29" fill="url(#paint0_linear_60_432)"/>
</g>
<path d="M12.2163 15.6451C11.4714 15.096 11.0766 14.2435 11.0102 13.4147C10.9432 12.5792 11.2027 11.6573 11.9125 11.0021C16.239 6.85435 21.8975 4.14917 27.8224 3.30313C36.5277 2.01594 45.7624 4.87398 52.1056 11.0042C53.0472 11.8737 53.1612 13.1446 52.8342 14.1346C52.511 15.113 51.6786 16.0562 50.4321 16.2206C49.6664 16.3813 48.9967 16.1852 48.4652 15.8969C47.9502 15.6177 47.5121 15.2223 47.1943 14.9321C43.0282 11.213 37.4305 9.14622 31.8368 9.22019L31.8241 9.22036L31.8235 8.21807L31.8235 8.21405L31.8241 9.22036C26.2129 9.22387 20.6409 11.4126 16.5083 15.2037C15.4838 16.2967 13.5909 16.7229 12.2163 15.6451Z" fill="url(#paint1_linear_60_432)"/>
<path fill-rule="evenodd" clip-rule="evenodd" d="M18.4178 20.6583C18.8266 19.2784 20.2029 18.4759 21.5039 18.5298C26.2436 18.5171 30.9831 18.5202 35.7193 18.5233L35.8083 18.5234C37.9138 18.5248 40.0186 18.5262 42.1232 18.5262C43.6328 18.4178 45.2871 19.4348 45.5323 21.1438C45.853 22.9362 44.3798 24.7624 42.4964 24.7156C41.2338 24.7543 39.9739 24.7445 38.7367 24.735L38.7274 24.7349C37.5245 24.7257 36.3429 24.7167 35.1687 24.7496C35.0391 24.7532 34.9364 24.8578 34.9379 24.9872L34.9381 24.9983C34.9393 25.1002 34.9409 25.2322 34.9349 25.3661C34.945 28.9589 34.9439 32.5515 34.9428 36.1422L34.9428 36.2391C34.942 38.6597 34.9413 41.0795 34.9438 43.4991C34.9441 43.7391 35.1409 43.9325 35.3815 43.9284L35.4122 43.9279C36.2586 43.9136 37.1853 43.898 38.1152 44.0126C38.2646 44.031 38.4079 44.0826 38.5347 44.1634C38.7943 44.3289 39.0228 44.567 39.1511 44.8884C39.2767 45.203 39.2692 45.5038 39.2257 45.7356C39.1545 46.1151 38.9488 46.4651 38.8506 46.632C38.8436 46.6439 38.8372 46.6548 38.8314 46.6647C38.7661 46.7768 38.7391 46.8253 38.7248 46.8566L38.703 46.9041L38.6765 46.9491C37.8299 48.3853 36.9938 49.8287 36.1556 51.276L36.1546 51.2778C35.2519 52.8364 34.3463 54.4 33.4271 55.955C33.1295 56.5976 32.5183 56.9866 31.858 56.9997C31.1814 57.0131 30.5445 56.6289 30.2424 55.956C29.2421 54.1838 28.2577 52.4038 27.2762 50.6289L27.2745 50.6258C26.5545 49.324 25.8361 48.0249 25.112 46.73C25.0026 46.5469 24.7827 46.1643 24.7077 45.7393C24.6666 45.5066 24.653 45.1766 24.8002 44.8356C24.9589 44.468 25.2503 44.2126 25.5896 44.0659C25.6869 44.0239 25.7902 43.9974 25.8957 43.9874C26.7616 43.9057 27.6205 43.917 28.4184 43.9275L28.4433 43.9278C28.6021 43.9299 28.7318 43.8022 28.732 43.6438C28.7349 41.172 28.7341 38.7004 28.7333 36.2279C28.7321 32.6115 28.731 28.9929 28.7411 25.3735C28.7332 25.2266 28.7354 25.082 28.7371 24.974L28.7373 24.9586C28.7391 24.844 28.6483 24.7507 28.5334 24.7475C27.4422 24.7177 26.343 24.7276 25.2218 24.7379L25.2046 24.7381C23.8714 24.7503 22.5069 24.7628 21.1398 24.7031L21.1375 24.703C20.1212 24.6563 19.2799 24.0641 18.7848 23.327C18.2968 22.6002 18.0654 21.6118 18.4178 20.6583Z" fill="url(#paint2_linear_60_432)"/>
<defs>
<linearGradient id="paint0_linear_60_432" x1="32" y1="61.0001" x2="32" y2="3.00012" gradientUnits="userSpaceOnUse">
<stop stop-color="#A93AFF"/>
<stop offset="1" stop-color="#FF81FF"/>
</linearGradient>
<linearGradient id="paint1_linear_60_432" x1="32" y1="52.9752" x2="32" y2="3.0001" gradientUnits="userSpaceOnUse">
<stop stop-color="#A93AFF"/>
<stop offset="1" stop-color="#FF81FF"/>
</linearGradient>
<linearGradient id="paint2_linear_60_432" x1="32" y1="52.9752" x2="32" y2="3.0001" gradientUnits="userSpaceOnUse">
<stop stop-color="#A93AFF"/>
<stop offset="1" stop-color="#FF81FF"/>
</linearGradient>
</defs>
</svg>
