<svg width="24" height="24" viewBox="0 0 24 24" fill="none" xmlns="http://www.w3.org/2000/svg">
<path opacity="0.5" d="M0.73584 12.35C0.73584 7.94241 0.999951 4.73862 2.61035 3.36884C4.22295 2 6.81455 2 12 2C17.1854 2 19.7781 2 21.3885 3.36884C23 4.73955 23.3247 7.94241 23.3247 12.35C23.3247 16.7576 23 19.9614 21.3885 21.3302C19.7792 22.7 17.1854 22.7 12 22.7C6.81455 22.7 4.22185 22.7 2.61035 21.3302C0.999951 19.9623 0.73584 16.7576 0.73584 12.35Z" fill="url(#paint0_linear_298_305)"/>
<path d="M17.1667 12.5067C17.1667 12.8542 17.0625 13.203 16.8542 13.4824C16.8151 13.5372 16.6328 13.7631 16.4896 13.9101L16.4115 13.9903C15.3177 15.2079 12.5964 17.039 11.2161 17.6258C11.2161 17.6391 10.3958 17.988 10.0052 18H9.95312C9.35417 18 8.79427 17.6538 8.50781 17.0925C8.35156 16.7837 8.20833 15.8882 8.19531 15.8762C8.07813 15.0729 8 13.8433 8 12.4933C8 11.0779 8.07812 9.79344 8.22135 9.00486C8.22135 8.99149 8.36458 8.26974 8.45573 8.02916C8.59896 7.68299 8.85937 7.38761 9.1849 7.20049C9.44531 7.06817 9.71875 7 10.0052 7C10.3047 7.0147 10.8646 7.21385 11.0859 7.30741C12.5443 7.8955 15.3307 9.82017 16.3984 10.9964C16.5807 11.1835 16.776 11.412 16.8281 11.4642C17.0495 11.7582 17.1667 12.1191 17.1667 12.5067Z" fill="url(#paint1_linear_298_305)"/>
<defs>
<linearGradient id="paint0_linear_298_305" x1="21.3772" y1="-0.917783" x2="5.24018" y2="19.4535" gradientUnits="userSpaceOnUse">
<stop stop-color="#FE7970"/>
<stop offset="1" stop-color="#D92B1A"/>
</linearGradient>
<linearGradient id="paint1_linear_298_305" x1="16.4905" y1="4.69542" x2="6.79996" y2="13.3607" gradientUnits="userSpaceOnUse">
<stop stop-color="#FE7970"/>
<stop offset="1" stop-color="#D92B1A"/>
</linearGradient>
</defs>
</svg>
