<svg width="64" height="64" viewBox="0 0 64 64" fill="none" xmlns="http://www.w3.org/2000/svg">
<path d="M35.5049 28.2237C34.9609 28.3196 34.4423 27.9564 34.3464 27.4125L30.4273 5.17655C30.3194 4.56432 30.7903 4.00305 31.412 4.00297L56.8858 4C57.7109 4 58.5022 4.32778 59.0857 4.91122C59.6691 5.49467 59.9969 6.28599 59.9969 7.11111L59.9998 23.0656C59.9999 23.551 59.6515 23.9663 59.1735 24.0506L35.5049 28.2237ZM7.11111 60C6.28599 60 5.49467 59.6722 4.91122 59.0888C4.32777 58.5053 4 57.714 4 56.8889V7.11111C4 6.28599 4.32777 5.49467 4.91122 4.91122C5.49467 4.32778 6.28599 4 7.11111 4H23.0627C23.548 4 23.9632 4.34843 24.0475 4.82634L33.5695 58.8263C33.6775 59.4386 33.2064 60 32.5847 60H7.11111Z" fill="url(#paint0_linear_223_82)"/>
<path opacity="0.4" d="M35.7763 35.511L39.9494 59.1735C40.0336 59.6515 40.449 59.9999 40.9343 59.9998L56.8889 59.9969C57.714 59.9969 58.5053 59.6691 59.0888 59.0857C59.6722 58.5022 60 57.7109 60 56.8858V31.4153C60 30.7936 59.4386 30.3226 58.8263 30.4305L36.5875 34.3525C36.0436 34.4485 35.6804 34.9671 35.7763 35.511Z" fill="url(#paint1_linear_223_82)"/>
<defs>
<linearGradient id="paint0_linear_223_82" x1="58" y1="6" x2="4" y2="59" gradientUnits="userSpaceOnUse">
<stop offset="0.121589" stop-color="#E7824D"/>
<stop offset="0.423435" stop-color="#C448A8"/>
<stop offset="1" stop-color="#9B00D0"/>
</linearGradient>
<linearGradient id="paint1_linear_223_82" x1="38.0424" y1="61.4888" x2="64.0481" y2="37.487" gradientUnits="userSpaceOnUse">
<stop stop-color="#E7824D"/>
<stop offset="0.609382" stop-color="#C448A8"/>
<stop offset="1" stop-color="#9B00D0"/>
</linearGradient>
</defs>
</svg>
