<svg width="128" height="128" viewBox="0 0 128 128" fill="none" xmlns="http://www.w3.org/2000/svg">
<path opacity="0.4" d="M98.1641 122C103.786 122 108.359 117.426 108.359 111.805V16.4219C108.359 10.7888 103.806 6 98.1641 6H30.1953C27.4562 6 24.8773 7.12042 22.9329 9.15418C21.0416 11.1322 20 13.7137 20 16.4219V111.805C20 117.426 24.5738 122 30.1953 122H98.1641ZM37.4479 96.5099C37.8383 95.8329 37.4648 96.4196 48.8841 84.6233C43.304 100.113 43.6059 99.438 43.3333 99.9093C42.3943 101.536 40.318 102.092 38.6914 101.153C37.0692 100.216 36.5107 98.133 37.4479 96.5099ZM26.7969 111.805V95.0523C28.0439 95.2294 29.2679 95.5046 30.4661 95.8772C29.467 100.14 31.3105 104.74 35.293 107.039C38.2206 108.73 41.6005 108.801 44.4706 107.555C45.729 109.946 46.5618 112.523 46.9441 115.203H30.1953C28.3217 115.203 26.7969 113.678 26.7969 111.805Z" fill="url(#paint0_linear_94_72)"/>
<path fill-rule="evenodd" clip-rule="evenodd" d="M37.8261 16.913C37.8261 19.0743 36.0733 20.826 33.913 20.826C31.7517 20.826 30 19.0743 30 16.913C30 14.7517 31.7517 13 33.913 13C36.0733 13 37.8261 14.7517 37.8261 16.913ZM100.435 16.913C100.435 19.0743 98.6818 20.826 96.5215 20.826C94.3602 20.826 92.6085 19.0743 92.6085 16.913C92.6085 14.7517 94.3602 13 96.5215 13C98.6818 13 100.435 14.7517 100.435 16.913ZM96.5297 91.5215H80.8775C78.7162 91.5215 76.9645 93.2732 76.9645 95.4345C76.9645 97.5958 78.7162 99.3475 80.8775 99.3475H96.5297C98.691 99.3475 100.443 97.5958 100.443 95.4345C100.443 93.2732 98.691 91.5215 96.5297 91.5215ZM80.8775 107.174H96.5297C98.691 107.174 100.443 108.926 100.443 111.086C100.443 113.248 98.691 115 96.5297 115H80.8775C78.7162 115 76.9645 113.248 76.9645 111.086C76.9645 108.926 78.7162 107.174 80.8775 107.174Z" fill="url(#paint1_linear_94_72)"/>
<path d="M55.2283 78.7294C67.0042 83.5394 81.4171 79.2604 88.948 68.9746C94.3386 61.9189 96.2774 52.3707 94.1598 43.723C92.2989 35.7159 86.9578 28.648 79.8422 24.699C70.941 19.6363 59.4402 19.7766 50.6697 25.0821C42.4686 29.8996 36.9461 38.8898 36.2124 48.4477L36.0829 48.4461C34.7489 48.4304 33.3111 48.4134 31.9219 48.5566L31.8389 48.5651L31.7575 48.5833C30.4841 48.8658 29.6149 49.8183 29.2348 50.8477C28.862 51.8572 28.895 53.1104 29.6116 54.1461C32.4383 58.9002 35.3039 63.627 38.202 68.3332C38.8757 69.6819 40.2386 70.2511 41.4566 70.2131C42.6589 70.1757 43.9649 69.5416 44.5865 68.2228C47.4703 63.5381 50.321 58.8274 53.1387 54.1039C54.4872 52.1001 53.4029 49.3516 51.2378 48.641L51.1011 48.596L50.9581 48.5792C49.5402 48.4114 48.0757 48.4261 46.7179 48.4461C47.3845 43.4992 49.8931 38.8278 53.7436 35.7722L53.7539 35.764L53.764 35.7557C58.4288 31.9137 64.9636 30.5689 70.7194 32.2794L70.7334 32.2836L70.7475 32.2874C79.0541 34.5745 85.1887 43.2157 84.4867 51.9719L84.4843 52.0015L84.4831 52.031C84.1254 61.2256 76.3324 69.3499 67.3416 70.0166L67.2839 70.021L67.2271 70.0298C65.7399 70.261 64.2373 70.1276 62.6391 69.8376C61.8438 69.6934 61.0474 69.5149 60.2182 69.3291L60.2021 69.3254C59.3771 69.1406 58.519 68.9485 57.6544 68.7937L57.5285 68.7711H57.4008C54.7065 68.7711 53.0492 70.8498 52.5906 72.8911C52.1327 74.9292 52.7366 77.5169 55.1412 78.6905L55.1841 78.7113L55.2283 78.7294Z" fill="url(#paint2_linear_94_72)"/>
<defs>
<linearGradient id="paint0_linear_94_72" x1="64.1795" y1="122" x2="64.1795" y2="6" gradientUnits="userSpaceOnUse">
<stop stop-color="#FDA700"/>
<stop offset="1" stop-color="#FFDE00"/>
</linearGradient>
<linearGradient id="paint1_linear_94_72" x1="65.2213" y1="115" x2="65.2213" y2="13" gradientUnits="userSpaceOnUse">
<stop stop-color="#FF7111"/>
<stop offset="1" stop-color="#FF7111"/>
</linearGradient>
<linearGradient id="paint2_linear_94_72" x1="62" y1="80.6999" x2="62" y2="21" gradientUnits="userSpaceOnUse">
<stop stop-color="#FD5900"/>
<stop offset="1" stop-color="#FFDE00"/>
</linearGradient>
</defs>
</svg>
