<svg width="64" height="64" viewBox="0 0 64 64" fill="none" xmlns="http://www.w3.org/2000/svg">
<rect opacity="0.4" x="4" y="4" width="56" height="56" rx="10" fill="url(#paint0_linear_37_157)"/>
<path d="M9.00762 17.6811C8.90046 16.3253 9.93916 15.0058 11.179 15.018C12.7229 15.0082 14.2689 15.0131 15.8128 15.018C16.9695 14.9961 17.9995 16.1482 17.9973 17.4264C18.0104 21.3168 18.0126 25.2071 17.9973 29.0975C18.0083 29.8639 17.3676 30.5381 16.6765 30.4727C16.027 30.4679 15.4541 29.8057 15.4825 29.0853C15.4686 25.6676 15.4838 22.2479 15.4749 18.8297C15.4735 18.2791 15.0264 17.8338 14.4757 17.8338C13.8312 17.8338 13.1869 17.8338 12.5429 17.8338C11.9912 17.8338 11.5436 18.2808 11.543 18.8325C11.5321 28.6379 11.5459 38.4431 11.5311 48.246C11.5661 48.8937 11.1506 49.5291 10.5777 49.6674C9.80358 49.9293 8.94857 49.1629 9.01854 48.2631C8.99668 38.0691 9.01854 27.8751 9.00762 17.6811Z" fill="url(#paint1_linear_37_157)" stroke="url(#paint2_linear_37_157)" stroke-width="2"/>
<path d="M30.0224 15.7553C30.3569 15.1344 31.0896 14.7948 31.6975 15.1344C32.4562 15.4885 32.6618 16.6721 32.1282 17.3487C28.9546 22.129 25.7832 26.9116 22.6053 31.6895C22.576 31.7336 22.5418 31.7742 22.5114 31.8176C22.3695 32.0206 22.3518 32.3131 22.5197 32.5124C25.5746 37.2226 28.6622 41.9061 31.7106 46.6186C32.465 47.6567 31.8812 49.3909 30.6631 49.5364C28.6972 49.6237 26.7226 49.5558 24.7524 49.5704C23.6349 49.6237 22.5503 48.9737 21.9643 47.9235C21.2827 46.7895 20.5904 45.6628 19.9017 44.5334C19.3722 43.6651 18.0196 44.037 18.02 45.054C18.0204 46.1278 18.02 47.2015 18.0128 48.2752C18.0544 49.1507 17.2496 49.9002 16.482 49.6843C15.8961 49.5558 15.4608 48.9276 15.4871 48.2704C15.4784 44.6322 15.4696 40.9917 15.4893 37.3536C15.463 36.5119 16.1125 35.7067 16.891 35.7504C17.4311 35.7407 17.8859 36.1481 18.1615 36.6332C20.1033 39.8227 22.0408 43.0121 23.976 46.2063C24.1164 46.4014 24.2353 46.7015 24.4813 46.7288C24.5363 46.7349 24.592 46.7289 24.6473 46.7309C25.3724 46.7573 26.0981 46.7607 26.824 46.7585C27.6205 46.7562 28.0991 45.865 27.6625 45.1988C25.2476 41.5141 22.8476 37.8177 20.4357 34.1326C19.6616 32.9902 19.6703 31.2851 20.4663 30.1622C23.6524 25.3598 26.8385 20.5576 30.0224 15.7553Z" fill="url(#paint3_linear_37_157)" stroke="url(#paint4_linear_37_157)" stroke-width="2"/>
<path d="M32.4201 23.2254C32.4799 22.6807 32.9987 22.2472 33.5484 22.2798C35.1028 22.2721 36.6573 22.2779 38.2117 22.276C38.9658 22.251 39.7468 22.5387 40.2329 23.1276C40.6726 23.6359 40.7999 24.311 40.9734 24.9382C42.2695 29.6892 43.579 34.4364 44.8712 39.1894C45.0891 39.7705 44.765 40.5051 44.1383 40.649C43.5558 40.8331 42.8808 40.4649 42.744 39.8684C41.4344 35.1269 40.1441 30.3778 38.8423 25.6325C38.8022 25.4627 38.7569 25.2944 38.7062 25.1278C38.5867 24.7346 38.2096 24.4883 37.7986 24.4909C36.3868 24.4998 34.9763 24.496 33.5657 24.4894C32.8965 24.5431 32.2948 23.8814 32.4201 23.2254Z" fill="url(#paint5_linear_37_157)" stroke="url(#paint6_linear_37_157)" stroke-width="2"/>
<path d="M53.3397 22.4093C54.1304 21.9184 55.2297 22.7489 54.9578 23.6388C53.0543 31.3187 51.1198 38.991 49.2106 46.6689C48.9232 48.0134 47.8683 49.1567 46.5433 49.5498C45.7121 49.8069 44.8327 49.7014 43.9783 49.7205C43.0121 49.6975 42.015 49.826 41.0835 49.5038C39.7875 49.0703 38.6804 47.9847 38.3699 46.6421C36.8733 40.8112 35.3575 34.9841 33.8589 29.1533C33.6429 28.574 33.9457 27.8528 34.561 27.6801C35.207 27.4462 35.9302 27.9314 36.0247 28.5932C37.5272 34.4183 39.0353 40.2415 40.5338 46.0685C40.6639 46.7667 41.3045 47.2431 41.9554 47.4468C42.0229 47.4679 42.093 47.4784 42.1636 47.4816C43.2182 47.5291 44.278 47.4865 45.3341 47.5014C46.0862 47.5358 46.8384 46.9739 47.0081 46.2431C48.873 38.7703 50.7438 31.2995 52.6088 23.8268C52.7418 23.3185 52.8016 22.6683 53.3397 22.4093Z" fill="url(#paint7_linear_37_157)" stroke="url(#paint8_linear_37_157)" stroke-width="2"/>
<defs>
<linearGradient id="paint0_linear_37_157" x1="32" y1="60" x2="32" y2="4" gradientUnits="userSpaceOnUse">
<stop stop-color="#5570FF"/>
<stop offset="1" stop-color="#4DD3FF"/>
</linearGradient>
<linearGradient id="paint1_linear_37_157" x1="13.504" y1="49.7194" x2="13.504" y2="15.0123" gradientUnits="userSpaceOnUse">
<stop stop-color="#5570FF"/>
<stop offset="1" stop-color="#4DD3FF"/>
</linearGradient>
<linearGradient id="paint2_linear_37_157" x1="13.504" y1="49.7194" x2="13.504" y2="15.0123" gradientUnits="userSpaceOnUse">
<stop stop-color="#5570FF"/>
<stop offset="1" stop-color="#4DD3FF"/>
</linearGradient>
<linearGradient id="paint3_linear_37_157" x1="23.952" y1="49.7218" x2="23.952" y2="15" gradientUnits="userSpaceOnUse">
<stop stop-color="#5570FF"/>
<stop offset="1" stop-color="#4DD3FF"/>
</linearGradient>
<linearGradient id="paint4_linear_37_157" x1="23.952" y1="49.7218" x2="23.952" y2="15" gradientUnits="userSpaceOnUse">
<stop stop-color="#5570FF"/>
<stop offset="1" stop-color="#4DD3FF"/>
</linearGradient>
<linearGradient id="paint5_linear_37_157" x1="38.6712" y1="40.6967" x2="38.6712" y2="22.2745" gradientUnits="userSpaceOnUse">
<stop stop-color="#5570FF"/>
<stop offset="1" stop-color="#4DD3FF"/>
</linearGradient>
<linearGradient id="paint6_linear_37_157" x1="38.6712" y1="40.6967" x2="38.6712" y2="22.2745" gradientUnits="userSpaceOnUse">
<stop stop-color="#5570FF"/>
<stop offset="1" stop-color="#4DD3FF"/>
</linearGradient>
<linearGradient id="paint7_linear_37_157" x1="44.3948" y1="49.7271" x2="44.3948" y2="22.2631" gradientUnits="userSpaceOnUse">
<stop stop-color="#5570FF"/>
<stop offset="1" stop-color="#4DD3FF"/>
</linearGradient>
<linearGradient id="paint8_linear_37_157" x1="44.3948" y1="49.7271" x2="44.3948" y2="22.2631" gradientUnits="userSpaceOnUse">
<stop stop-color="#5570FF"/>
<stop offset="1" stop-color="#4DD3FF"/>
</linearGradient>
</defs>
</svg>
