<svg width="24" height="24" viewBox="0 0 24 24" fill="none" xmlns="http://www.w3.org/2000/svg">
<path opacity="0.4" d="M12 1C17.1854 1 19.7781 1 21.3885 2.6104C22.5765 3.7984 22.8889 5.5221 22.9714 8.425L23 9.25H1.02856V8.425C1.11106 5.521 1.42236 3.7995 2.61036 2.6104C4.22296 1 6.81456 1 12 1Z" fill="url(#paint0_linear_83_128)"/>
<path opacity="0.6" d="M1 12C1 17.1854 1 19.7781 2.6104 21.3885C3.7214 22.4995 5.301 22.8449 7.875 22.9516L8.7 23V9.25H1.0286L1.0033 10.075C1 10.6734 1 11.3147 1 12Z" fill="url(#paint1_linear_83_128)"/>
<path fill-rule="evenodd" clip-rule="evenodd" d="M13.1 5.40005C13.1 5.69179 12.9842 5.97158 12.7779 6.17787C12.5716 6.38416 12.2918 6.50005 12 6.50005C11.7083 6.50005 11.4285 6.38416 11.2222 6.17787C11.0159 5.97158 10.9 5.69179 10.9 5.40005C10.9 5.10831 11.0159 4.82852 11.2222 4.62223C11.4285 4.41594 11.7083 4.30005 12 4.30005C12.2918 4.30005 12.5716 4.41594 12.7779 4.62223C12.9842 4.82852 13.1 5.10831 13.1 5.40005ZM9.80005 5.40005C9.80005 5.69179 9.68416 5.97158 9.47787 6.17787C9.27158 6.38416 8.99179 6.50005 8.70005 6.50005C8.40831 6.50005 8.12852 6.38416 7.92223 6.17787C7.71594 5.97158 7.60005 5.69179 7.60005 5.40005C7.60005 5.10831 7.71594 4.82852 7.92223 4.62223C8.12852 4.41594 8.40831 4.30005 8.70005 4.30005C8.99179 4.30005 9.27158 4.41594 9.47787 4.62223C9.68416 4.82852 9.80005 5.10831 9.80005 5.40005ZM6.50005 5.40005C6.50005 5.69179 6.38416 5.97158 6.17787 6.17787C5.97158 6.38416 5.69179 6.50005 5.40005 6.50005C5.10831 6.50005 4.82852 6.38416 4.62223 6.17787C4.41594 5.97158 4.30005 5.69179 4.30005 5.40005C4.30005 5.10831 4.41594 4.82852 4.62223 4.62223C4.82852 4.41594 5.10831 4.30005 5.40005 4.30005C5.69179 4.30005 5.97158 4.41594 6.17787 4.62223C6.38416 4.82852 6.50005 5.10831 6.50005 5.40005ZM23 12.0001C23 17.1855 23 19.7782 21.3885 21.3886C19.7792 23.0001 17.1854 23.0001 12 23.0001C11.0991 23.0001 9.45235 23.0001 8.69995 22.9913V9.25006H23L22.9967 10.0751C23 10.6735 23 11.3148 23 12.0001ZM16.8036 11.0206C16.9214 11.0096 17.023 11.1027 17.0223 11.2211L17.0083 13.3711C17.0071 13.5615 17.2476 13.6457 17.3655 13.4961L19.1972 11.17C19.2445 11.1099 19.3219 11.0821 19.3966 11.0982L20.7854 11.3987C20.9316 11.4303 20.9926 11.6053 20.8978 11.721L18.8416 14.2287C18.7826 14.3007 18.781 14.4039 18.8378 14.4776L20.9091 17.1661C20.9946 17.277 20.9426 17.4392 20.8085 17.4796L19.4301 17.8955C19.3485 17.9202 19.2601 17.8903 19.2102 17.8211L17.3667 15.2674C17.2531 15.1101 17.0045 15.1904 17.0045 15.3845V17.4558C17.0045 17.5558 16.9307 17.6405 16.8316 17.654L15.5157 17.8339C15.3956 17.8503 15.2886 17.7569 15.2886 17.6357V11.3449C15.2886 11.2416 15.3672 11.1554 15.4699 11.1457L16.8036 11.0206ZM12.8111 12.8368C12.8114 12.8368 12.8117 12.837 12.8117 12.8374C12.8117 12.8377 12.8119 12.838 12.8123 12.8379C12.8315 12.8363 12.8519 12.8444 12.8691 12.8547L14.1383 13.6426C14.144 13.6462 14.1506 13.6481 14.1574 13.6481C14.1632 13.6481 14.1689 13.6467 14.174 13.6441C14.2485 13.606 14.3238 13.573 14.4006 13.5427C14.5275 13.4926 14.6616 13.5902 14.6616 13.7266V13.9836C14.6616 14.0639 14.6133 14.1357 14.5411 14.1706C13.6529 14.5985 13.0402 15.4706 13.0402 16.4768C13.0402 17.9059 14.2739 19.0531 15.7864 19.0531C16.7323 19.0531 17.5667 18.6056 18.0588 17.9181C18.1446 17.7982 18.3277 17.787 18.4136 17.9068C18.695 18.2992 18.8923 18.5812 18.8951 18.5852L18.8953 18.5855C18.9081 18.6037 18.9309 18.6136 18.9526 18.6032L18.9558 18.6021C19.0436 18.5712 19.1411 18.605 19.191 18.6836L19.5629 19.2697C19.5838 19.3024 19.5723 19.3492 19.5437 19.3774L18.876 20.008C18.8466 20.0368 18.797 20.048 18.7624 20.0272L17.6038 19.297C17.542 19.2581 17.464 19.2563 17.3991 19.29C17.2039 19.3913 16.9939 19.4799 16.7782 19.5443C16.7079 19.5653 16.6523 19.6203 16.6343 19.6914L16.3213 20.9282C16.3117 20.9655 16.2657 21 16.2256 21H15.2719C15.2307 21 15.204 20.9674 15.1953 20.9282L14.9171 19.6955C14.9006 19.6222 14.8441 19.5649 14.7721 19.5433C14.5676 19.4818 14.3747 19.3998 14.1889 19.3043C14.1268 19.2725 14.0528 19.2731 13.9924 19.308L12.8117 19.9913C12.777 20.0121 12.7252 19.9979 12.6968 19.9721L12.0303 19.3415C12.0002 19.3139 11.9884 19.2669 12.0111 19.2338L12.7563 18.1688C12.8016 18.1041 12.804 18.019 12.7662 17.9495C12.6635 17.7606 12.5815 17.5603 12.5197 17.3517C12.4985 17.28 12.4416 17.2237 12.3687 17.2069L11.0766 16.9088C11.0377 16.8996 11 16.8571 11 16.8191V15.9192C11 15.88 11.0362 15.8567 11.0766 15.8462L12.4098 15.5809C12.4813 15.5667 12.5389 15.5146 12.563 15.4458C12.6235 15.2728 12.696 15.105 12.7851 14.9465C12.823 14.879 12.8234 14.7959 12.7817 14.7306L12.0674 13.6122C12.0465 13.5793 12.0581 13.5327 12.0865 13.5045L12.7489 12.8611C12.7524 12.8577 12.7564 12.8547 12.7607 12.8525C12.7751 12.8452 12.7945 12.837 12.8111 12.8368Z" fill="url(#paint2_linear_83_128)"/>
<defs>
<linearGradient id="paint0_linear_83_128" x1="12.0143" y1="9.25" x2="12.0143" y2="1" gradientUnits="userSpaceOnUse">
<stop stop-color="#5570FF"/>
<stop offset="1" stop-color="#4DD3FF"/>
</linearGradient>
<linearGradient id="paint1_linear_83_128" x1="4.85" y1="23" x2="4.85" y2="9.25" gradientUnits="userSpaceOnUse">
<stop stop-color="#5570FF"/>
<stop offset="1" stop-color="#4DD3FF"/>
</linearGradient>
<linearGradient id="paint2_linear_83_128" x1="13.65" y1="23.0001" x2="13.65" y2="4.30005" gradientUnits="userSpaceOnUse">
<stop stop-color="#5570FF"/>
<stop offset="1" stop-color="#4DD3FF"/>
</linearGradient>
</defs>
</svg>
