<svg width="24" height="24" viewBox="0 0 24 24" fill="none" xmlns="http://www.w3.org/2000/svg">
<path opacity="0.4" d="M4 6C4 5.44772 3.55228 5 3 5C2.44772 5 2 5.44772 2 6V19C2 20.1 2.9 21 4 21H17C17.5523 21 18 20.5523 18 20C18 19.4477 17.5523 19 17 19H5C4.44772 19 4 18.5523 4 18V6ZM19 2H7C5.9 2 5 2.9 5 4V16C5 17.1 5.9 18 7 18H19C20.1 18 21 17.1 21 16V4C21 2.9 20.1 2 19 2Z" fill="url(#paint0_linear_54_1477)"/>
<path fill-rule="evenodd" clip-rule="evenodd" d="M13.1884 8.95995C13.5083 8.6646 13.824 8.37316 14.0639 8.032C14.6399 7.216 14.3159 5.704 12.6959 5.704C12.0792 5.704 11.6426 5.97815 11.343 6.34008C11.0145 6.73702 10.4877 7.01022 10.0121 6.8123C9.58414 6.63428 9.35866 6.14763 9.59662 5.74994C10.1935 4.75212 11.2585 4 12.6839 4C14.1599 4 15.1799 4.672 15.6959 5.512C16.1399 6.232 16.3919 7.588 15.7079 8.596C15.3173 9.17252 14.9364 9.54089 14.6047 9.86156C14.2944 10.1616 14.0273 10.42 13.8359 10.768C13.7514 10.9239 13.6951 11.0517 13.6611 11.2845C13.5895 11.7768 13.2165 12.184 12.7189 12.184C12.2129 12.184 11.771 11.7658 11.8125 11.2613C11.8413 10.9127 11.9165 10.5389 12.1079 10.192C12.3813 9.70514 12.7882 9.32948 13.1884 8.95995ZM11.4359 14.74C11.4359 14.032 11.9999 13.492 12.6959 13.492C13.4039 13.492 13.9439 14.032 13.9439 14.74C13.9439 15.436 13.4159 16 12.6959 16C11.9999 16 11.4359 15.436 11.4359 14.74Z" fill="url(#paint1_linear_54_1477)"/>
<path d="M14.0639 8.032L13.6554 7.74366L13.6548 7.74441L14.0639 8.032ZM13.1884 8.95995L13.5276 9.32732L13.5276 9.32732L13.1884 8.95995ZM11.343 6.34008L10.9578 6.02123L10.9578 6.02133L11.343 6.34008ZM10.0121 6.8123L10.2041 6.35066L10.2041 6.35065L10.0121 6.8123ZM9.59662 5.74994L10.0257 6.00666L10.0257 6.00661L9.59662 5.74994ZM15.6959 5.512L15.2698 5.77371L15.2703 5.77444L15.6959 5.512ZM15.7079 8.596L15.2941 8.31525L15.2939 8.31558L15.7079 8.596ZM14.6047 9.86156L14.2572 9.50213L14.2572 9.50213L14.6047 9.86156ZM13.8359 10.768L13.3977 10.527L13.3963 10.5298L13.8359 10.768ZM13.6611 11.2845L13.1664 11.2123L13.1663 11.2125L13.6611 11.2845ZM11.8125 11.2613L11.3142 11.2202L11.3142 11.2203L11.8125 11.2613ZM12.1079 10.192L11.6719 9.94715L11.6701 9.95046L12.1079 10.192ZM13.6548 7.74441C13.451 8.03431 13.1769 8.29009 12.8492 8.59258L13.5276 9.32732C13.8398 9.03911 14.1969 8.71201 14.4729 8.31959L13.6548 7.74441ZM12.6959 6.204C13.3262 6.204 13.6214 6.48133 13.7458 6.76361C13.887 7.08402 13.8415 7.47995 13.6554 7.74366L14.4723 8.32034C14.8622 7.76805 14.9427 6.99998 14.6609 6.36039C14.3623 5.68267 13.6855 5.204 12.6959 5.204V6.204ZM11.7281 6.65894C11.9478 6.39362 12.2502 6.204 12.6959 6.204V5.204C11.9082 5.204 11.3375 5.56268 10.9578 6.02123L11.7281 6.65894ZM9.81997 7.27393C10.5947 7.59627 11.3398 7.12828 11.7282 6.65883L10.9578 6.02133C10.6893 6.34576 10.3808 6.42418 10.2041 6.35066L9.81997 7.27393ZM9.16756 5.49321C8.73577 6.21484 9.18202 7.00853 9.82001 7.27394L10.2041 6.35065C10.1086 6.31092 10.0446 6.23986 10.0166 6.17233C9.99133 6.11114 9.99519 6.05761 10.0257 6.00666L9.16756 5.49321ZM12.6839 3.5C11.0628 3.5 9.84404 4.36233 9.16753 5.49326L10.0257 6.00661C10.543 5.14192 11.4542 4.5 12.6839 4.5V3.5ZM16.1219 5.25029C15.5096 4.25351 14.3232 3.5 12.6839 3.5V4.5C13.9966 4.5 14.8501 5.09049 15.2698 5.77371L16.1219 5.25029ZM16.1216 8.87675C16.5398 8.26047 16.6618 7.55296 16.624 6.91632C16.5863 6.28338 16.3891 5.68364 16.1214 5.24956L15.2703 5.77444C15.4466 6.06036 15.5974 6.49862 15.6257 6.97568C15.6539 7.44904 15.5599 7.92353 15.2941 8.31525L16.1216 8.87675ZM14.9523 10.221C15.2867 9.89765 15.7001 9.49893 16.1218 8.87642L15.2939 8.31558C14.9345 8.84612 14.586 9.18412 14.2572 9.50213L14.9523 10.221ZM14.274 11.009C14.4231 10.7378 14.633 10.5298 14.9523 10.221L14.2572 9.50213C13.9559 9.79347 13.6315 10.1021 13.3977 10.527L14.274 11.009ZM14.1559 11.3567C14.1792 11.1967 14.2109 11.1254 14.2754 11.0062L13.3963 10.5298C13.2919 10.7224 13.211 10.9066 13.1664 11.2123L14.1559 11.3567ZM12.7189 12.684C13.5232 12.684 14.0576 12.032 14.1559 11.3565L13.1663 11.2125C13.1214 11.5216 12.9099 11.684 12.7189 11.684V12.684ZM11.3142 11.2203C11.2453 12.0582 11.9645 12.684 12.7189 12.684V11.684C12.4612 11.684 12.2968 11.4734 12.3109 11.3023L11.3142 11.2203ZM11.6701 9.95046C11.4321 10.3818 11.3463 10.8326 11.3142 11.2202L12.3108 11.3025C12.3364 10.9929 12.4008 10.6961 12.5456 10.4335L11.6701 9.95046ZM12.8492 8.59258C12.4588 8.95311 11.9904 9.38008 11.6719 9.94715L12.5438 10.4368C12.7722 10.0302 13.1176 9.70584 13.5276 9.32732L12.8492 8.59258ZM12.6959 12.992C11.7332 12.992 10.9359 13.7465 10.9359 14.74H11.9359C11.9359 14.3175 12.2666 13.992 12.6959 13.992V12.992ZM14.4439 14.74C14.4439 13.7559 13.68 12.992 12.6959 12.992V13.992C13.1278 13.992 13.4439 14.3081 13.4439 14.74H14.4439ZM12.6959 16.5C13.7045 16.5 14.4439 15.6995 14.4439 14.74H13.4439C13.4439 15.1725 13.1273 15.5 12.6959 15.5V16.5ZM10.9359 14.74C10.9359 15.7121 11.7238 16.5 12.6959 16.5V15.5C12.276 15.5 11.9359 15.1599 11.9359 14.74H10.9359Z" fill="url(#paint2_linear_54_1477)"/>
<defs>
<linearGradient id="paint0_linear_54_1477" x1="11.5" y1="2" x2="11.5" y2="21" gradientUnits="userSpaceOnUse">
<stop stop-color="#DC18FC"/>
<stop offset="1" stop-color="#8E1EFF"/>
</linearGradient>
<linearGradient id="paint1_linear_54_1477" x1="12.8153" y1="4" x2="12.8153" y2="16" gradientUnits="userSpaceOnUse">
<stop stop-color="#DC18FC"/>
<stop offset="1" stop-color="#8E1EFF"/>
</linearGradient>
<linearGradient id="paint2_linear_54_1477" x1="12.8153" y1="4" x2="12.8153" y2="16" gradientUnits="userSpaceOnUse">
<stop stop-color="#DC18FC"/>
<stop offset="1" stop-color="#8E1EFF"/>
</linearGradient>
</defs>
</svg>
