<svg width="64" height="64" viewBox="0 0 64 64" fill="none" xmlns="http://www.w3.org/2000/svg">
<rect opacity="0.4" x="4" y="4" width="56" height="56" rx="8" fill="url(#paint0_linear_216_222)"/>
<path fill-rule="evenodd" clip-rule="evenodd" d="M26.4436 12.6583C28.0883 10.6575 30.0852 9.02157 32.6995 9.00016C35.3178 8.981 37.2789 10.6355 38.7945 12.6472C39.7183 13.8733 40.558 15.2777 41.4295 16.7352C41.9879 17.6691 42.5593 18.6248 43.1742 19.5692C46.3117 24.3885 50.2419 28.8616 58.9031 28.8947V28.8947C58.9567 28.8945 59.0001 28.9383 59.0001 28.9918V31.5997C59.0001 31.6754 58.9389 31.7368 58.8632 31.7371V31.7371C54.6071 31.764 51.5716 33.0492 49.1249 34.9895C46.652 36.9505 44.8 39.6356 43.2186 42.4112C42.6006 43.496 42.0268 44.5906 41.4675 45.6577C40.5957 47.3208 39.7591 48.917 38.8445 50.3047C38.0938 51.4436 37.2859 52.4534 36.2855 53.2189C35.2851 53.9845 34.0499 54.4834 32.6995 54.4735C30.0026 54.4514 28.0207 52.5685 26.388 50.2991C25.4024 48.9291 24.477 47.353 23.5118 45.7089C22.8782 44.6297 22.2273 43.521 21.5309 42.4223C18.0351 36.9063 13.7095 31.7913 5.13789 31.7371V31.7371C5.06178 31.737 5.0001 31.6753 5.0001 31.5992V28.9922C5.0001 28.9386 5.04353 28.8945 5.09712 28.8947V28.8947C13.7682 28.8615 18.0919 24.3741 21.5809 19.5581C22.2737 18.6019 22.922 17.6354 23.5545 16.6925C24.5205 15.2524 25.4496 13.8674 26.4436 12.6583ZM23.5656 21.6565C23.4436 21.8209 23.6663 22.0351 23.8219 21.9022C24.7853 21.0794 25.7198 20.2811 26.7267 19.5806C28.3963 18.4189 30.3325 17.5441 32.6995 17.5267C35.0702 17.5094 36.9637 18.3872 38.517 19.564C39.4699 20.2859 40.3264 21.1069 41.2045 21.9486C41.2538 21.9958 41.3312 21.9296 41.2927 21.8732C41.1216 21.6229 40.9551 21.3728 40.7929 21.1235C40.1049 20.0669 39.478 19.0233 38.8882 18.0416C38.0476 16.6425 37.2826 15.369 36.5241 14.3624C35.2336 12.6494 34.1812 11.8316 32.7217 11.8423C31.2584 11.8543 30.0631 12.7266 28.6362 14.4623C27.8039 15.4749 26.952 16.7415 26.0202 18.1271C25.3546 19.1168 24.6483 20.1672 23.879 21.229C23.7759 21.3713 23.6714 21.5139 23.5656 21.6565ZM23.929 40.8957C21.929 37.7401 19.4138 34.4697 15.9569 32.1413C15.1805 31.6184 15.3255 30.276 16.2056 29.9568C19.3364 28.8214 21.6863 27.2835 23.607 25.77C24.3886 25.154 25.1028 24.5488 25.772 23.9816C26.6986 23.1963 27.5391 22.484 28.3531 21.9176C29.755 20.9421 31.011 20.3814 32.7217 20.3688C34.4288 20.3563 35.5487 20.885 36.8017 21.8343C37.5341 22.3892 38.2814 23.1 39.1138 23.8918C39.7054 24.4545 40.34 25.0581 41.0427 25.6756C42.7861 27.2076 44.9705 28.7708 47.9837 29.926C48.8498 30.2581 48.9907 31.584 48.2302 32.1152C47.9315 32.3238 47.6414 32.5401 47.3597 32.7635C44.445 35.075 42.4099 38.0852 40.7484 41.0012C40.0632 42.204 39.438 43.3951 38.8484 44.5185C38.0086 46.1188 37.2408 47.5817 36.4742 48.7448C35.8218 49.7347 35.1729 50.4955 34.5591 50.9652C33.9453 51.435 33.4102 51.6364 32.7217 51.6314C31.3409 51.62 30.1306 50.6394 28.6917 48.6394C27.8505 47.4701 26.9938 46.0135 26.0597 44.4251C25.396 43.2967 24.6931 42.1015 23.929 40.8957Z" fill="url(#paint1_linear_216_222)" stroke="url(#paint2_linear_216_222)" stroke-width="2"/>
<defs>
<linearGradient id="paint0_linear_216_222" x1="4" y1="32" x2="60" y2="32" gradientUnits="userSpaceOnUse">
<stop stop-color="#02AA93"/>
<stop offset="1" stop-color="#67FF80"/>
</linearGradient>
<linearGradient id="paint1_linear_216_222" x1="32" y1="54.4737" x2="32" y2="9" gradientUnits="userSpaceOnUse">
<stop stop-color="#00B59C"/>
<stop offset="1" stop-color="#9CFFAC"/>
</linearGradient>
<linearGradient id="paint2_linear_216_222" x1="32" y1="54.4737" x2="32" y2="9" gradientUnits="userSpaceOnUse">
<stop stop-color="#00B59C"/>
<stop offset="1" stop-color="#9CFFAC"/>
</linearGradient>
</defs>
</svg>
