<svg width="24" height="24" viewBox="0 0 24 24" fill="none" xmlns="http://www.w3.org/2000/svg">
<path d="M4.39295 14.0767L16.9478 6.3415C17.229 6.16916 17.589 6.18566 17.8523 6.38917C19.0451 7.30771 20.1107 8.2391 20.8217 9.02197C20.8217 9.02197 21.4343 9.649 21.6993 10.0469C22.1274 10.5895 22.3333 11.2991 22.3333 11.9884C22.3333 12.7622 22.1077 13.4937 21.6581 14.0786C21.556 14.1831 21.1674 14.6432 20.8002 15.0191C18.6582 17.3586 13.0667 21.2234 10.1259 22.395C9.69787 22.5838 8.55522 22.978 7.9624 23C7.39107 23 6.83944 22.8753 6.30931 22.6021C5.65739 22.2263 5.14696 21.6433 4.8604 20.9521C4.67592 20.4717 4.39116 19.0306 4.39116 18.9885C4.20668 17.9599 4.06878 16.5152 4.00072 14.8284C3.98818 14.5259 4.14042 14.2326 4.39295 14.0767" fill="url(#paint0_linear_18_102)"/>
<path opacity="0.4" d="M5.23261 9.91051C4.67919 10.2534 3.98249 9.81517 4.00936 9.15697C4.07563 7.61323 4.19025 6.25282 4.32995 5.24077C4.35144 5.21877 4.63621 3.42385 4.96396 2.81699C5.53529 1.68943 6.65645 1.00006 7.86179 1.00006H7.96208C8.73937 1.02023 10.3925 1.7096 10.3925 1.75176C11.2253 2.09828 12.3124 2.68498 13.4819 3.39085C14.0085 3.70986 14.021 4.49274 13.4945 4.81725L5.23261 9.91051Z" fill="url(#paint1_linear_18_102)"/>
<defs>
<linearGradient id="paint0_linear_18_102" x1="22.3333" y1="14.6117" x2="4" y2="14.6117" gradientUnits="userSpaceOnUse">
<stop stop-color="#02AA93"/>
<stop offset="1" stop-color="#67FF80"/>
</linearGradient>
<linearGradient id="paint1_linear_18_102" x1="13.8832" y1="5.51511" x2="4.00861" y2="5.51511" gradientUnits="userSpaceOnUse">
<stop stop-color="#02AA93"/>
<stop offset="1" stop-color="#67FF80"/>
</linearGradient>
</defs>
</svg>
