<svg width="128" height="128" viewBox="0 0 128 128" fill="none" xmlns="http://www.w3.org/2000/svg">
<path fill-rule="evenodd" clip-rule="evenodd" d="M58.6039 86.2923C58.6025 85.5803 58.9741 84.9246 59.5887 84.5651C63.8047 82.0993 80.5943 72.2769 91.7434 65.7165C93.057 64.9435 93.0504 63.0479 91.7363 62.2758C82.2797 56.7198 73.7835 51.7743 64.9037 46.6054C61.0258 44.3481 57.0744 42.0481 52.9381 39.6362C51.6098 38.8615 49.9403 39.8137 49.9316 41.3514C49.8835 49.9468 49.8759 58.0045 49.868 66.3034V66.3055C49.8643 70.2029 49.8605 74.1535 49.8525 78.238C49.8511 78.9489 49.4736 79.6082 48.8508 79.9509C47.361 80.7707 45.7153 81.5904 44.0699 82.41C43.1543 82.866 42.2386 83.3222 41.35 83.7782C39.9798 84.4813 38.2973 83.5005 38.2943 81.9605C38.2536 61.7138 38.2534 41.4671 38.2942 21.2204C38.2973 19.6779 39.972 18.7201 41.303 19.4996C57.075 28.7359 72.559 37.9147 88.1129 47.1349L88.1149 47.1361C96.6181 52.1767 105.142 57.2297 113.746 62.3112C115.042 63.077 115.06 64.9471 113.778 65.737L61.6724 97.8425C60.3414 98.6626 58.6263 97.7071 58.6232 96.1437L58.6039 86.2923ZM71.0282 65.9396L66.3144 68.6611L61.6006 71.3827C60.2673 72.1525 58.6006 71.1902 58.6006 69.6506V64.2076V58.7645C58.6006 57.2249 60.2673 56.2627 61.6006 57.0325L66.3144 59.754L71.0282 62.4755C72.3615 63.2453 72.3615 65.1698 71.0282 65.9396Z" fill="url(#paint0_linear_54_1063)"/>
<path opacity="0.4" d="M18 64.0001V9.48278C18 7.93907 19.6867 6.95641 21.0565 7.66814C21.9439 8.12918 22.8565 8.59029 23.7692 9.05138L23.7757 9.05468C25.4132 9.88196 27.0505 10.7092 28.5417 11.5357C29.1632 11.8802 29.5398 12.5402 29.5406 13.2508C29.5509 22.3733 29.554 31.3432 29.5571 40.2544L29.5571 40.3307L29.5571 40.4153C29.5639 59.6755 29.5706 78.664 29.6482 98.3289C29.6542 99.8578 31.3039 100.815 32.6339 100.061L33.2935 99.6871L33.408 99.6222C37.9789 97.031 42.6345 94.3918 47.1878 91.8018C48.4556 91.0807 50.0191 91.9166 50.0374 93.3751C50.0605 95.2043 50.0125 97.1844 49.9661 99.0974L49.966 99.1035C49.9327 100.478 49.9003 101.817 49.8955 103.042C49.8927 103.764 49.5147 104.436 48.8888 104.797C44.1588 107.525 39.1607 110.254 34.1597 112.984C29.7194 115.408 25.277 117.834 21.0179 120.261C19.6767 121.025 18.0008 120.061 18.0008 118.517L18 64.0001Z" fill="url(#paint1_linear_54_1063)"/>
<defs>
<linearGradient id="paint0_linear_54_1063" x1="26.998" y1="63.9803" x2="98.2326" y2="63.9803" gradientUnits="userSpaceOnUse">
<stop stop-color="#5570FF"/>
<stop offset="1" stop-color="#4DD3FF"/>
</linearGradient>
<linearGradient id="paint1_linear_54_1063" x1="26.998" y1="63.9803" x2="98.2326" y2="63.9803" gradientUnits="userSpaceOnUse">
<stop stop-color="#5570FF"/>
<stop offset="1" stop-color="#4DD3FF"/>
</linearGradient>
</defs>
</svg>
