<svg width="128" height="128" viewBox="0 0 128 128" fill="none" xmlns="http://www.w3.org/2000/svg">
<path opacity="0.4" fill-rule="evenodd" clip-rule="evenodd" d="M113.455 14.9732C112.761 12.4667 109.535 11.3405 107.127 12.394C95.3794 15.9646 83.6294 19.5319 71.8789 23.0993C53.6466 28.6346 35.413 34.1702 17.1852 39.7193C11.9449 41.2232 8.04744 46.0693 8.03972 51.2495C8.00316 59.9223 8.00937 68.5951 8.01557 77.2668C8.02115 85.0711 8.02672 92.8745 8.00113 100.676C7.99342 103.11 7.99342 105.639 9.1202 107.891C11.1114 112.294 16.0352 115.323 21.1366 115.236C49.6997 115.258 78.2705 115.251 106.834 115.236C112.221 115.353 117.415 111.967 119.182 107.179C120.005 105.25 120.001 103.168 119.997 101.117C119.996 100.727 119.995 100.337 120 99.9497C119.982 92.2774 119.984 84.6034 119.987 76.9293C119.99 68.6158 119.993 60.3023 119.969 51.9906C120.042 47.0568 116.459 42.4973 111.687 40.7142C111.537 40.6581 111.404 40.5665 111.281 40.4639C110.934 40.1743 110.487 40 110 40H108.73C108.326 39.9537 107.917 39.9276 107.505 39.9226C100.386 39.8846 93.2677 39.8904 86.15 39.8963C79.6712 39.9015 73.1933 39.9068 66.7172 39.8791C66.4938 39.884 66.2658 39.8851 66.0355 39.8861C65.3702 39.8893 64.6849 39.8925 64.0295 39.9882C63.9778 39.9958 63.9256 40 63.8734 40H52.1958C51.0457 40 50.8049 38.3769 51.9054 38.0429C56.8426 36.5443 61.7796 35.0454 66.7165 33.5465C81.1519 29.1639 95.5865 24.7816 110.021 20.4078C112.529 19.8919 114.32 17.3272 113.455 14.9732Z" fill="url(#paint0_linear_69_509)"/>
<path d="M82.5625 65.0869C82.5625 65.2744 82.7187 65.915 83.0312 67.0088C83.3438 67.915 83.7344 68.6884 84.2031 69.3291C84.6719 69.9697 85.3125 70.5009 86.125 70.9228C86.9375 71.3447 87.625 71.6572 88.1874 71.8603C88.7498 72.0634 89.6095 72.3212 90.7658 72.6337C100.922 75.4775 106 80.665 106 88.1962C106 92.7588 104.351 96.5478 101.054 99.5635C97.7575 102.579 93.7813 104.087 89.1252 104.087C87.2813 104.087 85.539 103.798 83.8984 103.219C82.2578 102.641 80.8282 101.931 79.6094 101.087C78.3906 100.243 77.1875 99.0791 76 97.5947C74.8125 96.1104 73.8281 94.7431 73.0469 93.4932C72.2656 92.2431 71.4297 90.626 70.5391 88.6416C69.6484 86.6572 68.9687 85.0478 68.5 83.8134C68.0313 82.5791 67.4141 80.915 66.6484 78.8213C65.8828 76.7275 65.3281 75.2431 64.9844 74.3681C63.9844 71.8369 63.0234 69.7509 62.1015 68.1103C61.1797 66.4697 60.0313 64.9619 58.6562 63.5869C57.2812 62.2118 55.6562 61.2118 53.7813 60.5868C51.9062 59.9618 49.6875 59.6494 47.125 59.6494C44.125 59.6494 41.2656 60.5165 38.5469 62.2509C35.8281 63.9853 33.6719 66.2431 32.0781 69.0244C30.4844 71.8056 29.6875 74.6963 29.6875 77.6963C29.6875 82.6963 31.3516 87.0634 34.6797 90.7978C38.0078 94.5322 42.125 96.3994 47.0313 96.3994C52.5625 96.3994 56.5938 94.915 59.125 91.9463C60.5022 90.397 61.5987 88.9444 62.4146 87.5886C62.6859 87.1378 63.3591 87.1302 63.6136 87.5908L66.7958 93.3491C66.8949 93.5285 66.9056 93.7444 66.8175 93.9294C66.3592 94.8908 65.7237 95.8775 64.9111 96.8895C64.8995 96.904 64.9006 96.925 64.9137 96.9381C64.9271 96.9515 64.9279 96.9731 64.9154 96.9874C60.822 101.721 54.7668 104.087 46.75 104.087C42.1563 104.087 37.9453 102.853 34.1172 100.384C30.2891 97.9151 27.3125 94.6728 25.1875 90.6572C23.0625 86.6416 22 82.3525 22 77.79C22 74.5087 22.6797 71.29 24.0391 68.1337C25.3984 64.9775 27.2109 62.2196 29.4766 59.8603C31.7422 57.5009 34.4297 55.6025 37.5391 54.165C40.6485 52.7274 43.8437 52.0087 47.125 52.0087C49.8438 52.0087 52.3281 52.3056 54.5782 52.8993C56.8281 53.4931 58.7578 54.2744 60.3672 55.2431C61.9766 56.2119 63.461 57.4618 64.8203 58.9931C66.1797 60.5244 67.3125 62.0712 68.2188 63.6337C69.125 65.1962 70.0391 67.0244 70.9609 69.1181C71.8828 71.2118 72.6719 73.1572 73.3281 74.954C73.9844 76.7509 74.7656 78.79 75.6719 81.0713C76.5781 83.3525 77.4375 85.3369 78.25 87.0244C81.25 93.2744 84.8906 96.3994 89.1718 96.3994C91.7029 96.3994 93.8673 95.6416 95.6641 94.1259C97.4609 92.6103 98.3593 90.6025 98.3593 88.1025C98.3593 86.79 98.0627 85.665 97.4688 84.7275C96.8748 83.79 96.086 83.0713 95.1017 82.5713C94.1173 82.0713 92.9846 81.5791 91.7029 81.0947C90.4219 80.6103 89.1016 80.1884 87.7425 79.8291C86.3828 79.4697 85.0156 78.9385 83.6406 78.2353C82.2656 77.5322 81 76.7197 79.8438 75.7978C78.6875 74.8759 77.6719 73.5947 76.7969 71.9541C75.9219 70.3134 75.3125 68.3994 74.9688 66.2119C74.875 65.7119 74.8281 65.1962 74.8281 64.665C74.8281 61.2275 76.1953 58.2275 78.9297 55.665C81.6641 53.1025 84.7657 51.8837 88.2347 52.0087C90.672 52.1024 92.5548 52.329 93.883 52.6884C95.2053 53.0463 96.6137 53.877 98.1073 55.1804C98.1132 55.1859 98.1092 55.1962 98.1014 55.1962C98.0928 55.1962 98.0889 55.2062 98.0948 55.2118C98.4643 55.5515 98.818 55.9292 99.156 56.3446C99.4998 56.7665 99.9061 57.329 100.375 58.0322C100.573 58.329 100.74 58.5771 100.877 58.7765C101.085 59.0798 101.026 59.5051 100.734 59.7289L95.834 63.4894C95.5125 63.7366 95.0465 63.6342 94.8405 63.2844C94.1514 62.1141 93.44 61.2511 92.707 60.6955C92.6945 60.6861 92.6873 60.6714 92.6873 60.6557C92.6873 60.6417 92.6821 60.6284 92.6716 60.6191C91.9464 59.9726 90.4357 59.6494 88.1408 59.6494C86.6094 59.6494 85.2969 60.165 84.2031 61.1962C83.1094 62.2275 82.5625 63.5243 82.5625 65.0869Z" fill="url(#paint1_linear_69_509)" stroke="url(#paint2_linear_69_509)" stroke-width="3"/>
<defs>
<linearGradient id="paint0_linear_69_509" x1="6.38112" y1="13.016" x2="112.213" y2="131.329" gradientUnits="userSpaceOnUse">
<stop stop-color="#F9D423"/>
<stop offset="0.515624" stop-color="#FF4E50"/>
<stop offset="0.991304" stop-color="#8A2387"/>
</linearGradient>
<linearGradient id="paint1_linear_69_509" x1="20.7858" y1="52.5125" x2="68.2494" y2="131.398" gradientUnits="userSpaceOnUse">
<stop stop-color="#F9D423"/>
<stop offset="0.515624" stop-color="#FF4E50"/>
<stop offset="0.991304" stop-color="#8A2387"/>
</linearGradient>
<linearGradient id="paint2_linear_69_509" x1="20.7858" y1="52.5125" x2="68.2494" y2="131.398" gradientUnits="userSpaceOnUse">
<stop stop-color="#F9D423"/>
<stop offset="0.515624" stop-color="#FF4E50"/>
<stop offset="0.991304" stop-color="#8A2387"/>
</linearGradient>
</defs>
</svg>
