<svg width="24" height="24" viewBox="0 0 24 24" fill="none" xmlns="http://www.w3.org/2000/svg">
<path d="M18.4555 2C17.7101 2 16.9934 2.17474 16.3075 2.52421C15.6359 2.86034 15.0016 3.35086 14.4053 3.99582C13.8233 4.62805 13.2937 5.40769 12.8163 6.33473C12.339 7.24846 11.9291 8.28289 11.5857 9.43871C11.3471 10.259 11.1084 10.951 10.8697 11.5158C10.6311 12.0801 10.3852 12.5503 10.1315 12.9265C9.57964 12.7384 9.03422 12.4067 8.49739 12.286C7.97492 12.1513 7.43881 12.0845 6.88694 12.0845C6.45404 12.0845 6.0584 12.1449 5.70077 12.2663C5.35747 12.387 5.0593 12.5344 4.8056 12.7091C4.55259 12.8839 4.3512 13.0719 4.20139 13.274C4.06738 13.4754 4 13.8402 4 14.0149C4 14.297 4.14981 14.5334 4.44795 14.7215C4.74609 14.9095 5.19334 15.003 5.79035 15.003C7.37143 15.003 8.70668 14.6332 9.79538 13.8935C10.482 14.1623 11.1837 14.4184 11.8997 14.6605C12.6307 14.8886 13.4363 15.003 14.3164 15.003C15.3163 15.003 16.114 14.8149 16.711 14.4387C17.308 14.0492 17.6513 13.5504 18.009 12.8248C18.024 12.7435 18.0025 12.6894 17.943 12.6634C17.8979 12.6227 17.8448 12.6227 17.7853 12.6634C17.5316 13.1203 17.3453 13.4106 16.9568 13.6527C16.5691 13.8942 16.0021 14.0149 15.2568 14.0149C14.3616 14.0149 13.5402 13.9278 12.7941 13.7531C12.0631 13.565 11.3628 13.3566 10.6913 13.1285C11.6166 12.1474 12.3397 10.7559 12.8622 8.95515C13.1754 7.82604 13.48 6.88565 13.7789 6.1327C14.0771 5.38036 14.3981 4.78245 14.7407 4.33894C15.084 3.88206 15.4582 3.62472 15.861 3.44999C16.2788 3.26191 16.7705 3.16852 17.3374 3.16852C17.7553 3.16852 18.0971 3.23587 18.3659 3.37058C18.6497 3.4913 18.859 3.6527 18.9937 3.85412C19.1278 4.05554 19.2016 4.21819 19.2159 4.46028C19.231 4.70237 19.1951 5.17959 19.1055 5.42165C19.0905 5.48965 19.112 5.53603 19.1722 5.56274C19.2467 5.59004 19.3141 5.58304 19.3736 5.54302C19.5227 5.31427 19.6639 4.7888 19.7986 4.43933C19.9326 4.07652 20 3.76008 20 3.4913C20 3.0751 19.8581 2.72563 19.5743 2.44351C19.2912 2.14741 18.9185 2 18.4555 2ZM5.90217 12.7498C6.54364 12.7498 7.14782 12.8299 7.71474 12.9912C8.28168 13.152 8.84142 13.518 9.39329 13.7334C9.04999 14.0289 8.66152 14.2303 8.22934 14.3383C7.81151 14.4317 7.33417 14.4787 6.79662 14.4787C6.18526 14.4787 5.70795 14.3917 5.36462 14.217C5.03636 14.0422 4.87226 13.6432 4.87226 13.3744C4.87226 12.9576 5.21626 12.7498 5.90217 12.7498Z" fill="url(#paint0_linear_49_112)" stroke="url(#paint1_linear_49_112)"/>
<path opacity="0.4" fill-rule="evenodd" clip-rule="evenodd" d="M3.11111 18C2.81642 18 2.53381 18.1171 2.32543 18.3254C2.11704 18.5337 2 18.8164 2 19.1111V21.3333C2 21.6281 2.11704 21.9107 2.32543 22.119C2.53381 22.3274 2.81642 22.4444 3.11111 22.4444H5.33333C5.62803 22.4444 5.91064 22.3274 6.11901 22.119C6.32736 21.9107 6.44444 21.6281 6.44444 21.3333V19.1111C6.44444 18.8164 6.32736 18.5337 6.11901 18.3254C5.91064 18.1171 5.62803 18 5.33333 18H3.11111ZM9.77778 19.1111C9.77778 18.8164 9.89486 18.5337 10.1032 18.3254C10.3115 18.1171 10.5942 18 10.8889 18H13.1111C13.4058 18 13.6885 18.1171 13.8968 18.3254C14.1051 18.5337 14.2222 18.8164 14.2222 19.1111V21.3333C14.2222 21.6281 14.1051 21.9107 13.8968 22.119C13.6885 22.3274 13.4058 22.4444 13.1111 22.4444H10.8889C10.5942 22.4444 10.3115 22.3274 10.1032 22.119C9.89486 21.9107 9.77778 21.6281 9.77778 21.3333V19.1111ZM17.881 18.3254C18.0893 18.1171 18.3719 18 18.6667 18H20.8889C21.1836 18 21.4662 18.1171 21.6746 18.3254C21.8829 18.5337 22 18.8164 22 19.1111V21.3333C22 21.6281 21.8829 21.9107 21.6746 22.119C21.4662 22.3274 21.1836 22.4444 20.8889 22.4444H18.6667C18.3719 22.4444 18.0893 22.3274 17.881 22.119C17.6726 21.9107 17.5556 21.6281 17.5556 21.3333V19.1111C17.5556 18.8164 17.6726 18.5337 17.881 18.3254Z" fill="url(#paint2_linear_49_112)"/>
<defs>
<linearGradient id="paint0_linear_49_112" x1="12" y1="15.003" x2="12" y2="2" gradientUnits="userSpaceOnUse">
<stop stop-color="#5570FF"/>
<stop offset="1" stop-color="#4DD3FF"/>
</linearGradient>
<linearGradient id="paint1_linear_49_112" x1="12" y1="15.003" x2="12" y2="2" gradientUnits="userSpaceOnUse">
<stop stop-color="#5570FF"/>
<stop offset="1" stop-color="#4DD3FF"/>
</linearGradient>
<linearGradient id="paint2_linear_49_112" x1="12" y1="20.6337" x2="12" y2="18" gradientUnits="userSpaceOnUse">
<stop stop-color="#5558FF"/>
<stop offset="1" stop-color="#00C0FF"/>
</linearGradient>
</defs>
</svg>
