<svg width="128" height="128" viewBox="0 0 128 128" fill="none" xmlns="http://www.w3.org/2000/svg">
<path d="M31.5679 17.947C28.423 18.7543 31.0453 28.1016 32.277 32.4931C28.7449 37.0803 30.434 43.0912 31.7591 47.8182C34.0874 56.1202 41.0069 61.5616 47.2126 59.9748C53.4184 58.3882 58.3689 56.8109 56.0404 48.5088C54.8367 44.2153 48.6868 45.0927 49.7646 38.149C51.2951 28.3163 45.5233 28.1856 36.532 30.4862C35.2395 25.8708 32.9162 17.6015 31.5679 17.947ZM70.2301 8.04912C68.8816 8.39442 71.196 16.6682 72.493 21.2789C63.5019 23.5795 58.57 26.4494 65.0414 34.2381C69.6139 39.7354 63.8237 41.9149 65.0275 46.2083C67.3558 54.5102 72.4696 53.5116 78.6753 51.9204C84.881 50.3337 88.0072 42.3117 85.6974 34.0098C84.3723 29.2823 82.6832 23.267 77.2285 20.9851C75.9967 16.5937 73.3792 7.24171 70.2343 8.04912H70.2301ZM8.84639 60.5913C6.59732 61.1653 9.38298 71.0914 10.8154 76.1966C12.6211 82.6368 15.2855 86.9019 19.4193 89.8604C24.799 93.715 36.2633 92.2684 39.2589 86.8504C40.7567 84.1438 42.1004 79.3557 39.0629 77.4704L19.9278 65.7011C17.7208 64.3431 15.0426 66.0185 13.3488 68.0064C12.3083 64.2918 11.1044 59.9938 8.85558 60.5724L8.84639 60.5913ZM112.245 34.1221C109.996 34.6961 111.2 38.9942 112.245 42.7086C109.735 41.7986 106.539 41.626 105.34 43.8566L94.9254 63.1906C93.269 66.2612 96.9412 69.7611 99.6521 71.3945C105.078 74.6566 115.769 70.4333 118.409 64.5252C120.439 59.9891 120.513 55.0238 118.708 48.5792C117.275 43.4693 114.494 33.5479 112.245 34.1221Z" fill="url(#paint0_linear_80_706)"/>
<path opacity="0.4" d="M48.0198 94.2985C50.8379 85.1286 46.6479 73.9335 66.5763 68.8327L66.5715 68.8329C86.4995 63.7321 88.73 75.4269 95.9669 82.0208C101.664 87.2053 108.556 81.0967 110.964 89.688C113.982 100.449 106.19 109.325 87.013 114.234L72.6326 117.916C53.4557 122.826 42.0661 118.863 39.0472 108.102C36.6394 99.5156 45.8034 101.509 48.0198 94.2985Z" fill="url(#paint1_linear_80_706)"/>
<defs>
<linearGradient id="paint0_linear_80_706" x1="64.0001" y1="7.99995" x2="64.0001" y2="120" gradientUnits="userSpaceOnUse">
<stop stop-color="#D3BAFF"/>
<stop offset="1" stop-color="#30E4F6"/>
</linearGradient>
<linearGradient id="paint1_linear_80_706" x1="64.0001" y1="7.99991" x2="64.0001" y2="120" gradientUnits="userSpaceOnUse">
<stop stop-color="#D3BAFF"/>
<stop offset="1" stop-color="#30E4F6"/>
</linearGradient>
</defs>
</svg>
