<svg width="128" height="128" viewBox="0 0 128 128" fill="none" xmlns="http://www.w3.org/2000/svg">
<path fill-rule="evenodd" clip-rule="evenodd" d="M30.1373 29.913C30.6754 29.3732 31.2693 29.1111 32.1481 29.1111H44.8888C45.7677 29.1111 46.3615 29.3732 46.8997 29.913C47.4865 30.5017 47.7037 31.0666 47.7037 31.7778V34.4444H29.3333V31.7778C29.3333 31.0666 29.5503 30.5017 30.1373 29.913ZM32.1481 22C29.4436 22 27.0182 22.9695 25.1011 24.8925C23.2327 26.7668 22.2222 29.1186 22.2222 31.7778V38C22.2222 39.9636 23.8141 41.5556 25.7777 41.5556H51.2592C53.2229 41.5556 54.8148 39.9636 54.8148 38V31.7778C54.8148 29.1186 53.8042 26.7668 51.9359 24.8925C50.0188 22.9695 47.5933 22 44.8888 22H32.1481ZM81.1002 29.913C81.6384 29.3732 82.2322 29.1111 83.1111 29.1111H95.8518C96.6266 29.1111 97.2337 29.3481 97.8462 29.9463C98.4577 30.5431 98.6666 31.098 98.6666 31.7778V34.4444H80.2962V31.7778C80.2962 31.0666 80.5134 30.5017 81.1002 29.913ZM83.1111 22C80.4066 22 77.9811 22.9695 76.064 24.8925C74.1957 26.7668 73.1851 29.1186 73.1851 31.7778V38C73.1851 39.9636 74.777 41.5556 76.7407 41.5556H102.222C104.186 41.5556 105.778 39.9636 105.778 38V31.7778C105.778 29.0871 104.726 26.7254 102.815 24.8592C100.907 22.9946 98.5279 22 95.8518 22H83.1111Z" fill="url(#paint0_linear_54_1448)"/>
<path opacity="0.4" d="M11.1646 48.2757C13.2693 46.1709 15.9398 45.1111 18.8889 45.1111H109.111C112.04 45.1111 114.656 46.2022 116.743 48.234C118.895 50.3296 120 53.0127 120 56V101.111C120 103.565 118.01 105.556 115.556 105.556H12.4444C9.98985 105.556 8 103.565 8 101.111V56C8 53.0509 9.05986 50.3804 11.1646 48.2757Z" fill="url(#paint1_linear_54_1448)"/>
<rect x="16.8889" y="54" width="94.2222" height="42.6667" rx="10" fill="url(#paint2_linear_54_1448)"/>
<defs>
<linearGradient id="paint0_linear_54_1448" x1="63.9999" y1="105.556" x2="63.9999" y2="22" gradientUnits="userSpaceOnUse">
<stop stop-color="#FDA700"/>
<stop offset="1" stop-color="#FFDE00"/>
</linearGradient>
<linearGradient id="paint1_linear_54_1448" x1="64" y1="105.556" x2="64" y2="22" gradientUnits="userSpaceOnUse">
<stop stop-color="#FDA700"/>
<stop offset="1" stop-color="#FFDE00"/>
</linearGradient>
<linearGradient id="paint2_linear_54_1448" x1="64" y1="105.556" x2="64" y2="22" gradientUnits="userSpaceOnUse">
<stop stop-color="#FDA700"/>
<stop offset="1" stop-color="#FFDE00"/>
</linearGradient>
</defs>
</svg>
