<svg width="24" height="24" viewBox="0 0 24 24" fill="none" xmlns="http://www.w3.org/2000/svg">
<path d="M2.86602 2.81368L15.5241 1.0051C15.5955 0.994854 15.6683 1.00008 15.7375 1.02043C15.8068 1.04078 15.8708 1.07578 15.9254 1.12305C15.9799 1.17033 16.0236 1.22877 16.0536 1.29442C16.0836 1.36007 16.0991 1.4314 16.0991 1.50357V22.4966C16.099 22.5686 16.0836 22.6399 16.0537 22.7054C16.0237 22.771 15.9801 22.8294 15.9257 22.8767C15.8713 22.9239 15.8074 22.9589 15.7382 22.9794C15.6691 22.9998 15.5964 23.0051 15.5251 22.995L2.86502 21.1865C2.62497 21.1523 2.40531 21.0326 2.2464 20.8495C2.08749 20.6663 2 20.432 2 20.1895V3.81061C2 3.56814 2.08749 3.33381 2.2464 3.15067C2.40531 2.96752 2.62597 2.84787 2.86602 2.81368ZM10.419 12.229C10.3226 12.0912 10.3226 11.9079 10.419 11.7702L12.6375 8.60094C12.8231 8.33583 12.6334 7.97155 12.3098 7.97155H10.8695C10.739 7.97155 10.6167 8.03525 10.5418 8.14219L9.37774 9.80535C9.2185 10.0329 8.88157 10.0329 8.72233 9.80535L7.55826 8.14219C7.48341 8.03525 7.36108 7.97155 7.23055 7.97155H5.79028C5.46667 7.97155 5.27701 8.33583 5.46259 8.60094L7.68106 11.7702C7.77747 11.9079 7.77747 12.0912 7.68106 12.229L5.46259 15.3982C5.27701 15.6633 5.46667 16.0276 5.79028 16.0276H7.23055C7.36108 16.0276 7.48341 15.9639 7.55826 15.8569L8.72233 14.1938C8.88157 13.9663 9.2185 13.9663 9.37774 14.1938L10.5418 15.8569C10.6167 15.9639 10.739 16.0276 10.8695 16.0276H12.3098C12.6334 16.0276 12.8231 15.6633 12.6375 15.3982L10.419 12.229Z" fill="url(#paint0_linear_41_119)"/>
<path opacity="0.4" d="M21.1341 2.93652H17.1061V21.0626H21.1341C21.4012 21.0626 21.6573 20.9565 21.8462 20.7676C22.035 20.5788 22.1411 20.3227 22.1411 20.0556V3.94353C22.1411 3.67645 22.035 3.42032 21.8462 3.23147C21.6573 3.04262 21.4012 2.93652 21.1341 2.93652Z" fill="url(#paint1_linear_41_119)"/>
<defs>
<linearGradient id="paint0_linear_41_119" x1="9.04953" y1="23" x2="9.04953" y2="1" gradientUnits="userSpaceOnUse">
<stop stop-color="#02AA93"/>
<stop offset="1" stop-color="#67FF80"/>
</linearGradient>
<linearGradient id="paint1_linear_41_119" x1="19.6236" y1="21.0626" x2="19.6236" y2="2.93652" gradientUnits="userSpaceOnUse">
<stop stop-color="#02AA93"/>
<stop offset="1" stop-color="#67FF80"/>
</linearGradient>
</defs>
</svg>
