<svg width="24" height="24" viewBox="0 0 24 24" fill="none" xmlns="http://www.w3.org/2000/svg">
<path fill-rule="evenodd" clip-rule="evenodd" d="M13.509 22.7833V2.001C13.509 2.05426 13.509 4.1885 13.5098 2.00085C13.5095 2.0009 13.5092 2.00095 13.509 2.001C11.8553 2.27525 4.3296 3.62011 1.81839 4.06948C1.34172 4.15478 1 4.56849 1 5.05274V19.7814C1 20.2681 1.35032 20.684 1.82986 20.7668L13.509 22.7833ZM4.42857 8C4.19187 8 4 8.19187 4 8.42857V16.5714C4 16.8081 4.19187 17 4.42857 17H8.51939C9.0229 17 9.4777 16.8928 9.88373 16.6781C10.2979 16.4635 10.6268 16.1545 10.8705 15.7511C11.1141 15.3391 11.2359 14.8584 11.2359 14.309C11.2359 13.794 11.1384 13.3777 10.9435 13.0601C10.88 12.9537 10.8048 12.8556 10.7179 12.7657C10.4762 12.5154 10.4265 12.0275 10.6144 11.7347C10.654 11.6731 10.6906 11.6084 10.7243 11.5408C10.8867 11.2146 10.9679 10.8627 10.9679 10.485C10.9679 9.68671 10.7283 9.07297 10.2492 8.6438C9.77817 8.21461 9.13253 8 8.31233 8H4.42857ZM8.78738 10.6266C8.78738 11.2532 8.47069 11.5665 7.83724 11.5665H6.58474C6.34804 11.5665 6.15616 11.3747 6.15616 11.138V10.1282C6.15616 9.89146 6.34804 9.69959 6.58474 9.69959H7.80068C8.13364 9.69959 8.38135 9.76824 8.54376 9.9056C8.70616 10.0344 8.78738 10.2747 8.78738 10.6266ZM8.78738 15.0816C8.60873 15.2275 8.33669 15.3004 7.97123 15.3004H6.58474C6.34804 15.3004 6.15616 15.1086 6.15616 14.8719V13.6818C6.15616 13.4451 6.34804 13.2532 6.58474 13.2532H7.9225C8.30416 13.2532 8.58844 13.3391 8.77521 13.5107C8.962 13.6738 9.05539 13.9399 9.05539 14.309C9.05539 14.6781 8.96607 14.9356 8.78738 15.0816Z" fill="url(#paint0_linear_41_179)"/>
<path opacity="0.4" fill-rule="evenodd" clip-rule="evenodd" d="M15 19.9745C15 19.9886 15.0114 20 15.0254 20V20C16.7852 20 18.4105 19.8007 19.6229 19.4603C20.2243 19.2915 20.7701 19.0753 21.1833 18.801C21.5797 18.5381 22 18.1187 22 17.5343V10.846C22 10.8185 21.9777 10.7962 21.9502 10.7962V10.7962C21.9127 10.7962 21.8884 10.7561 21.9037 10.7218C21.964 10.5861 22 10.436 22 10.2708V6.46573C22 5.88117 21.5798 5.4619 21.1833 5.19877C20.77 4.92448 20.2241 4.70834 19.6228 4.53956C18.4104 4.19922 16.7851 4 15.0254 4V4C15.0114 4 15 4.01141 15 4.02546V5.44753C15 5.46158 15.0114 5.47296 15.0254 5.47296V5.47296C16.6682 5.47296 18.1233 5.66085 19.1404 5.94638C19.654 6.09053 20.0104 6.24702 20.2205 6.38651V6.38651C20.2788 6.42515 20.2788 6.50633 20.2205 6.54497V6.54497C20.0104 6.68444 19.654 6.84095 19.1404 6.98506C18.1233 7.27061 16.6682 7.45848 15.0254 7.45848V7.45848C15.0114 7.45848 15 7.46986 15 7.48391V8.90598C15 8.92003 15.0114 8.93144 15.0254 8.93144V8.93144C16.7851 8.93144 18.4104 8.73222 19.6228 8.39188C19.6882 8.37353 19.753 8.35462 19.8169 8.33513C20.0868 8.25293 20.3721 8.44843 20.3721 8.73056V10.0012C20.3721 10.1166 20.3222 10.2271 20.2227 10.2854C20.2081 10.294 20.1924 10.3029 20.1754 10.3122C19.8956 10.466 19.4452 10.6288 18.8389 10.7753C17.8899 11.0047 16.6699 11.1683 15.3885 11.2268C15.1722 11.2366 15 11.4135 15 11.6299V12.3041C15 12.5292 15.1857 12.7102 15.4105 12.7005C16.8112 12.64 18.1689 12.4619 19.2591 12.1983C19.4529 12.1515 19.6419 12.1011 19.824 12.0469C20.0919 11.9673 20.3721 12.1624 20.3721 12.4419V13.7471C20.3721 13.8742 20.312 13.9949 20.1993 14.0538C20.1722 14.068 20.1423 14.0829 20.1093 14.0985C19.7536 14.2667 19.2036 14.4383 18.5018 14.5909C17.5875 14.7896 16.4886 14.9407 15.3768 15.0211C15.1654 15.0363 15 15.2112 15 15.4232V16.0992C15 16.3285 15.1925 16.5112 15.4213 16.4954C16.6419 16.4109 17.8572 16.2459 18.8821 16.0231C19.2123 15.9513 19.5309 15.8718 19.8289 15.7843C20.0953 15.7061 20.3721 15.9009 20.3721 16.1786V17.3445C20.3721 17.4381 20.339 17.5294 20.263 17.5841C20.2502 17.5933 20.2361 17.6031 20.2205 17.6134C20.0104 17.7529 19.654 17.9093 19.1404 18.0535C18.1233 18.3391 16.6682 18.527 15.0254 18.527V18.527C15.0114 18.527 15 18.5384 15 18.5525V19.9745ZM20.4001 10.1544C20.4002 10.1542 20.4003 10.1542 20.4002 10.1544V10.1544C20.4 10.1546 20.3999 10.1546 20.4001 10.1544V10.1544ZM20.3819 17.4765C20.3822 17.4758 20.3823 17.4759 20.3819 17.4765V17.4765V17.4765ZM20.3839 6.40444C20.3838 6.40476 20.3836 6.40473 20.3838 6.40444V6.40444C20.384 6.40417 20.3841 6.40415 20.3839 6.40444V6.40444Z" fill="url(#paint1_linear_41_179)"/>
<defs>
<linearGradient id="paint0_linear_41_179" x1="7.25491" y1="2.00085" x2="7.25491" y2="22.7833" gradientUnits="userSpaceOnUse">
<stop stop-color="#DC18FC"/>
<stop offset="1" stop-color="#8E1EFF"/>
</linearGradient>
<linearGradient id="paint1_linear_41_179" x1="18.5" y1="4" x2="18.5" y2="20" gradientUnits="userSpaceOnUse">
<stop stop-color="#DC18FC"/>
<stop offset="1" stop-color="#8E1EFF"/>
</linearGradient>
</defs>
</svg>
