<svg width="128" height="128" viewBox="0 0 128 128" fill="none" xmlns="http://www.w3.org/2000/svg">
<path opacity="0.4" fill-rule="evenodd" clip-rule="evenodd" d="M64 7C61.634 7 59.7188 8.91532 59.7188 11.2812V13.7812H11.2812C8.91528 13.7812 7 15.6965 7 18.0625V31.1875C7 33.5535 8.91528 35.4688 11.2812 35.4688H13.5625V97.0312C13.5625 99.3976 15.4781 101.312 17.8438 101.312H44.9363L41.2282 112.438H37.75C35.3842 112.438 33.4688 114.353 33.4688 116.719C33.4688 119.085 35.3842 121 37.75 121H44.3125C45.9242 121 47.6908 119.873 48.3094 118.172C48.5453 117.524 51.5892 108.457 53.2081 103.599C53.6636 102.233 54.9409 101.312 56.3814 101.312C58.2246 101.312 59.7188 102.806 59.7188 104.649V116.719C59.7188 119.085 61.6342 121 64 121C66.3658 121 68.2812 119.085 68.2812 116.719V104.663C68.2812 102.812 69.7813 101.312 71.6318 101.312C73.0719 101.312 74.3508 102.232 74.8083 103.597C75.6295 106.049 77.0969 110.429 79.682 118.148L79.686 118.16L79.6904 118.172C80.3058 119.864 82.0694 121 83.6875 121H90.25C92.6158 121 94.5312 119.085 94.5312 116.719C94.5312 114.353 92.6158 112.438 90.25 112.438H89.655C87.9333 112.438 86.4047 111.336 85.8603 109.703L84.8184 106.577C83.9551 103.987 85.883 101.312 88.6132 101.312H110.156C112.522 101.312 114.438 99.3978 114.438 97.0312V37.7498C114.438 36.49 115.459 35.4688 116.719 35.4688C119.085 35.4688 121 33.5533 121 31.1875V18.0625C121 15.6967 119.085 13.7812 116.719 13.7812H70.7812C69.4005 13.7812 68.2812 12.6619 68.2812 11.2812C68.2812 8.91533 66.366 7 64 7ZM41.2282 112.438H41.5301C41.7615 112.438 41.949 112.626 41.949 112.857C41.949 113.143 41.6689 113.345 41.3977 113.254C41.1782 113.181 41.0596 112.944 41.1327 112.724L41.2282 112.438ZM45.3396 100.312C45.2739 100.375 45.2221 100.455 45.1913 100.547L44.9363 101.312H45.7426C45.84 101.312 45.9319 101.288 46.0125 101.246L46.2673 100.481C46.2372 100.418 46.1959 100.361 46.1454 100.312H45.3396ZM14.5625 34.9688C14.5625 35.2449 14.3386 35.4688 14.0625 35.4688H13.5625V34.9688C13.5625 34.6927 13.7864 34.4688 14.0625 34.4688C14.3386 34.4688 14.5625 34.6927 14.5625 34.9688ZM60.2188 14.7812C59.9427 14.7812 59.7188 14.5573 59.7188 14.2812V13.7812H60.2188C60.4949 13.7812 60.7188 14.0051 60.7188 14.2812C60.7188 14.5573 60.4949 14.7812 60.2188 14.7812ZM14.9167 27.9062C14.7914 27.7956 14.6731 27.6773 14.5625 27.552V21.698C14.6731 21.5727 14.7914 21.4544 14.9167 21.3438H113.084C113.209 21.4544 113.327 21.5727 113.438 21.698V27.552C113.327 27.6773 113.209 27.7956 113.084 27.9062H14.9167Z" fill="url(#paint0_linear_19_153)"/>
<path d="M96.8125 86.9689H83.6875C81.8738 86.9689 80.4062 85.5013 80.4062 83.6875V44.3125C80.4062 42.4988 81.8738 41.0312 83.6875 41.0312H96.8125C98.6264 41.0312 100.094 42.4988 100.094 44.3125V83.6875C100.094 85.5013 98.6264 86.9689 96.8125 86.9689Z" fill="url(#paint1_linear_19_153)"/>
<path d="M70.5625 86.9689H57.4375C55.6238 86.9689 54.1562 85.5013 54.1562 83.6875V57.4375C54.1562 55.6238 55.6238 54.1562 57.4375 54.1562H70.5625C72.3762 54.1562 73.8438 55.6238 73.8438 57.4375V83.6875C73.8438 85.5013 72.3762 86.9689 70.5625 86.9689Z" fill="url(#paint2_linear_19_153)"/>
<path d="M44.3125 86.9689H31.1875C29.3738 86.9689 27.9062 85.5013 27.9062 83.6875V70.5625C27.9062 68.7488 29.3738 67.2812 31.1875 67.2812H44.3125C46.1262 67.2812 47.5938 68.7488 47.5938 70.5625V83.6875C47.5938 85.5013 46.1262 86.9689 44.3125 86.9689Z" fill="url(#paint3_linear_19_153)"/>
<path d="M96.8125 86.9689H83.6875C81.8738 86.9689 80.4062 85.5013 80.4062 83.6875V44.3125C80.4062 42.4988 81.8738 41.0312 83.6875 41.0312H96.8125C98.6264 41.0312 100.094 42.4988 100.094 44.3125V83.6875C100.094 85.5013 98.6264 86.9689 96.8125 86.9689Z" stroke="url(#paint4_linear_19_153)" stroke-width="2"/>
<path d="M70.5625 86.9689H57.4375C55.6238 86.9689 54.1562 85.5013 54.1562 83.6875V57.4375C54.1562 55.6238 55.6238 54.1562 57.4375 54.1562H70.5625C72.3762 54.1562 73.8438 55.6238 73.8438 57.4375V83.6875C73.8438 85.5013 72.3762 86.9689 70.5625 86.9689Z" stroke="url(#paint5_linear_19_153)" stroke-width="2"/>
<path d="M44.3125 86.9689H31.1875C29.3738 86.9689 27.9062 85.5013 27.9062 83.6875V70.5625C27.9062 68.7488 29.3738 67.2812 31.1875 67.2812H44.3125C46.1262 67.2812 47.5938 68.7488 47.5938 70.5625V83.6875C47.5938 85.5013 46.1262 86.9689 44.3125 86.9689Z" stroke="url(#paint6_linear_19_153)" stroke-width="2"/>
<defs>
<linearGradient id="paint0_linear_19_153" x1="64" y1="120" x2="64" y2="8" gradientUnits="userSpaceOnUse">
<stop stop-color="#FF00B8"/>
<stop offset="1" stop-color="#FAFF00"/>
</linearGradient>
<linearGradient id="paint1_linear_19_153" x1="64" y1="120" x2="64" y2="8" gradientUnits="userSpaceOnUse">
<stop stop-color="#FF00B8"/>
<stop offset="1" stop-color="#FAFF00"/>
</linearGradient>
<linearGradient id="paint2_linear_19_153" x1="64" y1="120" x2="64" y2="8" gradientUnits="userSpaceOnUse">
<stop stop-color="#FF00B8"/>
<stop offset="1" stop-color="#FAFF00"/>
</linearGradient>
<linearGradient id="paint3_linear_19_153" x1="64" y1="120" x2="64" y2="8" gradientUnits="userSpaceOnUse">
<stop stop-color="#FF00B8"/>
<stop offset="1" stop-color="#FAFF00"/>
</linearGradient>
<linearGradient id="paint4_linear_19_153" x1="64" y1="120" x2="64" y2="8" gradientUnits="userSpaceOnUse">
<stop stop-color="#FF00B8"/>
<stop offset="1" stop-color="#FAFF00"/>
</linearGradient>
<linearGradient id="paint5_linear_19_153" x1="64" y1="120" x2="64" y2="8" gradientUnits="userSpaceOnUse">
<stop stop-color="#FF00B8"/>
<stop offset="1" stop-color="#FAFF00"/>
</linearGradient>
<linearGradient id="paint6_linear_19_153" x1="64" y1="120" x2="64" y2="8" gradientUnits="userSpaceOnUse">
<stop stop-color="#FF00B8"/>
<stop offset="1" stop-color="#FAFF00"/>
</linearGradient>
</defs>
</svg>
