<svg width="24" height="24" viewBox="0 0 24 24" fill="none" xmlns="http://www.w3.org/2000/svg">
<path d="M5.33333 20C4.97971 20 4.64057 19.8595 4.39052 19.6095C4.14048 19.3594 4 19.0203 4 18.6667V13.3333C4 12.9797 4.14048 12.6406 4.39052 12.3905C4.64057 12.1405 4.97971 12 5.33333 12C5.68696 12 6.02609 12.1405 6.27614 12.3905C6.52619 12.6406 6.66667 12.9797 6.66667 13.3333V18.6667C6.66667 19.0203 6.52619 19.3594 6.27614 19.6095C6.02609 19.8595 5.68696 20 5.33333 20ZM12 20C11.6464 20 11.3072 19.8595 11.0572 19.6095C10.8071 19.3594 10.6667 19.0203 10.6667 18.6667V5.33333C10.6667 4.97971 10.8071 4.64057 11.0572 4.39052C11.3072 4.14048 11.6464 4 12 4C12.3536 4 12.6928 4.14048 12.9428 4.39052C13.1929 4.64057 13.3333 4.97971 13.3333 5.33333V18.6667C13.3333 19.0203 13.1929 19.3594 12.9428 19.6095C12.6928 19.8595 12.3536 20 12 20ZM18.6667 20C18.313 20 17.9739 19.8595 17.7239 19.6095C17.4738 19.3594 17.3333 19.0203 17.3333 18.6667V10.6667C17.3333 10.313 17.4738 9.97391 17.7239 9.72386C17.9739 9.47381 18.313 9.33333 18.6667 9.33333C19.0203 9.33333 19.3594 9.47381 19.6095 9.72386C19.8595 9.97391 20 10.313 20 10.6667V18.6667C20 19.0203 19.8595 19.3594 19.6095 19.6095C19.3594 19.8595 19.0203 20 18.6667 20Z" fill="url(#paint0_linear_110_186)"/>
<path opacity="0.5" d="M19.7 1H4.3C3.42479 1 2.58542 1.34768 1.96655 1.96655C1.34768 2.58542 1 3.42479 1 4.3V19.7C1 20.5752 1.34768 21.4146 1.96655 22.0335C2.58542 22.6523 3.42479 23 4.3 23H19.7C20.5752 23 21.4146 22.6523 22.0335 22.0335C22.6523 21.4146 23 20.5752 23 19.7V4.3C23 3.42479 22.6523 2.58542 22.0335 1.96655C21.4146 1.34768 20.5752 1 19.7 1Z" fill="url(#paint1_linear_110_186)"/>
<defs>
<linearGradient id="paint0_linear_110_186" x1="12" y1="20" x2="12" y2="4" gradientUnits="userSpaceOnUse">
<stop stop-color="#FD4C00"/>
<stop offset="1" stop-color="#FFB800"/>
</linearGradient>
<linearGradient id="paint1_linear_110_186" x1="12" y1="23" x2="12" y2="1" gradientUnits="userSpaceOnUse">
<stop stop-color="#FD5900"/>
<stop offset="1" stop-color="#FFDE00"/>
</linearGradient>
</defs>
</svg>
