<svg width="24" height="24" viewBox="0 0 24 24" fill="none" xmlns="http://www.w3.org/2000/svg">
<path opacity="0.4" d="M21.1341 2.93652H17.1061V21.0626H21.1341C21.4012 21.0626 21.6573 20.9565 21.8462 20.7676C22.035 20.5788 22.1411 20.3227 22.1411 20.0556V3.94353C22.1411 3.67645 22.035 3.42032 21.8462 3.23147C21.6573 3.04262 21.4012 2.93652 21.1341 2.93652Z" fill="url(#paint0_linear_41_156)"/>
<path fill-rule="evenodd" clip-rule="evenodd" d="M15.5241 1.0051L2.86602 2.81368C2.62597 2.84787 2.40531 2.96752 2.2464 3.15067C2.08749 3.33381 2 3.56814 2 3.81061V20.1895C2 20.432 2.08749 20.6663 2.2464 20.8495C2.40531 21.0326 2.62497 21.1523 2.86502 21.1865L15.5251 22.995C15.5964 23.0051 15.6691 22.9998 15.7382 22.9794C15.8074 22.9589 15.8713 22.9239 15.9257 22.8767C15.9801 22.8294 16.0237 22.771 16.0537 22.7054C16.0836 22.6399 16.099 22.5686 16.0991 22.4966V1.50357C16.0991 1.4314 16.0836 1.36007 16.0536 1.29442C16.0236 1.22877 15.9799 1.17033 15.9254 1.12305C15.8708 1.07578 15.8068 1.04078 15.7375 1.02043C15.6683 1.00008 15.5955 0.994854 15.5241 1.0051ZM9.55857 8.2C9.00998 8.2 8.52797 8.56368 8.37729 9.09104L8.37728 9.09106L7.14872 13.391L6.7752 12.6439L6.77517 12.6439C6.56706 12.2276 6.14164 11.9647 5.67631 11.9647H5C4.55817 11.9647 4.2 12.3229 4.2 12.7647C4.2 13.2065 4.55817 13.5647 5 13.5647H5.44674L6.14468 14.9606L6.14468 14.9606C6.6458 15.9627 8.11701 15.8259 8.42484 14.7487L8.42484 14.7486L9.83875 9.8H12.5294C12.9713 9.8 13.3294 9.44183 13.3294 9C13.3294 8.55817 12.9713 8.2 12.5294 8.2H9.55857ZM10.7422 12.199C10.4298 11.8866 9.92323 11.8866 9.61082 12.199C9.2984 12.5114 9.2984 13.018 9.61082 13.3304L10.4569 14.1765L9.61082 15.0225C9.2984 15.3349 9.2984 15.8415 9.61082 16.1539C9.92323 16.4663 10.4298 16.4663 10.7422 16.1539L11.5883 15.3078L12.4343 16.1539C12.7467 16.4663 13.2533 16.4663 13.5657 16.1539C13.8781 15.8415 13.8781 15.3349 13.5657 15.0225L12.7196 14.1765L13.5657 13.3304C13.8781 13.018 13.8781 12.5114 13.5657 12.199C13.2533 11.8866 12.7467 11.8866 12.4343 12.199L11.5883 13.0451L10.7422 12.199Z" fill="url(#paint1_linear_41_156)"/>
<defs>
<linearGradient id="paint0_linear_41_156" x1="19.6236" y1="2.93652" x2="19.6236" y2="21.0626" gradientUnits="userSpaceOnUse">
<stop stop-color="#00FFE0"/>
<stop offset="1" stop-color="#078AA7"/>
</linearGradient>
<linearGradient id="paint1_linear_41_156" x1="9.04952" y1="1" x2="9.04952" y2="23" gradientUnits="userSpaceOnUse">
<stop stop-color="#00FFE0"/>
<stop offset="1" stop-color="#078AA7"/>
</linearGradient>
</defs>
</svg>
