<svg width="24" height="24" viewBox="0 0 24 24" fill="none" xmlns="http://www.w3.org/2000/svg">
<g clip-path="url(#clip0_298_319)">
<path opacity="0.4" d="M18.9061 7.72326C18.906 6.51364 18.5882 5.32532 17.9845 4.27717C17.3808 3.22897 16.5125 2.35773 15.4663 1.75056C14.4201 1.1434 13.2329 0.821627 12.0233 0.81741C10.8137 0.813244 9.62426 1.12674 8.57386 1.72669C7.52352 2.32658 6.64915 3.19178 6.03823 4.23572C5.42725 5.27972 5.10121 6.46579 5.09265 7.67535C5.08408 8.8849 5.39332 10.0755 5.98942 11.128C6.58551 12.1805 7.44753 13.058 8.48929 13.6727C8.81739 13.8665 9.03944 14.2087 9.04011 14.5884L9.0394 19.8385C9.0395 20.0605 9.08947 20.2795 9.18568 20.4795C9.2819 20.6795 9.42185 20.8554 9.5952 20.994L11.2364 22.307C11.4117 22.447 11.6288 22.5227 11.8529 22.5234L12.1471 22.5234C12.3712 22.5234 12.5887 22.4471 12.7637 22.307L14.4048 20.994C14.5782 20.8554 14.7181 20.6795 14.8143 20.4795C14.9105 20.2795 14.9605 20.0605 14.9606 19.8386L14.9606 18.8345L14.9599 17.3348L14.96 14.5884C14.96 14.2066 15.1826 13.8664 15.5107 13.6727C16.5454 13.0622 17.4029 12.1922 17.9984 11.1488C18.5939 10.1054 18.9068 8.92466 18.9061 7.72326Z" fill="url(#paint0_linear_298_319)"/>
<path d="M11.9999 5.85583C11.7344 5.85122 11.4706 5.89958 11.224 5.99798C10.9773 6.09639 10.7527 6.24297 10.5633 6.42908C10.3739 6.61524 10.2235 6.83726 10.1208 7.08215C10.0181 7.32706 9.96521 7.58995 9.96521 7.8555C9.96522 8.12106 10.0181 8.38397 10.1208 8.62886C10.2235 8.87377 10.3739 9.0958 10.5633 9.28195C10.7528 9.46805 10.9773 9.61459 11.224 9.71306C11.4706 9.81147 11.7344 9.85978 11.9999 9.85515C12.5243 9.84607 13.0241 9.63137 13.3916 9.25734C13.7592 8.88332 13.9651 8.37987 13.9651 7.85548C13.9651 7.33109 13.7592 6.82764 13.3916 6.45369C13.024 6.07966 12.5242 5.86498 11.9999 5.85583ZM12.5041 18.8487L14.9598 18.8352L14.9591 17.3355L12.4956 17.3482C12.3961 17.3471 12.2973 17.3658 12.205 17.4032C12.1129 17.4406 12.029 17.496 11.9584 17.5662C11.8878 17.6363 11.8319 17.7199 11.7938 17.8119C11.7559 17.9039 11.7366 18.0025 11.737 18.102C11.7376 18.2016 11.7579 18.3 11.7969 18.3916C11.8358 18.4832 11.8926 18.5661 11.9639 18.6356C12.0352 18.705 12.1197 18.7595 12.2123 18.796C12.3049 18.8325 12.4046 18.8509 12.5041 18.8487Z" fill="url(#paint1_linear_298_319)"/>
</g>
<defs>
<linearGradient id="paint0_linear_298_319" x1="18.3636" y1="17.048" x2="5.63571" y2="4.3201" gradientUnits="userSpaceOnUse">
<stop stop-color="#FD5900"/>
<stop offset="1" stop-color="#FFDE00"/>
</linearGradient>
<linearGradient id="paint1_linear_298_319" x1="16.9641" y1="16.8309" x2="8.56274" y2="8.42957" gradientUnits="userSpaceOnUse">
<stop stop-color="#FD5900"/>
<stop offset="1" stop-color="#FFDE00"/>
</linearGradient>
<clipPath id="clip0_298_319">
<rect width="24" height="24" fill="white"/>
</clipPath>
</defs>
</svg>
