<svg width="24" height="24" viewBox="0 0 24 24" fill="none" xmlns="http://www.w3.org/2000/svg">
<path opacity="0.5" d="M1 11.8C1 7.6519 1 5.5773 2.2892 4.2892C3.5773 3 5.6519 3 9.8 3H14.2C18.3481 3 20.4227 3 21.7108 4.2892C23 5.5773 23 7.6519 23 11.8C23 15.9481 23 18.0227 21.7108 19.3108C20.4227 20.6 18.3481 20.6 14.2 20.6H9.8C5.6519 20.6 3.5773 20.6 2.2892 19.3108C1 18.0227 1 15.9481 1 11.8Z" fill="url(#paint0_linear_8_721)"/>
<path d="M12.8251 9.60002C12.8251 9.38122 12.7381 9.17138 12.5834 9.01666C12.4287 8.86194 12.2189 8.77502 12.0001 8.77502C11.7813 8.77502 11.5714 8.86194 11.4167 9.01666C11.262 9.17138 11.1751 9.38122 11.1751 9.60002V10.3711L10.5074 9.98612C10.4135 9.92743 10.3087 9.88825 10.1993 9.87091C10.0899 9.85357 9.97818 9.85843 9.87072 9.8852C9.76326 9.91197 9.66229 9.9601 9.57383 10.0267C9.48536 10.0933 9.41122 10.1771 9.35581 10.273C9.30041 10.3689 9.26488 10.4749 9.25133 10.5849C9.23779 10.6948 9.24652 10.8063 9.27699 10.9128C9.30746 11.0192 9.35906 11.1185 9.42871 11.2046C9.49835 11.2907 9.58462 11.3619 9.68237 11.4139L10.3501 11.7989L9.68237 12.185C9.49274 12.2944 9.35434 12.4747 9.29761 12.6861C9.24088 12.8976 9.27047 13.1229 9.37987 13.3125C9.48927 13.5022 9.66952 13.6406 9.88097 13.6973C10.0924 13.754 10.3177 13.7244 10.5074 13.615L11.1751 13.2289V14C11.1751 14.2188 11.262 14.4287 11.4167 14.5834C11.5714 14.7381 11.7813 14.825 12.0001 14.825C12.2189 14.825 12.4287 14.7381 12.5834 14.5834C12.7381 14.4287 12.8251 14.2188 12.8251 14V13.23L13.4928 13.615C13.6824 13.7244 13.9077 13.754 14.1192 13.6973C14.3306 13.6406 14.5109 13.5022 14.6203 13.3125C14.7297 13.1229 14.7593 12.8976 14.7025 12.6861C14.6458 12.4747 14.5074 12.2944 14.3178 12.185L13.6501 11.8L14.3178 11.415C14.5074 11.3056 14.6458 11.1254 14.7025 10.9139C14.7593 10.7025 14.7297 10.4772 14.6203 10.2875C14.5109 10.0979 14.3306 9.95949 14.1192 9.90276C13.9077 9.84603 13.6824 9.87562 13.4928 9.98502L12.8251 10.37V9.60002ZM6.20637 8.77502C6.42517 8.77502 6.63501 8.86194 6.78973 9.01666C6.94445 9.17138 7.03137 9.38122 7.03137 9.60002V10.37L7.69797 9.98502C7.8876 9.87562 8.11292 9.84603 8.32437 9.90276C8.53581 9.95949 8.71607 10.0979 8.82547 10.2875C8.93487 10.4772 8.96446 10.7025 8.90773 10.9139C8.851 11.1254 8.7126 11.3056 8.52297 11.415L7.85527 11.8L8.52297 12.185C8.61686 12.2392 8.69917 12.3113 8.76519 12.3973C8.8312 12.4833 8.87964 12.5814 8.90773 12.6861C8.93582 12.7908 8.94301 12.9 8.9289 13.0075C8.91478 13.115 8.87964 13.2186 8.82547 13.3125C8.7713 13.4064 8.69916 13.4887 8.61319 13.5547C8.52721 13.6208 8.42907 13.6692 8.32437 13.6973C8.21967 13.7254 8.11046 13.7326 8.00299 13.7185C7.89551 13.7043 7.79186 13.6692 7.69797 13.615L7.03137 13.23V14C7.03137 14.2188 6.94445 14.4287 6.78973 14.5834C6.63501 14.7381 6.42517 14.825 6.20637 14.825C5.98756 14.825 5.77772 14.7381 5.623 14.5834C5.46829 14.4287 5.38137 14.2188 5.38137 14V13.2289L4.71257 13.6139C4.5238 13.7144 4.30338 13.7377 4.09778 13.6789C3.89218 13.62 3.71746 13.4837 3.61047 13.2985C3.50347 13.1133 3.47257 12.8938 3.52426 12.6863C3.57595 12.4788 3.70621 12.2995 3.88757 12.1861L4.55527 11.8L3.88757 11.415C3.79367 11.3609 3.71137 11.2887 3.64535 11.2027C3.57933 11.1168 3.53089 11.0186 3.5028 10.9139C3.47472 10.8092 3.46752 10.7 3.48164 10.5925C3.49575 10.4851 3.5309 10.3814 3.58507 10.2875C3.63924 10.1936 3.71137 10.1113 3.79735 10.0453C3.88333 9.97929 3.98147 9.93085 4.08617 9.90276C4.19087 9.87467 4.30007 9.86748 4.40755 9.88159C4.51503 9.89571 4.61867 9.93085 4.71257 9.98502L5.38137 10.3711V9.60002C5.38137 9.38122 5.46829 9.17138 5.623 9.01666C5.77772 8.86194 5.98756 8.77502 6.20637 8.77502ZM18.6199 9.60002C18.6199 9.38122 18.5329 9.17138 18.3782 9.01666C18.2235 8.86194 18.0137 8.77502 17.7949 8.77502C17.5761 8.77502 17.3662 8.86194 17.2115 9.01666C17.0568 9.17138 16.9699 9.38122 16.9699 9.60002V10.3711L16.3022 9.98612C16.2083 9.92743 16.1035 9.88825 15.9941 9.87091C15.8847 9.85357 15.773 9.85843 15.6655 9.8852C15.5581 9.91197 15.4571 9.9601 15.3686 10.0267C15.2802 10.0933 15.206 10.1771 15.1506 10.273C15.0952 10.3689 15.0597 10.4749 15.0461 10.5849C15.0326 10.6948 15.0413 10.8063 15.0718 10.9128C15.1023 11.0192 15.1539 11.1185 15.2235 11.2046C15.2932 11.2907 15.3794 11.3619 15.4772 11.4139L16.1449 11.7989L15.4772 12.185C15.3833 12.2392 15.301 12.3113 15.2349 12.3973C15.1689 12.4833 15.1205 12.5814 15.0924 12.6861C15.0643 12.7908 15.0571 12.9 15.0712 13.0075C15.0854 13.115 15.1205 13.2186 15.1747 13.3125C15.2288 13.4064 15.301 13.4887 15.387 13.5547C15.4729 13.6208 15.5711 13.6692 15.6758 13.6973C15.7805 13.7254 15.8897 13.7326 15.9972 13.7185C16.1046 13.7043 16.2083 13.6692 16.3022 13.615L16.9699 13.2289V14C16.9699 14.2188 17.0568 14.4287 17.2115 14.5834C17.3662 14.7381 17.5761 14.825 17.7949 14.825C18.0137 14.825 18.2235 14.7381 18.3782 14.5834C18.5329 14.4287 18.6199 14.2188 18.6199 14V13.23L19.2876 13.615C19.4772 13.7244 19.7025 13.754 19.914 13.6973C20.1254 13.6406 20.3057 13.5022 20.4151 13.3125C20.5245 13.1229 20.5541 12.8976 20.4973 12.6861C20.4406 12.4747 20.3022 12.2944 20.1126 12.185L19.4449 11.8L20.1126 11.415C20.2065 11.3609 20.2888 11.2887 20.3548 11.2027C20.4208 11.1168 20.4692 11.0186 20.4973 10.9139C20.5254 10.8092 20.5326 10.7 20.5185 10.5925C20.5044 10.4851 20.4692 10.3814 20.4151 10.2875C20.3609 10.1936 20.2888 10.1113 20.2028 10.0453C20.1168 9.97929 20.0187 9.93085 19.914 9.90276C19.8093 9.87467 19.7001 9.86748 19.5926 9.88159C19.4851 9.89571 19.3815 9.93085 19.2876 9.98502L18.6199 10.37V9.60002Z" fill="url(#paint1_linear_8_721)"/>
<defs>
<linearGradient id="paint0_linear_8_721" x1="12" y1="20.6" x2="12" y2="3" gradientUnits="userSpaceOnUse">
<stop stop-color="#00B59C"/>
<stop offset="1" stop-color="#9CFFAC"/>
</linearGradient>
<linearGradient id="paint1_linear_8_721" x1="12.0001" y1="14.825" x2="12.0001" y2="8.77502" gradientUnits="userSpaceOnUse">
<stop stop-color="#02AA93"/>
<stop offset="1" stop-color="#67FF80"/>
</linearGradient>
</defs>
</svg>
