<svg width="32" height="32" viewBox="0 0 32 32" fill="none" xmlns="http://www.w3.org/2000/svg">
<path opacity="0.4" d="M21.7057 2H26.4461C28.4093 2 30 3.60419 30 5.58395V10.3643C30 12.3441 28.4093 13.9483 26.4461 13.9483H21.7057C19.7426 13.9483 18.1518 12.3441 18.1518 10.3643V5.58395C18.1518 3.60419 19.7426 2 21.7057 2" fill="url(#paint0_linear_5_77)"/>
<path fill-rule="evenodd" clip-rule="evenodd" d="M5.55393 2H10.2943C12.2575 2 13.8482 3.60419 13.8482 5.58395V10.3643C13.8482 12.3441 12.2575 13.9483 10.2943 13.9483H5.55393C3.59076 13.9483 2 12.3441 2 10.3643V5.58395C2 3.60419 3.59076 2 5.55393 2ZM5.55393 18.0517H10.2943C12.2575 18.0517 13.8482 19.6559 13.8482 21.6357V26.4161C13.8482 28.3945 12.2575 30 10.2943 30H5.55393C3.59076 30 2 28.3945 2 26.4161V21.6357C2 19.6559 3.59076 18.0517 5.55393 18.0517ZM26.4461 18.0517H21.7057C19.7425 18.0517 18.1518 19.6559 18.1518 21.6357V26.4161C18.1518 28.3945 19.7425 30 21.7057 30H26.4461C28.4092 30 30 28.3945 30 26.4161V21.6357C30 19.6559 28.4092 18.0517 26.4461 18.0517Z" fill="url(#paint1_linear_5_77)"/>
<defs>
<linearGradient id="paint0_linear_5_77" x1="24.0759" y1="13.9483" x2="24.0759" y2="2" gradientUnits="userSpaceOnUse">
<stop stop-color="#5570FF"/>
<stop offset="1" stop-color="#4DD3FF"/>
</linearGradient>
<linearGradient id="paint1_linear_5_77" x1="16" y1="30" x2="16" y2="2" gradientUnits="userSpaceOnUse">
<stop stop-color="#5570FF"/>
<stop offset="1" stop-color="#4DD3FF"/>
</linearGradient>
</defs>
</svg>
