<svg width="64" height="64" viewBox="0 0 64 64" fill="none" xmlns="http://www.w3.org/2000/svg">
<circle opacity="0.4" cx="32" cy="32" r="28" transform="rotate(-180 32 32)" fill="url(#paint0_linear_8_1090)"/>
<path fill-rule="evenodd" clip-rule="evenodd" d="M26.5753 12.7382C28.3448 12.2536 30.1671 11.982 32.0021 12.0009C36.102 12.0096 40.045 13.2779 43.3032 15.7873C43.3543 15.8267 43.4033 15.8729 43.4441 15.9229C45.4853 18.4214 41.4043 21.2228 39.4124 18.8647C39.3508 18.7918 39.2812 18.7215 39.2037 18.6659C32.9909 14.2109 24.9661 16.4547 20.522 21.7978C18.3634 24.2186 17.059 27.4015 16.8472 30.6402C16.8112 31.1896 17.2618 31.6352 17.8123 31.6352H19.2226C20.0213 31.6352 20.4977 32.5252 20.0548 33.1898L15.3817 40.201C14.9848 40.7965 14.1104 40.7969 13.7155 40.2001C12.6192 38.5436 10.6422 35.562 9.05684 33.2037C8.60891 32.5374 9.08655 31.6394 9.88943 31.6394H11.4149C11.9729 31.6394 12.4202 31.1821 12.4437 30.6246C12.7872 22.4658 18.6625 14.8608 26.5753 12.7382ZM44.7777 31.6373C43.979 31.6373 43.5026 30.7471 43.9456 30.0826L48.6184 23.0735C49.0153 22.4781 49.8896 22.4777 50.2845 23.0744C51.3807 24.7309 53.3578 27.7125 54.9431 30.0708C55.3911 30.7372 54.9134 31.6352 54.1106 31.6352H52.5851C52.0271 31.6352 51.5798 32.0924 51.5563 32.65C51.2129 40.8089 45.3376 48.4138 37.4247 50.5365C35.6551 51.0211 33.8329 51.2927 31.9979 51.2738C27.898 51.265 23.955 49.9968 20.6969 47.4873C20.6458 47.448 20.5968 47.4018 20.556 47.3518C18.5148 44.8531 22.5957 42.0519 24.5877 44.41C24.6492 44.4829 24.7188 44.5532 24.7963 44.6088C31.009 49.0638 39.0339 46.82 43.478 41.4768C45.6366 39.0561 46.941 35.8714 47.1528 32.6323C47.1887 32.0829 46.7382 31.6373 46.1876 31.6373H44.7777Z" fill="url(#paint1_linear_8_1090)"/>
<defs>
<linearGradient id="paint0_linear_8_1090" x1="4" y1="32" x2="60" y2="32" gradientUnits="userSpaceOnUse">
<stop stop-color="#02AA93"/>
<stop offset="1" stop-color="#67FF80"/>
</linearGradient>
<linearGradient id="paint1_linear_8_1090" x1="8" y1="31.6373" x2="56" y2="31.6373" gradientUnits="userSpaceOnUse">
<stop stop-color="#02AA93"/>
<stop offset="1" stop-color="#67FF80"/>
</linearGradient>
</defs>
</svg>
