<svg width="32" height="32" viewBox="0 0 32 32" fill="none" xmlns="http://www.w3.org/2000/svg">
<rect opacity="0.4" x="2" y="2" width="28" height="28" rx="7" fill="url(#paint0_linear_281_158)"/>
<path d="M6.4 6.76929C6.17909 6.76929 6 6.94837 6 7.16929V24.8308C6 25.0517 6.17909 25.2308 6.4 25.2308H15.2308V7.16929C15.2308 6.94837 15.0517 6.76929 14.8308 6.76929H6.4ZM15.2308 25.2308H24.0615C24.2825 25.2308 24.4615 25.0517 24.4615 24.8308V16.9657C24.4615 16.6094 24.0307 16.4309 23.7787 16.6829L15.2308 25.2308ZM23.3543 7.75582C23.1806 7.42813 22.6653 7.42803 22.4915 7.75567C22.0856 8.52092 21.5974 9.00922 20.8321 9.41503C20.5045 9.58874 20.5044 10.1039 20.832 10.2776C21.5975 10.6837 22.0857 11.1718 22.4916 11.9372C22.6654 12.2648 23.1806 12.2647 23.3543 11.9371C23.7601 11.1719 24.2484 10.6836 25.0136 10.2778C25.3413 10.104 25.3412 9.58869 25.0135 9.41501C24.2481 9.00934 23.76 8.52124 23.3543 7.75582Z" fill="url(#paint1_linear_281_158)"/>
<defs>
<linearGradient id="paint0_linear_281_158" x1="16" y1="30" x2="16" y2="2" gradientUnits="userSpaceOnUse">
<stop stop-color="#5570FF"/>
<stop offset="1" stop-color="#4DD3FF"/>
</linearGradient>
<linearGradient id="paint1_linear_281_158" x1="16" y1="25.2308" x2="16" y2="6.76929" gradientUnits="userSpaceOnUse">
<stop stop-color="#5570FF"/>
<stop offset="1" stop-color="#4DD3FF"/>
</linearGradient>
</defs>
</svg>
