<svg width="32" height="32" viewBox="0 0 32 32" fill="none" xmlns="http://www.w3.org/2000/svg">
<path opacity="0.4" d="M30 16.0068C30 23.7192 23.7162 30 16 30C8.28378 30 2 23.7192 2 16.0068C2 8.28075 8.28378 2 16 2C23.7162 2 30 8.28075 30 16.0068Z" fill="url(#paint0_linear_223_115)"/>
<path d="M23.25 16.0085C23.25 16.4508 23.1108 16.8948 22.8324 17.2503C22.7802 17.32 22.5366 17.6075 22.3452 17.7947L22.2408 17.8967C20.7791 19.4464 17.1424 21.7769 15.2979 22.5237C15.2979 22.5407 14.2017 22.9847 13.6797 23H13.6101C12.8097 23 12.0614 22.5594 11.6786 21.845C11.4698 21.452 11.2784 20.3123 11.261 20.297C11.1044 19.2746 11 17.7096 11 15.9915C11 14.19 11.1044 12.5553 11.2958 11.5516C11.2958 11.5346 11.4872 10.616 11.609 10.3098C11.8004 9.86926 12.1484 9.49332 12.5835 9.25516C12.9315 9.08676 13.2969 9 13.6797 9C14.0799 9.01871 14.8281 9.27217 15.1239 9.39125C17.0728 10.1397 20.7965 12.5893 22.2234 14.0863C22.467 14.3244 22.728 14.6153 22.7976 14.6817C23.0934 15.0559 23.25 15.5152 23.25 16.0085Z" fill="url(#paint1_linear_223_115)"/>
<defs>
<linearGradient id="paint0_linear_223_115" x1="16" y1="30" x2="16" y2="2" gradientUnits="userSpaceOnUse">
<stop stop-color="#FD2E00"/>
<stop offset="1" stop-color="#FF9900"/>
</linearGradient>
<linearGradient id="paint1_linear_223_115" x1="17.125" y1="23" x2="17.125" y2="9" gradientUnits="userSpaceOnUse">
<stop stop-color="#FD2E00"/>
<stop offset="1" stop-color="#FF9900"/>
</linearGradient>
</defs>
</svg>
