<svg width="48" height="48" viewBox="0 0 48 48" fill="none" xmlns="http://www.w3.org/2000/svg">
<path opacity="0.4" d="M27 11C23.0218 11 19.2064 12.5804 16.3934 15.3934C13.5804 18.2064 12 22.0218 12 26C12 29.9782 13.5804 33.7936 16.3934 36.6066C19.2064 39.4196 23.0218 41 27 41C30.9782 41 34.7936 39.4196 37.6066 36.6066C40.4196 33.7936 42 29.9782 42 26C42 22.0218 40.4196 18.2064 37.6066 15.3934C34.7936 12.5804 30.9782 11 27 11Z" fill="url(#paint0_linear_226_231)"/>
<path fill-rule="evenodd" clip-rule="evenodd" d="M23.3349 3.00001C12.3483 2.99016 3.29591 12.0378 3.0071 23.4508C2.71336 35.0451 11.5735 44.6896 22.7955 44.9927C28.2627 45.1403 33.28 43.0432 37.0241 39.5129C37.3592 39.2333 37.5662 39.0421 37.6245 38.9875C37.6359 38.9768 37.6456 38.9671 37.6563 38.9558C37.8064 38.796 39.0312 37.4225 40.1133 35.648C40.6723 34.7313 39.7607 34.2917 38.9047 34.9398C38.692 35.1008 38.4642 35.2576 38.2188 35.4096C37.8634 35.5742 37.2618 35.8592 36.1435 36.4318C35.4114 36.7493 34.705 37.03 33.9951 37.2693C33.9363 37.2843 33.8773 37.2983 33.8178 37.3125L33.7838 37.3206C33.2663 37.4441 32.724 37.5478 32.1555 37.6261C32.1079 37.6327 32.0594 37.6387 32.011 37.6447L31.9463 37.6528C31.3567 37.7276 30.7478 37.782 30.119 37.8087C30.0841 37.8101 30.0484 37.8106 30.0128 37.811C29.9824 37.8114 29.9521 37.8117 29.9221 37.8128C29.3017 37.834 28.6672 37.8321 28.0231 37.8066C28.0028 37.8057 27.9828 37.8057 27.9628 37.8056C27.9413 37.8055 27.9198 37.8055 27.898 37.8045C27.2429 37.7754 26.5785 37.716 25.9128 37.6383C25.8712 37.6335 25.8296 37.6293 25.788 37.6251C25.7346 37.6197 25.6811 37.6144 25.6277 37.6076C24.9796 37.5252 24.3318 37.4164 23.6876 37.2876C23.5837 37.2669 23.4795 37.246 23.3759 37.2241C22.7455 37.0903 22.1208 36.9333 21.5076 36.7544C21.311 36.6971 21.1151 36.638 20.9211 36.576L20.801 36.5379C20.6942 36.5042 20.5876 36.4705 20.4822 36.4345C20.2922 36.3696 20.1062 36.2999 19.9198 36.23L19.869 36.211L19.7569 36.1692C19.628 36.1212 19.4992 36.0733 19.3727 36.0223C19.2178 35.9598 19.0665 35.8931 18.9151 35.8264L18.8149 35.7823C18.7671 35.7614 18.7191 35.7407 18.6711 35.72C18.5616 35.6728 18.4519 35.6255 18.3452 35.5752C18.0109 35.4178 17.6822 35.2531 17.3649 35.0789C17.1124 34.9392 16.8721 34.793 16.643 34.64C16.1169 34.2888 15.6578 33.9016 15.2464 33.4957C15.2282 33.4771 15.2101 33.4585 15.1923 33.4398C13.1288 31.2668 13.2847 28.7262 13.3962 27.0751C13.4809 25.8245 14.1136 23.6808 15.8418 21.6394C16.0415 21.4036 16.3844 21.3488 16.6374 21.5262C16.8403 21.6632 17.0394 21.8129 17.2381 21.9623C18.0928 22.605 18.9415 23.2431 20.0601 22.8454C21.0027 22.5148 21.0551 21.9551 20.6937 21.0346C20.6794 20.9996 20.6647 20.9633 20.6495 20.926C20.5124 20.5885 20.3401 20.1645 20.1388 19.7562C19.8544 19.1794 20.006 18.3977 20.5919 18.1324C20.7209 18.074 20.8521 18.0167 20.9855 17.9605C24.5519 16.7012 28.7455 16.1357 32.2519 17.2646C34.4088 17.7512 36.0697 18.3493 37.9751 19.0355C38.1883 19.1123 38.4048 19.1903 38.6251 19.2692C38.9818 19.397 39.5983 19.6307 39.9661 19.7219C44.3849 20.4217 44.9303 16.9649 44.9938 16.3079C45.0007 16.2373 44.9956 16.1664 44.9831 16.0965L44.8807 15.5205C44.8688 15.4533 44.85 15.3874 44.8246 15.3241L44.4381 14.3581L44.2357 13.9034L44.1193 13.6684C44.1156 13.6608 44.1132 13.6528 44.1122 13.6444C44.1067 13.5972 44.086 13.4219 44.0567 13.2161C44.053 13.1903 44.0131 13.1972 44.0099 13.223C44.0068 13.2482 43.9745 13.2419 43.9718 13.2167C43.9491 13.0024 43.9387 12.7875 43.9518 12.5979C44.0032 11.8659 43.9617 10.9275 43.8021 9.58931C43.6533 8.3414 42.8795 7.79365 42.5448 7.55669C42.5205 7.53952 42.4986 7.52398 42.4793 7.50993L42.4183 7.46528C42.0376 7.18603 40.789 6.27021 39.5897 5.79954C38.3147 5.29943 37.0261 4.92984 35.4388 5.15353C35.326 5.16948 35.2171 5.18626 35.1077 5.20311C35.0597 5.21051 35.0115 5.21793 34.963 5.22529C34.936 5.22937 34.9085 5.22719 34.883 5.21766C34.8676 5.21192 34.8521 5.20612 34.8339 5.2007C34.5417 5.11393 34.2908 4.8408 34.0537 4.58278C33.7998 4.30632 33.5618 4.04721 33.306 4.05334C33.2681 4.05424 33.2299 4.05749 33.1911 4.06154C33.1533 4.06549 33.1141 4.07054 33.0753 4.07775L33.0732 4.07794L33.0711 4.07814C33.0315 4.08557 32.9921 4.09556 32.9511 4.10666C32.9061 4.11889 32.8626 4.13492 32.8219 4.15383C32.2696 4.41058 31.7572 4.87779 31.1986 4.63507C28.9353 3.65163 26.4607 3.07835 23.8578 3.00821C23.6825 3.00347 23.5093 3.00017 23.3349 3.00001Z" fill="url(#paint1_linear_226_231)"/>
<defs>
<linearGradient id="paint0_linear_226_231" x1="27" y1="41" x2="27" y2="11" gradientUnits="userSpaceOnUse">
<stop stop-color="#FD5900"/>
<stop offset="1" stop-color="#FFDE00"/>
</linearGradient>
<linearGradient id="paint1_linear_226_231" x1="23.9984" y1="45" x2="23.9984" y2="3" gradientUnits="userSpaceOnUse">
<stop stop-color="#FD4C00"/>
<stop offset="1" stop-color="#FFB800"/>
</linearGradient>
</defs>
</svg>
