<svg width="16" height="16" viewBox="0 0 16 16" fill="none" xmlns="http://www.w3.org/2000/svg">
<g clip-path="url(#clip0_227_256)">
<path opacity="0.4" d="M8 16C12.4183 16 16 12.4183 16 8C16 3.58172 12.4183 0 8 0C3.58172 0 0 3.58172 0 8C0 12.4183 3.58172 16 8 16Z" fill="url(#paint0_linear_227_256)"/>
<path d="M5.38108 2.40762C5.33405 2.4367 5.32236 2.5577 5.36324 2.59856C5.41023 2.64556 5.48405 2.62577 5.50956 2.5593C5.53895 2.48272 5.44326 2.36922 5.38108 2.40762ZM10.1064 2.44331C9.99009 2.3987 9.83189 2.62748 9.91899 2.71455C9.96031 2.75585 10.0679 2.74583 10.1188 2.69492C10.1851 2.6287 10.1774 2.47071 10.1064 2.44331ZM7.11559 2.60391C7.06983 2.61112 7.05134 2.63814 7.05134 2.686C7.05134 2.73277 7.02801 2.7431 6.96391 2.72704C6.81704 2.69046 6.07905 2.82511 5.83969 2.93225C5.74705 2.97377 5.65644 3.27194 5.63804 3.2606C5.61964 3.24926 5.54565 3.25209 5.47209 3.26595C5.36446 3.28614 5.30078 3.41845 5.30078 3.49258C5.30078 3.60977 5.08671 3.52377 4.9885 3.49258C4.94991 3.48029 4.90609 3.48953 4.89214 3.51221C4.85521 3.57197 4.97791 3.59786 4.89214 3.59786C4.85177 3.59786 4.78814 3.63356 4.74938 3.67638C4.71062 3.71922 4.65951 3.75311 4.63696 3.75311C4.57985 3.75311 4.30148 4.03173 4.30148 4.08859C4.30148 4.11423 4.19653 4.22839 4.06949 4.34198C3.83002 4.55617 3.81157 4.60965 3.97313 4.60965C4.09812 4.60965 4.09314 4.65536 3.95707 4.75598C3.85516 4.83133 3.8429 4.86352 3.82324 5.15035C3.79768 5.52327 3.32317 5.91601 3.07905 6.19783C2.87747 6.43057 2.82606 6.54645 2.76498 6.90091C2.73943 7.04923 2.6473 7.36485 2.56155 7.60043C2.42096 7.98665 2.40489 8.06662 2.40095 8.41771C2.39658 8.80497 2.39743 8.80825 2.58118 9.19753C2.78602 9.63147 2.79594 9.69987 2.74714 10.3842C2.71621 10.8179 2.75258 11.0078 2.91488 11.2747C2.99785 11.4111 3.2413 11.5975 3.44665 11.6833C3.52297 11.7152 3.58405 11.7612 3.58405 11.7832C3.58405 11.8666 4.24499 12.0148 4.45672 12.0384C4.77939 12.0745 4.53393 12.1377 4.68573 12.2151C4.82914 12.2881 4.72657 12.5473 4.94091 12.8271C5.09132 13.0236 5.23592 13.1091 5.37632 13.0823C5.44962 13.0683 5.50399 13.0883 5.57083 13.1573C5.66747 13.2569 5.90486 13.3344 6.16862 13.3518C6.31797 13.3615 6.32537 13.3555 6.37919 13.2019C6.45576 12.9833 6.42122 12.9146 6.23643 12.9146C6.06755 12.9146 5.99375 12.8606 5.99375 12.7361C5.99375 12.6892 5.96327 12.6379 5.92594 12.6237C5.8655 12.6005 5.86895 12.5901 5.95449 12.5256C6.04636 12.4563 6.04776 12.449 5.98304 12.3775C5.91471 12.3019 5.79213 11.9019 5.80281 11.7886C5.81318 11.6784 5.79959 11.6298 5.75998 11.6298C5.73856 11.6298 5.72072 11.6815 5.72072 11.7458C5.72072 11.8106 5.68725 11.897 5.64399 11.9403C5.54335 12.0408 5.53379 12.0392 5.51908 11.9117C5.50386 11.7798 5.38944 11.7469 5.35847 11.8653C5.34641 11.9115 5.31572 11.942 5.28888 11.9331C5.20574 11.9054 5.20347 11.8207 5.28531 11.7993C5.32939 11.7878 5.37238 11.7331 5.38524 11.6744C5.39773 11.6174 5.41968 11.5316 5.43342 11.4834C5.45193 11.4185 5.44265 11.396 5.39594 11.396C5.29654 11.396 5.30783 11.0447 5.41022 10.957C5.49192 10.8871 5.5144 10.699 5.44948 10.634C5.40476 10.5893 5.48209 10.0719 5.53335 10.0719C5.5516 10.0719 5.56547 10.0536 5.56547 10.0309C5.56547 10.0081 5.419 9.92139 5.23891 9.83816C5.05882 9.75495 4.89948 9.6678 4.88559 9.64543C4.84456 9.57896 4.70893 9.59664 4.70893 9.66863C4.70893 9.78399 4.68158 9.70602 4.65361 9.51338L4.62506 9.32601L4.81421 9.35456C4.91747 9.36984 5.0433 9.41467 5.09437 9.45449C5.14544 9.49431 5.23593 9.52587 5.29602 9.52587C5.35611 9.52587 5.41662 9.54371 5.42985 9.56513C5.44309 9.58642 5.47967 9.60439 5.51194 9.60439C5.55298 9.60439 5.56697 9.57223 5.55834 9.49732C5.54947 9.42017 5.52511 9.39025 5.46911 9.39025C5.37256 9.39025 5.33842 9.24283 5.33528 8.81387C5.33297 8.50143 5.38375 8.43547 5.43164 8.69074C5.44556 8.76493 5.47685 8.82636 5.50123 8.82636C5.54568 8.82636 5.73916 9.04357 5.82779 9.19396C5.85381 9.23806 5.87502 9.31353 5.87597 9.3617C5.87735 9.4495 5.93222 9.47834 5.97233 9.41345C5.99453 9.37754 5.69396 8.85604 5.41915 8.4534C5.28027 8.24996 5.14932 7.94397 5.01586 7.50763C4.98052 7.39211 4.98675 7.36444 5.07117 7.27387C5.15694 7.18188 5.16959 7.03774 5.18717 6.66881C5.19901 6.42032 5.19172 6.32177 5.22642 6.25303C5.25806 6.19037 5.2964 6.02461 5.31029 5.88543C5.32853 5.70262 5.36714 5.58016 5.45127 5.44467C5.51532 5.34153 5.56726 5.24198 5.56726 5.22339C5.56726 5.2048 5.6422 5.14034 5.73321 5.07885L5.89917 4.96643V4.5792V4.19197L6.00088 4.17948C6.09223 4.16886 6.1077 4.18673 6.14721 4.34365C6.17144 4.43992 6.19182 4.55479 6.19182 4.59883C6.19182 4.69538 6.20112 4.69585 6.4131 4.61489C6.57813 4.55188 6.63484 4.48462 6.52195 4.48462C6.43174 4.48462 6.45296 4.40951 6.58441 4.25978C6.66439 4.16867 6.69626 4.09809 6.68255 4.04564C6.66858 3.99221 6.69757 3.93293 6.77177 3.86362C6.83185 3.80749 6.89403 3.72223 6.90918 3.67447C6.92434 3.62671 6.96208 3.58882 6.99305 3.58882C7.02402 3.58882 7.08198 3.56647 7.12332 3.54064C7.18523 3.50182 7.2125 3.50761 7.27856 3.5674C7.34569 3.62808 7.37594 3.63191 7.4588 3.59417C7.83208 3.42409 8.25811 3.73725 8.26894 4.1884C8.27301 4.3575 8.2571 4.41698 8.18864 4.48997C8.14149 4.54025 8.07742 4.64373 8.04589 4.71839C7.96032 4.92092 7.73639 5.14487 7.62118 5.14487C7.52831 5.14487 7.52554 5.15144 7.56765 5.27336C7.59189 5.34354 7.6674 5.48811 7.73539 5.59456C7.90683 5.86331 7.99218 6.05302 7.94417 6.55996C7.91953 6.82048 7.91972 7.1134 7.94417 7.22212C7.96497 7.31452 7.97233 7.40602 7.96023 7.42555C7.94813 7.44511 7.96462 7.55324 7.99771 7.66467C8.03081 7.77612 8.05838 7.91895 8.05838 7.9823C8.05838 8.04566 8.08539 8.11655 8.11905 8.14112C8.18341 8.18819 8.16151 8.39808 8.09228 8.39808C8.03745 8.39808 8.05195 8.5456 8.11013 8.5801C8.139 8.59724 8.2117 8.69076 8.27251 8.7871C8.33333 8.88347 8.44813 9.03158 8.52769 9.11723C8.70752 9.31084 8.83641 9.55041 8.83641 9.69183C8.83641 9.81651 8.77714 9.83671 8.74718 9.72216C8.71975 9.61732 8.65016 9.6225 8.63476 9.73109C8.60705 9.92618 8.29214 9.79333 8.29214 9.58655C8.29214 9.53369 8.2511 9.4159 8.20292 9.32423L8.11548 9.15648L8.10477 9.36348C8.09826 9.47711 8.1214 9.71054 8.15652 9.88276C8.20406 10.1157 8.21388 10.2867 8.194 10.5519C8.17014 10.8702 8.17429 10.9155 8.23861 10.9713C8.27824 11.0057 8.87565 11.3216 9.56626 11.6726C10.2569 12.0236 10.8225 12.3297 10.8225 12.3543C10.8225 12.3787 10.7939 12.4109 10.7601 12.4238C10.6186 12.4781 10.7699 12.5439 8.23861 11.2996C7.55631 10.9643 6.99072 10.6969 6.98234 10.7054C6.97395 10.7138 7.23387 10.858 7.56051 11.0248C7.88715 11.1917 8.17748 11.3457 8.2047 11.3674C8.2428 11.3978 8.25233 11.6304 8.24575 12.3757C8.23855 13.19 8.24693 13.3529 8.29571 13.4017C8.32802 13.434 8.48202 13.4747 8.64368 13.4945C8.80339 13.5144 9.10051 13.5263 9.30394 13.5213C9.76863 13.5099 9.9004 13.6288 10.3425 13.2054C10.5847 12.9735 10.7403 12.8616 10.9671 12.7558C11.2911 12.6046 11.8814 12.5951 12.3708 12.6451C12.6825 12.6769 12.69 12.6748 12.7527 12.5791C12.7963 12.5126 12.82 12.3765 12.8277 12.149C12.834 11.9615 12.8599 11.7904 12.8866 11.7582C12.9142 11.7249 12.9228 11.6604 12.908 11.6012C12.8922 11.5383 13.0133 11.4665 13.0489 11.4121C13.0805 11.3639 13.1362 11.0129 13.1721 10.8553C13.2371 10.5695 13.3885 10.3057 13.4879 10.3057C13.5156 10.3057 13.5852 10.2511 13.6414 10.1843L13.7431 10.063L13.7288 9.10296C13.7146 8.13306 13.6651 7.58494 13.4915 6.95445C13.4602 6.84089 13.3138 6.56786 13.2988 6.34952C13.2838 6.13118 13.2533 5.9328 13.2327 5.90697C13.1747 5.83426 13.2358 5.77522 13.3416 5.80169C13.5088 5.84368 13.7371 5.62523 13.6806 5.47691C13.6705 5.45032 13.593 5.40754 13.5093 5.38234C13.2877 5.3159 13.248 5.25276 13.3577 5.13608C13.4317 5.05726 13.4397 5.03023 13.3987 4.98083C13.3331 4.9017 13.2846 4.90615 13.2506 4.99332C13.2193 5.07349 13.0241 5.31096 12.99 5.31096C12.9313 5.31096 12.9804 5.13343 13.0668 5.0308C13.2081 4.86289 13.1846 4.81767 13.0222 4.94157C12.9196 5.01985 12.8742 5.03533 12.8526 5.00046C12.8121 4.93484 12.8463 4.62172 12.9133 4.4437C12.9437 4.36296 12.9686 4.24767 12.9686 4.18674C12.9686 4.12582 13.0043 4.03061 13.0472 3.97617C13.09 3.92171 13.1239 3.85072 13.1239 3.81736C13.1239 3.72562 13.3356 3.50246 13.5736 3.34447C13.6417 3.29926 13.6945 3.25816 13.7306 3.22134C13.6937 3.17748 13.6562 3.13405 13.6182 3.09107C13.5342 3.13568 13.4284 3.21306 13.2934 3.34803C13.0713 3.57016 12.9886 3.60099 12.908 3.49079C12.8627 3.42883 12.8523 3.42896 12.7866 3.48544C12.7472 3.5194 12.6854 3.55754 12.6474 3.57109C12.6095 3.58458 12.5664 3.62771 12.5529 3.66567C12.4964 3.824 12.4594 3.83378 12.3209 3.72813C12.2475 3.67208 12.1847 3.6325 12.1799 3.64069C12.1752 3.64904 12.1505 3.69067 12.1264 3.73348C12.0801 3.81573 12.0733 3.81606 11.6553 3.76203C11.451 3.73563 11.3894 3.7092 11.2663 3.59072C11.0724 3.40432 10.7416 3.19995 10.7006 3.24097C10.6826 3.25892 10.6861 3.31956 10.7077 3.37658C10.7293 3.4336 10.7384 3.48008 10.7273 3.48008C10.689 3.48008 10.3784 3.31643 10.3187 3.26416C10.2857 3.23524 10.1465 3.18167 10.0082 3.14639C9.86994 3.11108 9.67548 3.31425 9.57637 3.26416C9.47726 3.21404 9.38573 2.91041 9.37294 2.92333C9.36014 2.93618 9.3247 2.92712 9.29442 2.90192C9.26415 2.87681 9.07552 2.82899 8.87507 2.79663C8.67463 2.76431 8.42392 2.71183 8.31832 2.68064C8.10022 2.61606 7.76438 2.60705 7.62237 2.66101C7.55637 2.68622 7.46845 2.67869 7.33864 2.6396C7.23427 2.60819 7.16134 2.5967 7.11559 2.60391ZM14.0929 3.83519C13.9833 3.83452 13.875 3.93302 13.9162 4.04041C13.9473 4.12206 14.1128 4.12221 14.1928 4.04219C14.2686 3.96636 14.27 3.93233 14.1982 3.87267C14.1673 3.84706 14.1294 3.83542 14.0929 3.83519ZM6.98948 4.02423C6.95942 3.99417 6.81584 4.17116 6.8146 4.24015C6.81413 4.26677 6.83122 4.29011 6.85208 4.29011C6.9015 4.29011 7.02206 4.0568 6.98948 4.02423ZM13.636 4.19923C13.6107 4.21198 13.5914 4.24092 13.5914 4.27774C13.5914 4.30647 13.4932 4.41835 13.3737 4.52757C13.1915 4.69412 13.1705 4.72743 13.2435 4.72743C13.4478 4.72743 13.8244 4.31976 13.7181 4.2135C13.6936 4.18901 13.6614 4.18647 13.636 4.19923ZM3.79469 4.29916C3.75186 4.29916 3.71795 4.31521 3.71795 4.33663C3.71795 4.35793 3.75186 4.37589 3.79469 4.37589C3.83751 4.37589 3.8732 4.35805 3.8732 4.33663C3.8732 4.31533 3.83751 4.29916 3.79469 4.29916ZM14.2481 4.92907C14.1252 4.91881 14.0912 4.93676 13.9858 5.06469C13.859 5.21852 13.8193 5.44283 13.9126 5.48048C14.003 5.51692 14.0213 5.50683 14.216 5.30203C14.4511 5.05467 14.4597 4.94672 14.2481 4.92907ZM6.27926 5.10026C6.23368 5.05468 5.95806 5.13584 5.95806 5.19484C5.95806 5.21343 5.98839 5.22098 6.02587 5.2109C6.06334 5.20075 6.14411 5.18015 6.2061 5.16629C6.2845 5.14871 6.30758 5.12861 6.27926 5.10026ZM13.3077 5.36449C13.321 5.37775 13.2978 5.41393 13.2577 5.44479C13.1604 5.51998 13.0864 5.52106 13.0864 5.44836C13.0864 5.38879 13.2642 5.32101 13.3077 5.36449ZM13.6539 5.77848C13.62 5.77848 13.5914 5.80522 13.5914 5.83915C13.5914 5.87308 13.6124 5.89406 13.6378 5.88555C13.71 5.86148 13.7226 5.77848 13.6539 5.77848ZM6.01873 7.54154C5.98815 7.54154 6.00621 8.16168 6.04014 8.27317C6.06165 8.34389 6.0996 8.39556 6.12401 8.38738C6.20815 8.35934 6.24299 8.13372 6.19004 7.95911C6.13716 7.78477 6.03741 7.54154 6.01873 7.54154ZM4.67859 9.81852L4.71785 9.96842C4.74599 10.0746 4.74528 10.1299 4.71428 10.1611C4.68215 10.1932 4.67217 10.1534 4.67502 10.0112L4.67859 9.81852ZM6.93773 10.1576C6.89499 10.1657 6.86572 10.2133 6.85743 10.2861C6.8443 10.4013 6.84436 10.4021 6.92524 10.3289C7.02464 10.2389 7.03157 10.1396 6.93773 10.1576ZM4.68216 10.2807C4.68625 10.2766 4.69023 10.283 4.69644 10.2985C4.70763 10.3266 4.7076 10.3606 4.69465 10.3735C4.68174 10.3864 4.67167 10.3628 4.67324 10.3217C4.67418 10.2991 4.67806 10.2848 4.68216 10.2807ZM6.7343 10.6947C6.71288 10.6947 6.69504 10.7125 6.69504 10.734C6.69504 10.7553 6.71288 10.7732 6.7343 10.7732C6.75572 10.7732 6.77356 10.7554 6.77356 10.734C6.77356 10.7127 6.75572 10.6947 6.7343 10.6947ZM4.6893 10.916C4.71071 10.9203 4.74341 10.9827 4.76068 11.0534C4.77794 11.124 4.80221 11.2211 4.81421 11.2693C4.84649 11.3988 4.71795 11.3831 4.66788 11.2515C4.62036 11.1265 4.63419 10.9049 4.6893 10.916ZM4.94032 11.8332C4.96428 11.8366 4.62551 11.8578 4.63755 11.8939C4.64603 11.9193 4.62506 11.9403 4.59115 11.9403C4.55726 11.9403 4.89392 11.9135 4.89392 11.8796C4.89392 11.8452 4.91635 11.8298 4.94032 11.8332ZM5.11757 12.2918C5.1497 12.2918 5.17646 12.3168 5.17646 12.3489C5.17646 12.3812 5.1497 12.4078 5.11757 12.4078C5.08544 12.4078 5.06047 12.381 5.06047 12.3489C5.06047 12.3166 5.08545 12.2918 5.11757 12.2918ZM5.75463 12.4917C5.78672 12.5159 5.80638 12.6014 5.80638 12.7451C5.80638 12.8519 5.78559 12.9379 5.75463 12.9574C5.68354 13.0026 5.57523 12.9996 5.54584 12.952C5.51833 12.9075 5.54627 12.7978 5.62971 12.613C5.6781 12.5058 5.72253 12.4674 5.75463 12.4917ZM7.41062 12.5845C7.37833 12.5813 7.35708 12.6018 7.35708 12.6469C7.35708 12.6691 7.32107 12.7382 7.27678 12.8004C7.20474 12.9015 7.17419 12.9146 6.98413 12.9146C6.7919 12.9146 6.76688 12.9242 6.73252 13.0145C6.68911 13.1287 6.68322 13.356 6.72181 13.3946C6.76121 13.4341 6.88199 13.4243 6.90918 13.3803C6.92241 13.359 6.97416 13.3428 7.02517 13.3428C7.07618 13.3428 7.12971 13.3589 7.14294 13.3803C7.15618 13.4016 7.22501 13.4196 7.29641 13.4196C7.43302 13.4196 7.47307 13.3713 7.47307 13.2054C7.47307 13.1549 7.49091 13.1027 7.51233 13.0895C7.53375 13.0763 7.55159 13.0852 7.55159 13.1091C7.55159 13.133 7.56943 13.1419 7.59085 13.1287C7.61227 13.1155 7.63011 13.0298 7.63011 12.9378C7.63011 12.8133 7.60454 12.7431 7.53196 12.6647C7.48606 12.6152 7.4429 12.5876 7.41062 12.5845Z" fill="url(#paint1_linear_227_256)"/>
</g>
<defs>
<linearGradient id="paint0_linear_227_256" x1="8" y1="0" x2="8" y2="16" gradientUnits="userSpaceOnUse">
<stop stop-color="#F75050"/>
<stop offset="1" stop-color="#A00909"/>
</linearGradient>
<linearGradient id="paint1_linear_227_256" x1="8.3999" y1="2.3999" x2="8.3999" y2="13.5284" gradientUnits="userSpaceOnUse">
<stop stop-color="#F75050"/>
<stop offset="1" stop-color="#A00909"/>
</linearGradient>
<clipPath id="clip0_227_256">
<rect width="16" height="16" fill="white"/>
</clipPath>
</defs>
</svg>
