<svg width="24" height="24" viewBox="0 0 24 24" fill="none" xmlns="http://www.w3.org/2000/svg">
<path d="M22.9999 14.9726V16.4945C22.9999 16.747 22.9889 17.0018 22.9669 17.2543C22.6582 20.7293 20.2444 23 16.7614 23H7.2384C5.47487 23 3.9869 22.4276 2.91776 21.3899C2.49892 21.005 2.14622 20.5529 1.87067 20.0345C2.23439 19.5923 2.64221 19.1082 3.039 18.6229C3.71135 17.8179 4.36165 17.0227 4.76946 16.5055C5.37568 15.7556 6.97387 13.7816 9.1893 14.7079C9.64121 14.8954 10.038 15.1601 10.4017 15.3917C11.2945 15.9872 11.6693 16.1636 12.2975 15.8218C12.9919 15.4468 13.4438 14.7079 13.9178 13.936C14.1713 13.5268 14.4248 13.1309 14.7003 12.767C15.9017 11.201 17.7534 10.7819 19.2965 11.7083C20.0681 12.1714 20.7294 12.7559 21.3466 13.3504C21.4789 13.4827 21.6111 13.6051 21.7324 13.7264C21.8977 13.8918 22.4488 14.4432 22.9999 14.9726" fill="url(#paint0_linear_11_148)"/>
<path opacity="0.4" d="M16.7725 1H7.23848C3.502 1 1 3.61368 1 7.50552V16.4946C1 17.85 1.30862 19.0531 1.87074 20.0346C2.23447 19.5924 2.64228 19.1083 3.03908 18.6219C3.71142 17.818 4.36172 17.0228 4.76954 16.5056C5.37575 15.7557 6.97395 13.7817 9.18938 14.708C9.64128 14.8955 10.0381 15.1602 10.4018 15.3918C11.2946 15.9873 11.6693 16.1637 12.2976 15.8208C12.992 15.4469 13.4439 14.708 13.9178 13.9349C14.1713 13.5269 14.4249 13.131 14.7004 12.7671C15.9018 11.2011 17.7535 10.782 19.2966 11.7084C20.0681 12.1715 20.7295 12.756 21.3467 13.3505C21.479 13.4828 21.6112 13.6052 21.7325 13.7265C21.8978 13.8908 22.4489 14.4422 23 14.9727V7.50552C23 3.61368 20.498 1 16.7725 1" fill="url(#paint1_linear_11_148)"/>
<path d="M11.3999 8.47632C11.3999 10.0258 10.1092 11.3161 8.56059 11.3161C7.01309 11.3161 5.72241 10.0258 5.72241 8.47632C5.72241 6.92797 7.01309 5.63657 8.56059 5.63657C10.1092 5.63657 11.3999 6.92797 11.3999 8.47632" fill="url(#paint2_linear_11_148)"/>
<defs>
<linearGradient id="paint0_linear_11_148" x1="12.4353" y1="23" x2="12.4353" y2="11.2215" gradientUnits="userSpaceOnUse">
<stop stop-color="#5570FF"/>
<stop offset="1" stop-color="#4DD3FF"/>
</linearGradient>
<linearGradient id="paint1_linear_11_148" x1="12" y1="20.0346" x2="12" y2="1" gradientUnits="userSpaceOnUse">
<stop stop-color="#5570FF"/>
<stop offset="1" stop-color="#4DD3FF"/>
</linearGradient>
<linearGradient id="paint2_linear_11_148" x1="8.56114" y1="11.3161" x2="8.56114" y2="5.63657" gradientUnits="userSpaceOnUse">
<stop stop-color="#5570FF"/>
<stop offset="1" stop-color="#4DD3FF"/>
</linearGradient>
</defs>
</svg>
