<svg width="32" height="32" viewBox="0 0 32 32" fill="none" xmlns="http://www.w3.org/2000/svg">
<path opacity="0.5" fill-rule="evenodd" clip-rule="evenodd" d="M27.7005 6.61386C27.36 6.18939 26.995 5.78184 26.6066 5.3934C23.7936 2.58035 19.9782 1 16 1C12.0218 1 8.20644 2.58035 5.3934 5.3934C2.58035 8.20644 1 12.0218 1 16C1 19.9782 2.58035 23.7936 5.3934 26.6066C8.20644 29.4196 12.0218 31 16 31C19.9782 31 23.7936 29.4196 26.6066 26.6066C26.8853 26.3279 27.152 26.0394 27.4062 25.7417C27.4216 25.7277 27.4362 25.7126 27.4501 25.6964L28.5455 24.4156C28.6441 24.3002 28.6881 24.1559 28.6793 24.0148C30.1834 21.6352 31 18.8597 31 16C31 13.1421 30.1844 10.3683 28.6822 7.9898C28.6874 7.85399 28.6433 7.71619 28.5487 7.60562L27.7005 6.61386ZM7.10795 6.58839L7.1089 6.58911C7.87289 7.16181 8.8007 7.66306 9.85522 8.07272C10.0841 8.16163 10.3857 8.03197 10.4798 7.71989C10.6884 7.02839 10.9246 6.37905 11.187 5.78022C11.3045 5.51204 11.2363 5.0523 10.9726 4.66877C10.8482 4.48777 10.709 4.36978 10.5896 4.31505C10.4831 4.26621 10.3996 4.26778 10.3159 4.3085C9.13363 4.88326 8.03601 5.63851 7.06565 6.55662C7.07968 6.56723 7.09378 6.57782 7.10795 6.58839ZM7.1089 25.43L7.10583 25.4323C7.09611 25.4395 7.08641 25.4467 7.07675 25.4539C8.04438 26.3672 9.13814 27.1189 10.3159 27.6915C10.3997 27.7322 10.4831 27.7338 10.5896 27.685C10.709 27.6302 10.8482 27.5122 10.9726 27.3312C11.2363 26.9477 11.3045 26.488 11.187 26.2198C10.9268 25.6258 10.6922 24.9821 10.4849 24.2969C10.3906 23.9851 10.0892 23.8556 9.86041 23.9444C8.80375 24.3544 7.87415 24.8564 7.1089 25.43ZM25.321 7.25504L25.3228 7.25401C25.4195 7.19928 25.4461 7.06761 25.3568 6.97505C25.3026 6.9188 25.2478 6.86298 25.1924 6.80761C24.1602 5.77547 22.9724 4.93483 21.6841 4.30851C21.6004 4.2678 21.5169 4.26623 21.4104 4.31506C21.291 4.36979 21.1518 4.48778 21.0274 4.66877C20.7637 5.0523 20.6956 5.51203 20.8131 5.78021C21.1296 6.50276 21.4082 7.29904 21.6461 8.15449C21.7286 8.45123 22.0072 8.59384 22.2389 8.52714C23.3825 8.19794 24.4227 7.76822 25.321 7.25504ZM5.75236 23.6193L5.75902 23.6282L5.45921 23.228C6.55089 22.4102 7.86014 21.7332 9.31294 21.2142C9.57016 21.1223 9.72525 20.8641 9.68849 20.6043C9.56457 19.7285 9.47591 18.816 9.42517 17.8763C9.40975 17.5906 9.17843 17.3749 8.9108 17.3749H3.59537C3.2944 17.3749 3.09905 17.6209 3.1343 17.8642C3.41188 19.78 4.11382 21.6076 5.18486 23.2135C5.2074 23.2473 5.24174 23.2695 5.29086 23.2758C5.34321 23.2824 5.40524 23.2687 5.45813 23.2288L5.45921 23.228L5.75236 23.6193ZM5.17114 8.80714C4.10785 10.408 3.41073 12.2281 3.13432 14.1356C3.09907 14.379 3.29441 14.6249 3.59539 14.6249H8.91081C9.17844 14.6249 9.40975 14.4093 9.42518 14.1235C9.47558 13.1902 9.5634 12.2836 9.68603 11.4132C9.7226 11.1536 9.56761 10.8956 9.3106 10.8037C7.85867 10.2845 6.55018 9.60739 5.45904 8.78921C5.40362 8.74772 5.33879 8.73358 5.28364 8.74069C5.23174 8.74738 5.19509 8.77109 5.17114 8.80714ZM21.6841 27.6915C22.9724 27.0652 24.1602 26.2245 25.1924 25.1924C25.2469 25.1378 25.3009 25.0829 25.3544 25.0275C25.4365 24.9424 25.415 24.818 25.3207 24.7639C24.4213 24.2494 23.3795 23.8191 22.234 23.4898C22.0025 23.4233 21.7242 23.5657 21.6415 23.8622C21.4046 24.7113 21.1275 25.5019 20.8131 26.2198C20.6956 26.488 20.7638 26.9477 21.0274 27.3312C21.1518 27.5122 21.291 27.6302 21.4104 27.6849C21.5169 27.7338 21.6004 27.7322 21.6841 27.6915ZM26.703 9.6313L26.687 9.64043C25.5292 10.3028 24.2099 10.8369 22.7852 11.23C22.512 11.3054 22.3369 11.5695 22.3712 11.8416C22.4643 12.5798 22.5327 13.3423 22.5748 14.1236C22.5903 14.4093 22.8216 14.6249 23.0892 14.6249H28.4046C28.7056 14.6249 28.9009 14.379 28.8657 14.1357C28.6435 12.6021 28.1494 11.1251 27.4117 9.77306C27.3001 9.56866 26.9939 9.46434 26.703 9.6313ZM27.4054 22.2385C28.1466 20.8833 28.6429 19.4022 28.8657 17.8642C28.901 17.6209 28.7056 17.3749 28.4046 17.3749H23.0892C22.8216 17.3749 22.5903 17.5906 22.5749 17.8763C22.5323 18.6639 22.4632 19.4324 22.3689 20.1762C22.3344 20.4484 22.5096 20.7128 22.7831 20.7882C24.2078 21.1809 25.5272 21.7144 26.6851 22.3758C26.9856 22.5459 27.2964 22.4377 27.4054 22.2385ZM12.1814 17.8716C12.2234 18.5634 12.288 19.2345 12.3724 19.8801C12.4059 20.1356 12.6633 20.3397 12.9735 20.2902C14.1795 20.0978 15.4381 19.9974 16.7227 19.9974C17.5217 19.9974 18.3108 20.0362 19.0837 20.1118C19.3818 20.1409 19.6209 19.9397 19.6515 19.6924C19.7243 19.1047 19.7807 18.4966 19.8186 17.8716C19.8346 17.6081 19.6212 17.3749 19.335 17.3749H12.665C12.3789 17.3749 12.1654 17.6081 12.1814 17.8716ZM12.3699 12.139C12.2867 12.7786 12.223 13.4434 12.1814 14.1282C12.1654 14.3918 12.3789 14.6249 12.6651 14.6249H19.335C19.6211 14.6249 19.8346 14.3918 19.8186 14.1282C19.7811 13.5102 19.7256 12.9085 19.6539 12.3269C19.6234 12.0794 19.3842 11.8779 19.0859 11.9071C18.3122 11.9829 17.5224 12.0217 16.7227 12.0217C15.4373 12.0217 14.1779 11.9212 12.9712 11.7285C12.6608 11.679 12.4032 11.8832 12.3699 12.139ZM17.4579 5.33031C16.9018 4.54355 16.3922 4.25 16 4.25C15.6163 4.25 15.1195 4.53065 14.5749 5.28443C14.0441 6.01929 13.5414 7.10814 13.1305 8.47764C13.0551 8.72901 13.2158 8.98373 13.4747 9.02409C14.5139 9.18607 15.6045 9.27168 16.7227 9.27168C17.3391 9.27168 17.9476 9.24571 18.5442 9.19516C18.8169 9.17205 18.9959 8.91134 18.92 8.64898C18.5089 7.22909 17.9992 6.09627 17.4579 5.33031ZM18.5387 22.8233C17.9439 22.7732 17.3373 22.7474 16.7227 22.7474C15.6065 22.7474 14.5177 22.8327 13.4802 22.9942C13.2211 23.0345 13.0604 23.2895 13.1361 23.5409C13.5469 24.9049 14.0488 25.989 14.5785 26.7205C15.1218 27.4707 15.6172 27.75 16 27.75C16.3912 27.75 16.8995 27.4579 17.4543 26.6747C17.9945 25.9122 18.5034 24.7842 18.9145 23.3698C18.9908 23.1074 18.8118 22.8464 18.5387 22.8233Z" fill="url(#paint0_linear_343_462)"/>
<path fill-rule="evenodd" clip-rule="evenodd" d="M9.85515 8.07275C8.80071 7.66309 7.87273 7.16162 7.10784 6.58838L7.0656 6.55664C8.03606 5.63867 9.13347 4.8833 10.3158 4.30859C10.3996 4.26758 10.4831 4.26611 10.5895 4.31494C10.7089 4.36963 10.8481 4.48779 10.9726 4.66895C11.1298 4.89746 11.2175 5.15332 11.2377 5.37939C11.2514 5.53271 11.2343 5.67188 11.1869 5.78027C10.9245 6.37891 10.6884 7.02832 10.4797 7.71973C10.3857 8.03174 10.0839 8.16162 9.85515 8.07275ZM7.10564 25.4321L7.10882 25.4302C7.8742 24.8564 8.80364 24.3545 9.86028 23.9443C10.089 23.8555 10.3906 23.9849 10.4848 24.2969C10.6921 24.9819 10.9267 25.626 11.1869 26.2197C11.3044 26.4878 11.2363 26.9478 10.9726 27.3311C10.903 27.4326 10.8288 27.5142 10.7558 27.5757C10.6984 27.6245 10.642 27.6611 10.5895 27.6851C10.5356 27.71 10.4875 27.7217 10.4423 27.7222C10.3984 27.7222 10.3571 27.7114 10.3158 27.6914C9.13811 27.1191 8.04436 26.3672 7.07659 25.4541L7.10564 25.4321ZM25.3566 6.9751C25.446 7.06738 25.4194 7.19922 25.321 7.25488C24.4225 7.76807 23.3825 8.19775 22.2389 8.52734C22.007 8.59375 21.7284 8.45117 21.6459 8.1543C21.4081 7.29883 21.1296 6.50293 20.8129 5.78027C20.6955 5.51221 20.7636 5.05225 21.0273 4.66895C21.1518 4.48779 21.2909 4.36963 21.4103 4.31494C21.4677 4.28857 21.5182 4.27686 21.5658 4.27832C21.6069 4.2793 21.6454 4.28955 21.684 4.30859C22.9723 4.93506 24.1601 5.77539 25.1923 6.80762C25.2477 6.86279 25.3024 6.91895 25.3566 6.9751ZM9.31292 21.2144C7.86004 21.7334 6.55071 22.4102 5.45916 23.228C5.43767 23.2441 5.41619 23.2554 5.39422 23.2637C5.35906 23.2764 5.32293 23.2798 5.2907 23.2759C5.24163 23.2695 5.20745 23.2471 5.18474 23.2134C4.1137 21.6074 3.41179 19.7798 3.13421 17.8643C3.09905 17.6211 3.29436 17.375 3.59539 17.375H8.91082C9.1784 17.375 9.4096 17.5908 9.42498 17.8765C9.47576 18.8159 9.56438 19.7285 9.68841 20.6045C9.72527 20.8643 9.57 21.1221 9.31292 21.2144ZM3.13421 14.1357C3.41057 12.228 4.10784 10.4082 5.17107 8.80713C5.195 8.771 5.23162 8.74756 5.28362 8.74072C5.3388 8.7334 5.40349 8.74756 5.45891 8.78906C6.55022 9.60742 7.85857 10.2847 9.31048 10.8037C9.56756 10.8955 9.72259 11.1538 9.68596 11.4131C9.56341 12.2837 9.47551 13.1904 9.42522 14.1235C9.4096 14.4092 9.1784 14.625 8.91082 14.625H3.59539C3.29436 14.625 3.09905 14.3789 3.13421 14.1357ZM25.1923 25.1924C24.1601 26.2246 22.9723 27.0654 21.684 27.6914C21.6003 27.7324 21.5168 27.7339 21.4103 27.6851C21.2909 27.6304 21.1518 27.5122 21.0273 27.3311C20.7638 26.9478 20.6955 26.4878 20.8129 26.2197C21.1274 25.502 21.4045 24.7114 21.6415 23.8623C21.724 23.5659 22.0024 23.4233 22.2338 23.4897C23.3793 23.8193 24.4213 24.2495 25.3207 24.7637C25.415 24.8179 25.4365 24.9424 25.3544 25.0273L25.1923 25.1924ZM26.6869 9.64062L26.7028 9.63135C26.9938 9.46436 27.3 9.56885 27.4115 9.77295C28.1493 11.125 28.6435 12.6021 28.8657 14.1357C28.9008 14.3789 28.7055 14.625 28.4045 14.625H23.089C22.9076 14.625 22.7431 14.5259 22.6511 14.373C22.6071 14.3003 22.5798 14.2158 22.5746 14.1235C22.5326 13.3423 22.4643 12.5796 22.371 11.8418C22.3368 11.5693 22.5119 11.3052 22.7851 11.23C24.2099 10.8369 25.5292 10.3027 26.6869 9.64062ZM28.8657 17.8643C28.6428 19.4023 28.1464 20.8833 27.4054 22.2383C27.2963 22.4375 26.9855 22.5459 26.685 22.376C25.527 21.7144 24.2077 21.1807 22.7831 20.7881C22.6327 20.7466 22.5121 20.6479 22.4396 20.5225C22.3803 20.4199 22.3532 20.2988 22.3688 20.1763C22.4631 19.4326 22.5322 18.6641 22.5749 17.8765C22.5903 17.5908 22.8215 17.375 23.089 17.375H28.4045C28.7055 17.375 28.9008 17.6211 28.8657 17.8643ZM12.321 19.4634C12.2614 18.9473 12.2143 18.416 12.1813 17.8716C12.1752 17.77 12.2028 17.6733 12.2555 17.5928C12.3403 17.4634 12.4889 17.375 12.665 17.375H19.3349C19.4499 17.375 19.5532 17.4126 19.6345 17.4746C19.7555 17.5674 19.8281 17.7139 19.8185 17.8716C19.7807 18.4966 19.7243 19.1045 19.6515 19.6924C19.6208 19.9399 19.3818 20.1411 19.0837 20.1118C18.3107 20.0361 17.5217 19.9976 16.7226 19.9976C15.4379 19.9976 14.1794 20.0977 12.9733 20.29C12.6633 20.3398 12.4059 20.1357 12.3722 19.8799C12.3542 19.7422 12.3371 19.6035 12.321 19.4634ZM12.1813 14.1284C12.2228 13.4434 12.2865 12.7788 12.3698 12.1392C12.4032 11.8833 12.6608 11.6792 12.9711 11.7285C14.1779 11.9214 15.4372 12.0215 16.7226 12.0215C17.5224 12.0215 18.3122 11.9829 19.0859 11.9072C19.3842 11.8779 19.6232 12.0796 19.6537 12.3267C19.7255 12.9087 19.7809 13.5103 19.8185 14.1284C19.8346 14.3916 19.621 14.625 19.3349 14.625H12.665C12.3788 14.625 12.1652 14.3916 12.1813 14.1284ZM15.9999 4.25C16.392 4.25 16.9018 4.54346 17.4579 5.33008C17.9992 6.09619 18.5087 7.229 18.9199 8.64893C18.9958 8.91113 18.8168 9.17188 18.5441 9.19531C17.9474 9.24561 17.339 9.27148 16.7226 9.27148C15.6044 9.27148 14.5138 9.18604 13.4745 9.02393C13.2157 8.98389 13.0551 8.729 13.1305 8.47754C13.5414 7.10791 14.0441 6.01953 14.5749 5.28467C15.1193 4.53076 15.6161 4.25 15.9999 4.25ZM16.7226 22.7476C17.3373 22.7476 17.9438 22.7734 18.5387 22.8232C18.8117 22.8462 18.9907 23.1074 18.9145 23.3696C18.5033 24.7842 17.9943 25.9121 17.4543 26.6748C16.8993 27.458 16.391 27.75 15.9999 27.75C15.6171 27.75 15.1218 27.4707 14.5785 26.7207C14.0488 25.9888 13.5468 24.9048 13.1359 23.541C13.0602 23.2896 13.2211 23.0347 13.4802 22.9941C14.5175 22.8325 15.6064 22.7476 16.7226 22.7476Z" fill="url(#paint1_linear_343_462)"/>
<defs>
<linearGradient id="paint0_linear_343_462" x1="16" y1="1.5" x2="16" y2="30.5" gradientUnits="userSpaceOnUse">
<stop stop-color="#DC18FC"/>
<stop offset="1" stop-color="#8E1EFF"/>
</linearGradient>
<linearGradient id="paint1_linear_343_462" x1="16" y1="2" x2="16" y2="30" gradientUnits="userSpaceOnUse">
<stop stop-color="#DC18FC"/>
<stop offset="1" stop-color="#8E1EFF"/>
</linearGradient>
</defs>
</svg>
