<svg width="24" height="24" viewBox="0 0 24 24" fill="none" xmlns="http://www.w3.org/2000/svg">
<path opacity="0.5" fill-rule="evenodd" clip-rule="evenodd" d="M1 3.84615C1 3.62174 1.08915 3.40652 1.24783 3.24783C1.40652 3.08915 1.62174 3 1.84615 3H15.3846C15.609 3 15.8242 3.08915 15.9829 3.24783C16.1416 3.40652 16.2308 3.62174 16.2308 3.84615C16.2308 4.07057 16.1416 4.28579 15.9829 4.44447C15.8242 4.60316 15.609 4.69231 15.3846 4.69231H1.84615C1.62174 4.69231 1.40652 4.60316 1.24783 4.44447C1.08915 4.28579 1 4.07057 1 3.84615ZM1 8.35897C1 8.13456 1.08915 7.91934 1.24783 7.76065C1.40652 7.60197 1.62174 7.51282 1.84615 7.51282H13.1282C13.3526 7.51282 13.5678 7.60197 13.7265 7.76065C13.8852 7.91934 13.9744 8.13456 13.9744 8.35897C13.9744 8.58339 13.8852 8.79861 13.7265 8.95729C13.5678 9.11598 13.3526 9.20513 13.1282 9.20513H1.84615C1.62174 9.20513 1.40652 9.11598 1.24783 8.95729C1.08915 8.79861 1 8.58339 1 8.35897ZM1 12.8718C1 12.6474 1.08915 12.4322 1.24783 12.2735C1.40652 12.1148 1.62174 12.0256 1.84615 12.0256H8.61538C8.8398 12.0256 9.05502 12.1148 9.2137 12.2735C9.37239 12.4322 9.46154 12.6474 9.46154 12.8718C9.46154 13.0962 9.37239 13.3114 9.2137 13.4701C9.05502 13.6288 8.8398 13.7179 8.61538 13.7179H1.84615C1.62174 13.7179 1.40652 13.6288 1.24783 13.4701C1.08915 13.3114 1 13.0962 1 12.8718ZM1 17.3846C1 17.1602 1.08915 16.945 1.24783 16.7863C1.40652 16.6276 1.62174 16.5385 1.84615 16.5385H7.48718C7.71159 16.5385 7.92681 16.6276 8.0855 16.7863C8.24418 16.945 8.33333 17.1602 8.33333 17.3846C8.33333 17.609 8.24418 17.8243 8.0855 17.9829C7.92681 18.1416 7.71159 18.2308 7.48718 18.2308H1.84615C1.62174 18.2308 1.40652 18.1416 1.24783 17.9829C1.08915 17.8243 1 17.609 1 17.3846Z" fill="url(#paint0_linear_8_764)"/>
<path d="M20.2867 4.96648C20.6003 4.85028 20.9749 4.75213 21.381 4.82546C21.8797 4.91572 22.3242 5.19664 22.622 5.60618C22.8646 5.94013 22.9379 6.32146 22.9695 6.65541C23 6.9792 23 7.38423 23 7.84566V7.96977C23 8.30823 23.0022 8.66925 22.8804 9.00207C22.7845 9.26508 22.6338 9.50468 22.4381 9.70494C22.1899 9.95879 21.8639 10.1145 21.5581 10.26L21.4814 10.2973L19.4676 11.2641C19.0513 11.4638 18.6869 11.6387 18.38 11.7515C18.0855 11.8609 17.7369 11.9546 17.359 11.9049V16.7404C17.359 18.787 15.74 20.4872 13.6923 20.4872C11.6446 20.4872 10.0256 18.787 10.0256 16.7404C10.0256 14.6927 11.6446 12.9925 13.6923 12.9925C14.3938 12.9916 15.0803 13.1963 15.6667 13.5815V9.4872H15.67C15.6667 9.29653 15.6667 9.0912 15.6667 8.87233V8.74936C15.6667 8.41089 15.6644 8.04874 15.7862 7.71592C15.8821 7.45305 16.0333 7.21274 16.2285 7.01305C16.4767 6.7592 16.8028 6.60351 17.1085 6.45797L17.1852 6.42074L19.1991 5.45387C19.6154 5.25418 19.9798 5.07931 20.2867 4.96648Z" fill="url(#paint1_linear_8_764)"/>
<defs>
<linearGradient id="paint0_linear_8_764" x1="8.61538" y1="18.2308" x2="8.61538" y2="3" gradientUnits="userSpaceOnUse">
<stop stop-color="#5558FF"/>
<stop offset="1" stop-color="#00C0FF"/>
</linearGradient>
<linearGradient id="paint1_linear_8_764" x1="16.5128" y1="20.4872" x2="16.5128" y2="4.80017" gradientUnits="userSpaceOnUse">
<stop stop-color="#5558FF"/>
<stop offset="1" stop-color="#00C0FF"/>
</linearGradient>
</defs>
</svg>
