<svg width="128" height="128" viewBox="0 0 128 128" fill="none" xmlns="http://www.w3.org/2000/svg">
<path opacity="0.4" d="M88.8231 13.7962C78.3051 8.55079 66.1205 6.81431 54.548 8.79637C36.2224 11.7822 19.9284 24.5995 12.638 41.6733C7.23496 53.9797 6.53211 68.2561 10.6371 81.0514C14.5495 93.4593 22.9581 104.379 33.9581 111.323C51.73 122.906 76.1021 122.939 93.9058 111.407C104.497 104.728 112.745 94.4034 116.858 82.5698C121.531 69.3403 120.976 54.3461 115.295 41.5097C110.078 29.5476 100.534 19.5519 88.8231 13.7962Z" fill="url(#paint0_linear_80_264)"/>
<path d="M72.5405 34.1435C72.6879 32.7391 74.0509 31.6797 75.4542 31.7574C76.8277 31.6943 77.9411 32.8314 78.181 34.1095C78.2937 35.5139 78.2547 36.928 78.2596 38.3373C76.1066 39.3675 74.4438 41.1267 72.3443 42.2445C72.3736 39.5474 72.197 36.8308 72.5405 34.1435Z" fill="url(#paint1_linear_80_264)"/>
<path d="M72.3444 42.2446C74.4439 41.1268 76.1067 39.3676 78.2597 38.3374C78.2597 40.8109 78.2646 43.2894 78.2597 45.7629C76.2486 47.0798 74.316 48.5086 72.3347 49.8692C72.3347 47.3277 72.325 44.7861 72.3444 42.2446Z" fill="url(#paint2_linear_80_264)"/>
<path d="M36.5039 69.8371C38.3972 68.3888 40.1581 66.7565 42.2476 65.5754C42.2574 68.0538 42.2525 70.5321 42.2525 73.0104C40.3543 74.41 38.515 75.9022 36.5088 77.1557C36.4892 74.7164 36.499 72.2764 36.5039 69.8371Z" fill="url(#paint3_linear_80_264)"/>
<path d="M61.9801 39.4453C63.6969 38.3665 66.1003 39.8729 66.1836 41.8071C66.2131 46.2196 66.1836 50.637 66.1934 55.0543C64.2364 56.3859 62.3382 57.7903 60.4203 59.1753C60.4302 53.611 60.3958 48.0419 60.4351 42.4777C60.4056 41.2968 60.8765 40.0236 61.9801 39.4453Z" fill="url(#paint4_linear_80_264)"/>
<path d="M85.5092 43.2165C87.0544 41.9676 89.7276 42.784 90.2179 44.7229C90.3696 48.3239 90.2569 51.9249 90.2916 55.5258C88.5308 56.8671 86.4411 57.9216 85.0725 59.6905C84.7491 61.4496 84.6754 63.2477 84.4153 65.0215C84.3124 58.9761 84.4007 52.9308 84.3611 46.8855C84.3709 45.6122 84.3075 44.0377 85.5092 43.2165Z" fill="url(#paint5_linear_80_264)"/>
<path d="M36.7343 44.4751C37.573 41.9529 41.4969 42.2883 42.1836 44.757C42.2376 45.7143 42.2523 46.6765 42.2523 47.6387C40.1824 48.7127 38.4755 50.3163 36.5086 51.5458C36.6067 49.1938 36.2339 46.7883 36.7343 44.4751Z" fill="url(#paint6_linear_80_264)"/>
<path d="M24.467 53.1495C24.3346 51.6673 25.3843 50.1657 26.895 49.9081C28.2586 49.5728 29.5633 50.535 30.0979 51.7256C30.5051 53.7861 30.3432 55.8951 30.3579 57.9848C28.6265 59.3892 26.6743 60.5458 25.139 62.1737C24.4965 64.9874 24.9183 67.9132 24.7663 70.7752C24.6731 72.1699 24.6633 73.5745 24.6633 74.9741C24.3396 74.2304 24.472 73.4045 24.467 72.6219C24.4818 66.1343 24.472 59.6419 24.467 53.1495Z" fill="url(#paint7_linear_80_264)"/>
<path d="M72.3347 49.869C74.316 48.5084 76.2486 47.0796 78.2597 45.7627C78.2597 48.0273 78.2597 50.2918 78.2548 52.5515C76.2193 53.8782 74.3799 55.4721 72.3444 56.7988C72.325 54.4905 72.3347 52.1774 72.3347 49.869Z" fill="url(#paint8_linear_80_264)"/>
<path d="M48.5159 48.7661C48.7563 47.2159 50.4093 46.0302 51.969 46.4238C52.95 46.6473 53.6465 47.4492 54.1174 48.285C54.0242 49.3639 53.9752 50.4718 53.6416 51.5118C52.0426 53.0863 50.0561 54.2089 48.3835 55.7105C48.4522 53.3973 48.2314 51.0647 48.5159 48.7661Z" fill="url(#paint9_linear_80_264)"/>
<path d="M36.5086 51.5458C38.4755 50.3163 40.1824 48.7127 42.2523 47.6387C42.2572 51.3952 42.2523 55.1468 42.2474 58.9032C40.3247 60.2736 38.5049 61.7947 36.5086 63.0631C36.4988 59.2239 36.489 55.3849 36.5086 51.5458Z" fill="url(#paint10_linear_80_264)"/>
<path d="M25.1391 62.1735C26.6744 60.5456 28.6266 59.389 30.358 57.9846C30.358 60.8809 30.3629 63.7772 30.358 66.6735C28.3862 67.8886 26.5567 69.3169 24.7664 70.775C24.9184 67.913 24.4966 64.9872 25.1391 62.1735Z" fill="url(#paint11_linear_80_264)"/>
<path d="M54.1174 48.2849C54.1272 48.3918 54.1517 48.6154 54.1615 48.7271C54.4313 53.4166 54.2204 58.1159 54.2793 62.8103C54.0634 66.1488 50.7624 67.558 48.3884 69.2689C48.3835 64.7492 48.3884 60.2298 48.3835 55.7104C50.0561 54.2088 52.0426 53.0862 53.6416 51.5117C53.9752 50.4717 54.0242 49.3638 54.1174 48.2849Z" fill="url(#paint12_linear_80_264)"/>
<path d="M72.3444 56.7988C74.3799 55.4721 76.2193 53.8782 78.2548 52.5515C78.2646 57.3771 78.2646 62.1978 78.2548 67.0183C76.0476 67.966 74.341 69.6768 72.3444 70.9498C72.3298 66.2313 72.325 61.5126 72.3444 56.7988Z" fill="url(#paint13_linear_80_264)"/>
<path d="M96.5893 55.1224C97.492 52.9258 101.038 52.9258 102.073 55.0446C102.167 56.1575 102.181 57.2752 102.181 58.3929C100.151 59.6466 98.3209 61.1774 96.3689 62.5429C96.4718 60.0695 96.2166 57.5716 96.5893 55.1224Z" fill="url(#paint14_linear_80_264)"/>
<path d="M60.4202 59.1752C62.3381 57.7902 64.2363 56.3858 66.1933 55.0542C66.1443 61.3669 66.1737 67.6748 66.1639 73.9872C64.3687 75.5129 62.495 76.9613 60.4252 78.113C60.4153 71.8006 60.4153 65.4878 60.4202 59.1752Z" fill="url(#paint15_linear_80_264)"/>
<path d="M85.0727 59.6903C86.4413 57.9214 88.531 56.8669 90.2918 55.5256C90.2918 61.8188 90.2918 68.1073 90.2869 74.4001C87.6625 76.072 84.1013 77.831 84.3912 81.4854C84.3814 75.9989 84.3126 70.5076 84.4155 65.0213C84.6756 63.2475 84.7493 61.4494 85.0727 59.6903Z" fill="url(#paint16_linear_80_264)"/>
<path d="M96.369 62.5428C98.321 61.1773 100.151 59.6465 102.181 58.3928C102.176 60.497 102.176 62.6012 102.172 64.7054C100.072 65.828 98.223 67.3246 96.3933 68.8314C96.4128 66.732 96.3641 64.6374 96.369 62.5428Z" fill="url(#paint17_linear_80_264)"/>
<path d="M36.5088 63.063C38.5051 61.7946 40.3249 60.2735 42.2476 58.9031C42.2574 61.1288 42.2525 63.3496 42.2476 65.5754C40.1581 66.7565 38.3972 68.3888 36.5039 69.8371C36.499 67.5775 36.4941 65.3178 36.5088 63.063Z" fill="url(#paint18_linear_80_264)"/>
<path d="M48.3886 69.2689C50.7626 67.558 54.0636 66.1488 54.2795 62.8103C54.2795 67.3783 54.2844 71.9463 54.2844 76.5143C54.2697 77.7775 54.2549 79.2795 53.1317 80.1249C52.1213 81.0628 50.6351 80.776 49.502 80.2515C48.7761 79.503 48.4229 78.4871 48.4131 77.462C48.3346 74.731 48.4131 71.9999 48.3886 69.2689Z" fill="url(#paint19_linear_80_264)"/>
<path d="M96.3932 68.8316C98.2229 67.3248 100.072 65.8282 102.172 64.7056C102.063 66.9947 102.475 69.3561 101.907 71.5962C101.21 73.2925 99.0762 73.4429 97.5803 72.7869C96.3341 71.8441 96.3737 70.2307 96.3932 68.8316Z" fill="url(#paint20_linear_80_264)"/>
<path d="M24.7663 70.7751C26.5566 69.317 28.3861 67.8887 30.3579 66.6736C30.2696 69.4485 30.5689 72.2478 30.1862 75.0081C29.7742 77.141 26.9931 77.8068 25.3745 76.5192C24.9821 76.0575 24.7417 75.5422 24.6633 74.974C24.6633 73.5744 24.6731 72.1698 24.7663 70.7751Z" fill="url(#paint21_linear_80_264)"/>
<path d="M72.3442 70.9498C74.3408 69.6768 76.0474 67.966 78.2546 67.0183C78.2692 70.94 78.2546 74.8667 78.2546 78.7885C76.2831 80.1832 74.3895 81.6895 72.3394 82.9825C72.3345 78.973 72.3199 74.9593 72.3442 70.9498Z" fill="url(#paint22_linear_80_264)"/>
<path d="M36.5087 77.1558C38.5149 75.9023 40.3542 74.4101 42.2524 73.0105C42.1494 76.1063 42.4879 79.2406 42.0611 82.317C41.5706 84.4012 38.8336 84.9067 37.2837 83.6192C35.9593 81.7335 36.6657 79.2991 36.5087 77.1558Z" fill="url(#paint23_linear_80_264)"/>
<path d="M60.4254 78.1131C62.4952 76.9614 64.3689 75.513 66.1641 73.9873C66.1102 77.7635 66.277 81.544 66.0955 85.3104C66.1053 86.4573 65.2077 87.2442 64.3689 87.8856C62.9269 88.0074 61.1807 87.8034 60.6853 86.2046C60.1213 83.5557 60.5431 80.8003 60.4254 78.1131Z" fill="url(#paint24_linear_80_264)"/>
<path d="M84.3911 81.4854C84.1012 77.831 87.6624 76.072 90.2868 74.4001C90.2034 77.1799 90.4878 80.0037 90.0024 82.7542C89.2076 84.8823 86.1421 84.7707 84.7589 83.2688C84.5726 82.6859 84.4349 82.0884 84.3911 81.4854Z" fill="url(#paint25_linear_80_264)"/>
<path d="M72.3396 82.9826C74.3897 81.6896 76.2833 80.1833 78.2548 78.7886C78.2646 80.8978 78.2597 83.0021 78.2548 85.1107C76.2193 86.4232 74.3897 88.022 72.3347 89.3193C72.3347 87.2053 72.325 85.0912 72.3396 82.9826Z" fill="url(#paint26_linear_80_264)"/>
<path d="M72.3347 89.3192C74.3897 88.0219 76.2193 86.4231 78.2548 85.1106C78.1568 87.9001 78.51 90.7237 78.0538 93.484C77.4947 95.4373 75.0767 95.8795 73.4822 94.8934C72.1039 93.3671 72.3444 91.2049 72.3347 89.3192Z" fill="url(#paint27_linear_80_264)"/>
<defs>
<linearGradient id="paint0_linear_80_264" x1="63.9999" y1="120.033" x2="63.9999" y2="7.99999" gradientUnits="userSpaceOnUse">
<stop stop-color="#00EACA"/>
<stop offset="1" stop-color="#00B553"/>
</linearGradient>
<linearGradient id="paint1_linear_80_264" x1="63.3299" y1="95.4007" x2="63.3299" y2="31.7534" gradientUnits="userSpaceOnUse">
<stop stop-color="#00EACA"/>
<stop offset="1" stop-color="#00B553"/>
</linearGradient>
<linearGradient id="paint2_linear_80_264" x1="63.33" y1="95.4008" x2="63.33" y2="31.7535" gradientUnits="userSpaceOnUse">
<stop stop-color="#00EACA"/>
<stop offset="1" stop-color="#00B553"/>
</linearGradient>
<linearGradient id="paint3_linear_80_264" x1="63.33" y1="95.4007" x2="63.33" y2="31.7534" gradientUnits="userSpaceOnUse">
<stop stop-color="#00EACA"/>
<stop offset="1" stop-color="#00B553"/>
</linearGradient>
<linearGradient id="paint4_linear_80_264" x1="63.3299" y1="95.4007" x2="63.3299" y2="31.7534" gradientUnits="userSpaceOnUse">
<stop stop-color="#00EACA"/>
<stop offset="1" stop-color="#00B553"/>
</linearGradient>
<linearGradient id="paint5_linear_80_264" x1="63.3298" y1="95.4008" x2="63.3298" y2="31.7535" gradientUnits="userSpaceOnUse">
<stop stop-color="#00EACA"/>
<stop offset="1" stop-color="#00B553"/>
</linearGradient>
<linearGradient id="paint6_linear_80_264" x1="63.3298" y1="95.4008" x2="63.3298" y2="31.7535" gradientUnits="userSpaceOnUse">
<stop stop-color="#00EACA"/>
<stop offset="1" stop-color="#00B553"/>
</linearGradient>
<linearGradient id="paint7_linear_80_264" x1="63.3299" y1="95.4008" x2="63.3299" y2="31.7535" gradientUnits="userSpaceOnUse">
<stop stop-color="#00EACA"/>
<stop offset="1" stop-color="#00B553"/>
</linearGradient>
<linearGradient id="paint8_linear_80_264" x1="63.33" y1="95.4006" x2="63.33" y2="31.7533" gradientUnits="userSpaceOnUse">
<stop stop-color="#00EACA"/>
<stop offset="1" stop-color="#00B553"/>
</linearGradient>
<linearGradient id="paint9_linear_80_264" x1="63.3298" y1="95.4008" x2="63.3298" y2="31.7535" gradientUnits="userSpaceOnUse">
<stop stop-color="#00EACA"/>
<stop offset="1" stop-color="#00B553"/>
</linearGradient>
<linearGradient id="paint10_linear_80_264" x1="63.3298" y1="95.4008" x2="63.3298" y2="31.7535" gradientUnits="userSpaceOnUse">
<stop stop-color="#00EACA"/>
<stop offset="1" stop-color="#00B553"/>
</linearGradient>
<linearGradient id="paint11_linear_80_264" x1="63.33" y1="95.4006" x2="63.33" y2="31.7533" gradientUnits="userSpaceOnUse">
<stop stop-color="#00EACA"/>
<stop offset="1" stop-color="#00B553"/>
</linearGradient>
<linearGradient id="paint12_linear_80_264" x1="63.3298" y1="95.4007" x2="63.3298" y2="31.7534" gradientUnits="userSpaceOnUse">
<stop stop-color="#00EACA"/>
<stop offset="1" stop-color="#00B553"/>
</linearGradient>
<linearGradient id="paint13_linear_80_264" x1="63.33" y1="95.4006" x2="63.33" y2="31.7533" gradientUnits="userSpaceOnUse">
<stop stop-color="#00EACA"/>
<stop offset="1" stop-color="#00B553"/>
</linearGradient>
<linearGradient id="paint14_linear_80_264" x1="63.3298" y1="95.4007" x2="63.3298" y2="31.7534" gradientUnits="userSpaceOnUse">
<stop stop-color="#00EACA"/>
<stop offset="1" stop-color="#00B553"/>
</linearGradient>
<linearGradient id="paint15_linear_80_264" x1="63.3298" y1="95.4006" x2="63.3298" y2="31.7533" gradientUnits="userSpaceOnUse">
<stop stop-color="#00EACA"/>
<stop offset="1" stop-color="#00B553"/>
</linearGradient>
<linearGradient id="paint16_linear_80_264" x1="63.33" y1="95.4006" x2="63.33" y2="31.7533" gradientUnits="userSpaceOnUse">
<stop stop-color="#00EACA"/>
<stop offset="1" stop-color="#00B553"/>
</linearGradient>
<linearGradient id="paint17_linear_80_264" x1="63.3299" y1="95.4006" x2="63.3299" y2="31.7533" gradientUnits="userSpaceOnUse">
<stop stop-color="#00EACA"/>
<stop offset="1" stop-color="#00B553"/>
</linearGradient>
<linearGradient id="paint18_linear_80_264" x1="63.33" y1="95.4007" x2="63.33" y2="31.7534" gradientUnits="userSpaceOnUse">
<stop stop-color="#00EACA"/>
<stop offset="1" stop-color="#00B553"/>
</linearGradient>
<linearGradient id="paint19_linear_80_264" x1="63.33" y1="95.4007" x2="63.33" y2="31.7534" gradientUnits="userSpaceOnUse">
<stop stop-color="#00EACA"/>
<stop offset="1" stop-color="#00B553"/>
</linearGradient>
<linearGradient id="paint20_linear_80_264" x1="63.3299" y1="95.4008" x2="63.3299" y2="31.7535" gradientUnits="userSpaceOnUse">
<stop stop-color="#00EACA"/>
<stop offset="1" stop-color="#00B553"/>
</linearGradient>
<linearGradient id="paint21_linear_80_264" x1="63.3299" y1="95.4007" x2="63.3299" y2="31.7534" gradientUnits="userSpaceOnUse">
<stop stop-color="#00EACA"/>
<stop offset="1" stop-color="#00B553"/>
</linearGradient>
<linearGradient id="paint22_linear_80_264" x1="63.3298" y1="95.4006" x2="63.3298" y2="31.7533" gradientUnits="userSpaceOnUse">
<stop stop-color="#00EACA"/>
<stop offset="1" stop-color="#00B553"/>
</linearGradient>
<linearGradient id="paint23_linear_80_264" x1="63.3299" y1="95.4008" x2="63.3299" y2="31.7535" gradientUnits="userSpaceOnUse">
<stop stop-color="#00EACA"/>
<stop offset="1" stop-color="#00B553"/>
</linearGradient>
<linearGradient id="paint24_linear_80_264" x1="63.33" y1="95.4007" x2="63.33" y2="31.7534" gradientUnits="userSpaceOnUse">
<stop stop-color="#00EACA"/>
<stop offset="1" stop-color="#00B553"/>
</linearGradient>
<linearGradient id="paint25_linear_80_264" x1="63.3299" y1="95.4006" x2="63.3299" y2="31.7533" gradientUnits="userSpaceOnUse">
<stop stop-color="#00EACA"/>
<stop offset="1" stop-color="#00B553"/>
</linearGradient>
<linearGradient id="paint26_linear_80_264" x1="63.33" y1="95.4007" x2="63.33" y2="31.7534" gradientUnits="userSpaceOnUse">
<stop stop-color="#00EACA"/>
<stop offset="1" stop-color="#00B553"/>
</linearGradient>
<linearGradient id="paint27_linear_80_264" x1="63.33" y1="95.4006" x2="63.33" y2="31.7533" gradientUnits="userSpaceOnUse">
<stop stop-color="#00EACA"/>
<stop offset="1" stop-color="#00B553"/>
</linearGradient>
</defs>
</svg>
