<svg width="64" height="64" viewBox="0 0 64 64" fill="none" xmlns="http://www.w3.org/2000/svg">
<path opacity="0.4" d="M16.7378 4.02066C13.2041 4.09299 10.0676 7.27552 10.0189 10.873C9.98138 24.5739 10.0226 38.2747 10.0001 51.9794C9.99637 53.3004 10.0788 54.6747 10.6821 55.8738C11.8063 58.3711 14.4332 60.0346 17.1349 59.989C24.7607 60.008 32.3902 59.9966 40.0159 59.9966C41.8784 60.0309 43.7033 59.1629 44.8611 57.682C47.2857 54.6975 49.7027 51.7053 52.1271 48.7207C53.3188 47.3198 53.997 45.4887 53.9484 43.6348C53.9296 41.8455 53.9783 40.0563 53.9259 38.2709L54.1875 11.4375C54.1875 9.6875 54.0795 7.70569 53.0865 6.28193C52.1047 4.81248 50.3622 3.92168 48.6159 4.00543C37.9924 4.02446 27.3651 3.9864 16.7378 4.02066Z" fill="url(#paint0_linear_54_489)"/>
<path d="M16.3108 46.3538C17.6249 45.8475 19.1239 46.0586 20.521 46.0057C23.953 46.0849 27.3976 45.8897 30.8168 46.106C33.3684 46.5068 34.523 49.3597 32.8198 50.9628C31.5823 52.3603 29.3114 52.102 27.487 52.1125C24.0486 52.0334 20.5911 52.2391 17.1657 52.0123C13.9187 51.5535 13.3382 47.4718 16.3108 46.3538Z" fill="url(#paint1_linear_54_489)"/>
<path d="M35.6367 23.6031C36.9903 22.2493 38.6876 20.7163 40.7284 19.0036C42.7692 17.291 44.4665 15.9219 45.8201 14.8964L47.8814 13.3274C48.1275 13.0812 48.425 12.9581 48.7736 12.9581C49.1223 12.9581 49.4197 13.0812 49.6659 13.3274C49.7273 13.3888 49.7683 13.4607 49.7888 13.5427C49.8093 13.6248 49.8042 13.717 49.7735 13.8196C49.7427 13.9221 49.7017 14.0093 49.6504 14.081C49.5991 14.1529 49.5223 14.2452 49.4197 14.358C49.3171 14.4708 49.2351 14.5631 49.1735 14.6349C49.112 14.7066 49.0249 14.7938 48.9121 14.8964C48.7992 14.9989 48.7224 15.0707 48.6813 15.1117C48.1685 15.4809 47.4968 15.9835 46.6662 16.6193C45.8355 17.2551 44.4049 18.4242 42.3743 20.1266C40.3438 21.8289 38.6312 23.3775 37.2365 24.7721C36.375 25.6336 35.2316 26.7719 33.8061 28.1871C32.3806 29.6024 31.1551 30.8228 30.1296 31.8483C29.1041 32.8738 28.1913 33.7968 27.3914 34.6172C26.2019 35.8683 25.0636 37.0785 23.9765 38.2475C22.8895 39.4167 22.0998 40.273 21.6076 40.8165L20.8692 41.6318C20.623 41.8779 20.5 42.0112 20.5 42.0317C20.5 42.0522 20.623 42.1855 20.8692 42.4317C21.0742 42.6573 21.8075 42.324 23.0689 41.4318C24.3303 40.5396 25.1763 39.8782 25.6071 39.4474C26.8377 38.1963 28.499 36.5144 30.5911 34.4019C32.0474 34.0326 33.8471 33.2532 35.9905 32.0637C38.1338 30.874 40.1387 29.6177 42.0052 28.2949C43.8716 26.9719 45.4919 25.7772 46.8662 24.7106C48.2404 23.6441 49.112 22.9263 49.4812 22.557C50.0145 22.0238 50.5375 21.0854 51.0502 19.7419C51.5631 18.3985 51.8758 17.0551 51.9886 15.7117C52.1014 14.3682 51.8399 13.3171 51.2041 12.5582C50.2401 11.5737 48.8864 11.0558 47.1431 11.0045C45.3997 10.9533 43.8203 11.3378 42.4052 12.1582C40.8464 13.0402 39.0824 14.3887 37.1134 16.2039C35.1444 18.0191 33.3395 19.9369 31.6987 21.9571C30.0578 23.9773 28.7247 25.9925 27.6991 28.0026C26.6736 30.0126 26.2634 31.6124 26.4685 32.8021C29.4836 29.7664 32.5396 26.7002 35.6367 23.6031Z" fill="url(#paint2_linear_54_489)"/>
<defs>
<linearGradient id="paint0_linear_54_489" x1="32.0938" y1="60" x2="32.0938" y2="3.99998" gradientUnits="userSpaceOnUse">
<stop stop-color="#FD2E00"/>
<stop offset="1" stop-color="#FF9900"/>
</linearGradient>
<linearGradient id="paint1_linear_54_489" x1="24" y1="52.125" x2="24" y2="46" gradientUnits="userSpaceOnUse">
<stop stop-color="#FD2E00"/>
<stop offset="1" stop-color="#FF9900"/>
</linearGradient>
<linearGradient id="paint2_linear_54_489" x1="36.2571" y1="42.5" x2="36.2571" y2="11" gradientUnits="userSpaceOnUse">
<stop stop-color="#FD2E00"/>
<stop offset="1" stop-color="#FF9900"/>
</linearGradient>
</defs>
</svg>
