<svg width="24" height="24" viewBox="0 0 24 24" fill="none" xmlns="http://www.w3.org/2000/svg">
<path opacity="0.5" fill-rule="evenodd" clip-rule="evenodd" d="M15.0692 19.6727C8.14687 22.4392 4.68517 23.8252 2.70957 22.4821C2.24093 22.1636 1.83673 21.7594 1.51827 21.2908C0.175169 19.3141 1.55897 15.8524 4.32767 8.93117C4.91837 7.45497 5.21427 6.71687 5.72137 6.13717C5.85117 5.98977 5.98977 5.85117 6.13717 5.72137C6.71687 5.21427 7.45497 4.91837 8.93117 4.32767C15.8524 1.55897 19.3141 0.175169 21.2908 1.51827C21.7594 1.83727 22.1631 2.24097 22.4821 2.70957C23.8252 4.68627 22.4403 8.14687 19.6727 15.0692C19.082 16.5454 18.7861 17.2835 18.279 17.8632C18.1492 18.0106 18.0106 18.1492 17.8632 18.279C17.2835 18.7861 16.5454 19.082 15.0692 19.6727Z" fill="url(#paint0_linear_8_344)"/>
<path d="M12.0002 7.87518C10.9062 7.87518 9.85696 8.30978 9.08337 9.08337C8.30978 9.85696 7.87518 10.9062 7.87518 12.0002C7.87518 13.0942 8.30978 14.1434 9.08337 14.917C9.85696 15.6906 10.9062 16.1252 12.0002 16.1252C13.0942 16.1252 14.1434 15.6906 14.917 14.917C15.6906 14.1434 16.1252 13.0942 16.1252 12.0002C16.1252 10.9062 15.6906 9.85696 14.917 9.08337C14.1434 8.30978 13.0942 7.87518 12.0002 7.87518Z" fill="url(#paint1_linear_8_344)"/>
<defs>
<linearGradient id="paint0_linear_8_344" x1="12.0001" y1="23" x2="12.0001" y2="1" gradientUnits="userSpaceOnUse">
<stop stop-color="#5558FF"/>
<stop offset="1" stop-color="#00C0FF"/>
</linearGradient>
<linearGradient id="paint1_linear_8_344" x1="12.0002" y1="16.1252" x2="12.0002" y2="7.87518" gradientUnits="userSpaceOnUse">
<stop stop-color="#5558FF"/>
<stop offset="1" stop-color="#00C0FF"/>
</linearGradient>
</defs>
</svg>
