<svg width="64" height="64" viewBox="0 0 64 64" fill="none" xmlns="http://www.w3.org/2000/svg">
<path opacity="0.4" d="M31.9453 4.00001C27.6363 4.00919 23.3875 5.01276 19.5298 6.93261C16.3388 8.52065 13.4866 10.7002 11.1214 13.3485C10.3285 14.2362 10.5949 15.604 11.6152 16.2169L13.0421 17.074C13.8993 17.5889 14.9982 17.3843 15.6832 16.6558C17.5729 14.646 19.8211 12.9989 22.3176 11.8018C25.3397 10.3528 28.6485 9.60036 32 9.60001C37.9408 9.60001 43.6384 11.96 47.8392 16.1608C52.04 20.3616 54.4 26.0592 54.4 32C54.4 37.9409 52.04 43.6384 47.8392 47.8392C43.6384 52.04 37.9408 54.4 32 54.4C28.6457 54.4 25.3343 53.6466 22.3101 52.1956C19.8118 50.9969 17.5623 49.3473 15.6721 47.3348C14.9872 46.6055 13.8878 46.4005 13.0302 46.9157L11.6033 47.7728C10.5833 48.3855 10.3168 49.7526 11.1089 50.6405C13.4809 53.2992 16.3434 55.486 19.5467 57.0771C23.4166 58.9992 27.679 59.9997 32 60C39.4261 60 46.548 57.05 51.799 51.799C57.05 46.548 60 39.4261 60 32C60 24.5739 57.05 17.452 51.799 12.201C46.548 6.95 39.4261 4.00001 32 4.00001C31.9818 4 31.9635 4 31.9453 4.00001ZM32 15.2C29.6161 15.2007 27.2596 15.7086 25.0872 16.6902C23.6464 17.3411 22.3084 18.1906 21.1109 19.2106C20.1597 20.0209 20.3878 21.4857 21.4593 22.1285L23.0236 23.0671C23.7915 23.5279 24.7621 23.406 25.4907 22.8854C27.3332 21.5691 29.5427 20.8349 31.8305 20.8C31.887 20.7996 31.9435 20.7996 32 20.8C34.9704 20.8 37.8192 21.98 39.9196 24.0804C42.02 26.1808 43.2 29.0296 43.2 32C43.2 34.9704 42.02 37.8192 39.9196 39.9196C37.8192 42.02 34.9704 43.2 32 43.2C29.6494 43.1998 27.3721 42.4607 25.4812 41.107C24.7518 40.5848 23.7794 40.4625 23.0105 40.9247L21.4447 41.8659C20.3747 42.5091 20.147 43.9726 21.0969 44.7827C22.2963 45.8056 23.6368 46.6572 25.0805 47.3096C27.255 48.2921 29.6138 48.8002 32 48.8C36.4556 48.8 40.7288 47.03 43.8794 43.8794C47.03 40.7288 48.8 36.4556 48.8 32C48.8 27.5444 47.03 23.2712 43.8794 20.1206C40.7288 16.97 36.4556 15.2 32 15.2Z" fill="url(#paint0_linear_54_925)"/>
<path d="M4 42.3311V21.6536C4 18.5442 7.39246 16.6238 10.0585 18.224L27.286 28.5644C29.8748 30.1182 29.8746 33.8704 27.2855 35.4239L10.0581 45.761C7.39198 47.3608 4 45.4404 4 42.3311Z" fill="url(#paint1_linear_54_925)"/>
<defs>
<linearGradient id="paint0_linear_54_925" x1="32" y1="4" x2="32" y2="59.9999" gradientUnits="userSpaceOnUse">
<stop stop-color="#BAFA52"/>
<stop offset="1" stop-color="#3F8F5B"/>
</linearGradient>
<linearGradient id="paint1_linear_54_925" x1="32" y1="4" x2="32" y2="59.9999" gradientUnits="userSpaceOnUse">
<stop stop-color="#BAFA52"/>
<stop offset="1" stop-color="#3F8F5B"/>
</linearGradient>
</defs>
</svg>
