<svg width="48" height="48" viewBox="0 0 48 48" fill="none" xmlns="http://www.w3.org/2000/svg">
<path opacity="0.4" fill-rule="evenodd" clip-rule="evenodd" d="M24.0515 1.21358C23.573 1.19307 23.1195 1.44146 22.878 1.85733L19.4434 7.76232C19.1874 8.20245 18.6416 8.37996 18.1756 8.17459L11.9422 5.42701C11.7781 5.35409 11.6004 5.31649 11.4215 5.31649C10.7094 5.31649 10.1238 5.90441 10.1238 6.6188C10.1238 6.6621 10.126 6.70539 10.1306 6.74869L10.8091 13.5573C10.8595 14.0622 10.5236 14.5248 10.028 14.6333L3.37294 16.0905C2.77932 16.2204 2.35205 16.7524 2.35205 17.3632C2.35205 17.6822 2.46941 17.9909 2.68133 18.2291L7.21601 23.3385C7.55211 23.7172 7.55211 24.2874 7.21601 24.6661L2.68133 29.7756C2.47055 30.0148 2.35319 30.3225 2.35319 30.6415C2.35319 31.2522 2.78046 31.7843 3.37407 31.9142L10.0291 33.3693C10.5248 33.4777 10.8607 33.9402 10.8106 34.4451L10.134 41.2548C10.1295 41.297 10.1272 41.3403 10.1272 41.3836C10.1272 42.098 10.7128 42.6859 11.4249 42.6859C11.6038 42.6859 11.7816 42.6483 11.9456 42.5765L18.1792 39.8278C18.6451 39.6224 19.1909 39.7998 19.447 40.2398L22.8825 46.1427C23.115 46.5415 23.5422 46.7876 24.0026 46.7876C24.4629 46.7876 24.8901 46.5415 25.1226 46.1427L28.5571 40.2378C28.8131 39.7976 29.359 39.6201 29.8249 39.8255L36.0583 42.5731C36.2224 42.646 36.4001 42.6836 36.579 42.6836C37.2911 42.6836 37.8768 42.0957 37.8768 41.3813C37.8768 41.338 37.8745 41.2947 37.8699 41.2514L37.1914 34.4428C37.1411 33.9379 37.4769 33.4753 37.9726 33.3668L44.6276 31.9096C45.2212 31.7797 45.6485 31.2476 45.6485 30.6369C45.6485 30.3179 45.5311 30.0091 45.3192 29.771L40.7846 24.6626C40.4485 24.284 40.4484 23.7138 40.7845 23.3351L45.3192 18.2245C45.53 17.9864 45.6474 17.6776 45.6474 17.3586C45.6474 16.7479 45.2201 16.2158 44.6265 16.0859L37.9705 14.6308C37.4747 14.5224 37.1388 14.0598 37.189 13.5548L37.8665 6.74527C37.8699 6.70311 37.8722 6.65982 37.8722 6.61652C37.8722 5.90213 37.2866 5.31421 36.5756 5.31421C36.3956 5.31421 36.219 5.35181 36.0538 5.42359L29.8214 8.17318C29.3555 8.3787 28.8096 8.20138 28.5535 7.76133L25.1169 1.85733C24.8947 1.47564 24.4925 1.23181 24.0515 1.21358Z" fill="url(#paint0_linear_445_86)"/>
<path fill-rule="evenodd" clip-rule="evenodd" d="M16.1917 11.5723C15.3449 11.1796 14.2969 12.0526 14.5163 12.9598C15.0294 15.0814 15.5013 18.0728 14.8543 20.3325C14.1758 22.701 11.8212 25.2498 10.0707 26.891C9.39565 27.5238 9.79367 28.7806 10.7123 28.892C13.1312 29.1855 16.5764 29.7838 18.301 30.9208C20.1425 32.1349 22.0044 35.6095 23.076 37.8778C23.4474 38.6639 24.6105 38.6985 25.0078 37.9251C26.2518 35.5035 28.3265 31.6817 29.3985 30.9208C30.5047 30.1364 35.1578 29.3389 37.9022 28.9242C38.7298 28.7992 39.0728 27.7685 38.4844 27.1732C36.5194 25.185 33.233 21.7317 32.8463 20.4977C32.4718 19.3044 33.2372 15.1216 33.7792 12.5079C33.9545 11.6626 33.0412 10.956 32.2569 11.3166C30.0638 12.325 26.4998 13.7458 23.8292 13.7458C21.3797 13.7458 18.2992 12.5494 16.1917 11.5723Z" fill="white"/>
<path fill-rule="evenodd" clip-rule="evenodd" d="M16.1917 11.5723C15.3449 11.1796 14.2969 12.0526 14.5163 12.9598C15.0294 15.0814 15.5013 18.0728 14.8543 20.3325C14.1758 22.701 11.8212 25.2498 10.0707 26.891C9.39565 27.5238 9.79367 28.7806 10.7123 28.892C13.1312 29.1855 16.5764 29.7838 18.301 30.9208C20.1425 32.1349 22.0044 35.6095 23.076 37.8778C23.4474 38.6639 24.6105 38.6985 25.0078 37.9251C26.2518 35.5035 28.3265 31.6817 29.3985 30.9208C30.5047 30.1364 35.1578 29.3389 37.9022 28.9242C38.7298 28.7992 39.0728 27.7685 38.4844 27.1732C36.5194 25.185 33.233 21.7317 32.8463 20.4977C32.4718 19.3044 33.2372 15.1216 33.7792 12.5079C33.9545 11.6626 33.0412 10.956 32.2569 11.3166C30.0638 12.325 26.4998 13.7458 23.8292 13.7458C21.3797 13.7458 18.2992 12.5494 16.1917 11.5723Z" fill="url(#paint1_linear_445_86)"/>
<defs>
<linearGradient id="paint0_linear_445_86" x1="24.0003" y1="46.7876" x2="24.0003" y2="1.21244" gradientUnits="userSpaceOnUse">
<stop stop-color="#A5002F"/>
<stop offset="1" stop-color="#D6342A"/>
</linearGradient>
<linearGradient id="paint1_linear_445_86" x1="24.0001" y1="39.9515" x2="24.0001" y2="10.3277" gradientUnits="userSpaceOnUse">
<stop stop-color="#A5002F"/>
<stop offset="1" stop-color="#D6342A"/>
</linearGradient>
</defs>
</svg>
