<svg width="32" height="32" viewBox="0 0 32 32" fill="none" xmlns="http://www.w3.org/2000/svg">
<path d="M21.6291 3.05377C21.1704 3.41099 19.8199 5.91046 18.4695 8.89007C17.9224 10.1046 17.1481 11.6932 16.7572 12.4234C15.5963 14.5866 12.7608 18.5223 11.4481 19.7778L10.2236 20.9598L11.1368 21.9327C11.6968 22.5316 12.4367 23.7755 13.0505 25.1666C14.2157 27.8173 14.4182 28.1998 14.6411 28.1998C14.7466 28.1998 15.3432 27.8709 16.0088 27.457C17.4938 26.5166 18.8819 25.2527 20.7708 23.1021C23.7194 19.7495 25.9324 19.0392 28.6581 20.5784C29.3947 20.9966 29.9999 21.2592 29.9999 21.1615C29.9999 21.0586 29.6251 20.0489 29.175 18.9121C28.7248 17.7753 27.4961 14.5656 26.4536 11.7793C25.7095 10.5564 23.2779 2.20065 21.6291 3.06218" fill="url(#paint0_linear_390_140)"/>
<path opacity="0.5" d="M21.6292 3.05377C21.1705 3.41099 19.82 5.91046 18.4696 8.89007C17.9225 10.1046 17.1482 11.6932 16.7573 12.4234C15.5964 14.5866 12.7609 18.5223 11.4482 19.7778L10.2238 20.9598L11.137 21.9327C11.697 22.5316 12.4368 23.7755 13.0506 25.1666C14.2158 27.8173 14.4183 28.1998 14.6412 28.1998C14.7467 28.1998 15.3434 27.8709 16.0089 27.457C17.4939 26.5166 18.8821 25.2527 20.7709 23.1021C23.7195 19.7495 25.9325 19.0392 28.6582 20.5784C29.3948 20.9966 30 21.2592 30 21.1615C30 21.0586 29.6252 20.0489 29.1751 18.9121C28.7249 17.7753 27.4962 14.5656 26.4538 11.7793C25.7096 10.5564 23.278 2.20065 21.6292 3.06218M15.7526 9.9197C15.7397 9.9197 15.7235 9.9197 15.7063 9.9281C13.2122 11.0197 12.3119 11.5167 11.5753 12.2101C11.0917 12.6734 10.6965 13.1662 10.6965 13.3101C10.6965 13.7577 12.6608 14.9523 12.9849 14.7012C13.1411 14.5782 13.7549 13.6999 14.3483 12.7438C15.3961 11.0407 15.9378 9.94491 15.7526 9.9197ZM8.77101 14.7421C8.34564 14.7421 2.31821 17.0199 2.03175 17.291C1.94776 17.3687 2.03606 17.5127 2.2299 17.6198C2.42375 17.7301 3.52542 18.4656 4.69494 19.2578C5.86015 20.05 6.87351 20.694 6.94566 20.6982C7.01674 20.6982 7.55196 20.4187 8.12379 20.0741C9.32669 19.3513 11.6485 17.1155 11.6367 16.6879C11.628 16.3065 9.31485 14.739 8.76778 14.739" fill="url(#paint1_linear_390_140)"/>
<defs>
<linearGradient id="paint0_linear_390_140" x1="13.5" y1="29.9997" x2="16.4111" y2="3.0444" gradientUnits="userSpaceOnUse">
<stop stop-color="#EC396C"/>
<stop offset="1" stop-color="#E74C3C"/>
</linearGradient>
<linearGradient id="paint1_linear_390_140" x1="13.5" y1="29.9997" x2="16.4111" y2="3.0444" gradientUnits="userSpaceOnUse">
<stop stop-color="#EC396C"/>
<stop offset="1" stop-color="#E74C3C"/>
</linearGradient>
</defs>
</svg>
