<svg width="192" height="192" viewBox="0 0 192 192" fill="none" xmlns="http://www.w3.org/2000/svg">
<rect opacity="0.4" x="82" y="105" width="26" height="45" fill="url(#paint0_linear_81_101)"/>
<path opacity="0.4" d="M15 35H142C163.539 35 181 52.4609 181 74V156H132.5V76.5H50V156H15V35Z" fill="url(#paint1_linear_81_101)"/>
<path fill-rule="evenodd" clip-rule="evenodd" d="M22 146V47.0001L35.7031 47.0001L79.5 47C111.625 47 144.5 47 147.5 47.0001C149.045 47.0002 151.164 47.6039 153.782 49.1588C156.355 50.687 159.062 52.9298 161.666 55.6495C164.126 58.2192 166.158 60.9231 167.544 63.4635C168.964 66.0682 169.5 68.121 169.5 69.5001V112.813V113.046V113.28V113.513V113.747V113.98V114.213V114.446V114.679V114.912V115.145V115.377V115.61V115.842V116.074V116.307V116.538V116.77V117.002V117.233V117.464V117.695V117.926V118.156V118.387V118.617V118.847V119.076V119.306V119.535V119.764V119.992V120.221V120.449V120.677V120.904V121.131V121.358V121.585V121.811V122.037V122.263V122.488V122.713V122.938V123.162V123.386V123.609V123.833V124.055V124.278V124.5V124.721V124.943V125.163V125.384V125.604V125.823V126.042V126.261V126.479V126.697V126.914V127.131V127.347V127.563V127.778V127.993V128.207V128.421V128.634V128.847V129.059V129.27V129.482V129.692V129.902V130.111V130.32V130.529V130.736V130.943V131.15V131.356V131.561V131.765V131.969V132.173V132.376V132.578V132.779V132.98V133.18V133.379V133.578V133.776V133.973V134.17V134.366V134.561V134.756V134.95V135.143V135.335V135.527V135.717V135.907V136.097V136.285V136.473V136.66V136.846V137.031V137.216V137.4V137.583V137.765V138.485V138.663V138.84V139.016V139.191V139.365V139.539V139.711V139.883V140.054V140.224V140.392V140.56V140.727V140.894V141.059V141.223V141.386V141.548V141.71V141.87V142.029V142.187V142.345V142.501V142.656V142.81V142.964V143.116V143.714V143.861V144.006V144.151V144.295V144.437V144.578V144.719V144.858V146H143.5V111.5C143.5 108.186 140.814 105.5 137.5 105.5C134.186 105.5 131.5 108.186 131.5 111.5V152C131.5 155.314 134.186 158 137.5 158H175.5C177.091 158 178.617 157.368 179.743 156.243C180.868 155.118 181.5 153.591 181.5 152H175.5C181.5 152 181.5 152 181.5 151.999V151.997V151.992V151.986V151.978V151.969V151.957V151.944V151.93V151.913V151.895V151.875V151.854V151.83V151.806V151.779V151.751V151.721V151.69V151.657V151.622V151.585V151.547V151.508V151.467V151.424V151.38V151.334V151.286V151.237V151.186V151.134V148.681V144.858V144.719V144.578V144.437V144.295V144.151V144.006V143.861V143.714V143.116V142.964V142.81V142.656V142.501V142.345V142.187V142.029V141.87V141.71V141.548V141.386V141.223V141.059V140.894V140.727V140.56V140.392V140.224V140.054V139.883V139.711V139.539V139.365V139.191V139.016V138.84V138.663V138.485V138.306V138.126V137.765V137.583V137.4V137.216V137.031V136.846V136.66V136.473V136.285V136.097V135.907V135.717V135.527V135.335V135.143V134.95V134.756V134.561V134.366V134.17V133.973V133.776V133.578V133.379V133.18V132.98V132.779V132.578V132.376V132.173V131.969V131.765V131.561V131.356V131.15V130.943V130.736V130.529V130.32V130.111V129.902V129.692V129.482V129.27V129.059V128.847V128.634V128.421V128.207V127.993V127.778V127.563V127.347V127.131V126.914V126.697V126.479V126.261V126.042V125.823V125.604V125.384V125.163V124.943V124.721V124.5V124.278V124.055V123.833V123.609V123.386V123.162V122.938V122.713V122.488V122.263V122.037V121.811V121.585V121.358V121.131V120.904V120.677V120.449V120.221V119.992V119.764V119.535V119.306V119.076V118.847V118.617V118.387V118.156V117.926V117.464V117.233V117.002V116.77V116.538V116.307V116.074V115.842V115.61V115.377V115.145V114.912V114.679V114.446V114.213V113.98V113.747V113.513V113.28V113.046V112.813V69.5001C181.5 65.3791 180.034 61.3026 178.079 57.7177C176.088 54.0684 173.37 50.5223 170.334 47.3508C167.193 44.07 163.65 41.0629 159.909 38.8413C156.214 36.6464 151.955 35.0004 147.5 35.0001C144.5 35 111.625 35 79.5 35L35.7031 35.0001L21.4043 35.0001L17.4109 35.0001L16.3602 35.0001L16.091 35.0001L16.0228 35.0001H16.0057H16.0014C16.0005 35.0001 16 35.0001 16 41.0001L16 35.0001C12.6863 35.0001 10 37.6864 10 41.0001V152C10 155.314 12.6863 158 16 158H51.5C54.8137 158 57.5 155.314 57.5 152V83.0001H131.5V88.5001C131.5 91.8138 134.186 94.5001 137.5 94.5001C140.814 94.5001 143.5 91.8138 143.5 88.5001V77.0001C143.5 73.6864 140.814 71.0001 137.5 71.0001H51.5C48.1863 71.0001 45.5 73.6864 45.5 77.0001V146H22ZM80 97C76.6863 97 74 99.6863 74 103V152C74 155.314 76.6863 158 80 158H111.5C114.814 158 117.5 155.314 117.5 152V103C117.5 99.6863 114.814 97 111.5 97H80ZM86 146V109H105.5V146H86Z" fill="url(#paint2_linear_81_101)"/>
<defs>
<linearGradient id="paint0_linear_81_101" x1="95" y1="150" x2="95" y2="105" gradientUnits="userSpaceOnUse">
<stop stop-color="#5570FF"/>
<stop offset="1" stop-color="#4DD3FF"/>
</linearGradient>
<linearGradient id="paint1_linear_81_101" x1="98" y1="156" x2="98" y2="35" gradientUnits="userSpaceOnUse">
<stop stop-color="#5570FF"/>
<stop offset="1" stop-color="#4DD3FF"/>
</linearGradient>
<linearGradient id="paint2_linear_81_101" x1="95.75" y1="158" x2="95.75" y2="35" gradientUnits="userSpaceOnUse">
<stop stop-color="#5570FF"/>
<stop offset="1" stop-color="#4DD3FF"/>
</linearGradient>
</defs>
</svg>
