<svg width="32" height="32" viewBox="0 0 32 32" fill="none" xmlns="http://www.w3.org/2000/svg">
<path opacity="0.4" fill-rule="evenodd" clip-rule="evenodd" d="M27.6923 9.46154C27.6923 13.0301 24.7994 15.9231 21.2308 15.9231C19.4315 15.9231 17.8039 15.1876 16.6324 14.0009C16.8213 14.6081 16.9231 15.2537 16.9231 15.9231C16.9231 16.5924 16.8213 17.238 16.6324 17.8452C17.8039 16.6585 19.4315 15.9231 21.2308 15.9231C24.7994 15.9231 27.6923 18.816 27.6923 22.3846C27.6923 25.9532 24.7994 28.8462 21.2308 28.8462C17.6622 28.8462 14.7692 25.9532 14.7692 22.3846C14.7692 21.7153 14.871 21.0697 15.0599 20.4625C13.8884 21.6492 12.2608 22.3846 10.4615 22.3846C6.89293 22.3846 4 19.4917 4 15.9231C4 12.3545 6.89293 9.46154 10.4615 9.46154C12.2608 9.46154 13.8884 10.197 15.0599 11.3837C14.871 10.7765 14.7692 10.1309 14.7692 9.46154C14.7692 5.89293 17.6622 3 21.2308 3C24.7994 3 27.6923 5.89293 27.6923 9.46154Z" fill="url(#paint0_linear_128_67)"/>
<path d="M29 16.0146C29 16.7727 28.7613 17.5339 28.2841 18.1433C28.1945 18.2629 27.7769 18.7557 27.4488 19.0765L27.2699 19.2516C24.7642 21.9081 18.5298 25.9032 15.3678 27.1834C15.3678 27.2127 13.4887 27.9736 12.5936 28H12.4745C11.1022 28 9.8195 27.2446 9.16336 26.02C8.80529 25.3463 8.47721 23.3924 8.44743 23.3663C8.17893 21.6136 8 18.9308 8 15.9854C8 12.8971 8.17893 10.0947 8.507 8.37422C8.507 8.34507 8.83529 6.77029 9.044 6.2455C9.37207 5.49014 9.96864 4.84557 10.7144 4.43736C11.3111 4.14872 11.9375 4 12.5936 4C13.2798 4.03214 14.5625 4.4665 15.0695 4.67072C18.4104 5.95386 24.794 10.153 27.2401 12.7193C27.6577 13.1275 28.1051 13.6261 28.2245 13.7399C28.7315 14.3815 29 15.1688 29 16.0146Z" fill="url(#paint1_linear_128_67)"/>
<defs>
<linearGradient id="paint0_linear_128_67" x1="15.8462" y1="28.8462" x2="15.8462" y2="3" gradientUnits="userSpaceOnUse">
<stop stop-color="#FDA700"/>
<stop offset="1" stop-color="#FFDE00"/>
</linearGradient>
<linearGradient id="paint1_linear_128_67" x1="18.5" y1="28" x2="18.5" y2="4" gradientUnits="userSpaceOnUse">
<stop stop-color="#FDA700"/>
<stop offset="1" stop-color="#FFDE00"/>
</linearGradient>
</defs>
</svg>
