<svg width="64" height="64" viewBox="0 0 64 64" fill="none" xmlns="http://www.w3.org/2000/svg">
<path opacity="0.4" d="M43.2 4H20.8C11.5216 4 4 11.5216 4 20.8V43.2C4 52.4784 11.5216 60 20.8 60H43.2C52.4784 60 60 52.4784 60 43.2V20.8C60 11.5216 52.4784 4 43.2 4Z" fill="url(#paint0_linear_216_320)"/>
<path d="M19.9377 16.0052C18.0806 16.0644 16.2907 16.9188 14.9169 18.2186C13.5203 19.5396 12.5206 21.3559 12.3177 23.3071C12.2163 24.2828 12.3134 25.2819 12.6249 26.2082C12.9364 27.1346 13.462 27.9865 14.1614 28.6457C14.9862 29.4231 16.0162 29.9126 16.9635 30.5207C17.4372 30.8248 17.8941 31.1622 18.2864 31.5727C18.6788 31.9832 19.0078 32.4729 19.1875 33.0207C19.3473 33.508 19.3838 34.0321 19.3125 34.5415C19.2411 35.051 19.0612 35.5436 18.7968 35.979C18.2682 36.8499 17.4145 37.4837 16.4791 37.8227C15.3942 38.2159 14.2019 38.2341 13.1562 38.729C12.3287 39.1205 11.632 39.8049 11.1979 40.6352C10.7637 41.4656 10.5923 42.4413 10.6979 43.38C10.8218 44.483 11.327 45.5282 12.0885 46.3072C12.8499 47.0861 13.8606 47.5927 14.9165 47.7603C16.465 48.0061 18.1189 47.4917 19.2445 46.3593C19.8073 45.7931 20.2392 45.0874 20.4788 44.3124C20.7185 43.5372 20.7648 42.6937 20.6091 41.8958C20.4904 41.2851 20.2587 40.7091 20.0416 40.1304C19.8248 39.5517 19.62 38.9571 19.5677 38.3384C19.4755 37.2451 19.8795 36.1357 20.5781 35.3117C21.2768 34.4886 22.2506 33.947 23.2813 33.7076C23.9463 33.5531 24.641 33.5149 25.3126 33.6347C25.9842 33.7546 26.633 34.0314 27.1772 34.4576C27.7213 34.8838 28.1595 35.462 28.4011 36.1243C28.6427 36.7865 28.6823 37.5334 28.4896 38.2128C28.2923 38.9086 27.8672 39.5057 27.4376 40.0774C27.0079 40.6491 26.5627 41.22 26.3073 41.8951C26.0258 42.6396 25.9947 43.4799 26.1876 44.2544C26.3805 45.0289 26.789 45.7408 27.323 46.317C27.9137 46.9543 28.6605 47.4309 29.474 47.6919C30.2873 47.9559 31.122 48.0013 31.9727 48.0013C32.8241 48.0013 33.7112 47.9552 34.5248 47.694C35.3383 47.4329 36.0851 46.9564 36.6758 46.319C37.2097 45.7429 37.6183 45.0309 37.8112 44.2565C38.0041 43.4819 37.973 42.6416 37.6914 41.8971C37.4361 41.222 36.9909 40.6511 36.5612 40.0794C36.1316 39.5078 35.7064 38.9107 35.5091 38.2148C35.3165 37.5354 35.3561 36.7885 35.5977 36.1263C35.8393 35.4641 36.2774 34.8859 36.8216 34.4596C37.3658 34.0334 38.0146 33.7566 38.6862 33.6367C39.3578 33.517 40.0525 33.5552 40.7174 33.7096C41.7481 33.9491 42.7218 34.4907 43.4206 35.3138C44.1194 36.1369 44.5234 37.2464 44.4311 38.3399C44.3788 38.9593 44.174 39.5521 43.9571 40.1316C43.7403 40.711 43.5083 41.288 43.3894 41.8972C43.2337 42.6952 43.28 43.5387 43.5196 44.3139C43.7593 45.0889 44.1912 45.7946 44.754 46.3608C45.8797 47.4932 47.5335 48.0076 49.082 47.7618C50.1381 47.5942 51.1486 47.0876 51.91 46.3087C52.6715 45.5299 53.1766 44.4846 53.3006 43.3815C53.4061 42.4428 53.2347 41.4671 52.8006 40.6367C52.3665 39.8064 51.6698 39.122 50.8423 38.7305C49.7966 38.2356 48.6043 38.2174 47.5193 37.8242C46.584 37.4852 45.7303 36.8514 45.2016 35.9805C44.9373 35.5451 44.7574 35.0525 44.686 34.543C44.6146 34.0336 44.6512 33.5095 44.811 33.0221C44.9906 32.4744 45.3197 31.9848 45.7121 31.5742C46.1044 31.1637 46.5613 30.8263 47.035 30.5221C47.9823 29.9141 49.0122 29.4245 49.8371 28.6472C50.5384 27.9877 51.0638 27.1357 51.3758 26.2093C51.6851 25.2832 51.7838 24.284 51.6824 23.3082C51.4798 21.357 50.4798 19.5408 49.0824 18.2197C47.7091 16.92 45.9198 16.0656 44.0611 16.0064C43.1326 15.9768 42.193 16.1415 41.3371 16.5168C40.4812 16.8921 39.7104 17.4758 39.1184 18.2199C38.4396 19.0729 38.0142 20.1121 37.6236 21.1418C37.2329 22.1716 36.8609 23.2213 36.2694 24.1418C35.2961 25.6596 33.7574 27.0999 32.0001 27.0999C30.2427 27.0999 28.7046 25.6596 27.7291 24.1415C27.1377 23.2212 26.7657 22.1714 26.375 21.1415C25.9843 20.1119 25.559 19.0727 24.8803 18.2196C24.2883 17.4756 23.5174 16.8919 22.6614 16.5167C21.8057 16.1412 20.8659 15.9756 19.9377 16.0052ZM32.0001 29.3332C32.7073 29.3332 33.3856 29.6142 33.8857 30.1143C34.3858 30.6144 34.6667 31.2927 34.6667 31.9999C34.6667 32.7072 34.3858 33.3854 33.8857 33.8855C33.3856 34.3856 32.7073 34.6666 32.0001 34.6666C31.2928 34.6666 30.6145 34.3856 30.1144 33.8855C29.6143 33.3854 29.3334 32.7072 29.3334 31.9999C29.3334 31.2927 29.6143 30.6144 30.1144 30.1143C30.6145 29.6142 31.2928 29.3332 32.0001 29.3332Z" fill="url(#paint1_linear_216_320)"/>
<defs>
<linearGradient id="paint0_linear_216_320" x1="58.1081" y1="5.60064" x2="36.2655" y2="60.4469" gradientUnits="userSpaceOnUse">
<stop stop-color="#FE0F7C"/>
<stop offset="1" stop-color="#DF0066"/>
</linearGradient>
<linearGradient id="paint1_linear_216_320" x1="51.8895" y1="16.9175" x2="41.9324" y2="50.253" gradientUnits="userSpaceOnUse">
<stop stop-color="#FE0F7C"/>
<stop offset="1" stop-color="#DF0066"/>
</linearGradient>
</defs>
</svg>
