<svg width="24" height="24" viewBox="0 0 24 24" fill="none" xmlns="http://www.w3.org/2000/svg">
<path opacity="0.5" d="M1 11.8C1 13.604 1.4675 14.2101 2.4025 15.4256C4.2692 17.85 7.3998 20.6 12 20.6C16.6002 20.6 19.7308 17.85 21.5975 15.4256C22.5325 14.2112 23 13.6029 23 11.8C23 9.996 22.5325 9.3899 21.5975 8.1744C19.7308 5.75 16.6002 3 12 3C7.3998 3 4.2692 5.75 2.4025 8.1744C1.4675 9.391 1 9.9971 1 11.8Z" fill="url(#paint0_linear_298_335)"/>
<path fill-rule="evenodd" clip-rule="evenodd" d="M7.875 11.8001C7.875 10.7061 8.3096 9.65682 9.08318 8.88323C9.85677 8.10964 10.906 7.67505 12 7.67505C13.094 7.67505 14.1432 8.10964 14.9168 8.88323C15.6904 9.65682 16.125 10.7061 16.125 11.8001C16.125 12.8941 15.6904 13.9433 14.9168 14.7169C14.1432 15.4905 13.094 15.9251 12 15.9251C10.906 15.9251 9.85677 15.4905 9.08318 14.7169C8.3096 13.9433 7.875 12.8941 7.875 11.8001Z" fill="url(#paint1_linear_298_335)"/>
<defs>
<linearGradient id="paint0_linear_298_335" x1="12" y1="20.6" x2="12" y2="3" gradientUnits="userSpaceOnUse">
<stop stop-color="#FD5900"/>
<stop offset="1" stop-color="#FFDE00"/>
</linearGradient>
<linearGradient id="paint1_linear_298_335" x1="12" y1="15.9251" x2="12" y2="7.67505" gradientUnits="userSpaceOnUse">
<stop stop-color="#FD5900"/>
<stop offset="1" stop-color="#FFDE00"/>
</linearGradient>
</defs>
</svg>
