<svg width="16" height="16" viewBox="0 0 16 16" fill="none" xmlns="http://www.w3.org/2000/svg">
<path opacity="0.4" d="M1.64 1.69533C1.37631 1.49756 1 1.68571 1 2.01533V5.7384V11.6035C1 11.7096 1.04214 11.8113 1.11716 11.8863L3.33254 14.1017C3.58452 14.3537 4.01538 14.1752 4.01538 13.8189V7.8933C4.01538 7.59595 4.3283 7.40255 4.59426 7.53553L6.45187 8.46434C6.71783 8.59732 7.03076 8.40392 7.03076 8.10657V5.9384C7.03076 5.8125 6.97148 5.69394 6.87076 5.6184L1.64 1.69533Z" fill="url(#paint0_linear_308_269)"/>
<path d="M9.12924 5.6184L14.36 1.69533C14.6237 1.49756 15 1.68571 15 2.01533V5.7384V11.6035C15 11.7096 14.9579 11.8113 14.8828 11.8863L12.6675 14.1017C12.4155 14.3537 11.9846 14.1752 11.9846 13.8189V7.8933C11.9846 7.59595 11.6717 7.40255 11.4057 7.53553L9.54812 8.46434C9.28216 8.59732 8.96924 8.40392 8.96924 8.10657V5.9384C8.96924 5.8125 9.02852 5.69394 9.12924 5.6184Z" fill="url(#paint1_linear_308_269)"/>
<defs>
<linearGradient id="paint0_linear_308_269" x1="4.01538" y1="14.7845" x2="4.01538" y2="1.21533" gradientUnits="userSpaceOnUse">
<stop stop-color="#02AA93"/>
<stop offset="1" stop-color="#67FF80"/>
</linearGradient>
<linearGradient id="paint1_linear_308_269" x1="11.9846" y1="14.7845" x2="11.9846" y2="1.21533" gradientUnits="userSpaceOnUse">
<stop stop-color="#02AA93"/>
<stop offset="1" stop-color="#67FF80"/>
</linearGradient>
</defs>
</svg>
