<svg width="32" height="32" viewBox="0 0 32 32" fill="none" xmlns="http://www.w3.org/2000/svg">
<path opacity="0.4" d="M12.4591 4.62518C8.14653 4.64908 5.0589 7.07541 3.49419 9.78418C2.17198 12.0731 2.0284 14.3181 2.02794 14.3252C2.00936 14.5432 1.99865 14.7619 2.0006 14.9807V20.2831C1.97359 22.1912 2.86169 24.3154 4.28029 25.589C5.69888 26.8625 7.38661 27.3746 9.0003 27.3746C10.1788 27.3746 11.3622 26.9702 12.4865 26.3264C13.3677 26.8563 14.3297 27.2553 15.4019 27.3473C15.628 27.3669 15.855 27.3771 16.082 27.3746C16.0911 27.3747 16.1003 27.3747 16.1094 27.3746C17.3493 27.3553 18.4571 26.9075 19.4691 26.3025C20.6054 26.9644 21.8059 27.3746 22.9997 27.3746C24.6134 27.3746 26.3011 26.8625 27.7197 25.589C29.1383 24.3154 30.0264 22.1912 29.9994 20.2831V14.8886V14.851C29.9998 14.6458 29.9898 14.4408 29.972 14.2364C29.972 14.2364 29.8228 11.9753 28.475 9.68517C26.876 6.96816 23.7522 4.60137 19.4588 4.62518C18.2046 4.63213 17.0922 4.96141 16.041 5.34901C14.9469 4.942 13.7719 4.6179 12.4591 4.62518Z" fill="url(#paint0_linear_235_106)"/>
<path d="M9.00049 20.3741V14.9413C9.00049 14.9413 9.31867 11.6418 12.5005 11.6241C15.6823 11.6064 16.0005 14.8625 16.0005 14.8625V20.3741" stroke="url(#paint1_linear_235_106)" stroke-width="6" stroke-linecap="round" stroke-linejoin="round"/>
<path d="M16.0005 20.3741V14.9413C16.0005 14.9413 16.3187 11.6418 19.5005 11.6241C22.6823 11.6064 23.0005 14.8625 23.0005 14.8625V20.3741" stroke="url(#paint2_linear_235_106)" stroke-width="6" stroke-linecap="round" stroke-linejoin="round"/>
<defs>
<linearGradient id="paint0_linear_235_106" x1="16" y1="27.375" x2="16" y2="4.625" gradientUnits="userSpaceOnUse">
<stop stop-color="#FD3AD2"/>
<stop offset="1" stop-color="#FFA6DB"/>
</linearGradient>
<linearGradient id="paint1_linear_235_106" x1="12.5005" y1="20.3741" x2="12.5005" y2="11.624" gradientUnits="userSpaceOnUse">
<stop stop-color="#FD3AD2"/>
<stop offset="1" stop-color="#FFA6DB"/>
</linearGradient>
<linearGradient id="paint2_linear_235_106" x1="19.5005" y1="20.3741" x2="19.5005" y2="11.624" gradientUnits="userSpaceOnUse">
<stop stop-color="#FD3AD2"/>
<stop offset="1" stop-color="#FFA6DB"/>
</linearGradient>
</defs>
</svg>
