<svg width="64" height="64" viewBox="0 0 64 64" fill="none" xmlns="http://www.w3.org/2000/svg">
<path opacity="0.4" fill-rule="evenodd" clip-rule="evenodd" d="M24.6543 10.2C24.6543 8.7088 25.8631 7.5 27.3543 7.5H29.5943C31.0846 7.5 32.2943 8.70796 32.2943 10.2V19.6166C32.2943 20.7212 33.1897 21.6166 34.2943 21.6166H36.7571C37.8617 21.6166 38.7571 20.7212 38.7571 19.6166V17.2583C38.7571 15.7672 39.966 14.5583 41.4571 14.5583H43.6971C45.1892 14.5583 46.3971 15.7681 46.3971 17.2583V19.6166C46.3971 20.7212 47.2925 21.6166 48.3971 21.6166H50.86C51.9646 21.6166 52.86 20.7212 52.86 19.6166V17.2583C52.86 15.7672 54.0689 14.5583 55.56 14.5583H57.8C59.292 14.5583 60.5 15.768 60.5 17.2583V50.1442C60.5 52.1706 59.7803 53.9088 58.3481 55.3425C56.9157 56.7764 55.179 57.4968 53.1543 57.4968H10.8457C8.82103 57.4968 7.08429 56.7764 5.65192 55.3426C4.21964 53.9088 3.5 52.1705 3.5 50.1442V24.3166C3.5 22.826 4.70832 21.6166 6.2 21.6166H8.43999C9.93157 21.6166 11.14 22.8259 11.14 24.3166V26.675C11.14 27.7796 12.0354 28.675 13.14 28.675H15.6028C16.7074 28.675 17.6028 27.7796 17.6028 26.675V17.2583C17.6028 15.7672 18.8117 14.5583 20.3028 14.5583H22.6543C23.7589 14.5583 24.6543 13.6629 24.6543 12.5583V10.2Z" fill="url(#paint0_linear_224_196)"/>
<path d="M30.079 42.4405C30.079 42.3153 30.1804 42.2139 30.3057 42.2139H33.6796C33.8048 42.2139 33.9063 42.3153 33.9063 42.4405L33.9062 44.143V47.0743C33.9062 47.1994 34.0077 47.301 34.1329 47.301H37.0641H38.775C38.9001 47.301 39.0017 47.4024 39.0017 47.5276V50.6416C39.0017 50.7667 38.9001 50.8683 38.775 50.8683H37.0641H26.9211H25.258C25.1328 50.8683 25.0313 50.7667 25.0313 50.6416V47.5276C25.0313 47.4024 25.1328 47.301 25.258 47.301H26.9211H29.8522C29.9773 47.301 30.0789 47.1994 30.0789 47.0743L30.079 44.143V42.4405ZM23.5365 32C23.6617 32 23.7632 32.1014 23.7632 32.2267V35.6713C23.7632 35.7966 23.6617 35.898 23.5365 35.898H20.2267C20.1014 35.898 20 35.7966 20 35.6713V32.2267C20 32.1014 20.1014 32 20.2267 32H23.5365ZM44 35.6713C44 35.7966 43.8984 35.898 43.7733 35.898H40.4488C40.3236 35.898 40.2221 35.7966 40.2221 35.6713V32.2267C40.2221 32.1014 40.3236 32 40.4488 32H43.7733C43.8984 32 44 32.1014 44 32.2267V35.6713Z" stroke="url(#paint1_linear_224_196)" stroke-width="5"/>
<defs>
<linearGradient id="paint0_linear_224_196" x1="32" y1="57.2025" x2="32" y2="0.735959" gradientUnits="userSpaceOnUse">
<stop stop-color="#00B59C"/>
<stop offset="1" stop-color="#9CFFAC"/>
</linearGradient>
<linearGradient id="paint1_linear_224_196" x1="32" y1="59.1578" x2="32" y2="28.8421" gradientUnits="userSpaceOnUse">
<stop stop-color="#00B59C"/>
<stop offset="1" stop-color="#9CFFAC"/>
</linearGradient>
</defs>
</svg>
