<svg width="24" height="24" viewBox="0 0 24 24" fill="none" xmlns="http://www.w3.org/2000/svg">
<path opacity="0.4" d="M23 12C23 18.0753 18.0753 23 12 23C5.9247 23 1 18.0753 1 12C1 5.9247 5.9247 1 12 1C18.0753 1 23 5.9247 23 12Z" fill="url(#paint0_linear_107_127)"/>
<path d="M11.8186 6.9534C11.0098 6.9534 10.3534 7.60977 10.3534 8.41852C10.3534 8.67757 10.2505 8.92601 10.0673 9.10919C9.88415 9.29237 9.63571 9.39527 9.37666 9.39527C9.11761 9.39527 8.86917 9.29237 8.68599 9.10919C8.50281 8.92601 8.3999 8.67757 8.3999 8.41852C8.39992 7.85844 8.53755 7.30693 8.80069 6.81251C9.06382 6.31808 9.44441 5.89588 9.90897 5.58303C10.3736 5.27018 10.9079 5.07627 11.465 5.01834C12.022 4.96041 12.5848 5.04023 13.1038 5.2508C13.6228 5.46137 14.0821 5.79623 14.4414 6.22593C14.8006 6.65564 15.0488 7.16702 15.164 7.71512C15.2793 8.26322 15.2581 8.83124 15.1024 9.36924C14.9466 9.90723 14.6611 10.3987 14.2709 10.8005C14.151 10.9242 14.0364 11.0388 13.927 11.1482C13.6625 11.4002 13.4141 11.6685 13.1834 11.9518C12.8969 12.319 12.7953 12.5886 12.7953 12.8139V13.7907C12.7953 14.0497 12.6924 14.2981 12.5092 14.4813C12.326 14.6645 12.0776 14.7674 11.8186 14.7674C11.5595 14.7674 11.3111 14.6645 11.1279 14.4813C10.9447 14.2981 10.8418 14.0497 10.8418 13.7907V12.8139C10.8418 11.9609 11.239 11.2693 11.6414 10.7523C11.9397 10.3694 12.3134 9.99695 12.6182 9.69221C12.7094 9.60104 12.7953 9.51639 12.8695 9.43955C13.0702 9.233 13.2056 8.97188 13.2588 8.68882C13.3119 8.40576 13.2804 8.11332 13.1683 7.84804C13.0561 7.58277 12.8683 7.35643 12.6282 7.19731C12.3882 7.03819 12.1066 6.95335 11.8186 6.9534ZM11.8186 19C12.164 19 12.4952 18.8628 12.7394 18.6186C12.9837 18.3743 13.1209 18.0431 13.1209 17.6977C13.1209 17.3523 12.9837 17.021 12.7394 16.7768C12.4952 16.5325 12.164 16.3953 11.8186 16.3953C11.4732 16.3953 11.1419 16.5325 10.8977 16.7768C10.6534 17.021 10.5162 17.3523 10.5162 17.6977C10.5162 18.0431 10.6534 18.3743 10.8977 18.6186C11.1419 18.8628 11.4732 19 11.8186 19Z" fill="url(#paint1_linear_107_127)"/>
<defs>
<linearGradient id="paint0_linear_107_127" x1="12" y1="23" x2="12" y2="1" gradientUnits="userSpaceOnUse">
<stop stop-color="#FD3A84"/>
<stop offset="1" stop-color="#FFA68D"/>
</linearGradient>
<linearGradient id="paint1_linear_107_127" x1="15.2169" y1="5.08875" x2="4.31916" y2="10.3667" gradientUnits="userSpaceOnUse">
<stop stop-color="#FE7970"/>
<stop offset="1" stop-color="#DC3282"/>
</linearGradient>
</defs>
</svg>
