<svg width="24" height="24" viewBox="0 0 24 24" fill="none" xmlns="http://www.w3.org/2000/svg">
<path opacity="0.5" d="M16.8884 20.8002C20.36 20.8002 23.1738 18.0194 23.1738 14.5885C23.1738 11.8693 21.4061 9.5582 18.9443 8.7167C18.5945 5.6136 15.9303 3.2002 12.6974 3.2002C9.22583 3.2002 6.41203 5.981 6.41203 9.4119C6.41203 10.1709 6.54953 10.8969 6.80143 11.5701C6.50061 11.5116 6.19488 11.4822 5.88843 11.4821C3.28473 11.4832 1.17383 13.5688 1.17383 16.1417C1.17383 18.7146 3.28473 20.8002 5.88843 20.8002H16.8884Z" fill="url(#paint0_linear_343_533)"/>
<path d="M11.0408 16.6113C13.2969 16.6113 15.1262 14.8733 15.1262 12.7283C15.1262 11.0299 13.9767 9.58563 12.3762 9.05873C12.1507 7.11943 10.4182 5.61133 8.31716 5.61133C6.05996 5.61133 4.23066 7.34933 4.23066 9.49433C4.23066 9.96733 4.32086 10.4227 4.48366 10.8429C4.28776 10.8064 4.08896 10.7879 3.88966 10.7879C2.19896 10.7879 0.826172 12.0903 0.826172 13.6996C0.826172 15.3078 2.19786 16.6113 3.89076 16.6113H11.0408Z" fill="url(#paint1_linear_343_533)"/>
<defs>
<linearGradient id="paint0_linear_343_533" x1="1.17705" y1="11.7394" x2="23.1775" y2="11.7394" gradientUnits="userSpaceOnUse">
<stop stop-color="#A93AFF"/>
<stop offset="1" stop-color="#FF81FF"/>
</linearGradient>
<linearGradient id="paint1_linear_343_533" x1="0.828267" y1="10.9483" x2="15.1285" y2="10.9483" gradientUnits="userSpaceOnUse">
<stop stop-color="#A93AFF"/>
<stop offset="1" stop-color="#FF81FF"/>
</linearGradient>
</defs>
</svg>
