<svg width="64" height="64" viewBox="0 0 64 64" fill="none" xmlns="http://www.w3.org/2000/svg">
<path opacity="0.4" d="M32.4364 11.1272C18.9372 11.1272 8 22.0615 8 35.5636C8 49.0657 18.9343 59.9999 32.4364 59.9999C45.9385 59.9999 56.8727 49.0657 56.8727 35.5636C56.8727 22.0615 45.9385 11.1272 32.4364 11.1272ZM28.0659 24.0413C37.2456 24.0413 44.753 31.4504 44.753 40.6302C44.753 49.81 37.2452 57.3173 28.0659 57.3173C18.8862 57.3173 11.4771 49.8095 11.4771 40.6302C11.4771 31.4504 18.8862 24.0413 28.0659 24.0413Z" fill="url(#paint0_linear_80_622)"/>
<path d="M46.6907 39.6364C46.6907 44.4972 44.7597 49.1587 41.3228 52.5958C37.8857 56.0327 33.2242 57.9636 28.3634 57.9636C23.5026 57.9636 18.8411 56.0327 15.404 52.5958C11.9671 49.1587 10.0361 44.4972 10.0361 39.6364C10.0361 34.7758 11.9671 30.1141 15.404 26.6769C18.8411 23.2401 23.5026 21.3091 28.3634 21.3091C33.2242 21.3091 37.8857 23.2401 41.3228 26.6769C44.7597 30.1141 46.6907 34.7758 46.6907 39.6364Z" fill="url(#paint1_linear_80_622)"/>
<path d="M50.7638 11.1273C50.7638 13.0176 50.0129 14.8304 48.6763 16.167C47.3397 17.5036 45.5268 18.2545 43.6365 18.2545C41.7463 18.2545 39.9334 17.5036 38.5968 16.167C37.2602 14.8304 36.5093 13.0176 36.5093 11.1273C36.5093 9.23698 37.2602 7.42416 38.5968 6.08753C39.9334 4.75091 41.7463 4 43.6365 4C45.5268 4 47.3397 4.75091 48.6763 6.08753C50.0129 7.42416 50.7638 9.23698 50.7638 11.1273Z" fill="url(#paint2_linear_80_622)"/>
<defs>
<linearGradient id="paint0_linear_80_622" x1="32.4364" y1="59.9999" x2="32.4364" y2="11.1272" gradientUnits="userSpaceOnUse">
<stop stop-color="#5570FF"/>
<stop offset="1" stop-color="#4DD3FF"/>
</linearGradient>
<linearGradient id="paint1_linear_80_622" x1="28.3634" y1="57.9636" x2="28.3634" y2="21.3091" gradientUnits="userSpaceOnUse">
<stop stop-color="#5570FF"/>
<stop offset="1" stop-color="#4DD3FF"/>
</linearGradient>
<linearGradient id="paint2_linear_80_622" x1="43.6365" y1="18.2545" x2="43.6365" y2="4" gradientUnits="userSpaceOnUse">
<stop stop-color="#5570FF"/>
<stop offset="1" stop-color="#4DD3FF"/>
</linearGradient>
</defs>
</svg>
