<svg width="32" height="32" viewBox="0 0 32 32" fill="none" xmlns="http://www.w3.org/2000/svg">
<path fill-rule="evenodd" clip-rule="evenodd" d="M28.4446 6.66667C28.4446 9.244 22.873 11.3333 16.0001 11.3333C9.12723 11.3333 3.55566 9.244 3.55566 6.66667C3.55566 4.08934 9.12723 2 16.0001 2C22.873 2 28.4446 4.08934 28.4446 6.66667ZM3.55566 12.8891C3.5581 12.6585 3.60608 12.4288 3.69874 12.2017C3.91514 11.6714 4.61761 11.6856 5.08942 12.0104C5.99372 12.6329 7.26882 13.1729 8.82563 13.5864C10.9234 14.1434 13.4296 14.4433 16.0001 14.4446C18.5706 14.4433 21.0768 14.1434 23.1746 13.5864C24.7314 13.1729 26.0065 12.6329 26.9108 12.0104C27.3826 11.6856 28.0851 11.6714 28.3015 12.2017C28.3941 12.4288 28.4421 12.6585 28.4446 12.8891C28.4446 14.1267 27.1334 15.3137 24.7997 16.1889C22.4659 17.0641 19.3006 17.5557 16.0001 17.5557C12.6996 17.5557 9.53434 17.0641 7.20056 16.1889C4.86677 15.3137 3.55566 14.1267 3.55566 12.8891Z" fill="white"/>
<path fill-rule="evenodd" clip-rule="evenodd" d="M28.4446 6.66667C28.4446 9.244 22.873 11.3333 16.0001 11.3333C9.12723 11.3333 3.55566 9.244 3.55566 6.66667C3.55566 4.08934 9.12723 2 16.0001 2C22.873 2 28.4446 4.08934 28.4446 6.66667ZM3.55566 12.8891C3.5581 12.6585 3.60608 12.4288 3.69874 12.2017C3.91514 11.6714 4.61761 11.6856 5.08942 12.0104C5.99372 12.6329 7.26882 13.1729 8.82563 13.5864C10.9234 14.1434 13.4296 14.4433 16.0001 14.4446C18.5706 14.4433 21.0768 14.1434 23.1746 13.5864C24.7314 13.1729 26.0065 12.6329 26.9108 12.0104C27.3826 11.6856 28.0851 11.6714 28.3015 12.2017C28.3941 12.4288 28.4421 12.6585 28.4446 12.8891C28.4446 14.1267 27.1334 15.3137 24.7997 16.1889C22.4659 17.0641 19.3006 17.5557 16.0001 17.5557C12.6996 17.5557 9.53434 17.0641 7.20056 16.1889C4.86677 15.3137 3.55566 14.1267 3.55566 12.8891Z" fill="url(#paint0_linear_235_115)"/>
<path opacity="0.4" fill-rule="evenodd" clip-rule="evenodd" d="M3.55566 19.1112C3.5581 18.8807 3.60608 18.6509 3.69874 18.4239C3.91514 17.8935 4.61761 17.9078 5.08942 18.2325C5.99372 18.855 7.26882 19.3951 8.82563 19.8085C10.9234 20.3656 13.4296 20.6654 16.0001 20.6668C18.5706 20.6654 21.0768 20.3656 23.1746 19.8085C24.7314 19.3951 26.0065 18.855 26.9108 18.2325C27.3826 17.9078 28.0851 17.8935 28.3015 18.4239C28.3941 18.6509 28.4421 18.8807 28.4446 19.1112C28.4446 20.3489 27.1334 21.5359 24.7997 22.4111C22.4659 23.2862 19.3006 23.7779 16.0001 23.7779C12.6996 23.7779 9.53434 23.2862 7.20056 22.4111C4.86677 21.5359 3.55566 20.3489 3.55566 19.1112ZM3.55566 25.3334C3.5581 25.1029 3.60608 24.8731 3.69874 24.646C3.91514 24.1157 4.61761 24.1299 5.08942 24.4547C5.99372 25.0772 7.26882 25.6173 8.82563 26.0307C10.9234 26.5878 13.4296 26.8876 16.0001 26.8889C18.5706 26.8876 21.0768 26.5878 23.1746 26.0307C24.7314 25.6173 26.0065 25.0772 26.9108 24.4547C27.3826 24.1299 28.0851 24.1157 28.3015 24.646C28.3941 24.8731 28.4421 25.1029 28.4446 25.3334C28.4446 26.5711 27.1334 27.758 24.7997 28.6332C22.4659 29.5084 19.3006 30.0001 16.0001 30.0001C12.6996 30.0001 9.53434 29.5084 7.20056 28.6332C4.86677 27.758 3.55566 26.5711 3.55566 25.3334Z" fill="url(#paint1_linear_235_115)"/>
<defs>
<linearGradient id="paint0_linear_235_115" x1="16.0001" y1="17.5557" x2="16.0001" y2="2" gradientUnits="userSpaceOnUse">
<stop stop-color="#FD2E00"/>
<stop offset="1" stop-color="#FF9900"/>
</linearGradient>
<linearGradient id="paint1_linear_235_115" x1="16.0001" y1="30.0001" x2="16.0001" y2="17.5557" gradientUnits="userSpaceOnUse">
<stop stop-color="#FD2E00"/>
<stop offset="1" stop-color="#FF9900"/>
</linearGradient>
</defs>
</svg>
