<svg width="24" height="24" viewBox="0 0 24 24" fill="none" xmlns="http://www.w3.org/2000/svg">
<path opacity="0.5" d="M21.3885 21.3885C23 19.7792 23 17.1854 23 12C23 11.6249 23 11.4368 22.9835 11.2454C22.9021 10.346 22.5487 9.49265 21.9704 8.799C21.8012 8.60682 21.6239 8.42185 21.4391 8.2446L15.7554 2.5609C15.578 2.37624 15.393 2.19899 15.201 2.0296C14.5072 1.45174 13.6539 1.09876 12.7546 1.0176C12.5632 1 12.374 1 12 1C6.8146 1 4.2219 1 2.6104 2.6104C1 4.223 1 6.8146 1 12C1 17.1854 1 19.7781 2.6104 21.3885C3.3639 22.142 4.3297 22.5435 5.675 22.7558L7.325 22.9241C8.5966 23 10.13 23 12 23C13.87 23 15.4034 23 16.675 22.9241L18.325 22.7558C19.6703 22.5424 20.6372 22.1409 21.3885 21.3885Z" fill="url(#paint0_linear_8_389)"/>
<path d="M5 6C4.73478 6 4.48043 6.10536 4.29289 6.29289C4.10536 6.48043 4 6.73478 4 7C4 7.26522 4.10536 7.51957 4.29289 7.70711C4.48043 7.89464 4.73478 8 5 8H13C13.2652 8 13.5196 7.89464 13.7071 7.70711C13.8946 7.51957 14 7.26522 14 7C14 6.73478 13.8946 6.48043 13.7071 6.29289C13.5196 6.10536 13.2652 6 13 6H5Z" fill="url(#paint1_linear_8_389)"/>
<path d="M15.6234 16.763C14.97 16.675 14.1461 16.675 13.1572 16.675H10.8428C9.85505 16.675 9.03005 16.675 8.37555 16.763C7.68585 16.8554 7.06215 17.06 6.56055 17.5616C6.06005 18.0621 5.85545 18.6858 5.76305 19.3766C5.67505 20.03 5.67505 20.8539 5.67505 21.8428V22.7547L7.32505 22.9186L16.675 22.9131L18.325 22.7591V21.8428C18.325 20.8539 18.325 20.03 18.237 19.3766C18.1446 18.6858 17.94 18.0621 17.4384 17.5616C16.9379 17.06 16.3142 16.8554 15.6234 16.763Z" fill="url(#paint2_linear_8_389)"/>
<defs>
<linearGradient id="paint0_linear_8_389" x1="12" y1="23" x2="12" y2="1" gradientUnits="userSpaceOnUse">
<stop stop-color="#A93AFF"/>
<stop offset="1" stop-color="#FF81FF"/>
</linearGradient>
<linearGradient id="paint1_linear_8_389" x1="9" y1="8" x2="9" y2="6" gradientUnits="userSpaceOnUse">
<stop stop-color="#A93AFF"/>
<stop offset="1" stop-color="#FF81FF"/>
</linearGradient>
<linearGradient id="paint2_linear_8_389" x1="12" y1="22.9186" x2="12" y2="16.675" gradientUnits="userSpaceOnUse">
<stop stop-color="#A93AFF"/>
<stop offset="1" stop-color="#FF81FF"/>
</linearGradient>
</defs>
</svg>
