<svg width="16" height="16" viewBox="0 0 16 16" fill="none" xmlns="http://www.w3.org/2000/svg">
<path opacity="0.4" d="M10.8587 14.3507C13.1122 14.3507 14.939 12.5239 14.939 10.2704C14.939 8.01698 13.1122 6.19019 10.8587 6.19019C8.60524 6.19019 6.77844 8.01698 6.77844 10.2704C6.77844 12.5239 8.60524 14.3507 10.8587 14.3507Z" fill="url(#paint0_linear_298_338)"/>
<path fill-rule="evenodd" clip-rule="evenodd" d="M4.39124 3.76897C4.49904 3.76924 4.58707 3.6833 4.59068 3.57557C4.61352 2.89357 4.64496 2.29492 4.67275 1.83655C4.67943 1.7263 4.77452 1.64268 4.88475 1.6497L5.95626 1.71796C6.0665 1.72498 6.15014 1.81997 6.14346 1.93023C6.11784 2.35338 6.08927 2.8954 6.06749 3.51021C6.06335 3.62718 6.16047 3.72243 6.27731 3.71557C7.63533 3.63587 8.98528 3.4701 10.466 3.23861C10.5751 3.22155 10.6777 3.29588 10.695 3.40496L10.8636 4.46533C10.8809 4.57442 10.8065 4.67695 10.6974 4.69402C9.12897 4.9393 7.68749 5.11497 6.22212 5.19473C6.11595 5.20051 6.0323 5.2878 6.03223 5.39412C6.0321 5.61693 6.03354 5.84264 6.03684 6.06983C6.03866 6.19484 6.15397 6.28679 6.27691 6.26404C6.98054 6.13387 7.76724 6.05456 8.53661 6.08913C8.60737 6.09231 8.67509 6.05906 8.71436 6.0001C8.85598 5.78752 8.9725 5.60575 9.05976 5.46684C9.1201 5.37078 9.16636 5.29536 9.19715 5.2446L9.23154 5.18751L9.2397 5.17381L9.24146 5.17084L9.24175 5.17034C9.24171 5.17041 9.24165 5.17051 9.87677 5.54409C10.5119 5.91766 10.5118 5.91782 10.5117 5.918L10.5114 5.91851L10.5105 5.92003L10.5075 5.92508L10.4968 5.94302C10.4876 5.95841 10.4743 5.98057 10.4571 6.00899C10.4226 6.06583 10.3723 6.14776 10.3077 6.25074V6.25074C10.2621 6.32328 10.2953 6.4195 10.3749 6.45113C10.7328 6.59331 11.0721 6.785 11.3728 7.04006C12.0328 7.59997 12.4368 8.40704 12.492 9.4583C12.539 10.3524 12.1136 11.0512 11.5634 11.557C11.0255 12.0516 10.3287 12.4036 9.68514 12.6539C9.03294 12.9075 8.38449 13.0759 7.90444 13.1807C7.66297 13.2334 7.46068 13.2708 7.31738 13.2952C7.24566 13.3074 7.18852 13.3164 7.14842 13.3224L7.10128 13.3293L7.08782 13.3312L7.08372 13.3318L7.08234 13.332L7.08182 13.332C7.0816 13.3321 7.08141 13.3321 6.98345 12.6018C6.88549 11.8715 6.88533 11.8715 6.88519 11.8715L6.88618 11.8714L6.89373 11.8703L6.92851 11.8652C6.96013 11.8605 7.00817 11.8529 7.07022 11.8424C7.19447 11.8212 7.3741 11.7881 7.59012 11.7409C8.02507 11.646 8.59392 11.4971 9.151 11.2804C9.71672 11.0604 10.2212 10.7892 10.5661 10.4721C10.8987 10.1663 11.0377 9.86517 11.0204 9.53564C10.9843 8.84959 10.7406 8.43628 10.4194 8.16382C10.1791 7.95994 9.86094 7.80648 9.47525 7.70452C9.39776 7.68403 9.31646 7.71524 9.26919 7.77997C8.87037 8.32609 8.39264 8.93612 7.86515 9.52243C7.49187 9.93734 7.08429 10.351 6.65328 10.725C6.5935 10.7769 6.5685 10.8588 6.59243 10.9343C6.63924 11.0819 6.68892 11.2176 6.74142 11.3406C6.78477 11.4422 6.74563 11.5624 6.64705 11.6122L5.68887 12.0967C5.5903 12.1465 5.46964 12.1071 5.42433 12.0064C5.38399 11.9167 5.34561 11.8238 5.3091 11.7282C5.30188 11.7093 5.27966 11.701 5.26186 11.7107V11.7107C4.30863 12.2238 3.17553 12.4683 2.10187 11.8625C1.47295 11.5076 1.07283 10.968 1.06129 10.2866C1.05094 9.67558 1.36087 9.12151 1.71371 8.68965C2.39064 7.8611 3.51843 7.12234 4.57448 6.72225C4.57614 6.72163 4.5772 6.72002 4.57715 6.71825V6.71825C4.56432 6.28916 4.55874 5.86149 4.55856 5.44389C4.55851 5.33293 4.46856 5.24292 4.35759 5.24254C3.6968 5.24028 3.01938 5.21759 2.31275 5.17228C2.20252 5.16521 2.11938 5.06961 2.12705 4.95942L2.2016 3.88832C2.20927 3.77813 2.30484 3.69509 2.41507 3.70213C3.09777 3.74576 3.75204 3.76738 4.39124 3.76897ZM2.85493 9.62204C3.20838 9.18943 3.78245 8.75078 4.40091 8.41897C4.52455 8.35264 4.67243 8.43759 4.68518 8.57733C4.7205 8.96452 4.76458 9.34368 4.81903 9.70771C4.8377 9.83252 4.85773 9.95655 4.87925 10.0794C4.8932 10.159 4.85896 10.2399 4.79009 10.2822C4.71419 10.3289 4.63857 10.3726 4.56333 10.4131C3.8399 10.8025 3.28173 10.8361 2.82606 10.579C2.53689 10.4159 2.53528 10.2993 2.53479 10.2636L2.53476 10.2616C2.533 10.158 2.59504 9.94014 2.85493 9.62204ZM6.26907 7.76799C6.17317 7.78843 6.10767 7.8767 6.11468 7.9745C6.1325 8.22292 6.1536 8.46753 6.17836 8.70644C6.19548 8.87169 6.39468 8.94012 6.50888 8.81945C6.59642 8.72696 6.68337 8.63263 6.76959 8.53679C6.94878 8.33762 7.12239 8.13471 7.28899 7.93215C7.39953 7.79775 7.29423 7.60183 7.12156 7.62351C6.82697 7.66048 6.53961 7.71033 6.26907 7.76799Z" fill="url(#paint1_linear_298_338)"/>
<defs>
<linearGradient id="paint0_linear_298_338" x1="10.8587" y1="14.3507" x2="10.8587" y2="6.19019" gradientUnits="userSpaceOnUse">
<stop stop-color="#FDA700"/>
<stop offset="1" stop-color="#FFDE00"/>
</linearGradient>
<linearGradient id="paint1_linear_298_338" x1="6.77832" y1="13.332" x2="6.77832" y2="1.64929" gradientUnits="userSpaceOnUse">
<stop stop-color="#FD5900"/>
<stop offset="1" stop-color="#FFDE00"/>
</linearGradient>
</defs>
</svg>
