<svg width="16" height="16" viewBox="0 0 16 16" fill="none" xmlns="http://www.w3.org/2000/svg">
<g clip-path="url(#clip0_41_149)">
<path d="M5.48204 12.9089C4.54004 12.6739 4.01604 11.9249 4.01404 10.8139C4.01404 10.4589 4.03904 10.2889 4.12804 10.0599C4.34504 9.49992 4.92104 9.07792 5.67804 8.92192C6.05504 8.84492 6.17104 8.76192 6.17104 8.56892C6.17104 8.50892 6.21604 8.32892 6.27104 8.16992C6.52004 7.44592 6.98104 6.84292 7.47304 6.59692C7.98804 6.33892 8.24904 6.28092 8.87204 6.28392C9.75804 6.28892 10.199 6.48092 10.817 7.12992L10.9798 7.30078C11.0878 7.41418 11.252 7.45413 11.4 7.403L11.461 7.38192C12.934 6.87192 14.403 7.73992 14.522 9.19092L14.5333 9.33066C14.5459 9.48728 14.6491 9.62201 14.797 9.67505L14.844 9.69192C15.673 9.98892 16.062 10.6119 15.992 11.5289C15.946 12.1279 15.666 12.6069 15.222 12.8439L15.1012 12.9087C15.0433 12.9397 14.9787 12.956 14.913 12.9561L10.375 12.9649C6.81104 12.9719 5.67804 12.9579 5.48204 12.9089Z" fill="url(#paint0_linear_41_149)"/>
<path opacity="0.4" d="M0.168 10.973C0.44882 11.5756 1.04723 12.1033 1.61192 12.2457C1.61206 12.2458 1.61213 12.2456 1.61199 12.2455C1.61186 12.2454 1.61178 12.2452 1.61192 12.2452C1.8204 12.2961 3.29507 12.3129 3.341 12.264C3.359 12.245 3.328 12.134 3.271 12.017C3.121 11.707 3.013 11.164 3.013 10.721C3.012 9.50301 3.706 8.55101 4.895 8.13901C5.279 8.00601 5.369 7.94701 5.369 7.83001C5.369 7.66501 5.653 6.99801 5.875 6.64101C6.17532 6.15104 6.60373 5.75236 7.114 5.48801C8.401 4.81801 9.914 5.03001 10.842 6.01001L11.0061 6.18355C11.1076 6.29093 11.26 6.33359 11.4025 6.29451L11.532 6.25901C11.6973 6.21125 11.8662 6.17713 12.037 6.15701C12.218 6.15301 12.226 6.01601 12.072 5.52901C11.59 4.00301 10.287 3.00401 8.775 3.00001C8.234 2.99901 7.782 3.10501 7.347 3.33601C6.944 3.55001 6.483 3.90701 6.239 4.24501C5.827 4.81601 5.849 4.79801 5.654 4.71601C5.04 4.45601 4.299 4.47401 3.734 4.65801C2.689 4.99901 1.94 6.06201 1.895 7.26801C1.888 7.46201 1.865 7.64901 1.845 7.68301C1.825 7.71701 1.698 7.77501 1.562 7.81101C1.24899 7.89221 0.958432 8.04326 0.71215 8.25283C0.465868 8.46239 0.270256 8.72502 0.14 9.02101C0.014 9.30701 0 9.39901 0 9.97501C0 10.58 0.009 10.631 0.168 10.973Z" fill="url(#paint1_linear_41_149)"/>
</g>
<defs>
<linearGradient id="paint0_linear_41_149" x1="10.007" y1="12.9666" x2="10.007" y2="6.28381" gradientUnits="userSpaceOnUse">
<stop stop-color="#5570FF"/>
<stop offset="1" stop-color="#4DD3FF"/>
</linearGradient>
<linearGradient id="paint1_linear_41_149" x1="6.09032" y1="12.2932" x2="6.09032" y2="3" gradientUnits="userSpaceOnUse">
<stop stop-color="#5570FF"/>
<stop offset="1" stop-color="#4DD3FF"/>
</linearGradient>
<clipPath id="clip0_41_149">
<rect width="16" height="16" fill="white"/>
</clipPath>
</defs>
</svg>
