<svg width="24" height="24" viewBox="0 0 24 24" fill="none" xmlns="http://www.w3.org/2000/svg">
<path opacity="0.4" d="M20.5556 1C21.2039 1 21.8256 1.25754 22.284 1.71596C22.7425 2.17438 23 2.79614 23 3.44444V20.5556C23 21.2039 22.7425 21.8256 22.284 22.284C21.8256 22.7425 21.2039 23 20.5556 23H3.44444C2.79614 23 2.17438 22.7425 1.71596 22.284C1.25754 21.8256 1 21.2039 1 20.5556V3.44444C1 2.79614 1.25754 2.17438 1.71596 1.71596C2.17438 1.25754 2.79614 1 3.44444 1H20.5556Z" fill="#FF007F"/>
<path fill-rule="evenodd" clip-rule="evenodd" d="M12.333 6.64885C12.3341 6.60612 12.2921 6.57551 12.2517 6.58966L9.28856 7.62904C9.03219 7.71746 8.82635 7.87301 8.67097 8.09571C8.51611 8.31887 8.43864 8.56239 8.43864 8.82621V14.5552C8.43864 14.7897 8.37905 15.0054 8.25974 15.202C8.13948 15.3987 7.97523 15.5526 7.76695 15.6637L6.272 16.4652C6.13444 16.5351 5.99711 16.5701 5.86003 16.5701C5.62097 16.5701 5.41799 16.4881 5.25108 16.324C5.08369 16.1599 5 15.9604 5 15.7254V7.65457C5 7.36143 5.07937 7.08011 5.23809 6.81061C5.39586 6.54064 5.60606 6.33237 5.86869 6.18579L11.2056 3.20213C11.3249 3.13782 11.4533 3.08818 11.5909 3.05319C11.728 3.01773 11.8651 3 12.0021 3C12.1036 3 12.1951 3.00733 12.2763 3.02199C12.3154 3.02916 12.3563 3.03808 12.399 3.04876C12.4127 3.05218 12.4262 3.0421 12.4265 3.02799C12.4269 3.01376 12.4405 3.00366 12.4542 3.00744L17.6201 4.43165C17.813 4.48693 17.989 4.56961 18.1478 4.67968C18.3071 4.78874 18.4446 4.91942 18.5602 5.0717C18.6758 5.22499 18.7645 5.39336 18.8263 5.57682C18.8891 5.76126 18.9198 5.95326 18.9198 6.15279V17.7349C18.9198 18.1405 18.8012 18.5006 18.564 18.8152C18.3267 19.1303 18.0118 19.3439 17.6193 19.4561L12.4265 20.9442C12.3581 20.9628 12.2852 20.9766 12.2078 20.9857C12.1294 20.9952 12.0558 21 11.987 21C11.7879 21 11.607 20.9736 11.4441 20.9209C11.2828 20.8676 11.1179 20.7942 10.9496 20.7007L7.55329 18.7828C7.42864 18.7139 7.33039 18.6219 7.25852 18.5069C7.18665 18.3913 7.15071 18.2619 7.15071 18.1186C7.15071 17.9005 7.22711 17.715 7.3799 17.5623C7.53268 17.4089 7.71839 17.3323 7.93702 17.3323H11.933C12.1539 17.3323 12.333 17.1532 12.333 16.9323V6.64885ZM17.7226 17.7341V6.15277C17.7226 6.01556 17.6823 5.89544 17.6019 5.79241C17.52 5.68987 17.4138 5.61951 17.2831 5.58132L14.7289 4.8802C14.5293 4.82441 14.3298 4.76661 14.1302 4.7068C14.0956 4.69657 14.0609 4.68649 14.0262 4.67653C13.7761 4.6048 13.5317 4.79582 13.5317 5.05595V18.8498C13.5317 19.1157 13.7863 19.3076 14.0419 19.2343L17.2831 18.3048C17.4138 18.2676 17.5198 18.1973 17.6012 18.0937C17.6821 17.9912 17.7226 17.8713 17.7226 17.7341Z" fill="#FF007F"/>
</svg>
