<svg width="24" height="24" viewBox="0 0 24 24" fill="none" xmlns="http://www.w3.org/2000/svg">
<path fill-rule="evenodd" clip-rule="evenodd" d="M15.5241 1.0051L2.86602 2.81368C2.62597 2.84787 2.40531 2.96753 2.2464 3.15067C2.08749 3.33381 2 3.56814 2 3.81061V20.1895C2 20.432 2.08749 20.6663 2.2464 20.8495C2.40531 21.0326 2.62497 21.1523 2.86502 21.1865L15.5251 22.995C15.5964 23.0051 15.6691 22.9998 15.7382 22.9794C15.8074 22.9589 15.8713 22.9239 15.9257 22.8767C15.9801 22.8294 16.0237 22.771 16.0537 22.7054C16.0836 22.6399 16.099 22.5686 16.0991 22.4966V1.50357C16.0991 1.4314 16.0836 1.36007 16.0536 1.29442C16.0236 1.22877 15.9799 1.17033 15.9254 1.12305C15.8708 1.07578 15.8068 1.04078 15.7375 1.02043C15.6683 1.00008 15.5955 0.994854 15.5241 1.0051ZM9.3 13.4H6.8V17H5V7H9.3C10.83 7 11.45 7.29 12.1 7.88C12.75 8.5 13 9.26 13 10.23C13 11.25 12.74 12.03 12.1 12.58C11.46 13.12 10.8 13.4 9.3 13.4ZM6.79999 8.40002V12H9.21999C9.89999 12 10.28 11.81 10.6 11.5C10.92 11.19 11.1 10.8 11.1 10.24C11.1 9.72002 10.93 9.35003 10.6 9.00002C10.27 8.65002 9.75999 8.40002 9.09999 8.40002H6.79999Z" fill="url(#paint0_linear_41_132)"/>
<path opacity="0.4" d="M21.1341 2.93652H17.1061V21.0626H21.1341C21.4012 21.0626 21.6573 20.9565 21.8462 20.7676C22.035 20.5788 22.1411 20.3227 22.1411 20.0556V3.94353C22.1411 3.67645 22.035 3.42032 21.8462 3.23147C21.6573 3.04262 21.4012 2.93652 21.1341 2.93652Z" fill="url(#paint1_linear_41_132)"/>
<defs>
<linearGradient id="paint0_linear_41_132" x1="9.04953" y1="23" x2="9.04953" y2="1" gradientUnits="userSpaceOnUse">
<stop stop-color="#FD4C00"/>
<stop offset="1" stop-color="#FFB800"/>
</linearGradient>
<linearGradient id="paint1_linear_41_132" x1="19.6236" y1="21.0626" x2="19.6236" y2="2.93652" gradientUnits="userSpaceOnUse">
<stop stop-color="#FD4C00"/>
<stop offset="1" stop-color="#FFB800"/>
</linearGradient>
</defs>
</svg>
