<svg width="32" height="32" viewBox="0 0 32 32" fill="none" xmlns="http://www.w3.org/2000/svg">
<path d="M3.81201 3.83734L20.572 1.44267C20.6666 1.4291 20.763 1.43602 20.8547 1.46297C20.9464 1.48991 21.0312 1.53625 21.1034 1.59885C21.1756 1.66144 21.2335 1.73882 21.2731 1.82575C21.3128 1.91267 21.3334 2.00711 21.3333 2.10267V29.8987C21.3333 29.9941 21.3128 30.0884 21.2732 30.1752C21.2336 30.262 21.1759 30.3394 21.1038 30.4019C21.0318 30.4645 20.9471 30.5109 20.8556 30.5379C20.7641 30.565 20.6678 30.572 20.5733 30.5587L3.81068 28.164C3.49284 28.1187 3.202 27.9603 2.9916 27.7178C2.78119 27.4753 2.66535 27.1651 2.66534 26.844V5.15734C2.66535 4.83629 2.78119 4.52602 2.9916 4.28353C3.202 4.04103 3.49417 3.8826 3.81201 3.83734ZM15.2667 10.6667C14.9353 10.6667 14.6667 10.9353 14.6667 11.2667V15.8766C14.6667 16.4104 14.0219 16.6784 13.6435 16.3019L12.4253 15.0899C12.1904 14.8561 11.8105 14.8571 11.5768 15.092L10.3691 16.3058C9.99197 16.6848 9.34485 16.4185 9.34378 15.8838L9.33454 11.2655C9.33388 10.9346 9.06545 10.6667 8.73454 10.6667H7.26668C6.93531 10.6667 6.66668 10.9353 6.66668 11.2667V20.7333C6.66668 21.0647 6.93531 21.3333 7.26668 21.3333H9.08482C9.24395 21.3333 9.39656 21.2701 9.50908 21.1576L11.5757 19.0909C11.8101 18.8566 12.19 18.8566 12.4243 19.0909L14.4909 21.1576C14.6035 21.2701 14.7561 21.3333 14.9152 21.3333H16.7333C17.0647 21.3333 17.3333 21.0647 17.3333 20.7333V11.2667C17.3333 10.9353 17.0647 10.6667 16.7333 10.6667H15.2667Z" fill="url(#paint0_linear_41_115)"/>
<path opacity="0.4" d="M28 4H22.6666V28H28C28.3536 28 28.6927 27.8595 28.9428 27.6095C29.1928 27.3594 29.3333 27.0203 29.3333 26.6667V5.33333C29.3333 4.97971 29.1928 4.64057 28.9428 4.39052C28.6927 4.14048 28.3536 4 28 4Z" fill="url(#paint1_linear_41_115)"/>
<defs>
<linearGradient id="paint0_linear_41_115" x1="11.9993" y1="30.5652" x2="11.9993" y2="1.43591" gradientUnits="userSpaceOnUse">
<stop stop-color="#5570FF"/>
<stop offset="1" stop-color="#4DD3FF"/>
</linearGradient>
<linearGradient id="paint1_linear_41_115" x1="26" y1="28" x2="26" y2="4" gradientUnits="userSpaceOnUse">
<stop stop-color="#5570FF"/>
<stop offset="1" stop-color="#4DD3FF"/>
</linearGradient>
</defs>
</svg>
