<svg width="32" height="32" viewBox="0 0 32 32" fill="none" xmlns="http://www.w3.org/2000/svg">
<g clip-path="url(#clip0_5_77)">
<path d="M7.83337 24.1667H14.8334V26.5H10.1667C9.85728 26.5 9.56053 26.6229 9.34174 26.8417C9.12295 27.0605 9.00003 27.3572 9.00003 27.6667C9.00003 27.9761 9.12295 28.2728 9.34174 28.4916C9.56053 28.7104 9.85728 28.8333 10.1667 28.8333H21.8334C22.1428 28.8333 22.4395 28.7104 22.6583 28.4916C22.8771 28.2728 23 27.9761 23 27.6667C23 27.3572 22.8771 27.0605 22.6583 26.8417C22.4395 26.6229 22.1428 26.5 21.8334 26.5H17.1667V24.1667H24.1667C25.5109 24.165 26.8135 23.6999 27.8548 22.8498C28.8962 21.9998 29.6126 20.8167 29.8834 19.5H2.1167C2.38748 20.8167 3.10391 21.9998 4.14524 22.8498C5.18657 23.6999 6.48913 24.165 7.83337 24.1667V24.1667Z" fill="url(#paint0_linear_5_77)"/>
<path opacity="0.4" d="M24.1667 3.16647H7.83333C6.28681 3.16833 4.80415 3.7835 3.71059 4.87706C2.61703 5.97062 2.00185 7.45328 2 8.99981L2 17.1665H30V8.99981C29.9981 7.45328 29.383 5.97062 28.2894 4.87706C27.1958 3.7835 25.7132 3.16833 24.1667 3.16647V3.16647Z" fill="url(#paint1_linear_5_77)"/>
</g>
<defs>
<linearGradient id="paint0_linear_5_77" x1="1.71535" y1="19.5918" x2="7.39089" y2="36.9932" gradientUnits="userSpaceOnUse">
<stop stop-color="#F9D423"/>
<stop offset="0.515624" stop-color="#FF4E50"/>
<stop offset="0.991304" stop-color="#8A2387"/>
</linearGradient>
<linearGradient id="paint1_linear_5_77" x1="1.59528" y1="3.30423" x2="12.9365" y2="26.6807" gradientUnits="userSpaceOnUse">
<stop stop-color="#F9D423"/>
<stop offset="0.515624" stop-color="#FF4E50"/>
<stop offset="0.991304" stop-color="#8A2387"/>
</linearGradient>
<clipPath id="clip0_5_77">
<rect width="28" height="28" fill="white" transform="translate(2 2)"/>
</clipPath>
</defs>
</svg>
