<svg width="24" height="24" viewBox="0 0 24 24" fill="none" xmlns="http://www.w3.org/2000/svg">
<path opacity="0.5" fill-rule="evenodd" clip-rule="evenodd" d="M2.6104 2.6104C1 4.223 1 6.8146 1 12C1 17.1854 1 19.7781 2.6104 21.3885C4.223 23 6.8146 23 12 23C17.1854 23 19.7781 23 21.3885 21.3885C23 19.7792 23 17.1854 23 12C23 6.8146 23 4.2219 21.3885 2.6104C19.7792 1 17.1854 1 12 1C6.8146 1 4.2219 1 2.6104 2.6104Z" fill="url(#paint0_linear_12_82)"/>
<path d="M8.1544 13.2947C7.84578 12.9671 7.42013 12.7748 6.97029 12.7597C6.52045 12.7447 6.08291 12.9081 5.7531 13.2144L4.8621 14.0427C4.70164 14.1917 4.48859 14.2707 4.26982 14.2626C4.05105 14.2545 3.84448 14.1597 3.69555 13.9993C3.54661 13.8388 3.46752 13.6258 3.47567 13.407C3.48382 13.1882 3.57854 12.9817 3.739 12.8327L4.63 12.0055C5.27892 11.4026 6.13993 11.0808 7.02521 11.1103C7.9105 11.1397 8.74821 11.5181 9.3556 12.1628L12.2673 15.2538C12.4145 15.41 12.6139 15.5066 12.8277 15.5253C13.0415 15.544 13.2547 15.4834 13.4267 15.355C14.0659 14.8782 14.8534 14.6431 15.6494 14.6917C16.4454 14.7402 17.1985 15.0691 17.775 15.6201L20.2698 18.0038C20.4211 18.1565 20.5069 18.3622 20.5088 18.5771C20.5108 18.792 20.4288 18.9992 20.2803 19.1546C20.1318 19.31 19.9285 19.4013 19.7137 19.4091C19.4989 19.4168 19.2895 19.3405 19.1302 19.1962L16.6354 16.8136C16.3408 16.532 15.9559 16.3639 15.5492 16.3392C15.1424 16.3144 14.74 16.4346 14.4134 16.6783C13.9168 17.0488 13.3012 17.2237 12.684 17.1698C12.0668 17.1158 11.4909 16.8368 11.0661 16.3857L8.1544 13.2947ZM18.6 7.60002C18.6 8.1835 18.3682 8.74308 17.9556 9.15566C17.5431 9.56824 16.9835 9.80002 16.4 9.80002C15.8165 9.80002 15.2569 9.56824 14.8444 9.15566C14.4318 8.74308 14.2 8.1835 14.2 7.60002C14.2 7.01655 14.4318 6.45697 14.8444 6.04439C15.2569 5.63181 15.8165 5.40002 16.4 5.40002C16.9835 5.40002 17.5431 5.63181 17.9556 6.04439C18.3682 6.45697 18.6 7.01655 18.6 7.60002Z" fill="url(#paint1_linear_12_82)" stroke="url(#paint2_linear_12_82)"/>
<defs>
<linearGradient id="paint0_linear_12_82" x1="12" y1="23" x2="12" y2="1" gradientUnits="userSpaceOnUse">
<stop stop-color="#FD2E00"/>
<stop offset="1" stop-color="#FF9900"/>
</linearGradient>
<linearGradient id="paint1_linear_12_82" x1="11.992" y1="19.4096" x2="11.992" y2="5.40002" gradientUnits="userSpaceOnUse">
<stop stop-color="#FD2E00"/>
<stop offset="1" stop-color="#FF9900"/>
</linearGradient>
<linearGradient id="paint2_linear_12_82" x1="11.992" y1="19.4096" x2="11.992" y2="5.40002" gradientUnits="userSpaceOnUse">
<stop stop-color="#FD2E00"/>
<stop offset="1" stop-color="#FF9900"/>
</linearGradient>
</defs>
</svg>
