<svg width="32" height="32" viewBox="0 0 32 32" fill="none" xmlns="http://www.w3.org/2000/svg">
<path d="M29.9999 19.7833V21.7202C29.9999 22.0417 29.9858 22.3659 29.9578 22.6873C29.565 27.11 26.4929 30 22.06 30H9.93976C7.69527 30 5.80148 29.2715 4.44076 27.9508C3.90769 27.4609 3.45879 26.8854 3.10809 26.2258C3.57102 25.6629 4.09006 25.0467 4.59507 24.4292C5.45078 23.4045 6.27843 22.3926 6.79747 21.7343C7.56902 20.7798 9.60308 18.2674 12.4227 19.4464C12.9979 19.685 13.5029 20.0219 13.9658 20.3167C15.1021 21.0746 15.579 21.2992 16.3786 20.8641C17.2624 20.3868 17.8376 19.4464 18.4408 18.4639C18.7634 17.9432 19.086 17.4393 19.4367 16.9761C20.9658 14.983 23.3225 14.4497 25.2864 15.6287C26.2684 16.2182 27.1101 16.9621 27.8957 17.7186C28.064 17.8871 28.2323 18.0428 28.3867 18.1972C28.5971 18.4078 29.2985 19.1096 29.9999 19.7833Z" fill="url(#paint0_linear_223_78)"/>
<path opacity="0.4" d="M22.0741 2H9.93988C5.18437 2 2 5.3265 2 10.2798V21.7204C2 23.4454 2.39279 24.9767 3.10822 26.2259C3.57114 25.6631 4.09018 25.0469 4.59519 24.4279C5.4509 23.4047 6.27856 22.3927 6.7976 21.7344C7.56914 20.78 9.60321 18.2676 12.4228 19.4466C12.998 19.6852 13.503 20.022 13.9659 20.3168C15.1022 21.0747 15.5792 21.2993 16.3788 20.8628C17.2625 20.387 17.8377 19.4466 18.4409 18.4627C18.7635 17.9433 19.0862 17.4394 19.4369 16.9763C20.9659 14.9832 23.3226 14.4498 25.2866 15.6288C26.2685 16.2183 27.1102 16.9622 27.8958 17.7188C28.0641 17.8872 28.2325 18.043 28.3868 18.1974C28.5972 18.4065 29.2986 19.1083 30 19.7834V10.2798C30 5.3265 26.8156 2 22.0741 2Z" fill="url(#paint1_linear_223_78)"/>
<path d="M15.2362 11.5153C15.2362 13.4874 13.5935 15.1296 11.6225 15.1296C9.65301 15.1296 8.01031 13.4874 8.01031 11.5153C8.01031 9.54472 9.65301 7.90112 11.6225 7.90112C13.5935 7.90112 15.2362 9.54472 15.2362 11.5153Z" fill="url(#paint2_linear_223_78)"/>
<defs>
<linearGradient id="paint0_linear_223_78" x1="16.554" y1="30" x2="16.554" y2="15.0092" gradientUnits="userSpaceOnUse">
<stop stop-color="#FF4D1C"/>
<stop offset="1" stop-color="#FFA336"/>
</linearGradient>
<linearGradient id="paint1_linear_223_78" x1="16" y1="26.226" x2="16" y2="2.00007" gradientUnits="userSpaceOnUse">
<stop stop-color="#FFA336"/>
<stop offset="1" stop-color="#FF4D1C"/>
</linearGradient>
<linearGradient id="paint2_linear_223_78" x1="11.6232" y1="15.1296" x2="11.6232" y2="7.90114" gradientUnits="userSpaceOnUse">
<stop stop-color="#FF4D1C"/>
<stop offset="1" stop-color="#FFA336"/>
</linearGradient>
</defs>
</svg>
