<svg width="64" height="64" viewBox="0 0 64 64" fill="none" xmlns="http://www.w3.org/2000/svg">
<path opacity="0.4" d="M5 50.1442V25.1166C5 24.0121 5.89543 23.1166 7 23.1166H7.31999H7.63999C8.74456 23.1166 9.63999 24.0121 9.63999 25.1166V28.9692V30.175H10.8457H17.8971H19.1028L19.1028 28.9692V18.0583C19.1028 16.9537 19.9983 16.0583 21.1028 16.0583H24.9485H26.1543L26.1543 14.8526V11C26.1543 9.89543 27.0497 9 28.1543 9H28.7942C29.8988 9 30.7942 9.89543 30.7942 11V21.9109V23.1166L32 23.1166H39.0514H40.2571V21.9109V18.0583C40.2571 16.9537 41.1526 16.0583 42.2571 16.0583H42.8971C44.0017 16.0583 44.8971 16.9537 44.8971 18.0583V21.9109V23.1166L46.1028 23.1166H53.1543H54.36V21.9109V18.0583C54.36 16.9537 55.2554 16.0583 56.36 16.0583H56.68H57C58.1046 16.0583 59 16.9538 59 18.0583V50.1442C59 51.773 58.4382 53.1299 57.2869 54.2824L5 50.1442ZM5 50.1442C5 51.773 5.56172 53.1299 6.71313 54.2824C7.86451 55.435 9.21965 55.9968 10.8457 55.9968H53.1543C54.7804 55.9968 56.1355 55.435 57.2869 54.2824L5 50.1442Z" fill="url(#paint0_linear_80_400)" stroke="url(#paint1_linear_80_400)" stroke-width="2"/>
<path d="M30.2627 42.2867L31.3339 43.411L32.543 42.259L31.3063 41.1367L30.2627 42.2867ZM31.7687 40.8571L30.7238 42.006L31.7852 42.9713L32.8314 41.9895L31.7687 40.8571ZM36.7951 36.7571L37.6337 38.0642L37.6403 38.0599L36.7951 36.7571ZM43.4418 34.5534L43.4005 36.1057L43.4277 36.1064L43.4549 36.1062L43.4418 34.5534ZM31.8104 43.701L32.8582 42.5548L31.7884 41.577L30.7392 42.5767L31.8104 43.701ZM33.3166 42.2725L32.2548 41.1392L31.0296 42.2873L32.2696 43.4194L33.3166 42.2725ZM37.9158 38.4983L37.0772 37.1912L37.0699 37.1959L37.9158 38.4983ZM15.3367 37.4519C13.9885 38.837 13.0706 40.6808 13.0706 42.4709H16.1765C16.1765 41.6916 16.6203 40.586 17.5624 39.6182L15.3367 37.4519ZM20.471 35.0706C18.5339 35.0706 16.6869 36.0646 15.3367 37.4519L17.5624 39.6182C18.495 38.6601 19.5847 38.1765 20.471 38.1765V35.0706ZM26.622 37.3102C24.6731 35.9939 22.6272 35.0706 20.471 35.0706V38.1765C21.7353 38.1765 23.1631 38.722 24.8836 39.884L26.622 37.3102ZM31.3063 41.1367C29.7779 39.7496 28.2194 38.3891 26.622 37.3102L24.8836 39.884C26.2812 40.8279 27.6979 42.0562 29.219 43.4367L31.3063 41.1367ZM26.4703 47.6253C28.1331 46.4469 29.7399 44.9299 31.3339 43.411L29.1914 41.1624C27.57 42.7074 26.1231 44.0647 24.6745 45.0912L26.4703 47.6253ZM20.9723 49.8548C22.9391 49.7245 24.7524 48.8427 26.4703 47.6253L24.6745 45.0912C23.1875 46.1449 21.9282 46.6787 20.7669 46.7557L20.9723 49.8548ZM20.471 49.8715C20.6388 49.8715 20.8059 49.8659 20.9723 49.8548L20.7669 46.7557C20.668 46.7623 20.5695 46.7656 20.471 46.7656V49.8715ZM15.3367 47.4902C16.6869 48.8775 18.5339 49.8715 20.471 49.8715V46.7656C19.5847 46.7656 18.495 46.282 17.5624 45.3239L15.3367 47.4902ZM13.0706 42.4709C13.0706 44.2612 13.9885 46.1049 15.3367 47.4902L17.5624 45.3239C16.6203 44.356 16.1765 43.2504 16.1765 42.4709H13.0706ZM20.4683 48.8362C18.8828 48.8352 17.2892 48.012 16.0786 46.7681L13.8529 48.9344C15.478 50.6041 17.8277 51.9406 20.4666 51.9421L20.4683 48.8362ZM16.0786 46.7681C14.8654 45.5217 14.1059 43.9239 14.1059 42.4709H11C11 44.9375 12.2361 47.2733 13.8529 48.9344L16.0786 46.7681ZM14.1059 42.4709C14.1059 41.0181 14.8655 39.4203 16.0786 38.1739L13.8529 36.0077C12.2361 37.6687 11 40.0043 11 42.4709H14.1059ZM16.0786 38.1739C17.29 36.9294 18.8845 36.1059 20.471 36.1059V33C17.8303 33 15.4789 34.3371 13.8529 36.0077L16.0786 38.1739ZM20.471 36.1059C22.3298 36.1059 24.1698 36.9032 26.0425 38.1681L27.7809 35.5943C25.6801 34.1753 23.2218 33 20.471 33V36.1059ZM26.0425 38.1681C27.5992 39.2195 29.1506 40.5751 30.7238 42.006L32.8136 39.7082C31.2352 38.2727 29.5401 36.7824 27.7809 35.5943L26.0425 38.1681ZM32.8314 41.9895C34.3486 40.5658 35.8757 39.2178 37.468 38.1717L35.7628 35.5759C33.9349 36.7766 32.2467 38.2789 30.706 39.7247L32.8314 41.9895ZM37.468 38.1717C37.5234 38.1354 37.5786 38.0996 37.6337 38.0642L35.9563 35.4501C35.8913 35.4919 35.8268 35.5338 35.7628 35.5759L37.468 38.1717ZM37.6403 38.0599C39.4827 36.8645 41.3789 36.1059 43.4137 36.1059V33C40.5732 33 38.0894 34.0662 35.9497 35.4544L37.6403 38.0599ZM43.4137 36.1059C43.4093 36.1059 43.4049 36.1058 43.4005 36.1057L43.483 33.0009C43.4599 33.0003 43.4368 33 43.4137 33V36.1059ZM43.4549 36.1062C43.4796 36.106 43.5043 36.1059 43.529 36.1059V33C43.4954 33 43.462 33.0001 43.4285 33.0004L43.4549 36.1062ZM43.529 36.1059C45.1155 36.1059 46.71 36.9294 47.9214 38.1739L50.1471 36.0077C48.5211 34.3371 46.1697 33 43.529 33V36.1059ZM47.9214 38.1739C49.1346 39.4203 49.8941 41.0181 49.8941 42.4709H53C53 40.0043 51.7639 37.6687 50.1471 36.0077L47.9214 38.1739ZM49.8941 42.4709C49.8941 43.9239 49.1346 45.5217 47.9214 46.7681L50.1471 48.9344C51.7639 47.2733 53 44.9375 53 42.4709H49.8941ZM47.9214 46.7681C46.71 48.0127 45.1155 48.8362 43.529 48.8362V51.9421C46.1697 51.9421 48.5212 50.605 50.1471 48.9344L47.9214 46.7681ZM43.529 48.8362C41.6702 48.8362 39.8302 48.0389 37.9575 46.774L36.2191 49.3478C38.32 50.7668 40.7782 51.9421 43.529 51.9421V48.8362ZM37.9575 46.774C36.2588 45.6266 34.5719 44.1215 32.8582 42.5548L30.7626 44.8473C32.4631 46.4018 34.306 48.0558 36.2191 49.3478L37.9575 46.774ZM30.7392 42.5767C29.0975 44.1409 27.5052 45.6384 25.8875 46.7801L27.6784 49.3177C29.5127 48.023 31.2658 46.3648 32.8816 44.8253L30.7392 42.5767ZM25.8875 46.7801C24.2615 47.9275 22.6452 48.6897 20.9706 48.8171L21.2063 51.9141C23.6677 51.7267 25.8254 50.6253 27.6784 49.3177L25.8875 46.7801ZM20.9706 48.8171C20.8195 48.8286 20.6676 48.835 20.5148 48.8361L20.5355 51.9419C20.7612 51.9404 20.9848 51.931 21.2063 51.9141L20.9706 48.8171ZM20.5148 48.8361C20.5002 48.8362 20.4856 48.8362 20.471 48.8362V51.9421C20.4926 51.9421 20.5141 51.942 20.5355 51.9419L20.5148 48.8361ZM20.471 48.8362C20.4708 48.8362 20.4705 48.8362 20.4699 48.8362C20.4694 48.8362 20.4693 48.8362 20.4683 48.8362L20.4666 51.9421C20.4668 51.9421 20.4679 51.9421 20.4687 51.9421C20.4692 51.9421 20.4701 51.9421 20.471 51.9421V48.8362ZM32.2696 43.4194C33.9371 44.9416 35.6371 46.4561 37.378 47.6319L39.1164 45.0582C37.5876 44.0255 36.0414 42.6571 34.3636 41.1256L32.2696 43.4194ZM37.378 47.6319C39.3269 48.9482 41.3728 49.8715 43.529 49.8715V46.7656C42.2648 46.7656 40.8369 46.2201 39.1164 45.0582L37.378 47.6319ZM43.529 49.8715C45.4661 49.8715 47.3131 48.8775 48.6633 47.4902L46.4376 45.3239C45.505 46.282 44.4153 46.7656 43.529 46.7656V49.8715ZM48.6633 47.4902C50.0116 46.1049 50.9294 44.2612 50.9294 42.4709H47.8235C47.8235 43.2504 47.3797 44.356 46.4376 45.3239L48.6633 47.4902ZM50.9294 42.4709C50.9294 40.6808 50.0116 38.837 48.6633 37.4519L46.4376 39.6182C47.3797 40.586 47.8235 41.6916 47.8235 42.4709H50.9294ZM48.6633 37.4519C47.3131 36.0646 45.4661 35.0706 43.529 35.0706V38.1765C44.4153 38.1765 45.505 38.6601 46.4376 39.6182L48.6633 37.4519ZM43.529 35.0706C41.1705 35.0706 39.0423 35.9304 37.0772 37.1912L38.7544 39.8053C40.4119 38.742 41.9589 38.1765 43.529 38.1765V35.0706ZM37.0699 37.1959C37.013 37.2328 36.956 37.2702 36.8993 37.308L38.6179 39.895C38.6659 39.8631 38.7138 39.8316 38.7616 39.8007L37.0699 37.1959ZM36.8993 37.308C35.2727 38.3884 33.7367 39.7508 32.2548 41.1392L34.3786 43.4057C35.8388 42.0374 37.2186 40.8246 38.6179 39.895L36.8993 37.308Z" fill="url(#paint2_linear_80_400)"/>
<defs>
<linearGradient id="paint0_linear_80_400" x1="32" y1="54.9968" x2="32" y2="10" gradientUnits="userSpaceOnUse">
<stop stop-color="#02AA93"/>
<stop offset="1" stop-color="#67FF80"/>
</linearGradient>
<linearGradient id="paint1_linear_80_400" x1="32" y1="54.9968" x2="32" y2="10" gradientUnits="userSpaceOnUse">
<stop stop-color="#02AA93"/>
<stop offset="1" stop-color="#67FF80"/>
</linearGradient>
<linearGradient id="paint2_linear_80_400" x1="11" y1="42.471" x2="53" y2="42.471" gradientUnits="userSpaceOnUse">
<stop stop-color="#02AA93"/>
<stop offset="1" stop-color="#67FF80"/>
</linearGradient>
</defs>
</svg>
