<svg width="24" height="24" viewBox="0 0 24 24" fill="none" xmlns="http://www.w3.org/2000/svg">
<path opacity="0.5" fill-rule="evenodd" clip-rule="evenodd" d="M2.02326 11.9767C2.02326 6.46651 6.48977 2 12 2C17.5102 2 21.9767 6.46651 21.9767 11.9767V14.8347C22.0925 14.7938 22.2164 14.7812 22.338 14.7981C22.4596 14.8149 22.5754 14.8607 22.6756 14.9316C22.7758 15.0025 22.8576 15.0964 22.9141 15.2054C22.9705 15.3144 23 15.4354 23 15.5581V17.6047C23 17.8082 22.9191 18.0034 22.7752 18.1473C22.6313 18.2912 22.4361 18.3721 22.2326 18.3721C22.029 18.3721 21.8338 18.2912 21.6899 18.1473C21.546 18.0034 21.4651 17.8082 21.4651 17.6047V17.093H20.4419V11.9767C20.4419 9.73782 19.5525 7.5906 17.9693 6.00745C16.3861 4.42429 14.2389 3.53488 12 3.53488C9.76108 3.53488 7.61386 4.42429 6.0307 6.00745C4.44755 7.5906 3.55814 9.73782 3.55814 11.9767V17.093H2.53488V17.6047C2.53488 17.8082 2.45403 18.0034 2.31011 18.1473C2.16618 18.2912 1.97098 18.3721 1.76744 18.3721C1.5639 18.3721 1.3687 18.2912 1.22478 18.1473C1.08086 18.0034 1 17.8082 1 17.6047V15.5581C1.00002 15.4354 1.02949 15.3144 1.08593 15.2054C1.14238 15.0964 1.22416 15.0025 1.3244 14.9316C1.42465 14.8607 1.54043 14.8149 1.66203 14.7981C1.78364 14.7812 1.90751 14.7938 2.02326 14.8347V11.9767Z" fill="url(#paint0_linear_80_703)"/>
<path d="M7.90711 14.0744C7.90711 13.2046 7.90711 12.7708 7.69223 12.4679C7.58299 12.315 7.43972 12.1896 7.27372 12.1016C6.94116 11.9235 6.49297 11.9645 5.59558 12.0473C4.08116 12.1845 3.32599 12.254 2.78367 12.6316C2.51112 12.821 2.28081 13.0649 2.1073 13.3479C1.76758 13.9056 1.76758 14.6372 1.76758 16.1005V17.8809C1.76758 19.3309 1.76758 20.0564 2.11344 20.6161C2.24339 20.8258 2.40609 21.0152 2.59539 21.1758C3.1019 21.6086 3.84069 21.7437 5.3193 22.0128C6.35893 22.2032 6.87976 22.2983 7.26348 22.0978C7.40469 22.0241 7.52953 21.9238 7.63186 21.8041C7.90711 21.4777 7.90711 20.9671 7.90711 19.9469V14.0744ZM16.0931 14.0744C16.0931 13.2046 16.0931 12.7708 16.308 12.4679C16.4155 12.3165 16.5587 12.1906 16.7265 12.1016C17.0591 11.9235 17.5073 11.9645 18.4047 12.0473C19.9191 12.1845 20.6743 12.254 21.2166 12.6316C21.4908 12.824 21.721 13.0675 21.893 13.3479C22.2327 13.9045 22.2327 14.6372 22.2327 16.1005V17.8809C22.2327 19.3309 22.2327 20.0564 21.8868 20.6161C21.7569 20.8258 21.5942 21.0152 21.4049 21.1758C20.8983 21.6086 20.1596 21.7437 18.681 22.0128C17.6413 22.2032 17.1205 22.2983 16.7368 22.0978C16.5961 22.0247 16.471 21.925 16.3684 21.8041C16.0931 21.4777 16.0931 20.9671 16.0931 19.9469V14.0744Z" fill="url(#paint1_linear_80_703)"/>
<defs>
<linearGradient id="paint0_linear_80_703" x1="12" y1="2" x2="12" y2="18.3721" gradientUnits="userSpaceOnUse">
<stop stop-color="#DC18FC"/>
<stop offset="1" stop-color="#8E1EFF"/>
</linearGradient>
<linearGradient id="paint1_linear_80_703" x1="12.0001" y1="22.2094" x2="12.0001" y2="11.9766" gradientUnits="userSpaceOnUse">
<stop stop-color="#A93AFF"/>
<stop offset="1" stop-color="#FF81FF"/>
</linearGradient>
</defs>
</svg>
