<svg width="48" height="48" viewBox="0 0 48 48" fill="none" xmlns="http://www.w3.org/2000/svg">
<path opacity="0.4" d="M12 38V10L24 24L36 10V38" stroke="url(#paint0_linear_446_108)" stroke-width="12" stroke-linecap="round" stroke-linejoin="round"/>
<path d="M36 46C42.0751 46 47 41.0751 47 35C47 28.9249 42.0751 24 36 24C29.9249 24 25 28.9249 25 35C25 41.0751 29.9249 46 36 46Z" fill="url(#paint1_linear_446_108)"/>
<path fill-rule="evenodd" clip-rule="evenodd" d="M33 33C33.5523 33 34 32.5523 34 32V30C34 28.896 34.896 28 36 28C37.104 28 38 28.896 38 30V32C38 32.5523 38.4477 33 39 33H41C42.104 33 43 33.896 43 35C43 36.104 42.104 37 41 37H39C38.4477 37 38 37.4477 38 38V40C38 41.104 37.104 42 36 42C34.896 42 34 41.104 34 40V38C34 37.4477 33.5523 37 33 37H31C29.896 37 29 36.104 29 35C29 33.896 29.896 33 31 33H33Z" fill="white"/>
<defs>
<linearGradient id="paint0_linear_446_108" x1="24" y1="10" x2="24" y2="38" gradientUnits="userSpaceOnUse">
<stop stop-color="#97EB0E"/>
<stop offset="1" stop-color="#19B90B"/>
</linearGradient>
<linearGradient id="paint1_linear_446_108" x1="36" y1="24" x2="36" y2="46" gradientUnits="userSpaceOnUse">
<stop stop-color="#97EB0E"/>
<stop offset="1" stop-color="#19B90B"/>
</linearGradient>
</defs>
</svg>
