<svg width="256" height="256" viewBox="0 0 256 256" fill="none" xmlns="http://www.w3.org/2000/svg">
<path opacity="0.4" d="M215.946 40.2C225.813 39.5867 236.279 47 237.386 57.0933C237.399 61.8933 238.081 199.227 235.721 203.547C231.241 212.52 219.827 217.333 210.334 213.84C206.512 212.332 202.983 210.238 199.454 208.144L199.378 208.099C197.503 206.987 195.627 205.875 193.707 204.853C189.697 202.745 149.939 179.725 146.022 177.451L145.914 177.388C143.224 175.827 140.533 174.266 137.813 172.76C134.599 170.84 131.413 168.867 128.359 166.707C123.292 164.007 101.983 152.142 97.0185 149.275L97.0159 149.273C95.3851 148.331 93.7542 147.389 92.1191 146.453C87.6391 143.96 83.8525 140.093 82.0791 135.227C78.6391 126.627 81.5858 115.88 89.3058 110.6C92.6057 108.365 96.0847 106.413 99.5651 104.46L99.5842 104.45C108.208 99.4845 145.141 78.2466 153.765 73.2854L153.767 73.2838C169.181 64.4162 184.593 55.5497 199.999 46.6667C200.724 46.2525 209.5 40.6007 215.946 40.2Z" fill="url(#paint0_linear_5_208)"/>
<path d="M36.0258 40.2933C25.8124 41.4533 17.1858 50.8533 17.5058 61.24C17.4836 84.2177 17.4819 107.196 17.4803 130.173C17.479 148.556 17.4776 166.938 17.4658 185.32C17.4635 186.019 17.4558 186.718 17.4481 187.417C17.4106 190.817 17.373 194.223 17.9591 197.573C18.5918 187.019 18.5848 176.442 18.5778 165.866C18.5719 156.828 18.5659 147.792 18.9591 138.773C20.0979 134.685 22.9422 131.479 25.7628 128.299C26.9712 126.937 28.1754 125.58 29.2391 124.16L29.2397 124.162C28.1762 125.581 26.9726 126.938 25.7646 128.299C22.944 131.479 20.0997 134.685 18.9609 138.773C18.5677 147.792 18.5737 156.828 18.5797 165.866C18.5866 176.442 18.5936 187.019 17.9609 197.573C18.5209 203.373 22.4276 208.293 26.9476 211.707C28.1207 212.267 29.3204 212.786 30.5334 213.266C36.6001 215.746 43.6665 215.333 49.3065 211.973C59.5476 206.141 69.7505 200.243 79.9534 194.345C96.0389 185.045 112.125 175.746 128.36 166.707C133.32 163.573 138.427 160.68 143.587 157.88C146.918 155.764 150.358 153.827 153.796 151.892C158.2 149.412 162.602 146.933 166.773 144.08C173.187 139.48 175.613 131.253 174.853 123.653C173.507 118.32 170.493 113.253 165.8 110.227C162.415 108.032 158.905 106.053 155.395 104.072C152.848 102.636 150.3 101.199 147.8 99.68C146.453 98.8933 145.107 98.1067 143.773 97.3067C138.533 94.16 133.227 91.1467 127.893 88.1733C127.55 87.9827 127.207 87.7921 126.864 87.6016C124.33 86.1928 121.802 84.7877 119.254 83.4137C105.534 75.2803 91.6809 67.3467 77.7743 59.52C74.5209 63.64 71.4809 67.9334 68.7609 72.4267C75.2913 76.244 81.8516 80.0105 88.412 83.7771C95.7145 87.9698 103.018 92.163 110.28 96.4261L111.467 97.1333C116.214 99.8259 120.93 102.581 125.642 105.334C126.25 105.69 126.858 106.045 127.467 106.4C130.467 108.053 133.44 109.76 136.4 111.493C139.373 113.207 142.354 114.907 145.334 116.607C148.314 118.307 151.293 120.007 154.267 121.72C156.547 123.053 159.427 124.827 159.04 127.92C159.018 130.466 156.835 131.805 154.858 133.019C154.474 133.255 154.098 133.486 153.747 133.72C150.518 135.536 147.309 137.389 144.1 139.242C138.589 142.425 133.079 145.609 127.467 148.6C122.4 151.773 117.32 154.933 112.013 157.707C103.21 162.761 94.4136 167.831 85.6165 172.902C73.6417 179.805 61.6652 186.709 49.6665 193.573C47.1465 195.013 44.6665 196.573 42.3199 198.293C39.4403 199.28 36.2406 199.266 34.0809 196.853C33.4943 194.413 33.2543 191.907 33.2543 189.4C33.2543 185.19 33.2687 180.98 33.2832 176.769C33.3188 166.401 33.3544 156.03 33.1743 145.667L33.1725 145.657C33.3603 128.202 33.3239 110.746 33.2875 93.2874C33.2671 83.4907 33.2466 73.6928 33.2658 63.8933C33.2952 63.5125 33.3121 63.1108 33.3293 62.6988C33.4215 60.5001 33.5259 58.0099 35.6258 56.8533C38.3352 55.0134 41.3663 56.6991 43.8746 58.0942C44.0201 58.1751 44.1639 58.2551 44.3058 58.3333C52.4258 63.08 60.5724 67.8 68.7591 72.4266C71.4791 67.9333 74.5191 63.64 77.7725 59.52C72.4823 56.3126 67.1075 53.2417 61.7319 50.1703C58.0569 48.0706 54.3815 45.9706 50.7324 43.8266C46.3591 41.16 41.1858 39.52 36.0258 40.2933Z" fill="url(#paint1_linear_5_208)" stroke="url(#paint2_linear_5_208)" stroke-width="12"/>
<defs>
<linearGradient id="paint0_linear_5_208" x1="159.072" y1="214.984" x2="159.072" y2="40.1646" gradientUnits="userSpaceOnUse">
<stop stop-color="#5570FF"/>
<stop offset="1" stop-color="#4DD3FF"/>
</linearGradient>
<linearGradient id="paint1_linear_5_208" x1="96.2087" y1="214.856" x2="96.2087" y2="40.1013" gradientUnits="userSpaceOnUse">
<stop stop-color="#5570FF"/>
<stop offset="1" stop-color="#4DD3FF"/>
</linearGradient>
<linearGradient id="paint2_linear_5_208" x1="96.2087" y1="214.856" x2="96.2087" y2="40.1013" gradientUnits="userSpaceOnUse">
<stop stop-color="#5570FF"/>
<stop offset="1" stop-color="#4DD3FF"/>
</linearGradient>
</defs>
</svg>
