<svg width="192" height="192" viewBox="0 0 192 192" fill="none" xmlns="http://www.w3.org/2000/svg">
<rect opacity="0.4" x="12" y="11" width="167" height="168" rx="32" fill="url(#paint0_linear_54_671)"/>
<path fill-rule="evenodd" clip-rule="evenodd" d="M118.657 41.9155C130.33 32.4703 149.625 37.2984 156.127 50.7514C158.496 55.9662 161.391 63.7943 156.243 68.2006C153.407 70.0521 149.275 69.6185 147.185 66.8529C145.966 65.4348 145.806 63.6798 145.644 61.9098C145.512 60.462 145.379 59.0041 144.664 57.7123C141.944 50.9861 132.899 48.1852 126.887 52.2743C123.023 54.6884 121.003 59.2475 121.073 63.724C120.583 68.388 114.537 71.0013 110.79 68.2005C107.662 66.2201 107.591 62.1654 108.14 58.9076C109.051 52.0639 113.031 45.8999 118.459 41.7515L118.657 41.9155ZM124.533 50.1495C124.653 50.2096 124.773 50.2697 124.892 50.331L122.339 47.8306L122.339 47.8317C122.546 48.284 122.752 48.7354 122.964 49.1811C123.022 49.2326 123.08 49.282 123.14 49.3296C123.561 49.6628 124.048 49.9064 124.533 50.1495Z" fill="url(#paint1_linear_54_671)"/>
<path d="M138.337 67.1341C140.52 63.3021 136.423 58.3216 132.268 59.4818C128.719 60.1263 126.735 64.7904 128.929 67.7435C130.902 71.2825 136.808 70.9192 138.337 67.1341Z" fill="url(#paint2_linear_54_671)"/>
<path fill-rule="evenodd" clip-rule="evenodd" d="M39.2597 80.4348C48.7729 69.5247 67.3092 70.0052 76.7758 80.7512C83.0557 73.5793 93.5967 70.6731 102.689 73.3918C112.798 76.1809 120.607 85.7785 121.108 96.3136C121.208 101.366 121.195 106.419 121.183 111.469V111.47C121.175 114.759 121.167 118.047 121.19 121.333C121.389 131.071 134.824 136.848 141.477 129.513L142.236 129.641L142.096 129.313C144.139 127.04 145.61 124.145 145.668 121.028C145.729 116.706 145.719 112.383 145.71 108.06V108.058C145.703 104.928 145.696 101.799 145.715 98.6693C145.707 94.2681 145.71 89.867 145.713 85.4624V85.4495C145.714 83.2438 145.715 81.0372 145.715 78.8293C145.75 76.3567 147.325 74.1301 149.473 73.0051C151.189 72.3137 153.057 72.2083 154.819 72.8293C156.862 73.5911 158.309 75.4192 158.916 77.4934C159.097 84.8333 159.07 92.1779 159.043 99.5213V99.5233C159.028 103.61 159.013 107.697 159.033 111.782C159.71 121.579 158.718 132.641 150.746 139.438C143.661 146.118 132.653 148.087 123.711 144.255C114.817 140.68 108.385 131.692 107.942 122.071C107.859 118.253 107.873 114.431 107.888 110.609C107.896 108.519 107.903 106.429 107.895 104.341C107.888 103.615 107.899 102.873 107.909 102.124C107.967 97.9917 108.028 93.6379 105.152 90.3839C100.868 84.6769 91.6468 84.2434 86.826 89.4934C84.4798 91.9192 83.2191 95.2941 83.3242 98.6693C83.3051 102.564 83.3068 106.461 83.3086 110.358C83.31 113.603 83.3115 116.849 83.3009 120.091L83.301 120.123C83.3127 126.663 83.3244 133.215 83.2895 139.755C83.3362 143.118 80.3363 146.141 76.9862 146.188C73.4377 146.493 70.111 143.387 70.0526 139.837C70.0105 131.304 70.0189 122.767 70.0273 114.231V114.23C70.0328 108.546 70.0384 102.862 70.0291 97.1809C69.6906 87.2904 56.3952 81.9583 49.45 89.0364C46.8353 91.4856 45.3643 95.0246 45.4577 98.6103C45.4402 102.144 45.4432 105.677 45.4461 109.21V109.212C45.4491 112.745 45.452 116.277 45.4345 119.809C45.4308 122.061 45.4366 124.315 45.4425 126.569C45.4549 131.352 45.4673 136.139 45.388 140.926C44.7693 143.692 42.3764 146.024 39.4932 146.188C35.7696 146.704 32.1161 143.481 32.1628 139.696C32.1199 133.189 32.1251 126.682 32.1302 120.174C32.1334 116.041 32.1367 111.908 32.1276 107.774C31.7307 98.2943 31.8125 87.4074 39.2597 80.4348ZM33.0552 108.151C33.055 108.151 33.0554 108.151 33.0552 108.151ZM119.989 116.709C119.989 116.709 119.989 116.709 119.989 116.709Z" fill="url(#paint3_linear_54_671)"/>
<defs>
<linearGradient id="paint0_linear_54_671" x1="95.5" y1="179" x2="95.5" y2="11" gradientUnits="userSpaceOnUse">
<stop stop-color="#5570FF"/>
<stop offset="1" stop-color="#4DD3FF"/>
</linearGradient>
<linearGradient id="paint1_linear_54_671" x1="95.0544" y1="176.129" x2="95.0544" y2="8.46619" gradientUnits="userSpaceOnUse">
<stop stop-color="#5558FF"/>
<stop offset="1" stop-color="#00C0FF"/>
</linearGradient>
<linearGradient id="paint2_linear_54_671" x1="95.0544" y1="176.129" x2="95.0544" y2="8.46619" gradientUnits="userSpaceOnUse">
<stop stop-color="#5558FF"/>
<stop offset="1" stop-color="#00C0FF"/>
</linearGradient>
<linearGradient id="paint3_linear_54_671" x1="95.0544" y1="176.129" x2="95.0544" y2="8.46619" gradientUnits="userSpaceOnUse">
<stop stop-color="#5558FF"/>
<stop offset="1" stop-color="#00C0FF"/>
</linearGradient>
</defs>
</svg>
