<svg width="256" height="256" viewBox="0 0 256 256" fill="none" xmlns="http://www.w3.org/2000/svg">
<path opacity="0.4" d="M216.29 41.0354C226.157 40.4221 236.623 47.8354 237.73 57.9287C237.743 62.7287 238.425 200.062 236.065 204.382C231.585 213.355 220.171 218.168 210.678 214.675C206.856 213.167 203.327 211.073 199.798 208.979L199.722 208.934C197.847 207.822 195.971 206.71 194.051 205.688C190.041 203.58 150.283 180.56 146.366 178.286L146.258 178.223C143.568 176.662 140.877 175.101 138.157 173.595C134.943 171.675 131.757 169.702 128.703 167.542C123.636 164.842 102.327 152.977 97.3623 150.11L97.3597 150.108C95.7289 149.166 94.098 148.224 92.4629 147.288C87.9829 144.795 84.1963 140.928 82.4229 136.062C78.9829 127.462 81.9296 116.715 89.6496 111.435C92.9495 109.2 96.4285 107.248 99.9089 105.295L99.928 105.285C108.552 100.32 145.485 79.082 154.109 74.1208L154.111 74.1192C169.525 65.2516 184.937 56.3851 200.343 47.5021C201.068 47.0879 209.844 41.4361 216.29 41.0354Z" fill="url(#paint0_linear_128_127)"/>
<path d="M41.9331 39.0361C31.8866 38.4116 21.2302 45.9598 20.103 56.2368C20.0898 61.1241 19.3954 200.957 21.7983 205.355C26.3598 214.492 37.9815 219.392 47.6473 215.836C51.5388 214.3 55.132 212.168 58.7252 210.036L58.8026 209.99C60.7117 208.858 62.6219 207.726 64.5768 206.685C68.6597 204.539 109.141 181.1 113.129 178.784L113.239 178.72C115.978 177.131 118.718 175.541 121.488 174.008C124.76 172.053 128.004 170.044 131.114 167.845C136.273 165.096 157.97 153.015 163.025 150.096L163.027 150.094C164.688 149.135 166.348 148.175 168.013 147.222C172.575 144.684 176.43 140.747 178.236 135.792C181.738 127.036 178.738 116.093 170.878 110.717C167.518 108.441 163.975 106.454 160.432 104.465L160.412 104.455C151.631 99.3993 114.026 77.775 105.246 72.7235L105.244 72.7219C89.549 63.6929 73.8566 54.6651 58.1703 45.6205C57.4321 45.1987 48.4964 39.4441 41.9331 39.0361Z" fill="url(#paint1_linear_128_127)"/>
<defs>
<linearGradient id="paint0_linear_128_127" x1="159.416" y1="215.819" x2="159.416" y2="40.9999" gradientUnits="userSpaceOnUse">
<stop stop-color="#FF1B71"/>
<stop offset="0.9998" stop-color="#FF867E"/>
<stop offset="0.9999" stop-color="#FF6678"/>
</linearGradient>
<linearGradient id="paint1_linear_128_127" x1="99.8423" y1="217" x2="99.8423" y2="39" gradientUnits="userSpaceOnUse">
<stop stop-color="#FF1B71"/>
<stop offset="0.9998" stop-color="#FF867E"/>
<stop offset="0.9999" stop-color="#FF6678"/>
</linearGradient>
</defs>
</svg>
