<svg width="24" height="24" viewBox="0 0 24 24" fill="none" xmlns="http://www.w3.org/2000/svg">
<path d="M12.7674 12.5188C12.7674 12.5192 12.7679 12.5196 12.7684 12.5194L20.0937 9.58926C20.7506 9.32652 21.4651 9.81027 21.4651 10.5177V12.9994C21.4651 13.7894 20.5294 14.318 19.7396 14.3025C19.617 14.3001 19.4938 14.3045 19.3707 14.3158C18.6353 14.3832 17.9434 14.6935 17.4038 15.1977C16.8643 15.7018 16.5079 16.3712 16.3909 17.1003C16.2738 17.8294 16.4028 18.5767 16.7573 19.2244C17.1119 19.8721 17.672 20.3834 18.3493 20.6776C19.0265 20.9719 19.7825 21.0323 20.4979 20.8495C21.2133 20.6666 21.8476 20.2509 22.3006 19.6677C22.7536 19.0846 22.9997 18.3673 23 17.6289V7.85066C23 6.68108 23 5.7008 22.9181 4.91903C22.9067 4.81132 22.893 4.70386 22.8772 4.59671C22.7974 4.06257 22.6582 3.56527 22.3871 3.1488C22.2218 2.89285 22.0059 2.67346 21.7526 2.50415L21.7455 2.49903C21.021 2.0181 20.2075 2.05187 19.3695 2.26573C18.5591 2.47243 17.5542 2.89299 16.3222 3.40871L14.1795 4.30508C13.6014 4.54657 13.1123 4.75224 12.7286 4.96406C12.3193 5.18917 11.9683 5.45522 11.7043 5.85224C11.4403 6.24927 11.3298 6.67596 11.2796 7.14052C11.2326 7.57643 11.2326 8.1075 11.2326 8.73373V15.0449C11.2326 15.8349 10.2968 16.3635 9.50705 16.348C9.38439 16.3456 9.26123 16.35 9.13812 16.3613C8.40278 16.4287 7.71081 16.739 7.17129 17.2431C6.63176 17.7473 6.27538 18.4167 6.15833 19.1458C6.04127 19.8749 6.1702 20.6222 6.52479 21.2699C6.87938 21.9176 7.43946 22.4289 8.11672 22.7231C8.79399 23.0174 9.54992 23.0778 10.2653 22.895C10.9808 22.7121 11.615 22.2964 12.068 21.7132C12.5211 21.1301 12.7671 20.4128 12.7674 19.6744V12.5188V12.5188Z" fill="url(#paint0_linear_8_682)"/>
<path opacity="0.4" d="M7.65117 1.76744C7.65117 1.5639 7.57031 1.3687 7.42639 1.22478C7.28246 1.08086 7.08726 1 6.88372 1C6.68019 1 6.48498 1.08086 6.34106 1.22478C6.19714 1.3687 6.11628 1.5639 6.11628 1.76744V5.83565C6.11628 6.62559 5.18056 7.15423 4.39078 7.13875C4.26812 7.13634 4.14496 7.14072 4.02185 7.15201C3.28651 7.21946 2.59454 7.52972 2.05501 8.03388C1.51549 8.53805 1.15911 9.20744 1.04205 9.93652C0.925 10.6656 1.05393 11.4129 1.40852 12.0606C1.76311 12.7083 2.32318 13.2196 3.00045 13.5139C3.67772 13.8081 4.43365 13.8686 5.14908 13.6857C5.8645 13.5029 6.49872 13.0871 6.95175 12.504C7.40478 11.9209 7.65085 11.2035 7.65117 10.4651V6.79619C7.65117 5.98078 8.63845 5.4516 9.44559 5.56749C9.61871 5.59235 9.78893 5.60465 9.95349 5.60465C10.157 5.60465 10.3522 5.5238 10.4962 5.37987C10.6401 5.23595 10.7209 5.04075 10.7209 4.83721C10.7209 4.63367 10.6401 4.43847 10.4962 4.29455C10.3522 4.15062 10.157 4.06977 9.95349 4.06977C9.39724 4.05619 8.86142 3.85742 8.43089 3.50493C7.98679 3.13963 7.65117 2.584 7.65117 1.76744Z" fill="url(#paint1_linear_8_682)"/>
<defs>
<linearGradient id="paint0_linear_8_682" x1="14.5581" y1="22.9985" x2="14.5581" y2="2.11633" gradientUnits="userSpaceOnUse">
<stop stop-color="#A93AFF"/>
<stop offset="1" stop-color="#FF81FF"/>
</linearGradient>
<linearGradient id="paint1_linear_8_682" x1="5.86047" y1="13.7893" x2="5.86047" y2="1" gradientUnits="userSpaceOnUse">
<stop stop-color="#A93AFF"/>
<stop offset="1" stop-color="#FF81FF"/>
</linearGradient>
</defs>
</svg>
