<svg width="64" height="64" viewBox="0 0 64 64" fill="none" xmlns="http://www.w3.org/2000/svg">
<path opacity="0.4" d="M20 14C10.0625 14 2 22.0625 2 32C2 41.9375 10.0625 50 20 50H44C53.9375 50 62 41.9375 62 32C62 22.0625 53.9375 14 44 14H20Z" fill="url(#paint0_linear_446_112)"/>
<path d="M54.6737 23.3263C53.8245 22.4771 52.6727 22 51.4717 22C50.2707 22 49.1189 22.4771 48.2697 23.3263C47.4205 24.1755 46.9434 25.3273 46.9434 26.5283C46.9434 27.7293 47.4205 28.8811 48.2697 29.7303C49.1189 30.5795 50.2707 31.0566 51.4717 31.0566C52.6727 31.0566 53.8245 30.5795 54.6737 29.7303C55.5229 28.8811 56 27.7293 56 26.5283C56 25.3273 55.5229 24.1755 54.6737 23.3263Z" fill="url(#paint1_linear_446_112)"/>
<path d="M41.0244 34.1942C40.1752 35.0435 39.6981 36.1952 39.6981 37.3962C39.6981 38.5972 40.1752 39.749 41.0244 40.5982C41.8736 41.4474 43.0254 41.9245 44.2264 41.9245C45.4274 41.9245 46.5792 41.4474 47.4284 40.5982C48.2776 39.749 48.7547 38.5972 48.7547 37.3962C48.7547 36.1952 48.2776 35.0435 47.4284 34.1942C46.5792 33.345 45.4274 32.8679 44.2264 32.8679C43.0254 32.8679 41.8736 33.345 41.0244 34.1942Z" fill="url(#paint2_linear_446_112)"/>
<path d="M17.0566 22.9057C15.5509 22.9057 14.3396 24.117 14.3396 25.6226V28.2453C14.3396 28.7976 13.8919 29.2453 13.3396 29.2453H10.717C9.21132 29.2453 8 30.4566 8 31.9623C8 33.4679 9.21132 34.6792 10.717 34.6792H13.3396C13.8919 34.6792 14.3396 35.127 14.3396 35.6792V38.3019C14.3396 39.8075 15.5509 41.0189 17.0566 41.0189C18.5623 41.0189 19.7736 39.8075 19.7736 38.3019V35.6792C19.7736 35.127 20.2213 34.6792 20.7736 34.6792H23.3962C24.9019 34.6792 26.1132 33.4679 26.1132 31.9623C26.1132 30.4566 24.9019 29.2453 23.3962 29.2453H20.7736C20.2213 29.2453 19.7736 28.7976 19.7736 28.2453V25.6226C19.7736 24.117 18.5623 22.9057 17.0566 22.9057Z" fill="url(#paint3_linear_446_112)"/>
<defs>
<linearGradient id="paint0_linear_446_112" x1="32" y1="14" x2="32" y2="50" gradientUnits="userSpaceOnUse">
<stop stop-color="#97EB0E"/>
<stop offset="1" stop-color="#19B90B"/>
</linearGradient>
<linearGradient id="paint1_linear_446_112" x1="32" y1="22" x2="32" y2="41.9245" gradientUnits="userSpaceOnUse">
<stop stop-color="#97EB0E"/>
<stop offset="1" stop-color="#19B90B"/>
</linearGradient>
<linearGradient id="paint2_linear_446_112" x1="32" y1="22" x2="32" y2="41.9245" gradientUnits="userSpaceOnUse">
<stop stop-color="#97EB0E"/>
<stop offset="1" stop-color="#19B90B"/>
</linearGradient>
<linearGradient id="paint3_linear_446_112" x1="32" y1="22" x2="32" y2="41.9245" gradientUnits="userSpaceOnUse">
<stop stop-color="#97EB0E"/>
<stop offset="1" stop-color="#19B90B"/>
</linearGradient>
</defs>
</svg>
