<svg width="64" height="64" viewBox="0 0 64 64" fill="none" xmlns="http://www.w3.org/2000/svg">
<path opacity="0.4" d="M32 61C48.0163 61 61 48.0163 61 32C61 15.9837 48.0163 3 32 3C15.9837 3 3 15.9837 3 32C3 48.0163 15.9837 61 32 61Z" fill="url(#paint0_linear_216_157)"/>
<path fill-rule="evenodd" clip-rule="evenodd" d="M31.0058 12C19.7872 12 9 20.9196 9 31.9224C9 42.9252 19.7872 51.8448 31.0058 51.8448C33.713 51.8381 36.3893 51.3005 38.878 50.2663C39.2406 50.1156 39.4695 49.7572 39.4695 49.3646V41.1259C39.4695 40.5736 39.9173 40.1259 40.4695 40.1259H54.1046C54.9873 40.1259 55.4371 39.0655 54.8236 38.4308L49.9598 33.3994C49.7714 33.2045 49.5119 33.0944 49.2409 33.0944H40.4694C39.9172 33.0944 39.4694 33.5421 39.4694 34.0944V39.6259C39.4694 39.8903 39.3661 40.1454 39.1732 40.3261C36.977 42.3838 34.0537 43.5395 31.0058 43.5438C24.4616 43.5438 17.4638 38.3407 17.4638 31.9224C17.4638 25.5041 24.4616 20.301 31.0058 20.301C33.3716 20.3018 35.6632 20.9965 37.5986 22.2686C38.3435 22.7582 39.4695 22.267 39.4695 21.3756V14.4831C39.4695 14.0906 39.2407 13.7324 38.8784 13.5816C36.3897 12.5463 33.7133 12.0078 31.0058 12ZM39.4694 24.7934C39.4694 24.2411 39.9172 23.7934 40.4695 23.7934H54.1046C54.9873 23.7934 55.4371 24.8537 54.8236 25.4884L49.9598 30.5198C49.7714 30.7148 49.5119 30.8248 49.2409 30.8248H40.4694C39.9172 30.8248 39.4694 30.3771 39.4694 29.8248V24.7934Z" fill="url(#paint1_linear_216_157)"/>
<defs>
<linearGradient id="paint0_linear_216_157" x1="47.5" y1="5.5" x2="17.8511" y2="58.7522" gradientUnits="userSpaceOnUse">
<stop stop-color="#FF2F2F"/>
<stop offset="1" stop-color="#003079"/>
</linearGradient>
<linearGradient id="paint1_linear_216_157" x1="22" y1="58" x2="39.1583" y2="0.459829" gradientUnits="userSpaceOnUse">
<stop stop-color="#FF2F2F"/>
<stop offset="1" stop-color="#003079"/>
</linearGradient>
</defs>
</svg>
