<svg width="24" height="24" viewBox="0 0 24 24" fill="none" xmlns="http://www.w3.org/2000/svg">
<path opacity="0.4" fill-rule="evenodd" clip-rule="evenodd" d="M2.6104 21.3885C4.223 23 6.8146 23 12 23C17.1854 23 19.7781 23 21.3885 21.3885C23 19.7792 23 17.1854 23 12C23 6.8146 23 4.2219 21.3885 2.6104C19.7792 1 17.1854 1 12 1C6.8146 1 4.2219 1 2.6104 2.6104C1 4.223 1 6.8146 1 12C1 17.1854 1 19.7781 2.6104 21.3885Z" fill="url(#paint0_linear_208_210)"/>
<path d="M20.2739 7.4996C20.1469 7.37351 19.9418 7.37388 19.8153 7.50041L12.1442 15.1715C12.0175 15.2982 11.812 15.2983 11.6851 15.1717L8.93269 12.4259C8.80579 12.2993 8.60035 12.2994 8.47361 12.4262L7.84929 13.0505C7.72244 13.1773 7.72244 13.383 7.84929 13.5098L11.6851 17.3457C11.812 17.4725 12.0176 17.4725 12.1445 17.3457L20.9048 8.58544C21.032 8.45827 21.0316 8.25198 20.904 8.12527L20.2739 7.4996Z" fill="url(#paint1_linear_208_210)" stroke="url(#paint2_linear_208_210)"/>
<g opacity="0.4">
<path d="M16.5568 8.12519C16.6836 8.25203 16.6836 8.4577 16.5568 8.58454L12.1446 12.9967C12.0178 13.1235 11.8121 13.1235 11.6852 12.9967L11.0612 12.3726C10.9344 12.2458 10.9344 12.0401 11.0612 11.9133L15.4734 7.50113C15.6002 7.3743 15.8059 7.3743 15.9327 7.50114L16.5568 8.12519Z" fill="url(#paint3_linear_208_210)"/>
<path d="M3.50114 13.5105C3.37398 13.3833 3.37434 13.1771 3.50196 13.0503L4.13186 12.4249C4.25892 12.2987 4.46411 12.2992 4.59061 12.4259L8.41997 16.2621C8.54663 16.389 8.54653 16.5945 8.41978 16.7213L7.79552 17.3456C7.66867 17.4724 7.46301 17.4724 7.33616 17.3456L3.50114 13.5105Z" fill="url(#paint4_linear_208_210)"/>
<path fill-rule="evenodd" clip-rule="evenodd" d="M16.2197 7.21406L16.8438 7.83809C17.1291 8.1235 17.1291 8.58623 16.8438 8.87164L12.4316 13.2837C12.1462 13.5691 11.6834 13.5691 11.3981 13.2837L10.774 12.6597C10.4886 12.3743 10.4886 11.9116 10.774 11.6261L15.1862 7.21404C15.4715 6.92865 15.9343 6.92865 16.2197 7.21406ZM15.703 7.84565L11.4056 12.1429L11.9149 12.6521L16.2122 8.35487L15.703 7.84565ZM3.84579 12.1369C4.13172 11.8529 4.59335 11.8541 4.87791 12.1391L8.7073 15.9754C8.70731 15.9754 8.70728 15.9754 8.7073 15.9754C8.99229 16.2608 8.99207 16.7232 8.70689 17.0084C8.7069 17.0084 8.70688 17.0084 8.70689 17.0084L8.08263 17.6327C7.79723 17.9181 7.33449 17.9181 7.04908 17.6327L3.21405 13.7977C2.9279 13.5115 2.9288 13.0474 3.21585 12.7623L3.84579 12.1369C3.84581 12.1368 3.84579 12.1369 3.84579 12.1369ZM4.3605 12.7701L8.07531 16.4916L7.56585 17.0011L3.84587 13.2811L4.3605 12.7701Z" fill="url(#paint5_linear_208_210)"/>
</g>
<defs>
<linearGradient id="paint0_linear_208_210" x1="12" y1="23" x2="12" y2="1" gradientUnits="userSpaceOnUse">
<stop stop-color="#A93AFF"/>
<stop offset="1" stop-color="#FF81FF"/>
</linearGradient>
<linearGradient id="paint1_linear_208_210" x1="3.27327" y1="12.2709" x2="21.1382" y2="12.2709" gradientUnits="userSpaceOnUse">
<stop stop-color="#A93AFF"/>
<stop offset="1" stop-color="#FF81FF"/>
</linearGradient>
<linearGradient id="paint2_linear_208_210" x1="3.27327" y1="12.2709" x2="21.1382" y2="12.2709" gradientUnits="userSpaceOnUse">
<stop stop-color="#A93AFF"/>
<stop offset="1" stop-color="#FF81FF"/>
</linearGradient>
<linearGradient id="paint3_linear_208_210" x1="2.85923" y1="12.2585" x2="21.8194" y2="12.2585" gradientUnits="userSpaceOnUse">
<stop stop-color="#A93AFF"/>
<stop offset="1" stop-color="#FF81FF"/>
</linearGradient>
<linearGradient id="paint4_linear_208_210" x1="2.85911" y1="12.2584" x2="21.8192" y2="12.2584" gradientUnits="userSpaceOnUse">
<stop stop-color="#A93AFF"/>
<stop offset="1" stop-color="#FF81FF"/>
</linearGradient>
<linearGradient id="paint5_linear_208_210" x1="3.27328" y1="12.2708" x2="21.1382" y2="12.2708" gradientUnits="userSpaceOnUse">
<stop stop-color="#A93AFF"/>
<stop offset="1" stop-color="#FF81FF"/>
</linearGradient>
</defs>
</svg>
