<svg width="64" height="64" viewBox="0 0 64 64" fill="none" xmlns="http://www.w3.org/2000/svg">
<path opacity="0.4" fill-rule="evenodd" clip-rule="evenodd" d="M17.9684 58.2317C-0.656121 47.4944 -0.656121 20.5055 17.9684 9.7683C36.5928 -0.968935 60 12.5255 60 34C60 55.4745 36.593 68.9689 17.9684 58.2317Z" fill="url(#paint0_linear_445_103)"/>
<path d="M23.1879 2.003C22.3559 2.04967 21.6346 2.60833 21.3693 3.41367L5.10792 52.571C4.66392 53.915 5.64526 55.307 7.03726 55.307H15.2959C16.2053 55.307 17.0039 54.6937 17.2546 53.8043L23.4773 31.7337L27.9493 44.6043C28.2306 45.443 29.0039 46.0003 29.8733 46.0003H33.5986C34.4679 46.0003 35.2413 45.443 35.5226 44.6043L39.9706 31.8083L46.0146 53.7923C46.2613 54.6883 47.0639 55.307 47.9773 55.307H55.9493C56.6706 55.4257 57.3999 55.1417 57.8599 54.563C57.8653 54.5563 57.8706 54.5497 57.8759 54.543C57.8826 54.535 57.8893 54.5257 57.8946 54.5177C57.9133 54.4937 57.9319 54.4697 57.9493 54.4457C57.9786 54.4043 58.0053 54.3617 58.0319 54.3177L58.0453 54.2937C58.4119 53.6697 58.4293 52.895 58.0933 52.2537L41.8053 3.40967C41.1773 1.52167 38.5506 1.53633 37.9426 3.431L31.6879 22.9523L25.2279 3.41367C24.9599 2.603 24.2306 2.04167 23.3906 2.003C23.3226 1.999 23.2559 1.999 23.1879 2.003Z" fill="url(#paint1_linear_445_103)"/>
<defs>
<linearGradient id="paint0_linear_445_103" x1="31.9999" y1="62.0139" x2="31.9999" y2="5.81961" gradientUnits="userSpaceOnUse">
<stop stop-color="#2920A7"/>
<stop offset="1" stop-color="#006FD2"/>
</linearGradient>
<linearGradient id="paint1_linear_445_103" x1="31.6666" y1="55.3469" x2="31.6666" y2="1.8282" gradientUnits="userSpaceOnUse">
<stop stop-color="#2920A7"/>
<stop offset="1" stop-color="#006FD2"/>
</linearGradient>
</defs>
</svg>
