<svg width="128" height="128" viewBox="0 0 128 128" fill="none" xmlns="http://www.w3.org/2000/svg">
<path opacity="0.4" d="M54.0267 10.0129C66.2959 7.47364 79.293 9.81931 90.1879 15.8087C103.936 23.3617 114.281 37.1322 117.541 52.728C122.201 71.6576 115.388 92.5408 101.569 105.71C95.2056 111.92 87.3335 116.06 79.2269 118.888L78.4207 119.17L77.66 118.782C77.5294 118.715 77.3703 118.638 77.1925 118.553C76.6207 118.276 75.8558 117.906 75.2247 117.488C74.3324 116.896 73.3801 116.021 72.887 114.652C71.7948 112.149 72.8358 109.586 74.0962 108.033L74.2161 107.885L74.3618 107.762C75.2409 107.023 76.2116 106.609 77.035 106.318C77.3778 106.197 77.7284 106.086 78.0399 105.988L78.2116 105.934C78.5803 105.817 78.8968 105.713 79.1904 105.599L79.1992 105.595L79.2081 105.592C90.3688 101.357 99.5155 91.9663 103.788 80.5965L103.791 80.5881C107.29 71.4005 107.468 60.9698 104.571 51.5517C100.877 39.7481 91.9378 29.8132 80.7839 24.9563L80.772 24.9511L80.7601 24.9458C73.1544 21.5155 64.4776 20.8417 56.1703 22.1937C44.0904 24.3682 33.168 32.3083 27.0272 43.1681L27.0212 43.1788L27.0151 43.1894C22.131 51.5854 20.3666 61.7605 21.7937 71.4403L21.7965 71.4593L21.7989 71.4784C23.7488 86.7288 34.6313 100.314 48.7291 105.635C48.8784 105.683 49.0471 105.735 49.23 105.792C50.0475 106.045 51.1493 106.386 52.0806 106.881C53.3286 107.543 54.5922 108.627 55.0957 110.475C55.8584 112.623 55.2225 114.579 54.1033 116C53.0123 117.385 51.4189 118.352 49.9201 118.836L49.2962 119.038L48.6741 118.831C40.4723 116.103 32.6326 111.84 26.2586 105.672C17.4035 97.149 11.3988 85.5905 9.65986 73.2785C7.2205 58.0614 11.6588 42.0075 21.0812 30.0488C29.2244 19.6752 41.0952 12.2841 54.0267 10.0129Z" fill="url(#paint0_linear_101_104)"/>
<path fill-rule="evenodd" clip-rule="evenodd" d="M67.8931 92.0599C64.4222 96.0175 56.8206 93.5411 56.7637 88.0561C56.6293 80.9227 56.6532 73.7849 56.6767 66.6453C56.6826 64.8719 56.6884 63.0984 56.6918 61.3248C56.6981 58.0728 53.0171 56.1907 50.3636 58.0707C48.8003 59.1783 47.2354 60.283 45.6709 61.3874C44.7935 62.0068 43.9161 62.6259 43.0393 63.2456C40.8543 64.8311 37.8159 65.5717 35.3806 64.1135C31.3406 62.2622 30.8626 56.0826 34.2652 53.3171C38.338 50.2039 42.5379 47.2675 46.7381 44.331C50.8596 41.4498 54.9813 38.5682 58.9827 35.5191C61.1904 33.5173 64.7751 33.5867 67.1876 35.1837C75.2903 40.4372 82.5508 45.6795 90.6648 50.91C90.8068 51.0044 90.9499 51.0987 91.0933 51.1934C92.7817 52.3059 94.5486 53.4704 95.3876 55.4113C97.1514 58.883 94.9096 63.6392 91.1655 64.4259C88.5255 65.2938 85.9305 63.7664 83.78 62.3661C81.7024 60.9708 80.447 59.6215 78.3383 58.2716C77.5923 57.7942 76.8463 57.3168 76.1016 56.8373C73.4072 55.1024 69.7822 56.9871 69.7785 60.1917C69.7748 63.4223 69.794 66.6535 69.8131 69.8852C69.8448 75.216 69.8765 80.5483 69.8052 85.8805C69.7595 88.0676 69.2703 90.3241 67.8931 92.0599Z" fill="url(#paint1_linear_101_104)" stroke="url(#paint2_linear_101_104)" stroke-width="4"/>
<defs>
<linearGradient id="paint0_linear_101_104" x1="64.0001" y1="11.0001" x2="52.9397" y2="115.833" gradientUnits="userSpaceOnUse">
<stop stop-color="#A6FF70"/>
<stop offset="0.752309" stop-color="#FF913B"/>
<stop offset="1" stop-color="#FE3E02"/>
</linearGradient>
<linearGradient id="paint1_linear_101_104" x1="64" y1="9" x2="64" y2="107.5" gradientUnits="userSpaceOnUse">
<stop stop-color="#A6FF70"/>
<stop offset="0.752309" stop-color="#FF913B"/>
<stop offset="1" stop-color="#FE3E02"/>
</linearGradient>
<linearGradient id="paint2_linear_101_104" x1="64" y1="9" x2="64" y2="107.5" gradientUnits="userSpaceOnUse">
<stop stop-color="#A6FF70"/>
<stop offset="0.752309" stop-color="#FF913B"/>
<stop offset="1" stop-color="#FE3E02"/>
</linearGradient>
</defs>
</svg>
