<svg width="64" height="64" viewBox="0 0 64 64" fill="none" xmlns="http://www.w3.org/2000/svg">
<path opacity="0.4" d="M56.6481 43.3183C57.2906 42.676 58.3321 42.676 58.9746 43.3183V43.3183C60.3384 44.6817 60.3384 46.8872 58.9947 48.2707L56.2269 51.0376C44.2933 62.9875 24.9188 62.9875 12.9652 51.0376C1.0116 39.1078 1.0116 19.7394 12.9652 7.78947L15.733 5.02256C17.0968 3.65915 19.303 3.65915 20.6669 5.02256V5.02256C21.3093 5.66475 21.3093 6.70617 20.6669 7.34837L16.4149 11.599C6.48699 21.5238 6.48699 37.6441 16.4149 47.5689C26.3428 57.4937 42.4682 57.4937 52.3961 47.5689L56.6481 43.3183Z" fill="url(#paint0_linear_218_136)"/>
<path d="M54.0093 38.3547C54.791 39.1358 54.7911 40.4027 54.0097 41.1839L49.6887 45.5035C41.0645 54.125 27.0651 54.125 18.4408 45.5035C9.81659 36.8819 9.81659 22.8869 18.4408 14.2654L22.7573 9.9518C23.5382 9.1714 24.8038 9.17137 25.5847 9.95173L54.0093 38.3547ZM27.9676 21.5636C27.9676 20.984 27.7373 20.4281 27.3273 20.0183C26.9174 19.6084 26.3613 19.3782 25.7815 19.3782C25.2017 19.3782 24.6456 19.6084 24.2357 20.0183C23.8257 20.4281 23.5953 20.984 23.5953 21.5636C23.5953 22.1432 23.8257 22.6991 24.2357 23.109C24.6456 23.5188 25.2017 23.7491 25.7815 23.7491C26.3613 23.7491 26.9174 23.5188 27.3273 23.109C27.7373 22.6991 27.9676 22.1432 27.9676 21.5636ZM23.0939 34.8769C23.6737 34.8769 24.2298 34.6467 24.6398 34.2368C25.0498 33.8269 25.2801 33.2711 25.2801 32.6914C25.2801 32.1118 25.0498 31.5559 24.6398 31.1461C24.2298 30.7362 23.6737 30.506 23.0939 30.506C22.5141 30.506 21.9581 30.7362 21.5481 31.1461C21.1381 31.5559 20.9078 32.1118 20.9078 32.6914C20.9078 33.2711 21.1381 33.8269 21.5481 34.2368C21.9581 34.6467 22.5141 34.8769 23.0939 34.8769ZM31.2769 43.0574C31.8568 43.0574 32.4128 42.8271 32.8228 42.4172C33.2328 42.0074 33.4631 41.4515 33.4631 40.8719C33.4631 40.2923 33.2328 39.7364 32.8228 39.3265C32.4128 38.9167 31.8568 38.6864 31.2769 38.6864C30.6971 38.6864 30.1411 38.9167 29.7311 39.3265C29.3211 39.7364 29.0908 40.2923 29.0908 40.8719C29.0908 41.4515 29.3211 42.0074 29.7311 42.4172C30.1411 42.8271 30.6971 43.0574 31.2769 43.0574ZM33.9846 31.9496C34.5644 31.9496 35.1204 31.7193 35.5304 31.3095C35.9404 30.8996 36.1707 30.3437 36.1707 29.7641C36.1707 29.1845 35.9404 28.6286 35.5304 28.2188C35.1204 27.8089 34.5644 27.5787 33.9846 27.5787C33.4048 27.5787 32.8487 27.8089 32.4387 28.2188C32.0287 28.6286 31.7984 29.1845 31.7984 29.7641C31.7984 30.3437 32.0287 30.8996 32.4387 31.3095C32.8487 31.7193 33.4048 31.9496 33.9846 31.9496ZM44.5743 38.1852C44.5743 37.6056 44.344 37.0497 43.934 36.6398C43.5241 36.23 42.968 35.9997 42.3882 35.9997C41.8084 35.9997 41.2523 36.23 40.8424 36.6398C40.4324 37.0497 40.202 37.6056 40.202 38.1852C40.202 38.7648 40.4324 39.3207 40.8424 39.7305C41.2523 40.1404 41.8084 40.3706 42.3882 40.3706C42.968 40.3706 43.5241 40.1404 43.934 39.7305C44.344 39.3207 44.5743 38.7648 44.5743 38.1852Z" fill="url(#paint1_linear_218_136)"/>
<defs>
<linearGradient id="paint0_linear_218_136" x1="32" y1="60" x2="32" y2="4" gradientUnits="userSpaceOnUse">
<stop stop-color="#FD3A84"/>
<stop offset="1" stop-color="#FFA68D"/>
</linearGradient>
<linearGradient id="paint1_linear_218_136" x1="54.1993" y1="30.2544" x2="17.9467" y2="17.134" gradientUnits="userSpaceOnUse">
<stop stop-color="#FE7970"/>
<stop offset="1" stop-color="#DC3282"/>
</linearGradient>
</defs>
</svg>
