<svg width="128" height="128" viewBox="0 0 128 128" fill="none" xmlns="http://www.w3.org/2000/svg">
<g clip-path="url(#clip0_54_253)">
<g filter="url(#filter0_d_54_253)">
<path opacity="0.4" d="M103.5 8.5H24.5C15.6634 8.5 8.5 15.6634 8.5 24.5V103.5C8.5 112.337 15.6634 119.5 24.5 119.5H103.5C112.337 119.5 119.5 112.337 119.5 103.5V24.5C119.5 15.6634 112.337 8.5 103.5 8.5Z" fill="url(#paint0_radial_54_253)"/>
<path d="M50.7061 30.8046C38.0539 36.3141 30.3881 47.6696 28.1448 57.1838C25.9014 66.6979 27.3461 73.764 29.1407 79.1161C30.4846 83.1241 32.4977 86.876 35.0536 90.0375C38.346 94.11 41.9145 96.9755 44.125 98.5383C47.8321 101.159 54.7405 104.408 63.0671 104.922C70.38 105.374 78.3513 103.92 86.3882 98.8168C96.2637 92.5465 100.493 83.1264 101.351 75.0926C101.647 72.32 101.4 67.1012 100.058 62.7063C97.0587 52.8828 88.5795 45.7297 78.3911 44.4282L76.7109 44.2136H74.3154C71.4151 44.2136 68.5367 44.7164 65.8081 45.6997C64.2705 46.2538 62.8838 46.904 61.6479 47.6504C57.7429 50.0087 55.4677 53.076 54.649 54.2142C50.485 60.0025 50.387 67.534 53.4919 72.9371C56.5223 78.2105 62.478 81.6913 69.6151 79.7716C78.7185 77.3232 80.9381 68.6196 78.1709 58.7809C75.4037 48.9422 72.3342 37.5945 71.8683 35.6011C71.8136 35.3669 71.729 35.0303 71.6146 34.5915C70.504 30.3326 72.5755 25.8853 76.5503 23.9951C80.662 22.0398 85.5703 23.027 88.6063 26.4199L88.8006 26.637" stroke="url(#paint1_radial_54_253)" stroke-width="10" stroke-linecap="round" stroke-linejoin="round"/>
</g>
</g>
<defs>
<filter id="filter0_d_54_253" x="-11.5" y="-3.5" width="151" height="151" filterUnits="userSpaceOnUse" color-interpolation-filters="sRGB">
<feFlood flood-opacity="0" result="BackgroundImageFix"/>
<feColorMatrix in="SourceAlpha" type="matrix" values="0 0 0 0 0 0 0 0 0 0 0 0 0 0 0 0 0 0 127 0" result="hardAlpha"/>
<feOffset dy="8"/>
<feGaussianBlur stdDeviation="10"/>
<feComposite in2="hardAlpha" operator="out"/>
<feColorMatrix type="matrix" values="0 0 0 0 0 0 0 0 0 0 0 0 0 0 0 0 0 0 0.2 0"/>
<feBlend mode="normal" in2="BackgroundImageFix" result="effect1_dropShadow_54_253"/>
<feBlend mode="normal" in="SourceGraphic" in2="effect1_dropShadow_54_253" result="shape"/>
</filter>
<radialGradient id="paint0_radial_54_253" cx="0" cy="0" r="1" gradientUnits="userSpaceOnUse" gradientTransform="translate(5558.5 8.5) scale(12479.1)">
<stop stop-color="#FF7440"/>
<stop offset="1" stop-color="#DD001B"/>
</radialGradient>
<radialGradient id="paint1_radial_54_253" cx="0" cy="0" r="1" gradientUnits="userSpaceOnUse" gradientTransform="translate(3750.15 23) scale(8371.42 9218.77)">
<stop stop-color="#FF7440"/>
<stop offset="1" stop-color="#DD001B"/>
</radialGradient>
<clipPath id="clip0_54_253">
<rect width="128" height="128" fill="white"/>
</clipPath>
</defs>
</svg>
