<svg width="32" height="32" viewBox="0 0 32 32" fill="none" xmlns="http://www.w3.org/2000/svg">
<path fill-rule="evenodd" clip-rule="evenodd" d="M20.8642 5.10634C20.8642 8.43783 23.5689 11.1385 26.9052 11.1385C27.2726 11.1367 27.639 11.1015 28 11.0332V22.9922C28 28.0234 25.0322 31 19.9936 31H9.01954C3.96776 31 1 28.0234 1 22.9922V12.0341C1 7.00293 3.96776 4 9.01954 4H20.9697C20.8988 4.36451 20.8635 4.73502 20.8642 5.10634ZM17.7249 20.3449L22.0117 14.8132V14.7868C22.3787 14.2937 22.2851 13.5983 21.8007 13.2195C21.5662 13.0385 21.2683 12.9602 20.975 13.0024C20.6817 13.0446 20.418 13.2037 20.2442 13.4434L16.6302 18.0927L12.5149 14.8527C12.2799 14.6697 11.981 14.5888 11.6857 14.6285C11.3903 14.6681 11.1235 14.8249 10.9453 15.0634L6.51341 20.7795C6.35763 20.9737 6.27377 21.2156 6.27599 21.4644C6.25027 21.9672 6.56779 22.424 7.04854 22.5757C7.5293 22.7275 8.05204 22.536 8.32045 22.1098L12.0268 17.3156L16.1421 20.5424C16.3762 20.7312 16.6771 20.8167 16.9756 20.7794C17.2741 20.7422 17.5446 20.5853 17.7249 20.3449Z" fill="url(#paint0_linear_5_77)"/>
<circle opacity="0.4" cx="27.25" cy="4.75" r="3.75" fill="url(#paint1_linear_5_77)"/>
<defs>
<linearGradient id="paint0_linear_5_77" x1="14.5" y1="31" x2="14.5" y2="4" gradientUnits="userSpaceOnUse">
<stop stop-color="#FD2E00"/>
<stop offset="1" stop-color="#FFBB55"/>
</linearGradient>
<linearGradient id="paint1_linear_5_77" x1="27.25" y1="8.5" x2="27.25" y2="1" gradientUnits="userSpaceOnUse">
<stop stop-color="#FD2E00"/>
<stop offset="1" stop-color="#FFBB55"/>
</linearGradient>
</defs>
</svg>
