<svg width="64" height="64" viewBox="0 0 64 64" fill="none" xmlns="http://www.w3.org/2000/svg">
<rect opacity="0.4" x="6" y="6" width="52" height="52" rx="12" fill="url(#paint0_linear_224_146)"/>
<path fill-rule="evenodd" clip-rule="evenodd" d="M20.5221 23.3434C20.252 23.2741 20 23.4878 20 23.7667V47C20 48.1046 19.1046 49 18 49H14C12.8954 49 12 48.1046 12 47V16C12 15.4477 12.4477 15 13 15H14L14 15L14 15L14.3988 14.9999L14.3988 14.9999L14.4035 14.9999C14.6712 14.9998 14.9387 14.9996 15.2056 15H19.9093C19.9594 15 20 15.0406 20 15.0907C20 15.1374 20.0353 15.1764 20.0817 15.1812C20.9373 15.2693 21.7526 15.4001 22.5091 15.5941C23.844 15.9363 25.1847 16.5103 26.3823 17.5053C27.587 18.5061 28.4387 19.7599 29.0452 21.1596C30.1762 23.7696 30.589 27.2431 30.7922 31.4639C31 35.7789 31 41.6006 31 48.9999L30.9999 49L25 49C23.8954 49 23.0001 48.104 22.9998 46.9995C22.9982 40.4706 22.981 35.5764 22.8015 31.8486C22.5985 27.6319 22.1988 25.4804 21.7048 24.3404C21.4988 23.8651 21.3349 23.7126 21.2701 23.6588C21.1982 23.599 21.0154 23.4699 20.5221 23.3434ZM38.7272 28.4546C38.7272 27.35 39.6226 26.4546 40.7272 26.4546H44.3635C45.4681 26.4546 46.3635 27.35 46.3635 28.4546V32.091C46.3635 33.1955 47.259 34.091 48.3635 34.091H51.9999C53.1045 34.091 53.9999 34.9864 53.9999 36.091V39.7273C53.9999 40.8319 53.1045 41.7273 51.9999 41.7273H48.3635C47.259 41.7273 46.3635 42.6227 46.3635 43.7273V47.3637C46.3635 48.4682 45.4681 49.3637 44.3635 49.3637H40.7272C39.6226 49.3637 38.7272 48.4682 38.7272 47.3637V43.7273C38.7272 42.6227 37.8318 41.7273 36.7272 41.7273H33.0908C31.9863 41.7273 31.0908 40.8319 31.0908 39.7273V36.091C31.0908 34.9864 31.9862 34.091 33.0908 34.091H36.7272C37.8318 34.091 38.7272 33.1955 38.7272 32.091V28.4546Z" fill="url(#paint1_linear_224_146)"/>
<defs>
<linearGradient id="paint0_linear_224_146" x1="32" y1="58" x2="32" y2="6" gradientUnits="userSpaceOnUse">
<stop stop-color="#FDA700"/>
<stop offset="1" stop-color="#FFDE00"/>
</linearGradient>
<linearGradient id="paint1_linear_224_146" x1="53.9999" y1="33.9715" x2="12" y2="33.9715" gradientUnits="userSpaceOnUse">
<stop stop-color="#FFCD1A"/>
<stop offset="1" stop-color="#FD9C0C"/>
</linearGradient>
</defs>
</svg>
