<svg width="64" height="64" viewBox="0 0 64 64" fill="none" xmlns="http://www.w3.org/2000/svg">
<g clip-path="url(#clip0_224_168)">
<path opacity="0.4" d="M30.3438 2.34381C31.7872 0.902472 33.7266 0.0668859 35.7656 0.0078771C38.8819 -0.08314 41.6247 1.61793 43.0212 4.16697C44.0821 6.10352 45.7919 8.00006 48 8.00006C52.4181 8.00051 55.9996 11.582 56 16.0001V44.0001C55.9996 48.4182 52.4181 51.9996 48 52.0001H44.9694C43.9085 52.0001 42.8911 52.4215 42.1409 53.1716L33.6562 61.6563C29.6346 65.6752 23.3375 64.2155 20.9557 59.8415C19.8995 57.9019 18.2085 56.0001 16 56.0001C11.5819 55.9996 8.00044 52.4182 8 48.0001V20.0001C8.00044 15.582 11.5819 12.0005 16 12.0001H19.0306C20.0915 12.0001 21.1089 11.5786 21.8591 10.8285L30.3438 2.34381Z" fill="url(#paint0_linear_224_168)"/>
<path d="M15 18C13.8954 18 13 18.8954 13 20V37C13 38.1046 13.8954 39 15 39H23.5162C24.5811 39 25.4444 38.1367 25.4444 37.0717V37.0717C25.4444 35.2987 27.636 34.4654 28.8139 35.7907L37.2922 45.3287C37.6717 45.7557 38.2157 46 38.787 46H48.3333C49.4379 46 50.3333 45.1046 50.3333 44V27C50.3333 25.8954 49.4379 25 48.3333 25H39.8172C38.7522 25 37.8889 25.8633 37.8889 26.9283V26.9283C37.8889 28.7013 35.6974 29.5346 34.5194 28.2093L26.0411 18.6713C25.6616 18.2443 25.1176 18 24.5463 18H15Z" fill="url(#paint1_linear_224_168)"/>
</g>
<defs>
<linearGradient id="paint0_linear_224_168" x1="32" y1="64.0137" x2="32" y2="0.00439453" gradientUnits="userSpaceOnUse">
<stop stop-color="#5570FF"/>
<stop offset="1" stop-color="#4DD3FF"/>
</linearGradient>
<linearGradient id="paint1_linear_224_168" x1="31.6667" y1="46" x2="31.6667" y2="18" gradientUnits="userSpaceOnUse">
<stop stop-color="#5570FF"/>
<stop offset="1" stop-color="#4DD3FF"/>
</linearGradient>
<clipPath id="clip0_224_168">
<rect width="64" height="64" fill="white"/>
</clipPath>
</defs>
</svg>
