<svg width="32" height="32" viewBox="0 0 32 32" fill="none" xmlns="http://www.w3.org/2000/svg">
<path opacity="0.45" d="M10.4 2H21.6C23.8278 2 25.9644 2.885 27.5397 4.4603C29.115 6.03561 30 8.17218 30 10.4V21.6C30 23.8278 29.115 25.9644 27.5397 27.5397C25.9644 29.115 23.8278 30 21.6 30H10.4C8.17218 30 6.03561 29.115 4.4603 27.5397C2.885 25.9644 2 23.8278 2 21.6L2 10.4C2 8.17218 2.885 6.03561 4.4603 4.4603C6.03561 2.885 8.17218 2 10.4 2Z" fill="url(#paint0_linear_344_566)"/>
<path d="M17.8099 15.0101C18.0724 14.7475 18.4285 14.6 18.7998 14.6H22.9998C23.3711 14.6 23.7272 14.7475 23.9898 15.0101C24.2523 15.2726 24.3998 15.6287 24.3998 16C24.3998 16.3713 24.2523 16.7274 23.9898 16.9899C23.7272 17.2525 23.3711 17.4 22.9998 17.4H18.7998C18.4285 17.4 18.0724 17.2525 17.8099 16.9899C17.5473 16.7274 17.3998 16.3713 17.3998 16C17.3998 15.6287 17.5473 15.2726 17.8099 15.0101Z" fill="url(#paint1_linear_344_566)"/>
<path d="M15.0099 20.6101C15.2724 20.3475 15.6285 20.2 15.9998 20.2H22.9998C23.3711 20.2 23.7272 20.3475 23.9898 20.6101C24.2523 20.8726 24.3998 21.2287 24.3998 21.6C24.3998 21.9713 24.2523 22.3274 23.9898 22.5899C23.7272 22.8525 23.3711 23 22.9998 23H15.9998C15.6285 23 15.2724 22.8525 15.0099 22.5899C14.7473 22.3274 14.5998 21.9713 14.5998 21.6C14.5998 21.2287 14.7473 20.8726 15.0099 20.6101Z" fill="url(#paint2_linear_344_566)"/>
<path d="M15.0099 9.41005C15.2724 9.1475 15.6285 9 15.9998 9H22.9998C23.3711 9 23.7272 9.1475 23.9898 9.41005C24.2523 9.6726 24.3998 10.0287 24.3998 10.4C24.3998 10.7713 24.2523 11.1274 23.9898 11.3899C23.7272 11.6525 23.3711 11.8 22.9998 11.8H15.9998C15.6285 11.8 15.2724 11.6525 15.0099 11.3899C14.7473 11.1274 14.5998 10.7713 14.5998 10.4C14.5998 10.0287 14.7473 9.6726 15.0099 9.41005Z" fill="url(#paint3_linear_344_566)"/>
<path d="M9.16921 15.3504L10.159 16.3402V16.3388L13.1298 13.368C13.3927 13.1055 13.7491 12.9582 14.1206 12.9584C14.4921 12.9587 14.8483 13.1065 15.1108 13.3694C15.3733 13.6323 15.5207 13.9887 15.5204 14.3602C15.5201 14.7317 15.3723 15.0879 15.1094 15.3504L11.1502 19.3096C11.0202 19.4398 10.8658 19.543 10.6958 19.6135C10.5259 19.6839 10.3437 19.7202 10.1597 19.7202C9.97573 19.7202 9.79355 19.6839 9.62359 19.6135C9.45364 19.543 9.29923 19.4398 9.16921 19.3096L7.18961 17.33C7.0559 17.2009 6.94924 17.0464 6.87587 16.8756C6.8025 16.7048 6.76388 16.5211 6.76226 16.3352C6.76064 16.1493 6.79607 15.9649 6.86646 15.7929C6.93685 15.6208 7.04081 15.4645 7.17226 15.333C7.30371 15.2016 7.46002 15.0976 7.63207 15.0272C7.80413 14.9569 7.98848 14.9214 8.17437 14.923C8.36026 14.9247 8.54397 14.9633 8.71478 15.0367C8.88558 15.11 9.04006 15.2167 9.16921 15.3504Z" fill="url(#paint4_linear_344_566)"/>
<defs>
<linearGradient id="paint0_linear_344_566" x1="24.8006" y1="24.9693" x2="9.04407" y2="6.8446" gradientUnits="userSpaceOnUse">
<stop stop-color="#248EFE"/>
<stop offset="1" stop-color="#1DF4FF"/>
</linearGradient>
<linearGradient id="paint1_linear_344_566" x1="21.1246" y1="20.4847" x2="13.6868" y2="9.70587" gradientUnits="userSpaceOnUse">
<stop stop-color="#248EFE"/>
<stop offset="1" stop-color="#1DF4FF"/>
</linearGradient>
<linearGradient id="paint2_linear_344_566" x1="21.1246" y1="20.4847" x2="13.6868" y2="9.70587" gradientUnits="userSpaceOnUse">
<stop stop-color="#248EFE"/>
<stop offset="1" stop-color="#1DF4FF"/>
</linearGradient>
<linearGradient id="paint3_linear_344_566" x1="21.1246" y1="20.4847" x2="13.6868" y2="9.70587" gradientUnits="userSpaceOnUse">
<stop stop-color="#248EFE"/>
<stop offset="1" stop-color="#1DF4FF"/>
</linearGradient>
<linearGradient id="paint4_linear_344_566" x1="21.1246" y1="20.4847" x2="13.6868" y2="9.70587" gradientUnits="userSpaceOnUse">
<stop stop-color="#248EFE"/>
<stop offset="1" stop-color="#1DF4FF"/>
</linearGradient>
</defs>
</svg>
