<svg width="24" height="24" viewBox="0 0 24 24" fill="none" xmlns="http://www.w3.org/2000/svg">
<path opacity="0.5" d="M10.1909 22.6419C10.6946 22.8777 11.244 23 11.8002 23C12.3564 23 12.9058 22.8777 13.4095 22.6419C17.792 20.5936 20.6004 14.8658 20.6004 9.9586C20.6004 5.00959 16.6601 1 11.8002 1C6.94029 1 3 5.01069 3 9.9575C3 14.8658 5.80836 20.5947 10.1909 22.6419Z" fill="url(#paint0_linear_37_342)"/>
<path fill-rule="evenodd" clip-rule="evenodd" d="M11.6924 5C10.9605 5.00002 10.2388 5.17124 9.58486 5.49997C8.93096 5.8287 8.36301 6.30582 7.92641 6.89321C7.48981 7.4806 7.19666 8.16198 7.07038 8.88288C6.9441 9.60379 6.98819 10.3442 7.19914 11.0451C7.41009 11.7459 7.78205 12.3876 8.28528 12.9191C8.78851 13.4505 9.40907 13.8568 10.0974 14.1056C10.7857 14.3544 11.5226 14.4388 12.2493 14.3519C12.976 14.2651 13.6724 14.0095 14.2826 13.6055L15.4064 14.7342C15.5828 14.9058 15.8196 15.0013 16.0657 15C16.3118 14.9987 16.5476 14.9008 16.7222 14.7273C16.8968 14.5538 16.9963 14.3187 16.9992 14.0726C17.0021 13.8265 16.9082 13.5891 16.7378 13.4115L15.6091 12.2766C16.0757 11.5692 16.3421 10.7487 16.3799 9.90216C16.4178 9.05561 16.2257 8.21461 15.8241 7.46844C15.4224 6.72227 14.8262 6.09878 14.0988 5.66417C13.3713 5.22956 12.5398 5.00005 11.6924 5ZM11.6924 6.87701C11.3226 6.87701 10.9565 6.94984 10.6149 7.09133C10.2733 7.23282 9.96294 7.44021 9.7015 7.70166C9.44005 7.9631 9.23267 8.27348 9.09117 8.61508C8.94968 8.95667 8.87685 9.32279 8.87685 9.69253C8.87685 10.0623 8.94968 10.4284 9.09117 10.77C9.23267 11.1116 9.44005 11.422 9.7015 11.6834C9.96294 11.9448 10.2733 12.1522 10.6149 12.2937C10.9565 12.4352 11.3226 12.5081 11.6924 12.5081C12.4391 12.5081 13.1552 12.2114 13.6832 11.6834C14.2113 11.1554 14.5079 10.4393 14.5079 9.69253C14.5079 8.94581 14.2113 8.22967 13.6832 7.70166C13.1552 7.17365 12.4391 6.87701 11.6924 6.87701Z" fill="url(#paint1_linear_37_342)"/>
<defs>
<linearGradient id="paint0_linear_37_342" x1="11.8002" y1="23" x2="11.8002" y2="1" gradientUnits="userSpaceOnUse">
<stop stop-color="#00B59C"/>
<stop offset="1" stop-color="#9CFFAC"/>
</linearGradient>
<linearGradient id="paint1_linear_37_342" x1="11.9996" y1="15" x2="11.9996" y2="5" gradientUnits="userSpaceOnUse">
<stop stop-color="#00B59C"/>
<stop offset="1" stop-color="#9CFFAC"/>
</linearGradient>
</defs>
</svg>
