<svg width="24" height="24" viewBox="0 0 24 24" fill="none" xmlns="http://www.w3.org/2000/svg">
<path fill-rule="evenodd" clip-rule="evenodd" d="M3.80495 8.51086C4.01844 8.51086 4.22318 8.59567 4.37414 8.74663C4.5251 8.89759 4.60991 9.10233 4.60991 9.31582V10.3891C4.60991 11.4109 4.81117 12.4228 5.20222 13.3668C5.59326 14.3109 6.16642 15.1687 6.88897 15.8912C7.61153 16.6138 8.46932 17.187 9.41338 17.578C10.3574 17.969 11.3693 18.1703 12.3911 18.1703C13.413 18.1703 14.4248 17.969 15.3689 17.578C16.3129 17.187 17.1707 16.6138 17.8933 15.8912C18.6158 15.1687 19.189 14.3109 19.58 13.3668C19.9711 12.4228 20.1723 11.4109 20.1723 10.3891V9.31582C20.1723 9.10233 20.2572 8.89759 20.4081 8.74663C20.5591 8.59567 20.7638 8.51086 20.9773 8.51086C21.1908 8.51086 21.3955 8.59567 21.5465 8.74663C21.6974 8.89759 21.7823 9.10233 21.7823 9.31582V10.3891C21.7823 12.7405 20.9003 15.0063 19.3105 16.7388C17.7207 18.4713 15.5388 19.5443 13.1961 19.7459V22.1951C13.1961 22.4086 13.1113 22.6133 12.9603 22.7643C12.8094 22.9152 12.6046 23 12.3911 23C12.1776 23 11.9729 22.9152 11.8219 22.7643C11.671 22.6133 11.5862 22.4086 11.5862 22.1951V19.7459C9.24345 19.5443 7.06158 18.4713 5.47178 16.7388C3.88198 15.0063 2.99995 12.7405 3 10.3891V9.31582C3 9.10233 3.08481 8.89759 3.23577 8.74663C3.38672 8.59567 3.59147 8.51086 3.80495 8.51086Z" fill="url(#paint0_linear_8_634)"/>
<path opacity="0.4" d="M9.9763 7.16924C9.9763 6.95576 9.89149 6.75101 9.74053 6.60006C9.58958 6.4491 9.38483 6.36429 9.17135 6.36429H6.27137C6.46736 4.88013 7.19608 3.51778 8.32181 2.53093C9.44755 1.54408 10.8936 1 12.3906 1C13.8877 1 15.3337 1.54408 16.4594 2.53093C17.5852 3.51778 18.3139 4.88013 18.5099 6.36429H14.0011C13.7876 6.36429 13.5828 6.4491 13.4319 6.60006C13.2809 6.75101 13.1961 6.95576 13.1961 7.16924C13.1961 7.38273 13.2809 7.58747 13.4319 7.73843C13.5828 7.88939 13.7876 7.9742 14.0011 7.9742H18.5625V9.5841H14.0011C13.7876 9.5841 13.5828 9.66891 13.4319 9.81987C13.2809 9.97083 13.1961 10.1756 13.1961 10.3891C13.1961 10.6025 13.2809 10.8073 13.4319 10.9582C13.5828 11.1092 13.7876 11.194 14.0011 11.194H18.5099C18.3139 12.6782 17.5852 14.0405 16.4594 15.0274C15.3337 16.0142 13.8877 16.5583 12.3906 16.5583C10.8936 16.5583 9.44755 16.0142 8.32181 15.0274C7.19608 14.0405 6.46736 12.6782 6.27137 11.194H9.17135C9.38483 11.194 9.58958 11.1092 9.74053 10.9582C9.89149 10.8073 9.9763 10.6025 9.9763 10.3891C9.9763 10.1756 9.89149 9.97083 9.74053 9.81987C9.58958 9.66891 9.38483 9.5841 9.17135 9.5841H6.21985V7.9742H9.17135C9.38483 7.9742 9.58958 7.88939 9.74053 7.73843C9.89149 7.58747 9.9763 7.38273 9.9763 7.16924Z" fill="url(#paint1_linear_8_634)"/>
<path d="M13.1961 10.389C13.1961 10.8334 13.5567 11.194 14.0011 11.194H18.5099L18.5625 9.58407H14.0011C13.7876 9.58407 13.5828 9.66888 13.4319 9.81984C13.2809 9.9708 13.1961 10.1755 13.1961 10.389ZM13.1961 7.16921C13.1961 7.61355 13.5567 7.97417 14.0011 7.97417H18.5625L18.5099 6.36426H14.0011C13.7876 6.36426 13.5828 6.44907 13.4319 6.60002C13.2809 6.75098 13.1961 6.95572 13.1961 7.16921ZM9.9763 7.16921C9.9763 6.95572 9.89149 6.75098 9.74053 6.60002C9.58958 6.44907 9.38483 6.36426 9.17135 6.36426H6.27137L6.21985 7.97417H9.17135C9.38483 7.97417 9.58958 7.88936 9.74053 7.7384C9.89149 7.58744 9.9763 7.3827 9.9763 7.16921ZM9.9763 10.389C9.9763 10.1755 9.89149 9.9708 9.74053 9.81984C9.58958 9.66888 9.38483 9.58407 9.17135 9.58407H6.21985L6.27137 11.194H9.17135C9.38483 11.194 9.58958 11.1092 9.74053 10.9582C9.89149 10.8073 9.9763 10.6025 9.9763 10.389Z" fill="url(#paint2_linear_8_634)"/>
<defs>
<linearGradient id="paint0_linear_8_634" x1="20.3345" y1="8.77169" x2="7.68461" y2="25.7671" gradientUnits="userSpaceOnUse">
<stop stop-color="#FFC700"/>
<stop offset="0.1987" stop-color="#FF49AB"/>
<stop offset="0.37955" stop-color="#BA49FF"/>
<stop offset="0.53125" stop-color="#5849FF"/>
<stop offset="0.84375" stop-color="#1EFFD6"/>
<stop offset="0.9999" stop-color="#00FFFF"/>
</linearGradient>
<linearGradient id="paint1_linear_8_634" x1="17.6111" y1="1.28007" x2="3.69866" y2="12.7191" gradientUnits="userSpaceOnUse">
<stop stop-color="#FFC700"/>
<stop offset="0.1987" stop-color="#FF49AB"/>
<stop offset="0.37955" stop-color="#BA49FF"/>
<stop offset="0.53125" stop-color="#5849FF"/>
<stop offset="0.84375" stop-color="#1EFFD6"/>
<stop offset="0.9999" stop-color="#00FFFF"/>
</linearGradient>
<linearGradient id="paint2_linear_8_634" x1="17.6111" y1="6.4512" x2="14.7019" y2="14.1565" gradientUnits="userSpaceOnUse">
<stop stop-color="#FFC700"/>
<stop offset="0.1987" stop-color="#FF49AB"/>
<stop offset="0.37955" stop-color="#BA49FF"/>
<stop offset="0.53125" stop-color="#5849FF"/>
<stop offset="0.84375" stop-color="#1EFFD6"/>
<stop offset="0.9999" stop-color="#00FFFF"/>
</linearGradient>
</defs>
</svg>
