<svg width="128" height="128" viewBox="0 0 128 128" fill="none" xmlns="http://www.w3.org/2000/svg">
<path fill-rule="evenodd" clip-rule="evenodd" d="M17.5915 43.1934C17.9711 42.5012 18.9655 42.5012 19.3451 43.1934L21.3272 46.8077C21.4188 46.9747 21.5562 47.1121 21.7232 47.2037L25.3375 49.1857C26.0297 49.5653 26.0297 50.5597 25.3375 50.9394L21.7232 52.9214C21.5562 53.013 21.4188 53.1504 21.3272 53.3174L19.3451 56.9317C18.9655 57.6239 17.9711 57.6239 17.5915 56.9317L15.6095 53.3174C15.5179 53.1504 15.3805 53.013 15.2135 52.9214L11.5992 50.9394C10.907 50.5597 10.907 49.5653 11.5992 49.1857L15.2135 47.2037C15.3805 47.1121 15.5179 46.9747 15.6095 46.8077L17.5915 43.1934ZM40.1729 43.1934C40.5526 42.5012 41.547 42.5012 41.9266 43.1934L43.9086 46.8077C44.0002 46.9747 44.1376 47.1121 44.3046 47.2037L47.9188 49.1857C48.6111 49.5653 48.6111 50.5597 47.9188 50.9394L44.3046 52.9214C44.1376 53.013 44.0002 53.1504 43.9086 53.3174L41.9266 56.9317C41.547 57.6239 40.5526 57.6239 40.1729 56.9317L38.1909 53.3174C38.0993 53.1504 37.962 53.013 37.795 52.9214L34.1807 50.9394C33.4885 50.5597 33.4885 49.5653 34.1807 49.1857L37.795 47.2037C37.962 47.1121 38.0993 46.9747 38.1909 46.8077L40.1729 43.1934ZM71.8955 42.6693C72.4889 42.0757 73.4513 42.0757 74.045 42.6693L87.9603 56.5848C88.5539 57.1783 88.5539 58.1407 87.9603 58.7342L27.14 119.554C26.5465 120.148 25.5841 120.148 24.9906 119.554L11.075 105.639C10.4815 105.046 10.4815 104.083 11.075 103.49L71.8955 42.6693ZM74.0453 50.698C73.4516 50.1037 72.4886 50.1035 71.8946 50.6976L55.256 67.3462C54.6626 67.9399 54.6626 68.902 55.2563 69.4953L61.1444 75.3834C61.7383 75.9774 62.701 75.9771 63.2944 75.3828L79.9246 58.7335C80.517 58.1401 80.517 57.1788 79.9246 56.5854L74.0453 50.698ZM28.8822 60.1294C29.2618 59.4372 30.2562 59.4372 30.6358 60.1294L32.6179 63.7437C32.7094 63.9107 32.8468 64.048 33.0138 64.1396L36.6282 66.1217C37.3204 66.5013 37.3204 67.4957 36.6282 67.8753L33.0138 69.8576C32.8468 69.9492 32.7094 70.0865 32.6179 70.2535L30.6358 73.8678C30.2562 74.5601 29.2618 74.5601 28.8822 73.8678L26.9002 70.2535C26.8086 70.0865 26.6712 69.9492 26.5042 69.8576L22.8898 67.8753C22.1976 67.4957 22.1976 66.5013 22.8898 66.1217L26.5042 64.1396C26.6712 64.048 26.8086 63.9107 26.9002 63.7437L28.8822 60.1294Z" fill="url(#paint0_linear_54_1412)"/>
<g opacity="0.4">
<path d="M23.7586 13.8157C23.7151 11.607 25.4704 9.78121 27.6791 9.7377L43.1208 9.43353C45.3295 9.39002 47.1553 11.1453 47.1988 13.354L47.3591 21.4946C47.4026 23.7034 45.6474 25.5291 43.4387 25.5726L27.997 25.8768C25.7883 25.9203 23.9625 24.1651 23.919 21.9564L23.7586 13.8157Z" fill="url(#paint1_linear_54_1412)"/>
<path d="M53.347 13.2329C53.3035 11.0242 55.0588 9.19837 57.2675 9.15486L80.0102 8.70687C82.2189 8.66336 84.0447 10.4186 84.0882 12.6273L84.2485 20.768C84.2921 22.9767 82.5368 24.8025 80.3281 24.846L57.5854 25.294C55.3767 25.3375 53.5509 23.5822 53.5074 21.3735L53.347 13.2329Z" fill="url(#paint2_linear_54_1412)"/>
<path d="M90.2364 12.5062C90.1929 10.2975 91.9482 8.47171 94.1569 8.4282L105.528 8.2042C111.258 8.09133 115.995 12.645 116.108 18.375L116.351 30.707C116.394 32.9157 114.639 34.7415 112.43 34.785L104.289 34.9454C102.081 34.9889 100.255 33.2336 100.211 31.0249L100.161 28.4561C100.117 26.2474 98.2917 24.4921 96.0829 24.5356L94.4748 24.5673C92.2661 24.6108 90.4403 22.8556 90.3968 20.6469L90.2364 12.5062Z" fill="url(#paint3_linear_54_1412)"/>
<path d="M105.671 105.074C103.462 105.117 101.636 103.362 101.593 101.153L101.27 84.7509C101.226 82.5421 102.981 80.7164 105.19 80.6729L113.331 80.5125C115.54 80.469 117.365 82.2242 117.409 84.4329L117.732 100.835C117.775 103.044 116.02 104.87 113.812 104.913L105.671 105.074Z" fill="url(#paint4_linear_54_1412)"/>
<path d="M112.559 41.3175C114.768 41.274 116.593 43.0292 116.637 45.2379L117.123 69.902C117.166 72.1107 115.411 73.9365 113.202 73.98L105.062 74.1404C102.853 74.1839 101.027 72.4286 100.984 70.2199L100.498 45.5559C100.454 43.3471 102.209 41.5214 104.418 41.4779L112.559 41.3175Z" fill="url(#paint5_linear_54_1412)"/>
</g>
<defs>
<linearGradient id="paint0_linear_54_1412" x1="30.0423" y1="106.801" x2="130.182" y2="23.0963" gradientUnits="userSpaceOnUse">
<stop stop-color="#FE0844"/>
<stop offset="1" stop-color="#FEB302"/>
</linearGradient>
<linearGradient id="paint1_linear_54_1412" x1="30.0423" y1="106.801" x2="130.182" y2="23.0963" gradientUnits="userSpaceOnUse">
<stop stop-color="#FE0844"/>
<stop offset="1" stop-color="#FEB302"/>
</linearGradient>
<linearGradient id="paint2_linear_54_1412" x1="30.0423" y1="106.801" x2="130.182" y2="23.0963" gradientUnits="userSpaceOnUse">
<stop stop-color="#FE0844"/>
<stop offset="1" stop-color="#FEB302"/>
</linearGradient>
<linearGradient id="paint3_linear_54_1412" x1="30.0423" y1="106.801" x2="130.182" y2="23.0963" gradientUnits="userSpaceOnUse">
<stop stop-color="#FE0844"/>
<stop offset="1" stop-color="#FEB302"/>
</linearGradient>
<linearGradient id="paint4_linear_54_1412" x1="30.0423" y1="106.801" x2="130.182" y2="23.0963" gradientUnits="userSpaceOnUse">
<stop stop-color="#FE0844"/>
<stop offset="1" stop-color="#FEB302"/>
</linearGradient>
<linearGradient id="paint5_linear_54_1412" x1="30.0423" y1="106.801" x2="130.182" y2="23.0963" gradientUnits="userSpaceOnUse">
<stop stop-color="#FE0844"/>
<stop offset="1" stop-color="#FEB302"/>
</linearGradient>
</defs>
</svg>
