<svg width="24" height="24" viewBox="0 0 24 24" fill="none" xmlns="http://www.w3.org/2000/svg">
<path opacity="0.45" d="M3 9.8C3 5.6519 3 3.5773 4.2892 2.2892C5.5773 1 7.6519 1 11.8 1C15.9481 1 18.0227 1 19.3108 2.2892C20.6 3.5773 20.6 5.6519 20.6 9.8V14.2C20.6 18.3481 20.6 20.4227 19.3108 21.7108C18.0227 23 15.9481 23 11.8 23C7.6519 23 5.5773 23 4.2892 21.7108C3 20.4227 3 18.3481 3 14.2V9.8Z" fill="url(#paint0_linear_107_167)"/>
<path d="M9.5999 4.57495C9.3811 4.57495 9.17126 4.66187 9.01654 4.81659C8.86182 4.97131 8.7749 5.18115 8.7749 5.39995C8.7749 5.61875 8.86182 5.8286 9.01654 5.98331C9.17126 6.13803 9.3811 6.22495 9.5999 6.22495H13.9999C14.2187 6.22495 14.4286 6.13803 14.5833 5.98331C14.738 5.8286 14.8249 5.61875 14.8249 5.39995C14.8249 5.18115 14.738 4.97131 14.5833 4.81659C14.4286 4.66187 14.2187 4.57495 13.9999 4.57495H9.5999Z" fill="url(#paint1_linear_107_167)"/>
<path fill-rule="evenodd" clip-rule="evenodd" d="M11.7999 8.97498C10.4142 8.97498 9.0852 9.52546 8.10532 10.5053C7.12544 11.4852 6.57495 12.8142 6.57495 14.2C6.57495 15.5857 7.12544 16.9147 8.10532 17.8946C9.0852 18.8745 10.4142 19.425 11.7999 19.425C13.1857 19.425 14.5147 18.8745 15.4945 17.8946C16.4744 16.9147 17.0249 15.5857 17.0249 14.2C17.0249 12.8142 16.4744 11.4852 15.4945 10.5053C14.5147 9.52546 13.1857 8.97498 11.7999 8.97498Z" fill="url(#paint2_linear_107_167)"/>
<defs>
<linearGradient id="paint0_linear_107_167" x1="3" y1="1" x2="3" y2="23" gradientUnits="userSpaceOnUse">
<stop stop-color="#FFB865"/>
<stop offset="1" stop-color="#F55800"/>
</linearGradient>
<linearGradient id="paint1_linear_107_167" x1="8.7749" y1="4.57495" x2="8.7749" y2="6.22495" gradientUnits="userSpaceOnUse">
<stop stop-color="#FFB865"/>
<stop offset="1" stop-color="#F55800"/>
</linearGradient>
<linearGradient id="paint2_linear_107_167" x1="6.57495" y1="8.97498" x2="6.57495" y2="19.425" gradientUnits="userSpaceOnUse">
<stop stop-color="#FFB865"/>
<stop offset="1" stop-color="#F55800"/>
</linearGradient>
</defs>
</svg>
