<svg width="24" height="24" viewBox="0 0 24 24" fill="none" xmlns="http://www.w3.org/2000/svg">
<path opacity="0.4" d="M11 22.9997C16.5228 22.9997 21 18.5225 21 12.9997C21 7.47685 16.5228 2.99969 11 2.99969C5.47715 2.99969 1 7.47685 1 12.9997C1 18.5225 5.47715 22.9997 11 22.9997Z" fill="url(#paint0_linear_127_70)"/>
<path d="M12.926 15.3017C13.171 15.1107 13.393 14.8887 13.838 14.4437L19.378 8.90368C19.512 8.76968 19.451 8.53869 19.272 8.47669C18.4056 8.1739 17.6192 7.67846 16.972 7.02768C16.3209 6.38061 15.8251 5.59419 15.522 4.72768C15.461 4.54768 15.23 4.48768 15.096 4.62168L9.55599 10.1617C9.11099 10.6057 8.88899 10.8287 8.69799 11.0737C8.47238 11.3625 8.2789 11.675 8.12099 12.0057C7.98799 12.2857 7.88799 12.5847 7.68999 13.1807L7.43299 13.9507L7.02399 15.1767L6.64199 16.3247C6.59428 16.4685 6.58747 16.6227 6.62234 16.7701C6.6572 16.9175 6.73236 17.0523 6.83942 17.1594C6.94648 17.2666 7.08122 17.3419 7.22859 17.3769C7.37597 17.4119 7.53018 17.4053 7.67399 17.3577L8.82399 16.9747L10.048 16.5667L10.818 16.3097C11.415 16.1107 11.713 16.0117 11.993 15.8777C12.324 15.7203 12.6369 15.5271 12.926 15.3017ZM21.113 7.16968C21.681 6.60186 22.0001 5.83166 22.0002 5.02854C22.0003 4.22541 21.6813 3.45515 21.1135 2.88718C20.5457 2.31922 19.7755 2.00009 18.9723 2C18.1692 1.99991 17.3989 2.31886 16.831 2.88668L16.652 3.06468C16.5675 3.14838 16.5046 3.25137 16.4687 3.36477C16.4328 3.47818 16.425 3.5986 16.446 3.71568C16.473 3.86568 16.523 4.08568 16.614 4.34868C16.8593 5.05055 17.2607 5.68756 17.788 6.21168C18.3118 6.73889 18.9485 7.14031 19.65 7.38568C19.913 7.47568 20.133 7.52668 20.283 7.55368C20.523 7.59668 20.763 7.51868 20.935 7.34668L21.113 7.16968Z" fill="url(#paint1_linear_127_70)"/>
<defs>
<linearGradient id="paint0_linear_127_70" x1="11" y1="22.9997" x2="11" y2="2.99969" gradientUnits="userSpaceOnUse">
<stop stop-color="#FFA800"/>
<stop offset="1" stop-color="#FFF737"/>
</linearGradient>
<linearGradient id="paint1_linear_127_70" x1="14.3003" y1="17.399" x2="14.3003" y2="2" gradientUnits="userSpaceOnUse">
<stop stop-color="#FFA800"/>
<stop offset="1" stop-color="#FFF737"/>
</linearGradient>
</defs>
</svg>
