<svg width="32" height="32" viewBox="0 0 32 32" fill="none" xmlns="http://www.w3.org/2000/svg">
<path opacity="0.4" d="M9.29399 1.88233C9.29399 1.64832 9.20103 1.4239 9.03556 1.25843C8.87009 1.09296 8.64566 1 8.41165 1C8.17765 1 7.95322 1.09296 7.78775 1.25843C7.62228 1.4239 7.52932 1.64832 7.52932 1.88233V2.36466C7.52932 2.58558 7.35024 2.76466 7.12932 2.76466H6.64699C5.94497 2.76466 5.27169 3.04354 4.77529 3.53995C4.27888 4.03636 4 4.70963 4 5.41165V26.5876C4 27.2896 4.27888 27.9629 4.77529 28.4593C5.27169 28.9557 5.94497 29.2346 6.64699 29.2346H12.4524C12.6638 29.2346 12.8364 29.0694 12.8732 28.8613C12.8872 28.7819 12.9041 28.7022 12.9239 28.6223L13.5856 25.9788C13.8327 24.9869 14.3451 24.081 15.068 23.3583L23.5913 14.8349C23.9837 14.4416 24.4382 14.1164 24.9359 13.8721C25.0797 13.8015 25.1759 13.6581 25.1759 13.4979V5.41165C25.1759 4.70963 24.8971 4.03636 24.4007 3.53995C23.9042 3.04354 23.231 2.76466 22.5289 2.76466H22.0466C21.8257 2.76466 21.6466 2.58558 21.6466 2.36466V1.88233C21.6466 1.64832 21.5537 1.4239 21.3882 1.25843C21.2227 1.09296 20.9983 1 20.7643 1C20.5303 1 20.3059 1.09296 20.1404 1.25843C19.9749 1.4239 19.882 1.64832 19.882 1.88233V2.36466C19.882 2.58558 19.7029 2.76466 19.482 2.76466H15.8703C15.6494 2.76466 15.4703 2.58558 15.4703 2.36466V1.88233C15.4703 1.64832 15.3773 1.4239 15.2119 1.25843C15.0464 1.09296 14.822 1 14.588 1C14.354 1 14.1295 1.09296 13.9641 1.25843C13.7986 1.4239 13.7056 1.64832 13.7056 1.88233V2.36466C13.7056 2.58558 13.5266 2.76466 13.3056 2.76466H9.69399C9.47307 2.76466 9.29399 2.58558 9.29399 2.36466V1.88233ZM10.1763 9.82331H18.9996C19.2336 9.82331 19.4581 9.91627 19.6235 10.0817C19.789 10.2472 19.882 10.4716 19.882 10.7056C19.882 10.9396 19.789 11.1641 19.6235 11.3295C19.4581 11.495 19.2336 11.588 18.9996 11.588H10.1763C9.94231 11.588 9.71788 11.495 9.55241 11.3295C9.38695 11.1641 9.29399 10.9396 9.29399 10.7056C9.29399 10.4716 9.38695 10.2472 9.55241 10.0817C9.71788 9.91627 9.94231 9.82331 10.1763 9.82331ZM19.882 15.9996C19.882 16.2336 19.789 16.4581 19.6235 16.6235C19.4581 16.789 19.2336 16.882 18.9996 16.882H10.1763C9.94231 16.882 9.71788 16.789 9.55241 16.6235C9.38695 16.4581 9.29399 16.2336 9.29399 15.9996C9.29399 15.7656 9.38695 15.5412 9.55241 15.3757C9.71788 15.2103 9.94231 15.1173 10.1763 15.1173H18.9996C19.2336 15.1173 19.4581 15.2103 19.6235 15.3757C19.789 15.5412 19.882 15.7656 19.882 15.9996ZM10.1763 20.4113H13.7056C13.9396 20.4113 14.1641 20.5042 14.3295 20.6697C14.495 20.8352 14.588 21.0596 14.588 21.2936C14.588 21.5276 14.495 21.752 14.3295 21.9175C14.1641 22.083 13.9396 22.1759 13.7056 22.1759H10.1763C9.94231 22.1759 9.71788 22.083 9.55241 21.9175C9.38695 21.752 9.29399 21.5276 9.29399 21.2936C9.29399 21.0596 9.38695 20.8352 9.55241 20.6697C9.71788 20.5042 9.94231 20.4113 10.1763 20.4113Z" fill="url(#paint0_linear_101_91)"/>
<path d="M16.3173 24.6078L24.8407 16.0845H24.8389C25.4592 15.4734 26.296 15.1323 27.1667 15.1355C28.0375 15.1387 28.8717 15.486 29.4875 16.1016C30.1034 16.7172 30.4509 17.5513 30.4545 18.422C30.458 19.2928 30.1172 20.1296 29.5064 20.7502L20.9831 29.2735C20.4867 29.7705 19.8645 30.1231 19.1831 30.2935L16.5397 30.9535C16.2768 31.019 16.0015 31.0154 15.7405 30.9431C15.4794 30.8707 15.2415 30.7321 15.0499 30.5406C14.8582 30.3492 14.7194 30.1114 14.6468 29.8504C14.5742 29.5894 14.5704 29.3141 14.6356 29.0512L15.2974 26.4077C15.468 25.7264 15.8206 25.1043 16.3173 24.6078Z" fill="url(#paint1_linear_101_91)"/>
<defs>
<linearGradient id="paint0_linear_101_91" x1="14.588" y1="29.2346" x2="14.588" y2="1" gradientUnits="userSpaceOnUse">
<stop stop-color="#FDA700"/>
<stop offset="1" stop-color="#FFDE00"/>
</linearGradient>
<linearGradient id="paint1_linear_101_91" x1="22.5219" y1="31.0001" x2="22.5219" y2="15.1355" gradientUnits="userSpaceOnUse">
<stop stop-color="#FDA700"/>
<stop offset="1" stop-color="#FFDE00"/>
</linearGradient>
</defs>
</svg>
