<svg width="24" height="24" viewBox="0 0 24 24" fill="none" xmlns="http://www.w3.org/2000/svg">
<path opacity="0.4" d="M2.10596 7.59604C2.10596 4.48711 2.10596 2.93154 3.07228 1.96632C4.0375 1 5.59307 1 8.702 1H15.298C18.4069 1 19.9625 1 20.9277 1.96632C21.8941 2.93154 21.8941 4.48711 21.8941 7.59604V16.3908C21.8941 19.4997 21.8941 21.0553 20.9277 22.0205C19.9625 22.9868 18.4069 22.9868 15.298 22.9868H8.702C5.59307 22.9868 4.0375 22.9868 3.07228 22.0205C2.10596 21.0553 2.10596 19.4997 2.10596 16.3908V7.59604Z" fill="url(#paint0_linear_297_152)"/>
<path fill-rule="evenodd" clip-rule="evenodd" d="M8.42709 1.01318V23H6.77808V1.01318H8.42709Z" fill="url(#paint1_linear_297_152)"/>
<path d="M12.5667 17.9932C12.1995 17.9932 11.8473 17.8472 11.5877 17.5876C11.328 17.328 11.1821 16.9757 11.1821 16.6086V7.37777C11.1821 7.0105 11.328 6.65835 11.5877 6.39872C11.8473 6.13893 12.1995 5.99316 12.5667 5.99316C12.934 5.99316 13.2861 6.13893 13.5458 6.39872C13.8055 6.65835 13.9514 7.0105 13.9514 7.37777V16.6086C13.9514 16.9757 13.8055 17.328 13.5458 17.5876C13.2861 17.8472 12.934 17.9932 12.5667 17.9932ZM19.0283 17.9932C18.6611 17.9932 18.3089 17.8472 18.0492 17.5876C17.7896 17.328 17.6437 16.9757 17.6437 16.6086V7.37777C17.6437 7.0105 17.7896 6.65835 18.0492 6.39872C18.3089 6.13893 18.6611 5.99316 19.0283 5.99316C19.3955 5.99316 19.7476 6.13893 20.0074 6.39872C20.267 6.65835 20.413 7.0105 20.413 7.37777V16.6086C20.413 16.9757 20.267 17.328 20.0074 17.5876C19.7476 17.8472 19.3955 17.9932 19.0283 17.9932Z" fill="url(#paint2_linear_297_152)"/>
<defs>
<linearGradient id="paint0_linear_297_152" x1="12" y1="22.9868" x2="12" y2="1" gradientUnits="userSpaceOnUse">
<stop stop-color="#5570FF"/>
<stop offset="1" stop-color="#4DD3FF"/>
</linearGradient>
<linearGradient id="paint1_linear_297_152" x1="4.30466" y1="23" x2="4.30466" y2="1.01318" gradientUnits="userSpaceOnUse">
<stop stop-color="#5570FF"/>
<stop offset="1" stop-color="#4DD3FF"/>
</linearGradient>
<linearGradient id="paint2_linear_297_152" x1="15.7976" y1="17.9932" x2="15.7976" y2="5.99316" gradientUnits="userSpaceOnUse">
<stop stop-color="#5570FF"/>
<stop offset="1" stop-color="#4DD3FF"/>
</linearGradient>
</defs>
</svg>
