<svg width="24" height="24" viewBox="0 0 24 24" fill="none" xmlns="http://www.w3.org/2000/svg">
<path opacity="0.4" d="M16.7145 20.5999C20.1861 20.5999 22.9998 17.8191 22.9998 14.3882C22.9998 11.669 21.2321 9.35795 18.7704 8.51646C18.4206 5.41338 15.7564 3 12.5235 3C9.05194 3 6.23816 5.78078 6.23816 9.21165C6.23816 9.97065 6.37566 10.6966 6.62756 11.3698C6.32674 11.3114 6.02101 11.2819 5.71456 11.2818C3.11088 11.2829 1 13.3685 1 15.9414C1 18.5143 3.11088 20.5999 5.71456 20.5999H16.7145Z" fill="url(#paint0_linear_128_111)"/>
<path d="M17.3333 13.0061C17.3333 13.322 17.2386 13.6391 17.0492 13.8931C17.0137 13.9429 16.848 14.1482 16.7178 14.2819L16.6468 14.3548C15.6525 15.4617 13.1785 17.1264 11.9238 17.6598C11.9238 17.6719 11.178 17.9891 10.8229 18H10.7756C10.2311 18 9.72206 17.6853 9.46165 17.175C9.3196 16.8943 9.18939 16.0802 9.17756 16.0693C9.07102 15.339 9 14.2211 9 12.9939C9 11.7072 9.07102 10.5395 9.20123 9.8226C9.20123 9.81045 9.33144 9.15431 9.4143 8.9356C9.54451 8.6209 9.78125 8.35237 10.0772 8.18226C10.3139 8.06197 10.5625 8 10.8229 8C11.0952 8.01337 11.6042 8.19441 11.8054 8.27947C13.1312 8.81409 15.6643 10.5638 16.6349 11.633C16.8007 11.8032 16.9782 12.0109 17.0256 12.0583C17.2268 12.3256 17.3333 12.6537 17.3333 13.0061" fill="url(#paint1_linear_128_111)"/>
<defs>
<linearGradient id="paint0_linear_128_111" x1="11.9999" y1="20.5999" x2="11.9999" y2="3" gradientUnits="userSpaceOnUse">
<stop stop-color="#FD5900"/>
<stop offset="1" stop-color="#FFDE00"/>
</linearGradient>
<linearGradient id="paint1_linear_128_111" x1="13.1667" y1="18" x2="13.1667" y2="8" gradientUnits="userSpaceOnUse">
<stop stop-color="#FD2E00"/>
<stop offset="1" stop-color="#FFBB55"/>
</linearGradient>
</defs>
</svg>
