<svg width="64" height="64" viewBox="0 0 64 64" fill="none" xmlns="http://www.w3.org/2000/svg">
<path opacity="0.4" d="M35.7731 2.00217C35.5783 2.01195 35.3876 2.0675 35.2143 2.16744L16.605 12.9069C16.3674 13.0438 16.1724 13.2569 16.0526 13.5215C16.0522 13.5224 16.052 13.5234 16.052 13.5244V13.5244C16.052 13.5254 16.0518 13.5265 16.0513 13.5275L16.04 13.55L9.12576 28.9711C8.96401 29.3324 8.95751 29.7533 9.11076 30.119L19.9224 55.919L20.0635 56.2585C20.2215 56.6363 20.5279 56.9096 20.8899 57.0218L37.0983 61.9468C37.3944 62.0364 37.7088 62.0125 37.9908 61.8776C38.2741 61.7426 38.5068 61.5035 38.6398 61.1955L41.4999 54.547C41.5003 54.5461 41.5005 54.5451 41.5005 54.5441V54.5441C41.5005 54.5431 41.5007 54.5422 41.5011 54.5413C41.5463 54.4374 41.5799 54.3251 41.5996 54.212L47.4409 18.6748C47.441 18.6739 47.4418 18.6732 47.4427 18.6732V18.6732C47.4436 18.6732 47.4444 18.6726 47.4445 18.6717C47.4585 18.586 47.4636 18.499 47.4624 18.4117C47.4575 18.1286 47.3708 17.857 47.2159 17.6305L36.885 2.56709C36.6788 2.26655 36.374 2.0707 36.0376 2.01419C35.9503 1.99975 35.8614 1.99755 35.7731 2.00217Z" fill="url(#paint0_linear_60_406)"/>
<path d="M34.437 9.50162C34.2909 9.50896 34.1479 9.55063 34.0179 9.62558L20.0609 17.6802C19.8827 17.7828 19.7365 17.9427 19.6467 18.1411C19.6463 18.1418 19.6462 18.1425 19.6462 18.1433V18.1433C19.6462 18.1441 19.646 18.1449 19.6456 18.1456L19.6372 18.1625L14.4515 29.7283C14.3302 29.9993 14.3253 30.3149 14.4403 30.5893L22.549 49.9393L22.6548 50.1939C22.7733 50.4772 23.0031 50.6822 23.2746 50.7663L35.4309 54.4601C35.653 54.5273 35.8888 54.5094 36.1003 54.4082C36.3128 54.307 36.4873 54.1276 36.587 53.8966L38.7321 48.9103C38.7324 48.9096 38.7326 48.9088 38.7326 48.9081V48.9081C38.7326 48.9074 38.7327 48.9066 38.733 48.9059C38.7669 48.828 38.7921 48.7438 38.8069 48.659L43.1878 22.0061C43.188 22.0054 43.1885 22.0049 43.1892 22.0049V22.0049C43.1899 22.0049 43.1905 22.0044 43.1906 22.0038C43.201 21.9395 43.2049 21.8742 43.204 21.8088C43.2003 21.5965 43.1353 21.3927 43.0191 21.2229L35.2709 9.92532C35.1163 9.69991 34.8877 9.55303 34.6354 9.51064C34.5699 9.49981 34.5032 9.49816 34.437 9.50162Z" fill="url(#paint1_linear_60_406)"/>
<path d="M49.7142 48.0714C52.0811 48.0714 53.9999 46.1526 53.9999 43.7857C53.9999 41.4188 52.0811 39.5 49.7142 39.5C47.3472 39.5 45.4285 41.4188 45.4285 43.7857C45.4285 46.1526 47.3472 48.0714 49.7142 48.0714Z" fill="url(#paint2_linear_60_406)"/>
<path d="M12.2144 41.6429C13.3979 41.6429 14.3572 40.6835 14.3572 39.5C14.3572 38.3166 13.3979 37.3572 12.2144 37.3572C11.0309 37.3572 10.0715 38.3166 10.0715 39.5C10.0715 40.6835 11.0309 41.6429 12.2144 41.6429Z" fill="url(#paint3_linear_60_406)"/>
<path d="M18.6429 13.7857C21.0098 13.7857 22.9286 11.8669 22.9286 9.49995C22.9286 7.13301 21.0098 5.21423 18.6429 5.21423C16.276 5.21423 14.3572 7.13301 14.3572 9.49995C14.3572 11.8669 16.276 13.7857 18.6429 13.7857Z" fill="url(#paint4_linear_60_406)"/>
<defs>
<linearGradient id="paint0_linear_60_406" x1="34.625" y1="64.5" x2="35.25" y2="-1.12501" gradientUnits="userSpaceOnUse">
<stop offset="0.484375" stop-color="#7A00D9"/>
<stop offset="1" stop-color="#FF81FF"/>
</linearGradient>
<linearGradient id="paint1_linear_60_406" x1="33.5759" y1="56.375" x2="34.0447" y2="7.15624" gradientUnits="userSpaceOnUse">
<stop offset="0.484375" stop-color="#7A00D9"/>
<stop offset="1" stop-color="#FF81FF"/>
</linearGradient>
<linearGradient id="paint2_linear_60_406" x1="45.4298" y1="43.6587" x2="54.0013" y2="43.6587" gradientUnits="userSpaceOnUse">
<stop stop-color="#A93AFF"/>
<stop offset="1" stop-color="#FF81FF"/>
</linearGradient>
<linearGradient id="paint3_linear_60_406" x1="10.0722" y1="39.4365" x2="14.358" y2="39.4365" gradientUnits="userSpaceOnUse">
<stop stop-color="#A93AFF"/>
<stop offset="1" stop-color="#FF81FF"/>
</linearGradient>
<linearGradient id="paint4_linear_60_406" x1="14.3585" y1="9.37295" x2="22.93" y2="9.37295" gradientUnits="userSpaceOnUse">
<stop stop-color="#A93AFF"/>
<stop offset="1" stop-color="#FF81FF"/>
</linearGradient>
</defs>
</svg>
