<svg width="64" height="64" viewBox="0 0 64 64" fill="none" xmlns="http://www.w3.org/2000/svg">
<path opacity="0.4" d="M11 25.0003L11 49.5006C11 56.5007 11 59.9993 16.2501 60C21.5001 60.0007 21.5001 56.5007 21.5001 49.5006C21.5001 56.5007 21.5001 60.0007 26.7502 60C32.0003 59.9993 32.0003 56.5007 32.0003 49.5006C32.0003 56.5007 32.0003 59.9993 37.2503 60C42.5004 60.0007 42.5004 56.5007 42.5004 49.5006C42.5004 56.5007 42.5004 59.9993 47.7505 60C53.0005 60.0007 53.0005 56.5007 53.0005 49.5006V25.0038C53.0005 25.0018 52.999 25.0003 52.997 25.0003V25.0003C52.9951 25.0003 52.9935 24.9987 52.9935 24.9968C52.9998 14.4985 49.4985 4.0007 32.0003 4C14.5001 3.9993 11 14.5008 11 25.0003Z" fill="url(#paint0_linear_218_70)"/>
<path d="M28.5006 26.7506C28.5006 23.842 26.1591 21.5005 23.2506 21.5005C20.342 21.5005 18.0005 23.842 18.0005 26.7506C18.0005 29.6591 20.342 32.0006 23.2506 32.0006C26.1591 32.0006 28.5006 29.6591 28.5006 26.7506Z" fill="url(#paint1_linear_218_70)"/>
<path d="M49.5009 26.7506C49.5009 23.842 47.1594 21.5005 44.2508 21.5005C41.3423 21.5005 39.0007 23.842 39.0007 26.7506C39.0007 29.6591 41.3423 32.0006 44.2508 32.0006C47.1594 32.0006 49.5009 29.6591 49.5009 26.7506Z" fill="url(#paint2_linear_218_70)"/>
<defs>
<linearGradient id="paint0_linear_218_70" x1="32.0003" y1="60" x2="32.0003" y2="4" gradientUnits="userSpaceOnUse">
<stop stop-color="#FD3A84"/>
<stop offset="1" stop-color="#FFA68D"/>
</linearGradient>
<linearGradient id="paint1_linear_218_70" x1="48.6124" y1="26.7506" x2="34.9633" y2="11.9384" gradientUnits="userSpaceOnUse">
<stop stop-color="#FE7970"/>
<stop offset="1" stop-color="#DC3282"/>
</linearGradient>
<linearGradient id="paint2_linear_218_70" x1="48.6124" y1="26.7506" x2="34.9633" y2="11.9384" gradientUnits="userSpaceOnUse">
<stop stop-color="#FE7970"/>
<stop offset="1" stop-color="#DC3282"/>
</linearGradient>
</defs>
</svg>
