<svg width="512" height="512" viewBox="0 0 512 512" fill="none" xmlns="http://www.w3.org/2000/svg">
<path opacity="0.7" d="M217.074 310C207.578 310 198.837 315.177 194.274 323.505L130.706 439.505C121.211 456.832 133.748 478 153.506 478H413.926C423.422 478 432.163 472.823 436.726 464.495L500.294 348.495C509.789 331.168 497.252 310 477.494 310H217.074Z" fill="url(#paint0_linear_54_1316)"/>
<path opacity="0.4" d="M171.328 82.0438C160.68 65.1674 135.776 66.0809 126.393 83.6918L7.26763 307.275C2.93176 315.413 3.2305 325.239 8.0527 333.098L72.6013 438.302C83.075 455.372 108.104 454.69 117.632 437.074L238.57 213.466C243.04 205.202 242.704 195.169 237.69 187.223L171.328 82.0438Z" fill="url(#paint1_linear_54_1316)"/>
<path d="M203.654 34C183.083 34 170.659 56.7566 181.783 74.0599L318.072 286.06C322.856 293.502 331.096 298 339.943 298H465.346C485.917 298 498.341 275.243 487.217 257.94L350.928 45.9401C346.144 38.4984 337.904 34 329.057 34H203.654Z" fill="url(#paint2_linear_54_1316)"/>
<defs>
<linearGradient id="paint0_linear_54_1316" x1="315.5" y1="460" x2="315.5" y2="328" gradientUnits="userSpaceOnUse">
<stop stop-color="#5570FF"/>
<stop offset="1" stop-color="#4DD3FF"/>
</linearGradient>
<linearGradient id="paint1_linear_54_1316" x1="117.61" y1="80.9329" x2="128.356" y2="439.721" gradientUnits="userSpaceOnUse">
<stop stop-color="#97EB0E"/>
<stop offset="1" stop-color="#19B90B"/>
</linearGradient>
<linearGradient id="paint2_linear_54_1316" x1="334.5" y1="280" x2="334.5" y2="52" gradientUnits="userSpaceOnUse">
<stop stop-color="#FDA700"/>
<stop offset="1" stop-color="#FFDE00"/>
</linearGradient>
</defs>
</svg>
