<svg width="24" height="24" viewBox="0 0 24 24" fill="none" xmlns="http://www.w3.org/2000/svg">
<path opacity="0.4" d="M1 9.78855C1 5.64585 1 3.57395 2.28752 2.28752C3.57395 1 5.64585 1 9.78855 1H11.9857C16.1284 1 18.2003 1 19.4867 2.28752C20.7742 3.57395 20.7742 5.64585 20.7742 9.78855V14.1828C20.7742 18.3255 20.7742 20.3974 19.4867 21.6838C18.2003 22.9714 16.1284 22.9714 11.9857 22.9714H9.78855C5.64585 22.9714 3.57395 22.9714 2.28752 21.6838C1 20.3974 1 18.3255 1 14.1828V9.78855Z" fill="url(#paint0_linear_228_261)"/>
<path d="M15.8516 16.9305C16.0438 16.7811 16.2185 16.6064 16.5668 16.2582L20.9138 11.91C21.0193 11.8057 20.9709 11.6244 20.8314 11.575C20.1512 11.3379 19.5336 10.9495 19.0253 10.439C18.5149 9.9308 18.1265 9.31327 17.8894 8.63304C17.84 8.49352 17.6587 8.44519 17.5544 8.55065L13.2051 12.8976C12.8569 13.2459 12.6822 13.4206 12.5328 13.6128C12.3559 13.8402 12.2032 14.0852 12.0802 14.3445C11.9758 14.5642 11.8978 14.7993 11.7418 15.2673L11.5397 15.8715L11.2189 16.8327L10.919 17.7335C10.8816 17.8465 10.8763 17.9675 10.9038 18.0833C10.9312 18.199 10.9903 18.3048 11.0744 18.3889C11.1585 18.473 11.2643 18.5321 11.38 18.5595C11.4958 18.587 11.6168 18.5817 11.7298 18.5443L12.6306 18.2444L13.5918 17.9236L14.196 17.7215C14.664 17.5655 14.8991 17.4886 15.1188 17.3831C15.3781 17.259 15.6253 17.1085 15.8516 16.9305ZM22.2749 10.5489C22.5018 10.3297 22.6827 10.0675 22.8072 9.77773C22.9317 9.48788 22.9972 9.17614 22.9999 8.8607C23.0027 8.54525 22.9426 8.23242 22.8232 7.94045C22.7037 7.64848 22.5274 7.38321 22.3043 7.16011C22.0813 6.93702 21.8161 6.76056 21.5242 6.64103C21.2322 6.52151 20.9194 6.46131 20.604 6.46395C20.2885 6.46658 19.9768 6.532 19.6869 6.65639C19.397 6.78077 19.1348 6.96163 18.9155 7.18842L18.776 7.32904C18.7095 7.39461 18.6599 7.47538 18.6316 7.56438C18.6033 7.65337 18.597 7.74793 18.6134 7.83988C18.6354 7.95742 18.6738 8.131 18.7452 8.33643C18.888 8.74839 19.1583 9.28889 19.6669 9.79753C20.0777 10.2116 20.5774 10.5268 21.128 10.7192C21.3345 10.7906 21.507 10.829 21.6246 10.851C21.7165 10.8673 21.811 10.861 21.9 10.8327C21.989 10.8044 22.0698 10.7549 22.1354 10.6884L22.2749 10.5489Z" fill="url(#paint1_linear_228_261)"/>
<path fill-rule="evenodd" clip-rule="evenodd" d="M5.66895 8.69014C5.66895 8.47162 5.75575 8.26205 5.91027 8.10753C6.06478 7.95302 6.27435 7.86621 6.49287 7.86621H13.6336C13.8521 7.86621 14.0617 7.95302 14.2162 8.10753C14.3707 8.26205 14.4575 8.47162 14.4575 8.69014C14.4575 8.90865 14.3707 9.11822 14.2162 9.27274C14.0617 9.42726 13.8521 9.51406 13.6336 9.51406H6.49287C6.27435 9.51406 6.06478 9.42726 5.91027 9.27274C5.75575 9.11822 5.66895 8.90865 5.66895 8.69014ZM5.66895 13.0844C5.66895 12.8659 5.75575 12.6563 5.91027 12.5018C6.06478 12.3473 6.27435 12.2605 6.49287 12.2605H9.78858C10.0071 12.2605 10.2167 12.3473 10.3712 12.5018C10.5257 12.6563 10.6125 12.8659 10.6125 13.0844C10.6125 13.3029 10.5257 13.5125 10.3712 13.667C10.2167 13.8215 10.0071 13.9083 9.78858 13.9083H6.49287C6.27435 13.9083 6.06478 13.8215 5.91027 13.667C5.75575 13.5125 5.66895 13.3029 5.66895 13.0844ZM5.66895 17.4787C5.66895 17.2601 5.75575 17.0506 5.91027 16.8961C6.06478 16.7415 6.27435 16.6547 6.49287 16.6547H8.14072C8.35924 16.6547 8.5688 16.7415 8.72332 16.8961C8.87783 17.0506 8.96465 17.2601 8.96465 17.4787C8.96465 17.6972 8.87783 17.9068 8.72332 18.0613C8.5688 18.2158 8.35924 18.3026 8.14072 18.3026H6.49287C6.27435 18.3026 6.06478 18.2158 5.91027 18.0613C5.75575 17.9068 5.66895 17.6972 5.66895 17.4787Z" fill="url(#paint2_linear_228_261)"/>
<defs>
<linearGradient id="paint0_linear_228_261" x1="3.89588" y1="19.7537" x2="19.3461" y2="5.84856" gradientUnits="userSpaceOnUse">
<stop stop-color="#0072FF"/>
<stop offset="1" stop-color="#00E5A1"/>
</linearGradient>
<linearGradient id="paint1_linear_228_261" x1="12.6605" y1="16.803" x2="21.2257" y2="8.23742" gradientUnits="userSpaceOnUse">
<stop stop-color="#0072FF"/>
<stop offset="1" stop-color="#00E5A1"/>
</linearGradient>
<linearGradient id="paint2_linear_228_261" x1="6.956" y1="16.7742" x2="14.228" y2="10.6505" gradientUnits="userSpaceOnUse">
<stop stop-color="#0072FF"/>
<stop offset="1" stop-color="#00E5A1"/>
</linearGradient>
</defs>
</svg>
