<svg width="64" height="64" viewBox="0 0 64 64" fill="none" xmlns="http://www.w3.org/2000/svg">
<path opacity="0.4" fill-rule="evenodd" clip-rule="evenodd" d="M59 13.15V51.85C59 54.6105 57.734 56.6755 56.0197 58.0255C54.3326 59.354 52.2057 60 50.375 60H13.625C11.7943 60 9.66741 59.354 7.98029 58.0255C6.26602 56.6755 5 54.6105 5 51.85V13.15C5 10.3895 6.26602 8.32447 7.98029 6.97454C9.66741 5.646 11.7943 5 13.625 5H50.375C52.2057 5 54.3326 5.646 56.0197 6.97454C57.734 8.32447 59 10.3895 59 13.15Z" fill="url(#paint0_linear_36_201)"/>
<path d="M58.9802 43.1513C58.4917 43.5613 57.9885 43.9613 57.4663 44.3358L57.4623 44.3387C55.5303 45.7104 53.5855 46.625 51.6294 47.0476L51.6241 47.0488C49.6226 47.4698 47.7889 47.3572 46.187 46.614C44.6094 45.8822 43.3886 44.6743 42.5199 43.0469C41.6594 41.4347 41.1731 39.4919 41.0205 37.2555L41.0197 37.2437L41.0192 37.2319C40.9169 34.9315 41.2236 32.4312 41.9208 29.7401C42.5717 27.0398 43.5476 24.4413 44.847 21.9445L44.8504 21.938C46.1904 19.4091 47.6848 17.1421 49.3357 15.1427L49.3373 15.1407C50.6502 13.5589 54 10 57 8L58.8868 11.7742C58.6669 11.8989 58.452 12.0285 58.2394 12.1701L58.2327 12.1746C56.9134 13.0382 55.6207 14.1866 54.3589 15.6338C53.1485 17.0292 52.0226 18.669 50.9826 20.5583L50.9774 20.5677C49.948 22.3912 49.1523 24.3066 48.5912 26.3157C48.0279 28.3327 47.7543 30.184 47.7543 31.873C47.7543 33.5238 47.9836 34.895 48.4107 36.0119C48.8811 37.1161 49.5156 37.8863 50.2877 38.3878C51.0282 38.8687 51.9762 39.0877 53.2095 38.9602C54.3792 38.8343 55.6398 38.3708 56.9948 37.5151C57.3436 37.2825 57.6893 37.0306 58.0321 36.7636L58.9802 36.0253V43.1513Z" fill="url(#paint1_linear_36_201)"/>
<path d="M16 5V22.4958C16 24.2294 18.0552 25.142 19.3412 23.9794L22.3324 21.2753C22.7133 20.9309 23.2932 20.931 23.674 21.2756L26.6581 23.9759C27.9439 25.1394 30 24.227 30 22.4929V5H16Z" fill="url(#paint2_linear_36_201)"/>
<defs>
<linearGradient id="paint0_linear_36_201" x1="32" y1="59" x2="32" y2="6" gradientUnits="userSpaceOnUse">
<stop stop-color="#5558FF"/>
<stop offset="1" stop-color="#00C0FF"/>
</linearGradient>
<linearGradient id="paint1_linear_36_201" x1="38.9802" y1="58" x2="38.9802" y2="5.00001" gradientUnits="userSpaceOnUse">
<stop stop-color="#5558FF"/>
<stop offset="1" stop-color="#00C0FF"/>
</linearGradient>
<linearGradient id="paint2_linear_36_201" x1="23" y1="27" x2="23" y2="5" gradientUnits="userSpaceOnUse">
<stop stop-color="#5570FF"/>
<stop offset="1" stop-color="#4DD3FF"/>
</linearGradient>
</defs>
</svg>
