<svg width="16" height="16" viewBox="0 0 16 16" fill="none" xmlns="http://www.w3.org/2000/svg">
<path opacity="0.4" fill-rule="evenodd" clip-rule="evenodd" d="M10.5053 4.03547C11.2561 3.62413 12.1213 3.42915 13.0229 3.52333C13.5941 3.58325 14.1308 3.7545 14.6163 4.01284L14.6277 4.01894C14.6277 4.01894 14.6303 4.02056 14.6334 4.02225C14.6479 4.03023 14.6858 4.0511 14.7126 4.06692C14.9232 4.18781 14.9994 4.39861 15 4.56747L15 4.56913C15 4.67796 14.9699 4.81851 14.87 4.94174C14.7555 5.08293 14.5716 5.1683 14.3694 5.14384C14.3447 5.14095 14.3186 5.13675 14.3041 5.1344C14.297 5.13324 14.2911 5.13229 14.2861 5.13148C14.2763 5.12987 14.27 5.12884 14.2641 5.12797L14.2513 5.12608C14.1868 5.11483 14.121 5.10548 14.0545 5.09842C12.7945 4.96714 11.6813 5.35437 10.9616 6.27662L10.9519 6.28903L10.9414 6.30079C10.8936 6.35474 10.7567 6.49299 10.5315 6.49977C10.2941 6.50692 10.1459 6.36472 10.0893 6.29998L10.082 6.29152L10.075 6.28274C9.51317 5.57816 8.70086 5.24078 7.68127 5.13398C7.3414 5.09828 7.00771 5.11695 6.688 5.18265L6.68069 5.18415L6.62586 5.19373H6.60293C6.59379 5.19428 6.58297 5.1947 6.5709 5.1947C6.20509 5.1947 6 4.88237 6 4.61581C6 4.44171 6.07736 4.2815 6.2027 4.17431L6.23041 4.15061L6.2602 4.13185L6.26885 4.12627C6.2744 4.12274 6.28654 4.11503 6.30248 4.10615C7.07378 3.66115 7.97067 3.44572 8.90816 3.54398M10.5053 4.03547C10.0186 3.77516 9.4805 3.60393 8.90816 3.54398Z" fill="url(#paint0_linear_323_121)"/>
<path fill-rule="evenodd" clip-rule="evenodd" d="M11.8877 8C10.3197 8 8.86787 8.52269 7.68142 9.41215C6.77553 8.98434 5.77164 8.74653 4.71442 8.74653C4.05479 8.74653 3.41586 8.83972 2.8086 9.01334C2.81301 9.03565 2.80397 8.99112 2.8086 9.01334C2.06192 9.26081 1.39156 9.69018 0.783374 10.1494C0.779447 10.1522 0.775898 10.155 0.771907 10.1579C0.741485 10.1843 0.725737 10.2278 0.735477 10.2714C0.748948 10.332 0.806274 10.3695 0.86433 10.3552C0.86649 10.3547 0.964972 10.322 1.01207 10.307C1.17474 10.2537 1.34175 10.2057 1.50995 10.1643C2.02782 10.0368 2.54245 9.93067 3.05146 9.92657C4.67414 9.91369 6.69744 10.6349 7.80892 11.6964C7.81148 11.6996 7.81504 11.7027 7.81837 11.7048C7.83688 11.7229 7.86056 11.7332 7.88786 11.7332C7.92112 11.7332 7.95156 11.717 7.97083 11.6914C7.97136 11.6914 8.0125 11.6299 8.03358 11.5998C9.35412 9.70106 11.5315 8.76562 13.9548 8.76562C14.1275 8.76562 14.3003 8.77194 14.4702 8.78478C14.5193 8.78818 14.6225 8.79684 14.6246 8.79684C14.6843 8.79684 14.7326 8.74619 14.7326 8.68401C14.7326 8.63906 14.7072 8.60084 14.6718 8.58254C14.6673 8.58064 14.6634 8.57868 14.6591 8.57687C13.8057 8.2051 12.8694 8 11.8877 8Z" fill="url(#paint1_linear_323_121)"/>
<path d="M2.8086 9.01334C3.41586 8.83972 4.05479 8.74653 4.71442 8.74653C5.77164 8.74653 6.77553 8.98434 7.68142 9.41215C8.86787 8.52269 10.3197 8 11.8877 8C12.8694 8 13.8057 8.2051 14.6591 8.57687C14.6634 8.57868 14.6673 8.58064 14.6718 8.58254C14.7072 8.60084 14.7326 8.63906 14.7326 8.68401C14.7326 8.74619 14.6843 8.79684 14.6246 8.79684C14.6225 8.79684 14.5193 8.78818 14.4702 8.78478C14.3003 8.77194 14.1275 8.76562 13.9548 8.76562C11.5315 8.76562 9.35412 9.70106 8.03358 11.5998C8.0125 11.6299 7.97136 11.6914 7.97083 11.6914C7.95156 11.717 7.92112 11.7332 7.88786 11.7332C7.86056 11.7332 7.83688 11.7229 7.81837 11.7048C7.81504 11.7027 7.81148 11.6996 7.80892 11.6964C6.69744 10.6349 4.67414 9.91369 3.05146 9.92657C2.54245 9.93067 2.02782 10.0368 1.50995 10.1643C1.34175 10.2057 1.17474 10.2537 1.01207 10.307C0.964972 10.322 0.86649 10.3547 0.86433 10.3552C0.806274 10.3695 0.748948 10.332 0.735477 10.2714C0.725737 10.2278 0.741485 10.1843 0.771907 10.1579C0.775898 10.155 0.779447 10.1522 0.783374 10.1494C1.39156 9.69018 2.06192 9.26081 2.8086 9.01334ZM2.8086 9.01334C2.80397 8.99112 2.81301 9.03565 2.8086 9.01334Z" stroke="url(#paint2_linear_323_121)"/>
<defs>
<linearGradient id="paint0_linear_323_121" x1="10.5" y1="6.00002" x2="10.5" y2="4.00002" gradientUnits="userSpaceOnUse">
<stop stop-color="#5570FF"/>
<stop offset="1" stop-color="#4DD3FF"/>
</linearGradient>
<linearGradient id="paint1_linear_323_121" x1="7.7326" y1="11.7332" x2="7.7326" y2="8" gradientUnits="userSpaceOnUse">
<stop stop-color="#5570FF"/>
<stop offset="1" stop-color="#4DD3FF"/>
</linearGradient>
<linearGradient id="paint2_linear_323_121" x1="7.7326" y1="11.7332" x2="7.7326" y2="8" gradientUnits="userSpaceOnUse">
<stop stop-color="#5570FF"/>
<stop offset="1" stop-color="#4DD3FF"/>
</linearGradient>
</defs>
</svg>
