<svg width="16" height="16" viewBox="0 0 16 16" fill="none" xmlns="http://www.w3.org/2000/svg">
<path opacity="0.4" d="M9.37776 4.88892C9.04639 4.88892 8.77776 5.15755 8.77776 5.48892V5.84447C8.77776 6.17584 9.04639 6.44447 9.37776 6.44447H14.4C14.7314 6.44447 15 6.17584 15 5.84447V5.48892C15 5.15754 14.7314 4.88892 14.4 4.88892H9.37776ZM9.37776 8.00003C9.04639 8.00003 8.77776 8.26866 8.77776 8.60003V8.95558C8.77776 9.28695 9.04639 9.55558 9.37776 9.55558H14.4C14.7314 9.55558 15 9.28695 15 8.95558V8.60003C15 8.26866 14.7314 8.00003 14.4 8.00003H9.37776ZM3.15554 11.1111C2.82417 11.1111 2.55554 11.3798 2.55554 11.7111V12.0667C2.55554 12.3981 2.82417 12.6667 3.15554 12.6667H11.2889C11.6202 12.6667 11.8889 12.3981 11.8889 12.0667V11.7111C11.8889 11.3798 11.6202 11.1111 11.2889 11.1111H3.15554Z" fill="url(#paint0_linear_298_323)"/>
<path d="M1 6.44436C1 4.92764 2.08012 3.66768 3.51457 3.39015C3.83991 3.32721 4.11111 3.60188 4.11111 3.93325V5.84436C4.11111 6.17573 4.37974 6.44436 4.71111 6.44436H6.62222C6.95359 6.44436 7.22827 6.71557 7.16532 7.04091C6.8878 8.4754 5.62784 9.55547 4.11111 9.55547C2.39029 9.55547 1 8.16518 1 6.44436Z" fill="url(#paint1_linear_298_323)"/>
<defs>
<linearGradient id="paint0_linear_298_323" x1="8.77776" y1="12.6667" x2="8.77776" y2="4.88892" gradientUnits="userSpaceOnUse">
<stop stop-color="#FF7111"/>
<stop offset="1" stop-color="#FF7111"/>
</linearGradient>
<linearGradient id="paint1_linear_298_323" x1="4.11111" y1="9.55547" x2="4.11111" y2="3.33325" gradientUnits="userSpaceOnUse">
<stop stop-color="#FF7111"/>
<stop offset="1" stop-color="#FF7111"/>
</linearGradient>
</defs>
</svg>
