<svg width="24" height="24" viewBox="0 0 24 24" fill="none" xmlns="http://www.w3.org/2000/svg">
<path opacity="0.4" d="M23 12C23 18.0753 18.0753 23 12 23C5.9247 23 1 18.0753 1 12C1 5.9247 5.9247 1 12 1C18.0753 1 23 5.9247 23 12Z" fill="url(#paint0_linear_39_193)"/>
<path d="M16.6912 5.13696C15.4182 4.27691 13.842 3.80005 12.0649 3.80005C10.4384 3.80005 8.98232 4.19686 7.77059 4.92407C5.43739 6.30696 4 8.89818 4 12.2183C4 16.7093 7.22475 20.8 12.0632 20.8C16.9007 20.8 20.1255 16.7101 20.1255 12.2183C20.1255 9.06167 18.826 6.56412 16.6912 5.13696ZM12.064 5.38645C14.6595 5.38645 15.2871 8.94756 15.2871 12.1834C15.2871 15.1808 14.8937 19.1915 12.0955 19.1915C9.29653 19.1915 8.835 15.1416 8.835 12.1442C8.835 8.90839 9.46854 5.38645 12.064 5.38645Z" fill="url(#paint1_linear_39_193)"/>
<defs>
<linearGradient id="paint0_linear_39_193" x1="22.2568" y1="1.62882" x2="13.6757" y2="23.1756" gradientUnits="userSpaceOnUse">
<stop stop-color="#FE0F7C"/>
<stop offset="1" stop-color="#DF0066"/>
</linearGradient>
<linearGradient id="paint1_linear_39_193" x1="19.5807" y1="4.28596" x2="12.6953" y2="20.6856" gradientUnits="userSpaceOnUse">
<stop stop-color="#FE0F7C"/>
<stop offset="1" stop-color="#DF0066"/>
</linearGradient>
</defs>
</svg>
