<svg width="24" height="24" viewBox="0 0 24 24" fill="none" xmlns="http://www.w3.org/2000/svg">
<path opacity="0.4" d="M16.4 4H7.6C4.4892 4 2.9327 4 1.9669 4.9669C1 5.9327 1 7.4892 1 10.6V12.8C1 15.9108 1 17.4673 1.9669 18.4331C2.9327 19.4 4.4892 19.4 7.6 19.4H16.4C19.5108 19.4 21.0673 19.4 22.0331 18.4331C23 17.4673 23 15.9108 23 12.8V10.6C23 7.4892 23 5.9327 22.0331 4.9669C21.0673 4 19.5108 4 16.4 4Z" fill="url(#paint0_linear_220_178)"/>
<path d="M5.3998 9.4998C5.69154 9.4998 5.97133 9.38391 6.17762 9.17762C6.38391 8.97133 6.4998 8.69154 6.4998 8.3998C6.4998 8.10806 6.38391 7.82827 6.17762 7.62198C5.97133 7.41569 5.69154 7.2998 5.3998 7.2998C5.10806 7.2998 4.82827 7.41569 4.62198 7.62198C4.41569 7.82827 4.2998 8.10806 4.2998 8.3998C4.2998 8.69154 4.41569 8.97133 4.62198 9.17762C4.82827 9.38391 5.10806 9.4998 5.3998 9.4998ZM5.3998 12.7998C5.69154 12.7998 5.97133 12.6839 6.17762 12.4776C6.38391 12.2713 6.4998 11.9915 6.4998 11.6998C6.4998 11.408 6.38391 11.1283 6.17762 10.922C5.97133 10.7157 5.69154 10.5998 5.3998 10.5998C5.10806 10.5998 4.82827 10.7157 4.62198 10.922C4.41569 11.1283 4.2998 11.408 4.2998 11.6998C4.2998 11.9915 4.41569 12.2713 4.62198 12.4776C4.82827 12.6839 5.10806 12.7998 5.3998 12.7998ZM8.6998 12.7998C8.99154 12.7998 9.27133 12.6839 9.47762 12.4776C9.68391 12.2713 9.7998 11.9915 9.7998 11.6998C9.7998 11.408 9.68391 11.1283 9.47762 10.922C9.27133 10.7157 8.99154 10.5998 8.6998 10.5998C8.40806 10.5998 8.12827 10.7157 7.92198 10.922C7.71569 11.1283 7.5998 11.408 7.5998 11.6998C7.5998 11.9915 7.71569 12.2713 7.92198 12.4776C8.12827 12.6839 8.40806 12.7998 8.6998 12.7998ZM8.6998 9.4998C8.99154 9.4998 9.27133 9.38391 9.47762 9.17762C9.68391 8.97133 9.7998 8.69154 9.7998 8.3998C9.7998 8.10806 9.68391 7.82827 9.47762 7.62198C9.27133 7.41569 8.99154 7.2998 8.6998 7.2998C8.40806 7.2998 8.12827 7.41569 7.92198 7.62198C7.71569 7.82827 7.5998 8.10806 7.5998 8.3998C7.5998 8.69154 7.71569 8.97133 7.92198 9.17762C8.12827 9.38391 8.40806 9.4998 8.6998 9.4998ZM11.9998 9.4998C12.2915 9.4998 12.5713 9.38391 12.7776 9.17762C12.9839 8.97133 13.0998 8.69154 13.0998 8.3998C13.0998 8.10806 12.9839 7.82827 12.7776 7.62198C12.5713 7.41569 12.2915 7.2998 11.9998 7.2998C11.708 7.2998 11.4283 7.41569 11.222 7.62198C11.0157 7.82827 10.8998 8.10806 10.8998 8.3998C10.8998 8.69154 11.0157 8.97133 11.222 9.17762C11.4283 9.38391 11.708 9.4998 11.9998 9.4998ZM11.9998 12.7998C12.2915 12.7998 12.5713 12.6839 12.7776 12.4776C12.9839 12.2713 13.0998 11.9915 13.0998 11.6998C13.0998 11.408 12.9839 11.1283 12.7776 10.922C12.5713 10.7157 12.2915 10.5998 11.9998 10.5998C11.708 10.5998 11.4283 10.7157 11.222 10.922C11.0157 11.1283 10.8998 11.408 10.8998 11.6998C10.8998 11.9915 11.0157 12.2713 11.222 12.4776C11.4283 12.6839 11.708 12.7998 11.9998 12.7998ZM15.2998 9.4998C15.5915 9.4998 15.8713 9.38391 16.0776 9.17762C16.2839 8.97133 16.3998 8.69154 16.3998 8.3998C16.3998 8.10806 16.2839 7.82827 16.0776 7.62198C15.8713 7.41569 15.5915 7.2998 15.2998 7.2998C15.008 7.2998 14.7283 7.41569 14.522 7.62198C14.3157 7.82827 14.1998 8.10806 14.1998 8.3998C14.1998 8.69154 14.3157 8.97133 14.522 9.17762C14.7283 9.38391 15.008 9.4998 15.2998 9.4998ZM15.2998 12.7998C15.5915 12.7998 15.8713 12.6839 16.0776 12.4776C16.2839 12.2713 16.3998 11.9915 16.3998 11.6998C16.3998 11.408 16.2839 11.1283 16.0776 10.922C15.8713 10.7157 15.5915 10.5998 15.2998 10.5998C15.008 10.5998 14.7283 10.7157 14.522 10.922C14.3157 11.1283 14.1998 11.408 14.1998 11.6998C14.1998 11.9915 14.3157 12.2713 14.522 12.4776C14.7283 12.6839 15.008 12.7998 15.2998 12.7998ZM18.5998 9.4998C18.8915 9.4998 19.1713 9.38391 19.3776 9.17762C19.5839 8.97133 19.6998 8.69154 19.6998 8.3998C19.6998 8.10806 19.5839 7.82827 19.3776 7.62198C19.1713 7.41569 18.8915 7.2998 18.5998 7.2998C18.308 7.2998 18.0283 7.41569 17.822 7.62198C17.6157 7.82827 17.4998 8.10806 17.4998 8.3998C17.4998 8.69154 17.6157 8.97133 17.822 9.17762C18.0283 9.38391 18.308 9.4998 18.5998 9.4998ZM18.5998 12.7998C18.8915 12.7998 19.1713 12.6839 19.3776 12.4776C19.5839 12.2713 19.6998 11.9915 19.6998 11.6998C19.6998 11.408 19.5839 11.1283 19.3776 10.922C19.1713 10.7157 18.8915 10.5998 18.5998 10.5998C18.308 10.5998 18.0283 10.7157 17.822 10.922C17.6157 11.1283 17.4998 11.408 17.4998 11.6998C17.4998 11.9915 17.6157 12.2713 17.822 12.4776C18.0283 12.6839 18.308 12.7998 18.5998 12.7998ZM18.3248 16.0998C18.3248 16.3186 18.2379 16.5284 18.0832 16.6832C17.9284 16.8379 17.7186 16.9248 17.4998 16.9248H6.4998C6.28099 16.9248 6.07115 16.8379 5.91643 16.6832C5.76172 16.5284 5.6748 16.3186 5.6748 16.0998C5.6748 15.881 5.76172 15.6711 5.91643 15.5164C6.07115 15.3617 6.28099 15.2748 6.4998 15.2748H17.4998C17.7186 15.2748 17.9284 15.3617 18.0832 15.5164C18.2379 15.6711 18.3248 15.881 18.3248 16.0998Z" fill="url(#paint1_linear_220_178)"/>
<defs>
<linearGradient id="paint0_linear_220_178" x1="12" y1="19.4" x2="12" y2="4" gradientUnits="userSpaceOnUse">
<stop stop-color="#FD5900"/>
<stop offset="1" stop-color="#FFDE00"/>
</linearGradient>
<linearGradient id="paint1_linear_220_178" x1="11.9998" y1="16.9248" x2="11.9998" y2="7.2998" gradientUnits="userSpaceOnUse">
<stop stop-color="#FD5900"/>
<stop offset="1" stop-color="#FFDE00"/>
</linearGradient>
</defs>
</svg>
