<svg width="128" height="128" viewBox="0 0 128 128" fill="none" xmlns="http://www.w3.org/2000/svg">
<path opacity="0.4" d="M16.414 23C13.1217 23.0003 9.96433 24.3083 7.63633 26.6363C5.30833 28.9643 4.00033 32.1217 4 35.414V47.828C4.00211 50.3935 4.79894 52.8953 6.28093 54.9895C7.21469 56.309 8.39155 57.4258 9.73948 58.2854C11.1686 59.1969 12.276 60.6558 12.276 62.3509V80.9319C12.2763 84.2242 13.5843 87.3816 15.9123 89.7096C18.2403 92.0376 21.3977 93.3456 24.69 93.3459H33.1043C35.3133 93.3459 37.0434 95.1814 37.743 97.2767C38.3472 99.0861 39.366 100.749 40.7403 102.124C43.0683 104.452 46.2256 105.76 49.5179 105.76H78.4839C81.7762 105.76 84.9335 104.452 87.2615 102.124C89.2621 100.123 90.5094 97.51 90.8209 94.7252C90.9058 93.9666 91.5166 93.3459 92.2799 93.3459V93.3459C93.3762 93.3452 94.465 93.1993 95.5184 92.914C96.5652 92.6304 97.6768 92.6304 98.7236 92.914C99.7666 93.1966 100.844 93.3424 101.93 93.3459H111.588C113.594 93.3448 115.571 92.8575 117.348 91.9255C119.125 90.9935 120.65 89.6446 121.791 87.9945C122.933 86.3443 123.658 84.442 123.903 82.4505C124.149 80.459 123.908 78.4376 123.202 76.5595L116.754 59.4335C116.409 58.5173 116.412 57.5065 116.763 56.5924L123.177 39.8591C123.898 37.979 124.151 35.9519 123.914 33.9525C123.676 31.953 122.956 30.0413 121.816 28.3821C120.675 26.7228 119.148 25.3659 117.366 24.4283C115.584 23.4907 113.601 23.0005 111.588 23H101.93C100.834 23.0007 99.7447 23.1465 98.6913 23.4319C97.6445 23.7155 96.5329 23.7155 95.4861 23.4319C94.4431 23.1493 93.3653 23.0035 92.2799 23H82.6219C79.3324 23.0046 76.1792 24.3145 73.8547 26.642C72.4833 28.0152 71.4665 29.6763 70.8631 31.4832C70.1635 33.5784 68.4334 35.414 66.2244 35.414H61.7935C59.5845 35.414 57.8545 33.5784 57.1548 31.4832C56.5506 29.6738 55.5318 28.0106 54.1576 26.6363C51.8296 24.3083 48.6722 23.0003 45.3799 23H16.414Z" fill="url(#paint0_linear_206_128)"/>
<path d="M18.4141 35.4141C17.3095 35.4141 16.4141 36.3095 16.4141 37.4141V45.828C16.4141 46.9326 17.3095 47.828 18.4141 47.828H22.69C23.7946 47.828 24.69 48.7235 24.69 49.828V78.932C24.69 80.0366 25.5855 80.932 26.69 80.932H35.104C36.2086 80.932 37.104 80.0366 37.104 78.932V49.828C37.104 48.7235 37.9995 47.828 39.104 47.828H43.38C44.4846 47.828 45.38 46.9326 45.38 45.828V37.4141C45.38 36.3095 44.4846 35.4141 43.38 35.4141H18.4141ZM85.5306 35.4141C84.128 35.4141 83.1611 36.8203 83.6632 38.13L90.9977 57.2613C91.1729 57.7185 91.1744 58.224 91.0018 58.6822L83.6407 78.2271C83.1481 79.535 84.1147 80.932 85.5124 80.932H90.9556C91.7585 80.932 92.4835 80.4519 92.7969 79.7127L95.2636 73.8952C95.9529 72.2695 98.2569 72.2695 98.9463 73.8952L101.413 79.7127C101.726 80.4519 102.451 80.932 103.254 80.932H108.698C110.095 80.932 111.062 79.535 110.569 78.2271L103.208 58.6822C103.035 58.224 103.037 57.7185 103.212 57.2613L110.547 38.13C111.049 36.8203 110.082 35.4141 108.679 35.4141H103.254C102.451 35.4141 101.726 35.8942 101.413 36.6333L98.9463 42.4509C98.2569 44.0766 95.9529 44.0766 95.2636 42.4509L92.7969 36.6333C92.4835 35.8942 91.7585 35.4141 90.9556 35.4141H85.5306ZM51.518 47.828C50.4134 47.828 49.518 48.7235 49.518 49.828V91.346C49.518 92.4505 50.4134 93.346 51.518 93.346H76.484C77.5885 93.346 78.484 92.4505 78.484 91.346V82.932C78.484 81.8274 77.5885 80.932 76.484 80.932H63.932C62.8274 80.932 61.932 80.0366 61.932 78.932V78.794C61.932 77.6894 62.8274 76.794 63.932 76.794H76.484C77.5885 76.794 78.484 75.8986 78.484 74.794V66.38C78.484 65.2754 77.5885 64.38 76.484 64.38H63.932C62.8274 64.38 61.932 63.4846 61.932 62.38V62.242C61.932 61.1375 62.8274 60.242 63.932 60.242H76.484C77.5885 60.242 78.484 59.3466 78.484 58.242V49.828C78.484 48.7235 77.5885 47.828 76.484 47.828H51.518Z" fill="url(#paint1_linear_206_128)"/>
<defs>
<linearGradient id="paint0_linear_206_128" x1="64.3523" y1="122.619" x2="64.3523" y2="30.9052" gradientUnits="userSpaceOnUse">
<stop stop-color="#FDA700"/>
<stop offset="1" stop-color="#FFDE00"/>
</linearGradient>
<linearGradient id="paint1_linear_206_128" x1="64.001" y1="93.346" x2="64.001" y2="35.4141" gradientUnits="userSpaceOnUse">
<stop stop-color="#FD5900"/>
<stop offset="1" stop-color="#FFDE00"/>
</linearGradient>
</defs>
</svg>
