<svg width="48" height="48" viewBox="0 0 48 48" fill="none" xmlns="http://www.w3.org/2000/svg">
<path opacity="0.6" d="M23.9856 45C23.9904 45 23.9952 45 24 45C29.5695 45 34.9109 42.7875 38.8492 38.8492C42.7875 34.911 44.9999 29.5695 44.9999 24C44.9999 21.2422 44.4568 18.5115 43.4014 15.9636C42.3461 13.4158 40.7992 11.1008 38.8492 9.15076C36.8992 7.20073 34.5841 5.65388 32.0363 4.59853C29.4885 3.54318 26.7577 3 24 3C23.9958 3 23.9917 3 23.9876 3L23.9856 45Z" fill="#39FEA0"/>
<path opacity="0.4" d="M23.9856 45L23.9877 3C18.4203 3.00326 13.082 5.2172 9.14641 9.15511C5.2108 13.093 3 18.4326 3 24C3 29.5671 5.21052 34.9063 9.14568 38.8442C13.0808 42.782 18.4186 44.9962 23.9856 45Z" fill="#39FEA0"/>
<path fill-rule="evenodd" clip-rule="evenodd" d="M23.8583 25.262H23.9681H27.181C27.8775 25.262 28.3606 24.5678 28.1188 23.9147L25.3382 16.4062C25.2562 16.1875 25.1187 15.7909 24.9274 15.2169C24.736 14.6428 24.5445 14.0548 24.3532 13.4534V13.4534C24.2417 13.0262 23.673 13.0333 23.5541 13.4585C23.4477 13.8392 23.3413 14.21 23.2483 14.5202C23.0296 15.3129 22.8381 15.9414 22.6741 16.4062L19.8584 23.9107C19.6131 24.5644 20.0963 25.262 20.7946 25.262H23.8583ZM23.8583 8.20625H23.0288C22.6165 8.20625 22.2464 8.45934 22.0969 8.8436L11.4343 36.2436C11.1791 36.8992 11.6627 37.6063 12.3662 37.6063H13.9506C14.3645 37.6063 14.7355 37.3513 14.884 36.9651L17.875 29.1845C18.0234 28.7985 18.3941 28.5436 18.8077 28.5434L23.8563 28.5399C23.8574 28.5399 23.8583 28.5407 23.8583 28.5418V28.5418C23.8583 28.5429 23.8592 28.5438 23.8603 28.5438H29.0414C29.4537 28.5438 29.8238 28.7969 29.9733 29.1811L33.0042 36.9689C33.1537 37.3532 33.5238 37.6063 33.9361 37.6063H35.6048C36.3077 37.6063 36.7913 36.9001 36.5371 36.2447L25.9126 8.84472C25.7633 8.45987 25.393 8.20625 24.9802 8.20625H23.9707H23.8583Z" fill="url(#paint0_linear_288_217)"/>
<defs>
<linearGradient id="paint0_linear_288_217" x1="11.3652" y1="22.9062" x2="36.6057" y2="22.9062" gradientUnits="userSpaceOnUse">
<stop stop-color="#02AA93"/>
<stop offset="1" stop-color="#67FF80"/>
</linearGradient>
</defs>
</svg>
