<svg width="24" height="24" viewBox="0 0 24 24" fill="none" xmlns="http://www.w3.org/2000/svg">
<path opacity="0.5" d="M4 3.22347C4 1.99499 4.99499 1 6.22347 1H18.2032C19.4317 1 20.4267 1.99499 20.4267 3.22347V6.86667C20.4267 7.94526 20.2142 9.01329 19.8015 10.0098C19.3887 11.0063 18.7837 11.9117 18.021 12.6744C17.2584 13.437 16.3529 14.042 15.3564 14.4548C14.36 14.8676 13.2919 15.08 12.2133 15.08C11.1347 15.08 10.0667 14.8676 9.07023 14.4548C8.07374 14.042 7.16831 13.437 6.40563 12.6744C5.64295 11.9117 5.03796 11.0063 4.6252 10.0098C4.21244 9.01329 4 7.94526 4 6.86667V3.22347Z" fill="url(#paint0_linear_127_105)"/>
<path fill-rule="evenodd" clip-rule="evenodd" d="M11.3333 21.2401H7.81333C7.57994 21.2401 7.35611 21.3328 7.19108 21.4979C7.02605 21.6629 6.93333 21.8867 6.93333 22.1201C6.93333 22.3535 7.02605 22.5773 7.19108 22.7424C7.35611 22.9074 7.57994 23.0001 7.81333 23.0001H16.6133C16.8467 23.0001 17.0706 22.9074 17.2356 22.7424C17.4006 22.5773 17.4933 22.3535 17.4933 22.1201C17.4933 21.8867 17.4006 21.6629 17.2356 21.4979C17.0706 21.3328 16.8467 21.2401 16.6133 21.2401H11.3333ZM12.2133 15.0801C14.1823 15.08 16.0858 14.3727 17.5771 13.087C19.0685 11.8013 20.0485 10.0228 20.3387 8.07532C19.867 8.25954 17.6025 9.1149 16.0044 9.20524C14.4474 9.29324 13.3292 8.66668 12.2145 8.04012C11.0975 7.41356 9.98048 6.787 8.42229 6.875C6.81365 6.96652 4.52917 7.83244 4.07861 8.00844C4.35417 9.96983 5.32912 11.7656 6.82391 13.0651C8.31871 14.3645 10.2327 15.0801 12.2133 15.0801Z" fill="url(#paint1_linear_127_105)"/>
<path opacity="0.5" d="M13.0934 15.033C12.5084 15.0952 11.9184 15.0952 11.3334 15.033V21.2399H13.0934V15.033Z" fill="url(#paint2_linear_127_105)"/>
<defs>
<linearGradient id="paint0_linear_127_105" x1="3.99759" y1="7.83138" x2="20.4231" y2="7.83138" gradientUnits="userSpaceOnUse">
<stop stop-color="#FD3A84"/>
<stop offset="1" stop-color="#FFA68D"/>
</linearGradient>
<linearGradient id="paint1_linear_127_105" x1="4.07623" y1="14.6944" x2="20.3351" y2="14.6944" gradientUnits="userSpaceOnUse">
<stop stop-color="#FD3A84"/>
<stop offset="1" stop-color="#FFA68D"/>
</linearGradient>
<linearGradient id="paint2_linear_127_105" x1="11.3331" y1="18.0445" x2="13.093" y2="18.0445" gradientUnits="userSpaceOnUse">
<stop stop-color="#FD3A84"/>
<stop offset="1" stop-color="#FFA68D"/>
</linearGradient>
</defs>
</svg>
