<svg width="24" height="24" viewBox="0 0 24 24" fill="none" xmlns="http://www.w3.org/2000/svg">
<path opacity="0.4" d="M1 6.445C1 5.4737 1 4.9886 1.077 4.5838C1.24115 3.71462 1.66345 2.9151 2.28882 2.28954C2.91418 1.66397 3.71358 1.24142 4.5827 1.077C4.9886 1 5.4748 1 6.445 1C6.8696 1 7.083 1 7.2876 1.0187C8.16875 1.10145 9.00447 1.44801 9.6856 2.0131C9.844 2.144 9.9936 2.2936 10.295 2.595L10.9 3.2C11.7976 4.0976 12.2464 4.5464 12.7832 4.8445C13.0782 5.00894 13.3912 5.13887 13.716 5.2317C14.3078 5.4 14.9425 5.4 16.2108 5.4H16.6222C19.5174 5.4 20.9661 5.4 21.9066 6.247C21.9935 6.324 22.076 6.4065 22.153 6.4934C23 7.4339 23 8.8826 23 11.7778V14.2C23 18.3481 23 20.4227 21.7108 21.7108C20.4227 23 18.3481 23 14.2 23H9.8C5.6519 23 3.5773 23 2.2892 21.7108C1 20.4227 1 18.3481 1 14.2V6.445Z" fill="url(#paint0_linear_8_459)"/>
<path d="M20.7999 5.66178C20.7999 5.33398 20.7944 5.13928 20.7724 4.96878C20.6774 4.24866 20.3475 3.58 19.8338 3.06649C19.3201 2.55298 18.6513 2.2233 17.9311 2.12858C17.7166 2.09998 17.4614 2.09998 16.9499 2.09998H9.78674C9.91434 2.21438 10.0584 2.35738 10.2949 2.59498L10.8999 3.19998C11.7975 4.09758 12.2463 4.54638 12.7831 4.84448C13.0785 5.009 13.3919 5.13892 13.717 5.23168C14.3077 5.39998 14.9424 5.39998 16.2118 5.39998H16.6221C18.5801 5.39998 19.8748 5.39998 20.7999 5.66178Z" fill="url(#paint1_linear_8_459)"/>
<path fill-rule="evenodd" clip-rule="evenodd" d="M13 10.825C13 10.6062 13.0869 10.3964 13.2416 10.2416C13.3964 10.0869 13.6062 10 13.825 10H19.325C19.5438 10 19.7536 10.0869 19.9084 10.2416C20.0631 10.3964 20.15 10.6062 20.15 10.825C20.15 11.0438 20.0631 11.2536 19.9084 11.4084C19.7536 11.5631 19.5438 11.65 19.325 11.65H13.825C13.6062 11.65 13.3964 11.5631 13.2416 11.4084C13.0869 11.2536 13 11.0438 13 10.825Z" fill="url(#paint2_linear_8_459)"/>
<path fill-rule="evenodd" clip-rule="evenodd" d="M9 14.825C9 14.6062 9.08692 14.3964 9.24164 14.2416C9.39635 14.0869 9.6062 14 9.825 14H15.325C15.5438 14 15.7536 14.0869 15.9084 14.2416C16.0631 14.3964 16.15 14.6062 16.15 14.825C16.15 15.0438 16.0631 15.2536 15.9084 15.4084C15.7536 15.5631 15.5438 15.65 15.325 15.65H9.825C9.6062 15.65 9.39635 15.5631 9.24164 15.4084C9.08692 15.2536 9 15.0438 9 14.825Z" fill="url(#paint3_linear_8_459)"/>
<path fill-rule="evenodd" clip-rule="evenodd" d="M3 18.825C3 18.6062 3.08692 18.3964 3.24164 18.2416C3.39635 18.0869 3.6062 18 3.825 18H9.325C9.5438 18 9.75365 18.0869 9.90836 18.2416C10.0631 18.3964 10.15 18.6062 10.15 18.825C10.15 19.0438 10.0631 19.2536 9.90836 19.4084C9.75365 19.5631 9.5438 19.65 9.325 19.65H3.825C3.6062 19.65 3.39635 19.5631 3.24164 19.4084C3.08692 19.2536 3 19.0438 3 18.825Z" fill="url(#paint4_linear_8_459)"/>
<defs>
<linearGradient id="paint0_linear_8_459" x1="12" y1="1" x2="12" y2="23" gradientUnits="userSpaceOnUse">
<stop stop-color="#DC18FC"/>
<stop offset="1" stop-color="#8E1EFF"/>
</linearGradient>
<linearGradient id="paint1_linear_8_459" x1="15.2933" y1="2.09998" x2="15.2933" y2="5.66178" gradientUnits="userSpaceOnUse">
<stop stop-color="#DC18FC"/>
<stop offset="1" stop-color="#8E1EFF"/>
</linearGradient>
<linearGradient id="paint2_linear_8_459" x1="16.575" y1="10" x2="16.575" y2="11.65" gradientUnits="userSpaceOnUse">
<stop stop-color="#DC18FC"/>
<stop offset="1" stop-color="#8E1EFF"/>
</linearGradient>
<linearGradient id="paint3_linear_8_459" x1="12.575" y1="14" x2="12.575" y2="15.65" gradientUnits="userSpaceOnUse">
<stop stop-color="#DC18FC"/>
<stop offset="1" stop-color="#8E1EFF"/>
</linearGradient>
<linearGradient id="paint4_linear_8_459" x1="6.575" y1="18" x2="6.575" y2="19.65" gradientUnits="userSpaceOnUse">
<stop stop-color="#DC18FC"/>
<stop offset="1" stop-color="#8E1EFF"/>
</linearGradient>
</defs>
</svg>
