<svg width="64" height="64" viewBox="0 0 64 64" fill="none" xmlns="http://www.w3.org/2000/svg">
<path opacity="0.4" d="M31.2226 12.5968C34.9332 16.2471 38.5215 20.0116 42.2729 23.6213C43.8733 25.2123 45.4699 26.8072 47.0664 28.3943C48.7322 29.9202 50.3165 31.5274 52.0229 33.0044C53.4749 34.2028 55.6843 34.5538 57.3509 33.5404C58.798 32.7145 59.5869 31.0357 59.532 29.4094C59.3763 21.9748 59.7723 14.5215 59.3773 7.09202C59.2453 5.44573 57.7643 4.4301 56.6852 3.3682C55.4577 2.93155 54.1646 2.68175 52.8585 2.6958C48.3153 2.70797 43.7719 2.73635 39.2248 2.75271C36.8516 2.81607 34.467 2.68878 32.0935 2.82519C29.5982 2.99454 27.6943 5.63562 28.217 8.04682C28.6079 9.88683 29.9048 11.3371 31.2226 12.5968Z" fill="url(#paint0_linear_129_91)"/>
<path d="M20.9916 56.7019C18.7397 54.6154 16.5578 52.4594 14.2825 50.3976C13.311 49.4879 12.3416 48.5758 11.3724 47.6683C10.3634 46.7981 9.40114 45.8786 8.36905 45.038C7.49192 44.3571 6.18323 44.1891 5.21857 44.8159C4.38004 45.3284 3.94459 46.332 4.00565 47.2898C4.22862 51.67 4.12665 56.071 4.4906 60.4439C4.59745 61.4121 5.48847 61.9847 6.14337 62.5917C6.87472 62.8275 7.64146 62.9519 8.4112 62.9206C11.0893 62.8333 13.7673 62.7364 16.4477 62.6465C17.8457 62.5673 19.2537 62.6002 20.6505 62.478C22.1186 62.3341 23.1944 60.7435 22.8437 59.3312C22.5808 58.2534 21.7907 57.4213 20.9916 56.7019Z" fill="url(#paint1_linear_129_91)"/>
<path opacity="0.4" d="M38.3921 22.7715C36.0078 20.4939 32.0117 20.357 29.6219 22.6839C24.7648 27.3376 19.963 32.0516 15.2494 36.8475C13.4721 38.5996 12.5117 41.2222 13.2513 43.6694C14.1952 46.0948 16.3091 47.7263 18.0697 49.5385C21.0502 52.4895 24.0197 55.446 27 58.4024C28.6615 60.0559 30.3448 62.0158 32.7954 62.4376C35.0474 62.9193 37.3213 61.89 38.8999 60.3352C42.1509 57.1597 45.3633 53.9459 48.5755 50.732C50.5955 48.7227 52.8088 46.8338 54.3542 44.4141C55.16 43.2642 54.9393 41.7969 55 40.483C53.5153 36.6834 49.7511 34.4221 47.1348 31.4328C44.2262 28.5367 41.3118 25.6513 38.3921 22.7715Z" fill="url(#paint2_linear_129_91)"/>
<path d="M13.4417 4.55553C13.3526 4.6354 13.2643 4.71453 13.177 4.79146C12.4684 5.49935 11.759 6.20665 11.0495 6.91405C9.35341 8.60499 7.65661 10.2967 5.97031 11.9984C4.99551 12.9482 4.22481 14.1516 4.02091 15.5128C3.99201 17.6422 3.99921 19.7716 4.00651 21.8989C4.00791 22.32 4.00931 22.7411 4.01051 23.162C4.02841 25.6544 4.02451 28.1468 4.02071 30.6392L4.02061 30.6511C4.01781 32.4919 4.01491 34.3328 4.02081 36.1737C4.00011 36.9589 4.28351 37.6994 4.70181 38.3544C5.44831 39.0058 6.45431 39.5063 7.46701 39.2424C8.46711 39.0123 9.16361 38.2806 9.84871 37.5609C10.0823 37.3156 10.3146 37.0715 10.5571 36.8492C15.2924 32.1623 20.0036 27.4547 24.6871 22.7164C25.1943 22.1807 25.7273 21.6676 26.2602 21.1544C27.3 20.1533 28.3396 19.1522 29.1874 17.9849C29.9617 16.6134 29.8131 14.8409 28.8037 13.6237C28.1277 12.8216 27.3743 12.0905 26.6213 11.3597C26.2155 10.9659 25.8098 10.5722 25.4164 10.1676C24.5047 9.25131 23.5878 8.34009 22.671 7.42892L22.6582 7.41617C21.7374 6.50108 20.8155 5.58485 19.8999 4.66462C18.9701 3.79718 17.8398 2.85428 16.4676 3.01886C15.2467 2.93813 14.298 3.78825 13.4417 4.55553Z" fill="url(#paint3_linear_129_91)"/>
<defs>
<linearGradient id="paint0_linear_129_91" x1="7.15621" y1="24.4711" x2="37.8347" y2="55.1231" gradientUnits="userSpaceOnUse">
<stop stop-color="#5570FF"/>
<stop offset="1" stop-color="#4DD3FF"/>
</linearGradient>
<linearGradient id="paint1_linear_129_91" x1="34.9699" y1="49.2771" x2="16.3432" y2="31.748" gradientUnits="userSpaceOnUse">
<stop stop-color="#5570FF"/>
<stop offset="1" stop-color="#4DD3FF"/>
</linearGradient>
<linearGradient id="paint2_linear_129_91" x1="7.09504" y1="62.557" x2="7.09504" y2="21.0001" gradientUnits="userSpaceOnUse">
<stop stop-color="#5570FF"/>
<stop offset="1" stop-color="#4DD3FF"/>
</linearGradient>
<linearGradient id="paint3_linear_129_91" x1="16.8396" y1="39.3143" x2="16.8396" y2="3" gradientUnits="userSpaceOnUse">
<stop stop-color="#5570FF"/>
<stop offset="1" stop-color="#4DD3FF"/>
</linearGradient>
</defs>
</svg>
