<svg width="128" height="128" viewBox="0 0 128 128" fill="none" xmlns="http://www.w3.org/2000/svg">
<path opacity="0.4" fill-rule="evenodd" clip-rule="evenodd" d="M98.3936 17.7518C90.4651 17.7518 82.536 17.7524 74.6067 17.7531L73.5652 17.7531C58.0476 17.7543 42.5292 17.7555 27.0138 17.7518C25.1908 17.7518 23.3295 17.8865 21.5225 18.3025C14.0178 19.908 8.05725 25.9121 8.0116 32.6082L8.01159 32.6137C7.9976 53.5243 7.9976 74.4349 8.0046 95.3397C8.0046 99.3416 10.1368 103.04 13.3613 105.729C16.5899 108.422 20.9753 110.162 25.6419 110.236H25.6547C43.743 110.272 61.8346 110.266 79.9256 110.259C82.3655 110.258 84.8054 110.257 87.2453 110.256C92.114 110.254 96.9827 110.252 101.852 110.252C106.598 110.281 111.125 108.577 114.465 105.874C117.8 103.176 120.024 99.4164 119.977 95.3189C119.998 83.1083 119.995 70.898 119.991 58.6884L119.99 56.1411C119.988 48.5027 119.986 40.8647 119.992 33.2267C120.234 26.8389 115.088 20.8791 108.142 18.7534C104.983 17.7093 101.559 17.7004 98.3936 17.7518ZM8.91478 32.6143L8.90595 32.6143L8.01159 32.6137L8.91478 32.6143Z" fill="url(#paint0_linear_54_497)"/>
<path d="M35.7812 39.9061L52.0393 56.1642L35.7812 72.4223" stroke="url(#paint1_linear_54_497)" stroke-width="12" stroke-linecap="round" stroke-linejoin="round"/>
<path fill-rule="evenodd" clip-rule="evenodd" d="M85.9647 57.8909C86.441 57.3479 86.9717 57.0868 87.6991 57.1034C87.9412 57.109 88.2078 57.1474 88.4991 57.2142L88.4952 57.2182C88.8822 57.3074 89.3158 57.4521 89.8116 57.6489C91.2989 58.2386 91.5254 58.8029 91.3662 61.5698C91.2277 63.9791 91.6781 64.9481 93.4036 65.9502C94.874 66.8033 96.07 66.7762 98.3054 65.8354C99.1157 65.4944 100.017 65.2753 100.314 65.3556C100.958 65.5288 102.853 68.5211 102.845 69.3503C102.842 69.7218 102.235 70.4393 101.16 71.36C99.0614 73.1556 98.6148 74.0438 98.8957 75.8388C99.2335 77.9975 99.8678 78.7581 102.189 79.7925C104.629 80.8796 104.882 81.3368 104.286 83.5453C103.688 85.7565 103.123 86.0813 100.265 85.8954C98.3727 85.7723 97.7696 85.8591 96.98 86.3794C94.9206 87.7383 94.3148 90.0688 95.4215 92.3921C96.5852 94.8332 96.3509 95.584 93.999 96.8137C92.4353 97.6304 91.7247 97.5683 90.8329 96.547C89.6149 95.153 89.3068 94.8332 88.5159 94.168C87.5606 93.3654 86.406 93.2449 84.7466 93.7743C83.1113 94.2961 82.8538 94.5588 82.1336 96.4072C81.346 98.4291 80.33 99.2627 78.8976 99.0776C78.3484 99.0064 77.668 98.8213 77.3842 98.6672C77.1 98.5158 76.623 98.266 76.3261 98.1132C75.6732 97.7793 75.4895 96.8072 75.715 94.9109C75.8079 94.1284 75.8095 93.1098 75.715 92.6464C75.5141 91.6626 73.8224 90.0831 72.6348 89.7631C71.8472 89.5508 69.2307 89.9776 67.6066 90.5833C67.0525 90.7902 66.6927 90.7515 66.2614 90.4357C65.5085 89.8845 64.3234 87.8023 64.2887 86.97C64.2616 86.3204 65.1302 85.1469 66.0317 84.6158C66.859 84.1285 67.8814 82.8418 68.0947 82.0155C68.3895 80.8776 67.9666 78.7064 67.3072 77.9551C66.995 77.5993 66.0091 76.999 65.113 76.614C64.217 76.2288 63.2329 75.6291 62.9311 75.285C62.4372 74.7223 62.4371 74.4625 62.9065 72.7011C63.5093 70.439 64.2387 69.7613 65.6667 70.146C67.1683 70.5505 69.0478 70.4177 69.9444 69.8425C71.0383 69.1406 72.1273 67.1961 72.11 65.9666C72.103 65.4693 71.8025 64.3431 71.4496 63.4647C70.5956 61.3398 70.8254 60.6427 72.7169 59.5643C74.7078 58.4295 75.4038 58.4072 76.2154 59.4453C77.9984 61.7259 78.5179 62.1918 79.6195 62.4886C81.8645 63.0935 84.4072 61.7829 84.9511 59.7447C85.1 59.1892 85.5569 58.3556 85.9647 57.8909ZM91.9577 78.1026C91.9577 82.7419 88.1975 86.5026 83.558 86.5026C78.9189 86.5026 75.158 82.7419 75.158 78.1026C75.158 73.4635 78.9189 69.7027 83.558 69.7027C88.1975 69.7027 91.9577 73.4635 91.9577 78.1026Z" fill="url(#paint2_linear_54_497)"/>
<defs>
<linearGradient id="paint0_linear_54_497" x1="64" y1="109.361" x2="64" y2="18.639" gradientUnits="userSpaceOnUse">
<stop stop-color="#5570FF"/>
<stop offset="1" stop-color="#4DD3FF"/>
</linearGradient>
<linearGradient id="paint1_linear_54_497" x1="43.9103" y1="72.4223" x2="43.9103" y2="39.9061" gradientUnits="userSpaceOnUse">
<stop stop-color="#5570FF"/>
<stop offset="1" stop-color="#4DD3FF"/>
</linearGradient>
<linearGradient id="paint2_linear_54_497" x1="63.6627" y1="178.18" x2="63.6627" y2="-185.472" gradientUnits="userSpaceOnUse">
<stop stop-color="#5570FF"/>
<stop offset="1" stop-color="#4DD3FF"/>
</linearGradient>
</defs>
</svg>
