<svg width="64" height="64" viewBox="0 0 64 64" fill="none" xmlns="http://www.w3.org/2000/svg">
<path opacity="0.4" d="M43.2 4H20.8C11.5216 4 4 11.5216 4 20.8V43.2C4 52.4784 11.5216 60 20.8 60H43.2C52.4784 60 60 52.4784 60 43.2V20.8C60 11.5216 52.4784 4 43.2 4Z" fill="url(#paint0_linear_216_260)"/>
<path fill-rule="evenodd" clip-rule="evenodd" d="M31.9968 11C26.4281 11 21.0875 13.2122 17.1498 17.1498C13.2122 21.0875 11 26.4281 11 31.9968C11.0016 33.386 11.1411 34.7669 11.4137 36.1199C10.8886 37.6977 10.8481 39.5662 11.4136 41.4315L13.1254 47.0779C14.3749 51.1994 18.11 53.7446 21.4679 52.7627C24.8259 51.7808 26.5351 47.6435 25.2856 43.522L23.5738 37.8756C22.578 34.5908 20.0033 32.3073 17.2991 32.0126C17.299 32.0073 17.299 32.002 17.299 31.9968C17.299 28.0987 18.8475 24.3603 21.6039 21.6039C24.3603 18.8475 28.0987 17.299 31.9968 17.299C35.8948 17.299 39.6333 18.8475 42.3896 21.6039C45.146 24.3603 46.6945 28.0987 46.6945 31.9968L46.6944 32.0388C43.9891 32.3322 41.413 34.6162 40.4168 37.9022L38.705 43.5485C37.4555 47.6701 39.1647 51.8073 42.5226 52.7893C45.8806 53.7712 49.6157 51.226 50.8652 47.1044L52.577 41.4581C53.1431 39.5907 53.1018 37.7202 52.5751 36.1413C52.8509 34.7804 52.9918 33.3922 52.9935 31.9968C52.9935 26.4281 50.7814 21.0875 46.8437 17.1498C42.906 13.2122 37.5654 11 31.9968 11Z" fill="url(#paint1_linear_216_260)"/>
<defs>
<linearGradient id="paint0_linear_216_260" x1="54.4" y1="1.2" x2="5.68" y2="56.08" gradientUnits="userSpaceOnUse">
<stop stop-color="#FB457A"/>
<stop offset="1" stop-color="#A500FF"/>
</linearGradient>
<linearGradient id="paint1_linear_216_260" x1="48.7942" y1="8.9" x2="12.2535" y2="50.0544" gradientUnits="userSpaceOnUse">
<stop stop-color="#E7824D"/>
<stop offset="1" stop-color="#A500FF"/>
</linearGradient>
</defs>
</svg>
