<svg width="24" height="24" viewBox="0 0 24 24" fill="none" xmlns="http://www.w3.org/2000/svg">
<path opacity="0.5" d="M22.0001 17.0204V6.40818C22.0001 5.35273 21.484 4.3405 20.5655 3.59418C19.6469 2.84787 18.4011 2.42859 17.1021 2.42859C16.8856 2.42859 16.678 2.49847 16.5249 2.62285C16.3718 2.74724 16.2858 2.91595 16.2858 3.09185V20.3368C16.2858 20.5127 16.3718 20.6814 16.5249 20.8058C16.678 20.9301 16.8856 21 17.1021 21C18.4011 21 19.6469 20.5807 20.5655 19.8344C21.484 19.0881 22.0001 18.0759 22.0001 17.0204Z" fill="url(#paint0_linear_8_778)"/>
<path opacity="0.5" d="M2 17.0204V6.40818C2 5.35273 2.51604 4.3405 3.43458 3.59418C4.35313 2.84787 5.59894 2.42859 6.89796 2.42859C7.11446 2.42859 7.3221 2.49847 7.47519 2.62285C7.62828 2.74724 7.71429 2.91595 7.71429 3.09185V20.3368C7.71429 20.5127 7.62828 20.6814 7.47519 20.8058C7.3221 20.9301 7.11446 21 6.89796 21C5.59894 21 4.35313 20.5807 3.43458 19.8344C2.51604 19.0881 2 18.0759 2 17.0204Z" fill="url(#paint1_linear_8_778)"/>
<path d="M11.2143 23C8.25059 23 6.7703 23 5.84945 22.0791C4.92859 21.1583 4.92859 19.678 4.92859 16.7143V7.28571C4.92859 4.322 4.92859 2.84171 5.84945 1.92086C6.7703 1 8.25059 1 11.2143 1H12.7857C15.7494 1 17.2297 1 18.1506 1.92086C19.0714 2.84171 19.0714 4.322 19.0714 7.28571V16.7143C19.0714 19.678 19.0714 21.1583 18.1506 22.0791C17.2297 23 15.7494 23 12.7857 23H11.2143Z" fill="url(#paint2_linear_8_778)"/>
<defs>
<linearGradient id="paint0_linear_8_778" x1="16.2032" y1="2.61133" x2="27.2411" y2="6.11152" gradientUnits="userSpaceOnUse">
<stop stop-color="#F9D423"/>
<stop offset="0.515624" stop-color="#FF4E50"/>
<stop offset="0.991304" stop-color="#8A2387"/>
</linearGradient>
<linearGradient id="paint1_linear_8_778" x1="1.9174" y1="2.61133" x2="12.9553" y2="6.11152" gradientUnits="userSpaceOnUse">
<stop stop-color="#F9D423"/>
<stop offset="0.515624" stop-color="#FF4E50"/>
<stop offset="0.991304" stop-color="#8A2387"/>
</linearGradient>
<linearGradient id="paint2_linear_8_778" x1="4.72416" y1="1.21648" x2="25.6187" y2="15.0596" gradientUnits="userSpaceOnUse">
<stop stop-color="#F9D423"/>
<stop offset="0.515624" stop-color="#FF4E50"/>
<stop offset="0.991304" stop-color="#8A2387"/>
</linearGradient>
</defs>
</svg>
