<svg width="128" height="128" viewBox="0 0 128 128" fill="none" xmlns="http://www.w3.org/2000/svg">
<rect opacity="0.4" x="8" y="8" width="112" height="112" rx="24" fill="url(#paint0_linear_69_215)"/>
<path d="M47.7691 60.4614C43.0769 60.4614 38.5767 58.5974 35.2588 55.2794C31.9409 51.9616 30.0769 47.4614 30.0769 42.7692V28.6153C30.0769 27.6769 30.4497 26.7769 31.1133 26.1133C31.7768 25.4497 32.6769 25.0769 33.6154 25.0769H37.1537C38.0922 25.0769 38.9923 24.7041 39.6558 24.0405C40.3194 23.3769 40.6922 22.4769 40.6922 21.5385C40.6922 20.6 40.3194 19.7 39.6558 19.0364C38.9923 18.3728 38.0922 18 37.1537 18H33.6154C30.8 18 28.0998 19.1184 26.1091 21.1092C24.1183 23.0999 23 25.8 23 28.6153V42.7692C23.0045 46.7667 23.9793 50.7034 25.8406 54.2411C27.7019 57.7789 30.3942 60.8119 33.6861 63.0799C36.8489 65.8683 39.4138 69.2686 41.2261 73.0757C43.0384 76.8828 44.0605 81.0176 44.2307 85.2306C44.2307 91.7997 46.8403 98.1 51.4854 102.745C56.1305 107.39 62.4306 110 68.9998 110C75.5691 110 81.8692 107.39 86.5142 102.745C91.1594 98.1 93.769 91.7997 93.769 85.2306V81.9713C93.769 81.5153 94.0788 81.1206 94.5134 80.9826C97.5359 80.0231 100.157 78.0731 101.945 75.4361C103.878 72.5849 104.705 69.1264 104.272 65.7089C103.838 62.2915 102.172 59.1496 99.5867 56.8723C97.0025 54.595 93.6753 53.3386 90.2305 53.3386C86.7856 53.3386 83.4589 54.595 80.8741 56.8723C78.2892 59.1496 76.6236 62.2915 76.1896 65.7089C75.7555 69.1264 76.5827 72.5849 78.5161 75.4361C80.3043 78.0731 82.9251 80.0232 85.9477 80.9827C86.3823 81.1206 86.6921 81.5153 86.6921 81.9713V85.2306C86.6921 89.9228 84.828 94.4228 81.5102 97.7409C78.1922 101.059 73.6921 102.923 68.9998 102.923C64.3076 102.923 59.8075 101.059 56.4895 97.7409C53.1716 94.4228 51.3076 89.9228 51.3076 85.2306C51.4867 81.0124 52.5198 76.8744 54.3444 73.0669C56.1691 69.2596 58.7472 65.862 61.9229 63.0799C65.2017 60.8041 67.8802 57.7675 69.7289 54.2303C71.5777 50.693 72.5416 46.7604 72.5383 42.7692V28.6153C72.5383 25.8 71.4199 23.0999 69.4291 21.1092C67.4384 19.1184 64.7383 18 61.9229 18H58.3845C57.446 18 56.546 18.3728 55.8824 19.0364C55.2188 19.7 54.8461 20.6 54.8461 21.5385C54.8461 22.4769 55.2188 23.3769 55.8824 24.0405C56.546 24.7041 57.446 25.0769 58.3845 25.0769H61.9229C62.8614 25.0769 63.7614 25.4497 64.425 26.1133C65.0885 26.7769 65.4614 27.6769 65.4614 28.6153V42.7692C65.4614 45.0925 65.0038 47.3931 64.1147 49.5397C63.2256 51.6862 61.9223 53.6366 60.2795 55.2794C58.6366 56.9223 56.6862 58.2255 54.5396 59.1146C52.3932 60.0038 50.0925 60.4614 47.7691 60.4614ZM90.2305 74.6152C88.3536 74.6152 86.5536 73.8696 85.2264 72.5424C83.8992 71.2152 83.1536 69.4152 83.1536 67.5383C83.1536 65.6614 83.8992 63.8614 85.2264 62.5342C86.5536 61.207 88.3536 60.4614 90.2305 60.4614C92.1079 60.4614 93.9075 61.207 95.2344 62.5342C96.5622 63.8614 97.3077 65.6614 97.3077 67.5383C97.3077 69.4152 96.5622 71.2152 95.2344 72.5424C93.9075 73.8696 92.1079 74.6152 90.2305 74.6152Z" fill="url(#paint1_linear_69_215)" stroke="url(#paint2_linear_69_215)" stroke-width="3"/>
<defs>
<linearGradient id="paint0_linear_69_215" x1="64" y1="120" x2="64" y2="8" gradientUnits="userSpaceOnUse">
<stop stop-color="#FDA700"/>
<stop offset="1" stop-color="#FFDE00"/>
</linearGradient>
<linearGradient id="paint1_linear_69_215" x1="63.6921" y1="110" x2="63.6921" y2="18" gradientUnits="userSpaceOnUse">
<stop stop-color="#FDA700"/>
<stop offset="1" stop-color="#FFDE00"/>
</linearGradient>
<linearGradient id="paint2_linear_69_215" x1="63.6921" y1="110" x2="63.6921" y2="18" gradientUnits="userSpaceOnUse">
<stop stop-color="#FDA700"/>
<stop offset="1" stop-color="#FFDE00"/>
</linearGradient>
</defs>
</svg>
