<svg width="64" height="64" viewBox="0 0 64 64" fill="none" xmlns="http://www.w3.org/2000/svg">
<path opacity="0.4" d="M32 4C47.4645 4 60 16.5355 60 32C60 47.4645 47.4645 60 32 60C16.5355 60 4 47.4645 4 32C4 16.5355 16.5355 4 32 4Z" fill="url(#paint0_linear_218_144)"/>
<path d="M27.6651 16.0018C27.8016 15.9948 27.8978 16.042 27.9731 16.1593C28.3493 16.8225 27.5968 18.982 28.1638 20.1038C28.7308 21.2325 28.7308 21.5125 33.2493 20.9508C37.7678 20.3838 44.5491 22.3525 47.0026 24.792C49.4491 27.2333 53.6877 33.4336 54.5364 36.9948C55.3834 40.5631 55.0142 40.7486 53.8802 40.1868C52.7514 39.6268 51.8082 34.6568 45.1126 31.3668C42.2914 29.9806 40.1066 29.6453 38.523 29.7212C37.5257 29.769 37.72 30.6374 38.7107 30.7612C40.6781 31.007 43.1762 31.6872 45.2964 33.4248C49.5419 36.8968 52.1739 39.6181 52.0847 40.6506C51.9884 41.6831 51.6069 41.4976 50.9507 40.6506C50.2874 39.8106 46.3359 34.6411 41.6266 32.9593C36.9226 31.2706 34.9416 31.3668 33.1566 32.3031C31.3663 33.2393 30.9831 34.1756 33.5258 34.8388V34.8388C34.4141 35.0681 34.8028 36.6373 33.9196 36.8852C33.2937 37.0608 32.5948 37.1768 31.8406 37.1768C29.6533 37.1768 28.0737 37.0859 27.3291 37.032C27.0251 37.01 26.726 37.1207 26.5136 37.3392C25.0077 38.8885 18.8771 45.1714 17.1423 46.5709C15.1665 48.1634 13 47.4179 13 46.4746C13 45.7583 13.5522 44.0532 13.8116 43.2918C13.8948 43.0477 13.8855 42.7842 13.8 42.5409C13.3909 41.3774 12.3626 37.6418 14.2303 33.5211C16.2196 29.1515 21.2634 24.6345 22.4531 23.6068C22.6182 23.4642 22.7335 23.2767 22.7912 23.0663C23.0087 22.273 23.653 20.1894 24.7723 18.7003C25.9203 17.176 27.0753 16.028 27.6633 16" fill="url(#paint1_linear_218_144)"/>
<defs>
<linearGradient id="paint0_linear_218_144" x1="32" y1="60" x2="32" y2="4" gradientUnits="userSpaceOnUse">
<stop stop-color="#5570FF"/>
<stop offset="1" stop-color="#4DD3FF"/>
</linearGradient>
<linearGradient id="paint1_linear_218_144" x1="34" y1="47.4987" x2="34" y2="16" gradientUnits="userSpaceOnUse">
<stop stop-color="#5570FF"/>
<stop offset="1" stop-color="#4DD3FF"/>
</linearGradient>
</defs>
</svg>
