<svg width="64" height="64" viewBox="0 0 64 64" fill="none" xmlns="http://www.w3.org/2000/svg">
<path opacity="0.4" fill-rule="evenodd" clip-rule="evenodd" d="M59.9464 30.2679C59.6083 24.8138 57.6817 19.5778 54.404 15.2053C51.1263 10.8329 46.6408 7.51512 41.5004 5.66099C36.3599 3.80687 30.7893 3.49744 25.4752 4.77086C20.161 6.04428 15.3356 8.84487 11.5938 12.8274C7.85204 16.81 5.35739 21.8004 4.41739 27.1835C3.47738 32.5667 4.13312 38.1072 6.30376 43.1222C8.47441 48.1372 12.0651 52.4074 16.6332 55.4064C21.2013 58.4055 26.5471 60.0023 32.0117 60H47.1248C50.524 59.9957 53.7827 58.6435 56.1863 56.2399C58.5898 53.8363 59.9421 50.5776 59.9464 47.1784V30.4871V30.2679Z" fill="#3FC1C9"/>
<path d="M30.5999 30.4H22.2C21.086 30.4 20.0177 29.9575 19.2301 29.1699C18.4425 28.3822 18 27.3139 18 26.2C18 25.0861 18.4425 24.0177 19.2301 23.2302C20.0177 22.4425 21.086 22 22.2 22H30.5999C31.714 22 32.7822 22.4425 33.5699 23.2302C34.3575 24.0177 34.8 25.0861 34.8 26.2C34.8 27.3139 34.3575 28.3822 33.5699 29.1699C32.7822 29.9575 31.714 30.4 30.5999 30.4Z" fill="#3FC1C9"/>
<path d="M41.8 36.0003H22.2C21.086 36.0003 20.0177 36.4428 19.2301 37.2305C18.4425 38.0182 18 39.0864 18 40.2003C18 41.3142 18.4425 42.3826 19.2301 43.1702C20.0177 43.9579 21.086 44.4003 22.2 44.4003H41.8C42.9139 44.4003 43.9823 43.9579 44.7698 43.1702C45.5575 42.3826 46 41.3142 46 40.2003C46 39.0864 45.5575 38.0182 44.7698 37.2305C43.9823 36.4428 42.9139 36.0003 41.8 36.0003Z" fill="#3FC1C9"/>
</svg>
