<svg width="24" height="24" viewBox="0 0 24 24" fill="none" xmlns="http://www.w3.org/2000/svg">
<path opacity="0.4" d="M22.7467 2.3757C22.8247 2.30297 22.8873 2.21526 22.9308 2.11781C22.9742 2.02035 22.9975 1.91515 22.9994 1.80848C23.0013 1.70181 22.9817 1.59585 22.9417 1.49692C22.9018 1.398 22.8423 1.30813 22.7668 1.23269C22.6914 1.15725 22.6015 1.09778 22.5026 1.05782C22.4037 1.01786 22.2977 0.998242 22.1911 1.00012C22.0844 1.00201 21.9792 1.02535 21.8817 1.06878C21.7843 1.1122 21.6966 1.1748 21.6238 1.25286L19.0784 3.79726C19.5136 4.10559 19.8935 4.48521 20.2023 4.9201L22.7467 2.3757ZM1.47519 11.7832L2.25906 13.0734C4.4128 16.6138 7.38467 19.5857 10.9251 21.7394L12.2163 22.5243C14.2268 23.5518 16.8274 22.8919 17.9513 20.7649C18.4809 19.7596 18.9862 18.6336 19.3061 17.5129C19.7296 16.0173 19.9827 14.4786 20.0603 12.9262C20.0953 12.2482 20.1122 11.9082 19.9502 11.4887C19.7891 11.0703 19.5095 10.7896 18.9502 10.2314L13.8381 5.11925C13.318 4.59914 13.0574 4.33855 12.6655 4.17648C12.2735 4.01653 11.9621 4.01759 11.3382 4.01971C9.69774 4.02433 8.06545 4.25059 6.4856 4.69235C5.36594 5.01226 4.23992 5.51648 3.23466 6.04824C1.10762 7.17108 0.448743 9.77162 1.47519 11.7821V11.7832Z" fill="url(#paint0_linear_8_180)"/>
<path d="M19.6885 4.31208C19.2513 3.87473 18.7322 3.52779 18.1608 3.29109C17.5895 3.05439 16.9771 2.93256 16.3587 2.93256C15.7402 2.93256 15.1279 3.05439 14.5565 3.29109C13.9852 3.52779 13.4661 3.87473 13.0288 4.31208L12.9886 4.35128C13.2343 4.51653 13.4716 4.7538 13.8381 5.12032L18.9491 10.2314C19.2691 10.5513 19.4979 10.779 19.6642 10.994L19.6885 10.9707C20.5715 10.0877 21.0675 8.89014 21.0675 7.64141C21.0675 6.39268 20.5715 5.19509 19.6885 4.31208Z" fill="url(#paint1_linear_8_180)"/>
<defs>
<linearGradient id="paint0_linear_8_180" x1="11.9998" y1="23" x2="11.9998" y2="1" gradientUnits="userSpaceOnUse">
<stop stop-color="#5558FF"/>
<stop offset="1" stop-color="#00C0FF"/>
</linearGradient>
<linearGradient id="paint1_linear_8_180" x1="17.028" y1="10.994" x2="17.028" y2="2.93256" gradientUnits="userSpaceOnUse">
<stop stop-color="#5558FF"/>
<stop offset="1" stop-color="#00C0FF"/>
</linearGradient>
</defs>
</svg>
