<svg width="64" height="64" viewBox="0 0 64 64" fill="none" xmlns="http://www.w3.org/2000/svg">
<rect opacity="0.4" x="4" y="4" width="56" height="56" rx="12" fill="url(#paint0_linear_224_174)"/>
<path d="M33.8598 46.787C32.6954 46.1754 31.3046 46.1754 30.1402 46.787L24.341 49.8328C21.4062 51.3742 17.9779 48.8818 18.5387 45.6148L19.6439 39.1762C19.8668 37.8776 19.4359 36.5526 18.4918 35.6334L13.8123 31.0778C11.4359 28.7642 12.7453 24.73 16.0274 24.2532L22.503 23.3124C23.8052 23.1232 24.931 22.3058 25.514 21.126L28.414 15.2573C29.8818 12.2866 34.1182 12.2866 35.586 15.2573L38.486 21.126C39.069 22.3058 40.1949 23.1232 41.4971 23.3124L47.9726 24.2532C51.2548 24.73 52.5643 28.7642 50.1879 31.0778L45.5083 35.6334C44.5643 36.5526 44.1333 37.8776 44.3563 39.1762L45.4614 45.6148C46.0222 48.8818 42.5938 51.3742 39.659 49.8328L33.8598 46.787Z" fill="url(#paint1_linear_224_174)"/>
<defs>
<linearGradient id="paint0_linear_224_174" x1="32" y1="60" x2="32" y2="4" gradientUnits="userSpaceOnUse">
<stop stop-color="#FD5900"/>
<stop offset="1" stop-color="#FFDE00"/>
</linearGradient>
<linearGradient id="paint1_linear_224_174" x1="32" y1="53.6" x2="32" y2="8.00003" gradientUnits="userSpaceOnUse">
<stop stop-color="#FD5900"/>
<stop offset="1" stop-color="#FFDE00"/>
</linearGradient>
</defs>
</svg>
