<svg width="64" height="64" viewBox="0 0 64 64" fill="none" xmlns="http://www.w3.org/2000/svg">
<path opacity="0.4" d="M9 24.8084V29.2911M17.6667 19.5777V34.5204M22 14.3484V39.7511M26.3333 19.5777V34.5204M30.6667 21.8191V32.2791M35 17.3364V36.7631M13.3333 21.8191V32.2791M39.3333 21.8191V32.2791M43.6667 19.5777V34.5204M48 14.3484V39.7511M52.3333 19.5777V34.5204M56.6667 21.8191V32.2791M61 24.8084V29.2911" stroke="url(#paint0_linear_283_173)" stroke-width="3" stroke-linecap="round" stroke-linejoin="round"/>
<path fill-rule="evenodd" clip-rule="evenodd" d="M6.78763 14.2485C7.6713 13.5857 8.9249 13.7648 9.58763 14.6485L18.8054 26.9392C19.2054 27.4726 20.0054 27.4726 20.4054 26.9392L29.6232 14.6485C30.2859 13.7648 31.5395 13.5857 32.4232 14.2485C33.3068 14.9112 33.4859 16.1648 32.8232 17.0485L22.5554 30.7393C22.2887 31.0949 22.2887 31.5838 22.5554 31.9393L25.6745 36.0984C25.9727 36.4959 26.5152 36.6066 26.9772 36.4235C27.7881 36.1019 28.6723 35.9252 29.5977 35.9252C33.5262 35.9252 36.7109 39.1099 36.7109 43.0384C36.7109 46.967 33.5262 50.1517 29.5977 50.1517C25.6692 50.1517 22.4845 46.967 22.4845 43.0384C22.4845 42.0408 22.6898 41.0912 23.0606 40.2295C23.215 39.8706 23.1901 39.4524 22.9556 39.1398L20.4054 35.7394C20.0054 35.2061 19.2054 35.2061 18.8054 35.7394L16.2553 39.1397C16.0208 39.4523 15.9959 39.8705 16.1503 40.2294C16.5211 41.0911 16.7265 42.0408 16.7265 43.0384C16.7265 46.967 13.5418 50.1517 9.61324 50.1517C5.6847 50.1517 2.5 46.967 2.5 43.0384C2.5 39.1099 5.6847 35.9252 9.61324 35.9252C10.5386 35.9252 11.4227 36.1019 12.2337 36.4234C12.6956 36.6066 13.2381 36.4959 13.5363 36.0983L16.6555 31.9393C16.9221 31.5838 16.9221 31.0949 16.6555 30.7393L6.38759 17.0485C5.72487 16.1648 5.90397 14.9112 6.78763 14.2485ZM9.61324 39.9252C7.89384 39.9252 6.5 41.319 6.5 43.0384C6.5 44.7578 7.89384 46.1517 9.61324 46.1517C11.3326 46.1517 12.7265 44.7578 12.7265 43.0384C12.7265 41.319 11.3326 39.9252 9.61324 39.9252ZM26.4845 43.0384C26.4845 41.319 27.8783 39.9252 29.5977 39.9252C31.3171 39.9252 32.7109 41.319 32.7109 43.0384C32.7109 44.7578 31.3171 46.1517 29.5977 46.1517C27.8783 46.1517 26.4845 44.7578 26.4845 43.0384Z" fill="url(#paint1_linear_283_173)"/>
<defs>
<linearGradient id="paint0_linear_283_173" x1="35" y1="39.7511" x2="35" y2="14.3484" gradientUnits="userSpaceOnUse">
<stop stop-color="#A93AFF"/>
<stop offset="1" stop-color="#FF81FF"/>
</linearGradient>
<linearGradient id="paint1_linear_283_173" x1="19.6055" y1="49.6517" x2="19.6055" y2="14.3484" gradientUnits="userSpaceOnUse">
<stop stop-color="#A93AFF"/>
<stop offset="1" stop-color="#FF81FF"/>
</linearGradient>
</defs>
</svg>
