<svg width="24" height="24" viewBox="0 0 24 24" fill="none" xmlns="http://www.w3.org/2000/svg">
<path opacity="0.4" d="M12 23C18.0753 23 23 18.0753 23 12C23 5.9247 18.0753 1 12 1C5.9247 1 1 5.9247 1 12C1 13.76 1.4136 15.4232 2.1473 16.8983C2.3431 17.2899 2.408 17.7376 2.2947 18.1611L1.6402 20.6097C1.57562 20.8519 1.57586 21.1069 1.6409 21.349C1.70595 21.5912 1.8335 21.8119 2.01078 21.9892C2.18806 22.1665 2.40883 22.294 2.65095 22.3591C2.89308 22.4241 3.14805 22.4244 3.3903 22.3598L5.8389 21.7053C6.26394 21.5983 6.71343 21.6504 7.1028 21.8516C8.62401 22.6091 10.3006 23.0022 12 23Z" fill="url(#paint0_linear_8_232)"/>
<path fill-rule="evenodd" clip-rule="evenodd" d="M12 6.2525C11.7593 6.2525 11.5285 6.34811 11.3583 6.5183C11.1881 6.68849 11.0925 6.91932 11.0925 7.16V16.84C11.0925 17.0807 11.1881 17.3115 11.3583 17.4817C11.5285 17.6519 11.7593 17.7475 12 17.7475C12.2407 17.7475 12.4715 17.6519 12.6417 17.4817C12.8119 17.3115 12.9075 17.0807 12.9075 16.84V7.16C12.9075 6.91932 12.8119 6.68849 12.6417 6.5183C12.4715 6.34811 12.2407 6.2525 12 6.2525ZM7.16 8.6725C7.04083 8.6725 6.92282 8.69597 6.81272 8.74158C6.70261 8.78719 6.60257 8.85403 6.5183 8.9383C6.43403 9.02257 6.36719 9.12261 6.32158 9.23272C6.27598 9.34282 6.2525 9.46083 6.2525 9.58V14.42C6.2525 14.6607 6.34811 14.8915 6.5183 15.0617C6.68849 15.2319 6.91932 15.3275 7.16 15.3275C7.40069 15.3275 7.63151 15.2319 7.8017 15.0617C7.97189 14.8915 8.0675 14.6607 8.0675 14.42V9.58C8.0675 9.33932 7.97189 9.10849 7.8017 8.9383C7.63151 8.76811 7.40069 8.6725 7.16 8.6725Z" fill="url(#paint1_linear_8_232)"/>
<path d="M15.9325 9.57998C15.9325 9.3393 16.0281 9.10847 16.1983 8.93829C16.3685 8.7681 16.5993 8.67249 16.84 8.67249C17.0807 8.67249 17.3115 8.7681 17.4817 8.93829C17.6519 9.10847 17.7475 9.3393 17.7475 9.57998V14.42C17.7475 14.6607 17.6519 14.8915 17.4817 15.0617C17.3115 15.2319 17.0807 15.3275 16.84 15.3275C16.5993 15.3275 16.3685 15.2319 16.1983 15.0617C16.0281 14.8915 15.9325 14.6607 15.9325 14.42V9.57998Z" fill="url(#paint2_linear_8_232)"/>
<defs>
<linearGradient id="paint0_linear_8_232" x1="12" y1="1" x2="12" y2="23" gradientUnits="userSpaceOnUse">
<stop stop-color="#00FFE0"/>
<stop offset="1" stop-color="#078AA7"/>
</linearGradient>
<linearGradient id="paint1_linear_8_232" x1="9.58" y1="6.2525" x2="9.58" y2="17.7475" gradientUnits="userSpaceOnUse">
<stop stop-color="#00FFE0"/>
<stop offset="1" stop-color="#078AA7"/>
</linearGradient>
<linearGradient id="paint2_linear_8_232" x1="16.84" y1="8.67249" x2="16.84" y2="15.3275" gradientUnits="userSpaceOnUse">
<stop stop-color="#00FFE0"/>
<stop offset="1" stop-color="#078AA7"/>
</linearGradient>
</defs>
</svg>
