<svg width="24" height="24" viewBox="0 0 24 24" fill="none" xmlns="http://www.w3.org/2000/svg">
<path opacity="0.4" d="M5.3138 19.8211C5.30292 20.1293 5.30512 20.412 5.32832 20.6627C5.37253 21.1407 5.51684 21.8007 6.11296 22.2005C6.48574 22.4508 6.89331 22.4919 7.23482 22.4597C7.5635 22.4288 7.8965 22.3251 8.21028 22.2032C8.82133 21.966 9.60829 21.5575 10.5567 21.0652L10.6196 21.0326C11.8129 20.4134 13.0035 20 14 20H14.0724C15.896 20 17.3662 20.0001 18.5223 19.8446C19.7224 19.6832 20.7331 19.3378 21.5354 18.5348C22.3384 17.7325 22.6832 16.7224 22.8446 15.5223C23.0001 14.3662 23 12.896 23 11.0724V10.9276C23 9.10394 23.0001 7.63385 22.8446 6.4777C22.6832 5.27755 22.3384 4.26753 21.5354 3.4652C20.7331 2.66218 19.7224 2.31684 18.5223 2.15542C17.3664 1.99995 15.8966 1.99997 14.0733 2H9.92666C8.10341 1.99997 6.63365 1.99995 5.4777 2.15542C4.27755 2.31684 3.26752 2.66158 2.46519 3.46459C1.66218 4.26692 1.31684 5.27755 1.15542 6.4777C0.999951 7.63369 0.999973 9.1035 1 10.9268V11.0732C0.999973 12.8965 0.999951 14.3663 1.15542 15.5223C1.31679 16.722 1.66194 17.7324 2.46438 18.5346C3.23008 19.3014 4.18526 19.6511 5.3138 19.8211Z" fill="url(#paint0_linear_23_73)"/>
<path d="M7 5C6.44772 5 6 5.44772 6 6V16C6 16.5522 6.44772 17 7 17H7.64375C8.19603 17 8.64375 16.5522 8.64375 16V8.26836C8.64375 7.71607 9.09146 7.26836 9.64375 7.26836H12.2308C12.6671 7.26836 13.0531 6.9855 13.1844 6.56945L13.2691 6.30109C13.4727 5.65658 12.9914 5 12.3156 5H7Z" fill="url(#paint1_linear_23_73)"/>
<path d="M11.9014 16.9999C11.3491 16.9999 10.9014 16.5522 10.9014 15.9999V10.3199C10.9014 9.76766 11.3491 9.31995 11.9014 9.31995H12.1514C12.7036 9.31995 13.1514 9.76766 13.1514 10.3199V15.9999C13.1514 16.5522 12.7036 16.9999 12.1514 16.9999H11.9014Z" fill="url(#paint2_linear_23_73)"/>
<path d="M16.2214 17C15.6692 17 15.2214 16.5522 15.2214 16V6C15.2214 5.44771 15.6692 5 16.2214 5H16.4714C17.0237 5 17.4714 5.44772 17.4714 6V16C17.4714 16.5522 17.0237 17 16.4714 17H16.2214Z" fill="url(#paint3_linear_23_73)"/>
<defs>
<linearGradient id="paint0_linear_23_73" x1="12" y1="22.4692" x2="12" y2="2" gradientUnits="userSpaceOnUse">
<stop stop-color="#00B59C"/>
<stop offset="1" stop-color="#9CFFAC"/>
</linearGradient>
<linearGradient id="paint1_linear_23_73" x1="9.83998" y1="17" x2="9.83998" y2="5" gradientUnits="userSpaceOnUse">
<stop stop-color="#02AA93"/>
<stop offset="1" stop-color="#67FF80"/>
</linearGradient>
<linearGradient id="paint2_linear_23_73" x1="12.0264" y1="16.9999" x2="12.0264" y2="9.31995" gradientUnits="userSpaceOnUse">
<stop stop-color="#02AA93"/>
<stop offset="1" stop-color="#67FF80"/>
</linearGradient>
<linearGradient id="paint3_linear_23_73" x1="16.3464" y1="17" x2="16.3464" y2="5" gradientUnits="userSpaceOnUse">
<stop stop-color="#02AA93"/>
<stop offset="1" stop-color="#67FF80"/>
</linearGradient>
</defs>
</svg>
