<svg width="128" height="128" viewBox="0 0 128 128" fill="none" xmlns="http://www.w3.org/2000/svg">
<path opacity="0.4" fill-rule="evenodd" clip-rule="evenodd" d="M105.003 21.1314C108.532 20.8924 112.349 20.7764 115.518 22.654C118.211 24.1561 120.19 26.7301 121.352 29.5977C121.42 30.0211 121.547 30.8813 121.607 31.3047C121.989 33.032 121.988 34.7979 121.987 36.5588C121.987 37.1367 121.987 37.7141 122 38.2893C121.965 47.2463 121.972 56.2049 121.98 65.1635C121.988 75.1005 121.996 85.0375 121.946 94.9725C121.9 101.636 116.078 107.46 109.561 107.385C94.1548 107.447 78.7349 107.433 63.3282 107.385C54.1436 107.432 44.9616 107.426 35.7806 107.419C30.2894 107.416 24.7985 107.412 19.3076 107.419C16.2062 107.467 13.0246 106.594 10.6385 104.504C9.42865 103.473 8.43935 102.196 7.52365 100.892C6.39406 98.6456 5.93955 96.1128 6.00639 93.6074C6.02101 84.8341 6.01772 76.0621 6.01443 67.2904C6.0102 56.0128 6.00597 44.7348 6.03981 33.4554C6.03313 26.7165 12.0621 20.8174 18.6458 21.0427C23.9198 21.0571 29.1947 21.0453 34.4696 21.0335C44.169 21.0117 53.8685 20.9899 63.5621 21.1314C77.371 20.9608 91.1934 20.9744 105.003 21.1314Z" fill="url(#paint0_linear_223_101)"/>
<path d="M20.6908 63.8222C23.7042 55.6635 32.5144 50.3621 40.9618 51.5734C49.5766 52.5282 56.7754 60.0884 57.7869 68.8315C58.4984 76.3274 54.9408 84.1374 48.5303 87.9847C42.1267 92.0681 33.5607 91.6047 27.3873 87.2794C20.3071 82.1921 17.3216 72.0094 20.6908 63.8222Z" fill="url(#paint1_linear_223_101)" stroke="url(#paint2_linear_223_101)" stroke-width="4"/>
<path d="M73.8605 56.5632C78.4925 51.8603 85.5799 49.9365 91.8999 51.5753C98.8612 53.2712 104.484 59.2567 106.095 66.3465C107.623 73.9069 104.749 82.2436 98.4919 86.7183C92.0045 91.6283 82.6992 91.4856 76.0859 86.8896C71.9079 83.7403 68.9219 78.9016 68.2179 73.6216C67.2759 67.4439 69.4312 60.8813 73.8605 56.5632Z" fill="url(#paint3_linear_223_101)" stroke="url(#paint4_linear_223_101)" stroke-width="4"/>
<path d="M32.1685 33.1424C28.9414 27.8108 32.7803 21 39.0125 21H88.0682C94.0883 21 97.9514 27.3987 95.1475 32.726L93.5686 35.726C92.1852 38.3544 89.4595 40 86.4892 40H40.8283C38.0292 40 35.4336 38.537 33.9842 36.1424L32.1685 33.1424Z" fill="url(#paint5_linear_223_101)"/>
<defs>
<linearGradient id="paint0_linear_223_101" x1="64" y1="21" x2="64" y2="107.426" gradientUnits="userSpaceOnUse">
<stop stop-color="#FB457A"/>
<stop offset="1" stop-color="#DB99FF"/>
</linearGradient>
<linearGradient id="paint1_linear_223_101" x1="38.5912" y1="51.4014" x2="38.5912" y2="90.8005" gradientUnits="userSpaceOnUse">
<stop stop-color="#FB457A"/>
<stop offset="1" stop-color="#DB99FF"/>
</linearGradient>
<linearGradient id="paint2_linear_223_101" x1="38.5912" y1="51.4014" x2="38.5912" y2="90.8005" gradientUnits="userSpaceOnUse">
<stop stop-color="#FB457A"/>
<stop offset="1" stop-color="#DB99FF"/>
</linearGradient>
<linearGradient id="paint3_linear_223_101" x1="87.2491" y1="51" x2="87.2491" y2="90.3687" gradientUnits="userSpaceOnUse">
<stop stop-color="#FB457A"/>
<stop offset="1" stop-color="#DB99FF"/>
</linearGradient>
<linearGradient id="paint4_linear_223_101" x1="87.2491" y1="51" x2="87.2491" y2="90.3687" gradientUnits="userSpaceOnUse">
<stop stop-color="#FB457A"/>
<stop offset="1" stop-color="#DB99FF"/>
</linearGradient>
<linearGradient id="paint5_linear_223_101" x1="63.5395" y1="21" x2="63.5395" y2="40" gradientUnits="userSpaceOnUse">
<stop stop-color="#FB457A"/>
<stop offset="1" stop-color="#DB99FF"/>
</linearGradient>
</defs>
</svg>
