<svg width="22" height="22" viewBox="0 0 22 22" fill="none" xmlns="http://www.w3.org/2000/svg">
<path opacity="0.4" d="M20.0553 7.59912C20.1916 7.97128 20.2058 8.38665 20.072 8.78388L17.3572 18.0512L16.7893 19.5721C16.7667 19.6326 16.7417 19.6867 16.7247 19.7233L16.7169 19.7402C16.7022 19.7716 16.6942 19.7889 16.6868 19.8069C16.6724 19.8418 16.6636 19.8683 16.6506 19.9072C16.64 19.939 16.6266 19.9792 16.6052 20.039C16.5723 20.1308 16.5116 20.2931 16.4043 20.4342C16.2817 20.5954 16.0484 20.787 15.7046 20.7628C15.4224 20.743 15.2012 20.581 15.0497 20.4418L15.0276 20.4216L11.2837 16.2204C11.1268 16.0443 10.8522 16.0416 10.6918 16.2146L7.15008 20.0341C7.03456 20.1587 6.73344 20.4657 6.28234 20.4491C5.87734 20.4342 5.63028 20.1938 5.49579 19.9901C5.43416 19.8967 5.38915 19.8021 5.35833 19.7345C5.34284 19.7005 5.33157 19.675 5.32209 19.6536C5.30812 19.622 5.29804 19.5992 5.28407 19.5709L5.27693 19.5565C5.25485 19.5121 5.21887 19.4397 5.18931 19.3632L4.95014 18.7446L1.97346 8.78563C1.87323 8.48894 1.8561 8.18214 1.90972 7.89125L2.4999 8.00005L19.4918 7.80542L20.0553 7.59912Z" fill="url(#paint0_linear_80_569)"/>
<path d="M2.69627 7.51205L2.69712 7.51086C2.7283 7.46697 2.76757 7.42681 2.81477 7.3927L10.6897 1.69995C10.7799 1.63483 10.8886 1.60009 10.9996 1.6001C11.1106 1.60009 11.2192 1.63468 11.3094 1.69982L19.1853 7.39265C19.2584 7.44551 19.3141 7.51438 19.3505 7.59219L19.351 7.59314V7.59314C19.4364 7.77484 19.319 7.97133 19.1802 8.11633L18.8783 8.4316C18.5759 8.74745 18.1783 8.95548 17.7463 9.02383L17.5697 9.05178V9.05178C17.413 9.07656 17.2724 9.16246 17.1789 9.29062V9.29062L16.7597 9.86478C16.4548 10.2824 15.9969 10.5622 15.4862 10.643V10.643V10.643C15.3296 10.6678 15.1891 10.7536 15.0955 10.8817V10.8817L14.6755 11.4567C14.3706 11.8739 13.9131 12.1535 13.4027 12.2343V12.2343V12.2343C13.2461 12.2591 13.1057 12.3449 13.0121 12.4729V12.4729L12.2752 13.4815C12.1733 13.6211 12.0202 13.7146 11.8495 13.7416L11.8332 13.7442C11.6671 13.7705 11.4974 13.7277 11.3636 13.6256V13.6256V13.6256C11.149 13.4618 10.8512 13.4615 10.6363 13.6251V13.6251V13.6251C10.5025 13.727 10.3328 13.7697 10.1666 13.7434L10.1502 13.7408C9.9792 13.7137 9.82586 13.62 9.7237 13.4802L8.98714 12.4721V12.4721C8.89358 12.3441 8.75314 12.2582 8.59652 12.2334V12.2334V12.2334C8.08623 12.1526 7.62868 11.8731 7.3239 11.4559L6.9037 10.8808V10.8808C6.81013 10.7528 6.66964 10.667 6.51301 10.6422V10.6422V10.6422C6.00232 10.5614 5.54444 10.2815 5.23956 9.86394L4.82039 9.28978V9.28978C4.72683 9.16161 4.5863 9.07573 4.42957 9.05094V9.05094L4.14534 9.00596C3.76478 8.94574 3.40972 8.77688 3.12284 8.51968L2.78859 8.22001C2.71305 8.15228 2.65672 8.06582 2.62528 7.96936V7.96936C2.57413 7.81248 2.60243 7.64346 2.69627 7.51205Z" fill="url(#paint1_linear_80_569)" stroke="url(#paint2_linear_80_569)" stroke-width="1.2"/>
<defs>
<linearGradient id="paint0_linear_80_569" x1="11.0226" y1="20.1648" x2="11.0226" y2="7.8054" gradientUnits="userSpaceOnUse">
<stop stop-color="#00B59C"/>
<stop offset="1" stop-color="#9CFFAC"/>
</linearGradient>
<linearGradient id="paint1_linear_80_569" x1="11.0001" y1="14.4181" x2="11.0001" y2="1.0001" gradientUnits="userSpaceOnUse">
<stop stop-color="#02AA93"/>
<stop offset="1" stop-color="#67FF80"/>
</linearGradient>
<linearGradient id="paint2_linear_80_569" x1="11.0001" y1="14.4181" x2="11.0001" y2="1.0001" gradientUnits="userSpaceOnUse">
<stop stop-color="#02AA93"/>
<stop offset="1" stop-color="#67FF80"/>
</linearGradient>
</defs>
</svg>
