<svg width="128" height="128" viewBox="0 0 128 128" fill="none" xmlns="http://www.w3.org/2000/svg">
<path d="M20.4444 24.1855C13.5806 24.1855 8 30.4637 8 38.1855V39.8043C8 41.2918 8.85556 42.5605 9.96389 43.3699C12.5306 45.2512 14.2222 48.4887 14.2222 52.1855C14.2222 55.8824 12.5306 59.1199 9.96389 61.0012C8.85556 61.8105 8 63.0793 8 64.5668V76.1855C8 78.3947 9.79086 80.1855 12 80.1855H116C118.209 80.1855 120 78.3947 120 76.1855V64.5668C120 63.0793 119.144 61.8105 118.036 61.0012C115.469 59.1199 113.778 55.8824 113.778 52.1855C113.778 48.4887 115.469 45.2512 118.036 43.3699C119.144 42.5605 120 41.2918 120 39.8043V38.1855C120 30.4637 114.419 24.1855 107.556 24.1855H20.4444ZM45.3333 45.1855V59.1855C45.3333 63.0574 42.5528 66.1855 39.1111 66.1855C35.6694 66.1855 32.8889 63.0574 32.8889 59.1855V45.1855C32.8889 41.3137 35.6694 38.1855 39.1111 38.1855C42.5528 38.1855 45.3333 41.3137 45.3333 45.1855ZM70.2222 45.1855V59.1855C70.2222 63.0574 67.4417 66.1855 64 66.1855C60.5583 66.1855 57.7778 63.0574 57.7778 59.1855V45.1855C57.7778 41.3137 60.5583 38.1855 64 38.1855C67.4417 38.1855 70.2222 41.3137 70.2222 45.1855ZM95.1111 45.1855V59.1855C95.1111 63.0574 92.3306 66.1855 88.8889 66.1855C85.4472 66.1855 82.6667 63.0574 82.6667 59.1855V45.1855C82.6667 41.3137 85.4472 38.1855 88.8889 38.1855C92.3306 38.1855 95.1111 41.3137 95.1111 45.1855Z" fill="url(#paint0_linear_235_90)"/>
<path opacity="0.4" d="M12 82.8145H116C118.209 82.8145 120 84.6053 120 86.8145V96.8145C120 100.686 117.219 103.814 113.778 103.814H108.444C106.235 103.814 104.444 102.024 104.444 99.8145V96.8145C104.444 94.8895 103.044 93.3145 101.333 93.3145C99.6222 93.3145 98.2222 94.8895 98.2222 96.8145V99.8145C98.2222 102.024 96.4314 103.814 94.2222 103.814H83.5556C81.3464 103.814 79.5556 102.024 79.5556 99.8145V96.8145C79.5556 94.8895 78.1556 93.3145 76.4444 93.3145C74.7333 93.3145 73.3333 94.8895 73.3333 96.8145V99.8145C73.3333 102.024 71.5425 103.814 69.3333 103.814H58.6667C56.4575 103.814 54.6667 102.024 54.6667 99.8145V96.8145C54.6667 94.8895 53.2667 93.3145 51.5556 93.3145C49.8444 93.3145 48.4444 94.8895 48.4444 96.8145V99.8145C48.4444 102.024 46.6536 103.814 44.4444 103.814H33.7778C31.5686 103.814 29.7778 102.024 29.7778 99.8145V96.8145C29.7778 94.8895 28.3778 93.3145 26.6667 93.3145C24.9556 93.3145 23.5556 94.8895 23.5556 96.8145V99.8145C23.5556 102.024 21.7647 103.814 19.5556 103.814H14.2222C10.7806 103.814 8 100.686 8 96.8145V86.8145C8 84.6053 9.79086 82.8145 12 82.8145Z" fill="url(#paint1_linear_235_90)"/>
<defs>
<linearGradient id="paint0_linear_235_90" x1="63.9999" y1="80.1855" x2="63.9999" y2="24.1855" gradientUnits="userSpaceOnUse">
<stop stop-color="#02AA93"/>
<stop offset="1" stop-color="#67FF80"/>
</linearGradient>
<linearGradient id="paint1_linear_235_90" x1="63.9999" y1="103.814" x2="63.9999" y2="82.8145" gradientUnits="userSpaceOnUse">
<stop stop-color="#02AA93"/>
<stop offset="1" stop-color="#67FF80"/>
</linearGradient>
</defs>
</svg>
