<svg width="64" height="64" viewBox="0 0 64 64" fill="none" xmlns="http://www.w3.org/2000/svg">
<path d="M27.772 51.6424L28.0785 50.1614C28.207 49.5408 27.7331 48.9587 27.0993 48.9587H25.5869H15C14.4477 48.9587 14 48.511 14 47.9587V38.8149C14 38.1632 14.6136 37.6865 15.2514 37.8205C16.5856 38.1008 17.7382 38.2479 18.4628 38.2479C21.5404 38.2479 24.0413 35.747 24.0413 32.6694C24.0413 29.5919 21.5404 27.0909 18.4628 27.0909C17.7382 27.0909 16.5856 27.2381 15.2514 27.5184C14.6136 27.6523 14 27.1756 14 26.5239V17.3802C14 16.8279 14.4477 16.3802 15 16.3802H25.5869H27.0993C27.7331 16.3802 28.207 15.7981 28.0785 15.1775L27.772 13.6964C27.5117 12.4389 27.3884 11.4159 27.3884 10.8017C27.3884 8.34206 29.3916 6.33885 31.8512 6.33885C34.3109 6.33885 36.3141 8.34206 36.3141 10.8017C36.3141 11.4159 36.1908 12.4389 35.9305 13.6964L35.6239 15.1775C35.4955 15.7981 35.9694 16.3802 36.6032 16.3802H38.1156H48.7025C49.2548 16.3802 49.7025 16.8279 49.7025 17.3802V26.5239C49.7025 27.1756 49.0889 27.6523 48.4511 27.5184C47.1168 27.2381 45.9643 27.0909 45.2397 27.0909C42.1621 27.0909 39.6612 29.5919 39.6612 32.6694C39.6612 35.747 42.1621 38.2479 45.2397 38.2479C45.9643 38.2479 47.1168 38.1008 48.4511 37.8205C49.0889 37.6865 49.7025 38.1632 49.7025 38.8149V47.9587C49.7025 48.511 49.2548 48.9587 48.7025 48.9587H38.1156H36.6033C35.9695 48.9587 35.4956 49.5407 35.624 50.1613L35.9304 51.6423C36.1907 52.9001 36.3141 53.923 36.3141 54.5372C36.3141 56.9968 34.3109 59 31.8512 59C29.3916 59 27.3884 56.9968 27.3884 54.5372C27.3884 53.9229 27.5117 52.9 27.772 51.6424Z" stroke="url(#paint0_linear_54_1147)" stroke-width="5"/>
<path opacity="0.4" d="M27.772 50.3036L28.0785 48.8225C28.207 48.2019 27.7331 47.6198 27.0993 47.6198H25.5869H15C14.4477 47.6198 14 47.1721 14 46.6198V37.4761C14 36.8244 14.6136 36.3477 15.2514 36.4816C16.5856 36.762 17.7382 36.9091 18.4628 36.9091C21.5404 36.9091 24.0413 34.4081 24.0413 31.3306C24.0413 28.253 21.5404 25.7521 18.4628 25.7521C17.7382 25.7521 16.5856 25.8992 15.2514 26.1795C14.6136 26.3135 14 25.8368 14 25.1851V16.0413C14 15.489 14.4477 15.0413 15 15.0413H25.5869H27.0993C27.7331 15.0413 28.207 14.4593 28.0785 13.8386L27.772 12.3576C27.5117 11.1 27.3884 10.0771 27.3884 9.46281C27.3884 7.00321 29.3916 5 31.8512 5C34.3109 5 36.3141 7.00321 36.3141 9.46281C36.3141 10.0771 36.1908 11.1 35.9305 12.3576L35.6239 13.8386C35.4955 14.4593 35.9694 15.0413 36.6032 15.0413H38.1156H48.7025C49.2548 15.0413 49.7025 15.489 49.7025 16.0413V25.1851C49.7025 25.8368 49.0889 26.3135 48.4511 26.1795C47.1168 25.8992 45.9643 25.7521 45.2397 25.7521C42.1621 25.7521 39.6612 28.253 39.6612 31.3306C39.6612 34.4081 42.1621 36.9091 45.2397 36.9091C45.9643 36.9091 47.1168 36.762 48.4511 36.4816C49.0889 36.3477 49.7025 36.8244 49.7025 37.4761V46.6198C49.7025 47.1721 49.2548 47.6198 48.7025 47.6198H38.1156H36.6033C35.9695 47.6198 35.4956 48.2018 35.624 48.8225L35.9304 50.3034C36.1907 51.5612 36.3141 52.5842 36.3141 53.1983C36.3141 55.658 34.3109 57.6612 31.8512 57.6612C29.3916 57.6612 27.3884 55.658 27.3884 53.1983C27.3884 52.5841 27.5117 51.5611 27.772 50.3036Z" fill="url(#paint1_linear_54_1147)"/>
<defs>
<linearGradient id="paint0_linear_54_1147" x1="31.8512" y1="61.2314" x2="31.8512" y2="4.10745" gradientUnits="userSpaceOnUse">
<stop stop-color="#FD2E00"/>
<stop offset="1" stop-color="#FF9900"/>
</linearGradient>
<linearGradient id="paint1_linear_54_1147" x1="31.8512" y1="59.8926" x2="31.8512" y2="2.7686" gradientUnits="userSpaceOnUse">
<stop stop-color="#FD2E00"/>
<stop offset="1" stop-color="#FF9900"/>
</linearGradient>
</defs>
</svg>
