<svg width="32" height="32" viewBox="0 0 32 32" fill="none" xmlns="http://www.w3.org/2000/svg">
<path opacity="0.4" d="M16 2C15.3432 2 14.6852 2.25084 14.1835 2.7525L2.7525 14.1835C1.74917 15.1868 1.74917 16.8132 2.7525 17.8165L14.1835 29.2475C15.1868 30.2508 16.8132 30.2508 17.8165 29.2475L29.2475 17.8165C30.2508 16.8132 30.2508 15.1868 29.2475 14.1835L17.8165 2.7525C17.5782 2.51358 17.2951 2.32411 16.9833 2.19497C16.6716 2.06583 16.3374 1.99957 16 2Z" fill="url(#paint0_linear_281_165)"/>
<path fill-rule="evenodd" clip-rule="evenodd" d="M9.06604 7.86993V22.4515C9.06604 22.7989 9.37614 23.0645 9.71953 23.011L12.1905 22.626C12.4663 22.5831 12.6696 22.3456 12.6696 22.0664V17.8614C12.6696 17.3078 13.3823 17.0831 13.6998 17.5367L17.4716 22.925C17.6156 23.1308 17.878 23.2171 18.1161 23.1369L21.1895 22.1026C21.5733 21.9735 21.7014 21.4949 21.4334 21.1913L16.605 15.7203C16.4156 15.5057 16.4161 15.1834 16.6063 14.9694L21.4682 9.49977C21.7384 9.19592 21.6098 8.71489 21.2241 8.58634L18.1153 7.55007C17.8776 7.47083 17.616 7.55726 17.4723 7.76255L13.6998 13.1518C13.3823 13.6054 12.6696 13.3808 12.6696 12.8271V4.26636L9.06604 7.86993Z" fill="url(#paint1_linear_281_165)"/>
<defs>
<linearGradient id="paint0_linear_281_165" x1="16" y1="30" x2="16" y2="2" gradientUnits="userSpaceOnUse">
<stop stop-color="#FD5900"/>
<stop offset="1" stop-color="#FFDE00"/>
</linearGradient>
<linearGradient id="paint1_linear_281_165" x1="15.3388" y1="23.1667" x2="15.3388" y2="4.26636" gradientUnits="userSpaceOnUse">
<stop stop-color="#FD2E00"/>
<stop offset="1" stop-color="#FF9900"/>
</linearGradient>
</defs>
</svg>
