<svg width="32" height="32" viewBox="0 0 32 32" fill="none" xmlns="http://www.w3.org/2000/svg">
<path opacity="0.45" d="M14.0389 26.229C20.6878 26.229 26.0778 20.8052 26.0778 14.1145C26.0778 7.42385 20.6878 2 14.0389 2C7.39 2 2 7.42385 2 14.1145C2 20.8052 7.39 26.229 14.0389 26.229Z" fill="url(#paint0_linear_204_105)"/>
<path opacity="0.4" d="M28.1444 29.9376C27.6767 29.9224 27.232 29.73 26.8994 29.3989L24.0484 26.0664C23.4372 25.5074 23.3872 24.5574 23.9364 23.9367C24.1934 23.6765 24.5429 23.5303 24.9075 23.5303C25.272 23.5303 25.6215 23.6765 25.8785 23.9367L29.4641 26.8056C29.9805 27.3342 30.1399 28.119 29.871 28.8091C29.602 29.4992 28.955 29.9658 28.2191 30.0002L28.1444 29.9376Z" fill="url(#paint1_linear_204_105)"/>
<path d="M6 11.2632C6 10.9281 6.13308 10.6069 6.36997 10.37C6.60686 10.1331 6.92815 10 7.26316 10H20.7368C21.0719 10 21.3931 10.1331 21.63 10.37C21.8669 10.6069 22 10.9281 22 11.2632C22 11.5982 21.8669 11.9195 21.63 12.1563C21.3931 12.3932 21.0719 12.5263 20.7368 12.5263H7.26316C6.92815 12.5263 6.60686 12.3932 6.36997 12.1563C6.13308 11.9195 6 11.5982 6 11.2632ZM7.26316 15.8947C6.92815 15.8947 6.60686 16.0278 6.36997 16.2647C6.13308 16.5016 6 16.8229 6 17.1579C6 17.4929 6.13308 17.8142 6.36997 18.0511C6.60686 18.288 6.92815 18.4211 7.26316 18.4211H15.6842C16.0192 18.4211 16.3405 18.288 16.5774 18.0511C16.8143 17.8142 16.9474 17.4929 16.9474 17.1579C16.9474 16.8229 16.8143 16.5016 16.5774 16.2647C16.3405 16.0278 16.0192 15.8947 15.6842 15.8947H7.26316Z" fill="url(#paint2_linear_204_105)"/>
<defs>
<linearGradient id="paint0_linear_204_105" x1="14.0389" y1="26.229" x2="14.0389" y2="2" gradientUnits="userSpaceOnUse">
<stop stop-color="#02AA93"/>
<stop offset="1" stop-color="#67FF80"/>
</linearGradient>
<linearGradient id="paint1_linear_204_105" x1="26.7776" y1="30.0002" x2="26.7776" y2="23.5303" gradientUnits="userSpaceOnUse">
<stop stop-color="#02AA93"/>
<stop offset="1" stop-color="#67FF80"/>
</linearGradient>
<linearGradient id="paint2_linear_204_105" x1="14" y1="18.4211" x2="14" y2="10" gradientUnits="userSpaceOnUse">
<stop stop-color="#02AA93"/>
<stop offset="1" stop-color="#67FF80"/>
</linearGradient>
</defs>
</svg>
