<svg width="48" height="48" viewBox="0 0 48 48" fill="none" xmlns="http://www.w3.org/2000/svg">
<path opacity="0.4" d="M39.5 31H42.538C43.8977 31 45 30.1046 45 29V8C45 6.89543 43.8977 6 42.538 6H15.462C14.1023 6 13 6.89543 13 8V11.5" stroke="url(#paint0_linear_54_1227)" stroke-width="3"/>
<path opacity="0.7" d="M34.5 36H37.538C38.8977 36 40 35.1046 40 34V13C40 11.8954 38.8977 11 37.538 11H10.462C9.10227 11 8 11.8954 8 13V17" stroke="url(#paint1_linear_54_1227)" stroke-width="3"/>
<path fill-rule="evenodd" clip-rule="evenodd" d="M5.462 16H32.538C33.8977 16 35 16.8954 35 18V39C35 40.1046 33.8977 41 32.538 41H5.462C4.10227 41 3 40.1046 3 39V18C3 16.8954 4.10227 16 5.462 16ZM20.9722 19.0004C20.6261 18.9925 20.373 19.1167 20.1461 19.3753C19.952 19.5966 19.7343 19.9936 19.6637 20.2581C19.4046 21.2286 18.1939 21.8528 17.1248 21.5647C16.6002 21.4234 16.3528 21.2016 15.5038 20.1156C15.1173 19.6212 14.7858 19.6318 13.8378 20.1722C12.9371 20.6857 12.8277 21.0177 13.2343 22.0295C13.4024 22.4478 13.5455 22.9841 13.5488 23.2209C13.5571 23.8063 13.0385 24.7323 12.5176 25.0666C12.0906 25.3405 11.1956 25.4037 10.4806 25.2111C9.80061 25.0279 9.45325 25.3507 9.1662 26.4278C8.94268 27.2666 8.9427 27.3903 9.17792 27.6583C9.32163 27.8221 9.79027 28.1076 10.2169 28.2911C10.6436 28.4745 11.1131 28.7603 11.2618 28.9297C11.5757 29.2874 11.7771 30.3214 11.6368 30.8632C11.5352 31.2567 11.0483 31.8694 10.6544 32.1015C10.2251 32.3544 9.81148 32.9132 9.82437 33.2225C9.84088 33.6189 10.4053 34.6104 10.7638 34.8729C10.9691 35.0232 11.1405 35.0416 11.4044 34.9432C12.1777 34.6547 13.4237 34.4515 13.7988 34.5526C14.3643 34.7049 15.1698 35.4571 15.2655 35.9256C15.3105 36.1462 15.3097 36.6313 15.2655 37.0037C15.1581 37.9066 15.2456 38.3695 15.5565 38.529C15.6979 38.6013 15.925 38.7205 16.0604 38.7927C16.1955 38.8657 16.5195 38.9542 16.781 38.988C17.4631 39.0765 17.9469 38.6793 18.322 37.7165C18.6649 36.8363 18.7875 36.7109 19.566 36.4627C20.3566 36.2106 20.9062 36.268 21.3609 36.6502C21.7379 36.9671 21.8843 37.1192 22.4643 37.7829C22.8893 38.2693 23.2273 38.299 23.9721 37.9099C25.0919 37.3247 25.2037 36.9669 24.6498 35.8045C24.1224 34.6981 24.4111 33.5883 25.3919 32.9413C25.7675 32.6935 26.055 32.6522 26.9563 32.7108C28.317 32.7993 28.5856 32.6447 28.8702 31.5917C29.1546 30.5401 29.0341 30.3224 27.8723 29.8047C26.7667 29.3121 26.4646 28.9499 26.304 27.9219C26.1704 27.0672 26.3831 26.6442 27.382 25.7892C27.8943 25.3508 28.1831 25.0091 28.1847 24.8322C28.1883 24.4373 27.286 23.0124 26.9797 22.9299C26.8379 22.8917 26.4086 22.9961 26.0227 23.1584C24.9584 23.6064 24.3886 23.6193 23.6889 23.2131C22.8667 22.7359 22.6523 22.2745 22.7182 21.1272C22.794 19.8097 22.6866 19.5409 21.978 19.2601C21.742 19.1664 21.5358 19.0975 21.3511 19.055L21.3531 19.0531C21.2145 19.0213 21.0876 19.003 20.9722 19.0004ZM19.0002 33.0001C21.2094 33.0001 23.0002 31.2092 23.0002 29.0001C23.0002 26.7909 21.2094 25.0001 19.0002 25.0001C16.7911 25.0001 15.0003 26.7909 15.0003 29.0001C15.0003 31.2092 16.7911 33.0001 19.0002 33.0001Z" fill="url(#paint2_linear_54_1227)"/>
<defs>
<linearGradient id="paint0_linear_54_1227" x1="29" y1="31" x2="29" y2="6" gradientUnits="userSpaceOnUse">
<stop stop-color="#A93AFF"/>
<stop offset="1" stop-color="#FF81FF"/>
</linearGradient>
<linearGradient id="paint1_linear_54_1227" x1="24" y1="36" x2="24" y2="11" gradientUnits="userSpaceOnUse">
<stop stop-color="#A93AFF"/>
<stop offset="1" stop-color="#FF81FF"/>
</linearGradient>
<linearGradient id="paint2_linear_54_1227" x1="19" y1="41" x2="19" y2="16" gradientUnits="userSpaceOnUse">
<stop stop-color="#A93AFF"/>
<stop offset="1" stop-color="#FF81FF"/>
</linearGradient>
</defs>
</svg>
