<svg width="48" height="48" viewBox="0 0 48 48" fill="none" xmlns="http://www.w3.org/2000/svg">
<path fill-rule="evenodd" clip-rule="evenodd" d="M24.3015 16.5769C24.115 16.8658 24.0116 17.1919 24.0005 17.5255C23.9917 17.7951 24.0434 18.0635 24.1525 18.3149C24.2617 18.5663 24.4261 18.7955 24.6359 18.9889C24.8458 19.1823 25.097 19.3361 25.3744 19.441C25.6518 19.5461 25.9499 19.6001 26.2511 19.6H26.4C27.5046 19.6 28.4 20.4954 28.4 21.6V33.9C28.4 35.1151 29.385 36.1 30.6 36.1H39.4C40.6151 36.1 41.6 35.1151 41.6 33.9V21.6C41.6 20.4954 42.4955 19.6 43.6 19.6H43.7486C44.1437 19.6 44.5318 19.5069 44.874 19.3301C45.2161 19.1532 45.5003 18.8987 45.6979 18.5924C45.8954 18.2859 45.9995 17.9384 45.9995 17.5847C45.9996 17.2308 45.8956 16.8833 45.6981 16.5769L41.3221 9.79251L36.9482 3.00816C36.7508 2.70166 36.4666 2.44712 36.1243 2.27014C35.7821 2.09317 35.3939 2 34.9987 2C34.6036 2 34.2153 2.09317 33.8731 2.27014C33.5309 2.44712 33.2467 2.70166 33.0492 3.00816L28.6754 9.79251L24.3015 16.5769Z" fill="url(#paint0_linear_80_343)"/>
<g opacity="0.4">
<path fill-rule="evenodd" clip-rule="evenodd" d="M4.4 28.3999C5.50457 28.3999 6.4 27.5045 6.4 26.3999V14.0999C6.4 12.8848 7.38497 11.8999 8.6 11.8999H17.4C18.6151 11.8999 19.6 12.8848 19.6 14.0999V26.3999C19.6 27.5045 20.4954 28.3999 21.6 28.3999H21.7491C22.1442 28.3999 22.5323 28.493 22.8745 28.6698C23.2166 28.8467 23.5008 29.1012 23.6984 29.4075C23.8959 29.714 24 30.0615 24 30.4152C24 30.7691 23.8962 31.1166 23.6986 31.423L19.3226 38.2074L14.9488 44.9917C14.7513 45.2982 14.4671 45.5527 14.1249 45.7297C13.7827 45.9067 13.3945 45.9999 12.9992 45.9999C12.6041 45.9999 12.2158 45.9067 11.8736 45.7297C11.5314 45.5527 11.2473 45.2982 11.0497 44.9917L6.67589 38.2074L2.30207 31.423C2.11552 31.1341 2.01206 30.808 2.00096 30.4744C1.99217 30.2048 2.04388 29.9364 2.15304 29.685C2.26221 29.4336 2.42659 29.2044 2.63646 29.011C2.84633 28.8176 3.09742 28.6638 3.37486 28.5589C3.65229 28.4538 3.95043 28.3998 4.25161 28.3999H4.4Z" fill="url(#paint1_linear_80_343)"/>
<path fill-rule="evenodd" clip-rule="evenodd" d="M4.4 28.3999C5.50457 28.3999 6.4 27.5045 6.4 26.3999V14.0999C6.4 12.8848 7.38497 11.8999 8.6 11.8999H17.4C18.6151 11.8999 19.6 12.8848 19.6 14.0999V26.3999C19.6 27.5045 20.4954 28.3999 21.6 28.3999H21.7491C22.1442 28.3999 22.5323 28.493 22.8745 28.6698C23.2166 28.8467 23.5008 29.1012 23.6984 29.4075C23.8959 29.714 24 30.0615 24 30.4152C24 30.7691 23.8962 31.1166 23.6986 31.423L19.3226 38.2074L14.9488 44.9917C14.7513 45.2982 14.4671 45.5527 14.1249 45.7297C13.7827 45.9067 13.3945 45.9999 12.9992 45.9999C12.6041 45.9999 12.2158 45.9067 11.8736 45.7297C11.5314 45.5527 11.2473 45.2982 11.0497 44.9917L6.67589 38.2074L2.30207 31.423C2.11552 31.1341 2.01206 30.808 2.00096 30.4744C1.99217 30.2048 2.04388 29.9364 2.15304 29.685C2.26221 29.4336 2.42659 29.2044 2.63646 29.011C2.84633 28.8176 3.09742 28.6638 3.37486 28.5589C3.65229 28.4538 3.95043 28.3998 4.25161 28.3999H4.4Z" fill="url(#paint2_linear_80_343)"/>
</g>
<defs>
<linearGradient id="paint0_linear_80_343" x1="34.9995" y1="36.1" x2="34.9995" y2="2" gradientUnits="userSpaceOnUse">
<stop stop-color="#5558FF"/>
<stop offset="1" stop-color="#00C0FF"/>
</linearGradient>
<linearGradient id="paint1_linear_80_343" x1="13" y1="45.9999" x2="13" y2="11.8999" gradientUnits="userSpaceOnUse">
<stop stop-color="#00B59C"/>
<stop offset="1" stop-color="#9CFFAC"/>
</linearGradient>
<linearGradient id="paint2_linear_80_343" x1="13" y1="45.9999" x2="13" y2="11.8999" gradientUnits="userSpaceOnUse">
<stop stop-color="#5558FF"/>
<stop offset="1" stop-color="#00C0FF"/>
</linearGradient>
</defs>
</svg>
