<svg width="32" height="32" viewBox="0 0 32 32" fill="none" xmlns="http://www.w3.org/2000/svg">
<path opacity="0.35" d="M28.4445 3.75024C29.3062 3.75024 30 4.63848 30 5.50026V22.9997C30 23.8614 29.3062 24.7497 28.4445 24.7497H22.0235L17.9669 23.3506L13.024 22.8281L8.95556 23.1319L5.30414 22.651C4.44982 22.5385 3.85543 22.4183 3.83618 21.5568L3.53012 7.8613C3.51086 6.99974 4.91078 4.02944 5.72601 3.75024H15.1152H28.4445Z" fill="url(#paint0_linear_302_111)"/>
<path d="M3.55587 3.75024C2.69416 3.75024 2 4.63848 2 5.50026V22.9997C2 23.8614 2.69416 24.7497 3.55587 24.7497H7.88583C8.15105 24.7497 8.4054 24.855 8.59294 25.0426L11.093 27.5426C11.4835 27.9331 12.1166 27.9331 12.5072 27.5426L15.0072 25.0426C15.1947 24.855 15.4491 24.7497 15.7143 24.7497H22.1543C22.2972 24.7497 22.439 24.7042 22.5489 24.613V24.613C26.7828 20.931 28.0704 14.3803 24.1445 9.98911C22.6032 8.26526 20.3278 7.2346 18.0782 7.21234C16.4088 7.19585 14.0539 7.73543 12.7216 8.95962C10.6407 10.8722 10.0236 14.2996 12.0859 16.4653C12.8108 17.2266 14.2641 17.6936 15.6727 17.7273C17.5989 17.6209 18.8544 16.3847 19.0285 14.8049C19.0349 12.4575 17.1459 12.3943 16.2932 13.1094C15.9571 13.4739 15.8676 14.1054 16.2754 14.4547C16.4918 14.6394 16.8622 14.6863 17.0561 14.441C17.1512 14.3208 17.1779 14.1162 17.037 14.0172C16.9736 13.9734 16.8708 13.9649 16.8251 14.0377C16.8122 14.0659 16.808 14.1123 16.8428 14.1307C16.8556 14.138 16.8811 14.1385 16.8811 14.1238V14.1238C16.8811 14.1173 16.8708 14.113 16.8731 14.1069C16.8738 14.105 16.8771 14.1034 16.8793 14.1026C16.8805 14.1021 16.8817 14.1016 16.8829 14.1012C16.8881 14.0995 16.8939 14.1004 16.8991 14.103C16.9132 14.11 16.9158 14.1293 16.9118 14.1445C16.9047 14.1708 16.8781 14.192 16.8524 14.1976C16.7664 14.2172 16.7053 14.1354 16.687 14.0609C16.6586 13.8928 16.8189 13.7662 16.9727 13.7478C17.2834 13.7116 17.5127 14.0067 17.5346 14.2906C17.5758 14.8256 17.0647 15.2096 16.5708 15.2312C15.6962 15.2698 14.7387 14.435 14.7204 13.6234C14.6969 12.2605 15.5447 10.7934 17.2798 10.7497C20.5051 10.7103 21.2995 13.3095 21.25 15.2367C21.1751 18.225 19.4037 21.1128 14.8954 21.2497C10.6504 21.0724 7.02281 16.5373 7.25 12.5167C7.37698 10.2636 8.65544 8.30484 10.4131 6.76668C11.2672 6.01922 10.7176 3.75024 9.58261 3.75024H3.55587Z" fill="url(#paint1_linear_302_111)"/>
<defs>
<linearGradient id="paint0_linear_302_111" x1="16.765" y1="24.7497" x2="16.765" y2="3.75024" gradientUnits="userSpaceOnUse">
<stop stop-color="#02AA93"/>
<stop offset="1" stop-color="#67FF80"/>
</linearGradient>
<linearGradient id="paint1_linear_302_111" x1="2" y1="16" x2="26.5006" y2="16" gradientUnits="userSpaceOnUse">
<stop stop-color="#02AA93"/>
<stop offset="1" stop-color="#67FF80"/>
</linearGradient>
</defs>
</svg>
