<svg width="128" height="128" viewBox="0 0 128 128" fill="none" xmlns="http://www.w3.org/2000/svg">
<g opacity="0.4">
<path d="M116.719 47.8152H110.875C108.666 47.8152 106.875 46.0244 106.875 43.8152V18.284C106.875 15.8456 104.299 14.2621 102.126 15.3489L49.8807 41.2527H17.8437C12.4157 41.2527 8 45.6684 8 51.0965V70.7839C8 76.212 12.4157 80.6277 17.8437 80.6277V80.6277C19.6559 80.6277 21.125 82.0967 21.125 83.9089V110.159C21.125 111.973 22.5926 113.44 24.4062 113.44H37.5312C39.0948 113.44 40.4408 112.335 40.7483 110.803L46.176 83.665C46.5292 81.8989 48.0799 80.6277 49.8809 80.6277V80.6277L102.126 106.532C104.327 107.625 106.875 106.016 106.875 103.596V78.0652C106.875 75.8561 108.666 74.0652 110.875 74.0652H116.719C118.532 74.0652 120 72.5976 120 70.7839V51.0965C120 49.2828 118.532 47.8152 116.719 47.8152ZM35.4748 103.717C35.1073 105.555 33.4936 106.878 31.6193 106.878V106.878C29.4478 106.878 27.6875 105.117 27.6875 102.946V84.6277C27.6875 82.4185 29.4783 80.6277 31.6875 80.6277H35.2125C37.7366 80.6277 39.6297 82.9368 39.1348 85.412L35.4748 103.717ZM100.312 91.842C100.312 94.809 97.1957 96.7433 94.537 95.4265L56.1621 76.42C54.7995 75.7452 53.9374 74.3561 53.9374 72.8356V49.0451C53.9374 47.5245 54.7995 46.1355 56.1621 45.4606L94.537 26.4542C97.1957 25.1374 100.312 27.0717 100.312 30.0386V91.842ZM113.437 64.2215C113.437 66.0336 111.968 67.5027 110.156 67.5027V67.5027C108.344 67.5027 106.875 66.0336 106.875 64.2215V57.659C106.875 55.8468 108.344 54.3777 110.156 54.3777V54.3777C111.968 54.3777 113.437 55.8468 113.437 57.659V64.2215Z" fill="url(#paint0_linear_60_159)"/>
</g>
<path fill-rule="evenodd" clip-rule="evenodd" d="M116.619 47.8168H110.775C108.566 47.8168 106.775 46.0259 106.775 43.8168V18.2856C106.775 15.8472 104.2 14.2636 102.026 15.3504L52.0043 40.152C50.6426 40.8272 49.7811 42.2158 49.7811 43.7357L49.7813 78.1478C49.7813 79.6677 50.6428 81.0563 52.0045 81.7315L102.027 106.533C104.228 107.626 106.775 106.017 106.775 103.598V78.0667C106.775 75.8576 108.566 74.0667 110.775 74.0667H116.619C118.433 74.0667 119.9 72.5991 119.9 70.7855V51.098C119.9 49.2844 118.433 47.8168 116.619 47.8168ZM113.338 64.2229C113.338 66.0351 111.869 67.5042 110.057 67.5042V67.5042C108.244 67.5042 106.775 66.0351 106.775 64.2229V57.6604C106.775 55.8483 108.244 54.3792 110.057 54.3792V54.3792C111.869 54.3792 113.338 55.8483 113.338 57.6604V64.2229Z" fill="url(#paint1_linear_60_159)"/>
<defs>
<linearGradient id="paint0_linear_60_159" x1="63.9999" y1="113.44" x2="63.9999" y2="15" gradientUnits="userSpaceOnUse">
<stop stop-color="#5570FF"/>
<stop offset="1" stop-color="#4DFFF4"/>
</linearGradient>
<linearGradient id="paint1_linear_60_159" x1="63.9003" y1="113.442" x2="63.9003" y2="15.0015" gradientUnits="userSpaceOnUse">
<stop stop-color="#5570FF"/>
<stop offset="1" stop-color="#4DFFF4"/>
</linearGradient>
</defs>
</svg>
