<svg width="16" height="16" viewBox="0 0 16 16" fill="none" xmlns="http://www.w3.org/2000/svg">
<path opacity="0.4" d="M8 12.375C10.4162 12.375 12.375 10.4162 12.375 8C12.375 5.58375 10.4162 3.625 8 3.625C5.58375 3.625 3.625 5.58375 3.625 8C3.625 10.4162 5.58375 12.375 8 12.375Z" fill="url(#paint0_linear_297_125)"/>
<path d="M8 1C4.122 1 1 4.122 1 8C1 11.878 4.122 15 8 15C11.878 15 15 11.878 15 8C15 4.122 11.878 1 8 1ZM8 4.5C8.69619 4.5 9.36387 4.86875 9.85616 5.52513C10.3484 6.1815 10.625 7.07174 10.625 8C10.625 8.92826 10.3484 9.8185 9.85616 10.4749C9.36387 11.1313 8.69619 11.5 8 11.5C7.30381 11.5 6.63613 11.1313 6.14384 10.4749C5.65156 9.8185 5.375 8.92826 5.375 8C5.375 7.07174 5.65156 6.1815 6.14384 5.52513C6.63613 4.86875 7.30381 4.5 8 4.5Z" fill="url(#paint1_linear_297_125)"/>
<defs>
<linearGradient id="paint0_linear_297_125" x1="8" y1="12.375" x2="8" y2="3.625" gradientUnits="userSpaceOnUse">
<stop stop-color="#5570FF"/>
<stop offset="1" stop-color="#4DD3FF"/>
</linearGradient>
<linearGradient id="paint1_linear_297_125" x1="8" y1="15" x2="8" y2="1" gradientUnits="userSpaceOnUse">
<stop stop-color="#5570FF"/>
<stop offset="1" stop-color="#4DD3FF"/>
</linearGradient>
</defs>
</svg>
