<svg width="128" height="128" viewBox="0 0 128 128" fill="none" xmlns="http://www.w3.org/2000/svg">
<path opacity="0.4" d="M49.7966 115C38.4713 115.015 27.5917 110.588 19.4942 102.67C2.55019 85.0625 2.88109 57.1131 20.2372 39.9115L47.4643 12.689C58.589 1.24431 76.4494 -0.244674 89.3157 9.20011C103.023 19.7237 105.604 39.3666 95.08 53.0738C94.258 54.1444 93.368 55.1608 92.415 56.1163L63.9226 84.6082C60.7161 87.9609 56.4605 90.1175 51.8609 90.7213C45.6261 91.4044 39.454 88.9801 35.3507 84.2366C29.06 76.178 29.7325 64.7015 36.9213 57.4327L58.6419 35.7311C61.3963 32.9775 65.8613 32.9775 68.6157 35.7311C71.3693 38.4855 71.3693 42.9505 68.6157 45.7049L46.2275 68.098C44.2575 70.0693 44.2586 73.2642 46.2299 75.2339C48.2012 77.2036 51.396 77.2028 53.3657 75.2315L82.1164 46.4857C88.0187 40.7465 89.1103 31.6642 84.7357 24.6899C79.5698 16.7325 68.9314 14.4694 60.974 19.6353C59.9777 20.2821 59.0512 21.0304 58.2092 21.8685L29.8348 50.2664C19.11 60.6803 17.7166 77.4119 26.5714 89.4565C36.4203 102.284 54.8029 104.698 67.6298 94.8488C68.632 94.0793 69.5834 93.2456 70.4779 92.3531L92.871 69.9648C95.625 67.2113 100.09 67.2113 102.845 69.9648C105.598 72.7193 105.598 77.1842 102.845 79.9387L80.4517 102.327C72.3266 110.462 61.2943 115.023 49.7966 115Z" fill="url(#paint0_linear_60_146)"/>
<path d="M57.7966 120C46.4713 120.015 35.5917 115.588 27.4942 107.67C10.5502 90.0625 10.8811 62.1131 28.2372 44.9115L55.4643 17.689C66.589 6.24431 84.4494 4.75533 97.3157 14.2001C111.023 24.7237 113.604 44.3666 103.08 58.0738C102.258 59.1444 101.368 60.1608 100.415 61.1163L71.9226 89.6082C68.7161 92.9609 64.4605 95.1175 59.8609 95.7213C53.6261 96.4044 47.454 93.9801 43.3507 89.2366C37.06 81.178 37.7325 69.7015 44.9213 62.4327L66.6419 40.7311C69.3963 37.9775 73.8613 37.9775 76.6157 40.7311C79.3693 43.4855 79.3693 47.9505 76.6157 50.7049L54.2275 73.098C52.2575 75.0693 52.2586 78.2642 54.2299 80.2339C56.2012 82.2036 59.396 82.2028 61.3657 80.2315L90.1164 51.4857C96.0187 45.7465 97.1103 36.6642 92.7357 29.6899C87.5698 21.7325 76.9314 19.4694 68.974 24.6353C67.9777 25.2821 67.0512 26.0304 66.2092 26.8685L37.8348 55.2664C27.11 65.6803 25.7166 82.4119 34.5714 94.4565C44.4203 107.284 62.8029 109.698 75.6298 99.8488C76.632 99.0793 77.5834 98.2456 78.4779 97.3531L100.871 74.9648C103.625 72.2113 108.09 72.2113 110.845 74.9648C113.598 77.7193 113.598 82.1842 110.845 84.9387L88.4517 107.327C80.3266 115.462 69.2943 120.023 57.7966 120Z" fill="url(#paint1_linear_60_146)" stroke="url(#paint2_linear_60_146)" stroke-width="2"/>
<defs>
<linearGradient id="paint0_linear_60_146" x1="55.9549" y1="115" x2="55.9549" y2="3" gradientUnits="userSpaceOnUse">
<stop stop-color="#FD5900"/>
<stop offset="1" stop-color="#FFDE00"/>
</linearGradient>
<linearGradient id="paint1_linear_60_146" x1="63.9549" y1="120" x2="63.9549" y2="8" gradientUnits="userSpaceOnUse">
<stop stop-color="#FD5900"/>
<stop offset="1" stop-color="#FFDE00"/>
</linearGradient>
<linearGradient id="paint2_linear_60_146" x1="63.9549" y1="120" x2="63.9549" y2="8" gradientUnits="userSpaceOnUse">
<stop stop-color="#FD5900"/>
<stop offset="1" stop-color="#FFDE00"/>
</linearGradient>
</defs>
</svg>
