<svg width="32" height="32" viewBox="0 0 32 32" fill="none" xmlns="http://www.w3.org/2000/svg">
<path opacity="0.5" d="M1 15.75C1 9.73965 1 6.73448 3.196 4.8666C5.395 3 8.929 3 16 3C23.071 3 26.6065 3 28.8025 4.8666C31 6.73575 31 9.73965 31 15.75C31 21.7604 31 24.7655 28.8025 26.6321C26.608 28.5 23.071 28.5 16 28.5C8.929 28.5 5.3935 28.5 3.196 26.6321C1 24.7668 1 21.7604 1 15.75Z" fill="url(#paint0_linear_228_287)"/>
<path d="M7.70272 24.4768C7.70272 24.0593 7.36435 23.721 6.94694 23.721H5.20273C4.65647 23.721 4.21436 23.2788 4.21436 22.7326C4.21436 22.1862 4.65647 21.7442 5.20273 21.7442H6.94694C7.36435 21.7442 7.70272 21.4058 7.70272 20.9884C7.70272 20.4421 8.14485 20 8.6911 20C9.23735 20 9.67949 20.4421 9.67949 20.9884C9.67949 21.4058 10.0179 21.7442 10.4353 21.7442H26.133C26.6792 21.7442 27.1213 22.1862 27.1213 22.7326C27.1213 23.2788 26.6792 23.721 26.133 23.721H10.4353C10.0179 23.721 9.67949 24.0593 9.67949 24.4768C9.67949 25.023 9.23735 25.4651 8.6911 25.4651C8.14485 25.4651 7.70272 25.023 7.70272 24.4768Z" fill="url(#paint1_linear_228_287)" stroke="url(#paint2_linear_228_287)"/>
<path d="M21.1667 12.5067C21.1667 12.8542 21.0625 13.203 20.8542 13.4824C20.8151 13.5372 20.6328 13.7631 20.4896 13.9101L20.4115 13.9903C19.3177 15.2079 16.5964 17.039 15.2161 17.6258C15.2161 17.6391 14.3958 17.988 14.0052 18H13.9531C13.3542 18 12.7943 17.6538 12.5078 17.0925C12.3516 16.7837 12.2083 15.8882 12.1953 15.8762C12.0781 15.0729 12 13.8433 12 12.4933C12 11.0779 12.0781 9.79344 12.2213 9.00486C12.2213 8.99149 12.3646 8.26974 12.4557 8.02916C12.599 7.68299 12.8594 7.38761 13.1849 7.20049C13.4453 7.06817 13.7188 7 14.0052 7C14.3047 7.0147 14.8646 7.21385 15.0859 7.30741C16.5443 7.8955 19.3307 9.82017 20.3984 10.9964C20.5807 11.1835 20.776 11.412 20.8281 11.4642C21.0495 11.7582 21.1667 12.1191 21.1667 12.5067Z" fill="url(#paint3_linear_228_287)"/>
<defs>
<linearGradient id="paint0_linear_228_287" x1="3.14286" y1="15.75" x2="27.3762" y2="12.5995" gradientUnits="userSpaceOnUse">
<stop stop-color="#8D01A2"/>
<stop offset="1" stop-color="#FF00D2"/>
</linearGradient>
<linearGradient id="paint1_linear_228_287" x1="-19.4576" y1="24.0692" x2="21.876" y2="-5.88932" gradientUnits="userSpaceOnUse">
<stop stop-color="#8D01A2"/>
<stop offset="1" stop-color="#FF00D2"/>
</linearGradient>
<linearGradient id="paint2_linear_228_287" x1="-19.4576" y1="24.0692" x2="21.876" y2="-5.88932" gradientUnits="userSpaceOnUse">
<stop stop-color="#8D01A2"/>
<stop offset="1" stop-color="#FF00D2"/>
</linearGradient>
<linearGradient id="paint3_linear_228_287" x1="2.52723" y1="15.1904" x2="27.2438" y2="11.6287" gradientUnits="userSpaceOnUse">
<stop stop-color="#8D01A2"/>
<stop offset="1" stop-color="#FF00D2"/>
</linearGradient>
</defs>
</svg>
