<svg width="128" height="128" viewBox="0 0 128 128" fill="none" xmlns="http://www.w3.org/2000/svg">
<path opacity="0.4" d="M11 38C11 22.536 23.536 10 39 10H89C104.464 10 117 22.536 117 38V90C117 105.464 104.464 118 89 118H39C23.536 118 11 105.464 11 90V38Z" fill="url(#paint0_linear_247_76)"/>
<path d="M50.921 97.3189C49.7376 97.2465 48.7276 96.9535 47.9186 96.4475C47.6433 96.2752 47.583 96.1769 47.583 95.9009C47.583 95.7555 47.5983 95.7019 47.678 95.5649C47.786 95.3799 48.0493 95.1532 48.358 94.9802C48.6593 94.8112 49.514 94.4662 49.8026 94.3965C50.2913 94.2792 50.676 94.0949 51.0426 93.8029C51.3946 93.5222 51.7013 93.0845 51.8273 92.6832C51.8593 92.5812 51.984 92.3205 52.104 92.1035C53.6613 89.2932 54.305 86.0655 53.9193 83.0032C53.8845 82.6996 53.8556 82.3953 53.8326 82.0905C53.7173 80.5792 53.5026 79.3545 53.1053 77.9472C53.044 77.7309 53.0003 77.5009 52.9883 77.3309C52.8996 76.0959 52.648 74.5859 52.2996 73.1999C52.126 72.5072 52.114 72.3259 52.1086 70.3142C52.1033 68.2229 52.0786 67.7572 51.9333 67.0589C51.8666 66.7385 51.7426 66.2945 51.72 66.2945C51.709 66.2945 51.608 66.3509 51.496 66.4202C50.6626 66.9349 49.54 67.3482 48.3893 67.5635C48.2158 67.5963 48.0441 67.638 47.875 67.6885C47.6056 67.7769 47.2023 67.7985 46.926 67.7399C46.472 67.6435 46.0826 67.3859 45.86 67.0352C45.6773 66.7475 45.49 66.6762 45.2143 66.7889C45.1463 66.8169 44.9283 66.9665 44.7303 67.1222C44.3503 67.4205 44.1986 67.5029 44.0293 67.5029C43.899 67.5029 43.794 67.4349 43.668 67.2685C43.4513 66.9822 42.094 65.9695 41.1723 65.4062C40.9984 65.3008 40.8292 65.1881 40.665 65.0682C40.1756 64.6885 39.504 64.3805 38.836 64.2302L38.6693 64.1927C38.5799 64.1726 38.5028 64.1166 38.456 64.0379V64.0379C38.384 63.9159 38.3833 63.9082 38.391 63.3612C38.401 62.6525 38.3863 62.6012 38.1093 62.3735C38.0016 62.2852 37.885 62.1732 37.85 62.1245C37.7363 61.9675 37.548 61.9402 37.1856 62.0279C36.5923 62.1712 36.48 62.0652 36.1323 61.0359C36.0466 60.7819 35.939 60.4979 35.8923 60.4052C35.718 60.0539 35.4903 59.8399 35.127 59.6849C34.7506 59.5245 34.258 58.9659 34.0063 58.4145C33.7303 57.8102 33.617 57.1615 33.55 55.8005C33.514 55.0632 33.474 54.5732 33.418 54.1729C33.2126 52.7039 33.2313 50.6182 33.4646 48.9075V48.9075C33.5037 48.6219 33.5919 48.3453 33.7255 48.0898L33.7816 47.9825C34.1205 47.3365 34.4409 46.681 34.7426 46.0169C35.0513 45.3382 35.4773 44.3335 35.4773 44.2835C35.4773 44.2375 35.1663 44.0529 34.8956 43.9386C34.4046 43.7309 33.8716 43.6212 32.5713 43.4602C32.1376 43.4065 31.626 43.3329 31.4346 43.2969C30.3296 43.0876 29.6506 42.7139 29.189 42.0616C29.1083 41.9472 29.0713 41.8562 29.035 41.6792C28.8953 41.0039 29.172 40.3149 29.903 39.5176C30.2286 39.1626 31.5396 38.0536 31.812 37.9032C32.3073 37.6289 32.786 37.5289 33.973 37.4519C34.7546 37.4009 35.222 37.3382 35.6163 37.2312C35.958 37.1386 36.2663 37.0866 36.7186 37.0446C37.624 36.9606 38.0363 36.8502 38.3393 36.6112C38.496 36.4872 38.6393 36.2776 38.6916 36.0952C38.7773 35.7959 39.0706 35.4662 39.4346 35.2606C39.5146 35.2152 39.8173 35.0752 40.1063 34.9496C40.7096 34.6876 40.9176 34.5762 41.143 34.3936C41.2316 34.3222 41.33 34.2526 41.3623 34.2389C41.6246 34.1282 42.0153 34.1006 42.3346 34.1706C42.59 34.2262 42.8393 34.3262 43.4596 34.6209C43.9803 34.8682 44.474 35.0466 44.641 35.0469C44.7726 35.0476 45.6143 35.5152 46.2333 35.9316C46.9146 36.3902 48.1433 37.4849 48.343 37.8102C48.4063 37.9136 48.4863 38.2382 48.5596 38.6889C48.6346 39.1476 48.705 39.3856 48.8236 39.5842C48.9086 39.7262 48.9956 39.8089 49.3703 40.1029C49.7256 40.3819 50.1123 41.0372 50.2796 41.6446C50.4576 42.2896 50.5056 42.9796 50.4653 44.3202C50.445 45.0019 50.4456 45.4969 50.468 45.9685C50.4926 46.4909 50.4916 46.7052 50.4633 46.9222C50.4007 47.4191 50.2461 47.9 50.0073 48.3402C49.9306 48.4846 49.8696 48.6442 49.8493 48.7565C49.7976 49.0399 49.6943 49.2682 49.3353 49.8939C48.8453 50.7479 48.7943 50.9129 48.8413 51.4925C48.856 51.6735 48.859 51.9232 48.848 52.0475C48.797 52.6142 48.7866 53.0709 48.822 53.1895C48.8993 53.4485 49.0863 53.5595 49.4083 53.5362C49.5126 53.5289 49.6196 53.5159 49.6463 53.5072C49.7696 53.4665 49.9416 52.9989 50.094 52.2862C50.2073 51.7589 50.3116 51.3849 50.3893 51.2302C50.4146 51.1802 50.5586 50.8265 50.71 50.4439C51.188 49.2345 51.6306 48.3152 52.169 47.4155C52.977 46.0642 53.779 45.1105 54.8443 44.2335C55.4733 43.7159 56.0353 43.3542 56.739 43.0149C56.9977 42.8871 57.2464 42.7399 57.483 42.5746C57.9296 42.2629 58.8473 41.5106 59.2493 41.1266C60.5723 39.8616 61.6119 38.3999 62.3023 36.8336C62.5149 36.3516 62.5836 36.2486 62.9103 35.9199C63.2113 35.6169 63.541 35.3366 64.2796 34.7552C65.2243 34.0119 65.5803 33.6739 65.9393 33.1812V33.1812C66.0619 33.0132 66.2433 32.8976 66.4474 32.8576L66.728 32.8026C67.8543 32.5822 69.1696 32.2556 69.5456 32.1029C69.8537 31.9684 70.1597 31.829 70.4633 31.6846C71.2469 31.3159 71.7359 31.1286 72.1596 31.0349C72.3906 30.9839 72.5446 30.9699 73.0796 30.9516C74.1023 30.9172 74.8023 30.8549 75.7463 30.7149C76.2733 30.6369 76.1789 30.6249 77.1683 30.8979C77.8256 31.0792 78.7729 31.3856 79.2456 31.5699C79.6249 31.7179 80.1843 32.0569 80.7796 32.4999C82.3259 33.6509 83.4783 35.3156 83.9163 37.0326C84.0266 37.4659 84.4083 38.2989 84.7946 38.9506C85.3696 39.9206 85.9923 40.7309 87.6129 42.6186C88.5366 43.6946 88.9549 44.2019 89.3313 44.7026C90.0863 45.7062 90.6226 46.6062 90.9703 47.4525C91.0399 47.6219 91.2133 47.9535 91.3553 48.1892C92.6553 50.3469 94.3236 52.3445 96.2999 54.1102C96.578 54.3532 96.8173 54.6374 97.0093 54.9529C97.4049 55.5845 97.6426 56.2925 97.9039 57.6162C98.0569 58.3902 98.1423 58.7659 98.2583 59.1715C98.3613 59.5332 98.3619 59.5342 98.5483 59.7342C99.0343 60.2549 99.1396 60.8005 98.8083 61.0805C98.6939 61.1772 98.4769 61.2632 98.3473 61.2632C98.2933 61.2632 98.2909 61.2762 98.3066 61.4792C98.3156 61.5979 98.3766 61.9045 98.4423 62.1605C98.5076 62.4165 98.5759 62.7275 98.5939 62.8512C98.6529 63.2582 98.5776 63.6235 98.3769 63.9029C98.3229 63.9779 98.2293 64.1775 98.1683 64.3469C97.6626 65.7535 96.9513 67.2349 96.0309 68.7975L95.5456 69.6229C95.3446 69.9675 94.9063 70.2402 94.5539 70.2402C94.4073 70.2402 94.3739 70.2305 94.2789 70.1602C94.1253 70.0462 94.0719 69.9232 94.0196 69.5605C93.9796 69.2974 93.9358 69.0348 93.8883 68.7729C93.7613 68.0735 93.7139 67.7255 93.6943 67.3425C93.6559 66.5995 93.8239 65.9819 94.1923 65.5085C94.3539 65.3012 94.3866 65.2199 94.4853 64.7775C94.6219 64.1659 94.6779 63.4325 94.6429 62.7119C94.6099 62.0289 94.4659 61.2812 94.2493 60.6715C94.1426 60.3702 94.1403 60.3549 94.1483 60.0179C94.1696 59.1239 93.9216 58.3055 93.4023 57.5579C93.3293 57.4525 93.2579 57.3605 93.2439 57.3532C93.1973 57.3289 92.9566 57.5422 92.8846 57.6715C92.7909 57.8399 92.7323 58.0875 92.6766 58.5505C92.6513 58.7605 92.6049 59.0159 92.5743 59.1175C92.5066 59.3392 92.4263 59.7685 92.3273 60.4372C91.8146 63.8962 91.9666 67.2519 92.7939 70.7212C92.8813 71.0875 92.9659 71.4872 92.9823 71.6092C93.0246 71.9262 93.0189 72.5895 92.9689 73.1652C92.8766 74.2285 92.8623 74.5755 92.8953 74.9609C92.9446 75.5382 92.9723 75.6289 93.1659 75.8429C93.5953 76.3179 93.7559 76.7759 93.7529 77.5159C93.7509 78.0145 93.7093 78.2762 93.4673 79.3285C93.3799 79.7082 93.2816 80.1909 93.2489 80.4012C93.2027 80.6935 93.1542 80.9854 93.1033 81.2769C92.6363 83.9455 92.8789 86.6885 93.8089 89.2549C93.9053 89.5205 93.9516 89.7045 93.9883 89.9702C94.0849 90.6659 94.2689 91.4545 94.5006 92.1675L94.5657 92.3682C94.5975 92.4659 94.5829 92.5728 94.5263 92.6585V92.6585C94.1186 93.2732 93.4433 93.7149 92.6116 93.9099C92.3509 93.9712 92.2826 93.9769 91.8296 93.9759C91.2899 93.9745 91.1309 93.9492 90.7343 93.8022C90.5469 93.7329 90.5383 93.7322 90.0916 93.7422C89.0779 93.7655 88.8036 93.7575 88.6569 93.7012C88.4791 93.6318 88.3301 93.5042 88.2343 93.3392C88.1073 93.1092 88.1526 92.6559 88.3456 92.2269C88.3946 92.1182 88.5769 91.7795 88.7506 91.4735C89.1913 90.6995 89.3323 90.3135 89.3323 89.8839C89.3323 89.8112 89.3709 89.6255 89.4179 89.4719C89.7226 88.4735 90.0043 87.1685 90.1486 86.0859C90.4579 83.7642 90.3993 81.5779 89.9629 79.1522C89.8219 78.3699 89.7869 78.0865 89.6679 76.7759C89.5123 75.0599 89.4006 74.3239 89.1803 73.5609C89.0936 73.2605 89.0789 73.2319 88.8999 73.0185C87.6196 71.4919 86.7669 69.9712 86.1529 68.1195C86.0743 67.8819 85.9019 67.4492 85.7703 67.1575C85.1939 65.8822 84.5896 64.2485 84.1899 62.8849C84.1549 62.7662 84.1183 62.6692 84.1083 62.6692C84.0983 62.6692 84.0683 62.6999 84.0419 62.7369L83.7459 63.1522C82.2529 65.2422 81.3466 67.5855 81.0513 70.1172C80.9879 70.6605 80.9633 72.0085 81.0069 72.5339C81.0259 72.7579 81.0533 73.1685 81.0679 73.4465C81.0873 73.8049 81.1286 74.1462 81.2103 74.6179C81.4126 75.7872 81.4296 76.1662 81.2999 76.6279C81.2243 76.8972 81.0199 77.2459 80.8349 77.4209C80.7549 77.4969 80.3696 77.9625 79.9783 78.4559C79.5869 78.9492 79.0106 79.6749 78.6976 80.0682C77.1786 81.9779 76.4173 83.2232 75.9393 84.5802C75.7383 85.1505 75.9756 85.5115 76.8489 85.9639C77.6419 86.3749 77.8203 86.5215 78.0759 86.9739C78.5496 87.8101 78.8658 88.7262 79.0086 89.6765C79.0606 90.0189 79.1006 90.9842 79.0699 91.1562C79.0503 91.2669 79.0486 91.2682 78.8393 91.3452C78.7233 91.3879 78.4576 91.4889 78.2489 91.5695C77.3176 91.9299 76.7889 91.9915 76.3169 91.7952C76.0606 91.6885 75.9036 91.5275 75.5013 90.9589C75.0013 90.2515 73.9529 88.9245 73.8533 88.8725C73.7773 88.8332 73.6396 89.2725 73.5319 89.8962C73.4003 90.6612 73.2819 90.9452 72.9949 91.1869C72.8006 91.3502 72.6449 91.4192 72.1596 91.5569C71.0453 91.8722 69.9673 92.0179 68.746 92.0182C67.9403 92.0182 67.4866 91.9839 66.7173 91.8642C66.3756 91.8112 66.3703 91.8092 66.2726 91.7082C65.8769 91.3005 66.0169 90.7559 66.6476 90.2499C67.0299 89.9432 67.2399 89.8359 67.9876 89.5645C68.7826 89.2759 69.5026 88.7245 69.9699 88.0465C70.1019 87.8549 70.3479 87.3729 70.3486 87.3049C70.3486 87.2835 70.4093 87.2002 70.4833 87.1199C70.6559 86.9322 70.7473 86.7789 70.8013 86.5859C70.9199 86.1609 70.7813 85.7432 70.4129 85.4155C70.3213 85.3339 70.0996 85.1239 69.9203 84.9489C69.5133 84.5512 68.5269 83.7295 67.9099 83.2735C67.4159 82.9133 66.9194 82.5563 66.4206 82.2025C64.8489 81.0865 64.2563 80.6365 63.558 80.0285C63.167 79.6882 63.0219 79.5179 62.8153 79.1559C62.182 78.0465 62.1269 76.6069 62.6409 74.6055C62.7163 74.3122 62.752 74.2299 62.94 73.9149C63.1695 73.5369 63.3398 73.1261 63.4449 72.6965C63.5586 72.2442 63.5746 71.5729 63.4853 71.0255C63.3836 70.4029 63.4153 70.1499 63.708 69.2472C63.8876 68.6942 63.9676 68.3869 63.9976 68.1399L64.0003 68.1172C64.0097 68.0384 63.9542 67.9666 63.8756 67.9559V67.9559C63.6563 67.9259 62.4833 67.9342 62.1566 67.9682C61.6389 68.0203 61.1253 68.1074 60.6193 68.2289V68.2289C60.5236 68.2523 60.4555 68.3368 60.4529 68.4353L60.438 69.0015C60.404 70.2949 60.2686 71.7865 60.083 72.9105C60.0453 73.1379 60.0363 73.1579 59.9213 73.2682C59.633 73.5445 59.245 74.1129 59.067 74.5192C58.8926 74.9182 58.8023 75.2615 58.754 75.7132C58.7226 76.0035 58.715 76.0279 58.6063 76.1802C58.4683 76.3732 58.3963 76.5302 58.326 76.7905C58.2813 76.9569 58.272 77.1342 58.2623 77.9965C58.247 79.4039 58.247 79.3755 58.2716 80.1175C58.2893 80.6505 58.2843 80.8649 58.247 81.1905C58.1374 82.1652 57.8526 83.1121 57.4063 83.9855C57.1556 84.4809 56.936 85.1989 56.7566 86.1105C56.588 86.9669 56.519 87.5225 56.3446 89.4275C56.232 90.6599 56.1833 91.1085 56.0953 91.7212C55.9573 92.6812 55.7026 93.7712 55.575 93.9482C55.4003 94.1909 55.3593 94.4969 55.408 95.1985C55.4653 96.0282 55.4096 96.2845 55.1143 96.5542C54.9243 96.7275 54.729 96.8165 54.2563 96.9452C53.1576 97.2442 51.9383 97.3809 50.921 97.3189ZM73.4076 82.9739C73.5133 82.9315 73.6656 82.7595 73.6983 82.6455C73.7079 82.6115 73.7973 82.4785 73.8966 82.3495C74.7389 81.2585 75.3189 80.0592 75.6199 78.7859C75.7513 78.2312 75.8053 77.8575 75.8449 77.2322C75.8743 76.7692 75.8709 76.6292 75.8136 75.9125C75.5609 72.7595 75.1303 69.5905 74.5676 66.7395C74.4863 66.3279 74.4233 66.0742 74.3963 66.0515C74.3379 66.0022 74.2016 66.0509 74.0333 66.1815C73.7899 66.3709 73.6859 66.6352 73.5913 67.3052C73.5293 67.7432 73.4826 67.9382 73.3989 68.1072C73.3236 68.2589 73.2486 68.5905 73.1673 69.1305C73.0093 70.1772 72.8166 70.5789 72.3506 70.8335C72.1966 70.9175 72.1466 70.9619 72.0896 71.0635C71.9269 71.3542 71.8356 71.6789 71.7666 72.2135C71.6373 73.2145 71.5663 73.5132 71.3859 73.8159V73.8159C71.3161 73.9329 71.289 74.0705 71.3093 74.2053L71.3246 74.3075C71.4016 74.8209 71.3666 75.1842 71.2166 75.4329C71.0706 75.6749 70.9066 75.7542 70.4826 75.7879C69.9923 75.8272 69.7346 75.9829 69.2019 76.5625C69.0416 76.7369 68.8319 76.9422 68.7356 77.0189C68.4006 77.2855 67.9116 77.9965 67.7746 78.4159C67.6796 78.7069 67.6859 79.0409 67.7913 79.3039C67.8843 79.5355 67.9663 79.6532 68.2889 80.0189C68.5262 80.2976 68.7574 80.5813 68.9826 80.8699C69.4839 81.5092 69.8096 81.8552 70.1083 82.0659C70.5449 82.3745 70.9239 82.5072 71.5169 82.5602C71.9439 82.5982 71.8879 82.5839 72.4079 82.7889C72.6326 82.8775 72.8693 82.9639 72.9336 82.9812C73.0989 83.0252 73.2873 83.0222 73.4076 82.9739Z" fill="url(#paint1_linear_247_76)"/>
<defs>
<linearGradient id="paint0_linear_247_76" x1="64" y1="118" x2="64" y2="10" gradientUnits="userSpaceOnUse">
<stop stop-color="#5570FF"/>
<stop offset="1" stop-color="#4DD3FF"/>
</linearGradient>
<linearGradient id="paint1_linear_247_76" x1="64" y1="97.3335" x2="64" y2="30.6665" gradientUnits="userSpaceOnUse">
<stop stop-color="#5570FF"/>
<stop offset="1" stop-color="#4DD3FF"/>
</linearGradient>
</defs>
</svg>
