<svg width="256" height="256" viewBox="0 0 256 256" fill="none" xmlns="http://www.w3.org/2000/svg">
<path fill-rule="evenodd" clip-rule="evenodd" d="M108.52 33.2533C107.933 28.2933 112.307 23.44 117.333 23.7067C121.248 24.2197 125.013 25.3826 128.774 26.5442C130.291 27.0128 131.808 27.4812 133.333 27.9067C136.327 28.8692 139.342 29.8022 142.363 30.7369C157.252 35.3435 172.274 39.9915 185.453 48.4267C199.04 56.7733 206.787 72.1067 208.187 87.7067C208.8 99.56 209.187 111.987 204.547 123.173C201.533 130.347 195.56 136.72 187.8 138.56C180.784 140.317 173.598 138.291 166.994 135.879C166.874 135.835 166.758 135.78 166.649 135.714C165.276 134.875 163.762 133.794 163.813 131.987C163.572 127.218 163.612 122.434 163.653 117.651C163.677 114.846 163.701 112.042 163.667 109.24C163.66 108.618 163.362 108.033 162.846 107.686C162.39 107.379 161.916 107.079 161.438 106.776C158.774 105.089 155.992 103.326 155.547 99.9733C154.413 94.7467 159.867 89.6267 165.013 91.2667C168.419 92.5739 171.653 94.264 174.887 95.954L174.887 95.954L174.887 95.9542C176.304 96.6947 177.721 97.4352 179.152 98.1435C179.826 98.4769 180.266 99.1531 180.281 99.9047C180.381 104.714 180.366 109.529 180.35 114.344C180.344 116.471 180.337 118.598 180.34 120.725C180.342 121.853 181.287 122.771 182.392 122.542C185.024 121.995 187.421 120.551 188.76 118.107C192.457 111.667 192.159 103.92 191.882 96.7065C191.875 96.5285 191.869 96.3508 191.862 96.1734C191.859 96.0978 191.856 96.0222 191.853 95.9467C191.764 94.8912 191.687 93.8286 191.61 92.7629C191.189 86.9626 190.761 81.0682 188.373 75.7067C185.736 68.9493 178.839 65.8717 172.62 63.0966C172.237 62.9257 171.857 62.756 171.48 62.5867C166.296 60.5678 161.146 58.4512 155.994 56.3343C146.648 52.4936 137.299 48.6519 127.746 45.3908C126.463 44.9529 125.137 45.9057 125.127 47.261C124.966 71.2638 124.986 95.2723 125.007 119.281C125.029 144.897 125.051 170.514 124.851 196.123C124.845 196.975 125.378 197.738 126.18 198.026C126.837 198.262 127.524 198.509 127.96 198.667C128.603 198.875 129.249 199.081 129.897 199.285C131.167 199.684 132.454 198.738 132.467 197.406C132.661 177.437 132.632 157.464 132.602 137.492C132.578 121.078 132.554 104.664 132.653 88.2533C132.693 83.8533 136.8 79.8933 141.24 80.3067C144.84 80.2938 147.728 83.1147 148.974 86.3052C149.056 86.5167 149.093 86.7427 149.093 86.9697C149.093 96.8674 149.092 106.765 149.091 116.663C149.086 151.092 149.082 185.521 149.131 219.95C149.132 220.989 148.337 221.867 147.299 221.848C143.204 221.77 139.338 220.312 135.501 218.863C134.258 218.394 133.017 217.926 131.773 217.507C128.831 216.413 125.853 215.415 122.873 214.417C118.561 212.974 114.247 211.529 110.042 209.791C109.519 209.574 109.19 209.051 109.214 208.485V208.485C109.222 208.297 109.19 208.11 109.127 207.932C108.273 205.542 108.346 203.007 108.418 200.487C108.448 199.429 108.478 198.374 108.44 197.333C108.427 169.987 108.453 142.64 108.48 115.293C108.507 87.9467 108.533 60.6 108.52 33.2533Z" fill="#AB1EFF"/>
<g opacity="0.4">
<path d="M88.4 124.36C92.92 122.08 97.48 125.227 99.68 129.133C99.2133 131.573 99.3733 134.347 97.84 136.44C96.0533 138.427 93.4266 139.293 91.0666 140.373C74.84 146.92 58.76 153.787 42.56 160.387C44.2266 161.533 45.9466 162.64 47.72 163.64C63.9466 172.493 80.1733 181.333 96.3066 190.36C100.893 192.72 101.547 199.733 97.6666 203.04C94.8 205.72 90.28 205.493 87.1466 203.427C64.8666 191.013 42.4133 178.933 20.1733 166.467C16.1066 164.387 14.9466 158.533 17.64 154.96C19.0133 153.04 21.3066 152.2 23.3733 151.267C45.08 142.387 66.68 133.227 88.4 124.36Z" fill="#9D14FF"/>
</g>
<g opacity="0.4">
<path d="M160.52 149.853C163.32 147.493 167.253 148.2 170.293 149.653C191.613 158.547 212.96 167.4 234.307 176.24C236.933 177.147 238.92 179.107 240.787 181.067C240.693 184.84 240.427 189.387 236.48 191.173C215.653 202.827 194.613 214.12 173.773 225.76C170.027 228.12 165.867 229.853 161.347 229.64C159.12 227.36 156.347 224.907 156.773 221.347C156.813 215.933 162.493 213.987 166.4 211.733C182.173 202.84 198.387 194.653 213.867 185.267C196.827 177.36 179.147 170.867 161.947 163.28C156.64 161.12 155.92 153.147 160.52 149.853Z" fill="#BA28FF"/>
</g>
</svg>
