<svg width="64" height="64" viewBox="0 0 64 64" fill="none" xmlns="http://www.w3.org/2000/svg">
<path opacity="0.4" fill-rule="evenodd" clip-rule="evenodd" d="M33.471 3.25104C34.5218 3.10385 35.5674 2.91245 36.6132 2.72101C38.1653 2.43687 39.7179 2.15265 41.2884 2.01286C43.7484 1.81788 46.1036 3.86522 46.5045 6.45351C46.8015 8.14856 47.0429 9.85646 47.2841 11.5639L47.2885 11.5951C47.4232 12.5482 47.558 13.5014 47.7026 14.4527C47.7026 14.5352 47.6941 14.4792 47.6899 14.4511C47.6887 14.4434 47.6879 14.4378 47.6876 14.4378C47.6869 14.4379 47.6903 14.4768 47.7026 14.6177L47.7102 14.618C49.4106 14.6763 50.5092 14.714 52.2126 14.6574C52.5906 14.669 52.9765 14.6633 53.3649 14.6575L53.3654 14.6575C54.7746 14.6367 56.2185 14.6154 57.447 15.4178C58.2954 15.9376 58.9659 16.7214 59.4064 17.6351C59.7851 18.3392 60 19.1445 60 20V23.1678C60.0026 25.0484 60.0014 26.9289 60 28.8094V35.6208C60.002 36.8271 60.0056 38.0333 60.0117 39.2396C60.0027 41.0627 60.0027 42.8858 60.0071 44.7088C60.0038 45.1272 60.0015 45.5456 60 45.9639V49.1437C60.0006 49.3988 60.0012 49.6539 60.0018 49.909V49.9097V49.9104L60.0019 49.9392C60.0059 51.5282 60.0099 53.1169 60 54.7055V57C60 59.7614 57.7614 62 55 62H21C20.397 62 19.8188 61.8932 19.2835 61.6976C18.0063 61.2354 16.905 60.2194 16.3103 58.9181C15.7318 57.7256 15.7469 56.3827 15.7617 55.0633L15.7617 55.0624L15.7617 55.0606C15.7661 54.6659 15.7705 54.2734 15.759 53.8876C15.5595 53.9157 15.3581 53.9476 15.1565 53.9797L15.1561 53.9798C14.064 54.1531 12.9472 54.3305 11.8822 53.9314C9.9552 53.3075 8.5202 51.3967 8.30154 49.2616C7.66558 44.9639 7.02717 40.6667 6.38878 36.3697C5.28943 28.9702 4.19015 21.571 3.10364 14.1699C2.50686 11.216 4.56141 8.07672 7.36309 7.68678C8.40188 7.50931 9.44086 7.33138 10.48 7.15343L10.4814 7.15319L10.4828 7.15295L10.7693 7.10389L10.7705 7.10367L10.7717 7.10345L10.7796 7.1021C16.8638 6.05995 22.9534 5.01686 29.043 4.06013C30.5099 3.74334 31.9905 3.49468 33.471 3.25104ZM8.59315 15.6957C8.19225 14.3796 9.02137 12.8832 10.3425 12.8101C15.6805 11.8836 21.0229 10.9822 26.3646 10.0811C30.4093 9.39877 34.4541 8.71635 38.4959 8.02324C39.5756 7.76968 41.0288 7.73076 41.539 9.02246C42.031 10.8895 42.2679 12.8344 42.3135 14.7745C37.9744 14.6208 33.6301 14.6422 29.2861 14.6637C26.6065 14.677 23.9268 14.6903 21.2485 14.6624C18.4469 14.4236 15.7682 16.9923 15.791 20.0194C15.7592 24.7333 15.7648 29.4483 15.7704 34.164L15.7705 34.2017C15.7762 38.9336 15.7819 43.6664 15.7499 48.399C14.5929 48.399 13.2216 47.853 13.1488 46.4151C11.6044 36.1785 10.092 25.9372 8.59315 15.6957Z" fill="url(#paint0_linear_54_186)"/>
<path d="M55.4813 42.8215C54.4728 41.7448 52.4113 41.1222 49.4903 41.1222C47.9271 41.1222 46.1201 41.2778 44.1525 41.6446C42.9499 40.4563 41.8555 39.1629 40.8823 37.7798C40.129 36.7308 39.4691 35.6199 38.8646 34.526C40.0172 30.9171 40.577 27.9736 40.577 25.853C40.577 23.4767 39.7181 21 37.2567 21C36.497 21 35.7435 21.4606 35.3391 22.1387C34.2303 24.1376 34.7294 28.5248 36.6417 32.8553C35.9123 35.0646 35.1081 37.2481 34.2303 39.4025C33.3992 41.3788 32.4876 43.3201 31.4975 45.2214C25.9607 47.4764 22.3745 50.1022 22.0424 52.1683C21.8924 52.9454 22.1478 53.6567 22.6906 54.2281C22.8789 54.3838 23.5886 55 24.7912 55C28.4657 55 32.335 48.9199 34.3079 45.2491C35.8158 44.7385 37.3292 44.2715 38.8359 43.8056C40.4283 43.3651 42.0414 43.0037 43.6694 42.7224C47.5492 46.2822 50.9684 46.8431 52.6871 46.8431C54.8048 46.8431 55.558 45.9656 55.8134 45.2491C56.2128 44.3216 55.9137 43.3003 55.4592 42.7726L55.4869 42.828L55.4813 42.8215ZM53.5191 44.3206C53.3692 45.0924 52.6105 45.6084 51.5516 45.6084C51.2525 45.6084 50.9972 45.553 50.6927 45.5082C48.7635 45.0413 46.9576 44.0594 45.156 42.5092C46.5535 42.2741 47.9679 42.1554 49.385 42.1541C50.4321 42.1541 51.3419 42.2043 51.9505 42.3599C52.6487 42.5103 53.7574 42.9815 53.5086 44.3259H53.5361L53.5191 44.3206ZM42.8446 41.894C41.4424 42.1809 40.0488 42.5086 38.6657 42.8771C37.4626 43.2044 36.2704 43.571 35.0912 43.9762C35.7035 42.7614 36.2746 41.526 36.8034 40.2724C37.4131 38.8236 37.9123 37.33 38.4167 35.9407C38.9104 36.8128 39.4638 37.6903 40.0182 38.4728C40.927 39.7107 41.8752 40.8886 42.8287 41.9153V41.8877L42.8446 41.894ZM36.2426 22.7261C36.3313 22.5442 36.4681 22.39 36.6381 22.2804C36.8081 22.1708 37.0047 22.11 37.2068 22.1045C38.2655 22.1045 38.4645 23.3369 38.4645 24.3253C38.4645 25.9852 37.9602 28.5066 37.1014 31.383C35.5935 27.3744 35.4945 24.0203 36.248 22.7261H36.2426ZM30.7057 46.7471C28.1401 51.0723 25.6734 53.7548 24.1602 53.7548C23.8664 53.7548 23.6111 53.6494 23.4121 53.4988C23.1076 53.1876 22.9576 52.8272 23.0577 52.4157C23.362 50.8666 26.2332 48.7013 30.7122 46.746L30.7057 46.7471Z" fill="url(#paint1_linear_54_186)" stroke="url(#paint2_linear_54_186)" stroke-width="2"/>
<defs>
<linearGradient id="paint0_linear_54_186" x1="31.5058" y1="62" x2="31.5058" y2="2" gradientUnits="userSpaceOnUse">
<stop stop-color="#A70000"/>
<stop offset="1" stop-color="#FF0000"/>
</linearGradient>
<linearGradient id="paint1_linear_54_186" x1="39" y1="55" x2="39" y2="21" gradientUnits="userSpaceOnUse">
<stop stop-color="#A70000"/>
<stop offset="1" stop-color="#FF0000"/>
</linearGradient>
<linearGradient id="paint2_linear_54_186" x1="39" y1="55" x2="39" y2="21" gradientUnits="userSpaceOnUse">
<stop stop-color="#A70000"/>
<stop offset="1" stop-color="#FF0000"/>
</linearGradient>
</defs>
</svg>
