<svg width="24" height="24" viewBox="0 0 24 24" fill="none" xmlns="http://www.w3.org/2000/svg">
<path opacity="0.3" d="M4.66602 9C3.73402 9 3.26802 9 2.90102 8.848C2.6582 8.74749 2.43757 8.6001 2.25174 8.41428C2.06591 8.22845 1.91853 8.00782 1.81802 7.765C1.66602 7.398 1.66602 6.932 1.66602 6C1.66602 5.068 1.66602 4.602 1.81802 4.235C1.91853 3.99218 2.06591 3.77155 2.25174 3.58572C2.43757 3.3999 2.6582 3.25251 2.90102 3.152C3.26802 3 3.73402 3 4.66602 3H11.934C11.8902 3.07567 11.8514 3.15418 11.818 3.235C11.666 3.602 11.666 4.068 11.666 5V9H4.66602ZM21.666 6C21.666 6.932 21.666 7.398 21.514 7.765C21.4135 8.00782 21.2661 8.22845 21.0803 8.41428C20.8945 8.6001 20.6738 8.74749 20.431 8.848C20.064 9 19.598 9 18.666 9H17.666V5C17.666 4.068 17.666 3.602 17.514 3.235C17.4805 3.15422 17.4418 3.07572 17.398 3H18.666C19.598 3 20.064 3 20.431 3.152C20.6738 3.25251 20.8945 3.3999 21.0803 3.58572C21.2661 3.77155 21.4135 3.99218 21.514 4.235C21.666 4.602 21.666 5.068 21.666 6Z" fill="url(#paint0_linear_127_99)"/>
<path opacity="0.7" d="M17.514 20.765C17.666 20.398 17.666 19.932 17.666 19V15H18.666C19.598 15 20.064 15 20.431 15.152C20.6738 15.2525 20.8945 15.3999 21.0803 15.5857C21.2661 15.7716 21.4135 15.9922 21.514 16.235C21.666 16.602 21.666 17.068 21.666 18C21.666 18.932 21.666 19.398 21.514 19.765C21.4135 20.0078 21.2661 20.2284 21.0803 20.4143C20.8945 20.6001 20.6738 20.7475 20.431 20.848C20.064 21 19.598 21 18.666 21H17.398C17.442 20.925 17.48 20.846 17.514 20.765ZM11.934 21H4.66602C3.73402 21 3.26802 21 2.90102 20.848C2.6582 20.7475 2.43757 20.6001 2.25174 20.4143C2.06591 20.2284 1.91853 20.0078 1.81802 19.765C1.66602 19.398 1.66602 18.932 1.66602 18C1.66602 17.068 1.66602 16.602 1.81802 16.235C1.91853 15.9922 2.06591 15.7716 2.25174 15.5857C2.43757 15.3999 2.6582 15.2525 2.90102 15.152C3.26802 15 3.73402 15 4.66602 15H11.666V19C11.666 19.932 11.666 20.398 11.818 20.765C11.852 20.846 11.89 20.925 11.934 21Z" fill="url(#paint1_linear_127_99)"/>
<path opacity="0.5" d="M17.666 9H18.666C19.598 9 20.064 9 20.431 9.152C20.6738 9.25251 20.8945 9.3999 21.0803 9.58572C21.2661 9.77155 21.4135 9.99218 21.514 10.235C21.666 10.602 21.666 11.068 21.666 12C21.666 12.932 21.666 13.398 21.514 13.765C21.4135 14.0078 21.2661 14.2284 21.0803 14.4143C20.8945 14.6001 20.6738 14.7475 20.431 14.848C20.064 15 19.598 15 18.666 15H17.666V9ZM11.666 9V15H4.66602C3.73402 15 3.26802 15 2.90102 14.848C2.6582 14.7475 2.43757 14.6001 2.25174 14.4143C2.06591 14.2284 1.91853 14.0078 1.81802 13.765C1.66602 13.398 1.66602 12.932 1.66602 12C1.66602 11.068 1.66602 10.602 1.81802 10.235C1.91853 9.99218 2.06591 9.77155 2.25174 9.58572C2.43757 9.3999 2.6582 9.25251 2.90102 9.152C3.26802 9 3.73402 9 4.66602 9H11.666Z" fill="url(#paint2_linear_127_99)"/>
<path fill-rule="evenodd" clip-rule="evenodd" d="M17.514 3.235C17.666 3.602 17.666 4.068 17.666 5V19C17.666 19.932 17.666 20.398 17.514 20.765C17.3107 21.2552 16.9212 21.6447 16.431 21.848C16.064 22 15.598 22 14.666 22C13.734 22 13.268 22 12.901 21.848C12.6582 21.7475 12.4376 21.6001 12.2517 21.4143C12.0659 21.2284 11.9185 21.0078 11.818 20.765C11.666 20.398 11.666 19.932 11.666 19V5C11.666 4.068 11.666 3.602 11.818 3.235C12.021 2.74517 12.4102 2.35598 12.9 2.153C13.269 2 13.735 2 14.667 2C15.599 2 16.065 2 16.432 2.152C16.6748 2.25251 16.8955 2.3999 17.0813 2.58572C17.2671 2.77155 17.4135 2.99218 17.514 3.235ZM15.416 11C15.416 10.8011 15.337 10.6103 15.1963 10.4697C15.0557 10.329 14.8649 10.25 14.666 10.25C14.4671 10.25 14.2763 10.329 14.1357 10.4697C13.995 10.6103 13.916 10.8011 13.916 11V13C13.916 13.1989 13.995 13.3897 14.1357 13.5303C14.2763 13.671 14.4671 13.75 14.666 13.75C14.8649 13.75 15.0557 13.671 15.1963 13.5303C15.337 13.3897 15.416 13.1989 15.416 13V11Z" fill="url(#paint3_linear_127_99)"/>
<defs>
<linearGradient id="paint0_linear_127_99" x1="11.666" y1="9" x2="11.666" y2="3" gradientUnits="userSpaceOnUse">
<stop stop-color="#00B59C"/>
<stop offset="1" stop-color="#9CFFAC"/>
</linearGradient>
<linearGradient id="paint1_linear_127_99" x1="11.666" y1="21" x2="11.666" y2="15" gradientUnits="userSpaceOnUse">
<stop stop-color="#00B59C"/>
<stop offset="1" stop-color="#9CFFAC"/>
</linearGradient>
<linearGradient id="paint2_linear_127_99" x1="11.666" y1="15" x2="11.666" y2="9" gradientUnits="userSpaceOnUse">
<stop stop-color="#00B59C"/>
<stop offset="1" stop-color="#9CFFAC"/>
</linearGradient>
<linearGradient id="paint3_linear_127_99" x1="14.666" y1="22" x2="14.666" y2="2" gradientUnits="userSpaceOnUse">
<stop stop-color="#02AA93"/>
<stop offset="1" stop-color="#67FF80"/>
</linearGradient>
</defs>
</svg>
