<svg width="64" height="64" viewBox="0 0 64 64" fill="none" xmlns="http://www.w3.org/2000/svg">
<rect opacity="0.4" x="4" y="4" width="51" height="52" rx="10" fill="url(#paint0_linear_49_91)"/>
<path d="M17.1921 12.2869C19.6395 11.8147 22.1778 12.0645 24.6571 12.0781C26.7413 12.2642 27.3043 15.4246 25.4608 16.3691C23.086 17.2864 20.3479 16.1511 17.9685 17.0139C16.0569 18.0901 16.8696 20.6193 16.7108 22.4038C16.8606 23.639 16.3112 25.0784 14.9852 25.3872C13.6321 25.805 12.0429 24.7379 12.061 23.2893C12.0565 21.1506 11.7931 18.9347 12.3971 16.8504C13.119 14.6618 14.9716 12.8999 17.1921 12.2869Z" fill="url(#paint1_linear_49_91)"/>
<path d="M35.7408 12.1326C37.5072 11.9191 39.3007 12.0554 41.0808 12.0418C44.6815 12.019 47.91 15.2022 47.96 18.7986C47.969 20.4286 48.0871 22.0816 47.8691 23.7072C47.3878 25.5598 44.6088 25.8958 43.6644 24.2475C42.5882 22.0316 44.4227 18.8212 42.2023 17.1048C40.0546 16.0831 37.4663 17.291 35.2822 16.3873C33.5522 15.4974 33.8609 12.6321 35.7408 12.1326Z" fill="url(#paint2_linear_49_91)"/>
<path d="M13.0869 33.9239C14.7988 32.7161 17.1282 34.487 16.706 36.4578C17.0237 38.6237 15.7524 41.7297 18.0727 43.0783C20.3476 43.7413 22.8042 42.9874 25.1154 43.4961C27.0543 44.1499 27.0588 47.2377 25.0926 47.8688C23.1628 48.1821 21.1831 47.9506 19.2306 48.0141C16.4017 48.0959 13.6591 46.2977 12.592 43.6867C11.7338 41.6979 12.1107 39.491 12.0199 37.3931C12.0199 36.1853 11.8655 34.6368 13.0869 33.9239Z" fill="url(#paint3_linear_49_91)"/>
<path d="M41.6895 33.4436C47.4562 31.8156 54.0454 34.8031 56.6267 40.2007C58.3856 43.6649 58.4561 47.9246 56.8315 51.4525C55.5861 54.1917 53.3573 56.4641 50.6451 57.7666C47.3153 59.3879 43.2839 59.4785 39.887 58.0049C36.9633 56.7696 34.5398 54.4098 33.2105 51.5264C31.6765 48.267 31.5993 44.3698 32.9856 41.0466C34.4995 37.3441 37.8159 34.4406 41.6895 33.4436Z" fill="url(#paint4_linear_49_91)"/>
<defs>
<linearGradient id="paint0_linear_49_91" x1="29.4998" y1="56" x2="29.4998" y2="3.99992" gradientUnits="userSpaceOnUse">
<stop stop-color="#FD5900"/>
<stop offset="1" stop-color="#FFDE00"/>
</linearGradient>
<linearGradient id="paint1_linear_49_91" x1="19.288" y1="25.4787" x2="19.288" y2="12" gradientUnits="userSpaceOnUse">
<stop stop-color="#FD5900"/>
<stop offset="1" stop-color="#FFDE00"/>
</linearGradient>
<linearGradient id="paint2_linear_49_91" x1="41.0712" y1="25.3107" x2="41.0712" y2="12.0113" gradientUnits="userSpaceOnUse">
<stop stop-color="#FD5900"/>
<stop offset="1" stop-color="#FFDE00"/>
</linearGradient>
<linearGradient id="paint3_linear_49_91" x1="19.2907" y1="48.0375" x2="19.2907" y2="33.5293" gradientUnits="userSpaceOnUse">
<stop stop-color="#FD5900"/>
<stop offset="1" stop-color="#FFDE00"/>
</linearGradient>
<linearGradient id="paint4_linear_49_91" x1="45" y1="59.0496" x2="45" y2="33" gradientUnits="userSpaceOnUse">
<stop stop-color="#FD5900"/>
<stop offset="1" stop-color="#FFDE00"/>
</linearGradient>
</defs>
</svg>
