<svg width="128" height="128" viewBox="0 0 128 128" fill="none" xmlns="http://www.w3.org/2000/svg">
<path fill-rule="evenodd" clip-rule="evenodd" d="M8.08869 20.1604C7.27707 16.1022 12.2043 12.7635 15.9857 14.4453C34.0398 22.4748 59.9838 24.8169 81.5051 26.7598C82.3704 26.8379 83.2285 26.9154 84.0787 26.9925C88.9942 27.4387 89.0688 32.2851 84.1574 32.7735C81.3178 33.0559 78.4003 33.328 75.4321 33.6049C55.1028 35.5009 32.394 37.6189 16.0053 44.7867C12.2136 46.445 7.27707 43.1029 8.08868 39.0447L9.80027 30.4867C9.917 29.903 9.917 29.302 9.80027 28.7183L8.08869 20.1604ZM117.611 62.6271C102.571 60.5388 89.2912 58.6948 74.6136 50.2996C71.0212 48.2449 66.2737 51.3094 67.0853 55.3675L68.7969 63.9256C68.9137 64.5093 68.9137 65.1103 68.7969 65.694L67.0854 74.252C66.2738 78.3101 71.0241 81.3774 74.6294 79.3454C87.5893 72.0408 99.134 70.2913 112.466 68.271C114.177 68.0118 115.916 67.7481 117.692 67.4677C120.819 66.9741 120.746 63.0625 117.611 62.6271Z" fill="url(#paint0_linear_126_92)"/>
<path opacity="0.4" d="M81.5049 95.2716C59.9836 93.3288 34.0397 90.9866 15.9857 82.9572C12.2043 81.2754 7.27707 84.6141 8.08869 88.6723L9.80027 97.2302C9.917 97.8139 9.917 98.4149 9.80027 98.9986L8.08867 107.557C7.27705 111.615 12.2135 114.957 16.0052 113.299C32.394 106.131 55.103 104.013 75.4323 102.117L75.4331 102.117C78.401 101.84 81.3182 101.568 84.1576 101.285C89.069 100.797 88.9943 95.9506 84.0789 95.5044C83.2338 95.4277 82.3809 95.3507 81.5209 95.2731L81.5051 95.2717L81.5049 95.2716Z" fill="url(#paint1_linear_126_92)"/>
<defs>
<linearGradient id="paint0_linear_126_92" x1="126.295" y1="10.4888" x2="26.7963" y2="129.947" gradientUnits="userSpaceOnUse">
<stop stop-color="#D800BD"/>
<stop offset="0.408098" stop-color="#F92D7A"/>
<stop offset="0.590073" stop-color="#FF4A52"/>
<stop offset="1" stop-color="#FFB243"/>
</linearGradient>
<linearGradient id="paint1_linear_126_92" x1="126.295" y1="10.4888" x2="26.7963" y2="129.947" gradientUnits="userSpaceOnUse">
<stop stop-color="#D800BD"/>
<stop offset="0.408098" stop-color="#F92D7A"/>
<stop offset="0.590073" stop-color="#FF4A52"/>
<stop offset="1" stop-color="#FFB243"/>
</linearGradient>
</defs>
</svg>
