<svg width="64" height="64" viewBox="0 0 64 64" fill="none" xmlns="http://www.w3.org/2000/svg">
<path opacity="0.4" d="M57.2 4H6.8C5.2536 4 4 5.2536 4 6.8V57.2C4 58.7464 5.2536 60 6.8 60H57.2C58.7464 60 60 58.7464 60 57.2V6.8C60 5.2536 58.7464 4 57.2 4Z" fill="url(#paint0_linear_215_115)"/>
<path d="M56 9C56 8.44772 55.5523 8 55 8H51C50.4477 8 50 8.44772 50 9V13C50 13.5523 50.4477 14 51 14H55C55.5523 14 56 13.5523 56 13V9ZM56 51C56 50.4477 55.5523 50 55 50H51C50.4477 50 50 50.4477 50 51V55C50 55.5523 50.4477 56 51 56H55C55.5523 56 56 55.5523 56 55V51ZM42 9C42 8.44772 41.5523 8 41 8H37C36.4477 8 36 8.44772 36 9V13C36 13.5523 36.4477 14 37 14H41C41.5523 14 42 13.5523 42 13V9ZM42 51C42 50.4477 41.5523 50 41 50H37C36.4477 50 36 50.4477 36 51V55C36 55.5523 36.4477 56 37 56H41C41.5523 56 42 55.5523 42 55V51ZM28 9C28 8.44772 27.5523 8 27 8H23C22.4477 8 22 8.44772 22 9V13C22 13.5523 22.4477 14 23 14H27C27.5523 14 28 13.5523 28 13V9ZM28 51C28 50.4477 27.5523 50 27 50H23C22.4477 50 22 50.4477 22 51V55C22 55.5523 22.4477 56 23 56H27C27.5523 56 28 55.5523 28 55V51ZM14 9C14 8.44772 13.5523 8 13 8H9C8.44772 8 8 8.44772 8 9V13C8 13.5523 8.44772 14 9 14H13C13.5523 14 14 13.5523 14 13V9ZM14 51C14 50.4477 13.5523 50 13 50H9C8.44772 50 8 50.4477 8 51V55C8 55.5523 8.44772 56 9 56H13C13.5523 56 14 55.5523 14 55V51Z" fill="url(#paint1_linear_215_115)"/>
<path d="M28.6206 34.2741C29.1276 34.5472 29.3029 35.1948 28.9489 35.6491C25.8352 39.6437 19.9267 40.8798 15.2411 38.354C10.5193 35.8115 8.72183 30.3572 10.9493 25.824C11.1826 25.3492 11.7689 25.1958 12.2346 25.4467L28.6206 34.2741Z" fill="url(#paint2_linear_215_115)"/>
<path d="M35.3795 34.2741C34.8725 34.5472 34.6971 35.1948 35.0512 35.6491C38.1649 39.6437 44.0733 40.8798 48.759 38.354C53.4808 35.8115 55.2782 30.3572 53.0508 25.824C52.8175 25.3492 52.2312 25.1958 51.7654 25.4467L35.3795 34.2741Z" fill="url(#paint3_linear_215_115)"/>
<defs>
<linearGradient id="paint0_linear_215_115" x1="32" y1="4" x2="32" y2="60" gradientUnits="userSpaceOnUse">
<stop stop-color="#97EB0E"/>
<stop offset="1" stop-color="#19B90B"/>
</linearGradient>
<linearGradient id="paint1_linear_215_115" x1="32" y1="8" x2="32" y2="56" gradientUnits="userSpaceOnUse">
<stop stop-color="#97EB0E"/>
<stop offset="1" stop-color="#19B90B"/>
</linearGradient>
<linearGradient id="paint2_linear_215_115" x1="19.7778" y1="25" x2="19.7778" y2="39.6666" gradientUnits="userSpaceOnUse">
<stop stop-color="#97EB0E"/>
<stop offset="1" stop-color="#19B90B"/>
</linearGradient>
<linearGradient id="paint3_linear_215_115" x1="44.2223" y1="25" x2="44.2223" y2="39.6666" gradientUnits="userSpaceOnUse">
<stop stop-color="#97EB0E"/>
<stop offset="1" stop-color="#19B90B"/>
</linearGradient>
</defs>
</svg>
