<svg width="32" height="32" viewBox="0 0 32 32" fill="none" xmlns="http://www.w3.org/2000/svg">
<path opacity="0.6" d="M30 19.7834V21.7203C30 22.0418 29.9859 22.366 29.9579 22.6874C29.5651 27.1101 26.493 30.0001 22.0601 30.0001H9.93982C7.69533 30.0001 5.80154 29.2716 4.44082 27.9509C3.90775 27.461 3.45885 26.8855 3.10815 26.2259C3.57108 25.663 4.09012 25.0468 4.59513 24.4293C5.45084 23.4046 6.27849 22.3927 6.79753 21.7344C7.56908 20.7799 9.60314 18.2675 12.4228 19.4465C12.998 19.6851 13.503 20.022 13.9659 20.3168C15.1022 21.0747 15.5791 21.2993 16.3787 20.8642C17.2625 20.3869 17.8377 19.4465 18.4409 18.464C18.7635 17.9433 19.0861 17.4394 19.4368 16.9762C20.9659 14.9831 23.3226 14.4498 25.2865 15.6288C26.2685 16.2183 27.1102 16.9622 27.8958 17.7187C28.0641 17.8872 28.2324 18.0429 28.3868 18.1973C28.5972 18.4079 29.2986 19.1097 30 19.7834Z" fill="url(#paint0_linear_215_103)"/>
<path opacity="0.4" d="M22.0741 2H9.93988C5.18437 2 2 5.3265 2 10.2798V21.7204C2 23.4454 2.39279 24.9767 3.10822 26.2259C3.57114 25.6631 4.09018 25.0469 4.59519 24.4279C5.4509 23.4047 6.27856 22.3927 6.7976 21.7344C7.56914 20.78 9.60321 18.2676 12.4228 19.4466C12.998 19.6852 13.503 20.022 13.9659 20.3168C15.1022 21.0747 15.5792 21.2993 16.3788 20.8628C17.2625 20.387 17.8377 19.4466 18.4409 18.4627C18.7635 17.9433 19.0862 17.4394 19.4369 16.9763C20.9659 14.9832 23.3226 14.4498 25.2866 15.6288C26.2685 16.2183 27.1102 16.9622 27.8958 17.7188C28.0641 17.8872 28.2325 18.043 28.3868 18.1974C28.5972 18.4065 29.2986 19.1083 30 19.7834V10.2798C30 5.3265 26.8156 2 22.0741 2Z" fill="url(#paint1_linear_215_103)"/>
<path d="M15.2361 11.5151C15.2361 13.4872 13.5934 15.1294 11.6224 15.1294C9.65294 15.1294 8.01025 13.4872 8.01025 11.5151C8.01025 9.54448 9.65294 7.90088 11.6224 7.90088C13.5934 7.90088 15.2361 9.54448 15.2361 11.5151Z" fill="url(#paint2_linear_215_103)"/>
<rect x="8" y="25" width="17" height="2" rx="1" fill="url(#paint3_linear_215_103)"/>
<defs>
<linearGradient id="paint0_linear_215_103" x1="16.5541" y1="30.0001" x2="16.5541" y2="15.0093" gradientUnits="userSpaceOnUse">
<stop stop-color="#FFA336"/>
<stop offset="1" stop-color="#FF4D1C"/>
</linearGradient>
<linearGradient id="paint1_linear_215_103" x1="16" y1="26.226" x2="16" y2="2.00007" gradientUnits="userSpaceOnUse">
<stop stop-color="#FFA336"/>
<stop offset="1" stop-color="#FF4D1C"/>
</linearGradient>
<linearGradient id="paint2_linear_215_103" x1="11.6231" y1="15.1294" x2="11.6231" y2="7.9009" gradientUnits="userSpaceOnUse">
<stop stop-color="#FFA336"/>
<stop offset="1" stop-color="#FF4D1C"/>
</linearGradient>
<linearGradient id="paint3_linear_215_103" x1="10.5" y1="27" x2="24" y2="26.5" gradientUnits="userSpaceOnUse">
<stop stop-color="#FFA336"/>
<stop offset="1" stop-color="#FF4D1C"/>
</linearGradient>
</defs>
</svg>
