<svg width="64" height="64" viewBox="0 0 64 64" fill="none" xmlns="http://www.w3.org/2000/svg">
<path opacity="0.4" fill-rule="evenodd" clip-rule="evenodd" d="M19.8798 4H44.1482C53.6312 4 60 10.653 60 20.5596V39.5668L59.9997 43.4402C59.9997 44.0832 59.9715 44.7316 59.9155 45.3744C59.1299 54.2198 52.9857 59.9998 44.1199 59.9998H19.8794C15.3904 59.9998 11.6028 58.5428 8.8814 55.9014C7.81526 54.9216 6.91746 53.7706 6.21606 52.4514C4.78539 49.9531 4 46.8906 4 43.4408V20.5596C4 10.653 10.3687 4 19.8798 4Z" fill="url(#paint0_linear_215_103)"/>
<path d="M24 16.0021C24 19.2772 21.272 22.0044 17.9987 22.0044C14.728 22.0044 12 19.2772 12 16.0021C12 12.7295 14.728 10 17.9987 10C21.272 10 24 12.7295 24 16.0021Z" fill="url(#paint1_linear_215_103)"/>
<path fill-rule="evenodd" clip-rule="evenodd" d="M40.9259 19.4564C43.5348 17.2683 46.9213 15.8813 50.3719 16.008C51.3195 16.0365 52.1805 16.4513 53 16.8788C52.6562 17.1729 52.2566 17.3947 51.8574 17.6161C51.2684 17.9431 50.6805 18.2693 50.2762 18.8263C49.3746 19.9423 49.0687 21.2998 48.7625 22.6613C48.4977 23.8378 48.232 25.0171 47.5809 26.0462C46.4284 28.1108 43.7524 29.4851 41.4254 28.6079C39.2968 27.9113 37.9492 25.5775 38.3302 23.3989C38.4806 21.7427 39.6456 20.4286 40.9259 19.4564ZM33.7527 27.7846C34.7034 27.0246 35.7277 26.3058 36.912 25.9511C37.2679 26.0761 37.427 26.4121 37.5854 26.7463C37.6678 26.9202 37.7499 27.0937 37.8595 27.2368C38.2777 28.0965 39.0311 28.6674 39.7775 29.2331C39.9851 29.3904 40.1922 29.5473 40.3913 29.7099C39.9296 30.3422 39.4564 30.9645 38.983 31.587C38.7049 31.9527 38.4266 32.3186 38.1507 32.6866C36.8821 31.3653 35.6758 29.9847 34.4705 28.6052L34.4695 28.6039C34.2307 28.3306 33.9919 28.0573 33.7527 27.7846ZM31.5701 29.4459C31.4914 29.5194 31.4167 29.5891 31.3489 29.6308C30.6321 30.2968 29.913 30.9616 29.1936 31.6268C23.2357 37.1348 17.2502 42.6684 12.3579 49.1496C12.3185 49.1996 12.2787 49.25 12.2388 49.3004C11.6292 50.0707 10.9766 50.8953 11.0006 51.9238C12.0634 52.0348 12.9916 51.4934 13.8462 50.9484C21.4418 46.7023 28.1316 41.1246 34.7829 35.5789C35.3689 35.0903 35.9547 34.6019 36.5407 34.1146C35.142 32.4903 33.7239 30.8784 32.2803 29.292C32.0548 28.9937 31.7959 29.2353 31.5701 29.4459Z" fill="url(#paint2_linear_215_103)"/>
<defs>
<linearGradient id="paint0_linear_215_103" x1="58.1084" y1="5.60064" x2="36.2658" y2="60.4469" gradientUnits="userSpaceOnUse">
<stop stop-color="#FE0F7C"/>
<stop offset="1" stop-color="#DF0066"/>
</linearGradient>
<linearGradient id="paint1_linear_215_103" x1="23.5946" y1="10.3431" x2="18.9111" y2="22.099" gradientUnits="userSpaceOnUse">
<stop stop-color="#FE0F7C"/>
<stop offset="1" stop-color="#DF0066"/>
</linearGradient>
<linearGradient id="paint2_linear_215_103" x1="51.5812" y1="17.0272" x2="39.1301" y2="53.5648" gradientUnits="userSpaceOnUse">
<stop stop-color="#FE0F7C"/>
<stop offset="1" stop-color="#DF0066"/>
</linearGradient>
</defs>
</svg>
