<svg width="32" height="32" viewBox="0 0 32 32" fill="none" xmlns="http://www.w3.org/2000/svg">
<path d="M10.0435 2.00381C9.99757 2.00381 9.9513 2.00836 9.90869 2.02545C9.84372 2.05151 9.78412 2.08983 9.73327 2.13855C9.66571 2.20326 9.61581 2.28418 9.58831 2.3736C9.56081 2.46303 9.55663 2.558 9.57615 2.64949C9.59567 2.74099 9.63825 2.82598 9.69986 2.89639L10.7711 4.44602C11.0744 4.88472 10.9745 5.4797 10.5943 5.85374C9.98245 6.45573 9.47385 7.15736 9.09145 7.9308C8.56793 8.98964 8.2949 10.1547 8.29346 11.3359V22.3148C8.29346 22.892 8.56423 23.3445 8.95747 23.7013C9.20922 23.9298 9.39135 24.2362 9.39135 24.5762V27.2553C9.39135 28.7561 10.6353 30 12.1361 30C13.6369 30 14.8808 28.7561 14.8808 27.2553V25.5106C14.8808 24.9583 15.3285 24.5106 15.8808 24.5106H16.0766C16.6289 24.5106 17.0766 24.9583 17.0766 25.5106V27.2553C17.0766 28.7561 18.3205 30 19.8213 30C21.3221 30 22.566 28.7561 22.566 27.2553V24.5759C22.566 24.2355 22.7487 23.9288 23.0008 23.7001C23.3936 23.3438 23.6639 22.8915 23.6639 22.3148V11.3359C23.6627 10.1545 23.3897 8.98924 22.8662 7.9302C22.4838 7.15657 21.9751 6.45476 21.3631 5.85264C20.9829 5.47859 20.883 4.88361 21.1863 4.4449L22.2575 2.8953C22.3229 2.8133 22.3634 2.71434 22.3744 2.61008C22.3853 2.50581 22.3663 2.40059 22.3194 2.30679C22.2726 2.213 22.1999 2.13454 22.11 2.08067C22.0406 2.0391 21.9631 2.01351 21.8833 2.00534C21.8359 2.0005 21.7879 1.99792 21.7403 2.00071C21.7297 2.00133 21.7191 2.00237 21.7086 2.00381C21.6355 2.0234 21.5672 2.05789 21.5081 2.10513C21.4489 2.15236 21.4002 2.21131 21.3649 2.27828L20.2353 3.8785C19.941 4.29545 19.3821 4.4169 18.9099 4.22331C17.9826 3.84312 16.9867 3.64743 15.9787 3.65064C14.9706 3.64743 13.9748 3.84312 13.0474 4.2233C12.5752 4.4169 12.0163 4.29545 11.722 3.8785L10.5925 2.27828C10.5471 2.19884 10.4825 2.13207 10.4046 2.0841C10.3268 2.03614 10.2381 2.00853 10.1467 2.00381C10.1124 1.99949 10.0778 1.99949 10.0435 2.00381V2.00381ZM15.9787 5.84642C17.2453 5.84485 18.4734 6.28122 19.4551 7.08157C20.1178 7.62194 20.6407 8.3058 20.9884 9.07499C21.2491 9.65152 20.7727 10.238 20.14 10.238H11.8165C11.1841 10.238 10.7077 9.65188 10.9682 9.07564C11.8301 7.16971 13.7458 5.84642 15.9787 5.84642ZM10.4892 13.4338C10.4892 12.8815 10.9369 12.4338 11.4892 12.4338H20.4681C21.0204 12.4338 21.4681 12.8815 21.4681 13.4338V21.7659C21.4681 22.0691 21.2223 22.3148 20.9192 22.3148V22.3148C20.616 22.3148 20.3703 22.5606 20.3703 22.8637V27.2553C20.3703 27.5682 20.1342 27.8042 19.8213 27.8042C19.7488 27.8059 19.6767 27.7928 19.6093 27.7658C19.542 27.7388 19.4808 27.6984 19.4295 27.6471C19.3782 27.5958 19.3378 27.5346 19.3108 27.4673C19.2838 27.3999 19.2707 27.3278 19.2724 27.2553V23.3148C19.2724 22.7625 18.8247 22.3148 18.2724 22.3148H13.685C13.1327 22.3148 12.685 22.7625 12.685 23.3148V27.2553C12.685 27.5682 12.449 27.8042 12.1361 27.8042C12.0635 27.8059 11.9914 27.7928 11.9241 27.7658C11.8567 27.7388 11.7956 27.6984 11.7442 27.6471C11.6929 27.5958 11.6526 27.5346 11.6256 27.4673C11.5986 27.3999 11.5855 27.3278 11.5871 27.2553V22.8637C11.5871 22.5606 11.3413 22.3148 11.0381 22.3148V22.3148C10.735 22.3148 10.4892 22.069 10.4892 21.7659V13.4338Z" fill="url(#paint0_linear_80_929)" stroke="url(#paint1_linear_80_929)" stroke-width="0.6"/>
<g opacity="0.4">
<path d="M5 11.2378C5 10.6855 5.44772 10.2378 6 10.2378H6.19578C6.74806 10.2378 7.19578 10.6855 7.19578 11.2378V20.2167C7.19578 20.769 6.74806 21.2167 6.19578 21.2167H6C5.44772 21.2167 5 20.769 5 20.2167V11.2378Z" fill="url(#paint2_linear_80_929)"/>
<path d="M24.762 11.2378C24.762 10.6855 25.2097 10.2378 25.762 10.2378H25.9578C26.5101 10.2378 26.9578 10.6855 26.9578 11.2378V20.2167C26.9578 20.769 26.5101 21.2167 25.9578 21.2167H25.762C25.2097 21.2167 24.762 20.769 24.762 20.2167V11.2378Z" fill="url(#paint3_linear_80_929)"/>
</g>
<defs>
<linearGradient id="paint0_linear_80_929" x1="15.9787" y1="30" x2="15.9787" y2="2" gradientUnits="userSpaceOnUse">
<stop stop-color="#00B59C"/>
<stop offset="1" stop-color="#9CFFAC"/>
</linearGradient>
<linearGradient id="paint1_linear_80_929" x1="15.9787" y1="30" x2="15.9787" y2="2" gradientUnits="userSpaceOnUse">
<stop stop-color="#00B59C"/>
<stop offset="1" stop-color="#9CFFAC"/>
</linearGradient>
<linearGradient id="paint2_linear_80_929" x1="15.9789" y1="21.2167" x2="15.9789" y2="10.2378" gradientUnits="userSpaceOnUse">
<stop stop-color="#00B59C"/>
<stop offset="1" stop-color="#9CFFAC"/>
</linearGradient>
<linearGradient id="paint3_linear_80_929" x1="15.9789" y1="21.2167" x2="15.9789" y2="10.2378" gradientUnits="userSpaceOnUse">
<stop stop-color="#00B59C"/>
<stop offset="1" stop-color="#9CFFAC"/>
</linearGradient>
</defs>
</svg>
