<svg width="256" height="256" viewBox="0 0 256 256" fill="none" xmlns="http://www.w3.org/2000/svg">
<ellipse opacity="0.4" cx="127" cy="100" rx="79" ry="80" fill="url(#paint0_linear_80_785)"/>
<path d="M92.6934 26.5066C100.347 22.9733 108.52 20.6933 116.867 19.5466C115.44 25.5199 120.547 30.0666 123.16 34.8666C116.84 35.3333 110.613 36.7733 104.653 38.9333C100.08 35.3999 95.6668 31.5333 92.6934 26.5066Z" fill="url(#paint1_linear_80_785)"/>
<path d="M116.867 19.5466C127.413 18.5466 138.12 19.1599 148.36 21.9466C147.307 24.4666 146 26.9333 145.347 29.5999C145.133 32.2933 146 34.9066 146.453 37.5333C138.92 35.2533 131 34.4399 123.16 34.8666C120.547 30.0666 115.44 25.5199 116.867 19.5466Z" fill="url(#paint2_linear_80_785)"/>
<path d="M148.36 21.9466C159.507 25.0666 169.933 30.5066 179.04 37.6266C175.12 41.0933 171.707 45.0799 169.173 49.6666C162.467 44.2266 154.733 40.0133 146.453 37.5333C146 34.9066 145.133 32.2933 145.347 29.5999C146 26.9333 147.307 24.4666 148.36 21.9466Z" fill="url(#paint3_linear_80_785)"/>
<path d="M78.8001 34.8399C83.1734 31.6533 87.8268 28.8799 92.6934 26.5066C95.6668 31.5333 100.08 35.3999 104.653 38.9333C99.8668 40.7999 95.3068 43.2133 91.0268 46.0666C87.2401 41.9999 82.6668 38.8133 78.8001 34.8399Z" fill="url(#paint4_linear_80_785)"/>
<path d="M71.0268 41.3599C73.5334 39.0933 76.1334 36.9199 78.8001 34.8399C82.6668 38.8133 87.2401 41.9999 91.0268 46.0666C88.0934 48.1066 85.2668 50.2933 82.6534 52.7199C77.4801 50.4533 73.8801 46.0799 71.0268 41.3599Z" fill="url(#paint5_linear_80_785)"/>
<path d="M169.173 49.6666C171.707 45.0799 175.12 41.0933 179.04 37.6266C190.48 46.7999 199.067 59.0666 204.693 72.5333L204.333 72.6133C199.147 73.9066 193.893 74.9333 188.693 76.1999C185.12 67.5466 179.8 59.5466 172.92 53.1599C171.68 51.9866 170.453 50.7866 169.173 49.6666Z" fill="url(#paint6_linear_80_785)"/>
<path d="M65.8001 46.7199C67.5468 44.9333 69.2801 43.1466 71.0268 41.3599C73.8801 46.0799 77.4801 50.4533 82.6534 52.7199C79.6268 55.5599 76.8534 58.6666 74.3601 61.9733C68.5334 59.1066 67.1868 52.4399 65.8001 46.7199Z" fill="url(#paint7_linear_80_785)"/>
<path d="M57.4668 58.0666C59.9868 54.1066 62.7868 50.3333 65.8001 46.7199C67.1868 52.4399 68.5334 59.1066 74.3601 61.9733C72.1068 65.0399 70.1068 68.2933 68.3334 71.6533C64.2534 67.5066 61.1334 62.5599 57.4668 58.0666Z" fill="url(#paint8_linear_80_785)"/>
<path d="M115.987 59.0799C121.907 57.1466 128.28 57.4799 134.387 58.1333C133.747 58.6399 132.467 59.6533 131.827 60.1599C137.307 65.8799 142.427 71.9199 147.267 78.1999C146.893 79.0933 146.133 80.8799 145.76 81.7733C141.573 77.2666 135.747 74.7599 129.787 73.6266C125.813 68.2933 119.707 65.1599 115.707 59.8666L115.987 59.0799Z" fill="url(#paint9_linear_80_785)"/>
<path d="M57.4668 58.0666C61.1334 62.5599 64.2534 67.5066 68.3334 71.6533C66.3734 75.6133 64.7868 79.7466 63.6134 83.9999C59.5734 80.7466 55.2134 77.9066 50.5468 75.6266L50.1734 74.7866C51.2534 68.7999 54.5734 63.3866 57.4668 58.0666Z" fill="url(#paint10_linear_80_785)"/>
<path d="M131.827 60.1599C132.467 59.6533 133.747 58.6399 134.387 58.1333C150.36 60.9733 163.68 73.5733 168.16 89.0533C168.693 91.5333 169.147 94.0266 169.467 96.5333C162.333 90.1199 155.16 83.6933 147.267 78.1999C142.427 71.9199 137.307 65.8799 131.827 60.1599Z" fill="url(#paint11_linear_80_785)"/>
<path d="M103.533 63.9866C107.16 62.2533 110.747 59.9199 114.813 59.5199L115.707 59.8666C119.707 65.1599 125.813 68.2933 129.787 73.6266C125.813 73.4666 121.8 73.7599 117.947 74.8266C113.493 70.7599 108.507 67.3733 103.533 63.9866Z" fill="url(#paint12_linear_80_785)"/>
<path d="M96.3868 69.6399C98.6134 67.5733 100.987 65.6533 103.533 63.9866C108.507 67.3733 113.493 70.7599 117.947 74.8266C114.893 76.0799 111.96 77.6399 109.28 79.5733C104.867 76.4133 100.44 73.2533 96.3868 69.6399Z" fill="url(#paint13_linear_80_785)"/>
<path d="M96.2001 69.4799L96.3868 69.6399C100.44 73.2533 104.867 76.4133 109.28 79.5733C107.16 81.5199 105.187 83.6666 103.453 85.9733C99.1468 82.6666 94.3868 79.9999 89.2668 78.1733C91.3868 75.1333 93.7201 72.2399 96.2001 69.4799Z" fill="url(#paint14_linear_80_785)"/>
<path d="M204.333 72.6133C205.333 72.9599 205.787 73.9199 205.707 75.4799C209.52 89.2133 210.88 103.8 207.627 117.8C201.28 113.307 196.853 106.76 193.547 99.8266C193.213 91.7599 191.76 83.7066 188.693 76.1999C193.893 74.9333 199.147 73.9066 204.333 72.6133Z" fill="url(#paint15_linear_80_785)"/>
<path d="M49.6801 75.9866L50.5468 75.6266C55.2134 77.9066 59.5734 80.7466 63.6134 83.9999C63.1201 85.8666 62.6668 87.7333 62.2801 89.6266C57.1468 88.6533 52.0268 87.6533 46.9068 86.6266C47.7201 83.0666 48.0801 79.3333 49.6801 75.9866Z" fill="url(#paint16_linear_80_785)"/>
<path d="M89.2668 78.1733C94.3868 79.9999 99.1468 82.6666 103.453 85.9733C101.827 88.7333 100.56 91.6933 99.6668 94.7733C96.0934 90.8799 91.3601 88.4933 86.5868 86.3999L86.1868 85.5199C86.3068 82.8399 88.2534 80.5999 89.2668 78.1733Z" fill="url(#paint17_linear_80_785)"/>
<path d="M147.267 78.1999C155.16 83.6933 162.333 90.1199 169.467 96.5333C170.027 101.227 169.787 105.987 168.853 110.613C163.387 106.027 158.867 100.467 153.493 95.7866C152.213 90.8932 150.013 86.1733 146.48 82.5199L145.76 81.7733C146.133 80.8799 146.893 79.0933 147.267 78.1999Z" fill="url(#paint18_linear_80_785)"/>
<path d="M46.9068 86.6266C52.0268 87.6533 57.1468 88.6533 62.2801 89.6266C61.5468 93.7999 61.2401 98.0533 61.2934 102.293C57.3068 99.9999 52.6534 99.5733 48.1868 98.8799C47.2268 99.7199 46.2801 100.56 45.3201 101.413C45.6268 96.4666 46.1334 91.5333 46.9068 86.6266Z" fill="url(#paint19_linear_80_785)"/>
<path d="M85.7068 86.6399L86.5868 86.3999C91.3601 88.4933 96.0934 90.8799 99.6668 94.7733C98.6268 99.7999 98.7334 105.107 100.573 109.933C101.947 113.813 104.4 117.213 107.147 120.24C105.56 121.4 103.96 122.547 102.347 123.68C96.5601 120.52 91.4001 116.213 85.1334 113.96C82.7601 105.12 81.9734 95.1866 85.7068 86.6399Z" fill="url(#paint20_linear_80_785)"/>
<path d="M153.493 95.7866C158.867 100.467 163.387 106.027 168.853 110.613C168.027 114.04 166.813 117.387 165.28 120.56C160.827 116.533 157.36 111.587 153.093 107.387C153.853 103.56 154 99.6399 153.493 95.7866Z" fill="url(#paint21_linear_80_785)"/>
<path d="M45.3201 101.413C46.2801 100.56 47.2268 99.7199 48.1868 98.8799C52.6534 99.5733 57.3068 99.9999 61.2934 102.293C61.4268 109.347 62.6668 116.373 65.1601 122.973C67.1201 128.573 69.9334 133.853 73.2934 138.733C71.1868 139.68 68.9468 140.453 66.6268 139.8C65.8934 140.547 65.1734 141.32 64.4534 142.08C64.2401 141.48 63.8134 140.267 63.6001 139.667C58.5201 141.013 53.3334 139.36 48.4668 137.907C46.7601 137.587 46.1734 135.853 45.4401 134.52C45.2134 123.48 44.8668 112.44 45.3201 101.413Z" fill="url(#paint22_linear_80_785)"/>
<path d="M193.547 99.8266C196.853 106.76 201.28 113.307 207.627 117.8C206.387 123.413 204.573 128.893 202.293 134.16C196.493 132.347 193.827 126.32 189.96 122.147C192.427 114.973 193.48 107.387 193.547 99.8266Z" fill="url(#paint23_linear_80_785)"/>
<path d="M153.093 107.387C157.36 111.587 160.827 116.533 165.28 120.56C162.707 125.453 159.253 129.853 155.107 133.493C151.653 129.373 148.267 125.2 144.92 120.987C148.76 117.24 151.56 112.52 153.093 107.387Z" fill="url(#paint24_linear_80_785)"/>
<path d="M85.1334 113.96C91.4001 116.213 96.5601 120.52 102.347 123.68C103.96 122.547 105.56 121.4 107.147 120.24C110.68 123.6 115.013 126 119.627 127.52C123.293 132.933 128.133 137.36 132.64 142.04C132 142.68 131.36 143.333 130.72 143.973C116.147 145.36 101.28 139.04 92.2268 127.533C89.0668 123.48 86.8001 118.813 85.1334 113.96Z" fill="url(#paint25_linear_80_785)"/>
<path d="M137.787 125.84C140.32 124.467 142.72 122.853 144.92 120.987C148.267 125.2 151.653 129.373 155.107 133.493C153.107 135.147 150.987 136.667 148.787 138.04C145.173 133.933 141.507 129.853 137.787 125.84Z" fill="url(#paint26_linear_80_785)"/>
<path d="M184.667 133.76C186.733 130.027 188.533 126.16 189.96 122.147C193.827 126.32 196.493 132.347 202.293 134.16C200.56 137.973 198.547 141.653 196.333 145.2C192.4 141.44 188.48 137.653 184.667 133.76Z" fill="url(#paint27_linear_80_785)"/>
<path d="M119.627 127.52C125.68 128.893 132.107 128.4 137.787 125.84C141.507 129.853 145.173 133.933 148.787 138.04C143.28 141.293 137.067 143.267 130.72 143.973C131.36 143.333 132 142.68 132.64 142.04C128.133 137.36 123.293 132.933 119.627 127.52Z" fill="url(#paint28_linear_80_785)"/>
<path d="M45.4401 134.52C46.1734 135.853 46.7601 137.587 48.4668 137.907C53.3334 139.36 58.5201 141.013 63.6001 139.667C63.8134 140.267 64.2401 141.48 64.4534 142.08C65.1734 141.32 65.8934 140.547 66.6268 139.8C68.9468 140.453 71.1868 139.68 73.2934 138.733C78.7601 146.44 85.8267 152.987 93.9334 157.84C92.7334 158.8 91.5334 159.76 90.3334 160.72C88.4268 159.56 86.5601 158.053 84.2268 158C78.0134 157.667 72.0268 155.613 65.7868 155.653C63.6534 153.947 61.5201 152.267 59.4001 150.56C59.4001 154.64 59.3868 158.733 59.4001 162.813C55.2934 160.613 51.0401 158.653 46.6401 157.12C46.2668 159.987 45.9068 162.867 45.6934 165.747L45.5734 164.72C45.3068 154.653 45.7868 144.587 45.4401 134.52Z" fill="url(#paint29_linear_80_785)"/>
<path d="M175.253 146.373C178.853 142.547 182.027 138.293 184.667 133.76C188.48 137.653 192.4 141.44 196.333 145.2C193.693 149.293 190.707 153.147 187.413 156.733C183.053 153.653 178.92 150.253 175.253 146.373Z" fill="url(#paint30_linear_80_785)"/>
<path d="M169.52 151.707C171.507 150.013 173.44 148.24 175.253 146.373C178.92 150.253 183.053 153.653 187.413 156.733C186 158.253 184.507 159.72 183 161.147C178.04 158.733 173.427 155.627 169.52 151.707Z" fill="url(#paint31_linear_80_785)"/>
<path d="M158.213 159.293C162.187 157.093 165.973 154.56 169.52 151.707C173.427 155.627 178.04 158.733 183 161.147C179.333 164.507 175.333 167.493 171.133 170.147C166.973 166.36 162.6 162.813 158.213 159.293Z" fill="url(#paint32_linear_80_785)"/>
<path d="M65.7868 155.653C72.0268 155.613 78.0134 157.667 84.2268 158C86.5601 158.053 88.4268 159.56 90.3334 160.72C91.5334 159.76 92.7334 158.8 93.9334 157.84C101.4 162.227 109.733 165.133 118.307 166.36C120.28 170.12 122.453 173.867 125.653 176.747C125.253 177.413 124.853 178.093 124.467 178.773C125.267 180.013 126.08 181.253 126.88 182.493C117.587 182.2 108.427 180.52 99.3068 178.813C99.3068 183.253 99.2934 187.68 99.2934 192.107C93.4934 189.64 86.0534 187.24 85.4134 179.84C85.3334 177.613 85.3068 175.4 85.1468 173.187C83.9734 170.2 81.2668 168.347 78.8801 166.387C74.4668 162.88 70.1334 159.24 65.7868 155.653Z" fill="url(#paint33_linear_80_785)"/>
<path d="M46.6401 157.12C51.0401 158.653 55.2934 160.613 59.4001 162.813C59.4134 168.253 59.4001 173.707 59.3868 179.147C53.7468 176.173 45.6534 173.453 45.6934 165.747C45.9068 162.867 46.2668 159.987 46.6401 157.12Z" fill="url(#paint34_linear_80_785)"/>
<path d="M144.48 164.733C149.213 163.387 153.84 161.587 158.213 159.293C162.6 162.813 166.973 166.36 171.133 170.147C166.547 173 161.667 175.4 156.613 177.32C152.76 172.933 148.267 169.173 144.48 164.733Z" fill="url(#paint35_linear_80_785)"/>
<path d="M45.5734 164.72L45.6934 165.747C45.6534 173.453 53.7468 176.173 59.3868 179.147C59.4134 184.453 59.4001 189.76 59.3868 195.067C55.3601 192 51.3734 188.853 47.2801 185.88C46.8401 186.4 45.9468 187.453 45.5068 187.973C45.4934 180.227 45.4134 172.467 45.5734 164.72Z" fill="url(#paint36_linear_80_785)"/>
<path d="M118.307 166.36C127.027 167.467 135.96 166.987 144.48 164.733C148.267 169.173 152.76 172.933 156.613 177.32C147.133 180.893 137.013 182.8 126.88 182.493C126.08 181.253 125.267 180.013 124.467 178.773C124.853 178.093 125.253 177.413 125.653 176.747C122.453 173.867 120.28 170.12 118.307 166.36Z" fill="url(#paint37_linear_80_785)"/>
<path d="M85.4134 179.84C86.0534 187.24 93.4934 189.64 99.2934 192.107C99.0668 200.32 100.013 208.64 98.3334 216.747C93.5334 214.76 90.4268 210.173 85.4668 208.453C85.3734 198.92 85.4268 189.373 85.4134 179.84Z" fill="url(#paint38_linear_80_785)"/>
<path d="M47.2801 185.88C51.3734 188.853 55.3601 192 59.3868 195.067C59.9734 203.067 57.3201 212.613 63.7068 218.96C67.8401 222.08 73.2934 222.787 78.1468 221.027C80.5734 225.04 83.6134 228.627 87.1201 231.76C75.5734 239.52 58.9334 236.133 50.6668 225.147C42.8934 214.293 46.3601 200.373 45.5068 187.973C45.9468 187.453 46.8401 186.4 47.2801 185.88Z" fill="url(#paint39_linear_80_785)"/>
<path d="M85.4668 208.453C90.4268 210.173 93.5334 214.76 98.3334 216.747C96.4001 222.84 92.4001 228.16 87.1201 231.76C83.6134 228.627 80.5734 225.04 78.1468 221.027C82.6801 218.48 85.5068 213.68 85.4668 208.453Z" fill="url(#paint40_linear_80_785)"/>
<defs>
<linearGradient id="paint0_linear_80_785" x1="59" y1="229.5" x2="127" y2="19.9997" gradientUnits="userSpaceOnUse">
<stop stop-color="#FE3661"/>
<stop offset="0.330956" stop-color="#C723C7"/>
<stop offset="0.549719" stop-color="#AA35D6"/>
<stop offset="1" stop-color="#1EA3FD"/>
</linearGradient>
<linearGradient id="paint1_linear_80_785" x1="56.5413" y1="303.072" x2="169.157" y2="36.8094" gradientUnits="userSpaceOnUse">
<stop stop-color="#FE3661"/>
<stop offset="0.330956" stop-color="#C723C7"/>
<stop offset="0.549719" stop-color="#AA35D6"/>
<stop offset="1" stop-color="#1EA3FD"/>
</linearGradient>
<linearGradient id="paint2_linear_80_785" x1="56.5413" y1="303.072" x2="169.157" y2="36.8094" gradientUnits="userSpaceOnUse">
<stop stop-color="#FE3661"/>
<stop offset="0.330956" stop-color="#C723C7"/>
<stop offset="0.549719" stop-color="#AA35D6"/>
<stop offset="1" stop-color="#1EA3FD"/>
</linearGradient>
<linearGradient id="paint3_linear_80_785" x1="56.5413" y1="303.072" x2="169.157" y2="36.8094" gradientUnits="userSpaceOnUse">
<stop stop-color="#FE3661"/>
<stop offset="0.330956" stop-color="#C723C7"/>
<stop offset="0.549719" stop-color="#AA35D6"/>
<stop offset="1" stop-color="#1EA3FD"/>
</linearGradient>
<linearGradient id="paint4_linear_80_785" x1="56.5413" y1="303.072" x2="169.157" y2="36.8094" gradientUnits="userSpaceOnUse">
<stop stop-color="#FE3661"/>
<stop offset="0.330956" stop-color="#C723C7"/>
<stop offset="0.549719" stop-color="#AA35D6"/>
<stop offset="1" stop-color="#1EA3FD"/>
</linearGradient>
<linearGradient id="paint5_linear_80_785" x1="56.5413" y1="303.072" x2="169.157" y2="36.8094" gradientUnits="userSpaceOnUse">
<stop stop-color="#FE3661"/>
<stop offset="0.330956" stop-color="#C723C7"/>
<stop offset="0.549719" stop-color="#AA35D6"/>
<stop offset="1" stop-color="#1EA3FD"/>
</linearGradient>
<linearGradient id="paint6_linear_80_785" x1="56.5413" y1="303.072" x2="169.157" y2="36.8094" gradientUnits="userSpaceOnUse">
<stop stop-color="#FE3661"/>
<stop offset="0.330956" stop-color="#C723C7"/>
<stop offset="0.549719" stop-color="#AA35D6"/>
<stop offset="1" stop-color="#1EA3FD"/>
</linearGradient>
<linearGradient id="paint7_linear_80_785" x1="56.5413" y1="303.072" x2="169.157" y2="36.8094" gradientUnits="userSpaceOnUse">
<stop stop-color="#FE3661"/>
<stop offset="0.330956" stop-color="#C723C7"/>
<stop offset="0.549719" stop-color="#AA35D6"/>
<stop offset="1" stop-color="#1EA3FD"/>
</linearGradient>
<linearGradient id="paint8_linear_80_785" x1="56.5413" y1="303.072" x2="169.157" y2="36.8094" gradientUnits="userSpaceOnUse">
<stop stop-color="#FE3661"/>
<stop offset="0.330956" stop-color="#C723C7"/>
<stop offset="0.549719" stop-color="#AA35D6"/>
<stop offset="1" stop-color="#1EA3FD"/>
</linearGradient>
<linearGradient id="paint9_linear_80_785" x1="56.5413" y1="303.072" x2="169.157" y2="36.8094" gradientUnits="userSpaceOnUse">
<stop stop-color="#FE3661"/>
<stop offset="0.330956" stop-color="#C723C7"/>
<stop offset="0.549719" stop-color="#AA35D6"/>
<stop offset="1" stop-color="#1EA3FD"/>
</linearGradient>
<linearGradient id="paint10_linear_80_785" x1="56.5413" y1="303.072" x2="169.157" y2="36.8094" gradientUnits="userSpaceOnUse">
<stop stop-color="#FE3661"/>
<stop offset="0.330956" stop-color="#C723C7"/>
<stop offset="0.549719" stop-color="#AA35D6"/>
<stop offset="1" stop-color="#1EA3FD"/>
</linearGradient>
<linearGradient id="paint11_linear_80_785" x1="56.5413" y1="303.072" x2="169.157" y2="36.8094" gradientUnits="userSpaceOnUse">
<stop stop-color="#FE3661"/>
<stop offset="0.330956" stop-color="#C723C7"/>
<stop offset="0.549719" stop-color="#AA35D6"/>
<stop offset="1" stop-color="#1EA3FD"/>
</linearGradient>
<linearGradient id="paint12_linear_80_785" x1="56.5413" y1="303.072" x2="169.157" y2="36.8094" gradientUnits="userSpaceOnUse">
<stop stop-color="#FE3661"/>
<stop offset="0.330956" stop-color="#C723C7"/>
<stop offset="0.549719" stop-color="#AA35D6"/>
<stop offset="1" stop-color="#1EA3FD"/>
</linearGradient>
<linearGradient id="paint13_linear_80_785" x1="56.5413" y1="303.072" x2="169.157" y2="36.8094" gradientUnits="userSpaceOnUse">
<stop stop-color="#FE3661"/>
<stop offset="0.330956" stop-color="#C723C7"/>
<stop offset="0.549719" stop-color="#AA35D6"/>
<stop offset="1" stop-color="#1EA3FD"/>
</linearGradient>
<linearGradient id="paint14_linear_80_785" x1="56.5413" y1="303.072" x2="169.157" y2="36.8094" gradientUnits="userSpaceOnUse">
<stop stop-color="#FE3661"/>
<stop offset="0.330956" stop-color="#C723C7"/>
<stop offset="0.549719" stop-color="#AA35D6"/>
<stop offset="1" stop-color="#1EA3FD"/>
</linearGradient>
<linearGradient id="paint15_linear_80_785" x1="56.5413" y1="303.072" x2="169.157" y2="36.8094" gradientUnits="userSpaceOnUse">
<stop stop-color="#FE3661"/>
<stop offset="0.330956" stop-color="#C723C7"/>
<stop offset="0.549719" stop-color="#AA35D6"/>
<stop offset="1" stop-color="#1EA3FD"/>
</linearGradient>
<linearGradient id="paint16_linear_80_785" x1="56.5413" y1="303.072" x2="169.157" y2="36.8094" gradientUnits="userSpaceOnUse">
<stop stop-color="#FE3661"/>
<stop offset="0.330956" stop-color="#C723C7"/>
<stop offset="0.549719" stop-color="#AA35D6"/>
<stop offset="1" stop-color="#1EA3FD"/>
</linearGradient>
<linearGradient id="paint17_linear_80_785" x1="56.5413" y1="303.072" x2="169.157" y2="36.8094" gradientUnits="userSpaceOnUse">
<stop stop-color="#FE3661"/>
<stop offset="0.330956" stop-color="#C723C7"/>
<stop offset="0.549719" stop-color="#AA35D6"/>
<stop offset="1" stop-color="#1EA3FD"/>
</linearGradient>
<linearGradient id="paint18_linear_80_785" x1="56.5413" y1="303.072" x2="169.157" y2="36.8094" gradientUnits="userSpaceOnUse">
<stop stop-color="#FE3661"/>
<stop offset="0.330956" stop-color="#C723C7"/>
<stop offset="0.549719" stop-color="#AA35D6"/>
<stop offset="1" stop-color="#1EA3FD"/>
</linearGradient>
<linearGradient id="paint19_linear_80_785" x1="56.5413" y1="303.072" x2="169.157" y2="36.8094" gradientUnits="userSpaceOnUse">
<stop stop-color="#FE3661"/>
<stop offset="0.330956" stop-color="#C723C7"/>
<stop offset="0.549719" stop-color="#AA35D6"/>
<stop offset="1" stop-color="#1EA3FD"/>
</linearGradient>
<linearGradient id="paint20_linear_80_785" x1="56.5413" y1="303.072" x2="169.157" y2="36.8094" gradientUnits="userSpaceOnUse">
<stop stop-color="#FE3661"/>
<stop offset="0.330956" stop-color="#C723C7"/>
<stop offset="0.549719" stop-color="#AA35D6"/>
<stop offset="1" stop-color="#1EA3FD"/>
</linearGradient>
<linearGradient id="paint21_linear_80_785" x1="56.5413" y1="303.072" x2="169.157" y2="36.8094" gradientUnits="userSpaceOnUse">
<stop stop-color="#FE3661"/>
<stop offset="0.330956" stop-color="#C723C7"/>
<stop offset="0.549719" stop-color="#AA35D6"/>
<stop offset="1" stop-color="#1EA3FD"/>
</linearGradient>
<linearGradient id="paint22_linear_80_785" x1="56.5413" y1="303.072" x2="169.157" y2="36.8094" gradientUnits="userSpaceOnUse">
<stop stop-color="#FE3661"/>
<stop offset="0.330956" stop-color="#C723C7"/>
<stop offset="0.549719" stop-color="#AA35D6"/>
<stop offset="1" stop-color="#1EA3FD"/>
</linearGradient>
<linearGradient id="paint23_linear_80_785" x1="56.5413" y1="303.072" x2="169.157" y2="36.8094" gradientUnits="userSpaceOnUse">
<stop stop-color="#FE3661"/>
<stop offset="0.330956" stop-color="#C723C7"/>
<stop offset="0.549719" stop-color="#AA35D6"/>
<stop offset="1" stop-color="#1EA3FD"/>
</linearGradient>
<linearGradient id="paint24_linear_80_785" x1="56.5413" y1="303.072" x2="169.157" y2="36.8094" gradientUnits="userSpaceOnUse">
<stop stop-color="#FE3661"/>
<stop offset="0.330956" stop-color="#C723C7"/>
<stop offset="0.549719" stop-color="#AA35D6"/>
<stop offset="1" stop-color="#1EA3FD"/>
</linearGradient>
<linearGradient id="paint25_linear_80_785" x1="56.5413" y1="303.072" x2="169.157" y2="36.8094" gradientUnits="userSpaceOnUse">
<stop stop-color="#FE3661"/>
<stop offset="0.330956" stop-color="#C723C7"/>
<stop offset="0.549719" stop-color="#AA35D6"/>
<stop offset="1" stop-color="#1EA3FD"/>
</linearGradient>
<linearGradient id="paint26_linear_80_785" x1="56.5413" y1="303.072" x2="169.157" y2="36.8094" gradientUnits="userSpaceOnUse">
<stop stop-color="#FE3661"/>
<stop offset="0.330956" stop-color="#C723C7"/>
<stop offset="0.549719" stop-color="#AA35D6"/>
<stop offset="1" stop-color="#1EA3FD"/>
</linearGradient>
<linearGradient id="paint27_linear_80_785" x1="56.5413" y1="303.072" x2="169.157" y2="36.8094" gradientUnits="userSpaceOnUse">
<stop stop-color="#FE3661"/>
<stop offset="0.330956" stop-color="#C723C7"/>
<stop offset="0.549719" stop-color="#AA35D6"/>
<stop offset="1" stop-color="#1EA3FD"/>
</linearGradient>
<linearGradient id="paint28_linear_80_785" x1="56.5413" y1="303.072" x2="169.157" y2="36.8094" gradientUnits="userSpaceOnUse">
<stop stop-color="#FE3661"/>
<stop offset="0.330956" stop-color="#C723C7"/>
<stop offset="0.549719" stop-color="#AA35D6"/>
<stop offset="1" stop-color="#1EA3FD"/>
</linearGradient>
<linearGradient id="paint29_linear_80_785" x1="56.5413" y1="303.072" x2="169.157" y2="36.8094" gradientUnits="userSpaceOnUse">
<stop stop-color="#FE3661"/>
<stop offset="0.330956" stop-color="#C723C7"/>
<stop offset="0.549719" stop-color="#AA35D6"/>
<stop offset="1" stop-color="#1EA3FD"/>
</linearGradient>
<linearGradient id="paint30_linear_80_785" x1="56.5413" y1="303.072" x2="169.157" y2="36.8094" gradientUnits="userSpaceOnUse">
<stop stop-color="#FE3661"/>
<stop offset="0.330956" stop-color="#C723C7"/>
<stop offset="0.549719" stop-color="#AA35D6"/>
<stop offset="1" stop-color="#1EA3FD"/>
</linearGradient>
<linearGradient id="paint31_linear_80_785" x1="56.5413" y1="303.072" x2="169.157" y2="36.8094" gradientUnits="userSpaceOnUse">
<stop stop-color="#FE3661"/>
<stop offset="0.330956" stop-color="#C723C7"/>
<stop offset="0.549719" stop-color="#AA35D6"/>
<stop offset="1" stop-color="#1EA3FD"/>
</linearGradient>
<linearGradient id="paint32_linear_80_785" x1="56.5413" y1="303.072" x2="169.157" y2="36.8094" gradientUnits="userSpaceOnUse">
<stop stop-color="#FE3661"/>
<stop offset="0.330956" stop-color="#C723C7"/>
<stop offset="0.549719" stop-color="#AA35D6"/>
<stop offset="1" stop-color="#1EA3FD"/>
</linearGradient>
<linearGradient id="paint33_linear_80_785" x1="56.5413" y1="303.072" x2="169.157" y2="36.8094" gradientUnits="userSpaceOnUse">
<stop stop-color="#FE3661"/>
<stop offset="0.330956" stop-color="#C723C7"/>
<stop offset="0.549719" stop-color="#AA35D6"/>
<stop offset="1" stop-color="#1EA3FD"/>
</linearGradient>
<linearGradient id="paint34_linear_80_785" x1="56.5413" y1="303.072" x2="169.157" y2="36.8094" gradientUnits="userSpaceOnUse">
<stop stop-color="#FE3661"/>
<stop offset="0.330956" stop-color="#C723C7"/>
<stop offset="0.549719" stop-color="#AA35D6"/>
<stop offset="1" stop-color="#1EA3FD"/>
</linearGradient>
<linearGradient id="paint35_linear_80_785" x1="56.5413" y1="303.072" x2="169.157" y2="36.8094" gradientUnits="userSpaceOnUse">
<stop stop-color="#FE3661"/>
<stop offset="0.330956" stop-color="#C723C7"/>
<stop offset="0.549719" stop-color="#AA35D6"/>
<stop offset="1" stop-color="#1EA3FD"/>
</linearGradient>
<linearGradient id="paint36_linear_80_785" x1="56.5413" y1="303.072" x2="169.157" y2="36.8094" gradientUnits="userSpaceOnUse">
<stop stop-color="#FE3661"/>
<stop offset="0.330956" stop-color="#C723C7"/>
<stop offset="0.549719" stop-color="#AA35D6"/>
<stop offset="1" stop-color="#1EA3FD"/>
</linearGradient>
<linearGradient id="paint37_linear_80_785" x1="56.5413" y1="303.072" x2="169.157" y2="36.8094" gradientUnits="userSpaceOnUse">
<stop stop-color="#FE3661"/>
<stop offset="0.330956" stop-color="#C723C7"/>
<stop offset="0.549719" stop-color="#AA35D6"/>
<stop offset="1" stop-color="#1EA3FD"/>
</linearGradient>
<linearGradient id="paint38_linear_80_785" x1="56.5413" y1="303.072" x2="169.157" y2="36.8094" gradientUnits="userSpaceOnUse">
<stop stop-color="#FE3661"/>
<stop offset="0.330956" stop-color="#C723C7"/>
<stop offset="0.549719" stop-color="#AA35D6"/>
<stop offset="1" stop-color="#1EA3FD"/>
</linearGradient>
<linearGradient id="paint39_linear_80_785" x1="56.5413" y1="303.072" x2="169.157" y2="36.8094" gradientUnits="userSpaceOnUse">
<stop stop-color="#FE3661"/>
<stop offset="0.330956" stop-color="#C723C7"/>
<stop offset="0.549719" stop-color="#AA35D6"/>
<stop offset="1" stop-color="#1EA3FD"/>
</linearGradient>
<linearGradient id="paint40_linear_80_785" x1="56.5413" y1="303.072" x2="169.157" y2="36.8094" gradientUnits="userSpaceOnUse">
<stop stop-color="#FE3661"/>
<stop offset="0.330956" stop-color="#C723C7"/>
<stop offset="0.549719" stop-color="#AA35D6"/>
<stop offset="1" stop-color="#1EA3FD"/>
</linearGradient>
</defs>
</svg>
