<svg width="24" height="24" viewBox="0 0 24 24" fill="none" xmlns="http://www.w3.org/2000/svg">
<path fill-rule="evenodd" clip-rule="evenodd" d="M10.404 22.48L10.679 22.015C11.119 21.27 11.339 20.898 11.691 20.69C12.042 20.483 12.501 20.468 13.416 20.438C14.275 20.411 14.852 20.336 15.346 20.132C15.8606 19.9188 16.3281 19.6062 16.7219 19.2123C17.1157 18.8183 17.428 18.3507 17.641 17.836C17.964 17.057 17.964 16.069 17.964 14.093V13.245C17.964 10.468 17.964 9.08 17.339 8.06C16.989 7.49 16.509 7.01 15.939 6.66C14.919 6.035 13.531 6.035 10.754 6.035H8.21C5.433 6.035 4.045 6.035 3.025 6.66C2.455 7.01 1.975 7.49 1.625 8.06C1 9.08 1 10.468 1 13.245V14.093C1 16.069 1 17.057 1.323 17.837C1.75343 18.876 2.57896 19.7016 3.618 20.132C4.112 20.336 4.688 20.412 5.548 20.438C6.464 20.468 6.922 20.483 7.273 20.69C7.623 20.898 7.844 21.27 8.285 22.015L8.56 22.48C8.97 23.172 9.994 23.172 10.404 22.48ZM13.193 14.517C13.4741 14.517 13.7437 14.4053 13.9425 14.2065C14.1413 14.0077 14.253 13.7381 14.253 13.457C14.253 13.1759 14.1413 12.9063 13.9425 12.7075C13.7437 12.5087 13.4741 12.397 13.193 12.397C12.9119 12.397 12.6423 12.5087 12.4435 12.7075C12.2447 12.9063 12.133 13.1759 12.133 13.457C12.133 13.7381 12.2447 14.0077 12.4435 14.2065C12.6423 14.4053 12.9119 14.517 13.193 14.517ZM10.543 13.457C10.543 13.5963 10.5156 13.7342 10.4623 13.8628C10.409 13.9915 10.3309 14.1084 10.2324 14.2069C10.1339 14.3054 10.017 14.3835 9.88834 14.4368C9.75967 14.4901 9.62177 14.5175 9.4825 14.5175C9.34323 14.5175 9.20533 14.4901 9.07666 14.4368C8.948 14.3835 8.83109 14.3054 8.73261 14.2069C8.63414 14.1084 8.55602 13.9915 8.50273 13.8628C8.44943 13.7342 8.422 13.5963 8.422 13.457C8.422 13.1759 8.53368 12.9063 8.73247 12.7075C8.93126 12.5087 9.20087 12.397 9.482 12.397C9.76313 12.397 10.0327 12.5087 10.2315 12.7075C10.4303 12.9063 10.542 13.1759 10.542 13.457H10.543ZM5.771 14.517C6.05213 14.517 6.32174 14.4053 6.52053 14.2065C6.71932 14.0077 6.831 13.7381 6.831 13.457C6.831 13.1759 6.71932 12.9063 6.52053 12.7075C6.32174 12.5087 6.05213 12.397 5.771 12.397C5.48987 12.397 5.22026 12.5087 5.02147 12.7075C4.82268 12.9063 4.711 13.1759 4.711 13.457C4.711 13.7381 4.82268 14.0077 5.02147 14.2065C5.22026 14.4053 5.48987 14.517 5.771 14.517Z" fill="url(#paint0_linear_54_1011)"/>
<path opacity="0.4" d="M15.486 1C16.753 1 17.76 1 18.568 1.077C19.397 1.156 20.098 1.321 20.721 1.703C21.3629 2.09635 21.9026 2.63606 22.296 3.278C22.679 3.902 22.844 4.603 22.923 5.431C22.999 6.239 22.999 7.247 22.999 8.513V9.379C22.999 10.28 22.999 10.998 22.959 11.579C22.919 12.174 22.834 12.685 22.636 13.163C22.3901 13.7565 22.0269 14.2943 21.5681 14.744C21.1093 15.1937 20.5643 15.5461 19.966 15.78C19.825 15.834 19.704 15.88 19.598 15.915H17.948C17.964 15.416 17.964 14.822 17.964 14.093V13.245C17.964 10.468 17.964 9.08 17.339 8.06C16.989 7.49 16.509 7.01 15.939 6.66C14.919 6.035 13.531 6.035 10.754 6.035H8.20999C7.22399 6.035 6.41399 6.035 5.73199 6.063V4.413C5.76499 4.299 5.80999 4.169 5.86199 4.017C5.95199 3.757 6.06499 3.512 6.20799 3.278C6.60166 2.63597 7.14172 2.09626 7.78399 1.703C8.40799 1.321 9.108 1.156 9.937 1.077C10.745 1 11.752 1 13.019 1H15.486Z" fill="url(#paint1_linear_54_1011)"/>
<defs>
<linearGradient id="paint0_linear_54_1011" x1="9.482" y1="6.035" x2="9.482" y2="22.999" gradientUnits="userSpaceOnUse">
<stop stop-color="#DC18FC"/>
<stop offset="1" stop-color="#8E1EFF"/>
</linearGradient>
<linearGradient id="paint1_linear_54_1011" x1="14.3655" y1="1" x2="14.3655" y2="15.915" gradientUnits="userSpaceOnUse">
<stop stop-color="#DC18FC"/>
<stop offset="1" stop-color="#8E1EFF"/>
</linearGradient>
</defs>
</svg>
