<svg width="64" height="64" viewBox="0 0 64 64" fill="none" xmlns="http://www.w3.org/2000/svg">
<g clip-path="url(#clip0_54_1290)">
<path opacity="0.4" fill-rule="evenodd" clip-rule="evenodd" d="M33.3677 34.4782C33.7739 34.171 34.0475 33.7205 34.1329 33.2185L34.2146 32.7385C34.2359 32.6131 34.2455 32.4867 34.2416 32.3596C34.0235 25.2901 30.3907 17.0002 25.7931 11.9338C23.4916 9.39763 20.6046 7.28992 17.417 6.96614C13.9207 6.611 10.8898 8.45301 8.69846 12.0442L8.69688 12.0468C7.52852 13.9668 6.84934 15.7757 6.66048 17.4566C6.57126 18.2507 6.13694 18.982 5.47539 19.4302C4.04647 20.3982 2.72227 21.8492 1.5264 23.8048L1.52549 23.8063C0.523907 25.4468 -0.0447236 27.1359 -0.0275772 28.8293C-0.0100723 30.5581 0.617016 32.075 1.63378 33.3189C3.56849 35.6859 6.85809 37.0262 10.2331 37.7144C17.0194 39.0981 26.2062 38.2522 32.754 34.9066C32.8538 34.8555 32.948 34.7957 33.0375 34.728L33.3677 34.4782Z" fill="url(#paint0_linear_54_1290)"/>
<path opacity="0.6" fill-rule="evenodd" clip-rule="evenodd" d="M33.782 30.746C33.5956 30.5834 33.3807 30.4568 33.1481 30.3726L32.4849 30.1325C32.2542 30.0489 32.011 30.0077 31.7658 30.0161C24.4441 30.2659 15.8391 33.6425 10.5379 37.9496C7.89263 40.0988 5.59094 42.8682 5.23324 46.0208C4.8315 49.5616 6.93529 52.4677 10.6332 54.4878L10.6357 54.4892C12.7358 55.6333 14.6732 56.2606 16.445 56.3979C17.2239 56.4583 17.9474 56.8637 18.4145 57.4898C19.4565 58.8865 21.0107 60.15 23.0626 61.2732L23.064 61.274C26.5782 63.1949 29.9943 63.195 32.744 61.1829C35.2458 59.3523 36.6921 56.2002 37.4339 52.9431C38.9048 46.4854 38.0229 37.7826 34.5185 31.5323C34.4115 31.3415 34.271 31.1725 34.1061 31.0288L33.782 30.746Z" fill="url(#paint1_linear_54_1290)"/>
<path d="M31.7678 31.5804C32.0567 44.478 46.0549 61.6723 52.6763 50.8232C53.725 49.1032 54.2386 47.6431 54.3681 46.4014C54.5096 45.0451 55.396 43.4905 56.539 42.7467C57.6474 42.0255 58.7659 40.8564 59.8544 39.0792C67.2109 27.035 43.7295 25.3673 31.7768 31.5798" fill="url(#paint2_linear_54_1290)"/>
<path d="M31.7678 31.5804C32.0567 44.478 46.0549 61.6723 52.6763 50.8232C53.725 49.1032 54.2386 47.6431 54.3681 46.4014C54.5096 45.0451 55.396 43.4905 56.539 42.7467C57.6474 42.0255 58.7659 40.8564 59.8544 39.0792C67.2109 27.035 43.7295 25.3673 31.7768 31.5798" stroke="url(#paint3_linear_54_1290)" stroke-width="5"/>
<path d="M32.1947 31.4614C32.6572 31.4519 33.1247 31.4281 33.5966 31.3898C47.0641 30.2961 63.6994 17.7118 52.5892 11.6512C50.6247 10.5806 48.9802 10.0985 47.6006 10.0262C46.2836 9.95713 44.8269 9.10349 44.0585 8.03176C43.2961 6.96856 42.0493 5.89497 40.1416 4.85054C27.9432 -1.81001 25.7888 18.2121 31.367 29.8837C31.6261 30.4252 31.5148 31.0099 31.8065 31.5116" fill="url(#paint4_linear_54_1290)"/>
<path d="M32.1947 31.4614C32.6572 31.4519 33.1247 31.4281 33.5966 31.3898C47.0641 30.2961 63.6994 17.7118 52.5892 11.6512C50.6247 10.5806 48.9802 10.0985 47.6006 10.0262C46.2836 9.95713 44.8269 9.10349 44.0585 8.03176C43.2961 6.96856 42.0493 5.89497 40.1416 4.85054C27.9432 -1.81001 25.7888 18.2121 31.367 29.8837C31.6261 30.4252 31.5148 31.0099 31.8065 31.5116" stroke="url(#paint5_linear_54_1290)" stroke-width="5"/>
</g>
<defs>
<linearGradient id="paint0_linear_54_1290" x1="17.1108" y1="35.851" x2="17.1108" y2="9.4234" gradientUnits="userSpaceOnUse">
<stop stop-color="#02AA93"/>
<stop offset="1" stop-color="#67FF80"/>
</linearGradient>
<linearGradient id="paint1_linear_54_1290" x1="7.68579" y1="46.3522" x2="35.6166" y2="46.3522" gradientUnits="userSpaceOnUse">
<stop stop-color="#5433FF"/>
<stop offset="0.517391" stop-color="#00C1FE"/>
<stop offset="0.982609" stop-color="#39DBFF"/>
</linearGradient>
<linearGradient id="paint2_linear_54_1290" x1="31.7634" y1="40.763" x2="61.2468" y2="40.763" gradientUnits="userSpaceOnUse">
<stop stop-color="#FD3A84"/>
<stop offset="1" stop-color="#FFA68D"/>
</linearGradient>
<linearGradient id="paint3_linear_54_1290" x1="31.7634" y1="40.763" x2="61.2468" y2="40.763" gradientUnits="userSpaceOnUse">
<stop stop-color="#FD3A84"/>
<stop offset="1" stop-color="#FFA68D"/>
</linearGradient>
<linearGradient id="paint4_linear_54_1290" x1="42.3388" y1="31.5116" x2="42.3388" y2="3.52539" gradientUnits="userSpaceOnUse">
<stop stop-color="#FD5900"/>
<stop offset="1" stop-color="#FFDE00"/>
</linearGradient>
<linearGradient id="paint5_linear_54_1290" x1="42.3388" y1="31.5116" x2="42.3388" y2="3.52539" gradientUnits="userSpaceOnUse">
<stop stop-color="#FD5900"/>
<stop offset="1" stop-color="#FFDE00"/>
</linearGradient>
<clipPath id="clip0_54_1290">
<rect width="64" height="64" fill="white"/>
</clipPath>
</defs>
</svg>
