<svg width="16" height="16" viewBox="0 0 16 16" fill="none" xmlns="http://www.w3.org/2000/svg">
<path opacity="0.4" d="M12.6667 1H3.33333C2.04467 1 1 2.04467 1 3.33333V12.6667C1 13.9553 2.04467 15 3.33333 15H12.6667C13.9553 15 15 13.9553 15 12.6667V3.33333C15 2.04467 13.9553 1 12.6667 1Z" fill="url(#paint0_linear_128_81)"/>
<path d="M7.33301 12.6663C7.05687 12.6663 6.83301 12.4424 6.83301 12.1663V10.833C6.83301 10.5568 7.05687 10.333 7.33301 10.333H8.66635C8.94249 10.333 9.16635 10.5568 9.16635 10.833V12.1663C9.16635 12.4424 8.94249 12.6663 8.66635 12.6663H7.33301ZM7.33301 9.1663C7.05687 9.1663 6.83301 8.94244 6.83301 8.6663V3.83301C6.83301 3.55691 7.05687 3.33301 7.33301 3.33301H8.66635C8.94249 3.33301 9.16635 3.55691 9.16635 3.83301V8.6663C9.16635 8.94244 8.94249 9.1663 8.66635 9.1663H7.33301Z" fill="url(#paint1_linear_128_81)"/>
<defs>
<linearGradient id="paint0_linear_128_81" x1="3.625" y1="2.58594" x2="12.457" y2="12.0195" gradientUnits="userSpaceOnUse">
<stop stop-color="#8F0CFF"/>
<stop offset="0.516064" stop-color="#AA1DFF"/>
<stop offset="1" stop-color="#B826FF"/>
</linearGradient>
<linearGradient id="paint1_linear_128_81" x1="7.27051" y1="4.39029" x2="10.2121" y2="5.17579" gradientUnits="userSpaceOnUse">
<stop stop-color="#8F0CFF"/>
<stop offset="0.516064" stop-color="#AA1DFF"/>
<stop offset="1" stop-color="#B826FF"/>
</linearGradient>
</defs>
</svg>
