<svg width="128" height="128" viewBox="0 0 128 128" fill="none" xmlns="http://www.w3.org/2000/svg">
<path opacity="0.4" fill-rule="evenodd" clip-rule="evenodd" d="M13.8909 10.6878C14.2252 8.03452 16.5108 5.87602 18.9597 6.02106C26.2079 5.99717 33.4599 6.00254 40.7131 6.00792C43.8221 6.01022 46.9313 6.01253 50.0405 6.01253C52.2406 5.8419 54.1607 7.43731 55.3035 9.38251C58.6632 14.6275 62.0288 19.8684 65.3951 25.1088L65.5699 25L73.386 37.551C78.3588 45.2988 83.3244 53.0513 88.2662 60.8195C89.6492 62.56 89.6102 65.256 88.2502 67.005C82.4329 76.0642 76.5745 85.0974 70.7162 94.1307L70.7134 94.1349C65.4557 102.242 60.1975 110.35 54.9693 118.476C53.8031 120.183 52.155 122.017 50.0793 122C45.4676 121.996 40.8545 121.997 36.2412 121.998H36.2195C30.1779 121.999 24.1361 122.001 18.0967 121.991C14.6372 121.906 11.5432 117.017 14.1086 113.758C18.9418 106.118 23.8488 98.5298 28.7553 90.9426L28.7575 90.9393C29.1285 90.3656 29.4995 89.7919 29.8705 89.2182L46.0143 63.6372L36.8241 48.8799C34.5997 45.379 32.3767 41.8766 30.1535 38.3738C25.2653 30.6723 20.376 22.9691 15.4691 15.2778L15.3601 15.0912C14.5865 13.7684 13.7425 12.3254 13.8909 10.6878ZM67.1542 62.8893L66.9796 62.998C67.1617 63.1326 67.228 63.1075 67.1542 62.8893Z" fill="url(#paint0_linear_311_472)"/>
<path fill-rule="evenodd" clip-rule="evenodd" d="M36.4418 10.6878C36.7761 8.03452 39.0617 5.87602 41.5106 6.02106C48.7588 5.99717 56.0108 6.00254 63.264 6.00792C66.373 6.01022 69.4822 6.01253 75.5914 6.01253C77.7915 5.8419 79.7116 7.43731 80.8544 9.38251C84.1957 14.5988 87.5429 19.8111 90.8907 25.0228C90.9214 25.0705 90.9846 25.0847 91.0328 25.0548V25.0548C91.0814 25.0245 91.1453 25.0394 91.1756 25.088L98.9369 37.551C103.91 45.2988 108.875 53.0513 113.817 60.8195C115.2 62.56 115.161 65.256 113.801 67.005C107.984 76.0642 102.125 85.0974 96.2671 94.1307L96.2643 94.1349C91.0066 102.242 85.7484 110.35 80.5202 118.476C79.354 120.183 77.7059 122.017 75.6302 122C71.0185 121.996 63.4054 121.997 58.7921 121.998H58.7704C52.7288 121.999 46.687 122.001 40.6476 121.991C37.1881 121.906 34.0941 117.017 36.6595 113.758C41.4927 106.118 46.3997 98.5298 51.3062 90.9426L51.3084 90.9393C51.6794 90.3656 52.0504 89.7919 52.4214 89.2182L67.2269 65.7579C68.0453 64.461 68.0502 62.8103 67.2396 61.5086L59.375 48.8799C57.1506 45.379 54.9276 41.8766 52.7044 38.3738C47.8162 30.6723 42.9269 22.9691 38.02 15.2778L37.911 15.0912C37.1374 13.7684 36.2934 12.3254 36.4418 10.6878ZM92.7301 62.9809C92.7214 62.9332 92.6656 62.9138 92.6245 62.9395V62.9395C92.5794 62.9675 92.5764 63.0336 92.6234 63.0582C92.7108 63.1039 92.7485 63.0811 92.7301 62.9809Z" fill="url(#paint1_linear_311_472)"/>
<defs>
<linearGradient id="paint0_linear_311_472" x1="51.2247" y1="122" x2="51.2247" y2="6" gradientUnits="userSpaceOnUse">
<stop stop-color="#FD2E00"/>
<stop offset="1" stop-color="#FF9900"/>
</linearGradient>
<linearGradient id="paint1_linear_311_472" x1="76.7756" y1="122" x2="76.7756" y2="6" gradientUnits="userSpaceOnUse">
<stop stop-color="#FD2E00"/>
<stop offset="1" stop-color="#FF9900"/>
</linearGradient>
</defs>
</svg>
