<svg width="64" height="64" viewBox="0 0 64 64" fill="none" xmlns="http://www.w3.org/2000/svg">
<path opacity="0.4" d="M10.5415 4.324C11.4055 4.08932 12.3016 4.00754 13.1941 4.00754C25.0455 4.01109 36.9004 4.00754 48.7518 4.00754C50.4408 4.0182 52.1796 3.88308 53.8117 4.42712C56.61 5.29117 58.8857 7.63087 59.6645 10.4542C60.0663 11.7342 59.9916 13.089 59.9987 14.4117C59.9951 20.3321 59.9987 26.256 59.9951 32.1764C59.9987 38.0647 58.043 43.9246 54.537 48.6502C50.3732 54.3394 43.9728 58.3397 37.032 59.57C30.9765 60.7043 24.5548 59.7335 19.0967 56.8783C10.2606 52.3731 4.21932 42.8756 4.02375 32.9409C3.98464 26.1707 4.00242 19.4005 4.01664 12.6303C4.03442 8.81494 6.85415 5.26272 10.5415 4.324Z" fill="url(#paint0_linear_42_196)"/>
<path d="M18.3617 22.1519C19.5732 21.7599 20.9495 22.1474 21.8091 23.0739C24.8779 26.1026 27.8977 29.1847 30.9754 32.209C31.4475 32.7434 32.3739 32.877 32.8861 32.3114C36.0749 29.2471 39.1303 26.0357 42.3104 22.9581C43.4506 21.849 45.3926 21.6931 46.662 22.6775C48.2387 23.8132 48.5014 26.4054 47.0227 27.7283C43.1121 31.6789 39.1526 35.5851 35.2375 39.5357C33.9058 41.4287 30.9353 41.8206 29.3096 40.0969C25.154 35.928 20.9495 31.8036 16.8429 27.5902C15.2039 25.911 16.0858 22.7354 18.3617 22.1519Z" fill="url(#paint1_linear_42_196)" stroke="url(#paint2_linear_42_196)" stroke-width="2"/>
<defs>
<linearGradient id="paint0_linear_42_196" x1="58.1081" y1="5.60158" x2="36.2434" y2="60.4712" gradientUnits="userSpaceOnUse">
<stop stop-color="#FE0F7C"/>
<stop offset="1" stop-color="#DF0066"/>
</linearGradient>
<linearGradient id="paint1_linear_42_196" x1="46.9189" y1="22.5487" x2="41.9961" y2="43.1549" gradientUnits="userSpaceOnUse">
<stop stop-color="#FE0F7C"/>
<stop offset="1" stop-color="#DF0066"/>
</linearGradient>
<linearGradient id="paint2_linear_42_196" x1="46.9189" y1="22.5487" x2="41.9961" y2="43.1549" gradientUnits="userSpaceOnUse">
<stop stop-color="#FE0F7C"/>
<stop offset="1" stop-color="#DF0066"/>
</linearGradient>
</defs>
</svg>
