<svg width="64" height="64" viewBox="0 0 64 64" fill="none" xmlns="http://www.w3.org/2000/svg">
<path opacity="0.4" d="M32 60C47.464 60 60 47.464 60 32C60 16.536 47.464 4 32 4C16.536 4 4 16.536 4 32C4 47.464 16.536 60 32 60Z" fill="url(#paint0_linear_231_168)"/>
<path fill-rule="evenodd" clip-rule="evenodd" d="M15.7365 15.7365C20.0499 11.4232 25.9 9 32 9C38.1 9 43.9501 11.4232 48.2635 15.7365C51.8953 19.3684 54.1871 24.0897 54.8206 29.1324C55.0186 30.7078 53.7128 32 52.125 32C50.5372 32 49.2744 30.704 49.011 29.1382C48.42 25.6248 46.75 22.3548 44.1976 19.8024C40.9626 16.5674 36.575 14.75 32 14.75C27.425 14.75 23.0374 16.5674 19.8024 19.8024C16.5674 23.0374 14.75 27.425 14.75 32C14.75 36.575 16.5674 40.9626 19.8024 44.1976C22.3548 46.75 25.6248 48.42 29.1382 49.011C30.704 49.2744 32 50.5372 32 52.125C32 53.7128 30.7078 55.0186 29.1324 54.8206C24.0897 54.1871 19.3684 51.8953 15.7365 48.2635C11.4232 43.9501 9 38.1 9 32C9 25.9 11.4232 20.0499 15.7365 15.7365ZM23.8639 23.8727C26.0178 21.7164 28.9397 20.5033 31.9875 20.5H32C33.5102 20.5 35.0056 20.7975 36.4009 21.3754C37.7961 21.9533 39.0639 22.8004 40.1317 23.8683C41.1996 24.9361 42.0467 26.2039 42.6246 27.5991C42.9573 28.4024 43.1971 29.2388 43.3406 30.0922C43.5163 31.1361 42.6419 32 41.5833 32C40.5248 32 39.6903 31.1288 39.4283 30.1032C39.0906 28.7807 38.4027 27.5604 37.4212 26.5788C35.9834 25.1411 34.0333 24.3333 32 24.3333C29.9667 24.3333 28.0166 25.1411 26.5788 26.5788C25.1411 28.0166 24.3333 29.9667 24.3333 32C24.3333 34.0333 25.1411 35.9834 26.5788 37.4212C27.5604 38.4027 28.7807 39.0906 30.1032 39.4283C31.1288 39.6903 32 40.5248 32 41.5833C32 42.6419 31.136 43.5163 30.0921 43.3407C27.7499 42.9466 25.5699 41.8333 23.8683 40.1317C21.7116 37.9751 20.5 35.05 20.5 32C20.5 28.9522 21.7099 26.029 23.8639 23.8727Z" fill="url(#paint1_linear_231_168)"/>
<defs>
<linearGradient id="paint0_linear_231_168" x1="55.5081" y1="48.8446" x2="38.7057" y2="-0.28069" gradientUnits="userSpaceOnUse">
<stop stop-color="#FF7B87"/>
<stop offset="1" stop-color="#FF3678"/>
</linearGradient>
<linearGradient id="paint1_linear_231_168" x1="51.1635" y1="45.7089" x2="37.4094" y2="5.49591" gradientUnits="userSpaceOnUse">
<stop stop-color="#FF7B87"/>
<stop offset="1" stop-color="#FF3678"/>
</linearGradient>
</defs>
</svg>
