<svg width="128" height="128" viewBox="0 0 128 128" fill="none" xmlns="http://www.w3.org/2000/svg">
<path opacity="0.4" d="M11 38C11 22.536 23.536 10 39 10H89C104.464 10 117 22.536 117 38V90C117 105.464 104.464 118 89 118H39C23.536 118 11 105.464 11 90V38Z" fill="url(#paint0_linear_275_89)"/>
<path fill-rule="evenodd" clip-rule="evenodd" d="M64 27C59.8647 27.0039 55.8479 28.3686 52.5799 30.8799C50.0026 32.8604 48.0062 35.4656 46.7703 38.4248C46.2657 39.633 47.2225 40.875 48.5318 40.875H57.3333C58.4379 40.875 59.3333 41.7704 59.3333 42.875V48.125C59.3333 49.2296 58.4379 50.125 57.3333 50.125H47.3333C46.2288 50.125 45.3333 51.0204 45.3333 52.125V57.375C45.3333 58.4796 46.2288 59.375 47.3333 59.375H57.3333C58.4379 59.375 59.3333 60.2704 59.3333 61.375V66.625C59.3333 67.7296 58.4379 68.625 57.3333 68.625H48.5409C47.2316 68.625 46.2748 69.867 46.7794 71.0752C48.0147 74.033 50.0098 76.6371 52.5854 78.6173C55.8515 81.1284 59.8663 82.4941 64 82.5C68.1352 82.4961 72.1521 81.1314 75.4201 78.6201C77.9974 76.6396 79.9938 74.0344 81.2297 71.0752C81.7343 69.867 80.7775 68.625 79.4682 68.625H70.6667C69.5621 68.625 68.6667 67.7296 68.6667 66.625V61.375C68.6667 60.2704 69.5621 59.375 70.6667 59.375H80.6667C81.7712 59.375 82.6667 58.4796 82.6667 57.375V52.125C82.6667 51.0204 81.7712 50.125 80.6667 50.125H70.6667C69.5621 50.125 68.6667 49.2296 68.6667 48.125V42.875C68.6667 41.7704 69.5621 40.875 70.6667 40.875H79.4591C80.7684 40.875 81.7252 39.633 81.2206 38.4248C79.9853 35.467 77.9902 32.8629 75.4146 30.8827C72.1485 28.3716 68.1337 27.0059 64 27ZM38.0002 68.625C36.8955 68.625 35.9893 69.523 36.1047 70.6216C36.603 75.3672 38.8668 79.8883 42.6153 83.551C46.8389 87.6781 52.6775 90.4517 59.1155 91.3937C59.2402 91.4119 59.3333 91.5186 59.3333 91.6447V91.6447C59.3333 91.7121 59.3064 91.7767 59.2585 91.8241L53.4514 97.5795C52.1827 98.8368 53.0731 101 54.8592 101H73.1408C74.9269 101 75.8173 98.8368 74.5486 97.5795L68.7477 91.8303C68.6958 91.7789 68.6667 91.7089 68.6667 91.6359V91.6359C68.6667 91.4993 68.7676 91.3837 68.9027 91.3639C75.3279 90.4202 81.1552 87.6518 85.3741 83.5343C89.1208 79.8776 91.387 75.3638 91.8922 70.6243C92.0094 69.5248 91.1027 68.625 89.997 68.625H89.3333C88.2288 68.625 87.3471 69.5245 87.1975 70.6189C86.627 74.7922 84.2781 78.7103 80.4992 81.7065C76.1233 85.1759 70.1884 87.125 64 87.125C57.8116 87.125 51.8767 85.1759 47.5008 81.7065C43.7219 78.7103 41.373 74.7922 40.8025 70.6189C40.6529 69.5245 39.7712 68.625 38.6667 68.625H38.0002Z" fill="#8E44AD"/>
<path fill-rule="evenodd" clip-rule="evenodd" d="M64 27C59.8647 27.0039 55.8479 28.3686 52.5799 30.8799C50.0026 32.8604 48.0062 35.4656 46.7703 38.4248C46.2657 39.633 47.2225 40.875 48.5318 40.875H57.3333C58.4379 40.875 59.3333 41.7704 59.3333 42.875V48.125C59.3333 49.2296 58.4379 50.125 57.3333 50.125H47.3333C46.2288 50.125 45.3333 51.0204 45.3333 52.125V57.375C45.3333 58.4796 46.2288 59.375 47.3333 59.375H57.3333C58.4379 59.375 59.3333 60.2704 59.3333 61.375V66.625C59.3333 67.7296 58.4379 68.625 57.3333 68.625H48.5409C47.2316 68.625 46.2748 69.867 46.7794 71.0752C48.0147 74.033 50.0098 76.6371 52.5854 78.6173C55.8515 81.1284 59.8663 82.4941 64 82.5C68.1352 82.4961 72.1521 81.1314 75.4201 78.6201C77.9974 76.6396 79.9938 74.0344 81.2297 71.0752C81.7343 69.867 80.7775 68.625 79.4682 68.625H70.6667C69.5621 68.625 68.6667 67.7296 68.6667 66.625V61.375C68.6667 60.2704 69.5621 59.375 70.6667 59.375H80.6667C81.7712 59.375 82.6667 58.4796 82.6667 57.375V52.125C82.6667 51.0204 81.7712 50.125 80.6667 50.125H70.6667C69.5621 50.125 68.6667 49.2296 68.6667 48.125V42.875C68.6667 41.7704 69.5621 40.875 70.6667 40.875H79.4591C80.7684 40.875 81.7252 39.633 81.2206 38.4248C79.9853 35.467 77.9902 32.8629 75.4146 30.8827C72.1485 28.3716 68.1337 27.0059 64 27ZM38.0002 68.625C36.8955 68.625 35.9893 69.523 36.1047 70.6216C36.603 75.3672 38.8668 79.8883 42.6153 83.551C46.8389 87.6781 52.6775 90.4517 59.1155 91.3937C59.2402 91.4119 59.3333 91.5186 59.3333 91.6447V91.6447C59.3333 91.7121 59.3064 91.7767 59.2585 91.8241L53.4514 97.5795C52.1827 98.8368 53.0731 101 54.8592 101H73.1408C74.9269 101 75.8173 98.8368 74.5486 97.5795L68.7477 91.8303C68.6958 91.7789 68.6667 91.7089 68.6667 91.6359V91.6359C68.6667 91.4993 68.7676 91.3837 68.9027 91.3639C75.3279 90.4202 81.1552 87.6518 85.3741 83.5343C89.1208 79.8776 91.387 75.3638 91.8922 70.6243C92.0094 69.5248 91.1027 68.625 89.997 68.625H89.3333C88.2288 68.625 87.3471 69.5245 87.1975 70.6189C86.627 74.7922 84.2781 78.7103 80.4992 81.7065C76.1233 85.1759 70.1884 87.125 64 87.125C57.8116 87.125 51.8767 85.1759 47.5008 81.7065C43.7219 78.7103 41.373 74.7922 40.8025 70.6189C40.6529 69.5245 39.7712 68.625 38.6667 68.625H38.0002Z" fill="url(#paint1_linear_275_89)"/>
<defs>
<linearGradient id="paint0_linear_275_89" x1="64" y1="118" x2="64" y2="10" gradientUnits="userSpaceOnUse">
<stop stop-color="#A93AFF"/>
<stop offset="1" stop-color="#FF81FF"/>
</linearGradient>
<linearGradient id="paint1_linear_275_89" x1="64.0003" y1="101" x2="64.0003" y2="63.531" gradientUnits="userSpaceOnUse">
<stop stop-color="#A93AFF"/>
<stop offset="1" stop-color="#FF81FF"/>
</linearGradient>
</defs>
</svg>
