<svg width="24" height="24" viewBox="0 0 24 24" fill="none" xmlns="http://www.w3.org/2000/svg">
<path opacity="0.5" d="M1 12C1 6.8146 1 4.2219 2.6104 2.6104C4.223 1 6.8146 1 12 1C17.1854 1 19.7781 1 21.3885 2.6104C23 4.223 23 6.8146 23 12C23 17.1854 23 19.7781 21.3885 21.3885C19.7792 23 17.1854 23 12 23C6.8146 23 4.2219 23 2.6104 21.3885C1 19.7792 1 17.1854 1 12Z" fill="url(#paint0_linear_54_1011)"/>
<path d="M6.77499 17.5C6.77499 17.2812 6.86191 17.0713 7.01663 16.9166C7.17135 16.7619 7.38119 16.675 7.59999 16.675H16.4C16.6188 16.675 16.8286 16.7619 16.9834 16.9166C17.1381 17.0713 17.225 17.2812 17.225 17.5C17.225 17.7188 17.1381 17.9286 16.9834 18.0834C16.8286 18.2381 16.6188 18.325 16.4 18.325H7.59999C7.38119 18.325 7.17135 18.2381 7.01663 18.0834C6.86191 17.9286 6.77499 17.7188 6.77499 17.5ZM8.42499 6.49999C8.42499 6.28118 8.33807 6.07134 8.18336 5.91662C8.02864 5.76191 7.8188 5.67499 7.59999 5.67499C7.38119 5.67499 7.17135 5.76191 7.01663 5.91662C6.86191 6.07134 6.77499 6.28118 6.77499 6.49999V9.79999C6.77499 11.1857 7.32548 12.5147 8.30536 13.4946C9.28524 14.4745 10.6142 15.025 12 15.025C13.3858 15.025 14.7147 14.4745 15.6946 13.4946C16.6745 12.5147 17.225 11.1857 17.225 9.79999V6.49999C17.225 6.28118 17.1381 6.07134 16.9834 5.91662C16.8286 5.76191 16.6188 5.67499 16.4 5.67499C16.1812 5.67499 15.9713 5.76191 15.8166 5.91662C15.6619 6.07134 15.575 6.28118 15.575 6.49999V9.79999C15.575 10.7481 15.1983 11.6575 14.5279 12.3279C13.8575 12.9983 12.9481 13.375 12 13.375C11.0518 13.375 10.1425 12.9983 9.47209 12.3279C8.80165 11.6575 8.42499 10.7481 8.42499 9.79999V6.49999Z" fill="url(#paint1_linear_54_1011)"/>
<defs>
<linearGradient id="paint0_linear_54_1011" x1="12" y1="23" x2="12" y2="1" gradientUnits="userSpaceOnUse">
<stop stop-color="#5570FF"/>
<stop offset="1" stop-color="#4DD3FF"/>
</linearGradient>
<linearGradient id="paint1_linear_54_1011" x1="12" y1="18.325" x2="12" y2="5.67499" gradientUnits="userSpaceOnUse">
<stop stop-color="#5570FF"/>
<stop offset="1" stop-color="#4DD3FF"/>
</linearGradient>
</defs>
</svg>
