<svg width="16" height="16" viewBox="0 0 16 16" fill="none" xmlns="http://www.w3.org/2000/svg">
<path opacity="0.4" d="M6.22464 8.875H1.90043C1.40317 8.875 1.00006 9.27811 1.00006 9.77537V14.0996C1.00006 14.5968 1.40317 14.9999 1.90043 14.9999H6.22464C6.7219 14.9999 7.12501 14.5968 7.12501 14.0996V9.77537C7.12501 9.27811 6.7219 8.875 6.22464 8.875Z" fill="url(#paint0_linear_311_477)"/>
<path opacity="0.4" d="M6.22464 1H1.90043C1.40317 1 1.00006 1.40311 1.00006 1.90037V6.22458C1.00006 6.72184 1.40317 7.12495 1.90043 7.12495H6.22464C6.7219 7.12495 7.12501 6.72184 7.12501 6.22458V1.90037C7.12501 1.40311 6.7219 1 6.22464 1Z" fill="url(#paint1_linear_311_477)"/>
<path opacity="0.4" d="M14.0996 1H9.77537C9.27811 1 8.875 1.40311 8.875 1.90037V6.22458C8.875 6.72184 9.27811 7.12495 9.77537 7.12495H14.0996C14.5968 7.12495 14.9999 6.72184 14.9999 6.22458V1.90037C14.9999 1.40311 14.5968 1 14.0996 1Z" fill="url(#paint2_linear_311_477)"/>
<path d="M11.25 11.9153C11.0449 11.6931 10.705 11.6711 10.4449 11.8255C9.85714 12.1745 9.17074 12.3749 8.43753 12.3749C6.26292 12.3749 4.50006 10.6121 4.50006 8.43747C4.50006 6.26286 6.26292 4.5 8.43753 4.5C10.6121 4.5 12.375 6.26286 12.375 8.43747C12.375 9.13058 12.1959 9.78187 11.8815 10.3476C11.7421 10.5983 11.7555 10.9153 11.9501 11.1261L12.3304 11.5381C12.3533 11.5628 12.3922 11.5637 12.4161 11.5399V11.5399C12.4698 11.4865 12.5568 11.4866 12.6103 11.5403L14.7797 13.714C15.0742 14.009 15.0732 14.4864 14.7778 14.7803C14.4822 15.0741 14.0039 15.0732 13.7095 14.7783L11.54 12.6045C11.4865 12.5509 11.4866 12.4641 11.5404 12.4107V12.4107C11.589 12.3624 11.5906 12.2843 11.5442 12.234L11.25 11.9153Z" fill="url(#paint3_linear_311_477)"/>
<defs>
<linearGradient id="paint0_linear_311_477" x1="4.06253" y1="8.875" x2="4.06253" y2="14.9999" gradientUnits="userSpaceOnUse">
<stop stop-color="#00FFE0"/>
<stop offset="1" stop-color="#078AA7"/>
</linearGradient>
<linearGradient id="paint1_linear_311_477" x1="4.06253" y1="1" x2="4.06253" y2="7.12495" gradientUnits="userSpaceOnUse">
<stop stop-color="#00FFE0"/>
<stop offset="1" stop-color="#078AA7"/>
</linearGradient>
<linearGradient id="paint2_linear_311_477" x1="11.9375" y1="1" x2="11.9375" y2="7.12495" gradientUnits="userSpaceOnUse">
<stop stop-color="#00FFE0"/>
<stop offset="1" stop-color="#078AA7"/>
</linearGradient>
<linearGradient id="paint3_linear_311_477" x1="9.75001" y1="4.5" x2="9.75001" y2="15" gradientUnits="userSpaceOnUse">
<stop stop-color="#00FFE0"/>
<stop offset="1" stop-color="#078AA7"/>
</linearGradient>
</defs>
</svg>
