<svg width="24" height="25" viewBox="0 0 24 25" fill="none" xmlns="http://www.w3.org/2000/svg">
<path d="M17.94 14.9453H16.8823C16.3301 14.9453 15.8823 15.393 15.8823 15.9453V21.4158C15.8823 22.1276 15.3 22.71 14.5882 22.71H9.41176C8.69999 22.71 8.11764 22.1276 8.11764 21.4158V15.9453C8.11764 15.393 7.66992 14.9453 7.11764 14.9453H6.05999C4.90823 14.9453 4.32587 13.5476 5.14117 12.7323L11.0812 6.79231C11.5859 6.28761 12.4012 6.28761 12.9059 6.79231L18.8459 12.7323C19.6612 13.5476 19.0918 14.9453 17.94 14.9453Z" fill="url(#paint0_linear_310_453)"/>
<path opacity="0.4" d="M4.23528 2.29018C3.52352 2.29018 2.94116 2.87254 2.94116 3.5843C2.94116 4.29607 3.52352 4.87842 4.23528 4.87842H19.7647C20.4765 4.87842 21.0588 4.29607 21.0588 3.5843C21.0588 2.87254 20.4765 2.29018 19.7647 2.29018H4.23528Z" fill="url(#paint1_linear_310_453)"/>
<defs>
<linearGradient id="paint0_linear_310_453" x1="4.76068" y1="14.5619" x2="19.2296" y2="14.5619" gradientUnits="userSpaceOnUse">
<stop stop-color="#EC0EB4"/>
<stop offset="1" stop-color="#F766D2"/>
</linearGradient>
<linearGradient id="paint1_linear_310_453" x1="2.94116" y1="3.5843" x2="21.0588" y2="3.5843" gradientUnits="userSpaceOnUse">
<stop stop-color="#EC0EB4"/>
<stop offset="1" stop-color="#F766D2"/>
</linearGradient>
</defs>
</svg>
