<svg width="128" height="128" viewBox="0 0 128 128" fill="none" xmlns="http://www.w3.org/2000/svg">
<path opacity="0.4" d="M64 122C31.9661 122 6 96.0339 6 64C6 31.9661 31.9661 6 64 6C96.0339 6 122 31.9661 122 64C122 96.0339 96.0339 122 64 122Z" fill="url(#paint0_linear_54_161)"/>
<path fill-rule="evenodd" clip-rule="evenodd" d="M62.7083 49.6515C55.8325 52.7903 44.6957 62.1976 26.716 80.0611C26.3237 80.4509 26.3175 81.0908 26.7085 81.4819L31.2321 86.0054L32.269 87.0479C32.6592 87.4402 33.2938 87.441 33.6851 87.0498L68.5373 52.1976C69.0656 51.6693 69.6614 51.2657 70.2968 50.9606C71.0869 50.5812 71.3285 49.4331 70.5347 49.0613C68.4843 48.1007 66.1866 48.0635 62.7083 49.6515ZM77.4748 66.1575C77.8297 65.2557 76.8082 64.6158 76.0802 65.2555L41.974 95.2255C41.5406 95.6064 41.5196 96.2752 41.9272 96.6837C44.1344 98.8956 45.5998 100.358 46.5464 101.307C46.9305 101.692 47.5518 101.7 47.946 101.326C61.1008 88.816 73.5489 76.1347 77.4748 66.1575ZM83.1889 41.5842L95.0077 29.7656C95.4326 29.3407 95.3906 28.6369 94.8883 28.3071C92.5358 26.7626 89.8116 26 87.0873 26C83.4408 26 79.7942 27.3802 77.0523 30.1316C74.3663 32.8175 72.8927 36.3801 72.8927 40.176C72.8927 43.9718 74.3663 47.5438 77.0523 50.2297C80.8268 54.0128 86.3764 55.325 91.3955 53.7222C92.0666 53.5079 92.2282 52.6665 91.7298 52.1686L83.1982 43.6454C82.9278 43.3749 82.7693 43.0018 82.7693 42.6195C82.76 42.2278 82.9185 41.8641 83.1889 41.5842Z" fill="url(#paint1_linear_54_161)"/>
<path fill-rule="evenodd" clip-rule="evenodd" d="M98.5882 31.8034C98.2438 31.3318 97.5634 31.3066 97.1507 31.7199L86.974 41.9129C86.584 42.3035 86.5843 42.9363 86.9746 43.3266L94.775 51.1269C95.1192 51.471 95.6635 51.5201 96.0425 51.2147C96.4269 50.905 96.7951 50.5752 97.1519 50.2303C99.8378 47.5443 101.311 43.9723 101.311 40.1765C101.311 37.1282 100.359 34.2288 98.5882 31.8034ZM70.5906 54.2406L35.8389 89.0015C35.4484 89.392 35.4485 90.0251 35.839 90.4156L38.5448 93.1214C38.9176 93.4942 39.5157 93.5135 39.9118 93.1656L76.7553 60.8063C77.6972 59.9763 78.2381 58.8198 78.2755 57.5701C78.3127 56.311 77.8464 55.1266 76.9605 54.2312C75.2071 52.4873 72.3533 52.4873 70.5906 54.2406Z" fill="url(#paint2_linear_54_161)"/>
<defs>
<linearGradient id="paint0_linear_54_161" x1="6" y1="6" x2="122" y2="122" gradientUnits="userSpaceOnUse">
<stop stop-color="#FBFF23"/>
<stop offset="1" stop-color="#FF2F2F"/>
</linearGradient>
<linearGradient id="paint1_linear_54_161" x1="26" y1="26" x2="101.726" y2="95.556" gradientUnits="userSpaceOnUse">
<stop stop-color="#FBFF23"/>
<stop offset="1" stop-color="#FF2F2F"/>
</linearGradient>
<linearGradient id="paint2_linear_54_161" x1="-5.57633" y1="30.9528" x2="103.564" y2="137.818" gradientUnits="userSpaceOnUse">
<stop stop-color="#FBFF23"/>
<stop offset="1" stop-color="#FF2F2F"/>
</linearGradient>
</defs>
</svg>
