<svg width="24" height="24" viewBox="0 0 24 24" fill="none" xmlns="http://www.w3.org/2000/svg">
<path opacity="0.4" fill-rule="evenodd" clip-rule="evenodd" d="M11.14 1C9.8433 1 8.5998 1.51507 7.68296 2.43192C6.76611 3.34876 6.25105 4.59227 6.25104 5.88888C6.25105 7.18548 6.76611 8.42899 7.68296 9.34581C8.5998 10.2627 9.8433 10.7778 11.14 10.7778C12.4365 10.7778 13.68 10.2627 14.5969 9.3458C15.5137 8.42899 16.0288 7.18543 16.0289 5.88885C16.0288 4.59225 15.5136 3.34874 14.5969 2.43191C13.68 1.51508 12.4365 1 11.14 1ZM5.1694 14.937C6.95308 13.3621 9.24988 12.4917 11.6293 12.4889C11.9241 12.491 12.2185 12.5066 12.5116 12.5354C12.7066 12.5546 12.8516 12.7211 12.8516 12.9172V13.3535C12.8516 13.5931 12.6381 13.7757 12.3997 13.7522C12.1438 13.7269 11.8868 13.7132 11.6293 13.7111C9.57384 13.7135 7.5879 14.4559 6.03487 15.8025C4.56729 17.075 3.579 18.8065 3.22688 20.71C3.19152 20.9012 3.02757 21.0442 2.83315 21.0442H2.38361C2.1482 21.0442 1.96554 20.8376 2.00551 20.6056C2.38298 18.4154 3.49675 16.414 5.1694 14.937Z" fill="url(#paint0_linear_80_627)"/>
<path fill-rule="evenodd" clip-rule="evenodd" d="M21.059 15.1819C21.059 15.3322 21.1448 15.4678 21.272 15.5479C22.0524 16.0396 22.534 16.9004 22.535 17.8341V20.294C22.5333 21.7878 21.3228 22.9983 19.8291 22.9999H15.4012C13.9075 22.9983 12.697 21.7878 12.6953 20.294V17.8341C12.6963 16.9004 13.1779 16.0396 13.9583 15.5479C14.0855 15.4678 14.1713 15.3322 14.1713 15.1819V14.7105C14.1713 12.8085 15.7131 11.2666 17.6151 11.2666C19.5172 11.2666 21.059 12.8085 21.059 14.7105V15.1819ZM19.5831 14.7105C19.5831 13.6236 18.702 12.7426 17.6151 12.7426C16.5283 12.7426 15.6472 13.6236 15.6472 14.7105V14.7281C15.6472 14.9491 15.8263 15.1281 16.0472 15.1281H19.1831C19.404 15.1281 19.5831 14.9491 19.5831 14.7281V14.7105ZM17.8613 18.0801H17.3693C16.9617 18.0801 16.6313 18.4105 16.6313 18.818C16.6313 19.2255 16.9617 19.556 17.3693 19.556H17.8613C18.2688 19.556 18.5992 19.2255 18.5992 18.818C18.5992 18.4105 18.2688 18.0801 17.8613 18.0801Z" fill="url(#paint1_linear_80_627)"/>
<defs>
<linearGradient id="paint0_linear_80_627" x1="1.79716" y1="1.19727" x2="21.4143" y2="15.3472" gradientUnits="userSpaceOnUse">
<stop stop-color="#F9D423"/>
<stop offset="0.515624" stop-color="#FF4E50"/>
<stop offset="0.991304" stop-color="#8A2387"/>
</linearGradient>
<linearGradient id="paint1_linear_80_627" x1="12.553" y1="11.3821" x2="24.527" y2="21.7307" gradientUnits="userSpaceOnUse">
<stop stop-color="#F9D423"/>
<stop offset="0.515624" stop-color="#FF4E50"/>
<stop offset="0.991304" stop-color="#8A2387"/>
</linearGradient>
</defs>
</svg>
