<svg width="16" height="16" viewBox="0 0 16 16" fill="none" xmlns="http://www.w3.org/2000/svg">
<path opacity="0.4" d="M1.5 1C1.22386 1 1 1.22386 1 1.5V14.5C1 14.7761 1.22386 15 1.5 15H4C4.27614 15 4.5 14.7761 4.5 14.5V14.3333C4.5 14.0572 4.27614 13.8333 4 13.8333H2.66667C2.39052 13.8333 2.16667 13.6095 2.16667 13.3333V3.83333C2.16667 3.55719 2.39052 3.33333 2.66667 3.33333H13.3333C13.6095 3.33333 13.8333 3.55719 13.8333 3.83333V4C13.8333 4.27614 14.0572 4.5 14.3333 4.5H14.5C14.7761 4.5 15 4.27614 15 4V1.5C15 1.22386 14.7761 1 14.5 1H1.5Z" fill="url(#paint0_linear_8_846)"/>
<path fill-rule="evenodd" clip-rule="evenodd" d="M6.16669 5.66666C5.89054 5.66666 5.66669 5.89051 5.66669 6.16666V14.5C5.66669 14.7761 5.89054 15 6.16669 15H14.5C14.7761 15 15 14.7761 15 14.5V6.16666C15 5.89051 14.7761 5.66666 14.5 5.66666H6.16669ZM6.83337 8.5C6.83337 8.22386 7.05723 8 7.33337 8H13.3333C13.6095 8 13.8333 8.22386 13.8333 8.5V13.3333C13.8333 13.6095 13.6095 13.8333 13.3333 13.8333H7.33337C7.05723 13.8333 6.83337 13.6095 6.83337 13.3333V8.5Z" fill="url(#paint1_linear_8_846)"/>
<defs>
<linearGradient id="paint0_linear_8_846" x1="8" y1="1" x2="8" y2="15" gradientUnits="userSpaceOnUse">
<stop stop-color="#DC18FC"/>
<stop offset="1" stop-color="#8E1EFF"/>
</linearGradient>
<linearGradient id="paint1_linear_8_846" x1="8" y1="1" x2="8" y2="15" gradientUnits="userSpaceOnUse">
<stop stop-color="#DC18FC"/>
<stop offset="1" stop-color="#8E1EFF"/>
</linearGradient>
</defs>
</svg>
