<svg width="128" height="128" viewBox="0 0 128 128" fill="none" xmlns="http://www.w3.org/2000/svg">
<path opacity="0.4" fill-rule="evenodd" clip-rule="evenodd" d="M14.2203 24.1074C14.2147 24.1074 14.209 24.1074 14.2033 24.1074C14.1977 24.1074 14.192 24.1074 14.1863 24.1074H13.3305V24.1934C11.3038 24.5987 9.77686 26.388 9.77686 28.5338V98.5558C9.77686 105.033 15.7222 110.284 23.0563 110.284H103.108C110.442 110.284 116.387 105.033 116.387 98.5558V28.5338C116.387 26.0892 114.405 24.1074 111.961 24.1074C111.323 24.1074 110.716 24.2424 110.168 24.4854V24.1074H14.2203Z" fill="url(#paint0_linear_223_92)"/>
<path fill-rule="evenodd" clip-rule="evenodd" d="M45.5099 17H16.8842C11.9776 17 8 20.9776 8 25.8842C8 30.7907 11.9776 34.7683 16.8842 34.7683H45.5099C45.8601 34.7683 46.2056 34.748 46.5452 34.7086C46.8848 34.748 47.2303 34.7683 47.5805 34.7683H80.5857C80.9073 34.7683 81.225 34.7512 81.5378 34.7179C81.8506 34.7512 82.1683 34.7683 82.4899 34.7683H111.116C116.023 34.7683 120 30.7907 120 25.8842C120 20.9776 116.023 17 111.116 17H82.4899C82.1683 17 81.8506 17.0171 81.5378 17.0504C81.225 17.0171 80.9073 17 80.5857 17H47.5805C47.2303 17 46.8848 17.0203 46.5452 17.0597C46.2056 17.0203 45.8601 17 45.5099 17ZM89 78C96.732 78 103 71.732 103 64C103 56.268 96.732 50 89 50C81.268 50 75 56.268 75 64C75 71.732 81.268 78 89 78ZM54 86C54 93.732 47.732 100 40 100C32.268 100 26 93.732 26 86C26 78.268 32.268 72 40 72C47.732 72 54 78.268 54 86Z" fill="url(#paint1_linear_223_92)"/>
<defs>
<linearGradient id="paint0_linear_223_92" x1="63.0818" y1="110.284" x2="63.0818" y2="24.1074" gradientUnits="userSpaceOnUse">
<stop stop-color="#FD5900"/>
<stop offset="1" stop-color="#FFDE00"/>
</linearGradient>
<linearGradient id="paint1_linear_223_92" x1="28.7468" y1="1.4375" x2="77.6381" y2="141.154" gradientUnits="userSpaceOnUse">
<stop stop-color="#FFCA64"/>
<stop offset="1" stop-color="#C70000"/>
</linearGradient>
</defs>
</svg>
