<svg width="24" height="24" viewBox="0 0 24 24" fill="none" xmlns="http://www.w3.org/2000/svg">
<path opacity="0.5" d="M7.77457 11.7795L6.19064 10.4595C5.80236 10.135 5.60767 9.97334 5.50318 9.75115C5.39978 9.52896 5.39978 9.27598 5.39978 8.77V5.51196C3.96985 5.65276 3.0074 5.97064 2.28914 6.6889C1 7.97694 1 10.0525 1 14.2015C1 18.3483 1 20.4228 2.28914 21.7109C3.57717 23 5.65167 23 9.79957 23H14.1993C18.3472 23 20.4217 23 21.7098 21.7109C22.9989 20.4239 22.9989 18.3494 22.9989 14.2015C22.9989 10.0536 22.9989 7.97804 21.7098 6.6889C20.9915 5.97064 20.028 5.65276 18.5969 5.51196C18.5991 5.81995 18.5991 6.14883 18.5991 6.50191V8.7711C18.5991 9.27708 18.5991 9.53006 18.4946 9.75225C18.3912 9.97444 18.1977 10.1372 17.8072 10.4606L16.2232 11.7806C14.2037 13.4635 13.194 14.3049 11.9995 14.3049C10.8049 14.3049 9.79407 13.4635 7.77457 11.7795Z" fill="url(#paint0_linear_8_900)"/>
<path fill-rule="evenodd" clip-rule="evenodd" d="M6.19174 10.4595L7.77456 11.7795C9.79406 13.4624 10.8049 14.3038 11.9984 14.3038C13.194 14.3038 14.2037 13.4624 16.2243 11.7784L17.8083 10.4584C18.1965 10.135 18.3912 9.97226 18.4946 9.75117C18.5991 9.52898 18.5991 9.27599 18.5991 8.76892V6.49973C18.5991 6.14775 18.5991 5.81776 18.5969 5.51198C18.5837 3.56397 18.4891 2.50143 17.794 1.80516C16.9877 1 15.692 1 13.0994 1H10.8995C8.30694 1 7.0101 1 6.20494 1.80516C5.50868 2.50143 5.41298 3.56397 5.39978 5.51198C5.39833 5.71416 5.39879 5.92541 5.39928 6.14698C5.39953 6.26174 5.39978 6.37926 5.39978 6.49973V8.76892C5.39978 9.27489 5.39978 9.52898 5.50318 9.75117C5.60703 9.9709 5.80106 10.133 6.1846 10.4536L6.18461 10.4536L6.19174 10.4595ZM15.2993 5.2876C15.2993 5.54796 15.0701 5.75913 14.7877 5.75913H14.4395C14.236 5.75913 14.067 5.91249 14.0269 6.11199C13.89 6.79159 13.5871 7.418 13.1586 7.9545C12.9922 8.16287 13.0368 8.48036 13.2853 8.57714C13.7475 8.75714 14.255 8.85672 14.7877 8.85672C15.0701 8.85672 15.2993 9.06766 15.2993 9.32804C15.2993 9.5884 15.0701 9.79957 14.7877 9.79957C13.8458 9.79957 12.966 9.55289 12.2185 9.12665C12.0829 9.0493 11.9158 9.04931 11.7802 9.12667C11.0329 9.55289 10.1531 9.79957 9.21126 9.79957C8.92885 9.79957 8.69962 9.5884 8.69962 9.32804C8.69962 9.06766 8.92885 8.85672 9.21126 8.85672C9.74376 8.85672 10.2512 8.75696 10.7133 8.57709C10.9619 8.48033 11.0065 8.16271 10.8401 7.95425C10.4117 7.4178 10.1089 6.79148 9.97205 6.11199C9.93189 5.91249 9.7629 5.75913 9.55939 5.75913H9.21126C8.92885 5.75913 8.69962 5.54796 8.69962 5.2876C8.69962 5.02724 8.92885 4.81607 9.21126 4.81607H11.0877C11.3086 4.81607 11.4877 4.63699 11.4877 4.41607V3.67142C11.4877 3.41106 11.7169 3.19989 11.9994 3.19989C12.282 3.19989 12.5112 3.41106 12.5112 3.67142V4.41607C12.5112 4.63699 12.6903 4.81607 12.9112 4.81607H14.7877C15.0701 4.81607 15.2993 5.02724 15.2993 5.2876ZM11.737 7.48417C11.8756 7.64715 12.1232 7.64717 12.2617 7.48421C12.5786 7.11159 12.8168 6.67982 12.9534 6.21009C13.0214 5.97617 12.8328 5.75913 12.5892 5.75913H11.4097C11.1661 5.75913 10.9775 5.97617 11.0455 6.21009C11.1821 6.6798 11.4202 7.11155 11.737 7.48417Z" fill="url(#paint1_linear_8_900)"/>
<defs>
<linearGradient id="paint0_linear_8_900" x1="11.9995" y1="23" x2="11.9995" y2="5.51196" gradientUnits="userSpaceOnUse">
<stop stop-color="#5558FF"/>
<stop offset="1" stop-color="#00C0FF"/>
</linearGradient>
<linearGradient id="paint1_linear_8_900" x1="11.999" y1="14.3038" x2="11.999" y2="1" gradientUnits="userSpaceOnUse">
<stop stop-color="#5558FF"/>
<stop offset="1" stop-color="#00C0FF"/>
</linearGradient>
</defs>
</svg>
