<svg width="32" height="32" viewBox="0 0 32 32" fill="none" xmlns="http://www.w3.org/2000/svg">
<path opacity="0.5" d="M14.685 27.6371C16.3795 27.6549 18.0608 27.3364 19.6315 26.7001C21.2023 26.0639 22.6312 25.1225 23.8358 23.9305C25.0403 22.7385 25.9966 21.3194 26.6492 19.7554C27.3018 18.1915 27.6378 16.5136 27.6378 14.8189C27.6378 13.1242 27.3018 11.4464 26.6492 9.88241C25.9966 8.31843 25.0403 6.89938 23.8358 5.70734C22.6312 4.5153 21.2023 3.57393 19.6315 2.9377C18.0608 2.30146 16.3795 1.98299 14.685 2.0007C11.3086 2.03599 8.08244 3.40201 5.70734 5.80206C3.33224 8.20211 2 11.4423 2 14.8189C2 18.1955 3.33224 21.4357 5.70734 23.8358C8.08244 26.2358 11.3086 27.6019 14.685 27.6371Z" fill="url(#paint0_linear_5_77)"/>
<path fill-rule="evenodd" clip-rule="evenodd" d="M25.439 25.5737C25.6288 25.3841 25.8861 25.2776 26.1544 25.2776C26.4226 25.2776 26.6799 25.3841 26.8697 25.5737L29.5687 28.2713C29.7586 28.4612 29.8653 28.7188 29.8653 28.9874C29.8653 29.2559 29.7586 29.5135 29.5687 29.7034C29.3788 29.8933 29.1212 30 28.8527 30C28.5841 30 28.3265 29.8933 28.1366 29.7034L25.4404 27.003C25.2508 26.8132 25.1443 26.5559 25.1443 26.2877C25.1443 26.0194 25.2508 25.7621 25.4404 25.5723L25.439 25.5737Z" fill="url(#paint1_linear_5_77)"/>
<path d="M16.3846 10.3846C16.3846 9.62049 15.766 9 15 9C14.2359 9 13.6154 9.62049 13.6154 10.3846V13.6154H10.3846C10.0174 13.6154 9.66521 13.7613 9.40555 14.0209C9.14588 14.2806 9 14.6328 9 15C9 15.3672 9.14588 15.7194 9.40555 15.9791C9.66521 16.2387 10.0174 16.3846 10.3846 16.3846H13.6154V19.6154C13.6154 19.9826 13.7613 20.3348 14.0209 20.5945C14.2806 20.8541 14.6328 21 15 21C15.3672 21 15.7194 20.8541 15.9791 20.5945C16.2387 20.3348 16.3846 19.9826 16.3846 19.6154V16.3846H19.6154C19.9826 16.3846 20.3348 16.2387 20.5945 15.9791C20.8541 15.7194 21 15.3672 21 15C21 14.6328 20.8541 14.2806 20.5945 14.0209C20.3348 13.7613 19.9826 13.6154 19.6154 13.6154H16.3846V10.3846Z" fill="url(#paint2_linear_5_77)"/>
<defs>
<linearGradient id="paint0_linear_5_77" x1="2" y1="14.8189" x2="27.6379" y2="14.8189" gradientUnits="userSpaceOnUse">
<stop stop-color="#02AA93"/>
<stop offset="1" stop-color="#67FF80"/>
</linearGradient>
<linearGradient id="paint1_linear_5_77" x1="25.1443" y1="27.6388" x2="29.8653" y2="27.6388" gradientUnits="userSpaceOnUse">
<stop stop-color="#02AA93"/>
<stop offset="1" stop-color="#67FF80"/>
</linearGradient>
<linearGradient id="paint2_linear_5_77" x1="9" y1="15" x2="21" y2="15" gradientUnits="userSpaceOnUse">
<stop stop-color="#02AA93"/>
<stop offset="1" stop-color="#67FF80"/>
</linearGradient>
</defs>
</svg>
