<svg width="32" height="32" viewBox="0 0 32 32" fill="none" xmlns="http://www.w3.org/2000/svg">
<path opacity="0.4" d="M4.337 4.8854C3 6.725 3 9.3514 3 14.6V17.4C3 22.65 3 25.275 4.337 27.1146C4.76871 27.7088 5.29123 28.2313 5.8854 28.663C7.725 30 10.3514 30 15.6 30C20.85 30 23.475 30 25.3146 28.663C25.9088 28.2313 26.4313 27.7088 26.863 27.1146C28.2 25.275 28.2 22.6486 28.2 17.4V14.6C28.2 9.35 28.2 6.725 26.863 4.8854C26.4313 4.29123 25.9088 3.76871 25.3146 3.337C23.475 2 20.8486 2 15.6 2C10.35 2 7.725 2 5.8854 3.337C5.29134 3.76828 4.76882 4.29173 4.337 4.8854Z" fill="url(#paint0_linear_8_1002)"/>
<path fill-rule="evenodd" clip-rule="evenodd" d="M15.4103 7.60686C14.6978 7.52691 13.9968 8.15521 14.006 8.89177C13.9854 10.3462 13.9886 11.8014 13.9917 13.2565C13.9942 14.403 13.9967 15.5494 13.9875 16.6953C13.9645 17.2554 14.0498 17.9119 14.5617 18.2343C15.2766 18.8015 16.4457 18.319 16.5887 17.4131C16.6311 16.7401 16.6253 16.0652 16.6195 15.3903C16.6161 15.0008 16.6128 14.6112 16.6187 14.222C17.1767 14.9179 17.7429 15.607 18.3093 16.2961C18.733 16.8117 19.1568 17.3274 19.5773 17.8461C19.8886 18.2649 20.3797 18.5638 20.9124 18.4579C21.8671 18.3756 22.3698 17.0765 21.7633 16.3352C21.1563 15.5575 20.5277 14.7983 19.8991 14.039C19.6298 13.7137 19.3606 13.3885 19.093 13.0618C19.5646 12.4586 20.0523 11.8688 20.5399 11.2791C20.9179 10.8219 21.296 10.3648 21.6665 9.90136C22.0654 9.46123 22.1484 8.76233 21.8348 8.24935C21.4013 7.47749 20.2114 7.4045 19.6948 8.12221C18.9645 8.99342 18.2457 9.87509 17.5269 10.7566C17.2245 11.1276 16.922 11.4985 16.6187 11.8687C16.6149 11.4707 16.6169 11.0723 16.6188 10.6738C16.6217 10.0898 16.6245 9.50568 16.6094 8.92237C16.6348 8.24695 16.0652 7.63983 15.4103 7.60686ZM9.85494 13.083C8.9095 12.7983 7.9733 13.869 8.32608 14.8009C8.49869 15.4289 9.09858 15.6643 9.65401 15.8823C9.78134 15.9323 9.90633 15.9814 10.0233 16.034C10.0025 16.733 10.0487 17.4319 10.1801 18.1191C10.0516 18.2055 9.91227 18.2843 9.77165 18.3639C9.35686 18.5986 8.93119 18.8394 8.74344 19.2981C8.41601 20.0158 8.87492 20.9689 9.64509 21.1172C10.1869 21.2587 10.6646 20.9664 11.118 20.689C11.2223 20.6251 11.3254 20.5621 11.4276 20.5053C11.8542 20.9454 12.3223 21.3431 12.832 21.6772C12.8039 21.839 12.7616 22.0044 12.7187 22.1715C12.5891 22.6775 12.4555 23.1986 12.7052 23.6799C13.028 24.3976 14.0195 24.6236 14.6283 24.1529C15.0605 23.852 15.167 23.3298 15.2687 22.8306C15.295 22.7013 15.3211 22.5735 15.3524 22.4515C15.9196 22.4327 16.4846 22.3597 17.0426 22.2585C17.1417 22.3924 17.2333 22.5404 17.3258 22.6901C17.6058 23.1429 17.8947 23.6102 18.4285 23.7411C19.2633 24.007 20.1719 23.1951 20.0543 22.3173C19.9849 21.867 19.7303 21.4947 19.4767 21.1239C19.3592 20.9521 19.242 20.7806 19.1434 20.6018C19.0802 20.5055 19.0185 20.4012 18.9554 20.2948C18.6596 19.7951 18.3356 19.2479 17.7045 19.2557C17.3508 19.2017 17.0391 19.3399 16.7264 19.4786C16.5212 19.5696 16.3155 19.6608 16.0972 19.6981C14.8474 19.8935 13.4638 19.2204 12.9657 18.0014C12.5253 17.246 12.6336 16.3471 12.8481 15.5375C13.0257 14.8998 12.666 14.2173 12.071 13.982C11.8351 13.8857 11.6007 13.7856 11.3662 13.6855C10.8672 13.4723 10.368 13.2592 9.85494 13.083Z" fill="url(#paint1_linear_8_1002)"/>
<defs>
<linearGradient id="paint0_linear_8_1002" x1="15.6" y1="2" x2="15.6" y2="30" gradientUnits="userSpaceOnUse">
<stop stop-color="#DC18FC"/>
<stop offset="1" stop-color="#8E1EFF"/>
</linearGradient>
<linearGradient id="paint1_linear_8_1002" x1="14.1573" y1="14.5075" x2="14.2244" y2="22.4222" gradientUnits="userSpaceOnUse">
<stop stop-color="#DE14FF"/>
<stop offset="1" stop-color="#7F00FF"/>
</linearGradient>
</defs>
</svg>
