<svg width="24" height="24" viewBox="0 0 24 24" fill="none" xmlns="http://www.w3.org/2000/svg">
<path opacity="0.4" d="M16.7674 1H7.2315C3.5036 1 1 3.6158 1 7.5087V16.4924C1 20.3842 3.5036 23 7.2315 23H16.7663C20.4942 23 23 20.3842 23 16.4924V7.5087C23 3.6158 20.4953 1 16.7674 1" fill="url(#paint0_linear_26_76)"/>
<path fill-rule="evenodd" clip-rule="evenodd" d="M11.0494 10.5672H18.9592C19.5282 10.5672 20 11.039 20 11.608V14.1752C20 14.758 19.5282 15.216 18.9592 15.216C18.3764 15.216 17.9185 14.758 17.9185 14.1752V12.6487H16.0729V14.1752C16.0729 14.758 15.601 15.216 15.0321 15.216C14.4493 15.216 13.9913 14.758 13.9913 14.1752V12.6487H11.0494C10.6054 14.1336 9.24545 15.216 7.62186 15.216C5.62359 15.216 4 13.6062 4 11.608C4 9.62359 5.62359 8 7.62186 8C9.24545 8 10.6054 9.08239 11.0494 10.5672ZM6.08153 11.608C6.08153 12.4544 6.77537 13.1344 7.62186 13.1344C8.45447 13.1344 9.14831 12.4544 9.14831 11.608C9.14831 10.7615 8.45447 10.0815 7.62186 10.0815C6.77537 10.0815 6.08153 10.7615 6.08153 11.608Z" fill="url(#paint1_linear_26_76)"/>
<defs>
<linearGradient id="paint0_linear_26_76" x1="12" y1="23" x2="12" y2="1" gradientUnits="userSpaceOnUse">
<stop stop-color="#5570FF"/>
<stop offset="1" stop-color="#4DD3FF"/>
</linearGradient>
<linearGradient id="paint1_linear_26_76" x1="12" y1="15.216" x2="12" y2="8" gradientUnits="userSpaceOnUse">
<stop stop-color="#5570FF"/>
<stop offset="1" stop-color="#4DD3FF"/>
</linearGradient>
</defs>
</svg>
