<svg width="192" height="192" viewBox="0 0 192 192" fill="none" xmlns="http://www.w3.org/2000/svg">
<rect opacity="0.4" x="5" y="14" width="182" height="164" rx="32" fill="url(#paint0_linear_38_96)"/>
<path fill-rule="evenodd" clip-rule="evenodd" d="M20 50C20 47.7909 21.7909 46 24 46H69C71.2091 46 73 47.7909 73 50V53C73 55.2091 71.2091 57 69 57H24C21.7909 57 20 55.2091 20 53V50ZM34 70C31.7909 70 30 71.7909 30 74V77C30 79.2091 31.7909 81 34 81H79C81.2091 81 83 79.2091 83 77V74C83 71.7909 81.2091 70 79 70H34ZM158.28 90.3874H158.284C161.922 90.3874 165.41 91.8325 167.983 94.405C170.555 96.977 172 100.466 172 104.104V129.536C172 137.671 168.769 145.472 163.017 151.224C157.265 156.976 149.463 160.207 141.329 160.207H120.137C113.447 160.22 106.989 157.759 102.005 153.298L101.997 153.291L68.0874 122.348L68.0721 122.334L68.0573 122.32C66.1257 120.404 64.8075 117.957 64.2702 115.29C63.7329 112.623 64.0008 109.857 65.0398 107.343C66.0788 104.828 67.8421 102.68 70.1053 101.17C72.3674 99.661 75.0268 98.859 77.7458 98.865C80.6562 98.846 83.4936 99.774 85.8304 101.509L93.703 106.874V61.7162C93.703 58.0785 95.148 54.5897 97.72 52.0174C100.292 49.4451 103.781 48 107.419 48C111.057 48 114.545 49.4451 117.118 52.0174C119.69 54.5897 121.135 58.0785 121.135 61.7162V82.3344C123.678 81.7181 126.355 81.84 128.846 82.701C131.483 83.6123 133.772 85.3031 135.416 87.5388C137.25 86.6334 139.271 86.1561 141.325 86.1487H141.331C143.643 86.1547 145.915 86.7445 147.937 87.8636C149.686 88.8314 151.199 90.1679 152.373 91.7762C154.207 90.8716 156.227 90.3948 158.28 90.3874ZM120.123 149.73H120.135H141.329C146.684 149.73 151.821 147.602 155.608 143.815C159.395 140.028 161.523 134.892 161.523 129.536V104.104C161.523 103.245 161.181 102.421 160.574 101.814C159.967 101.206 159.143 100.865 158.284 100.865C157.425 100.865 156.601 101.206 155.994 101.814C155.386 102.421 155.045 103.245 155.045 104.104V106.342C155.045 107.999 153.702 109.342 152.045 109.342H147.568C145.911 109.342 144.568 107.999 144.568 106.342V99.865C144.568 99.006 144.226 98.182 143.619 97.575C143.012 96.967 142.188 96.626 141.329 96.626C140.47 96.626 139.646 96.967 139.039 97.575C138.431 98.182 138.09 99.006 138.09 99.865V106.342C138.09 107.999 136.747 109.342 135.09 109.342H130.613C128.956 109.342 127.613 107.999 127.613 106.342V95.626C127.613 94.767 127.271 93.943 126.664 93.336C126.057 92.729 125.233 92.387 124.374 92.387C123.515 92.387 122.691 92.729 122.084 93.336C121.476 93.943 121.135 94.767 121.135 95.626V106.342C121.135 107.999 119.792 109.342 118.135 109.342H113.658C112.001 109.342 110.658 107.999 110.658 106.342V61.7162C110.658 60.8573 110.316 60.0335 109.709 59.4261C109.102 58.8187 108.278 58.4775 107.419 58.4775C106.56 58.4775 105.736 58.8187 105.129 59.4261C104.521 60.0335 104.18 60.8573 104.18 61.7162V121.079C104.18 123.492 101.475 124.918 99.484 123.554L79.7256 110.015L79.708 110.003L79.6909 109.99C79.2097 109.629 78.6375 109.41 78.0385 109.356C77.4394 109.301 76.8372 109.415 76.2992 109.684C75.7612 109.953 75.3088 110.367 74.9926 110.878C74.6767 111.389 74.5093 111.978 74.5089 112.579C74.513 113.421 74.8445 114.227 75.4328 114.829L109.099 145.742C112.17 148.362 116.087 149.779 120.123 149.73Z" fill="url(#paint1_linear_38_96)"/>
<defs>
<linearGradient id="paint0_linear_38_96" x1="31.6534" y1="153.983" x2="146.993" y2="25.9842" gradientUnits="userSpaceOnUse">
<stop stop-color="#0072FF"/>
<stop offset="1" stop-color="#00E5A1"/>
</linearGradient>
<linearGradient id="paint1_linear_38_96" x1="159" y1="168" x2="46.5" y2="38.5" gradientUnits="userSpaceOnUse">
<stop stop-color="#0072FF"/>
<stop offset="1" stop-color="#00E5A1"/>
</linearGradient>
</defs>
</svg>
