<svg width="128" height="128" viewBox="0 0 128 128" fill="none" xmlns="http://www.w3.org/2000/svg">
<path opacity="0.4" fill-rule="evenodd" clip-rule="evenodd" d="M88.6846 39.3136C89.0833 39.7123 89.3513 40.2223 89.4537 40.7765C89.5562 41.3306 89.4881 41.9028 89.2586 42.4175L57.734 113.344C57.5138 113.841 57.1535 114.262 56.6973 114.555C56.2411 114.85 55.7089 115.004 55.1664 115C54.6235 114.996 54.094 114.833 53.6424 114.532C53.1904 114.231 52.8366 113.805 52.6243 113.305L41.2502 86.747L14.6854 75.3679C14.1879 75.1537 13.7635 74.7995 13.4642 74.3484C13.1649 73.8968 13.0036 73.3683 13.0001 72.8267C12.9965 72.2852 13.1509 71.7543 13.4443 71.2991C13.7376 70.8438 14.1573 70.484 14.652 70.2633L85.5805 38.7397C86.0947 38.5115 86.6659 38.4442 87.219 38.5466C87.7717 38.6491 88.2807 38.9164 88.679 39.3136H88.6846Z" fill="url(#paint0_linear_8_877)" stroke="url(#paint1_linear_8_877)" stroke-opacity="0.4" stroke-width="4"/>
<path fill-rule="evenodd" clip-rule="evenodd" d="M77.7163 14.4587C77.1827 14.6282 76.9118 15.2135 77.1089 15.7375L78.1322 18.4573C78.3239 18.9671 78.8878 19.2276 79.4077 19.0656C81.5784 18.3891 83.8329 18.0012 86.1102 17.9123C86.6618 17.8908 87.1094 17.4452 87.1094 16.8931V14.0009C87.1094 13.4483 86.661 12.9987 86.1087 13.0169C83.2555 13.1111 80.4303 13.5964 77.7163 14.4587ZM102.402 22.867C102.046 23.3035 101.402 23.3593 100.96 23.0113C99.2919 21.6986 97.4608 20.6198 95.5149 19.8034C95.0115 19.5922 94.7454 19.029 94.9268 18.5141L95.8784 15.8132C96.064 15.2863 96.6461 15.012 97.1625 15.2251C99.6333 16.2446 101.952 17.6157 104.051 19.2982C104.474 19.6371 104.527 20.2549 104.185 20.6751L102.402 22.867ZM62.0531 26.7308C61.7956 27.1851 61.9503 27.7576 62.3921 28.036L65.4574 29.9682L65.4583 29.9692C65.4592 29.971 65.4625 29.9693 65.4625 29.9693C66.6108 27.7901 68.0602 25.8206 69.7573 24.1295C70.1244 23.7637 70.1762 23.1813 69.8602 22.7706L68.2208 20.6394C67.8628 20.1741 67.1816 20.1147 66.7657 20.5292C64.9408 22.3478 63.3547 24.4349 62.0531 26.7308ZM111.376 37.3923C110.83 37.4917 110.309 37.1264 110.192 36.5837C109.742 34.5149 109.022 32.5169 108.052 30.6434C107.801 30.1588 107.958 29.5563 108.427 29.2777L110.76 27.8922C111.24 27.6068 111.863 27.77 112.123 28.2649C113.36 30.6214 114.265 33.144 114.813 35.7584C114.926 36.296 114.564 36.8122 114.024 36.9106L111.376 37.3923ZM86.6258 51.5978C92.0031 51.5978 96.3622 47.2388 96.3622 41.8615C96.3622 36.4842 92.0031 32.1251 86.6258 32.1251C81.2486 32.1251 76.8895 36.4842 76.8895 41.8615C76.8895 47.2388 81.2486 51.5978 86.6258 51.5978ZM97.2018 68.6941C96.6903 68.9031 96.1143 68.6358 95.9236 68.1172L94.9448 65.4556C94.7543 64.9376 95.0204 64.3652 95.5299 64.1529C97.5092 63.3279 99.3697 62.2417 101.061 60.9232C101.498 60.5832 102.128 60.6338 102.485 61.0563L104.315 63.2211C104.671 63.6423 104.62 64.2737 104.187 64.6158C102.062 66.2968 99.7098 67.6696 97.2018 68.6941ZM108.05 52.4009C107.8 52.8878 107.962 53.4913 108.434 53.767L110.794 55.1441C111.276 55.425 111.895 55.2589 112.153 54.7646C113.385 52.398 114.282 49.8667 114.818 47.2456C114.928 46.7069 114.563 46.1921 114.021 46.0972L111.345 45.6282C110.799 45.5325 110.281 45.9003 110.166 46.4429C109.726 48.516 109.014 50.5199 108.05 52.4009Z" fill="url(#paint2_linear_8_877)" stroke="url(#paint3_linear_8_877)" stroke-width="4"/>
<defs>
<linearGradient id="paint0_linear_8_877" x1="51.25" y1="115" x2="51.25" y2="38.5" gradientUnits="userSpaceOnUse">
<stop stop-color="#FD5900"/>
<stop offset="1" stop-color="#FFDE00"/>
</linearGradient>
<linearGradient id="paint1_linear_8_877" x1="51.25" y1="115" x2="51.25" y2="38.5" gradientUnits="userSpaceOnUse">
<stop stop-color="#FD5900"/>
<stop offset="1" stop-color="#FFDE00"/>
</linearGradient>
<linearGradient id="paint2_linear_8_877" x1="88.3047" y1="69.0565" x2="88.3047" y2="13" gradientUnits="userSpaceOnUse">
<stop stop-color="#FD2E00"/>
<stop offset="1" stop-color="#FFF500"/>
</linearGradient>
<linearGradient id="paint3_linear_8_877" x1="88.3047" y1="69.0565" x2="88.3047" y2="13" gradientUnits="userSpaceOnUse">
<stop stop-color="#FD2E00"/>
<stop offset="1" stop-color="#FFF500"/>
</linearGradient>
</defs>
</svg>
