<svg width="24" height="24" viewBox="0 0 24 24" fill="none" xmlns="http://www.w3.org/2000/svg">
<path opacity="0.5" d="M1 12C1 5.9247 5.9247 1 12 1C18.0753 1 23 5.9247 23 12C23 18.0753 18.0753 23 12 23C5.9247 23 1 18.0753 1 12Z" fill="url(#paint0_linear_8_158)"/>
<path d="M11.1497 8.22589L8.93319 9.99139C8.00369 10.7317 7.53839 11.1024 7.62969 11.5149L7.63409 11.5358C7.73749 11.9461 8.32709 12.1045 9.50629 12.4202C10.1608 12.5962 10.4886 12.6842 10.6426 12.9317L10.6503 12.9449C10.7988 13.1968 10.7141 13.5114 10.5458 14.1406L10.5018 14.3056C10.0332 16.0502 9.79999 16.9225 10.2499 17.2041C10.7009 17.4857 11.4159 16.9159 12.8492 15.7741L15.0657 14.0097C15.9963 13.2683 16.4605 12.8987 16.3703 12.4851L16.3659 12.4642C16.2614 12.0539 15.6729 11.8955 14.4937 11.5798C13.8392 11.4038 13.5114 11.3158 13.3574 11.0683L13.3497 11.0551C13.2012 10.8043 13.2859 10.4897 13.4542 9.86049L13.4982 9.69549C13.9657 7.95089 14.2 7.07749 13.7501 6.79589C13.2991 6.51429 12.583 7.08519 11.1497 8.22589Z" fill="url(#paint1_linear_8_158)"/>
<defs>
<linearGradient id="paint0_linear_8_158" x1="12" y1="23" x2="12" y2="0.999999" gradientUnits="userSpaceOnUse">
<stop stop-color="#02AA93"/>
<stop offset="1" stop-color="#67FF80"/>
</linearGradient>
<linearGradient id="paint1_linear_8_158" x1="11.9999" y1="17.2753" x2="11.9999" y2="6.72479" gradientUnits="userSpaceOnUse">
<stop stop-color="#02AA93"/>
<stop offset="1" stop-color="#67FF80"/>
</linearGradient>
</defs>
</svg>
