<svg width="32" height="32" viewBox="0 0 32 32" fill="none" xmlns="http://www.w3.org/2000/svg">
<path d="M8.99995 24.4C8.99995 24.7713 8.85245 25.1274 8.5899 25.39C8.32735 25.6525 7.97125 25.8 7.59995 25.8C7.22865 25.8 6.87255 25.6525 6.61 25.39C6.34745 25.1274 6.19995 24.7713 6.19995 24.4C6.19995 24.0287 6.34745 23.6726 6.61 23.41C6.87255 23.1475 7.22865 23 7.59995 23C7.97125 23 8.32735 23.1475 8.5899 23.41C8.85245 23.6726 8.99995 24.0287 8.99995 24.4Z" fill="url(#paint0_linear_8_711)"/>
<path opacity="0.4" d="M13.2 7.6V24.4C13.2 25.8852 12.61 27.3096 11.5598 28.3598C10.5096 29.41 9.08521 30 7.6 30C6.11479 30 4.69041 29.41 3.6402 28.3598C2.59 27.3096 2 25.8852 2 24.4V7.6C2 6.11479 2.59 4.69041 3.6402 3.6402C4.69041 2.59 6.11479 2 7.6 2C9.08521 2 10.5096 2.59 11.5598 3.6402C12.61 4.69041 13.2 6.11479 13.2 7.6Z" fill="url(#paint1_linear_8_711)"/>
<path opacity="0.7" d="M12.1471 27.6704L17.7107 22.1054L25.8839 13.5794C26.9123 12.5029 27.475 11.0645 27.4501 9.57594C27.4252 8.08738 26.8147 6.66859 25.7509 5.62707C24.6871 4.58556 23.2557 4.00522 21.7669 4.01184C20.2782 4.01845 18.852 4.61149 17.7975 5.66243L13.1999 10.26V24.4C13.1999 25.6208 12.8093 26.7506 12.1471 27.6704Z" fill="url(#paint2_linear_8_711)"/>
<path d="M17.7109 22.1068L12.1473 27.6704C11.6285 28.3915 10.9455 28.9789 10.1549 29.384C9.36419 29.7891 8.48849 30.0002 7.6001 30H24.2601C25.7453 30 27.1697 29.41 28.2199 28.3598C29.2701 27.3096 29.8601 25.8852 29.8601 24.4C29.8601 22.9148 29.2701 21.4904 28.2199 20.4402C27.1697 19.39 25.7453 18.8 24.2601 18.8H20.8805L17.7109 22.1068Z" fill="url(#paint3_linear_8_711)"/>
<defs>
<linearGradient id="paint0_linear_8_711" x1="7.59995" y1="25.8" x2="7.59995" y2="23" gradientUnits="userSpaceOnUse">
<stop stop-color="#FD5900"/>
<stop offset="1" stop-color="#FFDE00"/>
</linearGradient>
<linearGradient id="paint1_linear_8_711" x1="7.6" y1="30" x2="7.6" y2="2" gradientUnits="userSpaceOnUse">
<stop stop-color="#FD5900"/>
<stop offset="1" stop-color="#FFDE00"/>
</linearGradient>
<linearGradient id="paint2_linear_8_711" x1="19.799" y1="27.6704" x2="19.799" y2="4.01178" gradientUnits="userSpaceOnUse">
<stop stop-color="#FD5900"/>
<stop offset="1" stop-color="#FFDE00"/>
</linearGradient>
<linearGradient id="paint3_linear_8_711" x1="18.7301" y1="30" x2="18.7301" y2="18.8" gradientUnits="userSpaceOnUse">
<stop stop-color="#FD5900"/>
<stop offset="1" stop-color="#FFDE00"/>
</linearGradient>
</defs>
</svg>
