<svg width="32" height="32" viewBox="0 0 32 32" fill="none" xmlns="http://www.w3.org/2000/svg">
<path opacity="0.4" fill-rule="evenodd" clip-rule="evenodd" d="M7.83333 5H24.1667C25.7132 5.00185 27.1959 5.61703 28.2894 6.71059C29.383 7.80415 29.9981 9.28681 30 10.8333V18.8335V19H29.9614C29.6629 20.2027 28.9584 21.28 27.9544 22.0637C26.9043 22.8834 25.5908 23.3319 24.2353 23.3335H18.1765C17.6242 23.3335 17.1765 23.7812 17.1765 24.3335V24.5835C17.1765 25.1358 17.6242 25.5835 18.1765 25.5835H21.8824C22.1944 25.5835 22.4936 25.7021 22.7142 25.913C22.9349 26.124 23.0588 26.4102 23.0588 26.7085C23.0588 27.0069 22.9349 27.293 22.7142 27.504C22.4936 27.715 22.1944 27.8335 21.8824 27.8335H10.1176C9.80563 27.8335 9.50639 27.715 9.28576 27.504C9.06513 27.293 8.94118 27.0069 8.94118 26.7085C8.94118 26.4102 9.06513 26.124 9.28576 25.913C9.50639 25.7021 9.80563 25.5835 10.1176 25.5835H13.8235C14.3758 25.5835 14.8235 25.1358 14.8235 24.5835V24.3335C14.8235 23.7812 14.3758 23.3335 13.8235 23.3335H7.76471C6.40917 23.3319 5.09567 22.8834 4.04559 22.0637C3.04161 21.28 2.33713 20.2027 2.03855 19H2V18.8335V10.8333C2.00185 9.28681 2.61703 7.80415 3.71059 6.71059C4.80415 5.61703 6.28681 5.00185 7.83333 5Z" fill="url(#paint0_linear_5_77)"/>
<path fill-rule="evenodd" clip-rule="evenodd" d="M13.97 10.486C13.97 11.856 12.855 12.971 11.485 12.971C10.114 12.971 9 11.856 9 10.486C9 9.116 10.114 8 11.485 8C12.855 8 13.97 9.116 13.97 10.486ZM25.0773 14.911C25.3897 15.1538 25.6136 15.431 25.7611 15.7264C26.2076 16.6202 25.9756 17.6945 25.4983 18.5797C24.9325 19.6335 23.8491 20.4296 22.4842 20.7776C21.8782 20.9334 21.2427 21 20.6085 21H9.37153C8.25332 21 7.26384 20.7916 6.45267 20.4006C5.94452 20.1556 5.85469 19.5916 6.23145 19.2242C6.86161 18.6119 7.48372 17.9974 8.1112 17.3776C9.30717 16.1916 10.113 15.8478 11.0086 16.1497C11.372 16.2743 11.7366 16.4623 12.1121 16.6599C13.1123 17.1906 14.5026 17.919 16.3341 17.1283C17.586 16.5798 18.3127 15.6413 18.9453 14.8244L18.958 14.8079C19.0006 14.7532 19.0428 14.6986 19.0849 14.6441C19.2999 14.3657 19.5118 14.0914 19.7518 13.8389C20.0494 13.5263 21.1542 12.5487 22.5821 13.2448C23.4925 13.6831 24.2581 14.2761 25.0773 14.911Z" fill="url(#paint1_linear_5_77)"/>
<defs>
<linearGradient id="paint0_linear_5_77" x1="16" y1="27.8335" x2="16" y2="5" gradientUnits="userSpaceOnUse">
<stop stop-color="#02AA93"/>
<stop offset="1" stop-color="#67FF80"/>
</linearGradient>
<linearGradient id="paint1_linear_5_77" x1="16" y1="21" x2="16" y2="8" gradientUnits="userSpaceOnUse">
<stop stop-color="#02AA93"/>
<stop offset="1" stop-color="#67FF80"/>
</linearGradient>
</defs>
</svg>
