<svg width="24" height="24" viewBox="0 0 24 24" fill="none" xmlns="http://www.w3.org/2000/svg">
<path opacity="0.4" d="M12 1C17.1854 1 19.7781 1 21.3885 2.6104C22.5765 3.7984 22.8889 5.5221 22.9714 8.425L23 9.25H1.02856V8.425C1.11106 5.521 1.42236 3.7995 2.61036 2.6104C4.22296 1 6.81456 1 12 1Z" fill="url(#paint0_linear_8_1102)"/>
<path opacity="0.6" d="M1 12C1 17.1854 1 19.7781 2.6104 21.3885C3.7214 22.4995 5.301 22.8449 7.875 22.9516L8.7 23V9.25H1.0286L1.0033 10.075C1 10.6734 1 11.3147 1 12Z" fill="url(#paint1_linear_8_1102)"/>
<path fill-rule="evenodd" clip-rule="evenodd" d="M12.7779 6.17781C12.9842 5.97152 13.1 5.69173 13.1 5.39999C13.1 5.10825 12.9842 4.82846 12.7779 4.62217C12.5716 4.41588 12.2918 4.29999 12 4.29999C11.7083 4.29999 11.4285 4.41588 11.2222 4.62217C11.0159 4.82846 10.9 5.10825 10.9 5.39999C10.9 5.69173 11.0159 5.97152 11.2222 6.17781C11.4285 6.3841 11.7083 6.49999 12 6.49999C12.2918 6.49999 12.5716 6.3841 12.7779 6.17781ZM9.47787 6.17781C9.68416 5.97152 9.80005 5.69173 9.80005 5.39999C9.80005 5.10825 9.68416 4.82846 9.47787 4.62217C9.27158 4.41588 8.99179 4.29999 8.70005 4.29999C8.40831 4.29999 8.12852 4.41588 7.92223 4.62217C7.71594 4.82846 7.60005 5.10825 7.60005 5.39999C7.60005 5.69173 7.71594 5.97152 7.92223 6.17781C8.12852 6.3841 8.40831 6.49999 8.70005 6.49999C8.99179 6.49999 9.27158 6.3841 9.47787 6.17781ZM6.17787 6.17781C6.38416 5.97152 6.50005 5.69173 6.50005 5.39999C6.50005 5.10825 6.38416 4.82846 6.17787 4.62217C5.97158 4.41588 5.69179 4.29999 5.40005 4.29999C5.10831 4.29999 4.82852 4.41588 4.62223 4.62217C4.41594 4.82846 4.30005 5.10825 4.30005 5.39999C4.30005 5.69173 4.41594 5.97152 4.62223 6.17781C4.82852 6.3841 5.10831 6.49999 5.40005 6.49999C5.69179 6.49999 5.97158 6.3841 6.17787 6.17781ZM21.3885 21.3885C23 19.7781 23 17.1854 23 12C23 11.3147 23 10.6734 22.9967 10.075L23 9.25H8.69995V22.9912C9.45235 23 11.0991 23 12 23C17.1854 23 19.7792 23 21.3885 21.3885Z" fill="url(#paint2_linear_8_1102)"/>
<defs>
<linearGradient id="paint0_linear_8_1102" x1="12.0143" y1="9.25" x2="12.0143" y2="1" gradientUnits="userSpaceOnUse">
<stop stop-color="#FD5900"/>
<stop offset="1" stop-color="#FFDE00"/>
</linearGradient>
<linearGradient id="paint1_linear_8_1102" x1="4.85" y1="23" x2="4.85" y2="9.25" gradientUnits="userSpaceOnUse">
<stop stop-color="#FD5900"/>
<stop offset="1" stop-color="#FFDE00"/>
</linearGradient>
<linearGradient id="paint2_linear_8_1102" x1="13.65" y1="23" x2="13.65" y2="4.29999" gradientUnits="userSpaceOnUse">
<stop stop-color="#FD5900"/>
<stop offset="1" stop-color="#FFDE00"/>
</linearGradient>
</defs>
</svg>
