<svg width="48" height="48" viewBox="0 0 48 48" fill="none" xmlns="http://www.w3.org/2000/svg">
<path opacity="0.4" d="M3 28.1C3 27.543 3.22125 27.0089 3.61508 26.6151C4.0089 26.2212 4.54305 26 5.1 26H42.9C43.457 26 43.9911 26.2212 44.3849 26.6151C44.7788 27.0089 45 27.543 45 28.1V33.728C45 34.7297 44.2828 35.598 43.404 36.0779C42.1576 36.7604 40.5438 38.118 39.9674 40.7147C39.7143 41.8466 38.8102 42.8 37.65 42.8H10.35C9.18975 42.8 8.28465 41.8466 8.03265 40.7147C7.45515 38.117 5.84235 36.7593 4.596 36.0779C3.71715 35.598 3 34.7297 3 33.728V28.1Z" fill="url(#paint0_linear_54_1524)"/>
<path fill-rule="evenodd" clip-rule="evenodd" d="M11.5 33.3501C11.5 32.2455 12.3954 31.3501 13.5 31.3501H34.5C35.6046 31.3501 36.5 32.2455 36.5 33.3501C36.5 34.4547 35.6046 35.3501 34.5 35.3501H13.5C12.3954 35.3501 11.5 34.4547 11.5 33.3501Z" fill="url(#paint1_linear_54_1524)"/>
<path d="M25.05 5L18.75 12.35H29.25L22.95 19.7" fill="url(#paint2_linear_54_1524)"/>
<path d="M25.05 5L18.75 12.35H29.25L22.95 19.7" stroke="url(#paint3_linear_54_1524)" stroke-width="4" stroke-linecap="round" stroke-linejoin="round"/>
<defs>
<linearGradient id="paint0_linear_54_1524" x1="24" y1="42.8" x2="24" y2="26" gradientUnits="userSpaceOnUse">
<stop stop-color="#5570FF"/>
<stop offset="1" stop-color="#4DD3FF"/>
</linearGradient>
<linearGradient id="paint1_linear_54_1524" x1="24" y1="46" x2="24" y2="4" gradientUnits="userSpaceOnUse">
<stop stop-color="#5570FF"/>
<stop offset="1" stop-color="#4DD3FF"/>
</linearGradient>
<linearGradient id="paint2_linear_54_1524" x1="24" y1="19.7" x2="24" y2="5" gradientUnits="userSpaceOnUse">
<stop stop-color="#5570FF"/>
<stop offset="1" stop-color="#4DD3FF"/>
</linearGradient>
<linearGradient id="paint3_linear_54_1524" x1="24" y1="19.7" x2="24" y2="5" gradientUnits="userSpaceOnUse">
<stop stop-color="#5570FF"/>
<stop offset="1" stop-color="#4DD3FF"/>
</linearGradient>
</defs>
</svg>
