<svg width="32" height="32" viewBox="0 0 32 32" fill="none" xmlns="http://www.w3.org/2000/svg">
<path opacity="0.4" fill-rule="evenodd" clip-rule="evenodd" d="M10.2951 1.0394C9.51718 0.853245 8.93019 1.34107 8.68708 1.88301C8.4493 2.41311 8.45935 3.16514 9.01665 3.65381C9.0369 3.67157 9.05855 3.68766 9.0814 3.70193C9.44533 3.92927 9.48785 4.50621 9.11878 4.72511C8.23725 5.24798 7.39527 5.85757 6.6612 6.61147C4.32982 8.96667 2.83445 12.2465 2.90602 15.6204L2.90642 15.6322C2.90747 15.6559 2.90834 15.6835 2.9093 15.7142C2.91313 15.837 2.91848 16.0082 2.94379 16.1642C2.97803 16.375 3.05625 16.6301 3.25892 16.8498L3.25995 16.8509C3.60753 17.2254 4.10255 17.3528 4.54317 17.3082C4.98282 17.2638 5.43802 17.0419 5.71013 16.6252L5.72385 16.6041L5.73539 16.5819C5.85168 16.3575 5.88806 16.1299 5.90392 15.9469C5.9116 15.8583 5.91505 15.7707 5.91797 15.6967L5.91825 15.6895C5.9214 15.6096 5.9241 15.5449 5.92961 15.484L5.93101 15.4685L5.93144 15.453C5.98009 13.7157 6.52416 11.9944 7.45878 10.5241L7.46045 10.5215C8.91608 8.19962 11.3715 6.50845 14.0749 6.07595L14.0871 6.07384C14.3639 6.02253 14.6253 6.00027 14.9116 5.97589C15.0784 5.96168 15.2537 5.94676 15.4455 5.92494C15.931 5.86971 16.4622 5.7718 16.9682 5.49671C17.1245 5.41174 17.2239 5.25012 17.2292 5.07228C17.2315 4.99536 17.2404 4.91207 17.2523 4.8034L17.253 4.79721C17.264 4.69708 17.2775 4.57456 17.2813 4.45014C17.2891 4.19741 17.2605 3.87307 17.0518 3.57078C16.8436 3.23698 16.5365 3.06549 16.2754 2.95987C16.1437 2.9066 16.01 2.86484 15.8972 2.82996L15.8774 2.82384C15.7669 2.7897 15.6777 2.76211 15.5954 2.7306L15.5794 2.72447L15.563 2.71945C14.8987 2.51595 14.2192 2.28636 13.5319 2.0541C12.4671 1.6943 11.3832 1.32807 10.3071 1.04243L10.2951 1.0394ZM27.023 24.1148C25.8679 25.7013 24.3547 26.9721 22.664 27.9155C22.6083 27.9466 22.6152 28.0299 22.6747 28.053C22.9169 28.1472 23.1831 28.2809 23.4141 28.5023L23.4375 28.5247L23.4578 28.5499C23.7324 28.8914 23.7613 29.2721 23.7351 29.5742C23.7222 29.7225 23.6949 29.866 23.6709 29.9858L23.658 30.0497C23.6382 30.1478 23.6221 30.2275 23.6112 30.3054C23.5859 30.4854 23.4649 30.6376 23.2952 30.7028C23.2621 30.7155 23.2259 30.7298 23.1872 30.7451C23.0233 30.8101 22.8144 30.8929 22.6083 30.9433C22.3438 31.008 22.0273 31.0368 21.6931 30.9237C20.5976 30.6436 19.5048 30.3404 18.4177 30.0389C17.9084 29.8976 17.3997 29.7565 16.8931 29.6184C16.3315 29.4722 15.7939 29.2526 15.2908 28.9718C15.1446 28.8901 15.0489 28.7407 15.036 28.5737C14.9882 27.9536 15.0703 27.2619 15.5097 26.6722C15.6038 26.5459 15.7519 26.4714 15.9093 26.471C18.4634 26.4645 21.0327 25.6949 22.9306 24.0215L22.9387 24.0144C25.1436 22.1538 26.3862 19.2648 26.4193 16.3718C26.3756 15.6731 26.8007 14.8469 27.6538 14.706C28.4492 14.5476 29.3266 15.1152 29.4154 15.9775L29.4166 15.9892L29.4172 16.0009C29.5776 18.8793 28.6848 21.7766 27.0263 24.1101L27.023 24.1148Z" fill="url(#paint0_linear_202_85)"/>
<path fill-rule="evenodd" clip-rule="evenodd" d="M19.4715 4.19917C21.3075 2.25553 24.4563 1.88628 26.7417 3.24702C27.8307 3.93762 28.7607 4.91885 29.2137 6.14282C29.93 7.96852 29.7042 10.1464 28.5897 11.767C27.6495 13.1038 26.1487 14.02 24.5281 14.244C22.9315 14.485 21.2682 14.0012 19.998 13.0166C19.6134 12.6952 19.2664 12.3294 18.9484 11.9413C17.2014 9.68652 17.4441 6.20265 19.4715 4.19917Z" fill="url(#paint1_linear_202_85)" stroke="url(#paint2_linear_202_85)"/>
<rect x="3" y="19" width="11" height="11" rx="1" fill="url(#paint3_linear_202_85)"/>
<defs>
<linearGradient id="paint0_linear_202_85" x1="16.1696" y1="31.0002" x2="16.1696" y2="0.999027" gradientUnits="userSpaceOnUse">
<stop stop-color="#A93AFF"/>
<stop offset="1" stop-color="#FF81FF"/>
</linearGradient>
<linearGradient id="paint1_linear_202_85" x1="23.7026" y1="14.3052" x2="23.7026" y2="2.43457" gradientUnits="userSpaceOnUse">
<stop stop-color="#A93AFF"/>
<stop offset="1" stop-color="#FF81FF"/>
</linearGradient>
<linearGradient id="paint2_linear_202_85" x1="23.7026" y1="14.3052" x2="23.7026" y2="2.43457" gradientUnits="userSpaceOnUse">
<stop stop-color="#A93AFF"/>
<stop offset="1" stop-color="#FF81FF"/>
</linearGradient>
<linearGradient id="paint3_linear_202_85" x1="8.5" y1="30" x2="8.5" y2="19" gradientUnits="userSpaceOnUse">
<stop stop-color="#A93AFF"/>
<stop offset="1" stop-color="#FF81FF"/>
</linearGradient>
</defs>
</svg>
