<svg width="24" height="24" viewBox="0 0 24 24" fill="none" xmlns="http://www.w3.org/2000/svg">
<path opacity="0.4" d="M23 12C23 18.0753 18.0753 23 12 23C5.9247 23 1 18.0753 1 12C1 5.9247 5.9247 1 12 1C18.0753 1 23 5.9247 23 12Z" fill="url(#paint0_linear_20_105)"/>
<path d="M17.2877 19.7121C15.7321 20.7818 13.8879 21.3531 12 21.35C10.1121 21.3531 8.26793 20.7818 6.71231 19.7121C6.04791 19.2556 5.76411 18.3866 6.15131 17.6793C6.95101 16.213 8.60101 15.3 12 15.3C15.399 15.3 17.049 16.213 17.8498 17.6793C18.2348 18.3866 17.9521 19.2556 17.2877 19.7121ZM12 12C12.8752 12 13.7146 11.6523 14.3335 11.0335C14.9523 10.4146 15.3 9.57524 15.3 8.70002C15.3 7.82481 14.9523 6.98544 14.3335 6.36657C13.7146 5.7477 12.8752 5.40002 12 5.40002C11.1248 5.40002 10.2854 5.7477 9.66656 6.36657C9.04769 6.98544 8.70001 7.82481 8.70001 8.70002C8.70001 9.57524 9.04769 10.4146 9.66656 11.0335C10.2854 11.6523 11.1248 12 12 12Z" fill="url(#paint1_linear_20_105)"/>
<defs>
<linearGradient id="paint0_linear_20_105" x1="12" y1="1" x2="12" y2="23" gradientUnits="userSpaceOnUse">
<stop stop-color="#DC18FC"/>
<stop offset="1" stop-color="#8E1EFF"/>
</linearGradient>
<linearGradient id="paint1_linear_20_105" x1="12" y1="5.40002" x2="12" y2="21.35" gradientUnits="userSpaceOnUse">
<stop stop-color="#DC18FC"/>
<stop offset="1" stop-color="#8E1EFF"/>
</linearGradient>
</defs>
</svg>
