<svg width="128" height="128" viewBox="0 0 128 128" fill="none" xmlns="http://www.w3.org/2000/svg">
<path opacity="0.4" d="M64 50C56.2562 50 50 56.2563 50 64C50 71.7438 56.2562 78 64 78C71.7438 78 78 71.7438 78 64C78 56.2563 71.7438 50 64 50ZM64 87.3407C58.8594 87.3407 54.6594 91.5188 54.6594 96.6813V110.681C54.6594 115.822 58.8375 120.022 64 120.022C69.1406 120.022 73.3406 115.844 73.3406 110.681V96.6813C73.3406 91.5188 69.1406 87.3407 64 87.3407ZM110.659 54.6594H96.6594C91.5187 54.6594 87.3188 58.8375 87.3188 64C87.3188 69.1407 91.4969 73.3407 96.6594 73.3407H110.659C115.8 73.3407 120 69.1625 120 64C120 58.8594 115.822 54.6594 110.659 54.6594ZM40.6594 64C40.6594 58.8594 36.4812 54.6594 31.3187 54.6594H17.3187C12.1781 54.6594 8 58.8594 8 64C8 69.1407 12.1781 73.3407 17.3406 73.3407H31.3406C36.4812 73.3407 40.6594 69.1407 40.6594 64ZM93.7062 80.4938C90.0531 76.8625 84.1469 76.8625 80.4937 80.4938C76.8625 84.1469 76.8625 90.0532 80.4937 93.7063L90.4031 103.616C94.0344 107.247 99.9625 107.247 103.594 103.616C107.225 99.9625 107.225 94.0563 103.594 90.425L93.7062 80.4938ZM34.2937 47.5063C37.9469 51.1375 43.8531 51.1375 47.5063 47.5063C51.1375 43.8532 51.1375 37.9469 47.5063 34.2938L37.5969 24.4063C33.9656 20.7532 28.0375 20.7532 24.4062 24.4063C20.775 28.0594 20.775 33.9657 24.4062 37.5969L34.2937 47.5063ZM34.2937 80.4938L24.4062 90.4032C20.775 94.0344 20.775 99.9625 24.4062 103.594C28.0594 107.225 33.9656 107.225 37.5969 103.594L47.5063 93.6844C51.1375 90.0313 51.1375 84.125 47.5063 80.4719C43.8531 76.8625 37.9469 76.8625 34.2937 80.4938Z" fill="url(#paint0_linear_49_122)"/>
<path fill-rule="evenodd" clip-rule="evenodd" d="M64 40.6594C69.1407 40.6594 73.3407 36.4812 73.3407 31.3187V17.3187C73.3407 12.1781 69.1407 8 64 8C58.8594 8 54.6594 12.1781 54.6594 17.3406V31.3406C54.6594 36.4812 58.8594 40.6594 64 40.6594ZM93.7062 47.5063L103.616 37.5969C107.247 33.9656 107.247 28.0375 103.616 24.4063C99.9625 20.775 94.0562 20.775 90.425 24.4063L80.5156 34.3156C76.8843 37.9688 76.8843 43.875 80.5156 47.5281C84.1468 51.1375 90.0531 51.1375 93.7062 47.5063Z" fill="url(#paint1_linear_49_122)"/>
<defs>
<linearGradient id="paint0_linear_49_122" x1="64" y1="120.022" x2="64" y2="21.6664" gradientUnits="userSpaceOnUse">
<stop stop-color="#5570FF"/>
<stop offset="1" stop-color="#4DD3FF"/>
</linearGradient>
<linearGradient id="paint1_linear_49_122" x1="54.6669" y1="28.4905" x2="106.348" y2="28.4905" gradientUnits="userSpaceOnUse">
<stop stop-color="#A93AFF"/>
<stop offset="1" stop-color="#FF81FF"/>
</linearGradient>
</defs>
</svg>
