<svg width="24" height="24" viewBox="0 0 24 24" fill="none" xmlns="http://www.w3.org/2000/svg">
<path opacity="0.4" d="M12 1C17.1854 1 19.7781 1 21.3896 2.6104C23 4.223 23 6.8146 23 12C23 17.1854 23 19.7781 21.3896 21.3885C19.777 23 17.1854 23 12 23C6.8146 23 4.2219 23 2.6115 21.3885C1 19.7792 1 17.1854 1 12C1 6.8146 1 4.2219 2.6115 2.6104C4.2208 1 6.8146 1 12 1Z" fill="url(#paint0_linear_8_1113)"/>
<path d="M6.99999 4.8C6.99999 4.58782 6.91571 4.38434 6.76568 4.23431C6.61564 4.08427 6.41217 4 6.19999 4H4.59999C4.3878 4 4.18433 4.08427 4.0343 4.23431C3.88426 4.38434 3.79999 4.58782 3.79999 4.8V6.4C3.79999 6.61218 3.88426 6.81566 4.0343 6.96569C4.18433 7.1157 4.3878 7.2 4.59999 7.2H6.19999C6.41217 7.2 6.61564 7.1157 6.76568 6.96569C6.91571 6.81566 6.99999 6.61218 6.99999 6.4V4.8Z" fill="url(#paint1_linear_8_1113)"/>
<path d="M6.19999 10.4C6.41217 10.4 6.61564 10.4843 6.76568 10.6343C6.91571 10.7843 6.99999 10.9878 6.99999 11.2V12.8C6.99999 13.0122 6.91571 13.2157 6.76568 13.3657C6.61564 13.5157 6.41217 13.6 6.19999 13.6H4.59999C4.3878 13.6 4.18433 13.5157 4.0343 13.3657C3.88426 13.2157 3.79999 13.0122 3.79999 12.8V11.2C3.79999 10.9878 3.88426 10.7843 4.0343 10.6343C4.18433 10.4843 4.3878 10.4 4.59999 10.4H6.19999Z" fill="url(#paint2_linear_8_1113)"/>
<path d="M6.99999 17.6C6.99999 17.3878 6.91571 17.1843 6.76568 17.0343C6.61564 16.8843 6.41217 16.8 6.19999 16.8H4.59999C4.3878 16.8 4.18433 16.8843 4.0343 17.0343C3.88426 17.1843 3.79999 17.3878 3.79999 17.6V19.2C3.79999 19.4122 3.88426 19.6157 4.0343 19.7657C4.18433 19.9157 4.3878 20 4.59999 20H6.19999C6.41217 20 6.61564 19.9157 6.76568 19.7657C6.91571 19.6157 6.99999 19.4122 6.99999 19.2V17.6Z" fill="url(#paint3_linear_8_1113)"/>
<path d="M6.99999 4.8C6.99999 4.58782 6.91571 4.38434 6.76568 4.23431C6.61564 4.08427 6.41217 4 6.19999 4H4.59999C4.3878 4 4.18433 4.08427 4.0343 4.23431C3.88426 4.38434 3.79999 4.58782 3.79999 4.8V6.4C3.79999 6.61218 3.88426 6.81566 4.0343 6.96569C4.18433 7.1157 4.3878 7.2 4.59999 7.2H6.19999C6.41217 7.2 6.61564 7.1157 6.76568 6.96569C6.91571 6.81566 6.99999 6.61218 6.99999 6.4V4.8Z" stroke="url(#paint4_linear_8_1113)"/>
<path d="M6.19999 10.4C6.41217 10.4 6.61564 10.4843 6.76568 10.6343C6.91571 10.7843 6.99999 10.9878 6.99999 11.2V12.8C6.99999 13.0122 6.91571 13.2157 6.76568 13.3657C6.61564 13.5157 6.41217 13.6 6.19999 13.6H4.59999C4.3878 13.6 4.18433 13.5157 4.0343 13.3657C3.88426 13.2157 3.79999 13.0122 3.79999 12.8V11.2C3.79999 10.9878 3.88426 10.7843 4.0343 10.6343C4.18433 10.4843 4.3878 10.4 4.59999 10.4H6.19999Z" stroke="url(#paint5_linear_8_1113)"/>
<path d="M6.99999 17.6C6.99999 17.3878 6.91571 17.1843 6.76568 17.0343C6.61564 16.8843 6.41217 16.8 6.19999 16.8H4.59999C4.3878 16.8 4.18433 16.8843 4.0343 17.0343C3.88426 17.1843 3.79999 17.3878 3.79999 17.6V19.2C3.79999 19.4122 3.88426 19.6157 4.0343 19.7657C4.18433 19.9157 4.3878 20 4.59999 20H6.19999C6.41217 20 6.61564 19.9157 6.76568 19.7657C6.91571 19.6157 6.99999 19.4122 6.99999 19.2V17.6Z" stroke="url(#paint6_linear_8_1113)"/>
<defs>
<linearGradient id="paint0_linear_8_1113" x1="24.1" y1="20.8" x2="2.54" y2="1.66" gradientUnits="userSpaceOnUse">
<stop stop-color="#FB457A"/>
<stop offset="1" stop-color="#A500FF"/>
</linearGradient>
<linearGradient id="paint1_linear_8_1113" x1="6.67999" y1="3.2" x2="0.668587" y2="4.55429" gradientUnits="userSpaceOnUse">
<stop stop-color="#FB457A"/>
<stop offset="1" stop-color="#A500FF"/>
</linearGradient>
<linearGradient id="paint2_linear_8_1113" x1="6.67999" y1="3.2" x2="0.668587" y2="4.55429" gradientUnits="userSpaceOnUse">
<stop stop-color="#FB457A"/>
<stop offset="1" stop-color="#A500FF"/>
</linearGradient>
<linearGradient id="paint3_linear_8_1113" x1="6.67999" y1="3.2" x2="0.668587" y2="4.55429" gradientUnits="userSpaceOnUse">
<stop stop-color="#FB457A"/>
<stop offset="1" stop-color="#A500FF"/>
</linearGradient>
<linearGradient id="paint4_linear_8_1113" x1="6.67999" y1="3.2" x2="0.668587" y2="4.55429" gradientUnits="userSpaceOnUse">
<stop stop-color="#FB457A"/>
<stop offset="1" stop-color="#A500FF"/>
</linearGradient>
<linearGradient id="paint5_linear_8_1113" x1="6.67999" y1="3.2" x2="0.668587" y2="4.55429" gradientUnits="userSpaceOnUse">
<stop stop-color="#FB457A"/>
<stop offset="1" stop-color="#A500FF"/>
</linearGradient>
<linearGradient id="paint6_linear_8_1113" x1="6.67999" y1="3.2" x2="0.668587" y2="4.55429" gradientUnits="userSpaceOnUse">
<stop stop-color="#FB457A"/>
<stop offset="1" stop-color="#A500FF"/>
</linearGradient>
</defs>
</svg>
