<svg width="32" height="32" viewBox="0 0 32 32" fill="none" xmlns="http://www.w3.org/2000/svg">
<path opacity="0.5" d="M16 30C23.7322 30 30 23.7322 30 16C30 8.2678 23.7322 2 16 2C8.2678 2 2 8.2678 2 16C2 23.7322 8.2678 30 16 30Z" fill="url(#paint0_linear_8_148)"/>
<path d="M15.7158 23.6258C15.7164 23.6276 15.7169 23.6295 15.7172 23.6314L15.7158 23.6258ZM15.7158 8.37419L15.7172 8.36859V8.36999L15.7158 8.37419Z" fill="url(#paint1_linear_8_148)"/>
<path fill-rule="evenodd" clip-rule="evenodd" d="M16.3678 6.31889C16.7781 6.54109 17.2565 6.90253 17.7676 7.28619L20.034 8.99265C20.3851 9.25484 20.7376 9.52148 20.9939 9.77774C21.2813 10.0681 21.6116 10.511 21.6116 11.1376C21.6116 11.7657 21.2813 12.2071 20.9939 12.4974C20.6919 12.7808 20.3712 13.0436 20.034 13.284L16.8487 15.6811C16.6361 15.8411 16.6361 16.1603 16.8487 16.3203L20.034 18.7174C20.3851 18.9796 20.7376 19.2448 20.9939 19.5025C21.2813 19.7929 21.6116 20.2358 21.6116 20.8624C21.6116 21.4904 21.2813 21.9319 20.9939 22.2222C20.6922 22.5055 20.3715 22.7678 20.034 23.0073L17.7676 24.7138C17.2565 25.0989 16.7781 25.4588 16.3678 25.6825C15.9486 25.9106 15.2568 26.1891 14.5235 25.8218C13.7933 25.4559 13.6007 24.736 13.5311 24.2634C13.4644 23.7998 13.4644 23.1999 13.4644 22.5599V19.2248C13.4644 18.8857 13.0689 18.7004 12.8083 18.9175L10.8425 20.5557C10.731 20.6533 10.6011 20.7275 10.4605 20.7741C10.3199 20.8207 10.1714 20.8387 10.0237 20.8271C9.876 20.8155 9.73214 20.7744 9.60056 20.7063C9.46898 20.6383 9.35234 20.5446 9.2575 20.4308C9.16266 20.317 9.09155 20.1854 9.04833 20.0437C9.00511 19.902 8.99067 19.7531 9.00585 19.6057C9.02103 19.4583 9.06553 19.3155 9.13673 19.1856C9.20793 19.0557 9.30439 18.9413 9.42044 18.8493L12.4706 16.3079C12.6625 16.148 12.6625 15.8533 12.4706 15.6934L9.42044 13.1507C9.30439 13.0586 9.20793 12.9442 9.13673 12.8143C9.06553 12.6844 9.02103 12.5416 9.00585 12.3942C8.99067 12.2469 9.00511 12.098 9.04833 11.9563C9.09155 11.8146 9.16266 11.6829 9.2575 11.5691C9.35234 11.4553 9.46898 11.3617 9.60056 11.2936C9.73214 11.2255 9.876 11.1845 10.0237 11.1728C10.1714 11.1612 10.3199 11.1792 10.4605 11.2258C10.6011 11.2724 10.731 11.3467 10.8425 11.4442L12.8083 13.0824C13.0689 13.2995 13.4644 13.1143 13.4644 12.7751V9.44149C13.4644 8.80008 13.4644 8.20015 13.5325 7.73798C13.6007 7.26397 13.7933 6.54553 14.525 6.17817C15.2568 5.81081 15.9471 6.08929 16.3678 6.31889ZM15.6864 22.4829V19.0269C15.6864 18.6971 16.0631 18.509 16.3268 18.7072L18.649 20.4535C18.8489 20.6046 19.0089 20.7261 19.1422 20.8312L19.143 20.8318C19.1622 20.8474 19.1619 20.8769 19.1422 20.892V20.892C19.0089 21.0001 18.8489 21.1201 18.6475 21.2712L16.4937 22.8917C16.4232 22.9448 16.3563 22.9952 16.2926 23.0429C16.0381 23.2336 15.6873 23.0578 15.6866 22.7398C15.6864 22.6586 15.6864 22.5731 15.6864 22.4829ZM15.756 24.0694C15.756 24.0691 15.7563 24.0691 15.7564 24.0693C15.7569 24.0713 15.7572 24.0733 15.7575 24.0753L15.756 24.0694C15.756 24.0694 15.756 24.0694 15.756 24.0694V24.0694ZM15.6864 9.51703V12.973C15.6864 13.3029 16.0631 13.491 16.3268 13.2927L18.649 11.5464C18.8489 11.3953 19.0089 11.2753 19.1422 11.1687V11.1687C19.1619 11.1536 19.1622 11.1241 19.143 11.1085L19.1422 11.108C18.9789 10.9795 18.814 10.8531 18.6475 10.7287L16.4937 9.10819C16.4231 9.05536 16.3561 9.00513 16.2923 8.95741C16.0377 8.76692 15.6873 8.94215 15.6866 9.26016C15.6864 9.34136 15.6864 9.42688 15.6864 9.51703ZM15.756 7.93204L15.7571 7.92752C15.7572 7.92731 15.7575 7.92735 15.7575 7.92756V7.92756C15.7575 7.92758 15.7575 7.9276 15.7575 7.92762L15.756 7.93204Z" fill="url(#paint2_linear_8_148)"/>
<defs>
<linearGradient id="paint0_linear_8_148" x1="16" y1="30" x2="16" y2="2" gradientUnits="userSpaceOnUse">
<stop stop-color="#5570FF"/>
<stop offset="1" stop-color="#4DD3FF"/>
</linearGradient>
<linearGradient id="paint1_linear_8_148" x1="15.4456" y1="23.6314" x2="15.4456" y2="8.36859" gradientUnits="userSpaceOnUse">
<stop stop-color="#5570FF"/>
<stop offset="1" stop-color="#4DD3FF"/>
</linearGradient>
<linearGradient id="paint2_linear_8_148" x1="15.3058" y1="26" x2="15.3058" y2="6" gradientUnits="userSpaceOnUse">
<stop stop-color="#5570FF"/>
<stop offset="1" stop-color="#4DD3FF"/>
</linearGradient>
</defs>
</svg>
