<svg width="24" height="24" viewBox="0 0 24 24" fill="none" xmlns="http://www.w3.org/2000/svg">
<path opacity="0.4" d="M20.4876 21.2634C22.0573 20.4396 23 19.3815 23 18.229C23 17.0076 21.9407 15.8922 20.1994 15.0482C18.1853 14.0728 15.2582 13.4579 12 13.4579C8.7418 13.4579 5.8147 14.0728 3.8006 15.0482C2.0593 15.8922 1 17.0076 1 18.229C1 19.4504 2.0593 20.5657 3.8006 21.4097C5.8147 22.3851 8.7418 23.0001 12 23.0001C15.4177 23.0001 18.4702 22.3247 20.4876 21.2634Z" fill="url(#paint0_linear_8_1045)"/>
<path fill-rule="evenodd" clip-rule="evenodd" d="M9.86096 1.85398C9.29367 2.40077 8.97496 3.14238 8.97496 3.91566C8.97496 4.68894 9.29367 5.43055 9.86096 5.97735C10.4283 6.52414 11.1977 6.83133 12 6.83133C12.8022 6.83133 13.5717 6.52414 14.139 5.97735C14.7063 5.43055 15.025 4.68894 15.025 3.91566C15.025 3.14238 14.7063 2.40077 14.139 1.85398C13.5717 1.30719 12.8022 1 12 1C11.1977 1 10.4283 1.30719 9.86096 1.85398ZM5.45281 11.1772L7.84531 11.9459C8.13461 12.0392 8.27871 12.0859 8.38761 12.1505C8.56886 12.2583 8.71378 12.4144 8.80477 12.6C8.89576 12.7855 8.92892 12.9926 8.90021 13.1959C8.88261 13.3179 8.82871 13.4546 8.71871 13.7292L7.34701 17.1655C7.19946 17.5331 7.20159 17.9409 7.35298 18.3071C7.50438 18.6733 7.79383 18.9707 8.16326 19.1398C8.5327 19.3088 8.9548 19.337 9.34487 19.2186C9.73494 19.1002 10.0641 18.844 10.2664 18.5014L12 15.5783L13.7336 18.5024C13.9359 18.845 14.2651 19.1012 14.6551 19.2196C15.0452 19.338 15.4673 19.3099 15.8368 19.1408C16.2062 18.9718 16.4956 18.6743 16.647 18.3081C16.7984 17.942 16.8006 17.5342 16.653 17.1665L15.2813 13.7292L15.2736 13.7098C15.1698 13.4481 15.117 13.315 15.0998 13.1959C15.0711 12.9926 15.1043 12.7855 15.1952 12.6C15.2862 12.4144 15.4312 12.2583 15.6124 12.1505C15.7213 12.0859 15.8654 12.0392 16.1547 11.9459L18.5472 11.1772C18.9578 11.0473 19.3009 10.7703 19.5056 10.4034C19.7103 10.0366 19.761 9.60801 19.6471 9.2062C19.5333 8.80438 19.2637 8.46007 18.894 8.2444C18.5243 8.02874 18.0827 7.95822 17.6606 8.04741L15.5739 8.47893C13.2976 8.96533 10.9402 8.98123 8.65711 8.52558L8.42611 8.47893L6.33831 8.04741C5.91648 7.95913 5.47558 8.03023 5.10655 8.24606C4.73751 8.46188 4.46847 8.80598 4.3549 9.20738C4.24134 9.60878 4.29191 10.0369 4.49619 10.4034C4.70047 10.7699 5.04288 11.0469 5.45281 11.1772Z" fill="url(#paint1_linear_8_1045)"/>
<defs>
<linearGradient id="paint0_linear_8_1045" x1="12" y1="23.0001" x2="12" y2="13.4579" gradientUnits="userSpaceOnUse">
<stop stop-color="#5558FF"/>
<stop offset="1" stop-color="#00C0FF"/>
</linearGradient>
<linearGradient id="paint1_linear_8_1045" x1="12.0011" y1="19.2917" x2="12.0011" y2="1" gradientUnits="userSpaceOnUse">
<stop stop-color="#5558FF"/>
<stop offset="1" stop-color="#00C0FF"/>
</linearGradient>
</defs>
</svg>
