<svg width="32" height="32" viewBox="0 0 32 32" fill="none" xmlns="http://www.w3.org/2000/svg">
<circle opacity="0.4" cx="16" cy="16" r="14" fill="url(#paint0_linear_69_443)"/>
<path d="M25.7523 11.5917C25.6902 11.5165 25.5655 11.425 25.4758 11.364C25.4077 11.3177 25.3325 11.2835 25.253 11.2618C25.1408 11.2312 24.9751 11.1912 24.8749 11.1912H23.2717C22.6385 11.1912 22.1648 10.6102 22.2922 9.98996L22.8299 7.37325C22.869 7.20446 22.8694 7.02902 22.8312 6.86002C22.7931 6.69101 22.7173 6.5328 22.6094 6.39717L22.6111 6.39964C22.5072 6.27449 22.3771 6.17378 22.2298 6.10471C22.0825 6.03562 21.9219 5.99988 21.7592 6H21.7321H21.7337C20.9937 6.02385 20.3827 6.54684 20.2248 7.24169L20.2223 7.25237L20.0094 8.29013C20.0027 8.31644 19.9912 8.34111 19.9855 8.36742L19.5678 10.3939C19.472 10.8586 19.0629 11.1921 18.5884 11.1921H15.866C15.2328 11.1921 14.759 10.611 14.8865 9.99078L15.4241 7.37408C15.4633 7.20528 15.4637 7.02984 15.4255 6.86084C15.3874 6.69184 15.3116 6.53362 15.2038 6.398L15.2054 6.40046C15.1016 6.27531 14.9714 6.1746 14.8241 6.10553C14.6769 6.03644 14.5161 6.0007 14.3535 6.00082H14.3264H14.328C13.5879 6.02467 12.9769 6.54766 12.8191 7.24251L12.8166 7.2532L12.6019 8.29727C12.597 8.32095 12.589 8.34379 12.5839 8.36742V8.36742L12.1701 10.3923C12.075 10.8578 11.6654 11.1921 11.1903 11.1921H8.92546C8.18539 11.2159 7.57441 11.7381 7.4157 12.4329L7.41324 12.4436C7.37391 12.6124 7.37323 12.788 7.41124 12.9571C7.44927 13.1264 7.52499 13.2847 7.63279 13.4205L7.63115 13.418C7.83508 13.6631 8.14016 13.8185 8.48224 13.8185H8.51019H8.50855H10.2398C10.8731 13.8185 11.3469 14.3996 11.2193 15.0199L10.7902 17.1068C10.6946 17.5717 10.2854 17.9054 9.8107 17.9054H7.54152C6.80144 17.9292 6.19046 18.4522 6.03176 19.1471L6.02929 19.1577C5.99059 19.3262 5.99024 19.5013 6.02824 19.6699C6.06624 19.8387 6.14163 19.9966 6.24885 20.1322L6.24721 20.1297C6.45196 20.3748 6.75704 20.5302 7.09911 20.5302H7.12707H7.12543H8.85669C9.48995 20.5302 9.96375 21.1113 9.83619 21.7316L9.29385 24.3687C9.25477 24.5375 9.25429 24.7129 9.29245 24.8819C9.33061 25.051 9.40642 25.2092 9.51423 25.3448L9.51259 25.3423C9.71734 25.5874 10.0224 25.7428 10.3645 25.7428H10.3916H10.39C10.7434 25.7316 11.0833 25.6037 11.3564 25.3791C11.6295 25.1545 11.8206 24.8457 11.8997 24.5011L11.9022 24.4904L12.5521 21.3304C12.6477 20.8655 13.0569 20.5318 13.5316 20.5318H16.2558C16.889 20.5318 17.3628 21.113 17.2353 21.7332L16.6929 24.3704C16.6539 24.5392 16.6534 24.7146 16.6916 24.8836C16.7297 25.0527 16.8055 25.2109 16.9134 25.3464L16.9117 25.3439C17.1164 25.589 17.4215 25.7436 17.7636 25.7436H17.7907H17.7891C18.1425 25.7325 18.4822 25.6047 18.7552 25.38C19.0283 25.1553 19.2192 24.8466 19.298 24.5019L19.3005 24.4912L19.9504 21.3312C20.046 20.8663 20.4552 20.5327 20.9299 20.5327H23.0749C23.4282 20.5215 23.7679 20.3937 24.0411 20.1693C24.3142 19.9448 24.5053 19.6362 24.5847 19.2918L24.5871 19.2811C24.6277 19.1125 24.6292 18.9369 24.5917 18.7677C24.5543 18.5984 24.4787 18.4399 24.3709 18.3042L24.3725 18.3067C24.2686 18.1814 24.1382 18.0805 23.9908 18.0114C23.8434 17.9422 23.6826 17.9062 23.5198 17.9062H23.4902H23.4918H21.8839C21.2506 17.9062 20.7768 17.3251 20.9044 16.7048L21.3335 14.6179C21.4291 14.1529 21.8384 13.8193 22.313 13.8193H24.458C24.8115 13.8081 25.1513 13.6803 25.4244 13.4556C25.6976 13.2311 25.8886 12.9223 25.9678 12.5776L25.9702 12.5669C25.995 12.46 25.989 12.2824 25.9813 12.1666C25.9763 12.0912 25.9596 12.0173 25.9318 11.947C25.889 11.8391 25.8182 11.6761 25.7499 11.59C25.661 11.4782 25.7197 11.5523 25.7431 11.5819C25.7487 11.589 25.7544 11.596 25.7603 11.6029C25.783 11.63 25.8366 11.6937 25.7523 11.5917ZM14.4872 17.9029C13.854 17.9029 13.3802 17.3218 13.5077 16.7015L13.9369 14.6146C14.0325 14.1497 14.4417 13.816 14.9164 13.816H17.6406C18.2738 13.816 18.7476 14.3972 18.6201 15.0174L18.1909 17.1044C18.0953 17.5693 17.6861 17.9029 17.2114 17.9029H14.4872Z" fill="url(#paint1_linear_69_443)"/>
<path d="M24.8749 11.1912C24.9751 11.1912 25.1408 11.2312 25.253 11.2618C25.3325 11.2835 25.4077 11.3177 25.4758 11.364C25.5655 11.425 25.6902 11.5165 25.7523 11.5917C25.8366 11.6937 25.783 11.63 25.7603 11.6029C25.7544 11.596 25.7487 11.589 25.7431 11.5819C25.7197 11.5523 25.661 11.4782 25.7499 11.59C25.8182 11.6761 25.889 11.8391 25.9318 11.947C25.9596 12.0173 25.9763 12.0912 25.9813 12.1666C25.989 12.2824 25.995 12.46 25.9702 12.5669L25.9678 12.5776C25.8886 12.9223 25.6976 13.2311 25.4244 13.4556C25.1513 13.6803 24.8115 13.8081 24.458 13.8193H22.313C21.8384 13.8193 21.4291 14.1529 21.3335 14.6179L20.9044 16.7048C20.7768 17.3251 21.2506 17.9062 21.8839 17.9062H23.4918H23.4902H23.5198C23.6826 17.9062 23.8434 17.9422 23.9908 18.0114C24.1382 18.0805 24.2686 18.1814 24.3725 18.3067L24.3709 18.3042C24.4787 18.4399 24.5543 18.5984 24.5917 18.7677C24.6292 18.9369 24.6277 19.1125 24.5871 19.2811L24.5847 19.2918C24.5053 19.6362 24.3142 19.9448 24.0411 20.1693C23.7679 20.3937 23.4282 20.5215 23.0749 20.5327H20.9299C20.4552 20.5327 20.046 20.8663 19.9504 21.3312L19.3005 24.4912L19.298 24.5019C19.2192 24.8466 19.0283 25.1553 18.7552 25.38C18.4822 25.6047 18.1425 25.7325 17.7891 25.7436H17.7907H17.7636C17.4215 25.7436 17.1164 25.589 16.9117 25.3439L16.9134 25.3464C16.8055 25.2109 16.7297 25.0527 16.6916 24.8836C16.6534 24.7146 16.6539 24.5392 16.6929 24.3704L17.2353 21.7332C17.3628 21.113 16.889 20.5318 16.2558 20.5318H13.5316C13.0569 20.5318 12.6477 20.8655 12.5521 21.3304L11.9022 24.4904L11.8997 24.5011C11.8206 24.8457 11.6295 25.1545 11.3564 25.3791C11.0833 25.6037 10.7434 25.7316 10.39 25.7428H10.3916H10.3645C10.0224 25.7428 9.71734 25.5874 9.51259 25.3423L9.51423 25.3448C9.40642 25.2092 9.33061 25.051 9.29245 24.8819C9.25429 24.7129 9.25477 24.5375 9.29385 24.3687L9.83619 21.7316C9.96375 21.1113 9.48995 20.5302 8.85669 20.5302H7.12543H7.12707H7.09911C6.75704 20.5302 6.45196 20.3748 6.24721 20.1297L6.24885 20.1322C6.14163 19.9966 6.06624 19.8387 6.02824 19.6699C5.99024 19.5013 5.99059 19.3262 6.02929 19.1577L6.03176 19.1471C6.19046 18.4522 6.80144 17.9292 7.54152 17.9054H9.8107C10.2854 17.9054 10.6946 17.5717 10.7902 17.1068L11.2193 15.0199C11.3469 14.3996 10.8731 13.8185 10.2398 13.8185H8.50855H8.51019H8.48224C8.14016 13.8185 7.83508 13.6631 7.63115 13.418L7.63279 13.4205C7.52499 13.2847 7.44927 13.1264 7.41124 12.9571C7.37323 12.788 7.37391 12.6124 7.41324 12.4436L7.4157 12.4329C7.57441 11.7381 8.18539 11.2159 8.92546 11.1921H11.1903C11.6654 11.1921 12.075 10.8578 12.1701 10.3923L12.5839 8.36742V8.36742C12.589 8.34379 12.597 8.32095 12.6019 8.29727L12.8166 7.2532L12.8191 7.24251C12.9769 6.54766 13.5879 6.02467 14.328 6.00082H14.3264H14.3535C14.5161 6.0007 14.6769 6.03644 14.8241 6.10553C14.9714 6.1746 15.1016 6.27531 15.2054 6.40046L15.2038 6.398C15.3116 6.53362 15.3874 6.69184 15.4255 6.86084C15.4637 7.02984 15.4633 7.20528 15.4241 7.37408L14.8865 9.99078C14.759 10.611 15.2328 11.1921 15.866 11.1921H18.5884C19.0629 11.1921 19.472 10.8586 19.5678 10.3939L19.9855 8.36742C19.9912 8.34111 20.0027 8.31644 20.0094 8.29013L20.2223 7.25237L20.2248 7.24169C20.3827 6.54684 20.9937 6.02385 21.7337 6H21.7321H21.7592C21.9219 5.99988 22.0825 6.03562 22.2298 6.10471C22.3771 6.17378 22.5072 6.27449 22.6111 6.39964L22.6094 6.39717C22.7173 6.5328 22.7931 6.69101 22.8312 6.86002C22.8694 7.02902 22.869 7.20446 22.8299 7.37325L22.2922 9.98996C22.1648 10.6102 22.6385 11.1912 23.2717 11.1912H24.8749ZM24.8749 11.1912H24.8733M18.1909 17.1044L18.6201 15.0174C18.7476 14.3972 18.2738 13.816 17.6406 13.816H14.9164C14.4417 13.816 14.0325 14.1497 13.9369 14.6146L13.5077 16.7015C13.3802 17.3218 13.854 17.9029 14.4872 17.9029H17.2114C17.6861 17.9029 18.0953 17.5693 18.1909 17.1044Z" stroke="url(#paint2_linear_69_443)"/>
<defs>
<linearGradient id="paint0_linear_69_443" x1="16" y1="30" x2="16" y2="2" gradientUnits="userSpaceOnUse">
<stop stop-color="#02AA93"/>
<stop offset="1" stop-color="#67FF80"/>
</linearGradient>
<linearGradient id="paint1_linear_69_443" x1="16" y1="25.7436" x2="16" y2="6" gradientUnits="userSpaceOnUse">
<stop stop-color="#02AA93"/>
<stop offset="1" stop-color="#67FF80"/>
</linearGradient>
<linearGradient id="paint2_linear_69_443" x1="16" y1="25.7436" x2="16" y2="6" gradientUnits="userSpaceOnUse">
<stop stop-color="#02AA93"/>
<stop offset="1" stop-color="#67FF80"/>
</linearGradient>
</defs>
</svg>
