<svg width="24" height="24" viewBox="0 0 24 24" fill="none" xmlns="http://www.w3.org/2000/svg">
<path opacity="0.5" d="M1.97773 3.13715C1.3517 3.76324 1 4.61236 1 5.49774C1 6.38312 1.3517 7.23224 1.97773 7.85833L3.81548 9.69724C3.82937 9.68103 4.45817 10.2797 4.47322 10.2647L9.10523 5.63265C9.12029 5.61759 8.5216 4.9888 8.53781 4.9749L6.6989 3.13715C6.07282 2.51112 5.2237 2.15942 4.33832 2.15942C3.45294 2.15942 2.60381 2.51112 1.97773 3.13715ZM3.46924 16.4102C3.51015 16.3053 3.58178 16.2151 3.67475 16.1516C3.76773 16.0881 3.87772 16.0541 3.99034 16.0541C4.10295 16.0541 4.21294 16.0881 4.30592 16.1516C4.3989 16.2151 4.47053 16.3053 4.51144 16.4102L4.69324 16.8734C4.72105 16.945 4.7634 17.01 4.81761 17.0644C4.87183 17.1189 4.93673 17.1614 5.00822 17.1895L5.46911 17.3713C5.57373 17.413 5.66344 17.4851 5.72665 17.5783C5.78985 17.6715 5.82364 17.7815 5.82364 17.8942C5.82364 18.0068 5.78985 18.1168 5.72665 18.21C5.66344 18.3032 5.57373 18.3753 5.46911 18.417L5.00822 18.6C4.93687 18.6283 4.87209 18.6709 4.81791 18.7253C4.76373 18.7797 4.7213 18.8446 4.69324 18.9161L4.51144 19.3793C4.47053 19.4842 4.3989 19.5743 4.30592 19.6379C4.21294 19.7014 4.10295 19.7354 3.99034 19.7354C3.87772 19.7354 3.76773 19.7014 3.67475 19.6379C3.58178 19.5743 3.51015 19.4842 3.46924 19.3793L3.28743 18.9161C3.25938 18.8446 3.21694 18.7797 3.16276 18.7253C3.10858 18.6709 3.0438 18.6283 2.97245 18.6L2.51157 18.417C2.40694 18.3753 2.31723 18.3032 2.25403 18.21C2.19082 18.1168 2.15704 18.0068 2.15704 17.8942C2.15704 17.7815 2.19082 17.6715 2.25403 17.5783C2.31723 17.4851 2.40694 17.413 2.51157 17.3713L2.97245 17.1895C3.04392 17.1611 3.10876 17.1182 3.16295 17.0636C3.21714 17.009 3.25951 16.9439 3.28743 16.8722L3.46924 16.4102Z" fill="url(#paint0_linear_8_574)"/>
<path opacity="0.2" d="M20.6471 9.25719C20.688 9.15226 20.7596 9.06214 20.8526 8.9986C20.9455 8.93506 21.0555 8.90106 21.1682 8.90106C21.2808 8.90106 21.3908 8.93506 21.4837 8.9986C21.5767 9.06214 21.6483 9.15226 21.6893 9.25719L21.8699 9.71923C21.9278 9.86398 22.0413 9.97862 22.186 10.0354L22.6469 10.2183C22.7512 10.2602 22.8405 10.3323 22.9035 10.4254C22.9664 10.5185 23 10.6282 23 10.7406C23 10.8529 22.9664 10.9627 22.9035 11.0558C22.8405 11.1489 22.7512 11.221 22.6469 11.2628L22.186 11.4458C22.1145 11.4741 22.0495 11.5167 21.9952 11.5711C21.9408 11.6254 21.8981 11.6904 21.8699 11.7619L21.6893 12.2251C21.6483 12.3301 21.5767 12.4202 21.4837 12.4837C21.3908 12.5473 21.2808 12.5813 21.1682 12.5813C21.0555 12.5813 20.9455 12.5473 20.8526 12.4837C20.7596 12.4202 20.688 12.3301 20.6471 12.2251L20.4652 11.7619C20.4371 11.6905 20.3947 11.6256 20.3405 11.5713C20.2863 11.5169 20.2216 11.4742 20.1503 11.4458L19.6894 11.2628C19.5851 11.221 19.4958 11.1489 19.4329 11.0558C19.3699 10.9627 19.3363 10.8529 19.3363 10.7406C19.3363 10.6282 19.3699 10.5185 19.4329 10.4254C19.4958 10.3323 19.5851 10.2602 19.6894 10.2183L20.1503 10.0354C20.2216 10.007 20.2863 9.9643 20.3405 9.90992C20.3947 9.85555 20.4371 9.79065 20.4652 9.71923L20.6471 9.25603V9.25719Z" fill="url(#paint1_linear_8_574)"/>
<path opacity="0.7" d="M16.169 1.35612C16.21 1.2512 16.2816 1.16108 16.3746 1.09754C16.4675 1.03399 16.5775 1 16.6901 1C16.8028 1 16.9128 1.03399 17.0057 1.09754C17.0987 1.16108 17.1703 1.2512 17.2113 1.35612L17.7092 2.62414C17.737 2.69588 17.7793 2.76109 17.8335 2.8157C17.8877 2.8703 17.9526 2.91311 18.0242 2.94143L19.2875 3.44169C19.3922 3.48336 19.4819 3.55546 19.5451 3.64867C19.6083 3.74188 19.6421 3.85191 19.6421 3.96452C19.6421 4.07714 19.6083 4.18717 19.5451 4.28038C19.4819 4.37359 19.3922 4.44569 19.2875 4.48736L18.0253 4.98762C17.9538 5.01586 17.8888 5.05849 17.8344 5.11287C17.7801 5.16725 17.7374 5.23222 17.7092 5.30375L17.2113 6.57061C17.1703 6.67553 17.0987 6.76566 17.0057 6.8292C16.9128 6.89274 16.8028 6.92673 16.6901 6.92673C16.5775 6.92673 16.4675 6.89274 16.3746 6.8292C16.2816 6.76566 16.21 6.67553 16.169 6.57061L15.6711 5.3026C15.6429 5.23107 15.6002 5.1661 15.5459 5.11172C15.4915 5.05734 15.4265 5.0147 15.355 4.98646L14.0927 4.4862C13.9881 4.44453 13.8984 4.37243 13.8352 4.27922C13.772 4.18601 13.7382 4.07598 13.7382 3.96337C13.7382 3.85075 13.772 3.74072 13.8352 3.64751C13.8984 3.5543 13.9881 3.4822 14.0927 3.44053L15.355 2.94027C15.4266 2.9119 15.4917 2.86909 15.546 2.8145C15.6004 2.75992 15.643 2.69472 15.6711 2.62298L16.169 1.35612Z" fill="url(#paint2_linear_8_574)"/>
<path d="M9.763 6.20009C9.7491 6.2163 9.12031 5.61761 9.10525 5.63266L4.47324 10.2647C4.45819 10.2797 5.05687 10.9085 5.04066 10.9224L16.1436 22.0242C16.4536 22.3343 16.8216 22.5802 17.2267 22.7481C17.6317 22.9159 18.0659 23.0023 18.5043 23.0024C18.9428 23.0024 19.377 22.9161 19.7821 22.7484C20.1872 22.5807 20.5553 22.3348 20.8653 22.0248C21.1754 21.7148 21.4214 21.3467 21.5892 20.9417C21.7571 20.5366 21.8435 20.1025 21.8435 19.664C21.8436 19.2256 21.7573 18.7914 21.5896 18.3863C21.4218 17.9812 21.1759 17.6131 20.8659 17.303L9.763 6.20009Z" fill="url(#paint3_linear_8_574)"/>
<defs>
<linearGradient id="paint0_linear_8_574" x1="5.05276" y1="19.7354" x2="5.05276" y2="2.15942" gradientUnits="userSpaceOnUse">
<stop stop-color="#FD5900"/>
<stop offset="1" stop-color="#FFDE00"/>
</linearGradient>
<linearGradient id="paint1_linear_8_574" x1="21.1682" y1="12.5813" x2="21.1682" y2="8.90106" gradientUnits="userSpaceOnUse">
<stop stop-color="#FD5900"/>
<stop offset="1" stop-color="#FFDE00"/>
</linearGradient>
<linearGradient id="paint2_linear_8_574" x1="16.6901" y1="6.92673" x2="16.6901" y2="1" gradientUnits="userSpaceOnUse">
<stop stop-color="#FD5900"/>
<stop offset="1" stop-color="#FFDE00"/>
</linearGradient>
<linearGradient id="paint3_linear_8_574" x1="13.1583" y1="23.0024" x2="13.1583" y2="5.63239" gradientUnits="userSpaceOnUse">
<stop stop-color="#FD5900"/>
<stop offset="1" stop-color="#FFDE00"/>
</linearGradient>
</defs>
</svg>
