<svg width="24" height="24" viewBox="0 0 24 24" fill="none" xmlns="http://www.w3.org/2000/svg">
<path opacity="0.4" d="M22.6031 14.607C22.3896 14.277 22.086 13.947 21.6926 13.738C21.3778 13.584 21.1755 13.331 20.9956 13.034C20.4223 12.088 20.7595 10.845 21.7151 10.284C22.8392 9.657 23.1989 8.26 22.5469 7.171L21.7938 5.873C21.153 4.784 19.7478 4.399 18.6349 5.037C17.6456 5.565 16.3753 5.213 15.802 4.278C15.6222 3.97 15.521 3.64 15.5435 3.31C15.5772 2.881 15.4423 2.474 15.2399 2.144C14.824 1.462 14.0708 1 13.2389 1H11.6539C10.8333 1.022 10.0801 1.462 9.66414 2.144C9.45055 2.474 9.3269 2.881 9.34938 3.31C9.37186 3.64 9.27069 3.97 9.09082 4.278C8.51751 5.213 7.24721 5.565 6.2692 5.037C5.14505 4.399 3.7511 4.784 3.09909 5.873L2.3459 7.171C1.70514 8.26 2.06487 9.657 3.17778 10.284C4.13331 10.845 4.47055 12.088 3.90848 13.034C3.71737 13.331 3.51502 13.584 3.20026 13.738C2.81805 13.947 2.4808 14.277 2.30094 14.607C1.885 15.289 1.90749 16.147 2.32342 16.862L3.09909 18.182C3.51502 18.886 4.29069 19.326 5.10008 19.326C5.48229 19.326 5.93195 19.216 6.29168 18.996C6.57272 18.809 6.90997 18.743 7.28094 18.743C8.39385 18.743 9.3269 19.656 9.34938 20.745C9.34938 22.01 10.3836 23 11.6876 23H13.2165C14.5092 23 15.5435 22.01 15.5435 20.745C15.5772 19.656 16.5102 18.743 17.6231 18.743C17.9829 18.743 18.3201 18.809 18.6124 18.996C18.9721 19.216 19.4106 19.326 19.804 19.326C20.6022 19.326 21.3778 18.886 21.7938 18.182L22.5807 16.862C22.9854 16.125 23.0191 15.289 22.6031 14.607Z" fill="url(#paint0_linear_11_152)"/>
<path d="M15.7333 6C13.2373 6 12.7813 9.558 14.1733 9.558C15.5773 9.558 18.2293 6 15.7333 6ZM11.8813 6.438C11.8333 6.438 11.7913 6.438 11.7493 6.444C10.3453 6.624 10.8373 9.072 11.5813 9.114C12.3133 9.162 13.1053 6.438 11.8813 6.438ZM9.4393 7.404C9.3673 7.404 9.28332 7.422 9.19932 7.458C8.07132 7.926 9.02532 9.846 9.66132 9.72C10.2433 9.6 10.3153 7.38 9.4393 7.404ZM7.6393 8.91C7.5433 8.904 7.4353 8.94 7.3273 9.018C6.4213 9.642 7.62732 11.148 8.16132 10.914C8.62332 10.71 8.3293 8.934 7.6393 8.91ZM12.6553 10.062C10.7413 10.08 8.29932 11.052 7.87332 12.954C7.39932 15.066 9.81732 18 12.3373 18C13.5793 18 15.0073 16.878 15.2773 15.462C15.4813 14.382 12.8713 14.814 12.9673 15.528C13.0813 16.386 12.3373 16.8 11.6113 16.26C9.29532 14.496 15.4393 13.62 15.0313 11.214C14.8993 10.434 13.8853 10.056 12.6553 10.062Z" fill="url(#paint1_linear_11_152)"/>
<defs>
<linearGradient id="paint0_linear_11_152" x1="12.45" y1="23" x2="12.45" y2="1" gradientUnits="userSpaceOnUse">
<stop stop-color="#5570FF"/>
<stop offset="1" stop-color="#4DD3FF"/>
</linearGradient>
<linearGradient id="paint1_linear_11_152" x1="7" y1="18" x2="19.4519" y2="13.5846" gradientUnits="userSpaceOnUse">
<stop stop-color="#0357D1"/>
<stop offset="1" stop-color="#27CDFC"/>
</linearGradient>
</defs>
</svg>
