<svg width="48" height="48" viewBox="0 0 48 48" fill="none" xmlns="http://www.w3.org/2000/svg">
<path opacity="0.4" d="M27.6168 3.50267L44.4973 20.3832C44.9736 20.8574 45.3515 21.4211 45.6094 22.0417C45.8673 22.6624 46 23.3279 46 24C46 24.6721 45.8673 25.3376 45.6094 25.9583C45.3515 26.5789 44.9736 27.1426 44.4973 27.6168L27.6168 44.4973C27.1426 44.9736 26.5789 45.3515 25.9583 45.6094C25.3376 45.8673 24.6721 46 24 46C23.3279 46 22.6624 45.8673 22.0417 45.6094C21.4211 45.3515 20.8574 44.9736 20.3832 44.4973L3.50267 27.6168C3.0264 27.1426 2.64848 26.5789 2.39061 25.9583C2.13274 25.3376 2 24.6721 2 24C2 23.3279 2.13274 22.6624 2.39061 22.0417C2.64848 21.4211 3.0264 20.8574 3.50267 20.3832L20.3832 3.50267C20.8574 3.0264 21.4211 2.64848 22.0417 2.39061C22.6624 2.13274 23.3279 2 24 2C24.6721 2 25.3376 2.13274 25.9583 2.39061C26.5789 2.64848 27.1426 3.0264 27.6168 3.50267Z" fill="url(#paint0_linear_49_134)"/>
<path fill-rule="evenodd" clip-rule="evenodd" d="M21.5907 24.6738C21.5907 24.5826 21.5288 24.5034 21.4413 24.4772C19.7937 23.9835 18.5929 22.4556 18.5929 20.6473C18.5929 19.8608 18.8201 19.1274 19.2123 18.509C19.2659 18.4246 19.2542 18.3133 19.1808 18.2455L14.0643 13.5226C13.9832 13.4477 13.9781 13.3212 14.053 13.24L15.1383 12.0643C15.2132 11.9832 15.3397 11.9781 15.4209 12.053L20.7374 16.9606C20.798 17.0166 20.8866 17.0291 20.9619 16.9955C21.4593 16.7733 22.0105 16.6498 22.5905 16.6498C24.7982 16.6498 26.588 18.4395 26.588 20.6473C26.588 21.1143 26.5079 21.5626 26.3608 21.9792C26.3333 22.0569 26.3529 22.1441 26.4135 22.2L29.6383 25.1768C29.7053 25.2387 29.8055 25.2469 29.884 25.2003C30.4799 24.8474 31.1754 24.6448 31.9182 24.6448C34.1259 24.6448 35.9157 26.4346 35.9157 28.6424C35.9157 30.8501 34.1259 32.6399 31.9182 32.6399C29.7104 32.6399 27.9206 30.8501 27.9206 28.6424C27.9206 28.0135 28.0659 27.4185 28.3246 26.8892C28.3647 26.8072 28.3485 26.708 28.2814 26.6461L25.2567 23.8541C25.1833 23.7863 25.0715 23.7836 24.9916 23.8436C24.6195 24.1236 24.197 24.3401 23.74 24.4771C23.6526 24.5033 23.5907 24.5824 23.5907 24.6737V29.946C23.5907 30.0373 23.6527 30.1165 23.7401 30.1427C25.3875 30.6365 26.588 32.1642 26.588 33.9724C26.588 36.1802 24.7982 37.9699 22.5905 37.9699C20.3827 37.9699 18.5929 36.1802 18.5929 33.9724C18.5929 32.1641 19.7937 30.6362 21.4413 30.1425C21.5288 30.1163 21.5907 30.0371 21.5907 29.9459V24.6738Z" fill="url(#paint1_linear_49_134)"/>
<defs>
<linearGradient id="paint0_linear_49_134" x1="33.6121" y1="37.7406" x2="14.4903" y2="7.16473" gradientUnits="userSpaceOnUse">
<stop stop-color="#EF4728"/>
<stop offset="1" stop-color="#F37760"/>
</linearGradient>
<linearGradient id="paint1_linear_49_134" x1="35.8507" y1="12.1646" x2="10.4886" y2="33.3892" gradientUnits="userSpaceOnUse">
<stop stop-color="#FE7970"/>
<stop offset="1" stop-color="#DC3282"/>
</linearGradient>
</defs>
</svg>
