<svg width="24" height="24" viewBox="0 0 24 24" fill="none" xmlns="http://www.w3.org/2000/svg">
<path opacity="0.5" d="M6.44789 6.28231C6.61626 6.1287 6.71749 5.91505 6.72975 5.68747C6.74201 5.45988 6.66431 5.2366 6.51341 5.06579C6.36251 4.89499 6.15051 4.79035 5.92315 4.77445C5.69579 4.75856 5.47129 4.83268 5.2981 4.98083C4.21903 5.93062 3.35495 7.09964 2.76353 8.40987C2.17211 9.7201 1.86695 11.1414 1.86841 12.5789C1.86841 12.8093 1.95991 13.0301 2.12277 13.193C2.28563 13.3559 2.50651 13.4474 2.73683 13.4474C2.96715 13.4474 3.18804 13.3559 3.3509 13.193C3.51376 13.0301 3.60526 12.8093 3.60526 12.5789C3.60375 11.3876 3.85655 10.2096 4.34676 9.12372C4.83697 8.03786 5.55331 7.06915 6.44789 6.28231ZM18.7019 4.98083C18.5287 4.83268 18.3042 4.75856 18.0768 4.77445C17.8495 4.79035 17.6375 4.89499 17.4866 5.06579C17.3357 5.2366 17.258 5.45988 17.2702 5.68747C17.2825 5.91505 17.3837 6.1287 17.5521 6.28231C18.4467 7.06915 19.163 8.03786 19.6532 9.12372C20.1434 10.2096 20.3962 11.3876 20.3947 12.5789C20.3947 12.8093 20.4862 13.0301 20.6491 13.193C20.8119 13.3559 21.0328 13.4474 21.2631 13.4474C21.4935 13.4474 21.7144 13.3559 21.8772 13.193C22.0401 13.0301 22.1316 12.8093 22.1316 12.5789C22.133 11.1414 21.8279 9.7201 21.2365 8.40987C20.645 7.09964 19.781 5.93062 18.7019 4.98083ZM9.90073 20.7097C9.78915 20.6775 9.67225 20.6681 9.55695 20.6819C9.44166 20.6957 9.3303 20.7325 9.22948 20.7901C9.12865 20.8477 9.0404 20.925 8.96995 21.0173C8.8995 21.1096 8.84828 21.2151 8.81931 21.3275C8.79035 21.44 8.78423 21.5571 8.80132 21.672C8.81841 21.7868 8.85836 21.8971 8.91881 21.9962C8.97926 22.0954 9.05898 22.1814 9.15326 22.2492C9.24753 22.317 9.35445 22.3652 9.46768 22.3909C11.1288 22.8185 12.8712 22.8185 14.5323 22.3909C14.6455 22.3652 14.7525 22.317 14.8467 22.2492C14.941 22.1814 15.0207 22.0954 15.0812 21.9962C15.1416 21.8971 15.1816 21.7868 15.1987 21.672C15.2158 21.5571 15.2096 21.44 15.1807 21.3275C15.1517 21.2151 15.1005 21.1096 15.03 21.0173C14.9596 20.925 14.8713 20.8477 14.7705 20.7901C14.6697 20.7325 14.5583 20.6957 14.443 20.6819C14.3277 20.6681 14.2108 20.6775 14.0993 20.7097C13.4134 20.8857 12.7081 20.9744 12 20.9737C11.292 20.9738 10.5867 20.8851 9.90073 20.7097Z" fill="url(#paint0_linear_8_910)"/>
<path d="M8.52632 4.47368C8.52632 5.39496 8.89229 6.27851 9.54373 6.92995C10.1952 7.58139 11.0787 7.94737 12 7.94737C12.9213 7.94737 13.8048 7.58139 14.4563 6.92995C15.1077 6.27851 15.4737 5.39496 15.4737 4.47368C15.4737 3.55241 15.1077 2.66886 14.4563 2.01742C13.8048 1.36598 12.9213 1 12 1C11.0787 1 10.1952 1.36598 9.54373 2.01742C8.89229 2.66886 8.52632 3.55241 8.52632 4.47368ZM1 18.3684C1 18.8246 1.08985 19.2763 1.26442 19.6977C1.43899 20.1192 1.69486 20.5021 2.01742 20.8247C2.33998 21.1472 2.72292 21.4031 3.14436 21.5777C3.56581 21.7523 4.01751 21.8421 4.47368 21.8421C4.92985 21.8421 5.38156 21.7523 5.80301 21.5777C6.22445 21.4031 6.60739 21.1472 6.92995 20.8247C7.25251 20.5021 7.50838 20.1192 7.68295 19.6977C7.85752 19.2763 7.94737 18.8246 7.94737 18.3684C7.94737 17.4471 7.58139 16.5636 6.92995 15.9122C6.27851 15.2607 5.39496 14.8947 4.47368 14.8947C3.55241 14.8947 2.66886 15.2607 2.01742 15.9122C1.36598 16.5636 1 17.4471 1 18.3684ZM19.5263 21.8421C18.605 21.8421 17.7215 21.4761 17.07 20.8247C16.4186 20.1732 16.0526 19.2897 16.0526 18.3684C16.0526 17.4471 16.4186 16.5636 17.07 15.9122C17.7215 15.2607 18.605 14.8947 19.5263 14.8947C20.4476 14.8947 21.3311 15.2607 21.9826 15.9122C22.634 16.5636 23 17.4471 23 18.3684C23 19.2897 22.634 20.1732 21.9826 20.8247C21.3311 21.4761 20.4476 21.8421 19.5263 21.8421Z" fill="url(#paint1_linear_8_910)"/>
<defs>
<linearGradient id="paint0_linear_8_910" x1="12" y1="22.7116" x2="12" y2="4.77234" gradientUnits="userSpaceOnUse">
<stop stop-color="#5570FF"/>
<stop offset="1" stop-color="#4DD3FF"/>
</linearGradient>
<linearGradient id="paint1_linear_8_910" x1="12" y1="21.8421" x2="12" y2="1" gradientUnits="userSpaceOnUse">
<stop stop-color="#5570FF"/>
<stop offset="1" stop-color="#4DD3FF"/>
</linearGradient>
</defs>
</svg>
