<svg width="128" height="128" viewBox="0 0 128 128" fill="none" xmlns="http://www.w3.org/2000/svg">
<path opacity="0.4" d="M52.9775 109.21L48.8557 101.739L9.80768 30.9904L9.45689 30.3564C8.41877 28.4756 7.91847 26.3452 8.01082 24.199C8.10317 22.0526 8.78468 19.9731 9.98044 18.1883C11.1763 16.4036 12.8404 14.9825 14.7902 14.0808C16.7402 13.179 18.9007 12.8315 21.0351 13.0762L109.633 23.2362C111.618 23.464 113.51 24.1959 115.132 25.3622C116.753 26.5285 118.049 28.0903 118.896 29.899C119.743 31.7077 120.113 33.7031 119.97 35.6954C119.829 37.6875 119.179 39.6101 118.083 41.2801L73.0057 109.977C72.0998 111.356 70.9128 112.528 69.5224 113.417C68.132 114.307 66.5695 114.891 64.9372 115.134C63.3051 115.377 61.6399 115.272 60.051 114.827C58.4619 114.383 56.9849 113.606 55.7165 112.55C54.6045 111.616 53.6757 110.484 52.9775 109.21Z" fill="url(#paint0_linear_278_77)"/>
<path d="M53.3112 98.0989C52.7718 97.7649 52.3276 97.2979 52.0213 96.7429L18.8176 36.5831C17.2461 33.7358 19.5487 30.303 22.7793 30.6767L86.4381 38.0411C87.481 38.162 88.4757 38.5478 89.3274 39.1617C90.1791 39.7756 90.8596 40.5973 91.304 41.5485C91.7484 42.4998 91.9421 43.5489 91.8665 44.5961C91.7908 45.6433 91.4485 46.6537 90.872 47.5312L62.1142 91.3126L58.3276 97.0049C57.9762 97.5329 57.4947 97.9619 56.9295 98.2499C56.3643 98.5379 55.7344 98.6749 55.1006 98.6489C54.4669 98.6219 53.8506 98.4329 53.3112 98.0989Z" fill="url(#paint1_linear_278_77)" stroke="url(#paint2_linear_278_77)" stroke-width="10" stroke-linecap="round" stroke-linejoin="round"/>
<defs>
<linearGradient id="paint0_linear_278_77" x1="119.668" y1="13.6483" x2="18.5572" y2="123.466" gradientUnits="userSpaceOnUse">
<stop stop-color="#FE7970"/>
<stop offset="1" stop-color="#DC3282"/>
</linearGradient>
<linearGradient id="paint1_linear_278_77" x1="91.6549" y1="30.2209" x2="23.6758" y2="105.416" gradientUnits="userSpaceOnUse">
<stop stop-color="#FE7970"/>
<stop offset="1" stop-color="#DC3282"/>
</linearGradient>
<linearGradient id="paint2_linear_278_77" x1="91.6549" y1="30.2209" x2="23.6758" y2="105.416" gradientUnits="userSpaceOnUse">
<stop stop-color="#FE7970"/>
<stop offset="1" stop-color="#DC3282"/>
</linearGradient>
</defs>
</svg>
