<svg width="24" height="24" viewBox="0 0 24 24" fill="none" xmlns="http://www.w3.org/2000/svg">
<path opacity="0.4" d="M12 23C18.0753 23 23 18.0753 23 12C23 5.9247 18.0753 1 12 1C5.9247 1 1 5.9247 1 12C1 13.76 1.4136 15.4232 2.1473 16.8983C2.3431 17.2899 2.408 17.7376 2.2947 18.1611L1.6402 20.6097C1.57562 20.8519 1.57586 21.1069 1.6409 21.349C1.70595 21.5912 1.8335 21.8119 2.01078 21.9892C2.18806 22.1665 2.40883 22.294 2.65095 22.3591C2.89308 22.4241 3.14805 22.4244 3.3903 22.3598L5.8389 21.7053C6.26394 21.5983 6.71343 21.6504 7.1028 21.8516C8.62401 22.6091 10.3006 23.0022 12 23Z" fill="url(#paint0_linear_126_140)"/>
<path fill-rule="evenodd" clip-rule="evenodd" d="M7.43391 10.6541C8.44301 10.6541 9.26099 9.83616 9.26099 8.82707C9.26099 7.81798 8.44301 7 7.43391 7C6.42485 7 5.60684 7.81798 5.60684 8.82707C5.60684 9.83616 6.42485 10.6541 7.43391 10.6541ZM18.999 14.275V14.2717L18.9993 14.2686L18.999 14.275ZM18.9993 14.2686L19 14.2453C19 14.2506 18.9999 14.2559 18.9996 14.2613L18.9993 14.2686ZM18.8545 14.6784L18.8545 14.6784L18.8544 14.6787C18.8125 14.7662 18.7719 14.8514 18.7481 14.9271L18.7352 14.9463C17.9475 16.0196 16.9326 16.8788 15.7735 17.4535C14.6144 18.0281 13.344 18.302 12.0665 18.2525H12.0105L11.8327 18.2547C10.5897 18.2551 9.36201 17.9635 8.23681 17.4005C7.1117 16.8375 6.11678 16.0171 5.32298 14.9975L5.32098 14.9964C5.22735 14.9154 5.15069 14.8144 5.09595 14.6998C5.0412 14.5854 5.00958 14.4598 5.00314 14.3315V14.3337C4.9952 14.257 5.00235 14.1795 5.02413 14.1059C5.04592 14.0324 5.08185 13.9646 5.12964 13.9067C5.17743 13.8489 5.23602 13.8023 5.30167 13.7699C5.36731 13.7376 5.43857 13.7202 5.51088 13.7189H5.51388C5.62882 13.7341 5.73803 13.7812 5.83072 13.8553L5.81286 13.84C7.57039 15.3385 9.75109 16.1605 12.0016 16.1727H11.9926L12.1665 16.1748C14.3602 16.1793 16.4856 15.3621 18.1714 13.8659C18.259 13.7806 18.3727 13.7322 18.4913 13.7296H18.4983C18.5641 13.7294 18.6293 13.7431 18.69 13.7698C18.7509 13.7966 18.8061 13.836 18.8526 13.8856C18.8991 13.9352 18.9361 13.994 18.9612 14.0589C18.9863 14.1238 18.9992 14.1932 18.999 14.2633V14.2717C18.99 14.395 18.9208 14.5398 18.8545 14.6784ZM16.5693 10.6541C17.5784 10.6541 18.3963 9.83616 18.3963 8.82707C18.3963 7.81798 17.5784 7 16.5693 7C15.5602 7 14.7422 7.81798 14.7422 8.82707C14.7422 9.83616 15.5602 10.6541 16.5693 10.6541Z" fill="url(#paint1_linear_126_140)"/>
<defs>
<linearGradient id="paint0_linear_126_140" x1="12" y1="23" x2="12" y2="1" gradientUnits="userSpaceOnUse">
<stop stop-color="#00B59C"/>
<stop offset="1" stop-color="#9CFFAC"/>
</linearGradient>
<linearGradient id="paint1_linear_126_140" x1="12" y1="18.2582" x2="12" y2="7" gradientUnits="userSpaceOnUse">
<stop stop-color="#02AA93"/>
<stop offset="1" stop-color="#67FF80"/>
</linearGradient>
</defs>
</svg>
