<svg width="64" height="64" viewBox="0 0 64 64" fill="none" xmlns="http://www.w3.org/2000/svg">
<rect opacity="0.4" x="60" y="60" width="56" height="56" rx="12" transform="rotate(-180 60 60)" fill="url(#paint0_linear_54_769)"/>
<path fill-rule="evenodd" clip-rule="evenodd" d="M16.0002 16.4035L16 25.6935L16.0002 34.9842C16.0002 36.267 17.0401 37.3068 18.3228 37.3068C19.6056 37.3068 20.6454 36.267 20.6454 34.9842V28.0881C21.4649 28.0641 22.4253 27.9866 23.4056 27.7985C24.7444 27.5415 26.3294 27.0395 27.6211 25.9956C29.0105 24.873 29.9355 23.2154 29.9355 21.0485C29.9355 18.8815 29.0105 17.224 27.6211 16.1013C26.3294 15.0575 24.7446 14.5554 23.4057 14.2986C22.0359 14.0356 20.705 13.989 19.7431 14.002C19.2556 14.0085 18.8468 14.0306 18.5548 14.0518C18.4086 14.0623 18.2908 14.0727 18.2061 14.0807C18.1637 14.0848 18.1296 14.0882 18.1041 14.091L18.0727 14.0944L18.0621 14.0956L18.058 14.096L18.0563 14.0963C18.0556 14.0964 18.0548 14.0964 18.3228 16.4035L18.0548 14.0964L16.0002 16.4035ZM20.6454 23.4403C21.2413 23.4176 21.8943 23.3586 22.53 23.2366C23.5137 23.0477 24.2513 22.7463 24.7016 22.3826C25.0542 22.0976 25.2904 21.7435 25.2904 21.0485C25.2904 20.3534 25.0542 19.9992 24.7016 19.7144C24.2515 19.3506 23.5138 19.0492 22.5301 18.8605C21.8944 18.7384 21.2414 18.6794 20.6454 18.6568V23.4403ZM39.6874 20.0409C39.2519 21.3473 39.2259 23.2394 39.2259 25.6936C39.2259 28.1479 39.2519 30.0399 39.6874 31.3462C39.883 31.933 40.1056 32.2097 40.2889 32.3523C40.4522 32.4793 40.7888 32.6614 41.5485 32.6614C42.5232 32.6614 43.1363 32.5388 43.4995 32.4177C43.7195 32.3444 43.846 32.2725 43.9116 32.2274C44.1148 31.1521 45.0593 30.3388 46.1937 30.3388C47.4764 30.3388 48.5163 31.3786 48.5163 32.6614H46.1937C48.5163 32.6614 48.5163 32.6636 48.5163 32.6659V32.6706L48.5161 32.6801L48.5159 32.7L48.5159 32.7014C48.5157 32.7145 48.5154 32.7284 48.5149 32.7429C48.5139 32.773 48.5124 32.8061 48.51 32.842C48.5052 32.9135 48.4971 32.9967 48.4839 33.0897C48.4574 33.2752 48.4097 33.5034 48.3245 33.7587C48.1515 34.2778 47.8294 34.891 47.2553 35.465C46.0856 36.6349 44.2291 37.3066 41.5485 37.3066C39.9856 37.3066 38.5802 36.908 37.437 36.0189C36.3139 35.1454 35.6656 33.9703 35.2805 32.8152C34.5787 30.71 34.5798 28.0665 34.5807 25.9135V25.6936V25.4737C34.5798 23.3207 34.5787 20.6773 35.2805 18.572C35.6656 17.4169 36.3139 16.2419 37.437 15.3683C38.5802 14.4792 39.9856 14.0807 41.5485 14.0807C44.2291 14.0807 46.0856 14.7524 47.2553 15.9223C47.8294 16.4963 48.1515 17.1095 48.3245 17.6284C48.4097 17.8839 48.4574 18.112 48.4839 18.2976C48.4971 18.3906 48.5052 18.4736 48.51 18.5453C48.5124 18.5811 48.5139 18.6142 48.5149 18.6443C48.5154 18.6587 48.5157 18.6726 48.5159 18.6857L48.5159 18.6873L48.5161 18.7072L48.5163 18.7167V18.7212C48.5163 18.7235 48.5163 18.7259 46.1937 18.7259H48.5163C48.5163 20.0086 47.4764 21.0485 46.1937 21.0485C45.0593 21.0485 44.1148 20.2352 43.9116 19.1598C43.846 19.1147 43.7195 19.0429 43.4995 18.9696C43.1363 18.8485 42.5232 18.7259 41.5485 18.7259C40.7888 18.7259 40.4522 18.908 40.2889 19.035C40.1056 19.1776 39.883 19.4541 39.6874 20.0409ZM18 44C16.8954 44 16 44.8954 16 46C16 47.1046 16.8954 48 18 48H36.5807C37.6853 48 38.5807 47.1046 38.5807 46C38.5807 44.8954 37.6853 44 36.5807 44H18Z" fill="url(#paint1_linear_54_769)"/>
<defs>
<linearGradient id="paint0_linear_54_769" x1="88" y1="116" x2="88" y2="60" gradientUnits="userSpaceOnUse">
<stop stop-color="#00B59C"/>
<stop offset="1" stop-color="#9CFFAC"/>
</linearGradient>
<linearGradient id="paint1_linear_54_769" x1="32" y1="60.5" x2="32" y2="4" gradientUnits="userSpaceOnUse">
<stop stop-color="#02AA93"/>
<stop offset="1" stop-color="#67FF80"/>
</linearGradient>
</defs>
</svg>
