<svg width="64" height="64" viewBox="0 0 64 64" fill="none" xmlns="http://www.w3.org/2000/svg">
<path opacity="0.4" d="M37.8694 9.2243H24.1671C23.9327 9.22146 23.7067 9.31162 23.5386 9.47504C23.3706 9.63846 23.2741 9.86181 23.2704 10.0962V19.439H31.9291C32.2771 19.4343 32.6226 19.4983 32.9458 19.6272C33.2691 19.7562 33.5637 19.9476 33.8129 20.1906C34.0621 20.4335 34.261 20.7232 34.3981 21.0431C34.5353 21.3629 34.608 21.7067 34.6122 22.0547C34.6122 23.4972 33.4106 24.6668 31.9291 24.6668H10.2592C10.0254 24.6649 9.80038 24.7555 9.63308 24.9188C9.46578 25.0821 9.36981 25.305 9.36608 25.5387V39.5529C9.36981 39.7873 9.46627 40.0107 9.63434 40.1741C9.80241 40.3375 10.0284 40.4277 10.2628 40.4248H18.9747C19.2073 40.4277 19.4317 40.339 19.5995 40.1779C19.7672 40.0167 19.8649 39.7961 19.8714 39.5635V35.4451C19.8714 32.078 22.6749 29.3489 26.1306 29.3489H37.8694C38.1032 29.3508 38.3282 29.2602 38.4955 29.0969C38.6628 28.9336 38.7588 28.7107 38.7625 28.477V10.0962C38.7625 9.61418 38.3656 9.2243 37.8694 9.2243Z" fill="url(#paint0_linear_69_241)"/>
<path opacity="0.4" d="M25.2374 35.523V39.5848V53.9038C25.2412 54.1376 25.3371 54.3604 25.5044 54.5237C25.6717 54.687 25.8968 54.7776 26.1306 54.7757H39.8293C40.0637 54.7785 40.2897 54.6884 40.4578 54.525C40.6258 54.3615 40.7223 54.1382 40.726 53.9038V44.561H32.0708C30.5893 44.561 29.3878 43.3914 29.3878 41.9453C29.3924 41.5976 29.4655 41.2542 29.6028 40.9348C29.7402 40.6153 29.9391 40.3261 30.1883 40.0835C30.4374 39.8409 30.7319 39.6498 31.0549 39.5211C31.3779 39.3923 31.7232 39.3285 32.0708 39.3332H53.7407C53.9745 39.3351 54.1996 39.2445 54.3669 39.0812C54.5342 38.9179 54.6301 38.695 54.6339 38.4613V24.4471C54.6339 23.9651 54.2334 23.5752 53.7372 23.5752H45.0253C44.7927 23.5723 44.5683 23.661 44.4005 23.8221C44.2327 23.9833 44.1351 24.2039 44.1286 24.4365V28.5549C44.1286 31.922 41.3286 34.6511 37.8693 34.6511H26.1306C25.8968 34.6492 25.6717 34.7398 25.5044 34.9031C25.3371 35.0664 25.2412 35.2893 25.2374 35.523Z" fill="url(#paint1_linear_69_241)"/>
<path d="M24.1671 9.2243H37.8694C38.3656 9.2243 38.7625 9.61418 38.7625 10.0962V28.477C38.7588 28.7107 38.6628 28.9336 38.4955 29.0969C38.3282 29.2602 38.1032 29.3508 37.8694 29.3489H26.1306C22.6749 29.3489 19.8714 32.078 19.8714 35.4451V39.5635C19.8649 39.7961 19.7672 40.0167 19.5995 40.1779C19.4317 40.339 19.2073 40.4277 18.9747 40.4248H10.2628C10.0284 40.4277 9.80241 40.3375 9.63434 40.1741C9.46627 40.0107 9.36981 39.7873 9.36608 39.5529V25.5387C9.36981 25.305 9.46578 25.0821 9.63308 24.9188C9.80038 24.7555 10.0254 24.6649 10.2592 24.6668H31.9291C33.4106 24.6668 34.6122 23.4972 34.6122 22.0547C34.608 21.7067 34.5353 21.3629 34.3981 21.0431C34.261 20.7232 34.0621 20.4335 33.8129 20.1906C33.5637 19.9476 33.2691 19.7562 32.9458 19.6272C32.6226 19.4983 32.2771 19.4343 31.9291 19.439H25.2704C24.1658 19.439 23.2704 18.5436 23.2704 17.439V10.0962C23.2741 9.86181 23.3706 9.63846 23.5386 9.47504C23.7067 9.31162 23.9327 9.22146 24.1671 9.2243ZM45.0253 18.3473C44.5507 18.3473 44.1286 17.986 44.1286 17.5114V10.0962C44.1286 6.72911 41.3286 4 37.8694 4H24.1671C20.7078 4 17.9043 6.72911 17.9043 10.0962V17.439C17.9043 18.5436 17.0089 19.439 15.9043 19.439H10.2628C6.8 19.439 4 22.1681 4 25.5352V39.5529C4 42.92 6.8 45.6491 10.2592 45.6491H18.9782V45.6491C19.4525 45.6491 19.8714 46.0105 19.8714 46.4847V53.9038C19.8714 57.2709 22.6714 60 26.1306 60H39.8329C43.2922 60 46.0957 57.2709 46.0957 53.9038V46.561C46.0957 45.4564 46.9911 44.561 48.0957 44.561H53.7372C57.1965 44.561 60 41.8319 60 38.4648V24.4435C60 21.0765 57.2 18.3473 53.7372 18.3473H45.0253V18.3473ZM25.2375 39.5848V35.523C25.2412 35.2893 25.3372 35.0665 25.5045 34.9031C25.6718 34.7398 25.8968 34.6492 26.1306 34.6511H37.8694C41.3286 34.6511 44.1286 31.922 44.1286 28.5549V24.4365C44.1351 24.2039 44.2328 23.9833 44.4005 23.8221C44.5683 23.661 44.7927 23.5723 45.0253 23.5752H53.7372C54.2334 23.5752 54.6339 23.9651 54.6339 24.4471V38.4613C54.6302 38.695 54.5342 38.9179 54.3669 39.0812C54.1996 39.2445 53.9745 39.3351 53.7408 39.3332H32.0709C31.7232 39.3285 31.378 39.3923 31.055 39.5211C30.7319 39.6498 30.4375 39.8409 30.1883 40.0835C29.9392 40.3261 29.7402 40.6153 29.6029 40.9348C29.4655 41.2542 29.3925 41.5976 29.3878 41.9453C29.3878 43.3914 30.5894 44.561 32.0709 44.561H38.7261C39.8306 44.561 40.7261 45.4564 40.7261 46.561V53.9038C40.7223 54.1382 40.6259 54.3615 40.4578 54.525C40.2897 54.6884 40.0638 54.7785 39.8294 54.7757H26.1306C25.8968 54.7776 25.6718 54.687 25.5045 54.5237C25.3372 54.3604 25.2412 54.1376 25.2375 53.9038V39.5848Z" fill="url(#paint2_linear_69_241)"/>
<path d="M19.8211 49.4718L19.8211 45.7488L24.9908 45.5114C25.1262 45.5052 25.2415 45.6133 25.2394 45.7488V49.2545V49.4146V53.853C25.2431 54.0887 25.4483 54.3134 25.6151 54.478C25.7819 54.6427 26.0062 54.734 26.2393 54.7321H39.8941C40.1277 54.735 40.353 54.6441 40.5205 54.4793C40.688 54.3145 40.7842 54.0893 40.7879 53.853L40.7989 46.6406C40.8006 45.5348 39.9047 44.6375 38.7989 44.6375H32.1745C30.6977 44.6375 29.5001 43.5916 29.5001 42.1335C29.5047 41.7829 29.5635 41.0979 29.7004 40.7758C29.8373 40.4537 30.0356 40.162 30.2839 39.9174C30.5323 39.6728 30.8258 39.4801 31.1478 39.3503C31.4698 39.2205 31.8139 39.1561 32.1605 39.1608H53.7609C53.9939 39.1627 54.2183 39.0714 54.385 38.9067C54.5518 38.7421 54.6475 38.5174 54.6512 38.2817V24.5C54.6512 24.014 54.252 23.6208 53.7574 23.6208H45.0734C44.8415 23.6179 44.6178 23.7074 44.4506 23.8698C44.2834 24.0323 44.186 24.2548 44.1795 24.4893V18.9613C44.1795 18.4462 44.5583 18 45.0734 18H53.7574C57.209 18 60.0001 20.7519 60.0001 24.147V38.2852C60.0001 41.6804 57.209 45 53.7609 45H48.1431C47.0388 45 46.1435 45.8949 46.1431 46.9992L46.1403 53.853C46.1403 57.2481 43.3458 60 39.8976 60H26.2393C22.7911 60 19.8211 57.3268 19.8211 53.9316L19.8211 51.3927C19.8211 50.8522 19.8353 50.3728 19.8244 49.8325C19.8223 49.7275 19.8211 49.6079 19.8211 49.4718Z" fill="url(#paint3_linear_69_241)"/>
<defs>
<linearGradient id="paint0_linear_69_241" x1="21.3813" y1="45.6491" x2="21.3813" y2="4" gradientUnits="userSpaceOnUse">
<stop stop-color="#5570FF"/>
<stop offset="1" stop-color="#4DD3FF"/>
</linearGradient>
<linearGradient id="paint1_linear_69_241" x1="42.6187" y1="60" x2="42.6187" y2="23.5751" gradientUnits="userSpaceOnUse">
<stop stop-color="#FD5900"/>
<stop offset="1" stop-color="#FFDE00"/>
</linearGradient>
<linearGradient id="paint2_linear_69_241" x1="32" y1="60" x2="32" y2="4" gradientUnits="userSpaceOnUse">
<stop stop-color="#5570FF"/>
<stop offset="1" stop-color="#4DD3FF"/>
</linearGradient>
<linearGradient id="paint3_linear_69_241" x1="39.9106" y1="60" x2="39.9106" y2="18" gradientUnits="userSpaceOnUse">
<stop stop-color="#FD5900"/>
<stop offset="1" stop-color="#FFDE00"/>
</linearGradient>
</defs>
</svg>
