<svg width="48" height="48" viewBox="0 0 48 48" fill="none" xmlns="http://www.w3.org/2000/svg">
<path opacity="0.4" d="M23.5 46C35.3741 46 45 36.3741 45 24.5C45 12.6259 35.3741 3 23.5 3C11.6259 3 2 12.6259 2 24.5C2 36.3741 11.6259 46 23.5 46Z" fill="url(#paint0_linear_5_187)"/>
<path d="M26.371 22.831C26.3709 22.1698 26.501 21.515 26.754 20.904C27.007 20.2931 27.3779 19.738 27.8454 19.2704C28.313 18.8029 28.8681 18.432 29.479 18.179C30.09 17.926 30.7448 17.7959 31.406 17.796C32.0672 17.796 32.7218 17.9262 33.3327 18.1793C33.9435 18.4323 34.4985 18.8032 34.9659 19.2708C35.4334 19.7383 35.8042 20.2934 36.0571 20.9043C36.31 21.5151 36.4401 22.1698 36.44 22.831V26.103C36.4401 26.7642 36.31 27.4189 36.0571 28.0297C35.8042 28.6406 35.4334 29.1957 34.9659 29.6632C34.4985 30.1308 33.9435 30.5017 33.3327 30.7547C32.7218 31.0078 32.0672 31.138 31.406 31.138C30.7448 31.1381 30.09 31.008 29.479 30.755C28.8681 30.502 28.313 30.1311 27.8454 29.6636C27.3779 29.196 27.007 28.6409 26.754 28.03C26.501 27.419 26.3709 26.7642 26.371 26.103M26.371 31.138V11M21.069 26.103C21.0691 26.7642 20.939 27.419 20.686 28.03C20.433 28.6409 20.0621 29.196 19.5946 29.6636C19.127 30.1311 18.5719 30.502 17.961 30.755C17.35 31.008 16.6952 31.1381 16.034 31.138C15.3728 31.138 14.7182 31.0078 14.1073 30.7547C13.4965 30.5017 12.9415 30.1308 12.4741 29.6632C12.0066 29.1957 11.6358 28.6406 11.3829 28.0297C11.13 27.4189 10.9999 26.7642 11 26.103V22.831C10.9999 22.1698 11.13 21.5151 11.3829 20.9043C11.6358 20.2934 12.0066 19.7383 12.4741 19.2708C12.9415 18.8032 13.4965 18.4323 14.1073 18.1793C14.7182 17.9262 15.3728 17.796 16.034 17.796C16.6952 17.7959 17.35 17.926 17.961 18.179C18.5719 18.432 19.127 18.8029 19.5946 19.2704C20.0621 19.738 20.433 20.2931 20.686 20.904C20.939 21.515 21.0691 22.1698 21.069 22.831M21.069 17.796V37.934" stroke="url(#paint1_linear_5_187)" stroke-width="4" stroke-linecap="round" stroke-linejoin="round"/>
<defs>
<linearGradient id="paint0_linear_5_187" x1="23.5" y1="46" x2="23.5" y2="3" gradientUnits="userSpaceOnUse">
<stop stop-color="#5570FF"/>
<stop offset="1" stop-color="#4DD3FF"/>
</linearGradient>
<linearGradient id="paint1_linear_5_187" x1="23.72" y1="37.934" x2="23.72" y2="11" gradientUnits="userSpaceOnUse">
<stop stop-color="#5570FF"/>
<stop offset="1" stop-color="#4DD3FF"/>
</linearGradient>
</defs>
</svg>
