<svg width="24" height="24" viewBox="0 0 24 24" fill="none" xmlns="http://www.w3.org/2000/svg">
<path opacity="0.4" d="M12 23C18.0751 23 23 18.0751 23 12C23 5.92486 18.0751 1 12 1C5.92486 1 1 5.92486 1 12C1 18.0751 5.92486 23 12 23Z" fill="url(#paint0_linear_297_208)"/>
<path d="M8.2325 9.19171C8.0268 6.89931 6.2591 4.76311 5.4 3.98211L4.927 3.57511C6.90656 1.90836 9.4122 0.996125 12 1.00001C14.4354 1.00001 16.686 1.79201 18.5076 3.12961C18.765 3.91171 18.2744 5.54521 17.7596 6.32621C17.5726 6.60891 17.1502 6.96091 16.686 7.29421C15.641 8.04551 14.321 8.41621 13.65 9.80001C13.4823 10.1484 13.4498 10.5466 13.5587 10.9176C13.6247 11.1596 13.6687 11.4225 13.6687 11.6788C13.6709 12.5093 12.8305 13.1088 12 13.1C9.8396 13.0769 8.425 11.3356 8.2325 9.19171ZM13.5807 18.9036C14.6675 16.8554 18.2898 16.8554 18.2898 16.8554C22.065 16.8158 22.5754 14.5234 22.9164 13.3651C22.6156 15.7644 21.5332 17.9978 19.8363 19.7204C18.1393 21.443 15.9224 22.5588 13.5279 22.8955C13.1726 22.1475 12.7524 20.4645 13.5807 18.9036Z" fill="url(#paint1_linear_297_208)"/>
<defs>
<linearGradient id="paint0_linear_297_208" x1="12.0646" y1="27.4816" x2="12.0646" y2="3.10142" gradientUnits="userSpaceOnUse">
<stop stop-color="#FDA700"/>
<stop offset="1" stop-color="#FFDE00"/>
</linearGradient>
<linearGradient id="paint1_linear_297_208" x1="13.9745" y1="27.3558" x2="13.9745" y2="3.09144" gradientUnits="userSpaceOnUse">
<stop stop-color="#FDA700"/>
<stop offset="1" stop-color="#FFDE00"/>
</linearGradient>
</defs>
</svg>
