<svg width="24" height="24" viewBox="0 0 24 24" fill="none" xmlns="http://www.w3.org/2000/svg">
<path opacity="0.4" d="M9.26354 7.52197H15.5812C16.2812 7.52197 16.8447 8.0972 16.8447 8.8118V21.7104C16.8447 22.425 16.2812 23.0002 15.5812 23.0002H9.26354C8.56354 23.0002 8 22.425 8 21.7104V8.8118C8 8.0972 8.56354 7.52197 9.26354 7.52197Z" fill="url(#paint0_linear_226_219)"/>
<path fill-rule="evenodd" clip-rule="evenodd" d="M12.7291 1.09284C12.5435 0.969053 12.3016 0.969053 12.1159 1.09284L10.879 1.91742C10.6789 2.05085 10.588 2.29838 10.6542 2.52962L11.076 4.00227C11.1051 4.10388 11.0289 4.20508 10.9232 4.20508C10.8354 4.20508 10.7642 4.27627 10.7642 4.36409V7.52184H14.0809V4.36414C14.0809 4.27629 14.0096 4.20508 13.9218 4.20508C13.8161 4.20508 13.7398 4.10385 13.7689 4.00221L14.1908 2.52962C14.257 2.29838 14.1662 2.05085 13.9661 1.91742L12.7291 1.09284ZM14.6337 12.0559C14.6337 13.2771 13.6438 14.2671 12.4226 14.2671C11.2014 14.2671 10.2114 13.2771 10.2114 12.0559C10.2114 10.8347 11.2014 9.84473 12.4226 9.84473C13.6438 9.84473 14.6337 10.8347 14.6337 12.0559Z" fill="url(#paint1_linear_226_219)"/>
<defs>
<linearGradient id="paint0_linear_226_219" x1="12.4224" y1="23.0002" x2="12.4224" y2="7.52197" gradientUnits="userSpaceOnUse">
<stop stop-color="#FD5900"/>
<stop offset="1" stop-color="#FFDE00"/>
</linearGradient>
<linearGradient id="paint1_linear_226_219" x1="12.4226" y1="14.2671" x2="12.4226" y2="1" gradientUnits="userSpaceOnUse">
<stop stop-color="#FD5900"/>
<stop offset="1" stop-color="#FFDE00"/>
</linearGradient>
</defs>
</svg>
