<svg width="48" height="48" viewBox="0 0 48 48" fill="none" xmlns="http://www.w3.org/2000/svg">
<path opacity="0.4" d="M24 46C36.1506 46 46 36.1506 46 24C46 11.8494 36.1506 2 24 2C11.8494 2 2 11.8494 2 24C2 36.1506 11.8494 46 24 46Z" fill="url(#paint0_linear_207_193)"/>
<path d="M27.3 13V28.4Z" fill="url(#paint1_linear_207_193)"/>
<path d="M27.3 13V28.4" stroke="url(#paint2_linear_207_193)" stroke-width="4" stroke-linecap="round" stroke-linejoin="round"/>
<path d="M14.1001 29.1326C14.1001 26.904 16.2275 25.1 18.8521 25.1H27.3001V29.8674C27.3001 32.096 25.1727 33.9 22.5481 33.9H18.8521C16.2275 33.9 14.1001 32.0949 14.1001 29.8674V29.1326Z" fill="url(#paint3_linear_207_193)" stroke="url(#paint4_linear_207_193)" stroke-width="4" stroke-linejoin="round"/>
<path d="M33.9 14.1L27.3 13Z" fill="url(#paint5_linear_207_193)"/>
<path d="M33.9 14.1L27.3 13" stroke="url(#paint6_linear_207_193)" stroke-width="4" stroke-linecap="round" stroke-linejoin="round"/>
<defs>
<linearGradient id="paint0_linear_207_193" x1="24" y1="46" x2="24" y2="2" gradientUnits="userSpaceOnUse">
<stop stop-color="#00B59C"/>
<stop offset="1" stop-color="#9CFFAC"/>
</linearGradient>
<linearGradient id="paint1_linear_207_193" x1="77.3" y1="13" x2="77.3" y2="1553" gradientUnits="userSpaceOnUse">
<stop stop-color="#00D479"/>
<stop offset="1" stop-color="#02A5CB"/>
</linearGradient>
<linearGradient id="paint2_linear_207_193" x1="77.3" y1="13" x2="77.3" y2="1553" gradientUnits="userSpaceOnUse">
<stop stop-color="#00D479"/>
<stop offset="1" stop-color="#02A5CB"/>
</linearGradient>
<linearGradient id="paint3_linear_207_193" x1="674.1" y1="25.1" x2="674.1" y2="905.1" gradientUnits="userSpaceOnUse">
<stop stop-color="#00D479"/>
<stop offset="1" stop-color="#02A5CB"/>
</linearGradient>
<linearGradient id="paint4_linear_207_193" x1="674.1" y1="25.1" x2="674.1" y2="905.1" gradientUnits="userSpaceOnUse">
<stop stop-color="#00D479"/>
<stop offset="1" stop-color="#02A5CB"/>
</linearGradient>
<linearGradient id="paint5_linear_207_193" x1="357.3" y1="13" x2="357.3" y2="123" gradientUnits="userSpaceOnUse">
<stop stop-color="#00D479"/>
<stop offset="1" stop-color="#02A5CB"/>
</linearGradient>
<linearGradient id="paint6_linear_207_193" x1="357.3" y1="13" x2="357.3" y2="123" gradientUnits="userSpaceOnUse">
<stop stop-color="#00D479"/>
<stop offset="1" stop-color="#02A5CB"/>
</linearGradient>
</defs>
</svg>
