<svg width="32" height="32" viewBox="0 0 32 32" fill="none" xmlns="http://www.w3.org/2000/svg">
<path opacity="0.4" d="M18.38 2C18.6452 2 18.8994 2.10529 19.087 2.29272L26.9053 10.1072C27.0929 10.2947 27.1983 10.549 27.1984 10.8142L27.1992 14.2338C27.1994 15.0808 26.1688 15.5887 25.3934 15.2477C24.425 14.8217 23.3716 14.598 22.2983 14.6L21.9889 14.6056C20.3151 14.6731 18.709 15.2843 17.4138 16.3466C16.1185 17.4089 15.2048 18.8644 14.8111 20.4926L14.7994 20.5469C14.7925 20.5785 14.7736 20.6062 14.7467 20.6242V20.6242C14.0085 21.1189 13.377 21.7564 12.8894 22.4993C12.4017 23.2421 12.0679 24.0751 11.9077 24.9491C11.7474 25.8232 11.7639 26.7204 11.9563 27.5879C12.0083 27.8227 12.0729 28.054 12.1497 28.2808C12.4102 29.0501 11.9026 30 11.0904 30H3.38849C3.04817 30 2.71969 29.8751 2.46527 29.6491C2.21086 29.423 2.04819 29.1115 2.00809 28.7736L1.99829 28.6112V3.3888C1.99829 2.6916 2.54009 2.091 3.23729 2.0098L3.40109 2H18.38Z" fill="url(#paint0_linear_283_180)"/>
<path d="M25.7632 18.8351C24.8442 17.9162 23.5979 17.3999 22.2983 17.3999C20.9988 17.3999 19.7524 17.9162 18.8335 18.8351C17.9146 19.754 17.3983 21.0003 17.3983 22.2999C17.4008 22.3838 17.3456 22.4582 17.2657 22.4838C16.4468 22.7466 15.7379 23.2766 15.2542 23.991C14.7437 24.7449 14.5169 25.6554 14.614 26.5607C14.7112 27.466 15.1261 28.3075 15.7851 28.9359C16.444 29.5643 17.3043 29.9388 18.2131 29.9929L18.4483 29.9999H26.1483L26.3835 29.9929C27.2917 29.9381 28.1512 29.5634 28.8095 28.9353C29.4677 28.3072 29.8823 27.4663 29.9796 26.5616C30.0769 25.657 29.8507 24.7471 29.3411 23.9934C28.8584 23.2796 28.1511 22.7495 27.3336 22.4858C27.2528 22.4597 27.1967 22.3848 27.1983 22.2999C27.1983 21.0003 26.6821 19.754 25.7632 18.8351Z" fill="url(#paint1_linear_283_180)"/>
<defs>
<linearGradient id="paint0_linear_283_180" x1="14.599" y1="30" x2="14.599" y2="2" gradientUnits="userSpaceOnUse">
<stop stop-color="#5570FF"/>
<stop offset="1" stop-color="#4DD3FF"/>
</linearGradient>
<linearGradient id="paint1_linear_283_180" x1="22.2969" y1="29.9999" x2="22.2969" y2="17.3999" gradientUnits="userSpaceOnUse">
<stop stop-color="#5570FF"/>
<stop offset="1" stop-color="#4DD3FF"/>
</linearGradient>
</defs>
</svg>
