<svg width="24" height="24" viewBox="0 0 24 24" fill="none" xmlns="http://www.w3.org/2000/svg">
<path opacity="0.4" d="M18.5952 9.76366C20.3985 11.6 21.795 13.6892 22.8176 15.9873C22.9276 16.2512 23.0265 16.5041 22.9936 16.79C22.9166 17.3178 22.5207 17.5927 21.9819 17.4937C21.4651 17.3728 20.9483 17.2628 20.4425 17.1089C20.1127 16.9989 20.0027 17.1089 19.9257 17.4058C18.7822 21.7161 13.4932 24.1572 8.96294 22.4418C6.57685 21.5182 5.01544 19.8578 4.30072 17.4937C4.19076 17.0539 4.01483 16.9439 3.564 17.1089C3.10217 17.2518 2.61836 17.3508 2.13454 17.4497C1.36484 17.6257 0.837036 17.1199 1.04596 16.3941C1.14492 16.0643 1.29886 15.7454 1.4528 15.4265C2.53039 13.2493 3.94885 11.2701 5.71918 9.54375C6.27996 8.99396 6.60984 8.37819 6.77477 7.66346C6.9727 6.81679 7.13764 5.94812 7.32456 5.11243C7.43452 4.60663 7.59946 4.11181 7.83037 3.639C8.69904 1.89066 10.1834 1.05498 12.1737 1C14.1969 1.07697 15.5934 1.97863 16.3961 3.71597C16.8469 4.62862 16.9459 5.61824 17.1658 6.58587C17.2427 6.95973 17.3197 7.33359 17.4297 7.69645C17.6366 8.47322 18.0377 9.18459 18.5952 9.76366Z" fill="url(#paint0_linear_60_142)"/>
<path d="M12.7345 9.29081C12.9544 9.12587 14.4169 8.29019 14.8787 7.98231C15.3845 7.65243 15.3625 7.22359 14.8237 6.99268C13.0314 6.25596 11.2281 6.20098 9.42482 6.95969C8.84204 7.2016 8.80905 7.63044 9.33685 7.97131C9.79868 8.2682 11.2611 9.10388 11.481 9.27981C11.9098 9.60968 12.3057 9.63168 12.7345 9.29081Z" fill="url(#paint1_linear_60_142)" stroke="url(#paint2_linear_60_142)" stroke-width="2"/>
<defs>
<linearGradient id="paint0_linear_60_142" x1="22.2568" y1="1.62867" x2="13.6792" y2="23.1717" gradientUnits="userSpaceOnUse">
<stop stop-color="#FE0F7C"/>
<stop offset="1" stop-color="#DF0066"/>
</linearGradient>
<linearGradient id="paint1_linear_60_142" x1="15.0313" y1="6.50415" x2="14.3564" y2="9.91326" gradientUnits="userSpaceOnUse">
<stop stop-color="#FE0F7C"/>
<stop offset="1" stop-color="#DF0066"/>
</linearGradient>
<linearGradient id="paint2_linear_60_142" x1="15.0313" y1="6.50415" x2="14.3564" y2="9.91326" gradientUnits="userSpaceOnUse">
<stop stop-color="#FE0F7C"/>
<stop offset="1" stop-color="#DF0066"/>
</linearGradient>
</defs>
</svg>
