<svg width="128" height="128" viewBox="0 0 128 128" fill="none" xmlns="http://www.w3.org/2000/svg">
<path opacity="0.2" d="M104 75.9989C104 86.6076 99.7857 96.7817 92.2843 104.283C84.7828 111.785 74.6087 115.999 64 115.999C53.3913 115.999 43.2172 111.785 35.7157 104.283C28.2143 96.7817 24 86.6076 24 75.9989C24 39.9989 64 11.9989 64 11.9989C64 11.9989 104 39.9989 104 75.9989Z" fill="url(#paint0_linear_114_255)"/>
<path d="M87 27.8739C80.8239 20.7411 73.8727 14.3181 66.275 8.72388C65.6024 8.25273 64.8012 8 63.98 8C63.1588 8 62.3576 8.25273 61.685 8.72388C54.1013 14.3205 47.1636 20.7433 41 27.8739C27.255 43.6589 20 60.2989 20 75.9989C20 87.6684 24.6357 98.86 32.8873 107.112C41.1389 115.363 52.3305 119.999 64 119.999C75.6695 119.999 86.8611 115.363 95.1127 107.112C103.364 98.86 108 87.6684 108 75.9989C108 60.2989 100.745 43.6589 87 27.8739ZM64 111.999C54.4555 111.988 45.3049 108.192 38.5559 101.443C31.8068 94.694 28.0106 85.5434 28 75.9989C28 47.3839 55.735 23.4989 64 16.9989C72.265 23.4989 100 47.3739 100 75.9989C99.9894 85.5434 96.1932 94.694 89.4442 101.443C82.6951 108.192 73.5445 111.988 64 111.999ZM91.945 80.6689C90.9078 86.4624 88.1204 91.7991 83.9582 95.9604C79.796 100.122 74.4587 102.908 68.665 103.944C68.4451 103.979 68.2227 103.998 68 103.999C66.9966 103.999 66.03 103.621 65.2918 102.942C64.5537 102.262 64.0978 101.33 64.0148 100.33C63.9317 99.3301 64.2275 98.3355 64.8434 97.5434C65.4593 96.7514 66.3504 96.2197 67.34 96.0539C75.625 94.6589 82.655 87.6289 84.06 79.3289C84.2377 78.2826 84.8237 77.3498 85.6892 76.7356C86.5547 76.1214 87.6287 75.8762 88.675 76.0539C89.7213 76.2316 90.6541 76.8176 91.2683 77.6831C91.8825 78.5486 92.1277 79.6226 91.95 80.6689H91.945Z" fill="url(#paint1_linear_114_255)"/>
<defs>
<linearGradient id="paint0_linear_114_255" x1="64" y1="115.999" x2="64" y2="11.9989" gradientUnits="userSpaceOnUse">
<stop stop-color="#FD5900"/>
<stop offset="1" stop-color="#FFDE00"/>
</linearGradient>
<linearGradient id="paint1_linear_114_255" x1="64" y1="119.999" x2="64" y2="8" gradientUnits="userSpaceOnUse">
<stop stop-color="#FD5900"/>
<stop offset="1" stop-color="#FFDE00"/>
</linearGradient>
</defs>
</svg>
