<svg width="64" height="64" viewBox="0 0 64 64" fill="none" xmlns="http://www.w3.org/2000/svg">
<path opacity="0.4" fill-rule="evenodd" clip-rule="evenodd" d="M58 13.0151V50.9849C58 55.7331 53.6111 58 50.375 58H13.625C10.3889 58 6 55.7331 6 50.9849V13.0151C6 8.26693 10.3889 6 13.625 6H50.375C53.6111 6 58 8.26694 58 13.0151Z" fill="url(#paint0_linear_54_454)"/>
<path d="M17.1744 19.627C19.5617 18.7562 22.1958 18.7928 24.5621 19.7347C27.5656 20.8995 30.1093 23.5028 31.411 26.7817C31.9546 28.0797 32.2402 29.4891 32.4273 30.904C32.6289 32.3992 32.4434 33.9145 32.1466 35.3769C31.5708 34.9003 31.0385 34.3618 30.5513 33.7721C30.8272 31.4061 30.4432 28.9378 29.4076 26.8529C28.1607 24.2879 25.9864 22.318 23.4959 21.5166C21.9668 20.9817 20.3198 20.9817 18.752 21.281C18.1438 20.8411 17.5486 20.3445 17.1744 19.627Z" fill="url(#paint1_linear_54_454)"/>
<path d="M14.1226 21.283C15.0791 20.6038 16.0888 20.0031 17.1745 19.6271C17.5486 20.3445 18.1439 20.8412 18.752 21.2811C17.5486 21.5842 16.3792 22.0917 15.3452 22.8585C14.8404 22.4623 14.071 22.1173 14.1226 21.283Z" fill="url(#paint2_linear_54_454)"/>
<path d="M11.3934 24.2369C12.1596 23.0976 13.0951 22.1135 14.1226 21.283C14.071 22.1173 14.8404 22.4623 15.3452 22.8585C14.3645 23.5814 13.4935 24.4961 12.7999 25.5622C12.3644 25.0766 11.8934 24.633 11.3934 24.2369Z" fill="url(#paint3_linear_54_454)"/>
<path d="M23.7363 37.7374C25.3509 37.3668 27.0737 37.7099 28.4722 38.6959C30.2643 39.9135 31.5595 41.9035 32.3612 44.0577C32.5338 44.4448 32.4031 44.8774 32.2305 45.2316C31.837 45.5145 31.274 45.6752 30.9046 45.2553C30.532 44.7204 30.361 44.0467 30.0368 43.4772C29.0093 41.447 27.2027 39.6889 25.0445 39.6579C24.8235 38.84 24.0734 38.473 23.7363 37.7374Z" fill="url(#paint4_linear_54_454)"/>
<path d="M18.7697 24.3081C20.7182 23.6672 22.8975 23.9265 24.646 25.1095C26.5929 26.3856 27.9673 28.728 28.2092 31.2638C28.3205 32.1967 28.2382 33.1423 28.0914 34.0643C27.4816 33.3413 26.9317 32.56 26.401 31.7621C26.238 29.1095 24.4169 26.7362 22.1152 26.1976C21.4522 26.0223 20.7634 26.0132 20.0892 26.1063C19.573 25.586 18.9842 25.0913 18.7697 24.3081Z" fill="url(#paint5_linear_54_454)"/>
<path d="M11.3933 24.2368C11.8934 24.633 12.3644 25.0766 12.7999 25.5622C12.0966 26.6412 11.5433 27.8497 11.2239 29.1441C10.8046 28.516 10.3239 27.9447 9.80609 27.4189C10.2255 26.2943 10.7352 25.2098 11.3933 24.2368Z" fill="url(#paint6_linear_54_454)"/>
<path d="M15.6582 26.422C16.5341 25.4562 17.6003 24.7206 18.7697 24.308C18.9842 25.0912 19.573 25.5859 20.0892 26.1062C18.9294 26.318 17.8309 26.9369 16.997 27.8771C16.5696 27.3696 16.1228 26.8839 15.6582 26.422Z" fill="url(#paint7_linear_54_454)"/>
<path d="M13.7775 30.192C14.0969 28.7736 14.7679 27.4791 15.6583 26.4221C16.1229 26.884 16.5697 27.3697 16.997 27.8772C16.0647 28.9415 15.497 30.3856 15.4066 31.8808C14.6437 31.6161 14.363 30.716 13.7775 30.192Z" fill="url(#paint8_linear_54_454)"/>
<path d="M9.51578 28.3773C9.60934 28.056 9.71418 27.7401 9.80613 27.4188C10.3239 27.9446 10.8046 28.516 11.224 29.1441C10.782 30.8017 10.7659 32.5726 10.9933 34.2741C10.2933 33.9181 9.7771 33.2608 9.46094 32.4794C9.30932 32.5744 9.15769 32.6675 9.00768 32.7606C8.95606 31.2801 9.16898 29.8013 9.51578 28.3773Z" fill="url(#paint9_linear_54_454)"/>
<path d="M13.7774 30.1919C14.3629 30.7159 14.6436 31.6159 15.4065 31.8807C15.384 32.7004 15.4776 33.5292 15.7324 34.3014C16.4712 36.7624 18.7019 38.484 20.9909 38.4164C21.9458 38.442 22.825 37.9819 23.7363 37.7373C24.0734 38.473 24.8234 38.84 25.0444 39.6579C24.3799 39.6889 23.7282 39.8605 23.1007 40.1015C20.686 41.0106 17.881 40.3078 16.0002 38.3817C14.1274 36.5342 13.2354 33.5693 13.6564 30.8071C13.6903 30.599 13.7306 30.3946 13.7774 30.1919Z" fill="url(#paint10_linear_54_454)"/>
<path d="M26.4011 31.762C26.9317 32.5598 27.4817 33.3412 28.0915 34.0641C27.8624 34.9897 27.5818 35.9244 27.0752 36.7076C26.6284 37.1695 25.817 36.934 25.5703 36.3187C25.23 35.5885 25.9703 34.997 26.0881 34.3014C26.3559 33.4927 26.4462 32.6219 26.4011 31.762Z" fill="url(#paint11_linear_54_454)"/>
<path d="M9.00769 32.7607C9.1577 32.6675 9.30933 32.5744 9.46095 32.4795C9.77711 33.2608 10.2933 33.9181 10.9933 34.2741C11.003 34.3326 11.024 34.4475 11.0336 34.506C11.5676 37.4142 13.1451 40.0614 15.3662 41.6552C16.3582 42.4274 17.4987 42.8856 18.652 43.2362C18.8988 43.8368 19.2423 44.3753 19.6843 44.8081C19.9037 44.9779 19.923 45.2827 19.9763 45.5493C17.1438 45.2389 14.3791 43.8898 12.3918 41.5566C10.3368 39.2399 9.15447 36.0267 9.00769 32.7607Z" fill="url(#paint12_linear_54_454)"/>
<path d="M30.5514 33.7721C31.0385 34.3618 31.5708 34.9003 32.1466 35.3769C32.0095 36.0761 31.7999 36.7552 31.5611 37.4179C31.4289 37.7958 31.1788 38.1372 30.8304 38.2741C30.1464 38.4895 29.419 37.5475 29.7803 36.8227C30.0819 36.0761 30.3175 35.291 30.453 34.4823C30.4884 34.2449 30.5223 34.0094 30.5514 33.7721Z" fill="url(#paint13_linear_54_454)"/>
<path d="M25.9429 41.8067C26.4881 41.4471 27.0866 41.9784 27.2882 42.5516C27.2317 42.9788 27.0995 43.4243 26.7494 43.6542C26.0123 44.1855 25.1961 44.5634 24.3702 44.8848C23.8976 44.2896 23.3589 43.771 22.8281 43.2435C23.9186 42.9221 24.9848 42.4877 25.9429 41.8067Z" fill="url(#paint14_linear_54_454)"/>
<path d="M18.652 43.2362C20.0311 43.5228 21.4474 43.5064 22.8281 43.2435C23.3589 43.7711 23.8975 44.2896 24.3702 44.8848C22.9491 45.3448 21.4618 45.7063 19.9763 45.5493C19.923 45.2828 19.9036 44.9779 19.6843 44.8081C19.2423 44.3753 18.8988 43.8369 18.652 43.2362Z" fill="url(#paint15_linear_54_454)"/>
<path d="M17.1745 19.627C19.5617 18.7562 22.1959 18.7928 24.5622 19.7347C27.5656 20.8995 30.1094 23.5028 31.4111 26.7817C31.9547 28.0797 32.2402 29.4891 32.4273 30.904C32.6289 32.3992 32.4435 33.9145 32.1466 35.3769M17.1745 19.627C17.5486 20.3445 18.1439 20.8411 18.752 21.281M17.1745 19.627C16.0889 20.0031 15.0791 20.6038 14.1226 21.2829M32.1466 35.3769C31.5708 34.9003 31.0385 34.3618 30.5514 33.7721M32.1466 35.3769C32.0095 36.0761 31.7999 36.7552 31.5611 37.4179C31.4289 37.7958 31.1788 38.1372 30.8304 38.2741C30.1464 38.4895 29.419 37.5474 29.7803 36.8227C30.0819 36.0761 30.3175 35.291 30.453 34.4823C30.4884 34.2449 30.5223 34.0094 30.5514 33.7721M18.752 21.281C20.3198 20.9817 21.9668 20.9817 23.496 21.5166C25.9864 22.318 28.1608 24.2879 29.4077 26.8529C30.4433 28.9378 30.8272 31.4061 30.5514 33.7721M18.752 21.281C17.5486 21.5842 16.3792 22.0916 15.3452 22.8584M14.1226 21.2829C14.071 22.1173 14.8404 22.4622 15.3452 22.8584M14.1226 21.2829C13.0951 22.1135 12.1596 23.0975 11.3934 24.2368M15.3452 22.8584C14.3645 23.5813 13.4935 24.4961 12.7999 25.5622M11.3934 24.2368C11.8934 24.633 12.3644 25.0766 12.7999 25.5622M11.3934 24.2368C10.7352 25.2098 10.2255 26.2943 9.80613 27.4189M12.7999 25.5622C12.0966 26.6412 11.5434 27.8497 11.224 29.1441M9.80613 27.4189C10.3239 27.9447 10.8046 28.516 11.224 29.1441M9.80613 27.4189C9.71418 27.7402 9.60934 28.0561 9.51578 28.3774C9.16898 29.8014 8.95606 31.2801 9.00768 32.7607M11.224 29.1441C10.782 30.8018 10.7659 32.5726 10.9933 34.2741M23.7363 37.7374C25.3509 37.3668 27.0736 37.7099 28.4722 38.6959C30.2643 39.9135 31.5595 41.9035 32.3611 44.0577C32.5338 44.4448 32.4031 44.8774 32.2305 45.2316C31.837 45.5145 31.274 45.6752 30.9046 45.2553C30.532 44.7205 30.361 44.0467 30.0368 43.4772C29.0093 41.447 27.2027 39.6889 25.0445 39.6579M23.7363 37.7374C24.0734 38.473 24.8235 38.84 25.0445 39.6579M23.7363 37.7374C22.825 37.982 21.9458 38.442 20.9909 38.4165C18.702 38.484 16.4712 36.7625 15.7324 34.3015C15.4776 33.5293 15.3841 32.7004 15.4066 31.8807M25.0445 39.6579C24.3799 39.6889 23.7282 39.8606 23.1007 40.1015C20.686 41.0107 17.881 40.3079 16.0002 38.3818C14.1275 36.5343 13.2355 33.5694 13.6565 30.8072C13.6903 30.5991 13.7306 30.3947 13.7774 30.192M15.4066 31.8807C15.4969 30.3855 16.0647 28.9414 16.997 27.8771M15.4066 31.8807C14.6436 31.616 14.3629 30.7159 13.7774 30.192M13.7774 30.192C14.0968 28.7735 14.7678 27.4791 15.6582 26.422M18.7698 24.308C20.7183 23.6671 22.8975 23.9264 24.646 25.1094C26.593 26.3855 27.9673 28.7279 28.2092 31.2637C28.3205 32.1966 28.2383 33.1422 28.0915 34.0642M18.7698 24.308C18.9842 25.0912 19.573 25.586 20.0892 26.1062M18.7698 24.308C17.6003 24.7206 16.5341 25.4563 15.6582 26.422M28.0915 34.0642C27.4817 33.3412 26.9317 32.5599 26.4011 31.762M28.0915 34.0642C27.8624 34.9897 27.5818 35.9245 27.0752 36.7077C26.6284 37.1696 25.817 36.9341 25.5703 36.3188C25.23 35.5886 25.9703 34.9971 26.0881 34.3015C26.3559 33.4928 26.4462 32.6219 26.4011 31.762M20.0892 26.1062C20.7634 26.0131 21.4522 26.0222 22.1152 26.1975C24.4169 26.7361 26.2381 29.1094 26.4011 31.762M20.0892 26.1062C18.9294 26.318 17.8309 26.9369 16.997 27.8771M15.6582 26.422C16.1228 26.8839 16.5696 27.3696 16.997 27.8771M10.9933 34.2741C10.2933 33.9182 9.7771 33.2609 9.46094 32.4795C9.30932 32.5744 9.15769 32.6676 9.00768 32.7607M10.9933 34.2741C11.003 34.3326 11.024 34.4476 11.0336 34.506C11.5676 37.4142 13.1451 40.0614 15.3662 41.6552C16.3582 42.4274 17.4987 42.8856 18.652 43.2362M9.00768 32.7607C9.15446 36.0267 10.3368 39.2399 12.3918 41.5566C14.3791 43.8898 17.1438 45.2389 19.9763 45.5493M18.652 43.2362C18.8988 43.8369 19.2423 44.3753 19.6843 44.8081C19.9037 44.9779 19.923 45.2827 19.9763 45.5493M18.652 43.2362C20.0311 43.5228 21.4474 43.5064 22.8281 43.2435M19.9763 45.5493C21.4619 45.7063 22.9491 45.3448 24.3702 44.8848M22.8281 43.2435C23.9186 42.9221 24.9848 42.4876 25.9429 41.8067C26.4881 41.4471 27.0865 41.9784 27.2882 42.5516C27.2317 42.9788 27.0995 43.4242 26.7494 43.6542C26.0123 44.1855 25.1961 44.5634 24.3702 44.8848M22.8281 43.2435C23.3589 43.771 23.8976 44.2896 24.3702 44.8848" stroke="url(#paint16_linear_54_454)" stroke-width="2"/>
<path d="M40.8088 20.6421C40.8667 20.1185 41.3324 19.6657 41.894 19.6674C43.3382 19.6553 44.7822 19.6622 46.2262 19.6639C46.8024 19.6346 47.3695 20.0736 47.3877 20.6387C47.4257 22.2217 47.3859 23.8048 47.4058 25.3895C48.5708 25.3705 49.7358 25.3705 50.9028 25.3809C51.5042 25.3826 52.0678 25.8803 52.0497 26.468C52.0605 27.9732 52.0514 29.4802 52.0533 30.9855C52.104 31.5644 51.5568 32.1693 50.9245 32.0846C50.3301 32.0881 49.9261 31.5057 49.9605 30.9785C49.9515 29.774 49.966 28.5677 49.9551 27.3632C48.7665 27.3752 47.5779 27.3926 46.393 27.3614C45.8313 27.3649 45.2949 26.8689 45.3457 26.3228C45.3348 24.7812 45.3475 23.2379 45.3421 21.6946C44.4814 21.6964 43.6226 21.7016 42.762 21.6894C42.396 23.4297 41.8433 25.2616 40.4608 26.5267C39.9898 26.9881 39.3502 27.2146 38.7904 27.5498C38.0311 28.1738 37.9677 29.2159 37.9478 30.1041C38.6327 30.1214 39.3285 30.0402 40.0061 30.1629C40.5623 30.2579 40.8757 30.8196 40.8576 31.3225C40.8631 33.6245 40.8613 35.9264 40.8576 38.2267C40.7453 39.8305 41.6531 41.4049 42.9576 42.3779C44.2876 43.3543 46.0577 43.439 47.6649 43.2818C48.7285 43.1868 49.8826 42.988 50.7052 42.2898C50.3374 41.5207 50.0113 40.7361 49.658 39.9619C48.8136 40.1347 47.9095 40.3473 47.0797 40.0016C45.9545 39.6352 45.2913 38.4705 45.3439 37.373C45.3457 35.2957 45.333 33.2184 45.3494 31.141C45.3131 30.4843 46.1375 30.0194 46.748 30.2821C47.2047 30.4152 47.4077 30.9008 47.4003 31.3242C47.4113 33.2823 47.3913 35.2404 47.4077 37.2002C47.4311 37.5354 47.4474 38.0124 47.8516 38.1386C48.5491 38.2388 49.2268 37.9813 49.8536 37.7187C50.3936 37.4732 51.0204 37.8499 51.2162 38.346C51.8123 39.6214 52.3432 40.9227 52.9266 42.2051C53.1839 42.7253 52.7073 43.2075 52.3831 43.5808C51.0531 44.851 49.1089 45.1431 47.3279 45.3833C45.7479 45.5059 44.1244 45.2243 42.6985 44.5623C40.526 43.5341 39.0857 41.3652 38.7468 39.1099C38.7251 36.7681 38.7523 34.4264 38.7324 32.0864C38.0311 32.0778 37.3191 32.1572 36.6251 32.038C35.913 31.7442 35.8822 30.9025 35.837 30.2701C35.7898 28.7959 36.1287 27.154 37.3245 26.1223C37.8843 25.5796 38.7595 25.4603 39.2542 24.8451C40.2525 23.6562 40.5605 22.1059 40.8088 20.6421Z" fill="url(#paint17_linear_54_454)" stroke="url(#paint18_linear_54_454)"/>
<defs>
<linearGradient id="paint0_linear_54_454" x1="32" y1="58" x2="32" y2="6" gradientUnits="userSpaceOnUse">
<stop stop-color="#00B59C"/>
<stop offset="1" stop-color="#9CFFAC"/>
</linearGradient>
<linearGradient id="paint1_linear_54_454" x1="20.7559" y1="45.5865" x2="20.7559" y2="19" gradientUnits="userSpaceOnUse">
<stop stop-color="#02AA93"/>
<stop offset="1" stop-color="#67FF80"/>
</linearGradient>
<linearGradient id="paint2_linear_54_454" x1="20.7559" y1="45.5866" x2="20.7559" y2="19" gradientUnits="userSpaceOnUse">
<stop stop-color="#02AA93"/>
<stop offset="1" stop-color="#67FF80"/>
</linearGradient>
<linearGradient id="paint3_linear_54_454" x1="20.7559" y1="45.5866" x2="20.7559" y2="19" gradientUnits="userSpaceOnUse">
<stop stop-color="#02AA93"/>
<stop offset="1" stop-color="#67FF80"/>
</linearGradient>
<linearGradient id="paint4_linear_54_454" x1="20.7559" y1="45.5865" x2="20.7559" y2="19" gradientUnits="userSpaceOnUse">
<stop stop-color="#02AA93"/>
<stop offset="1" stop-color="#67FF80"/>
</linearGradient>
<linearGradient id="paint5_linear_54_454" x1="20.7559" y1="45.5866" x2="20.7559" y2="19.0001" gradientUnits="userSpaceOnUse">
<stop stop-color="#02AA93"/>
<stop offset="1" stop-color="#67FF80"/>
</linearGradient>
<linearGradient id="paint6_linear_54_454" x1="20.7559" y1="45.5865" x2="20.7559" y2="19" gradientUnits="userSpaceOnUse">
<stop stop-color="#02AA93"/>
<stop offset="1" stop-color="#67FF80"/>
</linearGradient>
<linearGradient id="paint7_linear_54_454" x1="20.7559" y1="45.5865" x2="20.7559" y2="19" gradientUnits="userSpaceOnUse">
<stop stop-color="#02AA93"/>
<stop offset="1" stop-color="#67FF80"/>
</linearGradient>
<linearGradient id="paint8_linear_54_454" x1="20.756" y1="45.5866" x2="20.756" y2="19.0001" gradientUnits="userSpaceOnUse">
<stop stop-color="#02AA93"/>
<stop offset="1" stop-color="#67FF80"/>
</linearGradient>
<linearGradient id="paint9_linear_54_454" x1="20.7559" y1="45.5865" x2="20.7559" y2="18.9999" gradientUnits="userSpaceOnUse">
<stop stop-color="#02AA93"/>
<stop offset="1" stop-color="#67FF80"/>
</linearGradient>
<linearGradient id="paint10_linear_54_454" x1="20.7559" y1="45.5864" x2="20.7559" y2="18.9999" gradientUnits="userSpaceOnUse">
<stop stop-color="#02AA93"/>
<stop offset="1" stop-color="#67FF80"/>
</linearGradient>
<linearGradient id="paint11_linear_54_454" x1="20.7559" y1="45.5864" x2="20.7559" y2="18.9999" gradientUnits="userSpaceOnUse">
<stop stop-color="#02AA93"/>
<stop offset="1" stop-color="#67FF80"/>
</linearGradient>
<linearGradient id="paint12_linear_54_454" x1="20.7559" y1="45.5865" x2="20.7559" y2="19" gradientUnits="userSpaceOnUse">
<stop stop-color="#02AA93"/>
<stop offset="1" stop-color="#67FF80"/>
</linearGradient>
<linearGradient id="paint13_linear_54_454" x1="20.7559" y1="45.5865" x2="20.7559" y2="19" gradientUnits="userSpaceOnUse">
<stop stop-color="#02AA93"/>
<stop offset="1" stop-color="#67FF80"/>
</linearGradient>
<linearGradient id="paint14_linear_54_454" x1="20.7559" y1="45.5865" x2="20.7559" y2="19" gradientUnits="userSpaceOnUse">
<stop stop-color="#02AA93"/>
<stop offset="1" stop-color="#67FF80"/>
</linearGradient>
<linearGradient id="paint15_linear_54_454" x1="20.7559" y1="45.5865" x2="20.7559" y2="19" gradientUnits="userSpaceOnUse">
<stop stop-color="#02AA93"/>
<stop offset="1" stop-color="#67FF80"/>
</linearGradient>
<linearGradient id="paint16_linear_54_454" x1="20.7559" y1="45.5865" x2="20.7559" y2="19" gradientUnits="userSpaceOnUse">
<stop stop-color="#02AA93"/>
<stop offset="1" stop-color="#67FF80"/>
</linearGradient>
<linearGradient id="paint17_linear_54_454" x1="44.4164" y1="45.4113" x2="44.4164" y2="19.6604" gradientUnits="userSpaceOnUse">
<stop stop-color="#02AA93"/>
<stop offset="1" stop-color="#67FF80"/>
</linearGradient>
<linearGradient id="paint18_linear_54_454" x1="44.4164" y1="45.4113" x2="44.4164" y2="19.6604" gradientUnits="userSpaceOnUse">
<stop stop-color="#02AA93"/>
<stop offset="1" stop-color="#67FF80"/>
</linearGradient>
</defs>
</svg>
