<svg width="96" height="96" viewBox="0 0 96 96" fill="none" xmlns="http://www.w3.org/2000/svg">
<path opacity="0.4" fill-rule="evenodd" clip-rule="evenodd" d="M45.7073 4H50C71.9297 4 89.7073 21.7776 89.7073 43.7073V53.3659C89.7073 74.7029 72.4102 92 51.0732 92H44.6341C23.2971 92 6 74.7029 6 53.3659V43.7073C6 21.7776 23.7776 4 45.7073 4Z" fill="url(#paint0_linear_81_254)"/>
<path fill-rule="evenodd" clip-rule="evenodd" d="M47.961 15.6586C62.2061 15.6586 72.7513 30.0001 72.7513 46.8234C72.7513 58.2115 67.9192 68.4624 60.3785 73.8973C59.37 74.6242 59.1071 76.0636 59.9029 77.0187L65.0599 83.2075C66.1453 84.5102 65.219 86.4878 63.5234 86.4878H59.4987C58.9187 86.4878 58.3672 86.236 57.9873 85.7976L51.7437 78.593C51.2957 78.076 50.6151 77.831 49.9341 77.8955C49.2849 77.957 48.627 77.9883 47.961 77.9883C33.716 77.9883 23.1708 63.6468 23.1708 46.8234C23.1708 30.0001 33.716 15.6586 47.961 15.6586ZM47.961 22.7415C38.1815 22.7415 30.2537 33.5234 30.2537 46.8234C30.2537 60.1235 38.1815 70.9054 47.961 70.9054C57.7405 70.9054 65.6683 60.1235 65.6683 46.8234C65.6683 33.5234 57.7405 22.7415 47.961 22.7415ZM48.6693 32.6576C51.7987 32.6576 54.3357 35.1945 54.3357 38.3239V56.7395C54.3357 59.869 51.7987 62.4059 48.6693 62.4059C45.5399 62.4059 43.003 59.869 43.003 56.7395V38.3239C43.003 35.1945 45.5399 32.6576 48.6693 32.6576Z" fill="url(#paint1_linear_81_254)"/>
<defs>
<linearGradient id="paint0_linear_81_254" x1="47.8537" y1="92" x2="47.8537" y2="4" gradientUnits="userSpaceOnUse">
<stop stop-color="#00B59C"/>
<stop offset="1" stop-color="#9CFFAC"/>
</linearGradient>
<linearGradient id="paint1_linear_81_254" x1="47.961" y1="86.4878" x2="47.961" y2="15.6586" gradientUnits="userSpaceOnUse">
<stop stop-color="#00B59C"/>
<stop offset="1" stop-color="#9CFFAC"/>
</linearGradient>
</defs>
</svg>
