<svg width="32" height="32" viewBox="0 0 32 32" fill="none" xmlns="http://www.w3.org/2000/svg">
<path opacity="0.4" d="M25.3783 16.4362C25.3783 22.8921 20.1451 28.1254 13.6891 28.1254C7.23323 28.1254 2 22.8921 2 16.4362C2 9.9803 7.23323 4.74707 13.6891 4.74707C20.1451 4.74707 25.3783 9.9803 25.3783 16.4362Z" fill="url(#paint0_linear_297_215)"/>
<path d="M29.4381 4.43675C29.7979 4.79691 29.9999 5.28513 29.9999 5.79415C29.9999 6.30318 29.7979 6.79139 29.4381 7.15155L16.6324 19.9572C16.2723 20.3168 15.7842 20.519 15.2751 20.519C14.7661 20.519 14.2779 20.3168 13.9177 19.9572L8.79546 14.8349C8.60673 14.6591 8.45537 14.4469 8.35038 14.2113C8.24539 13.9757 8.18895 13.7214 8.18438 13.4636C8.17984 13.2056 8.22729 12.9495 8.32389 12.7102C8.4205 12.471 8.56429 12.2537 8.74668 12.0714C8.9291 11.889 9.14637 11.7452 9.38554 11.6485C9.62471 11.552 9.8809 11.5045 10.1388 11.5091C10.3968 11.5136 10.6511 11.5702 10.8867 11.6751C11.1223 11.7801 11.3344 11.9314 11.5103 12.1201L15.2751 15.885L20.9992 10.1583L26.7233 4.43675C27.0835 4.07705 27.5718 3.875 28.0806 3.875C28.5897 3.875 29.078 4.07705 29.4381 4.43675Z" fill="url(#paint1_linear_297_215)" stroke="url(#paint2_linear_297_215)"/>
<defs>
<linearGradient id="paint0_linear_297_215" x1="13.6891" y1="28.1254" x2="13.6891" y2="4.74707" gradientUnits="userSpaceOnUse">
<stop stop-color="#02AA93"/>
<stop offset="1" stop-color="#67FF80"/>
</linearGradient>
<linearGradient id="paint1_linear_297_215" x1="8.18408" y1="12.197" x2="29.9999" y2="12.197" gradientUnits="userSpaceOnUse">
<stop stop-color="#02AA93"/>
<stop offset="1" stop-color="#67FF80"/>
</linearGradient>
<linearGradient id="paint2_linear_297_215" x1="8.18408" y1="12.197" x2="29.9999" y2="12.197" gradientUnits="userSpaceOnUse">
<stop stop-color="#02AA93"/>
<stop offset="1" stop-color="#67FF80"/>
</linearGradient>
</defs>
</svg>
