<svg width="24" height="24" viewBox="0 0 24 24" fill="none" xmlns="http://www.w3.org/2000/svg">
<path opacity="0.4" d="M1 16C1 12.7007 1 11.0498 1.9669 10.0255C2.9327 9 4.4892 9 7.6 9H16.4C19.5108 9 21.0673 9 22.0331 10.0255C23 11.0498 23 12.7007 23 16C23 19.2993 23 20.9502 22.0331 21.9745C21.0673 23 19.5108 23 16.4 23H7.6C4.4892 23 2.9327 23 1.9669 21.9745C1 20.9502 1 19.2993 1 16Z" fill="url(#paint0_linear_8_552)"/>
<path d="M7.85185 17C8.12689 17 8.39067 16.893 8.58515 16.7025C8.77963 16.5119 8.88889 16.2536 8.88889 15.9841C8.88889 15.7147 8.77963 15.4563 8.58515 15.2658C8.39067 15.0753 8.12689 14.9683 7.85185 14.9683C7.57681 14.9683 7.31304 15.0753 7.11856 15.2658C6.92407 15.4563 6.81481 15.7147 6.81481 15.9841C6.81481 16.2536 6.92407 16.5119 7.11856 16.7025C7.31304 16.893 7.57681 17 7.85185 17ZM12 17C12.275 17 12.5388 16.893 12.7333 16.7025C12.9278 16.5119 13.037 16.2536 13.037 15.9841C13.037 15.7147 12.9278 15.4563 12.7333 15.2658C12.5388 15.0753 12.275 14.9683 12 14.9683C11.725 14.9683 11.4612 15.0753 11.2667 15.2658C11.0722 15.4563 10.963 15.7147 10.963 15.9841C10.963 16.2536 11.0722 16.5119 11.2667 16.7025C11.4612 16.893 11.725 17 12 17ZM17.1852 15.9841C17.1852 16.2536 17.0759 16.5119 16.8814 16.7025C16.687 16.893 16.4232 17 16.1481 17C15.8731 17 15.6093 16.893 15.4149 16.7025C15.2204 16.5119 15.1111 16.2536 15.1111 15.9841C15.1111 15.7147 15.2204 15.4563 15.4149 15.2658C15.6093 15.0753 15.8731 14.9683 16.1481 14.9683C16.4232 14.9683 16.687 15.0753 16.8814 15.2658C17.0759 15.4563 17.1852 15.7147 17.1852 15.9841ZM6.55556 7.85714C6.55556 6.44266 7.12916 5.0861 8.1502 4.08591C9.17123 3.08571 10.556 2.52381 12 2.52381C13.444 2.52381 14.8288 3.08571 15.8498 4.08591C16.8708 5.0861 17.4444 6.44266 17.4444 7.85714V9.14593C17.4444 9.55954 17.8284 9.89484 18.2419 9.90712V9.90712C18.6791 9.9201 19 9.57155 19 9.13413V7.85714C19 6.03852 18.2625 4.29437 16.9497 3.00841C15.637 1.72245 13.8565 1 12 1C10.1435 1 8.36301 1.72245 7.05025 3.00841C5.7375 4.29437 5 6.03852 5 7.85714V9.1405C5 9.57604 5.36795 9.91992 5.80326 9.90588V9.90588C6.21885 9.89247 6.55556 9.55634 6.55556 9.14054V7.85714Z" fill="url(#paint1_linear_8_552)" stroke="url(#paint2_linear_8_552)"/>
<defs>
<linearGradient id="paint0_linear_8_552" x1="3.04651" y1="16" x2="19.2481" y2="16" gradientUnits="userSpaceOnUse">
<stop stop-color="#5570FF"/>
<stop offset="1" stop-color="#4DD3FF"/>
</linearGradient>
<linearGradient id="paint1_linear_8_552" x1="6.30233" y1="8.99999" x2="16.6124" y2="8.99999" gradientUnits="userSpaceOnUse">
<stop stop-color="#5570FF"/>
<stop offset="1" stop-color="#4DD3FF"/>
</linearGradient>
<linearGradient id="paint2_linear_8_552" x1="6.30233" y1="8.99999" x2="16.6124" y2="8.99999" gradientUnits="userSpaceOnUse">
<stop stop-color="#5570FF"/>
<stop offset="1" stop-color="#4DD3FF"/>
</linearGradient>
</defs>
</svg>
