<svg width="64" height="64" viewBox="0 0 64 64" fill="none" xmlns="http://www.w3.org/2000/svg">
<path opacity="0.4" d="M14.9806 51.3629C14.9529 52.1473 14.9585 52.8669 15.0175 53.5051C15.1301 54.7218 15.4974 56.4018 17.0148 57.4195C17.9637 58.0566 19.0011 58.1611 19.8705 58.0792C20.7071 58.0006 21.5547 57.7366 22.3534 57.4263C23.9089 56.8226 25.912 55.7828 28.3262 54.5297L28.4863 54.4466C31.5237 52.8705 34.5544 51.8182 37.0909 51.8182H37.2751C41.9172 51.8182 45.6593 51.8183 48.6022 51.4226C51.657 51.0118 54.2297 50.1326 56.2719 48.0886C58.3159 46.0464 59.1936 43.4752 59.6044 40.4204C60.0001 37.4775 60.0001 33.7354 60 29.0933V28.7249C60.0001 24.0828 60.0001 20.3407 59.6044 17.3978C59.1936 14.3429 58.3159 11.7719 56.2719 9.7296C54.2297 7.68555 51.657 6.80651 48.6022 6.39562C45.6598 5.99988 41.9185 5.99993 37.2776 6H26.7224C22.0814 5.99993 18.3402 5.99988 15.3978 6.39562C12.3429 6.80651 9.77187 7.68403 7.72958 9.72805C5.68555 11.7703 4.80651 14.3429 4.39562 17.3978C3.99988 20.3403 3.99993 24.0816 4 28.7228V29.0954C3.99993 33.7365 3.99988 37.4779 4.39562 40.4204C4.80636 43.4741 5.68495 46.0461 7.7275 48.088C9.67656 50.04 12.1079 50.9301 14.9806 51.3629Z" fill="url(#paint0_linear_42_210)"/>
<path fill-rule="evenodd" clip-rule="evenodd" d="M28.1551 14.4337C27.3689 12.4188 24.3087 12.5659 23.6739 14.6342C23.448 15.7656 23.4768 16.9258 23.5057 18.0845L23.5057 18.085V18.085C23.5131 18.3844 23.5206 18.6837 23.5236 18.9824C23.5289 19.5028 23.1137 19.9214 22.5933 19.9171C22.3914 19.9154 22.1893 19.9117 21.9872 19.908H21.9872L21.9816 19.9079C21.034 19.8903 20.0857 19.8728 19.1551 20.0638C17.171 20.6656 16.9608 23.9465 18.8524 24.8246C19.8158 25.202 20.8453 25.1597 21.871 25.1176L21.8715 25.1176L21.8727 25.1175C22.11 25.1078 22.347 25.0981 22.583 25.0935C23.1043 25.0836 23.5065 25.5164 23.507 26.0379C23.5079 27.0252 23.5079 28.0127 23.5079 29.0004C23.5079 29.986 23.5079 30.9719 23.5088 31.9584C23.5093 32.4827 23.1046 32.9191 22.5803 32.9156C22.2613 32.9135 21.941 32.9026 21.6206 32.8917C20.5419 32.855 19.462 32.8183 18.4237 33.116C16.4101 33.9273 16.5783 37.3419 18.6381 37.9616C19.6624 38.1407 20.7022 38.1185 21.7409 38.0963L21.7466 38.0961C22.0252 38.0902 22.3038 38.0843 22.582 38.0823C23.1036 38.0785 23.5206 38.4976 23.5143 39.0192C23.5116 39.2375 23.5068 39.4562 23.5019 39.675L23.5017 39.6816L23.5017 39.6824C23.4782 40.7358 23.4545 41.792 23.6781 42.8205C24.3339 44.8666 27.3479 44.9914 28.1467 43.0076C28.4723 41.9628 28.4441 40.8573 28.4159 39.7546L28.4159 39.754C28.4097 39.5123 28.4035 39.2707 28.4011 39.0299C28.3957 38.4964 28.8392 38.0822 29.3727 38.0857C30.6843 38.0944 31.9959 38.0928 33.3076 38.0913H33.3076H33.3081L33.4144 38.0911C33.8672 38.0906 34.32 38.0901 34.7728 38.09C35.3148 38.09 35.7572 38.5228 35.7533 39.0648C35.7513 39.3372 35.7471 39.6098 35.7429 39.8824V39.8826L35.7428 39.8911V39.8912C35.7254 41.0157 35.7079 42.14 35.8476 43.2529C36.4068 45.4238 39.614 45.6333 40.396 43.5337C40.6912 42.4092 40.6591 41.2356 40.6269 40.0629L40.6269 40.0619L40.6269 40.0615C40.6169 39.6976 40.6069 39.3338 40.6066 38.9716C40.6063 38.4641 41.0139 38.0615 41.5212 38.0725C41.7385 38.0772 41.9565 38.0854 42.1747 38.0936H42.1747L42.1764 38.0937L42.1769 38.0937H42.1769C43.1865 38.1317 44.2007 38.1698 45.1671 37.8634C47.0966 37.0789 47.0587 33.8249 45.1082 33.0981C44.1424 32.8354 43.1417 32.864 42.1425 32.8926L42.1417 32.8926L42.1411 32.8926C41.9512 32.898 41.7614 32.9034 41.572 32.9068C41.0383 32.9165 40.6188 32.4779 40.6186 31.9442C40.6186 31.7423 40.6185 31.5404 40.6184 31.3386C40.6178 29.578 40.6173 27.8173 40.6233 26.0567C40.6251 25.522 41.0482 25.0844 41.5828 25.0933C41.8339 25.0975 42.0855 25.1051 42.3372 25.1127L42.3381 25.1127L42.3388 25.1127C43.4397 25.146 44.5425 25.1794 45.6127 24.9271C47.664 24.2273 47.6345 20.7369 45.5622 20.0816C44.4966 19.8591 43.4076 19.8865 42.32 19.9139L42.3139 19.9141C42.0584 19.9205 41.803 19.9269 41.5481 19.93C41.0241 19.9365 40.6049 19.5157 40.6121 18.9918C40.6149 18.7814 40.6198 18.5708 40.6246 18.3602L40.6248 18.3542C40.6492 17.3066 40.6734 16.2585 40.4548 15.236C39.8747 13.2211 36.9448 12.976 36.0579 14.8617C35.651 15.8936 35.699 17.0209 35.7468 18.1438L35.7468 18.1442C35.7588 18.4254 35.7708 18.7064 35.7756 18.9855C35.7845 19.5066 35.3536 19.9108 34.8324 19.9131C33.7077 19.9181 32.5836 19.9179 31.4594 19.9178L31.3734 19.9177C30.702 19.9177 30.0306 19.9176 29.359 19.9187C28.8259 19.9195 28.3849 19.5027 28.3894 18.9696C28.392 18.6563 28.4009 18.3418 28.4097 18.0272L28.4098 18.0266C28.4439 16.8122 28.478 15.596 28.1551 14.4337ZM28.4045 30.2989V30.2988C28.4045 28.9003 28.4045 27.502 28.4103 26.1037C28.4126 25.5503 28.865 25.1052 29.4183 25.1081C30.6456 25.1143 31.8736 25.1126 33.1014 25.1109H33.1015L33.1341 25.1108C33.6729 25.1101 34.2116 25.1093 34.7502 25.1092C35.3012 25.1091 35.7476 25.5556 35.7481 26.1066C35.749 27.0715 35.749 28.0364 35.749 29.001C35.749 29.9659 35.749 30.9303 35.7498 31.8943C35.7503 32.4444 35.3068 32.892 34.7567 32.8945C33.2526 32.9014 31.7471 32.9001 30.2412 32.8987C30.1404 32.8986 30.0395 32.8985 29.9386 32.8984C29.7607 32.8983 29.5827 32.8981 29.4047 32.898C28.8518 32.8976 28.4038 32.4489 28.4041 31.896C28.4045 31.3638 28.4045 30.8317 28.4045 30.2995V30.2989Z" fill="url(#paint1_linear_42_210)"/>
<defs>
<linearGradient id="paint0_linear_42_210" x1="32" y1="58.1034" x2="32" y2="6" gradientUnits="userSpaceOnUse">
<stop stop-color="#00B59C"/>
<stop offset="1" stop-color="#9CFFAC"/>
</linearGradient>
<linearGradient id="paint1_linear_42_210" x1="31.7316" y1="63.5084" x2="31.7316" y2="5.63419" gradientUnits="userSpaceOnUse">
<stop stop-color="#02AA93"/>
<stop offset="1" stop-color="#67FF80"/>
</linearGradient>
</defs>
</svg>
