<svg width="192" height="192" viewBox="0 0 192 192" fill="none" xmlns="http://www.w3.org/2000/svg">
<path fill-rule="evenodd" clip-rule="evenodd" d="M107.861 17.0189C120.287 16.6904 132.85 20.6541 142.678 28.2941C150.993 34.6837 157.313 43.4312 161.391 53.0621C161.927 54.3276 163.036 55.2786 164.398 55.4621C165.219 55.5727 166.047 55.6648 166.874 55.7568L166.901 55.7598L166.902 55.7599C169.82 56.084 172.744 56.4088 175.439 57.5394C178.73 59.4612 179.171 64.3222 176.558 67.0014C167.568 78.3739 158.306 89.5316 149.022 100.667C148.798 100.921 148.575 101.185 148.348 101.454L148.255 101.563C146.566 103.566 144.709 105.767 141.875 105.63C138.924 105.833 136.639 103.527 135.554 101.006C128.995 87.8246 122.526 74.5868 116.465 61.1569C114.837 58.2516 116.872 54.0236 120.344 54.0123C122.898 53.9674 125.443 54.1755 127.986 54.3834L127.987 54.3835C129.952 54.5441 131.492 52.7745 130.932 50.8842C128.985 44.3084 125.55 38.1811 120.74 33.2682C119.219 31.5353 117.413 30.1202 115.608 28.7059C113.889 27.3593 115.014 25.4478 116.993 26.3699C129.704 32.2929 139.076 45.3479 140.752 59.2505C140.786 59.5332 140.791 59.8207 140.742 60.101C140.074 63.8816 136.14 63.8191 132.691 63.7643H132.691C131.601 63.747 130.56 63.7305 129.686 63.836L129.685 63.8368L129.696 63.856C133.176 70.0972 136.657 76.3383 140.088 82.6013C141.448 85.0835 144.883 85.4208 146.687 83.2399C146.801 83.1017 146.915 82.9635 147.03 82.8253C150.994 78.0324 154.959 73.2395 159.015 68.5239C159.629 67.8105 159.294 66.7349 158.372 66.5459L158.371 66.5458C155.928 66.0447 153.272 65.5002 152.46 62.8865C152.353 62.5412 152.248 62.1954 152.142 61.8494C152.099 61.7092 152.056 61.569 152.013 61.4287L152.012 61.4269C150.679 57.0651 149.339 52.6832 147.111 48.6765C139.987 34.2404 125.975 23.8514 110.37 20.313C109.423 20.0101 108.417 19.8358 107.409 19.6613C105.009 19.2455 105.425 17.0833 107.861 17.0189ZM44.8743 89.2021C47.6336 85.6977 53.7062 86.6699 55.346 90.7848C62.0972 104.102 68.5543 117.577 74.7853 131.142C76.2464 133.634 75.3295 137.074 72.7229 138.324C72.4466 138.456 72.1439 138.522 71.839 138.552C69.0363 138.824 66.2246 138.54 63.4167 138.256L63.4075 138.255C61.4217 138.054 59.8546 139.824 60.4168 141.739C63.0096 150.571 68.4543 158.518 75.8483 164.039C76.3161 164.436 76.8327 164.798 77.3518 165.162L77.362 165.169C79.1366 166.41 77.9245 167.964 75.946 167.083C62.4732 161.085 52.092 147.868 50.706 133.1C50.6673 132.687 50.6899 132.266 50.8316 131.876C51.9524 128.797 55.4013 128.846 58.5645 128.891L58.5674 128.891C60.0986 128.913 60.9343 127.346 60.1802 126.013C57.1821 120.713 54.2352 115.393 51.316 110.053C49.9562 107.566 46.5133 107.233 44.706 109.417C40.3693 114.658 36.0124 119.889 31.5878 125.053C31.3268 125.357 31.4943 125.828 31.8898 125.896C34.8508 126.404 38.5086 127.032 39.1748 130.464C42.7709 145.07 51.8403 158.601 65.0826 166.062C70.9178 169.386 77.3071 171.67 83.8774 172.981C84.2694 173.07 84.6688 173.147 85.0696 173.224C87.0399 173.603 86.699 175.434 84.6957 175.548C71.0431 176.328 57.1103 171.626 46.7176 162.728C39.3699 156.526 33.7954 148.435 30.0304 139.621C29.4875 138.349 28.3639 137.402 26.9946 137.213C26.2432 137.109 25.4892 137.018 24.7349 136.926L24.5764 136.907C21.8087 136.574 19.0413 136.24 16.3995 135.348C12.8599 133.697 12.057 128.599 14.7484 125.818C24.5868 113.45 34.5609 101.174 44.8743 89.2021Z" fill="url(#paint0_linear_38_312)"/>
<path opacity="0.4" fill-rule="evenodd" clip-rule="evenodd" d="M93.9418 17.1459C92.008 14.7606 88.7286 14.8058 85.958 15.2128C66.5186 17.3154 47.9274 26.2461 34.131 40.1057C19.4978 54.7 10.1118 74.6867 9.00352 95.3742C8.83391 100.111 14.8387 103.287 18.7175 100.642C21.4747 99.1267 21.7923 96.0482 22.0897 93.1656L22.0897 93.1652C22.1716 92.3709 22.252 91.5914 22.3815 90.8637C25.955 63.6533 46.3103 39.6535 72.4217 31.3332C77.8713 29.3987 83.6016 28.6153 89.2903 27.8376L89.2917 27.8374L89.3883 27.8242C89.817 27.7656 90.2455 27.707 90.6736 27.6479C95.2875 26.834 97.1647 20.4468 93.9418 17.1459ZM182.586 96.7554C182.676 92.0296 176.694 88.9209 172.827 91.5775C170.033 93.217 169.731 96.3397 169.441 99.3483L169.438 99.3843V99.3845C169.33 100.492 169.224 101.583 168.993 102.577C164.526 133.201 138.607 159.089 107.972 163.577C106.983 163.797 105.901 163.898 104.803 164L104.801 164C101.767 164.284 98.6097 164.58 96.9576 167.409C94.3453 171.298 97.4099 177.221 102.137 177.21C125.817 175.887 148.547 163.893 163.429 145.5C174.613 131.754 181.67 114.492 182.586 96.7554Z" fill="url(#paint1_linear_38_312)"/>
<defs>
<linearGradient id="paint0_linear_38_312" x1="95.6992" y1="111.004" x2="95.6992" y2="17" gradientUnits="userSpaceOnUse">
<stop stop-color="#5558FF"/>
<stop offset="1" stop-color="#00C0FF"/>
</linearGradient>
<linearGradient id="paint1_linear_38_312" x1="95.7935" y1="177.21" x2="95.7935" y2="15" gradientUnits="userSpaceOnUse">
<stop stop-color="#5570FF"/>
<stop offset="1" stop-color="#4DD3FF"/>
</linearGradient>
</defs>
</svg>
