<svg width="64" height="64" viewBox="0 0 64 64" fill="none" xmlns="http://www.w3.org/2000/svg">
<path opacity="0.4" d="M29.1564 3.88164C30.1799 3.27701 31.346 2.97266 32.527 3.00193C33.6049 3.02742 34.6583 3.32934 35.5923 3.88106L54.5304 15.0837C55.8266 15.8503 56.7988 17.0402 57.3197 18.4273C57.3337 18.4646 57.3451 18.5026 57.354 18.5415C57.6129 19.262 57.7474 20.0248 57.7501 20.7958V43.2026C57.7498 44.36 57.4522 45.4969 56.8872 46.499C56.3222 47.5012 55.5097 48.3334 54.5315 48.912L35.5912 60.1154C34.7501 60.612 33.8122 60.9061 32.8481 60.9785C32.818 60.9832 32.7875 60.9865 32.7564 60.9884C31.5194 61.0637 30.266 60.7731 29.1561 60.1165L10.2181 48.9133C8.22673 47.7354 7 45.5584 7 43.2024V20.7957C6.99985 18.4395 8.22672 16.2623 10.2184 15.0842L29.1564 3.88164Z" fill="url(#paint0_linear_231_78)"/>
<path fill-rule="evenodd" clip-rule="evenodd" d="M57.0623 17.8314L7.89266 46.5529C7.31787 45.5546 7 44.4017 7 43.2024V20.7957C6.99985 18.4395 8.22672 16.2623 10.2184 15.0842L29.1564 3.88164C30.1799 3.27701 31.346 2.97266 32.527 3.00193C33.6049 3.02742 34.6583 3.32934 35.5923 3.88106L54.5304 15.0837C55.6368 15.7381 56.5072 16.7009 57.0623 17.8314Z" fill="url(#paint1_linear_231_78)"/>
<path d="M49.0007 60.8811C47.0875 61.9856 44.6411 61.3301 43.5366 59.417L39.5366 52.4888C38.432 50.5756 39.0875 48.1292 41.0007 47.0246L41.8461 46.5366C43.7592 45.432 46.2056 46.0875 47.3102 48.0007L51.3102 54.9289C52.4147 56.842 51.7592 59.2884 49.8461 60.393L49.0007 60.8811Z" fill="url(#paint2_linear_231_78)"/>
<defs>
<linearGradient id="paint0_linear_231_78" x1="32.3751" y1="61" x2="32.3751" y2="3" gradientUnits="userSpaceOnUse">
<stop stop-color="#5570FF"/>
<stop offset="1" stop-color="#4DD3FF"/>
</linearGradient>
<linearGradient id="paint1_linear_231_78" x1="32.0312" y1="46.5528" x2="32.0312" y2="3" gradientUnits="userSpaceOnUse">
<stop stop-color="#5570FF"/>
<stop offset="1" stop-color="#4DD3FF"/>
</linearGradient>
<linearGradient id="paint2_linear_231_78" x1="45.4234" y1="61.4176" x2="45.4234" y2="46" gradientUnits="userSpaceOnUse">
<stop stop-color="#5570FF"/>
<stop offset="1" stop-color="#4DD3FF"/>
</linearGradient>
</defs>
</svg>
