<svg width="64" height="64" viewBox="0 0 64 64" fill="none" xmlns="http://www.w3.org/2000/svg">
<path d="M11.1538 31.5109C11.5131 30.4485 12.7419 29.8977 13.8745 30.0157C26.1368 30.0433 38.399 29.9725 50.6612 30.0315C51.9359 29.9961 53.0601 31.1135 52.9975 32.3096C53.0393 33.4938 51.9151 34.5915 50.6487 34.5443C47.899 34.5794 45.146 34.5487 42.3956 34.5557C41.8466 34.5571 41.403 35.0026 41.4025 35.5516C41.4013 36.917 41.403 38.2823 41.4037 39.6477C41.404 40.1965 41.8463 40.6429 42.3951 40.6449C45.1422 40.6549 47.8951 40.6128 50.6445 40.6584C51.9066 40.631 53.031 41.7129 52.9975 42.9011C53.0601 44.0972 51.9359 45.2185 50.657 45.183C42.9372 45.2398 35.2136 45.2056 27.4935 45.1959C26.9709 45.1953 26.536 45.5979 26.5404 46.1205C26.5511 47.3927 26.6996 48.6867 26.2998 49.9045C25.5349 51.5923 22.6887 51.5805 21.9448 49.8808C21.5622 48.6706 21.7106 47.3867 21.7254 46.123C21.7316 45.6011 21.2998 45.1964 20.7778 45.1957C18.3268 45.1924 15.8728 45.2251 13.4189 45.183C12.1067 45.2461 10.9531 44.1168 11.0158 42.8933C10.9908 41.6893 12.1358 40.6073 13.4189 40.6584C20.8057 40.6058 28.1925 40.6503 35.583 40.6405C36.1345 40.6398 36.581 40.1924 36.5812 39.6409C36.5818 38.2785 36.5831 36.9162 36.5799 35.5539C36.5787 35.004 36.1328 34.5591 35.5829 34.5582C28.1991 34.5466 20.8153 34.5707 13.4315 34.5443C11.8015 34.6545 10.5519 32.9154 11.1538 31.5109Z" fill="url(#paint0_linear_42_143)"/>
<path opacity="0.4" fill-rule="evenodd" clip-rule="evenodd" d="M56.7277 7.48661C56.3804 6.23333 54.7674 5.67025 53.5635 6.197C47.6897 7.98231 41.8146 9.76594 35.9394 11.5497C26.8232 14.3173 17.7065 17.0851 8.59259 19.8596C5.97243 20.6116 4.02372 23.0347 4.01986 25.6248C4.00158 29.9612 4.00468 34.2975 4.00778 38.6334C4.01057 42.5355 4.01336 46.4373 4.00057 50.3382C3.99671 51.5551 3.99671 52.8193 4.5601 53.9454C5.55568 56.1469 8.01761 57.6617 10.5683 57.6181C24.8498 57.629 39.1353 57.6253 53.4168 57.6181C56.1103 57.6763 58.7073 55.9834 59.5909 53.5894C60.0026 52.6252 60.0004 51.5841 59.9983 50.5587C59.9979 50.3633 59.9975 50.1685 60 49.9749C59.9908 46.1387 59.9922 42.3017 59.9936 38.4647C59.9951 34.3079 59.9966 30.1511 59.9846 25.9953C60.0309 22.8458 57.0981 20.0013 53.7526 19.9613C50.1932 19.9423 46.6338 19.9452 43.075 19.9481C39.8356 19.9508 36.5967 19.9534 33.3586 19.9395C33.2469 19.942 33.1329 19.9425 33.0177 19.9431C32.672 19.9447 32.3153 19.9464 31.9759 20H22.7284C26.2718 18.9247 29.8151 17.849 33.3583 16.7733C40.576 14.582 47.7932 12.3908 55.0105 10.2039C56.2646 9.94596 57.1599 8.66361 56.7277 7.48661Z" fill="url(#paint1_linear_42_143)"/>
<defs>
<linearGradient id="paint0_linear_42_143" x1="52.8755" y1="30.1342" x2="35.9169" y2="63.51" gradientUnits="userSpaceOnUse">
<stop stop-color="#FE7970"/>
<stop offset="1" stop-color="#DC3282"/>
</linearGradient>
<linearGradient id="paint1_linear_42_143" x1="59.8341" y1="6.32728" x2="8.75181" y2="61.2773" gradientUnits="userSpaceOnUse">
<stop stop-color="#FE7970"/>
<stop offset="1" stop-color="#DC3282"/>
</linearGradient>
</defs>
</svg>
