<svg width="24" height="24" viewBox="0 0 24 24" fill="none" xmlns="http://www.w3.org/2000/svg">
<path opacity="0.4" d="M1 14.5203C1 10.5232 1 8.52408 2.24228 7.28286C3.48349 6.04059 5.48258 6.04059 9.4797 6.04059H13.7196C17.7167 6.04059 19.7158 6.04059 20.957 7.28286C22.1993 8.52408 22.1993 10.5232 22.1993 14.5203C22.1993 18.5174 22.1993 20.5165 20.957 21.7577C19.7158 23 17.7167 23 13.7196 23H9.4797C5.48258 23 3.48349 23 2.24228 21.7577C1 20.5165 1 18.5174 1 14.5203Z" fill="url(#paint0_linear_8_807)"/>
<path fill-rule="evenodd" clip-rule="evenodd" d="M7.35975 12.1354C7.04656 12.1354 6.73643 12.197 6.44708 12.3169C6.15773 12.4367 5.89482 12.6124 5.67336 12.8339C5.4519 13.0553 5.27623 13.3183 5.15637 13.6076C5.03652 13.897 4.97483 14.2071 4.97483 14.5203C4.97483 14.8335 5.03652 15.1436 5.15637 15.4329C5.27623 15.7223 5.4519 15.9852 5.67336 16.2067C5.89482 16.4281 6.15773 16.6038 6.44708 16.7236C6.73643 16.8435 7.04656 16.9052 7.35975 16.9052C7.99227 16.9052 8.59888 16.6539 9.04614 16.2067C9.4934 15.7594 9.74466 15.1528 9.74466 14.5203C9.74466 13.8878 9.4934 13.2811 9.04614 12.8339C8.59888 12.3866 7.99227 12.1354 7.35975 12.1354ZM3.38489 14.5203C3.38489 13.4661 3.80367 12.4551 4.5491 11.7096C5.29453 10.9642 6.30555 10.5454 7.35975 10.5454C8.41395 10.5454 9.42497 10.9642 10.1704 11.7096C10.9158 12.4551 11.3346 13.4661 11.3346 14.5203C11.3346 15.5745 10.9158 16.5855 10.1704 17.3309C9.42497 18.0764 8.41395 18.4951 7.35975 18.4951C6.30555 18.4951 5.29453 18.0764 4.5491 17.3309C3.80367 16.5855 3.38489 15.5745 3.38489 14.5203ZM12.3946 11.3404C12.3946 11.1295 12.4783 10.9273 12.6274 10.7783C12.7765 10.6292 12.9787 10.5454 13.1895 10.5454H19.0193C19.2302 10.5454 19.4324 10.6292 19.5815 10.7783C19.7306 10.9273 19.8143 11.1295 19.8143 11.3404C19.8143 11.5512 19.7306 11.7534 19.5815 11.9025C19.4324 12.0516 19.2302 12.1354 19.0193 12.1354H13.1895C12.9787 12.1354 12.7765 12.0516 12.6274 11.9025C12.4783 11.7534 12.3946 11.5512 12.3946 11.3404ZM12.3946 14.5203C12.3946 14.3094 12.4783 14.1072 12.6274 13.9581C12.7765 13.8091 12.9787 13.7253 13.1895 13.7253H19.0193C19.2302 13.7253 19.4324 13.8091 19.5815 13.9581C19.7306 14.1072 19.8143 14.3094 19.8143 14.5203C19.8143 14.7311 19.7306 14.9333 19.5815 15.0824C19.4324 15.2315 19.2302 15.3152 19.0193 15.3152H13.1895C12.9787 15.3152 12.7765 15.2315 12.6274 15.0824C12.4783 14.9333 12.3946 14.7311 12.3946 14.5203ZM12.3946 17.7002C12.3946 17.4893 12.4783 17.2871 12.6274 17.138C12.7765 16.9889 12.9787 16.9052 13.1895 16.9052H19.0193C19.2302 16.9052 19.4324 16.9889 19.5815 17.138C19.7306 17.2871 19.8143 17.4893 19.8143 17.7002C19.8143 17.911 19.7306 18.1132 19.5815 18.2623C19.4324 18.4114 19.2302 18.4951 19.0193 18.4951H13.1895C12.9787 18.4951 12.7765 18.4114 12.6274 18.2623C12.4783 18.1132 12.3946 17.911 12.3946 17.7002Z" fill="url(#paint1_linear_8_807)"/>
<path d="M15.1823 2.48654C15.274 2.43454 15.3545 2.36481 15.419 2.28141C15.4835 2.19801 15.5308 2.1026 15.5581 2.00075C15.5854 1.8989 15.5921 1.79264 15.578 1.68815C15.5638 1.58367 15.529 1.48304 15.4756 1.39214C15.4221 1.30123 15.3511 1.22187 15.2667 1.15866C15.1823 1.09545 15.0862 1.04967 14.9839 1.02397C14.8817 0.998272 14.7753 0.993176 14.6711 1.00898C14.5668 1.02478 14.4668 1.06116 14.3767 1.11601L5.90759 6.09783C6.8022 6.04378 7.86534 6.0406 9.13942 6.0406L15.1812 2.48654H15.1823Z" fill="url(#paint2_linear_8_807)"/>
<defs>
<linearGradient id="paint0_linear_8_807" x1="1.00311" y1="14.269" x2="22.2028" y2="14.269" gradientUnits="userSpaceOnUse">
<stop stop-color="#A93AFF"/>
<stop offset="1" stop-color="#FF81FF"/>
</linearGradient>
<linearGradient id="paint1_linear_8_807" x1="3.38729" y1="14.4025" x2="19.817" y2="14.4025" gradientUnits="userSpaceOnUse">
<stop stop-color="#A93AFF"/>
<stop offset="1" stop-color="#FF81FF"/>
</linearGradient>
<linearGradient id="paint2_linear_8_807" x1="5.90901" y1="3.47338" x2="15.5868" y2="3.47338" gradientUnits="userSpaceOnUse">
<stop stop-color="#A93AFF"/>
<stop offset="1" stop-color="#FF81FF"/>
</linearGradient>
</defs>
</svg>
