<svg width="48" height="48" viewBox="0 0 48 48" fill="none" xmlns="http://www.w3.org/2000/svg">
<path opacity="0.4" d="M24 45C36.1503 45 46 35.1503 46 23C46 10.8497 36.1503 1 24 1C11.8497 1 2 10.8497 2 23C2 35.1503 11.8497 45 24 45Z" fill="url(#paint0_linear_122_71)"/>
<path fill-rule="evenodd" clip-rule="evenodd" d="M26.8646 44.8152C25.927 44.9371 24.9708 45 24 45C14.1158 45 5.75398 38.4816 2.97882 29.5091C6.5586 28.7423 9.54722 27.2925 11.9447 25.1597C11.9942 25.1157 12.0321 25.0583 12.0544 24.9959C15.8996 14.2501 18.1283 8.94685 18.7406 9.08603C18.8049 9.10065 18.8226 9.18106 18.8294 9.24663C19.0218 11.0979 19.2895 12.2026 19.6327 12.5607C19.7552 12.6885 19.9271 12.5721 19.9797 12.403C21.0428 8.98079 22.4708 7.18426 24.2636 7.01347C24.5579 6.98544 24.719 7.31152 24.5723 7.5681C23.8516 8.82829 23.542 9.85591 23.6433 10.651C23.681 10.947 24.0401 10.988 24.2371 10.7638C25.8609 8.91618 28.1544 8.24754 31.1176 8.75789C31.534 8.82961 31.5197 9.40398 31.1116 9.5136C27.2167 10.5598 25.7165 12.4844 26.6112 15.2873C26.6576 15.4327 26.7885 15.5343 26.9397 15.5554C28.8658 15.8238 30.1848 16.6935 30.8967 18.1643C30.9551 18.2849 31.0661 18.3732 31.1974 18.3998C33.5834 18.8832 33.7839 19.9076 31.7989 21.473C31.7367 21.5221 31.6879 21.589 31.6639 21.6645C31.2574 22.9448 31.4684 23.6136 32.297 23.6709C32.3752 23.6763 32.4527 23.6511 32.5192 23.6096C33.8377 22.7873 34.5187 23.3326 34.5624 25.2455C34.5653 25.372 34.6256 25.4917 34.7265 25.5681C37.4678 27.6404 38.4873 29.3718 37.7853 30.7623C37.7042 30.9229 37.3663 31.8555 37.4008 32.0321C37.7421 33.7761 35.9797 34.6522 32.1136 34.6602C32.0784 34.6603 32.0421 34.6651 32.0081 34.6742C29.8507 35.2522 28.0988 35.4286 26.7524 35.2035C26.4273 35.1492 26.1261 35.4628 26.2269 35.7766C27.7937 40.6521 28.0063 43.6649 26.8646 44.8152Z" fill="url(#paint1_linear_122_71)"/>
<defs>
<linearGradient id="paint0_linear_122_71" x1="24" y1="45" x2="24" y2="1" gradientUnits="userSpaceOnUse">
<stop stop-color="#00F0FF"/>
<stop offset="1" stop-color="#85FFF0"/>
</linearGradient>
<linearGradient id="paint1_linear_122_71" x1="20.4894" y1="45" x2="20.4894" y2="7.01178" gradientUnits="userSpaceOnUse">
<stop stop-color="#00F0FF"/>
<stop offset="1" stop-color="#85FFF0"/>
</linearGradient>
</defs>
</svg>
