<svg width="32" height="32" viewBox="0 0 32 32" fill="none" xmlns="http://www.w3.org/2000/svg">
<path opacity="0.45" d="M27.2 2H4.8C3.246 2 2 3.38444 2 5.11111V26.8889C2 28.6156 3.246 30 4.8 30H27.2C28.754 30 30 28.6156 30 26.8889V5.11111C30 3.38444 28.754 2 27.2 2Z" fill="url(#paint0_linear_12_152)"/>
<path d="M10.8571 8H7C5.89543 8 5 8.89543 5 10V15.6C5 16.7046 5.89543 17.6 7 17.6H10.8571C11.9617 17.6 12.8571 16.7046 12.8571 15.6V10C12.8571 8.89543 11.9617 8 10.8571 8Z" fill="url(#paint1_linear_12_152)"/>
<path d="M6.6 24H25.4C26.2837 24 27 23.2837 27 22.4C27 21.5163 26.2837 20.8 25.4 20.8H6.6C5.71634 20.8 5 21.5163 5 22.4C5 23.2837 5.71634 24 6.6 24Z" fill="url(#paint2_linear_12_152)"/>
<path d="M17.6 17.6H25.4C26.2837 17.6 27 16.8837 27 16C27 15.1163 26.2837 14.4 25.4 14.4H17.6C16.7163 14.4 16 15.1163 16 16C16 16.8837 16.7163 17.6 17.6 17.6Z" fill="url(#paint3_linear_12_152)"/>
<path d="M17.6 11.2H25.4C26.2837 11.2 27 10.4837 27 9.6C27 8.71634 26.2837 8 25.4 8H17.6C16.7163 8 16 8.71634 16 9.6C16 10.4837 16.7163 11.2 17.6 11.2Z" fill="url(#paint4_linear_12_152)"/>
<defs>
<linearGradient id="paint0_linear_12_152" x1="16" y1="30" x2="16" y2="2" gradientUnits="userSpaceOnUse">
<stop stop-color="#02AA93"/>
<stop offset="1" stop-color="#67FF80"/>
</linearGradient>
<linearGradient id="paint1_linear_12_152" x1="16" y1="24" x2="16" y2="8" gradientUnits="userSpaceOnUse">
<stop stop-color="#02AA93"/>
<stop offset="1" stop-color="#67FF80"/>
</linearGradient>
<linearGradient id="paint2_linear_12_152" x1="16" y1="24" x2="16" y2="8" gradientUnits="userSpaceOnUse">
<stop stop-color="#02AA93"/>
<stop offset="1" stop-color="#67FF80"/>
</linearGradient>
<linearGradient id="paint3_linear_12_152" x1="16" y1="24" x2="16" y2="8" gradientUnits="userSpaceOnUse">
<stop stop-color="#02AA93"/>
<stop offset="1" stop-color="#67FF80"/>
</linearGradient>
<linearGradient id="paint4_linear_12_152" x1="16" y1="24" x2="16" y2="8" gradientUnits="userSpaceOnUse">
<stop stop-color="#02AA93"/>
<stop offset="1" stop-color="#67FF80"/>
</linearGradient>
</defs>
</svg>
