<svg width="16" height="16" viewBox="0 0 16 16" fill="none" xmlns="http://www.w3.org/2000/svg">
<path opacity="0.4" d="M13.9159 7.25991C13.4497 6.71724 12.6439 7.09359 12.3316 7.73731C12.2893 7.82456 12.2439 7.9111 12.1955 7.99682L12.0559 8.24441C11.8679 8.57772 11.971 8.992 12.1631 9.32299V9.32299C12.278 9.52204 12.3526 9.74179 12.3826 9.96969C12.4126 10.1976 12.3974 10.4292 12.3379 10.6512C12.2784 10.8732 12.1757 11.0813 12.0358 11.2637C11.8958 11.446 11.7213 11.599 11.5222 11.7138C11.1373 11.9356 10.6824 12.0027 10.2498 11.9014C9.81843 11.8005 9.44143 11.5396 9.19485 11.1717C9.19354 11.1697 9.19176 11.1681 9.18966 11.1671V11.1671C9.18729 11.1659 9.18532 11.164 9.184 11.1617L9.13304 11.073L8.47786 9.9385C8.29675 9.62491 7.96025 9.43373 7.59815 9.43871L7.24693 9.44354C6.90211 9.44828 6.58407 9.63035 6.40538 9.92529L6.21694 10.2364C6.02762 10.5488 6.0238 10.9397 6.20697 11.2558L6.81396 12.3034C8.04789 14.4407 10.7427 15.1946 12.8347 13.9868C14.9268 12.7789 15.6238 10.0657 14.3899 7.92846C14.2502 7.6865 14.091 7.4637 13.9159 7.25991Z" fill="url(#paint0_linear_297_218)"/>
<path opacity="0.8" d="M8.48875 1.4561C6.79437 1.29999 5.07221 2.13319 4.18554 3.70341C4.08307 3.88488 3.99584 4.07021 3.92306 4.2581C3.66475 4.92497 4.38377 5.44422 5.0969 5.39048C5.21972 5.38123 5.3438 5.3765 5.46899 5.3765H5.84853C6.1279 5.3765 6.38356 5.17831 6.52001 4.93452V4.93452C6.9833 4.11547 8.04112 3.81641 8.88352 4.26631C9.68595 4.69571 10.0091 5.56867 9.62356 6.37601C9.62241 6.3784 9.6218 6.38104 9.6218 6.38369V6.38369C9.6218 6.38666 9.62106 6.38958 9.61963 6.39218L9.57224 6.47879L8.95956 7.56364C8.77719 7.88657 8.78851 8.2839 8.98897 8.59592L9.1536 8.85217C9.33779 9.13887 9.6553 9.31204 9.99607 9.31165L10.3682 9.31123C10.7286 9.31082 11.0609 9.11652 11.238 8.80264L11.8144 7.78103C12.9966 5.6874 12.248 3.0774 10.1413 1.95171C9.61463 1.67026 9.05354 1.50814 8.48875 1.4561Z" fill="url(#paint1_linear_297_218)"/>
<path d="M7.55726 6.33088C7.3813 6.01118 7.04516 5.81271 6.68024 5.81306L5.46898 5.81421C3.00111 5.81421 1 7.77187 1 10.1875C1 12.6033 3.00111 14.5625 5.46898 14.5625C5.75054 14.5625 6.02522 14.5358 6.2913 14.4854C6.99338 14.3527 7.07217 13.4685 6.66357 12.8824C6.58286 12.7666 6.5064 12.6464 6.43455 12.5219L6.35549 12.3855C6.1645 12.0558 5.75599 11.9363 5.37498 11.9375V11.9375C4.91086 11.9375 4.46574 11.7531 4.13755 11.4249C3.80936 11.0967 3.62499 10.6516 3.62499 10.1875C3.62537 9.74314 3.79476 9.31558 4.0988 8.99154C4.40193 8.66848 4.81625 8.47245 5.25816 8.44288C5.26079 8.44271 5.26331 8.44178 5.26542 8.4402V8.4402C5.26776 8.43844 5.27061 8.43749 5.27354 8.43749H5.37498H6.68534C7.04755 8.43749 7.38145 8.24162 7.5582 7.92546L7.72929 7.61943C7.89766 7.31826 7.89887 6.95156 7.7325 6.64928L7.55726 6.33088Z" fill="url(#paint2_linear_297_218)"/>
<defs>
<linearGradient id="paint0_linear_297_218" x1="10.455" y1="14.5626" x2="10.455" y2="6.2998" gradientUnits="userSpaceOnUse">
<stop stop-color="#5570FF"/>
<stop offset="1" stop-color="#4DD3FF"/>
</linearGradient>
<linearGradient id="paint1_linear_297_218" x1="8.00511" y1="9.31227" x2="8.00511" y2="1.4375" gradientUnits="userSpaceOnUse">
<stop stop-color="#5570FF"/>
<stop offset="1" stop-color="#4DD3FF"/>
</linearGradient>
<linearGradient id="paint2_linear_297_218" x1="4.49999" y1="14.5625" x2="4.49999" y2="5.8125" gradientUnits="userSpaceOnUse">
<stop stop-color="#5570FF"/>
<stop offset="1" stop-color="#4DD3FF"/>
</linearGradient>
</defs>
</svg>
