<svg width="24" height="24" viewBox="0 0 24 24" fill="none" xmlns="http://www.w3.org/2000/svg">
<path opacity="0.5" d="M1 9.79757C0.999903 9.007 1.1703 8.2257 1.49957 7.50696C1.82885 6.78822 2.30925 6.14895 2.90802 5.63274C3.50679 5.11652 4.20985 4.73551 4.96924 4.51568C5.72864 4.29585 6.52651 4.24238 7.30845 4.35891C7.64097 3.37951 8.27191 2.52885 9.11267 1.92641C9.95342 1.32397 10.9618 1 11.9961 1C13.0304 1 14.0387 1.32397 14.8795 1.92641C15.7202 2.52885 16.3512 3.37951 16.6837 4.35891C18.0033 4.16031 19.3501 4.44841 20.4729 5.1695C21.5958 5.89059 22.418 6.99544 22.7864 8.27804C23.1547 9.56064 23.044 10.9334 22.475 12.1404C21.9059 13.3475 20.9172 14.3063 19.6933 14.8382V18.5944C19.6933 20.6683 19.6933 21.7041 19.049 22.3485C18.4046 22.9929 17.3688 22.9929 15.2949 22.9929H8.69725C6.62339 22.9929 5.58756 22.9929 4.94319 22.3485C4.29882 21.7041 4.29882 20.6683 4.29882 18.5944V14.8382C3.31818 14.41 2.48375 13.7051 1.8978 12.8098C1.31185 11.9144 0.999835 10.8676 1 9.79757Z" fill="url(#paint0_linear_8_282)"/>
<path d="M8.69726 17.7698C8.47854 17.7698 8.26877 17.8567 8.11411 18.0113C7.95945 18.166 7.87256 18.3758 7.87256 18.5945C7.87256 18.8132 7.95945 19.023 8.11411 19.1776C8.26877 19.3323 8.47854 19.4192 8.69726 19.4192H15.2949C15.5136 19.4192 15.7234 19.3323 15.8781 19.1776C16.0327 19.023 16.1196 18.8132 16.1196 18.5945C16.1196 18.3758 16.0327 18.166 15.8781 18.0113C15.7234 17.8567 15.5136 17.7698 15.2949 17.7698H8.69726Z" fill="url(#paint1_linear_8_282)"/>
<defs>
<linearGradient id="paint0_linear_8_282" x1="12" y1="22.9929" x2="12" y2="0.999999" gradientUnits="userSpaceOnUse">
<stop stop-color="#02AA93"/>
<stop offset="1" stop-color="#67FF80"/>
</linearGradient>
<linearGradient id="paint1_linear_8_282" x1="11.9961" y1="19.4192" x2="11.9961" y2="17.7698" gradientUnits="userSpaceOnUse">
<stop stop-color="#02AA93"/>
<stop offset="1" stop-color="#67FF80"/>
</linearGradient>
</defs>
</svg>
