<svg width="128" height="128" viewBox="0 0 128 128" fill="none" xmlns="http://www.w3.org/2000/svg">
<path opacity="0.4" fill-rule="evenodd" clip-rule="evenodd" d="M118 101.97V26.0302C118 20.585 115.454 16.5204 112.025 13.8713C108.651 11.2643 104.402 10 100.75 10H96H67H27.25C23.5982 10 19.3494 11.2643 15.9751 13.8713C12.5464 16.5204 10 20.585 10 26.0302V101.97C10 107.415 12.5464 111.48 15.9751 114.129C19.3494 116.736 23.5982 118 27.25 118H100.75C104.402 118 108.651 116.736 112.025 114.129C115.454 111.48 118 107.415 118 101.97Z" fill="url(#paint0_linear_39_216)"/>
<path d="M44 98C51.7322 98 58 91.7322 58 84C58 76.2678 51.7322 70 44 70C36.2678 70 30 76.2678 30 84C30 91.7322 36.2678 98 44 98Z" fill="#FFC540"/>
<path d="M102.273 58.9396V10H68V58.9448C68 61.7057 70.9196 63.0451 72.5559 61.0349L83.2239 47.9308C84.2654 46.6517 86.0232 46.6523 87.0638 47.9318L97.716 61.0288C99.3521 63.0402 102.273 61.7011 102.273 58.9396Z" fill="url(#paint1_linear_39_216)"/>
<defs>
<linearGradient id="paint0_linear_39_216" x1="20.5" y1="111.5" x2="114.5" y2="15.0002" gradientUnits="userSpaceOnUse">
<stop stop-color="#F9D423"/>
<stop offset="0.515624" stop-color="#FF4E50"/>
<stop offset="0.991304" stop-color="#8A2387"/>
</linearGradient>
<linearGradient id="paint1_linear_39_216" x1="13.0455" y1="113.409" x2="124.136" y2="-0.636122" gradientUnits="userSpaceOnUse">
<stop stop-color="#F9D423"/>
<stop offset="0.515624" stop-color="#FF4E50"/>
<stop offset="0.991304" stop-color="#8A2387"/>
</linearGradient>
</defs>
</svg>
