<svg width="128" height="128" viewBox="0 0 128 128" fill="none" xmlns="http://www.w3.org/2000/svg">
<path opacity="0.4" d="M72.4818 9.19096C63.5469 10.1074 54.9799 13.044 46.4754 15.7793C38.0126 18.5563 29.6955 21.7221 21.2743 24.6101C16.1161 26.5124 10.4025 28.7895 7.71573 33.9547C5.66771 37.4745 5.8621 41.6955 6.24393 45.611C7.1048 54.5945 8.60436 63.5086 9.77764 72.4575C11.3675 83.4612 12.6796 94.5136 14.443 105.497C14.8317 107.968 15.519 110.384 16.4424 112.71C17.5671 114.626 18.7889 116.542 20.5037 117.993C22.8919 119.368 25.6967 120.02 28.425 119.444C33.5 118.521 38.5402 117.451 43.5943 116.445C47.1558 115.744 50.7728 114.105 52.8069 110.96C55.209 107.336 55.0424 102.74 54.6258 98.5888C53.9941 95.5272 53.8344 92.2851 52.6056 89.3901L45.9894 73.8043C52.432 81.8367 59.2148 89.5914 65.7893 97.5127C68.233 100.408 70.8503 103.212 73.9675 105.392C77.4804 107.6 81.7083 108.85 85.8529 108.1C94.2047 106.573 102.508 104.775 110.86 103.226C114.435 102.49 118.351 101.359 120.621 98.2764C121.898 96.6172 122.051 94.4442 121.988 92.4309C120.579 87.835 117.184 84.2179 113.769 80.9897C109.728 77.3102 105.604 73.721 101.661 69.9373C98.5715 66.9937 95.4613 64.071 92.3719 61.1343C91.8859 60.6692 91.393 60.204 90.907 59.7389C95.0378 55.386 98.7451 50.5749 101.418 45.1806C103.376 41.0637 104.028 36.4123 103.619 31.8858C102.633 22.1525 95.371 13.7452 86.1931 10.6419C81.7569 9.34369 77.0985 8.63556 72.4818 9.19096Z" fill="url(#paint0_linear_80_576)"/>
<path d="M46.4754 15.7793C54.9799 13.044 63.5469 10.1074 72.4818 9.19096C77.0985 8.63556 81.7569 9.34369 86.1931 10.6419C83.8257 12.5789 81.8749 14.9601 80.4725 17.6816C75.0921 16.7305 69.6076 17.6816 64.38 19.0076C56.8057 20.9862 49.3496 23.3813 41.9836 26.0264C41.6018 25.7834 40.8242 25.3113 40.4355 25.0683C42.7473 22.1803 44.8578 19.1187 46.4754 15.7793Z" fill="url(#paint1_linear_80_576)"/>
<path d="M37.5196 35.364C44.476 33.073 51.4462 30.8514 58.4789 28.8242C58.8538 29.1158 59.6036 29.7059 59.9785 30.0044C58.0485 32.3162 56.1809 34.8988 56.1879 38.0507C51.4115 39.5919 46.6073 41.0498 41.8448 42.6327C42.0461 43.4589 42.2474 44.292 42.4488 45.1251C43.0111 47.4647 43.5457 49.8043 44.0594 52.1577C41.9073 54.4765 39.8731 57.2327 40.13 60.5789C39.8801 60.4956 39.3733 60.3151 39.1233 60.2318C36.5755 58.6559 36.3672 55.4346 35.7146 52.8103C34.9648 49.117 33.9165 45.4791 33.2917 41.7649C32.7502 38.8907 34.7913 36.1138 37.5196 35.364Z" fill="url(#paint2_linear_80_576)"/>
<path d="M80.4725 17.6816C81.8749 14.9601 83.8257 12.5789 86.1931 10.6419C95.371 13.7452 102.633 22.1525 103.619 31.8858C104.028 36.4123 103.376 41.0637 101.418 45.1806C98.7659 44.3128 96.0167 43.7713 93.2397 43.5213C94.5726 40.3209 95.7876 36.9538 95.3988 33.427C95.1072 29.1713 93.087 25.0892 89.8934 22.2636C87.29 19.8337 83.9299 18.3966 80.4725 17.6816Z" fill="url(#paint3_linear_80_576)"/>
<path d="M21.2743 24.6101C29.6955 21.7221 38.0126 18.5563 46.4754 15.7793C44.8578 19.1187 42.7473 22.1803 40.4355 25.0683C40.8242 25.3113 41.6018 25.7834 41.9836 26.0264C35.2217 28.491 28.3903 30.7681 21.6492 33.2882C18.9347 34.4406 15.6579 35.6903 14.5888 38.7241C13.8598 41.3831 14.443 44.1739 14.6582 46.8676C15.4149 53.81 16.6507 60.69 17.3796 67.6325C16.977 66.5772 16.5188 65.5428 16.0675 64.5084C13.8945 67.0979 11.8118 69.7568 9.77764 72.4575C8.60436 63.5086 7.1048 54.5945 6.24393 45.611C5.8621 41.6955 5.66771 37.4745 7.71573 33.9547C10.4025 28.7895 16.1161 26.5124 21.2743 24.6101Z" fill="url(#paint4_linear_80_576)"/>
<path d="M58.4789 28.8242C61.3114 28.5673 64.3105 28.602 66.8792 29.9836C70.3574 31.6637 72.5443 35.2182 73.3913 38.8907C73.8217 42.6258 73.0372 46.6385 70.5101 49.5266C67.275 53.5185 62.1237 54.9208 57.5417 56.7398C51.9252 58.6489 46.1699 60.8775 40.13 60.5789C39.8731 57.2327 41.9073 54.4765 44.0594 52.1577C49.6064 50.9706 54.9521 49.0128 60.1798 46.8468C62.0681 46.0553 64.1162 45.014 64.9215 42.9937C65.6643 41.3206 64.8798 39.5503 64.3105 37.9604C61.8251 36.2109 58.7982 37.1759 56.1879 38.0507C56.1809 34.8988 58.0485 32.3162 59.9785 30.0044C59.6036 29.7059 58.8538 29.1158 58.4789 28.8242Z" fill="url(#paint5_linear_80_576)"/>
<path d="M92.8162 43.4727L93.2397 43.5213C96.0167 43.7713 98.7659 44.3128 101.418 45.1806C98.7451 50.5749 95.0378 55.386 90.907 59.7389C91.393 60.204 91.8859 60.6692 92.3719 61.1343C95.4613 64.071 98.5715 66.9937 101.661 69.9373C99.6753 71.8535 97.7245 73.8043 95.8084 75.7898C91.6499 71.9298 87.5816 67.9796 83.4439 64.0918C82.0624 62.8422 80.8474 61.0996 81.1737 59.1349C81.4584 56.948 83.3398 55.5734 84.7769 54.1016C87.9148 50.9498 90.8515 47.4855 92.8162 43.4727Z" fill="url(#paint6_linear_80_576)"/>
<path d="M9.77764 72.4575C11.8118 69.7568 13.8945 67.0979 16.0675 64.5084C16.5188 65.5428 16.977 66.5772 17.3796 67.6325C19.4068 80.5801 20.9272 93.625 22.9336 106.58C22.635 105.983 22.3296 105.392 22.0172 104.802C20.1149 107.406 18.2752 110.058 16.4424 112.71C15.519 110.384 14.8317 107.968 14.443 105.497C12.6796 94.5136 11.3675 83.4612 9.77764 72.4575Z" fill="url(#paint7_linear_80_576)"/>
<path d="M45.9894 73.8043C44.2191 71.6452 45.5451 68.0073 48.2527 67.4172C50.1549 66.8341 51.9877 67.9935 53.0846 69.4791C59.2148 76.9076 65.4769 84.2318 71.6626 91.6186C69.6701 93.5486 67.7123 95.5133 65.7893 97.5127C59.2148 89.5914 52.432 81.8367 45.9894 73.8043Z" fill="url(#paint8_linear_80_576)"/>
<path d="M95.8084 75.7898C97.7245 73.8043 99.6753 71.8535 101.661 69.9373C105.604 73.721 109.728 77.3102 113.769 80.9897C117.184 84.2179 120.579 87.835 121.988 92.4309C122.051 94.4442 121.898 96.6172 120.621 98.2764C118.351 101.359 114.435 102.49 110.86 103.226C102.508 104.775 94.2047 106.573 85.8529 108.1C81.7083 108.85 77.4804 107.6 73.9675 105.392C70.8503 103.212 68.233 100.408 65.7893 97.5127C67.7123 95.5133 69.6701 93.5486 71.6626 91.6186C74.9325 95.3259 78.5425 100.359 84.0826 100.019C92.2955 98.568 100.446 96.756 108.652 95.2634C110.394 94.9579 112.081 94.3956 113.748 93.7846C112.04 90.8619 109.686 88.4042 107.166 86.1757C103.334 82.76 99.5226 79.3305 95.8084 75.7898Z" fill="url(#paint9_linear_80_576)"/>
<path d="M45.08 91.0493C45.3785 87.3907 50.7936 86.2451 52.6056 89.3901C53.8344 92.2851 53.9941 95.5272 54.6258 98.5888C55.0424 102.74 55.209 107.336 52.8069 110.96C50.7728 114.105 47.1558 115.744 43.5943 116.445C38.5402 117.451 33.5 118.521 28.425 119.444C25.6967 120.02 22.8919 119.368 20.5037 117.993C18.7889 116.542 17.5671 114.626 16.4424 112.71C18.2752 110.058 20.1149 107.406 22.0172 104.802C22.3296 105.392 22.635 105.983 22.9336 106.58C23.6903 108.176 24.1971 109.933 25.3843 111.293C27.0018 111.536 28.6055 110.988 30.1884 110.724C34.2359 109.863 38.3041 109.134 42.3516 108.267C43.9622 107.892 46.0172 107.225 46.3713 105.365C47.3779 100.533 45.2119 95.8327 45.08 91.0493Z" fill="url(#paint10_linear_80_576)"/>
<defs>
<linearGradient id="paint0_linear_80_576" x1="64" y1="119.654" x2="64" y2="9" gradientUnits="userSpaceOnUse">
<stop stop-color="#5570FF"/>
<stop offset="1" stop-color="#4DD3FF"/>
</linearGradient>
<linearGradient id="paint1_linear_80_576" x1="64" y1="119.654" x2="64" y2="9" gradientUnits="userSpaceOnUse">
<stop stop-color="#5570FF"/>
<stop offset="1" stop-color="#4DD3FF"/>
</linearGradient>
<linearGradient id="paint2_linear_80_576" x1="64" y1="119.654" x2="64" y2="9" gradientUnits="userSpaceOnUse">
<stop stop-color="#5570FF"/>
<stop offset="1" stop-color="#4DD3FF"/>
</linearGradient>
<linearGradient id="paint3_linear_80_576" x1="64" y1="119.654" x2="64" y2="9" gradientUnits="userSpaceOnUse">
<stop stop-color="#5570FF"/>
<stop offset="1" stop-color="#4DD3FF"/>
</linearGradient>
<linearGradient id="paint4_linear_80_576" x1="64" y1="119.654" x2="64" y2="9" gradientUnits="userSpaceOnUse">
<stop stop-color="#5570FF"/>
<stop offset="1" stop-color="#4DD3FF"/>
</linearGradient>
<linearGradient id="paint5_linear_80_576" x1="64" y1="119.654" x2="64" y2="9" gradientUnits="userSpaceOnUse">
<stop stop-color="#5570FF"/>
<stop offset="1" stop-color="#4DD3FF"/>
</linearGradient>
<linearGradient id="paint6_linear_80_576" x1="64" y1="119.654" x2="64" y2="9" gradientUnits="userSpaceOnUse">
<stop stop-color="#5570FF"/>
<stop offset="1" stop-color="#4DD3FF"/>
</linearGradient>
<linearGradient id="paint7_linear_80_576" x1="64" y1="119.654" x2="64" y2="9" gradientUnits="userSpaceOnUse">
<stop stop-color="#5570FF"/>
<stop offset="1" stop-color="#4DD3FF"/>
</linearGradient>
<linearGradient id="paint8_linear_80_576" x1="64" y1="119.654" x2="64" y2="9" gradientUnits="userSpaceOnUse">
<stop stop-color="#5570FF"/>
<stop offset="1" stop-color="#4DD3FF"/>
</linearGradient>
<linearGradient id="paint9_linear_80_576" x1="64" y1="119.654" x2="64" y2="9" gradientUnits="userSpaceOnUse">
<stop stop-color="#5570FF"/>
<stop offset="1" stop-color="#4DD3FF"/>
</linearGradient>
<linearGradient id="paint10_linear_80_576" x1="64" y1="119.654" x2="64" y2="9" gradientUnits="userSpaceOnUse">
<stop stop-color="#5570FF"/>
<stop offset="1" stop-color="#4DD3FF"/>
</linearGradient>
</defs>
</svg>
