<svg width="48" height="48" viewBox="0 0 48 48" fill="none" xmlns="http://www.w3.org/2000/svg">
<g opacity="0.5">
<path fill-rule="evenodd" clip-rule="evenodd" d="M13.35 15.35C14.4545 15.35 15.35 14.4545 15.35 13.35V4.53798C15.35 3.34498 16.319 2.37598 17.513 2.37598H30.487C31.681 2.37598 32.65 3.34498 32.65 4.53798V13.35C32.65 14.4545 33.5454 15.35 34.65 15.35H43.462C44.655 15.35 45.624 16.319 45.624 17.513V30.487C45.624 31.681 44.655 32.65 43.462 32.65H34.65C33.5454 32.65 32.65 33.5454 32.65 34.65V43.462C32.65 44.655 31.681 45.624 30.487 45.624H17.513C16.319 45.624 15.35 44.655 15.35 43.462V34.65C15.35 33.5454 14.4545 32.65 13.35 32.65H4.53798C3.34498 32.65 2.37598 31.681 2.37598 30.487V17.513C2.37598 16.319 3.34498 15.35 4.53798 15.35H13.35Z" fill="url(#paint0_linear_345_601)"/>
<path fill-rule="evenodd" clip-rule="evenodd" d="M13.35 15.35C14.4545 15.35 15.35 14.4545 15.35 13.35V4.53798C15.35 3.34498 16.319 2.37598 17.513 2.37598H30.487C31.681 2.37598 32.65 3.34498 32.65 4.53798V13.35C32.65 14.4545 33.5454 15.35 34.65 15.35H43.462C44.655 15.35 45.624 16.319 45.624 17.513V30.487C45.624 31.681 44.655 32.65 43.462 32.65H34.65C33.5454 32.65 32.65 33.5454 32.65 34.65V43.462C32.65 44.655 31.681 45.624 30.487 45.624H17.513C16.319 45.624 15.35 44.655 15.35 43.462V34.65C15.35 33.5454 14.4545 32.65 13.35 32.65H4.53798C3.34498 32.65 2.37598 31.681 2.37598 30.487V17.513C2.37598 16.319 3.34498 15.35 4.53798 15.35H13.35Z" fill="url(#paint1_linear_345_601)"/>
</g>
<path fill-rule="evenodd" clip-rule="evenodd" d="M26.1619 17.1749C26.1619 17.5988 26.4327 17.9698 26.8145 18.1539C28.1362 18.7914 29.2087 19.8639 29.8462 21.1856C30.0303 21.5674 30.4013 21.8382 30.8252 21.8382H39.1369C40.3309 21.8382 41.2999 22.8072 41.2999 24.0002C41.2999 25.1932 40.3309 26.1622 39.1369 26.1622H30.8251C30.4013 26.1622 30.0303 26.4331 29.8462 26.8148C28.7981 28.9878 26.5741 30.4872 23.9999 30.4872C20.4173 30.4872 17.5129 27.5829 17.5129 24.0002C17.5129 21.426 19.0123 19.2021 21.1853 18.154C21.567 17.9698 21.8379 17.5988 21.8379 17.175V8.8632C21.8379 7.6692 22.8069 6.7002 23.9999 6.7002C25.1929 6.7002 26.1619 7.6692 26.1619 8.8632V17.1749Z" fill="#CD2A1E"/>
<path fill-rule="evenodd" clip-rule="evenodd" d="M26.1619 17.1749C26.1619 17.5988 26.4327 17.9698 26.8145 18.1539C28.1362 18.7914 29.2087 19.8639 29.8462 21.1856C30.0303 21.5674 30.4013 21.8382 30.8252 21.8382H39.1369C40.3309 21.8382 41.2999 22.8072 41.2999 24.0002C41.2999 25.1932 40.3309 26.1622 39.1369 26.1622H30.8251C30.4013 26.1622 30.0303 26.4331 29.8462 26.8148C28.7981 28.9878 26.5741 30.4872 23.9999 30.4872C20.4173 30.4872 17.5129 27.5829 17.5129 24.0002C17.5129 21.426 19.0123 19.2021 21.1853 18.154C21.567 17.9698 21.8379 17.5988 21.8379 17.175V8.8632C21.8379 7.6692 22.8069 6.7002 23.9999 6.7002C25.1929 6.7002 26.1619 7.6692 26.1619 8.8632V17.1749Z" fill="url(#paint2_linear_345_601)"/>
<defs>
<linearGradient id="paint0_linear_345_601" x1="24" y1="45.6244" x2="24" y2="2.37548" gradientUnits="userSpaceOnUse">
<stop stop-color="#D7DDDE"/>
<stop offset="1" stop-color="white"/>
</linearGradient>
<linearGradient id="paint1_linear_345_601" x1="24" y1="45.624" x2="24" y2="2.37598" gradientUnits="userSpaceOnUse">
<stop stop-color="#EC396C"/>
<stop offset="1" stop-color="#FF709A"/>
</linearGradient>
<linearGradient id="paint2_linear_345_601" x1="29.4064" y1="30.4872" x2="29.4064" y2="6.7002" gradientUnits="userSpaceOnUse">
<stop stop-color="#EC396C"/>
<stop offset="1" stop-color="#FF709A"/>
</linearGradient>
</defs>
</svg>
