<svg width="64" height="64" viewBox="0 0 64 64" fill="none" xmlns="http://www.w3.org/2000/svg">
<path opacity="0.3" d="M32 60C47.4639 60 59.9999 47.464 59.9999 32C59.9999 16.536 47.4639 4 32 4C16.5361 4 4 16.536 4 32C4 47.464 16.5361 60 32 60Z" fill="url(#paint0_linear_214_96)"/>
<path fill-rule="evenodd" clip-rule="evenodd" d="M23.3847 16.1414C24.2066 15.7843 25.2547 16.1298 25.6854 16.8819C26.7701 18.5022 27.8457 20.1283 28.9181 21.7573C29.802 21.7655 30.6866 21.7641 31.5712 21.7627C32.5733 21.7611 33.5755 21.7595 34.5768 21.7718C35.1488 20.9578 35.6942 20.1267 36.2395 19.2958C36.8185 18.4135 37.3975 17.5313 38.008 16.6699C38.6191 15.8278 40.0675 15.7755 40.758 16.5538C41.2835 17.091 41.3813 17.9563 40.9627 18.5777C40.5441 19.2517 40.0993 19.9107 39.6543 20.57C39.3879 20.9645 39.1213 21.3595 38.8605 21.7573C39.5958 21.7647 40.3306 21.7622 41.0651 21.7597C42.0702 21.7563 43.0748 21.7529 44.0792 21.7747C45.0356 21.7631 45.8667 22.5123 45.9858 23.4009C46.2192 24.5918 46.4447 25.7846 46.6702 26.9775C46.9319 28.3616 47.1936 29.7461 47.4677 31.1278C47.8273 31.1278 48.1872 31.128 48.5471 31.1282C49.6364 31.1288 50.7272 31.1292 51.8156 31.1249C51.516 30.0876 51.2045 29.0533 50.893 28.0192C50.4484 26.5433 50.0039 25.0675 49.5942 23.5838C49.3162 22.5559 50.3093 21.4932 51.4061 21.557C52.2677 21.5686 52.9858 22.2219 53.1477 23.0089C53.5065 24.2237 53.8695 25.4376 54.2324 26.6515C54.7968 28.5394 55.3613 30.4273 55.9099 32.3184C56.2704 33.2796 55.5035 34.4411 54.4219 34.4991C53.1465 34.5326 51.87 34.5265 50.5937 34.5204C49.7664 34.5166 48.9391 34.5126 48.1124 34.5195C48.1916 34.9952 48.2857 35.4689 48.3799 35.9427C48.5036 36.5648 48.6272 37.1873 48.7173 37.8152C48.9252 38.8838 47.9413 39.9756 46.7986 39.9379C45.6183 39.9574 44.437 39.9531 43.2558 39.9487C42.5045 39.9459 41.7531 39.9432 41.0024 39.9466C41.4829 40.6781 41.9691 41.406 42.4552 42.1337L42.4557 42.1345C43.2583 43.3361 44.0607 44.5372 44.8369 45.7541C45.4328 46.6543 44.8247 47.9872 43.734 48.202C42.9243 48.4111 42.0534 48.0307 41.6593 47.3367C41.2085 46.6578 40.7568 45.9791 40.3052 45.3004C39.1225 43.5231 37.9393 41.745 36.7676 39.9612C34.5036 39.9414 32.2397 39.9444 29.9758 39.9475C28.9093 39.949 27.8428 39.9504 26.7763 39.9495C26.317 40.6413 25.8583 41.3338 25.3997 42.0263C24.2045 43.831 23.0089 45.6363 21.7989 47.4325C21.2154 48.4576 19.486 48.5302 18.8108 47.5573C18.3249 46.9505 18.4043 46.0764 18.8657 45.4754C19.3818 44.7018 19.8952 43.9267 20.4087 43.1516L20.4095 43.1504C21.1177 42.0812 21.826 41.0119 22.5413 39.9466C21.8372 39.9386 21.1326 39.9423 20.4281 39.946C19.3444 39.9517 18.2604 39.9574 17.1791 39.9204C16.2044 39.8739 15.3764 38.9971 15.4222 38.0708C15.4916 37.2704 15.6452 36.4817 15.7988 35.6935C15.8754 35.3006 15.9519 34.9078 16.018 34.5137C15.1431 34.5054 14.2678 34.5086 13.3923 34.5119C12.1153 34.5166 10.838 34.5214 9.56189 34.4904C8.48637 34.4381 7.75917 33.3056 8.07389 32.3503C8.79235 29.4205 9.54029 26.4934 10.2876 23.5687L10.4388 22.9769C10.5793 22.1494 11.4074 21.5047 12.2904 21.5715C13.3262 21.5802 14.197 22.5849 13.9587 23.5519C13.6165 25.0323 13.2379 26.5059 12.8593 27.9794C12.5888 29.0319 12.3184 30.0844 12.0612 31.1394C12.8221 31.1379 13.5823 31.1379 14.3425 31.1379C15.1023 31.1379 15.8623 31.1379 16.6229 31.1365C16.8202 30.0529 17.0146 28.9682 17.209 27.8834L17.2091 27.8825C17.4758 26.395 17.7424 24.9071 18.0164 23.4212C18.1263 22.5355 18.9452 21.7806 19.9015 21.7806C20.8249 21.7553 21.7483 21.7584 22.6717 21.7615C23.3401 21.7637 24.0087 21.7659 24.6772 21.7573C24.4445 21.4041 24.207 21.053 23.9694 20.7016C23.4707 19.9642 22.9712 19.2255 22.514 18.4645C22.0098 17.6456 22.4711 16.4928 23.3847 16.1414ZM21.3467 25.1751C20.6562 28.9674 19.9718 32.7569 19.2935 36.5521C27.809 36.5579 36.3245 36.5608 44.84 36.5463C44.4686 34.6364 44.1049 32.725 43.7412 30.8133C43.3839 28.935 43.0264 27.0559 42.6615 25.1779C35.5575 25.1722 28.4506 25.1722 21.3467 25.1751ZM24.3189 26.3395C25.3762 25.9969 26.6411 26.807 26.6137 27.8844C26.6156 27.9879 26.6177 28.0915 26.6199 28.1951C26.6373 29.0532 26.6549 29.9131 26.5922 30.7707C26.4394 31.9757 24.7315 32.5769 23.7629 31.8044C22.9694 31.2314 23.0079 30.3114 23.045 29.4286C23.0585 29.108 23.0717 28.7923 23.0449 28.4999C22.9318 27.6113 23.3351 26.5893 24.3189 26.3395ZM41.0018 27.6084C40.8063 26.4992 39.3183 25.8952 38.3283 26.5021C37.3951 26.9883 37.4162 28.0607 37.4336 28.9467C37.4345 28.9918 37.4354 29.0365 37.4362 29.0806C37.4439 29.2596 37.441 29.448 37.4381 29.6398C37.4259 30.4373 37.4127 31.2953 38.1542 31.7986C39.1136 32.5651 40.7635 32.0105 40.9957 30.8374C41.1026 29.7659 41.0874 28.6799 41.0018 27.6084Z" fill="url(#paint1_linear_214_96)"/>
<defs>
<linearGradient id="paint0_linear_214_96" x1="32" y1="60" x2="32" y2="3.99997" gradientUnits="userSpaceOnUse">
<stop stop-color="#A93AFF"/>
<stop offset="1" stop-color="#FF81FF"/>
</linearGradient>
<linearGradient id="paint1_linear_214_96" x1="32" y1="48.2593" x2="32" y2="16" gradientUnits="userSpaceOnUse">
<stop stop-color="#A93AFF"/>
<stop offset="1" stop-color="#FF81FF"/>
</linearGradient>
</defs>
</svg>
