<svg width="32" height="32" viewBox="0 0 32 32" fill="none" xmlns="http://www.w3.org/2000/svg">
<path opacity="0.5" d="M12.8908 2.00098V29.2493C12.7799 29.6809 12.3883 29.9998 11.9221 29.9998H7.11815C6.56586 29.9998 6.11815 29.5521 6.11815 28.9998V8.00026C6.11815 7.79071 6.05232 7.58646 5.92996 7.41634L3.17409 3.58489C2.69827 2.92336 3.17102 2.00098 3.9859 2.00098H12.8908Z" fill="url(#paint0_linear_343_492)"/>
<path d="M14.1958 18.8654C14.1958 19.1093 14.8893 19.4288 15.1332 19.4288V19.4288H15.1727C15.5375 19.4288 15.8734 19.6275 16.0491 19.9472L21.2893 29.4817C21.465 29.8013 21.8009 30 22.1657 30H27.5163C28.2874 30 28.7684 29.1641 28.3808 28.4974L23.481 20.0688C23.1452 19.4912 23.4623 18.7521 24.0766 18.4894C25.3552 17.9428 26.4795 17.0738 27.334 15.958C28.462 14.4844 29.0546 12.6706 29.014 10.8153C29.014 5.948 25.5945 2 18.7508 2H15.1748C14.6341 2 14.1958 2.4383 14.1958 2.97897V7.10111C14.1958 7.34751 14.8844 7.66417 15.1308 7.66417V7.66417H18.3507C20.8972 7.66417 22.0907 9.01947 22.091 11.0933C22.0911 11.0931 22.091 11.0936 22.091 11.0933C22.0909 11.0936 22.0906 11.0945 22.0904 11.0947C22.0901 11.0951 22.0898 11.0956 22.0898 11.0962C22.0895 13.289 20.896 14.6058 18.3484 14.6058H15.1308V14.6058C14.8844 14.6058 14.1958 14.9225 14.1958 15.1689V18.8654Z" fill="url(#paint1_linear_343_492)"/>
<defs>
<linearGradient id="paint0_linear_343_492" x1="3.52449" y1="29.9998" x2="21.0653" y2="23.2526" gradientUnits="userSpaceOnUse">
<stop offset="0.106984" stop-color="#E02767"/>
<stop offset="0.871403" stop-color="#FA5D51"/>
</linearGradient>
<linearGradient id="paint1_linear_343_492" x1="15.0042" y1="30" x2="37.6346" y2="16.9781" gradientUnits="userSpaceOnUse">
<stop offset="0.106984" stop-color="#E02767"/>
<stop offset="0.871403" stop-color="#FA5D51"/>
</linearGradient>
</defs>
</svg>
