<svg width="24" height="24" viewBox="0 0 24 24" fill="none" xmlns="http://www.w3.org/2000/svg">
<path opacity="0.45" d="M3 9.8C3 5.6519 3 3.5773 4.2892 2.2892C5.5773 1 7.6519 1 11.8 1C15.9481 1 18.0227 1 19.3108 2.2892C20.6 3.5773 20.6 5.6519 20.6 9.8V14.2C20.6 18.3481 20.6 20.4227 19.3108 21.7108C18.0227 23 15.9481 23 11.8 23C7.6519 23 5.5773 23 4.2892 21.7108C3 20.4227 3 18.3481 3 14.2V9.8Z" fill="url(#paint0_linear_12_91)"/>
<path d="M9.60002 4.57495C9.38122 4.57495 9.17138 4.66187 9.01666 4.81659C8.86194 4.97131 8.77502 5.18115 8.77502 5.39995C8.77502 5.61875 8.86194 5.8286 9.01666 5.98331C9.17138 6.13803 9.38122 6.22495 9.60002 6.22495H14C14.2188 6.22495 14.4287 6.13803 14.5834 5.98331C14.7381 5.8286 14.825 5.61875 14.825 5.39995C14.825 5.18115 14.7381 4.97131 14.5834 4.81659C14.4287 4.66187 14.2188 4.57495 14 4.57495H9.60002Z" fill="url(#paint1_linear_12_91)"/>
<path fill-rule="evenodd" clip-rule="evenodd" d="M11.8 8.97498C10.4143 8.97498 9.08526 9.52547 8.10538 10.5053C7.1255 11.4852 6.57501 12.8142 6.57501 14.2C6.57501 15.5857 7.1255 16.9147 8.10538 17.8946C9.08526 18.8745 10.4143 19.425 11.8 19.425C13.1858 19.425 14.5148 18.8745 15.4946 17.8946C16.4745 16.9147 17.025 15.5857 17.025 14.2C17.025 12.8142 16.4745 11.4852 15.4946 10.5053C14.5148 9.52547 13.1858 8.97498 11.8 8.97498Z" fill="url(#paint2_linear_12_91)"/>
<defs>
<linearGradient id="paint0_linear_12_91" x1="17.4149" y1="1" x2="-0.958937" y2="18.947" gradientUnits="userSpaceOnUse">
<stop stop-color="#DE00C0"/>
<stop offset="1" stop-color="#8720FF"/>
</linearGradient>
<linearGradient id="paint1_linear_12_91" x1="13.7302" y1="4.57495" x2="13.1436" y2="7.20078" gradientUnits="userSpaceOnUse">
<stop stop-color="#DE00C0"/>
<stop offset="1" stop-color="#8720FF"/>
</linearGradient>
<linearGradient id="paint2_linear_12_91" x1="15.1339" y1="8.97498" x2="6.575" y2="19.425" gradientUnits="userSpaceOnUse">
<stop stop-color="#DE00C0"/>
<stop offset="1" stop-color="#8720FF"/>
</linearGradient>
</defs>
</svg>
