<svg width="24" height="24" viewBox="0 0 24 24" fill="none" xmlns="http://www.w3.org/2000/svg">
<path d="M19.1315 17.2435C17.6279 17.6045 16.0584 17.587 14.5633 17.1925C13.0682 16.7981 11.6943 16.039 10.5645 14.9833C9.4348 13.9276 8.58452 12.6082 8.08984 11.1432C7.59517 9.67815 7.47154 8.11336 7.73002 6.58887C7.69071 6.62684 7.64921 6.66247 7.60572 6.69557C7.29772 6.92987 6.91273 7.01677 6.14273 7.19057L5.44423 7.34897C2.73825 7.96166 1.38526 8.26746 1.06296 9.30256C0.741759 10.3366 1.66356 11.4157 3.50824 13.5728L3.98564 14.1305C4.50924 14.7432 4.77214 15.0501 4.88984 15.4285C5.00754 15.808 4.96794 16.2172 4.88874 17.0345L4.81614 17.7792C4.53784 20.6578 4.39814 22.0966 5.24073 22.7357C6.08333 23.3759 7.35052 22.7929 9.88271 21.6258L10.5394 21.3244C11.2588 20.9922 11.6185 20.8272 12.0002 20.8272C12.3819 20.8272 12.7416 20.9922 13.4621 21.3244L14.1166 21.6258C16.6499 22.7918 17.9171 23.3748 18.7586 22.7368C19.6023 22.0966 19.4626 20.6578 19.1843 17.7792L19.1315 17.2435Z" fill="url(#paint0_linear_345_606)"/>
<path opacity="0.5" d="M8.8685 4.74878L8.5077 5.39558C8.1117 6.10617 7.91371 6.46147 7.60571 6.69577C7.64971 6.66277 7.69041 6.62757 7.73001 6.58907C7.47146 8.11367 7.59508 9.67859 8.08981 11.1437C8.58454 12.6088 9.43492 13.9283 10.5648 14.9841C11.6947 16.0398 13.0688 16.7989 14.564 17.1932C16.0593 17.5875 17.629 17.6049 19.1325 17.2436L19.1105 17.0346C19.0324 16.2173 18.9928 15.8081 19.1105 15.4286C19.2282 15.0502 19.49 14.7433 20.0147 14.1306L20.4921 13.5729C22.3368 11.4169 23.2586 10.3378 22.9363 9.30275C22.6151 8.26766 21.2621 7.96076 18.5561 7.34916L17.8565 7.19077C17.0877 7.01697 16.7027 6.93007 16.3936 6.69577C16.0856 6.46147 15.8876 6.10617 15.4916 5.39558L15.1319 4.74878C13.7382 2.24959 13.0419 1 12.0002 1C10.9585 1 10.2622 2.24959 8.8685 4.74878Z" fill="url(#paint1_linear_345_606)"/>
<defs>
<linearGradient id="paint0_linear_345_606" x1="12.37" y1="17.4788" x2="0.737821" y2="9.32918" gradientUnits="userSpaceOnUse">
<stop stop-color="#2AD454"/>
<stop offset="1" stop-color="#B3FF5A"/>
</linearGradient>
<linearGradient id="paint1_linear_345_606" x1="17.1157" y1="11.9506" x2="6.28379" y2="5.63338" gradientUnits="userSpaceOnUse">
<stop stop-color="#2AD454"/>
<stop offset="1" stop-color="#B3FF5A"/>
</linearGradient>
</defs>
</svg>
