<svg width="64" height="64" viewBox="0 0 64 64" fill="none" xmlns="http://www.w3.org/2000/svg">
<rect opacity="0.4" x="4" y="4" width="56" height="56" rx="12" fill="url(#paint0_linear_54_822)"/>
<path fill-rule="evenodd" clip-rule="evenodd" d="M13 32.5209C13 33.0732 13.4477 33.5209 14 33.5209H15.9589C16.5112 33.5209 16.9589 33.0732 16.9589 32.5209V27.2619C16.9589 26.7097 17.4066 26.2619 17.9589 26.2619H20.0113C20.356 26.2619 20.6763 26.4394 20.8591 26.7316L24.8575 33.1234C25.0403 33.4156 25.3606 33.5931 25.7053 33.5931H27.6646C28.4503 33.5931 28.9291 32.7288 28.5124 32.0628L25.3161 26.953C24.9634 26.3891 25.2541 25.6482 25.8542 25.3614C27.8701 24.3978 28.8627 22.7302 28.8627 20.6995C28.8627 19.0179 28.2248 17.2064 26.9509 16.2107C25.9283 15.4042 24.5365 15 22.7774 15H14C13.4477 15 13 15.4477 13 16V32.5209ZM21.6988 23.1378H16.9589C16.96 23.1378 16.9609 23.1369 16.9609 23.1358V19.202C16.9609 18.6497 17.4086 18.202 17.9609 18.202H21.9965C23.0557 18.202 23.827 18.4858 24.3123 19.0513C24.6524 19.4629 24.8245 19.9839 24.8245 20.618C24.8245 21.5266 24.5732 22.1736 24.0707 22.5592C23.5661 22.9449 22.7774 23.1378 21.6988 23.1378ZM16 45C15.4477 45 15 45.4477 15 46V48C15 48.5523 15.4477 49 16 49H36C36.5523 49 37 48.5523 37 48V46C37 45.4477 36.5523 45 36 45H16ZM50 15C50.5523 15 51 15.4477 51 16V32.5209C51 33.0732 50.5523 33.5209 50 33.5209H48.2286C47.6763 33.5209 47.2286 33.0732 47.2286 32.5209V24.3259C47.2286 23.3204 45.9114 22.9437 45.3798 23.7971L42.4856 28.443C42.0931 29.0731 41.1752 29.0709 40.7856 28.439L37.9155 23.7832C37.3878 22.927 36.0684 23.2981 36.0643 24.3038L36.0306 32.525C36.0283 33.0757 35.5813 33.5209 35.0306 33.5209H33.2552C32.7029 33.5209 32.2552 33.0732 32.2552 32.5209V16C32.2552 15.4477 32.7029 15 33.2552 15H36.6233C36.9697 15 37.2915 15.1793 37.4737 15.4738L40.7939 20.8399C41.1843 21.4708 42.1016 21.4718 42.4934 20.8418L45.8333 15.4719C46.0158 15.1784 46.3369 15 46.6825 15H50Z" fill="url(#paint1_linear_54_822)"/>
<defs>
<linearGradient id="paint0_linear_54_822" x1="25.5" y1="62.5" x2="36.5" y2="1.5" gradientUnits="userSpaceOnUse">
<stop stop-color="#FF823B"/>
<stop offset="0.986957" stop-color="#FF005B"/>
</linearGradient>
<linearGradient id="paint1_linear_54_822" x1="19.3519" y1="28.9578" x2="29.4697" y2="28.9578" gradientUnits="userSpaceOnUse">
<stop stop-color="#FF823B"/>
<stop offset="0.986957" stop-color="#FF005B"/>
</linearGradient>
</defs>
</svg>
