<svg width="32" height="32" viewBox="0 0 32 32" fill="none" xmlns="http://www.w3.org/2000/svg">
<path opacity="0.4" d="M25.8 2H6.2C3.8804 2 2 3.8804 2 6.2V25.8C2 28.1196 3.8804 30 6.2 30H25.8C28.1196 30 30 28.1196 30 25.8V6.2C30 3.8804 28.1196 2 25.8 2Z" fill="url(#paint0_linear_297_107)"/>
<path d="M14.1662 5.73332C13.9302 5.72077 13.6975 5.84316 13.437 5.90103C9.42981 6.96728 6.27155 10.4588 5.75887 15.3C5.59591 18.115 6.23591 20.4286 7.73856 22.4385C9.21902 24.4188 11.1326 25.6877 13.3714 26.1719C14.0144 26.3109 14.1981 26.3004 14.5854 26.1208C14.9005 25.9748 14.9278 25.9155 15.0302 25.2094C15.0957 24.7575 15.0554 23.1874 14.9719 22.9635C14.8961 22.7604 14.7329 22.593 14.4724 22.4458C11.48 21.811 9.51917 19.1217 9.51147 16C9.51569 15.9087 9.52177 15.8176 9.52971 15.7265C9.52469 15.359 9.54727 14.9878 9.60627 14.6182C9.72933 14.0172 9.96498 13.4362 10.288 12.8937C11.2235 11.1073 12.7233 9.8587 14.6766 9.50676C14.8928 9.3218 14.9871 9.06998 15.0339 8.65363C15.1022 8.04531 15.0536 6.59476 14.9573 6.36405C14.8666 6.14667 14.6511 5.92703 14.4031 5.79894C14.3223 5.75719 14.2448 5.7375 14.1662 5.73332ZM17.8339 5.73332C17.7552 5.7375 17.6777 5.75719 17.5969 5.79894C17.3489 5.92703 17.1334 6.14667 17.0427 6.36405C16.9465 6.59476 16.8979 8.04531 16.9662 8.65363C17.0129 9.06998 17.1072 9.3218 17.3235 9.50676C19.2767 9.8587 20.7765 11.1073 21.712 12.8937C22.0351 13.4362 22.2707 14.0172 22.3938 14.6182C22.4527 14.9878 22.4754 15.359 22.4703 15.7265C22.4782 15.8176 22.4843 15.9087 22.4886 16C22.481 19.1217 20.5201 21.811 17.5277 22.4458C17.2671 22.593 17.104 22.7604 17.0282 22.9635C16.9446 23.1874 16.9043 24.7575 16.9699 25.2094C17.0722 25.9155 17.0995 25.9748 17.4147 26.1208C17.802 26.3004 17.9857 26.3109 18.6287 26.1719C20.8675 25.6877 22.7811 24.4187 24.2615 22.4385C25.7641 20.4286 26.4041 18.115 26.2412 15.3C25.7285 10.4588 22.5702 6.96728 18.563 5.90103C18.3025 5.84316 18.0699 5.72077 17.8339 5.73332Z" fill="url(#paint1_linear_297_107)"/>
<defs>
<linearGradient id="paint0_linear_297_107" x1="16" y1="30" x2="16" y2="2" gradientUnits="userSpaceOnUse">
<stop stop-color="#5570FF"/>
<stop offset="1" stop-color="#4DD3FF"/>
</linearGradient>
<linearGradient id="paint1_linear_297_107" x1="16" y1="26.2669" x2="16" y2="5.73242" gradientUnits="userSpaceOnUse">
<stop stop-color="#5570FF"/>
<stop offset="1" stop-color="#4DD3FF"/>
</linearGradient>
</defs>
</svg>
