<svg width="64" height="64" viewBox="0 0 64 64" fill="none" xmlns="http://www.w3.org/2000/svg">
<path d="M19.2434 4C20.348 4 21.2434 4.89543 21.2434 6V54.7912C21.2434 55.8958 20.348 56.7912 19.2434 56.7912H16.8134C10.2688 56.7912 5 51.2512 5 44.3697V16.4215C5 9.53997 10.2688 4 16.8134 4H19.2434Z" fill="url(#paint0_linear_231_250)"/>
<path opacity="0.4" d="M45.5056 7.20898C44.401 7.20898 43.5056 8.10441 43.5056 9.20898V58.0002C43.5056 59.1047 44.401 60.0002 45.5056 60.0002H47.9356C54.4803 60.0002 59.7491 54.4602 59.7491 47.5787V19.6304C59.7491 12.749 54.4803 7.20898 47.9356 7.20898H45.5056Z" fill="url(#paint1_linear_231_250)"/>
<path opacity="0.4" d="M37.7032 19.1196C37.2179 19.1196 36.8027 19.468 36.7184 19.9459L36.1502 23.1664C36.0658 23.6443 35.6506 23.9927 35.1654 23.9927H34.554C34.0725 23.9927 33.6593 24.3359 33.571 24.8093L33.3331 26.0849C33.2209 26.6861 33.6822 27.2414 34.2938 27.2414V27.2414C34.8918 27.2414 35.3495 27.7737 35.26 28.3649L34.8209 31.2641C34.7469 31.753 34.3267 32.1144 33.8322 32.1144H33.1403C32.6587 32.1144 32.2455 32.4576 32.1572 32.931L31.9243 34.1797C31.8096 34.7949 32.2841 35.3631 32.9099 35.3631V35.3631C33.5362 35.3631 34.0109 35.9323 33.8952 36.5479L33.1954 40.2696C33.0797 40.8851 33.5518 41.4544 34.1782 41.4544H35.4394C35.9204 41.4544 36.3333 41.1119 36.4222 40.6391L37.2609 36.1783C37.3498 35.7055 37.7627 35.3631 38.2437 35.3631H40.8981C41.3797 35.3631 41.7929 35.0198 41.8812 34.5464L42.1141 33.2977C42.2288 32.6826 41.7568 32.1144 41.131 32.1144H39.152C38.5398 32.1144 38.0713 31.5693 38.1634 30.964L38.6004 28.091C38.6747 27.6024 39.0948 27.2414 39.589 27.2414H42.3087C42.7903 27.2414 43.2035 26.8981 43.2918 26.4247L43.5247 25.176C43.6394 24.5609 43.1674 23.9927 42.5416 23.9927H40.4925C39.8708 23.9927 39.3997 23.4312 39.5077 22.8189L39.9533 20.2934C40.0614 19.681 39.5903 19.1196 38.9685 19.1196H37.7032Z" fill="url(#paint2_linear_231_250)"/>
<path d="M29.5815 19.1196C29.0963 19.1196 28.681 19.468 28.5967 19.9459L28.0285 23.1664C27.9442 23.6443 27.529 23.9927 27.0437 23.9927H24.4781C23.9965 23.9927 23.5834 24.3359 23.4951 24.8093L23.2622 26.058C23.1474 26.6731 23.6195 27.2414 24.2452 27.2414H26.1457C26.7576 27.2414 27.226 27.786 27.1344 28.3911L26.6993 31.2641C26.6252 31.753 26.205 32.1144 25.7106 32.1144H23.0644C22.5828 32.1144 22.1696 32.4576 22.0813 32.931L21.8484 34.1797C21.7337 34.7949 22.2057 35.3631 22.8315 35.3631H24.7907C25.4171 35.3631 25.8893 35.9323 25.7735 36.5479L25.0738 40.2696C24.958 40.8851 25.4302 41.4544 26.0565 41.4544H27.3178C27.7988 41.4544 28.2117 41.1119 28.3005 40.6391L29.1393 36.1783C29.2282 35.7055 29.641 35.3631 30.1221 35.3631H30.873C31.3545 35.3631 31.7677 35.0198 31.856 34.5464L32.0889 33.2977C32.2037 32.6826 31.7316 32.1144 31.1059 32.1144H31.0304C30.4182 32.1144 29.9497 31.5693 30.0418 30.964L30.4787 28.091C30.553 27.6024 30.9731 27.2414 31.4674 27.2414H32.2867C32.7683 27.2414 33.1815 26.8981 33.2698 26.4247L33.5027 25.176C33.6174 24.5609 33.1454 23.9927 32.5196 23.9927H32.3709C31.7491 23.9927 31.2781 23.4312 31.3861 22.8189L31.8317 20.2934C31.9397 19.681 31.4687 19.1196 30.8469 19.1196H29.5815Z" fill="url(#paint3_linear_231_250)"/>
<defs>
<linearGradient id="paint0_linear_231_250" x1="13.1217" y1="56.7912" x2="13.1217" y2="4" gradientUnits="userSpaceOnUse">
<stop stop-color="#5570FF"/>
<stop offset="1" stop-color="#4DD3FF"/>
</linearGradient>
<linearGradient id="paint1_linear_231_250" x1="58.5509" y1="-3.85114" x2="30.6862" y2="5.3488" gradientUnits="userSpaceOnUse">
<stop stop-color="#FE7970"/>
<stop offset="1" stop-color="#D92B1A"/>
</linearGradient>
<linearGradient id="paint2_linear_231_250" x1="42.8571" y1="14.4403" x2="25.6931" y2="24.3702" gradientUnits="userSpaceOnUse">
<stop stop-color="#FE7970"/>
<stop offset="1" stop-color="#D92B1A"/>
</linearGradient>
<linearGradient id="paint3_linear_231_250" x1="27.6755" y1="41.4544" x2="27.6755" y2="19.1196" gradientUnits="userSpaceOnUse">
<stop stop-color="#5570FF"/>
<stop offset="1" stop-color="#4DD3FF"/>
</linearGradient>
</defs>
</svg>
