<svg width="32" height="32" viewBox="0 0 32 32" fill="none" xmlns="http://www.w3.org/2000/svg">
<path opacity="0.5" d="M6 5.6665C6 4.87085 6.31607 4.10779 6.87868 3.54518C7.44129 2.98257 8.20435 2.6665 9 2.6665H21.6667C22.4623 2.6665 23.2254 2.98257 23.788 3.54518C24.3506 4.10779 24.6667 4.87085 24.6667 5.6665V16.7332C24.6667 17.0645 24.9353 17.3332 25.2667 17.3332H29.4C29.7314 17.3332 30 17.6018 30 17.9332V22.3332C30 22.9022 29.8879 23.4657 29.6701 23.9915C29.4524 24.5172 29.1332 24.9949 28.7308 25.3973C28.3284 25.7997 27.8507 26.1189 27.325 26.3367C26.7992 26.5544 26.2357 26.6665 25.6667 26.6665H17.7343C17.26 26.6665 16.9657 26.1363 17.1688 25.7078C17.7161 24.5531 18.002 23.2868 18 21.9998C18 19.9166 17.2644 18.0041 16.0394 16.5092C15.6835 16.075 15.9701 15.3332 16.5315 15.3332H19C19.2652 15.3332 19.5196 15.2278 19.7071 15.0403C19.8946 14.8527 20 14.5984 20 14.3332C20 14.068 19.8946 13.8136 19.7071 13.6261C19.5196 13.4385 19.2652 13.3332 19 13.3332H11.6667C11.5449 13.3332 11.4288 13.3549 11.3213 13.3944C11.1678 13.4507 11.0043 13.4921 10.8433 13.4638C9.50816 13.2292 8.13959 13.3102 6.84624 13.6962C6.43635 13.8186 6 13.5264 6 13.0986V5.6665ZM24.6667 24.0665C24.6667 24.3979 24.9353 24.6665 25.2667 24.6665H25.6667C26.2855 24.6665 26.879 24.4207 27.3166 23.9831C27.7542 23.5455 28 22.952 28 22.3332V19.9332C28 19.6018 27.7314 19.3332 27.4 19.3332H25.2667C24.9353 19.3332 24.6667 19.6018 24.6667 19.9332V24.0665ZM10.6667 8.99984C10.6667 9.55184 11.1147 9.99984 11.6667 9.99984H19C19.2652 9.99984 19.5196 9.89448 19.7071 9.70694C19.8946 9.51941 20 9.26505 20 8.99984C20 8.73462 19.8946 8.48027 19.7071 8.29273C19.5196 8.10519 19.2652 7.99984 19 7.99984H11.6667C11.4015 7.99984 11.1471 8.10519 10.9596 8.29273C10.772 8.48027 10.6667 8.73462 10.6667 8.99984Z" fill="url(#paint0_linear_345_633)"/>
<path fill-rule="evenodd" clip-rule="evenodd" d="M16.6667 21.9998C16.6667 22.9629 16.477 23.9165 16.1085 24.8062C15.7399 25.6959 15.1997 26.5043 14.5188 27.1853C13.8378 27.8663 13.0294 28.4064 12.1397 28.775C11.25 29.1435 10.2964 29.3332 9.33333 29.3332C8.37031 29.3332 7.41671 29.1435 6.52699 28.775C5.63727 28.4064 4.82885 27.8663 4.14788 27.1853C3.46692 26.5043 2.92675 25.6959 2.55822 24.8062C2.18968 23.9165 2 22.9629 2 21.9998C2 20.0549 2.77262 18.1897 4.14788 16.8144C5.52315 15.4391 7.38841 14.6665 9.33333 14.6665C11.2783 14.6665 13.1435 15.4391 14.5188 16.8144C15.8941 18.1897 16.6667 20.0549 16.6667 21.9998ZM7.33333 24.6655C7.3334 24.7861 7.36617 24.9044 7.42815 25.0078C7.49014 25.1113 7.57902 25.1959 7.68533 25.2529C7.79164 25.3098 7.9114 25.3368 8.03186 25.331C8.15231 25.3253 8.26894 25.287 8.36933 25.2201L12.372 22.5548C12.4633 22.4939 12.5382 22.4114 12.5899 22.3147C12.6417 22.2179 12.6688 22.1099 12.6688 22.0001C12.6688 21.8904 12.6417 21.7824 12.5899 21.6856C12.5382 21.5888 12.4633 21.5064 12.372 21.4455L8.36933 18.7788C8.26885 18.7119 8.15209 18.6736 8.03152 18.6679C7.91095 18.6622 7.7911 18.6893 7.68474 18.7464C7.57839 18.8035 7.48953 18.8884 7.42764 18.992C7.36575 19.0956 7.33315 19.2141 7.33333 19.3348V24.6655Z" fill="url(#paint1_linear_345_633)"/>
<defs>
<linearGradient id="paint0_linear_345_633" x1="30" y1="26.6665" x2="10.0297" y2="6.4725" gradientUnits="userSpaceOnUse">
<stop stop-color="#FF4000"/>
<stop offset="0.905415" stop-color="#FFA200"/>
</linearGradient>
<linearGradient id="paint1_linear_345_633" x1="16.6667" y1="29.3332" x2="4.46261" y2="16.9924" gradientUnits="userSpaceOnUse">
<stop stop-color="#FF4000"/>
<stop offset="0.905415" stop-color="#FFA200"/>
</linearGradient>
</defs>
</svg>
