<svg width="16" height="16" viewBox="0 0 16 16" fill="none" xmlns="http://www.w3.org/2000/svg">
<g opacity="0.4">
<path d="M9.58897 6.67958C9.34357 6.59709 9.06601 6.53342 8.81575 6.50222C8.5992 6.47523 8.48273 6.46844 8.14643 6.46323C7.40815 6.4518 6.97725 6.50483 6.46105 6.67067L6.30038 6.72229L6.07256 6.49731C5.58616 6.01696 5.33686 5.79837 5.08019 5.62718C4.88556 5.49737 4.46157 5.24559 4.18428 5.09516L4.11118 5.0555L4.11162 4.97472C4.11187 4.93029 4.11701 4.76424 4.12305 4.60571L4.13404 4.31747L4.30561 3.74936L6.22854 2.93373L6.42931 2.91374C6.66945 2.88984 7.15966 2.84898 7.44883 2.82878C7.70273 2.81104 8.27251 2.80875 8.50986 2.82451C8.86821 2.84831 9.41009 2.89355 9.68367 2.92251L9.79646 2.93445L11.7169 3.74952L11.8879 4.31999L11.8968 4.57355C11.9017 4.713 11.9081 4.87799 11.9109 4.94019L11.916 5.05328L11.8713 5.07727C11.4986 5.27728 10.9603 5.60339 10.7913 5.73153C10.6023 5.87483 10.3597 6.09475 10.0054 6.44395L9.72126 6.72406L9.58897 6.67958Z" fill="url(#paint0_linear_673_84)"/>
<path d="M1.69874 12.0183L2.13442 12.1336C2.37405 12.1971 2.57198 12.2493 2.57428 12.2497C2.58108 12.2509 3.77989 12.1164 3.79911 12.1123C3.81464 12.1089 3.81725 12.1009 3.82136 12.0436C3.84645 11.6942 4.62013 9.86987 5.46098 8.17739C5.86441 7.36538 6.12978 6.89002 6.2472 6.76909L6.28424 6.73094L6.06045 6.5101C5.45444 5.91205 5.23714 5.73348 4.77989 5.45771C4.62547 5.36458 4.24013 5.14409 4.15687 5.10122L4.09778 5.0708L3.13091 5.72114L2.52932 6.67211L1.67039 8.47815L0.869127 11.0179L0.774196 11.4148C0.721984 11.6331 0.67658 11.8222 0.673297 11.8352L0.667329 11.8588L0.761231 11.8117C0.854829 11.7647 0.855663 11.7645 1.01896 11.7404L1.18278 11.7162L1.69874 12.0183Z" fill="url(#paint1_linear_673_84)"/>
<path d="M5.77822 12.9524C6.30219 13.28 6.53975 13.4136 6.67604 13.4575C6.73162 13.4754 6.75466 13.4778 6.87267 13.4782C7.07133 13.4788 7.28832 13.4646 7.54104 13.4346C7.74697 13.4102 7.78806 13.4079 8.01307 13.4079C8.23817 13.408 8.27895 13.4103 8.48368 13.4348C8.87683 13.4818 9.24959 13.4916 9.3498 13.4575C9.41591 13.435 9.66027 13.3097 9.79677 13.2282C9.8611 13.1898 10.0566 13.0693 10.2312 12.9604C10.4058 12.8515 10.5938 12.7382 10.6489 12.7085C10.9614 12.5404 11.3212 12.3984 11.8748 12.2247C12.0231 12.1781 12.1552 12.1345 12.1685 12.1276C12.1921 12.1154 12.1925 12.1141 12.1877 12.0627C12.1735 11.9105 12.063 11.5814 11.8439 11.039C11.2251 9.50729 10.0557 7.11169 9.76611 6.78275C9.73386 6.74611 9.72801 6.74342 9.56849 6.6916C9.08509 6.53459 8.67072 6.47757 8.01307 6.47754C7.31844 6.47751 6.87825 6.54197 6.37783 6.71698C6.30375 6.74289 6.28737 6.75221 6.25492 6.7869C6.05681 6.9987 5.32966 8.42373 4.67136 9.89028C4.15284 11.0454 3.83584 11.875 3.8358 12.0768L3.83579 12.1246L4.00914 12.1799C4.58903 12.3648 4.79408 12.4383 5.06912 12.56C5.31447 12.6686 5.39999 12.7159 5.77822 12.9524Z" fill="url(#paint2_linear_673_84)"/>
<path d="M12.2093 12.1088C12.2093 12.1088 12.482 12.1407 12.8129 12.1789C13.1437 12.2171 13.4209 12.2488 13.4289 12.2492C13.4368 12.2497 13.6417 12.1979 13.8842 12.134L14.3251 12.0178L14.8407 11.7156L15.1746 11.7655L15.262 11.8124C15.3101 11.8382 15.3505 11.8579 15.3518 11.8563C15.353 11.8547 15.3095 11.6672 15.255 11.4398L15.1559 11.0262L14.3551 8.48501L13.4943 6.67347L12.8885 5.71677L11.9229 5.06982L11.8708 5.09811C11.6179 5.23538 11.2765 5.43454 11.071 5.56479C10.7424 5.77296 10.5223 5.95962 10.0206 6.45528L9.74252 6.73002L9.77471 6.76494C10.1221 7.14184 11.6984 10.4674 12.104 11.6791C12.1674 11.8686 12.207 12.0212 12.2071 12.0768C12.2071 12.094 12.2093 12.1088 12.2093 12.1088Z" fill="url(#paint3_linear_673_84)"/>
<path fill-rule="evenodd" clip-rule="evenodd" d="M6.2046 2.42509C6.38334 2.40666 7.43926 2.2998 8.01128 2.2998C8.58331 2.2998 9.63922 2.40666 9.81796 2.42509C9.88776 2.43229 9.95546 2.44993 10.019 2.4769L12.0702 3.3472L13.3211 5.44934L13.9397 6.42574L14.8294 8.29832L15.6461 10.8896L15.8053 11.5567C15.9171 12.0255 15.4602 12.4136 15.0276 12.258L14.9434 12.2457L14.6043 12.444C14.5495 12.4761 14.4905 12.5006 14.4291 12.5168L13.6072 12.7331C13.5236 12.7551 13.4366 12.7615 13.3506 12.7518L12.2777 12.6308C12.2423 12.6427 12.2018 12.6554 12.1616 12.6679C12.1444 12.6732 12.1264 12.6788 12.1077 12.6845C12.0052 12.7162 11.8816 12.7545 11.7431 12.8011C11.4098 12.9134 11.0312 13.0612 10.7451 13.2395C10.6833 13.278 10.6206 13.3173 10.5579 13.3566C10.3577 13.4822 10.1574 13.6078 9.98506 13.7078C9.87119 13.7738 9.75693 13.836 9.6527 13.8831C9.56916 13.9209 9.41887 13.9846 9.25922 13.9863C8.88582 13.9903 8.65718 13.9693 8.46822 13.9471C8.43944 13.9437 8.41268 13.9404 8.38736 13.9373C8.25039 13.9206 8.15558 13.9091 8.01129 13.9091C7.86699 13.9091 7.77218 13.9206 7.63521 13.9373C7.60989 13.9404 7.58313 13.9437 7.55434 13.947C7.36539 13.9693 7.13686 13.9903 6.76346 13.9864C6.60378 13.9846 6.45341 13.921 6.36987 13.8832C6.26564 13.836 6.15138 13.7738 6.0375 13.7078C5.86517 13.6079 5.66496 13.4823 5.46483 13.3568C5.40209 13.3174 5.33937 13.2781 5.27751 13.2395C4.99142 13.0612 4.61278 12.9134 4.27949 12.8011C4.14096 12.7545 4.01729 12.7162 3.91481 12.6845C3.89614 12.6788 3.87818 12.6732 3.86095 12.6679C3.82077 12.6554 3.78028 12.6427 3.74487 12.6308L2.67195 12.7518C2.58599 12.7615 2.49898 12.7551 2.41533 12.7331L1.59347 12.5168C1.53203 12.5006 1.47308 12.4761 1.41824 12.444L1.07915 12.2457L0.995015 12.258C0.562351 12.4136 0.105479 12.0255 0.217296 11.5567L0.376426 10.8896L1.19319 8.29832L2.0829 6.42574L2.7015 5.44934L3.95238 3.3472L6.00356 2.4769C6.06711 2.44993 6.1348 2.43229 6.2046 2.42509ZM3.49359 6.06762L2.9601 6.90968L2.12613 8.66495L1.34088 11.1562L1.31698 11.2564C1.37837 11.2725 1.4377 11.2969 1.49323 11.3294L1.88772 11.5602L2.61566 11.7518L3.40597 11.6627L3.40753 11.6576C3.46458 11.4717 3.55117 11.2364 3.65473 10.9756C3.86294 10.4512 4.154 9.78787 4.45588 9.13606C4.7579 8.48396 5.07422 7.83585 5.33406 7.3416C5.44661 7.12751 5.55131 6.93706 5.64137 6.78578C5.61621 6.76107 5.59006 6.73553 5.56316 6.70942C5.34551 6.49816 5.10031 6.27115 4.93506 6.14631C4.78585 6.03359 4.52627 5.87537 4.28536 5.73631C4.22851 5.7035 4.17416 5.67258 4.12446 5.64458L3.49359 6.06762ZM4.60964 4.77014C4.66357 4.8005 4.72294 4.83426 4.78527 4.87023C5.02458 5.00836 5.33358 5.19409 5.53785 5.34841C5.75816 5.51485 6.04332 5.78188 6.25965 5.99185C6.32292 6.05326 6.38214 6.1116 6.43449 6.16364C7.01752 5.99137 7.49478 5.96974 8.01129 5.96974C8.52779 5.96974 9.00505 5.99137 9.58808 6.16364C9.64043 6.1116 9.69965 6.05326 9.76292 5.99185C9.97925 5.78188 10.2644 5.51485 10.4847 5.34841C10.689 5.19409 10.998 5.00836 11.2373 4.87023C11.2996 4.83426 11.359 4.8005 11.4129 4.77014L11.4001 4.40191L11.313 4.11221L9.67025 3.41521C9.39838 3.38771 8.48939 3.2998 8.01128 3.2998C7.53318 3.2998 6.62419 3.38771 6.35231 3.41521L4.70959 4.11221L4.62244 4.40191L4.60964 4.77014ZM11.8981 5.64458C11.8484 5.67258 11.7941 5.7035 11.7372 5.73631C11.4963 5.87537 11.2367 6.03359 11.0875 6.14631C10.9223 6.27115 10.6771 6.49816 10.4594 6.70942C10.4325 6.73553 10.4064 6.76107 10.3812 6.78578C10.4713 6.93706 10.576 7.12751 10.6885 7.3416C10.9484 7.83585 11.2647 8.48396 11.5667 9.13606C11.8686 9.78787 12.1596 10.4512 12.3678 10.9756C12.4714 11.2364 12.558 11.4717 12.615 11.6576L12.6166 11.6627L13.4069 11.7518L14.1348 11.5602L14.5293 11.3294C14.5849 11.2969 14.6442 11.2725 14.7056 11.2564L14.6817 11.1563L13.8964 8.66494L13.0625 6.90968L12.529 6.06762L11.8981 5.64458ZM1.06994 12.2254L1.07224 12.2242ZM6.58304 7.1651C6.56901 7.18622 6.55225 7.21243 6.53269 7.24428C6.4516 7.37626 6.34464 7.56833 6.21919 7.80695C5.96945 8.28196 5.66071 8.91414 5.36329 9.55632C5.06574 10.1988 4.783 10.8438 4.58416 11.3446C4.51581 11.5167 4.45902 11.6678 4.41541 11.7934C4.47283 11.8117 4.5344 11.8318 4.59862 11.8534C4.94875 11.9713 5.41801 12.1488 5.80641 12.3908C5.87563 12.434 5.94311 12.4763 6.00863 12.5174C6.20461 12.6403 6.38316 12.7523 6.53897 12.8426C6.64222 12.9024 6.72295 12.9453 6.78205 12.9721C6.79685 12.9788 6.80826 12.9835 6.8166 12.9867C7.11406 12.9883 7.2897 12.9713 7.43715 12.9539C7.45987 12.9513 7.48283 12.9484 7.50623 12.9455C7.64646 12.9283 7.80218 12.9091 8.01129 12.9091C8.22039 12.9091 8.37611 12.9283 8.51633 12.9455C8.53973 12.9484 8.5627 12.9513 8.58542 12.9539C8.73286 12.9713 8.9085 12.9883 9.20595 12.9867C9.21428 12.9835 9.2257 12.9787 9.24051 12.972C9.29962 12.9453 9.38035 12.9024 9.4836 12.8426C9.63945 12.7522 9.81807 12.6402 10.0141 12.5173C10.0796 12.4762 10.147 12.4339 10.2162 12.3908C10.6046 12.1488 11.0738 11.9713 11.4239 11.8534C11.4882 11.8318 11.5497 11.8117 11.6072 11.7934C11.5635 11.6678 11.5068 11.5167 11.4384 11.3446C11.2396 10.8438 10.9568 10.1988 10.6593 9.55632C10.3619 8.91414 10.0531 8.28196 9.80338 7.80695C9.67793 7.56833 9.57097 7.37626 9.48988 7.24428C9.47032 7.21243 9.45356 7.18622 9.43953 7.1651C8.92387 6.99265 8.52555 6.96974 8.01129 6.96974C7.49702 6.96974 7.0987 6.99265 6.58304 7.1651Z" fill="url(#paint4_linear_673_84)"/>
</g>
<path fill-rule="evenodd" clip-rule="evenodd" d="M9.31281 6.28095C9.09272 6.20696 8.84378 6.14986 8.61933 6.12188C8.42512 6.09767 8.32065 6.09159 8.01903 6.08691C7.35689 6.07666 6.97042 6.12422 6.50745 6.27296L6.36335 6.31925L6.15903 6.11747C5.72278 5.68666 5.49919 5.49061 5.26899 5.33707C5.09443 5.22065 4.71416 4.99483 4.46547 4.85992L4.3999 4.82435L4.4003 4.7519C4.40052 4.71205 4.40513 4.56312 4.41055 4.42094L4.4204 4.16243L4.49735 3.90767L4.57429 3.6529L5.4366 3.28714L6.29892 2.92138L6.47899 2.90345C6.69436 2.88201 7.13402 2.84537 7.39337 2.82725C7.62109 2.81134 8.13211 2.80929 8.34498 2.82343C8.66638 2.84477 9.15238 2.88534 9.39775 2.91132L9.49891 2.92202L10.3601 3.28753L11.2213 3.65304L11.298 3.90886L11.3747 4.16468L11.3827 4.39209C11.3871 4.51717 11.3928 4.66515 11.3953 4.72093L11.3999 4.82235L11.3598 4.84387C11.0256 5.02326 10.5427 5.31574 10.3912 5.43066C10.2216 5.55918 10.0041 5.75642 9.68633 6.06962L9.43146 6.32084L9.31281 6.28095ZM1.96213 11.5067L2.32627 11.6032C2.52654 11.6562 2.69197 11.6999 2.69389 11.7002C2.69957 11.7012 3.70152 11.5888 3.71758 11.5853C3.73056 11.5825 3.73274 11.5758 3.73618 11.5279C3.75714 11.2359 4.40376 9.71116 5.10653 8.29662C5.44371 7.61796 5.66551 7.22066 5.76364 7.11959L5.79459 7.08771L5.60756 6.90313C5.10107 6.4033 4.91946 6.25405 4.53729 6.02356C4.40823 5.94573 4.08618 5.76145 4.01658 5.72562L3.9672 5.7002L3.56315 5.97197L3.15911 6.24374L2.90771 6.64114L2.65631 7.03854L2.29738 7.79326L1.93844 8.54799L1.6036 9.60935L1.26876 10.6707L1.18941 11.0024C1.14578 11.1848 1.10783 11.3429 1.10509 11.3537L1.1001 11.3735L1.17858 11.3341C1.25681 11.2949 1.2575 11.2947 1.39398 11.2745L1.5309 11.2543L1.74652 11.3805L1.96213 11.5067ZM6.06459 12.9493C6.51367 13.2301 6.71727 13.3446 6.83408 13.3823C6.88172 13.3976 6.90146 13.3997 7.0026 13.4C7.17287 13.4005 7.35884 13.3884 7.57544 13.3627C7.75194 13.3417 7.78715 13.3397 7.98 13.3398C8.17292 13.3398 8.20788 13.3418 8.38334 13.3628C8.7203 13.4031 9.03977 13.4115 9.12566 13.3823C9.18232 13.363 9.39175 13.2556 9.50874 13.1857C9.56388 13.1528 9.73143 13.0495 9.88108 12.9562C10.0307 12.8629 10.1918 12.7657 10.2391 12.7403C10.5069 12.5963 10.8153 12.4746 11.2898 12.3257C11.4168 12.2858 11.5301 12.2483 11.5415 12.2425C11.5617 12.232 11.562 12.2309 11.5579 12.1869C11.5458 12.0564 11.451 11.7744 11.2632 11.3095C10.7329 9.99669 9.73062 7.94351 9.48246 7.66158C9.45482 7.63019 9.44981 7.62787 9.31309 7.58347C8.89879 7.4489 8.54365 7.40002 7.98 7.4C7.38466 7.39998 7.00738 7.45522 6.57849 7.60522C6.515 7.62742 6.50097 7.63541 6.47316 7.66514C6.30336 7.84667 5.68015 9.06801 5.11594 10.3249C4.67154 11.315 4.39985 12.0259 4.39981 12.199L4.3998 12.2399L4.54838 12.2873C5.04538 12.4458 5.22112 12.5088 5.45685 12.6131C5.66713 12.7061 5.74043 12.7467 6.06459 12.9493ZM12.2615 11.5828C12.2625 11.5832 12.4895 11.6095 12.766 11.6414C13.0425 11.6733 13.2741 11.6998 13.2807 11.7002C13.2874 11.7006 13.4586 11.6573 13.6613 11.6039L14.0297 11.5068L14.2452 11.3805L14.4607 11.2542L14.6002 11.2751L14.7397 11.2959L14.8128 11.3351C14.853 11.3567 14.8867 11.3732 14.8878 11.3718C14.8888 11.3704 14.8524 11.2138 14.8069 11.0237L14.7241 10.6781L14.3894 9.61621L14.0548 8.55434L13.6951 7.79737L13.3355 7.0404L13.0823 6.64063L12.8291 6.24086L12.4257 5.97053L12.0222 5.7002L11.9787 5.72383C11.7673 5.83856 11.482 6.00499 11.3102 6.11385C11.0357 6.28782 10.8516 6.44382 10.4324 6.85805L10.2 7.08766L10.2269 7.11684C10.5172 7.43182 11.8346 10.2111 12.1735 11.2237C12.2265 11.3821 12.2596 11.5096 12.2597 11.5561C12.2597 11.5705 12.2606 11.5825 12.2615 11.5828Z" fill="url(#paint5_linear_673_84)"/>
<defs>
<linearGradient id="paint0_linear_673_84" x1="8.05715" y1="16.3676" x2="8.05715" y2="3.41614" gradientUnits="userSpaceOnUse">
<stop stop-color="#FDA700"/>
<stop offset="1" stop-color="#FFDE00"/>
</linearGradient>
<linearGradient id="paint1_linear_673_84" x1="8.05715" y1="16.3676" x2="8.05715" y2="3.41614" gradientUnits="userSpaceOnUse">
<stop stop-color="#FDA700"/>
<stop offset="1" stop-color="#FFDE00"/>
</linearGradient>
<linearGradient id="paint2_linear_673_84" x1="8.05715" y1="16.3676" x2="8.05715" y2="3.41614" gradientUnits="userSpaceOnUse">
<stop stop-color="#FDA700"/>
<stop offset="1" stop-color="#FFDE00"/>
</linearGradient>
<linearGradient id="paint3_linear_673_84" x1="8.05715" y1="16.3676" x2="8.05715" y2="3.41614" gradientUnits="userSpaceOnUse">
<stop stop-color="#FDA700"/>
<stop offset="1" stop-color="#FFDE00"/>
</linearGradient>
<linearGradient id="paint4_linear_673_84" x1="8.05715" y1="16.3676" x2="8.05715" y2="3.41614" gradientUnits="userSpaceOnUse">
<stop stop-color="#FDA700"/>
<stop offset="1" stop-color="#FFDE00"/>
</linearGradient>
<linearGradient id="paint5_linear_673_84" x1="7.99395" y1="13.4" x2="7.99395" y2="2.81396" gradientUnits="userSpaceOnUse">
<stop stop-color="#02AA93"/>
<stop offset="1" stop-color="#67FF80"/>
</linearGradient>
</defs>
</svg>
