<svg width="48" height="48" viewBox="0 0 48 48" fill="none" xmlns="http://www.w3.org/2000/svg">
<path opacity="0.4" d="M24 46.7638C36.5722 46.7638 46.764 36.5721 46.764 23.9998C46.764 11.4276 36.5722 1.23584 24 1.23584C11.4278 1.23584 1.23596 11.4276 1.23596 23.9998C1.23596 36.5721 11.4278 46.7638 24 46.7638Z" fill="url(#paint0_linear_444_83)"/>
<path d="M5.78894 24.5431C5.78894 15.5711 10.5469 10.9461 13.3309 10.9461C16.1149 10.9461 16.5719 12.2861 16.5719 14.4881C16.5719 18.7621 11.4099 17.0071 11.4099 25.0281C11.4099 27.6851 12.6039 30.9701 15.7119 30.9701C18.2049 30.9701 19.1219 28.0721 20.3859 22.8861C22.4839 15.0891 24.6069 9.2041 31.7719 9.2041C38.7329 9.2041 42.2109 14.9141 42.2109 23.8871C42.2109 32.8581 36.8219 38.5691 34.0379 38.5691C31.2539 38.5691 30.5389 37.4871 30.5389 35.2841C30.5389 31.0101 36.3899 31.6231 36.3899 23.6021C36.3899 20.9451 35.1949 17.0321 32.0879 17.0321C29.5939 17.0321 28.7129 17.2021 27.1839 22.8881C26.3519 28.9601 24.3729 38.7961 16.8019 38.7961C9.84094 38.7961 5.78894 33.5141 5.78894 24.5431Z" fill="url(#paint1_linear_444_83)"/>
<defs>
<linearGradient id="paint0_linear_444_83" x1="43.4056" y1="-8.30259" x2="3.14631" y2="34.8971" gradientUnits="userSpaceOnUse">
<stop stop-color="#FE7970"/>
<stop offset="1" stop-color="#D92B1A"/>
</linearGradient>
<linearGradient id="paint1_linear_444_83" x1="39.5243" y1="3.00437" x2="14.2749" y2="36.3512" gradientUnits="userSpaceOnUse">
<stop stop-color="#FE7970"/>
<stop offset="1" stop-color="#D92B1A"/>
</linearGradient>
</defs>
</svg>
