<svg width="24" height="24" viewBox="0 0 24 24" fill="none" xmlns="http://www.w3.org/2000/svg">
<path opacity="0.4" d="M2 9.8C2 5.6519 2 3.5773 3.2892 2.2892C4.5773 1 6.6519 1 10.8 1H13C17.1481 1 19.2227 1 20.5108 2.2892C21.8 3.5773 21.8 5.6519 21.8 9.8V14.2C21.8 18.3481 21.8 20.4227 20.5108 21.7108C19.2227 23 17.1481 23 13 23H10.8C6.6519 23 4.5773 23 3.2892 21.7108C2 20.4227 2 18.3481 2 14.2V9.8Z" fill="url(#paint0_linear_216_294)"/>
<path fill-rule="evenodd" clip-rule="evenodd" d="M5.30005 10.0172C5.30005 9.74082 5.40984 9.47575 5.60527 9.28032C5.80071 9.08489 6.06577 8.9751 6.34215 8.9751H17.458C17.7344 8.9751 17.9994 9.08489 18.1949 9.28032C18.3903 9.47575 18.5001 9.74082 18.5001 10.0172C18.5001 10.2936 18.3903 10.5586 18.1949 10.7541C17.9994 10.9495 17.7344 11.0593 17.458 11.0593H6.34215C6.06577 11.0593 5.80071 10.9495 5.60527 10.7541C5.40984 10.5586 5.30005 10.2936 5.30005 10.0172ZM5.30005 15.5751C5.30005 15.2987 5.40984 15.0336 5.60527 14.8382C5.80071 14.6428 6.06577 14.533 6.34215 14.533H13.2896C13.5659 14.533 13.831 14.6428 14.0264 14.8382C14.2219 15.0336 14.3317 15.2987 14.3317 15.5751C14.3317 15.8515 14.2219 16.1165 14.0264 16.312C13.831 16.5074 13.5659 16.6172 13.2896 16.6172H6.34215C6.06577 16.6172 5.80071 16.5074 5.60527 16.312C5.40984 16.1165 5.30005 15.8515 5.30005 15.5751Z" fill="url(#paint1_linear_216_294)" stroke="url(#paint2_linear_216_294)"/>
<defs>
<linearGradient id="paint0_linear_216_294" x1="21.2415" y1="12" x2="4.34893" y2="6.5004" gradientUnits="userSpaceOnUse">
<stop stop-color="#FE7970"/>
<stop offset="1" stop-color="#DC3282"/>
</linearGradient>
<linearGradient id="paint1_linear_216_294" x1="18.1278" y1="12.7962" x2="9.16958" y2="7.19895" gradientUnits="userSpaceOnUse">
<stop stop-color="#FE7970"/>
<stop offset="1" stop-color="#DC3282"/>
</linearGradient>
<linearGradient id="paint2_linear_216_294" x1="18.1278" y1="12.7962" x2="9.16958" y2="7.19895" gradientUnits="userSpaceOnUse">
<stop stop-color="#FE7970"/>
<stop offset="1" stop-color="#DC3282"/>
</linearGradient>
</defs>
</svg>
