<svg width="48" height="48" viewBox="0 0 48 48" fill="none" xmlns="http://www.w3.org/2000/svg">
<path opacity="0.4" fill-rule="evenodd" clip-rule="evenodd" d="M4.2678 28.9709C4.09185 28.0075 4.00011 27.0154 4.00011 26.0002V8.48803C4.00011 5.02727 8.09916 3.19745 10.6744 5.51383L14.9096 9.32202C15.1996 9.58273 15.6138 9.64918 15.9766 9.50624C18.4381 8.53633 21.153 8.00016 24.0001 8.00016C26.8472 8.00016 29.5621 8.53633 32.0236 9.50624C32.3864 9.64918 32.8006 9.58274 33.0906 9.32203L37.3254 5.51427C39.9006 3.19789 44.0001 5.02727 44.0001 8.48803V26C44.0001 27.0152 43.9084 28.0075 43.7324 28.9709L44.1662 29.0071C45.267 29.0988 46.0849 30.0655 45.9932 31.1663C45.9015 32.267 44.9348 33.085 43.834 32.9933L42.4971 32.8818C41.6622 34.7016 40.5066 36.3623 39.0988 37.8134L41.8945 39.2113C42.8825 39.7053 43.2829 40.9066 42.789 41.8946C42.295 42.8825 41.0936 43.283 40.1057 42.789L35.7102 40.5913C32.39 42.746 28.3258 44.0002 24.0001 44.0002C19.6744 44.0002 15.6102 42.746 12.29 40.5913L7.89454 42.789C6.90658 43.283 5.70524 42.8825 5.21126 41.8946C4.71728 40.9066 5.11773 39.7053 6.10568 39.2113L8.90144 37.8134C7.49366 36.3623 6.33798 34.7016 5.50312 32.8818L4.1662 32.9933C3.06545 33.085 2.09875 32.267 2.00702 31.1663C1.91529 30.0655 2.73327 29.0988 3.83402 29.0071L4.2678 28.9709Z" fill="url(#paint0_linear_54_1432)"/>
<path d="M32.1662 28.0072L39.7124 28.636L43.7324 28.971L44.1662 29.0072C45.267 29.0989 46.0849 30.0656 45.9932 31.1664C45.9015 32.2671 44.9348 33.0851 43.834 32.9934L42.4971 32.8819L38.1505 32.5197L31.834 31.9934C30.7333 31.9016 29.9153 30.9349 30.007 29.8342C30.0987 28.7334 31.0654 27.9154 32.1662 28.0072Z" fill="url(#paint1_linear_54_1432)"/>
<path d="M29.8945 33.2114L35.295 35.9116L39.0988 37.8135L41.8945 39.2114C42.8825 39.7054 43.2829 40.9067 42.789 41.8947C42.295 42.8826 41.0936 43.2831 40.1057 42.7891L35.7102 40.5914L31.3848 38.4287C29.1947 39.4289 26.6912 40.0002 24.0001 40.0002C21.309 40.0002 18.8055 39.4289 16.6155 38.4287L12.29 40.5914L7.89454 42.7891C6.90658 43.2831 5.70524 42.8826 5.21126 41.8947C4.71728 40.9067 5.11773 39.7054 6.10568 39.2114L8.90144 37.8135L12.7053 35.9116L18.1057 33.2114C19.0936 32.7174 20.295 33.1179 20.789 34.1058C21.2829 35.0938 20.8825 36.2951 19.8945 36.7891L16.6155 38.4287C18.8055 39.4289 21.309 40.0002 24.0001 40.0002C26.6912 40.0002 29.1947 39.4289 31.3848 38.4287L28.1057 36.7891C27.1177 36.2951 26.7173 35.0938 27.2113 34.1058C27.7052 33.1179 28.9066 32.7174 29.8945 33.2114Z" fill="url(#paint2_linear_54_1432)"/>
<path d="M16.1662 31.9934L9.84973 32.5197L5.50312 32.8819L4.1662 32.9934C3.06545 33.0851 2.09875 32.2671 2.00702 31.1664C1.91529 30.0656 2.73327 29.0989 3.83402 29.0072L4.2678 28.971L8.2878 28.636L15.834 28.0072C16.9348 27.9154 17.9015 28.7334 17.9932 29.8342C18.0849 30.9349 17.267 31.9016 16.1662 31.9934Z" fill="url(#paint3_linear_54_1432)"/>
<path d="M33 21C33 22.6569 31.6569 24 30 24C28.3431 24 27 22.6569 27 21C27 19.3431 28.3431 18 30 18C31.6569 18 33 19.3431 33 21Z" fill="url(#paint4_linear_54_1432)"/>
<path d="M18 24C19.6569 24 21 22.6569 21 21C21 19.3431 19.6569 18 18 18C16.3431 18 15 19.3431 15 21C15 22.6569 16.3431 24 18 24Z" fill="url(#paint5_linear_54_1432)"/>
<path d="M27 29C27 30.6569 25.6569 32 24 32C22.3431 32 21 30.6569 21 29C21 27.3431 22.3431 26 24 26C25.6569 26 27 27.3431 27 29Z" fill="url(#paint6_linear_54_1432)"/>
<defs>
<linearGradient id="paint0_linear_54_1432" x1="9.97504" y1="39.3346" x2="45.9296" y2="4.40729" gradientUnits="userSpaceOnUse">
<stop stop-color="#FE0844"/>
<stop offset="1" stop-color="#FEB302"/>
</linearGradient>
<linearGradient id="paint1_linear_54_1432" x1="9.97504" y1="39.3346" x2="45.9296" y2="4.40729" gradientUnits="userSpaceOnUse">
<stop stop-color="#FE0844"/>
<stop offset="1" stop-color="#FEB302"/>
</linearGradient>
<linearGradient id="paint2_linear_54_1432" x1="9.97504" y1="39.3346" x2="45.9296" y2="4.40729" gradientUnits="userSpaceOnUse">
<stop stop-color="#FE0844"/>
<stop offset="1" stop-color="#FEB302"/>
</linearGradient>
<linearGradient id="paint3_linear_54_1432" x1="9.97504" y1="39.3346" x2="45.9296" y2="4.40729" gradientUnits="userSpaceOnUse">
<stop stop-color="#FE0844"/>
<stop offset="1" stop-color="#FEB302"/>
</linearGradient>
<linearGradient id="paint4_linear_54_1432" x1="9.97504" y1="39.3346" x2="45.9296" y2="4.40729" gradientUnits="userSpaceOnUse">
<stop stop-color="#FE0844"/>
<stop offset="1" stop-color="#FEB302"/>
</linearGradient>
<linearGradient id="paint5_linear_54_1432" x1="9.97504" y1="39.3346" x2="45.9296" y2="4.40729" gradientUnits="userSpaceOnUse">
<stop stop-color="#FE0844"/>
<stop offset="1" stop-color="#FEB302"/>
</linearGradient>
<linearGradient id="paint6_linear_54_1432" x1="9.97504" y1="39.3346" x2="45.9296" y2="4.40729" gradientUnits="userSpaceOnUse">
<stop stop-color="#FE0844"/>
<stop offset="1" stop-color="#FEB302"/>
</linearGradient>
</defs>
</svg>
