<svg width="32" height="32" viewBox="0 0 32 32" fill="none" xmlns="http://www.w3.org/2000/svg">
<path opacity="0.4" d="M16.0211 30C15.8477 30 15.6744 29.9602 15.5179 29.8792L10.4764 27.2695C9.04582 26.5281 7.92673 25.6962 7.05288 24.727C5.14028 22.6073 4.07616 19.8864 4.05925 17.0639L4.00005 7.77397C3.99301 6.70179 4.68504 5.73944 5.71956 5.37701L14.9767 2.1495C15.5264 1.95319 16.1395 1.95044 16.699 2.13989L25.9914 5.25758C27.0316 5.6049 27.7349 6.56039 27.7405 7.63119L27.7997 16.928C27.818 19.7464 26.7906 22.4783 24.9076 24.6213C24.0436 25.6042 22.9344 26.4485 21.5179 27.2036L16.5214 29.8723C16.3664 29.9561 16.1945 29.9986 16.0211 30" fill="url(#paint0_linear_5_77)"/>
<path d="M13.035 10.2622C12.6854 9.91261 12.1186 9.91261 11.7691 10.2622L11.2622 10.769C10.9126 11.1186 10.9126 11.6854 11.2622 12.035L13.5943 14.367C13.9438 14.7166 13.9438 15.2834 13.5943 15.6329L11.2622 17.965C10.9126 18.3146 10.9126 18.8815 11.2622 19.2308L11.7691 19.7376C12.1186 20.0875 12.6854 20.0875 13.035 19.7376L15.367 17.4057C15.7166 17.0562 16.2833 17.0562 16.633 17.4057L18.965 19.7376C19.3146 20.0875 19.8815 20.0875 20.2308 19.7376L20.7378 19.2308C21.0875 18.8815 21.0875 18.3146 20.7378 17.965L18.4058 15.6329C18.056 15.2834 18.056 14.7166 18.4058 14.367L20.7378 12.035C21.0875 11.6854 21.0875 11.1186 20.7378 10.769L20.2308 10.2622C19.8815 9.91261 19.3146 9.91261 18.965 10.2622L16.633 12.5943C16.2833 12.9438 15.7166 12.9438 15.367 12.5943L13.035 10.2622Z" fill="url(#paint1_linear_5_77)"/>
<defs>
<linearGradient id="paint0_linear_5_77" x1="39.1713" y1="-12.3571" x2="17.3834" y2="48.0406" gradientUnits="userSpaceOnUse">
<stop stop-color="#FE0F7C"/>
<stop offset="1" stop-color="#DF0066"/>
</linearGradient>
<linearGradient id="paint1_linear_5_77" x1="25.7779" y1="4.87248" x2="18.9455" y2="27.1551" gradientUnits="userSpaceOnUse">
<stop stop-color="#FE0F7C"/>
<stop offset="1" stop-color="#DF0066"/>
</linearGradient>
</defs>
</svg>
