<svg width="32" height="32" viewBox="0 0 32 32" fill="none" xmlns="http://www.w3.org/2000/svg">
<path opacity="0.4" d="M16.0211 30C15.8477 30 15.6744 29.9602 15.5179 29.8792L10.4764 27.2695C9.04582 26.5281 7.92673 25.6962 7.05288 24.727C5.14028 22.6073 4.07616 19.8864 4.05925 17.0639L4.00005 7.77397C3.99301 6.70179 4.68504 5.73944 5.71956 5.37701L14.9767 2.1495C15.5264 1.95319 16.1395 1.95044 16.699 2.13989L25.9914 5.25758C27.0316 5.6049 27.7349 6.56039 27.7405 7.63119L27.7997 16.928C27.818 19.7464 26.7906 22.4783 24.9076 24.6213C24.0436 25.6042 22.9344 26.4485 21.5179 27.2036L16.5214 29.8723C16.3664 29.9561 16.1945 29.9986 16.0211 30" fill="url(#paint0_linear_5_77)"/>
<path fill-rule="evenodd" clip-rule="evenodd" d="M17.3864 16.801C17.3864 17.42 16.8505 17.9248 16.1932 17.9248C15.5359 17.9248 15 17.42 15 16.801V11.1239C15 10.5048 15.5359 10 16.1932 10C16.8505 10 17.3864 10.5048 17.3864 11.1239V16.801ZM15.0068 20.8761C15.0068 20.2571 15.54 19.7523 16.1932 19.7523C16.8654 19.7523 17.4 20.2571 17.4 20.8761C17.4 21.4952 16.8654 22 16.2068 22C15.5454 22 15.0068 21.4952 15.0068 20.8761Z" fill="url(#paint1_linear_5_77)"/>
<defs>
<linearGradient id="paint0_linear_5_77" x1="15.9" y1="30" x2="15.9" y2="2" gradientUnits="userSpaceOnUse">
<stop stop-color="#FD5900"/>
<stop offset="1" stop-color="#FFDE00"/>
</linearGradient>
<linearGradient id="paint1_linear_5_77" x1="16.2" y1="22" x2="16.2" y2="10" gradientUnits="userSpaceOnUse">
<stop stop-color="#FD5900"/>
<stop offset="1" stop-color="#FFDE00"/>
</linearGradient>
</defs>
</svg>
