<svg width="16" height="16" viewBox="0 0 16 16" fill="none" xmlns="http://www.w3.org/2000/svg">
<path d="M9.19034 1C8.53403 0.998697 8.00149 1.53029 8.00137 2.1866V4.03938C8.00137 4.26024 8.18093 4.43698 8.40039 4.46181C8.79676 4.50666 9.18374 4.61792 9.54483 4.79183C9.95171 4.98778 10.3169 5.25903 10.6214 5.59046C10.7242 5.70234 10.8768 5.75856 11.0252 5.72606C11.8573 5.54386 12.5792 5.3736 13.309 5.20176C14.3699 4.95162 13.9415 4.02762 13.5167 3.50527C12.4808 2.23134 11.0355 1.35337 9.42671 1.02314C9.34887 1.00748 9.26961 0.999884 9.19034 1ZM4.45782 2.03365C4.1302 2.06106 3.76876 2.27358 3.50759 2.48551C2.23366 3.52212 1.35569 4.96729 1.02546 6.57608C1.01003 6.65439 1.00232 6.73307 1.00232 6.81245C1.00113 7.46876 1.53273 8.00131 2.18892 8.00142H4.04172C4.26258 8.00142 4.43931 7.82188 4.46416 7.60243C4.50902 7.2061 4.62029 6.81915 4.7942 6.45809C4.99015 6.05125 5.26139 5.6861 5.5928 5.38158C5.70467 5.27879 5.7609 5.12627 5.72842 4.97786C5.5462 4.14524 5.37593 3.42343 5.20408 2.69411C5.07889 2.16358 4.78532 2.00612 4.45782 2.03365ZM11.9587 7.99668C11.7378 7.99668 11.5611 8.17624 11.5362 8.3957C11.4914 8.79207 11.3801 9.17905 11.2062 9.54014C11.0103 9.94698 10.7391 10.3121 10.4077 10.6166C10.2958 10.7195 10.2395 10.8721 10.2721 11.0206C10.4547 11.8527 10.6247 12.5746 10.7958 13.3043C11.0462 14.3652 11.9706 13.9368 12.4927 13.512C13.7671 12.4761 14.6451 11.0308 14.975 9.42202C14.9905 9.34371 14.9988 9.26504 14.9976 9.18565C14.9988 8.52934 14.4683 7.9968 13.811 7.99668H11.9587ZM5.37938 10.41C5.27653 10.2981 5.12389 10.2419 4.9754 10.2744C4.14285 10.4571 3.42108 10.6272 2.6918 10.7982C1.63075 11.0486 2.05935 11.973 2.4832 12.4951C3.51981 13.7695 4.96498 14.6476 6.57377 14.9775C6.65208 14.9929 6.73076 15 6.81014 15C7.46645 15.0012 7.99888 14.4696 7.999 13.8134V11.961C7.999 11.7402 7.81947 11.5635 7.60003 11.5386C7.2037 11.4937 6.81676 11.3824 6.45571 11.2085C6.04894 11.0126 5.68386 10.7414 5.37938 10.41Z" fill="url(#paint0_linear_314_88)"/>
<path opacity="0.4" d="M6.32327 6.32107C6.76833 5.87601 7.37196 5.62598 8.00138 5.62598C8.63079 5.62598 9.23442 5.87601 9.67948 6.32107C10.1245 6.76613 10.3746 7.36977 10.3746 7.99918C10.3746 8.62859 10.1245 9.23223 9.67948 9.67729C9.23442 10.1223 8.63079 10.3724 8.00138 10.3724C7.37196 10.3724 6.76833 10.1223 6.32327 9.67729C5.87821 9.23223 5.62817 8.62859 5.62817 7.99918C5.62817 7.36977 5.87821 6.76613 6.32327 6.32107Z" fill="url(#paint1_linear_314_88)"/>
<defs>
<linearGradient id="paint0_linear_314_88" x1="0.800026" y1="1.13776" x2="15.233" y2="16.0073" gradientUnits="userSpaceOnUse">
<stop stop-color="#F9D423"/>
<stop offset="0.515624" stop-color="#FF4E50"/>
<stop offset="0.991304" stop-color="#8A2387"/>
</linearGradient>
<linearGradient id="paint1_linear_314_88" x1="5.55957" y1="5.67268" x2="10.4527" y2="10.7155" gradientUnits="userSpaceOnUse">
<stop stop-color="#F9D423"/>
<stop offset="0.515624" stop-color="#FF4E50"/>
<stop offset="0.991304" stop-color="#8A2387"/>
</linearGradient>
</defs>
</svg>
