<svg width="32" height="32" viewBox="0 0 32 32" fill="none" xmlns="http://www.w3.org/2000/svg">
<path opacity="0.4" d="M21.6 2H10.4C5.76081 2 2 5.76081 2 10.4V21.6C2 26.2392 5.76081 30 10.4 30H21.6C26.2392 30 30 26.2392 30 21.6V10.4C30 5.76081 26.2392 2 21.6 2Z" fill="url(#paint0_linear_235_124)"/>
<path d="M16 6C13.6986 6.00473 11.4692 6.80314 9.68804 8.26053C8.08172 9.57484 6.92857 11.3525 6.38004 13.3428C6.27553 13.722 5.94007 14 5.54672 14V14C4.88558 14 4.49123 14.7368 4.85797 15.2869L6 17L7.16795 18.7519C7.56377 19.3457 8.43623 19.3457 8.83205 18.7519L10 17L11.482 14.777C11.7034 14.4449 11.4653 14 11.0662 14V14C10.7212 14 10.4812 13.6585 10.6336 13.349C11.0729 12.4572 11.7286 11.685 12.5455 11.1057C13.5554 10.3896 14.762 10.0034 16 10C17.3033 10.0007 18.571 10.4257 19.6113 11.2108C20.5389 11.9109 21.2407 12.8633 21.6358 13.9499C21.6926 14.1063 21.9078 14.1385 22 14V14L23.6605 11.5093C23.8219 11.2671 24.1779 11.2672 24.3392 11.5095V11.5095C24.5936 11.8918 25.0174 11.6809 24.8004 11.2761C24.1432 10.0499 23.2331 8.96634 22.1204 8.10217C20.3696 6.74245 18.2167 6.00299 16 6ZM24.832 13.2481C24.4362 12.6543 23.5638 12.6543 23.1679 13.2481L22 15L20.5178 17.2233C20.2965 17.5553 20.5345 18 20.9335 18V18C21.2783 18 21.5182 18.3414 21.3659 18.6507C20.9267 19.5425 20.271 20.3148 19.4541 20.8941C18.4444 21.6102 17.2379 21.9965 16 22C14.6968 21.9992 13.4292 21.5742 12.389 20.7891C11.4615 20.089 10.7597 19.1367 10.3647 18.0503C10.3078 17.8938 10.0924 17.8614 10 18V18L8.33948 20.4908C8.17804 20.7329 7.82216 20.7328 7.6609 20.4905V20.4905C7.40648 20.1083 6.98285 20.3191 7.19977 20.7239C7.85697 21.95 8.76709 23.0336 9.87974 23.8978C11.6304 25.2575 13.7833 25.997 16 26C18.3015 25.9954 20.531 25.1971 22.3123 23.7397C23.9188 22.4253 25.0721 20.6474 25.6206 18.657C25.7251 18.2779 26.0604 18 26.4537 18V18C27.1147 18 27.5089 17.2634 27.1423 16.7134L26 15L24.832 13.2481Z" fill="url(#paint1_linear_235_124)"/>
<defs>
<linearGradient id="paint0_linear_235_124" x1="16" y1="30" x2="16" y2="2" gradientUnits="userSpaceOnUse">
<stop stop-color="#FDA700"/>
<stop offset="1" stop-color="#FFDE00"/>
</linearGradient>
<linearGradient id="paint1_linear_235_124" x1="28" y1="17.0417" x2="4" y2="17.0417" gradientUnits="userSpaceOnUse">
<stop stop-color="#FFCD1A"/>
<stop offset="1" stop-color="#FD9C0C"/>
</linearGradient>
</defs>
</svg>
