<svg width="32" height="32" viewBox="0 0 32 32" fill="none" xmlns="http://www.w3.org/2000/svg">
<path d="M14.7501 28.2502H7.25006C5.80981 28.2484 4.41421 27.75 3.2985 26.8392C2.18279 25.9285 1.41518 24.6609 1.12506 22.1787H30.8751C30.585 24.6609 29.8174 25.9285 28.7016 26.8392C27.5859 27.75 26.1903 28.2484 24.7501 28.2502H17.2501H14.7501Z" fill="url(#paint0_linear_307_251)"/>
<path opacity="0.4" d="M24.75 3.75H7.25C5.59301 3.75199 4.00445 4.4111 2.83277 5.58277C1.6611 6.75445 1.00198 8.34301 1 10V20.75H31V10C30.998 8.34301 30.3389 6.75445 29.1672 5.58277C27.9955 4.4111 26.407 3.75199 24.75 3.75Z" fill="url(#paint1_linear_307_251)"/>
<path fill-rule="evenodd" clip-rule="evenodd" d="M8.04193 7.93408H5.37478C5.00673 7.93408 4.70837 8.23244 4.70837 8.60048V11.2677C4.70837 11.6357 5.00673 11.9341 5.37478 11.9341H8.04193C8.41002 11.9341 8.70837 11.6357 8.70837 11.2677V8.60048C8.70837 8.23244 8.41002 7.93408 8.04193 7.93408ZM13.8546 7.93408H11.1875C10.8194 7.93408 10.5211 8.23244 10.5211 8.60048V11.2677C10.5211 11.6357 10.8194 11.9341 11.1875 11.9341H13.8546C14.2227 11.9341 14.5211 11.6357 14.5211 11.2677V8.60048C14.5211 8.23244 14.2227 7.93408 13.8546 7.93408ZM5.37478 14.0186H8.04193C8.41002 14.0186 8.70837 14.3169 8.70837 14.685V17.3521C8.70837 17.7202 8.41002 18.0185 8.04193 18.0185H5.37478C5.00673 18.0185 4.70837 17.7202 4.70837 17.3521V14.685C4.70837 14.3169 5.00673 14.0186 5.37478 14.0186Z" fill="url(#paint2_linear_307_251)"/>
<defs>
<linearGradient id="paint0_linear_307_251" x1="0.695045" y1="22.2385" x2="3.08152" y2="34.2899" gradientUnits="userSpaceOnUse">
<stop stop-color="#F9D423"/>
<stop offset="0.515624" stop-color="#FF4E50"/>
<stop offset="0.991304" stop-color="#8A2387"/>
</linearGradient>
<linearGradient id="paint1_linear_307_251" x1="0.566371" y1="5.8976" x2="12.7177" y2="30.9438" gradientUnits="userSpaceOnUse">
<stop stop-color="#F9D423"/>
<stop offset="0.515624" stop-color="#FF4E50"/>
<stop offset="0.991304" stop-color="#8A2387"/>
</linearGradient>
<linearGradient id="paint2_linear_307_251" x1="4.56654" y1="8.03331" x2="14.9674" y2="18.4635" gradientUnits="userSpaceOnUse">
<stop stop-color="#F9D423"/>
<stop offset="0.515624" stop-color="#FF4E50"/>
<stop offset="0.991304" stop-color="#8A2387"/>
</linearGradient>
</defs>
</svg>
