<svg width="24" height="24" viewBox="0 0 24 24" fill="none" xmlns="http://www.w3.org/2000/svg">
<path fill-rule="evenodd" clip-rule="evenodd" d="M16.6677 7.33619L22.3571 1.64786L22.3538 1.64456C21.0481 0.338805 18.5741 1.16274 13.625 2.81281L7.96083 4.70048C3.96767 6.03154 1.97109 6.69816 1.40457 7.6739C1.13958 8.12996 1 8.64802 1 9.17547C1 9.70292 1.13958 10.221 1.40457 10.677C1.97109 11.6539 3.96767 12.3194 7.96083 13.6515C8.45585 13.8166 9.01358 13.6977 9.38429 13.3314L15.4411 7.33069C15.6048 7.16886 15.8259 7.07855 16.0561 7.07958C16.2863 7.08061 16.5055 7.1729 16.6677 7.33619Z" fill="url(#paint0_linear_8_742)"/>
<path opacity="0.4" d="M19.2968 16.0375L21.1856 10.3723C22.8334 5.42758 23.6585 2.95358 22.356 1.64673L16.6666 7.33506C16.8288 7.49875 16.9193 7.72015 16.9183 7.95057C16.9172 8.181 16.8247 8.40158 16.6611 8.56381L10.7032 14.4678C10.5047 14.6708 10.3663 14.9248 10.3034 15.2017C10.2405 15.4786 10.2555 15.7675 10.3468 16.0364C11.6779 20.0307 12.3434 22.0273 13.3203 22.5949C13.7762 22.8602 14.2943 23 14.8218 23C15.3493 23 15.8674 22.8602 16.3234 22.5949C17.3002 22.0273 17.9657 20.0318 19.2968 16.0364V16.0375Z" fill="url(#paint1_linear_8_742)"/>
<defs>
<linearGradient id="paint0_linear_8_742" x1="18.4921" y1="1" x2="10.113" y2="18.1714" gradientUnits="userSpaceOnUse">
<stop stop-color="#DE00C0"/>
<stop offset="1" stop-color="#8720FF"/>
</linearGradient>
<linearGradient id="paint1_linear_8_742" x1="20.6938" y1="1.64673" x2="3.71736" y2="14.0064" gradientUnits="userSpaceOnUse">
<stop stop-color="#DE00C0"/>
<stop offset="1" stop-color="#8720FF"/>
</linearGradient>
</defs>
</svg>
