<svg width="64" height="64" viewBox="0 0 64 64" fill="none" xmlns="http://www.w3.org/2000/svg">
<rect opacity="0.4" x="2" y="2.30322" width="60" height="59.3939" rx="4" fill="url(#paint0_linear_332_93)"/>
<path opacity="0.4" d="M33.2962 43.3315C45.75 48.274 49.9167 46.9662 62 43.7309V57.6969C62 59.9061 60.2091 61.6969 58 61.6969H6C3.79086 61.6969 2 59.9061 2 57.6969V41.3905C13.875 37.4669 21.8841 37.6353 33.2962 43.3315Z" fill="url(#paint1_linear_332_93)"/>
<path d="M30.7038 42.925C18.25 47.977 14.0833 46.6402 2 43.3333V57.6972C2 59.9063 3.79086 61.6972 6 61.6972H58C60.2091 61.6972 62 59.9063 62 57.6972V40.9411C50.125 36.9305 42.1159 37.1027 30.7038 42.925Z" fill="url(#paint2_linear_332_93)"/>
<path d="M22.9608 19.028H24.5689C25.4087 19.028 26.0894 18.3472 26.0894 17.5075V9.18939C26.0894 8.10715 26.9749 7.22168 28.0572 7.22168H35.928C37.0103 7.22168 37.8957 8.10715 37.8957 9.18939V17.5075C37.8957 18.3472 38.5765 19.028 39.4162 19.028H41.0244C42.7757 19.028 43.6611 21.1531 42.4215 22.3928L33.3897 31.4246C32.6223 32.192 31.3826 32.192 30.6152 31.4246L21.5834 22.3928C20.3437 21.1531 21.2095 19.028 22.9608 19.028Z" fill="url(#paint3_linear_332_93)"/>
<defs>
<linearGradient id="paint0_linear_332_93" x1="46.4665" y1="43.0654" x2="12.1332" y2="11.5806" gradientUnits="userSpaceOnUse">
<stop stop-color="#731FFF"/>
<stop offset="0.905415" stop-color="#EB1AFF"/>
</linearGradient>
<linearGradient id="paint1_linear_332_93" x1="2" y1="61.6969" x2="14.6751" y2="28.2421" gradientUnits="userSpaceOnUse">
<stop stop-color="#731FFF"/>
<stop offset="0.905415" stop-color="#EB1AFF"/>
</linearGradient>
<linearGradient id="paint2_linear_332_93" x1="54.6454" y1="46.7485" x2="26.2431" y2="10.4978" gradientUnits="userSpaceOnUse">
<stop offset="0.118093" stop-color="#731FFF"/>
<stop offset="0.905415" stop-color="#EB1AFF"/>
</linearGradient>
<linearGradient id="paint3_linear_332_93" x1="37.3044" y1="24.2272" x2="23.2552" y2="12.9039" gradientUnits="userSpaceOnUse">
<stop stop-color="#731FFF"/>
<stop offset="0.905415" stop-color="#EB1AFF"/>
</linearGradient>
</defs>
</svg>
