<svg width="64" height="64" viewBox="0 0 64 64" fill="none" xmlns="http://www.w3.org/2000/svg">
<path opacity="0.4" fill-rule="evenodd" clip-rule="evenodd" d="M6.96115 6.9609C2.66675 11.2612 2.66675 18.1721 2.66675 31.9998C2.66675 45.8276 2.66675 52.7414 6.96115 57.0358C11.2614 61.3332 18.1723 61.3332 32.0001 61.3332C45.8278 61.3332 52.7417 61.3332 57.0361 57.0358C61.3334 52.7444 61.3334 45.8276 61.3334 31.9998C61.3334 18.1721 61.3334 11.2582 57.0361 6.9609C52.7446 2.6665 45.8278 2.6665 32.0001 2.6665C18.1723 2.6665 11.2585 2.6665 6.96115 6.9609Z" fill="url(#paint0_radial_214_100)"/>
<path d="M21.745 35.4524C20.922 34.5788 19.7869 34.066 18.5874 34.0257C17.3878 33.9857 16.221 34.4214 15.3415 35.2382L12.9655 37.447C12.5376 37.8444 11.9695 38.055 11.3861 38.0334C10.8027 38.0118 10.2519 37.759 9.85472 37.3313C9.45755 36.9033 9.24664 36.3353 9.26837 35.7518C9.29011 35.1684 9.54269 34.6177 9.97059 34.2204L12.3466 32.0145C14.077 30.4068 16.3731 29.5486 18.7338 29.6273C21.0946 29.7057 23.3285 30.7148 24.9482 32.434L32.7127 40.6766C33.1053 41.0932 33.637 41.3508 34.2071 41.4006C34.7773 41.4505 35.3458 41.2889 35.8045 40.9465C37.509 39.675 39.609 39.0481 41.7317 39.1777C43.8543 39.307 45.8626 40.1841 47.3999 41.6534L54.0527 48.01C54.4562 48.4172 54.685 48.9657 54.6901 49.5388C54.6954 50.1118 54.4767 50.6644 54.0807 51.0788C53.6847 51.4932 53.1426 51.7366 52.5698 51.7574C51.997 51.778 51.4386 51.5745 51.0138 51.1897L44.361 44.8361C43.5754 44.0852 42.549 43.6369 41.4645 43.571C40.3797 43.5049 39.3066 43.8254 38.4357 44.4753C37.1114 45.4633 35.4698 45.9297 33.8239 45.786C32.1781 45.642 30.6423 44.898 29.5095 43.695L21.745 35.4524ZM49.5999 20.2666C49.5999 21.8225 48.9818 23.3147 47.8815 24.4149C46.7815 25.5152 45.2893 26.1332 43.7333 26.1332C42.1773 26.1332 40.685 25.5152 39.585 24.4149C38.4847 23.3147 37.8666 21.8225 37.8666 20.2666C37.8666 18.7106 38.4847 17.2184 39.585 16.1182C40.685 15.018 42.1773 14.3999 43.7333 14.3999C45.2893 14.3999 46.7815 15.018 47.8815 16.1182C48.9818 17.2184 49.5999 18.7106 49.5999 20.2666Z" fill="url(#paint1_radial_214_100)" stroke="url(#paint2_radial_214_100)"/>
<defs>
<radialGradient id="paint0_radial_214_100" cx="0" cy="0" r="1" gradientUnits="userSpaceOnUse" gradientTransform="translate(10 59) rotate(-40.9717) scale(75.4934 51.1749)">
<stop stop-color="#FFF44F"/>
<stop offset="0.06" stop-color="#FFE847"/>
<stop offset="0.168" stop-color="#FFC830"/>
<stop offset="0.304" stop-color="#FF980E"/>
<stop offset="0.356" stop-color="#FF8B16"/>
<stop offset="0.455" stop-color="#FF672A"/>
<stop offset="0.57" stop-color="#FF3647"/>
<stop offset="0.737" stop-color="#E31587"/>
</radialGradient>
<radialGradient id="paint1_radial_214_100" cx="0" cy="0" r="1" gradientUnits="userSpaceOnUse" gradientTransform="translate(37.3069 11.8693) rotate(82.4453) scale(40.5314 33.2191)">
<stop stop-color="#FFF44F"/>
<stop offset="0.06" stop-color="#FFE847"/>
<stop offset="0.168" stop-color="#FFC830"/>
<stop offset="0.304" stop-color="#FF980E"/>
<stop offset="0.356" stop-color="#FF8B16"/>
<stop offset="0.455" stop-color="#FF672A"/>
<stop offset="0.57" stop-color="#FF3647"/>
<stop offset="0.737" stop-color="#E31587"/>
</radialGradient>
<radialGradient id="paint2_radial_214_100" cx="0" cy="0" r="1" gradientUnits="userSpaceOnUse" gradientTransform="translate(37.3069 11.8693) rotate(82.4453) scale(40.5314 33.2191)">
<stop stop-color="#FFF44F"/>
<stop offset="0.06" stop-color="#FFE847"/>
<stop offset="0.168" stop-color="#FFC830"/>
<stop offset="0.304" stop-color="#FF980E"/>
<stop offset="0.356" stop-color="#FF8B16"/>
<stop offset="0.455" stop-color="#FF672A"/>
<stop offset="0.57" stop-color="#FF3647"/>
<stop offset="0.737" stop-color="#E31587"/>
</radialGradient>
</defs>
</svg>
