<svg width="32" height="32" viewBox="0 0 32 32" fill="none" xmlns="http://www.w3.org/2000/svg">
<path opacity="0.4" d="M3.73237 1.00103C3.37746 0.991718 3.02406 1.04568 2.6931 1.15972C2.36213 1.27375 2.06033 1.44555 1.80556 1.66493C1.5508 1.8843 1.34825 2.1468 1.20992 2.43687C1.07159 2.72694 1.00029 3.03869 1.00024 3.35365V28.6454C1.0001 29.0587 1.12265 29.4648 1.35556 29.8227C1.58848 30.1807 1.92354 30.478 2.32707 30.6847C2.73059 30.8913 3.18835 31.0001 3.6543 31C4.12025 31 4.57797 30.8911 4.98143 30.6843L17.3265 24.3601L29.6728 18.0383C30.0764 17.8318 30.4115 17.5346 30.6446 17.1767C30.8776 16.8188 31.0002 16.4127 31.0002 15.9994C31.0002 15.5861 30.8776 15.1801 30.6446 14.8222C30.4115 14.4643 30.0764 14.1671 29.6728 13.9605L17.3262 7.64008L4.98128 1.31588C4.60062 1.12121 4.17157 1.01224 3.73237 1.00103Z" fill="url(#paint0_linear_107_89)"/>
<path d="M16.4518 7.60082C16.6529 7.59554 16.8532 7.62612 17.0407 7.69074C17.2283 7.75536 17.3993 7.85271 17.5437 7.97702C17.688 8.10133 17.8028 8.25007 17.8812 8.41444C17.9596 8.57881 18 8.75547 18 8.93394V23.2658C18.0002 23.5001 17.9308 23.7302 17.7989 23.9332C17.667 24.1361 17.4771 24.3046 17.2485 24.4218C17.0198 24.539 16.7604 24.6007 16.4963 24.6007C16.2322 24.6007 15.9728 24.539 15.7441 24.4218L8.74838 20.8369L1.75223 17.2563C1.52354 17.1393 1.33361 16.9709 1.20157 16.768C1.06952 16.5652 1 16.3351 1 16.1009C1 15.8667 1.06952 15.6366 1.20157 15.4338C1.33361 15.231 1.52354 15.0626 1.75223 14.9456L8.74838 11.3615L15.7441 7.77773C15.9598 7.66741 16.2029 7.60717 16.4518 7.60082Z" fill="url(#paint1_linear_107_89)"/>
<defs>
<linearGradient id="paint0_linear_107_89" x1="16.0002" y1="31" x2="16.0002" y2="1" gradientUnits="userSpaceOnUse">
<stop stop-color="#5558FF"/>
<stop offset="1" stop-color="#00C0FF"/>
</linearGradient>
<linearGradient id="paint1_linear_107_89" x1="9.5" y1="24.6007" x2="9.5" y2="7.59998" gradientUnits="userSpaceOnUse">
<stop stop-color="#5558FF"/>
<stop offset="1" stop-color="#00C0FF"/>
</linearGradient>
</defs>
</svg>
