<svg width="24" height="24" viewBox="0 0 24 24" fill="none" xmlns="http://www.w3.org/2000/svg">
<path opacity="0.4" d="M12 23C18.0753 23 23 18.0753 23 12C23 5.9247 18.0753 1 12 1C5.9247 1 1 5.9247 1 12C1 13.76 1.4136 15.4232 2.1473 16.8983C2.3431 17.2899 2.408 17.7376 2.2947 18.1611L1.6402 20.6097C1.57562 20.8519 1.57586 21.1069 1.6409 21.349C1.70595 21.5912 1.8335 21.8119 2.01078 21.9892C2.18806 22.1665 2.40883 22.294 2.65095 22.3591C2.89308 22.4241 3.14805 22.4244 3.3903 22.3598L5.8389 21.7053C6.26394 21.5983 6.71343 21.6504 7.1028 21.8516C8.62401 22.6091 10.3006 23.0022 12 23Z" fill="url(#paint0_linear_42_118)"/>
<path d="M10.1339 5.1091C10.5227 4.92756 11.1368 4.93044 11.2445 5.44919C11.2642 5.60746 11.2859 5.7658 11.3076 5.92424L11.3077 5.92505C11.3649 6.3421 11.4221 6.75992 11.4439 7.17851C11.4454 7.74484 10.5701 7.91488 10.3304 7.4134C10.1224 6.90325 9.92581 6.38737 9.74067 5.86857C9.6101 5.56452 9.81387 5.17977 10.1339 5.1091Z" fill="url(#paint1_linear_42_118)"/>
<path d="M12.7458 5.93984C12.7362 6.06855 12.7268 6.19349 12.7039 6.3023C12.7003 6.40987 12.6812 6.52712 12.6615 6.64707L12.6615 6.64721C12.6028 7.00617 12.5402 7.38943 12.879 7.61079C13.2076 7.81829 13.6925 7.64974 13.7858 7.26062C13.8488 7.0807 13.9192 6.90308 13.9896 6.72556L13.9898 6.72498L13.9899 6.72475C14.1359 6.3564 14.2818 5.98831 14.3612 5.60051C14.2766 5.0947 13.661 4.98083 13.2434 5.00247C12.8082 5.11123 12.7757 5.54314 12.7459 5.9393L12.7459 5.93941L12.7458 5.93984Z" fill="url(#paint2_linear_42_118)"/>
<path d="M7.22257 7.65398C6.51088 7.0487 7.83527 5.8483 8.36761 6.60486C8.4541 6.72858 8.54232 6.85175 8.63038 6.97471L8.63258 6.97778C8.88139 7.32503 9.13055 7.6728 9.3462 8.04019C9.47677 8.49698 8.97597 8.9725 8.53118 8.77078C8.2615 8.57228 8.01231 8.3482 7.76311 8.12411L7.7631 8.1241C7.58542 7.9643 7.4077 7.80453 7.22257 7.65398Z" fill="url(#paint3_linear_42_118)"/>
<path d="M6.6409 9.07398C6.33826 8.90599 5.99598 8.71605 5.69433 8.974C5.37579 9.31988 5.11896 10.0606 5.6585 10.3315C6.21381 10.5058 6.79059 10.6384 7.36455 10.7523C7.91412 10.8661 8.25276 10.0822 7.83951 9.72914C7.64403 9.592 7.43078 9.48494 7.2174 9.37782L7.21704 9.37765C7.08749 9.31264 6.9579 9.24758 6.83221 9.17576C6.77088 9.1461 6.70681 9.11058 6.6409 9.07398Z" fill="url(#paint4_linear_42_118)"/>
<path d="M15.8949 6.40597C16.5062 6.11203 17.4503 7.08474 16.852 7.62656C16.6888 7.76344 16.5328 7.90944 16.3769 8.05541L16.3762 8.05607C16.1072 8.30779 15.8383 8.55934 15.5333 8.76358C15.0326 9.03592 14.4543 8.32839 14.8015 7.87876C14.9349 7.7055 15.0546 7.51856 15.1743 7.3315L15.1744 7.33133C15.3883 6.99721 15.6024 6.6628 15.8949 6.40597Z" fill="url(#paint5_linear_42_118)"/>
<path d="M17.8356 8.85148C17.3176 9.10946 16.8025 9.37606 16.3002 9.66426C15.798 9.95679 16.1194 10.8387 16.6919 10.7407C16.8679 10.6966 17.0469 10.6582 17.2263 10.6198L17.2296 10.6191C17.6883 10.5207 18.1499 10.4217 18.5731 10.2263C18.9706 9.74067 18.5257 8.6699 17.8356 8.85148Z" fill="url(#paint6_linear_42_118)"/>
<path d="M5.77772 13.4614C4.934 13.6603 4.68861 12.0795 5.48498 11.9209C6.06609 11.9036 6.64725 11.908 7.22981 11.918C7.75071 11.967 7.88271 12.6501 7.54694 12.9931C7.1282 13.147 6.69181 13.2477 6.25632 13.3482C6.09635 13.3851 5.9365 13.422 5.77772 13.4614Z" fill="url(#paint7_linear_42_118)"/>
<path d="M16.8173 11.9773C16.3725 11.9989 16.1817 12.594 16.4758 12.9111C16.8036 13.1101 17.1787 13.1893 17.5533 13.2684L17.5537 13.2685C17.7512 13.3102 17.9486 13.3519 18.1388 13.4111C18.4789 13.5581 18.9424 13.3967 18.994 12.9975C19.1002 12.6517 19.1246 12.1357 18.7042 11.9989C18.2564 11.9544 17.8032 11.9626 17.3509 11.9708L17.3439 11.9709C17.1682 11.9741 16.9925 11.9773 16.8173 11.9773Z" fill="url(#paint8_linear_42_118)"/>
<path d="M8.55857 14.5337C8.44517 14.2123 8.05348 14.0005 7.73781 14.172C7.49477 14.2894 7.25604 14.417 7.01719 14.5447L7.01571 14.5455C6.84189 14.6384 6.66799 14.7314 6.49233 14.8205C6.00447 14.9646 5.87672 15.5842 6.23978 15.9301C6.40477 16.214 6.73051 16.4387 7.06628 16.2918C7.36249 16.0744 7.63423 15.8261 7.90598 15.5777C8.04491 15.4507 8.18389 15.3237 8.32612 15.2009C8.52986 15.0452 8.61595 14.783 8.55857 14.5337Z" fill="url(#paint9_linear_42_118)"/>
<path d="M15.5445 14.9702C15.3335 14.535 15.7841 13.9774 16.2533 14.1316C16.4839 14.2327 16.7058 14.3519 16.9278 14.4713L16.9303 14.4727C17.0777 14.5519 17.2252 14.6311 17.3754 14.7051C17.4159 14.7271 17.4578 14.7483 17.5 14.7697L17.5033 14.7713L17.5036 14.7715C17.7204 14.8812 17.9458 14.9953 18.0426 15.2354C18.0928 15.7585 17.5935 16.5194 17.0009 16.2744C16.4929 15.8695 15.9936 15.4415 15.5445 14.9702Z" fill="url(#paint10_linear_42_118)"/>
<path d="M10.3029 16.5035C10.5196 16.041 9.98863 15.5222 9.5309 15.7181C9.28855 15.8455 9.14428 16.0783 9.00038 16.3105L9.00023 16.3108L9.00002 16.3111C8.92591 16.4307 8.85191 16.5501 8.76466 16.6549C8.72501 16.715 8.67867 16.7779 8.63072 16.843L8.62902 16.8453C8.38398 17.1779 8.09677 17.5677 8.42602 17.9345C8.74747 18.217 9.3042 18.5326 9.66002 18.1291C9.84944 17.7518 9.9936 17.3525 10.1373 16.9544C10.1917 16.8035 10.2461 16.6528 10.3029 16.5035Z" fill="url(#paint11_linear_42_118)"/>
<path d="M13.7444 16.394C13.6081 15.8767 14.2896 15.4631 14.6928 15.7975C14.9205 16.0629 15.1165 16.3539 15.3127 16.6453C15.4553 16.8571 15.5981 17.0691 15.7532 17.2716C16.0761 18.0412 14.6971 18.7271 14.3197 17.9547C14.233 17.7028 14.1378 17.4541 14.0427 17.2055L14.0423 17.2044C13.9395 16.9357 13.8367 16.667 13.7444 16.394Z" fill="url(#paint12_linear_42_118)"/>
<path d="M12.5973 16.6174C12.4266 16.1245 11.6316 16.1317 11.4781 16.6332C11.3791 17.2327 11.3116 17.8408 11.26 18.4475C11.3776 19.1911 12.715 19.1781 12.847 18.4446C12.7954 18.1696 12.767 17.8907 12.7385 17.6117L12.7384 17.6103C12.7046 17.2772 12.6707 16.9441 12.5973 16.6174Z" fill="url(#paint13_linear_42_118)"/>
<path d="M10.1339 5.1091C10.5227 4.92756 11.1368 4.93044 11.2445 5.44919C11.2642 5.60746 11.2859 5.7658 11.3076 5.92424L11.3077 5.92505C11.3649 6.3421 11.4221 6.75992 11.4439 7.17851C11.4454 7.74484 10.5701 7.91488 10.3304 7.4134C10.1224 6.90325 9.92581 6.38737 9.74067 5.86857C9.6101 5.56452 9.81387 5.17977 10.1339 5.1091Z" stroke="url(#paint14_linear_42_118)" stroke-width="0.6"/>
<path d="M12.7458 5.93984C12.7362 6.06855 12.7268 6.19349 12.7039 6.3023C12.7003 6.40987 12.6812 6.52712 12.6615 6.64707L12.6615 6.64721C12.6028 7.00617 12.5402 7.38943 12.879 7.61079C13.2076 7.81829 13.6925 7.64974 13.7858 7.26062C13.8488 7.0807 13.9192 6.90308 13.9896 6.72556L13.9898 6.72498L13.9899 6.72475C14.1359 6.3564 14.2818 5.98831 14.3612 5.60051C14.2766 5.0947 13.661 4.98083 13.2434 5.00247C12.8082 5.11123 12.7757 5.54314 12.7459 5.9393L12.7459 5.93941L12.7458 5.93984Z" stroke="url(#paint15_linear_42_118)" stroke-width="0.6"/>
<path d="M7.22257 7.65398C6.51088 7.0487 7.83527 5.8483 8.36761 6.60486C8.4541 6.72858 8.54232 6.85175 8.63038 6.97471L8.63258 6.97778C8.88139 7.32503 9.13055 7.6728 9.3462 8.04019C9.47677 8.49698 8.97597 8.9725 8.53118 8.77078C8.2615 8.57228 8.01231 8.3482 7.76311 8.12411L7.7631 8.1241C7.58542 7.9643 7.4077 7.80453 7.22257 7.65398Z" stroke="url(#paint16_linear_42_118)" stroke-width="0.6"/>
<path d="M6.6409 9.07398C6.33826 8.90599 5.99598 8.71605 5.69433 8.974C5.37579 9.31988 5.11896 10.0606 5.6585 10.3315C6.21381 10.5058 6.79059 10.6384 7.36455 10.7523C7.91412 10.8661 8.25276 10.0822 7.83951 9.72914C7.64403 9.592 7.43078 9.48494 7.2174 9.37782L7.21704 9.37765C7.08749 9.31264 6.9579 9.24758 6.83221 9.17576C6.77088 9.1461 6.70681 9.11058 6.6409 9.07398Z" stroke="url(#paint17_linear_42_118)" stroke-width="0.6"/>
<path d="M15.8949 6.40597C16.5062 6.11203 17.4503 7.08474 16.852 7.62656C16.6888 7.76344 16.5328 7.90944 16.3769 8.05541L16.3762 8.05607C16.1072 8.30779 15.8383 8.55934 15.5333 8.76358C15.0326 9.03592 14.4543 8.32839 14.8015 7.87876C14.9349 7.7055 15.0546 7.51856 15.1743 7.3315L15.1744 7.33133C15.3883 6.99721 15.6024 6.6628 15.8949 6.40597Z" stroke="url(#paint18_linear_42_118)" stroke-width="0.6"/>
<path d="M17.8356 8.85148C17.3176 9.10946 16.8025 9.37606 16.3002 9.66426C15.798 9.95679 16.1194 10.8387 16.6919 10.7407C16.8679 10.6966 17.0469 10.6582 17.2263 10.6198L17.2296 10.6191C17.6883 10.5207 18.1499 10.4217 18.5731 10.2263C18.9706 9.74067 18.5257 8.6699 17.8356 8.85148Z" stroke="url(#paint19_linear_42_118)" stroke-width="0.6"/>
<path d="M5.77772 13.4614C4.934 13.6603 4.68861 12.0795 5.48498 11.9209C6.06609 11.9036 6.64725 11.908 7.22981 11.918C7.75071 11.967 7.88271 12.6501 7.54694 12.9931C7.1282 13.147 6.69181 13.2477 6.25632 13.3482C6.09635 13.3851 5.9365 13.422 5.77772 13.4614Z" stroke="url(#paint20_linear_42_118)" stroke-width="0.6"/>
<path d="M16.8173 11.9773C16.3725 11.9989 16.1817 12.594 16.4758 12.9111C16.8036 13.1101 17.1787 13.1893 17.5533 13.2684L17.5537 13.2685C17.7512 13.3102 17.9486 13.3519 18.1388 13.4111C18.4789 13.5581 18.9424 13.3967 18.994 12.9975C19.1002 12.6517 19.1246 12.1357 18.7042 11.9989C18.2564 11.9544 17.8032 11.9626 17.3509 11.9708L17.3439 11.9709C17.1682 11.9741 16.9925 11.9773 16.8173 11.9773Z" stroke="url(#paint21_linear_42_118)" stroke-width="0.6"/>
<path d="M8.55857 14.5337C8.44517 14.2123 8.05348 14.0005 7.73781 14.172C7.49477 14.2894 7.25604 14.417 7.01719 14.5447L7.01571 14.5455C6.84189 14.6384 6.66799 14.7314 6.49233 14.8205C6.00447 14.9646 5.87672 15.5842 6.23978 15.9301C6.40477 16.214 6.73051 16.4387 7.06628 16.2918C7.36249 16.0744 7.63423 15.8261 7.90598 15.5777C8.04491 15.4507 8.18389 15.3237 8.32612 15.2009C8.52986 15.0452 8.61595 14.783 8.55857 14.5337Z" stroke="url(#paint22_linear_42_118)" stroke-width="0.6"/>
<path d="M15.5445 14.9702C15.3335 14.535 15.7841 13.9774 16.2533 14.1316C16.4839 14.2327 16.7058 14.3519 16.9278 14.4713L16.9303 14.4727C17.0777 14.5519 17.2252 14.6311 17.3754 14.7051C17.4159 14.7271 17.4578 14.7483 17.5 14.7697L17.5033 14.7713L17.5036 14.7715C17.7204 14.8812 17.9458 14.9953 18.0426 15.2354C18.0928 15.7585 17.5935 16.5194 17.0009 16.2744C16.4929 15.8695 15.9936 15.4415 15.5445 14.9702Z" stroke="url(#paint23_linear_42_118)" stroke-width="0.6"/>
<path d="M10.3029 16.5035C10.5196 16.041 9.98863 15.5222 9.5309 15.7181C9.28855 15.8455 9.14428 16.0783 9.00038 16.3105L9.00023 16.3108L9.00002 16.3111C8.92591 16.4307 8.85191 16.5501 8.76466 16.6549C8.72501 16.715 8.67867 16.7779 8.63072 16.843L8.62902 16.8453C8.38398 17.1779 8.09677 17.5677 8.42602 17.9345C8.74747 18.217 9.3042 18.5326 9.66002 18.1291C9.84944 17.7518 9.9936 17.3525 10.1373 16.9544C10.1917 16.8035 10.2461 16.6528 10.3029 16.5035Z" stroke="url(#paint24_linear_42_118)" stroke-width="0.6"/>
<path d="M13.7444 16.394C13.6081 15.8767 14.2896 15.4631 14.6928 15.7975C14.9205 16.0629 15.1165 16.3539 15.3127 16.6453C15.4553 16.8571 15.5981 17.0691 15.7532 17.2716C16.0761 18.0412 14.6971 18.7271 14.3197 17.9547C14.233 17.7028 14.1378 17.4541 14.0427 17.2055L14.0423 17.2044C13.9395 16.9357 13.8367 16.667 13.7444 16.394Z" stroke="url(#paint25_linear_42_118)" stroke-width="0.6"/>
<path d="M12.5973 16.6174C12.4266 16.1245 11.6316 16.1317 11.4781 16.6332C11.3791 17.2327 11.3116 17.8408 11.26 18.4475C11.3776 19.1911 12.715 19.1781 12.847 18.4446C12.7954 18.1696 12.767 17.8907 12.7385 17.6117L12.7384 17.6103C12.7046 17.2772 12.6707 16.9441 12.5973 16.6174Z" stroke="url(#paint26_linear_42_118)" stroke-width="0.6"/>
<defs>
<linearGradient id="paint0_linear_42_118" x1="-7.39488" y1="31.4362" x2="39.5983" y2="11.041" gradientUnits="userSpaceOnUse">
<stop stop-color="#0357D1"/>
<stop offset="1" stop-color="#27CDFC"/>
</linearGradient>
<linearGradient id="paint1_linear_42_118" x1="-0.365087" y1="24.3685" x2="29.627" y2="11.2961" gradientUnits="userSpaceOnUse">
<stop stop-color="#0357D1"/>
<stop offset="1" stop-color="#27CDFC"/>
</linearGradient>
<linearGradient id="paint2_linear_42_118" x1="-0.365087" y1="24.3685" x2="29.627" y2="11.2961" gradientUnits="userSpaceOnUse">
<stop stop-color="#0357D1"/>
<stop offset="1" stop-color="#27CDFC"/>
</linearGradient>
<linearGradient id="paint3_linear_42_118" x1="-0.365087" y1="24.3685" x2="29.627" y2="11.2961" gradientUnits="userSpaceOnUse">
<stop stop-color="#0357D1"/>
<stop offset="1" stop-color="#27CDFC"/>
</linearGradient>
<linearGradient id="paint4_linear_42_118" x1="-0.365087" y1="24.3685" x2="29.627" y2="11.2961" gradientUnits="userSpaceOnUse">
<stop stop-color="#0357D1"/>
<stop offset="1" stop-color="#27CDFC"/>
</linearGradient>
<linearGradient id="paint5_linear_42_118" x1="-0.365087" y1="24.3685" x2="29.627" y2="11.2961" gradientUnits="userSpaceOnUse">
<stop stop-color="#0357D1"/>
<stop offset="1" stop-color="#27CDFC"/>
</linearGradient>
<linearGradient id="paint6_linear_42_118" x1="-0.365087" y1="24.3685" x2="29.627" y2="11.2961" gradientUnits="userSpaceOnUse">
<stop stop-color="#0357D1"/>
<stop offset="1" stop-color="#27CDFC"/>
</linearGradient>
<linearGradient id="paint7_linear_42_118" x1="-0.365087" y1="24.3685" x2="29.627" y2="11.2961" gradientUnits="userSpaceOnUse">
<stop stop-color="#0357D1"/>
<stop offset="1" stop-color="#27CDFC"/>
</linearGradient>
<linearGradient id="paint8_linear_42_118" x1="-0.365087" y1="24.3685" x2="29.627" y2="11.2961" gradientUnits="userSpaceOnUse">
<stop stop-color="#0357D1"/>
<stop offset="1" stop-color="#27CDFC"/>
</linearGradient>
<linearGradient id="paint9_linear_42_118" x1="-0.365087" y1="24.3685" x2="29.627" y2="11.2961" gradientUnits="userSpaceOnUse">
<stop stop-color="#0357D1"/>
<stop offset="1" stop-color="#27CDFC"/>
</linearGradient>
<linearGradient id="paint10_linear_42_118" x1="-0.365087" y1="24.3685" x2="29.627" y2="11.2961" gradientUnits="userSpaceOnUse">
<stop stop-color="#0357D1"/>
<stop offset="1" stop-color="#27CDFC"/>
</linearGradient>
<linearGradient id="paint11_linear_42_118" x1="-0.365087" y1="24.3685" x2="29.627" y2="11.2961" gradientUnits="userSpaceOnUse">
<stop stop-color="#0357D1"/>
<stop offset="1" stop-color="#27CDFC"/>
</linearGradient>
<linearGradient id="paint12_linear_42_118" x1="-0.365087" y1="24.3685" x2="29.627" y2="11.2961" gradientUnits="userSpaceOnUse">
<stop stop-color="#0357D1"/>
<stop offset="1" stop-color="#27CDFC"/>
</linearGradient>
<linearGradient id="paint13_linear_42_118" x1="-0.365087" y1="24.3685" x2="29.627" y2="11.2961" gradientUnits="userSpaceOnUse">
<stop stop-color="#0357D1"/>
<stop offset="1" stop-color="#27CDFC"/>
</linearGradient>
<linearGradient id="paint14_linear_42_118" x1="-0.365087" y1="24.3685" x2="29.627" y2="11.2961" gradientUnits="userSpaceOnUse">
<stop stop-color="#0357D1"/>
<stop offset="1" stop-color="#27CDFC"/>
</linearGradient>
<linearGradient id="paint15_linear_42_118" x1="-0.365087" y1="24.3685" x2="29.627" y2="11.2961" gradientUnits="userSpaceOnUse">
<stop stop-color="#0357D1"/>
<stop offset="1" stop-color="#27CDFC"/>
</linearGradient>
<linearGradient id="paint16_linear_42_118" x1="-0.365087" y1="24.3685" x2="29.627" y2="11.2961" gradientUnits="userSpaceOnUse">
<stop stop-color="#0357D1"/>
<stop offset="1" stop-color="#27CDFC"/>
</linearGradient>
<linearGradient id="paint17_linear_42_118" x1="-0.365087" y1="24.3685" x2="29.627" y2="11.2961" gradientUnits="userSpaceOnUse">
<stop stop-color="#0357D1"/>
<stop offset="1" stop-color="#27CDFC"/>
</linearGradient>
<linearGradient id="paint18_linear_42_118" x1="-0.365087" y1="24.3685" x2="29.627" y2="11.2961" gradientUnits="userSpaceOnUse">
<stop stop-color="#0357D1"/>
<stop offset="1" stop-color="#27CDFC"/>
</linearGradient>
<linearGradient id="paint19_linear_42_118" x1="-0.365087" y1="24.3685" x2="29.627" y2="11.2961" gradientUnits="userSpaceOnUse">
<stop stop-color="#0357D1"/>
<stop offset="1" stop-color="#27CDFC"/>
</linearGradient>
<linearGradient id="paint20_linear_42_118" x1="-0.365087" y1="24.3685" x2="29.627" y2="11.2961" gradientUnits="userSpaceOnUse">
<stop stop-color="#0357D1"/>
<stop offset="1" stop-color="#27CDFC"/>
</linearGradient>
<linearGradient id="paint21_linear_42_118" x1="-0.365087" y1="24.3685" x2="29.627" y2="11.2961" gradientUnits="userSpaceOnUse">
<stop stop-color="#0357D1"/>
<stop offset="1" stop-color="#27CDFC"/>
</linearGradient>
<linearGradient id="paint22_linear_42_118" x1="-0.365087" y1="24.3685" x2="29.627" y2="11.2961" gradientUnits="userSpaceOnUse">
<stop stop-color="#0357D1"/>
<stop offset="1" stop-color="#27CDFC"/>
</linearGradient>
<linearGradient id="paint23_linear_42_118" x1="-0.365087" y1="24.3685" x2="29.627" y2="11.2961" gradientUnits="userSpaceOnUse">
<stop stop-color="#0357D1"/>
<stop offset="1" stop-color="#27CDFC"/>
</linearGradient>
<linearGradient id="paint24_linear_42_118" x1="-0.365087" y1="24.3685" x2="29.627" y2="11.2961" gradientUnits="userSpaceOnUse">
<stop stop-color="#0357D1"/>
<stop offset="1" stop-color="#27CDFC"/>
</linearGradient>
<linearGradient id="paint25_linear_42_118" x1="-0.365087" y1="24.3685" x2="29.627" y2="11.2961" gradientUnits="userSpaceOnUse">
<stop stop-color="#0357D1"/>
<stop offset="1" stop-color="#27CDFC"/>
</linearGradient>
<linearGradient id="paint26_linear_42_118" x1="-0.365087" y1="24.3685" x2="29.627" y2="11.2961" gradientUnits="userSpaceOnUse">
<stop stop-color="#0357D1"/>
<stop offset="1" stop-color="#27CDFC"/>
</linearGradient>
</defs>
</svg>
