<svg width="64" height="64" viewBox="0 0 64 64" fill="none" xmlns="http://www.w3.org/2000/svg">
<path opacity="0.56" d="M33 4C17.5537 4 5 16.5537 5 32C5 47.4463 17.5537 60 33 60C48.4463 60 61 47.4463 61 32C61 16.5537 48.4463 4 33 4Z" fill="url(#paint0_linear_54_110)"/>
<path d="M38.5342 10.769C35.5691 10.0129 32.2613 9.55679 29.4675 11.1265C27.1346 12.3675 25.3971 14.6769 24.875 17.2822C24.0145 21.2353 26.119 25.5747 29.7653 27.28C31.7148 28.3279 34.0111 28.0197 36.0463 28.8004C43.4816 31.0359 49.11 38.2559 49.4037 46.084C49.4063 46.1955 49.4121 46.379 49.4171 46.5436C49.421 46.671 49.552 46.7625 49.6754 46.7304C49.7134 46.7205 49.7395 46.7008 49.7647 46.6707C51.9921 44.0092 53.6216 40.8456 54.4244 37.4545C55.4726 32.9467 55.1381 28.106 53.3803 23.8159C50.8107 17.4548 45.1537 12.4415 38.5342 10.769Z" fill="url(#paint1_linear_54_110)"/>
<path d="M13.6352 21.2679C13.0962 22.2682 12.6346 23.3112 12.2518 24.3788C11.8888 25.4842 11.5625 26.6061 11.3586 27.7525C10.3472 33.1768 11.3831 38.975 14.3237 43.6431C17.7376 49.169 23.6582 53.0703 30.089 53.8602C30.1965 53.8734 30.305 53.8763 30.4132 53.8728C31.636 53.8334 32.8623 54.005 34.0886 53.8751C34.9084 53.6779 35.7241 53.4231 36.4705 53.0204C40.0229 51.2206 41.997 46.8894 41.0833 42.9979C40.337 39.4352 37.2454 36.534 33.6603 36.0409C29.594 35.7245 25.703 33.8754 22.7093 31.1057C20.0933 28.7099 18.2158 25.5551 17.259 22.137C16.7707 20.3928 14.4943 19.6734 13.6352 21.2679Z" fill="url(#paint2_linear_54_110)"/>
<defs>
<linearGradient id="paint0_linear_54_110" x1="33" y1="60" x2="33" y2="4" gradientUnits="userSpaceOnUse">
<stop stop-color="#5570FF"/>
<stop offset="1" stop-color="#4DD3FF"/>
</linearGradient>
<linearGradient id="paint1_linear_54_110" x1="32.9999" y1="53.9246" x2="32.9999" y2="10.0752" gradientUnits="userSpaceOnUse">
<stop stop-color="#5570FF"/>
<stop offset="1" stop-color="#4DD3FF"/>
</linearGradient>
<linearGradient id="paint2_linear_54_110" x1="32.9999" y1="53.9246" x2="32.9999" y2="10.0752" gradientUnits="userSpaceOnUse">
<stop stop-color="#5570FF"/>
<stop offset="1" stop-color="#4DD3FF"/>
</linearGradient>
</defs>
</svg>
