<svg width="24" height="24" viewBox="0 0 24 24" fill="none" xmlns="http://www.w3.org/2000/svg">
<path opacity="0.4" d="M1 16.5C1 13.4363 1 11.9034 1.9669 10.9522C2.9327 10 4.4892 10 7.6 10H16.4C19.5108 10 21.0673 10 22.0331 10.9522C23 11.9034 23 13.4363 23 16.5C23 19.5637 23 21.0966 22.0331 22.0478C21.0673 23 19.5108 23 16.4 23H7.6C4.4892 23 2.9327 23 1.9669 22.0478C1 21.0966 1 19.5637 1 16.5Z" fill="url(#paint0_linear_297_223)"/>
<path d="M12 20C12.5501 20 13.0776 19.7736 13.4666 19.3705C13.8556 18.9674 14.0741 18.4208 14.0741 17.8507C14.0741 17.2807 13.8556 16.7341 13.4666 16.331C13.0776 15.9279 12.5501 15.7015 12 15.7015C11.4499 15.7015 10.9224 15.9279 10.5334 16.331C10.1444 16.7341 9.92593 17.2807 9.92593 17.8507C9.92593 18.4208 10.1444 18.9674 10.5334 19.3705C10.9224 19.7736 11.4499 20 12 20ZM6.55556 9.25373C6.55556 7.75744 7.12916 6.32242 8.1502 5.26438C9.17123 4.20634 10.556 3.61194 12 3.61194C13.444 3.61194 14.8288 4.20634 15.8498 5.26438C16.8708 6.32242 17.4444 7.75744 17.4444 9.25373V10.662C17.4444 11.0747 17.8275 11.4093 18.24 11.4222C18.6777 11.4359 19 11.0874 19 10.6495V9.25373C19 7.32992 18.2625 5.48491 16.9497 4.12457C15.637 2.76423 13.8565 2 12 2C10.1435 2 8.36301 2.76423 7.05025 4.12457C5.7375 5.48491 5 7.32992 5 9.25373V10.6563C5 11.0921 5.36914 11.4357 5.80476 11.4209C6.21954 11.4068 6.55556 11.0713 6.55556 10.6563V9.25373Z" fill="url(#paint1_linear_297_223)" stroke="url(#paint2_linear_297_223)"/>
<defs>
<linearGradient id="paint0_linear_297_223" x1="12" y1="23" x2="12" y2="10" gradientUnits="userSpaceOnUse">
<stop stop-color="#02AA93"/>
<stop offset="1" stop-color="#67FF80"/>
</linearGradient>
<linearGradient id="paint1_linear_297_223" x1="12" y1="20" x2="12" y2="2" gradientUnits="userSpaceOnUse">
<stop stop-color="#02AA93"/>
<stop offset="1" stop-color="#67FF80"/>
</linearGradient>
<linearGradient id="paint2_linear_297_223" x1="12" y1="20" x2="12" y2="2" gradientUnits="userSpaceOnUse">
<stop stop-color="#02AA93"/>
<stop offset="1" stop-color="#67FF80"/>
</linearGradient>
</defs>
</svg>
