<svg width="64" height="64" viewBox="0 0 64 64" fill="none" xmlns="http://www.w3.org/2000/svg">
<path opacity="0.4" d="M32 60C47.464 60 60 47.464 60 32C60 16.536 47.464 4 32 4C16.536 4 4 16.536 4 32C4 47.464 16.536 60 32 60Z" fill="url(#paint0_linear_54_1474)"/>
<path d="M33.6245 12C29.7021 12.002 25.8697 13.1749 22.618 15.3684C19.5529 17.4361 17.1354 20.3218 15.6361 23.6916C15.4704 24.0639 15.1059 24.3122 14.6984 24.3122H12.0804C11.7017 24.3122 11.3554 24.5262 11.186 24.865L9.72359 27.7899C9.39115 28.4548 9.87464 29.2371 10.618 29.2371H12.9581C13.5638 29.2371 14.0285 29.7714 13.982 30.3753C13.9541 30.7391 13.9362 31.1037 13.9284 31.4685C13.9252 31.6206 13.8896 31.7703 13.8216 31.9063L12.186 35.1773C11.8536 35.8422 12.3371 36.6245 13.0804 36.6245H13.8043C14.2603 36.6245 14.656 36.9338 14.7872 37.3705C15.9649 41.2884 18.3356 44.7493 21.5782 47.2648C25.0251 49.9387 29.262 51.3929 33.6245 51.3992C36.5771 51.3988 39.4919 50.7347 42.1533 49.456C44.1877 48.4786 46.0342 47.1611 47.6156 45.5651C48.2059 44.9694 47.757 44.0118 46.9183 44.0118H42.0791C41.8825 44.0118 41.6907 44.0706 41.5246 44.1759C39.1638 45.6735 36.4244 46.4716 33.6245 46.4743C30.572 46.4708 27.5956 45.5219 25.1043 43.7582C22.9991 42.2677 21.3276 40.2572 20.2461 37.9333C19.9549 37.3075 20.4356 36.6245 21.1258 36.6245H35.4689C35.8476 36.6245 36.1939 36.4105 36.3633 36.0717L37.8258 33.1468C38.1582 32.4819 37.6747 31.6996 36.9314 31.6996H19.8558C19.3011 31.6996 18.849 31.2477 18.89 30.6946C18.9056 30.4854 18.9255 30.2766 18.95 30.0682C19.0065 29.5858 19.4257 29.2371 19.9114 29.2371H37.9314C38.3101 29.2371 38.6564 29.0231 38.8258 28.6843L40.2882 25.7594C40.6207 25.0945 40.1372 24.3122 39.3938 24.3122H22.5789C21.8091 24.3122 21.3385 23.4834 21.7987 22.8663C22.994 21.2637 24.5059 19.9154 26.2471 18.9087C28.4898 17.6121 31.034 16.928 33.6245 16.9249C36.4227 16.9285 39.1603 17.7265 41.5197 19.2232C41.6858 19.3285 41.8776 19.3873 42.0742 19.3873H46.8986C47.7373 19.3873 48.1862 18.4297 47.5959 17.834C46.0168 16.2403 44.1733 14.9244 42.1425 13.9474C39.4847 12.6688 36.5738 12.0033 33.6245 12Z" fill="url(#paint1_linear_54_1474)" stroke="url(#paint2_linear_54_1474)"/>
<defs>
<linearGradient id="paint0_linear_54_1474" x1="32" y1="60" x2="32" y2="4" gradientUnits="userSpaceOnUse">
<stop stop-color="#FDA700"/>
<stop offset="1" stop-color="#FFDE00"/>
</linearGradient>
<linearGradient id="paint1_linear_54_1474" x1="29" y1="51.3992" x2="29" y2="12" gradientUnits="userSpaceOnUse">
<stop stop-color="#FFA800"/>
<stop offset="1" stop-color="#FFF737"/>
</linearGradient>
<linearGradient id="paint2_linear_54_1474" x1="29" y1="51.3992" x2="29" y2="12" gradientUnits="userSpaceOnUse">
<stop stop-color="#FFA800"/>
<stop offset="1" stop-color="#FFF737"/>
</linearGradient>
</defs>
</svg>
