<svg width="24" height="24" viewBox="0 0 24 24" fill="none" xmlns="http://www.w3.org/2000/svg">
<path opacity="0.5" d="M16.5 23C15.5277 22.9998 14.5678 22.7814 13.691 22.361C12.0476 22.6306 10.3636 22.5051 8.77831 21.9949C7.19301 21.4846 5.75197 20.6043 4.57437 19.4267C3.39676 18.2491 2.51643 16.808 2.00617 15.2227C1.49592 13.6374 1.3704 11.9534 1.64001 10.31C1.05823 9.09663 0.867444 7.73257 1.09398 6.40612C1.32052 5.07968 1.95322 3.85626 2.90474 2.90474C3.85626 1.95322 5.07968 1.32052 6.40612 1.09398C7.73257 0.867444 9.09663 1.05823 10.31 1.64001C11.9533 1.37063 13.637 1.49627 15.2221 2.00655C16.8072 2.51684 18.248 3.3971 19.4255 4.57456C20.6029 5.75203 21.4832 7.19286 21.9935 8.77793C22.5038 10.363 22.6294 12.0468 22.36 13.69C22.8353 14.6807 23.0516 15.7758 22.9887 16.8728C22.9259 17.9699 22.5859 19.033 22.0005 19.963C21.4152 20.8929 20.6036 21.6593 19.6417 22.1904C18.6797 22.7215 17.5988 23.0001 16.5 23Z" fill="url(#paint0_linear_37_122)"/>
<path d="M17.0855 13.0077C16.798 12.5143 16.4 12.0944 15.9227 11.7808C15.4561 11.481 14.9497 11.2482 14.4183 11.0893C14.0918 10.9901 13.7302 10.8933 13.3559 10.8012C13.0294 10.7103 12.6422 10.617 12.164 10.512C11.5934 10.3924 11.0334 10.227 10.4893 10.0175C10.2089 9.90859 9.96145 9.72901 9.77094 9.49622C9.63151 9.30573 9.56527 9.07143 9.58434 8.83614C9.58391 8.58385 9.66809 8.33871 9.82342 8.1399C10.0408 7.88527 10.3228 7.69391 10.6398 7.58595C11.1729 7.40277 11.7347 7.31743 12.2981 7.33405C12.7341 7.32682 13.1688 7.3842 13.588 7.50432C13.866 7.58253 14.1278 7.7097 14.3612 7.87984C14.5121 7.98754 14.6408 8.12336 14.7402 8.27985C14.8122 8.41575 14.9104 8.53607 15.0291 8.63388C15.1478 8.73168 15.2846 8.80505 15.4318 8.84974C15.579 8.89444 15.7335 8.90958 15.8865 8.89431C16.0396 8.87903 16.1881 8.83364 16.3235 8.76073C16.4589 8.68783 16.5786 8.58886 16.6756 8.46952C16.7726 8.35019 16.8451 8.21284 16.8888 8.06538C16.9325 7.91793 16.9467 7.76328 16.9304 7.61035C16.9141 7.45742 16.8677 7.30921 16.7939 7.17428C16.548 6.7393 16.2158 6.35912 15.8178 6.05704C15.3579 5.70376 14.8363 5.43918 14.2795 5.27684C13.6369 5.08697 12.9694 4.9942 12.2993 5.00161C11.4475 4.98328 10.5996 5.12163 9.79776 5.40979C9.07263 5.67376 8.43566 6.13503 7.95863 6.74161C7.50174 7.34475 7.25439 8.08064 7.25424 8.8373C7.23532 9.5906 7.47392 10.3278 7.93064 10.9272C8.37157 11.4825 8.94956 11.9134 9.60767 12.1774C10.1049 12.3687 10.6141 12.5276 11.1319 12.6532L12.9174 13.094C13.2066 13.1686 13.4853 13.2444 13.7407 13.3226C14.0545 13.4144 14.354 13.5494 14.6306 13.7238C14.803 13.8321 14.948 13.979 15.0539 14.1529C15.1564 14.3651 15.2038 14.5998 15.1915 14.8352C15.2077 15.1398 15.1197 15.4409 14.942 15.6888C14.702 16.0011 14.3773 16.2379 14.0066 16.3711C13.4541 16.5843 12.8644 16.6843 12.2725 16.665C11.588 16.6913 10.907 16.5537 10.2864 16.2638C9.99974 16.1111 9.7535 15.8925 9.56801 15.6259C9.43781 15.4553 9.35639 15.2525 9.33244 15.0393C9.33244 14.73 9.20957 14.4333 8.99086 14.2146C8.77215 13.9959 8.47552 13.873 8.16622 13.873C7.85692 13.873 7.56029 13.9959 7.34158 14.2146C7.12287 14.4333 7 14.73 7 15.0393C7.01922 15.7274 7.24517 16.3939 7.64842 16.9519C8.05143 17.5322 8.58824 18.007 9.21348 18.3362C10.1648 18.8003 11.2144 19.0272 12.2725 18.9974C13.1716 19.0192 14.0658 18.8585 14.9011 18.5251C15.6776 18.2271 16.3518 17.7117 16.8429 17.0405C17.3097 16.3865 17.549 15.5974 17.524 14.7943C17.5348 14.1718 17.3841 13.557 17.0866 13.01L17.0855 13.0077Z" fill="url(#paint1_linear_37_122)"/>
<defs>
<linearGradient id="paint0_linear_37_122" x1="12.0003" y1="23" x2="12.0003" y2="1.00122" gradientUnits="userSpaceOnUse">
<stop stop-color="#5570FF"/>
<stop offset="1" stop-color="#4DD3FF"/>
</linearGradient>
<linearGradient id="paint1_linear_37_122" x1="12.2629" y1="19" x2="12.2629" y2="5" gradientUnits="userSpaceOnUse">
<stop stop-color="#5570FF"/>
<stop offset="1" stop-color="#4DD3FF"/>
</linearGradient>
</defs>
</svg>
