<svg width="96" height="96" viewBox="0 0 96 96" fill="none" xmlns="http://www.w3.org/2000/svg">
<g filter="url(#filter0_d_80_193)">
<path d="M88.4734 34.9596C89.4821 39.7648 86.544 44.7274 81.7475 45.8009C81.1518 45.9343 80.6274 46.0014 80.0152 46.0002C78.6696 45.9968 77.3608 46.0002 76.0152 46.0002H71.5152C71.0569 46.0002 71.0182 45.778 71.0154 45.5594L71.0152 45.5C71.0244 42.5684 70.9768 39.4311 71.0152 36.5C71.0441 34.2982 71.8757 32.4445 73.3759 30.8358C75.0413 29.05 77.1082 28.1025 79.56 28.0066C83.8178 27.8401 87.6073 30.8341 88.4734 34.9596ZM67.8832 13.5039C67.9662 14.0033 67.9962 14.5089 67.9965 15.0135C68.0003 22.3447 68.0011 29.6758 67.9984 37.007C67.9967 41.3939 64.907 45.067 60.5618 45.8583C55.8042 46.7247 51.0715 43.5234 50.1689 38.8321C50.0559 38.2449 49.9997 37.6549 50 37.0576C50.0019 33.374 50.0009 29.6904 50.0009 26.0067C50.0009 22.2869 49.9997 18.5671 50.0013 14.8474C50.0031 10.5201 53.2613 6.76819 57.5892 6.1068C62.5017 5.35607 67.0744 8.64118 67.8832 13.5039Z" fill="url(#paint0_linear_80_193)"/>
<path opacity="0.4" d="M34.9596 7.52784C39.7648 6.51908 44.7273 9.45722 45.8009 14.2537C45.9342 14.8494 46.0013 15.3738 46.0001 15.986C45.9967 17.3316 46.0001 18.6404 46.0001 19.986V24.486C46.0001 24.9026 45.8165 24.9725 45.6189 24.9839L45.4999 24.986C42.5684 24.9768 39.4311 25.0244 36.4999 24.986C34.2981 24.9571 32.4445 24.1255 30.8358 22.6253C29.0499 20.9599 28.1024 18.893 28.0066 16.4412C27.84 12.1834 30.834 8.39395 34.9596 7.52784ZM13.5039 28.1167C14.0032 28.0337 14.5088 28.0036 15.0135 28.0034C22.3446 27.9996 29.6758 27.9988 37.0069 28.0015C41.3938 28.0031 45.0669 31.0928 45.8582 35.4381C46.7247 40.1957 43.5234 44.9284 38.8321 45.831C38.2448 45.944 37.6549 46.0002 37.0576 45.9999C33.374 45.998 29.6903 45.9989 26.0066 45.9989C22.2869 45.9989 18.5671 46.0001 14.8473 45.9986C10.52 45.9968 6.76813 42.7385 6.10674 38.4106C5.35601 33.4982 8.64112 28.9255 13.5039 28.1167Z" fill="url(#paint1_linear_80_193)"/>
<path d="M7.54198 61.0405C6.53323 56.2353 9.47137 51.2727 14.2679 50.1992C14.8635 50.0658 15.3879 49.9987 16.0001 50C17.3458 50.0033 18.6545 50 20.0001 50H24.5001C25.0001 50 25.0008 50.2643 25.0001 50.5001C24.991 53.4317 25.0386 56.569 25.0001 59.5001C24.9712 61.7019 24.1397 63.5556 22.6394 65.1643C20.974 66.9501 18.9071 67.8976 16.4554 67.9935C12.1976 68.1601 8.4081 65.166 7.54198 61.0405ZM28.1169 82.4962C28.0339 81.9969 28.0039 81.4912 28.0036 80.9866C27.9998 73.6555 27.999 66.3243 28.0017 58.9932C28.0034 54.6062 31.0931 50.9331 35.4383 50.1418C40.1959 49.2754 44.9286 52.4767 45.8312 57.168C45.9442 57.7552 46.0004 58.3452 46.0001 58.9425C45.9983 62.6261 45.9992 66.3098 45.9992 69.9934C45.9992 73.7132 46.0004 77.433 45.9989 81.1527C45.997 85.4801 42.7388 89.2319 38.4109 89.8933C33.4985 90.6441 28.9257 87.3589 28.1169 82.4962Z" fill="url(#paint2_linear_80_193)"/>
<path opacity="0.4" d="M61.0404 88.458C56.2352 89.4668 51.2726 86.5286 50.1991 81.7321C50.0657 81.1365 49.9986 80.6121 49.9999 79.9999C50.0032 78.6542 49.9999 77.3455 49.9999 75.9999V71.4999C49.9999 70.9999 50.2642 70.9992 50.5 70.9999C53.4316 71.009 56.5689 70.9614 59.5 70.9999C61.7018 71.0288 63.5555 71.8603 65.1642 73.3606C66.95 75.026 67.8975 77.0929 67.9934 79.5446C68.1599 83.8024 65.1659 87.5919 61.0404 88.458ZM82.4961 67.8831C81.9967 67.9661 81.4911 67.9961 80.9865 67.9964C73.6553 68.0002 66.3242 68.001 58.993 67.9983C54.6061 67.9966 50.933 64.9069 50.1417 60.5617C49.2753 55.8041 52.4766 51.0714 57.1679 50.1688C57.7551 50.0558 58.3451 49.9996 58.9424 49.9999C62.626 50.0017 66.3096 50.0008 69.9933 50.0008C73.7131 50.0008 77.4329 49.9996 81.1526 50.0011C85.4799 50.003 89.2318 53.2612 89.8932 57.5891C90.6439 62.5015 87.3588 67.0743 82.4961 67.8831Z" fill="url(#paint3_linear_80_193)"/>
</g>
<defs>
<filter id="filter0_d_80_193" x="1.99994" y="4" width="92.0001" height="92.0001" filterUnits="userSpaceOnUse" color-interpolation-filters="sRGB">
<feFlood flood-opacity="0" result="BackgroundImageFix"/>
<feColorMatrix in="SourceAlpha" type="matrix" values="0 0 0 0 0 0 0 0 0 0 0 0 0 0 0 0 0 0 127 0" result="hardAlpha"/>
<feOffset dy="2"/>
<feGaussianBlur stdDeviation="2"/>
<feColorMatrix type="matrix" values="0 0 0 0 0 0 0 0 0 0 0 0 0 0 0 0 0 0 0.2 0"/>
<feBlend mode="normal" in2="BackgroundImageFix" result="effect1_dropShadow_80_193"/>
<feBlend mode="normal" in="SourceGraphic" in2="effect1_dropShadow_80_193" result="shape"/>
</filter>
<linearGradient id="paint0_linear_80_193" x1="69.3357" y1="46.0002" x2="69.3357" y2="6" gradientUnits="userSpaceOnUse">
<stop stop-color="#02AA93"/>
<stop offset="1" stop-color="#67FF80"/>
</linearGradient>
<linearGradient id="paint1_linear_80_193" x1="46.0001" y1="26.6649" x2="5.99994" y2="26.6649" gradientUnits="userSpaceOnUse">
<stop stop-color="#5570FF"/>
<stop offset="1" stop-color="#4DD3FF"/>
</linearGradient>
<linearGradient id="paint2_linear_80_193" x1="26.6721" y1="50" x2="26.6721" y2="90.0001" gradientUnits="userSpaceOnUse">
<stop stop-color="#FD3AAF"/>
<stop offset="1" stop-color="#FF8DD1"/>
</linearGradient>
<linearGradient id="paint3_linear_80_193" x1="49.9999" y1="69.3279" x2="90" y2="69.3279" gradientUnits="userSpaceOnUse">
<stop stop-color="#FDA700"/>
<stop offset="1" stop-color="#FFDE00"/>
</linearGradient>
</defs>
</svg>
