<svg width="64" height="64" viewBox="0 0 64 64" fill="none" xmlns="http://www.w3.org/2000/svg">
<path opacity="0.4" d="M17.5024 57.1106C31.3706 65.1173 49.1037 60.3658 57.1106 46.4976C65.1173 32.6294 60.3658 14.8962 46.4976 6.88945C32.6294 -1.11733 14.8962 3.63424 6.88945 17.5024C-1.11734 31.3706 3.63425 49.1037 17.5024 57.1106Z" fill="url(#paint0_linear_37_100)"/>
<path fill-rule="evenodd" clip-rule="evenodd" d="M42.5272 14.0147C43.3781 13.9394 44.2294 14.1552 44.9416 14.6269C45.6579 15.1012 46.1908 15.8058 46.4521 16.6242C46.7134 17.4426 46.6874 18.3257 46.3785 19.1273L43.0603 27.725L47.0132 41.5996C47.2197 42.3252 47.1987 43.0968 46.9529 43.8102C46.7071 44.5236 46.2484 45.1443 45.6387 45.5888C45.0289 46.0332 44.2976 46.2799 43.5432 46.2956C42.7889 46.3113 42.0479 46.0952 41.4202 45.6764L37.2155 42.8695L35.8669 46.3639C35.6633 46.8912 35.3439 47.3659 34.9321 47.7531C34.5204 48.1403 34.0269 48.4299 33.4881 48.6007C32.9493 48.7714 32.379 48.8189 31.8194 48.7395C31.2598 48.6602 30.7252 48.4561 30.2551 48.1423L27.4295 46.2559L24.2593 49.2802C23.9171 49.6063 23.4739 49.8058 23.0029 49.8457C22.5319 49.8855 22.0613 49.7634 21.6692 49.4995C21.2793 49.2371 20.99 48.85 20.8487 48.4017C20.7074 47.9534 20.7225 47.4705 20.8916 47.0319L22.4691 42.9444L19.6428 41.0576C19.1727 40.7438 18.7792 40.3283 18.4914 39.8419C18.2036 39.3555 18.0287 38.8106 17.9798 38.2475C17.9309 37.6845 18.0092 37.1176 18.2089 36.5889C18.4086 36.0601 18.7246 35.5831 19.1335 35.1929L21.8437 32.6074L17.6391 29.8004C17.0117 29.3813 16.5279 28.7798 16.2532 28.0771C15.9784 27.3744 15.9258 26.6043 16.1025 25.8708C16.2792 25.1372 16.6766 24.4756 17.2412 23.975C17.8058 23.4745 18.5104 23.1592 19.2598 23.0717L33.5895 21.4025L40.2578 15.0412C40.8762 14.4519 41.6763 14.0899 42.5272 14.0147Z" fill="url(#paint1_linear_37_100)"/>
<defs>
<linearGradient id="paint0_linear_37_100" x1="26.4092" y1="52.2085" x2="26.4086" y2="5.69603" gradientUnits="userSpaceOnUse">
<stop stop-color="#218AFF"/>
<stop offset="1" stop-color="#53D0FF"/>
</linearGradient>
<linearGradient id="paint1_linear_37_100" x1="28.574" y1="44.4185" x2="28.5735" y2="15.6666" gradientUnits="userSpaceOnUse">
<stop stop-color="#218AFF"/>
<stop offset="1" stop-color="#53D0FF"/>
</linearGradient>
</defs>
</svg>
