<svg width="128" height="128" viewBox="0 0 128 128" fill="none" xmlns="http://www.w3.org/2000/svg">
<path opacity="0.4" d="M96.8125 120C102.24 120 106.656 115.584 106.656 110.156V33.6869C106.656 31.0576 105.632 28.5856 103.773 26.7262L87.9302 10.8831C86.0708 9.02368 83.5987 8 80.9693 8H31.1875C25.7598 8 21.3438 12.416 21.3438 17.8438V110.156C21.3438 115.584 25.7598 120 31.1875 120H96.8125Z" fill="url(#paint0_linear_80_176)"/>
<path fill-rule="evenodd" clip-rule="evenodd" d="M37.75 40.8125C39.5623 40.8125 41.0312 39.3436 41.0312 37.5312V24.4062C41.0312 22.5939 39.5623 21.125 37.75 21.125C35.9377 21.125 34.4688 22.5939 34.4688 24.4062V37.5312C34.4688 39.3436 35.9377 40.8125 37.75 40.8125ZM90.25 106.656C92.0623 106.656 93.5312 105.187 93.5312 103.375V57.4375C93.5312 55.6252 92.0623 54.1562 90.25 54.1562H37.75C35.9377 54.1562 34.4688 55.6252 34.4688 57.4375V103.375C34.4688 105.187 35.9377 106.656 37.75 106.656H90.25ZM86.9688 85.9687C86.9688 86.521 86.521 86.9688 85.9688 86.9688H81.4063C80.854 86.9688 80.4062 86.521 80.4062 85.9688V74.8438C80.4062 74.2915 80.854 73.8438 81.4062 73.8438H85.9687C86.521 73.8438 86.9688 74.2915 86.9688 74.8437V85.9687ZM55.1563 100.094C54.604 100.094 54.1562 99.646 54.1562 99.0938V61.7188C54.1562 61.1665 54.604 60.7188 55.1562 60.7188H72.8437C73.396 60.7188 73.8438 61.1665 73.8438 61.7187V99.0937C73.8438 99.646 73.396 100.094 72.8438 100.094H55.1563ZM47.5938 85.9687C47.5938 86.521 47.146 86.9688 46.5938 86.9688H42.0313C41.479 86.9688 41.0312 86.521 41.0312 85.9688V74.8438C41.0312 74.2915 41.479 73.8438 42.0312 73.8438H46.5937C47.146 73.8438 47.5938 74.2915 47.5938 74.8437V85.9687ZM41.0312 94.5313C41.0312 93.979 41.479 93.5312 42.0312 93.5312H46.5937C47.146 93.5312 47.5938 93.979 47.5938 94.5312V99.0937C47.5938 99.646 47.146 100.094 46.5938 100.094H42.0313C41.479 100.094 41.0312 99.646 41.0312 99.0938V94.5313ZM81.4063 100.094C80.854 100.094 80.4062 99.646 80.4062 99.0938V94.5313C80.4062 93.979 80.854 93.5312 81.4062 93.5312H85.9687C86.521 93.5312 86.9688 93.979 86.9688 94.5312V99.0937C86.9688 99.646 86.521 100.094 85.9688 100.094H81.4063ZM86.9688 66.2812C86.9688 66.8335 86.521 67.2812 85.9688 67.2812H81.4063C80.854 67.2812 80.4062 66.8335 80.4062 66.2813V61.7188C80.4062 61.1665 80.854 60.7188 81.4062 60.7188H85.9687C86.521 60.7188 86.9688 61.1665 86.9688 61.7187V66.2812ZM46.5937 60.7188C47.146 60.7188 47.5938 61.1665 47.5938 61.7187V66.2812C47.5938 66.8335 47.146 67.2812 46.5938 67.2812H42.0313C41.479 67.2812 41.0312 66.8335 41.0312 66.2813V61.7188C41.0312 61.1665 41.479 60.7188 42.0312 60.7188H46.5937ZM54.1562 37.5312C54.1562 39.3436 52.6873 40.8125 50.875 40.8125C49.0627 40.8125 47.5938 39.3436 47.5938 37.5312V24.4062C47.5938 22.5939 49.0627 21.125 50.875 21.125C52.6873 21.125 54.1562 22.5939 54.1562 24.4062V37.5312ZM64 40.8125C65.8123 40.8125 67.2812 39.3436 67.2812 37.5312V24.4062C67.2812 22.5939 65.8123 21.125 64 21.125C62.1877 21.125 60.7188 22.5939 60.7188 24.4062V37.5312C60.7188 39.3436 62.1877 40.8125 64 40.8125ZM80.4062 37.5312C80.4062 39.3436 78.9373 40.8125 77.125 40.8125C75.3127 40.8125 73.8438 39.3436 73.8438 37.5312V24.4062C73.8438 22.5939 75.3127 21.125 77.125 21.125C78.9373 21.125 80.4062 22.5939 80.4062 24.4062V37.5312Z" fill="url(#paint1_linear_80_176)"/>
<defs>
<linearGradient id="paint0_linear_80_176" x1="64" y1="120" x2="64" y2="8" gradientUnits="userSpaceOnUse">
<stop stop-color="#FD5900"/>
<stop offset="1" stop-color="#FFDE00"/>
</linearGradient>
<linearGradient id="paint1_linear_80_176" x1="64" y1="106.656" x2="64" y2="21.125" gradientUnits="userSpaceOnUse">
<stop stop-color="#FD5900"/>
<stop offset="1" stop-color="#FFDE00"/>
</linearGradient>
</defs>
</svg>
