<svg width="64" height="64" viewBox="0 0 64 64" fill="none" xmlns="http://www.w3.org/2000/svg">
<path opacity="0.4" d="M32 60C47.464 60 60 47.464 60 32C60 16.536 47.464 4 32 4C16.536 4 4 16.536 4 32C4 47.464 16.536 60 32 60Z" fill="url(#paint0_linear_231_256)"/>
<path d="M42.4248 14.8177C42.1438 14.0556 41.1195 13.9288 40.6611 14.5993L32.5464 26.4674C32.1486 27.0493 31.2897 27.0479 30.8937 26.4648L23.331 15.3294C22.87 14.6507 21.8329 14.7853 21.5605 15.5592L11.3161 44.6597C11.1391 45.1626 11.3877 45.7159 11.8812 45.9175L19.6021 49.0709C20.2047 49.317 20.878 48.9311 20.9702 48.2868L23.48 30.7428C23.6093 29.8387 24.7832 29.5669 25.2968 30.3221L30.8844 38.5388C31.2806 39.1214 32.1391 39.1225 32.5368 38.5408L38.9784 29.1188C39.4656 28.4062 40.566 28.6041 40.7743 29.4418L44.9849 46.3705C45.1421 47.0027 45.8522 47.3181 46.4267 47.011L52.2319 43.9076C52.6722 43.6722 52.8714 43.1482 52.6987 42.6797L42.4248 14.8177Z" fill="url(#paint1_linear_231_256)"/>
<defs>
<linearGradient id="paint0_linear_231_256" x1="58.4205" y1="32" x2="11.6938" y2="15.0973" gradientUnits="userSpaceOnUse">
<stop stop-color="#FE7970"/>
<stop offset="1" stop-color="#DC3282"/>
</linearGradient>
<linearGradient id="paint1_linear_231_256" x1="51.8154" y1="31.2778" x2="18.0219" y2="17.2328" gradientUnits="userSpaceOnUse">
<stop stop-color="#FE7970"/>
<stop offset="1" stop-color="#DC3282"/>
</linearGradient>
</defs>
</svg>
