<svg width="32" height="32" viewBox="0 0 32 32" fill="none" xmlns="http://www.w3.org/2000/svg">
<path opacity="0.4" d="M20.3564 29H8.3436C4.84601 29 2 26.1804 2 22.7139V15.7861C2 12.3196 4.84601 9.5 8.3436 9.5H20.3564C23.854 9.5 26.7 12.3196 26.7 15.7861V22.7139C26.7 26.1804 23.854 29 20.3564 29Z" fill="url(#paint0_linear_299_398)"/>
<path d="M19.2317 13.4C18.6972 13.4 18.2634 12.9793 18.2634 12.4608V8.66396C18.2634 6.57645 16.5126 4.87839 14.3616 4.87839C13.3714 4.87839 12.332 5.26408 11.5922 5.97411C10.8511 6.68664 10.4405 7.6346 10.4366 8.64643V12.4608C10.4366 12.9793 10.0029 13.4 9.46831 13.4C8.93383 13.4 8.5 12.9793 8.5 12.4608V8.66396C8.5065 7.12494 9.12103 5.70487 10.2288 4.64171C11.3353 3.57604 12.7659 3.04132 14.3655 3C17.5803 3 20.2 5.54083 20.2 8.66396V12.4608C20.2 12.9793 19.7662 13.4 19.2317 13.4Z" fill="url(#paint1_linear_299_398)" stroke="url(#paint2_linear_299_398)"/>
<path d="M20.8365 19.3938C21.0523 19.1783 21.3447 19.0573 21.6496 19.0573C21.9546 19.0573 22.247 19.1783 22.4628 19.3938L24.8959 21.8269C25.2213 22.1524 25.749 22.1524 26.0744 21.8269L28.5075 19.3938C28.6128 19.2808 28.7399 19.1901 28.881 19.1272C29.0222 19.0643 29.1746 19.0305 29.3291 19.0278C29.4836 19.025 29.637 19.0535 29.7802 19.1113C29.9236 19.1692 30.0537 19.2553 30.163 19.3646C30.2722 19.4739 30.3584 19.604 30.4162 19.7473C30.4742 19.8906 30.5026 20.044 30.4998 20.1985C30.4971 20.353 30.4632 20.5054 30.4004 20.6465C30.3375 20.7877 30.2468 20.9147 30.1337 21.0201L27.7007 23.4532C27.3752 23.7786 27.3752 24.3063 27.7007 24.6317L30.1337 27.0648C30.337 27.2829 30.4477 27.5714 30.4424 27.8695C30.4372 28.1677 30.3164 28.4521 30.1056 28.6628C29.8947 28.8737 29.6103 28.9944 29.3122 28.9997C29.0142 29.005 28.7257 28.8943 28.5075 28.6911L26.0744 26.2579C25.749 25.9325 25.2213 25.9325 24.8959 26.2579L22.4628 28.6911C22.2446 28.8943 21.9561 29.005 21.658 28.9997C21.3599 28.9944 21.0755 28.8737 20.8647 28.6628C20.6539 28.4521 20.5331 28.1677 20.5279 27.8695C20.5226 27.5714 20.6333 27.2829 20.8365 27.0648L23.2696 24.6317C23.5951 24.3063 23.5951 23.7786 23.2696 23.4532L20.8365 21.0201C20.621 20.8043 20.5 20.5119 20.5 20.2069C20.5 19.902 20.621 19.6096 20.8365 19.3938Z" fill="url(#paint3_linear_299_398)"/>
<defs>
<linearGradient id="paint0_linear_299_398" x1="26.0033" y1="19.25" x2="6.74077" y2="10.4239" gradientUnits="userSpaceOnUse">
<stop stop-color="#FE7970"/>
<stop offset="1" stop-color="#DC3282"/>
</linearGradient>
<linearGradient id="paint1_linear_299_398" x1="19.87" y1="8.2" x2="10.3986" y2="4.34557" gradientUnits="userSpaceOnUse">
<stop stop-color="#FE7970"/>
<stop offset="1" stop-color="#DC3282"/>
</linearGradient>
<linearGradient id="paint2_linear_299_398" x1="19.87" y1="8.2" x2="10.3986" y2="4.34557" gradientUnits="userSpaceOnUse">
<stop stop-color="#FE7970"/>
<stop offset="1" stop-color="#DC3282"/>
</linearGradient>
<linearGradient id="paint3_linear_299_398" x1="29.6978" y1="27.0134" x2="26.7123" y2="18.2602" gradientUnits="userSpaceOnUse">
<stop stop-color="#FF3649"/>
<stop offset="1" stop-color="#FF3678"/>
</linearGradient>
</defs>
</svg>
