<svg width="128" height="128" viewBox="0 0 128 128" fill="none" xmlns="http://www.w3.org/2000/svg">
<path opacity="0.4" fill-rule="evenodd" clip-rule="evenodd" d="M45.4416 12.0798C44.2942 10.0915 41.7516 9.41046 39.764 10.5591L30.2309 16.0683C28.2452 17.2157 27.5648 19.7552 28.7108 21.7417L40.4882 42.1596C41.3641 43.6782 41.1677 45.5675 40.1747 47.0124C39.2758 48.3204 38.4856 49.6999 37.8124 51.1372C37.0632 52.7365 35.5166 53.8668 33.7503 53.8668H10.155C7.86023 53.8668 6 55.727 6 58.0217V69.0451C6 71.3398 7.86023 73.2001 10.155 73.2001H33.748C35.5059 73.2001 37.0472 74.3199 37.8003 75.9084C38.4782 77.338 39.2719 78.7099 40.1735 80.01C41.1768 81.4568 41.3788 83.3546 40.4993 84.8796L28.7102 105.323C27.5646 107.309 28.2451 109.848 30.2305 110.995L39.7659 116.506C41.7528 117.654 44.2943 116.974 45.4424 114.987L57.2389 94.5711C58.1216 93.0435 59.8711 92.2694 61.6287 92.4232C62.4169 92.492 63.208 92.5291 64 92.5334C64.7985 92.529 65.5962 92.4917 66.3912 92.4221C68.1484 92.2683 69.8971 93.0435 70.7788 94.5713L82.56 114.984C83.7076 116.972 86.2503 117.653 88.2379 116.505L97.7676 110.996C99.753 109.848 100.433 107.309 99.2874 105.323L87.5115 84.908C86.6347 83.388 86.8324 81.497 87.8268 80.0512C88.7252 78.745 89.5142 77.3673 90.1861 75.9322C90.9354 74.3316 92.4826 73.2001 94.2498 73.2001H117.845C120.14 73.2001 122 71.3398 122 69.0451V58.0217C122 55.727 120.14 53.8668 117.845 53.8668H94.2503C92.4923 53.8668 90.9509 52.7467 90.1982 51.158C89.5209 49.7278 88.7276 48.3555 87.8256 47.0549C86.8218 45.6074 86.6188 43.7083 87.499 42.1824L99.2879 21.7412C100.434 19.7548 99.7532 17.2159 97.7679 16.0683L88.2359 10.5584C86.2491 9.40994 83.7075 10.0898 82.5591 12.0768L70.7636 32.4887C69.8797 34.0183 68.1267 34.792 66.3666 34.6403C65.58 34.5725 64.7905 34.5368 64 34.5334C63.2037 34.5364 62.4081 34.5721 61.6155 34.6405C59.8546 34.7921 58.1012 34.0173 57.2179 32.4866L45.4416 12.0798ZM52.4173 51.78C55.5342 48.6631 59.7614 46.9121 64.1693 46.9121C68.5772 46.9121 72.8044 48.6631 75.9213 51.78C79.0381 54.8968 80.7891 59.1241 80.7891 63.5319C80.7891 67.9398 79.0381 72.1672 75.9213 75.2839C72.8044 78.4007 68.5772 80.1517 64.1693 80.1517C59.7614 80.1517 55.5342 78.4007 52.4173 75.2839C49.3005 72.1672 47.5495 67.9398 47.5495 63.5319C47.5495 59.1241 49.3005 54.8968 52.4173 51.78Z" fill="url(#paint0_linear_60_114)"/>
<circle cx="64" cy="64" r="27" fill="url(#paint1_linear_60_114)"/>
<defs>
<linearGradient id="paint0_linear_60_114" x1="6" y1="63.532" x2="122" y2="63.532" gradientUnits="userSpaceOnUse">
<stop stop-color="#02AA93"/>
<stop offset="1" stop-color="#67FF80"/>
</linearGradient>
<linearGradient id="paint1_linear_60_114" x1="37" y1="64" x2="91" y2="64" gradientUnits="userSpaceOnUse">
<stop stop-color="#02AA93"/>
<stop offset="1" stop-color="#67FF80"/>
</linearGradient>
</defs>
</svg>
