<svg width="64" height="64" viewBox="0 0 64 64" fill="none" xmlns="http://www.w3.org/2000/svg">
<path opacity="0.4" d="M37.6 4H26.4C14.0288 4 4 14.0288 4 26.4V37.6C4 49.9712 14.0288 60 26.4 60H37.6C49.9712 60 60 49.9712 60 37.6V26.4C60 14.0288 49.9712 4 37.6 4Z" fill="url(#paint0_linear_231_262)"/>
<path d="M33.2068 4L33.2224 23.9728L33.2473 43.9481C33.2487 45.0517 34.1437 45.9456 35.2473 45.9456H37.3136C38.4161 45.9456 39.3106 45.0535 39.3136 43.951L39.3238 40.1684C39.3346 35.5936 39.349 34.3948 39.4019 34.4144C39.4387 34.4284 40.4226 36.1798 41.5933 38.305C42.7641 40.4303 43.8743 42.4082 44.0542 42.7034C44.4265 43.3137 45.157 44.1566 45.6324 44.5198C46.6272 45.28 47.6638 45.6704 49.2652 45.887C50.1225 46.003 53.0198 46.0445 53.1089 45.9417C53.1477 45.8969 53.1613 44.8522 53.1519 42.6292L53.1414 40.4542C53.1386 39.8556 52.6641 39.3659 52.066 39.344V39.344C50.8527 39.2995 50.5896 39.2428 49.898 38.8518C49.3608 38.548 48.7381 37.8907 48.2769 37.1447C48.1127 36.8791 47.2842 35.3864 46.4371 33.8283C44.9435 31.081 44.9 30.989 44.98 30.8478C45.0255 30.7678 46.8866 27.7708 49.1168 24.1878C51.347 20.6048 53.1872 17.6366 53.2028 17.5902C53.2264 17.5189 52.6566 17.5043 49.613 17.5043H47.0991C46.4081 17.5043 45.7661 17.861 45.401 18.4477L42.7263 22.7463C40.9306 25.6294 39.4325 27.9987 39.3982 28.0119C39.3393 28.0347 39.3391 11.3211 39.371 4.02752C39.1795 4.02287 38.9931 4.00031 38.8005 4.00031L33.2068 4ZM19.7184 18C18.9712 18.0064 18.241 18.0427 17.8903 18.1094C15.0083 18.6572 12.9671 20.2052 11.8631 22.6874C11.5135 23.4735 11.2995 24.2346 11.1639 25.16C11.0736 25.7762 11.066 26.0414 11.0897 27.0428C11.1091 27.8602 11.1439 28.3774 11.2147 28.7772C11.6986 31.5077 13.083 33.238 15.4919 34.1404C16.2693 34.4316 16.7551 34.5431 18.8357 34.8904C19.9919 35.0833 20.8733 35.2562 21.0583 35.3318C21.8541 35.657 22.2247 36.2454 22.2927 37.2771C22.3763 38.5471 21.7579 39.4162 20.5114 39.7771C20.0116 39.9218 19.0965 40.0028 18.4528 39.9607C16.3384 39.8223 14.9572 39.3011 13.7616 38.1871V38.1871C13.6851 38.1148 13.5637 38.1213 13.4954 38.2013L11.8124 40.1715C10.816 41.3355 10 42.3363 10 42.3923C10 42.5348 10.8359 43.3736 11.4766 43.8766C13.0936 45.1463 14.8097 45.7448 17.5314 45.9821C18.1031 46.032 20.211 45.9581 20.6993 45.8727C24.3605 45.2316 26.8869 43.0412 27.7149 39.7827C28.0997 38.2684 28.0911 35.9795 27.6953 34.2827C27.4049 33.0391 27.0281 32.2599 26.2929 31.3943C25.5257 30.4911 24.8653 30.0227 23.7069 29.5699C22.9257 29.2643 22.2689 29.1187 20.1837 28.7771C17.9593 28.4127 17.6949 28.3199 17.1877 27.7655C16.6125 27.1371 16.5133 26.3007 16.8985 25.3863C17.1709 24.7398 17.7268 24.2712 18.5274 24.0152C18.9456 23.8816 20.6178 23.8687 21.2852 23.9916C22.1817 24.157 23.0228 24.5661 23.6212 25.1323C23.7952 25.2969 23.9674 25.4331 24.004 25.4331C24.1032 25.4331 27.5704 21.3583 27.5704 21.2415C27.5704 21.1062 26.9005 20.4425 26.2501 19.9329C24.9957 18.9505 23.5033 18.3481 21.6445 18.0781C21.2301 18.0177 20.4656 17.9936 19.7184 18Z" fill="url(#paint1_linear_231_262)"/>
<defs>
<linearGradient id="paint0_linear_231_262" x1="55.8692" y1="-7.73239" x2="6.34975" y2="45.4038" gradientUnits="userSpaceOnUse">
<stop stop-color="#FE7970"/>
<stop offset="1" stop-color="#D92B1A"/>
</linearGradient>
<linearGradient id="paint1_linear_231_262" x1="50.0166" y1="-4.79935" x2="12.9653" y2="36.0971" gradientUnits="userSpaceOnUse">
<stop stop-color="#FE7970"/>
<stop offset="1" stop-color="#D92B1A"/>
</linearGradient>
</defs>
</svg>
