<svg width="192" height="192" viewBox="0 0 192 192" fill="none" xmlns="http://www.w3.org/2000/svg">
<path fill-rule="evenodd" clip-rule="evenodd" d="M15.6475 20.0202C12.5465 19.7636 9.78246 22.2403 10.0634 24.944C10.0248 30.4138 10.0303 35.887 10.0359 41.3596C10.04 45.4632 10.0441 49.5664 10.0297 53.6679C9.77122 56.1841 11.2094 58.868 14.0184 59.7857C17.6026 61.1671 22.1868 59.0062 22.6924 55.5723C22.9186 51.6467 22.8786 47.7152 22.8387 43.7842C22.8052 40.4923 22.7717 37.2008 22.8946 33.9134C22.771 32.0386 25.0406 31.0618 26.8945 31.2986C34.9776 31.3065 43.0624 31.3017 51.1476 31.297C63.281 31.2899 75.4151 31.2828 87.5452 31.3183C89.4777 31.0815 90.8148 32.236 90.9384 33.9036C95.1702 52.3951 99.356 70.8924 103.542 89.3908C107.08 105.026 110.618 120.663 114.185 136.297C114.202 136.545 114.269 136.859 114.343 137.198C114.613 138.454 114.959 140.061 113.084 139.968C96.3763 140.042 79.6687 140.034 62.961 140.025C50.9388 140.019 38.9167 140.012 26.8945 140.037C25.3665 140.126 22.9845 139.919 22.9396 138.152C22.7612 134.255 22.7958 130.353 22.8304 126.449C22.8503 124.206 22.8702 121.963 22.8497 119.72C22.8384 119.334 22.8403 118.939 22.8422 118.538C22.8519 116.541 22.862 114.427 21.243 112.882C19.007 110.504 14.479 110.326 12.0184 112.517C10.0191 114.038 10.0233 116.416 10.0271 118.6C10.0277 118.981 10.0284 119.356 10.0184 119.72C10.0709 123.641 10.0544 127.564 10.038 131.487C10.0157 136.795 9.9934 142.103 10.142 147.408C10.1533 149.885 12.9959 151.552 15.6475 151.315C51.2986 151.335 86.9497 151.345 122.601 151.306C126.691 151.592 130.129 147.891 129.061 144.418C123.856 121.127 118.554 97.8477 113.253 74.571C111.54 67.0506 109.827 59.5304 108.118 52.0102C107.23 48.2507 106.354 44.4814 105.545 40.7022C105.423 40.1561 105.301 39.6099 105.18 39.0638C104.01 33.8179 102.842 28.5736 101.59 23.3455C101.242 21.2733 98.9944 19.7932 96.6237 20.0399C75.415 19.9856 54.1992 19.9984 32.9875 20.0111C27.2071 20.0146 21.427 20.0181 15.6475 20.0202ZM52.7256 44.3037C50.1751 44.2642 47.9728 46.4153 48.0852 48.6157C48.0063 52.1446 48.0198 55.6736 48.0333 59.2025C48.0411 61.2474 48.0489 63.2924 48.0387 65.3373C48.0353 66.0134 47.3739 66.4888 46.7237 66.3032C39.4673 64.2319 31.1676 64.3166 24.7261 68.2617C17.6925 72.2579 13.4791 79.7177 14.1644 87.059C14.6588 94.1438 19.625 100.834 26.8496 104.041C33.2315 106.991 41.1977 107.09 47.6807 104.278C54.8154 101.317 59.9389 94.9726 60.7929 88.0852C61.1232 83.1315 61.0278 78.1542 60.9326 73.1813C60.8276 67.6993 60.7227 62.2228 61.1881 56.7892C61.2199 56.4172 61.4577 56.0906 61.8147 55.9812C63.4788 55.4709 65.3844 55.5306 67.2999 55.5907C70.271 55.6838 73.2661 55.7776 75.4218 53.7468C78.8712 50.7471 76.7139 44.7576 71.7702 44.353C65.7862 44.1387 59.7722 44.2147 53.7849 44.2903C53.4317 44.2948 53.0786 44.2993 52.7256 44.3037ZM30.7035 92.7624C24.4564 88.5292 26.4339 78.8296 33.9731 76.7575C41.6808 74.0735 50.2874 81.1583 47.7818 88.0655C46.1527 94.4694 36.1865 97.2915 30.7035 92.7624Z" fill="url(#paint0_linear_80_455)"/>
<path opacity="0.4" fill-rule="evenodd" clip-rule="evenodd" d="M140.092 40.7285C128.99 40.7343 117.888 40.7401 106.786 40.7061C106.148 40.7042 105.671 41.2918 105.807 41.9151C106.485 45.0303 107.206 48.1387 107.936 51.2404C108.043 51.6916 108.445 52.0103 108.909 52.0106C111.801 52.0121 114.693 52.0139 117.586 52.0156C133.463 52.0252 149.341 52.0348 165.218 52.0101C165.503 52.0293 165.81 52.026 166.123 52.0226C167.2 52.0111 168.344 51.9988 168.912 52.9016C168.978 53.0068 169.01 53.1295 169.02 53.2533C169.267 56.1976 169.222 59.1546 169.176 62.1137C169.134 64.8647 169.092 67.6174 169.285 70.3634C169.533 73.3533 173.083 75.6129 176.42 75.159C179.6 74.9222 182.195 72.2974 182.015 69.4852C182.018 67.6099 182.024 65.734 182.029 63.8577C182.049 57.7473 182.068 51.6324 181.982 45.5174C181.993 42.9913 179.341 40.712 176.465 40.7613C164.341 40.7158 152.217 40.7222 140.092 40.7285ZM144.971 75.1789C137.039 75.6624 129.657 80.0041 125.983 86.1712C122.309 92.1903 122.41 99.8276 126.252 105.768C130.129 111.994 137.915 116.227 146.016 116.355C149.672 116.408 153.329 116.398 156.985 116.388C160.636 116.379 164.288 116.369 167.939 116.422C168.405 116.428 168.806 116.756 168.89 117.214C169.095 118.332 169.225 119.46 169.207 120.588C169.167 126.544 169.176 132.5 169.184 138.456C169.192 144.352 169.201 150.249 169.162 156.145C169.162 156.201 169.167 156.257 169.174 156.313C169.432 158.283 167.456 160.054 165.196 159.752C155.249 159.779 145.303 159.773 135.357 159.767C123.575 159.76 111.794 159.753 100.017 159.801C96.6236 159.604 93.2529 162.031 93.2529 165.09C92.8821 168.337 96.2079 171.297 99.9157 171.021C125.061 171.09 150.207 171.07 175.353 171.03C179.004 171.228 182.285 168.366 182.004 165.15C182.048 153.464 182.04 141.775 182.032 130.084C182.027 123.63 182.023 117.175 182.027 110.721C182.296 108.392 180.723 105.886 178.027 105.334C176.443 105.125 174.841 105.111 173.24 105.098C172.085 105.088 170.93 105.078 169.782 104.995C169.137 104.948 168.742 104.29 168.948 103.677C170.843 98.0482 171.244 91.8216 167.982 86.5067C163.847 79.1061 154.331 74.3797 144.971 75.1789ZM139.072 102.146C133.443 97.3706 136.623 88.0854 144.241 86.6843C151.96 84.6121 160.005 92.0521 157.005 98.7126C154.847 105.255 144.128 107.356 139.072 102.146Z" fill="url(#paint1_linear_80_455)"/>
<defs>
<linearGradient id="paint0_linear_80_455" x1="45.5993" y1="106.322" x2="45.5993" y2="44.2129" gradientUnits="userSpaceOnUse">
<stop stop-color="#FD3A84"/>
<stop offset="1" stop-color="#FFA68D"/>
</linearGradient>
<linearGradient id="paint1_linear_80_455" x1="137.641" y1="171.066" x2="137.641" y2="75.0911" gradientUnits="userSpaceOnUse">
<stop stop-color="#5570FF"/>
<stop offset="1" stop-color="#4DD3FF"/>
</linearGradient>
</defs>
</svg>
