<svg width="128" height="128" viewBox="0 0 128 128" fill="none" xmlns="http://www.w3.org/2000/svg">
<path opacity="0.4" d="M63 5C31.143 5 5 31.143 5 63C5 94.857 31.143 121 63 121C94.857 121 121 94.857 121 63C121 31.143 94.857 5 63 5Z" fill="url(#paint0_linear_69_327)"/>
<path fill-rule="evenodd" clip-rule="evenodd" d="M110.994 46.4337C108.337 40.1561 104.532 34.514 99.6801 29.6619C94.828 24.8098 89.1858 21.0056 82.9082 18.3475C80.684 17.4072 78.0905 18.4378 77.146 20.6834C76.2012 22.9205 77.2448 25.5012 79.4819 26.4457C84.7119 28.6615 89.4177 31.8345 93.4627 35.8794C97.5074 39.9242 100.68 44.6304 102.896 49.86C103.843 52.1046 106.431 53.1384 108.658 52.196C110.895 51.2516 111.939 48.6709 110.994 46.4337ZM48.8607 101.554C43.6307 99.3378 38.9249 96.1648 34.8799 92.1199C30.8351 88.0751 27.662 83.3689 25.4463 78.1393C24.5015 75.898 21.8995 74.8545 19.684 75.8033C17.4469 76.7481 16.4036 79.3284 17.348 81.5656C20.0059 87.8432 23.8103 93.4853 28.6625 98.3375C33.5146 103.19 39.1567 106.994 45.4343 109.651C47.6679 110.596 50.2519 109.555 51.1965 107.316C52.141 105.079 51.0975 102.498 48.8607 101.554ZM63.9003 94.2129C79.4418 94.2129 92.0404 81.6143 92.0404 66.0728C92.0404 50.5314 79.4418 37.9326 63.9003 37.9326C48.3589 37.9326 35.7601 50.5314 35.7601 66.0728C35.7601 81.6143 48.3589 94.2129 63.9003 94.2129ZM64.7941 47.3294C64.9731 47.2985 65.1578 47.3105 65.3324 47.3645L77.193 51.0344C78.385 51.4031 79.4269 52.1462 80.1672 53.1549C80.9075 54.1638 81.3072 55.3848 81.3072 56.6388V62.5544C81.3072 62.7377 81.2639 62.9195 81.1817 63.0826C81.0994 63.2456 80.9796 63.3885 80.8339 63.4967C80.6867 63.6049 80.5164 63.6785 80.3375 63.7089C80.1571 63.7392 79.9738 63.7276 79.7992 63.6742L66.155 59.4527V76.6243C66.155 76.6792 66.1506 76.734 66.1434 76.7889C66.2415 78.561 65.7206 80.3114 64.6729 81.7386C63.6253 83.1658 62.1149 84.1817 60.4027 84.6089C58.6905 85.036 56.8838 84.8484 55.2941 84.0793C53.7046 83.3101 52.4316 82.007 51.6949 80.3937C50.9583 78.7817 50.804 76.9606 51.2588 75.2462C51.7137 73.5318 52.7491 72.0311 54.1864 71.0021C55.6237 69.9732 57.3729 69.4811 59.1323 69.611C60.8916 69.7409 62.5502 70.4841 63.8244 71.7121V48.4853C63.8244 48.3019 63.8663 48.1209 63.9485 47.9571C64.0308 47.7934 64.1505 47.6512 64.2963 47.5421C64.4435 47.433 64.6138 47.3601 64.7941 47.3294Z" fill="url(#paint1_linear_69_327)"/>
<defs>
<linearGradient id="paint0_linear_69_327" x1="63" y1="121" x2="63" y2="5" gradientUnits="userSpaceOnUse">
<stop stop-color="#FD5900"/>
<stop offset="1" stop-color="#FFDE00"/>
</linearGradient>
<linearGradient id="paint1_linear_69_327" x1="63.9003" y1="94.2129" x2="63.9003" y2="37.9326" gradientUnits="userSpaceOnUse">
<stop stop-color="#FD5900"/>
<stop offset="1" stop-color="#FFDE00"/>
</linearGradient>
</defs>
</svg>
