<svg width="48" height="48" viewBox="0 0 48 48" fill="none" xmlns="http://www.w3.org/2000/svg">
<path opacity="0.4" d="M45 24C45 12.402 35.598 3 24 3C12.402 3 3 12.402 3 24C3 35.598 12.402 45 24 45C35.598 45 45 35.598 45 24Z" fill="url(#paint0_linear_312_529)"/>
<path d="M21.5733 36.589C18.6742 36.2992 17.1789 35.4915 15.6864 34.0236C15.0835 33.4308 14.6739 32.8852 14.3335 32.2224C13.613 30.8194 13.3871 29.2407 13.7398 28.0726C14.0905 26.9116 14.8883 25.6315 16.0112 24.4279C16.6347 23.7596 17.0734 23.1766 17.3618 22.6315C17.7098 21.9741 17.7979 21.6236 17.7686 21.0134C17.7402 20.4215 17.6204 20.3459 17.287 20.0765C16.971 19.8211 16.1315 19.7702 15.1537 19.8155C14.1991 19.8599 13.731 19.8033 13.2751 19.5887C12.9215 19.4222 12.7962 19.2342 12.9055 19.034C13.0041 18.8533 13.5056 18.3892 14.1264 18.2046C14.4034 18.1222 14.6223 18.0347 14.6126 18.0101C14.6029 17.9854 14.3847 17.8104 14.1277 17.621C13.0781 16.8482 12.45 15.9763 12.45 15.1166C12.45 14.878 12.4761 14.7998 12.5909 14.6941C12.717 14.5779 12.7695 14.5676 13.0915 14.5964C13.2892 14.6141 13.6467 14.705 13.8859 14.7984C14.4678 15.0257 15.1965 15.0138 15.7843 14.9362C16.0295 14.9037 16.2879 14.8401 16.3586 14.7947C16.4293 14.7493 16.6221 14.48 16.7869 14.1964C17.4295 13.0907 18.1099 12.3769 18.8722 12.0089C19.7506 11.5848 20.9933 11.3579 22.1729 11.4063C23.591 11.4646 24.7956 11.9422 25.7792 12.8364C26.4554 13.4511 26.9028 13.6048 27.546 13.4432C27.9984 13.3296 28.0086 13.3302 28.0086 13.4684C28.0086 13.65 27.8598 13.8854 27.6313 14.065L27.4209 14.2305L27.6331 14.3532C27.9254 14.5223 27.8908 14.6583 27.543 14.707C27.2533 14.7476 27.0362 14.8412 27.0362 14.9255C27.0362 14.9552 27.0778 15.213 27.1286 15.4983C27.2533 16.1981 27.2089 17.3445 27.0393 18.0137C26.7765 19.0515 26.3788 19.7823 25.6993 20.4761C25.1784 21.0079 24.5719 21.4243 23.9948 21.6463C23.6042 21.7965 23.4993 21.891 23.723 21.891C23.7884 21.891 24.1552 21.918 24.5381 21.951C25.9398 22.0721 26.9361 22.6562 28.3437 23.2951C29.6731 23.8986 30.2381 24.1735 30.9738 23.808C31.4434 23.5746 32.2316 22.2213 32.7338 21.5621C33.1636 20.9981 33.3582 20.8655 33.7573 20.8655C34.1482 20.8655 34.3737 21.01 34.6695 21.4499C35.0884 22.0727 35.317 22.7439 35.4796 23.8288C35.5958 24.6042 35.5631 26.7389 35.4192 27.5119C34.5587 32.1317 31.5317 35.242 26.9106 36.2544C25.6634 36.5278 25.1609 36.5769 23.4326 36.5945C22.536 36.6037 21.699 36.6015 21.5733 36.589Z" fill="url(#paint1_linear_312_529)"/>
<defs>
<linearGradient id="paint0_linear_312_529" x1="24" y1="45" x2="24" y2="3" gradientUnits="userSpaceOnUse">
<stop stop-color="#02AA93"/>
<stop offset="1" stop-color="#67FF80"/>
</linearGradient>
<linearGradient id="paint1_linear_312_529" x1="24" y1="36.6002" x2="24" y2="11.3999" gradientUnits="userSpaceOnUse">
<stop stop-color="#02AA93"/>
<stop offset="1" stop-color="#67FF80"/>
</linearGradient>
</defs>
</svg>
