<svg width="24" height="24" viewBox="0 0 24 24" fill="none" xmlns="http://www.w3.org/2000/svg">
<path opacity="0.4" d="M17.3729 4.42633H14.1355C13.329 4.43166 12.5633 4.07291 12.0522 3.45026L10.9861 1.97639C10.4836 1.34827 9.7179 0.987839 8.9126 1.00031H6.62392C2.51602 1.00031 1.00001 3.41121 1.00001 7.51072L1 10C0.994891 10.4873 9.49859 6.98671 9.5 6.5L11.9968 5.65368C13 6 19.5 5 17.3729 4.42633Z" fill="url(#paint0_linear_11_173)"/>
<path fill-rule="evenodd" clip-rule="evenodd" d="M21.7153 5.99783C22.0673 6.40932 22.3392 6.88266 22.5174 7.39361C22.8678 8.44376 23.03 9.54734 22.9966 10.6537V16.432C22.9952 16.9188 22.9592 17.4048 22.889 17.8864C22.7553 18.7364 22.4562 19.5521 22.0088 20.2875C21.8031 20.6428 21.5533 20.9707 21.2654 21.2636C19.9621 22.4598 18.2315 23.0824 16.4632 22.9913H7.52367C5.75254 23.0817 4.01908 22.4594 2.71161 21.2636C2.42714 20.9702 2.1807 20.6422 1.97806 20.2875C1.53322 19.5526 1.24056 18.7361 1.11737 17.8864C1.03904 17.4056 0.999787 16.9192 1 16.432V10.6537C0.999809 10.1711 1.02593 9.68886 1.07825 9.20911C1.08925 9.12494 1.10575 9.04213 1.12208 8.96019C1.1493 8.82359 1.17605 8.68936 1.17605 8.55514C1.27534 7.97618 1.45645 7.41422 1.71399 6.88605C2.47687 5.25601 4.04177 4.42635 6.60429 4.42635H17.363C18.7982 4.31535 20.2228 4.74742 21.3535 5.63668C21.4837 5.7471 21.6047 5.86788 21.7153 5.99783ZM10.3464 17.4291V19.2693H10.3256C10.3256 19.464 10.2501 19.6507 10.1158 19.7879C9.98149 19.925 9.79952 20.0014 9.61027 20H8.50094C7.39585 20 6.5 19.0782 6.5 17.9412V12.7195C6.51016 12.2717 6.7158 11.8525 7.05985 11.5781L10.8336 8.44723C11.4878 7.8674 12.4507 7.84947 13.1249 8.40456L16.9816 11.5781C17.3101 11.8608 17.5 12.2788 17.5 12.7195V17.9465C17.5 18.4921 17.289 19.0152 16.9136 19.4004C16.5382 19.7857 16.0293 20.0014 15.4991 20H14.3638C13.9707 19.9971 13.6536 19.6684 13.6536 19.2639V17.4291C13.6536 16.9608 13.2846 16.5811 12.8294 16.5811H11.1654C10.7122 16.584 10.3464 16.9629 10.3464 17.4291Z" fill="url(#paint1_linear_11_173)"/>
<defs>
<linearGradient id="paint0_linear_11_173" x1="1.04307" y1="4.00369" x2="7.85885" y2="13.5384" gradientUnits="userSpaceOnUse">
<stop stop-color="#0084C8"/>
<stop offset="1" stop-color="#23B4FF"/>
</linearGradient>
<linearGradient id="paint1_linear_11_173" x1="1.05641" y1="10.582" x2="15.7628" y2="23.6938" gradientUnits="userSpaceOnUse">
<stop stop-color="#0084C8"/>
<stop offset="1" stop-color="#23B4FF"/>
</linearGradient>
</defs>
</svg>
