<svg width="64" height="64" viewBox="0 0 64 64" fill="none" xmlns="http://www.w3.org/2000/svg">
<path opacity="0.4" d="M44.858 53C54.326 53 62 45.416 62 36.059C62 28.643 57.179 22.34 50.465 20.045C49.511 11.582 42.245 5 33.428 5C23.96 5 16.286 12.584 16.286 21.941C16.286 24.011 16.661 25.991 17.348 27.827C16.5276 27.6676 15.6938 27.5872 14.858 27.587C7.757 27.59 2 33.278 2 40.295C2 47.312 7.757 53 14.858 53H44.858Z" fill="url(#paint0_linear_235_136)"/>
<path d="M38.6585 55.0846V43.4833C38.6585 42.2998 39.6179 41.3405 40.8014 41.3405H42.8143C43.3084 41.3404 43.7914 41.1938 44.2023 40.9192C44.6132 40.6446 44.9333 40.2544 45.1224 39.7978C45.3115 39.3413 45.361 38.8389 45.2646 38.3542C45.1683 37.8695 44.9303 37.4243 44.5809 37.0748L36.6769 29.1706C36.2083 28.7022 35.5727 28.439 34.9101 28.439C34.2474 28.439 33.612 28.7022 33.1433 29.1706L25.2392 37.0748C24.8898 37.4243 24.6519 37.8695 24.5555 38.3542C24.4592 38.8389 24.5087 39.3413 24.6978 39.7978C24.8868 40.2544 25.207 40.6446 25.6179 40.9192C26.0287 41.1938 26.5118 41.3404 27.006 41.3405H29.0189C30.2024 41.3405 31.1617 42.2998 31.1617 43.4833V55.0846C31.1617 56.0788 31.5567 57.0323 32.2596 57.7352C32.9626 58.4382 33.9159 58.833 34.9101 58.833C35.9042 58.833 36.8577 58.4382 37.5606 57.7352C38.2636 57.0323 38.6585 56.0788 38.6585 55.0846Z" fill="url(#paint1_linear_235_136)"/>
<defs>
<linearGradient id="paint0_linear_235_136" x1="32" y1="53" x2="32" y2="5" gradientUnits="userSpaceOnUse">
<stop stop-color="#FD5900"/>
<stop offset="1" stop-color="#FFDE00"/>
</linearGradient>
<linearGradient id="paint1_linear_235_136" x1="34.9101" y1="58.833" x2="34.9101" y2="28.439" gradientUnits="userSpaceOnUse">
<stop stop-color="#FD2E00"/>
<stop offset="1" stop-color="#FF9900"/>
</linearGradient>
</defs>
</svg>
