<svg width="192" height="192" viewBox="0 0 192 192" fill="none" xmlns="http://www.w3.org/2000/svg">
<path opacity="0.4" fill-rule="evenodd" clip-rule="evenodd" d="M37.7175 9.00084C34.8793 9.00084 32.0189 9.25526 29.2694 10.0185C17.85 13.0051 9.10255 23.9891 9.02495 35.8139C8.99168 76.0223 8.99168 116.22 9.02495 156.428C9.02495 170.509 21.431 182.998 35.5223 183.274C66.8677 183.352 98.2196 183.336 129.573 183.32H129.574C138.475 183.315 147.378 183.31 156.279 183.308C167.466 183.297 178.131 175.775 181.912 165.277C183.597 161.052 183.686 156.45 183.608 151.981C183.587 133.549 183.591 115.118 183.595 96.6864C183.599 76.4141 183.604 56.1417 183.575 35.8692C183.597 21.4892 170.626 8.84598 156.257 9.02297C134.525 8.99255 112.793 8.99893 91.0614 9.00532C73.2801 9.01055 55.4988 9.01577 37.7175 9.00084Z" fill="url(#paint0_linear_54_651)"/>
<path d="M91.8253 54.2601C114.214 53.1622 137.213 55.3703 158.022 64.1415C161.263 65.4102 163.819 68.4967 163.978 72.0344C164.32 76.5603 160.664 81.0496 156.079 81.3668C153.932 81.6395 151.92 80.8583 149.959 80.0967L149.957 80.0962L149.956 80.0957L149.908 80.0771C149.517 79.9256 149.13 79.7752 148.743 79.6345C132.566 73.2299 114.923 71.6562 97.6821 71.9368C79.0602 72.3393 60.4629 75.7063 43.1004 82.4891C38.9065 84.3434 33.1475 84.8434 30.0173 80.83C26.1903 76.4139 28.0489 68.8626 33.5632 66.8253C51.9773 59.1521 71.9074 55.0287 91.8253 54.2601Z" fill="url(#paint1_linear_54_651)"/>
<path d="M150.112 97.6894C132.346 89.6378 112.551 86.5149 93.1334 87.137C76.5779 87.625 60.0224 90.7846 44.7141 97.1648C42.5377 98.0677 40.1778 99.1165 39.0163 101.312C36.5953 105.301 39.0896 111.121 43.6626 112.121C45.4699 112.877 47.33 112.235 49.0857 111.627C49.3968 111.52 49.7047 111.413 50.0085 111.316C77.3605 100.056 108.907 98.8364 136.944 108.364C138.151 108.715 139.385 109.251 140.635 109.794C144.042 111.276 147.566 112.807 150.993 110.755C155.859 107.875 155.443 99.8367 150.112 97.6894Z" fill="url(#paint2_linear_54_651)"/>
<path d="M49.2254 127.516C78.1303 116.574 111.596 113.267 140.562 125.784C143.557 126.809 146.577 129.553 145.868 133.018C145.745 135.473 143.544 136.657 141.575 137.717L141.573 137.718L141.49 137.763C141.139 137.952 140.797 138.137 140.476 138.325C138.537 137.673 136.617 136.961 134.698 136.249L134.641 136.228L134.638 136.227C130.502 134.691 126.37 133.156 122.049 132.225C100.077 126.967 76.9076 130.396 55.877 137.885C53.0893 138.935 49.2622 139.666 47.1102 137.032C44.3225 134.226 45.3495 128.76 49.2254 127.516Z" fill="url(#paint3_linear_54_651)"/>
<defs>
<linearGradient id="paint0_linear_54_651" x1="96.3134" y1="183.333" x2="96.3134" y2="8.99999" gradientUnits="userSpaceOnUse">
<stop stop-color="#02AA93"/>
<stop offset="1" stop-color="#67FF80"/>
</linearGradient>
<linearGradient id="paint1_linear_54_651" x1="94.9694" y1="189.529" x2="94.9694" y2="-2.73545" gradientUnits="userSpaceOnUse">
<stop stop-color="#02AA93"/>
<stop offset="1" stop-color="#67FF80"/>
</linearGradient>
<linearGradient id="paint2_linear_54_651" x1="94.9694" y1="189.529" x2="94.9694" y2="-2.73545" gradientUnits="userSpaceOnUse">
<stop stop-color="#02AA93"/>
<stop offset="1" stop-color="#67FF80"/>
</linearGradient>
<linearGradient id="paint3_linear_54_651" x1="94.9694" y1="189.529" x2="94.9694" y2="-2.73545" gradientUnits="userSpaceOnUse">
<stop stop-color="#02AA93"/>
<stop offset="1" stop-color="#67FF80"/>
</linearGradient>
</defs>
</svg>
