<svg width="64" height="64" viewBox="0 0 64 64" fill="none" xmlns="http://www.w3.org/2000/svg">
<path opacity="0.4" fill-rule="evenodd" clip-rule="evenodd" d="M4 27.9767C4 14.8294 14.8151 4 27.945 4C41.0749 4 51.89 14.8295 51.89 27.9768V27.9884C51.888 29.6308 51.7054 31.2545 51.3658 32.8429C51.0539 34.3016 51.4052 35.8507 52.4589 36.9065L56.6875 41.1436L56.6187 41.0769C58.7743 43.1786 60.1401 46.4919 59.9886 49.4675C59.8359 52.4652 58.5293 54.9248 56.7304 56.7261C54.9315 58.5273 52.4752 59.8357 49.4814 59.9885C46.4877 60.1414 43.1518 58.7523 41.0555 56.5661L36.9882 52.4961C35.9274 51.4346 34.3672 51.0838 32.9014 51.4055C31.2809 51.7612 29.6236 51.9537 27.945 51.9534C14.8151 51.9534 4 41.124 4 27.9767ZM16.6863 16.6863C19.6869 13.6857 23.7565 12 28 12C32.2435 12 36.3131 13.6857 39.3137 16.6863C42.3143 19.6869 44 23.7565 44 28C43.9967 30.0791 43.5883 32.1267 42.809 34.032C42.0834 35.806 42.233 37.9166 43.5883 39.2719L51.1523 46.8359C54.0972 49.6635 49.7377 54.023 46.9102 51.0781L37.0379 41.2059C37.0374 41.2054 37.0367 41.2051 37.036 41.2051V41.2051C37.0355 41.2051 37.035 41.2053 37.0345 41.2056C34.3734 43.0261 31.2242 44.0001 28 44C23.7565 44 19.6869 42.3143 16.6863 39.3137C13.6857 36.3131 12 32.2435 12 28C12 23.7565 13.6857 19.6869 16.6863 16.6863Z" fill="url(#paint0_linear_37_67)"/>
<path d="M28 18C29.3132 18 30.6136 18.2587 31.8268 18.7612C33.0401 19.2638 34.1425 20.0003 35.0711 20.9289C35.9997 21.8575 36.7362 22.9599 37.2388 24.1732C37.7413 25.3864 38 26.6868 38 28C38 29.3132 37.7413 30.6136 37.2388 31.8268C36.7362 33.0401 35.9997 34.1425 35.0711 35.0711C34.1425 35.9997 33.0401 36.7362 31.8268 37.2388C30.6136 37.7413 29.3132 38 28 38C26.6868 38 25.3864 37.7413 24.1732 37.2388C22.9599 36.7362 21.8575 35.9997 20.9289 35.0711C20.0003 34.1425 19.2638 33.0401 18.7612 31.8268C18.2587 30.6136 18 29.3132 18 28C18 26.6868 18.2587 25.3864 18.7612 24.1732C19.2638 22.9599 20.0003 21.8575 20.9289 20.9289C21.8575 20.0003 22.9599 19.2638 24.1732 18.7612C25.3864 18.2587 26.6868 18 28 18Z" fill="url(#paint1_linear_37_67)"/>
<defs>
<linearGradient id="paint0_linear_37_67" x1="32" y1="60" x2="32" y2="4" gradientUnits="userSpaceOnUse">
<stop stop-color="#00B59C"/>
<stop offset="1" stop-color="#9CFFAC"/>
</linearGradient>
<linearGradient id="paint1_linear_37_67" x1="32" y1="60" x2="32" y2="4" gradientUnits="userSpaceOnUse">
<stop stop-color="#00B59C"/>
<stop offset="1" stop-color="#9CFFAC"/>
</linearGradient>
</defs>
</svg>
