<svg width="48" height="48" viewBox="0 0 48 48" fill="none" xmlns="http://www.w3.org/2000/svg">
<path d="M41.1236 16.3123C41.44 15.8008 41.788 15.2038 42.145 14.5513C43.798 17.4823 44.7445 20.8618 44.7445 24.4663C44.7445 35.6278 35.6951 44.6757 24.5336 44.6757C13.3722 44.6757 4.32422 35.6278 4.32422 24.4663C4.32422 13.3049 13.3722 4.2569 24.5336 4.2569C27.8996 4.2569 31.0706 5.07889 33.8621 6.53539C33.1751 6.91638 32.5496 7.29138 32.0201 7.62588C31.2071 7.47888 30.5411 7.59288 30.1241 8.00838C29.3606 8.77338 29.6126 10.3754 30.6236 12.1889C31.1441 13.2134 31.9556 14.3249 32.9996 15.3688C33.1961 15.5653 33.3956 15.7528 33.5981 15.9343C36.4841 18.6823 39.6866 19.9438 40.8731 18.7573C41.38 18.2518 41.437 17.3743 41.1236 16.3123ZM44.5195 4.0289C46.7455 6.25489 40.5731 16.0363 39.5306 17.0803C38.4866 18.1213 35.8361 17.1643 33.6101 14.9383C31.3841 12.7124 30.4256 10.0619 31.4681 9.01787C32.5121 7.97388 42.2935 1.80291 44.5195 4.0289Z" fill="url(#paint0_linear_345_649)"/>
<path opacity="0.5" d="M3.52489 3.84894C5.06388 2.30994 9.89986 4.45643 13.2988 6.38392C10.3409 8.20492 7.87187 10.7429 6.13787 13.7579C4.18938 10.3529 1.96639 5.40743 3.52489 3.84894Z" fill="url(#paint1_linear_345_649)"/>
<defs>
<linearGradient id="paint0_linear_345_649" x1="6.54289" y1="44.6757" x2="44.8894" y2="3.44546" gradientUnits="userSpaceOnUse">
<stop offset="0.106984" stop-color="#E02767"/>
<stop offset="0.871403" stop-color="#FA5D51"/>
</linearGradient>
<linearGradient id="paint1_linear_345_649" x1="3.56175" y1="13.7579" x2="13.2918" y2="3.31717" gradientUnits="userSpaceOnUse">
<stop offset="0.106984" stop-color="#E02767"/>
<stop offset="0.871403" stop-color="#FA5D51"/>
</linearGradient>
</defs>
</svg>
