<svg width="64" height="64" viewBox="0 0 64 64" fill="none" xmlns="http://www.w3.org/2000/svg">
<path opacity="0.4" d="M23.2158 4.37299C22.5382 4.45178 22.1367 5.171 22.4251 5.78918L26.4246 14.3594C26.6324 14.8047 27.133 15.033 27.6055 14.898L39.0464 11.6292C40.175 11.3067 40.9975 13.083 40.0349 13.7548C29.177 21.332 8.4683 37.992 7.07416 55.6623C7.01134 56.4585 7.90401 56.9275 8.57067 56.4877C34.8202 39.1687 50.115 33.6426 54.0375 32.3941C54.5887 32.2186 54.8949 31.6259 54.712 31.0771L52.5517 24.5962C52.3724 24.0585 51.7826 23.7771 51.2519 23.9761L33.1508 30.764C32.1897 31.1244 31.4222 30.0232 32.1183 29.2689C36.7031 24.3011 46.9226 14.1078 57.2531 9.73602C57.6297 9.57666 57.8793 9.20855 57.8639 8.79993C57.5881 1.47171 52.8517 1.02853 52.2799 1.00173C52.2413 0.999918 52.2043 1.00223 52.166 1.00669L23.2158 4.37299Z" fill="url(#paint0_linear_231_114)"/>
<path d="M23.2158 9.84357C22.5382 9.92236 22.1367 10.6416 22.4251 11.2598L26.4246 19.83C26.6324 20.2753 27.133 20.5036 27.6055 20.3686L39.0464 17.0998C40.175 16.7773 40.9975 18.5536 40.0349 19.2253C29.177 26.8026 8.4683 43.4626 7.07416 61.1329C7.01134 61.9291 7.90401 62.3981 8.57067 61.9583C34.8202 44.6392 50.115 39.1132 54.0375 37.8646C54.5887 37.6892 54.8949 37.0965 54.712 36.5477L52.5517 30.0668C52.3724 29.5291 51.7826 29.2477 51.2519 29.4467L33.1508 36.2346C32.1897 36.595 31.4222 35.4938 32.1183 34.7395C36.7031 29.7717 46.9226 19.5783 57.2531 15.2066C57.6297 15.0472 57.8793 14.6791 57.8639 14.2705C57.5881 6.94229 52.8517 6.49911 52.2799 6.47231C52.2413 6.4705 52.2043 6.47282 52.166 6.47727L23.2158 9.84357Z" fill="url(#paint1_linear_231_114)"/>
<defs>
<linearGradient id="paint0_linear_231_114" x1="32.4382" y1="57.5294" x2="32.4382" y2="1" gradientUnits="userSpaceOnUse">
<stop stop-color="#FD5900"/>
<stop offset="1" stop-color="#FFDE00"/>
</linearGradient>
<linearGradient id="paint1_linear_231_114" x1="32.4382" y1="63" x2="32.4382" y2="6.47058" gradientUnits="userSpaceOnUse">
<stop stop-color="#FD5900"/>
<stop offset="1" stop-color="#FFDE00"/>
</linearGradient>
</defs>
</svg>
