<svg width="64" height="64" viewBox="0 0 64 64" fill="none" xmlns="http://www.w3.org/2000/svg">
<path opacity="0.4" d="M44.858 53C54.326 53 62 45.416 62 36.059C62 28.643 57.179 22.34 50.465 20.045C49.511 11.582 42.245 5 33.428 5C23.96 5 16.286 12.584 16.286 21.941C16.286 24.011 16.661 25.991 17.348 27.827C16.5276 27.6676 15.6938 27.5872 14.858 27.587C7.757 27.59 2 33.278 2 40.295C2 47.312 7.757 53 14.858 53H44.858Z" fill="url(#paint0_linear_235_145)"/>
<path d="M38.6585 32.1874V43.7888C38.6585 44.9723 39.6179 45.9316 40.8014 45.9316H42.8143C43.3084 45.9317 43.7914 46.0783 44.2023 46.3529C44.6132 46.6275 44.9333 47.0177 45.1224 47.4743C45.3115 47.9308 45.361 48.4332 45.2646 48.9179C45.1683 49.4026 44.9303 49.8478 44.5809 50.1973L36.6769 58.1014C36.2083 58.5699 35.5727 58.8331 34.9101 58.8331C34.2474 58.8331 33.612 58.5699 33.1433 58.1014L25.2392 50.1973C24.8898 49.8478 24.6519 49.4026 24.5555 48.9179C24.4592 48.4332 24.5087 47.9308 24.6978 47.4743C24.8868 47.0177 25.207 46.6275 25.6179 46.3529C26.0287 46.0783 26.5118 45.9317 27.006 45.9316H29.0189C30.2024 45.9316 31.1617 44.9723 31.1617 43.7888V32.1874C31.1617 31.1933 31.5567 30.2398 32.2596 29.5368C32.9626 28.8339 33.9159 28.439 34.9101 28.439C35.9042 28.439 36.8577 28.8339 37.5606 29.5368C38.2636 30.2398 38.6585 31.1933 38.6585 32.1874Z" fill="url(#paint1_linear_235_145)"/>
<defs>
<linearGradient id="paint0_linear_235_145" x1="32" y1="53" x2="32" y2="5" gradientUnits="userSpaceOnUse">
<stop stop-color="#5570FF"/>
<stop offset="1" stop-color="#4DD3FF"/>
</linearGradient>
<linearGradient id="paint1_linear_235_145" x1="34.9101" y1="58.8331" x2="34.9101" y2="28.439" gradientUnits="userSpaceOnUse">
<stop stop-color="#5570FF"/>
<stop offset="1" stop-color="#4DD3FF"/>
</linearGradient>
</defs>
</svg>
