<svg width="192" height="192" viewBox="0 0 192 192" fill="none" xmlns="http://www.w3.org/2000/svg">
<path opacity="0.4" d="M29.2694 10.0185C32.0189 9.25526 34.8793 9.00084 37.7175 9.00084C77.2307 9.03403 116.744 8.96766 156.257 9.02297C170.626 8.84598 183.597 21.4892 183.575 35.8692C183.63 74.5733 183.564 113.277 183.608 151.981C183.686 156.45 183.597 161.052 181.912 165.277C178.131 175.775 167.466 183.297 156.279 183.308C116.023 183.319 75.7672 183.374 35.5223 183.274C21.431 182.998 9.02495 170.509 9.02495 156.428C8.99168 116.22 8.99168 76.0223 9.02495 35.8139C9.10255 23.9891 17.85 13.0051 29.2694 10.0185Z" fill="url(#paint0_linear_38_264)"/>
<path fill-rule="evenodd" clip-rule="evenodd" d="M100.047 51.7012C107.808 43.646 119.765 39.6755 131.006 41.3958C140.882 42.8144 149.948 48.5542 155.333 56.6665C160.92 64.9011 162.487 75.5409 159.538 84.974C155.948 97.2362 144.572 106.824 131.638 108.944C130.98 109.065 130.293 109.105 129.604 109.146H129.604C128.061 109.238 126.511 109.33 125.276 110.322C121.963 112.638 118.632 114.932 115.3 117.226L115.299 117.227C111.114 120.109 106.929 122.991 102.777 125.919C102.347 132.286 99.6 138.491 95.008 143.073C88.6036 149.644 78.6182 152.718 69.4839 150.794C60.6108 149.131 52.85 142.959 49.4541 134.855C49.2885 134.57 49.1549 134.247 49.02 133.922C48.661 133.054 48.2932 132.166 47.2885 131.911C41.2779 129.515 35.264 127.125 29.251 124.736C25.7298 123.337 22.2088 121.938 18.689 120.538C16.3717 119.82 14.6358 117.546 15.0656 115.157C15.3605 111.936 19.3884 109.939 22.304 111.52C23.5692 112.02 24.8346 112.519 26.0999 113.019C35.7142 116.814 45.329 120.61 54.8976 124.508C56.8948 125.264 57.4578 127.205 57.9924 129.048C58.1434 129.569 58.2922 130.082 58.4705 130.558C61.445 138.801 71.5905 143.635 80.1603 140.847C87.5334 138.744 92.943 131.577 92.69 124.133C92.547 122.315 93.213 120.415 94.848 119.396C103.535 113.347 112.248 107.338 120.97 101.337C122.817 99.9102 125.112 99.7391 127.381 99.5699L127.381 99.5699C128.094 99.5168 128.804 99.4639 129.497 99.3723C141.96 97.6602 152.047 85.9197 150.867 73.6657C150.387 61.3708 138.851 50.5109 126.051 50.8941C114.186 50.2011 103.038 59.1939 100.923 70.3881C100.63 71.4437 100.556 72.5593 100.482 73.6731C100.354 75.6045 100.227 77.5303 98.96 79.1282C94.9416 84.7896 90.9085 90.4438 86.8755 96.0981L86.8752 96.0985C84.8273 98.9697 82.7793 101.841 80.7333 104.713C79.6884 106.49 77.6492 107.517 75.5341 107.313C72.0793 107.24 68.5907 107.99 65.7088 109.898C63.7455 111.365 60.9226 111.374 58.9002 110.004C52.7039 106.459 46.4956 102.934 40.2869 99.4082C32.7161 95.1094 25.1446 90.8102 17.5935 86.4741C14.8886 85.137 14.1387 81.2562 16.2369 79.1119C17.7789 77.2938 20.6608 76.8943 22.6747 78.2069C35.8201 85.6344 48.957 93.0781 62.0686 100.546C65.6835 98.932 69.5345 97.8151 73.5286 97.6276C74.4691 96.3212 75.4112 95.0158 76.3534 93.7103L76.3611 93.6996C81.0553 87.195 85.7503 80.6894 90.2468 74.0652C90.8703 65.8305 94.089 57.7101 100.047 51.7012ZM122.901 63.0726L122.922 63.0672L122.943 63.0615C128.084 61.6809 133.98 64.4453 136.037 69.0315L136.065 69.0938L136.096 69.1547C138.316 73.5577 136.745 79.4893 132.502 82.3582L132.465 82.3828L132.43 82.4085C128.685 85.1034 123.137 85.1637 119.351 82.5344L119.314 82.5086L119.276 82.4839C115.579 80.0783 113.752 75.3592 114.787 71.2226L114.8 71.1703L114.812 71.1175C115.606 67.3756 118.88 64.0892 122.901 63.0726ZM73.0683 119.799L72.9312 119.831C71.0914 120.262 69.722 121.753 69.216 123.679C68.7085 125.611 69.1835 127.533 70.5208 128.735L70.6032 128.809L70.6799 128.889C71.8859 130.147 73.8458 130.666 75.8582 130.251C77.8715 129.836 79.3868 128.604 79.9281 127.036L79.9779 126.891L80.042 126.753C80.8078 125.1 80.3724 123.062 78.8248 121.427C77.2802 119.794 75.1215 119.11 73.2018 119.754L73.0683 119.799Z" fill="url(#paint1_linear_38_264)"/>
<path d="M131.006 41.3958L130.552 44.3612L130.566 44.3633L130.579 44.3653L131.006 41.3958ZM100.047 51.7012L102.177 53.8134L102.192 53.7982L102.207 53.7827L100.047 51.7012ZM155.333 56.6665L152.834 58.3256L152.842 58.3382L152.85 58.3508L155.333 56.6665ZM159.538 84.974L156.675 84.0788L156.667 84.1048L156.659 84.131L159.538 84.974ZM131.638 108.944L131.153 105.983L131.125 105.988L131.097 105.993L131.638 108.944ZM129.604 109.146V112.146H129.693L129.782 112.141L129.604 109.146ZM129.604 109.146V106.146H129.515L129.427 106.151L129.604 109.146ZM125.276 110.322L126.995 112.781L127.077 112.723L127.155 112.661L125.276 110.322ZM115.3 117.226L113.599 114.755L113.588 114.763L115.3 117.226ZM115.299 117.227L117.001 119.698L117.011 119.691L115.299 117.227ZM102.777 125.919L101.048 123.467L99.8801 124.291L99.7838 125.717L102.777 125.919ZM95.008 143.073L92.889 140.949L92.8742 140.964L92.8596 140.979L95.008 143.073ZM69.4839 150.794L70.1023 147.858L70.0695 147.851L70.0366 147.845L69.4839 150.794ZM49.4541 134.855L52.221 133.696L52.1458 133.516L52.0479 133.348L49.4541 134.855ZM49.02 133.922L51.7918 132.774L51.7918 132.774L49.02 133.922ZM47.2885 131.911L46.1777 134.698L46.3599 134.77L46.55 134.819L47.2885 131.911ZM29.251 124.736L28.1432 127.524L28.1432 127.524L29.251 124.736ZM18.689 120.538L19.7978 117.75L19.6889 117.707L19.5769 117.672L18.689 120.538ZM15.0656 115.157L18.0182 115.688L18.0413 115.56L18.0531 115.43L15.0656 115.157ZM22.304 111.52L20.874 114.157L21.0333 114.244L21.2019 114.31L22.304 111.52ZM26.0999 113.019L24.9983 115.809L24.9983 115.809L26.0999 113.019ZM54.8976 124.508L53.7658 127.286L53.8004 127.3L53.8353 127.314L54.8976 124.508ZM57.9924 129.048L60.8736 128.212L60.8736 128.212L57.9924 129.048ZM58.4705 130.558L61.2924 129.54L61.2863 129.523L61.2801 129.506L58.4705 130.558ZM80.1603 140.847L79.3374 137.962L79.2845 137.977L79.2322 137.994L80.1603 140.847ZM92.69 124.133L95.6883 124.031L95.686 123.964L95.6808 123.898L92.69 124.133ZM94.848 119.396L96.4348 121.942L96.4996 121.902L96.5623 121.858L94.848 119.396ZM120.97 101.337L122.67 103.808L122.739 103.762L122.804 103.711L120.97 101.337ZM127.381 99.5699L127.604 102.562L127.642 102.559L127.68 102.555L127.381 99.5699ZM127.381 99.5699L127.158 96.5782L127.121 96.581L127.083 96.5848L127.381 99.5699ZM129.497 99.3723L129.89 102.346L129.898 102.345L129.905 102.344L129.497 99.3723ZM150.867 73.6657L147.869 73.7827L147.873 73.8681L147.881 73.9532L150.867 73.6657ZM126.051 50.8941L125.876 53.889L126.008 53.8967L126.141 53.8927L126.051 50.8941ZM100.923 70.3881L103.814 71.1894L103.848 71.0684L103.871 70.945L100.923 70.3881ZM100.482 73.6731L103.476 73.8717L103.476 73.8717L100.482 73.6731ZM98.96 79.1282L96.609 77.2646L96.5596 77.3269L96.5136 77.3917L98.96 79.1282ZM86.8755 96.0981L89.3075 97.8546L89.3127 97.8474L89.3178 97.8402L86.8755 96.0981ZM86.8752 96.0985L84.4431 94.3421L84.4379 94.3493L84.4328 94.3565L86.8752 96.0985ZM80.7333 104.713L78.2899 102.972L78.2138 103.079L78.1473 103.192L80.7333 104.713ZM75.5341 107.313L75.8221 104.327L75.7101 104.316L75.5975 104.314L75.5341 107.313ZM65.7088 109.898L64.0527 107.397L63.9815 107.444L63.9131 107.495L65.7088 109.898ZM58.9002 110.004L60.5827 107.52L60.4887 107.456L60.39 107.4L58.9002 110.004ZM40.2869 99.4082L41.7682 96.7995L41.7682 96.7995L40.2869 99.4082ZM17.5935 86.4741L19.0874 83.8725L19.0066 83.826L18.9229 83.7847L17.5935 86.4741ZM16.2369 79.1119L18.3812 81.21L18.4558 81.1337L18.5248 81.0523L16.2369 79.1119ZM22.6747 78.2069L21.0366 80.7202L21.1162 80.772L21.1989 80.8188L22.6747 78.2069ZM62.0686 100.546L60.5839 103.153L61.9042 103.905L63.2917 103.285L62.0686 100.546ZM73.5286 97.6276L73.6693 100.624L75.1167 100.556L75.9633 99.3803L73.5286 97.6276ZM76.3534 93.7103L78.786 95.4659L78.7861 95.4658L76.3534 93.7103ZM76.3611 93.6996L73.9284 91.944L73.9284 91.944L76.3611 93.6996ZM90.2468 74.0652L92.729 75.75L93.1779 75.0887L93.2382 74.2917L90.2468 74.0652ZM122.922 63.0672L123.669 65.9727L123.688 65.9678L123.708 65.9625L122.922 63.0672ZM122.901 63.0726L123.636 65.9811L123.648 65.9781L122.901 63.0726ZM122.943 63.0615L122.165 60.1642L122.157 60.1662L122.943 63.0615ZM136.037 69.0315L133.3 70.2592L133.301 70.2614L136.037 69.0315ZM136.065 69.0938L133.329 70.3237L133.358 70.3898L133.391 70.4543L136.065 69.0938ZM136.096 69.1547L138.775 67.8041L138.77 67.7942L136.096 69.1547ZM132.502 82.3582L134.163 84.8566L134.173 84.8501L134.182 84.8434L132.502 82.3582ZM132.465 82.3828L130.804 79.8845L130.746 79.9232L130.689 79.9647L132.465 82.3828ZM132.43 82.4085L134.182 84.8436L134.194 84.8352L134.206 84.8266L132.43 82.4085ZM119.351 82.5344L117.635 84.9951L117.64 84.9985L119.351 82.5344ZM119.314 82.5086L121.03 80.048L120.99 80.0199L120.949 79.9931L119.314 82.5086ZM119.276 82.4839L117.64 84.9985L117.641 84.9994L119.276 82.4839ZM114.787 71.2226L117.697 71.9508L117.698 71.9462L114.787 71.2226ZM114.8 71.1703L117.711 71.8939L117.719 71.8645L117.725 71.8349L114.8 71.1703ZM114.812 71.1175L117.737 71.7821L117.742 71.7612L117.747 71.7402L114.812 71.1175ZM72.9312 119.831L72.2494 116.91L72.2469 116.91L72.9312 119.831ZM73.0683 119.799L73.7501 122.721L73.8903 122.688L74.0267 122.642L73.0683 119.799ZM69.216 123.679L66.3145 122.917L66.3144 122.917L69.216 123.679ZM70.5208 128.735L68.5153 130.966L68.5163 130.967L70.5208 128.735ZM70.6032 128.809L72.7688 126.733L72.6912 126.652L72.6077 126.577L70.6032 128.809ZM70.6799 128.889L72.8455 126.813L72.8455 126.813L70.6799 128.889ZM75.8582 130.251L75.2525 127.313L75.2523 127.313L75.8582 130.251ZM79.9281 127.036L82.7639 128.015L82.7654 128.01L79.9281 127.036ZM79.9779 126.891L77.2571 125.627L77.1913 125.769L77.1405 125.917L79.9779 126.891ZM80.042 126.753L82.7628 128.017L82.7641 128.014L80.042 126.753ZM78.8248 121.427L76.6453 123.489L76.646 123.489L78.8248 121.427ZM73.2018 119.754L72.2477 116.91L72.2434 116.911L73.2018 119.754ZM131.46 38.4303C119.278 36.5659 106.339 40.8468 97.8866 49.6197L102.207 53.7827C109.277 46.4451 120.252 42.785 130.552 44.3612L131.46 38.4303ZM157.832 55.0073C151.97 46.1751 142.145 39.9651 131.433 38.4262L130.579 44.3653C139.619 45.6637 147.926 50.9332 152.834 58.3256L157.832 55.0073ZM162.401 85.8691C165.624 75.5607 163.915 63.9715 157.816 54.9821L152.85 58.3508C157.925 65.8306 159.35 75.521 156.675 84.0788L162.401 85.8691ZM132.123 111.904C146.115 109.611 158.48 99.2635 162.417 85.8169L156.659 84.131C153.416 95.2088 143.029 104.037 131.153 105.983L132.123 111.904ZM129.782 112.141C130.436 112.102 131.31 112.054 132.179 111.895L131.097 105.993C130.651 106.075 130.15 106.109 129.427 106.151L129.782 112.141ZM129.604 112.146H129.604V106.146H129.604V112.146ZM127.155 112.661C127.309 112.537 127.534 112.42 127.957 112.329C128.427 112.227 128.966 112.189 129.782 112.141L129.427 106.151C128.07 106.232 125.501 106.293 123.397 107.983L127.155 112.661ZM117.002 119.697C120.332 117.404 123.672 115.104 126.995 112.781L123.557 107.863C120.254 110.172 116.932 112.46 113.599 114.755L117.002 119.697ZM117.011 119.691L117.012 119.69L113.588 114.763L113.587 114.763L117.011 119.691ZM104.506 128.371C108.642 125.454 112.813 122.581 117.001 119.698L113.598 114.756C109.415 117.636 105.216 120.528 101.048 123.467L104.506 128.371ZM97.127 145.197C102.245 140.089 105.292 133.196 105.77 126.121L99.7838 125.717C99.4017 131.375 96.9546 136.893 92.889 140.949L97.127 145.197ZM68.8656 153.73C79.0045 155.865 90.0341 152.474 97.1564 145.167L92.8596 140.979C87.1731 146.814 78.2319 149.571 70.1023 147.858L68.8656 153.73ZM46.6872 136.014C50.4864 145.081 59.1001 151.9 68.9313 153.743L70.0366 147.845C62.1215 146.362 55.2136 140.837 52.221 133.696L46.6872 136.014ZM46.2482 135.069C46.3666 135.355 46.5753 135.872 46.8603 136.362L52.0479 133.348C52.0017 133.268 51.9431 133.139 51.7918 132.774L46.2482 135.069ZM46.55 134.819C46.4275 134.788 46.2884 134.725 46.1609 134.632C46.0412 134.544 45.98 134.465 45.9666 134.446C45.9576 134.434 45.981 134.464 46.036 134.578C46.0941 134.699 46.1527 134.839 46.2482 135.069L51.7918 132.774C51.5521 132.195 50.7113 129.685 48.027 129.003L46.55 134.819ZM28.1432 127.524C34.1565 129.914 40.1689 132.302 46.1777 134.698L48.3994 129.124C42.387 126.728 36.3716 124.337 30.3588 121.948L28.1432 127.524ZM17.5802 123.326C21.1006 124.726 24.6221 126.125 28.1432 127.524L30.3588 121.948C26.8375 120.549 23.317 119.15 19.7978 117.75L17.5802 123.326ZM12.113 114.626C11.3561 118.833 14.378 122.343 17.8011 123.404L19.5769 117.672C19.0538 117.51 18.5928 117.165 18.3047 116.754C18.0267 116.356 17.9641 115.989 18.0182 115.688L12.113 114.626ZM23.7341 108.883C21.2782 107.551 18.4953 107.787 16.3602 108.855C14.2259 109.922 12.3392 112.032 12.0781 114.883L18.0531 115.43C18.087 115.061 18.3616 114.562 19.0439 114.221C19.7254 113.88 20.4142 113.908 20.874 114.157L23.7341 108.883ZM27.2015 110.228C25.9362 109.729 24.6711 109.229 23.4061 108.73L21.2019 114.31C22.4674 114.81 23.733 115.31 24.9983 115.809L27.2015 110.228ZM56.0294 121.73C46.4432 117.825 36.8133 114.023 27.2015 110.228L24.9983 115.809C34.6152 119.606 44.2147 123.395 53.7658 127.286L56.0294 121.73ZM60.8736 128.212C60.429 126.679 59.5761 123.072 55.96 121.702L53.8353 127.314C54.0334 127.389 54.1847 127.497 54.3809 127.845C54.636 128.297 54.8235 128.892 55.1111 129.884L60.8736 128.212ZM61.2801 129.506C61.1489 129.156 61.0313 128.756 60.8736 128.212L55.1111 129.884C55.2556 130.382 55.4356 131.008 55.6609 131.61L61.2801 129.506ZM79.2322 137.994C72.1414 140.301 63.6955 136.199 61.2924 129.54L55.6486 131.576C59.1945 141.403 71.0396 146.969 81.0884 143.7L79.2322 137.994ZM89.6917 124.235C89.8954 130.228 85.4584 136.216 79.3374 137.962L80.9832 143.732C89.6084 141.272 95.9906 132.926 95.6883 124.031L89.6917 124.235ZM93.2612 116.85C90.4309 118.614 89.4936 121.754 89.6992 124.368L95.6808 123.898C95.6004 122.876 95.9951 122.216 96.4348 121.942L93.2612 116.85ZM119.27 98.8654C110.546 104.867 101.828 110.88 93.1337 116.934L96.5623 121.858C105.242 115.814 113.95 109.809 122.67 103.808L119.27 98.8654ZM127.158 96.5782C125.064 96.7344 121.813 96.8946 119.136 98.9629L122.804 103.711C123.82 102.926 125.161 102.744 127.604 102.562L127.158 96.5782ZM127.083 96.5848L127.083 96.5848L127.68 102.555L127.68 102.555L127.083 96.5848ZM129.104 96.3981C128.51 96.4766 127.887 96.5239 127.158 96.5782L127.604 102.562C128.302 102.51 129.098 102.451 129.89 102.346L129.104 96.3981ZM147.881 73.9532C148.891 84.4445 140.122 94.8845 129.089 96.4002L129.905 102.344C143.798 100.436 155.203 87.3948 153.853 73.3781L147.881 73.9532ZM126.141 53.8927C137.32 53.558 147.454 63.1573 147.869 73.7827L153.865 73.5486C153.32 59.5842 140.382 47.4637 125.961 47.8954L126.141 53.8927ZM103.871 70.945C105.709 61.2181 115.532 53.2848 125.876 53.889L126.226 47.8992C112.84 47.1173 100.367 57.1697 97.9752 69.8311L103.871 70.945ZM103.476 73.8717C103.554 72.7007 103.618 71.898 103.814 71.1894L98.032 69.5867C97.6432 70.9894 97.5592 72.4179 97.4891 73.4745L103.476 73.8717ZM101.311 80.9917C103.248 78.5475 103.358 75.6455 103.476 73.8717L97.4891 73.4745C97.3505 75.5635 97.2047 76.5131 96.609 77.2646L101.311 80.9917ZM89.3178 97.8402C93.3506 92.1864 97.3856 86.5293 101.406 80.8646L96.5136 77.3917C92.4975 83.0498 88.4665 88.7013 84.4331 94.3561L89.3178 97.8402ZM89.3072 97.855L89.3075 97.8546L84.4434 94.3417L84.4431 94.3421L89.3072 97.855ZM83.1767 106.454C85.2221 103.582 87.2695 100.712 89.3175 97.8406L84.4328 94.3565C82.385 97.2275 80.3365 100.099 78.2899 102.972L83.1767 106.454ZM75.2461 110.299C78.4893 110.612 81.6662 109.045 83.3194 106.234L78.1473 103.192C77.7106 103.935 76.8091 104.422 75.8221 104.327L75.2461 110.299ZM67.3649 112.399C69.6179 110.908 72.4651 110.249 75.4707 110.312L75.5975 104.314C71.6936 104.231 67.5635 105.072 64.0527 107.397L67.3649 112.399ZM57.2177 112.488C60.2523 114.543 64.4736 114.566 67.5045 112.301L63.9131 107.495C63.0174 108.164 61.5929 108.204 60.5827 107.52L57.2177 112.488ZM38.8056 102.017C45.015 105.543 51.219 109.066 57.4104 112.608L60.39 107.4C54.1887 103.852 47.9762 100.324 41.7682 96.7995L38.8056 102.017ZM16.0996 89.0756C23.6581 93.416 31.2358 97.7188 38.8056 102.017L41.7682 96.7995C34.1963 92.5 26.6312 88.2044 19.0874 83.8725L16.0996 89.0756ZM14.0927 77.0137C10.4892 80.6964 11.8328 86.9729 16.2641 89.1634L18.9229 83.7847C18.527 83.589 18.1764 83.1499 18.0627 82.5432C17.9498 81.9405 18.1224 81.4745 18.3812 81.21L14.0927 77.0137ZM24.3128 75.6936C21.0588 73.5727 16.4885 74.1771 13.949 77.1714L18.5248 81.0523C19.0693 80.4104 20.2628 80.2158 21.0366 80.7202L24.3128 75.6936ZM63.5534 97.9391C50.438 90.4691 37.2979 83.0236 24.1505 75.595L21.1989 80.8188C34.3423 88.2451 47.4761 95.687 60.5839 103.153L63.5534 97.9391ZM73.3879 94.6309C68.9278 94.8402 64.706 96.083 60.8455 97.8066L63.2917 103.285C66.661 101.781 70.1412 100.79 73.6693 100.624L73.3879 94.6309ZM73.9207 91.9546C72.9787 93.2599 72.0356 94.5668 71.0939 95.8748L75.9633 99.3803C76.9026 98.0756 77.8437 96.7716 78.786 95.4659L73.9207 91.9546ZM73.9284 91.944L73.9206 91.9547L78.7861 95.4658L78.7938 95.4551L73.9284 91.944ZM87.7646 72.3803C83.2965 78.9628 78.6269 85.4335 73.9284 91.944L78.7937 95.4552C83.4837 88.9565 88.2042 82.416 92.729 75.75L87.7646 72.3803ZM97.9167 49.5889C91.3849 56.1764 87.9245 65.0017 87.2554 73.8387L93.2382 74.2917C93.8161 66.6592 96.7931 59.2437 102.177 53.8134L97.9167 49.5889ZM122.175 60.1617L122.154 60.1671L123.648 65.9781L123.669 65.9727L122.175 60.1617ZM122.157 60.1662L122.136 60.1719L123.708 65.9625L123.729 65.9568L122.157 60.1662ZM138.774 67.8038C136.088 61.8148 128.666 58.4184 122.165 60.1642L123.721 65.9589C127.502 64.9434 131.872 67.0758 133.3 70.2592L138.774 67.8038ZM138.801 67.8639L138.773 67.8016L133.301 70.2614L133.329 70.3237L138.801 67.8639ZM138.77 67.7942L138.739 67.7333L133.391 70.4543L133.422 70.5152L138.77 67.7942ZM134.182 84.8434C139.636 81.1562 141.696 73.5975 138.775 67.8041L133.417 70.5054C134.936 73.518 133.854 77.8225 130.822 79.873L134.182 84.8434ZM134.126 84.8812L134.163 84.8566L130.841 79.8599L130.804 79.8845L134.126 84.8812ZM134.206 84.8266L134.241 84.8009L130.689 79.9647L130.654 79.9904L134.206 84.8266ZM117.64 84.9985C122.476 88.3574 129.412 88.2763 134.182 84.8436L130.678 79.9735C127.958 81.9305 123.798 81.97 121.062 80.0704L117.64 84.9985ZM117.598 84.9692L117.635 84.995L121.067 80.0738L121.03 80.048L117.598 84.9692ZM117.641 84.9994L117.679 85.0241L120.949 79.9931L120.911 79.9684L117.641 84.9994ZM111.877 70.4945C110.529 75.8827 112.878 81.9 117.64 84.9985L120.912 79.9694C118.28 78.2567 116.975 74.8358 117.697 71.9508L111.877 70.4945ZM111.889 70.4467L111.876 70.499L117.698 71.9462L117.711 71.8939L111.889 70.4467ZM111.887 70.453L111.875 70.5057L117.725 71.8349L117.737 71.7821L111.887 70.453ZM122.166 60.1641C117.132 61.4368 112.929 65.5403 111.877 70.4948L117.747 71.7402C118.283 69.2109 120.628 66.7416 123.636 65.9811L122.166 60.1641ZM73.613 122.753L73.7501 122.721L72.3865 116.878L72.2494 116.91L73.613 122.753ZM72.1175 124.441C72.3875 123.414 73.0239 122.891 73.6155 122.752L72.2469 116.91C69.1589 117.634 67.0565 120.092 66.3145 122.917L72.1175 124.441ZM72.5262 126.504C72.1632 126.178 71.845 125.479 72.1176 124.441L66.3144 122.917C65.5721 125.743 66.2038 128.889 68.5153 130.966L72.5262 126.504ZM72.6077 126.577L72.5253 126.503L68.5163 130.967L68.5987 131.041L72.6077 126.577ZM72.8455 126.813L72.7688 126.733L68.4376 130.885L68.5143 130.965L72.8455 126.813ZM75.2523 127.313C74.0462 127.562 73.2041 127.187 72.8455 126.813L68.5143 130.965C70.5677 133.107 73.6454 133.771 76.4641 133.189L75.2523 127.313ZM77.0923 126.057C76.9661 126.423 76.4562 127.065 75.2525 127.313L76.4639 133.189C79.2868 132.607 81.8075 130.786 82.7639 128.015L77.0923 126.057ZM77.1405 125.917L77.0908 126.062L82.7654 128.01L82.8152 127.865L77.1405 125.917ZM77.3212 125.489L77.2571 125.627L82.6987 128.155L82.7628 128.017L77.3212 125.489ZM76.646 123.489C77.5526 124.447 77.4553 125.2 77.3199 125.492L82.7641 128.014C84.1603 125 83.1922 121.677 81.0036 119.365L76.646 123.489ZM74.1559 122.598C74.7545 122.398 75.7366 122.528 76.6453 123.489L81.0043 119.366C78.8238 117.06 75.4885 115.823 72.2477 116.91L74.1559 122.598ZM74.0267 122.642L74.1602 122.597L72.2434 116.911L72.1099 116.956L74.0267 122.642Z" fill="url(#paint2_linear_38_264)"/>
<defs>
<linearGradient id="paint0_linear_38_264" x1="9.02525" y1="93.5814" x2="183.656" y2="93.5814" gradientUnits="userSpaceOnUse">
<stop stop-color="#C172FF"/>
<stop offset="1" stop-color="#7452FF"/>
</linearGradient>
<linearGradient id="paint1_linear_38_264" x1="37.5" y1="149" x2="151" y2="70" gradientUnits="userSpaceOnUse">
<stop stop-color="#C172FF"/>
<stop offset="1" stop-color="#7452FF"/>
</linearGradient>
<linearGradient id="paint2_linear_38_264" x1="37.5" y1="149" x2="151" y2="70" gradientUnits="userSpaceOnUse">
<stop stop-color="#C172FF"/>
<stop offset="1" stop-color="#7452FF"/>
</linearGradient>
</defs>
</svg>
