<svg width="64" height="64" viewBox="0 0 64 64" fill="none" xmlns="http://www.w3.org/2000/svg">
<path opacity="0.4" d="M25.9999 3.00024V57.3281C25.9223 58.9225 25.9875 58.9678 27.4778 58.9678H36.8053C38.3512 59.1374 37.9999 58.65 37.9999 57.227V3.00024H25.9999ZM37.9999 3.0385C37.9999 17.0482 37.548 27.8379 40.1846 37.07C42.6737 45.7856 47.6334 52.8899 55.4033 58.2819C56.5548 59.0569 56.9047 59.4959 57.6193 57.8064L61.5238 50.9443C62.2944 49.5903 62.1569 49.5903 60.9086 48.78C49.6506 40.3485 46.1132 22.6662 45.9124 4.3803C45.9052 3.25121 46.0114 2.87003 44.6713 3.0385H37.9999ZM25.9999 3.0385H19.3285C17.9883 2.87003 18.0946 3.25121 18.0874 4.3803C17.8866 22.6662 14.3492 40.3485 3.0912 48.78C1.84285 49.5903 1.70537 49.5903 2.47595 50.9443L6.38052 57.8064C7.09511 59.4959 7.44498 59.0569 8.59648 58.2819C16.3664 52.8899 21.3261 45.7856 23.8152 37.07C26.4518 27.8379 25.9999 17.0482 25.9999 3.0385Z" fill="url(#paint0_linear_297_226)"/>
<path d="M26 57.3281V4.00024C26 3.44796 26.4478 3.00024 27 3.00024H38V3.0385H44.6714C46.0116 2.87003 45.9054 3.25121 45.9126 4.3803C46.1133 22.6662 49.6507 40.3485 60.9087 48.78C62.1571 49.5903 62.2946 49.5903 61.524 50.9443L57.6194 57.8064C56.9048 59.4959 56.5549 59.0569 55.4034 58.2819C47.6335 52.8899 42.6738 45.7856 40.1847 37.07C38.5577 31.3731 38.1068 25.0831 38 17.8095V57.227C38 58.65 38.3513 59.1374 36.8054 58.9678H27.4779C25.9876 58.9678 25.9224 58.9225 26 57.3281Z" fill="url(#paint1_linear_297_226)"/>
<defs>
<linearGradient id="paint0_linear_297_226" x1="31.9999" y1="59.0001" x2="31.9999" y2="3.00024" gradientUnits="userSpaceOnUse">
<stop stop-color="#FD5900"/>
<stop offset="1" stop-color="#FFDE00"/>
</linearGradient>
<linearGradient id="paint1_linear_297_226" x1="43.9895" y1="59.0001" x2="43.9895" y2="3.00024" gradientUnits="userSpaceOnUse">
<stop stop-color="#FD5900"/>
<stop offset="1" stop-color="#FFDE00"/>
</linearGradient>
</defs>
</svg>
