<svg width="64" height="64" viewBox="0 0 64 64" fill="none" xmlns="http://www.w3.org/2000/svg">
<path opacity="0.4" d="M38.033 16.5452C35.753 18.3847 37.9135 20.711 36.6493 23.3537C35.3851 25.9964 34.7281 28.8885 34.7267 31.818C34.7281 34.7475 35.3851 37.6396 36.6493 40.2823C37.9135 42.925 35.753 45.2513 38.033 47.0908H54.6788C56.9615 45.2528 58.8038 42.9271 60.0707 40.2843C61.3375 37.6415 61.9967 34.7487 62 31.818C61.9967 28.8873 61.3375 25.9944 60.0707 23.3517C58.8038 20.7089 56.9615 18.3832 54.6788 16.5452H38.033Z" fill="url(#paint0_linear_127_135)"/>
<path fill-rule="evenodd" clip-rule="evenodd" d="M45.6361 31.818C45.6361 43.8678 35.8678 53.6361 23.818 53.6361C11.7683 53.6361 2 43.8678 2 31.818C2 19.7683 11.7683 10 23.818 10C35.8678 10 45.6361 19.7683 45.6361 31.818ZM16.8086 19.8785C18.6191 18.4042 21.0385 17.7271 23.9474 17.7271C25.1911 17.7271 26.4543 17.8396 27.7362 18.0631C28.6857 18.2286 29.6482 18.4548 30.6233 18.741C31.6658 19.047 32.3341 20.0088 32.3341 21.0518C32.3341 22.8837 30.4605 23.9639 28.8836 23.3883C28.3755 23.2028 27.8845 23.0477 27.4104 22.9222C26.3354 22.6376 25.3117 22.4991 24.3365 22.4991C22.5895 22.4991 21.3881 22.8405 20.6081 23.3943C19.8904 23.9112 19.5221 24.6215 19.5221 25.6571C19.5221 26.561 19.7817 27.0938 20.1664 27.43C20.6322 27.8137 21.6767 28.2338 23.5228 28.5786L23.5314 28.5802L25.5953 29.0031C28.2414 29.5075 30.3375 30.4224 31.7403 31.8495C33.1778 33.289 33.8553 35.1953 33.8553 37.4551C33.8553 40.1478 32.9344 42.3219 30.9976 43.8083C29.1172 45.2602 26.4623 45.909 23.1868 45.909C21.9174 45.909 20.5779 45.7653 19.1708 45.4839L19.1692 45.4836C18.0858 45.2651 16.9759 44.9665 15.8398 44.5891C14.8318 44.2544 14.192 43.308 14.192 42.283C14.192 40.3608 16.2145 39.2921 17.8178 39.9651C18.4036 40.211 18.981 40.4179 19.5498 40.5867C20.7945 40.9559 22.0059 41.137 23.1868 41.137C25.0239 41.137 26.2902 40.7731 27.1137 40.1774C27.8879 39.6173 28.2886 38.8397 28.2886 37.7085C28.2886 36.6905 27.9836 36.0126 27.4655 35.5403L27.4601 35.5353C26.9058 35.0224 25.877 34.5463 24.2094 34.2103L22.1333 33.8052L22.1296 33.8045C19.5062 33.2821 17.4467 32.437 16.1088 31.1653C14.7284 29.8533 14.0906 28.0617 14.0906 25.9275C14.0906 23.4313 14.9826 21.3761 16.8059 19.8807L16.8086 19.8785Z" fill="url(#paint1_linear_127_135)"/>
<defs>
<linearGradient id="paint0_linear_127_135" x1="48.3633" y1="47.0908" x2="48.3633" y2="16.5452" gradientUnits="userSpaceOnUse">
<stop stop-color="#5570FF"/>
<stop offset="1" stop-color="#4DD3FF"/>
</linearGradient>
<linearGradient id="paint1_linear_127_135" x1="23.818" y1="53.6361" x2="23.818" y2="10" gradientUnits="userSpaceOnUse">
<stop stop-color="#5570FF"/>
<stop offset="1" stop-color="#4DD3FF"/>
</linearGradient>
</defs>
</svg>
