<svg width="128" height="128" viewBox="0 0 128 128" fill="none" xmlns="http://www.w3.org/2000/svg">
<path opacity="0.4" d="M34.3576 55.0128C37.2478 55.0128 39.5876 52.6383 39.5876 49.705L41.0294 24.0642C41.0294 20.3261 38.0409 17.2998 34.3576 17.2998C30.6743 17.2998 27.6924 20.3261 27.6924 24.0642L29.1276 49.705C29.1276 52.6383 31.4674 55.0128 34.3576 55.0128Z" fill="url(#paint0_linear_80_309)"/>
<path opacity="0.4" d="M27.2161 106.629C27.2161 106.629 28.7169 108.172 29.6476 108.844C30.9977 109.882 32.6623 110.4 34.3204 110.4C36.1817 110.4 37.9119 109.815 39.321 108.711C39.5766 108.452 40.6646 107.474 41.5624 106.563C47.1987 101.235 56.42 87.327 59.2381 80.0438C59.6838 78.9397 60.6472 76.1461 60.7062 74.6496C60.7062 73.2262 60.3916 71.856 59.7493 70.559C58.8514 68.9361 57.4423 67.6324 55.7777 66.9207C54.6242 66.4618 51.1703 65.7501 51.1048 65.7501C47.3232 65.0318 41.1757 64.646 34.386 64.646C27.9174 64.646 22.0255 65.0318 18.1849 65.6171C18.1194 65.6836 13.8332 66.3953 12.3586 67.1801C9.67147 68.6102 8.00024 71.4037 8.00024 74.3902V74.6496C8.06578 76.5984 9.73701 80.6956 9.79599 80.6956C12.6142 87.5864 21.3897 101.168 27.2161 106.629Z" fill="url(#paint1_linear_80_309)"/>
<path d="M93.6523 54.7139C96.5425 54.7139 98.8822 52.3393 98.8822 49.406L100.318 23.7645C100.318 20.0264 97.3355 17 93.6523 17C89.969 17 86.9805 20.0264 86.9805 23.7645L88.4223 49.406C88.4223 52.3393 90.762 54.7139 93.6523 54.7139Z" fill="url(#paint2_linear_80_309)"/>
<path d="M119.041 70.2589C118.143 68.6359 116.734 67.3389 115.069 66.6205C113.916 66.1616 110.456 65.4498 110.397 65.4498C106.615 64.7315 100.467 64.3457 93.6777 64.3457C87.2091 64.3457 81.3172 64.7315 77.4766 65.3168C77.4111 65.3833 73.1249 66.1017 71.6503 66.8799C68.9567 68.31 67.292 71.1036 67.292 74.0968V74.3562C67.3575 76.3051 69.0222 80.3957 69.0877 80.3957C71.9059 87.2866 80.6749 100.876 86.5078 106.33C86.5078 106.33 88.0086 107.873 88.9393 108.538C90.2828 109.582 91.9475 110.101 93.6187 110.101C95.4735 110.101 97.1971 109.516 98.6127 108.412C98.8683 108.152 99.9563 107.175 100.854 106.27C106.484 100.935 115.712 87.0272 118.523 79.7505C118.975 78.6464 119.939 75.8461 119.998 74.3562C119.998 72.9261 119.683 71.5559 119.041 70.2589Z" fill="url(#paint3_linear_80_309)"/>
<defs>
<linearGradient id="paint0_linear_80_309" x1="34.3609" y1="17.2998" x2="34.3609" y2="55.0128" gradientUnits="userSpaceOnUse">
<stop stop-color="#FDA700"/>
<stop offset="1" stop-color="#FFDE00"/>
</linearGradient>
<linearGradient id="paint1_linear_80_309" x1="34.3532" y1="64.646" x2="34.3532" y2="110.4" gradientUnits="userSpaceOnUse">
<stop stop-color="#FDA700"/>
<stop offset="1" stop-color="#FFDE00"/>
</linearGradient>
<linearGradient id="paint2_linear_80_309" x1="93.649" y1="54.7139" x2="93.649" y2="17" gradientUnits="userSpaceOnUse">
<stop stop-color="#FDA700"/>
<stop offset="1" stop-color="#FFDE00"/>
</linearGradient>
<linearGradient id="paint3_linear_80_309" x1="93.6449" y1="110.101" x2="93.6449" y2="64.3457" gradientUnits="userSpaceOnUse">
<stop stop-color="#FDA700"/>
<stop offset="1" stop-color="#FFDE00"/>
</linearGradient>
</defs>
</svg>
