<svg width="32" height="32" viewBox="0 0 32 32" fill="none" xmlns="http://www.w3.org/2000/svg">
<path opacity="0.4" d="M30 26.8889C30 27.714 29.6722 28.5053 29.0888 29.0888C28.5053 29.6722 27.714 30 26.8889 30H5.11111C4.28599 30 3.49467 29.6722 2.91122 29.0888C2.32778 28.5053 2 27.714 2 26.8889V5.11111C2 4.28599 2.32778 3.49467 2.91122 2.91122C3.49467 2.32778 4.28599 2 5.11111 2H26.8889C27.714 2 28.5053 2.32778 29.0888 2.91122C29.6722 3.49467 30 4.28599 30 5.11111V26.8889Z" fill="url(#paint0_linear_206_145)"/>
<path fill-rule="evenodd" clip-rule="evenodd" d="M24 5.40028C24 5.13042 23.7383 4.938 23.4807 5.01849L8.28069 9.76849C8.1137 9.82067 8 9.97532 8 10.1503V15.579C8 15.7457 8.10343 15.895 8.25955 15.9535L14.1822 18.1745C14.5387 18.3082 14.5245 18.8173 14.1611 18.9309L8.28069 20.7685C8.1137 20.8207 8 20.9753 8 21.1503V26.3121C8 26.582 8.26174 26.7744 8.51931 26.6939L23.7193 21.9439C23.8863 21.8917 24 21.7371 24 21.5621V16.1334C24 15.9667 23.8966 15.8174 23.7404 15.7589L17.8178 13.5379C17.4613 13.4042 17.4755 12.8951 17.8389 12.7815L23.7193 10.9439C23.8863 10.8917 24 10.7371 24 10.5621V5.40028Z" fill="#FFAB36"/>
<path fill-rule="evenodd" clip-rule="evenodd" d="M24 5.40028C24 5.13042 23.7383 4.938 23.4807 5.01849L8.28069 9.76849C8.1137 9.82067 8 9.97532 8 10.1503V15.579C8 15.7457 8.10343 15.895 8.25955 15.9535L14.1822 18.1745C14.5387 18.3082 14.5245 18.8173 14.1611 18.9309L8.28069 20.7685C8.1137 20.8207 8 20.9753 8 21.1503V26.3121C8 26.582 8.26174 26.7744 8.51931 26.6939L23.7193 21.9439C23.8863 21.8917 24 21.7371 24 21.5621V16.1334C24 15.9667 23.8966 15.8174 23.7404 15.7589L17.8178 13.5379C17.4613 13.4042 17.4755 12.8951 17.8389 12.7815L23.7193 10.9439C23.8863 10.8917 24 10.7371 24 10.5621V5.40028Z" fill="url(#paint1_linear_206_145)"/>
<defs>
<linearGradient id="paint0_linear_206_145" x1="16" y1="30" x2="16" y2="2" gradientUnits="userSpaceOnUse">
<stop stop-color="#FD5900"/>
<stop offset="1" stop-color="#FFDE00"/>
</linearGradient>
<linearGradient id="paint1_linear_206_145" x1="16" y1="26.7124" x2="16" y2="5" gradientUnits="userSpaceOnUse">
<stop stop-color="#FD5900"/>
<stop offset="1" stop-color="#FFDE00"/>
</linearGradient>
</defs>
</svg>
