<svg width="64" height="64" viewBox="0 0 64 64" fill="none" xmlns="http://www.w3.org/2000/svg">
<path opacity="0.4" d="M51.431 27.4422C51.1198 27.1797 50.9896 26.7614 51.0915 26.3673C51.4903 24.8255 51.7077 23.2134 51.7077 21.5489C51.7077 10.7531 42.8877 2.00098 32.0018 2.00098C21.1218 2.00098 12.2981 10.7513 12.2981 21.5489C12.2981 23.2137 12.517 24.8261 12.9149 26.3681C13.0165 26.7618 12.8864 27.1795 12.5756 27.4416C9.58023 29.9681 1.60764 37.8437 4.70064 47.937C4.83368 48.3712 5.26016 48.6365 5.69065 48.4921C6.57031 48.1969 8.11006 47.429 9.6644 45.4565C10.2257 44.7441 11.4967 44.9011 11.8254 45.7464C12.5239 47.5428 13.456 49.2216 14.5907 50.7454C15.0257 51.3296 14.7687 52.195 14.0993 52.4819C11.8105 53.4629 10.3449 54.9682 10.3449 56.6541C10.3449 59.6069 14.8367 61.9999 20.3751 61.9999C23.8874 61.9999 26.9755 61.0357 28.7655 59.5809C28.9994 59.3909 29.2968 59.2908 29.5961 59.3254C30.3864 59.4166 31.1839 59.4759 31.9988 59.4759C32.8149 59.4759 33.6137 59.4166 34.4019 59.3255C34.701 59.2909 34.9983 59.3906 35.2321 59.5804C37.025 61.0354 40.1118 61.9999 43.6246 61.9999C49.1647 61.9999 53.6585 59.6049 53.6585 56.6541C53.6585 54.9697 52.1913 53.463 49.9016 52.4817C49.2323 52.1948 48.9752 51.3298 49.4101 50.7457C50.5446 49.2219 51.4779 47.5432 52.1773 45.7467C52.5063 44.9015 53.7777 44.7447 54.339 45.4572C55.8911 47.4277 57.4283 48.1958 58.3069 48.4915C58.7374 48.6363 59.1641 48.3711 59.2973 47.9369C62.3949 37.8426 54.4257 29.9676 51.431 27.4422Z" fill="url(#paint0_linear_205_92)"/>
<path d="M28.0474 20.9984C27.9973 20.4484 28.4477 20 29 20H34.8906C35.4838 20 35.9479 20.5139 35.8573 21.1002C35.2644 24.9333 33.743 28.5081 32.7977 30.46C32.4619 31.1533 31.5337 31.1587 31.1878 30.4703C30.1244 28.3537 28.3582 24.4068 28.0474 20.9984Z" fill="url(#paint1_linear_205_92)"/>
<path d="M22 20C24.2091 20 26 18.2091 26 16C26 13.7909 24.2091 12 22 12C19.7909 12 18 13.7909 18 16C18 18.2091 19.7909 20 22 20Z" fill="url(#paint2_linear_205_92)"/>
<path d="M42 20C44.2091 20 46 18.2091 46 16C46 13.7909 44.2091 12 42 12C39.7909 12 38 13.7909 38 16C38 18.2091 39.7909 20 42 20Z" fill="url(#paint3_linear_205_92)"/>
<path d="M32.5 58C38.299 58 43 52.6274 43 46C43 39.3726 38.299 34 32.5 34C26.701 34 22 39.3726 22 46C22 52.6274 26.701 58 32.5 58Z" fill="url(#paint4_linear_205_92)"/>
<defs>
<linearGradient id="paint0_linear_205_92" x1="4.55965" y1="46.7385" x2="48.2578" y2="5.11904" gradientUnits="userSpaceOnUse">
<stop stop-color="#FF5508"/>
<stop offset="1" stop-color="#FFA208"/>
</linearGradient>
<linearGradient id="paint1_linear_205_92" x1="28.08" y1="28.9477" x2="36.2187" y2="23.4109" gradientUnits="userSpaceOnUse">
<stop stop-color="#FF5508"/>
<stop offset="1" stop-color="#FFA208"/>
</linearGradient>
<linearGradient id="paint2_linear_205_92" x1="18.08" y1="17.9651" x2="23.9122" y2="12.0136" gradientUnits="userSpaceOnUse">
<stop stop-color="#FF5508"/>
<stop offset="1" stop-color="#FFA208"/>
</linearGradient>
<linearGradient id="paint3_linear_205_92" x1="38.08" y1="17.9651" x2="43.9122" y2="12.0136" gradientUnits="userSpaceOnUse">
<stop stop-color="#FF5508"/>
<stop offset="1" stop-color="#FFA208"/>
</linearGradient>
<linearGradient id="paint4_linear_205_92" x1="22.2099" y1="51.8953" x2="39.5985" y2="36.3692" gradientUnits="userSpaceOnUse">
<stop stop-color="#FF5508"/>
<stop offset="1" stop-color="#FFA208"/>
</linearGradient>
</defs>
</svg>
