<svg width="48" height="48" viewBox="0 0 48 48" fill="none" xmlns="http://www.w3.org/2000/svg">
<path opacity="0.4" d="M24 45.5C35.8741 45.5 45.5 35.8741 45.5 24C45.5 12.1259 35.8741 2.5 24 2.5C12.1259 2.5 2.5 12.1259 2.5 24C2.5 35.8741 12.1259 45.5 24 45.5Z" fill="url(#paint0_linear_453_3530)"/>
<path d="M28.1261 22.0157L39.001 19.1604C38.2315 16.784 36.9094 14.624 35.1432 12.8578C33.377 11.0916 31.217 9.76947 28.8407 9L25.985 19.8743C25.3847 19.5849 24.7115 19.4228 24.0005 19.4228C23.2898 19.4228 22.6169 19.5848 22.0168 19.8739L19.1604 9C16.7841 9.76937 14.6242 11.0913 12.858 12.8574C11.0918 14.6234 9.76961 16.7832 9 19.1593L19.8753 22.015C19.5859 22.6153 19.4238 23.2885 19.4238 23.9995C19.4238 24.7105 19.5859 25.3837 19.8752 25.984L9 28.8396C9.76937 31.2159 11.0913 33.3758 12.8574 35.142C14.6234 36.9082 16.7832 38.2304 19.1593 39L22.0167 28.1252C22.6169 28.4143 23.2898 28.5763 24.0005 28.5763C24.7112 28.5763 25.3841 28.4143 25.9843 28.1252L28.8407 39C31.217 38.2305 33.377 36.9084 35.1432 35.1422C36.9094 33.376 38.2315 31.216 39.001 28.8396L28.1258 25.984C28.4151 25.3837 28.5772 24.7105 28.5772 23.9995C28.5772 23.2888 28.4152 22.6159 28.1261 22.0157Z" fill="url(#paint1_linear_453_3530)"/>
<defs>
<linearGradient id="paint0_linear_453_3530" x1="24" y1="45.5" x2="24" y2="2.5" gradientUnits="userSpaceOnUse">
<stop stop-color="#E80058"/>
<stop offset="0.9997" stop-color="#FF001D"/>
<stop offset="0.9998" stop-color="#FF867E"/>
</linearGradient>
<linearGradient id="paint1_linear_453_3530" x1="24.0005" y1="39" x2="24.0005" y2="9" gradientUnits="userSpaceOnUse">
<stop stop-color="#E80058"/>
<stop offset="0.9997" stop-color="#FF001D"/>
<stop offset="0.9998" stop-color="#FF867E"/>
</linearGradient>
</defs>
</svg>
