<svg width="32" height="32" viewBox="0 0 32 32" fill="none" xmlns="http://www.w3.org/2000/svg">
<path fill-rule="evenodd" clip-rule="evenodd" d="M15.8331 1.00016C15.7291 0.997161 15.6288 1.03614 15.5568 1.10568C14.734 1.90013 13.9109 2.76922 13.127 3.62924C13.0234 3.74297 12.9783 3.89827 13.0045 4.04992L15.3052 17.3755C15.4008 17.9292 16.1959 17.9286 16.2907 17.3748L18.5677 4.07285C18.5933 3.92316 18.5495 3.76993 18.4486 3.65645C17.6818 2.79427 16.9087 1.93483 16.0937 1.11155C16.0267 1.04361 15.9325 1.00301 15.8331 1.00016ZM17.228 17.6894C16.9534 18.1802 17.5727 18.6805 17.9947 18.3088L24.1537 12.8851C24.3175 12.7408 24.3694 12.5066 24.278 12.3083C23.826 11.3267 23.3008 10.3457 22.7181 9.3778C22.5229 9.05347 22.0528 9.06606 21.868 9.39642L17.228 17.6894ZM18.8057 18.8217C18.2868 19.0668 18.5224 19.8503 19.0904 19.7687L25.9331 18.7853C26.2249 18.7434 26.4176 18.4592 26.344 18.1738C26.1642 17.4764 25.9693 16.8066 25.7582 16.1523C25.6665 15.8682 25.3455 15.7324 25.0756 15.8599L18.8057 18.8217ZM12.3675 19.7052C12.9382 19.7944 13.1804 19.0055 12.658 18.759L6.51256 15.8594C6.24279 15.7321 5.922 15.8677 5.83034 16.1515C5.63191 16.766 5.44813 17.3952 5.27777 18.0488C5.2039 18.3322 5.39294 18.6155 5.68231 18.6607L12.3675 19.7052ZM13.5112 18.1247C13.9284 18.5106 14.5635 18.0121 14.2879 17.5151L9.75002 9.33286C9.5663 9.00161 9.09621 8.98762 8.90111 9.3123C8.36373 10.2066 7.87944 11.1162 7.44284 12.0432C7.35082 12.2386 7.39769 12.4706 7.55622 12.6172L13.5112 18.1247Z" fill="url(#paint0_linear_81_77)" stroke="url(#paint1_linear_81_77)"/>
<g opacity="0.4">
<path d="M18.8196 21.6726C18.3006 21.4266 18.538 20.6428 19.1062 20.7261L26.7275 21.8429C26.9243 21.8717 27.0853 22.0145 27.1375 22.2064L27.2588 22.6525C27.3142 23.0099 27.373 23.3447 27.42 23.6901C27.5133 24.3761 27.5827 24.9286 27.5827 25.1967V25.3081C27.5828 25.4851 27.4365 25.6335 27.2458 25.6481C27.2251 25.65 27.2043 25.6463 27.1855 25.6373L18.8196 21.6726Z" fill="url(#paint2_linear_81_77)"/>
<path d="M17.3319 22.9987C17.0554 22.501 17.6926 22.002 18.1095 22.3898L21.9798 25.9899C22.253 26.244 22.1623 26.6993 21.8209 26.85C21.2898 27.0845 20.7657 27.3585 20.231 27.6778C20.2163 27.6866 20.2006 27.6939 20.1844 27.6996C20.068 27.7404 19.939 27.6913 19.8791 27.5834L17.3319 22.9987Z" fill="url(#paint3_linear_81_77)"/>
<path d="M15.2958 22.9194C15.3986 22.3736 16.1817 22.3772 16.2794 22.924L17.4424 29.4316C17.4736 29.6061 17.4099 29.784 17.2724 29.8958C17.1839 29.9678 17.0936 30.0413 16.9731 30.1471C16.7631 30.3313 16.5741 30.4908 16.4146 30.6245C16.3945 30.6413 16.3731 30.6565 16.3506 30.67L15.9244 30.9255C15.8442 30.9735 15.7493 30.991 15.6572 30.9747L15.6068 30.9658C15.5985 30.9643 15.5901 30.962 15.5827 30.9579C15.5629 30.9461 15.5512 30.938 15.5395 30.9299L15.5395 30.9299C15.5161 30.9134 15.4949 30.8959 15.469 30.8757C15.417 30.8346 15.3507 30.7797 15.2718 30.713C15.1138 30.5797 14.9056 30.4001 14.6816 30.2015C14.5277 30.065 14.3886 29.9476 14.2511 29.8318C14.1139 29.7163 14.0501 29.5359 14.0833 29.3596L15.2958 22.9194Z" fill="url(#paint4_linear_81_77)"/>
<path d="M13.4301 22.4782C13.8462 22.0855 14.4889 22.5864 14.2097 23.0858L11.8272 27.3469C11.6883 27.5953 11.3708 27.6772 11.1242 27.5353C10.9198 27.4176 10.7105 27.303 10.4929 27.1899C10.355 27.1181 10.2285 27.0537 10.1322 27.0047L10.113 26.9949C10.0753 26.9758 10.0465 26.9606 10.0222 26.9486L10.0229 26.9451L10.0235 26.9425C10.0205 26.9412 10.0177 26.9401 10.0151 26.9394C10.0039 26.9362 9.99955 26.9336 9.99494 26.9321C9.99237 26.9313 9.99119 26.9313 9.98915 26.9306L9.98828 26.9317C9.98415 26.9297 9.98155 26.9282 9.97873 26.9268L9.97616 26.9262L9.97394 26.9253L9.97277 26.9245C9.962 26.9205 9.94918 26.9165 9.93605 26.9114C9.90752 26.9002 9.87105 26.8856 9.82521 26.8674C9.73356 26.8307 9.60975 26.7804 9.47545 26.7252C9.29752 26.6522 9.24941 26.4238 9.38928 26.2917L13.4301 22.4782Z" fill="url(#paint5_linear_81_77)"/>
<path d="M13.022 20.6065C13.5755 20.5338 13.8139 21.2852 13.3197 21.5449L5.46862 25.6705C5.38202 25.716 5.28399 25.7349 5.1866 25.7257C5.04855 25.7126 4.91309 25.7011 4.79178 25.6948C4.67801 25.6892 4.57076 25.6814 4.48376 25.673C4.44026 25.6685 4.40162 25.6648 4.36573 25.6596C4.3478 25.6567 4.33163 25.6527 4.30959 25.6478C4.28753 25.6429 4.27474 25.6533 4.18581 25.6024C4.021 25.5081 4.0301 25.4309 4.01884 25.3928C4.00752 25.3549 4.00653 25.3333 4.00442 25.3123C4.00083 25.2767 3.99965 25.2469 4.00009 25.214V25.2084C4.00183 25.1288 4.00823 25.0325 4.0188 24.9138C4.04037 24.6716 4.07915 24.3446 4.1282 23.9714C4.2037 23.3968 4.30745 22.7206 4.41511 22.0897C4.45178 21.8748 4.6248 21.7098 4.84089 21.6814L13.022 20.6065Z" fill="url(#paint6_linear_81_77)"/>
</g>
<defs>
<linearGradient id="paint0_linear_81_77" x1="15.7913" y1="31" x2="15.7913" y2="1" gradientUnits="userSpaceOnUse">
<stop stop-color="#5570FF"/>
<stop offset="1" stop-color="#4DD3FF"/>
</linearGradient>
<linearGradient id="paint1_linear_81_77" x1="15.7913" y1="31" x2="15.7913" y2="1" gradientUnits="userSpaceOnUse">
<stop stop-color="#5570FF"/>
<stop offset="1" stop-color="#4DD3FF"/>
</linearGradient>
<linearGradient id="paint2_linear_81_77" x1="15.7913" y1="31" x2="15.7913" y2="0.999999" gradientUnits="userSpaceOnUse">
<stop stop-color="#5570FF"/>
<stop offset="1" stop-color="#4DD3FF"/>
</linearGradient>
<linearGradient id="paint3_linear_81_77" x1="15.7913" y1="31" x2="15.7913" y2="0.999999" gradientUnits="userSpaceOnUse">
<stop stop-color="#5570FF"/>
<stop offset="1" stop-color="#4DD3FF"/>
</linearGradient>
<linearGradient id="paint4_linear_81_77" x1="15.7913" y1="31" x2="15.7913" y2="0.999999" gradientUnits="userSpaceOnUse">
<stop stop-color="#5570FF"/>
<stop offset="1" stop-color="#4DD3FF"/>
</linearGradient>
<linearGradient id="paint5_linear_81_77" x1="15.7913" y1="31" x2="15.7913" y2="0.999999" gradientUnits="userSpaceOnUse">
<stop stop-color="#5570FF"/>
<stop offset="1" stop-color="#4DD3FF"/>
</linearGradient>
<linearGradient id="paint6_linear_81_77" x1="15.7913" y1="31" x2="15.7913" y2="0.999999" gradientUnits="userSpaceOnUse">
<stop stop-color="#5570FF"/>
<stop offset="1" stop-color="#4DD3FF"/>
</linearGradient>
</defs>
</svg>
