<svg width="16" height="16" viewBox="0 0 16 16" fill="none" xmlns="http://www.w3.org/2000/svg">
<path opacity="0.4" fill-rule="evenodd" clip-rule="evenodd" d="M3.05025 3.05025C4.36301 1.7375 6.14348 1 8 1C9.85652 1 11.637 1.7375 12.9497 3.05025C14.2625 4.36301 15 6.14348 15 8C15 8.91502 14.8208 9.81157 14.482 10.6428C14.2165 11.2938 14.5968 12.185 14.8743 12.8309C14.9552 13.0192 15 13.2266 15 13.4444C15 14.3036 14.3036 15 13.4444 15C13.2266 15 13.0192 14.9552 12.8309 14.8743C12.185 14.5968 11.2938 14.2165 10.6428 14.482C9.81157 14.8208 8.91502 15 8 15C6.14348 15 4.36301 14.2625 3.05025 12.9497C1.7375 11.637 1 9.85652 1 8C1 6.14348 1.7375 4.36301 3.05025 3.05025Z" fill="url(#paint0_linear_323_118)"/>
<path fill-rule="evenodd" clip-rule="evenodd" d="M6.99997 4.4C6.99997 4.17909 7.17906 4 7.39997 4H8.59997C8.82089 4 8.99997 4.17909 8.99997 4.4V6.6C8.99997 6.82091 9.17906 7 9.39997 7H11.4889C11.7098 7 11.8889 7.17909 11.8889 7.4V8.6C11.8889 8.82091 11.7098 9 11.4889 9H9.39997C9.17906 9 8.99997 9.17909 8.99997 9.4V11.6C8.99997 11.8209 8.82089 12 8.59997 12H7.39997C7.17906 12 6.99997 11.8209 6.99997 11.6V9.4C6.99997 9.17909 6.82089 9 6.59997 9H4.51108C4.29017 9 4.11108 8.82091 4.11108 8.6V7.4C4.11108 7.17909 4.29017 7 4.51108 7H6.59997C6.82089 7 6.99997 6.82091 6.99997 6.6V4.4Z" fill="url(#paint1_linear_323_118)"/>
<defs>
<linearGradient id="paint0_linear_323_118" x1="8" y1="15" x2="8" y2="1" gradientUnits="userSpaceOnUse">
<stop stop-color="#5570FF"/>
<stop offset="1" stop-color="#4DD3FF"/>
</linearGradient>
<linearGradient id="paint1_linear_323_118" x1="7.99997" y1="12" x2="7.99997" y2="4" gradientUnits="userSpaceOnUse">
<stop stop-color="#5570FF"/>
<stop offset="1" stop-color="#4DD3FF"/>
</linearGradient>
</defs>
</svg>
