<svg width="128" height="128" viewBox="0 0 128 128" fill="none" xmlns="http://www.w3.org/2000/svg">
<path opacity="0.4" d="M104 6H24C14.0589 6 6 14.0589 6 24V104C6 113.941 14.0589 122 24 122H104C113.941 122 122 113.941 122 104V24C122 14.0589 113.941 6 104 6Z" fill="url(#paint0_linear_207_189)"/>
<path d="M98.4351 90.3372C97.7802 89.6807 97.6723 88.6648 98.0993 87.8417C99.6329 84.8856 100.453 81.535 100.234 77.8992C99.6842 68.7518 92.458 61.008 83.4563 60.0296C80.791 59.7176 78.0905 59.9764 75.5324 60.7898C72.9739 61.6033 70.615 62.9524 68.6114 64.7486C66.6078 66.5447 65.0041 68.7475 63.9061 71.2118C62.8081 73.6766 62.2407 76.347 62.2407 79.0483C62.2407 89.6421 70.7354 98.1946 81.2161 98.1946C84.3584 98.1946 87.3194 97.4047 89.9211 96.0305C90.7549 95.5901 91.7914 95.6936 92.456 96.3625L101.502 105.469C103.151 107.129 105.855 107.129 107.503 105.469C109.151 103.81 109.151 101.087 107.503 99.428L98.4351 90.3372ZM81.2585 89.685C78.4566 89.685 75.769 88.5642 73.7877 86.5692C71.806 84.5747 70.693 81.8691 70.693 79.0483C70.693 76.2269 71.806 73.5214 73.7877 71.5268C75.769 69.5318 78.4566 68.4112 81.2585 68.4112C84.0606 68.4112 86.7481 69.5318 88.7294 71.5268C90.7107 73.5214 91.8241 76.2269 91.8241 79.0483C91.8241 81.8691 90.7107 84.5747 88.7294 86.5692C86.7481 88.5642 84.0606 89.685 81.2585 89.685ZM77.738 50.5119C78.6079 51.8207 77.6946 53.6105 76.1469 53.883C74.7995 54.1203 73.4875 54.4669 72.2222 54.9115C71.425 55.1917 70.5257 54.9231 70.0611 54.2172V54.2172C69.3526 53.141 67.7653 53.168 67.0938 54.2676L55.521 73.2192C55.1732 73.7901 54.6965 74.2702 54.1296 74.6207C53.5627 74.9713 52.9216 75.1816 52.2585 75.2356C51.5954 75.2896 50.9291 75.1851 50.3137 74.931C49.6982 74.6764 49.1511 74.2796 48.7169 73.7721L41.5347 65.3478C40.6557 64.3168 39.0274 64.4398 38.3132 65.5911L26.8252 84.111C25.5151 86.196 22.7258 86.7493 20.7395 85.3024C18.9645 83.9837 18.4573 81.516 19.6407 79.6011L35.6157 53.8603C37.1371 51.4351 40.5603 51.1798 42.4199 53.3497L49.5471 61.7153C50.4296 62.7512 52.0667 62.6223 52.7762 61.461L64.7766 41.8195C65.146 41.2116 65.6615 40.7073 66.2761 40.3533C66.8907 39.9994 67.5837 39.8071 68.2917 39.7944C68.9992 39.7817 69.6992 39.9489 70.3257 40.2805C70.9523 40.6122 71.4854 41.0976 71.8763 41.6918L77.738 50.5119ZM91.6017 54.1844C91.0739 55.0247 90.0126 55.3424 89.0793 55.0052C87.8798 54.5717 86.6441 54.2283 85.3789 53.9816C83.8846 53.6903 83.0107 51.9819 83.8196 50.692L101.206 22.9711C102.516 20.8864 105.306 20.3758 107.25 21.8224C109.067 23.1413 109.532 25.6516 108.348 27.5237L91.6017 54.1844Z" fill="url(#paint1_linear_207_189)" stroke="url(#paint2_linear_207_189)" stroke-width="3"/>
<defs>
<linearGradient id="paint0_linear_207_189" x1="64" y1="122" x2="64" y2="6" gradientUnits="userSpaceOnUse">
<stop stop-color="#5558FF"/>
<stop offset="1" stop-color="#00C0FF"/>
</linearGradient>
<linearGradient id="paint1_linear_207_189" x1="64" y1="106.714" x2="64" y2="21" gradientUnits="userSpaceOnUse">
<stop stop-color="#5558FF"/>
<stop offset="1" stop-color="#00C0FF"/>
</linearGradient>
<linearGradient id="paint2_linear_207_189" x1="64" y1="106.714" x2="64" y2="21" gradientUnits="userSpaceOnUse">
<stop stop-color="#5558FF"/>
<stop offset="1" stop-color="#00C0FF"/>
</linearGradient>
</defs>
</svg>
