<svg width="64" height="64" viewBox="0 0 64 64" fill="none" xmlns="http://www.w3.org/2000/svg">
<rect opacity="0.4" x="6.17285" y="10.8677" width="51.6543" height="51.1325" rx="4" fill="url(#paint0_linear_332_100)"/>
<path opacity="0.4" d="M33.1158 46.1891C43.8374 50.4442 47.4245 49.3183 57.8271 46.533V58.0001C57.8271 60.2092 56.0363 62.0001 53.8271 62.0001H10.1728C7.96367 62.0001 6.17281 60.2092 6.17281 58.0001V44.5182C16.3961 41.1403 23.2912 41.2853 33.1158 46.1891Z" fill="url(#paint1_linear_332_100)"/>
<path d="M30.8842 45.8387C20.1626 50.1881 16.5755 49.0372 6.17285 46.1903V57.9998C6.17285 60.2089 7.96371 61.9998 10.1729 61.9998H53.8272C56.0363 61.9998 57.8272 60.2089 57.8272 57.9998V44.1308C47.6039 40.6781 40.7088 40.8263 30.8842 45.8387Z" fill="url(#paint2_linear_332_100)"/>
<path d="M24.2181 28.5664H25.6026C26.3255 28.5664 26.9116 27.9804 26.9116 27.2574V20.0964C26.9116 19.1647 27.6739 18.4023 28.6056 18.4023H35.3816C36.3134 18.4023 37.0757 19.1647 37.0757 20.0964V27.2574C37.0757 27.9804 37.6617 28.5664 38.3847 28.5664H39.7691C41.2768 28.5664 42.0391 30.396 40.9719 31.4632L33.1964 39.2387C32.5357 39.8994 31.4685 39.8994 30.8078 39.2387L23.0323 31.4632C21.965 30.396 22.7104 28.5664 24.2181 28.5664Z" fill="url(#paint3_linear_332_100)"/>
<path d="M43.1269 17.7095C44.7225 17.7095 46.398 16.791 46.398 14.7365C45.8995 11.4075 44.487 8.30892 42.327 5.89074C39.5918 2.82866 35.8822 1.1084 32.0141 1.1084C28.1461 1.1084 24.4364 2.82866 21.7013 5.89073C19.5413 8.30892 18.1288 11.4075 17.6302 14.7365C17.3432 16.6535 19.3058 17.7095 20.9013 17.7095C22.821 17.9291 23.6296 16.7037 24.1229 14.752C24.5289 13.1456 24.8739 11.8936 25.7868 10.4646C27.4384 8.61564 29.6784 7.57688 32.0141 7.57688C34.3498 7.57688 36.5898 8.61564 38.2414 10.4646C39.3146 11.6661 39.4993 13.1456 39.9054 14.752C40.1853 16.9979 41.5314 17.7095 43.1269 17.7095Z" fill="url(#paint4_linear_332_100)"/>
<defs>
<linearGradient id="paint0_linear_332_100" x1="44.4543" y1="45.9601" x2="14.8965" y2="18.8546" gradientUnits="userSpaceOnUse">
<stop stop-color="#731FFF"/>
<stop offset="0.905415" stop-color="#EB1AFF"/>
</linearGradient>
<linearGradient id="paint1_linear_332_100" x1="6.17281" y1="62.0001" x2="17.0849" y2="33.1986" gradientUnits="userSpaceOnUse">
<stop stop-color="#731FFF"/>
<stop offset="0.905415" stop-color="#EB1AFF"/>
</linearGradient>
<linearGradient id="paint2_linear_332_100" x1="51.4955" y1="49.1304" x2="27.0439" y2="17.9219" gradientUnits="userSpaceOnUse">
<stop offset="0.118093" stop-color="#731FFF"/>
<stop offset="0.905415" stop-color="#EB1AFF"/>
</linearGradient>
<linearGradient id="paint3_linear_332_100" x1="36.5666" y1="33.0425" x2="24.4716" y2="23.2942" gradientUnits="userSpaceOnUse">
<stop stop-color="#731FFF"/>
<stop offset="0.905415" stop-color="#EB1AFF"/>
</linearGradient>
<linearGradient id="paint4_linear_332_100" x1="71.6148" y1="-2.56187" x2="39.7539" y2="35.1056" gradientUnits="userSpaceOnUse">
<stop stop-color="#731FFF"/>
<stop offset="0.905415" stop-color="#EB1AFF"/>
</linearGradient>
</defs>
</svg>
