<svg width="24" height="24" viewBox="0 0 24 24" fill="none" xmlns="http://www.w3.org/2000/svg">
<path fill-rule="evenodd" clip-rule="evenodd" d="M17.9638 2.59036C17.753 2.59036 17.5507 2.50658 17.4016 2.35746C17.2524 2.20833 17.1687 2.00608 17.1687 1.79518C17.1687 1.58429 17.2524 1.38203 17.4016 1.2329C17.5507 1.08378 17.753 1 17.9638 1H22.2048C22.362 1.00014 22.5156 1.04685 22.6462 1.13423C22.7769 1.22162 22.8787 1.34576 22.9388 1.49097C22.9989 1.63619 23.0147 1.79596 22.9841 1.95012C22.9534 2.10428 22.8778 2.2459 22.7667 2.35711L19.8829 5.24096H22.2048C22.4157 5.24096 22.618 5.32474 22.7671 5.47387C22.9162 5.62299 23 5.82525 23 6.03614C23 6.24704 22.9162 6.4493 22.7671 6.59842C22.618 6.74755 22.4157 6.83133 22.2048 6.83133H17.9638C17.8067 6.83119 17.6531 6.78448 17.5224 6.69709C17.3918 6.60971 17.29 6.48557 17.2299 6.34035C17.1697 6.19514 17.154 6.03536 17.1846 5.8812C17.2152 5.72705 17.2909 5.58542 17.4019 5.47422L20.2858 2.59036H17.9638ZM13.1928 8.95181C12.9819 8.95181 12.7796 8.86803 12.6305 8.7189C12.4814 8.56978 12.3976 8.36752 12.3976 8.15663C12.3976 7.94573 12.4814 7.74347 12.6305 7.59435C12.7796 7.44522 12.9819 7.36145 13.1928 7.36145H16.3735C16.5307 7.36158 16.6843 7.4083 16.8149 7.49568C16.9455 7.58307 17.0474 7.7072 17.1075 7.85242C17.1676 7.99763 17.1834 8.15741 17.1527 8.31157C17.1221 8.46572 17.0465 8.60735 16.9354 8.71855L15.1118 10.5422H16.3735C16.5844 10.5422 16.7866 10.6259 16.9358 10.7751C17.0849 10.9242 17.1687 11.1265 17.1687 11.3373C17.1687 11.5482 17.0849 11.7505 16.9358 11.8996C16.7866 12.0488 16.5844 12.1325 16.3735 12.1325H13.1928C13.0356 12.1324 12.882 12.0857 12.7514 11.9983C12.6207 11.9109 12.5189 11.7868 12.4588 11.6416C12.3986 11.4963 12.3829 11.3366 12.4135 11.1824C12.4441 11.0283 12.5198 10.8866 12.6308 10.7754L14.4545 8.95181H13.1928Z" fill="url(#paint0_linear_8_662)"/>
<path opacity="0.4" d="M11.6024 23C17.4581 23 22.2048 18.2533 22.2048 12.3976C22.2048 11.9067 21.469 11.825 21.2156 12.246C20.6752 13.1412 19.9381 13.9016 19.0602 14.4698C18.1823 15.0379 17.1866 15.3988 16.1485 15.5252C15.1105 15.6515 14.0573 15.54 13.0688 15.199C12.0802 14.8581 11.1822 14.2966 10.4428 13.5572C9.70338 12.8178 9.14193 11.9198 8.80096 10.9312C8.45999 9.94266 8.34846 8.88948 8.4748 7.85144C8.60115 6.8134 8.96206 5.81772 9.5302 4.93983C10.0983 4.06193 10.8588 3.32483 11.754 2.78437C12.1749 2.52991 12.0933 1.79517 11.6024 1.79517C5.7467 1.79517 1 6.54187 1 12.3976C1 18.2533 5.7467 23 11.6024 23Z" fill="url(#paint1_linear_8_662)"/>
<defs>
<linearGradient id="paint0_linear_8_662" x1="17.6988" y1="12.1325" x2="17.6988" y2="1" gradientUnits="userSpaceOnUse">
<stop stop-color="#5558FF"/>
<stop offset="1" stop-color="#00C0FF"/>
</linearGradient>
<linearGradient id="paint1_linear_8_662" x1="11.6024" y1="23" x2="11.6024" y2="1.79517" gradientUnits="userSpaceOnUse">
<stop stop-color="#5558FF"/>
<stop offset="1" stop-color="#00C0FF"/>
</linearGradient>
</defs>
</svg>
