<svg width="32" height="32" viewBox="0 0 32 32" fill="none" xmlns="http://www.w3.org/2000/svg">
<path d="M3.00796 8.50503C6.31562 2.76234 13.1737 -0.281103 19.8804 1.51411C23.0498 2.36343 25.8532 4.22852 27.8612 6.82358C29.8691 9.41863 30.9708 12.6005 30.9973 15.8816C31.0116 17.6911 29.0736 18.7193 27.5997 17.891L27.4383 17.791L23.6137 15.2132C21.58 13.8436 22.8453 10.7216 25.1832 11.0515L25.3803 11.0872V11.0872C25.4421 11.1003 25.4912 11.036 25.4616 10.9802C24.5835 9.32709 23.2873 7.93191 21.7011 6.93465C20.0703 5.9094 18.1934 5.34262 16.2677 5.29395C14.3421 5.24527 12.4389 5.71651 10.7584 6.65807C9.07795 7.59964 7.68232 8.97672 6.71836 10.6444C6.58209 10.896 6.39681 11.1178 6.17343 11.2966C5.95005 11.4754 5.69312 11.6077 5.4178 11.6856C5.14247 11.7634 4.85433 11.7854 4.57038 11.7501C4.28644 11.7148 4.01244 11.623 3.76456 11.4801C3.51669 11.3371 3.29995 11.146 3.12715 10.9179C2.95435 10.6899 2.82899 10.4295 2.75847 10.1522C2.68795 9.8749 2.67369 9.58628 2.71654 9.30337C2.75939 9.02047 2.85848 8.74901 3.00796 8.50503Z" fill="url(#paint0_linear_332_131)"/>
<path opacity="0.5" d="M4.39771 14.1091C2.92383 13.2793 0.985797 14.3076 1.00008 16.1171C1.02665 19.3982 2.12831 22.5801 4.13625 25.1751C6.1442 27.7702 8.94764 29.6353 12.117 30.4846C18.8237 32.2827 25.6818 29.2378 28.9909 23.4965C29.1314 23.2527 29.2224 22.9836 29.2589 22.7046C29.2954 22.4256 29.2766 22.1421 29.2035 21.8704C29.1304 21.5986 29.0045 21.344 28.833 21.1209C28.6615 20.8978 28.4478 20.7107 28.204 20.5702C27.9601 20.4297 27.691 20.3386 27.412 20.3022C27.133 20.2657 26.8496 20.2845 26.5778 20.3576C26.3061 20.4307 26.0514 20.5565 25.8283 20.728C25.6052 20.8995 25.4181 21.1133 25.2776 21.3571C24.3134 23.0247 22.9176 24.4016 21.237 25.3429C19.5564 26.2842 17.6531 26.7552 15.7274 26.7062C13.8018 26.6573 11.9249 26.0902 10.2943 25.0647C8.7087 24.0675 7.41295 22.6726 6.53515 21.02C6.50536 20.9639 6.55506 20.8993 6.61709 20.9129L6.81275 20.9487C9.1521 21.2786 10.4175 18.1566 8.38375 16.7855L4.55909 14.2091L4.39771 14.1091Z" fill="url(#paint1_linear_332_131)"/>
<defs>
<linearGradient id="paint0_linear_332_131" x1="30.9974" y1="18.1814" x2="18.3792" y2="-2.83897" gradientUnits="userSpaceOnUse">
<stop offset="0.17063" stop-color="#FF5D00"/>
<stop offset="0.905415" stop-color="#FF9100"/>
</linearGradient>
<linearGradient id="paint1_linear_332_131" x1="29.277" y1="30.9999" x2="16.6522" y2="9.9902" gradientUnits="userSpaceOnUse">
<stop offset="0.17063" stop-color="#FF5D00"/>
<stop offset="0.905415" stop-color="#FF9100"/>
</linearGradient>
</defs>
</svg>
