<svg width="24" height="24" viewBox="0 0 24 24" fill="none" xmlns="http://www.w3.org/2000/svg">
<path d="M9.08427 15.0435C4.72408 15.0435 1 15.717 1 18.4091C1 21.1032 4.7004 21.8 9.08427 21.8C13.4445 21.8 17.1685 21.1264 17.1685 18.4344C17.1685 15.7402 13.4681 15.0435 9.08427 15.0435" fill="url(#paint0_linear_19_74)"/>
<path opacity="0.4" d="M9.08427 12.4773C12.0538 12.4773 14.4336 10.1468 14.4336 7.23865C14.4336 4.33052 12.0538 2 9.08427 2C6.11577 2 3.73494 4.33052 3.73494 7.23865C3.73494 10.1468 6.11577 12.4773 9.08427 12.4773" fill="url(#paint1_linear_19_74)"/>
<path opacity="0.4" d="M16.5908 7.33365C16.5908 8.8146 16.1366 10.1965 15.3401 11.3443C15.2572 11.4624 15.3304 11.6215 15.4746 11.6468C15.6748 11.6795 15.8804 11.6995 16.0903 11.7038C18.1783 11.7575 20.0522 10.441 20.5699 8.45833C21.3374 5.51646 19.0857 2.875 16.2173 2.875C15.9062 2.875 15.6081 2.90662 15.3175 2.96459C15.2776 2.97303 15.2346 2.992 15.2131 3.02573C15.1851 3.06895 15.2055 3.12481 15.2335 3.1617C16.0957 4.34541 16.5908 5.7863 16.5908 7.33365" fill="url(#paint2_linear_19_74)"/>
<path d="M22.757 15.3863C22.3749 14.5884 21.4525 14.0413 20.049 13.7725C19.3871 13.6144 17.5939 13.3899 15.9267 13.4215C15.9019 13.4247 15.8879 13.4416 15.8858 13.4521C15.8825 13.469 15.8901 13.4943 15.9224 13.5122C16.693 13.8853 19.6712 15.5086 19.2966 18.9321C19.2805 19.0818 19.4021 19.2083 19.5539 19.1872C20.2869 19.085 22.1726 18.6876 22.757 17.4522C23.081 16.7987 23.081 16.0398 22.757 15.3863" fill="url(#paint3_linear_19_74)"/>
<defs>
<linearGradient id="paint0_linear_19_74" x1="9.08427" y1="21.8" x2="9.08427" y2="15.0435" gradientUnits="userSpaceOnUse">
<stop stop-color="#FD4C00"/>
<stop offset="1" stop-color="#FFB800"/>
</linearGradient>
<linearGradient id="paint1_linear_19_74" x1="9.08427" y1="12.4773" x2="9.08427" y2="2" gradientUnits="userSpaceOnUse">
<stop stop-color="#FD4C00"/>
<stop offset="1" stop-color="#FFB800"/>
</linearGradient>
<linearGradient id="paint2_linear_19_74" x1="17.9606" y1="11.7054" x2="17.9606" y2="2.875" gradientUnits="userSpaceOnUse">
<stop stop-color="#FD4C00"/>
<stop offset="1" stop-color="#FFB800"/>
</linearGradient>
<linearGradient id="paint3_linear_19_74" x1="19.4425" y1="19.1895" x2="19.4425" y2="13.4185" gradientUnits="userSpaceOnUse">
<stop stop-color="#FD4C00"/>
<stop offset="1" stop-color="#FFB800"/>
</linearGradient>
</defs>
</svg>
