<svg width="128" height="128" viewBox="0 0 128 128" fill="none" xmlns="http://www.w3.org/2000/svg">
<path opacity="0.4" d="M64 8C33.2415 8 8 33.2415 8 64C8 94.7585 33.2415 120 64 120C94.7585 120 120 94.7585 120 64C120 33.2415 94.7585 8 64 8Z" fill="url(#paint0_linear_36_109)"/>
<path fill-rule="evenodd" clip-rule="evenodd" d="M94.4292 34.9824C98.4249 38.978 101.558 43.624 103.746 48.7935C104.524 50.6357 103.665 52.7608 101.823 53.5385C99.988 54.3144 97.8575 53.4631 97.0776 51.6149C95.2531 47.3085 92.6402 43.4331 89.3094 40.1024C85.9785 36.7715 82.1034 34.1587 77.7968 32.334C75.9545 31.5562 75.0953 29.4312 75.8733 27.5889C76.651 25.7397 78.7866 24.8911 80.6182 25.6655C85.7876 27.8542 90.4338 30.9868 94.4292 34.9824ZM39.6208 64.9655C39.6208 50.9919 50.9919 39.6207 64.9655 39.6207C78.9392 39.6207 90.3104 50.9919 90.3104 64.9655C90.3104 78.9392 78.9392 90.3103 64.9655 90.3103C50.9919 90.3103 39.6208 78.9392 39.6208 64.9655ZM46.6208 64.7242C46.6208 74.7059 54.7424 82.8276 64.7242 82.8276C74.7059 82.8276 82.8276 74.7059 82.8276 64.7242C82.8276 54.7423 74.7059 46.6207 64.7242 46.6207C54.7424 46.6207 46.6208 54.7423 46.6208 64.7242ZM54.3451 64.9655C54.3451 59.109 59.1093 54.3448 64.9657 54.3448C70.8222 54.3448 75.5865 59.109 75.5865 64.9655C75.5865 70.8219 70.8222 75.5861 64.9657 75.5861C59.1093 75.5861 54.3451 70.8219 54.3451 64.9655ZM61.1037 64.9655C61.1037 67.0962 62.835 68.8276 64.9657 68.8276C67.0966 68.8276 68.8278 67.0962 68.8278 64.9655C68.8278 62.8346 67.0966 61.1034 64.9657 61.1034C62.835 61.1034 61.1037 62.8346 61.1037 64.9655ZM52.5812 94.1828C48.2746 92.3581 44.3994 89.7452 41.0685 86.4144C37.7378 83.0837 35.1248 79.2082 33.3003 74.9018C32.5223 73.0563 30.3796 72.1969 28.5553 72.9782C26.7131 73.7563 25.854 75.8811 26.6317 77.7233C28.8203 82.8926 31.9531 87.5387 35.9488 91.5344C39.9442 95.5298 44.5903 98.6624 49.7597 100.851C51.599 101.629 53.7268 100.772 54.5047 98.9277C55.2824 97.0858 54.4232 94.9606 52.5812 94.1828Z" fill="url(#paint1_linear_36_109)"/>
<defs>
<linearGradient id="paint0_linear_36_109" x1="16" y1="64" x2="106.891" y2="53.956" gradientUnits="userSpaceOnUse">
<stop stop-color="#A000B8"/>
<stop offset="1" stop-color="#FF00D2"/>
</linearGradient>
<linearGradient id="paint1_linear_36_109" x1="31.8942" y1="63.2586" x2="94.9005" y2="56.1188" gradientUnits="userSpaceOnUse">
<stop stop-color="#A000B8"/>
<stop offset="1" stop-color="#FF00D2"/>
</linearGradient>
</defs>
</svg>
