<svg width="24" height="24" viewBox="0 0 24 24" fill="none" xmlns="http://www.w3.org/2000/svg">
<path opacity="0.4" d="M21.1213 9.61769C22.1589 9.61769 23 8.77656 23 7.73896C23 6.70137 22.1589 5.86023 21.1213 5.86023C20.0837 5.86023 19.2426 6.70137 19.2426 7.73896C19.2426 8.77656 20.0837 9.61769 21.1213 9.61769Z" fill="url(#paint0_linear_41_123)"/>
<path d="M1.8262 3.03228C1.34835 3.11662 1 3.53183 1 4.01706V19.5086C1 19.9938 1.34835 20.409 1.82619 20.4933L12.1673 22.3185C12.7796 22.4265 13.3411 21.9555 13.3411 21.3337V2.19195C13.3411 1.57014 12.7796 1.09909 12.1673 1.20717L1.8262 3.03228ZM10.1218 8.74339C10.1218 8.96039 9.94879 9.13782 9.73186 9.14327L8.36558 9.1776C8.14865 9.18305 7.97563 9.36047 7.97563 9.57747V15.1181C7.97563 15.339 7.79655 15.5181 7.57563 15.5181H6.76545C6.54453 15.5181 6.36545 15.339 6.36545 15.1181V9.71477C6.36545 9.48597 6.17387 9.30379 5.94536 9.31528L4.64046 9.38089C4.41194 9.39238 4.22037 9.2102 4.22037 8.9814V8.33243C4.22037 8.11997 4.38647 7.94457 4.59862 7.93302L9.70006 7.65521C9.92918 7.64273 10.1218 7.82516 10.1218 8.05462V8.74339Z" fill="url(#paint1_linear_41_123)"/>
<g opacity="0.4">
<path d="M22.5989 11.2269H19.6425C19.4216 11.2269 19.2425 11.4059 19.2425 11.6269V16.7283C19.2425 16.9492 19.4216 17.1283 19.6425 17.1283H21.1202C22.1569 17.1283 22.9989 16.2874 22.9989 15.2507V11.6269C22.9989 11.4059 22.8198 11.2269 22.5989 11.2269Z" fill="url(#paint2_linear_41_123)"/>
<path d="M14.4131 18.3385V10.0167C14.4131 9.79575 14.5922 9.61667 14.8131 9.61667H17.7694C17.9904 9.61667 18.1694 9.79575 18.1694 10.0167V17.1294C18.1694 18.0176 17.4486 18.7385 16.5593 18.7385H14.8131C14.5922 18.7385 14.4131 18.5594 14.4131 18.3385Z" fill="url(#paint3_linear_41_123)"/>
<path d="M14.5158 4.8822C14.9034 4.49512 15.4324 4.25122 16.0233 4.25122C16.5926 4.25122 17.1386 4.47739 17.5412 4.87998C17.9438 5.28257 18.17 5.8286 18.17 6.39795C18.17 6.9673 17.9438 7.51333 17.5412 7.91592C17.1386 8.31851 16.5926 8.54468 16.0233 8.54468C15.4323 8.54468 14.9023 8.30073 14.5155 7.91359C14.4471 7.84517 14.4131 7.75068 14.4131 7.65395V5.14226C14.4131 5.04535 14.4472 4.95069 14.5158 4.8822Z" fill="url(#paint4_linear_41_123)"/>
</g>
<defs>
<linearGradient id="paint0_linear_41_123" x1="21.1213" y1="9.61769" x2="21.1213" y2="5.86023" gradientUnits="userSpaceOnUse">
<stop stop-color="#A93AFF"/>
<stop offset="1" stop-color="#FF81FF"/>
</linearGradient>
<linearGradient id="paint1_linear_41_123" x1="7.17054" y1="22.5256" x2="7.17054" y2="1" gradientUnits="userSpaceOnUse">
<stop stop-color="#A93AFF"/>
<stop offset="1" stop-color="#FF81FF"/>
</linearGradient>
<linearGradient id="paint2_linear_41_123" x1="18.706" y1="18.7385" x2="18.706" y2="4.25122" gradientUnits="userSpaceOnUse">
<stop stop-color="#A93AFF"/>
<stop offset="1" stop-color="#FF81FF"/>
</linearGradient>
<linearGradient id="paint3_linear_41_123" x1="18.706" y1="18.7385" x2="18.706" y2="4.25122" gradientUnits="userSpaceOnUse">
<stop stop-color="#A93AFF"/>
<stop offset="1" stop-color="#FF81FF"/>
</linearGradient>
<linearGradient id="paint4_linear_41_123" x1="18.706" y1="18.7385" x2="18.706" y2="4.25122" gradientUnits="userSpaceOnUse">
<stop stop-color="#A93AFF"/>
<stop offset="1" stop-color="#FF81FF"/>
</linearGradient>
</defs>
</svg>
