<svg width="128" height="128" viewBox="0 0 128 128" fill="none" xmlns="http://www.w3.org/2000/svg">
<circle opacity="0.4" cx="64" cy="64" r="58" fill="url(#paint0_linear_60_348)"/>
<path d="M79.0761 42.8051C79.9962 41.9021 81.5666 41.674 82.5919 42.5597C84.5348 43.8941 86.4008 45.3355 88.2681 46.7782C89.7381 47.9138 91.2089 49.0499 92.7187 50.1352C95.2565 52.0988 97.8247 54.0253 100.393 55.9516C102.963 57.8787 105.532 59.8059 108.071 61.7703C109.029 62.3618 109.387 63.4063 109.736 64.426C109.822 64.6755 109.907 64.9238 110 65.1634C105.555 68.7216 101.002 72.1401 96.4503 75.5582C92.8593 78.2548 89.2679 80.9517 85.7301 83.7163C83.977 85.137 81.9955 86.2501 79.847 86.9695C78.3986 85.3246 78.3638 83.3018 78.3287 81.2708C78.3137 80.4002 78.2986 79.5282 78.1723 78.6838C78.0933 78.4118 77.9772 78.0062 77.8609 77.6006C77.7448 77.1952 77.6287 76.7897 77.5497 76.5178L77.5299 76.5166C75.9235 76.4208 74.3082 76.3246 72.701 76.2988C70.9101 76.2988 69.1192 76.3103 67.3283 76.322C62.3332 76.3542 57.3379 76.3866 52.3426 76.1676L52.2014 76.212C51.3058 76.4949 50.3766 76.7883 49.6768 77.4385C49.3251 78.9819 49.2241 80.5601 49.1232 82.14C49.0354 83.5133 48.9476 84.8877 48.6948 86.2417C48.354 86.2417 48.0023 86.2742 47.6486 86.3068C46.5917 86.4046 45.5178 86.5039 44.6704 85.7419C42.5828 84.2899 40.5708 82.7377 38.5581 81.1853C36.5725 79.6536 34.5865 78.1217 32.5268 76.6849C32.0259 76.3067 31.525 75.9155 31.0303 75.529L31.0288 75.528L30.8258 75.3694C29.3976 74.2656 27.9479 73.1896 26.4983 72.1137C24.0321 70.2832 21.5663 68.4529 19.2085 66.4874C17.5514 65.4791 17.6127 62.9188 19.3049 61.972C23.8924 58.4363 28.5179 54.9466 33.1422 51.458L33.1454 51.4553C36.8452 48.664 40.5451 45.8727 44.2233 43.0595C45.5122 41.6829 48.4846 41.5338 49.002 43.6907C49.3207 45.279 49.3501 46.8983 49.3794 48.5162C49.397 49.4795 49.4144 50.4422 49.4929 51.3977C53.3545 52.5128 57.3812 52.3752 61.4093 52.2376C63.8109 52.1555 66.2128 52.0735 68.5806 52.2568C69.5195 52.2239 70.4617 52.236 71.4037 52.248C73.2233 52.2712 75.0433 52.2943 76.8399 51.9939C78.561 50.8661 78.4656 48.9813 78.3689 47.0727C78.2912 45.5385 78.2127 43.989 79.0761 42.8051Z" fill="url(#paint1_linear_60_348)"/>
<defs>
<linearGradient id="paint0_linear_60_348" x1="64" y1="122" x2="64" y2="6" gradientUnits="userSpaceOnUse">
<stop stop-color="#5570FF"/>
<stop offset="1" stop-color="#4DD3FF"/>
</linearGradient>
<linearGradient id="paint1_linear_60_348" x1="17.9999" y1="86.9695" x2="91.5884" y2="21.3518" gradientUnits="userSpaceOnUse">
<stop stop-color="#0357D1"/>
<stop offset="1" stop-color="#27CDFC"/>
</linearGradient>
</defs>
</svg>
