<svg width="24" height="24" viewBox="0 0 24 24" fill="none" xmlns="http://www.w3.org/2000/svg">
<path opacity="0.4" d="M13.7919 21.3192L13.1957 22.3268C12.6644 23.2244 11.3367 23.2244 10.8043 22.3268L10.2081 21.3192C9.7461 20.5382 9.5151 20.1466 9.1433 19.931C8.7715 19.7143 8.304 19.7066 7.369 19.6901C5.9874 19.667 5.1217 19.5823 4.3957 19.2809C3.7284 19.0045 3.12208 18.5994 2.61136 18.0886C2.10063 17.5779 1.6955 16.9716 1.4191 16.3043C1 15.2945 1 14.013 1 11.45V10.35C1 6.7497 1 4.949 1.8107 3.6268C2.26395 2.88672 2.88589 2.26439 3.6257 1.8107C4.949 1 6.7508 1 10.35 1H13.65C17.2503 1 19.051 1 20.3743 1.8107C21.114 2.26408 21.7359 2.88602 22.1893 3.6257C23 4.949 23 6.7508 23 10.35V11.45C23 14.013 23 15.2945 22.582 16.3043C22.3055 16.9717 21.9002 17.5781 21.3893 18.0888C20.8783 18.5995 20.2718 19.0046 19.6043 19.2809C18.8783 19.5823 18.0126 19.6659 16.631 19.6901C15.696 19.7066 15.2285 19.7143 14.8567 19.931C14.4849 20.1466 14.2539 20.5371 13.7919 21.3192Z" fill="url(#paint0_linear_8_237)"/>
<path d="M19 11.4C19 11.7713 18.8525 12.1274 18.59 12.3899C18.3274 12.6525 17.9713 12.8 17.6 12.8C17.2287 12.8 16.8726 12.6525 16.6101 12.3899C16.3475 12.1274 16.2 11.7713 16.2 11.4C16.2 11.0287 16.3475 10.6726 16.6101 10.4101C16.8726 10.1475 17.2287 10 17.6 10C17.9713 10 18.3274 10.1475 18.59 10.4101C18.8525 10.6726 19 11.0287 19 11.4ZM13.4 11.4C13.4 11.7713 13.2525 12.1274 12.9899 12.3899C12.7274 12.6525 12.3713 12.8 12 12.8C11.6287 12.8 11.2726 12.6525 11.0101 12.3899C10.7475 12.1274 10.6 11.7713 10.6 11.4C10.6 11.0287 10.7475 10.6726 11.0101 10.4101C11.2726 10.1475 11.6287 10 12 10C12.3713 10 12.7274 10.1475 12.9899 10.4101C13.2525 10.6726 13.4 11.0287 13.4 11.4ZM7.8 11.4C7.8 11.7713 7.6525 12.1274 7.38995 12.3899C7.1274 12.6525 6.7713 12.8 6.4 12.8C6.0287 12.8 5.6726 12.6525 5.41005 12.3899C5.1475 12.1274 5 11.7713 5 11.4C5 11.0287 5.1475 10.6726 5.41005 10.4101C5.6726 10.1475 6.0287 10 6.4 10C6.7713 10 7.1274 10.1475 7.38995 10.4101C7.6525 10.6726 7.8 11.0287 7.8 11.4Z" fill="url(#paint1_linear_8_237)"/>
<defs>
<linearGradient id="paint0_linear_8_237" x1="12" y1="23" x2="12" y2="1" gradientUnits="userSpaceOnUse">
<stop stop-color="#5558FF"/>
<stop offset="1" stop-color="#00C0FF"/>
</linearGradient>
<linearGradient id="paint1_linear_8_237" x1="12" y1="12.8" x2="12" y2="10" gradientUnits="userSpaceOnUse">
<stop stop-color="#5558FF"/>
<stop offset="1" stop-color="#00C0FF"/>
</linearGradient>
</defs>
</svg>
