<svg width="128" height="128" viewBox="0 0 128 128" fill="none" xmlns="http://www.w3.org/2000/svg">
<path opacity="0.4" fill-rule="evenodd" clip-rule="evenodd" d="M49.1543 20.593C58.1766 18.9383 67.4907 20.7761 75.2083 25.734C81.4429 29.7392 86.2592 35.5381 89.064 42.3081C91.9817 42.0836 94.9239 42.2432 97.8145 42.7888C102.446 43.663 106.839 45.5081 110.706 48.2026C114.573 50.8971 117.825 54.3799 120.249 58.422C122.672 62.464 124.213 66.9735 124.767 71.6536C125.323 76.3336 124.881 81.0783 123.47 85.5752C122.059 90.0721 119.712 94.2193 116.584 97.7437C113.455 101.268 109.615 104.09 105.317 106.023C101.018 107.957 96.3596 108.958 91.6467 108.962H91.6428H30.797H30.7818C23.9936 108.944 17.4455 106.447 12.3679 101.942C7.29025 97.4366 4.03257 91.2321 3.20689 84.4942C2.38121 77.7563 4.04438 70.9488 7.88391 65.3507C10.8142 61.0782 14.8582 57.7347 19.5355 55.6544C19.637 48.1211 22.0932 40.7638 26.6203 34.6451C32.0763 27.2712 40.1319 22.2478 49.1543 20.593Z" fill="url(#paint0_linear_11_197)"/>
<path d="M40.6141 52.3064C38.8724 50.5645 36.0482 50.5645 34.3064 52.3064C32.5645 54.0481 32.5645 56.8722 34.3064 58.6141L48.1394 72.4471L34.3064 86.28C32.5645 88.0219 32.5645 90.8459 34.3064 92.5877C36.0482 94.3295 38.8724 94.3295 40.6141 92.5877L57.6009 75.6009C59.3428 73.8591 59.3428 71.0349 57.6009 69.2932L40.6141 52.3064Z" fill="url(#paint1_linear_11_197)"/>
<path d="M63.7785 84.3862C63.7785 81.298 68.4325 79.8429 70.6513 81.9911C73.247 84.504 76.3181 86.5755 79.3893 86.5755C82.4605 86.5755 85.5316 84.504 88.1272 81.9911C90.3462 79.8429 95 81.298 95 84.3862C95 85.0811 94.7624 85.7546 94.2922 86.2662C92.2751 88.4608 86.2022 94.3809 79.3893 94.3809C72.5765 94.3809 66.5036 88.4608 64.4864 86.2662C64.0161 85.7546 63.7785 85.0811 63.7785 84.3862Z" fill="url(#paint2_linear_11_197)"/>
<defs>
<linearGradient id="paint0_linear_11_197" x1="64" y1="108.962" x2="64" y2="20" gradientUnits="userSpaceOnUse">
<stop stop-color="#02AA93"/>
<stop offset="1" stop-color="#67FF80"/>
</linearGradient>
<linearGradient id="paint1_linear_11_197" x1="64" y1="94.3809" x2="64" y2="51" gradientUnits="userSpaceOnUse">
<stop stop-color="#02AA93"/>
<stop offset="1" stop-color="#67FF80"/>
</linearGradient>
<linearGradient id="paint2_linear_11_197" x1="64" y1="94.3809" x2="64" y2="51" gradientUnits="userSpaceOnUse">
<stop stop-color="#02AA93"/>
<stop offset="1" stop-color="#67FF80"/>
</linearGradient>
</defs>
</svg>
