<svg width="64" height="64" viewBox="0 0 64 64" fill="none" xmlns="http://www.w3.org/2000/svg">
<g opacity="0.4">
<path fill-rule="evenodd" clip-rule="evenodd" d="M6.65072 16.1775C6.98944 16.0559 7.35183 15.9956 7.71684 16.0002H16.8985C17.2635 15.9956 17.6259 16.0559 17.9646 16.1775C18.3034 16.2992 18.6117 16.4797 18.8716 16.7088C19.1315 16.9378 19.3379 17.2107 19.4788 17.5116C19.6197 17.8126 19.6923 18.1355 19.6923 18.4617C19.6923 18.788 19.6197 19.1109 19.4788 19.4118C19.3379 19.7128 19.1315 19.9857 18.8716 20.2147C18.6117 20.4437 18.3034 20.6243 17.9646 20.746C17.6259 20.8676 17.2635 20.9278 16.8985 20.9232H7.71684C7.35183 20.9278 6.98944 20.8676 6.65072 20.746C6.31201 20.6243 6.00372 20.4437 5.74378 20.2147C5.48383 19.9857 5.27742 19.7128 5.13653 19.4118C4.99565 19.1109 4.9231 18.788 4.9231 18.4617C4.9231 18.1355 4.99565 17.8126 5.13653 17.5116C5.27742 17.2107 5.48383 16.9378 5.74378 16.7088C6.00372 16.4797 6.31201 16.2992 6.65072 16.1775ZM24.7001 20.9233C21.0687 20.9704 21.0687 15.9533 24.7001 16.0003L25.5568 16.0003H33.1188H45.2028H46.0979V16.042C56.1106 16.4795 63.9871 24.0422 64 33.2308C63.9945 42.4243 56.116 49.9946 46.0979 50.4322V50.4612H45.2028H31.5979H20.1355C16.5042 50.5083 16.5042 45.4915 20.1355 45.5383H26.8531H31.7095C35.341 45.5854 35.341 40.5681 31.7095 40.6153H30.3214H27.2936C23.6622 40.6623 23.6622 35.6452 27.2936 35.6923H27.4335H33.1188C36.7502 35.7394 36.7502 30.7222 33.1188 30.7693H27.2097H24.2062H12.554C8.9226 30.8164 8.9226 25.7992 12.554 25.8463H18.8356H25.514H26.7657C30.3971 25.8934 30.3971 20.8763 26.7657 20.9233H25.2911H24.7001ZM12.5129 35.6926C12.1645 35.688 11.8185 35.7483 11.4952 35.8699C11.1719 35.9915 10.8776 36.1721 10.6295 36.4011C10.3813 36.6302 10.1843 36.9031 10.0498 37.204C9.91533 37.505 9.84607 37.8279 9.84607 38.1541C9.84607 38.4803 9.91533 38.8033 10.0498 39.1042C10.1843 39.4052 10.3813 39.6781 10.6295 39.9071C10.8776 40.1361 11.1719 40.3167 11.4952 40.4383C11.8185 40.56 12.1645 40.6202 12.5129 40.6156H19.4869C19.8353 40.6202 20.1813 40.56 20.5046 40.4383C20.8279 40.3167 21.1222 40.1361 21.3703 39.9071C21.6185 39.6781 21.8155 39.4052 21.95 39.1042C22.0845 38.8033 22.1537 38.4803 22.1537 38.1541C22.1537 37.8279 22.0845 37.505 21.95 37.204C21.8155 36.9031 21.6185 36.6302 21.3703 36.4011C21.1222 36.1721 20.8279 35.9915 20.5046 35.8699C20.1813 35.7483 19.8353 35.688 19.4869 35.6926H12.5129ZM1.73227 45.7161C2.0719 45.5945 2.43526 45.5342 2.80125 45.5388H11.968C12.334 45.5342 12.6974 45.5945 13.037 45.7161C13.3767 45.8377 13.6858 46.0183 13.9464 46.2473C14.207 46.4764 14.414 46.7493 14.5553 47.0502C14.6965 47.3511 14.7693 47.6741 14.7693 48.0003C14.7693 48.3265 14.6965 48.6495 14.5553 48.9504C14.414 49.2514 14.207 49.5243 13.9464 49.7533C13.6858 49.9823 13.3767 50.1629 13.037 50.2845C12.6974 50.4062 12.334 50.4664 11.968 50.4618H2.80125C2.43526 50.4664 2.0719 50.4062 1.73227 50.2845C1.39264 50.1629 1.08353 49.9823 0.822885 49.7533C0.562245 49.5243 0.355278 49.2514 0.214012 48.9504C0.0727466 48.6495 0 48.3265 0 48.0003C0 47.6741 0.0727466 47.3511 0.214012 47.0502C0.355278 46.7493 0.562245 46.4764 0.822885 46.2473C1.08353 46.0183 1.39264 45.8377 1.73227 45.7161Z" fill="url(#paint0_linear_231_205)"/>
</g>
<path d="M48 24C43.5777 24 40 27.7321 40 32.3329V35.6671C40 40.2735 43.5777 44 48 44C52.4169 44 56 40.2735 56 35.6671V32.3329C56 27.7321 52.4169 24 48 24Z" fill="url(#paint1_linear_231_205)"/>
<defs>
<linearGradient id="paint0_linear_231_205" x1="32" y1="50.4621" x2="32" y2="16" gradientUnits="userSpaceOnUse">
<stop stop-color="#5570FF"/>
<stop offset="1" stop-color="#4DD3FF"/>
</linearGradient>
<linearGradient id="paint1_linear_231_205" x1="48" y1="44" x2="48" y2="24" gradientUnits="userSpaceOnUse">
<stop stop-color="#5570FF"/>
<stop offset="1" stop-color="#4DD3FF"/>
</linearGradient>
</defs>
</svg>
