<svg width="64" height="64" viewBox="0 0 64 64" fill="none" xmlns="http://www.w3.org/2000/svg">
<rect opacity="0.4" x="4" y="3" width="56" height="56" rx="12" fill="url(#paint0_linear_69_178)"/>
<path d="M38.3916 16.862C39.9753 14.9805 42.5477 13.9642 45.0177 14.2667C47.6019 14.5267 49.938 16.218 51.0489 18.5146C51.8522 20.2331 51.8086 22.1076 51.7654 23.9686C51.7484 24.6997 51.7315 25.4287 51.7659 26.1453C51.7514 26.4206 51.7596 26.7118 51.7679 27.0077C51.7957 28.0007 51.825 29.0475 51.0056 29.7259C49.808 30.878 47.5389 30.1061 47.3262 28.4729C47.2609 27.2733 47.2717 26.0706 47.2825 24.868C47.2926 23.7489 47.3026 22.6296 47.2513 21.5133C47.1647 19.9771 45.7701 18.6387 44.1983 18.6465C42.7998 18.6 41.5589 19.5892 41.1295 20.8694C40.9959 22.2487 41.0131 23.6349 41.0304 25.0218C41.0447 26.1703 41.059 27.3193 40.9876 28.4651C40.8064 29.7453 39.3331 30.6026 38.1001 30.172C36.8592 29.8306 36.3943 28.4729 36.544 27.3207C36.6051 26.4079 36.5766 25.4703 36.548 24.5292C36.4787 22.2505 36.4088 19.9517 37.6076 17.9366C37.8558 17.5681 38.1159 17.2112 38.3916 16.862Z" fill="url(#paint1_linear_69_178)"/>
<path fill-rule="evenodd" clip-rule="evenodd" d="M32.4195 15.2754C33.3334 13.6228 36.0674 14.0456 36.5401 15.8418C36.6071 16.4237 36.5283 17.0094 36.3234 17.5564C35.4803 20.0738 34.6411 22.5912 33.8018 25.1086L33.7549 25.2492C32.8134 28.0811 31.868 30.9129 30.9225 33.741C30.0677 36.313 29.2089 38.8811 28.3501 41.4492C28.0991 42.129 27.8816 42.8215 27.6642 43.5138C27.2947 44.6903 26.9254 45.8661 26.3922 46.9773C25.1592 49.076 21.598 48.8083 20.7234 46.5389C19.5206 42.9294 18.3738 39.3014 17.2272 35.6744C16.5489 33.5285 15.8704 31.3823 15.1807 29.241C14.3931 26.7761 13.6087 24.3127 12.8243 21.8499C12.3533 20.3708 11.8823 18.8919 11.4107 17.4129C11.2217 16.8931 11.1783 16.3383 11.2729 15.7952C11.7889 13.8749 14.8262 13.6771 15.5156 15.5663C16.9723 20.028 18.3901 24.5025 19.8075 28.9755L19.8078 28.9767L19.8087 28.9793C20.3035 30.541 20.7984 32.1026 21.2947 33.6634C21.7241 34.9838 22.1456 36.3074 22.567 37.6308C22.9344 38.7843 23.3016 39.9377 23.674 41.0885C23.9641 40.4586 24.1747 39.798 24.3851 39.1376C24.5091 38.7486 24.633 38.3597 24.7731 37.9772C25.0987 37.0035 25.4238 36.0286 25.7489 35.0534L25.7501 35.0496C26.2742 33.4776 26.7986 31.9047 27.3259 30.3349C27.825 28.8297 28.3275 27.3255 28.8298 25.8218L28.8302 25.8206C29.2829 24.4651 29.7359 23.109 30.1858 21.7539C30.4818 20.9258 30.7515 20.0874 31.0212 19.2488C31.4515 17.9109 31.8819 16.5726 32.4195 15.2754Z" fill="url(#paint2_linear_69_178)"/>
<path d="M39.7665 34.8039C41.9122 33.2813 44.507 33.3641 47.0581 33.4455C47.9776 33.4749 48.8914 33.5041 49.7765 33.4578C51.9707 33.5625 52.4986 36.891 50.4619 37.663C49.3208 37.9742 48.1063 37.9185 46.8923 37.8628C45.3069 37.79 43.7225 37.7173 42.3035 38.4621C40.3968 39.8005 40.7868 43.0631 43.0519 43.7924C44.3741 44.0983 45.7341 44.0623 47.0958 44.0262C48.0996 43.9997 49.1044 43.973 50.0956 44.0833C51.7028 44.4131 52.3331 46.6126 51.171 47.7415C50.5049 48.4908 49.5189 48.4628 48.5769 48.4361C48.3044 48.4284 48.0356 48.4208 47.7792 48.4321C47.17 48.405 46.5524 48.419 45.9336 48.433C44.4279 48.4672 42.9154 48.5015 41.4998 47.9433C38.8092 46.9773 36.7883 44.4169 36.5677 41.5967C36.3038 38.9742 37.5998 36.3246 39.7665 34.8039Z" fill="url(#paint3_linear_69_178)"/>
<defs>
<linearGradient id="paint0_linear_69_178" x1="32" y1="59" x2="32" y2="3" gradientUnits="userSpaceOnUse">
<stop stop-color="#FDA700"/>
<stop offset="1" stop-color="#FFDE00"/>
</linearGradient>
<linearGradient id="paint1_linear_69_178" x1="31.5048" y1="48.4494" x2="31.5048" y2="14.214" gradientUnits="userSpaceOnUse">
<stop stop-color="#FD5900"/>
<stop offset="1" stop-color="#FFDE00"/>
</linearGradient>
<linearGradient id="paint2_linear_69_178" x1="31.5048" y1="48.4494" x2="31.5048" y2="14.214" gradientUnits="userSpaceOnUse">
<stop stop-color="#FD5900"/>
<stop offset="1" stop-color="#FFDE00"/>
</linearGradient>
<linearGradient id="paint3_linear_69_178" x1="31.5048" y1="48.4494" x2="31.5048" y2="14.214" gradientUnits="userSpaceOnUse">
<stop stop-color="#FD5900"/>
<stop offset="1" stop-color="#FFDE00"/>
</linearGradient>
</defs>
</svg>
