<svg width="24" height="24" viewBox="0 0 24 24" fill="none" xmlns="http://www.w3.org/2000/svg">
<path opacity="0.4" d="M1 12C1 6.8146 1 4.2219 2.6104 2.6104C4.223 1 6.8146 1 12 1C17.1854 1 19.7781 1 21.3885 2.6104C23 4.223 23 6.8146 23 12C23 17.1854 23 19.7781 21.3885 21.3885C19.7792 23 17.1854 23 12 23C6.8146 23 4.2219 23 2.6104 21.3885C1 19.7792 1 17.1854 1 12Z" fill="url(#paint0_linear_308_262)"/>
<path d="M4.77911 4.65513C4.89708 4.51365 5.0664 4.4248 5.24985 4.40813C5.4333 4.39145 5.61587 4.44831 5.75742 4.56619L6.01404 4.77927C6.57452 5.24619 7.05163 5.64362 7.38144 6.00955C7.73255 6.39865 8.00584 6.84427 8.00584 7.41584C8.00584 7.98746 7.73255 8.43402 7.38144 8.82215C7.05163 9.18809 6.57452 9.58552 6.01404 10.0525L5.75742 10.2655C5.68769 10.3265 5.60646 10.373 5.51852 10.4021C5.43057 10.4313 5.33769 10.4425 5.24532 10.4353C5.15296 10.428 5.06299 10.4023 4.9807 10.3597C4.8984 10.3171 4.82546 10.2586 4.76615 10.1874C4.70684 10.1162 4.66236 10.0339 4.63533 9.94527C4.6083 9.85671 4.59927 9.76352 4.60876 9.6714C4.61825 9.57921 4.64609 9.4899 4.69062 9.40865C4.73514 9.3274 4.79547 9.2559 4.86805 9.19827L5.08483 9.01765C5.69534 8.50815 6.09463 8.17459 6.35032 7.89115C6.59305 7.62246 6.61621 7.49552 6.61621 7.41584C6.61621 7.33621 6.59305 7.21021 6.35032 6.94059C6.0937 6.65715 5.69534 6.32271 5.08483 5.81408L4.86805 5.63343C4.72657 5.51546 4.63773 5.34614 4.62105 5.16269C4.60437 4.97924 4.66122 4.79667 4.77911 4.65513ZM14.6051 9.7319C14.6051 9.91621 14.5319 10.0929 14.4016 10.2232C14.2713 10.3535 14.0945 10.4267 13.9103 10.4267H9.27817C9.09392 10.4267 8.91717 10.3535 8.78685 10.2232C8.65654 10.0929 8.58335 9.91621 8.58335 9.7319C8.58335 9.54765 8.65654 9.3709 8.78685 9.24059C8.91717 9.11034 9.09392 9.03709 9.27817 9.03709H13.9103C14.0945 9.03709 14.2713 9.11034 14.4016 9.24059C14.5319 9.3709 14.6051 9.54765 14.6051 9.7319Z" fill="url(#paint1_linear_308_262)"/>
<path d="M4.77911 13.8124C4.89708 13.6709 5.0664 13.582 5.24985 13.5654C5.4333 13.5487 5.61587 13.6055 5.75742 13.7234L6.01404 13.9365C6.57452 14.4034 7.05163 14.8008 7.38144 15.1668C7.73255 15.5559 8.00584 16.0015 8.00584 16.5731C8.00584 17.1447 7.73255 17.5913 7.38144 17.9794C7.05163 18.3453 6.57452 18.7427 6.01404 19.2097L5.75742 19.4227C5.68769 19.4837 5.60646 19.5302 5.51852 19.5594C5.43057 19.5885 5.33769 19.5997 5.24532 19.5925C5.15296 19.5852 5.06299 19.5596 4.9807 19.5169C4.8984 19.4744 4.82546 19.4158 4.76615 19.3446C4.70684 19.2734 4.66236 19.1911 4.63533 19.1025C4.6083 19.0139 4.59927 18.9207 4.60876 18.8286C4.61825 18.7364 4.64609 18.6471 4.69062 18.5659C4.73514 18.4846 4.79547 18.4131 4.86805 18.3555L5.08483 18.1749C5.69534 17.6654 6.09463 17.3318 6.35032 17.0484C6.59305 16.7797 6.61621 16.6528 6.61621 16.5731C6.61621 16.4934 6.59305 16.3674 6.35032 16.0978C6.0937 15.8144 5.69534 15.4799 5.08483 14.9713L4.86805 14.7907C4.72657 14.6727 4.63773 14.5034 4.62105 14.3199C4.60437 14.1365 4.66122 13.9539 4.77911 13.8124ZM14.6051 18.8891C14.6051 19.0734 14.5319 19.2501 14.4016 19.3804C14.2713 19.5107 14.0945 19.5839 13.9103 19.5839H9.27817C9.09392 19.5839 8.91717 19.5107 8.78685 19.3804C8.65654 19.2501 8.58335 19.0734 8.58335 18.8891C8.58335 18.7049 8.65654 18.5281 8.78685 18.3978C8.91717 18.2676 9.09392 18.1943 9.27817 18.1943H13.9103C14.0945 18.1943 14.2713 18.2676 14.4016 18.3978C14.5319 18.5281 14.6051 18.7049 14.6051 18.8891Z" fill="url(#paint2_linear_308_262)"/>
<defs>
<linearGradient id="paint0_linear_308_262" x1="12" y1="23" x2="12" y2="1" gradientUnits="userSpaceOnUse">
<stop stop-color="#5570FF"/>
<stop offset="1" stop-color="#4DD3FF"/>
</linearGradient>
<linearGradient id="paint1_linear_308_262" x1="9.6051" y1="10.4374" x2="9.6051" y2="4.40527" gradientUnits="userSpaceOnUse">
<stop stop-color="#5570FF"/>
<stop offset="1" stop-color="#4DD3FF"/>
</linearGradient>
<linearGradient id="paint2_linear_308_262" x1="9.6051" y1="19.5946" x2="9.6051" y2="13.5625" gradientUnits="userSpaceOnUse">
<stop stop-color="#5570FF"/>
<stop offset="1" stop-color="#4DD3FF"/>
</linearGradient>
</defs>
</svg>
