<svg width="64" height="64" viewBox="0 0 64 64" fill="none" xmlns="http://www.w3.org/2000/svg">
<ellipse opacity="0.4" cx="32" cy="31.5" rx="29" ry="28.5" fill="url(#paint0_linear_37_269)"/>
<path d="M25.6907 49.7369C33.1845 52.7978 42.3563 50.0748 47.1487 43.5293C50.5791 39.0393 51.8129 32.9632 50.4653 27.4601C49.2811 22.3647 45.8822 17.8669 41.3541 15.3539C35.6897 12.1322 28.371 12.2215 22.7898 15.5977C17.5709 18.6634 14.0566 24.3844 13.5897 30.4667L13.5073 30.4657C12.6584 30.4557 11.7434 30.4449 10.8594 30.536L10.8066 30.5414L10.7548 30.553C9.94437 30.7328 9.39132 31.3389 9.14942 31.994C8.91217 32.6364 8.93324 33.4339 9.38918 34.093C11.188 37.1183 13.0116 40.1263 14.8558 43.1211C15.2845 43.9794 16.1518 44.3416 16.9269 44.3174C17.692 44.2936 18.5231 43.8901 18.9187 43.0509C20.7538 40.0697 22.5679 37.072 24.361 34.0661C25.2191 32.791 24.5291 31.0419 23.1513 30.5897L23.0643 30.5611L22.9733 30.5504C22.071 30.4436 21.1391 30.453 20.275 30.4657C20.6992 27.3177 22.2956 24.345 24.7459 22.4005L24.7525 22.3953L24.7589 22.39C27.7274 19.9451 31.8859 19.0893 35.5487 20.1778L35.5576 20.1805L35.5666 20.1829C40.8526 21.6383 44.7564 27.1373 44.3097 32.7094L44.3082 32.7282L44.3074 32.747C44.0798 38.5981 39.1206 43.7681 33.3992 44.1924L33.3625 44.1952L33.3263 44.2008C32.3799 44.3479 31.4237 44.263 30.4067 44.0785C29.9006 43.9867 29.3938 43.8731 28.8661 43.7549L28.8559 43.7525C28.3309 43.6349 27.7848 43.5127 27.2346 43.4142L27.1545 43.3998H27.0732C25.3587 43.3998 24.304 44.7226 24.0122 46.0216C23.7208 47.3186 24.1051 48.9653 25.6353 49.7121L25.6626 49.7254L25.6907 49.7369Z" fill="url(#paint1_linear_37_269)"/>
<defs>
<linearGradient id="paint0_linear_37_269" x1="32" y1="60" x2="32" y2="3.00003" gradientUnits="userSpaceOnUse">
<stop offset="0.119792" stop-color="#7730F6"/>
<stop offset="0.84375" stop-color="#39D9FD"/>
</linearGradient>
<linearGradient id="paint1_linear_37_269" x1="30" y1="50.9908" x2="30" y2="13" gradientUnits="userSpaceOnUse">
<stop offset="0.119792" stop-color="#7730F6"/>
<stop offset="0.84375" stop-color="#39D9FD"/>
</linearGradient>
</defs>
</svg>
