<svg width="32" height="32" viewBox="0 0 32 32" fill="none" xmlns="http://www.w3.org/2000/svg">
<path opacity="0.4" d="M16 31C24.2843 31 31 24.2843 31 16C31 7.71573 24.2843 1 16 1C7.71573 1 1 7.71573 1 16C1 24.2843 7.71573 31 16 31Z" fill="#FF5473"/>
<path d="M11.9694 13.5542C16.4554 11.9749 17.219 7.86105 16.6463 4.07863C16.6463 3.94215 16.7608 3.84467 16.8754 3.88366C21.1704 6.02833 26 10.7076 26 17.7265C26 23.1077 21.9149 27.8649 15.9782 27.8649C13.8598 27.9633 11.7696 27.3384 10.0376 26.0887C8.30558 24.839 7.03035 23.0358 6.41317 20.9637C5.796 18.8916 5.87203 16.6685 6.62928 14.6454C7.38652 12.6223 8.78184 10.9144 10.595 9.79124C10.7095 9.71325 10.8623 9.79124 10.8623 9.92772C10.9195 10.6491 11.1104 12.4623 11.8931 13.5542L11.9694 13.5542Z" fill="#FF5473"/>
</svg>
