<svg width="24" height="24" viewBox="0 0 24 24" fill="none" xmlns="http://www.w3.org/2000/svg">
<path opacity="0.4" d="M1 12C1 6.8146 1 4.2219 2.6104 2.6104C4.223 1 6.8146 1 12 1C17.1854 1 19.7781 1 21.3885 2.6104C23 4.223 23 6.8146 23 12C23 17.1854 23 19.7781 21.3885 21.3885C19.7792 23 17.1854 23 12 23C6.8146 23 4.2219 23 2.6104 21.3885C1 19.7792 1 17.1854 1 12Z" fill="url(#paint0_linear_297_233)"/>
<path d="M4.8 4.88672C4.58782 4.88672 4.38434 4.97102 4.23431 5.12102C4.08427 5.27102 4 5.47452 4 5.68672V7.28672C4 7.49892 4.08427 7.70242 4.23431 7.85242C4.38434 8.00242 4.58782 8.08672 4.8 8.08672H6.4C6.61218 8.08672 6.81566 8.00242 6.96569 7.85242C7.1157 7.70242 7.2 7.49892 7.2 7.28672V5.68672C7.2 5.47452 7.1157 5.27102 6.96569 5.12102C6.81566 4.97102 6.61218 4.88672 6.4 4.88672H4.8Z" fill="url(#paint1_linear_297_233)"/>
<path d="M10.4 5.68672C10.4 5.47452 10.4843 5.27102 10.6343 5.12102C10.7843 4.97102 10.9878 4.88672 11.2 4.88672H12.8C13.0122 4.88672 13.2157 4.97102 13.3657 5.12102C13.5157 5.27102 13.6 5.47452 13.6 5.68672V7.28672C13.6 7.49892 13.5157 7.70242 13.3657 7.85242C13.2157 8.00242 13.0122 8.08672 12.8 8.08672H11.2C10.9878 8.08672 10.7843 8.00242 10.6343 7.85242C10.4843 7.70242 10.4 7.49892 10.4 7.28672V5.68672Z" fill="url(#paint2_linear_297_233)"/>
<path d="M17.6 4.88672C17.3878 4.88672 17.1843 4.97102 17.0343 5.12102C16.8843 5.27102 16.8 5.47452 16.8 5.68672V7.28672C16.8 7.49892 16.8843 7.70242 17.0343 7.85242C17.1843 8.00242 17.3878 8.08672 17.6 8.08672H19.2001C19.4123 8.08672 19.6157 8.00242 19.7657 7.85242C19.9157 7.70242 20 7.49892 20 7.28672V5.68672C20 5.47452 19.9157 5.27102 19.7657 5.12102C19.6157 4.97102 19.4123 4.88672 19.2001 4.88672H17.6Z" fill="url(#paint3_linear_297_233)"/>
<path d="M4.8 4.88672C4.58782 4.88672 4.38434 4.97102 4.23431 5.12102C4.08427 5.27102 4 5.47452 4 5.68672V7.28672C4 7.49892 4.08427 7.70242 4.23431 7.85242C4.38434 8.00242 4.58782 8.08672 4.8 8.08672H6.4C6.61218 8.08672 6.81566 8.00242 6.96569 7.85242C7.1157 7.70242 7.2 7.49892 7.2 7.28672V5.68672C7.2 5.47452 7.1157 5.27102 6.96569 5.12102C6.81566 4.97102 6.61218 4.88672 6.4 4.88672H4.8Z" stroke="url(#paint4_linear_297_233)"/>
<path d="M10.4 5.68672C10.4 5.47452 10.4843 5.27102 10.6343 5.12102C10.7843 4.97102 10.9878 4.88672 11.2 4.88672H12.8C13.0122 4.88672 13.2157 4.97102 13.3657 5.12102C13.5157 5.27102 13.6 5.47452 13.6 5.68672V7.28672C13.6 7.49892 13.5157 7.70242 13.3657 7.85242C13.2157 8.00242 13.0122 8.08672 12.8 8.08672H11.2C10.9878 8.08672 10.7843 8.00242 10.6343 7.85242C10.4843 7.70242 10.4 7.49892 10.4 7.28672V5.68672Z" stroke="url(#paint5_linear_297_233)"/>
<path d="M17.6 4.88672C17.3878 4.88672 17.1843 4.97102 17.0343 5.12102C16.8843 5.27102 16.8 5.47452 16.8 5.68672V7.28672C16.8 7.49892 16.8843 7.70242 17.0343 7.85242C17.1843 8.00242 17.3878 8.08672 17.6 8.08672H19.2001C19.4123 8.08672 19.6157 8.00242 19.7657 7.85242C19.9157 7.70242 20 7.49892 20 7.28672V5.68672C20 5.47452 19.9157 5.27102 19.7657 5.12102C19.6157 4.97102 19.4123 4.88672 19.2001 4.88672H17.6Z" stroke="url(#paint6_linear_297_233)"/>
<defs>
<linearGradient id="paint0_linear_297_233" x1="0.682006" y1="1.21648" x2="23.3621" y2="24.5905" gradientUnits="userSpaceOnUse">
<stop stop-color="#F9D423"/>
<stop offset="0.515624" stop-color="#FF4E50"/>
<stop offset="0.991304" stop-color="#8A2387"/>
</linearGradient>
<linearGradient id="paint1_linear_297_233" x1="3.76873" y1="4.91822" x2="5.00322" y2="11.2795" gradientUnits="userSpaceOnUse">
<stop stop-color="#F9D423"/>
<stop offset="0.515624" stop-color="#FF4E50"/>
<stop offset="0.991304" stop-color="#8A2387"/>
</linearGradient>
<linearGradient id="paint2_linear_297_233" x1="3.76875" y1="4.91822" x2="5.00324" y2="11.2795" gradientUnits="userSpaceOnUse">
<stop stop-color="#F9D423"/>
<stop offset="0.515624" stop-color="#FF4E50"/>
<stop offset="0.991304" stop-color="#8A2387"/>
</linearGradient>
<linearGradient id="paint3_linear_297_233" x1="3.76878" y1="4.91822" x2="5.00327" y2="11.2795" gradientUnits="userSpaceOnUse">
<stop stop-color="#F9D423"/>
<stop offset="0.515624" stop-color="#FF4E50"/>
<stop offset="0.991304" stop-color="#8A2387"/>
</linearGradient>
<linearGradient id="paint4_linear_297_233" x1="3.76873" y1="4.91822" x2="5.00322" y2="11.2795" gradientUnits="userSpaceOnUse">
<stop stop-color="#F9D423"/>
<stop offset="0.515624" stop-color="#FF4E50"/>
<stop offset="0.991304" stop-color="#8A2387"/>
</linearGradient>
<linearGradient id="paint5_linear_297_233" x1="3.76875" y1="4.91822" x2="5.00324" y2="11.2795" gradientUnits="userSpaceOnUse">
<stop stop-color="#F9D423"/>
<stop offset="0.515624" stop-color="#FF4E50"/>
<stop offset="0.991304" stop-color="#8A2387"/>
</linearGradient>
<linearGradient id="paint6_linear_297_233" x1="3.76878" y1="4.91822" x2="5.00327" y2="11.2795" gradientUnits="userSpaceOnUse">
<stop stop-color="#F9D423"/>
<stop offset="0.515624" stop-color="#FF4E50"/>
<stop offset="0.991304" stop-color="#8A2387"/>
</linearGradient>
</defs>
</svg>
