<svg width="64" height="64" viewBox="0 0 64 64" fill="none" xmlns="http://www.w3.org/2000/svg">
<path opacity="0.4" fill-rule="evenodd" clip-rule="evenodd" d="M49.2174 38H15.8261L15.8167 38.0156C14.7572 37.9645 13.6797 37.9877 13.0326 38.9066C11.8217 40.3658 10.617 41.8317 9.41189 43.298C7.90737 45.1287 6.40232 46.96 4.88419 48.7796C4.84911 48.8233 4.81337 48.8673 4.77738 48.9115C4.39406 49.3829 3.98226 49.8893 4.02809 50.5322C4.02501 51.0689 4.02054 51.6056 4.01606 52.1425C3.99817 54.2909 3.98026 56.4406 4.05123 58.5879C4.10522 59.7094 5.33152 60.2569 6.34573 60.1238C13.7846 60.1173 21.2241 60.1192 28.6638 60.121C38.5832 60.1235 48.5029 60.126 58.4213 60.1086C59.4817 60.2075 60.4304 59.2837 60.334 58.2344C60.3571 55.6759 60.3648 53.1173 60.3301 50.555C60.3726 49.9467 60.0101 49.4449 59.6437 49.0001C56.9134 45.7383 54.187 42.4688 51.4761 39.1918C51.4134 39.1232 51.3508 39.0513 51.2874 38.9783C50.9254 38.5621 50.5363 38.1146 49.949 38.0855C49.7139 38.0713 49.4785 38.0588 49.2427 38.0486L49.2174 38ZM8.23146 55.98L8.21989 53.6648C9.55161 53.6639 10.8833 53.6629 12.215 53.6619C26.8555 53.6512 41.4934 53.6404 56.1345 53.6648C56.1345 54.4365 56.1345 55.2082 56.1306 55.98H56.1264C40.1627 55.9838 24.1952 55.9876 8.23146 55.98Z" fill="url(#paint0_linear_54_90)"/>
<path d="M24.5591 6.64287C24.4434 5.37691 25.419 4.05773 26.7649 4.03492C30.1237 3.97029 33.4864 4.01591 36.8452 4.01211C38.1564 3.89806 39.4097 4.98914 39.3943 6.29692C39.4456 12.8838 39.4096 19.4707 39.4127 26.0608C39.4129 26.6075 39.8524 27.0526 40.3991 27.0557C42.9289 27.0704 45.4613 27.0227 47.9938 27.0731C49.6829 26.9971 50.593 29.2933 49.3782 30.411C44.1491 36.1896 38.8852 41.9339 33.6407 47.7011C32.8501 48.7732 31.1186 48.7731 30.3281 47.6973C25.0874 41.9339 19.8235 36.1896 14.5982 30.4148C13.3835 29.2971 14.2859 27.0009 15.9788 27.0731C18.5117 27.0226 21.0447 27.0734 23.5776 27.0541C24.1241 27.05 24.5624 26.6039 24.5618 26.0574C24.5548 19.585 24.5516 13.1157 24.5591 6.64287Z" fill="url(#paint1_linear_54_90)"/>
<defs>
<linearGradient id="paint0_linear_54_90" x1="3.99909" y1="49.0717" x2="60.3538" y2="49.0717" gradientUnits="userSpaceOnUse">
<stop stop-color="#FF823B"/>
<stop offset="0.986957" stop-color="#FF005B"/>
</linearGradient>
<linearGradient id="paint1_linear_54_90" x1="14.0384" y1="26.2523" x2="49.9358" y2="26.2523" gradientUnits="userSpaceOnUse">
<stop stop-color="#FF823B"/>
<stop offset="0.986957" stop-color="#FF005B"/>
</linearGradient>
</defs>
</svg>
