<svg width="64" height="64" viewBox="0 0 64 64" fill="none" xmlns="http://www.w3.org/2000/svg">
<path opacity="0.4" d="M32 60C48.0163 60 61 47.2401 61 31.5C61 15.7599 48.0163 3 32 3C15.9837 3 3 15.7599 3 31.5C3 47.2401 15.9837 60 32 60Z" fill="url(#paint0_linear_231_226)"/>
<path d="M37.3093 49.7369C29.8155 52.7978 20.6437 50.0748 15.8513 43.5293C12.4209 39.0393 11.1871 32.9632 12.5347 27.4601C13.7189 22.3647 17.1178 17.8669 21.6459 15.3539C27.3103 12.1322 34.629 12.2215 40.2102 15.5977C45.4291 18.6634 48.9434 24.3844 49.4103 30.4667L49.4927 30.4657C50.3416 30.4557 51.2566 30.4449 52.1406 30.536L52.1934 30.5414L52.2452 30.553C53.0556 30.7328 53.6087 31.3389 53.8506 31.994C54.0878 32.6364 54.0668 33.4339 53.6108 34.093C51.812 37.1183 49.9884 40.1263 48.1442 43.1211C47.7155 43.9794 46.8482 44.3416 46.0731 44.3174C45.308 44.2936 44.4769 43.8901 44.0813 43.0509C42.2462 40.0697 40.4321 37.072 38.639 34.0661C37.7809 32.791 38.4709 31.0419 39.8487 30.5897L39.9357 30.5611L40.0267 30.5504C40.929 30.4436 41.8609 30.453 42.725 30.4657C42.3008 27.3177 40.7044 24.345 38.2541 22.4005L38.2475 22.3953L38.2411 22.39C35.2726 19.9451 31.1141 19.0893 27.4513 20.1778L27.4424 20.1805L27.4334 20.1829C22.1474 21.6383 18.2436 27.1373 18.6903 32.7094L18.6918 32.7282L18.6926 32.747C18.9202 38.5981 23.8794 43.7681 29.6008 44.1924L29.6375 44.1952L29.6737 44.2008C30.6201 44.3479 31.5763 44.263 32.5933 44.0785C33.0994 43.9867 33.6062 43.8731 34.1339 43.7549L34.1441 43.7525C34.6691 43.6349 35.2152 43.5127 35.7654 43.4142L35.8455 43.3998H35.9268C37.6413 43.3998 38.696 44.7226 38.9878 46.0216C39.2792 47.3186 38.8949 48.9653 37.3647 49.7121L37.3374 49.7254L37.3093 49.7369Z" fill="url(#paint1_linear_231_226)"/>
<defs>
<linearGradient id="paint0_linear_231_226" x1="32" y1="60" x2="32" y2="3" gradientUnits="userSpaceOnUse">
<stop stop-color="#5570FF"/>
<stop offset="1" stop-color="#4DD3FF"/>
</linearGradient>
<linearGradient id="paint1_linear_231_226" x1="33" y1="50.9908" x2="33" y2="13" gradientUnits="userSpaceOnUse">
<stop stop-color="#5570FF"/>
<stop offset="1" stop-color="#4DD3FF"/>
</linearGradient>
</defs>
</svg>
