<svg width="64" height="64" viewBox="0 0 64 64" fill="none" xmlns="http://www.w3.org/2000/svg">
<path opacity="0.4" fill-rule="evenodd" clip-rule="evenodd" d="M55.4 61C58.4928 61 61 58.4928 61 55.4V8.6C61 5.50721 58.4928 3 55.4 3H8.6C5.50721 3 3 5.50721 3 8.6V55.4C3 58.4928 5.50721 61 8.6 61H55.4Z" fill="url(#paint0_linear_49_88)"/>
<path d="M15.5789 12H25.4211C27.3977 12 29 13.6023 29 15.5789V42.4211C29 44.3977 27.3977 46 25.4211 46H15.5789C13.6023 46 12 44.3977 12 42.4211V15.5789C12 13.6023 13.6023 12 15.5789 12Z" fill="url(#paint1_linear_49_88)"/>
<path d="M47.8 12H38.2C36.4327 12 35 13.4327 35 15.2V24.8C35 26.5673 36.4327 28 38.2 28H47.8C49.5673 28 51 26.5673 51 24.8V15.2C51 13.4327 49.5673 12 47.8 12Z" fill="url(#paint2_linear_49_88)"/>
<defs>
<linearGradient id="paint0_linear_49_88" x1="32" y1="61" x2="32" y2="3" gradientUnits="userSpaceOnUse">
<stop stop-color="#5570FF"/>
<stop offset="1" stop-color="#4DD3FF"/>
</linearGradient>
<linearGradient id="paint1_linear_49_88" x1="32" y1="61" x2="32" y2="3" gradientUnits="userSpaceOnUse">
<stop stop-color="#5570FF"/>
<stop offset="1" stop-color="#4DD3FF"/>
</linearGradient>
<linearGradient id="paint2_linear_49_88" x1="32" y1="61" x2="32" y2="3" gradientUnits="userSpaceOnUse">
<stop stop-color="#5570FF"/>
<stop offset="1" stop-color="#4DD3FF"/>
</linearGradient>
</defs>
</svg>
