<svg width="64" height="64" viewBox="0 0 64 64" fill="none" xmlns="http://www.w3.org/2000/svg">
<rect opacity="0.4" x="4" y="4" width="56" height="56" rx="12" fill="url(#paint0_linear_60_403)"/>
<path fill-rule="evenodd" clip-rule="evenodd" d="M44.1303 48.0251C43.9405 47.4501 43.2805 47.1647 42.6986 47.3326C41.8045 47.5906 40.7107 47.778 39.8237 47.8007C35.906 47.9078 35.1456 44.9889 35.114 42.8729V28.3077C35.114 27.7554 35.5617 27.3077 36.114 27.3077H43.9414C44.4937 27.3077 44.9414 26.86 44.9414 26.3077V20.7369C44.9414 20.1846 44.4937 19.7369 43.9414 19.7369H36.148C35.5957 19.7369 35.148 19.2892 35.148 18.7369V8C35.148 7.44771 34.703 7 34.1507 7C32.2019 7 28.0693 7 27.9816 7C27.8635 7 27.6576 7.10553 27.6285 7.37328C27.2217 11.1552 25.5295 17.7078 18.6493 20.5934C18.2629 20.7554 18 21.1272 18 21.5461V26.3073C18 26.8596 18.4477 27.3073 19 27.3073H21.9528C22.505 27.3073 22.9528 27.755 22.9528 28.3073V43.6436C22.9528 49.2374 26.991 57.1843 37.6514 56.9967C40.9202 56.9395 44.5175 55.664 45.8086 54.4349C46.0309 54.2233 46.0688 53.8973 45.9726 53.6058L44.1303 48.0251Z" fill="url(#paint1_linear_60_403)"/>
<defs>
<linearGradient id="paint0_linear_60_403" x1="32.0002" y1="59.4652" x2="32.0002" y2="4.53514" gradientUnits="userSpaceOnUse">
<stop stop-color="#A93AFF"/>
<stop offset="1" stop-color="#FF81FF"/>
</linearGradient>
<linearGradient id="paint1_linear_60_403" x1="41.4375" y1="57" x2="32.5834" y2="13.25" gradientUnits="userSpaceOnUse">
<stop stop-color="#A93AFF"/>
<stop offset="1" stop-color="#FF81FF"/>
</linearGradient>
</defs>
</svg>
