<svg width="64" height="64" viewBox="0 0 64 64" fill="none" xmlns="http://www.w3.org/2000/svg">
<path opacity="0.4" d="M54.1849 15.2108C53.0647 15.7075 51.8977 16.1138 50.6912 16.4222C50.0344 16.59 49.627 15.6237 50.0981 15.1362C50.8894 14.3168 51.5563 13.3764 52.0673 12.3452C52.324 11.8272 51.7523 11.346 51.2344 11.6033C49.5854 12.423 47.8209 13.0453 45.9721 13.4395C45.7602 13.4846 45.5419 13.4124 45.3888 13.2593C43.377 11.2459 40.5904 10 37.5191 10C31.3817 10 26.4056 14.9757 26.4056 21.1129C26.4056 21.6955 26.4496 22.2681 26.5355 22.8267C26.599 23.2396 26.2776 23.6245 25.861 23.5928C17.286 22.9377 9.6704 18.8639 4.37079 12.7293C4.08379 12.3971 3.55222 12.44 3.36298 12.8362C2.67047 14.2854 2.28288 15.9079 2.28288 17.6212C2.28288 20.6876 3.52378 23.4669 5.532 25.4787C5.97853 25.926 5.66748 26.7297 5.05198 26.5857C4.0852 26.3595 3.16668 26.0071 2.31558 25.5482C2.25994 25.5182 2.19204 25.5576 2.19204 25.6208C2.19204 30.0706 4.80821 33.9105 8.58574 35.6858C9.18615 35.9679 9.14355 36.8858 8.48059 36.9034C8.38031 36.9061 8.27988 36.9075 8.17913 36.9075C7.82659 36.9075 7.47892 36.8905 7.1358 36.858C6.66082 36.8129 6.27071 37.2611 6.45917 37.6993C7.9113 41.077 10.9921 43.5901 14.711 44.2543C15.2935 44.3582 15.5291 45.1337 15.036 45.4608C11.4922 47.8132 7.23985 49.1833 2.66749 49.1833C2.0182 49.1833 1.73654 50.0638 2.31039 50.3675C6.71426 52.6974 11.728 54.0218 17.0556 54.0218C37.4967 54.0218 48.6747 37.0879 48.6747 22.4023C48.6747 22.0347 48.6684 21.6686 48.6558 21.304C48.6486 21.0921 48.7464 20.8905 48.9163 20.7638C50.9723 19.2318 52.7611 17.3462 54.1879 15.2118" fill="url(#paint0_linear_81_261)"/>
<path d="M61.9969 16.0674C60.8767 16.564 59.7097 16.9703 58.5033 17.2787C57.8464 17.4466 57.439 16.4803 57.9101 15.9927C58.7015 15.1734 59.3683 14.233 59.8793 13.2018C60.136 12.6837 59.5643 12.2026 59.0464 12.4599C57.3974 13.2796 55.6329 13.9018 53.7841 14.296C53.5722 14.3411 53.3539 14.269 53.2008 14.1159C51.189 12.1025 48.4024 10.8566 45.3311 10.8566C39.1937 10.8566 34.2176 15.8322 34.2176 21.9694C34.2176 22.5521 34.2616 23.1247 34.3476 23.6833C34.4111 24.0962 34.0896 24.4811 33.673 24.4493C25.098 23.7942 17.4824 19.7204 12.1828 13.5859C11.8958 13.2536 11.3642 13.2965 11.175 13.6928C10.4825 15.1419 10.0949 16.7644 10.0949 18.4778C10.0949 21.5441 11.3358 24.3234 13.344 26.3353C13.7905 26.7826 13.4795 27.5862 12.864 27.4423C11.8972 27.2161 10.9787 26.8637 10.1276 26.4047C10.0719 26.3747 10.004 26.4142 10.004 26.4774C10.004 30.9271 12.6202 34.7671 16.3978 36.5424C16.9982 36.8245 16.9556 37.7424 16.2926 37.76C16.1923 37.7626 16.0919 37.7641 15.9911 37.7641C15.6386 37.7641 15.2909 37.7471 14.9478 37.7146C14.4728 37.6694 14.0827 38.1177 14.2712 38.5559C15.7233 41.9336 18.8041 44.4467 22.523 45.1109C23.1055 45.2148 23.3411 45.9903 22.848 46.3173C19.3042 48.6698 15.0519 50.0399 10.4795 50.0399C9.83021 50.0399 9.54856 50.9204 10.1224 51.224C14.5263 53.554 19.54 54.8783 24.8676 54.8783C45.3088 54.8783 56.4867 37.9445 56.4867 23.2589C56.4867 22.8913 56.4804 22.5252 56.4678 22.1606C56.4606 21.9487 56.5584 21.747 56.7283 21.6204C58.7843 20.0884 60.5731 18.2027 61.9999 16.0683" fill="url(#paint1_linear_81_261)"/>
<defs>
<linearGradient id="paint0_linear_81_261" x1="27.1022" y1="54.0218" x2="27.1022" y2="10" gradientUnits="userSpaceOnUse">
<stop stop-color="#5570FF"/>
<stop offset="1" stop-color="#4DD3FF"/>
</linearGradient>
<linearGradient id="paint1_linear_81_261" x1="34.9142" y1="54.8783" x2="34.9142" y2="10.8566" gradientUnits="userSpaceOnUse">
<stop stop-color="#5570FF"/>
<stop offset="1" stop-color="#4DD3FF"/>
</linearGradient>
</defs>
</svg>
