<svg width="128" height="128" viewBox="0 0 128 128" fill="none" xmlns="http://www.w3.org/2000/svg">
<path opacity="0.4" d="M64 8C33.2415 8 8 33.2415 8 64C8 94.7585 33.2415 120 64 120C94.7585 120 120 94.7585 120 64C120 33.2415 94.7585 8 64 8Z" fill="url(#paint0_linear_36_109)"/>
<path d="M104.995 38.8877C102.53 39.9809 99.9152 40.7846 97.1846 41.2639C96.7597 41.3385 96.5388 40.7489 96.882 40.4877C99.3222 38.6303 101.243 36.1231 102.377 33.2222C102.511 32.8795 102.138 32.5751 101.816 32.7529C98.8719 34.3774 95.6605 35.5767 92.2646 36.2687C92.1295 36.2962 91.9903 36.2509 91.8947 36.1517C88.8346 32.9763 84.5273 31 79.7682 31C70.478 31 62.9456 38.5317 62.9456 47.8217C62.9456 48.9561 63.056 50.065 63.2694 51.1366C63.3213 51.3973 63.1161 51.6419 62.8507 51.6257C49.2914 50.7961 37.2624 44.3242 29.0757 34.5246C28.8966 34.3102 28.5583 34.3369 28.426 34.583C27.1529 36.9512 26.4308 39.6591 26.4308 42.5364C26.4308 47.8709 28.912 52.6314 32.7857 55.714C33.1003 55.9644 32.92 56.482 32.5206 56.436C30.356 56.1868 28.3146 55.5246 26.4802 54.5355C26.396 54.4901 26.2932 54.5497 26.2932 54.6454V54.6454C26.2932 62.2059 31.2826 68.6033 38.1471 70.7233C38.5503 70.8479 38.5509 71.4325 38.1346 71.5017C37.2307 71.6519 36.3024 71.7302 35.356 71.7302C34.5041 71.7302 33.6709 71.6651 32.8548 71.5419C32.5547 71.4966 32.3051 71.7804 32.4093 72.0655C34.608 78.0821 40.1491 82.4907 46.7811 83.0531C47.1561 83.0849 47.3121 83.5679 47.0083 83.7902C41.4029 87.8914 34.4907 90.3122 27.0129 90.3122C26.2457 90.3122 25.4843 90.2869 24.7297 90.2368C24.3061 90.2086 24.1136 90.7725 24.479 90.9886C31.6087 95.2058 39.9124 97.6363 48.7923 97.6363C79.7344 97.6363 96.6546 72.0033 96.6546 49.7736C96.6546 49.117 96.6413 48.4634 96.615 47.8132C96.6096 47.6785 96.6718 47.5499 96.7806 47.4703C99.9936 45.1203 102.785 42.2028 105 38.8891" fill="url(#paint1_linear_36_109)"/>
<defs>
<linearGradient id="paint0_linear_36_109" x1="64" y1="120" x2="64" y2="8" gradientUnits="userSpaceOnUse">
<stop stop-color="#5570FF"/>
<stop offset="1" stop-color="#4DD3FF"/>
</linearGradient>
<linearGradient id="paint1_linear_36_109" x1="64" y1="97.6363" x2="64" y2="31" gradientUnits="userSpaceOnUse">
<stop stop-color="#5570FF"/>
<stop offset="1" stop-color="#4DD3FF"/>
</linearGradient>
</defs>
</svg>
