<svg width="128" height="128" viewBox="0 0 128 128" fill="none" xmlns="http://www.w3.org/2000/svg">
<path d="M45.9912 101.582L45.9875 101.581C37.2473 95.3826 30.9623 86.3346 28.1936 76.0166C27.9467 75.0966 28.2631 74.1346 28.8847 73.4133C29.8288 72.3166 30.6037 71.0813 31.1807 69.748C31.9621 67.9426 32.3642 65.9957 32.3619 64.0285C32.3619 60.4384 31.0492 57.155 28.8761 54.6345C28.2528 53.9114 27.9369 52.947 28.1864 52.0256C29.2309 48.1688 30.7733 44.4622 32.7765 40.9998C35.5926 36.1066 39.2833 31.7826 43.6567 28.2386C44.8773 27.2495 46.668 27.6442 47.4537 29.0047L50.6045 34.4608C51.2767 35.6247 50.9696 37.0987 49.9564 37.9818C46.5403 40.9594 43.7375 44.5853 41.7149 48.6576C39.343 53.4332 38.1087 58.6932 38.1087 64.0256C38.1087 69.358 39.343 74.618 41.7149 79.394C43.7377 83.466 46.5407 87.092 49.9571 90.07C50.97 90.9526 51.2773 92.426 50.6058 93.59L45.9967 101.579C45.9955 101.581 45.9935 101.582 45.9912 101.582ZM54.9386 24.6938C54.1527 23.3328 54.7066 21.5841 56.174 21.0214C65.2113 17.5554 75.1253 17.0184 84.5033 19.5073C85.4267 19.7524 86.1047 20.5098 86.4187 21.4123C86.8953 22.7802 87.5767 24.0712 88.442 25.24C89.6147 26.8237 91.1 28.1494 92.8073 29.1347C94.514 30.12 96.4047 30.744 98.3627 30.9677C99.808 31.1329 101.267 31.0774 102.689 30.806C103.627 30.6268 104.622 30.8348 105.296 31.5118C112.143 38.3884 116.637 47.2433 118.156 56.804C118.403 58.3562 117.165 59.7106 115.593 59.7106H109.288C107.943 59.7106 106.821 58.7068 106.563 57.3871C105.695 52.9406 103.958 48.7008 101.443 44.9142C98.4927 40.473 94.5533 36.7762 89.9333 34.1143C85.3187 31.4438 80.1473 29.8799 74.826 29.5452C70.2887 29.2599 65.7481 29.8748 61.4631 31.3462C60.1914 31.7828 58.7607 31.3121 58.0883 30.1478L54.9386 24.6938ZM96.3573 22.8096C95.3673 22.2466 94.4987 21.4935 93.8007 20.5934C93.1027 19.6934 92.5893 18.6641 92.292 17.565C91.9933 16.4659 91.9153 15.3187 92.062 14.1892C92.2087 13.0599 92.5773 11.9707 93.1467 10.9844C93.716 9.99809 94.4753 9.13423 95.38 8.44243C96.2847 7.75063 97.3173 7.24456 98.4187 6.95349C99.5193 6.66237 100.667 6.59197 101.796 6.74623C102.924 6.90049 104.011 7.27649 104.993 7.85249C106.96 9.00576 108.392 10.8904 108.975 13.095C109.557 15.2997 109.244 17.6454 108.104 19.6204C106.965 21.5952 105.089 23.0389 102.888 23.6364C100.687 24.2339 98.34 23.9367 96.3573 22.8096ZM25.2715 64.0285C25.2715 66.3188 24.3616 68.5153 22.7421 70.1346C21.1226 71.7546 18.9261 72.6646 16.6357 72.6646C14.3454 72.6646 12.1489 71.7546 10.5293 70.1346C8.9098 68.5153 8 66.3188 8 64.0285C8 61.7382 8.9098 59.5416 10.5293 57.922C12.1489 56.3026 14.3454 55.3927 16.6357 55.3927C18.9261 55.3927 21.1226 56.3026 22.7421 57.922C24.3616 59.5416 25.2715 61.7382 25.2715 64.0285Z" fill="url(#paint0_linear_107_139)" stroke="url(#paint1_linear_107_139)" stroke-width="6"/>
<path opacity="0.4" d="M74.7659 97.5113C70.3593 97.788 65.9491 97.1907 61.7864 95.7633C60.1024 95.186 58.1545 95.7947 57.2229 97.408L52.6217 105.375C52.5626 105.471 52.5195 105.577 52.4952 105.689C52.3956 106.149 52.6297 106.615 53.056 106.811C63.0059 111.383 74.2253 112.325 84.7713 109.506C86.0833 109.155 86.9713 108.104 87.3679 106.967C87.8113 105.696 88.4459 104.496 89.2519 103.41C90.3426 101.939 91.7246 100.709 93.3113 99.7947L93.3126 99.7933C94.8986 98.876 96.6579 98.294 98.4779 98.0847C99.8219 97.9307 101.178 97.9814 102.501 98.2334C103.687 98.4594 105.045 98.2147 106.005 97.2487C108.883 94.3553 111.374 91.098 113.413 87.5573C116.305 82.566 118.247 77.09 119.15 71.4093C119.5 69.206 117.741 67.3467 115.6 67.3467H109.298C107.435 67.3467 105.933 68.7287 105.591 70.476C104.745 74.794 103.057 78.912 100.614 82.5893C97.7493 86.9027 93.9253 90.4953 89.4406 93.0833C84.9566 95.672 79.9339 97.1873 74.7659 97.5113Z" fill="url(#paint2_linear_107_139)"/>
<path opacity="0.4" d="M95.8513 104.385C96.948 103.742 98.16 103.323 99.4193 103.151L95.8513 104.385ZM95.8513 104.385C93.656 105.671 92.06 107.775 91.4093 110.234V110.235C90.7593 112.695 91.108 115.311 92.38 117.515C93.6526 119.719 95.744 121.33 98.2 121.997C100.656 122.663 103.275 122.332 105.487 121.074C106.593 120.446 107.561 119.605 108.34 118.601H108.341C109.119 117.597 109.691 116.448 110.024 115.222C110.357 113.995 110.444 112.716 110.28 111.455C110.117 110.195 109.705 108.98 109.069 107.879C108.434 106.779 107.587 105.815 106.579 105.043C105.569 104.271 104.416 103.707 103.189 103.382H103.188M95.8513 104.385L103.188 103.382ZM103.188 103.382C101.959 103.057 100.679 102.978 99.42 103.151L103.188 103.382Z" fill="url(#paint3_linear_107_139)"/>
<path fill-rule="evenodd" clip-rule="evenodd" d="M89.3502 47.2963C89.3832 41.8723 82.5702 38.0923 77.8762 41.0173C72.5232 43.6913 72.8472 52.2383 78.4332 54.4743C83.3402 57.1253 89.8632 52.6983 89.3502 47.2963ZM67.0151 52.3923C68.7991 46.7043 62.2761 40.9843 56.7341 43.4503C51.6261 45.2033 50.2211 52.5123 54.2581 56.0193C58.1501 59.9203 65.9441 57.8713 67.0151 52.3923ZM71.0511 59.6133C74.2961 57.8823 78.4221 61.3553 77.1731 64.7633C76.4041 68.4123 70.5721 69.0043 69.0781 65.5853C67.8181 63.5143 68.8881 60.6323 71.0511 59.6133ZM99.0291 68.1383C100.367 62.3193 93.2971 57.1143 88.0011 60.0623C83.2171 62.2103 82.2691 69.2783 86.3621 72.5433C90.5211 76.5323 98.3041 73.7813 99.0291 68.1383ZM53.4781 64.2923C58.5511 62.6153 64.1491 67.3603 63.2791 72.5323C62.7661 77.9563 55.6071 81.2443 51.2031 77.7703C45.9621 74.5163 47.4561 65.7163 53.4781 64.2923ZM83.2732 81.2993C83.2282 76.0613 76.8502 72.3463 72.1662 74.8883C66.8252 77.2113 66.4682 85.3753 71.5642 88.1693C76.4822 91.5443 83.8532 87.0843 83.2732 81.2993Z" fill="url(#paint4_linear_107_139)"/>
<defs>
<linearGradient id="paint0_linear_107_139" x1="63.0937" y1="101.582" x2="63.0937" y2="6.66663" gradientUnits="userSpaceOnUse">
<stop stop-color="#A93AFF"/>
<stop offset="1" stop-color="#FF81FF"/>
</linearGradient>
<linearGradient id="paint1_linear_107_139" x1="63.0937" y1="101.582" x2="63.0937" y2="6.66663" gradientUnits="userSpaceOnUse">
<stop stop-color="#A93AFF"/>
<stop offset="1" stop-color="#FF81FF"/>
</linearGradient>
<linearGradient id="paint2_linear_107_139" x1="85.8335" y1="111.098" x2="85.8335" y2="67.3467" gradientUnits="userSpaceOnUse">
<stop stop-color="#A93AFF"/>
<stop offset="1" stop-color="#FF81FF"/>
</linearGradient>
<linearGradient id="paint3_linear_107_139" x1="100.725" y1="122.333" x2="100.725" y2="103.062" gradientUnits="userSpaceOnUse">
<stop stop-color="#A93AFF"/>
<stop offset="1" stop-color="#FF81FF"/>
</linearGradient>
<linearGradient id="paint4_linear_107_139" x1="48.0075" y1="63.9367" x2="99.2028" y2="63.9367" gradientUnits="userSpaceOnUse">
<stop stop-color="#A93AFF"/>
<stop offset="1" stop-color="#FF81FF"/>
</linearGradient>
</defs>
</svg>
