<svg width="64" height="64" viewBox="0 0 64 64" fill="none" xmlns="http://www.w3.org/2000/svg">
<rect opacity="0.4" x="2" y="2.30322" width="60" height="59.3939" rx="4" fill="url(#paint0_linear_332_77)"/>
<path opacity="0.4" d="M33.2962 43.3315C45.75 48.274 49.9167 46.9662 62 43.7309V57.6969C62 59.9061 60.2091 61.6969 58 61.6969H6C3.79086 61.6969 2 59.9061 2 57.6969V41.3905C13.875 37.4669 21.8841 37.6353 33.2962 43.3315Z" fill="url(#paint1_linear_332_77)"/>
<path d="M30.7038 42.925C18.25 47.977 14.0833 46.6402 2 43.3333V57.6972C2 59.9063 3.79086 61.6972 6 61.6972H58C60.2091 61.6972 62 59.9063 62 57.6972V40.9411C50.125 36.9305 42.1159 37.1027 30.7038 42.925Z" fill="url(#paint2_linear_332_77)"/>
<path d="M42.2426 10.4379C43.8487 10.4379 45.5355 11.4242 45.5355 13.6302C45.0337 17.205 43.6117 20.5322 41.4372 23.1289C38.6838 26.417 34.9493 28.2642 31.0554 28.2642C27.1614 28.2642 23.427 26.417 20.6735 23.1289C18.4991 20.5322 17.0771 17.205 16.5753 13.6303C16.2863 11.5718 18.262 10.4379 19.8682 10.4379C21.8008 10.2021 22.6147 11.5179 23.1114 13.6137C23.5201 15.3386 23.8674 16.683 24.7864 18.2174C26.4491 20.2029 28.7041 21.3183 31.0554 21.3183C33.4067 21.3183 35.6617 20.2029 37.3244 18.2174C38.4047 16.9273 38.5907 15.3386 38.9994 13.6136C39.2813 11.202 40.6364 10.4379 42.2426 10.4379Z" fill="url(#paint3_linear_332_77)"/>
<defs>
<linearGradient id="paint0_linear_332_77" x1="54.752" y1="44.3507" x2="3.00694" y2="2.06559" gradientUnits="userSpaceOnUse">
<stop offset="0.133091" stop-color="#D2268F"/>
<stop offset="1" stop-color="#FBB62B"/>
</linearGradient>
<linearGradient id="paint1_linear_332_77" x1="3.40725" y1="61.6969" x2="15.9344" y2="25.864" gradientUnits="userSpaceOnUse">
<stop offset="0.133091" stop-color="#D2268F"/>
<stop offset="1" stop-color="#FBB62B"/>
</linearGradient>
<linearGradient id="paint2_linear_332_77" x1="57.2601" y1="56.363" x2="38.053" y2="17.1116" gradientUnits="userSpaceOnUse">
<stop offset="0.140012" stop-color="#D2268F"/>
<stop offset="1" stop-color="#FBB62B"/>
</linearGradient>
<linearGradient id="paint3_linear_332_77" x1="44.8556" y1="28.2642" x2="31.5163" y2="4.52872" gradientUnits="userSpaceOnUse">
<stop offset="0.133091" stop-color="#D2268F"/>
<stop offset="1" stop-color="#FBB62B"/>
</linearGradient>
</defs>
</svg>
