<svg width="64" height="64" viewBox="0 0 64 64" fill="none" xmlns="http://www.w3.org/2000/svg">
<path opacity="0.4" d="M32 4C28.323 4 24.682 4.72424 21.2849 6.13137C17.8877 7.5385 14.8011 9.60097 12.201 12.201C6.94999 17.452 4 24.5739 4 32C4 39.4261 6.94999 46.548 12.201 51.799C14.8011 54.399 17.8877 56.4615 21.2849 57.8686C24.682 59.2758 28.323 60 32 60C39.4261 60 46.548 57.05 51.799 51.799C57.05 46.548 60 39.4261 60 32C60 28.323 59.2758 24.682 57.8686 21.2849C56.4615 17.8877 54.399 14.8011 51.799 12.201C49.1989 9.60097 46.1123 7.5385 42.7151 6.13137C39.318 4.72424 35.677 4 32 4Z" fill="url(#paint0_linear_231_229)"/>
<path d="M31.8064 51.6647C26.9045 51.0259 22.215 49.1606 19.3936 46.7275C18.7615 46.1824 17.6301 45.0231 17.2523 44.5381C17.147 44.4029 17.2227 44.3348 17.3872 44.3829C17.8936 44.531 18.6947 44.8337 19.4793 44.8548C20.3118 44.8773 20.9203 44.4321 21.3668 43.8017C21.4728 43.652 21.5207 43.4702 21.5207 43.2867V35.6833C21.5207 26.9887 21.5587 27.5595 20.9439 27.0227C20.1971 26.3706 18.7306 26.5738 17.2431 27.5701C14.9741 29.0898 11.6356 31.9849 9.71556 35.4886C9.37459 36.1108 9.06676 36.647 9.03149 36.6801C8.99622 36.7132 8.98955 36.0375 9.01671 35.1785C10.0487 26.3941 19.0576 18.565 26.1529 15.3318C27.0503 14.9479 30.253 14 30.4446 14C30.4754 14 29.1345 14.7827 28.8206 15.012C26.939 16.3863 26.2883 16.8136 26.0151 18.4874C25.8131 19.7257 26.0933 20.4905 26.6388 21.1018C26.896 21.39 27.0054 21.4612 27.3194 21.5C27.3855 21.5082 27.4524 21.5072 27.5187 21.5007C27.6427 21.4887 27.7626 21.4787 27.8808 21.4698C28.4644 21.4261 28.9656 21.8961 28.9656 22.4815V42.0996C28.9656 43.5785 30.4446 43.5785 31.9117 43.6718C33.2483 43.5881 34.5754 42.9198 35.8998 42.0923C36.1871 41.9129 36.358 41.5959 36.3581 41.2572L36.3603 32.7863L36.3626 24.7585C36.3626 24.5961 36.3231 24.4361 36.2475 24.2924L35.7606 23.3675C35.612 23.1135 35.4134 22.9097 35.1853 22.7376C34.4292 22.1676 34.5803 21.4903 35.5183 21.6195C36.157 21.7074 36.7771 21.8222 37.3052 21.9663C37.6409 22.0579 38.0059 22.0036 38.2758 21.7838C41.2813 19.3366 44.1394 16.3632 47.3845 14.8144C48.1907 14.4296 48.8455 15.2988 48.3588 16.0479C46.9192 18.2634 45.454 20.4215 43.9333 22.6168C43.8172 22.7843 43.755 22.9832 43.755 23.1869V40.4059C43.755 40.6401 43.845 40.8651 44.0572 40.9641C44.4397 41.1426 45.0624 41.3127 45.4614 41.3686C45.5377 41.3793 45.6159 41.3767 45.692 41.365C48.739 40.8989 50.3557 39.2956 52.3024 37.5407C52.6915 37.1899 52.8815 37.3101 52.6767 37.7923C52.2186 38.8711 51.3766 40.6663 50.8397 41.4711C48.4444 45.0613 44.6266 47.9364 41.4381 49.9638C40.8401 50.344 40.8334 50.3458 40.6253 50.1823C39.3582 49.194 38.5115 48.5375 37.0024 47.6468C36.6234 47.4231 36.1406 47.4828 35.8306 47.7952C34.5638 49.0716 33.854 50.0528 32.447 51.4498C32.2788 51.6169 32.0415 51.6954 31.8064 51.6647V51.6647Z" fill="url(#paint1_linear_231_229)"/>
<defs>
<linearGradient id="paint0_linear_231_229" x1="32" y1="60" x2="32" y2="4" gradientUnits="userSpaceOnUse">
<stop stop-color="#FD5900"/>
<stop offset="1" stop-color="#FFDE00"/>
</linearGradient>
<linearGradient id="paint1_linear_231_229" x1="31" y1="51.7132" x2="31" y2="14" gradientUnits="userSpaceOnUse">
<stop stop-color="#FD5900"/>
<stop offset="1" stop-color="#FFDE00"/>
</linearGradient>
</defs>
</svg>
