<svg width="128" height="128" viewBox="0 0 128 128" fill="none" xmlns="http://www.w3.org/2000/svg">
<path opacity="0.4" d="M68.1348 7.35397C68.0795 6.85414 68.241 7.17124 68.2008 7.39444C68.5107 7.58949 68.7976 7.84066 69.0488 8.15364C83.1576 21.8903 103.519 41.0478 117.602 54.8106C123.337 60.3298 123.503 70.2055 117.865 75.8554L117.859 75.8608C103.557 89.8383 89.2477 103.809 74.9188 117.755C69.1344 123.42 59.0048 123.388 53.1737 117.823L53.17 117.819C38.9209 103.99 24.7046 90.1232 10.5019 76.2499C4.6083 70.7126 4.50524 60.7529 10.1698 55.0373L10.1752 55.0318C18.4747 46.8645 26.8199 38.7396 35.164 30.6158L35.1681 30.6118C44.8523 21.1834 54.6824 12.4233 61.2358 7.13313C63.309 5.45956 65.3924 5.8574 67.0119 6.92587C67.4023 7.00346 67.7826 7.14347 68.1348 7.35397Z" fill="url(#paint0_linear_67_100)"/>
<path d="M59.7702 20.5641L59.7702 20.5932C59.7653 23.5306 59.7657 26.4682 59.7661 29.4059V29.4173C59.7673 38.2251 59.7685 47.0342 59.6265 55.8452C59.6385 56.2097 59.6577 56.5912 59.6775 56.9838L59.6776 56.9853C59.7364 58.1518 59.8 59.4159 59.6951 60.6196C59.5521 62.2579 59.0937 63.9001 57.8351 65.2366C56.226 67.0714 53.8848 67.5203 51.7344 67.5315C55.7311 73.494 59.9979 79.2895 64.2828 85.0525C66.0895 82.5209 67.9026 80.0012 69.7151 77.4826C72.1049 74.1619 74.4935 70.843 76.8639 67.5017C76.3409 67.5047 75.7993 67.5004 75.2794 67.4576C74.321 67.3789 73.3307 67.1675 72.4179 66.6008C70.01 65.3009 68.5811 62.5722 68.7579 59.8466C68.7654 54.2047 68.7635 48.5608 68.7617 42.9165V41.9208V41.3673C68.7585 33.5839 68.7554 25.8003 68.7773 18.0216C68.603 16.1871 69.7963 14.814 71.2152 14.2535C73.6756 13.0242 76.7108 16.5888 77.8186 18.0216L77.8292 30.5843C77.8248 34.5929 77.8261 38.6046 77.8267 42.6175V43.4425C77.8273 48.3963 77.8279 53.3516 77.8186 58.3042C78.6527 58.3424 79.4942 58.3187 80.3608 58.2944L80.3621 58.2943C80.7413 58.2837 81.1262 58.2728 81.5173 58.267C82.9787 58.2452 84.4957 58.2962 85.9814 58.7441L85.9908 58.7468L85.9995 58.7497C87.6377 59.2974 88.7729 60.6862 89.2453 62.2346C89.7164 63.7806 89.5521 65.5678 88.4874 66.9516C87.2885 68.6264 86.0895 70.3021 84.8905 71.978C79.7523 79.1614 74.6115 86.3477 69.3983 93.4772C68.1325 95.2403 66.0763 96.0507 64.0763 95.9975C62.0805 95.9438 60.0677 95.0279 58.8744 93.2479C52.6003 84.569 46.3388 75.8694 40.1227 67.1433C39.0023 65.7537 38.7681 63.9138 39.2094 62.3131C39.653 60.7044 40.8032 59.2554 42.5425 58.7187L42.5533 58.7154L42.5643 58.7124C44.0311 58.3175 45.5202 58.2552 46.9659 58.2695C47.4675 58.2744 47.9571 58.2881 48.4396 58.3017L48.4413 58.3018C49.1746 58.3223 49.8914 58.3424 50.6088 58.3305C50.5901 54.6994 50.5962 51.0741 50.6023 47.4512V47.449C50.6117 41.8394 50.6211 36.2357 50.5386 30.6255L50.2461 17.6607C51.5246 16.0583 53.9948 12.7119 58.1751 14.8161C59.1765 15.5707 59.5132 16.6419 59.6372 17.6607C59.6993 18.1709 59.7111 18.6923 59.7185 19.1754L59.7206 19.3137C59.7271 19.7543 59.733 20.1582 59.7676 20.535L59.7702 20.5641Z" fill="url(#paint1_linear_67_100)" stroke="url(#paint2_linear_67_100)" stroke-width="2"/>
<defs>
<linearGradient id="paint0_linear_67_100" x1="64" y1="121.363" x2="64" y2="6.63551" gradientUnits="userSpaceOnUse">
<stop stop-color="#02AA93"/>
<stop offset="1" stop-color="#67FF80"/>
</linearGradient>
<linearGradient id="paint1_linear_67_100" x1="64.246" y1="127.167" x2="64.246" y2="14.585" gradientUnits="userSpaceOnUse">
<stop stop-color="#02AA93"/>
<stop offset="1" stop-color="#67FF80"/>
</linearGradient>
<linearGradient id="paint2_linear_67_100" x1="64.246" y1="127.167" x2="64.246" y2="14.585" gradientUnits="userSpaceOnUse">
<stop stop-color="#02AA93"/>
<stop offset="1" stop-color="#67FF80"/>
</linearGradient>
</defs>
</svg>
