<svg width="64" height="64" viewBox="0 0 64 64" fill="none" xmlns="http://www.w3.org/2000/svg">
<path opacity="0.4" fill-rule="evenodd" clip-rule="evenodd" d="M25.1693 7.89088C27.3246 7.32704 29.6461 6.98072 32.081 7.00083H32.0931C37.0908 7.01814 42.365 8.36947 46.813 11.6898C47.2418 12.0107 47.6386 12.3729 47.9974 12.77C48.8077 13.6645 49.3138 14.771 49.733 15.9122C49.8261 16.1657 50.0141 16.3733 50.2582 16.4889C51.3634 17.0123 52.4434 17.5988 53.1836 18.5814C53.1847 18.583 53.186 18.5844 53.1874 18.5857V18.5857C53.1888 18.5871 53.1901 18.5886 53.1912 18.5901L59.4197 26.9057C62.6403 31.2146 60.6568 37.1377 56.0129 39.2165C55.732 39.3422 55.5102 39.5751 55.4138 39.8673C52.9414 47.3608 47.1121 53.6858 38.8305 55.8202C38.7782 55.8343 38.7255 55.8465 38.6723 55.8566C38.2733 55.9266 37.8826 56.0099 37.4758 56.0967C36.1182 56.3863 34.5806 56.7143 31.9512 56.7143C31.9457 56.7143 31.9402 56.7143 31.9347 56.7143C31.928 56.7143 31.9214 56.7143 31.9148 56.7143C31.6631 56.7097 31.8442 56.7099 31.9025 56.7101C26.9003 56.6918 21.6291 55.3333 17.1867 52.0171C16.7579 51.6963 16.3612 51.3341 16.0023 50.937C15.1935 50.044 14.6866 48.9384 14.2669 47.7983C14.1737 47.545 13.9859 47.3377 13.742 47.2222C12.6358 46.6983 11.5548 46.1113 10.8145 45.1273L10.8104 45.1232L4.58009 36.8053C1.35975 32.4968 3.34343 26.5737 7.98697 24.4946C8.26781 24.3688 8.48957 24.136 8.58598 23.8438C11.0583 16.3503 16.8876 10.0253 25.1693 7.89088ZM42.7416 17.0799C39.5487 14.692 35.9406 13.7413 32.046 13.732C30.2784 13.7151 28.5405 13.9674 26.8753 14.4053C19.7351 16.2461 14.8841 22.449 14.0138 29.3507C13.9483 29.8704 13.5163 30.2752 12.9925 30.2752H10.1811C9.35777 30.2752 8.88718 31.2144 9.38008 31.8739L16.6992 41.6661C17.0992 42.2012 17.9012 42.2012 18.3012 41.6661L25.6204 31.8739C26.1133 31.2144 25.6427 30.2752 24.8194 30.2752H22.244C21.6643 30.2752 21.2015 29.7829 21.2824 29.2089C21.535 27.4169 22.1237 25.8523 23.2751 24.6123L23.288 24.5984L23.3004 24.5844C26.4266 21.0492 32.613 19.572 37.1074 21.9211C37.2023 21.9707 37.287 22.0383 37.3632 22.1137C38.8582 23.5927 40.9804 23.3619 42.2883 22.5068C43.0132 22.033 43.6676 21.2706 43.8732 20.2701C44.0913 19.2084 43.7484 18.1501 42.9637 17.2821L42.9276 17.2422C42.8843 17.1943 42.8364 17.1507 42.7846 17.112L42.7416 17.0799ZM53.8194 33.4106C54.6427 33.4106 55.1133 32.4714 54.6204 31.8119L47.3012 22.0197C46.9012 21.4846 46.0992 21.4846 45.6992 22.0197L38.3801 31.8119C37.8872 32.4714 38.3578 33.4106 39.1811 33.4106H41.7565C42.3362 33.4106 42.799 33.903 42.7181 34.477C42.4655 36.2689 41.8768 37.8335 40.7254 39.0735L40.7071 39.0932L40.6895 39.1135C37.322 43.0012 31.4099 44.1555 26.8926 41.7656C26.7986 41.7159 26.7146 41.6488 26.6391 41.574C25.1447 40.0936 23.0221 40.322 21.7132 41.1763C20.9881 41.6495 20.3331 42.4115 20.1273 43.4121C19.909 44.4738 20.2524 45.532 21.0369 46.3996L21.0729 46.4395C21.1162 46.4874 21.1641 46.5311 21.2159 46.5698L21.2588 46.6019C24.4525 48.9903 28.0623 49.9455 31.9605 49.9538L32.5978 49.9551C32.6031 49.9551 32.6081 49.953 32.6118 49.9494V49.9494C32.6153 49.9458 32.6201 49.9438 32.6251 49.9436C34.1604 49.9012 35.6681 49.6636 37.1251 49.2806C44.2653 47.4398 49.1164 41.2368 49.9866 34.3351C50.0521 33.8155 50.4841 33.4106 51.0079 33.4106H53.8194Z" fill="url(#paint0_linear_54_1470)"/>
<path d="M32.046 13.732C35.9406 13.7413 39.5487 14.692 42.7416 17.0799L42.7847 17.112C42.8364 17.1507 42.8843 17.1943 42.9277 17.2422L42.9637 17.2821C43.7485 18.1501 44.0914 19.2084 43.8732 20.2701C43.6677 21.2706 43.0132 22.033 42.2883 22.5068C40.9805 23.3619 38.8583 23.5927 37.3632 22.1137C37.2871 22.0383 37.2024 21.9707 37.1074 21.9211C32.613 19.572 26.4266 21.0492 23.3004 24.5844L23.288 24.5984L23.2752 24.6123C22.1237 25.8523 21.535 27.4169 21.2824 29.2089C21.2015 29.7829 21.6643 30.2752 22.244 30.2752H24.8194C25.6427 30.2752 26.1133 31.2144 25.6204 31.8739L18.3012 41.6661C17.9013 42.2012 17.0992 42.2012 16.6993 41.6661L9.38011 31.8739C8.88722 31.2144 9.3578 30.2752 10.1811 30.2752H12.9925C13.5163 30.2752 13.9483 29.8703 14.0139 29.3507C14.8841 22.449 19.7351 16.2461 26.8753 14.4053C28.5405 13.9674 30.2785 13.7151 32.046 13.732Z" fill="url(#paint1_linear_54_1470)"/>
<path d="M47.3012 22.0197L54.6204 31.8119C55.1133 32.4714 54.6427 33.4106 53.8194 33.4106H51.0079C50.4842 33.4106 50.0521 33.8155 49.9866 34.3351C49.1165 41.2368 44.2653 47.4398 37.1252 49.2806C35.6681 49.6636 34.1605 49.9012 32.6251 49.9436C32.6201 49.9437 32.6153 49.9458 32.6118 49.9493C32.6081 49.953 32.6031 49.9551 32.5979 49.9551L31.9606 49.9538C28.0624 49.9455 24.4526 48.9903 21.2588 46.6019L21.2159 46.5698C21.1641 46.5311 21.1163 46.4874 21.0729 46.4395L21.0369 46.3996C20.2524 45.532 19.909 44.4738 20.1273 43.4121C20.3331 42.4115 20.9881 41.6495 21.7132 41.1763C23.0221 40.322 25.1448 40.0936 26.6392 41.574C26.7147 41.6487 26.7987 41.7159 26.8926 41.7656C31.4099 44.1555 37.322 43.0012 40.6896 39.1135L40.7072 39.0932L40.7254 39.0735C41.8768 37.8335 42.4656 36.2689 42.7181 34.4769C42.799 33.903 42.3362 33.4106 41.7566 33.4106H39.1811C38.3578 33.4106 37.8873 32.4714 38.3802 31.8119L45.6993 22.0197C46.0992 21.4846 46.9013 21.4846 47.3012 22.0197Z" fill="url(#paint2_linear_54_1470)"/>
<defs>
<linearGradient id="paint0_linear_54_1470" x1="32" y1="56.7143" x2="32" y2="7" gradientUnits="userSpaceOnUse">
<stop stop-color="#00B59C"/>
<stop offset="1" stop-color="#9CFFAC"/>
</linearGradient>
<linearGradient id="paint1_linear_54_1470" x1="32" y1="56.7143" x2="32" y2="7" gradientUnits="userSpaceOnUse">
<stop stop-color="#00B59C"/>
<stop offset="1" stop-color="#9CFFAC"/>
</linearGradient>
<linearGradient id="paint2_linear_54_1470" x1="32" y1="56.7143" x2="32" y2="7" gradientUnits="userSpaceOnUse">
<stop stop-color="#00B59C"/>
<stop offset="1" stop-color="#9CFFAC"/>
</linearGradient>
</defs>
</svg>
