<svg width="192" height="192" viewBox="0 0 192 192" fill="none" xmlns="http://www.w3.org/2000/svg">
<path opacity="0.4" d="M136.7 13.5165C119.431 4.90432 99.4255 2.05327 80.4251 5.30753C50.3371 10.2099 23.5848 31.254 11.615 59.2868C2.7439 79.4921 1.58992 102.932 8.32981 123.94C14.7533 144.312 28.5591 162.24 46.6195 173.642C75.7984 192.66 115.814 192.713 145.045 173.779C162.435 162.814 175.976 145.862 182.729 126.433C190.402 104.712 189.491 80.0937 180.163 59.0182C171.598 39.3781 155.927 22.9665 136.7 13.5165Z" fill="url(#paint0_linear_60_298)"/>
<path d="M91.9141 32.8473L91.8339 32.8715L91.757 32.905C81.1768 37.5284 70.8139 42.7641 60.4976 47.9762C55.4556 50.5237 50.4245 53.0655 45.3849 55.5275C43.3638 56.2521 41.695 58.056 41.0855 60.0122C40.7683 61.0305 40.7124 62.1772 41.1445 63.2653C41.5797 64.3611 42.448 65.2404 43.6853 65.8221C52.1104 70.4148 60.7615 74.6973 69.3823 78.9649C74.8435 81.6683 80.2923 84.3656 85.6637 87.1319C92.5578 91.1972 101.629 91.6328 108.763 87.7515C115.992 84.1075 123.218 80.4861 130.446 76.863C136.959 73.5985 143.476 70.3326 150 67.0475L150.017 67.0391L150.034 67.0302C150.129 66.978 150.232 66.9235 150.341 66.8667C151.141 66.4413 152.196 65.8822 153.047 65.1522C154.061 64.2838 154.962 63.0322 154.921 61.2731C154.887 59.2685 153.819 57.8815 152.614 56.9089C151.679 56.1547 150.533 55.5539 149.616 55.0721C149.409 54.9635 149.213 54.8609 149.033 54.7639L149.01 54.7514L148.987 54.7397C144.427 52.488 139.868 50.227 135.308 47.9654C126.185 43.441 117.059 38.914 107.908 34.4546C103.038 31.9968 97.2391 31.2408 91.9141 32.8473Z" fill="url(#paint1_linear_60_298)"/>
<path d="M32.5971 70.5384L32.4869 70.5663L32.3827 70.6116C30.2524 71.5362 29.1702 73.3558 28.6247 75.1839C28.0867 76.9865 28.0163 78.9627 28.0089 80.5035V80.5137C28.0218 86.0934 28.0149 91.6876 28.008 97.2862C27.9993 104.487 27.9904 111.697 28.0236 118.892C27.9489 125.815 31.4636 133.012 37.994 136.235C45.9926 140.299 54.0666 144.279 62.1301 148.256C68.2885 151.292 74.4407 154.326 80.5485 157.391L80.55 157.392C81.7206 157.978 83.1284 158.667 84.6124 159.052C86.1195 159.441 87.8053 159.543 89.5002 158.854L89.5596 158.831L89.6166 158.801C91.471 157.844 92.376 156.196 92.8209 154.563C93.256 152.967 93.293 151.234 93.3148 149.895L93.3149 149.884V149.871C93.31 145.457 93.3132 141.04 93.3165 136.621C93.3231 127.783 93.3297 118.936 93.2707 110.099C93.4667 103.532 90.182 96.7265 84.0484 93.593L84.0468 93.5923C72.439 87.6789 60.7462 81.9234 49.0594 76.1706C46.9045 75.1099 44.7498 74.0493 42.5959 72.9877L42.5522 72.9662L42.5072 72.9477C41.9474 72.7186 41.3841 72.4564 40.7791 72.1749C40.6557 72.1173 40.5304 72.059 40.4032 72C39.6698 71.6604 38.8824 71.3047 38.0696 71.0108C36.4421 70.4227 34.5853 70.0342 32.5971 70.5384Z" fill="url(#paint2_linear_60_298)"/>
<path d="M99.0147 153.092L99.0152 153.109L99.0158 153.124C99.1186 155.461 100.426 157.484 102.231 158.612C104.044 159.747 106.422 160.009 108.596 158.735C121.114 152.784 133.488 146.558 145.851 140.337C148.629 138.939 151.407 137.541 154.185 136.148C159.7 133.727 163.523 128.105 163.568 122.006C164.26 107.134 163.982 92.226 163.688 77.4141C164.131 72.0796 158.305 68.1411 153.563 71.174C141.269 77.039 129.081 83.1348 116.911 89.2216C114.023 90.6663 111.135 92.1103 108.248 93.5508C101.92 96.5455 98.7 103.534 98.8963 110.104C98.8899 113.233 98.8771 116.363 98.8643 119.498C98.8184 130.682 98.7725 141.895 99.0147 153.092Z" fill="url(#paint3_linear_60_298)"/>
<defs>
<linearGradient id="paint0_linear_60_298" x1="5.02664" y1="93.2755" x2="186.918" y2="93.2755" gradientUnits="userSpaceOnUse">
<stop stop-color="#FF4910"/>
<stop offset="1" stop-color="#FF7A00"/>
</linearGradient>
<linearGradient id="paint1_linear_60_298" x1="42.2579" y1="60.3933" x2="153.533" y2="60.3933" gradientUnits="userSpaceOnUse">
<stop stop-color="#FF4910"/>
<stop offset="1" stop-color="#FF7A00"/>
</linearGradient>
<linearGradient id="paint2_linear_60_298" x1="29.4167" y1="113.555" x2="91.9236" y2="113.555" gradientUnits="userSpaceOnUse">
<stop stop-color="#FF4910"/>
<stop offset="1" stop-color="#FF7A00"/>
</linearGradient>
<linearGradient id="paint3_linear_60_298" x1="100.244" y1="113.572" x2="162.602" y2="113.572" gradientUnits="userSpaceOnUse">
<stop stop-color="#FF4910"/>
<stop offset="1" stop-color="#FF7A00"/>
</linearGradient>
</defs>
</svg>
