<svg width="32" height="32" viewBox="0 0 32 32" fill="none" xmlns="http://www.w3.org/2000/svg">
<path opacity="0.4" fill-rule="evenodd" clip-rule="evenodd" d="M7.83333 5H24.1667C25.7132 5.00185 27.1959 5.61703 28.2894 6.71059C29.383 7.80415 29.9981 9.28681 30 10.8333V18.8335V19H29.9614C29.6629 20.2027 28.9584 21.28 27.9544 22.0637C26.9043 22.8834 25.5908 23.3319 24.2353 23.3335H18.1765C17.6242 23.3335 17.1765 23.7812 17.1765 24.3335V24.5835C17.1765 25.1358 17.6242 25.5835 18.1765 25.5835H21.8824C22.1944 25.5835 22.4936 25.7021 22.7142 25.913C22.9349 26.124 23.0588 26.4102 23.0588 26.7085C23.0588 27.0069 22.9349 27.293 22.7142 27.504C22.4936 27.715 22.1944 27.8335 21.8824 27.8335H10.1176C9.80563 27.8335 9.50639 27.715 9.28576 27.504C9.06513 27.293 8.94118 27.0069 8.94118 26.7085C8.94118 26.4102 9.06513 26.124 9.28576 25.913C9.50639 25.7021 9.80563 25.5835 10.1176 25.5835H13.8235C14.3758 25.5835 14.8235 25.1358 14.8235 24.5835V24.3335C14.8235 23.7812 14.3758 23.3335 13.8235 23.3335H7.76471C6.40917 23.3319 5.09567 22.8834 4.04559 22.0637C3.04161 21.28 2.33713 20.2027 2.03855 19H2V18.8335V10.8333C2.00185 9.28681 2.61703 7.80415 3.71059 6.71059C4.80415 5.61703 6.28681 5.00185 7.83333 5Z" fill="url(#paint0_linear_5_77)"/>
<path d="M19.8555 7.64465C20.2115 7.28859 20.7887 7.28847 21.1448 7.64437V7.64437C21.5011 8.00043 21.5012 8.57795 21.1451 8.93413L19.3361 10.7431C18.555 11.5242 18.5551 12.7907 19.3363 13.5717L21.1449 15.3799C21.5012 15.7361 21.5012 16.3137 21.145 16.6699V16.6699C20.7888 17.0261 20.2112 17.0261 19.855 16.6699L16.7573 13.5716C15.9764 12.7905 15.9764 11.5244 16.7573 10.7434L19.8555 7.64465ZM11.9346 20.3556C11.5786 20.7115 11.0014 20.7116 10.6453 20.3557V20.3557C10.289 19.9996 10.2889 19.422 10.6452 19.0658L12.4538 17.2577C13.235 16.4766 13.2351 15.2102 12.4539 14.4291L10.6455 12.6206C10.2891 12.2642 10.2893 11.6863 10.6459 11.3301V11.3301C11.0022 10.9743 11.5795 10.9745 11.9355 11.3306L15.0334 14.4291C15.8144 15.2102 15.8143 16.4766 15.0332 17.2575L11.9346 20.3556Z" fill="url(#paint1_linear_5_77)"/>
<defs>
<linearGradient id="paint0_linear_5_77" x1="16" y1="27.8335" x2="16" y2="5" gradientUnits="userSpaceOnUse">
<stop stop-color="#02AA93"/>
<stop offset="1" stop-color="#67FF80"/>
</linearGradient>
<linearGradient id="paint1_linear_5_77" x1="15.895" y1="21" x2="15.895" y2="7" gradientUnits="userSpaceOnUse">
<stop stop-color="#02AA93"/>
<stop offset="1" stop-color="#67FF80"/>
</linearGradient>
</defs>
</svg>
