<svg width="24" height="24" viewBox="0 0 24 24" fill="none" xmlns="http://www.w3.org/2000/svg">
<path opacity="0.4" d="M16.1312 10.864L16.1129 8.57979C16.0922 5.91357 16.083 4.58071 15.5363 3.57525C15.104 2.7817 14.446 2.13421 13.6456 1.71467C12.6325 1.18283 11.2989 1.19336 8.63264 1.21411C5.96612 1.23377 4.63246 1.2443 3.6281 1.79069C2.83455 2.22305 2.18706 2.88105 1.76752 3.68145C1.31164 4.54912 1.25361 5.6517 1.25929 7.62417L1.26587 8.69469L1.28418 10.9789C1.30384 13.6454 1.31407 14.9779 1.86076 15.9834C2.29312 16.7769 2.95112 17.4244 3.75152 17.844C4.76458 18.3758 6.09824 18.3653 8.76476 18.3456C11.1672 18.3266 12.4879 18.3161 13.4608 17.9135C13.5673 17.8699 13.6697 17.8203 13.7687 17.7669C14.5621 17.3352 15.2098 16.678 15.6299 15.8783C16.1614 14.8641 16.1509 13.5305 16.1312 10.864Z" fill="url(#paint0_linear_8_695)"/>
<path d="M22.4573 15.5845L22.4595 13.3002C22.4627 10.6339 22.4656 9.30103 21.9279 8.2907C21.5027 7.4933 20.8505 6.83992 20.0539 6.41321C19.0457 5.87229 17.712 5.87084 15.0457 5.86765C12.3791 5.86335 11.0454 5.8619 10.0362 6.39925C9.23879 6.82447 8.58541 7.47662 8.1587 8.27322C7.69505 9.13676 7.62711 10.2388 7.61508 12.2112L7.61204 13.2818L7.60984 15.566C7.60555 18.2326 7.6038 19.5652 8.14144 20.5755C8.56666 21.3729 9.21882 22.0263 10.0154 22.453C11.0237 22.9939 12.3574 22.9954 15.0239 22.9997C17.4265 23.0022 18.7472 23.0036 19.7237 22.6097C19.8305 22.5671 19.9334 22.5184 20.0329 22.4659C20.8302 22.0413 21.4837 21.39 21.911 20.5941C22.4516 19.5847 22.453 18.251 22.4573 15.5845Z" fill="url(#paint1_linear_8_695)"/>
<defs>
<linearGradient id="paint0_linear_8_695" x1="8.50216" y1="18.388" x2="8.89446" y2="1.17094" gradientUnits="userSpaceOnUse">
<stop stop-color="#5558FF"/>
<stop offset="1" stop-color="#00C0FF"/>
</linearGradient>
<linearGradient id="paint1_linear_8_695" x1="15.0346" y1="23.0001" x2="15.0346" y2="5.86694" gradientUnits="userSpaceOnUse">
<stop stop-color="#5558FF"/>
<stop offset="1" stop-color="#00C0FF"/>
</linearGradient>
</defs>
</svg>
