<svg width="128" height="128" viewBox="0 0 128 128" fill="none" xmlns="http://www.w3.org/2000/svg">
<rect opacity="0.4" x="9" y="8" width="110" height="112" rx="22" fill="url(#paint0_linear_37_283)"/>
<path d="M63.7599 17.2501C62.9618 15.9202 61.0345 15.9202 60.2366 17.2501L51.5532 31.7222C51.1424 32.4069 51.6356 33.2779 52.4341 33.2779H57.1782C57.7455 33.2779 58.2054 33.7379 58.2054 34.3051V69.8604C58.2054 74.2145 53.6244 77.5178 49.3151 76.895V76.895C45.9964 76.4208 42.9736 75.9468 41.373 75.1161C39.78 74.2893 39.2415 73.8873 39.2415 71.2058V67.1548C39.2415 64.3066 41.0996 61.8026 42.3202 59.2292C42.7783 58.2632 43.0343 57.183 43.0343 56.0347C43.0343 54.0229 42.2351 52.0935 40.8125 50.6709C39.3899 49.2483 37.4605 48.4491 35.4487 48.4491C33.4369 48.4491 31.5075 49.2483 30.0849 50.6709C28.6623 52.0935 27.8632 54.0229 27.8632 56.0347C27.8632 57.1819 28.1193 58.2622 28.5778 59.2287C29.7985 61.802 31.6559 64.3066 31.6559 67.1548V71.2058C31.6559 76.1099 34.4399 79.9785 37.8192 81.7535C41.1948 83.5323 44.8131 84.0065 48.1318 84.4805C51.4505 84.9546 54.4733 85.4287 56.0739 86.2593C57.6706 87.0861 58.2054 87.4882 58.2054 90.1697V90.1697C58.2054 90.5951 57.9362 90.9706 57.5453 91.1383C53.4907 92.8772 50.6198 96.8636 50.6198 101.548C50.6198 104.566 51.8187 107.46 53.9525 109.594C56.0863 111.728 58.9805 112.926 61.9982 112.926C65.016 112.926 67.91 111.728 70.0439 109.594C72.1778 107.46 73.3765 104.566 73.3765 101.548C73.3765 96.8682 70.5066 92.8787 66.4528 91.139C66.071 90.9752 65.8426 90.582 65.791 90.1697V90.1697V83.1758C65.8061 82.9861 65.8061 82.7775 65.791 82.5841C65.791 80.0506 66.5154 79.311 68.6355 78.0783C70.7557 76.8495 74.3248 75.8291 78.1175 74.881C81.9103 73.9328 85.9268 73.0605 89.4959 70.9668C93.0649 68.8808 96.1332 64.8794 96.1332 59.8274V54.1382C96.1332 53.0909 96.9823 52.2419 98.0296 52.2419C99.077 52.2419 99.926 51.3928 99.926 50.3455V39.1251C99.926 37.9906 99.0062 37.0707 97.8715 37.0707H86.8093C85.6746 37.0707 84.7549 37.9906 84.7549 39.1251V50.3455C84.7549 51.3928 85.6039 52.2419 86.6513 52.2419C87.6986 52.2419 88.5476 53.0909 88.5476 54.1382V59.8274C88.5476 62.3611 87.8232 63.1006 85.7031 64.3333C83.5829 65.5622 80.0139 66.5824 76.2211 67.5306V67.5306C71.351 68.7401 65.791 64.9784 65.791 59.9603V34.3051C65.791 33.7379 66.2509 33.2779 66.8182 33.2779H71.5623C72.3607 33.2779 72.8539 32.4069 72.4431 31.7222L63.7599 17.2501Z" fill="url(#paint1_linear_37_283)"/>
<defs>
<linearGradient id="paint0_linear_37_283" x1="7.41003" y1="9.10207" x2="122.916" y2="126.017" gradientUnits="userSpaceOnUse">
<stop stop-color="#F9D423"/>
<stop offset="0.515624" stop-color="#FF4E50"/>
<stop offset="0.991304" stop-color="#8A2387"/>
</linearGradient>
<linearGradient id="paint1_linear_37_283" x1="26.8215" y1="17.2039" x2="123.161" y2="91.2146" gradientUnits="userSpaceOnUse">
<stop stop-color="#F9D423"/>
<stop offset="0.515624" stop-color="#FF4E50"/>
<stop offset="0.991304" stop-color="#8A2387"/>
</linearGradient>
</defs>
</svg>
