<svg width="24" height="24" viewBox="0 0 24 24" fill="none" xmlns="http://www.w3.org/2000/svg">
<path d="M15.85 7.85C15.85 8.35559 15.7504 8.85623 15.5569 9.32333C15.3634 9.79043 15.0799 10.2149 14.7224 10.5724C14.3648 10.9299 13.9404 11.2135 13.4733 11.4069C13.0062 11.6004 12.5056 11.7 12 11.7C11.4944 11.7 10.9938 11.6004 10.5267 11.4069C10.0596 11.2135 9.63514 10.9299 9.27763 10.5724C8.92013 10.2149 8.63654 9.79043 8.44306 9.32333C8.24958 8.85623 8.14999 8.35559 8.14999 7.85C8.14999 6.82892 8.55562 5.84965 9.27763 5.12764C9.99965 4.40562 10.9789 4 12 4C13.0211 4 14.0003 4.40562 14.7224 5.12764C15.4444 5.84965 15.85 6.82892 15.85 7.85Z" fill="url(#paint0_linear_20_109)"/>
<path opacity="0.4" d="M20.25 7.84998C20.25 8.57932 19.9603 9.27879 19.4445 9.79452C18.9288 10.3102 18.2293 10.6 17.5 10.6C16.7707 10.6 16.0712 10.3102 15.5555 9.79452C15.0397 9.27879 14.75 8.57932 14.75 7.84998C14.75 7.12063 15.0397 6.42116 15.5555 5.90543C16.0712 5.38971 16.7707 5.09998 17.5 5.09998C18.2293 5.09998 18.9288 5.38971 19.4445 5.90543C19.9603 6.42116 20.25 7.12063 20.25 7.84998ZM3.75 7.84998C3.75 8.57932 4.03973 9.27879 4.55546 9.79452C5.07118 10.3102 5.77065 10.6 6.5 10.6C7.22935 10.6 7.92882 10.3102 8.44454 9.79452C8.96027 9.27879 9.25 8.57932 9.25 7.84998C9.25 7.12063 8.96027 6.42116 8.44454 5.90543C7.92882 5.38971 7.22935 5.09998 6.5 5.09998C5.77065 5.09998 5.07118 5.38971 4.55546 5.90543C4.03973 6.42116 3.75 7.12063 3.75 7.84998Z" fill="url(#paint1_linear_20_109)"/>
<path d="M18.6 17.75C18.6 19.8763 15.6454 21.6 12 21.6C8.35459 21.6 5.39999 19.8763 5.39999 17.75C5.39999 15.6237 8.35459 13.9 12 13.9C15.6454 13.9 18.6 15.6237 18.6 17.75Z" fill="url(#paint2_linear_20_109)"/>
<path opacity="0.4" d="M23 17.75C23 19.268 21.031 20.5 18.6 20.5C16.169 20.5 14.2 19.268 14.2 17.75C14.2 16.232 16.169 15 18.6 15C21.031 15 23 16.232 23 17.75ZM1 17.75C1 19.268 2.969 20.5 5.4 20.5C7.831 20.5 9.8 19.268 9.8 17.75C9.8 16.232 7.831 15 5.4 15C2.969 15 1 16.232 1 17.75Z" fill="url(#paint3_linear_20_109)"/>
<defs>
<linearGradient id="paint0_linear_20_109" x1="12" y1="4" x2="12" y2="11.7" gradientUnits="userSpaceOnUse">
<stop stop-color="#DC18FC"/>
<stop offset="1" stop-color="#8E1EFF"/>
</linearGradient>
<linearGradient id="paint1_linear_20_109" x1="12" y1="5.09998" x2="12" y2="10.6" gradientUnits="userSpaceOnUse">
<stop stop-color="#DC18FC"/>
<stop offset="1" stop-color="#8E1EFF"/>
</linearGradient>
<linearGradient id="paint2_linear_20_109" x1="12" y1="13.9" x2="12" y2="21.6" gradientUnits="userSpaceOnUse">
<stop stop-color="#DC18FC"/>
<stop offset="1" stop-color="#8E1EFF"/>
</linearGradient>
<linearGradient id="paint3_linear_20_109" x1="12" y1="15" x2="12" y2="20.5" gradientUnits="userSpaceOnUse">
<stop stop-color="#DC18FC"/>
<stop offset="1" stop-color="#8E1EFF"/>
</linearGradient>
</defs>
</svg>
