<svg width="24" height="24" viewBox="0 0 24 24" fill="none" xmlns="http://www.w3.org/2000/svg">
<path opacity="0.4" fill-rule="evenodd" clip-rule="evenodd" d="M4.14286 3C3.30932 3 2.50992 3.33112 1.92052 3.92052C1.33112 4.50992 1 5.30932 1 6.14286V17.1429C1 17.9764 1.33112 18.7758 1.92052 19.3652C2.50992 19.9546 3.30932 20.2857 4.14286 20.2857H19.8571C20.6907 20.2857 21.4901 19.9546 22.0795 19.3652C22.6689 18.7758 23 17.9764 23 17.1429V6.14286C23 5.30932 22.6689 4.50992 22.0795 3.92052C21.4901 3.33112 20.6907 3 19.8571 3H4.14286Z" fill="url(#paint0_linear_42_67)"/>
<path d="M5.8324 5.80183C6.3458 5.28843 7.04213 5 7.76819 5C8.49425 5 9.19057 5.28843 9.70397 5.80183C10.2174 6.31523 10.5058 7.01156 10.5058 7.73762C10.5058 8.46368 10.2174 9.16 9.70397 9.6734C9.19057 10.1868 8.49425 10.4752 7.76819 10.4752C7.04213 10.4752 6.3458 10.1868 5.8324 9.6734C5.319 9.16 5.03057 8.46368 5.03057 7.73762C5.03057 7.01156 5.319 6.31523 5.8324 5.80183Z" fill="url(#paint1_linear_42_67)"/>
<path d="M4.89479 13.2035C4.05206 13.7917 3.41018 14.6244 3.05584 15.5891C2.98 15.7958 2.98146 16.023 3.05994 16.2287C3.13843 16.4344 3.28865 16.6048 3.48291 16.7085C4.80189 17.4111 6.27376 17.7776 7.76819 17.7755C9.26262 17.7776 10.7345 17.4111 12.0535 16.7085C12.2477 16.6048 12.3979 16.4344 12.4764 16.2287C12.5549 16.023 12.5564 15.7958 12.4805 15.5891C12.1262 14.6244 11.4843 13.7917 10.6416 13.2035C9.79886 12.6152 8.79591 12.2998 7.76819 12.2998C6.74047 12.2998 5.73751 12.6152 4.89479 13.2035Z" fill="url(#paint2_linear_42_67)"/>
<path d="M14.8795 7.09235C15.0506 6.92122 15.2827 6.82508 15.5248 6.82508H20.0875C20.3295 6.82508 20.5616 6.92122 20.7327 7.09235C20.9039 7.26349 21 7.4956 21 7.73762C21 7.97964 20.9039 8.21174 20.7327 8.38288C20.5616 8.55401 20.3295 8.65016 20.0875 8.65016H15.5248C15.2827 8.65016 15.0506 8.55401 14.8795 8.38288C14.7084 8.21174 14.6122 7.97964 14.6122 7.73762C14.6122 7.4956 14.7084 7.26349 14.8795 7.09235Z" fill="url(#paint3_linear_42_67)"/>
<path d="M14.8795 10.7425C14.7084 10.9136 14.6122 11.1458 14.6122 11.3878C14.6122 11.6298 14.7084 11.8619 14.8795 12.033C15.0506 12.2042 15.2827 12.3003 15.5248 12.3003H20.0875C20.3295 12.3003 20.5616 12.2042 20.7327 12.033C20.9039 11.8619 21 11.6298 21 11.3878C21 11.1458 20.9039 10.9136 20.7327 10.7425C20.5616 10.5714 20.3295 10.4752 20.0875 10.4752H15.5248C15.2827 10.4752 15.0506 10.5714 14.8795 10.7425Z" fill="url(#paint4_linear_42_67)"/>
<path d="M14.8795 14.3927C15.0506 14.2215 15.2827 14.1254 15.5248 14.1254H20.0875C20.3295 14.1254 20.5616 14.2215 20.7327 14.3927C20.9039 14.5638 21 14.7959 21 15.0379C21 15.2799 20.9039 15.5121 20.7327 15.6832C20.5616 15.8543 20.3295 15.9505 20.0875 15.9505H15.5248C15.2827 15.9505 15.0506 15.8543 14.8795 15.6832C14.7084 15.5121 14.6122 15.2799 14.6122 15.0379C14.6122 14.7959 14.7084 14.5638 14.8795 14.3927Z" fill="url(#paint5_linear_42_67)"/>
<defs>
<linearGradient id="paint0_linear_42_67" x1="12" y1="3" x2="12" y2="20.2857" gradientUnits="userSpaceOnUse">
<stop stop-color="#DC18FC"/>
<stop offset="1" stop-color="#8E1EFF"/>
</linearGradient>
<linearGradient id="paint1_linear_42_67" x1="12" y1="5" x2="12" y2="17.7756" gradientUnits="userSpaceOnUse">
<stop stop-color="#DC18FC"/>
<stop offset="1" stop-color="#8E1EFF"/>
</linearGradient>
<linearGradient id="paint2_linear_42_67" x1="12" y1="5" x2="12" y2="17.7756" gradientUnits="userSpaceOnUse">
<stop stop-color="#DC18FC"/>
<stop offset="1" stop-color="#8E1EFF"/>
</linearGradient>
<linearGradient id="paint3_linear_42_67" x1="12" y1="5" x2="12" y2="17.7756" gradientUnits="userSpaceOnUse">
<stop stop-color="#DC18FC"/>
<stop offset="1" stop-color="#8E1EFF"/>
</linearGradient>
<linearGradient id="paint4_linear_42_67" x1="12" y1="5" x2="12" y2="17.7756" gradientUnits="userSpaceOnUse">
<stop stop-color="#DC18FC"/>
<stop offset="1" stop-color="#8E1EFF"/>
</linearGradient>
<linearGradient id="paint5_linear_42_67" x1="12" y1="5" x2="12" y2="17.7756" gradientUnits="userSpaceOnUse">
<stop stop-color="#DC18FC"/>
<stop offset="1" stop-color="#8E1EFF"/>
</linearGradient>
</defs>
</svg>
