<svg width="24" height="24" viewBox="0 0 24 24" fill="none" xmlns="http://www.w3.org/2000/svg">
<path opacity="0.4" d="M1 12C1 6.8146 1 4.2219 2.6104 2.6104C4.223 1 6.8146 1 12 1C17.1854 1 19.7781 1 21.3885 2.6104C23 4.223 23 6.8146 23 12C23 17.1854 23 19.7781 21.3885 21.3885C19.7792 23 17.1854 23 12 23C6.8146 23 4.2219 23 2.6104 21.3885C1 19.7792 1 17.1854 1 12Z" fill="url(#paint0_linear_8_799)"/>
<path d="M14.935 9.45192C14.7315 9.11972 14.5324 8.79522 14.3388 8.56422C14.1331 8.31782 13.7723 7.97902 13.2201 8.00102C12.6679 8.02302 12.3357 8.38932 12.1498 8.65112C11.9749 8.89862 11.8033 9.23632 11.6273 9.58392L9.4405 13.8959C9.358 14.0587 9.2898 14.194 9.2282 14.3106C9.13978 14.1827 9.05251 14.054 8.9664 13.9245L8.7728 13.6319C8.58129 13.3342 8.37686 13.045 8.1601 12.7651C7.957 12.4998 7.70168 12.2789 7.4099 12.1161C7.11232 11.9636 6.7866 11.8737 6.4529 11.8521C6.10002 11.8271 5.74621 11.8176 5.3925 11.8235H3.825C3.6062 11.8235 3.39635 11.9104 3.24164 12.0652C3.08692 12.2199 3 12.4297 3 12.6485C3 12.8673 3.08692 13.0772 3.24164 13.2319C3.39635 13.3866 3.6062 13.4735 3.825 13.4735H5.3584C5.8061 13.4735 6.0855 13.4735 6.3 13.4944C6.498 13.5131 6.5794 13.5428 6.6311 13.5714C6.6828 13.5989 6.7532 13.6484 6.8786 13.8035C7.0139 13.9707 7.1701 14.2028 7.4176 14.5757L7.6233 14.8826C7.8301 15.1939 8.0336 15.4986 8.2316 15.7175C8.4428 15.9518 8.8058 16.2642 9.3426 16.2323C9.8772 16.2004 10.2006 15.8473 10.3843 15.5899C10.5537 15.349 10.7198 15.0212 10.8892 14.6879L13.0749 10.3781C13.1618 10.2076 13.2333 10.0657 13.2982 9.94362C13.3719 10.0602 13.4555 10.1966 13.5545 10.3583L14.2739 11.5331C14.4939 11.8928 14.6897 12.2107 14.8789 12.4615C15.0835 12.7332 15.3178 12.9774 15.6401 13.1578C15.9624 13.3382 16.2924 13.4108 16.6312 13.4438C16.9436 13.4735 17.3165 13.4735 17.7378 13.4735H19.225C19.4438 13.4735 19.6536 13.3866 19.8084 13.2319C19.9631 13.0772 20.05 12.8673 20.05 12.6485C20.05 12.4297 19.9631 12.2199 19.8084 12.0652C19.6536 11.9104 19.4438 11.8235 19.225 11.8235H17.773C17.3066 11.8235 17.014 11.8235 16.7896 11.8015C16.5828 11.7806 16.4992 11.7476 16.4464 11.7179C16.3925 11.6882 16.321 11.6343 16.1967 11.4682C16.0071 11.2002 15.8291 10.9242 15.6632 10.641L14.9339 9.45192H14.935Z" fill="url(#paint1_linear_8_799)" stroke="url(#paint2_linear_8_799)"/>
<defs>
<linearGradient id="paint0_linear_8_799" x1="12" y1="1" x2="12" y2="23" gradientUnits="userSpaceOnUse">
<stop stop-color="#DC18FC"/>
<stop offset="1" stop-color="#8E1EFF"/>
</linearGradient>
<linearGradient id="paint1_linear_8_799" x1="11.525" y1="8" x2="11.525" y2="16.2346" gradientUnits="userSpaceOnUse">
<stop stop-color="#DC18FC"/>
<stop offset="1" stop-color="#8E1EFF"/>
</linearGradient>
<linearGradient id="paint2_linear_8_799" x1="11.525" y1="8" x2="11.525" y2="16.2346" gradientUnits="userSpaceOnUse">
<stop stop-color="#DC18FC"/>
<stop offset="1" stop-color="#8E1EFF"/>
</linearGradient>
</defs>
</svg>
