<svg width="128" height="128" viewBox="0 0 128 128" fill="none" xmlns="http://www.w3.org/2000/svg">
<path opacity="0.4" fill-rule="evenodd" clip-rule="evenodd" d="M28.25 42.25C28.25 22.1675 44.4175 6 64.5 6C84.5825 6 100.75 22.1675 100.75 42.25V54.75C100.75 55.8546 101.662 56.7219 102.726 57.0204C105.776 57.8765 108 60.669 108 64V114.75C108 118.766 104.766 122 100.75 122H28.25C24.2335 122 21 118.766 21 114.75V64C21 59.9835 24.2335 56.75 28.25 56.75V42.25ZM64.5 16.3571C76.5122 16.3571 84.1786 24.0235 84.1786 36.0357C84.1786 50.2528 79.3054 57.5297 67.1874 62.7822C65.9032 63.3388 64.5 62.3726 64.5 60.973V57.7143C64.5 56.6097 63.6014 55.7232 62.4999 55.641C51.6433 54.8312 44.8214 47.3671 44.8214 36.0357C44.8214 24.0235 52.4878 16.3571 64.5 16.3571Z" fill="url(#paint0_linear_60_121)"/>
<path d="M56.8103 74.4353C58.8497 72.3958 61.6158 71.25 64.5 71.25C67.3842 71.25 70.1503 72.3958 72.1897 74.4353C74.2292 76.4747 75.375 79.2408 75.375 82.125C75.375 85.0092 74.2292 87.7753 72.1897 89.8147C70.1503 91.8542 67.3842 93 64.5 93H69.9375C75.0438 93 78.2884 95.8777 81.3631 98.6047L81.3673 98.6084C81.5654 98.7839 81.7627 98.9595 81.9598 99.1335C85.0048 101.83 86.25 105.572 86.25 106.931V109.378C86.2427 109.429 86.2452 109.479 86.2475 109.53C86.2488 109.555 86.25 109.581 86.25 109.606C86.25 112.445 82.7276 114.75 78.37 114.75H50.63C46.2724 114.75 42.75 112.455 42.75 109.606C42.75 109.561 42.7556 109.515 42.7613 109.468L42.7623 109.46C42.7659 109.434 42.7694 109.406 42.7718 109.378C42.762 109.378 42.7544 108.138 42.75 106.909C42.7478 105.55 43.707 101.765 46.6161 99.0139C49.6959 96.0994 53.625 93 59.0625 93H64.5C61.6158 93 58.8497 91.8542 56.8103 89.8147C54.7708 87.7753 53.625 85.0092 53.625 82.125C53.625 79.2408 54.7708 76.4747 56.8103 74.4353Z" fill="url(#paint1_linear_60_121)"/>
<defs>
<linearGradient id="paint0_linear_60_121" x1="64.5" y1="16.875" x2="64.5" y2="122" gradientUnits="userSpaceOnUse">
<stop stop-color="#9EE170"/>
<stop offset="1" stop-color="#E5ECA2"/>
</linearGradient>
<linearGradient id="paint1_linear_60_121" x1="64.5" y1="71.25" x2="64.5" y2="114.75" gradientUnits="userSpaceOnUse">
<stop stop-color="#9EE170"/>
<stop offset="1" stop-color="#E5ECA2"/>
</linearGradient>
</defs>
</svg>
