<svg width="16" height="16" viewBox="0 0 16 16" fill="none" xmlns="http://www.w3.org/2000/svg">
<path opacity="0.4" d="M11.0109 13.6875C11.2874 13.6875 11.5114 13.4582 11.5114 13.1756C11.5114 10.8551 11.9305 9.21993 12.361 8.54206C12.6051 8.15794 12.7915 7.95476 13.0846 7.81074C13.3777 7.66671 13.7418 7.57746 14.4995 7.57746C14.776 7.57746 15 7.34847 15 7.06594V2.82402C15 2.54149 14.776 2.3125 14.4995 2.3125C11.7695 2.3125 9.2915 3.54765 7.93341 5.68676C6.59974 7.78737 6.25 10.3354 6.25 13.1756C6.25 13.4582 6.47417 13.6875 6.75067 13.6875H11.0109Z" fill="url(#paint0_linear_297_164)"/>
<path d="M10.9706 13.6875C11.3609 13.6875 11.6164 13.2815 11.4466 12.9324L6.411 2.60869C6.32245 2.42739 6.13756 2.31241 5.93491 2.3125H1.52896C1.13912 2.31285 0.883669 2.71815 1.05341 3.06701L6.08874 13.3917C6.1772 13.572 6.36183 13.6875 6.5643 13.6875H10.9706Z" fill="url(#paint1_linear_297_164)"/>
<defs>
<linearGradient id="paint0_linear_297_164" x1="10.625" y1="9.05323" x2="10.625" y2="2.3125" gradientUnits="userSpaceOnUse">
<stop stop-color="#5558FF"/>
<stop offset="1" stop-color="#00C0FF"/>
</linearGradient>
<linearGradient id="paint1_linear_297_164" x1="6.25002" y1="13.6875" x2="6.25002" y2="2.3125" gradientUnits="userSpaceOnUse">
<stop stop-color="#5570FF"/>
<stop offset="1" stop-color="#4DD3FF"/>
</linearGradient>
</defs>
</svg>
