<svg width="64" height="64" viewBox="0 0 64 64" fill="none" xmlns="http://www.w3.org/2000/svg">
<path opacity="0.4" d="M32 4C24.5739 4 17.452 6.94999 12.201 12.201C6.94999 17.452 4 24.5739 4 32C4 39.4261 6.94999 46.548 12.201 51.799C17.452 57.05 24.5739 60 32 60C39.4261 60 46.548 57.05 51.799 51.799C57.05 46.548 60 39.4261 60 32C60 24.5739 57.05 17.452 51.799 12.201C46.548 6.94999 39.4261 4 32 4Z" fill="#4F4F4F"/>
<path d="M22.4454 17.9844C21.9955 17.9836 21.5209 18 21.0118 18C18.441 17.9462 15.868 18.0328 13.2969 18C11.5145 17.9859 11.9256 20.1707 12.4414 21.0899C18.1452 31.2526 24.8854 42.6356 31.168 53.3633C32.3751 55.1442 33.6478 52.7259 34.3243 51.6914C36.0338 49.077 37.4419 46.3375 38.8868 43.5977C39.497 41.7562 37.791 40.3388 37.1836 38.7774C33.4778 32.196 29.5813 25.7382 25.7969 19.2149C24.8913 18.1286 23.7949 17.9866 22.4454 17.9844ZM41.0821 18C39.1642 18 40.3829 20.1602 40.3829 20.1602C40.3829 20.1602 43.2577 25.6106 44.9141 28.5938C46.5705 31.5769 47.4641 29.0095 47.8789 28.1836C49.3715 25.2119 50.6687 22.1159 51.7149 20.0586C52.761 18.0013 50.5821 18 50.5821 18H41.0821Z" fill="url(#paint0_linear_81_115)"/>
<defs>
<linearGradient id="paint0_linear_81_115" x1="31.999" y1="53.9991" x2="31.999" y2="17.9819" gradientUnits="userSpaceOnUse">
<stop stop-color="#A5A5A5"/>
<stop offset="0.9973" stop-color="#DCDCDC"/>
</linearGradient>
</defs>
</svg>
