<svg width="24" height="24" viewBox="0 0 24 24" fill="none" xmlns="http://www.w3.org/2000/svg">
<path opacity="0.4" fill-rule="evenodd" clip-rule="evenodd" d="M17.2339 1.56682C13.853 0.811061 10.3469 0.811061 6.96594 1.56682L6.60164 1.64741C5.65063 1.86004 4.77717 2.33214 4.0783 3.01128C3.37944 3.69042 2.88252 4.55 2.64276 5.49454C1.78575 8.87155 1.78575 12.4091 2.64276 15.7861C2.87141 16.6869 3.33417 17.5113 3.98413 18.1756C4.48507 18.6876 5.08349 19.0905 5.74159 19.362C6.10084 19.5102 6.38478 19.8138 6.44898 20.1971L6.84343 22.5519C6.85938 22.6466 6.90044 22.7354 6.96232 22.8088C7.0242 22.8823 7.10465 22.9378 7.19529 22.9697C7.28592 23.0015 7.38343 23.0084 7.47766 22.9898C7.57189 22.9711 7.6594 22.9275 7.73106 22.8636L10.3548 20.5165C10.5538 20.3385 10.8158 20.2485 11.0826 20.26C13.1475 20.3493 15.2157 20.1662 17.2339 19.7149L17.5993 19.6343C18.5503 19.4217 19.4237 18.9496 20.1226 18.2705C20.8215 17.5913 21.3184 16.7317 21.5581 15.7872C22.4151 12.4102 22.4151 8.87263 21.5581 5.49561C21.3183 4.55094 20.8212 3.69126 20.1222 3.01211C19.4231 2.33296 18.5494 1.86093 17.5982 1.64849L17.2339 1.56682ZM7.87192 5.407C7.8721 5.40709 7.87201 5.40736 7.87181 5.40733C7.67494 5.37893 7.4743 5.41782 7.30236 5.51758C7.29809 5.52006 7.29324 5.5214 7.28829 5.5214V5.5214C7.28339 5.5214 7.27857 5.52271 7.27434 5.5252C6.87393 5.761 6.51294 6.05736 6.20511 6.40581C5.9472 6.70348 5.8075 7.00437 5.77096 7.29452C5.74994 7.46269 5.76387 7.63291 5.81175 7.79414C5.81382 7.80109 5.81857 7.80693 5.82491 7.81045V7.81045C5.831 7.81384 5.83561 7.81936 5.83786 7.82595C6.12754 8.67445 6.50463 9.4909 6.96486 10.2594C7.55845 11.3391 8.28841 12.3379 9.13675 13.2314C9.14313 13.2381 9.14901 13.2452 9.15435 13.2528L9.15506 13.2538C9.16636 13.2698 9.18017 13.2839 9.19595 13.2955V13.2955C9.20725 13.3039 9.21756 13.3135 9.22666 13.3242L9.22768 13.3254C9.23433 13.3332 9.24159 13.3404 9.24937 13.3471L9.26776 13.3629C10.1669 14.2179 11.1716 14.9546 12.2573 15.5551C13.4957 16.2295 14.2484 16.5488 14.7012 16.6825C14.703 16.6831 14.7042 16.6848 14.7042 16.6867V16.6867C14.7042 16.6886 14.7055 16.6903 14.7073 16.6908C14.8383 16.731 14.9577 16.749 15.0782 16.749C15.4635 16.7205 15.8282 16.5639 16.1141 16.3041C16.4624 15.9955 16.7573 15.6323 16.987 15.2286C16.9882 15.2263 16.9889 15.2238 16.9889 15.2213V15.2213C16.9889 15.2189 16.9895 15.2165 16.9906 15.2144C17.2045 14.8073 17.131 14.4239 16.8202 14.1635C16.1942 13.6165 15.5173 13.1307 14.7988 12.7127C14.3174 12.4516 13.8284 12.6096 13.6307 12.8739L13.2084 13.4069C13.0062 13.6532 12.651 13.6383 12.6033 13.6352C12.5998 13.6349 12.5963 13.6357 12.5933 13.6376V13.6376C12.5894 13.6399 12.5847 13.6406 12.5803 13.6394C9.93683 12.9608 9.04201 10.4783 8.89265 10.0007C8.87597 9.94733 8.86596 9.89284 8.86814 9.83698C8.87319 9.70743 8.90972 9.45826 9.10442 9.3105L9.63313 8.88495C9.88674 8.67862 10.063 8.19075 9.7911 7.70932C9.37588 6.99015 8.89105 6.31348 8.34359 5.68904C8.22446 5.54242 8.0575 5.44245 7.87203 5.40666C7.87183 5.40662 7.87173 5.4069 7.87192 5.407V5.407ZM12.8312 4.11581C12.6887 4.11581 12.552 4.17241 12.4513 4.27318C12.3505 4.37394 12.2939 4.51061 12.2939 4.65311C12.2939 4.79562 12.3505 4.93228 12.4513 5.03305C12.552 5.13381 12.6887 5.19042 12.8312 5.19042C14.1906 5.19042 15.3189 5.63424 16.2119 6.48533C16.6708 6.95064 17.0286 7.50192 17.2629 8.10585C17.4982 8.71086 17.6057 9.35671 17.5778 10.0036C17.5748 10.0742 17.5858 10.1446 17.61 10.211C17.6343 10.2773 17.6714 10.3382 17.7192 10.3902C17.8157 10.4952 17.95 10.5575 18.0925 10.5635C18.235 10.5695 18.3741 10.5186 18.4791 10.4221C18.584 10.3256 18.6464 10.1913 18.6524 10.0488C18.6857 9.25299 18.5536 8.45896 18.2644 7.71684C17.974 6.97121 17.5337 6.2931 16.9706 5.72451L16.9599 5.71376C15.8519 4.65526 14.4496 4.11581 12.8312 4.11581ZM12.7947 5.88247C12.6521 5.88247 12.5155 5.93908 12.4147 6.03985C12.314 6.14061 12.2573 6.27728 12.2573 6.41978C12.2573 6.56228 12.314 6.69895 12.4147 6.79972C12.5155 6.90048 12.6521 6.95709 12.7947 6.95709H12.8129C13.793 7.02694 14.5065 7.35362 15.0062 7.88986C15.5188 8.44221 15.7842 9.12889 15.7638 9.97783C15.7605 10.1203 15.814 10.2583 15.9125 10.3614C16.0109 10.4645 16.1463 10.5242 16.2888 10.5275C16.4313 10.5308 16.5692 10.4773 16.6723 10.3789C16.7754 10.2804 16.8352 10.1451 16.8384 10.0026C16.8642 8.88856 16.5055 7.92705 15.7946 7.15991C15.7942 7.1594 15.7939 7.15873 15.7939 7.15805V7.15805C15.7939 7.15735 15.7936 7.15669 15.7932 7.15618C15.0657 6.37652 14.0677 5.96412 12.8667 5.88355L12.8484 5.8814L12.7947 5.88247ZM12.7742 7.68246C12.7023 7.67611 12.6299 7.68432 12.5612 7.70659C12.4926 7.72887 12.4291 7.76475 12.3746 7.8121C12.3201 7.85944 12.2757 7.91728 12.2441 7.98216C12.2124 8.04705 12.1942 8.11764 12.1904 8.18973C12.1867 8.26181 12.1975 8.33392 12.2222 8.40174C12.2469 8.46956 12.2851 8.5317 12.3343 8.58445C12.3836 8.6372 12.443 8.67949 12.509 8.70878C12.575 8.73807 12.6462 8.75376 12.7184 8.75492C13.1675 8.77856 13.4545 8.91397 13.635 9.09558C13.8166 9.27826 13.952 9.57163 13.9767 10.0305C13.9781 10.1026 13.9939 10.1737 14.0233 10.2395C14.0527 10.3054 14.0951 10.3647 14.1479 10.4138C14.2007 10.4629 14.2628 10.5009 14.3306 10.5256C14.3984 10.5502 14.4704 10.5609 14.5424 10.5571C14.6145 10.5532 14.685 10.5349 14.7498 10.5033C14.8146 10.4716 14.8723 10.4273 14.9196 10.3728C14.9669 10.3184 15.0028 10.2549 15.025 10.1864C15.0473 10.1178 15.0555 10.0454 15.0492 9.97354C15.0148 9.32877 14.8128 8.75922 14.3991 8.34012C13.9832 7.92102 13.4169 7.71684 12.7742 7.68246Z" fill="url(#paint0_linear_80_347)"/>
<path d="M7.29586 5.52144C7.46956 5.41866 7.67321 5.37846 7.87293 5.40753L7.87078 5.40646C8.05676 5.44203 8.22421 5.54212 8.34361 5.68908C8.89107 6.31352 9.3759 6.99019 9.79112 7.70936C10.063 8.19079 9.88676 8.67866 9.63315 8.88499L9.10444 9.31054C8.83257 9.51686 8.8691 9.92092 8.8691 9.92092C8.8691 9.92092 9.6525 12.8922 12.5873 13.6412L12.598 13.6348C12.598 13.6348 12.9913 13.6713 13.2084 13.407L13.6307 12.874C13.8285 12.6096 14.3174 12.4516 14.7988 12.7128C15.5173 13.1308 16.1942 13.6166 16.8202 14.1635C17.1318 14.4246 17.2049 14.8093 16.9889 15.2177V15.2252C16.7589 15.6304 16.4634 15.9946 16.1142 16.3041C15.8282 16.5639 15.4635 16.7206 15.0782 16.749C14.9568 16.749 14.8364 16.7308 14.7043 16.6899V16.6835C14.2519 16.5502 13.4985 16.2311 12.2574 15.5551C11.1716 14.9546 10.1669 14.2179 9.26778 13.3629L9.23769 13.3371L9.21298 13.3081L9.17214 13.278L9.14635 13.2415C8.29392 12.3455 7.5607 11.3432 6.96488 10.2594C6.5028 9.48785 6.12453 8.66792 5.83439 7.81575L5.81504 7.805C5.76454 7.64058 5.74949 7.4665 5.77098 7.29456C5.80752 7.00441 5.94722 6.70352 6.20513 6.40585C6.51462 6.05553 6.87784 5.75786 7.28082 5.52144H7.29586Z" fill="url(#paint1_linear_80_347)"/>
<path d="M12.4513 4.27322C12.552 4.17245 12.6887 4.11584 12.8312 4.11584C14.4496 4.11584 15.852 4.6553 16.9599 5.7138L16.9706 5.72455C17.5337 6.29314 17.974 6.97125 18.2645 7.71688C18.5536 8.459 18.6857 9.25303 18.6524 10.0488C18.6464 10.1913 18.5841 10.3256 18.4791 10.4221C18.3741 10.5187 18.235 10.5695 18.0925 10.5635C17.95 10.5576 17.8157 10.4952 17.7192 10.3902C17.6714 10.3382 17.6343 10.2773 17.6101 10.211C17.5858 10.1447 17.5748 10.0742 17.5778 10.0037C17.6057 9.35675 17.4983 8.7109 17.2629 8.10589C17.0287 7.50196 16.6708 6.95068 16.212 6.48537C15.3189 5.63428 14.1906 5.19046 12.8312 5.19046C12.6887 5.19046 12.552 5.13385 12.4513 5.03309C12.3505 4.93232 12.2939 4.79566 12.2939 4.65315C12.2939 4.51065 12.3505 4.37398 12.4513 4.27322Z" fill="url(#paint2_linear_80_347)"/>
<path d="M12.4147 6.03989C12.5155 5.93912 12.6522 5.88251 12.7947 5.88251L12.8484 5.88144L12.8667 5.88359C14.0681 5.96418 15.0664 6.37684 15.7939 7.15701V7.15916C16.5053 7.92643 16.8642 8.88821 16.8385 10.0026C16.8352 10.1451 16.7754 10.2805 16.6723 10.3789C16.5693 10.4774 16.4313 10.5308 16.2888 10.5275C16.1463 10.5243 16.0109 10.4645 15.9125 10.3614C15.814 10.2583 15.7606 10.1204 15.7638 9.97787C15.7843 9.12893 15.5188 8.44225 15.0062 7.8899C14.5065 7.35366 13.793 7.02698 12.8129 6.95713H12.7947C12.6522 6.95713 12.5155 6.90052 12.4147 6.79976C12.314 6.69899 12.2574 6.56232 12.2574 6.41982C12.2574 6.27732 12.314 6.14065 12.4147 6.03989Z" fill="url(#paint3_linear_80_347)"/>
<path d="M12.5612 7.70663C12.6299 7.68436 12.7023 7.67615 12.7743 7.6825C13.4169 7.71688 13.9832 7.92106 14.3991 8.34016C14.8128 8.75926 15.0148 9.32881 15.0492 9.97358C15.0555 10.0454 15.0473 10.1178 15.025 10.1864C15.0028 10.255 14.9669 10.3184 14.9196 10.3729C14.8724 10.4273 14.8146 10.4717 14.7498 10.5033C14.685 10.535 14.6145 10.5533 14.5425 10.5571C14.4704 10.5609 14.3984 10.5502 14.3306 10.5256C14.2628 10.501 14.2007 10.463 14.1479 10.4138C14.0951 10.3647 14.0527 10.3054 14.0233 10.2396C13.9939 10.1737 13.9781 10.1026 13.9768 10.0305C13.952 9.57167 13.8166 9.2783 13.635 9.09561C13.4545 8.914 13.1676 8.7786 12.7184 8.75496C12.6462 8.7538 12.575 8.7381 12.509 8.70882C12.443 8.67953 12.3836 8.63724 12.3344 8.58449C12.2851 8.53174 12.247 8.4696 12.2222 8.40178C12.1975 8.33396 12.1867 8.26185 12.1904 8.18977C12.1942 8.11768 12.2124 8.04708 12.2441 7.9822C12.2757 7.91732 12.3201 7.85948 12.3746 7.81213C12.4291 7.76479 12.4926 7.72891 12.5612 7.70663Z" fill="url(#paint4_linear_80_347)"/>
<defs>
<linearGradient id="paint0_linear_80_347" x1="12.1004" y1="1" x2="12.1004" y2="23" gradientUnits="userSpaceOnUse">
<stop stop-color="#DC18FC"/>
<stop offset="1" stop-color="#8E1EFF"/>
</linearGradient>
<linearGradient id="paint1_linear_80_347" x1="12.2095" y1="4.11584" x2="12.2095" y2="16.749" gradientUnits="userSpaceOnUse">
<stop stop-color="#DC18FC"/>
<stop offset="1" stop-color="#8E1EFF"/>
</linearGradient>
<linearGradient id="paint2_linear_80_347" x1="12.2095" y1="4.11584" x2="12.2095" y2="16.749" gradientUnits="userSpaceOnUse">
<stop stop-color="#DC18FC"/>
<stop offset="1" stop-color="#8E1EFF"/>
</linearGradient>
<linearGradient id="paint3_linear_80_347" x1="12.2095" y1="4.11584" x2="12.2095" y2="16.749" gradientUnits="userSpaceOnUse">
<stop stop-color="#DC18FC"/>
<stop offset="1" stop-color="#8E1EFF"/>
</linearGradient>
<linearGradient id="paint4_linear_80_347" x1="12.2095" y1="4.11584" x2="12.2095" y2="16.749" gradientUnits="userSpaceOnUse">
<stop stop-color="#DC18FC"/>
<stop offset="1" stop-color="#8E1EFF"/>
</linearGradient>
</defs>
</svg>
