<svg width="64" height="64" viewBox="0 0 64 64" fill="none" xmlns="http://www.w3.org/2000/svg">
<path opacity="0.4" d="M32 60C47.464 60 60 47.464 60 32C60 16.536 47.464 4 32 4C16.536 4 4 16.536 4 32C4 47.464 16.536 60 32 60Z" fill="url(#paint0_linear_223_130)"/>
<path d="M20.9206 14.0021C17.1003 14.0021 14 17.1024 14 20.9227C14 24.7459 17.0994 27.8455 20.9228 27.8455C22.0534 27.8455 23.1004 27.523 24.0395 27.0337C24.1945 26.953 24.3844 26.9749 24.512 27.0944L29.4395 31.7089C29.6083 31.8669 29.6083 32.1347 29.4396 32.2928L24.5142 36.9054C24.3867 37.0249 24.1968 37.0469 24.0418 36.9661C23.1027 36.4768 22.0556 36.1543 20.9251 36.1543C17.1048 36.1543 14.0045 39.2546 14.0045 43.0794C14.0045 46.8997 17.1048 50 20.9251 50C24.7484 50 27.8479 46.9006 27.8479 43.0772C27.8479 42.5252 27.7725 42.0003 27.6477 41.4888C27.6132 41.3471 27.6535 41.1969 27.7581 41.0953L33.198 35.8156C33.3517 35.6664 33.5955 35.6648 33.7512 35.8117L45.7314 47.122C45.8057 47.192 45.9039 47.2311 46.006 47.2311H49.6006C49.8215 47.2311 50.0006 47.052 50.0006 46.8311V44.6314C50.0006 44.5232 49.9567 44.4195 49.879 44.3442L27.7584 22.907C27.6535 22.8054 27.6132 22.655 27.6478 22.5132C27.7727 22.0018 27.8478 21.477 27.8478 20.9251C27.8478 17.1003 24.7454 14.0021 20.9206 14.0021ZM20.9206 18.1557C22.4499 18.1557 23.6896 19.3954 23.6896 20.9247C23.6896 22.454 22.4499 23.6938 20.9206 23.6938C19.3913 23.6938 18.1515 22.454 18.1515 20.9247C18.1515 19.3954 19.3913 18.1557 20.9206 18.1557ZM46.0014 16.7712C45.8992 16.7712 45.801 16.8102 45.7267 16.8804L35.2419 26.7828C35.0767 26.9388 35.0745 27.201 35.2371 27.3598L38.295 30.3448C38.45 30.4961 38.6973 30.4965 38.8528 30.3457L49.8744 19.6584C49.9521 19.5831 49.996 19.4795 49.996 19.3713V17.1715C49.996 16.9506 49.8169 16.7715 49.596 16.7715L46.0014 16.7712ZM20.9206 40.3083C22.4499 40.3083 23.6896 41.5481 23.6896 43.0774C23.6896 44.6067 22.4499 45.8464 20.9206 45.8464C19.3913 45.8464 18.1515 44.6067 18.1515 43.0774C18.1515 41.5481 19.3913 40.3083 20.9206 40.3083Z" fill="url(#paint1_linear_223_130)"/>
<defs>
<linearGradient id="paint0_linear_223_130" x1="32" y1="4" x2="32" y2="60" gradientUnits="userSpaceOnUse">
<stop stop-color="#97EB0E"/>
<stop offset="1" stop-color="#19B90B"/>
</linearGradient>
<linearGradient id="paint1_linear_223_130" x1="32.0003" y1="14" x2="32.0003" y2="50" gradientUnits="userSpaceOnUse">
<stop stop-color="#97EB0E"/>
<stop offset="1" stop-color="#19B90B"/>
</linearGradient>
</defs>
</svg>
