<svg width="32" height="32" viewBox="0 0 32 32" fill="none" xmlns="http://www.w3.org/2000/svg">
<path opacity="0.4" d="M15.9996 2C15.2662 2 14.5324 2.27335 13.9842 2.82154L2.82153 13.9854C1.72511 15.0818 1.72667 16.9166 2.82313 18.013L13.9858 29.1769C15.0822 30.2733 16.9186 30.2749 18.0151 29.1785L29.1777 18.0146C30.2741 16.9182 30.2741 15.0819 29.1777 13.9855L18.015 2.82154C17.4668 2.27335 16.733 2 15.9996 2Z" fill="url(#paint0_linear_297_160)"/>
<path d="M4.625 5.5C4.14025 5.5 3.75 5.89025 3.75 6.375C3.75 6.85975 4.14025 7.25 4.625 7.25V7.25C5.10825 7.25 5.5 7.64175 5.5 8.125V23.875C5.50025 26.2393 8.38073 27.3984 10.0186 25.6934L27.8144 7.13805C27.8563 7.09428 27.9031 7.05549 27.9489 7.01566C28.1298 6.85797 28.25 6.63529 28.25 6.375C28.25 5.89025 27.8598 5.5 27.375 5.5H20.375C19.8903 5.5 19.5 5.89025 19.5 6.375C19.5 6.85975 19.8903 7.25 20.375 7.25V7.25C20.3956 7.25 20.4061 7.27464 20.3918 7.28947L12.4717 15.548C11.8481 16.1983 10.75 15.7568 10.75 14.8558V8.125C10.75 7.64175 11.1418 7.25 11.625 7.25V7.25C12.1098 7.25 12.5 6.85975 12.5 6.375C12.5 5.89025 12.1098 5.5 11.625 5.5H4.625Z" fill="url(#paint1_linear_297_160)"/>
<defs>
<linearGradient id="paint0_linear_297_160" x1="29.2103" y1="16" x2="5.84692" y2="7.54862" gradientUnits="userSpaceOnUse">
<stop stop-color="#FE7970"/>
<stop offset="1" stop-color="#DC3282"/>
</linearGradient>
<linearGradient id="paint1_linear_297_160" x1="28.1774" y1="5.63316" x2="7.55637" y2="29.4848" gradientUnits="userSpaceOnUse">
<stop stop-color="#FE7970"/>
<stop offset="1" stop-color="#DC3282"/>
</linearGradient>
</defs>
</svg>
