<svg width="24" height="24" viewBox="0 0 24 24" fill="none" xmlns="http://www.w3.org/2000/svg">
<path opacity="0.4" d="M12 23C18.0753 23 23 18.0753 23 12C23 5.9247 18.0753 1 12 1C5.9247 1 1 5.9247 1 12C1 18.0753 5.9247 23 12 23Z" fill="url(#paint0_linear_8_352)"/>
<path d="M13.1264 14.816C13.6687 14.5993 13.9393 14.4904 14.1516 14.3045C14.2066 14.2572 14.2572 14.2055 14.3045 14.1516C14.4915 13.9393 14.5993 13.6676 14.816 13.1264C15.8324 10.5854 16.3406 9.31493 15.8478 8.59003C15.7308 8.41778 15.5823 8.26923 15.41 8.15223C14.684 7.65943 13.4146 8.16763 10.8736 9.18403C10.3313 9.40073 10.0596 9.50853 9.84733 9.69553C9.79343 9.74283 9.74283 9.79453 9.69553 9.84843C9.50853 10.0607 9.40073 10.3324 9.18403 10.8736C8.16763 13.4146 7.65943 14.684 8.15223 15.41C8.26923 15.5823 8.41778 15.7308 8.59003 15.8478C9.31603 16.3406 10.5854 15.8324 13.1264 14.816Z" fill="url(#paint1_linear_8_352)"/>
<defs>
<linearGradient id="paint0_linear_8_352" x1="12" y1="23" x2="12" y2="1" gradientUnits="userSpaceOnUse">
<stop stop-color="#5558FF"/>
<stop offset="1" stop-color="#00C0FF"/>
</linearGradient>
<linearGradient id="paint1_linear_8_352" x1="12" y1="16.0379" x2="12" y2="7.96216" gradientUnits="userSpaceOnUse">
<stop stop-color="#5558FF"/>
<stop offset="1" stop-color="#00C0FF"/>
</linearGradient>
</defs>
</svg>
