<svg width="128" height="128" viewBox="0 0 128 128" fill="none" xmlns="http://www.w3.org/2000/svg">
<rect opacity="0.4" x="6" y="6" width="116" height="116" rx="18" fill="url(#paint0_linear_37_287)"/>
<path d="M43.0447 43.3581C43.4021 41.8055 44.983 40.7262 46.4681 41.0612C47.7569 41.2845 48.7034 42.4754 48.93 43.794C51.4975 53.9546 54.1456 64.0991 56.6527 74.2755C57.5892 72.2287 58.0724 69.9369 59.2706 68.0439C61.1333 65.6835 65.1659 67.8635 64.3805 70.846C62.7695 75.5462 60.8514 80.1349 59.1447 84.7976C58.7822 85.9036 58.0825 87.0413 56.9145 87.2755C55.379 87.7699 53.612 86.7279 53.2444 85.0685C51.0142 76.4718 48.8695 67.8477 46.6494 59.2448C46.3171 58.0698 46.02 56.8841 45.8891 55.6665C42.9691 65.5188 40.3261 75.4613 37.4716 85.3345C36.9682 87.2008 34.6725 88.1365 33.1219 87.0736C31.9388 86.3822 31.662 84.8881 31.2844 83.6383C27.5892 71.048 23.8233 58.4845 20.1482 45.8889C19.675 44.4586 20.3748 42.7412 21.6788 42.1138C23.8737 40.8857 26.0384 43.0709 26.255 45.3466C29.0038 54.7361 31.823 64.0991 34.5567 73.4943C37.3961 63.4504 40.1953 53.3963 43.0447 43.3581Z" fill="url(#paint1_linear_37_287)"/>
<path d="M69.234 42.8317C70.2203 40.3966 73.9759 40.6518 74.671 43.1986C77.2433 53.056 79.7105 62.9453 82.2328 72.8188C85.062 63.0889 87.7653 53.3165 90.6599 43.6133C91.5968 41.0612 95.5284 41.2951 96.1779 43.9589C100.075 56.8735 103.91 69.8097 107.772 82.735C108.542 84.569 107.268 86.914 105.371 87.0837C103.977 87.3072 102.541 86.3132 102.154 84.8825C99.2186 75.1372 96.3235 65.3752 93.3986 55.624C90.6098 65.5134 87.7603 75.3759 84.9158 85.2446C84.3068 88.0143 80.2138 88.2429 79.3325 85.563C76.5589 75.153 74.0215 64.668 71.2928 54.2469C70.5629 56.2408 69.8329 58.2399 69.0422 60.2125C68.4686 61.7863 66.5706 62.5891 65.1307 61.8607C63.6154 61.228 62.8703 59.1811 63.5901 57.6339C65.468 52.6997 67.3005 47.7391 69.234 42.8317Z" stroke="url(#paint2_linear_37_287)" stroke-width="3"/>
<path d="M69.234 42.8317C70.2203 40.3966 73.9759 40.6518 74.671 43.1986C77.2433 53.056 79.7105 62.9453 82.2328 72.8188C85.062 63.0889 87.7653 53.3165 90.6599 43.6133C91.5968 41.0612 95.5284 41.2951 96.1779 43.9589C100.075 56.8735 103.91 69.8097 107.772 82.735C108.542 84.569 107.268 86.914 105.371 87.0837C103.977 87.3072 102.541 86.3132 102.154 84.8825C99.2186 75.1372 96.3235 65.3752 93.3986 55.624C90.6098 65.5134 87.7603 75.3759 84.9158 85.2446C84.3068 88.0143 80.2138 88.2429 79.3325 85.563C76.5589 75.153 74.0215 64.668 71.2928 54.2469C70.5629 56.2408 69.8329 58.2399 69.0422 60.2125C68.4686 61.7863 66.5706 62.5891 65.1307 61.8607C63.6154 61.228 62.8703 59.1811 63.5901 57.6339C65.468 52.6997 67.3005 47.7391 69.234 42.8317Z" fill="url(#paint3_linear_37_287)"/>
<path d="M43.0447 43.3581C43.4021 41.8055 44.983 40.7262 46.4681 41.0612C47.7569 41.2845 48.7034 42.4754 48.93 43.794C51.4975 53.9546 54.1456 64.0991 56.6527 74.2755C57.5892 72.2287 58.0724 69.9369 59.2706 68.0439C61.1333 65.6835 65.1659 67.8635 64.3805 70.846C62.7695 75.5462 60.8514 80.1349 59.1447 84.7976C58.7822 85.9036 58.0825 87.0413 56.9145 87.2755C55.379 87.7699 53.612 86.7279 53.2444 85.0685C51.0142 76.4718 48.8695 67.8477 46.6494 59.2448C46.3171 58.0698 46.02 56.8841 45.8891 55.6665C42.9691 65.5188 40.3261 75.4613 37.4716 85.3345C36.9682 87.2008 34.6725 88.1365 33.1219 87.0736C31.9388 86.3822 31.662 84.8881 31.2844 83.6383C27.5892 71.048 23.8233 58.4845 20.1482 45.8889C19.675 44.4586 20.3748 42.7412 21.6788 42.1138C23.8737 40.8857 26.0384 43.0709 26.255 45.3466C29.0038 54.7361 31.823 64.0991 34.5567 73.4943C37.3961 63.4504 40.1953 53.3963 43.0447 43.3581Z" stroke="url(#paint4_linear_37_287)" stroke-width="3"/>
<defs>
<linearGradient id="paint0_linear_37_287" x1="64.0005" y1="122" x2="64.0005" y2="5.99997" gradientUnits="userSpaceOnUse">
<stop stop-color="#5570FF"/>
<stop offset="1" stop-color="#4DD3FF"/>
</linearGradient>
<linearGradient id="paint1_linear_37_287" x1="85.6569" y1="87.4527" x2="85.6569" y2="41.1396" gradientUnits="userSpaceOnUse">
<stop stop-color="#5570FF"/>
<stop offset="1" stop-color="#4DD3FF"/>
</linearGradient>
<linearGradient id="paint2_linear_37_287" x1="85.6569" y1="87.4527" x2="85.6569" y2="41.1396" gradientUnits="userSpaceOnUse">
<stop stop-color="#5570FF"/>
<stop offset="1" stop-color="#4DD3FF"/>
</linearGradient>
<linearGradient id="paint3_linear_37_287" x1="85.6569" y1="87.4527" x2="85.6569" y2="41.1396" gradientUnits="userSpaceOnUse">
<stop stop-color="#5570FF"/>
<stop offset="1" stop-color="#4DD3FF"/>
</linearGradient>
<linearGradient id="paint4_linear_37_287" x1="85.6569" y1="87.4527" x2="85.6569" y2="41.1396" gradientUnits="userSpaceOnUse">
<stop stop-color="#5570FF"/>
<stop offset="1" stop-color="#4DD3FF"/>
</linearGradient>
</defs>
</svg>
