<svg width="48" height="48" viewBox="0 0 48 48" fill="none" xmlns="http://www.w3.org/2000/svg">
<path opacity="0.5" d="M13.6036 5.99951L9.94971 6.95992C9.94971 6.95992 12.0369 10.7657 12.8296 14.1641C14.0597 19.4378 14.0296 23.746 14.0296 23.746L17.8999 21.9001C17.8999 21.9001 15.5876 19.2043 14.2841 13.7847C13.5265 10.6345 13.6036 5.99951 13.6036 5.99951Z" fill="url(#paint0_linear_695_76)"/>
<path opacity="0.5" d="M30.9823 15.0117C30.9823 15.0117 29.4688 18.9578 27.6714 20.6088C25.9192 22.2182 21.9644 23.9411 21.9644 23.9411L25.0063 26.7457C25.0063 26.7457 26.0779 24.0356 28.2769 22.1841C30.3676 20.4237 34.7054 18.8379 34.7054 18.8379L30.9823 15.0117Z" fill="url(#paint1_linear_695_76)"/>
<path opacity="0.5" d="M20.207 17.25C20.207 17.25 20.7039 18.394 20.3166 19.7077C19.9549 20.9345 18.4634 22.5593 18.4634 22.5593L21.6276 23.0859C21.6276 23.0859 21.3295 21.4729 21.7107 20.2616C22.1293 18.9311 23.3031 18.1172 23.3031 18.1172L20.207 17.25Z" fill="url(#paint2_linear_695_76)"/>
<path opacity="0.5" d="M20.6917 37.2744L16.812 37.6592C16.812 37.6592 18.601 38.7733 18.7855 39.8687C18.9306 40.7308 19.012 41.8004 19.012 41.8004L20.8483 41.3475C20.8483 41.3475 20.3039 40.3647 19.9968 39.6369C19.534 38.5402 20.6917 37.2744 20.6917 37.2744Z" fill="url(#paint3_linear_695_76)"/>
<path d="M17.9001 38.3998C22.7602 38.3998 26.7001 34.4599 26.7001 29.5998C26.7001 24.7397 22.7602 20.7998 17.9001 20.7998C13.04 20.7998 9.1001 24.7397 9.1001 29.5998C9.1001 34.4599 13.04 38.3998 17.9001 38.3998Z" fill="url(#paint4_linear_695_76)"/>
<path d="M35.5 19.7002C38.5376 19.7002 41 17.2378 41 14.2002C41 11.1626 38.5376 8.7002 35.5 8.7002C32.4624 8.7002 30 11.1626 30 14.2002C30 17.2378 32.4624 19.7002 35.5 19.7002Z" fill="url(#paint5_linear_695_76)"/>
<path d="M11.3 7.6C13.1225 7.6 14.6 6.12254 14.6 4.3C14.6 2.47746 13.1225 1 11.3 1C9.47746 1 8 2.47746 8 4.3C8 6.12254 9.47746 7.6 11.3 7.6Z" fill="url(#paint6_linear_695_76)"/>
<path d="M22.3 18.6C24.1225 18.6 25.6 17.1225 25.6 15.3C25.6 13.4775 24.1225 12 22.3 12C20.4775 12 19 13.4775 19 15.3C19 17.1225 20.4775 18.6 22.3 18.6Z" fill="url(#paint7_linear_695_76)"/>
<path d="M20.0999 45.0001C21.3149 45.0001 22.2999 44.0151 22.2999 42.8001C22.2999 41.5851 21.3149 40.6001 20.0999 40.6001C18.8849 40.6001 17.8999 41.5851 17.8999 42.8001C17.8999 44.0151 18.8849 45.0001 20.0999 45.0001Z" fill="url(#paint8_linear_695_76)"/>
<path d="M32.2 39.5001C33.415 39.5001 34.4 38.5151 34.4 37.3001C34.4 36.0851 33.415 35.1001 32.2 35.1001C30.985 35.1001 30 36.0851 30 37.3001C30 38.5151 30.985 39.5001 32.2 39.5001Z" fill="url(#paint9_linear_695_76)"/>
<path d="M29.4498 32.9001C30.3611 32.9001 31.0998 32.1614 31.0998 31.2501C31.0998 30.3388 30.3611 29.6001 29.4498 29.6001C28.5385 29.6001 27.7998 30.3388 27.7998 31.2501C27.7998 32.1614 28.5385 32.9001 29.4498 32.9001Z" fill="url(#paint10_linear_695_76)"/>
<defs>
<linearGradient id="paint0_linear_695_76" x1="17.3134" y1="2.2815" x2="5.02769" y2="8.1873" gradientUnits="userSpaceOnUse">
<stop stop-color="#FE7970"/>
<stop offset="1" stop-color="#D92B1A"/>
</linearGradient>
<linearGradient id="paint1_linear_695_76" x1="33.7655" y1="12.5534" x2="23.484" y2="24.5327" gradientUnits="userSpaceOnUse">
<stop stop-color="#FE7970"/>
<stop offset="1" stop-color="#D92B1A"/>
</linearGradient>
<linearGradient id="paint2_linear_695_76" x1="22.9461" y1="16.0273" x2="17.8078" y2="20.5998" gradientUnits="userSpaceOnUse">
<stop stop-color="#FE7970"/>
<stop offset="1" stop-color="#D92B1A"/>
</linearGradient>
<linearGradient id="paint3_linear_695_76" x1="20.5506" y1="36.3262" x2="16.5423" y2="40.1619" gradientUnits="userSpaceOnUse">
<stop stop-color="#FE7970"/>
<stop offset="1" stop-color="#D92B1A"/>
</linearGradient>
<linearGradient id="paint4_linear_695_76" x1="17.9001" y1="38.3998" x2="17.9001" y2="20.7998" gradientUnits="userSpaceOnUse">
<stop stop-color="#FF2424"/>
<stop offset="1" stop-color="#FF8D8D"/>
</linearGradient>
<linearGradient id="paint5_linear_695_76" x1="35.5" y1="19.7002" x2="35.5" y2="8.7002" gradientUnits="userSpaceOnUse">
<stop stop-color="#FF2424"/>
<stop offset="1" stop-color="#FF8D8D"/>
</linearGradient>
<linearGradient id="paint6_linear_695_76" x1="11.3" y1="7.6" x2="11.3" y2="1" gradientUnits="userSpaceOnUse">
<stop stop-color="#FF2424"/>
<stop offset="1" stop-color="#FF8D8D"/>
</linearGradient>
<linearGradient id="paint7_linear_695_76" x1="22.3" y1="18.6" x2="22.3" y2="12" gradientUnits="userSpaceOnUse">
<stop stop-color="#FF2424"/>
<stop offset="1" stop-color="#FF8D8D"/>
</linearGradient>
<linearGradient id="paint8_linear_695_76" x1="20.0999" y1="45.0001" x2="20.0999" y2="40.6001" gradientUnits="userSpaceOnUse">
<stop stop-color="#FF2424"/>
<stop offset="1" stop-color="#FF8D8D"/>
</linearGradient>
<linearGradient id="paint9_linear_695_76" x1="32.2" y1="39.5001" x2="32.2" y2="35.1001" gradientUnits="userSpaceOnUse">
<stop stop-color="#FF2424"/>
<stop offset="1" stop-color="#FF8D8D"/>
</linearGradient>
<linearGradient id="paint10_linear_695_76" x1="29.4498" y1="32.9001" x2="29.4498" y2="29.6001" gradientUnits="userSpaceOnUse">
<stop stop-color="#FF2424"/>
<stop offset="1" stop-color="#FF8D8D"/>
</linearGradient>
</defs>
</svg>
