<svg width="16" height="16" viewBox="0 0 16 16" fill="none" xmlns="http://www.w3.org/2000/svg">
<path opacity="0.4" d="M8.74534 1.18284C8.49336 0.930857 8.0625 1.10932 8.0625 1.46569V2.1C8.0625 2.32091 7.88501 2.50274 7.66509 2.52361C6.38274 2.64527 2.4375 3.39385 2.4375 8C2.4375 8.18905 2.45923 8.39453 2.4946 8.60374C2.56735 9.03413 3.0625 8.95347 3.0625 8.51697V8C3.0625 5.5 6.0625 4.25 8.0625 4.25H10.8468C11.2032 4.25 11.3816 3.81914 11.1297 3.56716L8.74534 1.18284ZM13.5605 7.8854C13.545 7.43254 13.0625 7.49029 13.0625 7.94341V8C13.0625 10.5 10.0625 11.75 8.0625 11.75H5.27819C4.92182 11.75 4.74336 12.1809 4.99534 12.4328L7.37966 14.8172C7.63164 15.0691 8.0625 14.8907 8.0625 14.5343V13.9C8.0625 13.6791 8.23969 13.4972 8.45954 13.4756C9.72219 13.3514 13.5625 12.5958 13.5625 8C13.5625 7.96241 13.5618 7.92418 13.5605 7.8854Z" fill="#FF007F"/>
<path d="M6.40454 10.2526V5.74741C6.40454 5.42793 6.7606 5.23737 7.02642 5.41459L10.4053 7.66718C10.6428 7.82551 10.6428 8.17449 10.4053 8.33282L7.02642 10.5854C6.7606 10.7626 6.40454 10.5721 6.40454 10.2526Z" fill="#FF007F"/>
</svg>
