<svg width="24" height="24" viewBox="0 0 24 24" fill="none" xmlns="http://www.w3.org/2000/svg">
<path d="M1.37967 17.7911C1.10162 18.3586 0.972625 18.9875 1.00484 19.6186C1.03706 20.2497 1.22942 20.8622 1.56381 21.3984C1.8982 21.9346 2.3636 22.3769 2.91617 22.6835C3.46873 22.9901 4.09026 23.151 4.7222 23.151H19.2769C19.9089 23.1512 20.5305 22.9904 21.0832 22.6838C21.6359 22.3773 22.1014 21.9351 22.4359 21.3988C22.7704 20.8626 22.9629 20.25 22.9951 19.6188C23.0274 18.9876 22.8984 18.3586 22.6203 17.7911L22.3298 17.1975C22.1619 16.8546 21.8134 16.6372 21.4316 16.6372H2.56838C2.18657 16.6372 1.83809 16.8546 1.67022 17.1975L1.37967 17.7911Z" fill="url(#paint0_linear_309_370)"/>
<path opacity="0.7" d="M19.1391 10.6832C18.9711 10.3404 18.6227 10.123 18.241 10.123H5.75912C5.3774 10.123 5.02897 10.3404 4.86106 10.6832L3.56176 13.3359C3.23634 14.0003 3.72001 14.7758 4.45982 14.7758H19.5403C20.2801 14.7758 20.7638 14.0003 20.4384 13.3359L19.1391 10.6832Z" fill="url(#paint1_linear_309_370)"/>
<path opacity="0.4" d="M15.3434 2.93451C15.0372 2.30894 14.5615 1.78187 13.9705 1.41321C13.3795 1.04456 12.697 0.849121 12.0005 0.849121C11.3039 0.849121 10.6214 1.04456 10.0304 1.41321C9.43944 1.78187 8.96376 2.30894 8.65747 2.93451L6.75096 6.82153C6.42508 7.48596 6.90874 8.26189 7.64878 8.26189H16.3515C17.0914 8.26189 17.5751 7.48607 17.2493 6.82166L15.3434 2.93451Z" fill="url(#paint2_linear_309_370)"/>
<defs>
<linearGradient id="paint0_linear_309_370" x1="1" y1="19.894" x2="22.5328" y2="19.4148" gradientUnits="userSpaceOnUse">
<stop stop-color="#FD5900"/>
<stop offset="1" stop-color="#FFDE00"/>
</linearGradient>
<linearGradient id="paint1_linear_309_370" x1="2.85651" y1="12.4494" x2="20.7521" y2="11.9859" gradientUnits="userSpaceOnUse">
<stop stop-color="#FD5900"/>
<stop offset="1" stop-color="#FFDE00"/>
</linearGradient>
<linearGradient id="paint2_linear_309_370" x1="6.04449" y1="4.55543" x2="17.707" y2="4.43196" gradientUnits="userSpaceOnUse">
<stop stop-color="#FD5900"/>
<stop offset="1" stop-color="#FFDE00"/>
</linearGradient>
</defs>
</svg>
