<svg width="64" height="64" viewBox="0 0 64 64" fill="none" xmlns="http://www.w3.org/2000/svg">
<path opacity="0.4" d="M8.00039 4C5.78435 4 4 5.75639 4 7.93789V24.968C4 27.1493 5.98388 28.8063 8.2 28.8063C10.416 28.8063 12.4 27.1494 12.4 24.968V19.9204C12.4 19.0166 13.5038 18.5765 14.1256 19.2323L17.7256 23.0287C17.9018 23.2144 18 23.4607 18 23.7167V27.8063C18 28.3586 18.4477 28.8063 19 28.8063H25.0008C25.5531 28.8063 26.0008 28.3586 26.0008 27.8063V27.6246C26.0008 26.5339 26.8916 25.657 27.9996 25.657H28.2C28.7523 25.657 29.2 25.2093 29.2 24.657V18.7812C29.2 18.2289 28.7523 17.7812 28.2 17.7812H24.0143C23.7637 17.7812 23.5222 17.6871 23.3377 17.5175L19.515 14.005C18.8439 13.3884 19.2802 12.2687 20.1917 12.2687H25.3008C27.5168 12.2687 29.2 10.3159 29.2 8.13437C29.2 5.95296 27.5169 4 25.3008 4H8.00039ZM38.9993 34.3188C38.447 34.3188 37.9993 34.7665 37.9993 35.3188V35.5004C37.9993 36.5911 37.1084 37.468 36.0004 37.468H35.8C35.2477 37.468 34.8 37.9157 34.8 38.468V44.3438C34.8 44.8961 35.2477 45.3438 35.8 45.3438H39.9857C40.2363 45.3438 40.4778 45.4379 40.6623 45.6074L44.4849 49.1198C45.156 49.7365 44.7197 50.8562 43.8083 50.8562H38.6993C36.4831 50.8562 34.8 52.8092 34.8 54.9906C34.8 57.172 36.4831 59.125 38.6993 59.125H55.9996C58.2156 59.125 60 57.3686 60 55.1871V38.157C60 35.9756 58.0161 34.3188 55.8 34.3188C53.584 34.3188 51.6 35.9756 51.6 38.157V43.2046C51.6 44.1084 50.4962 44.5485 49.8744 43.8927L46.2744 40.0963C46.0982 39.9106 46 39.6643 46 39.4083V35.3188C46 34.7665 45.5523 34.3188 45 34.3188H38.9993Z" fill="url(#paint0_linear_80_227)"/>
<path d="M34.8 8.13437C34.8 5.95296 36.4831 4 38.6993 4H55.9996C58.2156 4 60 5.75639 60 7.93789V24.968C60 27.1493 58.0161 28.8063 55.8 28.8063C53.584 28.8063 51.6 27.1494 51.6 24.968V19.9204C51.6 19.0166 50.4962 18.5765 49.8744 19.2323L46.2744 23.0287C46.0982 23.2144 46 23.4607 46 23.7167V27.8063C46 28.3586 45.5523 28.8063 45 28.8063H38.9993C38.447 28.8063 37.9993 28.3586 37.9993 27.8063V27.6246C37.9993 26.5339 37.1084 25.657 36.0004 25.657H35.8C35.2477 25.657 34.8 25.2093 34.8 24.657V18.7812C34.8 18.2289 35.2477 17.7812 35.8 17.7812H39.9857C40.2363 17.7812 40.4778 17.6871 40.6623 17.5175L44.485 14.005C45.1561 13.3884 44.7198 12.2687 43.8083 12.2687H38.6993C36.4831 12.2687 34.8 10.3159 34.8 8.13437Z" fill="url(#paint1_linear_80_227)"/>
<path d="M18 41.4059V35.3188C18 34.7665 18.4477 34.3188 19 34.3188H25.0008C25.5531 34.3188 26.0008 34.7665 26.0008 35.3188V35.5004C26.0008 36.5911 26.8916 37.468 27.9996 37.468H28.2C28.7523 37.468 29.2 37.9157 29.2 38.468V44.3438C29.2 44.8961 28.7523 45.3438 28.2 45.3438H22.0004C19.7827 45.3438 18 43.5888 18 41.4059Z" fill="url(#paint2_linear_80_227)"/>
<defs>
<linearGradient id="paint0_linear_80_227" x1="32" y1="59.125" x2="32" y2="4" gradientUnits="userSpaceOnUse">
<stop stop-color="#FDA700"/>
<stop offset="1" stop-color="#FFDE00"/>
</linearGradient>
<linearGradient id="paint1_linear_80_227" x1="32" y1="59.125" x2="32" y2="4" gradientUnits="userSpaceOnUse">
<stop stop-color="#FDA700"/>
<stop offset="1" stop-color="#FFDE00"/>
</linearGradient>
<linearGradient id="paint2_linear_80_227" x1="32" y1="59.125" x2="32" y2="4" gradientUnits="userSpaceOnUse">
<stop stop-color="#FDA700"/>
<stop offset="1" stop-color="#FFDE00"/>
</linearGradient>
</defs>
</svg>
