<svg width="64" height="64" viewBox="0 0 64 64" fill="none" xmlns="http://www.w3.org/2000/svg">
<path opacity="0.4" d="M10.5072 4.32348C11.3852 4.08184 12.2951 3.99655 13.2049 4.00011C25.8725 4.00721 38.54 3.993 51.2075 4.00721C55.8174 3.95036 59.9901 8.02268 59.9653 12.6458C59.983 25.314 59.9653 37.9788 59.9759 50.647C60.3598 55.5082 56.0946 60.0389 51.2288 59.9927C38.3267 59.9963 25.421 60.0105 12.5154 59.9856C8.00146 59.8967 4.02421 55.9026 4.00644 51.3791C3.99578 38.4585 3.99933 25.5379 4.00999 12.6174C4.03487 8.81511 6.83921 5.27937 10.5072 4.32348Z" fill="url(#paint0_linear_60_229)"/>
<path d="M10.4231 14.153C13.9866 13.86 17.5951 14.117 21.1722 14.0223C22.0022 13.9366 22.999 14.1756 23.2742 15.0731C26.1114 21.265 28.8134 27.52 31.6596 33.7028C32.1242 34.8438 33.9917 34.7897 34.3841 33.6126C37.2259 27.3982 39.9504 21.1252 42.7922 14.9062C43.4688 13.5443 45.2235 14.1621 46.4233 14.0223C47.524 14.1395 49.0216 13.6345 49.7612 14.7304C50.2755 15.4699 49.847 16.3493 49.5222 17.0573C44.7544 27.2133 40.0406 37.3963 35.2863 47.5612C34.7947 49.4779 31.4883 49.5411 30.8026 47.7552C26.549 38.6365 22.2864 29.5178 18.0417 20.3901C17.7847 19.912 17.6178 19.3077 17.0629 19.0777C14.8887 17.8826 12.5837 16.9446 10.4276 15.7089C9.80956 15.4384 9.90884 14.4777 10.4231 14.153Z" fill="url(#paint1_linear_60_229)"/>
<defs>
<linearGradient id="paint0_linear_60_229" x1="32" y1="60" x2="32" y2="4" gradientUnits="userSpaceOnUse">
<stop stop-color="#00B59C"/>
<stop offset="1" stop-color="#9CFFAC"/>
</linearGradient>
<linearGradient id="paint1_linear_60_229" x1="30.0001" y1="49.0484" x2="30.0001" y2="14" gradientUnits="userSpaceOnUse">
<stop stop-color="#00B59C"/>
<stop offset="1" stop-color="#9CFFAC"/>
</linearGradient>
</defs>
</svg>
