<svg width="48" height="48" viewBox="0 0 48 48" fill="none" xmlns="http://www.w3.org/2000/svg">
<path opacity="0.5" d="M19.3078 40.2784L36.8622 13.022C37.2189 12.4657 37.9213 12.0965 38.6112 12.2489L45.8429 13.8407C45.9718 13.858 46.0409 13.9885 45.9733 14.0906L30.6189 39.5367C30.2701 40.1166 29.5771 40.4528 28.8511 40.456L19.4476 40.5C19.3235 40.5 19.2449 40.3774 19.3078 40.2784Z" fill="url(#paint0_linear_345_613)"/>
<path opacity="0.5" d="M2.01715 15.0785C2.04534 15.0094 2.08701 14.9203 2.1283 14.8581L6.31833 8.54827C6.8919 7.68241 7.1229 7.50013 7.42305 7.50013H14.7742C15.4326 7.4907 15.8758 8.01241 16.2639 8.54827L23.571 18.6131C23.8266 18.9652 23.8252 19.4421 23.5677 19.7927L18.9589 26.0665C18.6587 26.4735 18.0427 26.4484 17.7772 26.0178L11.2809 15.4845C11.2605 15.4515 11.2243 15.4295 11.1835 15.4295L2.35687 15.2753C2.18934 15.2724 1.95386 15.2336 2.01715 15.0785V15.0785Z" fill="url(#paint1_linear_345_613)"/>
<path d="M2.61443 14.49L11.1206 14.4318C11.8041 14.4271 12.4421 14.7634 12.7926 15.3134L18.8331 24.8284C18.9557 25.0201 19.1773 25.1395 19.4161 25.1395C19.6471 25.1395 19.864 25.028 19.9881 24.8441L31.1012 8.35984C31.4674 7.81613 32.1117 7.48927 32.7984 7.50027L40.5157 7.61498C41.2071 7.62441 41.8498 7.95755 42.2269 8.4997L45.9041 13.7781C45.9669 13.8677 45.9999 13.973 45.9999 14.0814C45.9999 14.3847 45.7328 14.6361 45.4075 14.6361C45.4059 14.6361 45.4044 14.6361 45.4028 14.6361L37.9197 14.5795C37.233 14.5748 36.5918 14.9048 36.2288 15.4501L19.7477 40.1969C19.622 40.3855 19.4004 40.5002 19.1631 40.5002C18.9258 40.5002 18.7043 40.3839 18.5785 40.1954L2.09429 15.3778C2.033 15.2851 2 15.1798 2 15.0698C2 14.754 2.27657 14.4931 2.61443 14.49Z" fill="url(#paint2_linear_345_613)"/>
<defs>
<linearGradient id="paint0_linear_345_613" x1="32.6427" y1="40.5" x2="32.6427" y2="12.2144" gradientUnits="userSpaceOnUse">
<stop stop-color="#FDA700"/>
<stop offset="1" stop-color="#FFDE00"/>
</linearGradient>
<linearGradient id="paint1_linear_345_613" x1="13" y1="26.3569" x2="13" y2="7.5" gradientUnits="userSpaceOnUse">
<stop stop-color="#FDA700"/>
<stop offset="1" stop-color="#FFDE00"/>
</linearGradient>
<linearGradient id="paint2_linear_345_613" x1="24" y1="40.5002" x2="24" y2="7.5" gradientUnits="userSpaceOnUse">
<stop stop-color="#FDA700"/>
<stop offset="1" stop-color="#FFDE00"/>
</linearGradient>
</defs>
</svg>
