<svg width="128" height="128" viewBox="0 0 128 128" fill="none" xmlns="http://www.w3.org/2000/svg">
<g opacity="0.4">
<path d="M93.75 8H34.25C19.7525 8 8 19.7525 8 34.25V93.75C8 108.247 19.7525 120 34.25 120H93.75C108.247 120 120 108.247 120 93.75V34.25C120 19.7525 108.247 8 93.75 8Z" fill="url(#paint0_linear_80_464)"/>
</g>
<path d="M77.499 17.66C77.8143 17.1616 78.2483 16.749 78.762 16.4593C79.2758 16.1696 79.8534 16.0118 80.4431 16C82.1031 15.996 83.6831 16.928 84.6431 18.256C85.5471 19.524 85.8271 21.1281 85.8311 22.6601C85.8151 24.8161 85.3191 26.9321 84.7271 28.9921C83.2471 33.8561 81.2431 38.5402 79.7431 43.4002C78.338 48.0882 77.558 53.2334 78.7195 58.0359C78.9354 58.9289 80.0931 58.9271 80.4016 58.0617C81.2632 55.6452 82.1209 53.2288 82.9831 50.8123C83.3111 49.9523 83.7431 48.9803 84.6631 48.6283C85.9112 48.1822 87.1822 49.4506 87.2036 50.6593C87.2045 50.7132 87.198 50.7669 87.1875 50.8198C86.8351 52.5908 86.1673 54.2781 85.6431 56.0043C81.7467 67.7116 77.4312 79.2761 73.2031 90.8703C72.8451 91.852 74.0431 92.6531 74.815 91.9488C80.0202 87.1993 85.2359 82.4607 90.4431 77.7165C92.2272 76.0885 94.1632 74.3165 94.7112 71.8604C95.2592 69.4444 94.2432 67.0524 93.0912 64.9804C91.7632 62.5084 90.0671 60.1563 89.4431 57.3763C89.1271 55.9363 89.2231 54.2763 90.1951 53.0963C90.8951 52.2083 92.1712 51.7483 93.2472 52.1803C94.3112 52.5883 94.9512 53.6083 95.4512 54.5723C96.619 56.9204 97.4823 59.4028 98.0239 61.9593C98.2324 62.9434 99.6675 63.1842 100.117 62.2843C100.754 61.0095 101.392 59.7355 102.027 58.4603C102.723 57.0883 103.339 55.6203 104.467 54.5403C105.151 53.8683 106.147 53.4443 107.107 53.6603C108.315 53.9283 109.163 55.0283 109.487 56.1683C109.855 57.3803 109.467 58.6403 109.075 59.7923C107.915 63.0124 106.083 65.9244 104.323 68.8404C102.939 71.0379 101.489 73.1933 99.9765 75.3039C99.3523 76.175 100.682 77.7101 101.747 77.5885V77.5885C103.631 77.3365 105.715 78.4405 106.339 80.2805C106.755 81.5325 106.083 82.9525 104.947 83.5605C103.283 84.4925 101.311 84.4805 99.4632 84.5605C96.1 84.6787 92.8019 85.5218 89.7947 87.0324C86.7874 88.5429 84.1419 90.6852 82.0391 93.3126C78.755 97.5126 77.075 102.725 73.739 106.885C71.635 109.421 68.659 112.605 65.3909 111.901C61.0349 110.965 61.0349 104.157 59.9509 100.781C59.402 99.059 58.3295 97.5516 56.8829 96.4686C55.6069 95.5286 54.0829 94.9886 52.5429 94.6926C49.0028 94.0126 45.3508 94.3726 41.8228 93.6406C40.0508 93.2806 38.3107 92.5726 36.9627 91.3526C35.6747 90.2206 34.7867 88.7126 34.1707 87.1285C32.8387 83.6885 32.5707 79.9485 31.3867 76.4605C29.6512 71.3993 26.3115 67.0427 21.8746 64.0524C20.9466 63.4244 19.9346 62.8124 19.3346 61.8324C19.0868 61.4491 18.9714 60.9951 19.006 60.54C19.0407 60.0849 19.2236 59.6537 19.5266 59.3123C20.6066 58.1363 22.5666 58.0403 23.8106 59.0123C25.7731 60.4045 26.4498 62.8027 27.7327 64.7347C28.2008 65.4396 29.1263 65.0496 29.1251 64.2034C29.1216 61.6542 29.1129 59.1077 29.1067 56.5563C29.1147 55.6163 29.0107 54.6043 29.4827 53.7483C29.5941 53.556 29.746 53.3901 29.9278 53.2622C30.1096 53.1343 30.3171 53.0473 30.5357 53.0074C30.7544 52.9675 30.9792 52.9755 31.1945 53.0309C31.4098 53.0863 31.6104 53.1878 31.7827 53.3283C32.7147 54.1083 32.9947 55.3803 33.1267 56.5283C33.5226 60.3577 33.9069 64.1901 34.2994 68.0203C34.3831 68.8376 35.3387 69.1785 35.8067 68.5033C36.3207 67.7618 36.7209 66.9431 36.9904 66.074C37.4571 64.5691 37.5152 62.9671 37.1587 61.4324C36.9307 60.4563 36.5587 59.4523 36.7707 58.4363C36.8694 58.0186 37.1217 57.6532 37.4775 57.4131C37.8332 57.1729 38.2664 57.0756 38.6907 57.1403C39.6508 57.2723 40.3308 58.0923 40.6868 58.9323C41.2588 60.3243 41.2588 61.8764 41.1428 63.3564C40.8068 66.7284 39.3788 69.8444 38.3947 73.0524C37.4347 75.8845 36.7747 79.0285 37.7347 81.9565C38.5947 84.6885 40.7628 86.8525 43.3108 88.0766C45.9122 89.3574 48.7848 89.9071 51.6611 90.1334C52.4434 90.195 52.9529 89.3555 52.5685 88.6713C50.7572 85.4479 49.0684 82.037 49.1028 78.2685C49.1428 73.8524 51.9508 70.1324 52.7109 65.8684C54.0029 58.8003 50.8108 51.1163 44.8708 47.0602C42.2348 45.2482 39.0708 44.4402 36.3587 42.7602C34.0678 41.3587 31.9933 38.9341 32.0471 36.1422C32.0542 35.7752 32.3022 35.4578 32.6577 35.3661C34.3648 34.9258 36.1996 35.3855 37.7107 36.2562C40.9988 38.0082 43.0868 41.3362 46.3908 43.0562C47.3702 43.595 48.4603 43.8933 49.5715 43.9308C49.955 43.9437 50.3046 43.7012 50.3901 43.3272C50.7449 41.7757 50.0663 40.135 49.0428 38.9522C46.8748 36.3402 43.2108 35.7042 40.9428 33.2041C39.8028 31.9001 39.1708 30.0361 39.6468 28.3281C39.8592 27.6661 40.2867 27.0941 40.8614 26.7027C41.4361 26.3114 42.125 26.1232 42.8188 26.1681C44.8788 26.2921 46.6468 27.5801 48.0548 29.0001C52.7069 33.6521 55.3869 39.9762 56.4349 46.4082C57.6749 53.9883 56.7149 61.7284 55.1829 69.1924C54.9029 70.7124 54.3669 72.2724 54.7589 73.8284C54.9309 74.5485 55.4469 75.2885 56.2469 75.3525C57.3429 75.4205 58.2469 74.6765 59.0469 74.0244C61.5389 71.9844 63.5229 69.2404 64.3389 66.1004C64.9789 63.8084 64.9989 61.4084 64.9509 59.0523C64.9669 57.8723 64.8789 56.5723 65.5829 55.5483C66.087 54.7563 67.027 54.1363 67.995 54.3683C68.755 54.5123 69.291 55.1683 69.523 55.8723C69.895 57.0323 69.843 58.2883 69.615 59.4723C68.903 62.7364 68.255 66.0484 66.963 69.1524C66.051 71.3764 64.8189 73.4924 63.1509 75.2325C61.3109 77.1845 59.0389 78.7525 57.5589 81.0205C56.5469 82.5725 55.8949 84.5005 56.3309 86.3565C56.6509 87.8366 57.7789 89.0446 59.1389 89.6606C60.1348 90.1094 61.2191 90.3281 62.3112 90.3004C63.4032 90.2727 64.475 89.9993 65.4469 89.5006C66.975 88.6726 68.063 87.2446 68.927 85.7725C70.455 83.1325 71.379 80.1925 72.147 77.2525C73.327 72.5084 74.023 67.6404 74.295 62.7564C74.607 57.5403 73.659 52.1483 71.031 47.5963C69.6178 45.1603 67.677 43.0718 65.3509 41.4842C63.2709 39.9402 60.9829 38.6042 59.2949 36.5962C57.8047 34.8413 56.7437 32.507 57.1194 30.1751C57.1613 29.9153 57.3212 29.6881 57.5572 29.5718C58.57 29.0726 59.7678 29.0182 60.8349 29.4001C63.0909 30.1641 64.8549 31.9761 65.995 34.0241C67.0189 35.6223 67.9309 37.4199 69.2182 38.8336C69.8626 39.5413 70.6435 38.8382 70.2052 37.9874C68.4182 34.5184 66.6018 31.0662 64.8109 27.5961C64.0789 26.1281 63.3629 24.5241 63.5509 22.8441C63.6385 22.2096 63.9498 21.6272 64.4287 21.2019C64.9075 20.7765 65.5226 20.5361 66.163 20.524C67.303 20.524 68.371 21.1641 69.047 22.0601C69.823 23.0641 70.195 24.3001 70.543 25.5041C72.1028 30.9339 73.6597 36.3607 75.2241 41.7871C75.4733 42.6517 76.6172 42.7556 76.9525 41.9206C78.4548 38.179 78.987 34.1032 78.479 30.0761C78.199 27.5161 77.447 25.0521 76.851 22.5561C76.447 20.9281 76.571 19.096 77.499 17.66Z" fill="url(#paint1_linear_80_464)"/>
<defs>
<linearGradient id="paint0_linear_80_464" x1="64" y1="120" x2="64" y2="8" gradientUnits="userSpaceOnUse">
<stop stop-color="#5570FF"/>
<stop offset="1" stop-color="#4DD3FF"/>
</linearGradient>
<linearGradient id="paint1_linear_80_464" x1="64.3176" y1="112" x2="64.3176" y2="16" gradientUnits="userSpaceOnUse">
<stop stop-color="#5570FF"/>
<stop offset="1" stop-color="#4DD3FF"/>
</linearGradient>
</defs>
</svg>
