<svg width="128" height="128" viewBox="0 0 128 128" fill="none" xmlns="http://www.w3.org/2000/svg">
<g opacity="0.4">
<circle cx="64" cy="64" r="59" fill="#D9D9D9"/>
<circle cx="64" cy="64" r="59" fill="url(#paint0_linear_60_172)"/>
</g>
<path fill-rule="evenodd" clip-rule="evenodd" d="M116.997 63.9986C116.997 77.4408 111.992 89.7142 103.745 99.0573C101.508 101.591 97.6572 99.8453 97.6572 96.4653V86.4008C97.6572 85.9338 97.6535 85.4791 97.6459 85.0356C97.6186 83.44 98.4958 81.9757 99.8027 81.06C106.333 76.4846 108.79 68.3322 108.802 61.2014C108.786 45.1037 96.3758 31.7441 80.3321 30.5283C80.2817 30.5245 80.2314 30.5166 80.1822 30.5053C79.749 30.4055 79.3324 30.3478 78.9452 30.3476C78.9444 30.3476 78.9438 30.3468 78.944 30.346C78.9443 30.3452 78.9437 30.3445 78.9429 30.3445C78.6827 30.3445 78.4273 30.3623 78.1719 30.38C78.0034 30.3917 77.8349 30.4034 77.6648 30.4101C76.8595 30.4241 76.0495 30.4642 75.2477 30.5413C59.3777 31.9642 47.2159 45.2639 47.2031 61.1983C47.2088 61.7036 47.2271 62.2142 47.2578 62.7186C47.2574 62.767 47.2548 62.8139 47.2523 62.8605C47.2496 62.9109 47.2468 62.9614 47.2468 63.0139V67.3779L47.2263 68.4259C47.2112 69.1931 46.9758 69.9398 46.5481 70.5768L39.4703 81.1199C37.7892 84.3244 39.3852 86.3223 42.9921 86.3698L43.2983 86.3737C45.4872 86.402 47.2467 88.1844 47.2467 90.3734V96.225C47.2467 99.9898 50.3329 103.094 54.1155 103.094L54.5026 103.103C56.6724 103.157 58.4033 104.932 58.4033 107.102V112.264C58.4033 114.638 56.3408 116.502 54.0086 116.057C30.4681 111.567 12.4507 91.5055 11.083 66.9991C10.9907 65.3448 9.65636 63.9986 7.9995 63.9986C6.34265 63.9986 4.99156 65.3431 5.07442 66.9978C6.63616 98.1882 32.4199 122.997 63.9981 122.997C96.5821 122.997 122.997 96.5826 122.997 63.9986C122.997 32.4204 98.1877 6.63666 66.9974 5.07491C65.3426 4.99206 63.9981 6.34314 63.9981 8C63.9981 9.65685 65.3438 10.9911 66.9981 11.0835C94.8727 12.6389 116.997 35.7351 116.997 63.9986ZM68.9234 46.5196C72.0739 43.369 76.347 41.5991 80.8025 41.5991C85.258 41.5991 89.5311 43.369 92.6816 46.5196C95.8321 49.6701 97.6021 53.9432 97.6021 58.3987C97.6021 62.8542 95.8321 67.1272 92.6816 70.2778C89.5311 73.4283 85.258 75.1983 80.8025 75.1983C76.347 75.1983 72.0739 73.4283 68.9234 70.2778C65.7729 67.1272 64.0029 62.8542 64.0029 58.3987C64.0029 53.9432 65.7729 49.6701 68.9234 46.5196ZM88.7219 50.4793C86.6215 48.3789 83.7729 47.199 80.8025 47.199C77.8322 47.199 74.9835 48.3789 72.8831 50.4793C70.7828 52.5796 69.6028 55.4283 69.6028 58.3987C69.6028 61.369 70.7828 64.2177 72.8831 66.3181C74.9835 68.4184 77.8322 69.5984 80.8025 69.5984C83.7729 69.5984 86.6215 68.4184 88.7219 66.3181C90.8223 64.2177 92.0022 61.369 92.0022 58.3987C92.0022 55.4283 90.8223 52.5796 88.7219 50.4793ZM80.8023 63.9985C83.895 63.9985 86.4022 61.4914 86.4022 58.3987C86.4022 55.3059 83.895 52.7988 80.8023 52.7988C77.7096 52.7988 75.2024 55.3059 75.2024 58.3987C75.2024 61.4914 77.7096 63.9985 80.8023 63.9985Z" fill="url(#paint1_linear_60_172)"/>
<defs>
<linearGradient id="paint0_linear_60_172" x1="63.9642" y1="123" x2="63.9642" y2="4.92866" gradientUnits="userSpaceOnUse">
<stop stop-color="#5558FF"/>
<stop offset="1" stop-color="#00C0FF"/>
</linearGradient>
<linearGradient id="paint1_linear_60_172" x1="63.9981" y1="122.997" x2="63.9981" y2="4.99999" gradientUnits="userSpaceOnUse">
<stop stop-color="#5558FF"/>
<stop offset="1" stop-color="#00C0FF"/>
</linearGradient>
</defs>
</svg>
