<svg width="128" height="128" viewBox="0 0 128 128" fill="none" xmlns="http://www.w3.org/2000/svg">
<path d="M105.72 14C99.1301 14 93.6974 19.4211 93.6974 26.0106C93.6974 28.2231 94.3201 30.2964 95.3832 32.084L80.8148 51.7642C78.3635 50.6135 75.6456 49.9499 72.7753 49.9499C69.5766 49.9499 66.5567 50.7547 63.9027 52.1652C64.2937 51.2642 64.2485 50.1725 63.4199 49.1479L59.6396 44.4683C59.0737 43.7414 58.2054 43.3115 57.2842 43.3042C54.7167 43.283 53.2999 46.2768 54.9444 48.2486L58.7247 52.9438C59.3749 53.7477 60.1672 54.0893 60.9438 54.1079C56.8057 57.4069 54.0511 62.3795 53.7297 67.9716L24.406 71.4405C22.8228 68.9326 20.0422 67.2397 16.8882 67.2397C12.0103 67.2397 8 71.2617 8 76.1396C8 81.0175 12.0103 85.0278 16.8882 85.0278C20.17 85.0278 23.0338 83.1927 24.5773 80.5194L55.3765 76.8793C58.3815 83.5144 65.0603 88.1774 72.7753 88.1774C77.8626 88.1774 82.4976 86.1409 85.9344 82.8593L89.6524 87.4727C92.1833 90.602 96.8746 86.8061 94.3437 83.6768L90.5634 78.9972C90.2893 78.6451 89.9427 78.3664 89.5551 78.168C91.039 75.4554 91.8871 72.3501 91.8871 69.0617C91.8871 64.9697 90.5677 61.1729 88.3482 58.0517L103.345 37.7759C104.113 37.9323 104.908 38.0173 105.72 38.0173C112.309 38.0173 117.726 32.6001 117.726 26.0106C117.726 19.4211 112.309 14 105.72 14ZM105.72 21.5373C108.238 21.5373 110.193 23.4926 110.193 26.0106C110.193 28.5285 108.238 30.4839 105.72 30.4839C103.202 30.4839 101.231 28.5285 101.231 26.0106C101.231 23.4926 103.202 21.5373 105.72 21.5373ZM72.7753 59.7491C77.979 59.7491 82.1034 63.858 82.1034 69.0617C82.1034 74.2654 77.979 78.3782 72.7753 78.3782C67.5716 78.3782 63.4588 74.2654 63.4588 69.0617C63.4588 63.858 67.5716 59.7491 72.7753 59.7491ZM16.8882 72.8148C18.7521 72.8148 20.213 74.2757 20.213 76.1396C20.213 78.0034 18.7521 79.4527 16.8882 79.4527C15.0243 79.4527 13.579 78.0034 13.579 76.1396C13.579 74.2757 15.0243 72.8148 16.8882 72.8148ZM63.5912 86.8848C62.4935 86.8825 61.3923 87.465 60.8504 88.629L58.2147 94.0484C56.461 97.6708 61.8959 100.303 63.6496 96.6802L66.2697 91.2647C66.6865 90.4431 66.7063 89.4773 66.32 88.6407C65.7829 87.4746 64.6889 86.8871 63.5912 86.8848Z" fill="url(#paint0_linear_126_121)" stroke="url(#paint1_linear_126_121)" stroke-width="4"/>
<g opacity="0.4">
<path d="M33.6727 20.6727C35.3833 18.962 37.7032 18.0007 40.1225 18C42.5423 17.9996 44.8633 18.9605 46.5749 20.6712C48.2865 22.3819 49.2483 24.7025 49.249 27.1225C49.2453 28.495 48.9321 29.8491 48.3326 31.0839C48.3752 31.1321 48.4266 31.1703 48.4659 31.2213L52.5147 36.2281C55.2226 39.5762 50.1991 43.6376 47.4912 40.2895L43.6547 35.5284C42.537 36.0011 41.3361 36.2461 40.1225 36.249C37.7025 36.2483 35.3819 35.2865 33.6712 33.5749C31.9605 31.8633 30.9996 29.5423 31 27.1225C31.0007 24.7032 31.962 22.3833 33.6727 20.6727Z" fill="url(#paint2_linear_126_121)"/>
<path d="M96.8604 95.5069C95.1008 93.3972 96.6168 90.1941 99.3638 90.2169C100.349 90.2247 101.274 90.6804 101.88 91.4581L105.804 96.3109C107.521 95.3561 109.454 94.8543 111.419 94.853C112.938 94.8531 114.444 95.1527 115.848 95.7345C117.252 96.3164 118.528 97.1692 119.602 98.244C120.677 99.319 121.529 100.595 122.111 101.999C122.692 103.404 122.99 104.909 122.99 106.429C122.99 109.497 121.771 112.441 119.601 114.61C117.431 116.781 114.488 118 111.419 118C109.899 118.001 108.393 117.701 106.99 117.121C105.585 116.54 104.309 115.687 103.234 114.613C102.159 113.537 101.306 112.262 100.724 110.858C100.143 109.453 99.843 107.949 99.8428 106.429C99.8473 104.493 100.337 102.59 101.267 100.893C101.145 100.777 101.02 100.668 100.905 100.526L96.8604 95.5069Z" fill="url(#paint3_linear_126_121)"/>
<path d="M49.0041 102.623C50.3672 101.259 52.2158 100.493 54.1434 100.493C55.0983 100.493 56.0438 100.68 56.9261 101.046C57.8084 101.411 58.6101 101.946 59.2855 102.621C59.9608 103.296 60.4966 104.097 60.8622 104.979C61.2278 105.862 61.4161 106.807 61.4163 107.762C61.4167 108.717 61.2288 109.663 60.8634 110.546C60.498 111.428 59.9623 112.23 59.287 112.905C58.6115 113.581 57.8096 114.116 56.927 114.482C56.0445 114.847 55.0986 115.035 54.1434 115.035C53.1886 115.034 52.2432 114.846 51.361 114.481C50.479 114.115 49.6776 113.579 49.0026 112.904C48.3276 112.229 47.7923 111.426 47.4272 110.545C47.062 109.662 46.8743 108.716 46.8747 107.762C46.875 105.834 47.641 103.986 49.0041 102.623Z" fill="url(#paint4_linear_126_121)"/>
</g>
<defs>
<linearGradient id="paint0_linear_126_121" x1="18.4186" y1="64.4482" x2="100.899" y2="64.4482" gradientUnits="userSpaceOnUse">
<stop stop-color="#C156C4"/>
<stop offset="1" stop-color="#00A3FF"/>
</linearGradient>
<linearGradient id="paint1_linear_126_121" x1="18.4186" y1="64.4482" x2="100.899" y2="64.4482" gradientUnits="userSpaceOnUse">
<stop stop-color="#C156C4"/>
<stop offset="1" stop-color="#00A3FF"/>
</linearGradient>
<linearGradient id="paint2_linear_126_121" x1="14.3052" y1="64.0243" x2="102.554" y2="64.0243" gradientUnits="userSpaceOnUse">
<stop stop-color="#C156C4"/>
<stop offset="1" stop-color="#00A3FF"/>
</linearGradient>
<linearGradient id="paint3_linear_126_121" x1="14.3052" y1="64.0243" x2="102.554" y2="64.0243" gradientUnits="userSpaceOnUse">
<stop stop-color="#C156C4"/>
<stop offset="1" stop-color="#00A3FF"/>
</linearGradient>
<linearGradient id="paint4_linear_126_121" x1="14.3052" y1="64.0243" x2="102.554" y2="64.0243" gradientUnits="userSpaceOnUse">
<stop stop-color="#C156C4"/>
<stop offset="1" stop-color="#00A3FF"/>
</linearGradient>
</defs>
</svg>
