<svg width="128" height="128" viewBox="0 0 128 128" fill="none" xmlns="http://www.w3.org/2000/svg">
<rect opacity="0.4" x="8" y="8" width="112" height="112" rx="24" fill="url(#paint0_linear_69_156)"/>
<path d="M19.1795 35.1198C22.9155 30.51 29.491 29.2743 35.0778 30.3778C39.13 31.1538 42.4177 34.0622 44.4122 37.5798C43.9423 37.5662 43.4743 37.5425 43.0072 37.5111C42.3983 37.4701 41.781 37.6827 41.4403 38.189C40.2621 39.9398 40.1945 42.1337 40.7796 44.184L40.7537 44.1179C40.3542 43.0992 39.9511 42.0715 39.3829 41.1319C36.2791 35.3899 27.2551 35.7003 23.9501 41.0687C22.5419 43.6552 23.111 46.759 23.9444 49.4375C24.7431 51.7571 25.5732 54.0663 26.4035 56.3757C27.1985 58.587 27.9935 60.7984 28.761 63.0194C30.0164 66.3481 31.1835 69.7105 32.3505 73.0724C34.2342 78.4994 36.1176 83.9252 38.3713 89.2063C40.567 93.5459 45.7515 95.9657 50.4704 94.6839C53.6776 93.8735 56.1894 91.2582 57.293 88.2004C58.1379 85.864 58.9096 83.5031 59.6812 81.1422C60.4528 78.7814 61.2245 76.4202 62.0694 74.0839C62.3648 72.7654 64.0871 72.2957 65.1098 73.0764C65.2139 73.1558 65.2984 73.2578 65.3685 73.3684C65.7691 74.0003 66.0041 74.7146 66.2376 75.4247C66.3014 75.6186 66.3651 75.8122 66.432 76.0037C67.1142 78.1774 67.8341 80.3396 68.5539 82.5011C69.2471 84.5827 69.9402 86.6639 70.599 88.7541C70.6335 88.8638 70.6772 88.9703 70.7305 89.0722C71.612 90.7557 72.6836 92.4104 74.3237 93.4424C78.4391 96.0979 84.5662 95.4484 87.7619 91.6319C89.3108 89.9049 90.155 87.753 90.9905 85.6236C91.2061 85.0741 91.4211 84.5261 91.6474 83.9873C92.4636 81.9296 95.4065 81.4238 96.9929 82.8723C98.1424 83.8322 98.4815 85.5163 97.878 86.8727C97.7058 87.3241 97.5367 87.7783 97.3674 88.2333C96.4804 90.6169 95.5858 93.021 94.1765 95.1495C91.9866 98.0751 88.946 100.426 85.3996 101.409C78.623 103.415 70.4037 100.932 66.6446 94.7529C66.4147 94.2701 66.1963 93.793 65.9779 93.3102C65.7783 92.8323 65.5782 92.3545 65.3702 91.8805C64.7675 90.5071 63.0213 90.5458 62.4183 91.9191V91.9191C61.9377 93.0137 61.4573 94.1077 60.8451 95.138C54.8215 104.294 39.7508 104.041 33.6064 95.138L33.3261 94.8135C33.2221 94.6931 33.1328 94.5607 33.0603 94.4191C32.4195 93.1673 31.791 91.9074 31.3015 90.5858C30.6933 88.9013 30.0825 87.2178 29.4717 85.5341L29.471 85.5321C27.3518 79.6907 25.2322 73.8483 23.2202 67.9683C22.4854 65.7837 21.6755 63.62 20.8654 61.4556C19.0901 56.7124 17.3135 51.9658 16.3228 46.9889C15.4262 42.8505 16.4033 38.35 19.1795 35.1198Z" fill="url(#paint1_linear_69_156)"/>
<path d="M51.7809 36.1027C56.5573 28.9697 67.6505 28.1535 74.0707 33.4644C75.4847 34.9358 76.8124 36.5165 77.7206 38.3615C78.3548 39.5031 78.7468 40.7387 79.139 41.9748V41.9748C79.6178 43.4839 81.3828 43.5179 81.9381 42.0353C82.0095 41.8448 82.0803 41.654 82.1511 41.4633C82.9271 39.3729 83.7022 37.2849 85.1697 35.5623C87.5263 32.5792 91.0669 30.5043 94.8834 30.1824C98.016 29.8605 101.177 30.4641 104.074 31.6596C107.12 33.2173 109.793 35.6945 110.983 38.965C112.512 42.6608 112.161 46.8452 110.96 50.5813C109.797 54.41 108.388 58.1552 106.979 61.9008C105.855 64.8914 104.729 67.8829 103.729 70.9169C103.625 71.174 103.531 71.4443 103.435 71.7179C103.053 72.808 102.652 73.9498 101.591 74.515C99.8552 75.5956 97.2227 74.7679 96.5905 72.7734C96.1364 71.7848 96.4698 70.6927 96.8032 69.7271C97.5922 67.5441 98.3932 65.3657 99.1941 63.1874L99.1948 63.1855C100.943 58.4301 102.692 53.6751 104.315 48.8742C105.08 46.759 105.172 44.3679 104.321 42.2642C103.494 40.2065 101.798 38.6317 99.792 37.735C95.6306 36.0049 90.4519 37.6143 88.3195 41.6607C86.6542 45.9201 85.3503 50.3125 84.046 54.706C83.1537 57.7115 82.2612 60.7179 81.2528 63.6823C81.2013 63.8338 81.1804 63.9966 81.1158 64.1431C80.8288 64.7941 79.6399 64.8267 79.3586 64.1514C79.2937 63.9956 79.2738 63.8237 79.2198 63.6638C78.1736 60.5637 77.1933 57.4429 76.2128 54.3215L76.2125 54.3206L76.2122 54.3197C75.5271 52.1386 74.8418 49.9569 74.134 47.7821C73.9456 47.2226 73.771 46.6556 73.5961 46.0878C73.0669 44.3691 72.5353 42.6427 71.6107 41.0917C71.2971 40.6056 70.9693 40.1291 70.6229 39.6664C70.5539 39.5742 70.4765 39.4886 70.3906 39.4119C67.798 37.0967 63.9349 36.2391 60.6669 37.5338C58.684 38.2753 57.1263 39.8502 56.1205 41.6837C54.4503 45.7077 53.1462 49.8664 51.842 54.0256C50.8528 57.1806 49.8634 60.3358 48.7141 63.4326C48.4505 64.1427 47.7131 64.5595 46.9653 64.4393V64.4393V64.4393C46.9646 64.4392 46.9641 64.4388 46.9639 64.4382C44.7971 57.7251 42.7567 50.9603 40.7796 44.184C40.1945 42.1337 40.2621 39.9398 41.4403 38.189C41.781 37.6827 42.3983 37.4701 43.0072 37.5111C43.4743 37.5425 43.9423 37.5662 44.4122 37.5798C45.1019 38.9133 45.674 40.2991 46.246 41.6849C46.3348 41.9001 46.4237 42.1154 46.513 42.3304C46.9981 43.4987 48.5256 43.4446 48.9236 42.2439V42.2439C49.6394 40.0846 50.355 37.9259 51.7809 36.1027Z" fill="url(#paint2_linear_69_156)"/>
<defs>
<linearGradient id="paint0_linear_69_156" x1="64" y1="120" x2="64" y2="8" gradientUnits="userSpaceOnUse">
<stop stop-color="#5570FF"/>
<stop offset="1" stop-color="#4DD3FF"/>
</linearGradient>
<linearGradient id="paint1_linear_69_156" x1="64" y1="102.09" x2="64" y2="30" gradientUnits="userSpaceOnUse">
<stop stop-color="#5570FF"/>
<stop offset="1" stop-color="#4DD3FF"/>
</linearGradient>
<linearGradient id="paint2_linear_69_156" x1="64" y1="102.09" x2="64" y2="30" gradientUnits="userSpaceOnUse">
<stop stop-color="#5570FF"/>
<stop offset="1" stop-color="#4DD3FF"/>
</linearGradient>
</defs>
</svg>
