<svg width="16" height="16" viewBox="0 0 16 16" fill="none" xmlns="http://www.w3.org/2000/svg">
<path opacity="0.4" d="M10.7145 14C13.0816 14 15 12.104 15 9.76475C15 7.91076 13.7947 6.33501 12.1163 5.76126C11.8778 3.6455 10.0613 2 7.857 2C5.49001 2 3.57151 3.896 3.57151 6.23525C3.57151 6.75276 3.66526 7.24776 3.83701 7.70676C3.6319 7.6669 3.42345 7.64681 3.2145 7.64676C1.43925 7.64751 0 9.0695 0 10.8238C0 12.578 1.43925 14 3.2145 14H10.7145Z" fill="url(#paint0_linear_697_83)"/>
<path d="M7.17714 13.8634C7.47003 13.5705 7.47003 13.0956 7.17714 12.8027C6.88425 12.5098 6.40937 12.5098 6.11648 12.8027L4.78315 14.1361C4.49025 14.429 4.49025 14.9038 4.78315 15.1967C5.07604 15.4896 5.55091 15.4896 5.84381 15.1967L7.17714 13.8634Z" fill="url(#paint1_linear_697_83)"/>
<path d="M9.84364 12.8027C10.1365 13.0956 10.1365 13.5705 9.84364 13.8634L8.51031 15.1967C8.21742 15.4896 7.74254 15.4896 7.44965 15.1967C7.15676 14.9038 7.15676 14.429 7.44965 14.1361L8.78298 12.8027C9.07588 12.5098 9.55075 12.5098 9.84364 12.8027Z" fill="url(#paint2_linear_697_83)"/>
<path fill-rule="evenodd" clip-rule="evenodd" d="M7.33018 8.43311C6.83312 8.43311 6.43018 8.83605 6.43018 9.33311C6.43018 9.83016 6.83312 10.2331 7.33018 10.2331H7.33618C7.83323 10.2331 8.23618 9.83016 8.23618 9.33311C8.23618 8.83605 7.83323 8.43311 7.33618 8.43311H7.33018ZM10.3302 8.43311C9.83312 8.43311 9.43018 8.83605 9.43018 9.33311C9.43018 9.83016 9.83312 10.2331 10.3302 10.2331H10.3362C10.8332 10.2331 11.2362 9.83016 11.2362 9.33311C11.2362 8.83605 10.8332 8.43311 10.3362 8.43311H10.3302ZM7.43018 11.3331C7.43018 10.836 7.83312 10.4331 8.33018 10.4331H8.33618C8.83323 10.4331 9.23618 10.836 9.23618 11.3331C9.23618 11.8302 8.83323 12.2331 8.33618 12.2331H8.33018C7.83312 12.2331 7.43018 11.8302 7.43018 11.3331ZM5.33018 10.4331C4.83312 10.4331 4.43018 10.836 4.43018 11.3331C4.43018 11.8302 4.83312 12.2331 5.33018 12.2331H5.33618C5.83323 12.2331 6.23618 11.8302 6.23618 11.3331C6.23618 10.836 5.83323 10.4331 5.33618 10.4331H5.33018Z" fill="url(#paint3_linear_697_83)"/>
<defs>
<linearGradient id="paint0_linear_697_83" x1="9.37679" y1="14" x2="9.37679" y2="-14.086" gradientUnits="userSpaceOnUse">
<stop stop-color="#18AEFA"/>
<stop offset="1" stop-color="#83E1FF"/>
</linearGradient>
<linearGradient id="paint1_linear_697_83" x1="8.00151" y1="15.4168" x2="8.00151" y2="2.54336" gradientUnits="userSpaceOnUse">
<stop stop-color="#18AEFA"/>
<stop offset="1" stop-color="#83E1FF"/>
</linearGradient>
<linearGradient id="paint2_linear_697_83" x1="8.00151" y1="15.4168" x2="8.00151" y2="2.54336" gradientUnits="userSpaceOnUse">
<stop stop-color="#18AEFA"/>
<stop offset="1" stop-color="#83E1FF"/>
</linearGradient>
<linearGradient id="paint3_linear_697_83" x1="6.5" y1="9" x2="9.5" y2="12.5" gradientUnits="userSpaceOnUse">
<stop stop-color="white"/>
<stop offset="1" stop-color="#98E1FD"/>
</linearGradient>
</defs>
</svg>
