<svg width="16" height="16" viewBox="0 0 16 16" fill="none" xmlns="http://www.w3.org/2000/svg">
<path opacity="0.4" d="M11.2145 14C13.5816 14 15.5 12.104 15.5 9.76475C15.5 7.91076 14.2947 6.33501 12.6163 5.76126C12.3778 3.6455 10.5613 2 8.357 2C5.99001 2 4.07151 3.896 4.07151 6.23525C4.07151 6.75276 4.16526 7.24776 4.33701 7.70676C4.1319 7.6669 3.92345 7.64681 3.7145 7.64676C1.93925 7.64751 0.5 9.0695 0.5 10.8238C0.5 12.578 1.93925 14 3.7145 14H11.2145Z" fill="url(#paint0_linear_697_104)"/>
<path d="M7.85137 13.3968C8.1709 13.0773 8.1709 12.5592 7.85137 12.2397C7.53185 11.9201 7.01378 11.9201 6.69425 12.2397L5.23965 13.6943C4.92012 14.0139 4.92012 14.5318 5.23965 14.8514C5.55918 15.1709 6.07724 15.1709 6.39678 14.8514L7.85137 13.3968Z" fill="url(#paint1_linear_697_104)"/>
<path d="M10.7604 12.2397C11.0799 12.5592 11.0799 13.0773 10.7604 13.3968L9.30579 14.8514C8.98626 15.1709 8.4682 15.1709 8.14867 14.8514C7.82914 14.5318 7.82914 14.0139 8.14867 13.6943L9.60326 12.2397C9.9228 11.9201 10.4409 11.9201 10.7604 12.2397Z" fill="url(#paint2_linear_697_104)"/>
<defs>
<linearGradient id="paint0_linear_697_104" x1="9.87679" y1="14" x2="9.87679" y2="-14.086" gradientUnits="userSpaceOnUse">
<stop stop-color="#18AEFA"/>
<stop offset="1" stop-color="#83E1FF"/>
</linearGradient>
<linearGradient id="paint1_linear_697_104" x1="8.75072" y1="15.091" x2="8.75072" y2="1.04673" gradientUnits="userSpaceOnUse">
<stop stop-color="#18AEFA"/>
<stop offset="1" stop-color="#83E1FF"/>
</linearGradient>
<linearGradient id="paint2_linear_697_104" x1="8.75072" y1="15.091" x2="8.75072" y2="1.04673" gradientUnits="userSpaceOnUse">
<stop stop-color="#18AEFA"/>
<stop offset="1" stop-color="#83E1FF"/>
</linearGradient>
</defs>
</svg>
