<svg width="16" height="16" viewBox="0 0 16 16" fill="none" xmlns="http://www.w3.org/2000/svg">
<g clip-path="url(#clip0_697_152)">
<path opacity="0.5" d="M11.7422 1.21554C11.8896 0.920728 12.3103 0.920749 12.4577 1.21558L12.6713 1.64292C12.9169 2.13407 13.0397 2.37966 13.2037 2.59246C13.3493 2.7813 13.5187 2.95059 13.7075 3.09615C13.9202 3.26019 14.1658 3.38298 14.657 3.62855L15.0844 3.84225C15.3792 3.98966 15.3792 4.41037 15.0844 4.55778L14.657 4.77147C14.1658 5.01706 13.9202 5.13984 13.7075 5.30389C13.5187 5.44945 13.3493 5.61874 13.2037 5.80757C13.0397 6.02038 12.9169 6.26596 12.6713 6.75712L12.4577 7.18446C12.3103 7.47929 11.8896 7.47931 11.7422 7.1845L11.5285 6.75712C11.2829 6.26596 11.1601 6.02038 10.9961 5.80757C10.8505 5.61874 10.6812 5.44945 10.4924 5.30389C10.2796 5.13984 10.034 5.01706 9.54279 4.77147L9.11542 4.55778C8.82061 4.41037 8.82061 3.98966 9.11542 3.84225L9.54279 3.62855C10.034 3.38298 10.2796 3.26019 10.4924 3.09615C10.6812 2.95059 10.8505 2.7813 10.9961 2.59246C11.1601 2.37966 11.2829 2.13407 11.5285 1.64292L11.7422 1.21554Z" fill="url(#paint0_linear_697_152)"/>
<path d="M14.2491 8.94982C14.2602 8.83253 14.1879 8.72338 14.0756 8.68784C13.9633 8.65231 13.8414 8.70002 13.783 8.80238C12.9516 10.2607 11.3831 11.243 9.58546 11.243C6.91896 11.243 4.75733 9.08138 4.75733 6.41489C4.75733 4.61712 5.73979 3.0485 7.19829 2.2172C7.30065 2.15885 7.34839 2.03696 7.31286 1.92462C7.27733 1.81228 7.16819 1.73999 7.0509 1.75112C3.70263 2.06859 1.0835 4.88779 1.0835 8.31903C1.0835 11.9628 4.03737 14.9166 7.68116 14.9166C11.1122 14.9166 13.9313 12.2978 14.2491 8.94982Z" fill="url(#paint1_linear_697_152)" stroke="url(#paint2_linear_697_152)" stroke-width="0.5" stroke-linecap="round" stroke-linejoin="round"/>
</g>
<defs>
<linearGradient id="paint0_linear_697_152" x1="-2.96758" y1="0.682027" x2="16.1045" y2="20.3376" gradientUnits="userSpaceOnUse">
<stop stop-color="#F9D423"/>
<stop offset="0.515624" stop-color="#FF4E50"/>
<stop offset="0.991304" stop-color="#8A2387"/>
</linearGradient>
<linearGradient id="paint1_linear_697_152" x1="1.14077" y1="1.46453" x2="14.8863" y2="15.6306" gradientUnits="userSpaceOnUse">
<stop stop-color="#F9D423"/>
<stop offset="0.515624" stop-color="#FF4E50"/>
<stop offset="0.991304" stop-color="#8A2387"/>
</linearGradient>
<linearGradient id="paint2_linear_697_152" x1="1.14077" y1="1.46453" x2="14.8863" y2="15.6306" gradientUnits="userSpaceOnUse">
<stop stop-color="#F9D423"/>
<stop offset="0.515624" stop-color="#FF4E50"/>
<stop offset="0.991304" stop-color="#8A2387"/>
</linearGradient>
<clipPath id="clip0_697_152">
<rect width="16" height="16" fill="white"/>
</clipPath>
</defs>
</svg>
