<svg width="16" height="16" viewBox="0 0 16 16" fill="none" xmlns="http://www.w3.org/2000/svg">
<path opacity="0.4" d="M11.2145 14C13.5816 14 15.5 12.104 15.5 9.76475C15.5 7.91076 14.2947 6.33501 12.6163 5.76126C12.3778 3.6455 10.5613 2 8.357 2C5.99001 2 4.07151 3.896 4.07151 6.23525C4.07151 6.75276 4.16526 7.24776 4.33701 7.70676C4.1319 7.6669 3.92345 7.64681 3.7145 7.64676C1.93925 7.64751 0.5 9.0695 0.5 10.8238C0.5 12.578 1.93925 14 3.7145 14H11.2145Z" fill="url(#paint0_linear_697_102)"/>
<path d="M7.17714 13.8638C7.47003 13.5709 7.47003 13.096 7.17714 12.8031C6.88425 12.5102 6.40937 12.5102 6.11648 12.8031L4.78315 14.1365C4.49025 14.4294 4.49025 14.9042 4.78315 15.1971C5.07604 15.49 5.55091 15.49 5.84381 15.1971L7.17714 13.8638Z" fill="url(#paint1_linear_697_102)"/>
<path d="M9.84364 12.8031C10.1365 13.096 10.1365 13.5709 9.84364 13.8638L8.51031 15.1971C8.21742 15.49 7.74254 15.49 7.44965 15.1971C7.15676 14.9042 7.15676 14.4294 7.44965 14.1365L8.78298 12.8031C9.07588 12.5102 9.55075 12.5102 9.84364 12.8031Z" fill="url(#paint2_linear_697_102)"/>
<path d="M9.84364 11.1968C10.1365 10.9039 10.1365 10.429 9.84364 10.1361C9.55075 9.84329 9.07588 9.84329 8.78298 10.1361L7.44965 11.4695C7.15676 11.7624 7.15676 12.2372 7.44965 12.5301C7.74254 12.823 8.21742 12.823 8.51031 12.5301L9.84364 11.1968Z" fill="url(#paint3_linear_697_102)"/>
<path d="M7.17714 10.1361C7.47003 10.429 7.47003 10.9039 7.17714 11.1968L5.84381 12.5301C5.55091 12.823 5.07604 12.823 4.78315 12.5301C4.49025 12.2372 4.49025 11.7624 4.78315 11.4695L6.11648 10.1361C6.40937 9.84329 6.88425 9.84329 7.17714 10.1361Z" fill="url(#paint4_linear_697_102)"/>
<defs>
<linearGradient id="paint0_linear_697_102" x1="9.87679" y1="14" x2="9.87679" y2="-14.086" gradientUnits="userSpaceOnUse">
<stop stop-color="#18AEFA"/>
<stop offset="1" stop-color="#83E1FF"/>
</linearGradient>
<linearGradient id="paint1_linear_697_102" x1="8.00151" y1="15.4168" x2="8.00151" y2="2.54336" gradientUnits="userSpaceOnUse">
<stop stop-color="#18AEFA"/>
<stop offset="1" stop-color="#83E1FF"/>
</linearGradient>
<linearGradient id="paint2_linear_697_102" x1="8.00151" y1="15.4168" x2="8.00151" y2="2.54336" gradientUnits="userSpaceOnUse">
<stop stop-color="#18AEFA"/>
<stop offset="1" stop-color="#83E1FF"/>
</linearGradient>
<linearGradient id="paint3_linear_697_102" x1="8.00151" y1="15.4168" x2="8.00151" y2="2.54336" gradientUnits="userSpaceOnUse">
<stop stop-color="#18AEFA"/>
<stop offset="1" stop-color="#83E1FF"/>
</linearGradient>
<linearGradient id="paint4_linear_697_102" x1="8.00151" y1="15.4168" x2="8.00151" y2="2.54336" gradientUnits="userSpaceOnUse">
<stop stop-color="#18AEFA"/>
<stop offset="1" stop-color="#83E1FF"/>
</linearGradient>
</defs>
</svg>
