<svg width="16" height="16" viewBox="0 0 16 16" fill="none" xmlns="http://www.w3.org/2000/svg">
<path fill-rule="evenodd" clip-rule="evenodd" d="M12.2499 6.2249C12.2499 5.21692 13.0726 4.3999 14.0749 4.3999C15.0783 4.3999 15.8999 5.22153 15.8999 6.2249C15.8999 7.23289 15.0772 8.0499 14.0749 8.0499H8.2999C7.96853 8.0499 7.6999 7.78127 7.6999 7.4499C7.6999 7.11853 7.96853 6.8499 8.2999 6.8499H11.9441C12.1214 6.8499 12.2499 6.5772 12.2499 6.3999V6.2249ZM13.4499 6.3999C13.4499 6.5772 13.5784 6.8499 13.7557 6.8499H14.0749C14.4166 6.8499 14.6999 6.56792 14.6999 6.2249C14.6999 5.88427 14.4155 5.5999 14.0749 5.5999C13.7332 5.5999 13.4499 5.88188 13.4499 6.2249V6.3999ZM10.5584 3.3999C9.70408 3.3999 9.0169 4.09348 9.0169 4.9414V5.0744C9.0169 5.1776 8.9444 5.2829 8.8412 5.2829H7.9999C7.66853 5.2829 7.3999 5.55153 7.3999 5.8829C7.3999 6.21427 7.66853 6.4829 7.9999 6.4829H10.5584C11.4127 6.4829 12.0999 5.78932 12.0999 4.9414C12.0999 4.08708 11.4063 3.3999 10.5584 3.3999ZM10.5584 5.2829H10.3926C10.2894 5.2829 10.2169 5.1776 10.2169 5.0744V4.9414C10.2169 4.75332 10.3697 4.5999 10.5584 4.5999C10.7465 4.5999 10.8999 4.75272 10.8999 4.9414C10.8999 5.12948 10.7471 5.2829 10.5584 5.2829Z" fill="url(#paint0_linear_697_93)"/>
<path opacity="0.4" d="M11.2145 14C13.5816 14 15.5 12.104 15.5 9.76475C15.5 7.91076 14.2947 6.33501 12.6163 5.76126C12.3778 3.6455 10.5613 2 8.357 2C5.99001 2 4.07151 3.896 4.07151 6.23525C4.07151 6.75276 4.16526 7.24776 4.33701 7.70676C4.1319 7.6669 3.92345 7.64681 3.7145 7.64676C1.93925 7.64751 0.5 9.0695 0.5 10.8238C0.5 12.578 1.93925 14 3.7145 14H11.2145Z" fill="url(#paint1_linear_697_93)"/>
<defs>
<linearGradient id="paint0_linear_697_93" x1="8.09985" y1="14.2866" x2="8.09985" y2="2.4755" gradientUnits="userSpaceOnUse">
<stop stop-color="#18AEFA"/>
<stop offset="1" stop-color="#83E1FF"/>
</linearGradient>
<linearGradient id="paint1_linear_697_93" x1="9.87679" y1="14" x2="9.87679" y2="-14.086" gradientUnits="userSpaceOnUse">
<stop stop-color="#18AEFA"/>
<stop offset="1" stop-color="#83E1FF"/>
</linearGradient>
</defs>
</svg>
