<svg width="24" height="24" viewBox="0 0 24 24" fill="none" xmlns="http://www.w3.org/2000/svg">
<path opacity="0.4" d="M16.7145 18.5999C20.1861 18.5999 22.9998 15.8191 22.9998 12.3882C22.9998 9.66903 21.2321 7.35795 18.7704 6.51646C18.4206 3.41338 15.7564 1 12.5235 1C9.05194 1 6.23816 3.78078 6.23816 7.21165C6.23816 7.97065 6.37566 8.69664 6.62756 9.36984C6.32674 9.31138 6.02101 9.28191 5.71456 9.28184C3.11088 9.28294 1 11.3685 1 13.9414C1 16.5143 3.11088 18.5999 5.71456 18.5999H16.7145Z" fill="url(#paint0_linear_8_320)"/>
<path d="M9.38852 18.0114L10.6513 16.3009C11.4686 15.1954 11.8767 14.6432 12.2573 14.7609C12.6379 14.8764 12.6379 15.5551 12.6379 16.9103V17.0379C12.6379 17.5274 12.6379 17.7716 12.7941 17.9256L12.8029 17.9333C12.9624 18.0829 13.2165 18.0829 13.7247 18.0829C14.6399 18.0829 15.0975 18.0829 15.2537 18.3612C15.2559 18.3655 15.2581 18.3699 15.2603 18.3744C15.4066 18.6571 15.1415 19.0157 14.6113 19.7329L13.3485 21.4433C12.5312 22.5488 12.1231 23.1021 11.7425 22.9844C11.3619 22.8678 11.3619 22.1902 11.3619 20.8339V20.7063C11.3619 20.218 11.3619 19.9727 11.2057 19.8198L11.1969 19.8121C11.0374 19.6614 10.7833 19.6614 10.2751 19.6614C9.35992 19.6614 8.90233 19.6614 8.74613 19.3842C8.74385 19.3794 8.74165 19.3747 8.73953 19.3699C8.59323 19.0883 8.85833 18.7286 9.38852 18.0114Z" fill="url(#paint1_linear_8_320)"/>
<defs>
<linearGradient id="paint0_linear_8_320" x1="11.9999" y1="18.5999" x2="11.9999" y2="1" gradientUnits="userSpaceOnUse">
<stop stop-color="#5558FF"/>
<stop offset="1" stop-color="#00C0FF"/>
</linearGradient>
<linearGradient id="paint1_linear_8_320" x1="11.9999" y1="23" x2="11.9999" y2="14.7453" gradientUnits="userSpaceOnUse">
<stop stop-color="#5558FF"/>
<stop offset="1" stop-color="#00C0FF"/>
</linearGradient>
</defs>
</svg>
