<svg width="24" height="24" viewBox="0 0 24 24" fill="none" xmlns="http://www.w3.org/2000/svg">
<path opacity="0.4" d="M21 2H3C2.44772 2 2 2.44772 2 3V21C2 21.5523 2.44772 22 3 22H21C21.5523 22 22 21.5523 22 21V3C22 2.44772 21.5523 2 21 2Z" fill="url(#paint0_linear_216_184)"/>
<path opacity="0.3" d="M17.75 4.6001C17.0437 4.6001 16.2339 5.17027 15.3545 6.271C14.4751 7.37172 13.5824 8.91397 12.6592 10.481C11.7359 12.0479 10.7818 13.6412 9.69043 14.8901C8.59911 16.139 7.30988 17.1001 5.75 17.1001C4.30749 17.1001 3.15613 16.0061 2.21875 15.0415C2.13951 14.96 2.07523 14.8831 2 14.8022V21.0001C2 21.5541 2.446 22.0001 3 22.0001H21C21.554 22.0001 22 21.5541 22 21.0001V7.37549C21.6929 7.05458 21.2668 6.63231 20.7471 6.18994C19.759 5.34895 18.4811 4.6001 17.75 4.6001Z" fill="url(#paint1_linear_216_184)"/>
<path fill-rule="evenodd" clip-rule="evenodd" d="M19.569 6.46317C19.4918 6.41885 19.3955 6.4354 19.329 6.49457C18.9757 6.80898 18.5102 7 18 7C17.5274 7 17.093 6.83605 16.7507 6.56193C16.678 6.50367 16.5754 6.49391 16.5002 6.54895C16.166 6.79348 15.8276 7.11966 15.4766 7.52734C14.6003 8.54491 13.7383 10.0039 12.8633 11.5039L12.7843 11.6394L12.7843 11.6394C11.9347 13.0963 11.0684 14.582 10.0391 15.7773C9.44847 16.4632 8.77533 17.074 8.01005 17.4809C7.96008 17.5075 7.9233 17.5534 7.90613 17.6073C7.64904 18.4149 6.89285 19 6 19C5.12142 19 4.37515 18.4335 4.10657 17.6458C4.0878 17.5908 4.04854 17.5447 3.99608 17.5197C3.26995 17.1729 2.62673 16.6814 2.06761 16.1923C2.02449 16.1546 2 16.1 2 16.0427V13.8438C2 13.6581 2.23353 13.5705 2.35967 13.7068C2.57454 13.939 2.82653 14.1955 3.10742 14.4531C3.5313 14.8418 4.01495 15.2047 4.49179 15.4812C4.56721 15.5249 4.66148 15.5114 4.72875 15.4559C5.07433 15.1711 5.51719 15 6 15C6.47264 15 6.90698 15.1639 7.24927 15.4381C7.32201 15.4963 7.42463 15.5061 7.49983 15.4511C7.834 15.2065 8.17238 14.8803 8.52344 14.4727C9.39967 13.4551 10.2617 11.9961 11.1367 10.4961L11.2157 10.3607C12.0653 8.90368 12.9316 7.41803 13.9609 6.22266C14.5515 5.5368 15.2247 4.92597 15.9899 4.51906C16.0399 4.49249 16.0767 4.44664 16.0939 4.39271C16.351 3.58506 17.1072 3 18 3C18.8482 3 19.5731 3.52806 19.8639 4.27338C19.8854 4.32846 19.9276 4.37331 19.9823 4.39579C20.7404 4.7074 21.3907 5.16998 21.9352 5.66163C21.9767 5.69909 22 5.7525 22 5.80839V8.21729C22 8.41526 21.7342 8.49954 21.6128 8.34318C21.1777 7.78303 20.4507 6.96945 19.569 6.46317Z" fill="url(#paint2_linear_216_184)"/>
<path fill-rule="evenodd" clip-rule="evenodd" d="M14.271 12.7233C14.1952 12.5998 14.192 12.4451 14.2627 12.3186L14.8858 11.2047C14.9565 11.0783 15.09 11 15.2349 11H19.6C19.8209 11 20 11.1791 20 11.4V12.6C20 12.8209 19.8209 13 19.6 13H17.5032C17.1904 13 16.9986 13.3428 17.1623 13.6093L17.943 14.8803C17.9816 14.9433 18.0021 15.0158 18.0021 15.0897V15.9103C18.0021 15.9842 17.9816 16.0567 17.943 16.1197L17.1623 17.3907C16.9986 17.6572 17.1904 18 17.5032 18H19.6C19.8209 18 20 18.1791 20 18.4V19.6C20 19.8209 19.8209 20 19.6 20H15.2349C15.09 20 14.9565 19.9217 14.8858 19.7953L14.2627 18.6814C14.192 18.5549 14.1952 18.4002 14.271 18.2767L15.8479 15.7093C15.9267 15.5809 15.9267 15.4191 15.8479 15.2907L14.271 12.7233Z" fill="url(#paint3_linear_216_184)"/>
<defs>
<linearGradient id="paint0_linear_216_184" x1="12" y1="22" x2="12" y2="2" gradientUnits="userSpaceOnUse">
<stop stop-color="#02AA93"/>
<stop offset="1" stop-color="#67FF80"/>
</linearGradient>
<linearGradient id="paint1_linear_216_184" x1="12" y1="22.0001" x2="12" y2="4.6001" gradientUnits="userSpaceOnUse">
<stop stop-color="#02AA93"/>
<stop offset="1" stop-color="#67FF80"/>
</linearGradient>
<linearGradient id="paint2_linear_216_184" x1="12" y1="19" x2="12" y2="3" gradientUnits="userSpaceOnUse">
<stop stop-color="#02AA93"/>
<stop offset="1" stop-color="#67FF80"/>
</linearGradient>
<linearGradient id="paint3_linear_216_184" x1="17" y1="26" x2="17.0741" y2="11" gradientUnits="userSpaceOnUse">
<stop stop-color="#02AA93"/>
<stop offset="1" stop-color="#67FF80"/>
</linearGradient>
</defs>
</svg>
