<svg width="32" height="32" viewBox="0 0 32 32" fill="none" xmlns="http://www.w3.org/2000/svg">
<g clip-path="url(#clip0_224_184)">
<path opacity="0.4" fill-rule="evenodd" clip-rule="evenodd" d="M15.0973 0.486047C15.7023 0.152858 16.3916 -0.016277 17.0895 0.000111003C17.7269 0.0142546 18.3504 0.181351 18.9027 0.486047L30.0973 6.66728C30.6759 6.98662 31.1563 7.44601 31.4903 7.99924C31.8243 8.55246 32.0001 9.18003 32 9.81883V22.1813C31.9998 22.8198 31.8239 23.4471 31.4899 24C31.1559 24.5529 30.6756 25.0121 30.0973 25.3313L18.9027 31.5125C18.3242 31.8319 17.668 32.0001 17 32.0001C16.332 32.0001 15.6758 31.8319 15.0973 31.5125L3.90267 25.3313C3.32436 25.0121 2.84408 24.5529 2.5101 24C2.17612 23.4471 2.00019 22.8198 2 22.1813V9.81883C1.99991 9.18003 2.17569 8.55246 2.50969 7.99923C2.84369 7.44601 3.32412 6.98662 3.90267 6.66728L15.0973 0.486047Z" fill="url(#paint0_linear_224_184)"/>
<path opacity="0.5" d="M6.3806 16.0746C6.13666 15.3702 6.00814 14.631 6 13.8856C6 7.38457 12.05 4.42887 17 9.74957C21.95 4.42887 28 7.38347 28 13.8856C27.9917 14.631 27.8632 15.3701 27.6194 16.0746H24.1764C23.5758 16.0746 23.0434 16.0724 22.5583 16.2891C22.0732 16.5047 21.7168 16.9018 21.3153 17.3484L21.2328 17.4408L20.1009 18.6981C20.0745 18.7276 20.0421 18.7511 20.0058 18.7669C19.9695 18.7828 19.9303 18.7906 19.8907 18.7899C19.8511 18.7891 19.8121 18.7799 19.7765 18.7627C19.7408 18.7455 19.7093 18.7209 19.684 18.6904L15.779 13.9549C15.625 13.7679 15.4611 13.5699 15.3005 13.4214C15.0716 13.1958 14.7705 13.0583 14.4502 13.0331C14.129 13.0197 13.8135 13.1202 13.5592 13.3169C13.3832 13.4445 13.1962 13.6227 13.0202 13.7899L11.3372 15.3915C10.8191 15.8865 10.7102 15.9701 10.598 16.0152C10.4847 16.0614 10.3472 16.0746 9.6311 16.0746H6.3806Z" fill="url(#paint1_linear_224_184)"/>
<path d="M27.6194 16.0747H24.1764C23.5758 16.0736 23.0434 16.0725 22.5572 16.2881C22.0732 16.5048 21.7168 16.9019 21.3153 17.3485L21.2328 17.4409L20.1009 18.6982C20.0745 18.7279 20.0419 18.7514 20.0055 18.7673C19.969 18.7832 19.9296 18.791 19.8899 18.7901C19.8502 18.7893 19.8111 18.7798 19.7754 18.7625C19.7396 18.7451 19.7081 18.7202 19.6829 18.6894L15.7779 13.955C15.6239 13.768 15.4589 13.57 15.2994 13.4215C15.0707 13.1955 14.7696 13.0576 14.4491 13.0321C14.1277 13.0194 13.8121 13.1207 13.5581 13.3181C13.381 13.4446 13.194 13.6228 13.0191 13.7889L11.3361 15.3916C10.818 15.8866 10.7091 15.9702 10.5958 16.0153C10.4825 16.0604 10.3461 16.0747 9.63002 16.0747H6.38062C7.52022 19.4902 10.9907 22.8331 13.6571 25.0067C15.1223 26.2024 15.856 26.7997 17 26.7997C18.144 26.7997 18.8766 26.2024 20.3418 25.0067C23.0082 22.8331 26.4798 19.4902 27.6194 16.0747Z" fill="url(#paint2_linear_224_184)"/>
</g>
<defs>
<linearGradient id="paint0_linear_224_184" x1="17" y1="32.0001" x2="17" y2="-0.000976562" gradientUnits="userSpaceOnUse">
<stop stop-color="#E80058"/>
<stop offset="0.9997" stop-color="#FF001D"/>
<stop offset="0.9998" stop-color="#FF867E"/>
</linearGradient>
<linearGradient id="paint1_linear_224_184" x1="17" y1="18.7899" x2="17" y2="7" gradientUnits="userSpaceOnUse">
<stop stop-color="#E80058"/>
<stop offset="0.9997" stop-color="#FF001D"/>
<stop offset="0.9998" stop-color="#FF867E"/>
</linearGradient>
<linearGradient id="paint2_linear_224_184" x1="17" y1="26.7997" x2="17" y2="13.031" gradientUnits="userSpaceOnUse">
<stop stop-color="#E80058"/>
<stop offset="0.9997" stop-color="#FF001D"/>
<stop offset="0.9998" stop-color="#FF867E"/>
</linearGradient>
<clipPath id="clip0_224_184">
<rect width="32" height="32" fill="white"/>
</clipPath>
</defs>
</svg>
