<svg width="24" height="24" viewBox="0 0 24 24" fill="none" xmlns="http://www.w3.org/2000/svg">
<path fill-rule="evenodd" clip-rule="evenodd" d="M18.6202 14.1583C18.6206 15.647 18.2438 17.1115 17.5249 18.4151C16.806 19.7187 15.7685 20.8189 14.5093 21.6129C13.25 22.4069 11.8101 22.8689 10.324 22.9558C8.83782 23.0426 7.3539 22.7514 6.01076 22.1094C5.61913 21.9124 5.17003 21.8616 4.7443 21.9662L3.39305 22.3286C3.15041 22.3933 2.89501 22.3931 2.65248 22.3279C2.40995 22.2628 2.18883 22.135 2.01131 21.9573C1.83379 21.7797 1.70612 21.5585 1.64111 21.3159C1.5761 21.0733 1.57604 20.8179 1.64094 20.5753L2.00215 19.2241C2.10691 18.7984 2.05613 18.3492 1.85899 17.9576C1.2896 16.7645 0.996035 15.4585 1.00004 14.1365C1.00405 12.8145 1.30552 11.5103 1.88212 10.3207C2.45872 9.13102 3.29566 8.08638 4.33091 7.26419C5.36616 6.44199 6.57318 5.86332 7.86249 5.57106C9.15181 5.27881 10.4904 5.28046 11.779 5.5759C13.0675 5.87134 14.2731 6.45299 15.3063 7.27774C16.3396 8.10249 17.1739 9.14919 17.7476 10.3403C18.3212 11.5313 18.6195 12.8362 18.6202 14.1583ZM5.95569 15.2595C6.24777 15.2595 6.52788 15.1435 6.7344 14.937C6.94093 14.7305 7.05696 14.4503 7.05696 14.1583C7.05696 13.8662 6.94093 13.5861 6.7344 13.3796C6.52788 13.173 6.24777 13.057 5.95569 13.057C5.66362 13.057 5.38351 13.173 5.17698 13.3796C4.97045 13.5861 4.85443 13.8662 4.85443 14.1583C4.85443 14.4503 4.97045 14.7305 5.17698 14.937C5.38351 15.1435 5.66362 15.2595 5.95569 15.2595ZM9.81012 15.2595C10.1022 15.2595 10.3823 15.1435 10.5888 14.937C10.7954 14.7305 10.9114 14.4503 10.9114 14.1583C10.9114 13.8662 10.7954 13.5861 10.5888 13.3796C10.3823 13.173 10.1022 13.057 9.81012 13.057C9.51805 13.057 9.23794 13.173 9.03141 13.3796C8.82488 13.5861 8.70886 13.8662 8.70886 14.1583C8.70886 14.4503 8.82488 14.7305 9.03141 14.937C9.23794 15.1435 9.51805 15.2595 9.81012 15.2595ZM13.6646 15.2595C13.9566 15.2595 14.2367 15.1435 14.4433 14.937C14.6498 14.7305 14.7658 14.4503 14.7658 14.1583C14.7658 13.8662 14.6498 13.5861 14.4433 13.3796C14.2367 13.173 13.9566 13.057 13.6646 13.057C13.3725 13.057 13.0924 13.173 12.8858 13.3796C12.6793 13.5861 12.5633 13.8662 12.5633 14.1583C12.5633 14.4503 12.6793 14.7305 12.8858 14.937C13.0924 15.1435 13.3725 15.2595 13.6646 15.2595Z" fill="url(#paint0_linear_8_376)"/>
<path opacity="0.4" d="M18.6026 14.7178C18.7215 14.6688 18.839 14.6167 18.955 14.5614C19.2755 14.4072 19.64 14.3532 19.9836 14.4457L21.0805 14.7398C21.2778 14.7928 21.4856 14.793 21.6829 14.7402C21.8803 14.6874 22.0603 14.5835 22.2048 14.4391C22.3493 14.2946 22.4531 14.1146 22.5059 13.9172C22.5587 13.7198 22.5586 13.512 22.5055 13.3147L22.2115 12.2179C22.1261 11.8718 22.1671 11.5067 22.3271 11.1882C22.7296 10.3266 22.9565 9.39347 22.9943 8.44325C23.0322 7.49303 22.8803 6.54479 22.5476 5.65391C22.2149 4.76304 21.7081 3.94738 21.0566 3.25459C20.4052 2.56179 19.6222 2.00575 18.7534 1.61893C17.8847 1.23212 16.9476 1.02228 15.9968 1.00168C15.0461 0.98108 14.1008 1.15013 13.2161 1.49895C12.3314 1.84778 11.5251 2.36939 10.8442 3.03331C10.1634 3.69724 9.62165 4.49018 9.25067 5.36581C10.4995 5.28616 11.751 5.47347 12.9218 5.91527C14.0926 6.35706 15.1558 7.0432 16.0407 7.928C16.9256 8.81281 17.6119 9.87597 18.0538 11.0467C18.4958 12.2175 18.6832 13.4689 18.6037 14.7178H18.6026Z" fill="url(#paint1_linear_8_376)"/>
<defs>
<linearGradient id="paint0_linear_8_376" x1="9.81012" y1="22.9708" x2="9.81012" y2="5.35309" gradientUnits="userSpaceOnUse">
<stop stop-color="#5558FF"/>
<stop offset="1" stop-color="#00C0FF"/>
</linearGradient>
<linearGradient id="paint1_linear_8_376" x1="16.1253" y1="14.7797" x2="16.1253" y2="1" gradientUnits="userSpaceOnUse">
<stop stop-color="#5558FF"/>
<stop offset="1" stop-color="#00C0FF"/>
</linearGradient>
</defs>
</svg>
