<svg width="32" height="32" viewBox="0 0 32 32" fill="none" xmlns="http://www.w3.org/2000/svg">
<path opacity="0.4" d="M30 22.125V4.625C30 3.6625 29.2125 2.875 28.25 2.875H3.75C2.7875 2.875 2 3.6625 2 4.625V22.125C2 23.0875 2.7875 23.875 3.75 23.875H28.25C29.2125 23.875 30 23.0875 30 22.125ZM23 26.5C23 26.9832 23.3918 27.375 23.875 27.375H27.375C27.8582 27.375 28.25 27.7668 28.25 28.25V28.25C28.25 28.7332 27.8582 29.125 27.375 29.125H4.625C4.14175 29.125 3.75 28.7332 3.75 28.25V28.25C3.75 27.7668 4.14175 27.375 4.625 27.375H8.125C8.60825 27.375 9 26.9832 9 26.5V26.5C9 26.0168 9.39175 25.625 9.875 25.625H22.125C22.6082 25.625 23 26.0168 23 26.5V26.5Z" fill="url(#paint0_linear_299_357)"/>
<path fill-rule="evenodd" clip-rule="evenodd" d="M16 8.125C19.7546 8.125 23.2046 9.8609 25.9239 12.7361C26.2637 13.0954 26.2637 13.6546 25.9239 14.0139C23.2046 16.8891 19.7546 18.625 16 18.625C12.2455 18.625 8.7955 16.8891 6.07617 14.0139C5.73633 13.6546 5.73633 13.0954 6.07617 12.7361C8.7955 9.8609 12.2455 8.125 16 8.125ZM19.5001 13.3751C19.5001 11.4501 17.9251 9.87511 16.0001 9.87511C14.0751 9.87511 12.5001 11.4501 12.5001 13.3751C12.5001 15.3001 14.0751 16.8751 16.0001 16.8751C17.9251 16.8751 19.5001 15.3001 19.5001 13.3751Z" fill="url(#paint1_linear_299_357)"/>
<defs>
<linearGradient id="paint0_linear_299_357" x1="16" y1="29.125" x2="16" y2="2.875" gradientUnits="userSpaceOnUse">
<stop stop-color="#A93AFF"/>
<stop offset="1" stop-color="#FF81FF"/>
</linearGradient>
<linearGradient id="paint1_linear_299_357" x1="16" y1="18.625" x2="16" y2="8.125" gradientUnits="userSpaceOnUse">
<stop stop-color="#A93AFF"/>
<stop offset="1" stop-color="#FF81FF"/>
</linearGradient>
</defs>
</svg>
