<svg width="24" height="24" viewBox="0 0 24 24" fill="none" xmlns="http://www.w3.org/2000/svg">
<path opacity="0.4" d="M12 23C18.0753 23 23 18.0753 23 12C23 5.9247 18.0753 1 12 1C5.9247 1 1 5.9247 1 12C1 13.76 1.4136 15.4232 2.1473 16.8983C2.3431 17.2899 2.408 17.7376 2.2947 18.1611L1.6402 20.6097C1.57562 20.8519 1.57586 21.1069 1.6409 21.349C1.70595 21.5912 1.8335 21.8119 2.01078 21.9892C2.18806 22.1665 2.40883 22.294 2.65095 22.3591C2.89308 22.4241 3.14805 22.4244 3.3903 22.3598L5.8389 21.7053C6.26394 21.5983 6.71343 21.6504 7.1028 21.8516C8.62401 22.6091 10.3006 23.0022 12 23Z" fill="url(#paint0_linear_8_1128)"/>
<path d="M15.7001 13.4275C15.2971 13.3408 14.9782 13.5279 14.6959 13.6914C14.4068 13.8598 13.8571 14.3057 13.542 14.1916C11.9286 13.5273 10.4113 12.1152 9.75443 10.4954C9.63866 10.1736 10.0825 9.62035 10.2497 9.32782C10.4119 9.04466 10.5951 8.72282 10.5116 8.31678C10.436 7.9519 9.45913 6.70883 9.11368 6.36891C8.88586 6.14437 8.65247 6.02087 8.41288 6.00091C7.51212 5.96224 6.50611 7.16415 6.32967 7.45168C5.88765 8.0648 5.89012 8.88062 6.3371 9.86984C7.4143 12.5269 11.4885 16.5368 14.1555 17.6545C14.6477 17.8846 15.0977 18 15.502 18C15.8976 18 16.2498 17.8896 16.5526 17.6707C16.781 17.5391 18.0322 16.4831 17.9994 15.5581C17.9796 15.3224 17.8564 15.0866 17.6347 14.8583C17.2973 14.5097 16.0623 13.5036 15.7001 13.4275" fill="url(#paint1_linear_8_1128)"/>
<defs>
<linearGradient id="paint0_linear_8_1128" x1="12" y1="23" x2="12" y2="1" gradientUnits="userSpaceOnUse">
<stop stop-color="#00B59C"/>
<stop offset="1" stop-color="#9CFFAC"/>
</linearGradient>
<linearGradient id="paint1_linear_8_1128" x1="12" y1="18" x2="12" y2="6" gradientUnits="userSpaceOnUse">
<stop stop-color="#00B59C"/>
<stop offset="1" stop-color="#9CFFAC"/>
</linearGradient>
</defs>
</svg>
