<svg width="16" height="16" viewBox="0 0 16 16" fill="none" xmlns="http://www.w3.org/2000/svg">
<path opacity="0.4" d="M8 15C11.866 15 15 11.866 15 8C15 4.13401 11.866 1 8 1C4.13401 1 1 4.13401 1 8C1 11.866 4.13401 15 8 15Z" fill="url(#paint0_linear_297_172)"/>
<path d="M9.39502 10.9167C9.45917 10.1462 8.88653 9.46954 8.11599 9.40539C7.34546 9.34124 6.66882 9.91388 6.60467 10.6844C6.54053 11.4549 7.11317 12.1316 7.8837 12.1957C8.65423 12.2599 9.33087 11.6872 9.39502 10.9167Z" fill="url(#paint1_linear_297_172)"/>
<path d="M3.73464 7.02878C3.88286 7.16771 4.11509 7.15376 4.24957 7.00152C5.16632 5.96395 6.50669 5.30946 8.00014 5.30946C9.49355 5.30946 10.834 5.9639 11.7507 7.00152C11.8852 7.15376 12.1175 7.1677 12.2656 7.02878L12.787 6.53994C12.9284 6.40739 12.9386 6.18617 12.8098 6.0413C11.6315 4.71542 9.91345 3.87988 8.00009 3.87988C6.08674 3.87988 4.36872 4.71542 3.19038 6.0413C3.06164 6.18617 3.07177 6.40739 3.21316 6.53994L3.73464 7.02878Z" fill="url(#paint2_linear_297_172)"/>
<path d="M5.82263 8.87724C5.9745 9.0196 6.21314 9.00075 6.34561 8.84018C6.73879 8.36344 7.3338 8.05946 8.00005 8.05946C8.66626 8.05946 9.26127 8.36344 9.6545 8.84018C9.78697 9.00075 10.0256 9.01964 10.1775 8.87724L10.6995 8.38786C10.8392 8.25689 10.85 8.03987 10.7261 7.89378C10.0707 7.12082 9.09291 6.62988 8.00005 6.62988C6.9072 6.62988 5.92943 7.12082 5.27399 7.89378C5.15014 8.03982 5.16095 8.25689 5.30063 8.38786L5.82263 8.87724Z" fill="url(#paint3_linear_297_172)"/>
<defs>
<linearGradient id="paint0_linear_297_172" x1="8" y1="15" x2="8" y2="1" gradientUnits="userSpaceOnUse">
<stop stop-color="#02AA93"/>
<stop offset="1" stop-color="#67FF80"/>
</linearGradient>
<linearGradient id="paint1_linear_297_172" x1="9.39502" y1="10.9167" x2="6.60467" y2="10.6844" gradientUnits="userSpaceOnUse">
<stop stop-color="#02AA93"/>
<stop offset="1" stop-color="#67FF80"/>
</linearGradient>
<linearGradient id="paint2_linear_297_172" x1="8.0001" y1="7.12488" x2="8.0001" y2="3.87988" gradientUnits="userSpaceOnUse">
<stop stop-color="#02AA93"/>
<stop offset="1" stop-color="#67FF80"/>
</linearGradient>
<linearGradient id="paint3_linear_297_172" x1="8.00005" y1="8.97329" x2="8.00005" y2="6.62988" gradientUnits="userSpaceOnUse">
<stop stop-color="#02AA93"/>
<stop offset="1" stop-color="#67FF80"/>
</linearGradient>
</defs>
</svg>
