<svg width="128" height="128" viewBox="0 0 128 128" fill="none" xmlns="http://www.w3.org/2000/svg">
<path d="M119.265 85.7164C119.265 85.9136 117.72 105.462 116.837 113.689C116.284 118.738 113.03 121.8 108.147 121.887C104.396 121.971 100.724 122 97.1112 122C93.2755 122 89.5243 121.971 85.8832 121.887C81.1647 121.774 77.9071 118.651 77.3825 113.689C76.4743 105.433 74.9569 85.9136 74.9287 85.7164C74.9005 85.1219 75.0923 84.5564 75.4815 84.0983C75.8651 83.6749 76.4179 83.4197 76.9989 83.4197H117.223C117.802 83.4197 118.326 83.6749 118.741 84.0983C119.127 84.5564 119.322 85.1219 119.265 85.7164Z" fill="url(#paint0_linear_67_125)"/>
<path d="M123.2 75.5329C123.2 74.341 122.261 73.4073 121.133 73.4073H112.677C110.957 73.4073 109.462 72.1835 109.078 70.4581L108.604 68.344C107.942 65.7892 105.654 64 103.088 64H91.1151C88.5203 64 86.2556 65.7892 85.5674 68.4832L85.1246 70.461C84.7382 72.1835 83.2434 73.4073 81.5257 73.4073H73.0702C71.9392 73.4073 71 74.341 71 75.5329V76.6349C71 77.7977 71.9392 78.7605 73.0702 78.7605H121.133C122.261 78.7605 123.2 77.7977 123.2 76.6349V75.5329Z" fill="url(#paint1_linear_67_125)"/>
<g opacity="0.4">
<path fill-rule="evenodd" clip-rule="evenodd" d="M77.2392 6V6.12407C77.4706 6.17695 77.6963 6.24933 77.9155 6.34348C78.84 6.73974 79.4348 7.42771 79.7917 8.1567C80.127 8.84417 80.2563 9.57342 80.3153 10.1709C80.3734 10.7572 80.3734 11.3476 80.3734 11.8029V43.1867C80.3734 61.9086 66.4741 77.4324 48.4531 79.9987H49.6067V110.313H62.569C65.7965 110.313 68.4126 112.929 68.4126 116.157C68.4126 119.383 65.7962 122 62.569 122H24.9573C21.7301 122 19.1137 119.383 19.1137 116.157C19.1137 112.929 21.7298 110.313 24.9573 110.313H37.9196V79.9987C19.8986 77.4324 6 61.9086 6 43.1867V11.8436C6 8.61629 8.61628 6 11.8436 6H77.2392Z" fill="url(#paint2_linear_67_125)"/>
<path fill-rule="evenodd" clip-rule="evenodd" d="M77.2392 6V6.12407C77.4706 6.17695 77.6963 6.24933 77.9155 6.34348C78.84 6.73974 79.4348 7.42771 79.7917 8.1567C80.127 8.84417 80.2563 9.57342 80.3153 10.1709C80.3734 10.7572 80.3734 11.3476 80.3734 11.8029V43.1867C80.3734 61.9086 66.4741 77.4324 48.4531 79.9987H49.6067V110.313H62.569C65.7965 110.313 68.4126 112.929 68.4126 116.157C68.4126 119.383 65.7962 122 62.569 122H24.9573C21.7301 122 19.1137 119.383 19.1137 116.157C19.1137 112.929 21.7298 110.313 24.9573 110.313H37.9196V79.9987C19.8986 77.4324 6 61.9086 6 43.1867V11.8436C6 8.61629 8.61628 6 11.8436 6H77.2392Z" fill="url(#paint3_linear_67_125)"/>
</g>
<path d="M30.6075 24.7832L36.2441 7.87329H46.6664L42.1565 21.403H50.9087C52.4979 21.403 53.9899 22.167 54.9189 23.4558C55.848 24.7449 56.1008 26.4022 55.5984 27.9097L47.7929 51.3265C46.9294 53.9165 44.1301 55.3161 41.5396 54.453C38.9497 53.5896 37.5496 50.7898 38.4131 48.1997L44.0497 31.29H35.2975C33.7082 31.29 32.216 30.5257 31.287 29.2369C30.3579 27.9479 30.1054 26.2907 30.6075 24.7832Z" fill="url(#paint4_linear_67_125)"/>
<path d="M30.6075 24.7832L36.2441 7.87329H46.6664L42.1565 21.403H50.9087C52.4979 21.403 53.9899 22.167 54.9189 23.4558C55.848 24.7449 56.1008 26.4022 55.5984 27.9097L47.7929 51.3265C46.9294 53.9165 44.1301 55.3161 41.5396 54.453C38.9497 53.5896 37.5496 50.7898 38.4131 48.1997L44.0497 31.29H35.2975C33.7082 31.29 32.216 30.5257 31.287 29.2369C30.3579 27.9479 30.1054 26.2907 30.6075 24.7832Z" fill="url(#paint5_linear_67_125)"/>
<path d="M30.6075 24.7832L36.2441 7.87329H46.6664L42.1565 21.403H50.9087C52.4979 21.403 53.9899 22.167 54.9189 23.4558C55.848 24.7449 56.1008 26.4022 55.5984 27.9097L47.7929 51.3265C46.9294 53.9165 44.1301 55.3161 41.5396 54.453C38.9497 53.5896 37.5496 50.7898 38.4131 48.1997L44.0497 31.29H35.2975C33.7082 31.29 32.216 30.5257 31.287 29.2369C30.3579 27.9479 30.1054 26.2907 30.6075 24.7832Z" stroke="url(#paint6_linear_67_125)" stroke-width="4"/>
<defs>
<linearGradient id="paint0_linear_67_125" x1="117.777" y1="84.5224" x2="104.235" y2="123.609" gradientUnits="userSpaceOnUse">
<stop stop-color="#FE0F7C"/>
<stop offset="1" stop-color="#DF0066"/>
</linearGradient>
<linearGradient id="paint1_linear_67_125" x1="121.436" y1="64.4219" x2="119.574" y2="80.9614" gradientUnits="userSpaceOnUse">
<stop stop-color="#FE0F7C"/>
<stop offset="1" stop-color="#DF0066"/>
</linearGradient>
<linearGradient id="paint2_linear_67_125" x1="43.7631" y1="119.291" x2="43.7631" y2="12.3058" gradientUnits="userSpaceOnUse">
<stop stop-color="#FD3A84"/>
<stop offset="1" stop-color="#FFA68D"/>
</linearGradient>
<linearGradient id="paint3_linear_67_125" x1="77.8608" y1="9.31561" x2="18.8624" y2="104.298" gradientUnits="userSpaceOnUse">
<stop stop-color="#FE0F7C"/>
<stop offset="1" stop-color="#DF0066"/>
</linearGradient>
<linearGradient id="paint4_linear_67_125" x1="43.3007" y1="53.6142" x2="43.3007" y2="10.4192" gradientUnits="userSpaceOnUse">
<stop stop-color="#FD3A84"/>
<stop offset="1" stop-color="#FFA68D"/>
</linearGradient>
<linearGradient id="paint5_linear_67_125" x1="54.9907" y1="9.21196" x2="29.6661" y2="43.832" gradientUnits="userSpaceOnUse">
<stop stop-color="#FE0F7C"/>
<stop offset="1" stop-color="#DF0066"/>
</linearGradient>
<linearGradient id="paint6_linear_67_125" x1="54.9907" y1="9.21196" x2="29.6661" y2="43.832" gradientUnits="userSpaceOnUse">
<stop stop-color="#FE0F7C"/>
<stop offset="1" stop-color="#DF0066"/>
</linearGradient>
</defs>
</svg>
