<svg width="24" height="24" viewBox="0 0 24 24" fill="none" xmlns="http://www.w3.org/2000/svg">
<path opacity="0.4" d="M17.3729 4.42633H14.1355C13.329 4.43166 12.5633 4.07291 12.0522 3.45026L10.9861 1.97639C10.4836 1.34827 9.71789 0.987839 8.91259 1.00031H6.62391C2.51601 1.00031 1 3.41121 1 7.51072V11.9421C0.997436 12.1866 6.98165 6.00091 12.5 6C17.9809 5.9991 22.9961 12.1846 22.9968 11.9421V10.6537C23.0164 6.55417 21.5395 4.42633 17.3729 4.42633Z" fill="url(#paint0_linear_88_76)"/>
<path fill-rule="evenodd" clip-rule="evenodd" d="M21.7153 5.99777C22.0673 6.40925 22.3392 6.8826 22.5174 7.39355C22.8678 8.4437 23.03 9.54728 22.9966 10.6536V16.432C22.9952 16.9187 22.9592 17.4047 22.889 17.8863C22.7553 18.7363 22.4563 19.552 22.0088 20.2875C21.8031 20.6427 21.5533 20.9707 21.2654 21.2635C19.9621 22.4597 18.2315 23.0823 16.4632 22.9912H7.52367C5.75254 23.0817 4.01908 22.4593 2.71161 21.2635C2.42714 20.9701 2.1807 20.6422 1.97806 20.2875C1.53323 19.5526 1.24056 18.7361 1.11737 17.8863C1.03904 17.4055 0.999788 16.9191 1 16.432V10.6536C0.99981 10.171 1.02593 9.6888 1.07825 9.20905C1.08925 9.12487 1.10575 9.04207 1.12208 8.96013C1.1493 8.82352 1.17605 8.6893 1.17605 8.55508C1.27534 7.97612 1.45645 7.41416 1.71399 6.88599C2.47688 5.25595 4.04177 4.42629 6.6043 4.42629H17.363C18.7982 4.31529 20.2228 4.74736 21.3535 5.63662C21.4837 5.74704 21.6047 5.86782 21.7153 5.99777ZM11.3333 13.3333C11.3333 13.8856 10.8856 14.3333 10.3333 14.3333H7C6.44772 14.3333 6 13.8856 6 13.3333V10.3333C6 9.6 6.6 9 7.33333 9H10.3333C10.8856 9 11.3333 9.44772 11.3333 10V13.3333ZM13.6667 14.3333C13.1144 14.3333 12.6667 13.8856 12.6667 13.3333V10C12.6667 9.44772 13.1144 9 13.6667 9H16.6667C17.4 9 18 9.6 18 10.3333V13.3333C18 13.8856 17.5523 14.3333 17 14.3333H13.6667ZM10.3333 15.6667C10.8856 15.6667 11.3333 16.1144 11.3333 16.6667V20C11.3333 20.5523 10.8856 21 10.3333 21H7.33333C6.6 21 6 20.4 6 19.6667V16.6667C6 16.1144 6.44772 15.6667 7 15.6667H10.3333ZM12.6667 16.6667C12.6667 16.1144 13.1144 15.6667 13.6667 15.6667H17C17.5523 15.6667 18 16.1144 18 16.6667V19.6667C18 20.4 17.4 21 16.6667 21H13.6667C13.1144 21 12.6667 20.5523 12.6667 20V16.6667Z" fill="url(#paint1_linear_88_76)"/>
<defs>
<linearGradient id="paint0_linear_88_76" x1="11.9985" y1="11.9492" x2="11.9985" y2="1" gradientUnits="userSpaceOnUse">
<stop stop-color="#5570FF"/>
<stop offset="1" stop-color="#4DD3FF"/>
</linearGradient>
<linearGradient id="paint1_linear_88_76" x1="12.0004" y1="23" x2="12.0004" y2="4.40918" gradientUnits="userSpaceOnUse">
<stop stop-color="#5570FF"/>
<stop offset="1" stop-color="#4DD3FF"/>
</linearGradient>
</defs>
</svg>
