<svg width="32" height="32" viewBox="0 0 32 32" fill="none" xmlns="http://www.w3.org/2000/svg">
<path opacity="0.4" d="M22.8381 6.36078H18.7177C17.6913 6.36757 16.7168 5.91097 16.0663 5.11851L14.7095 3.24267C14.0699 2.44326 13.0954 1.98452 12.0705 2.0004H9.15763C3.92945 2.0004 2 5.06882 2 10.2864V12.9263C1.9935 13.5465 29.9939 13.5457 29.9957 12.9263V13.2865C29.9957 11 28.1409 6.36078 22.8381 6.36078Z" fill="url(#paint0_linear_38_295)"/>
<path fill-rule="evenodd" clip-rule="evenodd" d="M29.3857 10.1372C29.159 9.48686 28.8129 8.88442 28.365 8.3607C28.2242 8.19531 28.0701 8.04159 27.9044 7.90106C26.4654 6.76928 24.6523 6.21937 22.8256 6.36064H9.13274C5.87135 6.36064 3.87966 7.41658 2.90871 9.49117C2.58094 10.1634 2.35043 10.8786 2.22407 11.6155C2.22407 11.7863 2.19002 11.9571 2.15537 12.131C2.13459 12.2353 2.11359 12.3407 2.09959 12.4478C2.033 13.0584 1.99976 13.6721 2 14.2864V21.6406C1.99973 22.2606 2.04968 22.8796 2.14938 23.4916C2.30617 24.5731 2.67865 25.6122 3.24481 26.5476C3.50271 26.999 3.81636 27.4164 4.17841 27.7899C5.84246 29.3117 8.04869 30.1038 10.3029 29.9887H21.6804C23.9309 30.1047 26.1336 29.3122 27.7924 27.7899C28.1588 27.4171 28.4767 26.9997 28.7384 26.5476C29.308 25.6116 29.6885 24.5734 29.8588 23.4916C29.9481 22.8786 29.9939 22.2601 29.9957 21.6406V14.2864C30.0382 12.8783 29.8318 11.4737 29.3857 10.1372ZM20.5276 13.2603V13.2753C20.5555 13.2817 20.5827 13.2904 20.6092 13.3018C20.7208 13.3496 20.7926 13.4326 20.8357 13.5206C20.8762 13.6036 20.8918 13.6916 20.8989 13.7637C20.9059 13.8345 20.9059 13.9057 20.9059 13.9607V17.7484C20.9059 20.0079 19.2284 21.8815 17.0534 22.1912H17.1927V25.8498H18.7571C19.1466 25.8498 19.4623 26.1656 19.4623 26.5551C19.4623 26.9445 19.1466 27.2603 18.7571 27.2603H14.2177C13.8282 27.2603 13.5125 26.9445 13.5125 26.5551C13.5125 26.1656 13.8282 25.8498 14.2177 25.8498H15.7821V22.1912C13.6072 21.8815 11.9298 20.0079 11.9298 17.7484V13.9656C11.9298 13.5761 12.2455 13.2603 12.635 13.2603H20.5276ZM19.4954 14.6708V17.7484C19.4954 19.4451 18.1145 20.8259 16.4178 20.8259C14.7212 20.8259 13.3403 19.4451 13.3403 17.7484V14.6708H19.4954ZM15.9624 14.6958L15.4161 16.3348C15.3674 16.4809 15.3919 16.6415 15.4819 16.7665C15.572 16.8914 15.7166 16.9655 15.8706 16.9655H16.7189L16.1726 18.6045C16.0889 18.8555 16.2246 19.1269 16.4757 19.2106C16.7267 19.2942 16.9981 19.1586 17.0818 18.9075L17.8383 16.6378C17.887 16.4917 17.8625 16.3311 17.7724 16.2061C17.6824 16.0812 17.5378 16.0072 17.3838 16.0072H16.5354L16.9726 14.6958H15.9624Z" fill="url(#paint1_linear_38_295)"/>
<defs>
<linearGradient id="paint0_linear_38_295" x1="29.9127" y1="2.07221" x2="21.9749" y2="21.4182" gradientUnits="userSpaceOnUse">
<stop stop-color="#FE7970"/>
<stop offset="1" stop-color="#DC3282"/>
</linearGradient>
<linearGradient id="paint1_linear_38_295" x1="29.9182" y1="6.48887" x2="6.74106" y2="33.6891" gradientUnits="userSpaceOnUse">
<stop stop-color="#FE7970"/>
<stop offset="1" stop-color="#DC3282"/>
</linearGradient>
</defs>
</svg>
