<svg width="128" height="128" viewBox="0 0 128 128" fill="none" xmlns="http://www.w3.org/2000/svg">
<rect opacity="0.4" x="6" y="6" width="116" height="116" rx="32" fill="url(#paint0_linear_60_400)"/>
<path d="M27.6137 80.8133L27.6113 80.8015L27.6085 80.7898C27.0627 78.4721 27.0824 76.1084 27.1029 73.6491C27.1083 72.998 27.1138 72.3402 27.1089 71.6747C27.1041 66.021 27.1062 60.3657 27.1083 54.7102C27.1113 46.6362 27.1143 38.5618 27.0974 30.4917C27.2022 28.5313 25.8819 26.5623 23.9629 26.1371C22.6598 25.7717 21.3612 26.216 20.4414 27.0345C19.522 27.8526 18.9116 29.1013 19.0105 30.4689C18.9981 41.304 19.0005 52.1394 19.0029 62.9742C19.0038 67.3118 19.0047 71.6492 19.0047 75.9865C18.9989 82.558 21.0566 89.1132 24.8159 94.3552C29.4636 100.937 36.7576 105.4 44.5308 106.131C50.3864 106.773 56.3539 105.33 61.4308 102.238C63.0029 101.28 65.01 101.296 66.5772 102.261C74.7749 107.311 85.4129 107.686 93.8101 102.858C102.846 97.8535 108.881 87.4341 108.988 76.6398V76.6325C108.994 61.2517 108.994 45.8771 108.988 30.5025C109.155 28.38 107.577 26.2634 105.467 26.0534C104.195 25.826 102.995 26.3475 102.162 27.1836C101.328 28.0203 100.794 29.2334 100.89 30.5183C100.869 38.4359 100.873 46.3728 100.876 54.3082C100.88 61.7542 100.883 69.1989 100.867 76.6254C100.725 85.1916 95.3736 93.3234 87.8841 96.3214L87.8786 96.3229L87.8731 96.3252C83.2476 98.2613 77.931 98.1837 73.3242 96.2266C71.3053 95.3688 70.9037 92.8588 71.9156 90.9126C74.2784 86.3685 75.5616 81.206 75.5349 75.9979C75.5522 63.5042 75.5522 51.0104 75.5407 38.5169C75.6118 34.4424 73.651 30.4015 70.4173 28.1379C66.7615 25.477 61.6548 25.3838 57.9162 27.9073C54.4876 30.1267 52.3811 34.3063 52.4522 38.5232C52.4465 50.9917 52.4407 63.4609 52.4581 75.9303C52.4358 81.1311 53.694 86.3194 56.0581 90.8709C57.0832 92.8445 56.6642 95.3936 54.6114 96.2491C50.2539 98.0652 45.3103 98.2679 40.882 96.6273L40.8719 96.6235C34.2968 94.2923 29.0841 88.0686 27.6137 80.8133ZM60.6026 38.4872V38.463L60.6011 38.439C60.4702 36.3143 62.337 34.459 64.1914 34.6452L64.2125 34.6474L64.2337 34.6483C65.946 34.7252 67.4934 36.4933 67.3914 38.4399L67.3904 38.4603V38.4807C67.4019 51.1976 67.4077 63.9142 67.3961 76.6306C67.3886 78.5887 67.0879 80.5274 66.5485 82.3964C65.7366 85.2095 62.2351 85.2615 61.4477 82.4414C60.8111 80.1614 60.5304 77.7493 60.585 75.3714L60.5853 75.3631V75.3548C60.5939 69.2106 60.5939 63.0665 60.5939 56.9222C60.5939 50.7778 60.5939 44.6332 60.6026 38.4872Z" fill="url(#paint1_linear_60_400)" stroke="url(#paint2_linear_60_400)" stroke-width="6"/>
<defs>
<linearGradient id="paint0_linear_60_400" x1="64.0004" y1="120.892" x2="64.0004" y2="7.1085" gradientUnits="userSpaceOnUse">
<stop stop-color="#A93AFF"/>
<stop offset="1" stop-color="#FF81FF"/>
</linearGradient>
<linearGradient id="paint1_linear_60_400" x1="64.0003" y1="105.514" x2="64.0003" y2="26.7672" gradientUnits="userSpaceOnUse">
<stop stop-color="#A93AFF"/>
<stop offset="1" stop-color="#FF81FF"/>
</linearGradient>
<linearGradient id="paint2_linear_60_400" x1="64.0003" y1="105.514" x2="64.0003" y2="26.7672" gradientUnits="userSpaceOnUse">
<stop stop-color="#A93AFF"/>
<stop offset="1" stop-color="#FF81FF"/>
</linearGradient>
</defs>
</svg>
