<svg width="64" height="64" viewBox="0 0 64 64" fill="none" xmlns="http://www.w3.org/2000/svg">
<path d="M55.2607 3.59259C55.9205 2.83527 56.9798 2.40638 57.9035 2.83913C59.1089 3.39939 59.5333 4.84061 60.1503 5.97272C58.9948 7.16279 58.2708 8.71606 57.2615 10.0336C57.0618 9.55452 56.8514 9.07927 56.6409 8.60401C50.7314 14.6664 45.0465 21.0301 39.1762 27.1505C38.2418 27.6026 37.0542 27.3089 36.3588 26.5052C35.5956 25.319 36.291 23.8623 37.2646 23.1321C37.4893 22.9234 37.6926 22.6993 37.8816 22.4559C36.6904 21.3972 35.1533 20.9258 33.634 20.8369C34.0335 19.2566 35.2389 18.1747 35.9593 16.7838C37.7176 17.1779 39.3581 18.0975 40.7383 19.3378C45.5744 14.0868 50.4211 8.83971 55.2607 3.59259Z" fill="#1BB5FF"/>
<path d="M57.2615 10.0336C58.2708 8.71606 58.9948 7.16279 60.1503 5.97272C61.2594 8.36445 62.1546 10.8759 62.686 13.4917C62.7894 14.0945 62.9285 14.6934 63.0141 15.3C61.8836 16.6137 61.1417 18.2482 59.9613 19.5155C59.8792 19.6044 59.7116 19.786 59.626 19.8748C55.7993 24.5926 52.0581 29.3993 48.2171 34.1054C48.5702 34.2561 48.9446 34.3373 49.3405 34.3489L49.8826 34.4416C49.3262 35.5737 48.6379 36.6208 47.9282 37.6486C46.6015 37.324 45.0572 37.5906 43.9338 36.6285C43.1742 35.8674 43.1421 34.5575 43.8696 33.7616C48.5416 28.0005 53.2172 22.2434 57.8856 16.4785C58.2565 15.9607 58.902 15.4237 58.6417 14.6741C58.335 13.1517 57.8535 11.6757 57.3221 10.2306L57.2615 10.0336Z" fill="#21C2FF"/>
<path d="M25.3635 20.2419C27.9563 17.1122 32.2075 15.8255 35.9593 16.7838C35.2389 18.1747 34.0335 19.2566 33.634 20.8369C32.3252 20.8059 31.0198 21.1345 29.8536 21.7797C30.2103 22.255 30.6133 22.6916 31.0234 23.1128C31.1696 23.2635 31.4549 23.5648 31.5976 23.7155C30.5455 24.5617 29.9392 25.8407 29.2973 27.0462C28.1774 25.8522 27.0932 24.6158 25.9484 23.4489C25.0568 22.7109 24.5896 21.2736 25.3635 20.2419Z" fill="#15A7FF"/>
<path d="M29.2973 27.0462C29.9392 25.8407 30.5455 24.5617 31.5976 23.7155C33.1241 25.6127 35.189 27.0732 36.3017 29.3065C36.3945 30.2841 35.831 31.0878 35.2175 31.7176C30.3886 36.9686 25.5276 42.1809 20.7058 47.4319C20.9876 47.6521 21.2943 47.8222 21.6259 47.9419C21.1088 49.2016 20.3813 50.3375 19.7037 51.4967C19.0118 51.1798 18.352 50.7857 17.6779 50.4264C16.8898 51.1798 16.2621 52.1149 15.4382 52.8297C12.4246 55.3567 7.9666 55.4262 4.74969 53.2972C5.47368 51.941 6.12276 50.4418 7.37457 49.557C9.89959 50.9519 13.0059 49.7579 14.7321 47.4899C14.5502 47.316 14.1935 46.9644 14.0117 46.7866C14.1722 46.833 14.4896 46.9296 14.65 46.976C14.7606 47.1769 14.9889 47.5787 15.103 47.7797C16.098 46.6437 16.7007 45.1484 17.8313 44.136C18.9797 42.9498 20.1174 41.5743 20.4383 39.8317C20.7914 38.2436 20.2564 36.5938 19.3684 35.3264C18.9155 34.6309 18.327 34.0668 17.7314 33.5181C18.6409 32.4517 19.3292 31.1882 20.1709 30.06C22.1609 31.9378 23.8657 34.3218 24.2152 37.2429C26.462 34.7082 28.7873 32.2469 31.0912 29.7663C31.1768 29.6659 31.348 29.4611 31.4336 29.3568C30.7702 28.5376 29.9892 27.8383 29.2973 27.0462Z" fill="#17ADFF"/>
<path d="M15.0352 29.9325C15.7949 29.1481 16.5224 27.9928 17.7065 28.0778C18.7906 28.2401 19.4291 29.3143 20.1709 30.06C19.3292 31.1882 18.6409 32.4517 17.7314 33.5181C15.7485 35.2336 14.033 38.2823 15.1707 41.0334C15.7414 42.3355 16.879 43.1854 17.8313 44.136C16.7007 45.1484 16.098 46.6437 15.103 47.7797C14.9889 47.5787 14.7606 47.1769 14.65 46.976C14.4896 46.9296 14.1722 46.833 14.0117 46.7866C13.9012 46.6591 13.6764 46.408 13.5658 46.2844C12.4959 44.6152 10.3989 44.4065 8.6977 44.7002C7.14274 44.9784 5.90877 46.1337 4.86381 47.3315C5.06709 47.7101 5.37737 48.0038 5.67695 48.2897C6.18338 48.7997 6.76115 49.2093 7.37457 49.557C6.12276 50.4418 5.47368 51.941 4.74969 53.2972C3.20187 52.2307 2.04991 50.6389 0.712507 49.302C-0.318185 48.3168 -0.168396 46.4003 0.762437 45.3957C2.26746 43.7806 3.6548 41.9259 5.60562 40.9252C7.14274 40.1138 8.87959 39.8704 10.5736 39.9399C10.4488 37.9075 10.702 35.7824 11.6507 33.9934C12.4674 32.3629 13.8868 31.2655 15.0352 29.9325Z" fill="#12A2FF"/>
<path opacity="0.4" fill-rule="evenodd" clip-rule="evenodd" d="M61.5956 17.2876C61.0919 18.0651 60.5885 18.8422 59.9611 19.5157C59.954 21.3665 59.9076 23.2212 59.7471 25.0642C59.5395 25.3647 59.3541 25.8302 59.1629 26.3102C58.8943 26.9844 58.6144 27.687 58.2457 28.0008C57.7401 28.4008 57.9774 29.1626 58.2155 29.9269C58.4443 30.6613 58.6739 31.398 58.2457 31.8183C58.2223 31.816 58.082 31.9497 57.8599 32.1787C56.9672 33.0036 56.1826 33.666 55.5082 34.2354C53.8163 35.6638 52.8175 36.5071 52.543 37.8613C52.2725 38.4118 52.4328 38.8406 52.5874 39.254C52.6438 39.4049 52.6995 39.5537 52.7331 39.7057L52.6492 39.824C51.6407 41.245 50.4551 42.9153 49.3546 43.7885C48.6734 42.2507 47.9174 40.6975 46.737 39.519L46.7371 39.5189C46.5731 39.3566 46.2378 39.032 46.0702 38.8698C45.2999 38.2593 44.4938 37.6874 43.6022 37.3088C42.2613 36.3312 40.1464 37.1233 40.1143 39.005C40.1661 40.4234 41.1861 40.9303 42.238 41.4532C42.9942 41.829 43.7669 42.2131 44.2084 42.95L44.2083 42.9501C46.0414 45.2606 46.8439 48.8463 45.4173 51.6128C44.2047 53.8036 42.1647 55.6351 39.761 55.9326C39.2795 56.006 38.7873 56.0215 38.3059 55.9713H38.3058C38.606 55.1032 38.9065 54.2352 39.2071 53.367L39.2145 53.3454L39.2147 53.345C39.947 51.2296 40.6796 49.1136 41.4086 46.9956C41.5655 46.5319 41.6404 46.0528 41.6262 45.5543C41.2481 43.9161 38.8979 43.2399 38.0705 44.8395C37.6906 45.6761 37.3972 46.5543 37.1039 47.4324L37.1038 47.4325C36.8105 48.3104 36.5172 49.1884 36.1375 50.0248C34.1653 50.3108 32.1647 50.4035 30.1783 50.2605C30.1783 50.2604 30.1782 50.2604 30.1781 50.2603C27.2358 50.0246 24.3185 49.2634 21.6259 47.9419C21.2036 48.9706 20.641 49.9167 20.0798 50.8604C19.9538 51.0723 19.8279 51.2841 19.7036 51.4967C22.5567 52.88 25.5988 53.8227 28.7052 54.24C28.7052 54.2401 28.7051 54.2402 28.7051 54.2403C30.6702 54.5146 32.6566 54.5571 34.636 54.5069C34.5147 54.8624 34.3792 55.214 34.2366 55.5617C33.7658 56.6436 33.2059 58.0964 34.1224 59.1049C34.5005 59.4101 34.9177 59.6845 35.4028 59.7193L35.4028 59.7192C37.5569 60.3645 39.8573 60.6002 42.0328 59.9201C45.7204 58.788 48.8268 55.4806 49.7398 51.4196C49.8368 51.0401 49.8664 50.6483 49.896 50.2567C49.9285 49.8271 49.9609 49.3978 50.0822 48.9854C50.3801 48.5623 50.7962 48.2943 51.213 48.0258L51.2131 48.0258C51.5348 47.8186 51.857 47.6111 52.1257 47.3317C60.7992 39.8667 64.979 27.0503 63.014 15.3003C62.4842 15.9159 62.0398 16.6019 61.5956 17.2876ZM28.7984 54.0671C29.022 53.6663 29.2853 53.2875 29.5485 52.9089L29.5485 52.9088C29.6053 52.8272 29.6621 52.7455 29.7185 52.6636C29.6621 52.7454 29.6054 52.827 29.5487 52.9085C29.2854 53.2873 29.022 53.6661 28.7984 54.0671ZM52.5956 37.8275C52.568 37.8505 52.5501 37.8622 52.543 37.8613C52.5511 37.8565 52.5596 37.8513 52.5685 37.8456C52.5772 37.84 52.5862 37.834 52.5956 37.8275ZM52.5956 37.8275C53.5603 37.1619 58.2457 31.8183 58.2457 31.8183C58.115 31.9418 57.9864 32.0619 57.8599 32.1787C57.3424 32.7124 56.3804 33.7637 55.4152 34.8185C54.1475 36.2038 52.8744 37.5951 52.5956 37.8275ZM37.7851 55.952L37.7851 55.952C37.6741 56.0885 37.5657 56.2274 37.4598 56.3684C37.5657 56.2274 37.674 56.0885 37.7851 55.952ZM53.2243 39.0189C53.349 38.8468 53.4695 38.6829 53.5853 38.5298C53.3052 38.5905 53.2235 38.7783 53.2243 39.0189ZM53.8319 38.5092C53.8399 38.5221 53.8477 38.5355 53.8554 38.5488L53.8555 38.549C53.9126 38.6477 53.9643 38.7371 54.0801 38.5298C53.9885 38.5172 53.906 38.5105 53.8319 38.5092ZM57.4186 33.8372L57.3896 33.8857C56.9563 34.6126 56.5955 35.2179 56.8655 35.0716C57.0459 34.7411 57.1901 34.391 57.3346 34.0401C57.3625 33.9724 57.3904 33.9047 57.4186 33.8372Z" fill="#1CB7FF"/>
</svg>
