<svg width="48" height="48" viewBox="0 0 48 48" fill="none" xmlns="http://www.w3.org/2000/svg">
<path opacity="0.4" d="M42.9 3H5.1C3.9402 3 3 3.9402 3 5.1V42.9C3 44.0598 3.9402 45 5.1 45H42.9C44.0598 45 45 44.0598 45 42.9V5.1C45 3.9402 44.0598 3 42.9 3Z" fill="url(#paint0_linear_49_85)"/>
<path d="M30.374 10.0748C30.1646 10.0329 29.9593 10.1629 29.9075 10.37L27.4664 20.1342C27.3612 20.5551 26.7551 20.5309 26.6838 20.103L26.0712 16.4274C26.0328 16.1971 25.8062 16.0485 25.5797 16.1051L18.213 17.9467C18.0803 17.9799 17.9738 18.0786 17.9306 18.2083L16.4763 22.5711C16.3466 22.9602 15.785 22.9252 15.7046 22.523L14.0889 14.4443C14.0417 14.2084 13.7984 14.0672 13.5701 14.1433L8.33842 15.8872C8.14558 15.9515 8.03161 16.1502 8.07349 16.3491L11.9423 34.726C11.977 34.8905 12.1107 35.0158 12.2772 35.0396L18.6888 35.9555C18.8714 35.9816 19.0482 35.8794 19.1168 35.7081L20.5567 32.1082C20.6993 31.7519 21.2131 31.7812 21.314 32.1515L22.4319 36.2505C22.4734 36.4023 22.6 36.5158 22.7555 36.5403L31.6573 37.9459C31.854 37.9769 32.0435 37.8587 32.102 37.6684L39.8698 12.4231C39.9395 12.1967 39.7982 11.9596 39.566 11.9132L30.374 10.0748Z" fill="url(#paint1_linear_49_85)"/>
<defs>
<linearGradient id="paint0_linear_49_85" x1="14.4175" y1="19.6422" x2="43.2288" y2="15.7978" gradientUnits="userSpaceOnUse">
<stop stop-color="#0357D1"/>
<stop offset="1" stop-color="#27CDFC"/>
</linearGradient>
<linearGradient id="paint1_linear_49_85" x1="8" y1="38" x2="44.8131" y2="19.6626" gradientUnits="userSpaceOnUse">
<stop stop-color="#0357D1"/>
<stop offset="1" stop-color="#27CDFC"/>
</linearGradient>
</defs>
</svg>
