<svg width="24" height="24" viewBox="0 0 24 24" fill="none" xmlns="http://www.w3.org/2000/svg">
<path opacity="0.45" d="M2 9.8C2 5.6519 2 3.5773 3.2892 2.2892C4.5773 1 6.6519 1 10.8 1H13C17.1481 1 19.2227 1 20.5108 2.2892C21.8 3.5773 21.8 5.6519 21.8 9.8V14.2C21.8 18.3481 21.8 20.4227 20.5108 21.7108C19.2227 23 17.1481 23 13 23H10.8C6.6519 23 4.5773 23 3.2892 21.7108C2 20.4227 2 18.3481 2 14.2V9.8Z" fill="url(#paint0_linear_101_79)"/>
<path fill-rule="evenodd" clip-rule="evenodd" d="M5.30522 6.30522C5.10979 6.50065 5 6.76572 5 7.04212C5 7.31852 5.10979 7.58352 5.30522 7.77902C5.50066 7.97442 5.76572 8.08422 6.0421 8.08422H17.1579C17.4343 8.08422 17.6993 7.97442 17.8948 7.77902C18.0902 7.58352 18.2 7.31852 18.2 7.04212C18.2 6.76572 18.0902 6.50065 17.8948 6.30522C17.6993 6.10979 17.4343 6 17.1579 6H6.0421C5.76572 6 5.50066 6.10979 5.30522 6.30522ZM5.30522 11.8631C5.10979 12.0585 5 12.3236 5 12.6C5 12.8764 5.10979 13.1414 5.30522 13.3369C5.50066 13.5323 5.76572 13.6421 6.0421 13.6421H12.9895C13.2658 13.6421 13.5309 13.5323 13.7263 13.3369C13.9218 13.1414 14.0316 12.8764 14.0316 12.6C14.0316 12.3236 13.9218 12.0585 13.7263 11.8631C13.5309 11.6677 13.2658 11.5579 12.9895 11.5579H6.0421C5.76572 11.5579 5.50066 11.6677 5.30522 11.8631ZM5 18.0421C5 17.7657 5.10979 17.5006 5.30522 17.3052C5.50066 17.1098 5.76572 17 6.0421 17H12.9895C13.2658 17 13.5309 17.1098 13.7263 17.3052C13.9218 17.5006 14.0316 17.7657 14.0316 18.0421C14.0316 18.3185 13.9218 18.5835 13.7263 18.779C13.5309 18.9744 13.2658 19.0842 12.9895 19.0842H6.0421C5.76572 19.0842 5.50066 18.9744 5.30522 18.779C5.10979 18.5835 5 18.3185 5 18.0421Z" fill="url(#paint1_linear_101_79)"/>
<path d="M5.30522 6.30522L4.95168 5.95166L4.95167 5.95167L5.30522 6.30522ZM5.30522 7.77902L4.9516 8.13251L4.9517 8.13261L5.30522 7.77902ZM17.8948 7.77902L18.2483 8.13266L18.2485 8.13248L17.8948 7.77902ZM17.8948 6.30522L18.2484 5.95169L18.2483 5.9516L17.8948 6.30522ZM5.30522 11.8631L4.9517 11.5095L4.95169 11.5095L5.30522 11.8631ZM5.30522 13.3369L4.9516 13.6904L4.9517 13.6905L5.30522 13.3369ZM13.7263 13.3369L13.3728 12.9834L13.3728 12.9834L13.7263 13.3369ZM13.7263 11.8631L13.3728 12.2167L13.3728 12.2168L13.7263 11.8631ZM5.30522 17.3052L4.9517 16.9516L4.95169 16.9516L5.30522 17.3052ZM13.7263 17.3052L13.3728 17.6588L13.3728 17.6588L13.7263 17.3052ZM5.30522 18.779L4.9516 19.1325L4.9517 19.1326L5.30522 18.779ZM5.5 7.04212C5.5 6.89832 5.55712 6.76043 5.65877 6.65877L4.95167 5.95167C4.66246 6.24087 4.5 6.63312 4.5 7.04212H5.5ZM5.65884 7.42553C5.55709 7.32374 5.5 7.18587 5.5 7.04212H4.5C4.5 7.45117 4.66249 7.8433 4.9516 8.13251L5.65884 7.42553ZM6.0421 7.58422C5.89834 7.58422 5.76043 7.5271 5.65874 7.42543L4.9517 8.13261C5.24089 8.42174 5.6331 8.58422 6.0421 8.58422V7.58422ZM17.1579 7.58422H6.0421V8.58422H17.1579V7.58422ZM17.5413 7.42538C17.4395 7.52713 17.3017 7.58422 17.1579 7.58422V8.58422C17.567 8.58422 17.9591 8.42171 18.2483 8.13266L17.5413 7.42538ZM17.7 7.04212C17.7 7.18586 17.6429 7.32375 17.5412 7.42556L18.2485 8.13248C18.5375 7.84329 18.7 7.45118 18.7 7.04212H17.7ZM17.5412 6.65875C17.6429 6.76042 17.7 6.89832 17.7 7.04212H18.7C18.7 6.63312 18.5375 6.24088 18.2484 5.95169L17.5412 6.65875ZM17.1579 6.5C17.3017 6.5 17.4395 6.55709 17.5413 6.65884L18.2483 5.9516C17.9591 5.66249 17.567 5.5 17.1579 5.5V6.5ZM6.0421 6.5H17.1579V5.5H6.0421V6.5ZM5.65876 6.65878C5.76044 6.55711 5.89833 6.5 6.0421 6.5V5.5C5.63311 5.5 5.24088 5.66247 4.95168 5.95166L5.65876 6.65878ZM5.5 12.6C5.5 12.4562 5.55713 12.3183 5.65875 12.2167L4.95169 11.5095C4.66245 11.7987 4.5 12.191 4.5 12.6H5.5ZM5.65884 12.9834C5.55709 12.8816 5.5 12.7438 5.5 12.6H4.5C4.5 13.0091 4.66249 13.4012 4.9516 13.6904L5.65884 12.9834ZM6.0421 13.1421C5.89834 13.1421 5.76043 13.085 5.65874 12.9833L4.9517 13.6905C5.24089 13.9796 5.6331 14.1421 6.0421 14.1421V13.1421ZM12.9895 13.1421H6.0421V14.1421H12.9895V13.1421ZM13.3728 12.9834C13.2711 13.085 13.1332 13.1421 12.9895 13.1421V14.1421C13.3984 14.1421 13.7907 13.9796 14.0799 13.6905L13.3728 12.9834ZM13.5316 12.6C13.5316 12.7438 13.4745 12.8816 13.3728 12.9834L14.0799 13.6905C14.3691 13.4012 14.5316 13.0091 14.5316 12.6H13.5316ZM13.3728 12.2168C13.4745 12.3183 13.5316 12.4562 13.5316 12.6H14.5316C14.5316 12.191 14.3691 11.7987 14.0798 11.5095L13.3728 12.2168ZM12.9895 12.0579C13.1332 12.0579 13.2711 12.115 13.3728 12.2167L14.0799 11.5096C13.7907 11.2204 13.3984 11.0579 12.9895 11.0579V12.0579ZM6.0421 12.0579H12.9895V11.0579H6.0421V12.0579ZM5.65874 12.2167C5.76043 12.115 5.89834 12.0579 6.0421 12.0579V11.0579C5.6331 11.0579 5.24089 11.2204 4.9517 11.5095L5.65874 12.2167ZM4.95169 16.9516C4.66245 17.2408 4.5 17.6331 4.5 18.0421H5.5C5.5 17.8983 5.55713 17.7604 5.65875 17.6588L4.95169 16.9516ZM6.0421 16.5C5.6331 16.5 5.24089 16.6625 4.9517 16.9516L5.65874 17.6588C5.76043 17.5571 5.89834 17.5 6.0421 17.5V16.5ZM12.9895 16.5H6.0421V17.5H12.9895V16.5ZM14.0799 16.9516C13.7907 16.6625 13.3984 16.5 12.9895 16.5V17.5C13.1332 17.5 13.2711 17.5571 13.3728 17.6588L14.0799 16.9516ZM14.5316 18.0421C14.5316 17.6331 14.3691 17.2408 14.0798 16.9516L13.3728 17.6588C13.4745 17.7604 13.5316 17.8983 13.5316 18.0421H14.5316ZM14.0799 19.1326C14.3691 18.8433 14.5316 18.4512 14.5316 18.0421H13.5316C13.5316 18.1858 13.4745 18.3237 13.3728 18.4254L14.0799 19.1326ZM12.9895 19.5842C13.3984 19.5842 13.7907 19.4217 14.0799 19.1326L13.3728 18.4254C13.2711 18.5271 13.1332 18.5842 12.9895 18.5842V19.5842ZM6.0421 19.5842H12.9895V18.5842H6.0421V19.5842ZM4.9517 19.1326C5.24089 19.4217 5.6331 19.5842 6.0421 19.5842V18.5842C5.89834 18.5842 5.76043 18.5271 5.65874 18.4254L4.9517 19.1326ZM4.5 18.0421C4.5 18.4511 4.66249 18.8433 4.9516 19.1325L5.65884 18.4255C5.55709 18.3237 5.5 18.1859 5.5 18.0421H4.5Z" fill="url(#paint2_linear_101_79)"/>
<defs>
<linearGradient id="paint0_linear_101_79" x1="11.9" y1="23" x2="11.9" y2="1" gradientUnits="userSpaceOnUse">
<stop stop-color="#5558FF"/>
<stop offset="1" stop-color="#00C0FF"/>
</linearGradient>
<linearGradient id="paint1_linear_101_79" x1="11.5" y1="23" x2="11.5" y2="1.5" gradientUnits="userSpaceOnUse">
<stop stop-color="#5558FF"/>
<stop offset="1" stop-color="#00C0FF"/>
</linearGradient>
<linearGradient id="paint2_linear_101_79" x1="11.5" y1="23" x2="11.5" y2="1.5" gradientUnits="userSpaceOnUse">
<stop stop-color="#5558FF"/>
<stop offset="1" stop-color="#00C0FF"/>
</linearGradient>
</defs>
</svg>
