<svg width="24" height="24" viewBox="0 0 24 24" fill="none" xmlns="http://www.w3.org/2000/svg">
<path opacity="0.5" d="M1 11.8C1 13.604 1.4675 14.2101 2.4025 15.4256C4.2692 17.85 7.3998 20.6 12 20.6C16.6002 20.6 19.7308 17.85 21.5975 15.4256C22.5325 14.2112 23 13.6029 23 11.8C23 9.996 22.5325 9.3899 21.5975 8.1744C19.7308 5.75 16.6002 3 12 3C7.3998 3 4.2692 5.75 2.4025 8.1744C1.4675 9.391 1 9.9971 1 11.8Z" fill="url(#paint0_linear_8_425)"/>
<path fill-rule="evenodd" clip-rule="evenodd" d="M7.875 11.8C7.875 10.706 8.3096 9.65676 9.08318 8.88317C9.85677 8.10958 10.906 7.67499 12 7.67499C13.094 7.67499 14.1432 8.10958 14.9168 8.88317C15.6904 9.65676 16.125 10.706 16.125 11.8C16.125 12.894 15.6904 13.9432 14.9168 14.7168C14.1432 15.4904 13.094 15.925 12 15.925C10.906 15.925 9.85677 15.4904 9.08318 14.7168C8.3096 13.9432 7.875 12.894 7.875 11.8ZM9.525 11.8C9.525 11.1436 9.78576 10.5141 10.2499 10.0499C10.7141 9.58575 11.3436 9.32499 12 9.32499C12.6564 9.32499 13.2859 9.58575 13.7501 10.0499C14.2142 10.5141 14.475 11.1436 14.475 11.8C14.475 12.4564 14.2142 13.0859 13.7501 13.5501C13.2859 14.0142 12.6564 14.275 12 14.275C11.3436 14.275 10.7141 14.0142 10.2499 13.5501C9.78576 13.0859 9.525 12.4564 9.525 11.8Z" fill="url(#paint1_linear_8_425)"/>
<defs>
<linearGradient id="paint0_linear_8_425" x1="12" y1="20.6" x2="12" y2="3" gradientUnits="userSpaceOnUse">
<stop stop-color="#5570FF"/>
<stop offset="1" stop-color="#4DD3FF"/>
</linearGradient>
<linearGradient id="paint1_linear_8_425" x1="12" y1="15.925" x2="12" y2="7.67499" gradientUnits="userSpaceOnUse">
<stop stop-color="#5570FF"/>
<stop offset="1" stop-color="#4DD3FF"/>
</linearGradient>
</defs>
</svg>
