<svg width="226" height="222" viewBox="0 0 226 222" fill="none" xmlns="http://www.w3.org/2000/svg">
<path opacity="0.4" d="M212.681 75.5307C216.73 86.4799 218.958 98.2885 219 110.618V110.979C219 123.44 216.769 135.373 212.68 146.429C209.837 154.116 206.095 161.388 201.568 168.118L201.561 168.13C199.669 170.954 197.63 173.687 195.462 176.317C188.528 184.73 180.282 192.061 171.021 198.014L171.019 198.015C167.607 200.21 164.065 202.214 160.404 204.008L160.394 204.013C146.151 211.015 130.06 214.962 113 214.962C95.94 214.962 79.8491 211.015 65.6057 204.013L65.5964 204.008C61.932 202.212 58.386 200.208 54.976 198.015C45.595 191.98 37.2499 184.533 30.2594 175.98L30.2548 175.975C28.0902 173.332 26.0567 170.576 24.1596 167.719L24.1548 167.712C19.7505 161.095 16.1035 153.959 13.3156 146.418L13.3151 146.416C9.22809 135.366 7 123.439 7 110.981C7 53.6889 54.3209 7 113 7C142.436 7 169.031 18.758 188.231 37.7275L188.233 37.7286C193.763 43.1916 198.677 49.2543 202.855 55.8017L202.862 55.8139C206.812 61.9793 210.113 68.5835 212.68 75.5292L212.681 75.5307Z" fill="url(#paint0_linear_39_132)"/>
<path d="M57 70V152.512L113 104.384L169 152.512V70" stroke="url(#paint1_linear_39_132)" stroke-width="22" stroke-linecap="round" stroke-linejoin="round"/>
<defs>
<linearGradient id="paint0_linear_39_132" x1="113" y1="223.038" x2="113" y2="-1.07629" gradientUnits="userSpaceOnUse">
<stop stop-color="#5570FF"/>
<stop offset="1" stop-color="#4DD3FF"/>
</linearGradient>
<linearGradient id="paint1_linear_39_132" x1="113" y1="152.512" x2="113" y2="70" gradientUnits="userSpaceOnUse">
<stop stop-color="#5570FF"/>
<stop offset="1" stop-color="#4DD3FF"/>
</linearGradient>
</defs>
</svg>
