<svg width="226" height="222" viewBox="0 0 226 222" fill="none" xmlns="http://www.w3.org/2000/svg">
<path opacity="0.4" d="M212.681 75.5307C216.73 86.4799 218.958 98.2885 219 110.618V110.979C219 123.44 216.769 135.373 212.68 146.429C209.837 154.116 206.095 161.388 201.568 168.118L201.561 168.13C199.669 170.954 197.63 173.687 195.462 176.317C188.528 184.73 180.282 192.061 171.021 198.014L171.019 198.015C167.607 200.21 164.065 202.214 160.404 204.008L160.394 204.013C146.151 211.015 130.06 214.962 113 214.962C95.94 214.962 79.8491 211.015 65.6057 204.013L65.5964 204.008C61.932 202.212 58.386 200.208 54.976 198.015C45.595 191.98 37.2499 184.533 30.2594 175.98L30.2548 175.975C28.0902 173.332 26.0567 170.576 24.1596 167.719L24.1548 167.712C19.7505 161.095 16.1035 153.959 13.3156 146.418L13.3151 146.416C9.22809 135.366 7 123.439 7 110.981C7 53.6889 54.3209 7 113 7C142.436 7 169.031 18.758 188.231 37.7275L188.233 37.7286C193.763 43.1916 198.677 49.2543 202.855 55.8017L202.862 55.8139C206.812 61.9793 210.113 68.5835 212.68 75.5292L212.681 75.5307Z" fill="url(#paint0_linear_39_125)"/>
<path fill-rule="evenodd" clip-rule="evenodd" d="M130.624 118.916C131.623 118.916 132.622 118.999 133.621 119.164C136.074 119.494 138.481 120.113 140.706 121.061C142.977 121.928 144.976 123.33 146.474 125.145C147.201 126.094 147.791 127.166 148.155 128.28C148.7 129.93 148.972 131.621 148.927 133.354C148.972 135.086 148.7 136.777 148.155 138.427C147.791 139.541 147.201 140.614 146.474 141.562C144.976 143.377 142.977 144.78 140.706 145.646C138.481 146.595 136.074 147.214 133.621 147.544C132.668 147.709 131.668 147.791 130.715 147.791H67.1768C64.7697 147.791 62.4535 148.658 60.773 150.225C59.0926 151.751 58.0935 153.855 58.0935 156.041C58.0935 158.228 59.0926 160.331 60.773 161.858C62.4535 163.425 64.7697 164.291 67.1768 164.291H130.76C130.806 164.291 130.896 164.291 130.942 164.291C132.758 164.25 134.621 164.126 136.437 163.838C140.479 163.301 144.385 162.27 148.109 160.744C153.241 158.681 157.692 155.464 161.098 151.38C163.051 148.905 164.55 146.141 165.549 143.254C166.594 140.036 167.139 136.695 167.093 133.354C167.139 130.013 166.594 126.671 165.549 123.454C164.55 120.566 163.051 117.802 161.098 115.327C157.692 111.244 153.241 108.026 148.109 105.964C144.385 104.438 140.479 103.406 136.437 102.87C134.621 102.581 132.758 102.458 130.942 102.416C130.828 102.416 130.71 102.416 130.597 102.416H95.3578C95.0672 102.387 94.772 102.375 94.4722 102.375C93.473 102.334 92.4739 102.251 91.4747 102.086C89.0222 101.798 86.6151 101.137 84.3897 100.23C82.1189 99.3225 80.1205 97.92 78.6218 96.1462C77.8951 95.1975 77.3047 94.125 76.9414 93.0112C76.3964 91.3612 76.1239 89.6287 76.1693 87.9375C76.1239 86.205 76.3964 84.4725 76.9414 82.8225C77.3047 81.7088 77.8951 80.6363 78.6218 79.6875C80.1205 77.9137 82.1189 76.5113 84.3897 75.6038C86.6151 74.6963 89.0222 74.0363 91.4747 73.7475C92.4285 73.5825 93.4276 73.5 94.3814 73.5H157.919C160.326 73.5 162.643 72.6337 164.323 71.0662C166.003 69.54 167.003 67.4362 167.003 65.25C167.003 63.0638 166.003 60.96 164.323 59.3925C162.643 57.8663 160.326 57 157.919 57H94.336C94.2905 57 94.1997 57 94.1543 57C92.3376 57 90.4755 57.165 88.6589 57.4538C84.6168 57.99 80.711 59.0213 76.9868 60.5475C71.8547 62.5688 67.4039 65.8275 63.9976 69.9113C62.0447 72.3863 60.546 75.1088 59.5468 78.0375C58.5022 81.255 57.9572 84.555 58.0026 87.9375C57.9572 91.2787 58.5022 94.62 59.5468 97.7962C60.546 100.725 62.0447 103.489 63.9976 105.923C67.4039 110.006 71.8547 113.265 76.9868 115.327C80.711 116.812 84.6168 117.844 88.6589 118.421C90.4755 118.669 92.3376 118.834 94.1543 118.875C94.2133 118.875 94.2724 118.875 94.336 118.875L94.3814 118.916H130.624Z" fill="url(#paint1_linear_39_125)" stroke="url(#paint2_linear_39_125)" stroke-width="4"/>
<defs>
<linearGradient id="paint0_linear_39_125" x1="113" y1="223.038" x2="113" y2="-1.07629" gradientUnits="userSpaceOnUse">
<stop stop-color="#02AA93"/>
<stop offset="1" stop-color="#67FF80"/>
</linearGradient>
<linearGradient id="paint1_linear_39_125" x1="112.548" y1="164.291" x2="112.548" y2="57" gradientUnits="userSpaceOnUse">
<stop stop-color="#02AA93"/>
<stop offset="1" stop-color="#67FF80"/>
</linearGradient>
<linearGradient id="paint2_linear_39_125" x1="112.548" y1="164.291" x2="112.548" y2="57" gradientUnits="userSpaceOnUse">
<stop stop-color="#02AA93"/>
<stop offset="1" stop-color="#67FF80"/>
</linearGradient>
</defs>
</svg>
