<svg width="192" height="192" viewBox="0 0 192 192" fill="none" xmlns="http://www.w3.org/2000/svg">
<path opacity="0.4" d="M180.635 66.1864C184.073 75.4829 185.964 85.5091 186 95.9779V96.2842C186 106.864 184.106 116.996 180.634 126.383C178.22 132.91 175.043 139.084 171.199 144.799L171.193 144.809C169.587 147.206 167.856 149.526 166.015 151.76C160.127 158.903 153.126 165.127 145.263 170.181L145.262 170.182C142.364 172.047 139.357 173.748 136.249 175.271L136.24 175.275C124.147 181.221 110.485 184.571 96.0002 184.571C81.5151 184.571 67.853 181.221 55.7595 175.275L55.7517 175.271C52.6404 173.746 49.6296 172.045 46.7343 170.182C38.7693 165.059 31.6839 158.735 25.7485 151.474L25.7446 151.469C23.9068 149.226 22.1802 146.885 20.5695 144.459L20.5654 144.454C16.8259 138.836 13.7294 132.777 11.3623 126.374L11.3619 126.372C7.89177 116.99 6 106.864 6 96.286C6 47.6416 46.1782 8 96.0002 8C120.993 8 143.574 17.9832 159.876 34.0894L159.877 34.0903C164.573 38.7287 168.744 43.8763 172.292 49.4354L172.298 49.4457C175.652 54.6805 178.454 60.2878 180.634 66.1852L180.635 66.1864Z" fill="url(#paint0_linear_39_116)"/>
<path d="M28.7809 67.8585C26.4783 64.5096 29.6269 59.7865 33.5517 60.0183C48.7015 60.0012 63.86 60.0012 79.0098 60.0183C81.3473 59.9325 83.5539 61.4181 84.5307 63.479C88.7782 72.4356 93.1392 81.3406 97.2472 90.3572C101.25 81.5381 105.769 72.9594 109.937 64.2262C110.827 61.8904 113.086 60.0098 115.694 60.0269C129.91 59.984 144.127 60.0012 158.344 60.0183C161.867 59.881 165.329 63.9084 163.49 67.2145C160.359 73.2772 157.201 79.3226 154.087 85.4024C153.276 86.8451 152.613 88.5711 151 89.3353C148.487 91.0271 144.746 89.447 143.909 86.6733C143.124 84.6897 144.214 82.6545 145.086 80.9026C147.031 77.296 148.828 73.6035 150.79 70.0054C139.915 70.0998 129.047 70.0741 118.18 70.0225C113.156 80.6279 107.931 91.1473 102.672 101.641C108.184 113.38 114.133 124.955 119.217 136.875C123.988 128.004 127.983 118.747 132.588 109.799C133.521 108.571 134.777 107.291 136.478 107.386C140.071 106.759 143.159 111.139 141.44 114.255C135.972 125.908 130.207 137.433 124.66 149.051C123.726 151.353 121.52 153.474 118.904 153.499C117.141 152.753 115.302 151.705 114.586 149.85C108.742 137.604 102.837 125.385 97.1338 113.079C91.0808 125.308 85.1239 137.587 79.0708 149.816C78.3121 151.662 76.5067 152.83 74.6837 153.499C72.1021 153.534 70.0002 151.379 69.0059 149.18C55.6092 122.061 42.1776 94.9687 28.7809 67.8585ZM40.9653 69.9367C52.0245 92.255 63.0837 114.573 74.0907 136.909C80.257 125.308 85.5948 113.285 91.6913 101.641C86.4409 91.1645 81.6961 80.439 76.4282 69.9624C64.6101 70.0998 52.7833 70.16 40.9653 69.9367Z" fill="url(#paint1_linear_39_116)" stroke="url(#paint2_linear_39_116)" stroke-width="6"/>
<defs>
<linearGradient id="paint0_linear_39_116" x1="32.3605" y1="158.713" x2="157.192" y2="31.458" gradientUnits="userSpaceOnUse">
<stop stop-color="#0072FF"/>
<stop offset="1" stop-color="#00E5A1"/>
</linearGradient>
<linearGradient id="paint1_linear_39_116" x1="47.9168" y1="139.807" x2="109.647" y2="50.0179" gradientUnits="userSpaceOnUse">
<stop stop-color="#0072FF"/>
<stop offset="1" stop-color="#00E5A1"/>
</linearGradient>
<linearGradient id="paint2_linear_39_116" x1="47.9168" y1="139.807" x2="109.647" y2="50.0179" gradientUnits="userSpaceOnUse">
<stop stop-color="#0072FF"/>
<stop offset="1" stop-color="#00E5A1"/>
</linearGradient>
</defs>
</svg>
