<svg width="64" height="64" viewBox="0 0 64 64" fill="none" xmlns="http://www.w3.org/2000/svg">
<path opacity="0.4" d="M18.0001 4C14.287 4 10.726 5.47499 8.10052 8.10046C5.475 10.7259 4 14.2869 4 17.9999C4 21.7128 5.475 25.2738 8.10052 27.8993C10.726 30.5247 14.287 31.9997 18.0001 31.9997C14.287 31.9997 10.726 33.4747 8.10052 36.1002C5.475 38.7257 4 42.2866 4 45.9996C4 49.7126 5.475 53.2735 8.10052 55.899C10.726 58.5245 14.287 59.9995 18.0001 59.9995C21.7131 59.9995 25.2741 58.5245 27.8996 55.899C30.5252 53.2735 32.0001 49.7126 32.0001 45.9996C31.9949 45.6967 31.9799 45.3939 31.955 45.0919C31.9529 45.0664 31.9747 45.0453 32.0001 45.0481V45.0481V45.0481C32.0179 45.0481 32.0319 45.0632 32.0307 45.0809C32.0103 45.3869 32.0005 45.6929 32.0001 45.9996C32.0001 49.7126 33.4743 53.2741 36.0998 55.8995C38.7254 58.5251 42.2863 60 45.9994 60C49.7125 60 53.2734 58.5251 55.899 55.8995C58.5244 53.2741 59.9995 49.7131 59.9995 46.0001C59.9995 42.2871 58.5244 38.7262 55.899 36.1007C53.2734 33.4753 49.7125 32.0003 45.9994 32.0003C45.984 32.002 45.9686 32.0038 45.9531 32.0056C45.9515 32.0058 45.9501 32.0045 45.9501 32.003V32.003C45.9501 32.0015 45.9513 32.0003 45.9528 32.0003C45.9684 32.0003 45.9839 32.0003 45.9994 32.0003C49.7125 32.0003 53.2734 30.5253 55.899 27.8998C58.5244 25.2743 59.9995 21.7134 59.9995 18.0004C59.9995 14.2874 58.5244 10.7265 55.899 8.10102C53.2734 5.47554 49.7125 4.00056 45.9994 4.00056C42.4511 4.00066 39.0352 5.34805 36.4424 7.77031C33.8576 10.185 32.283 13.4885 32.0344 17.0162C32.0331 17.0346 32.0177 17.049 31.9992 17.049V17.049V17.049C31.9715 17.049 31.9486 17.0275 31.9466 16.9998C31.6944 13.4815 30.1231 10.1871 27.546 7.77667C24.9569 5.35499 21.5452 4.00456 18.0001 4ZM45.9728 12.3288C46.9105 12.3194 47.8356 12.5458 48.6632 12.9869C49.4908 13.4281 50.1944 14.0701 50.7093 14.854C51.2243 15.6378 51.5341 16.5384 51.6105 17.4731C51.6868 18.4078 51.5272 19.3467 51.1463 20.2037C49.5055 24.0313 48.0859 27.9204 45.2551 31.4372C42.4271 34.9512 37.5775 37.5999 31.9998 37.5999C28.6527 37.5999 28.6872 37.7504 27.7833 38.814C26.8797 39.8775 25.3842 43.087 23.1294 48.2421C22.8484 48.9356 22.4313 49.5658 21.9027 50.0955C21.374 50.6252 20.7446 51.0436 20.0515 51.3258C19.3585 51.6082 18.6159 51.7487 17.8676 51.7392C17.1194 51.7298 16.3806 51.5705 15.695 51.2707C15.0093 50.9709 14.3907 50.5368 13.8756 49.9939C13.3605 49.451 12.9596 48.8103 12.6962 48.1099C12.4328 47.4095 12.3126 46.6633 12.3425 45.9156C12.3723 45.1679 12.5517 44.4337 12.8702 43.7564C15.0603 38.7502 16.3618 34.959 19.2458 31.5627C22.1326 28.1663 26.9458 26.3995 31.9998 26.3995C34.8225 26.3995 35.2988 25.9483 36.5333 24.4144C37.768 22.8803 39.1498 19.7711 40.8537 15.7958C41.2724 14.7792 41.9809 13.9083 42.8911 13.2918C43.8014 12.6752 44.8734 12.3407 45.9728 12.3288ZM18.0006 12.3999C19.4858 12.3999 20.9102 12.9899 21.9604 14.0402C23.0106 15.0903 23.6006 16.5147 23.6006 17.9999C23.6006 19.4851 23.0106 20.9094 21.9604 21.9596C20.9102 23.0098 19.4858 23.5998 18.0006 23.5998C16.5154 23.5998 15.091 23.0098 14.0408 21.9596C12.9906 20.9094 12.4006 19.4851 12.4006 17.9999C12.4006 16.5147 12.9906 15.0903 14.0408 14.0402C15.091 12.9899 16.5154 12.3999 18.0006 12.3999ZM46.0008 40.3997C47.4859 40.3997 48.9104 40.9896 49.9606 42.0398C51.0107 43.09 51.6008 44.5144 51.6008 45.9996C51.6008 47.4848 51.0107 48.9091 49.9606 49.9593C48.9104 51.0095 47.4859 51.5996 46.0008 51.5996C44.5155 51.5996 43.0911 51.0095 42.0409 49.9593C40.9907 48.9091 40.4008 47.4848 40.4008 45.9996C40.4008 44.5144 40.9907 43.09 42.0409 42.0398C43.0911 40.9896 44.5155 40.3997 46.0008 40.3997Z" fill="url(#paint0_linear_54_1482)"/>
<path d="M31.9508 45.0425C31.9782 45.361 31.9946 45.6801 32 45.9996C32.0005 45.682 32.0109 45.365 32.0329 45.0481H32L31.9508 45.0425Z" fill="url(#paint1_linear_54_1482)"/>
<path d="M45.9501 32.0059L45.9993 32.0003H45.9501V32.0059Z" fill="url(#paint2_linear_54_1482)"/>
<path d="M48.6632 12.9869C47.8356 12.5458 46.9105 12.3194 45.9727 12.3288C44.8734 12.3407 43.8013 12.6752 42.8911 13.2918C41.9809 13.9083 41.2724 14.7792 40.8536 15.7958C39.1497 19.7711 37.7679 22.8803 36.5332 24.4144C35.2988 25.9483 34.8224 26.3995 31.9997 26.3995C26.9457 26.3995 22.1325 28.1663 19.2457 31.5627C16.3617 34.959 15.0603 38.7501 12.8701 43.7564C12.5517 44.4337 12.3723 45.1679 12.3424 45.9156C12.3125 46.6633 12.4328 47.4095 12.6961 48.1099C12.9595 48.8103 13.3604 49.451 13.8755 49.9939C14.3906 50.5368 15.0092 50.9709 15.6949 51.2707C16.3806 51.5705 17.1193 51.7298 17.8676 51.7392C18.6158 51.7487 19.3585 51.6082 20.0515 51.3258C20.7446 51.0436 21.3739 50.6252 21.9026 50.0955C22.4313 49.5658 22.8484 48.9356 23.1293 48.242C25.3842 43.087 26.8796 39.8775 27.7832 38.814C28.6871 37.7504 28.6526 37.5999 31.9997 37.5999C37.5774 37.5999 42.427 34.9512 45.255 31.4372C48.0858 27.9204 49.5054 24.0313 51.1462 20.2037C51.5271 19.3467 51.6867 18.4078 51.6104 17.4731C51.534 16.5384 51.2242 15.6378 50.7092 14.854C50.1943 14.0701 49.4908 13.4281 48.6632 12.9869Z" fill="url(#paint3_linear_54_1482)"/>
<path d="M21.9603 14.0402C20.9101 12.9899 19.4858 12.3999 18.0006 12.3999C16.5153 12.3999 15.091 12.9899 14.0407 14.0402C12.9905 15.0903 12.4006 16.5147 12.4006 17.9999C12.4006 19.4851 12.9905 20.9094 14.0407 21.9596C15.091 23.0098 16.5153 23.5998 18.0006 23.5998C19.4858 23.5998 20.9101 23.0098 21.9603 21.9596C23.0105 20.9094 23.6006 19.4851 23.6006 17.9999C23.6006 16.5147 23.0105 15.0903 21.9603 14.0402Z" fill="url(#paint4_linear_54_1482)"/>
<path d="M49.9605 42.0398C48.9103 40.9896 47.4859 40.3997 46.0007 40.3997C44.5154 40.3997 43.0911 40.9896 42.0408 42.0398C40.9906 43.09 40.4007 44.5144 40.4007 45.9996C40.4007 47.4847 40.9906 48.9091 42.0408 49.9593C43.0911 51.0095 44.5154 51.5996 46.0007 51.5996C47.4859 51.5996 48.9103 51.0095 49.9605 49.9593C51.0106 48.9091 51.6007 47.4847 51.6007 45.9996C51.6007 44.5144 51.0106 43.09 49.9605 42.0398Z" fill="url(#paint5_linear_54_1482)"/>
<defs>
<linearGradient id="paint0_linear_54_1482" x1="31.9997" y1="60" x2="31.9997" y2="4" gradientUnits="userSpaceOnUse">
<stop stop-color="#FD5900"/>
<stop offset="1" stop-color="#FFDE00"/>
</linearGradient>
<linearGradient id="paint1_linear_54_1482" x1="31.9996" y1="60" x2="31.9996" y2="4" gradientUnits="userSpaceOnUse">
<stop stop-color="#FD5900"/>
<stop offset="1" stop-color="#FFDE00"/>
</linearGradient>
<linearGradient id="paint2_linear_54_1482" x1="31.9996" y1="60" x2="31.9996" y2="4" gradientUnits="userSpaceOnUse">
<stop stop-color="#FD5900"/>
<stop offset="1" stop-color="#FFDE00"/>
</linearGradient>
<linearGradient id="paint3_linear_54_1482" x1="31.9996" y1="60" x2="31.9996" y2="4" gradientUnits="userSpaceOnUse">
<stop stop-color="#FD5900"/>
<stop offset="1" stop-color="#FFDE00"/>
</linearGradient>
<linearGradient id="paint4_linear_54_1482" x1="31.9996" y1="60" x2="31.9996" y2="4" gradientUnits="userSpaceOnUse">
<stop stop-color="#FD5900"/>
<stop offset="1" stop-color="#FFDE00"/>
</linearGradient>
<linearGradient id="paint5_linear_54_1482" x1="31.9996" y1="60" x2="31.9996" y2="4" gradientUnits="userSpaceOnUse">
<stop stop-color="#FD5900"/>
<stop offset="1" stop-color="#FFDE00"/>
</linearGradient>
</defs>
</svg>
