<svg width="64" height="64" viewBox="0 0 64 64" fill="none" xmlns="http://www.w3.org/2000/svg">
<path opacity="0.4" d="M32 4C47.464 4 60 16.536 60 32C60 47.464 47.464 60 32 60C16.536 60 4 47.464 4 32C4 16.536 16.536 4 32 4Z" fill="url(#paint0_linear_216_278)"/>
<path d="M34.5863 11.3C34.5863 10.69 34.3439 10.105 33.9126 9.67365C33.4813 9.24232 32.8963 9 32.2863 9C31.6763 9 31.0913 9.24232 30.6599 9.67365C30.2286 10.105 29.9863 10.69 29.9863 11.3V11.8522C29.9863 12.6057 29.1846 13.0885 28.5186 12.7361L28.4821 12.7168C28.2151 12.5756 27.9229 12.4884 27.6221 12.4601C27.3214 12.4318 27.0181 12.463 26.7294 12.552C26.4408 12.6409 26.1725 12.7859 25.9399 12.9785C25.7072 13.1712 25.5148 13.4077 25.3736 13.6747C25.2324 13.9418 25.1452 14.234 25.1169 14.5347C25.0886 14.8354 25.1199 15.1387 25.2088 15.4274C25.2978 15.716 25.4427 15.9843 25.6353 16.217C25.828 16.4496 26.0646 16.642 26.3316 16.7832L29.4536 18.4336C29.7813 18.6068 29.9863 18.9471 29.9863 19.3177V22.3154C29.9863 22.7713 29.6758 23.1641 29.2456 23.3149C28.1614 23.695 27.158 24.2751 26.2876 25.025C25.9418 25.3229 25.4457 25.3958 25.0505 25.1674L22.4532 23.6671C22.1324 23.4817 21.9403 23.1342 21.9541 22.7639L22.0858 19.235C22.1083 18.6253 21.8878 18.0316 21.4726 17.5845C21.0575 17.1375 20.4817 16.8736 19.872 16.851C19.2623 16.8285 18.6686 17.049 18.2216 17.4642C17.7745 17.8794 17.5106 18.4551 17.4881 19.0648L17.4866 19.1059C17.4591 19.8587 16.6406 20.312 15.988 19.9359L15.5101 19.6605C15.2482 19.4985 14.9566 19.3908 14.6523 19.3436C14.3481 19.2964 14.0375 19.3108 13.7389 19.3859C13.4403 19.4611 13.1598 19.5953 12.9141 19.7809C12.6684 19.9664 12.4625 20.1993 12.3084 20.4659C12.1544 20.7325 12.0555 21.0273 12.0176 21.3328C11.9796 21.6384 12.0034 21.9484 12.0874 22.2446C12.1715 22.5408 12.3142 22.817 12.5071 23.0571C12.6999 23.2971 12.939 23.4959 13.2101 23.6418L13.6889 23.9183C14.3412 24.295 14.3587 25.2302 13.7209 25.631L13.6839 25.6543C13.1809 25.9849 12.8275 26.4994 12.6996 27.0876C12.5717 27.6757 12.6795 28.2906 12.9997 28.8002C13.32 29.3098 13.8273 29.6736 14.4127 29.8134C14.9981 29.9533 15.615 29.858 16.1311 29.5482L19.1215 27.6699C19.4353 27.4727 19.8325 27.4653 20.1534 27.6507L22.7491 29.1494C23.1439 29.3774 23.3288 29.8428 23.2442 30.2908C23.0308 31.4201 23.0308 32.5795 23.2441 33.7088C23.3288 34.157 23.1437 34.6226 22.7486 34.8505L20.153 36.3476C19.8323 36.5326 19.4355 36.5252 19.1219 36.3284L16.1311 34.4518C15.615 34.142 14.9981 34.0467 14.4127 34.1866C13.8273 34.3264 13.32 34.6902 12.9997 35.1998C12.6795 35.7094 12.5717 36.3243 12.6996 36.9124C12.8275 37.5006 13.1809 38.0151 13.6839 38.3457L13.7195 38.3681C14.3576 38.7691 14.3397 39.705 13.6867 40.0812L13.2101 40.3559C12.9484 40.5069 12.7189 40.708 12.5349 40.9477C12.3509 41.1874 12.2159 41.4609 12.1377 41.7528C12.0594 42.0446 12.0394 42.3491 12.0787 42.6486C12.1181 42.9482 12.2161 43.2371 12.3671 43.4988C12.5181 43.7606 12.7192 43.99 12.9589 44.174C13.1986 44.358 13.4722 44.493 13.764 44.5712C14.0559 44.6495 14.3603 44.6695 14.6599 44.6302C14.9595 44.5908 15.2484 44.4928 15.5101 44.3418L15.9866 44.0663C16.6388 43.6892 17.4579 44.1414 17.4864 44.8942L17.4881 44.9375C17.4994 45.2394 17.5701 45.5361 17.6961 45.8107C17.8221 46.0852 18.0009 46.3323 18.2224 46.5378C18.4439 46.7432 18.7036 46.9031 18.9869 47.0081C19.2701 47.1132 19.5713 47.1614 19.8732 47.1501C20.1751 47.1388 20.4718 47.0681 20.7463 46.9421C21.0209 46.8161 21.268 46.6373 21.4734 46.4158C21.6789 46.1943 21.8387 45.9345 21.9438 45.6513C22.0489 45.3681 22.0971 45.0669 22.0858 44.765L21.9541 41.2361C21.9403 40.8658 22.1324 40.5183 22.4532 40.3329L25.0502 38.8327C25.4456 38.6043 25.9418 38.6773 26.2877 38.9754C27.1578 39.7253 28.1611 40.3054 29.2452 40.6852C29.6756 40.836 29.9863 41.2288 29.9863 41.6849V44.6823C29.9863 45.0529 29.7813 45.3932 29.4536 45.5664L26.3316 47.2168C25.7923 47.502 25.3885 47.9897 25.2088 48.5726C25.0292 49.1556 25.0884 49.786 25.3736 50.3253C25.6588 50.8645 26.1465 51.2684 26.7294 51.448C27.3124 51.6277 27.9428 51.5684 28.4821 51.2832L28.5186 51.2639C29.1846 50.9115 29.9863 51.3943 29.9863 52.1478V52.7C29.9863 53.31 30.2286 53.895 30.6599 54.3263C31.0913 54.7577 31.6763 55 32.2863 55C32.8963 55 33.4813 54.7577 33.9126 54.3263C34.3439 53.895 34.5863 53.31 34.5863 52.7V52.1478C34.5863 51.3943 35.3879 50.9115 36.0539 51.2639L36.0905 51.2832C36.6297 51.5684 37.2601 51.6277 37.8431 51.448C38.426 51.2684 38.9137 50.8645 39.1989 50.3253C39.4841 49.786 39.5434 49.1556 39.3637 48.5726C39.1841 47.9897 38.7802 47.502 38.241 47.2168L35.1189 45.5664C34.7913 45.3932 34.5863 45.0529 34.5863 44.6823V41.6848C34.5863 41.2288 34.8969 40.836 35.3273 40.6852C36.4113 40.3055 37.4147 39.7259 38.2852 38.9766C38.6309 38.679 39.1265 38.6062 39.5216 38.8342L42.1189 40.333C42.44 40.5183 42.6322 40.866 42.6184 41.2364L42.4868 44.765C42.4754 45.0669 42.5237 45.3681 42.6288 45.6513C42.7338 45.9345 42.8936 46.1943 43.0991 46.4158C43.3046 46.6373 43.5516 46.8161 43.8262 46.9421C44.1008 47.0681 44.3975 47.1388 44.6994 47.1501C45.0013 47.1614 45.3024 47.1132 45.5857 47.0081C45.8689 46.9031 46.1287 46.7432 46.3502 46.5378C46.5716 46.3323 46.7505 46.0852 46.8765 45.8107C47.0025 45.5361 47.0731 45.2394 47.0845 44.9375L47.086 44.8958C47.1135 44.1426 47.9327 43.6894 48.5854 44.0663L49.0625 44.3418C49.3241 44.4952 49.6136 44.5953 49.9141 44.6364C50.2146 44.6775 50.5203 44.6588 50.8136 44.5812C51.1068 44.5037 51.3818 44.3689 51.6228 44.1847C51.8637 44.0004 52.0659 43.7703 52.2175 43.5077C52.3692 43.245 52.4674 42.9549 52.5065 42.6541C52.5456 42.3533 52.5248 42.0477 52.4453 41.755C52.3659 41.4623 52.2293 41.1882 52.0434 40.9484C51.8576 40.7087 51.6262 40.5081 51.3625 40.3582L50.8857 40.0831C50.2334 39.7068 50.2154 38.7718 50.8527 38.3706L50.8887 38.348C51.4053 38.0235 51.7719 37.507 51.9078 36.9122C52.0437 36.3174 51.9377 35.693 51.6132 35.1763C51.2887 34.6596 50.7722 34.293 50.1774 34.1572C49.5826 34.0213 48.9581 34.1273 48.4415 34.4518L45.4508 36.3303C45.1371 36.5274 44.7402 36.5348 44.4193 36.3497L41.824 34.8528C41.4289 34.6249 41.2438 34.1593 41.3285 33.7111C41.542 32.5811 41.542 31.4209 41.3284 30.2908C41.2438 29.8428 41.4287 29.3774 41.8235 29.1494L44.4191 27.6507C44.7401 27.4653 45.1372 27.4727 45.4511 27.6699L48.4415 29.5482C48.9581 29.8727 49.5826 29.9787 50.1774 29.8428C50.7722 29.707 51.2887 29.3404 51.6132 28.8237C51.9377 28.307 52.0437 27.6826 51.9078 27.0878C51.7719 26.493 51.4053 25.9765 50.8887 25.652L50.8544 25.6305C50.2158 25.2302 50.2328 24.2941 50.8855 23.9172L51.3625 23.6418C51.6262 23.4919 51.8576 23.2913 52.0434 23.0516C52.2293 22.8118 52.3659 22.5377 52.4453 22.245C52.5248 21.9523 52.5456 21.6467 52.5065 21.3459C52.4674 21.0451 52.3692 20.755 52.2175 20.4923C52.0659 20.2297 51.8637 19.9996 51.6228 19.8153C51.3818 19.6311 51.1068 19.4963 50.8136 19.4188C50.5203 19.3412 50.2146 19.3225 49.9141 19.3636C49.6136 19.4047 49.3241 19.5048 49.0625 19.6582L48.5846 19.9336C47.9319 20.3097 47.1135 19.8564 47.086 19.1036L47.0845 19.0625C47.0731 18.7606 47.0025 18.4639 46.8765 18.1893C46.7505 17.9148 46.5716 17.6677 46.3502 17.4622C46.1287 17.2568 45.8689 17.0969 45.5857 16.9919C45.3024 16.8868 45.0013 16.8386 44.6994 16.8499C44.3975 16.8612 44.1008 16.9319 43.8262 17.0579C43.5516 17.1839 43.3046 17.3627 43.0991 17.5842C42.8936 17.8057 42.7338 18.0655 42.6288 18.3487C42.5237 18.6319 42.4754 18.9331 42.4868 19.235L42.6184 22.7636C42.6322 23.134 42.44 23.4817 42.1189 23.667L39.5216 25.1658C39.1265 25.3938 38.6309 25.321 38.2852 25.0234C37.4147 24.2741 36.4113 23.6945 35.3273 23.3148C34.8969 23.164 34.5863 22.7712 34.5863 22.3152V19.3177C34.5863 18.9471 34.7913 18.6068 35.1189 18.4336L38.241 16.7832C38.7802 16.498 39.1841 16.0103 39.3637 15.4274C39.5434 14.8444 39.4841 14.214 39.1989 13.6747C38.9137 13.1355 38.426 12.7316 37.8431 12.552C37.2601 12.3723 36.6297 12.4316 36.0905 12.7168L36.0539 12.7361C35.3879 13.0885 34.5863 12.6057 34.5863 11.8522V11.3Z" fill="url(#paint1_linear_216_278)"/>
<defs>
<linearGradient id="paint0_linear_216_278" x1="53.6563" y1="49.5" x2="15.9219" y2="14.1719" gradientUnits="userSpaceOnUse">
<stop stop-color="#8F0CFF"/>
<stop offset="0.516064" stop-color="#AA1DFF"/>
<stop offset="1" stop-color="#B826FF"/>
</linearGradient>
<linearGradient id="paint1_linear_216_278" x1="19.5986" y1="14.2109" x2="48.6274" y2="41.5271" gradientUnits="userSpaceOnUse">
<stop stop-color="#8F0CFF"/>
<stop offset="0.516064" stop-color="#AA1DFF"/>
<stop offset="1" stop-color="#B826FF"/>
</linearGradient>
</defs>
</svg>
