<svg width="64" height="64" viewBox="0 0 64 64" fill="none" xmlns="http://www.w3.org/2000/svg">
<path opacity="0.4" d="M29.1398 2.30567C31.9182 1.69235 35.0864 1.9286 37.7815 3.70462C42.7833 6.99426 47.7874 10.2854 52.7879 13.5894L52.7903 13.591C56.4813 16.0374 58.6655 20.7729 58.5702 25.4204C58.5614 26.8773 58.5653 28.335 58.5693 29.8026L58.5693 29.811C58.575 31.9051 58.5808 34.0196 58.5483 36.1369C58.5387 37.3232 58.0557 38.4087 57.3201 39.1868C56.6036 39.9448 55.511 40.5384 54.2374 40.4435C51.9035 40.3518 50.3339 38.1607 50.3418 36.0808C50.3107 34.1586 50.3171 32.2398 50.3235 30.3435L50.3235 30.3344C50.3299 28.4499 50.336 26.5876 50.3068 24.7288C50.1257 23.0801 49.2479 21.6721 48.256 21.0898L48.2147 21.0656L48.1747 21.0394C43.8993 18.2462 39.6357 15.4326 35.3783 12.623L33.795 11.5782L33.7738 11.5634C32.6398 10.7724 31.1493 10.7532 30.0193 11.4985L30.011 11.5039C25.0664 14.7303 20.1174 17.953 15.1606 21.1673L15.1508 21.1736C14.3561 21.6823 13.6417 22.8308 13.3228 24.3024C13.2394 25.1527 13.2517 26.0321 13.2686 27.0457L13.2692 27.0833C13.2829 27.9013 13.298 28.8115 13.2376 29.7329C13.2535 31.0837 13.2431 32.9223 13.2349 34.3502L13.2349 34.3633C13.2295 35.3091 13.2253 36.053 13.2294 36.3921L13.2301 36.4492L13.2275 36.5062C13.1367 38.5192 14.1282 40.4266 15.3528 41.1751L15.3953 41.2011L15.4364 41.2292C21.494 45.3594 27.554 49.4953 33.6039 53.6533C34.7421 54.3584 35.3313 55.5412 35.5333 56.6041C35.7395 57.6896 35.6085 58.967 34.9298 60.0451C33.6943 62.0844 31.0107 62.6427 29.1239 61.181C26.2177 59.204 23.3162 57.2183 20.4171 55.2343L20.4153 55.2331L20.4135 55.2318C17.3587 53.1412 14.3065 51.0524 11.249 48.9738C8.93985 47.5125 7.11119 45.2094 6.06522 42.5177C5.71108 41.6698 5.5015 40.6035 5.3622 39.5638C5.21615 38.4736 5.12827 37.255 5.07548 36.0444C4.97025 33.631 4.99985 31.127 5.01875 29.5289L5.02168 29.2781C4.98401 28.6419 5.00358 28.0135 5.02 27.4861L5.02122 27.4468C5.03931 26.8646 5.05228 26.3972 5.02413 25.9573L5.02288 25.9378L5.02201 25.9183C4.85511 22.1608 6.08783 18.3034 8.49798 15.5733C9.59433 14.2874 10.9345 13.4328 11.997 12.7552L12.0799 12.7023C12.2902 12.5681 12.4893 12.4411 12.685 12.3132L12.6878 12.3114C14.1233 11.3766 15.5591 10.4423 16.9946 9.50832L17.0027 9.5031C19.8822 7.62952 22.7606 5.75668 25.6353 3.88033C26.6253 3.23389 27.7995 2.60807 29.1307 2.3077L29.1398 2.30567Z" fill="url(#paint0_linear_54_1170)"/>
<path fill-rule="evenodd" clip-rule="evenodd" d="M47.8695 30.8172C47.1932 27.86 43.6114 26.0997 40.889 27.4756C37.9877 28.6943 37.0584 32.7783 39.0871 35.1677C40.3655 36.5916 42.3897 37.3779 44.2745 36.8188C46.8398 36.1985 48.4889 33.3725 47.8695 30.8172ZM19.0667 27.398C21.7022 26.1969 25.1042 27.8392 25.8099 30.6518C26.6027 33.2811 24.8255 36.2773 22.1596 36.8493C20.0991 37.4041 17.8906 36.3733 16.7406 34.635C15.1071 32.1586 16.3051 28.455 19.0667 27.398ZM30.0667 27.398C32.7022 26.1969 36.1042 27.8392 36.8099 30.6518C37.6027 33.2811 35.8255 36.2773 33.1596 36.8493C31.0991 37.4041 28.8906 36.3733 27.7406 34.635C26.1071 32.1586 27.3051 28.455 30.0667 27.398Z" fill="url(#paint1_linear_54_1170)"/>
<defs>
<linearGradient id="paint0_linear_54_1170" x1="31.7869" y1="62.0019" x2="31.7869" y2="2.00049" gradientUnits="userSpaceOnUse">
<stop stop-color="#FD5900"/>
<stop offset="1" stop-color="#FFDE00"/>
</linearGradient>
<linearGradient id="paint1_linear_54_1170" x1="32" y1="37" x2="32" y2="27" gradientUnits="userSpaceOnUse">
<stop stop-color="#FD4C00"/>
<stop offset="1" stop-color="#FFB800"/>
</linearGradient>
</defs>
</svg>
