<svg width="128" height="128" viewBox="0 0 128 128" fill="none" xmlns="http://www.w3.org/2000/svg">
<circle opacity="0.4" cx="64" cy="64" r="56" fill="url(#paint0_linear_54_1186)"/>
<path fill-rule="evenodd" clip-rule="evenodd" d="M107.59 99.1587C115.352 89.5473 120 77.3164 120 64V64.0186C120.02 76.8186 115.633 89.2353 107.577 99.1819L107.59 99.1587ZM100.931 106.097C109.513 97.0979 80.6993 65.4854 64 52.8746C47.2841 65.512 18.3647 97.2313 27.1426 106.154C37.3358 115.098 50.4392 120.021 64 120C46.3892 120 30.6771 111.871 20.4115 99.1606C13.8954 86.9932 37.1239 52.73 48.7914 38.926C35.6314 25.7987 29.1168 23.7827 26.3633 23.7827C25.9164 23.7668 25.4707 23.8398 25.052 23.9973V23.988C24.8489 24.0592 24.7282 24.0964 24.6764 24.1295C19.3939 29.3302 15.1752 35.586 12.3163 42.4255C10.5635 46.6189 9.33187 51.0004 8.64514 55.4717C11.0477 39.7476 19.9902 26.1755 32.6096 17.6182C33.3234 17.2085 35.7727 16.0109 39.5233 16.148C50.2566 16.5307 64 24.5713 64 24.5713V24.5433C64 24.5433 77.7479 16.5307 88.4814 16.148C92.2067 16.0122 94.6324 17.18 95.3701 17.6046C107.799 26.0246 116.665 39.3077 119.235 54.7212C118.529 50.5092 117.337 46.3825 115.682 42.4235C112.821 35.5837 108.626 29.383 103.34 24.184C103.34 24.184 103.214 24.0813 102.957 23.988C102.536 23.8425 102.092 23.7714 101.646 23.778C98.8835 23.778 92.3828 25.8033 79.2227 38.926C90.882 52.7351 114.118 87.0093 107.59 99.1587C105.572 101.658 103.343 103.98 100.931 106.097ZM85.36 115.782C91.0905 113.416 96.3428 110.126 100.931 106.097C100.913 106.116 100.895 106.135 100.876 106.154C96.2303 110.227 90.9805 113.464 85.36 115.782ZM94.7138 17.1666C95.0012 17.3514 95.288 17.5392 95.5746 17.73C95.5373 17.7047 95.4686 17.6613 95.3701 17.6046C95.1525 17.4571 94.9337 17.3111 94.7138 17.1666ZM79.7816 10.2545C85.1353 11.824 90.1562 14.1716 94.7138 17.1666C89.8458 14.0351 84.8604 11.7566 79.7816 10.2545ZM64 8H63.9253C56.7795 8 49.7245 9.30769 42.8809 12.119C39.6697 13.4275 36.6072 15.0255 33.7259 16.8806C33.2912 17.1569 32.8577 17.44 32.4254 17.73C32.4598 17.7074 32.5213 17.6689 32.6096 17.6182C32.9785 17.3681 33.3508 17.1221 33.7259 16.8806C36.7269 14.973 39.7822 13.3919 42.8809 12.119C49.3981 9.4633 56.5283 8 64 8ZM8 64V64.0186C8 64.9789 8.02507 65.9334 8.07292 66.8817C8.0245 65.9273 8 64.9665 8 64ZM19.9441 98.5736C20.0987 98.7703 20.2543 98.966 20.4115 99.1606L20.418 99.1726C20.2583 98.9745 20.1013 98.7739 19.9441 98.5736Z" fill="url(#paint1_linear_54_1186)"/>
<defs>
<linearGradient id="paint0_linear_54_1186" x1="43.5245" y1="103.899" x2="102.849" y2="34.0746" gradientUnits="userSpaceOnUse">
<stop stop-color="#02AA93"/>
<stop offset="1" stop-color="#67FF80"/>
</linearGradient>
<linearGradient id="paint1_linear_54_1186" x1="43.5245" y1="103.899" x2="102.849" y2="34.0746" gradientUnits="userSpaceOnUse">
<stop stop-color="#02AA93"/>
<stop offset="1" stop-color="#67FF80"/>
</linearGradient>
</defs>
</svg>
