<svg width="64" height="64" viewBox="0 0 64 64" fill="none" xmlns="http://www.w3.org/2000/svg">
<path opacity="0.4" fill-rule="evenodd" clip-rule="evenodd" d="M22.7875 43.1673C21.941 43.304 21.0726 43.375 20.1875 43.375C11.2474 43.375 4 36.1276 4 27.1875C4 18.2474 11.2474 11 20.1875 11C24.9212 11 29.1803 13.0319 32.1403 16.271C34.6295 15.1337 37.397 14.5 40.3125 14.5C51.1856 14.5 60 23.3144 60 34.1875C60 45.0606 51.1856 53.875 40.3125 53.875C32.6742 53.875 26.0518 49.5251 22.7875 43.1673Z" fill="url(#paint0_linear_69_184)"/>
<path fill-rule="evenodd" clip-rule="evenodd" d="M16.8257 32.2763C20.0431 32.2763 22.6513 29.6681 22.6513 26.4507C22.6513 23.2332 20.0431 20.625 16.8257 20.625C13.6082 20.625 11 23.2332 11 26.4507C11 29.6681 13.6082 32.2763 16.8257 32.2763ZM16.8257 28.0395C17.7031 28.0395 18.4145 27.3281 18.4145 26.4507C18.4145 25.5732 17.7031 24.8618 16.8257 24.8618C15.9482 24.8618 15.2368 25.5732 15.2368 26.4507C15.2368 27.3281 15.9482 28.0395 16.8257 28.0395ZM42.2467 44.9869C47.2191 44.9869 51.25 40.9559 51.25 35.9836C51.25 31.0112 47.2191 26.9803 42.2467 26.9803C37.2743 26.9803 33.2434 31.0112 33.2434 35.9836C33.2434 40.9559 37.2743 44.9869 42.2467 44.9869ZM42.2467 38.6316C43.7091 38.6316 44.8947 37.446 44.8947 35.9836C44.8947 34.5211 43.7091 33.3355 42.2467 33.3355C40.7842 33.3355 39.5987 34.5211 39.5987 35.9836C39.5987 37.446 40.7842 38.6316 42.2467 38.6316Z" fill="url(#paint1_linear_69_184)"/>
<defs>
<linearGradient id="paint0_linear_69_184" x1="32" y1="53.875" x2="32" y2="11" gradientUnits="userSpaceOnUse">
<stop stop-color="#5570FF"/>
<stop offset="1" stop-color="#4DD3FF"/>
</linearGradient>
<linearGradient id="paint1_linear_69_184" x1="42.2467" y1="44.9869" x2="42.2467" y2="26.9803" gradientUnits="userSpaceOnUse">
<stop stop-color="#5570FF"/>
<stop offset="1" stop-color="#4DD3FF"/>
</linearGradient>
</defs>
</svg>
