<svg width="128" height="128" viewBox="0 0 128 128" fill="none" xmlns="http://www.w3.org/2000/svg">
<path opacity="0.4" d="M98.1641 122C103.786 122 108.359 117.426 108.359 111.805V16.4219C108.359 10.7888 103.806 6 98.1641 6H30.1953C27.4562 6 24.8773 7.12042 22.9329 9.15418C21.0416 11.1322 20 13.7137 20 16.4219V111.805C20 117.426 24.5738 122 30.1953 122H98.1641ZM37.4479 96.5099C37.8383 95.8329 37.4648 96.4196 48.8841 84.6233C43.304 100.113 43.6059 99.438 43.3333 99.9093C42.3943 101.536 40.318 102.092 38.6914 101.153C37.0692 100.216 36.5107 98.133 37.4479 96.5099ZM59.1838 68.1418C57.8271 67.294 56.0632 67.5073 54.9482 68.6525L52.3808 71.2898C45.029 67.0701 40.3906 59.1112 40.3906 50.4062C40.3906 37.2886 51.0621 26.6172 64.1797 26.6172C77.2973 26.6172 87.9688 37.2886 87.9688 50.4062C87.9688 63.6486 77.2973 74.4219 64.1797 74.4219C62.7389 74.4219 61.3122 74.2891 59.9113 74.036L60.5812 72.1731C61.122 70.6676 60.5406 68.9888 59.1838 68.1418ZM26.7969 111.805V95.0523C28.0439 95.2294 29.2679 95.5046 30.4661 95.8772C29.467 100.14 31.3105 104.74 35.293 107.039C38.2206 108.73 41.6005 108.801 44.4706 107.555C45.729 109.946 46.5618 112.523 46.9441 115.203H30.1953C28.3217 115.203 26.7969 113.678 26.7969 111.805Z" fill="url(#paint0_linear_60_209)"/>
<path fill-rule="evenodd" clip-rule="evenodd" d="M40.1641 19.3672C40.1641 21.2443 38.6418 22.7656 36.7656 22.7656C34.8885 22.7656 33.3672 21.2443 33.3672 19.3672C33.3672 17.4901 34.8885 15.9688 36.7656 15.9688C38.6418 15.9688 40.1641 17.4901 40.1641 19.3672ZM94.5391 19.3672C94.5391 21.2443 93.0168 22.7656 91.1406 22.7656C89.2635 22.7656 87.7422 21.2443 87.7422 19.3672C87.7422 17.4901 89.2635 15.9688 91.1406 15.9688C93.0168 15.9688 94.5391 17.4901 94.5391 19.3672ZM91.1477 84.1641H77.5539C75.6768 84.1641 74.1555 85.6854 74.1555 87.5625C74.1555 89.4396 75.6768 90.9609 77.5539 90.9609H91.1477C93.0248 90.9609 94.5461 89.4396 94.5461 87.5625C94.5461 85.6854 93.0248 84.1641 91.1477 84.1641ZM77.5539 97.7578H91.1477C93.0248 97.7578 94.5461 99.2794 94.5461 101.156C94.5461 103.033 93.0248 104.555 91.1477 104.555H77.5539C75.6768 104.555 74.1555 103.033 74.1555 101.156C74.1555 99.2794 75.6768 97.7578 77.5539 97.7578Z" fill="url(#paint1_linear_60_209)"/>
<path fill-rule="evenodd" clip-rule="evenodd" d="M40.1641 19.3672C40.1641 21.2443 38.6418 22.7656 36.7656 22.7656C34.8885 22.7656 33.3672 21.2443 33.3672 19.3672C33.3672 17.4901 34.8885 15.9688 36.7656 15.9688C38.6418 15.9688 40.1641 17.4901 40.1641 19.3672ZM94.5391 19.3672C94.5391 21.2443 93.0168 22.7656 91.1406 22.7656C89.2635 22.7656 87.7422 21.2443 87.7422 19.3672C87.7422 17.4901 89.2635 15.9688 91.1406 15.9688C93.0168 15.9688 94.5391 17.4901 94.5391 19.3672ZM91.1477 84.1641H77.5539C75.6768 84.1641 74.1555 85.6854 74.1555 87.5625C74.1555 89.4396 75.6768 90.9609 77.5539 90.9609H91.1477C93.0248 90.9609 94.5461 89.4396 94.5461 87.5625C94.5461 85.6854 93.0248 84.1641 91.1477 84.1641ZM77.5539 97.7578H91.1477C93.0248 97.7578 94.5461 99.2794 94.5461 101.156C94.5461 103.033 93.0248 104.555 91.1477 104.555H77.5539C75.6768 104.555 74.1555 103.033 74.1555 101.156C74.1555 99.2794 75.6768 97.7578 77.5539 97.7578Z" fill="url(#paint2_linear_60_209)"/>
<path fill-rule="evenodd" clip-rule="evenodd" d="M64.1797 81.2188C81.197 81.2188 94.9922 67.4235 94.9922 50.4062C94.9922 33.389 81.197 19.5938 64.1797 19.5938C47.1624 19.5938 33.3672 33.389 33.3672 50.4062C33.3672 67.4235 47.1624 81.2188 64.1797 81.2188ZM64.1797 61.2812C70.1858 61.2812 75.0547 56.4123 75.0547 50.4062C75.0547 44.4002 70.1858 39.5312 64.1797 39.5312C58.1736 39.5312 53.3047 44.4002 53.3047 50.4062C53.3047 56.4123 58.1736 61.2812 64.1797 61.2812Z" fill="#D9D9D9"/>
<path fill-rule="evenodd" clip-rule="evenodd" d="M64.1797 81.2188C81.197 81.2188 94.9922 67.4235 94.9922 50.4062C94.9922 33.389 81.197 19.5938 64.1797 19.5938C47.1624 19.5938 33.3672 33.389 33.3672 50.4062C33.3672 67.4235 47.1624 81.2188 64.1797 81.2188ZM64.1797 61.2812C70.1858 61.2812 75.0547 56.4123 75.0547 50.4062C75.0547 44.4002 70.1858 39.5312 64.1797 39.5312C58.1736 39.5312 53.3047 44.4002 53.3047 50.4062C53.3047 56.4123 58.1736 61.2812 64.1797 61.2812Z" fill="url(#paint3_linear_60_209)"/>
<defs>
<linearGradient id="paint0_linear_60_209" x1="104.356" y1="7.99372" x2="0.75929" y2="90.9521" gradientUnits="userSpaceOnUse">
<stop stop-color="#D800BD"/>
<stop offset="0.408098" stop-color="#F92D7A"/>
<stop offset="0.590073" stop-color="#FF4A52"/>
<stop offset="1" stop-color="#FFB243"/>
</linearGradient>
<linearGradient id="paint1_linear_60_209" x1="49.9983" y1="51.0703" x2="92.3535" y2="47.1672" gradientUnits="userSpaceOnUse">
<stop stop-color="#0357D1"/>
<stop offset="1" stop-color="#27CDFC"/>
</linearGradient>
<linearGradient id="paint2_linear_60_209" x1="91.7746" y1="17.4913" x2="14.6846" y2="73.4609" gradientUnits="userSpaceOnUse">
<stop stop-color="#D800BD"/>
<stop offset="0.408098" stop-color="#F92D7A"/>
<stop offset="0.590073" stop-color="#FF4A52"/>
<stop offset="1" stop-color="#FFB243"/>
</linearGradient>
<linearGradient id="paint3_linear_60_209" x1="92.2004" y1="20.6529" x2="35.871" y2="79.8708" gradientUnits="userSpaceOnUse">
<stop stop-color="#D800BD"/>
<stop offset="0.408098" stop-color="#F92D7A"/>
<stop offset="0.590073" stop-color="#FF4A52"/>
<stop offset="1" stop-color="#FFB243"/>
</linearGradient>
</defs>
</svg>
