<svg width="24" height="24" viewBox="0 0 24 24" fill="none" xmlns="http://www.w3.org/2000/svg">
<path opacity="0.4" d="M1 6.445C1 5.4737 1 4.9886 1.077 4.5838C1.24115 3.71462 1.66345 2.9151 2.28882 2.28954C2.91418 1.66397 3.71358 1.24142 4.5827 1.077C4.9886 1 5.4748 1 6.445 1C6.8696 1 7.083 1 7.2876 1.0187C8.16875 1.10145 9.00447 1.44801 9.6856 2.0131C9.844 2.144 9.9936 2.2936 10.295 2.595L10.9 3.2C11.7976 4.0976 12.2464 4.5464 12.7832 4.8445C13.0782 5.00894 13.3912 5.13887 13.716 5.2317C14.3078 5.4 14.9425 5.4 16.2108 5.4H16.6222C19.5174 5.4 20.9661 5.4 21.9066 6.247C21.9935 6.324 22.076 6.4065 22.153 6.4934C23 7.4339 23 8.8826 23 11.7778V14.2C23 18.3481 23 20.4227 21.7108 21.7108C20.4227 23 18.3481 23 14.2 23H9.8C5.6519 23 3.5773 23 2.2892 21.7108C1 20.4227 1 18.3481 1 14.2V6.445Z" fill="url(#paint0_linear_8_1072)"/>
<path d="M20.7999 5.66178C20.7999 5.33398 20.7944 5.13928 20.7724 4.96878C20.6774 4.24866 20.3475 3.58 19.8338 3.06649C19.3201 2.55298 18.6513 2.2233 17.9311 2.12858C17.7166 2.09998 17.4614 2.09998 16.9499 2.09998H9.78674C9.91434 2.21438 10.0584 2.35738 10.2949 2.59498L10.8999 3.19998C11.7975 4.09758 12.2463 4.54638 12.7831 4.84448C13.0785 5.009 13.3919 5.13892 13.717 5.23168C14.3077 5.39998 14.9424 5.39998 16.2118 5.39998H16.6221C18.5801 5.39998 19.8748 5.39998 20.7999 5.66178Z" fill="url(#paint1_linear_8_1072)"/>
<path d="M3.10374 9.00187C3.06869 9.07059 3.03363 9.13878 3 9.20747C3.53292 9.50354 5.06869 10.2752 5.79771 10.7323C6.71908 11.2965 7.96446 12.4477 8.06251 12.6414C7.10419 14.3102 7.53905 15.7873 7.42583 15.9445C7.34438 16.0758 6.5912 16.9029 6.83371 17.0251C7.07436 17.1454 7.4571 16.9564 7.51493 16.9194C7.63524 16.8456 7.75935 16.738 7.70724 16.9507C7.60537 17.3856 7.14305 18.431 7.78114 18.2089C7.85882 18.1643 8.88579 17.0322 9.00994 16.9933C11.053 17.5262 13.3382 17.2818 13.7612 17.0838C13.9815 17.0985 14.6049 17.4907 14.9601 17.6779C15.3155 17.8631 16.2833 18.3273 15.9966 17.4837C15.9076 17.2169 15.2714 16.5362 15.3747 16.4917C15.6021 16.4012 16.1648 16.7266 16.3813 16.7877C17.0289 16.9692 17.116 16.7177 16.7072 16.1643C16.3036 15.611 16.243 15.6963 16.1151 15.441C16.0151 15.2354 16.1151 15.008 16.1889 14.9526C16.3202 14.8526 18.2539 13.7792 18.7072 13.3685C19.3789 12.7579 18.7072 11.9957 18.5424 11.8882C17.1492 10.8854 15.7186 11.1 15.7001 10.9408C15.6906 10.7594 15.6944 10.2359 15.6702 10.0545C15.5315 8.82568 14.9635 9.13501 14.8858 9.13501C14.3178 9.22408 14.5267 10.0933 14.7673 10.9114C14.7859 11.1203 14.5694 11.0279 14.4414 10.8077C14.0047 9.63619 13.8214 9.65657 13.7011 9.62149C13.5845 9.59543 13.1738 9.84556 13.1809 10.3193C13.1828 10.4543 13.3439 11.0986 13.3439 11.2965C13.0758 11.5315 13.0625 12.0644 12.7811 12.2586C11.9616 12.4287 9.99242 11.8536 9.74655 11.8276C8.89531 11.6684 8.52343 12.307 8.38655 12.1534C7.28183 10.8877 5.59402 9.94789 4.86309 9.78495C4.57981 9.72381 3.6234 9.30175 3.27902 9.08903C3.22359 9.05589 3.16059 9.03173 3.09948 9L3.10374 9.00187ZM15.4197 11.9479C15.4291 11.9384 15.4401 11.9517 15.4509 11.9626C15.5324 12.2326 15.6229 12.4898 16.1596 12.5547C16.2226 12.5623 15.8617 12.7731 15.6139 12.6438C15.3879 12.5069 15.3676 12.009 15.4197 11.9479ZM16.8114 13.3079C16.8612 13.3003 16.8967 13.3022 16.9317 13.3079C17.063 13.3411 15.9796 13.9058 15.8953 13.828C15.8437 13.7783 16.4727 13.3709 16.8133 13.3079H16.8114ZM17.0947 13.6651C17.2074 13.6746 16.4675 14.4405 16.3841 14.361C16.323 14.3055 16.8635 13.6466 17.0947 13.6651Z" fill="url(#paint2_linear_8_1072)"/>
<defs>
<linearGradient id="paint0_linear_8_1072" x1="12" y1="23" x2="12" y2="1" gradientUnits="userSpaceOnUse">
<stop stop-color="#5570FF"/>
<stop offset="1" stop-color="#4DD3FF"/>
</linearGradient>
<linearGradient id="paint1_linear_8_1072" x1="15.2933" y1="5.66178" x2="15.2933" y2="2.09998" gradientUnits="userSpaceOnUse">
<stop stop-color="#5570FF"/>
<stop offset="1" stop-color="#4DD3FF"/>
</linearGradient>
<linearGradient id="paint2_linear_8_1072" x1="11" y1="18.2395" x2="11" y2="9" gradientUnits="userSpaceOnUse">
<stop stop-color="#5570FF"/>
<stop offset="1" stop-color="#4DD3FF"/>
</linearGradient>
</defs>
</svg>
