<svg width="48" height="48" viewBox="0 0 48 48" fill="none" xmlns="http://www.w3.org/2000/svg">
<path opacity="0.4" d="M39.5 31H42.538C43.8977 31 45 30.1046 45 29V8C45 6.89543 43.8977 6 42.538 6H15.462C14.1023 6 13 6.89543 13 8V11.5" stroke="url(#paint0_linear_54_1227)" stroke-width="3"/>
<path opacity="0.7" d="M34.5 36H37.538C38.8977 36 40 35.1046 40 34V13C40 11.8954 38.8977 11 37.538 11H10.462C9.10227 11 8 11.8954 8 13V17" stroke="url(#paint1_linear_54_1227)" stroke-width="3"/>
<path fill-rule="evenodd" clip-rule="evenodd" d="M5.462 16H32.538C33.8977 16 35 16.8954 35 18V39C35 40.1046 33.8977 41 32.538 41H5.462C4.10227 41 3 40.1046 3 39V18C3 16.8954 4.10227 16 5.462 16ZM27.1029 23.2736C27.5158 22.8736 27.5072 22.2085 27.084 21.8193L24.973 19.878C24.558 19.4963 23.9096 19.5331 23.5403 19.9593L20.1966 23.8185C19.798 24.2785 19.0844 24.2788 18.6855 23.819L15.1694 19.7665C14.8038 19.3451 14.1639 19.3044 13.7478 19.6762L11.2446 21.9127C10.8153 22.2963 10.7977 22.9623 11.2063 23.368L15.1961 27.3301C15.5986 27.7297 15.5885 28.3837 15.1738 28.7707L10.778 32.8737C10.3564 33.2672 10.3542 33.9349 10.7731 34.3312L12.8469 36.2928C13.2563 36.6801 13.9047 36.6527 14.28 36.2323L18.2533 31.7819C18.6463 31.3418 19.333 31.3358 19.7336 31.7691L23.7214 36.0825C24.0983 36.4903 24.7353 36.5128 25.1401 36.1327L27.244 34.1575C27.657 33.7697 27.6657 33.1165 27.2631 32.7179L23.0885 28.5836C22.6903 28.1892 22.6939 27.5447 23.0964 27.1548L27.1029 23.2736Z" fill="url(#paint2_linear_54_1227)"/>
<defs>
<linearGradient id="paint0_linear_54_1227" x1="29" y1="31" x2="29" y2="6" gradientUnits="userSpaceOnUse">
<stop stop-color="#5570FF"/>
<stop offset="1" stop-color="#4DD3FF"/>
</linearGradient>
<linearGradient id="paint1_linear_54_1227" x1="24" y1="36" x2="24" y2="11" gradientUnits="userSpaceOnUse">
<stop stop-color="#5570FF"/>
<stop offset="1" stop-color="#4DD3FF"/>
</linearGradient>
<linearGradient id="paint2_linear_54_1227" x1="19" y1="41" x2="19" y2="16" gradientUnits="userSpaceOnUse">
<stop stop-color="#5570FF"/>
<stop offset="1" stop-color="#4DD3FF"/>
</linearGradient>
</defs>
</svg>
