<svg width="64" height="64" viewBox="0 0 64 64" fill="none" xmlns="http://www.w3.org/2000/svg">
<path opacity="0.4" d="M32 60C47.464 60 60 47.464 60 32C60 16.536 47.464 4 32 4C16.536 4 4 16.536 4 32C4 47.464 16.536 60 32 60Z" fill="url(#paint0_linear_39_188)"/>
<path fill-rule="evenodd" clip-rule="evenodd" d="M34.4068 11.7882C34.8833 11.2453 35.4147 10.9842 36.1417 11.0007C36.384 11.0063 36.6506 11.0447 36.9415 11.1116L36.9373 11.1157C37.3251 11.2047 37.7582 11.3493 38.2539 11.5463C39.7419 12.1359 39.9673 12.7003 39.8083 15.4673C39.6698 17.8765 40.12 18.8454 41.8467 19.8476C43.3161 20.7006 44.5126 20.6734 46.7478 19.7326C47.5581 19.3919 48.4595 19.1726 48.7575 19.2528C49.4005 19.426 51.2955 22.4184 51.288 23.2477C51.2845 23.6192 50.678 24.3367 49.6023 25.2574C47.5044 27.053 47.0579 27.9412 47.3384 29.7361C47.6757 31.8949 48.3101 32.6554 50.6318 33.6899C53.0717 34.777 53.3247 35.2342 52.7276 37.4427C52.1298 39.6539 51.5658 39.9787 48.7082 39.7929C46.8156 39.6698 46.2117 39.7565 45.423 40.2768C43.3634 41.6356 42.7571 43.9661 43.8645 46.2894C45.0278 48.7306 44.7931 49.4819 42.4413 50.7109C40.8773 51.528 40.1676 51.4656 39.2751 50.4442C38.0569 49.0505 37.7496 48.7309 36.9579 48.0653C36.0031 47.2627 34.849 47.1421 33.1887 47.6716C31.5538 48.1928 31.2964 48.4562 30.5762 50.3047C29.7885 52.3265 28.7727 53.1605 27.3402 52.9746C26.791 52.9038 26.1106 52.7181 25.8267 52.5646C25.5425 52.413 25.0656 52.1629 24.7687 52.0109C24.1158 51.6759 23.9322 50.704 24.1576 48.8077C24.2504 48.0259 24.2521 47.007 24.1576 46.5436C23.9567 45.5599 22.265 43.9804 21.0775 43.6603C20.2897 43.4481 17.6731 43.875 16.0491 44.4807C15.4951 44.6875 15.1352 44.6489 14.704 44.3331C13.9511 43.7818 12.7659 41.6997 12.7311 40.8674C12.7042 40.2176 13.5728 39.0442 14.4743 38.5131C15.3014 38.0257 16.3239 36.7391 16.5373 35.9129C16.8321 34.7749 16.4091 32.6036 15.7498 31.8524C15.4376 31.4967 14.4516 30.8965 13.5556 30.5112C12.6595 30.1261 11.6755 29.5264 11.3736 29.1824C10.8796 28.6197 10.8796 28.3599 11.349 26.5985C11.9518 24.3364 12.6813 23.6586 14.1093 24.0434C15.6109 24.448 17.4904 24.3151 18.387 23.7398C19.4809 23.0379 20.57 21.0933 20.5525 19.8639C20.5456 19.3668 20.245 18.2405 19.8921 17.3621C19.0381 15.2371 19.2681 14.5401 21.1595 13.4617C23.1503 12.3268 23.8463 12.3047 24.6578 13.3427C26.441 15.6233 26.9605 16.0891 28.0619 16.3859C30.3071 16.9909 32.8498 15.6802 33.3938 13.6421C33.542 13.0866 33.9992 12.2529 34.4068 11.7882ZM40.4005 32C40.4005 36.6392 36.6397 40.4 32.0005 40.4C27.3613 40.4 23.6005 36.6392 23.6005 32C23.6005 27.3608 27.3613 23.6 32.0005 23.6C36.6397 23.6 40.4005 27.3608 40.4005 32Z" fill="url(#paint1_linear_39_188)"/>
<defs>
<linearGradient id="paint0_linear_39_188" x1="29.5649" y1="58.496" x2="35.8918" y2="7.89421" gradientUnits="userSpaceOnUse">
<stop stop-color="#8D01A2"/>
<stop offset="1" stop-color="#FF33DB"/>
</linearGradient>
<linearGradient id="paint1_linear_39_188" x1="30.1737" y1="51.8719" x2="34.9188" y2="13.9206" gradientUnits="userSpaceOnUse">
<stop stop-color="#8D01A2"/>
<stop offset="1" stop-color="#FF33DB"/>
</linearGradient>
</defs>
</svg>
