<svg width="64" height="64" viewBox="0 0 64 64" fill="none" xmlns="http://www.w3.org/2000/svg">
<path opacity="0.4" d="M43.2 4H20.8C11.5216 4 4 11.5216 4 20.8V43.2C4 52.4784 11.5216 60 20.8 60H43.2C52.4784 60 60 52.4784 60 43.2V20.8C60 11.5216 52.4784 4 43.2 4Z" fill="url(#paint0_linear_216_334)"/>
<path d="M10.056 21.1394C9.98683 21.782 10.3769 23.7614 11.4147 25.9913C14.3377 30.2818 18.5117 30.6378 22.6117 33.1267C23.0489 33.6173 23.2218 33.8541 19.8681 35.2755C14.6266 37.4973 11.3295 39.3869 10.3256 42.1825C10.0293 43.0086 9.89139 45.1931 10.1003 45.7427C10.3715 46.4553 11.4767 46.449 16.541 45.5293C21.6283 44.6054 21.8666 44.5514 22.2909 44.1666C23.0677 43.3816 22.9007 42.3723 23.2054 40.5767C23.5108 39.5559 24.2791 38.4899 25.1158 37.9261C28.289 35.7883 35.2032 37.4819 38.4351 40.7624C39.6529 41.9985 40.4176 42.6823 41.0279 44.5994C41.38 45.7055 41.7376 46.1858 42.293 46.2915C46.7608 44.8575 48.2784 44.9025 53.6577 43.1119C54.1128 42.7726 54.1146 41.653 53.6599 40.2808C52.8818 37.9231 51.5328 36.8343 49.0323 35.0209C47.7953 34.1238 46.2333 33.2757 43.5885 32.0634C41.073 30.9104 41.1493 30.4419 41.4453 30.2403C43.615 28.3195 50.6865 27.7021 50.8205 24.5477C50.8205 23.1199 50.5389 21.9678 50.1013 21.594C49.5192 21.0967 48.898 21.081 46.4537 21.5042C38.6183 22.8605 38.6708 22.8076 38.3064 23.3722C38.8062 25.2515 38.7797 25.625 37.7139 26.4878C36.9339 27.1874 33.9228 27.471 32.1116 27.471C29.921 27.471 27.6419 26.7501 26.0024 25.0788C24.8177 23.8712 24.213 22.2264 23.4059 20.0761C22.6972 18.1876 22.5999 17.9884 21.8716 18.0005C18.0516 18.934 13.9584 20.0872 10.056 21.1394Z" fill="url(#paint1_linear_216_334)"/>
<defs>
<linearGradient id="paint0_linear_216_334" x1="55.8692" y1="-7.73239" x2="15.3618" y2="60.1973" gradientUnits="userSpaceOnUse">
<stop stop-color="#FE7970"/>
<stop offset="1" stop-color="#C2352A"/>
</linearGradient>
<linearGradient id="paint1_linear_216_334" x1="44" y1="21" x2="31.7392" y2="52.6733" gradientUnits="userSpaceOnUse">
<stop stop-color="#FE7970"/>
<stop offset="0.83028" stop-color="#C2352A"/>
</linearGradient>
</defs>
</svg>
