<svg width="48" height="48" viewBox="0 0 48 48" fill="none" xmlns="http://www.w3.org/2000/svg">
<g opacity="0.4">
<path d="M35.9921 25.712C35.8089 24.3785 35.4069 23.1118 34.8999 21.9505C35.4601 23.1437 35.8242 24.3861 35.9921 25.712Z" fill="url(#paint0_linear_81_201)"/>
<path fill-rule="evenodd" clip-rule="evenodd" d="M41.1964 20.2383C40.8147 19.8489 40.7987 19.2263 41.1716 18.8285L43.6 16.2376C44.9 14.8345 44.9 12.6295 43.5 11.3266C42.1 10.0236 39.9 10.0236 38.6 11.4268L35.6939 14.4227C35.3517 14.7754 34.805 14.8256 34.3943 14.556C33.8814 14.2193 33.3625 13.9026 32.8242 13.5926C32.3647 13.328 32.1779 12.7562 32.4055 12.2772L34 8.92116C34.8 7.11711 34 5.1126 32.2 4.3108C30.4 3.509 28.4 4.3108 27.6 6.11486L25.6636 10.5785C25.6217 10.6753 25.5971 10.7812 25.55 10.8756V10.8756V10.8756C25.5131 10.9496 25.4243 11.0107 25.3426 10.9975C24.8961 10.9257 24.458 10.9257 24.1 10.9257C23.6555 10.9257 23.1319 10.9257 22.6698 10.9961C22.5816 11.0095 22.5 10.9426 22.5 10.8534V10.8534C22.5 10.8349 22.4964 10.8167 22.4893 10.7996L20.6 6.21508C19.9 4.41103 17.8 3.509 16 4.3108C14.2 5.01238 13.3 7.11711 14.1 8.92116L15.5849 12.6417C15.7666 13.097 15.5911 13.616 15.1721 13.8704C14.65 14.1875 14.1278 14.5112 13.6057 14.8558C13.1954 15.1266 12.6482 15.0758 12.3061 14.7229L9.5 11.8277C8.2168 10.4427 5.95927 10.4248 4.65089 11.6776C4.6167 11.7104 4.58049 11.7418 4.54327 11.7711C3.00019 12.9828 3.01555 15.1519 4.3 16.5383L6.61822 18.9392C6.99679 19.3312 6.99023 19.9538 6.61432 20.3485C3.80337 23.2994 2 26.0697 2 27.4628C2 30.8705 14 44 24 44C33.9 44 46 30.8705 46 27.4628C46 26.0679 44.1059 23.206 41.1964 20.2383ZM11.5 27.5624L11.5 27.5597C11.499 27.3463 11.4625 19.1181 20.3 15.4358C21.5 15.0349 22.7 14.8345 24 14.8345C28.9 14.8345 33 17.741 34.9 21.8502C35.7 23.4538 36.1 25.2579 36.1 27.1622L36.0998 27.2238C36.098 26.7119 36.0602 26.2073 35.9921 25.712C36.0577 26.23 36.0934 26.7608 36.0991 27.3063C36.0808 28.7499 35.7887 30.1874 35.3116 31.4416C35.3039 31.4616 35.3019 31.4614 35.2991 31.4827V31.4827C35.2896 31.5575 35.1841 31.6204 35.1599 31.6919C35.0771 31.9365 34.9855 32.1812 34.8312 32.4259C34.8113 32.4576 34.8 32.4941 34.8 32.5315V32.5315C34.8 32.5597 34.7937 32.5876 34.7815 32.6131C32.7742 36.8004 28.5853 39.4902 23.8 39.5901C11.6008 39.5901 11.5008 27.6601 11.5 27.5624Z" fill="url(#paint1_linear_81_201)"/>
</g>
<path d="M15.3 29.4675C15.3 26.5609 16.8 23.7546 18.7 22.3515C21.2 20.347 24.8 20.9483 24.9 21.0486C24.9 21.0486 30.3 21.9506 29.6 27.7637C29.6 27.7637 29 32.374 24 32.374C22.5 32.2738 19.6 31.2715 19.6 27.7637C19.6 27.6634 19.7 26.0598 20.9 24.9573C21.6 24.356 22.7 23.9551 23.8 24.1555C24.8 24.2558 26.7 25.0576 26.6 27.0621C26.6 27.0621 26.6 28.365 25.7 29.0666C25.1 29.5677 24.4 29.6679 23.5 29.5677C23.2 29.5677 23 29.267 23.1 28.9664C23.1 28.6657 23.4 28.4652 23.7 28.5655C24.3 28.6657 24.8 28.5655 25.1 28.2648C25.6 27.8639 25.7 27.0621 25.7 26.9619C25.7 25.3582 23.8 25.0576 23.8 25.0576C22.9 24.9573 22.2 25.1578 21.7 25.5587C20.8 26.3605 20.7 27.6634 20.7 27.7637C20.7 31.1713 24 31.3718 24.1 31.3718C28.2 31.3718 28.6 27.7637 28.7 27.6634C29.3 22.8526 25 22.0508 24.8 22.0508C20.4 21.7501 17.4 24.5564 17.4 28.2648C17.4 32.2738 20.6 35.5812 24.7 35.5812C25.8 35.5812 26.8 35.3808 27.7 34.8796C32.9 32.374 32.8 27.3628 32.8 27.3628C33.1 18.7434 26 17.3402 26 17.3402C25.2 17.1398 24.3 17.0396 23.4 17.0396C17.3 17.0396 12.3 21.5497 11.5 27.463C11.5 34.1781 15.7 39.6905 23.8 39.6905C28.6 39.6905 32.8 36.8842 34.8 32.7749C34.3 33.6769 33.7 34.579 33.1 35.2805C26.3 41.9956 15.3 37.1848 15.3 29.4675Z" fill="url(#paint2_linear_81_201)"/>
<defs>
<linearGradient id="paint0_linear_81_201" x1="24" y1="44" x2="24" y2="4" gradientUnits="userSpaceOnUse">
<stop stop-color="#FD5900"/>
<stop offset="1" stop-color="#FFDE00"/>
</linearGradient>
<linearGradient id="paint1_linear_81_201" x1="24" y1="44" x2="24" y2="4" gradientUnits="userSpaceOnUse">
<stop stop-color="#FD5900"/>
<stop offset="1" stop-color="#FFDE00"/>
</linearGradient>
<linearGradient id="paint2_linear_81_201" x1="23.15" y1="39.6905" x2="23.15" y2="17.0396" gradientUnits="userSpaceOnUse">
<stop stop-color="#FD5900"/>
<stop offset="1" stop-color="#FFDE00"/>
</linearGradient>
</defs>
</svg>
