<svg width="48" height="48" viewBox="0 0 48 48" fill="none" xmlns="http://www.w3.org/2000/svg">
<rect opacity="0.4" x="4" y="2" width="40" height="44" rx="8" fill="url(#paint0_linear_60_226)"/>
<path d="M36.1099 8.00054C35.7526 7.99304 35.3981 8.06362 35.0708 8.20733C34.7437 8.35105 34.4518 8.56444 34.2156 8.83261L23.756 20.3497L13.2963 8.83261C13.0791 8.58598 12.8145 8.38547 12.5184 8.24295C12.2222 8.10044 11.9005 8.01882 11.5722 8.00293C11.0843 7.97976 10.6005 8.10263 10.1828 8.35584C9.76504 8.60906 9.43231 8.9811 9.22712 9.42441C9.02195 9.86771 8.95364 10.3621 9.03094 10.8445C9.10825 11.3268 9.32765 11.7751 9.66109 12.1321L20.4397 24.0017L9.66109 35.8689C9.43918 36.1067 9.26673 36.3862 9.15374 36.6913C9.04076 36.9962 8.98949 37.3207 9.00292 37.6457C9.01634 37.9706 9.0942 38.2897 9.23196 38.5844C9.36972 38.879 9.56465 39.1434 9.80541 39.3621C10.0462 39.5808 10.328 39.7494 10.6345 39.8584C10.941 39.9672 11.2661 40.0141 11.5908 39.9963C11.9156 39.9785 12.2336 39.8964 12.5264 39.7547C12.8192 39.613 13.0809 39.4145 13.2963 39.1709L23.756 27.6537L34.2156 39.1709C34.431 39.4145 34.6927 39.613 34.9855 39.7547C35.2783 39.8964 35.5962 39.9785 35.921 39.9963C36.2458 40.0141 36.5709 39.9672 36.8774 39.8584C37.1839 39.7494 37.4657 39.5808 37.7065 39.3621C37.9473 39.1434 38.1422 38.879 38.2799 38.5844C38.4177 38.2897 38.4956 37.9706 38.509 37.6457C38.5224 37.3207 38.4712 36.9962 38.3581 36.6913C38.2452 36.3862 38.0727 36.1067 37.8508 35.8689L27.0722 24.0017L37.8508 12.1321C38.1744 11.7857 38.3909 11.3531 38.474 10.8864C38.5572 10.4197 38.5034 9.93896 38.3194 9.50211C38.1353 9.06528 37.8288 8.69105 37.4367 8.4246C37.0447 8.15815 36.5839 8.01087 36.1099 8.00054Z" fill="url(#paint1_linear_60_226)" stroke="url(#paint2_linear_60_226)" stroke-width="2"/>
<defs>
<linearGradient id="paint0_linear_60_226" x1="11.25" y1="40.8055" x2="50.2458" y2="9.87414" gradientUnits="userSpaceOnUse">
<stop stop-color="#FE0844"/>
<stop offset="1" stop-color="#FEB302"/>
</linearGradient>
<linearGradient id="paint1_linear_60_226" x1="14.3491" y1="36.2222" x2="42.7998" y2="13.3284" gradientUnits="userSpaceOnUse">
<stop stop-color="#FE0844"/>
<stop offset="1" stop-color="#FEB302"/>
</linearGradient>
<linearGradient id="paint2_linear_60_226" x1="14.3491" y1="36.2222" x2="42.7998" y2="13.3284" gradientUnits="userSpaceOnUse">
<stop stop-color="#FE0844"/>
<stop offset="1" stop-color="#FEB302"/>
</linearGradient>
</defs>
</svg>
