<svg width="32" height="32" viewBox="0 0 32 32" fill="none" xmlns="http://www.w3.org/2000/svg">
<path opacity="0.4" d="M8.1775 2C4.74253 2 2 4.74606 2 8.18103V23.8213C2 27.2562 4.74253 30 8.1775 30H23.8225C27.2575 30 30 27.2562 30 23.8213V8.18103C30 4.74606 27.2575 2 23.8225 2H8.1775ZM5.50348 5.50199L14.25 5.5V6.32268C14.0243 6.34368 13.8835 6.32268 13.5966 6.32268C12.6516 6.38567 11.9552 6.50466 11.9552 7.03312C11.9552 7.49858 12.0987 7.9343 12.4469 8.39976L16.8225 15.1775L21.4692 8.34551C21.7772 7.85905 21.9066 7.41809 21.9066 7.14161C21.9066 6.73914 21.5794 6.47124 21.2504 6.3225H19.5006V5.50024H26.5V6.3225C25.7196 6.38549 25.0529 6.43642 24.4772 6.92288C23.9225 7.38834 23.1595 8.31577 22.2356 9.71215L17.7507 16.8218V24.7504C18.12 25.0881 19.8733 25.6586 21.2504 25.6796V26.5003H10.75V25.6775C12.1481 25.6145 13.921 25.0881 14.25 24.7504V16.77L10.5321 11.0788C8.92926 8.79523 7.87383 7.43034 7.35938 6.92288C6.84492 6.41542 6.30841 6.3225 5.49998 6.3225V5.50024L5.50348 5.50199Z" fill="url(#paint0_linear_107_130)"/>
<path d="M13.8195 5.5001L5.504 5.50199L5.50305 5.50177C5.50165 5.50107 5.5 5.50209 5.5 5.50366V6.00841C5.5 6.18188 5.64085 6.32113 5.81416 6.32841C6.45337 6.35528 6.91462 6.48415 7.3594 6.92288C7.87385 7.43034 8.92928 8.79523 10.5321 11.0788L14.0872 16.5208C14.1934 16.6834 14.25 16.8734 14.25 17.0677V24.3439C14.25 24.6046 14.1429 24.8535 13.907 24.9644C13.3218 25.2394 12.1846 25.5457 11.151 25.6482C10.9272 25.6704 10.75 25.8547 10.75 26.0796C10.75 26.312 10.9384 26.5003 11.1707 26.5003H20.837C21.0654 26.5003 21.2505 26.3152 21.2505 26.0868C21.2505 25.8609 21.069 25.6777 20.8439 25.659C19.8367 25.575 18.7273 25.2568 18.1268 24.9759C17.8726 24.857 17.7508 24.5906 17.7508 24.3099V17.1109C17.7508 16.922 17.8042 16.7371 17.905 16.5773L22.2356 9.71215C23.1596 8.31576 23.9225 7.38834 24.4772 6.92288C24.9538 6.52019 25.4927 6.41595 26.1069 6.35626C26.3287 6.3347 26.5 6.1508 26.5 5.92794C26.5 5.69173 26.3086 5.50024 26.0723 5.50024H19.9117C19.6847 5.50024 19.5006 5.68431 19.5006 5.91137C19.5006 6.13843 19.6847 6.3225 19.9117 6.3225H21.0349C21.177 6.3225 21.32 6.3486 21.4407 6.42349C21.6949 6.58111 21.9067 6.81781 21.9067 7.14161C21.9067 7.41809 21.7772 7.85905 21.4692 8.34551L17.6711 13.9298C17.2685 14.5218 16.3924 14.5113 16.0041 13.9098L12.4469 8.39976C12.0987 7.9343 11.9552 7.49858 11.9552 7.03312C11.9552 6.50466 12.6517 6.38567 13.5966 6.32268C13.6989 6.32268 13.7826 6.32535 13.8582 6.32783C14.0803 6.33512 14.25 6.15272 14.25 5.93048C14.25 5.69275 14.0573 5.50004 13.8195 5.5001Z" fill="url(#paint1_linear_107_130)"/>
<defs>
<linearGradient id="paint0_linear_107_130" x1="7.25" y1="5.17187" x2="24.9141" y2="24.0391" gradientUnits="userSpaceOnUse">
<stop stop-color="#8F0CFF"/>
<stop offset="0.516064" stop-color="#AA1DFF"/>
<stop offset="1" stop-color="#B826FF"/>
</linearGradient>
<linearGradient id="paint1_linear_107_130" x1="9.43751" y1="7.87894" x2="22.6857" y2="22.0294" gradientUnits="userSpaceOnUse">
<stop stop-color="#8F0CFF"/>
<stop offset="0.516064" stop-color="#AA1DFF"/>
<stop offset="1" stop-color="#B826FF"/>
</linearGradient>
</defs>
</svg>
