<svg width="64" height="64" viewBox="0 0 64 64" fill="none" xmlns="http://www.w3.org/2000/svg">
<path opacity="0.4" d="M14.9806 51.3629C14.9529 52.1473 14.9585 52.8669 15.0175 53.5051C15.1301 54.7218 15.4974 56.4018 17.0148 57.4195C17.9637 58.0566 19.0011 58.1611 19.8705 58.0792C20.7071 58.0006 21.5547 57.7366 22.3534 57.4263C23.9089 56.8226 25.912 55.7828 28.3262 54.5297L28.4863 54.4466C31.5237 52.8705 34.5544 51.8182 37.0909 51.8182H37.2751C41.9172 51.8182 45.6593 51.8183 48.6022 51.4226C51.657 51.0118 54.2297 50.1326 56.2719 48.0886C58.3159 46.0464 59.1936 43.4752 59.6044 40.4204C60.0001 37.4775 60.0001 33.7354 60 29.0933V28.7249C60.0001 24.0828 60.0001 20.3407 59.6044 17.3978C59.1936 14.3429 58.3159 11.7719 56.2719 9.7296C54.2297 7.68555 51.657 6.80651 48.6022 6.39562C45.6598 5.99988 41.9185 5.99993 37.2776 6H26.7224C22.0814 5.99993 18.3402 5.99988 15.3978 6.39562C12.3429 6.80651 9.77187 7.68403 7.72958 9.72805C5.68555 11.7703 4.80651 14.3429 4.39562 17.3978C3.99988 20.3403 3.99993 24.0816 4 28.7228V29.0954C3.99993 33.7365 3.99988 37.4779 4.39562 40.4204C4.80636 43.4741 5.68495 46.0461 7.7275 48.088C9.67656 50.04 12.1079 50.9301 14.9806 51.3629Z" fill="url(#paint0_linear_54_155)"/>
<path d="M15 22.6842C15 21.9723 15.2828 21.2896 15.7862 20.7862C16.2896 20.2828 16.9723 20 17.6842 20H46.3158C47.0277 20 47.7104 20.2828 48.2138 20.7862C48.7172 21.2896 49 21.9723 49 22.6842C49 23.3961 48.7172 24.0788 48.2138 24.5822C47.7104 25.0856 47.0277 25.3684 46.3158 25.3684H17.6842C16.9723 25.3684 16.2896 25.0856 15.7862 24.5822C15.2828 24.0788 15 23.3961 15 22.6842ZM15 35.2105C15 34.4986 15.2828 33.8159 15.7862 33.3125C16.2896 32.8091 16.9723 32.5263 17.6842 32.5263H37.3684C38.0803 32.5263 38.7631 32.8091 39.2664 33.3125C39.7698 33.8159 40.0526 34.4986 40.0526 35.2105C40.0526 35.9224 39.7698 36.6052 39.2664 37.1085C38.7631 37.6119 38.0803 37.8947 37.3684 37.8947H17.6842C16.9723 37.8947 16.2896 37.6119 15.7862 37.1085C15.2828 36.6052 15 35.9224 15 35.2105Z" fill="url(#paint1_linear_54_155)"/>
<defs>
<linearGradient id="paint0_linear_54_155" x1="32" y1="58.1034" x2="32" y2="6" gradientUnits="userSpaceOnUse">
<stop stop-color="#FDA700"/>
<stop offset="1" stop-color="#FFDE00"/>
</linearGradient>
<linearGradient id="paint1_linear_54_155" x1="32" y1="37.8947" x2="32" y2="20" gradientUnits="userSpaceOnUse">
<stop stop-color="#FD5900"/>
<stop offset="1" stop-color="#FFDE00"/>
</linearGradient>
</defs>
</svg>
