<svg width="24" height="24" viewBox="0 0 24 24" fill="none" xmlns="http://www.w3.org/2000/svg">
<path opacity="0.4" d="M1 12C1 6.8146 1 4.2219 2.6104 2.6104C4.223 1 6.8146 1 12 1C17.1854 1 19.7781 1 21.3885 2.6104C23 4.223 23 6.8146 23 12C23 17.1854 23 19.7781 21.3885 21.3885C19.7792 23 17.1854 23 12 23C6.8146 23 4.2219 23 2.6104 21.3885C1 19.7792 1 17.1854 1 12Z" fill="url(#paint0_linear_54_366)"/>
<path fill-rule="evenodd" clip-rule="evenodd" d="M19.0001 19.3973C19.5524 19.3973 20.0001 18.9495 20.0001 18.3973V18.292C20.0001 17.7397 19.5524 17.292 19.0001 17.292H13.0001C12.4478 17.292 12.0001 17.7397 12.0001 18.292V18.3973C12.0001 18.9495 12.4478 19.3973 13.0001 19.3973H19.0001ZM9.64667 9.72332C9.64096 9.72897 9.63176 9.72894 9.62608 9.72326L6.19591 6.29291C5.80539 5.90237 5.17221 5.90236 4.78168 6.29289L4.7073 6.36728C4.31676 6.75781 4.31677 7.39099 4.70731 7.78151L7.44081 10.5149C7.83134 10.9054 7.83136 11.5385 7.44084 11.9291L4.00018 15.3699C4.00017 15.3699 4.00017 15.3699 4.00018 15.3699V15.3699C4.00018 15.3699 4.00018 15.3699 4.00018 15.3699L4.00005 15.3701C3.99998 15.3701 3.99998 15.3702 4.00005 15.3703L4.8868 16.2571C5.21915 16.5894 5.75798 16.5894 6.09032 16.2571V16.2571L9.6266 12.7209C9.6322 12.7153 9.6413 12.7154 9.64688 12.721V12.721C9.65245 12.7266 9.66155 12.7267 9.66715 12.7211L11.1354 11.2528C11.1411 11.2472 11.141 11.238 11.1354 11.2325V11.2325C11.1297 11.2269 11.1297 11.2178 11.1353 11.2122L11.1427 11.2047L13.9023 8.44506C14.2929 8.05454 14.2929 7.42137 13.9023 7.03085L13.8279 6.95642C13.4374 6.5659 12.8042 6.5659 12.4137 6.95642L9.657 9.71311C9.657 9.71311 9.657 9.71311 9.65699 9.71311V9.71311C9.65699 9.71311 9.65698 9.71311 9.65698 9.71311L9.64667 9.72332Z" fill="#1DA7FF"/>
<defs>
<linearGradient id="paint0_linear_54_366" x1="12" y1="23" x2="12" y2="1" gradientUnits="userSpaceOnUse">
<stop stop-color="#5570FF"/>
<stop offset="1" stop-color="#4DD3FF"/>
</linearGradient>
</defs>
</svg>
