<svg width="256" height="256" viewBox="0 0 256 256" fill="none" xmlns="http://www.w3.org/2000/svg">
<path opacity="0.4" fill-rule="evenodd" clip-rule="evenodd" d="M147.047 52.3391C137.874 49.3258 127.9 49.7391 118.42 50.7391C95.6337 53.2725 74.7403 66.6858 61.7403 85.3791C58.1218 90.557 55.409 96.238 52.6969 101.918C49.9126 107.748 47.1291 113.577 43.367 118.859C40.9023 122.586 37.9133 125.894 34.9231 129.203C31.9766 132.464 29.0288 135.726 26.5803 139.392C20.207 148.752 14.207 158.899 12.4737 170.272C12.4434 170.565 12.4121 170.86 12.3805 171.157C11.9255 175.435 11.4353 180.044 13.767 183.872L13.9803 182.299C14.4203 177.392 15.4203 172.486 17.807 168.126C23.5537 157.086 32.0203 147.726 41.0737 139.299C60.2656 121.9 82.3691 107.984 105.498 96.4261C105.498 96.451 105.499 96.4756 105.5 96.5C124.568 87.2017 145.034 79.8113 165.559 74.5697C183.142 70.0112 201.338 66.4842 219.547 68.3104C225.454 68.9409 230.86 71.4183 236.242 73.8846C238.118 74.7447 239.992 75.6034 241.883 76.382L243 76.8559C240.66 71.8477 235.542 69.2309 230.916 66.8655C230.803 66.808 230.691 66.7506 230.579 66.6933C214.235 59.5139 196.067 59.0678 178.565 59.5418C168.734 59.8897 159.427 56.6875 150.227 53.5225C149.144 53.1496 148.061 52.7773 146.98 52.4114C147.002 52.3873 147.025 52.3632 147.047 52.3391Z" fill="#17ABFF"/>
<path fill-rule="evenodd" clip-rule="evenodd" d="M206.293 72.9599C175.733 74.5466 146.173 84.1866 118.44 96.6266C89.3867 110.013 61.3333 126.893 39.04 150.106C30.9866 158.813 22.84 168.786 21.3466 180.973C20.32 188.8 25.7866 195.6 32.3066 199.16C36.7466 201.28 41.4 202.92 46.2133 203.96C67.48 208.88 89.68 206.294 110.747 201.587C154.853 191.44 196.08 167.76 226.053 133.72C236.573 121.24 246.08 105.707 244.307 88.7069C243.24 84.9469 241.24 81.0802 237.467 79.4402C229.947 76.1202 221.813 74.3733 213.707 73.2399C213.424 73.2232 213.141 73.2061 212.858 73.1891C210.664 73.0565 208.479 72.9245 206.293 72.9599ZM108.213 119.12C136.373 104.48 166.693 93.0534 198.36 89.3201C208.533 88.0534 219.013 89.0804 228.533 92.9604L228.76 94.387C227.64 105.747 220.72 115.414 213.613 123.92C189.747 150.987 158 170.574 123.827 181.76C101.36 188.494 77.5067 193.04 54.0533 189.573C48.36 188.547 42.7467 186.88 37.72 183.96C36.7019 178.869 39.8777 174.367 42.7305 170.324C43.0907 169.813 43.4458 169.31 43.7867 168.813C60.8667 147.307 84.3734 132.133 108.213 119.12ZM145.293 115.133C154.707 111.76 164.693 109.333 174.747 109.267C180.933 109.387 189.653 111.653 189.667 119.32C186.653 127.72 180.6 134.587 173.6 139.947C155.213 154.293 133.787 164.947 110.947 169.933C102.667 171.973 93.9733 172.933 85.5733 170.973C82.2133 169.507 78.9599 166.36 79.5999 162.347C80.9599 154.373 87.0933 148.333 93.0399 143.347C108.44 130.773 126.107 120.573 145.293 115.133Z" fill="url(#paint0_linear_54_1339)"/>
<defs>
<linearGradient id="paint0_linear_54_1339" x1="132.872" y1="206.612" x2="132.872" y2="72.9541" gradientUnits="userSpaceOnUse">
<stop stop-color="#5570FF"/>
<stop offset="1" stop-color="#4DD3FF"/>
</linearGradient>
</defs>
</svg>
