<svg width="32" height="32" viewBox="0 0 32 32" fill="none" xmlns="http://www.w3.org/2000/svg">
<rect opacity="0.4" x="2" y="2" width="28" height="28" rx="4" fill="url(#paint0_linear_207_162)"/>
<path fill-rule="evenodd" clip-rule="evenodd" d="M27.1673 13.3333C27.1673 13.8856 26.7196 14.3333 26.1673 14.3333H18.834C18.2817 14.3333 17.834 13.8856 17.834 13.3333V6C17.834 5.44771 18.2817 5 18.834 5H26.1673C26.7196 5 27.1673 5.44772 27.1673 6V13.3333ZM20.1673 11C20.1673 11.5523 20.615 12 21.1673 12H23.834C24.3863 12 24.834 11.5523 24.834 11V8.33333C24.834 7.78105 24.3863 7.33333 23.834 7.33333H21.1673C20.615 7.33333 20.1673 7.78105 20.1673 8.33333V11ZM15.3333 17.8335C14.7811 17.8335 14.3333 17.3858 14.3333 16.8335V11.8335C14.3333 11.2812 13.8856 10.8335 13.3333 10.8335H6C5.44771 10.8335 5 11.2812 5 11.8335V26.1668C5 26.7191 5.44771 27.1668 6 27.1668H20.3333C20.8856 27.1668 21.3333 26.7191 21.3333 26.1668V18.8335C21.3333 18.2812 20.8856 17.8335 20.3333 17.8335H15.3333ZM7.33329 14.1668C7.33329 13.6145 7.78109 13.1668 8.33329 13.1668H11C11.5523 13.1668 12 13.6145 12 14.1668V16.8335C12 17.3858 11.5523 17.8335 11 17.8335H8.33329C7.78109 17.8335 7.33329 17.3858 7.33329 16.8335V14.1668ZM12 23.8335C12 24.3858 11.5523 24.8335 11 24.8335H8.33329C7.78109 24.8335 7.33329 24.3858 7.33329 23.8335V21.1668C7.33329 20.6145 7.78109 20.1668 8.33329 20.1668H11C11.5523 20.1668 12 20.6145 12 21.1668V23.8335ZM19 23.8335C19 24.3858 18.5523 24.8335 18 24.8335H15.3333C14.7811 24.8335 14.3333 24.3858 14.3333 23.8335V21.1668C14.3333 20.6145 14.7811 20.1668 15.3333 20.1668H18C18.5523 20.1668 19 20.6145 19 21.1668V23.8335Z" fill="url(#paint1_linear_207_162)" stroke="url(#paint2_linear_207_162)"/>
<defs>
<linearGradient id="paint0_linear_207_162" x1="12.4432" y1="2.48276" x2="12.4432" y2="36.6314" gradientUnits="userSpaceOnUse">
<stop stop-color="#FF97CE"/>
<stop offset="1" stop-color="#854FE6"/>
</linearGradient>
<linearGradient id="paint1_linear_207_162" x1="13.1672" y1="5" x2="13.1672" y2="33" gradientUnits="userSpaceOnUse">
<stop stop-color="#FF97CE"/>
<stop offset="1" stop-color="#854FE6"/>
</linearGradient>
<linearGradient id="paint2_linear_207_162" x1="13.1672" y1="5" x2="13.1672" y2="33" gradientUnits="userSpaceOnUse">
<stop stop-color="#FF97CE"/>
<stop offset="1" stop-color="#854FE6"/>
</linearGradient>
</defs>
</svg>
