<svg width="32" height="32" viewBox="0 0 32 32" fill="none" xmlns="http://www.w3.org/2000/svg">
<path opacity="0.4" d="M30 16.0068C30 23.7192 23.7162 30 16 30C8.28378 30 2 23.7192 2 16.0068C2 8.28075 8.28378 2 16 2C23.7162 2 30 8.28075 30 16.0068" fill="url(#paint0_linear_5_77)"/>
<path d="M21.6 16.0068C21.6 16.3606 21.4886 16.7158 21.2659 17.0002C21.2241 17.056 21.0292 17.286 20.8761 17.4357L20.7926 17.5174C19.6233 18.7571 16.7139 20.6215 15.2383 21.2189C15.2383 21.2326 14.3614 21.5877 13.9437 21.6H13.8881C13.2477 21.6 12.6491 21.2475 12.3429 20.676C12.1758 20.3616 12.0227 19.4498 12.0088 19.4376C11.8835 18.6197 11.8 17.3677 11.8 15.9932C11.8 14.552 11.8835 13.2442 12.0366 12.4413C12.0366 12.4277 12.1898 11.6928 12.2872 11.4479C12.4403 11.0954 12.7187 10.7946 13.0667 10.6041C13.3452 10.4694 13.6375 10.4 13.9437 10.4C14.2639 10.415 14.8625 10.6177 15.0991 10.713C16.6582 11.3118 19.6372 13.2714 20.7787 14.469C20.9736 14.6595 21.1824 14.8922 21.2381 14.9453C21.4747 15.2447 21.6 15.6121 21.6 16.0068" fill="url(#paint1_linear_5_77)"/>
<defs>
<linearGradient id="paint0_linear_5_77" x1="29.0541" y1="2.80032" x2="18.1328" y2="30.2235" gradientUnits="userSpaceOnUse">
<stop stop-color="#FE0F7C"/>
<stop offset="1" stop-color="#DF0066"/>
</linearGradient>
<linearGradient id="paint1_linear_5_77" x1="21.2689" y1="10.7201" x2="16.4771" y2="21.2482" gradientUnits="userSpaceOnUse">
<stop stop-color="#FE0F7C"/>
<stop offset="1" stop-color="#DF0066"/>
</linearGradient>
</defs>
</svg>
