<svg width="64" height="64" viewBox="0 0 64 64" fill="none" xmlns="http://www.w3.org/2000/svg">
<path d="M38.3092 15.3455C44.3272 15.3455 50.0986 17.7361 54.354 21.9914C58.6093 26.2468 61.0001 32.0183 61.0001 38.0363C61.0001 44.0543 58.6093 49.8258 54.354 54.0812C50.0986 58.3365 44.3272 60.7272 38.3092 60.7272H34.5273V60.3874V56.5465V19.5113V15.6704C34.5273 15.4909 34.6729 15.3455 34.8523 15.3455H38.3092Z" fill="url(#paint0_linear_69_520)"/>
<path d="M38.3092 54.7635C38.3092 55.9685 39.2893 56.9583 40.4863 56.8197C44.6997 56.3314 48.6508 54.4362 51.6799 51.407C55.226 47.8609 57.2182 43.0513 57.2182 38.0363C57.2182 33.0213 55.226 28.2117 51.6799 24.6655M38.3092 15.3455C44.3272 15.3455 50.0986 17.7361 54.354 21.9914C58.6093 26.2468 61.0001 32.0183 61.0001 38.0363C61.0001 44.0543 58.6093 49.8258 54.354 54.0812C50.0986 58.3365 44.3272 60.7272 38.3092 60.7272H34.5273V60.3874V56.5465V19.5113V15.6704C34.5273 15.4909 34.6729 15.3455 34.8523 15.3455H38.3092Z" stroke="url(#paint1_linear_69_520)" stroke-width="2"/>
<path opacity="0.4" d="M24.6909 4C18.6729 4 12.9013 6.39064 8.64602 10.646C4.39064 14.9013 2 20.6729 2 26.6909C2 32.7089 4.39064 38.4804 8.64602 42.7357C12.9013 46.9911 18.6729 49.3817 24.6909 49.3817H28.1329C28.3205 49.3817 28.4727 49.2297 28.4727 49.0419V45.2011V8.1659V4.325C28.4727 4.14551 28.3272 4 28.1477 4H24.6909Z" fill="url(#paint2_linear_69_520)"/>
<defs>
<linearGradient id="paint0_linear_69_520" x1="34.5234" y1="37.3639" x2="60.9943" y2="37.3639" gradientUnits="userSpaceOnUse">
<stop stop-color="#FD3A84"/>
<stop offset="1" stop-color="#FFA68D"/>
</linearGradient>
<linearGradient id="paint1_linear_69_520" x1="34.5234" y1="37.3639" x2="60.9943" y2="37.3639" gradientUnits="userSpaceOnUse">
<stop stop-color="#FD3A84"/>
<stop offset="1" stop-color="#FFA68D"/>
</linearGradient>
<linearGradient id="paint2_linear_69_520" x1="15.2363" y1="49.3817" x2="15.2363" y2="4" gradientUnits="userSpaceOnUse">
<stop stop-color="#5570FF"/>
<stop offset="1" stop-color="#4DD3FF"/>
</linearGradient>
</defs>
</svg>
