<svg width="128" height="128" viewBox="0 0 128 128" fill="none" xmlns="http://www.w3.org/2000/svg">
<path opacity="0.4" d="M66.8001 120C96.1816 120 120 96.1816 120 66.8001C120 37.4185 96.1816 13.6001 66.8001 13.6001C37.4186 13.6001 13.6001 37.4185 13.6001 66.8001C13.6001 96.1816 37.4186 120 66.8001 120Z" fill="url(#paint0_linear_54_1336)"/>
<path d="M11.2604 21.8083C9.94898 20.7592 10.4365 18.6586 12.076 18.2942L57.3283 8.23817C57.9958 8.08983 58.6928 8.29281 59.1763 8.77633L84.1118 33.7118C85.1631 34.7631 84.7405 36.5532 83.33 37.0233L72.67 40.5767C71.2595 41.0468 70.8369 42.8369 71.8882 43.8882L90.0379 62.0379C91.0032 63.0032 90.7391 64.6305 89.5181 65.241L82.9821 68.509C81.8532 69.0734 81.5229 70.5295 82.2978 71.5257L113.793 112.02C115.138 113.749 113.124 116.071 111.222 114.984L44.8447 77.0541C43.4577 76.2616 43.5138 74.2431 44.9425 73.5287L49.7175 71.1413C51.091 70.4545 51.2102 68.5401 49.9325 67.6883L22.6025 49.4683C21.2177 48.5451 21.5005 46.4332 23.0794 45.9069L32.5124 42.7625C34.016 42.2613 34.367 40.2936 33.1293 39.3034L11.2604 21.8083Z" fill="url(#paint1_linear_54_1336)"/>
<defs>
<linearGradient id="paint0_linear_54_1336" x1="120" y1="72.3418" x2="13.6001" y2="72.3418" gradientUnits="userSpaceOnUse">
<stop stop-color="#FFCD1A"/>
<stop offset="1" stop-color="#FD9C0C"/>
</linearGradient>
<linearGradient id="paint1_linear_54_1336" x1="64" y1="120" x2="64" y2="8" gradientUnits="userSpaceOnUse">
<stop stop-color="#FD5900"/>
<stop offset="1" stop-color="#FFDE00"/>
</linearGradient>
</defs>
</svg>
