<svg width="48" height="48" viewBox="0 0 48 48" fill="none" xmlns="http://www.w3.org/2000/svg">
<path opacity="0.4" fill-rule="evenodd" clip-rule="evenodd" d="M38.6748 20.6338C39.3414 20.236 40.1873 20.7163 40.1873 21.4925V35.6717C40.1995 38.0061 39.7231 37.9973 37.9348 39.051L25.3041 46.4932C24.0532 47.1958 23.9782 47.1438 22.8534 46.4862L8.99814 38.3857C8.4759 38.0804 8.34223 37.3849 8.71409 36.9077L12.3414 32.2533C12.6497 31.8576 13.2034 31.7516 13.6361 32.0054L23.5714 37.8322C23.8903 38.0192 24.2863 38.0151 24.6011 37.8215L31.6733 33.4724C31.9692 33.2905 32.1495 32.968 32.1495 32.6206V25.0957C32.1495 24.7436 32.3347 24.4174 32.637 24.237L38.6748 20.6338Z" fill="url(#paint0_linear_80_238)"/>
<path fill-rule="evenodd" clip-rule="evenodd" d="M8 12.2206V26.2752C8 27.0464 8.83605 27.5273 9.50271 27.1396L15.5527 23.6214C15.8606 23.4424 16.05 23.1131 16.05 22.7569V15.3496C16.05 15.0022 16.2304 14.6796 16.5264 14.4977L23.5784 10.1632C23.902 9.96428 24.3104 9.9659 24.6324 10.1674L30.8095 14.032C31.4457 14.43 31.4331 15.3608 30.7864 15.7415L8.4927 28.8653C8.18742 29.045 8 29.3728 8 29.7271V36.0398C8 36.8157 8.84542 37.296 9.51199 36.8987L39.712 18.8984C40.0146 18.718 40.2 18.3917 40.2 18.0394V10.2075C40.2 10.2042 40.1964 10.2021 40.1935 10.2038V10.2038C40.1897 10.206 40.1855 10.2019 40.1875 10.198L40.1958 10.1825C40.1981 10.1781 40.1966 10.1726 40.1923 10.1701L25.4681 1.56081C24.855 1.2023 24.5365 1.01448 24.2106 1.0008C23.8379 0.985166 23.4557 1.19742 22.6119 1.64278L10.3571 8.86215C10.1651 8.97527 9.98703 9.07683 9.82215 9.17088C8.46387 9.94564 8 10.2102 8 12.2206Z" fill="url(#paint1_linear_80_238)"/>
<defs>
<linearGradient id="paint0_linear_80_238" x1="10.31" y1="33.3656" x2="36.2983" y2="29.9769" gradientUnits="userSpaceOnUse">
<stop stop-color="#8D01A2"/>
<stop offset="1" stop-color="#FF00D2"/>
</linearGradient>
<linearGradient id="paint1_linear_80_238" x1="40.2" y1="24.242" x2="16.0916" y2="27.3856" gradientUnits="userSpaceOnUse">
<stop stop-color="#BE41B4"/>
<stop offset="1" stop-color="#FE1FE8"/>
</linearGradient>
</defs>
</svg>
