<svg width="128" height="128" viewBox="0 0 128 128" fill="none" xmlns="http://www.w3.org/2000/svg">
<rect opacity="0.4" x="6" y="6" width="116" height="116" rx="24" fill="url(#paint0_linear_80_320)"/>
<path d="M35.9317 32.4166C35.5058 28.8856 38.8189 25.6556 42.3291 26.0296C58.6344 26.0191 74.9396 26.0191 91.2449 26.0296C94.7137 25.7076 97.902 28.979 97.4763 32.4374C97.3932 34.3173 96.0846 35.7505 94.9732 37.1317C79.8416 54.7561 64.8034 72.4532 49.6821 90.0879C61.7812 90.1295 73.8803 90.0669 85.9794 90.1085C89.2405 89.7865 92.4496 92.3831 92.5534 95.7065C92.8443 99.248 89.5001 102.28 86.021 101.969C70.4115 102.021 54.7917 101.958 39.1824 102C37.1779 101.938 34.945 102.031 33.273 100.723C30.5935 98.7494 30.2092 94.4394 32.5148 92.03C47.8853 73.9383 63.339 55.909 78.7304 37.8276C66.5896 37.8589 54.4387 37.8589 42.298 37.8276C39.1512 38.1288 36.1394 35.5635 35.9317 32.4166Z" fill="url(#paint1_linear_80_320)" stroke="url(#paint2_linear_80_320)" stroke-width="4"/>
<defs>
<linearGradient id="paint0_linear_80_320" x1="121.656" y1="6.73537" x2="6.57366" y2="120.859" gradientUnits="userSpaceOnUse">
<stop stop-color="#FE7970"/>
<stop offset="1" stop-color="#DC3282"/>
</linearGradient>
<linearGradient id="paint1_linear_80_320" x1="97.3175" y1="26.482" x2="22.6665" y2="91.272" gradientUnits="userSpaceOnUse">
<stop stop-color="#FE7970"/>
<stop offset="1" stop-color="#DC3282"/>
</linearGradient>
<linearGradient id="paint2_linear_80_320" x1="97.3174" y1="26.4818" x2="22.6664" y2="91.2716" gradientUnits="userSpaceOnUse">
<stop stop-color="#FE7970"/>
<stop offset="1" stop-color="#DC3282"/>
</linearGradient>
</defs>
</svg>
