<svg width="23" height="22" viewBox="0 0 23 22" fill="none" xmlns="http://www.w3.org/2000/svg">
<path d="M6.52903 7.7759H2.91948C2.80952 7.7759 2.70407 7.8191 2.62631 7.89601C2.54856 7.97292 2.50488 8.07722 2.50488 8.18598V13.9272C2.50488 14.036 2.54856 14.1403 2.62631 14.2172C2.70407 14.2942 2.80952 14.3373 2.91948 14.3373H6.52903C6.72067 14.3374 6.90636 14.4032 7.05452 14.5234L11.7948 18.368C11.8567 18.413 11.93 18.4402 12.0064 18.4464C12.0829 18.4526 12.1596 18.4378 12.2281 18.4034C12.2964 18.369 12.3539 18.3166 12.394 18.252C12.4341 18.1872 12.4553 18.1128 12.4551 18.0368V4.07637C12.4551 4.00055 12.4338 3.92623 12.3936 3.86167C12.3535 3.7971 12.296 3.74482 12.2276 3.71061C12.1591 3.67641 12.0825 3.66163 12.0061 3.66792C11.9298 3.67421 11.8566 3.70133 11.7948 3.74625L7.05452 7.59085C6.90622 7.71071 6.72055 7.7761 6.52903 7.7759Z" stroke="url(#paint0_linear_451_1215)" stroke-width="2" stroke-linecap="round" stroke-linejoin="round"/>
<path fill-rule="evenodd" clip-rule="evenodd" d="M19.5147 5.06454C19.2406 4.59968 18.6416 4.44499 18.1768 4.71901C17.7119 4.99304 17.5572 5.592 17.8313 6.05685C18.7523 7.61942 19.2671 8.89102 19.2671 11.0002C19.2671 13.1044 18.7303 14.3913 17.8274 15.9499C17.557 16.4167 17.7163 17.0146 18.1833 17.2851C18.6501 17.5555 19.2478 17.3963 19.5184 16.9293C20.5284 15.1854 21.2212 13.5583 21.2212 11.0002C21.2212 8.44689 20.5575 6.83361 19.5147 5.06454ZM17.1844 7.44399C16.9371 6.96444 16.3478 6.77619 15.8682 7.02356C15.3886 7.27091 15.2004 7.8602 15.4479 8.33977C15.879 9.17563 16.1246 10.0376 16.1246 11.0002C16.1246 11.9436 15.8681 12.8319 15.4448 13.6664C15.2006 14.1475 15.3929 14.7356 15.8741 14.9797C16.3553 15.2238 16.9433 15.0317 17.1875 14.5504C17.7206 13.4995 18.0787 12.3093 18.0787 11.0002C18.0787 9.67915 17.7353 8.51197 17.1844 7.44399Z" fill="url(#paint1_linear_451_1215)"/>
<defs>
<linearGradient id="paint0_linear_451_1215" x1="7.04732" y1="18.0507" x2="9.48288" y2="4.93796" gradientUnits="userSpaceOnUse">
<stop stop-color="#8D01A2"/>
<stop offset="1" stop-color="#FF33DB"/>
</linearGradient>
<linearGradient id="paint1_linear_451_1215" x1="18.0242" y1="17.0722" x2="21.0144" y2="6.1103" gradientUnits="userSpaceOnUse">
<stop stop-color="#8D01A2"/>
<stop offset="1" stop-color="#FF33DB"/>
</linearGradient>
</defs>
</svg>
