<svg width="23" height="22" viewBox="0 0 23 22" fill="none" xmlns="http://www.w3.org/2000/svg">
<path d="M3.98828 3.09375C3.32175 3.09375 2.78516 3.63034 2.78516 4.29688V15.125C2.78516 15.7915 3.32175 16.3281 3.98828 16.3281H1.58203V17.5312C1.58203 18.1978 2.65522 18.7344 3.98828 18.7344H18.4258C19.7588 18.7344 20.832 18.1978 20.832 17.5312V16.3281H18.4258C19.0923 16.3281 19.6289 15.7915 19.6289 15.125V4.29688C19.6289 3.63034 19.0923 3.09375 18.4258 3.09375H3.98828ZM5.19141 5.5H17.2227V15.125H5.19141V5.5ZM8.80078 16.3281H13.6133V17.5312H8.80078V16.3281Z" fill="url(#paint0_linear_451_1300)"/>
<defs>
<linearGradient id="paint0_linear_451_1300" x1="8.11328" y1="12.7187" x2="17.0546" y2="8.79367" gradientUnits="userSpaceOnUse">
<stop stop-color="#0357D1"/>
<stop offset="1" stop-color="#27CDFC"/>
</linearGradient>
</defs>
</svg>
