<svg width="23" height="22" viewBox="0 0 23 22" fill="none" xmlns="http://www.w3.org/2000/svg">
<path d="M17.356 20.625C18.2889 20.625 19.0478 19.8658 19.0478 18.9332V3.10449C19.0478 2.1697 18.2924 1.375 17.356 1.375H6.07665C5.62211 1.375 5.19414 1.56093 4.87148 1.89843C4.55762 2.22667 4.38477 2.65509 4.38477 3.10449V18.9332C4.38477 19.8658 5.14378 20.625 6.07665 20.625H17.356ZM7.28022 16.395C7.345 16.2826 7.28302 16.38 9.17803 14.4224C8.25204 16.9929 8.30212 16.8809 8.25689 16.9591C8.10105 17.2291 7.75651 17.3214 7.48658 17.1654C7.21737 17.0101 7.12469 16.6643 7.28022 16.395ZM10.8873 11.6873C10.6621 11.5466 10.3694 11.582 10.1844 11.7721L9.7583 12.2097C8.53828 11.5095 7.76855 10.1887 7.76855 8.74414C7.76855 6.56729 9.53947 4.79638 11.7163 4.79638C13.8932 4.79638 15.6641 6.56729 15.6641 8.74414C15.6641 10.9417 13.8932 12.7295 11.7163 12.7295C11.4772 12.7295 11.2404 12.7075 11.008 12.6655L11.1192 12.3563C11.2089 12.1065 11.1124 11.8279 10.8873 11.6873ZM6.07665 2.50293H17.356C17.6563 2.50293 17.9199 2.78403 17.9199 3.10449V18.9332C17.9199 19.244 17.6668 19.497 17.356 19.497H9.99298C9.91206 18.7608 9.67267 18.057 9.28626 17.4238C9.36029 17.2736 9.25541 17.5337 10.6225 13.7382C10.9801 13.8169 11.3461 13.8574 11.7163 13.8574C14.515 13.8574 16.792 11.5635 16.792 8.74414C16.792 5.94531 14.515 3.66845 11.7163 3.66845C8.91762 3.66845 6.64062 5.94531 6.64062 8.74414C6.64062 10.4964 7.52726 12.1076 8.95186 13.0378L6.73932 15.3102C6.34368 15.1606 5.93362 15.0621 5.5127 15.0159V3.10449C5.5127 2.78403 5.77632 2.50293 6.07665 2.50293ZM5.5127 18.9332V16.1531C5.71963 16.1825 5.92275 16.2281 6.12158 16.29C5.95579 16.9974 6.26171 17.7607 6.9226 18.1421C7.40844 18.4229 7.96934 18.4346 8.4456 18.228C8.65445 18.6247 8.79265 19.0523 8.85609 19.497H6.07665C5.76573 19.497 5.5127 19.244 5.5127 18.9332Z" fill="url(#paint0_linear_451_1372)" stroke="url(#paint1_linear_451_1372)" stroke-width="0.6"/>
<path d="M13.4082 8.74415C13.4082 7.81126 12.6492 7.05225 11.7163 7.05225C10.7834 7.05225 10.0244 7.81126 10.0244 8.74415C10.0244 9.67705 10.7834 10.4361 11.7163 10.4361C12.6492 10.4361 13.4082 9.67705 13.4082 8.74415ZM11.1523 8.74415C11.1523 8.43324 11.4054 8.18019 11.7163 8.18019C12.0272 8.18019 12.2803 8.43324 12.2803 8.74415C12.2803 9.05507 12.0272 9.30812 11.7163 9.30812C11.4054 9.30812 11.1523 9.05507 11.1523 8.74415Z" fill="url(#paint2_linear_451_1372)" stroke="url(#paint3_linear_451_1372)" stroke-width="0.6"/>
<path d="M16.228 14.9854H13.9722C13.6607 14.9854 13.4082 15.2378 13.4082 15.5493C13.4082 15.8608 13.6607 16.1133 13.9722 16.1133H16.228C16.5395 16.1133 16.792 15.8608 16.792 15.5493C16.792 15.2378 16.5395 14.9854 16.228 14.9854Z" fill="url(#paint4_linear_451_1372)" stroke="url(#paint5_linear_451_1372)" stroke-width="0.6"/>
<path d="M16.228 17.2412H13.9722C13.6607 17.2412 13.4082 17.4939 13.4082 17.8053C13.4082 18.1167 13.6607 18.3692 13.9722 18.3692H16.228C16.5395 18.3692 16.792 18.1167 16.792 17.8053C16.792 17.4939 16.5395 17.2412 16.228 17.2412Z" fill="url(#paint6_linear_451_1372)" stroke="url(#paint7_linear_451_1372)" stroke-width="0.6"/>
<defs>
<linearGradient id="paint0_linear_451_1372" x1="4.38477" y1="20.625" x2="23.3486" y2="14.329" gradientUnits="userSpaceOnUse">
<stop stop-color="#0500FF"/>
<stop offset="1" stop-color="#4AD7FF"/>
</linearGradient>
<linearGradient id="paint1_linear_451_1372" x1="4.38477" y1="20.625" x2="23.3486" y2="14.329" gradientUnits="userSpaceOnUse">
<stop stop-color="#0500FF"/>
<stop offset="1" stop-color="#4AD7FF"/>
</linearGradient>
<linearGradient id="paint2_linear_451_1372" x1="10.6377" y1="10.0366" x2="13.6891" y2="7.3742" gradientUnits="userSpaceOnUse">
<stop stop-color="#FE0844"/>
<stop offset="1" stop-color="#FEB302"/>
</linearGradient>
<linearGradient id="paint3_linear_451_1372" x1="10.6378" y1="10.0366" x2="13.6891" y2="7.37425" gradientUnits="userSpaceOnUse">
<stop stop-color="#FE0844"/>
<stop offset="1" stop-color="#FEB302"/>
</linearGradient>
<linearGradient id="paint4_linear_451_1372" x1="14.0215" y1="15.9801" x2="14.706" y2="14.1884" gradientUnits="userSpaceOnUse">
<stop stop-color="#FE0844"/>
<stop offset="1" stop-color="#FEB302"/>
</linearGradient>
<linearGradient id="paint5_linear_451_1372" x1="14.0215" y1="15.9801" x2="14.7061" y2="14.1884" gradientUnits="userSpaceOnUse">
<stop stop-color="#FE0844"/>
<stop offset="1" stop-color="#FEB302"/>
</linearGradient>
<linearGradient id="paint6_linear_451_1372" x1="14.0215" y1="18.236" x2="14.706" y2="16.4444" gradientUnits="userSpaceOnUse">
<stop stop-color="#FE0844"/>
<stop offset="1" stop-color="#FEB302"/>
</linearGradient>
<linearGradient id="paint7_linear_451_1372" x1="14.0215" y1="18.236" x2="14.7062" y2="16.4443" gradientUnits="userSpaceOnUse">
<stop stop-color="#FE0844"/>
<stop offset="1" stop-color="#FEB302"/>
</linearGradient>
</defs>
</svg>
