<svg width="23" height="22" viewBox="0 0 23 22" fill="none" xmlns="http://www.w3.org/2000/svg">
<path d="M17.5464 20.625C18.4794 20.625 19.2382 19.8658 19.2382 18.9332V3.10449C19.2382 2.1697 18.4828 1.375 17.5464 1.375H6.26708C5.81254 1.375 5.38457 1.56093 5.06191 1.89843C4.74805 2.22667 4.5752 2.65509 4.5752 3.10449V18.9332C4.5752 19.8658 5.33421 20.625 6.26708 20.625H17.5464ZM7.47065 16.395C7.53543 16.2826 7.47345 16.38 9.36846 14.4224C8.44247 16.9929 8.49255 16.8809 8.44732 16.9591C8.29148 17.2291 7.94694 17.3214 7.67701 17.1654C7.4078 17.0101 7.31512 16.6643 7.47065 16.395ZM11.0777 11.6873C10.8525 11.5466 10.5598 11.582 10.3748 11.7721L9.94873 12.2097C8.72871 11.5095 7.95898 10.1887 7.95898 8.74414C7.95898 6.56729 9.7299 4.79638 11.9067 4.79638C14.0836 4.79638 15.8545 6.56729 15.8545 8.74414C15.8545 10.9417 14.0836 12.7295 11.9067 12.7295C11.6676 12.7295 11.4309 12.7075 11.1984 12.6655L11.3096 12.3563C11.3993 12.1065 11.3028 11.8279 11.0777 11.6873ZM6.26708 2.50293H17.5464C17.8467 2.50293 18.1103 2.78403 18.1103 3.10449V18.9332C18.1103 19.244 17.8572 19.497 17.5464 19.497H10.1834C10.1025 18.7608 9.8631 18.057 9.47669 17.4238C9.55072 17.2736 9.44584 17.5337 10.8129 13.7382C11.1705 13.8169 11.5365 13.8574 11.9067 13.8574C14.7054 13.8574 16.9824 11.5635 16.9824 8.74414C16.9824 5.94531 14.7054 3.66845 11.9067 3.66845C9.10805 3.66845 6.83105 5.94531 6.83105 8.74414C6.83105 10.4964 7.71769 12.1076 9.14229 13.0378L6.92975 15.3102C6.53411 15.1606 6.12405 15.0621 5.70312 15.0159V3.10449C5.70312 2.78403 5.96675 2.50293 6.26708 2.50293ZM5.70312 18.9332V16.1531C5.91006 16.1825 6.11318 16.2281 6.31201 16.29C6.14622 16.9974 6.45214 17.7607 7.11303 18.1421C7.59887 18.4229 8.15977 18.4346 8.63603 18.228C8.84488 18.6247 8.98308 19.0523 9.04652 19.497H6.26708C5.95616 19.497 5.70312 19.244 5.70312 18.9332Z" fill="url(#paint0_linear_451_1379)" stroke="url(#paint1_linear_451_1379)" stroke-width="0.6"/>
<path d="M13.5986 8.74415C13.5986 7.81126 12.8396 7.05225 11.9067 7.05225C10.9739 7.05225 10.2148 7.81126 10.2148 8.74415C10.2148 9.67705 10.9739 10.4361 11.9067 10.4361C12.8396 10.4361 13.5986 9.67705 13.5986 8.74415ZM11.3428 8.74415C11.3428 8.43324 11.5958 8.18019 11.9067 8.18019C12.2177 8.18019 12.4707 8.43324 12.4707 8.74415C12.4707 9.05507 12.2177 9.30812 11.9067 9.30812C11.5958 9.30812 11.3428 9.05507 11.3428 8.74415Z" fill="url(#paint2_linear_451_1379)" stroke="url(#paint3_linear_451_1379)" stroke-width="0.6"/>
<path d="M16.4184 14.9854H14.1626C13.8511 14.9854 13.5986 15.2378 13.5986 15.5493C13.5986 15.8608 13.8511 16.1133 14.1626 16.1133H16.4184C16.73 16.1133 16.9824 15.8608 16.9824 15.5493C16.9824 15.2378 16.73 14.9854 16.4184 14.9854Z" fill="url(#paint4_linear_451_1379)" stroke="url(#paint5_linear_451_1379)" stroke-width="0.6"/>
<path d="M16.4184 17.2412H14.1626C13.8511 17.2412 13.5986 17.4939 13.5986 17.8053C13.5986 18.1167 13.8511 18.3692 14.1626 18.3692H16.4184C16.73 18.3692 16.9824 18.1167 16.9824 17.8053C16.9824 17.4939 16.73 17.2412 16.4184 17.2412Z" fill="url(#paint6_linear_451_1379)" stroke="url(#paint7_linear_451_1379)" stroke-width="0.6"/>
<defs>
<linearGradient id="paint0_linear_451_1379" x1="11.2691" y1="20.108" x2="14.0929" y2="2.90522" gradientUnits="userSpaceOnUse">
<stop stop-color="#8D01A2"/>
<stop offset="1" stop-color="#FF33DB"/>
</linearGradient>
<linearGradient id="paint1_linear_451_1379" x1="11.2691" y1="20.108" x2="14.0929" y2="2.90522" gradientUnits="userSpaceOnUse">
<stop stop-color="#8D01A2"/>
<stop offset="1" stop-color="#FF33DB"/>
</linearGradient>
<linearGradient id="paint2_linear_451_1379" x1="10.8282" y1="10.0366" x2="13.8795" y2="7.3742" gradientUnits="userSpaceOnUse">
<stop stop-color="#FE0844"/>
<stop offset="1" stop-color="#FEB302"/>
</linearGradient>
<linearGradient id="paint3_linear_451_1379" x1="10.8282" y1="10.0366" x2="13.8796" y2="7.37425" gradientUnits="userSpaceOnUse">
<stop stop-color="#FE0844"/>
<stop offset="1" stop-color="#FEB302"/>
</linearGradient>
<linearGradient id="paint4_linear_451_1379" x1="14.212" y1="15.9801" x2="14.8964" y2="14.1884" gradientUnits="userSpaceOnUse">
<stop stop-color="#FE0844"/>
<stop offset="1" stop-color="#FEB302"/>
</linearGradient>
<linearGradient id="paint5_linear_451_1379" x1="14.212" y1="15.9801" x2="14.8965" y2="14.1884" gradientUnits="userSpaceOnUse">
<stop stop-color="#FE0844"/>
<stop offset="1" stop-color="#FEB302"/>
</linearGradient>
<linearGradient id="paint6_linear_451_1379" x1="14.212" y1="18.236" x2="14.8964" y2="16.4444" gradientUnits="userSpaceOnUse">
<stop stop-color="#FE0844"/>
<stop offset="1" stop-color="#FEB302"/>
</linearGradient>
<linearGradient id="paint7_linear_451_1379" x1="14.212" y1="18.236" x2="14.8966" y2="16.4443" gradientUnits="userSpaceOnUse">
<stop stop-color="#FE0844"/>
<stop offset="1" stop-color="#FEB302"/>
</linearGradient>
</defs>
</svg>
