<svg width="23" height="22" viewBox="0 0 23 22" fill="none" xmlns="http://www.w3.org/2000/svg">
<path d="M16.7378 20.625C17.6708 20.625 18.4296 19.8658 18.4296 18.9332V3.10449C18.4296 2.1697 17.6742 1.375 16.7378 1.375H5.45849C5.00395 1.375 4.57598 1.56093 4.25332 1.89843C3.93946 2.22667 3.7666 2.65509 3.7666 3.10449V18.9332C3.7666 19.8658 4.52562 20.625 5.45849 20.625H16.7378ZM6.66206 16.395C6.72684 16.2826 6.66486 16.38 8.55987 14.4224C7.63387 16.9929 7.68396 16.8809 7.63872 16.9591C7.48288 17.2291 7.13834 17.3214 6.86841 17.1654C6.5992 17.0101 6.50653 16.6643 6.66206 16.395ZM10.2691 11.6873C10.0439 11.5466 9.75122 11.582 9.5662 11.7721L9.14014 12.2097C7.92012 11.5095 7.15039 10.1887 7.15039 8.74414C7.15039 6.56729 8.9213 4.79638 11.0982 4.79638C13.275 4.79638 15.0459 6.56729 15.0459 8.74414C15.0459 10.9417 13.275 12.7295 11.0982 12.7295C10.859 12.7295 10.6223 12.7075 10.3898 12.6655L10.501 12.3563C10.5907 12.1065 10.4942 11.8279 10.2691 11.6873ZM5.45849 2.50293H16.7378C17.0381 2.50293 17.3017 2.78403 17.3017 3.10449V18.9332C17.3017 19.244 17.0487 19.497 16.7378 19.497H9.37481C9.2939 18.7608 9.05451 18.057 8.6681 17.4238C8.74212 17.2736 8.63725 17.5337 10.0043 13.7382C10.3619 13.8169 10.7279 13.8574 11.0982 13.8574C13.8968 13.8574 16.1738 11.5635 16.1738 8.74414C16.1738 5.94531 13.8968 3.66845 11.0982 3.66845C8.29946 3.66845 6.02246 5.94531 6.02246 8.74414C6.02246 10.4964 6.9091 12.1076 8.3337 13.0378L6.12115 15.3102C5.72551 15.1606 5.31545 15.0621 4.89453 15.0159V3.10449C4.89453 2.78403 5.15815 2.50293 5.45849 2.50293ZM4.89453 18.9332V16.1531C5.10147 16.1825 5.30459 16.2281 5.50342 16.29C5.33763 16.9974 5.64355 17.7607 6.30444 18.1421C6.79028 18.4229 7.35118 18.4346 7.82744 18.228C8.03629 18.6247 8.17449 19.0523 8.23793 19.497H5.45849C5.14757 19.497 4.89453 19.244 4.89453 18.9332Z" fill="url(#paint0_linear_451_1386)" stroke="url(#paint1_linear_451_1386)" stroke-width="0.6"/>
<path d="M12.79 8.74415C12.79 7.81126 12.031 7.05225 11.0981 7.05225C10.1653 7.05225 9.40625 7.81126 9.40625 8.74415C9.40625 9.67705 10.1653 10.4361 11.0981 10.4361C12.031 10.4361 12.79 9.67705 12.79 8.74415ZM10.5342 8.74415C10.5342 8.43324 10.7872 8.18019 11.0981 8.18019C11.4091 8.18019 11.6621 8.43324 11.6621 8.74415C11.6621 9.05507 11.4091 9.30812 11.0981 9.30812C10.7872 9.30812 10.5342 9.05507 10.5342 8.74415Z" fill="url(#paint2_linear_451_1386)" stroke="url(#paint3_linear_451_1386)" stroke-width="0.6"/>
<path d="M15.6099 14.9854H13.354C13.0425 14.9854 12.79 15.2378 12.79 15.5493C12.79 15.8608 13.0425 16.1133 13.354 16.1133H15.6099C15.9214 16.1133 16.1738 15.8608 16.1738 15.5493C16.1738 15.2378 15.9214 14.9854 15.6099 14.9854Z" fill="url(#paint4_linear_451_1386)" stroke="url(#paint5_linear_451_1386)" stroke-width="0.6"/>
<path d="M15.6099 17.2412H13.354C13.0425 17.2412 12.79 17.4939 12.79 17.8053C12.79 18.1167 13.0425 18.3692 13.354 18.3692H15.6099C15.9214 18.3692 16.1738 18.1167 16.1738 17.8053C16.1738 17.4939 15.9214 17.2412 15.6099 17.2412Z" fill="url(#paint6_linear_451_1386)" stroke="url(#paint7_linear_451_1386)" stroke-width="0.6"/>
<defs>
<linearGradient id="paint0_linear_451_1386" x1="10.4605" y1="20.108" x2="13.2843" y2="2.90522" gradientUnits="userSpaceOnUse">
<stop stop-color="#8D01A2"/>
<stop offset="1" stop-color="#FF33DB"/>
</linearGradient>
<linearGradient id="paint1_linear_451_1386" x1="10.4605" y1="20.108" x2="13.2843" y2="2.90522" gradientUnits="userSpaceOnUse">
<stop stop-color="#8D01A2"/>
<stop offset="1" stop-color="#FF33DB"/>
</linearGradient>
<linearGradient id="paint2_linear_451_1386" x1="10.0196" y1="10.0366" x2="13.0709" y2="7.3742" gradientUnits="userSpaceOnUse">
<stop stop-color="#FE0844"/>
<stop offset="1" stop-color="#FEB302"/>
</linearGradient>
<linearGradient id="paint3_linear_451_1386" x1="10.0196" y1="10.0366" x2="13.071" y2="7.37425" gradientUnits="userSpaceOnUse">
<stop stop-color="#FE0844"/>
<stop offset="1" stop-color="#FEB302"/>
</linearGradient>
<linearGradient id="paint4_linear_451_1386" x1="13.4034" y1="15.9801" x2="14.0878" y2="14.1884" gradientUnits="userSpaceOnUse">
<stop stop-color="#FE0844"/>
<stop offset="1" stop-color="#FEB302"/>
</linearGradient>
<linearGradient id="paint5_linear_451_1386" x1="13.4034" y1="15.9801" x2="14.0879" y2="14.1884" gradientUnits="userSpaceOnUse">
<stop stop-color="#FE0844"/>
<stop offset="1" stop-color="#FEB302"/>
</linearGradient>
<linearGradient id="paint6_linear_451_1386" x1="13.4034" y1="18.236" x2="14.0878" y2="16.4444" gradientUnits="userSpaceOnUse">
<stop stop-color="#FE0844"/>
<stop offset="1" stop-color="#FEB302"/>
</linearGradient>
<linearGradient id="paint7_linear_451_1386" x1="13.4034" y1="18.236" x2="14.088" y2="16.4443" gradientUnits="userSpaceOnUse">
<stop stop-color="#FE0844"/>
<stop offset="1" stop-color="#FEB302"/>
</linearGradient>
</defs>
</svg>
