<svg width="23" height="22" viewBox="0 0 23 22" fill="none" xmlns="http://www.w3.org/2000/svg">
<path d="M17.3101 20.625C18.243 20.625 19.0019 19.8658 19.0019 18.9332V3.10449C19.0019 2.1697 18.2465 1.375 17.3101 1.375H6.03075C5.57621 1.375 5.14824 1.56093 4.82558 1.89843C4.51172 2.22667 4.33887 2.65509 4.33887 3.10449V18.9332C4.33887 19.8658 5.09788 20.625 6.03075 20.625H17.3101ZM7.23432 16.395C7.2991 16.2826 7.23713 16.38 9.13213 14.4224C8.20614 16.9929 8.25623 16.8809 8.21099 16.9591C8.05515 17.2291 7.71061 17.3214 7.44068 17.1654C7.17147 17.0101 7.0788 16.6643 7.23432 16.395ZM10.8414 11.6873C10.6162 11.5466 10.3235 11.582 10.1385 11.7721L9.7124 12.2097C8.49238 11.5095 7.72266 10.1887 7.72266 8.74414C7.72266 6.56729 9.49357 4.79638 11.6704 4.79638C13.8473 4.79638 15.6182 6.56729 15.6182 8.74414C15.6182 10.9417 13.8473 12.7295 11.6704 12.7295C11.4313 12.7295 11.1945 12.7075 10.9621 12.6655L11.0733 12.3563C11.163 12.1065 11.0665 11.8279 10.8414 11.6873ZM6.03075 2.50293H17.3101C17.6104 2.50293 17.874 2.78403 17.874 3.10449V18.9332C17.874 19.244 17.6209 19.497 17.3101 19.497H9.94708C9.86616 18.7608 9.62677 18.057 9.24036 17.4238C9.31439 17.2736 9.20951 17.5337 10.5766 13.7382C10.9342 13.8169 11.3002 13.8574 11.6704 13.8574C14.4691 13.8574 16.7461 11.5635 16.7461 8.74414C16.7461 5.94531 14.4691 3.66845 11.6704 3.66845C8.87173 3.66845 6.59473 5.94531 6.59473 8.74414C6.59473 10.4964 7.48136 12.1076 8.90596 13.0378L6.69342 15.3102C6.29778 15.1606 5.88772 15.0621 5.4668 15.0159V3.10449C5.4668 2.78403 5.73042 2.50293 6.03075 2.50293ZM5.4668 18.9332V16.1531C5.67373 16.1825 5.87686 16.2281 6.07568 16.29C5.90989 16.9974 6.21581 17.7607 6.8767 18.1421C7.36254 18.4229 7.92344 18.4346 8.39971 18.228C8.60855 18.6247 8.74676 19.0523 8.8102 19.497H6.03075C5.71983 19.497 5.4668 19.244 5.4668 18.9332Z" fill="url(#paint0_linear_451_1405)" stroke="url(#paint1_linear_451_1405)" stroke-width="0.6"/>
<path d="M13.3623 8.74415C13.3623 7.81126 12.6033 7.05225 11.6704 7.05225C10.7375 7.05225 9.97852 7.81126 9.97852 8.74415C9.97852 9.67705 10.7375 10.4361 11.6704 10.4361C12.6033 10.4361 13.3623 9.67705 13.3623 8.74415ZM11.1064 8.74415C11.1064 8.43324 11.3595 8.18019 11.6704 8.18019C11.9813 8.18019 12.2344 8.43324 12.2344 8.74415C12.2344 9.05507 11.9813 9.30812 11.6704 9.30812C11.3595 9.30812 11.1064 9.05507 11.1064 8.74415Z" fill="url(#paint2_linear_451_1405)" stroke="url(#paint3_linear_451_1405)" stroke-width="0.6"/>
<path d="M16.1821 14.9854H13.9263C13.6148 14.9854 13.3623 15.2378 13.3623 15.5493C13.3623 15.8608 13.6148 16.1133 13.9263 16.1133H16.1821C16.4936 16.1133 16.7461 15.8608 16.7461 15.5493C16.7461 15.2378 16.4936 14.9854 16.1821 14.9854Z" fill="url(#paint4_linear_451_1405)" stroke="url(#paint5_linear_451_1405)" stroke-width="0.6"/>
<path d="M16.1821 17.2412H13.9263C13.6148 17.2412 13.3623 17.4939 13.3623 17.8053C13.3623 18.1167 13.6148 18.3692 13.9263 18.3692H16.1821C16.4936 18.3692 16.7461 18.1167 16.7461 17.8053C16.7461 17.4939 16.4936 17.2412 16.1821 17.2412Z" fill="url(#paint6_linear_451_1405)" stroke="url(#paint7_linear_451_1405)" stroke-width="0.6"/>
<defs>
<linearGradient id="paint0_linear_451_1405" x1="11.0328" y1="20.108" x2="13.8565" y2="2.90522" gradientUnits="userSpaceOnUse">
<stop stop-color="#8D01A2"/>
<stop offset="1" stop-color="#FF33DB"/>
</linearGradient>
<linearGradient id="paint1_linear_451_1405" x1="11.0328" y1="20.108" x2="13.8565" y2="2.90522" gradientUnits="userSpaceOnUse">
<stop stop-color="#8D01A2"/>
<stop offset="1" stop-color="#FF33DB"/>
</linearGradient>
<linearGradient id="paint2_linear_451_1405" x1="10.5918" y1="10.0366" x2="13.6432" y2="7.3742" gradientUnits="userSpaceOnUse">
<stop stop-color="#FE0844"/>
<stop offset="1" stop-color="#FEB302"/>
</linearGradient>
<linearGradient id="paint3_linear_451_1405" x1="10.5919" y1="10.0366" x2="13.6433" y2="7.37425" gradientUnits="userSpaceOnUse">
<stop stop-color="#FE0844"/>
<stop offset="1" stop-color="#FEB302"/>
</linearGradient>
<linearGradient id="paint4_linear_451_1405" x1="13.9756" y1="15.9801" x2="14.6601" y2="14.1884" gradientUnits="userSpaceOnUse">
<stop stop-color="#FE0844"/>
<stop offset="1" stop-color="#FEB302"/>
</linearGradient>
<linearGradient id="paint5_linear_451_1405" x1="13.9756" y1="15.9801" x2="14.6602" y2="14.1884" gradientUnits="userSpaceOnUse">
<stop stop-color="#FE0844"/>
<stop offset="1" stop-color="#FEB302"/>
</linearGradient>
<linearGradient id="paint6_linear_451_1405" x1="13.9756" y1="18.236" x2="14.6601" y2="16.4444" gradientUnits="userSpaceOnUse">
<stop stop-color="#FE0844"/>
<stop offset="1" stop-color="#FEB302"/>
</linearGradient>
<linearGradient id="paint7_linear_451_1405" x1="13.9756" y1="18.236" x2="14.6603" y2="16.4443" gradientUnits="userSpaceOnUse">
<stop stop-color="#FE0844"/>
<stop offset="1" stop-color="#FEB302"/>
</linearGradient>
</defs>
</svg>
