<svg width="23" height="22" viewBox="0 0 23 22" fill="none" xmlns="http://www.w3.org/2000/svg">
<g clip-path="url(#clip0_451_1474)">
<path d="M20.9687 9.08995H11.7129V5.59663C11.7129 4.15681 12.7988 2.96835 14.1702 2.94676C15.4661 2.94676 16.8447 4.03021 16.8579 4.04104C16.9275 4.09625 18.5821 5.40404 20.3135 5.40404C20.5581 5.40404 20.8017 5.37824 21.0418 5.33266C21.3752 5.26967 21.5949 4.94811 21.5311 4.61457C21.4689 4.28043 21.1425 4.06385 20.8137 4.12564C20.6482 4.15685 20.4815 4.17545 20.3135 4.17545C19.0176 4.17545 17.639 3.092 17.6258 3.0812C17.5561 3.02598 15.9028 1.71875 14.1162 1.71875H14.115C12.1125 1.75055 10.4843 3.48972 10.4843 5.59663V9.08995H1.22857C0.889022 9.08995 0.614258 9.36473 0.614258 9.70429V19.5334C0.614258 19.873 0.889022 20.1477 1.22857 20.1477H20.9687C21.3082 20.1477 21.583 19.873 21.583 19.5334V9.70429C21.583 9.36473 21.3082 9.08995 20.9687 9.08995ZM20.3544 18.9191H1.84289V10.3186H20.3544V18.9191ZM3.72681 12.7759C4.06607 12.7759 4.34111 12.5008 4.34111 12.1616C4.34111 11.8222 4.06607 11.5472 3.72681 11.5472C3.38755 11.5472 3.1125 11.8222 3.1125 12.1616C3.1125 12.5008 3.38755 12.7759 3.72681 12.7759ZM6.18409 12.7759C6.52334 12.7759 6.79839 12.5008 6.79839 12.1616C6.79839 11.8222 6.52334 11.5472 6.18409 11.5472C5.84483 11.5472 5.56977 11.8222 5.56977 12.1616C5.56977 12.5008 5.84483 12.7759 6.18409 12.7759ZM8.64135 12.7759C8.98062 12.7759 9.25567 12.5008 9.25567 12.1616C9.25567 11.8222 8.98062 11.5472 8.64135 11.5472C8.30209 11.5472 8.02705 11.8222 8.02705 12.1616C8.02705 12.5008 8.30209 12.7759 8.64135 12.7759ZM11.0986 12.7759C11.4379 12.7759 11.7129 12.5008 11.7129 12.1616C11.7129 11.8222 11.4379 11.5472 11.0986 11.5472C10.7594 11.5472 10.4843 11.8222 10.4843 12.1616C10.4843 12.5008 10.7594 12.7759 11.0986 12.7759ZM13.5559 12.7759C13.8952 12.7759 14.1702 12.5008 14.1702 12.1616C14.1702 11.8222 13.8952 11.5472 13.5559 11.5472C13.2166 11.5472 12.9416 11.8222 12.9416 12.1616C12.9416 12.5008 13.2166 12.7759 13.5559 12.7759ZM16.0132 12.7759C16.3524 12.7759 16.6275 12.5008 16.6275 12.1616C16.6275 11.8222 16.3524 11.5472 16.0132 11.5472C15.6739 11.5472 15.3989 11.8222 15.3989 12.1616C15.3989 12.5008 15.6739 12.7759 16.0132 12.7759ZM18.4705 16.4618C18.1312 16.4618 17.8562 16.7368 17.8562 17.0761C17.8562 17.4154 18.1312 17.6904 18.4705 17.6904C18.8096 17.6904 19.0848 17.4154 19.0848 17.0761C19.0848 16.7368 18.8096 16.4618 18.4705 16.4618ZM16.0132 15.2331H18.4705C18.8101 15.2331 19.0848 14.9584 19.0848 14.6188V12.1616C19.0848 11.822 18.8101 11.5472 18.4705 11.5472C18.1309 11.5472 17.8562 11.822 17.8562 12.1616V14.0045H16.0132C15.6736 14.0045 15.3989 14.2793 15.3989 14.6188C15.3989 14.9584 15.6736 15.2331 16.0132 15.2331ZM3.72681 15.2331C4.06607 15.2331 4.34111 14.9581 4.34111 14.6188C4.34111 14.2795 4.06607 14.0045 3.72681 14.0045C3.38755 14.0045 3.1125 14.2795 3.1125 14.6188C3.1125 14.9581 3.38755 15.2331 3.72681 15.2331ZM3.72681 17.6904C4.06607 17.6904 4.34111 17.4154 4.34111 17.0761C4.34111 16.7368 4.06607 16.4618 3.72681 16.4618C3.38755 16.4618 3.1125 16.7368 3.1125 17.0761C3.1125 17.4154 3.38755 17.6904 3.72681 17.6904ZM6.18409 15.2331C6.52334 15.2331 6.79839 14.9581 6.79839 14.6188C6.79839 14.2795 6.52334 14.0045 6.18409 14.0045C5.84483 14.0045 5.56977 14.2795 5.56977 14.6188C5.56977 14.9581 5.84483 15.2331 6.18409 15.2331ZM8.64135 15.2331C8.98062 15.2331 9.25567 14.9581 9.25567 14.6188C9.25567 14.2795 8.98062 14.0045 8.64135 14.0045C8.30209 14.0045 8.02705 14.2795 8.02705 14.6188C8.02705 14.9581 8.30209 15.2331 8.64135 15.2331ZM11.0986 15.2331C11.4379 15.2331 11.7129 14.9581 11.7129 14.6188C11.7129 14.2795 11.4379 14.0045 11.0986 14.0045C10.7594 14.0045 10.4843 14.2795 10.4843 14.6188C10.4843 14.9581 10.7594 15.2331 11.0986 15.2331ZM13.5559 15.2331C13.8952 15.2331 14.1702 14.9581 14.1702 14.6188C14.1702 14.2795 13.8952 14.0045 13.5559 14.0045C13.2166 14.0045 12.9416 14.2795 12.9416 14.6188C12.9416 14.9581 13.2166 15.2331 13.5559 15.2331ZM16.0132 17.6904C16.3524 17.6904 16.6275 17.4154 16.6275 17.0761C16.6275 16.7368 16.3524 16.4618 16.0132 16.4618C15.6739 16.4618 15.3989 16.7368 15.3989 17.0761C15.3989 17.4154 15.6739 17.6904 16.0132 17.6904ZM6.18409 17.6904H13.5559C13.8955 17.6904 14.1702 17.4156 14.1702 17.0761C14.1702 16.7366 13.8955 16.4618 13.5559 16.4618H6.18409C5.84452 16.4618 5.56977 16.7366 5.56977 17.0761C5.56977 17.4156 5.84452 17.6904 6.18409 17.6904Z" fill="url(#paint0_linear_451_1474)" stroke="url(#paint1_linear_451_1474)" stroke-width="0.6"/>
</g>
<defs>
<linearGradient id="paint0_linear_451_1474" x1="9.78809" y1="16.0412" x2="11.0986" y2="5.74399" gradientUnits="userSpaceOnUse">
<stop stop-color="#9000FF"/>
<stop offset="1" stop-color="#FF81FF"/>
</linearGradient>
<linearGradient id="paint1_linear_451_1474" x1="9.78809" y1="16.0412" x2="11.0986" y2="5.74399" gradientUnits="userSpaceOnUse">
<stop stop-color="#9000FF"/>
<stop offset="1" stop-color="#FF81FF"/>
</linearGradient>
<clipPath id="clip0_451_1474">
<rect width="22" height="22" fill="white" transform="translate(0.0986328)"/>
</clipPath>
</defs>
</svg>
