<svg width="23" height="22" viewBox="0 0 23 22" fill="none" xmlns="http://www.w3.org/2000/svg">
<g clip-path="url(#clip0_451_1472)">
<path d="M21.7783 9.08995H12.5225V5.59663C12.5225 4.15681 13.6084 2.96835 14.9798 2.94676C16.2756 2.94676 17.6543 4.03021 17.6674 4.04104C17.7371 4.09625 19.3916 5.40404 21.1231 5.40404C21.3677 5.40404 21.6112 5.37824 21.8513 5.33266C22.1848 5.26967 22.4044 4.94811 22.3407 4.61457C22.2785 4.28043 21.9521 4.06385 21.6233 4.12564C21.4578 4.15685 21.291 4.17545 21.1231 4.17545C19.8272 4.17545 18.4486 3.092 18.4353 3.0812C18.3657 3.02598 16.7124 1.71875 14.9258 1.71875H14.9246C12.9221 1.75055 11.2939 3.48972 11.2939 5.59663V9.08995H2.03814C1.69859 9.08995 1.42383 9.36473 1.42383 9.70429V19.5334C1.42383 19.873 1.69859 20.1477 2.03814 20.1477H21.7783C22.1178 20.1477 22.3926 19.873 22.3926 19.5334V9.70429C22.3926 9.36473 22.1178 9.08995 21.7783 9.08995ZM21.164 18.9191H2.65246V10.3186H21.164V18.9191ZM4.53638 12.7759C4.87565 12.7759 5.15068 12.5008 5.15068 12.1616C5.15068 11.8222 4.87565 11.5472 4.53638 11.5472C4.19712 11.5472 3.92207 11.8222 3.92207 12.1616C3.92207 12.5008 4.19712 12.7759 4.53638 12.7759ZM6.99366 12.7759C7.33291 12.7759 7.60796 12.5008 7.60796 12.1616C7.60796 11.8222 7.33291 11.5472 6.99366 11.5472C6.6544 11.5472 6.37935 11.8222 6.37935 12.1616C6.37935 12.5008 6.6544 12.7759 6.99366 12.7759ZM9.45092 12.7759C9.79019 12.7759 10.0652 12.5008 10.0652 12.1616C10.0652 11.8222 9.79019 11.5472 9.45092 11.5472C9.11166 11.5472 8.83663 11.8222 8.83663 12.1616C8.83663 12.5008 9.11166 12.7759 9.45092 12.7759ZM11.9082 12.7759C12.2475 12.7759 12.5225 12.5008 12.5225 12.1616C12.5225 11.8222 12.2475 11.5472 11.9082 11.5472C11.5689 11.5472 11.2939 11.8222 11.2939 12.1616C11.2939 12.5008 11.5689 12.7759 11.9082 12.7759ZM14.3655 12.7759C14.7047 12.7759 14.9798 12.5008 14.9798 12.1616C14.9798 11.8222 14.7047 11.5472 14.3655 11.5472C14.0262 11.5472 13.7512 11.8222 13.7512 12.1616C13.7512 12.5008 14.0262 12.7759 14.3655 12.7759ZM16.8228 12.7759C17.162 12.7759 17.4371 12.5008 17.4371 12.1616C17.4371 11.8222 17.162 11.5472 16.8228 11.5472C16.4835 11.5472 16.2084 11.8222 16.2084 12.1616C16.2084 12.5008 16.4835 12.7759 16.8228 12.7759ZM19.2801 16.4618C18.9408 16.4618 18.6658 16.7368 18.6658 17.0761C18.6658 17.4154 18.9408 17.6904 19.2801 17.6904C19.6192 17.6904 19.8944 17.4154 19.8944 17.0761C19.8944 16.7368 19.6192 16.4618 19.2801 16.4618ZM16.8228 15.2331H19.2801C19.6197 15.2331 19.8944 14.9584 19.8944 14.6188V12.1616C19.8944 11.822 19.6197 11.5472 19.2801 11.5472C18.9405 11.5472 18.6658 11.822 18.6658 12.1616V14.0045H16.8228C16.4832 14.0045 16.2084 14.2793 16.2084 14.6188C16.2084 14.9584 16.4832 15.2331 16.8228 15.2331ZM4.53638 15.2331C4.87565 15.2331 5.15068 14.9581 5.15068 14.6188C5.15068 14.2795 4.87565 14.0045 4.53638 14.0045C4.19712 14.0045 3.92207 14.2795 3.92207 14.6188C3.92207 14.9581 4.19712 15.2331 4.53638 15.2331ZM4.53638 17.6904C4.87565 17.6904 5.15068 17.4154 5.15068 17.0761C5.15068 16.7368 4.87565 16.4618 4.53638 16.4618C4.19712 16.4618 3.92207 16.7368 3.92207 17.0761C3.92207 17.4154 4.19712 17.6904 4.53638 17.6904ZM6.99366 15.2331C7.33291 15.2331 7.60796 14.9581 7.60796 14.6188C7.60796 14.2795 7.33291 14.0045 6.99366 14.0045C6.6544 14.0045 6.37935 14.2795 6.37935 14.6188C6.37935 14.9581 6.6544 15.2331 6.99366 15.2331ZM9.45092 15.2331C9.79019 15.2331 10.0652 14.9581 10.0652 14.6188C10.0652 14.2795 9.79019 14.0045 9.45092 14.0045C9.11166 14.0045 8.83663 14.2795 8.83663 14.6188C8.83663 14.9581 9.11166 15.2331 9.45092 15.2331ZM11.9082 15.2331C12.2475 15.2331 12.5225 14.9581 12.5225 14.6188C12.5225 14.2795 12.2475 14.0045 11.9082 14.0045C11.5689 14.0045 11.2939 14.2795 11.2939 14.6188C11.2939 14.9581 11.5689 15.2331 11.9082 15.2331ZM14.3655 15.2331C14.7047 15.2331 14.9798 14.9581 14.9798 14.6188C14.9798 14.2795 14.7047 14.0045 14.3655 14.0045C14.0262 14.0045 13.7512 14.2795 13.7512 14.6188C13.7512 14.9581 14.0262 15.2331 14.3655 15.2331ZM16.8228 17.6904C17.162 17.6904 17.4371 17.4154 17.4371 17.0761C17.4371 16.7368 17.162 16.4618 16.8228 16.4618C16.4835 16.4618 16.2084 16.7368 16.2084 17.0761C16.2084 17.4154 16.4835 17.6904 16.8228 17.6904ZM6.99366 17.6904H14.3655C14.705 17.6904 14.9798 17.4156 14.9798 17.0761C14.9798 16.7366 14.705 16.4618 14.3655 16.4618H6.99366C6.65409 16.4618 6.37935 16.7366 6.37935 17.0761C6.37935 17.4156 6.65409 17.6904 6.99366 17.6904Z" fill="url(#paint0_linear_451_1472)" stroke="url(#paint1_linear_451_1472)" stroke-width="0.6"/>
</g>
<defs>
<linearGradient id="paint0_linear_451_1472" x1="10.5977" y1="16.0412" x2="11.9082" y2="5.74399" gradientUnits="userSpaceOnUse">
<stop stop-color="#9000FF"/>
<stop offset="1" stop-color="#FF81FF"/>
</linearGradient>
<linearGradient id="paint1_linear_451_1472" x1="10.5977" y1="16.0412" x2="11.9082" y2="5.74399" gradientUnits="userSpaceOnUse">
<stop stop-color="#9000FF"/>
<stop offset="1" stop-color="#FF81FF"/>
</linearGradient>
<clipPath id="clip0_451_1472">
<rect width="22" height="22" fill="white" transform="translate(0.908203)"/>
</clipPath>
</defs>
</svg>
