<svg width="23" height="22" viewBox="0 0 23 22" fill="none" xmlns="http://www.w3.org/2000/svg">
<path fill-rule="evenodd" clip-rule="evenodd" d="M1.6875 18.5531C1.6875 18.1681 2.00283 17.8564 2.39058 17.8564H21.1511C21.5388 17.8564 21.8542 18.1681 21.8542 18.5531C21.8542 18.9381 21.5388 19.2498 21.1511 19.2498H2.39058C2.205 19.2505 2.02671 19.1775 1.89489 19.0469C1.76306 18.9163 1.68847 18.7386 1.6875 18.5531Z" fill="url(#paint0_linear_451_1533)"/>
<path opacity="0.5" d="M4.15319 3.56583C3.3291 4.38167 3.3291 5.69617 3.3291 8.32333V12.9681C3.3291 14.7189 3.3291 15.5953 3.8791 16.1398C4.42819 16.6833 5.31277 16.6833 7.08102 16.6833H16.4613C18.2304 16.6833 19.1141 16.6833 19.6632 16.1388C20.2132 15.5953 20.2132 14.7189 20.2132 12.9672V8.32333C20.2132 5.69617 20.2132 4.38167 19.3882 3.56583C18.565 2.75 17.2386 2.75 14.5848 2.75H8.95652C6.30369 2.75 4.97819 2.75 4.15319 3.56583Z" fill="url(#paint1_linear_451_1533)"/>
<path d="M8.95602 13.1997C8.77043 13.199 8.59215 13.2719 8.46033 13.4026C8.32849 13.5332 8.2539 13.7108 8.25293 13.8964C8.25293 14.2814 8.56826 14.593 8.95693 14.593H14.5852C14.973 14.593 15.2883 14.2814 15.2883 13.8964C15.2883 13.5114 14.973 13.1997 14.5843 13.1997H8.95602Z" fill="url(#paint2_linear_451_1533)"/>
<defs>
<linearGradient id="paint0_linear_451_1533" x1="11.83" y1="19.5336" x2="11.83" y2="17.9895" gradientUnits="userSpaceOnUse">
<stop stop-color="#FDA700"/>
<stop offset="1" stop-color="#FFDE00"/>
</linearGradient>
<linearGradient id="paint1_linear_451_1533" x1="11.8207" y1="19.5217" x2="11.8207" y2="4.0809" gradientUnits="userSpaceOnUse">
<stop stop-color="#FDA700"/>
<stop offset="1" stop-color="#FFDE00"/>
</linearGradient>
<linearGradient id="paint2_linear_451_1533" x1="11.7913" y1="14.8768" x2="11.7913" y2="13.3328" gradientUnits="userSpaceOnUse">
<stop stop-color="#FDA700"/>
<stop offset="1" stop-color="#FFDE00"/>
</linearGradient>
</defs>
</svg>
