<svg width="23" height="22" viewBox="0 0 23 22" fill="none" xmlns="http://www.w3.org/2000/svg">
<path d="M4.74316 3.09375C4.07663 3.09375 3.54004 3.63034 3.54004 4.29688V15.125C3.54004 15.7915 4.07663 16.3281 4.74316 16.3281H2.33691V17.5312C2.33691 18.1978 3.4101 18.7344 4.74316 18.7344H19.1807C20.5137 18.7344 21.5869 18.1978 21.5869 17.5312V16.3281H19.1807C19.8472 16.3281 20.3838 15.7915 20.3838 15.125V4.29688C20.3838 3.63034 19.8472 3.09375 19.1807 3.09375H4.74316ZM5.94629 5.5H17.9775V15.125H5.94629V5.5ZM9.55566 16.3281H14.3682V17.5312H9.55566V16.3281Z" fill="url(#paint0_linear_451_1537)"/>
<defs>
<linearGradient id="paint0_linear_451_1537" x1="11.9619" y1="5.11866" x2="12.0399" y2="16.0125" gradientUnits="userSpaceOnUse">
<stop stop-color="#DE14FF"/>
<stop offset="1" stop-color="#7F00FF"/>
</linearGradient>
</defs>
</svg>
