<svg width="23" height="22" viewBox="0 0 23 22" fill="none" xmlns="http://www.w3.org/2000/svg">
<path fill-rule="evenodd" clip-rule="evenodd" d="M1.06934 18.5531C1.06934 18.1681 1.38467 17.8564 1.77242 17.8564H20.5329C20.9207 17.8564 21.236 18.1681 21.236 18.5531C21.236 18.9381 20.9207 19.2498 20.5329 19.2498H1.77242C1.58684 19.2505 1.40855 19.1775 1.27672 19.0469C1.1449 18.9163 1.07031 18.7386 1.06934 18.5531Z" fill="url(#paint0_linear_451_1539)"/>
<path opacity="0.5" d="M3.53502 3.56583C2.71094 4.38167 2.71094 5.69617 2.71094 8.32333V12.9681C2.71094 14.7189 2.71094 15.5953 3.26094 16.1398C3.81002 16.6833 4.6946 16.6833 6.46285 16.6833H15.8431C17.6123 16.6833 18.4959 16.6833 19.045 16.1388C19.595 15.5953 19.595 14.7189 19.595 12.9672V8.32333C19.595 5.69617 19.595 4.38167 18.77 3.56583C17.9468 2.75 16.6204 2.75 13.9667 2.75H8.33836C5.68552 2.75 4.36002 2.75 3.53502 3.56583Z" fill="url(#paint1_linear_451_1539)"/>
<path d="M8.33786 13.1997C8.15227 13.199 7.97399 13.2719 7.84216 13.4026C7.71033 13.5332 7.63574 13.7108 7.63477 13.8964C7.63477 14.2814 7.9501 14.593 8.33877 14.593H13.967C14.3548 14.593 14.6701 14.2814 14.6701 13.8964C14.6701 13.5114 14.3548 13.1997 13.9661 13.1997H8.33786Z" fill="url(#paint2_linear_451_1539)"/>
<defs>
<linearGradient id="paint0_linear_451_1539" x1="21.1762" y1="17.8652" x2="20.9846" y2="20.6166" gradientUnits="userSpaceOnUse">
<stop stop-color="#FE7970"/>
<stop offset="1" stop-color="#DC3282"/>
</linearGradient>
<linearGradient id="paint1_linear_451_1539" x1="19.545" y1="2.83833" x2="5.95145" y2="19.1735" gradientUnits="userSpaceOnUse">
<stop stop-color="#FE7970"/>
<stop offset="1" stop-color="#DC3282"/>
</linearGradient>
<linearGradient id="paint2_linear_451_1539" x1="14.6493" y1="13.2085" x2="14.1184" y2="15.8672" gradientUnits="userSpaceOnUse">
<stop stop-color="#FE7970"/>
<stop offset="1" stop-color="#DC3282"/>
</linearGradient>
</defs>
</svg>
