<svg width="23" height="22" viewBox="0 0 23 22" fill="none" xmlns="http://www.w3.org/2000/svg">
<path fill-rule="evenodd" clip-rule="evenodd" d="M1.26074 18.5531C1.26074 18.1681 1.57608 17.8564 1.96383 17.8564H20.7243C21.1121 17.8564 21.4274 18.1681 21.4274 18.5531C21.4274 18.9381 21.1121 19.2498 20.7243 19.2498H1.96383C1.77825 19.2505 1.59995 19.1775 1.46813 19.0469C1.3363 18.9163 1.26171 18.7386 1.26074 18.5531Z" fill="url(#paint0_linear_451_1543)"/>
<path opacity="0.5" d="M3.72643 3.56583C2.90234 4.38167 2.90234 5.69617 2.90234 8.32333V12.9681C2.90234 14.7189 2.90234 15.5953 3.45234 16.1398C4.00143 16.6833 4.88601 16.6833 6.65426 16.6833H16.0345C17.8037 16.6833 18.6873 16.6833 19.2364 16.1388C19.7864 15.5953 19.7864 14.7189 19.7864 12.9672V8.32333C19.7864 5.69617 19.7864 4.38167 18.9614 3.56583C18.1382 2.75 16.8118 2.75 14.1581 2.75H8.52976C5.87693 2.75 4.55143 2.75 3.72643 3.56583Z" fill="url(#paint1_linear_451_1543)"/>
<path d="M8.52926 13.1997C8.34368 13.199 8.16539 13.2719 8.03357 13.4026C7.90173 13.5332 7.82714 13.7108 7.82617 13.8964C7.82617 14.2814 8.1415 14.593 8.53017 14.593H14.1585C14.5462 14.593 14.8615 14.2814 14.8615 13.8964C14.8615 13.5114 14.5462 13.1997 14.1575 13.1997H8.52926Z" fill="url(#paint2_linear_451_1543)"/>
<defs>
<linearGradient id="paint0_linear_451_1543" x1="11.3441" y1="19.2498" x2="11.3441" y2="17.8564" gradientUnits="userSpaceOnUse">
<stop stop-color="#02AA93"/>
<stop offset="1" stop-color="#67FF80"/>
</linearGradient>
<linearGradient id="paint1_linear_451_1543" x1="11.3444" y1="16.6833" x2="11.3444" y2="2.75" gradientUnits="userSpaceOnUse">
<stop stop-color="#02AA93"/>
<stop offset="1" stop-color="#67FF80"/>
</linearGradient>
<linearGradient id="paint2_linear_451_1543" x1="11.3439" y1="14.593" x2="11.3439" y2="13.1997" gradientUnits="userSpaceOnUse">
<stop stop-color="#02AA93"/>
<stop offset="1" stop-color="#67FF80"/>
</linearGradient>
</defs>
</svg>
