<svg width="23" height="22" viewBox="0 0 23 22" fill="none" xmlns="http://www.w3.org/2000/svg">
<path d="M18.1876 12.0903V10.9624C18.1876 10.6509 17.935 10.3984 17.6235 10.3984H15.9316V4.19482C15.9316 2.63997 14.6667 1.375 13.1118 1.375H10.8559C9.3011 1.375 8.03613 2.63997 8.03613 4.19482V10.3984H6.34423C6.03278 10.3984 5.78027 10.6509 5.78027 10.9624V12.0903C5.78027 14.6984 7.75768 16.853 10.292 17.1345V19.4972H7.47218C7.1607 19.4972 6.9082 19.7496 6.9082 20.0611C6.9082 20.3725 7.1607 20.625 7.47218 20.625H16.4956C16.8071 20.625 17.0596 20.3725 17.0596 20.0611C17.0596 19.7496 16.8071 19.4972 16.4956 19.4972H13.6758V17.1345C16.2101 16.853 18.1876 14.6984 18.1876 12.0903ZM9.16406 4.19482C9.16406 3.26191 9.92305 2.50293 10.8559 2.50293H13.1118C14.0447 2.50293 14.8037 3.26191 14.8037 4.19482V10.3984H9.16406V4.19482ZM9.16406 11.5264H14.8037V12.0903C14.8037 13.0232 14.0447 13.7822 13.1118 13.7822H10.8559C9.92305 13.7822 9.16406 13.0232 9.16406 12.0903V11.5264ZM12.5479 19.4972H11.4199V17.166H12.5479V19.4972ZM13.1118 16.0381H10.8559C8.67917 16.0381 6.9082 14.2671 6.9082 12.0903V11.5264H8.03613V12.0903C8.03613 13.6452 9.3011 14.9102 10.8559 14.9102H13.1118C14.6667 14.9102 15.9316 13.6452 15.9316 12.0903V11.5264H17.0596V12.0903C17.0596 14.2671 15.2886 16.0381 13.1118 16.0381ZM10.8559 3.63086C10.5445 3.63086 10.292 3.88336 10.292 4.19482C10.292 4.50629 10.5445 4.75879 10.8559 4.75879C11.1674 4.75879 11.4199 4.50629 11.4199 4.19482C11.4199 3.88336 11.1674 3.63086 10.8559 3.63086ZM10.8559 8.14258C10.5445 8.14258 10.292 8.39508 10.292 8.70653C10.292 9.01801 10.5445 9.27051 10.8559 9.27051C11.1674 9.27051 11.4199 9.01801 11.4199 8.70653C11.4199 8.39508 11.1674 8.14258 10.8559 8.14258ZM10.8559 5.88672C10.5445 5.88672 10.292 6.13922 10.292 6.45068C10.292 6.76215 10.5445 7.01465 10.8559 7.01465C11.1674 7.01465 11.4199 6.76215 11.4199 6.45068C11.4199 6.13922 11.1674 5.88672 10.8559 5.88672ZM13.1118 3.63086C12.8004 3.63086 12.5479 3.88336 12.5479 4.19482C12.5479 4.50629 12.8004 4.75879 13.1118 4.75879C13.4233 4.75879 13.6758 4.50629 13.6758 4.19482C13.6758 3.88336 13.4233 3.63086 13.1118 3.63086ZM13.1118 5.88672C12.8004 5.88672 12.5479 6.13922 12.5479 6.45068C12.5479 6.76215 12.8004 7.01465 13.1118 7.01465C13.4233 7.01465 13.6758 6.76215 13.6758 6.45068C13.6758 6.13922 13.4233 5.88672 13.1118 5.88672ZM13.1118 8.14258C12.8004 8.14258 12.5479 8.39508 12.5479 8.70653C12.5479 9.01801 12.8004 9.27051 13.1118 9.27051C13.4233 9.27051 13.6758 9.01801 13.6758 8.70653C13.6758 8.39508 13.4233 8.14258 13.1118 8.14258Z" fill="url(#paint0_linear_451_1572)"/>
<defs>
<linearGradient id="paint0_linear_451_1572" x1="10.5068" y1="13.9219" x2="12.3115" y2="9.36719" gradientUnits="userSpaceOnUse">
<stop stop-color="#FD3D00"/>
<stop offset="1" stop-color="#FFE600"/>
</linearGradient>
</defs>
</svg>
