<svg width="23" height="22" viewBox="0 0 23 22" fill="none" xmlns="http://www.w3.org/2000/svg">
<path d="M20.2725 2.92188H2.52637C2.11103 2.92188 1.77441 3.25849 1.77441 3.67383V15.5046C1.77441 15.704 1.85357 15.8953 1.99457 16.0362L4.9523 18.9939C5.09329 19.135 5.28465 19.2142 5.4841 19.2142H17.3147C17.5141 19.2142 17.7057 19.135 17.8464 18.9939L20.8042 16.0362C20.9454 15.8953 21.0244 15.704 21.0244 15.5046V3.67383C21.0244 3.25849 20.6879 2.92188 20.2725 2.92188ZM19.5205 15.1931L17.0034 17.7103H5.79545L3.27832 15.1931V4.42577H19.5205V15.1931ZM6.43109 16.0362C6.57222 16.1773 6.76345 16.2566 6.96289 16.2566H15.8359C16.0354 16.2566 16.2266 16.1773 16.3677 16.0362L17.8464 14.5575C17.9876 14.4165 18.0666 14.2251 18.0666 14.0258V6.63155C18.0666 6.21621 17.7301 5.8796 17.3147 5.8796H5.4841C5.06876 5.8796 4.73214 6.21621 4.73214 6.63155V14.0258C4.73214 14.2251 4.81131 14.4165 4.9523 14.5575L6.43109 16.0362ZM6.23605 7.3835H16.5628V13.7143L15.5244 14.7527H7.2744L6.23605 13.7143V7.3835Z" fill="url(#paint0_linear_683_106)"/>
<defs>
<linearGradient id="paint0_linear_683_106" x1="11.3994" y1="19.2142" x2="11.3994" y2="2.92188" gradientUnits="userSpaceOnUse">
<stop stop-color="#EC396C"/>
<stop offset="1" stop-color="#FF709A"/>
</linearGradient>
</defs>
</svg>
