<svg width="16" height="16" viewBox="0 0 16 16" fill="none" xmlns="http://www.w3.org/2000/svg">
<path d="M6.50978 9.5334C6.53411 9.55091 6.56738 9.54122 6.58193 9.51501V9.51501V9.51501C6.56745 9.54125 6.5769 9.5746 6.60466 9.58591C6.73889 9.64061 6.89481 9.63061 7.02368 9.54988L10.2794 7.51502C10.4141 7.43079 10.4961 7.28304 10.4961 7.12403C10.4961 6.96502 10.4141 6.81727 10.2795 6.73304L7.02379 4.69825C7.0238 4.69825 7.02378 4.69824 7.02379 4.69825C6.88141 4.60861 6.70084 4.60447 6.55559 4.6856C6.40883 4.76708 6.31783 4.92156 6.31783 5.08915V9.15891C6.31783 9.3083 6.39013 9.44726 6.50978 9.5334ZM3.11628 11.2481H3.93023C4.12503 11.2481 4.28295 11.406 4.28295 11.6008V11.6008C4.28295 11.8557 4.48927 12.062 4.74419 12.062C4.99911 12.062 5.20543 11.8557 5.20543 11.6008V11.6008C5.20543 11.406 5.36334 11.2481 5.55814 11.2481H12.8837C13.1387 11.2481 13.345 11.0417 13.345 10.7868C13.345 10.5319 13.1387 10.3256 12.8837 10.3256H5.55814C5.36334 10.3256 5.20543 10.1677 5.20543 9.97287V9.97287C5.20543 9.71795 4.99911 9.51163 4.74419 9.51163C4.48927 9.51163 4.28295 9.71795 4.28295 9.97287V9.97287C4.28295 10.1677 4.12503 10.3256 3.93023 10.3256H3.11628C2.86136 10.3256 2.65504 10.5319 2.65504 10.7868C2.65504 11.0417 2.86136 11.2481 3.11628 11.2481ZM7.85229 7.94413C7.58587 8.11061 7.24031 7.91908 7.24031 7.60491V6.64315C7.24031 6.32899 7.58587 6.13745 7.85229 6.30394L8.62181 6.78482C8.87251 6.94148 8.87251 7.30658 8.62181 7.46324L7.85229 7.94413ZM14.5388 3H1.46124C1.20632 3 1 3.20632 1 3.46124V13.2287C1 13.4836 1.20632 13.6899 1.46124 13.6899H14.5388C14.7937 13.6899 15 13.4836 15 13.2287V3.46124C15 3.20632 14.7937 3 14.5388 3ZM14.0775 12.3674C14.0775 12.5884 13.8984 12.7674 13.6775 12.7674H2.32248C2.10157 12.7674 1.92248 12.5884 1.92248 12.3674V4.32248C1.92248 4.10157 2.10157 3.92248 2.32248 3.92248H13.6775C13.8984 3.92248 14.0775 4.10157 14.0775 4.32248V12.3674Z" fill="url(#paint0_linear_448_591)"/>
<path d="M7.02379 4.69825L10.2795 6.73304C10.4141 6.81727 10.4961 6.96502 10.4961 7.12403C10.4961 7.28304 10.4141 7.43079 10.2794 7.51502L7.02368 9.54988C6.89481 9.63061 6.73889 9.64061 6.60466 9.58591C6.5769 9.5746 6.56745 9.54125 6.58193 9.51501V9.51501V9.51501C6.56738 9.54122 6.53411 9.55091 6.50978 9.5334C6.39013 9.44726 6.31783 9.3083 6.31783 9.15891V5.08915C6.31783 4.92156 6.40883 4.76708 6.55559 4.6856C6.70084 4.60447 6.88141 4.60861 7.02379 4.69825ZM7.02379 4.69825C7.02378 4.69824 7.0238 4.69825 7.02379 4.69825ZM3.11628 11.2481H3.93023C4.12503 11.2481 4.28295 11.406 4.28295 11.6008V11.6008C4.28295 11.8557 4.48927 12.062 4.74419 12.062C4.99911 12.062 5.20543 11.8557 5.20543 11.6008V11.6008C5.20543 11.406 5.36334 11.2481 5.55814 11.2481H12.8837C13.1387 11.2481 13.345 11.0417 13.345 10.7868C13.345 10.5319 13.1387 10.3256 12.8837 10.3256H5.55814C5.36334 10.3256 5.20543 10.1677 5.20543 9.97287V9.97287C5.20543 9.71795 4.99911 9.51163 4.74419 9.51163C4.48927 9.51163 4.28295 9.71795 4.28295 9.97287V9.97287C4.28295 10.1677 4.12503 10.3256 3.93023 10.3256H3.11628C2.86136 10.3256 2.65504 10.5319 2.65504 10.7868C2.65504 11.0417 2.86136 11.2481 3.11628 11.2481ZM14.5388 3H1.46124C1.20632 3 1 3.20632 1 3.46124V13.2287C1 13.4836 1.20632 13.6899 1.46124 13.6899H14.5388C14.7937 13.6899 15 13.4836 15 13.2287V3.46124C15 3.20632 14.7937 3 14.5388 3ZM13.6775 3.92248H2.32248C2.10157 3.92248 1.92248 4.10157 1.92248 4.32248V12.3674C1.92248 12.5884 2.10157 12.7674 2.32248 12.7674H13.6775C13.8984 12.7674 14.0775 12.5884 14.0775 12.3674V4.32248C14.0775 4.10157 13.8984 3.92248 13.6775 3.92248ZM8.62181 6.78482L7.85229 6.30394C7.58587 6.13745 7.24031 6.32899 7.24031 6.64315V7.60491C7.24031 7.91908 7.58587 8.11061 7.85229 7.94413L8.62181 7.46324C8.87251 7.30658 8.87251 6.94148 8.62181 6.78482Z" stroke="url(#paint1_linear_448_591)" stroke-width="0.6"/>
<defs>
<linearGradient id="paint0_linear_448_591" x1="8" y1="13.6357" x2="8" y2="3.05426" gradientUnits="userSpaceOnUse">
<stop stop-color="#FD5900"/>
<stop offset="1" stop-color="#FFDE00"/>
</linearGradient>
<linearGradient id="paint1_linear_448_591" x1="8" y1="13.6357" x2="8" y2="3.05426" gradientUnits="userSpaceOnUse">
<stop stop-color="#FD5900"/>
<stop offset="1" stop-color="#FFDE00"/>
</linearGradient>
</defs>
</svg>
