<svg width="16" height="16" viewBox="0 0 16 16" fill="none" xmlns="http://www.w3.org/2000/svg">
<path fill-rule="evenodd" clip-rule="evenodd" d="M4.40658 5.6328C4.4999 5.6328 4.59325 5.6328 4.68657 5.58612V5.30612C4.68657 5.0728 4.68658 4.83945 4.73325 4.6528C4.6399 4.69945 4.4999 4.69945 4.40658 4.69945C3.7999 4.69945 3.28655 4.18612 3.28655 3.57947C3.28655 2.9728 3.7999 2.45947 4.40658 2.45947C4.87325 2.45947 5.29325 2.73947 5.4799 3.15947C5.66657 2.92615 5.94658 2.6928 6.1799 2.50615C5.57325 1.52614 4.31325 1.19947 3.33323 1.80614C2.35322 2.41281 2.02656 3.6728 2.63322 4.6528C3.00655 5.25945 3.6599 5.6328 4.40658 5.6328ZM10.52 3.15955C10.7533 2.59955 11.4067 2.31954 12.0133 2.55287C12.5733 2.7862 12.8533 3.43955 12.62 4.0462C12.4333 4.46617 12.0133 4.74617 11.5933 4.74617C11.5 4.74617 11.36 4.74617 11.2667 4.69952C11.3133 4.93285 11.3133 5.16617 11.3133 5.35285V5.63285C11.36 5.63285 11.4067 5.64453 11.4533 5.65618C11.5 5.66785 11.5467 5.67952 11.5933 5.67952C12.76 5.67952 13.6933 4.74617 13.6933 3.6262C13.6933 2.45954 12.76 1.5262 11.64 1.5262C10.8933 1.5262 10.24 1.89954 9.86668 2.55287C10.1 2.69287 10.3333 2.87955 10.52 3.15955ZM10.1933 5.30612C10.1933 6.56612 9.21332 7.5928 7.95332 7.5928C6.69332 7.5928 5.66668 6.56612 5.66668 5.30612C5.66668 4.09277 6.64667 3.06612 7.90667 3.06612C9.16667 3.06612 10.1933 4.04612 10.1933 5.30612ZM9.26 5.3528C9.26 4.60612 8.65332 3.99945 7.90667 3.99945C7.20667 3.99945 6.6 4.60612 6.6 5.3528C6.6 6.0528 7.16 6.65945 7.90667 6.65945C8.65332 6.65945 9.26 6.09945 9.26 5.3528ZM11.5933 6.14603C12.8067 6.09935 13.9733 6.51935 14.86 7.3127L15 7.4527V11.186H14.0667V7.82603C13.3667 7.3127 12.48 7.0327 11.5933 7.07935C11.3133 7.07935 11.08 7.07935 10.8 7.12603C10.9867 6.84603 11.1267 6.51935 11.22 6.14603H11.5933ZM4.78 6.19275C4.87333 6.56607 5.01332 6.89275 5.2 7.17275C4.96667 7.12607 4.68667 7.0794 4.40667 7.0794C3.52 7.03275 2.68 7.31275 1.93333 7.82608V11.1861H1V7.45275L1.14 7.31275C2.02667 6.56607 3.19332 6.14607 4.40667 6.19275H4.78ZM11.6867 9.97275L11.78 10.1128H11.8267V13.6594C11.8267 14.0794 11.4533 14.4528 11.0333 14.4528H5.06C4.59332 14.4528 4.26667 14.0794 4.26667 13.6594V10.1128L4.36 9.97275C5.29333 8.94607 6.64667 8.3394 8.04667 8.38608C9.44667 8.3394 10.7533 8.94607 11.6867 9.97275ZM5.2 13.5194H10.8467V10.4394C10.1 9.69275 9.07332 9.27275 8.04667 9.3194C6.97332 9.3194 5.94667 9.69275 5.2 10.4394V13.5194Z" fill="url(#paint0_linear_448_468)"/>
<path d="M4.68657 5.58625L4.74248 5.69805L4.81157 5.6635V5.58625H4.68657ZM4.73325 4.65292L4.8545 4.68322L4.92042 4.41957L4.67732 4.5411L4.73325 4.65292ZM5.4799 3.1596L5.36567 3.21037L5.44915 3.39815L5.57753 3.23767L5.4799 3.1596ZM6.1799 2.50627L6.258 2.60387L6.3445 2.53467L6.2862 2.44047L6.1799 2.50627ZM2.63322 4.65292L2.73968 4.5874L2.7395 4.58712L2.63322 4.65292ZM12.0133 2.553L12.0614 2.43756L12.0582 2.43632L12.0133 2.553ZM10.52 3.15967L10.416 3.229L10.5456 3.42335L10.6354 3.20775L10.52 3.15967ZM12.62 4.04632L12.7342 4.0971L12.7355 4.09417L12.7367 4.0912L12.62 4.04632ZM11.2667 4.69965L11.3226 4.58782L11.094 4.47355L11.1441 4.72415L11.2667 4.69965ZM11.3133 5.63297H11.1883V5.75797H11.3133V5.63297ZM9.86668 2.553L9.75813 2.49098L9.69742 2.59722L9.80235 2.66017L9.86668 2.553ZM14.86 7.31282L14.9484 7.22442L14.9459 7.22197L14.9433 7.21965L14.86 7.31282ZM11.5933 6.14615V6.27115H11.5957L11.5982 6.27105L11.5933 6.14615ZM15 7.45282H15.125V7.40105L15.0884 7.36442L15 7.45282ZM15 11.1861V11.3111H15.125V11.1861H15ZM14.0667 11.1861H13.9417V11.3111H14.0667V11.1861ZM14.0667 7.82615H14.1917V7.7628L14.1406 7.72535L14.0667 7.82615ZM11.5933 7.07947V7.20447H11.5966L11.5999 7.2043L11.5933 7.07947ZM10.8 7.12615L10.696 7.0568L10.5359 7.29687L10.8205 7.24945L10.8 7.12615ZM11.22 6.14615V6.02115H11.1224L11.0987 6.11582L11.22 6.14615ZM5.2 7.17287L5.17548 7.29545L5.4714 7.35462L5.304 7.10352L5.2 7.17287ZM4.78 6.19287L4.90128 6.16255L4.8776 6.06787H4.78V6.19287ZM4.40667 7.07952L4.4001 7.20435L4.40338 7.20452H4.40667V7.07952ZM1.93333 7.8262L1.86252 7.7232L1.80833 7.76045V7.8262H1.93333ZM1.93333 11.1862V11.3112H2.05833V11.1862H1.93333ZM1 11.1862H0.875V11.3112H1V11.1862ZM1 7.45287L0.911613 7.36447L0.875 7.4011V7.45287H1ZM1.14 7.31287L1.05948 7.21725L1.05539 7.2207L1.05161 7.22447L1.14 7.31287ZM4.40667 6.19287L4.40185 6.31777L4.40427 6.31787H4.40667V6.19287ZM11.78 10.1129L11.676 10.1822L11.7131 10.2379H11.78V10.1129ZM11.6867 9.97287L11.7907 9.90352L11.7855 9.89572L11.7792 9.88877L11.6867 9.97287ZM11.8267 10.1129H11.9517V9.98787H11.8267V10.1129ZM4.26667 10.1129L4.16265 10.0435L4.14167 10.075V10.1129H4.26667ZM4.36 9.97287L4.2675 9.88877L4.2612 9.89572L4.256 9.90352L4.36 9.97287ZM8.04667 8.3862L8.0425 8.51112L8.04667 8.51127L8.05083 8.51112L8.04667 8.3862ZM10.8467 13.5195V13.6445H10.9717V13.5195H10.8467ZM5.2 13.5195H5.075V13.6445H5.2V13.5195ZM10.8467 10.4395H10.9717V10.3877L10.9351 10.3511L10.8467 10.4395ZM8.04667 9.31952V9.44452H8.0495L8.05235 9.4444L8.04667 9.31952ZM5.2 10.4395L5.1116 10.3511L5.075 10.3877V10.4395H5.2ZM4.63067 5.47445C4.56737 5.5061 4.50305 5.50792 4.40658 5.50792V5.75792C4.49675 5.75792 4.6191 5.75975 4.74248 5.69805L4.63067 5.47445ZM4.56157 5.30625V5.58625H4.81157V5.30625H4.56157ZM4.61198 4.6226C4.5608 4.82732 4.56157 5.07775 4.56157 5.30625H4.81157C4.81157 5.06807 4.81235 4.85182 4.8545 4.68322L4.61198 4.6226ZM4.40658 4.82457C4.45255 4.82457 4.5169 4.82467 4.58235 4.81812C4.64642 4.81172 4.72243 4.79807 4.78915 4.76472L4.67732 4.5411C4.65072 4.55442 4.61005 4.5641 4.55748 4.56937C4.50625 4.5745 4.45393 4.57457 4.40658 4.57457V4.82457ZM3.16155 3.5796C3.16155 4.25527 3.73085 4.82457 4.40658 4.82457V4.57457C3.86893 4.57457 3.41155 4.1172 3.41155 3.5796H3.16155ZM4.40658 2.3346C3.73085 2.3346 3.16155 2.9039 3.16155 3.5796H3.41155C3.41155 3.04197 3.86893 2.5846 4.40658 2.5846V2.3346ZM5.59412 3.10882C5.38777 2.6445 4.92353 2.3346 4.40658 2.3346V2.5846C4.82295 2.5846 5.19872 2.8347 5.36567 3.21037L5.59412 3.10882ZM6.10183 2.40865C5.86928 2.59467 5.57877 2.8359 5.3823 3.08152L5.57753 3.23767C5.75435 3.01662 6.02385 2.79117 6.258 2.60387L6.10183 2.40865ZM3.39902 1.91255C4.31757 1.34393 5.50155 1.64795 6.07363 2.57205L6.2862 2.44047C5.64493 1.40457 4.3089 1.05527 3.26743 1.69998L3.39902 1.91255ZM2.7395 4.58712C2.17089 3.6686 2.47491 2.48461 3.39902 1.91255L3.26743 1.69998C2.23154 2.34125 1.88223 3.67727 2.52695 4.7187L2.7395 4.58712ZM4.40658 5.50792C3.70315 5.50792 3.09018 5.15697 2.73968 4.5874L2.52677 4.71842C2.92292 5.3622 3.61665 5.75792 4.40658 5.75792V5.50792ZM12.0582 2.43632C11.3911 2.17976 10.6651 2.48639 10.4046 3.11157L10.6354 3.20775C10.8416 2.71292 11.4222 2.45956 11.9684 2.66967L12.0582 2.43632ZM12.7367 4.0912C12.9932 3.42412 12.6866 2.69805 12.0614 2.43756L11.9653 2.66837C12.4601 2.87455 12.7134 3.4552 12.5033 4.00145L12.7367 4.0912ZM11.5933 4.8713C12.0665 4.8713 12.5291 4.5587 12.7342 4.0971L12.5058 3.99555C12.3376 4.37392 11.9602 4.6213 11.5933 4.6213V4.8713ZM11.2108 4.81145C11.2775 4.8448 11.3535 4.85845 11.4176 4.86485C11.483 4.8714 11.5474 4.8713 11.5933 4.8713V4.6213C11.546 4.6213 11.4936 4.62122 11.4424 4.6161C11.3898 4.61082 11.3492 4.60115 11.3226 4.58782L11.2108 4.81145ZM11.4383 5.35297C11.4383 5.1676 11.4387 4.92232 11.3892 4.67512L11.1441 4.72415C11.188 4.9436 11.1883 5.16502 11.1883 5.35297H11.4383ZM11.4383 5.63297V5.35297H11.1883V5.63297H11.4383ZM11.4837 5.53505C11.4399 5.5241 11.3781 5.50797 11.3133 5.50797V5.75797C11.3419 5.75797 11.3734 5.76517 11.423 5.77757L11.4837 5.53505ZM11.5933 5.55465C11.5647 5.55465 11.5333 5.54745 11.4837 5.53505L11.423 5.77757C11.4668 5.7885 11.5286 5.80465 11.5933 5.80465V5.55465ZM13.5683 3.62632C13.5683 4.67545 12.6928 5.55465 11.5933 5.55465V5.80465C12.8272 5.80465 13.8183 4.81717 13.8183 3.62632H13.5683ZM11.64 1.65133C12.6892 1.65133 13.5683 2.52687 13.5683 3.62632H13.8183C13.8183 2.39246 12.8309 1.40133 11.64 1.40133V1.65133ZM9.9752 2.61502C10.326 2.00105 10.9377 1.65133 11.64 1.65133V1.40133C10.849 1.40133 10.154 1.79827 9.75813 2.49098L9.9752 2.61502ZM10.624 3.09032C10.4243 2.79075 10.1752 2.59235 9.93097 2.44581L9.80235 2.66017C10.0248 2.79365 10.2424 2.9686 10.416 3.229L10.624 3.09032ZM7.95332 7.71792C9.2857 7.71792 10.3183 6.6319 10.3183 5.30625H10.0683C10.0683 6.5006 9.14095 7.46792 7.95332 7.46792V7.71792ZM5.54168 5.30625C5.54168 6.63527 6.6243 7.71792 7.95332 7.71792V7.46792C6.76237 7.46792 5.79168 6.4972 5.79168 5.30625H5.54168ZM7.90667 2.94125C6.57595 2.94125 5.54168 4.02557 5.54168 5.30625H5.79168C5.79168 4.16025 6.7174 3.19125 7.90667 3.19125V2.94125ZM10.3183 5.30625C10.3183 3.97385 9.2323 2.94125 7.90667 2.94125V3.19125C9.10102 3.19125 10.0683 4.11862 10.0683 5.30625H10.3183ZM7.90667 4.12457C8.5843 4.12457 9.135 4.67527 9.135 5.35292H9.385C9.385 4.53722 8.72237 3.87457 7.90667 3.87457V4.12457ZM6.725 5.35292C6.725 4.67242 7.27852 4.12457 7.90667 4.12457V3.87457C7.1348 3.87457 6.475 4.54007 6.475 5.35292H6.725ZM7.90667 6.53457C7.23192 6.53457 6.725 5.9868 6.725 5.35292H6.475C6.475 6.11902 7.08807 6.78457 7.90667 6.78457V6.53457ZM9.135 5.35292C9.135 6.02487 8.59012 6.53457 7.90667 6.53457V6.78457C8.71655 6.78457 9.385 6.1743 9.385 5.35292H9.135ZM14.9433 7.21965C14.0322 6.40447 12.8339 5.97335 11.5885 6.02125L11.5982 6.27105C12.7795 6.22562 13.9144 6.6345 14.7767 7.40597L14.9433 7.21965ZM15.0884 7.36442L14.9484 7.22442L14.7716 7.4012L14.9116 7.5412L15.0884 7.36442ZM15.125 11.1861V7.45282H14.875V11.1861H15.125ZM14.0667 11.3111H15V11.0611H14.0667V11.3111ZM13.9417 7.82615V11.1861H14.1917V7.82615H13.9417ZM11.5999 7.2043C12.4567 7.15922 13.3151 7.43 13.9928 7.92695L14.1406 7.72535C13.4183 7.19565 12.5033 6.90642 11.5868 6.95465L11.5999 7.2043ZM10.8205 7.24945C11.089 7.2047 11.3126 7.20447 11.5933 7.20447V6.95447C11.314 6.95447 11.071 6.95425 10.7795 7.00285L10.8205 7.24945ZM11.0987 6.11582C11.0084 6.47722 10.8737 6.7903 10.696 7.0568L10.904 7.19547C11.0997 6.902 11.245 6.56172 11.3413 6.17647L11.0987 6.11582ZM11.5933 6.02115H11.22V6.27115H11.5933V6.02115ZM5.304 7.10352C5.12635 6.83702 4.99163 6.52395 4.90128 6.16255L4.65872 6.22317C4.75505 6.60845 4.90033 6.9487 5.096 7.2422L5.304 7.10352ZM4.40667 7.20452C4.67405 7.20452 4.94433 7.2492 5.17548 7.29545L5.22452 7.0503C4.989 7.0032 4.69927 6.95452 4.40667 6.95452V7.20452ZM2.00415 7.9292C2.73197 7.42882 3.54525 7.15937 4.4001 7.20435L4.41323 6.9547C3.49475 6.90637 2.62802 7.19692 1.86252 7.7232L2.00415 7.9292ZM2.05833 11.1862V7.8262H1.80833V11.1862H2.05833ZM1 11.3112H1.93333V11.0612H1V11.3112ZM0.875 7.45287V11.1862H1.125V7.45287H0.875ZM1.05161 7.22447L0.911613 7.36447L1.08839 7.54125L1.22839 7.40125L1.05161 7.22447ZM4.41148 6.06795C3.1664 6.02007 1.96946 6.45095 1.05948 7.21725L1.22052 7.40847C2.08388 6.68145 3.22028 6.27232 4.40185 6.31777L4.41148 6.06795ZM4.78 6.06787H4.40667V6.31787H4.78V6.06787ZM11.884 10.0435L11.7907 9.90352L11.5827 10.0422L11.676 10.1822L11.884 10.0435ZM11.8267 9.98787H11.78V10.2379H11.8267V9.98787ZM11.9517 13.6595V10.1129H11.7017V13.6595H11.9517ZM11.0333 14.5779C11.5224 14.5779 11.9517 14.1486 11.9517 13.6595H11.7017C11.7017 14.0105 11.3843 14.3279 11.0333 14.3279V14.5779ZM5.06 14.5779H11.0333V14.3279H5.06V14.5779ZM4.14167 13.6595C4.14167 14.1437 4.51952 14.5779 5.06 14.5779V14.3279C4.66712 14.3279 4.39167 14.0153 4.39167 13.6595H4.14167ZM4.14167 10.1129V13.6595H4.39167V10.1129H4.14167ZM4.256 9.90352L4.16265 10.0435L4.37068 10.1822L4.464 10.0422L4.256 9.90352ZM8.05083 8.26127C6.61225 8.21332 5.22417 8.83645 4.2675 9.88877L4.4525 10.0569C5.36247 9.05595 6.68107 8.46575 8.0425 8.51112L8.05083 8.26127ZM11.7792 9.88877C10.8234 8.8374 9.4823 8.21327 8.0425 8.26127L8.05083 8.51112C9.41103 8.46577 10.6833 9.055 11.5942 10.0569L11.7792 9.88877ZM10.8467 13.3945H5.2V13.6445H10.8467V13.3945ZM10.7217 10.4395V13.5195H10.9717V10.4395H10.7217ZM8.05235 9.4444C9.04165 9.39942 10.0348 9.80445 10.7583 10.5279L10.9351 10.3511C10.1652 9.58127 9.105 9.1463 8.041 9.19465L8.05235 9.4444ZM5.2884 10.5279C6.00855 9.80775 7.0019 9.44452 8.04667 9.44452V9.19452C6.94477 9.19452 5.88477 9.57797 5.1116 10.3511L5.2884 10.5279ZM5.325 13.5195V10.4395H5.075V13.5195H5.325Z" fill="url(#paint1_linear_448_468)"/>
<defs>
<linearGradient id="paint0_linear_448_468" x1="4.80665" y1="11.4182" x2="10.9012" y2="10.5792" gradientUnits="userSpaceOnUse">
<stop stop-color="#8D01A2"/>
<stop offset="1" stop-color="#FF00D2"/>
</linearGradient>
<linearGradient id="paint1_linear_448_468" x1="4.80665" y1="11.4183" x2="10.9012" y2="10.5793" gradientUnits="userSpaceOnUse">
<stop stop-color="#8D01A2"/>
<stop offset="1" stop-color="#FF00D2"/>
</linearGradient>
</defs>
</svg>
