<svg width="16" height="16" viewBox="0 0 16 16" fill="none" xmlns="http://www.w3.org/2000/svg">
<path d="M9.23048 11.4337C9.23055 11.6598 9.41453 11.8438 9.64062 11.8438C9.86679 11.8438 10.0508 11.6598 10.0508 11.4336C10.0508 11.2074 9.86679 11.0234 9.64062 11.0234C9.41449 11.0234 9.23055 11.2073 9.23048 11.4335V11.4337ZM14.9712 12.3587L14.1065 8.45909C13.8596 7.09245 12.6729 6.10156 11.2812 6.10156C10.8265 6.10156 10.3913 6.20492 9.98791 6.40877C9.64282 6.58315 9.29906 6.7133 8.95909 6.79885C8.67019 6.87154 8.41015 6.63809 8.41015 6.34018V5.6914C8.41015 5.46525 8.59415 5.28125 8.82031 5.28125H10.4609C11.1394 5.28125 11.6914 4.72926 11.6914 4.05078C11.6914 3.3723 11.1394 2.82031 10.4609 2.82031H5.53906C5.3129 2.82031 5.1289 2.63631 5.1289 2.41015C5.1289 2.18364 4.94526 2 4.71875 2C4.49224 2 4.3086 2.18364 4.3086 2.41015C4.3086 3.08864 4.86059 3.64062 5.53906 3.64062H10.4609C10.6871 3.64062 10.8711 3.82463 10.8711 4.05078C10.8711 4.27694 10.6871 4.46094 10.4609 4.46094H8.82031C8.14184 4.46094 7.58985 5.01293 7.58985 5.6914V6.34015C7.58985 6.63806 7.32981 6.87151 7.0409 6.79882C6.70091 6.71327 6.35713 6.58311 6.012 6.40871C5.6086 6.20492 5.17347 6.10156 4.71875 6.10156C3.32715 6.10156 2.14043 7.09245 1.89354 8.45909L1.02871 12.3587C1.01531 12.4189 1 12.5426 1 12.664C1 13.5687 1.73599 14.3048 2.64062 14.3048C3.31794 14.3048 3.44463 14.1583 5.1654 12.6284C5.35973 12.4556 5.65279 12.4732 5.89326 12.5722C6.03707 12.6314 6.19445 12.664 6.35938 12.664C6.76849 12.664 7.13146 12.4633 7.35525 12.1552C7.47966 11.9839 7.66078 11.8438 7.87248 11.8438H8.12755C8.33925 11.8438 8.52036 11.9839 8.64478 12.1552C8.86856 12.4633 9.23155 12.664 9.64065 12.664C9.80557 12.664 9.96296 12.6314 10.1068 12.5722C10.3472 12.4732 10.6403 12.4556 10.8346 12.6284C12.5548 14.158 12.6796 14.3048 13.3594 14.3048C14.264 14.3048 15 13.5687 15 12.664C15 12.5478 14.9855 12.4223 14.9712 12.3587ZM6.76953 11.4337C6.76945 11.6598 6.58551 11.8438 6.35938 11.8438C6.13321 11.8438 5.94922 11.6598 5.94922 11.4336C5.94922 11.2074 6.13321 11.0234 6.35938 11.0234C6.58547 11.0234 6.76945 11.2074 6.76953 11.4335V11.4337ZM13.3594 13.4844C12.9849 13.4844 13.0264 13.4707 10.9604 11.6434C10.9013 11.5912 10.8711 11.5124 10.8711 11.4336C10.8711 10.7551 10.3191 10.2031 9.64062 10.2031C9.23151 10.2031 8.86852 10.4039 8.64475 10.712C8.52034 10.8833 8.33923 11.0234 8.12753 11.0234H7.87248C7.66078 11.0234 7.47966 10.8833 7.35525 10.712C7.13147 10.4039 6.76849 10.2031 6.35938 10.2031C5.6809 10.2031 5.1289 10.7551 5.1289 11.4336C5.1289 11.5124 5.09867 11.5912 5.03966 11.6434C2.98361 13.4618 3.01612 13.4844 2.64062 13.4844C2.1883 13.4844 1.82031 13.1164 1.82031 12.664C1.82031 12.6224 1.82344 12.5807 1.8296 12.5399C1.83091 12.5312 1.8325 12.5231 1.83439 12.5146C1.88754 12.2749 2.69866 8.61686 2.69964 8.61131C2.8734 7.63238 3.72256 6.92188 4.71875 6.92188C5.04379 6.92188 5.35444 6.99556 5.64206 7.1409C6.4317 7.5399 7.22502 7.74219 8 7.74219C8.77501 7.74219 9.56832 7.5399 10.3579 7.14092C10.6455 6.99556 10.9562 6.92188 11.2812 6.92188C12.2774 6.92188 13.1266 7.63238 13.3004 8.61134C13.3014 8.61705 13.3025 8.62276 13.3038 8.62845L14.1684 12.527C14.1759 12.5719 14.1798 12.618 14.1798 12.664C14.1798 13.1164 13.8117 13.4844 13.3594 13.4844ZM5.53906 8.5625C5.31254 8.5625 5.1289 8.37888 5.1289 8.15235C5.1289 7.92583 4.94526 7.74219 4.71875 7.74219C4.49224 7.74219 4.3086 7.92583 4.3086 8.15235C4.3086 8.37888 4.12496 8.5625 3.89844 8.5625C3.67192 8.5625 3.48828 8.74614 3.48828 8.97265C3.48828 9.19917 3.67192 9.38281 3.89844 9.38281C4.12496 9.38281 4.3086 9.56645 4.3086 9.79298C4.3086 10.0195 4.49224 10.2031 4.71875 10.2031C4.94526 10.2031 5.1289 10.0195 5.1289 9.79298C5.1289 9.56645 5.31254 9.38281 5.53906 9.38281C5.76558 9.38281 5.94922 9.19917 5.94922 8.97265C5.94922 8.74614 5.76558 8.5625 5.53906 8.5625ZM12.1016 8.5625C11.875 8.5625 11.6914 8.37888 11.6914 8.15235C11.6914 7.92583 11.5078 7.74219 11.2812 7.74219C11.0547 7.74219 10.8711 7.92583 10.8711 8.15235C10.8711 8.37888 10.6875 8.5625 10.4609 8.5625C10.2344 8.5625 10.0508 8.74614 10.0508 8.97265C10.0508 9.19917 10.2344 9.38281 10.4609 9.38281C10.6875 9.38281 10.8711 9.56645 10.8711 9.79298C10.8711 10.0195 11.0547 10.2031 11.2812 10.2031C11.5078 10.2031 11.6914 10.0195 11.6914 9.79298C11.6914 9.56645 11.875 9.38281 12.1016 9.38281C12.3281 9.38281 12.5118 9.19917 12.5118 8.97265C12.5118 8.74614 12.3281 8.5625 12.1016 8.5625ZM7.17969 8.5625C6.95317 8.5625 6.76953 8.74614 6.76953 8.97265C6.76953 9.19917 6.95317 9.38281 7.17969 9.38281C7.4062 9.38281 7.58985 9.19917 7.58985 8.97265C7.58985 8.74614 7.4062 8.5625 7.17969 8.5625ZM8.82031 8.5625C8.5938 8.5625 8.41015 8.74614 8.41015 8.97265C8.41015 9.19917 8.5938 9.38281 8.82031 9.38281C9.04683 9.38281 9.23048 9.19917 9.23048 8.97265C9.23048 8.74614 9.04683 8.5625 8.82031 8.5625Z" fill="url(#paint0_linear_448_498)" stroke="url(#paint1_linear_448_498)" stroke-width="0.4"/>
<defs>
<linearGradient id="paint0_linear_448_498" x1="7.99999" y1="14.3048" x2="7.99999" y2="2" gradientUnits="userSpaceOnUse">
<stop stop-color="#9000FF"/>
<stop offset="1" stop-color="#FF07FF"/>
</linearGradient>
<linearGradient id="paint1_linear_448_498" x1="7.99999" y1="14.3048" x2="7.99999" y2="2" gradientUnits="userSpaceOnUse">
<stop stop-color="#9000FF"/>
<stop offset="1" stop-color="#FF07FF"/>
</linearGradient>
</defs>
</svg>
