<svg width="16" height="16" viewBox="0 0 16 16" fill="none" xmlns="http://www.w3.org/2000/svg">
<path d="M9.23048 11.3087C9.23055 11.5348 9.41453 11.7188 9.64062 11.7188C9.86679 11.7188 10.0508 11.5348 10.0508 11.3086C10.0508 11.0824 9.86679 10.8984 9.64062 10.8984C9.41449 10.8984 9.23055 11.0823 9.23048 11.3085V11.3087ZM14.9712 12.2337L14.1065 8.33409C13.8596 6.96745 12.6729 5.97656 11.2812 5.97656C10.8265 5.97656 10.3913 6.07992 9.98791 6.28377C9.64282 6.45815 9.29906 6.5883 8.95909 6.67385C8.67019 6.74654 8.41015 6.51309 8.41015 6.21518V5.5664C8.41015 5.34025 8.59415 5.15625 8.82031 5.15625H10.4609C11.1394 5.15625 11.6914 4.60426 11.6914 3.92578C11.6914 3.2473 11.1394 2.69531 10.4609 2.69531H5.53906C5.3129 2.69531 5.1289 2.51131 5.1289 2.28515C5.1289 2.05864 4.94526 1.875 4.71875 1.875C4.49224 1.875 4.3086 2.05864 4.3086 2.28515C4.3086 2.96364 4.86059 3.51562 5.53906 3.51562H10.4609C10.6871 3.51562 10.8711 3.69963 10.8711 3.92578C10.8711 4.15194 10.6871 4.33594 10.4609 4.33594H8.82031C8.14184 4.33594 7.58985 4.88793 7.58985 5.5664V6.21515C7.58985 6.51306 7.32981 6.74651 7.0409 6.67382C6.70091 6.58827 6.35713 6.45811 6.012 6.28371C5.6086 6.07992 5.17347 5.97656 4.71875 5.97656C3.32715 5.97656 2.14043 6.96745 1.89354 8.33409L1.02871 12.2337C1.01531 12.2939 1 12.4176 1 12.539C1 13.4437 1.73599 14.1798 2.64062 14.1798C3.31794 14.1798 3.44463 14.0333 5.1654 12.5034C5.35973 12.3306 5.65279 12.3482 5.89326 12.4472C6.03707 12.5064 6.19445 12.539 6.35938 12.539C6.76849 12.539 7.13146 12.3383 7.35525 12.0302C7.47966 11.8589 7.66078 11.7188 7.87248 11.7188H8.12755C8.33925 11.7188 8.52036 11.8589 8.64478 12.0302C8.86856 12.3383 9.23155 12.539 9.64065 12.539C9.80557 12.539 9.96296 12.5064 10.1068 12.4472C10.3472 12.3482 10.6403 12.3306 10.8346 12.5034C12.5548 14.033 12.6796 14.1798 13.3594 14.1798C14.264 14.1798 15 13.4437 15 12.539C15 12.4228 14.9855 12.2973 14.9712 12.2337ZM6.76953 11.3087C6.76945 11.5348 6.58551 11.7188 6.35938 11.7188C6.13321 11.7188 5.94922 11.5348 5.94922 11.3086C5.94922 11.0824 6.13321 10.8984 6.35938 10.8984C6.58547 10.8984 6.76945 11.0824 6.76953 11.3085V11.3087ZM13.3594 13.3594C12.9849 13.3594 13.0264 13.3457 10.9604 11.5184C10.9013 11.4662 10.8711 11.3874 10.8711 11.3086C10.8711 10.6301 10.3191 10.0781 9.64062 10.0781C9.23151 10.0781 8.86852 10.2789 8.64475 10.587C8.52034 10.7583 8.33923 10.8984 8.12753 10.8984H7.87248C7.66078 10.8984 7.47966 10.7583 7.35525 10.587C7.13147 10.2789 6.76849 10.0781 6.35938 10.0781C5.6809 10.0781 5.1289 10.6301 5.1289 11.3086C5.1289 11.3874 5.09867 11.4662 5.03966 11.5184C2.98361 13.3368 3.01612 13.3594 2.64062 13.3594C2.1883 13.3594 1.82031 12.9914 1.82031 12.539C1.82031 12.4974 1.82344 12.4557 1.8296 12.4149C1.83091 12.4062 1.8325 12.3981 1.83439 12.3896C1.88754 12.1499 2.69866 8.49186 2.69964 8.48631C2.8734 7.50738 3.72256 6.79688 4.71875 6.79688C5.04379 6.79688 5.35444 6.87056 5.64206 7.0159C6.4317 7.4149 7.22502 7.61719 8 7.61719C8.77501 7.61719 9.56832 7.4149 10.3579 7.01592C10.6455 6.87056 10.9562 6.79688 11.2812 6.79688C12.2774 6.79688 13.1266 7.50738 13.3004 8.48634C13.3014 8.49205 13.3025 8.49776 13.3038 8.50345L14.1684 12.402C14.1759 12.4469 14.1798 12.493 14.1798 12.539C14.1798 12.9914 13.8117 13.3594 13.3594 13.3594ZM5.53906 8.4375C5.31254 8.4375 5.1289 8.25388 5.1289 8.02735C5.1289 7.80083 4.94526 7.61719 4.71875 7.61719C4.49224 7.61719 4.3086 7.80083 4.3086 8.02735C4.3086 8.25388 4.12496 8.4375 3.89844 8.4375C3.67192 8.4375 3.48828 8.62114 3.48828 8.84765C3.48828 9.07417 3.67192 9.25781 3.89844 9.25781C4.12496 9.25781 4.3086 9.44145 4.3086 9.66798C4.3086 9.89449 4.49224 10.0781 4.71875 10.0781C4.94526 10.0781 5.1289 9.89449 5.1289 9.66798C5.1289 9.44145 5.31254 9.25781 5.53906 9.25781C5.76558 9.25781 5.94922 9.07417 5.94922 8.84765C5.94922 8.62114 5.76558 8.4375 5.53906 8.4375ZM12.1016 8.4375C11.875 8.4375 11.6914 8.25388 11.6914 8.02735C11.6914 7.80083 11.5078 7.61719 11.2812 7.61719C11.0547 7.61719 10.8711 7.80083 10.8711 8.02735C10.8711 8.25388 10.6875 8.4375 10.4609 8.4375C10.2344 8.4375 10.0508 8.62114 10.0508 8.84765C10.0508 9.07417 10.2344 9.25781 10.4609 9.25781C10.6875 9.25781 10.8711 9.44145 10.8711 9.66798C10.8711 9.89449 11.0547 10.0781 11.2812 10.0781C11.5078 10.0781 11.6914 9.89449 11.6914 9.66798C11.6914 9.44145 11.875 9.25781 12.1016 9.25781C12.3281 9.25781 12.5118 9.07417 12.5118 8.84765C12.5118 8.62114 12.3281 8.4375 12.1016 8.4375ZM7.17969 8.4375C6.95317 8.4375 6.76953 8.62114 6.76953 8.84765C6.76953 9.07417 6.95317 9.25781 7.17969 9.25781C7.4062 9.25781 7.58985 9.07417 7.58985 8.84765C7.58985 8.62114 7.4062 8.4375 7.17969 8.4375ZM8.82031 8.4375C8.5938 8.4375 8.41015 8.62114 8.41015 8.84765C8.41015 9.07417 8.5938 9.25781 8.82031 9.25781C9.04683 9.25781 9.23048 9.07417 9.23048 8.84765C9.23048 8.62114 9.04683 8.4375 8.82031 8.4375Z" fill="url(#paint0_linear_448_502)" stroke="url(#paint1_linear_448_502)" stroke-width="0.4"/>
<defs>
<linearGradient id="paint0_linear_448_502" x1="7.99999" y1="14.1798" x2="7.99999" y2="1.875" gradientUnits="userSpaceOnUse">
<stop stop-color="#9000FF"/>
<stop offset="1" stop-color="#FF07FF"/>
</linearGradient>
<linearGradient id="paint1_linear_448_502" x1="7.99999" y1="14.1798" x2="7.99999" y2="1.875" gradientUnits="userSpaceOnUse">
<stop stop-color="#9000FF"/>
<stop offset="1" stop-color="#FF07FF"/>
</linearGradient>
</defs>
</svg>
