<svg width="16" height="16" viewBox="0 0 16 16" fill="none" xmlns="http://www.w3.org/2000/svg">
<path d="M6.38391 8.58335V8.66665C6.38391 9.1087 6.55419 9.5326 6.85727 9.84515C7.16035 10.1578 7.57145 10.3333 8.00006 10.3333C8.42871 10.3333 8.83977 10.1578 9.14289 9.84515C9.44597 9.5326 9.61625 9.1087 9.61625 8.66665V8.58335C9.61625 8.26135 9.36282 8 9.05058 8H6.94958C6.63734 8 6.38391 8.26135 6.38391 8.58335Z" fill="url(#paint0_linear_448_575)"/>
<path fill-rule="evenodd" clip-rule="evenodd" d="M13.6433 1.51369C13.0861 0.938747 12.389 0.698982 11.5936 0.588652C10.8343 0.483346 9.87399 0.48337 8.70492 0.483399H7.9999L6.38274 0.485401L6.37784 0.485422C5.47889 0.492058 4.70994 0.518152 4.07264 0.643982C3.41224 0.774367 2.83237 1.02266 2.35655 1.5137C1.79903 2.08829 1.56653 2.80712 1.45954 3.62743C1.35743 4.4104 1.35745 5.40072 1.35748 6.60637V9.39377C1.35745 10.5994 1.35743 11.5897 1.45954 12.3727C1.56653 13.193 1.79904 13.9118 2.35655 14.4864C2.91374 15.0614 3.61079 15.3012 4.40624 15.4115C5.16548 15.5168 6.12582 15.5168 7.29489 15.5167H8.70492C9.87399 15.5168 10.8343 15.5168 11.5936 15.4115C12.3889 15.3012 13.0859 15.0615 13.643 14.4867C14.2004 13.9121 14.4333 13.1929 14.5403 12.3727C14.6424 11.5897 14.6424 10.5994 14.6423 9.39377V6.60637C14.6424 5.40077 14.6424 4.4104 14.5403 3.62743C14.4333 2.80712 14.2008 2.08829 13.6433 1.51369ZM8.64635 2.1834C9.88858 2.1834 10.7374 2.18521 11.3738 2.27348C11.9866 2.35847 12.2776 2.50931 12.4773 2.71552C12.6773 2.92154 12.8241 3.22214 12.9065 3.85404C12.9921 4.51037 12.9938 5.38567 12.9938 6.66672V9.33342C12.9938 10.6144 12.9921 11.4898 12.9065 12.1461C12.8241 12.778 12.6778 13.0781 12.4779 13.2841C12.2781 13.4903 11.9866 13.6417 11.3738 13.7267C10.7374 13.8149 9.88858 13.8167 8.64635 13.8167H7.35346C6.11123 13.8167 5.26245 13.8149 4.62598 13.7267C4.01323 13.6417 3.72225 13.4908 3.52246 13.2846C3.3225 13.0786 3.17573 12.778 3.09332 12.1461C3.00772 11.4898 3.00597 10.6144 3.00597 9.33342V6.66672C3.00597 5.38567 3.00772 4.51037 3.09332 3.85404C3.17573 3.22214 3.322 2.92206 3.52196 2.71603C3.69514 2.53727 3.93478 2.40207 4.38261 2.31365C4.78143 2.23491 5.29329 2.20236 5.99147 2.19016C6.20941 2.18635 6.32466 2.4099 6.4783 2.5694C6.57333 2.66673 6.72655 2.66673 7.03035 2.66673H8.00005V4.00007H7.03035C6.72587 4.00007 6.57333 4.00007 6.4783 4.0974C6.3839 4.1954 6.3839 4.3534 6.3839 4.66673C6.3839 4.98007 6.3839 5.13807 6.4783 5.23607C6.57333 5.33342 6.72655 5.33342 7.03035 5.33342H8.00005V6.00007C8.00005 6.31407 8.00005 6.47142 8.09445 6.56942C8.18948 6.66672 8.34206 6.66672 8.64655 6.66672H8.96975C9.27423 6.66672 9.42681 6.66672 9.52184 6.56942C9.61624 6.47142 9.61624 6.31407 9.61624 6.00007C9.61624 5.68607 9.61624 5.52872 9.52184 5.43072C9.42681 5.33342 9.2736 5.33342 8.96975 5.33342H8.00005V4.00007H8.96975C9.27423 4.00007 9.42681 4.00007 9.52184 3.90273C9.61624 3.80473 9.61624 3.6474 9.61624 3.3334C9.61624 3.0194 9.61624 2.86207 9.52184 2.76407C9.42681 2.66673 9.2736 2.66673 8.96975 2.66673H8.00005C8.00005 2.3998 8.20989 2.1834 8.46875 2.1834H8.64635Z" fill="url(#paint1_linear_448_575)"/>
<defs>
<linearGradient id="paint0_linear_448_575" x1="14.6423" y1="15.5166" x2="2.21116" y2="4.40824" gradientUnits="userSpaceOnUse">
<stop stop-color="#731FFF"/>
<stop offset="0.905415" stop-color="#EB1AFF"/>
</linearGradient>
<linearGradient id="paint1_linear_448_575" x1="14.6423" y1="15.5167" x2="2.21116" y2="4.40831" gradientUnits="userSpaceOnUse">
<stop stop-color="#731FFF"/>
<stop offset="0.905415" stop-color="#EB1AFF"/>
</linearGradient>
</defs>
</svg>
