<svg width="16" height="16" viewBox="0 0 16 16" fill="none" xmlns="http://www.w3.org/2000/svg">
<path d="M12.4071 6.17214H11.6732C11.2901 6.17214 10.9793 5.87394 10.9793 5.50606V1.86203C10.9793 1.38791 10.5753 1 10.0814 1H6.48962C5.99575 1 5.59167 1.38791 5.59167 1.86203V5.50605C5.59167 5.87394 5.28101 6.17214 4.89781 6.17214H4.16394C3.36477 6.17214 2.96069 7.10316 3.5264 7.64624L7.64802 11.6029C7.99821 11.9391 8.56392 11.9391 8.91412 11.6029L13.0357 7.64624C13.6014 7.10316 13.2063 6.17214 12.4071 6.17214Z" fill="url(#paint0_linear_448_491)"/>
<path d="M2.89795 14.9996C2.40408 14.9996 2 14.4918 2 13.8709C2 13.2501 2.40408 12.7422 2.89795 12.7422H13.6733C14.1672 12.7422 14.5712 13.2501 14.5712 13.8709C14.5712 14.4918 14.1672 14.9996 13.6733 14.9996H2.89795Z" fill="url(#paint1_linear_448_491)"/>
<defs>
<linearGradient id="paint0_linear_448_491" x1="8.28214" y1="11.8551" x2="8.28214" y2="1" gradientUnits="userSpaceOnUse">
<stop stop-color="#02AA93"/>
<stop offset="1" stop-color="#67FF80"/>
</linearGradient>
<linearGradient id="paint1_linear_448_491" x1="8.2856" y1="14.9996" x2="8.2856" y2="12.7422" gradientUnits="userSpaceOnUse">
<stop stop-color="#02AA93"/>
<stop offset="1" stop-color="#67FF80"/>
</linearGradient>
</defs>
</svg>
