<svg width="16" height="16" viewBox="0 0 16 16" fill="none" xmlns="http://www.w3.org/2000/svg">
<path fill-rule="evenodd" clip-rule="evenodd" d="M8 1C5.92214 1 4.21538 2.65915 4.21538 4.73333V5.35556C4.21538 5.87102 4.62866 6.28889 5.13846 6.28889H5.32308C5.83287 6.28889 6.24615 5.87102 6.24615 5.35556V4.73333C6.24615 3.80063 7.01904 3.02223 8 3.02223C8.98096 3.02223 9.75385 3.80063 9.75385 4.73333V6.93333C9.75385 7.2647 9.48522 7.53333 9.15385 7.53333H2.92308C2.41328 7.53333 2 7.95121 2 8.46667V14.0667C2 14.5821 2.41325 15 2.92308 15H13.0769C13.5866 15 14 14.5821 14 14.0667V8.46667C14 7.95118 13.5866 7.53333 13.0769 7.53333H12.3846C12.0532 7.53333 11.7846 7.2647 11.7846 6.93333V4.73333C11.7846 2.65915 10.0778 1 8 1ZM4.63077 12.9777C4.2994 12.9777 4.03077 12.7091 4.03077 12.3777V10.1556C4.03077 9.82419 4.2994 9.55556 4.63077 9.55556H11.3692C11.7006 9.55556 11.9692 9.82419 11.9692 10.1556V12.3777C11.9692 12.7091 11.7006 12.9777 11.3692 12.9777H4.63077Z" fill="url(#paint0_linear_448_589)"/>
<defs>
<linearGradient id="paint0_linear_448_589" x1="8" y1="14.5333" x2="8" y2="1.46667" gradientUnits="userSpaceOnUse">
<stop stop-color="#00B59C"/>
<stop offset="1" stop-color="#9CFFAC"/>
</linearGradient>
</defs>
</svg>
