<svg width="16" height="16" viewBox="0 0 16 16" fill="none" xmlns="http://www.w3.org/2000/svg">
<path fill-rule="evenodd" clip-rule="evenodd" d="M7.06633 1.7214C7.36821 0.759533 8.63179 0.759533 8.93368 1.7214L10.1347 5.54785H14.0126C14.9766 5.54785 15.3674 6.88436 14.577 7.47879L13.7834 8.07567C13.4241 8.34594 12.911 8.25512 12.6663 7.87795L12.3911 7.45389C12.3242 7.35075 12.3485 7.21339 12.4468 7.13949H9.78101C9.3583 7.13949 8.98266 6.84925 8.84734 6.41809L8 3.71835L7.15266 6.41809C7.01734 6.84925 6.6417 7.13949 6.21899 7.13949H3.55324L5.67619 8.73625C6.03523 9.0063 6.18566 9.49906 6.04546 9.9458L5.22031 12.5749L7.43559 10.9086C7.7746 10.6536 8.2254 10.6536 8.56441 10.9086L10.7797 12.5749L10.1085 10.4365C9.98931 10.0566 10.1901 9.65011 10.5643 9.51398C10.9629 9.36894 11.402 9.58586 11.5291 9.99061L12.6601 13.5944C12.9648 14.5647 11.9419 15.3905 11.1621 14.804L8 12.4256L4.83795 14.804C4.0581 15.3905 3.03531 14.5647 3.33985 13.5944L4.52664 9.81318L1.42299 7.47879C0.632685 6.88436 1.02335 5.54785 1.9874 5.54785H5.86535L7.06633 1.7214Z" fill="url(#paint0_linear_448_494)"/>
<defs>
<linearGradient id="paint0_linear_448_494" x1="8" y1="15" x2="8" y2="1" gradientUnits="userSpaceOnUse">
<stop stop-color="#FDA700"/>
<stop offset="1" stop-color="#FFDE00"/>
</linearGradient>
</defs>
</svg>
