<svg width="16" height="16" viewBox="0 0 16 16" fill="none" xmlns="http://www.w3.org/2000/svg">
<path d="M8.28284 2.28284C8.12663 2.12663 7.87337 2.12663 7.71716 2.28284L5.68284 4.31716C5.43086 4.56914 5.60932 5 5.96569 5H6.6C6.82091 5 7 5.17909 7 5.4V6.6C7 6.82091 7.17909 7 7.4 7H8.6C8.82091 7 9 6.82091 9 6.6V5.4C9 5.17909 9.17909 5 9.4 5H10H10.0343C10.3907 5 10.5691 4.56914 10.3172 4.31716L8.28284 2.28284ZM3.88281 6.00616C3.88281 6.00447 3.88057 6.00387 3.87973 6.00533L1.0049 10.9856C1.00169 10.9912 1 10.9975 1 11.0039V11.0039V12.9961V13.6039C1 13.8248 1.17909 14.0039 1.4 14.0039H4H14.6C14.8209 14.0039 15 13.8248 15 13.6039V13.0039V11.0117V11.0117C15 11.0053 14.9983 10.9991 14.9952 10.9936L12.1758 6.10931C12.1395 6.0465 12.0725 6.00781 12 6.00781V6.00781H10.4C10.1791 6.00781 10 6.1869 10 6.40781V6.6C10 6.82091 10.1791 7 10.4 7H11.3081C11.451 7 11.5831 7.07626 11.6546 7.20005L13.5014 10.4001C13.6553 10.6667 13.4629 11 13.155 11H12.1657C12.0596 11 11.9579 11.0421 11.8828 11.1172L11.1172 11.8828C11.0421 11.9579 10.9404 12 10.8343 12H5.16569C5.0596 12 4.95786 11.9579 4.88284 11.8828L4.11716 11.1172C4.04214 11.0421 3.9404 11 3.83431 11H2.84309C2.5352 11 2.34274 10.6667 2.49665 10.4001L4.34352 7.20005C4.41497 7.07626 4.54703 7 4.68996 7H5.6C5.82091 7 6 6.82091 6 6.6V6.40781C6 6.1869 5.82091 6.00781 5.6 6.00781H5.03711H3.88446C3.88355 6.00781 3.88281 6.00707 3.88281 6.00616V6.00616Z" fill="url(#paint0_linear_448_625)"/>
<defs>
<linearGradient id="paint0_linear_448_625" x1="1.00205" y1="507.736" x2="15.0023" y2="507.736" gradientUnits="userSpaceOnUse">
<stop stop-color="#FF4910"/>
<stop offset="1" stop-color="#FF7A00"/>
</linearGradient>
</defs>
</svg>
