<svg width="16" height="16" viewBox="0 0 16 16" fill="none" xmlns="http://www.w3.org/2000/svg">
<path d="M3.4 2C3.17909 2 3 2.17909 3 2.4V3V5.6C3 5.82091 2.82091 6 2.6 6H2H1.4C1.17909 6 1 6.17909 1 6.4V7V13V13.6C1 13.8209 1.17909 14 1.4 14H14.6C14.8209 14 15 13.8209 15 13.6V13V6.4C15 6.17909 14.8209 6 14.6 6H13.1351C13.0681 6 13.0137 5.94564 13.0137 5.87859V5.59562C13.0137 5.59204 13.0094 5.59025 13.0068 5.59277V5.59277C13.0043 5.5953 13 5.59351 13 5.58993V3V2.4C13 2.17909 12.8209 2 12.6 2H3.4ZM4 3.4C4 3.17909 4.17909 3 4.4 3H11.6C11.8209 3 12 3.17909 12 3.4V6.43392C12 6.54001 11.9579 6.64175 11.8828 6.71677L11.6044 6.99516C11.6013 6.99826 11.5971 7 11.5928 7V7C11.5884 7 11.5842 7.00174 11.5811 7.00484L8.28284 10.3031C8.12663 10.4593 7.87337 10.4593 7.71716 10.3031L4.41406 7L4.11716 6.7031C4.04214 6.62808 4 6.52634 4 6.42025V3.4ZM5.4 4C5.17909 4 5 4.17909 5 4.4V4.6C5 4.82091 5.17909 5 5.4 5H10.6C10.8209 5 11 4.82091 11 4.6V4.4C11 4.17909 10.8209 4 10.6 4H5.4ZM5.4 6C5.17909 6 5 6.17909 5 6.4V6.6C5 6.82091 5.17909 7 5.4 7H10.6C10.8209 7 11 6.82091 11 6.6V6.4C11 6.17909 10.8209 6 10.6 6H5.4ZM2 7.4C2 7.17909 2.17909 7 2.4 7H2.83431C2.9404 7 3.04214 7.04214 3.11716 7.11716L5 9L5.70703 9.70703L7.71716 11.7172C7.87337 11.8734 8.12663 11.8734 8.28284 11.7172L10.293 9.70703L11 9L12.9903 7.00969C12.9965 7.00348 13.0049 7 13.0137 7V7H13.6C13.8209 7 14 7.17909 14 7.4V12.6C14 12.8209 13.8209 13 13.6 13H2.4C2.17909 13 2 12.8209 2 12.6V7.4Z" fill="url(#paint0_linear_448_631)"/>
<defs>
<linearGradient id="paint0_linear_448_631" x1="14.9585" y1="2.07607" x2="3.17845" y2="15.7051" gradientUnits="userSpaceOnUse">
<stop stop-color="#FE7970"/>
<stop offset="1" stop-color="#DC3282"/>
</linearGradient>
</defs>
</svg>
