<svg width="16" height="16" viewBox="0 0 16 16" fill="none" xmlns="http://www.w3.org/2000/svg">
<path d="M13.25 10.7227H7.11332C6.95869 10.7227 6.83332 10.8532 6.83332 11.0143V11.938C6.83332 12.0991 6.77186 12.2536 6.66252 12.3676C6.55311 12.4815 6.40471 12.5456 6.25001 12.5456C6.09528 12.5456 5.94691 12.4815 5.83752 12.3676C5.72812 12.2536 5.66666 12.0991 5.66666 11.938V11.0143C5.66666 10.8532 5.5413 10.7227 5.38666 10.7227H4.77999C4.62536 10.7227 4.49999 10.8532 4.49999 11.0143V11.938C4.49999 12.0991 4.43853 12.2536 4.32914 12.3676C4.21974 12.4815 4.07137 12.5456 3.91666 12.5456C3.76195 12.5456 3.61358 12.4815 3.50418 12.3676C3.39479 12.2536 3.33333 12.0991 3.33333 11.938V11.0143C3.33333 10.8532 3.20797 10.7227 3.05333 10.7227H2.75C2.28587 10.7227 1.84075 10.9147 1.51256 11.2566C1.18437 11.5985 1 12.0621 1 12.5456C1 13.029 1.18437 13.4927 1.51256 13.8346C1.84075 14.1764 2.28587 14.3685 2.75 14.3685H13.25C13.7141 14.3685 14.1592 14.1764 14.4875 13.8346C14.8156 13.4927 15 13.029 15 12.5456C15 12.0621 14.8156 11.5985 14.4875 11.2566C14.1592 10.9147 13.7141 10.7227 13.25 10.7227Z" fill="url(#paint0_linear_448_635)"/>
<path d="M13.25 5.86133H7.11332C6.95869 5.86133 6.83332 5.99191 6.83332 6.15299V7.07663C6.83332 7.23777 6.77186 7.39228 6.66252 7.50625C6.55311 7.62022 6.40471 7.68424 6.25001 7.68424C6.09528 7.68424 5.94691 7.62022 5.83752 7.50625C5.72812 7.39228 5.66666 7.23777 5.66666 7.07663V6.15299C5.66666 5.99191 5.5413 5.86133 5.38666 5.86133H4.77999C4.62536 5.86133 4.49999 5.99191 4.49999 6.15299V7.07663C4.49999 7.23777 4.43853 7.39228 4.32914 7.50625C4.21974 7.62022 4.07137 7.68424 3.91666 7.68424C3.76195 7.68424 3.61358 7.62022 3.50418 7.50625C3.39479 7.39228 3.33333 7.23777 3.33333 7.07663V6.15299C3.33333 5.99191 3.20797 5.86133 3.05333 5.86133H2.75C2.28587 5.86133 1.84075 6.05338 1.51256 6.39522C1.18437 6.73713 1 7.20081 1 7.68424C1 8.16768 1.18437 8.63136 1.51256 8.97326C1.84075 9.31509 2.28587 9.50716 2.75 9.50716H13.25C13.7141 9.50716 14.1592 9.31509 14.4875 8.97326C14.8156 8.63136 15 8.16768 15 7.68424C15 7.20081 14.8156 6.73713 14.4875 6.39522C14.1592 6.05338 13.7141 5.86133 13.25 5.86133Z" fill="url(#paint1_linear_448_635)"/>
<path d="M13.25 1H7.11332C6.95869 1 6.83332 1.13058 6.83332 1.29167V2.21527C6.83332 2.37643 6.77186 2.53099 6.66252 2.64494C6.55311 2.75889 6.40471 2.82291 6.25001 2.82291C6.09528 2.82291 5.94691 2.75889 5.83752 2.64494C5.72812 2.53099 5.66666 2.37643 5.66666 2.21527V1.29167C5.66666 1.13058 5.5413 1 5.38666 1H4.77999C4.62536 1 4.49999 1.13058 4.49999 1.29167V2.21527C4.49999 2.37643 4.43853 2.53099 4.32914 2.64494C4.21974 2.75889 4.07137 2.82291 3.91666 2.82291C3.76195 2.82291 3.61358 2.75889 3.50418 2.64494C3.39479 2.53099 3.33333 2.37643 3.33333 2.21527V1.29167C3.33333 1.13058 3.20797 1 3.05333 1H2.75C2.28587 1 1.84075 1.19205 1.51256 1.53392C1.18437 1.87578 1 2.33945 1 2.82291C1 3.30638 1.18437 3.77004 1.51256 4.1119C1.84075 4.45377 2.28587 4.64583 2.75 4.64583H13.25C13.7141 4.64583 14.1592 4.45377 14.4875 4.1119C14.8156 3.77004 15 3.30638 15 2.82291C15 2.33945 14.8156 1.87578 14.4875 1.53392C14.1592 1.19205 13.7141 1 13.25 1Z" fill="url(#paint2_linear_448_635)"/>
<defs>
<linearGradient id="paint0_linear_448_635" x1="8.00001" y1="14.3685" x2="8.00001" y2="10.7227" gradientUnits="userSpaceOnUse">
<stop stop-color="#5570FF"/>
<stop offset="1" stop-color="#4DD3FF"/>
</linearGradient>
<linearGradient id="paint1_linear_448_635" x1="8.00001" y1="9.50716" x2="8.00001" y2="5.86133" gradientUnits="userSpaceOnUse">
<stop stop-color="#5570FF"/>
<stop offset="1" stop-color="#4DD3FF"/>
</linearGradient>
<linearGradient id="paint2_linear_448_635" x1="8.00001" y1="4.64583" x2="8.00001" y2="1" gradientUnits="userSpaceOnUse">
<stop stop-color="#5570FF"/>
<stop offset="1" stop-color="#4DD3FF"/>
</linearGradient>
</defs>
</svg>
