<svg width="16" height="16" viewBox="0 0 16 16" fill="none" xmlns="http://www.w3.org/2000/svg">
<path d="M3 2C2.44772 2 2 2.44772 2 3V5V6V7V9.99997V11V13C2 13.5523 2.44772 14 3 14H13C13.5523 14 14 13.5523 14 13V11V9.99997V7V6V5V3C14 2.44772 13.5523 2 13 2H3Z" stroke="url(#paint0_linear_448_639)" stroke-width="1.6"/>
<path d="M3 2C2.44772 2 2 2.44772 2 3V5V6V7V9.99997V11V13C2 13.5523 2.44772 14 3 14H13C13.5523 14 14 13.5523 14 13V11V9.99997V7V6V5V3C14 2.44772 13.5523 2 13 2H3Z" stroke="url(#paint1_linear_448_639)" stroke-width="1.6"/>
<path fill-rule="evenodd" clip-rule="evenodd" d="M11.0003 3.71387C10.7634 3.71387 10.5713 3.90594 10.5713 4.14287C10.5713 4.3798 10.7634 4.57187 11.0003 4.57187H11.8566C12.0935 4.57187 12.2856 4.3798 12.2856 4.14287C12.2856 3.90594 12.0935 3.71387 11.8566 3.71387H11.0003ZM4.14244 6.28528C3.90575 6.28528 3.71387 6.47716 3.71387 6.71386C3.71387 6.95055 3.90575 7.14243 4.14244 7.14243H11.8567C12.0934 7.14243 12.2853 6.95055 12.2853 6.71386C12.2853 6.47716 12.0934 6.28528 11.8567 6.28528H4.14244ZM10.5713 8.42815C10.5713 8.19146 10.7632 7.99958 10.9999 7.99958H11.857C12.0937 7.99958 12.2856 8.19146 12.2856 8.42815C12.2856 8.66484 12.0937 8.85672 11.857 8.85672H10.9999C10.7632 8.85672 10.5713 8.66484 10.5713 8.42815ZM4.14244 9.71387C3.90575 9.71387 3.71387 9.90575 3.71387 10.1424C3.71387 10.379 3.90575 10.5709 4.14244 10.5709H11.8567C12.0934 10.5709 12.2853 10.379 12.2853 10.1424C12.2853 9.90575 12.0934 9.71387 11.8567 9.71387H4.14244ZM10.5713 11.8566C10.5713 11.62 10.7632 11.4281 10.9999 11.4281H11.857C12.0937 11.4281 12.2856 11.62 12.2856 11.8566C12.2856 12.0933 12.0937 12.2852 11.857 12.2852H10.9999C10.7632 12.2852 10.5713 12.0933 10.5713 11.8566Z" fill="url(#paint2_linear_448_639)"/>
<path d="M10.7713 4.14365C10.7713 4.01719 10.8738 3.91465 11.0003 3.91465V3.51465C10.6529 3.51465 10.3713 3.79626 10.3713 4.14365H10.7713ZM11.0003 4.37265C10.8738 4.37265 10.7713 4.27012 10.7713 4.14365H10.3713C10.3713 4.49105 10.6529 4.77265 11.0003 4.77265V4.37265ZM11.8566 4.37265H11.0003V4.77265H11.8566V4.37265ZM12.0856 4.14365C12.0856 4.27012 11.983 4.37265 11.8566 4.37265V4.77265C12.2039 4.77265 12.4856 4.49105 12.4856 4.14365H12.0856ZM11.8566 3.91465C11.983 3.91465 12.0856 4.01719 12.0856 4.14365H12.4856C12.4856 3.79626 12.2039 3.51465 11.8566 3.51465V3.91465ZM11.0003 3.91465H11.8566V3.51465H11.0003V3.91465ZM3.91392 6.71464C3.91392 6.5884 4.01626 6.48606 4.14249 6.48606V6.08606C3.79534 6.08606 3.51392 6.36749 3.51392 6.71464H3.91392ZM4.14249 6.94321C4.01625 6.94321 3.91392 6.84088 3.91392 6.71464H3.51392C3.51392 7.06179 3.79534 7.34321 4.14249 7.34321V6.94321ZM11.8567 6.94321H4.14249V7.34321H11.8567V6.94321ZM12.0853 6.71464C12.0853 6.84086 11.983 6.94321 11.8567 6.94321V7.34321C12.2038 7.34321 12.4853 7.06181 12.4853 6.71464H12.0853ZM11.8567 6.48606C11.983 6.48606 12.0853 6.58841 12.0853 6.71464H12.4853C12.4853 6.36748 12.2038 6.08606 11.8567 6.08606V6.48606ZM4.14249 6.48606H11.8567V6.08606H4.14249V6.48606ZM10.9999 7.80036C10.6527 7.80036 10.3713 8.08177 10.3713 8.42893H10.7713C10.7713 8.30271 10.8736 8.20036 10.9999 8.20036V7.80036ZM11.857 7.80036H10.9999V8.20036H11.857V7.80036ZM12.4856 8.42893C12.4856 8.08177 12.2041 7.80036 11.857 7.80036V8.20036C11.9832 8.20036 12.0856 8.30271 12.0856 8.42893H12.4856ZM11.857 9.0575C12.2041 9.0575 12.4856 8.77609 12.4856 8.42893H12.0856C12.0856 8.55515 11.9832 8.6575 11.857 8.6575V9.0575ZM10.9999 9.0575H11.857V8.6575H10.9999V9.0575ZM10.3713 8.42893C10.3713 8.77609 10.6527 9.0575 10.9999 9.0575V8.6575C10.8736 8.6575 10.7713 8.55515 10.7713 8.42893H10.3713ZM3.91392 10.1432C3.91392 10.017 4.01625 9.91465 4.14249 9.91465V9.51465C3.79534 9.51465 3.51392 9.79608 3.51392 10.1432H3.91392ZM4.14249 10.3717C4.01624 10.3717 3.91392 10.2693 3.91392 10.1432H3.51392C3.51392 10.4903 3.79536 10.7717 4.14249 10.7717V10.3717ZM11.8567 10.3717H4.14249V10.7717H11.8567V10.3717ZM12.0853 10.1432C12.0853 10.2693 11.983 10.3717 11.8567 10.3717V10.7717C12.2038 10.7717 12.4853 10.4903 12.4853 10.1432H12.0853ZM11.8567 9.91465C11.983 9.91465 12.0853 10.017 12.0853 10.1432H12.4853C12.4853 9.79606 12.2038 9.51465 11.8567 9.51465V9.91465ZM4.14249 9.91465H11.8567V9.51465H4.14249V9.91465ZM10.9999 11.2289C10.6528 11.2289 10.3713 11.5103 10.3713 11.8574H10.7713C10.7713 11.7313 10.8736 11.6289 10.9999 11.6289V11.2289ZM11.857 11.2289H10.9999V11.6289H11.857V11.2289ZM12.4856 11.8574C12.4856 11.5103 12.2041 11.2289 11.857 11.2289V11.6289C11.9833 11.6289 12.0856 11.7313 12.0856 11.8574H12.4856ZM11.857 12.486C12.2041 12.486 12.4856 12.2046 12.4856 11.8574H12.0856C12.0856 11.9837 11.9832 12.086 11.857 12.086V12.486ZM10.9999 12.486H11.857V12.086H10.9999V12.486ZM10.3713 11.8574C10.3713 12.2046 10.6527 12.486 10.9999 12.486V12.086C10.8736 12.086 10.7713 11.9837 10.7713 11.8574H10.3713Z" fill="url(#paint3_linear_448_639)"/>
<defs>
<linearGradient id="paint0_linear_448_639" x1="7.99999" y1="97.9991" x2="7.99999" y2="-46" gradientUnits="userSpaceOnUse">
<stop stop-color="#FDA700"/>
<stop offset="1" stop-color="#FFDE00"/>
</linearGradient>
<linearGradient id="paint1_linear_448_639" x1="8" y1="14" x2="8" y2="2" gradientUnits="userSpaceOnUse">
<stop stop-color="#FDA700"/>
<stop offset="1" stop-color="#FFDE00"/>
</linearGradient>
<linearGradient id="paint2_linear_448_639" x1="7.99973" y1="12.2852" x2="7.99973" y2="3.71387" gradientUnits="userSpaceOnUse">
<stop stop-color="#FDA700"/>
<stop offset="1" stop-color="#FFDE00"/>
</linearGradient>
<linearGradient id="paint3_linear_448_639" x1="7.99978" y1="12.286" x2="7.99978" y2="3.71465" gradientUnits="userSpaceOnUse">
<stop stop-color="#FDA700"/>
<stop offset="1" stop-color="#FFDE00"/>
</linearGradient>
</defs>
</svg>
