<svg width="16" height="16" viewBox="0 0 16 16" fill="none" xmlns="http://www.w3.org/2000/svg">
<g clip-path="url(#clip0_448_647)">
<path d="M8.3516 1.14449C8.1568 0.951836 7.8432 0.951836 7.6484 1.14449L7.17745 1.61027C7.17615 1.61153 7.17615 1.61357 7.1774 1.61483C7.17865 1.61608 7.17865 1.61812 7.1774 1.61937L1.00161 7.7929C1.00058 7.79395 1 7.79535 1 7.7968V8.46345C1 8.7396 1.22386 8.96345 1.5 8.96345H1.67578C1.95192 8.96345 2.17578 9.1873 2.17578 9.46345V13.6256C2.17578 13.6281 2.17374 13.6301 2.17122 13.6301C2.16871 13.6301 2.16667 13.6322 2.16667 13.6347V14.2968C2.16667 14.5729 2.39052 14.7968 2.66667 14.7968H13.3333C13.6095 14.7968 13.8333 14.5729 13.8333 14.2968V13.6301V9.46345C13.8333 9.1873 14.0572 8.96345 14.3333 8.96345H14.5C14.7761 8.96345 15 8.7396 15 8.46345V7.7968C15 7.79535 14.9994 7.79395 14.9984 7.7929L14.0205 6.81505C13.8253 6.6198 13.5087 6.6198 13.3134 6.81505L13.0005 7.12805C12.9168 7.2117 12.9168 7.34735 13.0005 7.43105L13.0164 7.447C13.1455 7.5761 13.0541 7.7968 12.8716 7.7968C12.7584 7.7968 12.6667 7.8885 12.6667 8.0017V13.1301C12.6667 13.4063 12.4428 13.6301 12.1667 13.6301H9.66665C9.3905 13.6301 9.16665 13.4063 9.16665 13.1301V10.6301C9.16665 10.354 8.9428 10.1301 8.66665 10.1301H7.33335C7.0572 10.1301 6.83335 10.354 6.83335 10.6301V13.1301C6.83335 13.4063 6.6095 13.6301 6.33335 13.6301H3.83333C3.55719 13.6301 3.33333 13.4063 3.33333 13.1301V8.96345V8.00165C3.33333 7.8885 3.24162 7.7968 3.12849 7.7968C2.94596 7.7968 2.85458 7.5761 2.98367 7.44705L7.9966 2.43628H7.99885H8.00115L8.0034 2.43627L9.33035 3.76142C9.52565 3.95646 9.84205 3.95635 10.0372 3.76118L10.1482 3.65026C10.3435 3.4549 10.3434 3.13813 10.1479 2.94291L8.8226 1.61937C8.82135 1.61812 8.82135 1.61608 8.8226 1.61483C8.82385 1.61357 8.82385 1.61153 8.82255 1.61027L8.3516 1.14449ZM12 1.96346C11.7239 1.96346 11.5 2.18731 11.5 2.46346V4.96346C11.5 5.2396 11.7239 5.46345 12 5.46345H12.1758C12.4519 5.46345 12.6758 5.2396 12.6758 4.96346V2.46346C12.6758 2.18731 12.4519 1.96346 12.1758 1.96346H12Z" fill="url(#paint0_linear_448_647)" stroke="url(#paint1_linear_448_647)" stroke-width="0.6"/>
</g>
<defs>
<linearGradient id="paint0_linear_448_647" x1="1" y1="1.38325" x2="15.4238" y2="11.1613" gradientUnits="userSpaceOnUse">
<stop stop-color="#37CE90"/>
<stop offset="1" stop-color="#9FF66A"/>
</linearGradient>
<linearGradient id="paint1_linear_448_647" x1="1" y1="1.38325" x2="15.4238" y2="11.1613" gradientUnits="userSpaceOnUse">
<stop stop-color="#37CE90"/>
<stop offset="1" stop-color="#9FF66A"/>
</linearGradient>
<clipPath id="clip0_448_647">
<rect width="16" height="16" fill="white"/>
</clipPath>
</defs>
</svg>
