<svg width="128" height="128" viewBox="0 0 128 128" fill="none" xmlns="http://www.w3.org/2000/svg">
<path opacity="0.4" d="M11 38C11 22.536 23.536 10 39 10H89C104.464 10 117 22.536 117 38V90C117 105.464 104.464 118 89 118H39C23.536 118 11 105.464 11 90V38Z" fill="url(#paint0_linear_59_840)"/>
<path fill-rule="evenodd" clip-rule="evenodd" d="M34.9325 42.4161C36.3138 41.5873 38.1056 42.0351 38.9344 43.4166L43.8321 51.5796C44.1265 52.0703 44.7712 52.2131 45.2556 51.9085C50.683 48.4957 57.1137 46.5207 64.0081 46.5207C70.8967 46.5207 77.3223 48.4921 82.7466 51.899C83.231 52.2032 83.8753 52.0602 84.1696 51.5697L89.0614 43.4166C89.8904 42.0351 91.6821 41.5873 93.0635 42.4161C94.4448 43.2449 94.8928 45.0366 94.064 46.418L88.6405 55.4572C88.3991 55.8596 88.471 56.3746 88.8045 56.7048C94.4193 62.2637 98.1583 69.6984 98.9937 77.9856C99.1711 81.5214 95.5184 81.5235 95.5158 81.5235C95.5157 81.5235 95.5158 81.5235 95.5157 81.5235H32.3983C32.3981 81.5235 32.3982 81.5235 32.398 81.5235C32.3921 81.5235 28.8446 81.5227 29.0053 78.1565C29.8064 69.8075 33.5534 62.3137 39.1999 56.7177C39.533 56.3876 39.6048 55.8727 39.3635 55.4705L33.9321 46.418C33.1031 45.0366 33.5511 43.2449 34.9325 42.4161ZM46.4985 64.0223C47.073 64.0223 47.6419 64.1355 48.1729 64.3553C48.7036 64.5753 49.1859 64.8975 49.5923 65.3038C49.9985 65.71 50.3208 66.1925 50.5408 66.7233C50.7606 67.254 50.8738 67.8231 50.8738 68.3977C50.8738 68.9722 50.7606 69.5411 50.5408 70.0721C50.3208 70.6028 49.9985 71.0851 49.5923 71.4915C49.1859 71.8978 48.7036 72.22 48.1729 72.44C47.6419 72.6598 47.073 72.773 46.4985 72.773C45.9238 72.773 45.3548 72.6598 44.8241 72.44C44.2931 72.22 43.8108 71.8978 43.4046 71.4915C42.9983 71.0851 42.6759 70.6028 42.4561 70.0721C42.2362 69.5411 42.1231 68.9722 42.1231 68.3977C42.1231 67.8231 42.2362 67.254 42.4561 66.7233C42.6759 66.1925 42.9983 65.71 43.4046 65.3038C43.8108 64.8975 44.2931 64.5753 44.8241 64.3553C45.3548 64.1355 45.9238 64.0223 46.4985 64.0223ZM83.1755 64.3553C82.6447 64.1355 82.0758 64.0223 81.5011 64.0223C80.9266 64.0223 80.3576 64.1355 79.8267 64.3553C79.2959 64.5753 78.8136 64.8975 78.4073 65.3038C78.0011 65.71 77.6787 66.1925 77.4589 66.7233C77.239 67.254 77.1257 67.8231 77.1257 68.3977C77.1257 68.9722 77.239 69.5411 77.4589 70.0721C77.6787 70.6028 78.0011 71.0851 78.4073 71.4915C78.8136 71.8978 79.2959 72.22 79.8267 72.44C80.3576 72.6598 80.9266 72.773 81.5011 72.773C82.0758 72.773 82.6447 72.6598 83.1755 72.44C83.7064 72.22 84.1887 71.8978 84.5949 71.4915C85.0013 71.0851 85.3236 70.6028 85.5434 70.0721C85.7634 69.5411 85.8764 68.9722 85.8764 68.3977C85.8764 67.8231 85.7634 67.254 85.5434 66.7233C85.3236 66.1925 85.0013 65.71 84.5949 65.3038C84.1887 64.8975 83.7064 64.5753 83.1755 64.3553Z" fill="url(#paint1_linear_59_840)"/>
<defs>
<linearGradient id="paint0_linear_59_840" x1="64" y1="118" x2="64" y2="10" gradientUnits="userSpaceOnUse">
<stop stop-color="#00B59C"/>
<stop offset="1" stop-color="#9CFFAC"/>
</linearGradient>
<linearGradient id="paint1_linear_59_840" x1="64" y1="81.5235" x2="64" y2="42" gradientUnits="userSpaceOnUse">
<stop stop-color="#02AA93"/>
<stop offset="1" stop-color="#67FF80"/>
</linearGradient>
</defs>
</svg>
