<svg width="128" height="128" viewBox="0 0 128 128" fill="none" xmlns="http://www.w3.org/2000/svg">
<path opacity="0.4" d="M11 38C11 22.536 23.536 10 39 10H69C95.5097 10 117 31.4903 117 58V90C117 105.464 104.464 118 89 118H39C23.536 118 11 105.464 11 90V38Z" fill="url(#paint0_linear_63_463)"/>
<path fill-rule="evenodd" clip-rule="evenodd" d="M116.624 52H89C81.268 52 75 45.732 75 38V10.4048C96.7012 13.1109 113.903 30.3034 116.624 52Z" fill="url(#paint1_linear_63_463)"/>
<path fill-rule="evenodd" clip-rule="evenodd" d="M61.212 52.166C58.437 52 55.0865 52 51.0003 52H50.9767C50.843 52 50.7181 52.0668 50.6439 52.1781L42.7772 63.9782C42.6 64.2441 42.7905 64.6001 43.11 64.6001H53.4214C53.5552 64.6001 53.68 64.5333 53.7542 64.422L61.5156 52.7823C61.6856 52.5273 61.5179 52.1843 61.212 52.166ZM45.6736 52.0166C37.8146 52.1034 33.4289 52.6007 30.5137 55.5136C28.5279 57.5018 27.6629 60.1744 27.288 64.1667C27.2661 64.3997 27.4504 64.6001 27.6844 64.6001H37.8213C37.955 64.6001 38.0799 64.5333 38.1541 64.422L46.0098 52.6373C46.1878 52.3703 45.9945 52.0131 45.6736 52.0166ZM74.7123 64.1665C74.7343 64.3996 74.55 64.6001 74.3159 64.6001H58.7101C58.3906 64.6001 58.2001 64.2441 58.3773 63.9782L65.7253 52.9551C65.816 52.8189 65.981 52.7514 66.1406 52.7876C68.3945 53.2978 70.1053 54.1344 71.4868 55.5136C73.4726 57.5017 74.3354 60.1743 74.7123 64.1665ZM27.0523 68.5884C27 70.7486 27 73.2002 27 75.9997C27 87.3134 27 92.9727 30.5136 96.4839C34.0297 99.9999 39.6865 99.9999 51.0002 99.9999C62.3139 99.9999 67.9732 99.9999 71.4844 96.4839C75.0004 92.9703 75.0004 87.3134 75.0004 75.9997V75.9991C75.0004 73.1999 75.0004 70.7484 74.9481 68.5884C74.9429 68.3719 74.7655 68.1996 74.5489 68.1996H27.4515C27.2349 68.1996 27.0576 68.3719 27.0523 68.5884Z" fill="url(#paint2_linear_63_463)"/>
<defs>
<linearGradient id="paint0_linear_63_463" x1="64" y1="10" x2="64" y2="118" gradientUnits="userSpaceOnUse">
<stop stop-color="#44BCFF"/>
<stop offset="1" stop-color="#0F6596"/>
</linearGradient>
<linearGradient id="paint1_linear_63_463" x1="95.8122" y1="52" x2="95.8122" y2="10.4048" gradientUnits="userSpaceOnUse">
<stop stop-color="#5570FF"/>
<stop offset="1" stop-color="#4DD3FF"/>
</linearGradient>
<linearGradient id="paint2_linear_63_463" x1="51.0002" y1="99.9999" x2="51.0002" y2="52" gradientUnits="userSpaceOnUse">
<stop stop-color="#5570FF"/>
<stop offset="1" stop-color="#4DD3FF"/>
</linearGradient>
</defs>
</svg>
