<svg width="128" height="128" viewBox="0 0 128 128" fill="none" xmlns="http://www.w3.org/2000/svg">
<path opacity="0.4" d="M11 38C11 22.536 23.536 10 39 10H69C95.5097 10 117 31.4903 117 58V90C117 105.464 104.464 118 89 118H39C23.536 118 11 105.464 11 90V38Z" fill="url(#paint0_linear_59_1044)"/>
<path fill-rule="evenodd" clip-rule="evenodd" d="M116.624 52H89C81.268 52 75 45.732 75 38V10.4048C96.7012 13.1109 113.903 30.3034 116.624 52Z" fill="url(#paint1_linear_59_1044)"/>
<path fill-rule="evenodd" clip-rule="evenodd" d="M43.4623 85.7437L72.0562 57.0075C74.6479 54.3681 74.6479 50.1109 72.0562 47.514L66.5329 41.9796C63.8987 39.3401 59.6499 39.3401 57.0157 41.9796L54.1691 44.8745C53.7442 45.3002 53.7442 46.0239 54.1691 46.4497C54.1691 46.4497 60.9373 53.1888 61.0647 53.3591C61.5321 53.87 61.8295 54.5511 61.8295 55.3174C61.8295 56.85 60.5974 58.1272 59.0254 58.1272C58.3031 58.1272 57.6233 57.8249 57.1559 57.3609L50.0478 50.2812C49.7079 49.9406 49.1131 49.9406 48.7732 50.2812L28.5067 70.588C27.1047 71.9929 26.2974 73.8661 26.2549 75.867L26 85.9565C26 86.51 26.1699 87.0208 26.5523 87.404C26.9347 87.7871 27.4446 88 27.9969 88H37.9814C40.0208 88 41.9752 87.1911 43.4623 85.7437ZM29 102C27.9391 102 26.9217 101.579 26.1716 100.828C25.4214 100.078 25 99.0609 25 98C25 96.9391 25.4214 95.9217 26.1716 95.1716C26.9217 94.4214 27.9391 94 29 94H69.6667C70.7275 94 71.7449 94.4214 72.4951 95.1716C73.2452 95.9217 73.6667 96.9391 73.6667 98C73.6667 99.0609 73.2452 100.078 72.4951 100.828C71.7449 101.579 70.7275 102 69.6667 102H29Z" fill="url(#paint2_linear_59_1044)"/>
<defs>
<linearGradient id="paint0_linear_59_1044" x1="64" y1="118" x2="64" y2="10" gradientUnits="userSpaceOnUse">
<stop stop-color="#A93AFF"/>
<stop offset="1" stop-color="#FF81FF"/>
</linearGradient>
<linearGradient id="paint1_linear_59_1044" x1="95.8122" y1="10.4048" x2="95.8122" y2="52" gradientUnits="userSpaceOnUse">
<stop stop-color="#DC18FC"/>
<stop offset="1" stop-color="#8E1EFF"/>
</linearGradient>
<linearGradient id="paint2_linear_59_1044" x1="49.5" y1="40" x2="49.5" y2="102" gradientUnits="userSpaceOnUse">
<stop stop-color="#DC18FC"/>
<stop offset="1" stop-color="#8E1EFF"/>
</linearGradient>
</defs>
</svg>
