<svg width="24" height="24" viewBox="0 0 24 24" fill="none" xmlns="http://www.w3.org/2000/svg">
<path d="M13.509 2V22.7833V22.7833V22.7833L1.82986 20.7669C1.35032 20.6841 1 20.2681 1 19.7814V5.05275C1 4.56851 1.34172 4.15479 1.81839 4.06949C4.33004 3.62004 11.858 2.27479 13.5098 2.00087V2.00087C13.509 4.21598 13.509 2 13.509 2ZM9.94029 8.16052L8.84718 8.23215C8.63687 8.24593 8.47333 8.42053 8.47333 8.63129V10.9871C8.46966 11.338 8.46679 11.6563 8.46473 11.9421C8.46164 12.3707 7.80692 12.5412 7.60085 12.1654L5.66714 8.63916C5.59419 8.50613 5.45226 8.42582 5.30065 8.4318L4.43938 8.46577C4.22477 8.47424 4.05515 8.65068 4.05515 8.86546V15.6797C4.05515 15.8885 4.21569 16.0621 4.42381 16.0785L4.79201 16.1074C5.02456 16.1257 5.22334 15.9419 5.22334 15.7087V12.1178C5.22334 11.704 5.77477 11.5625 5.97395 11.9252L8.2708 16.1077C8.33702 16.2283 8.46056 16.3064 8.59789 16.3145L9.51244 16.3684C9.7422 16.3819 9.93596 16.1992 9.93596 15.9691V8.16485C9.93596 8.16246 9.9379 8.16052 9.94029 8.16052V8.16052Z" fill="url(#paint0_linear_41_146)"/>
<g opacity="0.4">
<path d="M22.9524 14.0205V10.7294C22.9524 10.7279 22.9525 10.7265 22.9528 10.725C22.9531 10.7236 22.9533 10.7221 22.9532 10.7207C22.9529 10.6606 22.9409 10.6013 22.9176 10.5459C22.8942 10.4898 22.8598 10.439 22.8164 10.3964C22.735 10.3115 22.6207 10.2596 22.4943 10.2596H22.1747C21.9538 10.2596 21.7747 10.4387 21.7747 10.6596V14.0873C21.7747 14.3082 21.9538 14.4873 22.1747 14.4873H22.4891C22.6121 14.4859 22.7297 14.4362 22.8164 14.3488C22.9031 14.2615 22.9519 14.1435 22.9524 14.0205Z" fill="url(#paint1_linear_41_146)"/>
<path d="M22.8143 15.1114C22.7279 15.0252 22.6112 14.9762 22.4891 14.9748C22.4882 14.9748 22.4876 14.9739 22.4878 14.9731C22.488 14.9722 22.4873 14.9713 22.4864 14.9713H22.087C21.914 14.9713 21.7738 15.1116 21.7738 15.2846V18.8077C21.7738 19.0286 21.9529 19.2077 22.1738 19.2077H22.4934C22.6148 19.2074 22.7312 19.1591 22.8171 19.0732C22.903 18.9874 22.9513 18.871 22.9515 18.7496V15.4381C22.9504 15.3154 22.9011 15.1981 22.8143 15.1114Z" fill="url(#paint2_linear_41_146)"/>
<path d="M22.8398 5.67946C22.7432 5.59237 22.6182 5.54343 22.4882 5.54178C22.4878 5.54177 22.4874 5.54216 22.4874 5.54264C22.4874 5.54312 22.487 5.5435 22.4865 5.5435H21.707C21.4861 5.5435 21.307 5.36442 21.307 5.1435V4.7979C21.2915 4.6758 21.2352 4.56669 21.1512 4.48528L21.1503 4.48442C21.1293 4.45998 21.1062 4.43766 21.0808 4.41736C21.0288 4.37571 20.9612 4.36145 20.8946 4.36145H15.0832C14.8623 4.36145 14.6832 4.54054 14.6832 4.76145V6.28312C14.6832 6.50403 14.8623 6.68312 15.0832 6.68312H19.0565C19.2774 6.68312 19.4565 6.86221 19.4565 7.08312V7.25907C19.4565 7.47998 19.2774 7.65907 19.0565 7.65907H15.0832C14.8623 7.65907 14.6832 7.83815 14.6832 8.05907V8.42813C14.6832 8.64904 14.8623 8.82813 15.0832 8.82813H19.0565C19.2774 8.82813 19.4565 9.00722 19.4565 9.22813V9.36338C19.4565 9.58429 19.2774 9.76338 19.0565 9.76338H15.0832C14.8623 9.76338 14.6832 9.94246 14.6832 10.1634V10.5593C14.6832 10.7802 14.8623 10.9593 15.0832 10.9593H19.0565C19.2774 10.9593 19.4565 11.1384 19.4565 11.3593V11.4815C19.4565 11.7025 19.2774 11.8815 19.0565 11.8815H15.0832C14.8623 11.8815 14.6832 12.0606 14.6832 12.2815V12.6497C14.6832 12.8707 14.8623 13.0497 15.0832 13.0497H19.0565C19.2774 13.0497 19.4565 13.2288 19.4565 13.4497V13.5711C19.4565 13.792 19.2774 13.9711 19.0565 13.9711H15.0832C14.8623 13.9711 14.6832 14.1502 14.6832 14.3711V14.767C14.6832 14.988 14.8623 15.167 15.0832 15.167H19.0565C19.2774 15.167 19.4565 15.3461 19.4565 15.567V15.7032C19.4565 15.9241 19.2774 16.1032 19.0565 16.1032H15.0832C14.8623 16.1032 14.6832 16.2822 14.6832 16.5032V16.8705C14.6832 17.0914 14.8623 17.2705 15.0832 17.2705H19.0599C19.2808 17.2705 19.4599 17.4496 19.4599 17.6705V17.8594C19.4599 18.0803 19.2808 18.2594 19.0599 18.2594H15.0867C14.8658 18.2594 14.6867 18.4385 14.6867 18.6594V19.9378C14.6867 20.1587 14.8658 20.3378 15.0867 20.3378H20.8282C20.9478 20.3379 21.0644 20.2996 21.1606 20.2285L21.1624 20.2269C21.207 20.1909 21.2429 20.1453 21.2676 20.0937C21.2923 20.042 21.3052 19.9854 21.3053 19.9281V10.166C21.3053 9.94506 21.4844 9.76598 21.7053 9.76598H22.4874C22.6153 9.76618 22.7394 9.72246 22.8389 9.64214L22.8398 9.64128C22.8897 9.60211 22.93 9.55215 22.9577 9.49515C22.9855 9.43815 22.9999 9.3756 23 9.31221V6.00939C22.9996 5.94585 22.9849 5.88321 22.957 5.8261C22.9291 5.769 22.8897 5.71888 22.8398 5.67946Z" fill="url(#paint3_linear_41_146)"/>
</g>
<defs>
<linearGradient id="paint0_linear_41_146" x1="7.25491" y1="2" x2="7.25491" y2="22.7833" gradientUnits="userSpaceOnUse">
<stop stop-color="#DC18FC"/>
<stop offset="1" stop-color="#8E1EFF"/>
</linearGradient>
<linearGradient id="paint1_linear_41_146" x1="18.8416" y1="4.36145" x2="18.8416" y2="20.3378" gradientUnits="userSpaceOnUse">
<stop stop-color="#DC18FC"/>
<stop offset="1" stop-color="#8E1EFF"/>
</linearGradient>
<linearGradient id="paint2_linear_41_146" x1="18.8416" y1="4.36145" x2="18.8416" y2="20.3378" gradientUnits="userSpaceOnUse">
<stop stop-color="#DC18FC"/>
<stop offset="1" stop-color="#8E1EFF"/>
</linearGradient>
<linearGradient id="paint3_linear_41_146" x1="18.8416" y1="4.36145" x2="18.8416" y2="20.3378" gradientUnits="userSpaceOnUse">
<stop stop-color="#DC18FC"/>
<stop offset="1" stop-color="#8E1EFF"/>
</linearGradient>
</defs>
</svg>
