<svg width="128" height="128" viewBox="0 0 128 128" fill="none" xmlns="http://www.w3.org/2000/svg">
<path opacity="0.4" d="M11 38C11 22.536 23.536 10 39 10H69C95.5097 10 117 31.4903 117 58V90C117 105.464 104.464 118 89 118H39C23.536 118 11 105.464 11 90V38Z" fill="url(#paint0_linear_59_635)"/>
<path fill-rule="evenodd" clip-rule="evenodd" d="M116.624 52H89C81.268 52 75 45.732 75 38V10.4048C96.7012 13.1109 113.903 30.3034 116.624 52Z" fill="url(#paint1_linear_59_635)"/>
<path fill-rule="evenodd" clip-rule="evenodd" d="M21.4768 63.4357C21.274 63.542 21.0608 63.6538 21.02 63.872C21.0115 63.9178 21.0048 63.9681 21 64.0242V64.071C21 64.0866 21.0646 64.8393 21.1938 66.3281C21.323 67.8017 21.3876 69.5491 21.3876 71.5715C21.3876 71.7881 21.4184 71.9671 21.4801 72.1091C21.5322 72.2286 21.6353 72.3149 21.7419 72.3905L35.1453 81.8695C35.4166 82.0578 35.6621 82.152 35.8816 82.152C36.1142 82.152 36.2757 82.0027 36.3661 81.7052C37.2878 78.3647 38.0714 75.9793 38.7169 74.5481C38.7637 74.4442 38.8027 74.3369 38.8171 74.2237C38.8237 74.172 38.827 74.1266 38.827 74.0866C38.827 74.0086 38.6913 73.8832 38.42 73.7105C38.1488 73.5227 36.7214 72.6452 34.1377 71.0773C33.9738 70.9764 33.8145 70.8783 33.6598 70.783C33.0963 70.4359 32.5942 70.1267 32.1534 69.8549C31.1599 69.2422 31.2595 67.7847 32.3252 67.3086L38.1466 64.7076C38.1791 64.6931 38.2136 64.6803 38.2483 64.6674C38.366 64.6236 38.4857 64.5791 38.5345 64.4691C38.5635 64.4037 38.582 64.3159 38.5899 64.2061C38.5964 64.1164 38.5861 64.0266 38.5703 63.9383C38.3082 62.4617 38.0644 59.9666 37.8388 56.4534C37.8258 56.2495 37.7031 56.1476 37.4706 56.1476C37.2381 56.1476 36.8311 56.2808 36.2498 56.5471C35.6814 56.8134 33.3497 57.8715 29.2547 59.7213C25.5099 61.4037 22.9501 62.6242 21.5753 63.3832C21.5433 63.4009 21.5102 63.4182 21.4768 63.4357ZM47.6639 84.5437L62.8351 46.8837L63.4746 45.0495L63.5088 44.9691C63.8581 44.1452 63.3927 43.2037 62.5259 42.9808L58.8946 42.0466C58.1961 41.8671 57.4722 42.2188 57.1888 42.8822C53.6063 51.2627 48.2132 64.4305 41.0102 82.3852C40.6839 83.1983 41.1395 84.1159 41.9854 84.3442L45.9249 85.4095C46.64 85.6032 47.3873 85.231 47.6639 84.5437ZM81 64.0876C81 64.0451 80.9985 64.0032 80.9932 63.9613C80.9888 63.9247 80.9834 63.8905 80.9766 63.8588C80.9329 63.651 80.7286 63.5481 80.5317 63.4488C80.4886 63.4271 80.4459 63.4056 80.4054 63.3832C79.0293 62.6242 76.4629 61.4037 72.7063 59.7213C68.6244 57.8715 66.2932 56.8134 65.7117 56.5471C65.1429 56.2808 64.7424 56.1476 64.5102 56.1476C64.2776 56.1476 64.1551 56.2495 64.1419 56.4534C63.9166 59.9661 63.6722 62.4617 63.4102 63.9383C63.3946 64.0266 63.3844 64.1164 63.3907 64.2061C63.3985 64.3159 63.4171 64.4037 63.4459 64.4691C63.4946 64.579 63.6137 64.6234 63.7309 64.6671C63.7662 64.6802 63.8012 64.6933 63.8341 64.7081L69.6249 67.2949C70.6966 67.7739 70.7956 69.2515 69.7941 69.8642C68.2873 70.7856 66.2093 72.0525 63.5605 73.6637C63.2893 73.8208 63.1537 73.9539 63.1537 74.0632C63.1537 74.1213 63.1581 74.1847 63.1678 74.2539C63.181 74.3466 63.2112 74.4359 63.2473 74.5227C63.7693 75.7759 64.2615 77.1817 64.7229 78.7427C65.201 80.3569 65.4917 81.3291 65.5951 81.6578C65.6985 81.9866 65.8405 82.152 66.0215 82.152C66.2024 82.152 66.4737 82.0578 66.8351 81.8695L80.3415 72.3237C80.5088 72.1822 80.5932 71.932 80.5932 71.5715C80.6063 69.5491 80.7415 67.073 81 64.1417V64.0876ZM29 95C27.9391 95 26.9217 95.4214 26.1716 96.1716C25.4214 96.9217 25 97.9391 25 99C25 100.061 25.4214 101.078 26.1716 101.828C26.9217 102.579 27.9391 103 29 103H68.3333C69.3942 103 70.4116 102.579 71.1618 101.828C71.9119 101.078 72.3333 100.061 72.3333 99C72.3333 97.9391 71.9119 96.9217 71.1618 96.1716C70.4116 95.4214 69.3942 95 68.3333 95H29Z" fill="url(#paint2_linear_59_635)"/>
<defs>
<linearGradient id="paint0_linear_59_635" x1="64" y1="118" x2="64" y2="10" gradientUnits="userSpaceOnUse">
<stop stop-color="#5570FF"/>
<stop offset="1" stop-color="#4DD3FF"/>
</linearGradient>
<linearGradient id="paint1_linear_59_635" x1="95.8122" y1="52" x2="95.8122" y2="10.4048" gradientUnits="userSpaceOnUse">
<stop stop-color="#5570FF"/>
<stop offset="1" stop-color="#4DD3FF"/>
</linearGradient>
<linearGradient id="paint2_linear_59_635" x1="51" y1="103" x2="51" y2="42" gradientUnits="userSpaceOnUse">
<stop stop-color="#5570FF"/>
<stop offset="1" stop-color="#4DD3FF"/>
</linearGradient>
</defs>
</svg>
