<svg width="128" height="128" viewBox="0 0 128 128" fill="none" xmlns="http://www.w3.org/2000/svg">
<path opacity="0.4" d="M11 38C11 22.536 23.536 10 39 10H69C95.5097 10 117 31.4903 117 58V90C117 105.464 104.464 118 89 118H39C23.536 118 11 105.464 11 90V38Z" fill="url(#paint0_linear_68_333)"/>
<path fill-rule="evenodd" clip-rule="evenodd" d="M116.624 52H89C81.268 52 75 45.732 75 38V10.4048C96.7012 13.1109 113.903 30.3034 116.624 52Z" fill="url(#paint1_linear_68_333)"/>
<path d="M31.1716 79.7316C31.9217 78.9815 32.9391 78.5601 34 78.5601H76.6667C77.7275 78.5601 78.7449 78.9815 79.4951 79.7316C80.2452 80.4818 80.6667 81.4992 80.6667 82.5601C80.6667 83.6209 80.2452 84.6383 79.4951 85.3885C78.7449 86.1386 77.7275 86.5601 76.6667 86.5601H34C32.9391 86.5601 31.9217 86.1386 31.1716 85.3885C30.4214 84.6383 30 83.6209 30 82.5601C30 81.4992 30.4214 80.4818 31.1716 79.7316Z" fill="url(#paint2_linear_68_333)"/>
<path d="M31.1716 96.3983C31.9217 95.6482 32.9391 95.2267 34 95.2267H63.3333C64.3942 95.2267 65.4116 95.6482 66.1618 96.3983C66.9119 97.1484 67.3333 98.1659 67.3333 99.2267C67.3333 100.288 66.9119 101.305 66.1618 102.055C65.4116 102.805 64.3942 103.227 63.3333 103.227H34C32.9391 103.227 31.9217 102.805 31.1716 102.055C30.4214 101.305 30 100.288 30 99.2267C30 98.1659 30.4214 97.1484 31.1716 96.3983Z" fill="url(#paint3_linear_68_333)"/>
<path fill-rule="evenodd" clip-rule="evenodd" d="M62.2242 54.844C62.8681 55.186 63.3647 55.726 63.7142 56.266C64.3949 57.382 64.3397 58.75 63.6774 59.956L62.3898 62.116C61.7092 63.268 60.4399 63.988 59.1338 63.988C58.49 63.988 57.7726 63.808 57.1839 63.448C56.7057 63.142 56.1538 63.034 55.5651 63.034C53.744 63.034 52.2172 64.528 52.162 66.31C52.162 68.38 50.4697 70 48.3542 70H45.8525C43.7186 70 42.0263 68.38 42.0263 66.31C41.9895 64.528 40.4627 63.034 38.6415 63.034C38.0345 63.034 37.4826 63.142 37.0228 63.448C36.4341 63.808 35.6983 63.988 35.0729 63.988C33.7484 63.988 32.4791 63.268 31.7985 62.116L30.5292 59.956C29.8486 58.786 29.8118 57.382 30.4924 56.266C30.7868 55.726 31.3386 55.186 31.9641 54.844C32.4791 54.592 32.8102 54.178 33.123 53.692C34.0427 52.144 33.4909 50.11 31.9273 49.192C30.1061 48.166 29.5175 45.88 30.566 44.098L31.7985 41.974C32.8654 40.192 35.1464 39.562 36.986 40.606C38.5863 41.47 40.665 40.894 41.6032 39.364C41.8975 38.86 42.063 38.32 42.0263 37.78C41.9895 37.078 42.1918 36.412 42.5413 35.872C43.2219 34.756 44.4544 34.036 45.7973 34H48.391C49.7523 34 50.9847 34.756 51.6654 35.872C51.9965 36.412 52.2172 37.078 52.162 37.78C52.1252 38.32 52.2908 38.86 52.5851 39.364C53.5233 40.894 55.6019 41.47 57.2207 40.606C59.0418 39.562 61.3412 40.192 62.3898 41.974L63.6223 44.098C64.6892 45.88 64.1005 48.166 62.261 49.192C60.6974 50.11 60.1456 52.144 61.0837 53.692C61.378 54.178 61.7092 54.592 62.2242 54.844ZM41.8975 52.0179C41.8975 54.8439 44.2337 57.0939 47.1217 57.0939C50.0098 57.0939 52.2908 54.8439 52.2908 52.0179C52.2908 49.1919 50.0098 46.9239 47.1217 46.9239C44.2337 46.9239 41.8975 49.1919 41.8975 52.0179Z" fill="url(#paint4_linear_68_333)"/>
<defs>
<linearGradient id="paint0_linear_68_333" x1="64" y1="118" x2="64" y2="10" gradientUnits="userSpaceOnUse">
<stop stop-color="#FDA700"/>
<stop offset="1" stop-color="#FFDE00"/>
</linearGradient>
<linearGradient id="paint1_linear_68_333" x1="95.8122" y1="52" x2="95.8122" y2="10.4048" gradientUnits="userSpaceOnUse">
<stop stop-color="#FDA700"/>
<stop offset="1" stop-color="#FFDE00"/>
</linearGradient>
<linearGradient id="paint2_linear_68_333" x1="55.3333" y1="103.227" x2="55.3333" y2="78.5601" gradientUnits="userSpaceOnUse">
<stop stop-color="#FD5900"/>
<stop offset="1" stop-color="#FFDE00"/>
</linearGradient>
<linearGradient id="paint3_linear_68_333" x1="55.3333" y1="103.227" x2="55.3333" y2="78.5601" gradientUnits="userSpaceOnUse">
<stop stop-color="#FD5900"/>
<stop offset="1" stop-color="#FFDE00"/>
</linearGradient>
<linearGradient id="paint4_linear_68_333" x1="47.1" y1="70" x2="47.1" y2="34" gradientUnits="userSpaceOnUse">
<stop stop-color="#FDA700"/>
<stop offset="1" stop-color="#FFDE00"/>
</linearGradient>
</defs>
</svg>
