<svg width="128" height="128" viewBox="0 0 128 128" fill="none" xmlns="http://www.w3.org/2000/svg">
<path opacity="0.4" d="M11 38C11 22.536 23.536 10 39 10H69C95.5097 10 117 31.4903 117 58V90C117 105.464 104.464 118 89 118H39C23.536 118 11 105.464 11 90V38Z" fill="url(#paint0_linear_59_462)"/>
<path fill-rule="evenodd" clip-rule="evenodd" d="M116.624 52H89C81.268 52 75 45.732 75 38V10.4048C96.7012 13.1109 113.903 30.3034 116.624 52Z" fill="url(#paint1_linear_59_462)"/>
<path fill-rule="evenodd" clip-rule="evenodd" d="M28.3927 67.4401C26.1122 65.1589 24.4708 62.3189 23.6326 59.2041C22.7945 56.0894 22.7891 52.8091 23.6168 49.6916C24.4446 46.574 26.0766 43.7285 28.3495 41.4398C30.6224 39.1511 33.4565 37.4994 36.5682 36.6501C39.6799 35.8007 42.9601 35.7834 46.0807 36.5999C49.2012 37.4164 52.0525 39.0381 54.3494 41.3027C56.6463 43.5673 58.3082 46.3954 59.1689 49.5041C60.0295 52.6127 60.0586 55.8928 59.2534 59.0163C59.0001 60.0002 59.2267 61.0642 59.9414 61.7815L69.8425 71.68C70.2608 72.0986 70.5796 72.606 70.7754 73.1645C70.9711 73.723 71.0387 74.3184 70.9731 74.9066L70.3545 80.4771C70.2878 81.0718 70.0212 81.6238 69.5998 82.0478L69.0452 82.6024C68.6225 83.025 68.0686 83.2912 67.4745 83.3571L61.904 83.9757C61.3158 84.0413 60.7204 83.9737 60.1619 83.778C59.6034 83.5822 59.096 83.2634 58.6774 82.8451L56.7841 80.9518L53.9575 78.1225L48.7789 72.944C48.059 72.224 46.9976 72.0027 46.0137 72.256C42.9114 73.0558 39.6541 73.0323 36.5638 72.1877C33.4734 71.343 30.6569 69.7066 28.3927 67.4401ZM37.8939 50.896C38.3859 50.3867 38.9743 49.9804 39.625 49.7009C40.2757 49.4214 40.9755 49.2742 41.6837 49.2681C42.3918 49.2619 43.0941 49.3969 43.7495 49.665C44.4049 49.9332 45.0004 50.3292 45.5012 50.8299C46.0019 51.3307 46.3979 51.9262 46.6661 52.5816C46.9342 53.237 47.0692 53.9393 47.063 54.6474C47.0569 55.3556 46.9097 56.0554 46.6302 56.7061C46.3507 57.3568 45.9444 57.9452 45.4351 58.4372C44.4292 59.4087 43.082 59.9463 41.6837 59.9341C40.2853 59.922 38.9477 59.3611 37.9588 58.3723C36.97 57.3834 36.4091 56.0458 36.397 54.6474C36.3848 53.2491 36.9224 51.9019 37.8939 50.896ZM61.4427 76.3462L56.7868 80.9514L53.9602 78.1221L58.6294 73.5009C58.815 73.3111 59.0364 73.1601 59.2809 73.0568C59.5254 72.9534 59.788 72.8997 60.0534 72.8989C60.3189 72.8981 60.5818 72.9501 60.8269 73.0519C61.072 73.1538 61.2944 73.3034 61.4812 73.492C61.6679 73.6807 61.8152 73.9046 61.9144 74.1508C62.0137 74.397 62.063 74.6604 62.0594 74.9258C62.0559 75.1912 61.9995 75.4533 61.8936 75.6967C61.7877 75.9401 61.6344 76.1626 61.4427 76.3462ZM29 102C27.9391 102 26.9217 101.579 26.1716 100.828C25.4214 100.078 25 99.0609 25 98C25 96.9391 25.4214 95.9217 26.1716 95.1716C26.9217 94.4214 27.9391 94 29 94H69.6667C70.7275 94 71.7449 94.4214 72.4951 95.1716C73.2452 95.9217 73.6667 96.9391 73.6667 98C73.6667 99.0609 73.2452 100.078 72.4951 100.828C71.7449 101.579 70.7275 102 69.6667 102H29Z" fill="url(#paint2_linear_59_462)"/>
<defs>
<linearGradient id="paint0_linear_59_462" x1="64" y1="118" x2="64" y2="10" gradientUnits="userSpaceOnUse">
<stop stop-color="#FF1B71"/>
<stop offset="0.9998" stop-color="#FF867E"/>
<stop offset="0.9999" stop-color="#FF6678"/>
</linearGradient>
<linearGradient id="paint1_linear_59_462" x1="116.501" y1="10.6685" x2="75.2347" y2="51.6201" gradientUnits="userSpaceOnUse">
<stop stop-color="#FE7970"/>
<stop offset="1" stop-color="#DC3282"/>
</linearGradient>
<linearGradient id="paint2_linear_59_462" x1="73.5165" y1="36.4184" x2="10.3986" y2="84.4692" gradientUnits="userSpaceOnUse">
<stop stop-color="#FE7970"/>
<stop offset="1" stop-color="#DC3282"/>
</linearGradient>
</defs>
</svg>
