<svg width="128" height="128" viewBox="0 0 128 128" fill="none" xmlns="http://www.w3.org/2000/svg">
<path opacity="0.4" d="M11 38C11 22.536 23.536 10 39 10H89C104.464 10 117 22.536 117 38V90C117 105.464 104.464 118 89 118H39C23.536 118 11 105.464 11 90V38Z" fill="url(#paint0_linear_59_973)"/>
<path d="M41.4823 79.8674C40.7789 81.1311 40.2186 83.0337 40.2186 84.2319C40.2186 84.2657 40.2186 84.3005 40.2187 84.3365C40.2194 84.556 39.8846 84.6615 39.7743 84.4718L31.4912 70.2286C31.2093 69.7381 31 69.0332 31 68.3993C31 67.7638 31.21 66.9917 31.4912 66.4996L35.6144 59.2852C35.6693 59.1891 35.6357 59.0666 35.5393 59.012L31.6358 56.799C31.4587 56.6986 31.5272 56.4288 31.7307 56.425L46.2198 56.1568C46.2938 56.1555 46.3625 56.1951 46.3984 56.2598L53.4496 68.9665C53.5479 69.1436 53.3509 69.3378 53.1752 69.2371L49.1868 66.9497C49.0913 66.8949 48.9694 66.9277 48.9142 67.0231L41.4815 79.8691L41.4823 79.8674ZM48.2379 37.2251C49.5739 34.9003 51.7576 33.6338 54.4294 33.6338C57.3135 33.6338 59.5689 34.972 61.1859 37.7133L63.5193 41.623C63.5565 41.6853 63.557 41.7629 63.5207 41.8257L55.3747 55.9078C55.3193 56.0035 55.1967 56.0361 55.1011 55.9805L42.0074 48.3709C41.912 48.3154 41.8795 48.1931 41.9349 48.0976L48.2379 37.2251ZM49.22 92.039C49.2201 92.0389 49.2201 92.0387 49.2199 92.0387C45.2097 92.0384 41.9038 88.7311 41.9038 84.7207C41.9038 83.5947 42.3979 81.6938 43.1013 80.4984L45.293 76.5899C45.3284 76.5268 45.3951 76.4877 45.4675 76.4877H61.8297C61.9401 76.4877 62.0297 76.5773 62.0297 76.6877V91.8393C62.0297 91.9497 61.9401 92.0393 61.8297 92.0393H49.2201C49.2199 92.0393 49.2198 92.0391 49.22 92.039V92.039ZM62.5918 36.8013C61.7298 35.3075 60.6315 34.1861 59.3363 33.4417C59.1468 33.3328 59.2214 33 59.44 33H75.7526C77.3013 33 78.4961 33.635 79.2022 34.8326L83.3923 41.9769C83.4484 42.0725 83.5714 42.1043 83.6667 42.0479L87.4995 39.7806C87.6752 39.6767 87.8754 39.8719 87.7759 40.0502L80.734 52.6719C80.6981 52.7361 80.63 52.7755 80.5565 52.7744L66.1438 52.5714C65.9398 52.5686 65.8705 52.298 66.048 52.1974L69.9453 49.9884C70.0418 49.9337 70.0753 49.8109 70.02 49.7147L62.5907 36.799L62.5918 36.8013ZM89.2604 76.6237C90.9911 76.6237 92.4876 76.2442 93.7848 75.4868C93.9732 75.3768 94.2224 75.6054 94.1137 75.7946L85.879 90.1344C85.1758 91.3298 83.9109 92.0342 82.4339 92.0342H74.3987C74.2882 92.0342 74.1987 92.1237 74.1987 92.2342V96.7281C74.1987 96.9311 73.9314 97.005 73.8271 96.8309L66.3801 84.3973C66.3422 84.334 66.3422 84.255 66.3801 84.1918L73.8271 71.7533C73.9314 71.5792 74.1987 71.6531 74.1987 71.856V76.4237C74.1987 76.5342 74.2882 76.6237 74.3987 76.6237H89.2604ZM96.0117 63.9568C96.6467 65.0834 97 66.2782 97 67.5453C97 70.0789 95.3796 72.7536 93.1305 74.0184C92.0733 74.5846 90.5934 74.9379 89.1198 74.9379H84.5868C84.5154 74.9379 84.4494 74.8998 84.4136 74.838L76.272 60.7541C76.2165 60.6581 76.2497 60.5353 76.346 60.4803L89.4388 53.0077C89.5343 52.9532 89.6559 52.986 89.711 53.0812L96.0117 63.9568Z" fill="url(#paint1_linear_59_973)"/>
<defs>
<linearGradient id="paint0_linear_59_973" x1="64" y1="118" x2="64" y2="10" gradientUnits="userSpaceOnUse">
<stop stop-color="#00B59C"/>
<stop offset="1" stop-color="#9CFFAC"/>
</linearGradient>
<linearGradient id="paint1_linear_59_973" x1="31" y1="65.2256" x2="97" y2="65.2256" gradientUnits="userSpaceOnUse">
<stop stop-color="#02AA93"/>
<stop offset="1" stop-color="#67FF80"/>
</linearGradient>
</defs>
</svg>
