<svg width="128" height="128" viewBox="0 0 128 128" fill="none" xmlns="http://www.w3.org/2000/svg">
<path opacity="0.4" d="M11 38C11 22.536 23.536 10 39 10H89C104.464 10 117 22.536 117 38V90C117 105.464 104.464 118 89 118H39C23.536 118 11 105.464 11 90V38Z" fill="url(#paint0_linear_91_67)"/>
<path fill-rule="evenodd" clip-rule="evenodd" d="M64 30C45.4656 30 30.4419 45.0237 30.4419 63.558V68.6947C29.9184 69.8004 29.7135 71.1374 29.6334 73.0242C29.4979 73.0214 29.3619 73.0294 29.2268 73.0482C28.8178 73.1047 28.4284 73.2587 28.0912 73.4972C27.754 73.7357 27.4789 74.0515 27.289 74.4182C27.0992 74.7848 27.0001 75.1918 27 75.6045V82.4885C27 83.173 27.272 83.8296 27.7561 84.3136C28.2402 84.7977 28.8968 85.0698 29.5814 85.0698C29.5822 85.0698 29.583 85.0698 29.5839 85.0698C29.5986 88.872 29.7213 90.961 30.7452 92.6179C31.1823 93.3233 31.7296 93.9604 32.3663 94.5006C34.07 95.9563 36.555 96.4108 41.5286 97.3159C45.0255 97.9564 46.7774 98.2762 48.0681 97.6018C48.543 97.3539 48.963 97.0166 49.3072 96.6139C50.233 95.516 50.233 93.7986 50.233 90.367V70.614C50.233 67.6883 50.233 66.2292 49.5102 65.2103C49.1428 64.696 48.6609 64.2742 48.1025 63.9782C46.9839 63.3792 45.4764 63.5171 42.4579 63.7956C39.3728 64.0751 37.2245 64.2711 35.6047 64.6643V63.558C35.6047 56.0272 38.5963 48.8047 43.9214 43.4796C49.2466 38.1544 56.4691 35.1628 64 35.1628C71.5308 35.1628 78.7532 38.1544 84.0786 43.4796C89.4039 48.8047 92.3955 56.0272 92.3955 63.558V64.6641C90.7757 64.271 88.6275 64.075 85.5431 63.7956C82.5246 63.5171 81.017 63.3792 79.8982 63.9782C79.3338 64.2776 78.8521 64.7011 78.4905 65.2103C77.7677 66.2292 77.7677 67.6883 77.7677 70.614V90.367C77.7677 93.7986 77.7677 95.516 78.6937 96.6139C79.0388 97.0206 79.4596 97.3559 79.9329 97.6018C81.2235 98.2762 82.9753 97.9564 86.4725 97.3159C91.4459 96.4108 93.9306 95.9563 95.6347 94.5006C96.2714 93.9604 96.8187 93.3233 97.2556 92.6179C98.2796 90.961 98.4024 88.872 98.4171 85.0698C98.4176 85.0698 98.4182 85.0698 98.4187 85.0698C99.1032 85.0698 99.7598 84.7977 100.244 84.3136C100.728 83.8296 101 83.173 101 82.4885V75.6045C101 75.1918 100.901 74.7848 100.711 74.4182C100.521 74.0515 100.246 73.7357 99.9088 73.4972C99.5718 73.2587 99.1823 73.1047 98.7733 73.0482C98.6385 73.0294 98.5028 73.0215 98.3676 73.0241C98.2874 71.1349 98.0824 69.7965 97.558 68.6915V63.558C97.558 45.0237 82.5343 30 64 30Z" fill="url(#paint1_linear_91_67)"/>
<defs>
<linearGradient id="paint0_linear_91_67" x1="64" y1="118" x2="64" y2="10" gradientUnits="userSpaceOnUse">
<stop stop-color="#A93AFF"/>
<stop offset="1" stop-color="#FF81FF"/>
</linearGradient>
<linearGradient id="paint1_linear_91_67" x1="64.0003" y1="97.9772" x2="64.0003" y2="63.5578" gradientUnits="userSpaceOnUse">
<stop stop-color="#A93AFF"/>
<stop offset="1" stop-color="#FF81FF"/>
</linearGradient>
</defs>
</svg>
