<svg width="128" height="128" viewBox="0 0 128 128" fill="none" xmlns="http://www.w3.org/2000/svg">
<path opacity="0.4" d="M11 38C11 22.536 23.536 10 39 10H89C104.464 10 117 22.536 117 38V90C117 105.464 104.464 118 89 118H39C23.536 118 11 105.464 11 90V38Z" fill="url(#paint0_linear_59_607)"/>
<path d="M64 31C45.8745 31 31 45.8748 31 64C31 82.1253 45.8745 97 64 97C82.1253 97 97 82.1253 97 64C97 45.8748 82.1253 31 64 31ZM64 93.1328C48.0063 93.1328 34.8672 79.9937 34.8672 64C34.8672 48.0063 48.0063 34.8672 64 34.8672C79.9937 34.8672 93.1328 48.0063 93.1328 64C93.1328 79.9937 79.9937 93.1328 64 93.1328ZM56.4827 81.8138C54.183 80.8393 52.1133 79.444 50.3349 77.6651C48.5559 75.8867 47.1605 73.817 46.1861 71.5173C45.7706 70.5314 44.6263 70.0725 43.652 70.4902C42.6682 70.9053 42.2095 72.0401 42.6248 73.024C43.7935 75.7846 45.4666 78.2658 47.6004 80.3994C49.7342 82.5336 52.2154 84.2063 54.976 85.3752C55.9583 85.7913 57.0948 85.3324 57.5098 84.3476C57.9254 83.3643 57.4665 82.2294 56.4827 81.8138ZM85.3752 54.976C84.2063 52.2154 82.5336 49.7342 80.3994 47.6C78.2658 45.4664 75.7846 43.7937 73.024 42.6248C72.0458 42.2112 70.9053 42.6645 70.4902 43.6519C70.0746 44.6357 70.5335 45.7706 71.5173 46.1857C73.817 47.1602 75.8867 48.556 77.6651 50.3344C79.444 52.1133 80.8393 54.183 81.8138 56.4827C82.2304 57.4696 83.3684 57.9244 84.3481 57.5098C85.3319 57.0947 85.7908 55.9599 85.3752 54.976ZM64 50.4648C56.5374 50.4648 50.4648 56.5374 50.4648 64C50.4648 71.4626 56.5374 77.5352 64 77.5352C71.4626 77.5352 77.5352 71.4626 77.5352 64C77.5352 56.5374 71.4626 50.4648 64 50.4648ZM64 73.668C58.6695 73.668 54.332 69.3305 54.332 64C54.332 58.6695 58.6695 54.332 64 54.332C69.3305 54.332 73.668 58.6695 73.668 64C73.668 69.3305 69.3305 73.668 64 73.668ZM64 58.1992C60.8011 58.1992 58.1992 60.8011 58.1992 64C58.1992 67.1989 60.8011 69.8008 64 69.8008C67.1989 69.8008 69.8008 67.1989 69.8008 64C69.8008 60.8011 67.1989 58.1992 64 58.1992ZM64 65.9336C62.9332 65.9336 62.0664 65.0668 62.0664 64C62.0664 62.9332 62.9332 62.0664 64 62.0664C65.0668 62.0664 65.9336 62.9332 65.9336 64C65.9336 65.0668 65.0668 65.9336 64 65.9336Z" fill="url(#paint1_linear_59_607)" stroke="url(#paint2_linear_59_607)" stroke-width="3"/>
<defs>
<linearGradient id="paint0_linear_59_607" x1="64" y1="118" x2="64" y2="10" gradientUnits="userSpaceOnUse">
<stop stop-color="#00B59C"/>
<stop offset="1" stop-color="#9CFFAC"/>
</linearGradient>
<linearGradient id="paint1_linear_59_607" x1="64" y1="97" x2="64" y2="31" gradientUnits="userSpaceOnUse">
<stop stop-color="#02AA93"/>
<stop offset="1" stop-color="#67FF80"/>
</linearGradient>
<linearGradient id="paint2_linear_59_607" x1="64" y1="97" x2="64" y2="31" gradientUnits="userSpaceOnUse">
<stop stop-color="#02AA93"/>
<stop offset="1" stop-color="#67FF80"/>
</linearGradient>
</defs>
</svg>
