<svg width="128" height="128" viewBox="0 0 128 128" fill="none" xmlns="http://www.w3.org/2000/svg">
<path opacity="0.4" d="M11 38C11 22.536 23.536 10 39 10H89C104.464 10 117 22.536 117 38V90C117 105.464 104.464 118 89 118H39C23.536 118 11 105.464 11 90V38Z" fill="url(#paint0_linear_66_69)"/>
<path d="M48.2863 32C44.804 32 42 34.7491 42 38.1617V56.6383C42 60.0509 44.804 62.8 48.2863 62.8H79.7137C83.196 62.8 86 60.0509 86 56.6383V38.1617C86 34.7491 83.196 32 79.7137 32H48.2863ZM51.6809 38.6H76.3191C78.0255 38.6 79.4 39.9097 79.4 41.5348V53.2652C79.4 54.8903 78.0255 56.2 76.3191 56.2H51.6809C49.9745 56.2 48.6 54.8903 48.6 53.2652V41.5348C48.6 39.9097 49.9745 38.6 51.6809 38.6ZM48.2863 67.2C44.804 67.2 42 69.9491 42 73.3617V91.8383C42 95.2509 44.804 98 48.2863 98H79.7137C83.196 98 86 95.2509 86 91.8383V73.3617C86 69.9491 83.196 67.2 79.7137 67.2H48.2863ZM51.6809 73.8H76.3191C78.0255 73.8 79.4 75.1097 79.4 76.7348V88.4652C79.4 90.0903 78.0255 91.4 76.3191 91.4H51.6809C49.9745 91.4 48.6 90.0903 48.6 88.4652V76.7348C48.6 75.1097 49.9745 73.8 51.6809 73.8Z" fill="url(#paint1_linear_66_69)"/>
<defs>
<linearGradient id="paint0_linear_66_69" x1="64" y1="118" x2="64" y2="10" gradientUnits="userSpaceOnUse">
<stop stop-color="#A93AFF"/>
<stop offset="1" stop-color="#FF81FF"/>
</linearGradient>
<linearGradient id="paint1_linear_66_69" x1="64" y1="98" x2="64" y2="32" gradientUnits="userSpaceOnUse">
<stop stop-color="#A93AFF"/>
<stop offset="1" stop-color="#FF81FF"/>
</linearGradient>
</defs>
</svg>
