<svg width="128" height="128" viewBox="0 0 128 128" fill="none" xmlns="http://www.w3.org/2000/svg">
<path opacity="0.4" d="M11 38C11 22.536 23.536 10 39 10H69C95.5097 10 117 31.4903 117 58V90C117 105.464 104.464 118 89 118H39C23.536 118 11 105.464 11 90V38Z" fill="url(#paint0_linear_63_263)"/>
<path fill-rule="evenodd" clip-rule="evenodd" d="M116.624 52H89C81.268 52 75 45.732 75 38V10.4048C96.7012 13.1109 113.903 30.3034 116.624 52Z" fill="url(#paint1_linear_63_263)"/>
<path fill-rule="evenodd" clip-rule="evenodd" d="M35.8286 44.2754C35.8286 44.0287 36.0287 43.8286 36.2754 43.8286H61.7237C61.9704 43.8286 62.1705 44.0287 62.1705 44.2754V58.7147C62.1705 58.9615 61.9704 59.1616 61.7237 59.1616H36.2754C36.0287 59.1616 35.8286 58.9615 35.8286 58.7147V44.2754ZM66 67C68.2091 67 70 65.2091 70 63V40C70 37.7909 68.2091 36 66 36H32C29.7909 36 28 37.7909 28 40V63C28 65.2091 29.7909 67 32 67H66ZM32 78C30.9391 78 29.9217 78.4214 29.1716 79.1716C28.4214 79.9217 28 80.9391 28 82C28 83.0609 28.4214 84.0783 29.1716 84.8284C29.9217 85.5786 30.9391 86 32 86H74.6667C75.7275 86 76.7449 85.5786 77.4951 84.8284C78.2452 84.0783 78.6667 83.0609 78.6667 82C78.6667 80.9391 78.2452 79.9217 77.4951 79.1716C76.7449 78.4214 75.7275 78 74.6667 78H32ZM32 94.6667C30.9391 94.6667 29.9217 95.0881 29.1716 95.8382C28.4214 96.5884 28 97.6058 28 98.6667C28 99.7275 28.4214 100.745 29.1716 101.495C29.9217 102.245 30.9391 102.667 32 102.667H61.3333C62.3942 102.667 63.4116 102.245 64.1618 101.495C64.9119 100.745 65.3333 99.7275 65.3333 98.6667C65.3333 97.6058 64.9119 96.5884 64.1618 95.8382C63.4116 95.0881 62.3942 94.6667 61.3333 94.6667H32Z" fill="url(#paint2_linear_63_263)"/>
<defs>
<linearGradient id="paint0_linear_63_263" x1="64.3112" y1="140.001" x2="64.3112" y2="20.3161" gradientUnits="userSpaceOnUse">
<stop stop-color="#FDA700"/>
<stop offset="1" stop-color="#FFDE00"/>
</linearGradient>
<linearGradient id="paint1_linear_63_263" x1="95.9344" y1="60.4733" x2="95.9344" y2="14.3779" gradientUnits="userSpaceOnUse">
<stop stop-color="#FDA700"/>
<stop offset="1" stop-color="#FFDE00"/>
</linearGradient>
<linearGradient id="paint2_linear_63_263" x1="53.3333" y1="102.667" x2="53.3333" y2="36" gradientUnits="userSpaceOnUse">
<stop stop-color="#FDA700"/>
<stop offset="1" stop-color="#FFDE00"/>
</linearGradient>
</defs>
</svg>
