<svg width="128" height="128" viewBox="0 0 128 128" fill="none" xmlns="http://www.w3.org/2000/svg">
<path opacity="0.4" d="M11 38C11 22.536 23.536 10 39 10H69C95.5097 10 117 31.4903 117 58V90C117 105.464 104.464 118 89 118H39C23.536 118 11 105.464 11 90V38Z" fill="url(#paint0_linear_59_356)"/>
<path fill-rule="evenodd" clip-rule="evenodd" d="M116.624 52H89C81.268 52 75 45.732 75 38V10.4048C96.7012 13.1109 113.903 30.3034 116.624 52Z" fill="url(#paint1_linear_59_356)"/>
<path fill-rule="evenodd" clip-rule="evenodd" d="M23.7623 83.9846C24.3246 85.2357 25.3506 86.2195 26.6242 86.7289C27.8659 87.1472 29.2201 87.0795 30.4139 86.5394C32.4917 85.6834 34.563 83.684 36.4709 81.3971C38.9543 78.293 41.1831 74.9935 43.1356 71.5308C47.3993 70.2671 51.7654 69.3794 56.184 68.878C57.9224 71.1695 59.9198 73.2525 62.1365 75.0853C63.9595 76.5293 66.07 77.7185 68.2328 77.81C69.4108 77.8683 70.5772 77.5527 71.5651 76.9083C72.5645 76.2245 73.3631 75.2861 73.8781 74.1901C74.4727 73.0075 74.8256 71.766 74.7798 70.5115C74.7341 69.2177 74.2571 68.0678 73.473 67.1269C71.9963 65.3627 69.5788 64.5198 67.2004 64.0885C64.3174 63.6418 61.3923 63.5321 58.484 63.7618C56.0263 60.2874 53.8834 56.6007 52.0807 52.7455C53.7142 48.433 54.9295 44.3558 55.4784 41.0235C55.7071 39.5991 55.8312 38.24 55.7855 37.0116C55.7397 35.8224 55.5306 34.5679 54.9556 33.4963C54.6457 32.8924 54.2052 32.3651 53.6661 31.9526C53.127 31.5401 52.5028 31.2527 51.8389 31.1114C50.5191 30.8304 49.16 31.1114 47.9054 31.6145C45.4487 32.6011 44.1484 34.679 43.6583 36.992C43.1814 39.2136 43.397 41.801 43.9589 44.4146C44.6281 47.317 45.5687 50.15 46.7685 52.8762C44.7618 57.8668 42.4443 62.7268 39.8294 67.4274C36.4624 68.4877 33.2166 69.9004 30.146 71.6419C27.7219 73.0728 25.5787 74.7782 24.285 76.7841C22.9129 78.9142 22.4881 81.4494 23.7623 83.9846ZM32.6355 75.8628C33.5437 75.327 34.5499 74.8043 35.6346 74.3077C34.7159 75.6721 33.7348 76.9934 32.6943 78.2673C30.8647 80.4693 29.4403 81.6389 28.5452 82.0048C28.4709 82.0362 28.3944 82.0624 28.3165 82.0832C28.2773 82.0309 28.2119 81.9395 28.1466 81.7957C27.7807 81.0704 27.7938 80.3844 28.408 79.4369C29.1006 78.3654 30.4923 77.1304 32.6355 75.8628ZM52.9497 64.3564C50.7338 64.6876 48.5322 65.1083 46.3504 65.6175V65.611C47.5031 63.355 48.5925 61.0672 49.6174 58.7503C50.6482 60.6654 51.76 62.5358 52.9497 64.3564ZM62.3386 68.5644C63.3166 69.6265 64.2685 70.5195 65.1748 71.2367C66.743 72.4782 67.8342 72.8899 68.4288 72.9095C68.588 72.9303 68.7495 72.8957 68.8862 72.8114C69.158 72.5968 69.3696 72.3154 69.5004 71.9947C69.7327 71.5967 69.865 71.1483 69.8859 70.6879C69.8821 70.5344 69.8216 70.3877 69.716 70.2763C69.3762 69.8711 68.4092 69.2831 66.3314 68.9106C65.0117 68.6899 63.6766 68.5742 62.3386 68.5644ZM49.3332 45.6389C49.8815 43.8685 50.3169 42.065 50.6367 40.2394C50.8392 39.011 50.9176 37.9982 50.885 37.2011C50.8868 36.7613 50.8161 36.3242 50.6759 35.9073C50.349 35.9478 50.0298 36.0359 49.7284 36.1687C49.16 36.3974 48.6961 36.8613 48.4478 38.0178C48.1864 39.2724 48.2517 41.0823 48.7483 43.3888C48.9044 44.1107 49.0994 44.8651 49.3332 45.6389ZM27 102C25.9391 102 24.9217 101.579 24.1716 100.828C23.4214 100.078 23 99.0609 23 98C23 96.9391 23.4214 95.9217 24.1716 95.1716C24.9217 94.4214 25.9391 94 27 94H69.6667C70.7275 94 71.7449 94.4214 72.4951 95.1716C73.2452 95.9217 73.6667 96.9391 73.6667 98C73.6667 99.0609 73.2452 100.078 72.4951 100.828C71.7449 101.579 70.7275 102 69.6667 102H27Z" fill="url(#paint2_linear_59_356)"/>
<defs>
<linearGradient id="paint0_linear_59_356" x1="64" y1="118" x2="64" y2="10" gradientUnits="userSpaceOnUse">
<stop stop-color="#FF1B71"/>
<stop offset="0.9998" stop-color="#FF867E"/>
<stop offset="0.9999" stop-color="#FF6678"/>
</linearGradient>
<linearGradient id="paint1_linear_59_356" x1="95.8122" y1="10.4048" x2="95.8122" y2="52" gradientUnits="userSpaceOnUse">
<stop stop-color="#FC1878"/>
<stop offset="1" stop-color="#FF1E1E"/>
</linearGradient>
<linearGradient id="paint2_linear_59_356" x1="48.8919" y1="31" x2="48.8919" y2="102" gradientUnits="userSpaceOnUse">
<stop stop-color="#FC1878"/>
<stop offset="1" stop-color="#FF1E1E"/>
</linearGradient>
</defs>
</svg>
