<svg width="128" height="128" viewBox="0 0 128 128" fill="none" xmlns="http://www.w3.org/2000/svg">
<path opacity="0.4" d="M11 38C11 22.536 23.536 10 39 10H89C104.464 10 117 22.536 117 38V90C117 105.464 104.464 118 89 118H39C23.536 118 11 105.464 11 90V38Z" fill="url(#paint0_linear_68_358)"/>
<path fill-rule="evenodd" clip-rule="evenodd" d="M69.0934 31L43.966 60.7589C50.5104 61.8085 61.5624 70.0826 59.8952 81.0718C63.2909 72.9222 57.0549 62.9815 51.0662 58.9687L72.984 32.7911C71.8101 31.9267 70.8838 31.4939 69.0934 31ZM60.6402 33.0748C59.6629 33.0781 58.9297 33.2229 58.9682 33.2229L50.9423 42.4219C46.4353 42.6688 42.0518 42.9778 37.7912 43.4099C34.7659 43.7186 32.3581 46.1264 31.9259 49.3369C31.3085 54.9553 31 60.8825 31 66.9949C31 73.1071 31.3085 79.0343 31.9259 84.7144C32.3581 88.2961 34.766 90.0865 37.7912 90.6414C46.1878 91.9996 58.3511 90.7029 58.3511 79.1582C58.3511 68.3536 40.6316 63.7229 34.5807 66.6864L62.5486 33.2855C61.9003 33.1234 61.2266 33.073 60.6402 33.0748ZM79.7756 42.5797C79.3649 42.5579 78.9935 42.7697 78.8246 43.1446C76.7381 47.7772 63.2329 77.7677 61.8085 81.0712C60.4499 84.146 58.8013 86.7445 56.7551 88.6511C55.9289 89.4208 56.4791 91.7972 57.608 91.819C59.7072 91.8594 61.8222 91.8755 63.9696 91.8755C73.1678 91.8755 81.936 91.4434 90.1472 90.6408C93.1716 90.3321 95.6421 87.8625 96.0125 84.7138C96.6925 79.0337 97 73.1067 97 66.9943C97 60.882 96.6924 54.9549 96.0125 49.3364C95.6421 46.1259 93.1725 43.7181 90.1472 43.4094C86.7823 43.0613 83.3081 42.7676 79.7756 42.5797Z" fill="url(#paint1_linear_68_358)"/>
<defs>
<linearGradient id="paint0_linear_68_358" x1="64" y1="118" x2="64" y2="10" gradientUnits="userSpaceOnUse">
<stop stop-color="#E80058"/>
<stop offset="0.9997" stop-color="#FF001D"/>
<stop offset="0.9998" stop-color="#FF867E"/>
</linearGradient>
<linearGradient id="paint1_linear_68_358" x1="94.7703" y1="32.74" x2="72.4128" y2="93.6049" gradientUnits="userSpaceOnUse">
<stop stop-color="#FE0F7C"/>
<stop offset="1" stop-color="#DF0066"/>
</linearGradient>
</defs>
</svg>
