<svg width="128" height="128" viewBox="0 0 128 128" fill="none" xmlns="http://www.w3.org/2000/svg">
<path opacity="0.4" d="M11 38C11 22.536 23.536 10 39 10H69C95.5097 10 117 31.4903 117 58V90C117 105.464 104.464 118 89 118H39C23.536 118 11 105.464 11 90V38Z" fill="url(#paint0_linear_68_230)"/>
<path fill-rule="evenodd" clip-rule="evenodd" d="M89 52H116.624C113.903 30.3034 96.7012 13.1109 75 10.4048V38C75 45.732 81.268 52 89 52ZM27 78.56C25.9391 78.56 24.9217 78.9814 24.1716 79.7316C23.4214 80.4817 23 81.4991 23 82.56C23 83.6209 23.4214 84.6383 24.1716 85.3884C24.9217 86.1386 25.9391 86.56 27 86.56H69.6667C70.7275 86.56 71.7449 86.1386 72.4951 85.3884C73.2452 84.6383 73.6667 83.6209 73.6667 82.56C73.6667 81.4991 73.2452 80.4817 72.4951 79.7316C71.7449 78.9814 70.7275 78.56 69.6667 78.56H27ZM27 95.2267C25.9391 95.2267 24.9217 95.6481 24.1716 96.3982C23.4214 97.1484 23 98.1658 23 99.2267C23 100.288 23.4214 101.305 24.1716 102.055C24.9217 102.805 25.9391 103.227 27 103.227H56.3333C57.3942 103.227 58.4116 102.805 59.1618 102.055C59.9119 101.305 60.3333 100.288 60.3333 99.2267C60.3333 98.1658 59.9119 97.1484 59.1618 96.3982C58.4116 95.6481 57.3942 95.2267 56.3333 95.2267H27Z" fill="url(#paint1_linear_68_230)"/>
<path d="M28.1047 44C28.6569 44 29.1047 44.4477 29.1047 45V68.3953C29.1047 68.9476 28.6569 69.3954 28.1047 69.3954H24C23.4477 69.3954 23 68.9476 23 68.3954V45C23 44.4477 23.4477 44 24 44H28.1047Z" fill="url(#paint2_linear_68_230)"/>
<path d="M53.6221 44C54.1744 44 54.6221 44.4477 54.6221 45V68.3953C54.6221 68.9476 54.1744 69.3954 53.6221 69.3954H49.0993C48.7396 69.3954 48.4077 69.2022 48.2299 68.8895L41.4042 56.8817C40.8969 55.9891 39.5349 56.3492 39.5349 57.3758V68.3954C39.5349 68.9476 39.0872 69.3954 38.5349 69.3954H34.4128C33.8605 69.3954 33.4128 68.9476 33.4128 68.3954V45C33.4128 44.4477 33.8605 44 34.4128 44H38.9531C39.3127 44 39.6447 44.1931 39.8224 44.5058L46.6481 56.5137C47.1554 57.4062 48.5174 57.0462 48.5174 56.0195V45C48.5174 44.4477 48.9652 44 49.5174 44H53.6221Z" fill="url(#paint3_linear_68_230)"/>
<path d="M64 44C64.5523 44 65 44.4477 65 45V68.3953C65 68.9476 64.5523 69.3954 64 69.3954H59.8954C59.3431 69.3954 58.8954 68.9476 58.8954 68.3954V45C58.8954 44.4477 59.3431 44 59.8954 44H64Z" fill="url(#paint4_linear_68_230)"/>
<defs>
<linearGradient id="paint0_linear_68_230" x1="64" y1="118" x2="64" y2="10" gradientUnits="userSpaceOnUse">
<stop stop-color="#6981FF"/>
<stop offset="1" stop-color="#5DD7FF"/>
</linearGradient>
<linearGradient id="paint1_linear_68_230" x1="69.8122" y1="103.227" x2="69.8122" y2="10.4048" gradientUnits="userSpaceOnUse">
<stop stop-color="#5558FF"/>
<stop offset="1" stop-color="#00C0FF"/>
</linearGradient>
<linearGradient id="paint2_linear_68_230" x1="44" y1="69.3953" x2="44" y2="44" gradientUnits="userSpaceOnUse">
<stop stop-color="#5570FF"/>
<stop offset="1" stop-color="#4DD3FF"/>
</linearGradient>
<linearGradient id="paint3_linear_68_230" x1="44" y1="69.3953" x2="44" y2="44" gradientUnits="userSpaceOnUse">
<stop stop-color="#5570FF"/>
<stop offset="1" stop-color="#4DD3FF"/>
</linearGradient>
<linearGradient id="paint4_linear_68_230" x1="44" y1="69.3953" x2="44" y2="44" gradientUnits="userSpaceOnUse">
<stop stop-color="#5570FF"/>
<stop offset="1" stop-color="#4DD3FF"/>
</linearGradient>
</defs>
</svg>
