<svg width="128" height="128" viewBox="0 0 128 128" fill="none" xmlns="http://www.w3.org/2000/svg">
<path opacity="0.4" d="M11 38C11 22.536 23.536 10 39 10H89C104.464 10 117 22.536 117 38V90C117 105.464 104.464 118 89 118H39C23.536 118 11 105.464 11 90V38Z" fill="url(#paint0_linear_59_457)"/>
<path d="M62.7295 33.3235C62.8384 33.2157 62.9742 33.1348 63.1368 33.0809C63.3 33.0269 63.4899 33 63.7073 33C63.9251 33 64.1424 33 64.3593 33C64.5761 33 64.7939 33 65.0112 33C65.229 33 65.4459 33 65.6632 33C65.8801 33 66.0979 33 66.3152 33C66.533 33 66.7499 33 66.9672 33C67.185 33 67.4023 33 67.6187 33C67.836 33 68.0538 33 68.2712 33C68.488 33 68.7058 33 68.9232 33C69.14 33 69.3578 33 69.5751 33C69.7925 33 70.0098 33 70.2271 33C70.444 33 70.6349 33.0269 70.7971 33.0809C70.9602 33.1348 71.096 33.2157 71.2049 33.3235C71.3138 33.4314 71.4491 33.5123 71.6122 33.5662C71.7748 33.6201 71.9658 33.6471 72.1831 33.6471C72.3999 33.6471 72.6177 33.6471 72.8346 33.6471C73.0519 33.6471 73.2688 33.6471 73.4866 33.6471C73.7039 33.6471 73.8939 33.674 74.057 33.7278C74.2201 33.782 74.3559 33.8627 74.4648 33.9706C74.5728 34.0784 74.709 34.1593 74.8716 34.2132C75.0352 34.2672 75.2247 34.2941 75.4425 34.2941C75.6599 34.2941 75.8499 34.3211 76.0125 34.375C76.1761 34.4289 76.3119 34.5098 76.4198 34.6176C76.5287 34.7255 76.665 34.8063 76.8276 34.8603C76.9907 34.9141 77.1538 34.9681 77.3165 35.022C77.4796 35.0761 77.6154 35.1567 77.7247 35.2647C77.8327 35.3725 77.9685 35.4535 78.1316 35.5074C78.2947 35.5613 78.4573 35.6152 78.6209 35.669C78.784 35.723 78.9198 35.8038 79.0278 35.9118C79.1371 36.0195 79.2724 36.1005 79.4355 36.1543C79.5987 36.2083 79.7618 36.2621 79.9244 36.3163C80.0875 36.3701 80.2233 36.4511 80.3317 36.5587C80.4406 36.6667 80.5764 36.7475 80.7395 36.8015C80.9022 36.8554 81.0653 36.9093 81.2284 36.9633C81.3915 37.017 81.5277 37.098 81.6357 37.2059C81.7446 37.3138 81.8535 37.4215 81.9615 37.5293C82.0704 37.6373 82.1788 37.7451 82.2877 37.8529C82.3966 37.9608 82.5324 38.0417 82.6955 38.0957C82.8586 38.1495 83.0212 38.2034 83.1843 38.2573C83.3475 38.3113 83.4828 38.3921 83.5917 38.5C83.7006 38.6078 83.8095 38.7157 83.9174 38.8236C84.0263 38.9313 84.1347 39.0391 84.2436 39.1471C84.3525 39.2549 84.461 39.3627 84.5694 39.4706C84.6783 39.5785 84.7867 39.6863 84.8956 39.794C85.0041 39.902 85.1125 40.0098 85.2214 40.1176C85.3303 40.2255 85.4387 40.3333 85.5471 40.4413C85.6565 40.5489 85.7645 40.6567 85.8734 40.7647C85.9823 40.8725 86.0907 40.9804 86.1996 41.0883C86.3076 41.1962 86.4165 41.3038 86.5254 41.4117C86.6343 41.5196 86.7427 41.6275 86.8516 41.7353C86.9595 41.8431 87.0689 41.9511 87.1773 42.0587C87.2862 42.1667 87.3673 42.3015 87.4215 42.4632C87.4762 42.625 87.5304 42.7866 87.5847 42.9486C87.6393 43.1103 87.7204 43.2451 87.8293 43.3529C87.9382 43.4609 88.0467 43.5687 88.1551 43.6764C88.2635 43.7843 88.3724 43.8922 88.4813 44C88.5902 44.1078 88.6713 44.2426 88.7255 44.4043C88.7802 44.5663 88.8344 44.7279 88.8886 44.8897C88.9433 45.0515 89.0244 45.1862 89.1333 45.2941C89.2417 45.402 89.3502 45.5098 89.4595 45.6176C89.5675 45.7255 89.6764 45.8333 89.7853 45.9413C89.8932 46.0489 89.9753 46.1837 90.0295 46.3457C90.0842 46.5073 90.1384 46.6691 90.1921 46.831C90.2463 46.9926 90.3284 47.1273 90.4373 47.2353C90.5457 47.3431 90.6273 47.4779 90.6815 47.6397C90.7352 47.8014 90.763 47.9902 90.763 48.2059C90.763 48.4216 90.7904 48.6103 90.8446 48.7719C90.8983 48.9337 90.9804 49.0686 91.0883 49.1765C91.1977 49.2843 91.2792 49.4191 91.3335 49.5809C91.3877 49.7426 91.415 49.9313 91.415 50.1469C91.415 50.3627 91.4419 50.5513 91.4966 50.7132C91.5513 50.875 91.6323 51.0098 91.7412 51.1176C91.8497 51.2255 91.9312 51.3603 91.9854 51.5221C92.0397 51.6837 92.067 51.8724 92.067 52.0884C92.067 52.304 92.067 52.5195 92.067 52.7356C92.067 52.9509 92.0943 53.1399 92.1481 53.3016C92.2032 53.4633 92.2839 53.5981 92.3932 53.7061C92.5012 53.8136 92.5832 53.9484 92.637 54.1101C92.6916 54.2723 92.719 54.4608 92.719 54.6763C92.719 54.8922 92.719 55.1081 92.719 55.3236C92.719 55.539 92.719 55.7549 92.719 55.9704C92.719 56.1863 92.719 56.4017 92.719 56.6176C92.719 56.8331 92.719 57.0485 92.719 57.2649C92.719 57.4803 92.719 57.6963 92.719 57.9117C92.719 58.1276 92.719 58.3431 92.719 58.5585C92.719 58.7744 92.719 58.9899 92.719 59.2062C92.719 59.4217 92.719 59.6371 92.719 59.8526C92.719 60.069 92.719 60.2844 92.719 60.4998C92.719 60.7158 92.719 60.9312 92.719 61.1471C92.719 61.3626 92.6916 61.5516 92.637 61.7133C92.5832 61.875 92.5012 62.0094 92.3932 62.1173C92.2839 62.2257 92.2032 62.3601 92.1481 62.5223C92.0943 62.6835 92.067 62.8725 92.067 63.0885C92.067 63.3039 92.067 63.5193 92.067 63.7353C92.067 63.9507 92.0397 64.1397 91.9854 64.3014C91.9312 64.4636 91.8497 64.598 91.7412 64.7059C91.6323 64.8134 91.5513 64.9487 91.4966 65.1104C91.4419 65.2721 91.415 65.4607 91.415 65.6766C91.415 65.892 91.3877 66.0806 91.3335 66.2428C91.2792 66.404 91.1977 66.5393 91.0883 66.6473C90.9804 66.7548 90.8983 66.8896 90.8446 67.0513C90.7904 67.2135 90.7352 67.3747 90.6815 67.5364C90.6273 67.6986 90.5457 67.8334 90.4373 67.9413C90.3284 68.0484 90.2463 68.1837 90.1921 68.3454C90.1384 68.5075 90.0842 68.6688 90.0295 68.8309C89.9753 68.9926 89.8932 69.1275 89.7853 69.2349C89.6764 69.3429 89.5675 69.4509 89.4595 69.5588C89.3502 69.6668 89.2417 69.7743 89.1333 69.8827C89.0244 69.9906 88.9433 70.125 88.8886 70.2862C88.8344 70.4489 88.7802 70.6101 88.7255 70.7723C88.6713 70.934 88.5902 71.0688 88.4813 71.1763C88.3724 71.2842 88.2635 71.3917 88.1551 71.4997C88.0467 71.6081 87.9382 71.7156 87.8293 71.8236C87.7204 71.931 87.6125 72.0395 87.5031 72.1474C87.3947 72.2544 87.2862 72.3624 87.1773 72.4704C87.0689 72.5783 86.9595 72.6863 86.8516 72.7938C86.7427 72.9022 86.6343 73.0101 86.5254 73.1176C86.4165 73.2256 86.3076 73.3335 86.1996 73.4415C86.0907 73.549 85.9823 73.6565 85.8734 73.7649C85.7645 73.8724 85.6565 73.9803 85.5471 74.0883C85.4387 74.1963 85.3303 74.3037 85.2214 74.4112C85.1125 74.5197 85.0041 74.6276 84.8956 74.7351C84.7867 74.8431 84.6783 74.9505 84.5694 75.059C84.461 75.1669 84.3525 75.2744 84.2436 75.3824C84.1347 75.4908 83.9985 75.5709 83.8363 75.6247C83.6732 75.6789 83.5096 75.7331 83.3475 75.7864C83.1843 75.8406 83.0486 75.9217 82.9397 76.0296C82.8308 76.1371 82.6955 76.2182 82.5324 76.2724C82.3697 76.3257 82.2066 76.3794 82.0435 76.4337C81.8804 76.4874 81.7446 76.569 81.6357 76.6764C81.5277 76.7844 81.3915 76.865 81.2284 76.9188C81.0653 76.973 80.9022 77.0272 80.7395 77.0809C80.5764 77.1351 80.4406 77.2158 80.3317 77.3237C80.2233 77.4312 80.0875 77.5123 79.9244 77.5665C79.7618 77.6202 79.5713 77.6471 79.3535 77.6471C79.1371 77.6471 78.9467 77.6735 78.784 77.7277C78.6209 77.7815 78.4847 77.8626 78.3758 77.971C78.2678 78.0785 78.1316 78.1591 77.9685 78.2133C77.8053 78.267 77.6154 78.2939 77.398 78.2939C77.1807 78.2939 76.9907 78.3213 76.8276 78.375C76.665 78.4287 76.5287 78.5103 76.4198 78.6178C76.3119 78.7257 76.1761 78.8064 76.0125 78.8601C75.8499 78.9143 75.6599 78.9417 75.4425 78.9417C75.2247 78.9417 75.0079 78.9417 74.7906 78.9417C74.5728 78.9417 74.3559 78.9417 74.1386 78.9417C73.9212 78.9417 73.7039 78.9417 73.4866 78.9417C73.2688 78.9417 73.0519 78.9417 72.8346 78.9417C72.6177 78.9417 72.3999 78.9417 72.1831 78.9417C71.9658 78.9417 71.748 78.9417 71.5311 78.9417C71.3138 78.9417 71.096 78.9417 70.8786 78.9417C70.6618 78.9417 70.444 78.9417 70.2271 78.9417C70.0098 78.9417 69.7925 78.9417 69.5751 78.9417C69.3578 78.9417 69.1669 78.9143 69.0042 78.8601C68.8411 78.8064 68.7058 78.7257 68.5969 78.6178C68.488 78.5103 68.3527 78.4287 68.1891 78.375C68.027 78.3213 67.836 78.2939 67.6187 78.2939C67.4023 78.2939 67.185 78.2939 66.9672 78.2939C66.7499 78.2939 66.5599 78.267 66.3968 78.2133C66.2341 78.1591 66.0979 78.0785 65.9895 77.971C65.8801 77.8626 65.7448 77.7815 65.5821 77.7277C65.419 77.6735 65.2559 77.6202 65.0928 77.5665C64.9302 77.5123 64.7939 77.4312 64.6855 77.3237C64.5771 77.2158 64.4413 77.1351 64.2782 77.0809C64.1151 77.0272 63.9519 76.973 63.7888 76.9188C63.6262 76.865 63.4899 76.7844 63.3815 76.6764C63.2731 76.569 63.1368 76.4874 62.9742 76.4337C62.8111 76.3794 62.648 76.3257 62.4849 76.2724C62.3222 76.2182 62.186 76.1371 62.0775 76.0296C61.9691 75.9217 61.8602 75.8133 61.7523 75.7058C61.6429 75.5983 61.5345 75.4908 61.4256 75.3824C61.3171 75.2744 61.2082 75.1669 61.0993 75.059C60.9909 74.9505 60.8825 74.8431 60.774 74.7351C60.6651 74.6276 60.5562 74.5197 60.4473 74.4112C60.3394 74.3037 60.2305 74.1963 60.1221 74.0883C60.0132 73.9803 59.9043 73.8724 59.7954 73.7649C59.6874 73.6565 59.5785 73.549 59.4701 73.4415C59.3612 73.3335 59.2523 73.2256 59.1443 73.1176C59.0354 73.0101 58.9265 72.9022 58.8181 72.7938C58.7092 72.6863 58.6003 72.5783 58.4923 72.4704C58.3834 72.3624 58.2745 72.2544 58.1661 72.1474C58.0572 72.0395 57.9483 71.931 57.8403 71.8236C57.7314 71.7156 57.6494 71.5808 57.5957 71.4191C57.5415 71.2574 57.4872 71.0952 57.4326 70.934C57.3783 70.7723 57.2968 70.637 57.1884 70.529C57.0795 70.4215 56.9706 70.3136 56.8621 70.2056C56.7532 70.0981 56.6453 69.9906 56.5364 69.8827C56.4275 69.7743 56.3454 69.6399 56.2917 69.4777C56.2375 69.3165 56.2101 69.1275 56.2101 68.9115C56.2101 68.6961 56.1833 68.5075 56.1286 68.3454C56.0744 68.1837 55.9933 68.0484 55.8844 67.9413C55.7755 67.8334 55.6944 67.6986 55.6397 67.5364C55.5855 67.3747 55.5582 67.1861 55.5582 66.9702C55.5582 66.7548 55.5313 66.5667 55.4766 66.404C55.4224 66.2428 55.3413 66.108 55.2324 66C55.1235 65.892 55.0424 65.7572 54.9877 65.596C54.9335 65.4338 54.9066 65.2452 54.9066 65.0298C54.9066 64.8134 54.9066 64.598 54.9066 64.3825C54.9066 64.1666 54.9066 63.9507 54.9066 63.7353C54.9066 63.5193 54.9066 63.3039 54.9066 63.0885C54.9066 62.8725 54.9066 62.6566 54.9066 62.4412C54.9066 62.2257 54.9066 62.0094 54.9066 61.7939C54.9066 61.5785 54.9066 61.3626 54.9066 61.1471C54.9066 60.9312 54.9066 60.7158 54.9066 60.4998C54.9066 60.2844 54.9066 60.069 54.9066 59.8526C54.9066 59.6371 54.9066 59.4217 54.9066 59.2062C54.9066 58.9899 54.9335 58.8013 54.9877 58.6396C55.0424 58.4779 55.1235 58.3431 55.2324 58.2351C55.3413 58.1276 55.4224 57.9923 55.4766 57.8311C55.5313 57.6689 55.5582 57.4803 55.5582 57.2649C55.5582 57.0485 55.5855 56.8604 55.6397 56.6987C55.6944 56.5365 55.7755 56.4017 55.8844 56.2938C55.9933 56.1863 56.0744 56.0514 56.1286 55.8897C56.1833 55.7276 56.2375 55.5663 56.2917 55.4046C56.3454 55.2425 56.4275 55.1081 56.5364 55.0002C56.6453 54.8917 56.7532 54.7842 56.8621 54.6763C56.9706 54.5688 57.0795 54.4608 57.1884 54.3529C57.2968 54.2454 57.3783 54.1101 57.4326 53.9484C57.4872 53.7867 57.5415 53.625 57.5957 53.4633C57.6494 53.3016 57.7314 53.1668 57.8403 53.0588C57.9483 52.9509 58.0572 52.8434 58.1661 52.7356C58.2745 52.6273 58.3834 52.5195 58.4923 52.4117C58.6003 52.304 58.7092 52.1962 58.8181 52.0884C58.9265 51.9807 59.0354 51.8724 59.1443 51.7646C59.2523 51.6569 59.3612 51.5489 59.4701 51.4413C59.5785 51.3333 59.6874 51.2255 59.7954 51.1176C59.9043 51.0098 60.0132 50.902 60.1221 50.7941C60.2305 50.6863 60.3663 50.6055 60.5294 50.5513C60.692 50.4975 60.8551 50.4437 61.0182 50.3897C61.1814 50.3358 61.3171 50.2549 61.4256 50.1469C61.5345 50.0391 61.6429 49.9314 61.7523 49.8235C61.8602 49.7157 61.9691 49.6078 62.0775 49.5C62.186 49.3922 62.3222 49.3112 62.4849 49.2574C62.648 49.2035 62.8384 49.1765 63.0553 49.1765C63.2731 49.1765 63.4631 49.1495 63.6262 49.0957C63.7888 49.0417 63.9251 48.9609 64.033 48.8529C64.1424 48.7451 64.2782 48.6642 64.4413 48.6103C64.6039 48.5563 64.7939 48.5293 65.0112 48.5293C65.229 48.5293 65.419 48.5024 65.5821 48.4485C65.7448 48.3945 65.8801 48.3137 65.9895 48.2059C66.0979 48.098 66.2341 48.0171 66.3968 47.9632C66.5599 47.9093 66.7499 47.8823 66.9672 47.8823C67.185 47.8823 67.4023 47.8823 67.6187 47.8823C67.836 47.8823 68.0538 47.8823 68.2712 47.8823C68.488 47.8823 68.7058 47.8823 68.9232 47.8823C69.14 47.8823 69.3578 47.8823 69.5751 47.8823C69.7925 47.8823 70.0098 47.8823 70.2271 47.8823C70.444 47.8823 70.6349 47.9093 70.7971 47.9632C70.9602 48.0171 71.096 48.098 71.2049 48.2059C71.3138 48.3137 71.4491 48.3945 71.6122 48.4485C71.7748 48.5024 71.9658 48.5293 72.1831 48.5293C72.3999 48.5293 72.5899 48.5563 72.753 48.6103C72.9162 48.6642 73.0519 48.7451 73.1608 48.8529C73.2688 48.9609 73.405 49.0417 73.5681 49.0957C73.7308 49.1495 73.8939 49.2035 74.057 49.2574C74.2201 49.3112 74.3559 49.3922 74.4648 49.5C74.5728 49.6078 74.709 49.6888 74.8716 49.7426C75.0352 49.7965 75.1979 49.8505 75.361 49.9043C75.5236 49.9583 75.6599 50.0391 75.7678 50.1469C75.8772 50.2549 75.9856 50.3627 76.0945 50.4707C76.203 50.5784 76.3119 50.6863 76.4198 50.7941C76.5287 50.902 76.6376 51.0098 76.7465 51.1176C76.8549 51.2255 76.9634 51.3333 77.0718 51.4413C77.1807 51.5489 77.2896 51.6569 77.398 51.7646C77.5069 51.8724 77.6154 51.9807 77.7247 52.0884C77.8327 52.1962 77.9416 52.304 78.05 52.4117C78.1584 52.5195 78.2405 52.6546 78.2947 52.8165C78.3489 52.9777 78.4036 53.1399 78.4573 53.3016C78.5115 53.4633 78.5936 53.5981 78.702 53.7061C78.8109 53.8136 78.8925 53.9484 78.9467 54.1101C79.0004 54.2723 79.0556 54.4335 79.1098 54.5952C79.164 54.7574 79.2456 54.8917 79.3535 55.0002C79.4629 55.1081 79.5444 55.2425 79.5987 55.4046C79.6529 55.5663 79.6797 55.7549 79.6797 55.9704C79.6797 56.1863 79.6797 56.4017 79.6797 56.6176C79.6797 56.8331 79.7066 57.0221 79.7618 57.1838C79.8155 57.346 79.8975 57.4803 80.006 57.5883C80.1149 57.6963 80.196 57.8311 80.2506 57.9923C80.3049 58.1545 80.3317 58.3431 80.3317 58.5585C80.3317 58.7744 80.3317 58.9899 80.3317 59.2062C80.3317 59.4217 80.3049 59.6103 80.2506 59.772C80.196 59.9337 80.1149 60.069 80.006 60.1764C79.8975 60.2844 79.8155 60.4188 79.7618 60.5809C79.7066 60.7426 79.6797 60.9312 79.6797 61.1471C79.6797 61.3626 79.6529 61.5516 79.5987 61.7133C79.5444 61.875 79.4629 62.0094 79.3535 62.1173C79.2456 62.2257 79.164 62.3601 79.1098 62.5223C79.0556 62.6835 79.0004 62.8452 78.9467 63.0074C78.8925 63.1691 78.8109 63.3039 78.702 63.4114C78.5936 63.5193 78.5115 63.6546 78.4573 63.8163C78.4036 63.9776 78.3489 64.1397 78.2947 64.3014C78.2405 64.4636 78.1584 64.598 78.05 64.7059C77.9416 64.8134 77.8327 64.9214 77.7247 65.0298C77.6154 65.1373 77.5069 65.2452 77.398 65.3527C77.2896 65.4607 77.1807 65.5686 77.0718 65.6766C76.9634 65.7846 76.8276 65.8656 76.665 65.9189C76.5018 65.9731 76.3387 66.0269 76.1761 66.0806C76.0125 66.1353 75.8772 66.2154 75.7678 66.3239C75.6599 66.4314 75.5236 66.512 75.361 66.5667C75.1979 66.6204 75.0352 66.6741 74.8716 66.7279C74.709 66.7816 74.5728 66.8627 74.4648 66.9702C74.3559 67.0782 74.2201 67.1592 74.057 67.2135C73.8939 67.2667 73.7039 67.2941 73.4866 67.2941C73.2688 67.2941 73.0519 67.2941 72.8346 67.2941C72.6177 67.2941 72.4268 67.2667 72.2637 67.2135C72.1011 67.1592 72.02 67.0782 72.02 66.9702C72.02 66.8627 72.1011 66.7816 72.2637 66.7279C72.4268 66.6741 72.5899 66.6204 72.753 66.5667C72.9162 66.512 73.0519 66.4314 73.1608 66.3239C73.2688 66.2154 73.405 66.1353 73.5681 66.0806C73.7308 66.0269 73.8939 65.9731 74.057 65.9189C74.2201 65.8656 74.3559 65.7846 74.4648 65.6766C74.5728 65.5686 74.6817 65.4607 74.7906 65.3527C74.899 65.2452 75.0079 65.1373 75.1168 65.0298C75.2247 64.9214 75.3341 64.8134 75.4425 64.7059C75.551 64.598 75.6325 64.4636 75.6867 64.3014C75.741 64.1397 75.7956 63.9776 75.8499 63.8163C75.9041 63.6546 75.9856 63.5193 76.0945 63.4114C76.203 63.3039 76.2845 63.1691 76.3387 63.0074C76.3939 62.8452 76.4476 62.6835 76.5018 62.5223C76.5556 62.3601 76.6376 62.2257 76.7465 62.1173C76.8549 62.0094 76.9365 61.875 76.9907 61.7133C77.0449 61.5516 77.0718 61.3626 77.0718 61.1471C77.0718 60.9312 77.0718 60.7158 77.0718 60.4998C77.0718 60.2844 77.0718 60.069 77.0718 59.8526C77.0718 59.6371 77.0449 59.4486 76.9907 59.2864C76.9365 59.1252 76.8549 58.9899 76.7465 58.8824C76.6376 58.7744 76.5556 58.6396 76.5018 58.4779C76.4476 58.3162 76.4198 58.1276 76.4198 57.9117C76.4198 57.6963 76.3939 57.5072 76.3387 57.346C76.2845 57.1838 76.203 57.0485 76.0945 56.9415C75.9856 56.8331 75.9041 56.6987 75.8499 56.5365C75.7956 56.3748 75.741 56.2136 75.6867 56.0514C75.6325 55.8897 75.551 55.7549 75.4425 55.6474C75.3341 55.539 75.2247 55.431 75.1168 55.3236C75.0079 55.2156 74.899 55.1081 74.7906 55.0002C74.6817 54.8917 74.5728 54.7842 74.4648 54.6763C74.3559 54.5688 74.247 54.4608 74.1386 54.3529C74.0297 54.2454 73.9212 54.137 73.8123 54.029C73.7039 53.9215 73.5681 53.8404 73.405 53.7867C73.2419 53.733 73.0793 53.6787 72.9162 53.625C72.753 53.5713 72.6177 53.4906 72.5088 53.3827C72.3999 53.2743 72.2637 53.1936 72.1011 53.1399C71.9379 53.0857 71.7748 53.0319 71.6122 52.9777C71.4491 52.924 71.3138 52.8434 71.2049 52.7356C71.096 52.6273 70.9602 52.5463 70.7971 52.4927C70.6349 52.4386 70.444 52.4117 70.2271 52.4117C70.0098 52.4117 69.7925 52.4117 69.5751 52.4117C69.3578 52.4117 69.14 52.4117 68.9232 52.4117C68.7058 52.4117 68.488 52.4117 68.2712 52.4117C68.0538 52.4117 67.8639 52.4386 67.7007 52.4927C67.5372 52.5463 67.4023 52.6273 67.293 52.7356C67.185 52.8434 67.0492 52.924 66.8861 52.9777C66.7221 53.0319 66.533 53.0588 66.3152 53.0588C66.0979 53.0588 65.9079 53.0857 65.7448 53.1399C65.5821 53.1936 65.4459 53.2743 65.337 53.3827C65.229 53.4906 65.0928 53.5713 64.9302 53.625C64.767 53.6787 64.6039 53.733 64.4413 53.7867C64.2782 53.8404 64.1424 53.9215 64.033 54.029C63.9251 54.137 63.8162 54.2454 63.7073 54.3529C63.5993 54.4608 63.4899 54.5688 63.3815 54.6763C63.2731 54.7842 63.1368 54.8649 62.9742 54.9191C62.8111 54.9728 62.648 55.027 62.4849 55.0812C62.3222 55.1345 62.2133 55.2425 62.1591 55.4046C62.1049 55.5663 62.0502 55.7276 61.9965 55.8897C61.9413 56.0514 61.8602 56.1863 61.7523 56.2938C61.6429 56.4017 61.5345 56.5101 61.4256 56.6176C61.3171 56.7256 61.2082 56.8331 61.0993 56.9415C60.9909 57.0485 60.9093 57.1838 60.8551 57.346C60.8009 57.5072 60.7462 57.6689 60.692 57.8311C60.6383 57.9923 60.5562 58.1276 60.4473 58.2351C60.3394 58.3431 60.2574 58.4779 60.2031 58.6396C60.1489 58.8013 60.1221 58.9899 60.1221 59.2062C60.1221 59.4217 60.0942 59.6103 60.0405 59.772C59.9863 59.9337 59.9043 60.069 59.7954 60.1764C59.6874 60.2844 59.6054 60.4188 59.5512 60.5809C59.4969 60.7426 59.4701 60.9312 59.4701 61.1471C59.4701 61.3626 59.4701 61.5785 59.4701 61.7939C59.4701 62.0094 59.4701 62.2257 59.4701 62.4412C59.4701 62.6566 59.4701 62.8725 59.4701 63.0885C59.4701 63.3039 59.4701 63.5193 59.4701 63.7353C59.4701 63.9507 59.4969 64.1397 59.5512 64.3014C59.6054 64.4636 59.6874 64.598 59.7954 64.7059C59.9043 64.8134 59.9863 64.9487 60.0405 65.1104C60.0942 65.2721 60.1221 65.4607 60.1221 65.6766C60.1221 65.892 60.1489 66.0806 60.2031 66.2428C60.2574 66.404 60.3394 66.5393 60.4473 66.6473C60.5562 66.7548 60.6383 66.8896 60.692 67.0513C60.7462 67.2135 60.8009 67.3747 60.8551 67.5364C60.9093 67.6986 60.9909 67.8334 61.0993 67.9413C61.2082 68.0484 61.2893 68.1837 61.344 68.3454C61.3982 68.5075 61.4534 68.6688 61.5071 68.8309C61.5613 68.9926 61.6429 69.1275 61.7523 69.2349C61.8602 69.3429 61.9691 69.4509 62.0775 69.5588C62.186 69.6668 62.2953 69.7743 62.4033 69.8827C62.5122 69.9906 62.6211 70.0981 62.7295 70.2056C62.8384 70.3136 62.9469 70.4215 63.0553 70.529C63.1642 70.637 63.2731 70.7454 63.3815 70.8529C63.4899 70.9608 63.5993 71.0688 63.7073 71.1763C63.8162 71.2842 63.9251 71.3917 64.033 71.4997C64.1424 71.6081 64.2508 71.7156 64.3593 71.8236C64.4682 71.931 64.5771 72.0395 64.6855 72.1474C64.7939 72.2544 64.9302 72.336 65.0928 72.3897C65.2559 72.444 65.419 72.4972 65.5821 72.5514C65.7448 72.6052 65.8801 72.6863 65.9895 72.7938C66.0979 72.9022 66.2341 72.9828 66.3968 73.0365C66.5599 73.0908 66.7221 73.1445 66.8861 73.1987C67.0492 73.2525 67.185 73.3335 67.293 73.4415C67.4023 73.549 67.5372 73.6296 67.7007 73.6838C67.8639 73.7376 68.0538 73.7649 68.2712 73.7649C68.488 73.7649 68.7058 73.7649 68.9232 73.7649C69.14 73.7649 69.33 73.7918 69.4931 73.846C69.6562 73.8993 69.7925 73.9803 69.9009 74.0883C70.0098 74.1963 70.1451 74.2769 70.3082 74.3306C70.4713 74.3853 70.6618 74.4112 70.8786 74.4112C71.096 74.4112 71.3138 74.4112 71.5311 74.4112C71.748 74.4112 71.9658 74.4112 72.1831 74.4112C72.3999 74.4112 72.6177 74.4112 72.8346 74.4112C73.0519 74.4112 73.2688 74.4112 73.4866 74.4112C73.7039 74.4112 73.9212 74.4112 74.1386 74.4112C74.3559 74.4112 74.5459 74.3853 74.709 74.3306C74.8716 74.2769 75.0079 74.1963 75.1168 74.0883C75.2247 73.9803 75.361 73.8993 75.5236 73.846C75.6867 73.7918 75.8772 73.7649 76.0945 73.7649C76.3119 73.7649 76.5287 73.7649 76.7465 73.7649C76.9634 73.7649 77.1538 73.7376 77.3165 73.6838C77.4796 73.6296 77.6154 73.549 77.7247 73.4415C77.8327 73.3335 77.9685 73.2525 78.1316 73.1987C78.2947 73.1445 78.4573 73.0908 78.6209 73.0365C78.784 72.9828 78.9198 72.9022 79.0278 72.7938C79.1371 72.6863 79.2724 72.6052 79.4355 72.5514C79.5987 72.4972 79.7618 72.444 79.9244 72.3897C80.0875 72.336 80.2233 72.2544 80.3317 72.1474C80.4406 72.0395 80.5764 71.9584 80.7395 71.9046C80.9022 71.8504 81.0653 71.7967 81.2284 71.7425C81.3915 71.6883 81.5277 71.6081 81.6357 71.4997C81.7446 71.3917 81.8535 71.2842 81.9615 71.1763C82.0704 71.0688 82.1788 70.9608 82.2877 70.8529C82.3966 70.7454 82.5055 70.637 82.6134 70.529C82.7228 70.4215 82.8308 70.3136 82.9397 70.2056C83.0486 70.0981 83.1565 69.9906 83.2659 69.8827C83.3743 69.7743 83.4828 69.6668 83.5917 69.5588C83.7006 69.4509 83.8095 69.3429 83.9174 69.2349C84.0263 69.1275 84.1347 69.0195 84.2436 68.9115C84.3525 68.8036 84.461 68.6961 84.5694 68.5886C84.6783 68.4802 84.7599 68.3454 84.8136 68.1837C84.8683 68.0224 84.9225 67.8603 84.9767 67.6986C85.0314 67.5364 85.1125 67.402 85.2214 67.2941C85.3303 67.1861 85.4387 67.0782 85.5471 66.9702C85.6565 66.8627 85.7645 66.7548 85.8734 66.6473C85.9823 66.5393 86.0634 66.404 86.1176 66.2428C86.1723 66.0806 86.2269 65.9189 86.2807 65.7572C86.3354 65.5955 86.4165 65.4607 86.5254 65.3527C86.6343 65.2452 86.7153 65.1104 86.7696 64.9487C86.8242 64.7865 86.8516 64.598 86.8516 64.3825C86.8516 64.1666 86.8785 63.9776 86.9327 63.8163C86.9874 63.6546 87.0689 63.5193 87.1773 63.4114C87.2862 63.3039 87.3673 63.1691 87.4215 63.0074C87.4762 62.8452 87.5031 62.6566 87.5031 62.4412C87.5031 62.2257 87.5031 62.0094 87.5031 61.7939C87.5031 61.5785 87.5304 61.3899 87.5847 61.2277C87.6393 61.0665 87.7204 60.9312 87.8293 60.8237C87.9382 60.7158 88.0193 60.5809 88.0735 60.4188C88.1282 60.2575 88.1551 60.069 88.1551 59.8526C88.1551 59.6371 88.1551 59.4217 88.1551 59.2062C88.1551 58.9899 88.1551 58.7744 88.1551 58.5585C88.1551 58.3431 88.1551 58.1276 88.1551 57.9117C88.1551 57.6963 88.1551 57.4803 88.1551 57.2649C88.1551 57.0485 88.1551 56.8331 88.1551 56.6176C88.1551 56.4017 88.1551 56.1863 88.1551 55.9704C88.1551 55.7549 88.1282 55.5663 88.0735 55.4046C88.0193 55.2425 87.9382 55.1081 87.8293 55.0002C87.7204 54.8917 87.6393 54.7574 87.5847 54.5952C87.5304 54.4335 87.5031 54.2454 87.5031 54.029C87.5031 53.8136 87.5031 53.5981 87.5031 53.3827C87.5031 53.1668 87.4762 52.9777 87.4215 52.8165C87.3673 52.6546 87.2862 52.5195 87.1773 52.4117C87.0689 52.304 86.9874 52.1689 86.9327 52.0075C86.8785 51.8456 86.8516 51.6569 86.8516 51.4413C86.8516 51.2255 86.8242 51.0368 86.7696 50.875C86.7153 50.7132 86.6343 50.5784 86.5254 50.4707C86.4165 50.3627 86.3354 50.2279 86.2807 50.0663C86.2269 49.9043 86.1723 49.7426 86.1176 49.5809C86.0634 49.4191 85.9823 49.2843 85.8734 49.1765C85.7645 49.0686 85.6834 48.9337 85.6287 48.7719C85.5745 48.6103 85.5203 48.4485 85.4656 48.2866C85.4114 48.125 85.3303 47.9902 85.2214 47.8823C85.1125 47.7745 85.0314 47.6397 84.9767 47.4779C84.9225 47.3163 84.8683 47.1544 84.8136 46.9926C84.7599 46.831 84.6783 46.6962 84.5694 46.5882C84.461 46.4805 84.3525 46.3725 84.2436 46.2647C84.1347 46.1569 84.0263 46.0489 83.9174 45.9413C83.8095 45.8333 83.7274 45.6985 83.6732 45.5367C83.6185 45.375 83.5648 45.2133 83.5096 45.0515C83.4554 44.8897 83.3743 44.7549 83.2659 44.6469C83.1565 44.5391 83.0486 44.4313 82.9397 44.3235C82.8308 44.2158 82.7228 44.1078 82.6134 44C82.5055 43.8922 82.3966 43.7843 82.2877 43.6764C82.1788 43.5687 82.0704 43.4609 81.9615 43.3529C81.8535 43.2451 81.7446 43.1373 81.6357 43.0294C81.5277 42.9215 81.4184 42.8137 81.3099 42.706C81.2015 42.598 81.0926 42.4902 80.9837 42.3823C80.8753 42.2745 80.7395 42.1937 80.5764 42.1397C80.4133 42.0858 80.2506 42.0319 80.0875 41.9779C79.9244 41.9239 79.7886 41.8431 79.6797 41.7353C79.5713 41.6275 79.4629 41.5196 79.3535 41.4117C79.2456 41.3038 79.1371 41.1962 79.0278 41.0883C78.9198 40.9804 78.784 40.8995 78.6209 40.8457C78.4573 40.7915 78.2947 40.7377 78.1316 40.6837C77.9685 40.6299 77.8327 40.5489 77.7247 40.4413C77.6154 40.3333 77.4796 40.2524 77.3165 40.1985C77.1538 40.1445 76.9907 40.0908 76.8276 40.0368C76.665 39.9828 76.5287 39.902 76.4198 39.794C76.3119 39.6863 76.1761 39.6054 76.0125 39.5514C75.8499 39.4977 75.6867 39.4437 75.5236 39.3897C75.361 39.3359 75.2247 39.2549 75.1168 39.1471C75.0079 39.0391 74.8716 38.9583 74.709 38.9044C74.5459 38.8505 74.3559 38.8236 74.1386 38.8236C73.9212 38.8236 73.7308 38.7964 73.5681 38.7426C73.405 38.6887 73.2688 38.6078 73.1608 38.5C73.0519 38.3921 72.9162 38.3113 72.753 38.2573C72.5899 38.2034 72.3999 38.1765 72.1831 38.1765C71.9658 38.1765 71.748 38.1765 71.5311 38.1765C71.3138 38.1765 71.096 38.1765 70.8786 38.1765C70.6618 38.1765 70.444 38.1765 70.2271 38.1765C70.0098 38.1765 69.8198 38.1495 69.6562 38.0957C69.4931 38.0417 69.3578 37.9608 69.2489 37.8529C69.14 37.7451 69.0042 37.6641 68.8411 37.6103C68.678 37.5564 68.488 37.5293 68.2712 37.5293C68.0538 37.5293 67.836 37.5293 67.6187 37.5293C67.4023 37.5293 67.185 37.5293 66.9672 37.5293C66.7499 37.5293 66.533 37.5293 66.3152 37.5293C66.0979 37.5293 65.8801 37.5293 65.6632 37.5293C65.4459 37.5293 65.2559 37.5564 65.0928 37.6103C64.9302 37.6641 64.7939 37.7451 64.6855 37.8529C64.5771 37.9608 64.4413 38.0417 64.2782 38.0957C64.1151 38.1495 63.9251 38.1765 63.7073 38.1765C63.4899 38.1765 63.2731 38.1765 63.0553 38.1765C62.8384 38.1765 62.6211 38.1765 62.4033 38.1765C62.186 38.1765 61.9691 38.1765 61.7523 38.1765C61.5345 38.1765 61.344 38.2034 61.1814 38.2573C61.0182 38.3113 60.8825 38.3921 60.774 38.5C60.6651 38.6078 60.5294 38.6887 60.3663 38.7426C60.2031 38.7964 60.0132 38.8236 59.7954 38.8236C59.5785 38.8236 59.3612 38.8236 59.1443 38.8236C58.9265 38.8236 58.7365 38.8505 58.5734 38.9044C58.4103 38.9583 58.2745 39.0391 58.1661 39.1471C58.0572 39.2549 57.9214 39.3359 57.7583 39.3897C57.5957 39.4437 57.4326 39.4977 57.2694 39.5514C57.1063 39.6054 56.9706 39.6863 56.8621 39.794C56.7532 39.902 56.6175 39.9828 56.4543 40.0368C56.2917 40.0908 56.1012 40.1176 55.8844 40.1176C55.6666 40.1176 55.4766 40.1445 55.3135 40.1985C55.1508 40.2524 55.0146 40.3333 54.9066 40.4413C54.7977 40.5489 54.6893 40.6567 54.5804 40.7647C54.4715 40.8725 54.3626 40.9804 54.2547 41.0883C54.1453 41.1962 54.0095 41.277 53.8473 41.3309C53.6838 41.3848 53.5206 41.4388 53.3575 41.4927C53.1954 41.5465 53.0591 41.6275 52.9507 41.7353C52.8418 41.8431 52.7334 41.9511 52.6245 42.0587C52.5156 42.1667 52.4076 42.2745 52.2982 42.3823C52.1898 42.4902 52.0536 42.5712 51.8914 42.625C51.7283 42.6789 51.5647 42.7328 51.4025 42.7866C51.2394 42.8407 51.1036 42.9215 50.9948 43.0294C50.886 43.1373 50.7773 43.2451 50.6685 43.3529C50.5604 43.4609 50.4516 43.5687 50.3428 43.6764C50.2341 43.7843 50.1253 43.8922 50.0171 44C49.9078 44.1078 49.7996 44.2158 49.6909 44.3235C49.5821 44.4313 49.4733 44.5391 49.3646 44.6469C49.2558 44.7549 49.1476 44.8627 49.0389 44.9707C48.9301 45.0785 48.8213 45.1862 48.7126 45.2941C48.6044 45.402 48.4957 45.5098 48.3869 45.6176C48.2782 45.7255 48.1694 45.8333 48.0607 45.9413C47.9525 46.0489 47.8437 46.1569 47.7349 46.2647C47.6264 46.3725 47.5176 46.4805 47.4091 46.5882C47.3002 46.6962 47.1917 46.8039 47.083 46.9118C46.9744 47.0196 46.8657 47.1273 46.757 47.2353C46.6483 47.3431 46.5398 47.4511 46.4309 47.5587C46.3224 47.6667 46.2138 47.7745 46.1051 47.8823C45.9964 47.9902 45.9148 48.125 45.8606 48.2866C45.8063 48.4485 45.7519 48.6103 45.6976 48.7719C45.6433 48.9337 45.5618 49.0686 45.4532 49.1765C45.3445 49.2843 45.2358 49.3922 45.1271 49.5C45.0185 49.6078 44.9098 49.7157 44.8013 49.8235C44.6926 49.9314 44.611 50.0663 44.5566 50.2279C44.5023 50.3897 44.4482 50.5513 44.3938 50.7132C44.3393 50.875 44.2579 51.0098 44.1493 51.1176C44.0405 51.2255 43.9591 51.3603 43.9048 51.5221C43.8504 51.6837 43.7961 51.8456 43.7418 52.0075C43.6874 52.1689 43.606 52.304 43.4973 52.4117C43.3888 52.5195 43.3072 52.6546 43.2529 52.8165C43.1985 52.9777 43.1442 53.1399 43.0899 53.3016C43.0355 53.4633 42.9541 53.5981 42.8454 53.7061C42.7367 53.8136 42.6553 53.9484 42.6009 54.1101C42.5466 54.2723 42.5194 54.4608 42.5194 54.6763C42.5194 54.8922 42.4921 55.0812 42.4379 55.2425C42.3836 55.4046 42.3022 55.539 42.1933 55.6474C42.0848 55.7549 42.0034 55.8897 41.9489 56.0514C41.8947 56.2136 41.8674 56.4017 41.8674 56.6176C41.8674 56.8331 41.8404 57.0221 41.786 57.1838C41.7317 57.346 41.6501 57.4803 41.5416 57.5883C41.4327 57.6963 41.3513 57.8311 41.297 57.9923C41.2428 58.1545 41.2156 58.3431 41.2156 58.5585C41.2156 58.7744 41.2156 58.9899 41.2156 59.2062C41.2156 59.4217 41.2156 59.6371 41.2156 59.8526C41.2156 60.069 41.2156 60.2844 41.2156 60.4998C41.2156 60.7158 41.2156 60.9312 41.2156 61.1471C41.2156 61.3626 41.1883 61.5516 41.134 61.7133C41.0798 61.875 40.9982 62.0094 40.8895 62.1173C40.7808 62.2257 40.6994 62.3601 40.6451 62.5223C40.5908 62.6835 40.5636 62.8725 40.5636 63.0885C40.5636 63.3039 40.5636 63.5193 40.5636 63.7353C40.5636 63.9507 40.5636 64.1666 40.5636 64.3825C40.5636 64.598 40.5908 64.7865 40.6451 64.9487C40.6994 65.1104 40.7808 65.2452 40.8895 65.3527C40.9982 65.4607 41.0798 65.5955 41.134 65.7572C41.1883 65.9189 41.2156 66.108 41.2156 66.3239C41.2156 66.5393 41.2156 66.7548 41.2156 66.9702C41.2156 67.1861 41.2156 67.402 41.2156 67.6175C41.2156 67.8334 41.2156 68.0484 41.2156 68.2647C41.2156 68.4802 41.2156 68.6961 41.2156 68.9115C41.2156 69.1275 41.2156 69.3429 41.2156 69.5588C41.2156 69.7743 41.2156 69.9906 41.2156 70.2056C41.2156 70.4215 41.2428 70.6101 41.297 70.7723C41.3513 70.934 41.4327 71.0688 41.5416 71.1763C41.6501 71.2842 41.7317 71.4191 41.786 71.5808C41.8404 71.7425 41.8674 71.931 41.8674 72.1474C41.8674 72.3624 41.8674 72.5783 41.8674 72.7938C41.8674 73.0101 41.8947 73.1987 41.9489 73.3599C42.0034 73.5226 42.0848 73.6565 42.1933 73.7649C42.3022 73.8724 42.3836 74.0077 42.4379 74.1689C42.4921 74.3306 42.5194 74.5197 42.5194 74.7351C42.5194 74.9505 42.5466 75.1396 42.6009 75.3013C42.6553 75.4635 42.7367 75.5983 42.8454 75.7058C42.9541 75.8133 43.0355 75.9486 43.0899 76.1103C43.1442 76.2724 43.1715 76.461 43.1715 76.6764C43.1715 76.8919 43.1985 77.0809 43.2529 77.2426C43.3072 77.4048 43.3888 77.5392 43.4973 77.6471C43.606 77.7546 43.6874 77.8899 43.7418 78.0511C43.7961 78.2133 43.8504 78.375 43.9048 78.5362C43.9591 78.6989 44.0405 78.8332 44.1493 78.9417C44.2579 79.0491 44.3393 79.184 44.3938 79.3452C44.4482 79.5074 44.5023 79.6691 44.5566 79.8308C44.611 79.9929 44.6926 80.1273 44.8013 80.2353C44.9098 80.3432 44.9914 80.478 45.0457 80.6397C45.0999 80.801 45.1542 80.9636 45.2087 81.1248C45.2631 81.2865 45.3445 81.4214 45.4532 81.5298C45.5618 81.6373 45.6704 81.7452 45.7793 81.8527C45.8877 81.9612 45.9964 82.0691 46.1051 82.1761C46.2138 82.2841 46.2954 82.4189 46.3496 82.5806C46.4039 82.7428 46.4582 82.904 46.5126 83.0667C46.5669 83.2279 46.6483 83.3627 46.757 83.4702C46.8657 83.5782 46.9744 83.6866 47.083 83.7941C47.1917 83.902 47.3002 84.01 47.4091 84.1179C47.5176 84.2254 47.6264 84.3334 47.7349 84.4413C47.8437 84.5493 47.9525 84.6568 48.0607 84.7647C48.1694 84.8722 48.2512 85.0075 48.3057 85.1688C48.3594 85.3309 48.4138 85.4926 48.4682 85.6548C48.5226 85.8165 48.6044 85.9509 48.7126 86.0588C48.8213 86.1668 48.9301 86.2743 49.0389 86.3827C49.1476 86.4906 49.2558 86.5981 49.3646 86.7056C49.4733 86.8136 49.5821 86.9215 49.6909 87.029C49.7996 87.1374 49.9078 87.2454 50.0171 87.3529C50.1253 87.4608 50.2341 87.5688 50.3428 87.6763C50.4516 87.7842 50.5604 87.8917 50.6685 87.9997C50.7773 88.1081 50.886 88.2156 50.9948 88.3236C51.1036 88.431 51.2116 88.5395 51.3205 88.647C51.4294 88.7544 51.5378 88.8624 51.6467 88.9704C51.7551 89.0783 51.8645 89.1863 51.9725 89.2938C52.0814 89.4022 52.1898 89.5101 52.2982 89.6176C52.4076 89.7256 52.5156 89.8335 52.6245 89.9415C52.7334 90.049 52.8418 90.1565 52.9507 90.2649C53.0591 90.3724 53.1675 90.4803 53.2764 90.5883C53.3853 90.6963 53.4938 90.8037 53.6022 90.9112C53.7111 91.0197 53.8195 91.1276 53.9284 91.2351C54.0373 91.3431 54.1453 91.4505 54.2547 91.559C54.3626 91.6669 54.4715 91.7744 54.5804 91.8824C54.6893 91.9908 54.7977 92.0978 54.9066 92.2058C55.0146 92.3133 55.1235 92.4217 55.2324 92.5296C55.3413 92.6371 55.4497 92.7451 55.5582 92.853C55.6666 92.961 55.8024 93.0421 55.9655 93.0954C56.1286 93.1496 56.2917 93.2033 56.4543 93.2575C56.6175 93.3113 56.7532 93.3919 56.8621 93.4998C56.9706 93.6078 57.0795 93.7158 57.1884 93.8237C57.2968 93.9312 57.4052 94.0392 57.5141 94.1471C57.6225 94.2546 57.7583 94.3362 57.9214 94.3899C58.0845 94.4441 58.2472 94.4974 58.4103 94.5511C58.5734 94.6053 58.7092 94.6864 58.8181 94.7939C58.9265 94.9019 59.0354 95.0103 59.1443 95.1178C59.2523 95.2257 59.3612 95.3332 59.4701 95.4417C59.5785 95.5491 59.7143 95.6298 59.8774 95.684C60.0405 95.7377 60.2031 95.7919 60.3663 95.8452C60.5294 95.8994 60.6651 95.9805 60.774 96.0885C60.8825 96.1959 61.0182 96.277 61.1814 96.3308C61.344 96.3845 61.5071 96.4383 61.6702 96.4925C61.8333 96.5467 61.9691 96.6273 62.0775 96.7353C62.186 96.8432 62.3222 96.9243 62.4849 96.978C62.648 97.0318 62.8111 97.086 62.9742 97.1397C63.1368 97.194 63.2731 97.2746 63.3815 97.3825C63.4899 97.4905 63.6262 97.5711 63.7888 97.6248C63.9519 97.6786 64.1151 97.7328 64.2782 97.7865C64.4413 97.8408 64.5771 97.9214 64.6855 98.0298C64.7939 98.1373 64.9302 98.2184 65.0928 98.2721C65.2559 98.3259 65.419 98.3796 65.5821 98.4338C65.7448 98.4876 65.8263 98.5686 65.8263 98.6761C65.8263 98.7841 65.7448 98.8656 65.5821 98.9189C65.419 98.9727 65.229 99 65.0112 99C64.7939 99 64.5761 99 64.3593 99C64.1424 99 63.9251 99 63.7073 99C63.4899 99 63.3 98.9727 63.1368 98.9189C62.9742 98.8656 62.8384 98.7841 62.7295 98.6761C62.6211 98.5686 62.4849 98.4876 62.3222 98.4338C62.1591 98.3796 61.9691 98.3527 61.7523 98.3527C61.5345 98.3527 61.3171 98.3527 61.0993 98.3527C60.8825 98.3527 60.692 98.3259 60.5294 98.2721C60.3663 98.2184 60.2305 98.1373 60.1221 98.0298C60.0132 97.9214 59.8774 97.8408 59.7143 97.7865C59.5512 97.7328 59.3612 97.7059 59.1443 97.7059C58.9265 97.7059 58.7365 97.6786 58.5734 97.6248C58.4103 97.5711 58.2745 97.4905 58.1661 97.3825C58.0572 97.2746 57.9214 97.194 57.7583 97.1397C57.5957 97.086 57.4052 97.0587 57.1884 97.0587C56.9706 97.0587 56.7806 97.0318 56.6175 96.978C56.4543 96.9243 56.3186 96.8432 56.2101 96.7353C56.1012 96.6273 55.9655 96.5467 55.8024 96.4925C55.6397 96.4383 55.4766 96.3845 55.3135 96.3308C55.1508 96.277 55.0146 96.1959 54.9066 96.0885C54.7977 95.9805 54.6615 95.8994 54.4984 95.8452C54.3357 95.7919 54.1726 95.7377 54.0095 95.684C53.8473 95.6298 53.7111 95.5491 53.6022 95.4417C53.4938 95.3332 53.3575 95.2526 53.1954 95.1989C53.0318 95.1447 52.8687 95.0904 52.7065 95.0362C52.5434 94.983 52.4076 94.9019 52.2982 94.7939C52.1898 94.6864 52.0814 94.5785 51.9725 94.471C51.8645 94.3626 51.7551 94.2546 51.6467 94.1471C51.5378 94.0392 51.4025 93.9585 51.2394 93.9048C51.0761 93.8506 50.9129 93.7964 50.7498 93.7426C50.5872 93.6884 50.4516 93.6078 50.3428 93.4998C50.2341 93.3919 50.1253 93.2844 50.0171 93.176C49.9078 93.069 49.7996 92.961 49.6909 92.853C49.5821 92.7451 49.4733 92.6371 49.3646 92.5296C49.2558 92.4217 49.1476 92.3133 49.0389 92.2058C48.9301 92.0978 48.7945 92.0167 48.6313 91.9635C48.4682 91.9092 48.3057 91.8555 48.1425 91.8013C47.9793 91.7475 47.8437 91.6669 47.7349 91.559C47.6264 91.4505 47.5176 91.3431 47.4091 91.2351C47.3002 91.1276 47.1917 91.0197 47.083 90.9112C46.9744 90.8037 46.8657 90.6963 46.757 90.5883C46.6483 90.4803 46.5398 90.3724 46.4309 90.2649C46.3224 90.1565 46.2138 90.049 46.1051 89.9415C45.9964 89.8335 45.8877 89.7256 45.7793 89.6176C45.6704 89.5101 45.5618 89.4022 45.4532 89.2938C45.3445 89.1863 45.2631 89.051 45.2087 88.8897C45.1542 88.728 45.0999 88.5663 45.0457 88.4046C44.9914 88.2429 44.9098 88.1081 44.8013 87.9997C44.6926 87.8917 44.584 87.7842 44.4752 87.6763C44.3665 87.5688 44.2579 87.4608 44.1493 87.3529C44.0405 87.2454 43.932 87.1374 43.8232 87.029C43.7147 86.9215 43.606 86.8136 43.4973 86.7056C43.3888 86.5981 43.2799 86.4906 43.1715 86.3827C43.0628 86.2743 42.9541 86.1668 42.8454 86.0588C42.7367 85.9509 42.6553 85.8165 42.6009 85.6548C42.5466 85.4926 42.4921 85.3309 42.4379 85.1688C42.3836 85.0075 42.3022 84.8722 42.1933 84.7647C42.0848 84.6568 41.9762 84.5493 41.8674 84.4413C41.7589 84.3334 41.6501 84.2254 41.5416 84.1179C41.4327 84.01 41.3513 83.8747 41.297 83.7135C41.2428 83.5513 41.1883 83.3896 41.134 83.2279C41.0798 83.0667 40.9982 82.9314 40.8895 82.8239C40.7808 82.7154 40.6994 82.5806 40.6451 82.4189C40.5908 82.2577 40.5364 82.0955 40.4822 81.9338C40.4279 81.7721 40.3463 81.6373 40.2376 81.5298C40.129 81.4214 40.0473 81.2865 39.9932 81.1248C39.9388 80.9636 39.8845 80.801 39.8302 80.6397C39.7758 80.478 39.6944 80.3432 39.5855 80.2353C39.477 80.1273 39.3957 79.9929 39.3413 79.8308C39.2868 79.6691 39.2324 79.5074 39.1782 79.3452C39.1239 79.184 39.0424 79.0491 38.9338 78.9417C38.8251 78.8332 38.7436 78.6989 38.6892 78.5362C38.6349 78.375 38.6078 78.1864 38.6078 77.971C38.6078 77.7546 38.5807 77.5665 38.5262 77.4048C38.4718 77.2426 38.3904 77.1078 38.2819 76.9998C38.1731 76.8919 38.0916 76.7575 38.0375 76.5954C37.9829 76.4337 37.9557 76.2451 37.9557 76.0296C37.9557 75.8133 37.9286 75.6247 37.8743 75.4635C37.8199 75.3013 37.7385 75.1669 37.6298 75.059C37.5213 74.9505 37.4397 74.8167 37.3854 74.654C37.3311 74.4928 37.304 74.3037 37.304 74.0883C37.304 73.8724 37.304 73.6565 37.304 73.4415C37.304 73.2256 37.2767 73.0365 37.2224 72.8748C37.1681 72.7136 37.0866 72.5783 36.978 72.4704C36.8693 72.3624 36.7879 72.228 36.7335 72.0663C36.6792 71.9046 36.6519 71.7156 36.6519 71.4997C36.6519 71.2842 36.6519 71.0688 36.6519 70.8529C36.6519 70.637 36.6519 70.4215 36.6519 70.2056C36.6519 69.9906 36.6519 69.7743 36.6519 69.5588C36.6519 69.3429 36.6248 69.1548 36.5705 68.9926C36.5161 68.8309 36.4348 68.6961 36.3259 68.5886C36.2173 68.4802 36.136 68.3454 36.0814 68.1837C36.0272 68.0224 36 67.8334 36 67.6175C36 67.402 36 67.1861 36 66.9702C36 66.7548 36 66.5393 36 66.3239C36 66.108 36 65.892 36 65.6766C36 65.4607 36 65.2452 36 65.0298C36 64.8134 36 64.598 36 64.3825C36 64.1666 36 63.9507 36 63.7353C36 63.5193 36 63.3039 36 63.0885C36 62.8725 36 62.6566 36 62.4412C36 62.2257 36 62.0094 36 61.7939C36 61.5785 36 61.3626 36 61.1471C36 60.9312 36.0272 60.7426 36.0814 60.5809C36.136 60.4188 36.2173 60.2844 36.3259 60.1764C36.4348 60.069 36.5161 59.9337 36.5705 59.772C36.6248 59.6103 36.6519 59.4217 36.6519 59.2062C36.6519 58.9899 36.6519 58.7744 36.6519 58.5585C36.6519 58.3431 36.6519 58.1276 36.6519 57.9117C36.6519 57.6963 36.6519 57.4803 36.6519 57.2649C36.6519 57.0485 36.6792 56.8604 36.7335 56.6987C36.7879 56.5365 36.8693 56.4017 36.978 56.2938C37.0866 56.1863 37.1681 56.0514 37.2224 55.8897C37.2767 55.7276 37.304 55.539 37.304 55.3236C37.304 55.1081 37.3311 54.9191 37.3854 54.7574C37.4397 54.5952 37.5213 54.4608 37.6298 54.3529C37.7385 54.2454 37.8199 54.1101 37.8743 53.9484C37.9286 53.7867 37.9557 53.5981 37.9557 53.3827C37.9557 53.1668 37.9829 52.9777 38.0375 52.8165C38.0916 52.6546 38.1731 52.5195 38.2819 52.4117C38.3904 52.304 38.4718 52.1689 38.5262 52.0075C38.5807 51.8456 38.6349 51.6837 38.6892 51.5221C38.7436 51.3603 38.8251 51.2255 38.9338 51.1176C39.0424 51.0098 39.1239 50.875 39.1782 50.7132C39.2324 50.5513 39.2868 50.3897 39.3413 50.2279C39.3957 50.0663 39.477 49.9314 39.5855 49.8235C39.6944 49.7157 39.7758 49.5809 39.8302 49.4191C39.8845 49.2574 39.9388 49.0957 39.9932 48.9337C40.0473 48.7719 40.129 48.6371 40.2376 48.5293C40.3463 48.4216 40.4279 48.2866 40.4822 48.125C40.5364 47.9632 40.5908 47.8014 40.6451 47.6397C40.6994 47.4779 40.7808 47.3431 40.8895 47.2353C40.9982 47.1273 41.0798 46.9926 41.134 46.831C41.1883 46.6691 41.2428 46.5073 41.297 46.3457C41.3513 46.1837 41.4327 46.0489 41.5416 45.9413C41.6501 45.8333 41.7589 45.7255 41.8674 45.6176C41.9762 45.5098 42.0848 45.402 42.1933 45.2941C42.3022 45.1862 42.4107 45.0785 42.5194 44.9707C42.628 44.8627 42.7367 44.7549 42.8454 44.6469C42.9541 44.5391 43.0355 44.4043 43.0899 44.2426C43.1442 44.0809 43.1985 43.919 43.2529 43.7573C43.3072 43.5956 43.3888 43.4609 43.4973 43.3529C43.606 43.2451 43.7147 43.1373 43.8232 43.0294C43.932 42.9215 44.0405 42.8137 44.1493 42.706C44.2579 42.598 44.3665 42.4902 44.4752 42.3823C44.584 42.2745 44.6926 42.1667 44.8013 42.0587C44.9098 41.9511 45.0185 41.8431 45.1271 41.7353C45.2358 41.6275 45.3445 41.5196 45.4532 41.4117C45.5618 41.3038 45.6704 41.1962 45.7793 41.0883C45.8877 40.9804 45.9964 40.8725 46.1051 40.7647C46.2138 40.6567 46.3224 40.5489 46.4309 40.4413C46.5398 40.3333 46.6756 40.2524 46.8386 40.1985C47.0014 40.1445 47.1645 40.0908 47.3274 40.0368C47.4905 39.9828 47.6264 39.902 47.7349 39.794C47.8437 39.6863 47.9525 39.5785 48.0607 39.4706C48.1694 39.3627 48.2782 39.2549 48.3869 39.1471C48.4957 39.0391 48.6044 38.9313 48.7126 38.8236C48.8213 38.7157 48.9301 38.6078 49.0389 38.5C49.1476 38.3921 49.2833 38.3113 49.4464 38.2573C49.609 38.2034 49.7721 38.1495 49.9353 38.0957C50.0984 38.0417 50.2341 37.9608 50.3428 37.8529C50.4516 37.7451 50.5604 37.6373 50.6685 37.5293C50.7773 37.4215 50.886 37.3138 50.9948 37.2059C51.1036 37.098 51.2394 37.017 51.4025 36.9633C51.5647 36.9093 51.7283 36.8554 51.8914 36.8015C52.0536 36.7475 52.1898 36.6667 52.2982 36.5587C52.4076 36.4511 52.5434 36.3701 52.7065 36.3163C52.8687 36.2621 53.0318 36.2083 53.1954 36.1543C53.3575 36.1005 53.4938 36.0195 53.6022 35.9118C53.7111 35.8038 53.8473 35.723 54.0095 35.669C54.1726 35.6152 54.3626 35.5882 54.5804 35.5882C54.7977 35.5882 54.9877 35.5613 55.1508 35.5074C55.3135 35.4535 55.4497 35.3725 55.5582 35.2647C55.6666 35.1567 55.8024 35.0761 55.9655 35.022C56.1286 34.9681 56.2917 34.9141 56.4543 34.8603C56.6175 34.8063 56.7532 34.7255 56.8621 34.6176C56.9706 34.5098 57.1063 34.4289 57.2694 34.375C57.4326 34.3211 57.6225 34.2941 57.8403 34.2941C58.0572 34.2941 58.2745 34.2941 58.4923 34.2941C58.7092 34.2941 58.8992 34.2672 59.0623 34.2132C59.2254 34.1593 59.3612 34.0784 59.4701 33.9706C59.5785 33.8627 59.7143 33.782 59.8774 33.7278C60.0405 33.674 60.2305 33.6471 60.4473 33.6471C60.6651 33.6471 60.8825 33.6471 61.0993 33.6471C61.3171 33.6471 61.5345 33.6471 61.7523 33.6471C61.9691 33.6471 62.1591 33.6201 62.3222 33.5662C62.4849 33.5123 62.6211 33.4314 62.7295 33.3235Z" fill="url(#paint1_linear_59_457)" stroke="url(#paint2_linear_59_457)" stroke-width="6"/>
<defs>
<linearGradient id="paint0_linear_59_457" x1="63.5019" y1="117.999" x2="63.5019" y2="43.5717" gradientUnits="userSpaceOnUse">
<stop stop-color="#FD3A84"/>
<stop offset="1" stop-color="#FFA68D"/>
</linearGradient>
<linearGradient id="paint1_linear_59_457" x1="92.5502" y1="33.4184" x2="27.8988" y2="88.5159" gradientUnits="userSpaceOnUse">
<stop stop-color="#FE7970"/>
<stop offset="1" stop-color="#DC3282"/>
</linearGradient>
<linearGradient id="paint2_linear_59_457" x1="92.5512" y1="33.4184" x2="27.8988" y2="88.5159" gradientUnits="userSpaceOnUse">
<stop stop-color="#FE7970"/>
<stop offset="1" stop-color="#DC3282"/>
</linearGradient>
</defs>
</svg>
