<svg width="128" height="128" viewBox="0 0 128 128" fill="none" xmlns="http://www.w3.org/2000/svg">
<path opacity="0.4" d="M11 38C11 22.536 23.536 10 39 10H69C95.5097 10 117 31.4903 117 58V90C117 105.464 104.464 118 89 118H39C23.536 118 11 105.464 11 90V38Z" fill="#3FC1C9"/>
<path fill-rule="evenodd" clip-rule="evenodd" d="M116.624 52H89C81.268 52 75 45.732 75 38V10.4048C96.7012 13.1109 113.903 30.3034 116.624 52Z" fill="url(#paint0_linear_59_273)"/>
<path fill-rule="evenodd" clip-rule="evenodd" d="M50.5846 31C46.1198 31 42.196 33.9598 40.9694 38.2528L36.8884 52.5364C36.8429 52.6955 36.7852 52.7461 36.7546 52.7702C36.7049 52.8093 36.6157 52.8529 36.4932 52.8643C36.3706 52.8757 36.2749 52.8493 36.2188 52.82C36.1843 52.802 36.1183 52.7629 36.0443 52.6149C34.6121 49.7505 31.6845 47.9412 28.4821 47.9412H27C24.7909 47.9412 23 49.732 23 51.9412C23 54.1503 24.7909 55.9412 27 55.9412H28.4821C28.6543 55.9412 28.8118 56.0385 28.8889 56.1926C32.3372 63.0893 42.4622 62.1484 44.5805 54.7342L48.6616 40.4506C48.9069 39.592 49.6917 39 50.5846 39H60.8824C63.0915 39 64.8824 37.2091 64.8824 35C64.8824 32.7909 63.0915 31 60.8824 31H50.5846ZM57.3578 48.8186C55.7957 47.2565 53.2631 47.2565 51.701 48.8186C50.1389 50.3807 50.1389 52.9134 51.701 54.4755L54.5184 57.2929C54.9089 57.6834 54.9089 58.3166 54.5184 58.7071L51.701 61.5245C50.1389 63.0866 50.1389 65.6193 51.701 67.1814C53.2631 68.7435 55.7957 68.7435 57.3578 67.1814L60.1752 64.364C60.5658 63.9734 61.1989 63.9734 61.5895 64.364L64.4069 67.1814C65.969 68.7435 68.5016 68.7435 70.0637 67.1814C71.6258 65.6193 71.6258 63.0866 70.0637 61.5245L67.2463 58.7071C66.8558 58.3166 66.8558 57.6834 67.2463 57.2929L70.0637 54.4755C71.6258 52.9134 71.6258 50.3807 70.0637 48.8186C68.5016 47.2565 65.969 47.2565 64.4069 48.8186L61.5895 51.636C61.1989 52.0266 60.5658 52.0266 60.1752 51.636L57.3578 48.8186ZM34 78.5601C32.9391 78.5601 31.9217 78.9815 31.1716 79.7316C30.4214 80.4818 30 81.4992 30 82.5601C30 83.6209 30.4214 84.6383 31.1716 85.3885C31.9217 86.1386 32.9391 86.5601 34 86.5601H76.6667C77.7275 86.5601 78.7449 86.1386 79.4951 85.3885C80.2452 84.6383 80.6667 83.6209 80.6667 82.5601C80.6667 81.4992 80.2452 80.4818 79.4951 79.7316C78.7449 78.9815 77.7275 78.5601 76.6667 78.5601H34ZM34 95.2267C32.9391 95.2267 31.9217 95.6482 31.1716 96.3983C30.4214 97.1484 30 98.1659 30 99.2267C30 100.288 30.4214 101.305 31.1716 102.055C31.9217 102.805 32.9391 103.227 34 103.227H63.3333C64.3942 103.227 65.4116 102.805 66.1618 102.055C66.9119 101.305 67.3333 100.288 67.3333 99.2267C67.3333 98.1659 66.9119 97.1484 66.1618 96.3983C65.4116 95.6482 64.3942 95.2267 63.3333 95.2267H34Z" fill="url(#paint1_linear_59_273)"/>
<defs>
<linearGradient id="paint0_linear_59_273" x1="95.8122" y1="10.4048" x2="95.8122" y2="52" gradientUnits="userSpaceOnUse">
<stop stop-color="#00FFE0"/>
<stop offset="1" stop-color="#078AA7"/>
</linearGradient>
<linearGradient id="paint1_linear_59_273" x1="50" y1="103" x2="49.5" y2="23.5" gradientUnits="userSpaceOnUse">
<stop stop-color="#00FFE0"/>
<stop offset="1" stop-color="#078AA7"/>
</linearGradient>
</defs>
</svg>
