<svg width="128" height="128" viewBox="0 0 128 128" fill="none" xmlns="http://www.w3.org/2000/svg">
<path opacity="0.4" d="M11 38C11 22.536 23.536 10 39 10H69C95.5097 10 117 31.4903 117 58V90C117 105.464 104.464 118 89 118H39C23.536 118 11 105.464 11 90V38Z" fill="url(#paint0_linear_59_1034)"/>
<path fill-rule="evenodd" clip-rule="evenodd" d="M116.624 52H89C81.268 52 75 45.732 75 38V10.4048C96.7012 13.1109 113.903 30.3034 116.624 52ZM26.1716 79.7316C26.9217 78.9815 27.9391 78.5601 29 78.5601H71.6667C72.7275 78.5601 73.7449 78.9815 74.4951 79.7316C75.2452 80.4818 75.6667 81.4992 75.6667 82.5601C75.6667 83.6209 75.2452 84.6383 74.4951 85.3885C73.7449 86.1386 72.7275 86.5601 71.6667 86.5601H29C27.9391 86.5601 26.9217 86.1386 26.1716 85.3885C25.4214 84.6383 25 83.6209 25 82.5601C25 81.4992 25.4214 80.4818 26.1716 79.7316ZM26.1716 96.3983C26.9217 95.6482 27.9391 95.2267 29 95.2267H58.3333C59.3942 95.2267 60.4116 95.6482 61.1618 96.3983C61.9119 97.1484 62.3333 98.1659 62.3333 99.2267C62.3333 100.288 61.9119 101.305 61.1618 102.055C60.4116 102.805 59.3942 103.227 58.3333 103.227H29C27.9391 103.227 26.9217 102.805 26.1716 102.055C25.4214 101.305 25 100.288 25 99.2267C25 98.1659 25.4214 97.1484 26.1716 96.3983ZM29 29C28.4477 29 28 29.4477 28 30V70C28 70.5523 28.4477 71 29 71H36.1699C36.7222 71 37.1699 70.5523 37.1699 70V59.0769C37.1699 58.5246 37.6176 58.0769 38.1699 58.0769H44.2769C44.609 58.0769 44.9194 58.2418 45.1054 58.5169L53.2316 70.5386C53.4176 70.8137 53.728 70.9786 54.0601 70.9786H62.4565C63.2621 70.9786 63.737 70.0747 63.2801 69.4113L54.8062 57.1086C54.4341 56.5684 54.6752 55.8225 55.2701 55.5461C57.3476 54.5809 59.172 53.1327 60.5865 51.3151C62.343 48.9109 63.2261 45.979 63.0896 43.0046V42.8744C63.1693 41.111 62.8909 39.3498 62.2715 37.6969C61.652 36.044 60.7041 34.5338 59.4851 33.2571C56.647 30.419 52.5634 29 47.2345 29H29ZM51.847 47.6754C50.3874 48.8534 48.5477 49.4575 46.6738 49.3742L38.1989 49.3084C37.6497 49.3041 37.2067 48.8577 37.2067 48.3084V38.2186C37.2067 37.6663 37.6544 37.2186 38.2067 37.2186H46.5068C48.4063 37.1077 50.2877 37.6404 51.847 38.7306C52.4942 39.2779 53.0013 39.9718 53.3261 40.7547C53.6509 41.5375 53.784 42.3866 53.7144 43.2313V43.3431C53.7369 44.1576 53.5815 44.9672 53.259 45.7154C52.9364 46.4636 52.4546 47.1325 51.847 47.6754Z" fill="url(#paint1_linear_59_1034)"/>
<defs>
<linearGradient id="paint0_linear_59_1034" x1="114.01" y1="64" x2="25.1862" y2="32.4641" gradientUnits="userSpaceOnUse">
<stop stop-color="#FE7970"/>
<stop offset="1" stop-color="#DC3282"/>
</linearGradient>
<linearGradient id="paint1_linear_59_1034" x1="113.529" y1="13.0579" x2="76.9826" y2="103.641" gradientUnits="userSpaceOnUse">
<stop stop-color="#FE0F7C"/>
<stop offset="1" stop-color="#DF0066"/>
</linearGradient>
</defs>
</svg>
