<svg width="128" height="128" viewBox="0 0 128 128" fill="none" xmlns="http://www.w3.org/2000/svg">
<path opacity="0.4" d="M11 38C11 22.536 23.536 10 39 10H69C95.5097 10 117 31.4903 117 58V90C117 105.464 104.464 118 89 118H39C23.536 118 11 105.464 11 90V38Z" fill="url(#paint0_linear_275_111)"/>
<path fill-rule="evenodd" clip-rule="evenodd" d="M116.624 52H89C81.268 52 75 45.732 75 38V10.4048C96.7012 13.1109 113.903 30.3034 116.624 52Z" fill="url(#paint1_linear_275_111)"/>
<path fill-rule="evenodd" clip-rule="evenodd" d="M56.587 33.0808C57.7585 31.9093 59.658 31.9093 60.8296 33.0808L69.0821 41.3333C70.9011 43.1523 69.6128 46.2626 67.0403 46.2626C66.5501 46.2626 66.1527 46.66 66.1527 47.1501V72.2626C66.1527 73.9195 64.8096 75.2626 63.1527 75.2626H47.4305C47.093 75.2626 46.8194 75.5362 46.8194 75.8737C46.8194 76.2112 47.093 76.4848 47.4305 76.4848H47.7069C50.2795 76.4848 51.5678 79.5951 49.7487 81.4142L41.4963 89.6666C40.3247 90.8382 38.4252 90.8382 37.2536 89.6666L29.0012 81.4142C27.1821 79.5951 28.4705 76.4848 31.043 76.4848C31.5332 76.4848 31.9305 76.0875 31.9305 75.5973V50.4848C31.9305 48.828 33.2737 47.4848 34.9305 47.4848H50.6527C50.9902 47.4848 51.2639 47.2112 51.2639 46.8737C51.2639 46.5362 50.9902 46.2626 50.6527 46.2626H50.3763C47.8038 46.2626 46.5155 43.1523 48.3345 41.3333L56.587 33.0808ZM59.4154 39.0515C59.0249 38.6609 58.3917 38.6609 58.0012 39.0515L55.7686 41.2841C56.2 41.56 56.4861 42.0433 56.4861 42.5934V65.8182C56.4861 67.475 55.1429 68.8182 53.4861 68.8182H47.4305C47.093 68.8182 46.8194 69.0918 46.8194 69.4293C46.8194 69.7668 47.093 70.0404 47.4305 70.0404H59.9305C60.4828 70.0404 60.9305 69.5927 60.9305 69.0404V42.5934C60.9305 42.0433 61.2166 41.56 61.648 41.2841L59.4154 39.0515ZM38.1527 52.7071C37.6005 52.7071 37.1527 53.1548 37.1527 53.7071V80.1541C37.1527 80.7042 36.8667 81.1875 36.4353 81.4634L38.6679 83.696C39.0584 84.0865 39.6915 84.0865 40.0821 83.696L42.3147 81.4634C41.8832 81.1875 41.5972 80.7042 41.5972 80.1541V56.9293C41.5972 55.2724 42.9403 53.9293 44.5972 53.9293H50.6527C50.9902 53.9293 51.2639 53.6557 51.2639 53.3182C51.2639 52.9807 50.9902 52.7071 50.6527 52.7071H38.1527ZM47.8194 59.1515C47.2671 59.1515 46.8194 59.5992 46.8194 60.1515V62.5959C46.8194 63.1482 47.2671 63.5959 47.8194 63.5959H50.2639C50.8161 63.5959 51.2639 63.1482 51.2639 62.5959V60.1515C51.2639 59.5992 50.8161 59.1515 50.2639 59.1515H47.8194ZM29.4594 102.914C28.3985 102.914 27.3811 102.493 26.6309 101.742C25.8808 100.992 25.4594 99.9749 25.4594 98.9141C25.4594 97.8532 25.8808 96.8358 26.6309 96.0856C27.3811 95.3355 28.3985 94.9141 29.4594 94.9141H70.126C71.1869 94.9141 72.2043 95.3355 72.9544 96.0856C73.7046 96.8358 74.126 97.8532 74.126 98.9141C74.126 99.9749 73.7046 100.992 72.9544 101.742C72.2043 102.493 71.1869 102.914 70.126 102.914H29.4594Z" fill="url(#paint2_linear_275_111)"/>
<defs>
<linearGradient id="paint0_linear_275_111" x1="64" y1="118" x2="64" y2="10" gradientUnits="userSpaceOnUse">
<stop stop-color="#A93AFF"/>
<stop offset="1" stop-color="#FF81FF"/>
</linearGradient>
<linearGradient id="paint1_linear_275_111" x1="95.8122" y1="52" x2="95.8122" y2="10.4048" gradientUnits="userSpaceOnUse">
<stop stop-color="#A93AFF"/>
<stop offset="1" stop-color="#FF81FF"/>
</linearGradient>
<linearGradient id="paint2_linear_275_111" x1="49.7927" y1="102.914" x2="49.7927" y2="32.2021" gradientUnits="userSpaceOnUse">
<stop stop-color="#A93AFF"/>
<stop offset="1" stop-color="#FF81FF"/>
</linearGradient>
</defs>
</svg>
