<svg width="128" height="128" viewBox="0 0 128 128" fill="none" xmlns="http://www.w3.org/2000/svg">
<path opacity="0.4" d="M11 38C11 22.536 23.536 10 39 10H89C104.464 10 117 22.536 117 38V90C117 105.464 104.464 118 89 118H39C23.536 118 11 105.464 11 90V38Z" fill="url(#paint0_linear_59_996)"/>
<path d="M38 46.4865L56.6497 44V61.4057H38V46.4865ZM64.1079 70.1079L87.7307 70.66V90.0002L64.1079 86.1327V70.1079ZM38 68.8639L56.6497 69.3136V85.0271L38 81.8847V68.8639Z" fill="url(#paint1_linear_59_996)" stroke="url(#paint2_linear_59_996)" stroke-width="3.833" stroke-linejoin="round"/>
<path opacity="0.4" fill-rule="evenodd" clip-rule="evenodd" d="M90 40.2693C90 39.6173 89.7195 38.9968 89.2301 38.566C88.7407 38.1352 88.0897 37.9357 87.4429 38.0183L63.8201 41.0382C62.6873 41.183 61.8386 42.1471 61.8386 43.2892V61.4055C61.8386 62.6588 62.8546 63.6748 64.1079 63.6748H87.7307C88.984 63.6748 90 62.6588 90 61.4055V40.2693Z" fill="url(#paint3_linear_59_996)"/>
<defs>
<linearGradient id="paint0_linear_59_996" x1="59.7696" y1="12.171" x2="73.385" y2="113.398" gradientUnits="userSpaceOnUse">
<stop stop-color="#F70FA8"/>
<stop offset="1" stop-color="#F40631"/>
</linearGradient>
<linearGradient id="paint1_linear_59_996" x1="86.0506" y1="45.3148" x2="69.1197" y2="91.2758" gradientUnits="userSpaceOnUse">
<stop stop-color="#FE0F7C"/>
<stop offset="1" stop-color="#DF0066"/>
</linearGradient>
<linearGradient id="paint2_linear_59_996" x1="86.0506" y1="45.3148" x2="69.1197" y2="91.2758" gradientUnits="userSpaceOnUse">
<stop stop-color="#FE0F7C"/>
<stop offset="1" stop-color="#DF0066"/>
</linearGradient>
<linearGradient id="paint3_linear_59_996" x1="89.0486" y1="38.7339" x2="79.7025" y2="64.4745" gradientUnits="userSpaceOnUse">
<stop stop-color="#FE0F7C"/>
<stop offset="1" stop-color="#DF0066"/>
</linearGradient>
</defs>
</svg>
