<svg width="128" height="128" viewBox="0 0 128 128" fill="none" xmlns="http://www.w3.org/2000/svg">
<path opacity="0.4" d="M11 38C11 22.536 23.536 10 39 10H69C95.5097 10 117 31.4903 117 58V90C117 105.464 104.464 118 89 118H39C23.536 118 11 105.464 11 90V38Z" fill="url(#paint0_linear_59_317)"/>
<path fill-rule="evenodd" clip-rule="evenodd" d="M89 52H116.624C113.903 30.3034 96.7012 13.1109 75 10.4048V38C75 45.732 81.268 52 89 52ZM28.1716 62.1716C28.9217 61.4214 29.9391 61 31 61H82.6667C83.7275 61 84.7449 61.4214 85.4951 62.1716C86.2452 62.9217 86.6667 63.9391 86.6667 65C86.6667 66.0609 86.2452 67.0783 85.4951 67.8284C84.7449 68.5786 83.7275 69 82.6667 69H31C29.9391 69 28.9217 68.5786 28.1716 67.8284C27.4214 67.0783 27 66.0609 27 65C27 63.9391 27.4214 62.9217 28.1716 62.1716ZM31 78.3335C29.9391 78.3335 28.9217 78.7549 28.1716 79.5051C27.4214 80.2552 27 81.2726 27 82.3335C27 83.3944 27.4214 84.4118 28.1716 85.1619C28.9217 85.9121 29.9391 86.3335 31 86.3335H73.6667C74.7275 86.3335 75.7449 85.9121 76.4951 85.1619C77.2452 84.4118 77.6667 83.3944 77.6667 82.3335C77.6667 81.2726 77.2452 80.2552 76.4951 79.5051C75.7449 78.7549 74.7275 78.3335 73.6667 78.3335H31ZM31 95.0002C29.9391 95.0002 28.9217 95.4216 28.1716 96.1717C27.4214 96.9219 27 97.9393 27 99.0002C27 100.061 27.4214 101.078 28.1716 101.829C28.9217 102.579 29.9391 103 31 103H60.3333C61.3942 103 62.4116 102.579 63.1618 101.829C63.9119 101.078 64.3333 100.061 64.3333 99.0002C64.3333 97.9393 63.9119 96.9219 63.1618 96.1717C62.4116 95.4216 61.3942 95.0002 60.3333 95.0002H31Z" fill="url(#paint1_linear_59_317)"/>
<defs>
<linearGradient id="paint0_linear_59_317" x1="64" y1="118" x2="64" y2="10" gradientUnits="userSpaceOnUse">
<stop stop-color="#607D8B"/>
<stop offset="0.9973" stop-color="#CECECE"/>
</linearGradient>
<linearGradient id="paint1_linear_59_317" x1="72.8122" y1="97.9999" x2="72.8122" y2="10.4048" gradientUnits="userSpaceOnUse">
<stop stop-color="#607D8B"/>
<stop offset="0.9973" stop-color="#CECECE"/>
</linearGradient>
</defs>
</svg>
