<svg width="128" height="128" viewBox="0 0 128 128" fill="none" xmlns="http://www.w3.org/2000/svg">
<path opacity="0.4" d="M11 38C11 22.536 23.536 10 39 10H89C104.464 10 117 22.536 117 38V90C117 105.464 104.464 118 89 118H39C23.536 118 11 105.464 11 90V38Z" fill="url(#paint0_linear_59_383)"/>
<path d="M64.6545 31.4505C64.0898 31.167 63.4244 31.167 62.8598 31.4505L36.1026 44.8839C35.4267 45.2233 35 45.9149 35 46.6713V81.3287C35 82.0851 35.4267 82.7767 36.1026 83.1161L62.8598 96.5495C63.4244 96.833 64.0898 96.833 64.6545 96.5495L91.4116 83.1161C92.0876 82.7767 92.5143 82.0851 92.5143 81.3287V46.6713C92.5143 45.9149 92.0876 45.2233 91.4116 44.8839L64.6545 31.4505ZM62.8598 40.7318C63.4244 40.4483 64.0898 40.4483 64.6545 40.7318L83.1951 50.0402C83.8711 50.3795 84.2978 51.0712 84.2978 51.8276V76.1727C84.2978 76.929 83.8711 77.6207 83.1951 77.9601L66.6545 86.264C65.3245 86.9317 63.7571 85.9647 63.7571 84.4766V61.166C63.7571 60.3801 63.2969 59.667 62.5807 59.3434L47.0396 52.3213C45.506 51.6283 45.4618 49.4664 46.9658 48.7113L62.8598 40.7318Z" fill="url(#paint1_linear_59_383)"/>
<defs>
<linearGradient id="paint0_linear_59_383" x1="64" y1="118" x2="64" y2="10" gradientUnits="userSpaceOnUse">
<stop stop-color="#A93AFF"/>
<stop offset="1" stop-color="#FF81FF"/>
</linearGradient>
<linearGradient id="paint1_linear_59_383" x1="35.0084" y1="63.0221" x2="92.5238" y2="63.0221" gradientUnits="userSpaceOnUse">
<stop stop-color="#A93AFF"/>
<stop offset="1" stop-color="#FF81FF"/>
</linearGradient>
</defs>
</svg>
