<svg width="128" height="128" viewBox="0 0 128 128" fill="none" xmlns="http://www.w3.org/2000/svg">
<path opacity="0.4" d="M11 38C11 22.536 23.536 10 39 10H69C95.5097 10 117 31.4903 117 58V90C117 105.464 104.464 118 89 118H39C23.536 118 11 105.464 11 90V38Z" fill="url(#paint0_linear_61_161)"/>
<path fill-rule="evenodd" clip-rule="evenodd" d="M89 52H116.624C113.903 30.3034 96.7012 13.1109 75 10.4048V38C75 45.732 81.268 52 89 52ZM29 78.5601C27.9391 78.5601 26.9217 78.9815 26.1716 79.7316C25.4214 80.4818 25 81.4992 25 82.5601C25 83.6209 25.4214 84.6383 26.1716 85.3885C26.9217 86.1386 27.9391 86.5601 29 86.5601H71.6667C72.7275 86.5601 73.7449 86.1386 74.4951 85.3885C75.2452 84.6383 75.6667 83.6209 75.6667 82.5601C75.6667 81.4992 75.2452 80.4818 74.4951 79.7316C73.7449 78.9815 72.7275 78.5601 71.6667 78.5601H29ZM29 95.2267C27.9391 95.2267 26.9217 95.6482 26.1716 96.3983C25.4214 97.1484 25 98.1659 25 99.2267C25 100.288 25.4214 101.305 26.1716 102.055C26.9217 102.805 27.9391 103.227 29 103.227H58.3333C59.3942 103.227 60.4116 102.805 61.1618 102.055C61.9119 101.305 62.3333 100.288 62.3333 99.2267C62.3333 98.1659 61.9119 97.1484 61.1618 96.3983C60.4116 95.6482 59.3942 95.2267 58.3333 95.2267H29Z" fill="url(#paint1_linear_61_161)"/>
<path fill-rule="evenodd" clip-rule="evenodd" d="M30.9632 28.0938C30.1239 27.9998 29.0126 27.8756 27.9805 28.2874C25.7036 29.0529 24.852 31.2975 25.0803 33.2452C25.3098 35.2026 26.669 37.1863 29.1078 37.361C42.6305 38.5862 54.5393 49.2488 57.1898 62.4306L57.1945 62.4547L57.2007 62.4779C57.33 62.9678 57.4054 63.5161 57.4841 64.1322L57.5004 64.2594C57.5719 64.8223 57.6499 65.436 57.7825 66.0238C58.07 67.3026 58.651 68.6278 60.1547 69.3858C61.6378 70.2607 63.4069 70.1025 64.7669 69.3617C66.1378 68.6158 67.2277 67.202 67.2051 65.4377L67.2047 65.411L67.2026 65.3835C66.4649 56.1974 62.366 47.3367 55.9566 40.6894C49.4811 33.8228 40.5472 29.3206 31.1497 28.1146L31.142 28.1135L31.1342 28.1127C31.0786 28.1067 31.0216 28.1003 30.9632 28.0938ZM29.8011 41.8777C28.8846 41.8277 28.0159 42.0434 27.2281 42.5206C25.9026 43.281 25.1774 44.648 25.029 46.0284C24.8812 47.4031 25.2943 48.8866 26.3651 49.9224C26.9295 50.5197 27.6211 50.8312 28.2672 51.0332C28.5927 51.1349 28.9215 51.2132 29.2258 51.2827L29.2819 51.2956L29.2834 51.2959C29.3202 51.3043 29.3565 51.3127 29.3923 51.3206L29.4099 51.3246C29.6507 51.3795 29.873 51.4302 30.0904 51.4886L30.1068 51.4934L30.1234 51.4965C36.8818 53.0156 42.4083 58.7755 43.6749 65.5124C43.9455 67.4392 45.2481 69.4046 47.4217 69.8653C48.9865 70.2666 50.5576 69.7338 51.6509 68.7584C52.7465 67.7803 53.4464 66.2798 53.1478 64.665C51.4708 53.1334 41.5355 43.3649 29.8587 41.8829L29.8301 41.8793L29.8011 41.8777ZM35.0518 58.8125C36.6637 60.0501 37.7647 62.0619 37.4613 64.2766C37.332 66.6735 35.6658 68.5075 33.679 69.3591C31.6907 70.2108 29.2118 70.1498 27.3747 68.5547C25.4259 67.1548 24.765 64.8086 25.1087 62.7022C25.4527 60.5932 26.8275 58.5727 29.1213 57.856C31.2033 57.0224 33.4393 57.5733 35.0518 58.8125Z" fill="url(#paint2_linear_61_161)"/>
<path d="M27.9805 28.2874L28.1399 28.7613L28.153 28.7569L28.1658 28.7518L27.9805 28.2874ZM30.9632 28.0938L31.0188 27.5969L31.0188 27.5969L30.9632 28.0938ZM25.0803 33.2452L25.5769 33.187L25.5769 33.187L25.0803 33.2452ZM29.1078 37.361L29.1529 36.8629L29.1435 36.8622L29.1078 37.361ZM57.1898 62.4306L57.6805 62.3343L57.68 62.3321L57.1898 62.4306ZM57.1945 62.4547L56.7039 62.5511L56.707 62.5666L56.711 62.5819L57.1945 62.4547ZM57.2007 62.4779L56.7171 62.6051L56.7172 62.6055L57.2007 62.4779ZM57.4841 64.1322L56.9881 64.1955L56.9882 64.1959L57.4841 64.1322ZM57.5004 64.2594L57.9964 64.1964L57.9963 64.1958L57.5004 64.2594ZM57.7825 66.0238L58.2703 65.9141L58.2702 65.9138L57.7825 66.0238ZM60.1547 69.3858L60.4087 68.9551L60.3945 68.9467L60.3797 68.9393L60.1547 69.3858ZM64.7669 69.3617L64.5279 68.9225L64.5278 68.9226L64.7669 69.3617ZM67.2051 65.4377L67.705 65.4313L67.705 65.4312L67.2051 65.4377ZM67.2047 65.411L67.7047 65.4045L67.7045 65.3883L67.7032 65.372L67.2047 65.411ZM67.2026 65.3835L67.701 65.3445L67.701 65.3435L67.2026 65.3835ZM55.9566 40.6894L55.5928 41.0325L55.5966 41.0365L55.9566 40.6894ZM31.1497 28.1146L31.0833 28.6101L31.0861 28.6105L31.1497 28.1146ZM31.142 28.1135L31.2084 27.6178L31.1966 27.6165L31.142 28.1135ZM31.1342 28.1127L31.1888 27.6157L31.1879 27.6156L31.1342 28.1127ZM27.2281 42.5206L27.477 42.9544L27.4871 42.9482L27.2281 42.5206ZM29.8011 41.8777L29.8293 41.3785L29.8284 41.3784L29.8011 41.8777ZM25.029 46.0284L24.5318 45.975L24.5318 45.975L25.029 46.0284ZM26.3651 49.9224L26.7286 49.579L26.7209 49.5708L26.7128 49.563L26.3651 49.9224ZM28.2672 51.0332L28.118 51.5104L28.1181 51.5105L28.2672 51.0332ZM29.2258 51.2827L29.3373 50.7953L29.3372 50.7953L29.2258 51.2827ZM29.2819 51.2956L29.3938 50.8082L29.3934 50.8081L29.2819 51.2956ZM29.2834 51.2959L29.1715 51.7832L29.1717 51.7833L29.2834 51.2959ZM29.3923 51.3206L29.5035 50.8331L29.5009 50.8326L29.3923 51.3206ZM29.4099 51.3246L29.2987 51.8121L29.2988 51.8121L29.4099 51.3246ZM30.0904 51.4886L30.2311 51.0086L30.2199 51.0056L30.0904 51.4886ZM30.1068 51.4934L29.9662 51.9732L29.9892 51.9799L30.0127 51.9844L30.1068 51.4934ZM30.1234 51.4965L30.2331 51.0087L30.2253 51.007L30.2175 51.0055L30.1234 51.4965ZM43.6749 65.5124L44.1701 65.4428L44.1684 65.4314L44.1663 65.42L43.6749 65.5124ZM47.4217 69.8653L47.5459 69.3809L47.5356 69.3783L47.5253 69.3761L47.4217 69.8653ZM51.6509 68.7584L51.9837 69.1314L51.9838 69.1314L51.6509 68.7584ZM53.1478 64.665L52.653 64.737L52.6544 64.7465L52.6561 64.7559L53.1478 64.665ZM29.8587 41.8829L29.9217 41.3869L29.9212 41.3868L29.8587 41.8829ZM29.8301 41.8793L29.8926 41.3832L29.8755 41.3811L29.8582 41.3801L29.8301 41.8793ZM37.4613 64.2766L36.9659 64.2087L36.9631 64.2291L36.962 64.2497L37.4613 64.2766ZM35.0518 58.8125L34.7471 59.209L34.7473 59.2091L35.0518 58.8125ZM33.679 69.3591L33.8758 69.8187L33.876 69.8187L33.679 69.3591ZM27.3747 68.5547L27.7025 68.1772L27.6851 68.1621L27.6664 68.1486L27.3747 68.5547ZM25.1087 62.7022L25.6021 62.7827L25.6021 62.7827L25.1087 62.7022ZM29.1213 57.856L29.2704 58.3333L29.289 58.3274L29.3071 58.3202L29.1213 57.856ZM28.1658 28.7518C29.0644 28.3932 30.0515 28.4949 30.9076 28.5907L31.0188 27.5969C30.1962 27.5048 28.9609 27.3579 27.7952 27.823L28.1658 28.7518ZM25.5769 33.187C25.3672 31.3983 26.1523 29.4296 28.1399 28.7613L27.8211 27.8135C25.255 28.6763 24.3367 31.1968 24.5837 33.3034L25.5769 33.187ZM29.1435 36.8622C27.0133 36.7097 25.7874 34.9823 25.5769 33.187L24.5837 33.3034C24.8322 35.4229 26.3246 37.663 29.0721 37.8597L29.1435 36.8622ZM57.68 62.3321C54.9855 48.9315 42.8942 38.1081 29.1529 36.863L29.0627 37.8589C42.3668 39.0644 54.093 49.566 56.6996 62.5292L57.68 62.3321ZM57.6852 62.3583L57.6804 62.3343L56.6992 62.527L56.7039 62.5511L57.6852 62.3583ZM57.6842 62.3507L57.6781 62.3275L56.711 62.5819L56.7171 62.6051L57.6842 62.3507ZM57.9801 64.069C57.9019 63.4565 57.8231 62.8766 57.6841 62.3503L56.7172 62.6055C56.8369 63.0589 56.909 63.5756 56.9881 64.1955L57.9801 64.069ZM57.9963 64.1958L57.98 64.0686L56.9882 64.1959L57.0045 64.3231L57.9963 64.1958ZM58.2702 65.9138C58.1438 65.3531 58.0684 64.7632 57.9964 64.1964L57.0044 64.3224C57.0754 64.8815 57.1561 65.5188 57.2947 66.1338L58.2702 65.9138ZM60.3797 68.9393C59.0685 68.2783 58.543 67.1267 58.2703 65.9141L57.2946 66.1335C57.5971 67.4785 58.2334 68.9772 59.9296 69.8323L60.3797 68.9393ZM64.5278 68.9226C63.2903 69.5967 61.7114 69.7236 60.4087 68.9551L59.9006 69.8164C61.5641 70.7977 63.5236 70.6083 65.0061 69.8008L64.5278 68.9226ZM66.7051 65.4441C66.7248 66.9827 65.7747 68.2441 64.5279 68.9225L65.0059 69.8009C66.501 68.9874 67.7305 67.4213 67.705 65.4313L66.7051 65.4441ZM66.7048 65.4175L66.7051 65.4442L67.705 65.4312L67.7047 65.4045L66.7048 65.4175ZM66.7041 65.4225L66.7062 65.45L67.7032 65.372L67.701 65.3445L66.7041 65.4225ZM55.5966 41.0365C61.9284 47.6032 65.9761 56.3564 66.7042 65.4236L67.701 65.3435C66.9538 56.0384 62.8036 47.0702 56.3165 40.3424L55.5966 41.0365ZM31.0861 28.6105C40.3707 29.802 49.198 34.2513 55.5928 41.0325L56.3203 40.3464C49.7643 33.3943 40.7237 28.8391 31.2134 27.6186L31.0861 28.6105ZM31.0756 28.6091L31.0833 28.6101L31.2161 27.619L31.2084 27.618L31.0756 28.6091ZM31.0796 28.6097L31.0874 28.6105L31.1966 27.6165L31.1888 27.6157L31.0796 28.6097ZM30.9076 28.5907C30.966 28.5972 31.0238 28.6036 31.0804 28.6098L31.1879 27.6156C31.1334 27.6097 31.0772 27.6034 31.0188 27.5969L30.9076 28.5907ZM27.4871 42.9482C28.1885 42.5234 28.9574 42.3324 29.7739 42.3769L29.8284 41.3784C28.8118 41.3229 27.8432 41.5634 26.969 42.0929L27.4871 42.9482ZM25.5261 46.0818C25.6605 44.8311 26.3142 43.6213 27.4769 42.9543L26.9793 42.0869C25.4911 42.9406 24.6942 44.4648 24.5318 45.975L25.5261 46.0818ZM26.7128 49.563C25.7697 48.6509 25.3921 47.3284 25.5261 46.0818L24.5318 45.975C24.3703 47.4778 24.8189 49.1224 26.0175 50.2818L26.7128 49.563ZM28.4164 50.556C27.8106 50.3666 27.2102 50.0888 26.7286 49.579L26.0017 50.2657C26.6488 50.9507 27.4316 51.2958 28.118 51.5104L28.4164 50.556ZM29.3372 50.7953C29.0345 50.7261 28.7219 50.6514 28.4162 50.556L28.1181 51.5105C28.4636 51.6184 28.8085 51.7003 29.1144 51.7702L29.3372 50.7953ZM29.3934 50.8081L29.3373 50.7953L29.1143 51.7701L29.1704 51.783L29.3934 50.8081ZM29.3954 50.8086L29.3938 50.8082L29.1699 51.7829L29.1715 51.7832L29.3954 50.8086ZM29.5009 50.8326C29.4669 50.825 29.4322 50.817 29.3951 50.8086L29.1717 51.7833C29.2082 51.7916 29.2461 51.8003 29.2838 51.8087L29.5009 50.8326ZM29.5211 50.8372L29.5035 50.8331L29.2811 51.8081L29.2987 51.8121L29.5211 50.8372ZM30.2199 51.0056C29.9918 50.9444 29.7601 50.8916 29.5211 50.8372L29.2988 51.8121C29.5414 51.8674 29.7542 51.9161 29.9609 51.9715L30.2199 51.0056ZM30.2475 51.0136L30.2311 51.0087L29.9497 51.9684L29.9662 51.9732L30.2475 51.0136ZM30.2175 51.0055L30.201 51.0023L30.0127 51.9844L30.0293 51.9876L30.2175 51.0055ZM44.1663 65.42C42.8629 58.4872 37.1865 52.5716 30.2331 51.0087L30.0138 51.9844C36.5772 53.4596 41.9538 59.0639 43.1835 65.6048L44.1663 65.42ZM47.5253 69.3761C45.615 68.9713 44.4206 67.2263 44.1701 65.4428L43.1798 65.5819C43.4705 67.652 44.8811 69.838 47.318 70.3544L47.5253 69.3761ZM51.318 68.3853C50.3276 69.2689 48.9233 69.7342 47.5459 69.3809L47.2974 70.3496C49.0496 70.799 50.7876 70.1986 51.9837 69.1314L51.318 68.3853ZM52.6561 64.7559C52.917 66.1668 52.3097 67.5 51.3179 68.3853L51.9838 69.1314C53.1833 68.0607 53.9758 66.3929 53.6394 64.5741L52.6561 64.7559ZM29.7958 42.3789C41.2507 43.8327 51.0085 53.4287 52.653 64.737L53.6426 64.5931C51.9331 52.8382 41.8204 42.897 29.9217 41.3869L29.7958 42.3789ZM29.7676 42.3754L29.7962 42.379L29.9212 41.3868L29.8926 41.3832L29.7676 42.3754ZM29.773 42.3769L29.802 42.3785L29.8582 41.3801L29.8293 41.3785L29.773 42.3769ZM37.9567 64.3445C38.2893 61.916 37.0793 59.7388 35.3563 58.4159L34.7473 59.2091C36.248 60.3613 37.24 62.2078 36.9659 64.2087L37.9567 64.3445ZM33.876 69.8187C35.9944 68.9106 37.8187 66.9333 37.9606 64.3035L36.962 64.2497C36.8453 66.4137 35.3372 68.1043 33.482 68.8996L33.876 69.8187ZM27.0469 68.9323C29.061 70.681 31.7545 70.7274 33.8758 69.8187L33.4821 68.8995C31.627 69.6941 29.3626 69.6186 27.7025 68.1772L27.0469 68.9323ZM24.6152 62.6217C24.2475 64.875 24.9494 67.4281 27.083 68.9608L27.6664 68.1486C25.9025 66.8814 25.2824 64.7421 25.6021 62.7827L24.6152 62.6217ZM28.9722 57.3788C26.4622 58.163 24.9832 60.3658 24.6152 62.6217L25.6021 62.7827C25.9222 60.8206 27.1927 58.9824 29.2704 58.3333L28.9722 57.3788ZM35.3565 58.4161C33.6326 57.0912 31.2124 56.4801 28.9354 57.3918L29.3071 58.3202C31.1941 57.5646 33.246 58.0553 34.7471 59.209L35.3565 58.4161Z" fill="url(#paint3_linear_61_161)"/>
<defs>
<linearGradient id="paint0_linear_61_161" x1="64" y1="118" x2="64" y2="10" gradientUnits="userSpaceOnUse">
<stop stop-color="#FD2E00"/>
<stop offset="1" stop-color="#FFBB55"/>
</linearGradient>
<linearGradient id="paint1_linear_61_161" x1="70.8122" y1="103.227" x2="70.8122" y2="10.4048" gradientUnits="userSpaceOnUse">
<stop stop-color="#E34E2B"/>
<stop offset="1" stop-color="#FAA21E"/>
</linearGradient>
<linearGradient id="paint2_linear_61_161" x1="46.1027" y1="69.9999" x2="46.1027" y2="28" gradientUnits="userSpaceOnUse">
<stop stop-color="#FD2E00"/>
<stop offset="1" stop-color="#FFBB55"/>
</linearGradient>
<linearGradient id="paint3_linear_61_161" x1="46.1027" y1="69.9999" x2="46.1027" y2="28" gradientUnits="userSpaceOnUse">
<stop stop-color="#FD2E00"/>
<stop offset="1" stop-color="#FFBB55"/>
</linearGradient>
</defs>
</svg>
