<svg width="128" height="128" viewBox="0 0 128 128" fill="none" xmlns="http://www.w3.org/2000/svg">
<path opacity="0.4" d="M11 38C11 22.536 23.536 10 39 10H89C104.464 10 117 22.536 117 38V90C117 105.464 104.464 118 89 118H39C23.536 118 11 105.464 11 90V38Z" fill="url(#paint0_linear_61_216)"/>
<path d="M33.213 38.5189C32.2079 38.1566 31.4113 39.4113 32.1668 40.1668L65.2333 73.2333C65.8633 73.8633 66.9404 73.4171 66.9404 72.5262V51.3812C66.9404 50.9597 66.6761 50.5834 66.2796 50.4405L33.213 38.5189ZM77.3472 50.8487C76.2694 50.8487 75.9542 52.319 76.9372 52.7608L96.4737 61.5426C97.3276 61.9264 98.1935 61.0315 97.7818 60.1907L93.481 51.4089C93.3131 51.0661 92.9647 50.8487 92.583 50.8487H77.3472ZM70.6851 52.3586C70.023 52.0577 69.2713 52.5417 69.2713 53.269V71.4537C69.2713 72.3295 70.3173 72.7822 70.9557 72.1828L84.0068 59.9302C84.5256 59.443 84.384 58.5852 83.7361 58.2907L70.6851 52.3586ZM58.9201 70.435C58.4418 69.9716 57.6526 70.0965 57.3407 70.685L43.5496 96.711C43.012 97.7255 44.3285 98.6982 45.1403 97.8864L65.1458 77.8802C65.5407 77.4853 65.5356 76.8434 65.1344 76.4548L58.9201 70.435Z" fill="url(#paint1_linear_61_216)"/>
<defs>
<linearGradient id="paint0_linear_61_216" x1="63.9999" y1="10" x2="63.9999" y2="118" gradientUnits="userSpaceOnUse">
<stop stop-color="#00FFE0"/>
<stop offset="1" stop-color="#078AA7"/>
</linearGradient>
<linearGradient id="paint1_linear_61_216" x1="63.9999" y1="37" x2="63.9999" y2="102.595" gradientUnits="userSpaceOnUse">
<stop stop-color="#00FFE0"/>
<stop offset="1" stop-color="#078AA7"/>
</linearGradient>
</defs>
</svg>
