<svg width="128" height="128" viewBox="0 0 128 128" fill="none" xmlns="http://www.w3.org/2000/svg">
<path opacity="0.4" d="M11 38C11 22.536 23.536 10 39 10H69C95.5097 10 117 31.4903 117 58V90C117 105.464 104.464 118 89 118H39C23.536 118 11 105.464 11 90V38Z" fill="url(#paint0_linear_254_110)"/>
<path fill-rule="evenodd" clip-rule="evenodd" d="M116.624 52H89C81.268 52 75 45.732 75 38V10.4048C96.7012 13.1109 113.903 30.3034 116.624 52Z" fill="url(#paint1_linear_254_110)"/>
<path fill-rule="evenodd" clip-rule="evenodd" d="M54.881 74.6521C55.7864 74.479 56.313 73.5626 56.102 72.6653C55.8873 71.752 54.986 71.1868 54.054 71.2948C53.4698 71.3625 52.9119 71.3964 52.3804 71.3964C50.9731 71.3964 49.9161 70.6776 49.2093 69.2401C48.8065 68.4207 49.2459 67.4864 49.9682 66.928C53.6603 64.0738 55.5063 58.7859 55.5063 51.0643C55.5063 45.1609 54.4162 40.6633 52.236 37.5714C50.0557 34.4795 46.8904 32.9336 42.74 32.9336C38.5897 32.9336 35.4288 34.4836 33.2572 37.5838C31.0857 40.6839 30 45.1774 30 51.0643C30 56.9512 31.0901 61.4406 33.2704 64.5325C35.4506 67.6243 38.6072 69.1703 42.74 69.1703C43.7335 69.1703 44.6592 69.731 45.0729 70.6343C46.3858 73.5004 48.6815 74.9335 51.9601 74.9335C52.9264 74.9335 53.9 74.8397 54.881 74.6521ZM37.3307 61.7975C38.5657 64.2651 40.3791 65.4989 42.7709 65.4989C47.6483 65.4989 50.087 60.6785 50.087 51.0377C50.087 41.3805 47.6483 36.552 42.7709 36.552C40.3947 36.552 38.5853 37.8021 37.3425 40.3025C36.0997 42.8029 35.4783 46.3813 35.4783 51.0377C35.4783 55.7434 36.0957 59.3299 37.3307 61.7975ZM69.5626 69.1173C70.824 69.1173 71.7704 67.9638 71.5241 66.7268L71.4485 66.347C71.2337 65.2679 70.1843 64.5917 69.084 64.5942L69.0629 64.5942C66.5663 64.5942 66.5663 62.2774 66.5663 60.9582V47.5978C66.5663 46.4932 67.4617 45.5978 68.5663 45.5978H70.1909C71.19 45.5978 72 44.7878 72 43.7886C72 42.7895 71.19 41.9795 70.1909 41.9795H68.5663C67.4617 41.9795 66.5663 41.0841 66.5663 39.9795V36.1447C66.5663 34.664 65.0132 33.6967 63.6842 34.3497L62.1614 35.098C61.4771 35.4343 61.0435 36.1305 61.0435 36.893V40.1534C61.0435 41.1619 60.2174 41.9795 59.2089 41.9795C58.2097 41.9795 57.3913 42.7895 57.3913 43.7886C57.3913 44.7878 58.2097 45.5978 59.2089 45.5978C60.2174 45.5978 61.0435 46.4153 61.0435 47.4239V60.9759C61.0435 68.2127 66.3838 69.1173 68.3478 69.1173H69.5626ZM34 78.56C32.9391 78.56 31.9217 78.9814 31.1716 79.7315C30.4214 80.4817 30 81.4991 30 82.56C30 83.6208 30.4214 84.6382 31.1716 85.3884C31.9217 86.1385 32.9391 86.56 34 86.56H76.6667C77.7275 86.56 78.7449 86.1385 79.4951 85.3884C80.2452 84.6382 80.6667 83.6208 80.6667 82.56C80.6667 81.4991 80.2452 80.4817 79.4951 79.7315C78.7449 78.9814 77.7275 78.56 76.6667 78.56H34ZM34 95.2266C32.9391 95.2266 31.9217 95.6481 31.1716 96.3982C30.4214 97.1483 30 98.1658 30 99.2266C30 100.287 30.4214 101.305 31.1716 102.055C31.9217 102.805 32.9391 103.227 34 103.227H63.3333C64.3942 103.227 65.4116 102.805 66.1618 102.055C66.9119 101.305 67.3333 100.287 67.3333 99.2266C67.3333 98.1658 66.9119 97.1483 66.1618 96.3982C65.4116 95.6481 64.3942 95.2266 63.3333 95.2266H34Z" fill="url(#paint2_linear_254_110)"/>
<defs>
<linearGradient id="paint0_linear_254_110" x1="64" y1="118" x2="64" y2="10" gradientUnits="userSpaceOnUse">
<stop stop-color="#00B59C"/>
<stop offset="1" stop-color="#9CFFAC"/>
</linearGradient>
<linearGradient id="paint1_linear_254_110" x1="95.8122" y1="52" x2="95.8122" y2="10.4048" gradientUnits="userSpaceOnUse">
<stop stop-color="#02AA93"/>
<stop offset="1" stop-color="#67FF80"/>
</linearGradient>
<linearGradient id="paint2_linear_254_110" x1="55.3333" y1="103.227" x2="55.3333" y2="32.9336" gradientUnits="userSpaceOnUse">
<stop stop-color="#02AA93"/>
<stop offset="1" stop-color="#67FF80"/>
</linearGradient>
</defs>
</svg>
