<svg width="128" height="128" viewBox="0 0 128 128" fill="none" xmlns="http://www.w3.org/2000/svg">
<path opacity="0.4" d="M11 38C11 22.536 23.536 10 39 10H69C95.5097 10 117 31.4903 117 58V90C117 105.464 104.464 118 89 118H39C23.536 118 11 105.464 11 90V38Z" fill="url(#paint0_linear_90_192)"/>
<path fill-rule="evenodd" clip-rule="evenodd" d="M116.624 52H89C81.268 52 75 45.732 75 38V10.4048C96.7012 13.1109 113.903 30.3034 116.624 52Z" fill="url(#paint1_linear_90_192)"/>
<path fill-rule="evenodd" clip-rule="evenodd" d="M48.8903 48.0412C42.1397 48.4486 38.4919 52.1844 38.0016 58.9207C37.976 59.273 38.259 59.5672 38.612 59.5672H44.3826C44.7196 59.5672 44.9912 59.2972 45.0321 58.9629C45.2969 56.8054 46.6999 55.2199 49.0104 54.9449C51.5317 54.7047 53.9331 55.3049 54.6534 56.9857C55.4336 58.8469 53.6929 61.0081 52.8525 61.9084C52.1629 62.6511 51.2859 63.3115 50.4076 63.9728L50.4064 63.9737C49.2974 64.8092 48.1865 65.6459 47.4497 66.6508C46.2847 68.3152 45.9911 70.4407 45.8586 73.0278C45.8406 73.3803 46.123 73.6745 46.4759 73.6745H51.411C51.7461 73.6745 52.0199 73.4086 52.0344 73.0737C52.1064 71.4431 52.2833 69.9488 53.0325 68.9321C53.8872 67.7801 54.9948 67.0192 56.1133 66.2508C56.802 65.7778 57.4946 65.3017 58.1352 64.7301C59.7561 63.3494 61.4969 61.6682 61.7371 59.0269C62.7575 51.2828 56.3942 47.561 48.8903 48.0412ZM52.9726 80.1579C52.9726 82.2798 51.2254 84 49.0703 84C46.9153 84 45.1684 82.2798 45.1684 80.1579C45.1684 78.0361 46.9153 76.3159 49.0703 76.3159C51.2254 76.3159 52.9726 78.0361 52.9726 80.1579ZM18.02 63.8719C18.0608 63.6536 18.274 63.5419 18.4768 63.4356C18.5102 63.4181 18.5433 63.4007 18.5753 63.3831C19.9501 62.624 22.5099 61.4036 26.2547 59.7211C30.3497 57.8714 32.6814 56.8133 33.2498 56.547C33.8311 56.2806 34.2381 56.1475 34.4706 56.1475C34.7031 56.1475 34.8258 56.2494 34.8388 56.4533C35.0644 59.9665 35.3082 62.4616 35.5703 63.9382C35.5861 64.0265 35.5964 64.1162 35.5899 64.206C35.582 64.3158 35.5635 64.4036 35.5345 64.4689C35.4857 64.5789 35.366 64.6235 35.2483 64.6673C35.2136 64.6802 35.1791 64.693 35.1466 64.7075L29.3252 67.3084C28.2595 67.7845 28.1599 69.2421 29.1534 69.8548C29.5947 70.1269 30.0976 70.4366 30.662 70.7842L31.1377 71.0772C33.7214 72.645 35.1488 73.5226 35.42 73.7104C35.6913 73.8831 35.827 74.0084 35.827 74.0865C35.827 74.1265 35.8237 74.1718 35.8171 74.2236C35.8027 74.3367 35.7637 74.444 35.7169 74.5479C35.0714 75.9792 34.2878 78.3645 33.3661 81.705C33.2757 82.0026 33.1142 82.1519 32.8816 82.1519C32.6621 82.1519 32.4166 82.0577 32.1453 81.8694L18.7419 72.3904C18.6353 72.3148 18.5322 72.2284 18.4801 72.1089C18.4184 71.967 18.3876 71.788 18.3876 71.5714C18.3876 69.5489 18.323 67.8016 18.1938 66.3279C18.0646 64.8392 18 64.0865 18 64.0709V64.024C18.0048 63.968 18.0115 63.9177 18.02 63.8719ZM80.9932 63.9611C80.9985 64.0031 81 64.045 81 64.0875V64.1416C80.7415 67.0728 80.6063 69.5489 80.5932 71.5714C80.5932 71.9319 80.5088 72.1821 80.3415 72.3236L66.8351 81.8694C66.4737 82.0577 66.2024 82.1519 66.0215 82.1519C65.8405 82.1519 65.6985 81.9865 65.5951 81.6577C65.4917 81.3289 65.201 80.3567 64.7229 78.7426C64.2615 77.1816 63.7693 75.7758 63.2473 74.5226C63.2112 74.4358 63.181 74.3465 63.1678 74.2538C63.158 74.1845 63.1537 74.1211 63.1537 74.0631C63.1537 73.9538 63.2893 73.8206 63.5605 73.6636C66.2093 72.0523 68.2873 70.7855 69.7941 69.864C70.7956 69.2514 70.6966 67.7738 69.6249 67.2948L63.8341 64.7079C63.8012 64.6932 63.7662 64.6801 63.7309 64.667C63.6137 64.6233 63.4946 64.5788 63.4459 64.4689C63.4171 64.4036 63.3985 64.3158 63.3907 64.206C63.3844 64.1162 63.3946 64.0265 63.4102 63.9382C63.6722 62.4616 63.9166 59.966 64.1419 56.4533C64.1551 56.2494 64.2776 56.1475 64.5102 56.1475C64.7424 56.1475 65.1429 56.2806 65.7117 56.547C66.2932 56.8133 68.6244 57.8714 72.7063 59.7211C76.4629 61.4036 79.0293 62.624 80.4054 63.3831C80.4459 63.4055 80.4886 63.427 80.5317 63.4487C80.7286 63.5479 80.9329 63.6509 80.9766 63.8587C80.9834 63.8904 80.9888 63.9245 80.9932 63.9611ZM26.1716 96.1716C26.9217 95.4214 27.9391 95 29 95H68.3333C69.3942 95 70.4116 95.4214 71.1618 96.1716C71.9119 96.9217 72.3333 97.9391 72.3333 99C72.3333 100.061 71.9119 101.078 71.1618 101.828C70.4116 102.579 69.3942 103 68.3333 103H29C27.9391 103 26.9217 102.579 26.1716 101.828C25.4214 101.078 25 100.061 25 99C25 97.9391 25.4214 96.9217 26.1716 96.1716Z" fill="url(#paint2_linear_90_192)"/>
<defs>
<linearGradient id="paint0_linear_90_192" x1="64" y1="118" x2="64" y2="10" gradientUnits="userSpaceOnUse">
<stop stop-color="#A93AFF"/>
<stop offset="1" stop-color="#FF81FF"/>
</linearGradient>
<linearGradient id="paint1_linear_90_192" x1="95.8122" y1="52" x2="95.8122" y2="10.4048" gradientUnits="userSpaceOnUse">
<stop stop-color="#A93AFF"/>
<stop offset="1" stop-color="#FF81FF"/>
</linearGradient>
<linearGradient id="paint2_linear_90_192" x1="49.5" y1="103" x2="49.5" y2="48" gradientUnits="userSpaceOnUse">
<stop stop-color="#A93AFF"/>
<stop offset="1" stop-color="#FF81FF"/>
</linearGradient>
</defs>
</svg>
