<svg width="128" height="128" viewBox="0 0 128 128" fill="none" xmlns="http://www.w3.org/2000/svg">
<path opacity="0.4" d="M11 38C11 22.536 23.536 10 39 10H69C95.5097 10 117 31.4903 117 58V90C117 105.464 104.464 118 89 118H39C23.536 118 11 105.464 11 90V38Z" fill="url(#paint0_linear_67_173)"/>
<path fill-rule="evenodd" clip-rule="evenodd" d="M116.47 50.8754C116.559 51.4705 116.093 52 115.491 52H89C81.268 52 75 45.732 75 38V11.5372C75 10.9358 75.529 10.4699 76.1239 10.5584C96.9194 13.6524 113.361 30.0847 116.47 50.8754ZM27.1716 101.828C27.9217 102.579 28.9391 103 30 103H70.6667C71.7275 103 72.7449 102.579 73.4951 101.828C74.2452 101.078 74.6667 100.061 74.6667 99C74.6667 97.9391 74.2452 96.9217 73.4951 96.1716C72.7449 95.4214 71.7275 95 70.6667 95H30C28.9391 95 27.9217 95.4214 27.1716 96.1716C26.4214 96.9217 26 97.9391 26 99C26 100.061 26.4214 101.078 27.1716 101.828ZM62.7813 49.3418C64.7052 50.8184 66.357 52.6155 67.6654 54.6518C67.9639 55.1163 67.798 55.7293 67.3198 56.0055L50.4904 65.7237C50.1823 65.9016 49.8029 65.9024 49.4941 65.7259L32.6417 56.0933C32.1629 55.8197 31.994 55.2087 32.2891 54.7428C34.0945 51.8921 36.5629 49.5139 39.4893 47.8149C41.8784 46.4353 44.5158 45.5399 47.2509 45.1798C49.986 44.8196 52.7652 45.0018 55.4299 45.7159C58.0947 46.4301 60.5926 47.6622 62.7813 49.3418ZM50.9904 68.5852C50.992 68.2295 51.1824 67.9015 51.4904 67.7236L68.3197 58.0055C68.798 57.7293 69.412 57.8922 69.665 58.3832C70.7739 60.5345 71.504 62.8637 71.8205 65.2684C72.1806 68.004 71.9984 70.7837 71.2844 73.4489C70.5704 76.1141 69.3386 78.6125 67.6592 80.8015C65.9798 82.9905 63.8857 84.8273 61.4966 86.2069C58.5625 87.8931 55.269 88.8429 51.8976 88.9822C51.3465 89.0049 50.9016 88.553 50.9041 88.0015L50.9904 68.5852ZM48.9903 68.5942C48.9919 68.2338 48.7995 67.9004 48.4866 67.7215L31.6432 58.0941C31.1639 57.8202 30.5509 57.9854 30.2998 58.4771C28.7865 61.4398 27.9961 64.7242 28 68.0606C28.0043 71.7306 28.9697 75.3356 30.8001 78.5164C32.6387 81.6927 35.2772 84.3319 38.4527 86.1712C41.3395 87.8432 44.5786 88.8012 47.9007 88.9721C48.452 89.0005 48.9016 88.5524 48.904 88.0004L48.9903 68.5942Z" fill="url(#paint1_linear_67_173)"/>
<defs>
<linearGradient id="paint0_linear_67_173" x1="108.829" y1="11.9441" x2="10.4126" y2="112.057" gradientUnits="userSpaceOnUse">
<stop stop-color="#FFC700"/>
<stop offset="0.1987" stop-color="#FF49AB"/>
<stop offset="0.37955" stop-color="#BA49FF"/>
<stop offset="0.53125" stop-color="#5849FF"/>
<stop offset="0.84375" stop-color="#1EFFD6"/>
<stop offset="0.9999" stop-color="#00FFFF"/>
</linearGradient>
<linearGradient id="paint1_linear_67_173" x1="109.639" y1="12.0716" x2="5.60543" y2="115.045" gradientUnits="userSpaceOnUse">
<stop stop-color="#FFC700"/>
<stop offset="0.1987" stop-color="#FF49AB"/>
<stop offset="0.37955" stop-color="#BA49FF"/>
<stop offset="0.53125" stop-color="#5849FF"/>
<stop offset="0.84375" stop-color="#1EFFD6"/>
<stop offset="0.9999" stop-color="#00FFFF"/>
</linearGradient>
</defs>
</svg>
