<svg width="129" height="128" viewBox="0 0 129 128" fill="none" xmlns="http://www.w3.org/2000/svg">
<path opacity="0.4" d="M11.5 38C11.5 22.536 24.036 10 39.5 10H89.5C104.964 10 117.5 22.536 117.5 38V90C117.5 105.464 104.964 118 89.5 118H39.5C24.036 118 11.5 105.464 11.5 90V38Z" fill="url(#paint0_linear_310_457)"/>
<path opacity="0.5" d="M32.8436 36C32.0821 36.0959 31.5083 36.7393 31.5 37.5068V64.9644C31.5 65.7705 32.191 66.4807 32.9972 66.4807H46.7212V71.5577H36.5769V76.6346H54.3433V61.3942H62.6998C62.1378 61.3698 61.6877 60.9198 61.6633 60.3577V54.123C61.6441 53.6432 61.9896 53.1729 62.4503 53.0865C62.5299 53.0767 62.6105 53.0767 62.6902 53.0865H65.9444C66.4626 53.0865 66.9713 53.5664 66.9713 54.1134V60.6974H72.125V37.5071C72.0953 36.6875 71.4378 36.0299 70.6182 36.0003" fill="url(#paint1_linear_310_457)"/>
<path d="M58.2475 51.2406C57.8779 51.29 57.5377 51.4682 57.2866 51.7438C57.0356 52.0194 56.8898 52.3748 56.8751 52.7473V80.1953C56.8751 80.9919 57.6044 81.7117 58.4106 81.7117H70.1058C71.2104 81.7117 72.1058 82.6071 72.1058 83.7117V87.3127C72.1058 88.4172 73.0012 89.3127 74.1058 89.3127H80.2693C81.3739 89.3127 82.2693 88.4172 82.2693 87.3127V83.7117C82.2693 82.6071 83.1647 81.7117 84.2693 81.7117H95.9837C96.3813 81.6974 96.7587 81.533 97.0401 81.2517C97.3214 80.9704 97.4857 80.5929 97.5 80.1953V52.7473C97.4835 52.3504 97.3185 51.9743 97.0376 51.6934C96.7567 51.4125 96.3805 51.2475 95.9837 51.231M61.952 86.779V89.8655C61.952 90.97 62.8474 91.8655 63.952 91.8655H90.4231C91.5277 91.8655 92.4231 90.97 92.4231 89.8655V86.779" fill="url(#paint2_linear_310_457)"/>
<defs>
<linearGradient id="paint0_linear_310_457" x1="64.5" y1="118" x2="64.5" y2="10" gradientUnits="userSpaceOnUse">
<stop stop-color="#5570FF"/>
<stop offset="1" stop-color="#4DD3FF"/>
</linearGradient>
<linearGradient id="paint1_linear_310_457" x1="51.8125" y1="76.6346" x2="51.8125" y2="36" gradientUnits="userSpaceOnUse">
<stop stop-color="#5570FF"/>
<stop offset="1" stop-color="#4DD3FF"/>
</linearGradient>
<linearGradient id="paint2_linear_310_457" x1="77.1875" y1="91.8655" x2="77.1875" y2="51.231" gradientUnits="userSpaceOnUse">
<stop stop-color="#5570FF"/>
<stop offset="1" stop-color="#4DD3FF"/>
</linearGradient>
</defs>
</svg>
