<svg width="128" height="128" viewBox="0 0 128 128" fill="none" xmlns="http://www.w3.org/2000/svg">
<path opacity="0.4" d="M11 38C11 22.536 23.536 10 39 10H89C104.464 10 117 22.536 117 38V90C117 105.464 104.464 118 89 118H39C23.536 118 11 105.464 11 90V38Z" fill="url(#paint0_linear_59_444)"/>
<path d="M90.2985 31.0018C85.4783 31.072 65.7064 33.086 57.7914 60.8341C51.0653 84.4152 38.1741 83.839 36.5808 83.6838C36.4747 83.6735 36.4717 83.6695 36.3654 83.6619V83.6619C35.9144 83.6293 35.0001 84.3592 35.0001 84.8114V95.6976C35.0001 96.4153 35.584 96.9959 36.3016 96.9917V96.9917C36.3844 96.9912 36.4651 96.9847 36.5478 96.9843C38.4177 96.973 58.3308 98.5847 67.953 72.1075C68.2461 71.3011 69.0115 70.7352 69.8695 70.7352H83.8754C84.98 70.7352 85.8754 69.8398 85.8754 68.7352V59.4588C85.8754 58.3542 84.98 57.4588 83.8754 57.4588H76.7625C75.4517 57.4588 74.5411 56.231 75.0934 55.0422C76.8367 51.2899 81.3732 44.4719 91.3657 44.3029C91.3684 44.3028 91.3672 44.3028 91.3699 44.3028V44.3028C92.1782 44.293 92.7476 43.7129 92.7476 42.9045V31.7108C92.7476 31.3192 92.4302 31.0018 92.0387 31.0018H91.3414C91.3349 31.0018 91.3297 31.007 91.3297 31.0135V31.0135C91.3297 31.0202 91.3242 31.0256 91.3175 31.025C91.2467 31.0192 90.9092 30.9929 90.2985 31.0018Z" fill="url(#paint1_linear_59_444)"/>
<defs>
<linearGradient id="paint0_linear_59_444" x1="64" y1="118" x2="64" y2="10" gradientUnits="userSpaceOnUse">
<stop stop-color="#FD3A84"/>
<stop offset="1" stop-color="#FFA68D"/>
</linearGradient>
<linearGradient id="paint1_linear_59_444" x1="63.874" y1="97" x2="63.874" y2="31" gradientUnits="userSpaceOnUse">
<stop stop-color="#FF1B71"/>
<stop offset="0.9998" stop-color="#FF867E"/>
<stop offset="0.9999" stop-color="#FF6678"/>
</linearGradient>
</defs>
</svg>
