<svg width="128" height="128" viewBox="0 0 128 128" fill="none" xmlns="http://www.w3.org/2000/svg">
<path opacity="0.4" d="M11 38C11 22.536 23.536 10 39 10H89C104.464 10 117 22.536 117 38V90C117 105.464 104.464 118 89 118H39C23.536 118 11 105.464 11 90V38Z" fill="url(#paint0_linear_59_597)"/>
<path fill-rule="evenodd" clip-rule="evenodd" d="M99 84.7183C99 85.471 98.701 86.1928 98.1688 86.725C97.6366 87.2572 96.9148 87.5562 96.1622 87.5562H31.8378C31.0852 87.5562 30.3634 87.2572 29.8312 86.725C29.299 86.1928 29 85.471 29 84.7183C29 83.9657 29.299 83.2439 29.8312 82.7117C30.3634 82.1795 31.0852 81.8805 31.8378 81.8805H96.1622C96.9148 81.8805 97.6366 82.1795 98.1688 82.7117C98.701 83.2439 99 83.9657 99 84.7183ZM99 65.7994C99 66.552 98.701 67.2738 98.1688 67.806C97.6366 68.3382 96.9148 68.6372 96.1622 68.6372H69.6757C68.923 68.6372 68.2012 68.3382 67.669 67.806C67.1368 67.2738 66.8378 66.552 66.8378 65.7994C66.8378 65.0468 67.1368 64.3249 67.669 63.7927C68.2012 63.2605 68.923 62.9616 69.6757 62.9616H96.1622C96.9148 62.9616 97.6366 63.2605 98.1688 63.7927C98.701 64.3249 99 65.0468 99 65.7994ZM99 46.8805C99 47.6331 98.701 48.3549 98.1688 48.8871C97.6366 49.4193 96.9148 49.7183 96.1622 49.7183H69.6757C68.923 49.7183 68.2012 49.4193 67.669 48.8871C67.1368 48.3549 66.8378 47.6331 66.8378 46.8805C66.8378 46.1278 67.1368 45.406 67.669 44.8738C68.2012 44.3416 68.923 44.0426 69.6757 44.0426H96.1622C96.9148 44.0426 97.6366 44.3416 98.1688 44.8738C98.701 45.406 99 46.1278 99 46.8805Z" fill="url(#paint1_linear_59_597)"/>
<path d="M49.5089 45.0839C55.7219 48.6709 58.8284 50.4644 59.8122 52.8406C60.5803 54.6947 60.5803 56.7758 59.8122 58.6298C58.8284 61.006 55.7219 62.7996 49.5089 66.3866C43.296 69.9736 40.1895 71.7671 37.643 71.4304C36.6576 71.301 35.7073 70.9788 34.8464 70.4821C33.9856 69.9855 33.2309 69.3241 32.6257 68.5358C31.063 66.4963 31.063 62.9093 31.063 55.7352C31.063 48.5612 31.063 44.9741 32.6257 42.9347C33.2309 42.1464 33.9856 41.485 34.8464 40.9883C35.7073 40.4917 36.6576 40.1695 37.643 40.0401C40.1895 39.7033 43.296 41.4969 49.5089 45.0839Z" fill="url(#paint2_linear_59_597)"/>
<defs>
<linearGradient id="paint0_linear_59_597" x1="64" y1="118" x2="64" y2="10" gradientUnits="userSpaceOnUse">
<stop stop-color="#A93AFF"/>
<stop offset="1" stop-color="#FF81FF"/>
</linearGradient>
<linearGradient id="paint1_linear_59_597" x1="64" y1="87.5562" x2="64" y2="44.0426" gradientUnits="userSpaceOnUse">
<stop stop-color="#DC18FC"/>
<stop offset="1" stop-color="#8E1EFF"/>
</linearGradient>
<linearGradient id="paint2_linear_59_597" x1="45.7256" y1="40" x2="45.7256" y2="71.4705" gradientUnits="userSpaceOnUse">
<stop stop-color="#DC18FC"/>
<stop offset="1" stop-color="#8E1EFF"/>
</linearGradient>
</defs>
</svg>
