<svg width="128" height="128" viewBox="0 0 128 128" fill="none" xmlns="http://www.w3.org/2000/svg">
<path opacity="0.4" d="M11 38C11 22.536 23.536 10 39 10H69C95.5097 10 117 31.4903 117 58V90C117 105.464 104.464 118 89 118H39C23.536 118 11 105.464 11 90V38Z" fill="url(#paint0_linear_63_272)"/>
<path fill-rule="evenodd" clip-rule="evenodd" d="M33 64C31.9391 64 30.9217 63.5786 30.1716 62.8284C29.4214 62.0783 29 61.0609 29 60C29 58.9391 29.4214 57.9217 30.1716 57.1716C30.9217 56.4214 31.9391 56 33 56H62.3333C63.3942 56 64.4116 56.4214 65.1618 57.1716C65.9119 57.9217 66.3333 58.9391 66.3333 60C66.3333 61.0609 65.9119 62.0783 65.1618 62.8284C64.4116 63.5786 63.3942 64 62.3333 64H33ZM33 80.6667C31.9391 80.6667 30.9217 80.2452 30.1716 79.4951C29.4214 78.7449 29 77.7275 29 76.6667C29 75.6058 29.4214 74.5884 30.1716 73.8382C30.9217 73.0881 31.9391 72.6667 33 72.6667H75.6667C76.7275 72.6667 77.7449 73.0881 78.4951 73.8382C79.2452 74.5884 79.6667 75.6058 79.6667 76.6667C79.6667 77.7275 79.2452 78.7449 78.4951 79.4951C77.7449 80.2452 76.7275 80.6667 75.6667 80.6667H33ZM33 98.0002C31.9391 98.0002 30.9217 97.5787 30.1716 96.8286C29.4214 96.0784 29 95.061 29 94.0002C29 92.9393 29.4214 91.9219 30.1716 91.1717C30.9217 90.4216 31.9391 90.0002 33 90.0002H84.6667C85.7275 90.0002 86.7449 90.4216 87.4951 91.1717C88.2452 91.9219 88.6667 92.9393 88.6667 94.0002C88.6667 95.061 88.2452 96.0784 87.4951 96.8286C86.7449 97.5787 85.7275 98.0002 84.6667 98.0002H33Z" fill="url(#paint1_linear_63_272)"/>
<path fill-rule="evenodd" clip-rule="evenodd" d="M116.624 52H89C81.268 52 75 45.732 75 38V10.4048C96.7012 13.1109 113.903 30.3034 116.624 52Z" fill="url(#paint2_linear_63_272)"/>
<defs>
<linearGradient id="paint0_linear_63_272" x1="64" y1="118" x2="64" y2="10" gradientUnits="userSpaceOnUse">
<stop stop-color="#A5A5A5"/>
<stop offset="0.9973" stop-color="#DCDCDC"/>
</linearGradient>
<linearGradient id="paint1_linear_63_272" x1="59.0085" y1="106.556" x2="59.0085" y2="60.0118" gradientUnits="userSpaceOnUse">
<stop stop-color="#FDA700"/>
<stop offset="1" stop-color="#FFDE00"/>
</linearGradient>
<linearGradient id="paint2_linear_63_272" x1="95.8122" y1="52" x2="95.8122" y2="10.4048" gradientUnits="userSpaceOnUse">
<stop stop-color="#A5A5A5"/>
<stop offset="0.9973" stop-color="#DCDCDC"/>
</linearGradient>
</defs>
</svg>
