<svg width="128" height="128" viewBox="0 0 128 128" fill="none" xmlns="http://www.w3.org/2000/svg">
<path opacity="0.4" d="M11 38C11 22.536 23.536 10 39 10H89C104.464 10 117 22.536 117 38V90C117 105.464 104.464 118 89 118H39C23.536 118 11 105.464 11 90V38Z" fill="url(#paint0_linear_239_67)"/>
<path fill-rule="evenodd" clip-rule="evenodd" d="M36.3162 41.2929C34.6425 39.6192 31.9289 39.6192 30.2553 41.2929C28.5816 42.9665 28.5816 45.6801 30.2553 47.3538L39.5249 56.6234C40.3059 57.4044 40.3059 58.6708 39.5249 59.4518L30.2553 68.7214C28.5816 70.3951 28.5816 73.1087 30.2553 74.7823C31.9289 76.456 34.6425 76.456 36.3162 74.7823L45.5858 65.5127C46.3668 64.7317 47.6332 64.7317 48.4142 65.5127L57.6838 74.7823C59.3575 76.456 62.0711 76.456 63.7447 74.7823C65.4184 73.1087 65.4184 70.3951 63.7447 68.7214L54.4751 59.4518C53.6941 58.6708 53.6941 57.4044 54.4751 56.6234L63.7447 47.3538C65.4184 45.6801 65.4184 42.9665 63.7447 41.2929C62.0711 39.6192 59.3575 39.6192 57.6838 41.2929L48.4142 50.5625C47.6332 51.3435 46.3668 51.3435 45.5858 50.5625L36.3162 41.2929ZM98.1688 87.1312C98.701 86.599 99 85.8772 99 85.1246C99 84.3719 98.701 83.6501 98.1688 83.1179C97.6366 82.5857 96.9148 82.2867 96.1622 82.2867H31.8378C31.0852 82.2867 30.3634 82.5857 29.8312 83.1179C29.299 83.6501 29 84.3719 29 85.1246C29 85.8772 29.299 86.599 29.8312 87.1312C30.3634 87.6634 31.0852 87.9624 31.8378 87.9624H96.1622C96.9148 87.9624 97.6366 87.6634 98.1688 87.1312ZM98.1688 68.2123C98.701 67.6801 99 66.9583 99 66.2056C99 65.453 98.701 64.7312 98.1688 64.199C97.6366 63.6668 96.9148 63.3678 96.1622 63.3678H72.6757C71.923 63.3678 71.2012 63.6668 70.669 64.199C70.1368 64.7312 69.8378 65.453 69.8378 66.2056C69.8378 66.9583 70.1368 67.6801 70.669 68.2123C71.2012 68.7445 71.923 69.0435 72.6757 69.0435H96.1622C96.9148 69.0435 97.6366 68.7445 98.1688 68.2123ZM98.1688 49.2934C98.701 48.7612 99 48.0394 99 47.2867C99 46.5341 98.701 45.8123 98.1688 45.2801C97.6366 44.7479 96.9148 44.4489 96.1622 44.4489H72.6757C71.923 44.4489 71.2012 44.7479 70.669 45.2801C70.1368 45.8123 69.8378 46.5341 69.8378 47.2867C69.8378 48.0394 70.1368 48.7612 70.669 49.2934C71.2012 49.8256 71.923 50.1246 72.6757 50.1246H96.1622C96.9148 50.1246 97.6366 49.8256 98.1688 49.2934Z" fill="url(#paint1_linear_239_67)"/>
<defs>
<linearGradient id="paint0_linear_239_67" x1="64" y1="118" x2="64" y2="10" gradientUnits="userSpaceOnUse">
<stop stop-color="#A5A5A5"/>
<stop offset="0.9973" stop-color="#DCDCDC"/>
</linearGradient>
<linearGradient id="paint1_linear_239_67" x1="64.0831" y1="87.9549" x2="79.2383" y2="46.1879" gradientUnits="userSpaceOnUse">
<stop stop-color="#979797"/>
<stop offset="1" stop-color="#4D4D4D"/>
</linearGradient>
</defs>
</svg>
