<svg width="128" height="128" viewBox="0 0 128 128" fill="none" xmlns="http://www.w3.org/2000/svg">
<path opacity="0.4" d="M11 38C11 22.536 23.536 10 39 10H89C104.464 10 117 22.536 117 38V90C117 105.464 104.464 118 89 118H39C23.536 118 11 105.464 11 90V38Z" fill="url(#paint0_linear_59_591)"/>
<path fill-rule="evenodd" clip-rule="evenodd" d="M47.919 75.4415C47.5101 74.1318 47.2332 72.4591 47.2167 71.6016C47.2053 70.8653 47.3409 69.7144 47.3786 69.3963C47.3848 69.3421 47.3879 69.3122 47.3879 69.3122L34.4498 79.8986C32.1868 81.726 29.1518 81.726 27.7201 79.8919C26.3148 78.0872 27.0372 75.2404 29.2706 73.528L29.3597 73.4589L53.0721 55.2625L39.7874 55.2887L39.7907 55.2789C37.5376 55.2722 36.0663 53.7548 36.4886 51.9238C36.9009 50.1294 38.9825 48.7042 41.1466 48.7042H41.1862L67.389 48.6743L58.7925 41.6772L58.7956 41.6741C57.4627 40.5723 57.6313 38.8338 59.1385 37.7814C60.623 36.7423 62.8995 36.739 64.255 37.7748L64.3082 37.821L84.9229 53.6521L84.9193 53.6558C86.939 55.2104 88.6648 57.113 90.0163 59.2735C92.2304 62.8128 93.2565 66.9667 92.9455 71.1298C92.8326 72.5695 92.5562 73.9921 92.121 75.3688C91.2295 78.1877 89.7373 80.7798 87.7465 82.966C85.6077 85.3219 82.9996 87.2045 80.0899 88.492C76.9214 89.8992 73.492 90.6241 70.0249 90.6195C66.5609 90.637 63.1325 89.9229 59.9635 88.525C57.0497 87.253 54.438 85.3786 52.3002 83.0258C50.3058 80.8463 48.8105 78.2584 47.919 75.4415ZM70.0285 80.6504C74.0695 80.6437 77.7975 79.1035 80.4627 76.3851C81.7229 75.1146 82.6969 73.5894 83.3198 71.9115C83.8989 70.3177 84.1216 68.6161 83.9726 66.927C83.8277 65.261 83.3327 63.6775 82.5412 62.2394C81.7626 60.8276 80.687 59.5576 79.3706 58.482C76.7203 56.3633 73.4213 55.2217 70.0285 55.249C66.6321 55.2289 63.3326 56.3798 60.6859 58.5083C59.3664 59.5937 58.2908 60.8668 57.5122 62.2822C56.7171 63.7172 56.2257 65.3074 56.0808 66.9734C55.9308 68.6631 56.1551 70.3646 56.7372 71.9579C57.3534 73.6332 58.3259 75.1548 59.5876 76.4181C62.256 79.1298 65.9839 80.6571 70.0285 80.6504ZM64.2355 61.632C62.6092 63.0077 61.5341 64.9444 61.4119 67.1446C61.283 69.4076 62.1936 71.5088 63.7869 73.066C65.5462 74.7439 67.8907 75.6694 70.3219 75.6457C72.751 75.6684 75.093 74.7428 76.8508 73.066C78.4471 71.5088 79.3547 69.4076 79.2294 67.1446C79.1072 64.9475 78.0285 63.0077 76.4053 61.632C74.8053 60.2795 72.6608 59.455 70.3188 59.455C68.098 59.4406 65.9432 60.2119 64.2355 61.632Z" fill="url(#paint1_linear_59_591)"/>
<defs>
<linearGradient id="paint0_linear_59_591" x1="63.9993" y1="118" x2="63.9993" y2="10" gradientUnits="userSpaceOnUse">
<stop stop-color="#FDA700"/>
<stop offset="1" stop-color="#FFDE00"/>
</linearGradient>
<linearGradient id="paint1_linear_59_591" x1="60.0001" y1="90.62" x2="60.0001" y2="37" gradientUnits="userSpaceOnUse">
<stop stop-color="#FDA700"/>
<stop offset="1" stop-color="#FFDE00"/>
</linearGradient>
</defs>
</svg>
