<svg width="128" height="128" viewBox="0 0 128 128" fill="none" xmlns="http://www.w3.org/2000/svg">
<path opacity="0.4" d="M11 38C11 22.536 23.536 10 39 10H69C95.5097 10 117 31.4903 117 58V90C117 105.464 104.464 118 89 118H39C23.536 118 11 105.464 11 90V38Z" fill="url(#paint0_linear_59_821)"/>
<path fill-rule="evenodd" clip-rule="evenodd" d="M116.624 52H89C81.268 52 75 45.732 75 38V10.4048C96.7012 13.1109 113.903 30.3034 116.624 52Z" fill="url(#paint1_linear_59_821)"/>
<path d="M27.1716 101.828C27.9217 102.579 28.9391 103 30 103H70.6667C71.7275 103 72.7449 102.579 73.4951 101.828C74.2452 101.078 74.6667 100.061 74.6667 99C74.6667 97.9391 74.2452 96.9217 73.4951 96.1716C72.7449 95.4214 71.7275 95 70.6667 95H30C28.9391 95 27.9217 95.4214 27.1716 96.1716C26.4214 96.9217 26 97.9391 26 99C26 100.061 26.4214 101.078 27.1716 101.828Z" fill="url(#paint2_linear_59_821)"/>
<path d="M44.2619 78.6257L44.5479 77.244C44.6764 76.6234 44.2024 76.0413 43.5686 76.0413H42.1577H32C31.4477 76.0413 31 75.5936 31 75.0413V66.3208C31 65.6691 31.6135 65.1925 32.2515 65.3254C33.5167 65.589 34.6082 65.7273 35.2975 65.7273C38.2611 65.7273 40.6694 63.3189 40.6694 60.3554C40.6694 57.3918 38.2611 54.9835 35.2975 54.9835C34.6082 54.9835 33.5167 55.1218 32.2515 55.3854C31.6135 55.5183 31 55.0416 31 54.3899V45.6694C31 45.1171 31.4477 44.6694 32 44.6694H42.1577H43.5686C44.2024 44.6694 44.6764 44.0874 44.5479 43.4667L44.2619 42.0851C44.0113 40.8741 43.8926 39.889 43.8926 39.2975C43.8926 36.929 45.8215 35 48.1901 35C50.5586 35 52.4876 36.929 52.4876 39.2975C52.4876 39.889 52.3689 40.8741 52.1183 42.0851L51.8323 43.4667C51.7038 44.0874 52.1777 44.6694 52.8115 44.6694H54.2224H64.3802C64.9324 44.6694 65.3802 45.1171 65.3802 45.6694V54.3899C65.3802 55.0416 64.7666 55.5183 64.1286 55.3854C62.8635 55.1218 61.772 54.9835 61.0826 54.9835C58.1191 54.9835 55.7107 57.3918 55.7107 60.3554C55.7107 63.3189 58.1191 65.7273 61.0826 65.7273C61.772 65.7273 62.8635 65.589 64.1286 65.3254C64.7666 65.1925 65.3802 65.6691 65.3802 66.3208V75.0413C65.3802 75.5936 64.9324 76.0413 64.3802 76.0413H54.2224H52.8116C52.1778 76.0413 51.7039 76.6233 51.8323 77.2439L52.1182 78.6255C52.3688 79.8367 52.4876 80.8218 52.4876 81.4132C52.4876 83.7818 50.5586 85.7107 48.1901 85.7107C45.8215 85.7107 43.8926 83.7818 43.8926 81.4132C43.8926 80.8217 44.0113 79.8366 44.2619 78.6257Z" fill="url(#paint3_linear_59_821)" stroke="url(#paint4_linear_59_821)" stroke-width="3"/>
<defs>
<linearGradient id="paint0_linear_59_821" x1="64" y1="118" x2="64" y2="10" gradientUnits="userSpaceOnUse">
<stop stop-color="#00B59C"/>
<stop offset="1" stop-color="#9CFFAC"/>
</linearGradient>
<linearGradient id="paint1_linear_59_821" x1="95.8122" y1="52" x2="95.8122" y2="10.4048" gradientUnits="userSpaceOnUse">
<stop stop-color="#02AA93"/>
<stop offset="1" stop-color="#67FF80"/>
</linearGradient>
<linearGradient id="paint2_linear_59_821" x1="48.5" y1="61" x2="50.3333" y2="103" gradientUnits="userSpaceOnUse">
<stop stop-color="#02AA93"/>
<stop offset="1" stop-color="#67FF80"/>
</linearGradient>
<linearGradient id="paint3_linear_59_821" x1="48.1901" y1="85.7107" x2="48.1901" y2="35" gradientUnits="userSpaceOnUse">
<stop stop-color="#02AA93"/>
<stop offset="1" stop-color="#67FF80"/>
</linearGradient>
<linearGradient id="paint4_linear_59_821" x1="48.1901" y1="85.7107" x2="48.1901" y2="35" gradientUnits="userSpaceOnUse">
<stop stop-color="#02AA93"/>
<stop offset="1" stop-color="#67FF80"/>
</linearGradient>
</defs>
</svg>
