<svg width="128" height="128" viewBox="0 0 128 128" fill="none" xmlns="http://www.w3.org/2000/svg">
<path opacity="0.4" d="M11 38C11 22.536 23.536 10 39 10H69C95.5097 10 117 31.4903 117 58V90C117 105.464 104.464 118 89 118H39C23.536 118 11 105.464 11 90V38Z" fill="url(#paint0_linear_63_562)"/>
<path d="M80.1825 74.9688C80.7348 74.9669 81.186 75.4149 81.1678 75.9669C80.6909 90.4354 68.8369 102.043 54.2416 102.093C39.3109 102.145 27.1654 90.0827 27.1139 75.1521L27.0173 47.1868C27.0154 46.6345 27.4615 46.1852 28.0138 46.1833L29.8759 46.1769C30.4282 46.175 30.8774 46.6211 30.8793 47.1734L30.9759 75.1388C31.0201 87.9365 41.4305 98.2752 54.2282 98.231C66.6907 98.188 76.8213 88.3147 77.3027 75.9795C77.3242 75.4276 77.7682 74.9771 78.3205 74.9752L80.1825 74.9688Z" fill="url(#paint1_linear_63_562)"/>
<path d="M73.4516 72.992C73.4885 83.6568 64.8728 92.3321 54.2081 92.369C43.5433 92.4058 34.868 83.7902 34.8312 73.1254L34.7346 45.1601C34.7326 44.6078 35.1788 44.1585 35.7311 44.1566L37.5932 44.1502C38.1454 44.1483 38.5947 44.5945 38.5966 45.1467L38.6932 73.1121C38.7227 81.6439 45.6629 88.5364 54.1947 88.5069C62.7265 88.4774 69.619 81.5372 69.5896 73.0054C69.5817 72.1349 69.5002 71.2674 69.3465 70.4122C69.2304 69.7664 69.7059 69.1429 70.362 69.1406L72.2182 69.1342C72.6917 69.1326 73.1042 69.4629 73.183 69.9298C73.3537 70.9413 73.4436 71.9653 73.4516 72.992Z" fill="url(#paint2_linear_63_562)"/>
<path d="M65.7205 71.0187C65.7426 77.4176 60.5733 82.6228 54.1744 82.6449C47.7756 82.667 42.5704 77.4976 42.5483 71.0988L42.4517 43.1334C42.4498 42.5811 42.8959 42.1319 43.4482 42.13L45.3103 42.1235C45.8626 42.1216 46.3118 42.5678 46.3137 43.1201L46.4103 71.0854C46.4251 75.3513 49.8952 78.7976 54.1611 78.7828C58.427 78.7681 61.8732 75.298 61.8585 71.0321C61.8494 69.2817 61.2462 67.5903 60.1539 66.2321C60.0012 66.0422 59.9094 65.809 59.9086 65.5654L59.8988 62.7498C59.8962 61.98 60.7227 61.5098 61.3263 61.9875C64.0631 64.1537 65.7043 67.4669 65.7205 71.0187Z" fill="url(#paint3_linear_63_562)"/>
<path d="M80.1825 74.9688C80.7348 74.9669 81.186 75.4149 81.1678 75.9669C80.6909 90.4354 68.8369 102.043 54.2416 102.093C39.3109 102.145 27.1654 90.0827 27.1139 75.1521L27.0173 47.1868C27.0154 46.6345 27.4615 46.1852 28.0138 46.1833L29.8759 46.1769C30.4282 46.175 30.8774 46.6211 30.8793 47.1734L30.9759 75.1388C31.0201 87.9365 41.4305 98.2752 54.2282 98.231C66.6907 98.188 76.8213 88.3147 77.3027 75.9795C77.3242 75.4276 77.7682 74.9771 78.3205 74.9752L80.1825 74.9688Z" stroke="url(#paint4_linear_63_562)" stroke-width="2"/>
<path d="M73.4516 72.992C73.4885 83.6568 64.8728 92.3321 54.2081 92.369C43.5433 92.4058 34.868 83.7902 34.8312 73.1254L34.7346 45.1601C34.7326 44.6078 35.1788 44.1585 35.7311 44.1566L37.5932 44.1502C38.1454 44.1483 38.5947 44.5945 38.5966 45.1467L38.6932 73.1121C38.7227 81.6439 45.6629 88.5364 54.1947 88.5069C62.7265 88.4774 69.619 81.5372 69.5896 73.0054C69.5817 72.1349 69.5002 71.2674 69.3465 70.4122C69.2304 69.7664 69.7059 69.1429 70.362 69.1406L72.2182 69.1342C72.6917 69.1326 73.1042 69.4629 73.183 69.9298C73.3537 70.9413 73.4436 71.9653 73.4516 72.992Z" stroke="url(#paint5_linear_63_562)" stroke-width="2"/>
<path d="M65.7205 71.0187C65.7426 77.4176 60.5733 82.6228 54.1744 82.6449C47.7756 82.667 42.5704 77.4976 42.5483 71.0988L42.4517 43.1334C42.4498 42.5811 42.8959 42.1319 43.4482 42.13L45.3103 42.1235C45.8626 42.1216 46.3118 42.5678 46.3137 43.1201L46.4103 71.0854C46.4251 75.3513 49.8952 78.7976 54.1611 78.7828C58.427 78.7681 61.8732 75.298 61.8585 71.0321C61.8494 69.2817 61.2462 67.5903 60.1539 66.2321C60.0012 66.0422 59.9094 65.809 59.9086 65.5654L59.8988 62.7498C59.8962 61.98 60.7227 61.5098 61.3263 61.9875C64.0631 64.1537 65.7043 67.4669 65.7205 71.0187Z" stroke="url(#paint6_linear_63_562)" stroke-width="2"/>
<path fill-rule="evenodd" clip-rule="evenodd" d="M116.624 52H89C81.268 52 75 45.732 75 38V10.4048C96.7012 13.1109 113.903 30.3034 116.624 52Z" fill="url(#paint7_linear_63_562)"/>
<defs>
<linearGradient id="paint0_linear_63_562" x1="64" y1="10" x2="64" y2="118" gradientUnits="userSpaceOnUse">
<stop stop-color="#FF7D92"/>
<stop offset="1" stop-color="#AA80FF"/>
</linearGradient>
<linearGradient id="paint1_linear_63_562" x1="54.0928" y1="42.1235" x2="54.0928" y2="102.093" gradientUnits="userSpaceOnUse">
<stop stop-color="#FF7D92"/>
<stop offset="1" stop-color="#AA80FF"/>
</linearGradient>
<linearGradient id="paint2_linear_63_562" x1="54.0928" y1="42.1235" x2="54.0928" y2="102.093" gradientUnits="userSpaceOnUse">
<stop stop-color="#FF7D92"/>
<stop offset="1" stop-color="#AA80FF"/>
</linearGradient>
<linearGradient id="paint3_linear_63_562" x1="54.0928" y1="42.1235" x2="54.0928" y2="102.093" gradientUnits="userSpaceOnUse">
<stop stop-color="#FF7D92"/>
<stop offset="1" stop-color="#AA80FF"/>
</linearGradient>
<linearGradient id="paint4_linear_63_562" x1="54.0928" y1="42.1235" x2="54.0928" y2="102.093" gradientUnits="userSpaceOnUse">
<stop stop-color="#FF7D92"/>
<stop offset="1" stop-color="#AA80FF"/>
</linearGradient>
<linearGradient id="paint5_linear_63_562" x1="54.0928" y1="42.1235" x2="54.0928" y2="102.093" gradientUnits="userSpaceOnUse">
<stop stop-color="#FF7D92"/>
<stop offset="1" stop-color="#AA80FF"/>
</linearGradient>
<linearGradient id="paint6_linear_63_562" x1="54.0928" y1="42.1235" x2="54.0928" y2="102.093" gradientUnits="userSpaceOnUse">
<stop stop-color="#FF7D92"/>
<stop offset="1" stop-color="#AA80FF"/>
</linearGradient>
<linearGradient id="paint7_linear_63_562" x1="95.8122" y1="52" x2="95.8122" y2="10.4048" gradientUnits="userSpaceOnUse">
<stop stop-color="#A93AFF"/>
<stop offset="1" stop-color="#FF81FF"/>
</linearGradient>
</defs>
</svg>
