<svg width="128" height="128" viewBox="0 0 128 128" fill="none" xmlns="http://www.w3.org/2000/svg">
<path opacity="0.4" d="M11 38C11 22.536 23.536 10 39 10H89C104.464 10 117 22.536 117 38V90C117 105.464 104.464 118 89 118H39C23.536 118 11 105.464 11 90V38Z" fill="url(#paint0_linear_68_202)"/>
<path d="M49.5 81.8C49.5 82.6752 49.1523 83.5146 48.5335 84.1335C47.9146 84.7523 47.0752 85.1 46.2 85.1C45.3248 85.1 44.4854 84.7523 43.8666 84.1335C43.2477 83.5146 42.9 82.6752 42.9 81.8C42.9 80.9248 43.2477 80.0854 43.8666 79.4665C44.4854 78.8477 45.3248 78.5 46.2 78.5C47.0752 78.5 47.9146 78.8477 48.5335 79.4665C49.1523 80.0854 49.5 80.9248 49.5 81.8Z" fill="url(#paint1_linear_68_202)"/>
<path opacity="0.4" d="M59.4 42.2V81.8C59.4 85.3009 58.0093 88.6583 55.5338 91.1338C53.0583 93.6093 49.7009 95 46.2 95C42.6991 95 39.3417 93.6093 36.8662 91.1338C34.3907 88.6583 33 85.3009 33 81.8V42.2C33 38.6991 34.3907 35.3417 36.8662 32.8662C39.3417 30.3907 42.6991 29 46.2 29C49.7009 29 53.0583 30.3907 55.5338 32.8662C58.0093 35.3417 59.4 38.6991 59.4 42.2Z" fill="url(#paint2_linear_68_202)"/>
<path opacity="0.7" d="M56.9183 89.5085L70.0325 76.391L89.2979 56.294C91.7219 53.7565 93.0483 50.366 92.9896 46.8572C92.9309 43.3485 91.4919 40.0042 88.9843 37.5492C86.4768 35.0942 83.1028 33.7262 79.5936 33.7418C76.0844 33.7574 72.7227 35.1553 70.2371 37.6325L59.3999 48.4697V81.7997C59.3999 84.6773 58.4792 87.3404 56.9183 89.5085Z" fill="url(#paint3_linear_68_202)"/>
<path d="M70.0327 76.3942L56.9185 89.5084C55.6955 91.2083 54.0857 92.5928 52.222 93.5476C50.3583 94.5024 48.2941 95.0001 46.2001 94.9996H85.4701C88.9709 94.9996 92.3284 93.6089 94.8039 91.1334C97.2794 88.6579 98.6701 85.3005 98.6701 81.7996C98.6701 78.2988 97.2794 74.9413 94.8039 72.4658C92.3284 69.9903 88.9709 68.5996 85.4701 68.5996H77.5039L70.0327 76.3942Z" fill="url(#paint4_linear_68_202)"/>
<defs>
<linearGradient id="paint0_linear_68_202" x1="63.9993" y1="118" x2="63.9993" y2="10" gradientUnits="userSpaceOnUse">
<stop stop-color="#FDA700"/>
<stop offset="1" stop-color="#FFDE00"/>
</linearGradient>
<linearGradient id="paint1_linear_68_202" x1="46.2" y1="85.1" x2="46.2" y2="78.5" gradientUnits="userSpaceOnUse">
<stop stop-color="#FD5900"/>
<stop offset="1" stop-color="#FFDE00"/>
</linearGradient>
<linearGradient id="paint2_linear_68_202" x1="46.2" y1="95" x2="46.2" y2="29" gradientUnits="userSpaceOnUse">
<stop stop-color="#FD5900"/>
<stop offset="1" stop-color="#FFDE00"/>
</linearGradient>
<linearGradient id="paint3_linear_68_202" x1="74.9549" y1="89.5085" x2="74.9549" y2="33.7417" gradientUnits="userSpaceOnUse">
<stop stop-color="#FD5900"/>
<stop offset="1" stop-color="#FFDE00"/>
</linearGradient>
<linearGradient id="paint4_linear_68_202" x1="72.4351" y1="94.9996" x2="72.4351" y2="68.5996" gradientUnits="userSpaceOnUse">
<stop stop-color="#FD5900"/>
<stop offset="1" stop-color="#FFDE00"/>
</linearGradient>
</defs>
</svg>
