<svg width="128" height="128" viewBox="0 0 128 128" fill="none" xmlns="http://www.w3.org/2000/svg">
<path opacity="0.4" d="M11 38C11 22.536 23.536 10 39 10H89C104.464 10 117 22.536 117 38V90C117 105.464 104.464 118 89 118H39C23.536 118 11 105.464 11 90V38Z" fill="url(#paint0_linear_68_240)"/>
<path fill-rule="evenodd" clip-rule="evenodd" d="M99 86.1622C99 86.9148 98.701 87.6366 98.1688 88.1688C97.6366 88.701 96.9148 89 96.1622 89H31.8378C31.0852 89 30.3634 88.701 29.8312 88.1688C29.299 87.6366 29 86.9148 29 86.1622C29 85.4095 29.299 84.6877 29.8312 84.1555C30.3634 83.6233 31.0852 83.3243 31.8378 83.3243H96.1622C96.9148 83.3243 97.6366 83.6233 98.1688 84.1555C98.701 84.6877 99 85.4095 99 86.1622ZM99 67.2432C99 67.9959 98.701 68.7177 98.1688 69.2499C97.6366 69.7821 96.9148 70.0811 96.1622 70.0811H69.6757C68.923 70.0811 68.2012 69.7821 67.669 69.2499C67.1368 68.7177 66.8378 67.9959 66.8378 67.2432C66.8378 66.4906 67.1368 65.7688 67.669 65.2366C68.2012 64.7044 68.923 64.4054 69.6757 64.4054H96.1622C96.9148 64.4054 97.6366 64.7044 98.1688 65.2366C98.701 65.7688 99 66.4906 99 67.2432ZM99 48.3243C99 49.077 98.701 49.7988 98.1688 50.331C97.6366 50.8632 96.9148 51.1622 96.1622 51.1622H69.6757C68.923 51.1622 68.2012 50.8632 67.669 50.331C67.1368 49.7988 66.8378 49.077 66.8378 48.3243C66.8378 47.5717 67.1368 46.8499 67.669 46.3177C68.2012 45.7855 68.923 45.4865 69.6757 45.4865H96.1622C96.9148 45.4865 97.6366 45.7855 98.1688 46.3177C98.701 46.8499 99 47.5717 99 48.3243Z" fill="url(#paint1_linear_68_240)"/>
<path fill-rule="evenodd" clip-rule="evenodd" d="M60.2242 60.2878C60.8681 60.6298 61.3647 61.1698 61.7142 61.7098C62.3949 62.8258 62.3397 64.1938 61.6774 65.3999L60.3898 67.5598C59.7092 68.7118 58.4399 69.4318 57.1338 69.4318C56.49 69.4318 55.7726 69.2519 55.1839 68.8918C54.7057 68.5858 54.1538 68.4778 53.5651 68.4778C51.744 68.4778 50.2172 69.9718 50.162 71.7538C50.162 73.8238 48.4697 75.4438 46.3542 75.4438H43.8525C41.7186 75.4438 40.0263 73.8238 40.0263 71.7538C39.9895 69.9718 38.4627 68.4778 36.6415 68.4778C36.0345 68.4778 35.4826 68.5858 35.0228 68.8918C34.4341 69.2519 33.6983 69.4318 33.0729 69.4318C31.7484 69.4318 30.4791 68.7118 29.7985 67.5598L28.5292 65.3999C27.8486 64.2299 27.8118 62.8258 28.4924 61.7098C28.7868 61.1698 29.3386 60.6298 29.9641 60.2878C30.4791 60.0358 30.8102 59.6218 31.123 59.1358C32.0427 57.5878 31.4909 55.5538 29.9273 54.6358C28.1061 53.6098 27.5175 51.3238 28.566 49.5418L29.7985 47.4178C30.8654 45.6358 33.1464 45.0058 34.986 46.0498C36.5863 46.9138 38.665 46.3378 39.6032 44.8078C39.8975 44.3038 40.063 43.7638 40.0263 43.2238C39.9895 42.5218 40.1918 41.8558 40.5413 41.3158C41.2219 40.1998 42.4544 39.4798 43.7973 39.4438H46.391C47.7523 39.4438 48.9847 40.1998 49.6654 41.3158C49.9965 41.8558 50.2172 42.5218 50.162 43.2238C50.1252 43.7638 50.2908 44.3038 50.5851 44.8078C51.5233 46.3378 53.6019 46.9138 55.2207 46.0498C57.0418 45.0058 59.3412 45.6358 60.3898 47.4178L61.6223 49.5418C62.6892 51.3238 62.1005 53.6098 60.261 54.6358C58.6974 55.5538 58.1456 57.5878 59.0837 59.1358C59.378 59.6218 59.7092 60.0358 60.2242 60.2878ZM39.8975 57.4618C39.8975 60.2878 42.2337 62.5378 45.1217 62.5378C48.0098 62.5378 50.2908 60.2878 50.2908 57.4618C50.2908 54.6358 48.0098 52.3678 45.1217 52.3678C42.2337 52.3678 39.8975 54.6358 39.8975 57.4618Z" fill="url(#paint2_linear_68_240)"/>
<defs>
<linearGradient id="paint0_linear_68_240" x1="64" y1="118" x2="64" y2="10" gradientUnits="userSpaceOnUse">
<stop stop-color="#A93AFF"/>
<stop offset="1" stop-color="#FF81FF"/>
</linearGradient>
<linearGradient id="paint1_linear_68_240" x1="64" y1="89" x2="64" y2="45.4865" gradientUnits="userSpaceOnUse">
<stop stop-color="#DC18FC"/>
<stop offset="1" stop-color="#8E1EFF"/>
</linearGradient>
<linearGradient id="paint2_linear_68_240" x1="45.1" y1="39.4438" x2="45.1" y2="75.4438" gradientUnits="userSpaceOnUse">
<stop stop-color="#DC18FC"/>
<stop offset="1" stop-color="#8E1EFF"/>
</linearGradient>
</defs>
</svg>
