<svg width="128" height="128" viewBox="0 0 128 128" fill="none" xmlns="http://www.w3.org/2000/svg">
<path opacity="0.4" d="M11 38C11 22.536 23.536 10 39 10H89C104.464 10 117 22.536 117 38V90C117 105.464 104.464 118 89 118H39C23.536 118 11 105.464 11 90V38Z" fill="url(#paint0_linear_61_69)"/>
<path fill-rule="evenodd" clip-rule="evenodd" d="M50.5767 81.0629C51.6691 82.9709 52.2899 83.84 52.6842 84.0127C52.9377 84.1234 53.4401 84.1249 53.7025 84.0148C54.0027 83.8888 54.3112 83.5543 54.3991 83.259C54.4619 83.0486 54.4455 82.7323 54.305 81.4355C53.9922 78.5483 53.8994 76.4014 54.0027 74.4018C54.3821 67.0485 56.7304 62.8844 61.8428 60.6714C64.3223 59.5982 66.9229 58.9827 70.9623 58.6719C71.6488 58.6191 73.8717 58.6031 75.9011 58.6002C78.0229 58.5971 79.7534 60.2641 79.7807 62.3857C79.7846 62.6897 79.7879 63.0111 79.7906 63.3496L79.8197 67.1082C79.8217 67.3674 79.88 67.623 79.9907 67.8574V67.8574C80.4374 68.8033 81.6586 69.4231 82.695 69.2295C82.9105 69.1893 83.2217 69.0928 83.3865 69.0156C83.6203 68.9057 86.4563 66.9078 92.6431 60.6987C100.255 53.0593 100.585 52.7182 100.788 52.2839C100.979 51.877 101 51.7724 101 51.2492C101 50.726 100.978 50.6213 100.788 50.2144C100.585 49.7803 100.253 49.437 92.6753 41.8265C85.3782 34.498 83.7193 33.4263 83.3409 33.2482C83.1042 33.1368 82.7623 33.0371 82.5304 33.0122C81.4691 32.898 80.2847 33.6002 79.9294 34.5542C79.7921 34.9212 79.7904 34.9881 79.7904 38.954C79.7904 40.0555 79.7803 40.9501 79.7674 41.6467C79.7451 42.8441 79.021 43.6075 77.8238 43.6351C77.1391 43.6509 76.2063 43.6645 74.9357 43.672C72.0996 43.6887 70.056 43.7333 69.61 43.7721C66.083 44.0782 63.7985 44.4691 61.5379 45.0386C56.6082 46.2807 52.4987 48.633 50.0102 51.6372C47.5455 54.6127 46.2866 57.6629 45.7611 62.4698C45.646 63.5229 45.6031 67.0326 45.6949 67.8806C45.8726 69.5199 46.2801 71.2909 46.9499 73.3347C47.7235 75.695 48.7239 77.8268 50.5767 81.0629Z" fill="url(#paint1_linear_61_69)"/>
<path d="M45.331 94.6767C43.9338 94.5436 42.726 94.1938 41.4213 93.5438C40.2505 92.9607 39.4981 92.4052 38.4232 91.3305C37.3482 90.2556 36.7926 89.5034 36.2093 88.3328C35.5429 86.9958 35.2161 85.8365 35.0706 84.2936C34.9753 83.2845 34.9771 48.6328 35.0721 47.6582C35.3431 44.8863 36.4289 42.6267 38.4634 40.6009C40.2228 38.8491 42.191 37.8381 44.7115 37.3913C45.0947 37.3233 46.4992 37.186 51.2053 37.3047H55.5371C58.3861 37.3061 58.1762 38.9101 56.7287 39.9045C56.0349 40.3466 55.3879 40.8071 54.7554 41.2573L54.7546 41.2578C53.8252 41.9194 52.927 42.5587 51.9578 43.0846L51.3521 43.4132L48.8301 43.4134C47.4082 43.4135 46.9591 43.4446 46.6285 43.4847C44.0151 43.802 41.7528 45.8508 41.186 48.4134C41.0632 48.969 41.0599 49.4239 41.0585 66.48C41.0575 78.4277 41.0788 83.3434 41.1256 83.6074C41.2777 84.4659 41.6801 85.4173 42.1982 86.144C42.52 86.5951 43.4308 87.4951 43.8591 87.7848C44.5761 88.27 45.5367 88.6545 46.3467 88.7804C46.697 88.8346 50.5962 88.8493 63.5105 88.8346C66.7822 88.8346 69.6651 88.7855 72.5674 88.7359L72.5681 88.7358C74.8651 88.6967 77.1743 88.6573 79.698 88.6418C82.7203 88.9358 85.504 86.5568 86.2488 84.1188C86.2556 84.095 86.262 84.0726 86.2684 84.0511C86.394 83.6198 86.3976 83.6072 86.4323 78.8571C86.464 74.4928 86.4708 74.4858 86.562 74.3894C86.5739 74.3766 86.5873 74.3625 86.6024 74.3368C86.7612 74.0666 87.09 73.8162 87.7825 73.4377C88.0427 73.3051 88.2888 73.1731 88.5243 73.0466L88.5245 73.0465C89.9596 72.276 90.9936 71.7209 92.3451 72.5965C92.4502 72.7888 92.4604 73.1901 92.4788 77.8214C92.5054 84.5689 92.4451 85.191 91.8684 86.9223C91.0427 89.3999 89.202 91.6673 86.8223 93.1381C85.4278 94.0001 83.8404 94.5119 82.0331 94.6822C81.1515 94.7653 46.2079 94.7602 45.331 94.6767Z" fill="url(#paint2_linear_61_69)"/>
<defs>
<linearGradient id="paint0_linear_61_69" x1="64" y1="118" x2="64" y2="10" gradientUnits="userSpaceOnUse">
<stop stop-color="#5570FF"/>
<stop offset="1" stop-color="#4DD3FF"/>
</linearGradient>
<linearGradient id="paint1_linear_61_69" x1="73.3226" y1="84.0965" x2="73.3226" y2="33" gradientUnits="userSpaceOnUse">
<stop stop-color="#5570FF"/>
<stop offset="1" stop-color="#4DD3FF"/>
</linearGradient>
<linearGradient id="paint2_linear_61_69" x1="63.7419" y1="94.742" x2="63.7419" y2="37.2581" gradientUnits="userSpaceOnUse">
<stop stop-color="#5570FF"/>
<stop offset="1" stop-color="#4DD3FF"/>
</linearGradient>
</defs>
</svg>
