<svg width="128" height="128" viewBox="0 0 128 128" fill="none" xmlns="http://www.w3.org/2000/svg">
<path opacity="0.4" d="M11 38C11 22.536 23.536 10 39 10H89C104.464 10 117 22.536 117 38V90C117 105.464 104.464 118 89 118H39C23.536 118 11 105.464 11 90V38Z" fill="url(#paint0_linear_63_589)"/>
<path d="M97 76.7046C97 85.9116 89.608 93.3696 80.401 93.4026H80.368H47.665C38.491 93.4026 31 85.9776 31 76.7706V76.7376C31 76.7376 31.0198 62.1318 31.0462 54.786C31.0495 53.4066 32.6335 52.6344 33.7126 53.4924C41.5534 59.7129 55.5751 71.055 55.75 71.2035C58.093 73.0812 61.063 74.1405 64.099 74.1405C67.135 74.1405 70.105 73.0812 72.448 71.1672C72.6229 71.0517 86.3311 60.0495 94.2907 53.7267C95.3731 52.8654 96.9637 53.6376 96.967 55.0137C97 62.3034 97 76.7046 97 76.7046Z" fill="url(#paint1_linear_63_589)"/>
<path d="M95.2713 42.8242C92.4135 37.4386 86.7903 34 80.5995 34H47.6655C41.4747 34 35.8515 37.4386 32.9937 42.8242C32.3535 44.0287 32.6571 45.5302 33.723 46.3816L58.2255 65.9803C59.9415 67.3663 62.0205 68.056 64.0995 68.056C64.1127 68.056 64.1226 68.056 64.1325 68.056C64.1424 68.056 64.1556 68.056 64.1655 68.056C66.2445 68.056 68.3235 67.3663 70.0395 65.9803L94.542 46.3816C95.6079 45.5302 95.9115 44.0287 95.2713 42.8242Z" fill="url(#paint2_linear_63_589)"/>
<defs>
<linearGradient id="paint0_linear_63_589" x1="64" y1="118" x2="64" y2="10" gradientUnits="userSpaceOnUse">
<stop stop-color="#A93AFF"/>
<stop offset="1" stop-color="#FF81FF"/>
</linearGradient>
<linearGradient id="paint1_linear_63_589" x1="64" y1="93.4026" x2="64" y2="53.1323" gradientUnits="userSpaceOnUse">
<stop stop-color="#A93AFF"/>
<stop offset="1" stop-color="#FF81FF"/>
</linearGradient>
<linearGradient id="paint2_linear_63_589" x1="64.1325" y1="68.056" x2="64.1325" y2="34" gradientUnits="userSpaceOnUse">
<stop stop-color="#A93AFF"/>
<stop offset="1" stop-color="#FF81FF"/>
</linearGradient>
</defs>
</svg>
