<svg width="128" height="128" viewBox="0 0 128 128" fill="none" xmlns="http://www.w3.org/2000/svg">
<path opacity="0.4" d="M11 38C11 22.536 23.536 10 39 10H69C95.5097 10 117 31.4903 117 58V90C117 105.464 104.464 118 89 118H39C23.536 118 11 105.464 11 90V38Z" fill="url(#paint0_linear_59_304)"/>
<path fill-rule="evenodd" clip-rule="evenodd" d="M116.624 52H89C81.268 52 75 45.732 75 38V10.4048C96.7012 13.1109 113.903 30.3034 116.624 52Z" fill="url(#paint1_linear_59_304)"/>
<path fill-rule="evenodd" clip-rule="evenodd" d="M33.4178 38.9679C37.3745 37.7329 42.7178 37 48.5319 37C54.3461 37 59.6894 37.7329 63.646 38.9679C65.6124 39.5817 67.3493 40.354 68.6379 41.3051C69.8872 42.227 71.0639 43.5907 71.0639 45.4091V66.7809L71.0638 66.7891C71.0483 68.6842 69.7504 70.1065 68.3267 71.0772C68.208 71.1588 68.0863 71.2386 67.9622 71.3165L67.9461 71.3291L67.8495 71.388C67.4844 71.6108 67.0944 71.822 66.6829 72.0221L66.6182 72.0535L66.5849 72.0668C66.1909 72.2565 65.7756 72.4371 65.3412 72.609L65.3386 72.61C64.9009 72.7825 64.4424 72.9467 63.9652 73.1023L63.9039 73.1259L63.8561 73.1404L63.8544 73.141L63.8277 73.1494C63.407 73.2818 62.9713 73.4085 62.5215 73.529C62.3947 73.5647 62.2683 73.5992 62.1436 73.6325L62.1348 73.6349L62.126 73.6371C61.7455 73.7352 61.3554 73.829 60.9573 73.9182C60.7585 73.9638 60.5549 74.0091 60.3474 74.0532L60.339 74.055L60.3307 74.0567C59.9059 74.1432 59.4718 74.2251 59.0287 74.3018C58.8958 74.3277 58.7635 74.3526 58.6329 74.3768L58.617 74.3797L58.601 74.3824C58.0888 74.4686 57.5662 74.548 57.0349 74.6203C56.9196 74.6366 56.804 74.6524 56.6891 74.6677L56.6763 74.6694C56.192 74.7308 55.7006 74.7868 55.2028 74.8369C54.9993 74.8596 54.797 74.8805 54.5993 74.9005L54.588 74.9017L54.5768 74.9027C54.4005 74.9185 54.265 75.0659 54.265 75.2429V79.1911C54.265 79.468 54.4688 79.7275 54.7458 79.7275H60.5818C61.0921 79.7275 61.5014 79.3264 61.739 78.8749C62.1408 78.1115 62.9417 77.5911 63.8642 77.5911H68.6639C69.9893 77.5911 71.0639 78.6656 71.0639 79.9911V85.6C71.0639 86.9255 69.9893 88 68.6638 88H63.8642C62.9417 88 62.1408 87.4795 61.739 86.7162C61.5014 86.2647 61.0921 85.8636 60.5818 85.8636H36.482C35.9718 85.8636 35.5625 86.2647 35.3248 86.7162C34.9231 87.4795 34.1221 88 33.1996 88H28.4C27.0745 88 26 86.9255 26 85.6V79.9911C26 78.6656 27.0745 77.5911 28.4 77.5911H33.1996C34.1221 77.5911 34.9231 78.1115 35.3248 78.8749C35.5625 79.3264 35.9718 79.7275 36.482 79.7275H44.1846C44.4616 79.7275 44.6654 79.468 44.6654 79.1911V75.7699C44.6654 75.3729 44.3552 75.0453 43.959 75.0191L43.9508 75.0185C43.5695 74.9916 43.19 74.9616 42.812 74.9281C42.8137 74.9282 42.8152 74.927 42.8153 74.9253L42.9868 72.9357L42.8101 74.9258C42.8101 74.9264 42.8102 74.9268 42.8105 74.9272C42.8109 74.9277 42.8114 74.928 42.812 74.9281C42.4628 74.898 42.1163 74.8648 41.7731 74.829L41.7645 74.8281C41.5274 74.8023 41.2926 74.775 41.0604 74.7468C40.5823 74.6918 40.1087 74.6317 39.6409 74.5654L39.6324 74.5642C39.4869 74.543 39.3436 74.5212 39.2029 74.4993C38.6888 74.4202 38.1837 74.3347 37.689 74.2428L37.6822 74.2415C37.5907 74.2242 37.5008 74.2067 37.4154 74.19C36.8761 74.0865 36.35 73.9755 35.8385 73.8571L35.7354 73.8348L35.7172 73.8305C35.1894 73.7058 34.6777 73.5727 34.184 73.4316L34.1809 73.4307C34.1188 73.4129 34.0521 73.3936 33.9838 73.3734C33.5351 73.243 33.1009 73.1058 32.6826 72.9618L32.6747 72.9591C32.5887 72.9291 32.5 72.8978 32.4103 72.8655C31.9934 72.7165 31.5922 72.5602 31.2085 72.3966L31.1873 72.3878C31.1582 72.3757 31.1187 72.3594 31.0871 72.3461L31.075 72.3409L31.0629 72.3356C30.6612 72.1599 30.2783 71.9756 29.9163 71.7828L29.9001 71.7745L29.8821 71.7654L29.8546 71.7517L29.8276 71.737C29.4789 71.5488 29.1469 71.3503 28.8349 71.141L28.8103 71.1271L28.7405 71.0795C27.3155 70.1088 26.0155 68.6857 26.0001 66.7891L26 66.7809V45.4091C26 43.5907 27.1767 42.227 28.4259 41.3051C29.7146 40.354 31.4514 39.5817 33.4178 38.9679ZM63.8228 62.4686C59.7177 63.784 54.218 64.4986 48.5324 64.4999H48.5309C42.8452 64.497 37.3456 63.7818 33.2408 62.4671C32.572 62.2529 31.8665 62.7396 31.8665 63.4419V65.9496C31.8665 66.2398 32.0007 66.517 32.2548 66.6574C32.9495 67.0413 34.1108 67.4624 35.7797 67.8444C39.0902 68.6024 43.6796 69.0457 48.5319 69.0457C53.3843 69.0457 57.9734 68.6025 61.2838 67.8444C62.9527 67.4625 64.1143 67.0413 64.8091 66.6574C65.0631 66.5169 65.1973 66.2398 65.1973 65.9495V63.4433C65.1973 62.741 64.4917 62.2543 63.8228 62.4686ZM33.2408 51.7853C37.3456 53.1 42.8452 53.8152 48.5309 53.8181H48.5324C54.218 53.8168 59.7177 53.1021 63.8228 51.7868C64.4917 51.5724 65.1973 52.0591 65.1973 52.7615V55.2378C65.1973 55.5496 65.0528 55.8472 64.7785 55.9957C64.0634 56.3828 62.8965 56.7941 61.2842 57.1631C58.0918 57.8938 53.5822 58.3638 48.5319 58.3638C43.4816 58.3638 38.9721 57.8938 35.7796 57.1631C34.1673 56.7941 33.0005 56.3828 32.2854 55.9957C32.0111 55.8472 31.8665 55.5496 31.8665 55.2377V52.76C31.8665 52.0578 32.572 51.5711 33.2408 51.7853ZM34.3597 44.7048C34.7866 44.5793 35.26 44.456 35.7796 44.337C38.9721 43.6064 43.4816 43.1364 48.5319 43.1364C53.5822 43.1364 58.0918 43.6064 61.2842 44.337C61.8039 44.456 62.2773 44.5793 62.7042 44.7048C63.4982 44.9382 63.4982 45.8801 62.7042 46.1135C62.2773 46.239 61.8039 46.3623 61.2842 46.4813C58.0918 47.212 53.5822 47.682 48.5319 47.682C43.4816 47.682 38.9721 47.212 35.7796 46.4813C35.26 46.3623 34.7866 46.239 34.3597 46.1135C33.5656 45.8801 33.5656 44.9382 34.3597 44.7048ZM34 95C32.9391 95 31.9217 95.4214 31.1716 96.1716C30.4214 96.9217 30 97.9391 30 99C30 100.061 30.4214 101.078 31.1716 101.828C31.9217 102.579 32.9391 103 34 103H63.3333C64.3942 103 65.4116 102.579 66.1618 101.828C66.9119 101.078 67.3333 100.061 67.3333 99C67.3333 97.9391 66.9119 96.9217 66.1618 96.1716C65.4116 95.4214 64.3942 95 63.3333 95H34Z" fill="url(#paint2_linear_59_304)"/>
<defs>
<linearGradient id="paint0_linear_59_304" x1="64" y1="118" x2="64" y2="10" gradientUnits="userSpaceOnUse">
<stop stop-color="#A93AFF"/>
<stop offset="1" stop-color="#FF81FF"/>
</linearGradient>
<linearGradient id="paint1_linear_59_304" x1="95.8122" y1="52" x2="95.8122" y2="10.4048" gradientUnits="userSpaceOnUse">
<stop stop-color="#A93AFF"/>
<stop offset="1" stop-color="#FF81FF"/>
</linearGradient>
<linearGradient id="paint2_linear_59_304" x1="26.0066" y1="69.0221" x2="71.0713" y2="69.0221" gradientUnits="userSpaceOnUse">
<stop stop-color="#A93AFF"/>
<stop offset="1" stop-color="#FF81FF"/>
</linearGradient>
</defs>
</svg>
