<svg width="128" height="128" viewBox="0 0 128 128" fill="none" xmlns="http://www.w3.org/2000/svg">
<path opacity="0.4" d="M11 38C11 22.536 23.536 10 39 10H69C95.5097 10 117 31.4903 117 58V90C117 105.464 104.464 118 89 118H39C23.536 118 11 105.464 11 90V38Z" fill="url(#paint0_linear_59_577)"/>
<path fill-rule="evenodd" clip-rule="evenodd" d="M116.624 52H89C81.268 52 75 45.732 75 38V10.4048C96.7012 13.1109 113.903 30.3034 116.624 52Z" fill="url(#paint1_linear_59_577)"/>
<path fill-rule="evenodd" clip-rule="evenodd" d="M64.8068 52.7509C65.6023 51.6843 66 50.3524 66 49.0255C66 47.5456 65.5526 46.1677 64.7074 45.045C64.6325 44.97 64.4799 44.7993 64.2816 44.5776C63.9536 44.2108 63.5005 43.7041 63.0668 43.2588C58.9901 38.7679 48.3509 31.4192 42.7827 29.1738C41.9375 28.8165 39.7997 28.0561 38.6562 28C37.5625 28 36.5185 28.2603 35.5241 28.7655C34.2812 29.48 33.2869 30.6078 32.7401 31.9295C32.392 32.8481 31.8452 35.6039 31.8452 35.6549C31.2983 38.6659 31 43.5701 31 48.9745C31 54.1288 31.2983 58.8238 31.7457 61.8909C31.7582 61.9024 31.8017 62.125 31.8694 62.4708C32.0722 63.5073 32.4916 65.6509 32.9389 66.5349C34.0327 68.6782 36.1705 70 38.4574 70H38.6562C40.1477 69.9541 43.2798 68.6221 43.2798 68.5711C48.5497 66.3307 58.9403 59.3392 63.1165 54.6902L63.4148 54.384C63.9616 53.8226 64.6577 52.9601 64.8068 52.7509ZM34 78.5601C32.9391 78.5601 31.9217 78.9815 31.1716 79.7316C30.4214 80.4818 30 81.4992 30 82.5601C30 83.6209 30.4214 84.6383 31.1716 85.3885C31.9217 86.1386 32.9391 86.5601 34 86.5601H76.6667C77.7275 86.5601 78.7449 86.1386 79.4951 85.3885C80.2452 84.6383 80.6667 83.6209 80.6667 82.5601C80.6667 81.4992 80.2452 80.4818 79.4951 79.7316C78.7449 78.9815 77.7275 78.5601 76.6667 78.5601H34ZM34 95.2267C32.9391 95.2267 31.9217 95.6482 31.1716 96.3983C30.4214 97.1484 30 98.1659 30 99.2267C30 100.288 30.4214 101.305 31.1716 102.055C31.9217 102.805 32.9391 103.227 34 103.227H63.3333C64.3942 103.227 65.4116 102.805 66.1618 102.055C66.9119 101.305 67.3333 100.288 67.3333 99.2267C67.3333 98.1659 66.9119 97.1484 66.1618 96.3983C65.4116 95.6482 64.3942 95.2267 63.3333 95.2267H34Z" fill="url(#paint2_linear_59_577)"/>
<defs>
<linearGradient id="paint0_linear_59_577" x1="64" y1="118" x2="64" y2="10" gradientUnits="userSpaceOnUse">
<stop stop-color="#00B59C"/>
<stop offset="1" stop-color="#9CFFAC"/>
</linearGradient>
<linearGradient id="paint1_linear_59_577" x1="95.8122" y1="52" x2="95.8122" y2="10.4048" gradientUnits="userSpaceOnUse">
<stop stop-color="#02AA93"/>
<stop offset="1" stop-color="#67FF80"/>
</linearGradient>
<linearGradient id="paint2_linear_59_577" x1="55.3333" y1="103.227" x2="55.3333" y2="28" gradientUnits="userSpaceOnUse">
<stop stop-color="#02AA93"/>
<stop offset="1" stop-color="#67FF80"/>
</linearGradient>
</defs>
</svg>
