<svg width="128" height="128" viewBox="0 0 128 128" fill="none" xmlns="http://www.w3.org/2000/svg">
<path opacity="0.4" d="M11 38C11 22.536 23.536 10 39 10H89C104.464 10 117 22.536 117 38V90C117 105.464 104.464 118 89 118H39C23.536 118 11 105.464 11 90V38Z" fill="url(#paint0_linear_63_303)"/>
<path d="M110 79.4325V84.8751C110 85.7782 109.961 86.6893 109.882 87.5924C108.778 100.02 100.146 108.14 87.6898 108.14H53.6333C47.3265 108.14 42.0052 106.093 38.1817 102.382C36.6839 101.006 35.4225 99.3887 34.4371 97.5351C35.7378 95.9535 37.1963 94.2222 38.6153 92.4868C41.0198 89.6078 43.3454 86.7642 44.8038 84.9145C46.9718 82.2326 52.6873 75.173 60.6101 78.4859C62.2262 79.1564 63.6453 80.1029 64.946 80.9312C68.1388 83.0609 69.479 83.6919 71.7258 82.4693C74.2091 81.1283 75.8252 78.4859 77.5201 75.7252C78.4267 74.262 79.3333 72.8461 80.3188 71.5446C84.6153 65.9443 91.2374 64.4456 96.7558 67.7585C99.515 69.4149 101.88 71.5052 104.087 73.631C104.56 74.1042 105.033 74.542 105.467 74.9758C106.058 75.5674 108.029 77.5394 110 79.4325" fill="url(#paint1_linear_63_303)"/>
<g opacity="0.6">
<path d="M93.5629 69.3878V74.8304C93.5629 75.7336 93.5235 76.6446 93.4446 77.5478C92.341 89.975 83.7086 98.0956 71.2527 98.0956H37.1962C30.8894 98.0956 25.5681 96.0487 21.7446 92.3375C20.2468 90.961 18.9854 89.344 18 87.4904C19.3008 85.9089 20.7592 84.1775 22.1782 82.4422C24.5827 79.5631 26.9083 76.7195 28.3667 74.8698C30.5347 72.188 36.2502 65.1284 44.1731 68.4412C45.7892 69.1117 47.2082 70.0583 48.509 70.8865C51.7018 73.0162 53.042 73.6472 55.2887 72.4246C57.772 71.0837 59.3881 68.4412 61.0831 65.6805C61.9897 64.2173 62.8963 62.8014 63.8817 61.4999C68.1782 55.8996 74.8003 54.4009 80.3187 57.7138C83.0779 59.3702 85.4429 61.4605 87.6503 63.5863C88.1233 64.0596 88.5963 64.4973 89.0299 64.9312C89.6212 65.5227 91.592 67.4947 93.5629 69.3878" fill="url(#paint2_linear_63_303)"/>
<path d="M52.0785 46.1556C52.0785 51.6968 47.4627 56.3112 41.9246 56.3112C36.3904 56.3112 31.7747 51.6968 31.7747 46.1556C31.7747 40.6183 36.3904 36 41.9246 36C47.4627 36 52.0785 40.6183 52.0785 46.1556" fill="url(#paint3_linear_63_303)"/>
</g>
<defs>
<linearGradient id="paint0_linear_63_303" x1="64" y1="118" x2="64" y2="10" gradientUnits="userSpaceOnUse">
<stop stop-color="#5570FF"/>
<stop offset="1" stop-color="#4DD3FF"/>
</linearGradient>
<linearGradient id="paint1_linear_63_303" x1="72.2185" y1="108.14" x2="72.2185" y2="66.0176" gradientUnits="userSpaceOnUse">
<stop stop-color="#5558FF"/>
<stop offset="1" stop-color="#00C0FF"/>
</linearGradient>
<linearGradient id="paint2_linear_63_303" x1="55.7814" y1="98.0956" x2="55.7814" y2="55.9729" gradientUnits="userSpaceOnUse">
<stop stop-color="#5558FF"/>
<stop offset="1" stop-color="#00C0FF"/>
</linearGradient>
<linearGradient id="paint3_linear_63_303" x1="41.9266" y1="56.3112" x2="41.9266" y2="36" gradientUnits="userSpaceOnUse">
<stop stop-color="#5558FF"/>
<stop offset="1" stop-color="#00C0FF"/>
</linearGradient>
</defs>
</svg>
