<svg width="128" height="128" viewBox="0 0 128 128" fill="none" xmlns="http://www.w3.org/2000/svg">
<path opacity="0.4" d="M11 38C11 22.536 23.536 10 39 10H69C95.5097 10 117 31.4903 117 58V90C117 105.464 104.464 118 89 118H39C23.536 118 11 105.464 11 90V38Z" fill="url(#paint0_linear_61_149)"/>
<path fill-rule="evenodd" clip-rule="evenodd" d="M116.624 52H89C81.268 52 75 45.732 75 38V10.4048C96.7012 13.1109 113.903 30.3034 116.624 52Z" fill="url(#paint1_linear_61_149)"/>
<path fill-rule="evenodd" clip-rule="evenodd" d="M25 39.2501C25 36.3415 27.3416 34 30.2501 34H61.7499C64.6585 34 67 36.3416 67 39.2501V70.7499C67 73.6585 64.6584 76 61.7499 76H30.2501C27.3415 76 25 73.6584 25 70.7499V39.2501ZM61.7499 40.2501C61.7499 39.6978 61.3022 39.2501 60.7499 39.2501H31.2501C30.6978 39.2501 30.2501 39.6978 30.2501 40.2501V43.5001C30.2501 44.0524 30.6978 44.5001 31.2501 44.5001H60.7499C61.3022 44.5001 61.7499 44.0524 61.7499 43.5001V40.2501ZM53.8752 50.75C53.8752 50.1977 53.4275 49.75 52.8752 49.75H31.2501C30.6978 49.75 30.2501 50.1977 30.2501 50.75V56.625C30.2501 57.1773 30.6978 57.625 31.2501 57.625H52.8752C53.4275 57.625 53.8752 57.1773 53.8752 56.625V50.75ZM61.7505 50.75C61.7505 50.1977 61.3028 49.75 60.7505 49.75H57.5004C56.9482 49.75 56.5004 50.1977 56.5004 50.75V56.625C56.5004 57.1773 56.9482 57.625 57.5004 57.625H60.7505C61.3028 57.625 61.7505 57.1773 61.7505 56.625V50.75ZM53.8752 63.8752C53.8752 63.3229 53.4275 62.8752 52.8752 62.8752H31.2501C30.6978 62.8752 30.2501 63.3229 30.2501 63.8752V69.7503C30.2501 70.3026 30.6978 70.7503 31.2501 70.7503H52.8752C53.4275 70.7503 53.8752 70.3026 53.8752 69.7503V63.8752ZM61.7505 63.8752C61.7505 63.3229 61.3028 62.8752 60.7505 62.8752H57.5004C56.9482 62.8752 56.5004 63.3229 56.5004 63.8752V69.7503C56.5004 70.3026 56.9482 70.7503 57.5004 70.7503H60.7505C61.3028 70.7503 61.7505 70.3026 61.7505 69.7503V63.8752ZM26 103.454C25.4477 103.454 25 103.007 25 102.454V87C25 86.4477 25.4477 86 26 86H32.7273C33.2796 86 33.7273 86.4477 33.7273 87V102.454C33.7273 103.007 33.2796 103.454 32.7273 103.454H26ZM39.091 103.454C38.5387 103.454 38.091 103.007 38.091 102.454V87C38.091 86.4477 38.5387 86 39.091 86H41.4546C42.0069 86 42.4546 86.4477 42.4546 87V102.454C42.4546 103.007 42.0069 103.454 41.4546 103.454H39.091ZM47.8183 103.454C47.266 103.454 46.8183 103.007 46.8183 102.454V87C46.8183 86.4477 47.266 86 47.8183 86H54.5456C55.0978 86 55.5456 86.4477 55.5456 87V102.454C55.5456 103.007 55.0978 103.454 54.5456 103.454H47.8183ZM60.909 103.454C60.3568 103.454 59.909 103.007 59.909 102.454V87C59.909 86.4477 60.3568 86 60.909 86H63.2727C63.825 86 64.2727 86.4477 64.2727 87V102.454C64.2727 103.007 63.825 103.454 63.2727 103.454H60.909ZM69.6363 103.454C69.0841 103.454 68.6363 103.007 68.6363 102.454V87C68.6363 86.4477 69.0841 86 69.6363 86H72C72.5523 86 73 86.4477 73 87V102.454C73 103.007 72.5523 103.454 72 103.454H69.6363Z" fill="url(#paint2_linear_61_149)"/>
<defs>
<linearGradient id="paint0_linear_61_149" x1="64" y1="118" x2="64" y2="10" gradientUnits="userSpaceOnUse">
<stop stop-color="#5570FF"/>
<stop offset="1" stop-color="#4DD3FF"/>
</linearGradient>
<linearGradient id="paint1_linear_61_149" x1="95.8122" y1="52" x2="95.8122" y2="10.4048" gradientUnits="userSpaceOnUse">
<stop stop-color="#5570FF"/>
<stop offset="1" stop-color="#4DD3FF"/>
</linearGradient>
<linearGradient id="paint2_linear_61_149" x1="49" y1="103.454" x2="49" y2="34" gradientUnits="userSpaceOnUse">
<stop stop-color="#5570FF"/>
<stop offset="1" stop-color="#4DD3FF"/>
</linearGradient>
</defs>
</svg>
