<svg width="128" height="128" viewBox="0 0 128 128" fill="none" xmlns="http://www.w3.org/2000/svg">
<path opacity="0.4" d="M11 38C11 22.536 23.536 10 39 10H69C95.5097 10 117 31.4903 117 58V90C117 105.464 104.464 118 89 118H39C23.536 118 11 105.464 11 90V38Z" fill="url(#paint0_linear_59_915)"/>
<path fill-rule="evenodd" clip-rule="evenodd" d="M89 52H116.624C113.903 30.3034 96.7012 13.1109 75 10.4048V38C75 45.732 81.268 52 89 52ZM30.0714 93C28.9916 93 27.956 93.4214 27.1925 94.1716C26.429 94.9217 26 95.9391 26 97C26 98.0609 26.429 99.0783 27.1925 99.8284C27.956 100.579 28.9916 101 30.0714 101H59.9286C61.0084 101 62.044 100.579 62.8075 99.8284C63.571 99.0783 64 98.0609 64 97C64 95.9391 63.571 94.9217 62.8075 94.1716C62.044 93.4214 61.0084 93 59.9286 93H30.0714Z" fill="url(#paint1_linear_59_915)"/>
<path d="M64.5337 71.1449C64.8211 70.5923 64.2655 70.0222 63.694 70.2698V70.2698L63.672 70.2808C62.6005 70.7429 61.3728 71.2709 60.0328 71.7638C57.3353 72.7627 54.1076 73.656 50.5234 73.656C46.5343 73.656 43.476 72.5867 41.0249 71.4118C40.0788 70.9585 39.2009 70.4767 38.4287 70.0542C38.2295 69.9437 38.03 69.8337 37.8302 69.7242C36.8841 69.2137 36.1492 68.8463 35.4935 68.6395C32.9242 67.8506 30.2748 67.351 27.5947 67.1499C26.5312 67.0661 25.4644 67.0308 24.3977 67.0443L24.2283 67.0509H24.1821V67.0509C24.011 67.0599 23.8928 67.2258 23.9426 67.3897C25.2312 71.6283 27.7698 75.3823 31.2295 78.1577C34.7764 81.003 39.1173 82.6801 43.6559 82.9587C48.1944 83.2372 52.7078 82.1034 56.576 79.7132C59.9613 77.6213 62.707 74.6568 64.5337 71.1449ZM26.1886 49.5882C25.9018 50.0611 25.9879 50.6652 26.3757 51.0595V51.0595V51.0595C26.3801 51.0654 26.385 51.0709 26.3903 51.0759L26.4241 51.1079L26.6134 51.2861C26.7872 51.4446 27.0534 51.6822 27.4054 51.9682C28.1095 52.5403 29.1546 53.3104 30.4946 54.0805C33.1767 55.6294 36.9831 57.152 41.5618 57.152C44.5849 57.152 46.8996 56.2851 48.8622 55.2598C49.6433 54.8505 50.3474 54.4303 51.047 54.0122L51.6521 53.6536C52.5146 53.1432 53.4343 52.6239 54.3672 52.3027C56.7819 51.4683 59.2859 50.9197 61.8282 50.6679V50.6679C62.9685 50.5576 63.6911 49.3271 63.0344 48.3884C61.2575 45.8483 58.9579 43.7043 56.2793 42.1063C52.8697 40.0723 48.9732 38.9989 45.003 39C41.0633 38.9988 37.1956 40.0557 33.8039 42.0602C30.6801 43.9064 28.0657 46.494 26.1886 49.5882Z" fill="url(#paint2_linear_59_915)"/>
<path d="M65.9699 65.843C66.3049 65.7311 66.5578 65.4512 66.6234 65.1041C66.8788 63.7523 67.0068 62.379 67.0054 61.0024C67.0076 58.8255 66.6864 56.6616 66.0533 54.5813C65.9361 54.196 65.589 53.9296 65.1874 53.9006L64.6907 53.8648H64.6665L64.5543 53.8582C63.7494 53.8445 62.9443 53.8761 62.1429 53.9528C59.8583 54.1811 57.6083 54.6759 55.4387 55.427C54.8601 55.625 54.2 55.9815 53.3309 56.4941L52.7852 56.8198C52.0768 57.2444 51.2671 57.7285 50.3914 58.1839C48.1251 59.3698 45.2802 60.4524 41.564 60.4524C36.2438 60.4524 31.8675 58.6856 28.8466 56.9408C27.6117 56.2305 26.4346 55.4242 25.3262 54.5293V54.5293C24.8123 54.1147 24.0269 54.3114 23.8464 54.9466C23.1076 57.5461 22.8488 60.2603 23.0844 62.9555C23.1261 63.4319 23.5439 63.7797 24.0215 63.7549V63.7549H24.0457L24.1051 63.7527C24.435 63.7397 24.7651 63.7353 25.0952 63.7395C25.7619 63.7439 26.708 63.7703 27.8521 63.8605C30.1338 64.0366 33.2361 64.47 36.4837 65.4931C37.4738 65.8033 38.4617 66.3138 39.4034 66.8243L40.0612 67.1829C40.8225 67.6009 41.5948 68.0256 42.4529 68.437C44.6091 69.4712 47.1702 70.3534 50.5234 70.3534C53.5663 70.3534 56.3804 69.5966 58.8887 68.6681C60.1451 68.206 61.3068 67.7044 62.3893 67.2379L62.4289 67.2225C63.474 66.7737 64.4905 66.3358 65.3838 66.0388L65.9699 65.843Z" fill="url(#paint3_linear_59_915)"/>
<defs>
<linearGradient id="paint0_linear_59_915" x1="64" y1="118" x2="64" y2="10" gradientUnits="userSpaceOnUse">
<stop stop-color="#5570FF"/>
<stop offset="1" stop-color="#4DD3FF"/>
</linearGradient>
<linearGradient id="paint1_linear_59_915" x1="71.3122" y1="101" x2="71.3122" y2="10.4048" gradientUnits="userSpaceOnUse">
<stop stop-color="#5570FF"/>
<stop offset="1" stop-color="#4DD3FF"/>
</linearGradient>
<linearGradient id="paint2_linear_59_915" x1="44.553" y1="83" x2="44.553" y2="39" gradientUnits="userSpaceOnUse">
<stop stop-color="#5558FF"/>
<stop offset="1" stop-color="#00C0FF"/>
</linearGradient>
<linearGradient id="paint3_linear_59_915" x1="45.0027" y1="70.3534" x2="45.0027" y2="53.6162" gradientUnits="userSpaceOnUse">
<stop stop-color="#5558FF"/>
<stop offset="1" stop-color="#00C0FF"/>
</linearGradient>
</defs>
</svg>
