<svg width="128" height="128" viewBox="0 0 128 128" fill="none" xmlns="http://www.w3.org/2000/svg">
<path opacity="0.5" d="M11 38C11 22.536 23.536 10 39 10H69C95.5097 10 117 31.4903 117 58V90C117 105.464 104.464 118 89 118H39C23.536 118 11 105.464 11 90V38Z" fill="url(#paint0_linear_59_845)"/>
<path fill-rule="evenodd" clip-rule="evenodd" d="M89 52H116.624C113.903 30.3034 96.7012 13.1109 75 10.4048V38C75 45.732 81.268 52 89 52ZM33 86C31.9391 86 30.9217 85.5786 30.1716 84.8284C29.4214 84.0783 29 83.0609 29 82C29 80.9391 29.4214 79.9217 30.1716 79.1716C30.9217 78.4214 31.9391 78 33 78H62.3333C63.3942 78 64.4116 78.4214 65.1618 79.1716C65.9119 79.9217 66.3333 80.9391 66.3333 82C66.3333 83.0609 65.9119 84.0783 65.1618 84.8284C64.4116 85.5786 63.3942 86 62.3333 86H33ZM33 102.667C31.9391 102.667 30.9217 102.245 30.1716 101.495C29.4214 100.745 29 99.7275 29 98.6667C29 97.6058 29.4214 96.5884 30.1716 95.8382C30.9217 95.0881 31.9391 94.6667 33 94.6667H75.6667C76.7275 94.6667 77.7449 95.0881 78.4951 95.8382C79.2452 96.5884 79.6667 97.6058 79.6667 98.6667C79.6667 99.7275 79.2452 100.745 78.4951 101.495C77.7449 102.245 76.7275 102.667 75.6667 102.667H33Z" fill="url(#paint1_linear_59_845)"/>
<path d="M32.002 42.3476C32.6012 34.1143 37.0597 29.5483 45.3104 29.0503C54.4818 28.4634 62.2591 33.0124 61.012 42.4773C60.7184 45.7056 58.5908 47.7603 56.6097 49.4479C55.8268 50.1466 54.9802 50.7284 54.1385 51.3065C52.7714 52.2457 51.4177 53.1757 50.3731 54.5837C49.4574 55.8263 49.2412 57.6527 49.1532 59.6456C49.1354 60.0549 48.8008 60.38 48.3912 60.38H42.3594C41.9281 60.38 41.5829 60.0204 41.6049 59.5895C41.7669 56.4276 42.1257 53.8297 43.5497 51.7954C44.4502 50.5673 45.8079 49.5446 47.1634 48.5234L47.1649 48.5224C48.2383 47.714 49.3102 46.9069 50.1531 45.9992C51.1802 44.8988 53.3078 42.2573 52.3542 39.9826C51.4738 37.9282 48.5387 37.1946 45.4572 37.4882C42.6332 37.8243 40.9184 39.7622 40.5948 42.3991C40.5448 42.8077 40.2129 43.1377 39.8009 43.1377H32.748C32.3165 43.1377 31.9706 42.7781 32.002 42.3476Z" fill="url(#paint2_linear_59_845)"/>
<path d="M45.5304 73C48.1643 73 50.2999 70.8975 50.2999 68.3041C50.2999 65.7108 48.1643 63.6083 45.5304 63.6083C42.8965 63.6083 40.7613 65.7108 40.7613 68.3041C40.7613 70.8975 42.8965 73 45.5304 73Z" fill="url(#paint3_linear_59_845)"/>
<defs>
<linearGradient id="paint0_linear_59_845" x1="64" y1="118" x2="64" y2="10" gradientUnits="userSpaceOnUse">
<stop stop-color="#5570FF"/>
<stop offset="1" stop-color="#4DD3FF"/>
</linearGradient>
<linearGradient id="paint1_linear_59_845" x1="72.8122" y1="102.667" x2="72.8122" y2="10.4048" gradientUnits="userSpaceOnUse">
<stop stop-color="#5570FF"/>
<stop offset="1" stop-color="#4DD3FF"/>
</linearGradient>
<linearGradient id="paint2_linear_59_845" x1="46.5719" y1="73" x2="46.5719" y2="29" gradientUnits="userSpaceOnUse">
<stop stop-color="#5558FF"/>
<stop offset="1" stop-color="#00C0FF"/>
</linearGradient>
<linearGradient id="paint3_linear_59_845" x1="46.5719" y1="73" x2="46.5719" y2="29" gradientUnits="userSpaceOnUse">
<stop stop-color="#5558FF"/>
<stop offset="1" stop-color="#00C0FF"/>
</linearGradient>
</defs>
</svg>
