<svg width="128" height="128" viewBox="0 0 128 128" fill="none" xmlns="http://www.w3.org/2000/svg">
<path opacity="0.4" d="M11 38C11 22.536 23.536 10 39 10H69C95.5097 10 117 31.4903 117 58V90C117 105.464 104.464 118 89 118H39C23.536 118 11 105.464 11 90V38Z" fill="url(#paint0_linear_59_1018)"/>
<path fill-rule="evenodd" clip-rule="evenodd" d="M116.624 52H89C81.268 52 75 45.732 75 38V10.4048C96.7012 13.1109 113.903 30.3034 116.624 52Z" fill="url(#paint1_linear_59_1018)"/>
<path fill-rule="evenodd" clip-rule="evenodd" d="M45.4239 50.3557C46.054 48.5816 48.5631 48.5816 49.1932 50.3557L53.5383 62.5897C54.0007 63.8916 53.0353 65.2591 51.6537 65.2591H42.9634C41.5818 65.2591 40.6163 63.8916 41.0787 62.5897L45.4239 50.3557ZM56.09 69.7791C56.3217 70.4309 57.1537 70.6186 57.6428 70.1295L58.7694 69.0029C59.3009 68.4714 59.4792 67.6816 59.2276 66.9734L49.484 39.5381C48.7571 37.4873 45.86 37.4873 45.1331 39.5381L31.8469 76.9462C31.6741 77.4329 31.7017 77.9684 31.9237 78.4348C32.0336 78.6658 32.1879 78.8728 32.3779 79.0441C32.5678 79.2154 32.7896 79.3476 33.0306 79.4331C33.5174 79.6059 34.0529 79.5783 34.5193 79.3563C34.7502 79.2464 34.9572 79.0921 35.1285 78.9021C35.2998 78.7122 35.432 78.4904 35.5176 78.2494L38.2745 70.4839C38.5577 69.6861 39.3126 69.1531 40.1592 69.1531H55.203C55.6014 69.1531 55.9566 69.4038 56.09 69.7791ZM30.0608 82.1174C31.2784 82.7845 32.932 83.4076 34.2949 83.1038C35.271 82.8884 36.6416 81.9201 38.1785 80.8298L38.1956 80.8177C40.9594 78.8654 44.2504 76.5407 46.7244 77.5381C48.9051 78.4129 50.5146 80.526 49.3983 83.0234C49.2607 83.3297 49.4009 83.7061 49.728 83.784C50.4769 83.9557 51.1436 83.9717 51.7843 83.8245C52.3649 83.6911 52.7529 83.1769 52.8974 82.5989L53.7803 79.0671C54.0866 77.8419 54.7201 76.7229 55.6131 75.8299L70.9345 60.5084C72.053 59.424 73.553 58.8228 75.1109 58.8347C76.6687 58.8466 78.1594 59.4706 79.2612 60.572C80.363 61.6734 80.9874 63.1639 80.9998 64.7218C81.0122 66.2796 80.4115 67.7799 79.3273 68.8986L64.0033 84.2201C63.1098 85.1145 61.9899 85.7489 60.7635 86.0555L56.0128 87.2418C55.9608 87.2555 55.9084 87.2675 55.8556 87.2779C55.7059 87.3073 55.5588 87.3374 55.4124 87.3804C53.5828 87.9171 47.8006 88.7302 45.6912 87.0835C44.2011 85.9205 44.4971 83.6204 45.1253 82.364C45.2266 82.1615 45.076 81.8993 44.8527 81.9331C43.1403 82.1999 41.6321 83.1002 40.1217 84.0017L40.1125 84.0072C38.0772 85.2222 36.0368 86.4371 33.4927 86.123C30.9513 85.8063 29.6818 84.2383 29.0536 82.865C28.7966 82.3043 29.5183 81.824 30.0608 82.1174ZM30 103C28.9391 103 27.9217 102.579 27.1716 101.828C26.4214 101.078 26 100.061 26 99C26 97.9391 26.4214 96.9217 27.1716 96.1716C27.9217 95.4214 28.9391 95 30 95H70.6667C71.7275 95 72.7449 95.4214 73.4951 96.1716C74.2452 96.9217 74.6667 97.9391 74.6667 99C74.6667 100.061 74.2452 101.078 73.4951 101.828C72.7449 102.579 71.7275 103 70.6667 103H30Z" fill="url(#paint2_linear_59_1018)"/>
<defs>
<linearGradient id="paint0_linear_59_1018" x1="64" y1="118" x2="64" y2="10" gradientUnits="userSpaceOnUse">
<stop stop-color="#FDA700"/>
<stop offset="1" stop-color="#FFDE00"/>
</linearGradient>
<linearGradient id="paint1_linear_59_1018" x1="95.8122" y1="10.4048" x2="95.8122" y2="52" gradientUnits="userSpaceOnUse">
<stop stop-color="#FCBC18"/>
<stop offset="1" stop-color="#FF6F1E"/>
</linearGradient>
<linearGradient id="paint2_linear_59_1018" x1="53.5" y1="103" x2="53.5" y2="38" gradientUnits="userSpaceOnUse">
<stop stop-color="#FD5900"/>
<stop offset="1" stop-color="#FFDE00"/>
</linearGradient>
</defs>
</svg>
