<svg width="128" height="128" viewBox="0 0 128 128" fill="none" xmlns="http://www.w3.org/2000/svg">
<path opacity="0.4" d="M11 38C11 22.536 23.536 10 39 10H69C95.5097 10 117 31.4903 117 58V90C117 105.464 104.464 118 89 118H39C23.536 118 11 105.464 11 90V38Z" fill="url(#paint0_linear_63_313)"/>
<path fill-rule="evenodd" clip-rule="evenodd" d="M116.624 52H89C81.268 52 75 45.732 75 38V10.4048C96.7012 13.1109 113.903 30.3034 116.624 52Z" fill="url(#paint1_linear_63_313)"/>
<path fill-rule="evenodd" clip-rule="evenodd" d="M57.9625 48.2202C57.1401 48.3437 56.3024 48.1355 55.6335 47.6414C54.9646 47.1472 54.5195 46.4076 54.3959 45.5853C54.2724 44.7629 54.4806 43.9251 54.9747 43.2563C55.4689 42.5874 56.2085 42.1422 57.0308 42.0187L67.3667 40.466C68.189 40.3424 69.0268 40.5506 69.6956 41.0448C70.3645 41.5389 70.8097 42.2785 70.9332 43.1009L72.4859 53.4367C72.6095 54.2591 72.4013 55.0968 71.9071 55.7657C71.413 56.4345 70.6734 56.8797 69.851 57.0032C69.0287 57.1268 68.1909 56.9186 67.522 56.4244C66.8532 55.9303 66.408 55.1907 66.2845 54.3683L65.8559 51.5156L58.7838 61.0883C57.6308 62.6478 55.9057 63.6857 53.9877 63.9739C52.0697 64.262 50.1158 63.7768 48.5555 62.6249L41.0134 57.0529C40.9029 56.9711 40.7774 56.9118 40.644 56.8786C40.5106 56.8454 40.3719 56.8388 40.236 56.8592C40.1 56.8796 39.9695 56.9266 39.8517 56.9976C39.734 57.0686 39.6314 57.1621 39.5498 57.2728L31.494 68.1769C30.9885 68.8129 30.2558 69.2279 29.4504 69.3344C28.645 69.4409 27.8296 69.2307 27.1762 68.7479C26.5227 68.2651 26.0822 67.5476 25.9473 66.7464C25.8125 65.9452 25.9938 65.123 26.4533 64.4529L34.5091 53.5487C35.6621 51.9892 37.3872 50.9513 39.3052 50.6631C41.2231 50.375 43.177 50.8602 44.7374 52.0122L52.2795 57.5841C52.39 57.666 52.5155 57.7252 52.6489 57.7584C52.7823 57.7917 52.9209 57.7983 53.0569 57.7779C53.1928 57.7574 53.3234 57.7104 53.4412 57.6394C53.5589 57.5684 53.6615 57.4749 53.743 57.3643L60.811 47.7922L57.9625 48.2202ZM31 78.56C29.9391 78.56 28.9217 78.9815 28.1716 79.7316C27.4214 80.4818 27 81.4992 27 82.56C27 83.6209 27.4214 84.6383 28.1716 85.3885C28.9217 86.1386 29.9391 86.56 31 86.56H73.6667C74.7276 86.56 75.745 86.1386 76.4951 85.3885C77.2453 84.6383 77.6667 83.6209 77.6667 82.56C77.6667 81.4992 77.2453 80.4818 76.4951 79.7316C75.745 78.9815 74.7276 78.56 73.6667 78.56H31ZM31 95.2267C29.9391 95.2267 28.9217 95.6481 28.1716 96.3983C27.4214 97.1484 27 98.1658 27 99.2267C27 100.288 27.4214 101.305 28.1716 102.055C28.9217 102.805 29.9391 103.227 31 103.227H60.3334C61.3942 103.227 62.4116 102.805 63.1618 102.055C63.9119 101.305 64.3334 100.288 64.3334 99.2267C64.3334 98.1658 63.9119 97.1484 63.1618 96.3983C62.4116 95.6481 61.3942 95.2267 60.3334 95.2267H31Z" fill="url(#paint2_linear_63_313)"/>
<defs>
<linearGradient id="paint0_linear_63_313" x1="64" y1="118" x2="64" y2="10" gradientUnits="userSpaceOnUse">
<stop stop-color="#00B59C"/>
<stop offset="1" stop-color="#9CFFAC"/>
</linearGradient>
<linearGradient id="paint1_linear_63_313" x1="95.8122" y1="52" x2="95.8122" y2="10.4048" gradientUnits="userSpaceOnUse">
<stop stop-color="#02AA93"/>
<stop offset="1" stop-color="#67FF80"/>
</linearGradient>
<linearGradient id="paint2_linear_63_313" x1="51.3333" y1="103.227" x2="51.3333" y2="42" gradientUnits="userSpaceOnUse">
<stop stop-color="#02AA93"/>
<stop offset="1" stop-color="#67FF80"/>
</linearGradient>
</defs>
</svg>
