<svg width="128" height="128" viewBox="0 0 128 128" fill="none" xmlns="http://www.w3.org/2000/svg">
<path opacity="0.4" d="M11 38C11 22.536 23.536 10 39 10H89C104.464 10 117 22.536 117 38V90C117 105.464 104.464 118 89 118H39C23.536 118 11 105.464 11 90V38Z" fill="url(#paint0_linear_59_947)"/>
<path d="M35.8133 51.1123C35.8061 51.234 35.802 51.3562 35.8009 51.4779V76.3622C35.8016 78.9614 37.1831 81.3629 39.425 82.6623L60.748 95.0249C62.9905 96.3253 65.7536 96.3253 67.9965 95.0249L89.3196 82.6623C91.5625 81.3624 92.9438 78.9595 92.9434 76.3593V51.4779C92.94 51.3862 92.9351 51.2946 92.9278 51.203" stroke="url(#paint1_linear_59_947)" stroke-width="6"/>
<path d="M64.3723 32.0091C64.4291 32.007 64.3156 32.0099 64.3723 32.0091V70.8394C65.6436 70.8447 66.8935 70.5106 67.9975 69.8706L89.3366 57.3616C90.3698 56.755 91.2401 55.8988 91.869 54.869C92.4983 53.8387 92.8673 52.6673 92.9439 51.4576C92.877 50.2377 92.5124 49.0539 91.8826 48.0127C91.2532 46.9714 90.3781 46.1057 89.3366 45.4934L67.9975 32.9846C66.9449 32.3677 65.5874 32.0381 64.3723 32.0091Z" fill="url(#paint2_linear_59_947)"/>
<path d="M34.0144 49.9741C34.0094 50.0538 34.0071 50.1338 34.0048 50.2134C34.0123 50.1335 34.0211 50.0538 34.0313 49.9741H34.0144ZM34.0024 50.2778C34.002 50.2977 34.0002 50.3176 34 50.3376V75.0454C34.0008 77.6263 35.4937 80.0117 37.915 81.3019L60.942 93.5758C62.1881 94.2405 63.4661 94.5639 64.8571 94.5445V69.573C63.4826 69.5754 62.1313 69.2399 60.9396 68.6004L37.8933 56.18C36.7724 55.573 35.8301 54.7163 35.1511 53.6865C34.472 52.6566 34.0773 51.4852 34.0024 50.2778Z" fill="url(#paint3_linear_59_947)"/>
<path d="M64.6814 32.0022C63.351 31.969 62.0371 32.3072 60.8841 32.9815L39.5445 45.4911C38.5115 46.098 37.642 46.9543 37.0131 47.9842C36.3842 49.0141 36.0154 50.1856 35.9394 51.3949C36.0059 52.6147 36.3702 53.7982 36.9996 54.8392C37.6289 55.8807 38.5035 56.7461 39.5445 57.3585L60.8841 69.868C61.9867 70.5148 63.2376 70.8552 64.5108 70.8552C65.784 70.8552 67.0349 70.5148 68.1374 69.868L89.477 57.3585C90.5097 56.7519 91.3795 55.8952 92.0084 54.8654C92.6372 53.8356 93.0062 52.6642 93.0819 51.455C93.0154 50.2352 92.6513 49.0515 92.022 48.0105C91.3926 46.9693 90.518 46.1035 89.477 45.4911L68.4243 32.9687C67.3717 32.3521 66 31.999 64.6814 32.0022Z" stroke="url(#paint4_linear_59_947)" stroke-width="6"/>
<defs>
<linearGradient id="paint0_linear_59_947" x1="64" y1="118" x2="64" y2="10" gradientUnits="userSpaceOnUse">
<stop stop-color="#5570FF"/>
<stop offset="1" stop-color="#4DD3FF"/>
</linearGradient>
<linearGradient id="paint1_linear_59_947" x1="97" y1="69" x2="95.5" y2="23.5" gradientUnits="userSpaceOnUse">
<stop stop-color="#5570FF"/>
<stop offset="1" stop-color="#4DD3FF"/>
</linearGradient>
<linearGradient id="paint2_linear_59_947" x1="78.6499" y1="70.8394" x2="78.6499" y2="32.0083" gradientUnits="userSpaceOnUse">
<stop stop-color="#5570FF"/>
<stop offset="1" stop-color="#4DD3FF"/>
</linearGradient>
<linearGradient id="paint3_linear_59_947" x1="49" y1="74" x2="50" y2="14.5" gradientUnits="userSpaceOnUse">
<stop stop-color="#5570FF"/>
<stop offset="1" stop-color="#4DD3FF"/>
</linearGradient>
<linearGradient id="paint4_linear_59_947" x1="64.5106" y1="70.8552" x2="64.5106" y2="32" gradientUnits="userSpaceOnUse">
<stop stop-color="#5570FF"/>
<stop offset="1" stop-color="#4DD3FF"/>
</linearGradient>
</defs>
</svg>
