<svg width="128" height="128" viewBox="0 0 128 128" fill="none" xmlns="http://www.w3.org/2000/svg">
<path opacity="0.4" d="M11 38C11 22.536 23.536 10 39 10H89C104.464 10 117 22.536 117 38V90C117 105.464 104.464 118 89 118H39C23.536 118 11 105.464 11 90V38Z" fill="url(#paint0_linear_59_220)"/>
<path fill-rule="evenodd" clip-rule="evenodd" d="M36 43.3846C36 42.7522 36.2512 42.1456 36.6984 41.6984C37.1456 41.2512 37.7522 41 38.3846 41H76.5385C77.1709 41 77.7774 41.2512 78.2246 41.6984C78.6718 42.1456 78.9231 42.7522 78.9231 43.3846C78.9231 44.0171 78.6718 44.6236 78.2246 45.0708C77.7774 45.518 77.1709 45.7692 76.5385 45.7692H38.3846C37.7522 45.7692 37.1456 45.518 36.6984 45.0708C36.2512 44.6236 36 44.0171 36 43.3846ZM36 56.1026C36 55.4701 36.2512 54.8636 36.6984 54.4164C37.1456 53.9692 37.7522 53.7179 38.3846 53.7179H70.1795C70.8119 53.7179 71.4185 53.9692 71.8657 54.4164C72.3129 54.8636 72.5641 55.4701 72.5641 56.1026C72.5641 56.735 72.3129 57.3415 71.8657 57.7887C71.4185 58.2359 70.8119 58.4872 70.1795 58.4872H38.3846C37.7522 58.4872 37.1456 58.2359 36.6984 57.7887C36.2512 57.3415 36 56.735 36 56.1026ZM36 68.8205C36 68.1881 36.2512 67.5815 36.6984 67.1343C37.1456 66.6871 37.7522 66.4359 38.3846 66.4359H57.4615C58.094 66.4359 58.7005 66.6871 59.1477 67.1343C59.5949 67.5815 59.8462 68.1881 59.8462 68.8205C59.8462 69.453 59.5949 70.0595 59.1477 70.5067C58.7005 70.9539 58.094 71.2051 57.4615 71.2051H38.3846C37.7522 71.2051 37.1456 70.9539 36.6984 70.5067C36.2512 70.0595 36 69.453 36 68.8205ZM36 81.5385C36 80.906 36.2512 80.2995 36.6984 79.8523C37.1456 79.4051 37.7522 79.1538 38.3846 79.1538H54.2821C54.9145 79.1538 55.521 79.4051 55.9682 79.8523C56.4154 80.2995 56.6667 80.906 56.6667 81.5385C56.6667 82.1709 56.4154 82.7774 55.9682 83.2246C55.521 83.6718 54.9145 83.9231 54.2821 83.9231H38.3846C37.7522 83.9231 37.1456 83.6718 36.6984 83.2246C36.2512 82.7774 36 82.1709 36 81.5385Z" fill="url(#paint1_linear_59_220)"/>
<path d="M90.3533 46.5417C91.2372 46.2142 92.2928 45.9376 93.4374 46.1443C94.8428 46.3986 96.0955 47.1903 96.9349 48.3445C97.6185 49.2856 97.8251 50.3603 97.9141 51.3014C98 52.2139 98 53.3553 98 54.6558V55.0055C98 55.9593 98.0063 56.9768 97.663 57.9147C97.3927 58.6559 96.9679 59.3312 96.4166 59.8955C95.7171 60.6109 94.7982 61.0497 93.9366 61.4599L93.7204 61.5648L88.045 64.2896C86.8718 64.8524 85.8448 65.3452 84.98 65.6631C84.1501 65.9715 83.1677 66.2354 82.1026 66.0955V79.7228C82.1026 85.4904 77.54 90.2819 71.7692 90.2819C65.9984 90.2819 61.4359 85.4904 61.4359 79.7228C61.4359 73.9521 65.9984 69.1606 71.7692 69.1606C73.7463 69.1579 75.6808 69.7349 77.3333 70.8203V59.2819H77.3429C77.3333 58.7446 77.3333 58.1659 77.3333 57.5491V57.2025C77.3333 56.2487 77.327 55.2281 77.6703 54.2901C77.9406 53.5493 78.3667 52.8721 78.9167 52.3093C79.6162 51.5939 80.5351 51.1551 81.3967 50.745L81.6129 50.6401L87.2883 47.9152C88.4615 47.3525 89.4885 46.8596 90.3533 46.5417Z" fill="url(#paint2_linear_59_220)"/>
<defs>
<linearGradient id="paint0_linear_59_220" x1="64" y1="118" x2="64" y2="10" gradientUnits="userSpaceOnUse">
<stop stop-color="#FD5900"/>
<stop offset="1" stop-color="#FFDE00"/>
</linearGradient>
<linearGradient id="paint1_linear_59_220" x1="57.4615" y1="83.9231" x2="57.4615" y2="41" gradientUnits="userSpaceOnUse">
<stop stop-color="#FD2E00"/>
<stop offset="1" stop-color="#FFBB55"/>
</linearGradient>
<linearGradient id="paint2_linear_59_220" x1="79.7179" y1="90.2819" x2="79.7179" y2="46.073" gradientUnits="userSpaceOnUse">
<stop stop-color="#FD2E00"/>
<stop offset="1" stop-color="#FFBB55"/>
</linearGradient>
</defs>
</svg>
