<svg width="128" height="128" viewBox="0 0 128 128" fill="none" xmlns="http://www.w3.org/2000/svg">
<path opacity="0.4" d="M11 38C11 22.536 23.536 10 39 10H69C95.5097 10 117 31.4903 117 58V90C117 105.464 104.464 118 89 118H39C23.536 118 11 105.464 11 90V38Z" fill="url(#paint0_linear_59_317)"/>
<path fill-rule="evenodd" clip-rule="evenodd" d="M89 52H116.624C113.903 30.3034 96.7012 13.1109 75 10.4048V38C75 45.732 81.268 52 89 52ZM30.1716 62.8282C30.9217 63.5783 31.9391 63.9997 33 63.9997H62.3333C63.3942 63.9997 64.4116 63.5783 65.1618 62.8282C65.9119 62.078 66.3333 61.0606 66.3333 59.9997C66.3333 58.9389 65.9119 57.9215 65.1618 57.1713C64.4116 56.4212 63.3942 55.9998 62.3333 55.9998H33C31.9391 55.9998 30.9217 56.4212 30.1716 57.1713C29.4214 57.9215 29 58.9389 29 59.9997C29 61.0606 29.4214 62.078 30.1716 62.8282ZM30.1716 79.4948C30.9217 80.245 31.9391 80.6664 33 80.6664H75.6667C76.7275 80.6664 77.7449 80.245 78.4951 79.4948C79.2452 78.7447 79.6667 77.7273 79.6667 76.6664C79.6667 75.6056 79.2452 74.5881 78.4951 73.838C77.7449 73.0878 76.7275 72.6664 75.6667 72.6664H33C31.9391 72.6664 30.9217 73.0878 30.1716 73.838C29.4214 74.5881 29 75.6056 29 76.6664C29 77.7273 29.4214 78.7447 30.1716 79.4948ZM30.1716 96.8283C30.9217 97.5785 31.9391 97.9999 33 97.9999H84.6667C85.7275 97.9999 86.7449 97.5785 87.4951 96.8283C88.2452 96.0782 88.6667 95.0608 88.6667 93.9999C88.6667 92.939 88.2452 91.9216 87.4951 91.1715C86.7449 90.4213 85.7275 89.9999 84.6667 89.9999H33C31.9391 89.9999 30.9217 90.4213 30.1716 91.1715C29.4214 91.9216 29 92.939 29 93.9999C29 95.0608 29.4214 96.0782 30.1716 96.8283Z" fill="url(#paint1_linear_59_317)"/>
<defs>
<linearGradient id="paint0_linear_59_317" x1="64" y1="118" x2="64" y2="10" gradientUnits="userSpaceOnUse">
<stop stop-color="#A5A5A5"/>
<stop offset="0.9973" stop-color="#DCDCDC"/>
</linearGradient>
<linearGradient id="paint1_linear_59_317" x1="72.8122" y1="97.9999" x2="72.8122" y2="10.4048" gradientUnits="userSpaceOnUse">
<stop stop-color="#A5A5A5"/>
<stop offset="0.9973" stop-color="#DCDCDC"/>
</linearGradient>
</defs>
</svg>
