<svg width="128" height="128" viewBox="0 0 128 128" fill="none" xmlns="http://www.w3.org/2000/svg">
<path opacity="0.4" d="M11 38C11 22.536 23.536 10 39 10H89C104.464 10 117 22.536 117 38V90C117 105.464 104.464 118 89 118H39C23.536 118 11 105.464 11 90V38Z" fill="url(#paint0_linear_59_344)"/>
<path d="M56.0963 76.0831C55.7478 75.0478 54.7777 74.3509 53.686 74.3509H43.0815C41.9867 74.3509 41.0147 75.0514 40.6684 76.0902L39.1159 80.7474C38.7697 81.7862 37.7977 82.4867 36.7029 82.4867H33.5459C31.7725 82.4867 30.5434 80.7179 31.1621 79.056L43.9674 44.6564C44.3381 43.6608 45.2887 43 46.3512 43H50.3595C51.4202 43 52.37 43.6583 52.7418 44.6518L65.6179 79.0514C66.24 80.7144 65.011 82.4867 63.2356 82.4867H60.08C58.9878 82.4867 58.0177 81.7898 57.6692 80.7551L56.0963 76.0831ZM44.5559 64.4152C44.0091 66.0619 45.2349 67.7605 46.9698 67.7605H49.7796C51.5179 67.7605 52.7439 66.0553 52.1904 64.4076L50.7782 60.2011C50.0004 57.8849 46.723 57.8905 45.953 60.2087L44.5559 64.4152Z" fill="url(#paint1_linear_59_344)"/>
<path d="M87.7 82.4867C87.32 82.4867 86.9949 82.3381 86.8525 81.9856C86.5315 81.1935 85.4042 80.7865 84.7088 81.2841C83.0829 82.4475 81.1432 83.0289 78.8906 83.0289C76.0159 83.0289 73.6295 82.1977 71.731 80.5342C69.8508 78.8707 68.9107 76.7733 68.9107 74.2425C68.9107 71.1327 70.0589 68.7458 72.3547 67.0829C74.6688 65.4194 78.005 64.5785 82.3621 64.5607H84.2875C85.2165 64.5607 85.9688 63.8078 85.9688 62.8789C85.9688 61.5231 85.6163 60.4381 84.9112 59.6246C84.2245 58.8112 83.1307 58.4042 81.63 58.4042C80.3099 58.4042 79.2706 58.7207 78.5111 59.3535C78.4119 59.4379 78.3199 59.5265 78.2339 59.6196C77.2811 60.6512 76.2606 61.9571 74.8555 61.9571H72.1049C70.7004 61.9571 69.5171 60.7881 69.9699 59.4578C70.2318 58.6876 70.62 57.9474 71.1343 57.2383C72.1833 55.7915 73.6656 54.6616 75.582 53.8482C77.4988 53.0165 79.6501 52.6003 82.0365 52.6003C85.6524 52.6003 88.5185 53.5135 90.6337 55.3398C92.7673 57.1477 93.834 59.6969 93.834 62.9877V75.7065C93.8513 78.4388 94.2263 80.5179 94.9578 81.9444C94.9853 81.9983 95 82.0573 95 82.1178C95 82.3213 94.8347 82.4867 94.6312 82.4867H87.7ZM80.5994 77.0358C81.7562 77.0358 82.823 76.7825 83.7997 76.2763C84.5623 75.8668 85.1707 75.352 85.6244 74.7324C85.8747 74.391 85.9688 73.9662 85.9688 73.5435V71.6872C85.9688 70.2827 84.8303 69.1437 83.4253 69.1437H83.0402C79.1165 69.1437 77.0287 70.4999 76.7754 73.2118L76.7484 73.6727C76.7484 74.6489 77.0918 75.4537 77.7786 76.0866C78.4659 76.7194 79.406 77.0358 80.5994 77.0358Z" fill="url(#paint2_linear_59_344)"/>
<defs>
<linearGradient id="paint0_linear_59_344" x1="64" y1="118" x2="64" y2="10" gradientUnits="userSpaceOnUse">
<stop stop-color="#5570FF"/>
<stop offset="1" stop-color="#4DD3FF"/>
</linearGradient>
<linearGradient id="paint1_linear_59_344" x1="62.4425" y1="83.029" x2="62.4425" y2="43" gradientUnits="userSpaceOnUse">
<stop stop-color="#5558FF"/>
<stop offset="1" stop-color="#00C0FF"/>
</linearGradient>
<linearGradient id="paint2_linear_59_344" x1="62.4424" y1="83.0289" x2="62.4424" y2="42.9999" gradientUnits="userSpaceOnUse">
<stop stop-color="#5558FF"/>
<stop offset="1" stop-color="#00C0FF"/>
</linearGradient>
</defs>
</svg>
