<svg width="128" height="128" viewBox="0 0 128 128" fill="none" xmlns="http://www.w3.org/2000/svg">
<path opacity="0.4" d="M11 38C11 22.536 23.536 10 39 10H69C95.5097 10 117 31.4903 117 58V90C117 105.464 104.464 118 89 118H39C23.536 118 11 105.464 11 90V38Z" fill="url(#paint0_linear_59_317)"/>
<path fill-rule="evenodd" clip-rule="evenodd" d="M116.624 52H89C81.268 52 75 45.732 75 38V10.4048C96.7012 13.1109 113.903 30.3034 116.624 52Z" fill="url(#paint1_linear_59_317)"/>
<path fill-rule="evenodd" clip-rule="evenodd" d="M33 63.9997C31.9391 63.9997 30.9217 63.5783 30.1716 62.8282C29.4214 62.078 29 61.0606 29 59.9997C29 58.9389 29.4214 57.9215 30.1716 57.1713C30.9217 56.4212 31.9391 55.9998 33 55.9998H62.3333C63.3942 55.9998 64.4116 56.4212 65.1618 57.1713C65.9119 57.9215 66.3333 58.9389 66.3333 59.9997C66.3333 61.0606 65.9119 62.078 65.1618 62.8282C64.4116 63.5783 63.3942 63.9997 62.3333 63.9997H33ZM33 80.6664C31.9391 80.6664 30.9217 80.245 30.1716 79.4948C29.4214 78.7447 29 77.7273 29 76.6664C29 75.6056 29.4214 74.5881 30.1716 73.838C30.9217 73.0878 31.9391 72.6664 33 72.6664H75.6667C76.7275 72.6664 77.7449 73.0878 78.4951 73.838C79.2452 74.5881 79.6667 75.6056 79.6667 76.6664C79.6667 77.7273 79.2452 78.7447 78.4951 79.4948C77.7449 80.245 76.7275 80.6664 75.6667 80.6664H33ZM33 97.9999C31.9391 97.9999 30.9217 97.5785 30.1716 96.8283C29.4214 96.0782 29 95.0608 29 93.9999C29 92.939 29.4214 91.9216 30.1716 91.1715C30.9217 90.4213 31.9391 89.9999 33 89.9999H84.6667C85.7275 89.9999 86.7449 90.4213 87.4951 91.1715C88.2452 91.9216 88.6667 92.939 88.6667 93.9999C88.6667 95.0608 88.2452 96.0782 87.4951 96.8283C86.7449 97.5785 85.7275 97.9999 84.6667 97.9999H33Z" fill="url(#paint2_linear_59_317)"/>
<defs>
<linearGradient id="paint0_linear_59_317" x1="9.46785" y1="11.0627" x2="120.85" y2="123.727" gradientUnits="userSpaceOnUse">
<stop stop-color="#F9D423"/>
<stop offset="0.515624" stop-color="#FF4E50"/>
<stop offset="0.991304" stop-color="#8A2387"/>
</linearGradient>
<linearGradient id="paint1_linear_59_317" x1="74.3983" y1="10.8141" x2="117.279" y2="55.0372" gradientUnits="userSpaceOnUse">
<stop stop-color="#F9D423"/>
<stop offset="0.515624" stop-color="#FF4E50"/>
<stop offset="0.991304" stop-color="#8A2387"/>
</linearGradient>
<linearGradient id="paint2_linear_59_317" x1="28.1376" y1="56.413" x2="68.4878" y2="115.49" gradientUnits="userSpaceOnUse">
<stop stop-color="#F9D423"/>
<stop offset="0.515624" stop-color="#FF4E50"/>
<stop offset="0.991304" stop-color="#8A2387"/>
</linearGradient>
</defs>
</svg>
