<svg width="128" height="128" viewBox="0 0 128 128" fill="none" xmlns="http://www.w3.org/2000/svg">
<path opacity="0.4" d="M11 38C11 22.536 23.536 10 39 10H69C95.5097 10 117 31.4903 117 58V90C117 105.464 104.464 118 89 118H39C23.536 118 11 105.464 11 90V38Z" fill="url(#paint0_linear_59_674)"/>
<path fill-rule="evenodd" clip-rule="evenodd" d="M89 52H116.624C113.903 30.3034 96.7012 13.1109 75 10.4048V38C75 45.732 81.268 52 89 52ZM28 50C28 38.9454 36.9455 30 48 30C59.0545 30 68 38.9454 68 50C68 61.0545 59.0545 70 48 70C36.9455 70 28 61.0545 28 50ZM44.5716 37.1429C44.5716 36.3539 45.2112 35.7143 46.0001 35.7143H49.8097C50.5986 35.7143 51.2382 36.3539 51.2382 37.1429V40.9524C51.2382 41.7414 50.5986 42.381 49.8097 42.381H46.0001C45.2112 42.381 44.5716 41.7414 44.5716 40.9524V37.1429ZM44.5716 47.1429C44.5716 46.3539 45.2112 45.7143 46.0001 45.7143H49.8097C50.5986 45.7143 51.2382 46.3539 51.2382 47.1429V60.9524C51.2382 61.7413 50.5986 62.381 49.8097 62.381H46.0001C45.2112 62.381 44.5716 61.7413 44.5716 60.9524V47.1429ZM31.1716 79.7316C31.9217 78.9814 32.9391 78.56 34 78.56H76.6667C77.7275 78.56 78.7449 78.9814 79.4951 79.7316C80.2452 80.4817 80.6667 81.4991 80.6667 82.56C80.6667 83.6208 80.2452 84.6383 79.4951 85.3884C78.7449 86.1385 77.7275 86.56 76.6667 86.56H34C32.9391 86.56 31.9217 86.1385 31.1716 85.3884C30.4214 84.6383 30 83.6208 30 82.56C30 81.4991 30.4214 80.4817 31.1716 79.7316ZM31.1716 96.3982C31.9217 95.6481 32.9391 95.2266 34 95.2266H63.3333C64.3942 95.2266 65.4116 95.6481 66.1618 96.3982C66.9119 97.1484 67.3333 98.1658 67.3333 99.2266C67.3333 100.288 66.9119 101.305 66.1618 102.055C65.4116 102.805 64.3942 103.227 63.3333 103.227H34C32.9391 103.227 31.9217 102.805 31.1716 102.055C30.4214 101.305 30 100.288 30 99.2266C30 98.1658 30.4214 97.1484 31.1716 96.3982Z" fill="url(#paint1_linear_59_674)"/>
<defs>
<linearGradient id="paint0_linear_59_674" x1="64" y1="118" x2="64" y2="10" gradientUnits="userSpaceOnUse">
<stop stop-color="#00B59C"/>
<stop offset="1" stop-color="#9CFFAC"/>
</linearGradient>
<linearGradient id="paint1_linear_59_674" x1="72.3122" y1="103.227" x2="72.3122" y2="10.4048" gradientUnits="userSpaceOnUse">
<stop stop-color="#02AA93"/>
<stop offset="1" stop-color="#67FF80"/>
</linearGradient>
</defs>
</svg>
