<svg width="128" height="128" viewBox="0 0 128 128" fill="none" xmlns="http://www.w3.org/2000/svg">
<path opacity="0.4" d="M11 38C11 22.536 23.536 10 39 10H69C95.5097 10 117 31.4903 117 58V90C117 105.464 104.464 118 89 118H39C23.536 118 11 105.464 11 90V38Z" fill="url(#paint0_linear_61_192)"/>
<path fill-rule="evenodd" clip-rule="evenodd" d="M116.624 52H89C81.268 52 75 45.732 75 38V10.4048C96.7012 13.1109 113.903 30.3034 116.624 52Z" fill="url(#paint1_linear_61_192)"/>
<path fill-rule="evenodd" clip-rule="evenodd" d="M36.3849 81.7549C33.4032 84.2556 29.533 85.8407 25.5894 85.6959C24.5066 85.6634 23.5225 85.1893 22.5859 84.7007C22.9789 84.3646 23.4356 84.1111 23.8916 83.8581C24.565 83.4844 25.2368 83.1116 25.699 82.475C26.7294 81.1996 27.0786 79.6481 27.4289 78.0922C27.7315 76.7476 28.0349 75.3998 28.7793 74.2238C30.0963 71.8642 33.1546 70.2935 35.814 71.296C38.2467 72.0922 39.7869 74.7594 39.3514 77.2492C39.1795 79.1419 37.8481 80.6438 36.3849 81.7549ZM44.5828 72.2374C43.4963 73.106 42.3257 73.9275 40.9722 74.3328C40.5655 74.19 40.3836 73.806 40.2027 73.424C40.1085 73.2253 40.0146 73.027 39.8894 72.8635C39.4114 71.881 38.5505 71.2285 37.6973 70.582L37.6973 70.582C37.46 70.4022 37.2234 70.2229 36.9958 70.0371C37.5234 69.3145 38.0641 68.6035 38.6051 67.8922L38.6054 67.8918C38.9232 67.4739 39.2412 67.0558 39.5566 66.6352C41.0064 68.1451 42.385 69.723 43.7624 71.2996L43.7624 71.2996C44.0358 71.6125 44.309 71.9253 44.5828 72.2374ZM47.0772 70.3384C47.1672 70.2544 47.2525 70.1748 47.33 70.1271C48.1491 69.3659 48.971 68.6061 49.7933 67.8459C56.6022 61.5511 63.4428 55.227 69.0341 47.8198C69.0791 47.7626 69.1245 47.7052 69.1701 47.6475C69.8668 46.7672 70.6126 45.8248 70.5851 44.6495C69.3706 44.5228 68.3097 45.1415 67.333 45.7641C58.6525 50.6166 51.0069 56.9913 43.4055 63.3293C42.7357 63.8877 42.0663 64.4459 41.3965 65.0027C42.9951 66.8591 44.6157 68.7012 46.2655 70.5143C46.5232 70.8552 46.8191 70.5791 47.0772 70.3384Z" fill="url(#paint2_linear_61_192)"/>
<path d="M25.5894 85.6959L25.6261 84.6966L25.6195 84.6964L25.5894 85.6959ZM36.3849 81.7549L35.7801 80.9584L35.7608 80.9731L35.7422 80.9887L36.3849 81.7549ZM22.5859 84.7007L21.9359 83.9407L20.8111 84.9028L22.1234 85.5873L22.5859 84.7007ZM23.8916 83.8581L23.4064 82.9837L23.4064 82.9837L23.8916 83.8581ZM25.699 82.475L24.9211 81.8467L24.905 81.8666L24.8899 81.8874L25.699 82.475ZM27.4289 78.0922L26.4533 77.8726L26.4533 77.8726L27.4289 78.0922ZM28.7793 74.2238L29.6242 74.7586L29.639 74.7352L29.6525 74.7111L28.7793 74.2238ZM35.814 71.296L35.4613 72.2317L35.482 72.2395L35.503 72.2464L35.814 71.296ZM39.3514 77.2492L38.3664 77.0769L38.3592 77.1176L38.3555 77.1588L39.3514 77.2492ZM40.9722 74.3328L40.6408 75.2763L40.9476 75.3841L41.2591 75.2908L40.9722 74.3328ZM44.5828 72.2374L45.2072 73.0185L46.0248 72.365L45.3347 71.5781L44.5828 72.2374ZM40.2027 73.424L39.2989 73.8522L39.2989 73.8522L40.2027 73.424ZM39.8894 72.8635L38.9901 73.3009L39.0342 73.3915L39.0954 73.4715L39.8894 72.8635ZM37.6973 70.582L38.3013 69.785L38.2863 69.7736L38.2708 69.7628L37.6973 70.582ZM37.6973 70.582L37.0933 71.379L37.1083 71.3904L37.1238 71.4012L37.6973 70.582ZM36.9958 70.0371L36.1882 69.4474L35.6295 70.2126L36.3634 70.8117L36.9958 70.0371ZM38.6051 67.8922L37.8115 67.2837L37.8091 67.2868L38.6051 67.8922ZM38.6054 67.8918L39.399 68.5003L39.4013 68.4972L38.6054 67.8918ZM39.5566 66.6352L40.2779 65.9426L39.4627 65.0936L38.7566 66.0352L39.5566 66.6352ZM43.7624 71.2996L44.5364 70.6663L44.5261 70.6538L44.5155 70.6416L43.7624 71.2996ZM43.7624 71.2996L42.9885 71.9329L42.9987 71.9454L43.0094 71.9576L43.7624 71.2996ZM47.33 70.1271L47.8541 70.9788L47.9383 70.927L48.0108 70.8596L47.33 70.1271ZM47.0772 70.3384L47.7593 71.0696L47.7593 71.0696L47.0772 70.3384ZM49.7933 67.8459L49.1144 67.1117L49.1144 67.1117L49.7933 67.8459ZM69.0341 47.8198L68.2481 47.2015L68.2419 47.2093L68.2359 47.2173L69.0341 47.8198ZM69.1701 47.6475L68.386 47.0269L68.386 47.0269L69.1701 47.6475ZM70.5851 44.6495L71.5849 44.6261L71.5643 43.7462L70.6889 43.6549L70.5851 44.6495ZM67.333 45.7641L67.821 46.637L67.8462 46.6229L67.8705 46.6074L67.333 45.7641ZM43.4055 63.3293L44.0459 64.0973L44.0459 64.0973L43.4055 63.3293ZM41.3965 65.0027L40.7572 64.2337L39.9748 64.8842L40.6387 65.6552L41.3965 65.0027ZM46.2655 70.5143L47.0632 69.9112L47.0358 69.875L47.0051 69.8413L46.2655 70.5143ZM25.5528 86.6953C29.7846 86.8506 33.8899 85.1525 37.0275 82.5211L35.7422 80.9887C32.9166 83.3586 29.2813 84.8308 25.6261 84.6966L25.5528 86.6953ZM22.1234 85.5873C23.0504 86.0709 24.2209 86.6552 25.5594 86.6955L25.6195 84.6964C24.7924 84.6715 23.9945 84.3076 23.0484 83.8141L22.1234 85.5873ZM23.4064 82.9837C22.9661 83.228 22.4185 83.5281 21.9359 83.9407L23.2359 85.4607C23.5393 85.2012 23.9051 84.9943 24.3769 84.7325L23.4064 82.9837ZM24.8899 81.8874C24.5789 82.3156 24.1131 82.5915 23.4064 82.9837L24.3769 84.7325C25.017 84.3772 25.8946 83.9076 26.5082 83.0627L24.8899 81.8874ZM26.4533 77.8726C26.0944 79.4669 25.7814 80.7817 24.9211 81.8467L26.4769 83.1034C27.6773 81.6175 28.0629 79.8293 28.4044 78.3118L26.4533 77.8726ZM27.9343 73.6889C27.082 75.0355 26.7493 76.5575 26.4533 77.8726L28.4044 78.3118C28.7137 76.9378 28.9878 75.7641 29.6242 74.7586L27.9343 73.6889ZM36.1667 70.3603C32.9356 69.1423 29.4032 71.0541 27.9061 73.7364L29.6525 74.7111C30.7894 72.6743 33.3736 71.4448 35.4613 72.2317L36.1667 70.3603ZM40.3365 77.4215C40.855 74.4565 39.0442 71.301 36.1251 70.3456L35.503 72.2464C37.4492 72.8834 38.7187 75.0622 38.3664 77.0769L40.3365 77.4215ZM36.9896 82.5513C38.526 81.3847 40.1368 79.6571 40.3473 77.3397L38.3555 77.1588C38.2222 78.6268 37.1702 79.903 35.7801 80.9584L36.9896 82.5513ZM41.2591 75.2908C42.8059 74.8276 44.1012 73.9027 45.2072 73.0185L43.9584 71.4563C42.8914 72.3093 41.8456 73.0274 40.6853 73.3749L41.2591 75.2908ZM39.2989 73.8522C39.4389 74.1475 39.7743 74.972 40.6408 75.2763L41.3036 73.3893C41.3401 73.4022 41.344 73.424 41.3082 73.3754C41.2873 73.347 41.2604 73.3043 41.2251 73.2379C41.1889 73.1697 41.1534 73.0951 41.1064 72.9959L39.2989 73.8522ZM39.0954 73.4715C39.1445 73.5355 39.1948 73.6324 39.2989 73.8522L41.1064 72.9959C41.0222 72.8181 40.8847 72.5185 40.6833 72.2555L39.0954 73.4715ZM37.0934 71.379C37.9812 72.0518 38.6341 72.5689 38.9901 73.3009L40.7886 72.4261C40.1888 71.193 39.1197 70.4052 38.3013 69.785L37.0934 71.379ZM37.1238 71.4012L37.1239 71.4013L38.2708 69.7628L38.2707 69.7627L37.1238 71.4012ZM36.3634 70.8117C36.6074 71.0109 36.8586 71.2011 37.0933 71.379L38.3012 69.785C38.0615 69.6033 37.8395 69.4349 37.6282 69.2625L36.3634 70.8117ZM37.8091 67.2868C37.2691 67.9969 36.7225 68.7157 36.1882 69.4474L37.8035 70.6268C38.3243 69.9134 38.8591 69.2101 39.4011 68.4975L37.8091 67.2868ZM37.8118 67.2834L37.8115 67.2837L39.3987 68.5006L39.399 68.5002L37.8118 67.2834ZM38.7566 66.0352C38.4435 66.4527 38.1276 66.8681 37.8094 67.2865L39.4013 68.4972C39.7189 68.0796 40.0389 67.6589 40.3566 67.2352L38.7566 66.0352ZM44.5155 70.6416C43.1406 69.068 41.7467 67.4723 40.2779 65.9426L38.8353 67.3278C40.2661 68.8179 41.6293 70.378 43.0093 71.9575L44.5155 70.6416ZM44.5364 70.6664L44.5364 70.6663L42.9884 71.9328L42.9885 71.9329L44.5364 70.6664ZM45.3347 71.5781C45.0616 71.2667 44.7889 70.9546 44.5155 70.6417L43.0094 71.9576C43.2826 72.2703 43.5565 72.5838 43.831 72.8968L45.3347 71.5781ZM46.806 69.2754C46.6244 69.3872 46.4585 69.548 46.3951 69.6071L47.7593 71.0696C47.8077 71.0245 47.8362 70.9981 47.8604 70.9773C47.8711 70.9681 47.8762 70.9641 47.8768 70.9637C47.8777 70.963 47.8697 70.9692 47.8541 70.9788L46.806 69.2754ZM49.1144 67.1117C48.2923 67.8717 47.4695 68.6324 46.6493 69.3946L48.0108 70.8596C48.8288 70.0995 49.6496 69.3406 50.4721 68.5802L49.1144 67.1117ZM68.2359 47.2173C62.7074 54.5414 55.9346 60.8064 49.1144 67.1117L50.4721 68.5802C57.2698 62.2958 64.1782 55.9126 69.8322 48.4222L68.2359 47.2173ZM68.386 47.0269C68.3405 47.0844 68.2941 47.143 68.2481 47.2015L69.82 48.438C69.864 48.3822 69.9085 48.3259 69.9543 48.268L68.386 47.0269ZM69.5854 44.6728C69.603 45.4256 69.1328 46.0832 68.386 47.0269L69.9543 48.2681C70.6007 47.4512 71.6222 46.2239 71.5849 44.6261L69.5854 44.6728ZM67.8705 46.6074C68.8736 45.968 69.6566 45.558 70.4814 45.6441L70.6889 43.6549C69.0847 43.4875 67.7458 44.3151 66.7955 44.9208L67.8705 46.6074ZM44.0459 64.0973C51.6595 57.7492 59.235 51.4366 67.821 46.637L66.8451 44.8912C58.0699 49.7966 50.3544 56.2334 42.7651 62.5612L44.0459 64.0973ZM42.0358 65.7717C42.7062 65.2143 43.3762 64.6557 44.0459 64.0973L42.7651 62.5612C42.0952 63.1197 41.4263 63.6775 40.7572 64.2337L42.0358 65.7717ZM47.0051 69.8413C45.3628 68.0364 43.7483 66.2013 42.1542 64.3502L40.6387 65.6552C42.2419 67.5169 43.8686 69.3661 45.5259 71.1874L47.0051 69.8413ZM46.3951 69.6071C46.3251 69.6724 46.2863 69.7079 46.2533 69.7343C46.2177 69.7628 46.2347 69.7425 46.2933 69.7186C46.3619 69.6906 46.5226 69.6445 46.7244 69.6988C46.9269 69.7532 47.0332 69.8715 47.0632 69.9112L45.4679 71.1174C45.6267 71.3276 45.8666 71.5392 46.2051 71.6302C46.543 71.721 46.8421 71.6548 47.0491 71.5703C47.394 71.4295 47.6756 71.1477 47.7593 71.0696L46.3951 69.6071Z" fill="url(#paint3_linear_61_192)"/>
<path d="M24.1716 100.828C24.9217 101.579 25.9391 102 27 102H67.6667C68.7275 102 69.7449 101.579 70.4951 100.828C71.2452 100.078 71.6667 99.0609 71.6667 98C71.6667 96.9391 71.2452 95.9217 70.4951 95.1716C69.7449 94.4214 68.7275 94 67.6667 94H27C25.9391 94 24.9217 94.4214 24.1716 95.1716C23.4214 95.9217 23 96.9391 23 98C23 99.0609 23.4214 100.078 24.1716 100.828Z" fill="url(#paint4_linear_61_192)"/>
<defs>
<linearGradient id="paint0_linear_61_192" x1="113.419" y1="13.0869" x2="70.7218" y2="118.313" gradientUnits="userSpaceOnUse">
<stop stop-color="#FE0F7C"/>
<stop offset="1" stop-color="#DF0066"/>
</linearGradient>
<linearGradient id="paint1_linear_61_192" x1="115.218" y1="11.5937" x2="99.0025" y2="52.3398" gradientUnits="userSpaceOnUse">
<stop stop-color="#FE0F7C"/>
<stop offset="1" stop-color="#DF0066"/>
</linearGradient>
<linearGradient id="paint2_linear_61_192" x1="24.2075" y1="84.5311" x2="38.4372" y2="42.7741" gradientUnits="userSpaceOnUse">
<stop stop-color="#FE0F7C"/>
<stop offset="1" stop-color="#DF0066"/>
</linearGradient>
<linearGradient id="paint3_linear_61_192" x1="24.2075" y1="84.5311" x2="38.4372" y2="42.7741" gradientUnits="userSpaceOnUse">
<stop stop-color="#FE0F7C"/>
<stop offset="1" stop-color="#DF0066"/>
</linearGradient>
<linearGradient id="paint4_linear_61_192" x1="70.0225" y1="101.771" x2="69.4308" y2="92.7322" gradientUnits="userSpaceOnUse">
<stop stop-color="#FE0F7C"/>
<stop offset="1" stop-color="#DF0066"/>
</linearGradient>
</defs>
</svg>
