<svg width="128" height="128" viewBox="0 0 128 128" fill="none" xmlns="http://www.w3.org/2000/svg">
<path opacity="0.4" d="M11 38C11 22.536 23.536 10 39 10H89C104.464 10 117 22.536 117 38V90C117 105.464 104.464 118 89 118H39C23.536 118 11 105.464 11 90V38Z" fill="url(#paint0_linear_59_392)"/>
<path d="M105.748 74.5625V80.5226C105.748 81.5116 105.705 82.5093 105.618 83.4983C104.41 97.1073 94.9564 106 81.3162 106H44.0214C37.115 106 31.2877 103.758 27.1007 99.6943C25.4604 98.187 24.0791 96.4162 23 94.3863C24.4245 92.6544 26.0216 90.7584 27.5755 88.8581C30.2086 85.7053 32.7553 82.5914 34.3524 80.5658C36.7265 77.6289 42.9855 69.8981 51.6617 73.5259C53.4315 74.2602 54.9854 75.2967 56.4099 76.2037C59.9062 78.5359 61.3739 79.2269 63.8343 77.8881C66.5537 76.4196 68.3234 73.5259 70.1796 70.5027C71.1724 68.9004 72.1652 67.3499 73.2443 65.9246C77.9493 59.7918 85.201 58.1506 91.2442 61.7785C94.2657 63.5924 96.8556 65.8815 99.2729 68.2094C99.7909 68.7276 100.309 69.207 100.784 69.6821C101.431 70.3299 103.589 72.4894 105.748 74.5625" fill="url(#paint1_linear_59_392)"/>
<path d="M60.3188 49.1212C60.3188 55.1893 55.2642 60.2424 49.1995 60.2424C43.1391 60.2424 38.0844 55.1893 38.0844 49.1212C38.0844 43.0575 43.1391 38 49.1995 38C55.2642 38 60.3188 43.0575 60.3188 49.1212" fill="url(#paint2_linear_59_392)"/>
<defs>
<linearGradient id="paint0_linear_59_392" x1="64" y1="118" x2="64" y2="10" gradientUnits="userSpaceOnUse">
<stop stop-color="#00B59C"/>
<stop offset="1" stop-color="#9CFFAC"/>
</linearGradient>
<linearGradient id="paint1_linear_59_392" x1="64.3738" y1="106" x2="64.3738" y2="59.8721" gradientUnits="userSpaceOnUse">
<stop stop-color="#02AA93"/>
<stop offset="1" stop-color="#67FF80"/>
</linearGradient>
<linearGradient id="paint2_linear_59_392" x1="49.2016" y1="60.2424" x2="49.2016" y2="38" gradientUnits="userSpaceOnUse">
<stop stop-color="#02AA93"/>
<stop offset="1" stop-color="#67FF80"/>
</linearGradient>
</defs>
</svg>
