<svg width="128" height="128" viewBox="0 0 128 128" fill="none" xmlns="http://www.w3.org/2000/svg">
<path opacity="0.4" d="M11 38C11 22.536 23.536 10 39 10H89C104.464 10 117 22.536 117 38V90C117 105.464 104.464 118 89 118H39C23.536 118 11 105.464 11 90V38Z" fill="url(#paint0_linear_59_505)"/>
<path d="M72.654 60.25L55.128 62.125L54.773 62.3875C53.8555 63.025 53.8555 64.975 54.773 65.6125L55.128 65.875L72.654 67.75C73.282 68.5545 75.1075 70.894 75.165 70.969C75.743 71.7015 76.6795 71.7015 77.257 70.969L81.71 65.3255C81.999 64.9595 82.1435 64.4795 82.1435 64C82.1435 63.5205 81.999 63.0405 81.71 62.6745L77.2715 57.0495C76.6935 56.317 75.7575 56.317 75.1795 57.0495L72.654 60.25ZM46.5385 65.9005C46.5037 65.8975 46.4741 65.875 46.4385 65.875C45.6207 65.875 44.959 66.7135 44.959 67.75V94.125C44.959 95.1615 45.6207 96 46.4385 96C47.2563 96 47.918 95.1615 47.918 94.125V77.8575C51.2499 85.2365 57.098 90.5925 63.983 91.841C64.792 91.9875 65.542 91.2755 65.6575 90.25C65.6675 90.1605 65.672 90.0705 65.672 89.9825C65.672 89.0635 65.14 88.2615 64.402 88.1275C56.0105 86.608 49.3123 78.1195 48.1131 67.4845C48.0023 66.503 47.3074 65.8295 46.5385 65.9005ZM44.959 33.875V60.25C44.959 61.2865 45.6207 62.125 46.4385 62.125C46.4741 62.125 46.5037 62.1025 46.5385 62.0995C47.3074 62.1705 48.0023 61.497 48.113 60.5155C49.3122 49.8805 56.0105 41.392 64.402 39.8722C65.14 39.7386 65.672 38.9366 65.672 38.0174C65.672 37.9295 65.6675 37.8397 65.6575 37.75C65.542 36.7246 64.792 36.0124 63.983 36.1589C57.098 37.4074 51.2499 42.7635 47.918 50.1425V33.875C47.918 32.8386 47.2563 32 46.4385 32C45.6207 32 44.959 32.8386 44.959 33.875Z" fill="url(#paint1_linear_59_505)" stroke="url(#paint2_linear_59_505)" stroke-width="2"/>
<path d="M55.128 62.125H72.654L75.1795 58.9245C75.7575 58.192 76.6935 58.192 77.2715 58.9245L80.2305 62.6745C80.5195 63.0405 80.664 63.5205 80.664 64C80.664 64.48 80.5195 64.9595 80.2305 65.3255L77.257 69.094C76.6795 69.8265 75.743 69.826 75.165 69.094C75.1075 69.0185 73.282 66.6795 72.654 65.875H55.128L75.486 80.6125C75.989 80.9875 76.5805 80.95 77.054 80.575L80.9895 77.2375C83.978 74.6875 87.44 73.375 91.0205 73.375C91.849 73.375 92.5 72.55 92.5 71.5V56.5C92.5 55.45 91.849 54.625 91.0205 54.625C87.44 54.625 83.978 53.3125 80.9895 50.7625L77.054 47.425C76.5805 47.05 75.989 47.0125 75.486 47.3875L55.128 62.125ZM42 33.875C42 34.9114 42.6617 35.75 43.4795 35.75H49.3974C50.2152 35.75 50.8769 34.9114 50.8769 33.875C50.8769 32.8386 50.2152 32 49.3974 32H43.4795C42.6617 32 42 32.8386 42 33.875ZM50.8769 94.125C50.8769 93.0885 50.2152 92.25 49.3974 92.25H43.4795C42.6617 92.25 42 93.0885 42 94.125C42 95.1615 42.6617 96 43.4795 96H49.3974C50.2152 96 50.8769 95.1615 50.8769 94.125ZM50.8769 67.75V60.25C50.8769 59.2135 50.2152 58.375 49.3974 58.375H43.4795C42.6617 58.375 42 59.2135 42 60.25V67.75C42 68.7865 42.6617 69.625 43.4795 69.625H49.3974C50.2152 69.625 50.8769 68.7865 50.8769 67.75ZM62.713 86.5V94C62.713 95.0365 63.3745 95.875 64.1925 95.875H70.1105C70.928 95.875 71.59 95.0365 71.59 94V86.5C71.59 85.4635 70.928 84.625 70.1105 84.625H64.1925C63.3745 84.625 62.713 85.4635 62.713 86.5ZM62.713 34V41.5C62.713 42.5365 63.3745 43.375 64.1925 43.375H70.1105C70.928 43.375 71.59 42.5365 71.59 41.5V34C71.59 32.9636 70.928 32.125 70.1105 32.125H64.1925C63.3745 32.125 62.713 32.9636 62.713 34Z" stroke="url(#paint3_linear_59_505)" stroke-width="4"/>
<defs>
<linearGradient id="paint0_linear_59_505" x1="63.9993" y1="118" x2="63.9993" y2="10" gradientUnits="userSpaceOnUse">
<stop stop-color="#FDA700"/>
<stop offset="1" stop-color="#FFDE00"/>
</linearGradient>
<linearGradient id="paint1_linear_59_505" x1="82.1435" y1="67.3333" x2="44.959" y2="67.3333" gradientUnits="userSpaceOnUse">
<stop stop-color="#FFCD1A"/>
<stop offset="1" stop-color="#FD9C0C"/>
</linearGradient>
<linearGradient id="paint2_linear_59_505" x1="82.1435" y1="67.3333" x2="44.959" y2="67.3333" gradientUnits="userSpaceOnUse">
<stop stop-color="#FFCD1A"/>
<stop offset="1" stop-color="#FD9C0C"/>
</linearGradient>
<linearGradient id="paint3_linear_59_505" x1="92.5" y1="67.3333" x2="42" y2="67.3333" gradientUnits="userSpaceOnUse">
<stop stop-color="#FFCD1A"/>
<stop offset="1" stop-color="#FD9C0C"/>
</linearGradient>
</defs>
</svg>
