<svg width="128" height="128" viewBox="0 0 128 128" fill="none" xmlns="http://www.w3.org/2000/svg">
<path opacity="0.4" d="M11 38C11 22.536 23.536 10 39 10H89C104.464 10 117 22.536 117 38V90C117 105.464 104.464 118 89 118H39C23.536 118 11 105.464 11 90V38Z" fill="url(#paint0_linear_59_444)"/>
<path fill-rule="evenodd" clip-rule="evenodd" d="M92.0777 69.214C93.2581 69.841 94.1687 70.831 94.8094 71.821C96.0572 73.867 95.9561 76.375 94.742 78.586L92.3813 82.546C91.1334 84.658 88.8065 85.978 86.412 85.978C85.2316 85.978 83.9164 85.648 82.8372 84.988C81.9604 84.427 80.9486 84.229 79.8694 84.229C76.5307 84.229 73.7316 86.968 73.6304 90.235C73.6304 94.03 70.5277 97 66.6494 97H62.0628C58.1508 97 55.0481 94.03 55.0481 90.235C54.9807 86.968 52.1815 84.229 48.8428 84.229C47.7299 84.229 46.7182 84.427 45.875 84.988C44.7959 85.648 43.4469 85.978 42.3002 85.978C39.8721 85.978 37.5451 84.658 36.2973 82.546L33.9703 78.586C32.7225 76.441 32.655 73.867 33.9028 71.821C34.4424 70.831 35.4541 69.841 36.6008 69.214C37.5451 68.752 38.1521 67.993 38.7254 67.102C40.4117 64.264 39.3999 60.535 36.5333 58.852C33.1946 56.971 32.1154 52.78 34.0377 49.513L36.2973 45.619C38.2533 42.352 42.4351 41.197 45.8076 43.111C48.7416 44.695 52.5525 43.639 54.2725 40.834C54.8121 39.91 55.1156 38.92 55.0481 37.93C54.9807 36.643 55.3517 35.422 55.9924 34.432C57.2402 32.386 59.4998 31.066 61.9617 31H66.7168C69.2125 31 71.472 32.386 72.7198 34.432C73.3269 35.422 73.7316 36.643 73.6304 37.93C73.5629 38.92 73.8665 39.91 74.4061 40.834C76.126 43.639 79.9369 44.695 82.9046 43.111C86.2434 41.197 90.459 42.352 92.3813 45.619L94.6408 49.513C96.5968 52.78 95.5176 56.971 92.1452 58.852C89.2786 60.535 88.2669 64.264 89.9868 67.102C90.5264 67.993 91.1334 68.752 92.0777 69.214ZM54.8121 64.0326C54.8121 69.2136 59.0951 73.3386 64.3899 73.3386C69.6846 73.3386 73.8665 69.2136 73.8665 64.0326C73.8665 58.8516 69.6846 54.6936 64.3899 54.6936C59.0951 54.6936 54.8121 58.8516 54.8121 64.0326Z" fill="url(#paint1_linear_59_444)"/>
<defs>
<linearGradient id="paint0_linear_59_444" x1="64" y1="118" x2="64" y2="10" gradientUnits="userSpaceOnUse">
<stop stop-color="#5570FF"/>
<stop offset="1" stop-color="#4DD3FF"/>
</linearGradient>
<linearGradient id="paint1_linear_59_444" x1="64.35" y1="97" x2="64.35" y2="31" gradientUnits="userSpaceOnUse">
<stop stop-color="#5558FF"/>
<stop offset="1" stop-color="#00C0FF"/>
</linearGradient>
</defs>
</svg>
