<svg width="128" height="128" viewBox="0 0 128 128" fill="none" xmlns="http://www.w3.org/2000/svg">
<path opacity="0.4" d="M11 38C11 22.536 23.536 10 39 10H69C95.5097 10 117 31.4903 117 58V90C117 105.464 104.464 118 89 118H39C23.536 118 11 105.464 11 90V38Z" fill="url(#paint0_linear_59_246)"/>
<path fill-rule="evenodd" clip-rule="evenodd" d="M116.624 52H89C81.268 52 75 45.732 75 38V10.4048C96.7012 13.1109 113.903 30.3034 116.624 52Z" fill="url(#paint1_linear_59_246)"/>
<path fill-rule="evenodd" clip-rule="evenodd" d="M38.5355 31.4645C36.5829 29.5118 33.4171 29.5118 31.4645 31.4645C29.5118 33.4171 29.5118 36.5829 31.4645 38.5355L42.5147 49.5858C43.2958 50.3668 43.2958 51.6332 42.5147 52.4142L31.4645 63.4645C29.5118 65.4171 29.5118 68.5829 31.4645 70.5355C33.4171 72.4882 36.5829 72.4882 38.5355 70.5355L49.5858 59.4853C50.3668 58.7042 51.6332 58.7042 52.4142 59.4853L63.4645 70.5355C65.4171 72.4882 68.5829 72.4882 70.5355 70.5355C72.4882 68.5829 72.4882 65.4171 70.5355 63.4645L59.4853 52.4142C58.7042 51.6332 58.7042 50.3668 59.4853 49.5858L70.5355 38.5355C72.4882 36.5829 72.4882 33.4171 70.5355 31.4645C68.5829 29.5118 65.4171 29.5118 63.4645 31.4645L52.4142 42.5147C51.6332 43.2958 50.3668 43.2958 49.5858 42.5147L38.5355 31.4645ZM34 78.5601C32.9391 78.5601 31.9217 78.9815 31.1716 79.7316C30.4214 80.4818 30 81.4992 30 82.5601C30 83.6209 30.4214 84.6383 31.1716 85.3885C31.9217 86.1386 32.9391 86.5601 34 86.5601H76.6667C77.7275 86.5601 78.7449 86.1386 79.4951 85.3885C80.2452 84.6383 80.6667 83.6209 80.6667 82.5601C80.6667 81.4992 80.2452 80.4818 79.4951 79.7316C78.7449 78.9815 77.7275 78.5601 76.6667 78.5601H34ZM34 95.2267C32.9391 95.2267 31.9217 95.6482 31.1716 96.3983C30.4214 97.1484 30 98.1659 30 99.2267C30 100.288 30.4214 101.305 31.1716 102.055C31.9217 102.805 32.9391 103.227 34 103.227H63.3333C64.3942 103.227 65.4116 102.805 66.1618 102.055C66.9119 101.305 67.3333 100.288 67.3333 99.2267C67.3333 98.1659 66.9119 97.1484 66.1618 96.3983C65.4116 95.6482 64.3942 95.2267 63.3333 95.2267H34Z" fill="url(#paint2_linear_59_246)"/>
<defs>
<linearGradient id="paint0_linear_59_246" x1="64" y1="118" x2="64" y2="10" gradientUnits="userSpaceOnUse">
<stop stop-color="#00B59C"/>
<stop offset="1" stop-color="#9CFFAC"/>
</linearGradient>
<linearGradient id="paint1_linear_59_246" x1="95.8122" y1="52" x2="95.8122" y2="10.4048" gradientUnits="userSpaceOnUse">
<stop stop-color="#02AA93"/>
<stop offset="1" stop-color="#67FF80"/>
</linearGradient>
<linearGradient id="paint2_linear_59_246" x1="55.3333" y1="103.227" x2="55.3333" y2="30" gradientUnits="userSpaceOnUse">
<stop stop-color="#02AA93"/>
<stop offset="1" stop-color="#67FF80"/>
</linearGradient>
</defs>
</svg>
