<svg width="33" height="32" viewBox="0 0 33 32" fill="none" xmlns="http://www.w3.org/2000/svg">
<g clip-path="url(#clip0_273_83)">
<path opacity="0.4" d="M8.40516 29.6361C4.50071 29.7042 1.2798 26.5668 1.21106 22.6285L0.988789 9.89456C0.920045 5.95621 4.02949 2.70832 7.93395 2.64016L23.7901 2.36339C27.6946 2.29524 30.9155 5.43264 30.9842 9.37098L31.2065 22.1049C31.2752 26.0432 28.1658 29.2911 24.2613 29.3593L8.40516 29.6361Z" fill="url(#paint0_linear_273_83)"/>
<path d="M12.0977 8.5H6.59766C6.04538 8.5 5.59766 8.94772 5.59766 9.5V16.5C5.59766 17.0523 6.04538 17.5 6.59766 17.5H12.0977C12.65 17.5 13.0977 17.0523 13.0977 16.5V9.5C13.0977 8.94772 12.65 8.5 12.0977 8.5Z" fill="url(#paint1_linear_273_83)"/>
<path d="M6.59766 23.5H25.5977C26.15 23.5 26.5977 23.0523 26.5977 22.5V21.5C26.5977 20.9477 26.15 20.5 25.5977 20.5H6.59766C6.04538 20.5 5.59766 20.9477 5.59766 21.5V22.5C5.59766 23.0523 6.04538 23.5 6.59766 23.5Z" fill="url(#paint2_linear_273_83)"/>
<path d="M17.0977 17.5H25.5977C26.15 17.5 26.5977 17.0523 26.5977 16.5V15.5C26.5977 14.9477 26.15 14.5 25.5977 14.5H17.0977C16.5454 14.5 16.0977 14.9477 16.0977 15.5V16.5C16.0977 17.0523 16.5454 17.5 17.0977 17.5Z" fill="url(#paint3_linear_273_83)"/>
<path d="M17.0977 11.5H25.5977C26.15 11.5 26.5977 11.0523 26.5977 10.5V9.5C26.5977 8.94772 26.15 8.5 25.5977 8.5H17.0977C16.5454 8.5 16.0977 8.94772 16.0977 9.5V10.5C16.0977 11.0523 16.5454 11.5 17.0977 11.5Z" fill="url(#paint4_linear_273_83)"/>
</g>
<defs>
<linearGradient id="paint0_linear_273_83" x1="16.0976" y1="29.6371" x2="16.0976" y2="2.3623" gradientUnits="userSpaceOnUse">
<stop stop-color="#5570FF"/>
<stop offset="1" stop-color="#4DD3FF"/>
</linearGradient>
<linearGradient id="paint1_linear_273_83" x1="16.0977" y1="23.5" x2="16.0977" y2="8.5" gradientUnits="userSpaceOnUse">
<stop stop-color="#5570FF"/>
<stop offset="1" stop-color="#4DD3FF"/>
</linearGradient>
<linearGradient id="paint2_linear_273_83" x1="16.0977" y1="23.5" x2="16.0977" y2="8.5" gradientUnits="userSpaceOnUse">
<stop stop-color="#5570FF"/>
<stop offset="1" stop-color="#4DD3FF"/>
</linearGradient>
<linearGradient id="paint3_linear_273_83" x1="16.0977" y1="23.5" x2="16.0977" y2="8.5" gradientUnits="userSpaceOnUse">
<stop stop-color="#5570FF"/>
<stop offset="1" stop-color="#4DD3FF"/>
</linearGradient>
<linearGradient id="paint4_linear_273_83" x1="16.0977" y1="23.5" x2="16.0977" y2="8.5" gradientUnits="userSpaceOnUse">
<stop stop-color="#5570FF"/>
<stop offset="1" stop-color="#4DD3FF"/>
</linearGradient>
<clipPath id="clip0_273_83">
<rect width="32" height="32" fill="white" transform="translate(0.0976562)"/>
</clipPath>
</defs>
</svg>
