<svg width="128" height="128" viewBox="0 0 128 128" fill="none" xmlns="http://www.w3.org/2000/svg">
<path opacity="0.4" d="M11 38C11 22.536 23.536 10 39 10H89C104.464 10 117 22.536 117 38V90C117 105.464 104.464 118 89 118H39C23.536 118 11 105.464 11 90V38Z" fill="url(#paint0_linear_59_383)"/>
<path d="M64.2058 31.2253C63.9235 31.0835 63.5908 31.0835 63.3085 31.2253L35.5513 45.1607C35.2133 45.3304 35 45.6762 35 46.0544V81.9456C35 82.3238 35.2133 82.6696 35.5513 82.8393L63.3085 96.7747C63.5908 96.9165 63.9235 96.9165 64.2058 96.7747L91.963 82.8393C92.3009 82.6696 92.5143 82.3238 92.5143 81.9456V46.0544C92.5143 45.6762 92.3009 45.3304 91.963 45.1607L64.2058 31.2253ZM63.3085 40.5065C63.5908 40.3648 63.9235 40.3648 64.2058 40.5065L83.7464 50.317C84.0844 50.4866 84.2978 50.8325 84.2978 51.2107V76.7896C84.2978 77.1678 84.0844 77.5136 83.7464 77.6833L65.2058 86.9912C64.5408 87.3251 63.7571 86.8416 63.7571 86.0975V60.5205C63.7571 60.1275 63.527 59.771 63.1689 59.6092L45.128 51.4575C44.3612 51.111 44.3391 50.0301 45.0911 49.6525L63.3085 40.5065Z" fill="url(#paint1_linear_59_383)"/>
<defs>
<linearGradient id="paint0_linear_59_383" x1="26.5234" y1="102.184" x2="102.877" y2="27.2436" gradientUnits="userSpaceOnUse">
<stop stop-color="#0072FF"/>
<stop offset="1" stop-color="#00E5A1"/>
</linearGradient>
<linearGradient id="paint1_linear_59_383" x1="43.4228" y1="87.3343" x2="89.6532" y2="47.0479" gradientUnits="userSpaceOnUse">
<stop stop-color="#0072FF"/>
<stop offset="1" stop-color="#00E5A1"/>
</linearGradient>
</defs>
</svg>
