<svg width="128" height="128" viewBox="0 0 128 128" fill="none" xmlns="http://www.w3.org/2000/svg">
<path opacity="0.4" d="M11 38C11 22.536 23.536 10 39 10H69C95.5097 10 117 31.4903 117 58V90C117 105.464 104.464 118 89 118H39C23.536 118 11 105.464 11 90V38Z" fill="url(#paint0_linear_61_192)"/>
<path fill-rule="evenodd" clip-rule="evenodd" d="M116.624 52H89C81.268 52 75 45.732 75 38V10.4048C96.7012 13.1109 113.903 30.3034 116.624 52ZM36.3849 81.7548C33.4032 84.2555 29.533 85.8406 25.5894 85.6959C25.009 85.6784 24.4569 85.5341 23.9253 85.3287C23.2646 85.0734 23.2054 84.2392 23.8246 83.8952L23.8916 83.858C24.565 83.4843 25.2368 83.1115 25.699 82.475C26.7294 81.1995 27.0786 79.6481 27.4289 78.0921C27.7315 76.7476 28.0349 75.3997 28.7793 74.2237C30.0963 71.8641 33.1546 70.2935 35.814 71.296C38.2467 72.0921 39.7869 74.7593 39.3514 77.2492C39.1795 79.1419 37.8481 80.6438 36.3849 81.7548ZM43.8936 71.4497C44.2688 71.8791 44.2135 72.5389 43.7517 72.8734C42.9877 73.427 42.1743 73.9174 41.2814 74.232C41.082 74.3022 40.8534 74.3081 40.6914 74.1724C40.4689 73.986 40.3355 73.7045 40.2027 73.424C40.1237 73.2574 40.045 73.0912 39.9479 72.9455C39.9107 72.8897 39.875 72.8329 39.8441 72.7735C39.3583 71.8407 38.5241 71.2085 37.6973 70.582L37.6973 70.5819C37.3002 70.2811 37.2257 69.7218 37.5237 69.3227C37.8815 68.8436 38.2432 68.3679 38.6051 67.8921L38.6054 67.8918L38.8469 67.5741C39.22 67.083 39.9447 67.0392 40.3647 67.4908C41.5231 68.7365 42.6431 70.0184 43.7624 71.2995L43.7624 71.2996L43.8936 71.4497ZM47.0772 70.3383C47.1371 70.2825 47.1949 70.2285 47.2497 70.1846C47.2635 70.1736 47.2775 70.1626 47.2915 70.1517C47.3294 70.1221 47.3673 70.0925 47.4025 70.0597C48.1971 69.3215 48.9942 68.5846 49.7917 67.8473L49.7919 67.8471L49.7932 67.8459C56.6022 61.5511 63.4428 55.2269 69.0341 47.8197C69.0791 47.7625 69.1245 47.7051 69.1701 47.6474C69.6866 46.9949 70.23 46.3082 70.4654 45.5178C70.6091 45.0355 70.2042 44.5957 69.7083 44.6815C68.8493 44.83 68.0674 45.296 67.333 45.764C58.6525 50.6166 51.0069 56.9913 43.4055 63.3292L43.3991 63.3345C42.9922 63.6738 42.5854 64.013 42.1786 64.3518C41.749 64.7096 41.6955 65.3502 42.0616 65.7727C43.4443 67.3685 44.8441 68.9521 46.2655 70.5143C46.5232 70.8551 46.8191 70.579 47.0772 70.3383ZM27 102C25.9391 102 24.9217 101.578 24.1716 100.828C23.4214 100.078 23 99.0607 23 97.9998C23 96.9389 23.4214 95.9215 24.1716 95.1714C24.9217 94.4212 25.9391 93.9998 27 93.9998H67.6667C68.7275 93.9998 69.7449 94.4212 70.4951 95.1714C71.2452 95.9215 71.6667 96.9389 71.6667 97.9998C71.6667 99.0607 71.2452 100.078 70.4951 100.828C69.7449 101.578 68.7275 102 67.6667 102H27Z" fill="url(#paint1_linear_61_192)"/>
<defs>
<linearGradient id="paint0_linear_61_192" x1="26.9568" y1="93.7" x2="84.9997" y2="60.8629" gradientUnits="userSpaceOnUse">
<stop stop-color="#F502A3"/>
<stop offset="1" stop-color="#FFBB37"/>
</linearGradient>
<linearGradient id="paint1_linear_61_192" x1="37.0939" y1="81.3909" x2="87.3298" y2="51.7928" gradientUnits="userSpaceOnUse">
<stop stop-color="#F502A3"/>
<stop offset="1" stop-color="#FFBB37"/>
</linearGradient>
</defs>
</svg>
