<svg width="128" height="128" viewBox="0 0 128 128" fill="none" xmlns="http://www.w3.org/2000/svg">
<path opacity="0.4" d="M11 38C11 22.536 23.536 10 39 10H69C95.5097 10 117 31.4903 117 58V90C117 105.464 104.464 118 89 118H39C23.536 118 11 105.464 11 90V38Z" fill="url(#paint0_linear_63_525)"/>
<path fill-rule="evenodd" clip-rule="evenodd" d="M116.624 52H89C81.268 52 75 45.732 75 38V10.4048C96.7012 13.1109 113.903 30.3034 116.624 52Z" fill="url(#paint1_linear_63_525)"/>
<path d="M41.7143 25C40.7675 25 40 25.7675 40 26.7143V57.2857C40 58.3903 39.1046 59.2857 38 59.2857H31.7143C30.6097 59.2857 29.7143 60.1811 29.7143 61.2857V67.5714C29.7143 68.676 28.8189 69.5714 27.7143 69.5714H25.7143C24.7675 69.5714 24 70.3389 24 71.2857V71.2857C24 72.2325 24.7675 73 25.7143 73H27.7143C28.8189 73 29.7143 73.8954 29.7143 75V81.2857C29.7143 82.3903 30.6097 83.2857 31.7143 83.2857H38C39.1046 83.2857 40 84.1811 40 85.2857V87.2857C40 88.2325 40.7675 89 41.7143 89V89C42.6611 89 43.4286 88.2325 43.4286 87.2857V85.2857C43.4286 84.1811 44.324 83.2857 45.4286 83.2857H51.7143C52.8189 83.2857 53.7143 82.3903 53.7143 81.2857V75C53.7143 73.8954 54.6097 73 55.7143 73H72.5714C73.5182 73 74.2857 72.2325 74.2857 71.2857V71.2857C74.2857 70.3389 73.5182 69.5714 72.5714 69.5714H55.7143C54.6097 69.5714 53.7143 68.676 53.7143 67.5714V61.2857C53.7143 60.1811 52.8189 59.2857 51.7143 59.2857H45.4286C44.324 59.2857 43.4286 58.3903 43.4286 57.2857V26.7143C43.4286 25.7675 42.6611 25 41.7143 25V25ZM33.1429 79.8571V64.7143C33.1429 63.6097 34.0383 62.7143 35.1429 62.7143H48.2857C49.3903 62.7143 50.2857 63.6097 50.2857 64.7143V79.8571M41.7143 69.5714C40.7675 69.5714 40 70.3389 40 71.2857V71.2857C40 72.2325 40.7675 73 41.7143 73V73C42.6611 73 43.4286 72.2325 43.4286 71.2857V71.2857C43.4286 70.3389 42.6611 69.5714 41.7143 69.5714V69.5714Z" fill="url(#paint2_linear_63_525)"/>
<path d="M33.1429 79.8571V64.7143C33.1429 63.6097 34.0383 62.7143 35.1429 62.7143H48.2857C49.3903 62.7143 50.2857 63.6097 50.2857 64.7143V79.8571M43.4286 71.2857V71.2857C43.4286 72.2325 42.6611 73 41.7143 73V73C40.7675 73 40 72.2325 40 71.2857V71.2857C40 70.3389 40.7675 69.5714 41.7143 69.5714V69.5714C42.6611 69.5714 43.4286 70.3389 43.4286 71.2857ZM43.4286 26.7143V57.2857C43.4286 58.3903 44.324 59.2857 45.4286 59.2857H51.7143C52.8189 59.2857 53.7143 60.1811 53.7143 61.2857V67.5714C53.7143 68.676 54.6097 69.5714 55.7143 69.5714H72.5714C73.5182 69.5714 74.2857 70.3389 74.2857 71.2857V71.2857C74.2857 72.2325 73.5182 73 72.5714 73H55.7143C54.6097 73 53.7143 73.8954 53.7143 75V81.2857C53.7143 82.3903 52.8189 83.2857 51.7143 83.2857H45.4286C44.324 83.2857 43.4286 84.1811 43.4286 85.2857V87.2857C43.4286 88.2325 42.6611 89 41.7143 89V89C40.7675 89 40 88.2325 40 87.2857V85.2857C40 84.1811 39.1046 83.2857 38 83.2857H31.7143C30.6097 83.2857 29.7143 82.3903 29.7143 81.2857V75C29.7143 73.8954 28.8189 73 27.7143 73H25.7143C24.7675 73 24 72.2325 24 71.2857V71.2857C24 70.3389 24.7675 69.5714 25.7143 69.5714H27.7143C28.8189 69.5714 29.7143 68.676 29.7143 67.5714V61.2857C29.7143 60.1811 30.6097 59.2857 31.7143 59.2857H38C39.1046 59.2857 40 58.3903 40 57.2857V26.7143C40 25.7675 40.7675 25 41.7143 25V25C42.6611 25 43.4286 25.7675 43.4286 26.7143Z" stroke="url(#paint3_linear_63_525)" stroke-width="2"/>
<path d="M24.1716 100.828C24.9217 101.579 25.9391 102 27 102H67.6667C68.7275 102 69.7449 101.579 70.4951 100.828C71.2452 100.078 71.6667 99.0609 71.6667 98C71.6667 96.9391 71.2452 95.9217 70.4951 95.1716C69.7449 94.4214 68.7275 94 67.6667 94H27C25.9391 94 24.9217 94.4214 24.1716 95.1716C23.4214 95.9217 23 96.9391 23 98C23 99.0609 23.4214 100.078 24.1716 100.828Z" fill="url(#paint4_linear_63_525)"/>
<defs>
<linearGradient id="paint0_linear_63_525" x1="113.419" y1="13.0869" x2="70.7218" y2="118.313" gradientUnits="userSpaceOnUse">
<stop stop-color="#FE0F7C"/>
<stop offset="1" stop-color="#DF0066"/>
</linearGradient>
<linearGradient id="paint1_linear_63_525" x1="115.218" y1="11.5937" x2="99.0025" y2="52.3398" gradientUnits="userSpaceOnUse">
<stop stop-color="#FE0F7C"/>
<stop offset="1" stop-color="#DF0066"/>
</linearGradient>
<linearGradient id="paint2_linear_63_525" x1="72.5869" y1="26.8293" x2="43.3008" y2="84.6082" gradientUnits="userSpaceOnUse">
<stop stop-color="#FE0F7C"/>
<stop offset="1" stop-color="#DF0066"/>
</linearGradient>
<linearGradient id="paint3_linear_63_525" x1="72.5869" y1="26.8293" x2="43.3008" y2="84.6082" gradientUnits="userSpaceOnUse">
<stop stop-color="#FE0F7C"/>
<stop offset="1" stop-color="#DF0066"/>
</linearGradient>
<linearGradient id="paint4_linear_63_525" x1="70.0225" y1="101.771" x2="69.4308" y2="92.7322" gradientUnits="userSpaceOnUse">
<stop stop-color="#FE0F7C"/>
<stop offset="1" stop-color="#DF0066"/>
</linearGradient>
</defs>
</svg>
