<svg width="128" height="128" viewBox="0 0 128 128" fill="none" xmlns="http://www.w3.org/2000/svg">
<path opacity="0.4" d="M11 38C11 22.536 23.536 10 39 10H69C95.5097 10 117 31.4903 117 58V90C117 105.464 104.464 118 89 118H39C23.536 118 11 105.464 11 90V38Z" fill="url(#paint0_linear_59_888)"/>
<path fill-rule="evenodd" clip-rule="evenodd" d="M116.624 52H89C81.268 52 75 45.732 75 38V10.4048C96.7012 13.1109 113.903 30.3034 116.624 52Z" fill="url(#paint1_linear_59_888)"/>
<path d="M38.7002 60.0291C40.6397 58.0896 43.2703 57 46.0132 57C48.7561 57 51.3866 58.0896 53.3261 60.0291C55.2656 61.9687 56.3553 64.5992 56.3553 67.3421C56.3553 70.085 55.2656 72.7156 53.3261 74.6551C51.3866 76.5946 48.7561 77.6842 46.0132 77.6842C43.2703 77.6842 40.6397 76.5946 38.7002 74.6551C36.7607 72.7156 35.671 70.085 35.671 67.3421C35.671 64.5992 36.7607 61.9687 38.7002 60.0291Z" fill="url(#paint2_linear_59_888)"/>
<path d="M35.1581 87.9908C31.9745 90.2131 29.5496 93.3588 28.2109 97.0033C27.9244 97.7842 27.93 98.6423 28.2265 99.4195C28.523 100.197 29.0905 100.84 29.8243 101.232C34.8071 103.886 40.3675 105.271 46.0132 105.263C51.6588 105.271 57.2192 103.886 62.202 101.232C62.9358 100.84 63.5033 100.197 63.7999 99.4195C64.0964 98.6423 64.1019 97.7842 63.8154 97.0033C62.4767 93.3588 60.0518 90.2131 56.8682 87.9908C53.6846 85.7686 49.8956 84.577 46.0132 84.577C42.1307 84.577 38.3417 85.7686 35.1581 87.9908Z" fill="url(#paint3_linear_59_888)"/>
<path d="M72.8781 64.9045C73.5246 64.2579 74.4015 63.8947 75.3158 63.8947H92.5526C93.4669 63.8947 94.3438 64.2579 94.9903 64.9045C95.6368 65.551 96 66.4278 96 67.3421C96 68.2564 95.6368 69.1333 94.9903 69.7798C94.3438 70.4263 93.4669 70.7895 92.5526 70.7895H75.3158C74.4015 70.7895 73.5246 70.4263 72.8781 69.7798C72.2316 69.1333 71.8684 68.2564 71.8684 67.3421C71.8684 66.4278 72.2316 65.551 72.8781 64.9045Z" fill="url(#paint4_linear_59_888)"/>
<path d="M72.8781 78.6939C72.2316 79.3404 71.8684 80.2173 71.8684 81.1316C71.8684 82.0459 72.2316 82.9227 72.8781 83.5692C73.5246 84.2157 74.4015 84.579 75.3158 84.579H92.5526C93.4669 84.579 94.3438 84.2157 94.9903 83.5692C95.6368 82.9227 96 82.0459 96 81.1316C96 80.2173 95.6368 79.3404 94.9903 78.6939C94.3438 78.0474 93.4669 77.6842 92.5526 77.6842H75.3158C74.4015 77.6842 73.5246 78.0474 72.8781 78.6939Z" fill="url(#paint5_linear_59_888)"/>
<path d="M72.8781 92.4834C73.5246 91.8369 74.4015 91.4737 75.3158 91.4737H92.5526C93.4669 91.4737 94.3438 91.8369 94.9903 92.4834C95.6368 93.1299 96 94.0068 96 94.9211C96 95.8354 95.6368 96.7122 94.9903 97.3587C94.3438 98.0052 93.4669 98.3684 92.5526 98.3684H75.3158C74.4015 98.3684 73.5246 98.0052 72.8781 97.3587C72.2316 96.7122 71.8684 95.8354 71.8684 94.9211C71.8684 94.0068 72.2316 93.1299 72.8781 92.4834Z" fill="url(#paint6_linear_59_888)"/>
<defs>
<linearGradient id="paint0_linear_59_888" x1="64" y1="118" x2="64" y2="10" gradientUnits="userSpaceOnUse">
<stop stop-color="#5570FF"/>
<stop offset="1" stop-color="#4DD3FF"/>
</linearGradient>
<linearGradient id="paint1_linear_59_888" x1="95.8122" y1="52" x2="95.8122" y2="10.4048" gradientUnits="userSpaceOnUse">
<stop stop-color="#5558FF"/>
<stop offset="1" stop-color="#00C0FF"/>
</linearGradient>
<linearGradient id="paint2_linear_59_888" x1="62" y1="105.263" x2="62" y2="57" gradientUnits="userSpaceOnUse">
<stop stop-color="#5570FF"/>
<stop offset="1" stop-color="#4DD3FF"/>
</linearGradient>
<linearGradient id="paint3_linear_59_888" x1="62" y1="105.263" x2="62" y2="57" gradientUnits="userSpaceOnUse">
<stop stop-color="#5570FF"/>
<stop offset="1" stop-color="#4DD3FF"/>
</linearGradient>
<linearGradient id="paint4_linear_59_888" x1="62" y1="105.263" x2="62" y2="57" gradientUnits="userSpaceOnUse">
<stop stop-color="#5570FF"/>
<stop offset="1" stop-color="#4DD3FF"/>
</linearGradient>
<linearGradient id="paint5_linear_59_888" x1="62" y1="105.263" x2="62" y2="57" gradientUnits="userSpaceOnUse">
<stop stop-color="#5570FF"/>
<stop offset="1" stop-color="#4DD3FF"/>
</linearGradient>
<linearGradient id="paint6_linear_59_888" x1="62" y1="105.263" x2="62" y2="57" gradientUnits="userSpaceOnUse">
<stop stop-color="#5570FF"/>
<stop offset="1" stop-color="#4DD3FF"/>
</linearGradient>
</defs>
</svg>
