<svg width="128" height="128" viewBox="0 0 128 128" fill="none" xmlns="http://www.w3.org/2000/svg">
<path opacity="0.4" d="M11 38C11 22.536 23.536 10 39 10H69C95.5097 10 117 31.4903 117 58V90C117 105.464 104.464 118 89 118H39C23.536 118 11 105.464 11 90V38Z" fill="url(#paint0_linear_59_519)"/>
<path fill-rule="evenodd" clip-rule="evenodd" d="M116.624 52H89C81.268 52 75 45.732 75 38V10.4048C96.7012 13.1109 113.903 30.3034 116.624 52Z" fill="url(#paint1_linear_59_519)"/>
<path fill-rule="evenodd" clip-rule="evenodd" d="M52.4347 31.1095C53.4446 30.7591 54.6772 31.2812 55.056 32.2308C56.753 37.0314 53.9905 42.7532 49.0298 44.6772C47.3256 45.2483 45.729 46.2611 44.8747 47.8028C43.3823 50.2273 43.9244 53.5702 46.1333 55.4487C46.3175 55.6214 46.5289 55.7775 46.741 55.9342L46.7411 55.9343C47.2518 56.3115 47.7673 56.6922 47.9196 57.3162C48.4358 58.7495 46.8022 60.2632 45.2834 59.804C43.62 59.0365 42.3129 57.684 41.3439 56.2158C38.4849 51.92 39.6767 45.7491 43.9878 42.7077C44.7245 42.0892 45.6184 41.7159 46.5103 41.3435C47.5283 40.9185 48.5436 40.4946 49.3193 39.7084C50.9644 38.1913 51.6511 35.8681 51.1051 33.7655C50.7339 32.7178 51.2501 31.4178 52.4347 31.1095ZM53.2703 44.9157L53.3773 44.8927C54.2843 44.697 55.323 44.473 56.1586 44.9752C57.3989 45.7495 57.3508 47.8032 55.9996 48.4512C55.66 48.5839 55.298 48.6454 54.9365 48.7069L54.9364 48.7069L54.9364 48.7069L54.9364 48.7069L54.9364 48.7069L54.9364 48.7069L54.9364 48.7069L54.9363 48.7069C54.4949 48.782 54.0542 48.8569 53.6563 49.0609C52.4679 49.555 51.9968 50.9288 52.1558 52.0675C52.2343 52.8459 52.7697 53.4196 53.2957 53.9833C53.4682 54.1681 53.6397 54.3518 53.7937 54.5413C55.9362 57.2991 55.375 61.6055 52.5126 63.7221C51.2871 64.4964 49.4643 63.6167 49.3453 62.2467C49.2143 61.5029 49.6385 60.9458 50.0656 60.3849C50.4494 59.8808 50.8355 59.3736 50.8232 58.7252C50.9946 57.5859 50.292 56.7995 49.5797 56.0023L49.5797 56.0023L49.5796 56.0023C49.0585 55.419 48.5322 54.83 48.3393 54.0927C46.7388 50.4309 49.1965 45.8584 53.2703 44.9157ZM61.3974 57.4008C63.2211 56.8787 65.2633 57.457 66.834 58.3996C70.7955 60.8628 71.3785 66.8232 68.0662 69.9943C66.871 71.1508 65.2336 71.9217 63.5179 72.0514C61.9991 72.076 60.911 70.4148 61.5947 69.1426C61.9245 68.412 62.645 68.1772 63.3745 67.9394C63.9675 67.7462 64.5665 67.5509 64.9661 67.0859C66.5142 65.6211 66.2362 62.8284 64.2828 61.7986C63.7943 61.4492 63.1956 61.3639 62.6006 61.2792C61.9301 61.1838 61.2644 61.089 60.7664 60.6174C59.7456 59.7062 60.087 57.8983 61.3974 57.4008ZM34.7977 63.4803C36.0975 62.4045 37.7754 61.8475 39.3945 61.3568C40.3823 61.0907 41.4478 61.9525 41.3696 62.902C41.4208 63.7467 40.6142 64.1943 39.9352 64.5711C39.8762 64.6038 39.8183 64.636 39.7619 64.6678C42.7808 65.4213 45.9366 65.5021 49.0337 65.264C52.3566 64.9838 55.6838 64.3634 58.732 63.053C60.258 62.2923 62.2335 63.8098 61.7024 65.3762C61.3727 66.4724 60.2323 66.8685 59.1733 67.2363C58.9087 67.3282 58.6493 67.4183 58.4088 67.5171C52.6687 69.3531 46.4162 69.9067 40.4307 68.936C38.4255 68.5329 36.2642 68.0039 34.7977 66.557C33.9363 65.73 33.8286 64.272 34.7977 63.4803ZM38.8408 72.8847C40.6491 71.7597 42.8402 71.3536 44.9415 71.0066C46.3489 70.6805 47.3774 72.4362 46.5126 73.4524C46.1073 73.8161 45.5725 73.9766 45.0412 74.1361C44.7738 74.2163 44.5072 74.2963 44.2586 74.4018C47.8452 75.0222 51.5622 74.6157 55.0229 73.5889C57.2543 73.2317 58.2123 76.5818 56.1662 77.4016C52.0967 78.7609 47.6262 79.0411 43.3785 78.3578C41.5068 77.976 39.4352 77.4683 38.1877 75.9929C37.3296 75.0154 37.7272 73.5153 38.8408 72.8847ZM27.1526 79.0412C29.1687 77.9408 31.4782 77.1665 33.8175 77.135L33.9697 77.6223C33.7268 77.7903 33.4684 77.9414 33.2099 78.0925C32.595 78.452 31.98 78.8115 31.5748 79.3988C37.6049 80.9546 43.9207 81.0736 50.1324 80.9299C50.7985 80.9149 51.4669 80.9095 52.1362 80.9041H52.1364H52.1366H52.1369C54.9074 80.8816 57.6915 80.859 60.3766 80.159C61.1855 79.9943 61.9732 79.7571 62.7608 79.5199L62.7608 79.5199C63.3801 79.3334 63.9992 79.1469 64.6286 78.9957C65.7906 78.8592 66.4327 80.5341 65.3637 81.0736C60.44 84.3778 54.1688 84.823 48.3206 84.988C42.5099 85.0649 36.621 84.7988 30.9733 83.4177C30.8623 83.3856 30.7505 83.3536 30.6382 83.3215L30.6361 83.3209L30.6351 83.3206L30.635 83.3206C29.068 82.872 27.3924 82.3924 26.2948 81.1965C25.5485 80.3976 26.3617 79.4409 27.1526 79.0412ZM30 103C28.9391 103 27.9217 102.579 27.1716 101.828C26.4214 101.078 26 100.061 26 99C26 97.9391 26.4214 96.9217 27.1716 96.1716C27.9217 95.4214 28.9391 95 30 95H70.6667C71.7275 95 72.7449 95.4214 73.4951 96.1716C74.2452 96.9217 74.6667 97.9391 74.6667 99C74.6667 100.061 74.2452 101.078 73.4951 101.828C72.7449 102.579 71.7275 103 70.6667 103H30Z" fill="url(#paint2_linear_59_519)"/>
<path d="M55.056 32.2308L55.5275 32.0641L55.5241 32.0548L55.5205 32.0455L55.056 32.2308ZM52.4347 31.1095L52.5607 31.5933L52.5799 31.5883L52.5986 31.5818L52.4347 31.1095ZM49.0298 44.6772L49.1886 45.1513L49.1997 45.1476L49.2106 45.1434L49.0298 44.6772ZM44.8747 47.8028L45.3005 48.0649L45.3065 48.0552L45.3121 48.0452L44.8747 47.8028ZM46.1333 55.4487L46.4753 55.084L46.4665 55.0757L46.4572 55.0678L46.1333 55.4487ZM46.741 55.9342L46.444 56.3364L46.4537 56.3436L46.4637 56.3503L46.741 55.9342ZM46.7411 55.9343L47.0381 55.5321L47.0284 55.5249L47.0184 55.5182L46.7411 55.9343ZM47.9196 57.3162L47.4338 57.4347L47.4401 57.4606L47.4491 57.4856L47.9196 57.3162ZM45.2834 59.804L45.0739 60.258L45.1054 60.2725L45.1386 60.2826L45.2834 59.804ZM41.3439 56.2158L41.7612 55.9403L41.7602 55.9387L41.3439 56.2158ZM43.9878 42.7077L44.276 43.1163L44.2932 43.1042L44.3093 43.0906L43.9878 42.7077ZM46.5103 41.3435L46.703 41.8049L46.703 41.8049L46.5103 41.3435ZM49.3193 39.7084L48.9803 39.3408L48.9717 39.3488L48.9634 39.3572L49.3193 39.7084ZM51.1051 33.7655L51.5891 33.6399L51.5837 33.6189L51.5764 33.5986L51.1051 33.7655ZM53.3773 44.8927L53.4825 45.3815L53.4827 45.3814L53.3773 44.8927ZM53.2703 44.9157L53.165 44.4269L53.1575 44.4286L53.2703 44.9157ZM56.1586 44.9752L56.4234 44.5511L56.4162 44.5467L56.1586 44.9752ZM55.9996 48.4512L56.1815 48.9169L56.1989 48.9101L56.2158 48.9021L55.9996 48.4512ZM54.9365 48.7069L54.8527 48.2139L54.8148 48.2204L54.7783 48.2325L54.9365 48.7069ZM54.9363 48.7069L55.0201 49.1998L55.058 49.1934L55.0945 49.1812L54.9363 48.7069ZM53.6563 49.0609L53.8483 49.5226L53.8667 49.515L53.8845 49.5058L53.6563 49.0609ZM52.1558 52.0675L52.6533 52.0174L52.6523 52.0078L52.651 51.9983L52.1558 52.0675ZM53.2957 53.9833L52.9302 54.3244L52.9302 54.3244L53.2957 53.9833ZM53.7937 54.5413L54.1886 54.2345L54.1817 54.2259L53.7937 54.5413ZM52.5126 63.7221L52.7796 64.1448L52.7951 64.135L52.8098 64.1241L52.5126 63.7221ZM49.3453 62.2467L49.8434 62.2034L49.8415 62.1815L49.8377 62.1599L49.3453 62.2467ZM50.0656 60.3849L49.6678 60.082L49.6678 60.082L50.0656 60.3849ZM50.8232 58.7252L50.3288 58.6508L50.3225 58.6925L50.3233 58.7347L50.8232 58.7252ZM49.5797 56.0023L49.9525 55.6692L49.9432 55.6587L49.9332 55.6488L49.5797 56.0023ZM49.5796 56.0023L49.2068 56.3354L49.2162 56.3459L49.2261 56.3558L49.5796 56.0023ZM48.3393 54.0927L48.823 53.9661L48.8131 53.9283L48.7974 53.8925L48.3393 54.0927ZM66.834 58.3996L67.098 57.9749L67.0913 57.9709L66.834 58.3996ZM61.3974 57.4008L61.2598 56.9201L61.2396 56.9259L61.22 56.9334L61.3974 57.4008ZM68.0662 69.9943L67.7204 69.6331L67.7185 69.6349L68.0662 69.9943ZM63.5179 72.0514L63.526 72.5513L63.5408 72.5511L63.5556 72.5499L63.5179 72.0514ZM61.5947 69.1426L62.0352 69.3793L62.0433 69.3641L62.0505 69.3483L61.5947 69.1426ZM63.3745 67.9394L63.5294 68.4148L63.5294 68.4148L63.3745 67.9394ZM64.9661 67.0859L64.6225 66.7227L64.6037 66.7405L64.5869 66.76L64.9661 67.0859ZM64.2828 61.7986L63.9919 62.2053L64.0196 62.2251L64.0496 62.2409L64.2828 61.7986ZM62.6006 61.2792L62.5301 61.7742L62.5301 61.7742L62.6006 61.2792ZM60.7664 60.6174L61.1103 60.2544L61.1049 60.2493L61.0994 60.2444L60.7664 60.6174ZM39.3945 61.3568L39.2644 60.8741L39.2569 60.8761L39.2495 60.8783L39.3945 61.3568ZM34.7977 63.4803L35.1141 63.8675L35.1165 63.8655L34.7977 63.4803ZM41.3696 62.902L40.8712 62.8609L40.8683 62.8966L40.8705 62.9323L41.3696 62.902ZM39.9352 64.5711L39.6926 64.1339L39.6926 64.1339L39.9352 64.5711ZM39.7619 64.6678L39.5159 64.2325L38.4243 64.8494L39.6408 65.153L39.7619 64.6678ZM49.0337 65.264L49.072 65.7625L49.0757 65.7622L49.0337 65.264ZM58.732 63.053L58.9295 63.5123L58.9424 63.5067L58.955 63.5004L58.732 63.053ZM61.7024 65.3762L61.2289 65.2157L61.2261 65.2239L61.2236 65.2322L61.7024 65.3762ZM59.1733 67.2363L59.3373 67.7086L59.3373 67.7086L59.1733 67.2363ZM58.4088 67.5171L58.5612 67.9933L58.5803 67.9872L58.5989 67.9796L58.4088 67.5171ZM40.4307 68.936L40.3322 69.4262L40.3414 69.428L40.3507 69.4295L40.4307 68.936ZM34.7977 66.557L35.1489 66.201L35.144 66.1963L34.7977 66.557ZM44.9415 71.0066L45.0229 71.5L45.0388 71.4974L45.0544 71.4937L44.9415 71.0066ZM38.8408 72.8847L39.0872 73.3198L39.0961 73.3147L39.1049 73.3093L38.8408 72.8847ZM46.5126 73.4524L46.8465 73.8245L46.8716 73.802L46.8934 73.7764L46.5126 73.4524ZM45.0412 74.1361L45.185 74.6149L45.185 74.6149L45.0412 74.1361ZM44.2586 74.4018L44.0633 73.9416L42.5 74.6051L44.1734 74.8945L44.2586 74.4018ZM55.0229 73.5889L54.9439 73.0951L54.9118 73.1003L54.8806 73.1095L55.0229 73.5889ZM56.1662 77.4016L56.3246 77.8758L56.3386 77.8712L56.3522 77.8657L56.1662 77.4016ZM43.3785 78.3578L43.2785 78.8478L43.2888 78.8498L43.2991 78.8515L43.3785 78.3578ZM38.1877 75.9929L38.5696 75.67L38.5635 75.6631L38.1877 75.9929ZM33.8175 77.135L34.2947 76.986L34.1836 76.6301L33.8107 76.6351L33.8175 77.135ZM27.1526 79.0412L27.3781 79.4874L27.3852 79.4839L27.3921 79.4801L27.1526 79.0412ZM33.9697 77.6223L34.2542 78.0335L34.5566 77.8243L34.4469 77.4732L33.9697 77.6223ZM33.2099 78.0925L32.9575 77.6609L32.9575 77.6609L33.2099 78.0925ZM31.5748 79.3988L31.1633 79.1149L30.7568 79.7041L31.4499 79.8829L31.5748 79.3988ZM50.1324 80.9299L50.1212 80.43L50.1208 80.43L50.1324 80.9299ZM52.1362 80.9041V80.4041L52.1321 80.4041L52.1362 80.9041ZM52.1369 80.9041V81.4041L52.1409 81.4041L52.1369 80.9041ZM60.3766 80.159L60.2768 79.6691L60.2636 79.6718L60.2505 79.6752L60.3766 80.159ZM62.7608 79.5199L62.905 79.9986L62.9261 79.9923L62.9465 79.9841L62.7608 79.5199ZM62.7608 79.5199L62.6167 79.0411L62.5956 79.0474L62.5752 79.0556L62.7608 79.5199ZM64.6286 78.9957L64.5703 78.4991L64.5407 78.5026L64.5118 78.5095L64.6286 78.9957ZM65.3637 81.0736L65.1384 80.6273L65.1108 80.6412L65.0851 80.6584L65.3637 81.0736ZM48.3206 84.988L48.3273 85.488L48.3347 85.4878L48.3206 84.988ZM30.9733 83.4177L30.8344 83.898L30.8444 83.9009L30.8545 83.9034L30.9733 83.4177ZM30.6382 83.3215L30.4998 83.802L30.5006 83.8022L30.6382 83.3215ZM30.6361 83.3209L30.4973 83.8012L30.4978 83.8014L30.6361 83.3209ZM30.6351 83.3206L30.4642 83.7905L30.48 83.7962L30.4962 83.8009L30.6351 83.3206ZM30.635 83.3206L30.8059 82.8507L30.7895 82.8447L30.7726 82.8399L30.635 83.3206ZM26.2948 81.1965L26.6632 80.8584L26.6602 80.8552L26.2948 81.1965ZM27.1716 101.828L27.5251 101.475L27.1716 101.828ZM27.1716 96.1716L27.5251 96.5251L27.1716 96.1716ZM55.5205 32.0455C55.034 30.8261 53.5106 30.2069 52.2708 30.6371L52.5986 31.5818C53.3785 31.3112 54.3204 31.7362 54.5916 32.4161L55.5205 32.0455ZM49.2106 45.1434C54.4057 43.1285 57.3206 37.1369 55.5275 32.0641L54.5846 32.3974C56.1854 36.9258 53.5753 42.378 48.849 44.2111L49.2106 45.1434ZM45.3121 48.0452C46.0836 46.6528 47.551 45.7001 49.1886 45.1513L48.8709 44.2031C47.1002 44.7965 45.3744 45.8694 44.4374 47.5605L45.3121 48.0452ZM46.4572 55.0678C44.4327 53.3461 43.9399 50.2754 45.3005 48.0649L44.4489 47.5407C42.8247 50.1793 43.4161 53.7943 45.8094 55.8296L46.4572 55.0678ZM47.0381 55.5321C46.8212 55.3719 46.6344 55.2331 46.4753 55.084L45.7913 55.8134C46.0007 56.0097 46.2365 56.1832 46.444 56.3364L47.0381 55.5321ZM47.0184 55.5182L47.0184 55.5182L46.4637 56.3503L46.4637 56.3503L47.0184 55.5182ZM48.4053 57.1976C48.2028 56.3678 47.5167 55.8856 47.0381 55.5321L46.444 56.3364C46.9869 56.7374 47.3318 57.0166 47.4338 57.4347L48.4053 57.1976ZM45.1386 60.2826C46.0984 60.5728 47.0666 60.2342 47.7065 59.6346C48.3464 59.0349 48.7323 58.0973 48.39 57.1467L47.4491 57.4856C47.623 57.9684 47.4502 58.5042 47.0227 58.9049C46.5951 59.3057 45.9871 59.4944 45.4281 59.3254L45.1386 60.2826ZM40.9266 56.4912C41.9282 58.0087 43.2996 59.4393 45.0739 60.258L45.4928 59.35C43.9404 58.6337 42.6977 57.3593 41.7612 55.9403L40.9266 56.4912ZM43.6995 42.2992C39.1732 45.4925 37.9145 51.9655 40.9277 56.4928L41.7602 55.9387C39.0553 51.8746 40.1802 46.0058 44.276 43.1163L43.6995 42.2992ZM46.3177 40.8821C45.4386 41.2492 44.4713 41.6489 43.6663 42.3248L44.3093 43.0906C44.9777 42.5295 45.7983 42.1827 46.703 41.8049L46.3177 40.8821ZM48.9634 39.3572C48.27 40.0599 47.3526 40.45 46.3177 40.8821L46.703 41.8049C47.704 41.387 48.8171 40.9292 49.6752 40.0596L48.9634 39.3572ZM50.6212 33.8912C51.1198 35.8116 50.4925 37.9463 48.9803 39.3408L49.6583 40.076C51.4363 38.4363 52.1823 35.9245 51.5891 33.6399L50.6212 33.8912ZM52.3088 30.6256C50.7928 31.0202 50.1821 32.6573 50.6338 33.9325L51.5764 33.5986C51.2858 32.7783 51.7074 31.8154 52.5607 31.5933L52.3088 30.6256ZM53.272 44.4039L53.165 44.4269L53.3755 45.4045L53.4825 45.3815L53.272 44.4039ZM56.4162 44.5467C55.8872 44.2287 55.3118 44.1527 54.7762 44.1726C54.2473 44.1922 53.7175 44.3078 53.2718 44.4039L53.4827 45.3814C53.9441 45.2819 54.3872 45.1877 54.8132 45.1719C55.2326 45.1564 55.5944 45.2195 55.901 45.4038L56.4162 44.5467ZM56.2158 48.9021C57.0898 48.4829 57.5191 47.619 57.5506 46.7793C57.5819 45.9426 57.222 45.0497 56.4234 44.5511L55.8938 45.3994C56.3355 45.6751 56.5717 46.1962 56.5513 46.7419C56.531 47.2846 56.2607 47.7715 55.7834 48.0004L56.2158 48.9021ZM55.0202 49.1998C55.3728 49.1399 55.7862 49.0714 56.1815 48.9169L55.8176 47.9855C55.5338 48.0964 55.2231 48.151 54.8527 48.2139L55.0202 49.1998ZM55.0946 49.1812L55.0946 49.1812L54.7783 48.2325L54.7783 48.2325L55.0946 49.1812ZM55.0945 49.1812L55.0946 49.1812L54.7783 48.2325L54.7783 48.2325L55.0945 49.1812ZM55.0945 49.1812L55.0945 49.1812L54.7783 48.2325L54.7783 48.2325L55.0945 49.1812ZM55.0945 49.1812L55.0945 49.1812L54.7783 48.2325L54.7783 48.2325L55.0945 49.1812ZM55.0945 49.1812L55.0945 49.1812L54.7783 48.2325L54.7783 48.2326L55.0945 49.1812ZM55.0945 49.1812L55.0945 49.1812L54.7783 48.2326L54.7782 48.2326L55.0945 49.1812ZM55.0945 49.1812L55.0945 49.1812L54.7782 48.2326L54.7782 48.2326L55.0945 49.1812ZM53.8845 49.5058C54.2024 49.3428 54.5652 49.2772 55.0201 49.1998L54.8525 48.214C54.4245 48.2867 53.906 48.371 53.4281 48.6161L53.8845 49.5058ZM52.651 51.9983C52.5116 51 52.9399 49.9003 53.8483 49.5226L53.4644 48.5993C51.9959 49.2098 51.482 50.8577 51.6606 52.1367L52.651 51.9983ZM53.6613 53.6421C53.1105 53.052 52.712 52.5996 52.6533 52.0174L51.6583 52.1176C51.7566 53.0923 52.4289 53.7873 52.9302 54.3244L53.6613 53.6421ZM54.1817 54.2259C54.015 54.0208 53.8315 53.8245 53.6612 53.6421L52.9302 54.3244C53.1049 54.5116 53.2643 54.6827 53.4057 54.8566L54.1817 54.2259ZM52.8098 64.1241C55.8988 61.84 56.5027 57.2133 54.1885 54.2345L53.3988 54.8481C55.3697 57.3849 54.8511 61.371 52.2153 63.3201L52.8098 64.1241ZM48.8471 62.29C48.9257 63.1943 49.5583 63.8903 50.3006 64.2407C51.0455 64.5922 51.9936 64.6415 52.7796 64.1448L52.2455 63.2994C51.8061 63.577 51.2301 63.5736 50.7274 63.3363C50.2222 63.0979 49.8839 62.669 49.8434 62.2034L48.8471 62.29ZM49.6678 60.082C49.2662 60.6094 48.6781 61.3412 48.8529 62.3334L49.8377 62.1599C49.7505 61.6647 50.0108 61.2822 50.4634 60.6877L49.6678 60.082ZM50.3233 58.7347C50.3318 59.1804 50.0732 59.5494 49.6678 60.082L50.4634 60.6877C50.8255 60.2121 51.3393 59.5669 51.3232 58.7158L50.3233 58.7347ZM49.2068 56.3355C49.9497 57.1669 50.46 57.7789 50.3288 58.6508L51.3177 58.7996C51.5293 57.3929 50.6343 56.4321 49.9525 55.6692L49.2068 56.3355ZM49.2261 56.3558L49.2261 56.3559L49.9332 55.6488L49.9332 55.6487L49.2261 56.3558ZM49.2261 56.3558L49.2261 56.3558L49.9332 55.6487L49.9332 55.6487L49.2261 56.3558ZM47.8555 54.2193C48.0844 55.0938 48.7031 55.7717 49.2068 56.3354L49.9525 55.6691C49.4139 55.0663 48.98 54.5662 48.823 53.9661L47.8555 54.2193ZM53.1575 44.4286C48.807 45.4353 46.144 50.3185 47.8811 54.293L48.7974 53.8925C47.3336 50.5433 49.5859 46.2815 53.383 45.4028L53.1575 44.4286ZM67.0913 57.9709C65.454 56.9883 63.2656 56.3458 61.2598 56.9201L61.5351 57.8815C63.1766 57.4115 65.0726 57.9256 66.5767 58.8283L67.0913 57.9709ZM68.412 70.3554C71.9596 66.959 71.3374 60.6109 67.098 57.975L66.57 58.8242C70.2536 61.1146 70.7974 66.6873 67.7204 69.6331L68.412 70.3554ZM63.5556 72.5499C65.3923 72.4111 67.1382 71.588 68.4139 70.3536L67.7185 69.6349C66.6038 70.7136 65.0748 71.4322 63.4802 71.5528L63.5556 72.5499ZM61.1543 68.9059C60.71 69.7325 60.8546 70.663 61.3129 71.3584C61.7713 72.0542 62.5749 72.5667 63.526 72.5513L63.5098 71.5514C62.9421 71.5606 62.4422 71.2549 62.1479 70.8082C61.8533 70.3611 61.7957 69.8248 62.0352 69.3793L61.1543 68.9059ZM63.2196 67.464C62.5343 67.6874 61.5741 67.973 61.139 68.9369L62.0505 69.3483C62.2749 68.851 62.7558 68.667 63.5294 68.4148L63.2196 67.464ZM64.5869 66.76C64.2944 67.1004 63.8419 67.2612 63.2196 67.464L63.5294 68.4148C64.0932 68.2311 64.8385 68.0015 65.3453 67.4118L64.5869 66.76ZM64.0496 62.2409C65.682 63.1015 65.9367 65.4792 64.6225 66.7227L65.3097 67.4491C67.0918 65.763 66.7903 62.5554 64.516 61.3563L64.0496 62.2409ZM62.5301 61.7742C63.149 61.8624 63.6197 61.939 63.9919 62.2053L64.5737 61.3919C63.9689 60.9593 63.2422 60.8655 62.6711 60.7842L62.5301 61.7742ZM60.4226 60.9805C61.0553 61.5796 61.891 61.6832 62.5301 61.7742L62.6711 60.7842C61.9692 60.6843 61.4734 60.5983 61.1103 60.2544L60.4226 60.9805ZM61.22 56.9334C59.5687 57.5602 59.1249 59.8224 60.4335 60.9905L61.0994 60.2444C60.3662 59.59 60.6052 58.2364 61.5749 57.8683L61.22 56.9334ZM39.2495 60.8783C37.6376 61.3668 35.8661 61.947 34.4789 63.0951L35.1165 63.8655C36.3288 62.8621 37.9132 62.3282 39.5395 61.8354L39.2495 60.8783ZM41.8679 62.9431C41.9238 62.2648 41.5715 61.661 41.0921 61.2815C40.6104 60.9002 39.9369 60.6928 39.2644 60.8741L39.5246 61.8396C39.8399 61.7547 40.193 61.8452 40.4714 62.0656C40.7522 62.2879 40.8936 62.5897 40.8712 62.8609L41.8679 62.9431ZM40.1778 65.0083C40.5049 64.8268 40.9353 64.5912 41.2696 64.2755C41.6195 63.945 41.906 63.487 41.8686 62.8717L40.8705 62.9323C40.8844 63.1617 40.7932 63.3499 40.5829 63.5485C40.3569 63.762 40.0445 63.9386 39.6926 64.1339L40.1778 65.0083ZM40.0079 65.1032C40.0623 65.0724 40.1185 65.0412 40.1778 65.0083L39.6926 64.1339C39.6339 64.1665 39.5743 64.1996 39.5159 64.2325L40.0079 65.1032ZM48.9954 64.7654C45.9301 65.0011 42.8322 64.9188 39.883 64.1827L39.6408 65.153C42.7294 65.9238 45.9431 66.0031 49.072 65.7625L48.9954 64.7654ZM58.5345 62.5936C55.5531 63.8753 52.2839 64.4881 48.9917 64.7657L49.0757 65.7622C52.4293 65.4794 55.8144 64.8515 58.9295 63.5123L58.5345 62.5936ZM62.1759 65.5368C62.5283 64.4974 62.0315 63.5187 61.2953 62.947C60.5593 62.3755 59.4794 62.1217 58.5089 62.6055L58.955 63.5004C59.5106 63.2235 60.1814 63.3482 60.6819 63.7368C61.1822 64.1253 61.4076 64.6886 61.2289 65.2157L62.1759 65.5368ZM59.3373 67.7086C59.8555 67.5286 60.4597 67.3211 60.9732 67.0053C61.5002 66.6813 61.9705 66.2208 62.1812 65.5202L61.2236 65.2322C61.1046 65.6277 60.8399 65.9134 60.4495 66.1534C60.0456 66.4017 59.5501 66.5761 59.0092 66.764L59.3373 67.7086ZM58.5989 67.9796C58.8242 67.887 59.07 67.8015 59.3373 67.7086L59.0092 66.764C58.7475 66.8549 58.4745 66.9495 58.2188 67.0546L58.5989 67.9796ZM40.3507 69.4295C46.4185 70.4136 52.7505 69.8519 58.5612 67.9933L58.2565 67.0409C52.5869 68.8543 46.414 69.3998 40.5108 68.4424L40.3507 69.4295ZM34.4466 66.9129C36.033 68.4782 38.3406 69.0258 40.3322 69.4262L40.5293 68.4458C38.5104 68.0399 36.4955 67.5297 35.1489 66.2011L34.4466 66.9129ZM34.4814 63.0931C33.2318 64.114 33.4211 65.9285 34.4515 66.9177L35.144 66.1963C34.4515 65.5315 34.4255 64.43 35.1141 63.8675L34.4814 63.0931ZM44.86 70.5133C42.7691 70.8586 40.4813 71.2752 38.5767 72.4602L39.1049 73.3093C40.817 72.2441 42.9113 71.8486 45.0229 71.5L44.86 70.5133ZM46.8934 73.7764C47.4996 73.0641 47.4141 72.1253 47.0043 71.463C46.59 70.7935 45.7815 70.2987 44.8286 70.5196L45.0544 71.4937C45.5088 71.3884 45.9183 71.6084 46.1539 71.9892C46.3941 72.3773 46.3904 72.8245 46.1318 73.1283L46.8934 73.7764ZM45.185 74.6149C45.6941 74.4621 46.3436 74.2758 46.8465 73.8245L46.1786 73.0803C45.871 73.3563 45.4509 73.4911 44.8975 73.6572L45.185 74.6149ZM44.454 74.8621C44.6729 74.7692 44.9125 74.6967 45.185 74.6149L44.8975 73.6572C44.6351 73.7359 44.3416 73.8235 44.0633 73.9416L44.454 74.8621ZM54.8806 73.1095C51.4762 74.1197 47.8383 74.5136 44.3438 73.9091L44.1734 74.8945C47.852 75.5308 51.6483 75.1117 55.1651 74.0682L54.8806 73.1095ZM56.3522 77.8657C57.6819 77.3329 57.9911 75.979 57.6784 74.9131C57.3648 73.8443 56.3723 72.8665 54.9439 73.0951L55.1019 74.0826C55.9049 73.9541 56.5071 74.4728 56.7188 75.1946C56.9315 75.9195 56.6966 76.6505 55.9803 76.9375L56.3522 77.8657ZM43.2991 78.8515C47.6196 79.5465 52.1722 79.2629 56.3246 77.8758L56.0078 76.9273C52.0211 78.259 47.6328 78.5358 43.4579 77.8642L43.2991 78.8515ZM37.8059 76.3157C39.1813 77.9425 41.4308 78.4708 43.2785 78.8478L43.4784 77.8679C41.5827 77.4812 39.6891 76.9942 38.5695 75.6701L37.8059 76.3157ZM38.5944 72.4496C37.2581 73.2063 36.7062 75.063 37.8119 76.3228L38.5635 75.6631C37.9531 74.9677 38.1963 73.8243 39.0872 73.3198L38.5944 72.4496ZM33.8107 76.6351C31.3685 76.6679 28.979 77.4747 26.913 78.6023L27.3921 79.4801C29.3585 78.4068 31.5879 77.6651 33.8242 77.635L33.8107 76.6351ZM34.4469 77.4732L34.2947 76.986L33.3402 77.2841L33.4924 77.7714L34.4469 77.4732ZM33.4622 78.5242C33.7178 78.3748 33.993 78.2142 34.2542 78.0335L33.6852 77.2111C33.4607 77.3664 33.219 77.508 32.9575 77.6609L33.4622 78.5242ZM31.9864 79.6827C32.3178 79.2023 32.8293 78.8942 33.4622 78.5242L32.9575 77.6609C32.3607 78.0097 31.6422 78.4206 31.1633 79.1149L31.9864 79.6827ZM50.1208 80.43C43.9169 80.5736 37.6592 80.4522 31.6997 78.9146L31.4499 79.8829C37.5505 81.4569 43.9245 81.5737 50.144 81.4298L50.1208 80.43ZM52.1321 80.4041C51.4635 80.4095 50.7914 80.415 50.1212 80.43L50.1436 81.4298C50.8055 81.4149 51.4704 81.4095 52.1402 81.4041L52.1321 80.4041ZM52.1364 80.4041H52.1362V81.4041H52.1364V80.4041ZM52.1366 80.4041H52.1364V81.4041H52.1366V80.4041ZM52.1369 80.4041H52.1366V81.4041H52.1369V80.4041ZM60.2505 79.6752C57.6355 80.3569 54.9142 80.3815 52.1328 80.4041L52.1409 81.4041C54.9006 81.3817 57.7476 81.3611 60.5028 80.6429L60.2505 79.6752ZM62.6166 79.0411C61.8254 79.2794 61.0595 79.5097 60.2768 79.6691L60.4764 80.649C61.3115 80.4789 62.121 80.2347 62.905 79.9986L62.6166 79.0411ZM62.5752 79.0556L62.5751 79.0556L62.9465 79.9841L62.9465 79.9841L62.5752 79.0556ZM64.5118 78.5095C63.8663 78.6646 63.2336 78.8553 62.6167 79.0411L62.905 79.9986C63.5265 79.8115 64.1321 79.6292 64.7454 79.4819L64.5118 78.5095ZM65.5891 81.52C66.4062 81.1075 66.5383 80.2522 66.3022 79.6089C66.0699 78.9759 65.433 78.3978 64.5703 78.4991L64.6869 79.4923C64.9862 79.4571 65.2514 79.6482 65.3634 79.9534C65.4716 80.2483 65.3902 80.5002 65.1384 80.6273L65.5891 81.52ZM48.3347 85.4878C54.1723 85.3231 60.584 84.8833 65.6424 81.4888L65.0851 80.6584C60.296 83.8723 54.1653 84.3229 48.3065 84.4882L48.3347 85.4878ZM30.8545 83.9034C36.5626 85.2992 42.5006 85.5651 48.3273 85.4879L48.314 84.488C42.5193 84.5648 36.6793 84.2983 31.0921 82.932L30.8545 83.9034ZM30.5006 83.8022C30.613 83.8343 30.7242 83.8662 30.8344 83.898L31.1122 82.9374C31.0005 82.9051 30.888 82.8729 30.7757 82.8408L30.5006 83.8022ZM30.4978 83.8014L30.4998 83.802L30.7765 82.841L30.7745 82.8404L30.4978 83.8014ZM30.4962 83.8009L30.4973 83.8012L30.775 82.8406L30.774 82.8403L30.4962 83.8009ZM30.4642 83.7905L30.4642 83.7905L30.806 82.8507L30.8059 82.8507L30.4642 83.7905ZM25.9265 81.5346C27.1366 82.8531 28.9629 83.362 30.4974 83.8013L30.7726 82.8399C29.1732 82.382 27.6482 81.9316 26.6632 80.8584L25.9265 81.5346ZM26.9271 78.5949C26.4664 78.8277 25.9764 79.2304 25.7068 79.7326C25.5688 79.9896 25.4787 80.292 25.5043 80.618C25.5305 80.9508 25.6739 81.2643 25.9294 81.5378L26.6602 80.8552C26.5426 80.7293 26.5078 80.6235 26.5013 80.5398C26.4941 80.4492 26.5169 80.3377 26.5878 80.2057C26.7359 79.9298 27.0479 79.6543 27.3781 79.4874L26.9271 78.5949ZM26.818 102.182C27.6619 103.026 28.8065 103.5 30 103.5V102.5C29.0717 102.5 28.1815 102.131 27.5251 101.475L26.818 102.182ZM25.5 99C25.5 100.193 25.9741 101.338 26.818 102.182L27.5251 101.475C26.8687 100.818 26.5 99.9283 26.5 99H25.5ZM26.818 95.818C25.9741 96.6619 25.5 97.8065 25.5 99H26.5C26.5 98.0717 26.8687 97.1815 27.5251 96.5251L26.818 95.818ZM30 94.5C28.8065 94.5 27.6619 94.9741 26.818 95.818L27.5251 96.5251C28.1815 95.8687 29.0717 95.5 30 95.5V94.5ZM70.6667 94.5H30V95.5H70.6667V94.5ZM73.8486 95.818C73.0047 94.9741 71.8601 94.5 70.6667 94.5V95.5C71.5949 95.5 72.4852 95.8687 73.1415 96.5251L73.8486 95.818ZM75.1667 99C75.1667 97.8065 74.6926 96.6619 73.8486 95.818L73.1415 96.5251C73.7979 97.1815 74.1667 98.0717 74.1667 99H75.1667ZM73.8486 102.182C74.6926 101.338 75.1667 100.193 75.1667 99H74.1667C74.1667 99.9283 73.7979 100.818 73.1415 101.475L73.8486 102.182ZM70.6667 103.5C71.8601 103.5 73.0047 103.026 73.8486 102.182L73.1415 101.475C72.4852 102.131 71.5949 102.5 70.6667 102.5V103.5ZM30 103.5H70.6667V102.5H30V103.5Z" fill="url(#paint3_linear_59_519)"/>
<defs>
<linearGradient id="paint0_linear_59_519" x1="64" y1="118" x2="64" y2="10" gradientUnits="userSpaceOnUse">
<stop stop-color="#FDA700"/>
<stop offset="1" stop-color="#FFDE00"/>
</linearGradient>
<linearGradient id="paint1_linear_59_519" x1="95" y1="-3" x2="96" y2="112" gradientUnits="userSpaceOnUse">
<stop stop-color="#FD5900"/>
<stop offset="1" stop-color="#FFDE00"/>
</linearGradient>
<linearGradient id="paint2_linear_59_519" x1="31" y1="36.5" x2="29.5" y2="116.5" gradientUnits="userSpaceOnUse">
<stop stop-color="#FD5900"/>
<stop offset="1" stop-color="#FFDE00"/>
</linearGradient>
<linearGradient id="paint3_linear_59_519" x1="31" y1="36.5" x2="29.5" y2="116.5" gradientUnits="userSpaceOnUse">
<stop stop-color="#FD5900"/>
<stop offset="1" stop-color="#FFDE00"/>
</linearGradient>
</defs>
</svg>
