<svg width="128" height="128" viewBox="0 0 128 128" fill="none" xmlns="http://www.w3.org/2000/svg">
<path opacity="0.4" d="M11 38C11 22.536 23.536 10 39 10H69C95.5097 10 117 31.4903 117 58V90C117 105.464 104.464 118 89 118H39C23.536 118 11 105.464 11 90V38Z" fill="url(#paint0_linear_59_167)"/>
<path fill-rule="evenodd" clip-rule="evenodd" d="M116.624 52H89C81.268 52 75 45.732 75 38V10.4048C96.7012 13.1109 113.903 30.3034 116.624 52Z" fill="url(#paint1_linear_59_167)"/>
<path fill-rule="evenodd" clip-rule="evenodd" d="M51.8667 61.5269C52.7374 61.5269 53.5081 62.0902 53.7724 62.9199L55.2654 67.607C55.5297 68.4367 56.3004 69 57.1711 69H63.3778C64.7755 69 65.7422 67.6029 65.2494 66.2949L51.6874 30.2949C51.3939 29.5158 50.6484 29 49.8158 29H43.3442C42.5098 29 41.7631 29.518 41.4709 30.2995L28.0098 66.2995C27.521 67.6067 28.4875 69 29.8831 69H36.0363C36.9095 69 37.6817 68.4335 37.9439 67.6006L39.4155 62.9263C39.6777 62.0934 40.45 61.5269 41.3232 61.5269H51.8667ZM44.9357 54.0818C43.5845 54.0818 42.6221 52.7697 43.028 51.481L44.6767 46.2464C45.2637 44.3826 47.9004 44.3802 48.4909 46.2429L50.15 51.4775C50.5587 52.767 49.5962 54.0818 48.2435 54.0818H44.9357ZM34 78.5601C32.9391 78.5601 31.9217 78.9815 31.1716 79.7316C30.4214 80.4818 30 81.4992 30 82.5601C30 83.6209 30.4214 84.6383 31.1716 85.3885C31.9217 86.1386 32.9391 86.5601 34 86.5601H76.6667C77.7275 86.5601 78.745 86.1386 79.4951 85.3885C80.2452 84.6383 80.6667 83.6209 80.6667 82.5601C80.6667 81.4992 80.2452 80.4818 79.4951 79.7316C78.745 78.9815 77.7275 78.5601 76.6667 78.5601H34ZM34 95.2267C32.9391 95.2267 31.9217 95.6482 31.1716 96.3983C30.4214 97.1484 30 98.1659 30 99.2267C30 100.288 30.4214 101.305 31.1716 102.055C31.9217 102.805 32.9391 103.227 34 103.227H63.3333C64.3942 103.227 65.4116 102.805 66.1618 102.055C66.9119 101.305 67.3333 100.288 67.3333 99.2267C67.3333 98.1659 66.9119 97.1484 66.1618 96.3983C65.4116 95.6482 64.3942 95.2267 63.3333 95.2267H34Z" fill="url(#paint2_linear_59_167)"/>
<defs>
<linearGradient id="paint0_linear_59_167" x1="64" y1="118" x2="64" y2="10" gradientUnits="userSpaceOnUse">
<stop stop-color="#5570FF"/>
<stop offset="1" stop-color="#4DD3FF"/>
</linearGradient>
<linearGradient id="paint1_linear_59_167" x1="95.8122" y1="52" x2="95.8122" y2="10.4048" gradientUnits="userSpaceOnUse">
<stop stop-color="#5570FF"/>
<stop offset="1" stop-color="#4DD3FF"/>
</linearGradient>
<linearGradient id="paint2_linear_59_167" x1="54.274" y1="103.227" x2="54.274" y2="29" gradientUnits="userSpaceOnUse">
<stop stop-color="#5558FF"/>
<stop offset="1" stop-color="#00C0FF"/>
</linearGradient>
</defs>
</svg>
