<svg width="128" height="128" viewBox="0 0 128 128" fill="none" xmlns="http://www.w3.org/2000/svg">
<path opacity="0.4" d="M11 38C11 22.536 23.536 10 39 10H69C95.5097 10 117 31.4903 117 58V90C117 105.464 104.464 118 89 118H39C23.536 118 11 105.464 11 90V38Z" fill="url(#paint0_linear_59_623)"/>
<path d="M27.1485 53.649C27.927 52.7153 29.0446 52.1289 30.2553 52.0188C31.4661 51.9088 32.671 52.284 33.6052 53.0621L35.2989 54.4684C38.9981 57.55 42.147 60.1731 44.3238 62.5883C46.6411 65.1563 48.4449 68.0973 48.4449 71.8699C48.4449 75.6425 46.6411 78.5896 44.3238 81.1515C42.147 83.5667 38.9981 86.1898 35.2989 89.2715L33.6052 90.6778C33.145 91.0804 32.6089 91.3869 32.0285 91.5793C31.4481 91.7716 30.835 91.846 30.2255 91.7979C29.6159 91.7499 29.022 91.5804 28.4789 91.2995C27.9358 91.0186 27.4543 90.6318 27.0629 90.1621C26.6714 89.6923 26.3779 89.149 26.1995 88.5642C26.0211 87.9793 25.9615 87.3646 26.0241 86.7564C26.0868 86.1481 26.2705 85.5585 26.5644 85.0223C26.8583 84.4861 27.2564 84.0141 27.7354 83.634L29.1662 82.4417C33.1956 79.0788 35.8309 76.8776 37.5185 75.0066C39.1204 73.2334 39.2733 72.3957 39.2733 71.8699C39.2733 71.3441 39.1204 70.5125 37.5185 68.7332C35.8248 66.8622 33.1956 64.6549 29.1662 61.2981L27.7354 60.1058C26.8017 59.3272 26.2153 58.2097 26.1052 56.9989C25.9952 55.7882 26.3704 54.5832 27.1485 53.649ZM92 87.1559C92 88.3721 91.5169 89.5385 90.6569 90.3985C89.7969 91.2585 88.6304 91.7417 87.4142 91.7417H56.8423C55.626 91.7417 54.4596 91.2585 53.5996 90.3985C52.7396 89.5385 52.2565 88.3721 52.2565 87.1559C52.2565 85.9396 52.7396 84.7732 53.5996 83.9132C54.4596 83.0532 55.626 82.5701 56.8423 82.5701H87.4142C88.6304 82.5701 89.7969 83.0532 90.6569 83.9132C91.5169 84.7732 92 85.9396 92 87.1559Z" fill="url(#paint1_linear_59_623)"/>
<path fill-rule="evenodd" clip-rule="evenodd" d="M116.624 52H89C81.268 52 75 45.732 75 38V10.4048C96.7012 13.1109 113.903 30.3034 116.624 52Z" fill="url(#paint2_linear_59_623)"/>
<defs>
<linearGradient id="paint0_linear_59_623" x1="9.46785" y1="11.0627" x2="120.85" y2="123.727" gradientUnits="userSpaceOnUse">
<stop stop-color="#F9D423"/>
<stop offset="0.515624" stop-color="#FF4E50"/>
<stop offset="0.991304" stop-color="#8A2387"/>
</linearGradient>
<linearGradient id="paint1_linear_59_623" x1="25.046" y1="52.3917" x2="60.848" y2="113.56" gradientUnits="userSpaceOnUse">
<stop stop-color="#F9D423"/>
<stop offset="0.515624" stop-color="#FF4E50"/>
<stop offset="0.991304" stop-color="#8A2387"/>
</linearGradient>
<linearGradient id="paint2_linear_59_623" x1="74.3983" y1="10.8141" x2="117.279" y2="55.0372" gradientUnits="userSpaceOnUse">
<stop stop-color="#F9D423"/>
<stop offset="0.515624" stop-color="#FF4E50"/>
<stop offset="0.991304" stop-color="#8A2387"/>
</linearGradient>
</defs>
</svg>
