<svg width="128" height="128" viewBox="0 0 128 128" fill="none" xmlns="http://www.w3.org/2000/svg">
<path opacity="0.4" d="M11 38C11 22.536 23.536 10 39 10H69C95.5097 10 117 31.4903 117 58V90C117 105.464 104.464 118 89 118H39C23.536 118 11 105.464 11 90V38Z" fill="url(#paint0_linear_59_928)"/>
<path fill-rule="evenodd" clip-rule="evenodd" d="M116.624 52H89C81.268 52 75 45.732 75 38V10.4048C96.7012 13.1109 113.903 30.3034 116.624 52Z" fill="url(#paint1_linear_59_928)"/>
<path fill-rule="evenodd" clip-rule="evenodd" d="M44.422 27C41.9214 27 39.5232 27.9934 37.755 29.7616C35.9868 31.5298 34.9934 33.928 34.9934 36.4286C34.9934 38.9292 35.9868 41.3274 37.755 43.0956C39.5232 44.8638 41.9214 45.8571 44.422 45.8571C46.9226 45.8571 49.3208 44.8638 51.089 43.0956C52.8572 41.3274 53.8506 38.9292 53.8506 36.4286C53.8506 33.928 52.8572 31.5298 51.089 29.7616C49.3208 27.9934 46.9226 27 44.422 27ZM28.1923 63.4697C29.4127 60.1472 31.6234 57.2793 34.5258 55.2534C37.4282 53.2274 40.8825 52.1411 44.422 52.1411C47.9616 52.1411 51.4158 53.2274 54.3182 55.2534C57.2206 57.2793 59.4313 60.1472 60.6517 63.4697C60.9129 64.1816 60.9079 64.964 60.6376 65.6725C60.3673 66.381 59.8499 66.9679 59.1809 67.3249C54.6382 69.7447 49.5689 71.0069 44.422 71C39.2751 71.0069 34.2058 69.7447 29.6632 67.3249C28.9941 66.9679 28.4768 66.381 28.2065 65.6725C27.9361 64.964 27.9311 64.1816 28.1923 63.4697ZM30 85C28.9391 85 27.9217 84.5786 27.1716 83.8284C26.4214 83.0783 26 82.0609 26 81C26 79.9391 26.4214 78.9217 27.1716 78.1716C27.9217 77.4214 28.9391 77 30 77H59.3333C60.3942 77 61.4116 77.4214 62.1618 78.1716C62.9119 78.9217 63.3333 79.9391 63.3333 81C63.3333 82.0609 62.9119 83.0783 62.1618 83.8284C61.4116 84.5786 60.3942 85 59.3333 85H30ZM30 101.667C28.9391 101.667 27.9217 101.245 27.1716 100.495C26.4214 99.7449 26 98.7275 26 97.6667C26 96.6058 26.4214 95.5884 27.1716 94.8382C27.9217 94.0881 28.9391 93.6667 30 93.6667H72.6667C73.7275 93.6667 74.7449 94.0881 75.4951 94.8382C76.2452 95.5884 76.6667 96.6058 76.6667 97.6667C76.6667 98.7275 76.2452 99.7449 75.4951 100.495C74.7449 101.245 73.7275 101.667 72.6667 101.667H30Z" fill="url(#paint2_linear_59_928)"/>
<defs>
<linearGradient id="paint0_linear_59_928" x1="117" y1="64.9474" x2="37.2472" y2="73.6958" gradientUnits="userSpaceOnUse">
<stop stop-color="#BE41B4"/>
<stop offset="1" stop-color="#FE1FE8"/>
</linearGradient>
<linearGradient id="paint1_linear_59_928" x1="116.624" y1="31.5673" x2="85.3216" y2="35.0683" gradientUnits="userSpaceOnUse">
<stop stop-color="#BE41B4"/>
<stop offset="1" stop-color="#FE1FE8"/>
</linearGradient>
<linearGradient id="paint2_linear_59_928" x1="76.6667" y1="64.9883" x2="38.3078" y2="67.8975" gradientUnits="userSpaceOnUse">
<stop stop-color="#BE41B4"/>
<stop offset="1" stop-color="#FE1FE8"/>
</linearGradient>
</defs>
</svg>
