<svg width="128" height="128" viewBox="0 0 128 128" fill="none" xmlns="http://www.w3.org/2000/svg">
<path opacity="0.4" d="M11 38C11 22.536 23.536 10 39 10H69C95.5097 10 117 31.4903 117 58V90C117 105.464 104.464 118 89 118H39C23.536 118 11 105.464 11 90V38Z" fill="url(#paint0_linear_59_726)"/>
<path fill-rule="evenodd" clip-rule="evenodd" d="M89 52H116.624C113.903 30.3034 96.7012 13.1109 75 10.4048V38C75 45.732 81.268 52 89 52ZM29 80C27.9391 80 26.9217 80.4214 26.1716 81.1716C25.4214 81.9217 25 82.9391 25 84C25 85.0609 25.4214 86.0783 26.1716 86.8284C26.9217 87.5786 27.9391 88 29 88H71.6667C72.7275 88 73.7449 87.5786 74.4951 86.8284C75.2452 86.0783 75.6667 85.0609 75.6667 84C75.6667 82.9391 75.2452 81.9217 74.4951 81.1716C73.7449 80.4214 72.7275 80 71.6667 80H29ZM29 96.6667C27.9391 96.6667 26.9217 97.0881 26.1716 97.8382C25.4214 98.5884 25 99.6058 25 100.667C25 101.728 25.4214 102.745 26.1716 103.495C26.9217 104.245 27.9391 104.667 29 104.667H58.3333C59.3942 104.667 60.4116 104.245 61.1618 103.495C61.9119 102.745 62.3333 101.728 62.3333 100.667C62.3333 99.6058 61.9119 98.5884 61.1618 97.8382C60.4116 97.0881 59.3942 96.6667 58.3333 96.6667H29Z" fill="url(#paint1_linear_59_726)"/>
<path d="M53.4812 50C54.0599 50 54.6148 50.2299 55.024 50.639C55.4332 51.0482 55.6631 51.6032 55.6631 52.1818V55.8182H59.2994C59.8781 55.8182 60.433 56.0481 60.8422 56.4572C61.2514 56.8664 61.4812 57.4213 61.4812 58C61.4812 58.5787 61.2514 59.1336 60.8422 59.5428C60.433 59.9519 59.8781 60.1818 59.2994 60.1818H55.6631V63.8182C55.6631 64.3968 55.4332 64.9518 55.024 65.361C54.6148 65.7701 54.0599 66 53.4812 66C52.9026 66 52.3476 65.7701 51.9385 65.361C51.5293 64.9518 51.2994 64.3968 51.2994 63.8182V60.1818H47.663C47.0844 60.1818 46.5294 59.9519 46.1203 59.5428C45.7111 59.1336 45.4812 58.5787 45.4812 58C45.4812 57.4213 45.7111 56.8664 46.1203 56.4572C46.5294 56.0481 47.0844 55.8182 47.663 55.8182H51.2994V52.1818C51.2994 51.6032 51.5293 51.0482 51.9385 50.639C52.3476 50.2299 52.9026 50 53.4812 50Z" fill="url(#paint2_linear_59_726)"/>
<path d="M70.4812 50C71.0599 50 71.6148 50.2299 72.024 50.639C72.4332 51.0482 72.6631 51.6032 72.6631 52.1818V55.8182H76.2994C76.8781 55.8182 77.433 56.0481 77.8422 56.4572C78.2514 56.8664 78.4812 57.4213 78.4812 58C78.4812 58.5787 78.2514 59.1336 77.8422 59.5428C77.433 59.9519 76.8781 60.1818 76.2994 60.1818H72.6631V63.8182C72.6631 64.3968 72.4332 64.9518 72.024 65.361C71.6148 65.7701 71.0599 66 70.4812 66C69.9026 66 69.3476 65.7701 68.9385 65.361C68.5293 64.9518 68.2994 64.3968 68.2994 63.8182V60.1818H64.663C64.0844 60.1818 63.5294 59.9519 63.1203 59.5428C62.7111 59.1336 62.4812 58.5787 62.4812 58C62.4812 57.4213 62.7111 56.8664 63.1203 56.4572C63.5294 56.0481 64.0844 55.8182 64.663 55.8182H68.2994V52.1818C68.2994 51.6032 68.5293 51.0482 68.9385 50.639C69.3476 50.2299 69.9026 50 70.4812 50Z" fill="url(#paint3_linear_59_726)"/>
<path d="M27.5146 49.5146C29.7651 47.2644 32.8174 46 36 46C38.8952 46.0021 41.6819 47.0503 43.8547 48.9352C44.2121 49.2452 44.2101 49.7903 43.8755 50.1248C43.5407 50.4597 42.9999 50.4564 42.6385 50.1504C40.7903 48.5852 38.4402 47.7164 36 47.7144C33.2722 47.7144 30.656 48.798 28.727 50.727C26.798 52.6559 25.7143 55.2722 25.7143 58C25.7143 60.7281 26.798 63.3441 28.727 65.273C30.656 67.202 33.2722 68.2859 36 68.2859C38.4402 68.2839 40.7903 67.4148 42.6385 65.8499C42.9999 65.5439 43.5407 65.5406 43.8755 65.8754C44.2101 66.21 44.2121 66.7551 43.8546 67.0651C41.6818 68.9497 38.8952 69.9979 36 70C32.8174 70 29.7651 68.7356 27.5146 66.4854C25.2643 64.2349 24 61.1826 24 58C24 54.8174 25.2643 51.7651 27.5146 49.5146Z" stroke="url(#paint4_linear_59_726)" stroke-width="5"/>
<defs>
<linearGradient id="paint0_linear_59_726" x1="64" y1="118" x2="64" y2="10" gradientUnits="userSpaceOnUse">
<stop stop-color="#5570FF"/>
<stop offset="1" stop-color="#4DD3FF"/>
</linearGradient>
<linearGradient id="paint1_linear_59_726" x1="70.8122" y1="104.667" x2="70.8122" y2="10.4048" gradientUnits="userSpaceOnUse">
<stop stop-color="#5558FF"/>
<stop offset="1" stop-color="#00C0FF"/>
</linearGradient>
<linearGradient id="paint2_linear_59_726" x1="53.4812" y1="66" x2="53.4812" y2="50" gradientUnits="userSpaceOnUse">
<stop stop-color="#5558FF"/>
<stop offset="1" stop-color="#00C0FF"/>
</linearGradient>
<linearGradient id="paint3_linear_59_726" x1="70.4812" y1="66" x2="70.4812" y2="50" gradientUnits="userSpaceOnUse">
<stop stop-color="#5558FF"/>
<stop offset="1" stop-color="#00C0FF"/>
</linearGradient>
<linearGradient id="paint4_linear_59_726" x1="34.2406" y1="70" x2="34.2406" y2="46" gradientUnits="userSpaceOnUse">
<stop stop-color="#5558FF"/>
<stop offset="1" stop-color="#00C0FF"/>
</linearGradient>
</defs>
</svg>
