<svg width="128" height="128" viewBox="0 0 128 128" fill="none" xmlns="http://www.w3.org/2000/svg">
<path opacity="0.4" d="M11 38C11 22.536 23.536 10 39 10H69C95.5097 10 117 31.4903 117 58V90C117 105.464 104.464 118 89 118H39C23.536 118 11 105.464 11 90V38Z" fill="url(#paint0_linear_59_750)"/>
<path fill-rule="evenodd" clip-rule="evenodd" d="M116.624 52H89C81.268 52 75 45.732 75 38V10.4048C96.7012 13.1109 113.903 30.3034 116.624 52Z" fill="url(#paint1_linear_59_750)"/>
<path fill-rule="evenodd" clip-rule="evenodd" d="M37.9031 68.2618C37.9031 65.5846 37.2609 63.5617 35.9763 62.1933C35.5426 61.7312 35.7142 60.4312 36.1203 59.9446V59.9446C36.5844 59.3708 36.8901 58.6675 37.0372 57.8331C37.1844 56.9986 37.3032 55.6606 37.3938 53.8178C37.4957 51.9584 37.6825 50.5154 37.9539 49.4897C38.3284 48.0808 39.1234 47.2261 40.3395 46.9261C40.908 46.7858 41.3761 46.3035 41.3267 45.72L40.9151 40.8571C40.8806 40.4496 40.5914 40.161 40.1828 40.1451C39.7295 40.1274 39.0488 40.105 38.1408 40.0779C36.3863 40.0258 35.3675 40 35.0845 40C32.9903 40 31.5356 40.7037 30.7205 42.112C29.9168 43.5194 29.4414 45.2577 29.2942 47.3261C29.2263 48.2994 29.1527 49.6201 29.0734 51.289C29.0055 52.9397 28.8301 54.287 28.547 55.3301C28.2535 56.3943 27.7308 57.0753 26.9789 57.3729C26.4654 57.5762 26 57.9939 26 58.5462V64.3157C26 64.868 26.4696 65.2846 26.9731 65.5116C27.7606 65.8667 28.2909 66.7049 28.564 68.0269C28.7565 68.9481 28.8527 70.5731 28.8527 72.9021V73.5017C28.8527 77.082 29.5206 79.8021 30.8564 81.6623C32.1922 83.522 34.0657 84.4517 36.4769 84.4517C37.6006 84.4517 38.7996 84.2545 40.073 83.8596C40.4668 83.7375 40.73 83.372 40.7422 82.9598L40.8446 79.4851C40.8612 78.9215 40.39 78.4853 39.868 78.2723C39.3374 78.0558 38.9203 77.6475 38.6165 77.0473C38.1408 76.0914 37.9031 73.1628 37.9031 68.2618ZM51.7422 79.2892V72.6066C51.7422 72.0826 51.3378 71.6475 50.8152 71.6092L50.6721 71.5988H45.9161C45.3638 71.5988 44.9161 72.0465 44.9161 72.5988V77.6732C44.9161 78.7746 44.9205 79.6606 44.9294 80.3311C44.9366 80.87 45.3774 81.2971 45.9164 81.2971H50.7077C51.2468 81.2971 51.6889 80.8697 51.7071 80.3308L51.7422 79.2892ZM59.9779 40.1562C59.0824 40.2047 58.4065 40.2505 57.95 40.2935C57.5411 40.3321 57.2696 40.6609 57.2576 41.0714L57.1558 44.5324C57.1391 45.1028 57.6239 45.5428 58.1472 45.7704C58.6852 46.0044 59.1199 46.4534 59.4513 47.1175C59.8023 47.8127 60.0061 49.3767 60.0626 51.8107C60.0852 52.5402 60.0965 53.896 60.0965 55.8773C60.0965 57.8589 60.3685 59.4055 60.912 60.518C61.0851 60.8658 61.2976 61.1727 61.5493 61.4389C61.9435 61.8558 61.9734 63.4134 61.6076 63.8554V63.8554C61.0871 64.4986 60.7478 65.2548 60.5892 66.1232C60.4306 66.9927 60.3342 67.9313 60.3003 68.9396C60.2777 69.9472 60.2494 70.9382 60.2155 71.9115C60.1816 72.8848 60.0795 73.7713 59.9097 74.571C59.6156 75.9656 58.8661 76.812 57.661 77.1094C57.0925 77.2496 56.6243 77.731 56.6736 78.3144L57.08 83.119C57.1169 83.5551 57.4327 83.9192 57.8631 83.9987C58.8394 84.1791 59.7423 84.2693 60.5722 84.2693C63.0514 84.2693 64.851 83.5568 65.9716 82.1316C67.1038 80.7064 67.8507 78.9422 68.2131 76.8387C68.3829 75.8655 68.5754 74.5012 68.7905 72.7455C69.0056 70.9729 69.2432 69.643 69.5039 68.7569C69.818 67.6922 70.3305 67.0023 71.0411 66.687C71.5409 66.4653 72 66.0492 72 65.5024V59.7196C72 59.1673 71.5304 58.7507 71.0269 58.5236C70.2393 58.1683 69.7089 57.3297 69.4357 56.0076C69.2432 55.0868 69.1472 53.4615 69.1472 51.1324V50.5328C69.1472 48.7775 69.0907 47.2825 68.9773 46.0482C68.6263 42.0163 66.8492 40 63.6454 40C62.8194 40 61.5963 40.0521 59.9779 40.1562ZM34 95C32.9391 95 31.9217 95.4214 31.1716 96.1716C30.4214 96.9217 30 97.9391 30 99C30 100.061 30.4214 101.078 31.1716 101.828C31.9217 102.579 32.9391 103 34 103H63.3333C64.3942 103 65.4116 102.579 66.1618 101.828C66.9119 101.078 67.3333 100.061 67.3333 99C67.3333 97.9391 66.9119 96.9217 66.1618 96.1716C65.4116 95.4214 64.3942 95 63.3333 95H34Z" fill="url(#paint2_linear_59_750)"/>
<defs>
<linearGradient id="paint0_linear_59_750" x1="64" y1="118" x2="64" y2="10" gradientUnits="userSpaceOnUse">
<stop stop-color="#A93AFF"/>
<stop offset="1" stop-color="#FF81FF"/>
</linearGradient>
<linearGradient id="paint1_linear_59_750" x1="95.8122" y1="52" x2="95.8122" y2="10.4048" gradientUnits="userSpaceOnUse">
<stop stop-color="#A93AFF"/>
<stop offset="1" stop-color="#FF81FF"/>
</linearGradient>
<linearGradient id="paint2_linear_59_750" x1="26.0067" y1="70.5665" x2="72.0076" y2="70.5665" gradientUnits="userSpaceOnUse">
<stop stop-color="#A93AFF"/>
<stop offset="1" stop-color="#FF81FF"/>
</linearGradient>
</defs>
</svg>
