<svg width="128" height="128" viewBox="0 0 128 128" fill="none" xmlns="http://www.w3.org/2000/svg">
<path opacity="0.4" d="M11 38C11 22.536 23.536 10 39 10H69C95.5097 10 117 31.4903 117 58V90C117 105.464 104.464 118 89 118H39C23.536 118 11 105.464 11 90V38Z" fill="url(#paint0_linear_59_647)"/>
<path fill-rule="evenodd" clip-rule="evenodd" d="M116.624 52H89C81.268 52 75 45.732 75 38V10.4048C96.7012 13.1109 113.903 30.3034 116.624 52Z" fill="url(#paint1_linear_59_647)"/>
<path d="M26.1716 96.1716C26.9217 95.4214 27.9391 95 29 95H68.3333C69.3942 95 70.4116 95.4214 71.1618 96.1716C71.9119 96.9217 72.3333 97.9391 72.3333 99C72.3333 100.061 71.9119 101.078 71.1618 101.828C70.4116 102.579 69.3942 103 68.3333 103H29C27.9391 103 26.9217 102.579 26.1716 101.828C25.4214 101.078 25 100.061 25 99C25 97.9391 25.4214 96.9217 26.1716 96.1716Z" fill="url(#paint2_linear_59_647)"/>
<path fill-rule="evenodd" clip-rule="evenodd" d="M41.8096 45.8186C42.3659 44.8716 41.3379 42.9263 40.3054 43.3008C37.3459 44.3743 34.6266 46.089 32.3578 48.3578C31.6579 49.0577 31.0107 49.8006 30.4188 50.5801L31.5079 49.3739C31.8772 48.9649 32.5055 48.9352 32.9414 49.2723C33.0029 49.3198 33.0651 49.3671 33.1281 49.4141C34.5495 50.4796 36.2902 51.3834 38.2566 52.0903C38.799 52.2853 39.3802 51.9555 39.5359 51.4005C40.1403 49.2462 40.9072 47.3551 41.8096 45.8186ZM31.1655 51.4074C30.7022 51.0446 30.0203 51.1083 29.692 51.5967C27.7551 54.4781 26.5322 57.791 26.1386 61.2572C26.0734 61.8309 26.533 62.3191 27.1104 62.3191H37.0336C37.5761 62.3191 38.0186 61.8864 38.042 61.3444C38.1219 59.4976 38.2947 57.7162 38.5521 56.0295C38.6283 55.5306 38.3308 55.049 37.8525 54.8878C35.4127 54.0654 33.2391 52.9669 31.4626 51.6348C31.3626 51.56 31.2636 51.4842 31.1655 51.4074ZM27.1105 65.0949C26.533 65.0949 26.0735 65.5831 26.1386 66.1568C26.5332 69.6314 27.7611 72.952 29.7063 75.8383C30.035 76.3261 30.7165 76.3891 31.1788 76.0254C31.2721 75.952 31.3667 75.8792 31.4626 75.807C33.2401 74.4753 35.4151 73.3769 37.8566 72.5548C38.3353 72.3936 38.6329 71.9116 38.5564 71.4123C38.2967 69.7174 38.1223 67.9266 38.0421 66.0695C38.0186 65.5276 37.5761 65.0949 37.0336 65.0949H27.1105ZM30.5889 77.0548C31.1341 77.7539 31.7243 78.4225 32.3578 79.056C34.6266 81.3248 37.3459 83.0395 40.3054 84.113C41.3379 84.4875 42.3659 82.5422 41.8096 81.5951C40.911 80.0651 40.1467 78.1835 39.5435 76.0404C39.3874 75.486 38.8068 75.1566 38.2647 75.3513C36.295 76.0586 34.5514 76.9634 33.1281 78.0304C33.065 78.077 33.0026 78.1239 32.9411 78.1712C32.5044 78.5065 31.8773 78.4778 31.5078 78.0697L30.5889 77.0548ZM53.6043 81.5949C53.0481 82.5419 54.0759 84.4875 55.1084 84.113C58.0679 83.0395 60.7872 81.3248 63.056 79.056C63.2081 78.9039 63.3577 78.7498 63.5047 78.5938C63.908 78.1658 63.8218 77.484 63.32 77.1774C63.1778 77.0904 63.0328 77.0047 62.8853 76.9201C61.2477 75.9833 59.3399 75.2233 57.2506 74.6695C56.7175 74.5283 56.1828 74.866 56.0438 75.3997C55.4163 77.8093 54.5914 79.9142 53.6043 81.5949ZM64.9375 78.4958C64.9912 78.4332 65.0856 78.4247 65.149 78.4775V78.4775C65.2132 78.5309 65.3082 78.5231 65.3625 78.4596L66.9037 76.6576C66.9946 76.5513 66.9818 76.3912 66.8738 76.3023V76.3023C66.7734 76.2197 66.7505 76.0749 66.8206 75.9654C69.1486 72.3355 70.4138 68.0864 70.4138 63.7069C70.4138 59.333 69.1518 55.0892 66.8295 51.4623C66.7615 51.356 66.7843 51.215 66.8814 51.1345V51.1345C66.9858 51.048 66.9971 50.8934 66.909 50.7904L65.3563 48.9749C65.3054 48.9153 65.2159 48.9082 65.1556 48.9582V48.9582C65.0958 49.0079 65.0074 48.9996 64.9568 48.9406C64.5771 48.4969 64.179 48.0666 63.7631 47.6507C59.5047 43.3923 53.7291 41 47.7069 41C41.6847 41 35.9091 43.3923 31.6507 47.6507C27.3923 51.9091 25 57.6847 25 63.7069C25 69.7291 27.3923 75.5047 31.6507 79.7631C35.9091 84.0215 41.6847 86.4138 47.7069 86.4138C53.7291 86.4138 59.5047 84.0215 63.7631 79.7631C64.1719 79.3543 64.5635 78.9315 64.9375 78.4958ZM63.3434 50.2547C63.843 49.949 63.9271 49.2695 63.526 48.8427C63.3721 48.6789 63.2154 48.5172 63.056 48.3578C60.7872 46.089 58.0679 44.3743 55.1084 43.3008C54.0759 42.9263 53.0481 44.8719 53.6044 45.819C54.5951 47.5059 55.4225 49.6202 56.0508 52.041C56.1895 52.5752 56.7247 52.9134 57.2581 52.7718C59.3444 52.218 61.2497 51.4589 62.8853 50.5244C63.0396 50.4371 63.1923 50.3472 63.3434 50.2547ZM66.4574 52.7703C66.1706 52.2785 65.524 52.1589 65.0428 52.4632C64.7902 52.623 64.5308 52.7789 64.2649 52.9311C62.3518 54.0256 60.1376 54.8983 57.7277 55.5179C57.217 55.6492 56.8819 56.143 56.9541 56.6653C57.1607 58.1618 57.3019 59.728 57.3717 61.3444C57.3952 61.8864 57.8377 62.3191 58.3802 62.3191H68.3033C68.8808 62.3191 69.3403 61.831 69.2752 61.2572C68.934 58.2527 67.9698 55.3633 66.4574 52.7703ZM68.3033 65.0949C68.8808 65.0949 69.3403 65.583 69.2752 66.1567C68.9331 69.1689 67.9648 72.0653 66.4458 74.6633C66.1584 75.155 65.5116 75.2733 65.0303 74.9689C64.779 74.81 64.5238 74.6572 64.2649 74.5106C62.3508 73.4168 60.1353 72.5445 57.7239 71.9252C57.2128 71.794 56.8776 71.2997 56.9501 70.777C57.1589 69.272 57.3014 67.6962 57.3717 66.0696C57.3952 65.5276 57.8377 65.0949 58.3802 65.0949H68.3033ZM42.4307 71.3966C41.8722 71.4957 41.3309 71.129 41.2495 70.5677C41.0453 69.1583 40.9002 67.6694 40.8253 66.1222C40.7981 65.5598 41.2513 65.0949 41.8143 65.0949H53.5994C54.1625 65.0949 54.6156 65.5597 54.5885 66.1222C54.5196 67.5472 54.391 68.9227 54.2115 70.2322C54.1375 70.7723 53.635 71.1407 53.0934 71.0791C51.7116 70.9219 50.293 70.841 48.8533 70.841C46.6421 70.841 44.4822 71.0324 42.4307 71.3966ZM42.4266 56.0471C41.8678 55.9478 41.3261 56.3149 41.2451 56.8766C41.0432 58.2771 40.8996 59.7557 40.8253 61.2918C40.7981 61.8542 41.2512 62.3191 41.8143 62.3191H53.5995C54.1626 62.3191 54.6157 61.8542 54.5885 61.2918C54.5201 59.878 54.393 58.5128 54.2158 57.2125C54.1421 56.672 53.6393 56.3032 53.0973 56.3649C51.7143 56.5225 50.2944 56.6036 48.8533 56.6036C46.6406 56.6036 44.4794 56.4119 42.4266 56.0471ZM47.7069 44.2759C49.8321 44.2759 51.9469 47.4896 53.2732 52.4468C53.4254 53.0158 53.0358 53.5823 52.45 53.6431C51.2775 53.7648 50.0747 53.8277 48.8533 53.8277C46.824 53.8277 44.8487 53.6539 42.9809 53.3265C42.4239 53.2288 42.0753 52.6751 42.227 52.1304C43.5576 47.3532 45.6273 44.2759 47.7069 44.2759ZM48.8533 73.6168C50.0718 73.6168 51.2718 73.6792 52.4418 73.8002C53.0281 73.8608 53.4179 74.4281 53.2651 74.9973C51.9383 79.9373 49.8277 83.1379 47.7069 83.1379C45.6317 83.1379 43.5663 80.0735 42.2354 75.3136C42.083 74.7685 42.4318 74.2141 42.9892 74.1166C44.8546 73.7901 46.827 73.6168 48.8533 73.6168Z" fill="url(#paint3_linear_59_647)"/>
<path d="M32.3578 48.3578L33.0649 49.0649L33.0649 49.0649L32.3578 48.3578ZM30.4188 50.5801L29.6223 49.9753L31.161 51.2503L30.4188 50.5801ZM33.1281 49.4141L33.7279 48.6139L33.726 48.6125L33.1281 49.4141ZM31.4626 51.6348L32.0625 50.8347L32.0619 50.8343L31.4626 51.6348ZM31.4626 75.807L30.863 75.0066L30.8608 75.0083L31.4626 75.807ZM30.5889 77.0548L31.3302 76.3836L29.8003 77.6697L30.5889 77.0548ZM32.3578 79.056L31.6507 79.7631L31.6507 79.7631L32.3578 79.056ZM33.1281 78.0304L33.7217 78.8352L33.7279 78.8306L33.1281 78.0304ZM62.8853 76.9201L63.3826 76.0525L63.3819 76.0521L62.8853 76.9201ZM63.7631 47.6507L64.4702 46.9436L64.4702 46.9436L63.7631 47.6507ZM63.056 48.3578L62.3489 49.0649L62.3489 49.0649L63.056 48.3578ZM62.8853 50.5244L62.3929 49.6541L62.3892 49.6561L62.8853 50.5244ZM64.2649 52.9311L64.7615 53.7991L64.7616 53.799L64.2649 52.9311ZM64.2649 74.5106L63.7688 75.3789L63.7723 75.3809L64.2649 74.5106ZM42.2354 75.3136L43.1985 75.0443L42.2354 75.3136ZM42.9892 74.1166L42.8168 73.1316L42.9892 74.1166ZM52.4418 73.8002L52.3389 74.7949L52.4418 73.8002ZM53.2651 74.9973L54.2308 75.2567L53.2651 74.9973ZM41.2451 56.8766L42.2349 57.0194L41.2451 56.8766ZM42.4266 56.0471L42.6015 55.0625L42.4266 56.0471ZM40.8253 61.2918L39.8265 61.2435L40.8253 61.2918ZM57.3717 66.0696L58.3708 66.1127L57.3717 66.0696ZM57.3717 61.3444L58.3708 61.3012L57.3717 61.3444ZM65.0428 52.4632L64.5083 51.618L65.0428 52.4632ZM66.4574 52.7703L65.5936 53.2741L65.5936 53.2741L66.4574 52.7703ZM56.0508 52.041L55.0829 52.2923L56.0508 52.041ZM55.1084 43.3008L54.7674 44.2409L55.1084 43.3008ZM53.6044 45.819L52.7421 46.3254L53.6044 45.819ZM63.526 48.8427L64.2548 48.1579L63.526 48.8427ZM63.3434 50.2547L62.8215 49.4018L63.3434 50.2547ZM64.9568 48.9406L64.1972 49.5909L64.9568 48.9406ZM65.3563 48.9749L64.5964 49.6249L65.3563 48.9749ZM65.1556 48.9582L64.5168 48.1888L65.1556 48.9582ZM66.909 50.7904L67.669 50.1404L66.909 50.7904ZM64.9375 78.4958L64.1787 77.8445L64.9375 78.4958ZM42.9809 53.3265L43.1535 52.3415L42.9809 53.3265ZM42.227 52.1304L41.2637 51.862L42.227 52.1304ZM63.5047 78.5938L62.777 77.9079L63.5047 78.5938ZM63.32 77.1774L62.7987 78.0307L63.32 77.1774ZM55.1084 84.113L55.4494 85.053L55.1084 84.113ZM53.6043 81.5949L52.7421 81.0884L53.6043 81.5949ZM53.2732 52.4468L52.3072 52.7053L53.2732 52.4468ZM32.9411 78.1712L33.5501 78.9643L32.9411 78.1712ZM31.5078 78.0697L32.2491 77.3985L31.5078 78.0697ZM54.2158 57.2125L55.2066 57.0774L54.2158 57.2125ZM53.0973 56.3649L53.2105 57.3585L53.0973 56.3649ZM39.5435 76.0404L40.5061 75.7695L39.5435 76.0404ZM38.2647 75.3513L37.9267 74.4102L38.2647 75.3513ZM54.5885 61.2918L53.5896 61.3401L54.5885 61.2918ZM40.3054 84.113L39.9644 85.053L40.3054 84.113ZM41.8096 81.5951L42.6719 81.0887L41.8096 81.5951ZM41.2495 70.5677L42.2392 70.4243L41.2495 70.5677ZM42.4307 71.3966L42.2559 70.412L42.4307 71.3966ZM31.1788 76.0254L31.7971 76.8114L31.1788 76.0254ZM66.8295 51.4623L67.6717 50.923L66.8295 51.4623ZM66.8814 51.1345L67.5197 51.9043L66.8814 51.1345ZM56.9501 70.777L57.9406 70.9145L56.9501 70.777ZM37.8525 54.8878L37.5331 55.8354L37.8525 54.8878ZM38.042 61.3444L37.043 61.3013L38.042 61.3444ZM66.8206 75.9654L67.6624 76.5053L66.8206 75.9654ZM69.2752 66.1567L68.2816 66.0439L69.2752 66.1567ZM26.1386 61.2572L25.145 61.1444L26.1386 61.2572ZM66.9037 76.6576L67.6637 77.3075L66.9037 76.6576ZM66.8738 76.3023L66.2384 77.0745L66.8738 76.3023ZM66.4458 74.6633L65.5826 74.1586L66.4458 74.6633ZM65.0303 74.9689L65.5648 74.1237L65.0303 74.9689ZM31.1655 51.4074L30.549 52.1947L31.1655 51.4074ZM54.2115 70.2322L53.2208 70.0965L54.2115 70.2322ZM37.8566 72.5548L37.5374 71.6071L37.8566 72.5548ZM57.2506 74.6695L57.5068 73.7029L57.2506 74.6695ZM56.0438 75.3997L57.0115 75.6517L56.0438 75.3997ZM57.7277 55.5179L57.4787 54.5494L57.7277 55.5179ZM56.9541 56.6653L55.9635 56.8021L56.9541 56.6653ZM31.5079 49.3739L30.7657 48.7037L31.5079 49.3739ZM65.3625 78.4596L66.1224 79.1096L65.3625 78.4596ZM69.2752 61.2572L68.2816 61.3701L69.2752 61.2572ZM38.2566 52.0903L37.9183 53.0313L38.2566 52.0903ZM39.5359 51.4005L38.573 51.1304L39.5359 51.4005ZM40.8253 66.1222L41.8242 66.0739L40.8253 66.1222ZM40.3054 43.3008L39.9644 42.3608L40.3054 43.3008ZM39.9644 42.3608C36.8686 43.4837 34.024 45.2774 31.6507 47.6507L33.0649 49.0649C35.2292 46.9007 37.8231 45.265 40.6464 44.2409L39.9644 42.3608ZM31.6507 47.6507C30.9185 48.3828 30.2415 49.1599 29.6223 49.9753L31.2152 51.1848C31.7798 50.4412 32.3972 49.7326 33.0649 49.0649L31.6507 47.6507ZM30.7657 48.7037L29.6766 49.9099L31.161 51.2503L32.2501 50.0441L30.7657 48.7037ZM33.726 48.6125C33.6677 48.569 33.6101 48.5253 33.5532 48.4812L32.3296 50.0633C32.3956 50.1144 32.4625 50.1652 32.5302 50.2156L33.726 48.6125ZM38.5949 51.1493C36.704 50.4695 35.0555 49.6091 33.7279 48.6139L32.5283 50.2142C34.0435 51.3501 35.8765 52.2973 37.9183 53.0313L38.5949 51.1493ZM40.9474 45.3121C39.9912 46.94 39.1946 48.9151 38.573 51.1304L40.4987 51.6707C41.086 49.5773 41.8231 47.7701 42.6719 46.3251L40.9474 45.3121ZM28.8621 51.0388C26.8359 54.0529 25.5567 57.5184 25.145 61.1444L27.1322 61.37C27.5077 58.0636 28.6742 54.9032 30.522 52.1545L28.8621 51.0388ZM37.0336 61.3191H27.1104V63.3191H37.0336V61.3191ZM37.5636 55.8787C37.3005 57.6028 37.1243 59.4202 37.043 61.3013L39.0411 61.3876C39.1194 59.575 39.289 57.8296 39.5407 56.1804L37.5636 55.8787ZM30.8626 52.4348C32.7388 53.8416 35.0114 54.9854 37.5331 55.8354L38.1719 53.9402C35.814 53.1454 33.7394 52.0921 32.0625 50.8347L30.8626 52.4348ZM30.549 52.1947C30.653 52.2761 30.7577 52.3563 30.8632 52.4352L32.0619 50.8343C31.9676 50.7637 31.8743 50.6923 31.782 50.62L30.549 52.1947ZM25.145 66.2696C25.5578 69.9044 26.8423 73.3779 28.8771 76.3972L30.5356 75.2795C28.68 72.5261 27.5086 69.3584 27.1322 66.044L25.145 66.2696ZM30.8608 75.0083C30.7594 75.0846 30.6593 75.1617 30.5605 75.2395L31.7971 76.8114C31.8849 76.7423 31.974 76.6737 32.0643 76.6057L30.8608 75.0083ZM37.5374 71.6071C35.0141 72.4568 32.7401 73.6004 30.863 75.0066L32.0621 76.6073C33.74 75.3503 35.8161 74.2971 38.1757 73.5025L37.5374 71.6071ZM37.043 66.1127C37.1247 68.0041 37.3024 69.8312 37.5679 71.5638L39.5449 71.2608C39.2909 69.6036 39.1199 67.849 39.0411 66.0264L37.043 66.1127ZM27.1105 66.0949H37.0336V64.0949H27.1105V66.0949ZM29.8003 77.6697C30.3706 78.4011 30.9881 79.1005 31.6507 79.7631L33.0649 78.3489C32.4606 77.7446 31.8975 77.1068 31.3774 76.4398L29.8003 77.6697ZM31.6507 79.7631C34.024 82.1364 36.8686 83.9301 39.9644 85.053L40.6464 83.1729C37.8231 82.1488 35.2292 80.5131 33.0649 78.3489L31.6507 79.7631ZM38.5809 76.3114C39.2013 78.5152 39.9952 80.4805 40.9474 82.1016L42.6719 81.0887C41.8267 79.6497 41.0922 77.8517 40.5061 75.7695L38.5809 76.3114ZM33.7279 78.8306C35.0573 77.834 36.7085 76.9727 38.6026 76.2925L37.9267 74.4102C35.8815 75.1446 34.0456 76.0929 32.5283 77.2303L33.7279 78.8306ZM33.5501 78.9643C33.6067 78.9209 33.6639 78.8778 33.7217 78.8352L32.5344 77.2257C32.4661 77.2761 32.3986 77.3269 32.332 77.3781L33.5501 78.9643ZM29.8476 77.726L30.7665 78.7409L32.2491 77.3985L31.3302 76.3836L29.8476 77.726ZM55.4494 85.053C58.5452 83.9301 61.3898 82.1364 63.7631 79.7631L62.3489 78.3489C60.1846 80.5131 57.5907 82.1488 54.7674 83.1729L55.4494 85.053ZM63.7631 79.7631C63.9222 79.604 64.0786 79.4428 64.2325 79.2796L62.777 77.9079C62.6367 78.0568 62.494 78.2038 62.3489 78.3489L63.7631 79.7631ZM62.388 77.7877C62.5276 77.8677 62.6645 77.9487 62.7987 78.0307L63.8414 76.324C63.691 76.2322 63.5381 76.1416 63.3826 76.0525L62.388 77.7877ZM56.9944 75.6362C59.0125 76.1711 60.8374 76.9006 62.3887 77.7881L63.3819 76.0521C61.658 75.0659 59.6672 74.2755 57.5068 73.7029L56.9944 75.6362ZM54.4666 82.1013C55.512 80.3214 56.3674 78.1253 57.0115 75.6517L55.0761 75.1477C54.4653 77.4932 53.6709 79.5071 52.7421 81.0884L54.4666 82.1013ZM66.1224 79.1096L67.6637 77.3075L66.1437 76.0076L64.6025 77.8097L66.1224 79.1096ZM69.4138 63.7069C69.4138 67.8935 68.2044 71.9554 65.9789 75.4256L67.6624 76.5053C70.0929 72.7155 71.4138 68.2793 71.4138 63.7069H69.4138ZM65.9874 52.0015C68.2074 55.4687 69.4138 59.5256 69.4138 63.7069H71.4138C71.4138 59.1403 70.0962 54.7096 67.6717 50.923L65.9874 52.0015ZM67.669 50.1404L66.1163 48.325L64.5964 49.6249L66.1491 51.4404L67.669 50.1404ZM63.056 48.3578C63.4536 48.7554 63.8341 49.1668 64.1972 49.5909L65.7165 48.2902C65.32 47.827 64.9044 47.3778 64.4702 46.9436L63.056 48.3578ZM47.7069 42C53.4639 42 58.9852 44.287 63.056 48.3578L64.4702 46.9436C60.0243 42.4977 53.9944 40 47.7069 40V42ZM32.3578 48.3578C36.4286 44.287 41.9499 42 47.7069 42V40C41.4194 40 35.3895 42.4977 30.9436 46.9436L32.3578 48.3578ZM26 63.7069C26 57.9499 28.287 52.4286 32.3578 48.3578L30.9436 46.9436C26.4977 51.3895 24 57.4194 24 63.7069H26ZM32.3578 79.056C28.287 74.9852 26 69.4639 26 63.7069H24C24 69.9944 26.4977 76.0243 30.9436 80.4702L32.3578 79.056ZM47.7069 85.4138C41.9499 85.4138 36.4286 83.1268 32.3578 79.056L30.9436 80.4702C35.3895 84.9161 41.4194 87.4138 47.7069 87.4138V85.4138ZM63.056 79.056C58.9852 83.1268 53.4639 85.4138 47.7069 85.4138V87.4138C53.9944 87.4138 60.0243 84.9161 64.4702 80.4702L63.056 79.056ZM64.1787 77.8445C63.8212 78.261 63.4468 78.6652 63.056 79.056L64.4702 80.4702C64.897 80.0434 65.3059 79.602 65.6963 79.1471L64.1787 77.8445ZM64.2548 48.1579C64.0938 47.9866 63.9299 47.8175 63.7631 47.6507L62.3489 49.0649C62.501 49.217 62.6505 49.3712 62.7973 49.5275L64.2548 48.1579ZM63.7631 47.6507C61.3898 45.2774 58.5452 43.4837 55.4494 42.3608L54.7674 44.2409C57.5907 45.265 60.1846 46.9007 62.3489 49.0649L63.7631 47.6507ZM57.0187 51.7898C56.3737 49.3049 55.5159 47.0991 54.4666 45.3125L52.7421 46.3254C53.6743 47.9127 54.4712 49.9356 55.0829 52.2923L57.0187 51.7898ZM62.3892 49.6561C60.8395 50.5415 59.0169 51.2703 57.0015 51.8053L57.5147 53.7384C59.672 53.1657 61.6598 52.3763 63.3814 51.3927L62.3892 49.6561ZM62.8215 49.4018C62.6801 49.4883 62.5372 49.5724 62.3929 49.6541L63.3777 51.3948C63.542 51.3018 63.7046 51.2061 63.8654 51.1077L62.8215 49.4018ZM64.7616 53.799C65.0399 53.6398 65.3119 53.4762 65.5773 53.3084L64.5083 51.618C64.2685 51.7697 64.0218 51.9181 63.7683 52.0631L64.7616 53.799ZM57.9767 56.4864C60.4609 55.8477 62.7603 54.944 64.7615 53.7991L63.7683 52.0631C61.9432 53.1073 59.8144 53.9489 57.4787 54.5494L57.9767 56.4864ZM58.3708 61.3012C58.2997 59.6548 58.1558 58.0573 57.9447 56.5285L55.9635 56.8021C56.1657 58.2663 56.3041 59.8012 56.3727 61.3876L58.3708 61.3012ZM68.3033 61.3191H58.3802V63.3191H68.3033V61.3191ZM70.2688 61.1444C69.9119 58.0014 68.9032 54.9789 67.3213 52.2665L65.5936 53.2741C67.0363 55.7477 67.9562 58.504 68.2816 61.3701L70.2688 61.1444ZM67.3091 75.1681C68.898 72.4504 69.911 69.4206 70.2688 66.2696L68.2816 66.0439C67.9553 68.9172 67.0316 71.6802 65.5826 74.1586L67.3091 75.1681ZM65.5648 74.1237C65.2998 73.9562 65.0306 73.795 64.7575 73.6404L63.7723 75.3809C64.0171 75.5194 64.2583 75.6639 64.4958 75.8141L65.5648 74.1237ZM64.7611 73.6424C62.7589 72.4983 60.4583 71.595 57.9726 70.9567L57.4752 72.8938C59.8123 73.494 61.9426 74.3354 63.7688 75.3789L64.7611 73.6424ZM57.9406 70.9145C58.154 69.3769 58.2992 67.7696 58.3708 66.1127L56.3727 66.0264C56.3037 67.6228 56.1639 69.1671 55.9596 70.6396L57.9406 70.9145ZM58.3802 66.0949H68.3033V64.0949H58.3802V66.0949ZM39.8265 66.1705C39.9028 67.7489 40.051 69.2696 40.2599 70.7112L42.2392 70.4243C42.0396 69.0471 41.8975 67.5899 41.8242 66.0739L39.8265 66.1705ZM53.5994 64.0949H41.8143V66.0949H53.5994V64.0949ZM55.2023 70.368C55.3858 69.029 55.517 67.6242 55.5873 66.1705L53.5896 66.0739C53.5221 67.4701 53.3962 68.8164 53.2208 70.0965L55.2023 70.368ZM48.8533 71.841C50.2557 71.841 51.6365 71.9198 52.9803 72.0727L53.2064 70.0855C51.7867 69.924 50.3304 69.841 48.8533 69.841V71.841ZM42.6055 72.3812C44.598 72.0275 46.6993 71.841 48.8533 71.841V69.841C46.5849 69.841 44.3665 70.0373 42.2559 70.412L42.6055 72.3812ZM41.8242 61.3401C41.8969 59.835 42.0375 58.3879 42.2349 57.0194L40.2554 56.7339C40.0488 58.1663 39.9023 59.6764 39.8265 61.2435L41.8242 61.3401ZM53.5995 61.3191H41.8143V63.3191H53.5995V61.3191ZM53.2249 57.3476C53.3982 58.6186 53.5227 59.9548 53.5896 61.3401L55.5873 61.2435C55.5176 59.8011 55.3879 58.407 55.2066 57.0774L53.2249 57.3476ZM48.8533 57.6036C50.3318 57.6036 51.7895 57.5204 53.2105 57.3585L52.9841 55.3714C51.6391 55.5246 50.257 55.6036 48.8533 55.6036V57.6036ZM42.2516 57.0317C44.3635 57.407 46.5834 57.6036 48.8533 57.6036V55.6036C46.6979 55.6036 44.5952 55.4168 42.6015 55.0625L42.2516 57.0317ZM54.2392 52.1884C53.5592 49.6468 52.6621 47.4897 51.6186 45.9431C50.609 44.4466 49.2879 43.2759 47.7069 43.2759V45.2759C48.2511 45.2759 49.05 45.7119 49.9607 47.0617C50.8375 48.3613 51.6609 50.2896 52.3072 52.7053L54.2392 52.1884ZM48.8533 54.8277C50.1089 54.8277 51.3461 54.7631 52.5533 54.6378L52.3468 52.6485C51.2088 52.7666 50.0405 52.8277 48.8533 52.8277V54.8277ZM42.8082 54.3114C44.7343 54.6491 46.7674 54.8277 48.8533 54.8277V52.8277C46.8806 52.8277 44.9631 52.6587 43.1535 52.3415L42.8082 54.3114ZM47.7069 43.2759C46.1586 43.2759 44.8603 44.3996 43.8632 45.8434C42.8345 47.3329 41.9464 49.4109 41.2637 51.862L43.1903 52.3987C43.8382 50.0727 44.6502 48.2234 45.5089 46.98C46.3992 45.6908 47.1756 45.2759 47.7069 45.2759V43.2759ZM52.5447 72.8055C51.3402 72.681 50.1059 72.6168 48.8533 72.6168V74.6168C50.0378 74.6168 51.2035 74.6775 52.3389 74.7949L52.5447 72.8055ZM47.7069 84.1379C49.2848 84.1379 50.6037 82.9717 51.6122 81.4803C52.6542 79.9392 53.5505 77.7896 54.2308 75.2567L52.2993 74.7379C51.6528 77.145 50.8305 79.0658 49.9554 80.36C49.0466 81.7039 48.2498 82.1379 47.7069 82.1379V84.1379ZM41.2723 75.5828C41.9552 78.0253 42.8425 80.0958 43.8698 81.5798C44.8656 83.0186 46.1617 84.1379 47.7069 84.1379V82.1379C47.1768 82.1379 46.4026 81.725 45.5143 80.4416C44.6573 79.2035 43.8464 77.3617 43.1985 75.0443L41.2723 75.5828ZM48.8533 72.6168C46.7705 72.6168 44.7404 72.7949 42.8168 73.1316L43.1616 75.1016C44.9688 74.7853 46.8835 74.6168 48.8533 74.6168V72.6168ZM43.1985 75.0443C43.205 75.0678 43.188 75.097 43.1616 75.1016L42.8168 73.1316C41.6756 73.3313 40.961 74.4693 41.2723 75.5828L43.1985 75.0443ZM52.3389 74.7949C52.3122 74.7921 52.2927 74.7625 52.2993 74.7379L54.2308 75.2567C54.5432 74.0936 53.744 72.9295 52.5447 72.8055L52.3389 74.7949ZM42.2349 57.0194C42.2348 57.0197 42.2345 57.0215 42.2335 57.0242C42.2325 57.0269 42.2313 57.0294 42.2299 57.0315C42.2273 57.0356 42.2257 57.0363 42.2271 57.0353C42.2287 57.0343 42.2317 57.0326 42.236 57.0317C42.2397 57.0309 42.2446 57.0304 42.2516 57.0317L42.6015 55.0625C41.5223 54.8707 40.4221 55.5775 40.2554 56.7339L42.2349 57.0194ZM39.8265 61.2435C39.7711 62.3902 40.6938 63.3191 41.8143 63.3191V61.3191C41.8123 61.3191 41.8131 61.3188 41.815 61.3196C41.8161 61.3201 41.8168 61.3207 41.8175 61.3214C41.8183 61.3221 41.8201 61.3244 41.8219 61.3288C41.8227 61.3311 41.8234 61.3335 41.8238 61.3359C41.824 61.3371 41.8241 61.3381 41.8241 61.3389C41.8242 61.3397 41.8242 61.3401 41.8242 61.3401L39.8265 61.2435ZM53.5994 66.0949C53.6015 66.0949 53.6007 66.0952 53.5988 66.0944C53.5977 66.0939 53.597 66.0933 53.5963 66.0926C53.5955 66.0918 53.5936 66.0896 53.5919 66.0852C53.5911 66.0829 53.5904 66.0805 53.59 66.078C53.5898 66.0769 53.5897 66.0759 53.5896 66.0751C53.5896 66.0743 53.5896 66.0739 53.5896 66.0739L55.5873 66.1705C55.6427 65.0237 54.72 64.0949 53.5994 64.0949V66.0949ZM58.3708 66.1127C58.371 66.1081 58.3719 66.1054 58.3728 66.1036C58.3738 66.1012 58.3755 66.0988 58.3775 66.0968C58.3795 66.0949 58.3808 66.0944 58.3804 66.0946C58.3801 66.0947 58.3797 66.0948 58.3793 66.0949C58.3788 66.095 58.379 66.0949 58.3802 66.0949V64.0949C57.2906 64.0949 56.4187 64.9611 56.3727 66.0264L58.3708 66.1127ZM56.3727 61.3876C56.4187 62.4529 57.2906 63.3191 58.3802 63.3191V61.3191C58.379 61.3191 58.3788 61.319 58.3793 61.3191C58.3797 61.3191 58.3801 61.3193 58.3804 61.3194C58.3808 61.3195 58.3795 61.3191 58.3775 61.3171C58.3755 61.3152 58.3738 61.3128 58.3728 61.3104C58.3719 61.3085 58.371 61.3059 58.3708 61.3012L56.3727 61.3876ZM65.5773 53.3084C65.5867 53.3024 65.5957 53.2993 65.6036 53.2978C65.6121 53.2963 65.618 53.297 65.6203 53.2975C65.6223 53.2979 65.6185 53.2975 65.6112 53.2924C65.6076 53.2899 65.6038 53.2867 65.6004 53.2829C65.5969 53.2791 65.5947 53.2759 65.5936 53.2741L67.3213 52.2665C66.7155 51.2279 65.4098 51.0479 64.5083 51.618L65.5773 53.3084ZM55.0829 52.2923C55.3505 53.3232 56.4063 54.0326 57.5147 53.7384L57.0015 51.8053C57.0028 51.805 57.0056 51.8044 57.0094 51.8042C57.0132 51.804 57.0168 51.8043 57.0202 51.8048C57.0268 51.8058 57.0297 51.8077 57.0294 51.8075C57.0289 51.8072 57.0269 51.8058 57.0246 51.8027C57.0226 51.8001 57.0204 51.7961 57.0187 51.7898L55.0829 52.2923ZM55.4494 42.3608C54.84 42.1397 54.2624 42.2865 53.8322 42.5535C53.42 42.8093 53.1068 43.19 52.8908 43.571C52.6715 43.9576 52.516 44.4073 52.4656 44.8633C52.416 45.3118 52.4608 45.8464 52.7421 46.3254L54.4666 45.3125C54.4698 45.318 54.4345 45.2542 54.4534 45.0833C54.4715 44.9199 54.5332 44.729 54.6304 44.5577C54.7308 44.3807 54.8335 44.2859 54.8869 44.2527C54.9225 44.2307 54.8605 44.2747 54.7674 44.2409L55.4494 42.3608ZM62.7973 49.5275C62.7865 49.5159 62.7774 49.4922 62.7805 49.4676C62.782 49.4561 62.7862 49.4429 62.7946 49.4297C62.8036 49.4154 62.8145 49.406 62.8215 49.4018L63.8654 51.1077C64.9183 50.4634 65.0803 49.0364 64.2548 48.1579L62.7973 49.5275ZM64.5168 48.1888C64.8851 47.8831 65.4182 47.9418 65.7165 48.2902L64.1972 49.5909C64.5966 50.0574 65.3066 50.1326 65.7944 49.7277L64.5168 48.1888ZM66.1163 48.325C65.7062 47.8454 64.993 47.7935 64.5168 48.1888L65.7944 49.7277C65.4388 50.0229 64.9046 49.9853 64.5964 49.6249L66.1163 48.325ZM67.5197 51.9043C68.0647 51.4525 68.1107 50.6569 67.669 50.1404L66.1491 51.4404C65.8836 51.1299 65.9068 50.6435 66.2432 50.3647L67.5197 51.9043ZM65.7886 77.7088C65.3 77.3022 64.5838 77.3726 64.1787 77.8445L65.6963 79.1471C65.3987 79.4939 64.8711 79.5472 64.5094 79.2462L65.7886 77.7088ZM43.1535 52.3415C43.1798 52.3461 43.1969 52.3752 43.1903 52.3987L41.2637 51.862C40.9537 52.975 41.6679 54.1116 42.8082 54.3114L43.1535 52.3415ZM64.2325 79.2796C65.0642 78.397 64.894 76.9672 63.8414 76.324L62.7987 78.0307C62.7925 78.0269 62.7822 78.0182 62.7736 78.0046C62.7656 77.9921 62.7615 77.9794 62.76 77.9681C62.7586 77.9568 62.7595 77.9449 62.7632 77.9333C62.7672 77.9205 62.7735 77.9116 62.777 77.9079L64.2325 79.2796ZM54.7674 83.1729C54.8605 83.1391 54.9225 83.1831 54.8869 83.161C54.8334 83.1279 54.7308 83.0331 54.6304 82.8561C54.5332 82.6848 54.4715 82.494 54.4534 82.3306C54.4345 82.1596 54.4698 82.0959 54.4666 82.1013L52.7421 81.0884C52.4607 81.5674 52.4159 82.102 52.4655 82.5505C52.516 83.0066 52.6715 83.4563 52.8908 83.8429C53.1069 84.2238 53.42 84.6045 53.8322 84.8603C54.2624 85.1273 54.84 85.2741 55.4494 85.053L54.7674 83.1729ZM52.3072 52.7053C52.3006 52.6808 52.3201 52.6512 52.3468 52.6485L52.5533 54.6378C53.7516 54.5134 54.5502 53.3507 54.2392 52.1884L52.3072 52.7053ZM32.332 77.3781C32.3081 77.3964 32.2817 77.4024 32.2623 77.4012C32.2536 77.4007 32.2494 77.3988 32.2489 77.3986C32.2487 77.3985 32.249 77.3986 32.2494 77.399C32.25 77.3994 32.2499 77.3994 32.2491 77.3985L30.7665 78.7409C31.518 79.5709 32.7397 79.5867 33.5501 78.9643L32.332 77.3781ZM55.2066 57.0774C55.0552 55.9665 54.034 55.2518 52.9841 55.3714L53.2105 57.3585C53.2168 57.3578 53.2213 57.3584 53.2245 57.3593C53.2282 57.3604 53.2308 57.3619 53.232 57.3628C53.2332 57.3636 53.2316 57.3628 53.2293 57.359C53.2282 57.3571 53.2271 57.3548 53.2262 57.3523C53.2253 57.3498 53.225 57.3481 53.2249 57.3476L55.2066 57.0774ZM40.5061 75.7695C40.2064 74.7048 39.0605 74.003 37.9267 74.4102L38.6026 76.2925C38.6012 76.293 38.598 76.2939 38.5934 76.2945C38.5889 76.2951 38.5844 76.2951 38.5802 76.2947C38.572 76.294 38.5682 76.2919 38.5685 76.292C38.5689 76.2922 38.5713 76.2938 38.574 76.2971C38.5763 76.3 38.5789 76.3043 38.5809 76.3114L40.5061 75.7695ZM53.5995 63.3191C54.72 63.3191 55.6427 62.3902 55.5873 61.2435L53.5896 61.3401C53.5896 61.3401 53.5896 61.3397 53.5897 61.3389C53.5897 61.3381 53.5898 61.3371 53.59 61.3359C53.5904 61.3335 53.5911 61.3311 53.5919 61.3288C53.5936 61.3244 53.5955 61.3221 53.5963 61.3214C53.597 61.3207 53.5977 61.3201 53.5989 61.3196C53.6007 61.3188 53.6015 61.3191 53.5995 61.3191V63.3191ZM39.9644 85.053C40.5737 85.274 41.1514 85.1274 41.5815 84.8604C41.9938 84.6046 42.3069 84.224 42.5231 83.8431C42.7424 83.4565 42.8979 83.0068 42.9484 82.5508C42.998 82.1023 42.9532 81.5677 42.6719 81.0887L40.9474 82.1016C40.9441 82.0961 40.9794 82.1598 40.9605 82.3307C40.9424 82.4941 40.8807 82.6848 40.7835 82.8562C40.6831 83.0331 40.5805 83.1278 40.527 83.161C40.4914 83.1831 40.5534 83.1392 40.6464 83.1729L39.9644 85.053ZM39.0411 66.0264C38.9951 64.961 38.1232 64.0949 37.0336 64.0949V66.0949C37.0348 66.0949 37.035 66.095 37.0345 66.0949C37.0341 66.0948 37.0337 66.0947 37.0334 66.0946C37.0331 66.0945 37.0343 66.0949 37.0363 66.0968C37.0383 66.0988 37.04 66.1012 37.041 66.1036C37.0419 66.1054 37.0428 66.108 37.043 66.1127L39.0411 66.0264ZM40.2599 70.7112C40.4274 71.8668 41.5268 72.5727 42.6055 72.3812L42.2559 70.412C42.2489 70.4132 42.2439 70.4128 42.2403 70.412C42.236 70.411 42.2329 70.4094 42.2314 70.4083C42.23 70.4073 42.2316 70.4081 42.2342 70.4122C42.2356 70.4143 42.2368 70.4168 42.2378 70.4194C42.2388 70.4222 42.2392 70.424 42.2392 70.4243L40.2599 70.7112ZM28.8771 76.3972C29.5736 77.4307 30.9408 77.485 31.7971 76.8114L30.5605 75.2395C30.5501 75.2476 30.5396 75.2526 30.5298 75.2554C30.5194 75.2583 30.5115 75.2582 30.5078 75.2578C30.5044 75.2574 30.5079 75.2572 30.5159 75.2619C30.5199 75.2642 30.5241 75.2673 30.528 75.2709C30.532 75.2747 30.5345 75.2779 30.5356 75.2795L28.8771 76.3972ZM67.6717 50.923C67.8792 51.2471 67.8066 51.6664 67.5197 51.9043L66.2432 50.3647C65.762 50.7636 65.6438 51.4649 65.9874 52.0015L67.6717 50.923ZM57.9726 70.9567C57.9622 70.954 57.9536 70.9482 57.9469 70.9383C57.9436 70.9335 57.9418 70.9289 57.941 70.9254C57.9403 70.9224 57.94 70.9192 57.9406 70.9145L55.9596 70.6396C55.8164 71.6714 56.477 72.6375 57.4752 72.8938L57.9726 70.9567ZM39.5407 56.1804C39.691 55.195 39.1042 54.2545 38.1719 53.9402L37.5331 55.8354C37.5437 55.839 37.5521 55.8457 37.5581 55.8554C37.5639 55.8648 37.5646 55.8722 37.5636 55.8787L39.5407 56.1804ZM37.0336 63.3191C38.1232 63.3191 38.9951 62.4529 39.0411 61.3876L37.043 61.3013C37.0428 61.3059 37.0419 61.3086 37.041 61.3104C37.04 61.3128 37.0383 61.3152 37.0363 61.3171C37.0343 61.3191 37.033 61.3195 37.0334 61.3194C37.0337 61.3193 37.0341 61.3191 37.0345 61.3191C37.035 61.319 37.0348 61.3191 37.0336 61.3191V63.3191ZM67.5092 75.5301C67.7991 75.7687 67.8664 76.1873 67.6624 76.5053L65.9789 75.4256C65.6346 75.9625 65.7477 76.6708 66.2384 77.0745L67.5092 75.5301ZM70.2688 66.2696C70.4051 65.0695 69.4438 64.0949 68.3033 64.0949V66.0949C68.3055 66.0949 68.3008 66.0947 68.2956 66.0892C68.2929 66.0862 68.2885 66.0802 68.2851 66.0704C68.2814 66.0594 68.281 66.0492 68.2816 66.0439L70.2688 66.2696ZM25.145 61.1444C25.0087 62.3444 25.9699 63.3191 27.1104 63.3191V61.3191C27.1083 61.3191 27.113 61.3192 27.1182 61.3248C27.1209 61.3278 27.1253 61.3337 27.1286 61.3436C27.1324 61.3545 27.1328 61.3647 27.1322 61.37L25.145 61.1444ZM67.6637 77.3075C68.1125 76.7827 68.0563 75.9803 67.5092 75.5301L66.2384 77.0745C65.9073 76.8021 65.8767 76.3199 66.1437 76.0076L67.6637 77.3075ZM65.5826 74.1586C65.5836 74.1568 65.5858 74.1536 65.5894 74.1497C65.5929 74.146 65.5967 74.1427 65.6003 74.1402C65.6077 74.1351 65.6116 74.1347 65.6094 74.1351C65.6071 74.1356 65.6009 74.1363 65.5922 74.1347C65.5839 74.1332 65.5746 74.1299 65.5648 74.1237L64.4958 75.8141C65.3957 76.3832 66.7016 76.2072 67.3091 75.1681L65.5826 74.1586ZM30.522 52.1545C30.5209 52.1561 30.5184 52.1593 30.5144 52.1631C30.5105 52.1668 30.5063 52.1698 30.5024 52.1721C30.4945 52.1768 30.4911 52.1765 30.4947 52.1761C30.4986 52.1756 30.5068 52.1755 30.5175 52.1785C30.5277 52.1814 30.5385 52.1865 30.549 52.1947L31.782 50.62C30.925 49.949 29.5578 50.0039 28.8621 51.0388L30.522 52.1545ZM53.2208 70.0965C53.2209 70.0959 53.2212 70.0942 53.2221 70.0917C53.2229 70.0892 53.224 70.087 53.2252 70.085C53.2275 70.0812 53.229 70.0804 53.2279 70.0812C53.2267 70.0821 53.2241 70.0836 53.2204 70.0847C53.2172 70.0856 53.2127 70.0862 53.2064 70.0855L52.9803 72.0727C54.0296 72.192 55.0502 71.4781 55.2023 70.368L53.2208 70.0965ZM38.1757 73.5025C39.1088 73.1883 39.696 72.2468 39.5449 71.2608L37.5679 71.5638C37.5689 71.5703 37.5683 71.5777 37.5625 71.5871C37.5565 71.5968 37.5481 71.6035 37.5374 71.6071L38.1757 73.5025ZM57.5068 73.7029C56.3992 73.4094 55.3443 74.1179 55.0761 75.1477L57.0115 75.6517C57.0132 75.6453 57.0155 75.6414 57.0174 75.6388C57.0197 75.6357 57.0217 75.6343 57.0222 75.634C57.0225 75.6338 57.0196 75.6356 57.013 75.6367C57.0097 75.6372 57.006 75.6374 57.0022 75.6373C56.9984 75.6371 56.9957 75.6365 56.9944 75.6362L57.5068 73.7029ZM57.4787 54.5494C56.4813 54.8058 55.821 55.7709 55.9635 56.8021L57.9447 56.5285C57.944 56.5238 57.9443 56.5206 57.945 56.5176C57.9459 56.5141 57.9477 56.5096 57.951 56.5047C57.9576 56.4949 57.9662 56.4891 57.9767 56.4864L57.4787 54.5494ZM32.2501 50.0441C32.2509 50.0432 32.251 50.0432 32.2505 50.0436C32.2501 50.0439 32.2499 50.044 32.2501 50.0439C32.2506 50.0436 32.2548 50.0418 32.2633 50.0413C32.282 50.0401 32.3072 50.0459 32.3296 50.0633L33.5532 48.4812C32.7407 47.8529 31.5158 47.873 30.7657 48.7037L32.2501 50.0441ZM64.5094 79.2462C64.9919 79.6477 65.7108 79.5909 66.1224 79.1096L64.6025 77.8097C64.9056 77.4553 65.4345 77.4142 65.7886 77.7088L64.5094 79.2462ZM68.3033 63.3191C69.4438 63.3191 70.4051 62.3445 70.2688 61.1444L68.2816 61.3701C68.281 61.3647 68.2814 61.3546 68.2852 61.3436C68.2885 61.3337 68.2929 61.3278 68.2956 61.3248C68.3008 61.3192 68.3055 61.3191 68.3033 61.3191V63.3191ZM37.9183 53.0313C39.0529 53.4392 40.1997 52.7364 40.4987 51.6707L38.573 51.1304C38.5711 51.1375 38.5684 51.1418 38.5661 51.1446C38.5634 51.148 38.5611 51.1495 38.5607 51.1497C38.5604 51.1498 38.5642 51.1477 38.5725 51.147C38.5766 51.1466 38.5811 51.1466 38.5856 51.1472C38.5902 51.1478 38.5935 51.1487 38.5949 51.1493L37.9183 53.0313ZM41.8242 66.0739C41.8242 66.0739 41.8242 66.0743 41.8241 66.0751C41.8241 66.0759 41.824 66.0769 41.8238 66.0781C41.8234 66.0805 41.8227 66.0829 41.8219 66.0852C41.8202 66.0896 41.8183 66.0918 41.8175 66.0926C41.8168 66.0933 41.8161 66.0939 41.815 66.0944C41.8131 66.0951 41.8123 66.0949 41.8143 66.0949V64.0949C40.6938 64.0949 39.7711 65.0238 39.8265 66.1705L41.8242 66.0739ZM27.1322 66.044C27.1328 66.0493 27.1324 66.0594 27.1287 66.0704C27.1253 66.0802 27.1209 66.0862 27.1182 66.0891C27.1131 66.0947 27.1084 66.0949 27.1105 66.0949V64.0949C25.9699 64.0949 25.0087 65.0696 25.145 66.2696L27.1322 66.044ZM40.6464 44.2409C40.5534 44.2746 40.4914 44.2307 40.527 44.2528C40.5805 44.286 40.6831 44.3807 40.7835 44.5576C40.8807 44.7289 40.9425 44.9197 40.9605 45.083C40.9795 45.2539 40.9442 45.3176 40.9474 45.3121L42.6719 46.3251C42.9532 45.8461 42.998 45.3115 42.9484 44.863C42.8979 44.4069 42.7424 43.9572 42.5231 43.5707C42.3069 43.1897 41.9938 42.8092 41.5815 42.5533C41.1513 42.2864 40.5737 42.1398 39.9644 42.3608L40.6464 44.2409Z" fill="url(#paint4_linear_59_647)"/>
<defs>
<linearGradient id="paint0_linear_59_647" x1="64" y1="118" x2="64" y2="10" gradientUnits="userSpaceOnUse">
<stop stop-color="#5570FF"/>
<stop offset="1" stop-color="#4DD3FF"/>
</linearGradient>
<linearGradient id="paint1_linear_59_647" x1="95.8122" y1="52" x2="95.8122" y2="10.4048" gradientUnits="userSpaceOnUse">
<stop stop-color="#5570FF"/>
<stop offset="1" stop-color="#4DD3FF"/>
</linearGradient>
<linearGradient id="paint2_linear_59_647" x1="49" y1="116.5" x2="49" y2="52.5" gradientUnits="userSpaceOnUse">
<stop stop-color="#5570FF"/>
<stop offset="1" stop-color="#4DD3FF"/>
</linearGradient>
<linearGradient id="paint3_linear_59_647" x1="47.7069" y1="86.4138" x2="47.7069" y2="41" gradientUnits="userSpaceOnUse">
<stop stop-color="#5570FF"/>
<stop offset="1" stop-color="#4DD3FF"/>
</linearGradient>
<linearGradient id="paint4_linear_59_647" x1="47.7069" y1="86.4138" x2="47.7069" y2="41" gradientUnits="userSpaceOnUse">
<stop stop-color="#5570FF"/>
<stop offset="1" stop-color="#4DD3FF"/>
</linearGradient>
</defs>
</svg>
