<svg width="128" height="128" viewBox="0 0 128 128" fill="none" xmlns="http://www.w3.org/2000/svg">
<path opacity="0.4" d="M11 38C11 22.536 23.536 10 39 10H69C95.5097 10 117 31.4903 117 58V90C117 105.464 104.464 118 89 118H39C23.536 118 11 105.464 11 90V38Z" fill="url(#paint0_linear_59_691)"/>
<path fill-rule="evenodd" clip-rule="evenodd" d="M116.624 52H89C81.268 52 75 45.732 75 38V10.4048C96.7012 13.1109 113.903 30.3034 116.624 52ZM24.1716 79.7316C24.9217 78.9814 25.9391 78.56 27 78.56H69.6667C70.7275 78.56 71.7449 78.9814 72.4951 79.7316C73.2452 80.4817 73.6667 81.4991 73.6667 82.56C73.6667 83.6209 73.2452 84.6383 72.4951 85.3884C71.7449 86.1386 70.7275 86.56 69.6667 86.56H27C25.9391 86.56 24.9217 86.1386 24.1716 85.3884C23.4214 84.6383 23 83.6209 23 82.56C23 81.4991 23.4214 80.4817 24.1716 79.7316ZM24.1716 96.3982C24.9217 95.6481 25.9391 95.2267 27 95.2267H56.3333C57.3942 95.2267 58.4116 95.6481 59.1618 96.3982C59.9119 97.1484 60.3333 98.1658 60.3333 99.2267C60.3333 100.288 59.9119 101.305 59.1618 102.055C58.4116 102.805 57.3942 103.227 56.3333 103.227H27C25.9391 103.227 24.9217 102.805 24.1716 102.055C23.4214 101.305 23 100.288 23 99.2267C23 98.1658 23.4214 97.1484 24.1716 96.3982ZM23 67.1985C23 67.7508 23.4477 68.1985 24 68.1985H29.914C30.4662 68.1985 30.914 67.7508 30.914 67.1985V55.9377C30.914 54.9452 32.2037 54.5589 32.7493 55.3879L36.6598 61.3297C37.0549 61.93 37.9355 61.93 38.3305 61.3295L42.2384 55.3892C42.7839 54.56 44.0739 54.9463 44.0739 55.9388V67.1985C44.0739 67.7508 44.5216 68.1985 45.0739 68.1985H50.9871C51.5394 68.1985 51.9871 67.7508 51.9871 67.1985V42C51.9871 41.4477 51.5394 41 50.9871 41H44.613C44.2765 41 43.9625 41.1693 43.7776 41.4504L38.3312 49.73C37.9362 50.3306 37.0555 50.3306 36.6604 49.7302L31.2116 41.4503C31.0267 41.1692 30.7127 41 30.3763 41H24C23.4477 41 23 41.4477 23 42V67.1985ZM63.3839 67.3718C63.7811 67.8135 64.4736 67.8135 64.8709 67.3718L74.4991 56.6672C75.078 56.0236 74.6212 54.9984 73.7556 54.9984H69.0854C68.5331 54.9984 68.0854 54.5507 68.0854 53.9984V42C68.0854 41.4477 67.6377 41 67.0854 41H61.1707C60.6184 41 60.1707 41.4477 60.1707 42V53.9991C60.1707 54.5514 59.723 54.9991 59.1707 54.9991H54.501C53.6354 54.9991 53.1787 56.0242 53.7575 56.6678L63.3839 67.3718Z" fill="url(#paint1_linear_59_691)"/>
<defs>
<linearGradient id="paint0_linear_59_691" x1="64" y1="118" x2="64" y2="10" gradientUnits="userSpaceOnUse">
<stop stop-color="#5570FF"/>
<stop offset="1" stop-color="#4DD3FF"/>
</linearGradient>
<linearGradient id="paint1_linear_59_691" x1="69.8122" y1="103.227" x2="69.8122" y2="10.4048" gradientUnits="userSpaceOnUse">
<stop stop-color="#5558FF"/>
<stop offset="1" stop-color="#00C0FF"/>
</linearGradient>
</defs>
</svg>
