<svg width="128" height="128" viewBox="0 0 128 128" fill="none" xmlns="http://www.w3.org/2000/svg">
<path opacity="0.4" d="M11 38C11 22.536 23.536 10 39 10H69C95.5097 10 117 31.4903 117 58V90C117 105.464 104.464 118 89 118H39C23.536 118 11 105.464 11 90V38Z" fill="url(#paint0_linear_63_419)"/>
<path fill-rule="evenodd" clip-rule="evenodd" d="M116.624 52H89C81.268 52 75 45.732 75 38V10.4048C96.7012 13.1109 113.903 30.3034 116.624 52Z" fill="url(#paint1_linear_63_419)"/>
<path fill-rule="evenodd" clip-rule="evenodd" d="M52.9096 96.3328L51.6088 98.5312C50.4496 100.49 47.5528 100.49 46.3912 98.5312L45.0904 96.3328L45.0824 96.3192C44.0797 94.6243 43.5762 93.7732 42.7672 93.304C41.9581 92.8324 40.9413 92.8145 38.9119 92.7787L38.896 92.7784C35.8816 92.728 33.9928 92.5432 32.4088 91.8856C30.9529 91.2825 29.63 90.3986 28.5157 89.2843C27.4014 88.17 26.5175 86.8471 25.9144 85.3912C25 83.188 25 80.392 25 74.8V72.4C25 64.5448 25 60.616 26.7688 57.7312C27.7577 56.1165 29.1147 54.7587 30.7288 53.7688C33.616 52 37.5472 52 45.4 52H52.6C60.4552 52 64.384 52 67.2712 53.7688C68.8851 54.758 70.242 56.1149 71.2312 57.7288C73 60.616 73 64.5472 73 72.4V72.4V74.8V74.8001C73 80.392 73 83.188 72.088 85.3912C71.4847 86.8473 70.6004 88.1704 69.4856 89.2847C68.3709 90.399 67.0476 91.2828 65.5912 91.8856C64.0072 92.5432 62.1184 92.7256 59.104 92.7784L59.0881 92.7787C57.0587 92.8145 56.0419 92.8324 55.2328 93.304C54.4216 93.7744 53.9176 94.6264 52.9096 96.3328ZM32.7944 81.1213C33.3031 81.6839 33.993 82 34.7123 82H62.2877C63.007 82 63.6969 81.6839 64.2056 81.1213C64.7142 80.5587 65 79.7957 65 79C65 78.2043 64.7142 77.4413 64.2056 76.8787C63.6969 76.3161 63.007 76 62.2877 76H34.7123C33.993 76 33.3031 76.3161 32.7944 76.8787C32.2858 77.4413 32 78.2043 32 79C32 79.7957 32.2858 80.5587 32.7944 81.1213ZM34.7123 69C33.993 69 33.3031 68.6839 32.7944 68.1213C32.2858 67.5587 32 66.7956 32 66C32 65.2044 32.2858 64.4413 32.7944 63.8787C33.3031 63.3161 33.993 63 34.7123 63H52.2877C53.007 63 53.6969 63.3161 54.2056 63.8787C54.7142 64.4413 55 65.2044 55 66C55 66.7956 54.7142 67.5587 54.2056 68.1213C53.6969 68.6839 53.007 69 52.2877 69H34.7123Z" fill="url(#paint2_linear_63_419)"/>
<defs>
<linearGradient id="paint0_linear_63_419" x1="64" y1="118" x2="64" y2="10" gradientUnits="userSpaceOnUse">
<stop stop-color="#A93AFF"/>
<stop offset="1" stop-color="#FF81FF"/>
</linearGradient>
<linearGradient id="paint1_linear_63_419" x1="95.8122" y1="10.4048" x2="95.8122" y2="52" gradientUnits="userSpaceOnUse">
<stop stop-color="#DC18FC"/>
<stop offset="1" stop-color="#8E1EFF"/>
</linearGradient>
<linearGradient id="paint2_linear_63_419" x1="48.9999" y1="52" x2="48.9999" y2="100" gradientUnits="userSpaceOnUse">
<stop stop-color="#DC18FC"/>
<stop offset="1" stop-color="#8E1EFF"/>
</linearGradient>
</defs>
</svg>
