<svg width="128" height="128" viewBox="0 0 128 128" fill="none" xmlns="http://www.w3.org/2000/svg">
<path opacity="0.4" d="M11 38C11 22.536 23.536 10 39 10H69C95.5097 10 117 31.4903 117 58V90C117 105.464 104.464 118 89 118H39C23.536 118 11 105.464 11 90V38Z" fill="url(#paint0_linear_65_77)"/>
<path fill-rule="evenodd" clip-rule="evenodd" d="M116.624 52H89C81.268 52 75 45.732 75 38V10.4048C96.7012 13.1109 113.903 30.3034 116.624 52ZM26.1716 79.7316C26.9217 78.9815 27.9391 78.5601 29 78.5601H71.6667C72.7275 78.5601 73.7449 78.9815 74.4951 79.7316C75.2452 80.4818 75.6667 81.4992 75.6667 82.5601C75.6667 83.6209 75.2452 84.6383 74.4951 85.3885C73.7449 86.1386 72.7275 86.5601 71.6667 86.5601H29C27.9391 86.5601 26.9217 86.1386 26.1716 85.3885C25.4214 84.6383 25 83.6209 25 82.5601C25 81.4992 25.4214 80.4818 26.1716 79.7316ZM26.1716 96.3983C26.9217 95.6482 27.9391 95.2267 29 95.2267H58.3333C59.3942 95.2267 60.4116 95.6482 61.1618 96.3983C61.9119 97.1484 62.3333 98.1659 62.3333 99.2267C62.3333 100.288 61.9119 101.305 61.1618 102.055C60.4116 102.805 59.3942 103.227 58.3333 103.227H29C27.9391 103.227 26.9217 102.805 26.1716 102.055C25.4214 101.305 25 100.288 25 99.2267C25 98.1659 25.4214 97.1484 26.1716 96.3983ZM35.2715 32.5664C38.5728 30.8542 42.3918 30 46.7324 30C50.9508 30 54.5591 30.7568 57.5547 32.2676C60.6115 33.7784 62.932 35.9197 64.5215 38.6895C66.1721 41.4089 67 44.605 67 48.2812V50C67 50.5523 66.5523 51 66 51H40.6978C40.1468 51 39.7038 51.4454 39.7326 51.9956C39.9095 55.38 41.0812 66.2194 48.8359 66C55.8629 65.8012 58.8935 61.0213 59.9301 58.7848C60.1961 58.2108 60.9028 57.9263 61.4625 58.2212L66.954 61.1137C67.44 61.3697 67.6238 61.9608 67.322 62.4198C65.6936 64.8956 60.0456 71.9706 48.6602 72C44.0139 72 39.8863 71.2174 36.2793 69.6562C32.7334 68.0951 29.9472 65.7848 27.9297 62.7129C25.9734 59.5906 25 55.7867 25 51.3047C25 46.873 25.8872 43.0691 27.6602 39.8965C29.4942 36.7238 32.0313 34.2786 35.2715 32.5664ZM50.5938 40.6875C49.6853 39.5633 48.2505 39 46.2871 39C44.441 39 42.9768 39.5394 41.8926 40.6113C41.053 41.4436 40.481 42.5386 40.179 43.8999C40.0501 44.4809 40.5197 45 41.1149 45H50.9834C51.5421 45 51.9996 44.5405 51.9312 43.986C51.7683 42.6676 51.3227 41.5686 50.5938 40.6875Z" fill="url(#paint1_linear_65_77)"/>
<defs>
<linearGradient id="paint0_linear_65_77" x1="114.01" y1="64" x2="25.1862" y2="32.4641" gradientUnits="userSpaceOnUse">
<stop stop-color="#FE7970"/>
<stop offset="1" stop-color="#DC3282"/>
</linearGradient>
<linearGradient id="paint1_linear_65_77" x1="113.529" y1="13.0579" x2="76.9826" y2="103.641" gradientUnits="userSpaceOnUse">
<stop stop-color="#FE0F7C"/>
<stop offset="1" stop-color="#DF0066"/>
</linearGradient>
</defs>
</svg>
