<svg width="128" height="128" viewBox="0 0 128 128" fill="none" xmlns="http://www.w3.org/2000/svg">
<path opacity="0.4" d="M11 38C11 22.536 23.536 10 39 10H69C95.5097 10 117 31.4903 117 58V90C117 105.464 104.464 118 89 118H39C23.536 118 11 105.464 11 90V38Z" fill="url(#paint0_linear_59_768)"/>
<path fill-rule="evenodd" clip-rule="evenodd" d="M116.624 52H89C81.268 52 75 45.732 75 38V10.4048C96.7012 13.1109 113.903 30.3034 116.624 52ZM26.1716 81.1716C26.9217 80.4214 27.9391 80 29 80H71.6667C72.7275 80 73.7449 80.4214 74.4951 81.1716C75.2452 81.9217 75.6667 82.9391 75.6667 84C75.6667 85.0609 75.2452 86.0783 74.4951 86.8284C73.7449 87.5786 72.7275 88 71.6667 88H29C27.9391 88 26.9217 87.5786 26.1716 86.8284C25.4214 86.0783 25 85.0609 25 84C25 82.9391 25.4214 81.9217 26.1716 81.1716ZM26.1716 97.8382C26.9217 97.0881 27.9391 96.6667 29 96.6667H58.3333C59.3942 96.6667 60.4116 97.0881 61.1618 97.8382C61.9119 98.5884 62.3333 99.6058 62.3333 100.667C62.3333 101.728 61.9119 102.745 61.1618 103.495C60.4116 104.245 59.3942 104.667 58.3333 104.667H29C27.9391 104.667 26.9217 104.245 26.1716 103.495C25.4214 102.745 25 101.728 25 100.667C25 99.6058 25.4214 98.5884 26.1716 97.8382ZM46.2904 60.6113C46.3768 60.037 45.9141 59.5428 45.3334 59.5428H41.4198C40.8967 59.5428 40.4695 59.9479 40.38 60.4633C40.156 61.7534 39.6741 62.7416 38.9341 63.4282C38.0403 64.2561 36.6795 64.6705 34.8521 64.6705C32.8274 64.6705 31.3418 63.954 30.3952 62.5206C29.4618 61.0877 28.9951 58.8199 28.9951 55.7173V53.5481C29.0214 50.5768 29.521 48.3877 30.4938 46.981C31.4799 45.561 32.9589 44.851 34.931 44.851C36.7453 44.851 38.0928 45.2718 38.9737 46.1131C39.7127 46.7977 40.1954 47.8327 40.4223 49.2175C40.5068 49.7327 40.9344 50.1361 41.4565 50.1361H45.3447C45.9357 50.1361 46.4012 49.6251 46.3025 49.0425C45.8476 46.3568 44.7257 44.2299 42.9374 42.662C40.9127 40.8873 38.2439 40 34.931 40C32.5382 40 30.4347 40.565 28.6204 41.6959C26.8192 42.8134 25.4322 44.4237 24.4593 46.5275C23.4864 48.6309 23 51.063 23 53.8239V55.5792C23 59.9047 24.0518 63.3098 26.1553 65.7945C28.272 68.2662 31.1709 69.5021 34.8521 69.5021C38.2176 69.5021 40.926 68.6143 42.9769 66.8397C44.7971 65.2746 45.9016 63.1985 46.2904 60.6113ZM59.6923 61.0218C60.3138 61.0218 60.7848 61.5827 60.6773 62.1948L59.6692 67.9345C59.5617 68.5466 60.0327 69.1075 60.6542 69.1075H62.2326C62.7182 69.1075 63.1335 68.7587 63.2175 68.2805L64.3471 61.8489C64.4311 61.3706 64.8464 61.0218 65.332 61.0218H68.5012C69.0535 61.0218 69.5012 60.5741 69.5012 60.0218V58.6301C69.5012 58.0778 69.0535 57.6301 68.5012 57.6301H66.2751C65.6534 57.6301 65.1824 57.0689 65.2902 56.4566L65.9243 52.8561C66.0085 52.3781 66.4238 52.0295 66.9091 52.0295H70C70.5523 52.0295 71 51.5818 71 51.0295V49.5982C71 49.0459 70.5523 48.5982 70 48.5982H67.8721C67.2507 48.5982 66.7797 48.0374 66.8871 47.4253L67.915 41.567C68.0224 40.955 67.5514 40.3942 66.93 40.3942H65.3515C64.8659 40.3942 64.4505 40.7431 64.3666 41.2214L63.2174 47.771C63.1335 48.2493 62.7181 48.5982 62.2325 48.5982H60.4371C59.8157 48.5982 59.3448 48.0374 59.4522 47.4253L60.4803 41.5671C60.5877 40.955 60.1168 40.3942 59.4954 40.3942H57.9367C57.4511 40.3942 57.0357 40.7431 56.9518 41.2214L55.8026 47.771C55.7187 48.2493 55.3033 48.5982 54.8177 48.5982H51.4709C50.9186 48.5982 50.4709 49.0459 50.4709 49.5982V51.0295C50.4709 51.5818 50.9186 52.0295 51.4709 52.0295H53.8546C54.4762 52.0295 54.9472 52.5907 54.8395 53.2029L54.2057 56.8034C54.1215 57.2815 53.7062 57.6301 53.2208 57.6301H49.9919C49.4396 57.6301 48.9919 58.0778 48.9919 58.6301V60.0218C48.9919 60.5741 49.4396 61.0218 49.9919 61.0218H52.2775C52.899 61.0218 53.37 61.5827 53.2625 62.1948L52.2544 67.9345C52.1469 68.5466 52.6179 69.1075 53.2394 69.1075H54.8178C55.3033 69.1075 55.7187 68.7587 55.8027 68.2804L56.9319 61.8489C57.0159 61.3707 57.4313 61.0218 57.9168 61.0218H59.6923ZM58.8561 57.6301C58.2359 57.6301 57.7652 57.0713 57.8707 56.46L58.4921 52.8595C58.5748 52.3799 58.9908 52.0295 59.4775 52.0295H61.2694C61.891 52.0295 62.362 52.5907 62.2543 53.2029L61.6205 56.8034C61.5363 57.2815 61.121 57.6301 60.6356 57.6301H58.8561Z" fill="url(#paint1_linear_59_768)"/>
<defs>
<linearGradient id="paint0_linear_59_768" x1="11.0155" y1="62.3998" x2="117.018" y2="62.3998" gradientUnits="userSpaceOnUse">
<stop stop-color="#A93AFF"/>
<stop offset="1" stop-color="#FF81FF"/>
</linearGradient>
<linearGradient id="paint1_linear_59_768" x1="69.8122" y1="104.667" x2="69.8122" y2="10.4048" gradientUnits="userSpaceOnUse">
<stop stop-color="#A93AFF"/>
<stop offset="1" stop-color="#FF81FF"/>
</linearGradient>
</defs>
</svg>
