<svg width="128" height="128" viewBox="0 0 128 128" fill="none" xmlns="http://www.w3.org/2000/svg">
<path opacity="0.4" d="M11 38C11 22.536 23.536 10 39 10H69C95.5097 10 117 31.4903 117 58V90C117 105.464 104.464 118 89 118H39C23.536 118 11 105.464 11 90V38Z" fill="url(#paint0_linear_68_189)"/>
<path fill-rule="evenodd" clip-rule="evenodd" d="M116.624 52H89C81.268 52 75 45.732 75 38V10.4048C96.7012 13.1109 113.903 30.3034 116.624 52ZM27 42C26.4477 42 26 42.4477 26 43V65V87C26 87.5523 26.4477 88 27 88H69.0401C69.997 88 70.4074 86.7852 69.6465 86.2049L49.3125 70.695C48.8591 70.3491 48.7863 69.6946 49.1526 69.2575L70.6233 43.6424C71.1688 42.9916 70.7061 42 69.857 42H49H27ZM30 103C28.9391 103 27.9217 102.579 27.1716 101.828C26.4214 101.078 26 100.061 26 99C26 97.9391 26.4214 96.9217 27.1716 96.1716C27.9217 95.4214 28.9391 95 30 95H70.6667C71.7275 95 72.7449 95.4214 73.4951 96.1716C74.2452 96.9217 74.6667 97.9391 74.6667 99C74.6667 100.061 74.2452 101.078 73.4951 101.828C72.7449 102.579 71.7275 103 70.6667 103H30Z" fill="url(#paint1_linear_68_189)"/>
<defs>
<linearGradient id="paint0_linear_68_189" x1="106.4" y1="4.6" x2="12.2479" y2="108.692" gradientUnits="userSpaceOnUse">
<stop stop-color="#FB457A"/>
<stop offset="1" stop-color="#A500FF"/>
</linearGradient>
<linearGradient id="paint1_linear_68_189" x1="107.562" y1="5.77502" x2="26.817" y2="94.7933" gradientUnits="userSpaceOnUse">
<stop stop-color="#FB457A"/>
<stop offset="1" stop-color="#A500FF"/>
</linearGradient>
</defs>
</svg>
