<svg width="128" height="128" viewBox="0 0 128 128" fill="none" xmlns="http://www.w3.org/2000/svg">
<path opacity="0.4" d="M11 38C11 22.536 23.536 10 39 10H69C95.5097 10 117 31.4903 117 58V90C117 105.464 104.464 118 89 118H39C23.536 118 11 105.464 11 90V38Z" fill="url(#paint0_linear_65_86)"/>
<path fill-rule="evenodd" clip-rule="evenodd" d="M116.624 52H89C81.268 52 75 45.732 75 38V10.4048C96.7012 13.1109 113.903 30.3034 116.624 52Z" fill="url(#paint1_linear_65_86)"/>
<path fill-rule="evenodd" clip-rule="evenodd" d="M66.1575 39.3106C66.7886 39.1528 67.4 39.6302 67.4 40.2808V47.8192C67.4 48.2781 67.0877 48.6781 66.6425 48.7894L30.2425 57.8894C29.6114 58.0471 29 57.5698 29 56.9192V49.3808C29 48.9219 29.3123 48.5219 29.7575 48.4106L66.1575 39.3106ZM66.1575 53.7106C66.7886 53.5528 67.4 54.0302 67.4 54.6808V62.2192C67.4 62.6781 67.0877 63.0781 66.6425 63.1894L30.2425 72.2894C29.6114 72.4471 29 71.9698 29 71.3192V63.7808C29 63.3219 29.3123 62.9219 29.7575 62.8106L66.1575 53.7106ZM66.1575 68.1106C66.7886 67.9528 67.4 68.4302 67.4 69.0808V76.6192C67.4 77.0781 67.0877 77.4781 66.6425 77.5894L30.2425 86.6894C29.6114 86.8471 29 86.3698 29 85.7192V78.1808C29 77.7219 29.3123 77.3219 29.7575 77.2106L66.1575 68.1106ZM28 101C26.9391 101 25.9217 100.578 25.1716 99.8282C24.4214 99.0781 24 98.0607 24 96.9998C24 95.9389 24.4214 94.9215 25.1716 94.1714C25.9217 93.4212 26.9391 92.9998 28 92.9998H68.6667C69.7275 92.9998 70.7449 93.4212 71.4951 94.1714C72.2452 94.9215 72.6667 95.9389 72.6667 96.9998C72.6667 98.0607 72.2452 99.0781 71.4951 99.8282C70.7449 100.578 69.7275 101 68.6667 101H28Z" fill="url(#paint2_linear_65_86)"/>
<defs>
<linearGradient id="paint0_linear_65_86" x1="109.181" y1="-12.6267" x2="13.5701" y2="88.0673" gradientUnits="userSpaceOnUse">
<stop stop-color="#FE7970"/>
<stop offset="1" stop-color="#D92B1A"/>
</linearGradient>
<linearGradient id="paint1_linear_65_86" x1="113.554" y1="1.6903" x2="76.7743" y2="41.1841" gradientUnits="userSpaceOnUse">
<stop stop-color="#FE7970"/>
<stop offset="1" stop-color="#D92B1A"/>
</linearGradient>
<linearGradient id="paint2_linear_65_86" x1="69.0768" y1="26.3496" x2="15.1192" y2="72.0033" gradientUnits="userSpaceOnUse">
<stop stop-color="#FE7970"/>
<stop offset="1" stop-color="#D92B1A"/>
</linearGradient>
</defs>
</svg>
