<svg width="128" height="128" viewBox="0 0 128 128" fill="none" xmlns="http://www.w3.org/2000/svg">
<path opacity="0.4" d="M11 38C11 22.536 23.536 10 39 10H69C95.5097 10 117 31.4903 117 58V90C117 105.464 104.464 118 89 118H39C23.536 118 11 105.464 11 90V38Z" fill="url(#paint0_linear_59_740)"/>
<path fill-rule="evenodd" clip-rule="evenodd" d="M89 52H116.624C113.903 30.3034 96.7012 13.1109 75 10.4048V38C75 45.732 81.268 52 89 52ZM30 80.5601C28.9391 80.5601 27.9217 80.9815 27.1716 81.7316C26.4214 82.4818 26 83.4992 26 84.5601C26 85.6209 26.4214 86.6383 27.1716 87.3885C27.9217 88.1386 28.9391 88.5601 30 88.5601H72.6667C73.7275 88.5601 74.7449 88.1386 75.4951 87.3885C76.2452 86.6383 76.6667 85.6209 76.6667 84.5601C76.6667 83.4992 76.2452 82.4818 75.4951 81.7316C74.7449 80.9815 73.7275 80.5601 72.6667 80.5601H30ZM30 97.2267C28.9391 97.2267 27.9217 97.6482 27.1716 98.3983C26.4214 99.1484 26 100.166 26 101.227C26 102.288 26.4214 103.305 27.1716 104.055C27.9217 104.805 28.9391 105.227 30 105.227H59.3333C60.3942 105.227 61.4116 104.805 62.1618 104.055C62.9119 103.305 63.3333 102.288 63.3333 101.227C63.3333 100.166 62.9119 99.1484 62.1618 98.3983C61.4116 97.6482 60.3942 97.2267 59.3333 97.2267H30Z" fill="url(#paint1_linear_59_740)"/>
<path d="M37.6549 37.6057C37.6549 39.4763 40.2842 40.5405 42.0107 39.8204C43.3265 39.2717 44.7595 38.9974 46.3098 38.9974C53.3378 38.9974 56.9013 43.0801 57.0014 51.246V70C57.0014 71.1046 56.106 72 55.0014 72H50.3465C49.2419 72 48.3465 71.1046 48.3465 70V51.4856C48.3465 49.6289 47.947 48.2611 47.1485 47.3828C46.3499 46.4845 45.0222 46.0351 43.1655 46.0351C40.8348 46.0351 39.0943 46.8619 37.9444 48.515C37.7427 48.805 37.6549 49.1562 37.6549 49.5095V70C37.6549 71.1046 36.7594 72 35.6549 72H31C29.8954 72 29 71.1046 29 70V28C29 26.8954 29.8954 26 31 26H35.6549C36.7594 26 37.6549 26.8954 37.6549 28V37.6057Z" fill="url(#paint2_linear_59_740)"/>
<defs>
<linearGradient id="paint0_linear_59_740" x1="64" y1="118" x2="64" y2="10" gradientUnits="userSpaceOnUse">
<stop stop-color="#FD3A84"/>
<stop offset="1" stop-color="#FFA68D"/>
</linearGradient>
<linearGradient id="paint1_linear_59_740" x1="116.356" y1="11.0059" x2="22.416" y2="100.04" gradientUnits="userSpaceOnUse">
<stop stop-color="#FE7970"/>
<stop offset="1" stop-color="#DC3282"/>
</linearGradient>
<linearGradient id="paint2_linear_59_740" x1="62.5762" y1="15.3926" x2="26.8811" y2="51.5952" gradientUnits="userSpaceOnUse">
<stop stop-color="#FE7970"/>
<stop offset="1" stop-color="#DC3282"/>
</linearGradient>
</defs>
</svg>
