<svg width="128" height="128" viewBox="0 0 128 128" fill="none" xmlns="http://www.w3.org/2000/svg">
<path opacity="0.4" d="M11 38C11 22.536 23.536 10 39 10H69C95.5097 10 117 31.4903 117 58V90C117 105.464 104.464 118 89 118H39C23.536 118 11 105.464 11 90V38Z" fill="url(#paint0_linear_65_97)"/>
<path fill-rule="evenodd" clip-rule="evenodd" d="M116.624 52H89C81.268 52 75 45.732 75 38V10.4048C96.7012 13.1109 113.903 30.3034 116.624 52ZM26.1716 79.7316C26.9217 78.9815 27.9391 78.5601 29 78.5601H71.6667C72.7275 78.5601 73.7449 78.9815 74.4951 79.7316C75.2452 80.4818 75.6667 81.4992 75.6667 82.5601C75.6667 83.6209 75.2452 84.6383 74.4951 85.3885C73.7449 86.1386 72.7275 86.5601 71.6667 86.5601H29C27.9391 86.5601 26.9217 86.1386 26.1716 85.3885C25.4214 84.6383 25 83.6209 25 82.5601C25 81.4992 25.4214 80.4818 26.1716 79.7316ZM26.1716 96.3983C26.9217 95.6482 27.9391 95.2267 29 95.2267H58.3333C59.3942 95.2267 60.4116 95.6482 61.1618 96.3983C61.9119 97.1484 62.3333 98.1659 62.3333 99.2267C62.3333 100.288 61.9119 101.305 61.1618 102.055C60.4116 102.805 59.3942 103.227 58.3333 103.227H29C27.9391 103.227 26.9217 102.805 26.1716 102.055C25.4214 101.305 25 100.288 25 99.2267C25 98.1659 25.4214 97.1484 26.1716 96.3983ZM47.5791 68.444L47.6155 69.7578L47.649 70.9724C47.6646 71.5353 47.2125 72 46.6494 72H36.2246H26C25.4477 72 25 71.5523 25 71V69.7353V68.4079C25 67.8807 25.4092 67.4441 25.9352 67.41L27.2916 67.3219C28.552 67.24 30.0351 67.0826 30.3247 66.972C30.3448 66.9644 30.3644 66.9569 30.3837 66.9497C31.4422 66.5504 31.4615 66.5431 31.4615 51.1094V36.0266C31.4615 35.9353 31.452 35.8431 31.4152 35.7596C31.0847 35.0099 29.8021 34.741 27.3414 34.6407L25.9593 34.5844C25.4233 34.5626 25 34.1217 25 33.5853V32.2727V31C25 30.4477 25.4477 30 26 30H44.3846H62.7692C63.3215 30 63.7692 30.4477 63.7692 31V38.75V45.1542C63.7692 45.7065 63.3215 46.1542 62.7692 46.1542H61.5044H60.0903C59.5999 46.1542 59.1818 45.7985 59.1032 45.3144L59.0957 45.2683C58.47 38.3693 57.0404 35.5391 53.9936 34.5884C53.5245 34.4421 50.5841 34.298 46.726 34.2325L42.1131 34.1423C41.5533 34.1313 41.0936 34.5822 41.0936 35.1421V41.1621V45.2071C41.0936 45.7923 41.5948 46.2539 42.1787 46.2149C42.2125 46.2126 42.2463 46.2104 42.2799 46.2081C45.2927 46.0071 47.1437 45.8836 48.6945 42.1653C48.7222 42.0988 48.743 42.0272 48.7552 41.9563C48.9231 40.9839 49.0574 40.127 49.0574 40.0262C49.0574 39.9217 50.0375 39.8361 51.2354 39.8361H53.0769C53.6292 39.8361 54.0769 40.2838 54.0769 40.8361V50.4531V57.7551C54.0769 58.3074 53.6292 58.7551 53.0769 58.7551H51.1588H49.8484C49.3184 58.7551 48.8804 58.3415 48.8501 57.8123L48.7693 56.4035C48.5965 54.511 46.0836 53.0523 42.5447 52.6034L42.1685 52.5653C41.575 52.5052 41.0612 52.9748 41.0678 53.5714L41.1289 59.0488C41.1309 59.2265 41.1326 59.4108 41.1343 59.6003C41.1546 61.8127 41.1815 64.7357 41.6577 66.2118C41.6877 66.305 41.7396 66.3881 41.7916 66.4714C41.8081 66.4979 41.8247 66.5244 41.8405 66.5512C41.8971 66.647 41.9185 66.7313 41.9374 66.8061C42.0163 67.1173 42.053 67.2619 44.4121 67.3707L46.6255 67.4728C47.1487 67.4969 47.5646 67.9206 47.5791 68.444Z" fill="url(#paint1_linear_65_97)"/>
<defs>
<linearGradient id="paint0_linear_65_97" x1="64" y1="10" x2="64" y2="118" gradientUnits="userSpaceOnUse">
<stop stop-color="#6E46B5"/>
<stop offset="1" stop-color="#8E1EFF"/>
</linearGradient>
<linearGradient id="paint1_linear_65_97" x1="70.8122" y1="10.4048" x2="70.8122" y2="103.227" gradientUnits="userSpaceOnUse">
<stop stop-color="#6E46B5"/>
<stop offset="1" stop-color="#8E1EFF"/>
</linearGradient>
</defs>
</svg>
