<svg width="128" height="128" viewBox="0 0 128 128" fill="none" xmlns="http://www.w3.org/2000/svg">
<path opacity="0.4" d="M11 38C11 22.536 23.536 10 39 10H69C95.5097 10 117 31.4903 117 58V90C117 105.464 104.464 118 89 118H39C23.536 118 11 105.464 11 90V38Z" fill="url(#paint0_linear_63_439)"/>
<path fill-rule="evenodd" clip-rule="evenodd" d="M116.624 52H89C81.268 52 75 45.732 75 38V10.4048C96.7012 13.1109 113.903 30.3034 116.624 52ZM26.1716 79.7316C26.9217 78.9815 27.9391 78.5601 29 78.5601H71.6667C72.7275 78.5601 73.7449 78.9815 74.4951 79.7316C75.2452 80.4818 75.6667 81.4992 75.6667 82.5601C75.6667 83.6209 75.2452 84.6383 74.4951 85.3885C73.7449 86.1386 72.7275 86.5601 71.6667 86.5601H29C27.9391 86.5601 26.9217 86.1386 26.1716 85.3885C25.4214 84.6383 25 83.6209 25 82.5601C25 81.4992 25.4214 80.4818 26.1716 79.7316ZM26.1716 96.3983C26.9217 95.6482 27.9391 95.2267 29 95.2267H58.3333C59.3942 95.2267 60.4116 95.6482 61.1618 96.3983C61.9119 97.1484 62.3333 98.1659 62.3333 99.2267C62.3333 100.288 61.9119 101.305 61.1618 102.055C60.4116 102.805 59.3942 103.227 58.3333 103.227H29C27.9391 103.227 26.9217 102.805 26.1716 102.055C25.4214 101.305 25 100.288 25 99.2267C25 98.1659 25.4214 97.1484 26.1716 96.3983ZM37.0006 69.9985L37.0004 69.9989C37 69.9993 37.0003 70 37.0009 70H46.242C46.6594 70 47.033 69.7407 47.1789 69.3496L61.9964 29.6392C62.2402 28.9857 61.757 28.2896 61.0595 28.2896H59.2867C58.8673 28.2896 58.4926 28.5512 58.348 28.9448L47.9387 57.2858C47.5535 58.3345 46 58.0582 46 56.9411V29.0572C46 28.5328 45.5974 28.0704 45.0746 28.0297C44.7112 28.0014 44.3206 27.9857 44.0642 28.0179C42.4955 28.0179 40.8948 28.1259 39.331 28.5933C34.2634 30.108 27.7169 33.5504 25.7922 38.8962C25.3474 40.1316 25 42.3685 25 43.6074C25 44.6281 25.1277 45.4842 25.3831 46.1757C25.6566 46.8688 26.0397 47.4244 26.5324 47.8426C27.0432 48.2616 27.6726 48.5715 28.4207 48.7724C29.0602 48.9281 29.7799 49.0171 30.5799 49.0396C30.8069 49.046 30.9752 48.8554 30.8552 48.6625C30.7819 48.5168 30.6995 48.3163 30.6081 48.0612C30.5166 47.7879 30.4256 47.4327 30.335 46.9956C30.2617 46.5395 30.225 45.9563 30.225 45.2459C30.225 42.1302 30.4194 38.3403 31.885 36.2484C33.0783 34.5454 33.973 33.599 35.6711 32.7771C36.2993 32.473 36.9994 32.9604 36.9994 33.6584L37.0006 69.9985Z" fill="url(#paint1_linear_63_439)"/>
<defs>
<linearGradient id="paint0_linear_63_439" x1="64" y1="10" x2="64" y2="118" gradientUnits="userSpaceOnUse">
<stop stop-color="#6E46B5"/>
<stop offset="1" stop-color="#8E1EFF"/>
</linearGradient>
<linearGradient id="paint1_linear_63_439" x1="70.8122" y1="10.4048" x2="70.8122" y2="103.227" gradientUnits="userSpaceOnUse">
<stop stop-color="#6E46B5"/>
<stop offset="1" stop-color="#8E1EFF"/>
</linearGradient>
</defs>
</svg>
