<svg width="128" height="128" viewBox="0 0 128 128" fill="none" xmlns="http://www.w3.org/2000/svg">
<path opacity="0.4" d="M11 38C11 22.536 23.536 10 39 10H69C95.5097 10 117 31.4903 117 58V90C117 105.464 104.464 118 89 118H39C23.536 118 11 105.464 11 90V38Z" fill="url(#paint0_linear_63_419)"/>
<path fill-rule="evenodd" clip-rule="evenodd" d="M116.624 52H89C81.268 52 75 45.732 75 38V10.4048C96.7012 13.1109 113.903 30.3034 116.624 52Z" fill="url(#paint1_linear_63_419)"/>
<path fill-rule="evenodd" clip-rule="evenodd" d="M52.9095 96.3328L51.6087 98.5312C50.4495 100.49 47.5527 100.49 46.3911 98.5312L45.0903 96.3328L45.0823 96.3192C44.0796 94.6243 43.5761 93.7732 42.7671 93.304C41.958 92.8324 40.9412 92.8145 38.9118 92.7787L38.8959 92.7784C35.8815 92.728 33.9927 92.5432 32.4087 91.8856C30.9528 91.2825 29.6299 90.3986 28.5156 89.2843C27.4012 88.17 26.5173 86.8471 25.9143 85.3912C24.9999 83.188 24.9999 80.392 24.9999 74.8V72.4C24.9999 64.5448 24.9999 60.616 26.7687 57.7312C27.7576 56.1165 29.1145 54.7587 30.7287 53.7688C33.6159 52 37.5471 52 45.3999 52H52.5999C60.4551 52 64.3839 52 67.2711 53.7688C68.8849 54.758 70.2419 56.1149 71.2311 57.7288C72.9999 60.616 72.9999 64.5472 72.9999 72.4V72.4V74.8V74.8001C72.9999 80.392 72.9999 83.188 72.0879 85.3912C71.4845 86.8473 70.6003 88.1704 69.4855 89.2847C68.3708 90.399 67.0474 91.2828 65.5911 91.8856C64.0071 92.5432 62.1183 92.7256 59.1039 92.7784L59.0879 92.7787C57.0586 92.8145 56.0418 92.8324 55.2327 93.304C54.4215 93.7744 53.9175 94.6264 52.9095 96.3328ZM32.7943 81.1213C33.303 81.6839 33.9929 82 34.7122 82H62.2875C63.0069 82 63.6968 81.6839 64.2055 81.1213C64.7141 80.5587 64.9999 79.7957 64.9999 79C64.9999 78.2043 64.7141 77.4413 64.2055 76.8787C63.6968 76.3161 63.0069 76 62.2875 76H34.7122C33.9929 76 33.303 76.3161 32.7943 76.8787C32.2856 77.4413 31.9999 78.2043 31.9999 79C31.9999 79.7957 32.2856 80.5587 32.7943 81.1213ZM34.7122 69C33.9929 69 33.303 68.6839 32.7943 68.1213C32.2856 67.5587 31.9999 66.7956 31.9999 66C31.9999 65.2044 32.2856 64.4413 32.7943 63.8787C33.303 63.3161 33.9929 63 34.7122 63H52.2875C53.0069 63 53.6968 63.3161 54.2055 63.8787C54.7141 64.4413 54.9999 65.2044 54.9999 66C54.9999 66.7956 54.7141 67.5587 54.2055 68.1213C53.6968 68.6839 53.0069 69 52.2875 69H34.7122Z" fill="url(#paint2_linear_63_419)"/>
<defs>
<linearGradient id="paint0_linear_63_419" x1="64" y1="118" x2="64" y2="10" gradientUnits="userSpaceOnUse">
<stop stop-color="#5570FF"/>
<stop offset="1" stop-color="#4DD3FF"/>
</linearGradient>
<linearGradient id="paint1_linear_63_419" x1="95.8122" y1="35.0537" x2="95.8122" y2="10.4048" gradientUnits="userSpaceOnUse">
<stop stop-color="#5558FF"/>
<stop offset="1" stop-color="#00C0FF"/>
</linearGradient>
<linearGradient id="paint2_linear_63_419" x1="48.9999" y1="80.4444" x2="48.9999" y2="52" gradientUnits="userSpaceOnUse">
<stop stop-color="#5558FF"/>
<stop offset="1" stop-color="#00C0FF"/>
</linearGradient>
</defs>
</svg>
