<svg width="128" height="128" viewBox="0 0 128 128" fill="none" xmlns="http://www.w3.org/2000/svg">
<path opacity="0.4" d="M11 38C11 22.536 23.536 10 39 10H69C95.5097 10 117 31.4903 117 58V90C117 105.464 104.464 118 89 118H39C23.536 118 11 105.464 11 90V38Z" fill="url(#paint0_linear_63_608)"/>
<path fill-rule="evenodd" clip-rule="evenodd" d="M116.624 52H89C81.268 52 75 45.732 75 38V10.4048C96.7012 13.1109 113.903 30.3034 116.624 52Z" fill="url(#paint1_linear_63_608)"/>
<path fill-rule="evenodd" clip-rule="evenodd" d="M30.07 44.072C32.2786 41.8636 35.2583 40.856 38.3009 41.0165C41.3439 41.177 44.4465 42.5046 46.9004 44.9583L49.2929 47.3507C49.6834 47.7412 50.3166 47.7412 50.7071 47.3507L53.0996 44.9583C58.0072 40.0509 65.5131 39.6553 69.93 44.072C74.3468 48.4887 73.9512 55.9942 69.0436 60.9016L66.6512 63.2939C66.2606 63.6844 66.2606 64.3176 66.6512 64.7082L69.0436 67.1005C73.9513 72.0079 74.3469 79.5134 69.93 83.9301C65.5131 88.3468 58.0072 87.9512 53.0996 83.0438L50.7071 80.6514C50.3166 80.2609 49.6834 80.2609 49.2929 80.6514L46.9004 83.0438C41.9928 87.9512 34.4869 88.3468 30.07 83.9301C25.6532 79.5134 26.0488 72.0079 30.9564 67.1005L33.3488 64.7082C33.7394 64.3176 33.7394 63.6844 33.3488 63.2939L30.9564 60.9016C26.0487 55.9942 25.6531 48.4887 30.07 44.072ZM50.8256 54.0367C50.8256 53.6267 50.7364 53.226 50.5685 52.8605C50.3381 52.3586 49.6625 52.3586 49.432 52.8605C49.2642 53.226 49.1749 53.6267 49.1749 54.0367C49.1749 54.4466 49.2642 54.8473 49.432 55.2128C49.6625 55.7148 50.3381 55.7148 50.5685 55.2128C50.7364 54.8473 50.8256 54.4466 50.8256 54.0367ZM46.8316 57.8609C46.811 57.5058 46.5296 57.2231 46.1745 57.2009C46.1063 57.1967 46.0379 57.1949 45.9695 57.1956C45.2372 57.2072 44.5383 57.5034 44.0205 58.0214C43.6717 58.3713 43.4209 58.8067 43.2934 59.284C43.2158 59.5744 43.1854 59.8742 43.2024 60.1719C43.2227 60.5286 43.5062 60.8121 43.863 60.8325C44.1607 60.8494 44.4605 60.8191 44.7509 60.7415C45.2283 60.6139 45.6637 60.3632 46.0136 60.0143C46.3624 59.6645 46.6132 59.229 46.7408 58.7517C46.8186 58.4603 46.8489 58.1596 46.8316 57.8609ZM55.9786 58.0214C55.4609 57.5034 54.7619 57.2072 54.0296 57.1956C53.9612 57.1949 53.8928 57.1967 53.8247 57.2009C53.4696 57.2231 53.1882 57.5057 53.1676 57.8609C53.1503 58.1595 53.1806 58.4603 53.2584 58.7517C53.386 59.229 53.6368 59.6644 53.9856 60.0143C54.3355 60.3632 54.7709 60.6139 55.2483 60.7415C55.5387 60.8191 55.8385 60.8494 56.1362 60.8324C56.493 60.8121 56.7765 60.5286 56.7968 60.1719C56.8138 59.8742 56.7834 59.5744 56.7058 59.284C56.5783 58.8066 56.3275 58.3712 55.9786 58.0214ZM50.2031 61.1922C50.1354 61.1861 50.0674 61.1825 49.9994 61.1813C49.9314 61.1825 49.8633 61.186 49.7956 61.1921C49.7791 61.192 49.7626 61.192 49.7461 61.1921C49.6723 61.2002 49.5988 61.2112 49.5258 61.2252C49.5019 61.2285 49.4781 61.2321 49.4543 61.236C49.3914 61.2486 49.329 61.2633 49.2671 61.2801C49.2413 61.2871 49.2156 61.2945 49.19 61.3022C49.1061 61.3277 49.0234 61.3571 48.9423 61.3903C48.8713 61.4187 48.8015 61.4499 48.7331 61.4839C48.7072 61.4963 48.6815 61.5092 48.656 61.5224C48.6207 61.5419 48.5858 61.562 48.5514 61.583C48.4931 61.6194 48.4362 61.658 48.3807 61.6986C48.3242 61.7369 48.2692 61.7773 48.2156 61.8197C48.1428 61.8786 48.073 61.941 48.0064 62.0069C47.9405 62.0734 47.8781 62.1433 47.8192 62.2161C47.7768 62.2696 47.7364 62.3247 47.6981 62.3812C47.6575 62.4367 47.6189 62.4936 47.5825 62.5519C47.5615 62.5863 47.5414 62.6212 47.5219 62.6565C47.5087 62.682 47.4958 62.7077 47.4834 62.7336C47.4494 62.802 47.4181 62.8718 47.3898 62.9428C47.3566 63.024 47.3272 63.1066 47.3017 63.1905C47.294 63.2161 47.2866 63.2418 47.2796 63.2676C47.2628 63.3295 47.2481 63.3919 47.2355 63.4548C47.2316 63.4786 47.228 63.5024 47.2246 63.5263C47.2107 63.5993 47.1997 63.6727 47.1916 63.7465C47.1915 63.7631 47.1915 63.7796 47.1916 63.7961C47.1855 63.8638 47.1819 63.9318 47.1807 63.9998C47.1819 64.0678 47.1855 64.1357 47.1916 64.2035C47.1915 64.2132 47.1915 64.2229 47.1915 64.2327C47.1915 64.2394 47.1915 64.2462 47.1916 64.253C47.1997 64.3268 47.2107 64.4003 47.2246 64.4732C47.228 64.4971 47.2316 64.521 47.2355 64.5448C47.2481 64.6077 47.2628 64.6701 47.2796 64.732C47.2866 64.7578 47.294 64.7834 47.3017 64.809C47.3272 64.8929 47.3566 64.9756 47.3898 65.0568C47.4181 65.1277 47.4494 65.1975 47.4834 65.266C47.4912 65.2822 47.4992 65.2984 47.5074 65.3146C47.5122 65.3241 47.517 65.3336 47.5219 65.343C47.5414 65.3783 47.5615 65.4132 47.5825 65.4476C47.6184 65.5051 47.6564 65.5612 47.6964 65.616C47.6975 65.6175 47.6981 65.6193 47.6981 65.6211V65.6211C47.6981 65.623 47.6986 65.6247 47.6997 65.6262C47.7377 65.68 47.7775 65.7325 47.8192 65.7836C47.8781 65.8564 47.9405 65.9262 48.0064 65.9928C48.073 66.0586 48.1428 66.1211 48.2156 66.1799C48.2666 66.2216 48.3191 66.2615 48.373 66.2995C48.3744 66.3005 48.3762 66.3011 48.378 66.3011V66.3011C48.3799 66.3011 48.3817 66.3017 48.3832 66.3028C48.4379 66.3427 48.4941 66.3807 48.5515 66.4167C48.586 66.4376 48.6208 66.4578 48.6561 66.4772C48.6816 66.4904 48.7073 66.5033 48.7332 66.5157C48.8016 66.5497 48.8714 66.581 48.9424 66.6093C49.0236 66.6425 49.1062 66.6719 49.1901 66.6974C49.2157 66.7052 49.2414 66.7125 49.2672 66.7196C49.3291 66.7364 49.3915 66.7511 49.4544 66.7636C49.4782 66.7675 49.5021 66.7712 49.526 66.7745C49.5989 66.7884 49.6724 66.7994 49.7462 66.8075C49.7627 66.8077 49.7792 66.8077 49.7957 66.8075C49.8635 66.8136 49.9314 66.8172 49.9994 66.8184C50.0674 66.8172 50.1354 66.8136 50.2031 66.8075H50.2417H50.2525C50.3263 66.7994 50.3998 66.7884 50.4728 66.7745C50.4967 66.7712 50.5205 66.7675 50.5443 66.7636C50.6072 66.7511 50.6696 66.7364 50.7315 66.7196C50.7573 66.7125 50.783 66.7052 50.8086 66.6974C50.8925 66.6719 50.9752 66.6425 51.0563 66.6093C51.1273 66.581 51.1971 66.5497 51.2655 66.5157C51.2914 66.5033 51.3171 66.4904 51.3426 66.4772C51.3779 66.4578 51.4128 66.4376 51.4472 66.4167C51.5047 66.3807 51.5608 66.3427 51.6156 66.3028C51.6171 66.3017 51.6189 66.3011 51.6208 66.3011V66.3011C51.6226 66.3011 51.6243 66.3005 51.6258 66.2995C51.6796 66.2615 51.7321 66.2216 51.7832 66.1799C51.856 66.1211 51.9258 66.0586 51.9924 65.9928C52.0582 65.9262 52.1207 65.8564 52.1796 65.7836C52.2219 65.73 52.2623 65.6749 52.3007 65.6184C52.3413 65.563 52.3799 65.506 52.4163 65.4478C52.4372 65.4133 52.4574 65.3785 52.4768 65.3432C52.4901 65.3177 52.5029 65.292 52.5154 65.2661C52.5494 65.1977 52.5806 65.1279 52.609 65.0569C52.6422 64.9757 52.6716 64.8931 52.6971 64.8092C52.7048 64.7836 52.7122 64.7579 52.7192 64.7321C52.736 64.6702 52.7507 64.6078 52.7633 64.5449C52.7672 64.5211 52.7708 64.4972 52.7741 64.4733C52.788 64.4004 52.7991 64.3269 52.8072 64.2531C52.8073 64.2366 52.8073 64.2201 52.8072 64.2036C52.8132 64.1358 52.8169 64.0679 52.818 63.9999C52.8169 63.9319 52.8132 63.8639 52.8072 63.7962C52.8073 63.7797 52.8073 63.7632 52.8072 63.7467C52.7991 63.6729 52.788 63.5994 52.7741 63.5265C52.7708 63.5026 52.7672 63.4787 52.7633 63.4549C52.7507 63.392 52.736 63.3296 52.7192 63.2677C52.7148 63.2517 52.7103 63.2357 52.7057 63.2197C52.7029 63.21 52.7 63.2003 52.6971 63.1906C52.6716 63.1067 52.6422 63.0241 52.609 62.9429C52.5806 62.8719 52.5494 62.8021 52.5154 62.7337C52.5029 62.7078 52.4901 62.6821 52.4768 62.6566C52.4574 62.6213 52.4372 62.5865 52.4163 62.552C52.3799 62.4937 52.3413 62.4368 52.3007 62.3813C52.2623 62.3248 52.2219 62.2698 52.1796 62.2162C52.1207 62.1434 52.0582 62.0736 51.9924 62.007C51.9258 61.9412 51.856 61.8787 51.7832 61.8198C51.7321 61.7781 51.6796 61.7383 51.6258 61.7003C51.6243 61.6992 51.6226 61.6987 51.6208 61.6987V61.6987C51.6189 61.6987 51.6171 61.6981 51.6156 61.697C51.5608 61.657 51.5047 61.619 51.4472 61.5831C51.4128 61.5621 51.3779 61.542 51.3426 61.5225C51.3171 61.5093 51.2914 61.4965 51.2655 61.484C51.1971 61.45 51.1273 61.4188 51.0563 61.3904C50.9752 61.3572 50.8925 61.3278 50.8086 61.3023C50.783 61.2946 50.7573 61.2872 50.7315 61.2802C50.6696 61.2634 50.6072 61.2487 50.5443 61.2361C50.5205 61.2322 50.4967 61.2286 50.4728 61.2253C50.3998 61.2113 50.3263 61.2003 50.2525 61.1922H50.2417H50.2031ZM41.0926 63.3804C40.7427 63.2386 40.3679 63.1685 39.9903 63.1743C39.5953 63.1806 39.21 63.2696 38.8577 63.4316C38.3559 63.6623 38.3561 64.3377 38.8579 64.5682C39.2235 64.7361 39.6243 64.8254 40.0344 64.8254C40.4444 64.8254 40.8452 64.7361 41.2108 64.5682C41.7127 64.3377 41.7129 63.6623 41.2111 63.4316C41.172 63.4137 41.1326 63.3966 41.0926 63.3804ZM61.141 64.5682C61.6429 64.3377 61.643 63.6623 61.1413 63.4316C60.7889 63.2696 60.4035 63.1806 60.0085 63.1743C59.631 63.1685 59.2562 63.2386 58.9063 63.3804C58.8664 63.3966 58.8269 63.4137 58.7878 63.4317C58.2861 63.6623 58.2862 64.3377 58.7881 64.5682C59.1537 64.7361 59.5545 64.8254 59.9646 64.8254C60.3746 64.8254 60.7754 64.7361 61.141 64.5682ZM45.0786 67.3662C44.7287 67.2243 44.3538 67.1542 43.9762 67.16C43.9371 67.1609 43.8979 67.1625 43.8588 67.165C43.5041 67.1875 43.223 67.47 43.2023 67.8249C43.1849 68.1237 43.2152 68.4246 43.2931 68.7162C43.4207 69.1935 43.6714 69.6289 44.0203 69.9788C44.3702 70.3276 44.8056 70.5784 45.2829 70.7059C45.5734 70.7835 45.8732 70.8138 46.1709 70.7969C46.5276 70.7766 46.8112 70.493 46.8315 70.1363C46.8484 69.8386 46.8181 69.5389 46.7405 69.2484C46.613 68.7711 46.3622 68.3357 46.0133 67.9858C45.7464 67.7188 45.4285 67.5081 45.0786 67.3662ZM56.7963 67.8249C56.7756 67.47 56.4945 67.1875 56.1398 67.165C56.1007 67.1625 56.0615 67.1609 56.0223 67.16C55.6448 67.1542 55.2699 67.2244 54.92 67.3662C54.57 67.5081 54.2522 67.7188 53.9852 67.9858C53.6364 68.3357 53.3856 68.7711 53.2581 69.2484C53.1804 69.5389 53.1501 69.8386 53.1671 70.1363C53.1874 70.4931 53.4709 70.7766 53.8277 70.7969C54.1254 70.8138 54.4251 70.7835 54.7156 70.7059C55.1929 70.5784 55.6284 70.3276 55.9783 69.9788C56.3271 69.6289 56.5779 69.1935 56.7055 68.7162C56.7834 68.4246 56.8136 68.1237 56.7963 67.8249ZM50.8245 73.9646C50.8245 73.5547 50.7352 73.154 50.5674 72.7885C50.3369 72.2865 49.6614 72.2865 49.4309 72.7885C49.2631 73.154 49.1738 73.5547 49.1738 73.9646C49.1738 74.3745 49.2631 74.7752 49.4309 75.1407C49.6614 75.6427 50.3369 75.6427 50.5674 75.1407C50.7352 74.7752 50.8245 74.3745 50.8245 73.9646ZM30 103C28.9391 103 27.9217 102.579 27.1716 101.828C26.4214 101.078 26 100.061 26 99C26 97.9391 26.4214 96.9217 27.1716 96.1716C27.9217 95.4214 28.9391 95 30 95H70.6667C71.7275 95 72.7449 95.4214 73.4951 96.1716C74.2452 96.9217 74.6667 97.9391 74.6667 99C74.6667 100.061 74.2452 101.078 73.4951 101.828C72.7449 102.579 71.7275 103 70.6667 103H30Z" fill="url(#paint2_linear_63_608)"/>
<defs>
<linearGradient id="paint0_linear_63_608" x1="64" y1="118" x2="64" y2="10" gradientUnits="userSpaceOnUse">
<stop stop-color="#FDA700"/>
<stop offset="1" stop-color="#FFDE00"/>
</linearGradient>
<linearGradient id="paint1_linear_63_608" x1="95.8122" y1="52" x2="95.8122" y2="10.4048" gradientUnits="userSpaceOnUse">
<stop stop-color="#FDA700"/>
<stop offset="1" stop-color="#FFDE00"/>
</linearGradient>
<linearGradient id="paint2_linear_63_608" x1="74.6667" y1="75.2292" x2="26" y2="75.2292" gradientUnits="userSpaceOnUse">
<stop stop-color="#FFCD1A"/>
<stop offset="1" stop-color="#FD9C0C"/>
</linearGradient>
</defs>
</svg>
