<svg width="128" height="128" viewBox="0 0 128 128" fill="none" xmlns="http://www.w3.org/2000/svg">
<path opacity="0.4" d="M11 38C11 22.536 23.536 10 39 10H69C95.5097 10 117 31.4903 117 58V90C117 105.464 104.464 118 89 118H39C23.536 118 11 105.464 11 90V38Z" fill="url(#paint0_linear_63_400)"/>
<path fill-rule="evenodd" clip-rule="evenodd" d="M59.3485 37.6249L51.2841 42.2808C49.0561 43.5672 48.2927 46.4161 49.5791 48.6441L54.2351 56.7085C55.5214 58.9365 58.3703 59.6998 60.5983 58.4135L68.6627 53.7575C70.8907 52.4712 71.654 49.6223 70.3677 47.3943L65.7117 39.3299C64.4254 37.1019 61.5765 36.3385 59.3485 37.6249ZM27.4091 41.9092H36.2273C38.6623 41.9092 40.6363 43.8832 40.6363 46.3183V55.1364C40.6363 57.5715 38.6623 59.5455 36.2273 59.5455H27.4091C24.974 59.5455 23 57.5715 23 55.1364V46.3183C23 43.8832 24.974 41.9092 27.4091 41.9092ZM27.4091 67.8653H36.2273C38.6623 67.8653 40.6363 69.8393 40.6363 72.2744V81.0925C40.6363 83.5276 38.6623 85.5016 36.2273 85.5016H27.4091C24.974 85.5016 23 83.5276 23 81.0925V72.2744C23 69.8393 24.974 67.8653 27.4091 67.8653ZM51.659 68.3637H60.4772C62.9123 68.3637 64.8863 70.3377 64.8863 72.7728V81.5909C64.8863 84.026 62.9123 86 60.4772 86H51.659C49.224 86 47.25 84.026 47.25 81.5909V72.7728C47.25 70.3377 49.224 68.3637 51.659 68.3637Z" fill="url(#paint1_linear_63_400)"/>
<path fill-rule="evenodd" clip-rule="evenodd" d="M89 52H116.624C113.903 30.3034 96.7012 13.1109 75 10.4048V38C75 45.732 81.268 52 89 52ZM27.0714 93C25.9916 93 24.956 93.4214 24.1925 94.1716C23.429 94.9217 23 95.9391 23 97C23 98.0609 23.429 99.0783 24.1925 99.8284C24.956 100.579 25.9916 101 27.0714 101H67.9286C69.0084 101 70.044 100.579 70.8075 99.8284C71.571 99.0783 72 98.0609 72 97C72 95.9391 71.571 94.9217 70.8075 94.1716C70.044 93.4214 69.0084 93 67.9286 93H27.0714Z" fill="url(#paint2_linear_63_400)"/>
<defs>
<linearGradient id="paint0_linear_63_400" x1="64" y1="118" x2="64" y2="10" gradientUnits="userSpaceOnUse">
<stop stop-color="#5570FF"/>
<stop offset="1" stop-color="#4DD3FF"/>
</linearGradient>
<linearGradient id="paint1_linear_63_400" x1="46.9963" y1="86" x2="46.9963" y2="37" gradientUnits="userSpaceOnUse">
<stop stop-color="#5570FF"/>
<stop offset="1" stop-color="#4DD3FF"/>
</linearGradient>
<linearGradient id="paint2_linear_63_400" x1="69.8122" y1="101" x2="69.8122" y2="10.4048" gradientUnits="userSpaceOnUse">
<stop stop-color="#5570FF"/>
<stop offset="1" stop-color="#4DD3FF"/>
</linearGradient>
</defs>
</svg>
