<svg width="128" height="128" viewBox="0 0 128 128" fill="none" xmlns="http://www.w3.org/2000/svg">
<path opacity="0.4" d="M11 38C11 22.536 23.536 10 39 10H69C95.5097 10 117 31.4903 117 58V90C117 105.464 104.464 118 89 118H39C23.536 118 11 105.464 11 90V38Z" fill="url(#paint0_linear_65_67)"/>
<path fill-rule="evenodd" clip-rule="evenodd" d="M116.624 52H89C81.268 52 75 45.732 75 38V10.4048C96.7012 13.1109 113.903 30.3034 116.624 52Z" fill="url(#paint1_linear_65_67)"/>
<path d="M35.9223 98.4024C34.7637 98.4219 34.6311 99.7316 35.7787 99.8919C36.0757 99.9334 36.3786 99.9734 36.6868 100.011C38.5054 100.236 43.9809 101.02 49.2862 101C49.2879 101 49.2873 101 49.2889 101C49.3414 101 57.3643 101.006 60.92 100.506C64.4273 100.013 66.5061 99.3918 67.7205 98.2102C67.8716 98.0633 67.9682 97.8651 68.0132 97.6592C68.1157 97.1909 68.1851 96.393 67.0611 95.6173C63.3519 93.0573 58.3989 92.3565 49.0845 90.1681C38.7847 87.606 35.7067 85.1528 34.1689 83.3772C32.7111 81.5978 34.4426 79.5438 42.742 77.7308C45.8558 76.9811 55.2557 76.6849 59.9159 76.5817C60.8418 76.5612 61.2535 75.3989 60.5471 74.7999C54.8398 69.9606 47.8324 63.977 42.8762 60.1684C42.6899 60.0252 42.545 59.8217 42.5577 59.5871C42.6293 58.2598 44.8439 57.6127 46.0622 57.5325C50.3293 57.2413 57.3101 56.8951 62.4894 57.9141C64.4603 58.3019 65.2011 58.3529 65.4448 58.3547C65.5151 58.3553 65.586 58.3527 65.6563 58.3553C69.3128 58.4887 72.1404 56.5653 71.9946 52.557C71.965 48.4518 67.8165 45.1602 63.2253 45.0164C61.3827 44.9587 58.3905 45.0612 55.563 45.1979C54.4006 45.254 54.2885 46.8882 55.4242 47.1423C60.7847 48.342 62.4495 48.9849 63.1129 49.8846C63.2875 50.1214 63.2761 50.4472 63.1022 50.6844C59.4041 55.7284 38.2721 46.6636 32.2837 52.2714C32.2484 52.3044 32.2158 52.3408 32.1872 52.3797C30.8239 54.2325 32.4442 56.4693 33.0848 57.7945C35.9687 62.7731 42.1098 65.3476 45.2743 67.7548V67.7548C45.914 68.2414 45.3772 69.6269 44.5821 69.5098C35.8559 68.2244 28.8329 69.828 24.0855 72.2967C17.5233 76.1399 18.6456 82.6251 29.0589 88.6881C35.2091 92.2691 38.2715 93.9895 48.3415 95.2127C54.2276 96.1413 55.1047 96.5212 55.0601 97.006C54.9969 97.6884 48.0933 97.947 46.1957 98.0765C43.8251 98.2383 39.6081 98.3404 35.9223 98.4024Z" fill="url(#paint2_linear_65_67)"/>
<defs>
<linearGradient id="paint0_linear_65_67" x1="64" y1="10" x2="64" y2="109.562" gradientUnits="userSpaceOnUse">
<stop stop-color="#DC18FC"/>
<stop offset="1" stop-color="#8E1EFF"/>
</linearGradient>
<linearGradient id="paint1_linear_65_67" x1="95.8122" y1="10.4048" x2="95.8122" y2="48.7502" gradientUnits="userSpaceOnUse">
<stop stop-color="#DC18FC"/>
<stop offset="1" stop-color="#8E1EFF"/>
</linearGradient>
<linearGradient id="paint2_linear_65_67" x1="46" y1="45" x2="46" y2="101" gradientUnits="userSpaceOnUse">
<stop stop-color="#DC18FC"/>
<stop offset="1" stop-color="#8E1EFF"/>
</linearGradient>
</defs>
</svg>
