<svg width="128" height="128" viewBox="0 0 128 128" fill="none" xmlns="http://www.w3.org/2000/svg">
<path opacity="0.4" d="M11 38C11 22.536 23.536 10 39 10H69C95.5097 10 117 31.4903 117 58V90C117 105.464 104.464 118 89 118H39C23.536 118 11 105.464 11 90V38Z" fill="url(#paint0_linear_61_120)"/>
<path fill-rule="evenodd" clip-rule="evenodd" d="M89 52H116.624C113.903 30.3034 96.7012 13.1109 75 10.4048V38C75 45.732 81.268 52 89 52ZM24.1696 61.6575C23.7266 62.3221 24.203 63.2122 25.0017 63.2122H30.151C30.4854 63.2122 30.7976 63.0451 30.9831 62.7669L40.3872 48.6608C40.6111 48.3249 40.6111 47.8873 40.3872 47.5514L30.9831 33.4453C30.7976 33.1671 30.4854 33 30.151 33H25.0017C24.203 33 23.7266 33.8901 24.1696 34.5547L32.8341 47.5514C33.058 47.8873 33.058 48.3249 32.8341 48.6608L24.1696 61.6575ZM34.2413 61.6575C33.7983 62.3221 34.2747 63.2122 35.0734 63.2122H40.2228C40.5571 63.2122 40.8693 63.0451 41.0548 62.7669L46.2201 55.019C46.6159 54.4253 47.4884 54.4253 47.8842 55.019L53.0495 62.7669C53.235 63.0452 53.5472 63.2122 53.8816 63.2122H59.0309C59.8296 63.2122 60.306 62.3221 59.863 61.6576L41.0548 33.4453C40.8693 33.1671 40.5571 33 40.2228 33H35.0734C34.2747 33 33.7983 33.8901 34.2413 34.5547L42.9058 47.5514C43.1298 47.8873 43.1298 48.3249 42.9058 48.6608L34.2413 61.6575ZM57.3747 54.5265C57.5601 54.8047 57.8724 54.9718 58.2067 54.9718H64.1332C64.6855 54.9718 65.1332 54.5241 65.1332 53.9719V50.4788C65.1332 49.9265 64.6855 49.4788 64.1332 49.4788H55.8781C55.0795 49.4788 54.6031 50.3689 55.0461 51.0334L57.3747 54.5265ZM49.553 42.7937C49.11 42.1291 49.5864 41.239 50.385 41.239H64.1332C64.6855 41.239 65.1332 41.6867 65.1332 42.239V45.7321C65.1332 46.2844 64.6855 46.7321 64.1332 46.7321H52.7136C52.3793 46.7321 52.067 46.565 51.8816 46.2868L49.553 42.7937ZM26.3047 82.8284C27.0549 83.5786 28.0723 84 29.1331 84H58.4665C59.5273 84 60.5448 83.5786 61.2949 82.8284C62.045 82.0783 62.4665 81.0609 62.4665 80C62.4665 78.9391 62.045 77.9217 61.2949 77.1716C60.5448 76.4214 59.5273 76 58.4665 76H29.1331C28.0723 76 27.0549 76.4214 26.3047 77.1716C25.5546 77.9217 25.1331 78.9391 25.1331 80C25.1331 81.0609 25.5546 82.0783 26.3047 82.8284ZM26.3047 99.4951C27.0549 100.245 28.0723 100.667 29.1331 100.667H71.7998C72.8607 100.667 73.8781 100.245 74.6282 99.4951C75.3784 98.7449 75.7998 97.7275 75.7998 96.6667C75.7998 95.6058 75.3784 94.5884 74.6282 93.8382C73.8781 93.0881 72.8607 92.6667 71.7998 92.6667H29.1331C28.0723 92.6667 27.0549 93.0881 26.3047 93.8382C25.5546 94.5884 25.1331 95.6058 25.1331 96.6667C25.1331 97.7275 25.5546 98.7449 26.3047 99.4951Z" fill="url(#paint1_linear_61_120)"/>
<defs>
<linearGradient id="paint0_linear_61_120" x1="64" y1="10" x2="64" y2="118" gradientUnits="userSpaceOnUse">
<stop stop-color="#FF97CE"/>
<stop offset="1" stop-color="#854FE6"/>
</linearGradient>
<linearGradient id="paint1_linear_61_120" x1="70.3122" y1="10.4048" x2="70.3122" y2="100.667" gradientUnits="userSpaceOnUse">
<stop stop-color="#FF97CE"/>
<stop offset="1" stop-color="#854FE6"/>
</linearGradient>
</defs>
</svg>
