<svg width="128" height="128" viewBox="0 0 128 128" fill="none" xmlns="http://www.w3.org/2000/svg">
<path opacity="0.4" d="M11 38C11 22.536 23.536 10 39 10H69C95.5097 10 117 31.4903 117 58V90C117 105.464 104.464 118 89 118H39C23.536 118 11 105.464 11 90V38Z" fill="url(#paint0_linear_59_706)"/>
<path fill-rule="evenodd" clip-rule="evenodd" d="M89 52H116.624C113.903 30.3034 96.7012 13.1109 75 10.4048V38C75 45.732 81.268 52 89 52ZM30 78.56C28.9391 78.56 27.9217 78.9814 27.1716 79.7316C26.4214 80.4817 26 81.4991 26 82.56C26 83.6209 26.4214 84.6383 27.1716 85.3884C27.9217 86.1386 28.9391 86.56 30 86.56H72.6667C73.7275 86.56 74.7449 86.1386 75.4951 85.3884C76.2452 84.6383 76.6667 83.6209 76.6667 82.56C76.6667 81.4991 76.2452 80.4817 75.4951 79.7316C74.7449 78.9814 73.7275 78.56 72.6667 78.56H30ZM30 95.2267C28.9391 95.2267 27.9217 95.6481 27.1716 96.3982C26.4214 97.1484 26 98.1658 26 99.2267C26 100.288 26.4214 101.305 27.1716 102.055C27.9217 102.805 28.9391 103.227 30 103.227H59.3333C60.3942 103.227 61.4116 102.805 62.1618 102.055C62.9119 101.305 63.3333 100.288 63.3333 99.2267C63.3333 98.1658 62.9119 97.1484 62.1618 96.3982C61.4116 95.6481 60.3942 95.2267 59.3333 95.2267H30Z" fill="url(#paint1_linear_59_706)"/>
<path d="M45 34C34.5068 34 26 42.5068 26 53C26 63.4932 34.5068 72 45 72C55.4932 72 64 63.4932 64 53C64 42.5068 55.4932 34 45 34ZM45 35.7274C54.5396 35.7274 62.2726 43.4604 62.2726 53C62.2726 62.5396 54.5396 70.2726 45 70.2726C35.4603 70.2726 27.7273 62.5396 27.7273 53C27.7273 43.4604 35.4603 35.7274 45 35.7274Z" stroke="url(#paint2_linear_59_706)" stroke-width="4"/>
<path d="M37.2217 45.2217C39.2847 43.159 42.0826 42 45 42C47.6539 42.0019 50.2084 42.9628 52.2001 44.6906C52.5278 44.9748 52.5259 45.4744 52.2192 45.7811C51.9123 46.088 51.4166 46.085 51.0853 45.8045C49.3911 44.3698 47.2368 43.5734 45 43.5715C42.4996 43.5715 40.1013 44.5648 38.3331 46.3331C36.5648 48.1013 35.5715 50.4995 35.5715 53C35.5715 55.5008 36.5648 57.8987 38.3331 59.6669C40.1013 61.4352 42.4996 62.4288 45 62.4288C47.2368 62.4269 49.3911 61.6303 51.0853 60.1957C51.4166 59.9152 51.9123 59.9122 52.2192 60.2192C52.5259 60.5259 52.5277 61.0255 52.2001 61.3097C50.2083 63.0373 47.6539 63.9981 45 64C42.0826 64 39.2847 62.841 37.2217 60.7783C35.1589 58.7153 34 55.9174 34 53C34 50.0826 35.1589 47.2847 37.2217 45.2217Z" stroke="url(#paint3_linear_59_706)" stroke-width="4"/>
<defs>
<linearGradient id="paint0_linear_59_706" x1="64" y1="118" x2="64" y2="10" gradientUnits="userSpaceOnUse">
<stop stop-color="#FD3A84"/>
<stop offset="1" stop-color="#FFA68D"/>
</linearGradient>
<linearGradient id="paint1_linear_59_706" x1="116.356" y1="10.9932" x2="24.3132" y2="100.109" gradientUnits="userSpaceOnUse">
<stop stop-color="#FE7970"/>
<stop offset="1" stop-color="#DC3282"/>
</linearGradient>
<linearGradient id="paint2_linear_59_706" x1="63.8874" y1="34.2409" x2="26.188" y2="71.6265" gradientUnits="userSpaceOnUse">
<stop stop-color="#FE7970"/>
<stop offset="1" stop-color="#DC3282"/>
</linearGradient>
<linearGradient id="paint3_linear_59_706" x1="52.7188" y1="42.1395" x2="31.1926" y2="60.3567" gradientUnits="userSpaceOnUse">
<stop stop-color="#FE7970"/>
<stop offset="1" stop-color="#DC3282"/>
</linearGradient>
</defs>
</svg>
