<svg width="128" height="128" viewBox="0 0 128 128" fill="none" xmlns="http://www.w3.org/2000/svg">
<path opacity="0.4" d="M11 38C11 22.536 23.536 10 39 10H69C95.5097 10 117 31.4903 117 58V90C117 105.464 104.464 118 89 118H39C23.536 118 11 105.464 11 90V38Z" fill="url(#paint0_linear_63_486)"/>
<path fill-rule="evenodd" clip-rule="evenodd" d="M116.47 50.8757C116.559 51.4707 116.093 52.0002 115.491 52.0002H89C81.268 52.0002 75 45.7322 75 38.0002V11.5375C75 10.9361 75.529 10.4702 76.1239 10.5587C96.9194 13.6526 113.361 30.0849 116.47 50.8757ZM27.1716 96.1718C27.9217 95.4217 28.9391 95.0002 30 95.0002H63.3333C64.3942 95.0002 65.4116 95.4217 66.1618 96.1718C66.9119 96.922 67.3333 97.9394 67.3333 99.0002C67.3333 100.061 66.9119 101.079 66.1618 101.829C65.4116 102.579 64.3942 103 63.3333 103H30C28.9391 103 27.9217 102.579 27.1716 101.829C26.4214 101.079 26 100.061 26 99.0002C26 97.9394 26.4214 96.922 27.1716 96.1718ZM58.5282 41.9685C59.7885 40.7082 61.4977 40.0002 63.28 40.0002C65.0623 40.0002 66.7715 40.7082 68.0318 41.9685C69.292 43.2287 70 44.938 70 46.7202C70 48.5025 69.292 50.2117 68.0318 51.472C66.7715 52.7322 65.0623 53.4402 63.28 53.4402C61.4977 53.4402 59.7885 52.7322 58.5282 51.472C57.268 50.2117 56.56 48.5025 56.56 46.7202C56.56 44.938 57.268 43.2287 58.5282 41.9685ZM27.9047 53.585C31.6855 49.8042 36.8132 47.6802 42.16 47.6802C47.5068 47.6802 52.6345 49.8042 56.4153 53.585C60.196 57.3657 62.32 62.4935 62.32 67.8402C62.32 73.187 60.196 78.3148 56.4153 82.0955C52.6345 85.8762 47.5068 88.0002 42.16 88.0002C36.8132 88.0002 31.6855 85.8762 27.9047 82.0955C24.124 78.3148 22 73.187 22 67.8402C22 62.4935 24.124 57.3657 27.9047 53.585ZM54.5918 55.4085C53.3315 54.1482 51.6223 53.4402 49.84 53.4402C48.0577 53.4402 46.3485 54.1482 45.0882 55.4085C43.828 56.6687 43.12 58.378 43.12 60.1602C43.12 61.9425 43.828 63.6517 45.0882 64.912C46.3485 66.1722 48.0577 66.8802 49.84 66.8802C51.6223 66.8802 53.3315 66.1722 54.5918 64.912C55.852 63.6517 56.56 61.9425 56.56 60.1602C56.56 58.378 55.852 56.6687 54.5918 55.4085Z" fill="url(#paint1_linear_63_486)"/>
<defs>
<linearGradient id="paint0_linear_63_486" x1="64" y1="73.9999" x2="64" y2="10" gradientUnits="userSpaceOnUse">
<stop stop-color="#5558FF"/>
<stop offset="1" stop-color="#00C0FF"/>
</linearGradient>
<linearGradient id="paint1_linear_63_486" x1="69.2404" y1="65.3344" x2="69.2404" y2="10.5479" gradientUnits="userSpaceOnUse">
<stop stop-color="#5558FF"/>
<stop offset="1" stop-color="#00C0FF"/>
</linearGradient>
</defs>
</svg>
