<svg width="128" height="128" viewBox="0 0 128 128" fill="none" xmlns="http://www.w3.org/2000/svg">
<path opacity="0.4" d="M11 38C11 22.536 23.536 10 39 10H89C104.464 10 117 22.536 117 38V90C117 105.464 104.464 118 89 118H39C23.536 118 11 105.464 11 90V38Z" fill="url(#paint0_linear_59_614)"/>
<path d="M63.7067 30.5038C63.6204 29.5004 62.2725 29.2395 61.818 30.1382L35.4071 82.3592C34.9147 83.3329 36.1155 84.2791 36.947 83.5725L65.746 59.1012C65.9926 58.8917 66.1225 58.5758 66.0948 58.2534L63.7067 30.5038ZM87.8007 88.659C88.9001 88.659 89.1944 87.143 88.1749 86.7316L52.866 72.4862C52.5212 72.3471 52.1278 72.4108 51.8444 72.6515L35.0744 86.8969C34.3652 87.4993 34.7912 88.659 35.7218 88.659H87.8007ZM92.5406 87.1488C93.3957 87.4941 94.2227 86.5961 93.8083 85.7722L67.1233 32.7153C66.6277 31.7298 65.1358 32.1549 65.2339 33.2536L69.1536 77.1203C69.187 77.4942 69.4271 77.818 69.7752 77.9586L92.5406 87.1488ZM66.4861 62.2383C66.4128 61.4299 65.4577 61.041 64.8406 61.5684L54.5803 70.3365C54.0085 70.8251 54.1605 71.7462 54.8588 72.0253L66.3298 76.6091C67.0229 76.8861 67.7642 76.3336 67.6968 75.5902L66.4861 62.2383Z" fill="url(#paint1_linear_59_614)"/>
<defs>
<linearGradient id="paint0_linear_59_614" x1="64" y1="118" x2="64" y2="10" gradientUnits="userSpaceOnUse">
<stop stop-color="#5570FF"/>
<stop offset="1" stop-color="#4DD3FF"/>
</linearGradient>
<linearGradient id="paint1_linear_59_614" x1="64" y1="88.659" x2="64" y2="27" gradientUnits="userSpaceOnUse">
<stop stop-color="#5570FF"/>
<stop offset="1" stop-color="#4DD3FF"/>
</linearGradient>
</defs>
</svg>
