<svg width="128" height="128" viewBox="0 0 128 128" fill="none" xmlns="http://www.w3.org/2000/svg">
<path opacity="0.4" d="M11 38C11 22.536 23.536 10 39 10H69C95.5097 10 117 31.4903 117 58V90C117 105.464 104.464 118 89 118H39C23.536 118 11 105.464 11 90V38Z" fill="url(#paint0_linear_63_331)"/>
<path opacity="0.5" fill-rule="evenodd" clip-rule="evenodd" d="M116.624 52H89C81.268 52 75 45.732 75 38V10.4048C96.7012 13.1109 113.903 30.3034 116.624 52ZM24.1716 100.828C24.9217 101.579 25.9391 102 27 102H67.6667C68.7275 102 69.7449 101.579 70.4951 100.828C71.2452 100.078 71.6667 99.0609 71.6667 98C71.6667 96.9391 71.2452 95.9217 70.4951 95.1716C69.7449 94.4214 68.7275 94 67.6667 94H27C25.9391 94 24.9217 94.4214 24.1716 95.1716C23.4214 95.9217 23 96.9391 23 98C23 99.0609 23.4214 100.078 24.1716 100.828ZM26 37.7333C26 36.7731 26.7731 36 27.7333 36H34.6667C35.6269 36 36.4 36.7731 36.4 37.7333V48.1333C36.4 49.0936 35.6269 49.8667 34.6667 49.8667H27.7333C26.7731 49.8667 26 49.0936 26 48.1333V37.7333ZM41.6 36.8667C41.6 36.3865 41.9865 36 42.4667 36H44.2C44.6801 36 45.0667 36.3865 45.0667 36.8667V49C45.0667 49.4801 44.6801 49.8667 44.2 49.8667H42.4667C41.9865 49.8667 41.6 49.4801 41.6 49V36.8667ZM50.2667 36.8667C50.2667 36.3865 50.6532 36 51.1333 36H52.8667C53.3468 36 53.7333 36.3865 53.7333 36.8667V49C53.7333 49.4801 53.3468 49.8667 52.8667 49.8667H51.1333C50.6532 49.8667 50.2667 49.4801 50.2667 49V36.8667ZM57.2 37.7333C57.2 36.7731 57.9731 36 58.9333 36H65.8667C66.8269 36 67.6 36.7731 67.6 37.7333V48.1333C67.6 49.0936 66.8269 49.8667 65.8667 49.8667H58.9333C57.9731 49.8667 57.2 49.0936 57.2 48.1333V37.7333ZM32.9333 39.4667H29.4667V46.4H32.9333V39.4667ZM64.1333 39.4667H60.6667V46.4H64.1333V39.4667ZM29.4667 55.9333C29.4667 55.4532 29.8532 55.0667 30.3333 55.0667H32.0667C32.5468 55.0667 32.9333 55.4532 32.9333 55.9333V68.0667C32.9333 68.5468 32.5468 68.9333 32.0667 68.9333H30.3333C29.8532 68.9333 29.4667 68.5468 29.4667 68.0667V55.9333ZM39.8667 56.8C39.8667 55.8397 40.6397 55.0667 41.6 55.0667H48.5333C49.4936 55.0667 50.2667 55.8397 50.2667 56.8V67.2C50.2667 68.1603 49.4936 68.9333 48.5333 68.9333H41.6C40.6397 68.9333 39.8667 68.1603 39.8667 67.2V56.8ZM55.4667 55.9333C55.4667 55.4532 55.8532 55.0667 56.3333 55.0667H58.0667C58.5468 55.0667 58.9333 55.4532 58.9333 55.9333V68.0667C58.9333 68.5468 58.5468 68.9333 58.0667 68.9333H56.3333C55.8532 68.9333 55.4667 68.5468 55.4667 68.0667V55.9333ZM64.1333 55.9333C64.1333 55.4532 64.5199 55.0667 65 55.0667H66.7333C67.2135 55.0667 67.6 55.4532 67.6 55.9333V68.0667C67.6 68.5468 67.2135 68.9333 66.7333 68.9333H65C64.5199 68.9333 64.1333 68.5468 64.1333 68.0667V55.9333ZM46.8 65.4667V58.5333H43.3333V65.4667H46.8ZM26 75.8667C26 74.9064 26.7731 74.1333 27.7333 74.1333H34.6667C35.6269 74.1333 36.4 74.9064 36.4 75.8667V86.2667C36.4 87.2269 35.6269 88 34.6667 88H27.7333C26.7731 88 26 87.2269 26 86.2667V75.8667ZM39.8667 75.8667C39.8667 74.9064 40.6397 74.1333 41.6 74.1333H48.5333C49.4936 74.1333 50.2667 74.9064 50.2667 75.8667V86.2667C50.2667 87.2269 49.4936 88 48.5333 88H41.6C40.6397 88 39.8667 87.2269 39.8667 86.2667V75.8667ZM55.4667 75C55.4667 74.5199 55.8532 74.1333 56.3333 74.1333H58.0667C58.5468 74.1333 58.9333 74.5199 58.9333 75V87.1333C58.9333 87.6135 58.5468 88 58.0667 88H56.3333C55.8532 88 55.4667 87.6135 55.4667 87.1333V75ZM64.1333 75C64.1333 74.5199 64.5199 74.1333 65 74.1333H66.7333C67.2135 74.1333 67.6 74.5199 67.6 75V87.1333C67.6 87.6135 67.2135 88 66.7333 88H65C64.5199 88 64.1333 87.6135 64.1333 87.1333V75ZM32.9333 77.6H29.4667V84.5333H32.9333V77.6ZM46.8 84.5333V77.6H43.3333V84.5333H46.8Z" fill="white"/>
<defs>
<linearGradient id="paint0_linear_63_331" x1="64.1258" y1="117.983" x2="108.658" y2="35.5142" gradientUnits="userSpaceOnUse">
<stop stop-color="#4D4D4D"/>
<stop offset="1" stop-color="#979797"/>
</linearGradient>
</defs>
</svg>
