<svg width="128" height="128" viewBox="0 0 128 128" fill="none" xmlns="http://www.w3.org/2000/svg">
<path opacity="0.4" d="M11 38C11 22.536 23.536 10 39 10H69C95.5097 10 117 31.4903 117 58V90C117 105.464 104.464 118 89 118H39C23.536 118 11 105.464 11 90V38Z" fill="url(#paint0_linear_68_293)"/>
<path fill-rule="evenodd" clip-rule="evenodd" d="M116.624 52H89C81.268 52 75 45.732 75 38V10.4048C96.7012 13.1109 113.903 30.3034 116.624 52Z" fill="url(#paint1_linear_68_293)"/>
<path d="M23.9609 82.667H27.8191C28.3505 82.667 28.78 83.0965 28.78 83.6279V87.486C28.78 87.6129 28.7549 87.7384 28.7061 87.8555C28.6574 87.9725 28.5859 88.0788 28.4959 88.1681C28.4059 88.2574 28.2991 88.328 28.1817 88.3759C28.0643 88.4238 27.9386 88.4479 27.8118 88.4469H23.9609C23.7061 88.4469 23.4616 88.3457 23.2814 88.1655C23.1012 87.9853 23 87.7409 23 87.486V83.6279C23 83.0965 23.4295 82.667 23.9609 82.667ZM33.4389 82.667C33.0021 82.6961 32.6235 83.0383 32.6308 83.4095V87.7044C32.6308 88.0975 33.053 88.4469 33.5189 88.4469H66.4079C66.8737 88.4469 67.3032 88.0975 67.296 87.7044V83.4095C67.296 83.0164 66.8737 82.667 66.4079 82.667H33.4389Z" fill="#A2AAB9" stroke="#8A92A2" stroke-width="1.00159" stroke-linecap="square"/>
<path d="M27.8121 94.2272H31.6702C32.2017 94.2272 32.6311 94.6567 32.6311 95.1881V99.0389C32.6312 99.1657 32.6061 99.2913 32.5573 99.4083C32.5086 99.5254 32.4371 99.6317 32.3471 99.721C32.2571 99.8103 32.1503 99.8809 32.0329 99.9288C31.9155 99.9766 31.7898 100.001 31.663 99.9998H27.8121C27.5572 99.9998 27.3128 99.8986 27.1326 99.7184C26.9524 99.5382 26.8512 99.2938 26.8512 99.0389V95.1808C26.8512 94.6566 27.2807 94.2272 27.8121 94.2272ZM37.29 94.2272C36.8533 94.2563 36.4747 94.5911 36.482 94.9624V99.2573C36.482 99.6504 36.9042 100.007 37.3774 99.9998H70.259C70.7249 99.9998 71.1544 99.6504 71.1472 99.2646V94.9697C71.1472 94.5766 70.7249 94.2199 70.259 94.2272H37.29Z" fill="#ABD56B" stroke="#93BD52" stroke-width="1.00159" stroke-linecap="square"/>
<path d="M27.8121 48.0001H31.6702C32.2017 48.0001 32.6311 48.4296 32.6311 48.961V52.8119C32.6312 52.9387 32.6061 53.0642 32.5573 53.1813C32.5086 53.2983 32.4371 53.4046 32.3471 53.4939C32.2571 53.5832 32.1503 53.6539 32.0329 53.7017C31.9155 53.7496 31.7898 53.7737 31.663 53.7728H27.8121C27.5572 53.7728 27.3128 53.6715 27.1326 53.4913C26.9524 53.3111 26.8512 53.0667 26.8512 52.8119V48.9537C26.8512 48.4296 27.2807 48.0001 27.8121 48.0001ZM37.29 48.0001C36.8533 48.0292 36.4747 48.3641 36.482 48.7353V53.0303C36.482 53.4234 36.9042 53.7801 37.3774 53.7728H70.259C70.7249 53.7728 71.1544 53.4234 71.1472 53.0375V48.7426C71.1472 48.3495 70.7249 47.9928 70.259 48.0001H37.29ZM27.8121 71.1126H31.6702C32.2017 71.1126 32.6311 71.5421 32.6311 72.0735V75.9244C32.6312 76.0512 32.6061 76.1767 32.5573 76.2938C32.5086 76.4109 32.4371 76.5171 32.3471 76.6064C32.2571 76.6958 32.1503 76.7664 32.0329 76.8142C31.9155 76.8621 31.7898 76.8863 31.663 76.8853H27.8121C27.5572 76.8853 27.3128 76.7841 27.1326 76.6039C26.9524 76.4237 26.8512 76.1792 26.8512 75.9244V72.0662C26.8512 71.5421 27.2807 71.1126 27.8121 71.1126ZM37.29 71.1126C36.8533 71.1417 36.4747 71.4766 36.482 71.8479V76.1428C36.482 76.5359 36.9042 76.8926 37.3774 76.8853H70.259C70.7249 76.8853 71.1544 76.5359 71.1472 76.1501V71.8551C71.1472 71.462 70.7249 71.1053 70.259 71.1126H37.29Z" fill="#ABD56B" stroke="#93BD52" stroke-width="1.00159" stroke-linecap="square"/>
<path d="M31.6618 59.5537H35.52C36.0514 59.5537 36.4809 59.9905 36.4809 60.5146V64.3728C36.4809 64.6276 36.3796 64.872 36.1994 65.0522C36.0192 65.2324 35.7748 65.3337 35.52 65.3337H31.6618C31.407 65.3337 31.1626 65.2324 30.9824 65.0522C30.8022 64.872 30.7009 64.6276 30.7009 64.3728V60.5146C30.7009 59.9832 31.1377 59.5537 31.6618 59.5537ZM41.1471 59.5537C40.703 59.5828 40.3245 59.925 40.3317 60.2962V64.5911C40.3317 64.9842 40.754 65.3337 41.2271 65.3337H74.1088C74.5747 65.3337 75.0042 64.9842 75.0042 64.5911V60.2962C75.0042 59.9031 74.5747 59.5537 74.1088 59.5537H41.1471Z" fill="#EFB458" stroke="#D9A047" stroke-width="1.00159" stroke-linecap="square"/>
<defs>
<linearGradient id="paint0_linear_68_293" x1="11" y1="64" x2="117" y2="64" gradientUnits="userSpaceOnUse">
<stop stop-color="#9EE170"/>
<stop offset="1" stop-color="#E5ECA2"/>
</linearGradient>
<linearGradient id="paint1_linear_68_293" x1="75" y1="31.2024" x2="116.624" y2="31.2024" gradientUnits="userSpaceOnUse">
<stop stop-color="#9EE170"/>
<stop offset="1" stop-color="#E5ECA2"/>
</linearGradient>
</defs>
</svg>
