<svg width="128" height="128" viewBox="0 0 128 128" fill="none" xmlns="http://www.w3.org/2000/svg">
<path opacity="0.4" d="M11 38C11 22.536 23.536 10 39 10H69C95.5097 10 117 31.4903 117 58V90C117 105.464 104.464 118 89 118H39C23.536 118 11 105.464 11 90V38Z" fill="url(#paint0_linear_59_1008)"/>
<path fill-rule="evenodd" clip-rule="evenodd" d="M89 52H116.624C113.903 30.3034 96.7012 13.1109 75 10.4048V38C75 45.732 81.268 52 89 52ZM29 78.5601C27.9391 78.5601 26.9217 78.9815 26.1716 79.7316C25.4214 80.4818 25 81.4992 25 82.5601C25 83.6209 25.4214 84.6383 26.1716 85.3885C26.9217 86.1386 27.9391 86.5601 29 86.5601H71.6667C72.7275 86.5601 73.7449 86.1386 74.4951 85.3885C75.2452 84.6383 75.6667 83.6209 75.6667 82.5601C75.6667 81.4992 75.2452 80.4818 74.4951 79.7316C73.7449 78.9815 72.7275 78.5601 71.6667 78.5601H29ZM29 95.2267C27.9391 95.2267 26.9217 95.6482 26.1716 96.3983C25.4214 97.1484 25 98.1659 25 99.2267C25 100.288 25.4214 101.305 26.1716 102.055C26.9217 102.805 27.9391 103.227 29 103.227H58.3333C59.3942 103.227 60.4116 102.805 61.1618 102.055C61.9119 101.305 62.3333 100.288 62.3333 99.2267C62.3333 98.1659 61.9119 97.1484 61.1618 96.3983C60.4116 95.6482 59.3942 95.2267 58.3333 95.2267H29Z" fill="url(#paint1_linear_59_1008)"/>
<path d="M30.75 61H26C25.4477 61 25 61.4477 25 62V65.75C25 66.3023 25.4477 66.75 26 66.75H45.0835C45.6357 66.75 46.0835 66.3023 46.0835 65.75V62C46.0835 61.4477 45.6357 61 45.0835 61H41.3335C40.7812 61 40.3335 60.5523 40.3335 60V56.25C40.3335 55.6977 40.7812 55.25 41.3335 55.25H44.1665C49.9165 55.25 49.9165 66.75 55.6665 66.75H65.25C69.9582 66.75 70.8112 59.0397 70.9658 56.2458C70.9963 55.6943 70.5523 55.25 70 55.25H65.472C64.8541 55.25 64.3698 55.8087 64.3461 56.4262C64.2816 58.1082 63.5777 61 59.5 61C57.5509 61 55.6017 58.3571 54.5485 56.6549C54.1573 56.0227 54.6247 55.25 55.368 55.25H55.6665C59.5 55.25 63.3335 51.4165 63.3335 46.625C63.3335 41.8335 59.5 38 55.6665 38H26C25.4477 38 25 38.4477 25 39V42.75C25 43.3023 25.4477 43.75 26 43.75H30.75M51.8335 43.75C53.75 43.75 55.6665 43.75 55.6665 46.625C55.6665 49.5 53.75 49.5 51.8335 49.5H41.3335C40.7812 49.5 40.3335 49.0523 40.3335 48.5V43.75" fill="url(#paint2_linear_59_1008)"/>
<defs>
<linearGradient id="paint0_linear_59_1008" x1="114.01" y1="64" x2="25.1862" y2="32.4641" gradientUnits="userSpaceOnUse">
<stop stop-color="#FE7970"/>
<stop offset="1" stop-color="#DC3282"/>
</linearGradient>
<linearGradient id="paint1_linear_59_1008" x1="113.529" y1="13.0579" x2="76.9826" y2="103.641" gradientUnits="userSpaceOnUse">
<stop stop-color="#FE0F7C"/>
<stop offset="1" stop-color="#DF0066"/>
</linearGradient>
<linearGradient id="paint2_linear_59_1008" x1="69.4459" y1="38.8218" x2="61.7994" y2="69.5421" gradientUnits="userSpaceOnUse">
<stop stop-color="#FE0F7C"/>
<stop offset="1" stop-color="#DF0066"/>
</linearGradient>
</defs>
</svg>
