<svg width="128" height="128" viewBox="0 0 128 128" fill="none" xmlns="http://www.w3.org/2000/svg">
<path opacity="0.4" d="M11 38C11 22.536 23.536 10 39 10H69C95.5097 10 117 31.4903 117 58V90C117 105.464 104.464 118 89 118H39C23.536 118 11 105.464 11 90V38Z" fill="url(#paint0_linear_59_541)"/>
<path fill-rule="evenodd" clip-rule="evenodd" d="M116.624 52H89C81.268 52 75 45.732 75 38V10.4048C96.7012 13.1109 113.903 30.3034 116.624 52Z" fill="url(#paint1_linear_59_541)"/>
<path fill-rule="evenodd" clip-rule="evenodd" d="M54.9557 68.6355C54.169 67.7841 52.8947 67.3705 51.8932 67.9543L49.8424 69.1498C48.9173 69.6891 48.5689 70.873 49.1998 71.7382C50.3083 73.2585 51.735 74.5295 53.3887 75.4577C55.6015 76.6996 58.1265 77.2748 60.6589 77.1137C67.1604 77.1137 72 73.738 72 67.5765C72 61.861 68.7183 59.3192 62.9028 56.8254L61.1909 56.0934C58.2631 54.8215 56.9912 53.9916 56.9912 51.9378C56.9953 51.5241 57.0855 51.1157 57.2561 50.7388C57.4267 50.3619 57.674 50.0247 57.9822 49.7486C58.2904 49.4726 58.6528 49.2638 59.0462 49.1356C59.4395 49.0074 59.8553 48.9626 60.267 49.004C61.2114 48.9888 62.1381 49.2612 62.924 49.7853C63.0311 49.8567 63.1348 49.9323 63.2351 50.0118C64.2205 50.7938 65.6504 51.3062 66.709 50.6265L68.4717 49.4948C69.3369 48.9393 69.6559 47.8025 69.0327 46.9847C68.2029 45.8957 67.1567 44.9813 65.953 44.303C64.2205 43.3266 62.2385 42.8826 60.255 43.0265C54.1435 43.0265 50.2318 46.9322 50.2318 52.0658C50.2318 57.6373 53.5135 60.2731 58.4511 62.3769L60.163 63.1109C63.2827 64.4767 65.1446 65.3087 65.1446 67.6545C65.1446 69.6123 63.3327 71.0302 60.497 71.0302C59.0946 71.0428 57.7172 70.6596 56.5229 69.9245C55.9413 69.5665 55.4147 69.1322 54.9557 68.6355ZM30.6617 69.2251C29.9857 68.3208 28.7723 67.9587 27.8067 68.5438L25.5133 69.9333C24.6492 70.4569 24.295 71.5563 24.8563 72.3963C25.7108 73.6751 26.8371 74.7592 28.1626 75.5667C29.9945 76.6825 32.1213 77.2176 34.2631 77.1017C40.3266 77.1017 44.4823 73.876 44.4823 66.7906V45.4265C44.4823 44.3219 43.5869 43.4265 42.4823 43.4265H39.6389C38.5343 43.4265 37.6389 44.3219 37.6389 45.4265V66.6946C37.6389 70.1143 36.219 70.9942 33.9712 70.9942C32.4024 70.9942 31.4454 70.2733 30.6617 69.2251ZM30 103C28.9391 103 27.9217 102.579 27.1716 101.828C26.4214 101.078 26 100.061 26 99C26 97.9391 26.4214 96.9217 27.1716 96.1716C27.9217 95.4214 28.9391 95 30 95H70.6667C71.7275 95 72.7449 95.4214 73.4951 96.1716C74.2452 96.9217 74.6667 97.9391 74.6667 99C74.6667 100.061 74.2452 101.078 73.4951 101.828C72.7449 102.579 71.7275 103 70.6667 103H30Z" fill="url(#paint2_linear_59_541)"/>
<defs>
<linearGradient id="paint0_linear_59_541" x1="64" y1="118" x2="64" y2="10" gradientUnits="userSpaceOnUse">
<stop stop-color="#FDA700"/>
<stop offset="1" stop-color="#FFDE00"/>
</linearGradient>
<linearGradient id="paint1_linear_59_541" x1="116.624" y1="33.3688" x2="75" y2="33.3688" gradientUnits="userSpaceOnUse">
<stop stop-color="#FFCD1A"/>
<stop offset="1" stop-color="#FD9C0C"/>
</linearGradient>
<linearGradient id="paint2_linear_59_541" x1="74.6667" y1="76.125" x2="24.5851" y2="76.125" gradientUnits="userSpaceOnUse">
<stop stop-color="#FFCD1A"/>
<stop offset="1" stop-color="#FD9C0C"/>
</linearGradient>
</defs>
</svg>
