<svg width="128" height="128" viewBox="0 0 128 128" fill="none" xmlns="http://www.w3.org/2000/svg">
<path opacity="0.4" d="M11 38C11 22.536 23.536 10 39 10H69C95.5097 10 117 31.4903 117 58V90C117 105.464 104.464 118 89 118H39C23.536 118 11 105.464 11 90V38Z" fill="url(#paint0_linear_68_273)"/>
<path fill-rule="evenodd" clip-rule="evenodd" d="M116.624 52H89C81.268 52 75 45.732 75 38V10.4048C96.7012 13.1109 113.903 30.3034 116.624 52Z" fill="url(#paint1_linear_68_273)"/>
<path fill-rule="evenodd" clip-rule="evenodd" d="M34 90.9672C33.4477 90.9672 33 90.5195 33 89.9672V87.5433C33 86.991 33.4477 86.5433 34 86.5433H54.7128C55.3762 86.5433 55.8555 87.1777 55.7099 87.8249C55.5438 88.5629 55.4124 89.3084 55.316 90.0589C55.2501 90.5721 54.8204 90.9672 54.3029 90.9672H34ZM60.2094 77.6955C60.5076 77.6955 60.7893 77.5617 60.9837 77.3355C61.6152 76.6005 62.2893 75.9042 63.0021 75.25C63.7213 74.59 63.2784 73.2717 62.3022 73.2717H34C33.4477 73.2717 33 73.7194 33 74.2717V76.6955C33 77.2478 33.4477 77.6955 34 77.6955H60.2094ZM56.1388 104.239C56.8863 104.239 57.3735 103.446 57.0788 102.759C56.7674 102.033 56.4916 101.292 56.2526 100.539C56.1173 100.113 55.7264 99.815 55.2791 99.815H34C33.4477 99.815 33 100.263 33 100.815V103.239C33 103.791 33.4477 104.239 34 104.239H56.1388ZM93.9344 60C94.4867 60 94.9344 60.4477 94.9344 61V63.4239C94.9344 63.9762 94.4867 64.4239 93.9344 64.4239H34C33.4477 64.4239 33 63.9762 33 63.4239V61C33 60.4477 33.4477 60 34 60H93.9344ZM80.0724 104.378C80.0716 104.377 80.0721 104.376 80.0733 104.376C82.0375 104.375 83.9669 103.858 85.6679 102.875C87.3698 101.893 88.783 100.479 89.7656 98.777C90.7481 97.075 91.2654 95.1443 91.2653 93.1791C91.2653 91.2138 90.748 89.2831 89.7655 87.5811C88.7829 85.8791 87.3696 84.4657 85.6678 83.4829C83.9659 82.5001 82.0353 81.9826 80.07 81.9823C78.1047 81.982 76.174 82.499 74.4718 83.4814C73.2719 84.1739 72.2154 85.0804 71.352 86.1512C70.8687 86.7505 71.3356 87.5785 72.1055 87.5785H74.0977C74.65 87.5785 75.0977 88.0262 75.0977 88.5785V90.3123C75.0977 90.8646 74.65 91.3123 74.0977 91.3123H66.7976C66.5319 91.3123 66.2772 91.2066 66.0896 91.0185L64.8122 89.7381C64.6252 89.5507 64.5202 89.2967 64.5202 89.0319V80.4916C64.5202 79.9394 64.9679 79.4916 65.5202 79.4916H67.254C67.8062 79.4916 68.254 79.9394 68.254 80.4916V81.127C68.254 82.0808 69.5416 82.5549 70.2607 81.9283C71.9678 80.4408 74.0011 79.3524 76.2132 78.761C79.3751 77.9157 82.7271 78.1328 85.7535 79.3788C88.78 80.6248 91.3132 82.8307 92.9633 85.6572C94.6135 88.4836 95.2892 91.774 94.8865 95.022C94.4839 98.27 93.0251 101.296 90.7347 103.634C88.4443 105.972 85.4491 107.492 82.21 107.961C78.9709 108.431 75.6674 107.823 72.8077 106.231C70.2474 104.806 68.1698 102.663 66.8243 100.076C66.5649 99.5779 66.8117 98.9769 67.3323 98.7652L68.9464 98.1089C69.4459 97.9057 70.0124 98.1379 70.2739 98.6095C71.1617 100.211 72.4314 101.575 73.9761 102.577C75.7911 103.754 77.9082 104.381 80.0715 104.38C80.0726 104.38 80.0732 104.379 80.0724 104.378V104.378Z" fill="url(#paint2_linear_68_273)" stroke="url(#paint3_linear_68_273)" stroke-width="2"/>
<defs>
<linearGradient id="paint0_linear_68_273" x1="64" y1="118" x2="64" y2="10" gradientUnits="userSpaceOnUse">
<stop stop-color="#FD3A84"/>
<stop offset="1" stop-color="#FFA68D"/>
</linearGradient>
<linearGradient id="paint1_linear_68_273" x1="95.8122" y1="52" x2="95.8122" y2="10.4048" gradientUnits="userSpaceOnUse">
<stop stop-color="#FD3A84"/>
<stop offset="1" stop-color="#FFA68D"/>
</linearGradient>
<linearGradient id="paint2_linear_68_273" x1="64" y1="108.116" x2="64" y2="60" gradientUnits="userSpaceOnUse">
<stop stop-color="#FD3A84"/>
<stop offset="1" stop-color="#FFA68D"/>
</linearGradient>
<linearGradient id="paint3_linear_68_273" x1="64" y1="108.116" x2="64" y2="60" gradientUnits="userSpaceOnUse">
<stop stop-color="#FD3A84"/>
<stop offset="1" stop-color="#FFA68D"/>
</linearGradient>
</defs>
</svg>
