<svg width="128" height="128" viewBox="0 0 128 128" fill="none" xmlns="http://www.w3.org/2000/svg">
<path opacity="0.4" d="M11 38C11 22.536 23.536 10 39 10H89C104.464 10 117 22.536 117 38V90C117 105.464 104.464 118 89 118H39C23.536 118 11 105.464 11 90V38Z" fill="url(#paint0_linear_59_195)"/>
<path d="M74.2592 50.889H64.0371V57.7037C64.0371 60.9136 64.0371 62.522 65.032 63.5235C66.034 64.5184 67.6419 64.5184 70.8518 64.5184H74.2592C77.4691 64.5184 79.0775 64.5184 80.079 63.5235C81.0739 62.522 81.0739 60.9136 81.0739 57.7037C81.0739 54.4941 81.0739 52.8858 80.079 51.8838C79.0775 50.889 77.462 50.889 74.2592 50.889ZM47.9949 38.2542C47 39.256 47 40.8711 47 44.0739C47 47.2771 47 48.8922 47.9949 49.8941C48.9968 50.889 50.6118 50.889 53.8147 50.889H64.0371V37.2593H53.8147C50.6051 37.2593 48.9968 37.2593 47.9949 38.2542ZM74.2592 23.6296H64.0371V37.2593H74.2592C77.4691 37.2593 79.0775 37.2593 80.079 36.2643C81.0739 35.2625 81.0739 33.6542 81.0739 30.4444C81.0739 27.2347 81.0739 25.6264 80.079 24.6246C79.0775 23.6296 77.462 23.6296 74.2592 23.6296ZM64.0371 23.6296V10L47 10.0204V16.8148C47 20.0246 47 21.6329 47.9949 22.6347C48.9968 23.6296 50.6118 23.6296 53.8147 23.6296H64.0371ZM47 84.9628V84.111C47 80.8195 49.6713 78.1482 52.9629 78.1482H75.111C78.4025 78.1482 81.0739 80.8195 81.0739 84.111V84.9628C81.0739 89.4813 79.279 93.8149 76.0841 97.0098C72.8888 100.205 68.5556 102 64.0371 102C59.5187 102 55.1851 100.205 51.9902 97.0098C48.7948 93.8149 47 89.4813 47 84.9628Z" fill="url(#paint1_linear_59_195)"/>
<defs>
<linearGradient id="paint0_linear_59_195" x1="64" y1="118" x2="64" y2="10" gradientUnits="userSpaceOnUse">
<stop stop-color="#FD3A84"/>
<stop offset="1" stop-color="#FFA68D"/>
</linearGradient>
<linearGradient id="paint1_linear_59_195" x1="79.9227" y1="12.6296" x2="27.8622" y2="61.0453" gradientUnits="userSpaceOnUse">
<stop stop-color="#FE0F7C"/>
<stop offset="1" stop-color="#DF0066"/>
</linearGradient>
</defs>
</svg>
