<svg width="128" height="128" viewBox="0 0 128 128" fill="none" xmlns="http://www.w3.org/2000/svg">
<path opacity="0.4" d="M11 38C11 22.536 23.536 10 39 10H89C104.464 10 117 22.536 117 38V90C117 105.464 104.464 118 89 118H39C23.536 118 11 105.464 11 90V38Z" fill="url(#paint0_linear_68_262)"/>
<path d="M41 37C40.4477 37 40 37.4477 40 38V42C40 42.5523 39.5523 43 39 43H32C31.4477 43 31 43.4477 31 44V90C31 90.5523 31.4477 91 32 91H96C96.5523 91 97 90.5523 97 90V44C97 43.4477 96.5523 43 96 43H89C88.4477 43 88 42.5523 88 42V38C88 37.4477 87.5523 37 87 37H74C73.4477 37 73 37.4477 73 38V42C73 42.5523 72.5523 43 72 43H56C55.4477 43 55 42.5523 55 42V38C55 37.4477 54.5523 37 54 37H41ZM43 41C43 40.4477 43.4477 40 44 40H51C51.5523 40 52 40.4477 52 41V45C52 45.5523 52.4477 46 53 46H75C75.5523 46 76 45.5523 76 45V41C76 40.4477 76.4477 40 77 40H84C84.5523 40 85 40.4477 85 41V45C85 45.5523 85.4477 46 86 46H93C93.5523 46 94 46.4477 94 47V87C94 87.5523 93.5523 88 93 88H35C34.4477 88 34 87.5523 34 87V47C34 46.4477 34.4477 46 35 46H42C42.5523 46 43 45.5523 43 45V41Z" fill="url(#paint1_linear_68_262)" stroke="url(#paint2_linear_68_262)" stroke-width="4"/>
<defs>
<linearGradient id="paint0_linear_68_262" x1="63.9993" y1="118" x2="63.9993" y2="10" gradientUnits="userSpaceOnUse">
<stop stop-color="#FDA700"/>
<stop offset="1" stop-color="#FFDE00"/>
</linearGradient>
<linearGradient id="paint1_linear_68_262" x1="64" y1="91" x2="64" y2="37" gradientUnits="userSpaceOnUse">
<stop stop-color="#FDA700"/>
<stop offset="1" stop-color="#FFDE00"/>
</linearGradient>
<linearGradient id="paint2_linear_68_262" x1="64" y1="91" x2="64" y2="37" gradientUnits="userSpaceOnUse">
<stop stop-color="#FDA700"/>
<stop offset="1" stop-color="#FFDE00"/>
</linearGradient>
</defs>
</svg>
