<svg width="128" height="128" viewBox="0 0 128 128" fill="none" xmlns="http://www.w3.org/2000/svg">
<path opacity="0.4" d="M11 38C11 22.536 23.536 10 39 10H69C95.5097 10 117 31.4903 117 58V90C117 105.464 104.464 118 89 118H39C23.536 118 11 105.464 11 90V38Z" fill="url(#paint0_linear_59_289)"/>
<path fill-rule="evenodd" clip-rule="evenodd" d="M116.624 52H89C81.268 52 75 45.732 75 38V10.4048C96.7012 13.1109 113.903 30.3034 116.624 52Z" fill="url(#paint1_linear_59_289)"/>
<path fill-rule="evenodd" clip-rule="evenodd" d="M33.2519 37C29.2098 37 27 40.618 27 43.6528V55V69V80.3472C27 83.382 29.2097 87 33.2519 87H48.64H64.0281C68.0705 87 70.28 83.3818 70.28 80.3472V69V55V43.6528C70.28 40.6182 68.0705 37 64.0281 37H48.64H33.2519ZM36 51C35.4477 51 35 50.5523 35 50V46C35 45.4477 35.4477 45 36 45H43.64C44.1923 45 44.64 45.4477 44.64 46V50C44.64 50.5523 44.1923 51 43.64 51H36ZM53.64 51C53.0877 51 52.64 50.5523 52.64 50V46C52.64 45.4477 53.0877 45 53.64 45H61.28C61.8323 45 62.28 45.4477 62.28 46V50C62.28 50.5523 61.8323 51 61.28 51H53.64ZM52.64 60C52.64 59.4477 53.0877 59 53.64 59H61.28C61.8323 59 62.28 59.4477 62.28 60V64C62.28 64.5523 61.8323 65 61.28 65H53.64C53.0877 65 52.64 64.5523 52.64 64V60ZM52.64 74C52.64 73.4477 53.0877 73 53.64 73H61.28C61.8323 73 62.28 73.4477 62.28 74V78C62.28 78.5523 61.8323 79 61.28 79H53.64C53.0877 79 52.64 78.5523 52.64 78V74ZM43.64 73C44.1923 73 44.64 73.4477 44.64 74V78C44.64 78.5523 44.1923 79 43.64 79H36C35.4477 79 35 78.5523 35 78V74C35 73.4477 35.4477 73 36 73H43.64ZM44.64 64C44.64 64.5523 44.1923 65 43.64 65H36C35.4477 65 35 64.5523 35 64V60C35 59.4477 35.4477 59 36 59H43.64C44.1923 59 44.64 59.4477 44.64 60V64ZM34 95C32.9391 95 31.9217 95.4214 31.1716 96.1716C30.4214 96.9217 30 97.9391 30 99C30 100.061 30.4214 101.078 31.1716 101.828C31.9217 102.579 32.9391 103 34 103H63.3333C64.3942 103 65.4116 102.579 66.1618 101.828C66.9119 101.078 67.3333 100.061 67.3333 99C67.3333 97.9391 66.9119 96.9217 66.1618 96.1716C65.4116 95.4214 64.3942 95 63.3333 95H34Z" fill="url(#paint2_linear_59_289)"/>
<defs>
<linearGradient id="paint0_linear_59_289" x1="64" y1="118" x2="64" y2="10" gradientUnits="userSpaceOnUse">
<stop stop-color="#00B59C"/>
<stop offset="1" stop-color="#9CFFAC"/>
</linearGradient>
<linearGradient id="paint1_linear_59_289" x1="95.8122" y1="52" x2="95.8122" y2="10.4048" gradientUnits="userSpaceOnUse">
<stop stop-color="#02AA93"/>
<stop offset="1" stop-color="#67FF80"/>
</linearGradient>
<linearGradient id="paint2_linear_59_289" x1="48.64" y1="103" x2="48.64" y2="37" gradientUnits="userSpaceOnUse">
<stop stop-color="#02AA93"/>
<stop offset="1" stop-color="#67FF80"/>
</linearGradient>
</defs>
</svg>
