<svg width="128" height="128" viewBox="0 0 128 128" fill="none" xmlns="http://www.w3.org/2000/svg">
<path opacity="0.4" d="M11 38C11 22.536 23.536 10 39 10H69C95.5097 10 117 31.4903 117 58V90C117 105.464 104.464 118 89 118H39C23.536 118 11 105.464 11 90V38Z" fill="url(#paint0_linear_59_150)"/>
<path fill-rule="evenodd" clip-rule="evenodd" d="M116.624 52H89C81.268 52 75 45.732 75 38V10.4048C96.7012 13.1109 113.903 30.3035 116.624 52Z" fill="url(#paint1_linear_59_150)"/>
<path fill-rule="evenodd" clip-rule="evenodd" d="M41.7677 68.7895C42.1589 68.4961 42.4034 68.2027 42.5012 67.9093L46.9999 57.5915L51.4988 67.9093C51.5966 68.2027 51.8248 68.4961 52.1834 68.7895C52.5746 69.0829 53.0636 69.2296 53.6504 69.2296H60.4964C61.1158 69.2296 61.6211 69.0503 62.0122 68.6917C62.436 68.3005 62.6805 67.8604 62.7457 67.3714L67 36.2225V36.0758C67 35.7824 66.8859 35.5379 66.6577 35.3423C66.4621 35.1141 66.2176 35 65.9242 35H57.5135C56.8615 35 56.3236 35.1956 55.8998 35.5868C55.5086 35.978 55.2804 36.467 55.2152 37.0538L53.6504 52.0169L50.8143 44.2419C50.7165 43.9159 50.472 43.6062 50.0808 43.3128C49.7222 42.9869 49.2495 42.8239 48.6627 42.8239H45.3373C44.7505 42.8239 44.2615 42.9869 43.8703 43.3128C43.5117 43.6062 43.2836 43.9159 43.1858 44.2419L40.3496 52.0169L38.7848 37.0538C38.7196 36.467 38.4751 35.978 38.0513 35.5868C37.6601 35.1956 37.1385 35 36.4865 35H28.0758C27.7824 35 27.5216 35.1141 27.2934 35.3423C27.0978 35.5379 27 35.7824 27 36.0758V36.2225L31.2543 67.3714C31.3195 67.8604 31.5477 68.3005 31.9389 68.6917C32.3626 69.0503 32.8842 69.2296 33.5036 69.2296H40.3496C40.9364 69.2296 41.4091 69.0829 41.7677 68.7895ZM34 78.56C32.9391 78.56 31.9217 78.9814 31.1716 79.7316C30.4214 80.4817 30 81.4991 30 82.56C30 83.6209 30.4214 84.6383 31.1716 85.3884C31.9217 86.1386 32.9391 86.56 34 86.56H76.6667C77.7275 86.56 78.7449 86.1386 79.4951 85.3884C80.2452 84.6383 80.6667 83.6209 80.6667 82.56C80.6667 81.4991 80.2452 80.4817 79.4951 79.7316C78.7449 78.9814 77.7275 78.56 76.6667 78.56H34ZM34 95.2267C32.9391 95.2267 31.9217 95.6481 31.1716 96.3982C30.4214 97.1484 30 98.1658 30 99.2267C30 100.288 30.4214 101.305 31.1716 102.055C31.9217 102.805 32.9391 103.227 34 103.227H63.3333C64.3942 103.227 65.4116 102.805 66.1618 102.055C66.9119 101.305 67.3333 100.288 67.3333 99.2267C67.3333 98.1658 66.9119 97.1484 66.1618 96.3982C65.4116 95.6481 64.3942 95.2267 63.3333 95.2267H34Z" fill="url(#paint2_linear_59_150)"/>
<defs>
<linearGradient id="paint0_linear_59_150" x1="64" y1="118" x2="64" y2="10" gradientUnits="userSpaceOnUse">
<stop stop-color="#5570FF"/>
<stop offset="1" stop-color="#4DD3FF"/>
</linearGradient>
<linearGradient id="paint1_linear_59_150" x1="96" y1="52" x2="96" y2="10.0334" gradientUnits="userSpaceOnUse">
<stop stop-color="#5570FF"/>
<stop offset="1" stop-color="#4DD3FF"/>
</linearGradient>
<linearGradient id="paint2_linear_59_150" x1="62.2467" y1="103.227" x2="62.2467" y2="35" gradientUnits="userSpaceOnUse">
<stop stop-color="#5558FF"/>
<stop offset="1" stop-color="#00C0FF"/>
</linearGradient>
</defs>
</svg>
