<svg width="128" height="128" viewBox="0 0 128 128" fill="none" xmlns="http://www.w3.org/2000/svg">
<path opacity="0.4" d="M11 38C11 22.536 23.536 10 39 10H69C95.5097 10 117 31.4903 117 58V90C117 105.464 104.464 118 89 118H39C23.536 118 11 105.464 11 90V38Z" fill="url(#paint0_linear_59_229)"/>
<path fill-rule="evenodd" clip-rule="evenodd" d="M116.624 52H89C81.268 52 75 45.732 75 38V10.4048C96.7012 13.1109 113.903 30.3034 116.624 52Z" fill="url(#paint1_linear_59_229)"/>
<path fill-rule="evenodd" clip-rule="evenodd" d="M31.4892 32.3501C32.418 31.4716 33.6627 31 34.9276 31H55.4793C56.1786 31 56.8795 31.065 57.5504 31.1748C59.0118 31.379 60.4297 31.7689 61.7846 32.3458C63.7558 33.1571 65.459 34.4592 66.7599 36.0837L66.7767 36.1046L66.7929 36.1261C67.5525 37.1286 68.1411 38.2393 68.534 39.439L68.5385 39.4526L68.5428 39.4663C68.9346 40.7232 69.1456 42.0317 69.1311 43.3844C69.1456 44.7219 68.9353 46.046 68.5406 47.296L68.5374 47.3061L68.5341 47.3163C68.1441 48.5069 67.5566 49.6382 66.7831 50.6422L66.7716 50.6572L66.7598 50.6719C65.4555 52.3003 63.7509 53.6001 61.7847 54.4232L61.7796 54.4253C60.4234 54.9887 59.0054 55.3777 57.5446 55.595L57.5319 55.5969C56.8825 55.6892 56.203 55.7527 55.5264 55.7686L55.5029 55.7692H39.8552V66.2308C39.8552 67.5244 39.3139 68.7532 38.3806 69.6359C37.4424 70.5234 36.1999 71 34.9276 71C33.6649 71 32.4139 70.5294 31.4797 69.6268C30.5717 68.7634 30 67.5461 30 66.2308V50.2308C30 48.0217 31.7909 46.2308 34 46.2308H55.3587C55.597 46.2189 55.809 46.1978 55.988 46.1655L56.0437 46.1555L56.0998 46.1486C56.6845 46.077 57.2792 45.9097 57.8444 45.6697L57.8512 45.6668L57.858 45.664C58.2862 45.4858 58.6425 45.2231 58.9012 44.9173C59.0054 44.7683 59.078 44.619 59.1182 44.4905L59.1207 44.4825C59.2337 44.1264 59.2851 43.7665 59.2765 43.4361L59.2752 43.3852L59.2765 43.3343C59.2853 42.9864 59.2329 42.6262 59.1207 42.2727L59.1182 42.265C59.0781 42.1366 59.0055 41.9872 58.9012 41.838C58.6423 41.532 58.2859 41.2692 57.8579 41.0911L57.8511 41.0883L57.8443 41.0854C57.2798 40.8457 56.685 40.6785 56.0994 40.6067L56.0435 40.5998L55.9882 40.5899C55.8012 40.5562 55.5979 40.5384 55.4059 40.5384H34.9276C33.6649 40.5384 32.4139 40.0679 31.4796 39.1653C30.5719 38.302 30 37.0851 30 35.7692C30 34.4449 30.5782 33.2349 31.4701 32.3685L31.4796 32.3593L31.4892 32.3501ZM34 78.5601C32.9391 78.5601 31.9217 78.9815 31.1716 79.7316C30.4214 80.4818 30 81.4992 30 82.5601C30 83.6209 30.4214 84.6383 31.1716 85.3885C31.9217 86.1386 32.9391 86.5601 34 86.5601H76.6667C77.7275 86.5601 78.7449 86.1386 79.4951 85.3885C80.2452 84.6383 80.6667 83.6209 80.6667 82.5601C80.6667 81.4992 80.2452 80.4818 79.4951 79.7316C78.7449 78.9815 77.7275 78.5601 76.6667 78.5601H34ZM34 95.2267C32.9391 95.2267 31.9217 95.6482 31.1716 96.3983C30.4214 97.1484 30 98.1659 30 99.2267C30 100.288 30.4214 101.305 31.1716 102.055C31.9217 102.805 32.9391 103.227 34 103.227H63.3333C64.3942 103.227 65.4116 102.805 66.1618 102.055C66.9119 101.305 67.3333 100.288 67.3333 99.2267C67.3333 98.1659 66.9119 97.1484 66.1618 96.3983C65.4116 95.6482 64.3942 95.2267 63.3333 95.2267H34Z" fill="url(#paint2_linear_59_229)"/>
<defs>
<linearGradient id="paint0_linear_59_229" x1="64" y1="118" x2="64" y2="10" gradientUnits="userSpaceOnUse">
<stop stop-color="#FD5900"/>
<stop offset="1" stop-color="#FFDE00"/>
</linearGradient>
<linearGradient id="paint1_linear_59_229" x1="95.8122" y1="52" x2="95.8122" y2="10.4048" gradientUnits="userSpaceOnUse">
<stop stop-color="#FD4C00"/>
<stop offset="1" stop-color="#FFB800"/>
</linearGradient>
<linearGradient id="paint2_linear_59_229" x1="39.3855" y1="17.4575" x2="102.603" y2="111.374" gradientUnits="userSpaceOnUse">
<stop stop-color="#FFCA64"/>
<stop offset="1" stop-color="#C70000"/>
</linearGradient>
</defs>
</svg>
