<svg width="16" height="16" viewBox="0 0 16 16" fill="none" xmlns="http://www.w3.org/2000/svg">
<g clip-path="url(#clip0_448_144)">
<path fill-rule="evenodd" clip-rule="evenodd" d="M3.5113 1.3111C2.8667 1.95497 2.8667 2.99264 2.8667 5.0665V10.9332C2.8667 13.007 2.8667 14.0447 3.5113 14.6886C4.15517 15.3332 5.19283 15.3332 7.26671 15.3332H8.73337C10.8072 15.3332 11.8449 15.3332 12.4888 14.6886C13.1334 14.0447 13.1334 13.007 13.1334 10.9332V5.0665C13.1334 2.99264 13.1334 1.95497 12.4888 1.3111C11.8449 0.666504 10.8072 0.666504 8.73337 0.666504H7.26671C5.19283 0.666504 4.15517 0.666504 3.5113 1.3111ZM5.25003 11.6665C5.25003 11.5206 5.30798 11.3808 5.41113 11.2776C5.51427 11.1744 5.65416 11.1165 5.80003 11.1165H8.00004C8.14591 11.1165 8.28577 11.1744 8.38897 11.2776C8.49211 11.3808 8.55004 11.5206 8.55004 11.6665C8.55004 11.8124 8.49211 11.9522 8.38897 12.0554C8.28577 12.1586 8.14591 12.2165 8.00004 12.2165H5.80003C5.65416 12.2165 5.51427 12.1586 5.41113 12.0554C5.30798 11.9522 5.25003 11.8124 5.25003 11.6665ZM5.80003 8.18317C5.65416 8.18317 5.51427 8.2411 5.41113 8.34424C5.30798 8.44744 5.25003 8.5873 5.25003 8.73317C5.25003 8.87904 5.30798 9.0189 5.41113 9.1221C5.51427 9.22524 5.65416 9.28317 5.80003 9.28317H10.2C10.3459 9.28317 10.4858 9.22524 10.589 9.1221C10.6921 9.0189 10.75 8.87904 10.75 8.73317C10.75 8.5873 10.6921 8.44744 10.589 8.34424C10.4858 8.2411 10.3459 8.18317 10.2 8.18317H5.80003ZM5.25003 5.79984C5.25003 5.65397 5.30798 5.51408 5.41113 5.41093C5.51427 5.30778 5.65416 5.24984 5.80003 5.24984H10.2C10.3459 5.24984 10.4858 5.30778 10.589 5.41093C10.6921 5.51408 10.75 5.65397 10.75 5.79984C10.75 5.9457 10.6921 6.0856 10.589 6.18874C10.4858 6.29189 10.3459 6.34984 10.2 6.34984H5.80003C5.65416 6.34984 5.51427 6.29189 5.41113 6.18874C5.30798 6.0856 5.25003 5.9457 5.25003 5.79984Z" fill="url(#paint0_linear_448_144)"/>
<path opacity="0.45" d="M3.03896 2.17578C2.86663 2.82331 2.86663 3.72971 2.86663 5.06658V10.9333C2.86663 12.2701 2.86663 13.1758 3.03896 13.8241L2.86663 13.8109C2.15163 13.7405 1.67056 13.5813 1.31123 13.222C0.666626 12.5781 0.666626 11.5405 0.666626 9.46659V6.53325C0.666626 4.45865 0.666626 3.42171 1.31123 2.77785C1.67056 2.41851 2.15163 2.25938 2.86663 2.18898L3.03896 2.17578ZM12.961 13.8241C13.1333 13.1758 13.1333 12.2694 13.1333 10.9333V5.06658C13.1333 3.72971 13.1333 2.82331 12.961 2.17578L13.1333 2.18898C13.8483 2.25938 14.3294 2.41851 14.6887 2.77785C15.3333 3.42171 15.3333 4.45791 15.3333 6.53251V9.46585C15.3333 11.5412 15.3333 12.5774 14.6887 13.222C14.3294 13.5813 13.8483 13.7405 13.1333 13.8109L12.961 13.8241Z" fill="url(#paint1_linear_448_144)"/>
</g>
<defs>
<linearGradient id="paint0_linear_448_144" x1="8.00004" y1="15.3332" x2="8.00004" y2="0.666504" gradientUnits="userSpaceOnUse">
<stop stop-color="#5558FF"/>
<stop offset="1" stop-color="#00C0FF"/>
</linearGradient>
<linearGradient id="paint1_linear_448_144" x1="7.99996" y1="13.8241" x2="7.99996" y2="2.17578" gradientUnits="userSpaceOnUse">
<stop stop-color="#5558FF"/>
<stop offset="1" stop-color="#00C0FF"/>
</linearGradient>
<clipPath id="clip0_448_144">
<rect width="16" height="16" fill="white"/>
</clipPath>
</defs>
</svg>
