<svg width="16" height="16" viewBox="0 0 16 16" fill="none" xmlns="http://www.w3.org/2000/svg">
<g clip-path="url(#clip0_448_338)">
<path opacity="0.5" d="M7.99996 15.3337C12.0502 15.3337 15.3333 12.0505 15.3333 8.00033C15.3333 3.95013 12.0502 0.666992 7.99996 0.666992C3.94976 0.666992 0.666626 3.95013 0.666626 8.00033C0.666626 12.0505 3.94976 15.3337 7.99996 15.3337Z" fill="url(#paint0_linear_448_338)"/>
<path d="M7.9993 2.13379C6.63833 2.13652 5.32276 2.62954 4.27609 3.52454C4.18098 3.6059 4.17391 3.75061 4.26089 3.84074L4.79362 4.3932C4.87233 4.4749 5.00079 4.48226 5.08842 4.40999C5.91453 3.72866 6.94017 3.3544 7.9997 3.35146C9.24537 3.35146 10.4399 3.86459 11.3207 4.7779C12.154 5.64215 12.6419 6.79752 12.692 8.01358C12.6968 8.13018 12.7928 8.22198 12.9093 8.22198H13.6493C13.7722 8.22198 13.871 8.11998 13.8665 7.99685C13.8119 6.46405 13.2008 5.0056 12.151 3.91703C11.05 2.77528 9.55623 2.13384 7.9993 2.13379Z" fill="url(#paint1_linear_448_338)"/>
<path d="M2.91538 5.8889C2.80525 5.7746 2.61384 5.813 2.55624 5.96085C2.30375 6.60875 2.16067 7.29736 2.13347 7.99616C2.12867 8.11936 2.22735 8.2219 2.35075 8.2219H3.09052C3.2069 8.2219 3.30265 8.1305 3.30775 8.0141C3.32735 7.56816 3.40599 7.1269 3.54152 6.70303C3.56587 6.62674 3.54644 6.54344 3.49094 6.48578L2.91538 5.8889Z" fill="url(#paint2_linear_448_338)"/>
<path d="M7.9993 2.13379C6.63833 2.13652 5.32276 2.62954 4.27609 3.52454C4.18098 3.6059 4.17391 3.75061 4.26089 3.84074L4.79362 4.3932C4.87233 4.4749 5.00079 4.48226 5.08842 4.40999C5.91453 3.72866 6.94017 3.3544 7.9997 3.35146C9.24537 3.35146 10.4399 3.86459 11.3207 4.7779C12.154 5.64215 12.6419 6.79752 12.692 8.01358C12.6968 8.13018 12.7928 8.22198 12.9093 8.22198H13.6493C13.7722 8.22198 13.871 8.11998 13.8665 7.99685C13.8119 6.46405 13.2008 5.0056 12.151 3.91703C11.05 2.77528 9.55623 2.13384 7.9993 2.13379Z" fill="url(#paint3_linear_448_338)"/>
<path d="M3.49094 6.48578C3.54644 6.54344 3.56587 6.62674 3.54152 6.70303C3.40599 7.1269 3.32735 7.56816 3.30775 8.0141C3.30265 8.1305 3.2069 8.2219 3.09052 8.2219H2.35075C2.22735 8.2219 2.12867 8.11936 2.13347 7.99616C2.16067 7.29736 2.30375 6.60875 2.55624 5.96085C2.61384 5.813 2.80525 5.7746 2.91538 5.8889L3.49094 6.48578Z" fill="url(#paint4_linear_448_338)"/>
<path fill-rule="evenodd" clip-rule="evenodd" d="M9.27981 5.68034C9.00908 5.61045 8.72728 5.74651 8.61394 6.00259L9.27981 5.68034ZM8.61394 6.00259L6.5728 10.6034C6.38753 10.8227 6.25856 11.0827 6.19758 11.362L6.19732 11.3632L6.19617 11.3686C6.19514 11.3733 6.19423 11.3782 6.19342 11.383L6.1821 11.451C6.04613 12.2771 6.51618 13.0846 7.31734 13.2818C8.11241 13.4767 8.90874 12.9901 9.19494 12.214L9.20581 12.1846C9.21361 12.164 9.21874 12.1442 9.22214 12.126L9.24208 12.0657C9.24488 12.0572 9.24734 12.0485 9.24948 12.0397L9.25128 12.0322C9.29254 11.8614 9.30914 11.685 9.29894 11.5104C9.29654 11.4694 9.29401 11.4316 9.29161 11.3962C9.28368 11.2798 9.27754 11.1896 9.28581 11.0954L9.70688 6.28409C9.73108 6.00593 9.55068 5.75025 9.27981 5.68034M7.94141 10.8834C7.77848 10.8442 7.61301 10.9038 7.53401 11.0818C7.50254 11.1524 7.45941 11.2204 7.40608 11.2798C7.32734 11.3676 7.27388 11.4708 7.24808 11.5795L7.24048 11.6253C7.18501 11.9632 7.37754 12.1918 7.57348 12.24C7.76741 12.2874 8.04488 12.1798 8.17388 11.8798L8.21288 11.7614C8.23508 11.6588 8.23388 11.558 8.21321 11.4678M7.94141 10.8834C8.10248 10.9222 8.21334 11.045 8.19688 11.2334L7.94141 10.8834Z" fill="url(#paint5_linear_448_338)"/>
</g>
<defs>
<linearGradient id="paint0_linear_448_338" x1="7.99996" y1="15.3337" x2="7.99996" y2="0.666992" gradientUnits="userSpaceOnUse">
<stop stop-color="#FD3A84"/>
<stop offset="1" stop-color="#FFA68D"/>
</linearGradient>
<linearGradient id="paint1_linear_448_338" x1="13.5357" y1="7.72938" x2="3.8565" y2="4.05846" gradientUnits="userSpaceOnUse">
<stop stop-color="#FE7970"/>
<stop offset="1" stop-color="#DC3282"/>
</linearGradient>
<linearGradient id="paint2_linear_448_338" x1="13.5357" y1="7.7293" x2="3.85648" y2="4.05838" gradientUnits="userSpaceOnUse">
<stop stop-color="#FE7970"/>
<stop offset="1" stop-color="#DC3282"/>
</linearGradient>
<linearGradient id="paint3_linear_448_338" x1="13.5357" y1="7.72938" x2="3.8565" y2="4.05846" gradientUnits="userSpaceOnUse">
<stop stop-color="#FE7970"/>
<stop offset="1" stop-color="#DC3282"/>
</linearGradient>
<linearGradient id="paint4_linear_448_338" x1="13.5357" y1="7.7293" x2="3.85648" y2="4.05838" gradientUnits="userSpaceOnUse">
<stop stop-color="#FE7970"/>
<stop offset="1" stop-color="#DC3282"/>
</linearGradient>
<linearGradient id="paint5_linear_448_338" x1="13.5356" y1="7.72931" x2="3.85642" y2="4.05839" gradientUnits="userSpaceOnUse">
<stop stop-color="#FE7970"/>
<stop offset="1" stop-color="#DC3282"/>
</linearGradient>
<clipPath id="clip0_448_338">
<rect width="16" height="16" fill="white"/>
</clipPath>
</defs>
</svg>
