<svg width="16" height="16" viewBox="0 0 16 16" fill="none" xmlns="http://www.w3.org/2000/svg">
<g clip-path="url(#clip0_448_214)">
<path d="M12.7543 11.4956C11.7519 11.7363 10.7056 11.7246 9.70882 11.4616C8.71209 11.1987 7.79616 10.6926 7.04296 9.98884C6.28982 9.28504 5.72297 8.40544 5.39318 7.42877C5.0634 6.4521 4.98098 5.4089 5.1533 4.39258C5.1271 4.41789 5.09943 4.44164 5.07044 4.46371C4.8651 4.61991 4.60844 4.67784 4.09511 4.79371L3.62944 4.89931C1.82546 5.30777 0.923465 5.51164 0.708598 6.20171C0.494465 6.89104 1.109 7.61044 2.33878 9.0485L2.65705 9.42031C3.00612 9.82877 3.18138 10.0334 3.25985 10.2856C3.33832 10.5386 3.31192 10.8114 3.25912 11.3563L3.21072 11.8528C3.02519 13.7718 2.93205 14.731 3.49378 15.1571C4.05551 15.5839 4.9003 15.1952 6.58843 14.4172L7.02622 14.2162C7.50582 13.9948 7.74562 13.8848 8.00009 13.8848C8.25456 13.8848 8.49436 13.9948 8.97469 14.2162L9.41102 14.4172C11.0999 15.1945 11.9447 15.5832 12.5057 15.1578C13.0682 14.731 12.975 13.7718 12.7895 11.8528L12.7543 11.4956Z" fill="url(#paint0_linear_448_214)"/>
<path opacity="0.5" d="M5.91229 3.16569L5.67176 3.59689C5.40776 4.07062 5.27576 4.30748 5.07043 4.46368C5.09976 4.44168 5.1269 4.41822 5.1533 4.39255C4.98093 5.40895 5.06334 6.45223 5.39316 7.42897C5.72298 8.4057 6.2899 9.28537 7.04316 9.98924C7.79642 10.693 8.71249 11.1991 9.70929 11.462C10.7062 11.7248 11.7526 11.7364 12.755 11.4956L12.7403 11.3562C12.6882 10.8114 12.6618 10.5386 12.7403 10.2856C12.8188 10.0333 12.9933 9.8287 13.3431 9.42024L13.6614 9.04844C14.8912 7.6111 15.5057 6.8917 15.2908 6.20167C15.0767 5.51161 14.1747 5.30701 12.3707 4.89928L11.9043 4.79368C11.3918 4.67782 11.1351 4.61988 10.929 4.46368C10.7237 4.30748 10.5917 4.07062 10.3277 3.59689L10.0879 3.16569C9.15876 1.49956 8.69456 0.666504 8.00009 0.666504C7.30562 0.666504 6.84142 1.49956 5.91229 3.16569Z" fill="url(#paint1_linear_448_214)"/>
</g>
<defs>
<linearGradient id="paint0_linear_448_214" x1="6.79969" y1="15.3332" x2="6.79969" y2="4.39258" gradientUnits="userSpaceOnUse">
<stop stop-color="#FD5900"/>
<stop offset="1" stop-color="#FFDE00"/>
</linearGradient>
<linearGradient id="paint1_linear_448_214" x1="10.1993" y1="11.668" x2="10.1993" y2="0.666504" gradientUnits="userSpaceOnUse">
<stop stop-color="#FD5900"/>
<stop offset="1" stop-color="#FFDE00"/>
</linearGradient>
<clipPath id="clip0_448_214">
<rect width="16" height="16" fill="white"/>
</clipPath>
</defs>
</svg>
