<svg width="16" height="16" viewBox="0 0 16 16" fill="none" xmlns="http://www.w3.org/2000/svg">
<path d="M8.15848 9.98088C7.03533 9.98088 6.12683 9.10588 6.12683 8.00688C6.12683 6.90788 7.03533 6.02588 8.15848 6.02588C9.28158 6.02588 10.1686 6.90788 10.1686 8.00688C10.1686 9.10588 9.28158 9.98088 8.15848 9.98088Z" fill="url(#paint0_linear_448_199)"/>
<path opacity="0.4" d="M14.6111 9.659C14.4752 9.449 14.282 9.239 14.0317 9.106C13.8314 9.008 13.7026 8.847 13.5881 8.658C13.2233 8.056 13.4379 7.265 14.046 6.908C14.7613 6.509 14.9903 5.62 14.5753 4.927L14.0961 4.101C13.6883 3.408 12.7941 3.163 12.0859 3.569C11.4563 3.905 10.648 3.681 10.2831 3.086C10.1687 2.89 10.1043 2.68 10.1186 2.47C10.1401 2.197 10.0542 1.938 9.9254 1.728C9.66075 1.294 9.18145 1 8.65205 1H7.6434C7.12115 1.014 6.64185 1.294 6.3772 1.728C6.24125 1.938 6.16255 2.197 6.1769 2.47C6.1912 2.68 6.1268 2.89 6.01235 3.086C5.6475 3.681 4.83914 3.905 4.21677 3.569C3.5014 3.163 2.61434 3.408 2.19942 4.101L1.72012 4.927C1.31236 5.62 1.54128 6.509 2.2495 6.908C2.85756 7.265 3.07217 8.056 2.71449 8.658C2.59288 8.847 2.46411 9.008 2.26381 9.106C2.02058 9.239 1.80597 9.449 1.69151 9.659C1.42682 10.093 1.44113 10.639 1.70582 11.094L2.19942 11.934C2.46411 12.382 2.95771 12.662 3.47278 12.662C3.71601 12.662 4.00215 12.592 4.23107 12.452C4.40992 12.333 4.62453 12.291 4.8606 12.291C5.5688 12.291 6.16255 12.872 6.1769 13.565C6.1769 14.37 6.835 15 7.66485 15H8.63775C9.46045 15 10.1186 14.37 10.1186 13.565C10.1401 12.872 10.7338 12.291 11.442 12.291C11.6709 12.291 11.8856 12.333 12.0716 12.452C12.3005 12.592 12.5795 12.662 12.8298 12.662C13.3378 12.662 13.8314 12.382 14.0961 11.934L14.5968 11.094C14.8543 10.625 14.8758 10.093 14.6111 9.659Z" fill="url(#paint1_linear_448_199)"/>
<defs>
<linearGradient id="paint0_linear_448_199" x1="6.41553" y1="8.00338" x2="9.69378" y2="7.63313" gradientUnits="userSpaceOnUse">
<stop stop-color="#8D01A2"/>
<stop offset="1" stop-color="#FF00D2"/>
</linearGradient>
<linearGradient id="paint1_linear_448_199" x1="2.45" y1="8" x2="13.2559" y2="6.8656" gradientUnits="userSpaceOnUse">
<stop stop-color="#8D01A2"/>
<stop offset="1" stop-color="#FF00D2"/>
</linearGradient>
</defs>
</svg>
