<svg width="16" height="16" viewBox="0 0 16 16" fill="none" xmlns="http://www.w3.org/2000/svg">
<path opacity="0.5" d="M11.143 13.7333C13.4574 13.7333 15.3333 11.8795 15.3333 9.5922C15.3333 7.7794 14.1548 6.23867 12.5136 5.67767C12.2804 3.60893 10.5043 2 8.34903 2C6.03463 2 4.15876 3.85387 4.15876 6.14113C4.15876 6.64713 4.25043 7.13113 4.41836 7.57993C4.21781 7.54093 4.01399 7.52133 3.80969 7.52127C2.07389 7.522 0.666626 8.9124 0.666626 10.6277C0.666626 12.3429 2.07389 13.7333 3.80969 13.7333H11.143Z" fill="url(#paint0_linear_448_194)"/>
<path d="M12.1431 13.9998C13.6472 13.9998 14.8667 12.8412 14.8667 11.4112C14.8667 10.2789 14.1004 9.31604 13.0334 8.96477C12.883 7.6719 11.728 6.6665 10.3274 6.6665C8.82257 6.6665 7.60304 7.82517 7.60304 9.25517C7.60304 9.5705 7.66317 9.8741 7.77171 10.1542C7.64111 10.1299 7.50857 10.1176 7.37571 10.1176C6.24857 10.1176 5.33337 10.9858 5.33337 12.0587C5.33337 13.1308 6.24784 13.9998 7.37644 13.9998H12.1431Z" fill="url(#paint1_linear_448_194)"/>
<defs>
<linearGradient id="paint0_linear_448_194" x1="7.99996" y1="13.7333" x2="7.99996" y2="2" gradientUnits="userSpaceOnUse">
<stop stop-color="#5570FF"/>
<stop offset="1" stop-color="#4DD3FF"/>
</linearGradient>
<linearGradient id="paint1_linear_448_194" x1="10.1" y1="13.9998" x2="10.1" y2="6.6665" gradientUnits="userSpaceOnUse">
<stop stop-color="#5570FF"/>
<stop offset="1" stop-color="#4DD3FF"/>
</linearGradient>
</defs>
</svg>
