<svg width="16" height="16" viewBox="0 0 16 16" fill="none" xmlns="http://www.w3.org/2000/svg">
<path opacity="0.4" d="M15.3334 11.595V5.03159C15.3334 4.37881 15.0143 3.75278 14.4462 3.2912C13.8781 2.82963 13.1076 2.57031 12.3042 2.57031C12.1702 2.57031 12.0418 2.61353 11.9472 2.69046C11.8524 2.76739 11.7993 2.87173 11.7993 2.98053V13.646C11.7993 13.7548 11.8524 13.8592 11.9472 13.9361C12.0418 14.013 12.1702 14.0562 12.3042 14.0562C13.1076 14.0562 13.8781 13.797 14.4462 13.3354C15.0143 12.8738 15.3334 12.2478 15.3334 11.595Z" fill="url(#paint0_linear_448_157)"/>
<path opacity="0.4" d="M0.666626 11.595V5.03159C0.666626 4.37881 0.985779 3.75278 1.55388 3.2912C2.12197 2.82963 2.89248 2.57031 3.69589 2.57031C3.82979 2.57031 3.95821 2.61353 4.05289 2.69046C4.14757 2.76739 4.20076 2.87173 4.20076 2.98053V13.646C4.20076 13.7548 4.14757 13.8592 4.05289 13.9361C3.95821 14.013 3.82979 14.0562 3.69589 14.0562C2.89248 14.0562 2.12197 13.797 1.55388 13.3354C0.985779 12.8738 0.666626 12.2478 0.666626 11.595Z" fill="url(#paint1_linear_448_157)"/>
<path d="M7.6024 14.9399C5.76941 14.9399 4.85389 14.9399 4.28437 14.3704C3.71484 13.8009 3.71484 12.8854 3.71484 11.0524V5.22105C3.71484 3.38807 3.71484 2.47255 4.28437 1.90302C4.85389 1.3335 5.76941 1.3335 7.6024 1.3335H8.57426C10.4073 1.3335 11.3228 1.3335 11.8923 1.90302C12.4618 2.47255 12.4618 3.38807 12.4618 5.22105V11.0524C12.4618 12.8854 12.4618 13.8009 11.8923 14.3704C11.3228 14.9399 10.4073 14.9399 8.57426 14.9399H7.6024Z" fill="url(#paint2_linear_448_157)"/>
<defs>
<linearGradient id="paint0_linear_448_157" x1="11.7482" y1="2.68333" x2="18.5748" y2="4.84811" gradientUnits="userSpaceOnUse">
<stop stop-color="#F9D423"/>
<stop offset="0.515624" stop-color="#FF4E50"/>
<stop offset="0.991304" stop-color="#8A2387"/>
</linearGradient>
<linearGradient id="paint1_linear_448_157" x1="0.615543" y1="2.68333" x2="7.44223" y2="4.84811" gradientUnits="userSpaceOnUse">
<stop stop-color="#F9D423"/>
<stop offset="0.515624" stop-color="#FF4E50"/>
<stop offset="0.991304" stop-color="#8A2387"/>
</linearGradient>
<linearGradient id="paint2_linear_448_157" x1="3.58841" y1="1.46738" x2="16.5111" y2="10.029" gradientUnits="userSpaceOnUse">
<stop stop-color="#F9D423"/>
<stop offset="0.515624" stop-color="#FF4E50"/>
<stop offset="0.991304" stop-color="#8A2387"/>
</linearGradient>
</defs>
</svg>
