<svg width="16" height="16" viewBox="0 0 16 16" fill="none" xmlns="http://www.w3.org/2000/svg">
<g clip-path="url(#clip0_448_235)">
<path opacity="0.4" d="M8.00002 15.3332C12.0501 15.3332 15.3334 12.0499 15.3334 7.99984C15.3334 3.94975 12.0501 0.666504 8.00002 0.666504C3.94993 0.666504 0.666687 3.94975 0.666687 7.99984C0.666687 12.0499 3.94993 15.3332 8.00002 15.3332Z" fill="url(#paint0_linear_448_235)"/>
<path fill-rule="evenodd" clip-rule="evenodd" d="M8.00002 0.666504C3.93735 0.666504 0.666687 3.93717 0.666687 7.99984C0.666687 3.94975 3.94993 0.666504 8.00002 0.666504ZM0.666687 7.99984C0.666687 11.006 2.45831 13.5753 5.03584 14.7094C2.46233 13.5708 0.666687 10.995 0.666687 7.99984ZM12.4724 13.812C11.2346 14.7658 9.68355 15.3332 8.00002 15.3332C6.94509 15.3332 5.94223 15.1104 5.03584 14.7094C5.26649 14.8109 5.50343 14.9009 5.74595 14.9787V13.4551C3.88965 13.8647 3.49905 12.6387 3.49905 12.6387C3.19545 11.8553 2.75783 11.6468 2.75783 11.6468C2.15189 11.2264 2.80259 11.2332 2.80259 11.2332C3.47242 11.2811 3.82489 11.9332 3.82489 11.9332C4.42017 12.9694 5.38725 12.6708 5.76744 12.4972C5.82807 12.0593 6.00125 11.759 6.19175 11.5895C4.70996 11.4184 3.42564 10.4708 3.42564 7.87244C3.42564 7.1323 3.9633 6.16033 4.39019 5.68668C4.32135 5.51518 4.09127 4.45898 4.45464 3.52572C4.45464 3.52572 4.48965 3.5147 4.56206 3.51139C4.71907 3.50403 5.01793 3.71738 5.53272 4.08486C5.72991 4.22563 5.95879 4.38902 6.22352 4.57128C6.80062 4.4055 7.53895 4.32797 8.00002 4.32422C8.51989 4.3199 9.12189 4.40936 9.66435 4.57128C10.6204 3.91321 11.2312 3.49952 11.4476 3.5096H11.4494C11.5217 3.51299 11.5568 3.52392 11.5568 3.52392C11.921 4.45715 11.6915 5.51518 11.623 5.68668C12.0507 6.16042 12.5834 7.1323 12.5834 7.87244C12.5834 10.4774 11.0242 11.4164 9.53795 11.5842C9.77722 11.7935 9.83695 12.2086 9.83695 12.841C9.83695 13.6047 9.83502 14.101 9.83335 14.4165V15.095C10.8064 14.846 11.7005 14.4041 12.4724 13.812ZM12.4724 13.812C14.214 12.476 15.3334 10.3753 15.3334 7.99984C15.3334 10.3664 14.2124 12.4711 12.4724 13.812ZM8.00002 0.666504C12.0501 0.666504 15.3334 3.94975 15.3334 7.99984C15.3334 3.93717 12.0627 0.666504 8.00002 0.666504Z" fill="url(#paint1_linear_448_235)"/>
</g>
<defs>
<linearGradient id="paint0_linear_448_235" x1="13.8667" y1="-0.0668298" x2="1.10669" y2="14.3065" gradientUnits="userSpaceOnUse">
<stop stop-color="#FB457A"/>
<stop offset="1" stop-color="#A500FF"/>
</linearGradient>
<linearGradient id="paint1_linear_448_235" x1="13.8667" y1="-0.0668298" x2="1.10669" y2="14.3065" gradientUnits="userSpaceOnUse">
<stop stop-color="#FB457A"/>
<stop offset="1" stop-color="#A500FF"/>
</linearGradient>
<clipPath id="clip0_448_235">
<rect width="16" height="16" fill="white"/>
</clipPath>
</defs>
</svg>
