<svg width="16" height="16" viewBox="0 0 16 16" fill="none" xmlns="http://www.w3.org/2000/svg">
<g clip-path="url(#clip0_448_268)">
<path opacity="0.4" d="M0.666656 10.6667C0.666656 8.46713 0.666656 7.36653 1.31126 6.68367C1.95512 6 2.99279 6 5.06666 6H10.9333C13.0072 6 14.0449 6 14.6887 6.68367C15.3333 7.36653 15.3333 8.46713 15.3333 10.6667C15.3333 12.8662 15.3333 13.9668 14.6887 14.6497C14.0449 15.3333 13.0072 15.3333 10.9333 15.3333H5.06666C2.99279 15.3333 1.95512 15.3333 1.31126 14.6497C0.666656 13.9668 0.666656 12.8662 0.666656 10.6667Z" fill="url(#paint0_linear_448_268)"/>
<path d="M5.23458 11.3332C5.41794 11.3332 5.59379 11.2618 5.72344 11.1348C5.8531 11.0078 5.92594 10.8356 5.92594 10.6559C5.92594 10.4763 5.8531 10.304 5.72344 10.177C5.59379 10.05 5.41794 9.9787 5.23458 9.9787C5.05122 9.9787 4.87537 10.05 4.74572 10.177C4.61606 10.304 4.54322 10.4763 4.54322 10.6559C4.54322 10.8356 4.61606 11.0078 4.74572 11.1348C4.87537 11.2618 5.05122 11.3332 5.23458 11.3332ZM8.00001 11.3332C8.18334 11.3332 8.35921 11.2618 8.48888 11.1348C8.61854 11.0078 8.69134 10.8356 8.69134 10.6559C8.69134 10.4763 8.61854 10.304 8.48888 10.177C8.35921 10.05 8.18334 9.9787 8.00001 9.9787C7.81668 9.9787 7.64081 10.05 7.51114 10.177C7.38148 10.304 7.30868 10.4763 7.30868 10.6559C7.30868 10.8356 7.38148 11.0078 7.51114 11.1348C7.64081 11.2618 7.81668 11.3332 8.00001 11.3332ZM11.4568 10.6559C11.4568 10.8356 11.3839 11.0078 11.2543 11.1348C11.1247 11.2618 10.9488 11.3332 10.7654 11.3332C10.5821 11.3332 10.4062 11.2618 10.2766 11.1348C10.1469 11.0078 10.0741 10.8356 10.0741 10.6559C10.0741 10.4763 10.1469 10.304 10.2766 10.177C10.4062 10.05 10.5821 9.9787 10.7654 9.9787C10.9488 9.9787 11.1247 10.05 11.2543 10.177C11.3839 10.304 11.4568 10.4763 11.4568 10.6559ZM4.37038 5.23793C4.37038 4.29494 4.75278 3.39057 5.43348 2.72378C6.11416 2.05698 7.03734 1.68238 8.00001 1.68238C8.96268 1.68238 9.88588 2.05698 10.5665 2.72378C11.2472 3.39057 11.6296 4.29494 11.6296 5.23793V6.09712C11.6296 6.37286 11.8856 6.5964 12.1613 6.60458C12.4527 6.61324 12.6667 6.38088 12.6667 6.08926V5.23793C12.6667 4.02552 12.175 2.86275 11.2998 2.00544C10.4247 1.14814 9.23768 0.666504 8.00001 0.666504C6.76234 0.666504 5.57535 1.14814 4.70018 2.00544C3.82501 2.86275 3.33334 4.02552 3.33334 5.23793V6.0935C3.33334 6.38386 3.57864 6.61312 3.86885 6.60376C4.14591 6.59482 4.37038 6.37073 4.37038 6.09353V5.23793Z" fill="url(#paint1_linear_448_268)" stroke="url(#paint2_linear_448_268)"/>
</g>
<defs>
<linearGradient id="paint0_linear_448_268" x1="14.9197" y1="10.6667" x2="4.4601" y2="4.72101" gradientUnits="userSpaceOnUse">
<stop stop-color="#FE7970"/>
<stop offset="1" stop-color="#DC3282"/>
</linearGradient>
<linearGradient id="paint1_linear_448_268" x1="12.4034" y1="5.99984" x2="4.39856" y2="3.46614" gradientUnits="userSpaceOnUse">
<stop stop-color="#FE7970"/>
<stop offset="1" stop-color="#DC3282"/>
</linearGradient>
<linearGradient id="paint2_linear_448_268" x1="12.4034" y1="5.99984" x2="4.39856" y2="3.46614" gradientUnits="userSpaceOnUse">
<stop stop-color="#FE7970"/>
<stop offset="1" stop-color="#DC3282"/>
</linearGradient>
<clipPath id="clip0_448_268">
<rect width="16" height="16" fill="white"/>
</clipPath>
</defs>
</svg>
