<svg width="16" height="16" viewBox="0 0 16 16" fill="none" xmlns="http://www.w3.org/2000/svg">
<g clip-path="url(#clip0_448_351)">
<path d="M8.5116 8.34611L8.51227 8.34651L13.3958 6.39309C13.8337 6.21793 14.3101 6.54043 14.3101 7.01205V8.66651C14.3101 9.19318 13.6863 9.54558 13.1597 9.53524C13.078 9.53364 12.9959 9.53658 12.9138 9.54411C12.4235 9.58904 11.9623 9.79591 11.6025 10.132C11.2429 10.4681 11.0053 10.9144 10.9273 11.4004C10.8492 11.8865 10.9352 12.3847 11.1715 12.8165C11.4079 13.2483 11.7813 13.5892 12.2329 13.7853C12.6843 13.9815 13.1883 14.0218 13.6653 13.8999C14.1422 13.778 14.5651 13.5008 14.8671 13.112C15.1691 12.7233 15.3331 12.2451 15.3333 11.7528V5.23402C15.3333 4.4543 15.3333 3.80078 15.2787 3.2796C15.2711 3.20779 15.262 3.13615 15.2515 3.06472C15.1983 2.70863 15.1055 2.37709 14.9247 2.09945C14.8145 1.92881 14.6706 1.78255 14.5017 1.66968L14.497 1.66627C14.014 1.34565 13.4717 1.36816 12.913 1.51073C12.3727 1.64853 11.7028 1.92891 10.8815 2.27272L9.453 2.8703C9.0676 3.03129 8.74153 3.16841 8.48573 3.30962C8.21287 3.45969 7.97887 3.63706 7.80287 3.90174C7.62687 4.16643 7.5532 4.45089 7.51973 4.76059C7.4884 5.0512 7.4884 5.40525 7.4884 5.82273V10.0302C7.4884 10.5568 6.86453 10.9092 6.33803 10.8989C6.25626 10.8973 6.17415 10.9002 6.09208 10.9078C5.60185 10.9527 5.14054 11.1596 4.78086 11.4956C4.42117 11.8318 4.18359 12.278 4.10555 12.7641C4.02751 13.2502 4.11347 13.7484 4.34986 14.1802C4.58625 14.612 4.95964 14.9528 5.41115 15.149C5.86266 15.3452 6.36661 15.3854 6.84353 15.2636C7.32053 15.1416 7.74333 14.8645 8.04533 14.4757C8.3474 14.087 8.5114 13.6088 8.5116 13.1165V8.34611Z" fill="url(#paint0_linear_448_351)"/>
<path opacity="0.4" d="M5.1008 1.17862C5.1008 1.04293 5.04689 0.912792 4.95095 0.816846C4.85499 0.720899 4.72486 0.666992 4.58917 0.666992C4.45348 0.666992 4.32334 0.720899 4.22739 0.816846C4.13145 0.912792 4.07754 1.04293 4.07754 1.17862V3.89076C4.07754 4.41739 3.45373 4.76981 2.92721 4.75949C2.84543 4.75789 2.76333 4.76081 2.68125 4.76833C2.19103 4.8133 1.72971 5.02014 1.37003 5.35625C1.01035 5.69236 0.772761 6.13862 0.694721 6.62467C0.616688 7.11073 0.702641 7.60893 0.939035 8.04073C1.17543 8.47253 1.54881 8.81339 2.00032 9.00959C2.45183 9.20573 2.95579 9.24606 3.43274 9.12413C3.90969 9.00226 4.3325 8.72506 4.63452 8.33633C4.93654 7.94759 5.10059 7.46933 5.1008 6.97706V4.53112C5.1008 3.98751 5.75899 3.63473 6.29708 3.71199C6.41249 3.72856 6.52597 3.73676 6.63568 3.73676C6.77135 3.73676 6.90149 3.68286 6.99749 3.58691C7.09342 3.49096 7.14729 3.36083 7.14729 3.22513C7.14729 3.08944 7.09342 2.95931 6.99749 2.86336C6.90149 2.76741 6.77135 2.71351 6.63568 2.71351C6.26485 2.70445 5.90763 2.57194 5.62061 2.33695C5.32455 2.09341 5.1008 1.72299 5.1008 1.17862Z" fill="url(#paint1_linear_448_351)"/>
</g>
<defs>
<linearGradient id="paint0_linear_448_351" x1="9.7054" y1="15.3326" x2="9.7054" y2="1.41113" gradientUnits="userSpaceOnUse">
<stop stop-color="#A93AFF"/>
<stop offset="1" stop-color="#FF81FF"/>
</linearGradient>
<linearGradient id="paint1_linear_448_351" x1="3.907" y1="9.19319" x2="3.907" y2="0.666992" gradientUnits="userSpaceOnUse">
<stop stop-color="#A93AFF"/>
<stop offset="1" stop-color="#FF81FF"/>
</linearGradient>
<clipPath id="clip0_448_351">
<rect width="16" height="16" fill="white"/>
</clipPath>
</defs>
</svg>
