<svg width="16" height="16" viewBox="0 0 16 16" fill="none" xmlns="http://www.w3.org/2000/svg">
<path opacity="0.4" d="M11.808 3.76549L11.738 3.61165C11.549 3.2131 11.332 2.75161 11.199 2.4859C10.877 1.8566 10.324 1.50699 9.645 1.5H6.348C5.669 1.50699 5.123 1.8566 4.801 2.4859C4.661 2.76559 4.423 3.26904 4.227 3.68158L4.185 3.76549C4.164 3.82142 4.108 3.84939 4.052 3.84939C2.365 3.84939 1 5.21985 1 6.898V11.0514C1 12.7295 2.365 14.1 4.052 14.1H11.948C13.628 14.1 15 12.7295 15 11.0514V6.898C15 5.21985 13.628 3.84939 11.948 3.84939C11.885 3.84939 11.836 3.81443 11.808 3.76549Z" fill="url(#paint0_linear_448_191)"/>
<path fill-rule="evenodd" clip-rule="evenodd" d="M11.297 6.45026C11.297 6.79986 11.577 7.07957 11.927 7.07957C12.277 7.07957 12.564 6.79986 12.564 6.45026C12.564 6.10066 12.277 5.81396 11.927 5.81396C11.577 5.81396 11.297 6.10066 11.297 6.45026ZM9.93903 10.6736C9.44203 11.17 8.75603 11.4777 8.00003 11.4777C7.26503 11.4777 6.57903 11.191 6.05403 10.6736C5.53603 10.1492 5.24903 9.46391 5.24903 8.72971C5.24203 8.00256 5.52903 7.31731 6.04703 6.79286C6.57203 6.26846 7.26503 5.98181 8.00003 5.98181C8.73503 5.98181 9.42803 6.26846 9.94603 6.78591C10.464 7.31031 10.751 8.00256 10.751 8.72971C10.744 9.49191 10.436 10.1771 9.93903 10.6736Z" fill="url(#paint1_linear_448_191)"/>
<defs>
<linearGradient id="paint0_linear_448_191" x1="8" y1="14.1" x2="8" y2="1.5" gradientUnits="userSpaceOnUse">
<stop stop-color="#FD5900"/>
<stop offset="1" stop-color="#FFDE00"/>
</linearGradient>
<linearGradient id="paint1_linear_448_191" x1="8.90648" y1="11.4777" x2="8.90648" y2="5.81396" gradientUnits="userSpaceOnUse">
<stop stop-color="#FD5900"/>
<stop offset="1" stop-color="#FFDE00"/>
</linearGradient>
</defs>
</svg>
