<svg width="16" height="16" viewBox="0 0 16 16" fill="none" xmlns="http://www.w3.org/2000/svg">
<g clip-path="url(#clip0_448_220)">
<path opacity="0.5" d="M9.15609 4.47168C11.19 4.47168 12.2066 4.47168 12.9885 4.96355C13.1864 5.08771 13.3706 5.23351 13.5364 5.39773C14.1933 6.04661 14.4248 7.03755 14.8878 9.01861L15.7066 12.5217C15.8342 13.0693 15.7558 13.6447 15.4864 14.1382C15.2171 14.6317 14.7756 15.0089 14.246 15.1978C13.7164 15.3867 13.1359 15.3741 12.615 15.1625C12.0941 14.9509 11.6693 14.5549 11.4216 14.0502L11.3254 13.8531C11.1142 13.4219 10.7862 13.0587 10.3788 12.8046C9.97143 12.5505 9.50089 12.4159 9.02069 12.416H7.41536C6.93503 12.4155 6.4642 12.5499 6.05647 12.8039C5.64875 13.0578 5.32048 13.4211 5.10903 13.8523L5.0129 14.0494C4.76567 14.555 4.34087 14.9519 3.81961 15.1641C3.29835 15.3764 2.71717 15.3892 2.18705 15.2001C1.65694 15.0111 1.21503 14.6334 0.945733 14.1392C0.676433 13.645 0.598602 13.0689 0.727107 12.5209L1.54581 9.01701C2.00884 7.03675 2.24035 6.04661 2.89724 5.39693C3.06351 5.23265 3.24725 5.08705 3.44518 4.96275C4.22784 4.47168 5.24441 4.47168 7.27836 4.47168H9.15609Z" fill="url(#paint0_linear_448_220)"/>
<path d="M6.01434 7.67597C6.01434 7.51664 5.95104 7.36384 5.83836 7.25117C5.72568 7.13844 5.57287 7.07517 5.41352 7.07517C5.25418 7.07517 5.10136 7.13844 4.98868 7.25117C4.87601 7.36384 4.81271 7.51664 4.81271 7.67597V8.27677H4.2119C4.05255 8.27677 3.89974 8.3401 3.78706 8.45277C3.67438 8.56544 3.61108 8.71824 3.61108 8.87757C3.61108 9.03697 3.67438 9.18977 3.78706 9.30244C3.89974 9.4151 4.05255 9.47844 4.2119 9.47844H4.81271V10.0792C4.81271 10.2386 4.87601 10.3914 4.98868 10.504C5.10136 10.6167 5.25418 10.68 5.41352 10.68C5.57287 10.68 5.72568 10.6167 5.83836 10.504C5.95104 10.3914 6.01434 10.2386 6.01434 10.0792V9.47844H6.61514C6.77451 9.47844 6.92731 9.4151 7.03998 9.30244C7.15264 9.18977 7.21598 9.03697 7.21598 8.87757C7.21598 8.71824 7.15264 8.56544 7.03998 8.45277C6.92731 8.3401 6.77451 8.27677 6.61514 8.27677H6.01434V7.67597ZM10.6206 8.47704C10.833 8.47704 11.0368 8.39264 11.187 8.24244C11.3372 8.09217 11.4216 7.88844 11.4216 7.67597C11.4216 7.4635 11.3372 7.25977 11.187 7.1095C11.0368 6.9593 10.833 6.8749 10.6206 6.8749C10.4081 6.8749 10.2043 6.9593 10.0541 7.1095C9.90384 7.25977 9.81944 7.4635 9.81944 7.67597C9.81944 7.88844 9.90384 8.09217 10.0541 8.24244C10.2043 8.39264 10.4081 8.47704 10.6206 8.47704ZM13.0238 9.6787C13.0238 9.89117 12.9394 10.0949 12.7892 10.2451C12.6389 10.3954 12.4352 10.4798 12.2227 10.4798C12.0102 10.4798 11.8065 10.3954 11.6562 10.2451C11.506 10.0949 11.4216 9.89117 11.4216 9.6787C11.4216 9.46624 11.506 9.26244 11.6562 9.11224C11.8065 8.96197 12.0102 8.87757 12.2227 8.87757C12.4352 8.87757 12.6389 8.96197 12.7892 9.11224C12.9394 9.26244 13.0238 9.46624 13.0238 9.6787ZM11.2214 1.26732C11.2214 1.10797 11.158 0.955151 11.0454 0.842477C10.9327 0.729804 10.7799 0.666504 10.6206 0.666504C10.4612 0.666504 10.3084 0.729804 10.1957 0.842477C10.083 0.955151 10.0198 1.10797 10.0198 1.26732V2.0684C10.0198 2.12151 9.99864 2.17245 9.96111 2.21001C9.92351 2.24757 9.87258 2.26867 9.81944 2.26867H9.01838C8.64658 2.26867 8.29004 2.41637 8.02711 2.67928C7.76418 2.94218 7.61651 3.29876 7.61651 3.67056V4.47164H8.81811V3.67056C8.81811 3.61745 8.83924 3.56651 8.87678 3.52895C8.91431 3.49139 8.96531 3.47029 9.01838 3.47029H9.81944C10.1913 3.47029 10.5478 3.32259 10.8108 3.05969C11.0736 2.79678 11.2214 2.4402 11.2214 2.0684V1.26732Z" fill="url(#paint1_linear_448_220)"/>
</g>
<defs>
<linearGradient id="paint0_linear_448_220" x1="0.448371" y1="4.57856" x2="10.9636" y2="19.6441" gradientUnits="userSpaceOnUse">
<stop stop-color="#F9D423"/>
<stop offset="0.515624" stop-color="#FF4E50"/>
<stop offset="0.991304" stop-color="#8A2387"/>
</linearGradient>
<linearGradient id="paint1_linear_448_220" x1="3.47503" y1="0.765037" x2="13.7976" y2="10.7651" gradientUnits="userSpaceOnUse">
<stop stop-color="#F9D423"/>
<stop offset="0.515624" stop-color="#FF4E50"/>
<stop offset="0.991304" stop-color="#8A2387"/>
</linearGradient>
<clipPath id="clip0_448_220">
<rect width="16" height="16" fill="white"/>
</clipPath>
</defs>
</svg>
