<svg width="16" height="16" viewBox="0 0 16 16" fill="none" xmlns="http://www.w3.org/2000/svg">
<g clip-path="url(#clip0_448_323)">
<path opacity="0.4" d="M11.5818 2.95121H9.42355C8.88589 2.95477 8.37542 2.7156 8.03469 2.3005L7.32395 1.31792C6.98895 0.899174 6.47851 0.658887 5.94164 0.667201H4.41587C1.67729 0.667201 0.666627 2.27447 0.666627 5.00747V7.96173C0.66322 8.28659 15.3301 8.28619 15.331 7.96173V7.10279C15.3441 4.36977 14.3595 2.95121 11.5818 2.95121Z" fill="url(#paint0_linear_448_323)"/>
<path fill-rule="evenodd" clip-rule="evenodd" d="M14.4768 3.99851C14.7115 4.27284 14.8928 4.5884 15.0116 4.92903C15.2452 5.62913 15.3533 6.36485 15.331 7.10243V10.9546C15.3301 11.2792 15.3061 11.6032 15.2593 11.9242C15.1702 12.4909 14.9708 13.0347 14.6725 13.525C14.5354 13.7618 14.3688 13.9804 14.1769 14.1757C13.308 14.9732 12.1543 15.3882 10.9754 15.3275H5.01574C3.83499 15.3878 2.67935 14.9729 1.8077 14.1757C1.61805 13.9801 1.45376 13.7614 1.31867 13.525C1.02211 13.035 0.827 12.4907 0.744873 11.9242C0.692653 11.6037 0.666485 11.2794 0.666627 10.9546V7.10243C0.666499 6.78069 0.683913 6.4592 0.718793 6.13937C0.726127 6.08325 0.737127 6.02805 0.748013 5.97342C0.76616 5.88235 0.783993 5.79287 0.783993 5.70339C0.850187 5.31741 0.970927 4.94277 1.14262 4.59066C1.65121 3.50397 2.69447 2.95086 4.40282 2.95086H11.5753C12.5321 2.87686 13.4818 3.16491 14.2356 3.75775C14.3224 3.83136 14.4031 3.91188 14.4768 3.99851ZM4.31154 10.5968H11.6926H11.7057C11.8676 10.6038 12.0257 10.5458 12.1445 10.4358C12.2634 10.3258 12.3331 10.1728 12.3382 10.0111C12.3474 9.86896 12.3006 9.72889 12.2078 9.62069C12.101 9.47523 11.932 9.38843 11.7514 9.38643H4.31154C3.97664 9.38643 3.70515 9.65736 3.70515 9.99156C3.70515 10.3258 3.97664 10.5968 4.31154 10.5968Z" fill="url(#paint1_linear_448_323)"/>
</g>
<defs>
<linearGradient id="paint0_linear_448_323" x1="15.2878" y1="0.714781" x2="9.17649" y2="12.5047" gradientUnits="userSpaceOnUse">
<stop stop-color="#FE7970"/>
<stop offset="1" stop-color="#DC3282"/>
</linearGradient>
<linearGradient id="paint1_linear_448_323" x1="15.2904" y1="3.01803" x2="3.15003" y2="17.2658" gradientUnits="userSpaceOnUse">
<stop stop-color="#FE7970"/>
<stop offset="1" stop-color="#DC3282"/>
</linearGradient>
<clipPath id="clip0_448_323">
<rect width="16" height="16" fill="white"/>
</clipPath>
</defs>
</svg>
