<svg width="16" height="16" viewBox="0 0 16 16" fill="none" xmlns="http://www.w3.org/2000/svg">
<g clip-path="url(#clip0_448_395)">
<path opacity="0.5" d="M9.15609 4.47168C11.19 4.47168 12.2066 4.47168 12.9885 4.96355C13.1864 5.08771 13.3706 5.23351 13.5364 5.39773C14.1933 6.04661 14.4248 7.03755 14.8878 9.01861L15.7066 12.5217C15.8342 13.0693 15.7558 13.6447 15.4864 14.1382C15.2171 14.6317 14.7756 15.0089 14.246 15.1978C13.7164 15.3867 13.1359 15.3741 12.615 15.1625C12.0941 14.9509 11.6693 14.5549 11.4216 14.0502L11.3254 13.8531C11.1142 13.4219 10.7862 13.0587 10.3788 12.8046C9.97143 12.5505 9.50089 12.4159 9.02069 12.416H7.41536C6.93503 12.4155 6.4642 12.5499 6.05647 12.8039C5.64875 13.0578 5.32048 13.4211 5.10903 13.8523L5.0129 14.0494C4.76567 14.555 4.34087 14.9519 3.81961 15.1641C3.29835 15.3764 2.71717 15.3892 2.18705 15.2001C1.65694 15.0111 1.21503 14.6334 0.945733 14.1392C0.676433 13.645 0.598602 13.0689 0.727107 12.5209L1.54581 9.01701C2.00884 7.03675 2.24035 6.04661 2.89724 5.39693C3.06351 5.23265 3.24725 5.08705 3.44518 4.96275C4.22784 4.47168 5.24441 4.47168 7.27836 4.47168H9.15609Z" fill="url(#paint0_linear_448_395)"/>
<path d="M6.01434 7.67646C6.01434 7.51713 5.95104 7.36433 5.83836 7.25166C5.72568 7.13893 5.57287 7.07566 5.41352 7.07566C5.25418 7.07566 5.10136 7.13893 4.98868 7.25166C4.87601 7.36433 4.81271 7.51713 4.81271 7.67646V8.27726H4.2119C4.05255 8.27726 3.89974 8.34059 3.78706 8.45326C3.67438 8.56593 3.61108 8.71873 3.61108 8.87806C3.61108 9.03746 3.67438 9.19026 3.78706 9.30293C3.89974 9.41559 4.05255 9.47893 4.2119 9.47893H4.81271V10.0797C4.81271 10.2391 4.87601 10.3919 4.98868 10.5045C5.10136 10.6172 5.25418 10.6805 5.41352 10.6805C5.57287 10.6805 5.72568 10.6172 5.83836 10.5045C5.95104 10.3919 6.01434 10.2391 6.01434 10.0797V9.47893H6.61514C6.77451 9.47893 6.92731 9.41559 7.03998 9.30293C7.15264 9.19026 7.21598 9.03746 7.21598 8.87806C7.21598 8.71873 7.15264 8.56593 7.03998 8.45326C6.92731 8.34059 6.77451 8.27726 6.61514 8.27726H6.01434V7.67646ZM10.6206 8.47753C10.833 8.47753 11.0368 8.39313 11.187 8.24293C11.3372 8.09266 11.4216 7.88893 11.4216 7.67646C11.4216 7.46399 11.3372 7.26026 11.187 7.10999C11.0368 6.95979 10.833 6.87539 10.6206 6.87539C10.4081 6.87539 10.2043 6.95979 10.0541 7.10999C9.90384 7.26026 9.81944 7.46399 9.81944 7.67646C9.81944 7.88893 9.90384 8.09266 10.0541 8.24293C10.2043 8.39313 10.4081 8.47753 10.6206 8.47753ZM13.0238 9.67919C13.0238 9.89166 12.9394 10.0954 12.7892 10.2456C12.6389 10.3959 12.4352 10.4803 12.2227 10.4803C12.0102 10.4803 11.8065 10.3959 11.6562 10.2456C11.506 10.0954 11.4216 9.89166 11.4216 9.67919C11.4216 9.46673 11.506 9.26293 11.6562 9.11273C11.8065 8.96246 12.0102 8.87806 12.2227 8.87806C12.4352 8.87806 12.6389 8.96246 12.7892 9.11273C12.9394 9.26293 13.0238 9.46673 13.0238 9.67919ZM11.2214 1.26781C11.2214 1.10846 11.158 0.955639 11.0454 0.842966C10.9327 0.730292 10.7799 0.666992 10.6206 0.666992C10.4612 0.666992 10.3084 0.730292 10.1957 0.842966C10.083 0.955639 10.0198 1.10846 10.0198 1.26781V2.06889C10.0198 2.122 9.99864 2.17294 9.96111 2.2105C9.92351 2.24806 9.87258 2.26916 9.81944 2.26916H9.01838C8.64658 2.26916 8.29004 2.41686 8.02711 2.67977C7.76418 2.94267 7.61651 3.29925 7.61651 3.67105V4.47213H8.81811V3.67105C8.81811 3.61794 8.83924 3.567 8.87678 3.52944C8.91431 3.49188 8.96531 3.47078 9.01838 3.47078H9.81944C10.1913 3.47078 10.5478 3.32308 10.8108 3.06018C11.0736 2.79727 11.2214 2.44069 11.2214 2.06889V1.26781Z" fill="url(#paint1_linear_448_395)"/>
</g>
<defs>
<linearGradient id="paint0_linear_448_395" x1="0.448371" y1="4.57856" x2="10.9636" y2="19.6441" gradientUnits="userSpaceOnUse">
<stop stop-color="#F9D423"/>
<stop offset="0.515624" stop-color="#FF4E50"/>
<stop offset="0.991304" stop-color="#8A2387"/>
</linearGradient>
<linearGradient id="paint1_linear_448_395" x1="3.47503" y1="0.765526" x2="13.7976" y2="10.7656" gradientUnits="userSpaceOnUse">
<stop stop-color="#F9D423"/>
<stop offset="0.515624" stop-color="#FF4E50"/>
<stop offset="0.991304" stop-color="#8A2387"/>
</linearGradient>
<clipPath id="clip0_448_395">
<rect width="16" height="16" fill="white"/>
</clipPath>
</defs>
</svg>
