<svg width="16" height="16" viewBox="0 0 16 16" fill="none" xmlns="http://www.w3.org/2000/svg">
<path d="M7.54843 1.06862C7.57098 1.04575 7.59918 1.02859 7.63301 1.01716C7.66684 1.00571 7.70631 1 7.75142 1C7.79653 1 7.84164 1 7.88674 1C7.93185 1 7.97697 1 8.02208 1C8.06719 1 8.1123 1 8.1574 1C8.20251 1 8.24762 1 8.29267 1C8.33779 1 8.3829 1 8.42802 1C8.47314 1 8.51826 1 8.56329 1C8.6084 1 8.65352 1 8.69864 1C8.74376 1 8.78887 1 8.83399 1C8.87911 1 8.92422 1 8.96934 1C9.01446 1 9.05949 1 9.10461 1C9.14972 1 9.18925 1.00571 9.22303 1.01716C9.25689 1.02859 9.28507 1.04575 9.30759 1.06862C9.33019 1.0915 9.35838 1.10866 9.39224 1.1201C9.42601 1.13153 9.46554 1.13726 9.51066 1.13726C9.55569 1.13726 9.60081 1.13726 9.64593 1.13726C9.69104 1.13726 9.73616 1.13726 9.78128 1.13726C9.82639 1.13726 9.86584 1.14297 9.8997 1.15441C9.93356 1.16585 9.96175 1.18301 9.98426 1.20588C10.0068 1.22876 10.0351 1.24591 10.0688 1.25735C10.1027 1.26879 10.1421 1.27451 10.1872 1.27451C10.2324 1.27451 10.2718 1.28022 10.3057 1.29166C10.3395 1.30311 10.3677 1.32026 10.3902 1.34313C10.4128 1.36601 10.441 1.38316 10.4748 1.39461C10.5087 1.40604 10.5425 1.41748 10.5763 1.42892C10.6101 1.44036 10.6383 1.45751 10.6609 1.48039C10.6834 1.50326 10.7116 1.52042 10.7455 1.53186C10.7794 1.5433 10.8131 1.55474 10.847 1.56617C10.8808 1.57762 10.909 1.59477 10.9315 1.61765C10.9542 1.64052 10.9823 1.65768 11.0161 1.66911C11.05 1.68056 11.0839 1.69199 11.1177 1.70343C11.1515 1.71486 11.1797 1.73202 11.2023 1.7549C11.2249 1.77777 11.253 1.79493 11.2868 1.80637C11.3206 1.81781 11.3545 1.82925 11.3884 1.84068C11.4222 1.85212 11.4504 1.86928 11.4729 1.89216C11.4954 1.91503 11.518 1.93791 11.5405 1.96078C11.5631 1.98366 11.5856 2.00653 11.6082 2.02941C11.6307 2.05228 11.659 2.06944 11.6929 2.08088C11.7267 2.09231 11.7604 2.10376 11.7943 2.11519C11.8281 2.12663 11.8563 2.14379 11.8788 2.16667C11.9014 2.18954 11.924 2.21242 11.9465 2.23529C11.9691 2.25816 11.9916 2.28104 12.0142 2.30392C12.0367 2.3268 12.0593 2.34967 12.0818 2.37255C12.1044 2.39542 12.1269 2.4183 12.1495 2.44117C12.1721 2.46405 12.1946 2.48692 12.2172 2.5098C12.2397 2.53267 12.2623 2.55555 12.2848 2.57843C12.3074 2.60131 12.3299 2.62418 12.3525 2.64706C12.375 2.66993 12.3977 2.69281 12.4202 2.71568C12.4428 2.73856 12.4653 2.76143 12.4878 2.78431C12.5104 2.80719 12.533 2.83007 12.5556 2.85294C12.5781 2.87582 12.6006 2.89869 12.6231 2.92157C12.6457 2.94444 12.6626 2.97303 12.6739 3.00735C12.6852 3.04167 12.6964 3.07597 12.7077 3.11029C12.719 3.14461 12.7359 3.1732 12.7585 3.19607C12.781 3.21895 12.8036 3.24182 12.8261 3.2647C12.8487 3.28758 12.8712 3.31046 12.8938 3.33333C12.9164 3.35621 12.9333 3.3848 12.9445 3.41912C12.9558 3.45343 12.9671 3.48774 12.9784 3.52206C12.9897 3.55637 13.0067 3.58497 13.0292 3.60784C13.0518 3.63072 13.0742 3.65359 13.0968 3.67647C13.1193 3.69934 13.142 3.72222 13.1645 3.74509C13.1871 3.76797 13.2039 3.79657 13.2152 3.83088C13.2265 3.86519 13.2378 3.89951 13.249 3.93382C13.2603 3.96813 13.2773 3.99673 13.2999 4.01961C13.3224 4.04248 13.3393 4.07108 13.3506 4.10539C13.3619 4.1397 13.3674 4.17973 13.3674 4.22548C13.3674 4.27124 13.3731 4.31127 13.3844 4.34558C13.3956 4.3799 13.4126 4.40849 13.4351 4.43137C13.4577 4.45424 13.4746 4.48284 13.486 4.51715C13.4972 4.55147 13.5028 4.5915 13.5028 4.63725C13.5028 4.683 13.5084 4.72303 13.5197 4.75735C13.531 4.79167 13.5479 4.82026 13.5704 4.84313C13.593 4.86601 13.6099 4.8946 13.6212 4.92892C13.6325 4.96324 13.6381 5.00327 13.6381 5.04902C13.6381 5.09477 13.6381 5.14052 13.6381 5.18627C13.6381 5.23203 13.6438 5.27206 13.6551 5.30637C13.6664 5.34069 13.6832 5.36928 13.7058 5.39215C13.7283 5.41503 13.7452 5.44363 13.7565 5.47793C13.7678 5.51225 13.7735 5.55229 13.7735 5.59804C13.7735 5.64379 13.7735 5.68954 13.7735 5.73529C13.7735 5.78104 13.7735 5.82679 13.7735 5.87254C13.7735 5.91829 13.7735 5.96405 13.7735 6.0098C13.7735 6.05555 13.7735 6.1013 13.7735 6.14705C13.7735 6.19281 13.7735 6.23856 13.7735 6.28431C13.7735 6.33006 13.7735 6.37581 13.7735 6.42157C13.7735 6.46732 13.7735 6.51307 13.7735 6.55882C13.7735 6.60457 13.7735 6.65032 13.7735 6.69608C13.7735 6.74183 13.7735 6.78758 13.7735 6.83333C13.7735 6.87908 13.7735 6.92484 13.7735 6.97059C13.7735 7.01634 13.7678 7.05637 13.7565 7.09069C13.7452 7.12499 13.7283 7.1536 13.7058 7.17647C13.6832 7.19935 13.6664 7.22794 13.6551 7.26226C13.6438 7.29656 13.6381 7.3366 13.6381 7.38235C13.6381 7.4281 13.6381 7.47385 13.6381 7.5196C13.6381 7.56535 13.6325 7.60539 13.6212 7.6397C13.6099 7.67402 13.593 7.70261 13.5704 7.72549C13.5479 7.74836 13.531 7.77696 13.5197 7.81127C13.5084 7.84559 13.5028 7.88562 13.5028 7.93137C13.5028 7.97712 13.4972 8.01711 13.486 8.05147C13.4746 8.08576 13.4577 8.11437 13.4351 8.13722C13.4126 8.16016 13.3956 8.18869 13.3844 8.22305C13.3731 8.25734 13.3619 8.29162 13.3506 8.32598C13.3393 8.36027 13.3224 8.38888 13.2999 8.41173C13.2773 8.43459 13.2603 8.4632 13.249 8.49757C13.2378 8.53185 13.2265 8.56613 13.2152 8.6005C13.2039 8.63478 13.1871 8.66339 13.1645 8.68624C13.142 8.7091 13.1193 8.73204 13.0968 8.75489C13.0742 8.77775 13.0518 8.8006 13.0292 8.82354C13.0067 8.8464 12.9897 8.87501 12.9784 8.90929C12.9671 8.94366 12.9558 8.97794 12.9445 9.01222C12.9333 9.04659 12.9164 9.07511 12.8938 9.09805C12.8712 9.12091 12.8487 9.14376 12.8261 9.16662C12.8036 9.18956 12.781 9.21241 12.7585 9.23527C12.7359 9.25812 12.7134 9.28106 12.6908 9.30392C12.6683 9.32677 12.6457 9.34962 12.6231 9.37256C12.6006 9.39542 12.5781 9.41827 12.5556 9.44113C12.533 9.46407 12.5104 9.48692 12.4878 9.50978C12.4653 9.53263 12.4428 9.55557 12.4202 9.57843C12.3977 9.60128 12.375 9.62414 12.3525 9.64708C12.3299 9.66993 12.3074 9.69279 12.2848 9.71564C12.2623 9.73858 12.2397 9.76143 12.2172 9.78429C12.1946 9.80714 12.1721 9.83008 12.1495 9.85294C12.1269 9.87579 12.1044 9.89865 12.0818 9.92159C12.0593 9.94444 12.0367 9.9673 12.0142 9.99015C11.9916 10.0131 11.9634 10.0302 11.9296 10.0416C11.8958 10.0531 11.862 10.0646 11.8282 10.076C11.7944 10.0874 11.7662 10.1046 11.7436 10.1274C11.7211 10.1503 11.6928 10.1675 11.6589 10.1789C11.6251 10.1903 11.5914 10.2018 11.5575 10.2132C11.5237 10.2246 11.4954 10.2418 11.4729 10.2647C11.4504 10.2876 11.4222 10.3047 11.3884 10.3161C11.3545 10.3276 11.3206 10.3391 11.2868 10.3505C11.253 10.3619 11.2249 10.3791 11.2023 10.402C11.1797 10.4248 11.1515 10.442 11.1177 10.4534C11.0839 10.4649 11.0444 10.4706 10.9993 10.4706C10.9542 10.4706 10.9146 10.4763 10.8808 10.4877C10.847 10.4991 10.8188 10.5163 10.7962 10.5392C10.7737 10.5621 10.7455 10.5792 10.7116 10.5906C10.6778 10.6022 10.6383 10.6078 10.5932 10.6078C10.5481 10.6078 10.5087 10.6136 10.4748 10.625C10.441 10.6364 10.4128 10.6536 10.3902 10.6765C10.3677 10.6993 10.3395 10.7165 10.3057 10.7279C10.2718 10.7394 10.2324 10.7451 10.1872 10.7451C10.1421 10.7451 10.097 10.7451 10.0519 10.7451C10.0068 10.7451 9.96175 10.7451 9.91663 10.7451C9.87151 10.7451 9.82639 10.7451 9.78128 10.7451C9.73616 10.7451 9.69104 10.7451 9.64593 10.7451C9.60081 10.7451 9.55569 10.7451 9.51066 10.7451C9.46554 10.7451 9.42043 10.7451 9.37531 10.7451C9.33019 10.7451 9.28508 10.7451 9.23996 10.7451C9.19484 10.7451 9.14972 10.7451 9.10461 10.7451C9.05949 10.7451 9.01446 10.7451 8.96934 10.7451C8.92422 10.7451 8.88469 10.7394 8.85092 10.7279C8.81706 10.7165 8.78887 10.6993 8.76636 10.6765C8.74376 10.6536 8.71557 10.6364 8.68171 10.625C8.64794 10.6136 8.6084 10.6078 8.56329 10.6078C8.51826 10.6078 8.47314 10.6078 8.42802 10.6078C8.3829 10.6078 8.34346 10.6022 8.3096 10.5906C8.27582 10.5792 8.24762 10.5621 8.22507 10.5392C8.20251 10.5163 8.17432 10.4991 8.14048 10.4877C8.10666 10.4763 8.07282 10.4649 8.03899 10.4534C8.00516 10.442 7.97697 10.4248 7.95441 10.402C7.93186 10.3791 7.90367 10.3619 7.86983 10.3505C7.836 10.3391 7.80216 10.3276 7.76834 10.3161C7.73451 10.3047 7.70631 10.2876 7.68376 10.2647C7.6612 10.2418 7.63301 10.2246 7.59918 10.2132C7.56535 10.2018 7.53151 10.1903 7.49768 10.1789C7.46385 10.1675 7.43566 10.1503 7.4131 10.1274C7.39055 10.1046 7.36799 10.0817 7.34544 10.0588C7.32288 10.0359 7.30033 10.0131 7.27777 9.99015C7.25522 9.9673 7.23267 9.94444 7.21011 9.92159C7.18756 9.89865 7.165 9.87579 7.14245 9.85294C7.11989 9.83008 7.09734 9.80714 7.07478 9.78429C7.05223 9.76143 7.02967 9.73858 7.00712 9.71564C6.98457 9.69279 6.96201 9.66993 6.93946 9.64708C6.9169 9.62414 6.89435 9.60128 6.87179 9.57843C6.84924 9.55557 6.82668 9.53263 6.80413 9.50978C6.78157 9.48692 6.75902 9.46407 6.73646 9.44113C6.71391 9.41827 6.69136 9.39542 6.6688 9.37256C6.64625 9.34962 6.62369 9.32677 6.60114 9.30392C6.57858 9.28106 6.55603 9.25812 6.53347 9.23527C6.51092 9.21241 6.494 9.1838 6.48272 9.14952C6.47145 9.11515 6.46018 9.08087 6.44889 9.04659C6.43762 9.01222 6.4207 8.98361 6.39815 8.96076C6.3756 8.9379 6.35304 8.91505 6.33048 8.89211C6.30793 8.86925 6.28537 8.8464 6.26282 8.82354C6.24026 8.8006 6.22335 8.77208 6.21207 8.73771C6.20079 8.70343 6.19515 8.66339 6.19515 8.6176C6.19515 8.57189 6.18952 8.53185 6.17824 8.49757C6.16697 8.4632 6.15004 8.43459 6.12749 8.41173C6.10494 8.38888 6.08802 8.36027 6.07674 8.32598C6.06547 8.29162 6.05983 8.25158 6.05983 8.20587C6.05983 8.16008 6.05419 8.12012 6.04292 8.08576C6.03163 8.05147 6.01472 8.02286 5.99216 8C5.96961 7.97712 5.95269 7.94853 5.94141 7.91421C5.93014 7.8799 5.9245 7.83986 5.9245 7.79411C5.9245 7.74836 5.9245 7.70261 5.9245 7.65686C5.9245 7.61111 5.9245 7.56535 5.9245 7.5196C5.9245 7.47385 5.9245 7.4281 5.9245 7.38235C5.9245 7.3366 5.9245 7.29085 5.9245 7.2451C5.9245 7.19935 5.9245 7.1536 5.9245 7.10784C5.9245 7.06209 5.9245 7.01634 5.9245 6.97059C5.9245 6.92484 5.9245 6.87908 5.9245 6.83333C5.9245 6.78758 5.9245 6.74183 5.9245 6.69608C5.9245 6.65032 5.9245 6.60457 5.9245 6.55882C5.9245 6.51307 5.93014 6.47304 5.94141 6.43872C5.95269 6.40441 5.96961 6.37581 5.99216 6.35294C6.01472 6.33006 6.03163 6.30147 6.04292 6.26715C6.05419 6.23284 6.05983 6.19281 6.05983 6.14705C6.05983 6.1013 6.06547 6.06127 6.07674 6.02696C6.08802 5.99264 6.10494 5.96405 6.12749 5.94118C6.15004 5.91829 6.16697 5.8897 6.17824 5.85539C6.18952 5.82108 6.20079 5.78676 6.21207 5.75245C6.22335 5.71814 6.24026 5.68954 6.26282 5.66666C6.28537 5.64378 6.30793 5.62091 6.33048 5.59804C6.35304 5.57516 6.3756 5.55229 6.39815 5.52941C6.4207 5.50654 6.43762 5.47794 6.44889 5.44363C6.46018 5.40931 6.47145 5.37499 6.48272 5.34069C6.494 5.30637 6.51092 5.27778 6.53347 5.2549C6.55603 5.23203 6.57858 5.20915 6.60114 5.18627C6.62369 5.16339 6.64625 5.14052 6.6688 5.11764C6.69136 5.09477 6.71391 5.07189 6.73646 5.04902C6.75902 5.02614 6.78157 5.00327 6.80413 4.98039C6.82668 4.95751 6.84924 4.93463 6.87179 4.91176C6.89435 4.88889 6.9169 4.86601 6.93946 4.84313C6.96201 4.82026 6.98457 4.79739 7.00712 4.77451C7.02967 4.75164 7.05787 4.73448 7.0917 4.72303C7.12553 4.7116 7.15936 4.70016 7.1932 4.68873C7.22703 4.67728 7.25522 4.66013 7.27777 4.63725C7.30033 4.61438 7.32288 4.5915 7.34544 4.56863C7.36799 4.54575 7.39055 4.52288 7.4131 4.5C7.43566 4.47712 7.46385 4.45997 7.49768 4.44853C7.53151 4.43709 7.57098 4.43137 7.61609 4.43137C7.6612 4.43137 7.70067 4.42565 7.73451 4.41421C7.76834 4.40278 7.79653 4.38562 7.81909 4.36274C7.84164 4.33987 7.86983 4.32271 7.90367 4.31127C7.9375 4.29983 7.97697 4.29412 8.02208 4.29412C8.06719 4.29412 8.10666 4.28839 8.14048 4.27696C8.17432 4.26552 8.20251 4.24836 8.22507 4.22548C8.24762 4.20261 8.27582 4.18546 8.3096 4.17402C8.34346 4.16258 8.3829 4.15686 8.42802 4.15686C8.47314 4.15686 8.51826 4.15686 8.56329 4.15686C8.6084 4.15686 8.65352 4.15686 8.69864 4.15686C8.74376 4.15686 8.78887 4.15686 8.83399 4.15686C8.87911 4.15686 8.92422 4.15686 8.96934 4.15686C9.01446 4.15686 9.05949 4.15686 9.10461 4.15686C9.14972 4.15686 9.18925 4.16258 9.22303 4.17402C9.25689 4.18546 9.28507 4.20261 9.30759 4.22548C9.33019 4.24836 9.35838 4.26552 9.39224 4.27696C9.42601 4.28839 9.46554 4.29412 9.51066 4.29412C9.55569 4.29412 9.59522 4.29983 9.629 4.31127C9.66286 4.32271 9.69104 4.33987 9.71364 4.36274C9.73616 4.38562 9.76435 4.40278 9.79821 4.41421C9.83198 4.42565 9.86584 4.43709 9.8997 4.44853C9.93356 4.45997 9.96175 4.47712 9.98426 4.5C10.0068 4.52288 10.0351 4.54003 10.0688 4.55147C10.1027 4.56291 10.1365 4.57434 10.1703 4.58578C10.2042 4.59722 10.2324 4.61438 10.2549 4.63725C10.2775 4.66013 10.3 4.683 10.3226 4.70588C10.3451 4.72876 10.3677 4.75164 10.3902 4.77451C10.4128 4.79739 10.4353 4.82026 10.4579 4.84313C10.4805 4.86601 10.503 4.88889 10.5256 4.91176C10.5481 4.93463 10.5707 4.95751 10.5932 4.98039C10.6158 5.00327 10.6383 5.02614 10.6609 5.04902C10.6834 5.07189 10.706 5.09477 10.7286 5.11764C10.7511 5.14052 10.7681 5.16912 10.7794 5.20343C10.7907 5.23774 10.802 5.27206 10.8132 5.30637C10.8245 5.34069 10.8413 5.36928 10.8639 5.39215C10.8864 5.41503 10.9034 5.44363 10.9146 5.47793C10.9259 5.51225 10.9373 5.54657 10.9486 5.58088C10.9598 5.61519 10.9768 5.64378 10.9993 5.66666C11.0219 5.68954 11.0387 5.71814 11.05 5.75245C11.0612 5.78676 11.0669 5.82679 11.0669 5.87254C11.0669 5.91829 11.0669 5.96405 11.0669 6.0098C11.0669 6.05555 11.0726 6.09559 11.0839 6.1299C11.0952 6.16421 11.1121 6.19281 11.1346 6.21569C11.1572 6.23856 11.174 6.26715 11.1853 6.30147C11.1966 6.33578 11.2023 6.37581 11.2023 6.42157C11.2023 6.46732 11.2023 6.51307 11.2023 6.55882C11.2023 6.60457 11.1966 6.6446 11.1853 6.67892C11.174 6.71323 11.1572 6.74183 11.1346 6.7647C11.1121 6.78758 11.0952 6.81617 11.0839 6.85049C11.0726 6.8848 11.0669 6.92484 11.0669 6.97059C11.0669 7.01634 11.0612 7.05637 11.05 7.09069C11.0387 7.12499 11.0219 7.1536 10.9993 7.17647C10.9768 7.19935 10.9598 7.22794 10.9486 7.26226C10.9373 7.29656 10.9259 7.33088 10.9146 7.3652C10.9034 7.3995 10.8864 7.4281 10.8639 7.45098C10.8413 7.47386 10.8245 7.50245 10.8132 7.53676C10.802 7.57108 10.7907 7.60539 10.7794 7.6397C10.7681 7.67402 10.7511 7.70261 10.7286 7.72549C10.706 7.74836 10.6834 7.77124 10.6609 7.79411C10.6383 7.81699 10.6158 7.83986 10.5932 7.86274C10.5707 7.88562 10.5481 7.9085 10.5256 7.93137C10.503 7.95425 10.4748 7.97141 10.441 7.98284C10.4072 7.99428 10.3733 8.00568 10.3395 8.01711C10.3057 8.02862 10.2775 8.04572 10.2549 8.06866C10.2324 8.09151 10.2042 8.10861 10.1703 8.12012C10.1365 8.13155 10.1027 8.14298 10.0688 8.15441C10.0351 8.16583 10.0068 8.18302 9.98426 8.20587C9.96175 8.22873 9.93356 8.24591 9.8997 8.25734C9.86584 8.26876 9.82639 8.27452 9.78128 8.27452C9.73616 8.27452 9.69104 8.27452 9.64593 8.27452C9.60081 8.27452 9.56136 8.26876 9.52751 8.25734C9.49373 8.24591 9.4768 8.22873 9.4768 8.20587C9.4768 8.18302 9.49373 8.16583 9.52751 8.15441C9.56136 8.14298 9.59522 8.13155 9.629 8.12012C9.66286 8.10861 9.69104 8.09151 9.71364 8.06866C9.73616 8.04572 9.76435 8.02862 9.79821 8.01711C9.83198 8.00568 9.86584 7.99428 9.8997 7.98284C9.93356 7.97141 9.96175 7.95425 9.98426 7.93137C10.0068 7.9085 10.0294 7.88562 10.0519 7.86274C10.0745 7.83986 10.097 7.81699 10.1196 7.79411C10.1421 7.77124 10.1647 7.74836 10.1872 7.72549C10.2098 7.70261 10.2267 7.67402 10.238 7.6397C10.2493 7.60539 10.2606 7.57108 10.2718 7.53676C10.2832 7.50245 10.3 7.47386 10.3226 7.45098C10.3451 7.4281 10.362 7.3995 10.3733 7.3652C10.3846 7.33088 10.3959 7.29656 10.4072 7.26226C10.4184 7.22794 10.4353 7.19935 10.4579 7.17647C10.4805 7.1536 10.4974 7.12499 10.5087 7.09069C10.5199 7.05637 10.5256 7.01634 10.5256 6.97059C10.5256 6.92484 10.5256 6.87908 10.5256 6.83333C10.5256 6.78758 10.5256 6.74183 10.5256 6.69608C10.5256 6.65032 10.5199 6.61029 10.5087 6.57598C10.4974 6.54166 10.4805 6.51307 10.4579 6.49019C10.4353 6.46732 10.4184 6.43872 10.4072 6.40441C10.3959 6.37009 10.3902 6.33006 10.3902 6.28431C10.3902 6.23856 10.3846 6.19853 10.3733 6.16421C10.362 6.1299 10.3451 6.1013 10.3226 6.07843C10.3 6.05555 10.2832 6.02696 10.2718 5.99264C10.2606 5.95833 10.2493 5.92402 10.238 5.8897C10.2267 5.85539 10.2098 5.82679 10.1872 5.80392C10.1647 5.78104 10.1421 5.75817 10.1196 5.73529C10.097 5.71242 10.0745 5.68954 10.0519 5.66666C10.0294 5.64378 10.0068 5.62091 9.98426 5.59804C9.96175 5.57516 9.93915 5.55229 9.91663 5.52941C9.89403 5.50654 9.87151 5.48366 9.84891 5.46078C9.82639 5.4379 9.79821 5.42075 9.76435 5.40931C9.73049 5.39787 9.69672 5.38644 9.66286 5.37499C9.629 5.36356 9.60081 5.3464 9.57829 5.32353C9.55569 5.30065 9.52751 5.28349 9.49373 5.27206C9.45987 5.26062 9.42601 5.24918 9.39224 5.23774C9.35838 5.2263 9.33019 5.20915 9.30759 5.18627C9.28507 5.16339 9.25689 5.14624 9.22303 5.1348C9.18925 5.12336 9.14972 5.11764 9.10461 5.11764C9.05949 5.11764 9.01446 5.11764 8.96934 5.11764C8.92422 5.11764 8.87911 5.11764 8.83399 5.11764C8.78887 5.11764 8.74376 5.11764 8.69864 5.11764C8.65352 5.11764 8.61408 5.12336 8.58022 5.1348C8.54644 5.14624 8.51826 5.16339 8.49565 5.18627C8.47314 5.20915 8.44495 5.2263 8.41109 5.23774C8.37723 5.24918 8.33779 5.2549 8.29267 5.2549C8.24762 5.2549 8.20815 5.26062 8.17432 5.27206C8.14049 5.28349 8.1123 5.30065 8.08974 5.32353C8.06719 5.3464 8.03899 5.36356 8.00516 5.37499C7.97133 5.38644 7.9375 5.39787 7.90367 5.40931C7.86983 5.42075 7.84164 5.4379 7.81909 5.46078C7.79653 5.48366 7.77398 5.50654 7.75142 5.52941C7.72887 5.55229 7.70631 5.57516 7.68376 5.59804C7.6612 5.62091 7.63301 5.63807 7.59918 5.64951C7.56535 5.66094 7.53151 5.67239 7.49768 5.68382C7.46385 5.69526 7.4413 5.71814 7.43002 5.75245C7.41874 5.78676 7.40746 5.82108 7.39619 5.85539C7.3849 5.8897 7.36799 5.91829 7.34544 5.94118C7.32288 5.96405 7.30033 5.98693 7.27777 6.0098C7.25522 6.03268 7.23267 6.05555 7.21011 6.07843C7.18756 6.1013 7.17064 6.1299 7.15936 6.16421C7.14809 6.19853 7.13681 6.23284 7.12553 6.26715C7.11425 6.30147 7.09734 6.33006 7.07478 6.35294C7.05223 6.37581 7.03531 6.40441 7.02404 6.43872C7.01276 6.47304 7.00712 6.51307 7.00712 6.55882C7.00712 6.60457 7.00148 6.6446 6.9902 6.67892C6.97893 6.71323 6.96201 6.74183 6.93946 6.7647C6.9169 6.78758 6.89999 6.81617 6.88871 6.85049C6.87743 6.8848 6.87179 6.92484 6.87179 6.97059C6.87179 7.01634 6.87179 7.06209 6.87179 7.10784C6.87179 7.1536 6.87179 7.19935 6.87179 7.2451C6.87179 7.29085 6.87179 7.3366 6.87179 7.38235C6.87179 7.4281 6.87179 7.47385 6.87179 7.5196C6.87179 7.56535 6.87743 7.60539 6.88871 7.6397C6.89999 7.67402 6.9169 7.70261 6.93946 7.72549C6.96201 7.74836 6.97893 7.77696 6.9902 7.81127C7.00148 7.84559 7.00712 7.88562 7.00712 7.93137C7.00712 7.97712 7.01276 8.01711 7.02404 8.05147C7.03531 8.08576 7.05223 8.11437 7.07478 8.13722C7.09734 8.16016 7.11425 8.18869 7.12553 8.22305C7.13681 8.25734 7.14809 8.29162 7.15936 8.32598C7.17064 8.36027 7.18756 8.38888 7.21011 8.41173C7.23267 8.43459 7.24958 8.4632 7.26086 8.49757C7.27214 8.53185 7.28341 8.56613 7.29469 8.6005C7.30597 8.63478 7.32288 8.66339 7.34544 8.68624C7.36799 8.7091 7.39055 8.73204 7.4131 8.75489C7.43566 8.77775 7.45821 8.8006 7.48077 8.82354C7.50332 8.8464 7.52588 8.86925 7.54843 8.89211C7.57098 8.91505 7.59353 8.9379 7.61609 8.96076C7.63865 8.98361 7.6612 9.00655 7.68376 9.0294C7.70631 9.05226 7.72887 9.07511 7.75142 9.09805C7.77398 9.12091 7.79653 9.14376 7.81909 9.16662C7.84164 9.18956 7.86419 9.21241 7.88674 9.23527C7.9093 9.25812 7.93186 9.28106 7.95441 9.30392C7.97697 9.32677 8.00516 9.34395 8.03899 9.35538C8.07282 9.36681 8.10666 9.37824 8.14048 9.38966C8.17432 9.40109 8.20251 9.41827 8.22507 9.44113C8.24762 9.46407 8.27582 9.48117 8.3096 9.49259C8.34346 9.50411 8.37723 9.51553 8.41109 9.52696C8.44495 9.53839 8.47314 9.55557 8.49565 9.57843C8.51826 9.60128 8.54644 9.61846 8.58022 9.62989C8.61408 9.64132 8.65352 9.64708 8.69864 9.64708C8.74376 9.64708 8.78887 9.64708 8.83399 9.64708C8.87911 9.64708 8.91855 9.65275 8.95241 9.66417C8.98619 9.6756 9.01446 9.69279 9.03697 9.71564C9.05949 9.73858 9.08768 9.75568 9.12154 9.76711C9.1554 9.77862 9.19484 9.78429 9.23996 9.78429C9.28508 9.78429 9.33019 9.78429 9.37531 9.78429C9.42043 9.78429 9.46554 9.78429 9.51066 9.78429C9.55569 9.78429 9.60081 9.78429 9.64593 9.78429C9.69104 9.78429 9.73616 9.78429 9.78128 9.78429C9.82639 9.78429 9.87151 9.78429 9.91663 9.78429C9.96175 9.78429 10.0012 9.77862 10.035 9.76711C10.0688 9.75568 10.097 9.73858 10.1196 9.71564C10.1421 9.69279 10.1703 9.6756 10.2042 9.66417C10.238 9.65275 10.2775 9.64708 10.3226 9.64708C10.3677 9.64708 10.4128 9.64708 10.4579 9.64708C10.503 9.64708 10.5425 9.64132 10.5763 9.62989C10.6101 9.61846 10.6383 9.60128 10.6609 9.57843C10.6834 9.55557 10.7116 9.53839 10.7455 9.52696C10.7794 9.51553 10.8131 9.50411 10.847 9.49259C10.8808 9.48117 10.909 9.46407 10.9315 9.44113C10.9542 9.41827 10.9823 9.40109 11.0161 9.38966C11.05 9.37824 11.0839 9.36681 11.1177 9.35538C11.1515 9.34395 11.1797 9.32677 11.2023 9.30392C11.2249 9.28106 11.253 9.26388 11.2868 9.25245C11.3206 9.24102 11.3545 9.22959 11.3884 9.21808C11.4222 9.20666 11.4504 9.18956 11.4729 9.16662C11.4954 9.14376 11.518 9.12091 11.5405 9.09805C11.5631 9.07511 11.5856 9.05226 11.6082 9.0294C11.6307 9.00655 11.6533 8.98361 11.6759 8.96076C11.6985 8.9379 11.7211 8.91505 11.7436 8.89211C11.7662 8.86925 11.7887 8.8464 11.8113 8.82354C11.8338 8.8006 11.8563 8.77775 11.8788 8.75489C11.9014 8.73204 11.924 8.7091 11.9465 8.68624C11.9691 8.66339 11.9916 8.64053 12.0142 8.6176C12.0367 8.59474 12.0593 8.57189 12.0818 8.54903C12.1044 8.52609 12.1214 8.49757 12.1327 8.4632C12.144 8.42892 12.1552 8.39463 12.1665 8.36027C12.1778 8.32598 12.1946 8.29737 12.2172 8.27452C12.2397 8.25158 12.2623 8.22873 12.2848 8.20587C12.3074 8.18302 12.3299 8.16016 12.3525 8.13722C12.375 8.11437 12.392 8.08576 12.4032 8.05147C12.4145 8.01711 12.4259 7.98284 12.4372 7.94853C12.4484 7.91421 12.4653 7.88562 12.4878 7.86274C12.5104 7.83986 12.5273 7.81127 12.5386 7.77695C12.5498 7.74265 12.5556 7.70261 12.5556 7.65686C12.5556 7.61111 12.5611 7.57108 12.5724 7.53676C12.5837 7.50245 12.6006 7.47386 12.6231 7.45098C12.6457 7.4281 12.6626 7.3995 12.6739 7.3652C12.6852 7.33088 12.6908 7.29085 12.6908 7.2451C12.6908 7.19935 12.6908 7.1536 12.6908 7.10784C12.6908 7.06209 12.6964 7.02205 12.7077 6.98775C12.719 6.95343 12.7359 6.92484 12.7585 6.90196C12.781 6.87908 12.7979 6.85049 12.8092 6.81617C12.8205 6.78186 12.8261 6.74183 12.8261 6.69608C12.8261 6.65032 12.8261 6.60457 12.8261 6.55882C12.8261 6.51307 12.8261 6.46732 12.8261 6.42157C12.8261 6.37581 12.8261 6.33006 12.8261 6.28431C12.8261 6.23856 12.8261 6.19281 12.8261 6.14705C12.8261 6.1013 12.8261 6.05555 12.8261 6.0098C12.8261 5.96405 12.8261 5.91829 12.8261 5.87254C12.8261 5.82679 12.8205 5.78676 12.8092 5.75245C12.7979 5.71814 12.781 5.68954 12.7585 5.66666C12.7359 5.64378 12.719 5.61519 12.7077 5.58088C12.6964 5.54657 12.6908 5.50654 12.6908 5.46078C12.6908 5.41503 12.6908 5.36928 12.6908 5.32353C12.6908 5.27778 12.6852 5.23774 12.6739 5.20343C12.6626 5.16912 12.6457 5.14052 12.6231 5.11764C12.6006 5.09477 12.5837 5.06618 12.5724 5.03186C12.5611 4.99754 12.5556 4.95751 12.5556 4.91176C12.5556 4.86601 12.5498 4.82598 12.5386 4.79167C12.5273 4.75735 12.5104 4.72876 12.4878 4.70588C12.4653 4.683 12.4484 4.65441 12.4372 4.62009C12.4259 4.58579 12.4145 4.55147 12.4032 4.51715C12.392 4.48284 12.375 4.45424 12.3525 4.43137C12.3299 4.40849 12.3131 4.3799 12.3018 4.34558C12.2906 4.31127 12.2792 4.27696 12.2679 4.24264C12.2566 4.20834 12.2397 4.17973 12.2172 4.15686C12.1946 4.13398 12.1778 4.10539 12.1665 4.07108C12.1552 4.03676 12.144 4.00245 12.1327 3.96813C12.1214 3.93382 12.1044 3.90522 12.0818 3.88235C12.0593 3.85948 12.0367 3.8366 12.0142 3.81373C11.9916 3.79085 11.9691 3.76797 11.9465 3.74509C11.924 3.72222 11.907 3.69363 11.8958 3.65931C11.8845 3.625 11.8733 3.59068 11.862 3.55637C11.8507 3.52206 11.8338 3.49346 11.8113 3.47058C11.7887 3.44771 11.7662 3.42483 11.7436 3.40196C11.7211 3.37908 11.6985 3.35621 11.6759 3.33333C11.6533 3.31046 11.6307 3.28758 11.6082 3.2647C11.5856 3.24182 11.5631 3.21895 11.5405 3.19607C11.518 3.1732 11.4954 3.15033 11.4729 3.12745C11.4504 3.10458 11.4278 3.0817 11.4052 3.05883C11.3826 3.03594 11.3601 3.01307 11.3375 2.99019C11.315 2.96732 11.2869 2.95016 11.253 2.93872C11.2192 2.92728 11.1853 2.91585 11.1515 2.90441C11.1176 2.89297 11.0894 2.87582 11.0669 2.85294C11.0443 2.83007 11.0219 2.80719 10.9993 2.78431C10.9768 2.76143 10.9542 2.73856 10.9315 2.71568C10.909 2.69281 10.8808 2.67565 10.847 2.66422C10.8131 2.65277 10.7794 2.64134 10.7455 2.6299C10.7116 2.61846 10.6834 2.60131 10.6609 2.57843C10.6383 2.55555 10.6101 2.5384 10.5763 2.52696C10.5425 2.51552 10.5087 2.50408 10.4748 2.49264C10.441 2.48121 10.4128 2.46405 10.3902 2.44117C10.3677 2.4183 10.3395 2.40114 10.3057 2.38971C10.2718 2.37827 10.238 2.36683 10.2042 2.35539C10.1703 2.34395 10.1421 2.3268 10.1196 2.30392C10.097 2.28104 10.0688 2.26389 10.035 2.25245C10.0012 2.24101 9.96175 2.23529 9.91663 2.23529C9.87151 2.23529 9.83198 2.22957 9.79821 2.21813C9.76435 2.2067 9.73616 2.18954 9.71364 2.16667C9.69104 2.14379 9.66286 2.12663 9.629 2.11519C9.59522 2.10376 9.55569 2.09804 9.51066 2.09804C9.46554 2.09804 9.42043 2.09804 9.37531 2.09804C9.33019 2.09804 9.28508 2.09804 9.23996 2.09804C9.19484 2.09804 9.14972 2.09804 9.10461 2.09804C9.05949 2.09804 9.02004 2.09231 8.98619 2.08088C8.95241 2.06944 8.92422 2.05228 8.90162 2.02941C8.87911 2.00653 8.85092 1.98937 8.81706 1.97794C8.7832 1.9665 8.74376 1.96078 8.69864 1.96078C8.65352 1.96078 8.6084 1.96078 8.56329 1.96078C8.51826 1.96078 8.47314 1.96078 8.42802 1.96078C8.3829 1.96078 8.33779 1.96078 8.29267 1.96078C8.24762 1.96078 8.20251 1.96078 8.1574 1.96078C8.1123 1.96078 8.07282 1.9665 8.03899 1.97794C8.00516 1.98937 7.97697 2.00653 7.95441 2.02941C7.93186 2.05228 7.90367 2.06944 7.86983 2.08088C7.836 2.09231 7.79653 2.09804 7.75142 2.09804C7.70631 2.09804 7.6612 2.09804 7.61609 2.09804C7.57098 2.09804 7.52588 2.09804 7.48077 2.09804C7.43566 2.09804 7.39055 2.09804 7.34544 2.09804C7.30032 2.09804 7.26086 2.10376 7.22703 2.11519C7.1932 2.12663 7.165 2.14379 7.14245 2.16667C7.11989 2.18954 7.0917 2.2067 7.05787 2.21813C7.02404 2.22957 6.98457 2.23529 6.93946 2.23529C6.89435 2.23529 6.84924 2.23529 6.80413 2.23529C6.75902 2.23529 6.71955 2.24101 6.68572 2.25245C6.65188 2.26389 6.62369 2.28104 6.60114 2.30392C6.57858 2.3268 6.55039 2.34395 6.51656 2.35539C6.48273 2.36683 6.44889 2.37827 6.41506 2.38971C6.38123 2.40114 6.35304 2.4183 6.33048 2.44117C6.30793 2.46405 6.27973 2.48121 6.2459 2.49264C6.21207 2.50408 6.1726 2.5098 6.12749 2.5098C6.08239 2.5098 6.04291 2.51552 6.00908 2.52696C5.97525 2.5384 5.94705 2.55555 5.9245 2.57843C5.90194 2.60131 5.87939 2.62418 5.85683 2.64706C5.83428 2.66993 5.81173 2.69281 5.78918 2.71568C5.76662 2.73856 5.73842 2.75572 5.7046 2.76716C5.67076 2.77859 5.63693 2.79003 5.6031 2.80147C5.56926 2.81291 5.54107 2.83007 5.51852 2.85294C5.49597 2.87582 5.47341 2.89869 5.45086 2.92157C5.4283 2.94444 5.40574 2.96732 5.38319 2.99019C5.36063 3.01307 5.33244 3.03022 5.29861 3.04167C5.26478 3.0531 5.23094 3.06454 5.19711 3.07597C5.16329 3.08742 5.13509 3.10458 5.11253 3.12745C5.08998 3.15033 5.06742 3.1732 5.04487 3.19607C5.02231 3.21895 4.99976 3.24182 4.97721 3.2647C4.95466 3.28758 4.9321 3.31046 4.90955 3.33333C4.88699 3.35621 4.86444 3.37908 4.84188 3.40196C4.81933 3.42483 4.79677 3.44771 4.77421 3.47058C4.75166 3.49346 4.7291 3.51634 4.70655 3.53922C4.684 3.56209 4.66145 3.58497 4.63889 3.60784C4.61634 3.63072 4.59378 3.65359 4.57123 3.67647C4.54867 3.69934 4.52612 3.72222 4.50356 3.74509C4.481 3.76797 4.45845 3.79085 4.4359 3.81373C4.41335 3.8366 4.39079 3.85948 4.36824 3.88235C4.34568 3.90522 4.32313 3.9281 4.30057 3.95098C4.27802 3.97385 4.25546 3.99673 4.23291 4.01961C4.21035 4.04248 4.18779 4.06536 4.16524 4.08823C4.14269 4.11111 4.12014 4.13398 4.09758 4.15686C4.07503 4.17973 4.05811 4.20834 4.04683 4.24264C4.03556 4.27696 4.02428 4.31127 4.013 4.34558C4.00172 4.3799 3.98481 4.40849 3.96225 4.43137C3.9397 4.45424 3.91714 4.47712 3.89459 4.5C3.87203 4.52288 3.84948 4.54575 3.82693 4.56863C3.80437 4.5915 3.78745 4.62009 3.77618 4.65441C3.7649 4.68873 3.75362 4.72303 3.74235 4.75735C3.73107 4.79167 3.71415 4.82026 3.6916 4.84313C3.66904 4.86601 3.65213 4.8946 3.64085 4.92892C3.62957 4.96324 3.6183 4.99754 3.60702 5.03186C3.59574 5.06618 3.57882 5.09477 3.55627 5.11764C3.53372 5.14052 3.5168 5.16912 3.50552 5.20343C3.49424 5.23774 3.48297 5.27206 3.47169 5.30637C3.46041 5.34069 3.4435 5.36928 3.42094 5.39215C3.39839 5.41503 3.38147 5.44363 3.37019 5.47793C3.35892 5.51225 3.35328 5.55229 3.35328 5.59804C3.35328 5.64379 3.34764 5.68382 3.33636 5.71814C3.32509 5.75245 3.30817 5.78104 3.28561 5.80392C3.26306 5.82679 3.24614 5.85539 3.23487 5.8897C3.22359 5.92402 3.21795 5.96405 3.21795 6.0098C3.21795 6.05555 3.21231 6.09559 3.20103 6.1299C3.18976 6.16421 3.17284 6.19281 3.15029 6.21569C3.12773 6.23856 3.11082 6.26715 3.09954 6.30147C3.08826 6.33578 3.08262 6.37581 3.08262 6.42157C3.08262 6.46732 3.08262 6.51307 3.08262 6.55882C3.08262 6.60457 3.08262 6.65032 3.08262 6.69608C3.08262 6.74183 3.08262 6.78758 3.08262 6.83333C3.08262 6.87908 3.08262 6.92484 3.08262 6.97059C3.08262 7.01634 3.07698 7.05637 3.06571 7.09069C3.05443 7.12499 3.03751 7.1536 3.01496 7.17647C2.9924 7.19935 2.97549 7.22794 2.96421 7.26226C2.95293 7.29656 2.9473 7.3366 2.9473 7.38235C2.9473 7.4281 2.9473 7.47385 2.9473 7.5196C2.9473 7.56535 2.9473 7.61111 2.9473 7.65686C2.9473 7.70261 2.95293 7.74265 2.96421 7.77695C2.97549 7.81127 2.9924 7.83986 3.01496 7.86274C3.03751 7.88562 3.05443 7.91421 3.06571 7.94853C3.07698 7.98284 3.08262 8.02286 3.08262 8.06866C3.08262 8.11437 3.08262 8.16008 3.08262 8.20587C3.08262 8.25158 3.08262 8.29738 3.08262 8.34308C3.08262 8.38888 3.08262 8.43459 3.08262 8.48038C3.08262 8.52609 3.08262 8.57189 3.08262 8.6176C3.08262 8.66339 3.08262 8.7091 3.08262 8.75489C3.08262 8.8006 3.08262 8.8464 3.08262 8.89211C3.08262 8.9379 3.08826 8.97794 3.09954 9.01222C3.11082 9.04659 3.12773 9.07511 3.15029 9.09805C3.17284 9.12091 3.18976 9.14952 3.20103 9.1838C3.21231 9.21808 3.21795 9.25812 3.21795 9.30392C3.21795 9.34963 3.21795 9.39542 3.21795 9.44113C3.21795 9.48692 3.22359 9.52696 3.23487 9.56124C3.24614 9.59561 3.26306 9.62414 3.28561 9.64708C3.30817 9.66993 3.32509 9.69854 3.33636 9.73282C3.34764 9.76711 3.35328 9.80714 3.35328 9.85294C3.35328 9.89865 3.35892 9.93869 3.37019 9.97305C3.38147 10.0073 3.39839 10.0359 3.42094 10.0588C3.4435 10.0817 3.46041 10.1103 3.47169 10.1446C3.48297 10.1789 3.48861 10.219 3.48861 10.2647C3.48861 10.3105 3.49424 10.3505 3.50552 10.3848C3.5168 10.4191 3.53372 10.4477 3.55627 10.4706C3.57882 10.4935 3.59574 10.5221 3.60702 10.5564C3.6183 10.5906 3.62957 10.625 3.64085 10.6593C3.65213 10.6937 3.66904 10.7222 3.6916 10.7451C3.71415 10.768 3.73107 10.7966 3.74235 10.8309C3.75362 10.8652 3.7649 10.8995 3.77618 10.9338C3.78745 10.9682 3.80437 10.9967 3.82693 11.0196C3.84948 11.0425 3.8664 11.0711 3.87767 11.1054C3.88895 11.1397 3.90023 11.174 3.9115 11.2083C3.92278 11.2427 3.9397 11.2712 3.96225 11.2941C3.98481 11.317 4.00736 11.3399 4.02992 11.3627C4.05247 11.3856 4.07503 11.4085 4.09758 11.4314C4.12014 11.4542 4.13705 11.4828 4.14833 11.5171C4.15961 11.5515 4.17088 11.5858 4.18216 11.6201C4.19344 11.6544 4.21035 11.683 4.23291 11.7059C4.25546 11.7287 4.27802 11.7517 4.30057 11.7745C4.32313 11.7974 4.34568 11.8202 4.36824 11.8432C4.39079 11.866 4.41335 11.8889 4.4359 11.9117C4.45845 11.9347 4.481 11.9575 4.50356 11.9804C4.52612 12.0032 4.54303 12.0318 4.55431 12.0661C4.56558 12.1005 4.57687 12.1348 4.58814 12.1691C4.59942 12.2034 4.61634 12.232 4.63889 12.2549C4.66145 12.2777 4.684 12.3007 4.70655 12.3235C4.7291 12.3464 4.75166 12.3692 4.77421 12.3921C4.79677 12.415 4.81933 12.4379 4.84188 12.4608C4.86444 12.4837 4.88699 12.5065 4.90955 12.5294C4.9321 12.5523 4.95466 12.5751 4.97721 12.598C4.99976 12.6209 5.02231 12.6438 5.04487 12.6666C5.06742 12.6896 5.08998 12.7124 5.11253 12.7353C5.13509 12.7581 5.15765 12.7811 5.1802 12.8039C5.20276 12.8268 5.22531 12.8496 5.24787 12.8726C5.27042 12.8954 5.29297 12.9183 5.31552 12.9411C5.33808 12.9641 5.36063 12.9869 5.38319 13.0098C5.40574 13.0326 5.4283 13.0556 5.45086 13.0784C5.47341 13.1013 5.49597 13.1241 5.51852 13.1471C5.54107 13.1699 5.56362 13.1928 5.58618 13.2156C5.60873 13.2386 5.63129 13.2614 5.65384 13.2843C5.6764 13.3071 5.69895 13.3301 5.72151 13.3529C5.74407 13.3758 5.76662 13.3986 5.78918 13.4216C5.81173 13.4444 5.83428 13.4673 5.85683 13.4901C5.87939 13.5131 5.90194 13.5359 5.9245 13.5588C5.94705 13.5817 5.96961 13.6046 5.99216 13.6274C6.01472 13.6503 6.03727 13.6732 6.05983 13.6961C6.08239 13.7189 6.11057 13.7361 6.14441 13.7476C6.17824 13.759 6.21207 13.7704 6.2459 13.7818C6.27973 13.7933 6.30793 13.8105 6.33048 13.8333C6.35304 13.8562 6.3756 13.8791 6.39815 13.902C6.4207 13.9248 6.44325 13.9477 6.46581 13.9706C6.48836 13.9935 6.51656 14.0106 6.55039 14.0221C6.58422 14.0335 6.61805 14.0449 6.65188 14.0564C6.68572 14.0678 6.71391 14.085 6.73646 14.1078C6.75902 14.1307 6.78157 14.1536 6.80413 14.1765C6.82668 14.1993 6.84924 14.2222 6.87179 14.2451C6.89435 14.268 6.92254 14.2852 6.95637 14.2966C6.9902 14.308 7.02404 14.3194 7.05787 14.3309C7.0917 14.3423 7.11989 14.3595 7.14245 14.3823C7.165 14.4052 7.1932 14.4224 7.22703 14.4338C7.26086 14.4452 7.29469 14.4567 7.32852 14.4682C7.36235 14.4796 7.39055 14.4967 7.4131 14.5196C7.43566 14.5425 7.46385 14.5597 7.49768 14.5711C7.53151 14.5825 7.56535 14.5939 7.59918 14.6054C7.63301 14.6168 7.6612 14.634 7.68376 14.6568C7.70631 14.6797 7.73451 14.6969 7.76834 14.7083C7.80216 14.7197 7.836 14.7312 7.86983 14.7427C7.90367 14.7541 7.93186 14.7712 7.95441 14.7941C7.97697 14.817 8.00516 14.8342 8.03899 14.8456C8.07282 14.857 8.10666 14.8685 8.14048 14.8799C8.17432 14.8913 8.19124 14.9085 8.19124 14.9314C8.19124 14.9542 8.17432 14.9714 8.14048 14.9828C8.10666 14.9942 8.06719 15 8.02208 15C7.97697 15 7.93185 15 7.88674 15C7.84164 15 7.79653 15 7.75142 15C7.70631 15 7.66684 14.9942 7.63301 14.9828C7.59918 14.9714 7.57098 14.9542 7.54843 14.9314C7.52588 14.9085 7.49768 14.8913 7.46385 14.8799C7.43002 14.8685 7.39055 14.8627 7.34544 14.8627C7.30032 14.8627 7.25522 14.8627 7.21011 14.8627C7.165 14.8627 7.12553 14.857 7.0917 14.8456C7.05787 14.8342 7.02967 14.817 7.00712 14.7941C6.98457 14.7712 6.95637 14.7541 6.92254 14.7427C6.88871 14.7312 6.84924 14.7255 6.80413 14.7255C6.75902 14.7255 6.71955 14.7197 6.68572 14.7083C6.65188 14.6969 6.62369 14.6797 6.60114 14.6568C6.57858 14.634 6.55039 14.6168 6.51656 14.6054C6.48273 14.5939 6.44325 14.5882 6.39815 14.5882C6.35304 14.5882 6.31357 14.5825 6.27973 14.5711C6.2459 14.5597 6.21771 14.5425 6.19515 14.5196C6.1726 14.4967 6.14441 14.4796 6.11057 14.4682C6.07674 14.4567 6.04291 14.4452 6.00908 14.4338C5.97525 14.4224 5.94705 14.4052 5.9245 14.3823C5.90194 14.3595 5.87376 14.3423 5.83992 14.3309C5.80609 14.3194 5.77226 14.308 5.73842 14.2966C5.7046 14.2852 5.6764 14.268 5.65384 14.2451C5.63129 14.2222 5.6031 14.2051 5.56926 14.1937C5.53544 14.1821 5.5016 14.1707 5.46777 14.1593C5.43394 14.1479 5.40574 14.1307 5.38319 14.1078C5.36063 14.085 5.33808 14.0621 5.31552 14.0392C5.29297 14.0163 5.27042 13.9935 5.24787 13.9706C5.22531 13.9477 5.19712 13.9306 5.16329 13.9191C5.12945 13.9076 5.09562 13.8962 5.06179 13.8848C5.02795 13.8733 4.99976 13.8562 4.97721 13.8333C4.95466 13.8105 4.9321 13.7876 4.90955 13.7647C4.88699 13.7418 4.86444 13.7189 4.84188 13.6961C4.81933 13.6732 4.79677 13.6503 4.77421 13.6274C4.75166 13.6046 4.7291 13.5817 4.70655 13.5588C4.684 13.5359 4.65581 13.5188 4.62198 13.5073C4.58814 13.4959 4.55431 13.4845 4.52047 13.473C4.48665 13.4616 4.45845 13.4444 4.4359 13.4216C4.41335 13.3986 4.39079 13.3758 4.36824 13.3529C4.34568 13.3301 4.32313 13.3071 4.30057 13.2843C4.27802 13.2614 4.25546 13.2386 4.23291 13.2156C4.21035 13.1928 4.18779 13.1699 4.16524 13.1471C4.14269 13.1241 4.12014 13.1013 4.09758 13.0784C4.07503 13.0556 4.05247 13.0326 4.02992 13.0098C4.00736 12.9869 3.98481 12.9641 3.96225 12.9411C3.9397 12.9183 3.92278 12.8897 3.9115 12.8554C3.90023 12.8211 3.88895 12.7867 3.87767 12.7524C3.8664 12.7182 3.84948 12.6896 3.82693 12.6666C3.80437 12.6438 3.78182 12.6209 3.75926 12.598C3.73671 12.5751 3.71415 12.5523 3.6916 12.5294C3.66904 12.5065 3.64649 12.4837 3.62393 12.4608C3.60138 12.4379 3.57882 12.415 3.55627 12.3921C3.53372 12.3692 3.51116 12.3464 3.48861 12.3235C3.46605 12.3007 3.4435 12.2777 3.42094 12.2549C3.39839 12.232 3.38147 12.2034 3.37019 12.1691C3.35892 12.1348 3.34764 12.1005 3.33636 12.0661C3.32509 12.0318 3.30817 12.0032 3.28561 11.9804C3.26306 11.9575 3.24051 11.9347 3.21795 11.9117C3.1954 11.8889 3.17284 11.866 3.15029 11.8432C3.12773 11.8202 3.11082 11.7916 3.09954 11.7573C3.08826 11.723 3.07698 11.6887 3.06571 11.6544C3.05443 11.6201 3.03751 11.5915 3.01496 11.5687C2.9924 11.5457 2.97549 11.5171 2.96421 11.4828C2.95293 11.4485 2.94166 11.4142 2.93038 11.3799C2.9191 11.3456 2.90219 11.317 2.87963 11.2941C2.85708 11.2712 2.84016 11.2427 2.82888 11.2083C2.81761 11.174 2.80633 11.1397 2.79505 11.1054C2.78377 11.0711 2.76686 11.0425 2.7443 11.0196C2.72175 10.9967 2.70483 10.9682 2.69356 10.9338C2.68228 10.8995 2.671 10.8652 2.65972 10.8309C2.64845 10.7966 2.63153 10.768 2.60898 10.7451C2.58642 10.7222 2.56951 10.6937 2.55823 10.6593C2.54695 10.625 2.54131 10.585 2.54131 10.5392C2.54131 10.4935 2.53567 10.4534 2.5244 10.4191C2.51312 10.3848 2.4962 10.3562 2.47365 10.3333C2.45109 10.3105 2.43418 10.2818 2.42291 10.2476C2.41162 10.2132 2.40599 10.1732 2.40599 10.1274C2.40599 10.0817 2.40035 10.0416 2.38907 10.0073C2.37779 9.97305 2.36088 9.94444 2.33833 9.92159C2.31577 9.89865 2.29886 9.87012 2.28757 9.83575C2.2763 9.80147 2.27066 9.76143 2.27066 9.71564C2.27066 9.66993 2.27066 9.62414 2.27066 9.57843C2.27066 9.53263 2.26502 9.49259 2.25374 9.45831C2.24246 9.42403 2.22555 9.39542 2.20299 9.37256C2.18044 9.34962 2.16352 9.3211 2.15225 9.28673C2.14097 9.25245 2.13533 9.21241 2.13533 9.16662C2.13533 9.12091 2.13533 9.07511 2.13533 9.0294C2.13533 8.98361 2.13533 8.9379 2.13533 8.89211C2.13533 8.8464 2.13533 8.8006 2.13533 8.75489C2.13533 8.7091 2.1297 8.66915 2.11841 8.63478C2.10714 8.6005 2.09023 8.57189 2.06767 8.54903C2.04512 8.52609 2.0282 8.49757 2.01692 8.4632C2.00565 8.42892 2 8.38888 2 8.34308C2 8.29738 2 8.25158 2 8.20587C2 8.16008 2 8.11437 2 8.06866C2 8.02286 2 7.97712 2 7.93137C2 7.88562 2 7.83986 2 7.79411C2 7.74836 2 7.70261 2 7.65686C2 7.61111 2 7.56535 2 7.5196C2 7.47385 2 7.4281 2 7.38235C2 7.3366 2 7.29085 2 7.2451C2 7.19935 2 7.1536 2 7.10784C2 7.06209 2 7.01634 2 6.97059C2 6.92484 2.00565 6.8848 2.01692 6.85049C2.0282 6.81617 2.04512 6.78758 2.06767 6.7647C2.09023 6.74183 2.10714 6.71323 2.11841 6.67892C2.1297 6.6446 2.13533 6.60457 2.13533 6.55882C2.13533 6.51307 2.13533 6.46732 2.13533 6.42157C2.13533 6.37581 2.13533 6.33006 2.13533 6.28431C2.13533 6.23856 2.13533 6.19281 2.13533 6.14705C2.13533 6.1013 2.14097 6.06127 2.15225 6.02696C2.16352 5.99264 2.18044 5.96405 2.20299 5.94118C2.22555 5.91829 2.24246 5.8897 2.25374 5.85539C2.26502 5.82108 2.27066 5.78104 2.27066 5.73529C2.27066 5.68954 2.2763 5.64951 2.28757 5.61519C2.29886 5.58088 2.31577 5.55229 2.33833 5.52941C2.36088 5.50654 2.37779 5.47794 2.38907 5.44363C2.40035 5.40931 2.40599 5.36928 2.40599 5.32353C2.40599 5.27778 2.41162 5.23774 2.42291 5.20343C2.43418 5.16912 2.45109 5.14052 2.47365 5.11764C2.4962 5.09477 2.51312 5.06618 2.5244 5.03186C2.53567 4.99754 2.54695 4.96324 2.55823 4.92892C2.56951 4.8946 2.58642 4.86601 2.60898 4.84313C2.63153 4.82026 2.64845 4.79167 2.65972 4.75735C2.671 4.72303 2.68228 4.68873 2.69356 4.65441C2.70483 4.62009 2.72175 4.5915 2.7443 4.56863C2.76686 4.54575 2.78377 4.51715 2.79505 4.48284C2.80633 4.44853 2.81761 4.41421 2.82888 4.3799C2.84016 4.34558 2.85708 4.31699 2.87963 4.29412C2.90219 4.27124 2.9191 4.24264 2.93038 4.20834C2.94166 4.17402 2.95293 4.1397 2.96421 4.10539C2.97549 4.07108 2.9924 4.04248 3.01496 4.01961C3.03751 3.99673 3.05443 3.96813 3.06571 3.93382C3.07698 3.89951 3.08826 3.86519 3.09954 3.83088C3.11082 3.79657 3.12773 3.76797 3.15029 3.74509C3.17284 3.72222 3.1954 3.69934 3.21795 3.67647C3.24051 3.65359 3.26306 3.63072 3.28561 3.60784C3.30817 3.58497 3.33072 3.56209 3.35328 3.53922C3.37583 3.51634 3.39839 3.49346 3.42094 3.47058C3.4435 3.44771 3.46041 3.41912 3.47169 3.3848C3.48297 3.35049 3.49424 3.31618 3.50552 3.28186C3.5168 3.24755 3.53372 3.21895 3.55627 3.19607C3.57882 3.1732 3.60138 3.15033 3.62393 3.12745C3.64649 3.10458 3.66904 3.0817 3.6916 3.05883C3.71415 3.03594 3.73671 3.01307 3.75926 2.99019C3.78182 2.96732 3.80437 2.94444 3.82693 2.92157C3.84948 2.89869 3.87203 2.87582 3.89459 2.85294C3.91714 2.83007 3.9397 2.80719 3.96225 2.78431C3.98481 2.76143 4.00736 2.73856 4.02992 2.71568C4.05247 2.69281 4.07503 2.66993 4.09758 2.64706C4.12014 2.62418 4.14269 2.60131 4.16524 2.57843C4.18779 2.55555 4.21599 2.5384 4.24982 2.52696C4.28366 2.51552 4.31749 2.50408 4.35132 2.49264C4.38515 2.48121 4.41335 2.46405 4.4359 2.44117C4.45845 2.4183 4.481 2.39542 4.50356 2.37255C4.52612 2.34967 4.54867 2.3268 4.57123 2.30392C4.59378 2.28104 4.61634 2.25816 4.63889 2.23529C4.66145 2.21242 4.684 2.18954 4.70655 2.16667C4.7291 2.14379 4.7573 2.12663 4.79113 2.11519C4.82497 2.10376 4.85879 2.09231 4.89263 2.08088C4.92646 2.06944 4.95466 2.05228 4.97721 2.02941C4.99976 2.00653 5.02231 1.98366 5.04487 1.96078C5.06742 1.93791 5.08998 1.91503 5.11253 1.89216C5.13509 1.86928 5.16329 1.85212 5.19711 1.84068C5.23094 1.82925 5.26478 1.81781 5.29861 1.80637C5.33244 1.79493 5.36063 1.77777 5.38319 1.7549C5.40574 1.73202 5.43394 1.71486 5.46777 1.70343C5.5016 1.69199 5.53544 1.68056 5.56926 1.66911C5.6031 1.65768 5.63129 1.64052 5.65384 1.61765C5.6764 1.59477 5.7046 1.57762 5.73842 1.56617C5.77226 1.55474 5.81173 1.54901 5.85683 1.54901C5.90194 1.54901 5.94141 1.5433 5.97525 1.53186C6.00908 1.52042 6.03727 1.50326 6.05983 1.48039C6.08239 1.45751 6.11057 1.44036 6.14441 1.42892C6.17824 1.41748 6.21207 1.40604 6.2459 1.39461C6.27973 1.38316 6.30793 1.36601 6.33048 1.34313C6.35304 1.32026 6.38123 1.30311 6.41506 1.29166C6.44889 1.28022 6.48836 1.27451 6.53347 1.27451C6.57858 1.27451 6.62369 1.27451 6.6688 1.27451C6.71391 1.27451 6.75339 1.26879 6.78721 1.25735C6.82104 1.24591 6.84924 1.22876 6.87179 1.20588C6.89435 1.18301 6.92254 1.16585 6.95637 1.15441C6.9902 1.14297 7.02967 1.13726 7.07478 1.13726C7.11989 1.13726 7.165 1.13726 7.21011 1.13726C7.25522 1.13726 7.30032 1.13726 7.34544 1.13726C7.39055 1.13726 7.43002 1.13153 7.46385 1.1201C7.49768 1.10866 7.52588 1.0915 7.54843 1.06862Z" fill="url(#paint0_linear_448_197)" stroke="url(#paint1_linear_448_197)"/>
<defs>
<linearGradient id="paint0_linear_448_197" x1="7.88673" y1="15" x2="7.88673" y2="1" gradientUnits="userSpaceOnUse">
<stop stop-color="#FF1B71"/>
<stop offset="0.9998" stop-color="#FF867E"/>
<stop offset="0.9999" stop-color="#FF6678"/>
</linearGradient>
<linearGradient id="paint1_linear_448_197" x1="7.88673" y1="15" x2="7.88673" y2="1" gradientUnits="userSpaceOnUse">
<stop stop-color="#FF1B71"/>
<stop offset="0.9998" stop-color="#FF867E"/>
<stop offset="0.9999" stop-color="#FF6678"/>
</linearGradient>
</defs>
</svg>
