<svg width="16" height="16" viewBox="0 0 16 16" fill="none" xmlns="http://www.w3.org/2000/svg">
<g clip-path="url(#clip0_448_211)">
<path fill-rule="evenodd" clip-rule="evenodd" d="M4.84867 0.785117C4.7643 0.714695 4.64382 0.707637 4.5518 0.767725L0.289062 3.55117C0.146579 3.64422 0.136667 3.84932 0.269515 3.95567L3.11707 6.23512C3.19957 6.30117 3.3147 6.3082 3.40465 6.25267L8 3.41527L4.84867 0.785117ZM0 8.95255C0 8.9523 0.000299127 8.95212 0.000524807 8.95227L4.55177 11.9241C4.6438 11.9842 4.7643 11.9771 4.84867 11.9067L8 9.27592L3.40468 6.4392C3.31473 6.38367 3.19957 6.39072 3.11707 6.4568L0.000551522 8.95282C0.000329392 8.953 0 8.95285 0 8.95255ZM8 9.27592L11.1513 11.9067C11.2357 11.9771 11.3562 11.9842 11.4482 11.9241L15.711 9.14062C15.8535 9.0476 15.8634 8.84255 15.7306 8.73617L12.8829 6.4555C12.8004 6.3894 12.6853 6.38237 12.5953 6.43792L8 9.27592ZM15.7305 3.95567C15.8634 3.84932 15.8534 3.64425 15.711 3.5512L11.4482 0.767725C11.3562 0.707637 11.2357 0.714695 11.1513 0.785117L8 3.41527L12.5953 6.2533C12.6853 6.30885 12.8004 6.30182 12.8829 6.23575L15.7305 3.95567Z" fill="url(#paint0_linear_448_211)"/>
<path opacity="0.4" d="M4.84863 12.4906L7.84966 9.99907C7.94223 9.92219 8.07643 9.92219 8.16903 9.99904L11.1707 12.4907C11.2551 12.5607 11.3753 12.5676 11.4671 12.5076L12.3393 11.9378C12.5056 11.8292 12.726 11.9485 12.726 12.1471V12.5782C12.726 12.6661 12.6799 12.7475 12.6046 12.7926L8.13794 15.4714C8.05879 15.5188 7.95991 15.5188 7.88076 15.4714L3.41474 12.7926C3.33944 12.7475 3.29333 12.6661 3.29333 12.5783V12.1471C3.29333 11.9485 3.51379 11.8292 3.68006 11.9378L4.55221 12.5076C4.64404 12.5676 4.76423 12.5607 4.84863 12.4906Z" fill="url(#paint1_linear_448_211)"/>
</g>
<defs>
<linearGradient id="paint0_linear_448_211" x1="8" y1="12.0253" x2="8" y2="0.666597" gradientUnits="userSpaceOnUse">
<stop stop-color="#5570FF"/>
<stop offset="1" stop-color="#4DD3FF"/>
</linearGradient>
<linearGradient id="paint1_linear_448_211" x1="8.00969" y1="15.5485" x2="8.00969" y2="9.86649" gradientUnits="userSpaceOnUse">
<stop stop-color="#5570FF"/>
<stop offset="1" stop-color="#4DD3FF"/>
</linearGradient>
<clipPath id="clip0_448_211">
<rect width="16" height="16" fill="white"/>
</clipPath>
</defs>
</svg>
