<svg width="16" height="16" viewBox="0 0 16 16" fill="none" xmlns="http://www.w3.org/2000/svg">
<g clip-path="url(#clip0_448_164)">
<path opacity="0.4" d="M4.21601 0.800293C4.14539 0.800293 4.08492 0.845023 4.06255 0.907863C4.05034 0.942178 4.04934 0.979558 4.04145 1.01512L3.80942 2.06092C3.78347 2.17791 3.6974 2.27127 3.58643 2.31652C3.47656 2.36132 3.3511 2.35559 3.25101 2.29186L2.30195 1.6876C2.22645 1.63955 2.13692 1.62432 2.07364 1.6876L1.38731 2.37392C1.3374 2.42383 1.32685 2.49768 1.35566 2.5577C1.37145 2.59059 1.39718 2.61777 1.41677 2.64855L1.99276 3.55367C2.05654 3.65389 2.06186 3.77961 2.01642 3.88937C1.97111 3.99882 1.87863 4.08353 1.76299 4.10919L0.71483 4.34174C0.67927 4.34963 0.64189 4.35063 0.60757 4.36285C0.54473 4.38521 0.5 4.44569 0.5 4.51631V5.48429C0.5 5.57379 0.573965 5.62754 0.66133 5.64699L1.76332 5.89149C1.87864 5.91704 1.97067 6.00189 2.01514 6.11134C2.05904 6.21934 2.0533 6.34264 1.99071 6.44104L1.38183 7.39834C1.33379 7.47384 1.31855 7.56339 1.38183 7.62664L2.0668 8.31299C2.11678 8.36299 2.19162 8.37349 2.25205 8.34449C2.28485 8.32879 2.31196 8.30314 2.34263 8.28359L3.24887 7.70609C3.35015 7.64154 3.47727 7.63629 3.58802 7.68274C3.69806 7.72894 3.78335 7.82214 3.8092 7.93869L4.04145 8.98544C4.04934 9.02104 4.05034 9.05839 4.06255 9.09274C4.08492 9.15554 4.14539 9.20029 4.21601 9.20029H5.184C5.2735 9.20029 5.32725 9.12634 5.3467 9.03894L5.5906 7.93969C5.61655 7.82269 5.7026 7.72929 5.81355 7.68404C5.92345 7.63924 6.0489 7.64499 6.149 7.70874L7.0518 8.28354C7.08255 8.30309 7.1097 8.32879 7.14255 8.34459C7.20255 8.37344 7.27645 8.36289 7.32635 8.31299L8.0127 7.62664C8.076 7.56339 8.06075 7.47384 8.0127 7.39834L7.40725 6.44689C7.34345 6.34669 7.33815 6.22099 7.3836 6.11119C7.4289 6.00174 7.52135 5.91704 7.637 5.89139L8.73865 5.64699C8.82605 5.62754 8.9 5.57379 8.9 5.48429V4.51631C8.9 4.44569 8.85525 4.38521 8.79245 4.36285C8.7581 4.35063 8.72075 4.34963 8.68515 4.34174L7.6417 4.11023C7.5233 4.08395 7.42875 3.9968 7.38255 3.88463C7.3368 3.77354 7.34245 3.64649 7.407 3.54513L7.97775 2.64851C7.99735 2.61776 8.02305 2.5906 8.03885 2.55774C8.0677 2.49771 8.05715 2.42384 8.00725 2.37392L7.32225 1.6876C7.259 1.62432 7.16945 1.63955 7.09395 1.6876L6.1426 2.29256C6.04315 2.3558 5.91845 2.36111 5.8095 2.31614C5.7009 2.27129 5.6169 2.1795 5.59145 2.06477L5.3467 0.961618C5.32725 0.874258 5.2735 0.800293 5.184 0.800293H4.21601ZM4.7 3.60029C5.0713 3.60029 5.4274 3.74779 5.68995 4.01034C5.9525 4.27289 6.1 4.62899 6.1 5.00029C6.1 5.37159 5.9525 5.72769 5.68995 5.99024C5.4274 6.25279 5.0713 6.40029 4.7 6.40029C4.32869 6.40029 3.9726 6.25279 3.71005 5.99024C3.4475 5.72769 3.3 5.37159 3.3 5.00029C3.3 4.62899 3.4475 4.27289 3.71005 4.01034C3.9726 3.74779 4.32869 3.60029 4.7 3.60029Z" fill="url(#paint0_linear_448_164)"/>
<path d="M8.8086 3.19971C8.69945 3.19971 8.6073 3.27448 8.58265 3.37588C8.57405 3.41127 8.5722 3.44812 8.5643 3.48368L8.22775 5.00061C8.19065 5.16776 8.0677 5.30111 7.9092 5.36576C7.7522 5.42976 7.573 5.42156 7.43 5.33051L6.0742 4.46729C5.96635 4.39865 5.83845 4.37689 5.74805 4.46729L4.76758 5.44776C4.69044 5.52491 4.67913 5.64206 4.73363 5.73096C4.7527 5.76206 4.77746 5.78946 4.79705 5.82026L5.6325 7.13311C5.7236 7.27631 5.73125 7.45586 5.6663 7.61266C5.6016 7.76906 5.4695 7.89006 5.30425 7.92671L3.78397 8.26401C3.74841 8.27191 3.71156 8.27376 3.67617 8.28236C3.57477 8.30701 3.5 8.39916 3.5 8.50831V9.89111C3.5 10.019 3.60566 10.0958 3.73047 10.1236L5.30475 10.4728C5.4695 10.5094 5.60095 10.6306 5.6645 10.7869C5.7272 10.9413 5.719 11.1174 5.6296 11.2579L4.75977 12.6255C4.69113 12.7334 4.66937 12.8613 4.75977 12.9517L5.7383 13.9321C5.8155 14.0093 5.9342 14.0206 6.0235 13.966C6.05455 13.947 6.0819 13.9223 6.11255 13.9027L7.42695 13.0651C7.57165 12.9729 7.75325 12.9654 7.91145 13.0318C8.06865 13.0978 8.1905 13.231 8.22745 13.3974L8.5643 14.9158C8.5722 14.9513 8.57405 14.9882 8.58265 15.0236C8.6073 15.125 8.69945 15.1997 8.8086 15.1997H10.1914C10.3192 15.1997 10.3961 15.0941 10.4239 14.9693L10.7723 13.3988C10.8094 13.2317 10.9323 13.0983 11.0908 13.0337C11.2478 12.9697 11.427 12.9779 11.57 13.0689L12.8795 13.9027C12.9102 13.9223 12.9377 13.947 12.9687 13.9661C13.0576 14.0206 13.1748 14.0093 13.252 13.9321L14.2324 12.9517C14.3228 12.8613 14.301 12.7334 14.2324 12.6255L13.3675 11.2663C13.2764 11.1231 13.2688 10.9436 13.3337 10.7868C13.3984 10.6304 13.5305 10.5094 13.6958 10.4727L15.2696 10.1236C15.3944 10.0958 15.5 10.019 15.5 9.89111V8.50831C15.5 8.39916 15.4252 8.30701 15.3238 8.28236C15.2884 8.27376 15.2516 8.27191 15.2161 8.26401L13.7024 7.92821C13.5332 7.89066 13.3982 7.76616 13.3322 7.60591C13.2668 7.44721 13.275 7.26571 13.3672 7.12091L14.1952 5.82021C14.2148 5.78946 14.2394 5.76206 14.2585 5.73096C14.313 5.64211 14.3017 5.52491 14.2246 5.44776L13.2461 4.46729C13.1557 4.37689 13.0278 4.39865 12.9199 4.46729L11.5609 5.33151C11.4188 5.42186 11.2406 5.42946 11.085 5.36521C10.9298 5.30111 10.8099 5.17001 10.7735 5.00611L10.4239 3.43018C10.3961 3.30538 10.3192 3.19971 10.1914 3.19971H8.8086ZM9.5 7.19971C10.0304 7.19971 10.5391 7.41041 10.9142 7.78551C11.2893 8.16056 11.5 8.66926 11.5 9.19971C11.5 9.73016 11.2893 10.2389 10.9142 10.6139C10.5391 10.989 10.0304 11.1997 9.5 11.1997C8.96955 11.1997 8.46085 10.989 8.0858 10.6139C7.7107 10.2389 7.5 9.73016 7.5 9.19971C7.5 8.66926 7.7107 8.16056 8.0858 7.78551C8.46085 7.41041 8.96955 7.19971 9.5 7.19971Z" fill="url(#paint1_linear_448_164)"/>
</g>
<defs>
<linearGradient id="paint0_linear_448_164" x1="4.69999" y1="9.20029" x2="4.69999" y2="0.800293" gradientUnits="userSpaceOnUse">
<stop stop-color="#02AA93"/>
<stop offset="1" stop-color="#67FF80"/>
</linearGradient>
<linearGradient id="paint1_linear_448_164" x1="9.5" y1="15.1997" x2="9.5" y2="3.19971" gradientUnits="userSpaceOnUse">
<stop stop-color="#02AA93"/>
<stop offset="1" stop-color="#67FF80"/>
</linearGradient>
<clipPath id="clip0_448_164">
<rect width="16" height="16" fill="white"/>
</clipPath>
</defs>
</svg>
