<svg width="16" height="16" viewBox="0 0 16 16" fill="none" xmlns="http://www.w3.org/2000/svg">
<path opacity="0.4" d="M3.35868 0.668761C3.35763 0.667701 3.35592 0.667708 3.35486 0.668761L3.01111 1.01347C2.82075 1.20435 2.82085 1.51331 3.01135 1.70407L3.65992 2.35355C3.88311 2.57704 3.909 2.92398 3.79792 3.21965C3.69541 3.49254 3.64196 3.78293 3.64162 4.07735C3.64168 4.64132 3.83655 5.18796 4.19326 5.62479C4.43434 5.92002 4.73933 6.15284 5.08231 6.30759C5.37108 6.43787 5.59921 6.70218 5.59921 7.01898V9.94871C5.59921 10.2655 5.37108 10.5298 5.08231 10.6601C4.73991 10.8146 4.43536 11.0469 4.19447 11.3414C3.83783 11.7774 3.64256 12.3232 3.64162 12.8865C3.64162 13.5355 3.89942 14.1579 4.35832 14.6168C4.58555 14.844 4.8553 15.0242 5.15219 15.1472C5.44907 15.2702 5.76727 15.3335 6.08861 15.3335C6.73757 15.3335 7.35998 15.0757 7.81891 14.6168C8.27778 14.1579 8.53558 13.5355 8.53558 12.8865C8.53551 12.3225 8.34064 11.7759 7.98397 11.339C7.74291 11.0438 7.43791 10.811 7.09491 10.6562C6.80617 10.526 6.57801 10.2617 6.57801 9.94491V6.93578C6.57801 6.6654 6.77224 6.4391 7.02251 6.33693C7.27031 6.23579 7.56398 6.26005 7.75324 6.44929L8.55391 7.24998C8.77711 7.47318 8.80338 7.81985 8.69271 8.11551C8.59058 8.38851 8.53751 8.67892 8.53751 8.97325C8.53751 9.62225 8.79531 10.2446 9.25424 10.7035C9.71311 11.1624 10.3355 11.4202 10.9845 11.4202C11.6335 11.4202 12.2559 11.1624 12.7148 10.7035C13.1737 10.2446 13.4315 9.62225 13.4315 8.97325C13.4315 8.32425 13.1737 7.70185 12.7148 7.24298C12.2559 6.78405 11.6335 6.52625 10.9845 6.52625C10.6849 6.52661 10.3896 6.58196 10.1126 6.68798C9.81531 6.80178 9.46511 6.77685 9.24018 6.55165L8.51244 5.82304C8.28804 5.59829 8.26318 5.24893 8.37644 4.9522C8.48238 4.67487 8.53751 4.37915 8.53751 4.07925C8.53751 3.75791 8.47424 3.43971 8.35124 3.14283C8.22831 2.84595 8.04804 2.57619 7.82078 2.34897C7.59358 2.12175 7.32384 1.9415 7.02697 1.81853C6.73004 1.69555 6.41186 1.63226 6.09052 1.63226C5.79146 1.63286 5.49666 1.68825 5.2202 1.79413C4.9231 1.90791 4.57306 1.88313 4.34809 1.65816L3.35868 0.668761Z" fill="url(#paint0_linear_448_229)"/>
<path d="M2.85458 1.17045L3.35489 0.668761C3.35594 0.667708 3.35765 0.667701 3.35871 0.668761L4.58033 1.89038C4.67031 1.98037 4.81065 1.99279 4.92233 1.93178C5.27963 1.73659 5.68111 1.63308 6.09055 1.63226C6.41189 1.63226 6.73007 1.69555 7.027 1.81853C7.32387 1.9415 7.5936 2.12175 7.8208 2.34897C8.04807 2.57619 8.22833 2.84595 8.35127 3.14283C8.47427 3.43971 8.53753 3.75791 8.53753 4.07925C8.53753 4.4893 8.43447 4.89155 8.23947 5.24962C8.17867 5.36119 8.19113 5.50126 8.28093 5.59116L9.6272 6.93918L8.93707 7.63311L7.58133 6.27735C7.49233 6.18838 7.35393 6.17513 7.24273 6.23401C7.0984 6.31042 6.9468 6.37219 6.7902 6.4184C6.66827 6.45437 6.57803 6.56229 6.57803 6.68938V10.2715C6.57803 10.3982 6.66773 10.5059 6.78913 10.5422C7.2566 10.6818 7.67333 10.9586 7.984 11.339C8.34067 11.7759 8.53553 12.3225 8.5356 12.8865C8.5356 13.5355 8.2778 14.1579 7.81893 14.6168C7.36 15.0757 6.7376 15.3335 6.08863 15.3335C5.76729 15.3335 5.44909 15.2702 5.15221 15.1472C4.85533 15.0242 4.58557 14.844 4.35835 14.6168C3.89945 14.1579 3.64164 13.5355 3.64164 12.8865C3.64258 12.3232 3.83785 11.7774 4.19449 11.3414C4.50502 10.9617 4.92132 10.6855 5.38811 10.546C5.50953 10.5098 5.59923 10.402 5.59923 10.2753V6.69238C5.59923 6.56565 5.50953 6.45793 5.38811 6.42166C4.9207 6.28201 4.50393 6.00521 4.19329 5.62479C3.83657 5.18796 3.6417 4.64132 3.64164 4.07735C3.64211 3.6736 3.74245 3.27742 3.93225 2.92358C3.99196 2.81225 3.97911 2.67315 3.88984 2.58376L2.85471 1.54719C2.75079 1.44313 2.75073 1.27459 2.85458 1.17045Z" fill="url(#paint1_linear_448_229)"/>
<defs>
<linearGradient id="paint0_linear_448_229" x1="8.04904" y1="15.3335" x2="8.04904" y2="0.666848" gradientUnits="userSpaceOnUse">
<stop stop-color="#A93AFF"/>
<stop offset="1" stop-color="#FF81FF"/>
</linearGradient>
<linearGradient id="paint1_linear_448_229" x1="6.14694" y1="15.3335" x2="6.14694" y2="0.666848" gradientUnits="userSpaceOnUse">
<stop stop-color="#A93AFF"/>
<stop offset="1" stop-color="#FF81FF"/>
</linearGradient>
</defs>
</svg>
