<svg width="16" height="16" viewBox="0 0 16 16" fill="none" xmlns="http://www.w3.org/2000/svg">
<g clip-path="url(#clip0_448_299)">
<path opacity="0.4" d="M0.666687 10.6667C0.666687 8.46713 0.666687 7.36653 1.31129 6.68367C1.95515 6 2.99282 6 5.06669 6H10.9334C13.0072 6 14.0449 6 14.6888 6.68367C15.3334 7.36653 15.3334 8.46713 15.3334 10.6667C15.3334 12.8662 15.3334 13.9668 14.6888 14.6497C14.0449 15.3333 13.0072 15.3333 10.9334 15.3333H5.06669C2.99282 15.3333 1.95515 15.3333 1.31129 14.6497C0.666687 13.9668 0.666687 12.8662 0.666687 10.6667Z" fill="url(#paint0_linear_448_299)"/>
<path d="M5.23455 11.3337C5.41791 11.3337 5.59376 11.2623 5.72341 11.1353C5.85307 11.0083 5.92591 10.8361 5.92591 10.6564C5.92591 10.4768 5.85307 10.3045 5.72341 10.1775C5.59376 10.0505 5.41791 9.97919 5.23455 9.97919C5.05119 9.97919 4.87534 10.0505 4.74569 10.1775C4.61603 10.3045 4.54319 10.4768 4.54319 10.6564C4.54319 10.8361 4.61603 11.0083 4.74569 11.1353C4.87534 11.2623 5.05119 11.3337 5.23455 11.3337ZM7.99998 11.3337C8.18331 11.3337 8.35918 11.2623 8.48885 11.1353C8.61851 11.0083 8.69131 10.8361 8.69131 10.6564C8.69131 10.4768 8.61851 10.3045 8.48885 10.1775C8.35918 10.0505 8.18331 9.97919 7.99998 9.97919C7.81665 9.97919 7.64078 10.0505 7.51111 10.1775C7.38145 10.3045 7.30865 10.4768 7.30865 10.6564C7.30865 10.8361 7.38145 11.0083 7.51111 11.1353C7.64078 11.2623 7.81665 11.3337 7.99998 11.3337ZM11.4568 10.6564C11.4568 10.8361 11.3839 11.0083 11.2542 11.1353C11.1246 11.2623 10.9488 11.3337 10.7654 11.3337C10.582 11.3337 10.4062 11.2623 10.2766 11.1353C10.1469 11.0083 10.074 10.8361 10.074 10.6564C10.074 10.4768 10.1469 10.3045 10.2766 10.1775C10.4062 10.0505 10.582 9.97919 10.7654 9.97919C10.9488 9.97919 11.1246 10.0505 11.2542 10.1775C11.3839 10.3045 11.4568 10.4768 11.4568 10.6564ZM4.37035 5.23842C4.37035 4.29543 4.75275 3.39106 5.43345 2.72427C6.11413 2.05747 7.03731 1.68287 7.99998 1.68287C8.96265 1.68287 9.88585 2.05747 10.5665 2.72427C11.2472 3.39106 11.6296 4.29543 11.6296 5.23842V6.09761C11.6296 6.37335 11.8856 6.59689 12.1612 6.60507C12.4527 6.61373 12.6666 6.38137 12.6666 6.08975V5.23842C12.6666 4.02601 12.175 2.86324 11.2998 2.00593C10.4246 1.14863 9.23765 0.666992 7.99998 0.666992C6.76231 0.666992 5.57532 1.14863 4.70015 2.00593C3.82498 2.86324 3.33331 4.02601 3.33331 5.23842V6.09399C3.33331 6.38435 3.57861 6.61361 3.86882 6.60425C4.14588 6.59531 4.37035 6.37122 4.37035 6.09402V5.23842Z" fill="url(#paint1_linear_448_299)" stroke="url(#paint2_linear_448_299)"/>
</g>
<defs>
<linearGradient id="paint0_linear_448_299" x1="14.9197" y1="10.6667" x2="4.46013" y2="4.72101" gradientUnits="userSpaceOnUse">
<stop stop-color="#FE7970"/>
<stop offset="1" stop-color="#DC3282"/>
</linearGradient>
<linearGradient id="paint1_linear_448_299" x1="12.4034" y1="6.00033" x2="4.39853" y2="3.46663" gradientUnits="userSpaceOnUse">
<stop stop-color="#FE7970"/>
<stop offset="1" stop-color="#DC3282"/>
</linearGradient>
<linearGradient id="paint2_linear_448_299" x1="12.4034" y1="6.00033" x2="4.39853" y2="3.46663" gradientUnits="userSpaceOnUse">
<stop stop-color="#FE7970"/>
<stop offset="1" stop-color="#DC3282"/>
</linearGradient>
<clipPath id="clip0_448_299">
<rect width="16" height="16" fill="white"/>
</clipPath>
</defs>
</svg>
