<svg width="16" height="16" viewBox="0 0 16 16" fill="none" xmlns="http://www.w3.org/2000/svg">
<path d="M8 1C4.14586 1 1 4.14566 1 8C1 11.8541 4.14566 15 8 15C11.8541 15 15 11.8544 15 8C15 4.14586 11.8544 1 8 1ZM8 14.1797C4.59251 14.1797 1.82031 11.4075 1.82031 8C1.82031 4.59251 4.59251 1.82031 8 1.82031C11.4075 1.82031 14.1797 4.59251 14.1797 8C14.1797 11.4075 11.4075 14.1797 8 14.1797Z" fill="url(#paint0_linear_448_258)"/>
<path opacity="0.4" d="M2.66797 8C2.66797 5.05991 5.05991 2.66797 8 2.66797C10.9401 2.66797 13.3321 5.05991 13.3321 8C13.3321 10.9401 10.9401 13.3321 8 13.3321C5.05991 13.3321 2.66797 10.9401 2.66797 8Z" fill="url(#paint1_linear_448_258)"/>
<path d="M7.17969 7.58984H8.82031C9.04683 7.58984 9.23047 7.77348 9.23047 8V11.2812C9.23047 11.5078 9.04683 11.6914 8.82031 11.6914H7.17969C6.95317 11.6914 6.76953 11.5078 6.76953 11.2812V8C6.76953 7.77348 6.95317 7.58984 7.17969 7.58984Z" fill="url(#paint2_linear_448_258)"/>
<path d="M6.76953 5.53906C6.76953 4.86059 7.32153 4.30859 8 4.30859C8.67848 4.30859 9.23047 4.86059 9.23047 5.53906C9.23047 6.21754 8.67848 6.76953 8 6.76953C7.32153 6.76953 6.76953 6.21754 6.76953 5.53906Z" fill="url(#paint3_linear_448_258)"/>
<defs>
<linearGradient id="paint0_linear_448_258" x1="8" y1="15" x2="8" y2="1" gradientUnits="userSpaceOnUse">
<stop stop-color="#FD3A84"/>
<stop offset="1" stop-color="#FFA68D"/>
</linearGradient>
<linearGradient id="paint1_linear_448_258" x1="8" y1="15" x2="8" y2="0.999999" gradientUnits="userSpaceOnUse">
<stop stop-color="#FD3A84"/>
<stop offset="1" stop-color="#FFA68D"/>
</linearGradient>
<linearGradient id="paint2_linear_448_258" x1="8" y1="15" x2="8" y2="1" gradientUnits="userSpaceOnUse">
<stop stop-color="#FD3A84"/>
<stop offset="1" stop-color="#FFA68D"/>
</linearGradient>
<linearGradient id="paint3_linear_448_258" x1="8" y1="15" x2="8" y2="1" gradientUnits="userSpaceOnUse">
<stop stop-color="#FD3A84"/>
<stop offset="1" stop-color="#FFA68D"/>
</linearGradient>
</defs>
</svg>
