<svg width="16" height="16" viewBox="0 0 16 16" fill="none" xmlns="http://www.w3.org/2000/svg">
<g clip-path="url(#clip0_448_316)">
<path opacity="0.5" d="M4.2986 4.18829C4.41084 4.08588 4.47833 3.94345 4.4865 3.79173C4.49468 3.64 4.44288 3.49115 4.34228 3.37728C4.24168 3.26341 4.10034 3.19365 3.94877 3.18305C3.7972 3.17246 3.64753 3.22187 3.53207 3.32064C2.81269 3.95383 2.23664 4.73318 1.84236 5.60666C1.44808 6.48015 1.24464 7.42768 1.24561 8.38602C1.24561 8.53962 1.30661 8.68682 1.41518 8.79542C1.52376 8.90402 1.67101 8.96502 1.82456 8.96502C1.9781 8.96502 2.12536 8.90402 2.23394 8.79542C2.34251 8.68682 2.40351 8.53962 2.40351 8.38602C2.4025 7.59182 2.57104 6.80648 2.89784 6.08256C3.22465 5.35866 3.70221 4.71285 4.2986 4.18829ZM12.4679 3.32064C12.3525 3.22187 12.2028 3.17246 12.0512 3.18305C11.8997 3.19365 11.7583 3.26341 11.6577 3.37728C11.5571 3.49115 11.5053 3.64 11.5135 3.79173C11.5217 3.94345 11.5891 4.08588 11.7014 4.18829C12.2978 4.71285 12.7753 5.35866 13.1021 6.08256C13.4289 6.80648 13.5975 7.59182 13.5965 8.38602C13.5965 8.53962 13.6575 8.68682 13.7661 8.79542C13.8746 8.90402 14.0219 8.96502 14.1754 8.96502C14.329 8.96502 14.4763 8.90402 14.5848 8.79542C14.6934 8.68682 14.7544 8.53962 14.7544 8.38602C14.7553 7.42768 14.5519 6.48015 14.1577 5.60666C13.7633 4.73318 13.1873 3.95383 12.4679 3.32064ZM6.60049 13.8066C6.5261 13.7851 6.44817 13.7788 6.3713 13.788C6.29444 13.7972 6.2202 13.8218 6.15299 13.8602C6.08577 13.8986 6.02694 13.9501 5.97997 14.0116C5.933 14.0732 5.89886 14.1435 5.87954 14.2184C5.86024 14.2934 5.85616 14.3715 5.86755 14.4481C5.87894 14.5246 5.90558 14.5982 5.94588 14.6642C5.98618 14.7304 6.03932 14.7877 6.10218 14.8329C6.16502 14.8781 6.2363 14.9102 6.31179 14.9274C7.4192 15.2124 8.5808 15.2124 9.6882 14.9274C9.76367 14.9102 9.835 14.8781 9.8978 14.8329C9.96067 14.7877 10.0138 14.7304 10.0541 14.6642C10.0944 14.5982 10.1211 14.5246 10.1325 14.4481C10.1439 14.3715 10.1397 14.2934 10.1205 14.2184C10.1011 14.1435 10.067 14.0732 10.02 14.0116C9.97307 13.9501 9.9142 13.8986 9.847 13.8602C9.7798 13.8218 9.70554 13.7972 9.62867 13.788C9.5518 13.7788 9.47387 13.7851 9.39954 13.8066C8.94227 13.9239 8.47207 13.983 8 13.9826C7.528 13.9826 7.0578 13.9235 6.60049 13.8066Z" fill="url(#paint0_linear_448_316)"/>
<path d="M5.68417 2.98278C5.68417 3.59697 5.92815 4.186 6.36245 4.62029C6.79676 5.05459 7.38576 5.29857 7.99996 5.29857C8.61416 5.29857 9.20316 5.05459 9.63749 4.62029C10.0718 4.186 10.3158 3.59697 10.3158 2.98278C10.3158 2.3686 10.0718 1.77957 9.63749 1.34527C9.20316 0.910979 8.61416 0.666992 7.99996 0.666992C7.38576 0.666992 6.79676 0.910979 6.36245 1.34527C5.92815 1.77957 5.68417 2.3686 5.68417 2.98278ZM0.666626 12.2459C0.666626 12.5501 0.726526 12.8512 0.842906 13.1321C0.959286 13.4131 1.12987 13.6684 1.34491 13.8835C1.55995 14.0985 1.81524 14.2691 2.0962 14.3855C2.37717 14.5019 2.6783 14.5617 2.98241 14.5617C3.28653 14.5617 3.58767 14.5019 3.86863 14.3855C4.14959 14.2691 4.40489 14.0985 4.61993 13.8835C4.83497 13.6684 5.00555 13.4131 5.12193 13.1321C5.23831 12.8512 5.29821 12.5501 5.29821 12.2459C5.29821 11.6317 5.05422 11.0427 4.61993 10.6085C4.18563 10.1741 3.5966 9.93013 2.98241 9.93013C2.36823 9.93013 1.7792 10.1741 1.34491 10.6085C0.910613 11.0427 0.666626 11.6317 0.666626 12.2459ZM13.0175 14.5617C12.4033 14.5617 11.8143 14.3177 11.38 13.8835C10.9457 13.4491 10.7017 12.8601 10.7017 12.2459C10.7017 11.6317 10.9457 11.0427 11.38 10.6085C11.8143 10.1741 12.4033 9.93013 13.0175 9.93013C13.6317 9.93013 14.2207 10.1741 14.655 10.6085C15.0893 11.0427 15.3333 11.6317 15.3333 12.2459C15.3333 12.8601 15.0893 13.4491 14.655 13.8835C14.2207 14.3177 13.6317 14.5617 13.0175 14.5617Z" fill="url(#paint1_linear_448_316)"/>
</g>
<defs>
<linearGradient id="paint0_linear_448_316" x1="8" y1="15.1412" x2="8" y2="3.18164" gradientUnits="userSpaceOnUse">
<stop stop-color="#5570FF"/>
<stop offset="1" stop-color="#4DD3FF"/>
</linearGradient>
<linearGradient id="paint1_linear_448_316" x1="7.99996" y1="14.5617" x2="7.99996" y2="0.666992" gradientUnits="userSpaceOnUse">
<stop stop-color="#5570FF"/>
<stop offset="1" stop-color="#4DD3FF"/>
</linearGradient>
<clipPath id="clip0_448_316">
<rect width="16" height="16" fill="white"/>
</clipPath>
</defs>
</svg>
