<svg width="16" height="16" viewBox="0 0 16 16" fill="none" xmlns="http://www.w3.org/2000/svg">
<path opacity="0.4" d="M15.25 5.78125V11.2188C15.249 12.0997 14.8986 12.9444 14.2757 13.5674C13.6527 14.1903 12.8081 14.5407 11.9271 14.5417H4.07293C3.19193 14.5407 2.34728 14.1903 1.72432 13.5674C1.10136 12.9444 0.75096 12.0997 0.75 11.2188V4.57293C0.75096 3.69193 1.10136 2.84728 1.72432 2.22432C2.34728 1.60136 3.19193 1.25096 4.07293 1.25H5.58332C5.72405 1.24992 5.86285 1.2826 5.98873 1.34546L8.0027 2.35271C8.14157 2.42217 8.29472 2.45833 8.45 2.45833H11.9271C12.8081 2.45929 13.6527 2.8097 14.2757 3.43265C14.8986 4.05563 15.249 4.90025 15.25 5.78125Z" fill="url(#paint0_linear_448_161)"/>
<path d="M11.1583 9.57498C11.3771 9.35615 11.5 9.05942 11.5 8.75C11.5 8.44058 11.3771 8.14385 11.1583 7.92502C10.9395 7.70625 10.6428 7.58332 10.3333 7.58332H9.4885C9.31075 7.58332 9.16667 7.43925 9.16667 7.2615V6.41668C9.16667 6.10725 9.04375 5.81053 8.82498 5.5917C8.60615 5.3729 8.30942 5.25 8 5.25C7.69058 5.25 7.39385 5.3729 7.17502 5.5917C6.95625 5.81053 6.83332 6.10725 6.83332 6.41668V7.2615C6.83332 7.43925 6.68925 7.58332 6.5115 7.58332H5.66668C5.35725 7.58332 5.06053 7.70625 4.8417 7.92502C4.6229 8.14385 4.5 8.44058 4.5 8.75C4.5 9.05942 4.6229 9.35615 4.8417 9.57498C5.06053 9.79375 5.35725 9.91667 5.66668 9.91667H6.5115C6.68925 9.91667 6.83332 10.0607 6.83332 10.2385V11.0833C6.83332 11.3928 6.95625 11.6895 7.17502 11.9083C7.39385 12.1271 7.69058 12.25 8 12.25C8.30942 12.25 8.60615 12.1271 8.82498 11.9083C9.04375 11.6895 9.16667 11.3928 9.16667 11.0833V10.2385C9.16667 10.0607 9.31075 9.91667 9.4885 9.91667H10.3333C10.6428 9.91667 10.9395 9.79375 11.1583 9.57498Z" fill="url(#paint1_linear_448_161)"/>
<defs>
<linearGradient id="paint0_linear_448_161" x1="8" y1="14.5417" x2="8" y2="1.25" gradientUnits="userSpaceOnUse">
<stop stop-color="#00B59C"/>
<stop offset="1" stop-color="#9CFFAC"/>
</linearGradient>
<linearGradient id="paint1_linear_448_161" x1="8" y1="12.25" x2="8" y2="5.25" gradientUnits="userSpaceOnUse">
<stop stop-color="#02AA93"/>
<stop offset="1" stop-color="#67FF80"/>
</linearGradient>
</defs>
</svg>
