<svg width="16" height="16" viewBox="0 0 16 16" fill="none" xmlns="http://www.w3.org/2000/svg">
<g clip-path="url(#clip0_448_295)">
<path d="M11.7555 1.31159C11.1109 0.666992 10.0739 0.666992 8.00005 0.666992C5.92546 0.666992 4.88853 0.666992 4.24393 1.31159C4.02398 1.53155 3.87925 1.79756 3.78382 2.13505C3.67472 2.52086 4.0083 2.86953 4.40924 2.86782C4.60352 2.86699 4.80554 2.86699 5.0154 2.86699H10.9862C11.1957 2.86699 11.3975 2.86699 11.5917 2.86782C11.9923 2.86953 12.3258 2.52127 12.2166 2.13575C12.1209 1.79793 11.9756 1.5317 11.7555 1.31159ZM11.7334 10.567C12.1016 10.567 12.4007 10.866 12.3992 11.2341C12.3921 12.9439 12.3284 14.1168 11.7555 14.6891C11.1116 15.3337 10.0739 15.3337 8.00005 15.3337C5.9262 15.3337 4.88853 15.3337 4.24466 14.6891C3.67178 14.1168 3.60804 12.9439 3.60096 11.2341C3.59943 10.866 3.89854 10.567 4.26673 10.567H11.7334Z" fill="url(#paint0_linear_448_295)"/>
<path opacity="0.5" d="M10.9333 3.59961H5.06663C2.99276 3.59961 1.95509 3.59961 1.31123 4.24421C0.666626 4.88808 0.666626 5.92574 0.666626 7.9996C0.666626 10.0735 0.666626 11.1111 1.31123 11.755C1.53154 11.9758 1.79797 12.1209 2.1364 12.2163C2.52489 12.3259 2.87429 11.9872 2.87007 11.5835C2.86759 11.3467 2.86689 11.1016 2.8667 10.8543C2.86658 10.6952 2.71981 10.5713 2.60735 10.4589C2.53859 10.3901 2.49996 10.2969 2.49996 10.1996C2.49996 10.1024 2.53859 10.0091 2.60735 9.94033C2.67612 9.8716 2.76938 9.83293 2.86663 9.83293H13.1333C13.2306 9.83293 13.3238 9.8716 13.3926 9.94033C13.4614 10.0091 13.5 10.1024 13.5 10.1996C13.5 10.2969 13.4614 10.3901 13.3926 10.4589C13.2801 10.5713 13.1334 10.6952 13.1332 10.8543C13.133 11.1016 13.1324 11.3467 13.1298 11.5835C13.1256 11.9871 13.4751 12.3259 13.8636 12.2163C14.202 12.1208 14.4688 11.9757 14.6894 11.755C15.3333 11.1111 15.3333 10.0735 15.3333 7.9996C15.3333 5.92574 15.3333 4.88808 14.6887 4.24421C14.0448 3.59961 13.0072 3.59961 10.9333 3.59961Z" fill="url(#paint1_linear_448_295)"/>
<path d="M5.79993 7.08313C5.94579 7.08313 6.08569 7.0252 6.18883 6.92206C6.29198 6.81893 6.34993 6.679 6.34993 6.53314C6.34993 6.38727 6.29198 6.24738 6.18883 6.14423C6.08569 6.04108 5.94579 5.98314 5.79993 5.98314H3.59993C3.45406 5.98314 3.31417 6.04108 3.21102 6.14423C3.10787 6.24738 3.04993 6.38727 3.04993 6.53314C3.04993 6.679 3.10787 6.81893 3.21102 6.92206C3.31417 7.0252 3.45406 7.08313 3.59993 7.08313H5.79993ZM12.4 6.53314C12.4 6.72766 12.3227 6.91413 12.1852 7.05166C12.0476 7.1892 11.8611 7.26646 11.6666 7.26646C11.4721 7.26646 11.2856 7.1892 11.148 7.05166C11.0105 6.91413 10.9333 6.72766 10.9333 6.53314C10.9333 6.33864 11.0105 6.15212 11.148 6.01459C11.2856 5.87706 11.4721 5.7998 11.6666 5.7998C11.8611 5.7998 12.0476 5.87706 12.1852 6.01459C12.3227 6.15212 12.4 6.33864 12.4 6.53314Z" fill="url(#paint2_linear_448_295)"/>
</g>
<defs>
<linearGradient id="paint0_linear_448_295" x1="8.00005" y1="15.3337" x2="8.00005" y2="0.666992" gradientUnits="userSpaceOnUse">
<stop stop-color="#5570FF"/>
<stop offset="1" stop-color="#4DD3FF"/>
</linearGradient>
<linearGradient id="paint1_linear_448_295" x1="7.99996" y1="12.3461" x2="7.99996" y2="3.59961" gradientUnits="userSpaceOnUse">
<stop stop-color="#5570FF"/>
<stop offset="1" stop-color="#4DD3FF"/>
</linearGradient>
<linearGradient id="paint2_linear_448_295" x1="7.72496" y1="7.26646" x2="7.72496" y2="5.7998" gradientUnits="userSpaceOnUse">
<stop stop-color="#5570FF"/>
<stop offset="1" stop-color="#4DD3FF"/>
</linearGradient>
<clipPath id="clip0_448_295">
<rect width="16" height="16" fill="white"/>
</clipPath>
</defs>
</svg>
