<svg width="16" height="16" viewBox="0 0 16 16" fill="none" xmlns="http://www.w3.org/2000/svg">
<path d="M5.01474 2.81786C6.29506 2.30559 7.05902 2 7.99968 2C8.94102 2 9.70428 2.30559 10.9846 2.81786L13.0105 3.62821C13.6612 3.88878 14.1885 4.09887 14.5507 4.28918C14.7336 4.38468 14.9109 4.49381 15.0479 4.62547C15.1885 4.76052 15.3324 4.96516 15.3324 5.24005C15.3324 5.51495 15.1891 5.71958 15.0479 5.85464C14.9115 5.98629 14.7342 6.09474 14.55 6.19092C14.1885 6.38055 13.6612 6.59132 13.0098 6.8526L10.984 7.66227C9.70495 8.17453 8.94102 8.48013 7.99968 8.48013C7.05835 8.48013 6.29506 8.17453 5.01474 7.66227L2.98953 6.85187C2.33811 6.59132 1.81084 6.38123 1.44863 6.19092C1.26822 6.10219 1.1009 5.98903 0.951371 5.85464C0.810858 5.71958 0.666931 5.51495 0.666931 5.24005C0.666931 4.96516 0.810171 4.76052 0.951371 4.62547C1.08779 4.49381 1.26514 4.38536 1.44932 4.28918C1.81084 4.09955 2.33811 3.88878 2.98953 3.62753L5.01474 2.81786Z" fill="url(#paint0_linear_448_368)"/>
<path opacity="0.7" d="M1.52094 7.58899L1.51958 7.58693C1.46946 7.54219 1.41101 7.50766 1.34757 7.48546C1.28413 7.46326 1.21693 7.45379 1.14982 7.45759C1.08271 7.46132 1.017 7.47826 0.956446 7.50746C0.895886 7.53659 0.841666 7.57739 0.796873 7.62752C0.752086 7.67766 0.717606 7.73613 0.695406 7.79953C0.673206 7.86299 0.663723 7.93019 0.667493 7.99733C0.6751 8.13286 0.73624 8.25979 0.83746 8.35026L0.838826 8.35159L0.842233 8.35433L0.851786 8.36252C0.858606 8.36932 0.86952 8.37819 0.88248 8.38913C1.0508 8.52506 1.22611 8.65213 1.40771 8.76973C1.77196 9.00573 2.30879 9.30859 3.02023 9.59306L4.93629 10.3597L5.01474 10.3911C6.29507 10.9034 7.05902 11.209 7.99969 11.209C8.94102 11.209 9.70429 10.9034 10.984 10.3911L11.0631 10.3597L12.9792 9.59239C13.5418 9.37066 14.0816 9.09492 14.591 8.76906C14.7728 8.65146 14.9484 8.52439 15.1169 8.38846L15.1476 8.36186L15.1572 8.35366L15.1606 8.35092L15.1612 8.34952H15.1626C15.2638 8.25912 15.325 8.13213 15.3326 7.99659C15.3402 7.86106 15.2936 7.72806 15.2032 7.62686C15.1127 7.52566 14.9858 7.46453 14.8502 7.45686C14.7147 7.44926 14.5817 7.49579 14.4805 7.58626L14.4791 7.58766L14.4778 7.58833L14.4614 7.60266L14.3809 7.66679C14.2688 7.75266 14.1532 7.83386 14.0344 7.91026C13.7206 8.11426 13.2424 8.38573 12.5985 8.64286L10.6832 9.40886C9.30182 9.96139 8.72275 10.1851 7.99969 10.1851C7.27662 10.1851 6.69682 9.96139 5.31623 9.40886L3.40017 8.64426C2.89925 8.44693 2.41862 8.20159 1.965 7.91166C1.81161 7.81226 1.66361 7.70479 1.52163 7.58966L1.52094 7.58899Z" fill="url(#paint1_linear_448_368)"/>
<path opacity="0.4" d="M1.51889 10.3562C1.41762 10.2667 1.28504 10.2209 1.1501 10.2288C1.01517 10.2367 0.888849 10.2977 0.798736 10.3984C0.708622 10.4992 0.662045 10.6315 0.669169 10.7664C0.676295 10.9014 0.736555 11.0281 0.836776 11.1188H0.837456L0.838822 11.1202L0.842229 11.1229L0.851782 11.1311C0.858602 11.1379 0.869516 11.1468 0.882476 11.1577L0.992296 11.2464C1.08779 11.3194 1.22626 11.4203 1.40839 11.5383C1.77196 11.7743 2.30878 12.0772 3.02023 12.3616L4.93629 13.1283L5.01474 13.1597C6.29506 13.672 7.059 13.9782 7.99967 13.9782C8.941 13.9782 9.70427 13.672 10.9839 13.1597L11.0631 13.1283L12.9791 12.3616C13.5417 12.1397 14.0815 11.8637 14.5909 11.5376C14.7728 11.42 14.9483 11.293 15.1169 11.157C15.1272 11.1482 15.1374 11.1394 15.1475 11.1304L15.1571 11.1222L15.1605 11.1195L15.1612 11.1188L15.1626 11.1174C15.2628 11.0268 15.3231 10.9001 15.3302 10.7651C15.3373 10.6301 15.2907 10.4978 15.2006 10.397C15.1105 10.2963 14.9842 10.2353 14.8493 10.2274C14.7143 10.2195 14.5817 10.2653 14.4805 10.3548L14.4791 10.3562L14.4777 10.3569L14.4613 10.3712L14.3809 10.4353C14.2687 10.5212 14.1531 10.6024 14.0343 10.6788C13.7206 10.8828 13.2424 11.1543 12.5985 11.4114L10.6831 12.1774C9.3018 12.73 8.72274 12.9537 7.99967 12.9537C7.2766 12.9537 6.6968 12.73 5.31623 12.1774L3.40016 11.4114C2.89928 11.2144 2.41866 10.9692 1.965 10.6795C1.8175 10.5841 1.67498 10.4812 1.53799 10.3712L1.52094 10.3576L1.51889 10.3548V10.3562Z" fill="url(#paint2_linear_448_368)"/>
<defs>
<linearGradient id="paint0_linear_448_368" x1="1.18092" y1="5.24005" x2="13.684" y2="2.07148" gradientUnits="userSpaceOnUse">
<stop stop-color="#8D01A2"/>
<stop offset="1" stop-color="#FF00D2"/>
</linearGradient>
<linearGradient id="paint1_linear_448_368" x1="1.18072" y1="9.33253" x2="12.349" y2="4.44508" gradientUnits="userSpaceOnUse">
<stop stop-color="#8D01A2"/>
<stop offset="1" stop-color="#FF00D2"/>
</linearGradient>
<linearGradient id="paint2_linear_448_368" x1="1.18234" y1="12.1024" x2="12.3473" y2="7.21624" gradientUnits="userSpaceOnUse">
<stop stop-color="#8D01A2"/>
<stop offset="1" stop-color="#FF00D2"/>
</linearGradient>
</defs>
</svg>
