<svg width="16" height="16" viewBox="0 0 16 16" fill="none" xmlns="http://www.w3.org/2000/svg">
<path opacity="0.5" d="M2.3204 1.8204C1.5 2.6401 1.5 3.9603 1.5 6.6V9.4C1.5 12.0397 1.5 13.3599 2.3204 14.1796C3.1401 15 4.4603 15 7.1 15H8.5C11.1397 15 12.4599 15 13.2796 14.1796C14.1 13.3599 14.1 12.0397 14.1 9.4V6.6C14.1 3.9603 14.1 2.6401 13.2796 1.8204C12.4599 1 11.1397 1 8.5 1H7.8L6.05 1.0021C4.0942 1.0161 3.0232 1.1169 2.3204 1.8204Z" fill="url(#paint0_linear_448_401)"/>
<path d="M9.25925 5.8889H8.03705V6.7037C8.03705 7.0875 8.03705 7.2798 8.156 7.39955C8.2758 7.5185 8.46805 7.5185 8.85185 7.5185H9.25925C9.64305 7.5185 9.83535 7.5185 9.9551 7.39955C10.0741 7.2798 10.074 7.0875 10.074 6.7037C10.074 6.31995 10.0741 6.12765 9.9551 6.00785C9.83535 5.8889 9.6422 5.8889 9.25925 5.8889ZM6.11895 4.37822C6 4.498 6 4.69111 6 5.07405C6 5.45705 6 5.65015 6.11895 5.76995C6.23875 5.8889 6.43185 5.8889 6.8148 5.8889H8.03705V4.25926H6.8148C6.43105 4.25926 6.23875 4.25926 6.11895 4.37822ZM9.25925 2.62963H8.03705V4.25926H9.25925C9.64305 4.25926 9.83535 4.25926 9.9551 4.1403C10.0741 4.02052 10.074 3.82822 10.074 3.44444C10.074 3.06066 10.0741 2.86837 9.9551 2.74859C9.83535 2.62963 9.6422 2.62963 9.25925 2.62963ZM8.03705 2.62963V1L6 1.00244V1.81482C6 2.1986 6 2.39089 6.11895 2.51066C6.23875 2.62963 6.43185 2.62963 6.8148 2.62963H8.03705ZM6 9.96295V9.8611C6 9.46755 6.3194 9.14815 6.71295 9.14815H9.3611C9.75465 9.14815 10.074 9.46755 10.074 9.8611V9.96295C10.074 10.5032 9.85945 11.0213 9.47745 11.4033C9.0954 11.7854 8.5773 12 8.03705 12C7.4968 12 6.97865 11.7854 6.59665 11.4033C6.2146 11.0213 6 10.5032 6 9.96295Z" fill="url(#paint1_linear_448_401)"/>
<defs>
<linearGradient id="paint0_linear_448_401" x1="7.8" y1="1" x2="7.8" y2="15" gradientUnits="userSpaceOnUse">
<stop stop-color="#DC18FC"/>
<stop offset="1" stop-color="#8E1EFF"/>
</linearGradient>
<linearGradient id="paint1_linear_448_401" x1="8.03705" y1="1" x2="8.03705" y2="12" gradientUnits="userSpaceOnUse">
<stop stop-color="#DC18FC"/>
<stop offset="1" stop-color="#8E1EFF"/>
</linearGradient>
</defs>
</svg>
