<svg width="16" height="16" viewBox="0 0 16 16" fill="none" xmlns="http://www.w3.org/2000/svg">
<g clip-path="url(#clip0_448_382)">
<path opacity="0.4" d="M11.5819 2.95121H9.42361C8.88595 2.95477 8.37548 2.7156 8.03475 2.3005L7.32401 1.31792C6.98901 0.899174 6.47857 0.658887 5.9417 0.667201H4.41593C1.67735 0.667201 0.666688 2.27447 0.666688 5.00747V7.96173C0.663281 8.28659 15.3301 8.28619 15.3311 7.96173V7.10279C15.3441 4.36977 14.3595 2.95121 11.5819 2.95121Z" fill="url(#paint0_linear_448_382)"/>
<path fill-rule="evenodd" clip-rule="evenodd" d="M14.4769 3.99851C14.7116 4.27284 14.8928 4.5884 15.0116 4.92903C15.2452 5.62913 15.3534 6.36485 15.3311 7.10243V10.9546C15.3302 11.2792 15.3062 11.6032 15.2594 11.9242C15.1702 12.4909 14.9709 13.0347 14.6726 13.525C14.5354 13.7618 14.3689 13.9804 14.177 14.1757C13.3081 14.9732 12.1544 15.3882 10.9755 15.3275H5.0158C3.83505 15.3878 2.67941 14.9729 1.80776 14.1757C1.61811 13.9801 1.45382 13.7614 1.31873 13.525C1.02217 13.035 0.827061 12.4907 0.744934 11.9242C0.692714 11.6037 0.666546 11.2794 0.666688 10.9546V7.10243C0.66656 6.78069 0.683974 6.4592 0.718854 6.13937C0.726188 6.08325 0.737188 6.02805 0.748074 5.97342C0.766221 5.88235 0.784054 5.79287 0.784054 5.70339C0.850248 5.31741 0.970988 4.94277 1.14268 4.59066C1.65127 3.50397 2.69453 2.95086 4.40288 2.95086H11.5754C12.5322 2.87686 13.4819 3.16491 14.2357 3.75775C14.3225 3.83136 14.4032 3.91188 14.4769 3.99851ZM4.3116 10.5968H11.6927H11.7058C11.8677 10.6038 12.0258 10.5458 12.1446 10.4358C12.2634 10.3258 12.3332 10.1728 12.3382 10.0111C12.3474 9.86896 12.3006 9.72889 12.2078 9.62069C12.1011 9.47523 11.932 9.38843 11.7514 9.38643H4.3116C3.9767 9.38643 3.70521 9.65736 3.70521 9.99156C3.70521 10.3258 3.9767 10.5968 4.3116 10.5968Z" fill="url(#paint1_linear_448_382)"/>
</g>
<defs>
<linearGradient id="paint0_linear_448_382" x1="7.99901" y1="8.20526" x2="7.99901" y2="0.666994" gradientUnits="userSpaceOnUse">
<stop stop-color="#A93AFF"/>
<stop offset="1" stop-color="#FF81FF"/>
</linearGradient>
<linearGradient id="paint1_linear_448_382" x1="8.00029" y1="15.3333" x2="8.00029" y2="2.93945" gradientUnits="userSpaceOnUse">
<stop stop-color="#A93AFF"/>
<stop offset="1" stop-color="#FF81FF"/>
</linearGradient>
<clipPath id="clip0_448_382">
<rect width="16" height="16" fill="white"/>
</clipPath>
</defs>
</svg>
