<svg width="16" height="16" viewBox="0 0 16 16" fill="none" xmlns="http://www.w3.org/2000/svg">
<path opacity="0.4" d="M12.6667 1H3.33333C2.04467 1 1 2.04467 1 3.33333V12.6667C1 13.9553 2.04467 15 3.33333 15H12.6667C13.9553 15 15 13.9553 15 12.6667V3.33333C15 2.04467 13.9553 1 12.6667 1Z" fill="url(#paint0_linear_448_376)"/>
<path d="M5.9 5.99959C5.9 4.42132 7.2402 3.7002 8.4 3.7002C9.93087 3.7002 10.7389 4.5651 10.9459 5.50347C11.0054 5.77312 10.7762 5.99953 10.5 5.99955L10.3 5.99956C10.0239 5.99958 9.80882 5.76742 9.70349 5.51214C9.49913 5.01687 8.99256 4.66626 8.4 4.66626C7.6268 4.66626 7 5.26322 7 5.99959V7.71388C7 7.87167 7.13058 7.99959 7.29167 7.99959H9.10833H10.3917H11.2083C11.3694 7.99959 11.5 8.12751 11.5 8.28531V11.7139C11.5 11.8716 11.3694 11.9996 11.2083 11.9996H4.79167C4.63058 11.9996 4.5 11.8716 4.5 11.7139V8.28531C4.5 8.12751 4.63058 7.99959 4.79167 7.99959H5.60833C5.76942 7.99959 5.9 7.87167 5.9 7.71388V5.99959Z" fill="url(#paint1_linear_448_376)"/>
<defs>
<linearGradient id="paint0_linear_448_376" x1="7.99999" y1="15" x2="7.99999" y2="0.999999" gradientUnits="userSpaceOnUse">
<stop stop-color="#02AA93"/>
<stop offset="1" stop-color="#67FF80"/>
</linearGradient>
<linearGradient id="paint1_linear_448_376" x1="7.99999" y1="11.9996" x2="7.99999" y2="3.7002" gradientUnits="userSpaceOnUse">
<stop stop-color="#02AA93"/>
<stop offset="1" stop-color="#67FF80"/>
</linearGradient>
</defs>
</svg>
