<svg width="16" height="16" viewBox="0 0 16 16" fill="none" xmlns="http://www.w3.org/2000/svg">
<g clip-path="url(#clip0_448_291)">
<path d="M15.3332 9.98219V10.9968C15.3332 11.1651 15.3259 11.335 15.3112 11.5033C15.1054 13.82 13.4962 15.3338 11.1742 15.3338H4.82556C3.64987 15.3338 2.65789 14.9522 1.94513 14.2604C1.6659 14.0038 1.43077 13.7024 1.24707 13.3568C1.48955 13.062 1.76143 12.7393 2.02596 12.4157C2.47419 11.8791 2.90772 11.3489 3.1796 11.0041C3.58374 10.5042 4.6492 9.18819 6.12616 9.80572C6.42743 9.93072 6.69196 10.1072 6.93442 10.2616C7.52962 10.6586 7.77949 10.7762 8.19829 10.5483C8.66122 10.2983 8.96249 9.80572 9.27849 9.29112C9.44749 9.01832 9.61649 8.75439 9.80016 8.51179C10.6011 7.46779 11.8356 7.18839 12.8643 7.80599C13.3787 8.11472 13.8196 8.50439 14.231 8.90072C14.3192 8.98892 14.4074 9.07052 14.4882 9.15139C14.5984 9.26165 14.9658 9.62925 15.3332 9.98219Z" fill="url(#paint0_linear_448_291)"/>
<path opacity="0.4" d="M11.1816 0.666992H4.82561C2.33463 0.666992 0.666626 2.40945 0.666626 5.00401V10.9967C0.666626 11.9003 0.872373 12.7024 1.24712 13.3567C1.48961 13.0619 1.76148 12.7392 2.02601 12.4149C2.47424 11.879 2.90777 11.3489 3.17965 11.0041C3.58379 10.5041 4.64926 9.18813 6.12621 9.80566C6.42748 9.93066 6.69203 10.1071 6.93449 10.2615C7.52969 10.6585 7.77949 10.7761 8.19836 10.5475C8.66129 10.2983 8.96256 9.80566 9.27849 9.29026C9.44749 9.01826 9.61656 8.75433 9.80023 8.51173C10.6012 7.46773 11.8356 7.18832 12.8644 7.80592C13.3787 8.11466 13.8196 8.50433 14.2311 8.90066C14.3193 8.98886 14.4074 9.07046 14.4883 9.15132C14.5985 9.26086 14.9659 9.62846 15.3333 9.98213V5.00401C15.3333 2.40945 13.6653 0.666992 11.1816 0.666992Z" fill="url(#paint1_linear_448_291)"/>
<path d="M7.59993 5.65098C7.59993 6.68397 6.73947 7.54417 5.70706 7.54417C4.67539 7.54417 3.81494 6.68397 3.81494 5.65098C3.81494 4.61875 4.67539 3.75781 5.70706 3.75781C6.73947 3.75781 7.59993 4.61875 7.59993 5.65098Z" fill="url(#paint2_linear_448_291)"/>
</g>
<defs>
<linearGradient id="paint0_linear_448_291" x1="1.04346" y1="7.55872" x2="7.82162" y2="20.0899" gradientUnits="userSpaceOnUse">
<stop stop-color="#F9D423"/>
<stop offset="0.515624" stop-color="#FF4E50"/>
<stop offset="0.991304" stop-color="#8A2387"/>
</linearGradient>
<linearGradient id="paint1_linear_448_291" x1="0.45463" y1="0.791859" x2="13.3449" y2="16.1461" gradientUnits="userSpaceOnUse">
<stop stop-color="#F9D423"/>
<stop offset="0.515624" stop-color="#FF4E50"/>
<stop offset="0.991304" stop-color="#8A2387"/>
</linearGradient>
<linearGradient id="paint2_linear_448_291" x1="3.76023" y1="3.79507" x2="7.66367" y2="7.8165" gradientUnits="userSpaceOnUse">
<stop stop-color="#F9D423"/>
<stop offset="0.515624" stop-color="#FF4E50"/>
<stop offset="0.991304" stop-color="#8A2387"/>
</linearGradient>
<clipPath id="clip0_448_291">
<rect width="16" height="16" fill="white"/>
</clipPath>
</defs>
</svg>
