<svg width="16" height="16" viewBox="0 0 16 16" fill="none" xmlns="http://www.w3.org/2000/svg">
<g clip-path="url(#clip0_448_358)">
<path opacity="0.4" d="M2.43912 0.834875C2.66824 0.771271 2.90661 0.75007 3.14313 0.75007C6.43589 0.752836 9.72867 0.747305 13.0214 0.751914C14.2188 0.737165 15.2998 1.79077 15.2979 2.9891C15.3025 6.21444 15.297 9.43975 15.3007 12.6651C15.3072 13.0375 15.2998 13.421 15.1593 13.7731C14.8443 14.6479 13.9555 15.2748 13.0233 15.2757C9.66858 15.2766 6.31393 15.2812 2.96019 15.2728C1.78592 15.2498 0.752079 14.2091 0.752079 13.0357C0.749307 9.685 0.749307 6.33519 0.752079 2.98449C0.758546 1.99909 1.4875 1.08376 2.43912 0.834875Z" fill="url(#paint0_linear_448_358)"/>
<path fill-rule="evenodd" clip-rule="evenodd" d="M8.33725 4.30876C8.984 3.63749 9.98042 3.30661 10.9172 3.44997C11.7402 3.56819 12.4957 4.04651 12.9444 4.72253C13.41 5.40875 13.5406 6.2954 13.2948 7.08149C12.9957 8.10334 12.0477 8.90232 10.9698 9.07899C10.915 9.08907 10.8578 9.09241 10.8003 9.09582C10.6718 9.10349 10.5426 9.11116 10.4397 9.19382C10.1636 9.38682 9.886 9.57799 9.60833 9.76916L9.60825 9.76924C9.2595 10.0094 8.91075 10.2496 8.56475 10.4936C8.52892 11.0242 8.3 11.5412 7.91733 11.9231C7.38363 12.4707 6.55152 12.7268 5.79033 12.5665C5.0509 12.4279 4.40417 11.9136 4.12118 11.2382C4.10738 11.2145 4.09624 11.1876 4.085 11.1605C4.05508 11.0882 4.02443 11.0142 3.94071 10.9929C3.43983 10.7932 2.93867 10.5941 2.43758 10.395C2.14415 10.2784 1.85073 10.1618 1.55742 10.0452C1.36431 9.98532 1.21965 9.79582 1.25547 9.59674C1.28004 9.32832 1.6157 9.16191 1.85867 9.29366C1.9641 9.33532 2.06955 9.37691 2.17499 9.41857C2.97618 9.73482 3.77742 10.0512 4.5748 10.376C4.74123 10.439 4.78815 10.6007 4.8327 10.7543C4.84528 10.7977 4.85768 10.8405 4.87254 10.8802C5.12042 11.5671 5.96588 11.9699 6.68003 11.7376C7.29445 11.5623 7.74525 10.9651 7.72417 10.3447C7.71225 10.1932 7.76775 10.0349 7.904 9.94999C8.62792 9.44591 9.354 8.94516 10.0808 8.44507C10.2348 8.32617 10.426 8.31191 10.6151 8.29781C10.6745 8.29339 10.7337 8.28898 10.7914 8.28135C11.83 8.13867 12.6706 7.1603 12.5723 6.13913C12.5323 5.11456 11.5709 4.20956 10.5043 4.2415C9.5155 4.18375 8.5865 4.93315 8.41025 5.866C8.38583 5.95396 8.37967 6.04693 8.3735 6.13975C8.36283 6.3007 8.35225 6.46118 8.24667 6.59434C7.9118 7.06612 7.57571 7.53731 7.23963 8.0085C7.06897 8.24776 6.89828 8.48707 6.72778 8.72641C6.6407 8.87449 6.47077 8.96007 6.29451 8.94307C6.00661 8.93699 5.71589 8.99949 5.47573 9.15849C5.31213 9.28074 5.07688 9.28149 4.90835 9.16732C4.39199 8.87191 3.87463 8.57816 3.35724 8.28434C2.72634 7.92611 2.09538 7.56784 1.46613 7.2065C1.24072 7.09507 1.17823 6.77167 1.35308 6.59298C1.48158 6.44147 1.72173 6.40818 1.88956 6.51756C2.98501 7.13652 4.07975 7.75683 5.17238 8.37916C5.47363 8.24466 5.79454 8.15158 6.12738 8.13596C6.20576 8.02709 6.28427 7.91831 6.36278 7.80951L6.36343 7.80862C6.75461 7.26657 7.14586 6.72444 7.52057 6.17242C7.57253 5.4862 7.84075 4.8095 8.33725 4.30876ZM10.2418 5.25637L10.2435 5.25592L10.2453 5.25545C10.6737 5.1404 11.165 5.37076 11.3364 5.75295L11.3388 5.75814L11.3413 5.76321C11.5263 6.13013 11.3954 6.62443 11.0418 6.86351L11.0388 6.86556L11.0358 6.8677C10.7238 7.09227 10.2614 7.0973 9.94592 6.87819L9.94283 6.87604L9.93967 6.87398C9.63158 6.67351 9.47933 6.28026 9.56558 5.93554L9.56667 5.93118L9.56767 5.92678C9.63383 5.61496 9.90667 5.34109 10.2418 5.25637ZM6.08903 9.98357L6.0776 9.98624C5.92428 10.0222 5.81017 10.1464 5.768 10.3069C5.72571 10.4679 5.76529 10.6281 5.87673 10.7282L5.8836 10.7344L5.88999 10.7411C5.99049 10.8459 6.15382 10.8892 6.32152 10.8546C6.48929 10.82 6.61557 10.7173 6.66068 10.5867L6.66483 10.5746L6.67017 10.5631C6.73398 10.4253 6.6977 10.2555 6.56873 10.1192C6.44002 9.98316 6.26013 9.92616 6.10015 9.97982L6.08903 9.98357Z" fill="url(#paint1_linear_448_358)"/>
<path d="M10.9172 3.44997L10.8793 3.69708L10.8805 3.69726L10.8816 3.69742L10.9172 3.44997ZM8.33725 4.30875L8.51475 4.48477L8.516 4.4835L8.51725 4.48221L8.33725 4.30875ZM12.9444 4.72252L12.7362 4.86078L12.7368 4.86183L12.7375 4.86288L12.9444 4.72252ZM13.2948 7.08148L13.0562 7.00688L13.0556 7.00905L13.0549 7.01123L13.2948 7.08148ZM10.9698 9.07898L10.9294 8.83223L10.9271 8.83265L10.9247 8.83306L10.9698 9.07898ZM10.8003 9.09582V9.34582H10.8077L10.8152 9.3454L10.8003 9.09582ZM10.8003 9.09582V8.84582H10.7929L10.7856 8.84623L10.8003 9.09582ZM10.4397 9.19381L10.5829 9.39873L10.5897 9.3939L10.5962 9.38873L10.4397 9.19381ZM9.60833 9.76915L9.46658 9.56323L9.46566 9.5639L9.60833 9.76915ZM9.60825 9.76923L9.75008 9.97515L9.75091 9.97457L9.60825 9.76923ZM8.56475 10.4936L8.42066 10.2892L8.32334 10.3579L8.31531 10.4767L8.56475 10.4936ZM7.91733 11.9231L7.74075 11.7461L7.73951 11.7473L7.7383 11.7486L7.91733 11.9231ZM5.79032 12.5665L5.84185 12.3218L5.83912 12.3212L5.83638 12.3207L5.79032 12.5665ZM4.12117 11.2382L4.35175 11.1416L4.34548 11.1266L4.33732 11.1126L4.12117 11.2382ZM3.9407 10.9929L3.84814 11.2251L3.86332 11.2311L3.87916 11.2352L3.9407 10.9929ZM1.55741 10.0451L1.64981 9.81281L1.64074 9.80923L1.6314 9.80631L1.55741 10.0451ZM1.25546 9.59673L1.50151 9.64098L1.50344 9.63031L1.50442 9.61948L1.25546 9.59673ZM1.85866 9.29365L1.7395 9.5134L1.75277 9.52065L1.76682 9.52615L1.85866 9.29365ZM4.5748 10.376L4.48048 10.6075L4.48336 10.6086L4.48627 10.6098L4.5748 10.376ZM4.87254 10.8801L5.1077 10.7953L5.10719 10.7939L5.10667 10.7925L4.87254 10.8801ZM6.68002 11.7376L6.61145 11.4971L6.60704 11.4984L6.60268 11.4998L6.68002 11.7376ZM7.72416 10.3447L7.97402 10.3362L7.97383 10.3306L7.9734 10.3251L7.72416 10.3447ZM7.904 9.94998L8.03623 10.1621L8.04163 10.1588L8.04685 10.1551L7.904 9.94998ZM10.0808 8.44506L10.2225 8.65098L10.2282 8.64715L10.2337 8.6429L10.0808 8.44506ZM10.6151 8.29781L10.6337 8.54715L10.6368 8.5469L10.64 8.54657L10.6151 8.29781ZM10.6151 8.29781L10.5965 8.0485L10.5934 8.04873L10.5902 8.04905L10.6151 8.29781ZM10.7914 8.28134L10.8242 8.52915L10.8248 8.52907L10.8254 8.52898L10.7914 8.28134ZM12.5722 6.13912L12.3224 6.14887L12.3227 6.15599L12.3234 6.16308L12.5722 6.13912ZM10.5042 4.24149L10.4897 4.49107L10.5007 4.49171L10.5117 4.49137L10.5042 4.24149ZM8.41025 5.86599L8.65116 5.93277L8.654 5.92268L8.65591 5.9124L8.41025 5.86599ZM8.24666 6.59433L8.05075 6.43903L8.04663 6.44422L8.0428 6.44962L8.24666 6.59433ZM7.23962 8.00849L7.44229 8.15486L7.44272 8.15426L7.44315 8.15367L7.23962 8.00849ZM7.23962 8.00849L7.03692 7.86216L7.03649 7.86276L7.03606 7.86336L7.23962 8.00849ZM6.72777 8.7264L6.52415 8.58132L6.51781 8.59023L6.51227 8.59965L6.72777 8.7264ZM6.2945 8.94307L6.3185 8.69423L6.30917 8.69332L6.29979 8.69315L6.2945 8.94307ZM5.47573 9.15848L5.33772 8.95007L5.33179 8.95398L5.32609 8.95823L5.47573 9.15848ZM4.90835 9.16731L5.04855 8.96031L5.04072 8.95498L5.0325 8.95032L4.90835 9.16731ZM1.46612 7.20649L1.59061 6.98969L1.58388 6.98581L1.5769 6.98237L1.46612 7.20649ZM1.35307 6.59297L1.53176 6.76782L1.53798 6.76146L1.54373 6.75467L1.35307 6.59297ZM1.88955 6.51756L1.75305 6.727L1.75968 6.73132L1.76657 6.73522L1.88955 6.51756ZM5.17238 8.37915L5.04865 8.5964L5.15868 8.65906L5.2743 8.6074L5.17238 8.37915ZM6.12738 8.13595L6.1391 8.38565L6.25972 8.37998L6.33027 8.28201L6.12738 8.13595ZM7.52056 6.17242L7.72741 6.31282L7.76482 6.25771L7.76985 6.19129L7.52056 6.17242ZM10.2435 5.25592L10.3057 5.49804L10.3073 5.49763L10.309 5.49719L10.2435 5.25592ZM10.2417 5.25637L10.303 5.49874L10.304 5.49849L10.2417 5.25637ZM10.2452 5.25544L10.1804 5.014L10.1797 5.01417L10.2452 5.25544ZM11.3364 5.75294L11.1083 5.85525L11.1084 5.85543L11.3364 5.75294ZM11.3387 5.75813L11.1107 5.86062L11.1132 5.86613L11.1159 5.87151L11.3387 5.75813ZM11.3413 5.76321L11.5646 5.65066L11.5642 5.64983L11.3413 5.76321ZM11.0418 6.8635L11.1802 7.0717L11.1811 7.07116L11.1818 7.0706L11.0418 6.8635ZM11.0387 6.86555L10.9003 6.65736L10.8955 6.66058L10.8907 6.66404L11.0387 6.86555ZM11.0358 6.86769L11.1818 7.0706L11.1828 7.06991L11.1838 7.0692L11.0358 6.86769ZM9.94591 6.87818L9.80291 7.08324L9.80333 7.08352L9.94591 6.87818ZM9.94283 6.87603L10.0858 6.67098L10.0825 6.66864L10.0791 6.66641L9.94283 6.87603ZM9.93966 6.87397L9.80333 7.08352L9.80341 7.0836L9.93966 6.87397ZM9.56558 5.93553L9.80808 5.99622L9.80816 5.99583L9.56558 5.93553ZM9.56666 5.93117L9.80925 5.99147L9.80991 5.98902L9.81041 5.98656L9.56666 5.93117ZM9.56766 5.92677L9.81141 5.98216L9.81183 5.98042L9.81225 5.97866L9.56766 5.92677ZM6.0776 9.98623L6.02078 9.74282H6.02057L6.0776 9.98623ZM6.08902 9.98357L6.14584 10.2271L6.15752 10.2243L6.16889 10.2205L6.08902 9.98357ZM5.87673 10.7282L5.7096 10.9141L5.70969 10.9142L5.87673 10.7282ZM5.8836 10.7344L6.06406 10.5614L6.0576 10.5546L6.05064 10.5484L5.8836 10.7344ZM6.66067 10.5866L6.89699 10.6682L6.89711 10.6678L6.66067 10.5866ZM6.66482 10.5746L6.43809 10.4692L6.4326 10.4811L6.42837 10.4934L6.66482 10.5746ZM6.67016 10.5631L6.8969 10.6684L6.897 10.6681L6.67016 10.5631ZM6.10015 9.97981L6.02057 9.74282L6.02028 9.7429L6.10015 9.97981ZM10.955 3.20284C9.93983 3.04747 8.86158 3.40422 8.15721 4.13529L8.51725 4.48221C9.10641 3.87074 10.021 3.56573 10.8793 3.69708L10.955 3.20284ZM13.1527 4.58426C12.6642 3.84824 11.8454 3.33074 10.9527 3.2025L10.8816 3.69742C11.6349 3.80562 12.3272 4.24475 12.7362 4.86078L13.1527 4.58426ZM13.5334 7.15607C13.802 6.29704 13.6596 5.33127 13.1513 4.58216L12.7375 4.86288C13.1604 5.4862 13.2792 6.29373 13.0562 7.00688L13.5334 7.15607ZM11.0102 9.32565C12.1762 9.13456 13.2067 8.27227 13.5347 7.15172L13.0549 7.01123C12.7847 7.93438 11.9191 8.67007 10.9294 8.83223L11.0102 9.32565ZM10.8152 9.3454C10.8697 9.34215 10.9425 9.33815 11.0149 9.3249L10.9247 8.83306C10.8876 8.8399 10.8458 8.84273 10.7856 8.84623L10.8152 9.3454ZM10.5962 9.38873C10.6091 9.3784 10.6278 9.36865 10.6631 9.36107C10.7022 9.35257 10.7472 9.3494 10.8152 9.3454L10.7856 8.84623C10.6725 8.85298 10.4584 8.85807 10.2831 8.9989L10.5962 9.38873ZM9.75016 9.97506C10.0277 9.78398 10.306 9.59231 10.5829 9.39873L10.2964 8.9889C10.0212 9.18131 9.74433 9.37198 9.46658 9.56323L9.75016 9.97506ZM9.75091 9.97457L9.751 9.97448L9.46566 9.5639L9.75091 9.97457ZM8.70883 10.6979C9.0535 10.4548 9.40108 10.2154 9.75008 9.97515L9.4665 9.56331C9.11791 9.80331 8.768 10.0443 8.42066 10.2892L8.70883 10.6979ZM8.09391 12.1001C8.52041 11.6744 8.77433 11.1 8.81416 10.5104L8.31531 10.4767C8.28347 10.9482 8.07955 11.4081 7.74075 11.7461L8.09391 12.1001ZM5.7388 12.8111C6.5837 12.9891 7.50284 12.7065 8.09636 12.0976L7.7383 11.7486C7.26442 12.2348 6.51932 12.4646 5.84185 12.3218L5.7388 12.8111ZM3.8906 11.3348C4.2072 12.0904 4.925 12.6586 5.74427 12.8122L5.83638 12.3207C5.17679 12.1971 4.60113 11.7367 4.35175 11.1416L3.8906 11.3348ZM3.85401 11.2561C3.86388 11.2799 3.88127 11.323 3.90502 11.3638L4.33732 11.1126C4.33347 11.106 4.32859 11.0952 4.31598 11.0648L3.85401 11.2561ZM3.87916 11.2352C3.86895 11.2326 3.85736 11.2274 3.84674 11.2196C3.83676 11.2123 3.83166 11.2057 3.83055 11.2041C3.8298 11.2031 3.83175 11.2056 3.83633 11.2151C3.84117 11.2252 3.84605 11.2369 3.85401 11.2561L4.31598 11.0648C4.296 11.0166 4.22594 10.8074 4.00225 10.7506L3.87916 11.2352ZM2.34526 10.6273C2.84637 10.8265 3.3474 11.0255 3.84814 11.2251L4.03328 10.7606C3.53225 10.561 3.03096 10.3617 2.5299 10.1626L2.34526 10.6273ZM1.46501 10.2775C1.75838 10.3941 2.05184 10.5107 2.34526 10.6273L2.5299 10.1626C2.23645 10.0461 1.94308 9.92948 1.64981 9.81281L1.46501 10.2775ZM1.00941 9.55248C0.946338 9.90306 1.19816 10.1956 1.48342 10.284L1.6314 9.80631C1.58781 9.79281 1.5494 9.76406 1.52539 9.72981C1.50222 9.69665 1.497 9.66607 1.50151 9.64098L1.00941 9.55248ZM1.97784 9.0739C1.77318 8.9629 1.54127 8.98257 1.36335 9.07157C1.18549 9.16048 1.02826 9.33632 1.0065 9.5739L1.50442 9.61948C1.50725 9.58873 1.53013 9.54715 1.58699 9.51873C1.64378 9.49032 1.70118 9.49265 1.7395 9.5134L1.97784 9.0739ZM2.26679 9.18598C2.16135 9.1444 2.05592 9.10273 1.9505 9.06115L1.76682 9.52615C1.87228 9.56781 1.97775 9.60948 2.08319 9.65106L2.26679 9.18598ZM4.66911 10.1445C3.87026 9.81907 3.06777 9.50223 2.26679 9.18598L2.08319 9.65106C2.8846 9.96748 3.68455 10.2832 4.48048 10.6075L4.66911 10.1445ZM5.0728 10.6846C5.03575 10.5569 4.96467 10.2563 4.66333 10.1421L4.48627 10.6098C4.50278 10.6161 4.51539 10.6251 4.53174 10.6541C4.553 10.6917 4.56862 10.7413 4.59259 10.824L5.0728 10.6846ZM5.10667 10.7925C5.09574 10.7633 5.08594 10.73 5.0728 10.6846L4.59259 10.824C4.60463 10.8655 4.61963 10.9176 4.6384 10.9678L5.10667 10.7925ZM6.60268 11.4998C6.01178 11.6921 5.30795 11.3502 5.1077 10.7953L4.63738 10.965C4.93287 11.7839 5.91996 12.2477 6.75736 11.9753L6.60268 11.4998ZM7.4743 10.3532C7.49128 10.8526 7.12153 11.3516 6.61145 11.4971L6.7486 11.978C7.46736 11.773 7.99921 11.0775 7.97402 10.3362L7.4743 10.3532ZM7.77176 9.73781C7.5359 9.88481 7.4578 10.1465 7.47493 10.3643L7.9734 10.3251C7.9667 10.24 7.99959 10.185 8.03623 10.1621L7.77176 9.73781ZM9.93916 8.2391C9.21216 8.73923 8.48566 9.24031 7.76114 9.74481L8.04685 10.1551C8.77016 9.65148 9.49583 9.15106 10.2225 8.65098L9.93916 8.2391ZM10.5965 8.0485C10.422 8.06152 10.1511 8.07486 9.928 8.24722L10.2337 8.6429C10.3183 8.57748 10.4301 8.56231 10.6337 8.54715L10.5965 8.0485ZM10.7587 8.03349C10.7092 8.04003 10.6572 8.04397 10.5965 8.0485L10.6337 8.54715C10.6918 8.54281 10.7582 8.5379 10.8242 8.52915L10.7587 8.03349ZM12.3234 6.16308C12.4076 7.03736 11.6768 7.90736 10.7574 8.03367L10.8254 8.52898C11.9832 8.36998 12.9336 7.28321 12.8211 6.11516L12.3234 6.16308ZM10.5117 4.49137C11.4433 4.46348 12.2878 5.26342 12.3224 6.14887L12.8221 6.12937C12.7767 4.96567 11.6985 3.95562 10.4967 3.9916L10.5117 4.49137ZM8.65591 5.9124C8.80908 5.10182 9.62766 4.44072 10.4897 4.49107L10.5188 3.99192C9.40333 3.92676 8.36391 4.76446 8.1646 5.81957L8.65591 5.9124ZM8.623 6.15629C8.6295 6.05871 8.63483 5.99182 8.65116 5.93277L8.16933 5.79921C8.13693 5.9161 8.12993 6.03514 8.12409 6.12319L8.623 6.15629ZM8.44258 6.74962C8.604 6.54594 8.61316 6.30411 8.623 6.15629L8.12409 6.12319C8.11254 6.29727 8.10039 6.37641 8.05075 6.43903L8.44258 6.74962ZM7.44315 8.15367C7.77921 7.68252 8.11546 7.21109 8.4505 6.73903L8.0428 6.44962C7.70812 6.92113 7.37218 7.39212 7.03606 7.86336L7.44315 8.15367ZM6.93139 8.87148C7.10184 8.63215 7.27248 8.39295 7.44315 8.15367L7.03606 7.86336C6.86541 8.10261 6.6947 8.3419 6.52415 8.58132L6.93139 8.87148ZM6.2705 9.1919C6.54077 9.21798 6.80551 9.0874 6.94328 8.85315L6.51227 8.59965C6.47588 8.66157 6.40075 8.70215 6.3185 8.69423L6.2705 9.1919ZM5.61374 9.3669C5.80149 9.24265 6.03875 9.18773 6.28922 9.19298L6.29979 8.69315C5.97446 8.68623 5.63029 8.75632 5.33772 8.95007L5.61374 9.3669ZM4.76814 9.37431C5.02102 9.54556 5.3728 9.54748 5.62537 9.35873L5.32609 8.95823C5.25145 9.01398 5.13274 9.01731 5.04855 8.96031L4.76814 9.37431ZM3.2338 8.50173C3.75125 8.79556 4.26825 9.08915 4.7842 9.38432L5.0325 8.95032C4.51572 8.65465 3.99801 8.36065 3.48068 8.06694L3.2338 8.50173ZM1.34163 7.42328C1.9715 7.78498 2.60298 8.14355 3.2338 8.50173L3.48068 8.06694C2.84969 7.70865 2.21926 7.35068 1.59061 6.98969L1.34163 7.42328ZM1.17439 6.41812C0.874096 6.72502 0.986063 7.24806 1.35534 7.4306L1.5769 6.98237C1.54391 6.96606 1.5147 6.92947 1.50522 6.87891C1.49581 6.82869 1.5102 6.78986 1.53176 6.76782L1.17439 6.41812ZM2.02606 6.30812C1.7549 6.13137 1.37404 6.18174 1.16241 6.43127L1.54373 6.75467C1.5891 6.70118 1.68856 6.68497 1.75305 6.727L2.02606 6.30812ZM5.29611 8.16191C4.20316 7.53941 3.10815 6.91895 2.01254 6.2999L1.76657 6.73522C2.86185 7.35407 3.95634 7.97423 5.04865 8.5964L5.29611 8.16191ZM6.11565 7.88622C5.74398 7.90366 5.39216 8.00723 5.07045 8.15087L5.2743 8.6074C5.55508 8.48207 5.8451 8.39948 6.1391 8.38565L6.11565 7.88622ZM6.16005 7.6632C6.08155 7.77197 6.00296 7.88088 5.92449 7.98988L6.33027 8.28201C6.40855 8.17328 6.48697 8.06461 6.5655 7.95581L6.16005 7.6632ZM6.1607 7.66232L6.16005 7.6632L6.5655 7.95581L6.56615 7.95491L6.1607 7.66232ZM7.31371 6.03201C6.94137 6.58055 6.55224 7.11977 6.1607 7.66232L6.56615 7.95491C6.95698 7.41335 7.35035 6.86832 7.72741 6.31282L7.31371 6.03201ZM8.15972 4.13272C7.6154 4.68168 7.32704 5.41712 7.27128 6.15354L7.76985 6.19129C7.818 5.55525 8.06609 4.93729 8.51475 4.48477L8.15972 4.13272ZM10.1812 5.01379L10.1795 5.01424L10.304 5.49849L10.3057 5.49804L10.1812 5.01379ZM10.1797 5.01417L10.178 5.01464L10.309 5.49719L10.3107 5.49672L10.1797 5.01417ZM11.5645 5.65063C11.3407 5.15155 10.7222 4.86852 10.1804 5.014L10.3101 5.49689C10.6252 5.41227 10.9893 5.58997 11.1083 5.85525L11.5645 5.65063ZM11.5667 5.65564L11.5644 5.65045L11.1084 5.85543L11.1107 5.86062L11.5667 5.65564ZM11.5642 5.64983L11.5616 5.64476L11.1159 5.87151L11.1185 5.87658L11.5642 5.64983ZM11.1818 7.0706C11.6363 6.76333 11.808 6.13344 11.5646 5.65066L11.1181 5.87577C11.2447 6.12682 11.1545 6.48552 10.9018 6.6564L11.1818 7.0706ZM11.1772 7.07375L11.1802 7.0717L10.9034 6.65531L10.9003 6.65736L11.1772 7.07375ZM11.1838 7.0692L11.1867 7.06706L10.8907 6.66404L10.8878 6.66618L11.1838 7.0692ZM9.80333 7.08352C10.2063 7.36343 10.7843 7.35666 11.1818 7.0706L10.8898 6.66477C10.6632 6.82786 10.3165 6.83115 10.0885 6.67285L9.80333 7.08352ZM9.79983 7.08108L9.80291 7.08324L10.0889 6.67313L10.0858 6.67098L9.79983 7.08108ZM9.80341 7.0836L9.80658 7.08566L10.0791 6.66641L10.0759 6.66435L9.80341 7.0836ZM9.32308 5.87486C9.21075 6.32387 9.4065 6.82531 9.80333 7.08352L10.076 6.66443C9.85666 6.52171 9.74791 6.23663 9.80808 5.99622L9.32308 5.87486ZM9.32408 5.87087L9.323 5.87523L9.80816 5.99583L9.80925 5.99147L9.32408 5.87087ZM9.32391 5.8714L9.32291 5.87579L9.81041 5.98656L9.81141 5.98216L9.32391 5.8714ZM10.1805 5.01399C9.761 5.12005 9.41075 5.46198 9.32308 5.87486L9.81225 5.97866C9.85691 5.76789 10.0523 5.56212 10.303 5.49874L10.1805 5.01399ZM6.13441 10.2297L6.14584 10.2271L6.0322 9.74015L6.02078 9.74282L6.13441 10.2297ZM6.00979 10.3704C6.03229 10.2848 6.08532 10.2412 6.13462 10.2296L6.02057 9.74282C5.76324 9.80315 5.58804 10.008 5.5262 10.2434L6.00979 10.3704ZM6.04385 10.5423C6.0136 10.5151 5.98707 10.4569 6.00979 10.3704L5.5262 10.2434C5.46435 10.4789 5.51698 10.7411 5.7096 10.9141L6.04385 10.5423ZM6.05064 10.5484L6.04377 10.5422L5.70969 10.9142L5.71655 10.9204L6.05064 10.5484ZM6.07045 10.5681L6.06406 10.5614L5.70313 10.9074L5.70952 10.9141L6.07045 10.5681ZM6.27104 10.6097C6.17053 10.6305 6.10034 10.5992 6.07045 10.5681L5.70952 10.9141C5.88064 11.0926 6.13711 11.1479 6.372 11.0994L6.27104 10.6097ZM6.42435 10.5051C6.41384 10.5356 6.37135 10.5891 6.27104 10.6097L6.372 11.0994C6.60725 11.0509 6.81729 10.8991 6.89699 10.6682L6.42435 10.5051ZM6.42837 10.4934L6.42423 10.5055L6.89711 10.6678L6.90126 10.6557L6.42837 10.4934ZM6.44343 10.4577L6.43809 10.4692L6.89155 10.6799L6.8969 10.6684L6.44343 10.4577ZM6.3871 10.2911C6.46265 10.3709 6.4546 10.4336 6.44332 10.458L6.897 10.6681C7.01335 10.417 6.93268 10.1401 6.7503 9.9474L6.3871 10.2911ZM6.17965 10.2168C6.22954 10.2001 6.31138 10.211 6.3871 10.2911L6.75035 9.94748C6.56865 9.75531 6.29064 9.65223 6.02057 9.74282L6.17965 10.2168ZM6.16889 10.2205L6.18001 10.2167L6.02028 9.7429L6.00915 9.74665L6.16889 10.2205Z" fill="url(#paint2_linear_448_358)"/>
</g>
<defs>
<linearGradient id="paint0_linear_448_358" x1="0.752104" y1="7.79845" x2="15.3047" y2="7.79845" gradientUnits="userSpaceOnUse">
<stop stop-color="#C172FF"/>
<stop offset="1" stop-color="#7452FF"/>
</linearGradient>
<linearGradient id="paint1_linear_448_358" x1="3.125" y1="12.417" x2="12.5833" y2="5.83366" gradientUnits="userSpaceOnUse">
<stop stop-color="#C172FF"/>
<stop offset="1" stop-color="#7452FF"/>
</linearGradient>
<linearGradient id="paint2_linear_448_358" x1="3.125" y1="12.417" x2="12.5833" y2="5.83365" gradientUnits="userSpaceOnUse">
<stop stop-color="#C172FF"/>
<stop offset="1" stop-color="#7452FF"/>
</linearGradient>
<clipPath id="clip0_448_358">
<rect width="16" height="16" fill="white"/>
</clipPath>
</defs>
</svg>
