<svg width="16" height="16" viewBox="0 0 16 16" fill="none" xmlns="http://www.w3.org/2000/svg">
<path d="M5.8406 5.75027C5.51473 5.74517 5.20073 5.62705 4.95228 5.4161C4.43405 4.94082 4.1201 4.28327 4.07633 3.58147C3.9396 2.17894 4.70473 1.35136 5.53118 1.2591C5.73033 1.23702 5.93185 1.25523 6.1238 1.31264C6.31575 1.37005 6.49418 1.46549 6.6485 1.59328C6.8787 1.80078 7.0656 2.05175 7.19845 2.33175C7.3313 2.61175 7.4075 2.91525 7.42263 3.2248C7.54865 4.53227 6.85215 5.75027 5.8406 5.75027ZM2.85268 9.12585C2.55338 9.11872 2.26765 8.99945 2.05211 8.79167C1.57574 8.29567 1.29583 7.64347 1.26448 6.95647C1.14071 5.55395 1.83045 4.72637 2.57588 4.6341C2.75758 4.6136 2.94155 4.63287 3.11505 4.69057C3.28858 4.7483 3.44745 4.84305 3.58068 4.96827C4.0086 5.4061 4.25758 5.98795 4.27885 6.5998C4.39193 7.90782 3.69995 9.12585 2.85268 9.12585ZM10.1568 5.75027C9.13853 5.75027 8.44993 4.5317 8.57763 3.2231C8.59275 2.91357 8.66895 2.61005 8.8018 2.33006C8.93465 2.05006 9.12155 1.79909 9.35175 1.59159C9.50593 1.46457 9.68395 1.3697 9.87538 1.3126C10.0668 1.25549 10.2677 1.2373 10.4663 1.2591C11.2927 1.35136 12.0578 2.17894 11.9211 3.58147C11.8775 4.28347 11.5635 4.94125 11.0452 5.41667C10.7966 5.62742 10.4827 5.74535 10.1568 5.75027ZM13.0919 9.12585C12.0308 9.12585 11.5014 7.90727 11.6207 6.59867C11.6444 5.9829 11.9021 5.39935 12.3414 4.96715C12.4809 4.841 12.6457 4.74597 12.8247 4.68835C13.0038 4.63075 13.193 4.61187 13.3799 4.63297C14.1496 4.72525 14.8624 5.55282 14.7352 6.95535C14.6996 7.64705 14.4088 8.30095 13.9189 8.79055C13.6936 8.99975 13.3993 9.11905 13.0919 9.12585Z" fill="url(#paint0_linear_448_241)"/>
<path opacity="0.4" d="M8.6435 14.3698C9.08037 14.6285 9.58057 14.7608 10.0882 14.7518C11.5082 14.7518 12.4995 13.5563 12.4995 11.8449C12.4995 9.28564 9.9639 6.87549 7.99877 6.87549C6.03362 6.87549 3.49802 9.28564 3.49802 11.8449C3.44175 14.295 5.61112 15.4128 7.35402 14.3698C7.5482 14.2513 7.7713 14.1886 7.99877 14.1886C8.22625 14.1886 8.44932 14.2513 8.6435 14.3698Z" fill="url(#paint1_linear_448_241)"/>
<defs>
<linearGradient id="paint0_linear_448_241" x1="8" y1="14.7599" x2="8" y2="1.25" gradientUnits="userSpaceOnUse">
<stop stop-color="#02AA93"/>
<stop offset="1" stop-color="#67FF80"/>
</linearGradient>
<linearGradient id="paint1_linear_448_241" x1="8.00002" y1="14.7599" x2="8.00002" y2="1.25001" gradientUnits="userSpaceOnUse">
<stop stop-color="#02AA93"/>
<stop offset="1" stop-color="#67FF80"/>
</linearGradient>
</defs>
</svg>
