<svg width="16" height="16" viewBox="0 0 16 16" fill="none" xmlns="http://www.w3.org/2000/svg">
<path d="M11.4816 6.4352H10.8046C10.4512 6.4352 10.1646 6.14869 10.1646 5.79524V2.29406C10.1646 1.83852 9.79198 1.46582 9.33643 1.46582H6.0235C5.56797 1.46582 5.19527 1.83852 5.19527 2.29406V5.79523C5.19527 6.14869 4.90873 6.4352 4.55527 6.4352H3.87837C3.14124 6.4352 2.76853 7.32973 3.29033 7.85152L7.09195 11.6531C7.41495 11.9761 7.93675 11.9761 8.25975 11.6531L12.0614 7.85152C12.5831 7.32973 12.2187 6.4352 11.4816 6.4352Z" fill="url(#paint0_linear_448_205)"/>
<path opacity="0.4" d="M2.71056 14.5344C2.25503 14.5344 1.88232 14.1617 1.88232 13.7062C1.88232 13.2506 2.25503 12.8779 2.71056 12.8779H12.6494C13.1049 12.8779 13.4776 13.2506 13.4776 13.7062C13.4776 14.1617 13.1049 14.5344 12.6494 14.5344H2.71056Z" fill="url(#paint1_linear_448_205)"/>
<defs>
<linearGradient id="paint0_linear_448_205" x1="7.67684" y1="11.8954" x2="7.67684" y2="1.46582" gradientUnits="userSpaceOnUse">
<stop stop-color="#02AA93"/>
<stop offset="1" stop-color="#67FF80"/>
</linearGradient>
<linearGradient id="paint1_linear_448_205" x1="7.67998" y1="14.5344" x2="7.67998" y2="12.8779" gradientUnits="userSpaceOnUse">
<stop stop-color="#02AA93"/>
<stop offset="1" stop-color="#67FF80"/>
</linearGradient>
</defs>
</svg>
