<svg width="16" height="16" viewBox="0 0 16 16" fill="none" xmlns="http://www.w3.org/2000/svg">
<path d="M7.96596 9.69336C5.66598 9.69336 3.72534 10.0692 3.72534 11.5197C3.72534 12.9708 5.67852 13.3334 7.96596 13.3334C10.266 13.3334 12.2066 12.9576 12.2066 11.5071C12.2066 10.056 10.2534 9.69336 7.96596 9.69336Z" fill="url(#paint0_linear_448_150)"/>
<path opacity="0.4" d="M7.96596 8.31117C9.52336 8.31117 10.7722 7.05524 10.7722 5.48884C10.7722 3.92188 9.52336 2.6665 7.96596 2.6665C6.40858 2.6665 5.15979 3.92188 5.15979 5.48884C5.15979 7.05524 6.40858 8.31117 7.96596 8.31117Z" fill="url(#paint1_linear_448_150)"/>
<path opacity="0.4" d="M14.0586 6.14616C14.4616 4.56118 13.2802 3.1377 11.776 3.1377C11.6124 3.1377 11.456 3.15571 11.3032 3.18633C11.2829 3.19113 11.2602 3.20134 11.2483 3.21935C11.2346 3.24216 11.2447 3.27278 11.2596 3.2926C11.7115 3.93019 11.9712 4.70647 11.9712 5.53978C11.9712 6.33828 11.733 7.08272 11.3152 7.70052C11.2722 7.76418 11.3104 7.84998 11.3862 7.86325C11.4912 7.88185 11.5987 7.89145 11.7085 7.89445C12.8039 7.92325 13.787 7.21418 14.0586 6.14616Z" fill="url(#paint2_linear_448_150)"/>
<path d="M15.2062 9.87782C15.0056 9.44795 14.5215 9.15322 13.7854 9.00849C13.438 8.92322 12.4978 8.80315 11.6234 8.81935C11.6102 8.82115 11.603 8.83022 11.6018 8.83622C11.6001 8.84462 11.6036 8.85902 11.621 8.86802C12.0251 9.06915 13.5873 9.94389 13.3909 11.7888C13.3825 11.8687 13.4464 11.9377 13.5258 11.9257C13.9102 11.8705 14.8993 11.6568 15.2062 10.991C15.3757 10.6391 15.3757 10.2303 15.2062 9.87782Z" fill="url(#paint3_linear_448_150)"/>
<path opacity="0.4" d="M4.69655 3.18632C4.54433 3.1551 4.38734 3.1377 4.22378 3.1377C2.71951 3.1377 1.53817 4.56118 1.9417 6.14615C2.2127 7.2142 3.19586 7.92326 4.29123 7.89446C4.40107 7.89146 4.50912 7.8812 4.61358 7.8632C4.68939 7.85 4.72759 7.76413 4.68461 7.70053C4.26676 7.08213 4.02859 6.33827 4.02859 5.53978C4.02859 4.70586 4.28885 3.92958 4.74073 3.29259C4.75505 3.27278 4.7658 3.24216 4.75147 3.21934C4.73953 3.20074 4.71745 3.19113 4.69655 3.18632Z" fill="url(#paint4_linear_448_150)"/>
<path d="M2.21433 9.00848C1.47831 9.15315 0.994793 9.44795 0.794219 9.87781C0.624095 10.2302 0.624095 10.6391 0.794219 10.9915C1.10105 11.6567 2.09017 11.871 2.47459 11.9257C2.55399 11.9377 2.61726 11.8692 2.60891 11.7887C2.41251 9.94441 3.97469 9.06968 4.37941 8.86855C4.39613 8.85895 4.39971 8.84515 4.39792 8.83615C4.39673 8.83015 4.39016 8.82115 4.37703 8.81995C3.50192 8.80315 2.56235 8.92321 2.21433 9.00848Z" fill="url(#paint5_linear_448_150)"/>
<defs>
<linearGradient id="paint0_linear_448_150" x1="7.96596" y1="9.69336" x2="7.96596" y2="13.3334" gradientUnits="userSpaceOnUse">
<stop stop-color="#DC18FC"/>
<stop offset="1" stop-color="#8E1EFF"/>
</linearGradient>
<linearGradient id="paint1_linear_448_150" x1="7.96596" y1="2.6665" x2="7.96596" y2="8.31117" gradientUnits="userSpaceOnUse">
<stop stop-color="#DC18FC"/>
<stop offset="1" stop-color="#8E1EFF"/>
</linearGradient>
<linearGradient id="paint2_linear_448_150" x1="12.6901" y1="3.1377" x2="12.6901" y2="7.89525" gradientUnits="userSpaceOnUse">
<stop stop-color="#DC18FC"/>
<stop offset="1" stop-color="#8E1EFF"/>
</linearGradient>
<linearGradient id="paint3_linear_448_150" x1="13.4674" y1="8.81789" x2="13.4674" y2="11.9271" gradientUnits="userSpaceOnUse">
<stop stop-color="#DC18FC"/>
<stop offset="1" stop-color="#8E1EFF"/>
</linearGradient>
<linearGradient id="paint4_linear_448_150" x1="3.31002" y1="3.1377" x2="3.31002" y2="7.89526" gradientUnits="userSpaceOnUse">
<stop stop-color="#DC18FC"/>
<stop offset="1" stop-color="#8E1EFF"/>
</linearGradient>
<linearGradient id="paint5_linear_448_150" x1="2.53248" y1="8.81835" x2="2.53248" y2="11.927" gradientUnits="userSpaceOnUse">
<stop stop-color="#DC18FC"/>
<stop offset="1" stop-color="#8E1EFF"/>
</linearGradient>
</defs>
</svg>
