<svg width="16" height="16" viewBox="0 0 16 16" fill="none" xmlns="http://www.w3.org/2000/svg">
<g clip-path="url(#clip0_448_251)">
<path opacity="0.4" d="M8 15C6.1435 15 4.36301 14.2625 3.05026 12.9497C1.7375 11.637 1 9.8565 1 8C1 6.1435 1.7375 4.36301 3.05026 3.05026C4.36301 1.7375 6.1435 1 8 1C9.8565 1 11.637 1.7375 12.9497 3.05026C14.2625 4.36301 15 6.1435 15 8C15 9.8565 14.2625 11.637 12.9497 12.9497C11.637 14.2625 9.8565 15 8 15Z" fill="url(#paint0_linear_448_251)"/>
<path fill-rule="evenodd" clip-rule="evenodd" d="M5.82245 2.99043C6.03375 2.5082 5.52215 1.69922 5.04865 1.92941C4.3797 2.25461 3.76295 2.69111 3.22703 3.22703C3.18957 3.26449 3.19216 3.32582 3.23294 3.35963C3.28807 3.40533 3.34521 3.45036 3.4045 3.49459C3.8077 3.79684 4.29239 4.05779 4.83708 4.26939C5.10575 4.37375 5.39605 4.20807 5.47925 3.93214C5.581 3.59482 5.69575 3.27965 5.82245 2.99043ZM2.8795 4.19459C2.71926 4.07461 2.48808 4.0985 2.37733 4.26525C1.82523 5.09645 1.46326 6.0415 1.31974 7.03195C1.27832 7.31785 1.50881 7.56245 1.7977 7.56245H4.45541C4.72665 7.56245 4.9476 7.3461 4.96222 7.07525C4.98706 6.61545 5.0303 6.1693 5.09055 5.74145C5.1258 5.49155 4.9771 5.2514 4.73947 5.16645C4.03292 4.9138 3.40177 4.58621 2.8795 4.19459ZM1.79769 8.43745C1.5088 8.43745 1.27831 8.68205 1.31974 8.96795C1.46387 9.9627 1.82833 10.9117 2.38444 11.7455C2.49396 11.9097 2.72185 11.9329 2.8795 11.8141C3.40204 11.4226 4.03359 11.0951 4.74058 10.8425C4.97841 10.7575 5.12715 10.5172 5.0918 10.2671C5.03085 9.83665 4.98722 9.3876 4.96222 8.9247C4.9476 8.65385 4.72664 8.43745 4.4554 8.43745H1.79769ZM3.23258 12.6495C3.19455 12.6809 3.19213 12.7381 3.22703 12.773C3.76295 13.3089 4.37971 13.7454 5.04865 14.0706C5.52215 14.3008 6.03375 13.4918 5.8225 13.0096C5.6968 12.7227 5.58285 12.4103 5.48175 12.076C5.39835 11.8004 5.10825 11.635 4.83977 11.7391C4.29398 11.9509 3.80836 12.2122 3.4045 12.5149C3.34508 12.5588 3.28782 12.6038 3.23258 12.6495ZM10.1776 13.0096C9.9663 13.4918 10.4779 14.3007 10.9514 14.0706C11.6203 13.7454 12.2371 13.3089 12.773 12.773C12.8013 12.7447 12.8293 12.7161 12.8571 12.6874C13.0095 12.5294 12.975 12.2742 12.7845 12.165C12.3151 11.8965 11.7753 11.674 11.1861 11.5047C10.9211 11.4285 10.654 11.5984 10.58 11.8639C10.4642 12.2788 10.3295 12.6628 10.1776 13.0096ZM13.5322 12.686L13.5336 12.6858L13.5351 12.6857L14.0828 12.0453C14.094 12.0321 14.0924 12.0124 14.0792 12.0013C14.067 11.9911 14.0643 11.9733 14.073 11.96C14.8352 10.791 15.25 9.4169 15.25 8C15.25 6.5847 14.8362 5.2121 14.0756 4.04393C14.0676 4.03166 14.07 4.01533 14.0812 4.00588C14.0933 3.99559 14.0948 3.97741 14.0844 3.9653L13.6575 3.46619C13.4923 3.26002 13.3152 3.06209 13.1265 2.87348C11.7669 1.51384 9.9228 0.75 8 0.75C6.0772 0.75 4.23312 1.51384 2.87348 2.87348C1.51384 4.23312 0.75 6.0772 0.75 8C0.75 9.9228 1.51384 11.7669 2.87348 13.1265C4.23312 14.4862 6.0772 15.25 8 15.25C9.9228 15.25 11.7669 14.4862 13.1265 13.1265C13.2683 12.9848 13.4036 12.8378 13.5322 12.686ZM12.7845 3.84459C12.9789 3.73461 13.0134 3.47471 12.8583 3.31397C12.8302 3.28476 12.8017 3.25578 12.773 3.22703C12.2371 2.69112 11.6203 2.25462 10.9514 1.92942C10.4779 1.69923 9.9663 2.5082 10.1776 2.99043C10.3305 3.33945 10.466 3.72627 10.5822 4.14422C10.6561 4.41007 10.9234 4.58015 11.1886 4.50382C11.7768 4.33449 12.3158 4.11237 12.7845 3.84459ZM13.9253 4.76679C13.7904 4.51962 13.4712 4.45866 13.227 4.59882C13.2245 4.60029 13.222 4.60176 13.2194 4.60322C12.6609 4.92273 12.021 5.1823 11.3261 5.374C11.072 5.44415 10.9045 5.6905 10.9375 5.95205C10.9833 6.31505 11.017 6.6904 11.0378 7.07525C11.0524 7.3461 11.2733 7.56245 11.5446 7.56245H14.2023C14.4912 7.56245 14.7217 7.3179 14.6803 7.032C14.5649 6.2357 14.3083 5.4688 13.9253 4.76679ZM14.2023 8.43745C14.4912 8.43745 14.7217 8.68205 14.6803 8.96795C14.5646 9.7665 14.3068 10.5355 13.922 11.2392C13.7868 11.4863 13.4645 11.5442 13.2194 11.4054C12.6606 11.0862 12.0204 10.8268 11.3251 10.6351C11.0707 10.565 10.9033 10.3184 10.9365 10.0567C10.9828 9.69095 11.0168 9.31265 11.0378 8.92465C11.0524 8.6538 11.2733 8.43745 11.5446 8.43745H14.2023ZM6.5261 10.392C6.24605 10.4367 5.9751 10.2537 5.9383 9.97245C5.89535 9.6439 5.8625 9.30255 5.84115 8.95095C5.8241 8.66995 6.051 8.43745 6.3325 8.43745H9.6675C9.94905 8.43745 10.1759 8.6699 10.1588 8.95095C10.1396 9.26855 10.1109 9.57785 10.0738 9.87695C10.0403 10.1475 9.7888 10.3312 9.5175 10.3047C9.1392 10.2677 8.75275 10.2487 8.36135 10.2487C7.732 10.2487 7.11585 10.2979 6.5261 10.392ZM6.525 5.6174C6.2448 5.57265 5.97365 5.75585 5.93705 6.03725C5.8947 6.3628 5.8623 6.7009 5.84115 7.04895C5.8241 7.33 6.051 7.56245 6.33255 7.56245H9.6675C9.94905 7.56245 10.1759 7.33 10.1588 7.049C10.1398 6.73485 10.1116 6.42885 10.0751 6.13285C10.0417 5.86215 9.79 5.67815 9.51855 5.70475C9.1399 5.74185 8.75315 5.76085 8.36135 5.76085C7.7316 5.76085 7.1151 5.7116 6.525 5.6174ZM8 1.875C8.6415 1.875 9.28005 2.80398 9.70015 4.25496C9.782 4.53781 9.5866 4.82183 9.2932 4.84669C8.98785 4.87256 8.6766 4.88584 8.36135 4.88584C7.7896 4.88584 7.2314 4.84207 6.69885 4.75906C6.41945 4.71551 6.24455 4.43779 6.3258 4.16698C6.746 2.76653 7.37155 1.875 8 1.875ZM8.36135 11.1237C8.6756 11.1237 8.98595 11.1369 9.2904 11.1625C9.58405 11.1873 9.7796 11.4717 9.69735 11.7547C9.2772 13.2002 8.6401 14.125 8 14.125C7.373 14.125 6.7488 13.2375 6.3287 11.8426C6.2471 11.5716 6.42205 11.2935 6.70165 11.25C7.23335 11.1673 7.7906 11.1237 8.36135 11.1237Z" fill="url(#paint1_linear_448_251)"/>
<path d="M3.4045 3.49459L3.55445 3.29455L3.55398 3.29419L3.4045 3.49459ZM3.4045 12.5149L3.55292 12.7162L3.55445 12.715L3.4045 12.5149ZM13.6575 3.46619L13.4625 3.62253L13.4649 3.62564L13.4675 3.62867L13.6575 3.46619ZM13.2194 11.4054L13.0954 11.6226L13.0962 11.623L13.2194 11.4054ZM12.7845 3.84459L12.6614 3.62701L12.6605 3.62752L12.7845 3.84459ZM2.8795 11.8141L2.7296 11.614L2.72906 11.6144L2.8795 11.8141ZM4.93934 1.70457C4.24563 2.04182 3.60602 2.49449 3.05026 3.05026L3.40381 3.40381C3.91989 2.88773 4.51378 2.46741 5.15795 2.15425L4.93934 1.70457ZM3.55398 3.29419C3.49819 3.25258 3.4444 3.2102 3.39249 3.16716L3.07339 3.55209C3.13173 3.60045 3.19222 3.64814 3.25502 3.69498L3.55398 3.29419ZM4.92761 4.03636C4.40035 3.83153 3.93645 3.5809 3.55445 3.29455L3.25455 3.69462C3.67894 4.01276 4.18443 4.28406 4.74655 4.50243L4.92761 4.03636ZM5.5935 2.89011C5.4623 3.18953 5.3442 3.51419 5.2399 3.85995L5.7186 4.00432C5.8178 3.67543 5.92925 3.36977 6.05145 3.09074L5.5935 2.89011ZM2.16908 4.12693C1.59654 4.98892 1.22117 5.96895 1.07233 6.9961L1.56716 7.0678C1.70537 6.11405 2.05393 5.204 2.58557 4.40357L2.16908 4.12693ZM4.45541 7.31245H1.7977V7.81245H4.45541V7.31245ZM4.84302 5.7066C4.7817 6.1418 4.73779 6.5951 4.71259 7.06175L5.21185 7.08875C5.2363 6.6358 5.2789 6.1968 5.3381 5.77635L4.84302 5.7066ZM2.72952 4.39461C3.27509 4.8037 3.92934 5.14225 4.6553 5.40185L4.82365 4.93105C4.13651 4.68534 3.52845 4.36873 3.02948 3.99458L2.72952 4.39461ZM1.07232 9.0038C1.22178 10.0355 1.59975 11.0195 2.17646 11.8841L2.59243 11.6067C2.05691 10.8038 1.70594 9.89 1.56715 8.9321L1.07232 9.0038ZM4.65647 10.6071C3.93007 10.8666 3.27544 11.2051 2.7296 11.614L3.0294 12.0141C3.52865 11.6401 4.1371 11.3236 4.82469 11.0779L4.65647 10.6071ZM4.71258 8.93815C4.73795 9.408 4.78228 9.86425 4.84424 10.3021L5.3393 10.2321C5.27945 9.80905 5.2365 9.3672 5.21185 8.9112L4.71258 8.93815ZM1.79769 8.68745H4.4554V8.18745H1.79769V8.68745ZM3.05026 12.9497C3.60602 13.5055 4.24563 13.9582 4.93934 14.2955L5.15795 13.8457C4.51379 13.5326 3.91989 13.1122 3.40381 12.5962L3.05026 12.9497ZM5.24245 12.1484C5.3461 12.491 5.4634 12.8129 5.5935 13.1099L6.05145 12.9093C5.9302 12.6325 5.8196 12.3295 5.721 12.0036L5.24245 12.1484ZM3.55445 12.715C3.93708 12.4282 4.40187 12.1772 4.9302 11.9722L4.74933 11.5061C4.1861 11.7246 3.67964 11.9963 3.25455 12.3149L3.55445 12.715ZM3.39195 12.842C3.44381 12.7991 3.49742 12.7571 3.55292 12.7162L3.25609 12.3138C3.19273 12.3605 3.13183 12.4083 3.07321 12.4568L3.39195 12.842ZM11.0607 14.2954C11.7544 13.9582 12.394 13.5055 12.9497 12.9497L12.5962 12.5962C12.0801 13.1122 11.4862 13.5326 10.842 13.8457L11.0607 14.2954ZM12.9497 12.9497C12.9791 12.9204 13.0082 12.8908 13.037 12.861L12.6772 12.5138C12.6505 12.5415 12.6234 12.5689 12.5962 12.5962L12.9497 12.9497ZM11.117 11.7449C11.6897 11.9095 12.2106 12.1247 12.6603 12.382L12.9088 11.948C12.4198 11.6683 11.8608 11.4385 11.2551 11.2643L11.117 11.7449ZM10.4066 13.1099C10.5638 12.751 10.7023 12.3556 10.8208 11.9311L10.3391 11.7968C10.2261 12.2019 10.0952 12.5747 9.94855 12.9093L10.4066 13.1099ZM13.725 12.8482L14.2727 12.2078L13.8927 11.8828L13.345 12.5232L13.725 12.8482ZM15 8C15 9.368 14.5996 10.6947 13.8636 11.8235L14.2824 12.0966C15.071 10.8872 15.5 9.46575 15.5 8H15ZM13.866 4.18035C14.6004 5.30825 15 6.63355 15 8H15.5C15.5 6.5359 15.0719 5.11595 14.2851 3.90752L13.866 4.18035ZM14.2744 3.80281L13.8475 3.30369L13.4675 3.62867L13.8944 4.12779L14.2744 3.80281ZM12.9497 3.05026C13.1318 3.23237 13.3029 3.42347 13.4625 3.62253L13.8526 3.30984C13.6817 3.09656 13.4984 2.89181 13.3033 2.6967L12.9497 3.05026ZM8 1C9.8565 1 11.637 1.7375 12.9497 3.05026L13.3033 2.6967C11.8968 1.29018 9.9891 0.5 8 0.5V1ZM3.05026 3.05026C4.36301 1.7375 6.1435 1 8 1V0.5C6.0109 0.5 4.10322 1.29018 2.6967 2.6967L3.05026 3.05026ZM1 8C1 6.1435 1.7375 4.36301 3.05026 3.05026L2.6967 2.6967C1.29018 4.10322 0.5 6.0109 0.5 8H1ZM3.05026 12.9497C1.7375 11.637 1 9.8565 1 8H0.5C0.5 9.9891 1.29018 11.8968 2.6967 13.3033L3.05026 12.9497ZM8 15C6.1435 15 4.36301 14.2625 3.05026 12.9497L2.6967 13.3033C4.10322 14.7098 6.0109 15.5 8 15.5V15ZM12.9497 12.9497C11.637 14.2625 9.8565 15 8 15V15.5C9.9891 15.5 11.8968 14.7098 13.3033 13.3033L12.9497 12.9497ZM13.3414 12.5244C13.2173 12.6709 13.0866 12.8129 12.9497 12.9497L13.3033 13.3033C13.4499 13.1566 13.5899 13.0046 13.7229 12.8475L13.3414 12.5244ZM13.0383 3.1404C13.009 3.11011 12.9795 3.08007 12.9497 3.05026L12.5962 3.40381C12.6239 3.43149 12.6513 3.4594 12.6784 3.48752L13.0383 3.1404ZM12.9497 3.05026C12.394 2.4945 11.7544 2.04182 11.0607 1.70458L10.842 2.15425C11.4862 2.46741 12.0801 2.88774 12.5962 3.40381L12.9497 3.05026ZM10.823 4.07725C10.7041 3.64952 10.5648 3.25138 10.4066 2.89011L9.94855 3.09074C10.0961 3.42752 10.2278 3.80303 10.3413 4.21119L10.823 4.07725ZM12.6605 3.62752C12.2113 3.88411 11.6912 4.09897 11.1194 4.26357L11.2577 4.74406C11.8624 4.57 12.4202 4.34064 12.9085 4.06166L12.6605 3.62752ZM13.3435 4.82022C13.3462 4.8187 13.3488 4.81717 13.3515 4.81565L13.1026 4.382C13.1002 4.38341 13.0977 4.38482 13.0952 4.38623L13.3435 4.82022ZM11.3926 5.615C12.105 5.41845 12.7646 5.1514 13.3435 4.82022L13.0952 4.38623C12.5571 4.69405 11.9371 4.94609 11.2597 5.133L11.3926 5.615ZM11.2874 7.0618C11.2664 6.67115 11.2322 6.2899 11.1856 5.9208L10.6895 5.98335C10.7345 6.34025 10.7677 6.7096 10.7881 7.08875L11.2874 7.0618ZM14.2023 7.31245H11.5446V7.81245H14.2023V7.31245ZM14.9277 6.99615C14.808 6.17035 14.5419 5.37505 14.1447 4.64705L13.7058 4.88653C14.0747 5.56255 14.3217 6.30105 14.4328 7.06785L14.9277 6.99615ZM14.1413 11.3591C14.5404 10.6294 14.8077 9.83195 14.9277 9.0038L14.4328 8.9321C14.3214 9.7011 14.0733 10.4417 13.7027 11.1193L14.1413 11.3591ZM13.3434 11.1884C12.7642 10.8575 12.1043 10.5906 11.3916 10.3941L11.2587 10.8761C11.9366 11.0629 12.557 11.3149 13.0954 11.6226L13.3434 11.1884ZM11.1845 10.0881C11.2316 9.7162 11.2661 9.33195 11.2874 8.93815L10.7881 8.9112C10.7675 9.2934 10.734 9.66565 10.6884 10.0253L11.1845 10.0881ZM11.5446 8.68745H14.2023V8.18745H11.5446V8.68745ZM5.5916 8.9661C5.6133 9.32335 5.6467 9.6705 5.69045 10.0049L6.1862 9.94005C6.144 9.61725 6.1117 9.2817 6.0907 8.9358L5.5916 8.9661ZM9.6675 8.18745H6.3325V8.68745H9.6675V8.18745ZM10.3219 9.90765C10.3596 9.60335 10.3888 9.28885 10.4084 8.9661L9.9093 8.9358C9.89035 9.2483 9.86215 9.55235 9.82575 9.8462L10.3219 9.90765ZM8.36135 10.4987C8.7447 10.4987 9.123 10.5173 9.49315 10.5535L9.54185 10.0559C9.1554 10.0181 8.76085 9.9987 8.36135 9.9987V10.4987ZM6.5655 10.6389C7.14195 10.5469 7.74495 10.4987 8.36135 10.4987V9.9987C7.71905 9.9987 7.08975 10.0489 6.48675 10.1451L6.5655 10.6389ZM6.0907 7.0641C6.1115 6.7217 6.14335 6.3893 6.18495 6.0695L5.68915 6.005C5.64605 6.33635 5.6131 6.6801 5.5916 7.03385L6.0907 7.0641ZM9.6675 7.31245H6.33255V7.81245H9.6675V7.31245ZM9.82695 6.16345C9.8628 6.45425 9.89055 6.7551 9.9093 7.0641L10.4084 7.03385C10.389 6.7146 10.3603 6.4035 10.3232 6.1023L9.82695 6.16345ZM8.36135 6.01085C8.7612 6.01085 9.1561 5.99145 9.54295 5.95355L9.4942 5.45595C9.1237 5.4922 8.74505 5.51085 8.36135 5.51085V6.01085ZM6.4856 5.86425C7.08895 5.9606 7.71865 6.01085 8.36135 6.01085V5.51085C7.74455 5.51085 7.1412 5.4626 6.5644 5.3705L6.4856 5.86425ZM9.94025 4.18544C9.7257 3.4444 9.45125 2.82082 9.13725 2.37657C8.8306 1.94271 8.44545 1.625 8 1.625V2.125C8.1961 2.125 8.4509 2.27177 8.72895 2.66515C8.9996 3.04813 9.25445 3.61455 9.46 4.32449L9.94025 4.18544ZM8.36135 5.13585C8.6836 5.13585 9.0019 5.12225 9.3143 5.0958L9.2721 4.59758C8.9738 4.62285 8.66955 4.63584 8.36135 4.63584V5.13585ZM6.66035 5.0061C7.20585 5.0911 7.7769 5.13585 8.36135 5.13585V4.63584C7.80225 4.63584 7.25695 4.59303 6.73735 4.51204L6.66035 5.0061ZM8 1.625C7.5634 1.625 7.18485 1.93044 6.88215 2.34943C6.57265 2.77788 6.3011 3.37944 6.08635 4.09514L6.56525 4.23882C6.7707 3.55407 7.02205 3.00965 7.28745 2.64222C7.55975 2.26533 7.80815 2.125 8 2.125V1.625ZM9.3114 10.9135C8.9999 10.8872 8.6826 10.8737 8.36135 10.8737V11.3737C8.66865 11.3737 8.97195 11.3866 9.26935 11.4116L9.3114 10.9135ZM8 14.375C8.4445 14.375 8.82895 14.0586 9.13515 13.6264C9.44865 13.1839 9.7228 12.5627 9.9374 11.8244L9.45725 11.6849C9.2517 12.3921 8.99725 12.9561 8.72715 13.3373C8.44975 13.7289 8.1956 13.875 8 13.875V14.375ZM6.0893 11.9146C6.30405 12.6276 6.57525 13.2267 6.8843 13.6535C7.1865 14.0709 7.5644 14.375 8 14.375V13.875C7.8086 13.875 7.5609 13.7354 7.28925 13.3603C7.0244 12.9945 6.77345 12.4524 6.56805 11.7704L6.0893 11.9146ZM8.36135 10.8737C7.77795 10.8737 7.20785 10.9183 6.6632 11.003L6.7401 11.4971C7.25885 11.4163 7.80325 11.3737 8.36135 11.3737V10.8737ZM6.73735 4.51204C6.6079 4.49186 6.52755 4.36451 6.56525 4.23882L6.08635 4.09514C5.96155 4.51108 6.23105 4.93916 6.66035 5.0061L6.73735 4.51204ZM10.3232 6.1023C10.2718 5.68465 9.88795 5.4174 9.4942 5.45595L9.54295 5.95355C9.6921 5.93895 9.8117 6.0397 9.82695 6.16345L10.3232 6.1023ZM5.69045 10.0049C5.7473 10.4394 6.1605 10.7035 6.5655 10.6389L6.48675 10.1451C6.33165 10.1698 6.20295 10.0678 6.1862 9.94005L5.69045 10.0049ZM13.7027 11.1193C13.6482 11.2189 13.4928 11.2729 13.3426 11.1879L13.0962 11.623C13.4363 11.8155 13.9255 11.7538 14.1413 11.3591L13.7027 11.1193ZM10.7881 7.08875C10.8097 7.4876 11.1359 7.81245 11.5446 7.81245V7.31245C11.4108 7.31245 11.2952 7.20465 11.2874 7.0618L10.7881 7.08875ZM13.3515 4.81565C13.4969 4.73217 13.65 4.78433 13.7058 4.88653L14.1447 4.64705C13.9308 4.25491 13.4456 4.18516 13.1026 4.382L13.3515 4.81565ZM10.3413 4.21119C10.4479 4.59453 10.8432 4.86338 11.2577 4.74406L11.1194 4.26357C11.0036 4.29692 10.8643 4.22562 10.823 4.07725L10.3413 4.21119ZM11.0607 1.70458C10.8658 1.60984 10.6661 1.62543 10.4968 1.70302C10.334 1.77767 10.2002 1.9079 10.1017 2.05115C9.9121 2.32688 9.79605 2.7426 9.94855 3.09074L10.4066 2.89011C10.3478 2.75602 10.3818 2.52615 10.5137 2.33438C10.5759 2.24389 10.6455 2.1849 10.7052 2.15753C10.7585 2.13312 10.8002 2.1339 10.842 2.15425L11.0607 1.70458ZM12.6784 3.48752C12.7231 3.5338 12.7097 3.59964 12.6614 3.62701L12.9076 4.06217C13.248 3.86958 13.3037 3.41561 13.0383 3.1404L12.6784 3.48752ZM13.3718 12.8764C13.4771 12.9658 13.635 12.9533 13.725 12.8482L13.345 12.5232C13.4343 12.4189 13.591 12.4065 13.6954 12.4952L13.3718 12.8764ZM11.2551 11.2643C10.8409 11.1453 10.4459 11.4138 10.3391 11.7968L10.8208 11.9311C10.8621 11.7828 11.0012 11.7116 11.117 11.7449L11.2551 11.2643ZM9.26935 11.4116C9.4059 11.4232 9.4954 11.5537 9.45725 11.6849L9.9374 11.8244C10.0638 11.3896 9.7622 10.9515 9.3114 10.9135L9.26935 11.4116ZM13.037 12.861C13.3009 12.5875 13.2427 12.1394 12.9088 11.948L12.6603 12.382C12.7075 12.409 12.7183 12.4712 12.6772 12.5138L13.037 12.861ZM10.842 13.8457C10.8002 13.8661 10.7585 13.8669 10.7052 13.8425C10.6455 13.8151 10.5759 13.7561 10.5137 13.6656C10.3819 13.4738 10.3478 13.244 10.4066 13.1099L9.94855 12.9093C9.79605 13.2574 9.9121 13.6731 10.1017 13.9488C10.2002 14.0921 10.334 14.2224 10.4968 14.297C10.6661 14.3746 10.8658 14.3901 11.0607 14.2954L10.842 13.8457ZM9.46 4.32449C9.49795 4.45567 9.40845 4.58602 9.2721 4.59758L9.3143 5.0958C9.76475 5.0576 10.0661 4.61996 9.94025 4.18544L9.46 4.32449ZM5.721 12.0036C5.6014 11.6082 5.1719 11.3421 4.74933 11.5061L4.9302 11.9722C5.0446 11.9278 5.1953 11.9925 5.24245 12.1484L5.721 12.0036ZM4.93934 14.2955C5.1342 14.3902 5.334 14.3746 5.5032 14.297C5.666 14.2223 5.7999 14.0921 5.89835 13.9488C6.0879 13.6731 6.204 13.2574 6.05145 12.9093L5.5935 13.1099C5.65225 13.244 5.61815 13.4738 5.4863 13.6656C5.4241 13.7561 5.3545 13.8151 5.2948 13.8425C5.24155 13.8669 5.19985 13.8661 5.15795 13.8457L4.93934 14.2955ZM9.6675 7.81245C10.0875 7.81245 10.4345 7.4641 10.4084 7.03385L9.9093 7.0641C9.9173 7.1959 9.81055 7.31245 9.6675 7.31245V7.81245ZM3.40381 12.5962C3.47207 12.6644 3.46858 12.7786 3.39195 12.842L3.07321 12.4568C2.92052 12.5832 2.91219 12.8117 3.05026 12.9497L3.40381 12.5962ZM6.18495 6.0695C6.2016 5.9416 6.3304 5.8395 6.4856 5.86425L6.5644 5.3705C6.1592 5.3058 5.74575 5.5701 5.68915 6.005L6.18495 6.0695ZM5.21185 8.9112C5.1903 8.51235 4.86408 8.18745 4.4554 8.18745V8.68745C4.58921 8.68745 4.70487 8.7953 4.71258 8.93815L5.21185 8.9112ZM9.6675 8.68745C9.8106 8.68745 9.9173 8.80405 9.9093 8.9358L10.4084 8.9661C10.4345 8.5358 10.0875 8.18745 9.6675 8.18745V8.68745ZM1.56715 8.9321C1.54952 8.81045 1.6472 8.68745 1.79769 8.68745V8.18745C1.3704 8.18745 1.0071 8.55365 1.07232 9.0038L1.56715 8.9321ZM14.2426 4.19678C14.3617 4.09614 14.374 3.91925 14.2744 3.80281L13.8944 4.12779C13.8155 4.03556 13.8251 3.89506 13.9198 3.81498L14.2426 4.19678ZM6.0907 8.9358C6.0827 8.80405 6.18945 8.68745 6.3325 8.68745V8.18745C5.9125 8.18745 5.5655 8.5358 5.5916 8.9661L6.0907 8.9358ZM5.3381 5.77635C5.39025 5.40635 5.1704 5.05505 4.82365 4.93105L4.6553 5.40185C4.78381 5.4478 4.8613 5.5768 4.84302 5.7066L5.3381 5.77635ZM14.2851 3.90752C14.3462 4.00131 14.3273 4.12518 14.2426 4.19678L13.9198 3.81498C13.8128 3.90549 13.789 4.06203 13.866 4.18035L14.2851 3.90752ZM11.2874 8.93815C11.2951 8.7953 11.4108 8.68745 11.5446 8.68745V8.18745C11.1359 8.18745 10.8097 8.51235 10.7881 8.9112L11.2874 8.93815ZM4.45541 7.81245C4.86408 7.81245 5.1903 7.4876 5.21185 7.08875L4.71259 7.06175C4.70488 7.20465 4.58922 7.31245 4.45541 7.31245V7.81245ZM11.3916 10.3941C11.2548 10.3564 11.1672 10.2242 11.1845 10.0881L10.6884 10.0253C10.6393 10.4126 10.8868 10.7736 11.2587 10.8761L11.3916 10.3941ZM1.07233 6.9961C1.00711 7.44625 1.37041 7.81245 1.7977 7.81245V7.31245C1.64721 7.31245 1.54954 7.1895 1.56716 7.0678L1.07233 6.9961ZM14.2727 12.2078C14.3738 12.0896 14.3602 11.9105 14.2396 11.8096L13.9186 12.193C13.8246 12.1142 13.8141 11.9747 13.8927 11.8828L14.2727 12.2078ZM14.9277 9.0038C14.9929 8.55365 14.6296 8.18745 14.2023 8.18745V8.68745C14.3528 8.68745 14.4505 8.81045 14.4328 8.9321L14.9277 9.0038ZM4.74655 4.50243C5.1694 4.6667 5.59925 4.40014 5.7186 4.00432L5.2399 3.85995C5.19285 4.01599 5.04205 4.08081 4.92761 4.03636L4.74655 4.50243ZM5.5916 7.03385C5.5655 7.4641 5.9125 7.81245 6.33255 7.81245V7.31245C6.18945 7.31245 6.0827 7.1959 6.0907 7.0641L5.5916 7.03385ZM4.82469 11.0779C5.17175 10.9539 5.3917 10.6023 5.3393 10.2321L4.84424 10.3021C4.86262 10.432 4.78508 10.5611 4.65647 10.6071L4.82469 11.0779ZM6.56805 11.7704C6.5302 11.6447 6.61055 11.5172 6.7401 11.4971L6.6632 11.003C6.2336 11.0699 5.96395 11.4984 6.0893 11.9146L6.56805 11.7704ZM13.6954 12.4952C13.5898 12.4055 13.4312 12.4184 13.3414 12.5244L13.7229 12.8475C13.6338 12.9526 13.4766 12.9653 13.3718 12.8764L13.6954 12.4952ZM14.2023 7.81245C14.6296 7.81245 14.9929 7.4463 14.9277 6.99615L14.4328 7.06785C14.4504 7.1895 14.3528 7.31245 14.2023 7.31245V7.81245ZM3.05026 3.05026C2.90965 3.19086 2.91817 3.42341 3.07339 3.55209L3.39249 3.16716C3.46615 3.22823 3.4695 3.33812 3.40381 3.40381L3.05026 3.05026ZM14.2396 11.8096C14.3245 11.8806 14.3429 12.0038 14.2824 12.0966L13.8636 11.8235C13.7857 11.9428 13.8094 12.1015 13.9186 12.193L14.2396 11.8096ZM2.58557 4.40357C2.59755 4.38555 2.61587 4.37369 2.64182 4.37035C2.66939 4.36679 2.70181 4.37386 2.72952 4.39461L3.02948 3.99458C2.77119 3.80119 2.37052 3.82366 2.16908 4.12693L2.58557 4.40357ZM9.82575 9.8462C9.81045 9.96985 9.6909 10.0704 9.54185 10.0559L9.49315 10.5535C9.88665 10.592 10.2702 10.325 10.3219 9.90765L9.82575 9.8462ZM2.17646 11.8841C2.37684 12.1846 2.77415 12.2065 3.02993 12.0138L2.72906 11.6144C2.70262 11.6343 2.67161 11.6412 2.64543 11.6379C2.62087 11.6348 2.6037 11.6236 2.59243 11.6067L2.17646 11.8841ZM11.2597 5.133C10.888 5.23555 10.6407 5.5962 10.6895 5.98335L11.1856 5.9208C11.1685 5.78475 11.256 5.6527 11.3926 5.615L11.2597 5.133ZM5.15795 2.15425C5.1998 2.13389 5.24155 2.13311 5.2948 2.15753C5.3545 2.18489 5.4241 2.24388 5.4863 2.33438C5.61815 2.52615 5.65225 2.75602 5.5935 2.89011L6.05145 3.09074C6.204 2.74261 6.0879 2.32688 5.89835 2.05115C5.7999 1.9079 5.666 1.77766 5.5032 1.70302C5.33395 1.62542 5.1342 1.60984 4.93934 1.70457L5.15795 2.15425Z" fill="url(#paint2_linear_448_251)"/>
</g>
<defs>
<linearGradient id="paint0_linear_448_251" x1="8" y1="15" x2="8" y2="1" gradientUnits="userSpaceOnUse">
<stop stop-color="#5570FF"/>
<stop offset="1" stop-color="#4DD3FF"/>
</linearGradient>
<linearGradient id="paint1_linear_448_251" x1="8" y1="15.25" x2="8" y2="0.75" gradientUnits="userSpaceOnUse">
<stop stop-color="#5570FF"/>
<stop offset="1" stop-color="#4DD3FF"/>
</linearGradient>
<linearGradient id="paint2_linear_448_251" x1="8" y1="15.25" x2="8" y2="0.75" gradientUnits="userSpaceOnUse">
<stop stop-color="#5570FF"/>
<stop offset="1" stop-color="#4DD3FF"/>
</linearGradient>
<clipPath id="clip0_448_251">
<rect width="16" height="16" fill="white"/>
</clipPath>
</defs>
</svg>
