<svg width="16" height="16" viewBox="0 0 16 16" fill="none" xmlns="http://www.w3.org/2000/svg">
<g clip-path="url(#clip0_448_407)">
<path opacity="0.4" d="M0.666626 8.00033C0.666626 4.54339 0.666626 2.81493 1.74023 1.74059C2.81529 0.666992 4.54303 0.666992 7.99996 0.666992C11.4569 0.666992 13.1854 0.666992 14.259 1.74059C15.3333 2.81566 15.3333 4.54339 15.3333 8.00033C15.3333 11.4573 15.3333 13.1857 14.259 14.2593C13.1861 15.3337 11.4569 15.3337 7.99996 15.3337C4.54303 15.3337 2.81456 15.3337 1.74023 14.2593C0.666626 13.1865 0.666626 11.4573 0.666626 8.00033Z" fill="url(#paint0_linear_448_407)"/>
<path fill-rule="evenodd" clip-rule="evenodd" d="M4.82697 4.13502C4.82697 4.06045 4.88741 4 4.96199 4H5.77211C5.84669 4 5.90713 4.06045 5.90713 4.13502V4.94515C5.90713 5.01972 5.96758 5.08017 6.04215 5.08017H6.44722C7.08603 5.08017 7.63103 5.44918 7.89423 5.98437C7.93536 6.06801 7.87049 6.16034 7.77729 6.16034H6.44722H6.04215C5.96758 6.16034 5.90713 6.22079 5.90713 6.29536V7.10547C5.90713 7.18007 5.96758 7.24053 6.04215 7.24053H6.44722C7.34483 7.24053 8.06749 7.96313 8.06749 8.86073C8.06749 9.7584 7.34483 10.481 6.44722 10.481H6.04215C5.96758 10.481 5.90713 10.5415 5.90713 10.6161V11.4261C5.90713 11.5007 5.84669 11.5612 5.77211 11.5612H4.96199C4.88741 11.5612 4.82697 11.5007 4.82697 11.4261V10.6161C4.82697 10.5415 4.76651 10.481 4.69194 10.481H4.28688C3.64807 10.481 3.10305 10.112 2.8399 9.5768C2.79876 9.4932 2.86359 9.40087 2.95681 9.40087H4.28688H4.69194C4.76651 9.40087 4.82697 9.3404 4.82697 9.2658V8.45567C4.82697 8.38113 4.76651 8.32067 4.69194 8.32067H4.28688C3.38926 8.32067 2.66663 7.59807 2.66663 6.7004C2.66663 5.8028 3.38926 5.08017 4.28688 5.08017H4.69194C4.76651 5.08017 4.82697 5.01972 4.82697 4.94515V4.13502ZM4.69194 6.16034H4.28688C3.96899 6.16034 3.74679 6.38253 3.74679 6.7004C3.74679 7.01833 3.96899 7.24053 4.28688 7.24053H4.69194C4.76651 7.24053 4.82697 7.18007 4.82697 7.10547V6.29536C4.82697 6.22079 4.76651 6.16034 4.69194 6.16034ZM6.04215 8.32067C5.96758 8.32067 5.90713 8.38113 5.90713 8.45567V9.2658C5.90713 9.3404 5.96758 9.40087 6.04215 9.40087H6.44722C6.76509 9.40087 6.98729 9.17867 6.98729 8.86073C6.98729 8.54287 6.76509 8.32067 6.44722 8.32067H6.04215ZM9.28269 9.94093H13.0632C13.2124 9.94093 13.3333 10.0618 13.3333 10.211V10.7511C13.3333 10.9002 13.2124 11.0211 13.0632 11.0211H9.28269C9.13349 11.0211 9.01263 10.9002 9.01263 10.7511V10.211C9.01263 10.0618 9.13349 9.94093 9.28269 9.94093Z" fill="url(#paint1_linear_448_407)"/>
</g>
<defs>
<linearGradient id="paint0_linear_448_407" x1="0.45463" y1="0.811312" x2="15.5747" y2="16.394" gradientUnits="userSpaceOnUse">
<stop stop-color="#F9D423"/>
<stop offset="0.515624" stop-color="#FF4E50"/>
<stop offset="0.991304" stop-color="#8A2387"/>
</linearGradient>
<linearGradient id="paint1_linear_448_407" x1="2.51245" y1="4.07439" x2="9.79496" y2="14.6623" gradientUnits="userSpaceOnUse">
<stop stop-color="#F9D423"/>
<stop offset="0.515624" stop-color="#FF4E50"/>
<stop offset="0.991304" stop-color="#8A2387"/>
</linearGradient>
<clipPath id="clip0_448_407">
<rect width="16" height="16" fill="white"/>
</clipPath>
</defs>
</svg>
