<svg width="16" height="16" viewBox="0 0 16 16" fill="none" xmlns="http://www.w3.org/2000/svg">
<path d="M7.54375 3.60059C7.43329 3.60059 7.34375 3.69013 7.34375 3.80059V4.16621C7.34375 4.27667 7.43329 4.36621 7.54375 4.36621H13.4405C13.6187 4.36621 13.7079 4.58164 13.582 4.70763L9.01642 9.27313C8.93832 9.35124 8.81168 9.35124 8.73358 9.27313L7.68517 8.22472C7.55918 8.09873 7.34375 8.18796 7.34375 8.36615V8.87712C7.34375 8.93016 7.36482 8.98103 7.40233 9.01854L8.73454 10.3508C8.81227 10.4285 8.93816 10.4289 9.01641 10.3517L10.5041 8.88413C10.5823 8.80694 10.7082 8.80736 10.786 8.88509L13.582 11.681C13.7079 11.807 13.6187 12.0225 13.4405 12.0225H7.54375C7.43329 12.0225 7.34375 12.112 7.34375 12.2225V12.5881C7.34375 12.6986 7.43329 12.7881 7.54375 12.7881H14.8C14.9105 12.7881 15 12.6986 15 12.5881V3.80059C15 3.69013 14.9105 3.60059 14.8 3.60059H7.54375ZM13.893 5.47326C14.0189 5.34727 14.2344 5.4365 14.2344 5.61468V10.774C14.2344 10.9522 14.0189 11.0414 13.893 10.9154L11.3133 8.33576C11.2352 8.25765 11.2352 8.13102 11.3133 8.05292L13.893 5.47326Z" fill="url(#paint0_linear_448_418)" stroke="url(#paint1_linear_448_418)" stroke-width="0.4"/>
<g opacity="0.4">
<path d="M1 7.07559V6.42559C1 6.31513 1.08954 6.22559 1.2 6.22559H6.05C6.16046 6.22559 6.25 6.31513 6.25 6.42559V7.07559C6.25 7.18604 6.16046 7.27559 6.05 7.27559H1.2C1.08954 7.27559 1 7.18604 1 7.07559Z" fill="url(#paint2_linear_448_418)"/>
<path d="M3.09998 9.02578V8.37578C3.09998 8.26532 3.18952 8.17578 3.29998 8.17578H6.04998C6.16044 8.17578 6.24998 8.26532 6.24998 8.37578V9.02578C6.24998 9.13623 6.16044 9.22578 6.04998 9.22578H3.29998C3.18952 9.22578 3.09998 9.13623 3.09998 9.02578Z" fill="url(#paint3_linear_448_418)"/>
<path d="M4.15002 10.976V10.326C4.15002 10.2155 4.23956 10.126 4.35002 10.126H6.05002C6.16048 10.126 6.25002 10.2155 6.25002 10.326V10.976C6.25002 11.0865 6.16048 11.176 6.05002 11.176H4.35002C4.23956 11.176 4.15002 11.0865 4.15002 10.976Z" fill="url(#paint4_linear_448_418)"/>
</g>
<defs>
<linearGradient id="paint0_linear_448_418" x1="8.875" y1="12.7881" x2="8.875" y2="3.60059" gradientUnits="userSpaceOnUse">
<stop stop-color="#FD2E00"/>
<stop offset="1" stop-color="#FF9900"/>
</linearGradient>
<linearGradient id="paint1_linear_448_418" x1="8.875" y1="12.7881" x2="8.875" y2="3.60059" gradientUnits="userSpaceOnUse">
<stop stop-color="#FD2E00"/>
<stop offset="1" stop-color="#FF9900"/>
</linearGradient>
<linearGradient id="paint2_linear_448_418" x1="9.4" y1="15.6756" x2="9.4" y2="3.07559" gradientUnits="userSpaceOnUse">
<stop stop-color="#FD2E00"/>
<stop offset="1" stop-color="#FF9900"/>
</linearGradient>
<linearGradient id="paint3_linear_448_418" x1="9.39998" y1="15.6758" x2="9.39998" y2="3.07579" gradientUnits="userSpaceOnUse">
<stop stop-color="#FD2E00"/>
<stop offset="1" stop-color="#FF9900"/>
</linearGradient>
<linearGradient id="paint4_linear_448_418" x1="9.40002" y1="15.676" x2="9.40002" y2="3.07598" gradientUnits="userSpaceOnUse">
<stop stop-color="#FD2E00"/>
<stop offset="1" stop-color="#FF9900"/>
</linearGradient>
</defs>
</svg>
