<svg width="16" height="16" viewBox="0 0 16 16" fill="none" xmlns="http://www.w3.org/2000/svg">
<path d="M15 10.5588C15 12.5118 13.432 14.0938 11.479 14.1008H11.472H4.535C2.589 14.1008 1 12.5258 1 10.5728V10.5658C1 10.5658 1.0042 7.46758 1.0098 5.90938C1.0105 5.61678 1.3465 5.45298 1.5754 5.63498C3.2386 6.95448 6.2129 9.36038 6.25 9.39188C6.747 9.79018 7.377 10.0149 8.021 10.0149C8.665 10.0149 9.295 9.79018 9.792 9.38418C9.8291 9.35968 12.7369 7.02588 14.4253 5.68468C14.6549 5.50198 14.9923 5.66578 14.993 5.95768C15 7.50398 15 10.5588 15 10.5588Z" fill="url(#paint0_linear_448_424)"/>
<path opacity="0.4" d="M14.6333 3.3718C14.0271 2.2294 12.8343 1.5 11.5211 1.5H4.5351C3.2219 1.5 2.0291 2.2294 1.4229 3.3718C1.2871 3.6273 1.3515 3.9458 1.5776 4.1264L6.7751 8.2837C7.1391 8.5777 7.5801 8.724 8.0211 8.724C8.0239 8.724 8.026 8.724 8.0281 8.724C8.0302 8.724 8.033 8.724 8.0351 8.724C8.4761 8.724 8.9171 8.5777 9.2811 8.2837L14.4786 4.1264C14.7047 3.9458 14.7691 3.6273 14.6333 3.3718Z" fill="url(#paint1_linear_448_424)"/>
<defs>
<linearGradient id="paint0_linear_448_424" x1="0.79764" y1="5.64263" x2="8.5222" y2="18.6899" gradientUnits="userSpaceOnUse">
<stop stop-color="#F9D423"/>
<stop offset="0.515624" stop-color="#FF4E50"/>
<stop offset="0.991304" stop-color="#8A2387"/>
</linearGradient>
<linearGradient id="paint1_linear_448_424" x1="1.15925" y1="1.57109" x2="7.29205" y2="13.2528" gradientUnits="userSpaceOnUse">
<stop stop-color="#F9D423"/>
<stop offset="0.515624" stop-color="#FF4E50"/>
<stop offset="0.991304" stop-color="#8A2387"/>
</linearGradient>
</defs>
</svg>
