<svg width="17" height="16" viewBox="0 0 17 16" fill="none" xmlns="http://www.w3.org/2000/svg">
<path opacity="0.4" d="M13.3506 10.7783H7.50616C7.35889 10.7783 7.23949 10.8977 7.23949 11.045V11.8895C7.23949 12.0368 7.18096 12.1781 7.07683 12.2823C6.97263 12.3865 6.83129 12.445 6.68396 12.445C6.53662 12.445 6.39531 12.3865 6.29113 12.2823C6.18694 12.1781 6.12841 12.0368 6.12841 11.8895V11.045C6.12841 10.8977 6.00901 10.7783 5.86174 10.7783H5.28396C5.13669 10.7783 5.01729 10.8977 5.01729 11.045V11.8895C5.01729 12.0368 4.95876 12.1781 4.85457 12.2823C4.75039 12.3865 4.60908 12.445 4.46174 12.445C4.31439 12.445 4.17309 12.3865 4.0689 12.2823C3.96471 12.1781 3.90618 12.0368 3.90618 11.8895V11.045C3.90618 10.8977 3.78679 10.7783 3.63951 10.7783H3.35063C2.9086 10.7783 2.48467 10.9539 2.17211 11.2665C1.85955 11.5791 1.68396 12.003 1.68396 12.445C1.68396 12.887 1.85955 13.3109 2.17211 13.6235C2.48467 13.9361 2.9086 14.1117 3.35063 14.1117H13.3506C13.7926 14.1117 14.2166 13.9361 14.5292 13.6235C14.8417 13.3109 15.0173 12.887 15.0173 12.445C15.0173 12.003 14.8417 11.5791 14.5292 11.2665C14.2166 10.9539 13.7926 10.7783 13.3506 10.7783Z" fill="url(#paint0_linear_448_429)"/>
<path opacity="0.7" d="M13.3506 6.33301H7.50616C7.35889 6.33301 7.23949 6.4524 7.23949 6.59967V7.44414C7.23949 7.59147 7.18096 7.73274 7.07683 7.83694C6.97263 7.94114 6.83129 7.99967 6.68396 7.99967C6.53662 7.99967 6.39531 7.94114 6.29113 7.83694C6.18694 7.73274 6.12841 7.59147 6.12841 7.44414V6.59967C6.12841 6.4524 6.00901 6.33301 5.86174 6.33301H5.28396C5.13669 6.33301 5.01729 6.4524 5.01729 6.59967V7.44414C5.01729 7.59147 4.95876 7.73274 4.85457 7.83694C4.75039 7.94114 4.60908 7.99967 4.46174 7.99967C4.31439 7.99967 4.17309 7.94114 4.0689 7.83694C3.96471 7.73274 3.90618 7.59147 3.90618 7.44414V6.59967C3.90618 6.4524 3.78679 6.33301 3.63951 6.33301H3.35063C2.9086 6.33301 2.48467 6.5086 2.17211 6.82114C1.85955 7.13374 1.68396 7.55767 1.68396 7.99967C1.68396 8.44167 1.85955 8.86561 2.17211 9.17821C2.48467 9.49074 2.9086 9.66634 3.35063 9.66634H13.3506C13.7926 9.66634 14.2166 9.49074 14.5292 9.17821C14.8417 8.86561 15.0173 8.44167 15.0173 7.99967C15.0173 7.55767 14.8417 7.13374 14.5292 6.82114C14.2166 6.5086 13.7926 6.33301 13.3506 6.33301Z" fill="url(#paint1_linear_448_429)"/>
<path d="M13.3506 1.88867H7.50616C7.35889 1.88867 7.23949 2.00806 7.23949 2.15534V2.99978C7.23949 3.14713 7.18096 3.28843 7.07683 3.39262C6.97263 3.49681 6.83129 3.55534 6.68396 3.55534C6.53662 3.55534 6.39531 3.49681 6.29113 3.39262C6.18694 3.28843 6.12841 3.14713 6.12841 2.99978V2.15534C6.12841 2.00806 6.00901 1.88867 5.86174 1.88867H5.28396C5.13669 1.88867 5.01729 2.00806 5.01729 2.15534V2.99978C5.01729 3.14713 4.95876 3.28843 4.85457 3.39262C4.75039 3.49681 4.60908 3.55534 4.46174 3.55534C4.31439 3.55534 4.17309 3.49681 4.0689 3.39262C3.96471 3.28843 3.90618 3.14713 3.90618 2.99978V2.15534C3.90618 2.00806 3.78679 1.88867 3.63951 1.88867H3.35063C2.9086 1.88867 2.48467 2.06427 2.17211 2.37683C1.85955 2.68939 1.68396 3.11331 1.68396 3.55534C1.68396 3.99737 1.85955 4.42129 2.17211 4.73385C2.48467 5.04641 2.9086 5.22201 3.35063 5.22201H13.3506C13.7926 5.22201 14.2166 5.04641 14.5292 4.73385C14.8417 4.42129 15.0173 3.99737 15.0173 3.55534C15.0173 3.11331 14.8417 2.68939 14.5292 2.37683C14.2166 2.06427 13.7926 1.88867 13.3506 1.88867Z" fill="url(#paint2_linear_448_429)"/>
<defs>
<linearGradient id="paint0_linear_448_429" x1="8.35063" y1="14.1117" x2="8.35063" y2="10.7783" gradientUnits="userSpaceOnUse">
<stop stop-color="#5570FF"/>
<stop offset="1" stop-color="#4DD3FF"/>
</linearGradient>
<linearGradient id="paint1_linear_448_429" x1="8.35063" y1="9.66634" x2="8.35063" y2="6.33301" gradientUnits="userSpaceOnUse">
<stop stop-color="#5570FF"/>
<stop offset="1" stop-color="#4DD3FF"/>
</linearGradient>
<linearGradient id="paint2_linear_448_429" x1="8.35063" y1="5.22201" x2="8.35063" y2="1.88867" gradientUnits="userSpaceOnUse">
<stop stop-color="#5570FF"/>
<stop offset="1" stop-color="#4DD3FF"/>
</linearGradient>
</defs>
</svg>
