<svg width="16" height="16" viewBox="0 0 16 16" fill="none" xmlns="http://www.w3.org/2000/svg">
<g clip-path="url(#clip0_448_433)">
<path opacity="0.4" d="M7.99996 15.3337C12.05 15.3337 15.3333 12.0504 15.3333 8.00033C15.3333 3.95023 12.05 0.666992 7.99996 0.666992C3.94987 0.666992 0.666626 3.95023 0.666626 8.00033C0.666626 12.0504 3.94987 15.3337 7.99996 15.3337Z" fill="url(#paint0_linear_448_433)"/>
<path d="M5.48833 6.12813C5.3512 4.59987 4.17273 3.17573 3.6 2.65507L3.28467 2.38373C4.60437 1.27257 6.2748 0.664409 8 0.667C9.6236 0.667 11.124 1.195 12.3384 2.08673C12.51 2.60813 12.1829 3.69713 11.8397 4.2178C11.7151 4.40627 11.4335 4.64093 11.124 4.86313C10.4273 5.364 9.54733 5.61113 9.1 6.53367C8.9882 6.76593 8.96653 7.03139 9.03913 7.27873C9.08313 7.44006 9.11247 7.61533 9.11247 7.78619C9.11393 8.33986 8.55367 8.73953 8 8.73366C6.55973 8.71826 5.61667 7.55739 5.48833 6.12813ZM9.0538 12.6027C9.77833 11.2373 12.1932 11.2373 12.1932 11.2373C14.71 11.2109 15.0503 9.68259 15.2776 8.91039C15.0771 10.5099 14.3555 11.9989 13.2242 13.1473C12.0929 14.2957 10.6149 15.0395 9.0186 15.264C8.78173 14.7653 8.5016 13.6433 9.0538 12.6027Z" fill="url(#paint1_linear_448_433)"/>
</g>
<defs>
<linearGradient id="paint0_linear_448_433" x1="7.99996" y1="0.666992" x2="7.99996" y2="15.3337" gradientUnits="userSpaceOnUse">
<stop stop-color="#DC18FC"/>
<stop offset="1" stop-color="#8E1EFF"/>
</linearGradient>
<linearGradient id="paint1_linear_448_433" x1="9.28114" y1="0.666994" x2="9.28114" y2="15.264" gradientUnits="userSpaceOnUse">
<stop stop-color="#DC18FC"/>
<stop offset="1" stop-color="#8E1EFF"/>
</linearGradient>
<clipPath id="clip0_448_433">
<rect width="16" height="16" fill="white"/>
</clipPath>
</defs>
</svg>
