<svg width="16" height="16" viewBox="0 0 16 16" fill="none" xmlns="http://www.w3.org/2000/svg">
<path opacity="0.4" d="M3.91668 11.3334H7.4167V12.5H5.08335C4.92864 12.5 4.78026 12.5614 4.67087 12.6708C4.56147 12.7802 4.50001 12.9286 4.50001 13.0834C4.50001 13.2381 4.56147 13.3864 4.67087 13.4958C4.78026 13.6052 4.92864 13.6666 5.08335 13.6666H10.9167C11.0714 13.6666 11.2198 13.6052 11.3292 13.4958C11.4386 13.3864 11.5 13.2381 11.5 13.0834C11.5 12.9286 11.4386 12.7802 11.3292 12.6708C11.2198 12.5614 11.0714 12.5 10.9167 12.5H8.58335V11.3334H12.0834C12.7555 11.3325 13.4067 11.1 13.9274 10.6749C14.4481 10.2499 14.8063 9.65835 14.9417 9H1.05835C1.19374 9.65835 1.55195 10.2499 2.07262 10.6749C2.59328 11.1 3.24456 11.3325 3.91668 11.3334Z" fill="url(#paint0_linear_448_444)"/>
<path d="M12.0834 2H3.91667C3.14341 2.00093 2.40207 2.30851 1.85529 2.85529C1.30851 3.40207 1.00093 4.14341 1 4.91667V9H15V4.91667C14.999 4.14341 14.6915 3.40207 14.1447 2.85529C13.5979 2.30851 12.8566 2.00093 12.0834 2Z" fill="url(#paint1_linear_448_444)"/>
<defs>
<linearGradient id="paint0_linear_448_444" x1="0.857675" y1="9.0459" x2="3.69544" y2="17.7466" gradientUnits="userSpaceOnUse">
<stop stop-color="#F9D423"/>
<stop offset="0.515624" stop-color="#FF4E50"/>
<stop offset="0.991304" stop-color="#8A2387"/>
</linearGradient>
<linearGradient id="paint1_linear_448_444" x1="0.79764" y1="2.06888" x2="6.46825" y2="13.7571" gradientUnits="userSpaceOnUse">
<stop stop-color="#F9D423"/>
<stop offset="0.515624" stop-color="#FF4E50"/>
<stop offset="0.991304" stop-color="#8A2387"/>
</linearGradient>
</defs>
</svg>
