<svg width="16" height="16" viewBox="0 0 16 16" fill="none" xmlns="http://www.w3.org/2000/svg">
<path d="M6.20539 14.4405V12.1915C6.20537 11.6216 6.66878 11.1586 7.24285 11.155H9.35058C9.92718 11.155 10.3946 11.6191 10.3946 12.1915V14.434C10.3946 14.9283 10.7962 15.3301 11.2941 15.3337H12.7321C13.4037 15.3354 14.0484 15.0717 14.5239 14.6009C14.9994 14.13 15.2666 13.4906 15.2666 12.8239V6.43528C15.2666 5.89668 15.0262 5.38578 14.61 5.04023L9.72485 1.16146C8.87091 0.483015 7.65125 0.504931 6.82258 1.21361L2.04245 5.04023C1.60665 5.37559 1.34619 5.88801 1.33331 6.43528V12.8173C1.33331 14.2071 2.46806 15.3337 3.86784 15.3337H5.27299C5.51271 15.3354 5.74321 15.2421 5.91333 15.0744C6.08345 14.9067 6.17913 14.6785 6.17912 14.4405H6.20539Z" fill="url(#paint0_linear_448_447)"/>
<defs>
<linearGradient id="paint0_linear_448_447" x1="8.29998" y1="15.3337" x2="8.29998" y2="0.666992" gradientUnits="userSpaceOnUse">
<stop stop-color="#02AA93"/>
<stop offset="1" stop-color="#67FF80"/>
</linearGradient>
</defs>
</svg>
