<svg width="16" height="16" viewBox="0 0 16 16" fill="none" xmlns="http://www.w3.org/2000/svg">
<path opacity="0.4" d="M13.1503 6.24185C13.1503 6.28945 12.7772 11.008 12.5642 12.9938C12.4307 14.2125 11.6451 14.9517 10.4666 14.9727C9.56123 14.993 8.67483 15 7.80273 15C6.87688 15 5.97143 14.993 5.09253 14.9727C3.95357 14.9454 3.16726 14.1915 3.04063 12.9938C2.82142 11.001 2.45515 6.28945 2.44835 6.24185C2.44154 6.09835 2.48783 5.96185 2.58178 5.85125C2.67437 5.7491 2.8078 5.6875 2.94804 5.6875H12.6574C12.797 5.6875 12.9236 5.7491 13.0237 5.85125C13.117 5.96185 13.1639 6.09835 13.1503 6.24185Z" fill="url(#paint0_linear_448_449)"/>
<path d="M14.1 3.7838C14.1 3.49611 13.8733 3.27072 13.601 3.27072H11.56C11.1447 3.27072 10.7839 2.97533 10.6913 2.55885L10.577 2.04856C10.417 1.43188 9.86485 1 9.2453 1H6.35535C5.72905 1 5.1824 1.43189 5.01625 2.08216L4.90938 2.55955C4.81611 2.97533 4.4553 3.27072 4.0407 3.27072H1.99969C1.7267 3.27072 1.5 3.49611 1.5 3.7838V4.0498C1.5 4.33049 1.7267 4.56287 1.99969 4.56287H13.601C13.8733 4.56287 14.1 4.33049 14.1 4.0498V3.7838Z" fill="url(#paint1_linear_448_449)"/>
<defs>
<linearGradient id="paint0_linear_448_449" x1="13.1209" y1="5.7465" x2="3.96048" y2="16.189" gradientUnits="userSpaceOnUse">
<stop stop-color="#FE7970"/>
<stop offset="1" stop-color="#DC3282"/>
</linearGradient>
<linearGradient id="paint1_linear_448_449" x1="14.0626" y1="1.02258" x2="12.1984" y2="7.56065" gradientUnits="userSpaceOnUse">
<stop stop-color="#FE7970"/>
<stop offset="1" stop-color="#DC3282"/>
</linearGradient>
</defs>
</svg>
