<svg width="16" height="16" viewBox="0 0 16 16" fill="none" xmlns="http://www.w3.org/2000/svg">
<path d="M2.25296 1.68308C2.03 1.4463 1.6563 1.4381 1.42316 1.66486L1.17626 1.90501C0.948254 2.1268 0.940444 2.49052 1.15872 2.72189L4.38484 6.14145C4.59553 6.36475 4.59659 6.7133 4.38727 6.9379L1.18038 10.379C0.964464 10.6107 0.973349 10.9724 1.20036 11.1932L1.44731 11.4334C1.68139 11.6611 2.05692 11.6518 2.27941 11.4128L6.3294 7.0618L6.4477 6.93565C6.6573 6.71215 6.6578 6.3644 6.4488 6.1403L6.3294 6.01225L2.25296 1.68308Z" fill="url(#paint0_linear_448_455)" stroke="url(#paint1_linear_448_455)" stroke-width="2"/>
<path opacity="0.4" d="M5.91765 12.29C5.27455 12.29 4.75323 12.8114 4.75323 13.4544V13.8038C4.75323 14.4468 5.27455 14.9682 5.91765 14.9682H13.8356C14.4786 14.9682 15 14.4468 15 13.8038V13.4544C15 12.8114 14.4786 12.29 13.8356 12.29H5.91765Z" fill="url(#paint2_linear_448_455)"/>
<defs>
<linearGradient id="paint0_linear_448_455" x1="0.918979" y1="1.59936" x2="9.89705" y2="6.73525" gradientUnits="userSpaceOnUse">
<stop stop-color="#F9D423"/>
<stop offset="0.515624" stop-color="#FF4E50"/>
<stop offset="0.991304" stop-color="#8A2387"/>
</linearGradient>
<linearGradient id="paint1_linear_448_455" x1="0.918979" y1="1.59936" x2="9.89705" y2="6.73525" gradientUnits="userSpaceOnUse">
<stop stop-color="#F9D423"/>
<stop offset="0.515624" stop-color="#FF4E50"/>
<stop offset="0.991304" stop-color="#8A2387"/>
</linearGradient>
<linearGradient id="paint2_linear_448_455" x1="4.60512" y1="12.3164" x2="5.92145" y2="17.5069" gradientUnits="userSpaceOnUse">
<stop stop-color="#F9D423"/>
<stop offset="0.515624" stop-color="#FF4E50"/>
<stop offset="0.991304" stop-color="#8A2387"/>
</linearGradient>
</defs>
</svg>
