<?xml version="1.0" encoding="UTF-8" standalone="no"?>
<svg
   viewBox="0 0 16 16"
   version="1.1"
   id="svg2"
   sodipodi:docname="drive-harddisk-root.svg"
   inkscape:version="1.3.2 (091e20ef0f, 2023-11-25)"
   xmlns:inkscape="http://www.inkscape.org/namespaces/inkscape"
   xmlns:sodipodi="http://sodipodi.sourceforge.net/DTD/sodipodi-0.dtd"
   xmlns:xlink="http://www.w3.org/1999/xlink"
   xmlns="http://www.w3.org/2000/svg"
   xmlns:svg="http://www.w3.org/2000/svg">
  <defs
     id="defs2">
    <linearGradient
       id="linearGradient2"
       inkscape:collect="always">
      <stop
         style="stop-color:#b380ff;stop-opacity:1"
         offset="0"
         id="stop2" />
      <stop
         style="stop-color:#c83771;stop-opacity:1"
         offset="1"
         id="stop3" />
    </linearGradient>
    <linearGradient
       inkscape:collect="always"
       xlink:href="#linearGradient2"
       id="linearGradient3"
       x1="5"
       y1="2"
       x2="13.566929"
       y2="14"
       gradientUnits="userSpaceOnUse" />
  </defs>
  <sodipodi:namedview
     id="namedview2"
     pagecolor="#ffffff"
     bordercolor="#999999"
     borderopacity="1"
     inkscape:showpageshadow="2"
     inkscape:pageopacity="0"
     inkscape:pagecheckerboard="0"
     inkscape:deskcolor="#d1d1d1"
     showgrid="true"
     inkscape:zoom="47.625"
     inkscape:cx="8"
     inkscape:cy="8"
     inkscape:window-width="1920"
     inkscape:window-height="994"
     inkscape:window-x="0"
     inkscape:window-y="0"
     inkscape:window-maximized="1"
     inkscape:current-layer="svg2">
    <inkscape:grid
       id="grid2"
       units="px"
       originx="0"
       originy="0"
       spacingx="1"
       spacingy="1"
       empcolor="#0099e5"
       empopacity="0.30196078"
       color="#0099e5"
       opacity="0.14901961"
       empspacing="5"
       dotted="false"
       gridanglex="30"
       gridanglez="30"
       visible="true" />
  </sodipodi:namedview>
  <style
     type="text/css"
     id="current-color-scheme">.ColorScheme-Text { color: #fcfcfc; } </style>
  <g
     style="fill:currentColor;fill-opacity:1;stroke:none"
     class="ColorScheme-Text"
     id="g2">
    <path
       d="M 3,3 V 14 H 13 V 3 C 13,2.5023068 12.488103,2 11.905512,2 H 3.9895013 C 3.4731032,1.9912987 3,2.4574475 3,3 Z m 3,0 h 4 c 1.104569,0 2,0.8954305 2,2 v 1 c -1.333333,0 -1.333333,2 0,2 v 2 l -1,1 H 5 L 4,10 V 8 C 5.3333328,8 5.3333328,6 4,6 V 5 C 4,3.8954305 4.8954305,3 6,3 Z m -2,9 h 4 v 1 H 4 Z m 6,0 h 2 v 1 h -2 z"
       id="path1"
       style="fill:url(#linearGradient3);fill-opacity:1"
       sodipodi:nodetypes="cccccccsssccccccccsscccccccccc" />
    <path
       d="m8 4-3 6h1l3-6z"
       id="path2"
       style="fill:#c83771;fill-opacity:1" />
    <rect
       height="1"
       width="3"
       x="8"
       y="9"
       id="rect2"
       style="fill:#c83771;fill-opacity:1" />
  </g>
</svg>
