<?xml version="1.0" encoding="UTF-8" standalone="no"?>
<svg
   width="64"
   height="64"
   viewBox="0 0 64 64"
   fill="none"
   version="1.1"
   id="svg8"
   sodipodi:docname="folder-github.svg"
   inkscape:version="1.3.2 (091e20ef0f, 2023-11-25)"
   xmlns:inkscape="http://www.inkscape.org/namespaces/inkscape"
   xmlns:sodipodi="http://sodipodi.sourceforge.net/DTD/sodipodi-0.dtd"
   xmlns:xlink="http://www.w3.org/1999/xlink"
   xmlns="http://www.w3.org/2000/svg"
   xmlns:svg="http://www.w3.org/2000/svg">
  <sodipodi:namedview
     id="namedview8"
     pagecolor="#ffffff"
     bordercolor="#999999"
     borderopacity="1"
     inkscape:showpageshadow="2"
     inkscape:pageopacity="0"
     inkscape:pagecheckerboard="0"
     inkscape:deskcolor="#d1d1d1"
     inkscape:zoom="8.4189901"
     inkscape:cx="41.691461"
     inkscape:cy="48.699428"
     inkscape:window-width="1920"
     inkscape:window-height="996"
     inkscape:window-x="0"
     inkscape:window-y="0"
     inkscape:window-maximized="1"
     inkscape:current-layer="svg8"
     showgrid="true">
    <inkscape:grid
       id="grid8"
       units="px"
       originx="0"
       originy="0"
       spacingx="1"
       spacingy="1"
       empcolor="#0099e5"
       empopacity="0.30196078"
       color="#0099e5"
       opacity="0.14901961"
       empspacing="5"
       dotted="false"
       gridanglex="30"
       gridanglez="30"
       visible="true" />
  </sodipodi:namedview>
  <path
     d="M 2.0000006,13.052632 C 2.0000006,10.26219 4.3025345,8 7.142858,8 H 18.5 c 2.680038,0 4.494906,2.986967 4.5,3 0,0 1.579803,2 3,2 H 50.857144 C 53.697416,13 56,15.314821 56,18.105263 V 50.947369 C 56,53.737811 53.697416,56 50.857144,56 H 7.142858 C 4.3025345,56 2.0000006,53.737811 2.0000006,50.947369 Z"
     sodipodi:nodetypes="ssscssssssss"
     style="fill:url(#linearGradient17);fill-opacity:1"
     id="path1" />
  <path
     d="m 5.0000007,23 c -0.027159,-3.092358 2.0431224,-5 5.0000003,-5 h 41.000002 c 3.046901,0 4.960649,1.89735 4.999849,5 v 28 c 0.07112,3.081468 -2.113351,5 -4.999849,5 H 10.000001 C 7.0129744,56 5.1372767,54.00847 5.0000007,51 Z"
     id="path2"
     sodipodi:nodetypes="cssccsscc"
     style="fill:url(#linearGradient20)" />
  <path
     d="M 7.4419126,26.935376 C 7.9771531,24.631723 10.042585,23 12.423055,23 H 57 c 3.287487,0 5.606098,2.818799 4.866884,6 L 56.558056,52.064624 C 56.022814,54.368278 53.957383,56 51.576788,56 H 7 C 3.7124609,56 1.0088039,53.021095 2,49 Z"
     id="path3"
     sodipodi:nodetypes="cssccsscc"
     style="fill:url(#linearGradient15)" />
  <defs
     id="defs8">
    <linearGradient
       id="linearGradient2"
       inkscape:collect="always">
      <stop
         style="stop-color:#6f8a91;stop-opacity:0.49000001;"
         offset="0"
         id="stop2" />
      <stop
         style="stop-color:#6f8a91;stop-opacity:0.09;"
         offset="1"
         id="stop17" />
    </linearGradient>
    <linearGradient
       id="linearGradient16"
       inkscape:collect="always">
      <stop
         style="stop-color:#6f8a91;stop-opacity:0.5;"
         offset="0"
         id="stop16" />
      <stop
         style="stop-color:#6f8a91;stop-opacity:0.09634146;"
         offset="1"
         id="stop20" />
    </linearGradient>
    <linearGradient
       id="linearGradient1"
       inkscape:collect="always">
      <stop
         style="stop-color:#6f8a91;stop-opacity:0.80000001;"
         offset="0"
         id="stop1" />
      <stop
         style="stop-color:#6f8a91;stop-opacity:0.1;"
         offset="1"
         id="stop15" />
    </linearGradient>
    <linearGradient
       id="linearGradient19"
       x1="28.7383"
       y1="25"
       x2="28.7383"
       y2="51"
       gradientUnits="userSpaceOnUse"
       spreadMethod="pad">
      <stop
         stop-color="#FFD075"
         stop-opacity="0.8"
         id="stop18"
         style="stop-color:#6f8a91;stop-opacity:0.5;"
         offset="0" />
      <stop
         offset="1"
         stop-color="#FFD075"
         stop-opacity="0"
         id="stop19"
         style="stop-color:#6f8a91;stop-opacity:0.1;" />
    </linearGradient>
    <linearGradient
       id="linearGradient14"
       x1="28.7383"
       y1="25"
       x2="28.7383"
       y2="51"
       gradientUnits="userSpaceOnUse"
       spreadMethod="pad">
      <stop
         stop-color="#FFD075"
         stop-opacity="0.8"
         id="stop13"
         style="stop-color:#6f8a91;stop-opacity:0.80000001;"
         offset="0" />
      <stop
         offset="1"
         stop-color="#FFD075"
         stop-opacity="0"
         id="stop14"
         style="stop-color:#6f8a91;stop-opacity:0.1;" />
    </linearGradient>
    <linearGradient
       id="linearGradient12"
       x1="28.7383"
       y1="25"
       x2="28.7383"
       y2="51"
       gradientUnits="userSpaceOnUse"
       spreadMethod="pad">
      <stop
         stop-color="#FFD075"
         stop-opacity="0.8"
         id="stop11"
         style="stop-color:#00ccff;stop-opacity:0.73780489;"
         offset="0" />
      <stop
         offset="1"
         stop-color="#FFD075"
         stop-opacity="0"
         id="stop12"
         style="stop-color:#aa87de;stop-opacity:0.27073172;" />
    </linearGradient>
    <linearGradient
       id="linearGradient10"
       x1="28.7383"
       y1="25"
       x2="28.7383"
       y2="51"
       gradientUnits="userSpaceOnUse">
      <stop
         stop-color="#FFD075"
         stop-opacity="0.8"
         id="stop9"
         style="stop-color:#00ccff;stop-opacity:0.73780489;"
         offset="0" />
      <stop
         offset="1"
         stop-color="#FFD075"
         stop-opacity="0"
         id="stop10"
         style="stop-color:#aa87de;stop-opacity:0.22560975;" />
    </linearGradient>
    <linearGradient
       id="paint0_linear_403_1580"
       x1="29"
       y1="13"
       x2="29.237558"
       y2="55.988724"
       gradientUnits="userSpaceOnUse"
       xlink:href="#paint2_linear_403_1580">
      <stop
         stop-color="#FFD075"
         stop-opacity="0.5"
         id="stop3"
         style="stop-color:#e580ff;stop-opacity:0.50196081;"
         offset="0" />
      <stop
         offset="1"
         stop-color="#FFD075"
         stop-opacity="0"
         id="stop4"
         style="stop-color:#e580ff;stop-opacity:0.1;" />
    </linearGradient>
    <linearGradient
       id="paint1_linear_403_1580"
       x1="29.912073"
       y1="18.218882"
       x2="30.129253"
       y2="55.988724"
       gradientUnits="userSpaceOnUse">
      <stop
         stop-color="#FFD075"
         stop-opacity="0.5"
         id="stop5"
         offset="0"
         style="stop-color:#6f8a91;stop-opacity:0.5;" />
      <stop
         offset="1"
         stop-color="#FFD075"
         stop-opacity="0"
         id="stop6"
         style="stop-color:#6f8a91;stop-opacity:0.08000001;" />
    </linearGradient>
    <linearGradient
       id="paint2_linear_403_1580"
       x1="28.7383"
       y1="25"
       x2="28.7383"
       y2="51"
       gradientUnits="userSpaceOnUse"
       xlink:href="#linearGradient12">
      <stop
         stop-color="#FFD075"
         stop-opacity="0.8"
         id="stop7"
         style="stop-color:#00ccff;stop-opacity:0.73780489;"
         offset="0" />
      <stop
         offset="1"
         stop-color="#FFD075"
         stop-opacity="0"
         id="stop8"
         style="stop-color:#aa87de;stop-opacity:0.55000001;" />
    </linearGradient>
    <linearGradient
       id="paint179_linear_0_1"
       x1="854.50702"
       y1="1462.6"
       x2="896.10797"
       y2="1476.1801"
       gradientUnits="userSpaceOnUse">
      <stop
         stop-color="white"
         id="stop762" />
      <stop
         offset="1"
         stop-color="white"
         stop-opacity="0"
         id="stop763" />
    </linearGradient>
    <linearGradient
       id="paint180_linear_0_1"
       x1="872.505"
       y1="1444.02"
       x2="894.33801"
       y2="1458.47"
       gradientUnits="userSpaceOnUse">
      <stop
         stop-color="white"
         id="stop764" />
      <stop
         offset="1"
         stop-color="white"
         stop-opacity="0"
         id="stop765" />
    </linearGradient>
    <linearGradient
       id="paint2_linear_77:3-7-3"
       x1="79.398094"
       y1="-197.84389"
       x2="82.901054"
       y2="-199.97827"
       gradientUnits="userSpaceOnUse"
       gradientTransform="matrix(2.00979,0,0,1.7510857,-24.571935,445.89239)">
      <stop
         stop-color="#EBFAFF"
         stop-opacity="0.1"
         id="stop29-5-7-6"
         offset="0"
         style="stop-color:#c3c3c3;stop-opacity:1;" />
      <stop
         offset="1"
         stop-color="#70A9FF"
         stop-opacity="0.5"
         id="stop30-0-1-7"
         style="stop-color:#05c7ff;stop-opacity:0.80000001;" />
    </linearGradient>
    <linearGradient
       id="paint2_linear_77:3-7-3-3"
       x1="79.398094"
       y1="-197.84389"
       x2="82.901054"
       y2="-199.97827"
       gradientUnits="userSpaceOnUse"
       gradientTransform="matrix(3.0978294,0,0,2.7060468,-156.70313,564.9585)">
      <stop
         stop-color="#EBFAFF"
         stop-opacity="0.1"
         id="stop29-5-7-6-6"
         offset="0"
         style="stop-color:#c3c3c3;stop-opacity:1;" />
      <stop
         offset="1"
         stop-color="#70A9FF"
         stop-opacity="0.5"
         id="stop30-0-1-7-7"
         style="stop-color:#05c7ff;stop-opacity:0.80000001;" />
    </linearGradient>
    <linearGradient
       id="paint3_linear_77:20-1"
       x1="65.678299"
       y1="143.98845"
       x2="80.49794"
       y2="151.13704"
       gradientUnits="userSpaceOnUse"
       gradientTransform="matrix(3.3287079,0,0,3.1340572,-270.24995,-360.96374)">
      <stop
         stop-color="#E4F9FF"
         stop-opacity="0.1"
         id="stop35-1"
         offset="0"
         style="stop-color:#b380ff;stop-opacity:0.65629327;" />
      <stop
         offset="1"
         stop-color="#E4F9FF"
         stop-opacity="0.8"
         id="stop36-5"
         style="stop-color:#b380ff;stop-opacity:1;" />
    </linearGradient>
    <filter
       id="filter6_b_77:20-0"
       x="91"
       y="94"
       width="78"
       height="38"
       filterUnits="userSpaceOnUse"
       color-interpolation-filters="sRGB">
      <feFlood
         flood-opacity="0"
         result="BackgroundImageFix"
         id="feFlood21-9" />
      <feGaussianBlur
         in="BackgroundImage"
         stdDeviation="2"
         id="feGaussianBlur21-1" />
      <feComposite
         in2="SourceAlpha"
         operator="in"
         result="effect1_backgroundBlur_77:20"
         id="feComposite21-7" />
      <feBlend
         mode="normal"
         in="SourceGraphic"
         in2="effect1_backgroundBlur_77:20"
         result="shape"
         id="feBlend22-7" />
    </filter>
    <filter
       id="filter8_d_77:20-9"
       x="140"
       y="107"
       width="16"
       height="16"
       filterUnits="userSpaceOnUse"
       color-interpolation-filters="sRGB">
      <feFlood
         flood-opacity="0"
         result="BackgroundImageFix"
         id="feFlood24-7" />
      <feColorMatrix
         in="SourceAlpha"
         type="matrix"
         values="0 0 0 0 0 0 0 0 0 0 0 0 0 0 0 0 0 0 127 0"
         result="hardAlpha"
         id="feColorMatrix24-7" />
      <feOffset
         dy="2"
         id="feOffset24-6" />
      <feGaussianBlur
         stdDeviation="2"
         id="feGaussianBlur24-7" />
      <feComposite
         in2="hardAlpha"
         operator="out"
         id="feComposite24-3" />
      <feColorMatrix
         type="matrix"
         values="0 0 0 0 0.298039 0 0 0 0 0.454902 0 0 0 0 1 0 0 0 0.25 0"
         id="feColorMatrix25-6" />
      <feBlend
         mode="normal"
         in2="BackgroundImageFix"
         result="effect1_dropShadow_77:20"
         id="feBlend25-5" />
      <feBlend
         mode="normal"
         in="SourceGraphic"
         in2="effect1_dropShadow_77:20"
         result="shape"
         id="feBlend26-6" />
    </filter>
    <linearGradient
       inkscape:collect="always"
       xlink:href="#linearGradient1"
       id="linearGradient15"
       x1="31"
       y1="23"
       x2="31"
       y2="57"
       gradientUnits="userSpaceOnUse" />
    <linearGradient
       inkscape:collect="always"
       xlink:href="#linearGradient16"
       id="linearGradient20"
       x1="30"
       y1="18"
       x2="30.500002"
       y2="56"
       gradientUnits="userSpaceOnUse" />
    <linearGradient
       inkscape:collect="always"
       xlink:href="#linearGradient2"
       id="linearGradient17"
       x1="33"
       y1="13"
       x2="33"
       y2="56"
       gradientUnits="userSpaceOnUse" />
  </defs>
  <path
     d="m 26.523961,49.99118 a 0.85358293,0.84885178 0 0 0 0.520248,-0.247855 0.84112154,0.83645946 0 0 0 0.233648,-0.430576 c 0.01866,-0.09293 0.02185,-0.195232 0.01866,-1.115334 v -0.907614 l -0.616824,-0.0022 a 34.277282,34.087293 0 0 1 -0.753891,-0.01566 5.6261715,5.5949873 0 0 1 -0.610595,-0.07759 c -0.704043,-0.133265 -1.255444,-0.3935 -1.651087,-0.777632 a 2.1962626,2.1840897 0 0 1 -0.535823,-0.870638 3.8193153,3.7981458 0 0 0 -0.947039,-1.468446 6.6697843,6.6328155 0 0 0 -0.654207,-0.5669 c -0.323979,-0.260694 -0.404973,-0.350565 -0.404973,-0.431086 0,-0.05283 0.03743,-0.09294 0.146421,-0.142494 a 0.97196287,0.96657559 0 0 1 0.479749,-0.09601 1.5576334,1.5489997 0 0 1 0.672894,0.188962 c 0.286609,0.145618 0.582558,0.368679 0.894086,0.672264 0.190025,0.185874 0.327103,0.337638 0.542052,0.604083 0.654209,0.805489 1.068536,1.109135 1.663551,1.20823 0.17446,0.03108 0.24922,0.03741 0.554522,0.03741 a 3.4267927,3.4077988 0 0 0 0.538936,-0.02784 2.2492216,2.2367547 0 0 0 0.629282,-0.154872 l 0.05293,-0.02473 0.0027,-0.105302 a 2.193147,2.1809912 0 0 1 0.959504,-1.762822 c 0,0 -0.01232,-0.0022 -0.03114,-0.0022 a 14.155769,14.077309 0 0 1 -0.482857,-0.08678 8.2741457,8.2282845 0 0 1 -2.890947,-1.099751 5.2180703,5.1891481 0 0 1 -1.224302,-1.078128 5.0093483,4.9815827 0 0 1 -1.062305,-2.589936 7.9532751,7.9091925 0 0 1 -0.01244,-1.641902 c 0.118378,-1.248519 0.520246,-2.323485 1.208723,-3.252926 0.01244,-0.0157 0.01244,-0.0157 -0.01868,-0.133195 a 6.6105951,6.5739542 0 0 1 0.06229,-3.538069 l 0.01247,-0.04649 h 0.112152 c 0.467289,0.0028 1.074772,0.142508 1.657321,0.374861 a 6.781931,6.7443407 0 0 1 1.691587,0.985159 11.18069,11.118719 0 0 1 2.423691,-0.458487 c 0.367588,-0.03098 0.63552,-0.04027 1.071634,-0.04027 a 11.682247,11.617496 0 0 1 3.395626,0.464677 l 0.102824,0.03098 0.0934,-0.06814 c 0.127737,-0.102211 0.218081,-0.167261 0.380075,-0.272614 0.922121,-0.613399 1.987534,-0.991354 2.866036,-1.019237 l 0.118655,-0.0041 0.0097,0.03406 0.03431,0.133209 a 6.735205,6.6978737 0 0 1 0.01546,3.472825 6.052962,6.0194124 0 0 1 1.049844,2.066356 c 0.168223,0.579353 0.255448,1.161722 0.27732,1.852674 0.0196,0.693864 -0.05949,1.350664 -0.230562,1.939304 a 4.7694714,4.7430359 0 0 1 -1.433027,2.258463 c -0.778846,0.681522 -1.772592,1.171 -3.031167,1.493221 a 12.411219,12.342428 0 0 1 -1.121451,0.229193 c -0.002,0.0013 0.02196,0.02451 0.05607,0.05295 a 2.3052966,2.292519 0 0 1 0.591896,0.650547 c 0.124592,0.21686 0.224298,0.480175 0.264786,0.734207 0.03431,0.198291 0.03098,0.02064 0.03753,2.267764 0,1.92079 0,2.060132 0.01235,2.106658 a 0.88473543,0.87983158 0 0 0 0.137054,0.334569 0.88785045,0.88292936 0 0 0 0.6386,0.371797 c 0.02499,0.0013 -1.894087,0.0022 -4.267894,0.0022 -3.535838,0 -4.299082,0 -4.249237,-0.0099 z"
     id="path6-6-3"
     style="fill:#f9f9f9;fill-opacity:0.74901962" />
</svg>
