<?xml version="1.0" encoding="UTF-8" standalone="no"?>
<svg
   width="64"
   height="64"
   viewBox="0 0 64 64"
   fill="none"
   version="1.1"
   id="svg8"
   sodipodi:docname="folder-amy.svg"
   inkscape:version="1.3.2 (091e20ef0f, 2023-11-25)"
   xmlns:inkscape="http://www.inkscape.org/namespaces/inkscape"
   xmlns:sodipodi="http://sodipodi.sourceforge.net/DTD/sodipodi-0.dtd"
   xmlns:xlink="http://www.w3.org/1999/xlink"
   xmlns="http://www.w3.org/2000/svg"
   xmlns:svg="http://www.w3.org/2000/svg">
  <sodipodi:namedview
     id="namedview8"
     pagecolor="#ffffff"
     bordercolor="#999999"
     borderopacity="1"
     inkscape:showpageshadow="2"
     inkscape:pageopacity="0"
     inkscape:pagecheckerboard="0"
     inkscape:deskcolor="#d1d1d1"
     inkscape:zoom="8.4189901"
     inkscape:cx="41.691461"
     inkscape:cy="44.42338"
     inkscape:window-width="1920"
     inkscape:window-height="996"
     inkscape:window-x="0"
     inkscape:window-y="0"
     inkscape:window-maximized="1"
     inkscape:current-layer="svg8"
     showgrid="true">
    <inkscape:grid
       id="grid8"
       units="px"
       originx="0"
       originy="0"
       spacingx="1"
       spacingy="1"
       empcolor="#0099e5"
       empopacity="0.30196078"
       color="#0099e5"
       opacity="0.14901961"
       empspacing="5"
       dotted="false"
       gridanglex="30"
       gridanglez="30"
       visible="true" />
  </sodipodi:namedview>
  <path
     d="M 2.0000006,13.052632 C 2.0000006,10.26219 4.3025345,8 7.142858,8 H 18.5 c 2.680038,0 4.494906,2.986967 4.5,3 0,0 1.579803,2 3,2 H 50.857144 C 53.697416,13 56,15.314821 56,18.105263 V 50.947369 C 56,53.737811 53.697416,56 50.857144,56 H 7.142858 C 4.3025345,56 2.0000006,53.737811 2.0000006,50.947369 Z"
     id="path1"
     sodipodi:nodetypes="ssscssssssss"
     style="fill:url(#linearGradient17)" />
  <path
     d="m 5.0000007,23 c -0.027159,-3.092358 2.0431224,-5 5.0000003,-5 h 41.000002 c 3.046901,0 4.960649,1.89735 4.999849,5 v 28 c 0.07112,3.081468 -2.113351,5 -4.999849,5 H 10.000001 C 7.0129744,56 5.1372767,54.00847 5.0000007,51 Z"
     id="path2"
     sodipodi:nodetypes="cssccsscc"
     style="fill:url(#linearGradient2)" />
  <path
     d="M 7.4419126,26.935376 C 7.9771531,24.631723 10.042585,23 12.423055,23 H 57 c 3.287487,0 5.606098,2.818799 4.866884,6 L 56.558056,52.064624 C 56.022814,54.368278 53.957383,56 51.576788,56 H 7 C 3.7124609,56 1.0088039,53.021095 2,49 Z"
     id="path3"
     sodipodi:nodetypes="cssccsscc"
     style="fill:url(#linearGradient18)" />
  <defs
     id="defs8">
    <linearGradient
       id="linearGradient4"
       inkscape:collect="always">
      <stop
         style="stop-color:#e580ff;stop-opacity:0.80000001;"
         offset="0"
         id="stop17" />
      <stop
         style="stop-color:#e580ff;stop-opacity:0.1;"
         offset="1"
         id="stop18" />
    </linearGradient>
    <linearGradient
       id="linearGradient1"
       inkscape:collect="always">
      <stop
         style="stop-color:#e580ff;stop-opacity:0.5;"
         offset="0"
         id="stop1" />
      <stop
         style="stop-color:#e580ff;stop-opacity:0.09;"
         offset="1"
         id="stop2" />
    </linearGradient>
    <linearGradient
       id="linearGradient3"
       inkscape:collect="always">
      <stop
         style="stop-color:#e580ff;stop-opacity:0.50196081;"
         offset="0"
         id="stop15" />
      <stop
         style="stop-color:#e580ff;stop-opacity:0.1;"
         offset="1"
         id="stop16" />
    </linearGradient>
    <linearGradient
       id="linearGradient14"
       x1="28.7383"
       y1="25"
       x2="28.7383"
       y2="51"
       gradientUnits="userSpaceOnUse"
       spreadMethod="pad">
      <stop
         stop-color="#FFD075"
         stop-opacity="0.8"
         id="stop13"
         style="stop-color:#e580ff;stop-opacity:0.80000001;"
         offset="0" />
      <stop
         offset="1"
         stop-color="#FFD075"
         stop-opacity="0"
         id="stop14"
         style="stop-color:#e580ff;stop-opacity:0.1;" />
    </linearGradient>
    <linearGradient
       id="linearGradient12"
       x1="28.7383"
       y1="25"
       x2="28.7383"
       y2="51"
       gradientUnits="userSpaceOnUse"
       spreadMethod="pad">
      <stop
         stop-color="#FFD075"
         stop-opacity="0.8"
         id="stop11"
         style="stop-color:#00ccff;stop-opacity:0.73780489;"
         offset="0" />
      <stop
         offset="1"
         stop-color="#FFD075"
         stop-opacity="0"
         id="stop12"
         style="stop-color:#aa87de;stop-opacity:0.27073172;" />
    </linearGradient>
    <linearGradient
       id="linearGradient10"
       x1="28.7383"
       y1="25"
       x2="28.7383"
       y2="51"
       gradientUnits="userSpaceOnUse">
      <stop
         stop-color="#FFD075"
         stop-opacity="0.8"
         id="stop9"
         style="stop-color:#00ccff;stop-opacity:0.73780489;"
         offset="0" />
      <stop
         offset="1"
         stop-color="#FFD075"
         stop-opacity="0"
         id="stop10"
         style="stop-color:#aa87de;stop-opacity:0.22560975;" />
    </linearGradient>
    <linearGradient
       id="paint0_linear_403_1580"
       x1="29"
       y1="13"
       x2="29.237558"
       y2="55.988724"
       gradientUnits="userSpaceOnUse"
       xlink:href="#paint2_linear_403_1580">
      <stop
         stop-color="#FFD075"
         stop-opacity="0.5"
         id="stop3"
         style="stop-color:#e580ff;stop-opacity:0.50196081;"
         offset="0" />
      <stop
         offset="1"
         stop-color="#FFD075"
         stop-opacity="0"
         id="stop4"
         style="stop-color:#e580ff;stop-opacity:0.1;" />
    </linearGradient>
    <linearGradient
       id="paint1_linear_403_1580"
       x1="29.912073"
       y1="18.218882"
       x2="30.129253"
       y2="55.988724"
       gradientUnits="userSpaceOnUse">
      <stop
         stop-color="#FFD075"
         stop-opacity="0.5"
         id="stop5"
         offset="0"
         style="stop-color:#e580ff;stop-opacity:0.5;" />
      <stop
         offset="1"
         stop-color="#FFD075"
         stop-opacity="0"
         id="stop6"
         style="stop-color:#e580ff;stop-opacity:0.1;" />
    </linearGradient>
    <linearGradient
       id="paint2_linear_403_1580"
       x1="28.7383"
       y1="25"
       x2="28.7383"
       y2="51"
       gradientUnits="userSpaceOnUse"
       xlink:href="#linearGradient12">
      <stop
         stop-color="#FFD075"
         stop-opacity="0.8"
         id="stop7"
         style="stop-color:#00ccff;stop-opacity:0.73780489;"
         offset="0" />
      <stop
         offset="1"
         stop-color="#FFD075"
         stop-opacity="0"
         id="stop8"
         style="stop-color:#aa87de;stop-opacity:0.55000001;" />
    </linearGradient>
    <linearGradient
       id="paint179_linear_0_1"
       x1="854.50702"
       y1="1462.6"
       x2="896.10797"
       y2="1476.1801"
       gradientUnits="userSpaceOnUse">
      <stop
         stop-color="white"
         id="stop762" />
      <stop
         offset="1"
         stop-color="white"
         stop-opacity="0"
         id="stop763" />
    </linearGradient>
    <linearGradient
       id="paint180_linear_0_1"
       x1="872.505"
       y1="1444.02"
       x2="894.33801"
       y2="1458.47"
       gradientUnits="userSpaceOnUse">
      <stop
         stop-color="white"
         id="stop764" />
      <stop
         offset="1"
         stop-color="white"
         stop-opacity="0"
         id="stop765" />
    </linearGradient>
    <linearGradient
       id="paint2_linear_77:3-7-3"
       x1="79.398094"
       y1="-197.84389"
       x2="82.901054"
       y2="-199.97827"
       gradientUnits="userSpaceOnUse"
       gradientTransform="matrix(2.00979,0,0,1.7510857,-24.571935,445.89239)">
      <stop
         stop-color="#EBFAFF"
         stop-opacity="0.1"
         id="stop29-5-7-6"
         offset="0"
         style="stop-color:#c3c3c3;stop-opacity:1;" />
      <stop
         offset="1"
         stop-color="#70A9FF"
         stop-opacity="0.5"
         id="stop30-0-1-7"
         style="stop-color:#05c7ff;stop-opacity:0.80000001;" />
    </linearGradient>
    <linearGradient
       id="paint2_linear_77:3-7-3-3"
       x1="79.398094"
       y1="-197.84389"
       x2="82.901054"
       y2="-199.97827"
       gradientUnits="userSpaceOnUse"
       gradientTransform="matrix(3.0978294,0,0,2.7060468,-156.70313,564.9585)">
      <stop
         stop-color="#EBFAFF"
         stop-opacity="0.1"
         id="stop29-5-7-6-6"
         offset="0"
         style="stop-color:#c3c3c3;stop-opacity:1;" />
      <stop
         offset="1"
         stop-color="#70A9FF"
         stop-opacity="0.5"
         id="stop30-0-1-7-7"
         style="stop-color:#05c7ff;stop-opacity:0.80000001;" />
    </linearGradient>
    <linearGradient
       inkscape:collect="always"
       xlink:href="#linearGradient3"
       id="linearGradient17"
       x1="30.136484"
       y1="13.102363"
       x2="30.131233"
       y2="56.104988"
       gradientUnits="userSpaceOnUse" />
    <linearGradient
       inkscape:collect="always"
       xlink:href="#linearGradient1"
       id="linearGradient2"
       x1="31.131138"
       y1="18.589241"
       x2="31.414268"
       y2="56.242214"
       gradientUnits="userSpaceOnUse" />
    <linearGradient
       inkscape:collect="always"
       xlink:href="#linearGradient4"
       id="linearGradient18"
       x1="31.6059"
       y1="23.227264"
       x2="31.953737"
       y2="55.891514"
       gradientUnits="userSpaceOnUse" />
  </defs>
  <path
     style="fill:#070707;fill-opacity:0.881279;stroke-width:0.99997"
     d="m 11.064211,48.814522 c -0.02393,-0.05782 -0.0087,-0.309358 0.03447,-0.558879 0.06401,-0.371407 0.05461,-0.462562 -0.05051,-0.502709 -0.08203,-0.03171 -0.190913,0.02663 -0.301348,0.160332 -0.0951,0.115149 -0.198487,0.205105 -0.22986,0.199897 -0.03132,-0.0053 -0.01635,-0.24129 0.03311,-0.524652 0.08746,-0.500589 0.08294,-0.525932 -0.165799,-0.895281 -0.171154,-0.254272 -0.4885252,-0.54605 -0.9588222,-0.881494 -1.030333,-0.734874 -1.196935,-0.970234 -1.443031,-2.038632 -0.366886,-1.592815 -0.362378,-3.428497 0.0086,-3.363722 0.04684,0.0085 0.242094,0.209289 0.433976,0.446805 0.547747,0.678127 0.657413,0.758292 1.157556,0.846152 0.6534162,0.114816 0.9867452,-0.01362 1.9831952,-0.763811 0.934961,-0.703917 1.452217,-0.945913 2.329625,-1.089867 0.862688,-0.141541 2.538848,-0.03455 2.619571,0.167229 0.04278,0.106983 -0.256167,0.117806 -0.78044,0.02851 -0.571201,-0.09817 -1.114971,-0.05131 -1.817118,0.15404 -0.542696,0.158671 -0.980323,0.436436 -1.016845,0.645387 -0.02905,0.166435 0.08108,0.153619 0.892079,-0.103907 0.749969,-0.238142 0.756681,-0.238633 1.428572,-0.103758 0.751919,0.150923 1.079405,0.1027 1.278712,-0.188286 0.06435,-0.09405 0.167242,-0.162248 0.228614,-0.151523 0.08634,0.01513 0.09033,0.08638 0.01752,0.316578 -0.07554,0.238801 -0.06779,0.316832 0.03285,0.396431 0.134848,0.105584 0.169164,0.08535 0.410721,-0.241592 0.120601,-0.1632 0.122693,-0.157199 0.03688,0.103681 -0.14654,0.445598 0.1638,0.397077 0.506048,-0.07909 0.118008,-0.164205 0.120296,-0.144984 0.02544,0.211045 -0.08691,0.325914 -0.0838,0.395354 0.01854,0.41325 0.06765,0.01179 0.195292,-0.02401 0.28358,-0.07967 0.12746,-0.0804 0.156662,-0.07926 0.141971,0.0054 -0.01396,0.08049 0.10599,0.129266 0.492211,0.199856 0.476048,0.08732 0.569146,0.137658 1.372725,0.746668 0.474116,0.35931 0.88463,0.668996 0.912262,0.6882 0.08403,0.05842 -0.08325,-0.833748 -0.254376,-1.355862 -0.08853,-0.270128 -0.252624,-0.645855 -0.364663,-0.834935 -0.207503,-0.350186 -1.414002,-1.456824 -2.017297,-1.850351 -0.308335,-0.201119 -0.352745,-0.21184 -0.598556,-0.143805 -0.535606,0.148254 -1.198852,-0.11118 -2.078418,-0.813007 -0.245014,-0.195513 -0.770651,-0.505776 -1.168056,-0.689478 -1.327971,-0.613837 -1.939879,-0.941533 -2.412402,-1.291929 -0.257889,-0.191223 -0.638772,-0.424773 -0.846427,-0.518986 -0.327227,-0.148469 -0.420709,-0.162756 -0.701152,-0.107191 -0.504168,0.09967 -0.7146662,0.223925 -1.4452442,0.853145 -0.680067,0.585733 -0.89358,0.68797 -0.843978,0.404146 0.07985,-0.456914 0.794166,-1.28984 1.578923,-1.841112 1.0481472,-0.736294 2.6718522,-0.674364 4.8409682,0.184669 1.60804,0.63682 2.623186,1.192095 3.180079,1.739458 0.252558,0.248235 0.493495,0.846734 0.507958,1.261792 0.0077,0.21693 0.06572,0.278981 0.517258,0.551304 1.882849,1.135655 2.539719,2.031767 2.61433,3.566482 0.02094,0.431821 -0.0477,1.001426 -0.29217,2.422053 -0.281967,1.637541 -0.359612,1.96141 -0.652981,2.736337 -0.183344,0.483369 -0.373114,0.906841 -0.421679,0.941035 -0.08488,0.05971 -0.04203,-0.15127 0.348575,-1.71524 0.06935,-0.277798 0.09839,-0.509938 0.06519,-0.515743 -0.03351,-0.0059 -0.220058,0.105076 -0.41457,0.246534 -0.392025,0.285079 -1.780588,0.92391 -2.571809,1.1832 -0.517407,0.169562 -0.555063,0.210664 -0.60179,0.656969 -0.01881,0.178408 -0.05896,0.243502 -0.140198,0.229302 -0.110356,-0.01933 -0.334206,-0.359089 -0.366273,-0.556018 -0.01072,-0.06575 -0.189158,-0.04726 -0.562536,0.06108 -0.539043,0.15527 -0.547584,0.16184 -0.599926,0.461337 -0.05588,0.319897 -0.136868,0.366632 -0.260572,0.15044 -0.04098,-0.07154 -0.118675,-0.137849 -0.172689,-0.147289 -0.126567,-0.02209 -0.494661,0.39098 -0.530358,0.595255 -0.04868,0.278361 -0.16991,0.223783 -0.237379,-0.106844 -0.07775,-0.38093 -0.231977,-0.437665 -0.571145,-0.210149 l -0.236365,0.158602 -0.256528,-0.248365 c -0.150535,-0.145796 -0.33772,-0.253002 -0.453093,-0.259582 -0.175781,-0.01 -0.205648,0.0264 -0.282566,0.344714 -0.09775,0.404577 -0.305102,0.469765 -0.314154,0.09881 -0.0033,-0.120034 -0.05432,-0.313505 -0.114415,-0.42999 -0.104841,-0.203478 -0.115361,-0.207407 -0.268994,-0.100126 -0.115753,0.08087 -0.174888,0.215901 -0.214148,0.489717 -0.03885,0.27119 -0.08305,0.372993 -0.155976,0.360258 -0.0559,-0.0099 -0.121252,-0.06514 -0.145118,-0.123057 z m 3.4684,-1.516212 c 0.460981,-0.06663 0.97904,-0.164882 1.151236,-0.218349 l 0.313091,-0.09719 -0.419133,-0.205591 c -0.554615,-0.271967 -1.033439,-0.931349 -1.157419,-1.593818 -0.167648,-0.895732 -0.05849,-1.800253 0.286,-2.370406 0.126417,-0.209231 -0.105642,-0.178299 -0.686218,0.09146 -0.966479,0.449071 -1.438603,0.834898 -2.070017,1.691657 -0.448386,0.608435 -0.597444,0.87359 -0.682775,1.214563 -0.108509,0.433551 -0.107574,0.437996 0.153131,0.730538 0.462951,0.519471 0.588727,0.582723 1.463781,0.736162 0.718669,0.12599 0.904905,0.128378 1.648356,0.02092 z m 2.088017,-0.73971 c 0.07689,-0.05408 0.161123,-0.206262 0.187123,-0.338247 0.0449,-0.227483 0.04967,-0.230421 0.09962,-0.05511 0.06176,0.217538 0.120466,0.239658 0.27873,0.104985 0.08911,-0.07577 0.104081,-0.14666 0.06396,-0.301194 -0.0637,-0.245025 0.06404,-0.251569 0.162648,-0.0086 0.0835,0.205945 0.410488,0.277134 0.699877,0.152414 0.256597,-0.110612 0.290438,-0.265859 0.115913,-0.531593 -0.191991,-0.292307 -0.04705,-0.335829 0.163635,-0.04916 0.27015,0.367558 0.549325,0.339991 0.668839,-0.06608 0.04367,-0.148308 -0.0029,-0.207207 -0.300778,-0.383399 -0.259954,-0.15361 -0.364536,-0.185648 -0.398884,-0.121966 -0.02575,0.04744 -0.1881,0.196751 -0.361009,0.331855 -0.587475,0.458864 -1.247651,0.349654 -1.702502,-0.281125 l -0.240019,-0.333128 -0.575853,0.164073 c -0.563774,0.160627 -0.634067,0.218196 -0.583257,0.477644 0.03653,0.186253 0.181568,0.185324 0.658996,-0.0052 0.233813,-0.09301 0.441884,-0.145212 0.46239,-0.11602 0.02051,0.02915 -0.130878,0.181755 -0.336495,0.339022 -0.413644,0.316468 -0.478941,0.459826 -0.280273,0.615419 0.226776,0.177626 0.290248,0.145913 0.57537,-0.287177 0.415084,-0.630474 0.544215,-0.496174 0.192481,0.200264 -0.123702,0.244842 -0.149515,0.358664 -0.09813,0.431887 0.100623,0.143198 0.384775,0.174514 0.547504,0.0602 z m 3.431295,-0.969451 c 0.736714,-0.545677 0.854759,-1.563175 0.256396,-2.210383 -0.199484,-0.215784 -0.731672,-0.520653 -0.747796,-0.428377 -0.0035,0.01812 0.06809,0.264118 0.158291,0.546567 0.159412,0.499031 0.159401,0.539664 -1.19e-4,1.43547 -0.180861,1.015537 -0.17285,1.031469 0.333194,0.656717 z m -0.906167,-0.726532 c 0.132819,-0.16962 0.07806,-0.209297 -0.327039,-0.23676 -0.354473,-0.02404 -0.483468,0.132892 -0.198416,0.241271 0.333094,0.126655 0.423271,0.125919 0.525373,-0.0049 z m -2.167135,-0.633369 c 0.183883,-0.129193 0.195728,-0.481547 0.02174,-0.644661 -0.334327,-0.313377 -0.814331,0.03153 -0.63212,0.454234 0.09119,0.211489 0.429991,0.317188 0.610436,0.190422 z m 2.033122,0.05205 c 0.309234,-0.01183 0.402584,-0.04727 0.422365,-0.16048 0.01395,-0.07993 -0.0059,-0.150731 -0.04416,-0.157421 -0.150094,-0.02622 -0.816907,0.168749 -0.829825,0.242685 -0.01683,0.09627 -0.03237,0.09365 0.451642,0.07479 z m 22.537704,0.817147 c 0.0034,-0.210531 -0.02983,-0.309097 -0.09853,-0.295631 -0.05672,0.01119 -0.602504,0.01184 -1.21286,0.002 -1.020154,-0.0169 -1.176254,-0.03779 -1.933625,-0.258315 -0.453138,-0.131983 -1.121511,-0.346715 -1.485297,-0.477079 -0.457669,-0.164061 -0.966605,-0.280222 -1.652177,-0.377053 -0.848027,-0.119827 -1.077955,-0.123866 -1.596094,-0.02775 -1.21878,0.226101 -1.318226,0.151605 -1.134208,-0.849645 0.220088,-1.196628 0.864851,-2.388239 1.904846,-3.51955 0.268334,-0.291889 0.580186,-0.697942 0.693019,-0.902339 0.257958,-0.467295 0.916104,-1.339994 1.205127,-1.597959 0.233451,-0.208371 0.794962,-0.524878 0.898944,-0.506703 0.143038,0.02497 0.0075,0.203127 -0.372807,0.489584 -0.222594,0.167741 -0.416896,0.374634 -0.431775,0.459779 -0.08873,0.507439 1.004585,-0.205219 1.41938,-0.925247 0.134773,-0.233925 0.277313,-0.438237 0.316801,-0.454024 0.03944,-0.01579 0.04157,0.14381 0.0053,0.354657 -0.06079,0.347947 -0.05069,0.386225 0.104866,0.413404 0.255393,0.04467 0.756869,-0.211246 0.950787,-0.485149 0.09372,-0.132324 0.197774,-0.397737 0.231333,-0.589758 0.05573,-0.318953 0.07203,-0.339531 0.184163,-0.238665 0.100117,0.0898 0.187242,0.08256 0.466387,-0.0394 0.359794,-0.157055 1.348132,-0.35146 1.58803,-0.312357 0.07694,0.0128 0.169723,-0.04223 0.206109,-0.121804 0.07808,-0.170671 0.122102,-0.173021 0.211194,-0.01111 0.05337,0.09693 0.18335,0.125732 0.684834,0.152339 0.855915,0.04533 2.217816,0.364385 3.522144,0.825196 0.604697,0.213581 1.309981,0.425188 1.567313,0.470159 0.434935,0.07605 0.514661,0.06179 1.13283,-0.202717 0.790221,-0.338072 0.938747,-0.424231 2.403742,-1.39439 1.458541,-0.96588 1.710278,-1.052581 1.820957,-0.627159 0.129213,0.496675 -1.241638,3.501435 -2.178173,4.774323 -0.685122,0.931192 -1.119471,1.2254 -2.016758,1.366079 -0.365652,0.05734 -0.714319,0.146355 -0.774839,0.197852 -0.06553,0.05568 -0.132243,0.272724 -0.164909,0.535865 -0.04825,0.38912 -0.07456,0.444927 -0.219043,0.464416 -0.268971,0.03634 -0.429445,0.194594 -0.47778,0.471167 -0.04202,0.240435 -0.08042,0.270779 -0.495319,0.391412 -0.247375,0.07195 -0.476069,0.174713 -0.508211,0.228398 -0.03214,0.05366 -0.03305,0.273521 -0.0023,0.488499 0.07345,0.510072 -0.0065,0.645178 -0.152275,0.257578 -0.13385,-0.35557 -0.24641,-0.398462 -0.515609,-0.196506 -0.164965,0.123721 -0.190002,0.185833 -0.16592,0.411548 0.01556,0.146173 -0.0092,0.311491 -0.05467,0.367234 -0.06427,0.07901 -0.086,0.05539 -0.09777,-0.106246 -0.01203,-0.164879 -0.06072,-0.215658 -0.236593,-0.246391 -0.285675,-0.04992 -0.360412,0.04113 -0.247921,0.302054 0.04959,0.115111 0.06672,0.268493 0.03808,0.340755 -0.04156,0.104362 -0.06692,0.08068 -0.123689,-0.115384 -0.07773,-0.268257 -0.366329,-0.423057 -0.504827,-0.27076 -0.0451,0.04959 -0.110696,0.252029 -0.146005,0.449875 -0.06813,0.384627 -0.213811,0.476727 -0.193155,0.122493 0.01707,-0.29195 -0.244837,-0.370285 -0.541407,-0.161942 -0.185921,0.13062 -0.237053,0.229762 -0.297892,0.577906 -0.08193,0.468817 -0.182346,0.51801 -0.298945,0.146546 -0.137994,-0.439501 -0.411353,-0.319356 -0.414585,0.182205 -0.0017,0.239801 -0.0065,0.244124 -0.09502,0.08478 -0.05143,-0.09233 -0.08265,-0.22961 -0.06947,-0.304998 0.02771,-0.158324 -0.0025,-0.171669 -0.22208,-0.09926 -0.121729,0.04008 -0.174528,0.134217 -0.219438,0.391167 -0.07387,0.422512 -0.210475,0.420054 -0.204313,-0.0041 z m -7.519458,-2.356768 c 0.530785,-0.161877 0.925837,-0.13656 1.98865,0.127387 0.999186,0.248168 2.483317,0.444949 3.185536,0.421783 l 0.455435,-0.01488 -0.275336,-0.345409 c -0.519628,-0.651839 -0.780244,-1.701563 -0.632442,-2.547292 0.0346,-0.198042 0.189513,-0.60287 0.344164,-0.899623 l 0.281231,-0.539539 -0.276283,-0.04736 c -0.915719,-0.155914 -2.292806,0.205372 -3.099946,0.813888 -0.870554,0.65634 -2.607779,2.694138 -2.549675,2.990835 0.03432,0.175281 0.116628,0.180881 0.5787,0.04001 z m 6.623409,0.07597 c 0.05258,-0.04472 0.135608,-0.171132 0.184464,-0.280876 0.148898,-0.3345 0.259913,-0.295125 0.170923,0.06062 -0.06361,0.254186 -0.05464,0.335688 0.03854,0.371186 0.08234,0.03177 0.148389,-0.02373 0.210935,-0.176231 0.05005,-0.121996 0.131715,-0.238122 0.181449,-0.258028 0.05058,-0.02026 0.0626,-0.0054 0.02737,0.03479 -0.03479,0.03903 -0.0153,0.158165 0.04488,0.265098 0.09974,0.179304 0.126219,0.189022 0.347398,0.126878 0.319897,-0.08988 0.371184,-0.267555 0.182261,-0.631576 -0.211873,-0.408379 -0.08197,-0.467522 0.158001,-0.07194 0.218207,0.359793 0.37906,0.47456 0.523195,0.37331 0.152806,-0.107329 0.146783,-0.230481 -0.0253,-0.526674 -0.203757,-0.350569 -0.142172,-0.386194 0.152385,-0.08808 0.267601,0.270851 0.488743,0.273695 0.535369,0.0071 0.02352,-0.13438 -0.0528,-0.243085 -0.319115,-0.454711 -0.42708,-0.339367 -0.328469,-0.38322 0.172896,-0.0768 0.347815,0.212511 0.50915,0.242292 0.534252,0.09867 0.01525,-0.08715 -1.185777,-0.849363 -1.302328,-0.82653 -0.163182,0.03206 -0.128262,0.521469 0.05369,0.750682 0.135459,0.17071 0.141143,0.198298 0.02771,0.135717 -0.247242,-0.136378 -0.289006,-0.135438 -0.302042,0.0081 -0.0081,0.07667 -0.02678,0.118245 -0.04639,0.09169 -0.01856,-0.02636 -0.147384,0.01813 -0.286318,0.09886 -0.6153,0.35762 -1.307489,0.196645 -1.697603,-0.394863 l -0.205733,-0.31182 -0.224299,0.11343 c -0.306776,0.155179 -0.394429,0.327943 -0.102532,0.202124 0.350825,-0.151246 0.24952,0.09546 -0.122735,0.298738 -0.271279,0.148224 -0.293696,0.180456 -0.209188,0.300752 0.08457,0.120307 0.132563,0.108729 0.448368,-0.107521 0.449901,-0.30811 0.553432,-0.197506 0.112469,0.120176 -0.181086,0.130436 -0.333303,0.260428 -0.338274,0.288868 -0.0053,0.0284 0.08091,0.120101 0.190831,0.203706 0.227205,0.172792 0.317805,0.13188 0.465695,-0.210607 0.117528,-0.27211 0.216334,-0.167047 0.119325,0.12695 -0.09987,0.302636 0.08985,0.517829 0.299401,0.33952 z m 3.976134,-0.875921 c 0.408048,-0.328129 0.863603,-0.808805 0.885552,-0.934392 0.02251,-0.128884 -0.365882,-0.422169 -0.723223,-0.546126 l -0.248936,-0.08638 -0.05574,0.565799 c -0.05049,0.513371 -0.150954,0.830256 -0.384197,1.200804 -0.07172,0.114373 -0.06064,0.124257 0.08463,0.07634 0.09184,-0.03036 0.290663,-0.154509 0.441868,-0.27611 z m -3.652119,-1.433798 c 0.223839,-0.10479 0.284764,-0.346014 0.143844,-0.569515 -0.125879,-0.199599 -0.356724,-0.245465 -0.567483,-0.111539 -0.199594,0.12585 -0.245468,0.356728 -0.113341,0.567176 0.123835,0.196466 0.287283,0.231492 0.536137,0.11496 z m 2.92145,0.158371 c 0.117303,-0.131914 0.0018,-0.168467 -0.72045,-0.227717 l -0.716484,-0.05876 0.52273,0.13693 c 0.287501,0.0753 0.596395,0.155979 0.686433,0.179301 0.09002,0.02315 0.192542,0.01 0.227763,-0.02973 z m -3.728564,-4.180186 c 0.122772,-0.07511 0.317141,-0.26086 0.431824,-0.412626 l 0.208475,-0.275945 -0.09083,0.316032 c -0.08521,0.29666 -0.07909,0.318079 0.0989,0.349188 0.346057,0.06045 0.941614,-0.569841 0.877425,-0.928636 -0.01529,-0.08533 -1.224715,-0.0132 -1.783643,0.106477 -0.33734,0.07222 -0.346158,0.08153 -0.407373,0.431869 -0.03444,0.196918 -0.04376,0.384747 -0.02087,0.417382 0.08994,0.128028 0.474022,0.125946 0.685971,-0.0041 z m 2.048286,-0.247271 c 0.09443,-0.09091 0.247739,-0.285714 0.340631,-0.432961 l 0.168925,-0.267728 -0.366812,-0.04021 -0.366813,-0.04022 -0.1066,0.475933 c -0.09272,0.41382 -0.08899,0.475611 0.02619,0.473138 0.07301,-0.0018 0.210038,-0.07712 0.304489,-0.168013 z m 1.361742,-0.280163 c 0.10554,-0.09474 0.197412,-0.203432 0.204076,-0.24157 0.0068,-0.03814 -0.185732,-0.09346 -0.427602,-0.122693 -0.41625,-0.05059 -0.442937,-0.04253 -0.500106,0.150782 -0.07138,0.241313 0.01487,0.277321 0.241399,0.100712 0.223652,-0.174378 0.324649,-0.139397 0.227486,0.07883 -0.104924,0.235565 0.01259,0.251254 0.25476,0.03388 z m -13.41069,-1.837143 c -0.395329,-0.388708 -0.4796,-0.64828 -0.385433,-1.187116 0.07209,-0.412443 0.124726,-0.521326 0.371437,-0.768877 0.533843,-0.535559 1.723023,-1.119463 3.114954,-1.529463 0.701889,-0.206757 1.389301,-0.43944 1.52761,-0.517094 0.138325,-0.07763 0.509309,-0.219117 0.824467,-0.314364 0.315171,-0.09527 0.993714,-0.339028 1.507872,-0.541701 3.457498,-1.362919 6.440815,-1.627216 8.38011,-0.742409 2.196911,1.002338 2.519147,1.175251 3.417962,1.834159 0.748507,0.548718 0.999654,0.783016 1.312317,1.22429 0.254371,0.359006 0.399194,0.653402 0.423287,0.860503 0.02015,0.173179 0.02005,0.326441 -1.79e-4,0.340668 -0.02025,0.01422 -0.208524,-0.158694 -0.418394,-0.384292 -0.606534,-0.651924 -1.754483,-1.284565 -3.618959,-1.994393 -0.886497,-0.337494 -3.02777,-0.717585 -3.711457,-0.659029 -0.524176,0.0451 -3.00045,0.664622 -3.587902,0.897689 -1.570459,0.623076 -2.636729,1.18177 -3.470571,1.818461 -1.105719,0.844307 -2.291683,1.565779 -2.89047,1.7584 -0.544349,0.175116 -1.334543,0.24253 -2.056091,0.175431 -0.452322,-0.04195 -0.540444,-0.07432 -0.740529,-0.271068 z"
     id="path1-3" />
</svg>
