<?xml version="1.0" encoding="UTF-8" standalone="no"?>
<svg
   width="64"
   height="64"
   viewBox="0 0 64 64"
   fill="none"
   version="1.1"
   id="svg8"
   sodipodi:docname="folder-html.svg"
   inkscape:version="1.3.2 (091e20ef0f, 2023-11-25)"
   xmlns:inkscape="http://www.inkscape.org/namespaces/inkscape"
   xmlns:sodipodi="http://sodipodi.sourceforge.net/DTD/sodipodi-0.dtd"
   xmlns:xlink="http://www.w3.org/1999/xlink"
   xmlns="http://www.w3.org/2000/svg"
   xmlns:svg="http://www.w3.org/2000/svg">
  <sodipodi:namedview
     id="namedview8"
     pagecolor="#ffffff"
     bordercolor="#999999"
     borderopacity="1"
     inkscape:showpageshadow="2"
     inkscape:pageopacity="0"
     inkscape:pagecheckerboard="0"
     inkscape:deskcolor="#d1d1d1"
     inkscape:zoom="8.4189901"
     inkscape:cx="30.407448"
     inkscape:cy="49.530881"
     inkscape:window-width="1920"
     inkscape:window-height="996"
     inkscape:window-x="0"
     inkscape:window-y="0"
     inkscape:window-maximized="1"
     inkscape:current-layer="svg8"
     showgrid="true">
    <inkscape:grid
       id="grid8"
       units="px"
       originx="0"
       originy="0"
       spacingx="1"
       spacingy="1"
       empcolor="#0099e5"
       empopacity="0.30196078"
       color="#0099e5"
       opacity="0.14901961"
       empspacing="5"
       dotted="false"
       gridanglex="30"
       gridanglez="30"
       visible="true" />
  </sodipodi:namedview>
  <path
     d="M 2.0000006,13.052632 C 2.0000006,10.26219 4.3025345,8 7.142858,8 H 18.5 c 2.680038,0 4.494906,2.986967 4.5,3 0,0 1.579803,2 3,2 H 50.857144 C 53.697416,13 56,15.314821 56,18.105263 V 50.947369 C 56,53.737811 53.697416,56 50.857144,56 H 7.142858 C 4.3025345,56 2.0000006,53.737811 2.0000006,50.947369 Z"
     id="path1"
     sodipodi:nodetypes="ssscssssssss"
     style="fill:url(#linearGradient17)" />
  <path
     d="m 5.0000007,23 c -0.027159,-3.092358 2.0431224,-5 5.0000003,-5 h 41.000002 c 3.046901,0 4.960649,1.89735 4.999849,5 v 28 c 0.07112,3.081468 -2.113351,5 -4.999849,5 H 10.000001 C 7.0129744,56 5.1372767,54.00847 5.0000007,51 Z"
     id="path2"
     sodipodi:nodetypes="cssccsscc"
     style="fill:url(#linearGradient20)" />
  <path
     d="M 7.4419126,26.935376 C 7.9771531,24.631723 10.042585,23 12.423055,23 H 57 c 3.287487,0 5.606098,2.818799 4.866884,6 L 56.558056,52.064624 C 56.022814,54.368278 53.957383,56 51.576788,56 H 7 C 3.7124609,56 1.0088039,53.021095 2,49 Z"
     id="path3"
     sodipodi:nodetypes="cssccsscc"
     style="fill:url(#linearGradient18)" />
  <defs
     id="defs8">
    <linearGradient
       id="linearGradient19"
       inkscape:collect="always">
      <stop
         style="stop-color:#17a2b8;stop-opacity:0.5;"
         offset="0"
         id="stop19" />
      <stop
         style="stop-color:#2ad4ff;stop-opacity:0.1;"
         offset="1"
         id="stop20" />
    </linearGradient>
    <linearGradient
       id="linearGradient4"
       inkscape:collect="always">
      <stop
         style="stop-color:#17a2b8;stop-opacity:0.80000001;"
         offset="0"
         id="stop17" />
      <stop
         style="stop-color:#2ad4ff;stop-opacity:0.1;"
         offset="1"
         id="stop18" />
    </linearGradient>
    <linearGradient
       id="linearGradient3"
       inkscape:collect="always">
      <stop
         style="stop-color:#17a2b8;stop-opacity:0.50196081;"
         offset="0"
         id="stop15" />
      <stop
         style="stop-color:#2ad4ff;stop-opacity:0.12;"
         offset="1"
         id="stop16" />
    </linearGradient>
    <linearGradient
       id="linearGradient14"
       x1="28.7383"
       y1="25"
       x2="28.7383"
       y2="51"
       gradientUnits="userSpaceOnUse"
       spreadMethod="pad">
      <stop
         stop-color="#FFD075"
         stop-opacity="0.8"
         id="stop13"
         style="stop-color:#f9cf6c;stop-opacity:0.80000001;"
         offset="0" />
      <stop
         offset="1"
         stop-color="#FFD075"
         stop-opacity="0"
         id="stop14"
         style="stop-color:#2ad4ff;stop-opacity:0.12156863;" />
    </linearGradient>
    <linearGradient
       id="linearGradient12"
       x1="28.7383"
       y1="25"
       x2="28.7383"
       y2="51"
       gradientUnits="userSpaceOnUse"
       spreadMethod="pad">
      <stop
         stop-color="#FFD075"
         stop-opacity="0.8"
         id="stop11"
         style="stop-color:#00ccff;stop-opacity:0.73780489;"
         offset="0" />
      <stop
         offset="1"
         stop-color="#FFD075"
         stop-opacity="0"
         id="stop12"
         style="stop-color:#aa87de;stop-opacity:0.27073172;" />
    </linearGradient>
    <linearGradient
       id="linearGradient10"
       x1="28.7383"
       y1="25"
       x2="28.7383"
       y2="51"
       gradientUnits="userSpaceOnUse">
      <stop
         stop-color="#FFD075"
         stop-opacity="0.8"
         id="stop9"
         style="stop-color:#00ccff;stop-opacity:0.73780489;"
         offset="0" />
      <stop
         offset="1"
         stop-color="#FFD075"
         stop-opacity="0"
         id="stop10"
         style="stop-color:#aa87de;stop-opacity:0.22560975;" />
    </linearGradient>
    <linearGradient
       id="paint0_linear_403_1580"
       x1="29"
       y1="13"
       x2="29.237558"
       y2="55.988724"
       gradientUnits="userSpaceOnUse"
       xlink:href="#paint2_linear_403_1580">
      <stop
         stop-color="#FFD075"
         stop-opacity="0.5"
         id="stop3"
         style="stop-color:#00a489;stop-opacity:0.80000001;"
         offset="0" />
      <stop
         offset="1"
         stop-color="#FFD075"
         stop-opacity="0"
         id="stop4"
         style="stop-color:#00a489;stop-opacity:0.05;" />
    </linearGradient>
    <linearGradient
       id="paint1_linear_403_1580"
       x1="29.912073"
       y1="18.218882"
       x2="30.129253"
       y2="55.988724"
       gradientUnits="userSpaceOnUse">
      <stop
         stop-color="#FFD075"
         stop-opacity="0.5"
         id="stop5"
         offset="0"
         style="stop-color:#f9cf6c;stop-opacity:0.5;" />
      <stop
         offset="1"
         stop-color="#FFD075"
         stop-opacity="0"
         id="stop6"
         style="stop-color:#2ad4ff;stop-opacity:0.12;" />
    </linearGradient>
    <linearGradient
       id="paint2_linear_403_1580"
       x1="28.7383"
       y1="25"
       x2="28.7383"
       y2="51"
       gradientUnits="userSpaceOnUse"
       xlink:href="#linearGradient12">
      <stop
         stop-color="#FFD075"
         stop-opacity="0.8"
         id="stop7"
         style="stop-color:#00ccff;stop-opacity:0.73780489;"
         offset="0" />
      <stop
         offset="1"
         stop-color="#FFD075"
         stop-opacity="0"
         id="stop8"
         style="stop-color:#aa87de;stop-opacity:0.55000001;" />
    </linearGradient>
    <linearGradient
       id="paint179_linear_0_1"
       x1="854.50702"
       y1="1462.6"
       x2="896.10797"
       y2="1476.1801"
       gradientUnits="userSpaceOnUse">
      <stop
         stop-color="white"
         id="stop762" />
      <stop
         offset="1"
         stop-color="white"
         stop-opacity="0"
         id="stop763" />
    </linearGradient>
    <linearGradient
       id="paint180_linear_0_1"
       x1="872.505"
       y1="1444.02"
       x2="894.33801"
       y2="1458.47"
       gradientUnits="userSpaceOnUse">
      <stop
         stop-color="white"
         id="stop764" />
      <stop
         offset="1"
         stop-color="white"
         stop-opacity="0"
         id="stop765" />
    </linearGradient>
    <linearGradient
       inkscape:collect="always"
       xlink:href="#linearGradient3"
       id="linearGradient17"
       x1="30.506983"
       y1="13.470462"
       x2="30.462496"
       y2="56.112156"
       gradientUnits="userSpaceOnUse" />
    <linearGradient
       inkscape:collect="always"
       xlink:href="#linearGradient4"
       id="linearGradient18"
       x1="30"
       y1="23"
       x2="30"
       y2="56"
       gradientUnits="userSpaceOnUse" />
    <linearGradient
       inkscape:collect="always"
       xlink:href="#linearGradient19"
       id="linearGradient20"
       x1="30.500002"
       y1="18"
       x2="30"
       y2="56"
       gradientUnits="userSpaceOnUse" />
  </defs>
  <path
     d="M 40.102253,37.673291 Z M 32.906111,49.71634 c -4.887924,1.193001 -10.070049,-1.463234 -11.812504,-6.347936 -0.63358,-1.778366 -0.769389,-3.60169 -0.362011,-5.447536 0.02289,-0.045 0.04533,-0.112543 0.06811,-0.157531 0,0.04533 0,0.112477 0.02289,0.157531 0,0.02277 0.02289,0.06778 0.04555,0.09011 0,-0.04511 0.02289,-0.06778 0.02289,-0.112543 0,-0.135034 0,-0.270123 0.02289,-0.427711 0.135757,0.112577 0.04533,0.270131 0.09033,0.3827 0.06811,0.180077 0.06811,0.360177 0.06811,0.562723 -0.02289,0.292666 0.248888,0.495266 0.452588,0.51772 0.384646,0.04533 0.610978,0.337712 0.950389,0.450235 0.158434,0.04533 0.248946,0.202588 0.271557,0.270134 0.04567,0.292631 0.271578,0.382689 0.452612,0.495254 0.04555,0.02277 0.09022,0.06778 0.135731,0 0.158412,-0.315165 0.181058,-0.09011 0.248923,0.045 0.158466,0.337646 0.02289,0.607789 -0.158388,0.877935 -0.135735,0.180054 -0.294157,0.360131 -0.135735,0.607743 0.02289,0.02277 0,0.09011 -0.02289,0.112557 -0.113188,0.1801 -0.04555,0.315123 0.06811,0.472712 0.158401,0.22512 0.29419,0.450177 0.407367,0.697831 0.15838,0.315169 0.294146,0.607801 0.656212,0.765347 0.226345,0.09011 0.3621,0.292643 0.384723,0.562743 0.06811,0.76538 0.181054,1.530723 0.294165,2.27358 0.06811,0.450201 0.429989,0.765355 0.588381,1.170489 0.06811,0.180078 0.18102,0.337655 0.316766,0.495266 0.248934,0.292623 0.611,0.315135 0.927843,0.472689 0.02289,0 0.06811,0 0.09033,0 -0.02289,-0.02277 -0.06811,-0.04522 -0.09033,-0.06778 -0.203666,-0.180089 -0.633655,-0.225077 -0.362089,-0.652766 0,-0.02277 -0.02289,-0.06778 -0.02289,-0.06778 -0.3168,-0.06778 -0.158411,-0.292612 -0.135743,-0.450212 0,-0.09011 0.09056,-0.157531 -0.04556,-0.180065 -0.02289,0 -0.04533,-0.04533 -0.04533,-0.06778 0.24892,0.06778 0.158408,-0.292623 0.362077,-0.292623 0.294166,0 0.407312,-0.112543 0.248932,-0.4052 -0.04544,-0.06778 -0.113189,-0.157588 0.06811,-0.112554 0.181057,0.04544 0.27158,-0.02277 0.316823,-0.180069 0.04522,-0.1576 0.1131,-0.315154 0.248934,-0.450188 0.113112,-0.135089 0.181032,-0.292678 0.135743,-0.495255 -0.06811,-0.337677 0.271569,-0.405177 0.475223,-0.427711 0.429966,-0.04522 0.452612,-0.337635 0.543135,-0.630289 0.06811,-0.225066 0.06811,-0.4502 0.04555,-0.6978 -0.02289,-0.247635 0.181034,-0.405178 0.316823,-0.585267 0.180977,-0.225123 0.294134,-0.517723 0.1131,-0.720368 -0.181035,-0.202595 -0.407301,-0.427661 -0.724144,-0.450207 -0.452534,-0.02277 -0.792023,-0.315088 -1.176657,-0.472665 -0.135823,-0.04534 -0.135823,-0.270146 -0.181034,-0.405246 -0.113166,-0.3151 -0.316878,-0.450166 -0.633666,-0.495155 -0.384712,-0.04533 -0.543078,-0.337677 -0.701478,-0.607811 -0.113157,-0.202589 -0.271566,-0.112555 -0.3621,-0.09011 -0.2263,0.06778 -0.407334,0 -0.565723,-0.09011 -0.384654,-0.202643 -0.701512,-0.135089 -0.973066,0.270145 -0.04545,0.06778 -0.113123,0.180055 -0.226289,0.06778 -0.06811,-0.06778 -0.158369,-0.06778 -0.271557,-0.02277 -0.203654,0.09011 -0.384689,-0.06778 -0.362077,-0.2926 0,-0.09011 0.02289,-0.180066 0.04533,-0.270111 0.06811,-0.382678 0.04555,-0.427755 -0.339434,-0.382678 -0.158401,0.02277 -0.181023,-0.02277 -0.113146,-0.157577 0.06811,-0.135091 0.13578,-0.2701 0.158434,-0.427691 0.02289,-0.09011 0.158366,-0.202589 0,-0.270132 -0.113166,-0.04522 -0.316854,0 -0.339434,0.157577 -0.04556,0.270146 -0.2037,0.337635 -0.43,0.292635 -0.248921,-0.06778 -0.226278,-0.315189 -0.181055,-0.495269 0.04556,-0.360166 0.06811,-0.765289 0.452623,-0.990443 0.09044,-0.06778 0.181012,-0.09011 0.294177,-0.06778 0.113166,0.02277 0.203689,0.02277 0.316789,-0.09011 0.158457,-0.15758 0.339489,-0.04533 0.520535,0 0.135743,0.045 0.06811,0.180088 0.09078,0.27012 0.02289,0.13508 0.02289,0.337646 0.158434,0.315157 0.158389,0 0.181021,-0.202589 0.135755,-0.360146 -0.09022,-0.337666 0.02289,-0.6303 0.339423,-0.787877 0.339477,-0.1801 0.497888,-0.472723 0.701511,-0.765377 0.135789,-0.225078 0.384723,-0.337689 0.611012,-0.495212 0.226277,-0.135034 0.40732,-0.382677 0.701543,-0.495212 0.04533,-0.02277 0.09078,-0.02277 0.113089,-0.04533 -0.02289,0.04533 -0.02289,0.06778 -0.04555,0.11258 -0.02289,0.04544 -0.04545,0.06778 0,0.09011 0.02289,0 0.06811,0 0.09055,-0.02277 0.06811,-0.09011 0.181057,-0.112565 0.294234,-0.135031 0.06811,-0.02277 0.181,-0.06778 0.2036,-0.112569 0,-0.09011 -0.113111,-0.04533 -0.158366,-0.09011 -0.09056,-0.06778 -0.09056,-0.135068 -0.04556,-0.2026 0.04556,-0.112557 0.203635,-0.22508 -0.06811,-0.22508 0,0 -0.02289,-0.02277 -0.02289,-0.04533 0.02289,0 0.04533,-0.02277 0.06811,-0.02277 0.3168,-0.06778 0.656245,0.04522 0.9504,-0.180077 0.02289,0 0.04556,0.02277 0.06811,0.02277 -0.02289,0.02277 -0.02289,0.04533 -0.04533,0.06778 -0.06811,0.157577 -0.362054,0.225088 -0.271543,0.405154 0.04533,0.09011 0.316789,-0.06778 0.497812,0.06778 0.06811,0.04522 0.181031,0 0.1358,-0.06778 -0.06811,-0.112543 0.158431,-0.292643 -0.04533,-0.292643 -0.203623,-0.02277 -0.135745,-0.09011 -0.09055,-0.180091 0.135809,-0.225078 0.181043,-0.405166 -0.113091,-0.517709 -0.15842,-0.06778 -0.06811,-0.22508 -0.113143,-0.337646 -0.04556,-0.180089 -0.06811,-0.315146 -0.294246,-0.135066 -0.09055,0.06778 -0.339412,0.292632 -0.271543,-0.112534 0.02289,-0.09011 -0.135746,-0.1801 -0.2036,-0.1801 -0.181034,0 -0.407389,-0.112566 -0.497912,0.112554 -0.09033,0.18008 -0.316788,0.292612 -0.316788,0.540246 0,0.06778 -0.113135,0.135046 -0.203646,0.180066 -0.181054,0.06778 -0.316789,0.157623 -0.339432,0.360146 -0.02288,0.112577 -0.113191,0.202611 -0.226291,0.157634 -0.135777,-0.06778 -0.02289,-0.180092 0.02289,-0.247669 0.09078,-0.112488 0.09078,-0.202531 -0.09056,-0.180065 -0.181023,0.02277 -0.294123,-0.157566 -0.497843,-0.180066 -0.06811,0 -0.06811,-0.180092 0.02289,-0.247635 0.294112,-0.2926 0.6788,-0.382657 1.018266,-0.607777 0.09055,-0.06778 0.113154,0.202612 0.181054,0.06778 0.06811,-0.135023 0.497801,0.09011 0.294181,-0.292577 0.113111,-0.045 0.20362,-0.06778 0.316777,-0.112589 0.158411,-0.06778 0.203666,-0.270122 0.407377,-0.315122 0.181023,-0.02277 0.384657,-0.04522 0.407289,0.112511 0.02289,0.1576 -0.203689,0.202611 -0.339432,0.27012 -0.06811,0.02277 -0.135823,0 -0.203668,0.02277 -0.04556,0.02277 -0.113155,0.06778 -0.113155,0.09011 0,0.06778 0.09022,0.04533 0.135789,0.04533 0.135743,-0.02277 0.248943,-0.02277 0.339466,0.112557 0.06811,0.09011 0.316746,0.135078 0.316746,0.09011 0.02289,-0.202623 0.543123,-0.04533 0.271565,-0.40518 0,-0.02277 0,-0.06778 0,-0.06778 0.04556,-0.04533 0.09056,-0.02277 0.135789,0.02277 0.158434,0.180088 0.2942,0.02277 0.3621,-0.06778 0.09056,-0.135043 -0.158389,-0.135043 -0.158389,-0.180089 0,-0.292654 -0.271554,-0.247589 -0.407365,-0.337646 -0.135746,-0.09011 -0.248923,-0.09011 -0.384712,-0.06778 0.04533,0.02277 0.04533,0.09011 0,0.06778 -0.181,-0.1126 -0.316777,-0.02277 -0.4752,0 -0.158357,0.04511 -0.294189,0.04511 -0.429923,-0.04533 -0.09055,-0.06778 -0.181054,-0.04533 -0.271554,0 -0.02289,0 -0.04556,0.02277 -0.04556,0.04533 0,0 0.02289,0.02277 0.04556,0.02277 0.06811,0 0.135742,-0.11258 0.203611,-0.02277 -0.09056,0.06778 -0.181011,0.112569 -0.294146,0.135046 v 0 c 0,0 0,0 0,0 -0.271554,-0.04533 -0.362088,0.04511 -0.339411,0.2701 0,0.04511 -0.02289,0.09011 -0.04556,0.1351 -0.113145,-0.09011 -0.3394,0.06778 -0.3394,-0.02277 0,-0.135034 -0.06811,-0.337634 0.113166,-0.450223 2.172366,-1.283066 4.480579,-1.755812 6.969802,-1.328146 1.651912,0.292711 3.122845,0.945457 4.457975,1.958458 0.0681,0.04544 0.11313,0.112543 0.15841,0.157534 -0.0903,0.04544 -0.13578,-0.04511 -0.20372,-0.06778 -0.20363,-0.09011 -0.38468,-0.247566 -0.61095,-0.292631 -0.29417,-0.04545 -0.58835,-0.09011 -0.81469,0.157577 -0.15836,0.157623 -0.33941,0.270111 -0.56567,0.315154 -0.18105,0.04511 -0.22635,0.135046 -0.13583,0.315123 0.0681,0.180089 0.15843,0.292623 0.33945,0.202589 0.15844,-0.09011 0.2263,-0.02277 0.31683,0.09 0.11313,0.135068 0.0681,0.1801 -0.0229,0.270146 -0.0229,0.02277 0.0229,0.112588 -0.0681,0.09011 -0.11319,0.02277 -0.0906,-0.02277 -0.0906,-0.09011 0,-0.06778 0.0906,-0.180089 -0.0455,-0.180089 -0.11308,0 -0.20362,0.112611 -0.15839,0.2251 0.0906,0.180077 -0.0229,0.22512 -0.15843,0.22512 -0.22624,0.02277 -0.31676,0.292657 -0.520439,0.315134 -0.113134,0.247612 -0.384711,0.112546 -0.565757,0.225158 -0.04556,0.02277 -0.135735,0 -0.1584,0.06778 0,0.02277 0.06811,0.06778 0.1132,0.09022 0.09067,0.04533 0.158357,0.112554 0.226246,0.180088 0.09067,0.112532 0.06811,0.225077 0.02289,0.337632 -0.04556,0.135023 -0.158357,0.06778 -0.248877,0.06778 -0.02289,0 -0.04578,0 -0.04578,0 -0.588354,-0.06778 -0.769389,0.1126 -0.678877,0.697811 0.02288,0.112612 0.02288,0.270135 0.226311,0.247623 0.158446,0 0.226323,0.112566 0.113154,0.247666 -0.226242,0.270123 -0.4752,0.540212 -0.588331,0.900369 -0.06811,0.157631 -0.316857,0.157631 -0.429969,0.3602 -0.158431,0.360112 -0.565766,0.607732 -0.407343,1.103023 0.06811,0.202532 0,0.405109 -0.06811,0.630278 -0.06811,0.202577 -0.06811,0.450166 0.1358,0.630243 0.339446,0.270123 0.452546,0.720357 0.837266,0.94548 0.158388,0.09011 0.271523,0.1125 0.452568,0.09011 0.429978,-0.04511 0.837312,-0.180077 1.244618,-0.2026 0.24894,-0.02277 0.52047,0.24758 0.79203,0.3602 0.15841,0.06778 0,0.360192 -0.0229,0.540246 -0.0229,0.157554 -0.0229,0.2701 0.0906,0.382634 0.33943,0.360178 0.38472,0.810401 0.47524,1.260578 0.0456,0.202654 -0.18102,0.337689 -0.22632,0.540266 -0.0681,0.270146 -0.11309,0.517711 0.0455,0.765357 0.15841,0.247577 0.22626,0.517712 0.18104,0.810355 -0.0229,0.2927 0.22627,0.450223 0.27156,0.697834 0.0905,0.495212 0.1131,0.472766 0.63362,0.382723 0.58833,-0.112611 0.85989,-0.585346 1.10883,-1.057991 0.0681,-0.112609 0.0681,-0.225155 0.20367,-0.270143 0.13575,-0.06778 0.20363,-0.247601 0.15837,-0.382689 -0.0681,-0.292657 0.0906,-0.4952 0.29423,-0.630312 0.42993,-0.270134 0.47514,-0.675311 0.36205,-1.057989 -0.20368,-0.742788 0.1584,-1.260557 0.58835,-1.755812 0.33945,-0.382657 0.45259,-0.810357 0.52049,-1.260557 0.0229,-0.112543 0,-0.202577 -0.15842,-0.112543 -0.0681,0.04533 -0.13582,0.06778 -0.22632,0.08989 -0.1131,0.02277 -0.24891,0.06778 -0.3168,-0.08989 -0.09076,-0.202623 0.11309,-0.1576 0.18096,-0.180089 0.4073,-0.225123 0.83727,-0.450223 0.90519,-0.9905 0.0229,-0.157546 0,-0.315077 -0.11318,-0.450177 -0.0681,-0.09011 -0.11316,-0.20258 -0.0681,-0.3151 0.49782,0.540243 0.42997,1.260543 0.4526,1.890809 0.24892,4.794724 -2.9871,8.959183 -7.580846,10.084672 z M 24.193863,38.30358 c -0.248943,-0.157623 -0.452578,-0.405212 -0.792035,-0.405212 -0.09055,0.02277 -0.203666,0.04533 -0.294177,0.135089 -0.02289,0.02277 -0.04533,0.1125 0.02289,0.09011 0.3621,-0.135066 0.565711,0.02277 0.792057,0.270111 0.04533,0.045 0.181,0.09011 0.294123,0.02277 0,-0.04533 -0.02289,-0.112565 -0.02289,-0.112565 z m 0.678846,0.247623 c -0.09056,-0.135123 -0.226269,-0.1576 -0.384712,-0.180089 -0.203646,-0.04533 -0.113123,0.247577 -0.271568,0.225054 0.06811,0.02277 0.135834,0.06778 0.226357,0.09011 0.135734,-0.06778 0.294177,-0.09011 0.429923,-0.135023 z m 7.829768,-6.505525 c 0,-0.08978 -0.09056,-0.112543 -0.158446,-0.112543 -0.181043,0 -0.362066,0 -0.543089,0 -0.06811,0 -0.158422,-0.06778 -0.203631,0.02277 0.09033,0.04533 0.02289,0.2026 0.158366,0.247634 0.06811,0.02277 0.158423,0.02277 0.248943,0.04533 0.113134,-0.02277 0.248891,-0.06778 0.36208,-0.09022 0.06811,-0.04533 0.135777,-0.04533 0.135777,-0.112592 z m 0.724089,1.21558 c 0.135834,0.06778 0.362066,0.09011 0.113177,0.315132 -0.06811,0.06778 0,0.225134 -0.09055,0.315168 0.113154,0.06778 0.203677,-0.02277 0.2942,-0.02277 0.135723,0 0.294131,-0.02277 0.429923,-0.04522 0,-0.20258 -0.113146,-0.360146 -0.271535,-0.517769 -0.04556,-0.04533 -0.113188,-0.112489 -0.113188,-0.1801 0.02289,-0.225054 -0.113077,-0.337623 -0.2941,-0.292543 -0.181046,0.06778 -0.158477,0.247577 -0.06811,0.427666 z m -0.203589,-0.04533 c -0.113211,0.02277 -0.294257,0.06778 -0.294257,0.202665 0,0.09011 -0.13572,0.225078 0,0.270078 0.09011,0.02277 0.271569,-0.02277 0.339469,-0.09011 0.09033,-0.09011 0.113154,-0.225134 0.158377,-0.337691 -0.06811,-0.02277 -0.135746,-0.04511 -0.203589,-0.04511 z m -1.470966,-1.575712 c 0.09033,0 0.181043,-0.06778 0.271577,-0.112523 0.04556,-0.02277 0.09033,-0.04533 0.06811,-0.09011 -0.248889,-0.270112 0.09055,-0.112566 0.135811,-0.180066 0.04555,-0.04533 0.181054,-0.06778 0.203666,-0.112577 0.06811,-0.292657 0.294177,-0.337623 0.565734,-0.337623 -0.02288,0 0.02289,-0.02277 0.04533,-0.02277 -0.02289,-0.02277 -0.04533,-0.04533 -0.09055,-0.04533 -0.248978,-0.04533 -0.497901,-0.09011 -0.746824,-0.135066 -1.063577,-0.135034 -2.127143,0.09011 -3.213389,0.02277 -0.610978,-0.04533 -1.176666,0.225066 -1.787655,0.292646 -0.09022,0 -0.181057,0.06778 -0.271557,0.09011 -0.02289,0 -0.09089,0.06778 -0.02289,0.06778 0.2037,0.04533 0,0.09011 0,0.09011 -0.06811,0.09011 -0.181034,0.04522 -0.271546,0.06778 -0.04544,0.02277 -0.113154,0.06778 -0.113154,0.09011 0.02289,0.06778 0.09055,0.02277 0.1358,0.02277 0.158377,0 0.316789,0 0.475177,-0.02277 v 0 c 0.339477,-0.247646 0.724158,-0.337669 1.108878,-0.472746 0.04556,-0.02277 0.09056,0 0.135723,-0.02277 0,0.405212 0.294211,0.135089 0.429977,0.1801 0.181011,0.04533 0.45258,-0.06778 0.3847,0.292643 0,0.02277 0.02289,0.04533 0.04533,0.06778 0.135735,0.112543 0.09056,0.2251 -0.04533,0.2701 -0.271543,0.06778 -0.226254,0.292666 -0.24892,0.495243 0,0.315146 0.271566,0.337669 0.475243,0.427712 0.181034,0.06778 0.248946,-0.09011 0.339457,-0.180089 0.181032,-0.1576 0.2941,-0.382688 0.543089,-0.4052 0.4978,-0.06778 0.95042,-0.315134 1.448243,-0.337666 z m 7.874972,11.502826 c -0.0229,-0.06778 -0.0453,-0.112523 -0.0453,-0.180068 -0.0453,0.04533 -0.0906,0.09011 -0.11318,0.135023 -0.0456,0.06778 -0.0681,0.202588 -0.15836,0.247588 -0.42998,0.292689 -0.31683,0.765423 -0.47529,1.170601 -0.0229,0.06778 -0.0229,0.157523 0.0681,0.180077 0.0681,0.02277 0.13578,-0.02277 0.18104,-0.09011 0.22627,-0.472734 0.42996,-0.945457 0.54304,-1.463169 z m -1.60662,-6.460447 c -0.0681,0.157534 -0.22628,0 -0.31681,0.02277 -0.38475,0.09 -0.67888,-0.09011 -0.99574,-0.247643 -0.11308,-0.04533 -0.24888,-0.02277 -0.27154,0.06778 -0.15838,0.517734 -0.36205,-0.04533 -0.52047,0.02277 -0.0229,0 -0.0681,-0.1125 -0.0906,-0.1125 -0.36208,-0.04533 -0.61098,-0.157623 -0.49783,-0.607832 0.0229,-0.06778 -0.11315,-0.112523 -0.18106,-0.08978 -0.45254,0.06778 -0.950378,-0.09 -1.357767,0.2251 -0.04556,0.04533 -0.135723,0 -0.2036,0 -0.06811,0 -0.203689,0.02277 -0.203689,-0.06778 0,-0.112623 0.113189,-0.09011 0.203689,-0.112623 0.226277,-0.02277 0.339431,-0.15752 0.429954,-0.360131 0.113112,-0.292646 0.407323,-0.427712 0.610973,-0.562781 0.4526,-0.337654 0.61096,0.06778 0.85992,0.247669 0.0906,0.06778 0.18103,0.135032 0.29416,0.180054 0.0681,0.04522 0.13575,0.112535 0.11317,0.180069 -0.0229,0.112554 -0.11317,0.09011 -0.20368,0.09011 -0.0456,0.02277 -0.1358,-0.04511 -0.15839,0.04533 0,0.02277 0.0456,0.06778 0.0905,0.09011 0.0681,0.02277 0.15839,0.135066 0.20363,0.04533 0.0458,-0.112588 0.13581,-0.180123 0.20367,-0.29268 0.22626,-0.337666 -0.15838,-0.29262 -0.24891,-0.427709 -0.0229,-0.045 -0.11313,-0.045 -0.11313,-0.09011 -0.0458,-0.112523 -0.27156,-0.202557 -0.15843,-0.315145 0.11317,-0.112543 0.2037,0.112588 0.3168,0.1576 0.42993,0.157545 0.47522,0.607757 0.70149,0.900377 0.0457,0.06778 0.0681,0.202634 0.18103,0.1576 0.0907,-0.04533 0.13582,-0.1576 0.0907,-0.27012 -0.0229,-0.112557 -0.1131,-0.225111 0.0456,-0.270146 0.18105,-0.045 0.20359,0.112577 0.22626,0.225123 0.0453,0.292632 0.22632,0.4052 0.52044,0.4052 0.15842,0 0.29419,0.135077 0.47524,0.06778 0.0229,0 0.0681,0.02277 0.0681,0.06778 0.0229,0.270123 -0.0456,0.4502 -0.11317,0.6303 z m -2.87395,-1.328124 c -0.0453,-0.112611 0.0229,-0.247643 -0.0906,-0.3602 -0.0229,0.112557 -0.0681,0.225123 -0.0906,0.337635 0.0681,0.04533 -0.0229,0.1801 0.11314,0.1801 0.0681,-0.02277 0.0907,-0.112535 0.0681,-0.157535 z m 2.67028,-0.427731 c -0.0907,0.02277 -0.15839,0.02277 -0.22635,-0.06778 -0.0681,-0.09011 -0.13573,-0.24762 -0.24886,-0.135109 -0.13574,0.1126 -0.20369,0.292689 -0.15845,0.472755 0.0457,0.135023 0.18107,0.202611 0.29422,0.157577 0.27157,-0.1126 0.49784,-0.04533 0.72411,0.09011 0.0681,0.04533 0.18102,0.112534 0.22632,0 0.0455,-0.112612 -0.0453,-0.157589 -0.11317,-0.202654 -0.11315,-0.09011 -0.24891,-0.180035 -0.33942,-0.292558 -0.0456,-0.06778 0.0453,-0.202611 -0.13575,-0.180088 -0.0229,0 -0.0456,0 -0.0456,0.02277 -0.0453,0.09011 0.0681,0.06778 0.0908,0.11258 0,0.02277 -0.0229,0.02277 -0.0681,0.02277 z m 0.70151,2.926378 c -0.0681,-0.2026 -0.20369,-0.360177 -0.31684,-0.540277 -0.0229,-0.04522 -0.0681,-0.09 -0.13576,-0.06778 -0.0906,0.02277 -0.0456,0.09011 -0.0229,0.135034 0.27154,0.540266 0.49788,1.103035 0.72415,1.643223 0.0456,0.112566 0.18105,0.202612 0.29419,0.3152 0.0229,0.02277 0.0455,0.02277 0.0681,0.045 0,-0.02277 0.0229,-0.06778 0,-0.02277 0,-0.652811 -0.42993,-1.013011 -0.61098,-1.508211 z m -2.48924,-5.064868 c -0.0906,-0.15758 -0.0229,-0.22508 0.11317,-0.292611 0.0229,-0.02277 0.0681,-0.06778 0.0229,-0.06778 -0.0456,-0.02277 -0.13577,-0.02277 -0.13577,0 -0.0681,0.157608 -0.58833,0.135088 -0.18103,0.472766 0,0 0,0.06778 0,0.06778 -0.15837,0.112565 -0.11313,0.450234 -0.42992,0.4052 -0.0229,0 -0.0908,0 -0.0456,0.045 0.18106,0.225066 0.43003,0 0.6563,0.06778 0.0681,0.02277 0.11317,-0.06778 0.13576,-0.157577 0.0229,-0.247589 0.0906,-0.450212 0.40735,-0.292655 0.0229,0.02277 0.0903,0.02277 0.0903,-0.02277 0,0 -0.0453,-0.045 -0.0903,-0.045 -0.0456,0 -0.11314,0 -0.15839,0 -0.15845,-0.02277 -0.29423,-0.02277 -0.38472,-0.1801 z m 4.07329,4.884768 c -0.22627,-0.112546 -0.42996,-0.2476 -0.49785,-0.495266 -0.0229,-0.04522 -0.0681,-0.135034 -0.13577,-0.09 -0.0681,0.04533 -0.0456,0.112588 0,0.180077 0.0906,0.135112 0.20366,0.225154 0.24888,0.360189 0.1132,0.427666 0.22633,0.292623 0.38474,0.04533 0,0 0,0 0,0 z M 25.891052,31.595246 c -0.158423,0.09011 0.09056,0.112489 0.02289,0.225054 -0.06811,0.112566 0.113145,0.1801 0.158357,0.157558 0.203677,-0.02277 0.203677,-0.202523 0.158443,-0.360169 -0.02289,-0.09011 -0.113132,-0.02277 -0.18102,0 -0.06811,0.04533 -0.113169,0.04533 -0.1584,-0.02277 -0.02289,0 0,0 0,0 z m -1.606701,2.881321 c 0.02289,-0.09011 -0.06811,-0.1126 -0.135765,-0.1126 -0.135735,0.02277 -0.271566,0.09 -0.339458,0.18008 -0.02288,0.04533 0.135792,-0.02277 0.181046,0.04533 0.09067,-0.06778 0.271577,0.06778 0.294177,-0.1126 z m -0.02288,0.360112 c -0.04556,0.04545 0.02288,0.112611 0.04556,0.09011 0.09089,-0.06778 0.203677,-0.135112 0.271566,-0.225123 0.02289,-0.02277 -0.113123,-0.06778 -0.203646,-0.06778 -0.181032,-0.04533 -0.04533,0.135122 -0.11312,0.202645 z m 13.871752,6.46049 c -0.11313,0 -0.15839,0.06778 -0.18107,0.15758 0,0.06778 -0.0229,0.157589 0.0906,0.157589 0.11315,0 0.11315,-0.13508 0.15842,-0.202646 0.0453,-0.09011 -0.0229,-0.09011 -0.0681,-0.112523 z M 24.035177,34.746613 c -0.113089,0.02277 -0.180989,0.112588 -0.226311,0.202623 -0.04533,0.06778 -0.09056,0.180077 -0.113135,0.247577 0.02289,0 0.04556,0.02277 0.06811,0 0.135734,-0.112557 0.135734,-0.315166 0.3168,-0.427657 -0.04556,0 -0.04556,-0.02277 -0.04556,-0.02277 z"
     id="path2-2-3-7-3"
     style="fill:#f9f9f9;fill-opacity:0.80000001" />
</svg>
