<?xml version="1.0" encoding="UTF-8" standalone="no"?>
<svg
   width="64"
   height="64"
   viewBox="0 0 64 64"
   fill="none"
   version="1.1"
   id="svg8"
   sodipodi:docname="folder-Pop_OS.svg"
   inkscape:version="1.3.2 (091e20ef0f, 2023-11-25)"
   xmlns:inkscape="http://www.inkscape.org/namespaces/inkscape"
   xmlns:sodipodi="http://sodipodi.sourceforge.net/DTD/sodipodi-0.dtd"
   xmlns:xlink="http://www.w3.org/1999/xlink"
   xmlns="http://www.w3.org/2000/svg"
   xmlns:svg="http://www.w3.org/2000/svg">
  <sodipodi:namedview
     id="namedview8"
     pagecolor="#ffffff"
     bordercolor="#999999"
     borderopacity="1"
     inkscape:showpageshadow="2"
     inkscape:pageopacity="0"
     inkscape:pagecheckerboard="0"
     inkscape:deskcolor="#d1d1d1"
     inkscape:zoom="8.4189901"
     inkscape:cx="30.407448"
     inkscape:cy="49.530881"
     inkscape:window-width="1920"
     inkscape:window-height="996"
     inkscape:window-x="0"
     inkscape:window-y="0"
     inkscape:window-maximized="1"
     inkscape:current-layer="svg8"
     showgrid="true">
    <inkscape:grid
       id="grid8"
       units="px"
       originx="0"
       originy="0"
       spacingx="1"
       spacingy="1"
       empcolor="#0099e5"
       empopacity="0.30196078"
       color="#0099e5"
       opacity="0.14901961"
       empspacing="5"
       dotted="false"
       gridanglex="30"
       gridanglez="30"
       visible="true" />
  </sodipodi:namedview>
  <path
     d="M 2.0000006,13.052632 C 2.0000006,10.26219 4.3025345,8 7.142858,8 H 18.5 c 2.680038,0 4.494906,2.986967 4.5,3 0,0 1.579803,2 3,2 H 50.857144 C 53.697416,13 56,15.314821 56,18.105263 V 50.947369 C 56,53.737811 53.697416,56 50.857144,56 H 7.142858 C 4.3025345,56 2.0000006,53.737811 2.0000006,50.947369 Z"
     id="path1"
     sodipodi:nodetypes="ssscssssssss"
     style="fill:url(#linearGradient17)" />
  <path
     d="m 5.0000007,23 c -0.027159,-3.092358 2.0431224,-5 5.0000003,-5 h 41.000002 c 3.046901,0 4.960649,1.89735 4.999849,5 v 28 c 0.07112,3.081468 -2.113351,5 -4.999849,5 H 10.000001 C 7.0129744,56 5.1372767,54.00847 5.0000007,51 Z"
     id="path2"
     sodipodi:nodetypes="cssccsscc"
     style="fill:url(#linearGradient20)" />
  <path
     d="M 7.4419126,26.935376 C 7.9771531,24.631723 10.042585,23 12.423055,23 H 57 c 3.287487,0 5.606098,2.818799 4.866884,6 L 56.558056,52.064624 C 56.022814,54.368278 53.957383,56 51.576788,56 H 7 C 3.7124609,56 1.0088039,53.021095 2,49 Z"
     id="path3"
     sodipodi:nodetypes="cssccsscc"
     style="fill:url(#linearGradient2)" />
  <defs
     id="defs8">
    <linearGradient
       id="linearGradient4"
       inkscape:collect="always">
      <stop
         style="stop-color:#80e5ff;stop-opacity:0.5;"
         offset="0"
         id="stop19" />
      <stop
         style="stop-color:#2ad4ff;stop-opacity:0.12156863;"
         offset="1"
         id="stop20" />
    </linearGradient>
    <linearGradient
       id="linearGradient1"
       inkscape:collect="always">
      <stop
         style="stop-color:#f9cf6c;stop-opacity:0.80000001;"
         offset="0"
         id="stop1" />
      <stop
         style="stop-color:#2ad4ff;stop-opacity:0.12156863;"
         offset="1"
         id="stop2" />
    </linearGradient>
    <linearGradient
       id="linearGradient3"
       inkscape:collect="always">
      <stop
         style="stop-color:#f9cf6c;stop-opacity:0.5;"
         offset="0"
         id="stop15" />
      <stop
         style="stop-color:#2ad4ff;stop-opacity:0.12;"
         offset="1"
         id="stop16" />
    </linearGradient>
    <linearGradient
       id="linearGradient14"
       x1="28.7383"
       y1="25"
       x2="28.7383"
       y2="51"
       gradientUnits="userSpaceOnUse"
       spreadMethod="pad">
      <stop
         stop-color="#FFD075"
         stop-opacity="0.8"
         id="stop13"
         style="stop-color:#f9cf6c;stop-opacity:0.80000001;"
         offset="0" />
      <stop
         offset="1"
         stop-color="#FFD075"
         stop-opacity="0"
         id="stop14"
         style="stop-color:#2ad4ff;stop-opacity:0.12156863;" />
    </linearGradient>
    <linearGradient
       id="linearGradient12"
       x1="28.7383"
       y1="25"
       x2="28.7383"
       y2="51"
       gradientUnits="userSpaceOnUse"
       spreadMethod="pad">
      <stop
         stop-color="#FFD075"
         stop-opacity="0.8"
         id="stop11"
         style="stop-color:#00ccff;stop-opacity:0.73780489;"
         offset="0" />
      <stop
         offset="1"
         stop-color="#FFD075"
         stop-opacity="0"
         id="stop12"
         style="stop-color:#aa87de;stop-opacity:0.27073172;" />
    </linearGradient>
    <linearGradient
       id="linearGradient10"
       x1="28.7383"
       y1="25"
       x2="28.7383"
       y2="51"
       gradientUnits="userSpaceOnUse">
      <stop
         stop-color="#FFD075"
         stop-opacity="0.8"
         id="stop9"
         style="stop-color:#00ccff;stop-opacity:0.73780489;"
         offset="0" />
      <stop
         offset="1"
         stop-color="#FFD075"
         stop-opacity="0"
         id="stop10"
         style="stop-color:#aa87de;stop-opacity:0.22560975;" />
    </linearGradient>
    <linearGradient
       id="paint0_linear_403_1580"
       x1="29"
       y1="13"
       x2="29.237558"
       y2="55.988724"
       gradientUnits="userSpaceOnUse"
       xlink:href="#paint2_linear_403_1580">
      <stop
         stop-color="#FFD075"
         stop-opacity="0.5"
         id="stop3"
         style="stop-color:#00a489;stop-opacity:0.80000001;"
         offset="0" />
      <stop
         offset="1"
         stop-color="#FFD075"
         stop-opacity="0"
         id="stop4"
         style="stop-color:#00a489;stop-opacity:0.05;" />
    </linearGradient>
    <linearGradient
       id="paint1_linear_403_1580"
       x1="29.912073"
       y1="18.218882"
       x2="30.129253"
       y2="55.988724"
       gradientUnits="userSpaceOnUse">
      <stop
         stop-color="#FFD075"
         stop-opacity="0.5"
         id="stop5"
         offset="0"
         style="stop-color:#f9cf6c;stop-opacity:0.5;" />
      <stop
         offset="1"
         stop-color="#FFD075"
         stop-opacity="0"
         id="stop6"
         style="stop-color:#2ad4ff;stop-opacity:0.12156863;" />
    </linearGradient>
    <linearGradient
       id="paint2_linear_403_1580"
       x1="28.7383"
       y1="25"
       x2="28.7383"
       y2="51"
       gradientUnits="userSpaceOnUse"
       xlink:href="#linearGradient12">
      <stop
         stop-color="#FFD075"
         stop-opacity="0.8"
         id="stop7"
         style="stop-color:#00ccff;stop-opacity:0.73780489;"
         offset="0" />
      <stop
         offset="1"
         stop-color="#FFD075"
         stop-opacity="0"
         id="stop8"
         style="stop-color:#aa87de;stop-opacity:0.55000001;" />
    </linearGradient>
    <linearGradient
       id="paint179_linear_0_1"
       x1="854.50702"
       y1="1462.6"
       x2="896.10797"
       y2="1476.1801"
       gradientUnits="userSpaceOnUse">
      <stop
         stop-color="white"
         id="stop762" />
      <stop
         offset="1"
         stop-color="white"
         stop-opacity="0"
         id="stop763" />
    </linearGradient>
    <linearGradient
       id="paint180_linear_0_1"
       x1="872.505"
       y1="1444.02"
       x2="894.33801"
       y2="1458.47"
       gradientUnits="userSpaceOnUse">
      <stop
         stop-color="white"
         id="stop764" />
      <stop
         offset="1"
         stop-color="white"
         stop-opacity="0"
         id="stop765" />
    </linearGradient>
    <linearGradient
       inkscape:collect="always"
       xlink:href="#linearGradient3"
       id="linearGradient17"
       x1="30.506983"
       y1="13.470462"
       x2="30.462496"
       y2="56.112156"
       gradientUnits="userSpaceOnUse" />
    <linearGradient
       inkscape:collect="always"
       xlink:href="#linearGradient1"
       id="linearGradient2"
       x1="32"
       y1="23"
       x2="31"
       y2="56"
       gradientUnits="userSpaceOnUse" />
    <linearGradient
       inkscape:collect="always"
       xlink:href="#linearGradient4"
       id="linearGradient20"
       x1="30"
       y1="18"
       x2="30.500002"
       y2="56"
       gradientUnits="userSpaceOnUse" />
  </defs>
  <g
     id="g8"
     style="fill:#f9f9f9;fill-opacity:0.80000001">
    <path
       style="fill:#f9f9f9;fill-opacity:0.80000001;stroke-width:0.063862"
       id="path2-3-6-4-3-9"
       d="m 40.7311,41.331901 c -0.04788,0.225474 -0.150527,0.425329 -0.326046,0.550853 -0.275864,0.197012 -0.611978,0.139892 -0.850156,-0.09989 -0.223275,-0.222648 -0.298495,-0.599388 -0.22826,-0.924808 0.07249,-0.339725 0.303468,-0.63938 0.599351,-0.733639 0.659648,-0.208316 0.932963,0.607999 0.805111,1.207516 z m -0.403788,-2.317843 c -0.408793,-0.185536 -0.268388,-2.626058 0.1057,-5.588858 0.105702,-0.827837 0.285898,-1.219016 0.489008,-1.418836 0.290902,-0.282487 0.820139,-0.294009 1.178708,-0.234076 0.411405,0.06748 0.805053,0.285568 1.103493,0.613768 0.263345,0.291241 0.29351,0.588014 0.203131,0.973414 -0.147948,0.613771 -0.401228,1.201777 -0.644539,1.775427 -0.05727,0.139849 -0.5618,1.227352 -0.62941,1.361488 -1.216407,2.437736 -1.459604,2.674759 -1.805757,2.517673 z" />
    <path
       style="fill:#f9f9f9;fill-opacity:0.80000001;stroke-width:0.063862"
       id="path4-6-7-4-6-1"
       d="m 32.076225,37.915166 c 0.240785,1.1703 0.215693,2.454778 0.0078,3.379581 -0.193127,0.873428 -0.717271,1.65551 -1.54994,1.918132 -0.729761,0.231232 -1.579961,0.06211 -2.101594,-0.508064 -0.857728,-0.9362 -1.359293,-3.134126 -1.136083,-4.729694 0.180528,-1.281661 0.787471,-2.923045 2.11916,-2.994431 0.08547,-0.0041 0.170535,-0.0022 0.255844,0.0041 1.356759,0.139866 2.096618,1.441479 2.402568,2.928656 z m -2.452694,2.663072 c 0.07465,0.01503 0.150454,0.01503 0.225723,-0.0086 0.253258,-0.08211 0.398718,-0.3826 0.466425,-0.673643 0.102835,-0.442479 0.08818,-0.91921 -0.045,-1.35311 -0.06826,-0.219799 -0.168001,-0.433889 -0.321059,-0.593735 -0.539183,-0.562298 -1.078345,0.02222 -1.171179,0.687935 -0.07254,0.51954 0.03296,1.12179 0.318531,1.54145 0.132911,0.19409 0.323549,0.36246 0.526652,0.402414 z" />
    <path
       style="fill:#f9f9f9;fill-opacity:0.80000001;stroke-width:0.063862"
       id="path6-7-5-7-7-2"
       d="m 35.013053,40.395666 c -0.002,2.160699 0.188067,3.813521 -0.647108,4.010413 -0.677088,0.157043 -0.654507,-0.519477 -0.707214,-1.087504 -0.20056,-2.200746 -0.383654,-5.857285 -0.461466,-8.069429 0.05487,-0.950627 0.614519,-1.532973 1.19633,-1.675546 0.897816,-0.219817 1.855846,-0.157081 2.650816,0.402383 1.572494,1.107604 1.697853,3.139907 0.744885,4.798254 -0.521609,0.904964 -2.099129,1.561497 -2.776243,1.504365 z m 0.200607,-4.843957 c -0.09763,0.01778 -0.258276,0.06747 -0.303455,0.176866 -0.107876,0.254041 -0.100868,1.866874 0.08817,2.543347 0.03035,0.112248 0.09741,0.216907 0.195626,0.25688 0.356169,0.148445 0.677211,-0.348245 0.82267,-0.647973 0.203118,-0.416739 0.268293,-0.907613 0.14037,-1.364464 -0.120626,-0.42518 -0.494032,-1.041819 -0.942944,-0.964656 z" />
    <path
       style="fill:#f9f9f9;fill-opacity:0.80000001;stroke-width:0.063862"
       id="path8-5-3-6-5-7"
       d="m 26.019602,36.62489 c -0.589368,1.41875 -1.567421,2.546254 -2.921705,3.102844 0.388779,1.156033 0.78501,2.297832 1.171197,3.450957 0.215731,0.622188 0.42131,1.304526 0.233273,1.918142 -0.195642,0.627968 -0.958043,0.802058 -1.512305,0.134449 -1.065847,-1.290252 -4.6697,-9.465328 -4.93551,-10.079097 -0.225815,-0.528049 -0.56427,-1.093249 -0.554338,-1.704077 0.01762,-0.919155 1.266585,-1.849708 1.865883,-2.326267 0.837687,-0.665196 1.805694,-1.119087 2.841455,-1.121841 0.807604,0 1.497229,0.25128 2.109217,0.696384 0.93795,0.685232 1.590038,1.778326 1.830828,3.014314 0.210574,1.087531 0.165485,2.200902 -0.127886,2.914487 m -2.746162,-1.552929 c -0.21064,-0.87047 -0.687242,-1.672548 -1.286586,-2.234903 -0.130409,-0.122404 -0.270884,-0.237033 -0.433838,-0.299696 -1.123532,-0.419673 -0.636997,1.718307 -0.453917,2.25782 0.253293,0.756423 0.637004,1.712603 1.151102,2.283457 0.1125,0.125305 0.245805,0.236977 0.39872,0.271175 0.233251,0.05452 0.448901,-0.131575 0.56685,-0.348175 0.09731,-0.179866 0.135282,-0.393935 0.158007,-0.602226 0.0424,-0.442428 0.004,-0.893553 -0.100841,-1.327452 z" />
    <path
       style="mix-blend-mode:normal;fill:#f9f9f9;fill-opacity:0.80000001;stroke-width:0.063862"
       id="path10-5-3-3-0"
       d="m 39.455424,47.490866 c -0.0042,1.253154 -0.67715,2.506324 -2.159284,2.506324 -1.482201,0 -2.17184,-1.233186 -2.17184,-2.491953 0,-1.569957 0.960515,-2.540515 2.201898,-2.540515 1.439546,0.01462 2.14178,1.230367 2.129226,2.526144 z m -2.129226,-1.73545 c -0.930436,0 -1.452119,0.736484 -1.45704,1.741221 0,0.87343 0.428829,1.692693 1.439482,1.692693 1.010678,0 1.396918,-0.8877 1.396918,-1.701274 0.01328,-0.844849 -0.381195,-1.712651 -1.37936,-1.73264 z m 2.751229,3.599415 c 0,0.185562 0.0042,-0.882027 0,-1.044709 h 0.682156 l 0.04798,0.653726 c 0.223273,0.145591 0.569335,0.254041 0.852699,0.254041 0.526729,0 1.075953,-0.151399 1.075953,-0.736474 -0.01762,-0.53096 -0.629522,-0.639384 -1.123543,-0.696539 -0.84016,-0.09778 -1.517286,-0.331025 -1.517286,-1.404301 0,-0.956295 0.950437,-1.432895 1.657686,-1.432895 0.56931,-0.01474 0.973058,0.08748 1.487161,0.556525 0,0.385427 -0.0042,0.613749 -0.0042,0.999105 H 42.57676 l -0.04232,-0.633661 c -0.265845,-0.145662 -0.539295,-0.185591 -0.74988,-0.179819 -0.453973,0.0041 -0.937938,0.248261 -0.937938,0.682144 0,0.425334 0.313408,0.542337 0.870165,0.633747 0.907943,0.137158 1.7832,0.371 1.7832,1.472855 -0.0042,1.204601 -0.998161,1.5214 -1.850832,1.5214 -0.6496,0.0021 -1.055846,-0.134442 -1.570012,-0.645159 z"
       inkscape:connector-curvature="0" />
    <path
       style="mix-blend-mode:normal;fill:#f9f9f9;fill-opacity:0.80000001;stroke-width:0.063862"
       id="path12-6-1-5-9"
       d="m 34.203838,49.586064 c 0,0.219829 -0.155477,0.396743 -0.348592,0.396743 H 29.82499 c -0.193041,0 -0.348546,-0.176914 -0.348546,-0.396743 v -0.03493 c 0,-0.21975 0.155505,-0.396784 0.348546,-0.396784 h 4.030256 c 0.193115,0 0.348592,0.177034 0.348592,0.396784 z"
       inkscape:connector-curvature="0" />
  </g>
</svg>
