<?xml version="1.0" encoding="UTF-8" standalone="no"?>
<svg
   width="64"
   height="64"
   viewBox="0 0 64 64"
   fill="none"
   version="1.1"
   id="svg8"
   sodipodi:docname="folder-paint.svg"
   inkscape:version="1.3.2 (091e20ef0f, 2023-11-25)"
   xmlns:inkscape="http://www.inkscape.org/namespaces/inkscape"
   xmlns:sodipodi="http://sodipodi.sourceforge.net/DTD/sodipodi-0.dtd"
   xmlns:xlink="http://www.w3.org/1999/xlink"
   xmlns="http://www.w3.org/2000/svg"
   xmlns:svg="http://www.w3.org/2000/svg">
  <sodipodi:namedview
     id="namedview8"
     pagecolor="#ffffff"
     bordercolor="#999999"
     borderopacity="1"
     inkscape:showpageshadow="2"
     inkscape:pageopacity="0"
     inkscape:pagecheckerboard="0"
     inkscape:deskcolor="#d1d1d1"
     inkscape:zoom="8.4189902"
     inkscape:cx="26.962854"
     inkscape:cy="35.752506"
     inkscape:window-width="1920"
     inkscape:window-height="996"
     inkscape:window-x="0"
     inkscape:window-y="0"
     inkscape:window-maximized="1"
     inkscape:current-layer="svg8"
     showgrid="true">
    <inkscape:grid
       id="grid8"
       units="px"
       originx="0"
       originy="0"
       spacingx="1"
       spacingy="1"
       empcolor="#0099e5"
       empopacity="0.30196078"
       color="#0099e5"
       opacity="0.14901961"
       empspacing="5"
       dotted="false"
       gridanglex="30"
       gridanglez="30"
       visible="true" />
  </sodipodi:namedview>
  <path
     d="M 2.0000006,13.052632 C 2.0000006,10.26219 4.3025345,8 7.142858,8 H 18.5 c 2.680038,0 4.494906,2.986967 4.5,3 0,0 1.579803,2 3,2 H 50.857144 C 53.697416,13 56,15.314821 56,18.105263 V 50.947369 C 56,53.737811 53.697416,56 50.857144,56 H 7.142858 C 4.3025345,56 2.0000006,53.737811 2.0000006,50.947369 Z"
     sodipodi:nodetypes="ssscssssssss"
     style="fill:url(#linearGradient2);fill-opacity:1"
     id="path1" />
  <path
     d="m 5.0000007,23 c -0.027159,-3.092358 2.0431224,-5 5.0000003,-5 h 41.000002 c 3.046901,0 4.960649,1.89735 4.999849,5 v 28 c 0.07112,3.081468 -2.113351,5 -4.999849,5 H 10.000001 C 7.0129744,56 5.1372767,54.00847 5.0000007,51 Z"
     id="path2"
     sodipodi:nodetypes="cssccsscc"
     style="fill:url(#linearGradient19)" />
  <path
     d="M 7.4419126,26.935376 C 7.9771531,24.631723 10.042585,23 12.423055,23 H 57 c 3.287487,0 5.606098,2.818799 4.866884,6 L 56.558056,52.064624 C 56.022814,54.368278 53.957383,56 51.576788,56 H 7 C 3.7124609,56 1.0088039,53.021095 2,49 Z"
     id="path3"
     sodipodi:nodetypes="cssccsscc"
     style="fill:url(#linearGradient17)" />
  <defs
     id="defs8">
    <linearGradient
       id="linearGradient1"
       inkscape:collect="always">
      <stop
         style="stop-color:#b380ff;stop-opacity:0.49000001;"
         offset="0"
         id="stop1" />
      <stop
         style="stop-color:#5599ff;stop-opacity:0.12;"
         offset="1"
         id="stop2" />
    </linearGradient>
    <linearGradient
       id="linearGradient18"
       inkscape:collect="always">
      <stop
         style="stop-color:#b380ff;stop-opacity:0.5;"
         offset="0"
         id="stop18" />
      <stop
         style="stop-color:#5599ff;stop-opacity:0.15294118;"
         offset="1"
         id="stop19" />
    </linearGradient>
    <linearGradient
       id="linearGradient4"
       inkscape:collect="always">
      <stop
         style="stop-color:#b380ff;stop-opacity:0.80000001;"
         offset="0"
         id="stop15" />
      <stop
         style="stop-color:#5599ff;stop-opacity:0.15294118;"
         offset="1"
         id="stop16" />
    </linearGradient>
    <linearGradient
       id="linearGradient14"
       x1="28.7383"
       y1="25"
       x2="28.7383"
       y2="51"
       gradientUnits="userSpaceOnUse"
       spreadMethod="pad">
      <stop
         stop-color="#FFD075"
         stop-opacity="0.8"
         id="stop13"
         style="stop-color:#b380ff;stop-opacity:0.80000001;"
         offset="0" />
      <stop
         offset="1"
         stop-color="#FFD075"
         stop-opacity="0"
         id="stop14"
         style="stop-color:#5599ff;stop-opacity:0.15121952;" />
    </linearGradient>
    <linearGradient
       id="linearGradient12"
       x1="28.7383"
       y1="25"
       x2="28.7383"
       y2="51"
       gradientUnits="userSpaceOnUse"
       spreadMethod="pad">
      <stop
         stop-color="#FFD075"
         stop-opacity="0.8"
         id="stop11"
         style="stop-color:#00ccff;stop-opacity:0.73780489;"
         offset="0" />
      <stop
         offset="1"
         stop-color="#FFD075"
         stop-opacity="0"
         id="stop12"
         style="stop-color:#aa87de;stop-opacity:0.27073172;" />
    </linearGradient>
    <linearGradient
       id="linearGradient10"
       x1="28.7383"
       y1="25"
       x2="28.7383"
       y2="51"
       gradientUnits="userSpaceOnUse">
      <stop
         stop-color="#FFD075"
         stop-opacity="0.8"
         id="stop9"
         style="stop-color:#00ccff;stop-opacity:0.73780489;"
         offset="0" />
      <stop
         offset="1"
         stop-color="#FFD075"
         stop-opacity="0"
         id="stop10"
         style="stop-color:#aa87de;stop-opacity:0.22560975;" />
    </linearGradient>
    <linearGradient
       id="paint0_linear_403_1580"
       x1="29"
       y1="13"
       x2="29.237558"
       y2="55.988724"
       gradientUnits="userSpaceOnUse"
       xlink:href="#paint2_linear_403_1580">
      <stop
         stop-color="#FFD075"
         stop-opacity="0.5"
         id="stop3"
         style="stop-color:#9955ff;stop-opacity:0.5;"
         offset="0" />
      <stop
         offset="1"
         stop-color="#FFD075"
         stop-opacity="0"
         id="stop4"
         style="stop-color:#5599ff;stop-opacity:0.15294118;" />
    </linearGradient>
    <linearGradient
       id="paint1_linear_403_1580"
       x1="29.912073"
       y1="18.218882"
       x2="30.129253"
       y2="55.988724"
       gradientUnits="userSpaceOnUse">
      <stop
         stop-color="#FFD075"
         stop-opacity="0.5"
         id="stop5"
         offset="0"
         style="stop-color:#b380ff;stop-opacity:0.5;" />
      <stop
         offset="1"
         stop-color="#FFD075"
         stop-opacity="0"
         id="stop6"
         style="stop-color:#5599ff;stop-opacity:0.15294118;" />
    </linearGradient>
    <linearGradient
       id="paint2_linear_403_1580"
       x1="28.7383"
       y1="25"
       x2="28.7383"
       y2="51"
       gradientUnits="userSpaceOnUse"
       xlink:href="#linearGradient12">
      <stop
         stop-color="#FFD075"
         stop-opacity="0.8"
         id="stop7"
         style="stop-color:#00ccff;stop-opacity:0.73780489;"
         offset="0" />
      <stop
         offset="1"
         stop-color="#FFD075"
         stop-opacity="0"
         id="stop8"
         style="stop-color:#aa87de;stop-opacity:0.55000001;" />
    </linearGradient>
    <linearGradient
       id="paint179_linear_0_1"
       x1="854.50702"
       y1="1462.6"
       x2="896.10797"
       y2="1476.1801"
       gradientUnits="userSpaceOnUse">
      <stop
         stop-color="white"
         id="stop762" />
      <stop
         offset="1"
         stop-color="white"
         stop-opacity="0"
         id="stop763" />
    </linearGradient>
    <linearGradient
       id="paint180_linear_0_1"
       x1="872.505"
       y1="1444.02"
       x2="894.33801"
       y2="1458.47"
       gradientUnits="userSpaceOnUse">
      <stop
         stop-color="white"
         id="stop764" />
      <stop
         offset="1"
         stop-color="white"
         stop-opacity="0"
         id="stop765" />
    </linearGradient>
    <linearGradient
       id="linearGradient14-3"
       inkscape:collect="always">
      <stop
         style="stop-color:#9955ff;stop-opacity:0.45197046;"
         offset="0"
         id="stop12-6" />
      <stop
         style="stop-color:#00ccff;stop-opacity:1"
         offset="1"
         id="stop13-7" />
    </linearGradient>
    <linearGradient
       id="paint2_linear"
       x1="159.10699"
       y1="142.106"
       x2="159.10699"
       y2="62"
       gradientUnits="userSpaceOnUse"
       gradientTransform="translate(7.2090916e-6)">
      <stop
         stop-color="#FDA700"
         id="stop9-5"
         offset="0"
         style="stop-color:#ffffff;stop-opacity:1;" />
      <stop
         offset="1"
         stop-color="#FFDE00"
         id="stop10-3"
         style="stop-color:#dbdbdb;stop-opacity:0.99878049;" />
    </linearGradient>
    <linearGradient
       inkscape:collect="always"
       xlink:href="#linearGradient14-3"
       id="linearGradient3"
       x1="5.9196277"
       y1="5.241127"
       x2="10.899876"
       y2="5.2770019"
       gradientUnits="userSpaceOnUse" />
    <linearGradient
       inkscape:collect="always"
       xlink:href="#linearGradient4"
       id="linearGradient17"
       x1="30"
       y1="23"
       x2="30"
       y2="56"
       gradientUnits="userSpaceOnUse" />
    <linearGradient
       inkscape:collect="always"
       xlink:href="#linearGradient18"
       id="linearGradient19"
       x1="30.500002"
       y1="18"
       x2="31"
       y2="56"
       gradientUnits="userSpaceOnUse" />
    <linearGradient
       inkscape:collect="always"
       xlink:href="#linearGradient1"
       id="linearGradient2"
       x1="30"
       y1="13"
       x2="30"
       y2="56"
       gradientUnits="userSpaceOnUse" />
  </defs>
  <path
     d="m 20.655708,30 v 0.0032 c -0.05,0 -0.08892,-6.66e-4 -0.113935,0.02773 -0.798338,0.755497 10.110734,10.233558 10.110734,10.233558 l 4.088568,3.681252 c -1.318339,2.910003 2.812775,2.956605 3.704446,4.432899 0.391671,0.646668 -0.08588,1.525337 -0.79753,1.571077 1.415011,0.441626 3.320748,-2.128532 2.747414,-3.57959 -0.683339,-1.733384 -1.37579,-2.482892 -2.6758,-3.009689 -0.536668,-0.217659 -1.902899,-0.235451 -2.37957,0.01848 l -3.785827,-3.96474 c 0,0 -9.350159,-9.286378 -10.8985,-9.414134 z m 1.72527,9.201576 c -0.361669,0.0016 -0.475263,0.498555 -0.475263,1.176767 0.06832,1.340652 0.965006,5.251757 5.416698,8.101824 3.748355,2.400555 10.609775,1.532163 10.498107,0.16943 -1.508342,-1.772815 -4.032445,-0.666037 -4.065776,-4.910382 -1.466677,0.01577 -3.046637,-0.206249 -2.988301,0.378906 0.246665,2.447872 -3.855987,0.682327 -5.445995,-1.81444 -1.596675,-2.288571 -2.474468,-3.1006 -2.93947,-3.099023 z m 5.843132,3.022012 c -0.243333,0 -0.437268,0.07654 -0.530603,0.227959 -0.185,0.30283 0.113901,0.798428 0.670577,1.102834 0.556671,0.304407 1.159408,0.30283 1.344409,0 0.185,-0.302829 -0.117164,-0.796924 -0.67383,-1.099753 -0.278335,-0.151415 -0.810553,0.0024 -0.810553,-0.22796 z"
     id="path1-3"
     style="fill:#f9f9f9;fill-opacity:0.74901962" />
</svg>
