<?xml version="1.0" encoding="UTF-8" standalone="no"?>
<svg
   width="64"
   height="64"
   viewBox="0 0 64 64"
   fill="none"
   version="1.1"
   id="svg8"
   sodipodi:docname="folder-neon.svg"
   inkscape:version="1.3.2 (091e20ef0f, 2023-11-25)"
   xmlns:inkscape="http://www.inkscape.org/namespaces/inkscape"
   xmlns:sodipodi="http://sodipodi.sourceforge.net/DTD/sodipodi-0.dtd"
   xmlns:xlink="http://www.w3.org/1999/xlink"
   xmlns="http://www.w3.org/2000/svg"
   xmlns:svg="http://www.w3.org/2000/svg">
  <sodipodi:namedview
     id="namedview8"
     pagecolor="#ffffff"
     bordercolor="#999999"
     borderopacity="1"
     inkscape:showpageshadow="2"
     inkscape:pageopacity="0"
     inkscape:pagecheckerboard="0"
     inkscape:deskcolor="#d1d1d1"
     inkscape:zoom="8.4189901"
     inkscape:cx="30.407448"
     inkscape:cy="43.473148"
     inkscape:window-width="1920"
     inkscape:window-height="996"
     inkscape:window-x="0"
     inkscape:window-y="0"
     inkscape:window-maximized="1"
     inkscape:current-layer="svg8"
     showgrid="true">
    <inkscape:grid
       id="grid8"
       units="px"
       originx="0"
       originy="0"
       spacingx="1"
       spacingy="1"
       empcolor="#0099e5"
       empopacity="0.30196078"
       color="#0099e5"
       opacity="0.14901961"
       empspacing="5"
       dotted="false"
       gridanglex="30"
       gridanglez="30"
       visible="true" />
  </sodipodi:namedview>
  <path
     d="M 2.0000006,13.052632 C 2.0000006,10.26219 4.3025345,8 7.142858,8 H 18.5 c 2.680038,0 4.494906,2.986967 4.5,3 0,0 1.579803,2 3,2 H 50.857144 C 53.697416,13 56,15.314821 56,18.105263 V 50.947369 C 56,53.737811 53.697416,56 50.857144,56 H 7.142858 C 4.3025345,56 2.0000006,53.737811 2.0000006,50.947369 Z"
     id="path1"
     sodipodi:nodetypes="ssscssssssss"
     style="fill:url(#linearGradient17)" />
  <path
     d="m 5.0000007,23 c -0.027159,-3.092358 2.0431224,-5 5.0000003,-5 h 41.000002 c 3.046901,0 4.960649,1.89735 4.999849,5 v 28 c 0.07112,3.081468 -2.113351,5 -4.999849,5 H 10.000001 C 7.0129744,56 5.1372767,54.00847 5.0000007,51 Z"
     id="path2"
     sodipodi:nodetypes="cssccsscc"
     style="fill:url(#linearGradient20)" />
  <path
     d="M 7.4419126,26.935376 C 7.9771531,24.631723 10.042585,23 12.423055,23 H 57 c 3.287487,0 5.606098,2.818799 4.866884,6 L 56.558056,52.064624 C 56.022814,54.368278 53.957383,56 51.576788,56 H 7 C 3.7124609,56 1.0088039,53.021095 2,49 Z"
     id="path3"
     sodipodi:nodetypes="cssccsscc"
     style="fill:url(#linearGradient18)" />
  <defs
     id="defs8">
    <linearGradient
       id="linearGradient19"
       inkscape:collect="always">
      <stop
         style="stop-color:#00ccff;stop-opacity:0.5;"
         offset="0"
         id="stop19" />
      <stop
         style="stop-color:#5599ff;stop-opacity:0.10196079;"
         offset="1"
         id="stop20" />
    </linearGradient>
    <linearGradient
       id="linearGradient5"
       inkscape:collect="always">
      <stop
         style="stop-color:#00ccff;stop-opacity:0.80000001;"
         offset="0"
         id="stop17" />
      <stop
         style="stop-color:#5599ff;stop-opacity:0.10196079;"
         offset="1"
         id="stop18" />
    </linearGradient>
    <linearGradient
       id="linearGradient3"
       inkscape:collect="always">
      <stop
         style="stop-color:#00cbfe;stop-opacity:0.50196081;"
         offset="0"
         id="stop15" />
      <stop
         style="stop-color:#5599ff;stop-opacity:0.1;"
         offset="1"
         id="stop16" />
    </linearGradient>
    <linearGradient
       id="linearGradient14"
       x1="28.7383"
       y1="25"
       x2="28.7383"
       y2="51"
       gradientUnits="userSpaceOnUse"
       spreadMethod="pad">
      <stop
         stop-color="#FFD075"
         stop-opacity="0.8"
         id="stop13"
         style="stop-color:#00ccff;stop-opacity:0.80000001;"
         offset="0" />
      <stop
         offset="1"
         stop-color="#FFD075"
         stop-opacity="0"
         id="stop14"
         style="stop-color:#5599ff;stop-opacity:0.1;" />
    </linearGradient>
    <linearGradient
       id="linearGradient12"
       x1="28.7383"
       y1="25"
       x2="28.7383"
       y2="51"
       gradientUnits="userSpaceOnUse"
       spreadMethod="pad">
      <stop
         stop-color="#FFD075"
         stop-opacity="0.8"
         id="stop11"
         style="stop-color:#00ccff;stop-opacity:0.73780489;"
         offset="0" />
      <stop
         offset="1"
         stop-color="#FFD075"
         stop-opacity="0"
         id="stop12"
         style="stop-color:#aa87de;stop-opacity:0.27073172;" />
    </linearGradient>
    <linearGradient
       id="linearGradient10"
       x1="28.7383"
       y1="25"
       x2="28.7383"
       y2="51"
       gradientUnits="userSpaceOnUse">
      <stop
         stop-color="#FFD075"
         stop-opacity="0.8"
         id="stop9"
         style="stop-color:#00ccff;stop-opacity:0.73780489;"
         offset="0" />
      <stop
         offset="1"
         stop-color="#FFD075"
         stop-opacity="0"
         id="stop10"
         style="stop-color:#aa87de;stop-opacity:0.22560975;" />
    </linearGradient>
    <linearGradient
       id="paint0_linear_403_1580"
       x1="29"
       y1="13"
       x2="29.237558"
       y2="55.988724"
       gradientUnits="userSpaceOnUse"
       xlink:href="#paint2_linear_403_1580">
      <stop
         stop-color="#FFD075"
         stop-opacity="0.5"
         id="stop3"
         style="stop-color:#00a489;stop-opacity:0.80000001;"
         offset="0" />
      <stop
         offset="1"
         stop-color="#FFD075"
         stop-opacity="0"
         id="stop4"
         style="stop-color:#00a489;stop-opacity:0.05;" />
    </linearGradient>
    <linearGradient
       id="paint1_linear_403_1580"
       x1="29.912073"
       y1="18.218882"
       x2="30.129253"
       y2="55.988724"
       gradientUnits="userSpaceOnUse">
      <stop
         stop-color="#FFD075"
         stop-opacity="0.5"
         id="stop5"
         offset="0"
         style="stop-color:#00ccff;stop-opacity:0.5;" />
      <stop
         offset="1"
         stop-color="#FFD075"
         stop-opacity="0"
         id="stop6"
         style="stop-color:#5599ff;stop-opacity:0.1;" />
    </linearGradient>
    <linearGradient
       id="paint2_linear_403_1580"
       x1="28.7383"
       y1="25"
       x2="28.7383"
       y2="51"
       gradientUnits="userSpaceOnUse"
       xlink:href="#linearGradient12">
      <stop
         stop-color="#FFD075"
         stop-opacity="0.8"
         id="stop7"
         style="stop-color:#00ccff;stop-opacity:0.73780489;"
         offset="0" />
      <stop
         offset="1"
         stop-color="#FFD075"
         stop-opacity="0"
         id="stop8"
         style="stop-color:#aa87de;stop-opacity:0.55000001;" />
    </linearGradient>
    <linearGradient
       id="paint179_linear_0_1"
       x1="854.50702"
       y1="1462.6"
       x2="896.10797"
       y2="1476.1801"
       gradientUnits="userSpaceOnUse">
      <stop
         stop-color="white"
         id="stop762" />
      <stop
         offset="1"
         stop-color="white"
         stop-opacity="0"
         id="stop763" />
    </linearGradient>
    <linearGradient
       id="paint180_linear_0_1"
       x1="872.505"
       y1="1444.02"
       x2="894.33801"
       y2="1458.47"
       gradientUnits="userSpaceOnUse">
      <stop
         stop-color="white"
         id="stop764" />
      <stop
         offset="1"
         stop-color="white"
         stop-opacity="0"
         id="stop765" />
    </linearGradient>
    <linearGradient
       inkscape:collect="always"
       xlink:href="#linearGradient3"
       id="linearGradient17"
       x1="30.506983"
       y1="13.470462"
       x2="30.462496"
       y2="56.112156"
       gradientUnits="userSpaceOnUse" />
    <linearGradient
       inkscape:collect="always"
       xlink:href="#linearGradient5"
       id="linearGradient18"
       x1="30"
       y1="23"
       x2="30"
       y2="56"
       gradientUnits="userSpaceOnUse" />
    <linearGradient
       inkscape:collect="always"
       xlink:href="#linearGradient19"
       id="linearGradient20"
       x1="30"
       y1="18"
       x2="30"
       y2="56"
       gradientUnits="userSpaceOnUse" />
  </defs>
  <path
     d="m 30.5,30 c -0.41025,0 -0.76301,0.231546 -0.93706,0.571873 -1.91919,0.188034 -3.66744,0.941725 -5.07537,2.096348 -0.36208,-0.113443 -0.77078,-0.02642 -1.05827,0.261072 -0.28749,0.28749 -0.37452,0.696193 -0.26107,1.058275 -1.15463,1.407925 -1.90987,3.156177 -2.09635,5.075369 C 20.73155,39.236985 20.5,39.589744 20.5,40 c 0,0.410257 0.23155,0.763015 0.57188,0.937063 0.18803,1.919194 0.94172,3.667442 2.09635,5.075367 -0.11345,0.362084 -0.0264,0.770787 0.26107,1.058278 0.28749,0.287488 0.69619,0.374512 1.05827,0.261071 1.40793,1.154621 3.15618,1.908311 5.07537,2.096347 C 29.73699,49.768453 30.08975,50 30.5,50 c 0.41026,0 0.76302,-0.233101 0.93707,-0.571874 1.91919,-0.188036 3.66744,-0.941726 5.07536,-2.096347 0.36209,0.113441 0.77079,0.02643 1.05828,-0.261071 0.28749,-0.287491 0.37451,-0.696194 0.26107,-1.058278 1.15462,-1.407925 1.90987,-3.156173 2.09635,-5.075367 C 40.2669,40.763015 40.5,40.410257 40.5,40 c 0,-0.410256 -0.2331,-0.763015 -0.57187,-0.937063 -0.18648,-1.919192 -0.94173,-3.667444 -2.09635,-5.075369 0.11344,-0.362082 0.0264,-0.770785 -0.26107,-1.058275 -0.28749,-0.28749 -0.69619,-0.374515 -1.05828,-0.261072 C 35.10451,31.513598 33.35626,30.759907 31.43707,30.571873 31.26302,30.231546 30.91026,30 30.5,30 Z m 0,0.526807 c 0.29215,0 0.52681,0.234654 0.52681,0.526806 0,0.290599 -0.23466,0.525253 -0.52681,0.525253 -0.29215,0 -0.5268,-0.234654 -0.5268,-0.525253 0,-0.292152 0.23465,-0.526806 0.5268,-0.526806 z m -0.88422,1.098679 c 0.18648,0.289044 0.51282,0.480186 0.88422,0.480186 0.37141,0 0.69775,-0.191142 0.88423,-0.480186 1.66589,0.172494 3.18415,0.825175 4.41337,1.819736 -0.0746,0.338772 0.0202,0.70707 0.28438,0.972805 0.26573,0.26418 0.63403,0.358974 0.9728,0.284382 0.99456,1.229215 1.64724,2.747475 1.81974,4.413364 -0.28905,0.186479 -0.48019,0.512822 -0.48019,0.884227 0,0.371407 0.19114,0.697748 0.48019,0.884227 -0.1725,1.665891 -0.82518,3.184147 -1.81974,4.413364 -0.33877,-0.07459 -0.70707,0.0202 -0.9728,0.284382 -0.26418,0.265735 -0.35897,0.634033 -0.28438,0.972802 -1.22922,0.994562 -2.74748,1.647246 -4.41337,1.819739 -0.18648,-0.289045 -0.51282,-0.480187 -0.88423,-0.480187 -0.3714,0 -0.69774,0.191142 -0.88422,0.480187 -1.66589,-0.172493 -3.18415,-0.825177 -4.41337,-1.819739 0.0746,-0.338769 -0.0202,-0.707067 -0.28438,-0.972802 -0.26573,-0.26418 -0.63403,-0.358972 -0.9728,-0.284382 -0.99456,-1.229217 -1.64725,-2.747473 -1.81974,-4.413364 0.28904,-0.186479 0.48019,-0.51282 0.48019,-0.884227 0,-0.371405 -0.19115,-0.697748 -0.48019,-0.884227 0.17249,-1.665889 0.82518,-3.184149 1.81974,-4.413364 0.33877,0.07459 0.70707,-0.0202 0.9728,-0.284382 0.26418,-0.265735 0.35898,-0.634033 0.28438,-0.972805 1.22922,-0.994561 2.74748,-1.647242 4.41337,-1.819736 z m -5.44212,1.521367 c 0.1352,0 0.26885,0.05128 0.37141,0.153846 0.20668,0.206683 0.20668,0.539239 0,0.744367 -0.20513,0.206682 -0.53768,0.206682 -0.74437,0 -0.20512,-0.205128 -0.20512,-0.537684 0,-0.744367 0.10412,-0.102564 0.23777,-0.153846 0.37296,-0.153846 z m 12.65268,0 c 0.1352,0 0.26884,0.05128 0.37296,0.153846 0.20513,0.206683 0.20513,0.539239 0,0.744367 -0.20668,0.206682 -0.53924,0.206682 -0.74436,0 -0.20668,-0.205128 -0.20668,-0.537684 0,-0.744367 0.10256,-0.102564 0.23621,-0.153846 0.3714,-0.153846 z M 30.5,33.157733 c -0.41958,0 -0.78011,0.243978 -0.94949,0.596737 -3.04584,0.455322 -5.36597,3.069153 -5.36597,6.245533 0,3.176375 2.32013,5.790209 5.36597,6.245531 0.16938,0.352761 0.52991,0.596739 0.94949,0.596739 0.41959,0 0.78011,-0.243978 0.9495,-0.596739 3.04584,-0.455322 5.36597,-3.069156 5.36597,-6.245531 0,-3.17638 -2.32013,-5.790211 -5.36597,-6.245533 C 31.28011,33.401711 30.91959,33.157733 30.5,33.157733 Z m 0,0.526807 c 0.29215,0 0.52681,0.234654 0.52681,0.526806 0,0.290599 -0.23466,0.525253 -0.52681,0.525253 -0.29215,0 -0.5268,-0.234654 -0.5268,-0.525253 0,-0.292152 0.23465,-0.526806 0.5268,-0.526806 z m -0.86868,1.12354 c 0.18959,0.275058 0.50816,0.455323 0.86868,0.455323 0.36053,0 0.6791,-0.180265 0.86869,-0.455323 2.49883,0.41181 4.39472,2.571872 4.39472,5.19192 0,2.620048 -1.89589,4.780107 -4.39472,5.191919 -0.18959,-0.27506 -0.50816,-0.455322 -0.86869,-0.455322 -0.36052,0 -0.67909,0.180262 -0.86868,0.455322 C 27.13248,44.780107 25.2366,42.620048 25.2366,40 c 0,-2.620048 1.89588,-4.78011 4.39472,-5.19192 z m -8.0777,4.665113 c 0.2906,0 0.52525,0.234653 0.52525,0.526807 0,0.292151 -0.23465,0.526806 -0.52525,0.526806 -0.29215,0 -0.52681,-0.234655 -0.52681,-0.526806 0,-0.292154 0.23466,-0.526807 0.52681,-0.526807 z m 17.89277,0 c 0.29215,0 0.52681,0.234653 0.52681,0.526807 0,0.292151 -0.23466,0.526806 -0.52681,0.526806 -0.2906,0 -0.52525,-0.234655 -0.52525,-0.526806 0,-0.292154 0.23465,-0.526807 0.52525,-0.526807 z M 30.5,45.263403 c 0.29215,0 0.52681,0.234652 0.52681,0.525252 0,0.292154 -0.23466,0.526806 -0.52681,0.526806 -0.29215,0 -0.5268,-0.234652 -0.5268,-0.526806 0,-0.2906 0.23465,-0.525252 0.5268,-0.525252 z m -6.32634,0.536129 c 0.1352,0 0.26885,0.05128 0.37141,0.155402 0.20668,0.205124 0.20668,0.537683 0,0.744364 -0.20513,0.20513 -0.53768,0.20513 -0.74437,0 -0.20512,-0.206681 -0.20512,-0.53924 0,-0.744364 0.10412,-0.104121 0.23777,-0.155402 0.37296,-0.155402 z m 12.65268,0 c 0.1352,0 0.26884,0.05128 0.37296,0.155402 0.20513,0.205124 0.20513,0.537683 0,0.744364 -0.20668,0.20513 -0.53924,0.20513 -0.74436,0 -0.20668,-0.206681 -0.20668,-0.53924 0,-0.744364 0.10256,-0.104121 0.23621,-0.155402 0.3714,-0.155402 z M 30.5,48.421133 c 0.29215,0 0.52681,0.234652 0.52681,0.525252 0,0.292154 -0.23466,0.526809 -0.52681,0.526809 -0.29215,0 -0.5268,-0.234655 -0.5268,-0.526809 0,-0.2906 0.23465,-0.525252 0.5268,-0.525252 z m 0,0"
     id="path3-3"
     style="fill:#f9f9f9;fill-opacity:0.74901962" />
  <path
     d="m 30.28197,36.601554 c 1.86322,0 3.37532,1.512043 3.37532,3.375314 0,1.863271 -1.5121,3.375313 -3.37532,3.375313 -1.86322,0 -3.37531,-1.512042 -3.37531,-3.375313 0,-1.863271 1.51209,-3.375314 3.37531,-3.375314 z m 0,0"
     id="path2-6"
     style="fill:#f9f9f9;fill-opacity:0.74901962" />
</svg>
