<?xml version="1.0" encoding="UTF-8" standalone="no"?>
<svg
   width="64"
   height="64"
   viewBox="0 0 64 64"
   fill="none"
   version="1.1"
   id="svg8"
   sodipodi:docname="folder-notes.svg"
   inkscape:version="1.3.2 (091e20ef0f, 2023-11-25)"
   xmlns:inkscape="http://www.inkscape.org/namespaces/inkscape"
   xmlns:sodipodi="http://sodipodi.sourceforge.net/DTD/sodipodi-0.dtd"
   xmlns:xlink="http://www.w3.org/1999/xlink"
   xmlns="http://www.w3.org/2000/svg"
   xmlns:svg="http://www.w3.org/2000/svg">
  <sodipodi:namedview
     id="namedview8"
     pagecolor="#ffffff"
     bordercolor="#999999"
     borderopacity="1"
     inkscape:showpageshadow="2"
     inkscape:pageopacity="0"
     inkscape:pagecheckerboard="0"
     inkscape:deskcolor="#d1d1d1"
     inkscape:zoom="8.4189901"
     inkscape:cx="30.407448"
     inkscape:cy="49.530881"
     inkscape:window-width="1920"
     inkscape:window-height="996"
     inkscape:window-x="0"
     inkscape:window-y="0"
     inkscape:window-maximized="1"
     inkscape:current-layer="svg8"
     showgrid="true">
    <inkscape:grid
       id="grid8"
       units="px"
       originx="0"
       originy="0"
       spacingx="1"
       spacingy="1"
       empcolor="#0099e5"
       empopacity="0.30196078"
       color="#0099e5"
       opacity="0.14901961"
       empspacing="5"
       dotted="false"
       gridanglex="30"
       gridanglez="30"
       visible="true" />
  </sodipodi:namedview>
  <path
     d="M 2.0000006,13.052632 C 2.0000006,10.26219 4.3025345,8 7.142858,8 H 18.5 c 2.680038,0 4.494906,2.986967 4.5,3 0,0 1.579803,2 3,2 H 50.857144 C 53.697416,13 56,15.314821 56,18.105263 V 50.947369 C 56,53.737811 53.697416,56 50.857144,56 H 7.142858 C 4.3025345,56 2.0000006,53.737811 2.0000006,50.947369 Z"
     id="path1"
     sodipodi:nodetypes="ssscssssssss"
     style="fill:url(#linearGradient17)" />
  <path
     d="m 5.0000007,23 c -0.027159,-3.092358 2.0431224,-5 5.0000003,-5 h 41.000002 c 3.046901,0 4.960649,1.89735 4.999849,5 v 28 c 0.07112,3.081468 -2.113351,5 -4.999849,5 H 10.000001 C 7.0129744,56 5.1372767,54.00847 5.0000007,51 Z"
     id="path2"
     sodipodi:nodetypes="cssccsscc"
     style="fill:url(#linearGradient20)" />
  <path
     d="M 7.4419126,26.935376 C 7.9771531,24.631723 10.042585,23 12.423055,23 H 57 c 3.287487,0 5.606098,2.818799 4.866884,6 L 56.558056,52.064624 C 56.022814,54.368278 53.957383,56 51.576788,56 H 7 C 3.7124609,56 1.0088039,53.021095 2,49 Z"
     id="path3"
     sodipodi:nodetypes="cssccsscc"
     style="fill:url(#linearGradient18)" />
  <defs
     id="defs8">
    <linearGradient
       id="linearGradient19"
       inkscape:collect="always">
      <stop
         style="stop-color:#66a3ff;stop-opacity:0.5;"
         offset="0"
         id="stop19" />
      <stop
         style="stop-color:#66a3ff;stop-opacity:0.1;"
         offset="1"
         id="stop20" />
    </linearGradient>
    <linearGradient
       id="linearGradient4"
       inkscape:collect="always">
      <stop
         style="stop-color:#66a3ff;stop-opacity:0.8509804;"
         offset="0"
         id="stop17" />
      <stop
         style="stop-color:#66a3ff;stop-opacity:0.10365853;"
         offset="1"
         id="stop18" />
    </linearGradient>
    <linearGradient
       id="linearGradient3"
       inkscape:collect="always">
      <stop
         style="stop-color:#66a3ff;stop-opacity:0.5;"
         offset="0"
         id="stop15" />
      <stop
         style="stop-color:#80b3ff;stop-opacity:0.1;"
         offset="1"
         id="stop16" />
    </linearGradient>
    <linearGradient
       id="linearGradient14"
       x1="28.7383"
       y1="25"
       x2="28.7383"
       y2="51"
       gradientUnits="userSpaceOnUse"
       spreadMethod="pad">
      <stop
         stop-color="#FFD075"
         stop-opacity="0.8"
         id="stop13"
         style="stop-color:#66a3ff;stop-opacity:0.85000002;"
         offset="0" />
      <stop
         offset="1"
         stop-color="#FFD075"
         stop-opacity="0"
         id="stop14"
         style="stop-color:#80b3ff;stop-opacity:0.1;" />
    </linearGradient>
    <linearGradient
       id="linearGradient12"
       x1="28.7383"
       y1="25"
       x2="28.7383"
       y2="51"
       gradientUnits="userSpaceOnUse"
       spreadMethod="pad">
      <stop
         stop-color="#FFD075"
         stop-opacity="0.8"
         id="stop11"
         style="stop-color:#00ccff;stop-opacity:0.73780489;"
         offset="0" />
      <stop
         offset="1"
         stop-color="#FFD075"
         stop-opacity="0"
         id="stop12"
         style="stop-color:#aa87de;stop-opacity:0.27073172;" />
    </linearGradient>
    <linearGradient
       id="linearGradient10"
       x1="28.7383"
       y1="25"
       x2="28.7383"
       y2="51"
       gradientUnits="userSpaceOnUse">
      <stop
         stop-color="#FFD075"
         stop-opacity="0.8"
         id="stop9"
         style="stop-color:#00ccff;stop-opacity:0.73780489;"
         offset="0" />
      <stop
         offset="1"
         stop-color="#FFD075"
         stop-opacity="0"
         id="stop10"
         style="stop-color:#aa87de;stop-opacity:0.22560975;" />
    </linearGradient>
    <linearGradient
       id="paint0_linear_403_1580"
       x1="29"
       y1="13"
       x2="29.237558"
       y2="55.988724"
       gradientUnits="userSpaceOnUse"
       xlink:href="#paint2_linear_403_1580">
      <stop
         stop-color="#FFD075"
         stop-opacity="0.5"
         id="stop3"
         style="stop-color:#00a489;stop-opacity:0.80000001;"
         offset="0" />
      <stop
         offset="1"
         stop-color="#FFD075"
         stop-opacity="0"
         id="stop4"
         style="stop-color:#00a489;stop-opacity:0.05;" />
    </linearGradient>
    <linearGradient
       id="paint1_linear_403_1580"
       x1="29.912073"
       y1="18.218882"
       x2="30.129253"
       y2="55.988724"
       gradientUnits="userSpaceOnUse">
      <stop
         stop-color="#FFD075"
         stop-opacity="0.5"
         id="stop5"
         offset="0"
         style="stop-color:#66a3ff;stop-opacity:0.5;" />
      <stop
         offset="1"
         stop-color="#FFD075"
         stop-opacity="0"
         id="stop6"
         style="stop-color:#80b3ff;stop-opacity:0.1;" />
    </linearGradient>
    <linearGradient
       id="paint2_linear_403_1580"
       x1="28.7383"
       y1="25"
       x2="28.7383"
       y2="51"
       gradientUnits="userSpaceOnUse"
       xlink:href="#linearGradient12">
      <stop
         stop-color="#FFD075"
         stop-opacity="0.8"
         id="stop7"
         style="stop-color:#00ccff;stop-opacity:0.73780489;"
         offset="0" />
      <stop
         offset="1"
         stop-color="#FFD075"
         stop-opacity="0"
         id="stop8"
         style="stop-color:#aa87de;stop-opacity:0.55000001;" />
    </linearGradient>
    <linearGradient
       id="paint179_linear_0_1"
       x1="854.50702"
       y1="1462.6"
       x2="896.10797"
       y2="1476.1801"
       gradientUnits="userSpaceOnUse">
      <stop
         stop-color="white"
         id="stop762" />
      <stop
         offset="1"
         stop-color="white"
         stop-opacity="0"
         id="stop763" />
    </linearGradient>
    <linearGradient
       id="paint180_linear_0_1"
       x1="872.505"
       y1="1444.02"
       x2="894.33801"
       y2="1458.47"
       gradientUnits="userSpaceOnUse">
      <stop
         stop-color="white"
         id="stop764" />
      <stop
         offset="1"
         stop-color="white"
         stop-opacity="0"
         id="stop765" />
    </linearGradient>
    <linearGradient
       inkscape:collect="always"
       xlink:href="#linearGradient3"
       id="linearGradient17"
       x1="30.506983"
       y1="13.470462"
       x2="30.462496"
       y2="56.112156"
       gradientUnits="userSpaceOnUse" />
    <linearGradient
       inkscape:collect="always"
       xlink:href="#linearGradient4"
       id="linearGradient18"
       x1="32"
       y1="23"
       x2="32"
       y2="56"
       gradientUnits="userSpaceOnUse" />
    <linearGradient
       inkscape:collect="always"
       xlink:href="#linearGradient19"
       id="linearGradient20"
       x1="30.500002"
       y1="18"
       x2="31"
       y2="56"
       gradientUnits="userSpaceOnUse" />
  </defs>
  <path
     d="M 22.166666,30 C 21.243333,30 20.5,30.743333 20.5,31.666667 V 48.333334 C 20.5,49.256667 21.243333,50 22.166666,50 H 35.5 c 0.923333,0 1.666667,-0.743333 1.666667,-1.666666 h 1.666666 C 39.756667,48.333334 40.5,47.59 40.5,46.666667 v -3.333333 c 0,-0.31 -0.106666,-0.585 -0.253333,-0.833334 C 40.393334,42.251667 40.5,41.976667 40.5,41.666667 v -3.333333 c 0,-0.31 -0.106666,-0.585 -0.253333,-0.833334 C 40.393334,37.251667 40.5,36.976667 40.5,36.666667 V 33.333333 C 40.5,32.41 39.756667,31.666667 38.833333,31.666667 H 37.166667 C 37.166667,30.743333 36.423333,30 35.5,30 Z m 0,1.666667 H 35.5 V 48.333334 H 22.166666 Z m 1.666667,1.666666 v 3.333334 h 10 v -3.333334 z m 13.333334,0 h 1.666666 v 3.333334 H 37.166667 Z M 23.833333,38.333334 V 40 h 10 v -1.666666 z m 13.333334,0 h 1.666666 v 3.333333 h -1.666666 z m -13.333334,3.333333 v 1.666667 h 10 v -1.666667 z m 13.333334,1.666667 h 1.666666 v 3.333333 H 37.166667 Z M 23.833333,45 v 1.666667 h 10 V 45 Z"
     id="path5"
     style="fill:#f9f9f9;fill-opacity:0.74901962" />
</svg>
