<svg width="16" height="16" viewBox="0 0 16 16" fill="none" xmlns="http://www.w3.org/2000/svg">
<path d="M6.3536 1.63539C6.5465 1.1786 7.04835 0.916457 7.5054 1.02405C9.71395 1.42803 11.9216 1.83396 14.1292 2.24282C14.6869 2.32401 15.0973 2.94904 14.9794 3.53886C14.5973 5.9275 14.2161 8.3171 13.8239 10.7038C13.7124 11.365 13.0149 11.7171 12.439 11.5303C12.4381 11.1645 12.4381 10.7987 12.4399 10.4328C12.6374 10.3624 12.8696 10.2558 12.8797 9.9946C13.2142 7.9845 13.5259 5.96955 13.8577 3.95849C13.8934 3.74426 13.9218 3.46746 13.717 3.33737C13.5296 3.24247 13.3175 3.22683 13.1164 3.18477C11.3658 2.86785 9.61615 2.54213 7.86555 2.21935C7.6718 2.1812 7.42315 2.15185 7.30065 2.35726C7.17905 2.62234 7.1736 2.92752 7.11415 3.21119C6.81705 3.26008 6.52 3.30998 6.22565 3.37355C6.1616 3.37552 6.03275 3.38138 5.96875 3.38333C6.2192 2.84242 6.1406 2.19391 6.3536 1.63539Z" fill="url(#paint0_linear_448_458)"/>
<path fill-rule="evenodd" clip-rule="evenodd" d="M7.74495 3.10464C7.5351 3.14306 7.3253 3.18146 7.11445 3.211C6.81735 3.25989 6.52025 3.30979 6.2259 3.37336C5.0034 3.56542 3.78091 3.77483 2.55951 3.98404L2.55902 3.98413C2.33114 4.02315 2.10331 4.06218 1.87552 4.10109C1.31332 4.17934 0.901046 4.80928 1.0208 5.40202C1.23882 6.88717 1.45941 8.37192 1.68001 9.85672C1.80811 10.719 1.93622 11.5813 2.06383 12.4437C2.10771 12.8721 2.39566 13.2555 2.78234 13.3807C2.99606 13.4608 3.22021 13.4252 3.43937 13.3904C3.47984 13.384 3.52024 13.3776 3.56027 13.3719C3.56259 13.4495 3.5617 13.5284 3.56082 13.6077C3.55785 13.8725 3.55481 14.142 3.6709 14.3814C3.83452 14.7394 4.1892 14.9898 4.56401 14.9937C5.23955 15.0025 5.9151 15.0006 6.59065 14.9947C6.82375 15.0084 7.05595 14.8421 7.1126 14.5966C7.21405 14.2845 6.9874 13.9099 6.6784 13.8874C6.3895 13.8693 6.0999 13.8732 5.8103 13.8771C5.5208 13.8811 5.23125 13.885 4.94245 13.8669C4.70569 13.8405 4.57954 13.5695 4.60879 13.3367C4.61036 12.4405 4.6099 11.544 4.60947 10.6476C4.60885 9.45227 4.60826 8.25697 4.61244 7.06192C4.59599 6.82232 4.80076 6.60517 5.0247 6.62372C7.01115 6.61882 8.9985 6.61787 10.9849 6.62372C11.2043 6.61007 11.4027 6.82522 11.3881 7.05902C11.3922 8.25512 11.3917 9.45127 11.391 10.6474C11.3906 11.5445 11.3901 12.4416 11.3917 13.3387C11.4219 13.5744 11.2893 13.8483 11.0489 13.8679C10.7858 13.8845 10.5218 13.8808 10.2578 13.8771C9.97885 13.8732 9.69975 13.8693 9.4217 13.8894C9.1429 13.9099 8.93175 14.2171 8.9747 14.5085C8.99665 14.7854 9.2398 15.0084 9.4994 14.9937C10.1457 15.0015 10.792 15.0025 11.4383 14.9927C11.9649 14.9927 12.4329 14.4909 12.4338 13.9285C12.4405 13.479 12.4394 13.0294 12.4383 12.5797C12.4374 12.2299 12.4365 11.8801 12.4393 11.5301C12.4384 11.1643 12.4384 10.7985 12.4402 10.4326C12.4368 9.76162 12.4373 9.09067 12.4378 8.41967C12.4383 7.83767 12.4387 7.25562 12.4366 6.67362C12.4558 6.26477 12.2592 5.85687 11.9256 5.65242C11.6791 5.49142 11.3893 5.49567 11.1065 5.49987C11.0285 5.50102 10.9511 5.50217 10.8752 5.49987C10.5329 5.51122 10.1909 5.49952 9.8488 5.48777C9.57335 5.47832 9.2979 5.46887 9.02225 5.47147L8.9729 5.45192C9.19995 5.40792 9.43135 5.42482 9.66235 5.44167C9.7652 5.44917 9.86795 5.45667 9.9702 5.45877C9.9409 5.26577 9.91355 5.07242 9.88625 4.8791C9.83785 4.53647 9.7894 4.19376 9.7298 3.85362C9.64935 3.33424 9.17675 2.92342 8.6831 2.96254C8.36795 2.99059 8.0564 3.04762 7.74495 3.10464ZM2.12234 5.70817C2.04189 5.44407 2.20827 5.14382 2.47336 5.12912C3.5445 4.94322 4.61653 4.76235 5.68845 4.58153C6.50005 4.44462 7.3117 4.30768 8.12275 4.1686C8.3394 4.11772 8.631 4.10991 8.7334 4.36911C8.8321 4.74374 8.87965 5.13402 8.8888 5.52332C8.0181 5.49247 7.14635 5.49677 6.27465 5.50112C5.73695 5.50377 5.19925 5.50642 4.66181 5.50082C4.09962 5.45292 3.56211 5.96837 3.56668 6.57577C3.5603 7.52422 3.56143 8.47287 3.56257 9.42167C3.56371 10.3712 3.56485 11.3209 3.55844 12.2706C3.32626 12.2706 3.0511 12.161 3.03648 11.8725C2.72658 9.81837 2.42309 7.76327 2.12234 5.70817ZM6.11425 7.99622C5.97155 7.99757 5.82455 7.99892 5.7049 8.08902C5.427 8.26997 5.38955 8.73262 5.63265 8.96347C5.7631 9.11137 5.95565 9.11222 6.13435 9.11297C6.1648 9.11312 6.19485 9.11322 6.2241 9.11407C6.81385 9.11002 7.4036 9.11097 7.99335 9.11187C8.6816 9.11297 9.3698 9.11407 10.058 9.10722C10.4027 9.11702 10.655 8.68662 10.5179 8.35407C10.4374 8.11147 10.1943 7.97747 9.96205 7.99707C9.38955 7.99527 8.81725 7.99572 8.2451 7.99617C7.56825 7.99672 6.89165 7.99732 6.215 7.99412C6.18195 7.99562 6.1482 7.99592 6.11425 7.99622ZM5.70025 9.85067C5.82085 9.75752 5.969 9.75707 6.11235 9.75657C6.1482 9.75647 6.1838 9.75637 6.21855 9.75477C6.7896 9.75872 7.36065 9.75777 7.9316 9.75682C8.6393 9.75567 9.34695 9.75447 10.0543 9.76262C10.4245 9.75187 10.6787 10.238 10.494 10.5745C10.398 10.7838 10.1786 10.8885 9.96745 10.8718C9.4319 10.8731 8.89635 10.8727 8.36075 10.8724C7.64655 10.8719 6.93225 10.8714 6.21765 10.8748C6.1923 10.8741 6.16645 10.874 6.14025 10.8738C5.9585 10.8727 5.76155 10.8714 5.62895 10.7193C5.39035 10.4894 5.4269 10.0326 5.70025 9.85067ZM6.94025 11.5108C6.5898 11.5074 6.2394 11.504 5.8904 11.5281C5.5924 11.5761 5.3904 11.9448 5.4946 12.2471C5.56135 12.4877 5.7908 12.6471 6.02295 12.6305C6.1578 12.631 6.29265 12.6319 6.4275 12.6328C6.8777 12.6359 7.3279 12.6389 7.7781 12.6246C8.1447 12.6207 8.38055 12.1248 8.1849 11.7971C8.0743 11.5663 7.81835 11.4949 7.59345 11.5105C7.3759 11.515 7.15805 11.5129 6.94025 11.5108Z" fill="url(#paint1_linear_448_458)"/>
<defs>
<linearGradient id="paint0_linear_448_458" x1="5.96875" y1="11.5801" x2="17.3593" y2="7.3424" gradientUnits="userSpaceOnUse">
<stop stop-color="#0357D1"/>
<stop offset="1" stop-color="#27CDFC"/>
</linearGradient>
<linearGradient id="paint1_linear_448_458" x1="11.9219" y1="3.16689" x2="0.90294" y2="14.174" gradientUnits="userSpaceOnUse">
<stop stop-color="#D800BD"/>
<stop offset="0.408098" stop-color="#F92D7A"/>
<stop offset="0.590073" stop-color="#FF4A52"/>
<stop offset="1" stop-color="#FFB243"/>
</linearGradient>
</defs>
</svg>
