<svg width="16" height="16" viewBox="0 0 16 16" fill="none" xmlns="http://www.w3.org/2000/svg">
<path d="M13.1494 1.09069L13.1489 1.09078L13.1483 1.09089C12.29 1.25887 11.431 1.42428 10.5716 1.58975C9.18379 1.85697 7.79544 2.1243 6.4093 2.40267C6.18772 2.41599 6.01195 2.5438 5.89655 2.71042C5.78109 2.87709 5.7212 3.08866 5.73307 3.28368C5.73454 4.20432 5.73429 5.12517 5.73408 6.04609C5.7337 7.46041 5.73335 8.87486 5.73916 10.2892C5.15742 9.96487 4.44517 9.88703 3.80603 10.0772C2.84576 10.351 2.1014 11.2373 2.01557 12.2308C1.9141 13.0974 2.31541 13.9928 3.02193 14.5069C3.6591 14.9818 4.53012 15.1308 5.28857 14.8788C6.05391 14.6429 6.66977 14.0158 6.91698 13.2624C7.02922 13.0027 7.05264 12.7321 7.04987 12.4664C7.04861 12.3447 7.04179 12.2223 7.0351 12.1024C7.03447 12.091 7.03384 12.0797 7.03321 12.0683C7.02593 11.9367 7.01942 11.808 7.02058 11.6815V11.6808C7.02096 11.0525 7.02089 10.4243 7.02086 9.79613C7.02079 8.76983 7.02072 7.74384 7.0224 6.71809C7.37992 6.64169 7.74147 6.58558 8.10568 6.52906L8.10911 6.52853C8.49411 6.46875 8.88205 6.40848 9.26625 6.3234C9.51699 6.26698 9.77144 6.22736 10.0284 6.18728C10.0585 6.18259 10.0886 6.1779 10.1188 6.17318C10.4055 6.12824 10.6951 6.08029 10.9801 6.0056L10.9817 6.00518L10.9832 6.00469C11.1364 5.95747 11.277 5.8524 11.3676 5.718C11.4585 5.58287 11.5019 5.41291 11.4486 5.24046L11.4466 5.23381L11.4434 5.22762C11.3743 5.09535 11.2666 4.96466 11.1331 4.87779C10.9996 4.79082 10.8363 4.74584 10.6626 4.79491C10.5572 4.81584 10.4522 4.83733 10.3474 4.85875C9.91634 4.94692 9.48913 5.03431 9.05474 5.08016L9.05257 5.08037L9.05044 5.08072C8.76683 5.12678 8.48473 5.18191 8.2041 5.23675C8.13253 5.25072 8.06106 5.26468 7.98966 5.27847C7.66643 5.34095 7.34447 5.39999 7.0203 5.4422C7.02233 5.1404 7.02201 4.8388 7.0217 4.53756L7.02166 4.50193C7.02131 4.18052 7.0211 3.85954 7.0238 3.53845C7.18294 3.50842 7.34205 3.47839 7.5012 3.44836C9.35494 3.09861 11.2108 2.74845 13.0593 2.36381C13.0663 3.56781 13.0653 4.76989 13.0643 5.97214C13.0633 7.01034 13.0625 8.04869 13.0668 9.08854C12.3653 8.76493 11.493 8.82667 10.8654 9.29308C10.141 9.79981 9.79909 10.7699 10.0439 11.6154C10.2472 12.387 10.9152 13.0121 11.7026 13.1642C12.4038 13.3118 13.1661 13.0791 13.6672 12.5712C14.1755 12.0692 14.3752 11.3284 14.3235 10.6406C14.3199 8.99295 14.3208 7.34543 14.3217 5.69781C14.3226 4.3593 14.3233 3.02076 14.3216 1.68199C14.3454 1.39808 14.1319 1.18316 13.938 1.05909L13.9334 1.05616L13.9284 1.0539C13.7901 0.990893 13.6497 0.992276 13.519 1.01211C13.4538 1.02201 13.3892 1.03681 13.3278 1.0513C13.3209 1.05292 13.3141 1.05454 13.3073 1.05615C13.2525 1.06913 13.2005 1.08143 13.1494 1.09069ZM11.7862 10.1746L11.7872 10.1742L11.7881 10.1738C12.0511 10.0559 12.3561 10.0941 12.6033 10.2389C12.8505 10.3837 13.0308 10.6294 13.0524 10.9154L13.0527 10.9201L13.0536 10.9247C13.1099 11.209 13 11.495 12.798 11.6999C12.5958 11.9049 12.3089 12.0213 12.0214 11.975L12.019 11.9746L12.0165 11.9744C11.4895 11.9232 11.0909 11.3634 11.2155 10.8524L11.2158 10.8511L11.2161 10.8498C11.278 10.5507 11.5016 10.2929 11.7862 10.1746ZM4.11526 11.2602L4.11585 11.2599L4.11645 11.2598C4.74067 11.0439 5.51152 11.3945 5.71007 12.0225C5.754 12.3276 5.74819 12.6432 5.71816 12.9546C5.50991 13.5592 4.78803 13.9166 4.17042 13.7308L4.16905 13.7303L4.16772 13.73C3.54343 13.5665 3.11601 12.8847 3.24793 12.2553L3.24815 12.2542L3.24834 12.2532C3.33059 11.7988 3.67506 11.4043 4.11526 11.2602Z" fill="url(#paint0_linear_448_573)" stroke="url(#paint1_linear_448_573)" stroke-width="0.6"/>
<defs>
<linearGradient id="paint0_linear_448_573" x1="8.16571" y1="1" x2="8.16571" y2="15" gradientUnits="userSpaceOnUse">
<stop stop-color="#DC18FC"/>
<stop offset="1" stop-color="#8E1EFF"/>
</linearGradient>
<linearGradient id="paint1_linear_448_573" x1="8.16571" y1="1" x2="8.16571" y2="15" gradientUnits="userSpaceOnUse">
<stop stop-color="#DC18FC"/>
<stop offset="1" stop-color="#8E1EFF"/>
</linearGradient>
</defs>
</svg>
