<svg width="16" height="16" viewBox="0 0 16 16" fill="none" xmlns="http://www.w3.org/2000/svg">
<path d="M3.65653 2.40476C4.80915 1.52489 6.23976 1.02184 7.68392 1.00172C9.13168 0.968789 10.5876 1.41056 11.7745 2.25385C13.2674 3.29561 14.336 4.9575 14.633 6.77305C14.6718 7.15444 14.2187 7.45628 13.8893 7.26602C13.6726 7.17457 13.6122 6.93036 13.5715 6.72092C13.3694 5.73219 12.8865 4.81847 12.2402 4.05568C12.0236 4.27244 11.7934 4.4755 11.5516 4.66574C11.4243 4.72884 11.4938 4.87702 11.5272 4.9758C12.3251 7.00171 12.3052 9.33768 11.4902 11.3563C11.7402 11.5511 11.9776 11.7624 12.2032 11.9846C12.9244 11.1752 13.4145 10.1627 13.6158 9.09255C13.6555 8.82731 13.9163 8.61969 14.1817 8.66175C14.4877 8.68462 14.7079 9.02304 14.6204 9.31938C14.3451 10.8212 13.5544 12.2151 12.4271 13.2276C11.2753 14.2675 9.77251 14.9069 8.22907 14.9855C6.56108 15.0971 4.86058 14.5593 3.5473 13.5121C2.24396 12.4812 1.31609 10.9648 1.01914 9.31388C0.922557 8.98461 1.20597 8.62609 1.54535 8.65992C1.80891 8.66725 2.00477 8.90231 2.03456 9.15657C2.23313 10.191 2.71422 11.166 3.40469 11.9544C3.67277 11.6929 3.95529 11.445 4.26307 11.2328C4.00583 10.405 3.76755 9.56084 3.73144 8.68737C3.64569 7.3959 3.85058 6.08891 4.32805 4.888C3.98325 4.65201 3.66737 4.37762 3.3668 4.0886C2.74401 4.83402 2.27465 5.72029 2.07337 6.67974C2.02553 6.9011 1.97769 7.17182 1.74121 7.26602C1.39462 7.46176 0.928874 7.11604 1.01462 6.72092C1.30977 5.01145 2.28638 3.44195 3.65653 2.40476ZM5.68285 4.45537C7.07014 5.09013 8.73002 5.05078 10.0902 4.36117C9.57123 3.45932 8.86993 2.66909 8.04316 2.04623C7.97906 2.04531 7.85179 2.04348 7.78771 2.04165C6.93116 2.68738 6.20365 3.50965 5.68285 4.45537ZM4.11776 3.36329C4.32715 3.56818 4.5483 3.75934 4.78297 3.93312C5.09888 3.37152 5.46893 2.84104 5.89677 2.36086C5.25501 2.59501 4.64757 2.9261 4.11776 3.36329ZM10.018 2.46147C10.3719 2.87854 10.6905 3.32671 10.9667 3.80049C11.1445 3.65048 11.316 3.49317 11.4811 3.32946C11.0344 2.97367 10.537 2.69196 10.018 2.46147ZM5.23877 5.40475C4.59703 7.08676 4.57446 8.99926 5.18733 10.6922C6.88963 9.89651 8.9277 9.94864 10.6047 10.7901C11.2546 9.03584 11.2419 7.04194 10.547 5.30414C8.90512 6.12731 6.91038 6.16299 5.23877 5.40475ZM5.61245 11.6453C6.07277 12.5316 6.72174 13.3072 7.47631 13.9502C7.77057 13.9675 8.06661 13.9611 8.36087 13.9383C9.06941 13.3154 9.73642 12.5974 10.1363 11.7304C8.74086 11.0133 7.03132 10.9767 5.61245 11.6453ZM4.15565 12.6743C4.60154 13.0319 5.09888 13.3172 5.62238 13.5413C5.28029 13.1169 4.98155 12.6587 4.71977 12.1804C4.52302 12.3349 4.33438 12.4996 4.15565 12.6743ZM11.028 12.323C10.8114 12.7008 10.5749 13.0685 10.3041 13.4096C10.7067 13.2102 11.093 12.9788 11.4468 12.6989C11.3097 12.5709 11.1697 12.4456 11.028 12.323Z" fill="url(#paint0_linear_448_532)"/>
<defs>
<linearGradient id="paint0_linear_448_532" x1="7.81988" y1="15" x2="7.81988" y2="1" gradientUnits="userSpaceOnUse">
<stop stop-color="#FD2E00"/>
<stop offset="1" stop-color="#FFBB55"/>
</linearGradient>
</defs>
</svg>
