<svg width="16" height="16" viewBox="0 0 16 16" fill="none" xmlns="http://www.w3.org/2000/svg">
<path d="M2.56667 1C2.34576 1 2.16667 1.17909 2.16667 1.4V2.16667V5.26667C2.16667 5.48758 1.98758 5.66667 1.76667 5.66667H1.4C1.17909 5.66667 1 5.84576 1 6.06667V6.83333V12.2667C1 12.4876 1.17909 12.6667 1.4 12.6667H2.16667H4.1C4.32091 12.6667 4.5 12.8458 4.5 13.0667V13.8333V14.6C4.5 14.8209 4.67909 15 4.9 15H11.1C11.3209 15 11.5 14.8209 11.5 14.6V13.8333V13.0667C11.5 12.8458 11.6791 12.6667 11.9 12.6667H14.6C14.8209 12.6667 15 12.4876 15 12.2667V11.5V6.83333V6.06667C15 5.84576 14.8209 5.66667 14.6 5.66667H14.2333C14.0124 5.66667 13.8333 5.48758 13.8333 5.26667V2.16667V1.4C13.8333 1.17909 13.6542 1 13.4333 1H2.56667ZM3.33333 2.56667C3.33333 2.34576 3.51242 2.16667 3.73333 2.16667H12.2667C12.4876 2.16667 12.6667 2.34576 12.6667 2.56667V5.26667C12.6667 5.48758 12.4876 5.66667 12.2667 5.66667H11.9C11.6791 5.66667 11.5 5.48758 11.5 5.26667V4.9C11.5 4.67909 11.3209 4.5 11.1 4.5H4.9C4.67909 4.5 4.5 4.67909 4.5 4.9V5.26667C4.5 5.48758 4.32091 5.66667 4.1 5.66667H3.73333C3.51242 5.66667 3.33333 5.48758 3.33333 5.26667V2.56667ZM4.9 2.16667C4.67909 2.16667 4.5 2.34576 4.5 2.56667V2.93333C4.5 3.15424 4.67909 3.33333 4.9 3.33333H11.1C11.3209 3.33333 11.5 3.15424 11.5 2.93333V2.56667C11.5 2.34576 11.3209 2.16667 11.1 2.16667H4.9ZM2.16667 7.23333C2.16667 7.01242 2.34576 6.83333 2.56667 6.83333H13.4333C13.6542 6.83333 13.8333 7.01242 13.8333 7.23333V11.1C13.8333 11.3209 13.6542 11.5 13.4333 11.5H13.0667C12.8458 11.5 12.6667 11.3209 12.6667 11.1V10.7333C12.6667 10.5124 12.4876 10.3333 12.2667 10.3333H3.73333C3.51242 10.3333 3.33333 10.5124 3.33333 10.7333V11.1C3.33333 11.3209 3.15424 11.5 2.93333 11.5H2.56667C2.34576 11.5 2.16667 11.3209 2.16667 11.1V7.23333ZM10.7333 8C10.5124 8 10.3333 8.17909 10.3333 8.4V8.76667C10.3333 8.98758 10.5124 9.16667 10.7333 9.16667H12.2667C12.4876 9.16667 12.6667 8.98758 12.6667 8.76667V8.4C12.6667 8.17909 12.4876 8 12.2667 8H10.7333ZM5.66667 13.0667C5.66667 12.8458 5.84576 12.6667 6.06667 12.6667H9.9333C10.1542 12.6667 10.3333 12.8458 10.3333 13.0667V13.4333C10.3333 13.6542 10.1542 13.8333 9.9333 13.8333H6.06667C5.84576 13.8333 5.66667 13.6542 5.66667 13.4333V13.0667Z" fill="url(#paint0_linear_448_545)"/>
<defs>
<linearGradient id="paint0_linear_448_545" x1="8" y1="15" x2="8" y2="1" gradientUnits="userSpaceOnUse">
<stop stop-color="#5570FF"/>
<stop offset="1" stop-color="#4DD3FF"/>
</linearGradient>
</defs>
</svg>
