<svg width="16" height="16" viewBox="0 0 16 16" fill="none" xmlns="http://www.w3.org/2000/svg">
<path fill-rule="evenodd" clip-rule="evenodd" d="M4.40658 6.1328C4.4999 6.1328 4.59325 6.1328 4.68657 6.08612V5.80612C4.68657 5.5728 4.68658 5.33945 4.73325 5.1528C4.6399 5.19945 4.4999 5.19945 4.40658 5.19945C3.7999 5.19945 3.28655 4.68612 3.28655 4.07947C3.28655 3.4728 3.7999 2.95947 4.40658 2.95947C4.87325 2.95947 5.29325 3.23947 5.4799 3.65947C5.66657 3.42615 5.94658 3.1928 6.1799 3.00615C5.57325 2.02614 4.31325 1.69947 3.33323 2.30614C2.35322 2.91281 2.02656 4.1728 2.63322 5.1528C3.00655 5.75945 3.6599 6.1328 4.40658 6.1328ZM10.52 3.65955C10.7533 3.09955 11.4067 2.81954 12.0133 3.05287C12.5733 3.2862 12.8533 3.93955 12.62 4.5462C12.4333 4.96617 12.0133 5.24617 11.5933 5.24617C11.5 5.24617 11.36 5.24617 11.2667 5.19952C11.3133 5.43285 11.3133 5.66617 11.3133 5.85285V6.13285C11.36 6.13285 11.4067 6.14453 11.4533 6.15618C11.5 6.16785 11.5467 6.17952 11.5933 6.17952C12.76 6.17952 13.6933 5.24617 13.6933 4.1262C13.6933 2.95954 12.76 2.0262 11.64 2.0262C10.8933 2.0262 10.24 2.39954 9.86668 3.05287C10.1 3.19287 10.3333 3.37955 10.52 3.65955ZM10.1933 5.80612C10.1933 7.06612 9.21332 8.0928 7.95332 8.0928C6.69332 8.0928 5.66668 7.06612 5.66668 5.80612C5.66668 4.59277 6.64667 3.56612 7.90667 3.56612C9.16667 3.56612 10.1933 4.54612 10.1933 5.80612ZM9.26 5.8528C9.26 5.10612 8.65332 4.49945 7.90667 4.49945C7.20667 4.49945 6.6 5.10612 6.6 5.8528C6.6 6.5528 7.16 7.15945 7.90667 7.15945C8.65332 7.15945 9.26 6.59945 9.26 5.8528ZM11.5933 6.64603C12.8067 6.59935 13.9733 7.01935 14.86 7.8127L15 7.9527V11.686H14.0667V8.32603C13.3667 7.8127 12.48 7.5327 11.5933 7.57935C11.3133 7.57935 11.08 7.57935 10.8 7.62603C10.9867 7.34603 11.1267 7.01935 11.22 6.64603H11.5933ZM4.78 6.69275C4.87333 7.06607 5.01332 7.39275 5.2 7.67275C4.96667 7.62607 4.68667 7.5794 4.40667 7.5794C3.52 7.53275 2.68 7.81275 1.93333 8.32608V11.6861H1V7.95275L1.14 7.81275C2.02667 7.06607 3.19332 6.64607 4.40667 6.69275H4.78ZM11.6867 10.4727L11.78 10.6128H11.8267V14.1594C11.8267 14.5794 11.4533 14.9528 11.0333 14.9528H5.06C4.59332 14.9528 4.26667 14.5794 4.26667 14.1594V10.6128L4.36 10.4727C5.29333 9.44607 6.64667 8.8394 8.04667 8.88608C9.44667 8.8394 10.7533 9.44607 11.6867 10.4727ZM5.2 14.0194H10.8467V10.9394C10.1 10.1927 9.07332 9.77275 8.04667 9.8194C6.97332 9.8194 5.94667 10.1927 5.2 10.9394V14.0194Z" fill="url(#paint0_linear_448_521)"/>
<path d="M4.74471 6.13737L4.79962 6.2472L4.86751 6.21326V6.13737H4.74471ZM4.79056 5.22042L4.90968 5.25018L4.97445 4.99116L4.73562 5.11055L4.79056 5.22042ZM5.52411 3.75329L5.41189 3.80317L5.4939 3.98765L5.62002 3.82999L5.52411 3.75329ZM6.21183 3.11143L6.28856 3.20731L6.37354 3.13933L6.31627 3.04678L6.21183 3.11143ZM2.72738 5.22042L2.83196 5.15604L2.83179 5.15577L2.72738 5.22042ZM11.9429 3.15733L11.9902 3.04392L11.987 3.0427L11.9429 3.15733ZM10.4758 3.75336L10.3736 3.82147L10.5009 4.01241L10.5891 3.80059L10.4758 3.75336ZM12.5389 4.62446L12.6512 4.67434L12.6524 4.67147L12.6536 4.66854L12.5389 4.62446ZM11.2094 5.26632L11.2643 5.15646L11.0397 5.04419L11.0889 5.29039L11.2094 5.26632ZM11.2552 6.18327H11.1324V6.30608H11.2552V6.18327ZM9.83393 3.15733L9.72728 3.0964L9.66765 3.20078L9.77073 3.26263L9.83393 3.15733ZM14.7396 7.83365L14.8265 7.7468L14.8241 7.74439L14.8215 7.74211L14.7396 7.83365ZM11.5303 6.68744V6.81025H11.5326L11.535 6.81015L11.5303 6.68744ZM14.8772 7.97119H15V7.92033L14.964 7.88434L14.8772 7.97119ZM14.8772 11.639V11.7618H15V11.639H14.8772ZM13.9602 11.639H13.8374V11.7618H13.9602V11.639ZM13.9602 8.33797H14.083V8.27573L14.0328 8.23894L13.9602 8.33797ZM11.5303 7.60439V7.7272H11.5335L11.5367 7.72703L11.5303 7.60439ZM10.7509 7.65025L10.6487 7.58212L10.4915 7.81798L10.7711 7.77139L10.7509 7.65025ZM11.1635 6.68744V6.56464H11.0676L11.0444 6.65765L11.1635 6.68744ZM5.24912 7.69616L5.22503 7.81658L5.51576 7.87472L5.3513 7.62802L5.24912 7.69616ZM4.83649 6.73335L4.95564 6.70356L4.93238 6.61054H4.83649V6.73335ZM4.46972 7.60444L4.46326 7.72708L4.46647 7.72725H4.46972V7.60444ZM2.03977 8.33802L1.97019 8.23683L1.91696 8.27342V8.33802H2.03977ZM2.03977 11.6391V11.7619H2.16257V11.6391H2.03977ZM1.12281 11.6391H1V11.7619H1.12281V11.6391ZM1.12281 7.97124L1.03597 7.88439L1 7.92038V7.97124H1.12281ZM1.26035 7.8337L1.18125 7.73975L1.17723 7.74314L1.17351 7.74685L1.26035 7.8337ZM4.46972 6.73335L4.46498 6.85606L4.46736 6.85616H4.46972V6.73335ZM11.7137 10.5846L11.6115 10.6527L11.648 10.7074H11.7137V10.5846ZM11.622 10.447L11.7242 10.3789L11.7191 10.3712L11.7128 10.3644L11.622 10.447ZM11.7595 10.5846H11.8823V10.4618H11.7595V10.5846ZM4.33217 10.5846L4.22997 10.5164L4.20936 10.5474V10.5846H4.33217ZM4.42386 10.447L4.33298 10.3644L4.32679 10.3712L4.32168 10.3789L4.42386 10.447ZM8.04586 8.88819L8.04175 9.01093L8.04586 9.01107L8.04993 9.01093L8.04586 8.88819ZM10.7967 13.9315V14.0543H10.9195V13.9315H10.7967ZM5.24912 13.9315H5.12632V14.0543H5.24912V13.9315ZM10.7967 10.9055H10.9195V10.8546L10.8836 10.8187L10.7967 10.9055ZM8.04586 9.80514V9.92795H8.04863L8.05143 9.92783L8.04586 9.80514ZM5.24912 10.9055L5.16227 10.8187L5.12632 10.8546V10.9055H5.24912ZM4.68979 6.02753C4.6276 6.05862 4.5644 6.06041 4.46962 6.06041V6.30603C4.55821 6.30603 4.67841 6.30782 4.79962 6.2472L4.68979 6.02753ZM4.6219 5.86228V6.13737H4.86751V5.86228H4.6219ZM4.67141 5.19062C4.62114 5.39176 4.6219 5.63779 4.6219 5.86228H4.86751C4.86751 5.62828 4.86827 5.41583 4.90968 5.25018L4.67141 5.19062ZM4.46962 5.38905C4.51479 5.38905 4.57801 5.38915 4.64231 5.38272C4.70526 5.37643 4.77993 5.36302 4.84548 5.33025L4.73562 5.11055C4.70948 5.12364 4.66952 5.13315 4.61787 5.13833C4.56754 5.14337 4.51614 5.14344 4.46962 5.14344V5.38905ZM3.24644 4.16592C3.24644 4.82974 3.80575 5.38905 4.46962 5.38905V5.14344C3.9414 5.14344 3.49205 4.69409 3.49205 4.16592H3.24644ZM4.46962 2.94276C3.80575 2.94276 3.24644 3.50207 3.24644 4.16592H3.49205C3.49205 3.63773 3.9414 3.18838 4.46962 3.18838V2.94276ZM5.63633 3.7034C5.4336 3.24723 4.9775 2.94276 4.46962 2.94276V3.18838C4.87869 3.18838 5.24787 3.43409 5.41189 3.80317L5.63633 3.7034ZM6.13513 3.01552C5.90666 3.19827 5.62125 3.43527 5.42822 3.67658L5.62002 3.82999C5.79375 3.61282 6.05852 3.39133 6.28856 3.20731L6.13513 3.01552ZM3.47974 2.52812C4.38218 1.96947 5.54538 2.26817 6.10742 3.17605L6.31627 3.04678C5.68624 2.02906 4.37366 1.68588 3.35045 2.31928L3.47974 2.52812ZM2.83179 5.15577C2.27316 4.25336 2.57185 3.09015 3.47974 2.52812L3.35045 2.31928C2.33274 2.9493 1.98956 4.26188 2.62297 5.28504L2.83179 5.15577ZM4.46962 6.06041C3.77853 6.06041 3.17631 5.71562 2.83196 5.15604L2.6228 5.28477C3.012 5.91725 3.69355 6.30603 4.46962 6.30603V6.06041ZM11.987 3.0427C11.3316 2.79064 10.6184 3.09189 10.3624 3.70611L10.5891 3.80059C10.7917 3.31445 11.3622 3.06553 11.8988 3.27196L11.987 3.0427ZM12.6536 4.66854C12.9056 4.01317 12.6044 3.29984 11.9902 3.04392L11.8957 3.27068C12.3818 3.47324 12.6307 4.0437 12.4243 4.58037L12.6536 4.66854ZM11.5303 5.43496C11.9951 5.43496 12.4496 5.12784 12.6512 4.67434L12.4267 4.57457C12.2615 4.94631 11.8907 5.18934 11.5303 5.18934V5.43496ZM11.1544 5.37616C11.22 5.40892 11.2946 5.42233 11.3576 5.42862C11.4219 5.43506 11.4851 5.43496 11.5303 5.43496V5.18934C11.4838 5.18934 11.4324 5.18927 11.3821 5.18424C11.3304 5.17905 11.2904 5.16955 11.2643 5.15646L11.1544 5.37616ZM11.378 5.90818C11.378 5.72606 11.3783 5.48509 11.3298 5.24223L11.0889 5.29039C11.132 5.50599 11.1324 5.72353 11.1324 5.90818H11.378ZM11.378 6.18327V5.90818H11.1324V6.18327H11.378ZM11.4225 6.08706C11.3796 6.07631 11.3188 6.06046 11.2552 6.06046V6.30608C11.2833 6.30608 11.3142 6.31315 11.363 6.32533L11.4225 6.08706ZM11.5303 6.10632C11.5022 6.10632 11.4713 6.09925 11.4225 6.08706L11.363 6.32533C11.4059 6.33607 11.4667 6.35193 11.5303 6.35193V6.10632ZM13.4706 4.21183C13.4706 5.24254 12.6105 6.10632 11.5303 6.10632V6.35193C12.7425 6.35193 13.7162 5.38178 13.7162 4.21183H13.4706ZM11.5761 2.27148C12.6069 2.27148 13.4706 3.13166 13.4706 4.21183H13.7162C13.7162 2.99961 12.7461 2.02587 11.5761 2.02587V2.27148ZM9.94055 3.21827C10.2852 2.61507 10.8862 2.27148 11.5761 2.27148V2.02587C10.799 2.02587 10.1162 2.41584 9.72728 3.0964L9.94055 3.21827ZM10.578 3.68523C10.3817 3.39091 10.137 3.19599 9.8971 3.05202L9.77073 3.26263C9.98928 3.39376 10.203 3.56564 10.3736 3.82147L10.578 3.68523ZM7.95414 8.23164C9.26314 8.23164 10.2777 7.16467 10.2777 5.86228H10.032C10.032 7.03567 9.12093 7.98603 7.95414 7.98603V8.23164ZM5.5848 5.86228C5.5848 7.16799 6.64843 8.23164 7.95414 8.23164V7.98603C6.78409 7.98603 5.83042 7.03233 5.83042 5.86228H5.5848ZM7.90831 3.53877C6.60093 3.53877 5.5848 4.60407 5.5848 5.86228H5.83042C5.83042 4.73638 6.7399 3.78438 7.90831 3.78438V3.53877ZM10.2777 5.86228C10.2777 4.55325 9.21068 3.53877 7.90831 3.53877V3.78438C9.08171 3.78438 10.032 4.69549 10.032 5.86228H10.2777ZM7.90831 4.70133C8.57405 4.70133 9.11509 5.24237 9.11509 5.90813H9.3607C9.3607 5.10674 8.7097 4.45572 7.90831 4.45572V4.70133ZM6.74737 5.90813C6.74737 5.23957 7.29118 4.70133 7.90831 4.70133V4.45572C7.14998 4.45572 6.50175 5.10954 6.50175 5.90813H6.74737ZM7.90831 7.06905C7.2454 7.06905 6.74737 6.53089 6.74737 5.90813H6.50175C6.50175 6.66079 7.10407 7.31467 7.90831 7.31467V7.06905ZM9.11509 5.90813C9.11509 6.5683 8.57977 7.06905 7.90831 7.06905V7.31467C8.70398 7.31467 9.3607 6.7151 9.3607 5.90813H9.11509ZM14.8215 7.74211C13.9264 6.94124 12.7491 6.51767 11.5256 6.56473L11.535 6.81015C12.6956 6.76552 13.8107 7.16723 14.6578 7.92517L14.8215 7.74211ZM14.964 7.88434L14.8265 7.7468L14.6528 7.92047L14.7903 8.05802L14.964 7.88434ZM15 11.639V7.97119H14.7544V11.639H15ZM13.9602 11.7618H14.8772V11.5162H13.9602V11.7618ZM13.8374 8.33797V11.639H14.083V8.33797H13.8374ZM11.5367 7.72703C12.3785 7.68274 13.2218 7.94877 13.8876 8.437L14.0328 8.23894C13.3232 7.71853 12.4243 7.43438 11.5238 7.48176L11.5367 7.72703ZM10.7711 7.77139C11.0348 7.72742 11.2545 7.7272 11.5303 7.7272V7.48159C11.2559 7.48159 11.0171 7.48137 10.7307 7.52911L10.7711 7.77139ZM11.0444 6.65765C10.9556 7.01271 10.8232 7.32029 10.6487 7.58212L10.8531 7.71836C11.0453 7.43003 11.188 7.09573 11.2827 6.71724L11.0444 6.65765ZM11.5303 6.56464H11.1635V6.81025H11.5303V6.56464ZM5.3513 7.62802C5.17676 7.3662 5.0444 7.05861 4.95564 6.70356L4.71734 6.76312C4.81198 7.14163 4.95471 7.47591 5.14695 7.76426L5.3513 7.62802ZM4.46972 7.72725C4.7324 7.72725 4.99793 7.77114 5.22503 7.81658L5.27322 7.57573C5.04182 7.52946 4.75718 7.48164 4.46972 7.48164V7.72725ZM2.10934 8.43921C2.8244 7.94761 3.6234 7.68289 4.46326 7.72708L4.47615 7.48181C3.57379 7.43433 2.72227 7.71978 1.97019 8.23683L2.10934 8.43921ZM2.16257 11.6391V8.33802H1.91696V11.6391H2.16257ZM1.12281 11.7619H2.03977V11.5163H1.12281V11.7619ZM1 7.97124V11.6391H1.24561V7.97124H1ZM1.17351 7.74685L1.03597 7.88439L1.20964 8.05807L1.34719 7.92052L1.17351 7.74685ZM4.47443 6.61061C3.2512 6.56358 2.07526 6.9869 1.18125 7.73975L1.33946 7.92762C2.18767 7.21335 3.30413 6.8114 4.46498 6.85606L4.47443 6.61061ZM4.83649 6.61054H4.46972V6.85616H4.83649V6.61054ZM11.8159 10.5164L11.7242 10.3789L11.5198 10.5151L11.6115 10.6527L11.8159 10.5164ZM11.7595 10.4618H11.7137V10.7074H11.7595V10.4618ZM11.8823 14.069V10.5846H11.6367V14.069H11.8823ZM10.9801 14.9712C11.4606 14.9712 11.8823 14.5495 11.8823 14.069H11.6367C11.6367 14.4138 11.3249 14.7256 10.9801 14.7256V14.9712ZM5.11158 14.9712H10.9801V14.7256H5.11158V14.9712ZM4.20936 14.069C4.20936 14.5447 4.58059 14.9712 5.11158 14.9712V14.7256C4.7256 14.7256 4.45498 14.4186 4.45498 14.069H4.20936ZM4.20936 10.5846V14.069H4.45498V10.5846H4.20936ZM4.32168 10.3789L4.22997 10.5164L4.43435 10.6527L4.52604 10.5151L4.32168 10.3789ZM8.04993 8.76546C6.6366 8.71835 5.27287 9.33054 4.33298 10.3644L4.51474 10.5296C5.40875 9.54619 6.70421 8.96635 8.04175 9.01093L8.04993 8.76546ZM11.7128 10.3644C10.7738 9.33148 9.45629 8.7183 8.04175 8.76546L8.04993 9.01093C9.38627 8.96637 10.6362 9.54526 11.5311 10.5296L11.7128 10.3644ZM10.7967 13.8087H5.24912V14.0543H10.7967V13.8087ZM10.6739 10.9055V13.9315H10.9195V10.9055H10.6739ZM8.05143 9.92783C9.02338 9.88364 9.9991 10.2816 10.7099 10.9923L10.8836 10.8187C10.1272 10.0623 9.08561 9.63496 8.04028 9.68246L8.05143 9.92783ZM5.33597 10.9923C6.04349 10.2848 7.01941 9.92795 8.04586 9.92795V9.68234C6.96329 9.68234 5.92188 10.0591 5.16227 10.8187L5.33597 10.9923ZM5.37193 13.9315V10.9055H5.12632V13.9315H5.37193Z" fill="url(#paint1_linear_448_521)"/>
<defs>
<linearGradient id="paint0_linear_448_521" x1="4.80665" y1="11.9182" x2="10.9012" y2="11.0792" gradientUnits="userSpaceOnUse">
<stop stop-color="#8D01A2"/>
<stop offset="1" stop-color="#FF00D2"/>
</linearGradient>
<linearGradient id="paint1_linear_448_521" x1="4.86267" y1="11.8671" x2="10.8503" y2="11.0429" gradientUnits="userSpaceOnUse">
<stop stop-color="#8D01A2"/>
<stop offset="1" stop-color="#FF00D2"/>
</linearGradient>
</defs>
</svg>
