<svg width="16" height="16" viewBox="0 0 16 16" fill="none" xmlns="http://www.w3.org/2000/svg">
<path d="M8.82031 7.58984H7.17969C6.95317 7.58984 6.76953 7.77348 6.76953 8V11.2812C6.76953 11.5078 6.95317 11.6914 7.17969 11.6914H8.82031C9.04683 11.6914 9.23047 11.5078 9.23047 11.2812V8C9.23047 7.77348 9.04683 7.58984 8.82031 7.58984ZM8.41016 10.8711H7.58984V8.41016H8.41016V10.8711ZM8 1C4.14586 1 1 4.14566 1 8C1 11.8541 4.14566 15 8 15C11.8541 15 15 11.8544 15 8C15 4.14586 11.8544 1 8 1ZM8 14.1797C4.59251 14.1797 1.82031 11.4075 1.82031 8C1.82031 4.59251 4.59251 1.82031 8 1.82031C11.4075 1.82031 14.1797 4.59251 14.1797 8C14.1797 11.4075 11.4075 14.1797 8 14.1797ZM8 2.66797C5.05991 2.66797 2.66797 5.05991 2.66797 8C2.66797 10.9401 5.05991 13.3321 8 13.3321C10.9401 13.3321 13.3321 10.9401 13.3321 8C13.3321 5.05991 10.9401 2.66797 8 2.66797ZM8 12.5117C5.51224 12.5117 3.48828 10.4878 3.48828 8C3.48828 5.51224 5.51224 3.48828 8 3.48828C10.4878 3.48828 12.5117 5.51224 12.5117 8C12.5117 10.4878 10.4878 12.5117 8 12.5117ZM8 4.30859C7.32153 4.30859 6.76953 4.86059 6.76953 5.53906C6.76953 6.21754 7.32153 6.76953 8 6.76953C8.67847 6.76953 9.23047 6.21754 9.23047 5.53906C9.23047 4.86059 8.67847 4.30859 8 4.30859ZM8 5.94922C7.77385 5.94922 7.58984 5.76521 7.58984 5.53906C7.58984 5.31291 7.77385 5.12891 8 5.12891C8.22615 5.12891 8.41016 5.31291 8.41016 5.53906C8.41016 5.76521 8.22615 5.94922 8 5.94922Z" fill="url(#paint0_linear_448_524)"/>
<defs>
<linearGradient id="paint0_linear_448_524" x1="8" y1="15" x2="8" y2="1" gradientUnits="userSpaceOnUse">
<stop stop-color="#FD3A84"/>
<stop offset="1" stop-color="#FFA68D"/>
</linearGradient>
</defs>
</svg>
