<svg width="16" height="16" viewBox="0 0 16 16" fill="none" xmlns="http://www.w3.org/2000/svg">
<path fill-rule="evenodd" clip-rule="evenodd" d="M9.75006 5.50002C9.75006 4.82411 10.2989 4.27517 10.9752 4.27517C11.6511 4.27517 12.2 4.82411 12.2 5.50002C12.2 6.17625 11.6511 6.72518 10.9752 6.72518C10.2989 6.72518 9.75006 6.17625 9.75006 5.50002ZM2.40001 9.84036L5.56696 7.19859C6.16017 6.70337 7.08548 6.7457 7.63149 7.29235L9.02075 8.68357C9.29391 8.95674 9.78782 9.02315 10.1231 8.83139L13.2963 7.01789C13.464 6.92217 13.6 6.68742 13.6 6.49435V4.45033C13.6 3.8708 13.1295 3.40001 12.55 3.40001H3.45002C2.87047 3.40001 2.40001 3.8708 2.40001 4.45033V9.84036ZM13.6 10.0504C13.6 9.6639 13.9136 9.35037 14.3001 9.35037C14.6865 9.35037 15 9.6639 15 10.0504V13.2004C15 14.166 14.2161 14.9503 13.2501 14.9503H2.75001C1.78401 14.9503 1 14.166 1 13.2004V3.75C1 2.78433 1.78401 2 2.75001 2H13.2501C14.2161 2 15 2.78433 15 3.75V6.95603C15 7.34249 14.7279 7.81166 14.3922 8.00343L10.5001 10.2272C9.82917 10.6103 8.8407 10.4785 8.29404 9.9325L7.05325 8.69334C6.78008 8.4205 6.3171 8.39933 6.02017 8.64678L2.84801 11.2892L2.40001 11.66V12.5003C2.40001 13.0796 2.87047 13.5504 3.45002 13.5504H12.55C13.1295 13.5504 13.6 13.0796 13.6 12.5003V10.0504Z" fill="url(#paint0_linear_448_543)"/>
<defs>
<linearGradient id="paint0_linear_448_543" x1="8.00002" y1="14.9503" x2="8.00002" y2="2" gradientUnits="userSpaceOnUse">
<stop stop-color="#FD5900"/>
<stop offset="1" stop-color="#FFDE00"/>
</linearGradient>
</defs>
</svg>
