<svg width="16" height="16" viewBox="0 0 16 16" fill="none" xmlns="http://www.w3.org/2000/svg">
<path d="M6.38391 8.58335V8.66665C6.38391 9.1087 6.55419 9.5326 6.85727 9.84515C7.16035 10.1578 7.57145 10.3333 8.00006 10.3333C8.42871 10.3333 8.83977 10.1578 9.14289 9.84515C9.44597 9.5326 9.61625 9.1087 9.61625 8.66665V8.58335C9.61625 8.26135 9.36282 8 9.05058 8H6.94958C6.63734 8 6.38391 8.26135 6.38391 8.58335Z" fill="url(#paint0_linear_448_608)"/>
<path fill-rule="evenodd" clip-rule="evenodd" d="M13.6432 1.51369C13.086 0.938747 12.389 0.698982 11.5935 0.588652C10.8343 0.483346 9.87393 0.48337 8.70486 0.483399H7.99984L6.38268 0.485401L6.37778 0.485422C5.47882 0.492058 4.70988 0.518152 4.07257 0.643982C3.41218 0.774367 2.83231 1.02266 2.35649 1.5137C1.79897 2.08829 1.56647 2.80712 1.45948 3.62743C1.35737 4.4104 1.35739 5.40072 1.35742 6.60637V9.39377C1.35739 10.5994 1.35737 11.5897 1.45948 12.3727C1.56647 13.193 1.79897 13.9118 2.35649 14.4864C2.91367 15.0614 3.61073 15.3012 4.40618 15.4115C5.16542 15.5168 6.12576 15.5168 7.29482 15.5167H8.70486C9.87393 15.5168 10.8343 15.5168 11.5935 15.4115C12.3888 15.3012 13.0858 15.0615 13.6429 14.4867L13.0604 13.8854L13.6434 14.4862C14.2008 13.9116 14.4332 13.1929 14.5402 12.3727C14.6423 11.5897 14.6423 10.5994 14.6423 9.39377V6.60637C14.6423 5.40077 14.6423 4.4104 14.5402 3.62743C14.4332 2.80712 14.2007 2.08829 13.6432 1.51369ZM8.64629 2.1834C9.88852 2.1834 10.7373 2.18521 11.3738 2.27348C11.9865 2.35847 12.2775 2.50931 12.4773 2.71552L12.4778 2.71603C12.6778 2.92206 12.824 3.22214 12.9064 3.85404C12.992 4.51037 12.9938 5.38567 12.9938 6.66672V9.33342C12.9938 10.6144 12.992 11.4898 12.9064 12.1461C12.824 12.778 12.6778 13.0781 12.4778 13.2841L12.4773 13.2846C12.2775 13.4908 11.9865 13.6417 11.3738 13.7267C10.7373 13.8149 9.88852 13.8167 8.64629 13.8167H7.35339C6.11116 13.8167 5.26239 13.8149 4.62592 13.7267C4.01317 13.6417 3.72218 13.4908 3.5224 13.2846L3.5219 13.2841C3.32194 13.0781 3.17567 12.778 3.09326 12.1461C3.00766 11.4898 3.00591 10.6144 3.00591 9.33342V6.66672C3.00591 5.38567 3.00766 4.51037 3.09326 3.85404C3.17567 3.22214 3.32194 2.92206 3.5219 2.71603L3.52244 2.71548C3.69561 2.53671 3.93472 2.40207 4.38255 2.31365C4.78136 2.23491 5.29322 2.20236 5.99141 2.19016C6.20935 2.18635 6.32459 2.4099 6.47824 2.5694C6.57327 2.66673 6.72648 2.66673 7.03029 2.66673H7.99999V4.00007H7.03029C6.72581 4.00007 6.57327 4.00007 6.47824 4.0974C6.38384 4.1954 6.38384 4.3534 6.38384 4.66673C6.38384 4.98007 6.38384 5.13807 6.47824 5.23607C6.57327 5.33342 6.72648 5.33342 7.03029 5.33342H7.99999V6.00007C7.99999 6.31407 7.99999 6.47142 8.09439 6.56942C8.18942 6.66672 8.342 6.66672 8.64648 6.66672H8.96968C9.27417 6.66672 9.42675 6.66672 9.52178 6.56942C9.61618 6.47142 9.61618 6.31407 9.61618 6.00007C9.61618 5.68607 9.61618 5.52872 9.52178 5.43072C9.42675 5.33342 9.27354 5.33342 8.96968 5.33342H7.99999V4.00007H8.96968C9.27417 4.00007 9.42675 4.00007 9.52178 3.90273C9.61618 3.80473 9.61618 3.6474 9.61618 3.3334C9.61618 3.0194 9.61618 2.86207 9.52178 2.76407C9.42675 2.66673 9.27354 2.66673 8.96968 2.66673H7.99999C7.99999 2.3998 8.20983 2.1834 8.46869 2.1834H8.64629Z" fill="url(#paint1_linear_448_608)"/>
<defs>
<linearGradient id="paint0_linear_448_608" x1="14.6423" y1="15.5166" x2="2.21116" y2="4.40824" gradientUnits="userSpaceOnUse">
<stop stop-color="#731FFF"/>
<stop offset="0.905415" stop-color="#EB1AFF"/>
</linearGradient>
<linearGradient id="paint1_linear_448_608" x1="14.6423" y1="15.5167" x2="2.21109" y2="4.40831" gradientUnits="userSpaceOnUse">
<stop stop-color="#731FFF"/>
<stop offset="0.905415" stop-color="#EB1AFF"/>
</linearGradient>
</defs>
</svg>
