<svg width="24" height="24" viewBox="0 0 24 24" fill="none" xmlns="http://www.w3.org/2000/svg">
<g opacity="0.4">
<path fill-rule="evenodd" clip-rule="evenodd" d="M12.825 23C18.5142 22.5776 23 17.8212 23 12.0154V12C23 5.9247 18.0753 1 12 1C5.9247 1 1 5.9247 1 12V12.0154C1 17.8212 5.4858 22.5776 11.175 23V22.9692C8.40954 22.7612 5.8247 21.5163 3.93797 19.4837C2.05125 17.4512 1.0019 14.781 1 12.0077C1.0044 5.928 5.928 1 12 1C18.072 1 22.9956 5.928 23 12.0077C22.9956 17.8014 18.512 22.5479 12.825 22.9692V23Z" fill="url(#paint0_linear_8_768)"/>
<path d="M11.175 22.9692C11.7242 23.0101 12.2758 23.0101 12.825 22.9692C18.512 22.5479 22.9956 17.8014 23 12.0077C22.9956 5.928 18.072 1 12 1C5.928 1 1.0044 5.928 1 12.0077C1.0044 17.8014 5.488 22.5479 11.175 22.9692Z" fill="url(#paint1_linear_8_768)"/>
</g>
<path d="M8.15002 12.5665C8.1497 13.445 8.44941 14.2972 8.99952 14.9822C9.54963 15.6671 10.3172 16.1437 11.175 16.3329V22.9692C11.7243 23.01 12.2758 23.01 12.825 22.9692V16.334C13.6829 16.1448 14.4504 15.6682 15.0005 14.9833C15.5506 14.2983 15.8503 13.4461 15.85 12.5676V12.0165C15.8502 11.8719 15.8218 11.7288 15.7666 11.5952C15.7114 11.4616 15.6304 11.3402 15.5282 11.238C15.4261 11.1357 15.3048 11.0546 15.1712 10.9992C15.0377 10.9439 14.8946 10.9154 14.75 10.9154H14.475V8.71099C14.475 8.49218 14.3881 8.28234 14.2334 8.12762C14.0787 7.97291 13.8688 7.88599 13.65 7.88599C13.4312 7.88599 13.2214 7.97291 13.0667 8.12762C12.9119 8.28234 12.825 8.49218 12.825 8.71099V10.9143H11.175V8.71099C11.175 8.49218 11.0881 8.28234 10.9334 8.12762C10.7787 7.97291 10.5688 7.88599 10.35 7.88599C10.1312 7.88599 9.92138 7.97291 9.76666 8.12762C9.61194 8.28234 9.52502 8.49218 9.52502 8.71099V10.9143H9.25002C9.10548 10.9143 8.96235 10.9428 8.82882 10.9981C8.69529 11.0535 8.57398 11.1346 8.47182 11.2369C8.36966 11.3391 8.28866 11.4605 8.23344 11.5941C8.17823 11.7277 8.14988 11.8708 8.15002 12.0154V12.5654V12.5665Z" fill="url(#paint2_linear_8_768)"/>
<defs>
<linearGradient id="paint0_linear_8_768" x1="12" y1="23" x2="12" y2="1" gradientUnits="userSpaceOnUse">
<stop stop-color="#5558FF"/>
<stop offset="1" stop-color="#00C0FF"/>
</linearGradient>
<linearGradient id="paint1_linear_8_768" x1="12" y1="22.9998" x2="12" y2="1" gradientUnits="userSpaceOnUse">
<stop stop-color="#5558FF"/>
<stop offset="1" stop-color="#00C0FF"/>
</linearGradient>
<linearGradient id="paint2_linear_8_768" x1="12" y1="22.9998" x2="12" y2="7.88599" gradientUnits="userSpaceOnUse">
<stop stop-color="#5558FF"/>
<stop offset="1" stop-color="#00C0FF"/>
</linearGradient>
</defs>
</svg>
