<svg width="24" height="24" viewBox="0 0 24 24" fill="none" xmlns="http://www.w3.org/2000/svg">
<path opacity="0.5" fill-rule="evenodd" clip-rule="evenodd" d="M2.02326 11.9767C2.02326 6.46651 6.48977 2 12 2C17.5102 2 21.9767 6.46651 21.9767 11.9767V14.8347C22.0925 14.7938 22.2164 14.7812 22.338 14.7981C22.4596 14.8149 22.5754 14.8607 22.6756 14.9316C22.7758 15.0025 22.8576 15.0964 22.9141 15.2054C22.9705 15.3144 23 15.4354 23 15.5581V17.6047C23 17.8082 22.9191 18.0034 22.7752 18.1473C22.6313 18.2912 22.4361 18.3721 22.2326 18.3721C22.029 18.3721 21.8338 18.2912 21.6899 18.1473C21.546 18.0034 21.4651 17.8082 21.4651 17.6047V17.093H20.4419V11.9767C20.4419 9.73782 19.5525 7.5906 17.9693 6.00745C16.3861 4.42429 14.2389 3.53488 12 3.53488C9.76108 3.53488 7.61386 4.42429 6.0307 6.00745C4.44755 7.5906 3.55814 9.73782 3.55814 11.9767V17.093H2.53488V17.6047C2.53488 17.8082 2.45403 18.0034 2.31011 18.1473C2.16618 18.2912 1.97098 18.3721 1.76744 18.3721C1.5639 18.3721 1.3687 18.2912 1.22478 18.1473C1.08086 18.0034 1 17.8082 1 17.6047V15.5581C1.00002 15.4354 1.02949 15.3144 1.08593 15.2054C1.14238 15.0964 1.22416 15.0025 1.3244 14.9316C1.42465 14.8607 1.54043 14.8149 1.66203 14.7981C1.78364 14.7812 1.90751 14.7938 2.02326 14.8347V11.9767Z" fill="url(#paint0_linear_36_138)"/>
<path d="M7.90699 14.0743C7.90699 13.2045 7.90699 12.7707 7.69211 12.4678C7.58287 12.3149 7.4396 12.1895 7.2736 12.1015C6.94104 11.9234 6.49285 11.9644 5.59546 12.0472C4.08104 12.1844 3.32587 12.2539 2.78355 12.6315C2.511 12.8209 2.28069 13.0648 2.10718 13.3478C1.76746 13.9055 1.76746 14.6371 1.76746 16.1004V17.8808C1.76746 19.3308 1.76746 20.0563 2.11332 20.616C2.24327 20.8257 2.40597 21.0151 2.59527 21.1757C3.10178 21.6085 3.84057 21.7436 5.31918 22.0127C6.35881 22.2031 6.87964 22.2982 7.26336 22.0977C7.40457 22.024 7.52941 21.9237 7.63174 21.804C7.90699 21.4776 7.90699 20.967 7.90699 19.9468V14.0733V14.0743ZM16.093 14.0743C16.093 13.2045 16.093 12.7707 16.3079 12.4678C16.4154 12.3164 16.5586 12.1905 16.7264 12.1015C17.059 11.9234 17.5072 11.9644 18.4046 12.0472C19.919 12.1844 20.6742 12.2539 21.2165 12.6315C21.4907 12.8239 21.7209 13.0674 21.8929 13.3478C22.2326 13.9044 22.2326 14.6371 22.2326 16.1004V17.8808C22.2326 19.3308 22.2326 20.0563 21.8867 20.616C21.7568 20.8257 21.5941 21.0151 21.4048 21.1757C20.8982 21.6085 20.1595 21.7436 18.6809 22.0127C17.6412 22.2031 17.1204 22.2982 16.7367 22.0977C16.596 22.0246 16.4709 21.9249 16.3683 21.804C16.093 21.4776 16.093 20.967 16.093 19.9468V14.0733V14.0743Z" fill="url(#paint1_linear_36_138)"/>
<defs>
<linearGradient id="paint0_linear_36_138" x1="1.77105" y1="10.1861" x2="21.2898" y2="7.24906" gradientUnits="userSpaceOnUse">
<stop stop-color="#8D01A2"/>
<stop offset="1" stop-color="#FF00D2"/>
</linearGradient>
<linearGradient id="paint1_linear_36_138" x1="2.48471" y1="17.0929" x2="20.166" y2="13.1331" gradientUnits="userSpaceOnUse">
<stop stop-color="#8D01A2"/>
<stop offset="1" stop-color="#FF00D2"/>
</linearGradient>
</defs>
</svg>
