<svg width="64" height="64" viewBox="0 0 64 64" fill="none" xmlns="http://www.w3.org/2000/svg">
<path opacity="0.4" d="M32.0433 21.6C39.65 21.6 46.5432 24.6884 51.5225 29.6706C51.9499 30.0689 52.2927 30.5491 52.5304 31.0827C52.7682 31.6163 52.896 32.1923 52.9063 32.7764C52.9166 33.3604 52.8092 33.9406 52.5904 34.4823C52.3716 35.0239 52.046 35.5159 51.6329 35.929C51.2198 36.3421 50.7278 36.6677 50.1862 36.8865C49.6445 37.1053 49.0644 37.2127 48.4803 37.2024C47.8962 37.1921 47.3202 37.0643 46.7866 36.8265C46.253 36.5887 45.7728 36.246 45.3745 35.8186C43.6261 34.0651 41.5481 32.6748 39.2601 31.7277C36.9722 30.7806 34.5195 30.2953 32.0433 30.2999C29.5674 30.2961 27.1151 30.782 24.8277 31.7296C22.5403 32.6772 20.4628 34.0679 18.715 35.8215C17.8993 36.6375 16.7929 37.0961 15.6391 37.0964C14.4853 37.0967 13.3787 36.6386 12.5627 35.8229C11.7466 35.0073 11.288 33.9009 11.2877 32.7471C11.2875 31.5933 11.7456 30.4867 12.5612 29.6706C15.1171 27.1087 18.1539 25.0769 21.4972 23.6919C24.8405 22.307 28.4245 21.596 32.0433 21.6ZM32.0433 10C42.8515 10 52.6477 14.3877 59.7265 21.4666C60.1304 21.8706 60.4507 22.3503 60.6692 22.8781C60.8877 23.406 61.0001 23.9717 61 24.543C60.9999 25.1143 60.8872 25.68 60.6685 26.2077C60.4497 26.7355 60.1292 27.215 59.7251 27.6189C59.321 28.0227 58.8414 28.3431 58.3135 28.5616C57.7857 28.7801 57.2199 28.8925 56.6486 28.8923C56.0773 28.8922 55.5117 28.7795 54.9839 28.5608C54.4561 28.342 53.9766 28.0215 53.5728 27.6174C50.749 24.7854 47.3932 22.5396 43.6983 21.0092C40.0035 19.4789 36.0425 18.694 32.0433 18.7C23.6333 18.7 16.0267 22.1046 10.5109 27.6174C10.1115 28.0399 9.63139 28.3781 9.09903 28.6118C8.56668 28.8456 7.99286 28.9703 7.41149 28.9785C6.83012 28.9868 6.253 28.8783 5.71424 28.6597C5.17549 28.4411 4.68603 28.1166 4.2748 27.7056C3.86358 27.2946 3.53892 26.8053 3.32003 26.2666C3.10114 25.728 2.99246 25.1509 3.00041 24.5695C3.00835 23.9882 3.13277 23.4143 3.3663 22.8818C3.59984 22.3493 3.93774 21.8691 4.36005 21.4695C7.99162 17.8287 12.3067 14.9412 17.0574 12.9729C21.8082 11.0047 26.901 9.99435 32.0433 10Z" fill="url(#paint0_linear_216_361)"/>
<path opacity="0.4" d="M38.1476 34.4104C36.2123 33.6093 34.1379 33.1978 32.0433 33.1997C29.9485 33.1979 27.8739 33.6096 25.9386 34.4113C24.0032 35.213 22.2452 36.3889 20.7653 37.8716C19.9496 38.6876 19.4915 39.7943 19.4918 40.948C19.4921 42.1018 19.9507 43.2082 20.7667 44.0239C21.5828 44.8396 22.6894 45.2976 23.8432 45.2974C24.997 45.2971 26.1034 44.8385 26.919 44.0225L27.325 43.6426C28.5952 42.5522 30.2395 41.8997 32.0433 41.8997C32.9957 41.8976 33.9392 42.0841 34.8191 42.4484C35.6991 42.8128 36.4983 43.3477 37.1705 44.0225L37.5011 44.3211C38.366 45.0281 39.4697 45.3752 40.5835 45.2906C41.6973 45.206 42.7359 44.6961 43.484 43.8667C44.2322 43.0372 44.6327 41.9518 44.6024 40.8351C44.5721 39.7185 44.1134 38.6564 43.3214 37.8687C41.841 36.3868 40.0829 35.2116 38.1476 34.4104Z" fill="url(#paint1_linear_216_361)"/>
<path d="M35.1192 46.0739C34.3035 45.2581 33.197 44.7998 32.0433 44.7998C30.8896 44.7998 29.7832 45.2581 28.9674 46.0739C28.1517 46.8897 27.6934 47.9961 27.6934 49.1498C27.6934 50.3035 28.1517 51.4099 28.9674 52.2257C29.7832 53.0415 30.8896 53.4998 32.0433 53.4998C33.197 53.4998 34.3035 53.0415 35.1192 52.2257C35.935 51.4099 36.3933 50.3035 36.3933 49.1498C36.3933 47.9961 35.935 46.8897 35.1192 46.0739Z" fill="url(#paint2_linear_216_361)"/>
<path d="M50.4348 29C46.5809 29 43.1304 32.1484 43.1304 35.966V39.4348H41.7385C40.7755 39.4348 40 40.0258 40 40.9694V51.2962C40 52.2413 40.7755 53 41.7385 53H59.1311C60.0941 53 60.8696 52.2413 60.8696 51.2962V40.9694C60.8696 40.0256 60.094 39.4003 59.1311 39.4348H57.7391V35.966C57.7391 32.1499 54.2882 29 50.4348 29ZM50.4348 33.1739C52.169 33.1739 53.5652 34.5816 53.5652 36.3288V39.4348H47.3043V36.3288C47.3043 34.5816 48.7005 33.1739 50.4348 33.1739Z" fill="url(#paint3_linear_216_361)"/>
<defs>
<linearGradient id="paint0_linear_216_361" x1="13.5125" y1="33.9916" x2="34.1636" y2="-4.42579" gradientUnits="userSpaceOnUse">
<stop stop-color="#FE0844"/>
<stop offset="1" stop-color="#FEB302"/>
</linearGradient>
<linearGradient id="paint1_linear_216_361" x1="24.0434" y1="51.1031" x2="42.4658" y2="31.2187" gradientUnits="userSpaceOnUse">
<stop stop-color="#FE0844"/>
<stop offset="1" stop-color="#FEB302"/>
</linearGradient>
<linearGradient id="paint2_linear_216_361" x1="24.0434" y1="51.1031" x2="42.4658" y2="31.2187" gradientUnits="userSpaceOnUse">
<stop stop-color="#FE0844"/>
<stop offset="1" stop-color="#FEB302"/>
</linearGradient>
<linearGradient id="paint3_linear_216_361" x1="60.8077" y1="29.1521" x2="37.2556" y2="49.4618" gradientUnits="userSpaceOnUse">
<stop stop-color="#FE7970"/>
<stop offset="1" stop-color="#DC3282"/>
</linearGradient>
</defs>
</svg>
