<svg width="24" height="24" viewBox="0 0 24 24" fill="none" xmlns="http://www.w3.org/2000/svg">
<path opacity="0.6" d="M3.17199 5.17199C2 6.34299 2 8.22899 2 12C2 15.771 2 17.657 3.17199 18.828C4.34299 20 6.22899 20 9.99998 20H11.5C15.271 20 17.157 20 18.3279 18.828C19.4999 17.657 19.4999 15.771 19.4999 12C19.4999 8.22899 19.4999 6.34299 18.3279 5.17199C17.157 4 15.271 4 11.5 4H9.99998C6.22899 4 4.34299 4 3.17199 5.17199Z" fill="url(#paint0_linear_69_669)"/>
<path d="M21 14.0361C21 14.247 21.0837 14.4493 21.2329 14.5984C21.382 14.7475 21.5843 14.8313 21.7951 14.8313C22.006 14.8313 22.2083 14.7475 22.3574 14.5984C22.5066 14.4493 22.5903 14.247 22.5903 14.0361V9.79523C22.5903 9.58433 22.5066 9.38203 22.3574 9.23291C22.2083 9.08378 22.006 9 21.7951 9C21.5843 9 21.382 9.08378 21.2329 9.23291C21.0837 9.38203 21 9.58433 21 9.79523V14.0361Z" fill="url(#paint1_linear_69_669)"/>
<path d="M10.2952 8C10.9772 8 11.532 8.20337 11.9595 8.60872C12.3883 9.00577 12.6 9.51489 12.6 10.1374C12.6 10.4072 12.5294 10.6811 12.3869 10.9592C12.2445 11.2373 12.1186 11.4337 12.0051 11.5541C11.86 11.706 11.7096 11.8527 11.5541 11.994L11.5002 12.0494C11.0436 12.463 10.814 12.8725 10.814 13.2848V13.3372C10.814 13.5581 10.6349 13.7372 10.414 13.7372H10.1542C9.93331 13.7372 9.75423 13.5581 9.75423 13.3372V13.2073C9.75423 12.8698 9.82617 12.582 9.96866 12.3427C10.1112 12.0937 10.3629 11.8045 10.7226 11.4752C10.9246 11.2871 11.0671 11.1488 11.1488 11.0588C11.2533 10.9411 11.3408 10.8093 11.4088 10.6673C11.4961 10.5043 11.5422 10.3224 11.543 10.1374C11.543 9.79158 11.431 9.51489 11.2055 9.3046C10.9883 9.0957 10.6853 8.98917 10.2952 8.98917C9.78145 8.98917 9.39687 9.21756 9.14001 9.67502C9.02615 9.87782 8.78558 9.99312 8.57104 9.90332L8.35757 9.81397C8.1583 9.73056 8.05876 9.50217 8.16264 9.31277C8.32827 9.01079 8.54806 8.74054 8.81209 8.51603C9.20223 8.17017 9.69474 8 10.2952 8ZM10.2841 14.7706C10.5013 14.7706 10.6825 14.8454 10.8236 14.9962C10.9758 15.1456 11.0491 15.3254 11.0491 15.5357C11.0491 15.746 10.9744 15.9258 10.825 16.0752C10.6825 16.2274 10.5013 16.3008 10.2855 16.3008C10.1845 16.3026 10.0842 16.2841 9.99049 16.2463C9.89682 16.2086 9.81174 16.1523 9.74032 16.0809C9.6689 16.0094 9.61261 15.9243 9.57483 15.8307C9.53705 15.737 9.51854 15.6367 9.52042 15.5357C9.51815 15.4346 9.53639 15.3341 9.57404 15.2403C9.61168 15.1464 9.66795 15.0612 9.73945 14.9897C9.81095 14.9182 9.89619 14.8619 9.99004 14.8243C10.0839 14.7866 10.1844 14.7684 10.2855 14.7706H10.2841Z" fill="url(#paint2_linear_69_669)" stroke="url(#paint3_linear_69_669)" stroke-width="0.6"/>
<defs>
<linearGradient id="paint0_linear_69_669" x1="2" y1="9.35458" x2="16.799" y2="18.7653" gradientUnits="userSpaceOnUse">
<stop stop-color="#FDBD7E"/>
<stop offset="1" stop-color="#FCF09F"/>
</linearGradient>
<linearGradient id="paint1_linear_69_669" x1="21" y1="10.9515" x2="22.8424" y2="11.2436" gradientUnits="userSpaceOnUse">
<stop stop-color="#FDBD7E"/>
<stop offset="1" stop-color="#FCF09F"/>
</linearGradient>
<linearGradient id="paint2_linear_69_669" x1="8" y1="10.778" x2="12.9493" y2="12.3726" gradientUnits="userSpaceOnUse">
<stop stop-color="#FDAC7E"/>
<stop offset="1" stop-color="#FCF39F"/>
</linearGradient>
<linearGradient id="paint3_linear_69_669" x1="8" y1="10.778" x2="12.9493" y2="12.3726" gradientUnits="userSpaceOnUse">
<stop stop-color="#FDAC7E"/>
<stop offset="1" stop-color="#FCF39F"/>
</linearGradient>
</defs>
</svg>
