<svg width="24" height="24" viewBox="0 0 24 24" fill="none" xmlns="http://www.w3.org/2000/svg">
<path opacity="0.4" d="M2.17199 5.17199C1 6.34299 1 8.22899 1 12C1 15.771 1 17.657 2.17199 18.828C3.34299 20 5.22899 20 8.99998 20H10.5C14.271 20 16.157 20 17.3279 18.828C18.4999 17.657 18.4999 15.771 18.4999 12C18.4999 8.22899 18.4999 6.34299 17.3279 5.17199C16.157 4 14.271 4 10.5 4H8.99998C5.22899 4 3.34299 4 2.17199 5.17199Z" fill="url(#paint0_linear_69_599)"/>
<path fill-rule="evenodd" clip-rule="evenodd" d="M7.79182 9.19435C8.43228 8.67997 9.22921 8.39972 10.0507 8.40002H10.0517H10.566C10.7011 8.39989 10.835 8.42639 10.9599 8.47802C11.0848 8.52966 11.1983 8.6054 11.2939 8.70092C11.3896 8.79645 11.4654 8.90988 11.5172 9.03474C11.5689 9.1596 11.5956 9.29344 11.5956 9.4286V9.4286C11.5956 9.57061 11.7107 9.68574 11.8527 9.68574H13.6558C13.8604 9.68574 14.0566 9.76701 14.2013 9.91169C14.346 10.0564 14.4272 10.2526 14.4272 10.4572C14.4272 10.6618 14.346 10.858 14.2013 11.0026C14.0566 11.1473 13.8604 11.2286 13.6558 11.2286H11.9956C11.7747 11.2286 11.5956 11.4077 11.5956 11.6286V12.3715C11.5956 12.5924 11.7747 12.7715 11.9956 12.7715H13.6558C13.8604 12.7715 14.0566 12.8527 14.2013 12.9974C14.346 13.1421 14.4272 13.3383 14.4272 13.5429C14.4272 13.7475 14.346 13.9437 14.2013 14.0884C14.0566 14.233 13.8604 14.3143 13.6558 14.3143H11.8517C11.7097 14.3143 11.5945 14.4294 11.5945 14.5715V14.5715C11.5945 14.7066 11.5679 14.8404 11.5162 14.9653C11.4644 15.0902 11.3885 15.2036 11.2929 15.2991C11.1973 15.3947 11.0838 15.4704 10.9589 15.522C10.834 15.5737 10.7001 15.6002 10.5649 15.6H10.0496C9.22818 15.6003 8.43126 15.3201 7.7908 14.8057C7.23416 14.3586 6.82472 13.758 6.61092 13.0818C6.55433 12.9028 6.39414 12.7715 6.20642 12.7715H4.4C4.1906 12.7715 4.01579 12.61 4.00772 12.4007C3.99743 12.1337 3.99743 11.8664 4.00772 11.5993C4.01579 11.3901 4.1906 11.2286 4.4 11.2286H6.20745C6.39516 11.2286 6.55535 11.0972 6.61195 10.9182C6.82575 10.2421 7.23519 9.64142 7.79182 9.19435ZM20.2329 14.5984C20.0837 14.4493 20 14.247 20 14.0361V9.79523C20 9.58433 20.0837 9.38203 20.2329 9.23291C20.382 9.08378 20.5843 9 20.7951 9C21.006 9 21.2083 9.08378 21.3574 9.23291C21.5066 9.38203 21.5903 9.58433 21.5903 9.79523V14.0361C21.5903 14.247 21.5066 14.4493 21.3574 14.5984C21.2083 14.7475 21.006 14.8313 20.7951 14.8313C20.5843 14.8313 20.382 14.7475 20.2329 14.5984Z" fill="url(#paint1_linear_69_599)"/>
<defs>
<linearGradient id="paint0_linear_69_599" x1="9.74997" y1="20" x2="9.74997" y2="4" gradientUnits="userSpaceOnUse">
<stop stop-color="#5570FF"/>
<stop offset="1" stop-color="#4DD3FF"/>
</linearGradient>
<linearGradient id="paint1_linear_69_599" x1="12.7951" y1="15.6" x2="12.7951" y2="8.40002" gradientUnits="userSpaceOnUse">
<stop stop-color="#5558FF"/>
<stop offset="1" stop-color="#00C0FF"/>
</linearGradient>
</defs>
</svg>
