<svg width="128" height="128" viewBox="0 0 128 128" fill="none" xmlns="http://www.w3.org/2000/svg">
<path d="M90.4688 8C74.187 8 60.9375 21.2535 60.9375 37.5314C60.9375 53.815 74.1853 67.0627 90.4688 67.0627C106.784 67.0627 120 53.7898 120 37.5314C120 21.2478 106.752 8 90.4688 8ZM90.4688 60.5002C77.8038 60.5002 67.5 50.1964 67.5 37.5314C67.5 32.3796 69.205 27.6187 72.0802 23.7829L104.217 55.92C100.381 58.7953 95.6204 60.5002 90.4688 60.5002ZM108.857 51.2796L76.7206 19.1427C80.5562 16.2675 85.317 14.5625 90.4688 14.5625C103.134 14.5625 113.438 24.8663 113.438 37.5314C113.438 42.6832 111.733 47.4438 108.857 51.2796Z" fill="url(#paint0_linear_38_117)"/>
<path opacity="0.4" d="M80.4673 81.4826L97.1727 92.6197C99.6362 94.2621 101.216 96.8938 101.508 99.8399C101.8 102.786 100.767 105.677 98.6729 107.771L91.7105 114.733C88.39 118.053 83.8578 119.799 79.2791 119.53C70.354 119.005 52.3964 115.139 32.4071 95.1497C12.4179 75.1605 8.55214 57.203 8.02713 48.2778C7.75763 43.6954 9.50567 39.1644 12.8235 35.8464L19.7863 28.884C21.8795 26.7903 24.7694 25.7567 27.7167 26.0486C30.663 26.3404 33.2948 27.9206 34.9372 30.3842L46.0742 47.0895C48.668 50.9802 48.1508 56.204 44.8444 59.5106L40.4491 63.906C40.8231 66.4862 42.3577 72.6178 48.6485 78.9086C54.9393 85.1992 61.0711 86.734 63.6511 87.108L68.0464 82.7127C71.3529 79.406 76.5766 78.8891 80.4673 81.4826Z" fill="url(#paint1_linear_38_117)"/>
<defs>
<linearGradient id="paint0_linear_38_117" x1="48" y1="103" x2="93" y2="39" gradientUnits="userSpaceOnUse">
<stop stop-color="#C92FFF"/>
<stop offset="1" stop-color="#FF0A18"/>
</linearGradient>
<linearGradient id="paint1_linear_38_117" x1="-12.4934" y1="176.483" x2="58.7879" y2="75.1048" gradientUnits="userSpaceOnUse">
<stop stop-color="#C92FFF"/>
<stop offset="1" stop-color="#FF0A18"/>
</linearGradient>
</defs>
</svg>
