<svg width="128" height="128" viewBox="0 0 128 128" fill="none" xmlns="http://www.w3.org/2000/svg">
<path opacity="0.4" d="M115.625 17H12.375C9.9585 17 8 18.9585 8 21.375V90.2086C8 91.369 8.46057 92.4815 9.28089 93.3018L26.4895 110.51C27.3098 111.331 28.4232 111.792 29.5836 111.792H98.4164C99.5766 111.792 100.691 111.331 101.51 110.51L118.719 93.3018C119.54 92.4815 120 91.369 120 90.2086V21.375C120 18.9585 118.042 17 115.625 17Z" fill="url(#paint0_linear_36_131)"/>
<path opacity="0.6" fill-rule="evenodd" clip-rule="evenodd" d="M35.0934 93.3018C35.9145 94.1222 37.0271 94.5836 38.1875 94.5836H89.8125C90.9729 94.5836 92.0855 94.1222 92.9066 93.3018L101.51 84.698C102.331 83.8777 102.791 82.7643 102.791 81.6047V38.5836C102.791 36.1671 100.833 34.2086 98.4164 34.2086H29.5836C27.1671 34.2086 25.2086 36.1671 25.2086 38.5836V81.6047C25.2086 82.7643 25.6692 83.8777 26.4895 84.698L35.0934 93.3018ZM33.9586 42.9586H94.0414V79.7924L88.0001 85.8336H39.9999L33.9586 79.7924V42.9586Z" fill="url(#paint1_linear_36_131)"/>
<defs>
<linearGradient id="paint0_linear_36_131" x1="119.668" y1="17.6009" x2="26.7911" y2="126.425" gradientUnits="userSpaceOnUse">
<stop stop-color="#FE7970"/>
<stop offset="1" stop-color="#DC3282"/>
</linearGradient>
<linearGradient id="paint1_linear_36_131" x1="102.561" y1="34.5914" x2="44.3794" y2="108.733" gradientUnits="userSpaceOnUse">
<stop stop-color="#FE7970"/>
<stop offset="1" stop-color="#DC3282"/>
</linearGradient>
</defs>
</svg>
