<svg width="24" height="24" viewBox="0 0 24 24" fill="none" xmlns="http://www.w3.org/2000/svg">
<path opacity="0.5" d="M14.2571 1C16.1051 1 17.5681 1 18.7143 1.1562C19.8935 1.3179 20.8483 1.6578 21.6007 2.4234C22.3531 3.189 22.6875 4.1614 22.8459 5.3604C22.9999 6.5264 22.9999 8.0158 22.9999 9.8957V14.1043C22.9999 15.9853 22.9999 17.4747 22.8459 18.6396C22.6875 19.8386 22.3531 20.811 21.6007 21.5766C20.8483 22.3422 19.8935 22.6821 18.7143 22.8438C17.5692 23 16.1051 23 14.2571 23H14.1427C12.2947 23 10.8317 23 9.6855 22.8438C8.5063 22.6821 7.5515 22.3422 6.7991 21.5766C6.0467 20.811 5.7123 19.8386 5.5539 18.6396C5.3999 17.4736 5.3999 15.9842 5.3999 14.1043V9.8957C5.3999 8.0147 5.3999 6.5253 5.5539 5.3604C5.7123 4.1614 6.0467 3.189 6.7991 2.4234C7.5515 1.6578 8.5063 1.3179 9.6855 1.1562C10.8306 1 12.2947 1 14.1427 1H14.2571Z" fill="url(#paint0_linear_275_67)"/>
<path d="M12 18.8749C11.7812 18.8749 11.5714 18.9618 11.4166 19.1165C11.2619 19.2712 11.175 19.4811 11.175 19.6999C11.175 19.9187 11.2619 20.1285 11.4166 20.2833C11.5714 20.438 11.7812 20.5249 12 20.5249H17.5C17.7188 20.5249 17.9286 20.438 18.0834 20.2833C18.2381 20.1285 18.325 19.9187 18.325 19.6999C18.325 19.4811 18.2381 19.2712 18.0834 19.1165C17.9286 18.9618 17.7188 18.8749 17.5 18.8749H12ZM1 14.7499C1 13.2044 1 12.4322 1.3707 11.8778C1.53125 11.6375 1.73758 11.4311 1.9779 11.2706C2.5323 10.8999 3.3056 10.8999 4.85 10.8999C6.3944 10.8999 7.1677 10.8999 7.7221 11.2706C7.96242 11.4311 8.16875 11.6375 8.3293 11.8778C8.7 12.4322 8.7 13.2055 8.7 14.7499V19.1499C8.7 20.6943 8.7 21.4676 8.3293 22.022C8.16875 22.2623 7.96242 22.4686 7.7221 22.6292C7.1677 22.9999 6.3944 22.9999 4.85 22.9999C3.3056 22.9999 2.5323 22.9999 1.9779 22.6292C1.73758 22.4686 1.53125 22.2623 1.3707 22.022C1 21.4676 1 20.6943 1 19.1499V14.7499Z" fill="url(#paint1_linear_275_67)"/>
<defs>
<linearGradient id="paint0_linear_275_67" x1="22.5035" y1="12" x2="7.17963" y2="7.56544" gradientUnits="userSpaceOnUse">
<stop stop-color="#FE7970"/>
<stop offset="1" stop-color="#DC3282"/>
</linearGradient>
<linearGradient id="paint1_linear_275_67" x1="17.8363" y1="16.9499" x2="4.94651" y2="10.2737" gradientUnits="userSpaceOnUse">
<stop stop-color="#FE7970"/>
<stop offset="1" stop-color="#DC3282"/>
</linearGradient>
</defs>
</svg>
