<svg width="24" height="24" viewBox="0 0 24 24" fill="none" xmlns="http://www.w3.org/2000/svg">
<path opacity="0.5" d="M14.2572 1C16.1052 1 17.5682 1 18.7144 1.1562C19.8936 1.3179 20.8484 1.6578 21.6008 2.4234C22.3532 3.189 22.6876 4.1614 22.846 5.3604C23 6.5264 23 8.0158 23 9.8957V14.1043C23 15.9853 23 17.4747 22.846 18.6396C22.6876 19.8386 22.3532 20.811 21.6008 21.5766C20.8484 22.3422 19.8936 22.6821 18.7144 22.8438C17.5693 23 16.1052 23 14.2572 23H14.1428C12.2948 23 10.8318 23 9.68559 22.8438C8.50639 22.6821 7.55159 22.3422 6.79919 21.5766C6.04679 20.811 5.71239 19.8386 5.55399 18.6396C5.39999 17.4736 5.39999 15.9842 5.39999 14.1043V9.8957C5.39999 8.0147 5.39999 6.5253 5.55399 5.3604C5.71239 4.1614 6.04679 3.189 6.79919 2.4234C7.55159 1.6578 8.50639 1.3179 9.68559 1.1562C10.8307 1 12.2948 1 14.1428 1H14.2572Z" fill="url(#paint0_linear_32_188)"/>
<path d="M12 18.875C11.7812 18.875 11.5714 18.9619 11.4166 19.1166C11.2619 19.2713 11.175 19.4812 11.175 19.7C11.175 19.9188 11.2619 20.1286 11.4166 20.2834C11.5714 20.4381 11.7812 20.525 12 20.525H17.5C17.7188 20.525 17.9286 20.4381 18.0834 20.2834C18.2381 20.1286 18.325 19.9188 18.325 19.7C18.325 19.4812 18.2381 19.2713 18.0834 19.1166C17.9286 18.9619 17.7188 18.875 17.5 18.875H12ZM1 14.75C1 13.2045 1 12.4323 1.3707 11.8779C1.53125 11.6376 1.73758 11.4312 1.9779 11.2707C2.5323 10.9 3.3056 10.9 4.85 10.9C6.3944 10.9 7.1677 10.9 7.7221 11.2707C7.96242 11.4312 8.16875 11.6376 8.3293 11.8779C8.7 12.4323 8.7 13.2056 8.7 14.75V19.15C8.7 20.6944 8.7 21.4677 8.3293 22.0221C8.16875 22.2624 7.96242 22.4687 7.7221 22.6293C7.1677 23 6.3944 23 4.85 23C3.3056 23 2.5323 23 1.9779 22.6293C1.73758 22.4687 1.53125 22.2624 1.3707 22.0221C1 21.4677 1 20.6944 1 19.15V14.75Z" fill="url(#paint1_linear_32_188)"/>
<defs>
<linearGradient id="paint0_linear_32_188" x1="6.01683" y1="12" x2="21.8583" y2="10.5809" gradientUnits="userSpaceOnUse">
<stop stop-color="#8D01A2"/>
<stop offset="1" stop-color="#FF00D2"/>
</linearGradient>
<linearGradient id="paint1_linear_32_188" x1="1.6072" y1="16.95" x2="16.9323" y2="14.4929" gradientUnits="userSpaceOnUse">
<stop stop-color="#8D01A2"/>
<stop offset="1" stop-color="#FF00D2"/>
</linearGradient>
</defs>
</svg>
