<svg width="32" height="32" viewBox="0 0 32 32" fill="none" xmlns="http://www.w3.org/2000/svg">
<rect opacity="0.4" x="2" y="2" width="28" height="28" rx="2" fill="url(#paint0_linear_38_87)"/>
<path fill-rule="evenodd" clip-rule="evenodd" d="M6.26667 4.86667C5.49347 4.86667 4.86667 5.49347 4.86667 6.26667V27.0616C4.86667 27.1011 4.89881 27.1333 4.93846 27.1333H6.33334C6.55426 27.1333 6.73334 26.9542 6.73334 26.7333L6.73333 24.8C6.73333 24.5791 6.91242 24.4 7.13333 24.4H14.6667C14.8876 24.4 15.0667 24.5791 15.0667 24.8V26.7333C15.0667 26.9542 15.2458 27.1333 15.4667 27.1333H17.4667C17.6876 27.1333 17.8667 26.9542 17.8667 26.7333V24.8C17.8667 24.5791 18.0458 24.4 18.2667 24.4H25.8C26.0209 24.4 26.2 24.5791 26.2 24.8V26.7333C26.2 26.9542 26.3791 27.1333 26.6 27.1333H27.0616C27.1012 27.1333 27.1333 27.1011 27.1333 27.0616V6.26667C27.1333 5.49347 26.5065 4.86667 25.7333 4.86667H6.26667ZM2 3.93846C2 2.86788 2.86788 2 3.93846 2H28.0616C29.1321 2 30 2.86788 30 3.93846V28.0616C30 29.1321 29.1321 30 28.0616 30H3.93846C2.86788 30 2 29.1321 2 28.0616V3.93846Z" fill="url(#paint1_linear_38_87)"/>
<path d="M13.0638 7C12.2513 7 11.472 7.32279 10.8974 7.89737C10.3228 8.47195 10 9.25125 10 10.0638C10.0003 10.7428 10.2262 11.4025 10.6421 11.9392C10.824 12.174 11.0379 12.3794 11.2759 12.5504C11.7426 12.8858 12.2979 12.4687 12.2979 11.894V11.894C12.2979 11.5798 12.1141 11.302 11.9079 11.0649C11.8442 10.9916 11.7873 10.9121 11.7382 10.8274C11.6038 10.5953 11.5327 10.332 11.5319 10.0638C11.5319 9.65754 11.6933 9.26789 11.9806 8.9806C12.2679 8.69331 12.6575 8.53192 13.0638 8.53191C13.265 8.53191 13.4642 8.57152 13.6501 8.64851C13.8359 8.7255 14.0048 8.83833 14.1471 8.98058C14.2893 9.12283 14.4022 9.29172 14.4791 9.47758C14.5561 9.66344 14.5958 9.86266 14.5958 10.0638V10.0638C14.5949 10.1919 14.6428 10.3188 14.7439 10.3975L14.9819 10.5826C15.4335 10.9338 16.1007 10.7532 16.1246 10.1817C16.1263 10.1424 16.1272 10.1032 16.1273 10.0638C16.1273 9.66148 16.0481 9.26305 15.8941 8.89133C15.7401 8.51961 15.5144 8.18188 15.2299 7.89737C14.9454 7.61287 14.6077 7.38719 14.236 7.23321C13.8642 7.07924 13.4661 7 13.0638 7ZM14.6735 11.2979C14.0154 10.7934 13.0645 11.2629 13.065 12.0921L13.0712 21.9984C13.0717 22.9596 14.2957 23.3665 14.8717 22.597L17.3598 19.273C17.5486 19.0208 17.8453 18.8723 18.1604 18.8723H21.6054C22.5611 18.8723 22.9723 17.6601 22.2138 17.0787L14.6735 11.2979Z" fill="url(#paint2_linear_38_87)"/>
<defs>
<linearGradient id="paint0_linear_38_87" x1="16" y1="30" x2="16" y2="2" gradientUnits="userSpaceOnUse">
<stop stop-color="#FD3A84"/>
<stop offset="1" stop-color="#FFA68D"/>
</linearGradient>
<linearGradient id="paint1_linear_38_87" x1="1.9959" y1="15.5851" x2="29.9939" y2="15.5851" gradientUnits="userSpaceOnUse">
<stop stop-color="#FD3A84"/>
<stop offset="1" stop-color="#FFA68D"/>
</linearGradient>
<linearGradient id="paint2_linear_38_87" x1="9.99787" y1="15.7333" x2="24.5502" y2="15.7333" gradientUnits="userSpaceOnUse">
<stop stop-color="#FD3A84"/>
<stop offset="1" stop-color="#FFA68D"/>
</linearGradient>
</defs>
</svg>
