<svg width="24" height="24" viewBox="0 0 24 24" fill="none" xmlns="http://www.w3.org/2000/svg">
<path opacity="0.4" d="M12.9796 17.7239C12.9796 18.2916 13.446 18.7512 14.0222 18.7512L19.0588 19.0344C19.7931 19.0344 20.3875 18.4474 20.3875 17.7239C20.3875 17.0004 19.7931 16.4146 19.0588 16.4146L14.0222 16.6966C13.446 16.6966 12.9796 17.1562 12.9796 17.7239" fill="url(#paint0_linear_32_188)"/>
<path d="M2.8408 16.3216C2.8408 16.3216 2.53769 16.6164 2.40573 16.7992C2.20191 17.0644 2.10001 17.3914 2.10001 17.7171C2.10001 18.0827 2.21498 18.4226 2.43186 18.6993C2.48281 18.7495 2.67487 18.9632 2.85386 19.1396C3.90038 20.2467 6.63229 22.0581 8.06292 22.6116C8.2798 22.6992 8.82854 22.8884 9.1225 22.9C9.4021 22.9 9.67124 22.8382 9.92601 22.712C10.2448 22.5357 10.5009 22.2589 10.6407 21.9319C10.7308 21.7053 10.8706 21.0269 10.8706 21.014C11.0117 20.2712 11.0875 19.0637 11.0875 17.73C11.0875 16.4593 11.0117 15.302 10.8967 14.5476C10.8837 14.5347 10.7439 13.6928 10.5897 13.4031C10.3088 12.8753 9.76008 12.5471 9.17346 12.5471H9.1225C8.7397 12.5599 7.93488 12.8882 7.93488 12.8998C6.58134 13.4534 3.91344 15.1771 2.8408 16.3216" fill="url(#paint1_linear_32_188)"/>
<path opacity="0.4" d="M11.0206 6.07582C11.0206 5.5081 10.5542 5.04851 9.97798 5.04851L4.94127 4.76658C4.20699 4.76658 3.61252 5.35233 3.61252 6.07582C3.61252 6.79932 4.20699 7.38635 4.94127 7.38635L9.97798 7.10313C10.5542 7.10313 11.0206 6.64355 11.0206 6.07582" fill="url(#paint2_linear_32_188)"/>
<path d="M14.0738 1.08794C13.755 1.26431 13.5003 1.54109 13.3592 1.86808C13.269 2.09466 13.1292 2.77438 13.1292 2.78597C12.9881 3.52878 12.9123 4.73632 12.9123 6.07002C12.9123 7.34065 12.9881 8.49798 13.1031 9.25237C13.1161 9.26525 13.2572 10.1072 13.4101 10.3968C13.691 10.9259 14.2398 11.2529 14.8277 11.2529H14.8787C15.2615 11.2401 16.065 10.9131 16.065 10.9002C17.4186 10.3466 20.0878 8.62414 21.1592 7.47839C21.1592 7.47839 21.4623 7.18359 21.593 7.00078C21.7981 6.73687 21.9 6.40989 21.9 6.08161C21.9 5.71729 21.785 5.37871 21.5681 5.10064C21.5172 5.05043 21.3251 4.83673 21.1474 4.66036C20.0996 3.55452 17.3676 1.74192 15.9383 1.18964C15.7214 1.10082 15.1713 0.911574 14.8787 0.899988C14.5978 0.899988 14.3286 0.961781 14.0738 1.08794" fill="url(#paint3_linear_32_188)"/>
<defs>
<linearGradient id="paint0_linear_32_188" x1="20.3875" y1="17.7245" x2="12.9796" y2="17.7245" gradientUnits="userSpaceOnUse">
<stop stop-color="#C3FFE8"/>
<stop offset="0.9973" stop-color="#F0FFF4"/>
</linearGradient>
<linearGradient id="paint1_linear_32_188" x1="11.0875" y1="17.7235" x2="2.10001" y2="17.7235" gradientUnits="userSpaceOnUse">
<stop stop-color="#C3FFE8"/>
<stop offset="0.9973" stop-color="#F0FFF4"/>
</linearGradient>
<linearGradient id="paint2_linear_32_188" x1="11.0206" y1="6.07646" x2="3.61252" y2="6.07646" gradientUnits="userSpaceOnUse">
<stop stop-color="#C3FFE8"/>
<stop offset="0.9973" stop-color="#F0FFF4"/>
</linearGradient>
<linearGradient id="paint3_linear_32_188" x1="21.9" y1="6.07646" x2="12.9123" y2="6.07646" gradientUnits="userSpaceOnUse">
<stop stop-color="#C3FFE8"/>
<stop offset="0.9973" stop-color="#F0FFF4"/>
</linearGradient>
</defs>
</svg>
