<svg width="128" height="128" viewBox="0 0 128 128" fill="none" xmlns="http://www.w3.org/2000/svg">
<path opacity="0.4" d="M40.6484 10C36.8211 10 33.7188 13.1027 33.7188 16.9297V43.3562L24.0303 53.0447C22.7301 54.3447 22 56.1082 22 57.9453V75.914C22 78.38 23.2881 80.5452 25.2282 81.7735C23.2881 83.0016 22 85.1668 22 87.6328V111.071C22 114.897 25.1029 118 28.9297 118H99.2422C103.068 118 106.172 114.898 106.172 111.071V87.6328C106.172 85.1666 104.884 83.0016 102.944 81.7735C104.884 80.5453 106.172 78.3802 106.172 75.914V16.9297C106.172 13.1022 103.069 10 99.2422 10H40.6484Z" fill="url(#paint0_linear_38_99)"/>
<path d="M52.3671 43.2969C53.9851 43.2969 55.2969 41.9851 55.2969 40.3671V28.6484C55.2969 27.0304 53.9851 25.7188 52.3671 25.7188C50.7492 25.7188 49.4375 27.0304 49.4375 28.6484V40.3671C49.4375 41.9851 50.7492 43.2969 52.3671 43.2969ZM64.0858 43.2969C65.7037 43.2969 67.0156 41.9851 67.0156 40.3671V28.6484C67.0156 27.0304 65.7037 25.7188 64.0858 25.7188C62.4678 25.7188 61.1562 27.0304 61.1562 28.6484V40.3671C61.1562 41.9851 62.4678 43.2969 64.0858 43.2969ZM75.8046 43.2969C77.4226 43.2969 78.7343 41.9851 78.7343 40.3671V28.6484C78.7343 27.0304 77.4226 25.7188 75.8046 25.7188C74.1867 25.7188 72.875 27.0304 72.875 28.6484V40.3671C72.875 41.9851 74.1867 43.2969 75.8046 43.2969ZM87.5233 25.7188C85.9053 25.7188 84.5938 27.0304 84.5938 28.6484V40.3671C84.5938 41.9851 85.9053 43.2969 87.5233 43.2969C89.1412 43.2969 90.4531 41.9851 90.4531 40.3671V28.6484C90.4531 27.0304 89.1412 25.7188 87.5233 25.7188ZM87.5233 96.4215H40.6483C39.0303 96.4215 37.7188 97.7336 37.7188 99.3517C37.7188 100.97 39.0303 102.281 40.6483 102.281H87.5233C89.1412 102.281 90.4531 100.97 90.4531 99.3517C90.4531 97.7336 89.1412 96.4215 87.5233 96.4215Z" fill="url(#paint1_linear_38_99)"/>
<defs>
<linearGradient id="paint0_linear_38_99" x1="64.0859" y1="114" x2="64.0859" y2="14" gradientUnits="userSpaceOnUse">
<stop stop-color="#FD0000"/>
<stop offset="1" stop-color="#FAFF00"/>
</linearGradient>
<linearGradient id="paint1_linear_38_99" x1="64.0859" y1="102.281" x2="64.0859" y2="25.7188" gradientUnits="userSpaceOnUse">
<stop stop-color="#FD5900"/>
<stop offset="1" stop-color="#FFDE00"/>
</linearGradient>
</defs>
</svg>
