<svg width="24" height="24" viewBox="0 0 24 24" fill="none" xmlns="http://www.w3.org/2000/svg">
<path opacity="0.4" d="M11.0204 6.07608C11.0204 5.50838 10.554 5.04878 9.97779 5.04878L4.94119 4.76558C4.20689 4.76558 3.61248 5.35258 3.61248 6.07608C3.61248 6.79958 4.20689 7.38538 4.94119 7.38538L9.97779 7.10338C10.554 7.10338 11.0204 6.64378 11.0204 6.07608Z" fill="url(#paint0_linear_69_535)"/>
<path d="M21.1592 7.47837C21.1592 7.47837 21.4623 7.18357 21.5943 7.00077C21.7981 6.73557 21.9 6.40857 21.9 6.08287C21.9 5.71727 21.7851 5.37737 21.5682 5.10067C21.5172 5.05047 21.3252 4.83677 21.1462 4.66037C20.0997 3.55327 17.3677 1.74187 15.9371 1.18837C15.7202 1.10077 15.1715 0.911569 14.8775 0.899969C14.5979 0.899969 14.3288 0.961769 14.074 1.08797C13.7552 1.26427 13.4991 1.54107 13.3593 1.86807C13.2692 2.09467 13.1294 2.77307 13.1294 2.78597C12.9883 3.52877 12.9125 4.73627 12.9125 6.06997C12.9125 7.34067 12.9883 8.49797 13.1033 9.25237C13.1163 9.26527 13.2561 10.1072 13.4103 10.3969C13.6912 10.9247 14.24 11.2529 14.8266 11.2529H14.8775C15.2603 11.2401 16.0652 10.9118 16.0652 10.9002C17.4187 10.3466 20.0866 8.62287 21.1592 7.47837Z" fill="url(#paint1_linear_69_535)"/>
<path opacity="0.4" d="M12.9794 17.7241C12.9794 18.2919 13.4458 18.7515 14.022 18.7515L19.0587 19.0334C19.793 19.0334 20.3875 18.4476 20.3875 17.7241C20.3875 17.0006 19.793 16.4136 19.0587 16.4136L14.022 16.6968C13.4458 16.6968 12.9794 17.1564 12.9794 17.7241Z" fill="url(#paint2_linear_69_535)"/>
<path opacity="0.6" d="M9.92615 22.7121C10.2449 22.5357 10.4996 22.2589 10.6407 21.9319C10.7309 21.7054 10.8707 21.0256 10.8707 21.014C11.0118 20.2712 11.0876 19.0637 11.0876 17.73C11.0876 16.4594 11.0118 15.302 10.8968 14.5476C10.8838 14.5348 10.7427 13.6928 10.5898 13.4032C10.3089 12.8741 9.76015 12.5471 9.17225 12.5471H9.12125C8.73845 12.5599 7.93495 12.8869 7.93495 12.8998C6.58135 13.4534 3.91215 15.1759 2.84075 16.3216C2.84075 16.3216 2.53765 16.6164 2.40695 16.7992C2.20185 17.0631 2.09995 17.3901 2.09995 17.7184C2.09995 18.0827 2.21495 18.4213 2.43185 18.6994C2.48275 18.7496 2.67485 18.9633 2.85255 19.1397C3.90035 20.2455 6.63235 22.0581 8.06165 22.6104C8.27855 22.6992 8.82865 22.8884 9.12125 22.9C9.40215 22.9 9.67135 22.8382 9.92615 22.7121Z" fill="url(#paint3_linear_69_535)"/>
<defs>
<linearGradient id="paint0_linear_69_535" x1="3.61248" y1="6.07548" x2="11.0204" y2="6.07548" gradientUnits="userSpaceOnUse">
<stop stop-color="#00B59C"/>
<stop offset="1" stop-color="#9CFFAC"/>
</linearGradient>
<linearGradient id="paint1_linear_69_535" x1="12.9125" y1="6.07647" x2="21.9" y2="6.07647" gradientUnits="userSpaceOnUse">
<stop stop-color="#00B59C"/>
<stop offset="1" stop-color="#9CFFAC"/>
</linearGradient>
<linearGradient id="paint2_linear_69_535" x1="12.9794" y1="17.7235" x2="20.3875" y2="17.7235" gradientUnits="userSpaceOnUse">
<stop stop-color="#3BF0D7"/>
<stop offset="1" stop-color="#BFFFC9"/>
</linearGradient>
<linearGradient id="paint3_linear_69_535" x1="2.09995" y1="17.7236" x2="11.0876" y2="17.7236" gradientUnits="userSpaceOnUse">
<stop stop-color="#3BF0D7"/>
<stop offset="1" stop-color="#BFFFC9"/>
</linearGradient>
</defs>
</svg>
