<svg width="128" height="128" viewBox="0 0 128 128" fill="none" xmlns="http://www.w3.org/2000/svg">
<path opacity="0.4" d="M115.625 17H12.375C9.9585 17 8 18.9585 8 21.375V90.2086C8 91.369 8.46057 92.4815 9.28089 93.3018L26.4895 110.51C27.3098 111.331 28.4232 111.792 29.5836 111.792H98.4164C99.5766 111.792 100.691 111.331 101.51 110.51L118.719 93.3018C119.54 92.4815 120 91.369 120 90.2086V21.375C120 18.9585 118.042 17 115.625 17Z" fill="url(#paint0_linear_70_98)"/>
<path fill-rule="evenodd" clip-rule="evenodd" d="M38.1875 94.5835C37.0271 94.5835 35.9145 94.1221 35.0934 93.3017L26.4895 84.6979C25.6692 83.8776 25.2086 82.7642 25.2086 81.6046V38.5835C25.2086 36.167 27.1671 34.2085 29.5836 34.2085H98.4164C100.833 34.2085 102.791 36.167 102.791 38.5835V81.6046C102.791 82.7642 102.331 83.8776 101.51 84.6979L92.9066 93.3017C92.0855 94.1221 90.9729 94.5835 89.8125 94.5835H38.1875ZM94.0414 42.9585H33.9586V79.7923L39.9999 85.8335H88.0001L94.0414 79.7923V42.9585ZM59.625 64.3961V55.7922C59.625 53.3758 61.5835 51.4172 64 51.4172C66.4165 51.4172 68.375 53.3758 68.375 55.7922V64.3961C68.375 66.8126 66.4165 68.7711 64 68.7711C61.5835 68.7711 59.625 66.8126 59.625 64.3961ZM76.8336 55.7922V64.3961C76.8336 66.8126 78.7921 68.7711 81.2086 68.7711C83.6251 68.7711 85.5836 66.8126 85.5836 64.3961V55.7922C85.5836 53.3758 83.6251 51.4172 81.2086 51.4172C78.7921 51.4172 76.8336 53.3758 76.8336 55.7922ZM42.4164 64.3961V55.7922C42.4164 53.3758 44.3749 51.4172 46.7914 51.4172C49.2079 51.4172 51.1664 53.3758 51.1664 55.7922V64.3961C51.1664 66.8126 49.2079 68.7711 46.7914 68.7711C44.3749 68.7711 42.4164 66.8126 42.4164 64.3961Z" fill="url(#paint1_linear_70_98)"/>
<defs>
<linearGradient id="paint0_linear_70_98" x1="64" y1="111.792" x2="64" y2="17" gradientUnits="userSpaceOnUse">
<stop stop-color="#00B59C"/>
<stop offset="1" stop-color="#9CFFAC"/>
</linearGradient>
<linearGradient id="paint1_linear_70_98" x1="63.9998" y1="94.5835" x2="63.9998" y2="34.2085" gradientUnits="userSpaceOnUse">
<stop stop-color="#02AA93"/>
<stop offset="1" stop-color="#67FF80"/>
</linearGradient>
</defs>
</svg>
