<svg width="24" height="24" viewBox="0 0 24 24" fill="none" xmlns="http://www.w3.org/2000/svg">
<g clip-path="url(#clip0_38_67)">
<path d="M20.0335 22.3263C19.8763 22.4782 19.6262 22.4756 19.4721 22.3206L10.5074 13.3083C10.4096 13.2099 10.2676 13.1687 10.1333 13.2035C9.43181 13.3852 8.77505 13.6424 8.163 13.975C7.60925 14.276 7.10288 14.6387 6.6439 15.0632C6.47866 15.216 6.22026 15.2172 6.06299 15.0562L4.52623 13.4829C4.37315 13.3261 4.37411 13.0748 4.53448 12.9256C4.98632 12.5051 5.4665 12.1299 5.975 11.8C6.43123 11.5041 6.91026 11.2356 7.4121 10.9944C7.66716 10.8718 7.73233 10.5324 7.53223 10.3323L5.90595 8.706C5.7832 8.58325 5.59503 8.55324 5.44197 8.63516C4.85551 8.94908 4.30385 9.29171 3.787 9.66305C3.30144 10.0119 2.83584 10.3969 2.3902 10.8179C2.22829 10.9709 1.97284 10.9699 1.8172 10.8105L0.276227 9.23285C0.123148 9.07613 0.124255 8.825 0.283004 8.67402C0.728732 8.25011 1.18873 7.86312 1.663 7.51305C2.10638 7.18578 2.57174 6.87059 3.05907 6.56747C3.28093 6.42947 3.32011 6.12016 3.13536 5.9354L1.68284 4.48289C1.52663 4.32668 1.52663 4.07342 1.68284 3.91721L2.51716 3.08289C2.67337 2.92668 2.92663 2.92668 3.08284 3.08289L20.9122 20.9122C21.0703 21.0704 21.068 21.3275 20.9071 21.4828L20.0335 22.3263ZM12.2838 20.7142C12.1274 20.8717 11.8726 20.8717 11.7162 20.7142L8.75585 17.7329C8.60058 17.5765 8.59999 17.3226 8.76762 17.1795C9.16262 16.8425 9.60275 16.5744 10.088 16.375C10.6967 16.125 11.334 16 12 16C12.6667 16 13.3043 16.125 13.913 16.375C14.3983 16.5744 14.8382 16.8425 15.2328 17.1796C15.4002 17.3226 15.3995 17.5764 15.2444 17.7327L12.2838 20.7142Z" fill="url(#paint0_linear_38_67)"/>
<g opacity="0.4">
<path d="M17.175 14.325L17.6172 14.7672C17.7734 14.9234 18.0266 14.9234 18.1829 14.7672L19.4671 13.4829C19.6233 13.3267 19.6238 13.0727 19.4619 12.9224C18.63 12.1497 17.6884 11.5173 16.637 11.025C15.7892 10.628 14.8957 10.3396 13.9566 10.1597C13.5876 10.089 13.3752 10.5252 13.6408 10.7908L16.45 13.6L17.175 14.325Z" fill="url(#paint1_linear_38_67)"/>
<path d="M17.437 8.088C19.003 8.75868 20.3939 9.66863 21.6098 10.8179C21.7717 10.9709 22.0272 10.9698 22.1828 10.8105L23.7238 9.2328C23.8769 9.07608 23.8757 8.825 23.7173 8.67372C22.2477 7.27083 20.5503 6.15459 18.625 5.325C16.575 4.44167 14.3667 4 12 4C11.2173 4 10.4467 4.05 9.68801 4.15C9.15869 4.21977 8.63552 4.31388 8.11853 4.43233C7.81916 4.50092 7.72023 4.87022 7.9374 5.08739L9.85775 7.00774C9.94725 7.09724 10.0738 7.13875 10.1992 7.12192C10.4652 7.08626 10.7281 7.05828 10.988 7.038C11.3127 7.01267 11.65 7 12 7C13.9327 7.00067 15.745 7.36333 17.437 8.088Z" fill="url(#paint2_linear_38_67)"/>
</g>
</g>
<defs>
<linearGradient id="paint0_linear_38_67" x1="21.1372" y1="2.92557" x2="1.52839" y2="23.7461" gradientUnits="userSpaceOnUse">
<stop stop-color="#FE7970"/>
<stop offset="1" stop-color="#DC3282"/>
</linearGradient>
<linearGradient id="paint1_linear_38_67" x1="23.951" y1="4.07005" x2="13.7932" y2="19.157" gradientUnits="userSpaceOnUse">
<stop stop-color="#FE7970"/>
<stop offset="1" stop-color="#DC3282"/>
</linearGradient>
<linearGradient id="paint2_linear_38_67" x1="23.951" y1="4.07005" x2="13.7932" y2="19.157" gradientUnits="userSpaceOnUse">
<stop stop-color="#FE7970"/>
<stop offset="1" stop-color="#DC3282"/>
</linearGradient>
<clipPath id="clip0_38_67">
<rect width="24" height="24" fill="white"/>
</clipPath>
</defs>
</svg>
