<svg width="25" height="24" viewBox="0 0 25 24" fill="none" xmlns="http://www.w3.org/2000/svg">
<path opacity="0.4" d="M20.026 16.167H11.2593C11.0384 16.167 10.8593 16.3461 10.8593 16.567V17.8337C10.8593 18.0547 10.7715 18.2666 10.6153 18.4229C10.459 18.5792 10.247 18.667 10.026 18.667C9.80499 18.667 9.59303 18.5792 9.43675 18.4229C9.28047 18.2666 9.19267 18.0547 9.19267 17.8337V16.567C9.19267 16.3461 9.01358 16.167 8.79267 16.167H7.926C7.70509 16.167 7.526 16.3461 7.526 16.567V17.8337C7.526 18.0547 7.4382 18.2666 7.28192 18.4229C7.12564 18.5792 6.91368 18.667 6.69267 18.667C6.47165 18.667 6.25969 18.5792 6.10341 18.4229C5.94713 18.2666 5.85933 18.0547 5.85933 17.8337V16.567C5.85933 16.3461 5.68025 16.167 5.45933 16.167H5.026C4.36296 16.167 3.72707 16.4304 3.25823 16.8992C2.78939 17.3681 2.526 18.004 2.526 18.667C2.526 19.33 2.78939 19.9659 3.25823 20.4348C3.72707 20.9036 4.36296 21.167 5.026 21.167H20.026C20.689 21.167 21.3249 20.9036 21.7938 20.4348C22.2626 19.9659 22.526 19.33 22.526 18.667C22.526 18.004 22.2626 17.3681 21.7938 16.8992C21.3249 16.4304 20.689 16.167 20.026 16.167Z" fill="url(#paint0_linear_309_377)"/>
<path opacity="0.7" d="M20.026 9.5H11.2593C11.0384 9.5 10.8593 9.67909 10.8593 9.9V11.1667C10.8593 11.3877 10.7715 11.5996 10.6153 11.7559C10.459 11.9122 10.247 12 10.026 12C9.80499 12 9.59303 11.9122 9.43675 11.7559C9.28047 11.5996 9.19267 11.3877 9.19267 11.1667V9.9C9.19267 9.67909 9.01358 9.5 8.79267 9.5H7.926C7.70509 9.5 7.526 9.67909 7.526 9.9V11.1667C7.526 11.3877 7.4382 11.5996 7.28192 11.7559C7.12564 11.9122 6.91368 12 6.69267 12C6.47165 12 6.25969 11.9122 6.10341 11.7559C5.94713 11.5996 5.85933 11.3877 5.85933 11.1667V9.9C5.85933 9.67909 5.68025 9.5 5.45933 9.5H5.026C4.36296 9.5 3.72707 9.76339 3.25823 10.2322C2.78939 10.7011 2.526 11.337 2.526 12C2.526 12.663 2.78939 13.2989 3.25823 13.7678C3.72707 14.2366 4.36296 14.5 5.026 14.5H20.026C20.689 14.5 21.3249 14.2366 21.7938 13.7678C22.2626 13.2989 22.526 12.663 22.526 12C22.526 11.337 22.2626 10.7011 21.7938 10.2322C21.3249 9.76339 20.689 9.5 20.026 9.5Z" fill="url(#paint1_linear_309_377)"/>
<path d="M20.026 2.83301H11.2593C11.0384 2.83301 10.8593 3.01209 10.8593 3.23301V4.49967C10.8593 4.72069 10.7715 4.93265 10.6153 5.08893C10.459 5.24521 10.247 5.33301 10.026 5.33301C9.80499 5.33301 9.59303 5.24521 9.43675 5.08893C9.28047 4.93265 9.19267 4.72069 9.19267 4.49967V3.23301C9.19267 3.01209 9.01358 2.83301 8.79267 2.83301H7.926C7.70509 2.83301 7.526 3.01209 7.526 3.23301V4.49967C7.526 4.72069 7.4382 4.93265 7.28192 5.08893C7.12564 5.24521 6.91368 5.33301 6.69267 5.33301C6.47165 5.33301 6.25969 5.24521 6.10341 5.08893C5.94713 4.93265 5.85933 4.72069 5.85933 4.49967V3.23301C5.85933 3.01209 5.68025 2.83301 5.45933 2.83301H5.026C4.36296 2.83301 3.72707 3.0964 3.25823 3.56524C2.78939 4.03408 2.526 4.66997 2.526 5.33301C2.526 5.99605 2.78939 6.63193 3.25823 7.10077C3.72707 7.56962 4.36296 7.83301 5.026 7.83301H20.026C20.689 7.83301 21.3249 7.56962 21.7938 7.10077C22.2626 6.63193 22.526 5.99605 22.526 5.33301C22.526 4.66997 22.2626 4.03408 21.7938 3.56524C21.3249 3.0964 20.689 2.83301 20.026 2.83301Z" fill="url(#paint2_linear_309_377)"/>
<defs>
<linearGradient id="paint0_linear_309_377" x1="12.526" y1="21.167" x2="12.526" y2="16.167" gradientUnits="userSpaceOnUse">
<stop stop-color="#5570FF"/>
<stop offset="1" stop-color="#4DD3FF"/>
</linearGradient>
<linearGradient id="paint1_linear_309_377" x1="12.526" y1="14.5" x2="12.526" y2="9.5" gradientUnits="userSpaceOnUse">
<stop stop-color="#5570FF"/>
<stop offset="1" stop-color="#4DD3FF"/>
</linearGradient>
<linearGradient id="paint2_linear_309_377" x1="12.526" y1="7.83301" x2="12.526" y2="2.83301" gradientUnits="userSpaceOnUse">
<stop stop-color="#5570FF"/>
<stop offset="1" stop-color="#4DD3FF"/>
</linearGradient>
</defs>
</svg>
