<svg width="32" height="32" viewBox="0 0 32 32" fill="none" xmlns="http://www.w3.org/2000/svg">
<path opacity="0.4" d="M21.5076 1.01059C21.2264 1.01827 20.9466 1.02592 20.6721 1.0172C18.8771 1.00337 17.0835 1.00858 15.2904 1.0155C13.5354 1.00685 11.7821 1.00516 10.0288 1.01381C8.43285 1.0311 6.98907 2.44206 7.015 4.05183L7.01386 4.65624C7.00894 7.24714 7.00401 9.83826 7.01846 12.4291C7.00807 15.0314 7.00116 17.6339 7.02189 20.2362C7.00461 22.4148 7.00699 24.5952 7.01907 26.7757C6.9707 27.808 6.96547 28.9265 7.62253 29.7912C8.14471 30.3738 8.83112 30.808 9.60748 30.9532C12.1716 31.0043 14.7376 30.9985 17.3039 30.9926H17.304L17.4241 30.9923C19.0541 30.9886 20.6848 30.985 22.3146 30.9963C23.276 31.0448 24.1977 30.6159 24.8668 29.9398C25.3128 29.3776 25.6071 28.6793 25.6054 27.955C25.7397 27.2704 25.7279 26.5737 25.7156 25.8791C25.7132 25.7511 25.711 25.6224 25.7097 25.4945C25.7115 19.1537 25.7115 12.8131 25.7097 6.47423C25.7107 6.37681 25.7123 6.27929 25.7139 6.18169L25.7151 6.10231C25.7272 5.40353 25.7384 4.70238 25.6034 4.01372C25.5965 3.54861 25.4738 3.09036 25.2284 2.69441L25.2906 2.62354L25.2515 2.57521L25.2515 2.57519C24.8765 2.11283 24.4879 1.63373 23.9402 1.3682C23.1887 0.964666 22.3423 0.987788 21.5076 1.01059Z" fill="url(#paint0_linear_32_192)"/>
<path d="M11.5576 26.1178C11.5604 25.2341 12.4032 24.4894 13.2787 24.5791L14.0009 24.5772H14.0015C15.8481 24.5717 17.6929 24.5667 19.5376 24.5791C20.5762 24.5029 21.4463 25.6149 21.1309 26.6046C21.0059 27.2192 20.4593 27.6488 19.872 27.7928C17.569 27.7355 15.2662 27.7275 12.9633 27.7983C12.1639 27.6782 11.4951 26.9445 11.5576 26.1178Z" fill="url(#paint1_linear_32_192)"/>
<defs>
<linearGradient id="paint0_linear_32_192" x1="-0.616536" y1="-80.5165" x2="40.7454" y2="-81.4667" gradientUnits="userSpaceOnUse">
<stop stop-color="#A000D9"/>
<stop offset="1" stop-color="#FF38DC"/>
</linearGradient>
<linearGradient id="paint1_linear_32_192" x1="7.63077" y1="15.8033" x2="28.6902" y2="13.4868" gradientUnits="userSpaceOnUse">
<stop stop-color="#A000D9"/>
<stop offset="1" stop-color="#FF38DC"/>
</linearGradient>
</defs>
</svg>
