<svg width="32" height="32" viewBox="0 0 32 32" fill="none" xmlns="http://www.w3.org/2000/svg">
<path opacity="0.4" d="M28 2H4C2.89543 2 2 2.89543 2 4V28C2 29.1046 2.89543 30 4 30H28C29.1046 30 30 29.1046 30 28V4C30 2.89543 29.1046 2 28 2Z" fill="url(#paint0_linear_314_75)"/>
<path d="M12.7601 5.19629C11.9476 5.19629 11.1683 5.51908 10.5937 6.09366C10.0191 6.66824 9.69629 7.44754 9.69629 8.26009C9.69659 8.93909 9.92249 9.59879 10.3384 10.1355C10.5203 10.3703 10.7342 10.5757 10.9722 10.7467C11.4389 11.0821 11.9942 10.665 11.9942 10.0903C11.9942 9.77609 11.8104 9.49829 11.6042 9.26119C11.5405 9.18789 11.4836 9.10839 11.4345 9.02369C11.3001 8.79159 11.229 8.52829 11.2282 8.26009C11.2282 7.85383 11.3896 7.46418 11.6769 7.17689C11.9642 6.8896 12.3538 6.72821 12.7601 6.7282C12.9613 6.7282 13.1605 6.76781 13.3464 6.8448C13.5322 6.92179 13.7011 7.03462 13.8434 7.17687C13.9856 7.31912 14.0985 7.48801 14.1754 7.67387C14.2524 7.85973 14.2921 8.05895 14.2921 8.26009C14.2912 8.38819 14.3391 8.51509 14.4402 8.59379L14.6782 8.77889C15.1298 9.13009 15.797 8.94949 15.8209 8.37799C15.8226 8.33869 15.8235 8.29949 15.8236 8.26009C15.8236 7.85777 15.7444 7.45934 15.5904 7.08762C15.4364 6.7159 15.2107 6.37817 14.9262 6.09366C14.6417 5.80916 14.304 5.58348 13.9323 5.4295C13.5605 5.27553 13.1624 5.19629 12.7601 5.19629ZM14.3698 9.49419C13.7117 8.98969 12.7608 9.45919 12.7613 10.2884L12.7675 20.1947C12.768 21.1559 13.992 21.5628 14.568 20.7933L17.0561 17.4693C17.2449 17.2171 17.5416 17.0686 17.8567 17.0686H21.3017C22.2574 17.0686 22.6686 15.8564 21.9101 15.275L14.3698 9.49419Z" fill="url(#paint1_linear_314_75)"/>
<path fill-rule="evenodd" clip-rule="evenodd" d="M7 24.2344C6.44772 24.2344 6 24.6821 6 25.2344V27.0832C6 27.6354 6.44771 28.0832 7 28.0832H13.7284C14.2807 28.0832 14.7284 27.6354 14.7284 27.0832V25.2344C14.7284 24.6821 14.2807 24.2344 13.7284 24.2344H7ZM18.2716 24.2344C17.7193 24.2344 17.2716 24.6821 17.2716 25.2344V27.0832C17.2716 27.6354 17.7193 28.0832 18.2716 28.0832H25C25.5523 28.0832 26 27.6354 26 27.0832V25.2344C26 24.6821 25.5523 24.2344 25 24.2344H18.2716Z" fill="#D9D9D9"/>
<path fill-rule="evenodd" clip-rule="evenodd" d="M7 24.2344C6.44772 24.2344 6 24.6821 6 25.2344V27.0832C6 27.6354 6.44771 28.0832 7 28.0832H13.7284C14.2807 28.0832 14.7284 27.6354 14.7284 27.0832V25.2344C14.7284 24.6821 14.2807 24.2344 13.7284 24.2344H7ZM18.2716 24.2344C17.7193 24.2344 17.2716 24.6821 17.2716 25.2344V27.0832C17.2716 27.6354 17.7193 28.0832 18.2716 28.0832H25C25.5523 28.0832 26 27.6354 26 27.0832V25.2344C26 24.6821 25.5523 24.2344 25 24.2344H18.2716Z" fill="url(#paint2_linear_314_75)"/>
<defs>
<linearGradient id="paint0_linear_314_75" x1="16" y1="30" x2="16" y2="2" gradientUnits="userSpaceOnUse">
<stop stop-color="#00B59C"/>
<stop offset="1" stop-color="#9CFFAC"/>
</linearGradient>
<linearGradient id="paint1_linear_314_75" x1="16.973" y1="23.1963" x2="16.973" y2="5.19629" gradientUnits="userSpaceOnUse">
<stop stop-color="#02AA93"/>
<stop offset="1" stop-color="#67FF80"/>
</linearGradient>
<linearGradient id="paint2_linear_314_75" x1="22.3094" y1="28.5643" x2="22.3094" y2="24.2344" gradientUnits="userSpaceOnUse">
<stop stop-color="#02AA93"/>
<stop offset="1" stop-color="#67FF80"/>
</linearGradient>
</defs>
</svg>
