<svg width="24" height="24" viewBox="0 0 24 24" fill="none" xmlns="http://www.w3.org/2000/svg">
<path d="M17.6331 1.9669C16.6662 1 15.1108 1 12 1C8.88814 1 7.33274 1 6.36584 1.9669C6.03592 2.29683 5.81882 2.69585 5.67567 3.20208C5.51203 3.7808 6.01239 4.3038 6.6138 4.30124C6.90523 4.3 7.20826 4.3 7.52304 4.3H16.4792C16.7935 4.3 17.0962 4.3 17.3874 4.30124C17.9884 4.3038 18.4886 3.78142 18.3248 3.20314C18.1813 2.6964 17.9633 2.29706 17.6331 1.9669ZM17.6 15.85C18.1523 15.85 18.601 16.2985 18.5987 16.8507C18.5881 19.4154 18.4925 21.1747 17.6331 22.0331C16.6673 23 15.1108 23 12 23C8.88924 23 7.33274 23 6.36694 22.0331C5.50761 21.1747 5.41201 19.4154 5.40138 16.8507C5.39909 16.2985 5.84776 15.85 6.40004 15.85H17.6Z" fill="url(#paint0_linear_70_81)"/>
<path opacity="0.5" d="M16.4 5.40002H7.6C4.4892 5.40002 2.9327 5.40002 1.9669 6.36692C1 7.33272 1 8.88922 1 12C1 15.1108 1 16.6673 1.9669 17.6331C2.29737 17.9643 2.69701 18.1819 3.20466 18.3251C3.78739 18.4895 4.31149 17.9814 4.30516 17.3759C4.30144 17.0207 4.3004 16.653 4.30011 16.282C4.29993 16.0434 4.07978 15.8576 3.91109 15.6889C3.80795 15.5858 3.75 15.4459 3.75 15.3C3.75 15.1542 3.80795 15.0143 3.91109 14.9111C4.01424 14.808 4.15413 14.75 4.3 14.75H19.7C19.8459 14.75 19.9858 14.808 20.0889 14.9111C20.1921 15.0143 20.25 15.1542 20.25 15.3C20.25 15.4459 20.1921 15.5858 20.0889 15.6889C19.9202 15.8576 19.7001 16.0434 19.6999 16.282C19.6996 16.653 19.6986 17.0206 19.6948 17.3758C19.6885 17.9813 20.2127 18.4894 20.7954 18.325C21.303 18.1818 21.7032 17.9642 22.0342 17.6331C23 16.6673 23 15.1108 23 12C23 8.88922 23 7.33272 22.0331 6.36692C21.0673 5.40002 19.5108 5.40002 16.4 5.40002Z" fill="url(#paint1_linear_70_81)"/>
<path d="M8.69995 10.625C8.91875 10.625 9.1286 10.5381 9.28331 10.3834C9.43803 10.2287 9.52495 10.0188 9.52495 9.79998C9.52495 9.58118 9.43803 9.37134 9.28331 9.21662C9.1286 9.0619 8.91875 8.97498 8.69995 8.97498H5.39995C5.18115 8.97498 4.97131 9.0619 4.81659 9.21662C4.66187 9.37134 4.57495 9.58118 4.57495 9.79998C4.57495 10.0188 4.66187 10.2287 4.81659 10.3834C4.97131 10.5381 5.18115 10.625 5.39995 10.625H8.69995Z" fill="url(#paint2_linear_70_81)"/>
<path d="M19.4142 11.4142C19.7893 11.0391 20 10.5305 20 10C20 9.46956 19.7893 8.96085 19.4142 8.58578C19.0391 8.21071 18.5304 8 18 8C17.4695 8 16.9607 8.21071 16.5856 8.58578C16.2105 8.96085 16 9.46956 16 10C16 10.5305 16.2105 11.0391 16.5856 11.4142C16.9607 11.7893 17.4695 12 18 12C18.5304 12 19.0391 11.7893 19.4142 11.4142Z" fill="url(#paint3_linear_70_81)"/>
<defs>
<linearGradient id="paint0_linear_70_81" x1="12" y1="23" x2="12" y2="0.999999" gradientUnits="userSpaceOnUse">
<stop stop-color="#02AA93"/>
<stop offset="1" stop-color="#67FF80"/>
</linearGradient>
<linearGradient id="paint1_linear_70_81" x1="12" y1="18.3564" x2="12" y2="5.40002" gradientUnits="userSpaceOnUse">
<stop stop-color="#00B59C"/>
<stop offset="1" stop-color="#9CFFAC"/>
</linearGradient>
<linearGradient id="paint2_linear_70_81" x1="7.04995" y1="10.625" x2="7.04995" y2="8.97498" gradientUnits="userSpaceOnUse">
<stop stop-color="#02AA93"/>
<stop offset="1" stop-color="#67FF80"/>
</linearGradient>
<linearGradient id="paint3_linear_70_81" x1="18" y1="12" x2="18" y2="8" gradientUnits="userSpaceOnUse">
<stop stop-color="#E80058"/>
<stop offset="0.9997" stop-color="#FF001D"/>
<stop offset="0.9998" stop-color="#FF867E"/>
</linearGradient>
</defs>
</svg>
