<svg width="128" height="128" viewBox="0 0 128 128" fill="none" xmlns="http://www.w3.org/2000/svg">
<path opacity="0.4" d="M101 11H27C18.1634 11 11 18.1634 11 27V101C11 109.837 18.1634 117 27 117H101C109.837 117 117 109.837 117 101V27C117 18.1634 109.837 11 101 11Z" fill="url(#paint0_linear_70_89)"/>
<path fill-rule="evenodd" clip-rule="evenodd" d="M86.0014 22.924C86.0005 22.9785 86.0041 23.0323 86.0112 23.0863C86.0624 23.479 86.0732 23.8932 86.0841 24.3113C86.1072 25.1997 86.1307 26.1055 86.5442 26.8598C86.6729 27.0946 86.9238 27.227 87.1901 27.2549C89.7477 27.5227 92.3411 27.5453 94.8915 27.2321C95.1273 27.2032 95.3511 27.092 95.4795 26.8921C95.9963 26.0876 95.9639 25.0502 95.9323 24.0376C95.9161 23.5188 95.9001 23.0066 95.9583 22.5355C95.9578 22.4941 95.9574 22.4525 95.9569 22.4107C95.9422 20.9606 95.9248 19.2507 94.5193 18.4475C94.4581 18.4125 94.3915 18.3868 94.3234 18.3689C92.3532 17.8494 90.255 17.9555 88.2578 18.2183C86.0771 18.6151 86.033 21.1268 86.0018 22.8966L86.0014 22.924ZM87.2142 34.4147C86.7529 34.4481 86.3783 34.8003 86.3251 35.2598C86.0675 37.4853 86.096 39.7354 86.1243 41.9704C86.1261 42.1081 86.1278 42.2458 86.1295 42.3834C86.1874 48.4449 86.1845 54.5094 86.1817 60.5736C86.1779 68.7695 86.1741 76.965 86.3201 85.1527C86.3219 85.2537 86.3388 85.3538 86.3713 85.4495C87.2302 87.9745 88.5881 90.3821 90.2068 92.5176C90.4332 92.8163 90.8116 92.9545 91.1799 92.8852C91.3231 92.8583 91.4704 92.8309 91.6089 92.8054C91.8929 92.7531 92.1413 92.5827 92.2939 92.3376C92.5348 91.9507 92.7855 91.5621 93.0379 91.1707C94.6617 88.6535 96.362 86.0176 96.0548 82.9317C96.0314 76.4366 96.0136 69.9415 95.9957 63.4464C95.9772 56.6981 95.9587 49.9498 95.9339 43.2016C95.926 42.4851 95.9361 41.7663 95.9462 41.0468C95.9737 39.0772 96.0013 37.1028 95.6615 35.1602C95.5853 34.7245 95.2127 34.4082 94.7711 34.3832C92.2551 34.2408 89.7297 34.2327 87.2142 34.4147Z" fill="url(#paint1_linear_70_89)"/>
<path d="M86.0112 23.0863L87.9943 22.8274L87.9941 22.8256L86.0112 23.0863ZM86.0014 22.924L84.0017 22.8888L84.0016 22.891L86.0014 22.924ZM86.0841 24.3113L84.0847 24.3633L84.0847 24.3633L86.0841 24.3113ZM86.5442 26.8598L88.2981 25.8985L88.298 25.8983L86.5442 26.8598ZM87.1901 27.2549L86.9817 29.244L86.9818 29.244L87.1901 27.2549ZM94.8915 27.2321L94.6482 25.247L94.6477 25.247L94.8915 27.2321ZM95.4795 26.8921L93.7968 25.811L93.7967 25.8112L95.4795 26.8921ZM95.9323 24.0376L97.9313 23.9752L97.9313 23.9752L95.9323 24.0376ZM95.9583 22.5355L97.9432 22.7806L97.9596 22.6476L97.9581 22.5136L95.9583 22.5355ZM95.9569 22.4107L93.9571 22.431L93.9571 22.431L95.9569 22.4107ZM94.5193 18.4475L93.5264 20.1836L93.5269 20.184L94.5193 18.4475ZM94.3234 18.3689L93.8134 20.3028L93.8149 20.3032L94.3234 18.3689ZM88.2578 18.2183L87.9969 16.2354L87.9482 16.2418L87.8999 16.2506L88.2578 18.2183ZM86.0018 22.8966L88.0015 22.9318L88.0015 22.9318L86.0018 22.8966ZM86.3251 35.2598L84.3384 35.0297L84.3384 35.0298L86.3251 35.2598ZM87.2142 34.4147L87.0699 32.4199L87.0698 32.4199L87.2142 34.4147ZM86.1243 41.9704L88.1242 41.9451L88.1242 41.9451L86.1243 41.9704ZM86.1295 42.3834L88.1294 42.3643L88.1293 42.359L86.1295 42.3834ZM86.1817 60.5736L84.1817 60.5727L86.1817 60.5736ZM86.3201 85.1527L88.3198 85.117L88.3198 85.117L86.3201 85.1527ZM86.3713 85.4495L84.4775 86.0926L84.4778 86.0935L86.3713 85.4495ZM90.2068 92.5176L91.8007 91.3095L91.8007 91.3094L90.2068 92.5176ZM91.1799 92.8852L90.8106 90.9195L90.8101 90.9197L91.1799 92.8852ZM91.6089 92.8054L91.971 94.7723L91.9712 94.7723L91.6089 92.8054ZM92.2939 92.3376L90.5962 91.2803L90.5961 91.2805L92.2939 92.3376ZM93.0379 91.1707L91.3573 90.0866L91.3573 90.0866L93.0379 91.1707ZM96.0548 82.9317L94.0548 82.9389L94.0552 83.0346L94.0646 83.1298L96.0548 82.9317ZM95.9957 63.4464L93.9957 63.4519L93.9957 63.4519L95.9957 63.4464ZM95.9339 43.2016L97.9339 43.1942L97.9339 43.1869L97.9338 43.1796L95.9339 43.2016ZM95.9462 41.0468L93.9463 41.0188L93.9463 41.0188L95.9462 41.0468ZM95.6615 35.1602L93.6914 35.5047L93.6914 35.5048L95.6615 35.1602ZM94.7711 34.3832L94.8841 32.3864L94.8841 32.3864L94.7711 34.3832ZM87.9941 22.8256C87.9981 22.8559 88.002 22.901 88.0011 22.957L84.0016 22.891C83.9989 23.056 84.01 23.2087 84.0282 23.347L87.9941 22.8256ZM88.0834 24.2593C88.0731 23.8624 88.0614 23.3416 87.9943 22.8274L84.028 23.3452C84.0634 23.6165 84.0733 23.9241 84.0847 24.3633L88.0834 24.2593ZM88.298 25.8983C88.1593 25.6454 88.1094 25.258 88.0834 24.2593L84.0847 24.3633C84.105 25.1414 84.1022 26.5657 84.7905 27.8213L88.298 25.8983ZM87.3985 25.2658C87.6111 25.2881 88.0359 25.4202 88.2981 25.8985L84.7904 27.8211C85.31 28.769 86.2364 29.1659 86.9817 29.244L87.3985 25.2658ZM94.6477 25.247C92.2701 25.539 89.8303 25.5204 87.3983 25.2658L86.9818 29.244C89.665 29.525 92.412 29.5516 95.1352 29.2172L94.6477 25.247ZM93.7967 25.8112C94.0702 25.3854 94.4592 25.2701 94.6482 25.247L95.1348 29.2172C95.7954 29.1363 96.6319 28.7986 97.1622 27.973L93.7967 25.8112ZM93.9333 24.1001C93.95 24.6343 93.9581 25.0044 93.9231 25.3281C93.8902 25.6327 93.83 25.7593 93.7968 25.811L97.1621 27.9732C98.0777 26.5481 97.9578 24.823 97.9313 23.9752L93.9333 24.1001ZM93.9733 22.2904C93.8927 22.9432 93.9182 23.6167 93.9333 24.1001L97.9313 23.9752C97.914 23.421 97.9075 23.0699 97.9432 22.7806L93.9733 22.2904ZM93.9571 22.431C93.9575 22.4727 93.9579 22.5151 93.9584 22.5574L97.9581 22.5136C97.9577 22.4731 97.9573 22.4323 97.9568 22.3904L93.9571 22.431ZM93.5269 20.184C93.6241 20.2395 93.7302 20.3242 93.8224 20.6834C93.9333 21.1161 93.9492 21.6553 93.9571 22.431L97.9568 22.3904C97.95 21.7161 97.9497 20.6752 97.6969 19.6896C97.4253 18.6306 96.82 17.4588 95.5116 16.711L93.5269 20.184ZM93.8149 20.3032C93.7407 20.2837 93.6399 20.2486 93.5264 20.1836L95.5121 16.7114C95.2762 16.5765 95.0422 16.4899 94.8318 16.4346L93.8149 20.3032ZM88.5188 20.2012C90.4376 19.9487 92.2245 19.8838 93.8134 20.3028L94.8333 16.435C92.4818 15.815 90.0725 15.9623 87.9969 16.2354L88.5188 20.2012ZM88.0015 22.9318C88.0183 21.9803 88.0472 21.2192 88.2286 20.652C88.3093 20.3999 88.3887 20.2978 88.421 20.2648C88.4312 20.2543 88.4629 20.2138 88.6158 20.186L87.8999 16.2506C85.8624 16.6213 84.854 18.0729 84.4188 19.4332C84.0253 20.6634 84.0165 22.0431 84.0021 22.8615L88.0015 22.9318ZM88.001 22.9592L88.0015 22.9318L84.0021 22.8614L84.0017 22.8888L88.001 22.9592ZM88.3118 35.4898C88.2524 36.0035 87.8366 36.3748 87.3586 36.4094L87.0698 32.4199C85.6692 32.5213 84.5042 33.5971 84.3384 35.0297L88.3118 35.4898ZM88.1242 41.9451C88.0956 39.6883 88.0714 37.5668 88.3118 35.4897L84.3384 35.0298C84.0635 37.4039 84.0964 39.7826 84.1245 41.9958L88.1242 41.9451ZM88.1293 42.359C88.1277 42.2208 88.1259 42.0827 88.1242 41.9451L84.1245 41.9958C84.1262 42.1336 84.128 42.2707 84.1296 42.4077L88.1293 42.359ZM88.1817 60.5746C88.1845 54.512 88.1874 48.4375 88.1294 42.3643L84.1296 42.4025C84.1874 48.4523 84.1845 54.5067 84.1817 60.5727L88.1817 60.5746ZM88.3198 85.117C88.1741 76.9507 88.1779 68.7735 88.1817 60.5746L84.1817 60.5727C84.1779 68.7655 84.174 76.9794 84.3204 85.1883L88.3198 85.117ZM88.2651 84.8064C88.3014 84.9132 88.318 85.0185 88.3198 85.117L84.3204 85.1883C84.3258 85.4888 84.3762 85.7943 84.4775 86.0926L88.2651 84.8064ZM91.8007 91.3094C90.2891 89.3153 89.0437 87.0953 88.2647 84.8054L84.4778 86.0935C85.4167 88.8536 86.8871 91.4488 88.6129 93.7257L91.8007 91.3094ZM90.8101 90.9197C91.1559 90.8546 91.5502 90.979 91.8007 91.3095L88.6129 93.7257C89.3162 94.6535 90.4673 95.0543 91.5497 94.8507L90.8101 90.9197ZM91.2468 90.8384C91.1058 90.8644 90.9561 90.8922 90.8106 90.9195L91.5492 94.8508C91.6901 94.8243 91.835 94.7973 91.971 94.7723L91.2468 90.8384ZM90.5961 91.2805C90.7382 91.0522 90.9724 90.8889 91.2466 90.8384L91.9712 94.7723C92.8134 94.6172 93.5444 94.1132 93.9917 93.3946L90.5961 91.2805ZM91.3573 90.0866C91.1063 90.4756 90.847 90.8776 90.5962 91.2803L93.9916 93.3948C94.2227 93.0237 94.4646 92.6487 94.7186 92.2549L91.3573 90.0866ZM94.0646 83.1298C94.2909 85.4027 93.0636 87.4415 91.3573 90.0866L94.7186 92.2549C96.2598 89.8656 98.4331 86.6326 98.045 82.7335L94.0646 83.1298ZM93.9957 63.4519C94.0136 69.9468 94.0314 76.4428 94.0548 82.9389L98.0548 82.9245C98.0314 76.4304 98.0136 69.9361 97.9957 63.4409L93.9957 63.4519ZM93.9339 43.2089C93.9587 49.9561 93.9772 56.7035 93.9957 63.4519L97.9957 63.4409C97.9772 56.6928 97.9586 49.9436 97.9339 43.1942L93.9339 43.2089ZM93.9463 41.0188C93.9363 41.7341 93.9258 42.4779 93.934 43.2235L97.9338 43.1796C97.9262 42.4923 97.9358 41.7985 97.946 41.0748L93.9463 41.0188ZM93.6914 35.5048C93.9935 37.2317 93.9744 39.0171 93.9463 41.0188L97.946 41.0748C97.9731 39.1373 98.0092 36.974 97.6316 34.8155L93.6914 35.5048ZM94.6581 36.38C94.2186 36.3551 93.7832 36.0295 93.6914 35.5047L97.6316 34.8156C97.3874 33.4194 96.2068 32.4612 94.8841 32.3864L94.6581 36.38ZM87.3585 36.4094C89.7743 36.2347 92.2124 36.2415 94.6581 36.38L94.8841 32.3864C92.2977 32.24 89.6851 32.2307 87.0699 32.4199L87.3585 36.4094Z" fill="url(#paint2_linear_70_89)"/>
<defs>
<linearGradient id="paint0_linear_70_89" x1="64" y1="117" x2="64" y2="11" gradientUnits="userSpaceOnUse">
<stop stop-color="#00B59C"/>
<stop offset="1" stop-color="#9CFFAC"/>
</linearGradient>
<linearGradient id="paint1_linear_70_89" x1="91.0461" y1="92.9027" x2="91.0461" y2="18" gradientUnits="userSpaceOnUse">
<stop stop-color="#02AA93"/>
<stop offset="1" stop-color="#67FF80"/>
</linearGradient>
<linearGradient id="paint2_linear_70_89" x1="91.0461" y1="92.9027" x2="91.0461" y2="18" gradientUnits="userSpaceOnUse">
<stop stop-color="#02AA93"/>
<stop offset="1" stop-color="#67FF80"/>
</linearGradient>
</defs>
</svg>
