<svg width="24" height="24" viewBox="0 0 24 24" fill="none" xmlns="http://www.w3.org/2000/svg">
<path fill-rule="evenodd" clip-rule="evenodd" d="M16.4 5.12537H7.6C4.4892 5.12537 2.9327 5.12537 1.9669 6.09227C1 7.05807 1 8.61457 1 11.7254V16.1254C1 19.2362 1 20.7927 1.9669 21.7585C2.9327 22.7254 4.4892 22.7254 7.6 22.7254H16.4V5.12537Z" fill="url(#paint0_linear_37_414)"/>
<path opacity="0.4" d="M23 11.7254V16.1254C23 19.2362 23 20.7916 22.0331 21.7585C21.1256 22.666 19.6978 22.7221 16.95 22.7254H16.4V5.1254H16.95C19.6978 5.1287 21.1256 5.1837 22.0331 6.0912C23 7.0592 23 8.6135 23 11.7254ZM13.5576 5.1254L15.9259 2.3622C16.0599 2.19519 16.1238 1.9826 16.104 1.76936C16.0841 1.55612 15.9822 1.35896 15.8196 1.21954C15.657 1.08012 15.4466 1.00937 15.2329 1.02226C15.0191 1.03515 14.8187 1.13066 14.6741 1.2886L12 4.4082L9.32697 1.2886C9.18461 1.12231 8.98201 1.01939 8.76375 1.00247C8.5455 0.985554 8.32946 1.05603 8.16317 1.1984C7.99688 1.34077 7.89396 1.54336 7.87704 1.76162C7.86013 1.97987 7.93061 2.19591 8.07297 2.3622L10.4435 5.1254H13.5576Z" fill="url(#paint1_linear_37_414)"/>
<path d="M19.7 10.6254C19.9917 10.6254 20.2715 10.7413 20.4778 10.9475C20.6841 11.1538 20.8 11.4336 20.8 11.7254C20.8 12.0171 20.6841 12.2969 20.4778 12.5032C20.2715 12.7095 19.9917 12.8254 19.7 12.8254C19.4082 12.8254 19.1284 12.7095 18.9222 12.5032C18.7159 12.2969 18.6 12.0171 18.6 11.7254C18.6 11.4336 18.7159 11.1538 18.9222 10.9475C19.1284 10.7413 19.4082 10.6254 19.7 10.6254ZM19.7 15.0254C19.9917 15.0254 20.2715 15.1413 20.4778 15.3475C20.6841 15.5538 20.8 15.8336 20.8 16.1254C20.8 16.4171 20.6841 16.6969 20.4778 16.9032C20.2715 17.1095 19.9917 17.2254 19.7 17.2254C19.4082 17.2254 19.1284 17.1095 18.9222 16.9032C18.7159 16.6969 18.6 16.4171 18.6 16.1254C18.6 15.8336 18.7159 15.5538 18.9222 15.3475C19.1284 15.1413 19.4082 15.0254 19.7 15.0254Z" fill="url(#paint2_linear_37_414)"/>
<defs>
<linearGradient id="paint0_linear_37_414" x1="8.7" y1="5.12537" x2="8.7" y2="22.7254" gradientUnits="userSpaceOnUse">
<stop stop-color="#FCBC18"/>
<stop offset="1" stop-color="#FF6F1E"/>
</linearGradient>
<linearGradient id="paint1_linear_37_414" x1="15.4373" y1="1" x2="15.4373" y2="22.7254" gradientUnits="userSpaceOnUse">
<stop stop-color="#FCBC18"/>
<stop offset="1" stop-color="#FF6F1E"/>
</linearGradient>
<linearGradient id="paint2_linear_37_414" x1="19.7" y1="10.6254" x2="19.7" y2="17.2254" gradientUnits="userSpaceOnUse">
<stop stop-color="#FCBC18"/>
<stop offset="1" stop-color="#FF6F1E"/>
</linearGradient>
</defs>
</svg>
