<svg width="24" height="24" viewBox="0 0 24 24" fill="none" xmlns="http://www.w3.org/2000/svg">
<g opacity="0.4">
<path d="M5.71429 4H12H18.2857C20.5077 4 21.6195 4 22.3094 4.83674C23 5.67253 23 7.0195 23 9.71154V13.5192C23 16.2113 23 17.5582 22.3094 18.394C21.6195 19.2308 20.5077 19.2308 18.2857 19.2308H12H5.71429H5.71428C3.49228 19.2308 2.3805 19.2308 1.69064 18.394C1 17.5582 1 16.2113 1 13.5192V9.71154C1 7.0195 1 5.67253 1.69064 4.83674C2.3805 4 3.49229 4 5.71429 4Z" fill="url(#paint0_linear_37_414)"/>
</g>
<path d="M19.7 8.6254C19.9917 8.6254 20.2715 8.74129 20.4778 8.94758C20.6841 9.15387 20.8 9.43366 20.8 9.7254C20.8 10.0171 20.6841 10.2969 20.4778 10.5032C20.2715 10.7095 19.9917 10.8254 19.7 10.8254C19.4082 10.8254 19.1284 10.7095 18.9222 10.5032C18.7159 10.2969 18.6 10.0171 18.6 9.7254C18.6 9.43366 18.7159 9.15387 18.9222 8.94758C19.1284 8.74129 19.4082 8.6254 19.7 8.6254ZM19.7 13.0254C19.9917 13.0254 20.2715 13.1413 20.4778 13.3476C20.6841 13.5539 20.8 13.8337 20.8 14.1254C20.8 14.4171 20.6841 14.6969 20.4778 14.9032C20.2715 15.1095 19.9917 15.2254 19.7 15.2254C19.4082 15.2254 19.1284 15.1095 18.9222 14.9032C18.7159 14.6969 18.6 14.4171 18.6 14.1254C18.6 13.8337 18.7159 13.5539 18.9222 13.3476C19.1284 13.1413 19.4082 13.0254 19.7 13.0254Z" fill="url(#paint1_linear_37_414)"/>
<path d="M19.7 8.6254C19.9917 8.6254 20.2715 8.74129 20.4778 8.94758C20.6841 9.15387 20.8 9.43366 20.8 9.7254C20.8 10.0171 20.6841 10.2969 20.4778 10.5032C20.2715 10.7095 19.9917 10.8254 19.7 10.8254C19.4082 10.8254 19.1284 10.7095 18.9222 10.5032C18.7159 10.2969 18.6 10.0171 18.6 9.7254C18.6 9.43366 18.7159 9.15387 18.9222 8.94758C19.1284 8.74129 19.4082 8.6254 19.7 8.6254ZM19.7 13.0254C19.9917 13.0254 20.2715 13.1413 20.4778 13.3476C20.6841 13.5539 20.8 13.8337 20.8 14.1254C20.8 14.4171 20.6841 14.6969 20.4778 14.9032C20.2715 15.1095 19.9917 15.2254 19.7 15.2254C19.4082 15.2254 19.1284 15.1095 18.9222 14.9032C18.7159 14.6969 18.6 14.4171 18.6 14.1254C18.6 13.8337 18.7159 13.5539 18.9222 13.3476C19.1284 13.1413 19.4082 13.0254 19.7 13.0254Z" fill="url(#paint2_linear_37_414)"/>
<path d="M12.6667 12.0049C12.6667 12.2576 12.5909 12.5113 12.4394 12.7145C12.411 12.7543 12.2784 12.9186 12.1742 13.0255L12.1174 13.0838C11.322 13.9694 9.3428 15.3011 8.33901 15.7278C8.33901 15.7375 7.74242 15.9913 7.45833 16H7.42045C6.98485 16 6.57765 15.7482 6.36932 15.34C6.25568 15.1154 6.15152 14.4642 6.14205 14.4554C6.05682 13.8712 6 12.9769 6 11.9951C6 10.9657 6.05682 10.0316 6.16098 9.45808C6.16098 9.44836 6.26515 8.92345 6.33144 8.74848C6.43561 8.49672 6.625 8.2819 6.86174 8.14581C7.05114 8.04957 7.25 8 7.45833 8C7.67614 8.01069 8.08333 8.15553 8.24432 8.22357C9.30492 8.65128 11.3314 10.051 12.108 10.9064C12.2405 11.0425 12.3826 11.2087 12.4205 11.2467C12.5814 11.4605 12.6667 11.723 12.6667 12.0049" fill="url(#paint3_linear_37_414)"/>
<defs>
<linearGradient id="paint0_linear_37_414" x1="12" y1="4" x2="12" y2="19.2308" gradientUnits="userSpaceOnUse">
<stop stop-color="#FCBC18"/>
<stop offset="1" stop-color="#FF6F1E"/>
</linearGradient>
<linearGradient id="paint1_linear_37_414" x1="19.7" y1="8.6254" x2="19.7" y2="15.2254" gradientUnits="userSpaceOnUse">
<stop stop-color="#FCBC18"/>
<stop offset="1" stop-color="#FF6F1E"/>
</linearGradient>
<linearGradient id="paint2_linear_37_414" x1="19.7" y1="8.6254" x2="19.7" y2="15.2254" gradientUnits="userSpaceOnUse">
<stop stop-color="#FCBC18"/>
<stop offset="1" stop-color="#FF6F1E"/>
</linearGradient>
<linearGradient id="paint3_linear_37_414" x1="9.33333" y1="8" x2="9.33333" y2="16" gradientUnits="userSpaceOnUse">
<stop stop-color="#FCBC18"/>
<stop offset="1" stop-color="#FF6F1E"/>
</linearGradient>
</defs>
</svg>
