<?xml version="1.0" encoding="UTF-8" standalone="no"?>
<svg
   width="165"
   height="165"
   viewBox="0 0 165 165"
   fill="none"
   version="1.1"
   id="svg46"
   sodipodi:docname="folder-sign.svg"
   inkscape:version="1.3.2 (091e20ef0f, 2023-11-25)"
   xmlns:inkscape="http://www.inkscape.org/namespaces/inkscape"
   xmlns:sodipodi="http://sodipodi.sourceforge.net/DTD/sodipodi-0.dtd"
   xmlns:xlink="http://www.w3.org/1999/xlink"
   xmlns="http://www.w3.org/2000/svg"
   xmlns:svg="http://www.w3.org/2000/svg">
  <sodipodi:namedview
     id="namedview46"
     pagecolor="#ffffff"
     bordercolor="#000000"
     borderopacity="0.25"
     inkscape:showpageshadow="2"
     inkscape:pageopacity="0.0"
     inkscape:pagecheckerboard="0"
     inkscape:deskcolor="#d1d1d1"
     inkscape:zoom="1.9870466"
     inkscape:cx="8.5554108"
     inkscape:cy="99.142114"
     inkscape:window-width="1920"
     inkscape:window-height="996"
     inkscape:window-x="0"
     inkscape:window-y="0"
     inkscape:window-maximized="1"
     inkscape:current-layer="svg46" />
  <g
     id="g1"
     transform="matrix(0.71428571,0,0,0.71428571,19.857143,11.142857)">
    <rect
       x="30"
       y="43"
       width="144"
       height="144"
       rx="15"
       fill="url(#paint0_linear_77:23)"
       shape-rendering="crispEdges"
       id="rect1"
       style="fill:url(#paint0_linear_77:23)" />
  </g>
  <g
     id="g5"
     transform="matrix(0.71428571,0,0,0.71428571,19.857143,11.142857)">
    <rect
       x="4"
       y="19"
       width="155"
       height="155"
       rx="15"
       style="fill:url(#linearGradient2);fill-opacity:0.55664998"
       id="rect2" />
    <rect
       x="4.5"
       y="19.079599"
       width="154"
       height="154"
       rx="14.5"
       stroke="url(#paint4_linear_77:23)"
       shape-rendering="crispEdges"
       id="rect5"
       style="fill:#ffffff;fill-opacity:0.09931507;stroke:url(#paint4_linear_77:23)"
       ry="14.5" />
  </g>
  <g
     filter="url(#filter8_d_77:23)"
     id="g12"
     transform="matrix(0.71428571,0,0,0.71428571,19.857143,11.142857)">
    <path
       d="M -186.34577,-52.570798 H -35.345767"
       stroke="url(#paint5_linear_77:23)"
       stroke-opacity="0.7"
       stroke-width="4"
       stroke-linecap="round"
       shape-rendering="crispEdges"
       id="path11"
       style="stroke:url(#paint5_linear_77:23)" />
  </g>
  <defs
     id="defs46">
    <filter
       id="filter0_df_77:23"
       x="26"
       y="41"
       width="152"
       height="152"
       filterUnits="userSpaceOnUse"
       color-interpolation-filters="sRGB">
      <feFlood
         flood-opacity="0"
         result="BackgroundImageFix"
         id="feFlood12" />
      <feColorMatrix
         in="SourceAlpha"
         type="matrix"
         values="0 0 0 0 0 0 0 0 0 0 0 0 0 0 0 0 0 0 127 0"
         result="hardAlpha"
         id="feColorMatrix12" />
      <feOffset
         dy="2"
         id="feOffset12" />
      <feGaussianBlur
         stdDeviation="2"
         id="feGaussianBlur12" />
      <feComposite
         in2="hardAlpha"
         operator="out"
         id="feComposite12" />
      <feColorMatrix
         type="matrix"
         values="0 0 0 0 0.298039 0 0 0 0 0.454902 0 0 0 0 1 0 0 0 0.25 0"
         id="feColorMatrix13" />
      <feBlend
         mode="normal"
         in2="BackgroundImageFix"
         result="effect1_dropShadow_77:23"
         id="feBlend13" />
      <feBlend
         mode="normal"
         in="SourceGraphic"
         in2="effect1_dropShadow_77:23"
         result="shape"
         id="feBlend14" />
      <feGaussianBlur
         stdDeviation="0.5"
         result="effect2_foregroundBlur_77:23"
         id="feGaussianBlur14" />
    </filter>
    <filter
       id="filter1_bdi_77:23"
       x="-4"
       y="11"
       width="171"
       height="171"
       filterUnits="userSpaceOnUse"
       color-interpolation-filters="sRGB">
      <feFlood
         flood-opacity="0"
         result="BackgroundImageFix"
         id="feFlood14" />
      <feGaussianBlur
         in="BackgroundImage"
         stdDeviation="0.0058679415"
         id="feGaussianBlur15" />
      <feComposite
         in2="SourceAlpha"
         operator="in"
         result="effect1_backgroundBlur_77:23"
         id="feComposite15" />
      <feColorMatrix
         in="SourceAlpha"
         type="matrix"
         values="0 0 0 0 0 0 0 0 0 0 0 0 0 0 0 0 0 0 127 0"
         result="hardAlpha"
         id="feColorMatrix15" />
      <feOffset
         dy="2"
         id="feOffset15" />
      <feGaussianBlur
         stdDeviation="2"
         id="feGaussianBlur16" />
      <feComposite
         in2="hardAlpha"
         operator="out"
         id="feComposite16" />
      <feColorMatrix
         type="matrix"
         values="0 0 0 0 0.298039 0 0 0 0 0.454902 0 0 0 0 1 0 0 0 0.25 0"
         id="feColorMatrix16" />
      <feBlend
         mode="normal"
         in2="effect1_backgroundBlur_77:23"
         result="effect2_dropShadow_77:23"
         id="feBlend16" />
      <feBlend
         mode="normal"
         in="SourceGraphic"
         in2="effect2_dropShadow_77:23"
         result="shape"
         id="feBlend17" />
      <feColorMatrix
         in="SourceAlpha"
         type="matrix"
         values="0 0 0 0 0 0 0 0 0 0 0 0 0 0 0 0 0 0 127 0"
         result="hardAlpha"
         id="feColorMatrix17" />
      <feOffset
         dy="4"
         id="feOffset17" />
      <feGaussianBlur
         stdDeviation="5"
         id="feGaussianBlur17" />
      <feComposite
         in2="hardAlpha"
         operator="arithmetic"
         k2="-1"
         k3="1"
         id="feComposite17"
         k1="0"
         k4="0" />
      <feColorMatrix
         type="matrix"
         values="0 0 0 0 0.298039 0 0 0 0 0.454902 0 0 0 0 1 0 0 0 0.25 0"
         id="feColorMatrix18" />
      <feBlend
         mode="normal"
         in2="shape"
         result="effect3_innerShadow_77:23"
         id="feBlend18" />
    </filter>
    <filter
       id="filter2_d_77:23"
       x="27"
       y="80"
       width="30"
       height="30"
       filterUnits="userSpaceOnUse"
       color-interpolation-filters="sRGB">
      <feFlood
         flood-opacity="0"
         result="BackgroundImageFix"
         id="feFlood18" />
      <feColorMatrix
         in="SourceAlpha"
         type="matrix"
         values="0 0 0 0 0 0 0 0 0 0 0 0 0 0 0 0 0 0 127 0"
         result="hardAlpha"
         id="feColorMatrix19" />
      <feOffset
         dy="2"
         id="feOffset19" />
      <feGaussianBlur
         stdDeviation="2"
         id="feGaussianBlur19" />
      <feComposite
         in2="hardAlpha"
         operator="out"
         id="feComposite19" />
      <feColorMatrix
         type="matrix"
         values="0 0 0 0 0.298039 0 0 0 0 0.454902 0 0 0 0 1 0 0 0 0.25 0"
         id="feColorMatrix20" />
      <feBlend
         mode="normal"
         in2="BackgroundImageFix"
         result="effect1_dropShadow_77:23"
         id="feBlend20" />
      <feBlend
         mode="normal"
         in="SourceGraphic"
         in2="effect1_dropShadow_77:23"
         result="shape"
         id="feBlend21" />
    </filter>
    <filter
       id="filter3_d_77:23"
       x="27"
       y="119"
       width="30"
       height="31"
       filterUnits="userSpaceOnUse"
       color-interpolation-filters="sRGB">
      <feFlood
         flood-opacity="0"
         result="BackgroundImageFix"
         id="feFlood21" />
      <feColorMatrix
         in="SourceAlpha"
         type="matrix"
         values="0 0 0 0 0 0 0 0 0 0 0 0 0 0 0 0 0 0 127 0"
         result="hardAlpha"
         id="feColorMatrix21" />
      <feOffset
         dy="2"
         id="feOffset21" />
      <feGaussianBlur
         stdDeviation="2"
         id="feGaussianBlur21" />
      <feComposite
         in2="hardAlpha"
         operator="out"
         id="feComposite21" />
      <feColorMatrix
         type="matrix"
         values="0 0 0 0 0.298039 0 0 0 0 0.454902 0 0 0 0 1 0 0 0 0.25 0"
         id="feColorMatrix22" />
      <feBlend
         mode="normal"
         in2="BackgroundImageFix"
         result="effect1_dropShadow_77:23"
         id="feBlend22" />
      <feBlend
         mode="normal"
         in="SourceGraphic"
         in2="effect1_dropShadow_77:23"
         result="shape"
         id="feBlend23" />
    </filter>
    <filter
       id="filter4_d_77:23"
       x="67"
       y="80"
       width="30"
       height="30"
       filterUnits="userSpaceOnUse"
       color-interpolation-filters="sRGB">
      <feFlood
         flood-opacity="0"
         result="BackgroundImageFix"
         id="feFlood23" />
      <feColorMatrix
         in="SourceAlpha"
         type="matrix"
         values="0 0 0 0 0 0 0 0 0 0 0 0 0 0 0 0 0 0 127 0"
         result="hardAlpha"
         id="feColorMatrix23" />
      <feOffset
         dy="2"
         id="feOffset23" />
      <feGaussianBlur
         stdDeviation="2"
         id="feGaussianBlur23" />
      <feComposite
         in2="hardAlpha"
         operator="out"
         id="feComposite23" />
      <feColorMatrix
         type="matrix"
         values="0 0 0 0 0.298039 0 0 0 0 0.454902 0 0 0 0 1 0 0 0 0.25 0"
         id="feColorMatrix24" />
      <feBlend
         mode="normal"
         in2="BackgroundImageFix"
         result="effect1_dropShadow_77:23"
         id="feBlend24" />
      <feBlend
         mode="normal"
         in="SourceGraphic"
         in2="effect1_dropShadow_77:23"
         result="shape"
         id="feBlend25" />
    </filter>
    <filter
       id="filter5_d_77:23"
       x="67"
       y="119"
       width="30"
       height="31"
       filterUnits="userSpaceOnUse"
       color-interpolation-filters="sRGB">
      <feFlood
         flood-opacity="0"
         result="BackgroundImageFix"
         id="feFlood25" />
      <feColorMatrix
         in="SourceAlpha"
         type="matrix"
         values="0 0 0 0 0 0 0 0 0 0 0 0 0 0 0 0 0 0 127 0"
         result="hardAlpha"
         id="feColorMatrix25" />
      <feOffset
         dy="2"
         id="feOffset25" />
      <feGaussianBlur
         stdDeviation="2"
         id="feGaussianBlur25" />
      <feComposite
         in2="hardAlpha"
         operator="out"
         id="feComposite25" />
      <feColorMatrix
         type="matrix"
         values="0 0 0 0 0.298039 0 0 0 0 0.454902 0 0 0 0 1 0 0 0 0.25 0"
         id="feColorMatrix26" />
      <feBlend
         mode="normal"
         in2="BackgroundImageFix"
         result="effect1_dropShadow_77:23"
         id="feBlend26" />
      <feBlend
         mode="normal"
         in="SourceGraphic"
         in2="effect1_dropShadow_77:23"
         result="shape"
         id="feBlend27" />
    </filter>
    <filter
       id="filter6_d_77:23"
       x="107"
       y="80"
       width="30"
       height="30"
       filterUnits="userSpaceOnUse"
       color-interpolation-filters="sRGB">
      <feFlood
         flood-opacity="0"
         result="BackgroundImageFix"
         id="feFlood27" />
      <feColorMatrix
         in="SourceAlpha"
         type="matrix"
         values="0 0 0 0 0 0 0 0 0 0 0 0 0 0 0 0 0 0 127 0"
         result="hardAlpha"
         id="feColorMatrix27" />
      <feOffset
         dy="2"
         id="feOffset27" />
      <feGaussianBlur
         stdDeviation="2"
         id="feGaussianBlur27" />
      <feComposite
         in2="hardAlpha"
         operator="out"
         id="feComposite27" />
      <feColorMatrix
         type="matrix"
         values="0 0 0 0 0.298039 0 0 0 0 0.454902 0 0 0 0 1 0 0 0 0.25 0"
         id="feColorMatrix28" />
      <feBlend
         mode="normal"
         in2="BackgroundImageFix"
         result="effect1_dropShadow_77:23"
         id="feBlend28" />
      <feBlend
         mode="normal"
         in="SourceGraphic"
         in2="effect1_dropShadow_77:23"
         result="shape"
         id="feBlend29" />
    </filter>
    <filter
       id="filter7_d_77:23"
       x="107"
       y="119"
       width="30"
       height="31"
       filterUnits="userSpaceOnUse"
       color-interpolation-filters="sRGB">
      <feFlood
         flood-opacity="0"
         result="BackgroundImageFix"
         id="feFlood29" />
      <feColorMatrix
         in="SourceAlpha"
         type="matrix"
         values="0 0 0 0 0 0 0 0 0 0 0 0 0 0 0 0 0 0 127 0"
         result="hardAlpha"
         id="feColorMatrix29" />
      <feOffset
         dy="2"
         id="feOffset29" />
      <feGaussianBlur
         stdDeviation="2"
         id="feGaussianBlur29" />
      <feComposite
         in2="hardAlpha"
         operator="out"
         id="feComposite29" />
      <feColorMatrix
         type="matrix"
         values="0 0 0 0 0.298039 0 0 0 0 0.454902 0 0 0 0 1 0 0 0 0.25 0"
         id="feColorMatrix30" />
      <feBlend
         mode="normal"
         in2="BackgroundImageFix"
         result="effect1_dropShadow_77:23"
         id="feBlend30" />
      <feBlend
         mode="normal"
         in="SourceGraphic"
         in2="effect1_dropShadow_77:23"
         result="shape"
         id="feBlend31" />
    </filter>
    <filter
       id="filter8_d_77:23"
       x="0"
       y="47"
       width="163"
       height="12"
       filterUnits="userSpaceOnUse"
       color-interpolation-filters="sRGB">
      <feFlood
         flood-opacity="0"
         result="BackgroundImageFix"
         id="feFlood31" />
      <feColorMatrix
         in="SourceAlpha"
         type="matrix"
         values="0 0 0 0 0 0 0 0 0 0 0 0 0 0 0 0 0 0 127 0"
         result="hardAlpha"
         id="feColorMatrix31" />
      <feOffset
         dy="2"
         id="feOffset31" />
      <feGaussianBlur
         stdDeviation="2"
         id="feGaussianBlur31" />
      <feComposite
         in2="hardAlpha"
         operator="out"
         id="feComposite31" />
      <feColorMatrix
         type="matrix"
         values="0 0 0 0 0.298039 0 0 0 0 0.454902 0 0 0 0 1 0 0 0 0.25 0"
         id="feColorMatrix32" />
      <feBlend
         mode="normal"
         in2="BackgroundImageFix"
         result="effect1_dropShadow_77:23"
         id="feBlend32" />
      <feBlend
         mode="normal"
         in="SourceGraphic"
         in2="effect1_dropShadow_77:23"
         result="shape"
         id="feBlend33" />
    </filter>
    <linearGradient
       id="paint0_linear_77:23"
       x1="43.2994"
       y1="54.006401"
       x2="168.955"
       y2="183.78999"
       gradientUnits="userSpaceOnUse">
      <stop
         stop-color="#D4B2FF"
         stop-opacity="0.1"
         id="stop33" />
      <stop
         offset="1"
         stop-color="#70A9FF"
         stop-opacity="0.8"
         id="stop34" />
    </linearGradient>
    <linearGradient
       id="paint1_linear_77:23"
       x1="43.894501"
       y1="0"
       x2="43.894501"
       y2="32.8894"
       gradientUnits="userSpaceOnUse"
       gradientTransform="translate(59.384615,-78.005215)">
      <stop
         stop-color="#FFE092"
         id="stop35" />
      <stop
         offset="0.458333"
         stop-color="#FF9820"
         id="stop36" />
      <stop
         offset="1"
         stop-color="#FF3D00"
         id="stop37" />
    </linearGradient>
    <linearGradient
       id="paint2_linear_77:23"
       x1="119.07"
       y1="0"
       x2="119.07"
       y2="32.8894"
       gradientUnits="userSpaceOnUse"
       gradientTransform="translate(59.384615,-78.005215)">
      <stop
         stop-color="#FFE092"
         id="stop38" />
      <stop
         offset="0.458333"
         stop-color="#FF9820"
         id="stop39" />
      <stop
         offset="1"
         stop-color="#FF3D00"
         id="stop40" />
    </linearGradient>
    <linearGradient
       id="paint3_linear_77:23"
       x1="16.212099"
       y1="32.621201"
       x2="150.545"
       y2="168.83299"
       gradientUnits="userSpaceOnUse">
      <stop
         stop-color="#E4F9FF"
         stop-opacity="0.1"
         id="stop41" />
      <stop
         offset="1"
         stop-color="#E4F9FF"
         stop-opacity="0.8"
         id="stop42" />
    </linearGradient>
    <linearGradient
       id="paint4_linear_77:23"
       x1="15.2727"
       y1="23.227301"
       x2="159"
       y2="178.22701"
       gradientUnits="userSpaceOnUse">
      <stop
         stop-color="#E4F9FF"
         stop-opacity="0.1"
         id="stop43" />
      <stop
         offset="1"
         stop-color="#E4F9FF"
         stop-opacity="0.8"
         id="stop44" />
    </linearGradient>
    <linearGradient
       id="paint5_linear_77:23"
       x1="22.882"
       y1="51"
       x2="145.276"
       y2="51"
       gradientUnits="userSpaceOnUse"
       gradientTransform="translate(-192.34577,-103.5708)">
      <stop
         stop-color="#70A9FF"
         id="stop45" />
      <stop
         offset="1"
         stop-color="#4C74FF"
         id="stop46" />
    </linearGradient>
    <linearGradient
       inkscape:collect="always"
       xlink:href="#paint0_linear_77:23"
       id="linearGradient2"
       x1="82.20652"
       y1="173.29739"
       x2="80.79348"
       y2="21.816296"
       gradientUnits="userSpaceOnUse" />
  </defs>
  <path
     style="color:#232629;fill:#ffffff;fill-opacity:0.55665;stroke:none;stroke-width:2.0546"
     d="m 111.38154,57.842512 c -0.28879,-0.0066 -0.5822,0.07867 -0.85972,0.249455 -0.15046,0.099 -0.79314,0.873122 -1.42644,1.715365 l -1.15329,1.546977 -0.41758,-0.286168 c -0.58493,-0.384834 -1.1491,-0.4698 -1.67558,-0.231425 -0.36375,0.163571 -1.21639,1.261431 -6.81029,8.681266 -3.530349,4.677347 -6.40094,8.541099 -6.392483,8.600758 0.0098,0.04851 1.440278,1.166371 3.174132,2.46504 l 3.169903,2.376567 4.170768,-5.542996 c 2.29534,-3.049175 4.20519,-5.517164 4.25095,-5.482942 0.15046,0.108173 0.41866,2.504932 0.36549,3.274601 -0.0328,0.419909 -0.17635,1.1745 -0.3416,1.675375 -0.29141,0.895019 -0.32157,0.9475 -5.49222,7.839415 -2.859802,3.80983 -5.240925,7.046178 -5.283474,7.174118 -0.119318,0.352513 0.02295,1.012272 0.282562,1.390649 0.447379,0.637829 1.553729,0.839293 2.181626,0.384638 0.433873,-0.315342 10.675426,-14.067705 11.001156,-14.784828 0.9512,-2.045655 1.14824,-4.664923 0.54631,-7.242529 -0.23536,-1.022827 -0.5487,-2.006122 -0.85185,-2.705053 -0.0921,-0.1875 0.0557,-0.435184 1.01676,-1.719102 0.90505,-1.225866 1.11252,-1.570742 1.12891,-1.887657 0.0347,-0.675689 -0.16849,-1.052329 -0.83579,-1.567037 l -0.61865,-0.481502 1.22957,-1.647283 c 1.00755,-1.362131 1.22573,-1.718185 1.2414,-2.035854 0.0433,-1.012141 -0.73735,-1.753751 -1.59923,-1.763355 z M 90.669307,80.687233 c -0.03311,0.0066 -3.791801,4.990099 -8.365105,11.065667 -7.356242,9.78372 -8.402113,11.23206 -9.080655,12.47641 -1.347445,2.47782 -2.814275,6.25592 -3.788523,9.70717 -0.63183,2.21385 -0.663266,2.01344 0.218969,1.54279 2.715018,-1.46254 6.261135,-3.83675 8.324655,-5.58286 2.017825,-1.70884 2.361324,-2.14354 10.908783,-13.498451 l 8.220611,-10.933172 -3.194258,-2.392825 c -1.756767,-1.315879 -3.212288,-2.388991 -3.242445,-2.384696 z m 0.924258,25.321727 c -0.404043,-0.0328 -0.819691,-0.0164 -1.089173,0.041 v 0.007 c -1.27733,0.2701 -2.699776,1.37295 -3.386873,2.64506 -0.182255,0.33065 -0.479961,1.07905 -0.662971,1.64322 -0.167832,0.57453 -0.333272,1.05404 -0.34563,1.06607 -0.09867,0.11964 -2.541711,0.70778 -3.977728,0.95392 -3.375367,0.58899 -4.297396,0.80848 -4.628734,1.11418 -0.650056,0.59928 -0.14882,1.20283 0.775504,0.93397 0.24257,-0.0774 1.288343,-0.28224 2.294355,-0.45292 1.007913,-0.16882 2.541023,-0.49052 3.411293,-0.68526 0.872401,-0.21012 1.61034,-0.34576 1.647315,-0.30813 0.03409,0.0347 -0.105223,0.73413 -0.341434,1.55468 l -0.418204,1.47096 -0.923734,0.4047 c -0.504055,0.22323 -1.22662,0.59928 -1.607226,0.85771 -1.154176,0.75931 -1.377013,1.7131 -0.566402,2.32468 0.442101,0.33045 1.669573,0.31796 2.430621,-0.0197 0.674673,-0.30551 1.054329,-0.73345 1.583263,-1.84767 0.28289,-0.57656 0.50399,-0.88062 0.674674,-0.91776 0.138331,-0.0361 1.354788,-0.28355 2.704201,-0.56509 1.351477,-0.27011 2.577834,-0.52851 2.736259,-0.5649 0.255682,-0.0593 0.284528,-0.0367 0.211757,0.19602 -0.0472,0.14882 -0.273711,0.57817 -0.506251,0.95783 -0.231753,0.37972 -0.417811,0.83113 -0.417811,1.01385 0,0.37955 0.321242,0.75973 0.578563,0.66129 0.09834,-0.0341 0.230442,-0.0751 0.293379,-0.0751 0.05933,0 0.33324,-0.19668 0.602722,-0.44086 0.503957,-0.45344 1.719791,-2.67253 1.719791,-3.13823 0,-0.23077 0.181273,-0.29142 0.292724,-0.10457 0.03573,0.059 0.315997,0.16947 0.622783,0.24159 0.430071,0.10817 0.554503,0.19241 0.554503,0.38883 0,0.37962 0.627798,0.93337 1.181285,1.04204 0.429939,0.0774 0.982541,-0.0197 1.570971,-0.25503 0.211429,-0.0888 0.223885,-0.0593 0.150787,0.25503 -0.0472,0.197 -0.406896,0.82237 -0.787436,1.39891 -0.810448,1.20029 -1.791841,3.11027 -2.049163,3.95566 -0.210774,0.72237 -0.120302,1.26229 0.255683,1.51915 0.343532,0.2229 0.907246,0.11538 1.201411,-0.20258 0.255355,-0.28256 1.659214,-3.23097 2.173627,-4.57691 0.368216,-0.94393 0.538804,-1.20187 1.374094,-2.08433 0.68723,-0.72214 0.91148,-0.8942 0.76334,-0.61322 -0.24322,0.52766 -0.23208,0.9302 0.0341,1.17444 0.57623,0.52716 1.41126,0.0197 2.13763,-1.31064 0.42997,-0.7837 0.75007,-1.01437 2.34648,-1.76355 l 0.83159,-0.38057 -0.0865,0.45269 c -0.0466,0.24224 -0.33282,0.94405 -0.62669,1.54317 -0.57797,1.21269 -0.68532,1.98429 -0.34146,2.64503 0.23077,0.45364 0.4774,0.46846 1.60703,0.0793 1.57156,-0.5271 3.62164,-1.74303 4.15447,-2.44055 0.72401,-0.981 0.94642,-1.9224 0.50622,-2.2406 -0.45452,-0.32999 -0.71171,-0.19602 -1.28969,0.64927 -0.77367,1.15152 -1.72998,2.04746 -2.65182,2.50116 -0.42997,0.22291 -0.81067,0.3653 -0.84781,0.32872 -0.0466,-0.0475 0.93173,-2.6825 1.45844,-3.9199 0.1085,-0.2547 0.20323,-0.57585 0.20323,-0.70929 0,-0.34291 -0.43119,-0.73335 -0.79933,-0.73335 -0.16948,0 -0.98553,0.32881 -1.79621,0.74534 -1.68268,0.83313 -1.57093,0.90659 -1.14099,-0.6613 0.25568,-0.9667 0.16914,-1.22484 -0.41788,-1.2867 -0.56552,-0.0593 -0.7854,0.12128 -1.30155,1.04204 -0.33147,0.62396 -0.77194,1.13995 -1.61942,1.92407 -1.11691,1.02794 -1.16713,1.06397 -1.42632,0.88148 -0.39296,-0.28256 -0.61452,-0.24159 -1.571035,0.23274 -0.933994,0.4658 -1.242025,0.52746 -1.474532,0.24257 -0.197335,-0.23208 0.110467,-0.35491 1.819998,-0.68543 1.658099,-0.31796 1.864349,-0.40683 1.864349,-0.74944 0,-0.55201 -0.45511,-1.07577 -1.265823,-1.43081 -1.400712,-0.62366 -1.556449,-0.66287 -2.169431,-0.505 -0.662479,0.16882 -1.646135,1.11441 -1.779942,1.70347 -0.138331,0.61331 -0.554372,0.42849 -0.554372,-0.2429 0,-0.28256 -0.345072,-0.99116 -0.542603,-1.11412 -0.417516,-0.28256 -1.090879,0.33212 -1.606931,1.45893 l -0.405977,0.86965 -0.907869,0.19602 c -1.178826,0.25503 -4.603986,0.94163 -5.058772,1.03004 -0.294035,0.0472 -0.342877,0.0328 -0.282562,-0.15046 0.04655,-0.11899 0.194384,-0.65838 0.341401,-1.21036 0.380377,-1.51849 0.4935,-1.71684 1.044561,-1.91172 0.662414,-0.23142 2.899634,-1.18951 3.475509,-1.48292 0.270761,-0.13801 0.820248,-0.55041 1.22557,-0.91777 1.240158,-1.15129 1.434869,-2.21818 0.550209,-3.00174 -0.243226,-0.21012 -0.565222,-0.42758 -0.711223,-0.48931 -0.227164,-0.0888 -0.616784,-0.14783 -1.020205,-0.16554 z m -1.2376,1.43083 c 0.168488,-0.0164 0.371952,-0.007 0.626815,0.0197 0.650056,0.0344 0.909704,0.098 1.092517,0.29174 0.243226,0.24192 0.24257,0.25372 0.03311,0.72152 -0.15046,0.29403 -0.490189,0.63832 -0.920031,0.9338 -0.748755,0.51503 -3.096148,1.45676 -3.170001,1.28644 -0.09703,-0.28256 0.653563,-1.96115 1.132968,-2.501 0.478322,-0.54162 0.701913,-0.71683 1.213507,-0.74528 z m -6.304273,10.25601 c 0.09605,0.01 0.0967,0.0911 0.02622,0.23765 -0.163244,0.30551 -0.579219,0.52694 -0.81166,0.44066 -0.270761,-0.10817 -0.196679,-0.25338 0.231753,-0.47675 0.2842,-0.14423 0.468849,-0.21372 0.562468,-0.20782 z"
     class="ColorScheme-Text"
     id="path14466-5-6" />
</svg>
