<svg width="48" height="48" viewBox="0 0 48 48" fill="none" xmlns="http://www.w3.org/2000/svg">
<path opacity="0.4" d="M34.7458 8.85267H28.271C26.658 8.86333 25.1266 8.14583 24.1044 6.90053L21.9722 3.95279C20.9672 2.69655 19.4358 1.97568 17.8252 2.00063H13.2478C5.03204 2.00063 2.00002 6.82243 2.00002 15.0214L2 20C1.98979 20.9746 18.9972 13.9734 19 13L23.9936 11.3074C26 12 39 10 34.7458 8.85267Z" fill="url(#paint0_linear_415_571)"/>
<path fill-rule="evenodd" clip-rule="evenodd" d="M45.0348 14.7871C44.6784 13.7652 44.1346 12.8185 43.4306 11.9955C43.2094 11.7356 42.9674 11.4941 42.707 11.2732C40.4456 9.49472 37.5964 8.63058 34.726 8.85258H13.2086C8.08354 8.85258 4.95374 10.5119 3.42798 13.772C2.9129 14.8283 2.55068 15.9522 2.3521 17.1102C2.3521 17.3786 2.2986 17.6471 2.24416 17.9203C2.2115 18.0841 2.1785 18.2498 2.1565 18.4181C2.05186 19.3776 1.99962 20.3421 2 21.3073V32.8639C1.99958 33.8383 2.07808 34.8111 2.23474 35.7727C2.48112 37.4721 3.06644 39.1051 3.95612 40.5749C4.3614 41.2843 4.85428 41.9403 5.42322 42.5271C8.03816 44.9187 11.5051 46.1633 15.0473 45.9825H32.9264C36.463 46.1647 39.9242 44.9195 42.5308 42.5271C43.1066 41.9413 43.6062 41.2855 44.0176 40.5749C44.9124 39.1041 45.5106 37.4727 45.778 35.7727C45.9184 34.8095 45.9904 33.8375 45.9932 32.8639V21.3073C46.06 19.0946 45.7356 16.8874 45.0348 14.7871ZM20.906 33.9995C22.0956 34.0119 23.2762 33.7883 24.3788 33.3415C25.4816 32.8949 26.485 32.2339 27.3306 31.3971C28.1764 30.5601 28.8476 29.5639 29.3058 28.4657C29.764 27.3677 30 26.1897 30 24.9999C30 23.8101 29.764 22.6321 29.3058 21.5341C28.8476 20.4359 28.1764 19.4397 27.3306 18.6028C26.485 17.7658 25.4816 17.1049 24.3788 16.6582C23.2762 16.2115 22.0956 15.9879 20.906 16.0004C18.5354 16.0251 16.2704 16.9842 14.6029 18.6693C12.9353 20.3543 12 22.6293 12 24.9999C12 27.3705 12.9353 29.6455 14.6029 31.3305C16.2704 33.0155 18.5354 33.9747 20.906 33.9995ZM29.7116 31.9999C29.2572 31.9999 28.8214 32.1801 28.5 32.5011C28.1798 32.8225 28 33.2577 28 33.7115C28 34.1661 28.1804 34.6021 28.5018 34.9237L33.0706 39.4997C33.3924 39.8215 33.829 40.0023 34.284 40.0023C34.7392 40.0023 35.1756 39.8215 35.4974 39.4997C35.8192 39.1779 36 38.7415 36 38.2863C36 37.8311 35.8192 37.3947 35.4974 37.0729L30.9238 32.5017C30.6022 32.1803 30.1662 31.9999 29.7116 31.9999Z" fill="url(#paint1_linear_415_571)"/>
<defs>
<linearGradient id="paint0_linear_415_571" x1="18.7978" y1="20.0928" x2="18.7978" y2="2.00001" gradientUnits="userSpaceOnUse">
<stop stop-color="#5570FF"/>
<stop offset="1" stop-color="#4DD3FF"/>
</linearGradient>
<linearGradient id="paint1_linear_415_571" x1="24.0008" y1="45.9999" x2="24.0008" y2="8.81836" gradientUnits="userSpaceOnUse">
<stop stop-color="#5570FF"/>
<stop offset="1" stop-color="#4DD3FF"/>
</linearGradient>
</defs>
</svg>
