<svg width="48" height="48" viewBox="0 0 48 48" fill="none" xmlns="http://www.w3.org/2000/svg">
<path opacity="0.4" d="M34.7458 8.85267H28.271C26.658 8.86333 25.1266 8.14583 24.1044 6.90053L21.9722 3.95279C20.9672 2.69655 19.4358 1.97568 17.8252 2.00063H13.2478C5.03204 2.00063 2.00002 6.82243 2.00002 15.0214L2 20C1.98979 20.9746 18.9972 13.9734 19 13L23.9936 11.3074C26 12 39 10 34.7458 8.85267Z" fill="url(#paint0_linear_415_457)"/>
<path fill-rule="evenodd" clip-rule="evenodd" d="M45.0348 14.7871C44.6784 13.7652 44.1346 12.8185 43.4306 11.9955C43.2094 11.7356 42.9674 11.4941 42.707 11.2732C40.4456 9.49472 37.5964 8.63058 34.726 8.85258H13.2086C8.08354 8.85258 4.95374 10.5119 3.42798 13.772C2.9129 14.8283 2.55068 15.9522 2.3521 17.1102C2.3521 17.3786 2.2986 17.6471 2.24416 17.9203C2.2115 18.0841 2.1785 18.2498 2.1565 18.4181C2.05186 19.3776 1.99962 20.3421 2 21.3073V32.8639C1.99958 33.8383 2.07808 34.8111 2.23474 35.7727C2.48112 37.4721 3.06644 39.1051 3.95612 40.5749C4.3614 41.2843 4.85428 41.9403 5.42322 42.5271C8.03816 44.9187 11.5051 46.1633 15.0473 45.9825H32.9264C36.463 46.1647 39.9242 44.9195 42.5308 42.5271C43.1066 41.9413 43.6062 41.2855 44.0176 40.5749C44.9124 39.1041 45.5106 37.4727 45.778 35.7727C45.9184 34.8095 45.9904 33.8375 45.9932 32.8639V21.3073C46.06 19.0946 45.7356 16.8874 45.0348 14.7871ZM19.3418 22.0973C19.3417 22.0973 19.3418 22.0971 19.3418 22.0973V22.0973ZM19.2062 22.2135C19.5422 21.9579 19.7582 21.5703 20.1902 20.7951L20.5838 20.0895L20.5862 20.0851C22.105 17.3616 22.8644 15.9999 24.0002 15.9999C25.136 15.9999 25.8954 17.3616 27.4142 20.0851L27.4166 20.0895L27.809 20.7951C28.241 21.5703 28.457 21.9579 28.793 22.2135C29.1298 22.4689 29.5496 22.5637 30.387 22.7531L30.389 22.7535L31.1522 22.9263C34.1042 23.5935 35.5802 23.9283 35.9304 25.0575C36.282 26.1867 35.2766 27.3639 33.2642 29.7159L32.7434 30.3243C32.171 30.9927 31.8854 31.3275 31.757 31.7403C31.629 32.1529 31.6714 32.5977 31.7562 33.4837L31.757 33.4923L31.781 33.7203C31.7806 33.7203 31.7814 33.7201 31.781 33.7203L31.8374 34.3047L31.838 34.3109C32.1412 37.4471 32.2928 39.0151 31.373 39.7131C30.455 40.4091 29.0726 39.7731 26.309 38.5011L25.595 38.1723C24.809 37.8099 24.4166 37.6299 24.0002 37.6299C23.5838 37.6299 23.1914 37.8099 22.4066 38.1723L21.6902 38.5011C18.9278 39.7743 17.5455 40.4103 16.6263 39.7119C15.7077 39.0151 15.8593 37.4471 16.1625 34.3109L16.1631 34.3047L16.2423 33.4923C16.3287 32.6007 16.3719 32.1543 16.2435 31.7403C16.1155 31.3287 15.83 30.9947 15.2623 30.3305L15.2571 30.3243L14.7363 29.7159C12.7239 27.3627 11.7183 26.1855 12.0687 25.0575C12.4201 23.9289 13.8946 23.5951 16.8432 22.9275L16.8483 22.9263L17.6103 22.7535C18.4503 22.5639 18.8702 22.4691 19.2062 22.2135Z" fill="url(#paint1_linear_415_457)"/>
<defs>
<linearGradient id="paint0_linear_415_457" x1="18.7978" y1="20.0928" x2="18.7978" y2="2.00001" gradientUnits="userSpaceOnUse">
<stop stop-color="#FD5900"/>
<stop offset="1" stop-color="#FFDE00"/>
</linearGradient>
<linearGradient id="paint1_linear_415_457" x1="24.0008" y1="45.9999" x2="24.0008" y2="8.81836" gradientUnits="userSpaceOnUse">
<stop stop-color="#FD5900"/>
<stop offset="1" stop-color="#FFDE00"/>
</linearGradient>
</defs>
</svg>
