<svg width="48" height="48" viewBox="0 0 48 48" fill="none" xmlns="http://www.w3.org/2000/svg">
<path opacity="0.4" d="M34.7458 8.85267H28.271C26.658 8.86333 25.1266 8.14583 24.1044 6.90053L21.9722 3.95279C20.9672 2.69655 19.4358 1.97568 17.8252 2.00063H13.2478C5.03204 2.00063 2.00002 6.82243 2.00002 15.0214L2 20C1.98979 20.9746 18.9972 13.9734 19 13L23.9936 11.3074C26 12 39 10 34.7458 8.85267Z" fill="url(#paint0_linear_415_480)"/>
<path fill-rule="evenodd" clip-rule="evenodd" d="M43.4306 11.9955C44.1346 12.8185 44.6784 13.7652 45.0348 14.7871C45.7356 16.8874 46.06 19.0946 45.9932 21.3072V32.864C45.9904 33.8374 45.9184 34.8094 45.778 35.7726C45.5106 37.4726 44.9124 39.104 44.0176 40.575C43.6062 41.2854 43.1066 41.9414 42.5308 42.527C39.9242 44.9194 36.463 46.1646 32.9264 45.9824H15.0473C11.5051 46.1634 8.03816 44.9186 5.42322 42.527C4.85428 41.9402 4.3614 41.2844 3.95612 40.575C3.06644 39.1052 2.48112 37.4722 2.23474 35.7726C2.07808 34.811 1.99958 33.8382 2 32.864V21.3072C1.99962 20.342 2.05186 19.3776 2.1565 18.4181C2.1785 18.2497 2.2115 18.0841 2.24416 17.9203C2.2986 17.647 2.3521 17.3786 2.3521 17.1102C2.55068 15.9522 2.9129 14.8283 3.42798 13.772C4.95374 10.5119 8.08354 8.85258 13.2086 8.85258H34.726C37.5964 8.63058 40.4456 9.49472 42.707 11.2732C42.9674 11.4941 43.2094 11.7356 43.4306 11.9955ZM28.8344 18.5657C29.1468 18.2533 29.6532 18.2533 29.9656 18.5657L35.4344 24.0344C35.7468 24.3468 35.7468 24.8532 35.4344 25.1656L29.9656 30.6344C29.6532 30.9468 29.1468 30.9468 28.8344 30.6344L27.7656 29.5656C27.4532 29.2532 27.4532 28.7468 27.7656 28.4344L31.0344 25.1656C31.3468 24.8532 31.3468 24.3468 31.0344 24.0344L27.7656 20.7656C27.4532 20.4532 27.4532 19.9467 27.7656 19.6343L28.8344 18.5657ZM19.0444 20.8444C19.4569 20.4318 20.0166 20.2 20.6 20.2C21.1834 20.2 21.743 20.4318 22.1556 20.8444C22.5682 21.257 22.8 21.8166 22.8 22.4C22.8 22.9834 22.5682 23.543 22.1556 23.9556C21.743 24.3682 21.1834 24.6 20.6 24.6C20.0166 24.6 19.4569 24.3682 19.0444 23.9556C18.6318 23.543 18.4 22.9834 18.4 22.4C18.4 21.8166 18.6318 21.257 19.0444 20.8444ZM14.6444 27.4444C15.0569 27.0318 15.6165 26.8 16.2 26.8C16.7835 26.8 17.3431 27.0318 17.7556 27.4444C18.1682 27.857 18.4 28.4166 18.4 29C18.4 29.5834 18.1682 30.143 17.7556 30.5556C17.3431 30.9682 16.7835 31.2 16.2 31.2C15.6165 31.2 15.0569 30.9682 14.6444 30.5556C14.2318 30.143 14 29.5834 14 29C14 28.4166 14.2318 27.857 14.6444 27.4444ZM19.4368 34.1396C20.0732 33.5236 20.9244 33.1796 21.81 33.18C22.657 33.2344 23.4534 33.6026 24.0434 34.213C24.6332 34.8232 24.9744 35.6316 25 36.48C25.0304 37.3664 24.7144 38.2296 24.1188 38.8868C23.5232 39.544 22.695 39.9434 21.81 40C21.3528 40.0002 20.9002 39.9086 20.4792 39.7304C20.058 39.5522 19.6772 39.291 19.359 38.9626C19.0409 38.6342 18.7921 38.2452 18.6273 37.8188C18.4626 37.3922 18.3853 36.937 18.4 36.48C18.4286 35.5948 18.8004 34.7554 19.4368 34.1396Z" fill="url(#paint1_linear_415_480)"/>
<defs>
<linearGradient id="paint0_linear_415_480" x1="18.7978" y1="20.0928" x2="18.7978" y2="2.00001" gradientUnits="userSpaceOnUse">
<stop stop-color="#0075FF"/>
<stop offset="1" stop-color="#4DEAFF"/>
</linearGradient>
<linearGradient id="paint1_linear_415_480" x1="24.0008" y1="46" x2="24.0008" y2="8.81836" gradientUnits="userSpaceOnUse">
<stop stop-color="#0075FF"/>
<stop offset="1" stop-color="#4DEAFF"/>
</linearGradient>
</defs>
</svg>
