<svg width="48" height="48" viewBox="0 0 48 48" fill="none" xmlns="http://www.w3.org/2000/svg">
<path opacity="0.4" d="M34.7458 8.85267H28.271C26.658 8.86333 25.1266 8.14583 24.1044 6.90053L21.9722 3.95279C20.9672 2.69655 19.4358 1.97568 17.8252 2.00063H13.2478C5.03202 2.00063 2 6.82243 2 15.0214V19.8842C1.98978 20.8588 23.9908 14.8576 23.9936 13.8842V11.3074C26 12 39 10 34.7458 8.85267Z" fill="url(#paint0_linear_415_514)"/>
<path fill-rule="evenodd" clip-rule="evenodd" d="M45.0348 14.7871C44.6784 13.7652 44.1346 12.8185 43.4306 11.9955C43.2094 11.7356 42.9674 11.4941 42.707 11.2732C40.4456 9.49472 37.5964 8.63058 34.726 8.85258H13.2086C8.08354 8.85258 4.95374 10.5119 3.42798 13.772C2.9129 14.8283 2.55068 15.9522 2.3521 17.1102C2.3521 17.3786 2.2986 17.6471 2.24416 17.9203C2.2115 18.0841 2.1785 18.2498 2.1565 18.4181C2.05186 19.3776 1.99962 20.3421 2 21.3073V32.8639C1.99958 33.8383 2.07808 34.8111 2.23474 35.7727C2.48112 37.4721 3.06644 39.1051 3.95612 40.5749C4.3614 41.2843 4.85428 41.9403 5.42322 42.5271C8.03816 44.9187 11.5051 46.1633 15.0473 45.9825H32.9264C36.463 46.1647 39.9242 44.9195 42.5308 42.5271C43.1066 41.9413 43.6062 41.2855 44.0176 40.5749C44.9124 39.1041 45.5106 37.4727 45.778 35.7727C45.9184 34.8095 45.9904 33.8375 45.9932 32.8639V21.3073C46.06 19.0946 45.7356 16.8874 45.0348 14.7871ZM23.5414 31.8099C18.3664 31.8099 14 32.6555 14 35.9191C14 39.1841 18.3946 39.9999 23.5414 39.9999C28.7164 39.9999 33.0828 39.1543 33.0828 35.8907C33.0828 32.6257 28.6882 31.8099 23.5414 31.8099ZM29.8554 22.3501C29.8554 25.8745 27.0456 28.7005 23.5414 28.7005C20.0372 28.7005 17.2275 25.8745 17.2275 22.3501C17.2275 18.8245 20.0372 15.9999 23.5414 15.9999C27.0456 15.9999 29.8554 18.8245 29.8554 22.3501Z" fill="url(#paint1_linear_415_514)"/>
<defs>
<linearGradient id="paint0_linear_415_514" x1="29.5158" y1="2.00001" x2="18.4588" y2="27.2098" gradientUnits="userSpaceOnUse">
<stop stop-color="#DE00C0"/>
<stop offset="1" stop-color="#8720FF"/>
</linearGradient>
<linearGradient id="paint1_linear_415_514" x1="38.0388" y1="8.81836" x2="8.96841" y2="50.8229" gradientUnits="userSpaceOnUse">
<stop stop-color="#DE00C0"/>
<stop offset="1" stop-color="#8720FF"/>
</linearGradient>
</defs>
</svg>
