<svg width="48" height="48" viewBox="0 0 48 48" fill="none" xmlns="http://www.w3.org/2000/svg">
<path opacity="0.4" d="M34.7458 8.85267H28.271C26.658 8.86333 25.1266 8.14583 24.1044 6.90053L21.9722 3.95279C20.9672 2.69655 19.4358 1.97568 17.8252 2.00063H13.2478C5.03204 2.00063 2.00002 6.82243 2.00002 15.0214L2 20C1.98979 20.9746 18.9972 13.9734 19 13L23.9936 11.3074C26 12 39 10 34.7458 8.85267Z" fill="url(#paint0_linear_415_416)"/>
<path fill-rule="evenodd" clip-rule="evenodd" d="M43.4306 11.9955C44.1346 12.8185 44.6784 13.7652 45.0348 14.7871C45.7356 16.8874 46.06 19.0946 45.9932 21.3073V32.8639C45.9904 33.8375 45.9184 34.8095 45.778 35.7727C45.5106 37.4727 44.9124 39.1041 44.0176 40.5749C43.6062 41.2855 43.1066 41.9413 42.5308 42.5271C39.9242 44.9195 36.463 46.1647 32.9264 45.9825H15.0473C11.5051 46.1633 8.03816 44.9187 5.42322 42.5271C4.85428 41.9403 4.3614 41.2843 3.95612 40.5749C3.06644 39.1051 2.48112 37.4721 2.23474 35.7727C2.07808 34.8111 1.99958 33.8383 2 32.8639V21.3073C1.99962 20.3421 2.05186 19.3776 2.1565 18.4181C2.1785 18.2498 2.2115 18.0841 2.24416 17.9203C2.2986 17.6471 2.3521 17.3786 2.3521 17.1102C2.55068 15.9522 2.9129 14.8283 3.42798 13.772C4.95374 10.5119 8.08354 8.85258 13.2086 8.85258H34.726C37.5964 8.63058 40.4456 9.49472 42.707 11.2732C42.9674 11.4941 43.2094 11.7356 43.4306 11.9955ZM18.4285 22.9999C18.4285 19.6512 21.1968 16.9999 24.5714 16.9999C27.5936 16.9999 30.125 19.1219 30.6254 21.9739C30.8354 23.1711 29.8248 23.9999 28.8572 23.9999C27.793 23.9999 27.0838 23.1509 26.95 22.3011C26.8436 21.6245 26.587 21.2711 26.2798 21.0587C25.939 20.8231 25.398 20.6665 24.5714 20.6665C23.6206 20.6665 23.0532 20.8725 22.7244 21.1681C22.4166 21.4447 22.1428 21.9591 22.1428 22.9999V26.4615C22.1428 26.7589 22.3838 26.9999 22.6814 26.9999H31.6044C33.0062 26.9999 34.1428 28.1363 34.1428 29.5383V36.4615C34.1428 37.8631 33.007 38.9999 31.6048 38.9999H17.5384C16.1363 38.9999 15 37.8633 15 36.4615V29.2499C15 28.0073 16.0073 26.9999 17.25 26.9999H17.8901C18.1875 26.9999 18.4285 26.7589 18.4285 26.4615V22.9999Z" fill="url(#paint1_linear_415_416)"/>
<defs>
<linearGradient id="paint0_linear_415_416" x1="18.7978" y1="20.0928" x2="18.7978" y2="2.00001" gradientUnits="userSpaceOnUse">
<stop stop-color="#02AA93"/>
<stop offset="1" stop-color="#67FF80"/>
</linearGradient>
<linearGradient id="paint1_linear_415_416" x1="24.0008" y1="45.9999" x2="24.0008" y2="8.81836" gradientUnits="userSpaceOnUse">
<stop stop-color="#02AA93"/>
<stop offset="1" stop-color="#67FF80"/>
</linearGradient>
</defs>
</svg>
