<svg width="48" height="48" viewBox="0 0 48 48" fill="none" xmlns="http://www.w3.org/2000/svg">
<path opacity="0.4" d="M34.7458 8.85267H28.271C26.658 8.86333 25.1266 8.14583 24.1044 6.90053L21.9722 3.95279C20.9672 2.69655 19.4358 1.97568 17.8252 2.00063H13.2478C5.03204 2.00063 2.00002 6.82243 2.00002 15.0214L2 20C1.98979 20.9746 18.9972 13.9734 19 13L23.9936 11.3074C26 12 39 10 34.7458 8.85267Z" fill="url(#paint0_linear_415_433)"/>
<path fill-rule="evenodd" clip-rule="evenodd" d="M43.4306 11.9955C44.1346 12.8185 44.6784 13.7652 45.0348 14.7871C45.7356 16.8874 46.06 19.0946 45.9932 21.3073V32.8639C45.9904 33.8375 45.9184 34.8095 45.778 35.7727C45.5106 37.4727 44.9124 39.1041 44.0176 40.5749C43.6062 41.2855 43.1066 41.9413 42.5308 42.5271C39.9242 44.9195 36.463 46.1647 32.9264 45.9825H15.0473C11.5051 46.1633 8.03816 44.9187 5.42322 42.5271C4.85428 41.9403 4.3614 41.2843 3.95612 40.5749C3.06644 39.1051 2.48112 37.4721 2.23474 35.7727C2.07808 34.8111 1.99958 33.8383 2 32.8639V21.3073C1.99962 20.3421 2.05186 19.3776 2.1565 18.4181C2.1785 18.2498 2.2115 18.0841 2.24416 17.9203C2.2986 17.6471 2.3521 17.3786 2.3521 17.1102C2.55068 15.9522 2.9129 14.8283 3.42798 13.772C4.95374 10.5119 8.08354 8.85258 13.2086 8.85258H34.726C37.5964 8.63058 40.4456 9.49472 42.707 11.2732C42.9674 11.4941 43.2094 11.7356 43.4306 11.9955ZM16.7354 25.3309C19.307 25.3309 21.4 23.2379 21.4 20.6663C21.4 18.0947 19.307 15.9999 16.7354 15.9999C14.1619 15.9999 12.0709 18.0947 12.0709 20.6663C12.0709 23.2379 14.1619 25.3309 16.7354 25.3309ZM37.6656 32.2509C37.459 31.7347 37.1456 31.2503 36.7082 30.8261C35.5614 29.7167 34.4896 28.6807 33.215 27.9147C31.2158 26.6985 29.6692 28.4065 29.2524 28.9529C28.9166 29.3939 28.62 29.8731 28.3188 30.3597C28.26 30.4549 28.2008 30.5505 28.1412 30.6459L28.1234 30.6747C27.2378 32.1021 26.2204 33.7421 24.4678 34.7005C21.9038 36.0819 19.9572 34.8093 18.5569 33.8821C18.0313 33.5367 17.5207 33.2081 17.012 32.9903C15.7582 32.4629 14.63 33.0637 12.9557 35.1359C12.0772 36.2189 11.2062 37.2927 10.324 38.3625C9.79656 39.0045 9.92232 39.9901 10.6337 40.4179C11.7694 41.1013 13.1547 41.4653 14.7201 41.4653H30.452C31.3398 41.4653 32.2296 41.3491 33.078 41.0769C34.9888 40.4687 36.5054 39.0777 37.2976 37.2363C37.9658 35.6897 38.2906 33.8125 37.6656 32.2509Z" fill="url(#paint1_linear_415_433)"/>
<defs>
<linearGradient id="paint0_linear_415_433" x1="8.0892" y1="17.9569" x2="22.8094" y2="-5.89199" gradientUnits="userSpaceOnUse">
<stop stop-color="#FE0844"/>
<stop offset="1" stop-color="#FEB302"/>
</linearGradient>
<linearGradient id="paint1_linear_415_433" x1="9.97532" y1="41.6105" x2="43.7992" y2="6.68514" gradientUnits="userSpaceOnUse">
<stop stop-color="#FE0844"/>
<stop offset="1" stop-color="#FEB302"/>
</linearGradient>
</defs>
</svg>
