<svg width="48" height="48" viewBox="0 0 48 48" fill="none" xmlns="http://www.w3.org/2000/svg">
<path opacity="0.4" d="M34.7458 8.85267H28.271C26.658 8.86333 25.1266 8.14583 24.1044 6.90053L21.9722 3.95279C20.9672 2.69655 19.4358 1.97568 17.8252 2.00063H13.2478C5.03204 2.00063 2.00002 6.82243 2.00002 15.0214L2 20C1.98979 20.9746 18.9972 13.9734 19 13L23.9936 11.3074C26 12 39 10 34.7458 8.85267Z" fill="url(#paint0_linear_415_600)"/>
<path fill-rule="evenodd" clip-rule="evenodd" d="M45.0348 14.7871C44.6784 13.7652 44.1346 12.8185 43.4306 11.9955C43.2094 11.7356 42.9674 11.4941 42.707 11.2732C40.4456 9.49472 37.5964 8.63058 34.726 8.85258H13.2086C8.08354 8.85258 4.95374 10.5119 3.42798 13.772C2.9129 14.8283 2.55068 15.9522 2.3521 17.1102C2.3521 17.3786 2.2986 17.6471 2.24416 17.9203C2.2115 18.0841 2.1785 18.2498 2.1565 18.4181C2.05186 19.3776 1.99962 20.3421 2 21.3073V32.8639C1.99958 33.8383 2.07808 34.8111 2.23474 35.7727C2.48112 37.4721 3.06644 39.1051 3.95612 40.5749C4.3614 41.2843 4.85428 41.9403 5.42322 42.5271C8.03816 44.9187 11.5051 46.1633 15.0473 45.9825H32.9264C36.463 46.1647 39.9242 44.9195 42.5308 42.5271C43.1066 41.9413 43.6062 41.2855 44.0176 40.5749C44.9124 39.1041 45.5106 37.4727 45.778 35.7727C45.9184 34.8095 45.9904 33.8375 45.9932 32.8639V21.3073C46.06 19.0946 45.7356 16.8874 45.0348 14.7871ZM24.838 28.5665C24.8376 28.5667 24.838 28.5671 24.838 28.5665L33.2298 25.2109C33.7554 25.0007 34.327 25.3877 34.327 25.9537V29.6223C34.327 30.2541 33.5962 30.6663 32.973 30.5619C32.6674 30.5107 32.3546 30.4985 32.042 30.5271C31.2398 30.6007 30.4848 30.9391 29.8962 31.4893C29.3076 32.0393 28.9188 32.7695 28.7912 33.5649C28.6634 34.3603 28.804 35.1757 29.191 35.8823C29.5778 36.5889 30.1888 37.1467 30.9276 37.4677C31.6666 37.7887 32.4912 37.8547 33.2718 37.6553C34.0524 37.4557 34.7442 37.0021 35.2384 36.3659C35.7328 35.7299 36.0012 34.9473 36.0016 34.1417V23.4737C36.0016 22.1979 36.0016 21.1283 35.9122 20.2755C35.8998 20.1579 35.8848 20.0407 35.8676 19.9238C35.7804 19.341 35.6286 18.7985 35.3328 18.3441C35.1526 18.0649 34.917 17.8256 34.6408 17.6408L34.6328 17.6353C33.8426 17.1106 32.955 17.1474 32.0408 17.3807C31.1566 17.6062 30.0604 18.0651 28.7162 18.6277L26.3786 19.6056C25.7478 19.8691 25.2142 20.0935 24.7956 20.3245C24.349 20.5701 23.9662 20.8605 23.6782 21.2935C23.3902 21.7267 23.2696 22.1923 23.2148 22.6991C23.1634 23.1747 23.1634 23.7539 23.1634 24.4373V31.8539C23.1634 32.4857 22.4328 32.8979 21.8094 32.7935C21.504 32.7423 21.191 32.7301 20.8786 32.7587C20.0762 32.8323 19.3213 33.1707 18.7327 33.7209C18.1441 34.2709 17.7553 35.0011 17.6276 35.7965C17.4999 36.5919 17.6406 37.4073 18.0274 38.1139C18.4143 38.8205 19.0253 39.3783 19.7642 39.6993C20.503 40.0203 21.3278 40.0863 22.1082 39.8869C22.8888 39.6873 23.5808 39.2337 24.075 38.5975C24.5692 37.9615 24.8376 37.1789 24.838 36.3733V28.5665ZM19.0111 16.2451C19.1681 16.4021 19.2563 16.6151 19.2563 16.8371C19.2563 17.728 19.6224 18.3342 20.107 18.7327C20.5766 19.1173 21.1612 19.3341 21.768 19.3489C21.9902 19.3489 22.203 19.4371 22.3602 19.5942C22.5172 19.7512 22.6054 19.9641 22.6054 20.1863C22.6054 20.4083 22.5172 20.6213 22.3602 20.7783C22.203 20.9353 21.9902 21.0235 21.768 21.0235C21.4144 21.0235 21.0368 20.9713 20.6582 20.8651C20.0302 20.6887 19.2563 21.1025 19.2563 21.7549V26.3261C19.2559 27.1317 18.9875 27.9143 18.4932 28.5505C17.999 29.1867 17.3071 29.6403 16.5266 29.8397C15.746 30.0393 14.9213 29.9733 14.1825 29.6523C13.4436 29.3313 12.8325 28.7735 12.4457 28.0669C12.0588 27.3601 11.9182 26.5449 12.0459 25.7495C12.1736 24.9541 12.5624 24.2237 13.151 23.6737C13.7396 23.1237 14.4945 22.7853 15.2968 22.7117C15.6093 22.6829 15.9222 22.6951 16.2278 22.7463C16.851 22.8507 17.5818 22.4387 17.5818 21.8067V16.8371C17.5818 16.6151 17.67 16.4021 17.827 16.2451C17.984 16.0881 18.197 15.9999 18.419 15.9999C18.6411 15.9999 18.854 16.0881 19.0111 16.2451Z" fill="url(#paint1_linear_415_600)"/>
<defs>
<linearGradient id="paint0_linear_415_600" x1="18.7978" y1="20.0928" x2="18.7978" y2="2.00001" gradientUnits="userSpaceOnUse">
<stop stop-color="#A93AFF"/>
<stop offset="1" stop-color="#FF81FF"/>
</linearGradient>
<linearGradient id="paint1_linear_415_600" x1="24.0008" y1="45.9999" x2="24.0008" y2="8.81836" gradientUnits="userSpaceOnUse">
<stop stop-color="#A93AFF"/>
<stop offset="1" stop-color="#FF81FF"/>
</linearGradient>
</defs>
</svg>
