<svg width="48" height="48" viewBox="0 0 48 48" fill="none" xmlns="http://www.w3.org/2000/svg">
<path opacity="0.4" d="M34.7458 8.85267H28.271C26.658 8.86333 25.1266 8.14583 24.1044 6.90053L21.9722 3.95279C20.9672 2.69655 19.4358 1.97568 17.8252 2.00063H13.2478C5.03204 2.00063 2.00002 6.82243 2.00002 15.0214L2 20C1.98979 20.9746 18.9972 13.9734 19 13L23.9936 11.3074C26 12 39 10 34.7458 8.85267Z" fill="url(#paint0_linear_415_517)"/>
<path fill-rule="evenodd" clip-rule="evenodd" d="M45.0348 14.7871C44.6784 13.7652 44.1346 12.8185 43.4306 11.9955C43.2094 11.7356 42.9674 11.4941 42.707 11.2732C40.4456 9.49472 37.5964 8.63058 34.726 8.85258H13.2086C8.08354 8.85258 4.95376 10.5119 3.42798 13.772C2.9129 14.8283 2.55068 15.9522 2.3521 17.1102C2.3521 17.3786 2.2986 17.647 2.24416 17.9203C2.2115 18.0841 2.1785 18.2497 2.1565 18.4181C2.05186 19.3776 1.99962 20.342 2 21.3072V32.864C1.99958 33.8382 2.07808 34.811 2.23474 35.7726C2.48112 37.4722 3.06646 39.1052 3.95612 40.575C4.3614 41.2844 4.85428 41.9402 5.42322 42.527C8.03816 44.9186 11.5051 46.1634 15.0473 45.9824H32.9264C36.463 46.1646 39.9242 44.9194 42.5308 42.527C43.1066 41.9414 43.6062 41.2854 44.0176 40.575C44.9126 39.104 45.5106 37.4726 45.778 35.7726C45.9184 34.8094 45.9904 33.8374 45.9932 32.864V21.3072C46.06 19.0946 45.7356 16.8874 45.0348 14.7871ZM30.1452 38.9452C31.2 37.8916 31.2 36.1936 31.2 32.8V28.792C29.4276 28.1896 27.0504 27.7 24 27.7C20.9496 27.7 18.5724 28.1896 16.8 28.792V32.8C16.8 36.1936 16.8 37.8916 17.8548 38.9452C18.9084 40 20.6064 40 24 40C27.3936 40 29.0916 40 30.1452 38.9452ZM30.144 17.0548C29.0916 16 27.3948 16 24 16C20.6052 16 18.9084 16 17.8536 17.0548C17.2632 17.6452 17.0028 18.4384 16.8888 19.618C17.5608 19.6 18.3024 19.6 19.116 19.6H28.8852C29.6988 19.6 30.4404 19.6 31.1112 19.618C30.9972 18.4384 30.7368 17.6452 30.1464 17.0548H30.144ZM13.0548 21.8548C14.1084 20.8 15.8064 20.8 19.2 20.8H28.8C32.1936 20.8 33.8916 20.8 34.9452 21.8548C36 22.9084 36 24.6064 36 28C36 31.3936 36 33.0916 34.9452 34.1452C34.3548 34.7368 33.5616 34.996 32.382 35.11C32.4 34.4392 32.4 33.6976 32.4 32.8852V29.2504C32.4774 29.2838 32.5546 29.3178 32.6316 29.3524C32.74 29.4046 32.8576 29.4344 32.9776 29.4402C33.0976 29.4462 33.2176 29.428 33.3306 29.3868C33.4434 29.3454 33.547 29.282 33.635 29.2002C33.723 29.1182 33.7936 29.0196 33.8428 28.9098C33.892 28.8002 33.9188 28.6818 33.9216 28.5616C33.9242 28.4414 33.9028 28.322 33.8586 28.2102C33.8144 28.0984 33.7482 27.9966 33.664 27.911C33.5798 27.8252 33.4794 27.757 33.3684 27.7108C31.302 26.7832 28.224 25.8988 24 25.8988C19.776 25.8988 16.698 26.7832 14.6316 27.7108C14.4202 27.8124 14.2569 27.9926 14.1764 28.213C14.0959 28.4334 14.1046 28.6764 14.2007 28.8904C14.2967 29.1044 14.4725 29.2724 14.6906 29.3588C14.9087 29.445 15.1519 29.4428 15.3684 29.3524L15.6 29.2504V32.8852C15.6 33.6976 15.6 34.4392 15.618 35.11C14.4384 34.9972 13.6452 34.7368 13.0548 34.1452C12 33.0916 12 31.3936 12 28C12 24.6064 12 22.9084 13.0548 21.8548Z" fill="url(#paint1_linear_415_517)"/>
<defs>
<linearGradient id="paint0_linear_415_517" x1="18.7978" y1="20.0928" x2="18.7978" y2="2.00001" gradientUnits="userSpaceOnUse">
<stop stop-color="#5570FF"/>
<stop offset="1" stop-color="#4DD3FF"/>
</linearGradient>
<linearGradient id="paint1_linear_415_517" x1="24.0008" y1="46" x2="24.0008" y2="8.81836" gradientUnits="userSpaceOnUse">
<stop stop-color="#5570FF"/>
<stop offset="1" stop-color="#4DD3FF"/>
</linearGradient>
</defs>
</svg>
