<svg width="48" height="48" viewBox="0 0 48 48" fill="none" xmlns="http://www.w3.org/2000/svg">
<path opacity="0.4" d="M34.7458 8.85267H28.271C26.658 8.86333 25.1266 8.14583 24.1044 6.90053L21.9722 3.95279C20.9672 2.69655 19.4358 1.97568 17.8252 2.00063H13.2478C5.03204 2.00063 2.00002 6.82243 2.00002 15.0214L2 20C1.98979 20.9746 18.9972 13.9734 19 13L23.9936 11.3074C26 12 39 10 34.7458 8.85267Z" fill="url(#paint0_linear_415_469)"/>
<path fill-rule="evenodd" clip-rule="evenodd" d="M43.4306 11.9955C44.1346 12.8185 44.6784 13.7652 45.0348 14.7871C45.7356 16.8874 46.06 19.0946 45.9932 21.3073V32.8639C45.9904 33.8375 45.9184 34.8095 45.778 35.7727C45.5106 37.4727 44.9126 39.1041 44.0176 40.5749C43.6062 41.2855 43.1066 41.9413 42.5308 42.5271C39.9242 44.9195 36.463 46.1647 32.9264 45.9825H15.0473C11.5051 46.1633 8.03816 44.9187 5.42322 42.5271C4.85428 41.9403 4.3614 41.2843 3.95612 40.5749C3.06646 39.1051 2.48112 37.4721 2.23474 35.7727C2.07808 34.8111 1.99958 33.8383 2 32.8639V21.3073C1.99962 20.3421 2.05186 19.3776 2.1565 18.4181C2.1785 18.2498 2.2115 18.0841 2.24416 17.9203C2.2986 17.6471 2.3521 17.3786 2.3521 17.1102C2.55068 15.9522 2.9129 14.8283 3.42798 13.772C4.95376 10.5119 8.08354 8.85258 13.2086 8.85258H34.726C37.5964 8.63058 40.4456 9.49472 42.707 11.2732C42.9674 11.4941 43.2094 11.7356 43.4306 11.9955ZM24 39.9999C30.6276 39.9999 36 34.6287 36 27.9999C36 21.3735 30.6276 15.9999 24 15.9999C17.3724 15.9999 12 21.3735 12 27.9999C12 34.6287 17.3724 39.9999 24 39.9999Z" fill="url(#paint1_linear_415_469)"/>
<path d="M28.5969 34C28.4201 34 28.2419 33.9542 28.0785 33.8582L22.7785 30.6966C22.4735 30.513 22.2859 30.1822 22.2859 29.8258V23.0124C22.2859 22.4536 22.7393 22 23.2983 22C23.8571 22 24.3107 22.4536 24.3107 23.0124V29.2508L29.1167 32.1168C29.5959 32.4044 29.7539 33.0254 29.4677 33.506C29.2773 33.8232 28.9413 34 28.5969 34Z" fill="url(#paint2_linear_415_469)"/>
<path d="M28.5969 34C28.4201 34 28.2419 33.9542 28.0785 33.8582L22.7785 30.6966C22.4735 30.513 22.2859 30.1822 22.2859 29.8258V23.0124C22.2859 22.4536 22.7393 22 23.2983 22C23.8571 22 24.3107 22.4536 24.3107 23.0124V29.2508L29.1167 32.1168C29.5959 32.4044 29.7539 33.0254 29.4677 33.506C29.2773 33.8232 28.9413 34 28.5969 34Z" stroke="url(#paint3_linear_415_469)"/>
<defs>
<linearGradient id="paint0_linear_415_469" x1="18.7978" y1="20.0928" x2="18.7978" y2="2.00001" gradientUnits="userSpaceOnUse">
<stop stop-color="#FD5900"/>
<stop offset="1" stop-color="#FFDE00"/>
</linearGradient>
<linearGradient id="paint1_linear_415_469" x1="24.0008" y1="45.9999" x2="24.0008" y2="8.81836" gradientUnits="userSpaceOnUse">
<stop stop-color="#FD5900"/>
<stop offset="1" stop-color="#FFDE00"/>
</linearGradient>
<linearGradient id="paint2_linear_415_469" x1="25.9481" y1="34" x2="25.9481" y2="22" gradientUnits="userSpaceOnUse">
<stop stop-color="#FD5900"/>
<stop offset="1" stop-color="#FFDE00"/>
</linearGradient>
<linearGradient id="paint3_linear_415_469" x1="25.9481" y1="34" x2="25.9481" y2="22" gradientUnits="userSpaceOnUse">
<stop stop-color="#FD5900"/>
<stop offset="1" stop-color="#FFDE00"/>
</linearGradient>
</defs>
</svg>
