<svg width="48" height="48" viewBox="0 0 48 48" fill="none" xmlns="http://www.w3.org/2000/svg">
<path opacity="0.4" d="M34.7458 8.85267H28.271C26.658 8.86333 25.1266 8.14583 24.1044 6.90053L21.9722 3.95279C20.9672 2.69655 19.4358 1.97568 17.8252 2.00063H13.2478C5.03204 2.00063 2.00002 6.82243 2.00002 15.0214L2 20C1.98979 20.9746 18.9972 13.9734 19 13L23.9936 11.3074C26 12 39 10 34.7458 8.85267Z" fill="url(#paint0_linear_415_577)"/>
<path fill-rule="evenodd" clip-rule="evenodd" d="M45.0348 14.7871C44.6784 13.7652 44.1346 12.8185 43.4306 11.9955C43.2094 11.7356 42.9674 11.4941 42.707 11.2732C40.4456 9.49472 37.5964 8.63058 34.726 8.85258H13.2086C8.08354 8.85258 4.95374 10.5119 3.42798 13.772C2.9129 14.8283 2.55068 15.9522 2.3521 17.1102C2.3521 17.3786 2.2986 17.6471 2.24416 17.9203C2.2115 18.0841 2.1785 18.2498 2.1565 18.4181C2.05186 19.3776 1.99962 20.3421 2 21.3073V32.8639C1.99958 33.8383 2.07808 34.8111 2.23474 35.7727C2.48112 37.4721 3.06644 39.1051 3.95612 40.5749C4.3614 41.2843 4.85428 41.9403 5.42322 42.5271C8.03816 44.9187 11.5051 46.1633 15.0473 45.9825H32.9264C36.463 46.1647 39.9242 44.9195 42.5308 42.5271C43.1066 41.9413 43.6062 41.2855 44.0176 40.5749C44.9124 39.1041 45.5106 37.4727 45.778 35.7727C45.9184 34.8095 45.9904 33.8375 45.9932 32.8639V21.3073C46.06 19.0946 45.7356 16.8874 45.0348 14.7871ZM17.9431 21.7625C18.1268 21.5949 18.2373 21.3617 18.2506 21.1135C18.264 20.8653 18.1792 20.6217 18.0146 20.4353C17.85 20.2489 17.6187 20.1349 17.3707 20.1175C17.1227 20.1001 16.8778 20.1811 16.6888 20.3427C15.5117 21.3787 14.569 22.6541 13.9239 24.0833C13.2787 25.5127 12.9458 27.0633 12.9474 28.6315C12.9474 28.8827 13.0472 29.1237 13.2248 29.3013C13.4025 29.4791 13.6435 29.5789 13.8947 29.5789C14.146 29.5789 14.387 29.4791 14.5646 29.3013C14.7423 29.1237 14.8421 28.8827 14.8421 28.6315C14.8405 27.3317 15.1162 26.0467 15.651 24.8621C16.1858 23.6775 16.9672 22.6207 17.9431 21.7625ZM31.3112 20.3427C31.1222 20.1811 30.8774 20.1001 30.6292 20.1175C30.3812 20.1349 30.15 20.2489 29.9854 20.4353C29.8208 20.6217 29.736 20.8653 29.7494 21.1135C29.7628 21.3617 29.8732 21.5949 30.0568 21.7625C31.0328 22.6207 31.8142 23.6775 32.349 24.8621C32.8838 26.0467 33.1596 27.3317 33.1578 28.6315C33.1578 28.8827 33.2576 29.1237 33.4354 29.3013C33.613 29.4791 33.854 29.5789 34.1052 29.5789C34.3566 29.5789 34.5974 29.4791 34.7752 29.3013C34.9528 29.1237 35.0526 28.8827 35.0526 28.6315C35.0542 27.0633 34.7214 25.5127 34.0762 24.0833C33.431 22.6541 32.4884 21.3787 31.3112 20.3427ZM21.7098 37.5013C21.5882 37.4663 21.4606 37.4559 21.3348 37.4711C21.209 37.4861 21.0876 37.5263 20.9776 37.5891C20.8676 37.6519 20.7714 37.7363 20.6944 37.8369C20.6176 37.9377 20.5618 38.0527 20.5302 38.1753C20.4986 38.2981 20.4918 38.4259 20.5106 38.5511C20.5292 38.6765 20.5728 38.7967 20.6388 38.9049C20.7046 39.0131 20.7916 39.1069 20.8944 39.1809C20.9974 39.2547 21.114 39.3073 21.2374 39.3355C23.0496 39.8019 24.9504 39.8019 26.7626 39.3355C26.886 39.3073 27.0026 39.2547 27.1056 39.1809C27.2084 39.1069 27.2954 39.0131 27.3612 38.9049C27.4272 38.7967 27.4708 38.6765 27.4894 38.5511C27.508 38.4259 27.5014 38.2981 27.4698 38.1753C27.4382 38.0527 27.3824 37.9377 27.3054 37.8369C27.2286 37.7363 27.1324 37.6519 27.0224 37.5891C26.9124 37.5263 26.791 37.4861 26.6652 37.4711C26.5394 37.4559 26.4118 37.4663 26.29 37.5013C25.5418 37.6933 24.7724 37.7901 24 37.7893C23.2276 37.7895 22.4582 37.6927 21.7098 37.5013ZM21.3204 22.4689C20.6098 21.7583 20.2106 20.7945 20.2106 19.7894C20.2106 18.7843 20.6098 17.8205 21.3204 17.1098C22.0312 16.3991 22.995 15.9999 24 15.9999C25.005 15.9999 25.9688 16.3991 26.6796 17.1098C27.3902 17.8205 27.7894 18.7843 27.7894 19.7894C27.7894 20.7945 27.3902 21.7583 26.6796 22.4689C25.9688 23.1797 25.005 23.5789 24 23.5789C22.995 23.5789 22.0312 23.1797 21.3204 22.4689ZM12.2885 36.3975C12.098 35.9377 12 35.4449 12 34.9473C12 33.9423 12.3992 32.9783 13.1099 32.2677C13.8206 31.5571 14.7844 31.1577 15.7895 31.1577C16.7945 31.1577 17.7584 31.5571 18.469 32.2677C19.1797 32.9783 19.5789 33.9423 19.5789 34.9473C19.5789 35.4449 19.4809 35.9377 19.2905 36.3975C19.1001 36.8571 18.8209 37.2749 18.469 37.6269C18.1172 37.9787 17.6994 38.2579 17.2396 38.4483C16.7799 38.6387 16.2871 38.7367 15.7895 38.7367C15.2918 38.7367 14.7991 38.6387 14.3393 38.4483C13.8795 38.2579 13.4618 37.9787 13.1099 37.6269C12.758 37.2749 12.4789 36.8571 12.2885 36.3975ZM29.531 37.6269C30.2416 38.3375 31.2054 38.7367 32.2106 38.7367C33.2156 38.7367 34.1794 38.3375 34.89 37.6269C35.6008 36.9161 36 35.9523 36 34.9473C36 33.9423 35.6008 32.9783 34.89 32.2677C34.1794 31.5571 33.2156 31.1577 32.2106 31.1577C31.2054 31.1577 30.2416 31.5571 29.531 32.2677C28.8202 32.9783 28.421 33.9423 28.421 34.9473C28.421 35.9523 28.8202 36.9161 29.531 37.6269Z" fill="url(#paint1_linear_415_577)"/>
<defs>
<linearGradient id="paint0_linear_415_577" x1="2.00001" y1="20.0928" x2="31.1472" y2="-3.49651" gradientUnits="userSpaceOnUse">
<stop stop-color="#0357D1"/>
<stop offset="1" stop-color="#27CDFC"/>
</linearGradient>
<linearGradient id="paint1_linear_415_577" x1="2" y1="45.9999" x2="51.9032" y2="20.2595" gradientUnits="userSpaceOnUse">
<stop stop-color="#0357D1"/>
<stop offset="1" stop-color="#27CDFC"/>
</linearGradient>
</defs>
</svg>
