<svg width="48" height="48" viewBox="0 0 48 48" fill="none" xmlns="http://www.w3.org/2000/svg">
<path opacity="0.4" d="M34.7458 8.85267H28.271C26.658 8.86333 25.1266 8.14583 24.1044 6.90053L21.9722 3.95279C20.9672 2.69655 19.4358 1.97568 17.8252 2.00063H13.2478C5.03204 2.00063 2.00002 6.82243 2.00002 15.0214L2 20C1.98979 20.9746 18.9972 13.9734 19 13L23.9936 11.3074C26 12 39 10 34.7458 8.85267Z" fill="url(#paint0_linear_415_500)"/>
<path fill-rule="evenodd" clip-rule="evenodd" d="M43.4306 11.9955C44.1346 12.8185 44.6784 13.7652 45.0348 14.7871C45.7356 16.8874 46.06 19.0946 45.9932 21.3072V32.864C45.9904 33.8374 45.9184 34.8094 45.778 35.7726C45.5106 37.4726 44.9126 39.104 44.0176 40.575C43.6062 41.2854 43.1066 41.9414 42.5308 42.527C39.9242 44.9194 36.463 46.1646 32.9264 45.9824H15.0473C11.5051 46.1634 8.03816 44.9186 5.42322 42.527C4.85428 41.9402 4.3614 41.2844 3.95612 40.575C3.06646 39.1052 2.48112 37.4722 2.23474 35.7726C2.07808 34.811 1.99958 33.8382 2 32.864V21.3072C1.99962 20.342 2.05186 19.3776 2.1565 18.4181C2.1785 18.2497 2.2115 18.0841 2.24416 17.9203C2.2986 17.647 2.3521 17.3786 2.3521 17.1102C2.55068 15.9522 2.9129 14.8283 3.42798 13.772C4.95376 10.5119 8.08354 8.85258 13.2086 8.85258H34.726C37.5964 8.63058 40.4456 9.49472 42.707 11.2732C42.9674 11.4941 43.2094 11.7356 43.4306 11.9955ZM24.3852 26.4444H27.4962C28.471 26.4444 28.9626 26.4444 29.2674 26.7472C29.5702 27.0522 29.5702 27.5416 29.5702 28.5186C29.5702 29.4954 29.5702 29.985 29.2674 30.2898C28.9626 30.5926 28.4732 30.5926 27.4962 30.5926H26.4592C25.4822 30.5926 24.9928 30.5926 24.688 30.2898C24.3852 29.985 24.3852 29.4954 24.3852 28.5186V26.4444ZM24.3852 22.2962H21.274C20.2972 22.2962 19.8077 22.2962 19.5027 22.5992C19.2 22.904 19.2 23.3956 19.2 24.3704C19.2 25.3452 19.2 25.8368 19.5027 26.1416C19.8077 26.4444 20.2992 26.4444 21.274 26.4444H24.3852V22.2962ZM24.3852 18.1481V22.2962H27.4962C28.4732 22.2962 28.9626 22.2962 29.2674 21.9934C29.5702 21.6886 29.5702 21.1992 29.5702 20.2222C29.5702 19.2453 29.5702 18.7559 29.2674 18.451C28.9626 18.1481 28.471 18.1481 27.4962 18.1481H24.3852ZM24.3852 18.1481H21.274C20.2992 18.1481 19.8077 18.1481 19.5027 17.8453C19.2 17.5404 19.2 17.051 19.2 16.0741V14.0062L24.3852 14V18.1481ZM19.2 36.5556V36.8148C19.2 38.19 19.7462 39.5088 20.7186 40.4812C21.691 41.4538 23.01 42 24.3852 42C25.7604 42 27.0792 41.4538 28.0516 40.4812C29.024 39.5088 29.5702 38.19 29.5702 36.8148V36.5556C29.5702 35.5538 28.7572 34.7408 27.7554 34.7408H21.0148C20.013 34.7408 19.2 35.5538 19.2 36.5556Z" fill="url(#paint1_linear_415_500)"/>
<defs>
<linearGradient id="paint0_linear_415_500" x1="2" y1="11.0464" x2="35.5956" y2="11.0464" gradientUnits="userSpaceOnUse">
<stop stop-color="#02AA93"/>
<stop offset="1" stop-color="#67FF80"/>
</linearGradient>
<linearGradient id="paint1_linear_415_500" x1="2" y1="27.4092" x2="46.0018" y2="27.4092" gradientUnits="userSpaceOnUse">
<stop stop-color="#02AA93"/>
<stop offset="1" stop-color="#67FF80"/>
</linearGradient>
</defs>
</svg>
