<svg width="48" height="48" viewBox="0 0 48 48" fill="none" xmlns="http://www.w3.org/2000/svg">
<path opacity="0.4" d="M34.7458 8.85267H28.271C26.658 8.86333 25.1266 8.14583 24.1044 6.90053L21.9722 3.95279C20.9672 2.69655 19.4358 1.97568 17.8252 2.00063H13.2478C5.03204 2.00063 2.00002 6.82243 2.00002 15.0214L2 20C1.98979 20.9746 18.9972 13.9734 19 13L23.9936 11.3074C26 12 39 10 34.7458 8.85267Z" fill="url(#paint0_linear_415_550)"/>
<path fill-rule="evenodd" clip-rule="evenodd" d="M43.4306 11.9955C44.1346 12.8185 44.6784 13.7652 45.0348 14.7871C45.7356 16.8874 46.06 19.0946 45.9932 21.3072V32.864C45.9904 33.8374 45.9184 34.8094 45.778 35.7726C45.5106 37.4726 44.9124 39.104 44.0176 40.575C43.6062 41.2854 43.1066 41.9414 42.5308 42.527C39.9242 44.9194 36.463 46.1646 32.9264 45.9824H15.0473C11.5051 46.1634 8.03816 44.9186 5.42322 42.527C4.85428 41.9402 4.3614 41.2844 3.95612 40.575C3.06644 39.1052 2.48112 37.4722 2.23474 35.7726C2.07808 34.811 1.99958 33.8382 2 32.864V21.3072C1.99962 20.342 2.05186 19.3776 2.1565 18.4181C2.1785 18.2497 2.2115 18.0841 2.24416 17.9203C2.2986 17.647 2.3521 17.3786 2.3521 17.1102C2.55068 15.9522 2.9129 14.8283 3.42798 13.772C4.95374 10.5119 8.08354 8.85258 13.2086 8.85258H34.726C37.5964 8.63058 40.4456 9.49472 42.707 11.2732C42.9674 11.4941 43.2094 11.7356 43.4306 11.9955ZM24.486 29.476C23.6884 29.9738 22.4456 29.8232 21.7306 29.2454L21.6898 29.2108L19.5321 33.1698C19.4473 33.3252 19.5125 33.5204 19.6763 33.5874C20.7624 34.0326 21.9252 34.2644 23.101 34.2694C24.4456 34.2694 25.7332 33.9788 26.8986 33.4572L24.486 29.476ZM19.326 27.2014L18.9002 26.8396C18.7641 26.7238 18.6856 26.5542 18.6856 26.3756V23.6122V22.0898V20.5674C18.6856 19.7239 19.3646 19.0449 20.208 19.0449H21.1216C21.4578 19.0449 21.7306 18.7722 21.7306 18.4359V16.609C21.7306 16.2726 22.0032 16 22.3394 16H24.1664C24.5028 16 24.7754 16.2726 24.7754 16.609V18.4359C24.7754 18.7722 25.048 19.0449 25.3844 19.0449H26.2978C27.1414 19.0449 27.8204 19.7239 27.8204 20.5674V22.0898V23.6122V26.3756C27.8204 26.5542 27.742 26.7238 27.6058 26.8396L26.9064 27.4342L29.4752 31.7476C31.1898 30.1492 32.2984 27.9196 32.3828 25.4398C32.3884 25.2718 32.5242 25.1348 32.6924 25.1348H35.1284C35.2964 25.1348 35.4332 25.272 35.429 25.44C35.3382 29.0312 33.6504 32.2366 31.0602 34.4092L32.3104 36.5084C32.3358 36.551 32.3504 36.5994 32.3528 36.649L32.5052 39.6792C32.5184 39.942 32.2146 40.0966 32.0098 39.9312L29.7262 38.0878C29.6988 38.0656 29.6754 38.0388 29.6572 38.0086L28.4864 36.0768C26.8524 36.8694 25.0224 37.3142 23.101 37.3142C21.3936 37.3104 19.7071 36.9476 18.1508 36.2508C18.0041 36.185 17.8305 36.2402 17.7523 36.3806L16.8496 38.003C16.8306 38.0372 16.8052 38.0674 16.7748 38.092L14.4958 39.9316C14.291 40.097 13.9872 39.9424 14.0004 39.6796L14.153 36.6442C14.1553 36.598 14.1682 36.553 14.1905 36.5124L19.326 27.2014ZM23.253 25.1348C24.0938 25.1348 24.7754 24.453 24.7754 23.6122C24.7754 22.7714 24.0938 22.0898 23.253 22.0898C22.4122 22.0898 21.7306 22.7714 21.7306 23.6122C21.7306 24.453 22.4122 25.1348 23.253 25.1348Z" fill="url(#paint1_linear_415_550)"/>
<defs>
<linearGradient id="paint0_linear_415_550" x1="16.5066" y1="1.58881" x2="16.9495" y2="22.5828" gradientUnits="userSpaceOnUse">
<stop stop-color="#F9D423"/>
<stop offset="0.515624" stop-color="#FF4E50"/>
<stop offset="0.991304" stop-color="#8A2387"/>
</linearGradient>
<linearGradient id="paint1_linear_415_550" x1="21" y1="7.97332" x2="22.4272" y2="51.089" gradientUnits="userSpaceOnUse">
<stop stop-color="#F9D423"/>
<stop offset="0.515624" stop-color="#FF4E50"/>
<stop offset="0.991304" stop-color="#8A2387"/>
</linearGradient>
</defs>
</svg>
