<svg width="48" height="48" viewBox="0 0 48 48" fill="none" xmlns="http://www.w3.org/2000/svg">
<path opacity="0.4" d="M34.7458 8.85267H28.271C26.658 8.86333 25.1266 8.14583 24.1044 6.90053L21.9722 3.95279C20.9672 2.69655 19.4358 1.97568 17.8252 2.00063H13.2478C5.03204 2.00063 2.00002 6.82243 2.00002 15.0214L2 20C1.98979 20.9746 18.9972 13.9734 19 13L23.9936 11.3074C26 12 39 10 34.7458 8.85267Z" fill="url(#paint0_linear_415_532)"/>
<path fill-rule="evenodd" clip-rule="evenodd" d="M43.4306 11.9955C44.1346 12.8185 44.6784 13.7652 45.0348 14.7871C45.7356 16.8874 46.06 19.0946 45.9932 21.3073V32.8639C45.9904 33.8375 45.9184 34.8095 45.778 35.7727C45.5106 37.4727 44.9124 39.1041 44.0176 40.5749C43.6062 41.2855 43.1066 41.9413 42.5308 42.5271C39.9242 44.9195 36.463 46.1647 32.9264 45.9825H15.0473C11.5051 46.1633 8.03816 44.9187 5.42322 42.5271C4.85428 41.9403 4.3614 41.2843 3.95612 40.5749C3.06644 39.1051 2.48112 37.4721 2.23474 35.7727C2.07808 34.8111 1.99958 33.8383 2 32.8639V21.3073C1.99962 20.3421 2.05186 19.3776 2.1565 18.4181C2.1785 18.2498 2.2115 18.0841 2.24416 17.9203C2.2986 17.6471 2.3521 17.3786 2.3521 17.1102C2.55068 15.9522 2.9129 14.8283 3.42798 13.772C4.95374 10.5119 8.08354 8.85258 13.2086 8.85258H34.726C37.5964 8.63058 40.4456 9.49472 42.707 11.2732C42.9674 11.4941 43.2094 11.7356 43.4306 11.9955ZM17.7978 22.4615C17.7978 18.859 20.7766 15.9999 24.4176 15.9999C28.0586 15.9999 31.0374 18.859 31.0374 22.4615V26.2957C31.0374 26.7271 31.387 27.0769 31.8184 27.0769H32.2064C33.6572 27.0769 34.8352 28.2531 34.8352 29.7041V37.3727C34.8352 38.8233 33.6596 39.9999 32.2084 39.9999H16.6271C15.1761 39.9999 14 38.8237 14 37.3727V29.3845C14 28.1099 15.0332 27.0769 16.3077 27.0769H17.0167C17.4481 27.0769 17.7978 26.7271 17.7978 26.2957V22.4615ZM22.2482 20.2951C21.8552 20.6483 21.5428 21.2771 21.5428 22.4615V26.2957C21.5428 26.7271 21.8926 27.0769 22.324 27.0769H26.5112C26.9426 27.0769 27.2924 26.7271 27.2924 26.2957V22.4615C27.2924 21.2769 26.98 20.6483 26.587 20.2951C26.1746 19.9242 25.4926 19.6922 24.4176 19.6922C23.3426 19.6922 22.6606 19.9242 22.2482 20.2951Z" fill="url(#paint1_linear_415_532)"/>
<defs>
<linearGradient id="paint0_linear_415_532" x1="34.4606" y1="2.51715" x2="30.251" y2="22.1448" gradientUnits="userSpaceOnUse">
<stop stop-color="#FE0F7C"/>
<stop offset="1" stop-color="#DF0066"/>
</linearGradient>
<linearGradient id="paint1_linear_415_532" x1="44.5152" y1="9.88112" x2="31.7614" y2="47.7803" gradientUnits="userSpaceOnUse">
<stop stop-color="#FE0F7C"/>
<stop offset="1" stop-color="#DF0066"/>
</linearGradient>
</defs>
</svg>
