<svg width="48" height="48" viewBox="0 0 48 48" fill="none" xmlns="http://www.w3.org/2000/svg">
<path opacity="0.4" d="M34.7458 8.85267H28.271C26.658 8.86333 25.1266 8.14583 24.1044 6.90053L21.9722 3.95279C20.9672 2.69655 19.4358 1.97568 17.8252 2.00063H13.2478C5.03204 2.00063 2.00002 6.82243 2.00002 15.0214L2 20C1.98979 20.9746 18.9972 13.9734 19 13L23.9936 11.3074C26 12 39 10 34.7458 8.85267Z" fill="url(#paint0_linear_415_547)"/>
<path fill-rule="evenodd" clip-rule="evenodd" d="M43.4306 11.9955C44.1346 12.8185 44.6784 13.7652 45.0348 14.7871C45.7356 16.8874 46.06 19.0946 45.9932 21.3072V32.864C45.9904 33.8374 45.9184 34.8094 45.778 35.7726C45.5106 37.4726 44.9124 39.104 44.0176 40.575C43.6062 41.2854 43.1066 41.9414 42.5308 42.527C39.9242 44.9194 36.463 46.1646 32.9264 45.9824H15.0473C11.5051 46.1634 8.03816 44.9186 5.42322 42.527C4.85428 41.9402 4.3614 41.2844 3.95612 40.575C3.06644 39.1052 2.48112 37.4722 2.23474 35.7726C2.07808 34.811 1.99958 33.8382 2 32.864V21.3072C1.99962 20.342 2.05186 19.3776 2.1565 18.4181C2.1785 18.2497 2.2115 18.0841 2.24416 17.9203C2.2986 17.647 2.3521 17.3786 2.3521 17.1102C2.55068 15.9522 2.9129 14.8283 3.42798 13.772C4.95374 10.5119 8.08354 8.85258 13.2086 8.85258H34.726C37.5964 8.63058 40.4456 9.49472 42.707 11.2732C42.9674 11.4941 43.2094 11.7356 43.4306 11.9955ZM22 20V18H24V20H22ZM26 20V18H28V20H26ZM31.336 23.789C31.0092 22.5614 31.4912 21.2612 32.539 20.543C33.8042 20.6432 34.8694 21.5284 35.1992 22.754C35.356 23.3398 35.3314 23.9596 35.129 24.5312C35.6274 24.187 36.2184 24.0018 36.8242 24C38.094 24.0018 39.2252 24.8028 39.6484 26C39.2252 27.1972 38.094 27.9982 36.8242 28C35.5544 27.9982 34.4232 27.1972 34 26C32.7334 25.9014 31.6662 25.0158 31.336 23.789ZM34 26C34 32.6274 28.6274 36 22 36C15.3726 36 10 32.6274 10 26H34ZM16 24V22H18V24H16ZM20 24V22H22V24H20ZM24 24V22H26V24H24ZM28 24V22H30V24H28ZM16 29C16 28.4478 15.5523 28 15 28C14.4477 28 14 28.4478 14 29C14 29.5522 14.4477 30 15 30C15.5523 30 16 29.5522 16 29Z" fill="url(#paint1_linear_415_547)"/>
<defs>
<linearGradient id="paint0_linear_415_547" x1="2.08614" y1="8.00739" x2="15.7177" y2="27.0768" gradientUnits="userSpaceOnUse">
<stop stop-color="#0084C8"/>
<stop offset="1" stop-color="#23B4FF"/>
</linearGradient>
<linearGradient id="paint1_linear_415_547" x1="2.11282" y1="21.1638" x2="31.5256" y2="47.3874" gradientUnits="userSpaceOnUse">
<stop stop-color="#0084C8"/>
<stop offset="1" stop-color="#23B4FF"/>
</linearGradient>
</defs>
</svg>
