<svg width="48" height="48" viewBox="0 0 48 48" fill="none" xmlns="http://www.w3.org/2000/svg">
<path opacity="0.4" d="M34.7458 8.85267H28.271C26.658 8.86333 25.1266 8.14583 24.1044 6.90053L21.9722 3.95279C20.9672 2.69655 19.4358 1.97568 17.8252 2.00063H13.2478C5.03204 2.00063 2.00002 6.82243 2.00002 15.0214L2 20C1.98979 20.9746 18.9972 13.9734 19 13L23.9936 11.3074C26 12 39 10 34.7458 8.85267Z" fill="url(#paint0_radial_415_589)"/>
<path fill-rule="evenodd" clip-rule="evenodd" d="M43.4306 11.9955C44.1346 12.8185 44.6784 13.7652 45.0348 14.7871C45.7356 16.8874 46.06 19.0946 45.9932 21.3073V32.8639C45.9904 33.8375 45.9184 34.8095 45.778 35.7727C45.5106 37.4727 44.9124 39.1041 44.0176 40.5749C43.6062 41.2855 43.1066 41.9413 42.5308 42.5271C39.9242 44.9195 36.463 46.1647 32.9264 45.9825H15.0473C11.5051 46.1633 8.03816 44.9187 5.42322 42.5271C4.85428 41.9403 4.3614 41.2843 3.95612 40.5749C3.06644 39.1051 2.48112 37.4721 2.23474 35.7727C2.07808 34.8111 1.99958 33.8383 2 32.8639V21.3073C1.99962 20.3421 2.05186 19.3776 2.1565 18.4181C2.1785 18.2498 2.2115 18.0841 2.24416 17.9203C2.2986 17.6471 2.3521 17.3786 2.3521 17.1102C2.55068 15.9522 2.9129 14.8283 3.42798 13.772C4.95374 10.5119 8.08354 8.85258 13.2086 8.85258H34.726C37.5964 8.63058 40.4456 9.49472 42.707 11.2732C42.9674 11.4941 43.2094 11.7356 43.4306 11.9955ZM22.3998 21.3607L21.7976 20.9347C20.9378 20.3263 19.9107 19.9998 18.8577 19.9999H18.1233C17.6374 19.9999 17.1478 20.0299 16.6906 20.1919C13.8312 21.2071 11.8645 24.9137 12.0073 33.3227C12.0361 35.0171 12.4321 36.8889 13.9608 37.6197C14.4823 37.8703 15.0537 38.0001 15.6323 37.9989C16.2826 38.0095 16.9216 37.8271 17.4682 37.4745C17.9601 37.1529 18.3921 36.7353 18.8241 36.3177C19.3568 35.8017 19.8896 35.2859 20.5328 34.9523C21.2336 34.5889 22.0114 34.3991 22.8006 34.3991H25.1994C25.9888 34.3991 26.7664 34.5887 27.4672 34.9511C28.1078 35.2845 28.6388 35.7977 29.1706 36.3115L29.177 36.3177C29.6088 36.7353 30.041 37.1529 30.5306 37.4745C30.9986 37.7817 31.6046 37.9989 32.3678 37.9989C32.9464 38.0001 33.5178 37.8703 34.0392 37.6197C35.568 36.8889 35.9638 35.0159 35.9926 33.3227C36.1354 24.9137 34.1688 21.2071 31.3094 20.1931C30.851 20.0299 30.359 19.9999 29.8754 19.9999H29.141C28.0878 20.0001 27.0608 20.3271 26.2012 20.9359L25.5988 21.3607C25.1312 21.6915 24.5724 21.8693 23.9994 21.8693C23.4264 21.8693 22.8676 21.6915 22.3998 21.3607ZM30.605 24.3635C30.889 24.3635 31.1614 24.4763 31.3624 24.6773C31.5632 24.8781 31.676 25.1505 31.676 25.4347C31.676 25.7187 31.5632 25.9911 31.3624 26.1919C31.1614 26.3929 30.889 26.5057 30.605 26.5057C30.3208 26.5057 30.0484 26.3929 29.8476 26.1919C29.6468 25.9911 29.5338 25.7187 29.5338 25.4347C29.5338 25.1505 29.6468 24.8781 29.8476 24.6773C30.0484 24.4763 30.3208 24.3635 30.605 24.3635ZM17.395 24.7205C17.6791 24.7205 17.9515 24.8335 18.1524 25.0343C18.3533 25.2351 18.4661 25.5075 18.4661 25.7917V26.8627H19.5372C19.8212 26.8627 20.0936 26.9755 20.2946 27.1765C20.4954 27.3773 20.6082 27.6497 20.6082 27.9337C20.6082 28.2179 20.4954 28.4903 20.2946 28.6911C20.0936 28.8921 19.8212 29.0049 19.5372 29.0049H18.4661V30.0759C18.4661 30.3599 18.3533 30.6325 18.1524 30.8333C17.9515 31.0341 17.6791 31.1471 17.395 31.1471C17.111 31.1471 16.8385 31.0341 16.6377 30.8333C16.4368 30.6325 16.324 30.3599 16.324 30.0759V29.0049H15.2529C14.9688 29.0049 14.6964 28.8921 14.4955 28.6911C14.2947 28.4903 14.1818 28.2179 14.1818 27.9337C14.1818 27.6497 14.2947 27.3773 14.4955 27.1765C14.6964 26.9755 14.9688 26.8627 15.2529 26.8627H16.324V25.7917C16.324 25.5075 16.4368 25.2351 16.6377 25.0343C16.8385 24.8335 17.111 24.7205 17.395 24.7205ZM33.8182 27.5767C33.8182 27.8609 33.7054 28.1333 33.5044 28.3341C33.3036 28.5349 33.0312 28.6479 32.747 28.6479C32.463 28.6479 32.1906 28.5349 31.9898 28.3341C31.7888 28.1333 31.676 27.8609 31.676 27.5767C31.676 27.2927 31.7888 27.0203 31.9898 26.8193C32.1906 26.6185 32.463 26.5057 32.747 26.5057C33.0312 26.5057 33.3036 26.6185 33.5044 26.8193C33.7054 27.0203 33.8182 27.2927 33.8182 27.5767ZM28.4628 28.6479C28.7468 28.6479 29.0192 28.5349 29.2202 28.3341C29.421 28.1333 29.5338 27.8609 29.5338 27.5767C29.5338 27.2927 29.421 27.0203 29.2202 26.8193C29.0192 26.6185 28.7468 26.5057 28.4628 26.5057C28.1788 26.5057 27.9062 26.6185 27.7054 26.8193C27.5046 27.0203 27.3918 27.2927 27.3918 27.5767C27.3918 27.8609 27.5046 28.1333 27.7054 28.3341C27.9062 28.5349 28.1788 28.6479 28.4628 28.6479ZM31.676 29.7189C31.676 29.4349 31.5632 29.1625 31.3624 28.9615C31.1614 28.7607 30.889 28.6479 30.605 28.6479C30.3208 28.6479 30.0484 28.7607 29.8476 28.9615C29.6468 29.1625 29.5338 29.4349 29.5338 29.7189C29.5338 30.0029 29.6468 30.2755 29.8476 30.4763C30.0484 30.6771 30.3208 30.7899 30.605 30.7899C30.889 30.7899 31.1614 30.6771 31.3624 30.4763C31.5632 30.2755 31.676 30.0029 31.676 29.7189Z" fill="url(#paint1_radial_415_589)"/>
<defs>
<radialGradient id="paint0_radial_415_589" cx="0" cy="0" r="1" gradientUnits="userSpaceOnUse" gradientTransform="translate(22.7388 0.774464) rotate(78.5501) scale(19.854 24.2912)">
<stop stop-color="#FFF44F"/>
<stop offset="0.06" stop-color="#FFE847"/>
<stop offset="0.168" stop-color="#FFC830"/>
<stop offset="0.304" stop-color="#FF980E"/>
<stop offset="0.356" stop-color="#FF8B16"/>
<stop offset="0.455" stop-color="#FF672A"/>
<stop offset="0.57" stop-color="#FF3647"/>
<stop offset="0.737" stop-color="#E31587"/>
</radialGradient>
<radialGradient id="paint1_radial_415_589" cx="0" cy="0" r="1" gradientUnits="userSpaceOnUse" gradientTransform="translate(75 -5.00012) rotate(150.408) scale(93.1504 74.3764)">
<stop stop-color="#FFF44F"/>
<stop offset="0.06" stop-color="#FFE847"/>
<stop offset="0.168" stop-color="#FFC830"/>
<stop offset="0.304" stop-color="#FF980E"/>
<stop offset="0.356" stop-color="#FF8B16"/>
<stop offset="0.455" stop-color="#FF672A"/>
<stop offset="0.57" stop-color="#FF3647"/>
<stop offset="0.737" stop-color="#E31587"/>
</radialGradient>
</defs>
</svg>
