<svg width="48" height="48" viewBox="0 0 48 48" fill="none" xmlns="http://www.w3.org/2000/svg">
<path opacity="0.4" d="M34.7458 8.85267H28.271C26.658 8.86333 25.1266 8.14583 24.1044 6.90053L21.9722 3.95279C20.9672 2.69655 19.4358 1.97568 17.8252 2.00063H13.2478C5.03204 2.00063 2.00002 6.82243 2.00002 15.0214L2 20C1.98979 20.9746 18.9972 13.9734 19 13L23.9936 11.3074C26 12 39 10 34.7458 8.85267Z" fill="url(#paint0_linear_415_606)"/>
<path fill-rule="evenodd" clip-rule="evenodd" d="M43.4306 11.9955C44.1346 12.8185 44.6784 13.7652 45.0348 14.7871C45.7356 16.8874 46.06 19.0946 45.9932 21.3073V32.8639C45.9904 33.8375 45.9184 34.8095 45.778 35.7727C45.5106 37.4727 44.9124 39.1041 44.0176 40.5749C43.6062 41.2855 43.1066 41.9413 42.5308 42.5271C39.9242 44.9195 36.463 46.1647 32.9264 45.9825H15.0473C11.5051 46.1633 8.03816 44.9187 5.42322 42.5271C4.85428 41.9403 4.3614 41.2843 3.95612 40.5749C3.06644 39.1051 2.48112 37.4721 2.23474 35.7727C2.07808 34.8111 1.99958 33.8383 2 32.8639V21.3073C1.99962 20.3421 2.05186 19.3776 2.1565 18.4181C2.1785 18.2498 2.2115 18.0841 2.24416 17.9203C2.2986 17.6471 2.3521 17.3786 2.3521 17.1102C2.55068 15.9522 2.9129 14.8283 3.42798 13.772C4.95374 10.5119 8.08354 8.85258 13.2086 8.85258H34.726C37.5964 8.63058 40.4456 9.49472 42.707 11.2732C42.9674 11.4941 43.2094 11.7356 43.4306 11.9955ZM23.9998 19.9999C22.4606 19.9999 21.2104 20.4999 19.1153 21.3383L15.8013 22.6631L15.7535 22.6823C14.7095 23.1009 13.8637 23.4401 13.281 23.7459C12.9796 23.9033 12.6894 24.0807 12.4662 24.2961C12.2351 24.5171 12.0007 24.8519 12.0007 25.3019C12.0007 25.7517 12.2362 26.0865 12.4662 26.3075C12.7109 26.5275 12.9847 26.7125 13.2799 26.8577C13.8622 27.1637 14.7054 27.5009 15.7457 27.9171L15.8013 27.9393L19.1153 29.2653L19.1185 29.2667C21.2116 30.1041 22.4602 30.6037 23.9998 30.6037C25.5402 30.6037 26.7902 30.1037 28.883 29.2653L32.1982 27.9405L32.246 27.9213C33.29 27.5027 34.1358 27.1635 34.7186 26.8577C35.02 26.7003 35.3102 26.5229 35.5334 26.3075C35.7644 26.0865 35.9988 25.7517 35.9988 25.3019C35.9988 24.8519 35.7632 24.5171 35.5334 24.2961C35.309 24.0807 35.0188 23.9021 34.7196 23.7459C34.14 23.4413 33.302 23.1057 32.2694 22.6923L32.1992 22.6643L28.8842 21.3383L28.881 21.3369C26.7878 20.4995 25.5394 19.9999 23.9998 19.9999ZM13.3979 29.1449L13.3956 29.1415C13.3136 29.0683 13.218 29.0119 13.1142 28.9755C13.0104 28.9391 12.9004 28.9237 12.7906 28.9299C12.6808 28.9359 12.5732 28.9637 12.4741 29.0115C12.3751 29.0591 12.2863 29.1259 12.213 29.2079C12.1397 29.2899 12.0833 29.3857 12.047 29.4895C12.0107 29.5933 11.9952 29.7031 12.0013 29.8131C12.0138 30.0347 12.1138 30.2425 12.2794 30.3905L12.2817 30.3927L12.2873 30.3973L12.3029 30.4107C12.3119 30.4197 12.3252 30.4309 12.3412 30.4441L12.3531 30.4541C12.6285 30.6767 12.9154 30.8845 13.2126 31.0771C13.8086 31.4633 14.6871 31.9589 15.8513 32.4243L18.9866 33.6789L19.115 33.7301C21.21 34.5685 22.4602 35.0685 23.9994 35.0685C25.5396 35.0685 26.7886 34.5685 28.8822 33.7305L29.0122 33.6789L32.1476 32.4231C33.0682 32.0603 33.9516 31.6091 34.7852 31.0759C35.0828 30.8835 35.37 30.6755 35.6458 30.4531L35.696 30.4095L35.7116 30.3961L35.7172 30.3917L35.7184 30.3895H35.7206C35.8862 30.2415 35.9862 30.0337 35.9986 29.8119C36.0112 29.5901 35.935 29.3725 35.787 29.2069C35.639 29.0413 35.4312 28.9411 35.2094 28.9287C34.9876 28.9163 34.77 28.9925 34.6044 29.1405L34.6022 29.1427L34.5998 29.1437L34.5732 29.1673L34.4414 29.2721C34.258 29.4127 34.0688 29.5455 33.8744 29.6707C33.361 30.0043 32.5784 30.4487 31.5248 30.8695L28.3906 32.1229C26.1302 33.0271 25.1826 33.3931 23.9994 33.3931C22.8162 33.3931 21.8676 33.0271 19.6084 32.1229L16.473 30.8717C15.6533 30.5487 14.8668 30.1473 14.1245 29.6729C13.8735 29.5103 13.6302 29.3331 13.3979 29.1449ZM12.7911 33.4647C13.0119 33.4517 13.2288 33.5267 13.3945 33.6731V33.6709L13.3979 33.6755L13.4258 33.6977C13.65 33.8777 13.8832 34.0461 14.1245 34.2023C14.8669 34.6763 15.6534 35.0775 16.473 35.3999L19.6084 36.6535C21.8676 37.5575 22.8162 37.9237 23.9994 37.9237C25.1826 37.9237 26.1302 37.5575 28.3906 36.6535L31.5248 35.3999C32.5784 34.9791 33.361 34.5349 33.8744 34.2011C34.0688 34.0761 34.258 33.9431 34.4414 33.8027L34.5732 33.6977L34.6 33.6743L34.6022 33.6731L34.6044 33.6709C34.77 33.5245 34.987 33.4495 35.2078 33.4625C35.4286 33.4753 35.6354 33.5751 35.7828 33.7401C35.9302 33.9049 36.0064 34.1215 35.9948 34.3423C35.9832 34.5631 35.8846 34.7705 35.7206 34.9189L35.7184 34.9211L35.7116 34.9267L35.696 34.9401C35.6794 34.9547 35.6626 34.9693 35.6458 34.9837C35.37 35.2061 35.0828 35.4139 34.7852 35.6065C33.9516 36.1401 33.0684 36.5917 32.1476 36.9547L29.0122 38.2093L28.8828 38.2607L28.871 38.2655C26.7842 39.1009 25.537 39.6001 23.9994 39.6001C22.4626 39.6001 21.214 39.1005 19.125 38.2647L19.115 38.2607L18.9867 38.2093L15.8513 36.9547C14.6871 36.4893 13.8086 35.9937 13.2137 35.6075C12.9157 35.4145 12.6891 35.2493 12.5328 35.1299L12.3531 34.9847C12.349 34.9813 12.345 34.9779 12.3412 34.9747C12.3252 34.9613 12.3119 34.9501 12.3029 34.9411L12.2873 34.9277L12.2817 34.9233L12.2795 34.9211C12.1155 34.7727 12.0158 34.5655 12.0041 34.3445C11.9924 34.1237 12.0687 33.9071 12.2161 33.7423C12.3636 33.5775 12.5703 33.4777 12.7911 33.4647Z" fill="url(#paint1_linear_415_606)"/>
<defs>
<linearGradient id="paint0_linear_415_606" x1="3.17744" y1="11.0464" x2="32.3956" y2="4.97119" gradientUnits="userSpaceOnUse">
<stop stop-color="#8D01A2"/>
<stop offset="1" stop-color="#FF00D2"/>
</linearGradient>
<linearGradient id="paint1_linear_415_606" x1="3.54216" y1="27.4091" x2="42.7762" y2="22.2099" gradientUnits="userSpaceOnUse">
<stop stop-color="#8D01A2"/>
<stop offset="1" stop-color="#FF00D2"/>
</linearGradient>
</defs>
</svg>
