<svg width="48" height="48" viewBox="0 0 48 48" fill="none" xmlns="http://www.w3.org/2000/svg">
<path opacity="0.4" d="M34.7458 8.85267H28.271C26.658 8.86333 25.1266 8.14583 24.1044 6.90053L21.9722 3.95279C20.9672 2.69655 19.4358 1.97568 17.8252 2.00063H13.2478C5.03204 2.00063 2.00002 6.82243 2.00002 15.0214L2 20C1.98979 20.9746 18.9972 13.9734 19 13L23.9936 11.3074C26 12 39 10 34.7458 8.85267Z" fill="url(#paint0_linear_415_466)"/>
<path fill-rule="evenodd" clip-rule="evenodd" d="M43.4306 11.9955C44.1346 12.8185 44.6784 13.7652 45.0348 14.7871C45.7356 16.8874 46.06 19.0946 45.9932 21.3073V32.8639C45.9904 33.8375 45.9184 34.8095 45.778 35.7727C45.5106 37.4727 44.9126 39.1041 44.0176 40.5749C43.6062 41.2855 43.1066 41.9413 42.5308 42.5271C39.9242 44.9195 36.463 46.1647 32.9264 45.9825H15.0473C11.5051 46.1633 8.03816 44.9187 5.42322 42.5271C4.85428 41.9403 4.3614 41.2843 3.95612 40.5749C3.06646 39.1051 2.48112 37.4721 2.23474 35.7727C2.07808 34.8111 1.99958 33.8383 2 32.8639V21.3073C1.99962 20.3421 2.05186 19.3776 2.1565 18.4181C2.1785 18.2498 2.2115 18.0841 2.24416 17.9203C2.2986 17.6471 2.3521 17.3786 2.3521 17.1102C2.55068 15.9522 2.9129 14.8283 3.42798 13.772C4.95376 10.5119 8.08354 8.85258 13.2086 8.85258H34.726C37.5964 8.63058 40.4456 9.49472 42.707 11.2732C42.9674 11.4941 43.2094 11.7356 43.4306 11.9955ZM32.9848 29.9415L32.9966 27.1409V27.1381C33.0096 23.8713 33.0162 22.2383 32.3674 20.9985C31.8556 20.0191 31.0684 19.2152 30.1052 18.6887C28.887 18.0238 27.273 18.0171 24.0488 18.0036L24.0436 18.0036C20.8128 17.9894 19.1976 17.983 17.9726 18.64C17.0061 19.1578 16.2129 19.9539 15.6931 20.9277C15.129 21.9861 15.0429 23.3369 15.0216 25.7549L15.0143 27.0673L15.0038 29.8675C14.9895 33.1365 14.9828 34.7701 15.6318 36.0101C16.1436 36.9891 16.9307 37.7925 17.8935 38.3185C19.1112 38.9843 20.7238 38.9915 23.9448 39.0059L23.9572 39.0061C26.8668 39.0175 28.4664 39.0237 29.6504 38.5443C29.7798 38.4923 29.905 38.4343 30.0266 38.3687C30.993 37.8505 31.7862 37.0539 32.3058 36.0795C32.9634 34.8469 32.9706 33.2147 32.9848 29.9541V29.9415ZM19.6784 28.9961C19.6256 29.1233 19.5982 29.2599 19.5976 29.3977C19.5966 29.6761 19.7052 29.9447 19.8988 30.1423C20.0924 30.3399 20.3556 30.4515 20.6304 30.4529L27.5468 30.4815C27.6856 30.4863 27.8238 30.4629 27.9534 30.4127C28.0832 30.3623 28.2014 30.2863 28.3016 30.1889C28.4016 30.0915 28.4814 29.9747 28.536 29.8455C28.5906 29.7165 28.6192 29.5775 28.6198 29.4369C28.6206 29.2965 28.5934 29.1571 28.5398 29.0275C28.4864 28.8979 28.4078 28.7803 28.3086 28.6819C28.2094 28.5837 28.0918 28.5063 27.9626 28.4549C27.8336 28.4033 27.6954 28.3787 27.5566 28.3821L20.64 28.3523C20.5038 28.3517 20.3686 28.3781 20.2426 28.4303C20.1164 28.4825 20.0016 28.5593 19.9048 28.6565C19.808 28.7535 19.7311 28.8689 19.6784 28.9961ZM19.8881 32.8577C19.6929 33.0537 19.5825 33.3201 19.5812 33.5983C19.5806 33.7363 19.6068 33.8729 19.6583 34.0007C19.7099 34.1283 19.7858 34.2445 19.8817 34.3425C19.9776 34.4405 20.0916 34.5183 20.2174 34.5717C20.343 34.6251 20.4778 34.6529 20.614 34.6535L24.7638 34.6701C24.903 34.6755 25.0418 34.6527 25.172 34.6027C25.3022 34.5527 25.4212 34.4767 25.5218 34.3791C25.6224 34.2817 25.7026 34.1645 25.7576 34.0351C25.8124 33.9055 25.8412 33.7661 25.8416 33.6251C25.8422 33.4841 25.8148 33.3443 25.7608 33.2143C25.707 33.0843 25.6278 32.9667 25.528 32.8683C25.4282 32.7699 25.3098 32.6929 25.18 32.6419C25.0502 32.5909 24.9116 32.5667 24.7722 32.5711L20.6222 32.5531C20.3474 32.5521 20.0832 32.6617 19.8881 32.8577Z" fill="url(#paint1_linear_415_466)"/>
<defs>
<linearGradient id="paint0_linear_415_466" x1="18.7978" y1="20.0928" x2="18.7978" y2="2.00001" gradientUnits="userSpaceOnUse">
<stop stop-color="#5570FF"/>
<stop offset="1" stop-color="#4DD3FF"/>
</linearGradient>
<linearGradient id="paint1_linear_415_466" x1="24.0008" y1="45.9999" x2="24.0008" y2="8.81836" gradientUnits="userSpaceOnUse">
<stop stop-color="#5570FF"/>
<stop offset="1" stop-color="#4DD3FF"/>
</linearGradient>
</defs>
</svg>
