<svg width="48" height="48" viewBox="0 0 48 48" fill="none" xmlns="http://www.w3.org/2000/svg">
<path opacity="0.4" d="M34.7458 8.85267H28.271C26.658 8.86333 25.1266 8.14583 24.1044 6.90053L21.9722 3.95279C20.9672 2.69655 19.4358 1.97568 17.8252 2.00063H13.2478C5.03204 2.00063 2.00002 6.82243 2.00002 15.0214L2 20C1.98979 20.9746 18.9972 13.9734 19 13L23.9936 11.3074C26 12 39 10 34.7458 8.85267Z" fill="url(#paint0_linear_415_477)"/>
<path fill-rule="evenodd" clip-rule="evenodd" d="M43.4306 11.9955C44.1346 12.8185 44.6784 13.7652 45.0348 14.7871C45.7356 16.8874 46.06 19.0946 45.9932 21.3072V32.864C45.9904 33.8374 45.9184 34.8094 45.778 35.7726C45.5106 37.4726 44.9124 39.104 44.0176 40.575C43.6062 41.2854 43.1066 41.9414 42.5308 42.527C39.9242 44.9194 36.463 46.1646 32.9264 45.9824H15.0473C11.5051 46.1634 8.03816 44.9186 5.42322 42.527C4.85428 41.9402 4.3614 41.2844 3.95612 40.575C3.06644 39.1052 2.48112 37.4722 2.23474 35.7726C2.07808 34.811 1.99958 33.8382 2 32.864V21.3072C1.99962 20.342 2.05186 19.3776 2.1565 18.4181C2.1785 18.2497 2.2115 18.0841 2.24416 17.9203C2.2986 17.647 2.3521 17.3786 2.3521 17.1102C2.55068 15.9522 2.9129 14.8283 3.42798 13.772C4.95374 10.5119 8.08354 8.85258 13.2086 8.85258H34.726C37.5964 8.63058 40.4456 9.49472 42.707 11.2732C42.9674 11.4941 43.2094 11.7356 43.4306 11.9955ZM32.3376 18.854C32.237 18.5522 32.0208 18.3027 31.7364 18.1604C31.4518 18.0183 31.1226 17.9949 30.8208 18.0955C30.519 18.1961 30.2696 18.4124 30.1272 18.6968L28.7664 21.4172C27.306 20.7836 25.6932 20.4332 24 20.4332C22.3606 20.431 20.7382 20.766 19.2336 21.4172L17.8728 18.6968C17.8054 18.5509 17.7094 18.42 17.5905 18.3119C17.4715 18.2038 17.3321 18.1208 17.1804 18.0676C17.0288 18.0144 16.868 17.9922 16.7076 18.0024C16.5472 18.0126 16.3905 18.0548 16.2468 18.1267C16.103 18.1986 15.9752 18.2986 15.8708 18.4208C15.7665 18.543 15.6877 18.6849 15.6393 18.8382C15.5908 18.9914 15.5736 19.1528 15.5887 19.3128C15.6038 19.4728 15.6509 19.6281 15.7272 19.7696L17.136 22.5884C15.5493 23.6934 14.2535 25.1658 13.3592 26.8802C12.4648 28.5944 11.9985 30.4996 12 32.4332V33.6332C12 34.2696 12.2529 34.8802 12.7029 35.3302C13.153 35.7804 13.7635 36.0332 14.4 36.0332H33.6C34.2366 36.0332 34.847 35.7804 35.297 35.3302C35.7472 34.8802 36 34.2696 36 33.6332V32.4332C36.0014 30.4998 35.5348 28.5948 34.6406 26.8808C33.7462 25.1668 32.4506 23.6944 30.864 22.5896L32.2728 19.7696C32.415 19.485 32.4382 19.1557 32.3376 18.854ZM17.3272 28.1604C17.6648 27.8228 18.1226 27.6332 18.6 27.6332C19.0774 27.6332 19.5352 27.8228 19.8728 28.1604C20.2104 28.498 20.4 28.9558 20.4 29.4332C20.4 29.9106 20.2104 30.3684 19.8728 30.706C19.5352 31.0436 19.0774 31.2332 18.6 31.2332C18.1226 31.2332 17.6648 31.0436 17.3272 30.706C16.9896 30.3684 16.8 29.9106 16.8 29.4332C16.8 28.9558 16.9896 28.498 17.3272 28.1604ZM28.1272 28.1604C28.4648 27.8228 28.9226 27.6332 29.4 27.6332C29.8774 27.6332 30.3352 27.8228 30.6728 28.1604C31.0104 28.498 31.2 28.9558 31.2 29.4332C31.2 29.9106 31.0104 30.3684 30.6728 30.706C30.3352 31.0436 29.8774 31.2332 29.4 31.2332C28.9226 31.2332 28.4648 31.0436 28.1272 30.706C27.7896 30.3684 27.6 29.9106 27.6 29.4332C27.6 28.9558 27.7896 28.498 28.1272 28.1604Z" fill="url(#paint1_linear_415_477)"/>
<defs>
<linearGradient id="paint0_linear_415_477" x1="18.7978" y1="20.0928" x2="18.7978" y2="2" gradientUnits="userSpaceOnUse">
<stop stop-color="#02AA93"/>
<stop offset="1" stop-color="#67FF80"/>
</linearGradient>
<linearGradient id="paint1_linear_415_477" x1="24.0008" y1="46" x2="24.0008" y2="8.81836" gradientUnits="userSpaceOnUse">
<stop stop-color="#02AA93"/>
<stop offset="1" stop-color="#67FF80"/>
</linearGradient>
</defs>
</svg>
