<svg width="48" height="48" viewBox="0 0 48 48" fill="none" xmlns="http://www.w3.org/2000/svg">
<path opacity="0.4" d="M34.7458 8.85267H28.271C26.658 8.86333 25.1266 8.14583 24.1044 6.90053L21.9722 3.95279C20.9672 2.69655 19.4358 1.97568 17.8252 2.00063H13.2478C5.03204 2.00063 2.00002 6.82243 2.00002 15.0214L2 20C1.98979 20.9746 18.9972 13.9734 19 13L23.9936 11.3074C26 12 39 10 34.7458 8.85267Z" fill="url(#paint0_linear_415_580)"/>
<path fill-rule="evenodd" clip-rule="evenodd" d="M43.4306 11.9955C44.1346 12.8185 44.6784 13.7652 45.0348 14.7871C45.7356 16.8874 46.06 19.0946 45.9932 21.3073V32.8639C45.9904 33.8375 45.9184 34.8095 45.778 35.7727C45.5106 37.4727 44.9124 39.1041 44.0176 40.5749C43.6062 41.2855 43.1066 41.9413 42.5308 42.5271C39.9242 44.9195 36.463 46.1647 32.9264 45.9825H15.0473C11.5051 46.1633 8.03816 44.9187 5.42322 42.5271C4.85428 41.9403 4.3614 41.2843 3.95612 40.5749C3.06644 39.1051 2.48112 37.4721 2.23474 35.7727C2.07808 34.8111 1.99958 33.8383 2 32.8639V21.3073C1.99962 20.3421 2.05186 19.3776 2.1565 18.4181C2.1785 18.2498 2.2115 18.0841 2.24416 17.9203C2.2986 17.6471 2.3521 17.3786 2.3521 17.1102C2.55068 15.9522 2.9129 14.8283 3.42798 13.772C4.95374 10.5119 8.08354 8.85258 13.2086 8.85258H34.726C37.5964 8.63058 40.4456 9.49472 42.707 11.2732C42.9674 11.4941 43.2094 11.7356 43.4306 11.9955ZM19.539 24.8309C20.6312 25.2767 21.7904 25.5559 22.9788 25.6581V26.9787H19.3006C19.3374 26.2587 19.4166 25.5417 19.539 24.8309ZM28.4624 24.8339C27.3682 25.2783 26.2086 25.5565 25.0212 25.6587V26.9787H28.6994C28.6626 26.2601 28.584 25.5437 28.4624 24.8339ZM19.6193 31.6459C20.688 31.2195 21.8196 30.9513 22.9788 30.8523V29.0211H19.3006C19.345 29.9021 19.4513 30.7799 19.6193 31.6459ZM28.3808 31.6459C27.312 31.2195 26.1804 30.9513 25.0212 30.8519V29.0211H28.6994C28.655 29.9021 28.5488 30.7793 28.3808 31.6459ZM20.1436 33.6307C21.0434 33.2507 21.9984 33.0047 22.9788 32.9035V37.6965C22.7766 37.5937 22.5876 37.4723 22.412 37.3293C22.1106 37.0791 21.84 36.7931 21.6 36.4815C21.314 36.1089 21.0638 35.7105 20.8494 35.2969C20.5732 34.7577 20.3362 34.2015 20.1436 33.6307ZM27.8558 33.6327C26.9566 33.2523 26.0016 33.0051 25.0212 32.9035V37.6965C25.2234 37.5937 25.4124 37.4723 25.588 37.3293C25.8894 37.0791 26.16 36.7931 26.4 36.4815C26.686 36.1089 26.9362 35.7105 27.1506 35.2969C27.4268 34.7583 27.6632 34.2027 27.8558 33.6327ZM19.9961 22.8139C20.9376 23.2305 21.9442 23.4997 22.9788 23.6069V18.3033C22.7766 18.406 22.5876 18.5276 22.412 18.6705C22.1106 18.9208 21.84 19.2067 21.6 19.5182C21.314 19.8909 21.0638 20.2893 20.8494 20.7029C20.5016 21.3815 20.2162 22.0871 19.9961 22.8139ZM28.0054 22.8189C27.0618 23.2331 26.0548 23.5001 25.0212 23.6069V18.3033C25.2234 18.406 25.4124 18.5276 25.588 18.6705C25.8894 18.9208 26.16 19.2067 26.4 19.5182C26.686 19.8909 26.9362 20.2893 27.1506 20.7029C27.4994 21.3835 27.7854 22.0913 28.0054 22.8189ZM32.2484 22.4231C33.164 23.7789 33.7358 25.3435 33.9048 26.9787H30.7446C30.6966 25.9333 30.5698 24.8917 30.364 23.8657C30.9294 23.5195 31.4646 23.1197 31.966 22.6739L32.2484 22.4231ZM32.0298 33.8911C33.0726 32.4649 33.7226 30.7839 33.9048 29.0211H30.7446C30.6908 30.1855 30.5402 31.3451 30.291 32.4833C30.284 32.5175 30.2768 32.5517 30.2686 32.5859C30.8936 32.9591 31.4824 33.3979 32.0298 33.8911ZM15.9713 33.8927C14.928 32.4659 14.2774 30.7849 14.0951 29.0211H17.2554C17.3091 30.1855 17.4598 31.3451 17.709 32.4833C17.7161 32.5181 17.7233 32.5523 17.7319 32.5869C17.1064 32.9603 16.5182 33.3993 15.9713 33.8927ZM17.3428 35.4083C17.9582 35.9591 18.6358 36.4285 19.3588 36.8059C19.2414 36.6179 19.1331 36.4239 19.0314 36.2263C18.767 35.7059 18.5321 35.1719 18.3319 34.6255C17.9867 34.8633 17.6569 35.1249 17.3428 35.4083ZM30.6582 35.4071C30.3442 35.1249 30.0132 34.8639 29.668 34.6259C29.468 35.1723 29.233 35.7065 28.9686 36.2263C28.8668 36.4239 28.7586 36.6179 28.6412 36.8059C29.3648 36.4285 30.0424 35.9587 30.6582 35.4071ZM17.0814 20.8587C17.7559 20.1993 18.5193 19.6428 19.3491 19.2103C19.2353 19.3931 19.13 19.5815 19.0314 19.7735C18.7006 20.4247 18.4157 21.0967 18.1854 21.7869C17.7988 21.5041 17.4286 21.1951 17.0814 20.8587ZM30.6076 21.1471C30.3534 21.3733 30.0888 21.5857 29.811 21.7783C29.5818 21.0905 29.2978 20.4211 28.9686 19.7735C28.8684 19.5789 28.7622 19.388 28.6464 19.2026C29.4802 19.6346 30.2512 20.1911 30.937 20.8551L30.6076 21.1471ZM13.126 26.1105C13.6682 26.2627 14.2326 25.9471 14.3847 25.4059L14.4409 25.1965C14.5961 24.6551 14.281 24.0915 13.7387 23.9377C13.1964 23.7841 12.6302 24.1011 12.4749 24.6451L12.4187 24.8493C12.2666 25.3931 12.5837 25.9583 13.126 26.1105ZM12 27.9999C12 27.4361 12.915 26.9787 14.0426 26.9787H17.2554C17.3034 25.9319 17.4302 24.8917 17.6354 23.8637C16.9639 23.4531 16.3348 22.9687 15.7553 22.4207C15.6878 22.5187 15.6225 22.6187 15.5591 22.7199C15.2604 23.1963 14.6298 23.3403 14.1523 23.0415C13.6749 22.7429 13.5294 22.1137 13.8281 21.6373C16.0187 18.1344 19.869 16.005 24 15.9999C27.1812 15.9999 30.2348 17.2663 32.4868 19.5131C34.7336 21.7651 36 24.8187 36 27.9999C36 31.1811 34.7336 34.2347 32.4868 36.4867C30.2348 38.7335 27.1812 39.9999 24 39.9999C20.8188 39.9999 17.7651 38.7335 15.5132 36.4867C13.2664 34.2347 12 31.1811 12 27.9999Z" fill="url(#paint1_linear_415_580)"/>
<defs>
<linearGradient id="paint0_linear_415_580" x1="17.3369" y1="19.6069" x2="18.4499" y2="3.07753" gradientUnits="userSpaceOnUse">
<stop stop-color="#8D01A2"/>
<stop offset="1" stop-color="#FF33DB"/>
</linearGradient>
<linearGradient id="paint1_linear_415_580" x1="22.0876" y1="45.0013" x2="25.6528" y2="11.2554" gradientUnits="userSpaceOnUse">
<stop stop-color="#8D01A2"/>
<stop offset="1" stop-color="#FF33DB"/>
</linearGradient>
</defs>
</svg>
