<svg width="48" height="48" viewBox="0 0 48 48" fill="none" xmlns="http://www.w3.org/2000/svg">
<path opacity="0.4" d="M34.7458 8.85267H28.271C26.658 8.86333 25.1266 8.14583 24.1044 6.90053L21.9722 3.95279C20.9672 2.69655 19.4358 1.97568 17.8252 2.00063H13.2478C5.03204 2.00063 2.00002 6.82243 2.00002 15.0214L2 20C1.98979 20.9746 18.9972 13.9734 19 13L23.9936 11.3074C26 12 39 10 34.7458 8.85267Z" fill="url(#paint0_linear_415_422)"/>
<path fill-rule="evenodd" clip-rule="evenodd" d="M45.0348 14.7871C44.6784 13.7652 44.1346 12.8185 43.4306 11.9955C43.2094 11.7356 42.9674 11.4941 42.707 11.2732C40.4456 9.49472 37.5964 8.63058 34.726 8.85258H13.2086C8.08354 8.85258 4.95374 10.5119 3.42798 13.772C2.9129 14.8283 2.55068 15.9522 2.3521 17.1102C2.3521 17.3786 2.2986 17.647 2.24416 17.9203C2.2115 18.0841 2.1785 18.2497 2.1565 18.4181C2.05186 19.3776 1.99962 20.342 2 21.3072V32.864C1.99958 33.8382 2.07808 34.811 2.23474 35.7726C2.48112 37.4722 3.06644 39.1052 3.95612 40.575C4.3614 41.2844 4.85428 41.9402 5.42322 42.527C8.03816 44.9186 11.5051 46.1634 15.0473 45.9824H32.9264C36.463 46.1646 39.9242 44.9194 42.5308 42.527C43.1066 41.9414 43.6062 41.2854 44.0176 40.575C44.9124 39.104 45.5106 37.4726 45.778 35.7726C45.9184 34.8094 45.9904 33.8374 45.9932 32.864V21.3072C46.06 19.0946 45.7356 16.8874 45.0348 14.7871ZM16.697 17.6022L23.1062 24.4086L23.2938 24.6098C23.981 25.347 23.9794 26.4906 23.2902 27.2258L23.1068 27.4214L23.1042 27.424L16.7425 34.2586C16.0108 35.0446 14.7756 35.0754 14.0057 34.3266L13.6176 33.949C12.8709 33.2228 12.8418 32.033 13.5519 31.2708L17.2583 27.2938C17.9774 26.5222 17.9737 25.325 17.25 24.5578L13.522 20.6064C12.8041 19.8454 12.8298 18.6491 13.5797 17.9196L13.9677 17.5422C14.7345 16.7964 15.9637 16.8234 16.697 17.6022ZM19.8979 36.7864C19.8979 35.7758 20.7172 34.9566 21.7278 34.9566H34.1702C35.1808 34.9566 36 35.7758 36 36.7864V37.3352C36 38.3458 35.1808 39.165 34.1702 39.165H21.7278C20.7172 39.165 19.8979 38.3458 19.8979 37.3352V36.7864Z" fill="url(#paint1_linear_415_422)"/>
<defs>
<linearGradient id="paint0_linear_415_422" x1="1.5144" y1="2.17805" x2="16.8337" y2="31.494" gradientUnits="userSpaceOnUse">
<stop stop-color="#F9D423"/>
<stop offset="0.515624" stop-color="#FF4E50"/>
<stop offset="0.991304" stop-color="#8A2387"/>
</linearGradient>
<linearGradient id="paint1_linear_415_422" x1="1.36399" y1="9.18422" x2="38.9688" y2="55.0484" gradientUnits="userSpaceOnUse">
<stop stop-color="#F9D423"/>
<stop offset="0.515624" stop-color="#FF4E50"/>
<stop offset="0.991304" stop-color="#8A2387"/>
</linearGradient>
</defs>
</svg>
