<svg width="48" height="48" viewBox="0 0 48 48" fill="none" xmlns="http://www.w3.org/2000/svg">
<path opacity="0.4" d="M34.7458 8.85267H28.271C26.658 8.86333 25.1266 8.14583 24.1044 6.90053L21.9722 3.95279C20.9672 2.69655 19.4358 1.97568 17.8252 2.00063H13.2478C5.03202 2.00063 2 6.82243 2 15.0214V19.8842C1.98978 20.8588 23.9908 14.8576 23.9936 13.8842V11.3074C26 12 39 10 34.7458 8.85267Z" fill="url(#paint0_linear_415_541)"/>
<path fill-rule="evenodd" clip-rule="evenodd" d="M43.4306 11.9955C44.1346 12.8185 44.6784 13.7652 45.0348 14.7871C45.7356 16.8874 46.06 19.0946 45.9932 21.3073V32.8639C45.9904 33.8375 45.9184 34.8095 45.778 35.7727C45.5106 37.4727 44.9124 39.1041 44.0176 40.5749C43.6062 41.2855 43.1066 41.9413 42.5308 42.5271C39.9242 44.9195 36.463 46.1647 32.9264 45.9825H15.0473C11.5051 46.1633 8.03816 44.9187 5.42322 42.5271C4.85428 41.9403 4.3614 41.2843 3.95612 40.5749C3.06644 39.1051 2.48112 37.4721 2.23474 35.7727C2.07808 34.8111 1.99958 33.8383 2 32.8639V21.3073C1.99962 20.3421 2.05186 19.3776 2.1565 18.4181C2.1785 18.2498 2.2115 18.0841 2.24416 17.9203C2.2986 17.6471 2.3521 17.3786 2.3521 17.1102C2.55068 15.9522 2.9129 14.8283 3.42798 13.772C4.95374 10.5119 8.08354 8.85258 13.2086 8.85258H34.726C37.5964 8.63058 40.4456 9.49472 42.707 11.2732C42.9674 11.4941 43.2094 11.7356 43.4306 11.9955ZM21.2544 29.0125V18.9597C21.2544 18.1747 21.5662 17.4218 22.1212 16.8667C22.6764 16.3116 23.4292 15.9999 24.2142 15.9999C24.9992 15.9999 25.752 16.3116 26.307 16.8667C26.8622 17.4218 27.174 18.1747 27.174 18.9597V29.0125C27.174 29.4543 27.5322 29.8125 27.974 29.8125H30.4554C30.8456 29.8127 31.2272 29.9283 31.5516 30.1451C31.876 30.3621 32.1288 30.6701 32.278 31.0307C32.4274 31.3911 32.4664 31.7879 32.3904 32.1705C32.3142 32.5533 32.1264 32.9049 31.8506 33.1809L25.6092 39.4221C25.2392 39.7921 24.7374 39.9999 24.2142 39.9999C23.691 39.9999 23.189 39.7921 22.819 39.4221L16.5778 33.1809C16.3019 32.9049 16.114 32.5533 16.0379 32.1705C15.9618 31.7879 16.0009 31.3911 16.1502 31.0307C16.2995 30.6701 16.5523 30.3621 16.8768 30.1451C17.2012 29.9283 17.5826 29.8127 17.9728 29.8125H20.4544C20.8962 29.8125 21.2544 29.4543 21.2544 29.0125Z" fill="url(#paint1_linear_415_541)"/>
<defs>
<linearGradient id="paint0_linear_415_541" x1="2" y1="10.9954" x2="35.5956" y2="10.9954" gradientUnits="userSpaceOnUse">
<stop stop-color="#02AA93"/>
<stop offset="1" stop-color="#67FF80"/>
</linearGradient>
<linearGradient id="paint1_linear_415_541" x1="2" y1="27.4091" x2="46.0018" y2="27.4091" gradientUnits="userSpaceOnUse">
<stop stop-color="#02AA93"/>
<stop offset="1" stop-color="#67FF80"/>
</linearGradient>
</defs>
</svg>
