<svg width="48" height="48" viewBox="0 0 48 48" fill="none" xmlns="http://www.w3.org/2000/svg">
<path opacity="0.4" d="M34.7458 8.85267H28.271C26.658 8.86333 25.1266 8.14583 24.1044 6.90053L21.9722 3.95279C20.9672 2.69655 19.4358 1.97568 17.8252 2.00063H13.2478C5.03204 2.00063 2.00002 6.82243 2.00002 15.0214L2 20C1.98979 20.9746 18.9972 13.9734 19 13L23.9936 11.3074C26 12 39 10 34.7458 8.85267Z" fill="url(#paint0_linear_415_460)"/>
<path fill-rule="evenodd" clip-rule="evenodd" d="M43.4306 11.9955C44.1346 12.8185 44.6784 13.7652 45.0348 14.7871C45.7356 16.8874 46.06 19.0946 45.9932 21.3072V32.864C45.9904 33.8374 45.9184 34.8094 45.778 35.7726C45.5106 37.4726 44.9126 39.104 44.0176 40.575C43.6062 41.2854 43.1066 41.9414 42.5308 42.527C39.9242 44.9194 36.463 46.1646 32.9264 45.9824H15.0473C11.5051 46.1634 8.03816 44.9186 5.42322 42.527C4.85428 41.9402 4.3614 41.2844 3.95612 40.575C3.06646 39.1052 2.48112 37.4722 2.23474 35.7726C2.07808 34.811 1.99958 33.8382 2 32.864V21.3072C1.99962 20.342 2.05186 19.3776 2.1565 18.4181C2.1785 18.2497 2.2115 18.0841 2.24416 17.9203C2.2986 17.647 2.3521 17.3786 2.3521 17.1102C2.55068 15.9522 2.9129 14.8283 3.42798 13.772C4.95376 10.5119 8.08354 8.85258 13.2086 8.85258H34.726C37.5964 8.63058 40.4456 9.49472 42.707 11.2732C42.9674 11.4941 43.2094 11.7356 43.4306 11.9955ZM36 30.4236C36 34.1664 32.9304 37.2 29.1432 37.2H17.1432C14.3028 37.2 12 34.9248 12 32.118C12 29.3112 14.3028 27.036 17.1432 27.0348C17.5817 27.035 17.95 26.5986 17.8594 26.1694C17.7643 25.7198 17.7144 25.2542 17.7144 24.7764C17.7144 21.0336 20.784 18 24.5712 18C27.6544 18 30.2634 20.0122 31.126 22.78C31.356 23.5184 31.8668 24.1556 32.5402 24.5358C34.607 25.703 36 27.9024 36 30.4236Z" fill="url(#paint1_linear_415_460)"/>
<defs>
<linearGradient id="paint0_linear_415_460" x1="18.7978" y1="20.0928" x2="18.7978" y2="2.00001" gradientUnits="userSpaceOnUse">
<stop stop-color="#5570FF"/>
<stop offset="1" stop-color="#4DD3FF"/>
</linearGradient>
<linearGradient id="paint1_linear_415_460" x1="24.0008" y1="46" x2="24.0008" y2="8.81836" gradientUnits="userSpaceOnUse">
<stop stop-color="#5570FF"/>
<stop offset="1" stop-color="#4DD3FF"/>
</linearGradient>
</defs>
</svg>
