<svg width="48" height="48" viewBox="0 0 48 48" fill="none" xmlns="http://www.w3.org/2000/svg">
<path opacity="0.4" d="M34.7458 8.85267H28.271C26.658 8.86333 25.1266 8.14583 24.1044 6.90053L21.9722 3.95279C20.9672 2.69655 19.4358 1.97568 17.8252 2.00063H13.2478C5.03202 2.00063 2 6.82243 2 15.0214V19.8842C1.98978 20.8588 23.9908 14.8576 23.9936 13.8842V11.3074C26 12 39 10 34.7458 8.85267Z" fill="url(#paint0_linear_415_489)"/>
<path fill-rule="evenodd" clip-rule="evenodd" d="M43.4306 11.9955C44.1346 12.8185 44.6784 13.7652 45.0348 14.7871C45.7356 16.8874 46.06 19.0946 45.9932 21.3073V32.8639C45.9904 33.8375 45.9184 34.8095 45.778 35.7727C45.5106 37.4727 44.9124 39.1041 44.0176 40.5749C43.6062 41.2855 43.1066 41.9413 42.5308 42.5271C39.9242 44.9195 36.463 46.1647 32.9264 45.9825H15.0473C11.5051 46.1633 8.03816 44.9187 5.42322 42.5271C4.85428 41.9403 4.3614 41.2843 3.95612 40.5749C3.06644 39.1051 2.48112 37.4721 2.23474 35.7727C2.07808 34.8111 1.99958 33.8383 2 32.8639V21.3073C1.99962 20.3421 2.05186 19.3776 2.1565 18.4181C2.1785 18.2498 2.2115 18.0841 2.24416 17.9203C2.2986 17.6471 2.3521 17.3786 2.3521 17.1102C2.55068 15.9522 2.9129 14.8283 3.42798 13.772C4.95374 10.5119 8.08354 8.85258 13.2086 8.85258H34.726C37.5964 8.63058 40.4456 9.49472 42.707 11.2732C42.9674 11.4941 43.2094 11.7356 43.4306 11.9955ZM32.0984 29.7861C32.4772 29.2781 32.6666 28.6439 32.6666 28.0121C32.6666 27.3073 32.4536 26.6511 32.0512 26.1165C32.0154 26.0809 31.9428 25.9995 31.8484 25.8939C31.6922 25.7193 31.4764 25.4781 31.2698 25.2659C29.3286 23.1275 24.2624 19.6281 21.6108 18.5588C21.2084 18.3887 20.1904 18.0266 19.6458 17.9999C19.125 17.9999 18.6278 18.1238 18.1544 18.3644C17.5625 18.7046 17.089 19.2417 16.8286 19.8711C16.6629 20.3085 16.4025 21.6207 16.4025 21.6451C16.142 23.0789 16 25.4143 16 27.9877C16 30.4421 16.142 32.6779 16.3551 34.1385C16.361 34.1439 16.3818 34.2499 16.414 34.4145C16.5106 34.9081 16.7103 35.9289 16.9233 36.3499C17.4441 37.3705 18.4621 37.9999 19.5511 37.9999H19.6458C20.356 37.9781 21.8476 37.3437 21.8476 37.3195C24.357 36.2527 29.305 32.9233 31.2936 30.7095L31.4356 30.5637C31.696 30.2963 32.0274 29.8857 32.0984 29.7861Z" fill="url(#paint1_linear_415_489)"/>
<defs>
<linearGradient id="paint0_linear_415_489" x1="1.5144" y1="2.17703" x2="16.6981" y2="31.3982" gradientUnits="userSpaceOnUse">
<stop stop-color="#F9D423"/>
<stop offset="0.515624" stop-color="#FF4E50"/>
<stop offset="0.991304" stop-color="#8A2387"/>
</linearGradient>
<linearGradient id="paint1_linear_415_489" x1="1.36399" y1="9.18422" x2="38.9688" y2="55.0483" gradientUnits="userSpaceOnUse">
<stop stop-color="#F9D423"/>
<stop offset="0.515624" stop-color="#FF4E50"/>
<stop offset="0.991304" stop-color="#8A2387"/>
</linearGradient>
</defs>
</svg>
