<svg width="48" height="48" viewBox="0 0 48 48" fill="none" xmlns="http://www.w3.org/2000/svg">
<path opacity="0.4" d="M39.4509 18.7255C39.4509 18.8683 38.3316 33.024 37.6925 38.9814C37.2921 42.6375 34.9352 44.855 31.3998 44.918C28.6836 44.9789 26.0244 44.9999 23.4081 44.9999C20.6306 44.9999 17.9142 44.9789 15.2775 44.918C11.8606 44.8361 9.50172 42.5745 9.12184 38.9814C8.4642 33.003 7.3654 18.8683 7.34499 18.7255C7.32456 18.295 7.46344 17.8855 7.74529 17.5537C8.02305 17.2473 8.42335 17.0625 8.84407 17.0625H37.9722C38.3909 17.0625 38.7708 17.2473 39.071 17.5537C39.3509 17.8855 39.4917 18.295 39.4509 18.7255Z" fill="url(#paint0_linear_415_392)"/>
<path d="M42.3 11.3514C42.3 10.4883 41.6199 9.81216 40.803 9.81216H34.68C33.4341 9.81216 32.3517 8.92599 32.0739 7.67654L31.7309 6.14569C31.2509 4.29565 29.5946 3 27.7359 3H19.0661C17.1872 3 15.5472 4.29566 15.0488 6.24648L14.7281 7.67864C14.4483 8.92599 13.3659 9.81216 12.1221 9.81216H5.99908C5.1801 9.81216 4.5 10.4883 4.5 11.3514V12.1494C4.5 12.9915 5.1801 13.6886 5.99908 13.6886H40.803C41.6199 13.6886 42.3 12.9915 42.3 12.1494V11.3514Z" fill="url(#paint1_linear_415_392)"/>
<defs>
<linearGradient id="paint0_linear_415_392" x1="39.3627" y1="17.2395" x2="11.8814" y2="48.567" gradientUnits="userSpaceOnUse">
<stop stop-color="#FE7970"/>
<stop offset="1" stop-color="#DC3282"/>
</linearGradient>
<linearGradient id="paint1_linear_415_392" x1="42.188" y1="3.06775" x2="36.5952" y2="22.6819" gradientUnits="userSpaceOnUse">
<stop stop-color="#FE7970"/>
<stop offset="1" stop-color="#DC3282"/>
</linearGradient>
</defs>
</svg>
