<svg width="48" height="48" viewBox="0 0 48 48" fill="none" xmlns="http://www.w3.org/2000/svg">
<path opacity="0.4" d="M34.7458 8.85267H28.271C26.658 8.86333 25.1266 8.14583 24.1044 6.90053L21.9722 3.95279C20.9672 2.69655 19.4358 1.97568 17.8252 2.00063H13.2478C5.03204 2.00063 2.00002 6.82243 2.00002 15.0214L2 20C1.98979 20.9746 18.9972 13.9734 19 13L23.9936 11.3074C26 12 39 10 34.7458 8.85267Z" fill="url(#paint0_linear_415_398)"/>
<path fill-rule="evenodd" clip-rule="evenodd" d="M45.0348 14.7871C44.6784 13.7652 44.1346 12.8185 43.4306 11.9955C43.2094 11.7356 42.9674 11.4941 42.707 11.2732C40.4456 9.49472 37.5964 8.63058 34.726 8.85258H13.2086C8.08354 8.85258 4.95374 10.5119 3.42798 13.772C2.9129 14.8283 2.55068 15.9522 2.3521 17.1102C2.3521 17.3786 2.2986 17.6471 2.24416 17.9203C2.2115 18.0841 2.1785 18.2498 2.1565 18.4181C2.05186 19.3776 1.99962 20.3421 2 21.3073V32.8639C1.99958 33.8383 2.07808 34.8111 2.23474 35.7727C2.48112 37.4721 3.06644 39.1051 3.95612 40.5749C4.3614 41.2843 4.85428 41.9403 5.42322 42.5271C8.03816 44.9187 11.5051 46.1633 15.0473 45.9825H32.9264C36.463 46.1647 39.9242 44.9195 42.5308 42.5271C43.1066 41.9413 43.6062 41.2855 44.0176 40.5749C44.9124 39.1041 45.5106 37.4727 45.778 35.7727C45.9184 34.8095 45.9904 33.8375 45.9932 32.8639V21.3073C46.06 19.0946 45.7356 16.8874 45.0348 14.7871ZM17 35.7141H23V37.7141H19C18.7348 37.7141 18.4805 37.8195 18.2929 38.0071C18.1054 38.1947 18 38.4489 18 38.7141C18 38.9793 18.1054 39.2337 18.2929 39.4213C18.4805 39.6089 18.7348 39.7141 19 39.7141H29C29.2652 39.7141 29.5196 39.6089 29.7072 39.4213C29.8946 39.2337 30 38.9793 30 38.7141C30 38.4489 29.8946 38.1947 29.7072 38.0071C29.5196 37.8195 29.2652 37.7141 29 37.7141H25V35.7141H31C32.1522 35.7127 33.2688 35.3141 34.1612 34.5855C35.0538 33.8569 35.668 32.8427 35.9 31.7141H12.1C12.3321 32.8427 12.9462 33.8569 13.8388 34.5855C14.7313 35.3141 15.8478 35.7127 17 35.7141ZM17 17.9999H31C32.3256 18.0015 33.5964 18.5288 34.5338 19.4661C35.4712 20.4035 35.9984 21.6743 36 22.9999V29.9999H12V22.9999C12.0016 21.6743 12.5289 20.4035 13.4662 19.4661C14.4036 18.5288 15.6744 18.0015 17 17.9999Z" fill="url(#paint1_linear_415_398)"/>
<defs>
<linearGradient id="paint0_linear_415_398" x1="1.5144" y1="2.17805" x2="16.8337" y2="31.494" gradientUnits="userSpaceOnUse">
<stop stop-color="#F9D423"/>
<stop offset="0.515624" stop-color="#FF4E50"/>
<stop offset="0.991304" stop-color="#8A2387"/>
</linearGradient>
<linearGradient id="paint1_linear_415_398" x1="1.36399" y1="9.18422" x2="38.9688" y2="55.0483" gradientUnits="userSpaceOnUse">
<stop stop-color="#F9D423"/>
<stop offset="0.515624" stop-color="#FF4E50"/>
<stop offset="0.991304" stop-color="#8A2387"/>
</linearGradient>
</defs>
</svg>
