<?xml version="1.0" encoding="UTF-8" standalone="no"?>
<svg
   viewBox="0 0 22 22"
   version="1.1"
   id="svg6"
   sodipodi:docname="folder-database.svg"
   inkscape:version="1.3.2 (091e20ef0f, 2023-11-25)"
   xmlns:inkscape="http://www.inkscape.org/namespaces/inkscape"
   xmlns:sodipodi="http://sodipodi.sourceforge.net/DTD/sodipodi-0.dtd"
   xmlns:xlink="http://www.w3.org/1999/xlink"
   xmlns="http://www.w3.org/2000/svg"
   xmlns:svg="http://www.w3.org/2000/svg">
  <sodipodi:namedview
     id="namedview8"
     pagecolor="#ffffff"
     bordercolor="#666666"
     borderopacity="1.0"
     inkscape:pageshadow="2"
     inkscape:pageopacity="0.0"
     inkscape:pagecheckerboard="0"
     showgrid="false"
     inkscape:zoom="28.545455"
     inkscape:cx="11"
     inkscape:cy="11.017516"
     inkscape:window-width="1920"
     inkscape:window-height="994"
     inkscape:window-x="0"
     inkscape:window-y="0"
     inkscape:window-maximized="1"
     inkscape:current-layer="svg6"
     inkscape:showpageshadow="2"
     inkscape:deskcolor="#d1d1d1" />
  <defs
     id="defs3051">
    <style
       type="text/css"
       id="current-color-scheme">
      .ColorScheme-Text {
        color:#232629
      }
      </style>
    <linearGradient
       inkscape:collect="always"
       xlink:href="#linearGradient1"
       id="linearGradient2"
       x1="3.5"
       y1="18.375299"
       x2="18.322992"
       y2="2.3856509"
       gradientUnits="userSpaceOnUse" />
    <linearGradient
       id="linearGradient1"
       inkscape:collect="always">
      <stop
         style="stop-color:#cd87de;stop-opacity:1"
         offset="0"
         id="stop1" />
      <stop
         style="stop-color:#4cffdb;stop-opacity:1;"
         offset="1"
         id="stop2" />
    </linearGradient>
  </defs>
  <path
     d="M 4.571429,2.9999999 C 3.977857,2.9999999 3.5,3.4757329 3.5,4.0666668 V 7.266667 C 3.5,7.8576 3.977857,8.333333 4.571429,8.333333 H 17.428576 C 18.022145,8.333333 18.5,7.8576 18.5,7.266667 V 4.0666668 c 0,-0.5909339 -0.477855,-1.0666669 -1.071424,-1.0666669 z m 0,1.0666669 H 17.428576 V 7.266667 H 4.571429 Z M 11.000001,5.133333 V 6.1999999 H 12.07143 V 5.133333 Z m 2.142858,0 V 6.1999999 H 14.21429 V 5.133333 Z m 2.142854,0 v 1.0666669 h 1.071432 V 5.133333 Z M 4.571429,9.4 C 3.977857,9.4 3.5,9.875733 3.5,10.466667 v 3.200002 c 0,0.590931 0.477857,1.066662 1.071429,1.066662 H 17.428576 C 18.022145,14.733331 18.5,14.2576 18.5,13.666669 V 10.466667 C 18.5,9.875733 18.022145,9.4 17.428576,9.4 Z m 0,1.066667 h 12.857147 v 3.200002 H 4.571429 Z m 6.428572,1.066666 V 12.6 h 1.071429 v -1.066667 z m 2.142858,0 V 12.6 h 1.071431 v -1.066667 z m 2.142854,0 V 12.6 h 1.071432 V 11.533333 Z M 4.0357141,15.8 C 3.7389289,15.8 3.5,16.037869 3.5,16.333331 c 0,0.295469 0.2389289,0.533338 0.5357141,0.533338 h 1.6071431 v 1.6 C 5.6428572,18.762131 5.8817861,19 6.178572,19 6.252771,19 6.3236971,18.98527 6.3878324,18.95834 6.5802396,18.87758 6.7142862,18.688267 6.7142862,18.466667 v -1.6 h 8.5714268 v 1.6 c 0,0.295462 0.238932,0.533331 0.53572,0.533331 0.296781,0 0.535712,-0.237869 0.535712,-0.533331 v -1.6 h 1.607143 c 0.296788,0 0.535712,-0.237869 0.535712,-0.533338 0,-0.295462 -0.238924,-0.533331 -0.535712,-0.533331 H 4.0357141 Z"
     id="path1"
     style="fill:url(#linearGradient2);stroke-width:1.06906" />
</svg>
