<?xml version="1.0" encoding="UTF-8" standalone="no"?>
<svg
   version="1.1"
   viewBox="0 0 22 22"
   id="svg1"
   sodipodi:docname="folder-inkscape.svg"
   inkscape:version="1.3.2 (091e20ef0f, 2023-11-25)"
   width="100%"
   height="100%"
   xmlns:inkscape="http://www.inkscape.org/namespaces/inkscape"
   xmlns:sodipodi="http://sodipodi.sourceforge.net/DTD/sodipodi-0.dtd"
   xmlns:xlink="http://www.w3.org/1999/xlink"
   xmlns="http://www.w3.org/2000/svg"
   xmlns:svg="http://www.w3.org/2000/svg">
  <sodipodi:namedview
     id="namedview1"
     pagecolor="#ffffff"
     bordercolor="#000000"
     borderopacity="0.25"
     inkscape:showpageshadow="2"
     inkscape:pageopacity="0.0"
     inkscape:pagecheckerboard="0"
     inkscape:deskcolor="#d1d1d1"
     inkscape:zoom="12.326157"
     inkscape:cx="11.601345"
     inkscape:cy="3.7319013"
     inkscape:window-width="1920"
     inkscape:window-height="994"
     inkscape:window-x="0"
     inkscape:window-y="0"
     inkscape:window-maximized="1"
     inkscape:current-layer="svg1" />
  <defs
     id="defs1">
    <style
       type="text/css"
       id="style1">.ColorScheme-Text {
        color:#d8dee9;
      }</style>
    <linearGradient
       inkscape:collect="always"
       xlink:href="#linearGradient3"
       id="linearGradient1-7"
       gradientUnits="userSpaceOnUse"
       gradientTransform="matrix(0.88886955,0,0,0.88886955,-371.75815,-454.56568)"
       x1="421.61206"
       y1="523.77283"
       x2="439.59921"
       y2="523.77283" />
    <linearGradient
       id="linearGradient3"
       inkscape:collect="always">
      <stop
         style="stop-color:#ffb380;stop-opacity:1"
         offset="0"
         id="stop1-5" />
      <stop
         style="stop-color:#ffb7ff;stop-opacity:1;"
         offset="0.48888862"
         id="stop2-3" />
      <stop
         style="stop-color:#b07bff;stop-opacity:1;"
         offset="1"
         id="stop3" />
    </linearGradient>
    <linearGradient
       inkscape:collect="always"
       xlink:href="#linearGradient3"
       id="linearGradient2-5"
       gradientUnits="userSpaceOnUse"
       gradientTransform="matrix(0.88886955,0,0,0.88886955,-371.75815,-454.56568)"
       x1="423.56177"
       y1="525.005"
       x2="439.61209"
       y2="525.005" />
  </defs>
  <path
     d="m 10.900276,18.999806 c -0.227916,0 -0.439914,-0.02894 -0.623899,-0.09694 -0.3772955,-0.137386 -0.6206555,-0.415373 -0.6846405,-0.782719 -0.0575,-0.33264 -0.16799,-0.383399 -0.656559,-0.472066 -0.319281,-0.05746 -0.717949,-0.130668 -1.009829,-0.444025 -0.56523,-0.589321 0.02787,-1.216159 0.250629,-1.452064 0.04059,-0.04239 0.096,-0.100669 0.14132,-0.154067 -0.279959,-0.155397 -0.93923,-0.372773 -1.358507,-0.511397 -0.988501,-0.326679 -1.61191,-0.548055 -1.91917,-0.869387 -0.16201,-0.165369 -0.23324,-0.379393 -0.19593,-0.598053 0.0766,-0.452667 0.565971,-0.694078 1.083223,-0.948725 0,0 6.66e-4,0 6.66e-4,0 -0.237969,-0.08111 -0.507959,-0.154063 -0.77192,-0.22669 C 4.2171115,12.187632 3.2471894,11.922264 3.0372444,11.146772 2.8539507,10.464744 3.3851835,9.8233996 3.8019025,9.4001036 l 5.506522,-5.735833 c 0.429402,-0.433449 1.0059315,-0.672076 1.6132795,-0.664076 0.0049,0 0.01077,0 0.01329,0 0.59452,0 1.169805,0.229368 1.611121,0.647347 l 5.726613,5.959195 c 0.581946,0.5920234 0.812578,1.1707564 0.684615,1.7187674 -0.244048,1.05147 -1.674534,1.550839 -3.056331,2.033547 -0.417253,0.146006 -0.844525,0.294698 -1.177188,0.444724 0.01329,0.01074 0.0207,0.01332 0.0302,0.01708 0.506628,0.285409 1.271175,0.716721 0.988561,1.432767 -0.317293,0.822106 -0.917919,0.982799 -1.448504,1.125411 -0.361255,0.09694 -0.73328,0.19616 -1.128558,0.51548 0.196638,0.1104 0.415954,0.275906 0.453304,0.576052 0.0206,0.162654 -0.01329,0.405947 -0.28728,0.643412 C 12.747614,18.605295 11.725069,19 10.90317,19 Z M 8.7691765,16.584929 c 0.09313,0.03506 0.220721,0.05653 0.34529,0.07893 0.478011,0.0872 1.2778955,0.232666 1.4618935,1.282759 0.165245,0.152679 1.076595,0.03467 1.767815,-0.36264 -0.168702,-0.108937 -0.332,-0.26608 -0.374646,-0.515453 -0.02626,-0.15736 -0.01329,-0.398026 0.228546,-0.646026 0.684019,-0.702758 1.349288,-0.880779 1.835094,-1.011398 0.434093,-0.116424 0.602684,-0.171423 0.725371,-0.408063 -0.118646,-0.09884 -0.357371,-0.233347 -0.498024,-0.31204 -0.42459,-0.239372 -0.824574,-0.464725 -0.847853,-0.888748 -0.01232,-0.131335 0.0225,-0.382069 0.300569,-0.582682 0.431937,-0.308707 1.123924,-0.550666 1.85447,-0.806103 0.913258,-0.319443 2.292446,-0.80144 2.412428,-1.31618 0.0592,-0.253329 -0.24059,-0.60534 -0.425377,-0.792678 -0.0033,-0.002 -0.0049,-0.0033 -0.0091,-0.0059 L 11.834159,4.3543706 c -0.237231,-0.224013 -0.568523,-0.356746 -0.915826,-0.356746 -0.01232,0 -0.016,0 -0.0242,0 -0.330041,0 -0.643961,0.131329 -0.872585,0.362038 L 4.5156215,10.094226 c -0.565973,0.574736 -0.515974,0.78743 -0.515974,0.789439 0.05955,0.221989 0.942573,0.463348 1.416504,0.592656 0.577254,0.1574 1.175161,0.320731 1.604468,0.598078 0.306623,0.203306 0.323303,0.476732 0.316597,0.585454 -0.02754,0.440025 -0.464586,0.655343 -0.971197,0.904675 -0.08,0.03989 -0.182669,0.0896 -0.28128,0.141958 0.337279,0.147347 0.839905,0.314095 1.18457,0.428107 0.962506,0.318026 1.569093,0.532746 1.871024,0.84012 0.574641,0.59932 -0.01795,1.226024 -0.240572,1.461342 -0.0385,0.0412 -0.08911,0.096 -0.134053,0.146827 z m 6.0493085,-1.520677 h 0.01232 z m -0.01329,-0.175427 c -6.95e-4,6.02e-4 -6.95e-4,0.0023 -0.002,0.0035 7.19e-4,-6.4e-4 7.19e-4,-0.0023 0.002,-0.0035 z M 5.7542185,13.52203 c 0,6.68e-4 6.4e-4,0.0021 8.51e-4,0.0021 -6.5e-4,0 -8.51e-4,-6.13e-4 -8.51e-4,-0.0021 z"
     id="path2-4-0"
     style="fill:url(#linearGradient1-7);stroke-width:0.666665" />
  <path
     d="m 10.461076,9.3469356 c -0.06203,0 -0.125301,-0.01329 -0.185339,-0.03569 -0.150032,-0.05979 -0.262021,-0.188701 -0.3000615,-0.34543 l -0.149849,-0.611934 -0.19744,0.433364 c -0.08197,0.17793 -0.258494,0.292669 -0.454522,0.292669 -6.88e-4,0 -8.48e-4,0 -0.002,0 l -3.876835,-0.01329 c -0.276,-6.74e-4 -0.498665,-0.225341 -0.497945,-0.5014 6.65e-4,-0.276029 0.224651,-0.498736 0.499948,-0.498736 6.78e-4,0 8.63e-4,0 0.002,0 l 3.552947,0.01329 0.660618,-1.452776 c 0.0881,-0.194647 0.287941,-0.314006 0.5019825,-0.291331 0.211807,0.02002 0.388519,0.172034 0.439178,0.378703 l 0.326631,1.333404 0.904601,-0.581355 c 0.153994,-0.0992 0.348617,-0.104207 0.510597,-0.01884 l 0.293945,0.161339 0.1056,-0.65008 c 0.02844,-0.176599 0.150756,-0.324712 0.318732,-0.387969 0.165205,-0.06207 0.356531,-0.03099 0.494495,0.08369 l 0.680556,0.565391 0.42996,-0.642053 c 0.152697,-0.228754 0.462592,-0.29136 0.693236,-0.138035 0.229309,0.153279 0.29136,0.464031 0.137323,0.693983 l -0.73721,1.103453 c -0.077,0.117171 -0.20336,0.196669 -0.343952,0.216669 -0.135224,0.02167 -0.282017,-0.02031 -0.391185,-0.10954 l -0.434757,-0.361323 -0.07889,0.484711 c -0.0255,0.16 -0.128,0.297301 -0.27396,0.36859 -0.146619,0.0719 -0.3173,0.06779 -0.459338,-0.01329 l -0.65326,-0.358047 -1.243789,0.799437 c -0.0832,0.05356 -0.1773,0.08 -0.271975,0.08 z m 5.688571,8.5101784 c -0.331325,0 -0.647885,-0.136013 -0.850498,-0.395439 -0.270744,-0.347266 -0.31334,-0.912066 0.204554,-1.391478 0.117163,-0.108147 0.276075,-0.155321 0.436665,-0.123723 0.742545,0.146679 1.093872,0.623332 1.167825,0.986065 0.0593,0.289253 -0.04,0.561292 -0.257943,0.710025 -0.0033,0.0039 -0.01006,0.0053 -0.01329,0.0094 -0.215327,0.14136 -0.457257,0.2094 -0.691926,0.2094 z m 0.418693,-0.627479 h 0.01232 z M 5.8555795,17.531741 c -0.277219,0 -0.537306,-0.09787 -0.751969,-0.285386 -0.4632,-0.39796 -0.383229,-0.828719 -0.327229,-0.995999 0.183249,-0.545534 0.860638,-0.829448 1.412539,-0.862211 0.01329,-5.34e-4 0.02047,-5.34e-4 0.0289,-5.34e-4 0.485223,-0.02177 0.896522,0.143983 1.13255,0.460001 0.103636,0.138704 0.12736,0.320704 0.06501,0.48201 -0.224594,0.56932 -0.731865,1.038053 -1.263851,1.166053 -0.100206,0.02386 -0.199238,0.03627 -0.296596,0.03627 z m -0.0562,-1.012132 c 0.02482,0.01333 0.06129,0.018 0.119488,0.0066 0.0766,-0.0192 0.160556,-0.06507 0.240556,-0.127999 -0.15137,0.02334 -0.279964,0.07534 -0.359963,0.124134 z M 17.617999,15.608822 c -0.483981,0 -0.973967,-0.0896 -1.221953,-0.210693 C 16.03754,15.223531 15.9988,14.943507 15.9988,14.830812 c 0,-0.04148 0.01006,-0.08358 0.01489,-0.123861 0.15736,-0.615317 0.735893,-1.050005 1.44717,-1.09149 0.01329,-0.0021 0.0255,-0.0035 0.03951,-0.0052 0.769218,-0.03092 1.359187,0.391399 1.485188,1.050067 0.05379,0.260051 -0.0434,0.514719 -0.260029,0.684078 -0.241903,0.190015 -0.672478,0.262669 -1.107755,0.262669 z m 0.388638,-0.745315 c 0,0 0,7.01e-4 0,7.01e-4 z"
     id="path4-5-7"
     style="fill:url(#linearGradient2-5);stroke-width:0.666665" />
</svg>
