<?xml version="1.0" encoding="UTF-8" standalone="no"?>
<svg
   width="24"
   height="24"
   version="1.1"
   id="svg1"
   sodipodi:docname="folder-videos.svg"
   inkscape:version="1.3.2 (091e20ef0f, 2023-11-25)"
   xmlns:inkscape="http://www.inkscape.org/namespaces/inkscape"
   xmlns:sodipodi="http://sodipodi.sourceforge.net/DTD/sodipodi-0.dtd"
   xmlns:xlink="http://www.w3.org/1999/xlink"
   xmlns="http://www.w3.org/2000/svg"
   xmlns:svg="http://www.w3.org/2000/svg">
  <sodipodi:namedview
     id="namedview1"
     pagecolor="#ffffff"
     bordercolor="#000000"
     borderopacity="0.25"
     inkscape:showpageshadow="2"
     inkscape:pageopacity="0.0"
     inkscape:pagecheckerboard="0"
     inkscape:deskcolor="#d1d1d1"
     inkscape:zoom="15.979167"
     inkscape:cx="12.891786"
     inkscape:cy="16.865711"
     inkscape:window-width="1920"
     inkscape:window-height="994"
     inkscape:window-x="0"
     inkscape:window-y="0"
     inkscape:window-maximized="1"
     inkscape:current-layer="svg1"
     showgrid="true">
    <inkscape:grid
       id="grid1"
       units="px"
       originx="0"
       originy="0"
       spacingx="1"
       spacingy="1"
       empcolor="#0099e5"
       empopacity="0.30196078"
       color="#0099e5"
       opacity="0.14901961"
       empspacing="5"
       dotted="false"
       gridanglex="30"
       gridanglez="30"
       visible="true" />
  </sodipodi:namedview>
  <defs
     id="defs1">
    <linearGradient
       id="linearGradient1"
       inkscape:collect="always">
      <stop
         style="stop-color:#77ffe4;stop-opacity:1;"
         offset="0"
         id="stop1" />
      <stop
         style="stop-color:#e08faf;stop-opacity:1;"
         offset="1"
         id="stop2" />
    </linearGradient>
    <style
       type="text/css"
       id="style1">.ColorScheme-Text { color:#d8dee9; }</style>
    <linearGradient
       inkscape:collect="always"
       xlink:href="#linearGradient1"
       id="linearGradient2"
       x1="4"
       y1="19"
       x2="16"
       y2="7.7522817"
       gradientUnits="userSpaceOnUse"
       gradientTransform="matrix(1.23125,0,0,1.23125,-2.7749994,-3.390623)" />
  </defs>
  <path
     d="M 4.6124992,3.996876 C 3.2482741,3.996876 2.15,5.0951501 2.15,6.4593752 V 17.540617 c 0,1.364222 1.0982741,2.462507 2.4624992,2.462507 H 19.387493 c 1.364222,0 2.462507,-1.098285 2.462507,-2.462507 V 6.4593752 C 21.85,5.0951501 20.751715,3.996876 19.387493,3.996876 Z m 0,1.2312496 H 5.8437489 V 6.4593752 H 3.3812496 c 0,-0.6821112 0.5491384,-1.2312496 1.2312496,-1.2312496 z m 2.4624997,0 H 16.925004 V 11.38438 H 7.0749989 Z m 11.0812491,0 h 1.231245 c 0.682122,0 1.231262,0.5491384 1.231262,1.2312496 H 18.156248 Z M 3.3812496,7.6906249 H 5.8437489 V 8.921868 H 3.3812496 Z m 14.7749984,0 h 2.462507 V 8.921868 H 18.156248 Z M 3.3812496,10.153135 H 5.8437489 V 11.38438 H 3.3812496 Z m 14.7749984,0 h 2.462507 V 11.38438 H 18.156248 Z M 3.3812496,12.61562 h 2.4624993 v 1.231245 H 3.3812496 Z m 3.6937493,0 h 9.8500051 v 6.15626 H 7.0749989 Z m 11.0812491,0 h 2.462507 v 1.231245 H 18.156248 Z M 3.3812496,15.078132 h 2.4624993 v 1.23124 H 3.3812496 Z m 14.7749984,0 h 2.462507 v 1.23124 H 18.156248 Z M 3.3812496,17.540617 H 5.8437489 V 18.77188 H 4.6124992 c -0.6821112,0 -1.2312496,-0.549141 -1.2312496,-1.231263 z m 14.7749984,0 h 2.462507 c 0,0.682122 -0.54914,1.231263 -1.231262,1.231263 h -1.231245 z"
     id="path1"
     style="fill:url(#linearGradient2);stroke-width:1.23118" />
</svg>
