<?xml version="1.0" encoding="UTF-8" standalone="no"?>
<svg
   style="isolation:isolate"
   width="22"
   height="22"
   viewBox="0 0 22 22"
   version="1.1"
   id="svg26"
   sodipodi:docname="network-workgroup.svg"
   inkscape:version="1.3.2 (091e20ef0f, 2023-11-25)"
   xmlns:inkscape="http://www.inkscape.org/namespaces/inkscape"
   xmlns:sodipodi="http://sodipodi.sourceforge.net/DTD/sodipodi-0.dtd"
   xmlns:xlink="http://www.w3.org/1999/xlink"
   xmlns="http://www.w3.org/2000/svg"
   xmlns:svg="http://www.w3.org/2000/svg">
  <sodipodi:namedview
     id="namedview26"
     pagecolor="#ffffff"
     bordercolor="#000000"
     borderopacity="0.25"
     inkscape:showpageshadow="2"
     inkscape:pageopacity="0.0"
     inkscape:pagecheckerboard="0"
     inkscape:deskcolor="#d1d1d1"
     inkscape:zoom="16.948466"
     inkscape:cx="3.1271267"
     inkscape:cy="6.637769"
     inkscape:window-width="1920"
     inkscape:window-height="994"
     inkscape:window-x="0"
     inkscape:window-y="0"
     inkscape:window-maximized="1"
     inkscape:current-layer="svg26" />
  <defs
     id="defs22">
    <linearGradient
       id="linearGradient32"
       inkscape:collect="always">
      <stop
         style="stop-color:#00ccff;stop-opacity:1"
         offset="0"
         id="stop32" />
      <stop
         style="stop-color:#2affd5;stop-opacity:1"
         offset="1"
         id="stop33" />
    </linearGradient>
    <style
       id="current-color-scheme"
       type="text/css">
   .ColorScheme-Text { color:#d5c289; } .ColorScheme-Highlight { color:#5294e2; }
  </style>
    <linearGradient
       id="arrongin"
       x1="0"
       x2="0"
       y1="0"
       y2="1">
      <stop
         offset="0%"
         style="stop-color:#dd9b44; stop-opacity:1"
         id="stop1" />
      <stop
         offset="100%"
         style="stop-color:#ad6c16; stop-opacity:1"
         id="stop2" />
    </linearGradient>
    <linearGradient
       id="aurora"
       x1="0"
       x2="0"
       y1="0"
       y2="1">
      <stop
         offset="0%"
         style="stop-color:#09D4DF; stop-opacity:1"
         id="stop3" />
      <stop
         offset="100%"
         style="stop-color:#9269F4; stop-opacity:1"
         id="stop4" />
    </linearGradient>
    <linearGradient
       id="fitdance"
       x1="0"
       x2="0"
       y1="0"
       y2="1">
      <stop
         offset="0%"
         style="stop-color:#1AD6AB; stop-opacity:1"
         id="stop5" />
      <stop
         offset="100%"
         style="stop-color:#329DB6; stop-opacity:1"
         id="stop6" />
    </linearGradient>
    <linearGradient
       id="oomox"
       x1="0"
       x2="0"
       y1="0"
       y2="1">
      <stop
         offset="0%"
         style="stop-color:#303b3d; stop-opacity:1"
         id="stop7" />
      <stop
         offset="100%"
         style="stop-color:#bc985d; stop-opacity:1"
         id="stop8" />
    </linearGradient>
    <linearGradient
       id="rainblue"
       x1="0"
       x2="0"
       y1="0"
       y2="1">
      <stop
         offset="0%"
         style="stop-color:#00F260; stop-opacity:1"
         id="stop9" />
      <stop
         offset="100%"
         style="stop-color:#0575E6; stop-opacity:1"
         id="stop10" />
    </linearGradient>
    <linearGradient
       id="sunrise"
       x1="0"
       x2="0"
       y1="0"
       y2="1">
      <stop
         offset="0%"
         style="stop-color: #FF8501; stop-opacity:1"
         id="stop11" />
      <stop
         offset="100%"
         style="stop-color: #FFCB01; stop-opacity:1"
         id="stop12" />
    </linearGradient>
    <linearGradient
       id="telinkrin"
       x1="0"
       x2="0"
       y1="0"
       y2="1">
      <stop
         offset="0%"
         style="stop-color: #b2ced6; stop-opacity:1"
         id="stop13" />
      <stop
         offset="100%"
         style="stop-color: #6da5b7; stop-opacity:1"
         id="stop14" />
    </linearGradient>
    <linearGradient
       id="60spsycho"
       x1="0"
       x2="0"
       y1="0"
       y2="1">
      <stop
         offset="0%"
         style="stop-color: #df5940; stop-opacity:1"
         id="stop15" />
      <stop
         offset="25%"
         style="stop-color: #d8d15f; stop-opacity:1"
         id="stop16" />
      <stop
         offset="50%"
         style="stop-color: #e9882a; stop-opacity:1"
         id="stop17" />
      <stop
         offset="100%"
         style="stop-color: #279362; stop-opacity:1"
         id="stop18" />
    </linearGradient>
    <linearGradient
       id="90ssummer"
       x1="0"
       x2="0"
       y1="0"
       y2="1">
      <stop
         offset="0%"
         style="stop-color: #f618c7; stop-opacity:1"
         id="stop19" />
      <stop
         offset="20%"
         style="stop-color: #94ffab; stop-opacity:1"
         id="stop20" />
      <stop
         offset="50%"
         style="stop-color: #fbfd54; stop-opacity:1"
         id="stop21" />
      <stop
         offset="100%"
         style="stop-color: #0f83ae; stop-opacity:1"
         id="stop22" />
    </linearGradient>
    <linearGradient
       inkscape:collect="always"
       xlink:href="#linearGradient32"
       id="linearGradient33"
       x1="1.7558709"
       y1="11.041137"
       x2="19.755871"
       y2="11.041137"
       gradientUnits="userSpaceOnUse"
       gradientTransform="translate(0.24412905,-0.0411373)" />
    <linearGradient
       inkscape:collect="always"
       xlink:href="#linearGradient32"
       id="linearGradient35"
       x1="0.5"
       y1="7.9640002"
       x2="15.934"
       y2="7.9640002"
       gradientUnits="userSpaceOnUse" />
  </defs>
  <path
     class="ColorScheme-Text"
     d="m 6.4932497,3.0000003 c -1.4152495,0.017142 -2.4513748,-0.034286 -3.2985002,0.44 -0.4376248,0.253714 -0.7717498,0.658286 -0.9416247,1.1405718 -0.1856249,0.5005704 -0.2531249,1.0971422 -0.2531249,1.848 v 9.1428499 c 0,0.752 0.067499,1.347438 0.2531249,1.848 0.1845,0.501718 0.5186251,0.90286 0.9416248,1.140578 0.8471254,0.475422 1.8832507,0.42286 3.2985002,0.44 h 9.0134952 c 1.415254,-0.01718 2.45137,0.03422 3.298502,-0.44 C 19.242879,18.306282 19.578119,17.901718 19.748,17.419422 19.932494,16.91886 20,16.322282 20,15.571422 V 6.4285721 c 0,-0.752 -0.06753,-1.3474296 -0.253121,-1.848 -0.169882,-0.4822858 -0.504,-0.8868578 -0.941632,-1.1405718 -0.847132,-0.4754286 -1.883248,-0.4228578 -3.298502,-0.44 H 6.4977487 Z m 0.00671,1.1428578 h 8.9999923 c 1.416378,0.01714 2.347871,0.068571 2.759632,0.2994282 0.206996,0.1142858 0.326245,0.2422858 0.435372,0.539428 0.109115,0.2971438 0.180002,0.770286 0.180002,1.4468578 v 9.1428499 c 0,0.676578 -0.07088,1.149718 -0.180002,1.44686 -0.110251,0.29714 -0.228376,0.424 -0.435372,0.539436 C 17.847823,17.788578 16.91633,17.84 15.499952,17.85714 H 6.4999961 C 5.0836248,17.84002 4.1487503,17.78855 3.7381245,17.557718 3.53225,17.443422 3.4152494,17.315422 3.3049995,17.018282 3.1958755,16.72114 3.1250005,16.248 3.1250005,15.571422 V 6.4285721 c 0,-0.6765718 0.070874,-1.149714 0.179999,-1.4468578 0.11025,-0.2971422 0.2272506,-0.424 0.433125,-0.539428 0.4117501,-0.2308578 1.3455003,-0.282286 2.7618744,-0.2994282 z"
     id="path22"
     style="fill:url(#linearGradient33);fill-opacity:1" />
  <g
     opacity="0.5"
     id="g23"
     transform="matrix(1.1250005,0,0,1.1428578,1.9999999,1.8571432)">
    <path
       fill-rule="evenodd"
       d="m 12.316,1.297 -1,0.021 c 0.02,0.936 -0.075,1.85 -0.22,2.75 0.13,-0.037 0.263,-0.064 0.404,-0.064 0.214,0 0.416,0.048 0.602,0.13 0.143,-0.928 0.234,-1.871 0.214,-2.837 z M 4.383,1.559 C 4.269,2.933 4.24,4.312 4.297,5.689 4.508,5.575 4.745,5.504 5,5.504 5.101,5.504 5.2,5.516 5.297,5.535 5.247,4.276 5.267,2.979 5.379,1.643 Z M 0.516,3.406 0.5,3.428 V 4.619 C 1.45,5.299 2.417,5.957 3.398,6.592 2.386,7.01 1.416,7.522 0.5,8.122 V 9.291 L 0.516,9.313 C 1.487,8.627 2.532,8.053 3.631,7.6 3.545,7.411 3.501,7.207 3.5,7 3.5,6.523 3.733,6.099 4.086,5.824 2.874,5.051 1.683,4.245 0.516,3.406 Z M 15.912,4.629 C 14.872,4.652 13.832,4.695 12.793,4.758 12.921,4.978 13,5.229 13,5.5 13,5.585 12.988,5.667 12.975,5.748 13.961,5.69 14.947,5.65 15.934,5.628 Z M 10.098,4.986 C 8.631,5.153 7.211,5.401 5.848,5.77 6.146,5.976 6.364,6.288 6.453,6.648 7.619,6.354 8.835,6.148 10.093,6 10.033,5.84 10.002,5.671 10,5.5 10,5.32 10.038,5.147 10.098,4.986 Z M 11.5,5.004 C 11.367,5.001 11.239,5.053 11.145,5.146 11.051,5.24 10.998,5.367 11,5.5 c -0.003,0.179 0.092,0.345 0.247,0.434 0.155,0.088 0.347,0.085 0.499,-0.008 0.01,-0.036 0.022,-0.07 0.031,-0.106 0.034,-0.003 0.07,-0.003 0.104,-0.006 C 12.007,5.668 12.036,5.461 11.954,5.286 11.872,5.111 11.694,5 11.501,5.004 Z M 5,6.504 C 4.867,6.501 4.739,6.553 4.645,6.646 4.551,6.74 4.498,6.867 4.5,7 4.498,7.133 4.551,7.26 4.645,7.354 4.739,7.447 4.867,7.499 5,7.496 5.133,7.499 5.261,7.447 5.355,7.354 5.449,7.26 5.502,7.133 5.5,7 5.502,6.867 5.449,6.74 5.355,6.646 5.261,6.553 5.133,6.501 5,6.504 Z m 5.498,0.1 C 10.346,7.077 10.175,7.544 9.986,8.002 L 10,8 c 0.351,0 0.673,0.127 0.93,0.332 C 11.11,7.891 11.274,7.444 11.422,6.988 11.079,6.97 10.752,6.834 10.498,6.603 Z M 6.477,7.23 C 6.422,7.572 6.25,7.884 5.99,8.113 6.81,8.558 7.651,8.971 8.516,9.342 8.553,8.989 8.708,8.671 8.949,8.434 8.107,8.071 7.282,7.669 6.477,7.23 Z M 5.586,8.373 C 5.405,8.451 5.208,8.496 5,8.496 4.843,8.496 4.695,8.463 4.553,8.418 4.687,9.241 4.878,10.034 5.119,10.797 5.368,10.615 5.671,10.504 6,10.504 c 0.027,0 0.052,0.006 0.078,0.008 C 5.866,9.811 5.701,9.096 5.586,8.373 Z M 10,9 C 9.867,8.997 9.739,9.049 9.645,9.142 9.551,9.236 9.498,9.363 9.5,9.496 c 0,0.207 0.12,0.38 0.299,0.455 0.019,-0.02 0.041,-0.037 0.06,-0.058 0.08,0.029 0.164,0.051 0.245,0.08 C 10.334,9.931 10.501,9.73 10.5,9.496 10.502,9.363 10.449,9.236 10.355,9.142 10.261,9.049 10.133,8.997 10,9 Z m 1.486,0.365 c 0.004,0.044 0.014,0.086 0.014,0.131 0,0.313 -0.099,0.603 -0.266,0.844 1.502,0.437 3.06,0.713 4.678,0.748 l 0.022,-1 C 14.407,10.055 12.924,9.787 11.486,9.365 Z M 8.531,9.797 c -0.48,0.419 -1.009,0.775 -1.57,1.066 0.26,0.22 0.445,0.519 0.51,0.864 C 8.04,11.428 8.574,11.068 9.066,10.654 8.794,10.439 8.605,10.136 8.531,9.797 Z M 6,11.504 C 5.867,11.501 5.739,11.553 5.645,11.646 5.551,11.74 5.498,11.867 5.5,12 5.498,12.133 5.551,12.26 5.645,12.354 5.739,12.447 5.867,12.499 6,12.496 6.133,12.499 6.261,12.447 6.355,12.354 6.449,12.26 6.502,12.133 6.5,12 6.502,11.867 6.449,11.74 6.355,11.646 6.261,11.553 6.133,11.501 6,11.504 Z m -1.473,0.24 C 4.382,11.781 4.234,11.832 4.092,11.861 3.164,12.052 2.298,12.123 1.635,12.119 1.361,12.119 1.087,12.101 0.816,12.064 0.612,12.034 0.469,11.97 0.512,11.996 L 0.5,12.016 v 1.007 c 0.056,0.01 0.107,0.022 0.17,0.032 0.268,0.04 0.59,0.062 0.959,0.064 0.738,0.004 1.664,-0.072 2.664,-0.277 0.133,-0.028 0.274,-0.077 0.41,-0.11 C 4.572,12.51 4.502,12.258 4.5,12 c 0,-0.088 0.013,-0.173 0.027,-0.256 z m 2.618,1.207 c -0.222,0.269 -0.531,0.452 -0.874,0.518 0.236,0.402 0.49,0.792 0.776,1.162 l 0.79,-0.613 C 7.581,13.68 7.35,13.323 7.145,12.951 Z"
       id="path23"
       style="fill:url(#linearGradient35)" />
  </g>
  <ellipse
     cx="8.75"
     cy="15.571427"
     rx="1.1250004"
     ry="1.1382858"
     vector-effect="non-scaling-stroke"
     id="ellipse23"
     style="fill:#00d4aa" />
  <ellipse
     class="ColorScheme-Text"
     cx="7.6249971"
     cy="9.8571434"
     rx="1.1250004"
     ry="1.1382858"
     vector-effect="non-scaling-stroke"
     id="ellipse24"
     style="fill:#bc5fd3" />
  <ellipse
     class="ColorScheme-Text"
     cx="14.937498"
     cy="8.1428537"
     rx="1.1250004"
     ry="1.1382858"
     vector-effect="non-scaling-stroke"
     id="ellipse25"
     style="fill:#2a7fff" />
  <ellipse
     class="ColorScheme-Text"
     cx="13.249993"
     cy="12.709722"
     rx="1.1250004"
     ry="1.1382858"
     vector-effect="non-scaling-stroke"
     id="ellipse26"
     style="fill:#00ccff" />
</svg>
