<?xml version="1.0" encoding="UTF-8" standalone="no"?>
<svg
   viewBox="0 0 24 24"
   width="24"
   height="24"
   version="1.1"
   id="svg3"
   sodipodi:docname="drive-harddisk-root.svg"
   inkscape:version="1.3.2 (091e20ef0f, 2023-11-25)"
   xmlns:inkscape="http://www.inkscape.org/namespaces/inkscape"
   xmlns:sodipodi="http://sodipodi.sourceforge.net/DTD/sodipodi-0.dtd"
   xmlns:xlink="http://www.w3.org/1999/xlink"
   xmlns="http://www.w3.org/2000/svg"
   xmlns:svg="http://www.w3.org/2000/svg">
  <defs
     id="defs3">
    <linearGradient
       id="linearGradient6"
       inkscape:collect="always">
      <stop
         style="stop-color:#9955ff;stop-opacity:1"
         offset="0"
         id="stop5" />
      <stop
         style="stop-color:#c83771;stop-opacity:1"
         offset="1"
         id="stop6" />
    </linearGradient>
    <linearGradient
       inkscape:collect="always"
       xlink:href="#linearGradient6"
       id="linearGradient4"
       x1="7.3307085"
       y1="3"
       x2="18"
       y2="18.527559"
       gradientUnits="userSpaceOnUse" />
  </defs>
  <sodipodi:namedview
     id="namedview3"
     pagecolor="#ffffff"
     bordercolor="#999999"
     borderopacity="1"
     inkscape:showpageshadow="2"
     inkscape:pageopacity="0"
     inkscape:pagecheckerboard="0"
     inkscape:deskcolor="#d1d1d1"
     showgrid="true"
     inkscape:zoom="31.75"
     inkscape:cx="12"
     inkscape:cy="12"
     inkscape:window-width="1920"
     inkscape:window-height="994"
     inkscape:window-x="0"
     inkscape:window-y="0"
     inkscape:window-maximized="1"
     inkscape:current-layer="svg3">
    <inkscape:grid
       id="grid3"
       units="px"
       originx="0"
       originy="0"
       spacingx="1"
       spacingy="1"
       empcolor="#0099e5"
       empopacity="0.30196078"
       color="#0099e5"
       opacity="0.14901961"
       empspacing="5"
       dotted="false"
       gridanglex="30"
       gridanglez="30"
       visible="true" />
  </sodipodi:namedview>
  <style
     type="text/css"
     id="current-color-scheme">.ColorScheme-Text { color: #fcfcfc; } </style>
  <g
     transform="translate(1,1)"
     id="g3">
    <g
       style="fill:currentColor;fill-opacity:1;stroke:none"
       class="ColorScheme-Text"
       id="g2">
      <path
         d="M 5,4 V 19 H 17 V 4 C 17,3.453078 16.574786,3 15.976378,3 H 5.9291339 C 5.5172447,3 5,3.4539739 5,4 Z m 4,0 h 4 c 1.656854,0 3,1.3431458 3,3 v 2.088 c -0.598554,0.2116202 -0.999063,0.7771381 -1,1.412 9.37e-4,0.634862 0.401446,1.20038 1,1.412 V 14 l -2,2 H 8 L 6,14 V 11.912 C 6.5985545,11.70038 6.9990629,11.134862 7,10.5 6.9990629,9.8651381 6.5985545,9.2996202 6,9.088 V 7 C 6,5.3431458 7.3431458,4 9,4 Z M 7,17 h 4 v 1 H 7 Z m 6,0 h 2 v 1 h -2 z"
         id="path1"
         style="fill:url(#linearGradient4);fill-opacity:1"
         sodipodi:nodetypes="cccccccsssccccccccccsscccccccccc" />
      <path
         d="m11 6-4.0000004 8h2.0000004l4-8z"
         id="path2"
         style="fill:#c83771;fill-opacity:1" />
      <rect
         height="1"
         width="4"
         x="11"
         y="13"
         id="rect2"
         style="fill:#c83771;fill-opacity:1" />
    </g>
  </g>
</svg>
