<?xml version="1.0" encoding="UTF-8" standalone="no"?>
<svg
   width="22"
   height="22"
   viewBox="0 0 22 22"
   fill="none"
   version="1.1"
   id="svg11"
   sodipodi:docname="appimagekit-wine-launcher.svg"
   inkscape:version="1.3.2 (091e20ef0f, 2023-11-25)"
   xmlns:inkscape="http://www.inkscape.org/namespaces/inkscape"
   xmlns:sodipodi="http://sodipodi.sourceforge.net/DTD/sodipodi-0.dtd"
   xmlns="http://www.w3.org/2000/svg"
   xmlns:svg="http://www.w3.org/2000/svg">
  <sodipodi:namedview
     id="namedview11"
     pagecolor="#ffffff"
     bordercolor="#000000"
     borderopacity="0.25"
     inkscape:showpageshadow="2"
     inkscape:pageopacity="0.0"
     inkscape:pagecheckerboard="0"
     inkscape:deskcolor="#d1d1d1"
     inkscape:zoom="11.984375"
     inkscape:cx="5.7574967"
     inkscape:cy="8.3859192"
     inkscape:window-width="1920"
     inkscape:window-height="994"
     inkscape:window-x="0"
     inkscape:window-y="0"
     inkscape:window-maximized="1"
     inkscape:current-layer="svg11" />
  <path
     d="m 3,10.039829 c 0,0.14487 0.1174369,0.262303 0.2623028,0.262303 h 6.0833789 c 0.1448699,0 0.2623028,-0.117433 0.2623028,-0.262303 V 4.9162032 c 0,-0.1619851 -0.1453682,-0.2852543 -0.3051762,-0.2587748 L 3.2194268,5.6653531 C 3.0928342,5.6863373 3,5.7958094 3,5.9241279 Z M 4.2974546,7.0210389 c 0,-0.1283185 0.092829,-0.2378037 0.2194294,-0.2587748 L 8.0074129,6.18407 c 0.1598079,-0.026479 0.305163,0.09679 0.305163,0.2587748 v 2.3015759 c 0,0.1448699 -0.1174329,0.2623028 -0.2623028,0.2623028 H 4.5597574 c -0.1448699,0 -0.2623028,-0.1174329 -0.2623028,-0.2623028 z"
     fill="url(#paint0_linear_641_68)"
     id="path1"
     style="fill:url(#paint0_linear_641_68);stroke-width:0.131151" />
  <path
     d="m 3,11.972607 c 0,-0.144869 0.1174369,-0.262302 0.2623028,-0.262302 h 6.0833789 c 0.1448699,0 0.2623028,0.117433 0.2623028,0.262302 v 5.123679 c 0,0.161972 -0.1453682,0.285254 -0.3051762,0.258762 L 3.2194268,16.347018 C 3.0928342,16.326034 3,16.216654 3,16.088256 Z m 1.2974546,3.018791 c 0,0.128318 0.092829,0.237804 0.2194294,0.258775 l 3.4905289,0.578141 c 0.1598079,0.02649 0.305163,-0.09679 0.305163,-0.258722 v -2.301589 c 0,-0.14487 -0.1174329,-0.262303 -0.2623028,-0.262303 H 4.5597574 c -0.1448699,0 -0.2623028,0.117433 -0.2623028,0.262303 z"
     fill="url(#paint1_linear_641_68)"
     id="path2"
     style="fill:url(#paint1_linear_641_68);stroke-width:0.131151" />
  <path
     fill-rule="evenodd"
     clip-rule="evenodd"
     d="m 11.337229,4.2120645 c -0.126587,0.020984 -0.219416,0.1304563 -0.219416,0.2587748 V 9.896271 c 0,0.14487 0.117433,0.262303 0.262302,0.262303 h 7.292871 c 0.144791,0 0.262302,-0.117433 0.262302,-0.262303 V 3.2623697 c 0,-0.1619878 -0.145447,-0.2852557 -0.305189,-0.2587736 z m 6.302808,4.6511007 h -4.96029 c -0.14487,0 -0.262303,-0.1174461 -0.262303,-0.2623028 V 5.5677371 c 0,-0.1283185 0.09283,-0.2378037 0.219417,-0.2587748 l 4.699954,-0.7787245 c 0.159874,-0.026479 0.305189,0.096777 0.305189,0.2587748 v 4.0721066 c 0,0.00113 -9.18e-4,0.00205 -0.002,0.00205 z"
     fill="url(#paint2_linear_641_68)"
     id="path3"
     style="fill:url(#paint2_linear_641_68);stroke-width:0.131151" />
  <path
     fill-rule="evenodd"
     clip-rule="evenodd"
     d="m 11.402555,17.787979 c -0.126587,-0.02098 -0.219429,-0.130496 -0.219429,-0.258762 v -5.425458 c 0,-0.14487 0.117446,-0.262303 0.262303,-0.262303 h 7.29287 c 0.144791,0 0.262303,0.117433 0.262303,0.262303 v 6.633887 c 0,0.161972 -0.145447,0.285254 -0.30519,0.258762 z m 1.342505,-4.651114 c -0.144869,0 -0.262302,0.117433 -0.262302,0.262302 v 3.0331 c 0,0.128397 0.09284,0.237777 0.219429,0.258761 l 4.699942,0.778777 c 0.159873,0.02649 0.305189,-0.09679 0.305189,-0.258761 v -3.811877 c 0,-0.144869 -0.117381,-0.262302 -0.262303,-0.262302 z"
     fill="url(#paint3_linear_641_68)"
     id="path4"
     style="fill:url(#paint3_linear_641_68);stroke-width:0.131151" />
  <defs
     id="defs11">
    <linearGradient
       id="paint0_linear_641_68"
       x1="53"
       y1="39.5"
       x2="3"
       y2="41.5"
       gradientUnits="userSpaceOnUse"
       gradientTransform="matrix(0.1311514,0,0,0.1311514,2.6065458,2.6065484)">
      <stop
         stop-color="#FF2424"
         id="stop4" />
      <stop
         offset="1"
         stop-color="#FF8D8D"
         id="stop5" />
    </linearGradient>
    <linearGradient
       id="paint1_linear_641_68"
       x1="53"
       y1="91"
       x2="3"
       y2="87.5"
       gradientUnits="userSpaceOnUse"
       gradientTransform="matrix(0.1311514,0,0,0.1311514,2.6065458,2.6065484)">
      <stop
         stop-color="#5558FF"
         id="stop6" />
      <stop
         offset="1"
         stop-color="#00C0FF"
         id="stop7" />
    </linearGradient>
    <linearGradient
       id="paint2_linear_641_68"
       x1="123"
       y1="32"
       x2="65"
       y2="35.5"
       gradientUnits="userSpaceOnUse"
       gradientTransform="matrix(0.1311514,0,0,0.1311514,2.6065458,2.6065484)">
      <stop
         stop-color="#02AA93"
         id="stop8" />
      <stop
         offset="1"
         stop-color="#67FF80"
         id="stop9" />
    </linearGradient>
    <linearGradient
       id="paint3_linear_641_68"
       x1="125"
       y1="98"
       x2="65"
       y2="93"
       gradientUnits="userSpaceOnUse"
       gradientTransform="matrix(0.1311514,0,0,0.1311514,2.6065458,2.6065484)">
      <stop
         stop-color="#FD5900"
         id="stop10" />
      <stop
         offset="1"
         stop-color="#FFDE00"
         id="stop11" />
    </linearGradient>
  </defs>
</svg>
