<?xml version="1.0" encoding="UTF-8" standalone="no"?>
<svg
   viewBox="0 0 22 22"
   version="1.1"
   id="svg1"
   sodipodi:docname="folder-sound.svg"
   inkscape:version="1.3.1 (91b66b0783, 2023-11-16)"
   xmlns:inkscape="http://www.inkscape.org/namespaces/inkscape"
   xmlns:sodipodi="http://sodipodi.sourceforge.net/DTD/sodipodi-0.dtd"
   xmlns:xlink="http://www.w3.org/1999/xlink"
   xmlns="http://www.w3.org/2000/svg"
   xmlns:svg="http://www.w3.org/2000/svg">
  <sodipodi:namedview
     id="namedview1"
     pagecolor="#ffffff"
     bordercolor="#000000"
     borderopacity="0.25"
     inkscape:showpageshadow="2"
     inkscape:pageopacity="0.0"
     inkscape:pagecheckerboard="0"
     inkscape:deskcolor="#d1d1d1"
     inkscape:zoom="34.863636"
     inkscape:cx="11.014342"
     inkscape:cy="11"
     inkscape:window-width="1920"
     inkscape:window-height="994"
     inkscape:window-x="0"
     inkscape:window-y="0"
     inkscape:window-maximized="1"
     inkscape:current-layer="svg1" />
  <defs
     id="defs3051">
    <linearGradient
       id="linearGradient1"
       inkscape:collect="always">
      <stop
         style="stop-color:#ff8dff;stop-opacity:1;"
         offset="0"
         id="stop1" />
      <stop
         style="stop-color:#ffe789;stop-opacity:1;"
         offset="1"
         id="stop2" />
    </linearGradient>
    <style
       type="text/css"
       id="current-color-scheme">
      .ColorScheme-Text {
        color:#eff0f1;
      }
      </style>
    <linearGradient
       inkscape:collect="always"
       xlink:href="#linearGradient1"
       id="linearGradient2"
       x1="3.2581487"
       y1="19"
       x2="19.602346"
       y2="2.7392437"
       gradientUnits="userSpaceOnUse" />
  </defs>
  <path
     style="opacity:1;fill:url(#linearGradient2);fill-opacity:1;stroke:none"
     d="M 7 3 L 7 4 L 7 14.503906 A 2.5 2.5 0 0 0 5.5 14 A 2.5 2.5 0 0 0 3 16.5 A 2.5 2.5 0 0 0 5.5 19 A 2.5 2.5 0 0 0 8 16.5 L 8 7 L 18 7 L 18 12.503906 A 2.5 2.5 0 0 0 16.5 12 A 2.5 2.5 0 0 0 14 14.5 A 2.5 2.5 0 0 0 16.5 17 A 2.5 2.5 0 0 0 19 14.5 L 19 4 L 19 3.5 L 19 3 L 8 3 L 7 3 z M 8 4 L 18 4 L 18 6 L 8 6 L 8 4 z "
     id="path4867" />
</svg>
