<?xml version="1.0" encoding="UTF-8" standalone="no"?>
<svg
   viewBox="0 0 22 22"
   version="1.1"
   id="svg6"
   sodipodi:docname="folder-gimp.svg"
   inkscape:version="1.3.2 (091e20ef0f, 2023-11-25)"
   width="100%"
   height="100%"
   xmlns:inkscape="http://www.inkscape.org/namespaces/inkscape"
   xmlns:sodipodi="http://sodipodi.sourceforge.net/DTD/sodipodi-0.dtd"
   xmlns:xlink="http://www.w3.org/1999/xlink"
   xmlns="http://www.w3.org/2000/svg"
   xmlns:svg="http://www.w3.org/2000/svg"
   xmlns:rdf="http://www.w3.org/1999/02/22-rdf-syntax-ns#"
   xmlns:cc="http://creativecommons.org/ns#"
   xmlns:dc="http://purl.org/dc/elements/1.1/">
  <metadata
     id="metadata10">
    <rdf:RDF>
      <cc:Work
         rdf:about="">
        <dc:format>image/svg+xml</dc:format>
        <dc:type
           rdf:resource="http://purl.org/dc/dcmitype/StillImage" />
      </cc:Work>
    </rdf:RDF>
  </metadata>
  <sodipodi:namedview
     pagecolor="#ffffff"
     bordercolor="#666666"
     borderopacity="1"
     objecttolerance="10"
     gridtolerance="10"
     guidetolerance="10"
     inkscape:pageopacity="0"
     inkscape:pageshadow="2"
     inkscape:window-width="1920"
     inkscape:window-height="994"
     id="namedview8"
     showgrid="false"
     inkscape:zoom="28.545455"
     inkscape:cx="10.229299"
     inkscape:cy="11.035032"
     inkscape:window-x="0"
     inkscape:window-y="0"
     inkscape:window-maximized="1"
     inkscape:current-layer="svg6"
     inkscape:pagecheckerboard="0"
     inkscape:showpageshadow="2"
     inkscape:deskcolor="#d1d1d1">
    <inkscape:grid
       type="xygrid"
       id="grid855"
       originx="0"
       originy="0"
       spacingy="1"
       spacingx="1"
       units="px"
       visible="false" />
  </sodipodi:namedview>
  <defs
     id="defs3051">
    <style
       type="text/css"
       id="current-color-scheme">.ColorScheme-Text { color:#eff0f1 }
</style>
    <linearGradient
       inkscape:collect="always"
       xlink:href="#linearGradient14"
       id="linearGradient2-6"
       x1="2.0736756"
       y1="16.528364"
       x2="29.200001"
       y2="16.528364"
       gradientUnits="userSpaceOnUse" />
    <linearGradient
       inkscape:collect="always"
       id="linearGradient14">
      <stop
         style="stop-color:#6539b5;stop-opacity:1;"
         offset="0"
         id="stop12" />
      <stop
         style="stop-color:#deaa87;stop-opacity:1"
         offset="0.4817889"
         id="stop13" />
      <stop
         style="stop-color:#00bdff;stop-opacity:1;"
         offset="1"
         id="stop14" />
    </linearGradient>
    <linearGradient
       inkscape:collect="always"
       xlink:href="#linearGradient12"
       id="linearGradient3-9"
       gradientUnits="userSpaceOnUse"
       x1="2.0736756"
       y1="16.528364"
       x2="29.200001"
       y2="16.528364"
       gradientTransform="matrix(1.1043437,0,0,1.1278841,-0.01837615,-0.79529482)" />
    <linearGradient
       inkscape:collect="always"
       id="linearGradient12">
      <stop
         style="stop-color:#a78bda;stop-opacity:1;"
         offset="0"
         id="stop7" />
      <stop
         style="stop-color:#deaa87;stop-opacity:1"
         offset="0.4817889"
         id="stop8" />
      <stop
         style="stop-color:#d35f8d;stop-opacity:1"
         offset="1"
         id="stop9" />
    </linearGradient>
    <linearGradient
       inkscape:collect="always"
       xlink:href="#linearGradient10"
       id="linearGradient6-1"
       gradientUnits="userSpaceOnUse"
       x1="15.724677"
       y1="16.659735"
       x2="23.438488"
       y2="15.588104"
       gradientTransform="translate(0.67532268,0.94026499)" />
    <linearGradient
       inkscape:collect="always"
       id="linearGradient10">
      <stop
         style="stop-color:#a78bda;stop-opacity:1;"
         offset="0"
         id="stop1" />
      <stop
         style="stop-color:#deaa87;stop-opacity:1"
         offset="0.4817889"
         id="stop2" />
      <stop
         style="stop-color:#00bdff;stop-opacity:1;"
         offset="1"
         id="stop3" />
    </linearGradient>
    <linearGradient
       inkscape:collect="always"
       xlink:href="#linearGradient12"
       id="linearGradient1"
       gradientUnits="userSpaceOnUse"
       x1="2.0736756"
       y1="16.528364"
       x2="29.200001"
       y2="16.528364" />
    <linearGradient
       inkscape:collect="always"
       xlink:href="#linearGradient12"
       id="linearGradient11"
       x1="14.3"
       y1="15.6"
       x2="18.4"
       y2="15.6"
       gradientUnits="userSpaceOnUse" />
    <linearGradient
       inkscape:collect="always"
       xlink:href="#linearGradient14"
       id="linearGradient2"
       gradientUnits="userSpaceOnUse"
       x1="2.0736756"
       y1="16.528364"
       x2="29.200001"
       y2="16.528364" />
  </defs>
  <g
     id="g1404-1-9"
     transform="matrix(0.75535095,0,0,0.74214489,-1.0663528,-1.6153487)"
     style="fill:url(#linearGradient2-6)">
    <path
       class="st0"
       d="m 19.086769,26.83787 c -5.190416,0 -8.503445,-1.240674 -10.6016989,-2.932498 0.4417374,-0.112786 0.883475,-0.338364 1.3252125,-0.676733 0.8834764,-0.902305 1.1043464,-2.142979 0.9939084,-3.270862 0,-0.22558 -0.110432,-0.451157 -0.110432,-0.67673 0.22087,0 0.441739,0.112787 0.662608,0.112787 0.993904,0 1.877379,-0.451151 2.539986,-1.127887 0.662606,1.240673 1.987819,2.142985 3.533901,2.142985 1.877384,0 3.533902,-1.35346 3.865202,-3.27087 0,-0.225572 0.110437,-0.563936 0.110437,-0.789516 0,-0.451156 -0.110437,-0.902305 -0.220869,-1.353464 -0.552176,-1.579032 -1.98782,-2.706919 -3.754771,-2.706919 -0.993906,0 -1.987819,0.338362 -2.650426,1.015101 -0.220869,0.225569 -0.441738,0.451146 -0.662606,0.789514 -0.220869,-0.225579 -0.441738,-0.563945 -0.662607,-0.676728 -0.552166,-0.451155 -1.325213,-0.789525 -2.098248,-0.789525 -1.6565189,0 -3.0921659,1.240674 -3.3130343,2.932507 -0.3313019,-0.22558 -0.5521707,-0.451159 -0.883474,-0.56395 0.2208689,-0.902304 0.7730411,-1.804609 1.4356466,-2.368557 V 8.3405682 c 0,-0.3383651 0.3313032,-0.4511536 0.4417376,-0.1127883 v 0.1127883 c 0.4417376,1.0150959 0.9939091,2.3685588 2.2086841,3.3836528 0.993917,0 1.98782,0.338369 2.650427,1.015094 0.883475,-0.789514 2.098258,-1.353463 3.313033,-1.353463 1.325213,0 2.539989,0.563949 3.423463,1.353463 4.196506,-1.240673 6.405193,-4.0603817 7.509538,-6.3161506 0.110435,-0.3383651 0.773041,-0.2255768 0.773041,0.1127884 0.662607,6.6545202 0.331303,13.5346132 -2.760861,17.3694192 -1.104343,-0.789522 -2.208687,-1.353458 -2.981723,-1.804617 -0.110438,0 -0.110438,-0.11279 -0.220869,-0.11279 0,-0.112788 0,-0.225574 0,-0.225574 v 0 C 22.731106,21.08566 22.178929,20.408932 21.405894,20.183356 v 0 c -0.220869,-0.11279 -0.552176,0 -0.552176,0.338362 -0.11043,0.225575 0,0.563942 0.331307,0.563942 v 0 c 0,0 0.110429,0 0.110429,0 -1.877381,1.240674 -4.086069,1.804615 -6.405186,1.691828 H 14.33809 c -0.220868,0 -0.441737,0.225576 -0.552165,0.451151 0,0.225578 0.220869,0.451158 0.441737,0.563947 h 0.552166 c 1.98782,0.112786 4.086074,-0.225578 5.853021,-1.127885 0,0 0,0 0,0 0.110437,0.112787 0.220869,0.338363 0.331307,0.451149 0.220869,0.225578 0.552168,0.563947 0.993905,0.902311 0.552176,0.563941 1.325213,1.127884 2.208688,1.804615 -1.325213,0.563941 -2.981724,1.015094 -5.07998,1.015094 z"
       id="path1394-2-3"
       style="fill:url(#linearGradient3-9);fill-opacity:1;stroke-width:1.11604" />
    <path
       class="st0"
       d="m 23.175322,23.940266 c -1.2,-0.9 -2.2,-1.7 -2.8,-2.2 -0.1,-0.1 -0.1,-0.1 -0.2,-0.2 -0.1,-0.2 -0.2,-0.3 -0.3,-0.4 0,-0.1 0,-0.1 0,-0.1 0,0 0.1,-0.1 0.2,0 0.1,0 0.2,0.1 0.3,0.1 0.1,0 0.1,0.1 0.2,0.1 0.7,0.3 2,1 3.3,1.9 0.2,0.1 0.4,0.3 0.6,0.4 1.1,0.7 2,1.5 2.7,2 1.2,-1.3 2.7,2.2 2.7,2.2 0,0 -3.8,0.4 -3.1,-1.4 -0.8,-0.4 -1.8,-1.1 -2.9,-1.8 -0.2,-0.2 -0.5,-0.4 -0.7,-0.6 z"
       id="path1396-9-9"
       style="fill:url(#linearGradient6-1);fill-opacity:1" />
    <path
       class="st1"
       d="M 8.5,20.4 C 8.4,20.5 8.3,20.6 8.2,20.7 7.1,21.7 5,21.2 3.5,19.5 2,17.8 1.6,15.7 2.7,14.7 3.6,14 5,14.1 6.3,14.9 c 0.3,0.2 0.7,0.5 1,0.8 0.1,0.1 0.2,0.2 0.3,0.3 0.4,0.5 0.8,1 1,1.5 0.3,0.7 0.4,1.4 0.4,2 -0.1,0.3 -0.2,0.6 -0.5,0.9 z M 5.2,16.2 C 5.2,17 4.7,17.6 4,17.6 3.3,17.6 2.8,17 2.8,16.2 c 0,-0.8 0.5,-1.4 1.2,-1.4 0.7,0 1.2,0.6 1.2,1.4 z"
       id="path1398-3-2"
       style="clip-rule:evenodd;fill:url(#linearGradient1);fill-opacity:1;fill-rule:evenodd" />
    <path
       class="st0"
       d="m 10.9,16.8 c 1,0 1.7,-0.8 1.7,-1.7 0,-1 -0.8,-1.7 -1.7,-1.7 -0.1,0 -0.3,0 -0.4,0 0.4,0.1 0.7,0.5 0.7,1 0,0.6 -0.5,1 -1,1 -0.4,0 -0.8,-0.3 -1,-0.7 0,0.1 0,0.3 0,0.4 0,0.9 0.8,1.7 1.7,1.7 z"
       id="path1400-1-8"
       style="fill:url(#linearGradient2);fill-opacity:1" />
    <path
       class="st0"
       d="m 16.4,17.6 c 1.1,0 2,-0.9 2,-2 0,-1.1 -0.9,-2 -2,-2 -0.1,0 -0.2,0 -0.3,0 0.5,0.1 0.9,0.6 0.9,1.1 0,0.6 -0.5,1.2 -1.2,1.2 -0.6,0 -1.2,-0.5 -1.2,-1.2 0,-0.1 0,-0.1 0,-0.2 -0.2,0.3 -0.3,0.7 -0.3,1.1 0.1,1.1 1,2 2.1,2 z"
       id="path1402-9-3"
       style="fill:url(#linearGradient11);fill-opacity:1" />
  </g>
</svg>
