<?xml version="1.0" encoding="UTF-8" standalone="no"?>
<svg
   viewBox="0 0 22 22"
   version="1.1"
   id="svg6"
   sodipodi:docname="folder-appimage.svg"
   inkscape:version="1.3.1 (91b66b0783, 2023-11-16)"
   xmlns:inkscape="http://www.inkscape.org/namespaces/inkscape"
   xmlns:sodipodi="http://sodipodi.sourceforge.net/DTD/sodipodi-0.dtd"
   xmlns:xlink="http://www.w3.org/1999/xlink"
   xmlns="http://www.w3.org/2000/svg"
   xmlns:svg="http://www.w3.org/2000/svg">
  <sodipodi:namedview
     id="namedview8"
     pagecolor="#ffffff"
     bordercolor="#666666"
     borderopacity="1.0"
     inkscape:pageshadow="2"
     inkscape:pageopacity="0.0"
     inkscape:pagecheckerboard="0"
     showgrid="false"
     inkscape:zoom="28.545455"
     inkscape:cx="11"
     inkscape:cy="11.017516"
     inkscape:window-width="1920"
     inkscape:window-height="994"
     inkscape:window-x="0"
     inkscape:window-y="0"
     inkscape:window-maximized="1"
     inkscape:current-layer="svg6"
     inkscape:showpageshadow="2"
     inkscape:deskcolor="#d1d1d1" />
  <defs
     id="defs3051">
    <linearGradient
       id="linearGradient1"
       inkscape:collect="always">
      <stop
         style="stop-color:#ff81ff;stop-opacity:1;"
         offset="0"
         id="stop1" />
      <stop
         style="stop-color:#ffe680;stop-opacity:1"
         offset="1"
         id="stop2" />
    </linearGradient>
    <style
       type="text/css"
       id="current-color-scheme">
      .ColorScheme-Text {
        color:#232629
      }
      </style>
    <linearGradient
       inkscape:collect="always"
       xlink:href="#linearGradient1"
       id="linearGradient2"
       x1="3"
       y1="18.531847"
       x2="19"
       y2="3"
       gradientUnits="userSpaceOnUse" />
  </defs>
  <path
     style="fill:url(#linearGradient2);fill-opacity:1"
     d="M 10 3 L 10 5.0898438 A 6 6 0 0 0 7.5332031 6.1191406 L 6.0507812 4.6367188 L 4.6367188 6.0507812 L 6.1152344 7.5292969 A 6 6 0 0 0 5.0859375 10 L 3 10 L 3 12 L 5.0898438 12 A 6 6 0 0 0 6.1191406 14.466797 L 4.6367188 15.949219 L 6.0507812 17.363281 L 7.5292969 15.884766 A 6 6 0 0 0 10 16.914062 L 10 19 L 12 19 L 12 16.910156 A 6 6 0 0 0 14.466797 15.880859 L 15.949219 17.363281 L 17.363281 15.949219 L 15.884766 14.470703 A 6 6 0 0 0 16.914062 12 L 19 12 L 19 10 L 16.910156 10 A 6 6 0 0 0 15.880859 7.5332031 L 17.363281 6.0507812 L 15.949219 4.6367188 L 14.470703 6.1152344 A 6 6 0 0 0 12 5.0859375 L 12 3 L 10 3 z M 11 7 A 4 4 0 0 1 13.869141 8.2128906 A 4 4 0 0 1 15 11 A 4 4 0 0 1 13.787109 13.869141 A 4 4 0 0 1 11 15 A 4 4 0 0 1 8.1308594 13.787109 A 4 4 0 0 1 7 11 A 4 4 0 0 1 8.2128906 8.1308594 A 4 4 0 0 1 11 7 z "
     class="ColorScheme-Text"
     id="path4" />
</svg>
