<?xml version="1.0" encoding="UTF-8" standalone="no"?>
<svg
   viewBox="0 0 16 16"
   version="1.1"
   id="svg1"
   sodipodi:docname="start-here-kde.svg"
   inkscape:version="1.3.2 (091e20ef0f, 2023-11-25)"
   width="16"
   height="16"
   xmlns:inkscape="http://www.inkscape.org/namespaces/inkscape"
   xmlns:sodipodi="http://sodipodi.sourceforge.net/DTD/sodipodi-0.dtd"
   xmlns:xlink="http://www.w3.org/1999/xlink"
   xmlns="http://www.w3.org/2000/svg"
   xmlns:svg="http://www.w3.org/2000/svg">
  <sodipodi:namedview
     id="namedview1"
     pagecolor="#ffffff"
     bordercolor="#000000"
     borderopacity="0.25"
     inkscape:showpageshadow="2"
     inkscape:pageopacity="0.0"
     inkscape:pagecheckerboard="0"
     inkscape:deskcolor="#d1d1d1"
     inkscape:zoom="12.326157"
     inkscape:cx="4.8676972"
     inkscape:cy="-1.987643"
     inkscape:window-width="1920"
     inkscape:window-height="994"
     inkscape:window-x="0"
     inkscape:window-y="0"
     inkscape:window-maximized="1"
     inkscape:current-layer="svg1"
     showgrid="true">
    <inkscape:grid
       id="grid1"
       units="px"
       originx="0"
       originy="0"
       spacingx="1"
       spacingy="1"
       empcolor="#0099e5"
       empopacity="0.30196078"
       color="#0099e5"
       opacity="0.14901961"
       empspacing="5"
       dotted="false"
       gridanglex="30"
       gridanglez="30"
       visible="true" />
  </sodipodi:namedview>
  <defs
     id="defs3051">
    <linearGradient
       id="linearGradient1"
       inkscape:collect="always">
      <stop
         style="stop-color:#aaeeff;stop-opacity:1"
         offset="0"
         id="stop1" />
      <stop
         style="stop-color:#00ccff;stop-opacity:1"
         offset="1"
         id="stop2" />
    </linearGradient>
    <style
       type="text/css"
       id="current-color-scheme">
      .ColorScheme-Text {
        color:#eff0f1;
      }
      </style>
    <linearGradient
       inkscape:collect="always"
       xlink:href="#linearGradient1"
       id="linearGradient2"
       x1="424.71429"
       y1="544.79071"
       x2="440.71429"
       y2="529.4765"
       gradientUnits="userSpaceOnUse" />
    <linearGradient
       inkscape:collect="always"
       xlink:href="#linearGradient15"
       id="linearGradient7"
       gradientUnits="userSpaceOnUse"
       gradientTransform="matrix(0.07178355,0,0,0.07430816,-2.7675412,-3.9157061)"
       x1="95"
       y1="120"
       x2="145"
       y2="195" />
    <linearGradient
       id="linearGradient15"
       inkscape:collect="always">
      <stop
         style="stop-color:#ac56be;stop-opacity:1;"
         offset="0"
         id="stop15-2" />
      <stop
         style="stop-color:#642975;stop-opacity:1;"
         offset="1"
         id="stop16-0" />
    </linearGradient>
    <linearGradient
       inkscape:collect="always"
       xlink:href="#linearGradient3"
       id="linearGradient45-51"
       x1="27"
       y1="3"
       x2="16.043079"
       y2="17.459215"
       gradientUnits="userSpaceOnUse"
       gradientTransform="scale(0.5)" />
    <linearGradient
       id="linearGradient3"
       inkscape:collect="always">
      <stop
         style="stop-color:#56bde9;stop-opacity:1;"
         offset="0"
         id="stop44" />
      <stop
         style="stop-color:#55bbe6;stop-opacity:1;"
         offset="0.25400379"
         id="stop48" />
      <stop
         style="stop-color:#2ba9de;stop-opacity:1;"
         offset="0.56403214"
         id="stop47" />
      <stop
         style="stop-color:#1a88b7;stop-opacity:1;"
         offset="0.78841382"
         id="stop46" />
      <stop
         style="stop-color:#136d93;stop-opacity:1;"
         offset="1"
         id="stop45" />
    </linearGradient>
    <linearGradient
       inkscape:collect="always"
       xlink:href="#linearGradient17"
       id="linearGradient8"
       gradientUnits="userSpaceOnUse"
       gradientTransform="matrix(0.07178355,0,0,0.07430816,-2.7675412,-3.9157061)"
       x1="145"
       y1="190"
       x2="215"
       y2="265" />
    <linearGradient
       id="linearGradient17"
       inkscape:collect="always">
      <stop
         style="stop-color:#642975;stop-opacity:1"
         offset="0"
         id="stop17-6" />
      <stop
         style="stop-color:#35163e;stop-opacity:1;"
         offset="1"
         id="stop18-8" />
    </linearGradient>
  </defs>
  <g
     transform="translate(-425.20281,-554.42204)"
     id="g1">
    <path
       style="opacity:1;fill:url(#linearGradient2);fill-opacity:1;stroke:none"
       d="m 428.71429,528.79074 c -0.554,0 -1,0.446 -1,1 0,0.554 0.446,1 1,1 0.554,0 1,-0.446 1,-1 0,-0.554 -0.446,-1 -1,-1 z m 7,0 -2,2 3,3 -3,3 2,2 3,-3 2,-2 z m -9.5,6 c -0.831,0 -1.5,0.669 -1.5,1.5 0,0.831 0.669,1.5 1.5,1.5 0.831,0 1.5,-0.669 1.5,-1.5 0,-0.831 -0.669,-1.5 -1.5,-1.5 z m 4.5,6 c -1.108,0 -2,0.892 -2,2 0,1.108 0.892,2 2,2 1.108,0 2,-0.892 2,-2 0,-1.108 -0.892,-2 -2,-2 z"
       id="rect4231"
       class="ColorScheme-Text" />
  </g>
  <path
     style="fill:none"
     d="M 0,0 V 16 H 16 V 0 Z"
     id="path17" />
  <path
     class="cls-1"
     d="M 7.0668198,12.283476 C 5.6928797,9.834286 4.2799351,7.236466 2.9069621,4.7872698 2.4339064,3.9431298 1.9737669,3.093045 1.5,2.2407299 2.9256177,1.6336331 4.4359413,2.1983788 5.2865902,3.6689324 6.1070684,5.085995 6.8830461,6.5305434 7.6827114,7.9602323 7.7803375,8.1341147 7.9066772,8.290162 8.0193792,8.455126 8.4256684,8.8207187 8.9467063,8.7114858 9.3832765,8.7092535 9.2964053,8.8809107 9.0774651,8.7642563 8.9956449,8.9188085 8.5713912,9.7116769 8.1507536,10.508259 7.6748269,11.26843 7.488185,11.572347 7.2857591,12.060556 7.0668198,12.283476 Z"
     id="path1-2"
     sodipodi:nodetypes="cccccccccc"
     style="fill:url(#linearGradient7);stroke-width:0.073037" />
  <path
     class="cls-2"
     d="M 9.3854205,8.7114855 C 8.9331809,8.7163685 8.4256684,8.8229507 8.0215403,8.4573528 8.9030289,6.8887033 9.772331,5.3126298 10.66891,3.753644 c 0.816902,-1.4274601 1.860634,-1.9208649 3.428382,-1.6808501 0.137111,0.020807 0.275651,0.03418 0.402712,0.1879984 -1.002102,1.8066808 -2.008751,3.6212883 -3.019932,5.4438151 -0.106241,0.120384 -0.16223,0.1352409 -0.170851,0.142674 l 0.0085,-0.0074 c -0.583409,0.4347258 -1.178502,0.8426801 -1.9322307,0.871654 z"
     id="path2-26"
     sodipodi:nodetypes="ccccccccc"
     style="fill:url(#linearGradient45-51);stroke-width:0.073037" />
  <path
     class="cls-3"
     d="M 9.3854205,8.7114855 C 10.139149,8.6825307 10.734241,8.2745568 11.317842,7.8398483 l 0.16223,-0.1352409 C 10.409053,9.6455443 9.1413625,11.938689 8.0000003,14 L 7.0668198,12.283476 v 0 L 8.9331809,8.9396122 C 9.0121546,8.7872834 9.2203189,8.7166855 9.3854205,8.7114855 Z"
     id="path3-8-4"
     sodipodi:nodetypes="cccccccc"
     style="fill:url(#linearGradient8);fill-opacity:1;stroke-width:0.073037" />
</svg>
