<?xml version="1.0" encoding="UTF-8" standalone="no"?>
<svg
   viewBox="0 0 22 22"
   version="1.1"
   id="svg1"
   sodipodi:docname="user-trash.svg"
   inkscape:version="1.3.1 (91b66b0783, 2023-11-16)"
   xmlns:inkscape="http://www.inkscape.org/namespaces/inkscape"
   xmlns:sodipodi="http://sodipodi.sourceforge.net/DTD/sodipodi-0.dtd"
   xmlns:xlink="http://www.w3.org/1999/xlink"
   xmlns="http://www.w3.org/2000/svg"
   xmlns:svg="http://www.w3.org/2000/svg">
  <sodipodi:namedview
     id="namedview1"
     pagecolor="#ffffff"
     bordercolor="#000000"
     borderopacity="0.25"
     inkscape:showpageshadow="2"
     inkscape:pageopacity="0.0"
     inkscape:pagecheckerboard="0"
     inkscape:deskcolor="#d1d1d1"
     inkscape:zoom="34.863636"
     inkscape:cx="11.014342"
     inkscape:cy="11"
     inkscape:window-width="1920"
     inkscape:window-height="994"
     inkscape:window-x="0"
     inkscape:window-y="0"
     inkscape:window-maximized="1"
     inkscape:current-layer="svg1" />
  <defs
     id="defs3051">
    <linearGradient
       id="linearGradient1"
       inkscape:collect="always">
      <stop
         style="stop-color:#00abab;stop-opacity:1;"
         offset="0"
         id="stop1" />
      <stop
         style="stop-color:#28ffff;stop-opacity:1;"
         offset="1"
         id="stop2" />
    </linearGradient>
    <style
       type="text/css"
       id="current-color-scheme">
      .ColorScheme-Text {
        color:#eff0f1
      }
      </style>
    <linearGradient
       inkscape:collect="always"
       xlink:href="#linearGradient1"
       id="linearGradient2"
       x1="8"
       y1="15"
       x2="18"
       y2="3"
       gradientUnits="userSpaceOnUse" />
  </defs>
  <path
     style="fill:url(#linearGradient2);fill-opacity:1;stroke:none"
     d="M 8 3 L 8 5 L 4 5 L 4 6 L 5 6 L 5 12 L 5 16 C 5 17.662 6.338 19 8 19 L 14 19 C 15.662 19 17 17.662 17 16 L 17 12 L 17 6 L 18 6 L 18 5 L 14 5 L 14 3 L 8 3 z M 9 4 L 13 4 L 13 5 L 9 5 L 9 4 z M 6 6 L 8 6 L 9 6 L 13 6 L 14 6 L 16 6 L 16 12 L 16 16 C 16 17.108 15.108 18 14 18 L 8 18 C 6.892 18 6 17.108 6 16 L 6 12 L 6 6 z M 8 9 L 8 12 L 8 15 L 9 15 L 9 12 L 9 9 L 8 9 z M 13 9 L 13 12 L 13 15 L 14 15 L 14 12 L 14 9 L 13 9 z "
     class="ColorScheme-Text"
     id="path1" />
</svg>
