<?xml version="1.0" encoding="UTF-8" standalone="no"?>
<svg
   width="64"
   height="64"
   viewBox="0 0 64 64"
   fill="none"
   version="1.1"
   id="svg8"
   sodipodi:docname="folder-inkscape.svg"
   inkscape:version="1.3.2 (091e20ef0f, 2023-11-25)"
   xmlns:inkscape="http://www.inkscape.org/namespaces/inkscape"
   xmlns:sodipodi="http://sodipodi.sourceforge.net/DTD/sodipodi-0.dtd"
   xmlns:xlink="http://www.w3.org/1999/xlink"
   xmlns="http://www.w3.org/2000/svg"
   xmlns:svg="http://www.w3.org/2000/svg">
  <sodipodi:namedview
     id="namedview8"
     pagecolor="#ffffff"
     bordercolor="#999999"
     borderopacity="1"
     inkscape:showpageshadow="2"
     inkscape:pageopacity="0"
     inkscape:pagecheckerboard="0"
     inkscape:deskcolor="#d1d1d1"
     inkscape:zoom="8.4189901"
     inkscape:cx="41.691461"
     inkscape:cy="48.699428"
     inkscape:window-width="1920"
     inkscape:window-height="996"
     inkscape:window-x="0"
     inkscape:window-y="0"
     inkscape:window-maximized="1"
     inkscape:current-layer="svg8"
     showgrid="true">
    <inkscape:grid
       id="grid8"
       units="px"
       originx="0"
       originy="0"
       spacingx="1"
       spacingy="1"
       empcolor="#0099e5"
       empopacity="0.30196078"
       color="#0099e5"
       opacity="0.14901961"
       empspacing="5"
       dotted="false"
       gridanglex="30"
       gridanglez="30"
       visible="true" />
  </sodipodi:namedview>
  <path
     d="M 2.0000006,13.052632 C 2.0000006,10.26219 4.3025345,8 7.142858,8 H 18.5 c 2.680038,0 4.494906,2.986967 4.5,3 0,0 1.579803,2 3,2 H 50.857144 C 53.697416,13 56,15.314821 56,18.105263 V 50.947369 C 56,53.737811 53.697416,56 50.857144,56 H 7.142858 C 4.3025345,56 2.0000006,53.737811 2.0000006,50.947369 Z"
     id="path1"
     sodipodi:nodetypes="ssscssssssss"
     style="fill:url(#linearGradient17)" />
  <path
     d="m 5.0000007,23 c -0.027159,-3.092358 2.0431224,-5 5.0000003,-5 h 41.000002 c 3.046901,0 4.960649,1.89735 4.999849,5 v 28 c 0.07112,3.081468 -2.113351,5 -4.999849,5 H 10.000001 C 7.0129744,56 5.1372767,54.00847 5.0000007,51 Z"
     id="path2"
     sodipodi:nodetypes="cssccsscc"
     style="fill:url(#linearGradient20)" />
  <path
     d="M 7.4419126,26.935376 C 7.9771531,24.631723 10.042585,23 12.423055,23 H 57 c 3.287487,0 5.606098,2.818799 4.866884,6 L 56.558056,52.064624 C 56.022814,54.368278 53.957383,56 51.576788,56 H 7 C 3.7124609,56 1.0088039,53.021095 2,49 Z"
     id="path3"
     sodipodi:nodetypes="cssccsscc"
     style="fill:url(#linearGradient18)" />
  <defs
     id="defs8">
    <linearGradient
       id="linearGradient19"
       inkscape:collect="always">
      <stop
         style="stop-color:#b084f8;stop-opacity:0.5;"
         offset="0"
         id="stop19" />
      <stop
         style="stop-color:#00ccff;stop-opacity:0.10196079;"
         offset="1"
         id="stop20" />
    </linearGradient>
    <linearGradient
       id="linearGradient4"
       inkscape:collect="always">
      <stop
         style="stop-color:#b084f8;stop-opacity:0.80000001;"
         offset="0"
         id="stop17" />
      <stop
         style="stop-color:#00ccff;stop-opacity:0.10196079;"
         offset="1"
         id="stop18" />
    </linearGradient>
    <linearGradient
       id="linearGradient3"
       inkscape:collect="always">
      <stop
         style="stop-color:#975cf6;stop-opacity:0.49634147;"
         offset="0"
         id="stop15" />
      <stop
         style="stop-color:#00ccff;stop-opacity:0.1;"
         offset="1"
         id="stop16" />
    </linearGradient>
    <linearGradient
       id="linearGradient14"
       x1="28.7383"
       y1="25"
       x2="28.7383"
       y2="51"
       gradientUnits="userSpaceOnUse"
       spreadMethod="pad">
      <stop
         stop-color="#FFD075"
         stop-opacity="0.8"
         id="stop13"
         style="stop-color:#b084f8;stop-opacity:0.80000001;"
         offset="0" />
      <stop
         offset="1"
         stop-color="#FFD075"
         stop-opacity="0"
         id="stop14"
         style="stop-color:#00ccff;stop-opacity:0.09634146;" />
    </linearGradient>
    <linearGradient
       id="linearGradient12"
       x1="28.7383"
       y1="25"
       x2="28.7383"
       y2="51"
       gradientUnits="userSpaceOnUse"
       spreadMethod="pad">
      <stop
         stop-color="#FFD075"
         stop-opacity="0.8"
         id="stop11"
         style="stop-color:#00ccff;stop-opacity:0.73780489;"
         offset="0" />
      <stop
         offset="1"
         stop-color="#FFD075"
         stop-opacity="0"
         id="stop12"
         style="stop-color:#aa87de;stop-opacity:0.27073172;" />
    </linearGradient>
    <linearGradient
       id="linearGradient10"
       x1="28.7383"
       y1="25"
       x2="28.7383"
       y2="51"
       gradientUnits="userSpaceOnUse">
      <stop
         stop-color="#FFD075"
         stop-opacity="0.8"
         id="stop9"
         style="stop-color:#00ccff;stop-opacity:0.73780489;"
         offset="0" />
      <stop
         offset="1"
         stop-color="#FFD075"
         stop-opacity="0"
         id="stop10"
         style="stop-color:#aa87de;stop-opacity:0.22560975;" />
    </linearGradient>
    <linearGradient
       id="paint0_linear_403_1580"
       x1="29"
       y1="13"
       x2="29.237558"
       y2="55.988724"
       gradientUnits="userSpaceOnUse"
       xlink:href="#paint2_linear_403_1580">
      <stop
         stop-color="#FFD075"
         stop-opacity="0.5"
         id="stop3"
         style="stop-color:#e580ff;stop-opacity:0.50196081;"
         offset="0" />
      <stop
         offset="1"
         stop-color="#FFD075"
         stop-opacity="0"
         id="stop4"
         style="stop-color:#e580ff;stop-opacity:0.1;" />
    </linearGradient>
    <linearGradient
       id="paint1_linear_403_1580"
       x1="29.912073"
       y1="18.218882"
       x2="30.129253"
       y2="55.988724"
       gradientUnits="userSpaceOnUse">
      <stop
         stop-color="#FFD075"
         stop-opacity="0.5"
         id="stop5"
         offset="0"
         style="stop-color:#975cf6;stop-opacity:0.5;" />
      <stop
         offset="1"
         stop-color="#FFD075"
         stop-opacity="0"
         id="stop6"
         style="stop-color:#00ccff;stop-opacity:0.1;" />
    </linearGradient>
    <linearGradient
       id="paint2_linear_403_1580"
       x1="28.7383"
       y1="25"
       x2="28.7383"
       y2="51"
       gradientUnits="userSpaceOnUse"
       xlink:href="#linearGradient12">
      <stop
         stop-color="#FFD075"
         stop-opacity="0.8"
         id="stop7"
         style="stop-color:#00ccff;stop-opacity:0.73780489;"
         offset="0" />
      <stop
         offset="1"
         stop-color="#FFD075"
         stop-opacity="0"
         id="stop8"
         style="stop-color:#aa87de;stop-opacity:0.55000001;" />
    </linearGradient>
    <linearGradient
       id="paint179_linear_0_1"
       x1="854.50702"
       y1="1462.6"
       x2="896.10797"
       y2="1476.1801"
       gradientUnits="userSpaceOnUse">
      <stop
         stop-color="white"
         id="stop762" />
      <stop
         offset="1"
         stop-color="white"
         stop-opacity="0"
         id="stop763" />
    </linearGradient>
    <linearGradient
       id="paint180_linear_0_1"
       x1="872.505"
       y1="1444.02"
       x2="894.33801"
       y2="1458.47"
       gradientUnits="userSpaceOnUse">
      <stop
         stop-color="white"
         id="stop764" />
      <stop
         offset="1"
         stop-color="white"
         stop-opacity="0"
         id="stop765" />
    </linearGradient>
    <linearGradient
       id="paint2_linear_77:3-7-3"
       x1="79.398094"
       y1="-197.84389"
       x2="82.901054"
       y2="-199.97827"
       gradientUnits="userSpaceOnUse"
       gradientTransform="matrix(2.00979,0,0,1.7510857,-24.571935,445.89239)">
      <stop
         stop-color="#EBFAFF"
         stop-opacity="0.1"
         id="stop29-5-7-6"
         offset="0"
         style="stop-color:#c3c3c3;stop-opacity:1;" />
      <stop
         offset="1"
         stop-color="#70A9FF"
         stop-opacity="0.5"
         id="stop30-0-1-7"
         style="stop-color:#05c7ff;stop-opacity:0.80000001;" />
    </linearGradient>
    <linearGradient
       id="paint2_linear_77:3-7-3-3"
       x1="79.398094"
       y1="-197.84389"
       x2="82.901054"
       y2="-199.97827"
       gradientUnits="userSpaceOnUse"
       gradientTransform="matrix(3.0978294,0,0,2.7060468,-156.70313,564.9585)">
      <stop
         stop-color="#EBFAFF"
         stop-opacity="0.1"
         id="stop29-5-7-6-6"
         offset="0"
         style="stop-color:#c3c3c3;stop-opacity:1;" />
      <stop
         offset="1"
         stop-color="#70A9FF"
         stop-opacity="0.5"
         id="stop30-0-1-7-7"
         style="stop-color:#05c7ff;stop-opacity:0.80000001;" />
    </linearGradient>
    <linearGradient
       inkscape:collect="always"
       xlink:href="#linearGradient3"
       id="linearGradient17"
       x1="30.136484"
       y1="13.102363"
       x2="30.131233"
       y2="56.104988"
       gradientUnits="userSpaceOnUse" />
    <linearGradient
       id="paint3_linear_77:20-1"
       x1="65.678299"
       y1="143.98845"
       x2="80.49794"
       y2="151.13704"
       gradientUnits="userSpaceOnUse"
       gradientTransform="matrix(3.3287079,0,0,3.1340572,-270.24995,-360.96374)">
      <stop
         stop-color="#E4F9FF"
         stop-opacity="0.1"
         id="stop35-1"
         offset="0"
         style="stop-color:#b380ff;stop-opacity:0.65629327;" />
      <stop
         offset="1"
         stop-color="#E4F9FF"
         stop-opacity="0.8"
         id="stop36-5"
         style="stop-color:#b380ff;stop-opacity:1;" />
    </linearGradient>
    <filter
       id="filter6_b_77:20-0"
       x="91"
       y="94"
       width="78"
       height="38"
       filterUnits="userSpaceOnUse"
       color-interpolation-filters="sRGB">
      <feFlood
         flood-opacity="0"
         result="BackgroundImageFix"
         id="feFlood21-9" />
      <feGaussianBlur
         in="BackgroundImage"
         stdDeviation="2"
         id="feGaussianBlur21-1" />
      <feComposite
         in2="SourceAlpha"
         operator="in"
         result="effect1_backgroundBlur_77:20"
         id="feComposite21-7" />
      <feBlend
         mode="normal"
         in="SourceGraphic"
         in2="effect1_backgroundBlur_77:20"
         result="shape"
         id="feBlend22-7" />
    </filter>
    <filter
       id="filter8_d_77:20-9"
       x="140"
       y="107"
       width="16"
       height="16"
       filterUnits="userSpaceOnUse"
       color-interpolation-filters="sRGB">
      <feFlood
         flood-opacity="0"
         result="BackgroundImageFix"
         id="feFlood24-7" />
      <feColorMatrix
         in="SourceAlpha"
         type="matrix"
         values="0 0 0 0 0 0 0 0 0 0 0 0 0 0 0 0 0 0 127 0"
         result="hardAlpha"
         id="feColorMatrix24-7" />
      <feOffset
         dy="2"
         id="feOffset24-6" />
      <feGaussianBlur
         stdDeviation="2"
         id="feGaussianBlur24-7" />
      <feComposite
         in2="hardAlpha"
         operator="out"
         id="feComposite24-3" />
      <feColorMatrix
         type="matrix"
         values="0 0 0 0 0.298039 0 0 0 0 0.454902 0 0 0 0 1 0 0 0 0.25 0"
         id="feColorMatrix25-6" />
      <feBlend
         mode="normal"
         in2="BackgroundImageFix"
         result="effect1_dropShadow_77:20"
         id="feBlend25-5" />
      <feBlend
         mode="normal"
         in="SourceGraphic"
         in2="effect1_dropShadow_77:20"
         result="shape"
         id="feBlend26-6" />
    </filter>
    <linearGradient
       inkscape:collect="always"
       xlink:href="#linearGradient4"
       id="linearGradient18"
       x1="33"
       y1="23"
       x2="32"
       y2="56"
       gradientUnits="userSpaceOnUse" />
    <linearGradient
       inkscape:collect="always"
       xlink:href="#linearGradient19"
       id="linearGradient20"
       x1="30.500002"
       y1="18"
       x2="31"
       y2="56"
       gradientUnits="userSpaceOnUse" />
  </defs>
  <path
     d="m 30.332116,30.000005 c -0.618453,-0.0013 -1.233344,0.226614 -1.677148,0.686946 l -7.382687,7.655952 c -2.494856,3.130724 1.697969,2.76727 3.495382,3.669109 0.644738,0.667828 -2.470795,1.15817 -1.826061,1.826565 0.644759,0.667837 3.895698,1.285822 4.541442,1.953652 0.644761,0.667832 -1.318693,1.377185 -0.67399,2.044958 0.644734,0.667831 2.134622,0.03478 2.413847,1.576391 0.198962,1.101716 2.689873,0.473441 3.906678,-0.428853 0.644754,-0.668334 -1.232549,-0.602822 -0.587799,-1.270644 1.603269,-1.661488 3.095724,-0.606507 3.644328,-2.271331 0.270985,-0.822625 -2.362197,-1.265954 -1.716332,-1.93379 1.855074,-1.09781 8.265946,-1.8131 5.22354,-4.896024 L 32.0404,30.687121 c -0.468025,-0.455323 -1.090004,-0.685698 -1.708511,-0.686952 z m 0.06265,0.726676 c 0.441588,0.0024 0.882215,0.171063 1.199051,0.496343 l 2.923267,3.005905 c 0.27703,0.286845 0.272556,0.840786 0.117562,1.000614 l -1.449856,-1.175378 -0.286041,1.74318 -1.210836,-0.647233 -1.943623,1.23892 -0.642631,-2.616777 -1.042336,1.826573 h -1.590939 c -0.649708,0 -0.727486,-0.83525 -0.137149,-1.433428 1.031169,-1.127862 2.213582,-2.276251 2.856659,-2.942376 0.32318,-0.334738 0.765346,-0.498729 1.206919,-0.496343 z m -3.507092,11.697773 c 0.197328,0.124199 3.181315,0.739106 3.910602,0.861652 0.252828,0.05404 0.07424,0.318127 -0.2743,0.496354 -0.786003,0.211647 -4.598398,-1.358006 -3.636524,-1.358006 z m 11.606955,2.104529 c -0.600475,0.02094 -1.192577,0.330417 -1.355825,0.913317 0,0.379858 2.758666,0.631168 2.758666,-0.0873 -0.196786,-0.57703 -0.802383,-0.846894 -1.40285,-0.825903 z m -12.664976,1.643891 c -0.865614,-0.0088 -1.879148,0.635187 -1.132433,1.290513 0.65407,0.573116 1.664242,-0.145244 1.967128,-0.945062 -0.178231,-0.239984 -0.49593,-0.342269 -0.834686,-0.345455 z m 10.959844,0.05162 c -0.843109,0.766392 0.09368,1.543464 0.924759,1.048313 0.185234,-0.190491 -0.0036,-0.857814 -0.924759,-1.048313 z"
     fill="url(#b)"
     stroke-width="6.74649"
     id="path1-9-7"
     style="fill:#f9f9f9;fill-opacity:0.74901962" />
</svg>
