<?xml version="1.0" encoding="UTF-8" standalone="no"?>
<svg
   width="64"
   height="64"
   viewBox="0 0 64 64"
   fill="none"
   version="1.1"
   id="svg8"
   sodipodi:docname="folder-cloud.svg"
   inkscape:version="1.3.2 (091e20ef0f, 2023-11-25)"
   xmlns:inkscape="http://www.inkscape.org/namespaces/inkscape"
   xmlns:sodipodi="http://sodipodi.sourceforge.net/DTD/sodipodi-0.dtd"
   xmlns:xlink="http://www.w3.org/1999/xlink"
   xmlns="http://www.w3.org/2000/svg"
   xmlns:svg="http://www.w3.org/2000/svg">
  <sodipodi:namedview
     id="namedview8"
     pagecolor="#ffffff"
     bordercolor="#999999"
     borderopacity="1"
     inkscape:showpageshadow="2"
     inkscape:pageopacity="0"
     inkscape:pagecheckerboard="0"
     inkscape:deskcolor="#d1d1d1"
     inkscape:zoom="11.90625"
     inkscape:cx="33.847769"
     inkscape:cy="33.847769"
     inkscape:window-width="1920"
     inkscape:window-height="996"
     inkscape:window-x="0"
     inkscape:window-y="0"
     inkscape:window-maximized="1"
     inkscape:current-layer="svg8"
     showgrid="true">
    <inkscape:grid
       id="grid8"
       units="px"
       originx="0"
       originy="0"
       spacingx="1"
       spacingy="1"
       empcolor="#0099e5"
       empopacity="0.30196078"
       color="#0099e5"
       opacity="0.14901961"
       empspacing="5"
       dotted="false"
       gridanglex="30"
       gridanglez="30"
       visible="true" />
  </sodipodi:namedview>
  <path
     d="M 2.0000006,13.052632 C 2.0000006,10.26219 4.3025345,8 7.142858,8 H 18.5 c 2.680038,0 4.494906,2.986967 4.5,3 0,0 1.579803,2 3,2 H 50.857144 C 53.697416,13 56,15.314821 56,18.105263 V 50.947369 C 56,53.737811 53.697416,56 50.857144,56 H 7.142858 C 4.3025345,56 2.0000006,53.737811 2.0000006,50.947369 Z"
     sodipodi:nodetypes="ssscssssssss"
     id="path1"
     style="fill:url(#linearGradient18);fill-opacity:1" />
  <path
     d="m 5.0000007,23 c -0.027159,-3.092358 2.0431224,-5 5.0000003,-5 h 41.000002 c 3.046901,0 4.960649,1.89735 4.999849,5 v 28 c 0.07112,3.081468 -2.113351,5 -4.999849,5 H 10.000001 C 7.0129744,56 5.1372767,54.00847 5.0000007,51 Z"
     sodipodi:nodetypes="cssccsscc"
     id="path2"
     style="fill:url(#linearGradient17);fill-opacity:1" />
  <path
     d="M 7.4419126,26.935376 C 7.9771531,24.631723 10.042585,23 12.423055,23 H 57 c 3.287487,0 5.606098,2.818799 4.866884,6 L 56.558056,52.064624 C 56.022814,54.368278 53.957383,56 51.576788,56 H 7 C 3.7124609,56 1.0088039,53.021095 2,49 Z"
     id="path3"
     sodipodi:nodetypes="cssccsscc"
     style="fill:url(#linearGradient22)" />
  <defs
     id="defs8">
    <linearGradient
       id="linearGradient4"
       inkscape:collect="always">
      <stop
         style="stop-color:#00ccff;stop-opacity:0.49000001;"
         offset="0"
         id="stop17" />
      <stop
         style="stop-color:#00ccff;stop-opacity:0.09;"
         offset="1"
         id="stop18" />
    </linearGradient>
    <linearGradient
       id="linearGradient3"
       inkscape:collect="always">
      <stop
         style="stop-color:#00ccff;stop-opacity:0.49000001;"
         offset="0"
         id="stop15" />
      <stop
         style="stop-color:#00ccff;stop-opacity:0.09;"
         offset="1"
         id="stop16" />
    </linearGradient>
    <linearGradient
       id="linearGradient19"
       inkscape:collect="always">
      <stop
         style="stop-color:#00ccff;stop-opacity:0.80000001;"
         offset="0"
         id="stop19" />
      <stop
         style="stop-color:#80b3ff;stop-opacity:0.08;"
         offset="1"
         id="stop22" />
    </linearGradient>
    <linearGradient
       id="linearGradient24"
       x1="28.7383"
       y1="25"
       x2="28.7383"
       y2="51"
       gradientUnits="userSpaceOnUse"
       spreadMethod="pad">
      <stop
         stop-color="#FFD075"
         stop-opacity="0.8"
         id="stop23"
         style="stop-color:#00ccff;stop-opacity:0.40000001;"
         offset="0" />
      <stop
         offset="1"
         stop-color="#FFD075"
         stop-opacity="0"
         id="stop24"
         style="stop-color:#80b3ff;stop-opacity:0.07843138;" />
    </linearGradient>
    <linearGradient
       id="linearGradient1"
       inkscape:collect="always">
      <stop
         style="stop-color:#ffffff;stop-opacity:1;"
         offset="0"
         id="stop1" />
      <stop
         style="stop-color:#ffffff;stop-opacity:0;"
         offset="1"
         id="stop2" />
    </linearGradient>
    <linearGradient
       id="linearGradient14"
       x1="28.7383"
       y1="25"
       x2="28.7383"
       y2="51"
       gradientUnits="userSpaceOnUse"
       spreadMethod="pad">
      <stop
         stop-color="#FFD075"
         stop-opacity="0.8"
         id="stop13"
         style="stop-color:#00ccff;stop-opacity:0.80000001;"
         offset="0" />
      <stop
         offset="1"
         stop-color="#FFD075"
         stop-opacity="0"
         id="stop14"
         style="stop-color:#5599ff;stop-opacity:0.1;" />
    </linearGradient>
    <linearGradient
       id="linearGradient12"
       x1="28.7383"
       y1="25"
       x2="28.7383"
       y2="51"
       gradientUnits="userSpaceOnUse"
       spreadMethod="pad">
      <stop
         stop-color="#FFD075"
         stop-opacity="0.8"
         id="stop11"
         style="stop-color:#00ccff;stop-opacity:0.73780489;"
         offset="0" />
      <stop
         offset="1"
         stop-color="#FFD075"
         stop-opacity="0"
         id="stop12"
         style="stop-color:#aa87de;stop-opacity:0.27073172;" />
    </linearGradient>
    <linearGradient
       id="linearGradient10"
       x1="28.7383"
       y1="25"
       x2="28.7383"
       y2="51"
       gradientUnits="userSpaceOnUse">
      <stop
         stop-color="#FFD075"
         stop-opacity="0.8"
         id="stop9"
         style="stop-color:#00ccff;stop-opacity:0.50121951;"
         offset="0" />
      <stop
         offset="1"
         stop-color="#FFD075"
         stop-opacity="0"
         id="stop10"
         style="stop-color:#80b3ff;stop-opacity:0.07843138;" />
    </linearGradient>
    <linearGradient
       id="paint0_linear_403_1580"
       x1="29"
       y1="13"
       x2="29.237558"
       y2="55.988724"
       gradientUnits="userSpaceOnUse"
       xlink:href="#paint2_linear_403_1580">
      <stop
         stop-color="#FFD075"
         stop-opacity="0.5"
         id="stop3"
         style="stop-color:#00ccff;stop-opacity:0.5;"
         offset="0" />
      <stop
         offset="1"
         stop-color="#FFD075"
         stop-opacity="0"
         id="stop4"
         style="stop-color:#5599ff;stop-opacity:0.15294118;" />
    </linearGradient>
    <linearGradient
       id="paint1_linear_403_1580"
       x1="29.912073"
       y1="18.218882"
       x2="30.129253"
       y2="55.988724"
       gradientUnits="userSpaceOnUse">
      <stop
         stop-color="#FFD075"
         stop-opacity="0.5"
         id="stop5"
         offset="0"
         style="stop-color:#00ccff;stop-opacity:0.5;" />
      <stop
         offset="1"
         stop-color="#FFD075"
         stop-opacity="0"
         id="stop6"
         style="stop-color:#5599ff;stop-opacity:0.15294118;" />
    </linearGradient>
    <linearGradient
       id="paint2_linear_403_1580"
       x1="28.7383"
       y1="25"
       x2="28.7383"
       y2="51"
       gradientUnits="userSpaceOnUse"
       xlink:href="#linearGradient12">
      <stop
         stop-color="#FFD075"
         stop-opacity="0.8"
         id="stop7"
         style="stop-color:#00ccff;stop-opacity:0.73780489;"
         offset="0" />
      <stop
         offset="1"
         stop-color="#FFD075"
         stop-opacity="0"
         id="stop8"
         style="stop-color:#aa87de;stop-opacity:0.55000001;" />
    </linearGradient>
    <linearGradient
       id="paint179_linear_0_1"
       x1="854.50702"
       y1="1462.6"
       x2="896.10797"
       y2="1476.1801"
       gradientUnits="userSpaceOnUse">
      <stop
         stop-color="white"
         id="stop762" />
      <stop
         offset="1"
         stop-color="white"
         stop-opacity="0"
         id="stop763" />
    </linearGradient>
    <linearGradient
       id="paint180_linear_0_1"
       x1="872.505"
       y1="1444.02"
       x2="894.33801"
       y2="1458.47"
       gradientUnits="userSpaceOnUse">
      <stop
         stop-color="white"
         id="stop764" />
      <stop
         offset="1"
         stop-color="white"
         stop-opacity="0"
         id="stop765" />
    </linearGradient>
    <linearGradient
       inkscape:collect="always"
       xlink:href="#linearGradient1"
       id="linearGradient2"
       x1="18.825815"
       y1="43.170059"
       x2="45.737556"
       y2="54.929192"
       gradientUnits="userSpaceOnUse" />
    <linearGradient
       inkscape:collect="always"
       xlink:href="#linearGradient1"
       id="linearGradient16"
       x1="33.338501"
       y1="32.124821"
       x2="46.163177"
       y2="39.370346"
       gradientUnits="userSpaceOnUse" />
    <linearGradient
       id="paint2_linear_77:3-7-3"
       x1="79.398094"
       y1="-197.84389"
       x2="82.901054"
       y2="-199.97827"
       gradientUnits="userSpaceOnUse"
       gradientTransform="matrix(2.00979,0,0,1.7510857,-24.571935,445.89239)">
      <stop
         stop-color="#EBFAFF"
         stop-opacity="0.1"
         id="stop29-5-7-6"
         offset="0"
         style="stop-color:#c3c3c3;stop-opacity:1;" />
      <stop
         offset="1"
         stop-color="#70A9FF"
         stop-opacity="0.5"
         id="stop30-0-1-7"
         style="stop-color:#05c7ff;stop-opacity:0.80000001;" />
    </linearGradient>
    <linearGradient
       id="paint2_linear_77:3-7-3-3"
       x1="79.398094"
       y1="-197.84389"
       x2="82.901054"
       y2="-199.97827"
       gradientUnits="userSpaceOnUse"
       gradientTransform="matrix(3.0978294,0,0,2.7060468,-156.70313,564.9585)">
      <stop
         stop-color="#EBFAFF"
         stop-opacity="0.1"
         id="stop29-5-7-6-6"
         offset="0"
         style="stop-color:#c3c3c3;stop-opacity:1;" />
      <stop
         offset="1"
         stop-color="#70A9FF"
         stop-opacity="0.5"
         id="stop30-0-1-7-7"
         style="stop-color:#05c7ff;stop-opacity:0.80000001;" />
    </linearGradient>
    <linearGradient
       inkscape:collect="always"
       xlink:href="#linearGradient19"
       id="linearGradient22"
       x1="29.340904"
       y1="22.954069"
       x2="29.584902"
       y2="55.709972"
       gradientUnits="userSpaceOnUse" />
    <linearGradient
       inkscape:collect="always"
       xlink:href="#linearGradient3"
       id="linearGradient17"
       x1="32"
       y1="18"
       x2="32"
       y2="56"
       gradientUnits="userSpaceOnUse" />
    <linearGradient
       inkscape:collect="always"
       xlink:href="#linearGradient4"
       id="linearGradient18"
       x1="30"
       y1="13"
       x2="30"
       y2="56"
       gradientUnits="userSpaceOnUse" />
  </defs>
  <path
     d="M 71.131529,86.702739 H 48.360112 c -1.893361,0 -2.8404,0 -3.25083,-0.528227 -0.104203,-0.135623 -0.182886,-0.285526 -0.232507,-0.449708 -0.19281,-0.642442 0.350177,-1.420508 1.436152,-2.983774 l 5.037153,-7.245299 c 0.736508,-1.056463 1.105114,-1.591825 1.621173,-1.706037 0.133969,-0.02853 0.272907,-0.04288 0.410421,-0.02853 0.526684,0.04289 0.964759,0.513951 1.841622,1.463342 l 5.480902,5.910442 c 0.827244,0.892277 1.241219,1.341985 1.745923,1.391958 0.132559,0.01427 0.265825,0.01427 0.396961,-0.01433 0.499038,-0.09281 0.877572,-0.571046 1.635338,-1.520441 l 1.704813,-2.148594 c 0.811646,-1.020768 1.217115,-1.534719 1.743801,-1.613242 0.136806,-0.02142 0.277153,-0.02142 0.413964,0 0.526682,0.07853 0.932153,0.592474 1.744508,1.613242 l 2.993519,3.768984 c 1.267434,1.598962 1.901865,2.3913 1.726784,3.062293 -0.04399,0.171322 -0.120513,0.328365 -0.224006,0.471126 -0.40972,0.556781 -1.424802,0.556781 -3.454274,0.556781 z"
     fill="url(#paint179_linear_0_1)"
     fill-opacity="0.9"
     id="path290"
     style="fill:url(#linearGradient2);fill-opacity:1;stroke-width:0.999994" />
  <rect
     x="62.676937"
     y="64.702736"
     width="8.1922913"
     height="8.2496414"
     rx="5.778501"
     fill="url(#paint180_linear_0_1)"
     fill-opacity="0.9"
     id="rect291"
     style="fill:url(#linearGradient16);fill-opacity:1;stroke-width:0.999994"
     ry="5.778501" />
  <g
     id="g2-5-5"
     transform="matrix(0.10927172,0,0,0.13030726,19.111029,26.975793)"
     style="stroke-width:1.87591;fill:#f9f9f9;fill-opacity:0.60000002">
    <path
       d="m 195.909,114.385 c -1.532,-16.8196 -17.948,-29.2705 -36.772,-27.523 -0.219,0 -0.438,0 -0.657,0 h -0.219 C 157.823,82.2748 156.729,76.377 153.664,70.0423 143.158,48.6355 115.14,34.874 89.3119,40.1165 c -2.4077,0.4368 -26.2663,5.8978 -37.6483,26.6493 -2.4078,4.3687 -3.7211,8.519 -4.3777,11.5771 -5.6911,0 -11.3821,-0.2184 -16.8542,1.0922 -12.0388,3.2766 -21.88863,12.014 -25.17192,24.0279 -3.0644,10.922 -0.43777,23.154 6.78542,32.11 1.0945,1.529 2.4078,2.84 3.94,3.932 7.0043,5.898 15.7598,8.082 24.7341,8.301 10.5065,0.437 21.2319,0 31.7384,0 19.6998,0 39.3993,0 59.3183,0 7.88,0 15.76,0 23.639,0 6.786,0 13.134,0.218 19.481,-2.403 10.069,-3.932 18.606,-12.451 20.794,-23.373 0.219,-2.184 0.438,-4.805 0.219,-7.645 z"
       shape-rendering="crispEdges"
       id="path1-9-3"
       style="fill:#f9f9f9;fill-opacity:0.60000002" />
    <path
       d="m 159.137,87.362 h 0.023 l 0.023,-0.0022 c 18.595,-1.7262 34.723,10.5697 36.228,27.0672 0.214,2.781 0.002,5.356 -0.216,7.529 -2.156,10.711 -10.544,19.101 -20.481,22.981 l -0.009,0.004 c -5.796,2.393 -11.591,2.381 -17.853,2.367 -0.476,-0.001 -0.955,-0.002 -1.437,-0.002 h -0.046 -0.046 -0.046 -0.046 -0.046 -0.047 -0.046 -0.046 -0.046 -0.046 -0.046 -0.047 -0.046 -0.046 -0.046 -0.046 -0.046 -0.047 -0.046 -0.046 -0.046 -0.046 -0.046 -0.047 -0.046 -0.046 -0.046 -0.046 -0.047 -0.046 -0.046 -0.046 -0.046 -0.046 -0.047 -0.046 -0.046 -0.046 -0.046 -0.046 -0.047 -0.046 -0.046 -0.046 -0.046 -0.046 -0.047 -0.046 -0.046 -0.046 -0.046 -0.046 -0.047 -0.046 -0.046 -0.046 -0.046 -0.046 -0.047 -0.046 -0.046 -0.046 -0.046 -0.046 -0.047 -0.046 -0.046 -0.046 -0.046 -0.047 -0.046 -0.046 -0.046 -0.046 -0.046 -0.047 -0.046 -0.046 -0.046 -0.046 -0.046 -0.047 -0.046 -0.046 -0.046 -0.046 -0.046 -0.047 -0.046 -0.046 -0.046 -0.046 -0.046 -0.047 -0.046 -0.046 -0.046 -0.046 -0.046 -0.047 -0.046 -0.046 -0.046 -0.046 -0.047 -0.046 -0.046 -0.046 -0.046 -0.046 -0.047 -0.046 -0.046 -0.046 -0.046 -0.046 -0.047 -0.046 -0.046 -0.046 -0.046 -0.046 -0.047 -0.046 -0.046 -0.046 -0.046 -0.046 -0.047 -0.046 -0.046 -0.046 -0.046 -0.046 -0.047 -0.046 -0.046 -0.046 -0.046 -0.047 -0.046 -0.046 -0.046 -0.046 -0.046 -0.047 -0.046 -0.046 -0.046 -0.046 -0.046 -0.047 -0.046 -0.046 -0.046 -0.046 -0.046 -0.047 -0.046 -0.046 -0.046 -0.046 -0.046 -0.047 -0.046 -0.046 -0.046 -0.046 -0.046 -0.047 -0.046 -0.046 -0.046 -0.046 -0.047 -0.046 -0.046 -0.046 -0.046 -0.046 -0.047 -0.046 -0.046 -0.046 -0.046 -0.046 -0.047 -0.046 -0.046 -0.046 -0.046 -0.046 -0.047 -0.046 -0.046 -0.046 -0.046 -0.046 -0.047 -0.046 -0.046 -0.046 -0.046 -0.046 -0.047 -0.046 -0.046 -0.046 -0.046 -0.046 -0.047 -0.046 -0.046 -0.046 -0.046 -0.047 -0.046 -0.046 -0.046 -0.046 -0.046 -0.047 -0.046 -0.046 -0.046 -0.046 -0.046 -0.047 -0.046 -0.046 -0.046 -0.046 -0.046 -0.047 -0.046 -0.046 -0.046 -0.046 -0.046 -0.047 -0.046 -0.046 -0.046 -0.046 -0.046 -0.047 -0.046 -0.046 -0.046 -0.046 -0.047 -0.046 -0.046 -0.046 -0.046 -0.046 -0.047 -0.046 -0.046 -0.046 -0.046 -0.046 -0.047 -0.046 -0.046 -0.046 -0.046 -0.046 -0.047 -0.046 -0.046 -0.046 -0.046 -0.046 -0.047 -0.046 -0.046 -0.046 -0.046 -0.046 -0.047 -0.046 -0.046 -0.046 -0.046 -0.047 -0.046 -0.046 -0.046 -0.046 -0.046 -0.047 -0.046 -0.046 -0.046 -0.046 -0.046 -0.047 -0.046 -0.046 -0.046 -0.046 -0.046 -0.047 -0.046 -0.046 -0.046 -0.046 -0.046 -0.047 -0.046 -0.046 -0.046 -0.046 -0.046 -0.047 -0.046 -0.046 -0.046 -0.046 -0.047 -0.046 -0.046 -0.046 -0.046 -0.046 -0.047 -0.046 -0.046 -0.046 -0.046 -0.046 -0.047 -0.046 -0.046 -0.046 -0.046 -0.046 -0.047 -0.046 -0.046 -0.046 -0.046 -0.046 -0.047 -0.046 -0.046 -0.046 -0.046 -0.046 -0.047 -0.046 -0.046 -0.046 -0.046 -0.046 -0.047 -0.046 -0.046 -0.046 -0.046 -0.047 -0.046 -0.046 -0.046 -0.046 -0.046 -0.047 -0.046 -0.046 -0.046 -0.046 -0.046 -0.047 -0.046 -0.046 -0.046 -0.046 -0.046 -0.047 -0.046 -0.046 -0.046 -0.046 -0.046 -0.047 -0.046 -0.046 -0.046 -0.046 -0.046 -0.047 -0.046 -0.046 -0.046 -0.046 -0.047 -0.046 -0.046 -0.046 -0.046 -0.046 -0.047 -0.046 -0.046 -0.046 -0.046 -0.046 -0.047 -0.046 -0.046 -0.046 -0.046 -0.046 -0.047 -0.046 -0.046 -0.046 -0.046 -0.046 -0.047 -0.046 -0.046 -0.046 -0.046 -0.046 -0.047 -0.046 -0.046 -0.046 -0.046 -0.047 -0.046 -0.046 -0.046 -0.046 -0.046 -0.047 -0.046 -0.046 -0.046 -0.046 -0.046 -0.047 -0.046 -0.046 -0.046 -0.046 -0.046 -0.047 -0.046 -0.046 -0.046 -0.046 -0.046 -0.047 -0.046 -0.046 -0.046 -0.046 -0.046 -0.047 -0.046 -0.046 -0.046 -0.046 -0.046 -0.047 -0.046 -0.046 -0.046 -0.046 -0.047 -0.046 -0.046 -0.046 -0.046 -0.046 -0.047 -0.046 -0.046 -0.046 -0.046 -0.046 -0.047 -0.046 -0.046 -0.046 -0.046 -0.046 -0.047 -0.046 -0.046 -0.046 -0.046 -0.046 -0.047 -0.046 -0.046 -0.046 -0.046 -0.046 -0.047 -0.046 -0.046 -0.046 -0.046 -0.047 -0.046 -0.046 -0.046 -0.046 -0.117 -0.117 -0.116 -0.117 -0.117 -0.116 -0.117 -0.117 -0.116 -0.117 -0.117 -0.116 -0.117 -0.117 -0.116 -0.117 -0.117 -0.116 -0.117 -0.116 -0.117 -0.117 -0.116 -0.117 -0.116 -0.117 -0.117 -0.116 -0.117 -0.116 -0.117 -0.116 -0.117 -0.117 -0.116 -0.117 -0.116 -0.117 -0.116 -0.117 -0.116 -0.117 -0.116 -0.117 -0.116 -0.117 -0.116 -0.117 -0.116 -0.117 -0.116 -0.117 -0.116 -0.117 -0.116 -0.116 -0.117 -0.116 -0.117 -0.116 -0.117 -0.116 -0.116 -0.117 -0.116 -0.117 -0.116 -0.116 -0.117 -0.116 -0.117 -0.116 -0.116 -0.117 -0.116 -0.116 -0.117 -0.116 -0.117 -0.116 -0.116 -0.117 -0.116 -0.116 -0.117 -0.116 -0.116 -0.116 -0.117 -0.116 -0.116 -0.117 -0.116 -0.116 -0.116 -0.117 -0.116 -0.116 -0.117 -0.116 -0.116 -0.116 -0.117 -0.116 -0.116 -0.116 -0.117 -0.116 -0.116 -0.116 -0.116 -0.117 -0.116 -0.116 -0.116 -0.116 -0.117 -0.116 -0.116 -0.116 -0.116 -0.117 -0.116 -0.116 -0.116 -0.116 -0.116 -0.117 -0.116 -0.116 -0.116 -0.116 -0.116 -0.116 -0.116 -0.117 -0.116 -0.116 -0.116 -0.116 -0.116 -0.116 -0.116 -0.116 -0.117 -0.116 -0.116 -0.116 -0.116 -0.116 -0.116 -0.116 -0.116 -0.116 -0.116 -0.116 -0.116 -0.116 -0.116 -0.116 -0.116 -0.117 -0.116 -0.116 -0.116 -0.116 -0.116 -0.116 -0.116 -0.116 -0.116 -0.116 -0.116 -0.116 -0.116 -0.116 -0.116 -0.116 -0.115 -0.116 -0.116 -0.116 -0.116 -0.116 -0.116 -0.116 -0.116 -0.116 -0.116 -0.116 -0.116 -0.116 -0.116 -0.116 -0.116 -0.116 -0.115 -0.116 -0.116 -0.116 -0.116 -0.116 -0.116 -0.116 -0.116 -0.116 -0.115 -0.116 -0.116 -0.116 -0.116 -0.116 -0.116 -0.116 -0.115 -0.116 -0.116 -0.116 -0.116 -0.116 -0.116 -0.115 -0.116 -0.116 -0.116 -0.116 -0.116 -0.115 -0.116 -0.116 -0.116 -0.116 -0.115 -0.116 -0.116 -0.116 -0.116 -0.115 -0.116 -0.116 -0.116 -0.116 -0.115 -0.116 -0.116 -0.116 -0.115 -0.116 -0.116 -0.116 -0.116 -0.115 -0.116 -0.116 -0.116 -0.115 -0.116 -0.116 -0.116 -0.115 -0.116 -0.116 -0.115 -0.116 -0.116 -0.116 -0.115 -0.116 -0.116 -0.116 -0.115 -0.116 -0.116 H 99.9516 99.8359 99.7202 99.6045 99.4888 99.3731 99.2574 99.1417 99.026 98.9104 98.7947 98.679 98.5633 98.4476 98.332 98.2163 98.1006 97.9849 97.8693 97.7536 97.638 97.5223 97.4066 97.291 97.1753 97.0597 96.944 96.8284 96.7127 96.5971 96.4815 96.3658 96.2502 96.1345 96.0189 95.9033 95.7877 95.672 95.5564 95.4408 95.3252 95.2095 95.0939 94.9783 94.8627 94.7471 94.6315 94.5159 94.4003 94.2847 94.1691 94.0535 93.9379 93.8223 93.7067 93.5911 93.4755 93.3599 93.2443 93.1287 93.0131 92.8976 92.782 92.6664 92.5508 92.4352 92.3197 92.2041 92.0885 91.973 91.8574 91.7418 91.6263 91.5107 91.3951 91.2796 91.164 91.0485 90.9329 90.8174 90.7018 90.5863 90.4707 90.3552 90.2396 90.1241 90.0085 89.893 89.7775 89.6619 89.5464 89.4308 89.3153 89.1998 89.0843 88.9687 88.8532 88.7377 88.6221 88.5066 88.3911 88.2756 88.1601 88.0445 87.929 87.8135 87.698 87.5825 87.467 87.3515 87.2359 87.1204 87.0049 86.8894 86.7739 86.6584 86.5429 86.4274 86.3119 86.1964 86.0809 85.9654 85.8499 85.7344 85.6189 85.5035 85.388 85.2725 85.157 85.0415 84.926 84.8105 84.6951 84.5796 84.4641 84.3486 84.2331 84.1177 84.0022 83.8867 83.7712 83.6557 83.5403 83.4248 83.3093 83.1939 83.0784 82.9629 82.8475 82.732 82.6165 82.5011 82.3856 82.2701 82.1547 82.0392 81.9237 81.8083 81.6928 81.5774 81.4619 81.3464 81.231 81.1155 81.0001 80.8846 80.7692 80.6537 80.5383 80.4228 80.3074 80.1919 80.0765 79.961 79.8456 79.7301 79.6147 79.4992 79.3838 79.2683 79.1529 79.0374 78.922 78.8065 78.6911 78.5757 78.4602 78.3448 78.2293 78.1139 77.9985 77.883 77.7676 77.6521 77.5367 77.4213 77.3058 77.1904 77.075 76.9595 76.8441 76.7287 76.6132 76.4978 76.3824 76.2669 76.1515 76.0361 75.9206 75.8052 75.6898 75.5743 75.4589 75.3435 75.228 75.1126 74.9972 74.8817 74.7663 74.6509 74.5354 74.42 74.3046 74.1892 74.0737 73.9583 73.8429 73.7274 73.612 73.4966 73.3812 73.2657 73.1503 73.0349 72.9194 72.804 72.6886 72.5732 72.4577 c -3.509,0 -7.0348,0.048 -10.5647,0.097 -7.0687,0.097 -14.1538,0.194 -21.1529,-0.097 v 0 h -0.0086 c -8.9056,-0.217 -17.5359,-2.383 -24.4243,-8.183 l -0.0154,-0.013 -0.0164,-0.012 c -1.4873,-1.06 -2.7613,-2.331 -3.8236,-3.816 l -0.0083,-0.011 -0.0091,-0.012 C 5.30965,126.426 2.72181,114.36 5.7412,103.598 l 8.9e-4,-0.003 C 8.97161,91.7777 18.6661,83.158 30.5556,79.9196 c 4.7223,-1.1298 9.6097,-1.1068 14.5891,-1.0834 0.7119,0.0034 1.4257,0.0067 2.1412,0.0067 h 0.404 l 0.0848,-0.395 c 0.648,-3.0175 1.9459,-7.1207 4.3268,-11.4408 l 5e-4,-9e-4 c 5.6283,-10.2614 14.3486,-16.7545 21.9825,-20.7398 7.6351,-3.986 14.1519,-5.4466 15.3167,-5.658 v 10e-5 l 0.0102,-0.002 c 25.6176,-5.1997 53.4016,8.4643 63.8036,29.6545 3.03,6.2654 4.114,12.1008 4.548,16.6485 l 0.043,0.4525 h 0.455 0.219 0.001 0.001 0.002 0.001 10e-4 0.002 0.001 0.001 0.001 0.002 0.001 0.001 0.002 10e-4 0.001 0.001 0.002 10e-4 0.001 0.002 0.001 0.001 10e-4 0.002 0.001 0.001 0.001 0.002 0.001 0.001 0.002 10e-4 0.001 0.001 0.002 0.001 10e-4 0.002 0.001 0.001 0.001 0.002 0.001 0.001 0.002 10e-4 0.001 0.001 0.002 0.001 10e-4 0.002 0.001 0.001 0.001 0.002 0.001 0.001 0.002 10e-4 0.001 0.001 0.002 0.001 10e-4 0.002 0.001 0.001 0.001 0.002 0.001 0.001 0.001 0.002 0.001 0.001 0.002 0.001 10e-4 0.001 0.002 0.001 0.001 0.002 0.001 0.001 0.001 0.002 0.001 0.001 0.002 0.001 10e-4 0.001 0.002 0.001 0.001 0.002 0.001 0.001 0.001 0.002 0.001 0.001 0.002 0.001 10e-4 0.001 0.002 0.001 0.001 0.002 0.001 0.001 0.001 0.002 0.001 0.001 0.001 0.002 0.001 0.001 0.002 0.001 10e-4 0.001 0.002 0.001 0.001 0.002 0.001 0.001 0.001 0.002 0.001 0.001 0.002 0.001 10e-4 0.001 0.002 0.001 0.001 0.002 0.001 0.001 0.001 0.002 0.001 0.001 0.002 0.001 10e-4 0.001 0.002 0.001 0.001 0.002 0.001 0.001 0.001 0.002 0.001 0.001 0.001 0.002 10e-4 0.001 0.002 0.001 0.001 10e-4 0.002 0.001 0.001 0.002 0.001 0.001 0.001 0.002 10e-4 0.001 0.002 0.001 0.001 10e-4 0.002 0.001 0.001 0.002 0.001 0.001 0.001 0.002 10e-4 0.001 0.002 0.001 0.001 10e-4 0.002 0.001 0.001 0.002 0.001 0.001 0.001 0.002 10e-4 0.001 0.001 0.002 10e-4 0.001 0.002 0.001 0.001 10e-4 0.002 0.001 0.001 0.002 0.001 0.001 0.001 0.002 10e-4 0.001 0.002 0.001 0.001 10e-4 0.002 0.001 0.001 0.002 0.001 0.001 0.001 0.002 10e-4 0.001 0.002 0.001 0.001 10e-4 0.002 0.001 0.001 0.002 0.001 0.001 0.001 0.002 10e-4 0.001 0.001 0.002 0.001 10e-4 0.002 0.001 0.001 0.001 0.002 0.001 0.001 0.002 10e-4 0.001 0.001 0.002 0.001 10e-4 0.002 0.001 0.001 0.001 0.002 0.001 0.001 0.002 10e-4 0.001 0.001 0.002 0.001 10e-4 0.002 0.001 0.001 0.001 0.002 0.001 0.001 0.001 0.002 0.001 0.001 0.002 0.001 10e-4 0.001 0.002 0.001 0.001 0.002 0.001 0.001 0.001 0.002 0.001 0.001 0.002 10e-4 0.001 0.001 0.002 0.001 10e-4 0.002 0.001 0.001 0.001 0.002 0.001 0.001 0.002 10e-4 0.001 0.001 0.002 0.001 10e-4 0.002 0.001 0.001 0.001 0.002 0.001 0.001 0.002 10e-4 0.001 0.001 0.002 0.001 10e-4 0.001 0.002 0.001 0.001 0.002 0.001 0.001 0.001 0.002 0.001 0.001 0.002 0.001 10e-4 0.001 0.002 0.001 0.001 0.002 0.001 0.001 0.001 0.002 0.001 0.001 0.002 0.001 10e-4 0.001 0.002 0.001 0.001 0.002 0.001 0.001 0.001 0.002 0.001 0.001 0.001 0.002 10e-4 0.001 0.002 0.001 0.001 10e-4 0.002 0.001 0.001 0.002 0.001 0.001 0.001 0.002 10e-4 0.001 0.002 0.001 10e-4 0.001 0.002 0.001 0.001 0.002 0.001 0.001 0.001 0.002 0.001 0.001 0.002 0.001 10e-4 0.001 0.002 0.001 0.001 0.002 0.001 0.001 0.001 0.002 0.001 0.001 0.001 0.002 10e-4 0.001 0.002 0.001 0.001 10e-4 0.002 0.001 0.001 0.002 0.001 0.001 0.001 0.002 10e-4 0.001 0.002 0.001 0.001 10e-4 0.002 0.001 0.001 0.002 0.001 0.001 0.001 0.002 10e-4 0.001 0.002 0.001 0.001 10e-4 0.002 0.001 0.001 0.002 0.001 0.001 0.001 0.002 10e-4 0.001 0.001 0.002 0.001 10e-4 0.002 0.001 0.001 0.001 0.002 0.001 0.001 0.002 10e-4 0.001 0.001 0.002 0.001 10e-4 0.002 0.001 0.001 0.001 0.002 0.001 0.001 0.002 0.001 0.001 0.001 0.002 10e-4 0.001 z"
       shape-rendering="crispEdges"
       id="path2-7-5"
       style="fill:#f9f9f9;fill-opacity:0.60000002" />
  </g>
  <g
     id="g2-5-5-5"
     transform="matrix(0.07089262,0,0,0.08432196,27.535102,37.440406)"
     style="stroke-width:2.89524;fill:#f9f9f9;fill-opacity:0.60000002">
    <path
       d="m 195.909,114.385 c -1.532,-16.8196 -17.948,-29.2705 -36.772,-27.523 -0.219,0 -0.438,0 -0.657,0 h -0.219 C 157.823,82.2748 156.729,76.377 153.664,70.0423 143.158,48.6355 115.14,34.874 89.3119,40.1165 c -2.4077,0.4368 -26.2663,5.8978 -37.6483,26.6493 -2.4078,4.3687 -3.7211,8.519 -4.3777,11.5771 -5.6911,0 -11.3821,-0.2184 -16.8542,1.0922 -12.0388,3.2766 -21.88863,12.014 -25.17192,24.0279 -3.0644,10.922 -0.43777,23.154 6.78542,32.11 1.0945,1.529 2.4078,2.84 3.94,3.932 7.0043,5.898 15.7598,8.082 24.7341,8.301 10.5065,0.437 21.2319,0 31.7384,0 19.6998,0 39.3993,0 59.3183,0 7.88,0 15.76,0 23.639,0 6.786,0 13.134,0.218 19.481,-2.403 10.069,-3.932 18.606,-12.451 20.794,-23.373 0.219,-2.184 0.438,-4.805 0.219,-7.645 z"
       shape-rendering="crispEdges"
       id="path1-9-3-3"
       style="fill:#f9f9f9;fill-opacity:0.60000002" />
    <path
       d="m 159.137,87.362 h 0.023 l 0.023,-0.0022 c 18.595,-1.7262 34.723,10.5697 36.228,27.0672 0.214,2.781 0.002,5.356 -0.216,7.529 -2.156,10.711 -10.544,19.101 -20.481,22.981 l -0.009,0.004 c -5.796,2.393 -11.591,2.381 -17.853,2.367 -0.476,-0.001 -0.955,-0.002 -1.437,-0.002 h -0.046 -0.046 -0.046 -0.046 -0.046 -0.047 -0.046 -0.046 -0.046 -0.046 -0.046 -0.047 -0.046 -0.046 -0.046 -0.046 -0.046 -0.047 -0.046 -0.046 -0.046 -0.046 -0.046 -0.047 -0.046 -0.046 -0.046 -0.046 -0.047 -0.046 -0.046 -0.046 -0.046 -0.046 -0.047 -0.046 -0.046 -0.046 -0.046 -0.046 -0.047 -0.046 -0.046 -0.046 -0.046 -0.046 -0.047 -0.046 -0.046 -0.046 -0.046 -0.046 -0.047 -0.046 -0.046 -0.046 -0.046 -0.046 -0.047 -0.046 -0.046 -0.046 -0.046 -0.046 -0.047 -0.046 -0.046 -0.046 -0.046 -0.047 -0.046 -0.046 -0.046 -0.046 -0.046 -0.047 -0.046 -0.046 -0.046 -0.046 -0.046 -0.047 -0.046 -0.046 -0.046 -0.046 -0.046 -0.047 -0.046 -0.046 -0.046 -0.046 -0.046 -0.047 -0.046 -0.046 -0.046 -0.046 -0.046 -0.047 -0.046 -0.046 -0.046 -0.046 -0.047 -0.046 -0.046 -0.046 -0.046 -0.046 -0.047 -0.046 -0.046 -0.046 -0.046 -0.046 -0.047 -0.046 -0.046 -0.046 -0.046 -0.046 -0.047 -0.046 -0.046 -0.046 -0.046 -0.046 -0.047 -0.046 -0.046 -0.046 -0.046 -0.046 -0.047 -0.046 -0.046 -0.046 -0.046 -0.047 -0.046 -0.046 -0.046 -0.046 -0.046 -0.047 -0.046 -0.046 -0.046 -0.046 -0.046 -0.047 -0.046 -0.046 -0.046 -0.046 -0.046 -0.047 -0.046 -0.046 -0.046 -0.046 -0.046 -0.047 -0.046 -0.046 -0.046 -0.046 -0.046 -0.047 -0.046 -0.046 -0.046 -0.046 -0.047 -0.046 -0.046 -0.046 -0.046 -0.046 -0.047 -0.046 -0.046 -0.046 -0.046 -0.046 -0.047 -0.046 -0.046 -0.046 -0.046 -0.046 -0.047 -0.046 -0.046 -0.046 -0.046 -0.046 -0.047 -0.046 -0.046 -0.046 -0.046 -0.046 -0.047 -0.046 -0.046 -0.046 -0.046 -0.046 -0.047 -0.046 -0.046 -0.046 -0.046 -0.047 -0.046 -0.046 -0.046 -0.046 -0.046 -0.047 -0.046 -0.046 -0.046 -0.046 -0.046 -0.047 -0.046 -0.046 -0.046 -0.046 -0.046 -0.047 -0.046 -0.046 -0.046 -0.046 -0.046 -0.047 -0.046 -0.046 -0.046 -0.046 -0.046 -0.047 -0.046 -0.046 -0.046 -0.046 -0.047 -0.046 -0.046 -0.046 -0.046 -0.046 -0.047 -0.046 -0.046 -0.046 -0.046 -0.046 -0.047 -0.046 -0.046 -0.046 -0.046 -0.046 -0.047 -0.046 -0.046 -0.046 -0.046 -0.046 -0.047 -0.046 -0.046 -0.046 -0.046 -0.046 -0.047 -0.046 -0.046 -0.046 -0.046 -0.047 -0.046 -0.046 -0.046 -0.046 -0.046 -0.047 -0.046 -0.046 -0.046 -0.046 -0.046 -0.047 -0.046 -0.046 -0.046 -0.046 -0.046 -0.047 -0.046 -0.046 -0.046 -0.046 -0.046 -0.047 -0.046 -0.046 -0.046 -0.046 -0.046 -0.047 -0.046 -0.046 -0.046 -0.046 -0.047 -0.046 -0.046 -0.046 -0.046 -0.046 -0.047 -0.046 -0.046 -0.046 -0.046 -0.046 -0.047 -0.046 -0.046 -0.046 -0.046 -0.046 -0.047 -0.046 -0.046 -0.046 -0.046 -0.046 -0.047 -0.046 -0.046 -0.046 -0.046 -0.046 -0.047 -0.046 -0.046 -0.046 -0.046 -0.046 -0.047 -0.046 -0.046 -0.046 -0.046 -0.047 -0.046 -0.046 -0.046 -0.046 -0.046 -0.047 -0.046 -0.046 -0.046 -0.046 -0.046 -0.047 -0.046 -0.046 -0.046 -0.046 -0.046 -0.047 -0.046 -0.046 -0.046 -0.046 -0.046 -0.047 -0.046 -0.046 -0.046 -0.046 -0.046 -0.047 -0.046 -0.046 -0.046 -0.046 -0.047 -0.046 -0.046 -0.046 -0.046 -0.046 -0.047 -0.046 -0.046 -0.046 -0.046 -0.046 -0.047 -0.046 -0.046 -0.046 -0.046 -0.046 -0.047 -0.046 -0.046 -0.046 -0.046 -0.046 -0.047 -0.046 -0.046 -0.046 -0.046 -0.046 -0.047 -0.046 -0.046 -0.046 -0.046 -0.047 -0.046 -0.046 -0.046 -0.046 -0.046 -0.047 -0.046 -0.046 -0.046 -0.046 -0.046 -0.047 -0.046 -0.046 -0.046 -0.046 -0.046 -0.047 -0.046 -0.046 -0.046 -0.046 -0.046 -0.047 -0.046 -0.046 -0.046 -0.046 -0.046 -0.047 -0.046 -0.046 -0.046 -0.046 -0.046 -0.047 -0.046 -0.046 -0.046 -0.046 -0.047 -0.046 -0.046 -0.046 -0.046 -0.046 -0.047 -0.046 -0.046 -0.046 -0.046 -0.046 -0.047 -0.046 -0.046 -0.046 -0.046 -0.046 -0.047 -0.046 -0.046 -0.046 -0.046 -0.046 -0.047 -0.046 -0.046 -0.046 -0.046 -0.046 -0.047 -0.046 -0.046 -0.046 -0.046 -0.047 -0.046 -0.046 -0.046 -0.046 -0.117 -0.117 -0.116 -0.117 -0.117 -0.116 -0.117 -0.117 -0.116 -0.117 -0.117 -0.116 -0.117 -0.117 -0.116 -0.117 -0.117 -0.116 -0.117 -0.116 -0.117 -0.117 -0.116 -0.117 -0.116 -0.117 -0.117 -0.116 -0.117 -0.116 -0.117 -0.116 -0.117 -0.117 -0.116 -0.117 -0.116 -0.117 -0.116 -0.117 -0.116 -0.117 -0.116 -0.117 -0.116 -0.117 -0.116 -0.117 -0.116 -0.117 -0.116 -0.117 -0.116 -0.117 -0.116 -0.116 -0.117 -0.116 -0.117 -0.116 -0.117 -0.116 -0.116 -0.117 -0.116 -0.117 -0.116 -0.116 -0.117 -0.116 -0.117 -0.116 -0.116 -0.117 -0.116 -0.116 -0.117 -0.116 -0.117 -0.116 -0.116 -0.117 -0.116 -0.116 -0.117 -0.116 -0.116 -0.116 -0.117 -0.116 -0.116 -0.117 -0.116 -0.116 -0.116 -0.117 -0.116 -0.116 -0.117 -0.116 -0.116 -0.116 -0.117 -0.116 -0.116 -0.116 -0.117 -0.116 -0.116 -0.116 -0.116 -0.117 -0.116 -0.116 -0.116 -0.116 -0.117 -0.116 -0.116 -0.116 -0.116 -0.117 -0.116 -0.116 -0.116 -0.116 -0.116 -0.117 -0.116 -0.116 -0.116 -0.116 -0.116 -0.116 -0.116 -0.117 -0.116 -0.116 -0.116 -0.116 -0.116 -0.116 -0.116 -0.116 -0.117 -0.116 -0.116 -0.116 -0.116 -0.116 -0.116 -0.116 -0.116 -0.116 -0.116 -0.116 -0.116 -0.116 -0.116 -0.116 -0.116 -0.117 -0.116 -0.116 -0.116 -0.116 -0.116 -0.116 -0.116 -0.116 -0.116 -0.116 -0.116 -0.116 -0.116 -0.116 -0.116 -0.116 -0.115 -0.116 -0.116 -0.116 -0.116 -0.116 -0.116 -0.116 -0.116 -0.116 -0.116 -0.116 -0.116 -0.116 -0.116 -0.116 -0.116 -0.116 -0.115 -0.116 -0.116 -0.116 -0.116 -0.116 -0.116 -0.116 -0.116 -0.116 -0.115 -0.116 -0.116 -0.116 -0.116 -0.116 -0.116 -0.116 -0.115 -0.116 -0.116 -0.116 -0.116 -0.116 -0.116 -0.115 -0.116 -0.116 -0.116 -0.116 -0.116 -0.115 -0.116 -0.116 -0.116 -0.116 -0.115 -0.116 -0.116 -0.116 -0.116 -0.115 -0.116 -0.116 -0.116 -0.116 -0.115 -0.116 -0.116 -0.116 -0.115 -0.116 -0.116 -0.116 -0.116 -0.115 -0.116 -0.116 -0.116 -0.115 -0.116 -0.116 -0.116 -0.115 -0.116 -0.116 -0.115 -0.116 -0.116 -0.116 -0.115 -0.116 -0.116 -0.116 -0.115 -0.116 -0.116 H 99.9516 99.8359 99.7202 99.6045 99.4888 99.3731 99.2574 99.1417 99.026 98.9104 98.7947 98.679 98.5633 98.4476 98.332 98.2163 98.1006 97.9849 97.8693 97.7536 97.638 97.5223 97.4066 97.291 97.1753 97.0597 96.944 96.8284 96.7127 96.5971 96.4815 96.3658 96.2502 96.1345 96.0189 95.9033 95.7877 95.672 95.5564 95.4408 95.3252 95.2095 95.0939 94.9783 94.8627 94.7471 94.6315 94.5159 94.4003 94.2847 94.1691 94.0535 93.9379 93.8223 93.7067 93.5911 93.4755 93.3599 93.2443 93.1287 93.0131 92.8976 92.782 92.6664 92.5508 92.4352 92.3197 92.2041 92.0885 91.973 91.8574 91.7418 91.6263 91.5107 91.3951 91.2796 91.164 91.0485 90.9329 90.8174 90.7018 90.5863 90.4707 90.3552 90.2396 90.1241 90.0085 89.893 89.7775 89.6619 89.5464 89.4308 89.3153 89.1998 89.0843 88.9687 88.8532 88.7377 88.6221 88.5066 88.3911 88.2756 88.1601 88.0445 87.929 87.8135 87.698 87.5825 87.467 87.3515 87.2359 87.1204 87.0049 86.8894 86.7739 86.6584 86.5429 86.4274 86.3119 86.1964 86.0809 85.9654 85.8499 85.7344 85.6189 85.5035 85.388 85.2725 85.157 85.0415 84.926 84.8105 84.6951 84.5796 84.4641 84.3486 84.2331 84.1177 84.0022 83.8867 83.7712 83.6557 83.5403 83.4248 83.3093 83.1939 83.0784 82.9629 82.8475 82.732 82.6165 82.5011 82.3856 82.2701 82.1547 82.0392 81.9237 81.8083 81.6928 81.5774 81.4619 81.3464 81.231 81.1155 81.0001 80.8846 80.7692 80.6537 80.5383 80.4228 80.3074 80.1919 80.0765 79.961 79.8456 79.7301 79.6147 79.4992 79.3838 79.2683 79.1529 79.0374 78.922 78.8065 78.6911 78.5757 78.4602 78.3448 78.2293 78.1139 77.9985 77.883 77.7676 77.6521 77.5367 77.4213 77.3058 77.1904 77.075 76.9595 76.8441 76.7287 76.6132 76.4978 76.3824 76.2669 76.1515 76.0361 75.9206 75.8052 75.6898 75.5743 75.4589 75.3435 75.228 75.1126 74.9972 74.8817 74.7663 74.6509 74.5354 74.42 74.3046 74.1892 74.0737 73.9583 73.8429 73.7274 73.612 73.4966 73.3812 73.2657 73.1503 73.0349 72.9194 72.804 72.6886 72.5732 72.4577 c -3.509,0 -7.0348,0.048 -10.5647,0.097 -7.0687,0.097 -14.1538,0.194 -21.1529,-0.097 v 0 h -0.0086 c -8.9056,-0.217 -17.5359,-2.383 -24.4243,-8.183 l -0.0154,-0.013 -0.0164,-0.012 c -1.4873,-1.06 -2.7613,-2.331 -3.8236,-3.816 l -0.0083,-0.011 -0.0091,-0.012 C 5.30965,126.426 2.72181,114.36 5.7412,103.598 l 8.9e-4,-0.003 C 8.97161,91.7777 18.6661,83.158 30.5556,79.9196 c 4.7223,-1.1298 9.6097,-1.1068 14.5891,-1.0834 0.7119,0.0034 1.4257,0.0067 2.1412,0.0067 h 0.404 l 0.0848,-0.395 c 0.648,-3.0175 1.9459,-7.1207 4.3268,-11.4408 l 5e-4,-9e-4 c 5.6283,-10.2614 14.3486,-16.7545 21.9825,-20.7398 7.6351,-3.986 14.1519,-5.4466 15.3167,-5.658 v 10e-5 l 0.0102,-0.002 c 25.6176,-5.1997 53.4016,8.4643 63.8036,29.6545 3.03,6.2654 4.114,12.1008 4.548,16.6485 l 0.043,0.4525 h 0.455 0.219 0.001 0.001 0.002 0.001 10e-4 0.002 0.001 0.001 0.001 0.002 0.001 0.001 0.002 10e-4 0.001 0.001 0.002 10e-4 0.001 0.002 0.001 0.001 10e-4 0.002 0.001 0.001 0.001 0.002 0.001 0.001 0.002 10e-4 0.001 0.001 0.002 0.001 10e-4 0.002 0.001 0.001 0.001 0.002 0.001 0.001 0.002 10e-4 0.001 0.001 0.002 0.001 10e-4 0.002 0.001 0.001 0.001 0.002 0.001 0.001 0.002 10e-4 0.001 0.001 0.002 0.001 10e-4 0.002 0.001 0.001 0.001 0.002 0.001 0.001 0.001 0.002 0.001 0.001 0.002 0.001 10e-4 0.001 0.002 0.001 0.001 0.002 0.001 0.001 0.001 0.002 0.001 0.001 0.002 0.001 10e-4 0.001 0.002 0.001 0.001 0.002 0.001 0.001 0.001 0.002 0.001 0.001 0.002 0.001 10e-4 0.001 0.002 0.001 0.001 0.002 0.001 0.001 0.001 0.002 0.001 0.001 0.001 0.002 0.001 0.001 0.002 0.001 10e-4 0.001 0.002 0.001 0.001 0.002 0.001 0.001 0.001 0.002 0.001 0.001 0.002 0.001 10e-4 0.001 0.002 0.001 0.001 0.002 0.001 0.001 0.001 0.002 0.001 0.001 0.002 0.001 10e-4 0.001 0.002 0.001 0.001 0.002 0.001 0.001 0.001 0.002 0.001 0.001 0.001 0.002 10e-4 0.001 0.002 0.001 0.001 10e-4 0.002 0.001 0.001 0.002 0.001 0.001 0.001 0.002 10e-4 0.001 0.002 0.001 0.001 10e-4 0.002 0.001 0.001 0.002 0.001 0.001 0.001 0.002 10e-4 0.001 0.002 0.001 0.001 10e-4 0.002 0.001 0.001 0.002 0.001 0.001 0.001 0.002 10e-4 0.001 0.001 0.002 10e-4 0.001 0.002 0.001 0.001 10e-4 0.002 0.001 0.001 0.002 0.001 0.001 0.001 0.002 10e-4 0.001 0.002 0.001 0.001 10e-4 0.002 0.001 0.001 0.002 0.001 0.001 0.001 0.002 10e-4 0.001 0.002 0.001 0.001 10e-4 0.002 0.001 0.001 0.002 0.001 0.001 0.001 0.002 10e-4 0.001 0.001 0.002 0.001 10e-4 0.002 0.001 0.001 0.001 0.002 0.001 0.001 0.002 10e-4 0.001 0.001 0.002 0.001 10e-4 0.002 0.001 0.001 0.001 0.002 0.001 0.001 0.002 10e-4 0.001 0.001 0.002 0.001 10e-4 0.002 0.001 0.001 0.001 0.002 0.001 0.001 0.001 0.002 0.001 0.001 0.002 0.001 10e-4 0.001 0.002 0.001 0.001 0.002 0.001 0.001 0.001 0.002 0.001 0.001 0.002 10e-4 0.001 0.001 0.002 0.001 10e-4 0.002 0.001 0.001 0.001 0.002 0.001 0.001 0.002 10e-4 0.001 0.001 0.002 0.001 10e-4 0.002 0.001 0.001 0.001 0.002 0.001 0.001 0.002 10e-4 0.001 0.001 0.002 0.001 10e-4 0.001 0.002 0.001 0.001 0.002 0.001 0.001 0.001 0.002 0.001 0.001 0.002 0.001 10e-4 0.001 0.002 0.001 0.001 0.002 0.001 0.001 0.001 0.002 0.001 0.001 0.002 0.001 10e-4 0.001 0.002 0.001 0.001 0.002 0.001 0.001 0.001 0.002 0.001 0.001 0.001 0.002 10e-4 0.001 0.002 0.001 0.001 10e-4 0.002 0.001 0.001 0.002 0.001 0.001 0.001 0.002 10e-4 0.001 0.002 0.001 10e-4 0.001 0.002 0.001 0.001 0.002 0.001 0.001 0.001 0.002 0.001 0.001 0.002 0.001 10e-4 0.001 0.002 0.001 0.001 0.002 0.001 0.001 0.001 0.002 0.001 0.001 0.001 0.002 10e-4 0.001 0.002 0.001 0.001 10e-4 0.002 0.001 0.001 0.002 0.001 0.001 0.001 0.002 10e-4 0.001 0.002 0.001 0.001 10e-4 0.002 0.001 0.001 0.002 0.001 0.001 0.001 0.002 10e-4 0.001 0.002 0.001 0.001 10e-4 0.002 0.001 0.001 0.002 0.001 0.001 0.001 0.002 10e-4 0.001 0.001 0.002 0.001 10e-4 0.002 0.001 0.001 0.001 0.002 0.001 0.001 0.002 10e-4 0.001 0.001 0.002 0.001 10e-4 0.002 0.001 0.001 0.001 0.002 0.001 0.001 0.002 0.001 0.001 0.001 0.002 10e-4 0.001 z"
       shape-rendering="crispEdges"
       id="path2-7-5-5"
       style="fill:#f9f9f9;fill-opacity:0.60000002" />
  </g>
</svg>
