<?xml version="1.0" encoding="UTF-8" standalone="no"?>
<svg
   width="64"
   height="64"
   viewBox="0 0 64 64"
   fill="none"
   version="1.1"
   id="svg8"
   sodipodi:docname="folder-music.svg"
   inkscape:version="1.3.2 (091e20ef0f, 2023-11-25)"
   xmlns:inkscape="http://www.inkscape.org/namespaces/inkscape"
   xmlns:sodipodi="http://sodipodi.sourceforge.net/DTD/sodipodi-0.dtd"
   xmlns:xlink="http://www.w3.org/1999/xlink"
   xmlns="http://www.w3.org/2000/svg"
   xmlns:svg="http://www.w3.org/2000/svg">
  <sodipodi:namedview
     id="namedview8"
     pagecolor="#ffffff"
     bordercolor="#999999"
     borderopacity="1"
     inkscape:showpageshadow="2"
     inkscape:pageopacity="0"
     inkscape:pagecheckerboard="0"
     inkscape:deskcolor="#d1d1d1"
     inkscape:zoom="8.4189901"
     inkscape:cx="30.407448"
     inkscape:cy="49.530881"
     inkscape:window-width="1920"
     inkscape:window-height="996"
     inkscape:window-x="0"
     inkscape:window-y="0"
     inkscape:window-maximized="1"
     inkscape:current-layer="svg8"
     showgrid="true">
    <inkscape:grid
       id="grid8"
       units="px"
       originx="0"
       originy="0"
       spacingx="1"
       spacingy="1"
       empcolor="#0099e5"
       empopacity="0.30196078"
       color="#0099e5"
       opacity="0.14901961"
       empspacing="5"
       dotted="false"
       gridanglex="30"
       gridanglez="30"
       visible="true" />
  </sodipodi:namedview>
  <path
     d="M 2.0000006,13.052632 C 2.0000006,10.26219 4.3025345,8 7.142858,8 H 18.5 c 2.680038,0 4.494906,2.986967 4.5,3 0,0 1.579803,2 3,2 H 50.857144 C 53.697416,13 56,15.314821 56,18.105263 V 50.947369 C 56,53.737811 53.697416,56 50.857144,56 H 7.142858 C 4.3025345,56 2.0000006,53.737811 2.0000006,50.947369 Z"
     id="path1"
     sodipodi:nodetypes="ssscssssssss"
     style="fill:url(#linearGradient17)" />
  <path
     d="m 5.0000007,23 c -0.027159,-3.092358 2.0431224,-5 5.0000003,-5 h 41.000002 c 3.046901,0 4.960649,1.89735 4.999849,5 v 28 c 0.07112,3.081468 -2.113351,5 -4.999849,5 H 10.000001 C 7.0129744,56 5.1372767,54.00847 5.0000007,51 Z"
     id="path2"
     sodipodi:nodetypes="cssccsscc"
     style="fill:url(#linearGradient24)" />
  <path
     d="M 7.4419126,26.935376 C 7.9771531,24.631723 10.042585,23 12.423055,23 H 57 c 3.287487,0 5.606098,2.818799 4.866884,6 L 56.558056,52.064624 C 56.022814,54.368278 53.957383,56 51.576788,56 H 7 C 3.7124609,56 1.0088039,53.021095 2,49 Z"
     id="path3"
     sodipodi:nodetypes="cssccsscc"
     style="fill:url(#linearGradient19)" />
  <defs
     id="defs8">
    <linearGradient
       id="linearGradient23"
       inkscape:collect="always">
      <stop
         style="stop-color:#f66151;stop-opacity:0.5;"
         offset="0"
         id="stop23" />
      <stop
         style="stop-color:#f66151;stop-opacity:0.10196079;"
         offset="1"
         id="stop24" />
    </linearGradient>
    <linearGradient
       id="linearGradient4"
       inkscape:collect="always">
      <stop
         style="stop-color:#f66151;stop-opacity:0.80000001;"
         offset="0"
         id="stop17" />
      <stop
         style="stop-color:#f66151;stop-opacity:0.10196079;"
         offset="1"
         id="stop18" />
    </linearGradient>
    <linearGradient
       id="linearGradient3"
       inkscape:collect="always">
      <stop
         style="stop-color:#f66151;stop-opacity:0.5;"
         offset="0"
         id="stop15" />
      <stop
         style="stop-color:#f66151;stop-opacity:0.10243902;"
         offset="1"
         id="stop16" />
    </linearGradient>
    <linearGradient
       id="linearGradient14"
       x1="28.7383"
       y1="25"
       x2="28.7383"
       y2="51"
       gradientUnits="userSpaceOnUse"
       spreadMethod="pad">
      <stop
         stop-color="#FFD075"
         stop-opacity="0.8"
         id="stop13"
         style="stop-color:#f66151;stop-opacity:0.80000001;"
         offset="0" />
      <stop
         offset="1"
         stop-color="#FFD075"
         stop-opacity="0"
         id="stop14"
         style="stop-color:#f66151;stop-opacity:0.1;" />
    </linearGradient>
    <linearGradient
       id="linearGradient12"
       x1="28.7383"
       y1="25"
       x2="28.7383"
       y2="51"
       gradientUnits="userSpaceOnUse"
       spreadMethod="pad">
      <stop
         stop-color="#FFD075"
         stop-opacity="0.8"
         id="stop11"
         style="stop-color:#00ccff;stop-opacity:0.73780489;"
         offset="0" />
      <stop
         offset="1"
         stop-color="#FFD075"
         stop-opacity="0"
         id="stop12"
         style="stop-color:#aa87de;stop-opacity:0.27073172;" />
    </linearGradient>
    <linearGradient
       id="linearGradient10"
       x1="28.7383"
       y1="25"
       x2="28.7383"
       y2="51"
       gradientUnits="userSpaceOnUse">
      <stop
         stop-color="#FFD075"
         stop-opacity="0.8"
         id="stop9"
         style="stop-color:#00ccff;stop-opacity:0.73780489;"
         offset="0" />
      <stop
         offset="1"
         stop-color="#FFD075"
         stop-opacity="0"
         id="stop10"
         style="stop-color:#aa87de;stop-opacity:0.22560975;" />
    </linearGradient>
    <linearGradient
       id="paint0_linear_403_1580"
       x1="29"
       y1="13"
       x2="29.237558"
       y2="55.988724"
       gradientUnits="userSpaceOnUse"
       xlink:href="#paint2_linear_403_1580">
      <stop
         stop-color="#FFD075"
         stop-opacity="0.5"
         id="stop3"
         style="stop-color:#00a489;stop-opacity:0.80000001;"
         offset="0" />
      <stop
         offset="1"
         stop-color="#FFD075"
         stop-opacity="0"
         id="stop4"
         style="stop-color:#00a489;stop-opacity:0.05;" />
    </linearGradient>
    <linearGradient
       id="paint1_linear_403_1580"
       x1="29.912073"
       y1="18.218882"
       x2="30.129253"
       y2="55.988724"
       gradientUnits="userSpaceOnUse">
      <stop
         stop-color="#FFD075"
         stop-opacity="0.5"
         id="stop5"
         offset="0"
         style="stop-color:#f66151;stop-opacity:0.49756098;" />
      <stop
         offset="1"
         stop-color="#FFD075"
         stop-opacity="0"
         id="stop6"
         style="stop-color:#f66151;stop-opacity:0.1;" />
    </linearGradient>
    <linearGradient
       id="paint2_linear_403_1580"
       x1="28.7383"
       y1="25"
       x2="28.7383"
       y2="51"
       gradientUnits="userSpaceOnUse"
       xlink:href="#linearGradient12">
      <stop
         stop-color="#FFD075"
         stop-opacity="0.8"
         id="stop7"
         style="stop-color:#00ccff;stop-opacity:0.73780489;"
         offset="0" />
      <stop
         offset="1"
         stop-color="#FFD075"
         stop-opacity="0"
         id="stop8"
         style="stop-color:#aa87de;stop-opacity:0.55000001;" />
    </linearGradient>
    <linearGradient
       id="paint179_linear_0_1"
       x1="854.50702"
       y1="1462.6"
       x2="896.10797"
       y2="1476.1801"
       gradientUnits="userSpaceOnUse">
      <stop
         stop-color="white"
         id="stop762" />
      <stop
         offset="1"
         stop-color="white"
         stop-opacity="0"
         id="stop763" />
    </linearGradient>
    <linearGradient
       id="paint180_linear_0_1"
       x1="872.505"
       y1="1444.02"
       x2="894.33801"
       y2="1458.47"
       gradientUnits="userSpaceOnUse">
      <stop
         stop-color="white"
         id="stop764" />
      <stop
         offset="1"
         stop-color="white"
         stop-opacity="0"
         id="stop765" />
    </linearGradient>
    <linearGradient
       inkscape:collect="always"
       xlink:href="#linearGradient3"
       id="linearGradient17"
       x1="30.506983"
       y1="13.470462"
       x2="30.462496"
       y2="56.112156"
       gradientUnits="userSpaceOnUse" />
    <linearGradient
       inkscape:collect="always"
       xlink:href="#linearGradient4"
       id="linearGradient19"
       x1="30"
       y1="23"
       x2="30.500002"
       y2="56"
       gradientUnits="userSpaceOnUse" />
    <linearGradient
       inkscape:collect="always"
       xlink:href="#linearGradient23"
       id="linearGradient24"
       x1="30.500002"
       y1="18"
       x2="30"
       y2="56"
       gradientUnits="userSpaceOnUse" />
  </defs>
  <path
     d="m 32.300339,39.859894 c -0.399954,0 -0.759911,-0.221 -0.9299,-0.582966 l -1.449844,-2.904763 -0.419957,0.783962 c -0.230135,0.4322 -0.689945,0.703567 -1.179896,0.703567 h -0.729928 c -0.409978,0 -0.749931,-0.341729 -0.749931,-0.75383 0,-0.412099 0.339953,-0.753831 0.749931,-0.753831 h 0.639938 l 0.789918,-1.467469 c 0.190011,-0.34173 0.569935,-0.572898 0.929892,-0.5528 0.389967,0 0.73992,0.231331 0.919908,0.572902 l 1.429869,2.874598 0.339963,-0.693537 c 0.230138,-0.462362 0.679938,-0.743762 1.199894,-0.743762 h 0.809907 c 0.409979,0 0.749937,0.34173 0.749937,0.753834 0,0.412096 -0.339958,0.753834 -0.749937,0.753834 h -0.709918 l -0.709945,1.41723 c -0.180066,0.371902 -0.529948,0.593 -0.929938,0.593 z"
     id="path1-3-6-3"
     style="fill:#f9f9f9;fill-opacity:0.74901962" />
  <path
     d="m 21.870483,46.684754 c -0.409975,0 -0.749933,-0.341725 -0.749933,-0.753832 v -5.729087 c -0.05,-2.723856 0.95991,-5.296928 2.839721,-7.226729 C 25.840094,31.055358 28.359849,30 31.069562,30 c 5.539456,0 10.04901,4.533023 10.04901,10.101316 v 5.729106 c 0,0.412094 -0.339955,0.753833 -0.749932,0.753833 -0.40996,0 -0.749936,-0.341739 -0.749936,-0.753833 v -5.729106 c 0,-4.734056 -3.829611,-8.593658 -8.549152,-8.593658 -2.309747,0 -4.449538,0.894531 -6.039391,2.522798 -1.599842,1.638332 -2.449746,3.8194 -2.409756,6.151257 v 5.739151 c 0,0.422138 -0.329958,0.763864 -0.749922,0.76389 z"
     id="path2-6-7-6"
     style="fill:#f9f9f9;fill-opacity:0.74901962" />
  <path
     d="m 25.060351,40.451497 h -0.13 c -2.099801,0 -3.809621,1.718739 -3.809621,3.829446 v 1.889601 C 21.12073,48.281282 22.830572,50 24.930351,50 h 0.13 c 2.099801,0 3.809622,-1.718735 3.809622,-3.829456 v -1.889601 c 0,-2.110724 -1.709831,-3.829446 -3.809622,-3.829446 z"
     id="path3-7-5-7"
     style="fill:#f9f9f9;fill-opacity:0.74901962" />
  <path
     d="m 37.309151,40.451497 h -0.129989 c -2.099812,0 -3.809633,1.718739 -3.809633,3.829446 v 1.889601 C 33.369529,48.281282 35.079373,50 37.179162,50 h 0.129989 c 2.099801,0 3.809621,-1.718735 3.809621,-3.829456 v -1.889601 c 0,-2.110724 -1.709832,-3.829446 -3.809621,-3.829446 z"
     id="path4-7-5-3-5"
     style="fill:#f9f9f9;fill-opacity:0.74901962" />
</svg>
