<?xml version="1.0" encoding="UTF-8" standalone="no"?>
<svg
   width="64"
   height="64"
   viewBox="0 0 64 64"
   fill="none"
   version="1.1"
   id="svg8"
   sodipodi:docname="folder-games.svg"
   inkscape:version="1.3.2 (091e20ef0f, 2023-11-25)"
   xmlns:inkscape="http://www.inkscape.org/namespaces/inkscape"
   xmlns:sodipodi="http://sodipodi.sourceforge.net/DTD/sodipodi-0.dtd"
   xmlns:xlink="http://www.w3.org/1999/xlink"
   xmlns="http://www.w3.org/2000/svg"
   xmlns:svg="http://www.w3.org/2000/svg">
  <sodipodi:namedview
     id="namedview8"
     pagecolor="#ffffff"
     bordercolor="#999999"
     borderopacity="1"
     inkscape:showpageshadow="2"
     inkscape:pageopacity="0"
     inkscape:pagecheckerboard="0"
     inkscape:deskcolor="#d1d1d1"
     inkscape:zoom="8.4189901"
     inkscape:cx="41.691461"
     inkscape:cy="53.450591"
     inkscape:window-width="1920"
     inkscape:window-height="996"
     inkscape:window-x="0"
     inkscape:window-y="0"
     inkscape:window-maximized="1"
     inkscape:current-layer="svg8"
     showgrid="true">
    <inkscape:grid
       id="grid8"
       units="px"
       originx="0"
       originy="0"
       spacingx="1"
       spacingy="1"
       empcolor="#0099e5"
       empopacity="0.30196078"
       color="#0099e5"
       opacity="0.14901961"
       empspacing="5"
       dotted="false"
       gridanglex="30"
       gridanglez="30"
       visible="true" />
  </sodipodi:namedview>
  <path
     d="M 2.0000006,13.052632 C 2.0000006,10.26219 4.3025345,8 7.142858,8 H 18.5 c 2.680038,0 4.494906,2.986967 4.5,3 0,0 1.579803,2 3,2 H 50.857144 C 53.697416,13 56,15.314821 56,18.105263 V 50.947369 C 56,53.737811 53.697416,56 50.857144,56 H 7.142858 C 4.3025345,56 2.0000006,53.737811 2.0000006,50.947369 Z"
     id="path1"
     sodipodi:nodetypes="ssscssssssss"
     style="fill:url(#linearGradient17)" />
  <path
     d="m 5.0000007,23 c -0.027159,-3.092358 2.0431224,-5 5.0000003,-5 h 41.000002 c 3.046901,0 4.960649,1.89735 4.999849,5 v 28 c 0.07112,3.081468 -2.113351,5 -4.999849,5 H 10.000001 C 7.0129744,56 5.1372767,54.00847 5.0000007,51 Z"
     id="path2"
     sodipodi:nodetypes="cssccsscc"
     style="fill:url(#linearGradient22)" />
  <path
     d="M 7.4419126,26.935376 C 7.9771531,24.631723 10.042585,23 12.423055,23 H 57 c 3.287487,0 5.606098,2.818799 4.866884,6 L 56.558056,52.064624 C 56.022814,54.368278 53.957383,56 51.576788,56 H 7 C 3.7124609,56 1.0088039,53.021095 2,49 Z"
     id="path3"
     sodipodi:nodetypes="cssccsscc"
     style="fill:url(#linearGradient20)" />
  <defs
     id="defs8">
    <linearGradient
       id="linearGradient21"
       inkscape:collect="always">
      <stop
         style="stop-color:#aaccff;stop-opacity:0.5;"
         offset="0"
         id="stop21" />
      <stop
         style="stop-color:#00ccff;stop-opacity:0.10196079;"
         offset="1"
         id="stop22" />
    </linearGradient>
    <linearGradient
       id="linearGradient5"
       inkscape:collect="always">
      <stop
         style="stop-color:#ffaaee;stop-opacity:0.78000003;"
         offset="0"
         id="stop19" />
      <stop
         style="stop-color:#00ccff;stop-opacity:0.10196079;"
         offset="1"
         id="stop20" />
    </linearGradient>
    <linearGradient
       id="linearGradient3"
       inkscape:collect="always">
      <stop
         style="stop-color:#ffaaee;stop-opacity:0.49878049;"
         offset="0"
         id="stop15" />
      <stop
         style="stop-color:#00ccff;stop-opacity:0.1;"
         offset="1"
         id="stop16" />
    </linearGradient>
    <linearGradient
       id="linearGradient14"
       x1="28.7383"
       y1="25"
       x2="28.7383"
       y2="51"
       gradientUnits="userSpaceOnUse"
       spreadMethod="pad">
      <stop
         stop-color="#FFD075"
         stop-opacity="0.8"
         id="stop13"
         style="stop-color:#ffaaee;stop-opacity:0.80000001;"
         offset="0" />
      <stop
         offset="1"
         stop-color="#FFD075"
         stop-opacity="0"
         id="stop14"
         style="stop-color:#00ccff;stop-opacity:0.09634146;" />
    </linearGradient>
    <linearGradient
       id="linearGradient12"
       x1="28.7383"
       y1="25"
       x2="28.7383"
       y2="51"
       gradientUnits="userSpaceOnUse"
       spreadMethod="pad">
      <stop
         stop-color="#FFD075"
         stop-opacity="0.8"
         id="stop11"
         style="stop-color:#00ccff;stop-opacity:0.73780489;"
         offset="0" />
      <stop
         offset="1"
         stop-color="#FFD075"
         stop-opacity="0"
         id="stop12"
         style="stop-color:#aa87de;stop-opacity:0.27073172;" />
    </linearGradient>
    <linearGradient
       id="linearGradient10"
       x1="28.7383"
       y1="25"
       x2="28.7383"
       y2="51"
       gradientUnits="userSpaceOnUse">
      <stop
         stop-color="#FFD075"
         stop-opacity="0.8"
         id="stop9"
         style="stop-color:#00ccff;stop-opacity:0.73780489;"
         offset="0" />
      <stop
         offset="1"
         stop-color="#FFD075"
         stop-opacity="0"
         id="stop10"
         style="stop-color:#aa87de;stop-opacity:0.22560975;" />
    </linearGradient>
    <linearGradient
       id="paint0_linear_403_1580"
       x1="29"
       y1="13"
       x2="29.237558"
       y2="55.988724"
       gradientUnits="userSpaceOnUse"
       xlink:href="#paint2_linear_403_1580">
      <stop
         stop-color="#FFD075"
         stop-opacity="0.5"
         id="stop3"
         style="stop-color:#e580ff;stop-opacity:0.50196081;"
         offset="0" />
      <stop
         offset="1"
         stop-color="#FFD075"
         stop-opacity="0"
         id="stop4"
         style="stop-color:#e580ff;stop-opacity:0.1;" />
    </linearGradient>
    <linearGradient
       id="paint1_linear_403_1580"
       x1="29.912073"
       y1="18.218882"
       x2="30.129253"
       y2="55.988724"
       gradientUnits="userSpaceOnUse">
      <stop
         stop-color="#FFD075"
         stop-opacity="0.5"
         id="stop5"
         offset="0"
         style="stop-color:#ff99ea;stop-opacity:0.48999998;" />
      <stop
         offset="1"
         stop-color="#FFD075"
         stop-opacity="0"
         id="stop6"
         style="stop-color:#00ccff;stop-opacity:0.1;" />
    </linearGradient>
    <linearGradient
       id="paint2_linear_403_1580"
       x1="28.7383"
       y1="25"
       x2="28.7383"
       y2="51"
       gradientUnits="userSpaceOnUse"
       xlink:href="#linearGradient12">
      <stop
         stop-color="#FFD075"
         stop-opacity="0.8"
         id="stop7"
         style="stop-color:#00ccff;stop-opacity:0.73780489;"
         offset="0" />
      <stop
         offset="1"
         stop-color="#FFD075"
         stop-opacity="0"
         id="stop8"
         style="stop-color:#aa87de;stop-opacity:0.55000001;" />
    </linearGradient>
    <linearGradient
       id="paint179_linear_0_1"
       x1="854.50702"
       y1="1462.6"
       x2="896.10797"
       y2="1476.1801"
       gradientUnits="userSpaceOnUse">
      <stop
         stop-color="white"
         id="stop762" />
      <stop
         offset="1"
         stop-color="white"
         stop-opacity="0"
         id="stop763" />
    </linearGradient>
    <linearGradient
       id="paint180_linear_0_1"
       x1="872.505"
       y1="1444.02"
       x2="894.33801"
       y2="1458.47"
       gradientUnits="userSpaceOnUse">
      <stop
         stop-color="white"
         id="stop764" />
      <stop
         offset="1"
         stop-color="white"
         stop-opacity="0"
         id="stop765" />
    </linearGradient>
    <linearGradient
       id="paint2_linear_77:3-7-3"
       x1="79.398094"
       y1="-197.84389"
       x2="82.901054"
       y2="-199.97827"
       gradientUnits="userSpaceOnUse"
       gradientTransform="matrix(2.00979,0,0,1.7510857,-24.571935,445.89239)">
      <stop
         stop-color="#EBFAFF"
         stop-opacity="0.1"
         id="stop29-5-7-6"
         offset="0"
         style="stop-color:#c3c3c3;stop-opacity:1;" />
      <stop
         offset="1"
         stop-color="#70A9FF"
         stop-opacity="0.5"
         id="stop30-0-1-7"
         style="stop-color:#05c7ff;stop-opacity:0.80000001;" />
    </linearGradient>
    <linearGradient
       id="paint2_linear_77:3-7-3-3"
       x1="79.398094"
       y1="-197.84389"
       x2="82.901054"
       y2="-199.97827"
       gradientUnits="userSpaceOnUse"
       gradientTransform="matrix(3.0978294,0,0,2.7060468,-156.70313,564.9585)">
      <stop
         stop-color="#EBFAFF"
         stop-opacity="0.1"
         id="stop29-5-7-6-6"
         offset="0"
         style="stop-color:#c3c3c3;stop-opacity:1;" />
      <stop
         offset="1"
         stop-color="#70A9FF"
         stop-opacity="0.5"
         id="stop30-0-1-7-7"
         style="stop-color:#05c7ff;stop-opacity:0.80000001;" />
    </linearGradient>
    <linearGradient
       inkscape:collect="always"
       xlink:href="#linearGradient3"
       id="linearGradient17"
       x1="30.136484"
       y1="13.102363"
       x2="30.131233"
       y2="56.104988"
       gradientUnits="userSpaceOnUse" />
    <linearGradient
       id="paint3_linear_77:20-1"
       x1="65.678299"
       y1="143.98845"
       x2="80.49794"
       y2="151.13704"
       gradientUnits="userSpaceOnUse"
       gradientTransform="matrix(3.3287079,0,0,3.1340572,-270.24995,-360.96374)">
      <stop
         stop-color="#E4F9FF"
         stop-opacity="0.1"
         id="stop35-1"
         offset="0"
         style="stop-color:#b380ff;stop-opacity:0.65629327;" />
      <stop
         offset="1"
         stop-color="#E4F9FF"
         stop-opacity="0.8"
         id="stop36-5"
         style="stop-color:#b380ff;stop-opacity:1;" />
    </linearGradient>
    <filter
       id="filter6_b_77:20-0"
       x="91"
       y="94"
       width="78"
       height="38"
       filterUnits="userSpaceOnUse"
       color-interpolation-filters="sRGB">
      <feFlood
         flood-opacity="0"
         result="BackgroundImageFix"
         id="feFlood21-9" />
      <feGaussianBlur
         in="BackgroundImage"
         stdDeviation="2"
         id="feGaussianBlur21-1" />
      <feComposite
         in2="SourceAlpha"
         operator="in"
         result="effect1_backgroundBlur_77:20"
         id="feComposite21-7" />
      <feBlend
         mode="normal"
         in="SourceGraphic"
         in2="effect1_backgroundBlur_77:20"
         result="shape"
         id="feBlend22-7" />
    </filter>
    <filter
       id="filter8_d_77:20-9"
       x="140"
       y="107"
       width="16"
       height="16"
       filterUnits="userSpaceOnUse"
       color-interpolation-filters="sRGB">
      <feFlood
         flood-opacity="0"
         result="BackgroundImageFix"
         id="feFlood24-7" />
      <feColorMatrix
         in="SourceAlpha"
         type="matrix"
         values="0 0 0 0 0 0 0 0 0 0 0 0 0 0 0 0 0 0 127 0"
         result="hardAlpha"
         id="feColorMatrix24-7" />
      <feOffset
         dy="2"
         id="feOffset24-6" />
      <feGaussianBlur
         stdDeviation="2"
         id="feGaussianBlur24-7" />
      <feComposite
         in2="hardAlpha"
         operator="out"
         id="feComposite24-3" />
      <feColorMatrix
         type="matrix"
         values="0 0 0 0 0.298039 0 0 0 0 0.454902 0 0 0 0 1 0 0 0 0.25 0"
         id="feColorMatrix25-6" />
      <feBlend
         mode="normal"
         in2="BackgroundImageFix"
         result="effect1_dropShadow_77:20"
         id="feBlend25-5" />
      <feBlend
         mode="normal"
         in="SourceGraphic"
         in2="effect1_dropShadow_77:20"
         result="shape"
         id="feBlend26-6" />
    </filter>
    <linearGradient
       id="paint0_linear_77:19-3"
       x1="100"
       y1="44.718399"
       x2="188.994"
       y2="149"
       gradientUnits="userSpaceOnUse"
       gradientTransform="matrix(2.6451823,0,0,2.6981862,144.63386,192.35993)">
      <stop
         stop-color="#E4F9FF"
         stop-opacity="0.1"
         id="stop23-6" />
      <stop
         offset="1"
         stop-color="#E4F9FF"
         stop-opacity="0.8"
         id="stop24-7" />
    </linearGradient>
    <linearGradient
       inkscape:collect="always"
       xlink:href="#linearGradient5"
       id="linearGradient20"
       x1="30"
       y1="23"
       x2="30"
       y2="56"
       gradientUnits="userSpaceOnUse" />
    <linearGradient
       inkscape:collect="always"
       xlink:href="#linearGradient21"
       id="linearGradient22"
       x1="30"
       y1="18"
       x2="30"
       y2="56"
       gradientUnits="userSpaceOnUse" />
  </defs>
  <g
     id="g2-3-5"
     transform="matrix(0.14736842,0,0,0.14435894,16.263158,28.490518)"
     style="stroke-width:2.67153">
    <path
       d="m 157,54 c 20.995,0 38,17.0225 38,38.039 0,0.446 -0.095,0.8979 -0.095,1.3438 v 36.6952 c 0,10.556 -12.623,18.922 -23.928,18.922 -11.023,0 -17.448,-3.132 -21.219,-7.058 -5.235,-5.451 -10.965,-11.864 -18.523,-11.864 H 68.6652 c -7.5556,0 -13.1454,6.459 -18.359,11.927 C 46.491,146.007 39.9149,149 28.477,149 12.0977,149 5,140.539 5,130.078 V 92.7047 92.039 C 5,71.0225 22.005,54 43,54 Z"
       fill="url(#paint0_linear_77:19)"
       shape-rendering="crispEdges"
       id="path1-3"
       style="fill:url(#paint0_linear_77:19-3);stroke-width:2.67153" />
    <path
       d="m 157,54 c 20.995,0 38,17.0225 38,38.039 0,0.446 -0.095,0.8979 -0.095,1.3438 v 36.6952 c 0,10.556 -12.623,18.922 -23.928,18.922 -11.023,0 -17.448,-3.132 -21.219,-7.058 -5.235,-5.451 -10.965,-11.864 -18.523,-11.864 H 68.6652 c -7.5556,0 -13.1454,6.459 -18.359,11.927 C 46.491,146.007 39.9149,149 28.477,149 12.0977,149 5,140.539 5,130.078 V 92.7047 92.039 C 5,71.0225 22.005,54 43,54 Z"
       stroke-miterlimit="10"
       shape-rendering="crispEdges"
       id="path2-9-5"
       style="fill:#f9f9f9;fill-opacity:0.74901962" />
  </g>
  <g
     id="g3-4-6"
     transform="matrix(0.14736842,0,0,0.14435894,16.263158,28.490518)"
     style="stroke-width:2.67153">
    <path
       fill-rule="evenodd"
       clip-rule="evenodd"
       d="m 168.868,79.4244 c 0,-3.0028 -2.434,-5.437 -5.436,-5.437 -3.003,0 -5.437,2.4342 -5.437,5.437 v 7.2493 h -7.25 c -3.003,0 -5.437,2.4343 -5.437,5.437 0,3.0028 2.434,5.437 5.437,5.437 h 7.25 v 7.2493 c 0,3.003 2.434,5.437 5.437,5.437 3.002,0 5.436,-2.434 5.436,-5.437 v -7.2493 h 7.25 c 3.003,0 5.437,-2.4342 5.437,-5.437 0,-3.0027 -2.434,-5.437 -5.437,-5.437 h -7.25 z"
       id="path3-8-2"
       style="fill:#00ccff;fill-opacity:1" />
  </g>
  <g
     id="g6-1-9"
     transform="matrix(0.14736842,0,0,0.14435894,16.263158,28.490518)"
     style="stroke-width:2.67153">
    <circle
       cx="37.021599"
       cy="80.179604"
       r="6.1921201"
       id="circle3-1"
       style="fill:#d42aff;fill-opacity:1" />
    <circle
       cx="49.4058"
       cy="92.563797"
       r="6.1921201"
       id="circle4-2"
       style="fill:#00aa88;fill-opacity:1" />
    <circle
       cx="24.6373"
       cy="92.563797"
       r="6.1921201"
       id="circle5-7"
       style="fill:#5e5eff;fill-opacity:1" />
    <circle
       cx="37.021599"
       cy="104.948"
       r="6.1921201"
       id="circle6-0"
       style="fill:#caca00;fill-opacity:1" />
  </g>
  <g
     id="g7-2-9"
     transform="matrix(0.14736842,0,0,0.14435894,16.263158,28.490518)"
     style="stroke-width:2.67153">
    <circle
       cx="78"
       cy="110"
       r="14"
       id="circle7-9-3"
       style="fill:#7f2aff;fill-opacity:0.99321264" />
  </g>
  <g
     id="g8-3-6"
     transform="matrix(0.14736842,0,0,0.14435894,16.263158,28.490518)"
     style="stroke-width:2.67153">
    <ellipse
       cx="125.5"
       cy="110"
       rx="14.5"
       ry="14"
       id="ellipse7-0"
       style="fill:#7f2aff;fill-opacity:0.95814478" />
  </g>
  <g
     id="g9-9-6"
     transform="matrix(0.14736842,0,0,0.14435894,16.263158,28.490518)"
     style="stroke-width:2.67153">
    <path
       d="m 63,56 4.0032,11.0921 C 69.1489,73.0376 74.7915,77 81.1124,77 h 44.2626 c 6.105,0 11.601,-3.7004 13.898,-9.3571 L 144,56"
       stroke-width="10.6866"
       stroke-linecap="round"
       id="path8-3-2"
       style="stroke:#ffe480;stroke-opacity:1;fill:#ff0000;fill-opacity:1" />
  </g>
  <path
     d="m 25.547392,28.77926 v 1.439411 c 0,1.195906 0.989685,2.165398 2.210526,2.165398 h 1.621065 c 1.220837,0 2.210509,0.969476 2.210509,2.165379 v 1.303397"
     id="path9-6-6"
     style="stroke:#f9f9f9;stroke-opacity:0.74901962" />
</svg>
