<?xml version="1.0" encoding="UTF-8" standalone="no"?>
<svg
   width="64"
   height="64"
   viewBox="0 0 64 64"
   fill="none"
   version="1.1"
   id="svg8"
   sodipodi:docname="folder-sign.svg"
   inkscape:version="1.3.2 (091e20ef0f, 2023-11-25)"
   xmlns:inkscape="http://www.inkscape.org/namespaces/inkscape"
   xmlns:sodipodi="http://sodipodi.sourceforge.net/DTD/sodipodi-0.dtd"
   xmlns:xlink="http://www.w3.org/1999/xlink"
   xmlns="http://www.w3.org/2000/svg"
   xmlns:svg="http://www.w3.org/2000/svg">
  <sodipodi:namedview
     id="namedview8"
     pagecolor="#ffffff"
     bordercolor="#999999"
     borderopacity="1"
     inkscape:showpageshadow="2"
     inkscape:pageopacity="0"
     inkscape:pagecheckerboard="0"
     inkscape:deskcolor="#d1d1d1"
     inkscape:zoom="8.4189901"
     inkscape:cx="30.407448"
     inkscape:cy="40.028554"
     inkscape:window-width="1920"
     inkscape:window-height="996"
     inkscape:window-x="0"
     inkscape:window-y="0"
     inkscape:window-maximized="1"
     inkscape:current-layer="svg8"
     showgrid="true">
    <inkscape:grid
       id="grid8"
       units="px"
       originx="0"
       originy="0"
       spacingx="1"
       spacingy="1"
       empcolor="#0099e5"
       empopacity="0.30196078"
       color="#0099e5"
       opacity="0.14901961"
       empspacing="5"
       dotted="false"
       gridanglex="30"
       gridanglez="30"
       visible="true" />
  </sodipodi:namedview>
  <path
     d="M 2.0000006,13.052632 C 2.0000006,10.26219 4.3025345,8 7.142858,8 H 18.5 c 2.680038,0 4.494906,2.986967 4.5,3 0,0 1.579803,2 3,2 H 50.857144 C 53.697416,13 56,15.314821 56,18.105263 V 50.947369 C 56,53.737811 53.697416,56 50.857144,56 H 7.142858 C 4.3025345,56 2.0000006,53.737811 2.0000006,50.947369 Z"
     id="path1"
     sodipodi:nodetypes="ssscssssssss"
     style="fill:url(#linearGradient17)" />
  <path
     d="m 5.0000007,23 c -0.027159,-3.092358 2.0431224,-5 5.0000003,-5 h 41.000002 c 3.046901,0 4.960649,1.89735 4.999849,5 v 28 c 0.07112,3.081468 -2.113351,5 -4.999849,5 H 10.000001 C 7.0129744,56 5.1372767,54.00847 5.0000007,51 Z"
     id="path2"
     sodipodi:nodetypes="cssccsscc"
     style="fill:url(#linearGradient20)" />
  <path
     d="M 7.4419126,26.935376 C 7.9771531,24.631723 10.042585,23 12.423055,23 H 57 c 3.287487,0 5.606098,2.818799 4.866884,6 L 56.558056,52.064624 C 56.022814,54.368278 53.957383,56 51.576788,56 H 7 C 3.7124609,56 1.0088039,53.021095 2,49 Z"
     id="path3"
     sodipodi:nodetypes="cssccsscc"
     style="fill:url(#linearGradient18)" />
  <defs
     id="defs8">
    <linearGradient
       id="linearGradient19"
       inkscape:collect="always">
      <stop
         style="stop-color:#80b3ff;stop-opacity:0.5;"
         offset="0"
         id="stop19" />
      <stop
         style="stop-color:#80b3ff;stop-opacity:0.1;"
         offset="1"
         id="stop20" />
    </linearGradient>
    <linearGradient
       id="linearGradient4"
       inkscape:collect="always">
      <stop
         style="stop-color:#80b3ff;stop-opacity:0.8509804;"
         offset="0"
         id="stop17" />
      <stop
         style="stop-color:#80b3ff;stop-opacity:0.1;"
         offset="1"
         id="stop18" />
    </linearGradient>
    <linearGradient
       id="linearGradient3"
       inkscape:collect="always">
      <stop
         style="stop-color:#80b3ff;stop-opacity:0.5;"
         offset="0"
         id="stop15" />
      <stop
         style="stop-color:#80b3ff;stop-opacity:0.1;"
         offset="1"
         id="stop16" />
    </linearGradient>
    <linearGradient
       id="linearGradient14"
       x1="28.7383"
       y1="25"
       x2="28.7383"
       y2="51"
       gradientUnits="userSpaceOnUse"
       spreadMethod="pad">
      <stop
         stop-color="#FFD075"
         stop-opacity="0.8"
         id="stop13"
         style="stop-color:#80b3ff;stop-opacity:0.85000002;"
         offset="0" />
      <stop
         offset="1"
         stop-color="#FFD075"
         stop-opacity="0"
         id="stop14"
         style="stop-color:#80b3ff;stop-opacity:0.1;" />
    </linearGradient>
    <linearGradient
       id="linearGradient12"
       x1="28.7383"
       y1="25"
       x2="28.7383"
       y2="51"
       gradientUnits="userSpaceOnUse"
       spreadMethod="pad">
      <stop
         stop-color="#FFD075"
         stop-opacity="0.8"
         id="stop11"
         style="stop-color:#00ccff;stop-opacity:0.73780489;"
         offset="0" />
      <stop
         offset="1"
         stop-color="#FFD075"
         stop-opacity="0"
         id="stop12"
         style="stop-color:#aa87de;stop-opacity:0.27073172;" />
    </linearGradient>
    <linearGradient
       id="linearGradient10"
       x1="28.7383"
       y1="25"
       x2="28.7383"
       y2="51"
       gradientUnits="userSpaceOnUse">
      <stop
         stop-color="#FFD075"
         stop-opacity="0.8"
         id="stop9"
         style="stop-color:#00ccff;stop-opacity:0.73780489;"
         offset="0" />
      <stop
         offset="1"
         stop-color="#FFD075"
         stop-opacity="0"
         id="stop10"
         style="stop-color:#aa87de;stop-opacity:0.22560975;" />
    </linearGradient>
    <linearGradient
       id="paint0_linear_403_1580"
       x1="29"
       y1="13"
       x2="29.237558"
       y2="55.988724"
       gradientUnits="userSpaceOnUse"
       xlink:href="#paint2_linear_403_1580">
      <stop
         stop-color="#FFD075"
         stop-opacity="0.5"
         id="stop3"
         style="stop-color:#00a489;stop-opacity:0.80000001;"
         offset="0" />
      <stop
         offset="1"
         stop-color="#FFD075"
         stop-opacity="0"
         id="stop4"
         style="stop-color:#00a489;stop-opacity:0.05;" />
    </linearGradient>
    <linearGradient
       id="paint1_linear_403_1580"
       x1="29.912073"
       y1="18.218882"
       x2="30.129253"
       y2="55.988724"
       gradientUnits="userSpaceOnUse">
      <stop
         stop-color="#FFD075"
         stop-opacity="0.5"
         id="stop5"
         offset="0"
         style="stop-color:#80b3ff;stop-opacity:0.5;" />
      <stop
         offset="1"
         stop-color="#FFD075"
         stop-opacity="0"
         id="stop6"
         style="stop-color:#80b3ff;stop-opacity:0.1;" />
    </linearGradient>
    <linearGradient
       id="paint2_linear_403_1580"
       x1="28.7383"
       y1="25"
       x2="28.7383"
       y2="51"
       gradientUnits="userSpaceOnUse"
       xlink:href="#linearGradient12">
      <stop
         stop-color="#FFD075"
         stop-opacity="0.8"
         id="stop7"
         style="stop-color:#00ccff;stop-opacity:0.73780489;"
         offset="0" />
      <stop
         offset="1"
         stop-color="#FFD075"
         stop-opacity="0"
         id="stop8"
         style="stop-color:#aa87de;stop-opacity:0.55000001;" />
    </linearGradient>
    <linearGradient
       id="paint179_linear_0_1"
       x1="854.50702"
       y1="1462.6"
       x2="896.10797"
       y2="1476.1801"
       gradientUnits="userSpaceOnUse">
      <stop
         stop-color="white"
         id="stop762" />
      <stop
         offset="1"
         stop-color="white"
         stop-opacity="0"
         id="stop763" />
    </linearGradient>
    <linearGradient
       id="paint180_linear_0_1"
       x1="872.505"
       y1="1444.02"
       x2="894.33801"
       y2="1458.47"
       gradientUnits="userSpaceOnUse">
      <stop
         stop-color="white"
         id="stop764" />
      <stop
         offset="1"
         stop-color="white"
         stop-opacity="0"
         id="stop765" />
    </linearGradient>
    <linearGradient
       inkscape:collect="always"
       xlink:href="#linearGradient3"
       id="linearGradient17"
       x1="30.506983"
       y1="13.470462"
       x2="30.462496"
       y2="56.112156"
       gradientUnits="userSpaceOnUse" />
    <linearGradient
       inkscape:collect="always"
       xlink:href="#linearGradient4"
       id="linearGradient18"
       x1="31"
       y1="23"
       x2="30"
       y2="56"
       gradientUnits="userSpaceOnUse" />
    <linearGradient
       inkscape:collect="always"
       xlink:href="#linearGradient19"
       id="linearGradient20"
       x1="30.500002"
       y1="18"
       x2="31"
       y2="56"
       gradientUnits="userSpaceOnUse" />
  </defs>
  <path
     d="m 38.052263,30.004211 c -0.091,-0.01262 -0.18689,0.0032 -0.28093,0.04643 -0.0512,0.02546 -0.2831,0.244278 -0.51454,0.484781 l -0.42198,0.4421 -0.12129,-0.105096 c -0.1705,-0.142148 -0.3456,-0.189583 -0.52083,-0.134298 -0.12102,0.03782 -0.43128,0.350316 -2.4749,2.468492 -1.28954,1.335116 -2.34035,2.439681 -2.33989,2.458684 0.001,0.0155 0.41168,0.418554 0.9112,0.889388 l 0.91317,0.861512 1.52411,-1.582686 c 0.83873,-0.87059 1.53402,-1.573324 1.54721,-1.560914 0.0435,0.03941 0.0391,0.80022 -0.006,1.039388 -0.026,0.130345 -0.0994,0.361454 -0.17028,0.512279 -0.12536,0.26965 -0.13686,0.284976 -2.02711,2.253376 -1.04538,1.088071 -1.91818,2.014137 -1.93639,2.052649 -0.0508,0.106039 -0.0308,0.317942 0.0375,0.446101 0.11763,0.216332 0.45971,0.320271 0.67502,0.200998 0.14883,-0.08277 3.89662,-4.01341 4.02623,-4.226056 0.37667,-0.605792 0.5364,-1.419114 0.44212,-2.248864 -0.0363,-0.329129 -0.0987,-0.648746 -0.1685,-0.878898 -0.0221,-0.06218 0.0337,-0.13429 0.38524,-0.501067 0.33159,-0.350659 0.40998,-0.45105 0.42695,-0.549732 0.0361,-0.210413 -0.0141,-0.335905 -0.20578,-0.521777 l -0.17755,-0.173675 0.4498,-0.470713 c 0.36905,-0.389567 0.45123,-0.493068 0.46801,-0.592013 0.0514,-0.31549 -0.16772,-0.576637 -0.4397,-0.611449 z m -7.39457,6.392849 c -0.0107,7.35e-4 -1.3838,1.423453 -3.05491,3.158138 -2.688438,2.793736 -3.0728,3.2089 -3.333505,3.573709 -0.51796,0.726563 -1.122025,1.85609 -1.558287,2.90139 -0.282021,0.670267 -0.284497,0.60632 0.01174,0.491417 0.912294,-0.358028 2.121114,-0.97101 2.838104,-1.441917 0.701168,-0.460915 0.825878,-0.584427 3.949168,-3.826453 l 3.00433,-3.121959 -0.92025,-0.867506 c -0.50612,-0.477071 -0.92609,-0.866968 -0.93578,-0.866738 z m -0.65023,7.967173 c -0.12644,-0.02519 -0.25842,-0.03513 -0.34567,-0.02737 l -2.4e-4,0.0021 c -0.41365,0.03748 -0.90414,0.33052 -1.16859,0.70371 -0.0699,0.09686 -0.1918,0.320348 -0.27062,0.490344 -0.0745,0.1738 -0.14453,0.317927 -0.14888,0.32124 -0.0356,0.03382 -0.82945,0.127962 -1.29235,0.152092 -1.088439,0.05998 -1.387943,0.09473 -1.50401,0.178281 -0.227701,0.163763 -0.09182,0.371344 0.210281,0.321221 0.07953,-0.01531 0.417583,-0.04087 0.741809,-0.05725 0.32476,-0.01573 0.82114,-0.05992 1.10337,-0.08882 0.28347,-0.03363 0.52169,-0.0489 0.53197,-0.03575 0.009,0.0121 -0.0606,0.226115 -0.16574,0.474468 l -0.18687,0.445411 -0.30693,0.0927 c -0.16758,0.05134 -0.40988,0.142492 -0.53976,0.209414 -0.39294,0.195303 -0.49885,0.485893 -0.26547,0.707404 0.12739,0.119839 0.51571,0.161196 0.7687,0.08381 0.22455,-0.07086 0.36043,-0.190882 0.56902,-0.520441 0.11083,-0.170197 0.19202,-0.257298 0.24733,-0.262637 0.0451,-0.0063 0.43862,-0.03883 0.87548,-0.07725 0.43708,-0.03474 0.83419,-0.07047 0.8856,-0.07602 0.083,-0.0092 0.0912,-0.0011 0.0596,0.06924 -0.0204,0.04492 -0.10802,0.171032 -0.1956,0.281401 -0.0873,0.110414 -0.16294,0.244968 -0.16974,0.302215 -0.0141,0.118907 0.0732,0.249868 0.1582,0.228522 0.0323,-0.0071 0.0756,-0.01502 0.0955,-0.0127 0.0187,0.0022 0.11261,-0.04932 0.20685,-0.115877 0.1761,-0.123467 0.64285,-0.773828 0.66018,-0.919727 0.008,-0.07228 0.0682,-0.08456 0.0964,-0.02196 0.009,0.0198 0.0935,0.06476 0.18779,0.09868 0.13186,0.04977 0.16805,0.0807 0.16074,0.142275 -0.0141,0.118929 0.16363,0.31558 0.33448,0.370046 0.13296,0.04014 0.31115,0.03038 0.50587,-0.02194 0.0701,-0.02006 0.0729,-0.01032 0.0382,0.08547 -0.0222,0.05997 -0.15917,0.242629 -0.30086,0.409212 -0.30075,0.346138 -0.68191,0.908309 -0.79467,1.163668 -0.0935,0.218538 -0.085,0.39103 0.0243,0.48537 0.10025,0.0825 0.28236,0.06966 0.38715,-0.01914 0.0912,-0.07909 0.64449,-0.951017 0.85712,-1.353708 0.15147,-0.28214 0.21497,-0.356656 0.51173,-0.602304 0.24402,-0.200886 0.32128,-0.246515 0.26402,-0.163951 -0.0965,0.156336 -0.10792,0.282861 -0.0329,0.369193 0.16245,0.186418 0.44522,0.05794 0.7242,-0.331738 0.16502,-0.229662 0.27475,-0.29012 0.80705,-0.465931 l 0.27692,-0.08855 -0.0442,0.138638 c -0.0237,0.07418 -0.14029,0.283481 -0.25544,0.460339 -0.22775,0.358599 -0.29038,0.596375 -0.20632,0.816066 0.056,0.150633 0.13341,0.164379 0.50483,0.08413 0.51618,-0.10715 1.20919,-0.412452 1.40351,-0.61132 0.26527,-0.280625 0.37058,-0.567349 0.24333,-0.683282 -0.13134,-0.120155 -0.21759,-0.08768 -0.43167,0.155827 -0.28731,0.332215 -0.62281,0.577621 -0.93097,0.68575 -0.14416,0.05397 -0.26975,0.08454 -0.28012,0.07171 -0.013,-0.01658 0.39422,-0.806026 0.60669,-1.174261 0.0438,-0.0758 0.0856,-0.17291 0.0906,-0.214713 0.0128,-0.107433 -0.10895,-0.245662 -0.22527,-0.259245 -0.0536,-0.0064 -0.32364,0.06666 -0.59529,0.167235 -0.56268,0.198927 -0.5301,0.226065 -0.33591,-0.249278 0.11676,-0.293424 0.0991,-0.377488 -0.0842,-0.418529 -0.17648,-0.03944 -0.25268,0.0091 -0.45003,0.27844 -0.12796,0.183252 -0.28633,0.328655 -0.58329,0.543046 -0.39117,0.280833 -0.40837,0.290269 -0.48348,0.223534 -0.11365,-0.103013 -0.18518,-0.09837 -0.50507,0.01497 -0.31244,0.111472 -0.41207,0.119424 -0.47493,0.02158 -0.0537,-0.07995 0.0481,-0.107111 0.60057,-0.147588 0.53574,-0.03842 0.60422,-0.05866 0.61697,-0.166006 0.0205,-0.172941 -0.10377,-0.353822 -0.34672,-0.494965 -0.41938,-0.247067 -0.46713,-0.265098 -0.66669,-0.238257 -0.21561,0.02847 -0.5616,0.288401 -0.6258,0.468011 -0.0665,0.187042 -0.19111,0.113788 -0.16613,-0.09656 0.0105,-0.08853 -0.0722,-0.323254 -0.12998,-0.369064 -0.12142,-0.10392 -0.35705,0.0638 -0.56204,0.39778 l -0.16064,0.257476 -0.29416,0.02793 c -0.38196,0.03642 -1.48977,0.125134 -1.63676,0.136055 -0.0947,0.004 -0.10955,-0.0024 -0.0837,-0.05756 0.0191,-0.03556 0.086,-0.199089 0.15292,-0.366599 0.17669,-0.461694 0.21981,-0.519665 0.40119,-0.560387 0.21791,-0.04803 0.96046,-0.265677 1.15334,-0.336352 0.0907,-0.03324 0.27966,-0.142175 0.4214,-0.242311 0.4347,-0.314933 0.53592,-0.641996 0.28555,-0.920116 -0.069,-0.0748 -0.16268,-0.154814 -0.20652,-0.17954 -0.0685,-0.03622 -0.18939,-0.06908 -0.3162,-0.08948 z m -0.44429,0.402605 c 0.0538,0.0014 0.11777,0.01167 0.19736,0.029 0.20412,0.03473 0.28379,0.06429 0.33435,0.13169 0.0678,0.08477 0.0672,0.08847 -0.0164,0.227266 -0.0585,0.08659 -0.17864,0.181895 -0.32545,0.258605 -0.25575,0.13373 -1.03251,0.342158 -1.0495,0.286072 -0.0202,-0.0921 0.27948,-0.590298 0.45105,-0.741741 0.17129,-0.152034 0.24846,-0.198676 0.41117,-0.188715 z m -2.37361,2.980516 c 0.03,0.0067 0.0272,0.03212 -9.5e-4,0.07535 -0.063,0.08973 -0.20263,0.143717 -0.27286,0.108111 -0.0815,-0.04387 -0.0527,-0.08667 0.0909,-0.140817 0.0951,-0.03471 0.1561,-0.04971 0.18546,-0.04439 z"
     class="ColorScheme-Text"
     id="path14466-5-6-3"
     style="fill:#f9f9f9;fill-opacity:0.74901962" />
</svg>
