<?xml version="1.0" encoding="UTF-8" standalone="no"?>
<svg
   width="64"
   height="64"
   viewBox="0 0 64 64"
   fill="none"
   version="1.1"
   id="svg8"
   sodipodi:docname="folder-chameleon.svg"
   inkscape:version="1.3.2 (091e20ef0f, 2023-11-25)"
   xmlns:inkscape="http://www.inkscape.org/namespaces/inkscape"
   xmlns:sodipodi="http://sodipodi.sourceforge.net/DTD/sodipodi-0.dtd"
   xmlns:xlink="http://www.w3.org/1999/xlink"
   xmlns="http://www.w3.org/2000/svg"
   xmlns:svg="http://www.w3.org/2000/svg">
  <sodipodi:namedview
     id="namedview8"
     pagecolor="#ffffff"
     bordercolor="#999999"
     borderopacity="1"
     inkscape:showpageshadow="2"
     inkscape:pageopacity="0"
     inkscape:pagecheckerboard="0"
     inkscape:deskcolor="#d1d1d1"
     inkscape:zoom="8.4189901"
     inkscape:cx="30.407448"
     inkscape:cy="48.580649"
     inkscape:window-width="1920"
     inkscape:window-height="996"
     inkscape:window-x="0"
     inkscape:window-y="0"
     inkscape:window-maximized="1"
     inkscape:current-layer="svg8"
     showgrid="true">
    <inkscape:grid
       id="grid8"
       units="px"
       originx="0"
       originy="0"
       spacingx="1"
       spacingy="1"
       empcolor="#0099e5"
       empopacity="0.30196078"
       color="#0099e5"
       opacity="0.14901961"
       empspacing="5"
       dotted="false"
       gridanglex="30"
       gridanglez="30"
       visible="true" />
  </sodipodi:namedview>
  <path
     d="M 2.0000006,13.052632 C 2.0000006,10.26219 4.3025345,8 7.142858,8 H 18.5 c 2.680038,0 4.494906,2.986967 4.5,3 0,0 1.579803,2 3,2 H 50.857144 C 53.697416,13 56,15.314821 56,18.105263 V 50.947369 C 56,53.737811 53.697416,56 50.857144,56 H 7.142858 C 4.3025345,56 2.0000006,53.737811 2.0000006,50.947369 Z"
     id="path1"
     sodipodi:nodetypes="ssscssssssss"
     style="fill:url(#linearGradient17)" />
  <path
     d="m 5.0000007,23 c -0.027159,-3.092358 2.0431224,-5 5.0000003,-5 h 41.000002 c 3.046901,0 4.960649,1.89735 4.999849,5 v 28 c 0.07112,3.081468 -2.113351,5 -4.999849,5 H 10.000001 C 7.0129744,56 5.1372767,54.00847 5.0000007,51 Z"
     id="path2"
     sodipodi:nodetypes="cssccsscc"
     style="fill:url(#linearGradient20)" />
  <path
     d="M 7.4419126,26.935376 C 7.9771531,24.631723 10.042585,23 12.423055,23 H 57 c 3.287487,0 5.606098,2.818799 4.866884,6 L 56.558056,52.064624 C 56.022814,54.368278 53.957383,56 51.576788,56 H 7 C 3.7124609,56 1.0088039,53.021095 2,49 Z"
     id="path3"
     sodipodi:nodetypes="cssccsscc"
     style="fill:url(#linearGradient18)" />
  <defs
     id="defs8">
    <linearGradient
       id="linearGradient19"
       inkscape:collect="always">
      <stop
         style="stop-color:#00d455;stop-opacity:0.50196081;"
         offset="0"
         id="stop19" />
      <stop
         style="stop-color:#00e1bc;stop-opacity:0.05882353;"
         offset="1"
         id="stop20" />
    </linearGradient>
    <linearGradient
       id="linearGradient4"
       inkscape:collect="always">
      <stop
         style="stop-color:#00d455;stop-opacity:0.79607844;"
         offset="0"
         id="stop17" />
      <stop
         style="stop-color:#00e1bc;stop-opacity:0.05882353;"
         offset="1"
         id="stop18" />
    </linearGradient>
    <linearGradient
       id="linearGradient3"
       inkscape:collect="always">
      <stop
         style="stop-color:#00d455;stop-opacity:0.5;"
         offset="0"
         id="stop15" />
      <stop
         style="stop-color:#00e1bc;stop-opacity:0.05882353;"
         offset="1"
         id="stop16" />
    </linearGradient>
    <linearGradient
       id="linearGradient14"
       x1="28.7383"
       y1="25"
       x2="28.7383"
       y2="51"
       gradientUnits="userSpaceOnUse"
       spreadMethod="pad">
      <stop
         stop-color="#FFD075"
         stop-opacity="0.8"
         id="stop13"
         style="stop-color:#00d455;stop-opacity:0.79512197;"
         offset="0" />
      <stop
         offset="1"
         stop-color="#FFD075"
         stop-opacity="0"
         id="stop14"
         style="stop-color:#00a489;stop-opacity:0.05;" />
    </linearGradient>
    <linearGradient
       id="linearGradient12"
       x1="28.7383"
       y1="25"
       x2="28.7383"
       y2="51"
       gradientUnits="userSpaceOnUse"
       spreadMethod="pad">
      <stop
         stop-color="#FFD075"
         stop-opacity="0.8"
         id="stop11"
         style="stop-color:#00ccff;stop-opacity:0.73780489;"
         offset="0" />
      <stop
         offset="1"
         stop-color="#FFD075"
         stop-opacity="0"
         id="stop12"
         style="stop-color:#aa87de;stop-opacity:0.27073172;" />
    </linearGradient>
    <linearGradient
       id="linearGradient10"
       x1="28.7383"
       y1="25"
       x2="28.7383"
       y2="51"
       gradientUnits="userSpaceOnUse">
      <stop
         stop-color="#FFD075"
         stop-opacity="0.8"
         id="stop9"
         style="stop-color:#00ccff;stop-opacity:0.73780489;"
         offset="0" />
      <stop
         offset="1"
         stop-color="#FFD075"
         stop-opacity="0"
         id="stop10"
         style="stop-color:#aa87de;stop-opacity:0.22560975;" />
    </linearGradient>
    <linearGradient
       id="paint0_linear_403_1580"
       x1="29"
       y1="13"
       x2="29.237558"
       y2="55.988724"
       gradientUnits="userSpaceOnUse"
       xlink:href="#paint2_linear_403_1580">
      <stop
         stop-color="#FFD075"
         stop-opacity="0.5"
         id="stop3"
         style="stop-color:#00a489;stop-opacity:0.80000001;"
         offset="0" />
      <stop
         offset="1"
         stop-color="#FFD075"
         stop-opacity="0"
         id="stop4"
         style="stop-color:#00a489;stop-opacity:0.05;" />
    </linearGradient>
    <linearGradient
       id="paint1_linear_403_1580"
       x1="29.912073"
       y1="18.218882"
       x2="30.129253"
       y2="55.988724"
       gradientUnits="userSpaceOnUse">
      <stop
         stop-color="#FFD075"
         stop-opacity="0.5"
         id="stop5"
         offset="0"
         style="stop-color:#00d455;stop-opacity:0.50196081;" />
      <stop
         offset="1"
         stop-color="#FFD075"
         stop-opacity="0"
         id="stop6"
         style="stop-color:#00e1bc;stop-opacity:0.0597561;" />
    </linearGradient>
    <linearGradient
       id="paint2_linear_403_1580"
       x1="28.7383"
       y1="25"
       x2="28.7383"
       y2="51"
       gradientUnits="userSpaceOnUse"
       xlink:href="#linearGradient12">
      <stop
         stop-color="#FFD075"
         stop-opacity="0.8"
         id="stop7"
         style="stop-color:#00ccff;stop-opacity:0.73780489;"
         offset="0" />
      <stop
         offset="1"
         stop-color="#FFD075"
         stop-opacity="0"
         id="stop8"
         style="stop-color:#aa87de;stop-opacity:0.55000001;" />
    </linearGradient>
    <linearGradient
       id="paint179_linear_0_1"
       x1="854.50702"
       y1="1462.6"
       x2="896.10797"
       y2="1476.1801"
       gradientUnits="userSpaceOnUse">
      <stop
         stop-color="white"
         id="stop762" />
      <stop
         offset="1"
         stop-color="white"
         stop-opacity="0"
         id="stop763" />
    </linearGradient>
    <linearGradient
       id="paint180_linear_0_1"
       x1="872.505"
       y1="1444.02"
       x2="894.33801"
       y2="1458.47"
       gradientUnits="userSpaceOnUse">
      <stop
         stop-color="white"
         id="stop764" />
      <stop
         offset="1"
         stop-color="white"
         stop-opacity="0"
         id="stop765" />
    </linearGradient>
    <linearGradient
       inkscape:collect="always"
       xlink:href="#linearGradient3"
       id="linearGradient17"
       x1="30.506983"
       y1="13.470462"
       x2="30.462496"
       y2="56.112156"
       gradientUnits="userSpaceOnUse" />
    <linearGradient
       inkscape:collect="always"
       xlink:href="#linearGradient4"
       id="linearGradient18"
       x1="31.962236"
       y1="23.227264"
       x2="31.597401"
       y2="55.772736"
       gradientUnits="userSpaceOnUse" />
    <linearGradient
       inkscape:collect="always"
       xlink:href="#linearGradient19"
       id="linearGradient20"
       x1="30.299683"
       y1="17.995346"
       x2="30.701595"
       y2="55.529537"
       gradientUnits="userSpaceOnUse" />
  </defs>
  <path
     style="fill:#f9f9f9;fill-opacity:0.80000001;stroke-width:1"
     d="m 39.112457,53.98963 c -0.0607,-0.274903 -0.163975,-0.606689 -0.229466,-0.737306 -0.275359,-0.549251 -0.6286,-2.036649 -0.525863,-2.214256 0.06119,-0.105802 0.05575,-0.142517 -0.0121,-0.08156 -0.125183,0.11238 -1.391155,-2.192163 -1.270265,-2.312369 0.101128,-0.10057 0.836112,0.911085 1.097926,1.51123 0.431651,0.98946 0.250783,0.03262 -0.230967,-1.22184 l -0.476736,-1.241439 -0.458134,0.158803 c -0.492025,0.170559 -0.552704,0.282361 -0.293247,0.540355 0.115964,0.11532 -0.103594,0.119916 -0.740123,0.01546 -0.497737,-0.08166 -0.975099,-0.231893 -1.0608,-0.333863 -0.325535,-0.387331 -1.15866,-0.612537 -1.572488,-0.42505 -0.503012,0.227908 -1.086267,0.224701 -1.515064,-0.0082 -0.187184,-0.101715 -0.53668,-0.165818 -0.776663,-0.142443 -0.239984,0.02341 -0.520447,-0.0267 -0.623252,-0.111135 -0.124731,-0.102532 -1.042173,-0.05949 -2.75783,0.129298 -3.346172,0.368249 -4.573814,0.444041 -4.325175,0.267039 0.135295,-0.09631 0.09801,-0.118693 -0.120084,-0.07212 -0.173929,0.03704 -0.408878,-0.03121 -0.522118,-0.151691 -0.113234,-0.120537 -0.249365,-0.175926 -0.30251,-0.123079 -0.0532,0.05289 -0.0054,0.152315 0.106692,0.221035 0.303233,0.18636 -0.09652,0.288004 -0.67978,0.172853 -0.315406,-0.06228 -0.45377,-0.173565 -0.425404,-0.342178 C 21.425646,47.329021 21.26831,47.177401 20.97052,47.074172 20.711735,46.984502 20.5,46.848165 20.5,46.771271 c 0,-0.167863 1.918132,-0.316525 5.609259,-0.434714 3.048265,-0.0976 3.231722,-0.123665 2.981455,-0.423522 -0.128214,-0.153622 -0.586454,-0.186501 -1.867751,-0.134008 -1.446063,0.05919 -1.847683,0.02 -2.708156,-0.264753 -1.35145,-0.447205 -2.421194,-1.136178 -2.54874,-1.641541 -0.141332,-0.559933 0.02926,-0.653992 0.458685,-0.252865 0.756349,0.706556 2.788247,0.401609 2.244764,-0.336889 -0.162146,-0.220331 -0.318253,-0.244895 -0.897444,-0.141223 -0.385641,0.06907 -1.040843,0.07506 -1.456009,0.0134 -0.837702,-0.124437 -1.494205,-0.565869 -1.157543,-0.778322 0.159772,-0.100831 0.15992,-0.125703 7.17e-4,-0.127618 -0.2078,-0.003 -0.114576,-0.724579 0.127774,-0.989614 0.06792,-0.07429 0.08535,-0.234015 0.03865,-0.354944 -0.04665,-0.120921 -0.02365,-0.208751 0.05112,-0.195172 0.289851,0.05259 0.440137,-0.0215 0.266444,-0.13137 -0.134568,-0.08517 -0.119855,-0.253885 0.05715,-0.65611 0.131097,-0.29783 0.2612,-0.715813 0.289107,-0.928848 0.0279,-0.213035 0.07846,-0.596512 0.112348,-0.852161 0.03391,-0.255641 0.110235,-0.639116 0.169683,-0.852153 0.06564,-0.235173 -0.0233,-0.148436 -0.226216,0.220795 l -0.334303,0.608154 -0.290449,-0.375724 c -0.415152,-0.537039 -0.379741,-0.636072 0.427835,-1.196614 0.618762,-0.429479 0.722727,-0.428185 0.599497,0.0072 -0.07715,0.272902 -0.06311,0.298137 0.06501,0.1162 0.137828,-0.19576 0.164384,-0.183537 0.1684,0.07749 0.0038,0.25613 0.03052,0.269571 0.153202,0.07749 0.08783,-0.137453 0.09033,-0.252316 0.0062,-0.281144 -0.07808,-0.02686 -0.101188,-0.154673 -0.05121,-0.28414 0.06683,-0.173122 0.12149,-0.186066 0.206726,-0.04893 0.07253,0.116701 0.190031,-0.03686 0.31407,-0.410625 0.160673,-0.484122 0.217755,-0.541554 0.301712,-0.30356 0.09025,0.256007 0.146955,0.223655 0.443313,-0.253162 0.186876,-0.300683 0.339777,-0.70279 0.339777,-0.893584 0,-0.232926 0.07137,-0.319671 0.217133,-0.26404 0.119425,0.04557 0.37705,-0.08641 0.572507,-0.293301 0.430606,-0.455782 0.677798,-0.485594 0.568115,-0.06854 -0.0592,0.225143 0.06439,0.158926 0.460672,-0.246898 0.297859,-0.304989 0.584343,-0.511985 0.636634,-0.45999 0.05227,0.05199 0.01211,0.177047 -0.08927,0.277884 -0.319834,0.318029 -0.221223,0.621004 0.102526,0.315036 0.157804,-0.149124 0.26074,-0.320365 0.228756,-0.380533 -0.09503,-0.178795 0.676656,-0.608655 1.371313,-0.763857 0.808699,-0.180685 1.443672,0.01322 2.125208,0.648982 0.278514,0.259808 0.506391,0.517653 0.506391,0.572991 0,0.05535 -0.0842,0.01691 -0.186978,-0.08531 -0.263531,-0.262053 -1.473975,-0.23089 -2.471303,0.06363 -0.831274,0.245475 -2.171922,1.323532 -2.171922,1.746526 0,0.62643 2.490871,1.233337 3.956299,0.963958 1.410891,-0.259348 1.533384,-0.369244 1.471884,-1.320404 -0.03811,-0.589359 0.003,-0.813815 0.148834,-0.813598 0.113687,1.51e-4 0.162967,0.100071 0.113105,0.229282 -0.04863,0.125948 0.01348,0.340923 0.138,0.47772 0.124512,0.136813 0.232215,0.318466 0.239341,0.403683 0.02921,0.348338 0.194965,0.697214 0.331367,0.697214 0.07994,0 0.14531,-0.06971 0.14531,-0.154935 0,-0.08525 -0.08182,-0.154942 -0.181775,-0.154942 -0.09997,0 -0.138337,-0.04321 -0.0852,-0.09602 0.136711,-0.135951 1.588995,0.952958 2.054991,1.540816 0.214465,0.270558 0.39072,0.417909 0.39167,0.327455 9.08e-4,-0.09048 -0.149833,-0.326217 -0.335059,-0.523921 -0.18523,-0.197712 -0.595437,-0.874416 -0.911559,-1.503796 l -0.574769,-1.144324 0.504177,0.09406 c 0.290149,0.05414 0.5474,0.02453 0.60598,-0.06971 0.05864,-0.09437 0.307561,-0.122854 0.58741,-0.06718 0.366911,0.07298 0.456058,0.04899 0.364692,-0.098 -0.09557,-0.15376 -0.04964,-0.156634 0.21896,-0.01374 0.360015,0.191594 0.352423,0.573133 -0.01019,0.50986 -0.117841,-0.02062 -0.04154,0.084 0.169535,0.232412 0.211085,0.148387 0.489596,0.39181 0.618928,0.54093 0.129328,0.149122 0.33224,0.271148 0.450906,0.271148 0.130981,0 0.1793,0.09446 0.122966,0.240454 -0.05817,0.150687 -0.02911,0.201283 0.07793,0.135528 0.115194,-0.07081 0.136629,0.01483 0.06589,0.263097 -0.07062,0.247876 -0.05755,0.300308 0.04002,0.160622 0.11031,-0.158 0.228284,-0.07306 0.495424,0.356764 0.192848,0.310276 0.309076,0.605459 0.258293,0.655953 -0.05081,0.05053 -0.159511,-0.07524 -0.241614,-0.279288 -0.122944,-0.305633 -0.151027,-0.319028 -0.159154,-0.07592 -0.0094,0.285326 -0.02029,0.285814 -0.321503,0.01474 -0.395698,-0.356082 -0.412741,-0.03001 -0.01793,0.342579 0.457069,0.431329 0.936119,1.302113 0.845508,1.536904 -0.045,0.116694 -0.02779,0.334187 0.03817,0.48332 0.06598,0.149118 0.126129,0.317616 0.133529,0.374433 0.0072,0.05675 0.06606,0.155578 0.13032,0.219489 0.06429,0.06393 0.116857,0.241836 0.116857,0.395389 0,0.184516 0.07926,0.248954 0.233719,0.190013 0.309532,-0.118108 0.296631,0.05849 -0.02781,0.381114 -0.244849,0.243474 -0.244849,0.263273 0,0.310171 0.155902,0.02984 0.261548,0.196405 0.261548,0.412302 0,0.206309 0.187368,0.518984 0.435324,0.726463 0.716756,0.59972 0.735637,0.728214 0.1894,1.288628 l -0.500997,0.513992 0.905242,0.851305 c 1.056797,0.993831 1.027277,1.132467 -0.372123,1.747884 -0.719366,0.316346 -0.821255,0.413278 -0.731164,0.695551 0.570861,1.788521 1.084649,6.490645 0.732846,6.706856 -0.0979,0.06021 -0.210914,-0.102697 -0.276132,-0.397967 z M 36.98244,47.073711 c 0.304158,-0.19191 0.0648,-0.60262 -0.456518,-0.783343 -0.396786,-0.137539 -0.558652,-0.1026 -1.100463,0.237504 -0.484864,0.304361 -0.583861,0.431102 -0.418211,0.535407 0.272794,0.171766 1.707477,0.179346 1.975192,0.0104 z m 2.035997,-0.503942 c 0.6178,-0.214163 0.618708,-0.375869 0.0038,-0.692025 -0.604809,-0.311003 -0.971686,-0.05959 -0.749246,0.513507 0.15768,0.406233 0.116727,0.396429 0.745364,0.178518 z M 30.783604,46.12011 c 0,-0.08525 -0.122703,-0.153867 -0.272678,-0.152565 -0.23302,0.002 -0.238687,0.02423 -0.03899,0.152565 0.294059,0.188962 0.311627,0.188962 0.311627,0 z m 1.936751,0.01753 c 0.047,-0.07558 -0.01898,-0.22354 -0.14662,-0.328848 -0.36607,-0.302104 -0.278112,-0.554941 0.391249,-1.124669 0.685618,-0.583575 0.761321,-0.804142 0.35058,-1.02149 -0.207804,-0.109954 -0.569216,0.03546 -1.519178,0.611166 -0.685579,0.415495 -1.33415,0.75686 -1.441271,0.758579 -0.414387,0.0062 -0.160506,0.312502 0.623253,0.750761 0.818403,0.45764 1.581377,0.612899 1.741987,0.354501 z m 1.897297,-0.333718 c 0.454459,-0.171822 0.467978,-0.324941 0.06102,-0.691179 -0.301276,-0.271116 -0.330833,-0.270621 -0.868375,0.01475 -1.446385,0.767781 -0.820739,1.291982 0.807372,0.676453 z m -7.753709,-3.007361 c 0.105448,-0.537349 -0.230377,-0.612277 -1.096934,-0.244737 -1.015284,0.430626 -0.963757,0.379387 -0.760766,0.756566 0.16613,0.308667 0.181622,0.309254 0.986461,0.03733 0.513295,-0.173407 0.837611,-0.377844 0.871239,-0.54919 z m 1.160188,-0.260855 c 0.360795,-0.181884 0.698901,-0.396998 0.751329,-0.47804 0.05247,-0.08108 0.146326,-0.133105 0.208656,-0.115687 0.171613,0.0479 1.496683,-0.974147 1.663877,-1.283447 0.197755,-0.365821 0.132728,-0.350816 -1.075833,0.248338 -0.576315,0.285706 -1.380894,0.643788 -1.787952,0.795735 -0.574125,0.214297 -0.74011,0.352619 -0.74011,0.61673 0,0.309221 0.115603,0.547065 0.265895,0.547065 0.03203,0 0.35334,-0.148821 0.714138,-0.330694 z m -6.433485,-1.063752 c 0,-0.08525 -0.0701,-0.154933 -0.15581,-0.154933 -0.08574,0 -0.15581,0.06971 -0.15581,0.154933 0,0.08524 0.0701,0.15494 0.15581,0.15494 0.08572,0 0.15581,-0.06971 0.15581,-0.15494 z M 35.096988,37.87936 c -0.04973,-0.123602 -0.08666,-0.08688 -0.09416,0.09361 -0.0062,0.163322 0.03008,0.254834 0.08182,0.203351 0.05181,-0.0515 0.05725,-0.185117 0.01224,-0.296961 z M 33.23441,36.265429 c -0.05182,-0.05155 -0.186169,-0.05693 -0.298643,-0.01217 -0.124303,0.04945 -0.08737,0.08619 0.09414,0.09362 0.164257,0.0062 0.256277,-0.02991 0.204503,-0.08136 z M 24.706901,35.58435 c 0,-0.08524 -0.0309,-0.154937 -0.06874,-0.154937 -0.03784,0 -0.112052,0.06971 -0.165016,0.154937 -0.05299,0.08525 -0.02199,0.15494 0.06874,0.15494 0.09073,0 0.165008,-0.06971 0.165009,-0.15494 z m 0.311626,-0.638042 c 0,-0.08524 -0.0701,-0.111839 -0.155809,-0.05919 -0.08572,0.05269 -0.155817,0.165477 -0.155817,0.2507 0,0.08525 0.0701,0.11184 0.155817,0.05919 0.08573,-0.05269 0.155809,-0.165475 0.155809,-0.2507 z m 9.816208,-0.232187 c 0,-0.03261 -0.17943,-0.05939 -0.398731,-0.05939 -0.219293,0 -0.359462,0.06319 -0.311468,0.140398 0.07984,0.128441 0.710199,0.05661 0.710199,-0.08098 z m -4.764891,1.0049 c -0.132799,-0.213671 0.172215,-0.508381 0.388558,-0.375424 0.09318,0.05723 0.169387,0.162253 0.169387,0.233325 0,0.206101 -0.447349,0.32004 -0.557945,0.142099 z m -8.635008,-0.599483 c 0,-0.08526 0.07426,-0.154938 0.165011,-0.154938 0.09073,0 0.121677,0.06971 0.06874,0.154938 -0.053,0.08523 -0.127221,0.154933 -0.165008,0.154933 -0.03784,0 -0.06874,-0.06971 -0.06874,-0.154933 z"
     id="path1-3-3-6" />
</svg>
