<?xml version="1.0" encoding="UTF-8" standalone="no"?>
<svg
   width="64"
   height="64"
   viewBox="0 0 64 64"
   fill="none"
   version="1.1"
   id="svg8"
   sodipodi:docname="folder-extension.svg"
   inkscape:version="1.3.2 (091e20ef0f, 2023-11-25)"
   xmlns:inkscape="http://www.inkscape.org/namespaces/inkscape"
   xmlns:sodipodi="http://sodipodi.sourceforge.net/DTD/sodipodi-0.dtd"
   xmlns:xlink="http://www.w3.org/1999/xlink"
   xmlns="http://www.w3.org/2000/svg"
   xmlns:svg="http://www.w3.org/2000/svg">
  <sodipodi:namedview
     id="namedview8"
     pagecolor="#ffffff"
     bordercolor="#999999"
     borderopacity="1"
     inkscape:showpageshadow="2"
     inkscape:pageopacity="0"
     inkscape:pagecheckerboard="0"
     inkscape:deskcolor="#d1d1d1"
     inkscape:zoom="8.4189901"
     inkscape:cx="32.545471"
     inkscape:cy="39.315879"
     inkscape:window-width="1920"
     inkscape:window-height="996"
     inkscape:window-x="0"
     inkscape:window-y="0"
     inkscape:window-maximized="1"
     inkscape:current-layer="svg8"
     showgrid="true">
    <inkscape:grid
       id="grid8"
       units="px"
       originx="0"
       originy="0"
       spacingx="1"
       spacingy="1"
       empcolor="#0099e5"
       empopacity="0.30196078"
       color="#0099e5"
       opacity="0.14901961"
       empspacing="5"
       dotted="false"
       gridanglex="30"
       gridanglez="30"
       visible="true" />
  </sodipodi:namedview>
  <path
     d="M 2.0000006,13.052632 C 2.0000006,10.26219 4.3025345,8 7.142858,8 H 18.5 c 2.680038,0 4.494906,2.986967 4.5,3 0,0 1.579803,2 3,2 H 50.857144 C 53.697416,13 56,15.314821 56,18.105263 V 50.947369 C 56,53.737811 53.697416,56 50.857144,56 H 7.142858 C 4.3025345,56 2.0000006,53.737811 2.0000006,50.947369 Z"
     id="path1"
     sodipodi:nodetypes="ssscssssssss"
     style="fill:url(#linearGradient17)" />
  <path
     d="m 5.0000007,23 c -0.027159,-3.092358 2.0431224,-5 5.0000003,-5 h 41.000002 c 3.046901,0 4.960649,1.89735 4.999849,5 v 28 c 0.07112,3.081468 -2.113351,5 -4.999849,5 H 10.000001 C 7.0129744,56 5.1372767,54.00847 5.0000007,51 Z"
     id="path2"
     sodipodi:nodetypes="cssccsscc"
     style="fill:url(#linearGradient19)" />
  <path
     d="M 7.4419126,26.935376 C 7.9771531,24.631723 10.042585,23 12.423055,23 H 57 c 3.287487,0 5.606098,2.818799 4.866884,6 L 56.558056,52.064624 C 56.022814,54.368278 53.957383,56 51.576788,56 H 7 C 3.7124609,56 1.0088039,53.021095 2,49 Z"
     id="path3"
     sodipodi:nodetypes="cssccsscc"
     style="fill:url(#linearGradient22)" />
  <defs
     id="defs8">
    <linearGradient
       id="linearGradient4"
       inkscape:collect="always">
      <stop
         style="stop-color:#e9b96e;stop-opacity:0.80000001;"
         offset="0"
         id="stop21" />
      <stop
         style="stop-color:#e9b96e;stop-opacity:0.1;"
         offset="1"
         id="stop22" />
    </linearGradient>
    <linearGradient
       id="linearGradient20"
       x1="28.7383"
       y1="25"
       x2="28.7383"
       y2="51"
       gradientUnits="userSpaceOnUse"
       spreadMethod="pad">
      <stop
         stop-color="#FFD075"
         stop-opacity="0.8"
         id="stop17"
         style="stop-color:#e9b96e;stop-opacity:0.80000001;"
         offset="0" />
      <stop
         offset="1"
         stop-color="#FFD075"
         stop-opacity="0"
         id="stop20"
         style="stop-color:#e9b96e;stop-opacity:0.09878049;" />
    </linearGradient>
    <linearGradient
       id="linearGradient18"
       inkscape:collect="always">
      <stop
         style="stop-color:#e9b96e;stop-opacity:0.5;"
         offset="0"
         id="stop18" />
      <stop
         style="stop-color:#e9b96e;stop-opacity:0.1;"
         offset="1"
         id="stop19" />
    </linearGradient>
    <linearGradient
       id="linearGradient3"
       inkscape:collect="always">
      <stop
         style="stop-color:#e9b96e;stop-opacity:0.5;"
         offset="0"
         id="stop15" />
      <stop
         style="stop-color:#e9b96e;stop-opacity:0.1;"
         offset="1"
         id="stop16" />
    </linearGradient>
    <linearGradient
       id="linearGradient14"
       x1="28.7383"
       y1="25"
       x2="28.7383"
       y2="51"
       gradientUnits="userSpaceOnUse"
       spreadMethod="pad">
      <stop
         stop-color="#FFD075"
         stop-opacity="0.8"
         id="stop13"
         style="stop-color:#ffccaa;stop-opacity:0.80000001;"
         offset="0" />
      <stop
         offset="1"
         stop-color="#FFD075"
         stop-opacity="0"
         id="stop14"
         style="stop-color:#ffccaa;stop-opacity:0.06;" />
    </linearGradient>
    <linearGradient
       id="linearGradient12"
       x1="28.7383"
       y1="25"
       x2="28.7383"
       y2="51"
       gradientUnits="userSpaceOnUse"
       spreadMethod="pad">
      <stop
         stop-color="#FFD075"
         stop-opacity="0.8"
         id="stop11"
         style="stop-color:#00ccff;stop-opacity:0.73780489;"
         offset="0" />
      <stop
         offset="1"
         stop-color="#FFD075"
         stop-opacity="0"
         id="stop12"
         style="stop-color:#aa87de;stop-opacity:0.27073172;" />
    </linearGradient>
    <linearGradient
       id="linearGradient10"
       x1="28.7383"
       y1="25"
       x2="28.7383"
       y2="51"
       gradientUnits="userSpaceOnUse">
      <stop
         stop-color="#FFD075"
         stop-opacity="0.8"
         id="stop9"
         style="stop-color:#00ccff;stop-opacity:0.73780489;"
         offset="0" />
      <stop
         offset="1"
         stop-color="#FFD075"
         stop-opacity="0"
         id="stop10"
         style="stop-color:#aa87de;stop-opacity:0.22560975;" />
    </linearGradient>
    <linearGradient
       id="paint0_linear_403_1580"
       x1="29"
       y1="13"
       x2="29.237558"
       y2="55.988724"
       gradientUnits="userSpaceOnUse"
       xlink:href="#paint2_linear_403_1580">
      <stop
         stop-color="#FFD075"
         stop-opacity="0.5"
         id="stop3"
         style="stop-color:#ffccaa;stop-opacity:0.5;"
         offset="0" />
      <stop
         offset="1"
         stop-color="#FFD075"
         stop-opacity="0"
         id="stop4"
         style="stop-color:#ffccaa;stop-opacity:0.07;" />
    </linearGradient>
    <linearGradient
       id="paint1_linear_403_1580"
       x1="29.912073"
       y1="18.218882"
       x2="30.129253"
       y2="55.988724"
       gradientUnits="userSpaceOnUse"
       xlink:href="#linearGradient14">
      <stop
         stop-color="#FFD075"
         stop-opacity="0.5"
         id="stop5"
         offset="0"
         style="stop-color:#ffccaa;stop-opacity:0.5;" />
      <stop
         offset="1"
         stop-color="#FFD075"
         stop-opacity="0"
         id="stop6"
         style="stop-color:#ffccaa;stop-opacity:0.06;" />
    </linearGradient>
    <linearGradient
       id="paint2_linear_403_1580"
       x1="28.7383"
       y1="25"
       x2="28.7383"
       y2="51"
       gradientUnits="userSpaceOnUse"
       xlink:href="#linearGradient12">
      <stop
         stop-color="#FFD075"
         stop-opacity="0.8"
         id="stop7"
         style="stop-color:#00ccff;stop-opacity:0.73780489;"
         offset="0" />
      <stop
         offset="1"
         stop-color="#FFD075"
         stop-opacity="0"
         id="stop8"
         style="stop-color:#aa87de;stop-opacity:0.55000001;" />
    </linearGradient>
    <linearGradient
       id="paint179_linear_0_1"
       x1="854.50702"
       y1="1462.6"
       x2="896.10797"
       y2="1476.1801"
       gradientUnits="userSpaceOnUse">
      <stop
         stop-color="white"
         id="stop762" />
      <stop
         offset="1"
         stop-color="white"
         stop-opacity="0"
         id="stop763" />
    </linearGradient>
    <linearGradient
       id="paint180_linear_0_1"
       x1="872.505"
       y1="1444.02"
       x2="894.33801"
       y2="1458.47"
       gradientUnits="userSpaceOnUse">
      <stop
         stop-color="white"
         id="stop764" />
      <stop
         offset="1"
         stop-color="white"
         stop-opacity="0"
         id="stop765" />
    </linearGradient>
    <linearGradient
       id="paint2_linear_77:3-7-3"
       x1="79.398094"
       y1="-197.84389"
       x2="82.901054"
       y2="-199.97827"
       gradientUnits="userSpaceOnUse"
       gradientTransform="matrix(2.00979,0,0,1.7510857,-24.571935,445.89239)">
      <stop
         stop-color="#EBFAFF"
         stop-opacity="0.1"
         id="stop29-5-7-6"
         offset="0"
         style="stop-color:#c3c3c3;stop-opacity:1;" />
      <stop
         offset="1"
         stop-color="#70A9FF"
         stop-opacity="0.5"
         id="stop30-0-1-7"
         style="stop-color:#05c7ff;stop-opacity:0.80000001;" />
    </linearGradient>
    <linearGradient
       id="paint2_linear_77:3-7-3-3"
       x1="79.398094"
       y1="-197.84389"
       x2="82.901054"
       y2="-199.97827"
       gradientUnits="userSpaceOnUse"
       gradientTransform="matrix(3.0978294,0,0,2.7060468,-156.70313,564.9585)">
      <stop
         stop-color="#EBFAFF"
         stop-opacity="0.1"
         id="stop29-5-7-6-6"
         offset="0"
         style="stop-color:#c3c3c3;stop-opacity:1;" />
      <stop
         offset="1"
         stop-color="#70A9FF"
         stop-opacity="0.5"
         id="stop30-0-1-7-7"
         style="stop-color:#05c7ff;stop-opacity:0.80000001;" />
    </linearGradient>
    <linearGradient
       inkscape:collect="always"
       xlink:href="#linearGradient3"
       id="linearGradient17"
       x1="29.968504"
       y1="13.186352"
       x2="30.215223"
       y2="55.937008"
       gradientUnits="userSpaceOnUse" />
    <linearGradient
       inkscape:collect="always"
       xlink:href="#linearGradient18"
       id="linearGradient19"
       x1="29.944618"
       y1="18.018372"
       x2="30.216764"
       y2="56.317585"
       gradientUnits="userSpaceOnUse" />
    <linearGradient
       inkscape:collect="always"
       xlink:href="#linearGradient4"
       id="linearGradient22"
       x1="31"
       y1="23"
       x2="31"
       y2="56"
       gradientUnits="userSpaceOnUse" />
  </defs>
  <g
     transform="matrix(1.2498303,0,0,1.2491206,16.750509,28.051844)"
     id="g2"
     style="stroke-width:0.800329;fill:#f9f9f9;fill-opacity:0.83109444">
    <path
       d="M 5.2692106,3.000636 C 4.6675318,3.0043752 4.089822,3.2440303 3.6651134,3.6683577 3.2402329,4.0926803 3.0018416,4.6680994 3,5.2672388 v 3.025614 h 0.6807632 c 0.5697617,0 1.0975903,0.3016599 1.3823927,0.7929196 0.2849511,0.4911009 0.2849511,1.0973306 0,1.5884476 -0.2848024,0.491228 -0.812631,0.792919 -1.3823927,0.792919 H 3 v 3.025614 c 0.00374,0.599119 0.2442433,1.17303 0.67033,1.596272 0.4261322,0.42332 1.004767,0.660137 1.6067054,0.662506 H 8.315691 v 0.670535 c 0,0.567229 0.3020894,1.093495 0.7955279,1.377177 0.4933083,0.283543 1.1029641,0.283543 1.5962721,0 0.493421,-0.283682 0.795528,-0.809948 0.795528,-1.377177 v -0.670535 h 3.041263 c 0.602019,-0.0037 1.176487,-0.243257 1.60149,-0.667722 0.425075,-0.424578 0.665482,-0.999526 0.667721,-1.598881 v -3.025613 l 0.59268,0.0044 c 0.569752,0.0043 1.097448,-0.301643 1.382393,-0.79292 0.284809,-0.491118 0.284809,-1.0972206 0,-1.5884476 C 18.503633,8.5912773 17.975941,8.2894758 17.406173,8.2894758 v 0.00261 l -0.59268,-0.00442 V 5.2620222 C 16.811023,4.6621491 16.569762,4.0893301 16.143164,3.6657499 15.716557,3.2420562 15.138988,3.0024701 14.536458,3.0006365 h -3.038656 v 0.6781549 c 0,0.5672249 -0.30468,1.0910307 -0.798135,1.3745678 -0.49331,0.2836865 -1.1002309,0.2836865 -1.5936648,0 C 8.612694,4.7698221 8.3078661,4.2460163 8.3078661,3.6787914 V 3.0006365 Z"
       id="path4"
       style="fill:#f9f9f9;fill-opacity:0.83109444" />
  </g>
</svg>
